ply
format ascii 1.0
element vertex 548
property float32 x
property float32 y
property float32 z
property float32 I
end_header
45.8062 -15.0256 8.5003 0.8222
46.3132 -13.3559 8.4991 0.8222
44.6940 -11.1537 8.1225 0.8294
47.8104 -10.1085 8.6166 0.8200
47.8322 -8.3170 8.5607 0.8210
46.3060 -6.3346 8.2411 0.8271
48.1946 -1.3184 8.5012 0.8222
48.1872 2.1726 8.5053 0.8221
45.4609 3.7022 8.0425 0.8309
48.0276 7.4387 8.5695 0.8209
44.8456 8.6184 8.0522 0.8307
31.3680 -27.2460 6.3650 0.8452
32.8405 -24.5937 6.2854 0.8470
44.8637 -20.3355 7.5459 0.8193
46.4574 -13.3975 7.4071 0.8223
46.4785 -11.5990 7.3386 0.8238
46.5202 -8.0889 7.2336 0.8261
45.0425 -2.8664 6.9142 0.8331
46.6030 -1.2748 7.1420 0.8281
46.6450 2.1031 7.1530 0.8278
46.7101 7.2346 7.2410 0.8259
46.7325 8.9810 7.2902 0.8248
31.4235 -33.9344 6.0226 0.8298
32.8398 -24.5932 5.3427 0.8475
39.4659 -25.3177 6.1059 0.8277
46.2789 -17.0594 6.4229 0.8196
46.3457 -11.5659 6.2203 0.8247
46.5477 -9.8417 6.1955 0.8254
48.5741 -8.4460 6.4203 0.8197
48.5961 -6.6479 6.3872 0.8205
48.6181 -4.8659 6.3627 0.8211
44.7077 -2.8451 5.8336 0.8347
48.6617 -1.3311 6.3391 0.8217
48.7055 2.1960 6.3489 0.8215
48.7499 5.7526 6.3923 0.8204
48.7724 7.5541 6.4269 0.8195
31.4404 -36.5197 5.1746 0.8238
31.4167 -33.9271 4.9652 0.8303
31.3747 -29.3102 4.6105 0.8414
31.3558 -27.2355 4.4598 0.8461
32.8391 -24.5926 4.4055 0.8479
35.9312 -24.9307 4.6961 0.8387
39.4650 -25.3171 5.0349 0.8281
44.9435 -2.8601 4.8359 0.8343
31.4100 -33.9198 3.9134 0.8306
31.3498 -27.2302 3.5152 0.8465
32.8384 -24.5921 3.4730 0.8482
35.9304 -24.9301 3.7021 0.8390
39.4640 -25.3164 3.9691 0.8284
44.9505 -2.8605 3.8129 0.8346
31.4264 -36.5034 2.9869 0.8244
31.4033 -33.9125 2.8661 0.8309
31.3820 -31.5201 2.7581 0.8367
31.3622 -29.2986 2.6614 0.8420
31.3438 -27.2250 2.5745 0.8467
31.3265 -25.2801 2.4962 0.8510
32.8377 -24.5916 2.5440 0.8484
35.9296 -24.9296 2.7118 0.8392
44.8526 -20.3305 3.0537 0.8209
32.4859 -13.3296 2.1774 0.8687
45.0163 -2.8647 2.7971 0.8346
31.4195 -36.4953 1.8989 0.8247
31.3755 -31.5136 1.7535 0.8369
31.3207 -25.2754 1.5870 0.8512
32.8370 -24.5911 1.6176 0.8486
39.4621 -25.3152 1.8487 0.8289
45.0098 -2.8643 1.7784 0.8348
31.3692 -31.5072 0.7510 0.8371
31.3149 -25.2708 0.6797 0.8513
44.3265 -20.0920 0.8221 0.8231
32.4670 -13.3218 0.5928 0.8690
44.5399 -2.8344 0.7539 0.8365
31.4055 -36.4792 -0.2710 0.8249
31.3833 -33.8909 -0.2601 0.8313
31.3627 -31.5008 -0.2502 0.8371
31.3258 -27.2094 -0.2336 0.8471
31.3091 -25.2661 -0.2265 0.8514
44.3195 -20.0888 -0.2740 0.8231
44.5335 -2.8340 -0.2512 0.8365
31.3986 -36.4711 -1.3551 0.8248
39.4593 -25.3134 -1.3201 0.8289
37.6857 -17.0819 -1.1651 0.8474
32.4482 -13.3141 -0.9876 0.8691
37.7236 -10.8788 -1.1055 0.8546
37.7325 -9.4164 -1.0951 0.8559
37.7583 -5.1653 -1.0731 0.8586
37.7667 -3.7799 -1.0687 0.8591
37.7917 0.3346 -1.0642 0.8596
37.8000 1.7043 -1.0655 0.8595
37.8082 3.0790 -1.0681 0.8592
37.8165 4.4625 -1.0722 0.8587
37.8249 5.8585 -1.0778 0.8580
37.7488 7.2545 -1.0823 0.8574
37.8509 10.1612 -1.1035 0.8549
31.3916 -36.4630 -2.4401 0.8247
31.3700 -33.8765 -2.3415 0.8312
31.3499 -31.4879 -2.2534 0.8370
31.3313 -29.2697 -2.1744 0.8422
31.2975 -25.2567 -2.0396 0.8512
35.9255 -24.9268 -2.2175 0.8393
37.6429 -18.7334 -2.1324 0.8450
37.7088 -12.3695 -2.0126 0.8530
37.7269 -9.4150 -1.9720 0.8558
37.7356 -7.9784 -1.9560 0.8569
37.7528 -5.1645 -1.9324 0.8585
37.7780 -1.0334 -1.9166 0.8595
37.8195 5.8576 -1.9409 0.8579
37.7433 7.2535 -1.9491 0.8573
37.8365 8.7023 -1.9690 0.8560
37.8452 10.1597 -1.9872 0.8548
19.4682 -30.6428 -2.6619 0.8645
20.6149 -29.9914 -2.6684 0.8642
22.8364 -28.5540 -2.6809 0.8636
23.9073 -27.7695 -2.6867 0.8633
25.9600 -26.0742 -2.6978 0.8628
26.9380 -25.1655 -2.7029 0.8626
31.3475 -15.6004 -2.5674 0.8690
31.9203 -14.4686 -2.5697 0.8689
32.2705 -13.2412 -2.5576 0.8694
32.9306 -12.1390 -2.5734 0.8687
33.3661 -10.9449 -2.5747 0.8686
34.3848 -7.2699 -2.5769 0.8685
34.8181 -4.7631 -2.5767 0.8685
34.9599 -3.4990 -2.5761 0.8686
35.0512 -2.2305 -2.5752 0.8686
35.0829 0.3106 -2.5725 0.8687
34.9135 2.8433 -2.5684 0.8689
34.7541 4.1011 -2.5659 0.8690
34.5452 5.3505 -2.5631 0.8692
34.2876 6.5894 -2.5600 0.8693
33.6283 9.0276 -2.5530 0.8697
16.3363 -22.0150 -2.6319 0.8957
18.7185 -20.2141 -2.6449 0.8952
19.4671 -19.5527 -2.6489 0.8951
20.1909 -18.8623 -2.6527 0.8949
20.8886 -18.1437 -2.6563 0.8948
21.5591 -17.3979 -2.6597 0.8946
22.2012 -16.6260 -2.6628 0.8945
22.8137 -15.8291 -2.6658 0.8944
23.3957 -15.0084 -2.6685 0.8943
24.9483 -12.4158 -2.6754 0.8941
25.8135 -10.5917 -2.6787 0.8939
26.5356 -8.7043 -2.6811 0.8938
27.1097 -6.7654 -2.6825 0.8938
27.3400 -5.7804 -2.6828 0.8938
27.5318 -4.7872 -2.6828 0.8938
27.9104 -0.7635 -2.6805 0.8939
27.8649 1.2563 -2.6779 0.8940
27.6634 3.2644 -2.6742 0.8941
27.3079 5.2480 -2.6697 0.8943
27.0733 6.2268 -2.6670 0.8944
11.7306 -18.4638 -2.5985 0.9157
13.0734 -17.6179 -2.6060 0.9154
14.9650 -16.1607 -2.6163 0.9151
16.1327 -15.0711 -2.6225 0.9149
17.2167 -13.8937 -2.6280 0.9147
17.7252 -13.2741 -2.6305 0.9147
18.6709 -11.9775 -2.6350 0.9145
19.1065 -11.3023 -2.6369 0.9145
20.2560 -9.1814 -2.6418 0.9143
20.5845 -8.4462 -2.6430 0.9143
20.8849 -7.6986 -2.6440 0.9142
21.1566 -6.9399 -2.6449 0.9142
21.3991 -6.1711 -2.6455 0.9142
21.6121 -5.3934 -2.6459 0.9142
21.7951 -4.6081 -2.6462 0.9142
21.9479 -3.8163 -2.6462 0.9142
22.2233 -1.4142 -2.6452 0.9142
22.2537 -0.6088 -2.6444 0.9142
22.1598 1.8046 -2.6410 0.9143
21.6083 4.9699 -2.6338 0.9146
9.7737 -15.3837 -2.5824 0.9290
11.4241 -14.2844 -2.5916 0.9288
11.9468 -13.8767 -2.5945 0.9287
12.4542 -13.4494 -2.5972 0.9286
12.9459 -13.0028 -2.5998 0.9286
13.8782 -12.0545 -2.6046 0.9284
14.7380 -11.0370 -2.6089 0.9283
15.1389 -10.5041 -2.6108 0.9283
15.5198 -9.9560 -2.6126 0.9282
15.8799 -9.3936 -2.6142 0.9282
16.2186 -8.8177 -2.6157 0.9281
16.5355 -8.2291 -2.6170 0.9281
16.8300 -7.6286 -2.6182 0.9281
17.1017 -7.0171 -2.6192 0.9280
17.3501 -6.3956 -2.6200 0.9280
17.5749 -5.7650 -2.6207 0.9280
17.7756 -5.1261 -2.6212 0.9280
17.9520 -4.4800 -2.6216 0.9280
18.3325 -2.5079 -2.6217 0.9280
18.4606 -1.1748 -2.6210 0.9280
18.4874 0.1637 -2.6196 0.9280
18.3377 2.1639 -2.6163 0.9281
18.1124 3.4808 -2.6133 0.9282
17.9628 4.1314 -2.6116 0.9282
8.3687 -13.1722 -2.5709 0.9387
9.7769 -12.2247 -2.5787 0.9385
10.6552 -11.5065 -2.5835 0.9384
12.2427 -9.8797 -2.5917 0.9382
12.6008 -9.4365 -2.5934 0.9382
13.2665 -8.5105 -2.5966 0.9381
13.5731 -8.0291 -2.5979 0.9381
13.8615 -7.5362 -2.5992 0.9380
14.1313 -7.0326 -2.6003 0.9380
14.3820 -6.5190 -2.6013 0.9380
14.6134 -5.9961 -2.6022 0.9380
14.8249 -5.4648 -2.6029 0.9380
15.1874 -4.3798 -2.6039 0.9379
15.4673 -3.2702 -2.6044 0.9379
15.7731 -1.0037 -2.6037 0.9379
15.5876 2.4143 -2.5985 0.9381
15.4821 2.9753 -2.5972 0.9381
8.1379 -10.9667 -2.5668 0.9459
8.5368 -10.6741 -2.5690 0.9459
8.9248 -10.3666 -2.5711 0.9458
9.3015 -10.0447 -2.5732 0.9458
9.6662 -9.7087 -2.5751 0.9458
10.6830 -8.6210 -2.5803 0.9457
11.2916 -7.8346 -2.5832 0.9456
11.8402 -7.0040 -2.5857 0.9455
12.0911 -6.5737 -2.5868 0.9455
12.5439 -5.6858 -2.5887 0.9455
12.9291 -4.7660 -2.5900 0.9455
13.6590 -1.8685 -2.5913 0.9454
13.7166 -1.3728 -2.5911 0.9454
13.7555 -0.8753 -2.5907 0.9454
13.7757 -0.3768 -2.5903 0.9455
13.7244 1.1177 -2.5882 0.9455
13.6700 1.6131 -2.5873 0.9455
13.5061 2.5956 -2.5851 0.9456
13.3967 3.0812 -2.5838 0.9456
13.2694 3.5622 -2.5824 0.9456
6.8536 -9.9708 -2.5575 0.9517
7.5686 -9.4635 -2.5615 0.9517
7.9119 -9.1900 -2.5633 0.9516
8.2451 -8.9038 -2.5651 0.9516
8.5677 -8.6053 -2.5668 0.9516
8.8790 -8.2948 -2.5684 0.9515
9.1789 -7.9727 -2.5699 0.9515
9.4668 -7.6395 -2.5714 0.9515
9.7422 -7.2957 -2.5727 0.9515
10.0047 -6.9417 -2.5740 0.9514
10.2540 -6.5780 -2.5751 0.9514
10.4897 -6.2051 -2.5762 0.9514
10.7114 -5.8235 -2.5772 0.9514
10.9188 -5.4339 -2.5780 0.9514
11.1116 -5.0366 -2.5788 0.9513
11.4522 -4.2215 -2.5800 0.9513
11.5996 -3.8049 -2.5804 0.9513
11.8471 -2.9565 -2.5810 0.9513
11.9469 -2.5259 -2.5812 0.9513
12.0981 -1.6550 -2.5811 0.9513
12.1838 -0.7753 -2.5806 0.9513
12.2020 -0.3338 -2.5802 0.9513
12.2037 0.1080 -2.5797 0.9513
12.1888 0.5495 -2.5791 0.9513
12.1576 0.9901 -2.5784 0.9514
11.9659 2.2996 -2.5756 0.9514
11.8696 2.7300 -2.5745 0.9514
6.1504 -8.9479 -2.5518 0.9564
6.7911 -8.4913 -2.5554 0.9563
7.0985 -8.2453 -2.5570 0.9563
7.6858 -7.7196 -2.5602 0.9562
7.9647 -7.4405 -2.5616 0.9562
8.2331 -7.1512 -2.5630 0.9562
8.7373 -6.5432 -2.5655 0.9561
8.9724 -6.2254 -2.5666 0.9561
9.4065 -5.5643 -2.5686 0.9561
9.6049 -5.2220 -2.5694 0.9561
9.7906 -4.8724 -2.5702 0.9561
10.1224 -4.1534 -2.5715 0.9560
10.3999 -3.4114 -2.5724 0.9560
10.5179 -3.0332 -2.5727 0.9560
10.6216 -2.6507 -2.5729 0.9560
10.7111 -2.2646 -2.5730 0.9560
10.8466 -1.4838 -2.5729 0.9560
10.8925 -1.0902 -2.5728 0.9560
10.9419 0.0969 -2.5717 0.9560
10.9012 0.8878 -2.5705 0.9561
10.8588 1.2814 -2.5698 0.9561
10.8019 1.6730 -2.5690 0.9561
10.6446 2.4482 -2.5671 0.9561
5.2721 -8.2982 -2.5455 0.9602
5.5727 -8.1073 -2.5472 0.9602
6.7004 -7.2357 -2.5533 0.9601
7.2138 -6.7391 -2.5560 0.9600
7.4566 -6.4767 -2.5573 0.9600
7.6896 -6.2054 -2.5584 0.9600
7.9126 -5.9256 -2.5595 0.9600
8.3268 -5.3417 -2.5615 0.9599
8.5175 -5.0385 -2.5623 0.9599
8.6970 -4.7283 -2.5631 0.9599
8.8648 -4.4117 -2.5638 0.9599
9.1648 -3.7605 -2.5649 0.9599
9.6163 -2.3998 -2.5662 0.9599
9.6973 -2.0503 -2.5663 0.9599
3.8460 -0.2447 -0.9978 0.9842
3.8460 -0.1052 -0.9962 0.9842
3.8469 0.0341 -0.9961 0.9842
3.8976 0.3174 -1.0125 0.9840
9.6393 2.2170 -2.5609 0.9600
9.5491 2.5635 -2.5600 0.9600
4.8148 -7.5784 -2.5418 0.9634
5.0890 -7.4036 -2.5433 0.9633
5.6177 -7.0241 -2.5462 0.9633
6.1175 -6.6063 -2.5489 0.9633
6.3558 -6.3837 -2.5501 0.9632
7.0195 -5.6647 -2.5535 0.9632
7.2228 -5.4090 -2.5545 0.9632
7.4165 -5.1459 -2.5554 0.9632
7.7743 -4.5988 -2.5571 0.9631
8.2331 -3.7318 -2.5590 0.9631
8.3643 -3.4320 -2.5595 0.9631
8.4844 -3.1275 -2.5599 0.9631
8.6904 -2.5061 -2.5604 0.9631
8.7760 -2.1901 -2.5606 0.9631
8.8498 -1.8711 -2.5607 0.9631
4.8174 -0.8376 -1.3842 0.9799
3.6254 -0.4959 -1.0359 0.9849
3.5595 -0.3563 -1.0127 0.9852
3.5646 0.0316 -1.0091 0.9853
3.5633 0.1607 -1.0098 0.9853
3.6023 0.2934 -1.0232 0.9851
4.8305 0.7482 -1.3838 0.9799
8.8688 1.7044 -2.5566 0.9632
8.7985 2.0236 -2.5558 0.9632
8.7165 2.3399 -2.5549 0.9632
4.6778 -6.8054 -2.5400 0.9660
5.1633 -6.4559 -2.5427 0.9660
5.3962 -6.2679 -2.5439 0.9660
5.6222 -6.0714 -2.5451 0.9660
6.0520 -5.6538 -2.5474 0.9659
6.2552 -5.4332 -2.5484 0.9659
6.6368 -4.9701 -2.5503 0.9659
6.8146 -4.7282 -2.5511 0.9659
6.9834 -4.4799 -2.5519 0.9659
7.1430 -4.2253 -2.5526 0.9659
7.2931 -3.9651 -2.5533 0.9659
7.6845 -3.1531 -2.5548 0.9658
7.7947 -2.8733 -2.5552 0.9658
7.9838 -2.3024 -2.5557 0.9658
8.0624 -2.0120 -2.5559 0.9658
3.4440 -0.5988 -1.0752 0.9855
3.3740 -0.4616 -1.0474 0.9858
3.3497 -0.3353 -1.0354 0.9860
3.3530 0.1512 -1.0324 0.9861
3.3652 0.2740 -1.0385 0.9860
3.4308 0.4048 -1.0626 0.9856
8.0843 1.8594 -2.5515 0.9659
4.7719 -5.9666 -2.5396 0.9683
4.9870 -5.7926 -2.5408 0.9683
5.1956 -5.6108 -2.5419 0.9683
5.3975 -5.4213 -2.5429 0.9683
5.5925 -5.2244 -2.5439 0.9683
6.1323 -4.5923 -2.5466 0.9682
6.2964 -4.3687 -2.5474 0.9682
6.4522 -4.1391 -2.5481 0.9682
6.5995 -3.9039 -2.5488 0.9682
6.9882 -3.1675 -2.5504 0.9682
7.0994 -2.9130 -2.5508 0.9682
7.2933 -2.3924 -2.5514 0.9682
7.4483 -1.8588 -2.5518 0.9682
7.5110 -1.5880 -2.5519 0.9682
3.2383 -0.5631 -1.0926 0.9862
3.1790 -0.2023 -1.0589 0.9867
3.1804 0.0282 -1.0572 0.9867
3.1790 0.1433 -1.0578 0.9867
3.1752 0.2586 -1.0589 0.9867
7.5782 1.1737 -2.5491 0.9682
7.4695 1.7180 -2.5477 0.9682
7.4003 1.9866 -2.5470 0.9682
4.0149 -5.8410 -2.5346 0.9703
4.6305 -5.3785 -2.5380 0.9703
5.0115 -5.0335 -2.5400 0.9703
5.5333 -4.4653 -2.5427 0.9702
5.6930 -4.2634 -2.5434 0.9702
5.9898 -3.8425 -2.5448 0.9702
6.3752 -3.1726 -2.5465 0.9702
6.4869 -2.9403 -2.5469 0.9702
6.5901 -2.7040 -2.5473 0.9702
6.7700 -2.2207 -2.5479 0.9702
6.9138 -1.7254 -2.5482 0.9702
6.9719 -1.4741 -2.5483 0.9702
3.0803 -0.5356 -1.1181 0.9868
3.0400 -0.4159 -1.0972 0.9871
3.0454 -0.3048 -1.0945 0.9871
3.0490 -0.1940 -1.0926 0.9871
3.0512 -0.0835 -1.0915 0.9871
6.9892 1.3432 -2.5451 0.9702
6.8701 1.8443 -2.5438 0.9702
3.5422 -5.5754 -2.5313 0.9721
4.3169 -5.0143 -2.5356 0.9721
4.4973 -4.8566 -2.5365 0.9720
5.0024 -4.3450 -2.5392 0.9720
5.1579 -4.1624 -2.5399 0.9720
5.3067 -3.9741 -2.5407 0.9720
5.4485 -3.7804 -2.5413 0.9720
5.5831 -3.5816 -2.5420 0.9720
5.7104 -3.3779 -2.5425 0.9720
5.9421 -2.9571 -2.5435 0.9720
6.1423 -2.5203 -2.5443 0.9720
6.2302 -2.2966 -2.5446 0.9720
6.3098 -2.0698 -2.5448 0.9720
2.9410 -0.5114 -1.1439 0.9873
2.9176 -0.3991 -1.1285 0.9875
2.9302 0.0259 -1.1229 0.9875
2.9274 0.1320 -1.1230 0.9875
2.9483 0.3479 -1.1377 0.9874
2.9865 0.4626 -1.1581 0.9871
3.3142 -5.2165 -2.5294 0.9736
3.8648 -4.8324 -2.5325 0.9736
4.0387 -4.6911 -2.5334 0.9736
4.3705 -4.3897 -2.5352 0.9736
4.5279 -4.2300 -2.5360 0.9736
4.8249 -3.8936 -2.5375 0.9736
5.0966 -3.5362 -2.5388 0.9735
5.7451 -2.3573 -2.5415 0.9735
5.9018 -1.9359 -2.5420 0.9735
2.8438 -0.6012 -1.1896 0.9875
2.8152 -0.4895 -1.1695 0.9877
2.8065 -0.3839 -1.1593 0.9878
2.8111 -0.2813 -1.1563 0.9879
2.8153 -0.1792 -1.1546 0.9879
2.8171 0.0249 -1.1530 0.9879
2.8146 0.1269 -1.1531 0.9879
2.8118 0.2290 -1.1546 0.9879
2.8242 0.3333 -1.1639 0.9878
6.0460 1.3906 -2.5391 0.9735
5.9903 1.6081 -2.5385 0.9735
3.2868 -4.7817 -2.5288 0.9750
3.4590 -4.6614 -2.5297 0.9750
3.6268 -4.5348 -2.5306 0.9750
3.9480 -4.2634 -2.5324 0.9750
4.1010 -4.1190 -2.5332 0.9750
4.2487 -3.9691 -2.5339 0.9749
4.3908 -3.8138 -2.5346 0.9749
4.5272 -3.6534 -2.5353 0.9749
4.6576 -3.4880 -2.5360 0.9749
5.0115 -2.9645 -2.5376 0.9749
5.3058 -2.4050 -2.5388 0.9749
5.3900 -2.2116 -2.5391 0.9749
5.4671 -2.0153 -2.5394 0.9749
5.5370 -1.8163 -2.5396 0.9749
5.5994 -1.6148 -2.5398 0.9749
2.7326 -0.5778 -1.2173 0.9879
2.7243 0.0241 -1.1873 0.9882
3.0934 0.5945 -1.3728 0.9863
5.6727 1.3047 -2.5368 0.9749
3.0927 -4.4993 -2.5272 0.9762
3.2546 -4.3860 -2.5281 0.9762
3.4124 -4.2668 -2.5290 0.9762
3.5658 -4.1418 -2.5298 0.9762
3.8584 -3.8754 -2.5313 0.9762
4.1309 -3.5881 -2.5327 0.9762
4.4987 -3.1214 -2.5345 0.9762
4.6096 -2.9571 -2.5350 0.9761
4.7145 -2.7888 -2.5355 0.9761
4.9055 -2.4413 -2.5363 0.9761
4.9913 -2.2624 -2.5366 0.9761
5.0705 -2.0805 -2.5369 0.9761
5.2086 -1.7086 -2.5374 0.9761
5.2674 -1.5190 -2.5375 0.9761
2.6347 -0.4581 -1.2378 0.9883
2.6502 -0.0725 -1.2272 0.9884
2.6492 0.0235 -1.2263 0.9884
2.7384 0.5263 -1.2908 0.9878
5.2876 1.4195 -2.5342 0.9762
2.7603 -4.3447 -2.5249 0.9773
3.0695 -4.1364 -2.5266 0.9773
3.2182 -4.0239 -2.5274 0.9773
3.3628 -3.9060 -2.5282 0.9773
3.5030 -3.7829 -2.5290 0.9773
3.6386 -3.6546 -2.5297 0.9773
4.2422 -2.9434 -2.5327 0.9773
4.4456 -2.6297 -2.5336 0.9773
4.6255 -2.3019 -2.5344 0.9772
4.7064 -2.1333 -2.5347 0.9772
4.8494 -1.7876 -2.5352 0.9772
2.6033 -0.5504 -1.3052 0.9882
2.6030 -0.2605 -1.2832 0.9884
2.6016 -0.1656 -1.2787 0.9885
2.6037 0.1174 -1.2785 0.9885
2.6049 0.2121 -1.2820 0.9884
2.6062 0.3075 -1.2873 0.9884
2.6046 0.4034 -1.2928 0.9883
2.6333 0.5061 -1.3154 0.9881
5.0323 1.1574 -2.5329 0.9773
2.7565 -4.0102 -2.5245 0.9783
3.3103 -3.5747 -2.5275 0.9783
3.4384 -3.4535 -2.5282 0.9783
3.5621 -3.3276 -2.5288 0.9783
3.6810 -3.1973 -2.5294 0.9783
3.7952 -3.0627 -2.5300 0.9783
3.9044 -2.9239 -2.5305 0.9783
4.1072 -2.6348 -2.5315 0.9783
4.2006 -2.4848 -2.5319 0.9782
4.2884 -2.3315 -2.5323 0.9782
4.4470 -2.0157 -2.5329 0.9782
4.6404 -1.5222 -2.5335 0.9782
2.5779 -0.5451 -1.3670 0.9882
2.5813 -0.4488 -1.3592 0.9883
2.5811 -0.3531 -1.3515 0.9883
2.5803 -0.2582 -1.3453 0.9884
2.5803 -0.0706 -1.3391 0.9884
2.5806 0.0228 -1.3388 0.9884
2.5821 0.3047 -1.3489 0.9884
2.5790 0.3995 -1.3539 0.9883
2.6044 0.5005 -1.3759 0.9881
2.8394 0.6530 -1.5115 0.9870
4.7115 1.2648 -2.5307 0.9783
2.7462 -3.7008 -2.5241 0.9792
2.8792 -3.6001 -2.5248 0.9792
3.1338 -3.3842 -2.5262 0.9792
3.3720 -3.1501 -2.5274 0.9792
3.4846 -3.0267 -2.5280 0.9792
3.5927 -2.8992 -2.5285 0.9792
3.6960 -2.7678 -2.5290 0.9792
3.7945 -2.6327 -2.5295 0.9792
3.8879 -2.4941 -2.5299 0.9792
3.9762 -2.3521 -2.5303 0.9792
4.1371 -2.0589 -2.5310 0.9791
4.2761 -1.7546 -2.5315 0.9791
4.3371 -1.5988 -2.5317 0.9791
2.5539 -0.5400 -1.4297 0.9882
2.5584 -0.3500 -1.4143 0.9883
2.5595 -0.0700 -1.4024 0.9884
2.5598 0.0227 -1.4021 0.9884
2.5596 0.1154 -1.4033 0.9884
2.5754 0.4950 -1.4364 0.9881
2.6347 0.6060 -1.4807 0.9877
2.4746 -3.6002 -2.5222 0.9800
2.6041 -3.5092 -2.5229 0.9800
2.8526 -3.3134 -2.5243 0.9800
3.0863 -3.0999 -2.5255 0.9800
3.3040 -2.8698 -2.5266 0.9800
3.4063 -2.7489 -2.5271 0.9800
3.5976 -2.4962 -2.5281 0.9800
3.6862 -2.3647 -2.5285 0.9800
3.7699 -2.2301 -2.5288 0.9800
3.9223 -1.9520 -2.5295 0.9800
3.9909 -1.8089 -2.5298 0.9800
4.1120 -1.5158 -2.5302 0.9800
2.5988 -0.7494 -1.5616 0.9876
2.5372 -0.3471 -1.4785 0.9882
2.5384 0.2067 -1.4704 0.9883
2.5368 0.2993 -1.4748 0.9883
2.5348 0.3926 -1.4809 0.9882
4.2286 1.1352 -2.5278 0.9800
