ply
format ascii 1.0
element vertex 586
property float32 x
property float32 y
property float32 z
property float32 I
end_header
-24.0885 -21.5174 5.6952 0.8771
-20.8795 -21.5032 5.2849 0.8854
-6.0486 -7.1862 1.6562 0.9626
-4.9442 -6.8008 1.4826 0.9664
-4.9082 -7.2814 1.5484 0.9650
-5.0086 -8.0318 1.6690 0.9623
-4.5250 -7.8651 1.6000 0.9638
-3.9210 -8.0956 1.5861 0.9641
-3.2182 -8.9692 1.6802 0.9620
-2.8849 -9.0377 1.6728 0.9622
-6.0178 -21.4540 3.9289 0.9135
-4.4023 -21.4482 3.8607 0.9149
-2.8332 -21.4359 3.8126 0.9159
-2.0615 -21.4323 3.7965 0.9163
-0.5328 -21.4250 3.7790 0.9166
-22.4257 -21.5116 4.7605 0.8818
-19.4404 -21.4985 4.4403 0.8893
-6.0185 -7.1504 1.4318 0.9629
-4.7973 -7.6929 1.3889 0.9640
-4.2575 -8.0486 1.3949 0.9638
-3.5297 -7.9998 1.3395 0.9652
-3.5442 -8.8733 1.4638 0.9621
-3.2084 -8.9418 1.4553 0.9623
-5.2029 -21.4506 3.3814 0.9146
-2.0615 -21.4323 3.2985 0.9166
0.9886 -21.3968 3.2814 0.9170
2.5435 -21.6027 3.3323 0.9157
-25.8943 -21.5272 4.3850 0.8730
-22.4257 -21.5116 4.0466 0.8822
-20.8799 -21.5036 3.9031 0.8861
-19.4406 -21.4987 3.7745 0.8897
-5.9889 -7.1152 1.2111 0.9632
-5.8148 -7.4286 1.2285 0.9627
-5.6209 -7.7316 1.2448 0.9622
-4.7718 -7.0792 1.1117 0.9661
-4.6034 -8.0015 1.2021 0.9634
-3.8517 -7.9525 1.1507 0.9650
-3.5126 -8.7940 1.2331 0.9625
-3.1914 -8.8945 1.2305 0.9626
-6.8516 -21.4643 2.9341 0.9131
-6.0176 -21.4531 2.9015 0.9140
-4.4021 -21.4473 2.8511 0.9155
-3.6132 -21.4445 2.8319 0.9160
-2.8332 -21.4360 2.8157 0.9165
-2.0615 -21.4323 2.8038 0.9168
-0.5328 -21.4251 2.7909 0.9172
0.2284 -21.4276 2.7905 0.9172
1.7522 -21.4026 2.7964 0.9170
2.5436 -21.6031 2.8326 0.9160
3.4404 -22.3523 2.9450 0.9128
-25.8939 -21.5269 3.6159 0.8733
-22.4258 -21.5116 3.3369 0.8825
-20.8801 -21.5038 3.2186 0.8864
-5.9597 -7.0806 0.9938 0.9635
-5.5537 -7.6391 1.0142 0.9627
-4.8627 -7.2140 0.9342 0.9656
-4.6607 -7.4739 0.9458 0.9652
-3.6427 -7.5209 0.8973 0.9669
-3.4772 -8.7055 1.0066 0.9630
-6.8513 -21.4633 2.4193 0.9133
-6.0174 -21.4526 2.3925 0.9143
-4.4020 -21.4469 2.3510 0.9157
-3.6132 -21.4441 2.3352 0.9162
-2.8332 -21.4360 2.3218 0.9167
-2.0615 -21.4323 2.3121 0.9170
-0.5328 -21.4251 2.3014 0.9174
0.9886 -21.3954 2.2999 0.9174
1.7522 -21.4022 2.3059 0.9172
2.5436 -21.6036 2.3359 0.9162
-25.8936 -21.5266 2.8505 0.8736
-24.0886 -21.5174 2.7342 0.8784
-22.4258 -21.5116 2.6306 0.8827
-20.8803 -21.5040 2.5373 0.8866
-19.4410 -21.4991 2.4537 0.8902
-18.0903 -21.4926 2.3781 0.8934
-5.7487 -7.3442 0.7895 0.9633
-5.4884 -7.5493 0.7901 0.9632
-5.1954 -7.7075 0.7869 0.9634
-4.5958 -7.3697 0.7352 0.9657
-4.1451 -7.8360 0.7504 0.9650
-4.0787 -8.4211 0.7921 0.9631
-3.7593 -8.5202 0.7883 0.9633
-7.7018 -21.4648 1.9305 0.9125
-6.0173 -21.4522 1.8861 0.9144
-4.4019 -21.4464 1.8533 0.9159
-3.6131 -21.4436 1.8409 0.9164
-2.0615 -21.4323 1.8227 0.9172
-0.5328 -21.4251 1.8143 0.9176
0.2283 -21.4264 1.8139 0.9176
0.9885 -21.3947 1.8131 0.9176
1.7522 -21.4018 1.8178 0.9174
2.5437 -21.6040 1.8415 0.9164
3.4416 -22.3603 1.9152 0.9132
-18.0905 -21.4929 1.7420 0.8935
-5.6737 -7.2484 0.5708 0.9638
-5.4705 -7.5247 0.5769 0.9634
-4.6777 -7.5010 0.5482 0.9652
-4.7591 -8.2721 0.5918 0.9625
-4.0791 -7.7112 0.5410 0.9656
-3.7224 -8.4365 0.5718 0.9637
-3.4090 -8.5348 0.5699 0.9638
-7.7014 -21.4638 1.4141 0.9127
-6.8507 -21.4613 1.3970 0.9137
-6.0172 -21.4518 1.3816 0.9146
-5.2025 -21.4489 1.3686 0.9153
-4.4018 -21.4460 1.3576 0.9160
-2.0615 -21.4323 1.3352 0.9173
-0.5328 -21.4251 1.3290 0.9177
0.2283 -21.4258 1.3287 0.9177
0.9885 -21.3940 1.3281 0.9177
1.7521 -21.4014 1.3315 0.9175
-25.8929 -21.5260 1.3277 0.8739
-22.4258 -21.5116 1.2253 0.8830
-20.8806 -21.5044 1.1819 0.8869
-19.4413 -21.4995 1.1430 0.8904
-18.0907 -21.4931 1.1077 0.8936
-5.1769 -7.6801 0.3652 0.9636
-3.9991 -8.2567 0.3617 0.9639
-6.8503 -21.4603 0.8883 0.9138
-4.4018 -21.4456 0.8633 0.9161
-3.6129 -21.4428 0.8574 0.9166
-2.8332 -21.4360 0.8526 0.9171
-1.2954 -21.4287 0.8465 0.9177
2.5438 -21.6049 0.8578 0.9166
-25.8926 -21.5257 0.5688 0.8740
-24.0886 -21.5175 0.5456 0.8788
-20.8808 -21.5046 0.5063 0.8870
-18.0909 -21.4934 0.4746 0.8937
-5.3303 -7.3319 0.1531 0.9644
-5.1265 -7.6054 0.1549 0.9640
-4.8855 -7.8344 0.1560 0.9637
-4.2736 -8.0789 0.1544 0.9641
-3.9606 -8.1771 0.1535 0.9643
-3.6509 -8.2746 0.1528 0.9645
-7.7007 -21.4617 0.3852 0.9128
-6.8500 -21.4593 0.3805 0.9138
-6.0170 -21.4509 0.3763 0.9147
-4.4017 -21.4452 0.3698 0.9161
-3.6129 -21.4424 0.3673 0.9167
-0.5328 -21.4251 0.3620 0.9178
0.9884 -21.3926 0.3617 0.9179
1.7520 -21.4005 0.3627 0.9177
3.4435 -22.3723 0.3824 0.9134
-24.0886 -21.5175 -0.1818 0.8788
-20.8810 -21.5048 -0.1688 0.8870
-19.4417 -21.4999 -0.1632 0.8905
-16.8190 -21.4868 -0.1536 0.8966
-4.2326 -8.0014 -0.0510 0.9644
-3.9228 -8.0992 -0.0507 0.9646
-9.4722 -21.4681 -0.1321 0.9104
-6.8497 -21.4583 -0.1268 0.9138
-6.0168 -21.4505 -0.1254 0.9147
-4.4016 -21.4447 -0.1233 0.9162
-1.2954 -21.4287 -0.1209 0.9177
0.2283 -21.4241 -0.1206 0.9179
0.9884 -21.3919 -0.1206 0.9179
1.7520 -21.4001 -0.1209 0.9177
3.4441 -22.3763 -0.1275 0.9134
-25.8919 -21.5251 -0.9481 0.8739
-22.4258 -21.5117 -0.8750 0.8831
-20.8812 -21.5050 -0.8440 0.8870
-18.0913 -21.4939 -0.7911 0.8937
-16.8191 -21.4871 -0.7683 0.8966
-15.6166 -21.4806 -0.7478 0.8992
-4.3645 -7.5862 -0.2464 0.9656
-4.5542 -8.6094 -0.2742 0.9618
-3.8857 -8.0226 -0.2510 0.9650
-8.5727 -21.4622 -0.6508 0.9117
-7.7000 -21.4597 -0.6420 0.9128
-6.8494 -21.4572 -0.6342 0.9138
-6.0167 -21.4500 -0.6273 0.9147
-2.0615 -21.4324 -0.6063 0.9174
0.2283 -21.4236 -0.6033 0.9178
0.9884 -21.3912 -0.6030 0.9179
3.4447 -22.3803 -0.6376 0.9134
-24.0887 -21.5175 -1.6380 0.8787
-22.4259 -21.5117 -1.5760 0.8830
-20.8814 -21.5052 -1.5202 0.8869
-18.0915 -21.4941 -1.4248 0.8936
-15.6167 -21.4809 -1.3469 0.8991
-14.4804 -21.4822 -1.3138 0.9014
-13.3936 -21.4780 -1.2837 0.9036
-11.3583 -21.4720 -1.2319 0.9073
-9.4710 -21.4653 -1.1899 0.9103
-8.5723 -21.4612 -1.1720 0.9116
-6.8490 -21.4562 -1.1422 0.9137
-2.8332 -21.4360 -1.0966 0.9170
-2.0615 -21.4324 -1.0919 0.9174
-1.2954 -21.4288 -1.0887 0.9176
0.9883 -21.3906 -1.0860 0.9178
1.7519 -21.3992 -1.0889 0.9176
2.5440 -21.6067 -1.1033 0.9166
3.4453 -22.3843 -1.1486 0.9133
-22.6367 -20.2206 -2.2255 0.8854
-21.9566 -21.0616 -2.2308 0.8851
-20.8816 -21.5054 -2.1979 0.8867
-18.0917 -21.4944 -2.0600 0.8934
-15.6169 -21.4811 -1.9473 0.8990
-13.3931 -21.4771 -1.8559 0.9035
-4.5521 -7.9122 -0.6693 0.9641
-10.3976 -21.4672 -1.7489 0.9088
-7.6992 -21.4577 -1.6715 0.9126
-6.8487 -21.4552 -1.6513 0.9136
-6.0165 -21.4492 -1.6334 0.9145
-5.2018 -21.4463 -1.6181 0.9153
-4.4013 -21.4435 -1.6051 0.9159
-3.6126 -21.4407 -1.5942 0.9165
-0.5328 -21.4252 -1.5714 0.9176
1.7519 -21.3988 -1.5743 0.9175
6.5894 -34.5919 -2.5820 0.8683
9.0827 -34.2442 -2.5977 0.8675
10.3236 -34.0012 -2.6054 0.8672
-19.1880 -15.9520 -2.3956 0.9046
-16.2208 -19.2716 -2.4183 0.9037
-14.3634 -19.7570 -2.3451 0.9065
-13.3292 -19.7744 -2.2895 0.9086
-12.6226 -20.2415 -2.2902 0.9086
-4.5467 -7.9028 -0.8753 0.9640
-11.2037 -21.1799 -2.3003 0.9082
-10.3969 -21.4657 -2.2898 0.9086
-9.4697 -21.4625 -2.2522 0.9100
-6.8484 -21.4542 -2.1621 0.9135
-6.0163 -21.4487 -2.1387 0.9144
-3.6125 -21.4403 -2.0874 0.9163
-2.0615 -21.4324 -2.0671 0.9171
-0.5328 -21.4252 -2.0576 0.9175
0.9883 -21.3892 -2.0557 0.9176
1.7519 -21.3984 -2.0612 0.9173
3.4465 -22.3923 -2.1751 0.9130
5.5750 -24.4991 -2.4122 0.9040
6.8749 -25.9199 -2.5745 0.8978
7.8085 -25.7174 -2.5803 0.8976
8.7361 -25.4804 -2.5860 0.8974
-15.1865 -13.5656 -2.4189 0.9212
-14.2286 -14.6536 -2.4262 0.9210
-13.1948 -15.6765 -2.4340 0.9208
-12.6507 -16.1619 -2.4380 0.9207
-12.0894 -16.6290 -2.4421 0.9205
-11.5111 -17.0772 -2.4463 0.9204
-9.6813 -18.3021 -2.4595 0.9200
-7.0450 -19.6347 -2.4779 0.9194
-4.7848 -19.7275 -2.4113 0.9215
0.2129 -19.9735 -2.3727 0.9227
1.6362 -19.9852 -2.3819 0.9224
2.3506 -19.9635 -2.3878 0.9222
3.8850 -20.3946 -2.4662 0.9198
4.7738 -20.9781 -2.5556 0.9170
5.5258 -20.8336 -2.5603 0.9168
7.0156 -20.4623 -2.5695 0.9166
-13.1825 -10.9593 -2.4290 0.9331
-11.9875 -12.3456 -2.4382 0.9328
-11.5569 -12.7804 -2.4414 0.9328
-11.1110 -13.2007 -2.4448 0.9327
-10.1747 -13.9954 -2.4517 0.9325
-9.6854 -14.3686 -2.4552 0.9324
-4.5341 -7.8810 -1.2883 0.9639
-8.1389 -15.3862 -2.4663 0.9321
-7.5992 -15.6897 -2.4701 0.9320
-6.4869 -16.2404 -2.4779 0.9318
-4.7457 -16.9195 -2.4898 0.9315
-3.5446 -17.2698 -2.4980 0.9313
-2.9339 -17.4133 -2.5020 0.9311
-2.3176 -17.5352 -2.5062 0.9310
-0.4418 -17.7694 -2.5185 0.9307
0.1897 -17.8029 -2.5226 0.9306
0.8231 -17.8138 -2.5267 0.9305
1.4574 -17.8020 -2.5308 0.9304
3.3583 -17.6299 -2.5429 0.9301
4.6153 -17.4007 -2.5507 0.9299
5.8562 -17.0805 -2.5584 0.9296
-11.0531 -9.8734 -2.4416 0.9417
-10.7072 -10.2708 -2.4442 0.9416
-9.9738 -11.0297 -2.4498 0.9415
-8.7759 -12.0713 -2.4586 0.9413
-8.3522 -12.3908 -2.4617 0.9412
-4.5279 -7.8701 -1.4958 0.9639
-7.0143 -13.2601 -2.4713 0.9410
-6.0717 -13.7612 -2.4779 0.9408
-5.5869 -13.9872 -2.4812 0.9408
-5.0937 -14.1962 -2.4847 0.9407
-4.5927 -14.3880 -2.4881 0.9406
-4.0846 -14.5622 -2.4916 0.9405
-1.9929 -15.0784 -2.5056 0.9402
-1.4582 -15.1611 -2.5092 0.9401
-0.9203 -15.2247 -2.5127 0.9400
0.1630 -15.2946 -2.5198 0.9399
1.2516 -15.2869 -2.5268 0.9397
3.4218 -15.0370 -2.5405 0.9394
3.9588 -14.9256 -2.5438 0.9393
4.4921 -14.7948 -2.5471 0.9392
-9.3998 -7.8145 -2.2976 0.9515
-8.8381 -8.4779 -2.3019 0.9514
-8.5399 -8.7950 -2.3042 0.9513
-8.2305 -9.1019 -2.3065 0.9513
-8.0712 -10.3113 -2.4613 0.9481
-7.7083 -10.6028 -2.4639 0.9480
-7.3350 -10.8818 -2.4666 0.9480
-5.7466 -11.8648 -2.4779 0.9478
-4.9017 -12.2719 -2.4838 0.9476
-4.4683 -12.4531 -2.4868 0.9476
-4.0281 -12.6193 -2.4898 0.9475
-3.5818 -12.7699 -2.4929 0.9475
-2.6731 -13.0239 -2.4990 0.9473
-2.2117 -13.1268 -2.5021 0.9473
-0.3325 -13.3736 -2.5145 0.9470
1.5720 -13.3508 -2.5268 0.9468
2.5215 -13.2369 -2.5328 0.9466
3.4626 -13.0548 -2.5386 0.9465
3.9284 -12.9383 -2.5415 0.9465
4.3902 -12.8049 -2.5444 0.9464
-8.3790 -6.9659 -2.3033 0.9564
-7.8767 -7.5557 -2.3072 0.9564
-7.6101 -7.8375 -2.3092 0.9563
-7.3336 -8.1100 -2.3113 0.9563
-7.0475 -8.3730 -2.3134 0.9562
-6.4477 -8.8689 -2.3178 0.9562
-6.1347 -9.1012 -2.3201 0.9561
-4.5149 -7.8475 -1.9137 0.9637
-5.4815 -10.3626 -2.4780 0.9532
-4.3622 -10.9211 -2.4859 0.9531
-3.9759 -11.0810 -2.4885 0.9530
-3.5838 -11.2273 -2.4912 0.9530
-2.7840 -11.4783 -2.4966 0.9529
-2.3773 -11.5826 -2.4994 0.9528
-1.9667 -11.6725 -2.5021 0.9528
-1.5526 -11.7479 -2.5049 0.9527
-1.1357 -11.8086 -2.5076 0.9527
-0.7165 -11.8545 -2.5104 0.9526
0.5500 -11.9024 -2.5186 0.9525
1.8185 -11.8142 -2.5267 0.9523
3.8966 -11.3651 -2.5396 0.9521
-7.0973 -6.8080 -2.3114 0.9604
-6.6068 -7.3063 -2.3151 0.9603
-4.7897 -7.6807 -2.1274 0.9635
-4.5081 -7.8358 -2.1246 0.9635
-4.3244 -8.9284 -2.3316 0.9601
-3.6868 -9.2303 -2.3360 0.9600
-3.5779 -9.9718 -2.4899 0.9574
-3.2247 -10.1024 -2.4923 0.9574
-2.5045 -10.3259 -2.4972 0.9573
-2.1384 -10.4186 -2.4997 0.9572
-1.7688 -10.4983 -2.5021 0.9572
-1.3963 -10.5650 -2.5046 0.9572
-0.6442 -10.6585 -2.5096 0.9571
-0.2656 -10.6852 -2.5120 0.9570
0.1141 -10.6983 -2.5145 0.9570
0.8747 -10.6840 -2.5194 0.9569
2.7612 -10.4103 -2.5313 0.9567
3.1320 -10.3151 -2.5336 0.9567
-6.6631 -5.9519 -2.3133 0.9638
-5.7700 -6.8553 -2.3200 0.9637
-5.5272 -7.0613 -2.3218 0.9636
-5.2771 -7.2588 -2.3236 0.9636
-4.7563 -7.6273 -2.3274 0.9635
-3.9281 -8.1103 -2.3332 0.9635
-3.6408 -8.2517 -2.3352 0.9634
-3.3484 -8.3831 -2.3373 0.9634
-3.0513 -8.5041 -2.3393 0.9634
-2.7498 -8.6147 -2.3414 0.9633
-2.4444 -8.7146 -2.3435 0.9633
-1.8229 -8.8820 -2.3476 0.9632
-0.9269 -9.6367 -2.5066 0.9608
-0.2411 -9.6956 -2.5111 0.9607
0.1035 -9.7066 -2.5134 0.9607
0.7935 -9.6919 -2.5178 0.9606
1.1381 -9.6660 -2.5200 0.9606
2.1651 -9.5145 -2.5265 0.9605
2.5037 -9.4395 -2.5286 0.9605
2.8396 -9.3523 -2.5306 0.9604
3.1725 -9.2530 -2.5327 0.9604
-6.4675 -5.7773 -2.4551 0.9646
-5.0604 -6.4648 -2.3242 0.9664
-4.8311 -6.6452 -2.3258 0.9664
-4.3537 -6.9817 -2.3293 0.9664
-3.5948 -7.4221 -2.3346 0.9663
-2.7918 -7.7809 -2.3402 0.9662
-2.5158 -7.8814 -2.3421 0.9662
-1.9533 -8.0532 -2.3459 0.9661
-1.6674 -8.1241 -2.3478 0.9661
-1.0884 -8.2355 -2.3517 0.9661
-0.5346 -8.8443 -2.5083 0.9638
-0.2204 -8.8649 -2.5104 0.9638
0.4100 -8.8726 -2.5144 0.9637
1.0403 -8.8352 -2.5185 0.9637
1.3545 -8.7997 -2.5205 0.9637
1.9787 -8.6948 -2.5244 0.9636
2.2879 -8.6257 -2.5263 0.9636
2.5946 -8.5454 -2.5282 0.9636
-5.9874 -5.3484 -2.4694 0.9670
-5.7972 -5.5609 -2.4708 0.9669
-5.5994 -5.7668 -2.4723 0.9669
-4.4501 -6.1212 -2.3277 0.9688
-4.2328 -6.2796 -2.3293 0.9688
-4.0099 -6.4304 -2.3309 0.9688
-3.5484 -6.7082 -2.3342 0.9687
-3.3104 -6.8348 -2.3358 0.9687
-3.0678 -6.9531 -2.3375 0.9687
-2.8210 -7.0628 -2.3392 0.9687
-2.3161 -7.2559 -2.3427 0.9686
-2.0585 -7.3391 -2.3445 0.9686
-1.2692 -7.5334 -2.3498 0.9685
-0.4919 -8.1386 -2.5078 0.9665
1.2459 -8.0945 -2.5190 0.9663
1.5337 -8.0509 -2.5208 0.9663
1.8199 -7.9970 -2.5226 0.9663
2.6655 -7.7742 -2.5278 0.9662
-5.5457 -4.9538 -2.4718 0.9691
-5.3692 -5.1504 -2.4732 0.9691
-4.7994 -5.7020 -2.4774 0.9691
-4.2064 -5.7860 -2.3778 0.9703
-3.9192 -5.8144 -2.3308 0.9709
-3.7127 -5.9537 -2.3323 0.9709
-3.5012 -6.0857 -2.3338 0.9708
-2.6112 -6.5375 -2.3400 0.9708
-1.1745 -6.9707 -2.3498 0.9706
-0.7217 -7.5034 -2.5057 0.9687
-0.1876 -7.5462 -2.5092 0.9687
0.8852 -7.5173 -2.5161 0.9686
1.1523 -7.4862 -2.5177 0.9686
1.4183 -7.4455 -2.5194 0.9686
1.6829 -7.3953 -2.5211 0.9685
1.9457 -7.3356 -2.5227 0.9685
2.2063 -7.2665 -2.5243 0.9685
2.4645 -7.1881 -2.5259 0.9685
-5.3171 -4.4204 -2.4727 0.9711
-5.1593 -4.6087 -2.4739 0.9710
-4.8242 -4.9683 -2.4765 0.9710
-4.4643 -5.3039 -2.4792 0.9710
-4.0811 -5.6137 -2.4820 0.9709
-3.8815 -5.7584 -2.4834 0.9709
-3.6013 -5.7754 -2.4340 0.9715
-3.3270 -5.7829 -2.3859 0.9721
-3.0627 -5.7897 -2.3423 0.9726
-2.8497 -5.8835 -2.3378 0.9726
-0.6707 -6.9739 -2.5054 0.9707
-0.4230 -6.9979 -2.5071 0.9707
-0.1744 -7.0130 -2.5087 0.9706
0.0748 -7.0193 -2.5103 0.9706
0.8225 -6.9848 -2.5151 0.9706
1.3177 -6.9174 -2.5182 0.9705
1.5635 -6.8705 -2.5197 0.9705
1.8075 -6.8147 -2.5213 0.9705
-4.6645 -4.4744 -2.4770 0.9727
-4.3395 -4.7989 -2.4794 0.9727
-4.1685 -4.9525 -2.4807 0.9727
-3.9921 -5.1001 -2.4820 0.9726
-3.0368 -5.7409 -2.4888 0.9726
-2.5534 -5.7872 -2.4240 0.9733
-2.3288 -5.8305 -2.4060 0.9735
-2.1151 -5.8949 -2.4000 0.9735
-1.9085 -5.9791 -2.4052 0.9735
-1.7064 -6.0838 -2.4214 0.9733
-1.0848 -6.4386 -2.5022 0.9724
-0.3946 -6.5294 -2.5067 0.9724
0.0698 -6.5488 -2.5098 0.9723
0.3025 -6.5461 -2.5113 0.9723
0.5351 -6.5351 -2.5127 0.9723
0.7672 -6.5158 -2.5142 0.9723
1.2291 -6.4524 -2.5171 0.9723
1.9116 -6.2956 -2.5214 0.9722
-4.6528 -3.8681 -2.4764 0.9742
-4.5144 -4.0326 -2.4775 0.9742
-4.3703 -4.1922 -2.4786 0.9742
-4.0655 -4.4960 -2.4809 0.9741
-3.9052 -4.6397 -2.4821 0.9741
-3.3947 -5.0363 -2.4858 0.9741
-2.8444 -5.3772 -2.4897 0.9741
-2.2601 -5.6584 -2.4938 0.9740
-1.4394 -5.9347 -2.4994 0.9740
-1.2285 -5.9855 -2.5008 0.9739
-1.0158 -6.0287 -2.5022 0.9739
-0.3695 -6.1130 -2.5064 0.9739
1.1504 -6.0393 -2.5162 0.9738
1.3649 -5.9978 -2.5175 0.9738
1.7890 -5.8920 -2.5201 0.9737
-4.1065 -3.9392 -2.4800 0.9755
-3.5137 -4.4889 -2.4844 0.9754
-2.8482 -4.9507 -2.4892 0.9754
-2.6720 -5.0513 -2.4905 0.9754
-2.4922 -5.1456 -2.4917 0.9754
-1.3519 -5.5737 -2.4995 0.9753
-0.7527 -5.6949 -2.5035 0.9752
-0.5503 -5.7211 -2.5049 0.9752
0.0614 -5.7563 -2.5088 0.9752
0.2659 -5.7535 -2.5102 0.9752
0.6742 -5.7261 -2.5128 0.9752
0.8776 -5.7015 -2.5141 0.9751
1.6793 -5.5307 -2.5190 0.9751
1.8755 -5.4702 -2.5202 0.9751
-3.9962 -3.5697 -2.4803 0.9767
-3.8684 -3.7108 -2.4813 0.9766
-3.7357 -3.8474 -2.4823 0.9766
-3.4562 -4.1062 -2.4844 0.9766
-3.3096 -4.2282 -2.4855 0.9766
-3.1588 -4.3450 -2.4866 0.9766
-3.0039 -4.4564 -2.4877 0.9766
-2.8450 -4.5623 -2.4888 0.9766
-2.6825 -4.6626 -2.4900 0.9766
-2.1745 -4.9285 -2.4935 0.9765
-1.6405 -5.1394 -2.4972 0.9765
-1.2729 -5.2481 -2.4997 0.9765
-1.0863 -5.2926 -2.5009 0.9765
-0.8981 -5.3305 -2.5022 0.9765
-0.5180 -5.3862 -2.5047 0.9764
-0.3266 -5.4039 -2.5060 0.9764
0.0578 -5.4189 -2.5085 0.9764
0.4427 -5.4064 -2.5109 0.9764
0.6347 -5.3899 -2.5122 0.9764
0.8261 -5.3666 -2.5134 0.9764
1.2060 -5.2994 -2.5157 0.9763
1.3940 -5.2557 -2.5169 0.9763
1.5805 -5.2053 -2.5181 0.9763
1.7651 -5.1482 -2.5192 0.9763
-3.8887 -3.2329 -2.4806 0.9777
-3.5268 -3.6322 -2.4834 0.9777
-3.2627 -3.8764 -2.4854 0.9777
-2.0524 -4.6517 -2.4940 0.9776
-1.8868 -4.7238 -2.4952 0.9776
-1.0251 -4.9946 -2.5010 0.9775
-0.6687 -5.0595 -2.5034 0.9775
-0.4888 -5.0825 -2.5046 0.9775
-0.3082 -5.0990 -2.5058 0.9775
0.0545 -5.1128 -2.5081 0.9775
0.4176 -5.1008 -2.5104 0.9775
0.7793 -5.0629 -2.5127 0.9774
0.9590 -5.0343 -2.5139 0.9774
1.1377 -4.9993 -2.5150 0.9774
1.3150 -4.9579 -2.5161 0.9774
1.6650 -4.8563 -2.5182 0.9774
-3.6787 -3.0583 -2.4818 0.9787
-3.4547 -3.3140 -2.4835 0.9787
-3.2132 -3.5534 -2.4853 0.9786
-2.9552 -3.7754 -2.4873 0.9786
-2.8204 -3.8794 -2.4882 0.9786
-2.5400 -4.0731 -2.4903 0.9786
-2.3948 -4.1625 -2.4913 0.9786
-1.6253 -4.5298 -2.4966 0.9785
-1.4640 -4.5866 -2.4977 0.9785
-1.3008 -4.6378 -2.4989 0.9785
-0.9693 -4.7226 -2.5011 0.9785
-0.6322 -4.7838 -2.5033 0.9785
-0.2914 -4.8209 -2.5056 0.9785
-0.1201 -4.8304 -2.5067 0.9785
0.0515 -4.8337 -2.5078 0.9785
0.7367 -4.7861 -2.5122 0.9784
0.9066 -4.7589 -2.5132 0.9784
1.0754 -4.7257 -2.5143 0.9784
1.2431 -4.6865 -2.5153 0.9784
-3.2736 -3.1402 -2.4845 0.9795
-2.8000 -3.5771 -2.4880 0.9795
-2.5410 -3.7697 -2.4899 0.9795
-2.4064 -3.8590 -2.4909 0.9795
-2.1282 -4.0233 -2.4929 0.9795
-1.9848 -4.0979 -2.4939 0.9794
-1.6903 -4.2319 -2.4959 0.9794
-1.5396 -4.2911 -2.4969 0.9794
-1.3868 -4.3448 -2.4980 0.9794
-0.9181 -4.4734 -2.5011 0.9794
-0.7590 -4.5050 -2.5022 0.9794
-0.5988 -4.5311 -2.5033 0.9794
-0.1137 -4.5749 -2.5064 0.9793
0.0488 -4.5779 -2.5075 0.9793
0.2114 -4.5752 -2.5085 0.9793
0.8585 -4.5066 -2.5126 0.9793
1.0183 -4.4750 -2.5136 0.9793
1.1771 -4.4378 -2.5146 0.9793
-3.2094 -2.8669 -2.4846 0.9803
-3.1066 -2.9800 -2.4854 0.9803
-2.9998 -3.0895 -2.4862 0.9803
-2.8892 -3.1951 -2.4871 0.9803
-2.7749 -3.2968 -2.4879 0.9803
-2.5357 -3.4879 -2.4897 0.9803
-2.4111 -3.5770 -2.4905 0.9803
-2.0193 -3.8174 -2.4933 0.9803
-1.7446 -3.9541 -2.4953 0.9802
-1.6037 -4.0151 -2.4962 0.9802
-1.4607 -4.0712 -2.4972 0.9802
-0.4153 -4.3175 -2.5042 0.9802
-0.1079 -4.3396 -2.5062 0.9801
0.0463 -4.3424 -2.5072 0.9801
0.3547 -4.3316 -2.5092 0.9801
0.5085 -4.3179 -2.5102 0.9801
0.6617 -4.2988 -2.5112 0.9801
0.8142 -4.2742 -2.5121 0.9801
1.1164 -4.2088 -2.5140 0.9801
1.2656 -4.1681 -2.5149 0.9801
