ply
format ascii 1.0
element vertex 539
property float32 x
property float32 y
property float32 z
property float32 I
end_header
44.5279 -20.3615 8.6334 0.8197
44.2965 -18.3852 8.4567 0.8230
45.6487 -15.2522 8.4865 0.8224
45.9654 -13.5658 8.4506 0.8231
44.0516 -11.3190 8.0198 0.8313
46.9928 -10.3128 8.4833 0.8225
47.9859 -3.5635 8.4845 0.8225
45.4584 -1.7578 8.0215 0.8313
45.4888 1.4699 8.0251 0.8312
47.0162 8.2744 8.4176 0.8237
44.2583 11.0731 8.0445 0.8309
44.1265 17.9871 8.4023 0.8240
31.3835 -27.1226 6.3544 0.8455
44.8410 -20.5047 7.5535 0.8191
46.4433 -15.5177 7.5015 0.8202
46.4632 -13.7127 7.4214 0.8220
46.4830 -11.9437 7.3523 0.8235
46.5220 -8.4923 7.2447 0.8258
46.5414 -6.7999 7.2056 0.8267
46.5801 -3.4591 7.1555 0.8278
46.6190 -0.1480 7.1418 0.8281
46.6387 1.5071 7.1485 0.8279
46.6587 3.1673 7.1643 0.8276
46.6789 4.8370 7.1892 0.8270
46.7635 11.6999 7.3847 0.8228
46.8091 15.3103 7.5447 0.8193
31.3771 -27.1170 5.4004 0.8460
31.3586 -25.2147 5.2399 0.8502
32.8950 -24.5811 5.3475 0.8473
39.3822 -25.2869 6.0945 0.8280
44.8335 -20.5013 6.4197 0.8197
46.3290 -13.6731 6.2903 0.8230
46.3495 -11.9094 6.2317 0.8245
46.3697 -10.1761 6.1820 0.8257
46.6951 -8.5236 6.1812 0.8257
48.5960 -7.1001 6.3954 0.8203
48.6166 -5.3499 6.3691 0.8210
48.6780 -0.1545 6.3389 0.8217
48.6985 1.5736 6.3449 0.8216
48.7400 5.0505 6.3809 0.8206
48.7610 6.8084 6.4113 0.8199
46.8862 8.2512 6.1994 0.8253
46.6080 9.9187 6.2053 0.8251
46.6291 11.6662 6.2592 0.8237
46.6506 13.4467 6.3222 0.8221
46.3679 15.1659 6.3528 0.8214
31.4338 -33.6290 4.9430 0.8309
31.3903 -29.1362 4.5990 0.8417
31.3707 -27.1115 4.4523 0.8464
31.3524 -25.2097 4.3200 0.8506
32.8944 -24.5806 4.4095 0.8477
44.7406 -20.4588 5.2828 0.8204
46.2544 15.1288 5.2258 0.8222
31.4044 -31.2948 3.7531 0.8370
31.3463 -25.2048 3.4050 0.8509
39.3804 -25.2857 3.9617 0.8287
44.8185 -20.4944 4.1719 0.8205
31.3581 -27.1006 2.5701 0.8470
32.8931 -24.5797 2.5463 0.8483
39.3796 -25.2852 2.9020 0.8290
44.8111 -20.4910 3.0555 0.8208
31.4127 -33.6065 1.8139 0.8318
32.8924 -24.5792 1.6191 0.8484
44.8037 -20.4877 1.9426 0.8210
31.3842 -31.2746 0.7484 0.8376
31.3642 -29.1120 0.7229 0.8427
31.3280 -25.1901 0.6790 0.8514
32.8918 -24.5787 0.6936 0.8485
35.9231 -24.9084 0.7384 0.8396
39.3778 -25.2841 0.7905 0.8293
31.3987 -33.5916 -0.2589 0.8320
31.3775 -31.2680 -0.2494 0.8376
31.3393 -27.0844 -0.2332 0.8473
31.3219 -25.1852 -0.2263 0.8515
32.8912 -24.5783 -0.2312 0.8485
39.3770 -25.2835 -0.2635 0.8293
44.5289 -3.3069 -0.2514 0.8364
44.7415 14.6340 -0.2650 0.8284
31.3918 -33.5841 -1.2944 0.8320
31.3708 -31.2613 -1.2471 0.8376
31.3330 -27.0789 -1.1661 0.8473
37.6934 -17.2363 -1.1671 0.8472
37.7022 -15.6483 -1.1494 0.8493
37.7354 -9.6961 -1.0971 0.8556
37.7661 -4.1559 -1.0698 0.8590
37.7958 1.2213 -1.0648 0.8596
37.8031 2.5662 -1.0669 0.8593
37.8410 9.4675 -1.0984 0.8555
37.8488 10.9096 -1.1091 0.8542
37.8302 12.3735 -1.1208 0.8528
37.8822 17.0326 -1.1695 0.8469
37.8911 18.6795 -1.1895 0.8445
37.9004 20.3859 -1.2118 0.8418
31.3268 -27.0735 -2.0998 0.8472
37.6961 -15.6457 -2.0699 0.8492
37.7048 -14.1034 -2.0416 0.8511
37.7132 -12.6008 -2.0165 0.8528
37.7215 -11.1328 -1.9946 0.8543
37.7295 -9.6946 -1.9756 0.8555
37.7108 -8.2759 -1.9580 0.8567
37.7451 -6.8901 -1.9459 0.8576
37.7528 -5.5159 -1.9349 0.8583
37.7827 -0.1199 -1.9161 0.8596
37.7901 1.2211 -1.9175 0.8595
37.7974 2.5658 -1.9213 0.8592
37.8429 10.9079 -1.9973 0.8541
37.8590 13.8877 -2.0451 0.8509
37.8673 15.4357 -2.0738 0.8489
37.8847 18.6764 -2.1421 0.8444
37.8939 20.3824 -2.1821 0.8417
37.9033 22.1557 -2.2265 0.8388
26.1543 -26.0629 -2.7073 0.8624
28.0444 -24.2368 -2.7178 0.8619
29.4847 -22.0327 -2.6988 0.8628
30.1733 -17.8952 -2.5722 0.8687
31.4385 -15.7474 -2.5781 0.8685
32.0085 -14.6367 -2.5807 0.8683
32.2754 -13.3959 -2.5622 0.8692
33.0176 -12.3501 -2.5847 0.8682
33.8464 -9.9891 -2.5875 0.8680
34.1913 -8.7854 -2.5884 0.8680
34.4890 -7.5688 -2.5890 0.8680
35.0942 -3.8619 -2.5887 0.8680
34.9904 3.6258 -2.5793 0.8684
34.8036 4.8595 -2.5766 0.8685
34.2877 7.2968 -2.5703 0.8688
33.9599 8.4965 -2.5668 0.8690
33.5864 9.6810 -2.5629 0.8692
32.7058 11.9974 -2.5543 0.8696
32.2006 13.1258 -2.5496 0.8698
31.6533 14.2320 -2.5447 0.8701
29.7710 17.4021 -2.5284 0.8708
20.3063 -18.8481 -2.6599 0.8946
20.9916 -18.1415 -2.6636 0.8945
22.8855 -15.8683 -2.6736 0.8941
24.9945 -12.5196 -2.6838 0.8937
25.8543 -10.7308 -2.6874 0.8936
26.2329 -9.8124 -2.6889 0.8936
26.5764 -8.8797 -2.6901 0.8935
27.1557 -6.9776 -2.6918 0.8934
27.3906 -6.0110 -2.6922 0.8934
27.5884 -5.0361 -2.6924 0.8934
27.9571 -2.0762 -2.6914 0.8935
28.0044 -1.0829 -2.6906 0.8935
27.9853 0.9043 -2.6881 0.8936
27.2806 5.8056 -2.6777 0.8940
27.0293 6.7625 -2.6749 0.8941
26.4200 8.6414 -2.6687 0.8943
26.0631 9.5607 -2.6652 0.8944
24.3037 13.0725 -2.6494 0.8950
15.6536 -15.5989 -2.6250 0.9148
16.2162 -15.0517 -2.6281 0.9147
17.2803 -13.8946 -2.6339 0.9146
18.2560 -12.6595 -2.6390 0.9144
19.1401 -11.3516 -2.6434 0.9143
20.2772 -9.2723 -2.6485 0.9141
21.1748 -7.0750 -2.6520 0.9140
21.8201 -4.7886 -2.6536 0.9139
21.9775 -4.0118 -2.6537 0.9139
22.1055 -3.2297 -2.6537 0.9139
22.3212 -0.0709 -2.6515 0.9140
22.3008 0.7206 -2.6504 0.9140
21.5605 5.3942 -2.6400 0.9144
21.0844 6.8962 -2.6351 0.9145
20.8051 7.6319 -2.6324 0.9146
19.4239 10.4478 -2.6199 0.9150
13.0201 -12.9746 -2.6044 0.9284
13.9339 -12.0421 -2.6094 0.9283
14.3650 -11.5505 -2.6117 0.9282
15.9014 -9.4308 -2.6195 0.9280
16.5489 -8.2892 -2.6225 0.9280
16.8406 -7.7008 -2.6238 0.9279
17.1103 -7.1016 -2.6249 0.9279
17.5822 -5.8746 -2.6266 0.9278
17.7837 -5.2485 -2.6272 0.9278
18.3529 -2.6815 -2.6280 0.9278
18.4350 -2.0287 -2.6278 0.9278
18.4927 -1.3733 -2.6274 0.9278
18.4788 1.2544 -2.6243 0.9279
18.3256 2.5588 -2.6217 0.9280
17.9161 4.4825 -2.6168 0.9281
17.5260 5.7324 -2.6127 0.9282
17.2968 6.3449 -2.6105 0.9283
17.0453 6.9481 -2.6081 0.9283
16.4772 8.1229 -2.6029 0.9285
16.1616 8.6930 -2.6001 0.9285
15.8254 9.2504 -2.5973 0.9286
10.7248 -11.4737 -2.5873 0.9383
11.5312 -10.7031 -2.5918 0.9382
12.9668 -8.9909 -2.5994 0.9380
14.1385 -7.0819 -2.6050 0.9379
14.8267 -5.5459 -2.6078 0.9378
15.3411 -3.9419 -2.6094 0.9378
15.7452 -1.7327 -2.6095 0.9378
15.8237 -0.6119 -2.6087 0.9378
15.8191 0.5112 -2.6074 0.9379
15.7317 1.6302 -2.6055 0.9379
15.6571 2.1862 -2.6044 0.9379
14.9814 4.9001 -2.5967 0.9381
14.7874 5.4244 -2.5948 0.9381
14.0926 6.9473 -2.5884 0.9383
13.8247 7.4360 -2.5860 0.9383
9.3605 -10.0142 -2.5765 0.9457
10.0621 -9.3395 -2.5804 0.9457
11.5879 -7.4404 -2.5884 0.9455
12.0976 -6.6064 -2.5908 0.9454
12.3293 -6.1757 -2.5919 0.9454
12.5450 -5.7365 -2.5928 0.9454
12.7446 -5.2896 -2.5936 0.9454
12.9277 -4.8356 -2.5943 0.9454
13.0939 -4.3750 -2.5949 0.9454
13.3752 -3.4367 -2.5957 0.9453
13.4897 -2.9604 -2.5959 0.9453
13.7709 -1.0227 -2.5955 0.9453
13.7963 -0.5335 -2.5951 0.9454
13.7933 0.4457 -2.5939 0.9454
13.7647 0.9344 -2.5932 0.9454
13.7183 1.4215 -2.5923 0.9454
13.6540 1.9065 -2.5913 0.9454
13.4724 2.8671 -2.5890 0.9455
13.3553 3.3414 -2.5876 0.9455
13.2211 3.8109 -2.5862 0.9455
12.7170 5.1838 -2.5812 0.9456
12.5161 5.6275 -2.5794 0.9457
12.0669 6.4906 -2.5754 0.9458
11.8193 6.9087 -2.5732 0.9458
8.6118 -8.5816 -2.5699 0.9515
10.2650 -6.5910 -2.5786 0.9513
10.4969 -6.2255 -2.5797 0.9513
10.9201 -5.4698 -2.5817 0.9513
11.4488 -4.2824 -2.5838 0.9513
11.5957 -3.8744 -2.5843 0.9512
11.7277 -3.4612 -2.5847 0.9512
12.1018 -1.7681 -2.5852 0.9512
12.1562 -1.3377 -2.5851 0.9512
12.1949 -0.9056 -2.5848 0.9512
12.2177 -0.4725 -2.5845 0.9512
12.1908 0.8275 -2.5828 0.9513
11.9340 2.5397 -2.5791 0.9513
11.8310 2.9600 -2.5779 0.9514
11.7128 3.3761 -2.5766 0.9514
11.0916 4.9870 -2.5706 0.9515
10.9005 5.3737 -2.5689 0.9515
10.6955 5.7529 -2.5671 0.9516
7.7245 -7.6975 -2.5629 0.9562
7.9973 -7.4230 -2.5644 0.9562
8.2602 -7.1386 -2.5658 0.9561
8.5126 -6.8447 -2.5672 0.9561
9.4116 -5.5819 -2.5717 0.9560
9.6072 -5.2464 -2.5726 0.9560
9.7903 -4.9039 -2.5735 0.9560
10.2635 -3.8390 -2.5754 0.9560
10.3950 -3.4732 -2.5758 0.9560
10.5131 -3.1027 -2.5762 0.9560
10.8971 -1.1992 -2.5765 0.9560
10.9588 -0.0348 -2.5756 0.9560
10.8929 1.1287 -2.5738 0.9560
10.8427 1.5139 -2.5730 0.9560
10.7005 2.2772 -2.5712 0.9560
10.2520 3.7607 -2.5664 0.9561
10.1067 4.1197 -2.5651 0.9561
9.9485 4.4731 -2.5636 0.9562
9.5945 5.1607 -2.5604 0.9562
9.3993 5.4941 -2.5587 0.9563
6.9960 -6.9715 -2.5572 0.9600
7.7086 -6.1983 -2.5611 0.9600
8.3337 -5.3510 -2.5643 0.9599
8.6980 -4.7499 -2.5660 0.9599
8.8636 -4.4397 -2.5667 0.9599
9.0178 -4.1236 -2.5674 0.9599
9.2913 -3.4754 -2.5685 0.9598
9.6115 -2.4697 -2.5694 0.9598
3.9761 -0.5809 -1.0404 0.9835
3.8437 -0.2854 -0.9980 0.9842
3.8456 -0.0122 -0.9957 0.9842
3.8451 0.1242 -0.9961 0.9842
3.9714 0.4115 -1.0338 0.9836
9.8165 1.3707 -2.5663 0.9599
9.5105 2.7413 -2.5627 0.9599
9.2840 3.4056 -2.5604 0.9600
9.1529 3.7309 -2.5591 0.9600
6.1537 -6.5835 -2.5511 0.9632
6.3866 -6.3643 -2.5524 0.9632
7.2354 -5.4067 -2.5570 0.9631
7.6060 -4.8837 -2.5589 0.9631
7.9380 -4.3349 -2.5604 0.9631
8.0889 -4.0517 -2.5611 0.9631
8.2294 -3.7631 -2.5617 0.9631
8.5871 -2.8691 -2.5631 0.9631
8.7707 -2.2536 -2.5636 0.9631
8.8456 -1.9412 -2.5637 0.9631
4.8208 -0.8800 -1.3873 0.9798
3.5624 -0.1378 -1.0092 0.9853
3.5633 -0.0113 -1.0087 0.9853
3.5635 0.1151 -1.0093 0.9853
3.5679 0.2422 -1.0124 0.9852
4.8139 0.6722 -1.3760 0.9800
8.8422 1.8817 -2.5592 0.9631
8.5829 2.8073 -2.5564 0.9632
8.3550 3.4057 -2.5542 0.9632
8.2251 3.6982 -2.5530 0.9632
7.9341 4.2676 -2.5504 0.9632
7.7735 4.5439 -2.5490 0.9633
5.6551 -6.0500 -2.5472 0.9659
5.8689 -5.8483 -2.5484 0.9659
6.4651 -5.1984 -2.5516 0.9659
6.8222 -4.7304 -2.5534 0.9659
7.1449 -4.2375 -2.5550 0.9658
7.2926 -3.9824 -2.5557 0.9658
7.4311 -3.7222 -2.5563 0.9658
7.5601 -3.4570 -2.5569 0.9658
7.6794 -3.1873 -2.5574 0.9658
7.8883 -2.6356 -2.5581 0.9658
7.9777 -2.3545 -2.5584 0.9658
8.1256 -1.7832 -2.5587 0.9658
8.1839 -1.4939 -2.5588 0.9658
3.3514 -0.2489 -1.0337 0.9860
3.3529 -0.1297 -1.0320 0.9861
3.4043 0.3528 -1.0527 0.9858
8.2303 1.1492 -2.5560 0.9658
8.1822 1.4400 -2.5553 0.9658
8.1237 1.7288 -2.5546 0.9658
7.9755 2.2989 -2.5530 0.9659
7.8861 2.5794 -2.5520 0.9659
7.5582 3.3983 -2.5489 0.9659
7.4295 3.6626 -2.5477 0.9659
7.2914 3.9219 -2.5465 0.9659
7.1441 4.1759 -2.5452 0.9660
5.6137 -5.2105 -2.5459 0.9682
6.3031 -4.3704 -2.5496 0.9682
6.4561 -4.1453 -2.5503 0.9682
6.6008 -3.9148 -2.5510 0.9682
7.2870 -2.4347 -2.5539 0.9681
7.3696 -2.1750 -2.5541 0.9681
7.4426 -1.9123 -2.5543 0.9681
7.5061 -1.6472 -2.5544 0.9681
3.1779 -0.2360 -1.0593 0.9867
3.1793 -0.1229 -1.0576 0.9867
3.2729 0.4570 -1.0985 0.9862
7.5591 1.3303 -2.5513 0.9682
7.5052 1.5972 -2.5506 0.9682
7.4417 1.8618 -2.5499 0.9682
7.3687 2.1240 -2.5491 0.9682
7.2863 2.3832 -2.5483 0.9682
6.9840 3.1401 -2.5454 0.9682
5.0349 -5.0173 -2.5418 0.9703
5.3819 -4.6512 -2.5437 0.9702
5.5454 -4.4589 -2.5446 0.9702
5.7019 -4.2607 -2.5454 0.9702
6.1273 -3.6340 -2.5475 0.9702
6.2538 -3.4151 -2.5481 0.9702
6.3723 -3.1918 -2.5486 0.9702
6.4827 -2.9644 -2.5491 0.9702
6.6786 -2.4981 -2.5499 0.9702
6.7637 -2.2599 -2.5502 0.9702
3.0912 -0.5643 -1.1237 0.9867
3.0437 -0.3349 -1.0950 0.9871
3.0504 -0.1180 -1.0916 0.9871
3.0635 0.3174 -1.1014 0.9870
7.0168 1.2349 -2.5478 0.9702
6.7641 2.2124 -2.5450 0.9702
6.6791 2.4501 -2.5441 0.9702
6.3740 3.1422 -2.5413 0.9703
6.2559 3.3649 -2.5402 0.9703
6.1300 3.5832 -2.5391 0.9703
4.5229 -4.8387 -2.5382 0.9720
4.6935 -4.6770 -2.5392 0.9720
4.8581 -4.5092 -2.5401 0.9720
5.1689 -4.1562 -2.5417 0.9720
5.3147 -3.9714 -2.5425 0.9720
5.4537 -3.7815 -2.5432 0.9720
5.5859 -3.5866 -2.5439 0.9720
5.7109 -3.3870 -2.5445 0.9720
5.9391 -2.9748 -2.5455 0.9719
6.0419 -2.7628 -2.5459 0.9719
6.1370 -2.5471 -2.5463 0.9719
6.3036 -2.1062 -2.5469 0.9719
2.9495 -0.5384 -1.1490 0.9872
2.9154 -0.4260 -1.1291 0.9875
2.9271 -0.2174 -1.1248 0.9875
2.9299 -0.1133 -1.1236 0.9875
2.9303 -0.0093 -1.1230 0.9875
2.9285 0.0946 -1.1228 0.9875
2.9244 0.1985 -1.1233 0.9875
2.9706 0.4148 -1.1494 0.9872
6.4935 1.3819 -2.5441 0.9720
6.4388 1.6109 -2.5435 0.9720
6.2258 2.2838 -2.5413 0.9720
6.0442 2.7176 -2.5396 0.9720
5.9418 2.9292 -2.5387 0.9720
4.5445 -4.2181 -2.5376 0.9736
4.6927 -4.0555 -2.5384 0.9735
4.8350 -3.8877 -2.5392 0.9735
4.9713 -3.7148 -2.5399 0.9735
5.1012 -3.5371 -2.5406 0.9735
5.3416 -3.1680 -2.5417 0.9735
5.8956 -1.9698 -2.5440 0.9735
6.0213 -1.5471 -2.5444 0.9735
2.8504 -0.6255 -1.1943 0.9875
2.8212 -0.5150 -1.1737 0.9877
2.8092 -0.4104 -1.1619 0.9878
2.8412 0.3967 -1.1741 0.9877
2.9299 0.5156 -1.2176 0.9872
6.0737 1.2925 -2.5414 0.9735
5.8975 1.9289 -2.5395 0.9735
5.4558 2.9345 -2.5354 0.9736
3.9702 -4.2474 -2.5338 0.9750
4.1197 -4.1053 -2.5347 0.9749
4.4031 -3.8052 -2.5362 0.9749
4.5365 -3.6477 -2.5369 0.9749
4.9019 -3.1474 -2.5388 0.9749
5.0115 -2.9722 -2.5393 0.9749
5.2115 -2.6104 -2.5402 0.9749
5.3016 -2.4243 -2.5406 0.9749
5.3849 -2.2350 -2.5409 0.9749
5.4614 -2.0428 -2.5412 0.9749
5.5935 -1.6508 -2.5417 0.9749
2.7372 -0.6007 -1.2213 0.9878
2.7174 -0.4960 -1.2039 0.9880
2.7248 -0.1054 -1.1884 0.9882
2.7230 0.1848 -1.1895 0.9882
2.7347 0.3818 -1.2034 0.9880
5.6505 1.4137 -2.5385 0.9749
5.4642 2.0044 -2.5365 0.9749
5.3881 2.1963 -2.5358 0.9749
5.3052 2.3853 -2.5350 0.9749
5.2156 2.5712 -2.5342 0.9749
5.1194 2.7536 -2.5334 0.9750
5.0167 2.9324 -2.5325 0.9750
4.0116 -3.7235 -2.5335 0.9762
4.1423 -3.5799 -2.5342 0.9762
4.2678 -3.4316 -2.5349 0.9762
4.5024 -3.1219 -2.5361 0.9761
4.6113 -2.9609 -2.5366 0.9761
4.7144 -2.7960 -2.5371 0.9761
4.8115 -2.6275 -2.5376 0.9761
4.9024 -2.4556 -2.5380 0.9761
5.0655 -2.1024 -2.5387 0.9761
5.1374 -1.9216 -2.5389 0.9761
5.2028 -1.7384 -2.5392 0.9761
5.2615 -1.5528 -2.5393 0.9761
2.6358 -0.5785 -1.2491 0.9882
2.6424 -0.2908 -1.2305 0.9884
2.6497 -0.1025 -1.2274 0.9884
2.6496 -0.0084 -1.2265 0.9884
2.6474 0.0855 -1.2261 0.9884
2.6437 0.1795 -1.2266 0.9884
2.6379 0.3683 -1.2329 0.9883
2.6485 0.4661 -1.2448 0.9882
5.3605 1.1408 -2.5369 0.9761
5.2639 1.5173 -2.5358 0.9761
5.1406 1.8857 -2.5345 0.9762
4.9912 2.2441 -2.5331 0.9762
4.9069 2.4190 -2.5323 0.9762
3.6550 -3.6422 -2.5310 0.9773
3.7829 -3.5112 -2.5317 0.9773
4.2456 -2.9438 -2.5342 0.9772
4.3482 -2.7919 -2.5347 0.9772
4.5368 -2.4775 -2.5356 0.9772
4.7023 -2.1502 -2.5363 0.9772
4.8440 -1.8119 -2.5368 0.9772
4.9056 -1.6391 -2.5371 0.9772
2.6355 -0.6772 -1.3348 0.9879
2.6053 -0.4756 -1.2991 0.9883
2.6031 0.0841 -1.2775 0.9885
2.6042 0.1768 -1.2804 0.9884
2.6055 0.2700 -1.2849 0.9884
2.6052 0.3638 -1.2903 0.9883
2.8561 0.6078 -1.4324 0.9871
5.0123 1.2540 -2.5344 0.9772
4.9636 1.4307 -2.5339 0.9772
4.9086 1.6055 -2.5333 0.9773
4.7067 2.1162 -2.5314 0.9773
4.5421 2.4431 -2.5299 0.9773
4.4513 2.6019 -2.5291 0.9773
3.5746 -3.3179 -2.5301 0.9783
3.6909 -3.1898 -2.5308 0.9783
4.0115 -2.7815 -2.5324 0.9782
4.3675 -2.1876 -2.5341 0.9782
4.5767 -1.7119 -2.5349 0.9782
4.6349 -1.5486 -2.5351 0.9782
4.6872 -1.3833 -2.5353 0.9782
2.6054 -0.6694 -1.3955 0.9880
2.5772 -0.5656 -1.3688 0.9882
2.5806 -0.4711 -1.3609 0.9882
2.5802 -0.1916 -1.3423 0.9884
2.5804 -0.0082 -1.3387 0.9884
2.5804 0.0834 -1.3394 0.9884
2.5816 0.1752 -1.3423 0.9884
2.5827 0.2676 -1.3470 0.9884
2.5802 0.3603 -1.3515 0.9883
2.5845 0.4548 -1.3614 0.9882
2.6299 0.5597 -1.3949 0.9880
4.7360 1.1849 -2.5326 0.9782
4.6901 1.3519 -2.5321 0.9782
4.5168 1.8412 -2.5304 0.9783
4.4475 1.9997 -2.5298 0.9783
4.3726 2.1556 -2.5291 0.9783
4.2922 2.3087 -2.5284 0.9783
3.1511 -3.3711 -2.5274 0.9792
3.3838 -3.1408 -2.5286 0.9792
3.4939 -3.0195 -2.5292 0.9792
3.5996 -2.8943 -2.5298 0.9792
3.7973 -2.6329 -2.5308 0.9791
4.1341 -2.0707 -2.5324 0.9791
4.2055 -1.9230 -2.5327 0.9791
4.2714 -1.7728 -2.5330 0.9791
4.3871 -1.4658 -2.5334 0.9791
2.5752 -0.6617 -1.4563 0.9879
2.5533 -0.5603 -1.4317 0.9881
2.5582 -0.3738 -1.4160 0.9883
2.5597 -0.0081 -1.4019 0.9884
2.5596 0.0827 -1.4026 0.9884
2.5579 0.2651 -1.4085 0.9883
2.5555 0.4497 -1.4212 0.9882
4.4830 1.1216 -2.5310 0.9791
4.3359 1.5905 -2.5295 0.9792
3.9821 2.3277 -2.5263 0.9792
2.9877 -3.1964 -2.5261 0.9800
3.3127 -2.8629 -2.5278 0.9800
3.8468 -2.1007 -2.5305 0.9800
3.9870 -1.8232 -2.5311 0.9800
4.0496 -1.6808 -2.5314 0.9800
2.5450 -0.6539 -1.5171 0.9879
2.5338 -0.5561 -1.4977 0.9881
2.5361 -0.2791 -1.4730 0.9883
2.5369 -0.1884 -1.4687 0.9883
2.5371 -0.0981 -1.4659 0.9883
2.5373 -0.0081 -1.4649 0.9883
2.5371 0.0820 -1.4655 0.9883
2.5374 0.2629 -1.4728 0.9883
2.5352 0.3540 -1.4779 0.9882
2.5343 0.4460 -1.4857 0.9882
2.5741 0.5478 -1.5194 0.9879
4.2503 1.0634 -2.5295 0.9800
4.1110 1.5080 -2.5281 0.9800
4.0540 1.6525 -2.5275 0.9800
3.9919 1.7948 -2.5270 0.9800
3.8527 2.0723 -2.5257 0.9800
