ply
format ascii 1.0
element vertex 549
property float32 x
property float32 y
property float32 z
property float32 I
end_header
43.6250 -20.7887 8.5210 0.8218
44.8862 -17.5748 8.4997 0.8222
45.4753 -15.9554 8.4977 0.8222
43.6019 -13.5683 8.0518 0.8307
47.8650 -5.9135 8.5041 0.8221
48.1195 -2.4764 8.4960 0.8223
48.1860 -0.7549 8.4975 0.8222
48.1406 2.6910 8.5017 0.8221
46.5825 12.9101 8.5234 0.8217
31.3765 -26.1594 6.2581 0.8476
31.5239 -24.4263 6.1094 0.8510
46.4347 -16.2921 7.5387 0.8194
46.4743 -12.6590 7.3790 0.8229
46.4938 -10.8951 7.3155 0.8243
46.5131 -9.1592 7.2624 0.8254
46.5323 -7.4462 7.2192 0.8264
46.5515 -5.7512 7.1856 0.8271
46.5707 -4.0699 7.1616 0.8276
45.3985 -2.3364 6.9640 0.8320
46.6092 -0.7301 7.1411 0.8281
46.6484 2.6076 7.1574 0.8277
46.6683 4.2866 7.1794 0.8273
46.6886 5.9780 7.2108 0.8266
46.7302 9.4169 7.3027 0.8246
46.7738 12.9631 7.4356 0.8217
31.3704 -26.1543 5.3186 0.8481
46.2995 -16.2446 6.3895 0.8204
46.3409 -12.6226 6.2544 0.8239
46.3610 -10.8640 6.2007 0.8252
46.6515 -9.1863 6.1917 0.8255
48.5868 -7.7749 6.4075 0.8200
44.7149 -2.3012 5.8305 0.8348
48.6682 -0.7624 6.3384 0.8217
48.7089 2.7228 6.3528 0.8214
46.6179 11.1421 6.2416 0.8242
46.6391 12.9258 6.3023 0.8227
31.4268 -32.5029 4.8549 0.8337
31.4045 -30.2379 4.6814 0.8391
31.3643 -26.1492 4.3849 0.8485
34.3984 -24.7377 4.5497 0.8433
41.4073 -25.4988 5.2218 0.8223
44.9507 -2.3133 4.8333 0.8344
31.4201 -32.4960 3.8265 0.8341
31.3775 -28.1212 3.5669 0.8444
31.3583 -26.1442 3.4561 0.8488
31.5221 -24.4250 3.3758 0.8521
34.3977 -24.7372 3.5867 0.8436
37.6610 -25.0915 3.8309 0.8339
44.9576 -2.3137 3.8108 0.8347
31.4626 -37.5772 3.0391 0.8217
31.4370 -34.9300 2.9141 0.8283
31.3916 -30.2256 2.7023 0.8398
31.3713 -28.1156 2.6123 0.8447
31.3523 -26.1392 2.5312 0.8491
31.5215 -24.4245 2.4728 0.8523
34.3970 -24.7367 2.6273 0.8438
41.4054 -25.4976 3.0153 0.8229
31.4068 -32.4823 1.7816 0.8345
31.3652 -28.1101 1.6608 0.8448
34.3963 -24.7362 1.6706 0.8440
31.4002 -32.4754 0.7631 0.8347
31.3789 -30.2133 0.7358 0.8401
31.3404 -26.1293 0.6892 0.8494
37.6586 -25.0899 0.7644 0.8344
41.4036 -25.4965 0.8214 0.8232
44.3275 -21.1236 0.8294 0.8216
45.5237 -19.7290 0.8381 0.8200
44.5467 -2.2925 0.7535 0.8366
45.9662 14.5274 0.8143 0.8246
31.4410 -37.5515 -0.2757 0.8221
31.4163 -34.9071 -0.2644 0.8287
31.3528 -28.0990 -0.2370 0.8450
34.3950 -24.7352 -0.2385 0.8441
41.4026 -25.4959 -0.2738 0.8232
44.3204 -21.1202 -0.2764 0.8217
45.9697 14.5285 -0.2714 0.8246
31.4338 -37.5429 -1.3787 0.8221
31.3870 -32.4617 -1.2714 0.8347
31.3661 -30.2010 -1.2261 0.8401
31.5192 -24.4227 -1.1228 0.8525
37.6571 -25.0889 -1.2741 0.8344
41.4017 -25.4953 -1.3691 0.8232
37.7005 -16.3386 -1.1570 0.8484
37.7090 -14.7647 -1.1403 0.8504
37.7253 -11.7396 -1.1125 0.8538
37.7332 -10.2780 -1.1012 0.8551
37.7558 -6.0417 -1.0767 0.8581
37.7632 -4.6655 -1.0714 0.8588
37.7439 -3.2985 -1.0668 0.8593
37.7777 -1.9441 -1.0651 0.8595
37.7921 0.7593 -1.0644 0.8596
37.8065 3.4726 -1.0690 0.8591
37.8211 6.2239 -1.0793 0.8578
31.4026 -34.8918 -2.3806 0.8286
34.3936 -24.7342 -2.1485 0.8439
37.6857 -17.9585 -2.1171 0.8460
37.6946 -16.3361 -2.0835 0.8483
37.7032 -14.7624 -2.0534 0.8503
37.7275 -10.2765 -1.9830 0.8550
37.7428 -7.4322 -1.9509 0.8572
37.7503 -6.0409 -1.9388 0.8580
37.7576 -4.6648 -1.9294 0.8587
37.7384 -3.2980 -1.9212 0.8592
37.7722 -1.9439 -1.9181 0.8594
37.7866 0.7592 -1.9167 0.8595
37.7671 2.1112 -1.9183 0.8594
37.8010 3.4721 -1.9251 0.8590
37.8082 4.8410 -1.9331 0.8584
37.7962 7.6166 -1.9553 0.8569
37.8379 10.4866 -1.9912 0.8545
17.9290 -31.4376 -2.6536 0.8649
20.2314 -30.2290 -2.6670 0.8643
25.5696 -26.4451 -2.6972 0.8628
26.5508 -25.5630 -2.7025 0.8626
27.4992 -24.6453 -2.7076 0.8623
28.4128 -23.6885 -2.7124 0.8621
29.4833 -21.2029 -2.6627 0.8645
29.4757 -19.6381 -2.5970 0.8676
30.4325 -17.2714 -2.5657 0.8691
31.6551 -15.0847 -2.5711 0.8688
32.2022 -13.9558 -2.5733 0.8687
33.9395 -9.2447 -2.5792 0.8684
34.2571 -8.0276 -2.5798 0.8684
34.9204 -4.3143 -2.5799 0.8684
35.1429 -0.5505 -2.5771 0.8685
35.1185 0.7056 -2.5755 0.8686
35.0450 1.9590 -2.5736 0.8687
34.5327 5.6828 -2.5661 0.8690
34.2660 6.9051 -2.5630 0.8692
33.9522 8.1148 -2.5596 0.8694
33.5921 9.3099 -2.5559 0.8695
14.3655 -23.2190 -2.6213 0.8961
15.2148 -22.7334 -2.6262 0.8959
18.4259 -20.4731 -2.6443 0.8952
19.1756 -19.8322 -2.6484 0.8951
19.9017 -19.1624 -2.6524 0.8949
21.2779 -17.7399 -2.6596 0.8947
21.9258 -16.9892 -2.6629 0.8945
22.5454 -16.2136 -2.6661 0.8944
23.1357 -15.4140 -2.6690 0.8943
24.2242 -13.7481 -2.6741 0.8941
25.1841 -12.0011 -2.6783 0.8940
26.0087 -10.1835 -2.6815 0.8938
26.9800 -7.3490 -2.6846 0.8937
27.4441 -5.4042 -2.6854 0.8937
27.8576 -2.4345 -2.6847 0.8937
27.9191 -1.4368 -2.6839 0.8937
27.8742 1.5582 -2.6802 0.8939
27.0422 6.4633 -2.6693 0.8943
26.4522 8.3601 -2.6633 0.8945
12.1812 -18.2007 -2.6015 0.9156
12.8427 -17.7795 -2.6053 0.9154
14.1190 -16.8629 -2.6125 0.9152
14.7318 -16.3686 -2.6159 0.9151
15.3265 -15.8512 -2.6191 0.9150
16.4577 -14.7497 -2.6252 0.9148
18.4623 -12.3012 -2.6353 0.9145
18.9059 -11.6423 -2.6374 0.9144
20.0834 -9.5704 -2.6426 0.9143
21.2774 -6.6212 -2.6470 0.9141
22.1244 -2.7334 -2.6480 0.9141
22.2048 -1.9405 -2.6477 0.9141
22.2254 1.2424 -2.6442 0.9142
22.1555 2.0350 -2.6428 0.9143
22.0557 2.8240 -2.6413 0.9143
21.9263 3.6082 -2.6396 0.9144
21.5798 5.1577 -2.6356 0.9145
10.1472 -15.1615 -2.5850 0.9289
11.7531 -14.0372 -2.5940 0.9287
12.2606 -13.6228 -2.5968 0.9286
12.7528 -13.1895 -2.5995 0.9286
13.6888 -12.2681 -2.6045 0.9284
14.9606 -10.7589 -2.6110 0.9283
15.3467 -10.2246 -2.6129 0.9282
15.7128 -9.6760 -2.6146 0.9282
16.3829 -8.5385 -2.6176 0.9281
16.6858 -7.9513 -2.6189 0.9280
16.9667 -7.3530 -2.6200 0.9280
17.2251 -6.7443 -2.6210 0.9280
17.4606 -6.1262 -2.6218 0.9280
17.8615 -4.8652 -2.6230 0.9279
18.0263 -4.2242 -2.6233 0.9279
18.1670 -3.5774 -2.6235 0.9279
18.4847 -0.9512 -2.6226 0.9280
18.4636 1.0321 -2.6202 0.9280
18.2206 2.9984 -2.6164 0.9281
18.0909 3.6456 -2.6148 0.9282
17.5591 5.5495 -2.6092 0.9283
7.7209 -13.5382 -2.5675 0.9388
8.2090 -13.2682 -2.5703 0.9387
9.1552 -12.6745 -2.5757 0.9386
10.4897 -11.6552 -2.5832 0.9384
11.3151 -10.8947 -2.5876 0.9383
12.0833 -10.0741 -2.5917 0.9382
12.4445 -9.6426 -2.5935 0.9382
12.7897 -9.1977 -2.5952 0.9381
13.1184 -8.7400 -2.5968 0.9381
13.4300 -8.2702 -2.5983 0.9381
13.7242 -7.7889 -2.5996 0.9380
14.2583 -6.7945 -2.6020 0.9380
14.4974 -6.2828 -2.6029 0.9380
14.7174 -5.7624 -2.6037 0.9379
14.9179 -5.2341 -2.6044 0.9379
15.6979 -1.9394 -2.6057 0.9379
15.7557 -1.3769 -2.6055 0.9379
15.7923 -0.8127 -2.6051 0.9379
15.7290 1.4447 -2.6021 0.9380
15.6608 2.0052 -2.6010 0.9380
15.5719 2.5625 -2.5998 0.9380
15.4624 3.1159 -2.5985 0.9381
15.1825 4.2077 -2.5954 0.9381
15.0125 4.7446 -2.5937 0.9382
6.7454 -11.8276 -2.5592 0.9461
7.1707 -11.5901 -2.5617 0.9460
7.5876 -11.3370 -2.5641 0.9460
7.9952 -11.0686 -2.5664 0.9459
8.3930 -10.7851 -2.5687 0.9459
9.1572 -10.1746 -2.5729 0.9458
9.5224 -9.8484 -2.5749 0.9458
9.8756 -9.5087 -2.5768 0.9457
10.2162 -9.1560 -2.5786 0.9457
10.5440 -8.7907 -2.5803 0.9457
10.8582 -8.4134 -2.5819 0.9456
11.1584 -8.0246 -2.5834 0.9456
11.4443 -7.6247 -2.5848 0.9456
12.2113 -6.3643 -2.5883 0.9455
12.8349 -5.0254 -2.5908 0.9454
13.4288 -3.1469 -2.5925 0.9454
13.7854 -0.2160 -2.5914 0.9454
13.7813 0.2769 -2.5909 0.9454
13.7182 1.2600 -2.5893 0.9455
13.5827 2.2352 -2.5874 0.9455
13.4881 2.7181 -2.5862 0.9455
5.9829 -10.4908 -2.5528 0.9518
6.3596 -10.2790 -2.5550 0.9518
6.7285 -10.0535 -2.5571 0.9517
7.0893 -9.8144 -2.5592 0.9517
7.4413 -9.5621 -2.5612 0.9517
8.4403 -8.7292 -2.5667 0.9516
9.0538 -8.1142 -2.5699 0.9515
9.6213 -7.4550 -2.5728 0.9515
9.8867 -7.1100 -2.5741 0.9514
10.3789 -6.3913 -2.5765 0.9514
10.8173 -5.6378 -2.5785 0.9514
11.1992 -4.8535 -2.5800 0.9513
11.5226 -4.0428 -2.5812 0.9513
11.7854 -3.2102 -2.5819 0.9513
12.0629 -1.9303 -2.5823 0.9513
12.1686 -1.0634 -2.5820 0.9513
12.1973 -0.6277 -2.5817 0.9513
12.2066 0.2452 -2.5807 0.9513
12.1871 0.6813 -2.5801 0.9513
12.1515 1.1161 -2.5794 0.9513
12.0326 1.9801 -2.5777 0.9514
11.9494 2.4080 -2.5766 0.9514
11.7362 3.2526 -2.5743 0.9514
5.3702 -9.4163 -2.5476 0.9564
5.7077 -9.2254 -2.5496 0.9564
6.0383 -9.0222 -2.5515 0.9564
6.6770 -8.5799 -2.5551 0.9563
6.9840 -8.3413 -2.5568 0.9563
8.3803 -6.9869 -2.5643 0.9562
9.3071 -5.7313 -2.5688 0.9561
9.8768 -4.7066 -2.5713 0.9560
10.0413 -4.3517 -2.5720 0.9560
10.3307 -3.6246 -2.5730 0.9560
10.4552 -3.2535 -2.5734 0.9560
10.5660 -2.8780 -2.5737 0.9560
10.7458 -2.1160 -2.5740 0.9560
10.8692 -1.3428 -2.5739 0.9560
10.9095 -0.9534 -2.5737 0.9560
10.9354 -0.5628 -2.5735 0.9560
10.9269 0.6108 -2.5721 0.9560
10.8954 1.0008 -2.5714 0.9560
10.7153 2.1593 -2.5690 0.9561
4.8665 -8.5330 -2.5434 0.9602
5.1720 -8.3595 -2.5452 0.9602
5.7637 -7.9792 -2.5486 0.9601
6.0490 -7.7730 -2.5502 0.9601
6.3268 -7.5563 -2.5517 0.9601
6.5967 -7.3296 -2.5532 0.9601
7.5896 -6.3276 -2.5584 0.9600
7.8144 -6.0550 -2.5596 0.9600
8.0292 -5.7742 -2.5607 0.9600
8.2336 -5.4856 -2.5616 0.9599
9.3529 -3.2815 -2.5664 0.9599
9.7284 -1.9157 -2.5672 0.9599
9.7907 -1.5667 -2.5672 0.9599
3.9025 -0.4821 -1.0181 0.9839
3.8454 -0.3361 -0.9994 0.9842
3.8488 0.0773 -0.9967 0.9842
3.8457 0.2150 -0.9973 0.9842
9.8235 1.2578 -2.5642 0.9599
9.7026 1.9552 -2.5627 0.9599
9.6231 2.3000 -2.5618 0.9599
9.4267 2.9793 -2.5597 0.9600
4.4446 -7.7934 -2.5398 0.9634
5.2632 -7.2863 -2.5445 0.9633
5.5234 -7.0976 -2.5460 0.9633
6.0229 -6.6921 -2.5488 0.9633
6.2614 -6.4758 -2.5501 0.9632
6.4920 -6.2509 -2.5513 0.9632
6.7144 -6.0176 -2.5525 0.9632
7.1331 -5.5271 -2.5546 0.9632
7.3290 -5.2706 -2.5556 0.9632
7.5153 -5.0070 -2.5565 0.9632
7.6920 -4.7367 -2.5573 0.9631
7.8587 -4.4601 -2.5581 0.9631
8.1615 -3.8892 -2.5594 0.9631
8.5356 -2.9948 -2.5608 0.9631
8.6382 -2.6881 -2.5611 0.9631
8.7296 -2.3778 -2.5613 0.9631
8.8780 -1.7482 -2.5616 0.9631
3.5943 -0.4441 -1.0252 0.9851
3.5625 -0.3113 -1.0124 0.9852
3.5662 0.0716 -1.0098 0.9853
8.9657 1.1480 -2.5588 0.9631
8.8558 1.7846 -2.5574 0.9631
8.7835 2.0993 -2.5566 0.9632
4.3420 -7.0180 -2.5383 0.9661
5.3093 -6.3411 -2.5438 0.9660
5.5353 -6.1503 -2.5450 0.9660
5.7543 -5.9512 -2.5462 0.9659
5.9660 -5.7443 -2.5473 0.9659
6.3663 -5.3077 -2.5494 0.9659
6.7341 -4.8428 -2.5512 0.9659
7.2203 -4.0978 -2.5535 0.9659
7.4981 -3.5731 -2.5547 0.9658
7.6226 -3.3034 -2.5552 0.9658
7.7371 -3.0294 -2.5557 0.9658
7.8415 -2.7513 -2.5560 0.9658
7.9357 -2.4695 -2.5563 0.9658
8.0196 -2.1844 -2.5565 0.9658
8.0930 -1.8965 -2.5567 0.9658
8.1559 -1.6060 -2.5567 0.9658
3.4176 -0.5469 -1.0645 0.9856
3.3542 -0.1726 -1.0331 0.9860
3.3552 0.0674 -1.0322 0.9861
3.7769 -6.6226 -2.5342 0.9684
4.4712 -6.1899 -2.5382 0.9683
4.6919 -6.0291 -2.5394 0.9683
5.1153 -5.6837 -2.5418 0.9683
5.3175 -5.4996 -2.5429 0.9683
5.7014 -5.1097 -2.5449 0.9682
6.0562 -4.6926 -2.5467 0.9682
6.2221 -4.4746 -2.5475 0.9682
6.3799 -4.2506 -2.5483 0.9682
6.8034 -3.5459 -2.5502 0.9682
6.9273 -3.3011 -2.5507 0.9682
7.0421 -3.0519 -2.5512 0.9682
7.1478 -2.7986 -2.5516 0.9682
7.2442 -2.5417 -2.5519 0.9682
7.3312 -2.2814 -2.5522 0.9682
7.4764 -1.7520 -2.5525 0.9681
3.2144 -0.5144 -1.0821 0.9864
3.1736 -0.3921 -1.0629 0.9866
3.1780 -0.2777 -1.0604 0.9866
3.1801 -0.1637 -1.0585 0.9867
3.1807 -0.0498 -1.0574 0.9867
3.1809 0.0639 -1.0576 0.9867
3.1788 0.1777 -1.0583 0.9867
7.5175 1.5149 -2.5491 0.9682
7.3056 2.3089 -2.5468 0.9682
3.5076 -6.1503 -2.5319 0.9704
3.9419 -5.8898 -2.5344 0.9703
4.5560 -5.4414 -2.5379 0.9703
4.7496 -5.2773 -2.5389 0.9703
4.9372 -5.1062 -2.5400 0.9703
5.2932 -4.7439 -2.5418 0.9703
5.4613 -4.5532 -2.5427 0.9702
5.6224 -4.3565 -2.5435 0.9702
5.7762 -4.1540 -2.5443 0.9702
6.0614 -3.7327 -2.5457 0.9702
6.1925 -3.5144 -2.5462 0.9702
6.3155 -3.2915 -2.5468 0.9702
6.4303 -3.0643 -2.5473 0.9702
6.7243 -2.3593 -2.5484 0.9702
6.8050 -2.1176 -2.5486 0.9702
6.8768 -1.8732 -2.5488 0.9702
3.0631 -0.4902 -1.1093 0.9869
3.0472 -0.2663 -1.0938 0.9871
3.0518 -0.0478 -1.0915 0.9871
3.0506 0.0613 -1.0911 0.9871
3.0483 0.1704 -1.0918 0.9871
3.0963 0.3964 -1.1163 0.9868
7.0260 1.1562 -2.5463 0.9702
6.9220 1.6544 -2.5451 0.9702
6.7823 2.1435 -2.5436 0.9702
3.2706 -5.7348 -2.5299 0.9721
3.6753 -5.4915 -2.5323 0.9721
3.8710 -5.3590 -2.5334 0.9721
4.0618 -5.2194 -2.5345 0.9721
4.2475 -5.0729 -2.5355 0.9721
4.9343 -4.4222 -2.5392 0.9720
5.0908 -4.2443 -2.5400 0.9720
5.9934 -2.8560 -2.5442 0.9720
6.0926 -2.6404 -2.5446 0.9720
6.1839 -2.4212 -2.5450 0.9720
6.2672 -2.1989 -2.5452 0.9719
2.9650 -0.5838 -1.1580 0.9871
2.9266 -0.4683 -1.1358 0.9874
2.9204 -0.3608 -1.1276 0.9875
2.9299 -0.1508 -1.1243 0.9875
2.9592 0.3789 -1.1433 0.9873
6.3912 1.7713 -2.5415 0.9720
6.3221 1.9980 -2.5408 0.9720
3.2515 -5.2554 -2.5293 0.9736
3.6216 -5.0138 -2.5314 0.9736
3.8001 -4.8831 -2.5324 0.9736
3.9737 -4.7459 -2.5333 0.9736
4.1423 -4.6025 -2.5343 0.9736
4.3057 -4.4531 -2.5352 0.9736
4.6158 -4.1368 -2.5368 0.9736
4.7622 -3.9703 -2.5375 0.9736
4.9024 -3.7986 -2.5383 0.9736
5.0363 -3.6219 -2.5389 0.9735
5.3988 -3.0640 -2.5406 0.9735
5.6986 -2.4696 -2.5419 0.9735
5.7839 -2.2646 -2.5422 0.9735
5.8618 -2.0567 -2.5425 0.9735
6.0494 -1.4176 -2.5429 0.9735
2.8321 -0.5577 -1.1813 0.9876
2.8101 -0.4497 -1.1647 0.9878
2.8081 -0.3469 -1.1580 0.9878
2.8166 -0.1449 -1.1543 0.9879
2.8141 0.1573 -1.1535 0.9879
2.8321 0.3626 -1.1685 0.9877
2.8645 0.4714 -1.1881 0.9875
5.9783 1.6569 -2.5390 0.9735
3.0515 -4.9321 -2.5276 0.9750
3.3987 -4.7052 -2.5296 0.9750
3.5660 -4.5824 -2.5305 0.9750
4.1883 -4.0327 -2.5339 0.9749
4.3311 -3.8816 -2.5347 0.9749
4.5998 -3.5642 -2.5360 0.9749
4.8450 -3.2279 -2.5372 0.9749
5.0653 -2.8747 -2.5383 0.9749
5.1657 -2.6923 -2.5387 0.9749
5.4264 -2.1247 -2.5397 0.9749
5.4994 -1.9295 -2.5400 0.9749
5.5654 -1.7319 -2.5402 0.9749
2.7438 -0.6430 -1.2282 0.9878
2.7217 -0.4355 -1.2013 0.9880
2.7210 -0.2378 -1.1904 0.9882
2.7244 -0.1402 -1.1889 0.9882
2.7206 0.1521 -1.1876 0.9882
2.7514 0.4528 -1.2152 0.9879
5.7084 1.1503 -2.5378 0.9749
2.8714 -4.6409 -2.5261 0.9762
3.1979 -4.4272 -2.5280 0.9762
3.3553 -4.3116 -2.5289 0.9762
3.6571 -4.0635 -2.5305 0.9762
3.8012 -3.9314 -2.5313 0.9762
4.2038 -3.5048 -2.5334 0.9762
4.3274 -3.3531 -2.5340 0.9762
4.5580 -3.0367 -2.5352 0.9761
4.7651 -2.7043 -2.5361 0.9761
4.9476 -2.3577 -2.5369 0.9761
5.0294 -2.1796 -2.5372 0.9761
2.6453 -0.6199 -1.2576 0.9881
2.6407 -0.3262 -1.2316 0.9883
2.6455 0.1479 -1.2265 0.9884
2.6445 0.2429 -1.2292 0.9884
2.9706 0.5986 -1.4027 0.9867
3.0160 -4.1753 -2.5265 0.9773
3.4489 -3.8321 -2.5289 0.9773
3.5847 -3.7075 -2.5297 0.9773
3.7160 -3.5779 -2.5304 0.9773
3.8425 -3.4437 -2.5310 0.9773
3.9641 -3.3050 -2.5316 0.9773
4.3984 -2.7085 -2.5338 0.9772
4.4932 -2.5500 -2.5342 0.9772
4.5822 -2.3881 -2.5346 0.9772
4.7423 -2.0552 -2.5352 0.9772
2.6050 -0.5130 -1.3024 0.9882
2.6052 -0.4169 -1.2941 0.9883
2.6041 -0.3217 -1.2871 0.9884
2.6029 -0.2275 -1.2817 0.9884
2.6013 -0.1339 -1.2777 0.9885
2.6029 0.0523 -1.2770 0.9885
2.6043 0.1456 -1.2794 0.9884
5.0232 1.2006 -2.5334 0.9773
4.9761 1.3791 -2.5329 0.9773
2.4090 -4.2240 -2.5227 0.9783
2.7065 -4.0439 -2.5244 0.9783
2.8502 -3.9458 -2.5252 0.9783
3.2592 -3.6213 -2.5275 0.9783
3.5114 -3.3810 -2.5288 0.9783
3.7458 -3.1230 -2.5300 0.9783
3.8559 -2.9877 -2.5306 0.9783
3.9611 -2.8486 -2.5311 0.9783
4.0612 -2.7057 -2.5316 0.9782
4.2455 -2.4094 -2.5324 0.9782
4.4808 -1.9419 -2.5334 0.9782
2.6259 -0.7152 -1.4119 0.9878
2.5797 -0.6045 -1.3746 0.9881
2.5821 -0.4132 -1.3566 0.9883
2.5812 -0.3189 -1.3493 0.9883
2.5806 -0.1328 -1.3405 0.9884
2.5816 0.1443 -1.3413 0.9884
2.5814 0.3305 -1.3501 0.9883
2.5783 0.4243 -1.3556 0.9883
2.6159 0.5271 -1.3843 0.9880
4.7464 1.1344 -2.5317 0.9782
4.7019 1.3031 -2.5312 0.9783
4.6513 1.4700 -2.5307 0.9783
2.2808 -3.9993 -2.5216 0.9792
2.4231 -3.9165 -2.5224 0.9792
2.6984 -3.7357 -2.5240 0.9792
2.9601 -3.5354 -2.5254 0.9792
3.0854 -3.4282 -2.5261 0.9792
3.3242 -3.2007 -2.5274 0.9792
3.5460 -2.9563 -2.5286 0.9792
3.7496 -2.6965 -2.5296 0.9792
3.8443 -2.5612 -2.5300 0.9792
3.9340 -2.4226 -2.5305 0.9791
4.0187 -2.2808 -2.5308 0.9791
4.0983 -2.1359 -2.5312 0.9791
4.1725 -1.9883 -2.5315 0.9791
4.2414 -1.8381 -2.5318 0.9791
4.3048 -1.6855 -2.5320 0.9791
2.5529 -0.5982 -1.4361 0.9881
2.5553 -0.5032 -1.4264 0.9882
2.5590 -0.3162 -1.4122 0.9883
2.5597 -0.2237 -1.4073 0.9884
2.5599 0.0514 -1.4024 0.9884
2.1629 -3.7924 -2.5206 0.9800
2.2978 -3.7138 -2.5214 0.9800
3.0407 -3.1447 -2.5255 0.9800
3.1519 -3.0347 -2.5261 0.9800
3.2590 -2.9208 -2.5267 0.9800
3.3621 -2.8030 -2.5272 0.9800
3.4608 -2.6816 -2.5277 0.9800
3.5551 -2.5566 -2.5282 0.9800
3.6448 -2.4283 -2.5286 0.9800
3.7299 -2.2969 -2.5290 0.9800
3.8855 -2.0251 -2.5297 0.9800
4.0812 -1.5980 -2.5305 0.9800
4.1361 -1.4512 -2.5307 0.9800
4.1855 -1.3025 -2.5308 0.9800
2.5339 -0.5938 -1.5026 0.9881
2.5374 -0.4060 -1.4836 0.9882
2.5369 -0.2217 -1.4703 0.9883
2.5373 -0.1306 -1.4669 0.9883
2.5375 -0.0397 -1.4652 0.9883
2.5374 0.0510 -1.4653 0.9883
2.5382 0.2331 -1.4716 0.9883
4.2200 1.1695 -2.5282 0.9800
4.1747 1.3194 -2.5278 0.9800
