ply
format ascii 1.0
element vertex 465
property float32 x
property float32 y
property float32 z
property float32 I
end_header
45.1083 17.4446 8.5279 0.8217
44.9939 19.2869 8.6318 0.8197
2.8623 32.7091 5.7895 0.8751
-1.9058 33.6832 5.9488 0.8719
46.7934 14.3268 7.4969 0.8203
2.7199 7.7148 1.2532 0.9674
2.8619 32.7047 5.0293 0.8756
46.6576 14.2852 6.3542 0.8213
2.7199 7.7149 1.0652 0.9675
0.5539 36.0024 4.6888 0.8648
45.1640 15.6243 5.1318 0.8251
2.7199 7.7149 0.8784 0.9676
2.8612 32.6961 3.5244 0.8763
25.7111 35.5195 3.7119 0.8386
2.8608 32.6918 2.7780 0.8766
-1.8023 31.8534 2.7008 0.8798
2.7199 7.7149 0.5073 0.9677
-1.8049 31.8995 1.9813 0.8798
2.7199 7.7149 0.3226 0.9678
44.7557 15.4831 0.8000 0.8274
2.8597 32.6790 0.5541 0.8770
0.0999 6.4904 0.1096 0.9744
37.8424 10.1138 -1.1030 0.8549
37.8583 13.0970 -1.1280 0.8519
37.8665 14.6440 -1.1432 0.8500
37.8750 16.2353 -1.1603 0.8480
37.9020 21.3413 -1.2248 0.8402
37.8850 23.1634 -1.2504 0.8372
37.9437 29.2435 -1.3489 0.8256
2.7199 7.7150 -0.2303 0.9678
-0.1335 6.4900 -0.1828 0.9744
37.8523 13.0949 -2.0313 0.8518
37.8507 17.8616 -2.1226 0.8457
37.9365 29.2380 -2.4290 0.8254
30.4778 39.0673 -2.5129 0.8200
28.9250 39.9593 -2.5017 0.8207
2.7199 7.7150 -0.4149 0.9678
11.3801 48.3650 -2.5198 0.8196
9.5822 48.4790 -2.5061 0.8204
6.0101 48.5211 -2.4795 0.8222
2.8525 32.5968 -1.6594 0.8772
2.4975 48.6073 -2.4683 0.8229
0.0999 6.4905 -0.3292 0.9743
33.3940 10.2243 -2.5607 0.8693
32.9523 11.3997 -2.5566 0.8695
30.7480 15.8854 -2.5376 0.8704
30.0932 16.9444 -2.5322 0.8707
29.3995 17.9752 -2.5266 0.8709
27.9658 23.2025 -2.6644 0.8644
27.0422 24.1289 -2.6573 0.8647
26.0866 25.0173 -2.6501 0.8651
24.0860 26.6762 -2.6353 0.8658
23.0445 27.4448 -2.6276 0.8661
21.9779 28.1718 -2.6198 0.8665
19.7768 29.4982 -2.6040 0.8672
18.6457 30.0964 -2.5959 0.8676
17.4968 30.6507 -2.5878 0.8680
16.3318 31.1606 -2.5796 0.8684
15.1525 31.6258 -2.5713 0.8688
12.7583 32.4217 -2.5547 0.8696
10.3283 33.0375 -2.5380 0.8704
6.6460 33.6237 -2.5131 0.8716
3.9308 31.7338 -2.3446 0.8796
2.7827 31.7989 -2.3405 0.8798
1.6390 31.8985 -2.3419 0.8798
0.0999 6.4906 -0.4760 0.9743
-0.1335 6.4902 -0.4760 0.9743
26.9001 7.1893 -2.6732 0.8941
26.5948 8.1425 -2.6702 0.8943
25.8771 10.0073 -2.6636 0.8945
25.0212 11.8074 -2.6562 0.8948
24.5434 12.6799 -2.6522 0.8949
22.9212 15.1724 -2.6390 0.8954
22.3208 15.9576 -2.6342 0.8956
21.6923 16.7184 -2.6293 0.8958
20.3553 18.1624 -2.6190 0.8962
18.9195 19.4969 -2.6082 0.8966
18.1674 20.1211 -2.6026 0.8968
15.7896 21.8130 -2.5852 0.8974
12.3829 23.6263 -2.5609 0.8984
10.6017 24.3357 -2.5484 0.8988
9.6961 24.6401 -2.5421 0.8991
2.7200 7.7151 -0.7854 0.9677
7.8617 25.1473 -2.5295 0.8995
6.9353 25.3501 -2.5232 0.8998
3.0069 24.2754 -2.3484 0.9064
2.1334 24.3792 -2.3495 0.9063
1.2535 24.3968 -2.3453 0.9065
-0.1335 6.4902 -0.6232 0.9743
-0.3719 6.5735 -0.6321 0.9739
21.4603 5.7355 -2.6387 0.9144
21.2215 6.4974 -2.6363 0.9145
20.9543 7.2491 -2.6338 0.9146
19.9870 9.4318 -2.6252 0.9148
19.6113 10.1319 -2.6221 0.9149
19.2100 10.8165 -2.6187 0.9150
18.3335 12.1356 -2.6116 0.9152
17.3632 13.3820 -2.6040 0.9155
16.8450 13.9758 -2.6000 0.9156
16.3058 14.5491 -2.5958 0.9157
14.5713 16.1383 -2.5828 0.9161
13.3268 17.0826 -2.5736 0.9164
12.6810 17.5185 -2.5689 0.9166
12.0207 17.9296 -2.5642 0.9167
11.3471 18.3155 -2.5593 0.9169
9.9635 19.0100 -2.5495 0.9172
7.8128 19.8541 -2.5344 0.9176
2.7200 7.7151 -0.9717 0.9676
5.2555 19.2101 -2.3657 0.9229
3.8462 19.4590 -2.3562 0.9232
2.4361 19.6669 -2.3540 0.9233
1.0131 19.7182 -2.3453 0.9235
16.3152 8.4289 -2.6020 0.9285
15.9847 9.0004 -2.5992 0.9286
15.2623 10.1027 -2.5933 0.9287
14.8714 10.6319 -2.5902 0.9288
14.4617 11.1457 -2.5870 0.9289
14.0337 11.6434 -2.5837 0.9290
13.1256 12.5876 -2.5767 0.9292
11.6441 13.8675 -2.5657 0.9295
10.0376 14.9717 -2.5540 0.9298
8.3276 15.8888 -2.5418 0.9301
7.7384 16.1515 -2.5376 0.9302
7.1411 16.3921 -2.5334 0.9303
6.5364 16.6105 -2.5292 0.9304
2.7200 7.7151 -1.1591 0.9675
4.9851 15.9458 -2.3672 0.9347
4.4012 16.0875 -2.3632 0.9348
2.6363 16.4200 -2.3563 0.9350
2.0412 16.4792 -2.3528 0.9351
1.4454 16.5168 -2.3492 0.9352
-0.3719 6.5737 -0.9329 0.9738
14.2171 6.7090 -2.5898 0.9383
13.9547 7.2095 -2.5876 0.9383
13.3759 8.1782 -2.5828 0.9384
12.0155 9.9690 -2.5720 0.9387
8.1303 13.1233 -2.5432 0.9393
7.1467 13.6357 -2.5362 0.9395
5.2716 13.3962 -2.3716 0.9433
2.7200 7.7151 -1.3477 0.9674
4.2832 13.7007 -2.3648 0.9435
3.2802 13.9405 -2.3593 0.9436
2.2660 14.1142 -2.3549 0.9437
1.2429 14.2034 -2.3488 0.9438
0.7305 14.2178 -2.3453 0.9439
-0.1335 6.4904 -1.0694 0.9740
12.8134 4.9553 -2.5822 0.9456
12.1795 6.2923 -2.5767 0.9457
11.9360 6.7207 -2.5747 0.9458
11.4031 7.5481 -2.5704 0.9459
10.8116 8.3326 -2.5657 0.9460
10.4950 8.7074 -2.5632 0.9460
10.1652 9.0700 -2.5607 0.9461
9.8226 9.4199 -2.5580 0.9461
9.4677 9.7567 -2.5554 0.9462
9.1011 10.0798 -2.5526 0.9462
7.1115 11.4788 -2.5381 0.9465
5.4593 11.3944 -2.3748 0.9499
5.0399 11.5689 -2.3719 0.9499
2.4404 7.8063 -1.5373 0.9673
2.8749 12.2180 -2.3592 0.9502
2.4311 12.2995 -2.3566 0.9503
1.9852 12.3649 -2.3539 0.9503
1.0892 12.4467 -2.3484 0.9504
0.0999 6.4909 -1.2202 0.9739
11.7788 3.1480 -2.5772 0.9514
11.3537 4.3908 -2.5732 0.9514
10.7946 5.5768 -2.5683 0.9515
10.5797 5.9571 -2.5665 0.9516
10.3512 6.3289 -2.5646 0.9516
9.5870 7.3887 -2.5585 0.9517
9.0157 8.0444 -2.5541 0.9518
8.7129 8.3557 -2.5518 0.9518
7.3969 9.4815 -2.5419 0.9520
6.6829 9.9679 -2.5367 0.9521
6.3137 10.1910 -2.5341 0.9522
5.5754 9.7669 -2.3772 0.9551
5.2151 9.9502 -2.3746 0.9551
4.8488 10.1202 -2.3721 0.9552
4.1001 10.4193 -2.3668 0.9553
2.4061 7.6966 -1.7046 0.9676
1.3670 11.0362 -2.3506 0.9556
0.9684 11.0660 -2.3481 0.9556
0.5693 11.0806 -2.3453 0.9557
-0.1335 6.4905 -1.3722 0.9738
10.5622 2.8228 -2.5695 0.9561
10.4493 3.1993 -2.5684 0.9561
9.6830 5.0026 -2.5615 0.9562
9.2867 5.6780 -2.5582 0.9563
8.8424 6.3216 -2.5546 0.9563
8.6031 6.6305 -2.5527 0.9564
7.8208 7.5002 -2.5467 0.9565
7.5399 7.7700 -2.5446 0.9565
6.9502 8.2773 -2.5402 0.9566
6.6422 8.5141 -2.5379 0.9566
6.0024 8.9528 -2.5332 0.9567
5.3259 8.5966 -2.3767 0.9593
3.6850 9.3644 -2.3651 0.9595
2.2967 9.7607 -2.3566 0.9596
1.9426 9.8280 -2.3545 0.9597
1.5866 9.8825 -2.3524 0.9597
0.5121 9.9659 -2.3453 0.9598
0.0999 6.4910 -1.5257 0.9737
-0.1335 6.4905 -1.5257 0.9737
9.3478 3.2338 -2.5610 0.9600
9.2213 3.5661 -2.5599 0.9600
9.0828 3.8934 -2.5586 0.9600
8.4124 5.1434 -2.5530 0.9601
8.2169 5.4391 -2.5514 0.9601
8.0109 5.7272 -2.5497 0.9601
7.0875 6.7970 -2.5426 0.9602
6.8334 7.0420 -2.5406 0.9603
6.3000 7.5029 -2.5366 0.9603
6.0213 7.7183 -2.5346 0.9604
5.7353 7.9232 -2.5325 0.9604
5.1108 7.6230 -2.3763 0.9628
4.8293 7.7951 -2.3742 0.9628
4.5421 7.9567 -2.3722 0.9629
4.2494 8.1077 -2.3701 0.9629
3.9517 8.2479 -2.3680 0.9629
3.6494 8.3771 -2.3659 0.9629
2.6387 7.4844 -2.0547 0.9677
2.3899 7.6448 -2.0739 0.9674
2.4028 8.7829 -2.3576 0.9631
2.0839 8.8563 -2.3557 0.9631
1.4399 8.9684 -2.3518 0.9632
0.7904 9.0323 -2.3476 0.9632
8.6363 2.6442 -2.5569 0.9631
8.5324 2.9518 -2.5559 0.9632
8.4173 3.2552 -2.5549 0.9632
8.2913 3.5541 -2.5537 0.9632
8.1543 3.8480 -2.5525 0.9632
7.6807 4.6961 -2.5486 0.9633
7.5027 4.9663 -2.5471 0.9633
6.6969 5.9754 -2.5408 0.9634
6.4734 6.2080 -2.5391 0.9634
5.7553 6.8542 -2.5337 0.9635
4.4130 7.1232 -2.3721 0.9658
4.1509 7.2714 -2.3703 0.9658
3.6119 7.5386 -2.3664 0.9658
3.3359 7.6573 -2.3645 0.9659
2.1968 8.0296 -2.3566 0.9660
1.9053 8.0973 -2.3549 0.9660
1.6118 8.1544 -2.3531 0.9660
1.0202 8.2362 -2.3494 0.9661
0.7229 8.2602 -2.3473 0.9661
0.0999 6.4911 -1.8378 0.9734
-0.3719 6.5740 -1.8640 0.9730
7.9351 2.4295 -2.5525 0.9659
7.8399 2.7122 -2.5516 0.9659
7.6188 3.2658 -2.5496 0.9659
7.4932 3.5360 -2.5485 0.9659
7.2131 4.0614 -2.5461 0.9660
6.8956 4.5645 -2.5435 0.9660
6.7235 4.8068 -2.5421 0.9660
6.5427 5.0425 -2.5407 0.9660
6.3535 5.2713 -2.5392 0.9660
5.7385 5.9136 -2.5345 0.9661
5.5187 6.1121 -2.5329 0.9661
5.2918 6.3023 -2.5312 0.9661
5.0584 6.4840 -2.5294 0.9662
3.5723 6.8158 -2.3669 0.9683
2.5509 7.2354 -2.3597 0.9684
2.0214 7.3885 -2.3561 0.9685
1.7531 7.4505 -2.3542 0.9685
1.4831 7.5035 -2.3526 0.9685
1.2116 7.5468 -2.3509 0.9685
0.9388 7.5794 -2.3491 0.9685
0.0999 6.4912 -1.9968 0.9732
7.4097 1.9803 -2.5495 0.9682
7.3315 2.2447 -2.5487 0.9682
7.1464 2.7637 -2.5469 0.9682
7.0398 3.0176 -2.5460 0.9682
6.7993 3.5127 -2.5439 0.9683
6.6657 3.7532 -2.5428 0.9683
6.5234 3.9885 -2.5416 0.9683
6.3728 4.2184 -2.5404 0.9683
5.5011 5.2756 -2.5336 0.9684
5.3048 5.4667 -2.5321 0.9684
5.1018 5.6505 -2.5306 0.9684
4.8924 5.8266 -2.5290 0.9684
4.6769 5.9949 -2.5274 0.9685
3.3037 6.3034 -2.3656 0.9704
3.0729 6.4136 -2.3640 0.9705
2.6005 6.6085 -2.3607 0.9705
2.3596 6.6930 -2.3590 0.9705
1.8700 6.8354 -2.3556 0.9706
1.6220 6.8932 -2.3539 0.9706
1.1210 6.9820 -2.3506 0.9706
0.8686 7.0127 -2.3489 0.9707
0.0999 6.4912 -2.1579 0.9730
6.8784 1.8383 -2.5461 0.9702
6.7246 2.3263 -2.5446 0.9702
6.0570 3.7033 -2.5388 0.9703
5.6153 4.3278 -2.5353 0.9703
5.4534 4.5246 -2.5340 0.9703
4.9268 5.0772 -2.5300 0.9704
4.7385 5.2481 -2.5286 0.9704
4.5443 5.4119 -2.5271 0.9704
4.3442 5.5685 -2.5256 0.9704
4.1388 5.7176 -2.5241 0.9705
3.4866 5.6279 -2.3675 0.9723
2.4165 6.1408 -2.3599 0.9724
2.1928 6.2196 -2.3584 0.9724
1.7380 6.3526 -2.3552 0.9724
1.5075 6.4067 -2.3536 0.9724
1.2754 6.4524 -2.3521 0.9724
0.5722 6.5390 -2.3473 0.9725
-0.1347 6.5495 -2.3426 0.9726
-0.3697 6.5361 -2.3411 0.9726
6.3438 1.9423 -2.5424 0.9720
6.2681 2.1684 -2.5417 0.9720
6.1843 2.3916 -2.5409 0.9720
6.0923 2.6115 -2.5401 0.9720
5.9924 2.8278 -2.5392 0.9720
5.8848 3.0403 -2.5383 0.9720
5.6467 3.4525 -2.5363 0.9720
4.9274 4.3965 -2.5307 0.9721
4.7638 4.5685 -2.5294 0.9721
4.5942 4.7344 -2.5281 0.9721
3.8600 5.3324 -2.5227 0.9722
3.6637 5.4646 -2.5212 0.9722
3.2721 5.2816 -2.3809 0.9737
3.0595 5.3595 -2.3649 0.9739
2.8632 5.4628 -2.3635 0.9739
2.6633 5.5588 -2.3621 0.9739
2.4604 5.6475 -2.3607 0.9740
2.2544 5.7288 -2.3593 0.9740
2.0457 5.8026 -2.3578 0.9740
1.8347 5.8687 -2.3563 0.9740
0.9723 6.0559 -2.3504 0.9741
0.3142 6.1139 -2.3460 0.9741
0.0941 6.1174 -2.3446 0.9741
5.8632 2.0283 -2.5392 0.9735
5.6990 2.4429 -2.5377 0.9736
5.6057 2.6453 -2.5369 0.9736
5.5051 2.8441 -2.5360 0.9736
4.8983 3.7752 -2.5311 0.9736
4.2989 4.4301 -2.5265 0.9737
3.9656 4.7228 -2.5240 0.9737
3.7914 4.8598 -2.5227 0.9737
3.2410 5.2314 -2.5187 0.9738
1.5181 5.5491 -2.3546 0.9754
1.3169 5.5968 -2.3532 0.9755
1.1142 5.6372 -2.3518 0.9755
0.9104 5.6703 -2.3504 0.9755
0.2942 5.7253 -2.3463 0.9755
0.0881 5.7288 -2.3449 0.9755
-0.1178 5.7249 -2.3436 0.9756
-0.3233 5.7137 -2.3422 0.9756
5.6264 1.5037 -2.5381 0.9749
5.5674 1.7046 -2.5375 0.9749
5.2599 2.4821 -2.5347 0.9749
5.0646 2.8517 -2.5331 0.9750
4.8432 3.2059 -2.5313 0.9750
4.5968 3.5428 -2.5293 0.9750
4.4647 3.7042 -2.5283 0.9750
4.3268 3.8607 -2.5272 0.9750
4.0348 4.1579 -2.5250 0.9750
3.0424 4.9108 -2.5177 0.9751
2.8625 5.0145 -2.5164 0.9751
1.9813 5.0350 -2.3581 0.9767
1.6128 5.1588 -2.3556 0.9767
1.0463 5.2936 -2.3517 0.9767
0.8549 5.3249 -2.3504 0.9767
0.6626 5.3492 -2.3491 0.9768
0.4696 5.3666 -2.3478 0.9768
-0.1106 5.3772 -2.3440 0.9768
-0.3036 5.3668 -2.3427 0.9768
5.2376 1.6036 -2.5355 0.9761
5.1063 1.9747 -2.5342 0.9762
4.9486 2.3352 -2.5328 0.9762
4.8599 2.5108 -2.5321 0.9762
4.6640 2.8516 -2.5304 0.9762
4.5569 3.0164 -2.5296 0.9762
4.0714 3.6328 -2.5257 0.9762
3.9366 3.7753 -2.5247 0.9762
3.5029 4.1717 -2.5215 0.9763
3.3491 4.2930 -2.5203 0.9763
3.1912 4.4085 -2.5192 0.9763
2.5216 4.8111 -2.5143 0.9763
2.3284 4.8596 -2.4943 0.9765
2.0960 4.8112 -2.4292 0.9771
1.6927 4.8012 -2.3565 0.9778
0.8049 5.0135 -2.3504 0.9779
0.2602 5.0631 -2.3467 0.9779
4.9910 1.3339 -2.5341 0.9772
4.9388 1.5121 -2.5336 0.9773
4.8801 1.6883 -2.5330 0.9773
4.8152 1.8621 -2.5324 0.9773
4.5831 2.3678 -2.5304 0.9773
3.9622 3.2873 -2.5254 0.9773
3.8400 3.4263 -2.5244 0.9773
3.7129 3.5608 -2.5234 0.9773
3.5812 3.6904 -2.5224 0.9773
3.3040 3.9349 -2.5204 0.9774
3.0102 4.1586 -2.5182 0.9774
2.7013 4.3602 -2.5160 0.9774
2.5417 4.4524 -2.5148 0.9774
2.3789 4.5388 -2.5137 0.9774
2.2132 4.6192 -2.5125 0.9774
1.6687 4.7332 -2.4618 0.9779
1.1090 4.7129 -2.3749 0.9787
0.7596 4.7309 -2.3504 0.9789
0.4173 4.7686 -2.3481 0.9789
0.2455 4.7782 -2.3469 0.9789
0.0736 4.7816 -2.3458 0.9789
-0.0983 4.7789 -2.3446 0.9789
-0.2699 4.7699 -2.3435 0.9789
4.6113 1.5953 -2.5313 0.9783
4.5500 1.7596 -2.5308 0.9783
4.4827 1.9215 -2.5302 0.9783
4.4096 2.0809 -2.5295 0.9783
4.3308 2.2374 -2.5288 0.9783
4.0612 2.6882 -2.5266 0.9783
3.9607 2.8316 -2.5258 0.9783
3.8551 2.9711 -2.5250 0.9783
3.1229 3.7192 -2.5194 0.9784
2.9860 3.8275 -2.5184 0.9784
2.4026 4.2088 -2.5141 0.9784
2.0922 4.3667 -2.5119 0.9784
1.9330 4.4371 -2.5108 0.9784
1.7715 4.5017 -2.5097 0.9784
1.2749 4.6598 -2.5062 0.9785
0.9275 4.6925 -2.4815 0.9787
0.7537 4.6945 -2.4666 0.9788
0.5817 4.6959 -2.4547 0.9789
0.2414 4.6971 -2.4400 0.9790
0.0723 4.6969 -2.4369 0.9791
-0.2656 4.6949 -2.4395 0.9790
4.4640 1.1931 -2.5308 0.9791
4.3071 1.6657 -2.5293 0.9792
4.2435 1.8190 -2.5287 0.9792
4.0200 2.2635 -2.5268 0.9792
3.8448 2.5450 -2.5253 0.9792
3.5452 2.9413 -2.5230 0.9792
2.9569 3.5215 -2.5185 0.9792
2.6942 3.7220 -2.5166 0.9793
2.2752 3.9855 -2.5135 0.9793
2.1295 4.0631 -2.5125 0.9793
1.6777 4.2633 -2.5093 0.9793
1.2074 4.4134 -2.5060 0.9793
0.3980 4.5481 -2.5005 0.9794
4.1882 1.2823 -2.5288 0.9800
4.1387 1.4317 -2.5284 0.9800
3.9579 1.8677 -2.5267 0.9800
3.8873 2.0083 -2.5261 0.9800
3.7311 2.2812 -2.5248 0.9800
3.6456 2.4132 -2.5241 0.9800
3.3617 2.7891 -2.5219 0.9800
3.1506 3.0214 -2.5203 0.9800
3.0389 3.1317 -2.5194 0.9800
2.9234 3.2378 -2.5185 0.9801
2.8041 3.3396 -2.5177 0.9801
2.4257 3.6180 -2.5149 0.9801
2.1578 3.7800 -2.5129 0.9801
1.8792 3.9222 -2.5110 0.9801
1.4444 4.0967 -2.5079 0.9801
1.2956 4.1443 -2.5069 0.9801
1.1454 4.1864 -2.5058 0.9802
0.8409 4.2543 -2.5038 0.9802
0.6872 4.2800 -2.5027 0.9802
0.5327 4.3002 -2.5017 0.9802
0.3776 4.3148 -2.5006 0.9802
0.2222 4.3237 -2.4996 0.9802
