ply
format ascii 1.0
element vertex 487
property float32 x
property float32 y
property float32 z
property float32 I
end_header
48.0843 3.3912 8.4996 0.8222
45.1375 6.4633 8.0401 0.8309
46.1211 8.3036 8.2631 0.8267
47.1771 10.2548 8.5129 0.8219
45.8757 15.2924 8.5267 0.8217
43.9716 18.2588 8.3952 0.8242
2.5164 7.7110 1.4302 0.9676
46.6756 4.9811 7.1910 0.8270
46.6957 6.6864 7.2265 0.8262
46.7372 10.1592 7.3271 0.8240
46.7587 11.9368 7.3929 0.8226
46.7807 13.7490 7.4697 0.8209
45.2522 15.0845 7.3074 0.8245
48.7165 3.4357 6.3597 0.8212
48.7369 5.2011 6.3826 0.8206
46.9071 8.4448 6.2065 0.8251
46.6455 13.7092 6.3311 0.8219
45.2555 15.0856 6.2120 0.8250
2.5149 7.7064 1.0556 0.9678
2.5142 7.7041 0.8702 0.9679
2.5136 7.7024 0.6859 0.9680
28.6257 35.7986 2.8423 0.8322
2.5133 7.7016 0.5024 0.9681
2.5125 7.6991 -0.0456 0.9681
37.8152 5.4148 -1.0757 0.8582
37.8223 6.8095 -1.0821 0.8575
37.8295 8.2229 -1.0901 0.8565
37.8368 9.6591 -1.0996 0.8553
37.8442 11.1225 -1.1107 0.8540
37.8595 14.1497 -1.1381 0.8507
37.8674 15.7240 -1.1545 0.8487
37.8755 17.3468 -1.1730 0.8465
37.8927 20.7648 -1.2167 0.8412
37.9212 26.4486 -1.3018 0.8311
37.9049 28.5132 -1.3356 0.8271
37.9426 30.7351 -1.3749 0.8225
37.7956 2.6655 -1.9215 0.8592
37.8166 6.8085 -1.9487 0.8574
37.8238 8.2217 -1.9630 0.8564
37.8310 9.6577 -1.9801 0.8552
37.8192 12.6068 -2.0217 0.8524
37.8535 14.1474 -2.0494 0.8506
37.8613 15.7215 -2.0791 0.8486
37.8778 19.0214 -2.1496 0.8439
37.8864 20.7613 -2.1910 0.8411
37.8953 22.5719 -2.2369 0.8381
37.9047 24.4625 -2.2879 0.8347
37.9354 30.7293 -2.4759 0.8224
33.8891 36.6460 -2.5313 0.8188
32.4140 37.6790 -2.5206 0.8195
8.4039 48.4303 -2.4928 0.8213
35.0367 2.4710 -2.5753 0.8686
34.8948 3.7239 -2.5731 0.8687
34.7038 4.9692 -2.5705 0.8688
34.1770 7.4290 -2.5645 0.8691
33.8424 8.6394 -2.5610 0.8693
33.4613 9.8343 -2.5572 0.8695
32.0474 13.3073 -2.5443 0.8701
28.9938 18.7117 -2.5302 0.8707
28.2060 22.8480 -2.6615 0.8645
27.2964 23.7839 -2.6546 0.8648
26.3544 24.6824 -2.6475 0.8652
25.3816 25.5425 -2.6403 0.8655
24.3798 26.3631 -2.6329 0.8659
23.3507 27.1435 -2.6253 0.8662
22.2960 27.8827 -2.6177 0.8666
21.2175 28.5801 -2.6099 0.8670
18.9963 29.8470 -2.5941 0.8677
16.7014 30.9398 -2.5780 0.8685
15.5308 31.4200 -2.5699 0.8689
14.3470 31.8558 -2.5617 0.8692
11.9473 32.5930 -2.5453 0.8700
2.5117 7.6966 -0.5936 0.9681
8.2929 33.3629 -2.5207 0.8712
5.8397 33.6533 -2.5044 0.8720
27.8628 1.9650 -2.6816 0.8938
27.6112 3.9536 -2.6778 0.8940
27.2083 5.9142 -2.6731 0.8941
26.9511 6.8802 -2.6704 0.8942
26.6574 7.8347 -2.6675 0.8944
24.6638 12.3856 -2.6496 0.8950
24.1653 13.2423 -2.6455 0.8952
23.6354 14.0781 -2.6411 0.8953
23.0753 14.8920 -2.6366 0.8955
22.4858 15.6829 -2.6319 0.8957
19.1357 19.2570 -2.6063 0.8966
17.6290 20.4925 -2.5952 0.8971
16.8448 21.0657 -2.5895 0.8973
16.0417 21.6082 -2.5837 0.8975
15.2208 22.1196 -2.5778 0.8977
14.3836 22.5994 -2.5718 0.8979
12.6650 23.4623 -2.5597 0.8984
11.7863 23.8446 -2.5536 0.8986
10.8963 24.1938 -2.5474 0.8989
2.5114 7.6957 -0.7772 0.9680
6.3227 25.4364 -2.5163 0.9000
22.1319 2.3619 -2.6439 0.9142
22.0197 3.1530 -2.6423 0.9143
21.7062 4.7182 -2.6386 0.9144
21.5054 5.4900 -2.6365 0.9145
21.2758 6.2530 -2.6342 0.9145
21.0177 7.0061 -2.6317 0.9146
20.0779 9.1956 -2.6232 0.9149
19.7113 9.8986 -2.6201 0.9150
19.3189 10.5865 -2.6168 0.9151
18.9016 11.2585 -2.6133 0.9152
18.4599 11.9134 -2.6098 0.9153
17.5067 13.1691 -2.6022 0.9155
15.9144 14.9047 -2.5900 0.9159
15.3435 15.4408 -2.5857 0.9161
13.5240 16.9127 -2.5723 0.9165
11.5635 18.1686 -2.5582 0.9169
10.8833 18.5370 -2.5534 0.9171
9.4886 19.1963 -2.5436 0.9174
8.7763 19.4866 -2.5387 0.9175
8.0552 19.7503 -2.5337 0.9177
2.5112 7.6949 -0.9615 0.9679
18.3863 1.9621 -2.6199 0.9280
18.1790 3.2729 -2.6172 0.9281
17.2395 6.4431 -2.6077 0.9283
16.7021 7.6494 -2.6029 0.9285
16.0773 8.8102 -2.5976 0.9286
15.7335 9.3714 -2.5947 0.9287
15.3693 9.9189 -2.5918 0.9288
14.9856 10.4518 -2.5887 0.9288
14.1617 11.4715 -2.5823 0.9290
12.7945 12.8755 -2.5719 0.9293
11.8038 13.7211 -2.5645 0.9295
11.2869 14.1151 -2.5607 0.9296
9.6595 15.1770 -2.5490 0.9299
9.0941 15.4895 -2.5450 0.9300
8.5186 15.7808 -2.5409 0.9301
7.9337 16.0505 -2.5368 0.9302
2.8424 16.3800 -2.3555 0.9350
15.6335 2.2386 -2.6017 0.9380
15.4172 3.3512 -2.5991 0.9380
15.2782 3.9003 -2.5976 0.9381
15.1189 4.4435 -2.5960 0.9381
14.7406 5.5092 -2.5924 0.9382
14.5223 6.0302 -2.5904 0.9382
13.7546 7.5373 -2.5838 0.9384
13.1531 8.4886 -2.5789 0.9385
12.1260 9.8226 -2.5708 0.9387
11.7524 10.2401 -2.5679 0.9388
10.1171 11.7604 -2.5556 0.9390
9.6475 12.0649 -2.5449 0.9393
9.2236 12.4242 -2.5491 0.9392
8.7601 12.7306 -2.5458 0.9393
8.2863 13.0195 -2.5424 0.9394
7.8031 13.2906 -2.5389 0.9394
7.3109 13.5436 -2.5355 0.9395
6.8105 13.7783 -2.5320 0.9396
6.3027 13.9943 -2.5284 0.9397
5.4356 13.3272 -2.3711 0.9433
13.7016 1.4622 -2.5900 0.9455
13.6352 1.9524 -2.5890 0.9455
13.3279 3.4024 -2.5855 0.9456
13.0348 4.3451 -2.5826 0.9456
12.4671 5.7099 -2.5774 0.9457
12.0070 6.5797 -2.5735 0.9458
11.7534 7.0008 -2.5714 0.9458
11.4847 7.4119 -2.5692 0.9459
10.9037 8.2020 -2.5646 0.9460
10.2672 8.9460 -2.5596 0.9461
8.8439 10.2804 -2.5489 0.9463
7.2483 11.3885 -2.5374 0.9465
6.8267 11.6276 -2.5344 0.9466
5.5974 11.3240 -2.3743 0.9499
4.3314 11.8164 -2.3655 0.9501
2.5103 7.6924 -1.5209 0.9676
3.4637 12.0665 -2.3596 0.9502
2.5852 12.2661 -2.3562 0.9503
2.1408 12.3372 -2.3536 0.9503
12.1365 1.2952 -2.5800 0.9513
11.9138 2.5897 -2.5771 0.9514
11.6864 3.4347 -2.5748 0.9514
11.3976 4.2598 -2.5720 0.9515
11.2307 4.6634 -2.5705 0.9515
11.0492 5.0605 -2.5689 0.9515
10.1822 6.5713 -2.5616 0.9517
9.9319 6.9271 -2.5596 0.9517
9.6690 7.2733 -2.5575 0.9517
9.3938 7.6093 -2.5554 0.9518
9.1066 7.9348 -2.5532 0.9518
7.8479 9.1226 -2.5437 0.9520
7.5080 9.3892 -2.5412 0.9520
7.1589 9.6431 -2.5387 0.9521
6.4353 10.1111 -2.5334 0.9522
6.0618 10.3247 -2.5308 0.9522
5.3352 9.8835 -2.3741 0.9551
3.0802 10.7302 -2.3598 0.9554
2.6903 10.8232 -2.3574 0.9554
2.2977 10.9020 -2.3551 0.9555
1.9030 10.9666 -2.3528 0.9555
10.9191 0.7701 -2.5726 0.9560
10.8297 1.5507 -2.5712 0.9560
10.7636 1.9379 -2.5704 0.9561
10.6831 2.3222 -2.5694 0.9561
10.5887 2.7031 -2.5684 0.9561
10.3581 3.4528 -2.5661 0.9561
9.9112 4.5392 -2.5620 0.9562
9.7360 4.8892 -2.5605 0.9562
9.5483 5.2324 -2.5589 0.9562
9.3482 5.5681 -2.5573 0.9563
8.4308 6.8293 -2.5499 0.9564
8.1738 7.1220 -2.5480 0.9564
7.9065 7.4049 -2.5459 0.9565
7.3426 7.9399 -2.5417 0.9565
7.0467 8.1913 -2.5395 0.9566
6.7422 8.4315 -2.5372 0.9566
6.4293 8.6603 -2.5350 0.9566
5.4286 8.5294 -2.3762 0.9593
5.1141 8.7106 -2.3739 0.9593
4.7935 8.8801 -2.3717 0.9594
4.4673 9.0377 -2.3694 0.9594
2.8265 7.7110 -1.9302 0.9668
2.4802 7.5999 -1.8789 0.9677
2.7687 9.6452 -2.3584 0.9596
1.7111 9.8606 -2.3521 0.9597
3.8681 0.2728 -1.0040 0.9841
9.8054 1.4040 -2.5647 0.9599
9.5881 2.4477 -2.5622 0.9599
9.4904 2.7892 -2.5612 0.9600
9.1231 3.7883 -2.5577 0.9600
8.9767 4.1113 -2.5564 0.9600
8.8186 4.4285 -2.5550 0.9600
8.6491 4.7396 -2.5536 0.9601
8.2768 5.3416 -2.5505 0.9601
8.0745 5.6316 -2.5489 0.9601
6.9146 6.9585 -2.5399 0.9603
6.6553 7.1967 -2.5380 0.9603
6.3876 7.4252 -2.5360 0.9603
6.1121 7.6436 -2.5340 0.9604
5.8290 7.8517 -2.5319 0.9604
4.6377 7.8993 -2.3717 0.9629
2.8044 7.6505 -2.1098 0.9669
8.8290 1.9191 -2.5578 0.9631
8.6626 2.5459 -2.5560 0.9632
8.4508 3.1584 -2.5540 0.9632
8.3284 3.4583 -2.5529 0.9632
8.1950 3.7533 -2.5517 0.9632
8.0511 4.0431 -2.5504 0.9632
7.7321 4.6055 -2.5478 0.9633
7.5575 4.8774 -2.5463 0.9633
7.3732 5.1426 -2.5449 0.9633
6.7649 5.8944 -2.5401 0.9634
6.3161 6.3561 -2.5367 0.9634
5.8355 6.7833 -2.5331 0.9635
4.2384 7.2190 -2.3698 0.9658
3.7035 7.4926 -2.3661 0.9659
3.4294 7.6145 -2.3641 0.9659
2.7799 7.5839 -2.2866 0.9670
2.4635 7.5487 -2.2479 0.9675
1.7141 8.1326 -2.3529 0.9660
1.4199 8.1828 -2.3511 0.9661
3.3494 0.2362 -1.0328 0.9860
8.1721 1.4713 -2.5540 0.9658
8.1118 1.7632 -2.5533 0.9659
7.8675 2.6226 -2.5508 0.9659
7.7653 2.9022 -2.5498 0.9659
7.3988 3.7155 -2.5466 0.9659
7.2573 3.9769 -2.5454 0.9660
7.1063 4.2328 -2.5441 0.9660
6.9462 4.4828 -2.5428 0.9660
6.7771 4.7268 -2.5414 0.9660
6.4133 5.1950 -2.5386 0.9660
6.0168 5.6350 -2.5355 0.9661
5.8069 5.8437 -2.5339 0.9661
5.5898 6.0445 -2.5323 0.9661
5.3657 6.2372 -2.5306 0.9662
4.8977 6.5972 -2.5272 0.9662
4.3710 6.3521 -2.3716 0.9682
3.6548 6.7706 -2.3665 0.9683
3.4069 6.8923 -2.3648 0.9683
3.1549 7.0050 -2.3630 0.9684
2.3780 7.2870 -2.3577 0.9684
1.3067 7.5302 -2.3507 0.9685
3.2132 0.3429 -1.0741 0.9865
7.5501 1.3593 -2.5501 0.9682
7.4946 1.6291 -2.5494 0.9682
7.2693 2.4232 -2.5471 0.9682
7.0717 2.9364 -2.5453 0.9682
5.9279 4.8018 -2.5358 0.9684
5.5618 5.2090 -2.5330 0.9684
5.1677 5.5881 -2.5300 0.9684
4.9607 5.7665 -2.5285 0.9684
4.5285 6.0999 -2.5253 0.9685
4.0417 5.8736 -2.3700 0.9704
3.6051 6.1403 -2.3669 0.9704
2.9180 6.4791 -2.3620 0.9705
2.6817 6.5751 -2.3604 0.9705
1.9551 6.8109 -2.3554 0.9706
1.7081 6.8718 -2.3537 0.9706
1.2089 6.9668 -2.3504 0.9706
3.0669 0.3273 -1.1030 0.9870
7.0087 1.2618 -2.5466 0.9702
6.8966 1.7606 -2.5454 0.9702
6.7486 2.2496 -2.5439 0.9702
6.5654 2.7262 -2.5422 0.9703
6.4609 2.9591 -2.5413 0.9703
5.9609 3.8470 -2.5371 0.9703
5.8163 4.0567 -2.5359 0.9703
5.6642 4.2608 -2.5347 0.9703
5.5049 4.4592 -2.5334 0.9704
4.9858 5.0173 -2.5295 0.9704
4.6078 5.3562 -2.5266 0.9704
4.2067 5.6664 -2.5237 0.9705
3.9480 5.7374 -2.4906 0.9708
3.5541 5.5843 -2.3671 0.9723
2.9277 5.9229 -2.3627 0.9723
2.2695 6.1913 -2.3581 0.9724
1.8170 6.3299 -2.3550 0.9724
1.3563 6.4354 -2.3519 0.9724
2.9237 0.2062 -1.1232 0.9875
2.9349 0.3132 -1.1311 0.9874
2.9737 0.4258 -1.1512 0.9872
6.4847 1.4096 -2.5431 0.9720
6.3636 1.8703 -2.5418 0.9720
6.0229 2.7584 -2.5386 0.9720
5.8051 3.1811 -2.5368 0.9720
5.6850 3.3862 -2.5358 0.9721
5.5574 3.5866 -2.5347 0.9721
5.2811 3.9726 -2.5325 0.9721
5.1328 4.1577 -2.5313 0.9721
4.9778 4.3373 -2.5301 0.9721
4.8166 4.5110 -2.5289 0.9721
4.6492 4.6786 -2.5276 0.9721
4.4759 4.8400 -2.5263 0.9722
4.2970 4.9950 -2.5250 0.9722
4.1127 5.1432 -2.5236 0.9722
2.9293 5.4267 -2.3632 0.9739
2.7310 5.5251 -2.3618 0.9739
2.3247 5.6999 -2.3590 0.9740
1.9075 5.8449 -2.3561 0.9740
1.6954 5.9060 -2.3547 0.9740
1.4813 5.9594 -2.3532 0.9740
1.2656 6.0050 -2.3518 0.9741
2.8117 0.1983 -1.1536 0.9879
5.9525 1.7494 -2.5392 0.9735
5.8843 1.9615 -2.5386 0.9735
5.7251 2.3773 -2.5371 0.9736
5.6342 2.5804 -2.5363 0.9736
5.1993 3.3555 -2.5326 0.9736
5.0735 3.5386 -2.5316 0.9736
4.8025 3.8902 -2.5295 0.9736
4.6576 4.0583 -2.5283 0.9737
4.5069 4.2209 -2.5272 0.9737
4.3504 4.3780 -2.5260 0.9737
4.1884 4.5291 -2.5248 0.9737
3.4899 5.0717 -2.5197 0.9737
3.0150 5.1354 -2.4372 0.9746
2.3677 5.2571 -2.3598 0.9754
2.1762 5.3357 -2.3584 0.9754
1.9821 5.4073 -2.3571 0.9754
1.7857 5.4719 -2.3557 0.9754
1.3869 5.5795 -2.3530 0.9755
1.1850 5.6224 -2.3517 0.9755
2.7236 0.1921 -1.1899 0.9882
2.7264 0.2910 -1.1949 0.9881
2.7368 0.3919 -1.2049 0.9880
2.7571 0.4964 -1.2209 0.9879
5.6909 1.2370 -2.5381 0.9749
5.5211 1.8404 -2.5363 0.9749
5.3719 2.2306 -2.5349 0.9749
5.2867 2.4213 -2.5342 0.9749
5.1947 2.6087 -2.5334 0.9750
5.0961 2.7926 -2.5326 0.9750
4.8791 3.1488 -2.5308 0.9750
4.2298 3.9615 -2.5257 0.9750
3.9312 4.2510 -2.5234 0.9751
3.6126 4.5179 -2.5211 0.9751
3.2760 4.7608 -2.5186 0.9751
3.1014 4.8729 -2.5173 0.9751
2.9230 4.9786 -2.5161 0.9751
2.6923 4.9876 -2.4701 0.9756
2.4271 4.9104 -2.3872 0.9764
1.8611 5.0771 -2.3567 0.9767
1.6767 5.1379 -2.3554 0.9767
1.4904 5.1920 -2.3541 0.9767
5.3537 1.1637 -2.5360 0.9761
5.3074 1.3549 -2.5355 0.9761
5.1273 1.9163 -2.5337 0.9762
5.0539 2.0986 -2.5330 0.9762
4.7947 2.6274 -2.5308 0.9762
4.6957 2.7969 -2.5299 0.9762
4.5907 2.9627 -2.5291 0.9762
4.3632 3.2821 -2.5273 0.9762
3.9803 3.7278 -2.5243 0.9762
3.8424 3.8667 -2.5232 0.9763
3.6995 4.0004 -2.5222 0.9763
3.3999 4.2518 -2.5200 0.9763
3.0832 4.4807 -2.5176 0.9763
2.9190 4.5864 -2.5165 0.9763
2.7512 4.6860 -2.5153 0.9763
2.4055 4.8666 -2.5128 0.9764
2.1740 4.8272 -2.4506 0.9769
1.9534 4.7895 -2.3943 0.9775
1.5785 4.8368 -2.3551 0.9778
1.4031 4.8878 -2.3539 0.9778
1.2261 4.9325 -2.3527 0.9778
1.0477 4.9708 -2.3515 0.9779
0.8681 5.0027 -2.3503 0.9779
2.6040 0.1836 -1.2805 0.9884
2.6053 0.2780 -1.2852 0.9884
2.9413 0.6393 -1.4765 0.9867
4.8350 1.8070 -2.5319 0.9773
4.7658 1.9790 -2.5313 0.9773
4.4284 2.6377 -2.5284 0.9773
4.2250 2.9467 -2.5267 0.9773
3.7542 3.5160 -2.5230 0.9773
3.4895 3.7733 -2.5210 0.9774
3.3504 3.8946 -2.5200 0.9774
3.2071 4.0107 -2.5190 0.9774
2.5954 4.4207 -2.5145 0.9774
2.4339 4.5089 -2.5134 0.9774
2.2694 4.5913 -2.5122 0.9774
2.1022 4.6676 -2.5111 0.9775
1.9324 4.7378 -2.5099 0.9775
0.9940 4.7161 -2.3642 0.9788
2.5813 0.1821 -1.3425 0.9884
2.5795 0.3694 -1.3519 0.9883
2.6352 0.5728 -1.3990 0.9879
4.6815 1.3759 -2.5314 0.9783
4.5687 1.7075 -2.5303 0.9783
4.5034 1.8700 -2.5297 0.9783
4.4323 2.0299 -2.5290 0.9783
4.1848 2.4926 -2.5269 0.9783
3.9927 2.7848 -2.5254 0.9783
3.8889 2.9253 -2.5246 0.9783
3.7801 3.0620 -2.5237 0.9783
3.6664 3.1947 -2.5228 0.9783
3.4253 3.4470 -2.5210 0.9783
3.0313 3.7909 -2.5180 0.9784
2.8921 3.8957 -2.5170 0.9784
2.3008 4.2623 -2.5128 0.9784
2.1454 4.3403 -2.5117 0.9784
1.8268 4.4791 -2.5095 0.9784
1.6641 4.5397 -2.5084 0.9784
1.4994 4.5945 -2.5072 0.9785
1.3328 4.6432 -2.5061 0.9785
1.1648 4.6859 -2.5049 0.9785
0.9888 4.6913 -2.4872 0.9786
0.8144 4.6935 -2.4713 0.9788
2.5587 0.1805 -1.4049 0.9884
4.4763 1.1427 -2.5303 0.9792
4.3249 1.6164 -2.5288 0.9792
4.2631 1.7702 -2.5282 0.9792
4.1959 1.9217 -2.5276 0.9792
4.0450 2.2166 -2.5263 0.9792
3.9618 2.3598 -2.5256 0.9792
3.8734 2.4998 -2.5249 0.9792
3.7800 2.6364 -2.5242 0.9792
3.6818 2.7696 -2.5234 0.9792
3.4713 3.0246 -2.5217 0.9792
3.3594 3.1462 -2.5209 0.9792
3.2431 3.2637 -2.5200 0.9792
2.9984 3.4854 -2.5182 0.9792
2.6033 3.7832 -2.5153 0.9793
2.3233 3.9571 -2.5133 0.9793
2.1788 4.0363 -2.5122 0.9793
2.0317 4.1103 -2.5112 0.9793
1.4201 4.3514 -2.5070 0.9793
1.2624 4.3977 -2.5059 0.9793
1.1032 4.4382 -2.5048 0.9794
0.9428 4.4731 -2.5037 0.9794
2.5370 0.2707 -1.4730 0.9883
2.5346 0.3629 -1.4783 0.9882
2.5339 0.4562 -1.4865 0.9882
4.2016 1.2349 -2.5284 0.9800
4.1538 1.3846 -2.5279 0.9800
4.1006 1.5326 -2.5274 0.9800
3.9783 1.8220 -2.5263 0.9800
3.9094 1.9632 -2.5257 0.9800
3.8355 2.1018 -2.5251 0.9800
3.7566 2.2375 -2.5244 0.9800
3.6728 2.3703 -2.5237 0.9800
3.5843 2.4999 -2.5230 0.9800
3.4912 2.6262 -2.5223 0.9800
3.3937 2.7490 -2.5215 0.9800
3.0755 3.0950 -2.5191 0.9800
2.9614 3.2023 -2.5182 0.9801
2.5971 3.4984 -2.5155 0.9801
2.4690 3.5880 -2.5146 0.9801
2.2035 3.7531 -2.5127 0.9801
1.7851 3.9636 -2.5098 0.9801
1.0465 4.2101 -2.5047 0.9802
0.7411 4.2709 -2.5026 0.9802
