ply
format ascii 1.0
element vertex 492
property float32 x
property float32 y
property float32 z
property float32 I
end_header
-38.5687 -7.8096 6.9387 0.8523
-22.4480 -7.1051 4.1517 0.9088
-22.2079 -7.9088 4.1568 0.9087
-21.5687 -8.5575 4.0915 0.9101
-27.6465 -21.5624 6.1822 0.8673
-19.2618 -21.5024 5.0902 0.8894
-6.0254 -7.2281 1.6593 0.9625
-38.3835 -9.2049 6.0469 0.8524
-20.8767 -9.1555 3.4922 0.9119
-34.7619 -21.5829 6.2683 0.8474
-32.1231 -21.5649 5.9271 0.8551
-29.7792 -21.5668 5.6327 0.8617
-27.6444 -21.5607 5.3707 0.8677
-25.6709 -21.5333 5.1330 0.8732
-5.9954 -7.1920 1.4344 0.9628
-5.8198 -7.5093 1.4554 0.9623
-38.9773 -7.8923 5.1787 0.8518
-21.8994 -6.9315 2.9912 0.9115
-20.6772 -8.2038 2.8968 0.9142
-41.0214 -21.5893 6.0365 0.8295
-34.7593 -21.5813 5.3279 0.8479
-32.1225 -21.5644 5.0382 0.8555
-29.7767 -21.5650 4.7876 0.8622
-27.6422 -21.5590 4.5649 0.8681
-25.6708 -21.5332 4.3632 0.8736
-20.6928 -21.5084 3.8866 0.8866
-19.2625 -21.5032 3.7594 0.8901
-5.7907 -7.4717 1.2310 0.9626
-38.8419 -7.8649 4.2555 0.8526
-21.6701 -6.8589 2.4408 0.9126
-21.8200 -7.7707 2.4872 0.9110
-21.1472 -8.3903 2.4430 0.9125
-37.7041 -21.5902 4.6655 0.8396
-34.7567 -21.5797 4.3931 0.8482
-27.6400 -21.5573 3.7640 0.8685
-25.6708 -21.5332 3.5980 0.8739
-5.9367 -7.1217 0.9956 0.9634
-38.8505 -6.4372 3.3336 0.8538
-20.5197 -8.1413 1.8688 0.9152
-20.4403 -8.9641 1.8894 0.9143
-34.7542 -21.5781 3.4630 0.8486
-32.1211 -21.5635 3.2750 0.8562
-29.7718 -21.5615 3.1118 0.8628
-20.6936 -21.5093 2.5267 0.8871
-19.2632 -21.5040 2.4440 0.8906
-5.9081 -7.0873 0.7811 0.9636
-39.3154 -6.5142 2.4712 0.8524
-37.5862 -9.0136 2.3968 0.8565
-20.8135 -7.4122 1.3701 0.9153
-21.0020 -8.3327 1.4011 0.9134
-20.3126 -8.9081 1.3754 0.9149
-41.0263 -21.5919 2.8749 0.8304
-37.7011 -21.5885 2.6940 0.8402
-34.7516 -21.5765 2.5365 0.8488
-29.7694 -21.5597 2.2793 0.8630
-27.6357 -21.5540 2.1733 0.8690
-25.6707 -21.5331 2.0777 0.8743
-22.2290 -21.5176 1.9184 0.8834
-20.6940 -21.5097 1.8509 0.8873
-19.2636 -21.5044 1.7903 0.8907
-5.6460 -7.2851 0.5715 0.9637
-41.0279 -21.5927 1.8281 0.8306
-37.6996 -21.5876 1.7130 0.8404
-34.7491 -21.5750 1.6128 0.8490
-32.1197 -21.5626 1.5254 0.8565
-29.7670 -21.5580 1.4492 0.8632
-27.6336 -21.5523 1.3818 0.8691
-25.6707 -21.5331 1.3212 0.8745
-22.2292 -21.5178 1.2199 0.8835
-20.6944 -21.5101 1.1770 0.8874
-19.2640 -21.5049 1.1384 0.8909
-47.1998 -7.8206 0.8082 0.8258
-38.7981 -7.8560 0.6687 0.8535
-37.6980 -21.5867 0.7338 0.8405
-32.1191 -21.5621 0.6535 0.8566
-20.6948 -21.5106 0.5042 0.8874
-19.2643 -21.5053 0.4877 0.8909
-17.9213 -21.4983 0.4728 0.8941
-16.6559 -21.4911 0.4593 0.8969
-41.2895 6.4967 -0.2353 0.8460
-21.6476 -8.5888 -0.1311 0.9110
-44.8763 -21.6156 -0.2804 0.8193
-41.0311 -21.5944 -0.2610 0.8307
-37.6965 -21.5858 -0.2446 0.8405
-34.7441 -21.5718 -0.2303 0.8491
-32.1184 -21.5617 -0.2178 0.8566
-29.7622 -21.5545 -0.2069 0.8633
-27.6293 -21.5490 -0.1973 0.8692
-23.8807 -21.5246 -0.1810 0.8793
-22.2297 -21.5183 -0.1742 0.8836
-20.6952 -21.5110 -0.1681 0.8875
-19.2647 -21.5057 -0.1626 0.8909
-17.9216 -21.4987 -0.1576 0.8941
-47.2083 -7.8220 -1.3474 0.8257
-38.7885 -7.8541 -1.1144 0.8535
-41.0327 -21.5952 -1.3056 0.8306
-37.6950 -21.5850 -1.2231 0.8404
-27.6271 -21.5473 -0.9866 0.8692
-25.6706 -21.5330 -0.9435 0.8745
-23.8810 -21.5249 -0.9053 0.8793
-22.2300 -21.5186 -0.8712 0.8836
-20.6956 -21.5114 -0.8405 0.8874
-19.2651 -21.5061 -0.8130 0.8909
-17.9220 -21.4992 -0.7881 0.8940
-40.8188 4.9418 -2.0852 0.8482
-43.6279 3.7127 -2.2206 0.8391
-43.8188 -0.9580 -2.2228 0.8390
-43.7838 -2.5179 -2.2241 0.8389
-40.7407 -6.7504 -2.0943 0.8476
-38.7027 -7.8367 -2.0026 0.8537
-42.5375 -11.8162 -2.2389 0.8379
-42.1569 -13.3433 -2.2425 0.8377
-41.2486 -16.3657 -2.2505 0.8372
-27.6250 -21.5456 -1.7767 0.8691
-25.6706 -21.5330 -1.6992 0.8744
-22.2303 -21.5188 -1.5691 0.8835
-20.6961 -21.5118 -1.5139 0.8873
-16.6570 -21.4924 -1.3790 0.8968
-31.1456 3.7707 -2.3003 0.8818
-31.2611 2.6603 -2.3004 0.8818
-31.3402 1.5467 -2.3007 0.8817
-31.1878 -4.0334 -2.3058 0.8815
-31.0477 -5.1443 -2.3075 0.8814
-28.7906 -6.9044 -2.1708 0.8880
-28.2881 -8.9536 -2.1756 0.8878
-21.7926 -7.7609 -1.6962 0.9114
-28.6220 -13.7863 -2.3294 0.8804
-28.1584 -14.8196 -2.3331 0.8802
-27.6599 -15.8387 -2.3370 0.8800
-23.6011 -19.7971 -2.2587 0.8838
-22.4992 -20.2795 -2.2209 0.8856
-21.8126 -21.1146 -2.2259 0.8854
-20.6965 -21.5123 -2.1888 0.8872
-19.2658 -21.5069 -2.1171 0.8906
-24.2494 2.9358 -2.3451 0.9065
-24.4319 0.3354 -2.3458 0.9065
-24.4087 -1.4037 -2.3472 0.9064
-24.2694 -3.1387 -2.3494 0.9063
-21.9901 -6.9602 -2.2144 0.9115
-21.1885 -9.2922 -2.2212 0.9112
-22.2224 -10.7039 -2.3681 0.9056
-21.0377 -13.0619 -2.3774 0.9053
-20.1148 -14.5677 -2.3844 0.9050
-19.6144 -15.2980 -2.3881 0.9049
-19.0888 -16.0122 -2.3920 0.9047
-18.5383 -16.7093 -2.3960 0.9046
-17.9633 -17.3885 -2.4002 0.9044
-17.3645 -18.0490 -2.4045 0.9043
-16.0973 -19.3103 -2.4136 0.9039
-15.3091 -19.7534 -2.3993 0.9045
-19.7407 3.1061 -2.3738 0.9227
-19.9111 1.6944 -2.3737 0.9227
-19.9606 0.9851 -2.3739 0.9227
-19.9860 0.2743 -2.3743 0.9226
-19.9648 -1.1481 -2.3755 0.9226
-19.9182 -1.8583 -2.3763 0.9226
-19.7530 -3.2729 -2.3784 0.9225
-19.6346 -3.9757 -2.3797 0.9225
-19.3264 -5.3686 -2.3827 0.9224
-18.4306 -5.8335 -2.2963 0.9251
-17.3067 -7.5899 -2.2448 0.9267
-17.1675 -10.6589 -2.4003 0.9218
-16.4054 -11.8812 -2.4061 0.9216
-15.9927 -12.4733 -2.4092 0.9216
-15.5595 -13.0517 -2.4124 0.9215
-15.1060 -13.6157 -2.4157 0.9213
-14.6328 -14.1645 -2.4191 0.9212
-13.6289 -15.2143 -2.4263 0.9210
-13.0992 -15.7138 -2.4301 0.9209
-16.6883 2.6258 -2.3936 0.9340
-16.7705 2.0304 -2.3936 0.9340
-16.8951 0.2319 -2.3941 0.9340
-16.6937 -2.7660 -2.3976 0.9339
-16.5923 -3.3597 -2.3987 0.9339
-16.3287 -4.5359 -2.4012 0.9338
-16.1669 -5.1170 -2.4027 0.9338
-15.9850 -5.6927 -2.4043 0.9337
-14.8226 -5.8809 -2.2594 0.9376
-14.3891 -6.9308 -2.2630 0.9375
-14.1455 -7.4447 -2.2649 0.9375
-13.8842 -7.9504 -2.2670 0.9374
-13.6054 -8.4474 -2.2691 0.9374
-13.3096 -8.9349 -2.2714 0.9373
-13.4887 -10.5203 -2.4238 0.9332
-12.7354 -11.4790 -2.4293 0.9331
-11.9159 -12.3856 -2.4352 0.9329
-11.4822 -12.8179 -2.4383 0.9328
-11.0334 -13.2355 -2.4415 0.9328
-14.4411 2.2722 -2.4083 0.9425
-14.5123 1.7570 -2.4082 0.9425
-14.5658 1.2396 -2.4082 0.9425
-14.6022 -0.8397 -2.4095 0.9424
-14.5668 -1.3591 -2.4101 0.9424
-14.5135 -1.8770 -2.4109 0.9424
-14.2476 -3.4168 -2.4137 0.9423
-13.8243 -4.9232 -2.4175 0.9422
-12.4402 -5.9921 -2.2747 0.9456
-12.2282 -6.4357 -2.2764 0.9455
-12.0008 -6.8720 -2.2782 0.9455
-11.7584 -7.3006 -2.2801 0.9454
-11.5011 -7.7209 -2.2820 0.9454
-10.6426 -8.9273 -2.2884 0.9452
-10.9984 -9.9133 -2.4393 0.9417
-9.9111 -11.0641 -2.4471 0.9416
-9.1200 -11.7676 -2.4526 0.9414
-12.7160 2.0008 -2.4195 0.9490
-12.8729 0.1767 -2.4199 0.9490
-12.8729 -0.2814 -2.4202 0.9489
-12.8571 -0.7394 -2.4206 0.9489
-12.8255 -1.1966 -2.4212 0.9489
-12.7151 -2.1068 -2.4225 0.9489
-12.6365 -2.5587 -2.4234 0.9489
-12.5423 -3.0078 -2.4243 0.9489
-12.4326 -3.4536 -2.4253 0.9488
-12.3076 -3.8955 -2.4265 0.9488
-12.1673 -4.3331 -2.4277 0.9488
-12.0119 -4.7658 -2.4290 0.9488
-11.8416 -5.1931 -2.4304 0.9487
-11.0373 -5.8089 -2.3444 0.9505
-10.3437 -6.4222 -2.2885 0.9517
-10.1163 -6.7913 -2.2902 0.9516
-9.8760 -7.1525 -2.2920 0.9516
-9.3580 -7.8497 -2.2958 0.9515
-9.0808 -8.1849 -2.2978 0.9515
-8.7918 -8.5105 -2.2999 0.9514
-8.4914 -8.8262 -2.3021 0.9514
-8.3672 -10.0373 -2.4562 0.9482
-8.0129 -10.3391 -2.4587 0.9482
-11.3488 1.7857 -2.4284 0.9541
-11.4048 1.3807 -2.4284 0.9541
-11.4748 0.5663 -2.4285 0.9541
-11.4887 0.1577 -2.4287 0.9541
-11.4885 -0.2512 -2.4290 0.9541
-11.4741 -0.6598 -2.4294 0.9541
-11.4031 -1.4747 -2.4305 0.9541
-11.3465 -1.8800 -2.4311 0.9541
-11.0930 -3.0815 -2.4336 0.9540
-10.9808 -3.4756 -2.4346 0.9540
-10.7159 -4.2516 -2.4369 0.9540
-10.3975 -5.0082 -2.4395 0.9539
-10.0269 -5.7417 -2.4424 0.9539
-9.3544 -5.8080 -2.3275 0.9560
-8.8059 -6.3775 -2.2983 0.9565
-8.5796 -6.6916 -2.3000 0.9565
-8.3425 -6.9979 -2.3017 0.9565
-8.0946 -7.2960 -2.3035 0.9564
-7.2893 -8.1373 -2.3093 0.9563
-7.0013 -8.3988 -2.3113 0.9563
-6.7041 -8.6504 -2.3134 0.9562
-10.3260 0.8787 -2.4356 0.9583
-10.3502 -0.5952 -2.4366 0.9583
-10.2856 -1.3302 -2.4375 0.9583
-10.2343 -1.6957 -2.4381 0.9583
-10.1703 -2.0593 -2.4388 0.9583
-10.0046 -2.7791 -2.4404 0.9582
-9.7893 -3.4862 -2.4423 0.9582
-9.6632 -3.8340 -2.4433 0.9582
-9.5252 -4.1773 -2.4445 0.9582
-9.2134 -4.8490 -2.4469 0.9581
-9.0400 -5.1765 -2.4483 0.9581
-8.0158 -5.8053 -2.3261 0.9601
-6.8188 -7.0876 -2.3115 0.9604
-6.5674 -7.3314 -2.3133 0.9604
-9.4303 0.1294 -2.4419 0.9618
-9.3941 -0.8765 -2.4429 0.9618
-9.2534 -1.8737 -2.4445 0.9617
-9.1021 -2.5284 -2.4460 0.9617
-9.0095 -2.8516 -2.4468 0.9617
-8.6646 -3.7999 -2.4497 0.9617
-8.3802 -4.4105 -2.4520 0.9616
-8.2221 -4.7082 -2.4532 0.9616
-7.4180 -5.7856 -2.4357 0.9619
-6.9156 -5.8009 -2.3371 0.9634
-6.6324 -5.9781 -2.3119 0.9638
-5.4889 -7.0824 -2.3200 0.9637
-8.5378 1.3434 -2.4467 0.9647
-8.5799 1.0388 -2.4467 0.9647
-8.6116 0.7329 -2.4467 0.9647
-8.6428 0.1186 -2.4469 0.9647
-8.6423 -0.1889 -2.4472 0.9647
-8.6094 -0.8032 -2.4478 0.9647
-8.5768 -1.1092 -2.4483 0.9647
-8.5337 -1.4140 -2.4488 0.9647
-8.4156 -2.0182 -2.4500 0.9647
-8.3409 -2.3170 -2.4507 0.9647
-8.2557 -2.6131 -2.4514 0.9646
-8.0547 -3.1958 -2.4531 0.9646
-7.8133 -3.7634 -2.4551 0.9646
-7.6778 -4.0408 -2.4562 0.9646
-7.5326 -4.3134 -2.4573 0.9646
-7.3779 -4.5808 -2.4585 0.9645
-6.8587 -5.3493 -2.4624 0.9645
-6.6678 -5.5931 -2.4638 0.9645
-6.4147 -5.7818 -2.4447 0.9647
-5.9868 -5.7952 -2.3588 0.9660
-5.4667 -6.1027 -2.3194 0.9665
-5.2496 -6.2975 -2.3210 0.9665
-7.9109 0.9578 -2.4510 0.9672
-7.9400 0.6757 -2.4510 0.9672
-7.9594 0.3928 -2.4511 0.9672
-7.9683 -0.1742 -2.4515 0.9672
-7.9377 -0.7406 -2.4521 0.9672
-7.9077 -1.0227 -2.4525 0.9672
-7.8677 -1.3036 -2.4530 0.9672
-7.8180 -1.5830 -2.4535 0.9672
-7.6895 -2.1360 -2.4547 0.9672
-7.6108 -2.4089 -2.4554 0.9671
-7.5227 -2.6790 -2.4562 0.9671
-7.4250 -2.9460 -2.4570 0.9671
-7.3181 -3.2094 -2.4579 0.9671
-7.2021 -3.4690 -2.4588 0.9671
-7.0770 -3.7246 -2.4598 0.9671
-6.9429 -3.9757 -2.4608 0.9671
-6.8001 -4.2221 -2.4619 0.9671
-6.1445 -5.1542 -2.4668 0.9670
-5.9605 -5.3725 -2.4681 0.9670
-5.1850 -5.7882 -2.3902 0.9680
-4.8367 -5.8018 -2.3232 0.9689
-4.6298 -5.9739 -2.3247 0.9689
-7.3313 0.8876 -2.4548 0.9694
-7.3761 0.3640 -2.4549 0.9693
-7.3844 -0.1614 -2.4552 0.9693
-7.3279 -0.9477 -2.4561 0.9693
-7.1253 -1.9793 -2.4582 0.9693
-7.0522 -2.2322 -2.4588 0.9693
-6.8798 -2.7296 -2.4603 0.9693
-6.7806 -2.9736 -2.4611 0.9693
-6.5567 -3.4508 -2.4629 0.9693
-6.4323 -3.6833 -2.4639 0.9692
-6.2998 -3.9114 -2.4649 0.9692
-6.1593 -4.1349 -2.4660 0.9692
-5.6916 -4.7743 -2.4694 0.9692
-5.5209 -4.9763 -2.4707 0.9692
-5.1586 -5.3619 -2.4733 0.9691
-4.7695 -5.7215 -2.4760 0.9691
-6.7901 1.0684 -2.4581 0.9712
-6.8489 0.5828 -2.4581 0.9712
-6.8465 -0.6388 -2.4590 0.9712
-6.8204 -0.8821 -2.4593 0.9712
-6.7427 -1.3653 -2.4602 0.9712
-6.6912 -1.6047 -2.4607 0.9712
-6.6314 -1.8421 -2.4613 0.9712
-6.5633 -2.0774 -2.4619 0.9712
-6.4870 -2.3102 -2.4625 0.9712
-6.3100 -2.7673 -2.4640 0.9712
-6.2096 -2.9910 -2.4648 0.9711
-6.1014 -3.2111 -2.4656 0.9711
-5.9855 -3.4274 -2.4665 0.9711
-5.8620 -3.6396 -2.4675 0.9711
-4.7989 -4.9881 -2.4753 0.9710
-4.6208 -5.1583 -2.4765 0.9710
-6.3438 0.9982 -2.4610 0.9729
-6.3987 0.5445 -2.4610 0.9729
-6.4142 0.3165 -2.4611 0.9729
-6.3963 -0.5968 -2.4618 0.9729
-6.3718 -0.8241 -2.4622 0.9729
-6.3395 -1.0504 -2.4625 0.9728
-6.2992 -1.2755 -2.4630 0.9728
-6.0598 -2.1581 -2.4651 0.9728
-5.8004 -2.7939 -2.4673 0.9728
-5.6992 -2.9995 -2.4681 0.9728
-5.5908 -3.2014 -2.4689 0.9728
-5.4753 -3.3995 -2.4698 0.9728
-4.9455 -4.1485 -2.4737 0.9727
-4.6421 -4.4936 -2.4759 0.9727
-4.3149 -4.8169 -2.4783 0.9727
-3.9654 -5.1166 -2.4807 0.9727
-5.9976 0.5104 -2.4636 0.9743
-6.0121 0.2967 -2.4636 0.9743
-6.0107 -0.3457 -2.4641 0.9743
-5.9419 -0.9845 -2.4650 0.9743
-5.8588 -1.4050 -2.4659 0.9743
-5.7465 -1.8188 -2.4669 0.9743
-5.6794 -2.0226 -2.4675 0.9743
-5.5241 -2.4226 -2.4688 0.9743
-5.4360 -2.6184 -2.4695 0.9743
-5.0161 -3.3674 -2.4727 0.9742
-4.8949 -3.5451 -2.4736 0.9742
-4.7675 -3.7184 -2.4746 0.9742
-4.4947 -4.0513 -2.4765 0.9742
-4.3495 -4.2104 -2.4776 0.9742
-3.7150 -4.7935 -2.4821 0.9741
-5.5893 0.8795 -2.4659 0.9756
-5.6377 0.4798 -2.4659 0.9756
-5.6513 0.2789 -2.4660 0.9756
-5.5851 -0.9254 -2.4673 0.9756
-5.5494 -1.1237 -2.4676 0.9756
-5.5069 -1.3206 -2.4681 0.9756
-5.4012 -1.7095 -2.4690 0.9756
-5.3381 -1.9010 -2.4696 0.9756
-5.1919 -2.2769 -2.4708 0.9756
-5.1090 -2.4609 -2.4714 0.9756
-5.0196 -2.6418 -2.4721 0.9756
-4.9240 -2.8196 -2.4729 0.9755
-4.8220 -2.9939 -2.4737 0.9755
-4.7140 -3.1646 -2.4745 0.9755
-4.2236 -3.8069 -2.4781 0.9755
-4.0871 -3.9563 -2.4791 0.9755
-3.9454 -4.1009 -2.4801 0.9755
-3.7986 -4.2405 -2.4811 0.9755
-5.2670 0.8287 -2.4680 0.9768
-5.2930 0.6408 -2.4680 0.9768
-5.3316 0.0732 -2.4682 0.9768
-5.3311 -0.1166 -2.4683 0.9768
-5.3240 -0.3062 -2.4685 0.9768
-5.3102 -0.4954 -2.4687 0.9768
-5.2628 -0.8720 -2.4693 0.9768
-5.2292 -1.0588 -2.4696 0.9768
-5.0893 -1.6108 -2.4709 0.9767
-4.8919 -2.1454 -2.4726 0.9767
-4.7294 -2.4891 -2.4739 0.9767
-4.6392 -2.6565 -2.4746 0.9767
-4.5431 -2.8208 -2.4753 0.9767
-4.2208 -3.2920 -2.4777 0.9767
-4.1024 -3.4413 -2.4786 0.9767
-3.8502 -3.7270 -2.4804 0.9767
-3.4352 -4.1209 -2.4834 0.9766
-3.2878 -4.2423 -2.4844 0.9766
-4.9740 0.7826 -2.4699 0.9778
-4.9987 0.6052 -2.4699 0.9778
-5.0292 0.2482 -2.4700 0.9778
-5.0148 -0.4679 -2.4706 0.9778
-4.9699 -0.8235 -2.4711 0.9778
-4.9002 -1.1751 -2.4718 0.9778
-4.8561 -1.3490 -2.4722 0.9778
-4.7496 -1.6915 -2.4732 0.9778
-4.3805 -2.5084 -2.4761 0.9778
-4.2897 -2.6634 -2.4768 0.9778
-3.6350 -3.5187 -2.4816 0.9777
-3.5088 -3.6472 -2.4826 0.9777
-3.2430 -3.8904 -2.4844 0.9777
-4.7064 0.7405 -2.4717 0.9788
-4.7472 0.4040 -2.4717 0.9788
-4.7641 0.0654 -2.4718 0.9788
-4.7637 -0.1041 -2.4719 0.9788
-4.7024 -0.7792 -2.4728 0.9787
-4.5946 -1.2763 -2.4739 0.9787
-4.5471 -1.4392 -2.4743 0.9787
-4.4938 -1.6004 -2.4747 0.9787
-4.3004 -2.0715 -2.4763 0.9787
-4.2251 -2.2237 -2.4769 0.9787
-4.1443 -2.3732 -2.4776 0.9787
-3.9672 -2.6633 -2.4789 0.9787
-3.5537 -3.2031 -2.4819 0.9787
-3.3192 -3.4500 -2.4836 0.9787
-3.0676 -3.6799 -2.4854 0.9786
-4.4608 0.7019 -2.4733 0.9796
-4.4829 0.5427 -2.4732 0.9796
-4.4994 0.3829 -2.4733 0.9796
-4.5102 0.2226 -2.4733 0.9796
-4.5154 0.0620 -2.4734 0.9796
-4.5150 -0.0987 -2.4735 0.9796
-4.5089 -0.2593 -2.4737 0.9796
-4.4972 -0.4196 -2.4739 0.9796
-4.4798 -0.5794 -2.4741 0.9796
-4.4283 -0.8967 -2.4746 0.9796
-4.3942 -1.0538 -2.4750 0.9796
-4.3546 -1.2096 -2.4754 0.9796
-4.2590 -1.5167 -2.4762 0.9796
-4.2031 -1.6676 -2.4767 0.9796
-4.1420 -1.8165 -2.4772 0.9796
-4.0756 -1.9631 -2.4777 0.9796
-3.9275 -2.2490 -2.4788 0.9796
-3.8460 -2.3879 -2.4795 0.9796
-3.7596 -2.5239 -2.4801 0.9796
-3.5726 -2.7864 -2.4815 0.9795
-3.3674 -3.0352 -2.4830 0.9795
-3.0278 -3.3801 -2.4854 0.9795
-2.9067 -3.4868 -2.4863 0.9795
-4.2343 0.6662 -2.4747 0.9804
-4.2553 0.5152 -2.4747 0.9804
-4.2812 0.2113 -2.4748 0.9804
-4.2799 -0.2461 -2.4751 0.9804
-4.2687 -0.3983 -2.4753 0.9804
-4.2523 -0.5499 -2.4755 0.9804
-4.2304 -0.7009 -2.4758 0.9804
-4.2033 -0.8511 -2.4761 0.9804
-4.1709 -1.0002 -2.4764 0.9804
-4.1333 -1.1482 -2.4767 0.9804
-4.0425 -1.4396 -2.4775 0.9804
-3.9894 -1.5828 -2.4780 0.9804
-3.8683 -1.8632 -2.4789 0.9804
-3.8003 -2.0001 -2.4795 0.9804
-3.7276 -2.1345 -2.4800 0.9804
-3.5681 -2.3954 -2.4813 0.9803
-3.4816 -2.5215 -2.4819 0.9803
-3.3905 -2.6445 -2.4826 0.9803
-3.1958 -2.8805 -2.4840 0.9803
-3.0922 -2.9933 -2.4847 0.9803
-2.9846 -3.1024 -2.4855 0.9803
-2.7583 -3.3089 -2.4871 0.9803
-2.6397 -3.4061 -2.4879 0.9803
