ply
format ascii 1.0
element vertex 452
property float32 x
property float32 y
property float32 z
property float32 I
end_header
0.7973 -21.4074 3.7773 0.9167
1.5658 -21.3960 3.7828 0.9166
32.5154 -13.2577 6.1916 0.8671
0.7973 -21.4069 3.2817 0.9170
3.2180 -22.0831 3.4187 0.9137
31.3648 -25.0415 6.1485 0.8501
1.5657 -21.3954 2.7936 0.9171
2.3549 -21.5437 2.8221 0.9163
3.2186 -22.0871 2.9066 0.9139
31.4199 -31.1596 5.7624 0.8365
31.3982 -28.9826 5.5643 0.8417
31.3779 -26.9477 5.3861 0.8463
36.2876 -24.9383 5.7337 0.8373
32.4961 -13.2499 4.5699 0.8680
1.5657 -21.3952 2.3036 0.9173
2.3550 -21.5442 2.3272 0.9165
3.2191 -22.0911 2.3972 0.9141
31.4618 -36.0233 5.1359 0.8250
31.4367 -33.4934 4.9326 0.8313
33.1854 -24.6017 4.4359 0.8469
32.4865 -13.2459 3.7673 0.8684
0.7972 -21.4053 1.8133 0.9176
1.5657 -21.3949 1.8160 0.9175
31.4300 -33.4863 3.8877 0.8316
31.3858 -28.9712 3.6158 0.8424
31.3473 -25.0276 3.3957 0.8513
32.4769 -13.2420 2.9690 0.8687
0.7972 -21.4048 1.3282 0.9177
3.2203 -22.0992 1.3848 0.9144
31.4480 -36.0075 2.9645 0.8256
31.4007 -31.1405 2.7424 0.8376
31.3416 -25.0229 2.4870 0.8515
33.1852 -24.6016 2.5616 0.8474
36.2873 -24.9381 2.7303 0.8382
39.8317 -25.3227 2.9269 0.8277
0.7971 -21.4042 0.8446 0.9178
1.5657 -21.3944 0.8459 0.9177
3.2209 -22.1031 0.8808 0.9145
31.3944 -31.1343 1.7434 0.8378
45.0881 -20.2967 1.9497 0.8204
32.4577 -13.2342 1.3821 0.8691
0.7971 -21.4037 0.3618 0.9179
1.5656 -21.3941 0.3624 0.9178
31.4103 -33.4652 0.7753 0.8323
31.3881 -31.1280 0.7468 0.8379
31.3482 -26.9222 0.6980 0.8476
33.1851 -24.6015 0.6978 0.8477
39.8315 -25.3225 0.7973 0.8279
44.3409 -19.9603 0.8214 0.8232
2.3553 -21.5472 -0.1220 0.9169
31.4532 -38.7301 -0.2809 0.8191
31.4037 -33.4582 -0.2583 0.8323
31.3423 -26.9171 -0.2326 0.8477
31.3244 -25.0092 -0.2257 0.8519
33.1850 -24.6014 -0.2326 0.8477
36.2870 -24.9380 -0.2479 0.8385
39.8314 -25.3225 -0.2657 0.8280
32.4387 -13.2264 -0.1972 0.8692
0.7971 -21.4027 -0.6031 0.9179
3.2226 -22.1151 -0.6293 0.9145
31.4460 -38.7213 -1.4046 0.8191
31.4205 -35.9761 -1.3450 0.8260
31.3971 -33.4512 -1.2918 0.8323
31.3754 -31.1154 -1.2442 0.8379
31.3552 -28.9429 -1.2015 0.8430
31.3363 -26.9120 -1.1631 0.8476
31.3186 -25.0046 -1.1284 0.8518
33.1849 -24.6014 -1.1632 0.8476
36.2870 -24.9379 -1.2398 0.8385
39.8313 -25.3224 -1.3291 0.8279
37.6346 -18.5902 -1.1819 0.8454
37.6971 -16.9696 -1.1641 0.8475
32.4291 -13.2226 -0.9861 0.8692
0.7971 -21.4021 -1.0861 0.9178
2.3554 -21.5483 -1.0993 0.9168
17.0700 -45.3980 -2.4597 0.8234
17.6375 -42.2482 -2.3218 0.8325
31.4137 -35.9682 -2.4219 0.8259
31.3905 -33.4442 -2.3262 0.8322
31.3491 -28.9373 -2.1636 0.8429
31.3129 -25.0001 -2.0320 0.8517
33.1849 -24.6013 -2.0950 0.8475
36.2869 -24.9378 -2.2329 0.8383
39.8312 -25.3223 -2.3937 0.8278
0.7971 -21.4016 -1.5703 0.9177
1.5656 -21.3931 -1.5728 0.9176
2.3555 -21.5489 -1.5894 0.9167
3.2238 -22.1231 -1.6392 0.9142
7.5388 -34.2995 -2.5749 0.8686
8.7888 -34.1097 -2.5827 0.8683
10.0347 -33.8734 -2.5904 0.8679
12.5065 -33.2613 -2.6055 0.8672
13.7289 -32.8855 -2.6129 0.8668
14.9397 -32.4634 -2.6202 0.8665
18.4842 -30.9217 -2.6415 0.8655
20.7551 -29.6688 -2.6548 0.8648
23.9862 -27.4638 -2.6736 0.8639
25.0091 -26.6452 -2.6794 0.8637
26.0018 -25.7863 -2.6851 0.8634
26.9629 -24.8884 -2.6905 0.8631
27.8904 -23.9525 -2.6956 0.8629
29.4844 -21.8580 -2.6911 0.8631
29.4724 -18.7368 -2.5607 0.8693
30.0221 -17.6090 -2.5520 0.8697
31.8514 -14.3381 -2.5611 0.8693
0.7971 -21.4011 -2.0560 0.9175
1.5655 -21.3928 -2.0593 0.9174
2.3555 -21.5495 -2.0812 0.9166
4.4812 -24.5527 -2.3961 0.9046
5.3701 -24.4325 -2.4016 0.9044
7.6006 -25.6569 -2.5690 0.8981
8.5336 -25.4246 -2.5747 0.8978
10.3768 -24.8561 -2.5859 0.8974
11.2843 -24.5203 -2.5914 0.8972
13.0642 -23.7467 -2.6020 0.8968
13.9338 -23.3096 -2.6072 0.8966
16.4463 -21.8030 -2.6219 0.8961
18.0274 -20.6411 -2.6310 0.8957
18.7860 -20.0150 -2.6354 0.8956
21.5784 -17.2281 -2.6509 0.8950
22.2103 -16.4654 -2.6543 0.8948
24.4409 -13.1823 -2.6660 0.8944
0.7423 -19.9310 -2.3692 0.9228
1.4585 -19.9296 -2.3737 0.9227
2.1755 -19.9022 -2.3782 0.9225
2.9057 -19.9402 -2.3936 0.9220
4.6023 -20.9391 -2.5466 0.9173
6.1117 -20.6308 -2.5559 0.9170
6.8589 -20.4352 -2.5605 0.9168
9.0582 -19.6832 -2.5738 0.9164
9.7737 -19.3784 -2.5781 0.9163
10.4786 -19.0469 -2.5823 0.9162
11.8524 -18.3052 -2.5904 0.9159
12.5193 -17.8958 -2.5943 0.9158
13.1714 -17.4614 -2.5981 0.9157
14.4277 -16.5195 -2.6053 0.9154
15.6135 -15.4840 -2.6120 0.9152
18.6751 -11.8725 -2.6287 0.9147
19.1045 -11.2055 -2.6309 0.9146
19.5088 -10.5222 -2.6329 0.9146
19.8873 -9.8236 -2.6348 0.9145
0.6618 -17.7694 -2.5195 0.9307
1.9383 -17.7327 -2.5275 0.9305
2.5763 -17.6797 -2.5315 0.9304
6.9561 -16.6623 -2.5583 0.9297
7.5591 -16.4257 -2.5620 0.9296
8.1539 -16.1668 -2.5655 0.9295
8.7396 -15.8859 -2.5690 0.9294
10.4336 -14.9144 -2.5790 0.9291
10.9744 -14.5488 -2.5821 0.9290
12.5143 -13.3330 -2.5909 0.9288
12.9975 -12.8897 -2.5936 0.9287
13.4643 -12.4284 -2.5962 0.9286
13.9141 -11.9496 -2.5987 0.9286
14.3462 -11.4539 -2.6011 0.9285
15.1546 -10.4148 -2.6054 0.9284
15.5296 -9.8728 -2.6074 0.9284
15.8844 -9.3167 -2.6092 0.9283
16.2184 -8.7475 -2.6109 0.9283
16.5311 -8.1658 -2.6124 0.9282
0.5687 -15.2685 -2.5171 0.9399
1.1167 -15.2592 -2.5205 0.9399
2.2122 -15.1812 -2.5274 0.9397
2.7583 -15.1125 -2.5307 0.9396
3.8432 -14.9156 -2.5374 0.9395
4.3807 -14.7875 -2.5407 0.9394
4.9138 -14.6398 -2.5440 0.9393
5.4419 -14.4727 -2.5472 0.9392
5.9641 -14.2861 -2.5503 0.9392
6.9883 -13.8558 -2.5565 0.9390
8.4631 -13.0706 -2.5652 0.9388
8.9354 -12.7728 -2.5680 0.9388
9.3969 -12.4576 -2.5706 0.9387
10.2850 -11.7762 -2.5757 0.9386
11.1221 -11.0299 -2.5805 0.9385
11.5199 -10.6336 -2.5827 0.9384
12.2711 -9.7972 -2.5868 0.9383
12.6234 -9.3582 -2.5887 0.9383
12.9595 -8.9063 -2.5905 0.9382
13.5807 -7.9655 -2.5937 0.9382
14.1310 -6.9802 -2.5965 0.9381
14.6071 -5.9559 -2.5987 0.9381
0.4981 -13.3723 -2.5152 0.9470
1.4576 -13.3342 -2.5212 0.9469
3.3626 -13.0502 -2.5330 0.9466
4.2979 -12.8048 -2.5388 0.9465
4.7590 -12.6566 -2.5416 0.9465
6.1086 -12.1116 -2.5497 0.9463
6.5452 -11.8971 -2.5523 0.9462
7.3946 -11.4203 -2.5573 0.9461
9.3521 -9.9638 -2.5685 0.9459
10.0568 -9.2830 -2.5725 0.9458
10.3902 -8.9232 -2.5743 0.9458
10.7104 -8.5511 -2.5760 0.9457
11.0168 -8.1672 -2.5777 0.9457
11.3091 -7.7721 -2.5793 0.9457
12.0965 -6.5243 -2.5833 0.9456
12.3279 -6.0895 -2.5844 0.9456
12.5431 -5.6463 -2.5855 0.9456
0.4426 -11.8840 -2.5138 0.9525
1.2950 -11.8469 -2.5191 0.9524
2.5664 -11.6761 -2.5270 0.9523
2.9860 -11.5885 -2.5296 0.9523
3.4025 -11.4857 -2.5321 0.9522
3.8155 -11.3678 -2.5347 0.9522
4.2244 -11.2348 -2.5371 0.9521
4.6285 -11.0869 -2.5396 0.9521
5.0274 -10.9243 -2.5420 0.9520
5.4204 -10.7472 -2.5443 0.9520
6.1870 -10.3500 -2.5489 0.9519
6.9237 -9.8972 -2.5532 0.9518
7.2796 -9.6507 -2.5552 0.9518
8.2916 -8.8340 -2.5610 0.9517
8.9148 -8.2289 -2.5645 0.9516
9.4928 -7.5790 -2.5677 0.9516
10.0220 -6.8875 -2.5705 0.9515
10.2674 -6.5274 -2.5718 0.9515
10.7179 -5.7807 -2.5741 0.9514
0.7811 -10.6727 -2.5150 0.9570
1.1639 -10.6479 -2.5174 0.9569
1.5460 -10.6094 -2.5198 0.9569
1.9269 -10.5572 -2.5222 0.9569
2.6826 -10.4113 -2.5268 0.9568
3.0566 -10.3179 -2.5291 0.9567
4.8670 -9.6497 -2.5400 0.9566
5.5542 -9.2914 -2.5441 0.9565
6.2145 -8.8834 -2.5480 0.9564
6.5334 -8.6614 -2.5498 0.9564
6.8443 -8.4277 -2.5516 0.9564
7.1465 -8.1827 -2.5533 0.9563
8.2620 -7.0955 -2.5595 0.9562
8.5154 -6.7987 -2.5609 0.9562
8.7579 -6.4926 -2.5622 0.9562
9.2088 -5.8544 -2.5646 0.9562
9.4165 -5.5231 -2.5657 0.9561
0.3611 -9.6939 -2.5117 0.9607
1.0559 -9.6599 -2.5160 0.9606
1.4025 -9.6241 -2.5182 0.9606
2.0914 -9.5151 -2.5224 0.9605
3.1076 -9.2586 -2.5287 0.9605
3.7684 -9.0266 -2.5326 0.9604
4.0925 -8.8927 -2.5346 0.9604
4.4116 -8.7470 -2.5365 0.9603
4.7256 -8.5896 -2.5384 0.9603
6.2013 -7.6360 -2.5470 0.9602
6.9970 -6.9390 -2.5515 0.9601
7.4837 -6.4271 -2.5542 0.9601
7.9322 -5.8804 -2.5566 0.9600
8.1412 -5.5950 -2.5577 0.9600
8.3398 -5.3019 -2.5587 0.9600
8.7042 -4.6947 -2.5606 0.9600
8.8696 -4.3813 -2.5614 0.9599
9.1654 -3.7371 -2.5628 0.9599
0.3301 -8.8632 -2.5109 0.9638
1.5975 -8.7527 -2.5188 0.9637
2.2234 -8.6291 -2.5226 0.9636
2.5329 -8.5503 -2.5245 0.9636
3.1432 -8.3593 -2.5282 0.9636
3.4430 -8.2472 -2.5300 0.9635
4.3167 -7.8465 -2.5352 0.9635
4.5980 -7.6918 -2.5369 0.9634
4.8737 -7.5270 -2.5385 0.9634
5.1433 -7.3522 -2.5401 0.9634
5.4066 -7.1675 -2.5416 0.9634
5.6631 -6.9733 -2.5431 0.9633
6.8325 -5.8678 -2.5496 0.9633
7.4319 -5.1075 -2.5529 0.9632
7.9451 -4.2852 -2.5555 0.9632
8.3655 -3.4109 -2.5575 0.9631
1.1794 -8.0934 -2.5156 0.9664
1.7583 -7.9995 -2.5192 0.9663
3.1662 -7.5840 -2.5278 0.9662
3.4379 -7.4706 -2.5294 0.9662
3.7057 -7.3473 -2.5310 0.9661
4.4805 -6.9198 -2.5356 0.9661
4.7282 -6.7587 -2.5370 0.9661
5.2055 -6.4099 -2.5398 0.9660
5.8718 -5.8231 -2.5436 0.9660
6.0794 -5.6116 -2.5447 0.9660
6.2791 -5.3926 -2.5458 0.9660
6.4709 -5.1663 -2.5468 0.9659
6.6544 -4.9332 -2.5478 0.9659
6.9954 -4.4472 -2.5496 0.9659
7.4386 -3.6744 -2.5519 0.9659
7.6861 -3.1339 -2.5530 0.9659
1.3592 -7.4470 -2.5163 0.9686
1.6261 -7.3983 -2.5179 0.9686
2.4150 -7.1950 -2.5228 0.9685
2.6728 -7.1083 -2.5243 0.9685
3.1787 -6.9070 -2.5274 0.9685
3.4260 -6.7927 -2.5288 0.9684
3.6691 -6.6694 -2.5303 0.9684
3.9079 -6.5373 -2.5317 0.9684
5.4265 -5.3816 -2.5404 0.9683
5.6182 -5.1859 -2.5415 0.9683
5.8026 -4.9833 -2.5425 0.9683
5.9796 -4.7741 -2.5435 0.9683
6.3104 -4.3368 -2.5452 0.9682
6.6088 -3.8763 -2.5468 0.9682
6.7452 -3.6380 -2.5475 0.9682
6.8728 -3.3949 -2.5481 0.9682
7.1012 -2.8954 -2.5492 0.9682
0.2612 -7.0114 -2.5091 0.9706
0.5124 -7.0019 -2.5106 0.9706
0.7634 -6.9835 -2.5122 0.9706
1.2629 -6.9194 -2.5153 0.9706
2.2435 -6.6841 -2.5213 0.9705
2.4829 -6.6032 -2.5228 0.9705
2.9525 -6.4157 -2.5256 0.9704
3.1822 -6.3092 -2.5270 0.9704
3.6295 -6.0716 -2.5296 0.9704
3.8465 -5.9407 -2.5309 0.9704
4.4679 -5.5016 -2.5345 0.9703
5.8587 -4.0263 -2.5422 0.9703
6.0009 -3.8150 -2.5429 0.9702
6.1353 -3.5986 -2.5436 0.9702
6.3802 -3.1516 -2.5448 0.9702
6.4904 -2.9217 -2.5453 0.9702
0.2437 -6.5416 -2.5086 0.9723
0.4781 -6.5325 -2.5101 0.9723
0.7122 -6.5150 -2.5115 0.9723
1.1781 -6.4547 -2.5144 0.9723
1.8668 -6.3017 -2.5187 0.9722
2.9675 -5.8837 -2.5253 0.9722
3.9776 -5.2732 -2.5312 0.9721
4.6975 -4.6586 -2.5353 0.9721
5.1755 -4.1321 -2.5379 0.9720
5.3218 -3.9453 -2.5387 0.9720
5.5938 -3.5562 -2.5401 0.9720
5.7190 -3.3544 -2.5408 0.9720
5.8368 -3.1481 -2.5414 0.9720
5.9471 -2.9377 -2.5419 0.9720
6.0497 -2.7233 -2.5424 0.9720
6.1444 -2.5053 -2.5428 0.9720
0.6667 -6.0988 -2.5109 0.9738
0.8852 -6.0743 -2.5123 0.9738
1.1028 -6.0419 -2.5137 0.9738
1.5341 -5.9538 -2.5163 0.9738
1.7472 -5.8981 -2.5176 0.9738
1.9584 -5.8346 -2.5189 0.9738
2.3734 -5.6851 -2.5214 0.9737
2.9738 -5.4054 -2.5250 0.9737
3.3561 -5.1832 -2.5272 0.9737
3.5411 -5.0619 -2.5283 0.9737
4.0686 -4.6584 -2.5313 0.9736
4.9784 -3.6907 -2.5364 0.9736
5.2326 -3.3266 -2.5377 0.9736
5.4598 -2.9448 -2.5388 0.9735
5.5629 -2.7479 -2.5393 0.9735
5.6587 -2.5473 -2.5398 0.9735
5.7473 -2.3434 -2.5402 0.9735
0.4202 -5.7420 -2.5091 0.9752
0.8310 -5.7030 -2.5117 0.9752
1.0353 -5.6724 -2.5130 0.9752
1.2385 -5.6345 -2.5142 0.9751
1.4402 -5.5893 -2.5155 0.9751
2.0343 -5.4103 -2.5191 0.9751
2.2279 -5.3364 -2.5202 0.9751
2.6065 -5.1679 -2.5225 0.9751
2.7912 -5.0734 -2.5236 0.9751
3.3233 -4.7506 -2.5267 0.9750
3.4928 -4.6303 -2.5277 0.9750
3.8180 -4.3716 -2.5295 0.9750
4.1240 -4.0898 -2.5313 0.9750
4.2692 -3.9407 -2.5321 0.9750
4.4090 -3.7864 -2.5328 0.9750
4.6713 -3.4630 -2.5343 0.9749
4.9097 -3.1213 -2.5355 0.9749
5.1227 -2.7630 -2.5366 0.9749
5.2194 -2.5782 -2.5371 0.9749
5.3923 -2.1986 -2.5379 0.9749
0.7823 -5.3683 -2.5111 0.9764
0.9746 -5.3394 -2.5123 0.9764
1.5438 -5.2112 -2.5158 0.9763
1.7302 -5.1549 -2.5170 0.9763
2.0967 -5.0222 -2.5192 0.9763
2.7970 -4.6791 -2.5233 0.9763
2.9640 -4.5776 -2.5243 0.9762
3.5925 -4.1133 -2.5279 0.9762
4.1481 -3.5625 -2.5310 0.9762
4.6190 -2.9365 -2.5335 0.9762
4.8193 -2.5993 -2.5346 0.9762
0.3732 -5.1000 -2.5084 0.9775
0.9194 -5.0374 -2.5118 0.9774
1.2788 -4.9630 -2.5140 0.9774
1.4564 -4.9161 -2.5151 0.9774
1.8061 -4.8033 -2.5172 0.9774
2.3137 -4.5874 -2.5202 0.9774
2.6382 -4.4133 -2.5221 0.9774
2.7956 -4.3176 -2.5231 0.9773
3.0997 -4.1092 -2.5248 0.9773
3.2459 -3.9969 -2.5257 0.9773
3.3881 -3.8793 -2.5265 0.9773
3.5260 -3.7566 -2.5273 0.9773
3.9119 -3.3596 -2.5294 0.9773
4.1445 -3.0724 -2.5306 0.9773
4.3557 -2.7691 -2.5318 0.9773
4.5445 -2.4511 -2.5327 0.9773
4.7098 -2.1201 -2.5335 0.9773
4.7833 -1.9503 -2.5339 0.9772
0.3529 -4.8216 -2.5080 0.9785
0.8691 -4.7620 -2.5112 0.9784
1.0396 -4.7298 -2.5123 0.9784
1.2088 -4.6915 -2.5133 0.9784
1.3767 -4.6470 -2.5144 0.9784
1.7072 -4.5402 -2.5164 0.9784
1.8694 -4.4779 -2.5173 0.9784
2.0294 -4.4097 -2.5183 0.9784
2.1869 -4.3358 -2.5192 0.9784
2.3416 -4.2563 -2.5202 0.9783
2.4934 -4.1711 -2.5210 0.9783
2.7875 -3.9846 -2.5228 0.9783
3.3321 -3.5501 -2.5259 0.9783
3.4581 -3.4294 -2.5266 0.9783
3.6967 -3.1747 -2.5279 0.9783
3.8089 -3.0410 -2.5285 0.9783
4.0187 -2.7618 -2.5296 0.9783
4.3749 -2.1611 -2.5314 0.9783
4.4502 -2.0033 -2.5318 0.9782
0.1704 -4.5736 -2.5067 0.9793
0.8231 -4.5097 -2.5108 0.9793
1.4610 -4.3527 -2.5147 0.9793
1.6165 -4.2992 -2.5156 0.9793
1.9216 -4.1754 -2.5174 0.9793
2.2171 -4.0300 -2.5192 0.9792
2.5015 -3.8635 -2.5209 0.9792
2.6392 -3.7726 -2.5217 0.9792
2.9042 -3.5761 -2.5232 0.9792
3.1546 -3.3609 -2.5246 0.9792
3.2738 -3.2467 -2.5253 0.9792
3.3888 -3.1281 -2.5259 0.9792
3.6057 -2.8788 -2.5271 0.9792
3.8962 -2.4769 -2.5286 0.9792
4.2126 -1.8963 -2.5302 0.9792
0.4721 -4.3190 -2.5084 0.9801
0.6267 -4.3009 -2.5094 0.9801
0.7807 -4.2774 -2.5103 0.9801
1.0857 -4.2136 -2.5122 0.9801
1.2364 -4.1736 -2.5131 0.9801
1.6787 -4.0212 -2.5158 0.9801
1.8223 -3.9598 -2.5167 0.9801
1.9637 -3.8933 -2.5175 0.9801
2.1025 -3.8217 -2.5183 0.9801
2.2387 -3.7451 -2.5191 0.9800
2.6300 -3.4865 -2.5214 0.9800
2.7539 -3.3911 -2.5221 0.9800
2.8744 -3.2911 -2.5228 0.9800
2.9912 -3.1869 -2.5235 0.9800
3.2132 -2.9660 -2.5247 0.9800
3.3182 -2.8497 -2.5253 0.9800
3.7765 -2.2150 -2.5277 0.9800
3.9940 -1.7979 -2.5288 0.9800
