ply
format ascii 1.0
element vertex 560
property float32 x
property float32 y
property float32 z
property float32 I
end_header
-37.7615 14.3569 7.1234 0.8487
-42.3323 11.1013 7.7167 0.8371
-42.7664 9.6016 7.7286 0.8369
-21.7742 -6.2095 3.9925 0.9121
-21.7180 -7.9040 4.0752 0.9104
-39.0269 13.2676 6.3147 0.8464
-44.3682 13.3409 7.0976 0.8290
-42.8560 9.6217 6.7287 0.8372
-42.3771 7.9406 6.6049 0.8399
-44.1284 20.4821 6.3353 0.8218
-41.7438 17.5968 5.8991 0.8330
-46.4907 15.8050 6.3943 0.8203
-43.5262 11.4144 5.8597 0.8340
-45.1885 10.1454 6.0310 0.8296
-39.6283 -6.8411 5.2368 0.8503
-38.8372 -8.1385 5.1673 0.8521
-21.7129 -7.9022 3.0089 0.9110
-20.3891 -9.1119 2.9082 0.9139
-44.1175 -21.6326 6.3985 0.8202
-37.1015 -21.5954 5.5902 0.8410
-37.0413 30.1924 5.1315 0.8251
-36.7995 25.8651 4.8300 0.8345
-38.5708 25.1069 4.9420 0.8310
-45.7805 17.4057 5.2593 0.8212
-47.9435 12.5728 5.3223 0.8192
-39.0595 -6.7429 4.2563 0.8526
-38.6197 -8.0929 4.2371 0.8532
-21.7152 -7.0379 2.4512 0.9123
-20.3649 -8.2441 2.3592 0.9154
-20.2846 -9.0652 2.3858 0.9145
-44.1127 -21.6302 5.2757 0.8207
-40.3375 -21.5938 4.9131 0.8319
-37.0998 -21.5944 4.6096 0.8414
-35.8826 27.1799 3.8106 0.8347
-35.8144 25.1727 3.7058 0.8388
-40.6750 24.4598 4.0179 0.8265
-38.9521 -6.7244 3.3462 0.8533
-21.9308 -7.1078 1.9516 0.9116
-21.7195 -7.9045 1.9566 0.9114
-21.2054 -8.5843 1.9366 0.9123
-20.1817 -9.0192 1.8713 0.9151
-37.0982 -21.5935 3.6337 0.8417
-35.4959 26.8870 2.7613 0.8366
-35.5184 24.9646 2.6921 0.8403
-36.7776 23.9396 2.7212 0.8387
-39.8688 23.9750 2.8849 0.8299
-43.6421 24.1711 3.0936 0.8188
-38.5281 -8.0737 2.4410 0.8541
-36.9950 -9.1389 2.3630 0.8584
-21.6832 -7.0276 1.4134 0.9127
-20.0803 -8.9739 1.3639 0.9156
-44.1030 -21.6255 3.0459 0.8213
-40.3403 -21.5952 2.8374 0.8325
-37.0965 -21.5925 2.6617 0.8420
-22.1712 22.4091 1.2430 0.8814
-30.5769 28.7790 1.6557 0.8453
-30.5082 26.7308 1.5994 0.8501
-30.3939 23.0224 1.5035 0.8584
-36.6047 23.8270 1.7222 0.8396
-38.3568 23.0658 1.7649 0.8360
-43.6437 24.1720 1.9672 0.8190
-38.4550 -8.0584 1.5493 0.8545
-20.9754 -8.4912 0.8923 0.9134
-37.0949 -21.5915 1.6924 0.8421
-28.9334 25.3510 0.6498 0.8574
-32.4968 22.8409 0.6710 0.8531
-10.3580 6.7424 0.2088 0.9518
-22.5392 -7.3050 0.4002 0.9096
-21.7102 -7.9012 0.3903 0.9117
-44.0934 -21.6208 0.8295 0.8216
-40.3430 -21.5967 0.7730 0.8327
-37.0933 -21.5906 0.7250 0.8422
-6.9621 6.5528 -0.0538 0.9625
-7.4774 6.5517 -0.0560 0.9610
-8.6460 6.5492 -0.0611 0.9575
-10.0565 6.5461 -0.0676 0.9531
-10.7438 6.4609 -0.0706 0.9511
-11.8356 6.5552 -0.0762 0.9473
-14.1123 6.5503 -0.0876 0.9397
-17.2023 6.5403 -0.1036 0.9290
-21.4422 6.4474 -0.1261 0.9143
-43.0195 6.4848 -0.2449 0.8403
-40.3444 -21.5974 -0.2576 0.8327
-6.9621 6.5528 -0.2692 0.9625
-8.6461 6.5492 -0.3054 0.9575
-12.8947 6.5530 -0.4073 0.9438
-15.5316 6.5473 -0.4746 0.9348
-17.2025 6.5404 -0.5182 0.9290
-19.2259 6.5361 -0.5718 0.9220
-21.4426 6.4475 -0.6305 0.9143
-24.8816 6.5251 -0.7243 0.9022
-29.0081 6.5127 -0.8371 0.8878
-34.6780 6.4980 -0.9935 0.8683
-43.0209 6.4850 -1.2251 0.8402
-21.6911 -7.8942 -0.6500 0.9118
-7.4775 6.5518 -0.5042 0.9610
-10.0566 6.5462 -0.6085 0.9531
-10.7440 6.4610 -0.6358 0.9510
-11.8358 6.5553 -0.6862 0.9473
-12.8948 6.5530 -0.7335 0.9437
-15.5318 6.5474 -0.8548 0.9347
-34.6789 6.4982 -1.7893 0.8682
-40.9430 4.6877 -2.0899 0.8478
-43.7546 3.4364 -2.2258 0.8388
-43.8617 1.8767 -2.2264 0.8388
-43.9274 -1.2512 -2.2286 0.8386
-43.7944 -4.3813 -2.2321 0.8384
-43.3997 -5.9094 -2.2213 0.8391
-40.8154 -7.0461 -2.1005 0.8471
-40.5894 -8.5057 -2.1032 0.8470
-42.9313 -10.6054 -2.2427 0.8377
-42.5911 -12.1459 -2.2461 0.8375
-42.2012 -13.6775 -2.2498 0.8372
-41.2731 -16.7081 -2.2581 0.8367
-6.4843 6.5539 -0.6760 0.9637
-8.0365 6.5506 -0.7602 0.9593
-8.6462 6.5493 -0.7953 0.9574
-10.0567 6.5463 -0.8798 0.9530
-10.7441 6.4610 -0.9192 0.9510
-12.8950 6.5531 -1.0606 0.9436
-14.1128 6.5505 -1.1408 0.9395
-19.2264 6.5363 -1.4890 0.9218
-21.4433 6.4478 -1.6418 0.9141
-28.8019 6.4664 -2.1644 0.8883
-29.0081 5.4355 -2.1640 0.8884
-31.2201 3.5745 -2.3041 0.8816
-31.4050 1.3437 -2.3048 0.8816
-31.4424 0.2246 -2.3055 0.8815
-31.4071 -2.0158 -2.3076 0.8814
-28.8070 -7.1163 -2.1757 0.8878
-28.2915 -9.1693 -2.1806 0.8876
-29.4326 -11.9148 -2.3282 0.8804
-29.0318 -12.9743 -2.3316 0.8803
-28.5954 -14.0215 -2.3352 0.8801
-6.4843 6.5540 -0.8851 0.9636
-6.9622 6.5530 -0.9179 0.9623
-8.6463 6.5494 -1.0413 0.9573
-12.8951 6.5532 -1.3887 0.9435
-15.5322 6.5475 -1.6182 0.9345
-19.2267 6.5364 -1.9496 0.9216
-21.4436 6.4479 -2.1497 0.9139
-24.0408 4.5048 -2.3482 0.9064
-24.1841 3.6455 -2.3480 0.9064
-24.2986 2.7820 -2.3480 0.9064
-24.4408 1.0457 -2.3486 0.9064
-24.4683 0.1747 -2.3491 0.9064
-24.3760 -2.4387 -2.3519 0.9062
-24.1687 -4.1723 -2.3546 0.9061
-24.0216 -5.0338 -2.3563 0.9061
-22.2006 -6.3311 -2.2163 0.9114
-21.9813 -7.1242 -2.2184 0.9113
-21.4624 -8.6884 -2.2229 0.9112
-22.5358 -10.0712 -2.3698 0.9056
-21.8155 -11.6784 -2.3756 0.9053
-21.4143 -12.4645 -2.3788 0.9052
-6.9623 6.5530 -1.1357 0.9622
-7.4777 6.5519 -1.1810 0.9607
-10.0569 6.5464 -1.4254 0.9528
-10.7443 6.4611 -1.4893 0.9508
-11.8362 6.5555 -1.6072 0.9470
-14.1131 6.5506 -1.8482 0.9392
-17.5816 6.6845 -2.2343 0.9270
-17.8023 6.0521 -2.2335 0.9271
-19.5212 4.3827 -2.3766 0.9226
-19.6624 3.6843 -2.3763 0.9226
-19.9432 1.5663 -2.3763 0.9226
-19.9890 0.8553 -2.3766 0.9226
-20.0081 -0.5699 -2.3777 0.9225
-19.9815 -1.2824 -2.3784 0.9225
-19.8560 -2.7036 -2.3804 0.9225
-19.6344 -4.1145 -2.3829 0.9224
-19.3172 -5.5088 -2.3861 0.9223
-17.7541 -6.4614 -2.2443 0.9267
-17.2800 -7.7224 -2.2483 0.9266
-17.0107 -8.3410 -2.2505 0.9265
-16.7201 -8.9507 -2.2528 0.9265
-17.4728 -10.1703 -2.4015 0.9218
-6.4844 6.5541 -1.3063 0.9634
-9.3161 6.5480 -1.6134 0.9550
-10.0570 6.5465 -1.7003 0.9527
-10.7444 6.4612 -1.7764 0.9506
-11.8363 6.5556 -1.9171 0.9468
-14.8582 5.6491 -2.2523 0.9378
-15.4717 4.6521 -2.2891 0.9368
-16.3599 4.2903 -2.3964 0.9340
-16.4997 3.7044 -2.3960 0.9340
-16.6193 3.1141 -2.3958 0.9340
-16.7188 2.5202 -2.3956 0.9340
-16.7980 1.9232 -2.3956 0.9340
-16.9128 0.1208 -2.3964 0.9340
-16.9101 -0.4817 -2.3970 0.9339
-16.8868 -1.0838 -2.3976 0.9339
-16.8429 -1.6850 -2.3984 0.9339
-16.7786 -2.2846 -2.3993 0.9339
-16.6937 -2.8819 -2.4003 0.9339
-16.5885 -3.4762 -2.4015 0.9338
-16.3171 -4.6532 -2.4041 0.9337
-16.1513 -5.2347 -2.4057 0.9337
-15.9655 -5.8105 -2.4073 0.9337
-14.8002 -5.9914 -2.2623 0.9375
-14.5888 -6.5197 -2.2641 0.9375
-14.3592 -7.0409 -2.2660 0.9374
-14.1117 -7.5544 -2.2679 0.9374
-6.4844 6.5541 -1.5189 0.9633
-7.4778 6.5520 -1.6379 0.9605
-9.3162 6.5481 -1.8759 0.9549
-12.0482 6.6729 -2.2689 0.9457
-12.2730 6.2370 -2.2679 0.9457
-14.1547 3.7120 -2.4107 0.9424
-14.2759 3.2051 -2.4103 0.9424
-14.4659 2.1806 -2.4100 0.9424
-14.5851 1.1455 -2.4101 0.9424
-14.6180 0.6255 -2.4104 0.9424
-14.6331 0.1045 -2.4107 0.9424
-14.6096 -0.9377 -2.4117 0.9424
-14.5710 -1.4577 -2.4124 0.9424
-14.2387 -3.5174 -2.4162 0.9423
-14.1116 -4.0243 -2.4174 0.9422
-13.9669 -4.5267 -2.4187 0.9422
-13.8050 -5.0242 -2.4202 0.9422
-13.0125 -5.8152 -2.3480 0.9439
-12.4121 -6.0862 -2.2774 0.9455
-11.9660 -6.9649 -2.2809 0.9454
-6.4845 6.5542 -1.7330 0.9632
-6.9624 6.5531 -1.7972 0.9618
-7.4779 6.5521 -1.8687 0.9603
-8.6466 6.5496 -2.0388 0.9568
-9.3162 6.5482 -2.1404 0.9547
-10.1696 6.6197 -2.2808 0.9518
-10.8033 5.4901 -2.2778 0.9519
-10.9879 5.1000 -2.2769 0.9519
-11.1590 4.7040 -2.2762 0.9519
-12.4624 3.2682 -2.4216 0.9489
-12.6607 2.3724 -2.4211 0.9489
-12.7367 1.9199 -2.4210 0.9489
-12.8835 0.0920 -2.4217 0.9489
-12.8807 -0.3669 -2.4221 0.9489
-12.8622 -0.8255 -2.4226 0.9489
-12.7776 -1.7398 -2.4238 0.9489
-12.7117 -2.1944 -2.4246 0.9489
-12.6301 -2.6467 -2.4255 0.9488
-12.5329 -3.0960 -2.4265 0.9488
-12.4201 -3.5419 -2.4276 0.9488
-12.2921 -3.9839 -2.4288 0.9488
-12.1487 -4.4214 -2.4300 0.9487
-11.9903 -4.8539 -2.4314 0.9487
-10.5258 -6.1267 -2.2892 0.9516
-7.4779 6.5521 -2.1016 0.9602
-8.0369 6.5509 -2.1917 0.9585
-8.6374 6.5426 -2.2904 0.9567
-8.8605 6.2277 -2.2893 0.9567
-9.2730 5.5763 -2.2873 0.9567
-9.4620 5.2405 -2.2863 0.9567
-9.6391 4.8985 -2.2855 0.9568
-10.0551 4.6671 -2.3432 0.9557
-10.6030 4.4696 -2.4323 0.9540
-10.8891 3.7019 -2.4311 0.9541
-11.0120 3.3112 -2.4307 0.9541
-11.1213 2.9165 -2.4303 0.9541
-11.2169 2.5183 -2.4300 0.9541
-11.2986 2.1171 -2.4299 0.9541
-11.3665 1.7134 -2.4298 0.9541
-11.4972 0.0821 -2.4303 0.9541
-11.4945 -0.3274 -2.4307 0.9541
-11.4467 -1.1452 -2.4317 0.9541
-11.4015 -1.5524 -2.4323 0.9540
-11.3423 -1.9581 -2.4330 0.9540
-11.1819 -2.7623 -2.4347 0.9540
-11.0808 -3.1600 -2.4356 0.9540
-10.9659 -3.5541 -2.4367 0.9540
-10.8375 -3.9441 -2.4378 0.9539
-10.3714 -5.0855 -2.4417 0.9539
-6.4846 6.5543 -2.1669 0.9628
-7.3558 6.4451 -2.2985 0.9606
-7.9899 5.6158 -2.2952 0.9607
-8.1814 5.3255 -2.2943 0.9607
-8.3626 5.0288 -2.2934 0.9607
-9.1653 4.6577 -2.4163 0.9586
-9.5633 4.0313 -2.4391 0.9583
-9.6985 3.6874 -2.4386 0.9583
-9.9328 2.9867 -2.4377 0.9583
-10.0316 2.6307 -2.4374 0.9583
-10.1917 1.9097 -2.4370 0.9583
-10.3014 1.1794 -2.4369 0.9583
-10.3705 0.0741 -2.4374 0.9583
-10.3680 -0.2953 -2.4377 0.9583
-10.3244 -1.0329 -2.4386 0.9583
-10.2298 -1.7660 -2.4398 0.9582
-9.9929 -2.8497 -2.4422 0.9582
-9.8889 -3.2050 -2.4431 0.9582
-9.7726 -3.5566 -2.4441 0.9582
-9.6440 -3.9041 -2.4452 0.9581
-9.5034 -4.2471 -2.4464 0.9581
-9.3509 -4.5851 -2.4476 0.9581
-9.1865 -4.9178 -2.4490 0.9581
-6.6905 5.8621 -2.3032 0.9639
-7.7765 4.6764 -2.3495 0.9632
-8.4221 4.2800 -2.4461 0.9617
-8.7010 3.6678 -2.4448 0.9617
-8.9365 3.0381 -2.4439 0.9618
-9.0377 2.7175 -2.4435 0.9618
-9.2062 2.0669 -2.4430 0.9618
-9.2735 1.7377 -2.4429 0.9618
-9.4059 0.7387 -2.4429 0.9618
-9.4268 0.4033 -2.4430 0.9618
-9.4361 0.0674 -2.4432 0.9618
-9.4337 -0.2687 -2.4435 0.9618
-9.2465 -1.9376 -2.4461 0.9617
-9.1744 -2.2664 -2.4468 0.9617
-9.0908 -2.5925 -2.4476 0.9617
-8.9959 -2.9156 -2.4485 0.9617
-8.7725 -3.5513 -2.4504 0.9617
-8.3552 -4.4728 -2.4538 0.9616
-5.7370 5.7985 -2.3092 0.9667
-6.6798 4.6950 -2.3114 0.9666
-7.5752 4.1955 -2.4514 0.9646
-7.7177 3.9220 -2.4508 0.9647
-8.1897 2.7842 -2.4488 0.9647
-8.2825 2.4904 -2.4484 0.9647
-8.3651 2.1937 -2.4482 0.9647
-8.4372 1.8942 -2.4480 0.9647
-8.4988 1.5925 -2.4478 0.9647
-8.5904 0.9835 -2.4478 0.9647
-8.6202 0.6770 -2.4478 0.9647
-8.6393 0.3696 -2.4480 0.9647
-8.6477 0.0618 -2.4482 0.9647
-8.6323 -0.5540 -2.4488 0.9647
-8.6085 -0.8612 -2.4492 0.9647
-8.3300 -2.3755 -2.4522 0.9646
-8.1453 -2.9644 -2.4538 0.9646
-8.0376 -3.2538 -2.4547 0.9646
-7.9197 -3.5393 -2.4557 0.9646
-7.7920 -3.8207 -2.4568 0.9646
-7.6544 -4.0976 -2.4578 0.9646
-7.5071 -4.3696 -2.4590 0.9645
-5.2876 5.3443 -2.3124 0.9690
-5.4721 5.1504 -2.3114 0.9690
-5.6498 4.9503 -2.3104 0.9691
-5.8203 4.7441 -2.3095 0.9691
-6.1753 4.6776 -2.3828 0.9681
-6.5369 4.5946 -2.4576 0.9671
-6.6943 4.3575 -2.4568 0.9671
-6.8432 4.1151 -2.4561 0.9671
-7.2376 3.3593 -2.4542 0.9672
-7.4555 2.8346 -2.4533 0.9672
-7.8358 1.4683 -2.4521 0.9672
-7.9708 -0.2270 -2.4526 0.9672
-7.9587 -0.5108 -2.4530 0.9672
-7.9047 -1.0763 -2.4538 0.9672
-7.8114 -1.6369 -2.4548 0.9672
-7.6791 -2.1899 -2.4561 0.9671
-7.5985 -2.4627 -2.4568 0.9671
-7.5084 -2.7326 -2.4576 0.9671
-7.4089 -2.9993 -2.4585 0.9671
-7.3001 -3.2624 -2.4594 0.9671
-7.1821 -3.5217 -2.4603 0.9671
-7.0550 -3.7767 -2.4613 0.9671
-4.8985 4.9510 -2.3151 0.9711
-5.9032 4.4715 -2.4616 0.9693
-6.4709 3.5839 -2.4588 0.9693
-6.8120 2.8715 -2.4573 0.9693
-6.9088 2.6267 -2.4569 0.9693
-7.0764 2.1278 -2.4563 0.9693
-7.1470 1.8743 -2.4560 0.9693
-7.2087 1.6184 -2.4559 0.9693
-7.3051 1.1012 -2.4557 0.9693
-7.3397 0.8403 -2.4557 0.9693
-7.3651 0.5785 -2.4558 0.9693
-7.3864 -0.2104 -2.4563 0.9693
-7.3751 -0.4733 -2.4566 0.9693
-7.3546 -0.7358 -2.4569 0.9693
-7.2382 -1.5168 -2.4583 0.9693
-7.1813 -1.7740 -2.4589 0.9693
-7.1154 -2.0291 -2.4595 0.9693
-6.9569 -2.5319 -2.4609 0.9693
-6.7635 -3.0226 -2.4625 0.9693
-6.6540 -3.2627 -2.4634 0.9692
-6.5361 -3.4989 -2.4643 0.9692
-5.1867 4.5445 -2.4661 0.9711
-5.3435 4.3555 -2.4652 0.9711
-5.6365 3.9617 -2.4637 0.9712
-5.7724 3.7574 -2.4631 0.9712
-5.9011 3.5486 -2.4624 0.9712
-6.0223 3.3354 -2.4619 0.9712
-6.1359 3.1182 -2.4613 0.9712
-6.3400 2.6726 -2.4604 0.9712
-6.4301 2.4447 -2.4600 0.9712
-6.5123 2.2139 -2.4597 0.9712
-6.6520 1.7444 -2.4592 0.9712
-6.7095 1.5064 -2.4591 0.9712
-6.7586 1.2664 -2.4590 0.9712
-6.8314 0.7822 -2.4589 0.9712
-6.8551 0.5384 -2.4590 0.9712
-6.8702 0.2940 -2.4591 0.9712
-6.8748 -0.1958 -2.4595 0.9712
-6.8173 -0.9283 -2.4604 0.9712
-6.7812 -1.1707 -2.4609 0.9712
-6.7365 -1.4117 -2.4613 0.9712
-6.6834 -1.6510 -2.4619 0.9712
-6.1918 -3.0361 -2.4661 0.9711
-6.0820 -3.2558 -2.4670 0.9711
-5.9644 -3.4716 -2.4679 0.9711
-4.5334 4.5821 -2.4701 0.9728
-4.8448 4.2449 -2.4685 0.9728
-4.9913 4.0684 -2.4677 0.9728
-5.1315 3.8870 -2.4670 0.9728
-5.2652 3.7008 -2.4663 0.9728
-5.5126 3.3150 -2.4651 0.9728
-5.7321 2.9130 -2.4640 0.9728
-6.2683 1.4073 -2.4619 0.9729
-6.3142 1.1832 -2.4618 0.9729
-6.3522 0.9575 -2.4618 0.9729
-6.4044 0.5030 -2.4618 0.9729
-6.4185 0.2746 -2.4619 0.9729
-6.4246 0.0459 -2.4621 0.9729
-6.3948 -0.6398 -2.4628 0.9728
-6.2932 -1.3188 -2.4640 0.9728
-6.1860 -1.7641 -2.4651 0.9728
-6.1207 -1.9837 -2.4657 0.9728
-5.9672 -2.4156 -2.4670 0.9728
-5.8791 -2.6274 -2.4677 0.9728
-5.7836 -2.8359 -2.4685 0.9728
-5.5709 -3.2426 -2.4702 0.9728
-4.3971 4.1385 -2.4713 0.9742
-4.5402 3.9781 -2.4706 0.9742
-4.8091 3.6428 -2.4692 0.9743
-5.1665 3.1069 -2.4674 0.9743
-5.2728 2.9203 -2.4669 0.9743
-5.4653 2.5367 -2.4660 0.9743
-5.5513 2.3401 -2.4656 0.9743
-5.7024 1.9386 -2.4650 0.9743
-5.7672 1.7341 -2.4648 0.9743
-5.8249 1.5275 -2.4646 0.9743
-5.9539 0.8975 -2.4643 0.9743
-5.9821 0.6849 -2.4643 0.9743
-6.0106 -0.3858 -2.4650 0.9743
-5.8982 -1.2360 -2.4664 0.9743
-5.7976 -1.6533 -2.4674 0.9743
-5.6679 -2.0628 -2.4686 0.9743
-5.3236 -2.8499 -2.4714 0.9742
-5.2205 -3.0386 -2.4722 0.9742
-4.1324 3.8894 -2.4732 0.9755
-4.2670 3.7387 -2.4725 0.9755
-4.6378 3.2598 -2.4706 0.9756
-4.7499 3.0919 -2.4700 0.9756
-4.8560 2.9201 -2.4695 0.9756
-5.1370 2.3843 -2.4682 0.9756
-5.3599 1.8222 -2.4673 0.9756
-5.4752 1.4358 -2.4669 0.9756
-5.5225 1.2399 -2.4667 0.9756
-5.5630 1.0424 -2.4666 0.9756
-5.6424 0.4432 -2.4666 0.9756
-5.6549 0.2420 -2.4667 0.9756
-5.6602 0.0404 -2.4669 0.9756
-5.6337 -0.5636 -2.4675 0.9756
-5.5809 -0.9634 -2.4682 0.9756
-5.5000 -1.3587 -2.4690 0.9756
-5.3271 -1.9387 -2.4706 0.9756
-5.2559 -2.1277 -2.4712 0.9756
-5.1782 -2.3141 -2.4718 0.9756
-5.0939 -2.4977 -2.4725 0.9755
-5.0032 -2.6783 -2.4732 0.9755
-4.9061 -2.8557 -2.4740 0.9755
-4.0203 3.5225 -2.4742 0.9767
-4.2587 3.2258 -2.4730 0.9767
-4.3699 3.0714 -2.4724 0.9767
-4.4755 2.9132 -2.4719 0.9767
-4.5755 2.7515 -2.4714 0.9767
-4.7581 2.4180 -2.4705 0.9767
-4.9868 1.8960 -2.4695 0.9768
-5.2039 1.1683 -2.4688 0.9768
-5.2421 0.9823 -2.4687 0.9768
-5.2736 0.7949 -2.4687 0.9768
-5.2986 0.6066 -2.4687 0.9768
-5.3169 0.4176 -2.4687 0.9768
-5.3320 -0.1519 -2.4691 0.9768
-5.3236 -0.3417 -2.4693 0.9768
-5.3086 -0.5311 -2.4695 0.9768
-5.2587 -0.9078 -2.4702 0.9768
-5.2238 -1.0947 -2.4705 0.9767
-5.1824 -1.2802 -2.4710 0.9767
-5.0193 -1.8267 -2.4724 0.9767
-4.9522 -2.0047 -2.4730 0.9767
-4.8788 -2.1804 -2.4736 0.9767
-4.7994 -2.3533 -2.4742 0.9767
-4.7138 -2.5234 -2.4749 0.9767
-3.5517 3.5898 -2.4771 0.9778
-3.6763 3.4601 -2.4764 0.9778
-3.9113 3.1881 -2.4752 0.9778
-4.0214 3.0461 -2.4746 0.9778
-4.1264 2.9003 -2.4741 0.9778
-4.2262 2.7510 -2.4736 0.9778
-4.4097 2.4423 -2.4727 0.9778
-4.5710 2.1216 -2.4719 0.9778
-4.6431 1.9573 -2.4716 0.9778
-4.7093 1.7905 -2.4714 0.9778
-4.7696 1.6215 -2.4711 0.9778
-5.0212 0.3944 -2.4706 0.9778
-5.0369 0.0360 -2.4708 0.9778
-5.0353 -0.1434 -2.4709 0.9778
-5.0274 -0.3227 -2.4711 0.9778
-4.9927 -0.6798 -2.4716 0.9778
-4.9330 -1.0337 -2.4723 0.9778
-4.8485 -1.3827 -2.4731 0.9778
-4.6762 -1.8930 -2.4746 0.9778
-4.6070 -2.0588 -2.4752 0.9778
-3.4780 3.2735 -2.4778 0.9787
-3.5915 3.1468 -2.4772 0.9787
-3.9041 2.7440 -2.4756 0.9787
-4.1722 2.3108 -2.4743 0.9787
-4.5129 1.5342 -2.4728 0.9787
-4.6100 1.2089 -2.4725 0.9788
-4.6500 1.0440 -2.4723 0.9788
-4.7122 0.7103 -2.4722 0.9788
-4.7345 0.5421 -2.4722 0.9788
-4.7658 0.0340 -2.4725 0.9788
-4.7568 -0.3053 -2.4728 0.9787
-4.6986 -0.8111 -2.4736 0.9787
-4.6303 -1.1438 -2.4743 0.9787
-4.4242 -1.7910 -2.4761 0.9787
-4.3586 -1.9478 -2.4767 0.9787
-4.2874 -2.1024 -2.4772 0.9787
-4.2109 -2.2542 -2.4778 0.9787
-3.1843 3.2184 -2.4797 0.9796
-3.2960 3.1022 -2.4791 0.9796
-3.6057 2.7312 -2.4775 0.9796
-3.9542 2.1901 -2.4757 0.9796
-4.0990 1.9025 -2.4751 0.9796
-4.1637 1.7552 -2.4748 0.9796
-4.2772 1.4541 -2.4743 0.9796
-4.4072 0.9895 -2.4739 0.9796
-4.4395 0.8319 -2.4738 0.9796
-4.4873 0.5138 -2.4738 0.9796
-4.5029 0.3537 -2.4738 0.9796
-4.5127 0.1931 -2.4739 0.9796
-4.5155 -0.1286 -2.4742 0.9796
-4.5084 -0.2894 -2.4743 0.9796
-4.4956 -0.4498 -2.4746 0.9796
-4.4772 -0.6096 -2.4748 0.9796
-4.4531 -0.7688 -2.4751 0.9796
-4.3883 -1.0841 -2.4758 0.9796
-4.3014 -1.3941 -2.4766 0.9796
-4.1929 -1.6974 -2.4775 0.9796
-3.0221 3.0546 -2.4808 0.9803
-3.2304 2.8305 -2.4797 0.9804
-3.5118 2.4683 -2.4783 0.9804
-3.5969 2.3413 -2.4778 0.9804
-3.6774 2.2114 -2.4775 0.9804
-3.7532 2.0787 -2.4771 0.9804
-4.1474 1.0876 -2.4755 0.9804
-4.1833 0.9392 -2.4754 0.9804
-4.2394 0.6390 -2.4753 0.9804
-4.2835 0.1833 -2.4754 0.9804
-4.2793 -0.2747 -2.4758 0.9804
-4.2672 -0.4269 -2.4760 0.9804
-4.1266 -1.1768 -2.4775 0.9804
-4.0827 -1.3232 -2.4779 0.9804
-3.9205 -1.7521 -2.4792 0.9804
-3.7875 -2.0275 -2.4803 0.9804
-3.7137 -2.1616 -2.4809 0.9803
