ply
format ascii 1.0
element vertex 657
property float32 x
property float32 y
property float32 z
property float32 I
end_header
-1.4646 31.9201 5.6343 0.8783
-3.2561 27.4116 4.8674 0.8939
-4.8040 30.8618 5.5073 0.8809
-5.6220 29.1358 5.2322 0.8865
-6.8036 25.2703 4.6145 0.8992
-8.8617 25.4249 4.7476 0.8964
-9.9456 25.5232 4.8300 0.8947
-12.2481 25.7520 5.0282 0.8906
-15.3203 21.2387 4.6176 0.8991
-41.7980 19.6377 8.1430 0.8290
-38.2409 16.3045 7.3302 0.8446
-37.6745 14.4754 7.1165 0.8488
-38.5436 13.2298 7.1855 0.8475
-43.1815 9.7501 7.8057 0.8354
-1.5421 33.6093 5.1542 0.8727
-2.2485 27.3447 4.2032 0.8949
-3.3103 27.8675 4.2992 0.8926
-6.0446 26.1926 4.1180 0.8969
-7.6345 24.7513 3.9680 0.9005
-8.6449 24.8028 4.0238 0.8992
-9.6924 24.8733 4.0895 0.8976
-10.7850 24.9670 4.1664 0.8958
-15.0290 24.3747 4.3868 0.8906
-16.4856 21.1934 4.1133 0.8970
-42.3241 19.8848 7.1638 0.8276
-37.5150 15.9950 6.2477 0.8479
-44.5925 13.5235 7.1386 0.8281
-42.7782 9.6590 6.7184 0.8374
-43.0566 8.0968 6.7116 0.8375
-2.2655 27.5522 3.6000 0.8945
-5.3426 27.6881 3.6721 0.8925
-6.1219 26.5273 3.5452 0.8960
-8.4524 24.2506 3.3442 0.9016
-9.4685 24.2988 3.3959 0.9001
-10.5196 24.3527 3.4544 0.8985
-13.9825 24.6299 3.6881 0.8920
-14.3374 23.2530 3.5573 0.8957
-14.1932 21.2570 3.3284 0.9020
-15.3668 21.3031 3.4205 0.8995
-16.5816 21.3168 3.5168 0.8968
-42.3711 21.8120 6.2058 0.8251
-44.2226 20.7768 6.3626 0.8211
-42.4543 16.3120 5.9225 0.8324
-43.4389 11.4749 5.8507 0.8342
-45.1233 10.1886 6.0239 0.8298
-2.2827 27.7616 2.9911 0.8940
-3.3414 28.1298 3.0419 0.8923
-5.5092 28.5512 3.1224 0.8896
-6.1257 26.5439 2.9252 0.8962
-8.2694 23.7254 2.6980 0.9039
-10.2845 23.8084 2.7849 0.9009
-13.6192 23.9900 2.9623 0.8950
-13.7118 22.2383 2.8054 0.9002
-14.2154 21.2902 2.7489 0.9021
-15.3673 21.3038 2.8207 0.8997
-17.5868 20.9950 2.9409 0.8957
-37.8951 25.0437 4.8776 0.8330
-41.5769 25.3647 5.2298 0.8221
-45.2369 17.3811 5.2038 0.8229
-42.2630 12.8170 4.7424 0.8372
-3.4058 28.6720 2.4442 0.8906
-4.6432 29.8285 2.5555 0.8859
-5.6149 29.0989 2.5087 0.8878
-6.3824 23.7057 2.0782 0.9061
-8.2360 23.6295 2.1183 0.9044
-9.2120 23.6406 2.1478 0.9032
-10.2170 23.6521 2.1810 0.9017
-11.2550 23.6640 2.2182 0.9002
-12.3304 23.6762 2.2598 0.8984
-13.6081 22.0701 2.1949 0.9011
-14.2159 21.2909 2.1672 0.9023
-15.3429 21.2700 2.2201 0.9001
-35.9796 29.8499 3.9575 0.8289
-35.8204 25.5817 3.7262 0.8380
-40.0060 24.4063 3.9671 0.8285
-4.6373 29.7909 1.8696 0.8862
-7.1212 36.9052 2.3307 0.8602
-6.3832 23.7089 1.5225 0.9063
-6.9964 22.6828 1.4720 0.9093
-7.9478 22.8029 1.4974 0.9078
-10.0082 23.1687 1.5650 0.9038
-12.1052 23.2438 1.6251 0.9003
-13.2259 23.2972 1.6612 0.8982
-13.6118 22.0762 1.6083 0.9013
-15.3432 21.2704 1.6263 0.9002
-16.5562 21.2843 1.6721 0.8976
-20.0379 22.2346 1.8561 0.8870
-35.4666 29.4244 2.8576 0.8314
-35.4910 27.3384 2.7780 0.8357
-39.2845 23.9662 2.8536 0.8316
-5.2268 33.5778 1.3399 0.8728
-6.8716 22.2780 0.9193 0.9109
-6.9906 20.0566 0.8375 0.9185
-9.5532 20.0859 0.8770 0.9148
-10.7532 20.6478 0.9180 0.9110
-11.7582 20.7120 0.9391 0.9091
-12.8155 20.7847 0.9628 0.9069
-14.2165 21.2919 1.0095 0.9026
-15.3436 21.2709 1.0342 0.9003
-20.4833 22.7288 1.2065 0.8847
-22.0422 22.7466 1.2489 0.8809
-30.5850 29.3582 1.6717 0.8439
-30.4493 25.2618 1.5601 0.8535
-30.3933 23.4117 1.5128 0.8576
-36.2127 23.9319 1.7115 0.8405
-37.6238 22.9530 1.7378 0.8383
-42.7577 24.0066 1.9335 0.8218
-0.2977 6.4891 0.1097 0.9743
-6.3849 23.7152 0.4149 0.9064
-7.0698 20.2839 0.3628 0.9177
-9.1081 23.3739 0.4237 0.9045
-10.1017 23.3852 0.4303 0.9031
-12.1913 23.4091 0.4458 0.8998
-13.2308 21.4582 0.4258 0.9041
-14.2168 21.2923 0.4325 0.9026
-15.3689 21.3061 0.4438 0.9002
-5.1146 6.5752 0.1407 0.9672
-22.0156 22.7193 0.5344 0.8811
-28.9258 25.8208 0.6550 0.8563
-28.9179 23.9913 0.6347 0.8604
-28.9335 22.2873 0.6169 0.8641
-31.9717 22.8331 0.6636 0.8546
-10.3582 6.8455 0.2097 0.9515
-44.2327 22.7703 0.8404 0.8195
-0.2977 6.4891 -0.0366 0.9744
-0.5404 6.5724 -0.0371 0.9740
-0.7806 6.5719 -0.0373 0.9739
-1.0229 6.5713 -0.0374 0.9737
-1.5162 6.5703 -0.0380 0.9734
-1.7687 6.5697 -0.0383 0.9732
-2.0262 6.5691 -0.0387 0.9729
-2.2894 6.5685 -0.0392 0.9726
-2.5593 6.5680 -0.0397 0.9722
-3.4195 6.5661 -0.0417 0.9708
-3.7271 6.5654 -0.0425 0.9703
-4.0476 6.5647 -0.0434 0.9696
-4.3827 6.5639 -0.0444 0.9689
-4.7342 6.5632 -0.0456 0.9681
-5.1045 6.5623 -0.0468 0.9673
-5.9070 6.5546 -0.0497 0.9653
-6.8263 6.5526 -0.0533 0.9629
-7.3391 6.5514 -0.0554 0.9614
-7.8952 6.5502 -0.0578 0.9598
-8.5017 6.5489 -0.0604 0.9580
-12.7284 6.5524 -0.0806 0.9443
-13.9408 6.5498 -0.0867 0.9402
-15.3545 6.5467 -0.0940 0.9354
-42.4489 6.4020 -0.2417 0.8422
-0.2977 6.4892 -0.1829 0.9743
-0.7806 6.5719 -0.1863 0.9739
-1.0229 6.5714 -0.1873 0.9737
-1.5162 6.5703 -0.1899 0.9734
-2.0262 6.5692 -0.1936 0.9729
-2.2894 6.5686 -0.1959 0.9725
-2.5593 6.5680 -0.1985 0.9722
-2.8369 6.5674 -0.2014 0.9718
-3.1232 6.5668 -0.2048 0.9713
-3.4195 6.5661 -0.2085 0.9708
-3.7271 6.5654 -0.2126 0.9702
-4.0476 6.5647 -0.2172 0.9696
-4.7342 6.5632 -0.2279 0.9681
-5.4212 6.4719 -0.2377 0.9668
-6.8263 6.5526 -0.2664 0.9628
-8.5018 6.5489 -0.3022 0.9580
-9.1679 6.5475 -0.3172 0.9559
-9.9047 6.5459 -0.3343 0.9536
-15.3547 6.5468 -0.4700 0.9354
-21.2574 6.4467 -0.6255 0.9149
-24.6973 6.5241 -0.7193 0.9028
-28.8382 6.5115 -0.8325 0.8884
-34.5462 6.4965 -0.9898 0.8688
-0.5404 6.5725 -0.3344 0.9739
-1.2679 6.5709 -0.3394 0.9736
-1.5163 6.5703 -0.3420 0.9734
-2.2894 6.5686 -0.3528 0.9725
-2.5593 6.5680 -0.3575 0.9722
-4.0477 6.5648 -0.3911 0.9696
-4.3827 6.5640 -0.4003 0.9689
-4.7343 6.5633 -0.4104 0.9681
-6.8264 6.5527 -0.4799 0.9628
-7.8953 6.5503 -0.5203 0.9597
-8.5019 6.5490 -0.5443 0.9579
-9.1679 6.5475 -0.5713 0.9559
-9.9048 6.5459 -0.6021 0.9536
-10.5899 6.4606 -0.6291 0.9515
-15.3550 6.5468 -0.8465 0.9353
-19.0403 6.5355 -1.0209 0.9225
-28.8389 6.5117 -1.4994 0.8883
-34.5471 6.4966 -1.7827 0.8687
-40.5980 6.1228 -2.0822 0.8484
-0.2977 6.4893 -0.4763 0.9743
-0.7806 6.5720 -0.4853 0.9738
-1.7688 6.5698 -0.4989 0.9731
-2.0262 6.5692 -0.5041 0.9728
-2.2894 6.5687 -0.5100 0.9725
-2.5593 6.5681 -0.5168 0.9721
-2.8369 6.5675 -0.5245 0.9717
-3.1232 6.5668 -0.5332 0.9713
-3.4196 6.5662 -0.5428 0.9707
-3.7272 6.5655 -0.5536 0.9702
-4.7343 6.5633 -0.5934 0.9681
-5.4213 6.4720 -0.6190 0.9667
-5.9071 6.5547 -0.6470 0.9652
-6.3507 6.5538 -0.6691 0.9641
-7.3393 6.5516 -0.7214 0.9613
-7.8954 6.5504 -0.7522 0.9597
-8.5019 6.5491 -0.7869 0.9579
-9.9049 6.5460 -0.8705 0.9535
-11.6748 6.5550 -0.9817 0.9477
-12.7288 6.5527 -1.0497 0.9442
-13.9414 6.5500 -1.1294 0.9401
-19.0405 6.5356 -1.4760 0.9224
-21.2581 6.4470 -1.6288 0.9148
-24.6983 6.5244 -1.8731 0.9026
-30.4133 4.5868 -2.2552 0.8839
-0.2977 6.4893 -0.6237 0.9742
-0.7806 6.5720 -0.6354 0.9738
-1.2679 6.5709 -0.6425 0.9735
-1.7688 6.5698 -0.6532 0.9730
-2.0262 6.5693 -0.6600 0.9728
-2.5593 6.5681 -0.6767 0.9721
-4.0477 6.5648 -0.7404 0.9695
-4.3828 6.5641 -0.7577 0.9688
-5.1047 6.5625 -0.7982 0.9671
-5.9071 6.5548 -0.8471 0.9652
-6.3507 6.5538 -0.8761 0.9640
-8.5020 6.5491 -1.0303 0.9578
-9.9050 6.5460 -1.1398 0.9534
-11.6749 6.5551 -1.2854 0.9476
-13.9416 6.5501 -1.4788 0.9400
-15.3554 6.5470 -1.6026 0.9351
-22.1711 5.8567 -2.2015 0.9120
-23.9882 4.5110 -2.3434 0.9066
-24.1338 3.6398 -2.3432 0.9066
-0.2977 6.4893 -0.7716 0.9742
-0.5404 6.5726 -0.7834 0.9738
-1.0229 6.5715 -0.7900 0.9736
-1.7688 6.5699 -0.8082 0.9730
-2.0262 6.5693 -0.8166 0.9727
-2.5594 6.5681 -0.8373 0.9720
-3.4196 6.5663 -0.8794 0.9706
-4.3828 6.5642 -0.9376 0.9687
-5.1047 6.5626 -0.9876 0.9671
-6.3508 6.5539 -1.0840 0.9639
-6.8266 6.5528 -1.1240 0.9626
-7.8955 6.5505 -1.2186 0.9595
-8.5021 6.5492 -1.2748 0.9577
-10.5902 6.4608 -1.4736 0.9513
-12.7291 6.5528 -1.7006 0.9440
-13.9417 6.5502 -1.8297 0.9398
-15.3556 6.5471 -1.9829 0.9350
-18.1388 4.7915 -2.2285 0.9272
-19.4831 4.3992 -2.3726 0.9227
-19.6269 3.6908 -2.3723 0.9227
-0.5404 6.5726 -0.9344 0.9737
-0.7806 6.5721 -0.9377 0.9736
-1.2679 6.5710 -0.9482 0.9733
-1.5163 6.5705 -0.9554 0.9731
-1.7688 6.5699 -0.9640 0.9729
-2.0262 6.5694 -0.9741 0.9726
-2.2895 6.5688 -0.9856 0.9723
-2.5594 6.5682 -0.9988 0.9719
-4.0478 6.5649 -1.0928 0.9693
-4.7344 6.5634 -1.1467 0.9678
-5.1047 6.5626 -1.1780 0.9670
-8.5021 6.5492 -1.5206 0.9576
-10.5904 6.4609 -1.7577 0.9511
-11.6752 6.5552 -1.8972 0.9473
-12.7293 6.5529 -2.0286 0.9438
-14.6083 6.2284 -2.2501 0.9379
-15.0093 5.1519 -2.2485 0.9379
-16.5937 3.1204 -2.3924 0.9341
-16.7750 1.9121 -2.3922 0.9341
-0.2977 6.4894 -1.0702 0.9740
-0.5404 6.5726 -1.0864 0.9736
-1.0229 6.5716 -1.0956 0.9734
-1.5163 6.5705 -1.1109 0.9730
-1.7688 6.5700 -1.1209 0.9728
-2.5594 6.5682 -1.1613 0.9718
-2.8370 6.5676 -1.1786 0.9714
-3.1233 6.5670 -1.1980 0.9710
-3.4196 6.5663 -1.2196 0.9704
-3.7273 6.5657 -1.2438 0.9699
-4.0478 6.5650 -1.2705 0.9692
-4.3828 6.5642 -1.3003 0.9685
-4.7344 6.5635 -1.3332 0.9677
-5.4215 6.4722 -1.3909 0.9664
-5.9072 6.5549 -1.4536 0.9649
-6.3509 6.5540 -1.5034 0.9637
-6.8267 6.5529 -1.5589 0.9624
-7.3396 6.5518 -1.6208 0.9609
-7.8957 6.5506 -1.6901 0.9593
-8.5022 6.5493 -1.7680 0.9574
-9.9053 6.5462 -1.9559 0.9530
-11.6754 6.5553 -2.2058 0.9472
-12.2268 6.2942 -2.2655 0.9458
-12.4411 5.8451 -2.2645 0.9458
-12.6395 5.3890 -2.2636 0.9458
-14.1308 3.7328 -2.4078 0.9425
-14.3602 2.7004 -2.4072 0.9425
-14.5172 1.6548 -2.4070 0.9425
-0.2977 6.4894 -1.2210 0.9739
-0.7806 6.5722 -1.2440 0.9734
-1.0229 6.5716 -1.2501 0.9733
-1.5163 6.5705 -1.2675 0.9729
-1.7688 6.5700 -1.2789 0.9727
-2.0263 6.5694 -1.2922 0.9724
-2.8370 6.5677 -1.3447 0.9713
-3.1233 6.5670 -1.3668 0.9708
-3.4197 6.5664 -1.3916 0.9703
-3.7273 6.5657 -1.4191 0.9697
-4.3829 6.5643 -1.4836 0.9684
-4.7345 6.5635 -1.5211 0.9676
-5.1048 6.5627 -1.5628 0.9667
-6.3509 6.5540 -1.7154 0.9635
-6.8267 6.5530 -1.7786 0.9622
-7.3396 6.5519 -1.8493 0.9607
-7.8957 6.5507 -1.9283 0.9591
-9.1685 6.5479 -2.1177 0.9552
-10.1142 6.6842 -2.2787 0.9519
-10.7641 5.5412 -2.2756 0.9519
-10.9532 5.1461 -2.2747 0.9519
-12.1776 4.1799 -2.4200 0.9489
-12.3182 3.7357 -2.4195 0.9490
-12.4432 3.2870 -2.4191 0.9490
-12.7227 1.9188 -2.4184 0.9490
-12.7838 1.4572 -2.4184 0.9490
-0.5404 6.5727 -1.3940 0.9734
-0.7807 6.5722 -1.3990 0.9733
-1.0229 6.5717 -1.4058 0.9732
-2.2895 6.5689 -1.4704 0.9720
-2.8370 6.5677 -1.5122 0.9712
-3.1234 6.5671 -1.5371 0.9707
-3.7273 6.5658 -1.5959 0.9696
-4.0479 6.5651 -1.6303 0.9690
-4.3829 6.5643 -1.6684 0.9682
-4.7345 6.5636 -1.7107 0.9675
-5.9073 6.5550 -1.8652 0.9646
-6.8268 6.5530 -2.0003 0.9621
-7.8958 6.5507 -2.1686 0.9589
-8.5780 6.6076 -2.2888 0.9567
-9.0242 5.9638 -2.2865 0.9567
-9.2299 5.6308 -2.2854 0.9568
-10.5751 4.5089 -2.4301 0.9541
-10.7285 4.1221 -2.4294 0.9541
-10.8681 3.7304 -2.4289 0.9541
-11.1055 2.9336 -2.4280 0.9541
-11.2030 2.5296 -2.4277 0.9541
-11.3554 1.7126 -2.4274 0.9541
-0.5404 6.5728 -1.5499 0.9733
-0.7807 6.5722 -1.5555 0.9732
-1.0229 6.5717 -1.5631 0.9730
-1.2679 6.5712 -1.5728 0.9729
-1.5163 6.5706 -1.5848 0.9727
-1.7688 6.5701 -1.5991 0.9724
-2.2895 6.5689 -1.6349 0.9718
-2.5594 6.5683 -1.6568 0.9714
-3.1234 6.5671 -1.7091 0.9706
-3.4197 6.5665 -1.7400 0.9700
-3.7274 6.5658 -1.7744 0.9695
-4.3829 6.5644 -1.8550 0.9681
-5.1049 6.5628 -1.9541 0.9664
-5.4216 6.4723 -1.9843 0.9659
-6.8268 6.5531 -2.2240 0.9619
-7.2917 6.5090 -2.2972 0.9606
-7.9421 5.6720 -2.2937 0.9607
-8.3243 5.0784 -2.2917 0.9607
-8.4994 4.7721 -2.2909 0.9607
-9.3882 4.4108 -2.4378 0.9583
-9.5390 4.0671 -2.4372 0.9583
-9.6776 3.7184 -2.4366 0.9583
-9.8037 3.3651 -2.4360 0.9583
-10.0182 2.6464 -2.4353 0.9583
-10.1064 2.2820 -2.4350 0.9583
-10.1816 1.9147 -2.4349 0.9583
-1.7688 6.5701 -1.7617 0.9723
-2.0263 6.5695 -1.7800 0.9720
-2.8370 6.5678 -1.8524 0.9709
-3.1234 6.5671 -1.8829 0.9704
-3.7274 6.5658 -1.9548 0.9693
-4.0479 6.5651 -1.9970 0.9686
-4.7346 6.5637 -2.0954 0.9671
-5.1049 6.5628 -2.1528 0.9662
-5.9616 6.6152 -2.3057 0.9639
-6.6325 5.9206 -2.3020 0.9639
-6.8391 5.6740 -2.3008 0.9639
-7.2251 5.1599 -2.2988 0.9640
-7.4040 4.8931 -2.2978 0.9640
-7.6718 4.6802 -2.3268 0.9635
-8.3937 4.3210 -2.4443 0.9617
-8.5421 4.0133 -2.4436 0.9618
-9.0242 2.7368 -2.4416 0.9618
-9.3217 1.4059 -2.4408 0.9618
-9.3664 1.0677 -2.4408 0.9618
-0.2977 6.4896 -1.8391 0.9734
-0.7807 6.5723 -1.8736 0.9729
-1.0229 6.5718 -1.8828 0.9727
-2.0263 6.5696 -1.9462 0.9718
-2.2896 6.5690 -1.9693 0.9715
-2.5595 6.5684 -1.9956 0.9711
-2.8371 6.5678 -2.0253 0.9707
-3.4197 6.5665 -2.0959 0.9697
-3.7274 6.5659 -2.1374 0.9691
-4.0479 6.5652 -2.1834 0.9684
-4.7805 6.6273 -2.3133 0.9666
-5.0143 6.4462 -2.3120 0.9666
-5.2413 6.2570 -2.3107 0.9666
-5.6740 5.8554 -2.3082 0.9667
-6.4475 4.9665 -2.3040 0.9667
-6.6204 4.7281 -2.3031 0.9667
-7.0664 4.6700 -2.3978 0.9654
-7.5460 4.2368 -2.4499 0.9647
-7.6922 3.9598 -2.4492 0.9647
-7.8283 3.6779 -2.4486 0.9647
-8.0703 3.1008 -2.4475 0.9647
-8.1758 2.8063 -2.4471 0.9647
-8.3551 2.2071 -2.4464 0.9647
-8.4288 1.9032 -2.4462 0.9647
-0.2978 6.4896 -1.9981 0.9732
-0.7807 6.5723 -2.0357 0.9727
-1.0230 6.5718 -2.0457 0.9725
-2.2896 6.5690 -2.1397 0.9713
-3.1234 6.5672 -2.2367 0.9700
-3.4865 6.6946 -2.3216 0.9689
-3.9568 6.4172 -2.3188 0.9689
-4.1839 6.2662 -2.3175 0.9690
-4.6210 5.9407 -2.3149 0.9690
-4.8305 5.7666 -2.3137 0.9690
-5.0334 5.5852 -2.3126 0.9690
-5.2297 5.3969 -2.3115 0.9690
-6.4988 4.6413 -2.4563 0.9671
-6.8130 4.1564 -2.4547 0.9672
-6.9569 3.9060 -2.4540 0.9672
-7.0918 3.6507 -2.4533 0.9672
-7.3339 3.1269 -2.4522 0.9672
-7.4408 2.8590 -2.4518 0.9672
-7.6258 2.3127 -2.4510 0.9672
-7.7716 1.7548 -2.4506 0.9672
-7.8296 1.4724 -2.4504 0.9672
-7.9154 0.9023 -2.4504 0.9672
-1.0229 6.5719 -2.2108 0.9724
-1.2679 6.5713 -2.2246 0.9722
-1.5164 6.5708 -2.2415 0.9720
-1.7689 6.5702 -2.2617 0.9717
-2.5427 6.5252 -2.3279 0.9709
-3.2290 6.2002 -2.3237 0.9710
-3.4493 6.0758 -2.3224 0.9710
-4.4748 5.3420 -2.3164 0.9711
-5.0206 4.8193 -2.3133 0.9711
-5.2529 4.6890 -2.3406 0.9708
-5.6296 4.6705 -2.4315 0.9696
-5.8641 4.5171 -2.4605 0.9693
-6.0217 4.3005 -2.4597 0.9693
-6.1714 4.0785 -2.4589 0.9693
-6.3131 3.8514 -2.4582 0.9693
-6.5717 3.3830 -2.4569 0.9693
-6.6883 3.1423 -2.4564 0.9693
-6.7963 2.8977 -2.4559 0.9693
-6.9858 2.3978 -2.4551 0.9693
-7.2561 1.3645 -2.4542 0.9694
-7.3356 0.8362 -2.4542 0.9694
-0.5364 6.5239 -2.3409 0.9726
-0.7716 6.4960 -2.3394 0.9726
-1.2378 6.4151 -2.3364 0.9726
-1.4683 6.3622 -2.3350 0.9726
-1.6964 6.3011 -2.3335 0.9727
-1.9222 6.2318 -2.3321 0.9727
-2.3651 6.0694 -2.3294 0.9727
-2.5816 5.9765 -2.3281 0.9727
-3.0038 5.7678 -2.3255 0.9728
-3.7967 5.2635 -2.3209 0.9728
-4.3389 4.8146 -2.3177 0.9728
-4.5477 4.6930 -2.3370 0.9726
-4.8725 4.6771 -2.4153 0.9717
-5.4573 4.2037 -2.4634 0.9712
-5.6040 4.0022 -2.4627 0.9712
-6.1164 3.1486 -2.4601 0.9712
-6.3256 2.6970 -2.4591 0.9712
-6.6451 1.7554 -2.4579 0.9712
-6.7538 1.2701 -2.4576 0.9712
-6.8279 0.7783 -2.4575 0.9712
-0.2802 6.1072 -2.3429 0.9742
-0.9386 6.0301 -2.3387 0.9742
-1.1556 5.9887 -2.3373 0.9742
-1.7946 5.8183 -2.3333 0.9743
-2.0029 5.7464 -2.3320 0.9743
-2.9965 5.2784 -2.3260 0.9743
-3.1841 5.1641 -2.3249 0.9743
-3.3673 5.0431 -2.3238 0.9744
-3.5459 4.9158 -2.3228 0.9744
-3.7198 4.7822 -2.3218 0.9744
-3.9321 4.6941 -2.3466 0.9741
-4.2179 4.6803 -2.4144 0.9734
-4.4842 4.6275 -2.4694 0.9728
-4.8037 4.2880 -2.4676 0.9728
-5.0979 3.9269 -2.4660 0.9728
-5.2351 3.7387 -2.4653 0.9728
-5.3654 3.5459 -2.4646 0.9728
-5.7141 2.9415 -2.4629 0.9728
-5.9096 2.5197 -2.4620 0.9729
-6.0747 2.0851 -2.4613 0.9729
-6.1455 1.8637 -2.4610 0.9729
-6.2084 1.6400 -2.4608 0.9729
-6.2632 1.4142 -2.4606 0.9729
-6.3100 1.1866 -2.4605 0.9729
-0.4689 5.7030 -2.3420 0.9756
-0.6746 5.6792 -2.3407 0.9756
-0.8792 5.6479 -2.3394 0.9756
-1.2839 5.5635 -2.3368 0.9756
-1.6811 5.4503 -2.3344 0.9756
-1.8762 5.3831 -2.3332 0.9757
-2.2584 5.2281 -2.3308 0.9757
-2.6280 5.0462 -2.3286 0.9757
-2.8076 4.9456 -2.3275 0.9757
-3.1551 4.7254 -2.3255 0.9757
-3.8804 4.6325 -2.4733 0.9742
-4.0440 4.4874 -2.4723 0.9742
-4.3549 4.1802 -2.4706 0.9742
-4.6428 3.8518 -2.4690 0.9743
-4.7777 3.6803 -2.4683 0.9743
-4.9064 3.5040 -2.4676 0.9743
-5.0287 3.3233 -2.4670 0.9743
-5.1444 3.1384 -2.4664 0.9743
-5.2534 2.9496 -2.4658 0.9743
-5.5391 2.3617 -2.4645 0.9743
-5.6202 2.1594 -2.4641 0.9743
-5.6939 1.9544 -2.4638 0.9743
-5.7603 1.7469 -2.4636 0.9743
-5.8707 1.3256 -2.4632 0.9743
-5.9509 0.8975 -2.4631 0.9743
-0.8259 5.3054 -2.3400 0.9768
-1.0168 5.2693 -2.3388 0.9769
-1.2061 5.2264 -2.3376 0.9769
-1.3937 5.1768 -2.3365 0.9769
-1.5794 5.1204 -2.3353 0.9769
-1.7627 5.0575 -2.3342 0.9769
-1.9437 4.9880 -2.3331 0.9769
-2.4693 4.7415 -2.3299 0.9769
-2.6674 4.6986 -2.3547 0.9767
-3.1238 4.6785 -2.4517 0.9758
-3.3248 4.6092 -2.4769 0.9755
-3.8005 4.2172 -2.4741 0.9755
-4.0928 3.9287 -2.4725 0.9755
-4.3636 3.6202 -2.4710 0.9756
-4.4905 3.4590 -2.4703 0.9756
-4.6115 3.2934 -2.4697 0.9756
-4.8353 2.9499 -2.4685 0.9756
-4.9379 2.7724 -2.4680 0.9756
-5.2066 2.2199 -2.4668 0.9756
-5.2828 2.0298 -2.4664 0.9756
-5.4146 1.6421 -2.4659 0.9756
-5.4701 1.4450 -2.4657 0.9756
-5.5597 1.0455 -2.4655 0.9756
-0.2321 5.0587 -2.3441 0.9779
-0.4147 5.0445 -2.3429 0.9779
-0.9576 4.9626 -2.3395 0.9780
-1.3127 4.8757 -2.3372 0.9780
-1.4875 4.8228 -2.3362 0.9780
-1.6603 4.7636 -2.3351 0.9780
-1.8361 4.7119 -2.3408 0.9780
-2.2313 4.6914 -2.4047 0.9774
-2.4389 4.6832 -2.4441 0.9770
-2.6464 4.6615 -2.4812 0.9766
-2.9742 4.4544 -2.4793 0.9767
-3.1323 4.3423 -2.4783 0.9767
-3.2862 4.2246 -2.4775 0.9767
-3.9864 3.5585 -2.4735 0.9767
-4.4536 2.9432 -2.4710 0.9767
-4.6529 2.6124 -2.4700 0.9768
-4.7435 2.4419 -2.4696 0.9768
-4.8280 2.2683 -2.4692 0.9768
-4.9780 1.9127 -2.4685 0.9768
-5.0435 1.7311 -2.4682 0.9768
-5.2391 0.9852 -2.4676 0.9768
-0.3915 4.7611 -2.3433 0.9789
-0.5632 4.7416 -2.3422 0.9790
-1.2652 4.6992 -2.3871 0.9786
-2.0092 4.6513 -2.4853 0.9777
-2.3385 4.4902 -2.4833 0.9777
-2.4984 4.4010 -2.4824 0.9777
-2.6551 4.3061 -2.4815 0.9777
-2.9574 4.0998 -2.4797 0.9777
-3.1027 3.9888 -2.4788 0.9777
-3.2440 3.8726 -2.4780 0.9777
-3.8824 3.2210 -2.4745 0.9778
-3.9954 3.0776 -2.4739 0.9778
-4.2056 2.7794 -2.4727 0.9778
-4.4795 2.3060 -2.4714 0.9778
-4.8185 1.4613 -2.4699 0.9778
-4.9781 0.7508 -2.4695 0.9778
-5.0020 0.5702 -2.4695 0.9778
-0.2154 4.6947 -2.4381 0.9790
-1.5786 4.5291 -2.4882 0.9786
-1.7407 4.4672 -2.4872 0.9786
-2.6564 3.9785 -2.4817 0.9787
-3.0689 3.6636 -2.4793 0.9787
-3.1985 3.5491 -2.4786 0.9787
-3.5613 3.1791 -2.4766 0.9787
-3.6731 3.0474 -2.4760 0.9787
-3.7801 2.9118 -2.4754 0.9787
-3.8821 2.7725 -2.4748 0.9787
-3.9791 2.6297 -2.4743 0.9787
-4.1573 2.3342 -2.4734 0.9787
-4.3839 1.8691 -2.4724 0.9788
-4.4482 1.7091 -2.4721 0.9788
-4.5067 1.5469 -2.4719 0.9788
-4.5593 1.3827 -2.4717 0.9788
-4.6061 1.2167 -2.4715 0.9788
-4.6817 0.8804 -2.4713 0.9788
-0.3735 4.5419 -2.4960 0.9794
-0.7004 4.4993 -2.4939 0.9794
-0.8624 4.4691 -2.4929 0.9795
-1.0231 4.4332 -2.4919 0.9795
-1.1823 4.3915 -2.4909 0.9795
-1.4956 4.2912 -2.4890 0.9795
-1.6493 4.2327 -2.4880 0.9795
-1.8007 4.1687 -2.4871 0.9795
-1.9497 4.0993 -2.4862 0.9795
-2.0960 4.0246 -2.4853 0.9795
-2.2394 3.9448 -2.4845 0.9795
-2.6512 3.6753 -2.4820 0.9795
-2.7815 3.5759 -2.4813 0.9796
-2.9083 3.4719 -2.4805 0.9796
-3.0311 3.3634 -2.4798 0.9796
-3.1500 3.2506 -2.4792 0.9796
-3.2647 3.1337 -2.4785 0.9796
-3.5825 2.7596 -2.4768 0.9796
-3.6792 2.6276 -2.4763 0.9796
-3.7712 2.4923 -2.4758 0.9796
-3.8582 2.3538 -2.4754 0.9796
-4.0171 2.0679 -2.4746 0.9796
-4.0887 1.9210 -2.4742 0.9796
-4.1550 1.7716 -2.4739 0.9796
-4.2159 1.6199 -2.4737 0.9796
-4.2714 1.4661 -2.4734 0.9796
-4.3213 1.3105 -2.4733 0.9796
-4.4373 0.8344 -2.4729 0.9796
-4.4645 0.6733 -2.4729 0.9796
-0.1983 4.3210 -2.4973 0.9802
-0.3543 4.3092 -2.4963 0.9802
-0.6645 4.2690 -2.4944 0.9802
-0.8182 4.2405 -2.4934 0.9803
-1.1219 4.1670 -2.4915 0.9803
-1.2714 4.1222 -2.4906 0.9803
-1.4193 4.0720 -2.4897 0.9803
-1.7088 3.9558 -2.4879 0.9803
-1.8502 3.8901 -2.4870 0.9803
-2.7601 3.2951 -2.4817 0.9803
-2.8768 3.1922 -2.4810 0.9803
-3.3040 2.7411 -2.4786 0.9804
-3.4003 2.6193 -2.4781 0.9804
-3.5795 2.3656 -2.4772 0.9804
-3.6621 2.2341 -2.4767 0.9804
-3.8130 1.9629 -2.4760 0.9804
-4.0545 1.3917 -2.4749 0.9804
-4.2120 0.7921 -2.4744 0.9804
-4.2582 0.4854 -2.4744 0.9804
