ply
format ascii 1.0
element vertex 611
property float32 x
property float32 y
property float32 z
property float32 I
end_header
-37.9525 -6.7876 6.7982 0.8550
-21.8496 -6.4240 4.0157 0.9116
-21.0841 -7.9025 3.9703 0.9126
-20.2962 -8.4600 3.8772 0.9146
-12.5189 -7.5081 2.5740 0.9424
-33.8373 -22.0029 7.1169 0.8488
-28.4232 -21.5719 6.2918 0.8651
-26.3406 -21.5427 6.0001 0.8709
-22.7288 -21.5241 5.5196 0.8806
-19.6382 -21.5090 5.1356 0.8884
-6.0677 -7.1509 1.6537 0.9626
-5.8892 -7.4747 1.6779 0.9621
-4.9076 -7.2562 1.5446 0.9650
-4.5312 -7.8771 1.6024 0.9638
-3.9046 -8.0965 1.5850 0.9641
-3.5370 -8.0709 1.5538 0.9648
-3.2447 -8.2019 1.5553 0.9648
-6.7369 -21.4695 3.9677 0.9127
-40.0010 -7.1540 6.2252 0.8484
-38.9072 -8.4271 6.0986 0.8512
-21.7832 -6.4044 3.4783 0.9122
-22.1183 -7.3857 3.5723 0.9100
-19.7337 -8.2255 3.2752 0.9171
-39.9097 -22.0055 6.9818 0.8316
-12.5185 -7.5079 2.2362 0.9426
-24.4613 -21.5347 4.9926 0.8764
-21.1294 -21.5179 4.6200 0.8851
-6.0376 -7.1154 1.4296 0.9629
-5.8594 -7.4369 1.4504 0.9624
-4.8384 -7.1540 1.3231 0.9657
-4.7958 -7.6778 1.3868 0.9640
-4.3704 -7.5975 1.3427 0.9652
-4.2494 -8.0504 1.3945 0.9638
-3.8697 -8.0241 1.3647 0.9646
-3.5060 -8.0002 1.3381 0.9653
-3.5134 -8.8811 1.4631 0.9621
-3.1701 -8.9510 1.4547 0.9623
-6.7366 -21.4686 3.4470 0.9130
-39.5803 -7.0787 5.2360 0.8503
-21.7175 -6.3851 2.9478 0.9127
-22.1369 -8.2971 3.0785 0.9090
-20.3638 -8.4882 2.8729 0.9149
-19.9777 -9.1925 2.8637 0.9151
-39.1575 -21.5907 5.8229 0.8350
-33.1881 -21.5807 5.1551 0.8524
-28.4184 -21.5682 4.6458 0.8660
-24.4612 -21.5346 4.2439 0.8768
-22.7292 -21.5245 4.0764 0.8814
-21.1296 -21.5181 3.9272 0.8855
-6.0079 -7.0805 1.2092 0.9632
-5.8302 -7.3999 1.2268 0.9627
-5.6417 -7.7217 1.2453 0.9622
-4.7717 -7.0552 1.1091 0.9662
-4.7265 -7.5669 1.1618 0.9647
-4.2112 -7.9779 1.1747 0.9643
-3.4935 -7.9717 1.1334 0.9655
-39.4544 -7.0562 4.3039 0.8511
-21.3831 -8.0145 2.4521 0.9122
-21.3183 -8.8860 2.4801 0.9113
-19.8769 -9.1461 2.3495 0.9157
-39.1588 -21.5915 4.8018 0.8354
-12.5178 -7.5074 1.5674 0.9430
-33.1855 -21.5791 4.2507 0.8528
-21.1297 -21.5183 3.2384 0.8857
-5.5742 -7.6294 1.0146 0.9627
-4.8643 -7.1923 0.9324 0.9657
-3.6126 -7.4909 0.8930 0.9671
-3.7748 -8.6136 1.0099 0.9629
-39.0919 -6.9914 3.3617 0.8526
-21.5414 -7.1931 1.9225 0.9129
-21.1984 -7.9453 1.9164 0.9131
-20.9383 -8.7276 1.9203 0.9130
-42.8274 -21.6245 4.0614 0.8248
-12.5174 -7.5072 1.2356 0.9431
-33.1830 -21.5774 3.3507 0.8531
-30.6684 -21.5665 3.1738 0.8603
-22.7296 -21.5248 2.6500 0.8819
-19.6395 -21.5104 2.4657 0.8897
-18.2475 -21.5050 2.3875 0.8930
-5.7666 -7.3191 0.7888 0.9633
-5.5087 -7.5397 0.7905 0.9632
-4.5947 -7.3559 0.7342 0.9658
-4.6340 -8.0560 0.7867 0.9634
-4.0639 -8.4268 0.7920 0.9631
-3.7373 -8.5280 0.7882 0.9633
-7.6036 -21.4689 1.9280 0.9126
-6.7358 -21.4659 1.9045 0.9136
-38.2878 -8.2929 2.4293 0.8547
-21.9032 -7.3139 1.4319 0.9116
-20.9392 -8.7280 1.4067 0.9131
-42.8228 -21.6222 2.9748 0.8251
-12.5170 -7.5070 0.9051 0.9432
-28.4113 -21.5628 2.2117 0.8668
-26.3399 -21.5421 2.1100 0.8725
-22.7298 -21.5250 1.9412 0.8821
-21.1301 -21.5186 1.8701 0.8862
-4.6495 -7.4435 0.5442 0.9654
-4.7598 -8.2745 0.5919 0.9625
-4.0702 -7.7108 0.5407 0.9657
-3.7006 -8.4443 0.5717 0.9637
-3.3802 -8.5446 0.5698 0.9638
-6.7355 -21.4650 1.3950 0.9138
-38.6564 -6.9135 1.5485 0.8545
-38.2370 -8.2819 1.5427 0.8550
-21.5188 -7.1855 0.8946 0.9132
-20.6234 -8.5964 0.8810 0.9144
-30.6668 -21.5654 1.4783 0.8606
-28.4089 -21.5610 1.4063 0.8670
-24.4607 -21.5341 1.2850 0.8777
-18.2481 -21.5056 1.1122 0.8932
-5.0901 -7.5261 0.3583 0.9643
-4.6576 -8.0969 0.3683 0.9633
-3.9795 -7.5390 0.3361 0.9664
-3.9846 -8.2624 0.3617 0.9639
-7.6030 -21.4671 0.8980 0.9129
-22.4031 -7.4808 0.3990 0.9098
-42.8137 -21.6176 0.8102 0.8254
-33.1756 -21.5726 0.6685 0.8536
-28.4066 -21.5592 0.6024 0.8670
-26.3396 -21.5418 0.5748 0.8727
-22.7302 -21.5254 0.5288 0.8823
-19.6404 -21.5114 0.4920 0.8900
-16.9371 -21.4969 0.4623 0.8963
-5.3434 -7.3135 0.1530 0.9644
-5.1351 -7.5927 0.1548 0.9640
-4.6980 -8.1671 0.1592 0.9630
-3.9463 -8.1829 0.1535 0.9643
-3.6297 -8.2824 0.1527 0.9645
-8.4933 -21.4693 0.3900 0.9118
-7.6027 -21.4662 0.3847 0.9129
-6.7349 -21.4632 0.3800 0.9139
-39.1651 -21.5950 -0.2518 0.8362
-28.4042 -21.5574 -0.2008 0.8671
-19.6407 -21.5117 -0.1640 0.8900
-18.2486 -21.5063 -0.1588 0.8933
-15.7012 -21.4900 -0.1498 0.8990
-5.0696 -7.4957 -0.0509 0.9645
-4.8579 -7.7772 -0.0516 0.9640
-4.5349 -7.8835 -0.0512 0.9643
-9.4107 -21.4737 -0.1320 0.9105
-8.4929 -21.4684 -0.1300 0.9118
-7.6023 -21.4653 -0.1282 0.9129
-6.7346 -21.4623 -0.1266 0.9140
-39.1664 -21.5956 -1.2594 0.8361
-28.4019 -21.5556 -1.0040 0.8670
-26.3394 -21.5416 -0.9581 0.8727
-24.4604 -21.5338 -0.9176 0.8777
-22.7305 -21.5257 -0.8815 0.8823
-18.2489 -21.5066 -0.7942 0.8933
-16.9377 -21.4976 -0.7706 0.8963
-15.7014 -21.4904 -0.7494 0.8990
-5.0056 -7.4012 -0.2516 0.9649
-9.4101 -21.4724 -0.6601 0.9105
-43.6795 1.7910 -2.2170 0.8394
-43.7350 0.2036 -2.2180 0.8393
-43.7395 -1.3857 -2.2193 0.8392
-43.5946 -4.5645 -2.2229 0.8390
-41.8139 -5.9202 -2.1417 0.8444
-40.6107 -7.2630 -2.0922 0.8477
-41.9279 -14.0005 -2.2417 0.8377
-41.4708 -15.5435 -2.2460 0.8375
-40.9625 -17.0742 -2.2506 0.8372
-39.2999 -19.8434 -2.2327 0.8383
-12.5186 -7.5080 -0.7403 0.9432
-33.1681 -21.5677 -2.0065 0.8535
-30.6638 -21.5633 -1.9011 0.8606
-24.4602 -21.5337 -1.6527 0.8776
-22.7307 -21.5259 -1.5876 0.8822
-18.2492 -21.5070 -1.4304 0.8932
-15.7017 -21.4907 -1.3498 0.8989
-14.5351 -21.4912 -1.3158 0.9013
-4.5536 -7.9162 -0.4631 0.9641
-11.3379 -21.4790 -1.2317 0.9073
-9.4096 -21.4712 -1.1889 0.9104
-7.6017 -21.4635 -1.1548 0.9128
-31.3123 1.2839 -2.2978 0.8819
-31.2278 -3.2697 -2.3022 0.8817
-28.8916 -6.2577 -2.1675 0.8882
-29.9621 -10.0049 -2.3161 0.8810
-29.6192 -11.1015 -2.3193 0.8809
-29.2391 -12.1876 -2.3227 0.8807
-28.8221 -13.2621 -2.3263 0.8805
-27.8779 -15.3714 -2.3342 0.8801
-26.7892 -17.4199 -2.3430 0.8797
-26.1916 -18.4184 -2.3477 0.8795
-22.7177 -19.9997 -2.2192 0.8857
-21.1301 -21.5186 -2.2113 0.8861
-18.2495 -21.5073 -2.0682 0.8930
-9.4090 -21.4699 -1.7188 0.9103
-24.3288 1.8845 -2.3427 0.9066
-24.3852 0.9999 -2.3431 0.9066
-24.4114 0.1136 -2.3436 0.9066
-24.3734 -1.6599 -2.3454 0.9065
-24.2147 -3.4284 -2.3479 0.9064
-24.0901 -4.3084 -2.3495 0.9063
-23.9355 -5.1843 -2.3512 0.9063
-22.1031 -6.4985 -2.2118 0.9116
-21.6171 -8.1022 -2.2163 0.9114
-21.3328 -8.8920 -2.2188 0.9113
-22.3845 -10.2999 -2.3656 0.9057
-22.0239 -11.1203 -2.3686 0.9056
-21.6348 -11.9290 -2.3719 0.9055
-20.7723 -13.5074 -2.3788 0.9052
-20.2998 -14.2751 -2.3825 0.9051
-19.8002 -15.0274 -2.3864 0.9049
-19.2740 -15.7632 -2.3904 0.9048
-18.7215 -16.4817 -2.3946 0.9046
-18.1435 -17.1819 -2.3990 0.9045
-16.9126 -18.5238 -2.4081 0.9041
-15.5646 -19.7548 -2.4145 0.9039
-14.4403 -19.7642 -2.3500 0.9063
-4.5470 -7.9047 -0.8755 0.9640
-11.1606 -21.1432 -2.2953 0.9084
-9.4085 -21.4686 -2.2503 0.9101
-7.6011 -21.4617 -2.1858 0.9126
-19.9066 1.5420 -2.3717 0.9227
-19.9521 0.8181 -2.3720 0.9227
-19.9726 0.0930 -2.3725 0.9227
-19.9683 -0.6326 -2.3731 0.9227
-19.9389 -1.3579 -2.3739 0.9227
-19.8845 -2.0820 -2.3749 0.9226
-19.5718 -4.2391 -2.3788 0.9225
-17.6639 -6.6206 -2.2408 0.9268
-16.8890 -8.5277 -2.2474 0.9266
-12.5208 -7.5093 -1.7343 0.9429
-16.9491 -11.0212 -2.4015 0.9218
-16.5587 -11.6444 -2.4046 0.9217
-14.2846 -14.5473 -2.4218 0.9212
-12.1065 -16.5701 -2.4377 0.9207
-11.5167 -17.0283 -2.4419 0.9205
-10.9099 -17.4661 -2.4462 0.9204
-8.9947 -18.6510 -2.4597 0.9200
-8.3271 -19.0011 -2.4643 0.9198
-7.6460 -19.3278 -2.4690 0.9197
-6.9524 -19.6305 -2.4738 0.9195
-6.1896 -19.7255 -2.4558 0.9201
-16.8308 1.3037 -2.3919 0.9341
-16.8690 0.6917 -2.3922 0.9341
-16.8814 -0.5348 -2.3931 0.9340
-16.5402 -3.5825 -2.3979 0.9339
-16.2559 -4.7794 -2.4008 0.9338
-16.0821 -5.3702 -2.4024 0.9338
-14.7193 -6.1354 -2.2595 0.9376
-14.4988 -6.6715 -2.2614 0.9376
-12.5216 -7.5097 -2.0688 0.9427
-13.4314 -8.7339 -2.2701 0.9373
-13.6196 -10.3366 -2.4226 0.9333
-12.8637 -11.3247 -2.4283 0.9331
-12.0382 -12.2596 -2.4345 0.9329
-11.1464 -13.1363 -2.4410 0.9328
-10.1921 -13.9499 -2.4479 0.9326
-9.6929 -14.3317 -2.4515 0.9325
-9.1797 -14.6961 -2.4551 0.9324
-4.5346 -7.8830 -1.2885 0.9639
-6.9983 -15.9690 -2.4704 0.9320
-6.4239 -16.2385 -2.4743 0.9319
-5.8394 -16.4878 -2.4783 0.9318
-5.2453 -16.7163 -2.4824 0.9317
-14.5986 0.5986 -2.4070 0.9425
-14.6086 -0.4628 -2.4078 0.9425
-14.5858 -0.9933 -2.4084 0.9425
-14.5444 -1.5228 -2.4091 0.9424
-14.4062 -2.5765 -2.4109 0.9424
-14.3094 -3.0993 -2.4120 0.9424
-14.1945 -3.6188 -2.4132 0.9423
-14.0612 -4.1341 -2.4145 0.9423
-13.5538 -5.6496 -2.4191 0.9422
-12.1035 -6.6737 -2.2769 0.9455
-11.8633 -7.1149 -2.2789 0.9455
-11.3361 -7.9717 -2.2830 0.9454
-10.4332 -9.1850 -2.2899 0.9452
-10.3933 -10.5844 -2.4438 0.9416
-9.6198 -11.3371 -2.4494 0.9415
-9.2128 -11.6931 -2.4524 0.9414
-4.5283 -7.8721 -1.4961 0.9639
-6.9937 -13.2493 -2.4681 0.9411
-6.0299 -13.7592 -2.4748 0.9409
-4.5164 -14.3935 -2.4852 0.9407
-12.8556 0.5271 -2.4184 0.9490
-12.8679 0.0599 -2.4187 0.9490
-12.8638 -0.4075 -2.4191 0.9490
-12.8433 -0.8747 -2.4196 0.9490
-12.8065 -1.3409 -2.4203 0.9489
-12.7532 -1.8056 -2.4210 0.9489
-12.6836 -2.2684 -2.4219 0.9489
-12.4958 -3.1857 -2.4238 0.9489
-12.0938 -4.5329 -2.4276 0.9488
-11.9282 -4.9721 -2.4290 0.9488
-11.4871 -5.8001 -2.4188 0.9490
-10.6492 -5.8717 -2.2857 0.9517
-10.4366 -6.2593 -2.2874 0.9517
-9.9707 -7.0115 -2.2911 0.9516
-8.4534 -9.9625 -2.4558 0.9482
-8.0946 -10.2738 -2.4584 0.9482
-6.9521 -11.1300 -2.4666 0.9480
-4.5219 -7.8611 -1.7046 0.9638
-5.7203 -11.8614 -2.4752 0.9478
-5.2921 -12.0758 -2.4782 0.9478
-11.4739 0.4705 -2.4274 0.9541
-11.4848 0.0535 -2.4277 0.9541
-11.4809 -0.3637 -2.4281 0.9541
-11.3812 -1.6114 -2.4298 0.9541
-11.2416 -2.4349 -2.4314 0.9541
-10.9240 -3.6477 -2.4345 0.9540
-10.6413 -4.4356 -2.4370 0.9540
-10.4792 -4.8219 -2.4383 0.9539
-10.3033 -5.2024 -2.4398 0.9539
-10.1140 -5.5767 -2.4413 0.9539
-9.6734 -5.8015 -2.3843 0.9549
-9.1055 -5.9207 -2.2958 0.9566
-8.8907 -6.2521 -2.2975 0.9565
-8.4264 -6.8916 -2.3010 0.9565
-8.1772 -7.1989 -2.3029 0.9564
-7.9171 -7.4975 -2.3048 0.9564
-7.6462 -7.7868 -2.3068 0.9564
-7.3649 -8.0666 -2.3089 0.9563
-6.7726 -8.5959 -2.3132 0.9562
-6.4621 -8.8447 -2.3154 0.9562
-6.1917 -9.9126 -2.4705 0.9533
-4.5153 -7.8495 -1.9142 0.9637
-5.4671 -10.3571 -2.4756 0.9532
-5.0926 -10.5600 -2.4782 0.9532
-3.9266 -11.0870 -2.4862 0.9531
-3.5252 -11.2346 -2.4889 0.9530
-10.3279 0.8000 -2.4346 0.9583
-10.3509 0.4244 -2.4347 0.9583
-10.3605 0.0482 -2.4350 0.9583
-10.3400 -0.7042 -2.4358 0.9583
-10.3097 -1.0795 -2.4363 0.9583
-10.2096 -1.8259 -2.4376 0.9583
-10.1397 -2.1962 -2.4383 0.9583
-10.0567 -2.5639 -2.4392 0.9583
-9.4493 -4.3480 -2.4446 0.9582
-8.7406 -5.6836 -2.4504 0.9581
-7.8094 -5.9272 -2.3042 0.9605
-7.5946 -6.2113 -2.3058 0.9605
-7.1344 -6.7563 -2.3093 0.9604
-6.6357 -7.2679 -2.3130 0.9604
-6.3726 -7.5103 -2.3149 0.9603
-6.1008 -7.7433 -2.3168 0.9603
-5.5324 -8.1800 -2.3209 0.9602
-4.7968 -7.6793 -2.1280 0.9635
-4.5086 -7.8379 -2.1251 0.9635
-4.6226 -8.7573 -2.3273 0.9601
-3.9823 -9.0870 -2.3317 0.9601
-3.6532 -9.2346 -2.3340 0.9600
-9.4191 0.3862 -2.4408 0.9618
-9.4278 0.0439 -2.4411 0.9618
-9.3811 -0.9822 -2.4422 0.9618
-9.3414 -1.3226 -2.4428 0.9618
-9.1499 -2.3327 -2.4449 0.9617
-8.8520 -3.3178 -2.4476 0.9617
-8.4505 -4.2668 -2.4510 0.9616
-8.1270 -4.8741 -2.4537 0.9616
-7.7609 -5.4576 -2.4565 0.9616
-6.7005 -5.8989 -2.3114 0.9638
-5.5450 -7.0378 -2.3199 0.9637
-4.7581 -7.6175 -2.3255 0.9636
-4.4821 -7.7918 -2.3274 0.9635
-3.3181 -8.3876 -2.3355 0.9634
-3.0140 -8.5102 -2.3375 0.9634
-2.7054 -8.6218 -2.3396 0.9634
-8.6138 0.6672 -2.4458 0.9647
-8.6407 0.0402 -2.4462 0.9647
-8.5610 -1.2121 -2.4477 0.9647
-8.4547 -1.8312 -2.4490 0.9647
-8.3850 -2.1377 -2.4497 0.9647
-8.3045 -2.4416 -2.4505 0.9647
-7.9986 -3.3340 -2.4532 0.9646
-7.7423 -3.9093 -2.4553 0.9646
-7.4452 -4.4653 -2.4577 0.9646
-7.2821 -4.7352 -2.4590 0.9645
-7.1093 -4.9993 -2.4604 0.9645
-6.9271 -5.2572 -2.4618 0.9645
-6.7355 -5.5086 -2.4632 0.9645
-5.3040 -6.2508 -2.3208 0.9665
-4.8432 -6.6288 -2.3241 0.9664
-4.6026 -6.8053 -2.3258 0.9664
-4.3557 -6.9732 -2.3275 0.9664
-4.1027 -7.1323 -2.3293 0.9664
-3.8440 -7.2822 -2.3311 0.9663
-3.5797 -7.4228 -2.3330 0.9663
-2.4753 -7.8885 -2.3405 0.9662
-7.9671 0.0371 -2.4505 0.9672
-7.8491 -1.4038 -2.4525 0.9672
-7.7948 -1.6883 -2.4531 0.9672
-7.5717 -2.5283 -2.4553 0.9671
-7.3734 -3.0734 -2.4570 0.9671
-7.2597 -3.3405 -2.4580 0.9671
-7.0041 -3.8620 -2.4601 0.9671
-6.5520 -4.6075 -2.4637 0.9670
-6.3837 -4.8450 -2.4650 0.9670
-5.6279 -5.7313 -2.4706 0.9669
-4.9194 -5.7976 -2.3387 0.9687
-4.6771 -5.9364 -2.3246 0.9689
-4.4615 -6.1065 -2.3261 0.9688
-4.0120 -6.4230 -2.3293 0.9688
-3.7787 -6.5691 -2.3309 0.9688
-3.5402 -6.7068 -2.3326 0.9688
-2.7959 -7.0676 -2.3377 0.9687
-2.5393 -7.1698 -2.3395 0.9687
-7.3606 0.5702 -2.4540 0.9694
-7.3835 0.0344 -2.4543 0.9694
-7.3462 -0.7692 -2.4553 0.9693
-7.3147 -1.0356 -2.4557 0.9693
-7.2737 -1.3009 -2.4562 0.9693
-7.1635 -1.8263 -2.4573 0.9693
-7.0160 -2.3428 -2.4587 0.9693
-6.9285 -2.5968 -2.4595 0.9693
-6.6121 -3.3386 -2.4622 0.9693
-6.4892 -3.5780 -2.4632 0.9692
-6.3576 -3.8130 -2.4643 0.9692
-6.2178 -4.0432 -2.4654 0.9692
-5.9135 -4.4881 -2.4677 0.9692
-5.7495 -4.7023 -2.4690 0.9692
-5.5779 -4.9106 -2.4703 0.9692
-5.3988 -5.1126 -2.4716 0.9691
-5.0191 -5.4972 -2.4744 0.9691
-4.5531 -5.7788 -2.4455 0.9695
-3.9256 -5.8046 -2.3293 0.9709
-3.4986 -6.0821 -2.3323 0.9709
-2.5881 -6.5422 -2.3387 0.9708
-2.3504 -6.6365 -2.3403 0.9708
-2.1093 -6.7222 -2.3419 0.9707
-6.8512 0.5307 -2.4574 0.9712
-6.8663 0.2815 -2.4575 0.9712
-6.7699 -1.2108 -2.4594 0.9712
-6.7229 -1.4561 -2.4599 0.9712
-6.4480 -2.4168 -2.4625 0.9712
-6.3580 -2.6502 -2.4633 0.9712
-6.0385 -3.3295 -2.4659 0.9711
-5.9160 -3.5481 -2.4669 0.9711
-5.7856 -3.7621 -2.4679 0.9711
-5.5022 -4.1759 -2.4701 0.9711
-4.8491 -4.9383 -2.4750 0.9710
-4.4827 -5.2829 -2.4777 0.9710
-4.2903 -5.4453 -2.4791 0.9710
-4.0921 -5.6007 -2.4805 0.9710
-3.6091 -5.7781 -2.4363 0.9715
-3.3281 -5.7857 -2.3869 0.9720
-2.8381 -5.8850 -2.3365 0.9726
-2.1854 -6.1706 -2.3410 0.9726
-1.9611 -6.2500 -2.3425 0.9726
-6.4182 -0.2033 -2.4608 0.9729
-6.3605 -0.9005 -2.4618 0.9729
-6.2807 -1.3604 -2.4627 0.9728
-6.2285 -1.5879 -2.4632 0.9728
-6.1682 -1.8135 -2.4638 0.9728
-6.0235 -2.2576 -2.4651 0.9728
-5.9393 -2.4756 -2.4658 0.9728
-5.5258 -3.3141 -2.4692 0.9728
-5.4039 -3.5139 -2.4702 0.9728
-5.2749 -3.7094 -2.4712 0.9728
-4.8465 -4.2667 -2.4745 0.9727
-4.0060 -5.0846 -2.4806 0.9727
-3.6303 -5.3677 -2.4833 0.9726
-3.4349 -5.4991 -2.4847 0.9726
-3.2347 -5.6234 -2.4861 0.9726
-3.0301 -5.7405 -2.4875 0.9726
-2.7839 -5.7728 -2.4561 0.9729
-2.5382 -5.7920 -2.4234 0.9733
-2.0914 -5.9051 -2.4007 0.9735
-1.8806 -5.9931 -2.4071 0.9735
-5.9999 0.4648 -2.4630 0.9743
-6.0184 0.0280 -2.4632 0.9743
-6.0160 -0.1906 -2.4634 0.9743
-5.9876 -0.6269 -2.4640 0.9743
-5.7170 -1.9090 -2.4668 0.9743
-5.6453 -2.1159 -2.4675 0.9743
-5.5663 -2.3202 -2.4681 0.9743
-5.4800 -2.5216 -2.4689 0.9743
-5.3865 -2.7198 -2.4696 0.9743
-4.9430 -3.4760 -2.4732 0.9742
-4.5412 -3.9979 -2.4762 0.9742
-4.3949 -4.1620 -2.4773 0.9742
-4.2428 -4.3208 -2.4784 0.9742
-4.0850 -4.4742 -2.4796 0.9742
-3.9217 -4.6218 -2.4808 0.9741
-3.7530 -4.7635 -2.4820 0.9741
-3.4009 -5.0284 -2.4845 0.9741
-2.4432 -5.5750 -2.4912 0.9740
-2.2404 -5.6632 -2.4926 0.9740
-2.0343 -5.7440 -2.4940 0.9740
-5.6399 0.4369 -2.4653 0.9756
-5.6523 0.2318 -2.4654 0.9756
-5.6573 0.0263 -2.4656 0.9756
-5.6549 -0.1792 -2.4658 0.9756
-5.6038 -0.7934 -2.4666 0.9756
-5.5722 -0.9966 -2.4670 0.9756
-5.5333 -1.1985 -2.4674 0.9756
-5.4871 -1.3989 -2.4679 0.9756
-5.4338 -1.5976 -2.4684 0.9756
-5.3060 -1.9887 -2.4696 0.9756
-5.1504 -2.3699 -2.4709 0.9756
-5.0625 -2.5562 -2.4716 0.9756
-4.9679 -2.7392 -2.4724 0.9756
-4.5252 -3.4344 -2.4758 0.9755
-4.3992 -3.5979 -2.4768 0.9755
-4.1298 -3.9109 -2.4788 0.9755
-3.9867 -4.0601 -2.4799 0.9755
-3.6847 -4.3426 -2.4821 0.9755
-3.1951 -4.7242 -2.4856 0.9754
-3.0229 -4.8395 -2.4868 0.9754
-2.8466 -4.9486 -2.4880 0.9754
-2.6663 -5.0513 -2.4893 0.9754
-2.1044 -5.3196 -2.4932 0.9753
-1.9108 -5.3953 -2.4945 0.9753
-5.3310 0.0248 -2.4677 0.9768
-5.3288 -0.1688 -2.4679 0.9768
-5.3035 -0.5553 -2.4684 0.9768
-5.2139 -1.1293 -2.4694 0.9768
-5.1201 -1.5054 -2.4704 0.9768
-4.9294 -2.0547 -2.4721 0.9767
-4.8529 -2.2330 -2.4727 0.9767
-4.7699 -2.4084 -2.4734 0.9767
-4.5852 -2.7500 -2.4749 0.9767
-4.3764 -3.0776 -2.4765 0.9767
-4.2632 -3.2356 -2.4774 0.9767
-4.1444 -3.3895 -2.4783 0.9767
-3.8904 -3.6842 -2.4802 0.9767
-3.7556 -3.8246 -2.4812 0.9767
-3.6157 -3.9601 -2.4822 0.9766
-3.0094 -4.4497 -2.4866 0.9766
-2.8472 -4.5582 -2.4877 0.9766
-1.7994 -5.0808 -2.4949 0.9765
-1.6145 -5.1453 -2.4962 0.9765
-5.0302 0.2063 -2.4695 0.9778
-5.0346 0.0234 -2.4696 0.9778
-5.0238 -0.3421 -2.4700 0.9778
-4.9868 -0.7060 -2.4705 0.9778
-4.9585 -0.8868 -2.4709 0.9778
-4.8827 -1.2448 -2.4717 0.9778
-4.7813 -1.5966 -2.4726 0.9778
-4.2336 -2.7530 -2.4772 0.9778
-4.0253 -3.0550 -2.4788 0.9777
-3.9130 -3.2003 -2.4796 0.9777
-3.7956 -3.3415 -2.4805 0.9777
-3.6730 -3.4784 -2.4814 0.9777
-3.5456 -3.6109 -2.4824 0.9777
-3.1356 -3.9798 -2.4853 0.9777
-2.9903 -4.0928 -2.4864 0.9777
-2.8409 -4.2005 -2.4874 0.9777
-2.6876 -4.3028 -2.4885 0.9777
-2.5307 -4.3995 -2.4896 0.9776
-2.2067 -4.5757 -2.4919 0.9776
-1.8704 -4.7282 -2.4942 0.9776
-4.7596 0.1952 -2.4713 0.9788
-4.7638 0.0222 -2.4714 0.9788
-4.7535 -0.3237 -2.4717 0.9788
-4.6917 -0.8391 -2.4726 0.9788
-4.6588 -1.0091 -2.4729 0.9787
-4.6198 -1.1778 -2.4733 0.9787
-4.5748 -1.3450 -2.4738 0.9787
-4.5238 -1.5106 -2.4742 0.9787
-4.4041 -1.8357 -2.4753 0.9787
-4.0053 -2.6045 -2.4785 0.9787
-3.8080 -2.8901 -2.4800 0.9787
-3.5905 -3.1610 -2.4817 0.9787
-3.4746 -3.2904 -2.4826 0.9787
-3.0995 -3.6529 -2.4853 0.9786
-2.8284 -3.8712 -2.4872 0.9786
-2.3935 -4.1610 -2.4903 0.9786
-2.0870 -4.3275 -2.4924 0.9786
-1.9293 -4.4023 -2.4935 0.9786
-4.5112 0.1850 -2.4729 0.9796
-4.5151 0.0210 -2.4730 0.9796
-4.5132 -0.1430 -2.4731 0.9796
-4.5054 -0.3068 -2.4733 0.9796
-4.4917 -0.4703 -2.4736 0.9796
-4.4721 -0.6332 -2.4738 0.9796
-4.3785 -1.1163 -2.4748 0.9796
-4.3358 -1.2748 -2.4753 0.9796
-4.2874 -1.4316 -2.4757 0.9796
-4.2334 -1.5867 -2.4762 0.9796
-4.0384 -2.0391 -2.4778 0.9796
-3.7956 -2.4682 -2.4798 0.9796
-3.7046 -2.6051 -2.4805 0.9796
-3.6086 -2.7388 -2.4812 0.9796
-3.4024 -2.9954 -2.4828 0.9795
-2.9369 -3.4612 -2.4862 0.9795
-2.8103 -3.5669 -2.4871 0.9795
-2.6799 -3.6680 -2.4880 0.9795
-2.5459 -3.7643 -2.4890 0.9795
-2.4084 -3.8558 -2.4900 0.9795
-2.2677 -3.9423 -2.4909 0.9795
-2.1239 -4.0237 -2.4919 0.9795
-1.9772 -4.0998 -2.4930 0.9795
-1.8277 -4.1706 -2.4940 0.9794
-1.6758 -4.2360 -2.4950 0.9794
-1.5214 -4.2959 -2.4961 0.9794
-1.3650 -4.3502 -2.4972 0.9794
-4.2636 -0.4464 -2.4750 0.9804
-4.2450 -0.6010 -2.4753 0.9804
-4.2208 -0.7549 -2.4756 0.9804
-4.1912 -0.9078 -2.4759 0.9804
-4.1155 -1.2100 -2.4766 0.9804
-4.0182 -1.5060 -2.4775 0.9804
-3.7611 -2.0738 -2.4797 0.9804
-3.4248 -2.5993 -2.4823 0.9803
-3.3291 -2.7227 -2.4830 0.9803
-3.2290 -2.8427 -2.4838 0.9803
-3.1246 -2.9590 -2.4845 0.9803
-2.9034 -3.1801 -2.4862 0.9803
-2.5430 -3.4806 -2.4888 0.9803
-2.4158 -3.5720 -2.4897 0.9803
-2.2853 -3.6587 -2.4906 0.9803
-2.1518 -3.7407 -2.4915 0.9803
-1.8760 -3.8900 -2.4934 0.9803
-1.7342 -3.9571 -2.4944 0.9802
-1.5899 -4.0191 -2.4954 0.9802
-1.2950 -4.1272 -2.4974 0.9802
