ply
format ascii 1.0
element vertex 623
property float32 x
property float32 y
property float32 z
property float32 I
end_header
2.5024 7.7369 1.4338 0.9675
-2.3579 28.6422 5.0675 0.8898
-5.6007 29.1447 5.2330 0.8864
-6.7663 25.2657 4.6120 0.8992
-10.9919 25.6199 4.9157 0.8929
-15.3026 21.4024 4.6392 0.8986
-16.1658 20.9754 4.6695 0.8980
2.5017 7.7346 1.2453 0.9676
-1.5569 33.6511 5.1607 0.8726
-3.3052 27.8692 4.2993 0.8926
-4.2800 27.5811 4.2758 0.8932
-5.4515 28.3684 4.4254 0.8897
-6.0166 26.1961 4.1176 0.8969
-6.6152 24.7017 3.9175 0.9017
-8.5899 24.7968 4.0202 0.8992
-9.6262 24.8643 4.0846 0.8977
-10.7072 24.9564 4.1602 0.8959
-11.8331 25.0577 4.2452 0.8939
-16.4255 21.3123 4.1221 0.8968
2.5009 7.7322 1.0583 0.9678
-3.3607 28.3373 3.7160 0.8913
-5.3224 27.6963 3.6726 0.8925
-6.4718 24.1660 3.2578 0.9040
-7.4225 24.2031 3.2966 0.9029
-9.4048 24.2925 3.3922 0.9003
-11.5305 24.4168 3.5163 0.8968
-13.8658 24.6151 3.6790 0.8923
-14.3561 23.4729 3.5830 0.8949
-14.1895 21.4320 3.3471 0.9015
-16.4261 21.3130 3.5040 0.8971
-0.3479 33.6886 3.6177 0.8732
-1.4619 31.5976 3.3966 0.8805
-2.2855 27.7620 2.9912 0.8940
-5.4110 28.1577 3.0789 0.8911
-6.2559 23.3599 2.5968 0.9073
-9.1983 23.7591 2.7358 0.9026
-10.2119 23.8020 2.7812 0.9010
-11.2626 23.8496 2.8322 0.8993
-13.5065 23.9772 2.9551 0.8952
-13.7254 22.4417 2.8248 0.8996
-13.8709 20.9509 2.6981 0.9039
2.4994 7.7276 0.6875 0.9679
-2.6552 32.2529 2.7395 0.8782
-4.6299 29.8362 2.5559 0.8859
-6.3557 23.7326 2.0798 0.9061
-8.1849 23.6277 2.1168 0.9045
-9.1517 23.6387 2.1458 0.9032
-10.1467 23.6499 2.1785 0.9019
-12.2375 23.6736 2.2559 0.8985
-13.6076 22.2492 2.2078 0.9006
-14.0939 21.2876 2.1612 0.9026
-15.2054 21.2665 2.2131 0.9004
2.4987 7.7253 0.5035 0.9680
-3.7630 31.7296 1.9813 0.8798
-4.6239 29.7977 1.8699 0.8862
-7.0992 36.9425 2.3327 0.8601
-6.3566 23.7358 1.5237 0.9062
-6.9529 22.6717 1.4705 0.9093
-7.8926 22.7840 1.4952 0.9079
-12.0068 23.2273 1.6214 0.9005
-13.1128 23.2782 1.6568 0.8985
-14.0941 21.2881 1.5832 0.9027
-15.2057 21.2670 1.6212 0.9005
-17.6941 21.3287 1.7185 0.8949
-20.0510 22.4761 1.8678 0.8863
2.4979 7.7230 0.3201 0.9680
-5.2120 33.5872 1.3402 0.8728
-6.1379 26.7241 1.0812 0.8960
-6.3574 23.7390 0.9690 0.9063
-7.7679 20.0644 0.8484 0.9175
-8.6125 20.0739 0.8613 0.9163
-10.6658 20.6331 0.9159 0.9112
-11.6578 20.6954 0.9366 0.9093
-12.7005 20.7659 0.9598 0.9072
-14.0945 21.2886 1.0067 0.9028
-17.6946 21.3292 1.0928 0.8950
-20.2722 22.7240 1.2008 0.8852
-21.8031 22.7414 1.2423 0.8815
2.4972 7.7207 0.1371 0.9681
-0.0670 6.4893 0.1096 0.9744
-0.3002 6.4888 0.1097 0.9743
-5.2108 33.5797 0.5740 0.8729
-6.1418 26.7411 0.4635 0.8960
-6.3583 23.7422 0.4152 0.9064
-6.8753 22.4187 0.3961 0.9105
-7.0260 20.2823 0.3626 0.9177
-9.0484 23.3720 0.4234 0.9046
-10.0322 23.3831 0.4298 0.9032
-11.0478 23.3946 0.4370 0.9017
-12.0994 23.4065 0.4451 0.9000
-13.0434 23.1551 0.4489 0.8991
-13.2256 21.6246 0.4282 0.9036
-14.0948 21.2890 0.4313 0.9029
-15.2312 21.3026 0.4424 0.9005
-5.1150 6.6369 0.1415 0.9670
-20.2477 22.6967 0.5138 0.8854
-21.7769 22.7140 0.5315 0.8817
-0.0670 6.4894 -0.0365 0.9744
-0.3002 6.4888 -0.0366 0.9744
-0.5410 6.5721 -0.0371 0.9740
-0.7793 6.5715 -0.0373 0.9739
-1.0196 6.5710 -0.0374 0.9738
-1.7592 6.5693 -0.0383 0.9732
-2.0144 6.5687 -0.0387 0.9729
-2.2752 6.5681 -0.0391 0.9726
-2.8174 6.5668 -0.0402 0.9718
-3.6979 6.5648 -0.0424 0.9703
-4.3453 6.5633 -0.0443 0.9690
-5.0571 6.5617 -0.0466 0.9674
-5.8466 6.5539 -0.0494 0.9655
-6.7492 6.5518 -0.0530 0.9631
2.4957 7.7161 -0.2284 0.9681
-0.0670 6.4894 -0.1827 0.9744
-0.3002 6.4889 -0.1829 0.9743
-0.5410 6.5721 -0.1857 0.9740
-1.0196 6.5710 -0.1872 0.9737
-1.5089 6.5699 -0.1898 0.9734
-1.7593 6.5693 -0.1915 0.9732
-2.0144 6.5687 -0.1935 0.9729
-2.5426 6.5675 -0.1983 0.9722
-2.8174 6.5669 -0.2012 0.9718
-3.6980 6.5649 -0.2122 0.9703
-4.0146 6.5641 -0.2167 0.9697
-4.6921 6.5626 -0.2272 0.9682
-5.3684 6.4712 -0.2368 0.9669
-5.8467 6.5539 -0.2473 0.9655
2.4950 7.7138 -0.4112 0.9681
11.8986 48.4102 -2.5282 0.8190
8.3046 48.6124 -2.5011 0.8208
6.5195 48.6205 -2.4878 0.8216
-0.3002 6.4889 -0.3294 0.9743
-1.0196 6.5711 -0.3372 0.9737
-1.2626 6.5705 -0.3393 0.9736
-1.5089 6.5699 -0.3419 0.9734
-1.7593 6.5694 -0.3449 0.9731
-2.0144 6.5688 -0.3484 0.9729
-2.2753 6.5682 -0.3525 0.9725
-3.1008 6.5663 -0.3683 0.9713
-4.3454 6.5634 -0.3992 0.9690
-4.6921 6.5626 -0.4091 0.9682
-5.3685 6.4713 -0.4264 0.9669
-5.8467 6.5540 -0.4454 0.9654
-6.7493 6.5519 -0.4770 0.9630
18.9659 29.9735 -2.6007 0.8674
17.8224 30.5403 -2.5927 0.8678
15.4874 31.5411 -2.5764 0.8685
14.2994 31.9744 -2.5682 0.8689
13.1002 32.3629 -2.5599 0.8693
9.4525 33.2578 -2.5351 0.8705
8.2255 33.4662 -2.5268 0.8709
6.9960 33.6297 -2.5186 0.8713
1.9647 31.9155 -2.3445 0.8796
0.8172 31.9427 -2.3429 0.8797
-0.0670 6.4895 -0.4758 0.9743
-0.3002 6.4890 -0.4763 0.9743
-0.5410 6.5722 -0.4835 0.9739
-0.7793 6.5716 -0.4852 0.9738
-1.5089 6.5700 -0.4943 0.9733
-1.7593 6.5694 -0.4986 0.9731
-2.0145 6.5688 -0.5038 0.9728
-2.2753 6.5682 -0.5097 0.9725
-3.1008 6.5663 -0.5324 0.9713
-3.3939 6.5656 -0.5419 0.9708
-4.3454 6.5635 -0.5772 0.9689
-4.6922 6.5627 -0.5915 0.9682
-5.0572 6.5618 -0.6074 0.9673
-5.8468 6.5540 -0.6440 0.9654
-6.2826 6.5530 -0.6656 0.9642
15.1917 22.2026 -2.5828 0.8975
14.3516 22.6812 -2.5768 0.8978
11.7462 23.9218 -2.5585 0.8984
10.8535 24.2691 -2.5523 0.8987
9.9510 24.5830 -2.5461 0.8989
9.0398 24.8631 -2.5399 0.8991
2.4935 7.7092 -0.7779 0.9680
7.1970 25.3219 -2.5273 0.8996
6.2677 25.5003 -2.5210 0.8999
5.0100 24.0831 -2.3616 0.9059
3.2536 24.2641 -2.3503 0.9063
2.3816 24.3768 -2.3514 0.9063
1.5035 24.4233 -2.3492 0.9064
0.6243 24.4015 -2.3434 0.9066
-0.0670 6.4895 -0.6231 0.9743
-1.0196 6.5711 -0.6384 0.9736
-1.2626 6.5706 -0.6423 0.9735
-1.5089 6.5700 -0.6472 0.9733
-2.0145 6.5689 -0.6596 0.9728
-2.8174 6.5670 -0.6860 0.9717
-3.6980 6.5650 -0.7234 0.9702
-4.3454 6.5635 -0.7557 0.9689
-5.0572 6.5619 -0.7954 0.9673
-5.3686 6.4714 -0.8072 0.9668
-5.8468 6.5541 -0.8432 0.9653
-6.2826 6.5531 -0.8716 0.9642
10.8512 18.5946 -2.5574 0.9169
10.1574 18.9360 -2.5525 0.9171
9.4528 19.2512 -2.5476 0.9172
7.2853 20.0373 -2.5326 0.9177
5.4520 19.1826 -2.3689 0.9228
2.6357 19.6561 -2.3558 0.9232
0.5046 19.7247 -2.3438 0.9236
-0.3002 6.4890 -0.7716 0.9742
-0.5410 6.5723 -0.7833 0.9738
-0.7794 6.5717 -0.7861 0.9737
-1.2626 6.5706 -0.7948 0.9734
-1.7593 6.5695 -0.8079 0.9730
-2.0145 6.5689 -0.8162 0.9727
-2.2753 6.5683 -0.8257 0.9724
-2.5427 6.5677 -0.8366 0.9720
-3.6981 6.5650 -0.8950 0.9701
-4.0147 6.5643 -0.9140 0.9695
-4.3454 6.5636 -0.9350 0.9688
-4.6923 6.5628 -0.9583 0.9680
-5.8469 6.5541 -1.0433 0.9652
-6.2827 6.5531 -1.0784 0.9641
-6.7495 6.5521 -1.1174 0.9628
10.1879 14.8897 -2.5563 0.9297
9.6320 15.2222 -2.5523 0.9298
9.0650 15.5337 -2.5483 0.9299
8.4880 15.8239 -2.5443 0.9300
7.9018 16.0924 -2.5402 0.9301
7.3071 16.3390 -2.5360 0.9302
6.7048 16.5635 -2.5319 0.9304
6.0958 16.7657 -2.5277 0.9305
4.5648 16.0610 -2.3658 0.9348
3.3895 16.2935 -2.3580 0.9350
2.8033 16.4096 -2.3588 0.9350
2.2093 16.4759 -2.3554 0.9350
1.0183 16.5410 -2.3481 0.9352
-0.3002 6.4891 -0.9204 0.9741
-1.5089 6.5701 -0.9551 0.9731
-2.5427 6.5677 -0.9979 0.9719
-2.8175 6.5671 -1.0125 0.9715
-3.1009 6.5664 -1.0289 0.9711
-3.6981 6.5651 -1.0676 0.9700
-4.0147 6.5644 -1.0903 0.9694
-4.6923 6.5628 -1.1431 0.9679
-5.3686 6.4715 -1.1914 0.9666
-5.8469 6.5542 -1.2445 0.9651
-6.7496 6.5521 -1.3328 0.9627
8.7362 12.7679 -2.5486 0.9392
7.7767 13.3260 -2.5418 0.9394
7.2834 13.5780 -2.5383 0.9394
6.7819 13.8116 -2.5348 0.9395
2.4912 7.7023 -1.3336 0.9677
2.9179 14.0265 -2.3602 0.9436
2.4094 14.1040 -2.3571 0.9436
1.8991 14.1630 -2.3541 0.9437
1.3877 14.2037 -2.3510 0.9438
0.8757 14.2242 -2.3477 0.9439
0.3639 14.2251 -2.3442 0.9439
-0.0670 6.4897 -1.0691 0.9740
-0.5410 6.5724 -1.0864 0.9736
-0.7794 6.5718 -1.0902 0.9735
-1.2627 6.5707 -1.1022 0.9732
-1.5090 6.5701 -1.1105 0.9730
-1.7593 6.5696 -1.1204 0.9728
-2.2753 6.5684 -1.1451 0.9722
-2.8175 6.5671 -1.1772 0.9714
-3.1009 6.5665 -1.1963 0.9710
-3.3940 6.5658 -1.2176 0.9705
-4.3455 6.5636 -1.2968 0.9686
-5.0573 6.5620 -1.3648 0.9670
-5.3687 6.4715 -1.3852 0.9665
-5.8470 6.5542 -1.4469 0.9650
-6.2828 6.5532 -1.4956 0.9639
7.6394 11.1650 -2.5428 0.9464
7.2253 11.4188 -2.5399 0.9465
6.3722 11.8795 -2.5338 0.9466
5.5731 11.3498 -2.3766 0.9498
2.4905 7.6999 -1.5211 0.9676
2.5556 12.2846 -2.3585 0.9502
2.1106 12.3545 -2.3558 0.9503
1.2159 12.4458 -2.3505 0.9504
0.3190 12.4683 -2.3443 0.9505
-0.0670 6.4897 -1.2199 0.9739
-0.5410 6.5724 -1.2395 0.9735
-1.0197 6.5713 -1.2499 0.9733
-1.5090 6.5702 -1.2671 0.9729
-2.8175 6.5672 -1.3432 0.9713
-4.0148 6.5645 -1.4463 0.9692
-5.0574 6.5621 -1.5572 0.9668
-5.3687 6.4716 -1.5805 0.9664
-5.8470 6.5543 -1.6509 0.9649
6.7809 9.9103 -2.5383 0.9521
6.4142 10.1368 -2.5356 0.9521
6.0398 10.3497 -2.5330 0.9522
4.2043 10.3861 -2.3685 0.9552
2.8112 7.7321 -1.7391 0.9669
2.4708 7.6392 -1.6971 0.9677
3.0547 10.7476 -2.3618 0.9553
2.6642 10.8396 -2.3595 0.9554
2.2712 10.9173 -2.3571 0.9554
1.8759 10.9808 -2.3547 0.9555
0.6823 11.0831 -2.3472 0.9556
0.2837 11.0874 -2.3444 0.9557
-0.0670 6.4897 -1.3719 0.9738
-0.3002 6.4892 -1.3731 0.9738
-0.7794 6.5719 -1.3989 0.9733
-1.0197 6.5713 -1.4057 0.9732
-1.2627 6.5708 -1.4143 0.9730
-2.5427 6.5679 -1.4887 0.9716
-2.8175 6.5672 -1.5105 0.9712
-3.1009 6.5666 -1.5350 0.9707
-3.3940 6.5659 -1.5624 0.9702
-3.6982 6.5652 -1.5928 0.9697
-4.0148 6.5645 -1.6265 0.9690
-4.3456 6.5637 -1.6640 0.9683
-5.8471 6.5544 -1.8566 0.9647
-6.7497 6.5523 -1.9884 0.9623
6.0900 8.9005 -2.5346 0.9567
5.4104 8.5504 -2.3780 0.9593
5.0951 8.7309 -2.3758 0.9593
4.4470 9.0565 -2.3712 0.9594
3.7783 9.3339 -2.3666 0.9595
2.7894 7.6720 -1.9186 0.9670
2.4626 7.6137 -1.8807 0.9677
2.7455 9.6600 -2.3602 0.9596
2.3949 9.7436 -2.3581 0.9596
2.0418 9.8145 -2.3560 0.9596
1.6866 9.8726 -2.3539 0.9597
1.3299 9.9178 -2.3518 0.9597
0.6136 9.9673 -2.3470 0.9598
-2.2754 6.5685 -1.6337 0.9718
-2.5427 6.5679 -1.6552 0.9715
-2.8175 6.5673 -1.6795 0.9711
-3.1009 6.5666 -1.7067 0.9706
-3.3941 6.5660 -1.7371 0.9701
-4.3456 6.5638 -1.8501 0.9682
-5.0575 6.5622 -1.9471 0.9665
-5.8471 6.5544 -2.0643 0.9646
-6.7498 6.5524 -2.2109 0.9621
4.9056 7.7528 -2.3754 0.9628
4.3293 8.0709 -2.3713 0.9629
4.0332 8.2139 -2.3693 0.9629
3.7324 8.3460 -2.3672 0.9629
3.4274 8.4670 -2.3650 0.9630
2.4543 7.5880 -2.0649 0.9676
2.1729 8.8403 -2.3570 0.9631
1.5305 8.9588 -2.3532 0.9631
1.2069 9.0006 -2.3513 0.9632
0.5570 9.0468 -2.3468 0.9632
-0.3002 6.4893 -1.6820 0.9735
-0.7794 6.5720 -1.7135 0.9730
-1.0197 6.5714 -1.7218 0.9729
-1.2627 6.5709 -1.7324 0.9727
-2.2754 6.5686 -1.7998 0.9717
-2.5427 6.5679 -1.8235 0.9713
-3.3941 6.5660 -1.9137 0.9699
-3.6982 6.5653 -1.9510 0.9693
-4.0149 6.5646 -1.9924 0.9687
-4.3456 6.5638 -2.0382 0.9680
-4.6925 6.5631 -2.0889 0.9672
-5.0575 6.5622 -2.1451 0.9663
-5.3689 6.4717 -2.1772 0.9659
-6.1575 6.4225 -2.3037 0.9639
4.2221 7.2349 -2.3714 0.9658
3.9565 7.3759 -2.3695 0.9658
2.7460 7.5526 -2.2750 0.9671
2.2013 7.7451 -2.2794 0.9671
1.9865 8.0822 -2.3561 0.9660
0.8068 8.2574 -2.3487 0.9661
0.5094 8.2739 -2.3467 0.9661
0.2119 8.2799 -2.3448 0.9662
-0.0670 6.4899 -1.8373 0.9734
-0.3002 6.4893 -1.8390 0.9734
-0.5411 6.5726 -1.8669 0.9730
-0.7794 6.5720 -1.8735 0.9729
-1.0197 6.5715 -1.8826 0.9727
-1.5090 6.5703 -1.9084 0.9724
-1.7594 6.5698 -1.9254 0.9721
-2.0146 6.5692 -1.9452 0.9718
-2.8176 6.5674 -2.0230 0.9707
-3.1010 6.5667 -2.0558 0.9703
-3.3941 6.5661 -2.0924 0.9697
-4.7516 6.6457 -2.3128 0.9666
-4.9841 6.4670 -2.3114 0.9666
-5.2101 6.2803 -2.3101 0.9666
-5.4292 6.0859 -2.3088 0.9667
-5.6412 5.8840 -2.3076 0.9667
-5.8458 5.6748 -2.3064 0.9667
4.1225 6.5151 -2.3714 0.9682
3.8831 6.6541 -2.3697 0.9683
3.6392 6.7843 -2.3679 0.9683
3.3908 6.9054 -2.3662 0.9683
3.1383 7.0175 -2.3644 0.9683
2.3603 7.2976 -2.3591 0.9684
2.0952 7.3719 -2.3572 0.9684
1.8278 7.4366 -2.3554 0.9685
1.5586 7.4920 -2.3537 0.9685
1.0156 7.5737 -2.3503 0.9685
0.4688 7.6152 -2.3467 0.9686
0.1950 7.6212 -2.3449 0.9686
-0.0670 6.4899 -1.9962 0.9732
-0.3002 6.4894 -1.9981 0.9732
-1.0197 6.5715 -2.0454 0.9726
-1.5090 6.5704 -2.0735 0.9722
-1.7594 6.5698 -2.0919 0.9719
-2.2754 6.5686 -2.1381 0.9713
-2.8176 6.5674 -2.1980 0.9705
-3.3941 6.5661 -2.2734 0.9695
-3.9327 6.4302 -2.3184 0.9689
-4.1585 6.2812 -2.3170 0.9690
-4.5933 5.9600 -2.3144 0.9690
-5.0039 5.6092 -2.3120 0.9690
-5.1996 5.4233 -2.3109 0.9690
-5.3884 5.2308 -2.3098 0.9691
4.0284 5.8875 -2.3713 0.9704
3.5909 6.1533 -2.3682 0.9704
3.3654 6.2740 -2.3666 0.9704
3.1359 6.3864 -2.3650 0.9705
1.9383 6.8197 -2.3567 0.9706
1.6910 6.8800 -2.3550 0.9706
1.4420 6.9313 -2.3533 0.9706
0.9396 7.0070 -2.3500 0.9706
0.6870 7.0312 -2.3483 0.9707
0.4338 7.0463 -2.3467 0.9707
0.1804 7.0523 -2.3450 0.9707
-0.0670 6.4899 -2.1574 0.9730
-0.7794 6.5721 -2.1999 0.9725
-1.2627 6.5710 -2.2242 0.9722
-1.7594 6.5699 -2.2608 0.9717
-2.0555 6.7028 -2.3305 0.9709
-2.2934 6.6205 -2.3290 0.9709
-2.7590 6.4309 -2.3261 0.9709
-2.9863 6.3239 -2.3247 0.9710
-3.6426 5.9559 -2.3207 0.9710
-3.8520 5.8181 -2.3194 0.9710
-4.0562 5.6731 -2.3182 0.9710
-4.4483 5.3621 -2.3159 0.9711
-4.8172 5.0245 -2.3138 0.9711
3.5412 5.5965 -2.3684 0.9723
3.1267 5.8289 -2.3654 0.9723
2.6970 6.0305 -2.3624 0.9723
2.4772 6.1195 -2.3609 0.9723
2.0290 6.2733 -2.3578 0.9724
1.8014 6.3379 -2.3562 0.9724
1.5717 6.3942 -2.3547 0.9724
1.3402 6.4422 -2.3531 0.9724
0.6386 6.5358 -2.3484 0.9725
-0.3027 6.5426 -2.3422 0.9726
-1.4614 6.3630 -2.3347 0.9726
-1.9118 6.2341 -2.3318 0.9727
-2.3514 6.0737 -2.3291 0.9727
-2.7780 5.8827 -2.3265 0.9727
-3.1894 5.6620 -2.3239 0.9728
-3.7739 5.2784 -2.3204 0.9728
-3.9591 5.1371 -2.3193 0.9728
-4.5038 4.6976 -2.3272 0.9727
3.7164 5.4315 -2.5221 0.9722
3.3764 5.3360 -2.4198 0.9733
3.1116 5.3319 -2.3658 0.9739
2.5158 5.6255 -2.3616 0.9739
1.6806 5.9132 -2.3558 0.9740
1.2505 6.0111 -2.3529 0.9740
0.8150 6.0778 -2.3500 0.9741
0.3763 6.1130 -2.3470 0.9741
-0.0631 6.1167 -2.3441 0.9741
-0.2825 6.1067 -2.3427 0.9742
-1.1509 5.9890 -2.3371 0.9742
-1.3643 5.9403 -2.3357 0.9742
-1.5758 5.8841 -2.3344 0.9742
-1.9916 5.7495 -2.3318 0.9743
-2.5941 5.4932 -2.3280 0.9743
-4.4585 4.6504 -2.4689 0.9728
3.4781 5.0832 -2.5208 0.9737
2.9917 5.1264 -2.4293 0.9747
2.7297 5.0888 -2.3635 0.9754
2.5439 5.1807 -2.3621 0.9754
1.7722 5.4790 -2.3568 0.9754
1.3729 5.5856 -2.3541 0.9754
0.9675 5.6631 -2.3513 0.9755
0.3524 5.7242 -2.3472 0.9755
0.1466 5.7299 -2.3459 0.9755
-0.0591 5.7281 -2.3445 0.9755
-0.4695 5.7026 -2.3418 0.9756
-0.6735 5.6789 -2.3405 0.9756
-0.8764 5.6479 -2.3392 0.9756
-1.4761 5.5119 -2.3354 0.9756
-1.8657 5.3861 -2.3329 0.9757
-2.2451 5.2330 -2.3305 0.9757
-3.3558 4.6935 -2.3614 0.9754
-3.6081 4.6816 -2.4191 0.9748
-3.8577 4.6501 -2.4728 0.9742
-4.1782 4.3581 -2.4710 0.9742
-4.3305 4.2038 -2.4701 0.9743
3.0899 4.8832 -2.5184 0.9751
2.6720 4.9812 -2.4635 0.9756
2.4088 4.9057 -2.3818 0.9764
2.2109 4.9437 -2.3602 0.9766
2.0309 5.0172 -2.3589 0.9767
1.4774 5.1980 -2.3551 0.9767
0.9085 5.3180 -2.3512 0.9767
0.7166 5.3443 -2.3500 0.9767
0.3310 5.3760 -2.3474 0.9768
-0.4409 5.3564 -2.3423 0.9768
-0.8232 5.3054 -2.3398 0.9768
-1.0126 5.2697 -2.3386 0.9769
-1.2005 5.2272 -2.3374 0.9769
-1.3867 5.1781 -2.3362 0.9769
-2.2836 4.8357 -2.3306 0.9769
-2.6470 4.6989 -2.3504 0.9767
-2.8681 4.6895 -2.3957 0.9763
-3.4674 4.4991 -2.4755 0.9755
-3.7785 4.2356 -2.4737 0.9755
3.0726 4.4906 -2.5186 0.9763
2.9081 4.5959 -2.5175 0.9763
2.7399 4.6951 -2.5163 0.9763
2.1574 4.8239 -2.4460 0.9770
1.9379 4.7873 -2.3906 0.9775
1.7401 4.7859 -2.3572 0.9778
1.3908 4.8934 -2.3548 0.9778
0.8553 5.0069 -2.3512 0.9779
0.6747 5.0317 -2.3500 0.9779
0.1297 5.0673 -2.3463 0.9779
-0.0523 5.0661 -2.3451 0.9779
-0.2340 5.0584 -2.3439 0.9779
-0.5957 5.0235 -2.3416 0.9779
-0.9537 4.9629 -2.3393 0.9780
-1.1307 4.9231 -2.3382 0.9780
-1.3061 4.8770 -2.3370 0.9780
-1.6511 4.7663 -2.3349 0.9780
-1.8246 4.7128 -2.3393 0.9780
-2.0160 4.6989 -2.3668 0.9777
-2.2155 4.6916 -2.4016 0.9774
-2.4210 4.6834 -2.4404 0.9770
-2.7953 4.5705 -2.4799 0.9767
-3.1136 4.3548 -2.4780 0.9767
-3.2667 4.2386 -2.4771 0.9767
-3.4156 4.1172 -2.4762 0.9767
-3.5599 3.9906 -2.4754 0.9767
-3.8347 3.7225 -2.4738 0.9767
2.8985 4.2361 -2.5177 0.9774
2.7433 4.3355 -2.5166 0.9774
2.4230 4.5170 -2.5143 0.9774
2.2582 4.5990 -2.5132 0.9774
1.3402 4.7155 -2.4047 0.9784
1.1581 4.7118 -2.3800 0.9786
0.8075 4.7268 -2.3522 0.9789
0.6367 4.7482 -2.3500 0.9789
0.4656 4.7657 -2.3488 0.9789
0.1224 4.7822 -2.3465 0.9789
-0.0494 4.7812 -2.3454 0.9789
-0.3919 4.7608 -2.3432 0.9789
-0.9050 4.7092 -2.3523 0.9789
-1.0802 4.7034 -2.3672 0.9787
-1.2584 4.6990 -2.3862 0.9786
-1.4395 4.6940 -2.4084 0.9784
-1.6241 4.6885 -2.4339 0.9781
-1.8127 4.6822 -2.4629 0.9779
-2.1624 4.5792 -2.4841 0.9777
-2.3245 4.4968 -2.4831 0.9777
-2.4834 4.4088 -2.4821 0.9777
-2.6391 4.3151 -2.4812 0.9777
-2.9398 4.1117 -2.4794 0.9777
-3.3614 3.7680 -2.4769 0.9778
-3.6209 3.5150 -2.4754 0.9778
2.7397 4.0040 -2.5169 0.9784
2.4433 4.1867 -2.5148 0.9784
2.2904 4.2699 -2.5137 0.9784
1.9764 4.4193 -2.5115 0.9784
1.8157 4.4854 -2.5104 0.9784
1.4879 4.6000 -2.5081 0.9784
1.3212 4.6483 -2.5070 0.9785
0.9760 4.6914 -2.4859 0.9786
0.4588 4.6959 -2.4477 0.9790
0.2892 4.6964 -2.4410 0.9790
-0.5562 4.6905 -2.4504 0.9789
-0.7274 4.6878 -2.4610 0.9788
-0.9002 4.6844 -2.4746 0.9787
-1.2416 4.6365 -2.4901 0.9786
-2.0454 4.3315 -2.4851 0.9786
-2.1988 4.2537 -2.4841 0.9787
-2.3492 4.1705 -2.4832 0.9787
-2.6405 3.9883 -2.4814 0.9787
-2.7811 3.8897 -2.4806 0.9787
-3.0510 3.6777 -2.4790 0.9787
-3.1801 3.5648 -2.4783 0.9787
-3.3050 3.4473 -2.4775 0.9787
-3.4257 3.3255 -2.4769 0.9787
2.4554 3.8805 -2.5151 0.9793
2.3136 3.9646 -2.5141 0.9793
2.1690 4.0434 -2.5131 0.9793
1.7195 4.2479 -2.5099 0.9793
1.5652 4.3050 -2.5089 0.9793
1.0920 4.4426 -2.5056 0.9794
0.9314 4.4770 -2.5045 0.9794
0.4441 4.5452 -2.5013 0.9794
0.2805 4.5562 -2.5002 0.9794
0.1167 4.5614 -2.4991 0.9794
-0.2106 4.5541 -2.4970 0.9794
-0.6982 4.4993 -2.4938 0.9794
-1.0183 4.4340 -2.4917 0.9795
-1.6399 4.2359 -2.4878 0.9795
-1.7902 4.1727 -2.4869 0.9795
-2.5022 3.7794 -2.4825 0.9795
-2.6354 3.6859 -2.4817 0.9795
-2.7651 3.5879 -2.4810 0.9796
-3.1321 3.2670 -2.4788 0.9796
-3.2465 3.1516 -2.4782 0.9796
2.3287 3.6803 -2.5145 0.9801
2.1943 3.7601 -2.5135 0.9801
2.0571 3.8350 -2.5125 0.9801
1.7753 3.9695 -2.5106 0.9801
1.4847 4.0834 -2.5085 0.9801
1.3366 4.1324 -2.5075 0.9801
0.7302 4.2741 -2.5034 0.9802
0.5761 4.2958 -2.5024 0.9802
0.4212 4.3119 -2.5013 0.9802
0.2661 4.3225 -2.5003 0.9802
0.1107 4.3275 -2.4993 0.9802
-0.0446 4.3269 -2.4983 0.9802
-0.1998 4.3207 -2.4972 0.9802
-0.3547 4.3090 -2.4962 0.9802
-0.5090 4.2918 -2.4952 0.9802
-1.2647 4.1239 -2.4904 0.9803
-1.4114 4.0743 -2.4895 0.9803
-1.6988 3.9597 -2.4877 0.9803
-1.8393 3.8948 -2.4868 0.9803
-1.9772 3.8250 -2.4860 0.9803
-2.1126 3.7503 -2.4851 0.9803
-2.2451 3.6709 -2.4843 0.9803
-2.6243 3.4051 -2.4821 0.9803
