ply
format ascii 1.0
element vertex 657
property float32 x
property float32 y
property float32 z
property float32 I
end_header
-38.4339 -7.3730 6.9005 0.8530
-38.1228 -8.7455 6.8967 0.8531
-21.9574 -6.7305 4.0495 0.9109
-22.2083 -7.6914 4.1441 0.9090
-27.9717 -21.5792 6.2293 0.8663
-22.4270 -21.5302 5.4818 0.8814
-20.8607 -21.5205 5.2848 0.8854
-5.8621 -7.5233 1.6817 0.9620
-4.9386 -6.8312 1.4863 0.9663
-4.9015 -7.3205 1.5534 0.9648
-4.9775 -8.0455 1.6682 0.9623
-4.4063 -7.7304 1.5690 0.9645
-4.2279 -8.0796 1.6079 0.9636
-3.2184 -8.1957 1.5526 0.9649
-6.6956 -21.4724 3.9660 0.9127
-38.9235 -8.9291 6.1177 0.8508
-21.8904 -6.7100 3.5075 0.9115
-21.7658 -7.5381 3.5287 0.9110
-21.3766 -8.2756 3.5116 0.9114
-38.3505 -21.6148 6.7440 0.8368
-35.3024 -21.6052 6.3406 0.8458
-30.1496 -21.5757 5.6796 0.8607
-27.9692 -21.5773 5.4116 0.8668
-19.4041 -21.5148 4.4384 0.8894
-5.8325 -7.4852 1.4537 0.9623
-4.8321 -7.2169 1.3305 0.9655
-4.7893 -7.7414 1.3945 0.9638
-4.5734 -8.0236 1.4148 0.9633
-4.2125 -8.0502 1.3919 0.9639
-3.4789 -8.0007 1.3365 0.9653
-3.4901 -8.8873 1.4627 0.9621
-6.6953 -21.4714 3.4455 0.9130
-5.8535 -21.4588 3.4075 0.9139
-38.2045 -7.3290 5.0657 0.8548
-37.2707 -8.5500 4.9795 0.8571
-21.8239 -6.6896 2.9724 0.9120
-21.8250 -7.5586 3.0077 0.9110
-21.2295 -8.2187 2.9645 0.9123
-20.7150 -8.8887 2.9354 0.9131
-41.7970 -21.6149 6.1276 0.8271
-35.2994 -21.6034 5.3892 0.8463
-30.1487 -21.5751 4.8277 0.8611
-25.9467 -21.5488 4.3921 0.8728
-20.8612 -21.5211 3.9030 0.8861
-4.9644 -6.8668 1.1034 0.9664
-4.7650 -7.1167 1.1153 0.9660
-4.7198 -7.6290 1.1682 0.9645
-4.5621 -8.0038 1.1997 0.9635
-4.1746 -7.9779 1.1725 0.9643
-3.6804 -7.6950 1.1108 0.9662
-3.4631 -7.9644 1.1309 0.9656
-3.4606 -8.8124 1.2329 0.9625
-3.1355 -8.9140 1.2305 0.9626
-5.0311 -21.4548 2.8697 0.9149
-39.4416 -7.5663 4.3125 0.8508
-21.7448 -7.5309 2.4711 0.9116
-21.3090 -8.2494 2.4537 0.9122
-41.7981 -21.6156 5.0530 0.8275
-38.3465 -21.6125 4.7267 0.8377
-35.2964 -21.6015 4.4437 0.8466
-32.5740 -21.5828 4.1960 0.8545
-30.1479 -21.5744 3.9809 0.8614
-24.1168 -21.5405 3.4723 0.8780
-22.4273 -21.5304 3.3384 0.8824
-20.8615 -21.5213 3.2185 0.8864
-19.4046 -21.5153 3.1112 0.8900
-5.5330 -7.6533 1.0141 0.9627
-4.8539 -7.2494 0.9368 0.9655
-4.7297 -8.2978 1.0256 0.9623
-4.1377 -7.9072 0.9583 0.9647
-3.7496 -8.6231 1.0097 0.9629
-3.4258 -8.7238 1.0064 0.9630
-3.1040 -8.8244 1.0045 0.9631
-5.0310 -21.4545 2.3663 0.9152
-38.8890 -7.4603 3.3521 0.8530
-38.2459 -8.7737 3.3217 0.8543
-22.1646 -6.7940 1.9625 0.9111
-20.7656 -8.9104 1.9129 0.9133
-41.7994 -21.6162 3.9836 0.8279
-38.3446 -21.6114 3.7260 0.8380
-35.2934 -21.5997 3.5028 0.8470
-30.1470 -21.5738 3.1382 0.8617
-24.1137 -21.5377 2.7370 0.8783
-20.8618 -21.5216 2.5373 0.8866
-18.0387 -21.5079 2.3763 0.8934
-5.7361 -7.3614 0.7900 0.9632
-5.4679 -7.5633 0.7901 0.9632
-4.5740 -8.0246 0.7819 0.9636
-4.0354 -8.4372 0.7917 0.9632
-3.7123 -8.5374 0.7881 0.9633
-5.8532 -21.4577 1.8828 0.9146
-38.4012 -8.8093 2.4431 0.8539
-20.6637 -7.9996 1.3740 0.9150
-38.3426 -21.6103 2.7293 0.8383
-35.2905 -21.5979 2.5657 0.8472
-25.9460 -21.5482 2.0914 0.8736
-20.8620 -21.5219 1.8587 0.8868
-19.4051 -21.5158 1.7967 0.8904
-18.0390 -21.5082 1.7407 0.8936
-5.6612 -7.2654 0.5711 0.9638
-5.4549 -7.5454 0.5774 0.9634
-4.7128 -8.2682 0.5902 0.9626
-3.9957 -8.3540 0.5742 0.9636
-3.6758 -8.4536 0.5716 0.9637
-7.5524 -21.4707 1.4114 0.9128
-5.8531 -21.4573 1.3792 0.9147
-5.0308 -21.4537 1.3664 0.9155
-21.6822 -7.5092 0.9048 0.9122
-20.2850 -8.7042 0.8704 0.9154
-38.3406 -21.6092 1.7354 0.8385
-35.2876 -21.5961 1.6313 0.8474
-22.4276 -21.5307 1.2259 0.8830
-19.4054 -21.5161 1.1425 0.8905
-18.0392 -21.5086 1.1069 0.8937
-16.7534 -21.5007 1.0748 0.8966
-4.6584 -7.5298 0.3491 0.9652
-3.9568 -8.2727 0.3616 0.9640
-3.6402 -8.3717 0.3600 0.9641
-5.0307 -21.4533 0.8689 0.9156
-38.9714 -8.9401 0.6754 0.8522
-21.3699 -7.4010 0.3820 0.9135
-41.8029 -21.6180 0.7950 0.8284
-38.3386 -21.6081 0.7434 0.8386
-32.5700 -21.5802 0.6600 0.8553
-30.1444 -21.5719 0.6261 0.8622
-25.9455 -21.5478 0.5697 0.8738
-24.1140 -21.5380 0.5462 0.8787
-20.8625 -21.5224 0.5063 0.8870
-19.4056 -21.5164 0.4894 0.8906
-18.0395 -21.5089 0.4742 0.8938
-5.3151 -7.3520 0.1532 0.9644
-5.1082 -7.6292 0.1551 0.9639
-4.6972 -8.2408 0.1602 0.9628
-4.2354 -8.0939 0.1543 0.9641
-3.9187 -8.1931 0.1534 0.9643
-7.5517 -21.4688 0.3844 0.9130
-41.8041 -21.6186 -0.2650 0.8284
-35.2817 -21.5925 -0.2329 0.8475
-32.5690 -21.5795 -0.2200 0.8553
-30.1430 -21.5709 -0.2087 0.8622
-27.9522 -21.5642 -0.1988 0.8683
-24.1141 -21.5381 -0.1820 0.8787
-15.5390 -21.4939 -0.1494 0.8993
-4.1948 -8.0164 -0.0509 0.9645
-3.8813 -8.1150 -0.0506 0.9647
-9.3386 -21.4766 -0.1319 0.9106
-8.4318 -21.4711 -0.1299 0.9119
-5.8528 -21.4562 -0.1252 0.9149
-5.0305 -21.4526 -0.1241 0.9156
-41.8053 -21.6192 -1.3252 0.8283
-30.1402 -21.5690 -1.0436 0.8622
-27.9498 -21.5623 -0.9940 0.8683
-24.1142 -21.5382 -0.9104 0.8786
-22.4279 -21.5310 -0.8754 0.8830
-19.4061 -21.5169 -0.8159 0.8905
-18.0401 -21.5095 -0.7905 0.8937
-16.7542 -21.5016 -0.7675 0.8967
-4.7706 -7.7112 -0.2553 0.9644
-4.2802 -7.5091 -0.2434 0.9660
-4.5489 -8.6930 -0.2763 0.9615
-3.8447 -8.0384 -0.2509 0.9650
-9.3380 -21.4753 -0.6594 0.9105
-7.5510 -21.4669 -0.6408 0.9130
-6.6929 -21.4638 -0.6331 0.9140
-5.0304 -21.4522 -0.6204 0.9156
-43.4559 4.2811 -2.2145 0.8395
-43.5935 2.7165 -2.2151 0.8395
-43.6812 1.1476 -2.2160 0.8394
-43.7192 -0.4241 -2.2173 0.8394
-43.7068 -1.9974 -2.2189 0.8393
-40.2791 -9.2401 -2.0958 0.8475
-41.3331 -16.0015 -2.2478 0.8373
-36.6008 -20.6286 -2.1307 0.8451
-35.2758 -21.5889 -2.0974 0.8473
-25.9448 -21.5472 -1.7104 0.8736
-24.1143 -21.5383 -1.6397 0.8785
-22.4280 -21.5311 -1.5767 0.8829
-15.5395 -21.4945 -1.3451 0.8992
-13.2949 -21.4898 -1.2815 0.9037
-4.5221 -7.9335 -0.4631 0.9641
-10.2728 -21.4780 -1.2074 0.9090
-8.4310 -21.4692 -1.1697 0.9118
-7.5507 -21.4659 -1.1540 0.9129
-5.0304 -21.4519 -1.1174 0.9155
-31.1621 3.0700 -2.2959 0.8820
-31.3176 0.8228 -2.2971 0.8819
-31.2721 -2.5585 -2.3006 0.8818
-31.1824 -3.6841 -2.3023 0.8817
-31.0554 -4.8070 -2.3042 0.8816
-30.6358 -5.8771 -2.2872 0.8824
-28.8207 -6.6115 -2.1681 0.8882
-28.3379 -8.6863 -2.1732 0.8879
-29.8634 -10.3426 -2.3173 0.8810
-29.5143 -11.4260 -2.3206 0.8808
-28.7071 -13.5603 -2.3279 0.8804
-28.2491 -14.6088 -2.3319 0.8802
-26.6628 -17.6662 -2.3452 0.8796
-25.4311 -19.6193 -2.3551 0.8791
-21.9105 -21.0344 -2.2270 0.8853
-20.8636 -21.5235 -2.1979 0.8867
-19.4065 -21.5174 -2.1246 0.8903
-15.5397 -21.4948 -1.9448 0.8991
-14.3914 -21.4942 -1.8966 0.9015
-11.2405 -21.4808 -1.7776 0.9073
-9.3369 -21.4726 -1.7168 0.9104
-6.6923 -21.4619 -1.6484 0.9138
-5.0303 -21.4515 -1.6155 0.9154
-24.2726 2.3913 -2.3416 0.9066
-24.3465 1.5171 -2.3419 0.9066
-24.2736 -2.8678 -2.3466 0.9065
-24.0376 -4.6113 -2.3498 0.9063
-22.2415 -5.9516 -2.2104 0.9116
-22.0341 -6.7540 -2.2125 0.9116
-21.7996 -7.5498 -2.2148 0.9115
-21.2493 -9.1180 -2.2199 0.9113
-22.2917 -10.5299 -2.3669 0.9057
-21.9278 -11.3398 -2.3700 0.9056
-21.5360 -12.1380 -2.3733 0.9054
-20.6700 -13.6955 -2.3805 0.9052
-19.6965 -15.1952 -2.3883 0.9049
-19.1704 -15.9212 -2.3924 0.9047
-18.6188 -16.6299 -2.3967 0.9046
-17.4406 -17.9923 -2.4057 0.9042
-16.1663 -19.2755 -2.4152 0.9038
-15.3978 -19.7610 -2.4051 0.9042
-13.2477 -19.7870 -2.2861 0.9087
-12.5357 -20.2625 -2.2875 0.9087
-4.5155 -7.9220 -0.8754 0.9640
-10.2715 -21.4753 -2.2854 0.9088
-8.4302 -21.4672 -2.2142 0.9115
-19.8623 1.9568 -2.3708 0.9228
-19.9222 1.2414 -2.3711 0.9227
-19.9578 0.5243 -2.3715 0.9227
-19.9690 -0.1937 -2.3721 0.9227
-19.9177 -1.6296 -2.3739 0.9227
-19.8554 -2.3458 -2.3749 0.9226
-19.7686 -3.0599 -2.3762 0.9226
-19.3622 -5.1812 -2.3809 0.9224
-17.5978 -6.8127 -2.2416 0.9268
-17.0968 -8.0760 -2.2460 0.9267
-17.5796 -9.9081 -2.3970 0.9219
-17.2326 -10.5465 -2.3999 0.9218
-16.8633 -11.1733 -2.4029 0.9217
-16.0594 -12.3894 -2.4093 0.9215
-15.6255 -12.9771 -2.4127 0.9214
-14.2010 -14.6503 -2.4236 0.9211
-12.6023 -16.1734 -2.4355 0.9207
-12.0332 -16.6445 -2.4397 0.9206
-4.5093 -7.9111 -1.0817 0.9640
-9.5910 -18.3288 -2.4573 0.9200
-8.9424 -18.6966 -2.4619 0.9199
-8.2799 -19.0420 -2.4665 0.9198
-6.9165 -19.6633 -2.4760 0.9195
-6.1515 -19.7281 -2.4547 0.9201
-5.3821 -19.7308 -2.4294 0.9209
-4.6272 -19.7330 -2.4076 0.9216
-16.7944 1.6545 -2.3911 0.9341
-16.8831 -0.1638 -2.3923 0.9341
-16.8379 -1.3776 -2.3937 0.9340
-16.7840 -1.9830 -2.3947 0.9340
-16.7093 -2.5864 -2.3957 0.9340
-16.4976 -3.7846 -2.3983 0.9339
-16.2035 -4.9668 -2.4013 0.9338
-16.0259 -5.5502 -2.4030 0.9338
-14.6595 -6.2903 -2.2602 0.9376
-14.1948 -7.3407 -2.2643 0.9375
-13.9351 -7.8540 -2.2665 0.9374
-13.6575 -8.3585 -2.2688 0.9374
-13.3622 -8.8536 -2.2712 0.9373
-13.8960 -9.9443 -2.4211 0.9333
-13.1760 -10.9428 -2.4268 0.9331
-12.7897 -11.4235 -2.4298 0.9331
-12.3864 -11.8911 -2.4329 0.9330
-11.5302 -12.7843 -2.4393 0.9328
-11.0782 -13.2088 -2.4427 0.9327
-10.6110 -13.6178 -2.4461 0.9326
-10.1290 -14.0107 -2.4496 0.9325
-9.1229 -14.7461 -2.4569 0.9323
-7.5166 -15.7155 -2.4683 0.9320
-6.9576 -16.0010 -2.4722 0.9319
-5.8083 -16.5129 -2.4802 0.9317
-5.2193 -16.7385 -2.4843 0.9316
-4.0161 -17.1268 -2.4925 0.9314
-14.5784 0.9084 -2.4063 0.9425
-14.6036 0.3837 -2.4066 0.9425
-14.6108 -0.1417 -2.4071 0.9425
-14.5704 -1.1921 -2.4084 0.9425
-14.5231 -1.7158 -2.4092 0.9424
-14.3739 -2.7574 -2.4111 0.9424
-13.8605 -4.8003 -2.4164 0.9423
-11.8037 -7.2239 -2.2798 0.9454
-11.5468 -7.6507 -2.2819 0.9454
-11.2750 -8.0686 -2.2840 0.9453
-10.9884 -8.4772 -2.2863 0.9453
-10.6874 -8.8760 -2.2887 0.9452
-10.3723 -9.2644 -2.2911 0.9452
-10.6949 -10.2672 -2.4423 0.9417
-10.3304 -10.6571 -2.4451 0.9416
-8.7376 -12.0860 -2.4569 0.9413
-7.8664 -12.7152 -2.4632 0.9412
-6.9506 -13.2828 -2.4697 0.9410
-6.4772 -13.5424 -2.4730 0.9410
-5.9942 -13.7854 -2.4764 0.9409
-5.0019 -14.2201 -2.4833 0.9407
-4.4936 -14.4110 -2.4868 0.9406
-3.9781 -14.5840 -2.4903 0.9406
-3.4561 -14.7386 -2.4939 0.9405
-12.8382 0.8000 -2.4178 0.9490
-12.8662 -0.1248 -2.4185 0.9490
-12.8561 -0.5875 -2.4190 0.9490
-12.8299 -1.0497 -2.4196 0.9490
-12.7877 -1.5108 -2.4203 0.9489
-12.6551 -2.4277 -2.4220 0.9489
-12.5649 -2.8824 -2.4231 0.9489
-12.4589 -3.3339 -2.4242 0.9489
-12.3372 -3.7817 -2.4254 0.9488
-12.1999 -4.2252 -2.4267 0.9488
-12.0471 -4.6639 -2.4282 0.9488
-11.6958 -5.5247 -2.4313 0.9487
-10.5973 -5.9728 -2.2865 0.9517
-9.3973 -7.8045 -2.2961 0.9515
-9.1191 -8.1450 -2.2982 0.9515
-8.8288 -8.4758 -2.3004 0.9514
-8.5268 -8.7965 -2.3027 0.9514
-8.0433 -10.3226 -2.4597 0.9481
-7.2967 -10.8979 -2.4651 0.9480
-6.9079 -11.1659 -2.4679 0.9480
-4.4906 -7.8784 -1.7045 0.9638
-4.3880 -12.4750 -2.4856 0.9476
-3.4887 -12.7898 -2.4918 0.9475
-11.4248 1.1255 -2.4267 0.9541
-11.4834 -0.1114 -2.4275 0.9541
-11.4504 -0.9368 -2.4285 0.9541
-11.4123 -1.3483 -2.4291 0.9541
-11.3599 -1.7584 -2.4299 0.9541
-11.2931 -2.1664 -2.4307 0.9541
-11.2122 -2.5721 -2.4316 0.9541
-11.0078 -3.3742 -2.4337 0.9540
-10.7477 -4.1608 -2.4362 0.9540
-9.0569 -6.0009 -2.2966 0.9566
-8.8419 -6.3274 -2.2983 0.9565
-7.8690 -7.5544 -2.3058 0.9564
-7.3188 -8.1149 -2.3099 0.9563
-7.0288 -8.3806 -2.3121 0.9563
-6.7293 -8.6362 -2.3143 0.9562
-6.4206 -8.8812 -2.3165 0.9562
-6.1037 -9.1154 -2.3188 0.9561
-4.4843 -7.8673 -1.9142 0.9637
-4.2967 -10.9415 -2.4848 0.9531
-3.5069 -11.2467 -2.4902 0.9530
-10.3068 1.0154 -2.4341 0.9583
-10.3373 0.6442 -2.4342 0.9583
-10.3549 0.2721 -2.4345 0.9583
-10.3593 -0.1005 -2.4348 0.9583
-10.3508 -0.4730 -2.4352 0.9583
-10.3292 -0.8451 -2.4357 0.9583
-10.1864 -1.9541 -2.4377 0.9583
-10.1130 -2.3200 -2.4385 0.9583
-10.0268 -2.6831 -2.4394 0.9582
-9.6923 -3.7522 -2.4427 0.9582
-9.5560 -4.1003 -2.4439 0.9582
-9.2466 -4.7818 -2.4466 0.9581
-9.0740 -5.1142 -2.4480 0.9581
-8.8896 -5.4406 -2.4495 0.9581
-8.6939 -5.7604 -2.4511 0.9581
-8.1145 -5.8070 -2.3451 0.9598
-7.7652 -5.9906 -2.3050 0.9605
-7.5502 -6.2705 -2.3066 0.9605
-7.3254 -6.5429 -2.3084 0.9604
-7.0908 -6.8073 -2.3102 0.9604
-6.8469 -7.0635 -2.3120 0.9604
-6.5938 -7.3111 -2.3139 0.9604
-6.3320 -7.5498 -2.3158 0.9603
-5.4965 -8.2093 -2.3219 0.9602
-4.4777 -7.8556 -2.1251 0.9635
-4.2786 -8.9458 -2.3306 0.9601
-3.9580 -9.1026 -2.3328 0.9600
-3.5140 -9.9903 -2.4890 0.9574
-3.1557 -10.1202 -2.4914 0.9574
-2.7925 -10.2373 -2.4939 0.9573
-2.4250 -10.3415 -2.4964 0.9573
-9.3793 0.9240 -2.4402 0.9618
-9.4070 0.5862 -2.4404 0.9618
-9.4228 0.2476 -2.4406 0.9618
-9.4268 -0.0914 -2.4409 0.9618
-9.4188 -0.4304 -2.4413 0.9618
-9.3990 -0.7690 -2.4417 0.9618
-9.3673 -1.1067 -2.4422 0.9618
-9.0323 -2.7686 -2.4460 0.9617
-8.9304 -3.0929 -2.4470 0.9617
-8.4108 -4.3494 -2.4516 0.9616
-8.0850 -4.9481 -2.4543 0.9616
-7.9068 -5.2387 -2.4557 0.9616
-7.7178 -5.5230 -2.4572 0.9615
-7.5014 -5.7872 -2.4531 0.9616
-6.6602 -5.9487 -2.3122 0.9638
-6.4465 -6.1887 -2.3138 0.9637
-5.2555 -7.2696 -2.3226 0.9636
-4.9947 -7.4599 -2.3245 0.9636
-4.7272 -7.6410 -2.3264 0.9636
-4.4531 -7.8126 -2.3283 0.9635
-3.5952 -8.2681 -2.3344 0.9634
-3.2984 -8.3995 -2.3364 0.9634
-2.0675 -8.8173 -2.3449 0.9633
-8.5965 0.8469 -2.4454 0.9647
-8.6219 0.5373 -2.4455 0.9647
-8.6399 -0.0838 -2.4460 0.9647
-8.6142 -0.7048 -2.4468 0.9647
-8.4940 -1.6295 -2.4484 0.9647
-8.4323 -1.9344 -2.4491 0.9647
-8.2769 -2.5371 -2.4507 0.9647
-8.0792 -3.1278 -2.4526 0.9646
-7.7056 -3.9849 -2.4559 0.9646
-7.4069 -4.5330 -2.4583 0.9645
-7.2429 -4.7990 -2.4597 0.9645
-7.0696 -5.0592 -2.4610 0.9645
-6.8870 -5.3132 -2.4625 0.9645
-6.6957 -5.5608 -2.4640 0.9645
-6.4752 -5.7837 -2.4579 0.9646
-6.0387 -5.7973 -2.3698 0.9658
-5.7000 -5.8802 -2.3184 0.9665
-5.4885 -6.0855 -2.3199 0.9665
-5.2698 -6.2833 -2.3216 0.9665
-4.5724 -6.8292 -2.3266 0.9664
-3.5571 -7.4372 -2.3338 0.9663
-3.2900 -7.5663 -2.3357 0.9663
-3.0182 -7.6859 -2.3376 0.9663
-2.4621 -7.8959 -2.3414 0.9662
-2.1783 -7.9860 -2.3434 0.9662
-7.9499 0.4954 -2.4500 0.9672
-7.9631 0.2092 -2.4502 0.9672
-7.9663 -0.0773 -2.4504 0.9672
-7.9425 -0.6498 -2.4511 0.9672
-7.9154 -0.9352 -2.4516 0.9672
-7.8312 -1.5023 -2.4527 0.9672
-7.6305 -2.3390 -2.4548 0.9672
-7.2271 -3.4139 -2.4584 0.9671
-6.9692 -3.9279 -2.4606 0.9671
-6.8267 -4.1780 -2.4618 0.9671
-6.6753 -4.4230 -2.4630 0.9670
-6.3469 -4.8965 -2.4656 0.9670
-5.7927 -5.5611 -2.4698 0.9670
-5.5924 -5.7693 -2.4714 0.9669
-4.8653 -5.8010 -2.3287 0.9688
-3.5173 -6.7217 -2.3334 0.9688
-3.2757 -6.8489 -2.3351 0.9687
-2.7791 -7.0770 -2.3386 0.9687
-2.5247 -7.1778 -2.3403 0.9687
-2.2667 -7.2694 -2.3421 0.9686
-7.3460 0.7237 -2.4537 0.9694
-7.3799 0.1939 -2.4540 0.9694
-7.3828 -0.0716 -2.4542 0.9694
-7.3354 -0.8666 -2.4553 0.9693
-7.2571 -1.3922 -2.4563 0.9693
-7.1419 -1.9111 -2.4575 0.9693
-7.0706 -2.1673 -2.4583 0.9693
-6.9903 -2.4209 -2.4590 0.9693
-6.8029 -2.9191 -2.4607 0.9693
-6.6960 -3.1630 -2.4617 0.9693
-6.5806 -3.4031 -2.4626 0.9693
-6.4567 -3.6391 -2.4637 0.9692
-5.8793 -4.5357 -2.4683 0.9692
-5.5439 -4.9517 -2.4709 0.9692
-5.3652 -5.1507 -2.4722 0.9691
-5.1795 -5.3433 -2.4736 0.9691
-4.7877 -5.7085 -2.4766 0.9691
-4.5053 -5.7820 -2.4365 0.9696
-3.8999 -5.8246 -2.3301 0.9709
-3.4757 -6.0978 -2.3331 0.9708
-3.2563 -6.2230 -2.3346 0.9708
-2.8045 -6.4497 -2.3378 0.9708
-6.8377 0.6736 -2.4571 0.9712
-6.8718 -0.0667 -2.4575 0.9712
-6.8658 -0.3138 -2.4578 0.9712
-6.8275 -0.8066 -2.4585 0.9712
-6.7953 -1.0518 -2.4590 0.9712
-6.5805 -2.0171 -2.4613 0.9712
-6.3309 -2.7166 -2.4636 0.9712
-6.2313 -2.9435 -2.4645 0.9711
-6.0082 -3.3863 -2.4664 0.9711
-5.4702 -4.2201 -2.4707 0.9711
-5.1578 -4.6068 -2.4731 0.9710
-4.9913 -4.7918 -2.4743 0.9710
-4.6390 -5.1436 -2.4770 0.9710
-4.4535 -5.3100 -2.4784 0.9710
-4.2621 -5.4698 -2.4798 0.9710
-3.2990 -5.7878 -2.3824 0.9721
-2.6078 -5.9973 -2.3387 0.9726
-2.3920 -6.0911 -2.3402 0.9726
-1.9505 -6.2554 -2.3432 0.9725
-6.4072 0.3993 -2.4601 0.9729
-6.4145 -0.2931 -2.4607 0.9729
-6.4007 -0.5237 -2.4611 0.9729
-6.3485 -0.9827 -2.4618 0.9729
-6.3102 -1.2105 -2.4623 0.9729
-6.2639 -1.4370 -2.4628 0.9728
-6.0774 -2.1048 -2.4647 0.9728
-5.9139 -2.5376 -2.4662 0.9728
-5.8208 -2.7496 -2.4670 0.9728
-5.7201 -2.9581 -2.4678 0.9728
-5.4968 -3.3641 -2.4697 0.9728
-5.3744 -3.5610 -2.4707 0.9728
-5.1089 -3.9414 -2.4728 0.9727
-4.8169 -4.3023 -2.4750 0.9727
-4.4995 -4.6419 -2.4774 0.9727
-4.1585 -4.9583 -2.4799 0.9727
-3.9796 -5.1074 -2.4813 0.9726
-3.7954 -5.2500 -2.4826 0.9726
-3.6062 -5.3860 -2.4840 0.9726
-3.2134 -5.6377 -2.4868 0.9726
-1.8703 -5.9982 -2.4078 0.9734
-1.4646 -6.2461 -2.4585 0.9729
-6.0179 -0.0584 -2.4631 0.9743
-5.7616 -1.7661 -2.4664 0.9743
-5.6959 -1.9727 -2.4670 0.9743
-5.4551 -2.5768 -2.4692 0.9743
-5.3607 -2.7722 -2.4700 0.9743
-5.2593 -2.9642 -2.4708 0.9742
-5.1512 -3.1525 -2.4717 0.9742
-5.0363 -3.3370 -2.4727 0.9742
-4.9150 -3.5173 -2.4736 0.9742
-4.6533 -3.8646 -2.4757 0.9742
-4.5133 -4.0312 -2.4767 0.9742
-4.3674 -4.1928 -2.4778 0.9742
-4.0585 -4.5000 -2.4802 0.9741
-3.7282 -4.7848 -2.4826 0.9741
-3.5556 -4.9182 -2.4838 0.9741
-3.3782 -5.0455 -2.4851 0.9741
-3.1962 -5.1664 -2.4864 0.9741
-3.0100 -5.2808 -2.4878 0.9741
-2.8197 -5.3886 -2.4891 0.9741
-2.4278 -5.5834 -2.4918 0.9740
-2.2267 -5.6703 -2.4932 0.9740
-2.0225 -5.7499 -2.4946 0.9740
-1.8154 -5.8223 -2.4961 0.9740
-5.6454 0.3518 -2.4652 0.9756
-5.6547 0.1486 -2.4653 0.9756
-5.6568 -0.0549 -2.4655 0.9756
-5.6394 -0.4614 -2.4660 0.9756
-5.5932 -0.8658 -2.4667 0.9756
-5.4705 -1.4639 -2.4680 0.9756
-5.3536 -1.8541 -2.4692 0.9756
-4.7330 -3.1360 -2.4744 0.9755
-4.6189 -3.3054 -2.4754 0.9755
-4.2411 -3.7881 -2.4783 0.9755
-4.1039 -3.9398 -2.4793 0.9755
-3.8134 -4.2282 -2.4815 0.9755
-3.0027 -4.8537 -2.4874 0.9754
-2.2805 -5.2447 -2.4925 0.9754
-1.8997 -5.4008 -2.4951 0.9753
-1.5082 -5.5293 -2.4978 0.9753
-1.3091 -5.5830 -2.4991 0.9753
-5.3044 0.5226 -2.4672 0.9768
-5.3199 0.3315 -2.4673 0.9768
-5.3258 -0.2434 -2.4678 0.9768
-5.3141 -0.4348 -2.4681 0.9768
-5.2705 -0.8158 -2.4687 0.9768
-5.2386 -1.0050 -2.4691 0.9768
-5.0445 -1.7470 -2.4711 0.9767
-4.9796 -1.9278 -2.4717 0.9767
-4.8307 -2.2819 -2.4730 0.9767
-4.4592 -2.9546 -2.4761 0.9767
-3.9953 -3.5686 -2.4797 0.9767
-3.8660 -3.7114 -2.4807 0.9767
-3.7315 -3.8496 -2.4817 0.9766
-3.5922 -3.9829 -2.4827 0.9766
-3.4481 -4.1113 -2.4838 0.9766
-3.2995 -4.2345 -2.4849 0.9766
-3.1465 -4.3523 -2.4860 0.9766
-2.9894 -4.4647 -2.4871 0.9766
-2.3228 -4.8564 -2.4918 0.9766
-1.7889 -5.0858 -2.4955 0.9765
-5.0095 0.4935 -2.4692 0.9778
-5.0241 0.3131 -2.4692 0.9778
-5.0324 0.1322 -2.4694 0.9778
-5.0342 -0.0488 -2.4695 0.9778
-5.0296 -0.2298 -2.4697 0.9778
-5.0186 -0.4106 -2.4700 0.9778
-5.0012 -0.5909 -2.4703 0.9778
-4.9471 -0.9490 -2.4710 0.9778
-4.9106 -1.1265 -2.4714 0.9778
-4.8679 -1.3026 -2.4718 0.9778
-4.7635 -1.6498 -2.4728 0.9778
-4.7023 -1.8204 -2.4734 0.9778
-4.6349 -1.9888 -2.4740 0.9778
-4.5615 -2.1547 -2.4746 0.9778
-4.4823 -2.3180 -2.4753 0.9778
-4.0017 -3.0872 -2.4792 0.9777
-3.8894 -3.2302 -2.4800 0.9777
-3.7721 -3.3692 -2.4809 0.9777
-3.5229 -3.6344 -2.4828 0.9777
-3.2552 -3.8813 -2.4848 0.9777
-2.9703 -4.1086 -2.4869 0.9777
-2.6696 -4.3152 -2.4891 0.9776
-2.5139 -4.4104 -2.4902 0.9776
-2.3547 -4.5000 -2.4913 0.9776
-2.0271 -4.6619 -2.4936 0.9776
-1.8590 -4.7339 -2.4947 0.9776
-1.6883 -4.8000 -2.4959 0.9776
-1.5154 -4.8599 -2.4971 0.9776
-1.3403 -4.9136 -2.4983 0.9776
-1.1633 -4.9610 -2.4995 0.9776
-4.7617 0.1251 -2.4711 0.9788
-4.7634 -0.0462 -2.4713 0.9788
-4.7486 -0.3885 -2.4717 0.9788
-4.7321 -0.5591 -2.4720 0.9788
-4.7095 -0.7290 -2.4723 0.9788
-4.6809 -0.8980 -2.4726 0.9788
-4.5593 -1.3976 -2.4739 0.9787
-4.5070 -1.5609 -2.4744 0.9787
-4.3851 -1.8816 -2.4755 0.9787
-4.3156 -2.0386 -2.4761 0.9787
-4.2407 -2.1930 -2.4768 0.9787
-4.0744 -2.4935 -2.4781 0.9787
-3.9832 -2.6392 -2.4789 0.9787
-3.8870 -2.7816 -2.4796 0.9787
-3.7856 -2.9205 -2.4804 0.9787
-3.6794 -3.0558 -2.4813 0.9787
-3.0790 -3.6713 -2.4858 0.9786
-4.4927 0.4426 -2.4726 0.9796
-4.5148 -0.0438 -2.4729 0.9796
-4.5007 -0.3682 -2.4733 0.9796
-4.3652 -1.1681 -2.4750 0.9796
-4.2715 -1.4793 -2.4759 0.9796
-3.9426 -2.2221 -2.4787 0.9796
-3.7748 -2.5011 -2.4801 0.9796
-3.5874 -2.7676 -2.4816 0.9795
-3.3813 -3.0202 -2.4832 0.9795
-3.2716 -3.1409 -2.4840 0.9795
-3.1577 -3.2576 -2.4849 0.9795
-2.9175 -3.4786 -2.4866 0.9795
-2.7915 -3.5826 -2.4876 0.9795
-2.5287 -3.7768 -2.4895 0.9795
-2.2526 -3.9520 -2.4914 0.9795
-2.1098 -4.0320 -2.4924 0.9795
-1.9643 -4.1070 -2.4935 0.9795
-1.8161 -4.1767 -2.4945 0.9794
-4.2646 0.4201 -2.4741 0.9804
-4.2771 0.2665 -2.4742 0.9804
-4.2855 -0.0416 -2.4744 0.9804
-4.2721 -0.3495 -2.4748 0.9804
-4.2369 -0.6558 -2.4753 0.9804
-4.0544 -1.4042 -2.4772 0.9804
-3.8820 -1.8337 -2.4788 0.9804
-3.8145 -1.9726 -2.4793 0.9804
-3.4959 -2.5017 -2.4819 0.9803
-3.4046 -2.6266 -2.4826 0.9803
-3.2090 -2.8662 -2.4841 0.9803
-2.9966 -3.0914 -2.4857 0.9803
-2.8845 -3.1983 -2.4866 0.9803
-2.5259 -3.4940 -2.4892 0.9803
-2.3995 -3.5839 -2.4901 0.9803
-2.1373 -3.7499 -2.4920 0.9803
-1.8638 -3.8968 -2.4939 0.9802
-1.5801 -4.0239 -2.4959 0.9802
-1.4350 -4.0797 -2.4969 0.9802
-0.9885 -4.2157 -2.4999 0.9802
