ply
format ascii 1.0
element vertex 557
property float32 x
property float32 y
property float32 z
property float32 I
end_header
-37.6379 14.5151 7.1130 0.8489
-38.5218 13.2777 7.1846 0.8475
-43.1353 9.8039 7.7999 0.8355
-38.9074 -6.8447 6.9658 0.8518
-38.6775 -8.2555 6.9735 0.8516
-20.6306 -8.5051 3.9347 0.9133
-20.6327 -9.3921 3.9973 0.9120
-34.2405 -22.0325 7.1794 0.8476
-37.2444 15.9325 6.2058 0.8488
-42.7497 8.1037 6.6656 0.8386
-40.0920 -7.0531 6.2362 0.8481
-38.8986 -8.3027 6.0933 0.8513
-37.8277 -9.5155 5.9755 0.8540
-33.5812 -21.6082 6.1174 0.8508
-31.0300 -21.5912 5.7912 0.8582
-44.1076 20.7851 6.3495 0.8214
-42.4744 16.3803 5.9281 0.8322
-43.7882 13.3432 5.9610 0.8314
-45.0278 10.2340 6.0131 0.8301
-38.7801 -8.2774 5.1637 0.8522
-37.6965 -9.4825 5.0618 0.8549
-22.2683 -6.4657 3.0196 0.9107
-20.1511 -9.1729 2.8832 0.9146
-39.6246 -21.6198 5.8780 0.8335
-36.4302 -21.6209 5.5165 0.8429
-31.0287 -21.5904 4.9225 0.8586
-28.7524 -21.5895 4.6822 0.8650
-41.3867 25.3070 5.2092 0.8227
-45.7380 17.6390 5.2640 0.8210
-47.9060 12.7252 5.3226 0.8192
-39.2442 -6.9040 4.2788 0.8519
-22.2522 -6.4610 2.4882 0.9110
-21.7386 -7.1734 2.4581 0.9120
-21.6715 -8.0308 2.4818 0.9112
-20.0484 -9.1262 2.3654 0.9152
-39.6252 -21.6202 4.8472 0.8339
-33.5749 -21.6042 4.2872 0.8516
-31.0275 -21.5895 4.0590 0.8589
-35.9910 29.9114 3.9616 0.8287
-36.4496 24.1401 3.7009 0.8390
-36.9316 -9.2901 3.2238 0.8582
-21.0534 -8.6794 1.9277 0.9126
-19.9473 -9.0801 1.8553 0.9158
-43.3465 -21.6557 4.1018 0.8232
-39.6258 -21.6205 3.8213 0.8343
-33.5719 -21.6023 3.3795 0.8519
-31.0262 -21.5886 3.1997 0.8592
-28.7467 -21.5852 3.0431 0.8656
-35.5068 27.4014 2.7812 0.8355
-35.5287 25.4240 2.7091 0.8394
-39.1482 23.9382 2.8455 0.8320
-42.5952 23.9754 3.0310 0.8221
-39.3455 -9.8974 2.5158 0.8499
-43.3410 -21.6530 3.0043 0.8235
-39.6264 -21.6208 2.7992 0.8345
-33.5688 -21.6003 2.4753 0.8522
-31.0250 -21.5878 2.3438 0.8594
-28.7439 -21.5831 2.2290 0.8658
-30.4497 25.3061 1.5612 0.8534
-30.3936 23.4554 1.5138 0.8575
-31.9147 22.8378 1.5474 0.8546
-37.6682 -8.0401 1.5188 0.8571
-20.7755 -8.5648 0.8861 0.9140
-39.6270 -21.6212 1.7800 0.8347
-36.4213 -21.6157 1.6700 0.8441
-33.5658 -21.5983 1.5739 0.8523
-28.9131 22.3129 0.6169 0.8641
-10.3628 6.8632 0.2100 0.9515
-10.5519 6.4523 0.2089 0.9517
-42.3547 23.8400 0.8210 0.8233
-38.5457 -8.2274 0.6658 0.8541
-22.4640 -7.4127 0.3996 0.9097
-21.8293 -8.9993 0.3988 0.9099
-36.4191 -21.6144 0.7154 0.8442
-33.5627 -21.5963 0.6742 0.8524
-31.0225 -21.5861 0.6384 0.8597
-8.4771 6.5421 -0.0603 0.9581
-10.5521 6.4525 -0.0696 0.9517
-11.6299 6.5461 -0.0751 0.9480
-12.6757 6.5432 -0.0803 0.9445
-15.2785 6.5359 -0.0936 0.9357
-16.9271 6.5280 -0.1021 0.9300
-18.9229 6.5225 -0.1127 0.9231
-21.1095 6.4326 -0.1242 0.9155
-24.5001 6.5080 -0.1427 0.9036
-39.2032 -8.3677 -0.2257 0.8518
-43.3246 -21.6447 -0.2727 0.8239
-33.5596 -21.5944 -0.2247 0.8525
-8.4773 6.5422 -0.3015 0.9581
-16.9278 6.5283 -0.5109 0.9300
-24.5014 6.5083 -0.7138 0.9035
-21.7096 -8.0449 -0.6519 0.9115
-43.3191 -21.6420 -1.3635 0.8238
-39.6288 -21.6221 -1.2711 0.8347
-28.7327 -21.5747 -1.0117 0.8661
-7.8740 6.5440 -0.5192 0.9598
-8.4775 6.5424 -0.5431 0.9580
-9.1399 6.5405 -0.5700 0.9560
-12.6764 6.5436 -0.7235 0.9445
-18.9245 6.5230 -1.0152 0.9230
-21.1114 6.4331 -1.1193 0.9154
-28.5717 6.4939 -1.4859 0.8893
-43.5516 3.4431 -2.2156 0.8395
-43.7219 -2.8766 -2.2221 0.8390
-40.4551 -8.6349 -2.0979 0.8473
-42.7904 -10.7639 -2.2377 0.8380
-42.0604 -13.8792 -2.2462 0.8375
-41.1261 -16.9545 -2.2560 0.8368
-40.5827 -18.4735 -2.2613 0.8365
-39.7641 -19.8660 -2.2543 0.8369
-33.5535 -21.5904 -2.0235 0.8523
-28.7299 -21.5726 -1.8220 0.8660
-7.8742 6.5442 -0.7507 0.9598
-9.8727 6.5386 -0.8683 0.9536
-10.5529 6.4530 -0.9070 0.9516
-12.6768 6.5438 -1.0460 0.9444
-18.9253 6.5233 -1.4678 0.9229
-24.5039 6.5090 -1.8590 0.9033
-31.3066 1.3391 -2.2976 0.8819
-31.3494 0.2068 -2.2987 0.8818
-31.3222 -2.0608 -2.3016 0.8817
-31.2520 -3.1939 -2.3034 0.8816
-31.1440 -4.3251 -2.3055 0.8815
-30.9983 -5.4533 -2.3078 0.8814
-28.9383 -6.1767 -2.1696 0.8881
-28.7307 -7.2272 -2.1722 0.8880
-28.9285 -13.1685 -2.3305 0.8803
-28.4845 -14.2307 -2.3347 0.8801
-28.0041 -15.2795 -2.3391 0.8799
-27.4876 -16.3136 -2.3437 0.8797
-26.9353 -17.3319 -2.3485 0.8794
-8.4779 6.5426 -1.0281 0.9579
-9.8729 6.5388 -1.1369 0.9535
-10.5532 6.4531 -1.1876 0.9515
-11.6311 6.5468 -1.2814 0.9478
-12.6772 6.5440 -1.3697 0.9443
-13.8797 6.5407 -1.4731 0.9402
-16.9296 6.5290 -1.7420 0.9297
-22.1389 5.8807 -2.1992 0.9121
-22.3340 5.0761 -2.1989 0.9121
-23.9612 4.5421 -2.3414 0.9066
-24.2304 2.7999 -2.3417 0.9066
-24.3812 1.0429 -2.3429 0.9066
-24.4120 0.1611 -2.3437 0.9066
-24.3839 -1.6043 -2.3460 0.9065
-24.2362 -3.3658 -2.3491 0.9064
-24.1175 -4.2428 -2.3510 0.9063
-23.9689 -5.1160 -2.3530 0.9062
-22.1464 -6.4303 -2.2140 0.9115
-22.4579 -10.2230 -2.3689 0.9056
-22.1044 -11.0433 -2.3722 0.9055
-19.9168 -14.9551 -2.3912 0.9048
-9.8732 6.5390 -1.4067 0.9534
-10.5535 6.4533 -1.4694 0.9514
-12.6775 6.5442 -1.6947 0.9442
-13.8801 6.5409 -1.8227 0.9401
-15.2811 6.5370 -1.9743 0.9352
-16.9303 6.5292 -2.1554 0.9295
-17.9334 5.4647 -2.2269 0.9273
-19.4613 4.4232 -2.3707 0.9228
-19.6076 3.7168 -2.3706 0.9228
-19.7297 3.0059 -2.3707 0.9228
-19.8274 2.2911 -2.3709 0.9227
-19.9006 1.5733 -2.3713 0.9227
-19.9491 0.8533 -2.3718 0.9227
-19.9720 -0.5903 -2.3734 0.9227
-19.8960 -2.0333 -2.3757 0.9226
-19.5964 -4.1827 -2.3802 0.9225
-19.2738 -5.5962 -2.3840 0.9223
-17.9143 -5.9114 -2.2408 0.9268
-17.7057 -6.5612 -2.2429 0.9268
-17.4747 -7.2041 -2.2452 0.9267
-17.2214 -7.8393 -2.2476 0.9266
-16.9460 -8.4661 -2.2502 0.9265
-16.6488 -9.0838 -2.2529 0.9264
-17.3889 -10.3202 -2.4020 0.9218
-17.0267 -10.9561 -2.4051 0.9217
-7.8747 6.5446 -1.4508 0.9595
-9.1408 6.5411 -1.5926 0.9556
-10.5538 6.4535 -1.7528 0.9513
-11.6318 6.5472 -1.8912 0.9475
-14.5853 6.2393 -2.2477 0.9379
-14.7965 5.7063 -2.2470 0.9379
-15.2525 4.6478 -2.2592 0.9376
-16.4554 3.7400 -2.3910 0.9341
-16.6824 2.5416 -2.3910 0.9341
-16.7647 1.9372 -2.3912 0.9341
-16.8261 1.3302 -2.3915 0.9341
-16.8842 -0.4991 -2.3934 0.9340
-16.8614 -1.1093 -2.3942 0.9340
-16.8174 -1.7187 -2.3953 0.9340
-16.6664 -2.9320 -2.3977 0.9339
-16.5593 -3.5345 -2.3991 0.9339
-16.2827 -4.7278 -2.4024 0.9338
-16.1137 -5.3171 -2.4042 0.9337
-15.7271 -5.8280 -2.3764 0.9345
-14.7562 -6.0834 -2.2615 0.9376
-14.3049 -7.1467 -2.2657 0.9374
-13.4898 -8.6802 -2.2729 0.9372
-13.6912 -10.2804 -2.4259 0.9332
-7.8749 6.5447 -1.6868 0.9593
-9.1410 6.5413 -1.8517 0.9555
-10.5540 6.4536 -2.0380 0.9511
-11.6321 6.5474 -2.1990 0.9473
-12.2070 6.3012 -2.2631 0.9458
-12.4220 5.8537 -2.2622 0.9459
-12.8046 4.9381 -2.2609 0.9459
-14.1165 3.7497 -2.4062 0.9425
-14.3489 2.7200 -2.4059 0.9425
-14.6108 -0.4319 -2.4080 0.9425
-14.5515 -1.4871 -2.4097 0.9424
-14.4943 -2.0129 -2.4107 0.9424
-14.3251 -3.0576 -2.4131 0.9423
-14.0832 -4.0891 -2.4159 0.9423
-13.9353 -4.5984 -2.4174 0.9422
-13.5862 -5.6010 -2.4209 0.9422
-12.3654 -6.1777 -2.2771 0.9455
-11.3883 -7.9242 -2.2856 0.9453
-11.1058 -8.3391 -2.2879 0.9453
-7.8750 6.5449 -1.9247 0.9592
-9.1412 6.5414 -2.1128 0.9553
-9.8739 6.5394 -2.2260 0.9529
-10.3272 6.3149 -2.2753 0.9519
-10.5443 5.9351 -2.2743 0.9519
-10.9378 5.1543 -2.2727 0.9520
-12.0067 4.6304 -2.4188 0.9490
-12.1638 4.1926 -2.4183 0.9490
-12.3054 3.7497 -2.4179 0.9490
-12.7773 1.4765 -2.4176 0.9490
-12.8237 1.0138 -2.4179 0.9490
-12.8539 0.5498 -2.4182 0.9490
-12.7613 -1.7722 -2.4216 0.9489
-12.6941 -2.2332 -2.4226 0.9489
-12.6108 -2.6917 -2.4237 0.9489
-12.3957 -3.5994 -2.4262 0.9488
-11.9558 -4.9288 -2.4307 0.9487
-11.7781 -5.3614 -2.4324 0.9487
-10.4746 -6.2166 -2.2894 0.9516
-9.7655 -7.3327 -2.2954 0.9515
-7.8752 6.5450 -2.1645 0.9590
-8.5629 6.6082 -2.2864 0.9567
-9.2155 5.6351 -2.2833 0.9568
-10.8565 3.7420 -2.4273 0.9541
-10.9831 3.3468 -2.4270 0.9541
-11.0957 2.9473 -2.4267 0.9541
-11.4045 1.3178 -2.4267 0.9541
-11.4847 0.0758 -2.4277 0.9541
-11.4824 -0.3394 -2.4282 0.9541
-11.3881 -1.5815 -2.4303 0.9541
-11.2528 -2.4018 -2.4322 0.9540
-11.1635 -2.8082 -2.4333 0.9540
-10.9424 -3.6108 -2.4357 0.9540
-9.7817 -5.8054 -2.4044 0.9546
-9.1414 -5.8820 -2.2977 0.9565
-8.9294 -6.2132 -2.2995 0.9565
-8.7060 -6.5371 -2.3013 0.9565
-7.5056 6.2378 -2.2937 0.9607
-7.7225 5.9597 -2.2926 0.9607
-8.1260 5.3818 -2.2907 0.9607
-8.3121 5.0827 -2.2898 0.9608
-9.0204 4.6563 -2.3858 0.9591
-9.3765 4.4186 -2.4361 0.9583
-9.5278 4.0758 -2.4356 0.9583
-10.0099 2.6589 -2.4341 0.9583
-10.0989 2.2953 -2.4340 0.9583
-10.1750 1.9288 -2.4340 0.9583
-10.2382 1.5598 -2.4340 0.9583
-10.3604 0.0684 -2.4350 0.9583
-10.2722 -1.4266 -2.4374 0.9583
-10.1493 -2.1663 -2.4391 0.9583
-9.7487 -3.6125 -2.4434 0.9582
-9.3159 -4.6542 -2.4475 0.9581
-8.9674 -5.3216 -2.4505 0.9581
-8.3410 -5.8038 -2.3882 0.9591
-6.8280 5.6746 -2.2987 0.9640
-7.2142 5.1624 -2.2969 0.9640
-7.3933 4.8965 -2.2960 0.9640
-8.3832 4.3274 -2.4427 0.9618
-8.6699 3.7088 -2.4416 0.9618
-8.7967 3.3925 -2.4411 0.9618
-8.9122 3.0719 -2.4408 0.9618
-9.0164 2.7475 -2.4405 0.9618
-9.1090 2.4196 -2.4403 0.9618
-9.1900 2.0887 -2.4401 0.9618
-9.2593 1.7552 -2.4401 0.9618
-9.3169 1.4195 -2.4401 0.9618
-9.3962 0.7428 -2.4404 0.9618
-9.4277 0.0622 -2.4411 0.9618
-9.3466 -1.2980 -2.4432 0.9618
-8.9772 -2.9623 -2.4476 0.9617
-8.8682 -3.2863 -2.4487 0.9617
-8.1546 -4.8397 -2.4552 0.9616
-7.9793 -5.1344 -2.4567 0.9616
-7.5973 -5.7047 -2.4599 0.9615
-6.2565 5.1997 -2.3030 0.9667
-7.0447 4.6656 -2.3920 0.9655
-7.3803 4.5129 -2.4490 0.9647
-7.6829 3.9659 -2.4477 0.9647
-7.9460 3.3992 -2.4466 0.9647
-8.0623 3.1093 -2.4462 0.9647
-8.1683 2.8155 -2.4459 0.9647
-8.2638 2.5182 -2.4456 0.9647
-8.4866 1.6087 -2.4453 0.9647
-8.5394 1.3010 -2.4453 0.9647
-8.6120 0.6809 -2.4456 0.9647
-8.6407 0.0570 -2.4462 0.9647
-8.6384 -0.2553 -2.4466 0.9647
-8.6010 -0.8790 -2.4476 0.9647
-8.3154 -2.4144 -2.4513 0.9646
-8.1258 -3.0112 -2.4532 0.9646
-8.0151 -3.3043 -2.4543 0.9646
-7.7629 -3.8783 -2.4566 0.9646
-7.6215 -4.1584 -2.4579 0.9646
-6.0613 4.6777 -2.3549 0.9685
-6.4898 4.6441 -2.4546 0.9672
-6.8043 4.1607 -2.4531 0.9672
-6.9485 3.9111 -2.4525 0.9672
-7.2096 3.3974 -2.4514 0.9672
-7.3264 3.1341 -2.4510 0.9672
-7.4337 2.8668 -2.4506 0.9672
-7.6197 2.3219 -2.4501 0.9672
-7.6981 2.0448 -2.4499 0.9672
-7.8252 1.4834 -2.4497 0.9672
-7.8738 1.1996 -2.4498 0.9672
-7.9407 0.6278 -2.4500 0.9672
-7.9671 0.0526 -2.4505 0.9672
-7.9649 -0.2354 -2.4509 0.9672
-7.9526 -0.5232 -2.4513 0.9672
-7.9301 -0.8104 -2.4518 0.9672
-7.5831 -2.5023 -2.4561 0.9671
-7.3884 -3.0459 -2.4580 0.9671
-7.2766 -3.3123 -2.4591 0.9671
-6.4126 -4.8151 -2.4665 0.9670
-5.6153 4.6668 -2.4270 0.9697
-5.8561 4.5193 -2.4588 0.9693
-6.0137 4.3033 -2.4581 0.9693
-6.3054 3.8556 -2.4567 0.9693
-6.4390 3.6243 -2.4561 0.9693
-6.5644 3.3885 -2.4556 0.9693
-6.6813 3.1485 -2.4551 0.9693
-6.7896 2.9045 -2.4547 0.9694
-6.8892 2.6568 -2.4544 0.9694
-6.9799 2.4058 -2.4541 0.9694
-7.0616 2.1518 -2.4539 0.9694
-7.1979 1.6359 -2.4536 0.9694
-7.2521 1.3747 -2.4536 0.9694
-7.3591 0.5818 -2.4538 0.9694
-7.3760 0.3155 -2.4541 0.9694
-7.3834 0.0487 -2.4543 0.9694
-7.3813 -0.2182 -2.4547 0.9694
-7.3489 -0.7510 -2.4555 0.9693
-7.2787 -1.2805 -2.4566 0.9693
-7.1711 -1.8039 -2.4580 0.9693
-7.1033 -2.0625 -2.4587 0.9693
-7.0264 -2.3186 -2.4595 0.9693
-6.8455 -2.8221 -2.4613 0.9693
-6.7418 -3.0689 -2.4623 0.9693
-6.5080 -3.5509 -2.4644 0.9692
-6.3783 -3.7855 -2.4655 0.9692
-6.2404 -4.0155 -2.4667 0.9692
-5.2961 4.4015 -2.4626 0.9712
-5.4500 4.2059 -2.4619 0.9712
-5.5969 4.0051 -2.4611 0.9712
-6.3196 2.7034 -2.4580 0.9712
-6.4123 2.4729 -2.4577 0.9712
-6.4968 2.2393 -2.4574 0.9712
-6.5729 2.0029 -2.4572 0.9712
-6.6406 1.7639 -2.4571 0.9712
-6.7922 1.0348 -2.4570 0.9712
-6.8254 0.7887 -2.4571 0.9712
-6.8498 0.5415 -2.4572 0.9712
-6.8655 0.2937 -2.4574 0.9712
-6.8704 -0.2031 -2.4580 0.9712
-6.8400 -0.6990 -2.4588 0.9712
-6.7744 -1.1918 -2.4598 0.9712
-6.6108 -1.9195 -2.4617 0.9712
-6.5392 -2.1578 -2.4625 0.9712
-5.9350 -3.5224 -2.4680 0.9711
-5.8064 -3.7362 -2.4691 0.9711
-4.9474 4.1117 -2.4652 0.9728
-5.0913 3.9291 -2.4645 0.9728
-5.2286 3.7415 -2.4639 0.9728
-5.3590 3.5492 -2.4632 0.9728
-5.4826 3.3525 -2.4627 0.9728
-5.5989 3.1515 -2.4622 0.9729
-5.9042 2.5257 -2.4609 0.9729
-6.0699 2.0922 -2.4604 0.9729
-6.1410 1.8713 -2.4602 0.9729
-6.2043 1.6480 -2.4601 0.9729
-6.2596 1.4227 -2.4600 0.9729
-6.3068 1.1955 -2.4599 0.9729
-6.3770 0.7369 -2.4600 0.9729
-6.4144 0.2744 -2.4603 0.9729
-6.4207 0.0424 -2.4606 0.9729
-6.4188 -0.1897 -2.4609 0.9729
-6.4087 -0.4216 -2.4612 0.9729
-6.3903 -0.6531 -2.4616 0.9729
-6.3637 -0.8838 -2.4621 0.9729
-6.1757 -1.7932 -2.4644 0.9728
-6.1086 -2.0157 -2.4651 0.9728
-5.9508 -2.4533 -2.4667 0.9728
-5.7621 -2.8787 -2.4684 0.9728
-5.6565 -3.0863 -2.4693 0.9728
-5.5434 -3.2900 -2.4703 0.9728
-5.1614 -3.8756 -2.4735 0.9727
-4.6368 3.8536 -2.4676 0.9743
-5.0228 3.3266 -2.4657 0.9743
-5.2478 2.9538 -2.4647 0.9743
-5.3503 2.7618 -2.4642 0.9743
-5.4457 2.5662 -2.4639 0.9743
-5.6154 2.1656 -2.4632 0.9743
-5.7562 1.7540 -2.4628 0.9743
-5.8155 1.5448 -2.4627 0.9743
-5.8674 1.3336 -2.4626 0.9743
-5.9987 0.4743 -2.4628 0.9743
-6.0124 0.2572 -2.4630 0.9743
-6.0183 0.0397 -2.4632 0.9743
-5.9896 -0.6121 -2.4642 0.9743
-5.9646 -0.8283 -2.4646 0.9743
-5.8916 -1.2575 -2.4656 0.9743
-5.8436 -1.4700 -2.4662 0.9743
-5.6548 -2.0955 -2.4681 0.9743
-5.4921 -2.5000 -2.4697 0.9743
-5.3999 -2.6978 -2.4705 0.9742
-5.0819 -3.2700 -2.4733 0.9742
-4.9624 -3.4529 -2.4743 0.9742
-4.4850 3.4612 -2.4690 0.9756
-4.6061 3.2961 -2.4684 0.9756
-4.9328 2.7765 -2.4669 0.9756
-5.0290 2.5960 -2.4665 0.9756
-5.1188 2.4122 -2.4662 0.9756
-5.2020 2.2253 -2.4659 0.9756
-5.2784 2.0357 -2.4656 0.9756
-5.3481 1.8434 -2.4654 0.9756
-5.4109 1.6488 -2.4652 0.9756
-5.5915 0.8519 -2.4650 0.9756
-5.6388 0.4458 -2.4652 0.9756
-5.6554 -0.1672 -2.4658 0.9756
-5.6464 -0.3715 -2.4661 0.9756
-5.6301 -0.5754 -2.4665 0.9756
-5.6065 -0.7786 -2.4669 0.9756
-5.5377 -1.1820 -2.4678 0.9756
-5.4403 -1.5796 -2.4689 0.9756
-5.3148 -1.9695 -2.4702 0.9756
-5.2416 -2.1609 -2.4709 0.9756
-5.1617 -2.3496 -2.4716 0.9756
-5.0750 -2.5354 -2.4724 0.9755
-4.8819 -2.8974 -2.4741 0.9755
-4.7757 -3.0730 -2.4750 0.9755
-4.6634 -3.2449 -2.4760 0.9755
-4.1064 3.4127 -2.4715 0.9767
-4.2260 3.2613 -2.4709 0.9767
-4.4487 2.9463 -2.4699 0.9768
-4.7389 2.4462 -2.4686 0.9768
-5.0989 1.5537 -2.4673 0.9768
-5.1974 1.1813 -2.4671 0.9768
-5.2366 0.9927 -2.4671 0.9768
-5.3137 0.4201 -2.4673 0.9768
-5.3257 0.2278 -2.4675 0.9768
-5.3309 0.0352 -2.4677 0.9768
-5.3293 -0.1575 -2.4679 0.9768
-5.3207 -0.3501 -2.4682 0.9768
-5.2830 -0.7337 -2.4689 0.9768
-5.2181 -1.1138 -2.4698 0.9768
-5.0703 -1.6731 -2.4714 0.9767
-4.7815 -2.3888 -2.4742 0.9767
-4.5995 -2.7297 -2.4758 0.9767
-4.3933 -3.0570 -2.4775 0.9767
-4.2816 -3.2150 -2.4784 0.9767
-3.8777 3.2227 -2.4732 0.9778
-3.9907 3.0797 -2.4727 0.9778
-4.2010 2.7823 -2.4717 0.9778
-4.3896 2.4707 -2.4708 0.9778
-4.6975 1.8116 -2.4696 0.9778
-4.8153 1.4673 -2.4693 0.9778
-4.8650 1.2923 -2.4692 0.9778
-4.9455 0.9375 -2.4691 0.9778
-5.0004 0.5778 -2.4692 0.9778
-5.0345 0.0332 -2.4696 0.9778
-5.0329 -0.1488 -2.4698 0.9778
-5.0248 -0.3306 -2.4701 0.9778
-4.9891 -0.6929 -2.4708 0.9778
-4.9616 -0.8729 -2.4712 0.9778
-4.9277 -1.0518 -2.4716 0.9778
-4.8874 -1.2294 -2.4721 0.9778
-4.7879 -1.5799 -2.4731 0.9778
-4.6636 -1.9226 -2.4744 0.9778
-4.1481 -2.8864 -2.4789 0.9777
-3.9749 2.6325 -2.4733 0.9787
-4.1533 2.3378 -2.4725 0.9788
-4.2345 2.1858 -2.4722 0.9788
-4.3803 1.8738 -2.4716 0.9788
-4.6034 1.2228 -2.4710 0.9788
-4.6795 0.8870 -2.4709 0.9788
-4.7483 0.3754 -2.4710 0.9788
-4.7591 0.2036 -2.4712 0.9788
-4.7544 -0.3128 -2.4718 0.9788
-4.6945 -0.8259 -2.4728 0.9787
-4.6242 -1.1632 -2.4737 0.9787
-4.4740 -1.6579 -2.4753 0.9787
-4.3447 -1.9778 -2.4765 0.9787
-4.1928 -2.2877 -2.4779 0.9787
-4.1086 -2.4384 -2.4786 0.9787
-4.0190 -2.5861 -2.4793 0.9787
-3.9242 -2.7305 -2.4801 0.9787
-3.4771 2.8897 -2.4762 0.9796
-3.5785 2.7616 -2.4757 0.9796
-3.7672 2.4950 -2.4748 0.9796
-3.9364 2.2157 -2.4741 0.9796
-4.0134 2.0717 -2.4738 0.9796
-4.2128 1.6247 -2.4730 0.9796
-4.2684 1.4713 -2.4728 0.9796
-4.3631 1.1590 -2.4726 0.9796
-4.4021 1.0005 -2.4725 0.9796
-4.4353 0.8408 -2.4725 0.9796
-4.4629 0.6799 -2.4725 0.9796
-4.5107 0.1929 -2.4728 0.9796
-4.5150 0.0298 -2.4730 0.9796
-4.5062 -0.2965 -2.4734 0.9796
-4.4931 -0.4592 -2.4737 0.9796
-4.4741 -0.6213 -2.4740 0.9796
-4.4189 -0.9432 -2.4748 0.9796
-4.2401 -1.5712 -2.4767 0.9796
-4.1175 -1.8744 -2.4778 0.9796
-4.0481 -2.0224 -2.4785 0.9796
-3.9735 -2.1680 -2.4791 0.9796
-3.8936 -2.3108 -2.4798 0.9796
-3.6239 -2.7211 -2.4821 0.9795
-3.3003 2.7428 -2.4776 0.9804
-3.3966 2.6212 -2.4771 0.9804
-3.6585 2.2371 -2.4759 0.9804
-3.8095 1.9665 -2.4752 0.9804
-3.9408 1.6858 -2.4747 0.9804
-3.9988 1.5422 -2.4745 0.9804
-4.0517 1.3966 -2.4743 0.9804
-4.0993 1.2491 -2.4742 0.9804
-4.1786 0.9497 -2.4740 0.9804
-4.2362 0.6454 -2.4740 0.9804
-4.2569 0.4919 -2.4741 0.9804
-4.2721 0.3377 -2.4742 0.9804
-4.2858 0.0283 -2.4745 0.9804
-4.2844 -0.1266 -2.4747 0.9804
-4.2773 -0.2814 -2.4749 0.9804
-4.2649 -0.4359 -2.4752 0.9804
-4.2468 -0.5898 -2.4755 0.9804
-4.2233 -0.7430 -2.4758 0.9804
-4.1943 -0.8953 -2.4762 0.9804
-4.1599 -1.0464 -2.4766 0.9804
-4.0750 -1.3447 -2.4775 0.9804
-4.0245 -1.4914 -2.4780 0.9804
-3.9689 -1.6362 -2.4785 0.9804
-3.8421 -1.9195 -2.4797 0.9804
-3.7712 -2.0576 -2.4803 0.9804
-3.6954 -2.1932 -2.4810 0.9803
-3.6146 -2.3259 -2.4817 0.9803
-3.5293 -2.4557 -2.4824 0.9803
-3.4393 -2.5824 -2.4831 0.9803
