ply
format ascii 1.0
element vertex 478
property float32 x
property float32 y
property float32 z
property float32 I
end_header
43.5656 -18.4459 8.3420 0.8252
44.9993 -17.1702 8.4926 0.8223
45.5785 -15.5361 8.4908 0.8224
44.8254 -13.4992 8.2546 0.8268
44.0173 -11.5451 8.0240 0.8312
46.4988 -8.6779 8.3405 0.8252
47.8757 -5.4088 8.4955 0.8223
48.0047 -3.6793 8.4894 0.8224
45.4817 -1.8427 8.0262 0.8312
48.0810 3.2511 8.4973 0.8222
47.9859 4.9851 8.5068 0.8221
45.1453 6.3398 8.0385 0.8310
46.9716 8.3302 8.4116 0.8239
47.1956 10.1346 8.5116 0.8220
44.2633 11.1857 8.0502 0.8307
45.2594 13.1876 8.3123 0.8257
45.9070 15.1892 8.5262 0.8217
43.9537 18.1464 8.3847 0.8244
46.4915 -12.1941 7.3631 0.8232
46.5267 -8.6831 7.2507 0.8257
46.5442 -6.9631 7.2097 0.8266
46.6145 -0.2093 7.1412 0.8281
46.6324 1.4699 7.1474 0.8280
46.6688 4.8483 7.1879 0.8271
46.6875 6.5564 7.2225 0.8263
46.7876 15.4806 7.5498 0.8192
46.3204 -15.7890 6.3727 0.8209
46.3580 -12.1591 6.2410 0.8242
46.3763 -10.3953 6.1890 0.8255
46.6946 -8.7145 6.1856 0.8256
48.6364 -3.7278 6.3521 0.8214
48.6735 -0.2186 6.3384 0.8217
48.6922 1.5349 6.3439 0.8216
46.9175 8.3202 6.2050 0.8251
46.6179 10.0101 6.2090 0.8250
46.6118 11.7792 6.2606 0.8237
46.6313 13.5874 6.3249 0.8221
46.0153 15.2250 6.3116 0.8224
45.5194 15.0609 5.1486 0.8246
44.3531 -20.6924 0.8267 0.8222
44.5525 -1.8051 0.7532 0.8366
44.7287 14.7993 0.7958 0.8282
44.5459 -1.8048 -0.2510 0.8367
44.7217 14.7970 -0.2652 0.8283
37.7108 -17.5935 -1.1717 0.8466
37.7178 -15.9699 -1.1533 0.8488
37.7246 -14.3945 -1.1369 0.8508
37.7313 -12.8613 -1.1225 0.8526
37.7377 -11.3647 -1.1098 0.8541
37.7440 -9.8998 -1.0987 0.8554
37.7235 -8.4558 -1.0886 0.8567
37.7562 -7.0463 -1.0815 0.8575
37.7622 -5.6493 -1.0751 0.8583
37.7681 -4.2669 -1.0702 0.8589
37.6895 -2.8887 -1.0644 0.8596
37.7798 -1.5307 -1.0647 0.8596
37.7914 1.1912 -1.0647 0.8596
37.8030 3.9273 -1.0702 0.8589
37.8268 9.5592 -1.0986 0.8555
37.8329 11.0237 -1.1096 0.8541
37.8126 12.5110 -1.1215 0.8527
37.8457 14.0525 -1.1367 0.8508
37.8522 15.6274 -1.1531 0.8489
37.8590 17.2503 -1.1715 0.8466
37.8808 22.4782 -1.2403 0.8384
37.9146 30.6322 -1.3725 0.8228
37.7382 -9.8983 -1.9786 0.8553
37.7505 -7.0452 -1.9475 0.8574
37.7565 -5.6485 -1.9361 0.8582
37.7625 -4.2662 -1.9273 0.8588
37.7743 -1.5305 -1.9173 0.8595
37.7973 3.9267 -1.9272 0.8588
37.8031 5.3088 -1.9360 0.8582
37.8090 6.7053 -1.9474 0.8574
37.8210 9.5577 -1.9784 0.8554
37.8397 14.0503 -2.0470 0.8507
37.8462 15.6248 -2.0765 0.8488
37.8529 17.2475 -2.1096 0.8465
37.8669 20.6643 -2.1877 0.8413
37.8820 24.3640 -2.2842 0.8349
37.8901 26.3442 -2.3404 0.8312
37.9073 30.6264 -2.4715 0.8227
30.6387 -17.0788 -2.5719 0.8688
32.8903 -12.5499 -2.5812 0.8683
33.3401 -11.3645 -2.5827 0.8683
34.6620 -6.4688 -2.5854 0.8681
35.0284 -3.9574 -2.5847 0.8682
35.2032 -0.1581 -2.5812 0.8683
35.1611 1.1083 -2.5794 0.8684
35.0692 2.3713 -2.5772 0.8685
34.4973 6.1180 -2.5689 0.8689
33.8742 8.5603 -2.5618 0.8692
33.4920 9.7588 -2.5578 0.8694
33.0639 10.9398 -2.5536 0.8696
32.5908 12.1014 -2.5490 0.8699
32.0737 13.2417 -2.5443 0.8701
31.5138 14.3591 -2.5392 0.8703
28.9803 18.6389 -2.5264 0.8709
28.9434 20.1237 -2.5847 0.8682
28.9091 21.6842 -2.6497 0.8651
28.2153 22.7959 -2.6596 0.8646
24.3733 -13.5863 -2.6789 0.8939
24.8667 -12.7104 -2.6811 0.8938
26.1407 -9.9744 -2.6861 0.8937
26.4944 -9.0310 -2.6873 0.8936
27.5374 -5.1392 -2.6894 0.8935
27.8305 -3.1442 -2.6889 0.8936
27.9189 -2.1399 -2.6882 0.8936
27.9506 0.8810 -2.6847 0.8937
27.4511 4.8683 -2.6766 0.8940
26.9740 6.8166 -2.6710 0.8942
26.6801 7.7740 -2.6679 0.8943
26.3502 8.7185 -2.6646 0.8945
25.5846 10.5626 -2.6573 0.8947
23.0906 14.8508 -2.6357 0.8955
19.4359 -10.8339 -2.6432 0.9143
19.8260 -10.1339 -2.6449 0.9142
20.1895 -9.4191 -2.6464 0.9142
21.5869 -5.6620 -2.6510 0.9140
22.1761 -2.5053 -2.6510 0.9140
22.2989 -0.1001 -2.6488 0.9141
22.1468 2.3008 -2.6449 0.9142
22.0354 3.0945 -2.6432 0.9143
21.7230 4.6647 -2.6392 0.9144
21.2931 6.2044 -2.6345 0.9145
21.0351 6.9598 -2.6319 0.9146
20.7488 7.7043 -2.6291 0.9147
20.4351 8.4367 -2.6261 0.9148
20.0943 9.1559 -2.6230 0.9149
19.7271 9.8609 -2.6197 0.9150
19.3341 10.5508 -2.6163 0.9151
18.4734 11.8812 -2.6090 0.9153
18.0072 12.5200 -2.6052 0.9154
17.5181 13.1400 -2.6012 0.9156
17.0070 13.7404 -2.5971 0.9157
16.1472 -9.0009 -2.6193 0.9280
16.7699 -7.8238 -2.6220 0.9280
17.0477 -7.2180 -2.6231 0.9279
17.3025 -6.6021 -2.6240 0.9279
17.7417 -5.3429 -2.6253 0.9279
18.0848 -4.0537 -2.6260 0.9279
18.2195 -3.4002 -2.6261 0.9279
18.3295 -2.7421 -2.6260 0.9279
18.4746 -1.4160 -2.6253 0.9279
18.5095 -0.7499 -2.6247 0.9279
18.5037 0.5833 -2.6231 0.9279
18.3974 1.9113 -2.6207 0.9280
18.0520 3.8764 -2.6161 0.9281
17.8880 4.5204 -2.6142 0.9282
17.7001 5.1574 -2.6122 0.9282
17.2536 6.4065 -2.6077 0.9283
16.9960 7.0168 -2.6053 0.9284
16.7158 7.6165 -2.6027 0.9285
16.4138 8.2047 -2.6000 0.9285
16.0903 8.7806 -2.5972 0.9286
14.9968 10.4269 -2.5880 0.9289
14.5932 10.9461 -2.5847 0.9290
14.3276 -6.6844 -2.6046 0.9379
14.5641 -6.1665 -2.6055 0.9379
15.3116 -4.0160 -2.6077 0.9378
15.5626 -2.9044 -2.6080 0.9378
15.6567 -2.3423 -2.6080 0.9378
15.7295 -1.7771 -2.6077 0.9378
15.8204 -0.0710 -2.6063 0.9379
15.8080 0.4983 -2.6055 0.9379
15.7742 1.0666 -2.6046 0.9379
15.5460 2.7570 -2.6010 0.9380
15.2895 3.8638 -2.5980 0.9381
15.1305 4.4087 -2.5962 0.9381
14.9515 4.9470 -2.5944 0.9382
14.7526 5.4778 -2.5925 0.9382
14.2968 6.5142 -2.5882 0.9383
12.4938 9.3713 -2.5729 0.9386
12.0336 -6.7078 -2.5895 0.9455
12.4945 -5.8291 -2.5915 0.9454
13.3504 -3.5016 -2.5942 0.9454
13.4688 -3.0191 -2.5944 0.9454
13.5691 -2.5323 -2.5945 0.9454
13.7601 -1.0546 -2.5939 0.9454
13.7950 -0.0620 -2.5930 0.9454
13.7848 0.4345 -2.5923 0.9454
13.7559 0.9301 -2.5915 0.9454
13.6431 1.9159 -2.5895 0.9455
13.4574 2.8898 -2.5871 0.9455
13.3376 3.3705 -2.5857 0.9455
13.0450 4.3162 -2.5827 0.9456
12.0171 6.5578 -2.5732 0.9458
10.8701 -5.5562 -2.5805 0.9513
11.0665 -5.1629 -2.5813 0.9513
11.2482 -4.7625 -2.5820 0.9513
11.4150 -4.3556 -2.5826 0.9513
11.9279 -2.6737 -2.5839 0.9513
12.0894 -1.8086 -2.5839 0.9513
12.1861 -0.9340 -2.5835 0.9513
12.2176 -0.0549 -2.5826 0.9513
12.2089 0.3848 -2.5820 0.9513
12.1838 0.8238 -2.5813 0.9513
12.0842 1.6974 -2.5796 0.9513
12.0113 2.1302 -2.5786 0.9514
11.9217 2.5600 -2.5774 0.9514
11.6951 3.4077 -2.5749 0.9514
11.4068 4.2355 -2.5720 0.9515
11.2400 4.6404 -2.5704 0.9515
10.6523 5.8130 -2.5651 0.9516
10.4283 6.1881 -2.5632 0.9516
10.1908 6.5543 -2.5612 0.9517
9.9402 6.9112 -2.5591 0.9517
9.4011 7.5954 -2.5547 0.9518
9.5573 -5.3275 -2.5716 0.9560
9.7459 -4.9816 -2.5724 0.9560
9.9217 -4.6288 -2.5731 0.9560
10.0844 -4.2698 -2.5737 0.9560
10.2337 -3.9048 -2.5743 0.9560
10.4912 -3.1594 -2.5751 0.9560
10.5991 -2.7800 -2.5753 0.9560
10.6929 -2.3968 -2.5754 0.9560
10.7725 -2.0104 -2.5755 0.9560
10.8884 -1.2301 -2.5753 0.9560
10.9246 -0.8373 -2.5751 0.9560
10.9462 -0.4435 -2.5747 0.9560
10.9456 0.3450 -2.5737 0.9560
10.9234 0.7386 -2.5731 0.9560
10.8867 1.1310 -2.5724 0.9560
10.6901 2.2955 -2.5697 0.9561
10.5961 2.6777 -2.5686 0.9561
10.4880 3.0560 -2.5674 0.9561
10.0817 4.1622 -2.5634 0.9562
9.7444 4.8709 -2.5603 0.9562
9.3563 5.5519 -2.5569 0.9563
9.1440 5.8810 -2.5551 0.9563
8.4376 6.8170 -2.5494 0.9564
8.6531 -4.8235 -2.5650 0.9599
8.8237 -4.5102 -2.5658 0.9599
9.2646 -3.5351 -2.5675 0.9599
9.5951 -2.5167 -2.5684 0.9598
9.7520 -1.8200 -2.5686 0.9598
3.9900 -0.5969 -1.0446 0.9835
3.8455 -0.1558 -0.9965 0.9842
3.8446 0.1212 -0.9959 0.9842
3.8616 0.2611 -1.0021 0.9841
3.9695 0.4124 -1.0333 0.9836
9.7514 1.7294 -2.5642 0.9599
9.5947 2.4247 -2.5623 0.9599
9.4973 2.7673 -2.5613 0.9600
8.9843 4.0936 -2.5563 0.9600
8.4758 5.0294 -2.5518 0.9601
8.0815 5.6189 -2.5485 0.9601
7.8686 5.9021 -2.5467 0.9602
7.8973 -4.4022 -2.5595 0.9631
8.0528 -4.1161 -2.5602 0.9631
8.1976 -3.8245 -2.5608 0.9631
8.4546 -3.2260 -2.5618 0.9631
8.6670 -2.6101 -2.5624 0.9631
8.8334 -1.9800 -2.5627 0.9631
3.5631 0.1123 -1.0092 0.9853
3.6537 0.3796 -1.0399 0.9848
8.8999 1.5784 -2.5588 0.9631
8.2020 3.7372 -2.5516 0.9632
8.0580 4.0279 -2.5503 0.9632
7.5642 4.8649 -2.5460 0.9633
7.2554 -4.0443 -2.5549 0.9658
7.3980 -3.7815 -2.5555 0.9658
7.9618 -2.3977 -2.5575 0.9658
8.0436 -2.1097 -2.5577 0.9658
8.1750 -1.5257 -2.5579 0.9658
3.3478 -0.3782 -1.0363 0.9860
3.3531 -0.1359 -1.0322 0.9861
3.3529 0.1057 -1.0318 0.9861
3.3498 0.2265 -1.0327 0.9860
8.2258 1.1552 -2.5549 0.9658
8.1168 1.7430 -2.5535 0.9659
7.9651 2.3209 -2.5518 0.9659
7.6594 3.1622 -2.5487 0.9659
7.2636 3.9638 -2.5452 0.9660
6.7832 4.7162 -2.5411 0.9660
6.6052 4.9544 -2.5396 0.9660
6.7030 -3.7364 -2.5509 0.9682
6.8346 -3.4935 -2.5515 0.9682
6.9574 -3.2459 -2.5520 0.9682
3.1781 -0.2436 -1.0595 0.9867
3.1798 -0.0143 -1.0570 0.9867
3.2730 0.4596 -1.0986 0.9862
7.5543 1.3397 -2.5503 0.9682
7.4341 1.8787 -2.5488 0.9682
7.3593 2.1443 -2.5480 0.9682
7.2749 2.4070 -2.5471 0.9682
7.1809 2.6663 -2.5462 0.9682
7.0775 2.9219 -2.5452 0.9682
6.9649 3.1735 -2.5442 0.9683
6.8432 3.4207 -2.5431 0.9683
6.7126 3.6631 -2.5419 0.9683
6.4254 4.1325 -2.5394 0.9683
6.2693 4.3589 -2.5381 0.9683
6.1051 4.5793 -2.5368 0.9683
5.9330 4.7934 -2.5354 0.9684
6.2221 -3.4684 -2.5474 0.9702
6.4580 -3.0129 -2.5484 0.9702
6.6600 -2.5412 -2.5491 0.9702
6.7479 -2.3001 -2.5494 0.9702
6.8269 -2.0559 -2.5497 0.9702
6.8969 -1.8090 -2.5498 0.9702
6.9578 -1.5596 -2.5499 0.9702
3.0973 -0.5780 -1.1267 0.9867
3.0491 -0.4562 -1.1025 0.9870
3.0438 -0.3439 -1.0954 0.9871
3.0476 -0.2336 -1.0930 0.9871
3.0504 -0.1236 -1.0917 0.9871
3.0507 -0.0137 -1.0910 0.9871
3.0458 0.2059 -1.0917 0.9871
3.0631 0.3182 -1.1013 0.9870
7.0125 1.2436 -2.5468 0.9702
6.9614 1.4949 -2.5462 0.9702
6.7536 2.2346 -2.5439 0.9702
6.6666 2.4754 -2.5431 0.9702
6.5707 2.7128 -2.5421 0.9703
6.3536 3.1760 -2.5401 0.9703
6.1034 3.6217 -2.5380 0.9703
5.9663 3.8373 -2.5368 0.9703
5.5098 4.4515 -2.5330 0.9704
5.7993 -3.2327 -2.5443 0.9720
6.1171 -2.5900 -2.5456 0.9719
6.2071 -2.3684 -2.5460 0.9719
6.4846 -1.4535 -2.5467 0.9719
2.9220 -0.3301 -1.1269 0.9875
2.9271 -0.2243 -1.1250 0.9875
2.9299 -0.1187 -1.1237 0.9875
2.9283 0.0923 -1.1227 0.9875
2.9314 0.3045 -1.1294 0.9875
2.9705 0.4172 -1.1495 0.9872
6.5360 1.1591 -2.5438 0.9720
6.4885 1.3933 -2.5432 0.9720
6.2953 2.0829 -2.5411 0.9720
6.1251 2.5288 -2.5394 0.9720
5.9230 2.9607 -2.5376 0.9720
5.8103 3.1707 -2.5366 0.9720
5.6901 3.3764 -2.5355 0.9721
5.5625 3.5775 -2.5345 0.9721
5.6297 -2.6264 -2.5425 0.9735
5.7213 -2.4224 -2.5428 0.9735
5.8821 -2.0050 -2.5434 0.9735
5.9509 -1.7921 -2.5436 0.9735
6.0118 -1.5768 -2.5437 0.9735
2.8554 -0.6400 -1.1976 0.9874
2.8108 -0.4205 -1.1632 0.9878
2.8139 -0.2157 -1.1550 0.9879
2.8119 0.1901 -1.1535 0.9879
2.9787 0.5283 -1.2381 0.9870
6.0691 1.3033 -2.5406 0.9735
5.9567 1.7356 -2.5393 0.9735
5.8887 1.9484 -2.5386 0.9735
5.8130 2.1584 -2.5378 0.9736
5.7298 2.3655 -2.5370 0.9736
5.6390 2.5694 -2.5362 0.9736
5.5409 2.7697 -2.5353 0.9736
5.4356 2.9663 -2.5344 0.9736
5.2041 3.3470 -2.5324 0.9736
5.0781 3.5307 -2.5313 0.9736
4.9456 3.7096 -2.5302 0.9736
4.8068 3.8835 -2.5291 0.9736
5.0891 -2.8368 -2.5392 0.9749
5.1887 -2.6522 -2.5396 0.9749
5.4465 -2.0782 -2.5406 0.9749
5.5183 -1.8810 -2.5408 0.9749
5.5828 -1.6813 -2.5410 0.9749
2.7176 -0.5072 -1.2048 0.9880
2.7232 -0.4074 -1.2000 0.9881
2.7175 -0.3070 -1.1919 0.9881
2.7219 -0.2086 -1.1897 0.9882
2.7247 -0.1104 -1.1884 0.9882
2.7224 0.0858 -1.1870 0.9882
2.7264 0.2832 -1.1946 0.9881
2.7346 0.3840 -1.2035 0.9880
5.6453 1.4266 -2.5376 0.9749
5.5252 1.8281 -2.5364 0.9749
5.4543 2.0252 -2.5356 0.9749
5.1993 2.5990 -2.5333 0.9750
5.1006 2.7835 -2.5324 0.9750
4.9954 2.9642 -2.5315 0.9750
4.8836 3.1409 -2.5305 0.9750
4.7655 3.3134 -2.5295 0.9750
4.5111 3.6446 -2.5275 0.9750
4.7873 -2.6686 -2.5370 0.9761
4.9684 -2.3179 -2.5378 0.9761
5.1235 -1.9549 -2.5383 0.9761
5.1909 -1.7694 -2.5386 0.9761
2.6388 -0.3948 -1.2350 0.9883
2.6423 -0.2985 -1.2308 0.9883
2.6468 -0.2029 -1.2287 0.9884
2.6496 -0.1074 -1.2275 0.9884
2.6495 -0.0119 -1.2264 0.9884
2.6434 0.1787 -1.2264 0.9884
2.6486 0.4697 -1.2451 0.9882
5.3568 1.1503 -2.5361 0.9761
5.3107 1.3421 -2.5355 0.9761
5.2578 1.5320 -2.5350 0.9762
5.1979 1.7198 -2.5343 0.9762
5.0580 2.0882 -2.5330 0.9762
4.9781 2.2683 -2.5322 0.9762
4.8917 2.4452 -2.5314 0.9762
4.7000 2.7890 -2.5298 0.9762
4.5141 -2.5163 -2.5350 0.9772
4.6847 -2.1856 -2.5357 0.9772
4.7609 -2.0158 -2.5360 0.9772
4.8308 -1.8433 -2.5363 0.9772
4.8945 -1.6683 -2.5365 0.9772
2.6067 -0.5843 -1.3104 0.9882
2.6059 -0.4863 -1.3003 0.9883
2.6008 -0.1054 -1.2768 0.9885
2.6050 0.2706 -1.2847 0.9884
2.6045 0.3658 -1.2901 0.9884
2.8893 0.6204 -1.4496 0.9869
4.9579 1.4446 -2.5331 0.9773
4.8388 1.7967 -2.5319 0.9773
4.7697 1.9692 -2.5312 0.9773
4.6945 2.1390 -2.5305 0.9773
4.6131 2.3059 -2.5298 0.9773
4.5257 2.4697 -2.5290 0.9773
4.2289 2.9403 -2.5265 0.9773
4.2652 -2.3775 -2.5332 0.9782
4.3486 -2.2228 -2.5336 0.9782
4.5644 -1.7416 -2.5344 0.9782
2.5773 -0.5777 -1.3702 0.9882
2.5807 -0.4816 -1.3620 0.9882
2.5818 -0.3862 -1.3543 0.9883
2.5808 -0.2916 -1.3474 0.9884
2.5803 -0.0116 -1.3386 0.9884
2.5850 0.4584 -1.3620 0.9882
2.6315 0.5651 -1.3963 0.9879
4.7318 1.1958 -2.5319 0.9782
4.4361 2.0213 -2.5290 0.9783
4.2767 2.3339 -2.5275 0.9783
3.9964 2.7787 -2.5252 0.9783
3.8925 2.9197 -2.5243 0.9783
3.7836 3.0569 -2.5234 0.9783
4.1163 -2.1040 -2.5319 0.9791
4.1898 -1.9547 -2.5322 0.9791
4.3204 -1.6485 -2.5327 0.9791
4.4284 -1.3336 -2.5330 0.9791
2.5826 -0.6774 -1.4623 0.9879
2.5561 -0.4770 -1.4242 0.9882
2.5583 -0.3827 -1.4168 0.9883
2.5592 -0.2891 -1.4106 0.9883
2.5596 -0.1962 -1.4060 0.9884
2.5594 -0.1037 -1.4030 0.9884
2.5587 0.1730 -1.4046 0.9884
2.5574 0.2657 -1.4082 0.9883
2.5565 0.4534 -1.4221 0.9882
2.6030 0.5590 -1.4582 0.9879
4.4346 1.2921 -2.5298 0.9792
4.3843 1.4506 -2.5293 0.9792
4.3283 1.6071 -2.5288 0.9792
4.2667 1.7615 -2.5282 0.9792
4.1268 2.0628 -2.5269 0.9792
4.0487 2.2094 -2.5262 0.9792
3.8770 2.4935 -2.5247 0.9792
3.6853 2.7642 -2.5231 0.9792
3.8277 -2.1336 -2.5301 0.9800
3.9025 -1.9947 -2.5304 0.9800
3.9722 -1.8532 -2.5307 0.9800
4.0367 -1.7092 -2.5309 0.9800
2.6268 -0.7910 -1.5838 0.9874
2.5359 -0.4733 -1.4894 0.9882
2.5380 -0.3797 -1.4816 0.9882
2.5371 -0.1028 -1.4660 0.9883
2.5372 -0.0114 -1.4649 0.9883
2.5368 0.0800 -1.4654 0.9883
2.5372 0.1716 -1.4682 0.9883
2.5370 0.2636 -1.4726 0.9883
2.5771 0.5534 -1.5218 0.9879
4.2045 1.2251 -2.5284 0.9800
4.1569 1.3754 -2.5279 0.9800
4.1038 1.5238 -2.5274 0.9800
4.0454 1.6702 -2.5268 0.9800
3.9817 1.8143 -2.5262 0.9800
3.8389 2.0949 -2.5250 0.9800
3.7600 2.2312 -2.5243 0.9800
3.6762 2.3644 -2.5236 0.9800
3.5877 2.4945 -2.5228 0.9800
