ply
format ascii 1.0
element vertex 510
property float32 x
property float32 y
property float32 z
property float32 I
end_header
47.8499 -7.8302 8.5494 0.8212
47.8685 -6.0813 8.5083 0.8220
48.0578 -2.6309 8.4866 0.8224
48.1271 -0.9075 8.4876 0.8224
45.3528 4.0315 8.0285 0.8312
48.0185 7.7657 8.5770 0.8207
44.7059 8.8843 8.0370 0.8310
45.5417 10.7599 8.2513 0.8269
46.5422 12.7732 8.5101 0.8220
46.5370 -7.6154 7.2240 0.8263
46.6263 0.7920 7.1439 0.8280
46.6446 2.4662 7.1557 0.8278
46.6819 5.8420 7.2072 0.8266
46.7011 7.5527 7.2473 0.8258
46.7206 9.2848 7.2973 0.8247
46.7612 12.8333 7.4284 0.8218
46.7823 14.6606 7.5105 0.8200
31.6920 24.7011 6.1555 0.8499
46.8647 -7.6691 6.1839 0.8257
48.6103 -6.1756 6.3810 0.8206
48.6292 -4.4144 6.3586 0.8212
44.7149 -2.4480 5.8315 0.8347
48.6668 -0.9176 6.3386 0.8217
48.6857 0.8270 6.3408 0.8217
46.6066 11.0115 6.2362 0.8243
46.6262 12.7962 6.2962 0.8228
46.6464 14.6180 6.3656 0.8210
46.6671 16.4828 6.4449 0.8190
31.6882 24.6982 5.2318 0.8504
44.9505 -2.4609 4.8341 0.8343
44.9572 -2.4612 3.8115 0.8347
31.6790 24.6910 3.4000 0.8511
31.6744 24.6874 1.5835 0.8515
44.7429 15.8032 0.8015 0.8271
44.5389 -2.4383 -0.2511 0.8366
44.7358 15.8006 -0.2671 0.8271
31.6719 24.6854 -0.2261 0.8516
37.7650 -4.7978 -1.0719 0.8587
37.7711 -3.4287 -1.0679 0.8592
37.7833 -0.7124 -1.0641 0.8597
37.8014 3.3603 -1.0686 0.8591
37.8075 4.7314 -1.0729 0.8586
37.7931 7.5106 -1.0850 0.8571
37.8261 8.9370 -1.0944 0.8560
37.8524 14.9155 -1.1456 0.8498
37.8594 16.5088 -1.1630 0.8477
37.8741 19.8562 -1.2041 0.8427
37.8818 21.6249 -1.2282 0.8398
37.9070 27.4199 -1.3174 0.8293
31.6706 24.6844 -1.1307 0.8516
37.9260 31.8086 -1.3938 0.8203
37.7531 -6.1780 -1.9401 0.8579
37.7593 -4.7971 -1.9303 0.8586
37.7654 -3.4282 -1.9231 0.8591
37.7716 -2.0678 -1.9184 0.8594
37.7837 0.6418 -1.9164 0.8595
37.7957 3.3598 -1.9243 0.8590
37.8203 8.9356 -1.9708 0.8559
37.8463 14.9130 -2.0630 0.8497
37.8532 16.5061 -2.0943 0.8476
37.8752 21.6211 -2.2118 0.8397
37.7983 23.4116 -2.2548 0.8369
37.8914 25.3916 -2.3132 0.8330
31.5696 24.6057 -2.0299 0.8519
28.8023 40.1714 -2.5068 0.8204
35.1348 -3.1894 -2.5868 0.8681
35.2193 -1.9281 -2.5862 0.8681
35.2537 -0.6647 -2.5853 0.8681
35.1737 1.8597 -2.5826 0.8683
35.0593 3.1165 -2.5808 0.8683
33.3561 10.4531 -2.5630 0.8692
31.8815 13.9021 -2.5502 0.8698
31.3038 15.0071 -2.5454 0.8700
29.3282 18.1653 -2.5295 0.8708
28.9317 20.9277 -2.6181 0.8666
28.7690 22.4229 -2.6744 0.8639
25.0040 26.0254 -2.6462 0.8652
23.9876 26.8287 -2.6388 0.8656
22.9445 27.5909 -2.6312 0.8660
21.8767 28.3120 -2.6234 0.8663
16.2279 31.2712 -2.5832 0.8682
27.6571 -4.5258 -2.6905 0.8935
28.0079 -0.5281 -2.6894 0.8935
27.9992 0.4756 -2.6884 0.8936
27.9518 1.4778 -2.6873 0.8936
27.7418 3.4717 -2.6841 0.8937
27.5796 4.4603 -2.6822 0.8938
27.3797 5.4411 -2.6800 0.8939
27.1427 6.4128 -2.6776 0.8940
24.9677 11.9696 -2.6582 0.8947
24.4863 12.8374 -2.6543 0.8949
23.9730 13.6850 -2.6501 0.8950
22.8546 15.3152 -2.6413 0.8953
21.6207 16.8514 -2.6317 0.8957
20.9630 17.5818 -2.6267 0.8959
19.5718 18.9619 -2.6162 0.8963
18.0873 20.2295 -2.6052 0.8967
17.3131 20.8192 -2.5996 0.8969
16.5192 21.3786 -2.5938 0.8971
15.7070 21.9070 -2.5879 0.8973
22.1509 -2.8141 -2.6524 0.9140
22.2365 -2.0185 -2.6522 0.9140
22.3168 -0.4208 -2.6514 0.9140
22.2755 1.1777 -2.6497 0.9141
22.2096 1.9743 -2.6486 0.9141
22.1134 2.7674 -2.6473 0.9141
21.9874 3.5559 -2.6457 0.9142
21.8317 4.3386 -2.6440 0.9142
21.4324 5.8820 -2.6400 0.9144
20.9186 7.3884 -2.6353 0.9145
20.6198 8.1251 -2.6326 0.9146
20.2938 8.8492 -2.6298 0.9147
19.9412 9.5599 -2.6269 0.9148
19.5625 10.2560 -2.6237 0.9149
18.7298 11.6008 -2.6170 0.9151
17.3028 13.4860 -2.6059 0.9154
16.2421 14.6450 -2.5978 0.9157
15.6815 15.1928 -2.5936 0.9158
15.1019 15.7188 -2.5893 0.9159
14.5042 16.2220 -2.5849 0.9161
13.8894 16.7021 -2.5803 0.9162
12.6120 17.5904 -2.5711 0.9165
11.9516 17.9976 -2.5663 0.9167
9.8946 19.0669 -2.5517 0.9171
18.3922 -2.3366 -2.6269 0.9278
18.4634 -1.6760 -2.6268 0.9278
18.5097 -1.0133 -2.6266 0.9278
18.5311 -0.3494 -2.6261 0.9279
18.4988 0.9781 -2.6247 0.9279
18.3671 2.2985 -2.6227 0.9279
17.9852 4.2493 -2.6185 0.9281
17.8097 4.8877 -2.6167 0.9281
17.6105 5.5188 -2.6149 0.9282
17.3880 6.1414 -2.6128 0.9282
16.5845 7.9507 -2.6059 0.9284
15.5868 9.6542 -2.5978 0.9286
13.9801 11.7252 -2.5853 0.9289
13.0697 12.6624 -2.5784 0.9291
12.5901 13.1044 -2.5748 0.9292
12.0952 13.5278 -2.5712 0.9293
11.0628 14.3170 -2.5636 0.9295
10.5267 14.6819 -2.5597 0.9296
9.9784 15.0264 -2.5558 0.9297
8.8487 15.6528 -2.5477 0.9299
8.2688 15.9341 -2.5436 0.9300
7.6801 16.1937 -2.5394 0.9302
15.7095 -1.9958 -2.6088 0.9378
15.8287 -0.2985 -2.6081 0.9378
15.8262 0.2688 -2.6076 0.9378
15.8024 0.8355 -2.6069 0.9379
15.7576 1.4007 -2.6061 0.9379
15.6049 2.5237 -2.6041 0.9379
15.2205 4.1771 -2.6001 0.9380
14.6553 5.7748 -2.5950 0.9381
14.4280 6.2914 -2.5930 0.9382
14.1820 6.7989 -2.5909 0.9382
13.9174 7.2965 -2.5887 0.9383
13.0176 8.7233 -2.5815 0.9385
12.6838 9.1748 -2.5789 0.9385
11.9686 10.0381 -2.5734 0.9386
11.5882 10.4487 -2.5705 0.9387
11.1934 10.8446 -2.5675 0.9388
10.7530 11.1922 -2.5569 0.9390
10.3631 11.5904 -2.5613 0.9389
9.8993 11.9041 -2.5506 0.9392
9.4544 12.2355 -2.5473 0.9392
9.0249 12.5873 -2.5515 0.9391
8.0787 13.1661 -2.5447 0.9393
7.5914 13.4287 -2.5413 0.9394
7.0956 13.6732 -2.5377 0.9395
6.5919 13.8991 -2.5342 0.9395
13.6253 -2.2297 -2.5951 0.9454
13.8012 -0.2602 -2.5945 0.9454
13.7993 0.2344 -2.5941 0.9454
13.6086 2.2008 -2.5911 0.9454
13.5155 2.6859 -2.5901 0.9455
13.1300 4.1146 -2.5863 0.9455
12.9666 4.5798 -2.5848 0.9456
12.5892 5.4896 -2.5815 0.9456
12.3758 5.9330 -2.5796 0.9457
12.1462 6.3679 -2.5777 0.9457
11.9010 6.7937 -2.5757 0.9458
10.4533 8.7672 -2.5644 0.9460
9.7791 9.4744 -2.5593 0.9461
9.0564 10.1290 -2.5539 0.9462
8.6782 10.4356 -2.5511 0.9463
8.2895 10.7279 -2.5483 0.9463
7.8908 11.0055 -2.5454 0.9464
6.2081 11.9630 -2.5333 0.9466
5.4171 11.4221 -2.3761 0.9498
12.0662 -1.9745 -2.5845 0.9512
12.1294 -1.5410 -2.5845 0.9512
12.2223 -0.2305 -2.5840 0.9513
12.2208 0.2076 -2.5836 0.9513
12.1694 1.0818 -2.5825 0.9513
11.9716 2.3791 -2.5801 0.9513
11.8740 2.8054 -2.5790 0.9513
11.7608 3.2277 -2.5779 0.9514
11.1554 4.8644 -2.5725 0.9515
10.3183 6.3909 -2.5655 0.9516
10.0751 6.7514 -2.5636 0.9516
9.5504 7.4437 -2.5595 0.9517
8.0347 8.9864 -2.5481 0.9519
7.7001 9.2595 -2.5456 0.9520
7.3561 9.5200 -2.5431 0.9520
6.6419 10.0020 -2.5379 0.9521
5.5371 9.7947 -2.3783 0.9550
5.1770 9.9761 -2.3758 0.9551
4.4509 -0.4040 -1.0504 0.9818
10.9434 -0.5991 -2.5758 0.9560
10.9401 0.5784 -2.5748 0.9560
10.8069 1.7477 -2.5728 0.9560
10.7338 2.1331 -2.5720 0.9560
10.5456 2.8942 -2.5701 0.9561
10.4307 3.2688 -2.5690 0.9561
10.3022 3.6387 -2.5678 0.9561
10.1602 4.0036 -2.5666 0.9561
9.8367 4.7158 -2.5638 0.9562
9.2568 5.7335 -2.5591 0.9562
8.8102 6.3728 -2.5555 0.9563
8.3189 6.9770 -2.5517 0.9564
8.0572 7.2649 -2.5497 0.9564
7.7855 7.5429 -2.5477 0.9564
7.5040 7.8105 -2.5456 0.9565
6.9135 8.3136 -2.5412 0.9565
6.6053 8.5483 -2.5389 0.9566
6.2891 8.7716 -2.5366 0.9566
5.2912 8.6231 -2.3777 0.9593
4.9740 8.7987 -2.3755 0.9593
4.6511 8.9626 -2.3732 0.9594
4.3227 9.1146 -2.3708 0.9594
9.7919 -1.6024 -2.5690 0.9598
3.9075 -0.4964 -1.0199 0.9839
3.8396 -0.3485 -0.9982 0.9842
3.8432 -0.2104 -0.9966 0.9842
3.8429 -0.0725 -0.9952 0.9842
9.8370 1.2311 -2.5668 0.9599
9.7841 1.5823 -2.5662 0.9599
9.7183 1.9313 -2.5654 0.9599
9.5486 2.6205 -2.5637 0.9599
9.4449 2.9599 -2.5627 0.9599
9.0607 3.9510 -2.5593 0.9600
8.5707 4.8926 -2.5552 0.9600
8.3850 5.1935 -2.5537 0.9601
8.1885 5.4872 -2.5522 0.9601
7.9815 5.7734 -2.5505 0.9601
7.5374 6.3216 -2.5471 0.9602
7.0552 6.8353 -2.5434 0.9602
6.5376 7.3119 -2.5396 0.9603
6.2665 7.5355 -2.5376 0.9603
5.9877 7.7490 -2.5355 0.9603
3.6819 -0.6025 -1.0562 0.9846
3.5611 -0.1949 -1.0096 0.9853
3.5629 0.0605 -1.0088 0.9853
3.5612 0.1883 -1.0095 0.9853
8.9291 1.4440 -2.5606 0.9631
8.8693 1.7626 -2.5599 0.9631
8.7150 2.3917 -2.5584 0.9631
8.5151 3.0075 -2.5565 0.9632
8.2709 3.6066 -2.5543 0.9632
8.1326 3.8988 -2.5532 0.9632
7.8247 4.4667 -2.5506 0.9632
7.6555 4.7417 -2.5493 0.9633
7.4765 5.0101 -2.5478 0.9633
6.8832 5.7730 -2.5432 0.9633
6.4437 6.2429 -2.5399 0.9634
5.9718 6.6790 -2.5364 0.9634
5.4702 7.0793 -2.5327 0.9635
4.8918 6.8228 -2.3766 0.9657
4.6407 6.9883 -2.3748 0.9657
3.5833 7.5556 -2.3673 0.9658
3.4216 -0.5599 -1.0664 0.9856
3.3516 -0.1835 -1.0324 0.9861
3.3531 0.0570 -1.0315 0.9861
3.3515 0.1772 -1.0323 0.9861
3.3765 0.3001 -1.0426 0.9859
8.2031 1.3266 -2.5559 0.9658
8.1483 1.6193 -2.5553 0.9658
8.0829 1.9097 -2.5546 0.9658
8.0069 2.1974 -2.5538 0.9658
7.9205 2.4821 -2.5530 0.9659
7.7169 3.0408 -2.5511 0.9659
7.1907 4.1048 -2.5467 0.9659
7.0356 4.3577 -2.5455 0.9660
6.8714 4.6046 -2.5442 0.9660
6.5169 5.0793 -2.5414 0.9660
6.3271 5.3065 -2.5399 0.9660
5.7106 5.9439 -2.5353 0.9661
5.2634 6.3293 -2.5319 0.9661
4.5850 6.3948 -2.4202 0.9676
4.2677 6.4266 -2.3728 0.9682
3.7910 6.7060 -2.3694 0.9683
3.5457 6.8325 -2.3677 0.9683
3.2961 6.9500 -2.3659 0.9683
3.2188 -0.5267 -1.0842 0.9863
3.1758 -0.2883 -1.0600 0.9866
3.1783 -0.1740 -1.0581 0.9867
3.1794 0.0540 -1.0570 0.9867
3.1777 0.1680 -1.0577 0.9867
3.2461 0.4062 -1.0874 0.9863
7.5783 1.2256 -2.5518 0.9682
7.5279 1.4960 -2.5512 0.9682
7.3179 2.2933 -2.5491 0.9682
7.0222 3.0621 -2.5465 0.9682
6.9054 3.3104 -2.5455 0.9682
6.6449 3.7932 -2.5434 0.9683
6.5018 4.0271 -2.5422 0.9683
6.1907 4.4780 -2.5397 0.9683
6.0232 4.6945 -2.5384 0.9683
5.8480 4.9047 -2.5371 0.9683
5.6654 5.1083 -2.5357 0.9684
5.2790 5.4946 -2.5328 0.9684
4.8660 5.8514 -2.5297 0.9684
4.6503 6.0182 -2.5281 0.9684
4.4289 6.1771 -2.5265 0.9685
3.9461 5.9423 -2.3711 0.9704
3.5057 6.2014 -2.3679 0.9704
3.0484 6.4277 -2.3647 0.9705
3.0664 -0.5018 -1.1112 0.9869
3.0404 -0.3863 -1.0960 0.9871
3.0453 -0.2764 -1.0935 0.9871
3.0504 -0.0575 -1.0910 0.9871
3.0495 0.0518 -1.0907 0.9871
3.0909 0.3868 -1.1139 0.9869
7.0345 1.1376 -2.5483 0.9702
6.9877 1.3887 -2.5477 0.9702
6.9319 1.6378 -2.5471 0.9702
6.8670 1.8846 -2.5465 0.9702
6.7932 2.1288 -2.5458 0.9702
6.6192 2.6082 -2.5442 0.9702
6.2942 3.2999 -2.5414 0.9703
6.1695 3.5219 -2.5404 0.9703
6.0368 3.7391 -2.5394 0.9703
5.8963 3.9512 -2.5382 0.9703
5.5930 4.3593 -2.5359 0.9703
5.4305 4.5546 -2.5346 0.9703
5.0852 4.9267 -2.5320 0.9704
4.9028 5.1030 -2.5306 0.9704
4.5196 5.4349 -2.5278 0.9704
3.6941 5.5628 -2.3880 0.9720
3.4634 5.6444 -2.3681 0.9723
3.2569 5.7612 -2.3667 0.9723
2.9297 -0.4794 -1.1376 0.9874
2.9183 -0.3707 -1.1273 0.9875
2.9245 -0.2655 -1.1253 0.9875
2.9284 -0.1603 -1.1239 0.9875
2.9549 0.3698 -1.1412 0.9873
6.4609 1.5265 -2.5441 0.9720
6.4006 1.7566 -2.5435 0.9720
6.3319 1.9843 -2.5428 0.9720
6.2550 2.2093 -2.5421 0.9720
6.1700 2.4312 -2.5414 0.9720
6.0769 2.6499 -2.5406 0.9720
5.7513 3.2832 -2.5378 0.9720
5.6278 3.4857 -2.5368 0.9720
5.3592 3.8766 -2.5347 0.9721
5.2146 4.0643 -2.5336 0.9721
4.7416 4.5938 -2.5300 0.9721
4.5716 4.7584 -2.5287 0.9721
4.3959 4.9166 -2.5274 0.9721
4.2147 5.0682 -2.5261 0.9722
4.0282 5.2132 -2.5247 0.9722
2.8417 5.4758 -2.3642 0.9739
2.8084 -0.4596 -1.1647 0.9878
2.8064 -0.3565 -1.1578 0.9878
2.8114 -0.2552 -1.1554 0.9879
2.8170 -0.0531 -1.1531 0.9879
2.8137 0.2501 -1.1561 0.9879
2.8289 0.3540 -1.1668 0.9878
2.8611 0.4627 -1.1862 0.9876
6.0917 1.2106 -2.5419 0.9735
6.0432 1.4278 -2.5414 0.9735
5.9868 1.6430 -2.5408 0.9735
5.9227 1.8560 -2.5402 0.9735
5.6846 2.4788 -2.5381 0.9736
5.4889 2.8776 -2.5365 0.9736
5.2649 3.2610 -2.5346 0.9736
5.1427 3.4462 -2.5337 0.9736
4.7373 3.9732 -2.5305 0.9736
4.5899 4.1385 -2.5294 0.9736
4.4366 4.2983 -2.5282 0.9737
4.2777 4.4524 -2.5270 0.9737
4.1134 4.6006 -2.5258 0.9737
3.9440 4.7427 -2.5245 0.9737
3.7696 4.8785 -2.5233 0.9737
3.5905 5.0078 -2.5220 0.9737
3.4070 5.1306 -2.5206 0.9737
3.2041 5.2217 -2.5074 0.9739
2.8711 5.0787 -2.3877 0.9751
2.4730 5.2143 -2.3619 0.9754
2.7202 -0.4451 -1.2013 0.9880
2.7248 -0.0514 -1.1877 0.9882
2.7283 0.2425 -1.1937 0.9881
2.7489 0.4446 -1.2136 0.9879
5.3337 2.3258 -2.5359 0.9749
5.2454 2.5147 -2.5351 0.9749
5.1503 2.7001 -2.5344 0.9749
4.9404 3.0600 -2.5326 0.9750
4.8258 3.2339 -2.5317 0.9750
4.7051 3.4034 -2.5308 0.9750
4.5784 3.5684 -2.5298 0.9750
4.3075 3.8839 -2.5277 0.9750
3.7018 4.4515 -2.5232 0.9751
3.5382 4.5791 -2.5220 0.9751
3.3703 4.7006 -2.5208 0.9751
3.1981 4.8160 -2.5195 0.9751
3.0220 4.9250 -2.5182 0.9751
2.8421 5.0275 -2.5170 0.9751
2.3224 4.8969 -2.3620 0.9766
2.6453 0.1399 -1.2262 0.9884
2.9020 0.5767 -1.3696 0.9870
5.3337 1.2602 -2.5368 0.9761
5.2840 1.4502 -2.5363 0.9761
5.1644 1.8240 -2.5352 0.9761
5.0944 2.0074 -2.5346 0.9762
5.0179 2.1881 -2.5339 0.9762
4.8455 2.5403 -2.5325 0.9762
4.7499 2.7115 -2.5317 0.9762
4.5405 3.0427 -2.5300 0.9762
4.4270 3.2023 -2.5291 0.9762
4.3079 3.3576 -2.5282 0.9762
4.1832 3.5084 -2.5272 0.9762
4.0532 3.6546 -2.5262 0.9762
3.9181 3.7960 -2.5252 0.9762
3.6331 4.0634 -2.5231 0.9763
3.0099 4.5325 -2.5185 0.9763
2.8442 4.6353 -2.5173 0.9763
2.5026 4.8224 -2.5149 0.9763
2.6037 -0.3308 -1.2874 0.9884
2.6026 -0.2363 -1.2819 0.9884
2.6006 -0.0490 -1.2759 0.9885
2.6021 0.0442 -1.2766 0.9885
2.6035 0.1376 -1.2788 0.9885
2.6056 0.3261 -1.2881 0.9884
2.6076 0.4217 -1.2957 0.9883
5.0292 1.1882 -2.5349 0.9772
4.9825 1.3674 -2.5344 0.9772
4.8697 1.7200 -2.5333 0.9773
4.8039 1.8929 -2.5327 0.9773
4.4793 2.5570 -2.5300 0.9773
4.3835 2.7150 -2.5292 0.9773
3.9453 3.3089 -2.5258 0.9773
3.6954 3.5803 -2.5239 0.9773
3.4268 3.8326 -2.5219 0.9774
3.2859 3.9513 -2.5208 0.9774
3.1409 4.0648 -2.5198 0.9774
2.6831 4.3726 -2.5165 0.9774
2.5235 4.4639 -2.5153 0.9774
2.3609 4.5494 -2.5142 0.9774
2.5809 -0.3279 -1.3497 0.9883
2.5801 -0.2342 -1.3440 0.9884
2.5801 -0.0486 -1.3387 0.9884
2.6113 0.5189 -1.3812 0.9881
4.7519 1.1227 -2.5331 0.9782
4.7079 1.2920 -2.5326 0.9782
4.6014 1.6252 -2.5316 0.9782
4.5392 1.7886 -2.5311 0.9783
4.4712 1.9497 -2.5305 0.9783
4.3179 2.2637 -2.5292 0.9783
4.1423 2.5657 -2.5278 0.9783
3.9455 2.8540 -2.5262 0.9783
3.7285 3.1271 -2.5245 0.9783
3.4925 3.3837 -2.5227 0.9783
3.3678 3.5053 -2.5218 0.9783
2.9687 3.8420 -2.5188 0.9784
2.8280 3.9443 -2.5178 0.9784
2.6837 4.0414 -2.5168 0.9784
2.5362 4.1332 -2.5157 0.9784
2.3854 4.2196 -2.5146 0.9784
2.5586 -0.3251 -1.4126 0.9883
2.5594 0.0435 -1.4020 0.9884
2.5558 0.3199 -1.4108 0.9883
2.5532 0.4129 -1.4166 0.9883
2.5822 0.5132 -1.4420 0.9881
2.6965 0.6371 -1.5175 0.9874
4.4089 1.3817 -2.5306 0.9791
4.3557 1.5384 -2.5301 0.9792
4.2969 1.6932 -2.5295 0.9792
4.1627 1.9956 -2.5284 0.9792
4.0875 2.1430 -2.5278 0.9792
4.0071 2.2874 -2.5271 0.9792
3.9215 2.4289 -2.5264 0.9792
3.8308 2.5671 -2.5257 0.9792
3.6349 2.8331 -2.5241 0.9792
3.5299 2.9606 -2.5233 0.9792
3.4205 3.0841 -2.5225 0.9792
3.3067 3.2036 -2.5216 0.9792
3.1886 3.3189 -2.5207 0.9792
2.9406 3.5361 -2.5189 0.9792
2.6778 3.7348 -2.5170 0.9793
2.5412 3.8268 -2.5160 0.9793
2.4016 3.9138 -2.5150 0.9793
2.1134 4.0724 -2.5129 0.9793
2.5368 -0.3223 -1.4764 0.9883
2.5365 -0.2303 -1.4705 0.9883
2.5369 -0.1389 -1.4669 0.9883
2.5365 0.1341 -1.4665 0.9883
2.5378 0.2256 -1.4710 0.9883
2.5357 0.3173 -1.4754 0.9883
2.6188 0.6187 -1.5536 0.9876
4.1297 1.4586 -2.5286 0.9800
4.0740 1.6053 -2.5281 0.9800
3.7994 2.1689 -2.5258 0.9800
3.6324 2.4341 -2.5245 0.9800
3.5419 2.5620 -2.5238 0.9800
3.4468 2.6864 -2.5230 0.9800
3.1356 3.0379 -2.5206 0.9800
3.0238 3.1473 -2.5198 0.9800
2.9081 3.2525 -2.5189 0.9801
2.7887 3.3534 -2.5181 0.9801
