ply
format ascii 1.0
element vertex 648
property float32 x
property float32 y
property float32 z
property float32 I
end_header
-25.3084 -21.5559 5.8618 0.8737
-23.5395 -21.5437 5.6266 0.8784
-20.3906 -21.5263 5.2282 0.8865
-5.9858 -7.2972 1.6642 0.9624
-4.9262 -6.9640 1.5041 0.9659
-4.8884 -7.4613 1.5728 0.9644
-4.8890 -8.0765 1.6647 0.9624
-4.1180 -7.3850 1.4909 0.9662
-4.1193 -8.0493 1.5944 0.9639
-3.5885 -7.6752 1.4940 0.9662
-3.1297 -8.1653 1.5419 0.9651
-3.0862 -8.9997 1.6776 0.9621
-5.6870 -21.4608 3.9147 0.9138
-4.8744 -21.4570 3.8798 0.9145
-2.5065 -21.4388 3.8060 0.9161
-1.7340 -21.4343 3.7918 0.9164
3.9289 -23.0381 4.1209 0.9094
-23.5397 -21.5439 4.8884 0.8789
-18.9759 -21.5203 4.3954 0.8904
-4.9837 -7.0453 1.3220 0.9657
-4.8654 -8.0374 1.4393 0.9627
-4.4987 -8.0676 1.4151 0.9633
-3.4485 -8.1183 1.3512 0.9649
-3.4129 -8.9041 1.4608 0.9621
-6.5181 -21.4735 3.4378 0.9132
-3.2868 -21.4492 3.3243 0.9159
-1.7340 -21.4344 3.2944 0.9167
-0.9663 -21.4299 3.2863 0.9169
0.5628 -21.4233 3.2831 0.9169
1.3262 -21.3891 3.2830 0.9169
3.9303 -23.0461 3.5815 0.9097
-23.5399 -21.5441 4.1554 0.8792
-21.9092 -21.5366 4.0006 0.8834
-20.3913 -21.5270 3.8613 0.8873
-18.9762 -21.5206 3.7363 0.8907
-4.9432 -6.9880 1.1146 0.9661
-4.7507 -7.2511 1.1289 0.9656
-4.7047 -7.7719 1.1831 0.9640
-4.4604 -7.9990 1.1926 0.9637
-3.4793 -7.4416 1.0697 0.9674
-3.7107 -8.7355 1.2359 0.9624
-3.3868 -8.8359 1.2322 0.9625
-3.0646 -8.9365 1.2302 0.9626
-6.5178 -21.4726 2.9222 0.9135
-5.6868 -21.4602 2.8910 0.9143
-4.8742 -21.4564 2.8653 0.9151
-4.0749 -21.4526 2.8435 0.9157
-1.7340 -21.4345 2.8003 0.9169
-0.9663 -21.4300 2.7935 0.9171
2.1013 -21.4631 2.8083 0.9167
2.9275 -21.8397 2.8694 0.9150
-25.3080 -21.5555 3.5697 0.8748
-21.9094 -21.5367 3.2990 0.8837
-18.9764 -21.5210 3.0810 0.8910
-5.7211 -7.5051 1.0134 0.9627
-5.4470 -7.7002 1.0128 0.9628
-4.4202 -7.9270 0.9746 0.9641
-4.0446 -7.9034 0.9534 0.9649
-3.6733 -8.6474 1.0089 0.9629
-3.3527 -8.7471 1.0059 0.9630
-7.3645 -21.4752 2.4379 0.9127
-5.6867 -21.4599 2.3839 0.9146
-3.2867 -21.4486 2.3301 0.9164
-2.5066 -21.4392 2.3179 0.9168
0.5628 -21.4221 2.3011 0.9174
2.1013 -21.4637 2.3158 0.9169
-25.3079 -21.5554 2.8141 0.8751
-20.3920 -21.5277 2.5102 0.8878
-5.8690 -7.1548 0.7834 0.9635
-5.6746 -7.4441 0.7924 0.9631
-4.4544 -7.9882 0.7742 0.9640
-3.3195 -8.6604 0.7851 0.9635
-7.3642 -21.4743 1.9218 0.9129
-6.5172 -21.4708 1.8994 0.9139
-4.8741 -21.4557 1.8626 0.9155
-4.0748 -21.4520 1.8484 0.9161
-2.5066 -21.4393 1.8273 0.9170
-1.7341 -21.4348 1.8204 0.9173
-0.2014 -21.4258 1.8138 0.9176
1.3262 -21.3881 1.8140 0.9176
2.1014 -21.4643 1.8257 0.9171
2.9281 -21.8440 1.8657 0.9153
3.9343 -23.0698 1.9811 0.9103
-25.3078 -21.5553 2.0614 0.8753
-23.5405 -21.5447 1.9788 0.8800
-21.9097 -21.5371 1.9051 0.8842
-17.6467 -21.5130 1.7254 0.8945
-5.3208 -7.5219 0.5713 0.9637
-4.6733 -7.7202 0.5596 0.9645
-3.8521 -7.5272 0.5243 0.9667
-3.2871 -8.5758 0.5695 0.9639
-6.5170 -21.4699 1.3913 0.9140
-5.6866 -21.4592 1.3766 0.9149
-4.8740 -21.4554 1.3644 0.9156
-3.2866 -21.4479 1.3455 0.9167
-0.9663 -21.4304 1.3303 0.9176
0.5628 -21.4209 1.3288 0.9177
2.9284 -21.8462 1.3668 0.9155
3.9357 -23.0777 1.4517 0.9104
-25.3076 -21.5552 1.3108 0.8754
-23.5407 -21.5449 1.2583 0.8801
-21.9099 -21.5373 1.2114 0.8843
-20.3927 -21.5284 1.1693 0.8881
-5.5281 -7.2519 0.3596 0.9642
-5.3243 -7.5267 0.3635 0.9638
-3.5663 -8.3956 0.3597 0.9641
-8.2317 -21.4760 0.9069 0.9120
-7.3636 -21.4724 0.8951 0.9131
-6.5167 -21.4690 0.8847 0.9141
-5.6865 -21.4589 0.8754 0.9150
-4.8739 -21.4551 0.8676 0.9157
-4.0747 -21.4513 0.8610 0.9163
-1.7341 -21.4350 0.8480 0.9175
1.3262 -21.3875 0.8449 0.9178
2.9287 -21.8484 0.8692 0.9155
3.9370 -23.0855 0.9234 0.9105
-25.3075 -21.5551 0.5615 0.8755
-21.9101 -21.5375 0.5190 0.8843
-18.9777 -21.5223 0.4847 0.8916
-17.6473 -21.5138 0.4700 0.8947
-5.2558 -7.4300 0.1537 0.9642
-5.0185 -7.6598 0.1547 0.9640
-4.3770 -7.8494 0.1518 0.9647
-4.1554 -8.1199 0.1541 0.9642
-3.8422 -8.2178 0.1532 0.9644
-6.5164 -21.4681 0.3790 0.9142
-4.8738 -21.4548 0.3716 0.9157
-4.0746 -21.4510 0.3688 0.9164
-3.2865 -21.4473 0.3665 0.9169
-2.5066 -21.4397 0.3646 0.9173
-1.7341 -21.4352 0.3633 0.9176
1.3261 -21.3872 0.3620 0.9178
-25.3074 -21.5550 -0.1872 0.8755
-18.9780 -21.5227 -0.1616 0.8916
-17.6477 -21.5141 -0.1567 0.8947
-16.3939 -21.5060 -0.1522 0.8975
-4.9844 -7.6078 -0.0512 0.9643
-4.7742 -7.8868 -0.0519 0.9638
-4.2186 -7.5654 -0.0488 0.9659
-8.2310 -21.4742 -0.1295 0.9121
-6.5162 -21.4672 -0.1263 0.9142
-5.6863 -21.4583 -0.1250 0.9150
-4.0746 -21.4507 -0.1229 0.9164
-3.2864 -21.4470 -0.1222 0.9169
-2.5066 -21.4398 -0.1215 0.9173
-1.7341 -21.4353 -0.1211 0.9176
2.1016 -21.4665 -0.1214 0.9173
2.9293 -21.8527 -0.1241 0.9156
-25.3072 -21.5549 -0.9360 0.8754
-23.5413 -21.5454 -0.8986 0.8801
-20.3937 -21.5295 -0.8350 0.8881
-18.9783 -21.5230 -0.8080 0.8915
-17.6480 -21.5145 -0.7835 0.8946
-4.7129 -7.7855 -0.2563 0.9642
-11.9845 -21.4921 -0.6929 0.9062
-10.9964 -21.4874 -0.6797 0.9079
-8.2307 -21.4733 -0.6475 0.9121
-7.3627 -21.4698 -0.6391 0.9132
-3.2864 -21.4467 -0.6109 0.9168
-1.7341 -21.4354 -0.6055 0.9175
1.3261 -21.3866 -0.6034 0.9178
2.1016 -21.4671 -0.6074 0.9173
2.9296 -21.8548 -0.6209 0.9155
3.9410 -23.1090 -0.6601 0.9105
-23.5415 -21.5456 -1.6184 0.8800
-21.9106 -21.5380 -1.5581 0.8842
-18.9786 -21.5234 -1.4553 0.8914
-17.6483 -21.5149 -1.4112 0.8945
-16.3945 -21.5067 -1.3715 0.8973
-15.2080 -21.4990 -1.3355 0.8999
-11.9837 -21.4908 -1.2479 0.9061
-10.9958 -21.4861 -1.2241 0.9079
-10.0437 -21.4816 -1.2026 0.9094
-9.1232 -21.4773 -1.1834 0.9108
-6.5156 -21.4654 -1.1377 0.9141
-5.6862 -21.4577 -1.1258 0.9149
-4.8736 -21.4539 -1.1157 0.9157
-0.9664 -21.4310 -1.0880 0.9177
-0.2014 -21.4265 -1.0867 0.9178
0.5627 -21.4180 -1.0866 0.9178
2.1017 -21.4676 -1.0939 0.9172
2.9299 -21.8570 -1.1184 0.9155
17.0978 -42.4507 -2.3209 0.8325
-23.2711 -19.8208 -2.2413 0.8846
-21.6473 -21.2792 -2.2257 0.8854
-17.6486 -21.5153 -2.0404 0.8944
-14.0854 -21.4989 -1.8845 0.9021
-11.9829 -21.4894 -1.8041 0.9060
-10.9951 -21.4848 -1.7696 0.9077
-10.0431 -21.4803 -1.7386 0.9093
-9.1227 -21.4760 -1.7108 0.9107
-8.2300 -21.4714 -1.6860 0.9119
-6.5154 -21.4646 -1.6447 0.9140
-5.6861 -21.4574 -1.6276 0.9148
-4.8736 -21.4535 -1.6131 0.9155
-3.2863 -21.4461 -1.5908 0.9167
-1.7341 -21.4356 -1.5768 0.9174
-0.9664 -21.4311 -1.5730 0.9176
-0.2014 -21.4266 -1.5711 0.9176
0.5626 -21.4174 -1.5709 0.9177
2.1018 -21.4682 -1.5816 0.9171
2.9301 -21.8592 -1.6171 0.9153
3.9437 -23.1247 -1.7200 0.9102
8.3920 -34.2570 -2.5861 0.8681
9.6379 -34.0409 -2.5941 0.8677
10.8786 -33.7785 -2.6020 0.8673
15.7541 -32.2658 -2.6327 0.8659
16.9419 -31.7722 -2.6401 0.8655
-18.4076 -16.8470 -2.3956 0.9046
-17.8277 -17.5246 -2.4000 0.9044
-15.0703 -19.7697 -2.3866 0.9049
-13.0212 -19.8747 -2.2811 0.9089
-10.8962 -21.2918 -2.2962 0.9084
-8.2296 -21.4705 -2.2075 0.9117
-5.6860 -21.4570 -2.1311 0.9147
-3.2862 -21.4458 -2.0829 0.9165
-2.5067 -21.4403 -2.0724 0.9169
-1.7342 -21.4358 -2.0647 0.9172
-0.9664 -21.4312 -2.0596 0.9174
-0.2014 -21.4267 -2.0572 0.9175
0.5626 -21.4168 -2.0568 0.9175
1.3261 -21.3857 -2.0571 0.9175
2.9304 -21.8614 -2.1176 0.9152
3.9450 -23.1326 -2.2529 0.9100
5.0867 -24.5165 -2.4038 0.9043
5.9717 -24.3767 -2.4095 0.9041
7.2976 -25.7750 -2.5718 0.8979
10.9865 -24.6976 -2.5951 0.8971
11.8857 -24.3426 -2.6007 0.8969
-15.4577 -13.1658 -2.4119 0.9215
-15.0000 -13.7284 -2.4154 0.9214
-14.5226 -14.2756 -2.4190 0.9212
-13.5102 -15.3218 -2.4265 0.9210
-11.8554 -16.7597 -2.4386 0.9206
-11.2698 -17.2014 -2.4428 0.9205
-10.6680 -17.6233 -2.4471 0.9204
-10.0509 -18.0247 -2.4515 0.9202
-9.4189 -18.4051 -2.4559 0.9201
-8.1135 -19.1004 -2.4651 0.9198
-7.4413 -19.4143 -2.4697 0.9197
-6.7573 -19.7050 -2.4745 0.9195
-5.9892 -19.7314 -2.4494 0.9203
-3.7488 -19.7366 -2.3864 0.9223
-3.0243 -19.7372 -2.3719 0.9227
-0.8952 -19.8531 -2.3607 0.9231
1.9518 -19.9359 -2.3794 0.9225
2.6665 -19.8925 -2.3841 0.9223
4.2859 -20.6567 -2.5060 0.9185
5.1146 -20.8782 -2.5534 0.9171
6.6141 -20.5373 -2.5629 0.9168
8.0901 -20.0864 -2.5722 0.9165
-13.0352 -11.1025 -2.4261 0.9332
-12.6464 -11.5743 -2.4290 0.9331
-12.2410 -12.0329 -2.4321 0.9330
-11.8194 -12.4777 -2.4352 0.9329
-11.3821 -12.9083 -2.4384 0.9328
-9.9802 -14.1087 -2.4486 0.9326
-9.4846 -14.4766 -2.4522 0.9325
-4.7142 -7.7877 -1.2899 0.9639
-6.2517 -16.3104 -2.4750 0.9319
-5.6753 -16.5496 -2.4789 0.9318
-5.0898 -16.7686 -2.4830 0.9317
-4.4961 -16.9671 -2.4870 0.9315
-2.0518 -17.5498 -2.5036 0.9311
-1.4271 -17.6412 -2.5077 0.9310
-0.7986 -17.7104 -2.5119 0.9309
1.1026 -17.7827 -2.5245 0.9306
1.7388 -17.7613 -2.5286 0.9304
3.6432 -17.5592 -2.5409 0.9301
4.9008 -17.3096 -2.5490 0.9299
5.5234 -17.1504 -2.5529 0.9298
6.1407 -16.9684 -2.5568 0.9297
7.3562 -16.5368 -2.5645 0.9295
7.9526 -16.2875 -2.5682 0.9294
8.5404 -16.0162 -2.5718 0.9293
-10.5736 -9.0059 -2.2881 0.9453
-10.5698 -10.3901 -2.4417 0.9417
-10.2040 -10.7723 -2.4444 0.9416
-9.8246 -11.1420 -2.4472 0.9416
-8.6096 -12.1712 -2.4560 0.9414
-7.2886 -13.0710 -2.4654 0.9411
-6.8269 -13.3401 -2.4687 0.9411
-6.3554 -13.5932 -2.4720 0.9410
-5.8746 -13.8299 -2.4754 0.9409
-4.8876 -14.2526 -2.4822 0.9407
-4.3825 -14.4380 -2.4857 0.9407
-3.8703 -14.6056 -2.4892 0.9406
-2.8276 -14.8865 -2.4962 0.9404
-1.7646 -15.0933 -2.5034 0.9403
-1.2271 -15.1683 -2.5070 0.9402
-0.6864 -15.2242 -2.5106 0.9401
0.4014 -15.2780 -2.5178 0.9399
1.4934 -15.2538 -2.5249 0.9398
2.0391 -15.2121 -2.5285 0.9397
6.3051 -14.1738 -2.5556 0.9390
7.3170 -13.7220 -2.5618 0.9389
-9.2976 -7.9190 -2.2955 0.9515
-9.0176 -8.2531 -2.2977 0.9515
-8.4228 -8.8919 -2.3021 0.9514
-7.9311 -10.4043 -2.4590 0.9481
-7.1852 -10.9669 -2.4644 0.9480
-6.3998 -11.4770 -2.4699 0.9479
-5.9934 -11.7115 -2.4728 0.9479
-5.5786 -11.9317 -2.4757 0.9478
-4.2880 -12.5042 -2.4847 0.9476
-3.3944 -12.8095 -2.4908 0.9475
-2.4790 -13.0513 -2.4970 0.9474
-2.0146 -13.1478 -2.5001 0.9473
-1.0752 -13.2913 -2.5064 0.9472
-0.6014 -13.3379 -2.5096 0.9471
1.7849 -13.3156 -2.5252 0.9468
2.2613 -13.2596 -2.5283 0.9467
2.7360 -13.1865 -2.5313 0.9467
3.2082 -13.0962 -2.5344 0.9466
4.1430 -12.8643 -2.5403 0.9465
4.6044 -12.7230 -2.5432 0.9464
5.0607 -12.5649 -2.5461 0.9464
-8.2887 -7.0598 -2.3015 0.9565
-7.7775 -7.6452 -2.3053 0.9564
-7.5065 -7.9246 -2.3073 0.9564
-6.9353 -8.4547 -2.3115 0.9563
-6.6356 -8.7048 -2.3137 0.9562
-6.0101 -9.1734 -2.3182 0.9562
-5.6989 -10.2201 -2.4735 0.9533
-5.3364 -10.4276 -2.4760 0.9532
-4.5894 -10.8041 -2.4813 0.9531
-3.8160 -11.1276 -2.4866 0.9530
-3.4205 -11.2689 -2.4893 0.9530
-2.2049 -11.6081 -2.4976 0.9528
-1.7916 -11.6923 -2.5004 0.9528
-1.3751 -11.7619 -2.5032 0.9527
-0.9559 -11.8166 -2.5060 0.9527
-0.5346 -11.8564 -2.5088 0.9526
1.1616 -11.8644 -2.5199 0.9524
1.5856 -11.8283 -2.5226 0.9524
2.0085 -11.7771 -2.5254 0.9523
2.4297 -11.7105 -2.5281 0.9523
2.8487 -11.6288 -2.5308 0.9522
3.2650 -11.5319 -2.5334 0.9522
3.6779 -11.4199 -2.5360 0.9521
4.0868 -11.2930 -2.5386 0.9521
4.4914 -11.1512 -2.5411 0.9520
5.2849 -10.8237 -2.5461 0.9519
-7.4704 -6.3628 -2.3062 0.9605
-7.0085 -6.8893 -2.3097 0.9604
-6.5101 -7.3830 -2.3134 0.9604
-6.2479 -7.6167 -2.3153 0.9603
-5.9774 -7.8413 -2.3173 0.9603
-5.6989 -8.0564 -2.3193 0.9603
-5.4128 -8.2618 -2.3213 0.9602
-4.6866 -7.7421 -2.1270 0.9635
-4.8190 -8.6422 -2.3255 0.9602
-4.5120 -8.8167 -2.3277 0.9601
-3.8796 -9.1331 -2.3321 0.9600
-3.0780 -10.1405 -2.4906 0.9574
-2.7172 -10.2540 -2.4931 0.9573
-2.3522 -10.3546 -2.4956 0.9573
-1.9835 -10.4423 -2.4981 0.9573
-1.6115 -10.5169 -2.5006 0.9572
-1.2367 -10.5783 -2.5031 0.9572
1.0440 -10.6633 -2.5181 0.9569
1.4249 -10.6298 -2.5206 0.9569
2.1830 -10.5216 -2.5255 0.9568
2.5592 -10.4470 -2.5279 0.9568
2.9329 -10.3588 -2.5303 0.9567
3.6703 -10.1421 -2.5349 0.9566
4.0333 -10.0138 -2.5372 0.9566
5.0926 -9.5505 -2.5438 0.9565
-6.5864 -6.0281 -2.3118 0.9638
-6.3717 -6.2634 -2.3134 0.9638
-6.1487 -6.4913 -2.3150 0.9637
-5.6790 -6.9232 -2.3185 0.9637
-5.4327 -7.1268 -2.3203 0.9636
-5.1792 -7.3217 -2.3221 0.9636
-4.9188 -7.5078 -2.3239 0.9636
-4.6518 -7.6846 -2.3258 0.9636
-4.0992 -8.0100 -2.3297 0.9635
-2.6249 -8.6478 -2.3399 0.9633
-2.3170 -8.7438 -2.3421 0.9633
-2.0055 -8.8288 -2.3442 0.9633
-1.6910 -8.9027 -2.3463 0.9632
-1.4629 -9.5470 -2.5007 0.9609
-0.7802 -9.6445 -2.5053 0.9608
-0.4362 -9.6750 -2.5076 0.9608
-0.0911 -9.6932 -2.5099 0.9607
0.9471 -9.6736 -2.5167 0.9606
1.2925 -9.6423 -2.5189 0.9606
1.9799 -9.5424 -2.5233 0.9605
2.6594 -9.3932 -2.5277 0.9605
4.3008 -8.8082 -2.5379 0.9603
4.6156 -8.6559 -2.5399 0.9603
-6.6251 -5.6428 -2.4636 0.9645
-6.3280 -5.7914 -2.4284 0.9650
-5.2000 -6.3393 -2.3211 0.9665
-4.5030 -6.8731 -2.3261 0.9664
-4.2583 -7.0346 -2.3279 0.9664
-4.0078 -7.1874 -2.3297 0.9664
-3.2249 -7.5921 -2.3351 0.9663
-2.9546 -7.7084 -2.3370 0.9663
-2.4016 -7.9122 -2.3408 0.9662
-1.8346 -8.0765 -2.3447 0.9662
-0.7135 -8.8200 -2.5050 0.9639
-0.3989 -8.8472 -2.5071 0.9639
0.8658 -8.8432 -2.5154 0.9637
1.8095 -8.7213 -2.5215 0.9636
2.1210 -8.6581 -2.5235 0.9636
2.4302 -8.5836 -2.5255 0.9636
3.0404 -8.4014 -2.5293 0.9635
3.3405 -8.2938 -2.5312 0.9635
3.6367 -8.1754 -2.5331 0.9635
3.9287 -8.0463 -2.5349 0.9635
-5.9192 -5.4174 -2.4680 0.9670
-4.3680 -6.1750 -2.3264 0.9688
-4.1479 -6.3311 -2.3280 0.9688
-3.9222 -6.4794 -2.3296 0.9688
-3.6913 -6.6198 -2.3313 0.9688
-3.4554 -6.7520 -2.3329 0.9688
-2.7206 -7.0979 -2.3380 0.9687
-2.4676 -7.1957 -2.3398 0.9687
-1.1566 -7.5479 -2.3487 0.9685
-0.6567 -8.1172 -2.5048 0.9665
-0.3671 -8.1417 -2.5067 0.9665
-0.0766 -8.1558 -2.5087 0.9664
0.2144 -8.1596 -2.5106 0.9664
0.5055 -8.1529 -2.5125 0.9664
0.7965 -8.1359 -2.5144 0.9664
1.0869 -8.1084 -2.5163 0.9663
1.3763 -8.0704 -2.5181 0.9663
3.3440 -7.5172 -2.5306 0.9662
-5.4827 -5.0179 -2.4706 0.9692
-5.1168 -5.4018 -2.4733 0.9691
-4.9238 -5.5840 -2.4747 0.9691
-4.7243 -5.7594 -2.4762 0.9691
-4.4116 -5.7872 -2.4189 0.9698
-3.8408 -5.8623 -2.3296 0.9709
-3.6316 -5.9993 -2.3311 0.9709
-3.4176 -6.1290 -2.3326 0.9709
-2.5183 -6.5702 -2.3389 0.9708
-2.2840 -6.6604 -2.3405 0.9708
-1.8061 -6.8158 -2.3438 0.9707
-1.3176 -6.9369 -2.3471 0.9707
-0.6076 -7.5104 -2.5046 0.9687
-0.0709 -7.5452 -2.5082 0.9687
0.1983 -7.5483 -2.5100 0.9687
2.0669 -7.3002 -2.5220 0.9685
2.3274 -7.2266 -2.5237 0.9685
2.5852 -7.1436 -2.5253 0.9685
3.3395 -6.8394 -2.5300 0.9684
3.5833 -6.7200 -2.5315 0.9684
-5.1009 -4.6685 -2.4728 0.9711
-4.5804 -5.1946 -2.4766 0.9710
-4.3946 -5.3575 -2.4780 0.9710
-3.2294 -5.7915 -2.3713 0.9722
-2.9750 -5.8133 -2.3353 0.9726
-2.7677 -5.9193 -2.3367 0.9726
-2.3416 -6.1092 -2.3397 0.9726
-2.1237 -6.1928 -2.3412 0.9726
-1.9027 -6.2686 -2.3427 0.9726
-1.2309 -6.4803 -2.3588 0.9724
-1.0284 -6.7119 -2.4282 0.9716
-0.8127 -6.9515 -2.5028 0.9707
-0.5647 -6.9806 -2.5045 0.9707
-0.3157 -7.0009 -2.5061 0.9707
-0.0659 -7.0124 -2.5078 0.9706
0.4346 -7.0084 -2.5111 0.9706
0.6846 -6.9930 -2.5127 0.9706
0.9341 -6.9686 -2.5143 0.9706
1.1828 -6.9353 -2.5159 0.9706
1.6761 -6.8419 -2.5191 0.9705
1.9202 -6.7820 -2.5206 0.9705
2.1621 -6.7133 -2.5222 0.9705
2.4015 -6.6359 -2.5237 0.9705
2.6381 -6.5499 -2.5251 0.9704
2.8716 -6.4554 -2.5266 0.9704
3.1017 -6.3525 -2.5280 0.9704
-4.7638 -4.3599 -2.4747 0.9727
-4.6075 -4.5291 -2.4759 0.9727
-4.4452 -4.6928 -2.4771 0.9727
-3.9247 -5.1485 -2.4809 0.9726
-3.7406 -5.2880 -2.4822 0.9726
-3.5516 -5.4210 -2.4836 0.9726
-3.3579 -5.5472 -2.4849 0.9726
-3.1598 -5.6666 -2.4863 0.9726
-2.9537 -5.7717 -2.4846 0.9726
-2.4665 -5.8066 -2.4176 0.9733
-1.8273 -6.0201 -2.4109 0.9734
-1.4256 -6.2757 -2.4662 0.9728
-0.9886 -6.4517 -2.5013 0.9724
-0.5269 -6.5137 -2.5043 0.9724
-0.2945 -6.5324 -2.5059 0.9724
0.1720 -6.5448 -2.5089 0.9723
0.6387 -6.5238 -2.5120 0.9723
0.8714 -6.5008 -2.5135 0.9723
1.3341 -6.4298 -2.5165 0.9723
1.5634 -6.3818 -2.5179 0.9722
1.7910 -6.3257 -2.5194 0.9722
2.0165 -6.2613 -2.5208 0.9722
2.2397 -6.1889 -2.5222 0.9722
2.4603 -6.1084 -2.5236 0.9722
2.8924 -5.9239 -2.5263 0.9722
-4.3170 -4.2436 -2.4776 0.9742
-4.1649 -4.3969 -2.4787 0.9742
-3.8446 -4.6869 -2.4810 0.9741
-3.6768 -4.8234 -2.4823 0.9741
-3.1456 -5.1964 -2.4860 0.9741
-2.9599 -5.3080 -2.4874 0.9741
-2.7702 -5.4131 -2.4887 0.9741
-2.5768 -5.5114 -2.4900 0.9740
-2.3800 -5.6028 -2.4914 0.9740
-1.9769 -5.7646 -2.4942 0.9740
-1.5628 -5.8975 -2.4970 0.9740
-1.3523 -5.9529 -2.4985 0.9740
-1.1398 -6.0008 -2.4999 0.9739
-0.9257 -6.0411 -2.5013 0.9739
-0.7101 -6.0738 -2.5028 0.9739
-0.4934 -6.0987 -2.5042 0.9739
-0.2758 -6.1160 -2.5057 0.9739
-0.0575 -6.1254 -2.5071 0.9739
0.1610 -6.1271 -2.5085 0.9739
0.5979 -6.1070 -2.5114 0.9738
0.8157 -6.0852 -2.5128 0.9738
1.4633 -5.9731 -2.5169 0.9738
2.5060 -5.6335 -2.5235 0.9737
2.7066 -5.5433 -2.5247 0.9737
2.9039 -5.4459 -2.5260 0.9737
-3.7653 -4.2702 -2.4812 0.9755
-3.6123 -4.4038 -2.4823 0.9755
-3.4546 -4.5318 -2.4835 0.9754
-3.2924 -4.6543 -2.4846 0.9754
-2.9552 -4.8818 -2.4870 0.9754
-2.6023 -5.0851 -2.4895 0.9754
-2.4206 -5.1773 -2.4908 0.9754
-2.2356 -5.2630 -2.4921 0.9754
-2.0476 -5.3422 -2.4934 0.9753
-1.8568 -5.4146 -2.4947 0.9753
-1.6635 -5.4803 -2.4960 0.9753
-1.4678 -5.5391 -2.4973 0.9753
-1.2700 -5.5909 -2.4987 0.9753
-0.6668 -5.7038 -2.5027 0.9753
-0.2589 -5.7430 -2.5055 0.9752
-0.0541 -5.7517 -2.5068 0.9752
0.1512 -5.7531 -2.5082 0.9752
1.3737 -5.6074 -2.5161 0.9751
1.7716 -5.5007 -2.5186 0.9751
2.1611 -5.3657 -2.5210 0.9751
2.3522 -5.2877 -2.5222 0.9751
2.7255 -5.1113 -2.5245 0.9750
-3.8214 -3.7565 -2.4804 0.9767
-3.6866 -3.8919 -2.4814 0.9766
-3.5469 -4.0225 -2.4824 0.9766
-3.2540 -4.2687 -2.4846 0.9766
-2.9442 -4.4938 -2.4868 0.9766
-2.4509 -4.7892 -2.4903 0.9766
-1.9283 -5.0308 -2.4939 0.9765
-1.7485 -5.0989 -2.4951 0.9765
-1.1959 -5.2644 -2.4989 0.9765
-1.0079 -5.3064 -2.5002 0.9765
-0.8185 -5.3417 -2.5014 0.9765
-0.2438 -5.4068 -2.5053 0.9764
-0.0509 -5.4148 -2.5065 0.9764
0.3355 -5.4101 -2.5091 0.9764
0.7209 -5.3778 -2.5116 0.9764
1.2929 -5.2778 -2.5152 0.9763
2.0339 -5.0497 -2.5199 0.9763
2.3906 -4.8962 -2.5221 0.9763
2.5648 -4.8099 -2.5232 0.9763
-3.8487 -3.2780 -2.4798 0.9777
-3.0719 -4.0298 -2.4856 0.9777
-2.9275 -4.1385 -2.4866 0.9777
-2.7793 -4.2421 -2.4877 0.9777
-1.9872 -4.6782 -2.4932 0.9776
-1.3044 -4.9224 -2.4979 0.9776
-0.7724 -5.0408 -2.5015 0.9775
-0.5924 -5.0676 -2.5027 0.9775
-0.4116 -5.0879 -2.5039 0.9775
-0.2301 -5.1018 -2.5051 0.9775
-0.0480 -5.1092 -2.5063 0.9775
0.4986 -5.0924 -2.5099 0.9775
1.2197 -4.9790 -2.5145 0.9774
1.7467 -4.8266 -2.5178 0.9774
2.0880 -4.6939 -2.5200 0.9774
2.4192 -4.5368 -2.5220 0.9774
-3.6408 -3.1010 -2.4810 0.9787
-3.4129 -3.3549 -2.4828 0.9787
-3.2923 -3.4757 -2.4836 0.9787
-3.0385 -3.7043 -2.4855 0.9786
-2.9056 -3.8117 -2.4865 0.9786
-2.7690 -3.9144 -2.4874 0.9786
-2.3380 -4.1929 -2.4905 0.9786
-2.1879 -4.2754 -2.4916 0.9786
-1.8793 -4.4243 -2.4937 0.9786
-1.2334 -4.6548 -2.4981 0.9785
-1.0672 -4.6979 -2.4993 0.9785
-0.8994 -4.7351 -2.5004 0.9785
-0.7303 -4.7663 -2.5015 0.9785
-0.5602 -4.7915 -2.5027 0.9785
-0.0454 -4.8305 -2.5061 0.9785
0.2993 -4.8258 -2.5083 0.9784
1.3206 -4.6644 -2.5149 0.9784
1.4867 -4.6163 -2.5160 0.9784
1.6511 -4.5622 -2.5170 0.9784
2.1313 -4.3650 -2.5200 0.9783
-3.1197 -3.2935 -2.4846 0.9795
-3.0013 -3.4038 -2.4855 0.9795
-2.6236 -3.7089 -2.4882 0.9795
-2.0729 -4.0505 -2.4921 0.9795
-1.9279 -4.1236 -2.4931 0.9795
-1.7804 -4.1914 -2.4942 0.9794
-1.6305 -4.2540 -2.4952 0.9794
-1.3243 -4.3630 -2.4973 0.9794
-1.0109 -4.4501 -2.4994 0.9794
-0.3686 -4.5565 -2.5037 0.9794
-0.2060 -4.5687 -2.5048 0.9794
-0.0430 -4.5751 -2.5059 0.9793
0.1202 -4.5756 -2.5070 0.9793
0.4464 -4.5593 -2.5091 0.9793
0.6089 -4.5424 -2.5101 0.9793
1.2505 -4.4169 -2.5142 0.9793
1.4078 -4.3713 -2.5152 0.9793
1.5634 -4.3199 -2.5162 0.9793
1.7170 -4.2631 -2.5172 0.9793
1.8687 -4.2008 -2.5181 0.9793
2.1649 -4.0597 -2.5200 0.9792
-3.1737 -2.9047 -2.4839 0.9803
-2.9606 -3.1255 -2.4855 0.9803
-2.7321 -3.3307 -2.4872 0.9803
-2.6126 -3.4272 -2.4881 0.9803
-2.4896 -3.5195 -2.4890 0.9803
-2.2340 -3.6906 -2.4908 0.9803
-2.1018 -3.7693 -2.4917 0.9803
-1.9669 -3.8434 -2.4927 0.9803
-1.8293 -3.9125 -2.4936 0.9802
-1.6893 -3.9768 -2.4946 0.9802
-1.2564 -4.1394 -2.4976 0.9802
-1.1085 -4.1833 -2.4986 0.9802
-0.5033 -4.3054 -2.5026 0.9802
-0.3497 -4.3224 -2.5037 0.9802
-0.0408 -4.3398 -2.5057 0.9802
0.4234 -4.3246 -2.5087 0.9801
0.5775 -4.3085 -2.5097 0.9801
0.7311 -4.2868 -2.5107 0.9801
0.8838 -4.2597 -2.5117 0.9801
1.0355 -4.2271 -2.5127 0.9801
1.1861 -4.1891 -2.5136 0.9801
1.3352 -4.1457 -2.5146 0.9801
1.4827 -4.0970 -2.5155 0.9801
1.9137 -3.9194 -2.5182 0.9801
2.0529 -3.8500 -2.5190 0.9800
