ply
format ascii 1.0
element vertex 510
property float32 x
property float32 y
property float32 z
property float32 I
end_header
44.1266 -13.4959 8.1365 0.8291
46.5406 -12.4391 8.4944 0.8223
46.9472 -10.7712 8.4931 0.8223
45.0933 -8.6671 8.0967 0.8299
47.8524 -7.4403 8.5391 0.8214
47.9822 4.5834 8.4991 0.8222
45.1877 5.9479 8.0365 0.8310
48.0201 8.0708 8.5860 0.8206
47.2685 9.6879 8.5080 0.8220
31.3950 -25.8509 6.2302 0.8483
31.9369 -24.4408 6.1609 0.8498
46.4499 -16.0375 7.5281 0.8197
46.4681 -14.2120 7.4442 0.8215
46.4862 -12.4246 7.3714 0.8231
46.5040 -10.6695 7.3093 0.8244
46.5218 -8.9417 7.2573 0.8256
46.5394 -7.2361 7.2152 0.8265
46.5570 -5.5481 7.1827 0.8272
46.5747 -3.8731 7.1596 0.8277
45.3867 -2.1497 6.9608 0.8320
46.6283 1.1171 7.1452 0.8280
46.6837 6.1448 7.2134 0.8265
46.7028 7.8494 7.2549 0.8256
46.7223 9.5759 7.3064 0.8245
46.7422 11.3294 7.3680 0.8231
31.4324 -29.8830 5.6477 0.8395
31.3888 -25.8458 5.2948 0.8487
31.9367 -24.4407 5.2369 0.8503
38.1674 -25.1116 5.9495 0.8317
46.3146 -15.9909 6.3805 0.8207
46.3338 -14.1709 6.3095 0.8225
46.3712 -10.6391 6.1954 0.8254
46.6815 -8.9723 6.1902 0.8255
48.5943 -7.5556 6.4040 0.8201
48.6131 -5.7931 6.3752 0.8208
48.6318 -4.0442 6.3547 0.8213
44.7172 -2.1180 5.8296 0.8348
48.7068 2.9060 6.3539 0.8213
48.7258 4.6544 6.3740 0.8208
48.7450 6.4162 6.4024 0.8201
46.6083 11.2970 6.2451 0.8241
31.4756 -34.5144 5.0159 0.8287
31.4498 -32.1093 4.8263 0.8346
31.4036 -27.7937 4.5032 0.8448
34.8534 -24.7547 4.5906 0.8420
41.9751 -25.5215 5.2751 0.8207
31.4686 -34.5067 3.9534 0.8291
31.4431 -32.1024 3.8039 0.8349
31.4194 -29.8706 3.6699 0.8403
34.8532 -24.7545 3.6189 0.8423
31.4891 -37.1025 3.0177 0.8228
31.4616 -34.4990 2.8953 0.8293
31.4364 -32.0956 2.7859 0.8352
31.3705 -25.8308 2.5199 0.8497
31.9362 -24.4403 2.4937 0.8511
38.1667 -25.1112 2.8330 0.8327
31.4818 -37.0939 1.9185 0.8230
31.4547 -34.4914 1.8407 0.8296
31.4296 -32.0887 1.7711 0.8354
31.4065 -29.8583 1.7087 0.8407
31.3848 -27.7771 1.6526 0.8455
31.3645 -25.8258 1.6020 0.8499
31.4745 -37.0854 0.8217 0.8232
31.4230 -32.0819 0.7586 0.8356
34.8526 -24.7541 0.7221 0.8428
38.1662 -25.1109 0.7717 0.8330
44.3468 -20.8436 0.8277 0.8220
44.5485 -2.1100 0.7533 0.8366
31.4408 -34.4762 -0.2627 0.8297
31.3525 -25.8159 -0.2287 0.8501
31.9357 -24.4399 -0.2264 0.8514
38.1660 -25.1107 -0.2572 0.8330
44.5419 -2.1097 -0.2511 0.8366
31.4601 -37.0683 -1.3690 0.8232
31.4338 -34.4685 -1.3135 0.8297
31.4096 -32.0683 -1.2640 0.8356
31.3464 -25.8109 -1.1434 0.8500
31.9355 -24.4398 -1.1324 0.8514
41.9734 -25.5205 -1.3832 0.8215
37.7473 -8.6605 -1.0905 0.8564
37.7536 -7.2564 -1.0825 0.8574
37.7598 -5.8710 -1.0760 0.8582
37.7781 -1.7893 -1.0649 0.8596
37.7901 0.9053 -1.0644 0.8596
37.7693 2.2534 -1.0654 0.8595
37.8020 3.6109 -1.0693 0.8590
37.8080 4.9765 -1.0738 0.8585
37.7357 7.7341 -1.0847 0.8572
31.4030 -32.0615 -2.2760 0.8355
31.9353 -24.4397 -2.0394 0.8512
34.8520 -24.7537 -2.1679 0.8426
41.9731 -25.5203 -2.4912 0.8214
37.7218 -13.0240 -2.0239 0.8523
37.7725 -1.7890 -1.9178 0.8595
37.7785 -0.4416 -1.9160 0.8596
37.7638 2.2531 -1.9186 0.8594
37.7964 3.6104 -1.9255 0.8589
37.7300 7.7329 -1.9532 0.8571
18.1081 -31.2238 -2.6465 0.8652
19.2603 -30.6402 -2.6536 0.8649
21.5031 -29.3401 -2.6672 0.8642
23.6513 -27.8675 -2.6800 0.8636
25.6902 -26.2289 -2.6920 0.8631
27.6057 -24.4324 -2.7030 0.8626
28.5129 -23.4778 -2.7082 0.8623
29.3842 -22.4873 -2.7130 0.8621
29.4889 -19.4018 -2.5882 0.8680
32.2607 -13.7817 -2.5722 0.8687
32.7608 -12.6348 -2.5746 0.8686
33.2162 -11.4684 -2.5766 0.8685
33.9892 -9.0845 -2.5796 0.8684
34.9665 -4.1669 -2.5820 0.8683
35.1639 -1.6655 -2.5812 0.8683
35.1650 0.8425 -2.5791 0.8684
35.0921 2.0937 -2.5776 0.8685
34.9704 3.3404 -2.5758 0.8686
14.5026 -23.0713 -2.6162 0.8963
15.3454 -22.5839 -2.6213 0.8961
16.9780 -21.5137 -2.6311 0.8957
17.7652 -20.9321 -2.6358 0.8955
20.6913 -18.3128 -2.6527 0.8949
21.3612 -17.5889 -2.6565 0.8948
22.0039 -16.8393 -2.6601 0.8946
23.2044 -15.2669 -2.6667 0.8944
23.7598 -14.4463 -2.6696 0.8943
24.2844 -13.6045 -2.6723 0.8942
25.2367 -11.8615 -2.6771 0.8940
26.7330 -8.1761 -2.6839 0.8937
27.0182 -7.2213 -2.6849 0.8937
27.2668 -6.2559 -2.6858 0.8937
27.4783 -5.2815 -2.6863 0.8937
27.6523 -4.2995 -2.6867 0.8936
27.8873 -2.3191 -2.6866 0.8936
27.9701 -0.3269 -2.6855 0.8937
27.9543 0.6697 -2.6845 0.8937
27.9005 1.6646 -2.6833 0.8938
27.0674 6.5606 -2.6739 0.8941
14.8207 -16.2515 -2.6127 0.9152
15.4106 -15.7337 -2.6161 0.9151
15.9815 -15.1937 -2.6194 0.9150
17.0628 -14.0496 -2.6255 0.9148
17.5715 -13.4472 -2.6283 0.9147
18.0578 -12.8255 -2.6310 0.9146
19.3746 -10.8539 -2.6380 0.9144
20.4639 -8.7421 -2.6433 0.9143
20.7735 -8.0117 -2.6448 0.9142
21.0556 -7.2698 -2.6460 0.9142
21.3096 -6.5174 -2.6470 0.9141
21.8996 -4.2092 -2.6490 0.9141
22.0378 -3.4265 -2.6492 0.9141
22.2252 -1.8482 -2.6492 0.9141
22.2741 -1.0550 -2.6488 0.9141
22.2930 -0.2606 -2.6483 0.9141
22.1703 2.1178 -2.6455 0.9142
22.0698 2.9050 -2.6442 0.9142
21.9399 3.6874 -2.6427 0.9143
21.5925 5.2336 -2.6392 0.9144
9.6845 -15.4065 -2.5784 0.9291
10.2406 -15.0712 -2.5817 0.9290
11.3161 -14.3392 -2.5882 0.9289
11.8338 -13.9433 -2.5912 0.9288
12.3371 -13.5281 -2.5942 0.9287
13.7533 -12.1724 -2.6023 0.9285
15.0141 -10.6637 -2.6093 0.9283
15.7594 -9.5819 -2.6133 0.9282
16.1017 -9.0204 -2.6151 0.9281
16.7231 -7.8600 -2.6182 0.9281
17.2568 -6.6554 -2.6206 0.9280
17.4897 -6.0386 -2.6217 0.9280
17.6996 -5.4133 -2.6225 0.9280
18.0487 -4.1409 -2.6237 0.9279
18.3018 -2.8456 -2.6243 0.9279
18.3919 -2.1917 -2.6244 0.9279
18.4575 -1.5349 -2.6243 0.9279
18.4985 -0.8762 -2.6240 0.9279
18.5149 -0.2164 -2.6235 0.9279
18.5066 0.4434 -2.6229 0.9279
18.4163 1.7592 -2.6213 0.9280
18.3344 2.4133 -2.6202 0.9280
17.9436 4.3492 -2.6160 0.9281
9.6862 -12.2740 -2.5758 0.9386
11.3751 -10.8144 -2.5856 0.9384
12.1366 -9.9933 -2.5899 0.9383
14.0354 -7.2182 -2.6001 0.9380
14.2907 -6.7168 -2.6013 0.9380
15.1215 -4.6248 -2.6050 0.9379
15.2801 -4.0840 -2.6056 0.9379
15.4186 -3.5375 -2.6061 0.9379
15.5368 -2.9862 -2.6064 0.9379
15.6344 -2.4309 -2.6065 0.9379
15.7113 -1.8723 -2.6066 0.9379
15.7675 -1.3112 -2.6065 0.9379
15.8027 -0.7485 -2.6063 0.9379
15.8106 0.3788 -2.6054 0.9379
15.7832 0.9417 -2.6047 0.9379
15.6658 2.0620 -2.6030 0.9380
15.4660 3.1698 -2.6008 0.9380
6.8239 -11.7666 -2.5567 0.9461
7.6597 -11.2729 -2.5617 0.9460
9.2167 -10.1065 -2.5709 0.9459
10.5913 -8.7210 -2.5788 0.9457
10.9027 -8.3436 -2.5805 0.9457
11.2001 -7.9548 -2.5821 0.9456
11.7515 -7.1451 -2.5851 0.9456
12.2424 -6.2961 -2.5876 0.9455
13.0312 -4.4992 -2.5912 0.9454
13.4449 -3.0847 -2.5928 0.9454
13.5477 -2.6039 -2.5930 0.9454
13.6327 -2.1197 -2.5932 0.9454
13.6998 -1.6326 -2.5932 0.9454
13.7488 -1.1433 -2.5932 0.9454
13.7925 -0.1612 -2.5926 0.9454
13.7871 0.3303 -2.5922 0.9454
13.6624 1.7983 -2.5902 0.9455
13.5849 2.2832 -2.5892 0.9455
13.3767 3.2422 -2.5871 0.9455
6.7932 -9.9977 -2.5550 0.9518
7.5004 -9.5041 -2.5592 0.9517
8.1707 -8.9596 -2.5632 0.9516
8.4910 -8.6690 -2.5650 0.9516
9.0991 -8.0531 -2.5685 0.9515
9.9242 -7.0486 -2.5730 0.9515
10.1743 -6.6940 -2.5744 0.9514
10.4114 -6.3303 -2.5756 0.9514
10.6351 -5.9579 -2.5768 0.9514
11.2227 -4.7943 -2.5797 0.9513
11.3898 -4.3927 -2.5804 0.9513
11.9077 -2.7320 -2.5824 0.9513
12.0737 -1.8773 -2.5828 0.9513
12.1331 -1.4459 -2.5828 0.9513
12.1765 -1.0126 -2.5828 0.9513
12.2041 -0.5780 -2.5826 0.9513
12.2156 -0.1428 -2.5823 0.9513
12.2110 0.2925 -2.5819 0.9513
12.1541 1.1610 -2.5808 0.9513
12.1017 1.5929 -2.5801 0.9513
11.9496 2.4491 -2.5784 0.9514
5.4338 -9.3696 -2.5456 0.9565
5.7689 -9.1774 -2.5476 0.9564
6.7305 -8.5285 -2.5534 0.9563
7.0350 -8.2891 -2.5552 0.9563
7.3309 -8.0386 -2.5569 0.9563
7.6176 -7.7773 -2.5586 0.9563
7.8948 -7.5056 -2.5601 0.9562
8.1620 -7.2238 -2.5617 0.9562
8.4190 -6.9322 -2.5631 0.9562
8.6653 -6.6314 -2.5645 0.9562
8.9005 -6.3216 -2.5657 0.9561
9.5367 -5.3426 -2.5691 0.9561
9.7246 -5.0012 -2.5700 0.9561
10.2119 -3.9384 -2.5723 0.9560
10.3481 -3.5728 -2.5729 0.9560
10.4709 -3.2025 -2.5734 0.9560
10.6754 -2.4493 -2.5741 0.9560
10.8241 -1.6830 -2.5745 0.9560
10.8773 -1.2962 -2.5745 0.9560
10.9515 -0.1280 -2.5740 0.9560
10.9476 0.2623 -2.5737 0.9560
10.9295 0.6521 -2.5732 0.9560
10.8970 1.0409 -2.5727 0.9560
10.8503 1.4282 -2.5721 0.9560
10.7896 1.8134 -2.5714 0.9560
10.7147 2.1960 -2.5706 0.9561
4.9245 -8.4914 -2.5415 0.9603
5.5246 -8.1307 -2.5452 0.9602
5.8148 -7.9340 -2.5469 0.9602
6.0979 -7.7269 -2.5486 0.9601
6.3734 -7.5095 -2.5502 0.9601
7.3926 -6.5428 -2.5561 0.9600
8.0602 -5.7248 -2.5598 0.9600
8.2626 -5.4362 -2.5608 0.9600
8.9636 -4.2130 -2.5644 0.9599
9.1105 -3.8920 -2.5651 0.9599
9.2456 -3.5657 -2.5657 0.9599
9.3687 -3.2347 -2.5662 0.9599
9.4797 -2.8993 -2.5667 0.9599
9.6646 -2.2174 -2.5673 0.9599
9.7991 -1.5236 -2.5676 0.9599
3.8897 -0.4635 -1.0142 0.9839
3.8440 -0.3197 -0.9987 0.9842
3.8447 0.2294 -0.9972 0.9842
9.7690 1.6419 -2.5648 0.9599
9.7015 1.9884 -2.5641 0.9599
9.6214 2.3320 -2.5633 0.9599
4.7746 -7.5957 -2.5398 0.9634
5.3102 -7.2455 -2.5430 0.9633
5.5683 -7.0559 -2.5446 0.9633
6.5286 -6.2068 -2.5501 0.9632
7.3575 -5.2257 -2.5547 0.9632
8.1808 -3.8451 -2.5590 0.9631
8.5500 -2.9520 -2.5607 0.9631
8.6512 -2.6459 -2.5611 0.9631
8.8868 -1.7081 -2.5618 0.9631
3.6685 -0.5704 -1.0510 0.9847
3.5825 -0.4269 -1.0214 0.9851
3.5637 -0.1688 -1.0100 0.9853
3.5641 -0.0417 -1.0090 0.9853
3.5630 0.2126 -1.0105 0.9853
8.9157 1.4985 -2.5594 0.9631
8.7815 2.1285 -2.5580 0.9631
5.1182 -6.4855 -2.5411 0.9660
5.5729 -6.1109 -2.5438 0.9660
5.7899 -5.9114 -2.5451 0.9660
6.3963 -5.2668 -2.5485 0.9659
6.5826 -5.0376 -2.5495 0.9659
6.7605 -4.8016 -2.5505 0.9659
7.0902 -4.3109 -2.5522 0.9659
7.5160 -3.5326 -2.5544 0.9658
7.6389 -3.2633 -2.5550 0.9658
7.8548 -2.7120 -2.5559 0.9658
7.9476 -2.4307 -2.5563 0.9658
8.0302 -2.1463 -2.5566 0.9658
3.3465 -0.3988 -1.0366 0.9860
3.3513 -0.2787 -1.0343 0.9860
3.3536 -0.1588 -1.0326 0.9860
3.3546 0.0804 -1.0321 0.9861
8.0682 1.9556 -2.5534 0.9659
4.0573 -6.4545 -2.5342 0.9684
4.5115 -6.1558 -2.5369 0.9683
4.7304 -5.9942 -2.5382 0.9683
4.9434 -5.8247 -2.5395 0.9683
5.5444 -5.2710 -2.5429 0.9683
5.9105 -4.8667 -2.5450 0.9682
6.4028 -4.2126 -2.5477 0.9682
6.6905 -3.7481 -2.5492 0.9682
7.2565 -2.5054 -2.5518 0.9682
7.4183 -1.9827 -2.5525 0.9682
7.4850 -1.7173 -2.5527 0.9681
7.5419 -1.4496 -2.5528 0.9681
3.2056 -0.4984 -1.0784 0.9864
3.1734 -0.3782 -1.0623 0.9866
3.1777 -0.2643 -1.0599 0.9866
3.1804 -0.0372 -1.0572 0.9867
3.1805 0.0762 -1.0575 0.9867
3.1943 0.3051 -1.0666 0.9866
3.2593 0.4290 -1.0927 0.9862
7.5157 1.5404 -2.5502 0.9682
7.4542 1.8067 -2.5496 0.9682
3.5501 -6.1215 -2.5306 0.9704
3.7680 -5.9943 -2.5319 0.9704
4.5903 -5.4085 -2.5368 0.9703
4.7821 -5.2438 -2.5379 0.9703
4.9681 -5.0722 -2.5390 0.9703
5.1478 -4.8940 -2.5400 0.9703
5.3209 -4.7093 -2.5410 0.9703
5.6468 -4.3214 -2.5428 0.9702
5.9440 -3.9107 -2.5444 0.9702
6.0813 -3.6975 -2.5451 0.9702
6.2108 -3.4794 -2.5458 0.9702
6.3323 -3.2566 -2.5464 0.9702
6.6476 -2.5638 -2.5479 0.9702
6.8858 -1.8404 -2.5489 0.9702
6.9476 -1.5940 -2.5491 0.9702
3.1032 -0.5965 -1.1300 0.9867
3.0426 -0.3626 -1.0957 0.9871
3.0470 -0.2534 -1.0934 0.9871
3.0478 0.1818 -1.0919 0.9871
3.3104 -5.7081 -2.5287 0.9721
3.5134 -5.5892 -2.5299 0.9721
3.7121 -5.4631 -2.5311 0.9721
3.9062 -5.3298 -2.5323 0.9721
4.2795 -5.0424 -2.5345 0.9721
4.6315 -4.7286 -2.5365 0.9720
4.9602 -4.3900 -2.5384 0.9720
5.1152 -4.2119 -2.5392 0.9720
5.4056 -3.8393 -2.5408 0.9720
5.7890 -3.2431 -2.5429 0.9720
5.9022 -3.0354 -2.5434 0.9720
6.0079 -2.8238 -2.5439 0.9720
6.3519 -1.9427 -2.5455 0.9719
6.4752 -1.4856 -2.5459 0.9719
2.9210 -0.4542 -1.1328 0.9874
2.9206 -0.3480 -1.1271 0.9875
2.9263 -0.2433 -1.1253 0.9875
2.9309 -0.0343 -1.1232 0.9875
2.9296 0.0702 -1.1230 0.9875
2.9261 0.1746 -1.1233 0.9875
2.9222 0.2791 -1.1249 0.9875
2.9627 0.3900 -1.1451 0.9873
6.5027 1.3327 -2.5437 0.9720
6.4497 1.5633 -2.5432 0.9720
3.0975 -5.3411 -2.5270 0.9737
3.4732 -5.1115 -2.5293 0.9736
3.8316 -4.8553 -2.5314 0.9736
4.0038 -4.7175 -2.5324 0.9736
4.3329 -4.4237 -2.5343 0.9736
4.9239 -3.7682 -2.5376 0.9736
5.3021 -3.2238 -2.5397 0.9735
5.4149 -3.0335 -2.5402 0.9735
5.5207 -2.8392 -2.5408 0.9735
5.7109 -2.4397 -2.5417 0.9735
5.9410 -1.8170 -2.5427 0.9735
2.8590 -0.6560 -1.2005 0.9874
2.8102 -0.4369 -1.1640 0.9878
2.8083 -0.3347 -1.1575 0.9879
2.8165 -0.1334 -1.1540 0.9879
2.8177 -0.0329 -1.1533 0.9879
2.8164 0.0675 -1.1530 0.9879
2.8136 0.1679 -1.1536 0.9879
2.8345 0.3731 -1.1701 0.9877
2.8675 0.4819 -1.1901 0.9875
6.0328 1.4622 -2.5406 0.9735
3.2595 -4.7971 -2.5276 0.9750
3.4298 -4.6798 -2.5286 0.9750
3.5958 -4.5563 -2.5296 0.9750
4.3540 -3.8535 -2.5340 0.9749
4.6201 -3.5356 -2.5355 0.9749
4.7444 -3.3697 -2.5361 0.9749
4.8626 -3.1993 -2.5368 0.9749
4.9747 -3.0247 -2.5373 0.9749
5.5737 -1.7047 -2.5402 0.9749
5.6314 -1.5051 -2.5404 0.9749
2.7420 -0.6291 -1.2260 0.9878
2.7244 -0.1290 -1.1887 0.9882
2.7296 0.3593 -1.1999 0.9881
2.7535 0.4628 -1.2169 0.9879
5.7064 1.1696 -2.5387 0.9749
5.6601 1.3719 -2.5382 0.9749
3.0671 -4.5139 -2.5261 0.9762
3.2272 -4.4034 -2.5271 0.9762
3.3833 -4.2872 -2.5280 0.9762
3.6826 -4.0381 -2.5297 0.9762
4.0963 -3.6254 -2.5321 0.9762
4.3465 -3.3263 -2.5335 0.9762
4.4634 -3.1701 -2.5341 0.9762
4.5746 -3.0098 -2.5347 0.9762
4.6800 -2.8455 -2.5353 0.9761
5.1146 -1.9725 -2.5374 0.9761
5.1821 -1.7892 -2.5377 0.9761
5.2973 -1.4158 -2.5381 0.9761
2.6425 -0.6063 -1.2550 0.9881
2.6310 -0.5057 -1.2401 0.9883
2.6460 -0.2200 -1.2290 0.9884
2.6441 0.2526 -1.2295 0.9884
2.6395 0.3474 -1.2323 0.9883
2.6461 0.4447 -1.2420 0.9882
3.0443 0.6239 -1.4385 0.9864
5.3247 1.2906 -2.5361 0.9761
3.3340 -3.9283 -2.5274 0.9773
3.6076 -3.6832 -2.5290 0.9773
3.7376 -3.5534 -2.5297 0.9773
3.8629 -3.4189 -2.5304 0.9773
4.4130 -2.6832 -2.5334 0.9773
4.5067 -2.5247 -2.5339 0.9772
4.6766 -2.1980 -2.5347 0.9772
4.7526 -2.0303 -2.5351 0.9772
4.9437 -1.5120 -2.5359 0.9772
2.6503 -0.7083 -1.3456 0.9879
2.6039 -0.3103 -1.2863 0.9884
2.6012 -0.0304 -1.2760 0.9885
2.6029 0.0624 -1.2771 0.9885
2.6052 0.2489 -1.2837 0.9884
2.6059 0.3430 -1.2893 0.9884
2.6488 0.5429 -1.3263 0.9880
2.5879 -4.1169 -2.5226 0.9783
2.7338 -4.0234 -2.5235 0.9783
3.0155 -3.8210 -2.5252 0.9783
3.1507 -3.7123 -2.5260 0.9783
3.5320 -3.3578 -2.5282 0.9783
3.8730 -2.9640 -2.5301 0.9783
3.9771 -2.8247 -2.5307 0.9783
4.2583 -2.3855 -2.5321 0.9782
4.5566 -1.7573 -2.5336 0.9782
4.6710 -1.4286 -2.5340 0.9782
2.6196 -0.7002 -1.4067 0.9879
2.5820 -0.4015 -1.3556 0.9883
2.5811 -0.3076 -1.3485 0.9884
2.5805 -0.1222 -1.3402 0.9884
2.5805 -0.0302 -1.3388 0.9884
2.5805 0.0618 -1.3391 0.9884
2.5798 0.4336 -1.3571 0.9883
2.6195 0.5369 -1.3872 0.9880
4.7441 1.1499 -2.5324 0.9782
2.3089 -3.9813 -2.5207 0.9792
2.5883 -3.8092 -2.5224 0.9792
2.8548 -3.6175 -2.5240 0.9792
3.2273 -3.2950 -2.5261 0.9792
3.5633 -2.9340 -2.5280 0.9792
3.7648 -2.6739 -2.5291 0.9792
3.8584 -2.5386 -2.5296 0.9792
4.0309 -2.2581 -2.5305 0.9791
4.1094 -2.1134 -2.5309 0.9791
4.1827 -1.9659 -2.5313 0.9791
4.3131 -1.6634 -2.5319 0.9791
2.5890 -0.6920 -1.4678 0.9879
2.5532 -0.5858 -1.4347 0.9881
2.5557 -0.4912 -1.4254 0.9882
2.5597 -0.1212 -1.4035 0.9884
2.5597 -0.0299 -1.4021 0.9884
2.5597 0.0613 -1.4024 0.9884
2.5592 0.1527 -1.4042 0.9884
2.5585 0.2444 -1.4077 0.9883
2.5530 0.4291 -1.4179 0.9883
4.4907 1.0885 -2.5308 0.9791
2.1895 -3.7754 -2.5198 0.9800
2.3234 -3.6962 -2.5206 0.9800
2.5823 -3.5235 -2.5221 0.9800
3.1703 -3.0140 -2.5255 0.9800
3.2765 -2.8998 -2.5261 0.9800
3.3785 -2.7819 -2.5267 0.9800
3.4762 -2.6603 -2.5272 0.9800
3.5695 -2.5352 -2.5278 0.9800
3.6583 -2.4069 -2.5282 0.9800
3.7424 -2.2754 -2.5287 0.9800
3.8217 -2.1409 -2.5291 0.9800
3.9656 -1.8639 -2.5298 0.9800
4.1431 -1.4305 -2.5306 0.9800
2.5377 -0.3946 -1.4827 0.9882
2.5356 0.3337 -1.4765 0.9883
2.5342 0.4259 -1.4837 0.9882
