ply
format ascii 1.0
element vertex 442
property float32 x
property float32 y
property float32 z
property float32 I
end_header
46.0269 14.7151 8.5205 0.8218
44.9437 18.0262 8.5384 0.8215
31.3320 24.7953 7.0454 0.8502
46.7837 14.9571 7.5244 0.8197
2.5900 7.6789 1.2415 0.9677
46.6478 14.9136 6.3774 0.8207
2.5896 7.6780 1.0552 0.9678
2.5894 7.6771 0.8700 0.9679
2.5887 7.6754 0.5023 0.9681
2.5885 7.6745 0.3194 0.9681
45.5755 14.5707 0.8082 0.8258
2.5882 7.6736 0.1368 0.9681
37.8327 10.6105 -1.1064 0.8545
37.8392 12.0974 -1.1186 0.8530
37.8671 18.4530 -1.1861 0.8449
37.8904 23.8322 -1.2604 0.8360
37.8989 25.7867 -1.2907 0.8324
37.9078 27.8403 -1.3243 0.8284
37.9171 30.0066 -1.3615 0.8241
2.5876 7.6719 -0.2280 0.9681
37.8334 12.0956 -2.0144 0.8529
37.8400 13.6174 -2.0395 0.8512
37.8467 15.1797 -2.0680 0.8493
37.8608 18.4500 -2.1359 0.8448
37.8682 20.1716 -2.1759 0.8421
37.8758 21.9612 -2.2204 0.8392
37.8921 25.7821 -2.3243 0.8323
37.9009 27.8352 -2.3848 0.8283
37.9196 32.2950 -2.5260 0.8191
31.5005 38.5326 -2.5240 0.8193
28.6765 40.7411 -2.5267 0.8191
2.5873 7.6710 -0.4106 0.9681
10.7200 48.5555 -2.5218 0.8194
8.9175 48.6488 -2.5083 0.8203
32.7788 11.7960 -2.5543 0.8696
31.7372 14.0757 -2.5456 0.8700
30.5254 16.2603 -2.5359 0.8705
29.1535 18.3368 -2.5253 0.8710
28.5579 22.6000 -2.6703 0.8641
27.6567 23.5543 -2.6636 0.8644
26.7219 24.4713 -2.6568 0.8647
25.7554 25.3501 -2.6497 0.8651
23.7340 26.9883 -2.6352 0.8658
21.6063 28.4618 -2.6201 0.8665
19.3869 29.7646 -2.6045 0.8672
18.2472 30.3505 -2.5966 0.8676
17.0902 30.8922 -2.5886 0.8680
15.9174 31.3892 -2.5805 0.8684
14.7307 31.8413 -2.5724 0.8687
12.3230 32.6099 -2.5561 0.8695
2.5870 7.6701 -0.5935 0.9681
26.4729 8.4635 -2.6683 0.8943
26.1210 9.4001 -2.6652 0.8944
25.7341 10.3215 -2.6619 0.8946
24.8574 12.1133 -2.6547 0.8948
22.1079 16.2365 -2.6334 0.8956
21.4701 16.9909 -2.6286 0.8958
20.8054 17.7193 -2.6237 0.8960
20.1151 18.4210 -2.6186 0.8962
19.4003 19.0949 -2.6134 0.8964
17.9018 20.3565 -2.6025 0.8968
17.1207 20.9426 -2.5970 0.8970
14.6649 22.5149 -2.5796 0.8977
12.0675 23.7972 -2.5616 0.8983
11.1763 24.1583 -2.5555 0.8986
9.3640 24.7795 -2.5431 0.8990
7.5200 25.2648 -2.5307 0.8995
3.5487 24.2530 -2.3532 0.9062
2.6725 24.3565 -2.3524 0.9062
1.7941 24.4372 -2.3524 0.9062
21.3747 5.9947 -2.6370 0.9145
21.1272 6.7545 -2.6347 0.9145
20.8512 7.5037 -2.6323 0.9146
20.5474 8.2412 -2.6297 0.9147
19.8583 9.6772 -2.6241 0.9149
19.4742 10.3735 -2.6210 0.9150
19.0646 11.0541 -2.6178 0.9151
18.1719 12.3643 -2.6108 0.9153
17.6903 12.9921 -2.6072 0.9154
17.1862 13.6007 -2.6034 0.9155
16.6604 14.1891 -2.5995 0.9156
16.1138 14.7566 -2.5954 0.9157
15.5473 15.3026 -2.5913 0.9159
14.9619 15.8263 -2.5870 0.9160
13.7376 16.8043 -2.5782 0.9163
13.1008 17.2576 -2.5737 0.9164
12.4488 17.6862 -2.5691 0.9166
11.7826 18.0898 -2.5644 0.9167
11.1032 18.4679 -2.5597 0.9169
9.7090 19.1463 -2.5500 0.9172
8.9963 19.4460 -2.5451 0.9173
8.2744 19.7188 -2.5402 0.9175
7.5445 19.9647 -2.5352 0.9176
2.5864 7.6684 -0.9613 0.9679
6.0646 20.3751 -2.5252 0.9179
2.1628 19.7108 -2.3554 0.9232
1.4493 19.7407 -2.3512 0.9234
17.0854 6.8527 -2.6083 0.9283
15.8646 9.1987 -2.5984 0.9286
15.5066 9.7533 -2.5956 0.9287
15.1284 10.2935 -2.5927 0.9287
14.7309 10.8187 -2.5896 0.9288
13.3851 12.2578 -2.5716 0.9293
12.9597 12.7557 -2.5765 0.9292
11.9752 13.6171 -2.5694 0.9294
8.6992 15.7246 -2.5462 0.9300
8.1146 16.0021 -2.5422 0.9301
7.5213 16.2576 -2.5381 0.9302
6.9199 16.4910 -2.5340 0.9303
2.5861 7.6675 -1.1465 0.9678
4.7676 16.0175 -2.3679 0.9347
3.0022 16.3783 -2.3593 0.9349
2.4089 16.4629 -2.3575 0.9350
1.8120 16.5142 -2.3539 0.9351
0.6173 16.5486 -2.3464 0.9353
15.1844 4.2586 -2.5980 0.9381
13.5720 7.8693 -2.5845 0.9384
13.2678 8.3451 -2.5821 0.9384
12.9463 8.8088 -2.5796 0.9385
12.2540 9.6975 -2.5744 0.9386
11.8843 10.1215 -2.5716 0.9387
11.4995 10.5310 -2.5688 0.9387
10.6557 11.2714 -2.5553 0.9391
10.2611 11.6681 -2.5598 0.9390
9.7934 11.9796 -2.5490 0.9392
9.3441 12.3088 -2.5458 0.9393
8.4375 12.9540 -2.5468 0.9393
7.4637 13.4913 -2.5400 0.9394
6.9637 13.7325 -2.5365 0.9395
5.0900 13.4695 -2.3721 0.9433
2.5858 7.6666 -1.3329 0.9677
4.0961 13.7616 -2.3654 0.9435
3.0902 13.9970 -2.3614 0.9435
2.0705 14.1500 -2.3559 0.9437
1.5578 14.1971 -2.3529 0.9437
13.0967 4.1871 -2.5844 0.9456
12.3291 6.0081 -2.5779 0.9457
11.8472 6.8692 -2.5740 0.9458
11.5829 7.2854 -2.5720 0.9458
10.0458 9.1998 -2.5604 0.9461
9.6985 9.5459 -2.5578 0.9461
9.3391 9.8786 -2.5552 0.9462
8.5859 10.5026 -2.5498 0.9463
7.7907 11.0684 -2.5441 0.9464
7.3789 11.3287 -2.5412 0.9465
6.9582 11.5735 -2.5383 0.9465
5.3057 11.4686 -2.3752 0.9499
2.5855 7.6657 -1.5206 0.9676
2.7068 12.2603 -2.3600 0.9502
1.3648 12.4388 -2.3520 0.9503
11.7350 3.2912 -2.5762 0.9514
11.4567 4.1229 -2.5737 0.9514
11.1179 4.9309 -2.5709 0.9515
10.9265 5.3246 -2.5693 0.9515
10.7209 5.7108 -2.5676 0.9516
10.2680 6.4583 -2.5641 0.9516
9.7619 7.1694 -2.5602 0.9517
9.4899 7.5101 -2.5581 0.9517
9.2058 7.8403 -2.5560 0.9518
8.6028 8.4675 -2.5515 0.9518
8.2850 8.7636 -2.5492 0.9519
7.9567 9.0477 -2.5469 0.9519
6.5501 10.0563 -2.5368 0.9521
6.1774 10.2749 -2.5342 0.9522
5.4445 9.8414 -2.3774 0.9551
4.7123 10.1858 -2.3723 0.9552
3.9586 10.4756 -2.3672 0.9552
2.5521 7.5668 -1.6880 0.9679
2.3142 7.7750 -1.7147 0.9674
2.7988 10.8120 -2.3608 0.9554
1.6122 11.0178 -2.3537 0.9555
0.4137 11.0907 -2.3460 0.9556
10.4058 3.3268 -2.5675 0.9561
9.9720 4.4227 -2.5638 0.9562
9.6171 5.1228 -2.5609 0.9562
8.9916 6.1180 -2.5560 0.9563
8.5161 6.7394 -2.5524 0.9564
7.4375 7.8672 -2.5444 0.9565
7.1435 8.1230 -2.5423 0.9565
6.8406 8.3677 -2.5401 0.9566
6.5293 8.6010 -2.5379 0.9566
6.2099 8.8225 -2.5356 0.9566
5.2110 8.6673 -2.3768 0.9593
4.2342 9.1524 -2.3701 0.9594
1.0910 9.9428 -2.3508 0.9597
0.3721 9.9747 -2.3459 0.9598
9.5287 2.6724 -2.5623 0.9599
9.4228 3.0125 -2.5614 0.9599
9.0312 4.0054 -2.5580 0.9600
8.1457 5.5424 -2.5510 0.9601
7.4861 6.3757 -2.5460 0.9602
7.2467 6.6363 -2.5442 0.9602
6.9981 6.8879 -2.5424 0.9602
6.7406 7.1301 -2.5405 0.9603
6.4747 7.3625 -2.5386 0.9603
6.2007 7.5849 -2.5366 0.9603
5.9189 7.7970 -2.5346 0.9604
4.1403 8.1647 -2.3702 0.9629
3.5360 8.4266 -2.3661 0.9629
3.2275 8.5408 -2.3640 0.9630
2.5351 7.5163 -2.0538 0.9678
1.9619 8.8861 -2.3562 0.9631
1.6394 8.9437 -2.3543 0.9631
0.6640 9.0444 -2.3481 0.9632
0.3377 9.0539 -2.3458 0.9633
8.6972 2.4392 -2.5571 0.9631
8.6008 2.7497 -2.5562 0.9632
7.7909 4.5173 -2.5495 0.9633
7.4377 5.0607 -2.5467 0.9633
6.6184 6.0610 -2.5406 0.9634
6.3917 6.2911 -2.5389 0.9634
5.9145 6.7254 -2.5354 0.9635
5.4075 7.1233 -2.5318 0.9635
4.8305 6.8628 -2.3758 0.9657
4.5769 7.0269 -2.3740 0.9657
4.3177 7.1816 -2.3722 0.9658
3.7839 7.4619 -2.3685 0.9658
3.2321 7.7024 -2.3647 0.9659
2.5266 7.4909 -2.2380 0.9677
2.2886 7.6889 -2.2710 0.9672
0.6072 8.2712 -2.3478 0.9661
7.9026 2.5265 -2.5518 0.9659
7.6948 3.0863 -2.5500 0.9659
7.3081 3.8929 -2.5468 0.9659
7.1600 4.1515 -2.5457 0.9660
7.0025 4.4044 -2.5444 0.9660
6.8360 4.6512 -2.5431 0.9660
6.4766 5.1254 -2.5404 0.9660
6.2844 5.3522 -2.5390 0.9660
6.0841 5.5717 -2.5375 0.9661
5.2084 6.3711 -2.5311 0.9661
4.9724 6.5501 -2.5294 0.9662
4.4421 6.3109 -2.3737 0.9682
4.2091 6.4623 -2.3721 0.9682
3.9710 6.6049 -2.3704 0.9683
3.2288 6.9793 -2.3653 0.9683
2.1872 7.3483 -2.3582 0.9684
1.3793 7.5247 -2.3530 0.9685
0.8332 7.5931 -2.3495 0.9685
7.3015 2.3343 -2.5481 0.9682
6.8812 3.3533 -2.5445 0.9682
6.7533 3.5974 -2.5435 0.9683
6.6166 3.8365 -2.5424 0.9683
6.4713 4.0703 -2.5412 0.9683
6.3177 4.2986 -2.5400 0.9683
6.1559 4.5210 -2.5388 0.9683
5.9861 4.7372 -2.5375 0.9683
5.4317 5.3462 -2.5334 0.9684
5.0272 5.7165 -2.5305 0.9684
4.5973 6.0560 -2.5274 0.9685
3.2188 6.3475 -2.3657 0.9704
2.9862 6.4549 -2.3641 0.9705
2.7500 6.5537 -2.3625 0.9705
2.2683 6.7251 -2.3592 0.9705
1.2760 6.9612 -2.3525 0.9706
0.5171 7.0435 -2.3476 0.9707
0.2631 7.0525 -2.3459 0.9707
6.6939 2.4089 -2.5440 0.9702
6.6007 2.6474 -2.5432 0.9702
6.2701 3.3400 -2.5405 0.9703
5.8662 3.9914 -2.5373 0.9703
5.7162 4.1981 -2.5362 0.9703
5.2227 4.7828 -2.5325 0.9704
5.0445 4.9651 -2.5312 0.9704
4.2703 5.6252 -2.5256 0.9704
4.0627 5.7719 -2.5241 0.9705
2.9905 5.8974 -2.3646 0.9723
2.7746 5.9974 -2.3631 0.9723
2.5553 6.0895 -2.3616 0.9723
2.1079 6.2495 -2.3585 0.9724
1.8803 6.3172 -2.3570 0.9724
1.6506 6.3765 -2.3555 0.9724
1.1860 6.4702 -2.3523 0.9724
0.9517 6.5044 -2.3508 0.9725
0.7165 6.5301 -2.3492 0.9725
0.2446 6.5561 -2.3461 0.9725
6.3883 1.7916 -2.5426 0.9720
6.2395 2.2454 -2.5412 0.9720
6.1529 2.4678 -2.5405 0.9720
6.0581 2.6868 -2.5397 0.9720
5.9555 2.9022 -2.5388 0.9720
5.6017 3.5233 -2.5360 0.9721
5.4691 3.7212 -2.5350 0.9721
5.0295 4.2834 -2.5316 0.9721
4.8697 4.4596 -2.5305 0.9721
4.7038 4.6297 -2.5292 0.9721
4.5318 4.7937 -2.5280 0.9721
4.3541 4.9511 -2.5267 0.9722
3.9824 5.2460 -2.5240 0.9722
3.7890 5.3830 -2.5226 0.9722
3.5363 5.4292 -2.4830 0.9726
2.5882 5.5945 -2.3622 0.9739
1.5401 5.9495 -2.3551 0.9740
1.3241 5.9973 -2.3536 0.9740
1.1067 6.0374 -2.3522 0.9740
0.8881 6.0696 -2.3507 0.9741
0.6686 6.0938 -2.3493 0.9741
0.4486 6.1102 -2.3478 0.9741
0.2282 6.1186 -2.3464 0.9741
5.9754 1.6759 -2.5400 0.9735
5.7556 2.3085 -2.5380 0.9736
5.6670 2.5134 -2.5373 0.9736
5.4680 2.9127 -2.5356 0.9736
5.3578 3.1066 -2.5348 0.9736
5.1166 3.4814 -2.5329 0.9736
4.2405 4.4855 -2.5263 0.9737
3.3605 5.1594 -2.5200 0.9737
2.8014 5.0638 -2.3685 0.9753
2.4226 5.2366 -2.3614 0.9754
1.6423 5.5176 -2.3561 0.9754
1.4418 5.5699 -2.3548 0.9754
0.8315 5.6830 -2.3507 0.9755
0.6261 5.7059 -2.3493 0.9755
0.4201 5.7215 -2.3480 0.9755
5.6064 1.5724 -2.5376 0.9749
5.5449 1.7727 -2.5371 0.9749
5.4003 2.1660 -2.5358 0.9749
5.3174 2.3583 -2.5351 0.9749
5.2276 2.5474 -2.5344 0.9749
5.1309 2.7331 -2.5336 0.9750
4.8014 3.2669 -2.5310 0.9750
4.6790 3.4364 -2.5300 0.9750
4.5505 3.6012 -2.5291 0.9750
4.4162 3.7611 -2.5281 0.9750
4.2762 3.9160 -2.5270 0.9750
4.1307 4.0657 -2.5260 0.9750
3.8241 4.3485 -2.5237 0.9750
3.6634 4.4812 -2.5226 0.9751
3.3284 4.7287 -2.5202 0.9751
2.7762 5.0183 -2.4994 0.9753
2.5013 4.9326 -2.4103 0.9762
2.2744 4.9162 -2.3607 0.9766
2.0949 4.9922 -2.3595 0.9767
1.7284 5.1246 -2.3570 0.9767
1.5420 5.1807 -2.3557 0.9767
1.3538 5.2300 -2.3545 0.9767
1.1641 5.2725 -2.3532 0.9767
0.9730 5.3081 -2.3519 0.9767
0.5879 5.3585 -2.3494 0.9768
0.3945 5.3733 -2.3481 0.9768
5.2742 1.4792 -2.5355 0.9761
5.2164 1.6677 -2.5350 0.9761
5.0805 2.0377 -2.5338 0.9762
5.0026 2.2187 -2.5332 0.9762
4.8273 2.5714 -2.5317 0.9762
4.2817 3.3885 -2.5275 0.9762
4.0238 3.6849 -2.5256 0.9762
3.7452 3.9616 -2.5235 0.9763
3.5987 4.0921 -2.5225 0.9763
3.4476 4.2172 -2.5214 0.9763
3.2921 4.3366 -2.5203 0.9763
3.1325 4.4503 -2.5191 0.9763
2.4567 4.8447 -2.5144 0.9763
2.0140 4.7996 -2.4093 0.9773
1.8050 4.7765 -2.3636 0.9777
1.6271 4.8241 -2.3566 0.9778
1.4517 4.8770 -2.3554 0.9778
1.0959 4.9638 -2.3530 0.9778
0.9161 4.9975 -2.3518 0.9779
0.7352 5.0246 -2.3506 0.9779
0.5536 5.0452 -2.3494 0.9779
0.3714 5.0593 -2.3482 0.9779
0.1890 5.0668 -2.3470 0.9779
4.9733 1.3948 -2.5336 0.9773
4.9189 1.5726 -2.5331 0.9773
4.8580 1.7483 -2.5326 0.9773
4.6379 2.2601 -2.5307 0.9773
4.5523 2.4249 -2.5300 0.9773
4.4608 2.5864 -2.5293 0.9773
4.3634 2.7445 -2.5286 0.9773
4.2605 2.8989 -2.5278 0.9773
4.1520 3.0493 -2.5269 0.9773
4.0382 3.1957 -2.5261 0.9773
3.7951 3.4755 -2.5242 0.9773
3.2519 3.9779 -2.5203 0.9774
3.1054 4.0906 -2.5192 0.9774
2.9548 4.1980 -2.5182 0.9774
2.8006 4.2998 -2.5171 0.9774
2.6429 4.3958 -2.5160 0.9774
2.4818 4.4861 -2.5148 0.9774
1.7928 4.7443 -2.4878 0.9777
1.5942 4.7267 -2.4469 0.9780
1.4038 4.7163 -2.4138 0.9783
1.0404 4.7128 -2.3674 0.9787
0.3505 4.7744 -2.3483 0.9789
0.1784 4.7817 -2.3471 0.9789
4.5904 1.6519 -2.5309 0.9783
4.4577 1.9770 -2.5298 0.9783
4.3826 2.1357 -2.5292 0.9783
4.3017 2.2914 -2.5285 0.9783
4.2154 2.4441 -2.5278 0.9783
4.1235 2.5935 -2.5271 0.9783
3.5867 3.2846 -2.5230 0.9783
3.4649 3.4104 -2.5221 0.9783
3.3387 3.5316 -2.5212 0.9783
3.2082 3.6481 -2.5203 0.9783
3.0736 3.7597 -2.5193 0.9784
2.9351 3.8664 -2.5183 0.9784
2.6472 4.0643 -2.5163 0.9784
2.4981 4.1552 -2.5152 0.9784
2.3460 4.2406 -2.5142 0.9784
1.7101 4.5255 -2.5098 0.9784
1.2107 4.6771 -2.5064 0.9785
1.0354 4.6899 -2.4916 0.9786
0.8601 4.6921 -2.4747 0.9787
0.6868 4.6937 -2.4609 0.9789
0.5151 4.6948 -2.4502 0.9789
0.3447 4.6953 -2.4424 0.9790
4.2198 1.8715 -2.5283 0.9792
4.1488 2.0217 -2.5277 0.9792
3.9906 2.3138 -2.5265 0.9792
3.8117 2.5935 -2.5251 0.9792
3.7147 2.7282 -2.5243 0.9792
3.6130 2.8593 -2.5236 0.9792
3.2805 3.2289 -2.5211 0.9792
2.6446 3.7572 -2.5165 0.9793
2.5067 3.8485 -2.5155 0.9793
2.0747 4.0914 -2.5125 0.9793
1.9253 4.1617 -2.5115 0.9793
1.7735 4.2265 -2.5104 0.9793
1.6196 4.2858 -2.5094 0.9793
1.4636 4.3395 -2.5083 0.9793
1.1467 4.4298 -2.5062 0.9793
0.9861 4.4662 -2.5051 0.9794
0.3343 4.5536 -2.5008 0.9794
4.2174 1.1828 -2.5289 0.9800
4.1199 1.4826 -2.5280 0.9800
4.0631 1.6297 -2.5275 0.9800
4.0010 1.7745 -2.5270 0.9800
3.9337 1.9169 -2.5264 0.9800
3.7014 2.3281 -2.5246 0.9800
3.4260 2.7113 -2.5225 0.9800
3.1109 3.0619 -2.5201 0.9800
2.8806 3.2756 -2.5184 0.9801
1.9678 3.8805 -2.5120 0.9801
1.8261 3.9472 -2.5110 0.9801
1.6821 4.0088 -2.5100 0.9801
1.5362 4.0652 -2.5090 0.9801
1.3883 4.1162 -2.5080 0.9801
1.2388 4.1618 -2.5070 0.9801
0.7820 4.2658 -2.5039 0.9802
0.1614 4.3268 -2.4998 0.9802
