ply
format ascii 1.0
element vertex 519
property float32 x
property float32 y
property float32 z
property float32 I
end_header
44.5495 -20.2723 8.6303 0.8197
44.4095 -18.3331 8.4716 0.8227
47.0382 -10.2134 8.4874 0.8224
45.0330 -6.4716 8.0221 0.8313
47.8784 -5.1519 8.4910 0.8223
45.4741 -1.6429 8.0235 0.8313
45.4917 1.5914 8.0263 0.8312
47.1477 10.1806 8.5050 0.8221
44.2187 11.2064 8.0434 0.8309
45.3257 16.7934 8.5231 0.8217
44.8628 -20.4149 7.5508 0.8192
46.4591 -15.4182 7.4990 0.8203
46.5295 -8.3838 7.2429 0.8259
46.5468 -6.6892 7.2040 0.8267
46.5642 -5.0105 7.1746 0.8274
46.5816 -3.3434 7.1544 0.8278
46.6344 1.6313 7.1485 0.8279
46.6524 3.2948 7.1647 0.8276
46.7081 8.3608 7.2692 0.8253
46.7473 11.8472 7.3878 0.8227
46.7676 13.6380 7.4630 0.8211
46.7886 15.4681 7.5493 0.8192
46.3240 -15.3733 6.3559 0.8213
46.3611 -11.8058 6.2299 0.8245
46.7416 -8.4219 6.1848 0.8257
48.6020 -6.9845 6.3940 0.8203
48.6205 -5.2318 6.3680 0.8210
48.6389 -3.4910 6.3501 0.8214
48.7505 6.9489 6.4125 0.8198
46.5939 10.0610 6.2073 0.8251
46.6323 13.5986 6.3254 0.8221
46.0527 15.2247 6.3162 0.8223
45.5558 15.0604 5.1522 0.8245
39.4540 -25.2446 3.9651 0.8286
44.8404 -20.4048 4.1704 0.8206
45.5584 15.0613 4.0619 0.8248
44.8331 -20.4014 3.0544 0.8209
39.4529 -25.2439 0.7912 0.8291
44.3568 -20.1847 0.8232 0.8229
39.4525 -25.2437 -0.2637 0.8292
44.5306 -3.1962 -0.2514 0.8365
39.4521 -25.2434 -1.3188 0.8291
37.6776 -18.7889 -1.1855 0.8450
37.7113 -17.1606 -1.1666 0.8472
37.7380 -11.0518 -1.1073 0.8544
37.7443 -9.6116 -1.0967 0.8557
37.7238 -8.1910 -1.0870 0.8569
37.7565 -6.8031 -1.0803 0.8577
37.7624 -5.4268 -1.0742 0.8584
37.7683 -4.0640 -1.0696 0.8590
37.7801 -1.3649 -1.0645 0.8596
37.7858 -0.0216 -1.0640 0.8597
37.7916 1.3220 -1.0648 0.8596
37.7974 2.6694 -1.0669 0.8593
37.8032 4.0240 -1.0705 0.8589
37.8090 5.3893 -1.0754 0.8583
37.8149 6.7689 -1.0817 0.8575
37.8209 8.1667 -1.0895 0.8566
37.8270 9.5865 -1.0988 0.8554
37.8127 12.5007 -1.1214 0.8527
37.8458 14.0220 -1.1364 0.8509
37.8592 17.1756 -1.1706 0.8467
37.8662 18.8288 -1.1908 0.8443
37.8809 22.3235 -1.2381 0.8387
37.8887 24.1820 -1.2656 0.8354
37.8969 26.1275 -1.2961 0.8318
37.9144 30.3277 -1.3671 0.8234
39.4518 -25.2432 -2.3753 0.8290
37.7052 -17.1578 -2.1009 0.8471
37.7385 -9.6101 -1.9750 0.8556
37.7567 -5.4260 -1.9345 0.8583
37.6840 -2.7048 -1.9160 0.8596
37.7744 -1.3647 -1.9170 0.8595
37.7860 1.3218 -1.9175 0.8595
37.7917 2.6690 -1.9213 0.8592
37.8033 5.3885 -1.9365 0.8582
37.8091 6.7679 -1.9479 0.8574
37.8151 8.1654 -1.9620 0.8565
37.8067 12.4987 -2.0194 0.8526
37.8529 17.1727 -2.1080 0.8466
37.8820 24.1777 -2.2791 0.8353
37.8716 28.1464 -2.3930 0.8278
37.9071 30.3218 -2.4618 0.8233
30.1313 -17.8032 -2.5661 0.8690
31.3987 -15.6577 -2.5726 0.8687
32.9820 -12.2629 -2.5800 0.8684
33.4209 -11.0912 -2.5819 0.8683
34.4601 -7.4823 -2.5856 0.8681
34.7117 -6.2545 -2.5861 0.8681
34.9152 -5.0176 -2.5864 0.8681
35.2337 -1.2729 -2.5851 0.8681
35.2421 -0.0202 -2.5840 0.8682
35.2015 1.2314 -2.5826 0.8683
34.9743 3.7228 -2.5789 0.8684
34.7882 4.9587 -2.5765 0.8685
33.9456 8.6028 -2.5676 0.8690
33.1533 10.9603 -2.5603 0.8693
32.6904 12.1119 -2.5562 0.8695
31.6356 14.3521 -2.5471 0.8699
31.0458 15.4374 -2.5422 0.8702
28.9491 19.9584 -2.5782 0.8685
28.9156 21.4903 -2.6416 0.8655
23.9836 -14.1708 -2.6744 0.8941
26.8691 -7.8688 -2.6879 0.8936
27.1413 -6.9115 -2.6888 0.8936
27.5752 -4.9686 -2.6900 0.8935
27.7362 -3.9859 -2.6902 0.8935
27.9451 -2.0058 -2.6898 0.8935
28.0023 -0.0160 -2.6884 0.8936
27.9738 0.9786 -2.6873 0.8936
27.8035 2.9595 -2.6844 0.8937
27.4832 4.9195 -2.6805 0.8939
26.7276 7.7941 -2.6729 0.8942
26.4042 8.7291 -2.6699 0.8943
26.0460 9.6501 -2.6667 0.8944
25.6537 10.5559 -2.6632 0.8945
25.2280 11.4452 -2.6596 0.8947
24.2797 13.1690 -2.6518 0.8949
22.0194 16.3649 -2.6339 0.8956
18.7020 -11.9664 -2.6374 0.9144
19.9162 -9.9317 -2.6436 0.9143
20.2696 -9.2237 -2.6453 0.9142
20.5963 -8.5025 -2.6468 0.9142
21.1679 -7.0249 -2.6493 0.9141
21.8135 -4.7363 -2.6515 0.9140
21.9709 -3.9588 -2.6519 0.9140
22.0989 -3.1758 -2.6520 0.9140
22.1973 -2.3885 -2.6519 0.9140
22.2931 0.7798 -2.6497 0.9141
22.2425 1.5708 -2.6487 0.9141
22.1623 2.3591 -2.6474 0.9141
22.0525 3.1433 -2.6460 0.9142
21.7453 4.6955 -2.6426 0.9143
21.5484 5.4610 -2.6406 0.9143
21.3232 6.2181 -2.6384 0.9144
20.4814 8.4276 -2.6308 0.9147
19.7868 9.8388 -2.6249 0.9148
18.9909 11.1915 -2.6184 0.9150
18.0990 12.4781 -2.6113 0.9153
15.5434 -9.9454 -2.6146 0.9282
16.2326 -8.8285 -2.6181 0.9281
17.1074 -7.0623 -2.6224 0.9280
17.3548 -6.4526 -2.6235 0.9279
17.9588 -4.5732 -2.6258 0.9279
18.1130 -3.9329 -2.6262 0.9279
18.3494 -2.6370 -2.6266 0.9278
18.4312 -1.9833 -2.6266 0.9278
18.4885 -1.3270 -2.6264 0.9279
18.4726 1.3046 -2.6239 0.9279
18.4074 1.9594 -2.6229 0.9279
18.3179 2.6110 -2.6217 0.9280
18.2043 3.2586 -2.6203 0.9280
18.0667 3.9011 -2.6189 0.9280
17.9054 4.5378 -2.6172 0.9281
17.5129 5.7897 -2.6135 0.9282
17.2824 6.4032 -2.6114 0.9282
16.7545 7.6010 -2.6068 0.9284
16.4581 8.1837 -2.6043 0.9284
15.8027 9.3126 -2.5989 0.9286
15.4447 9.8574 -2.5961 0.9287
14.6712 10.9037 -2.5900 0.9288
14.2569 11.4041 -2.5868 0.9289
13.2853 -8.5006 -2.5983 0.9381
14.1381 -7.0503 -2.6026 0.9380
15.0173 -4.9837 -2.6066 0.9379
15.3403 -3.9064 -2.6078 0.9378
15.5826 -2.8077 -2.6084 0.9378
15.6732 -2.2524 -2.6085 0.9378
15.7922 -1.1335 -2.6083 0.9378
15.8282 -0.0091 -2.6075 0.9378
15.8149 0.5532 -2.6069 0.9379
15.7808 1.1145 -2.6062 0.9379
15.7260 1.6739 -2.6053 0.9379
15.6505 2.2308 -2.6043 0.9379
15.4383 3.3336 -2.6019 0.9380
14.9696 4.9489 -2.5973 0.9381
14.5598 5.9910 -2.5937 0.9382
14.3266 6.4995 -2.5917 0.9382
12.8938 8.8894 -2.5800 0.9385
12.5570 9.3324 -2.5774 0.9385
12.2046 9.7624 -2.5746 0.9386
11.8516 -7.0025 -2.5874 0.9455
12.0988 -6.5802 -2.5887 0.9455
12.5462 -5.7091 -2.5909 0.9454
12.9285 -4.8069 -2.5926 0.9454
13.4897 -2.9290 -2.5946 0.9454
13.6652 -1.9638 -2.5949 0.9454
13.7692 -0.9883 -2.5947 0.9454
13.7606 0.9718 -2.5929 0.9454
13.7135 1.4597 -2.5921 0.9454
13.5654 2.4282 -2.5903 0.9455
13.0590 4.3172 -2.5852 0.9456
12.7037 5.2273 -2.5820 0.9456
12.2833 6.1078 -2.5785 0.9457
11.8004 6.9540 -2.5745 0.9458
10.9651 8.1493 -2.5679 0.9459
10.3392 8.8907 -2.5630 0.9460
10.2671 -6.5694 -2.5765 0.9514
10.4990 -6.2033 -2.5777 0.9514
10.7174 -5.8289 -2.5788 0.9513
10.9220 -5.4465 -2.5798 0.9513
11.2888 -4.6602 -2.5816 0.9513
11.5972 -3.8487 -2.5829 0.9513
11.7289 -3.4349 -2.5834 0.9513
12.0319 -2.1679 -2.5842 0.9512
12.1016 -1.7391 -2.5843 0.9512
12.1557 -1.3080 -2.5843 0.9512
12.1938 -0.8752 -2.5842 0.9512
12.2161 -0.4413 -2.5839 0.9513
12.2128 0.4272 -2.5831 0.9513
12.1872 0.8607 -2.5826 0.9513
12.0158 2.1508 -2.5803 0.9513
11.9272 2.5754 -2.5793 0.9513
11.8233 2.9964 -2.5782 0.9514
11.7041 3.4130 -2.5770 0.9514
11.5697 3.8249 -2.5758 0.9514
11.0783 5.0259 -2.5714 0.9515
10.4596 6.1639 -2.5663 0.9516
9.9805 6.8809 -2.5625 0.9516
9.7221 7.2255 -2.5604 0.9517
9.4514 7.5602 -2.5584 0.9517
9.1690 7.8845 -2.5562 0.9518
9.2068 -5.8910 -2.5688 0.9561
9.4143 -5.5625 -2.5699 0.9561
9.6097 -5.2265 -2.5709 0.9560
9.9633 -4.5338 -2.5726 0.9560
10.1210 -4.1781 -2.5734 0.9560
10.2656 -3.8168 -2.5740 0.9560
10.3969 -3.4504 -2.5745 0.9560
10.5148 -3.0793 -2.5750 0.9560
10.7095 -2.3253 -2.5756 0.9560
10.7860 -1.9435 -2.5758 0.9560
10.8969 -1.1726 -2.5758 0.9560
10.9312 -0.7846 -2.5757 0.9560
10.9513 -0.3956 -2.5755 0.9560
10.9487 0.3830 -2.5748 0.9560
10.8382 1.5449 -2.5730 0.9560
10.6016 2.6868 -2.5704 0.9561
10.4952 3.0605 -2.5693 0.9561
10.3752 3.4300 -2.5682 0.9561
10.2420 3.7947 -2.5670 0.9561
9.9362 4.5078 -2.5643 0.9562
9.5799 5.1960 -2.5613 0.9562
9.3833 5.5296 -2.5597 0.9562
9.1749 5.8557 -2.5580 0.9563
8.7237 6.4835 -2.5545 0.9563
8.5243 -5.0366 -2.5635 0.9599
8.7009 -4.7322 -2.5644 0.9599
8.8664 -4.4214 -2.5653 0.9599
9.0205 -4.1048 -2.5660 0.9599
9.1629 -3.7826 -2.5667 0.9599
9.2937 -3.4554 -2.5672 0.9599
9.4124 -3.1236 -2.5677 0.9599
3.8419 -0.2758 -0.9973 0.9842
3.8677 0.2732 -1.0039 0.9841
3.9771 0.4233 -1.0356 0.9836
9.8125 1.3987 -2.5663 0.9599
9.7539 1.7460 -2.5656 0.9599
9.5991 2.4327 -2.5640 0.9599
9.2747 3.4363 -2.5609 0.9600
8.9987 4.0824 -2.5585 0.9600
8.8434 4.3973 -2.5572 0.9600
8.4994 5.0087 -2.5543 0.9601
8.3111 5.3044 -2.5528 0.9601
7.9034 5.8738 -2.5496 0.9601
7.6846 6.1469 -2.5479 0.9602
7.6092 -4.8687 -2.5573 0.9631
7.7801 -4.5969 -2.5582 0.9631
7.9411 -4.3189 -2.5590 0.9631
8.4812 -3.1534 -2.5616 0.9631
8.5894 -2.8505 -2.5620 0.9631
8.7725 -2.2339 -2.5627 0.9631
8.8470 -1.9209 -2.5629 0.9631
4.8171 -0.8680 -1.3856 0.9799
3.5600 -0.2555 -1.0104 0.9853
3.5610 -0.1287 -1.0087 0.9853
3.5625 0.1246 -1.0091 0.9853
3.5725 0.2523 -1.0139 0.9852
3.6586 0.3894 -1.0416 0.9848
8.7610 2.2203 -2.5586 0.9631
8.5752 2.8349 -2.5568 0.9631
8.4657 3.1366 -2.5558 0.9632
8.2145 3.7267 -2.5536 0.9632
7.5883 4.8431 -2.5484 0.9633
7.0175 5.6132 -2.5439 0.9633
6.8093 5.8553 -2.5423 0.9634
7.1481 -4.2234 -2.5537 0.9659
7.2958 -3.9679 -2.5544 0.9658
7.4341 -3.7072 -2.5551 0.9658
7.7914 -2.8969 -2.5568 0.9658
7.8907 -2.6186 -2.5572 0.9658
7.9798 -2.3369 -2.5575 0.9658
8.1271 -1.7646 -2.5580 0.9658
3.3854 -0.4865 -1.0520 0.9858
3.3467 -0.3601 -1.0353 0.9860
3.3520 -0.1211 -1.0317 0.9861
3.3525 0.1173 -1.0318 0.9861
3.3496 0.2366 -1.0328 0.9860
3.4080 0.3628 -1.0542 0.9858
8.0492 2.0399 -2.5540 0.9658
7.5483 3.4244 -2.5494 0.9659
7.4187 3.6889 -2.5483 0.9659
7.2796 3.9484 -2.5472 0.9659
7.1313 4.2025 -2.5460 0.9660
6.9740 4.4510 -2.5447 0.9660
6.8079 4.6936 -2.5434 0.9660
6.4593 -4.1330 -2.5490 0.9682
6.6041 -3.9020 -2.5498 0.9682
6.8681 -3.4249 -2.5511 0.9682
6.9870 -3.1794 -2.5517 0.9682
7.0970 -2.9297 -2.5522 0.9682
7.1978 -2.6762 -2.5526 0.9681
7.2895 -2.4191 -2.5530 0.9681
7.3717 -2.1588 -2.5533 0.9681
7.4444 -1.8957 -2.5535 0.9681
7.5077 -1.6301 -2.5537 0.9681
3.2486 -0.5853 -1.0972 0.9862
3.1788 0.1112 -1.0573 0.9867
7.3628 2.1471 -2.5494 0.9682
7.2796 2.4066 -2.5486 0.9682
7.1871 2.6628 -2.5477 0.9682
7.0854 2.9155 -2.5468 0.9682
6.5901 3.8836 -2.5427 0.9683
6.4450 4.1134 -2.5415 0.9683
6.2918 4.3377 -2.5403 0.9683
6.1306 4.5563 -2.5390 0.9683
5.9617 4.7688 -2.5377 0.9683
5.7854 4.9749 -2.5363 0.9683
6.1305 -3.6222 -2.5464 0.9702
6.2569 -3.4029 -2.5470 0.9702
6.3754 -3.1792 -2.5476 0.9702
6.4856 -2.9513 -2.5481 0.9702
6.5876 -2.7195 -2.5486 0.9702
6.6811 -2.4841 -2.5490 0.9702
6.7661 -2.2454 -2.5494 0.9702
6.8424 -2.0038 -2.5496 0.9702
6.9685 -1.5131 -2.5500 0.9702
3.0433 -0.3275 -1.0946 0.9871
3.0472 -0.2187 -1.0925 0.9871
3.0502 -0.0017 -1.0908 0.9871
3.0485 0.1066 -1.0908 0.9871
3.0456 0.2151 -1.0919 0.9871
3.0663 0.3264 -1.1027 0.9870
7.0132 1.2554 -2.5478 0.9702
6.8348 1.9931 -2.5460 0.9702
6.6721 2.4720 -2.5445 0.9702
6.5779 2.7066 -2.5436 0.9702
6.1188 3.6058 -2.5398 0.9703
5.8421 4.0277 -2.5376 0.9703
5.3726 4.6199 -2.5339 0.9703
5.5891 -3.5761 -2.5427 0.9720
5.7141 -3.3762 -2.5434 0.9720
6.0448 -2.7507 -2.5450 0.9720
6.3060 -2.0927 -2.5462 0.9719
6.4399 -1.6399 -2.5466 0.9719
2.9835 -0.6478 -1.1700 0.9870
2.9218 -0.3144 -1.1262 0.9875
2.9268 -0.2101 -1.1245 0.9875
2.9296 -0.1058 -1.1234 0.9875
2.9279 0.1024 -1.1227 0.9875
2.9238 0.2065 -1.1232 0.9875
2.9730 0.4238 -1.1508 0.9872
6.5366 1.1701 -2.5448 0.9720
6.4342 1.6306 -2.5437 0.9720
6.2989 2.0824 -2.5424 0.9720
5.9329 2.9501 -2.5391 0.9720
5.7041 3.3615 -2.5373 0.9720
5.5789 3.5606 -2.5362 0.9720
5.4466 3.7550 -2.5352 0.9721
5.3074 3.9445 -2.5341 0.9721
5.4547 -2.9667 -2.5413 0.9735
5.5579 -2.7715 -2.5418 0.9735
5.8240 -2.1654 -2.5430 0.9735
5.9644 -1.7467 -2.5436 0.9735
2.8082 -0.4036 -1.1611 0.9878
2.8137 -0.2020 -1.1546 0.9879
2.8165 -0.1018 -1.1535 0.9879
2.8146 0.2996 -1.1584 0.9878
6.0699 1.3107 -2.5415 0.9735
6.0183 1.5252 -2.5410 0.9735
5.9589 1.7377 -2.5404 0.9735
5.8920 1.9478 -2.5398 0.9735
5.3362 3.1447 -2.5350 0.9736
5.0956 3.5130 -2.5331 0.9736
4.9655 3.6904 -2.5321 0.9736
4.6869 4.0303 -2.5299 0.9736
4.9050 -3.1384 -2.5378 0.9749
5.0145 -2.9628 -2.5384 0.9749
5.1177 -2.7834 -2.5389 0.9749
5.3043 -2.4137 -2.5398 0.9749
5.3875 -2.2241 -2.5402 0.9749
5.4639 -2.0315 -2.5405 0.9749
5.5332 -1.8363 -2.5408 0.9749
5.5955 -1.6387 -2.5410 0.9749
5.6506 -1.4389 -2.5412 0.9749
2.7355 -0.5940 -1.2200 0.9879
2.7174 -0.4896 -1.2034 0.9880
2.7176 -0.2924 -1.1912 0.9881
2.7219 -0.1954 -1.1893 0.9882
2.7221 0.0952 -1.1871 0.9882
2.7363 0.3900 -1.2046 0.9880
5.6949 1.2297 -2.5391 0.9749
5.6465 1.4310 -2.5386 0.9749
5.5909 1.6304 -2.5381 0.9749
5.5281 1.8275 -2.5375 0.9749
5.4583 2.0223 -2.5368 0.9749
5.3815 2.2144 -2.5361 0.9749
5.2979 2.4035 -2.5354 0.9749
5.2076 2.5894 -2.5347 0.9749
5.0073 2.9508 -2.5330 0.9750
4.6597 3.4631 -2.5302 0.9750
4.7173 -2.7872 -2.5362 0.9761
4.8143 -2.6184 -2.5367 0.9761
4.9052 -2.4461 -2.5372 0.9761
4.9898 -2.2706 -2.5376 0.9761
5.1398 -1.9110 -2.5383 0.9761
5.2636 -1.5415 -2.5387 0.9761
2.8774 -0.7327 -1.3744 0.9870
2.6388 -0.3792 -1.2340 0.9883
2.6424 -0.2843 -1.2302 0.9884
2.6470 0.0926 -1.2260 0.9884
2.6433 0.1867 -1.2266 0.9884
2.6424 0.2813 -1.2300 0.9884
2.6373 0.3759 -1.2331 0.9883
2.6495 0.4743 -1.2459 0.9882
5.3573 1.1568 -2.5369 0.9761
5.3118 1.3462 -2.5365 0.9761
5.2595 1.5337 -2.5359 0.9761
5.2006 1.7193 -2.5354 0.9761
4.8083 2.6080 -2.5320 0.9762
4.7111 2.7763 -2.5312 0.9762
4.6080 2.9410 -2.5304 0.9762
4.3844 3.2585 -2.5286 0.9762
4.2643 3.4110 -2.5276 0.9762
4.1388 3.5590 -2.5267 0.9762
4.3511 -2.7840 -2.5338 0.9772
4.5396 -2.4689 -2.5348 0.9772
4.6252 -2.3064 -2.5352 0.9772
4.8463 -1.8019 -2.5362 0.9772
2.6330 -0.6705 -1.3328 0.9880
2.6042 -0.3742 -1.2905 0.9883
2.6032 -0.2801 -1.2843 0.9884
2.6018 -0.1867 -1.2795 0.9884
2.6013 -0.0015 -1.2760 0.9885
2.6028 0.0910 -1.2775 0.9885
2.6051 0.2773 -1.2851 0.9884
2.6044 0.3712 -1.2904 0.9883
5.0087 1.2693 -2.5345 0.9772
4.9595 1.4462 -2.5340 0.9772
4.8421 1.7940 -2.5329 0.9773
4.7001 2.1323 -2.5317 0.9773
4.5344 2.4594 -2.5303 0.9773
4.2429 2.9252 -2.5279 0.9773
4.1349 3.0731 -2.5271 0.9773
3.9035 3.3566 -2.5253 0.9773
4.1113 -2.6306 -2.5321 0.9782
4.2893 -2.3328 -2.5330 0.9782
4.3702 -2.1793 -2.5334 0.9782
4.6370 -1.5389 -2.5346 0.9782
4.6891 -1.3732 -2.5348 0.9782
2.6029 -0.6628 -1.3934 0.9880
2.5809 -0.4650 -1.3605 0.9883
2.5813 -0.3710 -1.3529 0.9883
2.5804 -0.2777 -1.3464 0.9884
2.5801 -0.0015 -1.3385 0.9884
2.5812 0.1823 -1.3424 0.9884
2.5823 0.2749 -1.3472 0.9884
2.5867 0.4630 -1.3633 0.9882
4.7326 1.1994 -2.5327 0.9782
4.6861 1.3665 -2.5323 0.9782
4.5753 1.6952 -2.5313 0.9783
4.1065 2.6209 -2.5273 0.9783
3.9076 2.9041 -2.5257 0.9783
3.8007 3.0402 -2.5249 0.9783
3.6890 3.1722 -2.5240 0.9783
4.0601 -2.2082 -2.5314 0.9791
4.1367 -2.0628 -2.5317 0.9791
4.3343 -1.6115 -2.5326 0.9791
4.3892 -1.4566 -2.5329 0.9791
2.5537 -0.5545 -1.4313 0.9882
2.5562 -0.4606 -1.4226 0.9882
2.5582 -0.3676 -1.4155 0.9883
2.5590 -0.2754 -1.4097 0.9883
2.5594 -0.1837 -1.4054 0.9884
2.6049 0.5625 -1.4596 0.9879
4.3863 1.4501 -2.5302 0.9792
4.3311 1.6047 -2.5297 0.9792
4.2704 1.7572 -2.5292 0.9792
4.2043 1.9074 -2.5286 0.9792
4.0563 2.2001 -2.5274 0.9792
3.9745 2.3422 -2.5267 0.9792
3.8877 2.4812 -2.5260 0.9792
3.6898 -2.3609 -2.5290 0.9800
3.7720 -2.2287 -2.5295 0.9800
3.8494 -2.0936 -2.5299 0.9800
3.9219 -1.9557 -2.5302 0.9800
3.9894 -1.8154 -2.5305 0.9800
4.0519 -1.6727 -2.5308 0.9800
4.1091 -1.5278 -2.5311 0.9800
4.1612 -1.3809 -2.5313 0.9800
2.5427 -0.6475 -1.5149 0.9880
2.5375 -0.3647 -1.4801 0.9882
2.5361 -0.2729 -1.4727 0.9883
2.5368 -0.1821 -1.4684 0.9883
2.5369 -0.0917 -1.4657 0.9883
2.5371 -0.0015 -1.4648 0.9884
2.5367 0.0887 -1.4655 0.9883
2.5374 0.1792 -1.4686 0.9883
2.5337 0.4535 -1.4861 0.9882
4.2472 1.0764 -2.5296 0.9800
4.1586 1.3748 -2.5288 0.9800
4.1064 1.5214 -2.5283 0.9800
4.0489 1.6660 -2.5278 0.9800
3.9863 1.8085 -2.5272 0.9800
3.8460 2.0860 -2.5261 0.9800
3.7685 2.2208 -2.5254 0.9800
3.6863 2.3527 -2.5248 0.9800
3.5993 2.4815 -2.5241 0.9800
3.4120 2.7293 -2.5226 0.9800
