ply
format ascii 1.0
element vertex 1109
property float32 x
property float32 y
property float32 z
property float32 I
end_header
44.5413 -20.9059 8.6759 0.8189
43.5620 -18.5762 8.3504 0.8250
44.9994 -17.3155 8.5018 0.8221
45.5771 -15.6916 8.4995 0.8222
46.5626 -12.3901 8.4959 0.8223
46.9693 -10.7163 8.4948 0.8223
47.8532 -7.3699 8.5373 0.8215
47.8715 -5.6293 8.4992 0.8222
48.1260 -2.1936 8.4947 0.8223
48.1802 -0.4720 8.4959 0.8223
45.5394 1.1824 8.0325 0.8311
47.9864 4.6919 8.5017 0.8221
48.0190 8.1920 8.5894 0.8205
47.2595 9.8127 8.5109 0.8220
46.4805 13.1763 8.5187 0.8218
43.9281 15.9226 8.2388 0.8271
31.3337 24.7998 7.0461 0.8502
2.6209 7.6711 1.4294 0.9676
46.4518 -15.9928 7.5261 0.8197
46.4697 -14.1624 7.4422 0.8215
46.4875 -12.3702 7.3695 0.8231
46.5052 -10.6104 7.3074 0.8245
46.5926 -2.1237 7.1451 0.8280
46.6102 -0.4565 7.1408 0.8281
46.6828 6.2561 7.2155 0.8265
46.7017 7.9673 7.2578 0.8255
46.7211 9.7009 7.3101 0.8244
46.7408 11.4620 7.3726 0.8230
46.7612 13.2559 7.4458 0.8215
31.5167 -37.1972 6.3488 0.8215
31.4612 -32.1595 5.8585 0.8340
31.3922 -25.8623 5.2965 0.8487
34.8424 -24.7485 5.5653 0.8416
46.3166 -15.9462 6.3788 0.8207
46.3356 -14.1215 6.3079 0.8225
46.3725 -10.5802 6.1938 0.8254
48.5952 -7.4841 6.4027 0.8201
48.6138 -5.7166 6.3741 0.8208
48.6323 -3.9626 6.3539 0.8213
48.6508 -2.2175 6.3419 0.8216
48.6878 1.2642 6.3423 0.8216
48.7064 3.0096 6.3547 0.8213
48.7252 4.7642 6.3753 0.8208
48.7442 6.5324 6.4043 0.8201
46.6462 15.0443 6.3824 0.8206
31.4545 -32.1526 4.8300 0.8345
31.4301 -29.9098 4.6590 0.8398
31.4074 -27.8179 4.5052 0.8447
31.3861 -25.8573 4.3667 0.8491
31.9182 -24.4340 4.3164 0.8507
34.8420 -24.7483 4.5892 0.8420
38.1650 -25.1056 4.9054 0.8321
41.9849 -25.5163 5.2757 0.8207
2.6208 7.6710 0.8705 0.9679
31.4739 -34.5618 3.9571 0.8289
31.4478 -32.1457 3.8068 0.8348
31.4011 -27.8124 3.5509 0.8450
31.3801 -25.8523 3.4418 0.8494
34.8418 -24.7481 3.6178 0.8424
38.1646 -25.1054 3.8671 0.8325
47.1857 15.2182 4.1970 0.8195
2.6208 7.6710 0.6862 0.9680
31.4669 -34.5542 2.8980 0.8292
31.4411 -32.1389 2.7880 0.8351
31.4172 -29.8976 2.6893 0.8405
31.3949 -27.8069 2.6006 0.8453
38.1643 -25.1052 2.8327 0.8327
41.9842 -25.5159 3.0466 0.8213
2.6208 7.6710 0.5027 0.9680
31.4877 -37.1629 1.9206 0.8228
31.4600 -34.5466 1.8424 0.8294
31.4345 -32.1321 1.7725 0.8353
31.3887 -27.8014 1.6534 0.8455
31.3681 -25.8424 1.6026 0.8499
31.9174 -24.4334 1.5850 0.8514
38.1639 -25.1049 1.8013 0.8329
2.6208 7.6710 0.3196 0.9681
31.4804 -37.1544 0.8227 0.8230
31.4278 -32.1253 0.7591 0.8354
31.3825 -27.7959 0.7081 0.8456
31.3621 -25.8374 0.6864 0.8500
41.9834 -25.5154 0.8299 0.8216
44.3496 -20.8160 0.8276 0.8220
45.2092 14.5808 0.8024 0.8269
44.7433 16.2180 0.8039 0.8266
31.4462 -34.5314 -0.2630 0.8296
31.4212 -32.1185 -0.2530 0.8355
31.3764 -27.7905 -0.2360 0.8456
31.3561 -25.8325 -0.2287 0.8500
34.8406 -24.7473 -0.2406 0.8429
38.1633 -25.1045 -0.2572 0.8330
41.9830 -25.5151 -0.2766 0.8216
44.3425 -20.8126 -0.2758 0.8221
44.5424 -2.0303 -0.2510 0.8366
17.1113 -42.7003 -1.2953 0.8319
31.4661 -37.1374 -1.3705 0.8230
31.4393 -34.5239 -1.3148 0.8296
31.4146 -32.1117 -1.2649 0.8355
31.9168 -24.4328 -1.1318 0.8514
34.8404 -24.7471 -1.2033 0.8428
37.7087 -17.6990 -1.1729 0.8465
37.7226 -14.5155 -1.1381 0.8507
37.7293 -12.9897 -1.1236 0.8524
37.7357 -11.5006 -1.1108 0.8540
37.7421 -10.0430 -1.0997 0.8553
37.7603 -5.8155 -1.0758 0.8582
37.7662 -4.4411 -1.0707 0.8588
37.7455 -3.0756 -1.0664 0.8594
37.7838 -0.3701 -1.0640 0.8597
37.7896 0.9812 -1.0644 0.8596
37.8129 6.4509 -1.0801 0.8577
37.8189 7.8525 -1.0876 0.8568
37.8250 9.2756 -1.0966 0.8557
37.8311 10.7244 -1.1072 0.8544
37.8438 13.7172 -1.1334 0.8512
37.8503 15.2714 -1.1493 0.8493
37.8571 16.8717 -1.1670 0.8472
37.9032 27.8551 -1.3245 0.8284
37.9121 30.0065 -1.3614 0.8241
37.9216 32.2844 -1.4023 0.8193
18.7014 -42.2300 -2.3423 0.8311
31.4589 -37.1289 -2.4679 0.8229
31.3852 -29.8671 -2.1972 0.8407
34.8401 -24.7469 -2.1673 0.8427
38.1626 -25.1041 -2.3166 0.8328
41.9822 -25.5147 -2.4915 0.8214
37.7026 -17.6962 -2.1122 0.8464
37.7300 -11.4988 -2.0003 0.8539
37.7487 -7.2036 -1.9489 0.8573
37.7547 -5.8146 -1.9373 0.8581
37.7607 -4.4404 -1.9282 0.8587
37.7725 -1.7217 -1.9176 0.8595
37.7783 -0.3701 -1.9160 0.8596
37.7841 0.9810 -1.9168 0.8595
37.7956 3.6955 -1.9259 0.8589
37.8073 6.4499 -1.9451 0.8576
37.8193 9.2742 -1.9748 0.8556
37.8315 12.2014 -2.0159 0.8528
37.8379 13.7151 -2.0411 0.8511
37.8510 16.8690 -2.1016 0.8471
37.8579 18.5215 -2.1374 0.8447
37.8650 20.2334 -2.1773 0.8420
37.8800 23.8684 -2.2706 0.8358
37.8880 25.8103 -2.3249 0.8323
37.8963 27.8501 -2.3851 0.8283
9.1521 48.5810 -2.5071 0.8204
7.3709 48.6216 -2.4940 0.8212
3.8473 48.6330 -2.4741 0.8225
7.0676 -34.4464 -2.5783 0.8685
12.0505 -33.4918 -2.6098 0.8670
13.2789 -33.1366 -2.6175 0.8666
18.0670 -31.2532 -2.6469 0.8652
20.3595 -30.0385 -2.6607 0.8646
21.4737 -29.3647 -2.6674 0.8642
22.5641 -28.6474 -2.6738 0.8639
23.6287 -27.8875 -2.6801 0.8636
24.6659 -27.0859 -2.6861 0.8634
25.6737 -26.2434 -2.6919 0.8631
27.5943 -24.4406 -2.7028 0.8626
29.3767 -22.4883 -2.7126 0.8621
29.5005 -20.9542 -2.6532 0.8649
29.4914 -19.4000 -2.5883 0.8680
29.8288 -18.1284 -2.5594 0.8694
31.7142 -14.8854 -2.5687 0.8689
33.9823 -9.0426 -2.5784 0.8685
34.2967 -7.8250 -2.5793 0.8684
34.5633 -6.5957 -2.5800 0.8684
34.7814 -5.3567 -2.5803 0.8684
34.9508 -4.1100 -2.5803 0.8684
35.1639 -0.3444 -2.5784 0.8685
35.1362 0.9123 -2.5771 0.8685
34.9337 3.4157 -2.5736 0.8687
34.7593 4.6582 -2.5714 0.8688
34.2662 7.1149 -2.5661 0.8690
33.1749 10.6995 -2.5558 0.8695
32.7204 11.8601 -2.5519 0.8697
32.2220 13.0006 -2.5476 0.8699
31.6807 14.1191 -2.5431 0.8701
31.0977 15.2141 -2.5384 0.8704
29.8109 17.3272 -2.5282 0.8708
28.9195 21.2530 -2.6315 0.8659
27.6344 23.5264 -2.6610 0.8645
26.7072 24.4364 -2.6542 0.8649
25.7486 25.3087 -2.6472 0.8652
24.7605 26.1422 -2.6401 0.8655
22.7023 27.6892 -2.6254 0.8662
19.4361 29.6985 -2.6024 0.8673
18.3067 30.2828 -2.5946 0.8677
17.1600 30.8235 -2.5867 0.8681
15.9977 31.3203 -2.5787 0.8684
14.8216 31.7729 -2.5707 0.8688
12.4350 32.5446 -2.5545 0.8696
2.6208 7.6709 -0.5944 0.9680
10.0140 33.1380 -2.5383 0.8704
4.8106 31.7330 -2.3533 0.8792
3.6616 31.7831 -2.3458 0.8796
5.0329 -24.5295 -2.4040 0.9043
5.9203 -24.3910 -2.4096 0.9041
8.1814 -25.5735 -2.5778 0.8977
9.1109 -25.3217 -2.5836 0.8975
10.0324 -25.0352 -2.5893 0.8973
12.7361 -23.9702 -2.6059 0.8967
15.3200 -22.6033 -2.6215 0.8961
16.1485 -22.0826 -2.6264 0.8959
16.9583 -21.5303 -2.6312 0.8957
17.7481 -20.9470 -2.6358 0.8955
18.5168 -20.3335 -2.6403 0.8954
19.2630 -19.6905 -2.6445 0.8952
19.9854 -19.0188 -2.6486 0.8951
21.3546 -17.5928 -2.6563 0.8948
21.9990 -16.8406 -2.6598 0.8946
22.6151 -16.0635 -2.6631 0.8945
23.7584 -14.4391 -2.6691 0.8943
24.2836 -13.5942 -2.6718 0.8942
25.6629 -10.9435 -2.6784 0.8939
26.0546 -10.0257 -2.6802 0.8939
26.4111 -9.0930 -2.6817 0.8938
27.0160 -7.1889 -2.6839 0.8937
27.2634 -6.2203 -2.6847 0.8937
27.6460 -4.2578 -2.6854 0.8937
27.7806 -3.2668 -2.6855 0.8937
27.8771 -2.2715 -2.6852 0.8937
27.9552 -0.2738 -2.6840 0.8937
27.4823 4.6885 -2.6766 0.8940
27.0302 6.6285 -2.6719 0.8942
26.7494 7.5829 -2.6693 0.8943
26.4326 8.5250 -2.6664 0.8944
26.0807 9.4535 -2.6633 0.8945
25.2737 11.2637 -2.6565 0.8948
24.8202 12.1429 -2.6527 0.8949
23.8171 13.8434 -2.6447 0.8952
22.6922 15.4585 -2.6360 0.8955
22.0865 16.2314 -2.6314 0.8957
21.4532 16.9796 -2.6267 0.8959
20.1087 18.3989 -2.6167 0.8963
17.9137 20.3214 -2.6008 0.8969
17.1393 20.9042 -2.5952 0.8971
15.5336 21.9787 -2.5839 0.8975
13.8606 22.9281 -2.5722 0.8979
13.0021 23.3548 -2.5662 0.8982
12.1304 23.7490 -2.5602 0.8984
11.2471 24.1103 -2.5542 0.8986
10.3534 24.4386 -2.5481 0.8988
9.4504 24.7335 -2.5420 0.8991
7.6222 25.2229 -2.5297 0.8995
5.4208 24.0200 -2.3640 0.9058
4.5476 24.1393 -2.3583 0.9060
3.6728 24.2272 -2.3525 0.9062
2.8022 24.3242 -2.3507 0.9063
1.9318 24.4198 -2.3518 0.9063
4.2295 -20.6139 -2.4997 0.9187
5.0705 -20.8898 -2.5535 0.9171
5.8248 -20.7338 -2.5582 0.9169
6.5743 -20.5500 -2.5629 0.9168
8.0546 -20.0998 -2.5721 0.9165
8.7833 -19.8337 -2.5766 0.9163
10.2124 -19.2204 -2.5854 0.9161
10.9108 -18.8739 -2.5896 0.9159
11.5969 -18.5013 -2.5937 0.9158
12.2698 -18.1029 -2.5978 0.9157
13.5719 -17.2309 -2.6054 0.9154
14.1990 -16.7582 -2.6091 0.9153
14.8090 -16.2619 -2.6126 0.9152
15.4007 -15.7425 -2.6160 0.9151
15.9734 -15.2008 -2.6193 0.9150
16.5261 -14.6373 -2.6224 0.9149
17.0578 -14.0530 -2.6253 0.9148
17.5679 -13.4485 -2.6281 0.9147
18.0553 -12.8247 -2.6307 0.9147
20.1280 -9.4473 -2.6412 0.9143
20.4649 -8.7269 -2.6427 0.9143
21.0564 -7.2494 -2.6453 0.9142
21.3100 -6.4946 -2.6463 0.9142
21.5350 -5.7304 -2.6471 0.9141
21.7309 -4.9580 -2.6477 0.9141
22.2665 -1.0149 -2.6477 0.9141
22.2706 0.5782 -2.6463 0.9142
22.0514 2.9552 -2.6428 0.9143
21.7569 4.5175 -2.6395 0.9144
21.5659 5.2885 -2.6376 0.9144
21.0980 6.8045 -2.6333 0.9146
20.8220 7.5473 -2.6308 0.9147
19.8314 9.7023 -2.6225 0.9149
19.4490 10.3927 -2.6194 0.9150
18.6096 11.7260 -2.6128 0.9152
18.1541 12.3671 -2.6093 0.9153
16.6533 14.1777 -2.5980 0.9157
15.5489 15.2832 -2.5898 0.9159
14.9682 15.8034 -2.5856 0.9161
13.1229 17.2265 -2.5724 0.9165
11.8162 18.0552 -2.5632 0.9168
11.1427 18.4321 -2.5585 0.9169
10.4572 18.7837 -2.5537 0.9170
9.0541 19.4092 -2.5441 0.9173
2.6208 7.6709 -0.9629 0.9679
5.0764 19.2601 -2.3660 0.9229
4.3761 19.3910 -2.3613 0.9230
2.9717 19.6023 -2.3551 0.9232
2.2688 19.6939 -2.3548 0.9233
1.5606 19.7276 -2.3507 0.9234
4.2369 -17.4554 -2.5451 0.9300
5.4901 -17.1610 -2.5529 0.9298
9.0958 -15.7343 -2.5751 0.9292
10.2234 -15.0836 -2.5818 0.9290
11.8223 -13.9531 -2.5912 0.9288
12.3273 -13.5367 -2.5941 0.9287
12.8171 -13.1016 -2.5969 0.9286
13.2910 -12.6481 -2.5996 0.9286
13.7481 -12.1768 -2.6022 0.9285
14.1878 -11.6885 -2.6046 0.9284
14.6094 -11.1837 -2.6069 0.9284
15.0122 -10.6632 -2.6090 0.9283
15.3957 -10.1276 -2.6111 0.9283
15.7592 -9.5777 -2.6129 0.9282
16.4241 -8.4379 -2.6163 0.9281
16.7244 -7.8498 -2.6177 0.9281
17.2583 -6.6409 -2.6201 0.9280
18.1867 -3.4706 -2.6234 0.9279
18.3003 -2.8184 -2.6235 0.9279
18.4538 -1.5036 -2.6234 0.9279
18.4935 -0.8429 -2.6230 0.9279
18.5084 -0.1813 -2.6226 0.9280
18.4638 1.1409 -2.6211 0.9280
18.4046 1.7995 -2.6202 0.9280
18.3206 2.4552 -2.6190 0.9280
17.5392 5.6567 -2.6112 0.9283
17.0629 6.8844 -2.6070 0.9284
15.8470 9.2108 -2.5971 0.9286
14.7202 10.8179 -2.5884 0.9289
13.8756 11.8129 -2.5820 0.9290
13.3839 12.2460 -2.5704 0.9293
12.4815 13.1780 -2.5718 0.9293
11.4756 13.9967 -2.5645 0.9295
10.9521 14.3768 -2.5608 0.9296
10.4157 14.7372 -2.5570 0.9297
9.8673 15.0774 -2.5531 0.9298
8.1584 15.9724 -2.5412 0.9301
7.5701 16.2280 -2.5372 0.9302
6.9740 16.4617 -2.5331 0.9303
6.3708 16.6735 -2.5290 0.9304
2.6207 7.6708 -1.1486 0.9678
3.0811 16.3551 -2.3581 0.9350
1.9010 16.5007 -2.3534 0.9351
1.3080 16.5337 -2.3500 0.9352
3.6354 -14.9772 -2.5390 0.9394
6.7925 -13.9671 -2.5586 0.9390
7.2961 -13.7318 -2.5617 0.9389
8.2776 -13.2058 -2.5676 0.9388
8.7540 -12.9157 -2.5704 0.9387
9.2200 -12.6080 -2.5732 0.9386
9.6748 -12.2831 -2.5758 0.9386
10.1178 -11.9414 -2.5784 0.9385
10.5483 -11.5832 -2.5809 0.9385
11.3694 -10.8195 -2.5855 0.9384
12.1333 -9.9959 -2.5898 0.9383
12.8352 -9.1168 -2.5936 0.9382
13.4709 -8.1869 -2.5969 0.9381
13.7627 -7.7045 -2.5983 0.9381
14.0366 -7.2114 -2.5997 0.9380
14.2921 -6.7081 -2.6009 0.9380
14.5288 -6.1956 -2.6020 0.9380
14.9446 -5.1452 -2.6038 0.9379
15.1229 -4.6089 -2.6045 0.9379
15.4193 -3.5180 -2.6054 0.9379
15.5368 -2.9649 -2.6057 0.9379
15.6338 -2.4078 -2.6059 0.9379
15.7099 -1.8474 -2.6059 0.9379
15.7992 -0.7201 -2.6055 0.9379
15.8124 -0.1549 -2.6050 0.9379
15.8045 0.4104 -2.6045 0.9379
15.5635 2.6551 -2.6010 0.9380
15.4515 3.2083 -2.5998 0.9380
14.8017 5.3651 -2.5937 0.9382
13.8430 7.3971 -2.5857 0.9384
12.9358 8.8122 -2.5785 0.9385
11.4993 10.5216 -2.5677 0.9388
10.2709 11.6514 -2.5587 0.9390
9.8067 11.9609 -2.5481 0.9392
9.3612 12.2885 -2.5449 0.9393
8.9310 12.6366 -2.5492 0.9392
8.4627 12.9310 -2.5459 0.9393
7.9845 13.2079 -2.5425 0.9394
7.4972 13.4669 -2.5391 0.9394
6.4982 13.9302 -2.5323 0.9396
5.9879 14.1341 -2.5288 0.9397
4.1524 13.7411 -2.3648 0.9435
3.1541 13.9763 -2.3603 0.9436
2.1430 14.1362 -2.3554 0.9437
1.1247 14.2169 -2.3494 0.9438
2.7069 -13.1928 -2.5314 0.9467
3.1805 -13.1031 -2.5344 0.9466
5.0385 -12.5733 -2.5460 0.9464
5.4907 -12.3987 -2.5488 0.9463
6.3760 -12.0001 -2.5542 0.9462
6.8078 -11.7765 -2.5568 0.9461
7.6468 -11.2821 -2.5618 0.9460
8.0527 -11.0118 -2.5642 0.9460
8.8346 -10.4269 -2.5687 0.9459
9.2094 -10.1129 -2.5709 0.9459
9.5727 -9.7851 -2.5730 0.9458
10.5885 -8.7233 -2.5786 0.9457
10.9007 -8.3447 -2.5803 0.9457
11.4827 -7.5536 -2.5834 0.9456
12.0055 -6.7208 -2.5861 0.9455
12.6715 -5.4035 -2.5893 0.9455
12.8606 -4.9487 -2.5901 0.9455
13.0329 -4.4871 -2.5908 0.9454
13.4458 -3.0677 -2.5922 0.9454
13.6325 -2.0996 -2.5926 0.9454
13.6989 -1.6109 -2.5926 0.9454
13.7471 -1.1201 -2.5925 0.9454
13.7771 -0.6280 -2.5922 0.9454
13.7889 -0.1351 -2.5919 0.9454
13.7824 0.3579 -2.5914 0.9454
13.7576 0.8501 -2.5908 0.9454
13.7147 1.3410 -2.5901 0.9455
13.6537 1.8298 -2.5893 0.9455
13.5746 2.3158 -2.5884 0.9455
13.4777 2.7984 -2.5873 0.9455
13.3630 3.2769 -2.5861 0.9455
13.0813 4.2190 -2.5835 0.9456
12.7313 5.1367 -2.5804 0.9457
12.5313 5.5848 -2.5787 0.9457
12.0830 6.4567 -2.5751 0.9458
11.2951 7.6945 -2.5689 0.9459
11.0033 8.0863 -2.5666 0.9459
10.6975 8.4668 -2.5643 0.9460
10.3784 8.8356 -2.5619 0.9460
10.0462 9.1920 -2.5594 0.9461
9.7015 9.5358 -2.5569 0.9461
9.3450 9.8664 -2.5543 0.9462
8.2087 10.7756 -2.5461 0.9464
7.8096 11.0498 -2.5433 0.9464
6.9842 11.5531 -2.5375 0.9465
6.5591 11.7816 -2.5345 0.9466
5.3406 11.4486 -2.3745 0.9499
3.2029 12.1517 -2.3621 0.9501
2.7634 12.2450 -2.3595 0.9502
2.3214 12.3224 -2.3569 0.9502
0.9855 12.4577 -2.3489 0.9504
2.4039 -11.7161 -2.5281 0.9523
3.2415 -11.5384 -2.5334 0.9522
3.6557 -11.4269 -2.5360 0.9521
4.4716 -11.1587 -2.5411 0.9520
6.0390 -10.4466 -2.5506 0.9519
6.4142 -10.2330 -2.5529 0.9518
7.1410 -9.7651 -2.5572 0.9517
7.8328 -9.2445 -2.5612 0.9517
8.1643 -8.9653 -2.5631 0.9516
8.4856 -8.6739 -2.5649 0.9516
9.6596 -7.3946 -2.5714 0.9515
9.9232 -7.0484 -2.5729 0.9515
10.1740 -6.6926 -2.5742 0.9514
10.4117 -6.3277 -2.5754 0.9514
10.6359 -5.9541 -2.5765 0.9514
10.8463 -5.5723 -2.5776 0.9514
11.2243 -4.7864 -2.5793 0.9513
11.3915 -4.3834 -2.5800 0.9513
11.6808 -3.5599 -2.5812 0.9513
11.9087 -2.7170 -2.5819 0.9513
11.9992 -2.2898 -2.5822 0.9513
12.1327 -1.4267 -2.5823 0.9513
12.1754 -0.9921 -2.5822 0.9513
12.2021 -0.5562 -2.5820 0.9513
12.2127 -0.1196 -2.5816 0.9513
12.1480 1.1878 -2.5801 0.9513
12.0944 1.6208 -2.5794 0.9513
11.8386 2.9031 -2.5766 0.9514
11.7221 3.3230 -2.5755 0.9514
11.4435 4.1479 -2.5729 0.9515
11.2817 4.5518 -2.5715 0.9515
10.7098 5.7229 -2.5668 0.9516
10.4913 6.0979 -2.5650 0.9516
10.0142 6.8219 -2.5613 0.9517
8.6059 8.4588 -2.5507 0.9519
8.2905 8.7531 -2.5484 0.9519
6.9317 9.8078 -2.5387 0.9521
5.4694 9.8242 -2.3768 0.9551
5.1093 10.0030 -2.3743 0.9551
4.7434 10.1684 -2.3718 0.9552
3.9962 10.4588 -2.3667 0.9553
2.8459 10.7973 -2.3603 0.9554
2.0632 10.9517 -2.3557 0.9555
1.6687 11.0076 -2.3534 0.9555
1.2729 11.0493 -2.3510 0.9555
2.1598 -10.5265 -2.5255 0.9568
3.2835 -10.2634 -2.5326 0.9567
4.0155 -10.0205 -2.5371 0.9566
4.3749 -9.8792 -2.5393 0.9566
4.7293 -9.7248 -2.5415 0.9565
5.0782 -9.5574 -2.5436 0.9565
5.4210 -9.3774 -2.5457 0.9565
6.0866 -8.9801 -2.5496 0.9564
7.3250 -8.0437 -2.5569 0.9563
7.6128 -7.7817 -2.5585 0.9563
7.8909 -7.5092 -2.5601 0.9562
8.1590 -7.2265 -2.5616 0.9562
9.1241 -6.0020 -2.5667 0.9561
9.5375 -5.3392 -2.5689 0.9561
9.9013 -4.6473 -2.5706 0.9561
10.0640 -4.2916 -2.5714 0.9560
10.2136 -3.9301 -2.5720 0.9560
10.4725 -3.1917 -2.5730 0.9560
10.6765 -2.4359 -2.5737 0.9560
10.7575 -2.0529 -2.5739 0.9560
10.8245 -1.6671 -2.5740 0.9560
10.8771 -1.2791 -2.5740 0.9560
10.9445 0.2842 -2.5731 0.9560
10.9253 0.6751 -2.5726 0.9560
10.8918 1.0650 -2.5720 0.9560
10.7821 1.8394 -2.5706 0.9561
10.7060 2.2229 -2.5698 0.9561
10.5119 2.9799 -2.5679 0.9561
10.3943 3.3524 -2.5668 0.9561
10.2631 3.7201 -2.5656 0.9561
9.7906 4.7899 -2.5616 0.9562
9.6075 5.1338 -2.5601 0.9562
9.4121 5.4707 -2.5586 0.9563
9.2047 5.7999 -2.5569 0.9563
8.9855 6.1211 -2.5552 0.9563
8.7548 6.4339 -2.5535 0.9563
8.5131 6.7379 -2.5516 0.9564
7.7251 7.5931 -2.5458 0.9565
7.4427 7.8580 -2.5437 0.9565
6.8507 8.3556 -2.5394 0.9566
5.5417 8.4678 -2.3784 0.9593
5.2307 8.6525 -2.3762 0.9593
4.9135 8.8258 -2.3740 0.9593
2.5580 9.7053 -2.3589 0.9596
2.2075 9.7819 -2.3568 0.9596
1.8549 9.8459 -2.3547 0.9597
1.5004 9.8972 -2.3526 0.9597
1.1446 9.9357 -2.3506 0.9597
2.6404 -9.3985 -2.5276 0.9605
3.3105 -9.2010 -2.5318 0.9604
4.6025 -8.6622 -2.5397 0.9603
5.2172 -8.3233 -2.5434 0.9602
5.5152 -8.1372 -2.5452 0.9602
5.8065 -7.9402 -2.5469 0.9602
6.0906 -7.7326 -2.5486 0.9601
6.3671 -7.5147 -2.5502 0.9601
6.6357 -7.2867 -2.5517 0.9601
7.1474 -6.8017 -2.5546 0.9601
8.0596 -5.7247 -2.5596 0.9600
8.2625 -5.4352 -2.5607 0.9600
8.4547 -5.1383 -2.5616 0.9599
8.6360 -4.8346 -2.5626 0.9599
8.8062 -4.5242 -2.5634 0.9599
9.2472 -3.5583 -2.5654 0.9599
9.3704 -3.2261 -2.5659 0.9599
9.6657 -2.2053 -2.5669 0.9599
9.7390 -1.8585 -2.5671 0.9599
9.7996 -1.5092 -2.5672 0.9599
3.8860 -0.4570 -1.0131 0.9840
3.8470 -0.0377 -0.9961 0.9842
3.8476 0.0999 -0.9965 0.9842
3.8487 0.2378 -0.9984 0.9842
3.9536 0.3866 -1.0286 0.9837
9.7624 1.6655 -2.5642 0.9599
9.6938 2.0128 -2.5634 0.9599
9.5188 2.6984 -2.5617 0.9599
9.4126 3.0357 -2.5607 0.9600
9.1638 3.6973 -2.5585 0.9600
9.0215 4.0206 -2.5573 0.9600
8.5258 4.9555 -2.5533 0.9601
8.1403 5.5454 -2.5503 0.9601
7.7135 6.1050 -2.5470 0.9602
6.7455 7.1219 -2.5398 0.9603
5.6440 7.9857 -2.5319 0.9604
5.0247 7.6777 -2.3758 0.9628
4.7430 7.8459 -2.3738 0.9628
4.1633 8.1509 -2.3698 0.9629
3.8659 8.2873 -2.3677 0.9629
3.2582 8.5273 -2.3636 0.9630
2.5611 7.4962 -2.0510 0.9678
2.3241 7.6909 -2.0802 0.9673
2.3208 8.8052 -2.3577 0.9631
2.0030 8.8755 -2.3558 0.9631
1.6831 8.9343 -2.3539 0.9631
1.0388 9.0168 -2.3501 0.9632
0.7151 9.0397 -2.3479 0.9632
1.7903 -8.7253 -2.5215 0.9636
2.7203 -8.5032 -2.5274 0.9636
3.0248 -8.4068 -2.5293 0.9635
4.2041 -7.9124 -2.5365 0.9634
5.5617 -7.0611 -2.5446 0.9633
6.0588 -6.6532 -2.5474 0.9633
6.2961 -6.4358 -2.5488 0.9633
6.5254 -6.2098 -2.5501 0.9632
6.7464 -5.9754 -2.5513 0.9632
6.9589 -5.7330 -2.5525 0.9632
7.1625 -5.4830 -2.5536 0.9632
7.3569 -5.2256 -2.5546 0.9632
7.5419 -4.9612 -2.5556 0.9632
7.8823 -4.4126 -2.5573 0.9631
8.0374 -4.1293 -2.5581 0.9631
8.1821 -3.8403 -2.5587 0.9631
8.4393 -3.2474 -2.5599 0.9631
8.5516 -2.9442 -2.5604 0.9631
8.8209 -2.0125 -2.5613 0.9631
3.5616 -0.2902 -1.0116 0.9853
3.5637 -0.1624 -1.0099 0.9853
3.5626 0.2201 -1.0105 0.9853
3.6419 0.3561 -1.0359 0.9849
8.9099 1.5200 -2.5588 0.9631
8.8475 1.8371 -2.5581 0.9631
8.7736 2.1515 -2.5573 0.9631
8.6883 2.4630 -2.5565 0.9632
8.4839 3.0752 -2.5546 0.9632
8.0955 3.9606 -2.5514 0.9632
7.4330 5.0635 -2.5461 0.9633
7.2431 5.3230 -2.5446 0.9633
6.8360 5.8198 -2.5416 0.9634
6.3945 6.2852 -2.5383 0.9634
5.9210 6.7169 -2.5348 0.9635
5.4183 7.1126 -2.5312 0.9635
4.8427 6.8520 -2.3753 0.9657
4.3342 7.1696 -2.3717 0.9658
3.5335 7.5747 -2.3662 0.9658
2.9366 7.6855 -2.3291 0.9664
2.5532 7.4732 -2.2357 0.9677
0.9499 8.2453 -2.3496 0.9661
0.6540 8.2669 -2.3476 0.9661
1.6467 -8.0258 -2.5200 0.9663
1.9339 -7.9676 -2.5218 0.9663
3.6004 -7.4034 -2.5321 0.9661
3.8652 -7.2746 -2.5337 0.9661
4.3804 -6.9884 -2.5368 0.9661
4.6301 -6.8313 -2.5383 0.9661
5.7863 -5.9147 -2.5450 0.9660
5.9968 -5.7067 -2.5462 0.9659
6.1997 -5.4912 -2.5473 0.9659
6.5815 -5.0383 -2.5494 0.9659
6.7600 -4.8016 -2.5504 0.9659
6.9297 -4.5585 -2.5512 0.9659
7.0905 -4.3093 -2.5521 0.9659
7.2422 -4.0543 -2.5528 0.9659
7.3845 -3.7938 -2.5535 0.9659
7.6402 -3.2580 -2.5547 0.9658
7.8563 -2.7048 -2.5556 0.9658
7.9491 -2.4226 -2.5560 0.9658
8.0315 -2.1371 -2.5563 0.9658
8.1035 -1.8488 -2.5565 0.9658
8.1648 -1.5581 -2.5566 0.9658
3.4060 -0.5246 -1.0600 0.9857
3.3469 -0.3936 -1.0365 0.9860
3.3536 -0.1529 -1.0326 0.9860
3.3544 -0.0329 -1.0318 0.9861
3.3944 0.3319 -1.0490 0.9858
8.1859 1.3965 -2.5542 0.9658
8.0611 1.9768 -2.5529 0.9659
7.9829 2.2630 -2.5521 0.9659
7.8944 2.5461 -2.5513 0.9659
7.6867 3.1014 -2.5495 0.9659
7.5680 3.3728 -2.5484 0.9659
7.4395 3.6396 -2.5474 0.9659
7.1539 4.1581 -2.5451 0.9660
6.9973 4.4090 -2.5438 0.9660
6.2839 5.3498 -2.5384 0.9661
6.0852 5.5678 -2.5369 0.9661
5.4440 6.1758 -2.5322 0.9661
4.2224 6.4518 -2.3716 0.9682
3.2504 6.9678 -2.3649 0.9683
2.7402 7.1716 -2.3614 0.9684
2.4803 7.2596 -2.3596 0.9684
1.6850 7.4665 -2.3543 0.9685
1.1457 7.5576 -2.3511 0.9685
0.6019 7.6084 -2.3475 0.9686
1.5229 -7.4224 -2.5187 0.9686
1.7884 -7.3682 -2.5203 0.9685
2.0520 -7.3043 -2.5220 0.9685
2.8276 -7.0561 -2.5268 0.9685
3.3285 -6.8443 -2.5299 0.9684
3.5732 -6.7249 -2.5314 0.9684
4.0490 -6.4597 -2.5342 0.9684
4.5050 -6.1605 -2.5369 0.9683
4.7248 -5.9986 -2.5382 0.9683
4.9386 -5.8287 -2.5394 0.9683
5.1462 -5.6511 -2.5406 0.9683
5.5416 -5.2736 -2.5429 0.9683
5.7289 -5.0742 -2.5439 0.9683
5.9089 -4.8681 -2.5449 0.9682
6.0814 -4.6554 -2.5458 0.9682
6.2461 -4.4366 -2.5467 0.9682
6.4028 -4.2119 -2.5475 0.9682
6.8225 -3.5051 -2.5496 0.9682
7.2579 -2.4988 -2.5516 0.9682
7.3436 -2.2381 -2.5519 0.9682
7.4197 -1.9743 -2.5522 0.9682
3.1779 -0.2589 -1.0598 0.9867
3.1797 -0.1449 -1.0581 0.9867
3.1804 0.0826 -1.0575 0.9867
3.1780 0.1964 -1.0584 0.9867
3.2634 0.4373 -1.0945 0.9862
7.5628 1.2902 -2.5502 0.9682
7.4477 1.8264 -2.5490 0.9682
7.3757 2.0909 -2.5483 0.9682
7.2941 2.3525 -2.5476 0.9682
7.1026 2.8657 -2.5459 0.9682
6.8745 3.3633 -2.5440 0.9683
6.7472 3.6054 -2.5429 0.9683
6.6111 3.8426 -2.5418 0.9683
6.3139 4.3012 -2.5395 0.9683
5.8083 4.9449 -2.5356 0.9684
5.0329 5.7094 -2.5299 0.9684
4.8227 5.8821 -2.5284 0.9684
3.6862 6.0976 -2.3685 0.9704
3.2368 6.3370 -2.3653 0.9705
3.0062 6.4443 -2.3637 0.9705
2.7720 6.5432 -2.3621 0.9705
2.0513 6.7883 -2.3572 0.9706
1.5589 6.9078 -2.3539 0.9706
2.1490 -6.7173 -2.5221 0.9705
2.3892 -6.6401 -2.5236 0.9705
2.6265 -6.5543 -2.5251 0.9704
3.0916 -6.3571 -2.5279 0.9704
3.3187 -6.2459 -2.5293 0.9704
3.5417 -6.1265 -2.5306 0.9704
3.7603 -5.9991 -2.5319 0.9704
3.9744 -5.8638 -2.5332 0.9704
4.1835 -5.7208 -2.5344 0.9703
4.3873 -5.5702 -2.5356 0.9703
4.5857 -5.4122 -2.5368 0.9703
4.7784 -5.2471 -2.5379 0.9703
4.9649 -5.0751 -2.5389 0.9703
5.1452 -4.8963 -2.5400 0.9703
5.9440 -3.9101 -2.5443 0.9702
6.0817 -3.6961 -2.5450 0.9702
6.4469 -3.0259 -2.5468 0.9702
6.5522 -2.7941 -2.5472 0.9702
6.7371 -2.3195 -2.5480 0.9702
6.8165 -2.0774 -2.5483 0.9702
6.8871 -1.8326 -2.5486 0.9702
6.9487 -1.5854 -2.5488 0.9702
3.0550 -0.4705 -1.1054 0.9870
3.0429 -0.3578 -1.0957 0.9871
3.0559 0.2988 -1.0980 0.9870
7.0204 1.1977 -2.5468 0.9702
6.6870 2.4238 -2.5436 0.9702
6.5940 2.6605 -2.5427 0.9702
6.2645 3.3475 -2.5400 0.9703
6.0044 3.7834 -2.5379 0.9703
5.7137 4.1990 -2.5357 0.9703
5.2237 4.7796 -2.5320 0.9704
4.8638 5.1352 -2.5293 0.9704
4.4796 5.4636 -2.5266 0.9704
3.6270 5.5420 -2.3686 0.9723
3.2179 5.7800 -2.3657 0.9723
3.0073 5.8877 -2.3642 0.9723
2.5757 6.0799 -2.3613 0.9723
2.1320 6.2404 -2.3582 0.9724
1.4489 6.4202 -2.3537 0.9724
1.2177 6.4637 -2.3521 0.9724
0.5177 6.5440 -2.3475 0.9725
1.3198 -6.4327 -2.5165 0.9723
1.5498 -6.3851 -2.5179 0.9722
1.7781 -6.3292 -2.5194 0.9722
2.0043 -6.2651 -2.5208 0.9722
2.6679 -6.0243 -2.5249 0.9722
3.3025 -5.7127 -2.5287 0.9721
3.5062 -5.5937 -2.5299 0.9721
3.7057 -5.4674 -2.5311 0.9721
3.9005 -5.3339 -2.5323 0.9721
4.2753 -5.0459 -2.5344 0.9721
4.4547 -4.8918 -2.5355 0.9721
4.9584 -4.3917 -2.5383 0.9720
5.1139 -4.2131 -2.5392 0.9720
5.4052 -3.8393 -2.5407 0.9720
5.5405 -3.6446 -2.5414 0.9720
5.6687 -3.4452 -2.5421 0.9720
5.7896 -3.2411 -2.5427 0.9720
6.1069 -2.6042 -2.5442 0.9720
6.4189 -1.7080 -2.5454 0.9719
6.4763 -1.4776 -2.5456 0.9719
2.9193 -0.4496 -1.1319 0.9874
2.9308 -0.0287 -1.1232 0.9875
2.9258 0.1808 -1.1234 0.9875
2.9249 0.2860 -1.1262 0.9875
3.6593 0.6243 -1.4226 0.9842
6.4443 1.5803 -2.5427 0.9720
6.3821 1.8092 -2.5421 0.9720
6.2332 2.2593 -2.5408 0.9720
6.1466 2.4800 -2.5400 0.9720
6.0521 2.6973 -2.5392 0.9720
5.5978 3.5272 -2.5355 0.9721
5.4659 3.7235 -2.5345 0.9721
4.8708 4.4566 -2.5300 0.9721
4.3592 4.9451 -2.5262 0.9722
4.1775 5.0951 -2.5249 0.9722
3.9906 5.2384 -2.5236 0.9722
3.7987 5.3748 -2.5222 0.9722
3.5638 5.4456 -2.4940 0.9725
3.1940 5.2836 -2.3660 0.9739
2.4028 5.6717 -2.3605 0.9740
2.1972 5.7505 -2.3591 0.9740
1.9891 5.8219 -2.3577 0.9740
1.7786 5.8857 -2.3563 0.9740
1.1362 6.0313 -2.3520 0.9741
0.9193 6.0644 -2.3505 0.9741
0.4831 6.1071 -2.3477 0.9741
1.2354 -6.0210 -2.5156 0.9738
1.8758 -5.8635 -2.5196 0.9737
2.2923 -5.7203 -2.5222 0.9737
2.6978 -5.5474 -2.5246 0.9737
3.0901 -5.3454 -2.5270 0.9737
3.2807 -5.2339 -2.5281 0.9737
3.8270 -4.8588 -2.5314 0.9736
3.9998 -4.7208 -2.5324 0.9736
4.3301 -4.4262 -2.5343 0.9736
4.4871 -4.2701 -2.5351 0.9736
4.6385 -4.1083 -2.5360 0.9736
4.9231 -3.7687 -2.5375 0.9736
5.0561 -3.5914 -2.5382 0.9736
5.1826 -3.4092 -2.5389 0.9735
5.7963 -2.2304 -2.5418 0.9735
5.8731 -2.0220 -2.5422 0.9735
2.8085 -0.3303 -1.1574 0.9879
2.8133 -0.2292 -1.1552 0.9879
2.8166 -0.1284 -1.1540 0.9879
2.8134 0.1738 -1.1536 0.9879
6.0780 1.2620 -2.5406 0.9735
5.8307 2.1134 -2.5383 0.9736
5.7498 2.3199 -2.5376 0.9736
5.5660 2.7231 -2.5360 0.9736
5.1137 3.4836 -2.5324 0.9736
4.9840 3.6627 -2.5314 0.9736
4.8479 3.8370 -2.5304 0.9736
4.5574 4.1700 -2.5282 0.9737
3.7345 4.9023 -2.5222 0.9737
3.5551 5.0301 -2.5209 0.9737
3.3712 5.1513 -2.5196 0.9737
2.8207 5.0666 -2.3733 0.9752
2.0568 5.3831 -2.3585 0.9754
1.6651 5.5101 -2.3559 0.9754
1.2657 5.6086 -2.3532 0.9755
1.0638 5.6470 -2.3518 0.9755
0.8608 5.6782 -2.3505 0.9755
1.1598 -5.6524 -2.5147 0.9751
1.5622 -5.5607 -2.5173 0.9751
1.9574 -5.4403 -2.5197 0.9751
2.3433 -5.2914 -2.5221 0.9751
2.5321 -5.2067 -2.5233 0.9751
2.7178 -5.1151 -2.5244 0.9750
2.9002 -5.0169 -2.5255 0.9750
3.0790 -4.9121 -2.5266 0.9750
3.2539 -4.8009 -2.5276 0.9750
3.5914 -4.5597 -2.5296 0.9750
3.9109 -4.2946 -2.5314 0.9750
4.0633 -4.1534 -2.5323 0.9750
4.2105 -4.0068 -2.5331 0.9750
4.3524 -3.8550 -2.5339 0.9749
4.6193 -3.5362 -2.5354 0.9749
4.8627 -3.1987 -2.5366 0.9749
4.9750 -3.0236 -2.5372 0.9749
5.0810 -2.8444 -2.5377 0.9749
5.1804 -2.6614 -2.5382 0.9749
5.2732 -2.4750 -2.5387 0.9749
5.3591 -2.2853 -2.5391 0.9749
5.4381 -2.0925 -2.5394 0.9749
5.5100 -1.8970 -2.5397 0.9749
5.6325 -1.4988 -2.5401 0.9749
2.7418 -0.6256 -1.2256 0.9878
2.7166 -0.3195 -1.1921 0.9881
2.7214 -0.2217 -1.1900 0.9882
2.7251 -0.0267 -1.1877 0.9882
2.7233 0.0707 -1.1873 0.9882
2.7211 0.1681 -1.1882 0.9882
2.7279 0.2667 -1.1945 0.9881
2.7311 0.3660 -1.2009 0.9880
2.7550 0.4700 -1.2180 0.9879
5.6554 1.3869 -2.5378 0.9749
5.6011 1.5878 -2.5372 0.9749
5.5395 1.7866 -2.5367 0.9749
5.4708 1.9830 -2.5360 0.9749
5.3123 2.3675 -2.5347 0.9749
5.2227 2.5551 -2.5339 0.9749
5.0236 2.9199 -2.5323 0.9750
4.7988 3.2691 -2.5306 0.9750
4.4162 3.7597 -2.5276 0.9750
4.1328 4.0622 -2.5255 0.9750
3.6693 4.4753 -2.5222 0.9751
2.9882 4.9431 -2.5173 0.9751
2.7982 5.0262 -2.5071 0.9752
2.2897 4.9083 -2.3604 0.9766
1.9311 5.0541 -2.3580 0.9767
1.7483 5.1172 -2.3567 0.9767
1.5635 5.1737 -2.3555 0.9767
1.1886 5.2666 -2.3530 0.9767
0.9990 5.3028 -2.3517 0.9767
0.8084 5.3323 -2.3504 0.9767
0.6169 5.3549 -2.3492 0.9768
0.4249 5.3706 -2.3479 0.9768
1.2817 -5.2804 -2.5152 0.9763
1.8422 -5.1200 -2.5187 0.9763
2.0249 -5.0531 -2.5198 0.9763
2.2053 -4.9797 -2.5209 0.9763
2.3829 -4.8998 -2.5220 0.9763
2.8973 -4.6222 -2.5251 0.9762
3.9614 -3.7698 -2.5313 0.9762
4.0949 -3.6269 -2.5320 0.9762
4.2231 -3.4791 -2.5327 0.9762
4.4631 -3.1701 -2.5340 0.9762
4.6803 -2.8444 -2.5351 0.9761
5.0413 -2.1498 -2.5369 0.9761
5.1833 -1.7845 -2.5375 0.9761
5.2442 -1.5983 -2.5377 0.9761
5.2984 -1.4099 -2.5379 0.9761
2.6418 -0.6028 -1.2543 0.9881
2.6313 -0.5021 -1.2400 0.9883
2.6414 -0.3106 -1.2311 0.9883
2.6462 -0.2156 -1.2290 0.9884
2.6500 -0.0260 -1.2267 0.9884
2.6447 0.1634 -1.2265 0.9884
2.6437 0.2585 -1.2296 0.9884
2.6467 0.4515 -1.2428 0.9882
5.3203 1.3047 -2.5357 0.9761
5.2693 1.4937 -2.5352 0.9761
4.9136 2.4039 -2.5321 0.9762
4.7265 2.7472 -2.5305 0.9762
4.6238 2.9135 -2.5297 0.9762
4.1554 3.5377 -2.5261 0.9762
3.6030 4.0873 -2.5221 0.9763
3.4531 4.2117 -2.5210 0.9763
3.2989 4.3305 -2.5199 0.9763
2.8125 4.6524 -2.5165 0.9763
2.6432 4.7477 -2.5153 0.9763
2.4705 4.8369 -2.5141 0.9763
2.2611 4.8471 -2.4758 0.9767
2.0347 4.8029 -2.4145 0.9773
1.8248 4.7759 -2.3666 0.9777
1.6458 4.8172 -2.3563 0.9778
1.4718 4.8705 -2.3552 0.9778
1.2961 4.9175 -2.3540 0.9778
1.1189 4.9582 -2.3528 0.9778
0.7611 5.0204 -2.3504 0.9779
1.0298 -5.0193 -2.5134 0.9774
1.2092 -4.9815 -2.5145 0.9774
1.7378 -4.8297 -2.5178 0.9774
1.9101 -4.7665 -2.5188 0.9774
2.5741 -4.4528 -2.5229 0.9773
2.7326 -4.3595 -2.5238 0.9773
2.8878 -4.2606 -2.5247 0.9773
3.1870 -4.0462 -2.5265 0.9773
3.4702 -3.8106 -2.5281 0.9773
3.8616 -3.4202 -2.5303 0.9773
4.0981 -3.1372 -2.5316 0.9773
4.2086 -2.9894 -2.5322 0.9773
4.3137 -2.8376 -2.5328 0.9773
4.5072 -2.5232 -2.5337 0.9772
4.6774 -2.1954 -2.5346 0.9772
4.7536 -2.0271 -2.5349 0.9772
2.6091 -0.5953 -1.3127 0.9881
2.6056 -0.4972 -1.3012 0.9883
2.6050 -0.4012 -1.2929 0.9883
2.6027 -0.2121 -1.2809 0.9884
2.6011 -0.1186 -1.2772 0.9885
2.6029 0.0676 -1.2772 0.9885
2.6041 0.1609 -1.2798 0.9884
2.6056 0.3492 -1.2895 0.9884
2.6131 0.4458 -1.3003 0.9883
2.7271 0.5662 -1.3662 0.9877
4.9687 1.4085 -2.5333 0.9773
4.8533 1.7592 -2.5322 0.9773
4.7130 2.1004 -2.5310 0.9773
4.5484 2.4305 -2.5297 0.9773
4.1504 3.0502 -2.5265 0.9773
3.9192 3.3366 -2.5248 0.9773
3.6681 3.6054 -2.5229 0.9773
3.5355 3.7328 -2.5220 0.9774
3.3985 3.8553 -2.5210 0.9774
2.6532 4.3889 -2.5157 0.9774
2.4935 4.4789 -2.5145 0.9774
2.3308 4.5631 -2.5134 0.9774
1.9970 4.7137 -2.5111 0.9775
1.8135 4.7461 -2.4922 0.9776
1.6155 4.7286 -2.4511 0.9780
0.8895 4.7217 -2.3569 0.9788
0.5481 4.7578 -2.3493 0.9789
1.1430 -4.7089 -2.5138 0.9784
1.3111 -4.6670 -2.5149 0.9784
2.1243 -4.3682 -2.5199 0.9783
2.4328 -4.2084 -2.5217 0.9783
2.7291 -4.0266 -2.5235 0.9783
3.2793 -3.6011 -2.5267 0.9783
3.7631 -3.1002 -2.5294 0.9783
4.0760 -2.6813 -2.5311 0.9783
4.4915 -1.9153 -2.5331 0.9782
4.6179 -1.5899 -2.5336 0.9782
4.6721 -1.4239 -2.5338 0.9782
2.5804 -0.4924 -1.3628 0.9882
2.5805 -0.2103 -1.3432 0.9884
2.5805 -0.0253 -1.3388 0.9884
2.5805 0.0670 -1.3391 0.9884
2.5814 0.1595 -1.3418 0.9884
2.5805 0.3458 -1.3507 0.9883
2.5812 0.4404 -1.3584 0.9883
4.2122 2.4482 -2.5275 0.9783
4.1208 2.5965 -2.5267 0.9783
4.0241 2.7413 -2.5260 0.9783
3.9223 2.8825 -2.5252 0.9783
3.5876 3.2826 -2.5227 0.9783
3.4668 3.4075 -2.5218 0.9783
3.3415 3.5280 -2.5209 0.9783
3.2121 3.6438 -2.5199 0.9783
3.0786 3.7548 -2.5190 0.9784
2.5079 4.1486 -2.5149 0.9784
1.7266 4.5187 -2.5095 0.9784
1.5633 4.5756 -2.5084 0.9784
1.2312 4.6714 -2.5062 0.9785
1.0583 4.6894 -2.4939 0.9786
0.7115 4.6932 -2.4626 0.9788
0.5408 4.6943 -2.4514 0.9789
0.9219 -4.4932 -2.5122 0.9793
1.0823 -4.4591 -2.5132 0.9793
1.5553 -4.3227 -2.5162 0.9793
1.7095 -4.2660 -2.5171 0.9793
2.0114 -4.1360 -2.5189 0.9792
2.4452 -3.9009 -2.5216 0.9792
2.5839 -3.8122 -2.5224 0.9792
2.9799 -3.5169 -2.5247 0.9792
3.1046 -3.4091 -2.5254 0.9792
3.2253 -3.2969 -2.5261 0.9792
3.3420 -3.1803 -2.5267 0.9792
3.4544 -3.0596 -2.5274 0.9792
3.5623 -2.9348 -2.5280 0.9792
3.6658 -2.8062 -2.5285 0.9792
3.9474 -2.3991 -2.5300 0.9792
4.1835 -1.9636 -2.5311 0.9791
4.3711 -1.5049 -2.5320 0.9791
4.4224 -1.3478 -2.5322 0.9791
2.5532 -0.5825 -1.4344 0.9881
2.5559 -0.4877 -1.4251 0.9882
2.5580 -0.3940 -1.4176 0.9883
2.5592 -0.3009 -1.4113 0.9883
2.5597 -0.2086 -1.4066 0.9884
2.5598 -0.0251 -1.4021 0.9884
2.5597 0.0665 -1.4024 0.9884
2.5592 0.1581 -1.4043 0.9884
2.5582 0.2501 -1.4078 0.9883
2.5554 0.3425 -1.4122 0.9883
2.5934 0.5385 -1.4507 0.9880
4.4871 1.1004 -2.5304 0.9791
4.4442 1.2598 -2.5300 0.9792
4.2813 1.7274 -2.5286 0.9792
3.9011 2.4581 -2.5254 0.9792
3.6124 2.8591 -2.5232 0.9792
3.5067 2.9855 -2.5224 0.9792
3.3967 3.1079 -2.5216 0.9792
3.0413 3.4501 -2.5190 0.9792
2.9149 3.5553 -2.5181 0.9793
2.7850 3.6559 -2.5172 0.9793
2.5148 3.8426 -2.5152 0.9793
2.3749 3.9285 -2.5142 0.9793
2.2321 4.0093 -2.5133 0.9793
1.9383 4.1551 -2.5112 0.9793
1.7878 4.2200 -2.5102 0.9793
1.6352 4.2795 -2.5091 0.9793
1.3241 4.3817 -2.5070 0.9793
0.8463 4.4925 -2.5038 0.9794
0.6849 4.5179 -2.5028 0.9794
0.8744 -4.2616 -2.5117 0.9801
1.0266 -4.2292 -2.5126 0.9801
1.1775 -4.1914 -2.5136 0.9801
1.6212 -4.0457 -2.5163 0.9801
1.7654 -3.9865 -2.5172 0.9801
2.0471 -3.8528 -2.5189 0.9801
2.1843 -3.7785 -2.5198 0.9800
2.3187 -3.6991 -2.5206 0.9800
2.4502 -3.6150 -2.5213 0.9800
2.5786 -3.5262 -2.5221 0.9800
3.1688 -3.0155 -2.5255 0.9800
3.3777 -2.7826 -2.5266 0.9800
3.4757 -2.6607 -2.5272 0.9800
3.5693 -2.5353 -2.5277 0.9800
3.6583 -2.4065 -2.5281 0.9800
3.8221 -2.1397 -2.5290 0.9800
3.9663 -1.8616 -2.5296 0.9800
4.0901 -1.5738 -2.5302 0.9800
2.6346 -0.8029 -1.5902 0.9874
2.5569 -0.6804 -1.5276 0.9879
2.5343 -0.5782 -1.5008 0.9881
2.5378 -0.3908 -1.4825 0.9882
2.5367 -0.2983 -1.4747 0.9883
2.5370 -0.2067 -1.4696 0.9883
2.5373 -0.1156 -1.4664 0.9883
2.5374 -0.0249 -1.4650 0.9883
2.5373 0.1568 -1.4677 0.9883
2.5341 0.4323 -1.4842 0.9882
2.5639 0.5324 -1.5118 0.9880
4.2136 1.1945 -2.5286 0.9800
4.1675 1.3441 -2.5281 0.9800
4.1160 1.4919 -2.5277 0.9800
3.9973 1.7815 -2.5267 0.9800
3.9302 1.9228 -2.5261 0.9800
3.8580 2.0616 -2.5255 0.9800
3.6124 2.4609 -2.5236 0.9800
3.3253 2.8310 -2.5214 0.9800
3.2210 2.9471 -2.5206 0.9800
2.7644 3.3717 -2.5173 0.9801
2.6412 3.4671 -2.5164 0.9801
2.2523 3.7258 -2.5136 0.9801
2.1170 3.8025 -2.5127 0.9801
1.9789 3.8743 -2.5117 0.9801
1.8385 3.9410 -2.5108 0.9801
1.4043 4.1104 -2.5078 0.9801
1.1062 4.1968 -2.5058 0.9802
0.9550 4.2320 -2.5048 0.9802
0.6497 4.2859 -2.5027 0.9802
0.3416 4.3179 -2.5007 0.9802
