ply
format ascii 1.0
element vertex 476
property float32 x
property float32 y
property float32 z
property float32 I
end_header
-37.1668 13.7191 6.9857 0.8514
-39.2875 12.9428 7.2937 0.8453
-42.9937 9.2599 7.7548 0.8364
-42.6049 7.6107 7.6313 0.8388
-22.4446 -7.3976 4.1670 0.9085
-21.3074 -8.7365 4.0606 0.9107
-40.7008 20.1506 6.9575 0.8321
-38.3736 15.7278 6.3532 0.8455
-44.5475 12.9485 7.1069 0.8288
-42.0831 10.6338 6.6495 0.8389
-40.0215 -7.1550 6.2283 0.8483
-37.7708 -9.5498 5.9684 0.8541
-21.8598 -8.0724 3.5698 0.9100
-20.3459 -8.3423 3.3687 0.9149
-42.3437 20.9639 6.1528 0.8265
-43.9449 19.8540 6.2795 0.8232
-44.2369 16.3289 6.1405 0.8268
-44.3849 14.6221 6.0854 0.8282
-43.1271 12.5357 5.8485 0.8343
-43.8996 11.0928 5.8963 0.8331
-39.5833 -7.0766 5.2363 0.8503
-37.6526 -9.5199 5.0574 0.8550
-22.2673 -6.4758 3.0198 0.9107
-37.0132 29.4396 5.0785 0.8267
-36.8817 27.2628 4.9250 0.8315
-45.8779 16.9346 5.2514 0.8214
-43.9185 12.7657 4.9112 0.8319
-39.4507 -7.0529 4.3034 0.8511
-37.7615 -9.5474 4.1825 0.8550
-22.2517 -6.4712 2.4884 0.9110
-20.0254 -8.2108 2.3241 0.9166
-35.8757 26.5192 3.7766 0.8360
-35.8089 24.5604 3.6758 0.8400
-38.1862 24.2513 3.8294 0.8339
-45.4311 14.9667 4.0492 0.8253
-22.1045 -7.2855 1.9702 0.9108
-21.6218 -7.9846 1.9512 0.9116
-35.5047 28.2398 2.8132 0.8338
-45.4116 14.9603 2.9649 0.8256
-38.7064 -6.9199 2.4382 0.8542
-21.8345 -7.1965 1.4256 0.9120
-21.7980 -8.0496 1.4409 0.9111
-30.4974 26.0699 1.5820 0.8516
-36.5441 23.2085 1.7070 0.8409
-39.2393 23.0146 1.7937 0.8335
-45.3929 14.9542 1.8845 0.8259
-38.6147 -6.9035 1.5468 0.8547
-38.3288 -8.2608 1.5460 0.8547
-21.3644 -7.8895 0.8980 0.9129
-20.8450 -8.5469 0.8883 0.9138
-28.9338 23.0134 0.6245 0.8625
-30.8344 22.7927 0.6477 0.8578
-33.2692 22.8185 0.6815 0.8510
-42.3711 22.8775 0.8134 0.8248
-38.4058 -8.2774 0.6636 0.8546
-22.4706 -7.4062 0.3997 0.9097
-7.6536 6.5426 -0.0567 0.9605
-8.2234 6.5408 -0.0592 0.9588
-8.8459 6.5390 -0.0619 0.9570
-9.5306 6.5369 -0.0651 0.9548
-10.9947 6.4487 -0.0718 0.9503
-12.1162 6.5420 -0.0775 0.9464
-14.4642 6.5349 -0.0894 0.9385
-19.7776 6.5156 -0.1172 0.9201
-22.3923 6.5088 -0.1313 0.9109
-30.0959 6.4821 -0.1733 0.8841
-36.1695 6.4612 -0.2069 0.8633
-21.7644 -8.0372 -0.1306 0.9114
-7.6537 6.5426 -0.2835 0.9605
-8.2235 6.5409 -0.2959 0.9588
-8.8460 6.5390 -0.3097 0.9569
-9.5307 6.5370 -0.3254 0.9548
-10.2894 6.5347 -0.3432 0.9524
-10.9948 6.4488 -0.3589 0.9503
-12.1163 6.5420 -0.3877 0.9464
-13.2071 6.5388 -0.4150 0.9427
-14.4644 6.5350 -0.4469 0.9385
-19.7779 6.5157 -0.5863 0.9201
-25.7190 6.4989 -0.7470 0.8993
-30.0967 6.4822 -0.8669 0.8841
-45.2325 6.4390 -1.2865 0.8329
-21.5808 -7.9694 -0.6478 0.9121
-7.6537 6.5427 -0.5106 0.9605
-8.2236 6.5410 -0.5329 0.9588
-8.8461 6.5391 -0.5579 0.9569
-13.2072 6.5388 -0.7474 0.9427
-14.4646 6.5350 -0.8049 0.9384
-15.7229 6.4442 -0.8617 0.9342
-25.7196 6.4991 -1.3453 0.8992
-30.0975 6.4824 -1.5614 0.8840
-36.1718 6.4616 -1.8635 0.8632
-40.6383 5.7849 -2.0817 0.8484
-43.6107 3.0869 -2.2172 0.8394
-43.7037 -3.0997 -2.2220 0.8391
-41.7963 -5.9557 -2.1411 0.8444
-40.6277 -7.2634 -2.0931 0.8476
-40.3982 -8.7068 -2.0958 0.8475
-42.7252 -10.8024 -2.2350 0.8382
-41.9929 -13.8406 -2.2423 0.8377
-21.5412 -7.9548 -1.1646 0.9121
-41.0664 -16.8382 -2.2509 0.8371
-8.2237 6.5410 -0.7705 0.9587
-9.5309 6.5371 -0.8474 0.9547
-10.2896 6.5348 -0.8937 0.9523
-13.2074 6.5389 -1.0806 0.9426
-17.6694 6.5222 -1.3810 0.9272
-19.7786 6.5159 -1.5269 0.9199
-22.3937 6.5092 -1.7099 0.9107
-28.7744 6.1974 -2.1582 0.8886
-28.9704 5.1751 -2.1578 0.8887
-31.0225 4.4161 -2.2976 0.8819
-31.3095 -2.2206 -2.3015 0.8817
-31.2313 -3.3285 -2.3029 0.8816
-31.1170 -4.4340 -2.3046 0.8816
-21.5579 -7.9609 -1.6850 0.9119
-29.3119 -12.0186 -2.3229 0.8807
-8.2237 6.5411 -1.0088 0.9587
-9.5310 6.5372 -1.1096 0.9546
-10.9952 6.4490 -1.2238 0.9501
-12.1167 6.5423 -1.3220 0.9462
-13.2076 6.5390 -1.4149 0.9425
-14.4650 6.5352 -1.5239 0.9382
-17.6697 6.5224 -1.8082 0.9271
-22.0221 6.4011 -2.2017 0.9120
-22.2280 5.6167 -2.2011 0.9120
-24.1599 3.4392 -2.3429 0.9066
-24.2669 2.5828 -2.3429 0.9066
-24.4101 -0.8654 -2.3450 0.9065
-24.3743 -1.7287 -2.3459 0.9065
-24.3100 -2.5908 -2.3471 0.9064
-24.2170 -3.4508 -2.3484 0.9064
-23.2138 -5.8693 -2.2988 0.9083
-22.1255 -6.4345 -2.2122 0.9116
-21.9049 -7.2197 -2.2143 0.9115
-21.5747 -7.9672 -2.2080 0.9117
-21.3852 -8.7684 -2.2190 0.9113
-7.6539 6.5428 -1.1961 0.9603
-8.8463 6.5393 -1.3067 0.9567
-10.2898 6.5349 -1.4479 0.9521
-10.9953 6.4490 -1.5142 0.9499
-15.7235 6.4445 -2.0185 0.9338
-17.6132 6.5015 -2.2302 0.9272
-17.8255 5.8724 -2.2294 0.9272
-18.0164 5.2368 -2.2287 0.9272
-19.5228 4.2048 -2.3722 0.9227
-19.7679 2.8140 -2.3718 0.9227
-19.8554 2.1133 -2.3719 0.9227
-19.9194 1.4100 -2.3721 0.9227
-19.9764 -0.0014 -2.3729 0.9227
-19.9694 -0.7080 -2.3736 0.9227
-19.8842 -2.1191 -2.3753 0.9226
-19.8061 -2.8223 -2.3765 0.9226
-19.7044 -3.5227 -2.3777 0.9225
-19.5791 -4.2198 -2.3791 0.9225
-19.2584 -5.6007 -2.3824 0.9224
-17.9019 -5.9004 -2.2390 0.9269
-17.6971 -6.5352 -2.2409 0.9268
-17.4705 -7.1633 -2.2429 0.9268
-7.6540 6.5429 -1.4267 0.9601
-8.2239 6.5412 -1.4889 0.9584
-9.5312 6.5373 -1.6376 0.9544
-12.1171 6.5424 -1.9511 0.9459
-13.2079 6.5392 -2.0882 0.9422
-14.6905 6.0210 -2.2495 0.9379
-15.9048 4.6230 -2.3468 0.9353
-16.5057 3.5550 -2.3923 0.9341
-16.6195 2.9688 -2.3921 0.9341
-16.7134 2.3792 -2.3920 0.9341
-16.7873 1.7867 -2.3920 0.9341
-16.8749 0.5959 -2.3925 0.9341
-16.8884 -0.0012 -2.3929 0.9340
-16.8549 -1.1954 -2.3942 0.9340
-16.6533 -2.9772 -2.3970 0.9339
-16.2714 -4.7320 -2.4010 0.9338
-16.1044 -5.3079 -2.4026 0.9338
-15.7897 -5.8309 -2.3849 0.9343
-7.6541 6.5430 -1.6588 0.9600
-8.2240 6.5413 -1.7311 0.9583
-8.8465 6.5394 -1.8123 0.9564
-10.2900 6.5351 -2.0081 0.9518
-10.9956 6.4492 -2.1000 0.9496
-12.1027 6.5346 -2.2658 0.9458
-12.5234 5.6580 -2.2639 0.9458
-12.7109 5.2097 -2.2630 0.9458
-12.8831 4.7555 -2.2623 0.9458
-14.1682 3.5801 -2.4074 0.9425
-14.3827 2.5693 -2.4069 0.9425
-14.4641 2.0590 -2.4068 0.9425
-14.5280 1.5463 -2.4069 0.9425
-14.5745 1.0316 -2.4070 0.9425
-14.6148 -0.0010 -2.4076 0.9425
-14.6086 -0.5179 -2.4081 0.9425
-14.5848 -1.0344 -2.4087 0.9424
-14.4844 -2.0640 -2.4103 0.9424
-14.3141 -3.0850 -2.4122 0.9424
-14.0744 -4.0931 -2.4147 0.9423
-13.9288 -4.5908 -2.4160 0.9423
-13.7661 -5.0836 -2.4175 0.9422
-7.6542 6.5430 -1.8927 0.9598
-8.2240 6.5413 -1.9751 0.9581
-8.8466 6.5395 -2.0678 0.9562
-9.5314 6.5374 -2.1724 0.9540
-10.4490 6.1286 -2.2769 0.9519
-10.8469 5.3702 -2.2750 0.9519
-11.0260 4.9815 -2.2742 0.9519
-11.3584 4.6553 -2.3073 0.9513
-12.3589 3.5923 -2.4191 0.9490
-12.4762 3.1526 -2.4188 0.9490
-12.7371 1.8132 -2.4182 0.9490
-12.7934 1.3616 -2.4182 0.9490
-12.8342 0.9085 -2.4184 0.9490
-12.8693 -0.0009 -2.4189 0.9490
-12.8053 -1.3647 -2.4205 0.9489
-12.6850 -2.2678 -2.4221 0.9489
-12.6017 -2.7160 -2.4230 0.9489
-12.5030 -3.1612 -2.4240 0.9489
-12.3895 -3.6030 -2.4252 0.9488
-12.1161 -4.4743 -2.4277 0.9488
-7.6542 6.5431 -2.1285 0.9597
-8.9216 6.1191 -2.2868 0.9567
-9.1281 5.7971 -2.2857 0.9568
-9.6792 4.7921 -2.2830 0.9568
-10.2852 4.6468 -2.3857 0.9549
-10.6354 4.3591 -2.4296 0.9541
-10.7803 3.9793 -2.4290 0.9541
-11.0302 3.2061 -2.4281 0.9541
-11.1351 2.8137 -2.4277 0.9541
-11.3042 2.0193 -2.4273 0.9541
-11.4185 1.2153 -2.4273 0.9541
-11.4549 0.8108 -2.4274 0.9541
-11.4773 0.4053 -2.4276 0.9541
-11.4859 -0.0008 -2.4279 0.9541
-11.4805 -0.4070 -2.4283 0.9541
-11.4612 -0.8129 -2.4288 0.9541
-11.4279 -1.2179 -2.4293 0.9541
-11.3808 -1.6217 -2.4300 0.9541
-11.2450 -2.4236 -2.4315 0.9541
-11.1564 -2.8207 -2.4325 0.9540
-10.9386 -3.6053 -2.4346 0.9540
-10.6670 -4.3737 -2.4370 0.9540
-7.4267 6.3486 -2.2963 0.9606
-8.0458 5.5184 -2.2930 0.9607
-9.2968 4.6028 -2.4381 0.9583
-9.4510 4.2699 -2.4374 0.9583
-9.8433 3.2428 -2.4357 0.9583
-9.9502 2.8922 -2.4353 0.9583
-10.1276 2.1813 -2.4348 0.9583
-10.1978 1.8217 -2.4347 0.9583
-10.2555 1.4599 -2.4346 0.9583
-10.3008 1.0964 -2.4346 0.9583
-10.3614 -0.0007 -2.4352 0.9583
-10.3387 -0.7333 -2.4360 0.9583
-10.1425 -2.1860 -2.4385 0.9583
-9.7481 -3.5998 -2.4423 0.9582
-9.6192 -3.9441 -2.4434 0.9582
-6.9523 5.5298 -2.3001 0.9640
-7.9449 4.6599 -2.3848 0.9627
-8.3079 4.4857 -2.4446 0.9617
-8.4588 4.1879 -2.4439 0.9618
-8.5993 3.8851 -2.4432 0.9618
-8.8485 3.2662 -2.4421 0.9618
-8.9569 2.9508 -2.4417 0.9618
-9.1407 2.3097 -2.4411 0.9618
-9.2158 1.9849 -2.4409 0.9618
-9.2798 1.6577 -2.4407 0.9618
-9.3323 1.3285 -2.4407 0.9618
-9.3736 0.9977 -2.4407 0.9618
-9.4034 0.6656 -2.4408 0.9618
-9.4217 0.3327 -2.4410 0.9618
-9.4238 -0.3341 -2.4415 0.9618
-9.3799 -0.9997 -2.4424 0.9618
-9.1550 -2.3147 -2.4450 0.9617
-8.9748 -2.9580 -2.4467 0.9617
-8.8681 -3.2748 -2.4477 0.9617
-6.3702 5.0667 -2.3042 0.9667
-6.5527 4.8438 -2.3068 0.9667
-7.3083 4.6414 -2.4509 0.9646
-7.4655 4.3787 -2.4501 0.9647
-7.7519 3.8379 -2.4487 0.9647
-8.1095 2.9934 -2.4472 0.9647
-8.2089 2.7044 -2.4468 0.9647
-8.3776 2.1169 -2.4462 0.9647
-8.6352 0.3049 -2.4461 0.9647
-8.6413 -0.0006 -2.4463 0.9647
-8.6369 -0.3062 -2.4466 0.9647
-8.6220 -0.6115 -2.4470 0.9647
-8.5965 -0.9162 -2.4474 0.9647
-8.3119 -2.4173 -2.4505 0.9647
-8.2240 -2.7106 -2.4514 0.9646
-8.0178 -3.2875 -2.4532 0.9646
-5.8949 4.6887 -2.3167 0.9690
-6.7376 4.2789 -2.4549 0.9671
-7.1470 3.5384 -2.4529 0.9672
-7.3761 3.0232 -2.4519 0.9672
-7.4771 2.7600 -2.4515 0.9672
-7.6513 2.2240 -2.4508 0.9672
-7.7245 1.9519 -2.4506 0.9672
-7.8422 1.4009 -2.4503 0.9672
-7.9620 0.2812 -2.4505 0.9672
-7.9676 -0.0006 -2.4507 0.9672
-7.7346 -1.9556 -2.4539 0.9672
-7.5816 -2.4988 -2.4553 0.9671
-7.4910 -2.7663 -2.4561 0.9671
-5.4660 4.6725 -2.3903 0.9701
-5.9510 4.3990 -2.4599 0.9693
-6.1008 4.1845 -2.4591 0.9693
-6.3777 3.7407 -2.4577 0.9693
-6.5043 3.5119 -2.4571 0.9693
-6.6229 3.2790 -2.4565 0.9693
-6.8354 2.8016 -2.4556 0.9693
-7.0908 2.0611 -2.4546 0.9694
-7.1586 1.8089 -2.4543 0.9694
-7.2176 1.5545 -2.4542 0.9694
-7.3412 0.7814 -2.4540 0.9694
-7.3645 0.5213 -2.4541 0.9694
-7.3839 -0.0005 -2.4544 0.9694
-7.3800 -0.2616 -2.4547 0.9694
-7.3671 -0.5225 -2.4550 0.9693
-7.3451 -0.7828 -2.4554 0.9693
-7.2251 -1.5572 -2.4568 0.9693
-7.1006 -2.0650 -2.4581 0.9693
-7.0252 -2.3155 -2.4588 0.9693
-6.8483 -2.8080 -2.4603 0.9693
-5.3917 4.2885 -2.4636 0.9712
-5.6778 3.8943 -2.4621 0.9712
-5.8103 3.6901 -2.4614 0.9712
-6.2670 2.8314 -2.4592 0.9712
-6.5287 2.1508 -2.4581 0.9712
-6.6630 1.6837 -2.4577 0.9712
-6.8031 0.9684 -2.4574 0.9712
-6.8331 0.7273 -2.4574 0.9712
-6.8680 0.2425 -2.4576 0.9712
-6.8364 -0.7286 -2.4586 0.9712
-6.7702 -1.2104 -2.4595 0.9712
-6.7245 -1.4493 -2.4600 0.9712
-6.6084 -1.9219 -2.4611 0.9712
-6.4596 -2.3854 -2.4625 0.9712
-6.3732 -2.6132 -2.4633 0.9712
-5.0365 4.0060 -2.4662 0.9728
-5.4279 3.4472 -2.4641 0.9728
-5.5451 3.2523 -2.4635 0.9728
-5.8549 2.6452 -2.4621 0.9729
-6.2252 1.5730 -2.4606 0.9729
-6.2765 1.3518 -2.4605 0.9729
-6.4043 0.4533 -2.4604 0.9729
-6.4166 0.2266 -2.4605 0.9729
-6.4211 -0.0004 -2.4607 0.9729
-6.4176 -0.2275 -2.4609 0.9729
-6.4062 -0.4544 -2.4612 0.9729
-6.2822 -1.3540 -2.4628 0.9728
-6.2318 -1.5756 -2.4633 0.9728
-6.1735 -1.7954 -2.4638 0.9728
-6.1077 -2.0131 -2.4645 0.9728
-6.0343 -2.2284 -2.4651 0.9728
-5.9535 -2.4411 -2.4658 0.9728
-4.7202 3.7544 -2.4684 0.9743
-4.8487 3.5842 -2.4678 0.9743
-5.3007 2.8620 -2.4655 0.9743
-5.3975 2.6723 -2.4650 0.9743
-5.6476 2.0847 -2.4639 0.9743
-5.7796 1.6800 -2.4634 0.9743
-5.8832 1.2671 -2.4631 0.9743
-6.0029 0.4249 -2.4630 0.9743
-6.0186 -0.0004 -2.4633 0.9743
-6.0153 -0.2133 -2.4635 0.9743
-6.0046 -0.4259 -2.4637 0.9743
-5.9866 -0.6380 -2.4640 0.9743
-5.9612 -0.8494 -2.4644 0.9743
-5.9283 -1.0599 -2.4648 0.9743
-5.8882 -1.2691 -2.4652 0.9743
-5.7244 -1.8867 -2.4668 0.9743
-4.3100 3.6843 -2.4712 0.9756
-4.5572 3.3687 -2.4698 0.9756
-4.6723 3.2047 -2.4692 0.9756
-4.8850 2.8652 -2.4682 0.9756
-4.9823 2.6901 -2.4677 0.9756
-5.0734 2.5118 -2.4672 0.9756
-5.3741 1.7704 -2.4659 0.9756
-5.4849 1.3860 -2.4655 0.9756
-5.5302 1.1911 -2.4654 0.9756
-5.6250 0.5987 -2.4653 0.9756
-5.6544 -0.2005 -2.4658 0.9756
-5.6443 -0.4003 -2.4661 0.9756
-5.5724 -0.9962 -2.4670 0.9756
-5.5345 -1.1928 -2.4675 0.9756
-5.4899 -1.3881 -2.4679 0.9756
-5.4385 -1.5816 -2.4684 0.9756
-5.3804 -1.7733 -2.4690 0.9756
-5.3156 -1.9630 -2.4695 0.9756
-5.2442 -2.1502 -2.4702 0.9756
-4.0609 3.4714 -2.4730 0.9767
-4.1801 3.3248 -2.4723 0.9767
-4.2940 3.1741 -2.4717 0.9767
-4.4025 3.0196 -2.4711 0.9767
-4.6030 2.6998 -2.4701 0.9768
-4.6947 2.5349 -2.4697 0.9768
-5.0024 1.8465 -2.4683 0.9768
-5.0641 1.6683 -2.4680 0.9768
-5.2113 1.1224 -2.4675 0.9768
-5.2773 0.7512 -2.4674 0.9768
-5.3006 0.5642 -2.4675 0.9768
-5.3187 -0.3772 -2.4681 0.9768
-5.2799 -0.7524 -2.4687 0.9768
-5.1731 -1.3079 -2.4699 0.9768
-5.1246 -1.4903 -2.4704 0.9768
-5.0697 -1.6710 -2.4709 0.9767
-4.9412 -2.0260 -2.4720 0.9767
-3.9472 3.1396 -2.4740 0.9778
-4.1574 2.8515 -2.4729 0.9778
-4.2547 2.7021 -2.4724 0.9778
-4.4335 2.3938 -2.4715 0.9778
-4.6601 1.9100 -2.4704 0.9778
-4.8812 1.2334 -2.4696 0.9778
-4.9215 1.0600 -2.4695 0.9778
-4.9558 0.8853 -2.4694 0.9778
-5.0059 0.5328 -2.4694 0.9778
-5.0217 0.3555 -2.4694 0.9778
-5.0313 0.1777 -2.4695 0.9778
-5.0347 -0.0004 -2.4697 0.9778
-5.0319 -0.1784 -2.4698 0.9778
-4.9863 -0.7105 -2.4706 0.9778
-4.9249 -1.0615 -2.4713 0.9778
-4.8851 -1.2351 -2.4717 0.9778
-4.7874 -1.5779 -2.4726 0.9778
-3.7345 2.9704 -2.4755 0.9787
-4.0256 2.5566 -2.4740 0.9787
-4.1127 2.4122 -2.4735 0.9787
-4.4093 1.8072 -2.4721 0.9788
-4.5251 1.4908 -2.4717 0.9788
-4.7366 0.5041 -2.4712 0.9788
-4.7382 -0.5050 -2.4720 0.9788
-4.6918 -0.8388 -2.4726 0.9788
-4.6221 -1.1686 -2.4733 0.9787
-4.5787 -1.3316 -2.4738 0.9787
-4.4748 -1.6525 -2.4747 0.9787
-4.4146 -1.8101 -2.4752 0.9787
-3.4383 2.9392 -2.4775 0.9796
-3.8153 2.4230 -2.4755 0.9796
-3.8979 2.2862 -2.4750 0.9796
-3.9757 2.1466 -2.4747 0.9796
-4.0486 2.0044 -2.4743 0.9796
-4.1164 1.8598 -2.4740 0.9796
-4.1791 1.7129 -2.4737 0.9796
-4.2366 1.5639 -2.4735 0.9796
-4.2889 1.4130 -2.4733 0.9796
-4.3775 1.1061 -2.4730 0.9796
-4.4137 0.9506 -2.4729 0.9796
-4.4445 0.7939 -2.4728 0.9796
-4.4697 0.6363 -2.4728 0.9796
-4.5036 0.3188 -2.4728 0.9796
-4.5122 0.1593 -2.4729 0.9796
-4.5127 -0.1600 -2.4732 0.9796
-4.5045 -0.3195 -2.4734 0.9796
-4.4716 -0.6372 -2.4739 0.9796
-4.4468 -0.7950 -2.4742 0.9796
-4.4165 -0.9519 -2.4745 0.9796
-4.3807 -1.1076 -2.4749 0.9796
-4.3395 -1.2620 -2.4753 0.9796
-4.2410 -1.5662 -2.4762 0.9796
-4.1838 -1.7155 -2.4767 0.9796
-3.2634 2.7897 -2.4787 0.9804
-3.3593 2.6720 -2.4782 0.9804
-3.6214 2.2999 -2.4768 0.9804
-3.6998 2.1700 -2.4764 0.9804
-3.9668 1.6259 -2.4752 0.9804
-4.1157 1.1963 -2.4746 0.9804
-4.1896 0.9024 -2.4744 0.9804
-4.2188 0.7536 -2.4743 0.9804
-4.2428 0.6040 -2.4743 0.9804
-4.2831 0.1513 -2.4744 0.9804
-4.2757 -0.3033 -2.4748 0.9804
-4.2627 -0.4543 -2.4751 0.9804
-4.1921 -0.9035 -2.4759 0.9804
-4.1189 -1.1979 -2.4766 0.9804
-4.0747 -1.3430 -2.4770 0.9804
-4.0254 -1.4865 -2.4775 0.9804
