ply
format ascii 1.0
element vertex 551
property float32 x
property float32 y
property float32 z
property float32 I
end_header
-6.2790 -21.4751 3.9452 0.9131
-5.4362 -21.4612 3.9037 0.9140
-4.6118 -21.4571 3.8699 0.9147
-2.9990 -21.4428 3.8177 0.9158
-2.2070 -21.4380 3.8001 0.9162
-0.6396 -21.4285 3.7801 0.9166
1.7003 -21.4008 3.7854 0.9165
-5.4361 -21.4608 3.3915 0.9143
-4.6117 -21.4568 3.3621 0.9150
-3.8005 -21.4528 3.3376 0.9156
-2.9990 -21.4429 3.3169 0.9161
-0.6396 -21.4286 3.2842 0.9169
0.9190 -21.4031 3.2819 0.9170
1.7003 -21.4005 3.2888 0.9168
2.5074 -21.5830 3.3286 0.9158
-6.2785 -21.4732 2.9133 0.9137
-4.6117 -21.4565 2.8579 0.9153
-3.8004 -21.4525 2.8371 0.9159
-2.9991 -21.4431 2.8195 0.9164
-0.6396 -21.4288 2.7917 0.9172
0.1401 -21.4314 2.7909 0.9172
0.9189 -21.4025 2.7896 0.9172
1.7003 -21.4002 2.7955 0.9170
31.4920 -34.9071 6.1221 0.8273
31.4646 -32.4240 5.8835 0.8334
31.4393 -30.1242 5.6701 0.8389
31.3938 -25.9787 5.3063 0.8484
31.7977 -24.4205 5.2210 0.8507
34.7595 -24.7389 5.5558 0.8419
-6.2782 -21.4723 2.4023 0.9139
-5.4359 -21.4602 2.3772 0.9148
-3.8004 -21.4522 2.3394 0.9161
-2.9991 -21.4432 2.3250 0.9166
-2.2070 -21.4384 2.3143 0.9170
2.5076 -21.5842 2.3333 0.9163
31.4579 -32.4170 4.8506 0.8338
31.4095 -27.9771 4.5168 0.8443
31.3878 -25.9736 4.3748 0.8488
34.7593 -24.7387 4.5813 0.8423
38.1318 -25.1013 4.9022 0.8322
-6.2779 -21.4714 1.8937 0.9141
-5.4358 -21.4599 1.8740 0.9150
-2.9991 -21.4433 1.8329 0.9168
-2.2071 -21.4385 1.8244 0.9171
-1.4212 -21.4337 1.8184 0.9174
0.1401 -21.4305 1.8142 0.9176
1.7002 -21.3995 1.8172 0.9174
2.5076 -21.5847 1.8395 0.9165
3.4164 -22.2984 1.9096 0.9134
31.4779 -34.8915 3.9780 0.8281
31.4263 -30.1117 3.6844 0.8397
31.4032 -27.9716 3.5600 0.8447
31.7973 -24.4201 3.3939 0.8513
34.7590 -24.7385 3.6116 0.8426
-4.6114 -21.4555 1.3608 0.9158
-3.8003 -21.4515 1.3509 0.9164
-2.9991 -21.4434 1.3427 0.9169
-2.2071 -21.4386 1.3364 0.9173
-1.4213 -21.4338 1.3320 0.9175
0.1401 -21.4300 1.3289 0.9177
1.7002 -21.3992 1.3312 0.9176
2.5077 -21.5853 1.3475 0.9166
3.4171 -22.3025 1.3991 0.9135
31.4710 -34.8838 2.9134 0.8284
31.3757 -25.9636 2.5254 0.8494
-4.6114 -21.4552 0.8653 0.9159
-2.9991 -21.4435 0.8538 0.9170
-1.4213 -21.4340 0.8470 0.9176
0.9188 -21.4001 0.8446 0.9178
3.4177 -22.3066 0.8898 0.9136
31.4925 -37.5691 1.9330 0.8218
31.4640 -34.8761 1.8521 0.8286
31.4377 -32.3962 1.7800 0.8347
31.3908 -27.9605 1.6576 0.8451
31.7969 -24.4198 1.5809 0.8517
42.0168 -25.5184 1.9384 0.8214
-5.4356 -21.4589 0.3739 0.9152
-2.9991 -21.4436 0.3657 0.9170
-0.6396 -21.4293 0.3621 0.9178
1.7001 -21.3986 0.3626 0.9177
2.5078 -21.5864 0.3671 0.9167
3.4183 -22.3108 0.3813 0.9137
31.4853 -37.5604 0.8279 0.8220
31.4311 -32.3894 0.7624 0.8348
31.4070 -30.0932 0.7347 0.8403
31.3846 -27.9549 0.7099 0.8452
31.3636 -25.9537 0.6877 0.8497
34.7583 -24.7380 0.7207 0.8431
42.0164 -25.5182 0.8304 0.8215
-5.4355 -21.4586 -0.1246 0.9153
-3.8001 -21.4506 -0.1226 0.9165
-2.9992 -21.4437 -0.1219 0.9170
-1.4213 -21.4342 -0.1209 0.9177
-0.6396 -21.4294 -0.1207 0.9178
3.4189 -22.3149 -0.1271 0.9137
31.4780 -37.5518 -0.2759 0.8220
31.4501 -34.8606 -0.2643 0.8288
31.4244 -32.3825 -0.2541 0.8349
31.4005 -30.0870 -0.2448 0.8403
31.3784 -27.9494 -0.2366 0.8453
34.7581 -24.7378 -0.2402 0.8431
38.1304 -25.1003 -0.2570 0.8331
-6.2766 -21.4669 -0.6298 0.9144
-3.8000 -21.4503 -0.6134 0.9165
-2.9992 -21.4439 -0.6097 0.9170
-2.2071 -21.4391 -0.6069 0.9174
0.9187 -21.3984 -0.6031 0.9179
1.7001 -21.3979 -0.6044 0.9177
2.5079 -21.5875 -0.6119 0.9167
17.1161 -44.0935 -1.3318 0.8276
31.4707 -37.5431 -1.3794 0.8220
31.4432 -34.8530 -1.3217 0.8288
-5.4353 -21.4579 -1.1226 0.9152
-2.9992 -21.4440 -1.0981 0.9169
-1.4213 -21.4344 -1.0894 0.9176
-0.6396 -21.4297 -1.0873 0.9177
1.7000 -21.3976 -1.0886 0.9176
18.1869 -42.2314 -2.3319 0.8318
31.4362 -34.8453 -2.3800 0.8286
31.4110 -32.3687 -2.2874 0.8347
31.3660 -27.9383 -2.1302 0.8452
31.7960 -24.4192 -2.0332 0.8517
42.0154 -25.5175 -2.4930 0.8213
-6.2761 -21.4652 -1.6398 0.9142
-4.6110 -21.4536 -1.6089 0.9158
-2.9992 -21.4441 -1.5876 0.9168
-2.2071 -21.4393 -1.5803 0.9172
-1.4213 -21.4345 -1.5751 0.9175
0.1401 -21.4272 -1.5711 0.9176
0.9187 -21.3972 -1.5703 0.9177
1.7000 -21.3973 -1.5738 0.9175
2.5081 -21.5886 -1.5936 0.9165
7.8509 -34.3367 -2.5826 0.8683
11.6512 -33.5875 -2.6067 0.8671
12.9035 -33.2413 -2.6145 0.8667
14.1456 -32.8470 -2.6223 0.8664
16.5905 -31.9146 -2.6373 0.8657
17.7895 -31.3772 -2.6447 0.8653
21.2683 -29.4854 -2.6657 0.8643
25.5576 -26.3368 -2.6909 0.8631
27.5182 -24.5111 -2.7020 0.8626
29.3365 -22.5302 -2.7122 0.8621
29.4916 -19.4136 -2.5888 0.8680
29.8329 -18.1186 -2.5592 0.8694
-4.6110 -21.4533 -2.1067 0.9156
-1.4213 -21.4346 -2.0623 0.9173
0.1401 -21.4267 -2.0571 0.9175
0.9187 -21.3966 -2.0561 0.9175
2.5081 -21.5891 -2.0866 0.9164
3.4215 -22.3315 -2.1689 0.9132
4.6846 -24.5696 -2.4013 0.9044
5.5884 -24.4416 -2.4071 0.9042
9.7516 -25.1214 -2.5871 0.8974
11.6028 -24.4540 -2.5986 0.8969
12.5112 -24.0673 -2.6041 0.8967
13.4062 -23.6459 -2.6096 0.8965
15.1503 -22.7002 -2.6201 0.8961
18.4158 -20.4128 -2.6394 0.8954
21.3128 -17.6365 -2.6558 0.8948
21.9700 -16.8728 -2.6595 0.8947
23.1956 -15.2691 -2.6661 0.8944
23.7619 -14.4315 -2.6690 0.8943
-4.9990 -19.7358 -2.4184 0.9213
-4.2420 -19.7372 -2.3980 0.9219
-2.7605 -19.7383 -2.3674 0.9229
-1.3135 -19.8095 -2.3583 0.9231
-0.5938 -19.8958 -2.3644 0.9230
0.1303 -19.9325 -2.3677 0.9228
0.8568 -19.9544 -2.3725 0.9227
1.5850 -19.9498 -2.3772 0.9226
2.3141 -19.9183 -2.3819 0.9224
3.0617 -19.9827 -2.4014 0.9218
3.8854 -20.3776 -2.4642 0.9198
4.7873 -20.9376 -2.5513 0.9171
6.3204 -20.6122 -2.5610 0.9168
7.8305 -20.1724 -2.5704 0.9165
10.0335 -19.3010 -2.5840 0.9161
10.7468 -18.9552 -2.5883 0.9160
14.7292 -16.3265 -2.6119 0.9152
15.3336 -15.8010 -2.6154 0.9151
15.9183 -15.2524 -2.6188 0.9150
16.4824 -14.6812 -2.6219 0.9149
17.0251 -14.0883 -2.6250 0.9148
17.5452 -13.4745 -2.6278 0.9147
18.0420 -12.8407 -2.6305 0.9147
18.5147 -12.1877 -2.6330 0.9146
18.9625 -11.5166 -2.6354 0.9145
-2.4452 -17.4834 -2.5013 0.9312
-0.5293 -17.7351 -2.5140 0.9308
0.1162 -17.7724 -2.5182 0.9307
0.7637 -17.7862 -2.5224 0.9306
1.4123 -17.7763 -2.5266 0.9305
2.0613 -17.7425 -2.5308 0.9304
2.7096 -17.6849 -2.5350 0.9303
4.0008 -17.4978 -2.5432 0.9301
4.6418 -17.3684 -2.5473 0.9299
5.2787 -17.2151 -2.5513 0.9298
7.1547 -16.6136 -2.5630 0.9295
8.3675 -16.0962 -2.5704 0.9293
8.9598 -15.8033 -2.5740 0.9292
10.1119 -15.1510 -2.5809 0.9291
10.6699 -14.7923 -2.5843 0.9290
11.2147 -14.4124 -2.5875 0.9289
11.7455 -14.0118 -2.5906 0.9288
12.2615 -13.5911 -2.5936 0.9287
12.7617 -13.1508 -2.5965 0.9286
-3.7123 -14.6561 -2.4907 0.9405
-3.1814 -14.8026 -2.4943 0.9405
-2.1032 -15.0380 -2.5015 0.9403
-1.5572 -15.1264 -2.5051 0.9402
-1.0075 -15.1950 -2.5087 0.9401
-0.4549 -15.2437 -2.5123 0.9400
1.7701 -15.2357 -2.5268 0.9397
2.3262 -15.1827 -2.5304 0.9396
2.8809 -15.1092 -2.5339 0.9395
6.1328 -14.2407 -2.5543 0.9391
6.6550 -14.0259 -2.5575 0.9390
7.6754 -13.5379 -2.5637 0.9389
8.1722 -13.2653 -2.5667 0.9388
9.1351 -12.6645 -2.5725 0.9387
10.4923 -11.6301 -2.5804 0.9385
11.3309 -10.8569 -2.5852 0.9384
12.1104 -10.0214 -2.5895 0.9383
12.4765 -9.5818 -2.5916 0.9382
12.8260 -9.1284 -2.5934 0.9382
-3.7162 -12.7100 -2.4890 0.9475
-1.3646 -13.2558 -2.5047 0.9472
0.0875 -13.3763 -2.5143 0.9470
0.5746 -13.3811 -2.5174 0.9469
2.0360 -13.2885 -2.5269 0.9468
2.5210 -13.2219 -2.5300 0.9467
3.4837 -13.0350 -2.5361 0.9466
3.9601 -12.9149 -2.5391 0.9465
5.3613 -12.4494 -2.5478 0.9463
5.8170 -12.2596 -2.5506 0.9463
6.2657 -12.0529 -2.5533 0.9462
6.7069 -11.8295 -2.5560 0.9462
7.5641 -11.3335 -2.5611 0.9461
7.9789 -11.0616 -2.5636 0.9460
8.3837 -10.7741 -2.5660 0.9460
8.7778 -10.4715 -2.5683 0.9459
9.5318 -9.8224 -2.5726 0.9458
10.5687 -8.7457 -2.5784 0.9457
10.8871 -8.3612 -2.5802 0.9457
11.1911 -7.9648 -2.5818 0.9456
11.4801 -7.5570 -2.5833 0.9456
11.7537 -7.1385 -2.5848 0.9456
-3.3064 -11.3085 -2.4905 0.9530
-2.4812 -11.5446 -2.4960 0.9529
-2.0620 -11.6403 -2.4988 0.9528
-1.2132 -11.7859 -2.5045 0.9527
0.9437 -11.8774 -2.5186 0.9525
1.3765 -11.8484 -2.5214 0.9524
1.8085 -11.8034 -2.5241 0.9524
3.5156 -11.4654 -2.5349 0.9522
3.9343 -11.3417 -2.5375 0.9521
4.3486 -11.2024 -2.5401 0.9521
6.3330 -10.2799 -2.5522 0.9518
7.0757 -9.8094 -2.5566 0.9518
7.4339 -9.5535 -2.5588 0.9517
7.7826 -9.2842 -2.5608 0.9517
9.9163 -7.0575 -2.5728 0.9515
10.4135 -6.3245 -2.5754 0.9514
-2.9751 -10.1757 -2.4916 0.9574
-2.6057 -10.2874 -2.4941 0.9573
-2.2321 -10.3858 -2.4967 0.9573
-0.3185 -10.6722 -2.5093 0.9571
0.0699 -10.6875 -2.5119 0.9570
0.4589 -10.6887 -2.5144 0.9570
0.8482 -10.6756 -2.5169 0.9570
1.2371 -10.6483 -2.5194 0.9569
2.0117 -10.5509 -2.5244 0.9568
2.7787 -10.3967 -2.5292 0.9567
3.1579 -10.2985 -2.5316 0.9567
4.2722 -9.9204 -2.5385 0.9566
4.6342 -9.7670 -2.5407 0.9566
5.6846 -9.2273 -2.5471 0.9564
6.0211 -9.0216 -2.5491 0.9564
6.3501 -8.8034 -2.5511 0.9564
6.6709 -8.5730 -2.5530 0.9563
6.9833 -8.3306 -2.5548 0.9563
7.5805 -7.8115 -2.5582 0.9563
8.4012 -6.9520 -2.5628 0.9562
8.8935 -6.3296 -2.5655 0.9561
-2.2219 -8.7719 -2.3429 0.9633
-1.3383 -9.5693 -2.5018 0.9609
-0.6404 -9.6590 -2.5064 0.9608
0.0634 -9.6978 -2.5110 0.9607
0.4164 -9.6979 -2.5133 0.9607
0.7695 -9.6852 -2.5156 0.9607
1.1223 -9.6595 -2.5178 0.9606
2.1733 -9.5050 -2.5245 0.9605
2.5197 -9.4279 -2.5267 0.9605
2.8633 -9.3380 -2.5289 0.9604
3.2037 -9.2354 -2.5310 0.9604
3.5403 -9.1203 -2.5331 0.9604
3.8728 -8.9928 -2.5351 0.9604
4.2006 -8.8531 -2.5371 0.9603
4.5233 -8.7012 -2.5391 0.9603
4.8404 -8.5374 -2.5410 0.9603
5.1514 -8.3619 -2.5429 0.9602
5.4560 -8.1749 -2.5447 0.9602
6.0440 -7.7673 -2.5482 0.9602
6.8667 -7.0760 -2.5530 0.9601
7.8366 -6.0184 -2.5584 0.9600
8.2606 -5.4377 -2.5606 0.9600
8.4562 -5.1358 -2.5616 0.9599
-1.4464 -8.1651 -2.3475 0.9661
-1.1495 -8.2192 -2.3494 0.9661
0.3807 -8.8664 -2.5123 0.9638
1.0258 -8.8299 -2.5165 0.9637
1.3474 -8.7940 -2.5186 0.9637
1.6677 -8.7462 -2.5206 0.9637
2.3026 -8.6156 -2.5246 0.9636
2.6164 -8.5328 -2.5266 0.9636
2.9273 -8.4385 -2.5285 0.9635
3.2346 -8.3327 -2.5304 0.9635
4.7050 -7.6372 -2.5394 0.9634
5.2544 -7.2844 -2.5427 0.9633
5.5193 -7.0929 -2.5442 0.9633
5.7769 -6.8915 -2.5457 0.9633
7.3518 -5.2324 -2.5545 0.9632
-2.1370 -7.3091 -2.3422 0.9686
-1.8712 -7.3876 -2.3440 0.9686
-1.3314 -7.5157 -2.3477 0.9686
-1.0580 -7.5650 -2.3495 0.9685
-0.7828 -7.6044 -2.3513 0.9685
-0.5390 -8.1288 -2.5057 0.9665
0.0533 -8.1591 -2.5096 0.9664
0.6473 -8.1461 -2.5135 0.9664
0.9438 -8.1233 -2.5154 0.9664
1.2395 -8.0897 -2.5173 0.9663
1.5340 -8.0453 -2.5191 0.9663
1.8269 -7.9900 -2.5210 0.9663
2.1178 -7.9241 -2.5228 0.9663
2.6920 -7.7602 -2.5264 0.9662
3.2534 -7.5544 -2.5299 0.9662
3.5283 -7.4361 -2.5316 0.9661
4.0647 -7.1692 -2.5348 0.9661
4.3254 -7.0210 -2.5364 0.9661
4.5806 -6.8631 -2.5379 0.9661
4.8299 -6.6959 -2.5394 0.9660
5.0731 -6.5195 -2.5408 0.9660
5.3097 -6.3342 -2.5422 0.9660
5.7619 -5.9376 -2.5448 0.9660
5.9769 -5.7268 -2.5460 0.9660
6.1840 -5.5082 -2.5472 0.9659
6.7554 -4.8078 -2.5503 0.9659
6.9282 -4.5606 -2.5512 0.9659
7.0918 -4.3071 -2.5521 0.9659
-1.9779 -6.7648 -2.3428 0.9707
-1.7318 -6.8371 -2.3445 0.9707
-1.4831 -6.9005 -2.3461 0.9707
-1.2320 -6.9548 -2.3478 0.9707
-0.9790 -7.0001 -2.3495 0.9706
-0.2250 -7.5394 -2.5073 0.9687
0.3241 -7.5466 -2.5108 0.9687
1.1464 -7.4822 -2.5161 0.9686
1.6895 -7.3891 -2.5196 0.9686
1.9584 -7.3278 -2.5213 0.9685
2.2251 -7.2565 -2.5229 0.9685
2.4891 -7.1755 -2.5246 0.9685
2.7502 -7.0848 -2.5262 0.9685
3.2619 -6.8747 -2.5294 0.9684
3.5119 -6.7556 -2.5309 0.9684
3.9982 -6.4900 -2.5338 0.9684
5.1194 -5.6745 -2.5404 0.9683
5.3248 -5.4871 -2.5416 0.9683
5.7145 -5.0900 -2.5438 0.9683
6.0740 -4.6648 -2.5457 0.9682
6.2419 -4.4424 -2.5467 0.9682
6.5524 -3.9795 -2.5483 0.9682
-1.8388 -6.2894 -2.3433 0.9725
-1.1610 -6.5537 -2.3801 0.9721
-0.9539 -6.8209 -2.4629 0.9712
-0.7169 -6.9641 -2.5036 0.9707
-0.4635 -6.9902 -2.5052 0.9707
-0.2091 -7.0071 -2.5069 0.9707
0.0459 -7.0148 -2.5086 0.9706
0.3012 -7.0131 -2.5102 0.9706
0.5564 -7.0021 -2.5119 0.9706
0.8111 -6.9818 -2.5135 0.9706
1.0652 -6.9522 -2.5152 0.9706
1.5697 -6.8651 -2.5184 0.9705
2.0671 -6.7412 -2.5215 0.9705
2.3123 -6.6656 -2.5230 0.9705
3.0297 -6.3853 -2.5274 0.9704
3.2618 -6.2744 -2.5288 0.9704
3.4897 -6.1550 -2.5302 0.9704
4.3540 -5.5954 -2.5354 0.9703
4.7535 -5.2690 -2.5377 0.9703
5.3056 -4.7258 -2.5408 0.9703
5.6391 -4.3307 -2.5426 0.9702
5.9427 -3.9119 -2.5443 0.9702
6.0828 -3.6943 -2.5450 0.9702
-1.7695 -6.0521 -2.4164 0.9734
-1.1381 -6.4247 -2.5004 0.9724
-0.9043 -6.4658 -2.5019 0.9724
-0.1951 -6.5380 -2.5066 0.9724
0.0428 -6.5449 -2.5082 0.9724
0.5191 -6.5325 -2.5112 0.9723
0.7567 -6.5132 -2.5128 0.9723
0.9937 -6.4853 -2.5143 0.9723
2.1565 -6.2167 -2.5216 0.9722
2.6055 -6.0502 -2.5244 0.9722
2.8254 -5.9546 -2.5257 0.9722
3.0416 -5.8510 -2.5271 0.9721
3.4623 -5.6200 -2.5296 0.9721
3.6661 -5.4931 -2.5308 0.9721
4.4316 -4.9122 -2.5353 0.9721
4.6092 -4.7497 -2.5363 0.9720
4.9459 -4.4054 -2.5382 0.9720
-1.4984 -5.9157 -2.4976 0.9740
-1.0657 -6.0159 -2.5005 0.9739
-0.4049 -6.1069 -2.5049 0.9739
0.2630 -6.1253 -2.5092 0.9738
0.4859 -6.1152 -2.5107 0.9738
0.9301 -6.0706 -2.5135 0.9738
1.1509 -6.0361 -2.5149 0.9738
1.3704 -5.9936 -2.5163 0.9738
2.0182 -5.8180 -2.5204 0.9737
2.2297 -5.7438 -2.5217 0.9737
2.4383 -5.6618 -2.5230 0.9737
3.2396 -5.2586 -2.5278 0.9737
3.4303 -5.1396 -2.5290 0.9736
3.6165 -5.0137 -2.5301 0.9736
4.1460 -4.5956 -2.5332 0.9736
4.4723 -4.2852 -2.5350 0.9736
4.6268 -4.1212 -2.5359 0.9736
5.0527 -3.5961 -2.5382 0.9736
5.3035 -3.2210 -2.5395 0.9735
-1.6076 -5.4982 -2.4965 0.9753
-1.4073 -5.5561 -2.4979 0.9753
-1.2049 -5.6066 -2.4993 0.9753
-0.5882 -5.7138 -2.5034 0.9752
-0.1715 -5.7478 -2.5061 0.9752
0.4562 -5.7416 -2.5102 0.9752
0.8732 -5.6993 -2.5128 0.9752
1.0805 -5.6667 -2.5142 0.9751
1.4911 -5.5790 -2.5167 0.9751
1.6938 -5.5239 -2.5180 0.9751
2.0929 -5.3915 -2.5205 0.9751
2.2887 -5.3143 -2.5217 0.9751
2.6713 -5.1387 -2.5240 0.9750
3.7298 -4.4495 -2.5303 0.9750
3.8906 -4.3125 -2.5313 0.9750
4.0463 -4.1696 -2.5321 0.9750
4.3415 -3.8670 -2.5338 0.9750
4.6138 -3.5433 -2.5353 0.9749
4.7408 -3.3741 -2.5360 0.9749
-1.3251 -5.2317 -2.4981 0.9765
-1.1346 -5.2791 -2.4994 0.9765
-0.9423 -5.3196 -2.5007 0.9765
-0.7486 -5.3531 -2.5020 0.9765
0.0355 -5.4162 -2.5071 0.9764
0.2325 -5.4141 -2.5084 0.9764
0.6261 -5.3884 -2.5110 0.9764
1.0170 -5.3339 -2.5135 0.9764
1.4034 -5.2510 -2.5159 0.9763
1.5942 -5.1989 -2.5171 0.9763
1.7830 -5.1399 -2.5183 0.9763
2.5138 -4.8357 -2.5228 0.9763
2.6891 -4.7431 -2.5238 0.9763
3.0292 -4.5388 -2.5259 0.9762
3.1935 -4.4273 -2.5268 0.9762
3.5094 -4.1865 -2.5287 0.9762
3.9484 -3.7832 -2.5312 0.9762
4.3406 -3.3335 -2.5333 0.9762
4.5737 -3.0107 -2.5346 0.9762
-0.8893 -5.0201 -2.5008 0.9775
-0.7065 -5.0515 -2.5020 0.9775
-0.1523 -5.1059 -2.5057 0.9775
0.5907 -5.0838 -2.5105 0.9775
0.7755 -5.0613 -2.5117 0.9774
0.9595 -5.0321 -2.5128 0.9774
1.3239 -4.9536 -2.5151 0.9774
1.5039 -4.9044 -2.5163 0.9774
2.0316 -4.7175 -2.5195 0.9774
2.2028 -4.6425 -2.5206 0.9774
2.5364 -4.4737 -2.5226 0.9773
2.6985 -4.3802 -2.5236 0.9773
3.1629 -4.0647 -2.5263 0.9773
3.4522 -3.8266 -2.5280 0.9773
3.5902 -3.6997 -2.5288 0.9773
3.8519 -3.4309 -2.5303 0.9773
3.9752 -3.2895 -2.5309 0.9773
4.2058 -2.9933 -2.5322 0.9773
-1.3509 -4.6207 -2.4975 0.9785
-0.6680 -4.7764 -2.5020 0.9785
-0.4941 -4.7998 -2.5032 0.9785
0.0316 -4.8317 -2.5066 0.9785
0.5584 -4.8060 -2.5100 0.9784
1.0799 -4.7229 -2.5133 0.9784
1.2514 -4.6825 -2.5144 0.9784
1.4215 -4.6358 -2.5155 0.9784
1.5898 -4.5830 -2.5165 0.9784
1.9203 -4.4589 -2.5186 0.9784
2.3972 -4.2281 -2.5215 0.9783
2.5503 -4.1397 -2.5224 0.9783
2.7001 -4.0456 -2.5233 0.9783
2.9891 -3.8413 -2.5250 0.9783
3.1278 -3.7312 -2.5258 0.9783
3.2624 -3.6161 -2.5266 0.9783
3.3927 -3.4961 -2.5273 0.9783
3.5186 -3.3714 -2.5280 0.9783
3.7563 -3.1084 -2.5294 0.9783
3.9742 -2.8284 -2.5305 0.9783
-1.2798 -4.3771 -2.4977 0.9794
-0.6327 -4.5242 -2.5020 0.9794
-0.3025 -4.5622 -2.5042 0.9794
0.0300 -4.5761 -2.5064 0.9793
0.3628 -4.5657 -2.5086 0.9793
1.3461 -4.3898 -2.5148 0.9793
1.6629 -4.2837 -2.5168 0.9793
1.9713 -4.1546 -2.5187 0.9792
2.1219 -4.0817 -2.5196 0.9792
2.4146 -3.9194 -2.5213 0.9792
2.5564 -3.8303 -2.5222 0.9792
2.9611 -3.5324 -2.5246 0.9792
3.0885 -3.4234 -2.5253 0.9792
3.2119 -3.3098 -2.5260 0.9792
3.3310 -3.1916 -2.5267 0.9792
3.4458 -3.0692 -2.5273 0.9792
3.5559 -2.9425 -2.5279 0.9792
3.6614 -2.8119 -2.5285 0.9792
3.7621 -2.6775 -2.5290 0.9792
3.9482 -2.3979 -2.5300 0.9792
-0.9098 -4.2334 -2.5000 0.9802
-0.4439 -4.3127 -2.5031 0.9802
-0.2869 -4.3278 -2.5041 0.9802
-0.1294 -4.3371 -2.5052 0.9802
0.0284 -4.3407 -2.5062 0.9802
0.3441 -4.3307 -2.5082 0.9801
0.5016 -4.3171 -2.5092 0.9801
0.6585 -4.2977 -2.5102 0.9801
0.8147 -4.2726 -2.5112 0.9801
0.9699 -4.2418 -2.5122 0.9801
1.2766 -4.1633 -2.5141 0.9801
1.4277 -4.1157 -2.5151 0.9801
1.5770 -4.0625 -2.5160 0.9801
2.0122 -3.8707 -2.5187 0.9801
2.1524 -3.7963 -2.5195 0.9800
2.6834 -3.4484 -2.5227 0.9800
2.8078 -3.3495 -2.5234 0.9800
2.9286 -3.2461 -2.5241 0.9800
3.0455 -3.1383 -2.5248 0.9800
3.2671 -2.9101 -2.5260 0.9800
3.3716 -2.7900 -2.5266 0.9800
3.4715 -2.6661 -2.5271 0.9800
3.5669 -2.5386 -2.5276 0.9800
3.6575 -2.4077 -2.5281 0.9800
