ply
format ascii 1.0
element vertex 580
property float32 x
property float32 y
property float32 z
property float32 I
end_header
2.6561 7.6892 1.4344 0.9675
-0.7556 31.2771 5.5166 0.8807
-2.6907 28.0873 4.9752 0.8917
-6.1285 25.2388 4.5796 0.8999
-7.1010 25.2751 4.6292 0.8989
-8.1074 25.3480 4.6926 0.8975
-10.2260 25.5347 4.8501 0.8943
-12.5169 25.7628 5.0504 0.8902
-15.4952 22.8957 4.8748 0.8938
-0.8076 33.4295 5.1227 0.8734
-1.9929 33.2698 5.1059 0.8738
-2.6602 27.7686 4.2735 0.8933
-4.6254 27.4630 4.2664 0.8934
-6.0065 24.7365 3.8996 0.9021
-11.0511 24.9751 4.1839 0.8954
-12.1840 25.0776 4.2712 0.8933
-13.3697 25.1904 4.3689 0.8910
-14.6160 25.3146 4.4780 0.8884
-15.0099 23.9788 4.3337 0.8918
-14.8004 21.8689 4.0453 0.8987
-16.5413 21.0374 4.0997 0.8974
-0.8171 33.8239 4.4059 0.8724
-3.6597 27.7377 3.6433 0.8933
-5.8867 24.2431 3.2487 0.9043
-7.7430 24.2085 3.3098 0.9026
-11.8705 24.4323 3.5372 0.8962
-13.0180 24.5277 3.6160 0.8940
0.4056 35.2033 3.7804 0.8679
-1.7141 28.6160 3.0783 0.8911
-2.7014 28.1988 3.0419 0.8923
-4.7806 28.3843 3.0909 0.8907
-8.5321 23.7240 2.7073 0.9035
-10.5338 23.8058 2.7954 0.9006
-11.5894 23.8537 2.8478 0.8988
-13.8511 23.9898 2.9746 0.8945
-14.4002 21.2776 2.7589 0.9018
-15.5439 21.2901 2.8306 0.8994
-16.7497 21.3025 2.9099 0.8967
-0.8471 35.0630 2.9690 0.8687
-3.0654 31.9981 2.7211 0.8789
-4.8486 28.7878 2.4713 0.8894
-5.9295 28.8750 2.4954 0.8884
-6.6312 23.6031 2.0754 0.9063
-8.4957 23.6228 2.1251 0.9041
-9.4644 23.6330 2.1551 0.9029
-12.5604 23.6656 2.2680 0.8980
-13.5333 23.4395 2.2912 0.8970
-13.6313 21.7766 2.1748 0.9020
-14.4007 21.2784 2.1750 0.9020
-15.5192 21.2562 2.2279 0.8997
-16.7174 21.2613 2.2896 0.8971
-1.9130 31.9357 1.9839 0.8797
-3.0967 32.3257 2.0137 0.8780
-3.9736 30.1168 1.8837 0.8854
-4.8517 28.8063 1.8114 0.8895
-6.1702 25.4107 1.6215 0.9005
-6.6313 23.6035 1.5203 0.9064
-7.2561 22.6864 1.4770 0.9090
-9.2115 23.0015 1.5364 0.9055
-11.2665 23.1892 1.5987 0.9018
-13.4456 23.2875 1.6675 0.8978
-13.6352 21.7826 1.5936 0.9021
-15.5195 21.2567 1.6321 0.8999
-16.7237 21.2693 1.6778 0.8972
2.6561 7.6892 0.3208 0.9680
-6.5811 20.5758 0.8518 0.9172
-8.8799 20.0682 0.8653 0.9159
-9.7546 20.0774 0.8802 0.9145
-10.9546 20.6400 0.9214 0.9107
-11.9533 20.7030 0.9426 0.9087
-13.0039 20.7742 0.9664 0.9065
-16.7240 21.2698 1.0669 0.8973
2.6561 7.6891 0.1374 0.9680
2.7244 32.7983 0.5559 0.8766
-0.1567 6.4873 0.1096 0.9744
-6.6316 23.6044 0.4142 0.9066
-8.3998 23.3561 0.4193 0.9055
-9.3575 23.3663 0.4252 0.9042
-12.4187 23.3986 0.4475 0.8994
-13.0683 22.6341 0.4415 0.9007
-5.1229 7.0169 0.1468 0.9658
-5.4673 6.4649 0.1430 0.9667
2.7230 32.7824 -0.1852 0.8767
-0.1567 6.4873 -0.0365 0.9744
-0.3935 6.5704 -0.0371 0.9740
-0.6293 6.5696 -0.0372 0.9739
-0.8667 6.5689 -0.0373 0.9738
-1.1062 6.5682 -0.0375 0.9737
-1.8446 6.5659 -0.0384 0.9731
-2.3607 6.5643 -0.0393 0.9725
-2.6285 6.5635 -0.0398 0.9721
-2.9038 6.5626 -0.0404 0.9717
-3.4821 6.5608 -0.0418 0.9707
-3.7875 6.5599 -0.0426 0.9702
-4.7871 6.5568 -0.0457 0.9680
-5.1227 6.5152 -0.0467 0.9674
-5.4674 6.4650 -0.0477 0.9667
2.6561 7.6891 -0.2291 0.9680
2.7217 32.7665 -0.9258 0.8767
0.0748 6.4880 -0.1827 0.9744
-0.1567 6.4873 -0.1827 0.9744
-0.3935 6.5704 -0.1853 0.9740
-1.1062 6.5682 -0.1875 0.9737
-1.3486 6.5674 -0.1888 0.9735
-2.0998 6.5651 -0.1941 0.9728
-3.1880 6.5618 -0.2054 0.9712
-3.4821 6.5609 -0.2091 0.9707
-3.7875 6.5599 -0.2133 0.9701
-4.1056 6.5590 -0.2179 0.9695
-4.4382 6.5579 -0.2230 0.9688
-4.7871 6.5569 -0.2286 0.9680
28.6865 40.3512 -2.5108 0.8201
2.6561 7.6891 -0.4126 0.9679
11.1413 48.5495 -2.5261 0.8191
9.3517 48.6515 -2.5125 0.8200
7.5697 48.6920 -2.4990 0.8209
5.7972 48.6719 -2.4858 0.8218
2.7078 32.5991 -1.6589 0.8772
0.0748 6.4881 -0.3291 0.9743
-0.1567 6.4874 -0.3291 0.9743
-0.6293 6.5697 -0.3347 0.9739
-0.8667 6.5690 -0.3360 0.9738
-2.0998 6.5652 -0.3496 0.9728
-2.3608 6.5644 -0.3538 0.9724
-2.6285 6.5635 -0.3586 0.9721
-2.9039 6.5627 -0.3639 0.9717
-3.7875 6.5600 -0.3842 0.9701
-4.1057 6.5590 -0.3924 0.9695
-5.1252 6.5184 -0.4205 0.9673
-5.4674 6.4650 -0.4294 0.9667
20.6757 29.0833 -2.6164 0.8667
19.5656 29.7118 -2.6085 0.8670
16.1280 31.3371 -2.5841 0.8682
13.7644 32.2001 -2.5676 0.8690
2.6561 7.6891 -0.5965 0.9679
7.7056 33.5783 -2.5260 0.8709
6.4817 33.7206 -2.5177 0.8713
3.7889 31.8108 -2.3489 0.8794
2.6481 31.8798 -2.3456 0.8796
1.5102 31.9733 -2.3470 0.8795
0.0748 6.4881 -0.4757 0.9743
-0.6293 6.5697 -0.4839 0.9739
-0.8667 6.5690 -0.4858 0.9738
-1.1062 6.5683 -0.4884 0.9736
-1.3486 6.5675 -0.4916 0.9735
-2.0998 6.5652 -0.5054 0.9727
-2.3608 6.5644 -0.5115 0.9724
-2.9039 6.5627 -0.5262 0.9716
-3.1880 6.5619 -0.5349 0.9712
-3.4821 6.5610 -0.5446 0.9706
-3.7875 6.5600 -0.5554 0.9701
-4.1057 6.5590 -0.5674 0.9694
-4.4382 6.5580 -0.5806 0.9687
-5.4675 6.4651 -0.6208 0.9666
15.6226 21.9754 -2.5885 0.8973
14.7948 22.4670 -2.5826 0.8975
11.3409 24.1124 -2.5582 0.8985
9.5461 24.7380 -2.5457 0.8989
6.7979 25.4257 -2.5267 0.8996
5.8720 25.5878 -2.5204 0.8999
3.7683 24.2396 -2.3551 0.9061
2.8979 24.3301 -2.3523 0.9062
2.0291 24.4290 -2.3534 0.9062
1.1542 24.4368 -2.3487 0.9064
-0.3936 6.5705 -0.6319 0.9739
-0.6293 6.5698 -0.6336 0.9738
-0.8667 6.5690 -0.6361 0.9737
-1.1062 6.5683 -0.6395 0.9736
-1.3486 6.5675 -0.6437 0.9734
-1.5945 6.5668 -0.6488 0.9732
-2.0998 6.5652 -0.6617 0.9727
-2.3608 6.5644 -0.6697 0.9724
-2.6285 6.5636 -0.6788 0.9720
-3.4822 6.5610 -0.7131 0.9706
-3.7875 6.5601 -0.7272 0.9700
-4.1057 6.5591 -0.7429 0.9694
13.1889 17.2170 -2.5762 0.9163
12.5437 17.6445 -2.5716 0.9165
11.2121 18.4252 -2.5620 0.9168
10.5277 18.7777 -2.5572 0.9169
9.8323 19.1044 -2.5523 0.9171
8.4124 19.6797 -2.5423 0.9174
2.6561 7.6891 -0.9663 0.9678
5.1500 19.2621 -2.3684 0.9228
4.4507 19.3943 -2.3637 0.9230
2.3466 19.7012 -2.3568 0.9232
0.9326 19.7448 -2.3480 0.9235
-0.1567 6.4874 -0.7708 0.9742
-0.3935 6.5705 -0.7819 0.9738
-0.6293 6.5698 -0.7840 0.9738
-0.8667 6.5691 -0.7871 0.9737
-1.1062 6.5683 -0.7912 0.9735
-1.3486 6.5676 -0.7964 0.9734
-1.5945 6.5668 -0.8027 0.9731
-2.3608 6.5645 -0.8287 0.9723
-2.6285 6.5636 -0.8399 0.9719
-2.9039 6.5628 -0.8525 0.9715
-3.1881 6.5619 -0.8666 0.9710
-4.1057 6.5591 -0.9192 0.9693
-4.4383 6.5581 -0.9406 0.9686
10.4694 14.7266 -2.5601 0.9296
9.3637 15.3876 -2.5522 0.9298
8.2166 15.9649 -2.5441 0.9300
7.6295 16.2214 -2.5399 0.9301
6.4323 16.6690 -2.5316 0.9304
2.6561 7.6891 -1.1526 0.9677
4.3121 16.1281 -2.3654 0.9348
3.7278 16.2441 -2.3614 0.9349
1.3738 16.5393 -2.3515 0.9352
0.0748 6.4882 -0.9194 0.9741
-0.6293 6.5698 -0.9351 0.9737
-0.8667 6.5691 -0.9388 0.9736
-1.3486 6.5676 -0.9500 0.9733
-2.0998 6.5653 -0.9766 0.9725
-2.6285 6.5637 -1.0018 0.9718
-2.9039 6.5628 -1.0168 0.9714
-3.7876 6.5601 -1.0733 0.9699
-4.1057 6.5592 -1.0964 0.9692
-4.4383 6.5581 -1.1220 0.9685
-4.7873 6.5571 -1.1503 0.9677
-5.1303 6.5248 -1.1760 0.9670
-5.4676 6.4652 -1.1997 0.9664
9.4045 12.2767 -2.5477 0.9392
8.5083 12.9204 -2.5485 0.9392
8.0312 13.1979 -2.5451 0.9393
5.1870 13.4417 -2.3735 0.9433
3.2065 13.9725 -2.3617 0.9435
1.6899 14.1881 -2.3539 0.9437
0.6722 14.2325 -2.3473 0.9439
0.0748 6.4882 -1.0689 0.9740
-0.3936 6.5706 -1.0844 0.9737
-0.6293 6.5699 -1.0873 0.9736
-0.8667 6.5691 -1.0916 0.9735
-1.1062 6.5684 -1.0973 0.9734
-1.5945 6.5669 -1.1132 0.9730
-1.8447 6.5661 -1.1236 0.9727
-2.0998 6.5653 -1.1355 0.9724
-2.3608 6.5645 -1.1492 0.9721
-3.4822 6.5611 -1.2237 0.9703
-3.7876 6.5602 -1.2479 0.9698
-4.1058 6.5592 -1.2748 0.9691
-4.4384 6.5582 -1.3045 0.9684
-4.7873 6.5571 -1.3375 0.9676
-5.1315 6.5264 -1.3677 0.9669
8.2455 10.7638 -2.5486 0.9463
7.0242 11.5430 -2.5398 0.9465
6.6001 11.7722 -2.5368 0.9466
6.1686 11.9857 -2.5337 0.9466
3.6809 12.0299 -2.3646 0.9501
2.3684 12.3212 -2.3583 0.9502
1.4806 12.4304 -2.3529 0.9503
-1.8447 6.5662 -1.2819 0.9726
-2.0998 6.5654 -1.2956 0.9723
-2.3608 6.5646 -1.3112 0.9720
-2.6285 6.5638 -1.3290 0.9716
-3.4822 6.5611 -1.3962 0.9702
-4.7873 6.5572 -1.5260 0.9675
-5.1328 6.5281 -1.5609 0.9668
-5.4677 6.4653 -1.5915 0.9661
6.9647 9.7968 -2.5408 0.9520
5.5043 9.8176 -2.3792 0.9550
4.7790 10.1609 -2.3735 0.9551
4.4087 10.3136 -2.3709 0.9552
4.0336 10.4527 -2.3683 0.9552
1.3161 11.0498 -2.3522 0.9555
0.9201 11.0774 -2.3496 0.9556
0.5238 11.0901 -2.3468 0.9556
-1.1062 6.5685 -1.4080 0.9731
-1.3486 6.5677 -1.4172 0.9730
-1.5945 6.5670 -1.4284 0.9727
-2.0998 6.5654 -1.4570 0.9722
-2.3609 6.5646 -1.4746 0.9719
-2.6286 6.5638 -1.4946 0.9715
-3.1881 6.5621 -1.5421 0.9706
-3.4823 6.5612 -1.5701 0.9701
-3.7877 6.5602 -1.6012 0.9695
-4.1058 6.5593 -1.6357 0.9689
-4.7874 6.5572 -1.7161 0.9674
-5.1341 6.5298 -1.7558 0.9666
-5.4677 6.4653 -1.7898 0.9660
5.5700 8.4584 -2.3802 0.9592
5.2598 8.6436 -2.3780 0.9593
4.6213 8.9794 -2.3734 0.9594
4.2939 9.1296 -2.3711 0.9594
3.9616 9.2678 -2.3688 0.9594
3.6249 9.3939 -2.3664 0.9595
2.5938 9.7015 -2.3602 0.9596
2.2441 9.7791 -2.3580 0.9596
1.5385 9.8962 -2.3538 0.9597
1.1834 9.9357 -2.3516 0.9597
0.8274 9.9612 -2.3492 0.9598
-0.8667 6.5692 -1.5573 0.9731
-1.3487 6.5677 -1.5758 0.9728
-2.3609 6.5646 -1.6396 0.9717
-2.6286 6.5638 -1.6617 0.9714
-3.1882 6.5621 -1.7146 0.9705
-3.4823 6.5612 -1.7457 0.9699
-4.1058 6.5593 -1.8187 0.9687
-4.7874 6.5572 -1.9081 0.9672
-5.1355 6.5314 -1.9527 0.9664
4.7691 7.8373 -2.3754 0.9628
4.4827 7.9955 -2.3733 0.9628
4.1910 8.1432 -2.3713 0.9629
3.2883 8.5214 -2.3649 0.9630
2.5854 7.4844 -2.0502 0.9678
2.0361 8.8725 -2.3570 0.9631
0.7509 9.0405 -2.3488 0.9632
-0.3936 6.5707 -1.7043 0.9732
-0.8667 6.5693 -1.7156 0.9730
-1.5946 6.5670 -1.7497 0.9725
-2.0999 6.5655 -1.7847 0.9719
-2.3609 6.5647 -1.8063 0.9716
-2.6286 6.5639 -1.8307 0.9712
-2.9040 6.5630 -1.8582 0.9708
-3.1882 6.5622 -1.8890 0.9703
-3.7877 6.5603 -1.9614 0.9692
-4.1059 6.5594 -2.0036 0.9685
-4.7874 6.5573 -2.1021 0.9670
-5.1368 6.5331 -2.1518 0.9662
4.8648 6.8430 -2.3768 0.9657
4.6141 7.0068 -2.3750 0.9657
4.3579 7.1614 -2.3732 0.9658
4.0964 7.3065 -2.3713 0.9658
2.9860 7.7381 -2.3481 0.9661
2.5904 7.4990 -2.2460 0.9676
2.1512 8.0461 -2.3578 0.9660
1.2766 8.2114 -2.3525 0.9660
0.6867 8.2674 -2.3485 0.9661
0.3911 8.2796 -2.3465 0.9661
0.0748 6.4884 -1.8369 0.9734
-0.1567 6.4877 -1.8371 0.9734
-0.6294 6.5700 -1.8684 0.9729
-0.8667 6.5693 -1.8758 0.9728
-1.1062 6.5686 -1.8857 0.9727
-1.3487 6.5678 -1.8981 0.9725
-1.5946 6.5671 -1.9131 0.9723
-1.8447 6.5663 -1.9308 0.9720
-2.0999 6.5655 -1.9514 0.9718
-2.9040 6.5631 -2.0317 0.9706
-3.1882 6.5622 -2.0653 0.9701
-3.4823 6.5613 -2.1028 0.9696
-3.7877 6.5604 -2.1445 0.9690
-4.1059 6.5594 -2.1907 0.9683
-4.4385 6.5584 -2.2418 0.9676
-5.0458 6.4173 -2.3110 0.9666
5.0030 6.5309 -2.5304 0.9662
3.7676 6.7200 -2.3696 0.9683
2.7653 7.1661 -2.3626 0.9684
2.2439 7.3338 -2.3589 0.9684
1.9794 7.4034 -2.3571 0.9684
1.1747 7.5561 -2.3520 0.9685
0.9037 7.5872 -2.3501 0.9685
0.3599 7.6205 -2.3465 0.9686
0.0748 6.4884 -1.9958 0.9732
-0.1567 6.4877 -1.9960 0.9732
-0.3936 6.5708 -2.0246 0.9728
-0.6294 6.5701 -2.0300 0.9728
-1.1063 6.5686 -2.0488 0.9725
-2.0999 6.5655 -2.1202 0.9716
-2.3609 6.5648 -2.1458 0.9712
-2.9040 6.5631 -2.2074 0.9704
-3.1882 6.5622 -2.2440 0.9699
-3.7706 6.5306 -2.3194 0.9689
-3.9987 6.3880 -2.3180 0.9690
4.3741 6.1528 -2.5094 0.9687
2.7945 6.5374 -2.3633 0.9705
2.0758 6.7841 -2.3583 0.9705
1.3362 6.9518 -2.3531 0.9706
1.0867 6.9904 -2.3515 0.9706
0.8361 7.0197 -2.3499 0.9706
0.3330 7.0513 -2.3465 0.9707
0.0748 6.4885 -2.1569 0.9730
-0.3936 6.5708 -2.1881 0.9726
-0.6294 6.5701 -2.1939 0.9726
-1.3487 6.5679 -2.2287 0.9721
-1.5946 6.5671 -2.2464 0.9719
-1.8447 6.5664 -2.2672 0.9717
-2.1356 6.6770 -2.3302 0.9709
-2.8312 6.3985 -2.3258 0.9709
-3.0558 6.2896 -2.3244 0.9710
-3.4924 6.0487 -2.3217 0.9710
-3.9104 5.7779 -2.3191 0.9710
-4.1118 5.6318 -2.3179 0.9710
-4.3079 5.4788 -2.3167 0.9710
3.6530 5.5473 -2.3752 0.9722
3.4427 5.6576 -2.3683 0.9723
2.8134 5.9816 -2.3639 0.9723
1.7018 6.3650 -2.3561 0.9724
1.4727 6.4174 -2.3545 0.9724
1.2420 6.4615 -2.3530 0.9724
1.0101 6.4973 -2.3514 0.9725
0.7771 6.5248 -2.3498 0.9725
0.0756 6.5573 -2.3451 0.9725
-0.1583 6.5515 -2.3435 0.9725
-0.3916 6.5373 -2.3420 0.9726
-0.8555 6.4843 -2.3389 0.9726
-1.7646 6.2808 -2.3330 0.9727
-1.9863 6.2101 -2.3316 0.9727
-2.2052 6.1316 -2.3302 0.9727
-2.4211 6.0455 -2.3288 0.9727
-2.6336 5.9519 -2.3275 0.9727
-3.0479 5.7426 -2.3249 0.9728
-3.2490 5.6272 -2.3237 0.9728
-3.8257 5.2400 -2.3201 0.9728
-4.0083 5.0977 -2.3190 0.9728
-4.1856 4.9493 -2.3180 0.9728
4.0066 5.2303 -2.5249 0.9722
2.4221 5.6663 -2.3615 0.9739
2.2171 5.7456 -2.3601 0.9740
1.1589 6.0291 -2.3528 0.9740
0.9425 6.0628 -2.3513 0.9741
0.7252 6.0888 -2.3498 0.9741
0.5072 6.1069 -2.3484 0.9741
0.2889 6.1173 -2.3469 0.9741
0.0705 6.1199 -2.3454 0.9741
-0.1477 6.1148 -2.3440 0.9741
-0.3655 6.1018 -2.3425 0.9742
-0.5826 6.0812 -2.3411 0.9742
-1.0134 6.0169 -2.3383 0.9742
-1.2267 5.9734 -2.3369 0.9742
-1.4381 5.9224 -2.3355 0.9742
-2.0590 5.7251 -2.3315 0.9743
-2.2606 5.6449 -2.3302 0.9743
-2.6545 5.4636 -2.3278 0.9743
-2.8462 5.3626 -2.3266 0.9743
-3.2181 5.1410 -2.3243 0.9744
-3.9640 4.6872 -2.3525 0.9740
3.5706 5.0226 -2.5221 0.9737
3.3874 5.1440 -2.5208 0.9737
2.6426 5.1345 -2.3634 0.9754
2.4563 5.2226 -2.3621 0.9754
2.0754 5.3784 -2.3594 0.9754
1.8812 5.4458 -2.3581 0.9754
1.2864 5.6059 -2.3540 0.9754
0.8825 5.6766 -2.3512 0.9755
0.6791 5.7012 -2.3498 0.9755
0.2706 5.7284 -2.3471 0.9755
0.0660 5.7310 -2.3457 0.9755
-0.1383 5.7264 -2.3444 0.9755
-0.7480 5.6691 -2.3403 0.9756
-1.1489 5.5951 -2.3377 0.9756
-1.3471 5.5475 -2.3364 0.9756
-1.5432 5.4930 -2.3352 0.9756
-1.9289 5.3633 -2.3327 0.9757
-2.1178 5.2883 -2.3315 0.9757
-2.3039 5.2068 -2.3303 0.9757
-2.6667 5.0244 -2.3281 0.9757
-2.8429 4.9238 -2.3270 0.9757
-3.4214 4.6862 -2.3747 0.9752
-3.9011 4.6129 -2.4725 0.9742
3.5193 4.5941 -2.5221 0.9751
3.3515 4.7144 -2.5209 0.9751
3.0039 4.9364 -2.5184 0.9751
2.8229 5.0350 -2.5157 0.9751
2.5452 4.9454 -2.4240 0.9760
2.3060 4.9030 -2.3614 0.9766
1.9486 5.0496 -2.3589 0.9767
1.7663 5.1131 -2.3576 0.9767
1.5819 5.1701 -2.3563 0.9767
1.0189 5.3007 -2.3524 0.9767
0.4461 5.3704 -2.3486 0.9768
0.0620 5.3826 -2.3460 0.9768
-0.1299 5.3784 -2.3447 0.9768
-0.7026 5.3252 -2.3409 0.9768
-1.2655 5.2115 -2.3373 0.9769
-1.6321 5.1029 -2.3349 0.9769
-1.8122 5.0389 -2.3337 0.9769
-1.9898 4.9687 -2.3326 0.9769
-2.1647 4.8922 -2.3315 0.9769
-2.3368 4.8097 -2.3304 0.9769
-2.7094 4.6926 -2.3615 0.9766
-2.9313 4.6828 -2.4077 0.9762
-3.3504 4.5889 -2.4762 0.9755
3.3120 4.3235 -2.5210 0.9763
3.1542 4.4368 -2.5198 0.9763
2.9925 4.5444 -2.5187 0.9763
2.8272 4.6460 -2.5175 0.9763
2.6584 4.7417 -2.5163 0.9763
2.4864 4.8311 -2.5150 0.9763
1.8430 4.7762 -2.3697 0.9777
1.6627 4.8132 -2.3571 0.9778
1.4892 4.8670 -2.3559 0.9778
0.7802 5.0189 -2.3511 0.9779
0.4200 5.0565 -2.3486 0.9779
0.2393 5.0657 -2.3474 0.9779
-0.3028 5.0544 -2.3438 0.9779
-0.4826 5.0379 -2.3426 0.9779
-1.0165 4.9501 -2.3391 0.9780
-1.1919 4.9083 -2.3380 0.9780
-1.3655 4.8603 -2.3369 0.9780
-1.5372 4.8063 -2.3358 0.9780
-1.7069 4.7462 -2.3347 0.9780
-2.0768 4.6935 -2.3757 0.9776
-2.4825 4.6774 -2.4511 0.9769
-2.6797 4.6411 -2.4807 0.9767
-3.1564 4.3232 -2.4778 0.9767
3.1240 4.0782 -2.5199 0.9774
2.9753 4.1852 -2.5188 0.9774
2.6670 4.3828 -2.5166 0.9774
2.1805 4.6362 -2.5132 0.9774
2.0129 4.7088 -2.5120 0.9774
1.6340 4.7303 -2.4549 0.9779
0.5666 4.7569 -2.3499 0.9789
0.3964 4.7718 -2.3487 0.9789
0.2258 4.7805 -2.3476 0.9789
-0.2858 4.7704 -2.3442 0.9789
-0.4555 4.7549 -2.3430 0.9789
-0.7941 4.7150 -2.3454 0.9789
-1.1411 4.6994 -2.3722 0.9787
-1.3190 4.6948 -2.3921 0.9785
-1.4999 4.6895 -2.4151 0.9783
-1.8730 4.6771 -2.4713 0.9778
-2.0498 4.6326 -2.4849 0.9777
-2.3729 4.4710 -2.4829 0.9777
-2.5299 4.3818 -2.4819 0.9777
-2.8338 4.1871 -2.4800 0.9777
-2.9802 4.0819 -2.4791 0.9777
-3.1229 3.9716 -2.4783 0.9777
-3.2614 3.8564 -2.4775 0.9777
2.9527 3.8546 -2.5190 0.9784
2.8123 3.9558 -2.5179 0.9784
2.6683 4.0519 -2.5169 0.9784
2.5210 4.1428 -2.5158 0.9784
2.0613 4.3827 -2.5126 0.9784
1.9028 4.4514 -2.5115 0.9784
1.4145 4.6230 -2.5080 0.9785
1.2482 4.6683 -2.5069 0.9785
1.0761 4.6891 -2.4958 0.9786
0.9018 4.6913 -2.4783 0.9787
0.7296 4.6930 -2.4639 0.9788
-0.1134 4.6935 -2.4356 0.9791
-0.2811 4.6920 -2.4385 0.9790
-0.4493 4.6900 -2.4442 0.9790
-0.7890 4.6844 -2.4644 0.9788
-1.4615 4.5695 -2.4889 0.9786
-1.7821 4.4501 -2.4868 0.9786
-1.9389 4.3819 -2.4858 0.9786
-2.0932 4.3083 -2.4849 0.9786
-2.2446 4.2293 -2.4839 0.9787
2.7959 3.6497 -2.5181 0.9793
2.5266 3.8368 -2.5161 0.9793
2.0997 4.0798 -2.5131 0.9793
1.9521 4.1503 -2.5120 0.9793
1.8020 4.2156 -2.5110 0.9793
1.6498 4.2753 -2.5099 0.9793
1.4956 4.3296 -2.5088 0.9793
1.1821 4.4214 -2.5067 0.9793
1.0232 4.4588 -2.5056 0.9794
0.8631 4.4905 -2.5045 0.9794
0.7021 4.5164 -2.5034 0.9794
0.2154 4.5596 -2.5001 0.9794
-0.1102 4.5594 -2.4979 0.9794
-0.9154 4.4580 -2.4926 0.9795
-1.2299 4.3778 -2.4906 0.9795
-1.3847 4.3295 -2.4896 0.9795
-1.8372 4.1520 -2.4867 0.9795
-2.1270 4.0075 -2.4849 0.9795
-2.5403 3.7535 -2.4824 0.9795
-2.7996 3.5606 -2.4808 0.9796
-2.9240 3.4574 -2.4800 0.9796
2.6514 3.4612 -2.5173 0.9801
2.5254 3.5523 -2.5164 0.9801
2.2640 3.7205 -2.5145 0.9801
2.1290 3.7974 -2.5135 0.9801
1.8514 3.9365 -2.5115 0.9801
1.5648 4.0552 -2.5095 0.9801
1.2707 4.1530 -2.5075 0.9801
1.1213 4.1940 -2.5064 0.9801
0.8188 4.2597 -2.5044 0.9802
0.6661 4.2844 -2.5033 0.9802
0.3586 4.3174 -2.5012 0.9802
-0.1045 4.3257 -2.4981 0.9802
-0.2586 4.3174 -2.4971 0.9802
-0.5653 4.2845 -2.4951 0.9802
-0.7175 4.2599 -2.4941 0.9802
-0.8686 4.2300 -2.4931 0.9803
-1.3140 4.1082 -2.4903 0.9803
-1.6024 4.0011 -2.4884 0.9803
-2.1521 3.7274 -2.4850 0.9803
-2.2830 3.6471 -2.4842 0.9803
