ply
format ascii 1.0
element vertex 444
property float32 x
property float32 y
property float32 z
property float32 I
end_header
44.9740 19.9757 8.6772 0.8188
2.5365 7.6965 1.4289 0.9676
-2.3169 28.6371 5.0660 0.8899
-3.2765 27.8744 4.2996 0.8926
2.5359 7.6947 1.0550 0.9678
-0.2771 33.9224 4.4175 0.8721
-3.2204 27.3964 3.5921 0.8947
-1.4030 31.5431 3.3905 0.8807
-2.2393 27.6778 2.9818 0.8943
-3.3022 28.0925 3.0374 0.8924
2.5353 7.6929 0.6857 0.9680
-2.6128 32.2942 2.7427 0.8780
-3.3695 28.6650 2.4433 0.8906
2.5350 7.6920 0.5022 0.9681
-2.6447 32.6896 2.0337 0.8768
-3.7362 31.7849 1.9846 0.8796
-0.2885 6.4868 0.1097 0.9744
2.5341 7.6893 -0.0456 0.9681
-0.2885 6.4869 -0.0366 0.9744
-0.5315 6.5699 -0.0371 0.9740
-0.7721 6.5691 -0.0372 0.9739
37.8611 18.4887 -1.1864 0.8448
37.8682 20.2252 -1.2088 0.8422
37.8756 22.0310 -1.2338 0.8392
37.8913 25.8890 -1.2922 0.8322
37.9180 32.4753 -1.4057 0.8189
-0.5315 6.5699 -0.1856 0.9740
-0.7721 6.5692 -0.1862 0.9739
37.8480 16.8106 -2.1003 0.8472
37.8690 22.0272 -2.2218 0.8391
31.3834 38.7170 -2.5275 0.8190
2.5336 7.6875 -0.4105 0.9681
10.3451 48.6517 -2.5225 0.8194
8.5271 48.7298 -2.5088 0.8203
6.7178 48.7445 -2.4954 0.8211
4.9191 48.6968 -2.4822 0.8220
1.3715 48.7723 -2.4744 0.8225
-0.0530 6.4876 -0.3290 0.9743
-0.5315 6.5699 -0.3343 0.9739
31.7682 14.1102 -2.5487 0.8699
31.1773 15.2248 -2.5440 0.8701
28.9495 19.7795 -2.5708 0.8688
28.5337 22.6967 -2.6733 0.8640
27.6218 23.6569 -2.6666 0.8643
26.6760 24.5792 -2.6596 0.8646
23.6522 27.1069 -2.6378 0.8656
21.4992 28.5833 -2.6225 0.8664
19.2537 29.8857 -2.6067 0.8671
15.7449 31.5031 -2.5823 0.8683
14.5452 31.9510 -2.5740 0.8687
13.3336 32.3530 -2.5658 0.8691
12.1119 32.7089 -2.5574 0.8695
8.4040 33.4996 -2.5324 0.8706
7.1597 33.6712 -2.5240 0.8710
5.9141 33.7971 -2.5157 0.8714
4.3846 31.8144 -2.3547 0.8791
2.0609 31.9607 -2.3483 0.8795
0.9000 32.0050 -2.3476 0.8795
-0.0530 6.4877 -0.4757 0.9743
24.8703 12.1449 -2.6571 0.8947
24.3774 13.0198 -2.6532 0.8949
23.8521 13.8739 -2.6491 0.8950
22.7079 15.5150 -2.6403 0.8954
21.4460 17.0589 -2.6308 0.8957
19.3520 19.1746 -2.6154 0.8963
17.8359 20.4411 -2.6045 0.8967
17.0456 21.0288 -2.5988 0.8969
13.6999 23.0614 -2.5752 0.8978
11.0340 24.2380 -2.5567 0.8985
10.1227 24.5621 -2.5505 0.8987
9.2024 24.8516 -2.5442 0.8990
2.5330 7.6858 -0.7769 0.9680
6.4003 25.5125 -2.5252 0.8997
5.1246 24.1003 -2.3655 0.9057
3.3470 24.2860 -2.3536 0.9062
1.5770 24.4561 -2.3528 0.9062
0.6872 24.4374 -2.3470 0.9064
-0.2885 6.4869 -0.6234 0.9742
20.2262 8.9837 -2.6289 0.9147
19.8649 9.7006 -2.6260 0.9148
18.6243 11.7573 -2.6163 0.9151
18.1609 12.4083 -2.6127 0.9152
17.6739 13.0404 -2.6090 0.9153
17.1640 13.6528 -2.6052 0.9154
16.6322 14.2448 -2.6012 0.9156
14.3034 16.3926 -2.5842 0.9161
13.6755 16.8711 -2.5797 0.9162
13.0313 17.3252 -2.5752 0.9164
10.3118 18.8863 -2.5560 0.9170
9.6013 19.2108 -2.5511 0.9171
8.8809 19.5083 -2.5461 0.9173
8.1513 19.7785 -2.5411 0.9174
2.5327 7.6849 -0.9612 0.9679
4.8493 19.3300 -2.3673 0.9229
4.1366 19.4537 -2.3625 0.9230
3.4213 19.5512 -2.3577 0.9232
2.7103 19.6654 -2.3581 0.9231
1.9933 19.7320 -2.3558 0.9232
-0.0530 6.4877 -0.7707 0.9742
-0.5315 6.5700 -0.7830 0.9738
-0.7722 6.5692 -0.7857 0.9737
16.8193 7.4705 -2.6076 0.9283
16.2026 8.6537 -2.6026 0.9285
15.8616 9.2262 -2.6000 0.9285
14.2946 11.3704 -2.5880 0.9289
13.8552 11.8664 -2.5847 0.9290
13.3550 12.3053 -2.5730 0.9293
11.4079 14.0738 -2.5669 0.9294
10.8737 14.4567 -2.5631 0.9295
10.3266 14.8191 -2.5592 0.9296
9.7672 15.1605 -2.5553 0.9297
8.6151 15.7787 -2.5472 0.9299
7.4244 16.3088 -2.5390 0.9302
6.8166 16.5400 -2.5348 0.9303
6.2019 16.7485 -2.5306 0.9304
2.5324 7.6840 -1.1463 0.9678
4.6529 16.0553 -2.3685 0.9347
4.0606 16.1861 -2.3645 0.9348
3.4650 16.2950 -2.3605 0.9349
2.8718 16.4114 -2.3607 0.9349
1.0676 16.5555 -2.3506 0.9352
0.4655 16.5540 -2.3465 0.9353
-0.2885 6.4870 -0.9200 0.9741
-0.5315 6.5700 -0.9339 0.9737
-0.7721 6.5693 -0.9372 0.9736
14.3813 6.3876 -2.5923 0.9382
13.8578 7.4014 -2.5881 0.9383
13.5683 7.8922 -2.5858 0.9383
13.2608 8.3714 -2.5835 0.9384
12.5941 9.2924 -2.5784 0.9385
12.2359 9.7329 -2.5757 0.9386
11.4729 10.5710 -2.5700 0.9387
11.0691 10.9676 -2.5670 0.9388
10.6198 11.3148 -2.5564 0.9390
10.2203 11.7130 -2.5609 0.9389
9.3207 12.3919 -2.5544 0.9391
8.8536 12.7053 -2.5511 0.9392
7.3911 13.5371 -2.5408 0.9394
6.8857 13.7772 -2.5373 0.9395
6.3725 13.9982 -2.5338 0.9396
5.4959 13.3352 -2.3761 0.9432
5.0014 13.5065 -2.3727 0.9433
2.5321 7.6831 -1.3327 0.9677
3.4895 13.9094 -2.3624 0.9435
2.9826 14.0264 -2.3624 0.9435
2.4686 14.1071 -2.3593 0.9436
1.9527 14.1689 -2.3562 0.9437
0.9179 14.2345 -2.3498 0.9438
-0.2885 6.4870 -1.0697 0.9740
12.3299 6.0211 -2.5791 0.9457
10.6856 8.4997 -2.5664 0.9459
9.6707 9.5820 -2.5589 0.9461
8.5453 10.5421 -2.5507 0.9463
8.1482 10.8331 -2.5479 0.9463
7.7411 11.1088 -2.5450 0.9464
7.3246 11.3692 -2.5420 0.9464
6.0246 12.0543 -2.5329 0.9466
5.2369 11.5038 -2.3758 0.9499
2.5318 7.6821 -1.5203 0.9676
3.5007 12.0794 -2.3639 0.9501
2.6119 12.2832 -2.3604 0.9502
2.1621 12.3558 -2.3577 0.9502
1.7106 12.4119 -2.3550 0.9503
-0.0530 6.4878 -1.2195 0.9739
11.1199 4.9390 -2.5719 0.9515
10.4972 6.1058 -2.5669 0.9516
10.2615 6.4779 -2.5651 0.9516
10.0123 6.8408 -2.5632 0.9516
9.7499 7.1938 -2.5612 0.9517
9.4749 7.5366 -2.5591 0.9517
9.1876 7.8687 -2.5570 0.9517
8.8884 8.1897 -2.5548 0.9518
8.2562 8.7966 -2.5501 0.9519
7.2309 9.6135 -2.5428 0.9520
6.8705 9.8595 -2.5402 0.9521
4.6511 10.2168 -2.3729 0.9551
4.2727 10.3674 -2.3703 0.9552
3.8896 10.5039 -2.3676 0.9552
2.5057 7.6030 -1.6922 0.9678
3.1124 10.7395 -2.3635 0.9553
2.7181 10.8345 -2.3612 0.9554
2.3210 10.9150 -2.3588 0.9554
9.9734 4.4298 -2.5648 0.9561
9.6151 5.1353 -2.5619 0.9562
9.4167 5.4774 -2.5603 0.9562
9.2059 5.8116 -2.5587 0.9563
8.2452 7.0617 -2.5514 0.9564
7.6993 7.6288 -2.5473 0.9564
7.1141 8.1532 -2.5431 0.9565
6.8078 8.3986 -2.5409 0.9565
6.4929 8.6323 -2.5386 0.9566
6.1699 8.8542 -2.5363 0.9566
5.1665 8.6969 -2.3774 0.9593
4.8430 8.8701 -2.3752 0.9593
2.7972 9.6520 -2.3618 0.9595
2.0863 9.8117 -2.3575 0.9596
1.3671 9.9191 -2.3533 0.9597
1.0054 9.9525 -2.3510 0.9597
0.2806 9.9779 -2.3460 0.9598
-0.5315 6.5701 -1.5492 0.9733
8.8763 4.3345 -2.5576 0.9600
8.7086 4.6512 -2.5563 0.9600
8.5294 4.9613 -2.5548 0.9600
8.3390 5.2643 -2.5534 0.9601
8.1376 5.5600 -2.5518 0.9601
7.7032 6.1274 -2.5485 0.9601
7.4708 6.3984 -2.5468 0.9602
6.7169 7.1564 -2.5412 0.9603
6.4479 7.3897 -2.5393 0.9603
5.2529 7.5381 -2.3789 0.9627
4.6846 7.8858 -2.3749 0.9628
4.0935 8.1904 -2.3707 0.9629
3.4827 8.4505 -2.3665 0.9629
2.4889 7.5522 -2.0588 0.9677
2.2164 8.8350 -2.3584 0.9631
1.8930 8.9023 -2.3565 0.9631
1.5675 8.9577 -2.3546 0.9631
1.2406 9.0012 -2.3526 0.9632
0.9124 9.0319 -2.3504 0.9632
-0.7722 6.5694 -1.7126 0.9730
7.4302 5.0766 -2.5475 0.9633
7.2370 5.3397 -2.5460 0.9633
7.0343 5.5953 -2.5445 0.9633
6.8224 5.8431 -2.5429 0.9633
6.1351 6.5366 -2.5379 0.9634
5.8899 6.7501 -2.5361 0.9634
5.6371 6.9543 -2.5343 0.9635
5.3772 7.1490 -2.5324 0.9635
4.7992 6.8871 -2.3764 0.9657
4.5428 7.0513 -2.3746 0.9657
4.0133 7.3506 -2.3708 0.9658
3.4643 7.6099 -2.3670 0.9658
2.4805 7.5266 -2.2435 0.9676
2.2393 7.7270 -2.2775 0.9671
1.4332 8.1903 -2.3538 0.9660
0.5337 8.2767 -2.3479 0.9661
-0.2885 6.4871 -1.8383 0.9734
7.4460 3.6361 -2.5487 0.9659
6.9972 4.4173 -2.5452 0.9660
6.4656 5.1430 -2.5411 0.9660
6.2713 5.3710 -2.5396 0.9660
6.0687 5.5917 -2.5381 0.9661
5.8583 5.8046 -2.5366 0.9661
5.4152 6.2061 -2.5334 0.9661
5.1831 6.3942 -2.5317 0.9661
3.9369 6.6271 -2.3709 0.9683
3.6912 6.7606 -2.3692 0.9683
3.4411 6.8850 -2.3674 0.9683
3.1867 7.0000 -2.3657 0.9683
1.8644 7.4315 -2.3566 0.9684
1.0438 7.5737 -2.3515 0.9685
0.7678 7.6005 -2.3496 0.9685
0.4912 7.6174 -2.3478 0.9686
-0.0530 6.4879 -1.9956 0.9732
-0.2885 6.4871 -1.9973 0.9732
-0.7722 6.5694 -2.0345 0.9727
7.0004 3.1093 -2.5462 0.9682
6.7512 3.6058 -2.5441 0.9683
6.6131 3.8466 -2.5431 0.9683
6.4663 4.0821 -2.5419 0.9683
6.3110 4.3119 -2.5407 0.9683
5.9758 4.7534 -2.5382 0.9683
5.2140 5.5552 -2.5325 0.9684
5.0061 5.7373 -2.5310 0.9684
3.6404 6.1280 -2.3693 0.9704
2.9472 6.4740 -2.3645 0.9705
2.4666 6.6613 -2.3612 0.9705
1.7248 6.8750 -2.3561 0.9706
1.4732 6.9281 -2.3544 0.9706
0.7104 7.0321 -2.3494 0.9706
-0.0530 6.4879 -2.1567 0.9730
-0.7722 6.5694 -2.1987 0.9725
6.2680 3.3477 -2.5412 0.9703
6.1401 3.5714 -2.5401 0.9703
5.7083 4.2117 -2.5368 0.9703
5.5491 4.4139 -2.5356 0.9703
5.2093 4.7998 -2.5331 0.9704
4.8424 5.1593 -2.5304 0.9704
4.2461 5.6452 -2.5261 0.9704
3.5884 5.5699 -2.3694 0.9722
3.1712 5.8082 -2.3665 0.9723
2.9566 5.9156 -2.3650 0.9723
2.5167 6.1065 -2.3619 0.9723
2.2920 6.1898 -2.3604 0.9724
2.0647 6.2647 -2.3588 0.9724
1.6029 6.3894 -2.3557 0.9724
1.1339 6.4800 -2.3525 0.9724
0.4225 6.5516 -2.3478 0.9725
0.1844 6.5582 -2.3462 0.9725
-0.7639 6.4987 -2.3400 0.9726
5.9545 2.9078 -2.5394 0.9720
5.8431 3.1207 -2.5385 0.9720
5.7239 3.3294 -2.5376 0.9720
5.4631 3.7326 -2.5356 0.9721
5.3219 3.9267 -2.5345 0.9721
4.8572 4.4754 -2.5310 0.9721
4.5154 4.8109 -2.5285 0.9721
4.3357 4.9690 -2.5272 0.9721
4.1505 5.1203 -2.5258 0.9722
3.9598 5.2646 -2.5245 0.9722
3.4777 5.3981 -2.4608 0.9729
2.1383 5.7744 -2.3597 0.9740
1.7119 5.9069 -2.3568 0.9740
1.4955 5.9614 -2.3553 0.9740
1.2775 6.0079 -2.3538 0.9740
0.3943 6.1142 -2.3479 0.9741
0.1721 6.1206 -2.3465 0.9741
-0.0500 6.1190 -2.3450 0.9741
-0.2717 6.1094 -2.3435 0.9741
-0.4928 6.0917 -2.3421 0.9742
-0.7130 6.0661 -2.3407 0.9742
5.6670 2.5170 -2.5378 0.9736
5.4661 2.9194 -2.5362 0.9736
5.3547 3.1146 -2.5353 0.9736
5.2363 3.3056 -2.5344 0.9736
4.9790 3.6737 -2.5324 0.9736
4.3877 4.3475 -2.5280 0.9737
4.2252 4.5017 -2.5268 0.9737
4.0571 4.6497 -2.5256 0.9737
3.5227 5.0552 -2.5218 0.9737
3.0655 5.1603 -2.4565 0.9744
2.0016 5.4053 -2.3591 0.9754
1.8032 5.4712 -2.3577 0.9754
1.6026 5.5298 -2.3563 0.9754
1.4002 5.5810 -2.3550 0.9754
1.1961 5.6249 -2.3536 0.9755
0.7842 5.6901 -2.3508 0.9755
-0.0468 5.7302 -2.3453 0.9755
-0.2545 5.7214 -2.3439 0.9756
-0.4615 5.7051 -2.3426 0.9756
-0.6678 5.6814 -2.3412 0.9756
5.3173 2.3617 -2.5356 0.9749
5.2265 2.5523 -2.5349 0.9749
5.0246 2.9226 -2.5333 0.9750
4.9136 3.1019 -2.5324 0.9750
4.6723 3.4474 -2.5306 0.9750
4.4066 3.7741 -2.5286 0.9750
3.9655 4.2250 -2.5253 0.9750
3.6454 4.4972 -2.5230 0.9751
3.3066 4.7451 -2.5206 0.9751
3.1308 4.8595 -2.5193 0.9751
2.2446 4.9306 -2.3610 0.9766
2.0632 5.0061 -2.3598 0.9767
1.6930 5.1370 -2.3572 0.9767
1.5047 5.1922 -2.3559 0.9767
0.9303 5.3161 -2.3521 0.9767
0.7364 5.3434 -2.3508 0.9767
0.5418 5.3636 -2.3495 0.9768
0.1514 5.3829 -2.3469 0.9768
-0.4335 5.3587 -2.3430 0.9768
-0.6273 5.3366 -2.3418 0.9768
4.8255 2.5772 -2.5322 0.9762
4.6230 2.9184 -2.5306 0.9762
4.5126 3.0832 -2.5298 0.9762
4.3962 3.2437 -2.5289 0.9762
4.1464 3.5512 -2.5270 0.9762
4.0133 3.6978 -2.5260 0.9762
3.8749 3.8394 -2.5250 0.9762
3.7316 3.9758 -2.5240 0.9763
3.5834 4.1068 -2.5229 0.9763
2.7774 4.6752 -2.5171 0.9763
2.6047 4.7706 -2.5159 0.9763
2.4288 4.8595 -2.5147 0.9763
2.2009 4.8346 -2.4588 0.9769
1.9757 4.7940 -2.4001 0.9774
1.2377 4.9334 -2.3544 0.9778
0.8758 5.0050 -2.3519 0.9779
0.6934 5.0308 -2.3507 0.9779
0.5102 5.0501 -2.3495 0.9779
-0.2250 5.0603 -2.3446 0.9779
-0.4082 5.0462 -2.3434 0.9779
4.7172 2.0952 -2.5319 0.9773
4.4580 2.5931 -2.5298 0.9773
4.3597 2.7522 -2.5290 0.9773
4.2557 2.9076 -2.5282 0.9773
4.1460 3.0591 -2.5274 0.9773
4.0310 3.2064 -2.5265 0.9773
3.7851 3.4876 -2.5247 0.9773
3.6548 3.6213 -2.5237 0.9773
3.3799 3.8736 -2.5217 0.9774
3.2359 3.9920 -2.5207 0.9774
3.0876 4.1050 -2.5196 0.9774
2.9354 4.2125 -2.5185 0.9774
2.2913 4.5844 -2.5140 0.9774
1.5567 4.7233 -2.4395 0.9781
0.4814 4.7656 -2.3495 0.9789
0.3081 4.7775 -2.3484 0.9789
0.1345 4.7832 -2.3472 0.9789
-0.0390 4.7826 -2.3461 0.9789
-0.2124 4.7758 -2.3449 0.9789
-0.3853 4.7626 -2.3438 0.9789
4.3816 2.1397 -2.5296 0.9783
4.3000 2.2966 -2.5290 0.9783
4.2127 2.4504 -2.5283 0.9783
4.1199 2.6008 -2.5276 0.9783
3.8094 3.0301 -2.5252 0.9783
3.5773 3.2961 -2.5235 0.9783
3.1945 3.6611 -2.5206 0.9783
2.9184 3.8800 -2.5187 0.9784
2.7746 3.9816 -2.5176 0.9784
2.6272 4.0780 -2.5166 0.9784
2.4766 4.1688 -2.5155 0.9784
2.1659 4.3336 -2.5134 0.9784
0.9973 4.6900 -2.4875 0.9786
0.6469 4.6935 -2.4579 0.9789
0.1321 4.6946 -2.4364 0.9791
-0.3795 4.6908 -2.4414 0.9790
4.1478 2.0255 -2.5282 0.9792
4.0706 2.1741 -2.5276 0.9792
3.9002 2.4622 -2.5262 0.9792
3.7093 2.7369 -2.5247 0.9792
3.4989 2.9967 -2.5232 0.9792
3.2703 3.2403 -2.5215 0.9792
3.1495 3.3556 -2.5206 0.9792
3.0246 3.4664 -2.5197 0.9792
2.8958 3.5725 -2.5187 0.9792
2.7633 3.6738 -2.5178 0.9793
2.3451 3.9476 -2.5148 0.9793
1.9001 4.1738 -2.5117 0.9793
1.7467 4.2382 -2.5107 0.9793
1.5912 4.2969 -2.5096 0.9793
1.4336 4.3499 -2.5085 0.9793
0.9514 4.4741 -2.5052 0.9794
0.6239 4.5273 -2.5030 0.9794
-0.2026 4.5556 -2.4976 0.9794
-0.3676 4.5433 -2.4965 0.9794
4.0007 1.7770 -2.5274 0.9800
3.9328 1.9205 -2.5268 0.9800
3.8596 2.0614 -2.5262 0.9800
3.7814 2.1995 -2.5256 0.9800
3.6982 2.3346 -2.5250 0.9800
3.2116 2.9591 -2.5213 0.9800
3.1011 3.0727 -2.5205 0.9800
2.9867 3.1821 -2.5196 0.9800
2.8683 3.2872 -2.5188 0.9801
2.7462 3.3879 -2.5179 0.9801
2.4916 3.5755 -2.5161 0.9801
2.2241 3.7439 -2.5142 0.9801
2.0861 3.8206 -2.5132 0.9801
1.9454 3.8923 -2.5122 0.9801
1.8022 3.9587 -2.5112 0.9801
1.5092 4.0757 -2.5092 0.9801
1.2088 4.1709 -2.5072 0.9801
0.2788 4.3227 -2.5009 0.9802
