ply
format ascii 1.0
element vertex 545
property float32 x
property float32 y
property float32 z
property float32 I
end_header
-1.2544 -21.4320 3.7855 0.9165
-0.4759 -21.4272 3.7791 0.9166
0.3012 -21.4292 3.7789 0.9166
1.0773 -21.3940 3.7771 0.9167
3.6111 -22.5070 4.0194 0.9116
43.7519 -18.3171 8.3634 0.8248
43.5845 -16.4167 8.2122 0.8276
-1.2545 -21.4322 3.2889 0.9168
-0.4759 -21.4274 3.2834 0.9169
1.0772 -21.3935 3.2815 0.9170
32.1464 -24.4527 6.1875 0.8492
-1.2545 -21.4324 2.7957 0.9170
-0.4759 -21.4276 2.7910 0.9172
0.3011 -21.4284 2.7907 0.9172
1.8576 -21.4043 2.7978 0.9170
3.6124 -22.5157 2.9695 0.9121
31.5207 -37.1991 6.3493 0.8215
31.4911 -34.5430 6.0869 0.8282
31.4385 -29.8250 5.6431 0.8396
44.8521 -20.7193 6.4337 0.8193
46.3019 -17.4402 6.4430 0.8191
46.3211 -15.5548 6.3630 0.8211
46.3585 -11.9091 6.2329 0.8244
1.0772 -21.3925 2.3001 0.9174
31.4841 -34.5354 5.0182 0.8286
31.4571 -32.0879 4.8252 0.8346
31.4088 -27.7041 4.4973 0.8449
31.3870 -25.7233 4.3577 0.8494
32.1463 -24.4527 4.3371 0.8500
38.5604 -25.1412 4.9430 0.8309
42.5010 -25.5643 5.3258 0.8191
-1.2545 -21.4328 1.8174 0.9174
0.3011 -21.4276 1.8141 0.9176
1.8576 -21.4038 1.8187 0.9174
2.6734 -21.6559 1.8471 0.9161
3.6138 -22.5243 1.9311 0.9125
31.4772 -34.5278 3.9552 0.8290
31.4504 -32.0811 3.8031 0.8350
31.4026 -27.6987 3.5446 0.8453
32.1463 -24.4527 3.4191 0.8503
35.1439 -24.7745 3.6399 0.8415
38.5604 -25.1412 3.8968 0.8313
42.5010 -25.5642 4.1985 0.8195
44.8376 -20.7126 4.1810 0.8201
0.3011 -21.4272 1.3288 0.9177
1.8575 -21.4036 1.3322 0.9175
3.6145 -22.5286 1.4149 0.9126
31.4990 -37.1735 3.0214 0.8226
31.4438 -32.0744 2.7853 0.8353
31.4193 -29.8068 2.6856 0.8407
35.1439 -24.7745 2.6664 0.8417
38.5603 -25.1412 2.8545 0.8315
42.5010 -25.5642 3.0755 0.8197
44.8304 -20.7093 3.0622 0.8204
-1.2545 -21.4332 0.8466 0.9176
-0.4759 -21.4283 0.8452 0.9178
1.8575 -21.4033 0.8471 0.9176
3.6152 -22.5329 0.8999 0.9127
31.4919 -37.1651 1.9208 0.8228
31.4129 -29.8007 1.7073 0.8409
31.3903 -27.6878 1.6504 0.8457
31.3691 -25.7087 1.5992 0.8501
32.1463 -24.4527 1.5926 0.8507
42.5010 -25.5642 1.9557 0.8199
1.8575 -21.4031 0.3629 0.9176
3.6159 -22.5371 0.3856 0.9127
31.4847 -37.1566 0.8227 0.8230
31.4566 -34.5052 0.7887 0.8296
31.3842 -27.6825 0.7069 0.8458
32.1463 -24.4526 0.6823 0.8508
44.3546 -20.4895 0.8253 0.8225
-1.2546 -21.4335 -0.1209 0.9177
-0.4759 -21.4287 -0.1207 0.9178
1.0770 -21.3899 -0.1206 0.9179
1.8575 -21.4028 -0.1210 0.9177
3.6166 -22.5414 -0.1285 0.9127
31.4776 -37.1482 -0.2742 0.8230
31.4498 -34.4977 -0.2628 0.8297
31.4003 -29.7887 -0.2437 0.8410
31.3781 -27.6771 -0.2356 0.8459
31.3573 -25.6990 -0.2283 0.8503
38.5602 -25.1411 -0.2592 0.8318
42.5009 -25.5642 -0.2792 0.8200
-1.2546 -21.4337 -0.6046 0.9177
-0.4760 -21.4289 -0.6035 0.9178
0.3011 -21.4256 -0.6034 0.9178
1.0770 -21.3893 -0.6030 0.9179
3.6172 -22.5456 -0.6430 0.9127
18.5578 -42.3624 -1.3023 0.8310
31.4705 -37.1398 -1.3707 0.8230
31.3940 -29.7827 -1.2185 0.8410
31.3720 -27.6717 -1.1779 0.8459
31.3514 -25.6941 -1.1414 0.8503
32.1463 -24.4526 -1.1373 0.8508
42.5009 -25.5641 -1.3965 0.8200
37.7112 -17.4206 -1.1697 0.8469
37.7181 -15.7910 -1.1514 0.8491
37.7436 -9.6961 -1.0973 0.8556
-0.4760 -21.4291 -1.0870 0.9177
0.3011 -21.4252 -1.0867 0.9178
1.0770 -21.3888 -1.0861 0.9178
18.4991 -42.2283 -2.3381 0.8314
31.3876 -29.7767 -2.1941 0.8409
31.3658 -27.6663 -2.1211 0.8458
31.3454 -25.6893 -2.0553 0.8502
35.1438 -24.7744 -2.1806 0.8418
38.5602 -25.1411 -2.3345 0.8316
37.7052 -17.4178 -2.1064 0.8468
37.7254 -12.6683 -2.0182 0.8527
37.7318 -11.1658 -1.9956 0.8542
-0.4760 -21.4293 -1.5716 0.9176
0.3011 -21.4248 -1.5711 0.9177
1.0770 -21.3883 -1.5702 0.9177
2.6752 -21.6709 -1.6010 0.9161
6.8042 -34.3876 -2.5703 0.8688
9.3356 -34.0150 -2.5863 0.8681
10.5948 -33.7572 -2.5942 0.8677
11.8472 -33.4517 -2.6020 0.8673
17.9400 -31.2121 -2.6396 0.8656
23.5717 -27.8181 -2.6735 0.8640
27.5834 -24.3299 -2.6968 0.8628
29.3843 -22.3516 -2.7070 0.8624
29.5006 -20.7962 -2.6465 0.8652
29.4911 -19.2281 -2.5814 0.8683
29.8552 -17.9578 -2.5545 0.8696
30.5292 -16.8873 -2.5581 0.8694
31.7504 -14.6670 -2.5644 0.8691
34.0114 -8.7373 -2.5748 0.8686
0.3011 -21.4244 -2.0571 0.9175
1.8574 -21.4018 -2.0624 0.9173
2.6755 -21.6730 -2.0965 0.9160
8.0220 -25.5597 -2.5719 0.8979
9.8975 -25.0245 -2.5836 0.8975
10.8221 -24.7038 -2.5893 0.8973
13.5260 -23.5325 -2.6058 0.8967
14.3994 -23.0735 -2.6111 0.8965
15.2564 -22.5810 -2.6163 0.8963
16.0958 -22.0554 -2.6213 0.8961
16.9162 -21.4974 -2.6262 0.8959
17.7162 -20.9077 -2.6309 0.8957
18.4945 -20.2868 -2.6355 0.8956
19.2498 -19.6358 -2.6399 0.8954
19.9809 -18.9554 -2.6441 0.8952
22.0162 -16.7470 -2.6557 0.8948
23.7907 -14.3100 -2.6654 0.8944
24.3193 -13.4522 -2.6682 0.8943
24.8148 -12.5739 -2.6707 0.8942
25.7032 -10.7608 -2.6752 0.8941
26.0945 -9.8289 -2.6770 0.8940
-0.4413 -19.8715 -2.3610 0.9231
0.2799 -19.9137 -2.3657 0.9229
1.0036 -19.9297 -2.3704 0.9228
3.2151 -20.0391 -2.4108 0.9215
4.9250 -20.8830 -2.5487 0.9172
6.4491 -20.5482 -2.5582 0.9169
7.9498 -20.1000 -2.5676 0.9166
9.4183 -19.5398 -2.5766 0.9163
11.5415 -18.4942 -2.5895 0.9159
12.2236 -18.0922 -2.5936 0.9158
12.8912 -17.6644 -2.5976 0.9157
13.5433 -17.2111 -2.6015 0.9156
14.1787 -16.7329 -2.6053 0.9154
14.7965 -16.2305 -2.6089 0.9153
16.5343 -14.5840 -2.6189 0.9150
17.0719 -13.9913 -2.6219 0.9149
17.5871 -13.3779 -2.6248 0.9148
18.0792 -12.7448 -2.6275 0.9148
18.9906 -11.4228 -2.6325 0.9146
19.4085 -10.7359 -2.6347 0.9145
20.5021 -8.5834 -2.6402 0.9144
20.8113 -7.8389 -2.6416 0.9143
21.3436 -6.3161 -2.6440 0.9142
1.5406 -17.7518 -2.5247 0.9305
2.8319 -17.6509 -2.5329 0.9303
3.4755 -17.5649 -2.5370 0.9302
6.0151 -16.9841 -2.5529 0.9298
8.4560 -16.0303 -2.5680 0.9294
9.0442 -15.7351 -2.5715 0.9293
11.8083 -13.9354 -2.5880 0.9289
12.3199 -13.5138 -2.5910 0.9288
12.8159 -13.0729 -2.5939 0.9287
13.2955 -12.6131 -2.5967 0.9286
13.7580 -12.1352 -2.5993 0.9286
15.0352 -10.5989 -2.6064 0.9284
15.4219 -10.0550 -2.6085 0.9283
15.7882 -9.4965 -2.6105 0.9283
16.1333 -8.9242 -2.6123 0.9282
16.7579 -7.7412 -2.6155 0.9281
17.0363 -7.1324 -2.6169 0.9281
17.2916 -6.5131 -2.6181 0.9281
-0.3384 -15.2375 -2.5108 0.9401
0.7687 -15.2653 -2.5180 0.9399
1.8779 -15.2122 -2.5251 0.9398
4.0791 -14.8625 -2.5390 0.9394
4.6214 -14.7245 -2.5424 0.9394
5.6909 -14.3885 -2.5490 0.9392
7.2463 -13.7369 -2.5586 0.9390
7.7487 -13.4812 -2.5616 0.9389
8.2419 -13.2068 -2.5646 0.9388
9.6587 -12.2744 -2.5730 0.9386
10.1076 -11.9284 -2.5757 0.9386
10.5438 -11.5656 -2.5782 0.9385
10.9666 -11.1864 -2.5807 0.9385
11.7691 -10.3809 -2.5853 0.9384
12.8566 -9.0632 -2.5913 0.9382
14.0662 -7.1275 -2.5978 0.9381
14.3225 -6.6162 -2.5991 0.9380
14.5593 -6.0954 -2.6002 0.9380
14.7766 -5.5658 -2.6012 0.9380
15.1505 -4.4834 -2.6029 0.9380
-0.7792 -13.3132 -2.5066 0.9472
-0.2964 -13.3494 -2.5098 0.9471
1.6441 -13.3179 -2.5222 0.9468
2.1284 -13.2657 -2.5253 0.9468
3.0913 -13.1081 -2.5314 0.9467
3.5687 -13.0028 -2.5344 0.9466
5.8878 -12.2151 -2.5487 0.9463
6.7716 -11.7812 -2.5541 0.9462
9.5746 -9.7666 -2.5707 0.9459
9.9303 -9.4206 -2.5728 0.9458
10.2730 -9.0613 -2.5747 0.9458
11.2189 -7.9087 -2.5800 0.9457
11.5051 -7.5013 -2.5816 0.9456
11.7761 -7.0833 -2.5830 0.9456
12.2706 -6.2176 -2.5856 0.9456
12.4933 -5.7712 -2.5867 0.9455
12.6992 -5.3166 -2.5877 0.9455
12.8880 -4.8544 -2.5886 0.9455
13.2131 -3.9101 -2.5900 0.9455
13.3490 -3.4292 -2.5905 0.9454
-0.6927 -11.8359 -2.5062 0.9527
0.1670 -11.8813 -2.5117 0.9526
0.5982 -11.8806 -2.5145 0.9525
1.8907 -11.7839 -2.5227 0.9524
2.7453 -11.6408 -2.5281 0.9523
3.1688 -11.5458 -2.5308 0.9522
4.4170 -11.1677 -2.5386 0.9521
5.2247 -10.8395 -2.5435 0.9520
5.6195 -10.6530 -2.5459 0.9520
6.0076 -10.4520 -2.5483 0.9519
7.1254 -9.7636 -2.5550 0.9518
7.8267 -9.2367 -2.5591 0.9517
8.4881 -8.6583 -2.5630 0.9516
8.8026 -8.3508 -2.5648 0.9516
9.1056 -8.0316 -2.5665 0.9516
9.6757 -7.3599 -2.5697 0.9515
9.9418 -7.0083 -2.5712 0.9515
10.1947 -6.6469 -2.5725 0.9515
10.6597 -5.8964 -2.5750 0.9514
11.0678 -5.1127 -2.5771 0.9514
11.4165 -4.3002 -2.5787 0.9513
11.5679 -3.8845 -2.5794 0.9513
11.7038 -3.4634 -2.5800 0.9513
11.8238 -3.0374 -2.5805 0.9513
-0.6229 -10.6436 -2.5058 0.9571
0.9255 -10.6642 -2.5157 0.9570
1.3128 -10.6340 -2.5182 0.9569
2.0838 -10.5314 -2.5231 0.9568
2.4666 -10.4589 -2.5255 0.9568
2.8468 -10.3724 -2.5279 0.9568
3.5975 -10.1576 -2.5326 0.9567
5.0454 -9.5645 -2.5415 0.9565
5.3932 -9.3832 -2.5436 0.9565
6.7135 -8.5316 -2.5515 0.9564
7.0234 -8.2885 -2.5533 0.9563
7.8972 -7.4919 -2.5583 0.9563
8.1685 -7.2050 -2.5599 0.9562
9.3576 -5.6285 -2.5664 0.9561
9.5594 -5.2878 -2.5675 0.9561
9.7485 -4.9397 -2.5685 0.9561
10.0873 -4.2231 -2.5701 0.9561
-0.5654 -9.6601 -2.5054 0.9608
-0.2150 -9.6830 -2.5077 0.9608
0.4880 -9.6906 -2.5122 0.9607
0.8397 -9.6752 -2.5145 0.9607
1.1909 -9.6470 -2.5167 0.9606
1.5412 -9.6060 -2.5190 0.9606
3.2618 -9.2099 -2.5297 0.9604
3.5964 -9.0931 -2.5318 0.9604
3.9269 -8.9639 -2.5338 0.9604
4.2526 -8.8226 -2.5358 0.9603
4.8881 -8.5042 -2.5397 0.9603
5.7948 -7.9403 -2.5451 0.9602
6.3632 -7.5095 -2.5485 0.9601
7.1536 -6.7865 -2.5531 0.9601
7.6346 -6.2570 -2.5558 0.9600
7.8603 -5.9791 -2.5570 0.9600
8.0756 -5.6928 -2.5582 0.9600
8.6564 -4.7883 -2.5613 0.9599
8.8273 -4.4729 -2.5622 0.9599
8.9864 -4.1512 -2.5630 0.9599
9.1335 -3.8238 -2.5637 0.9599
9.3909 -3.1535 -2.5649 0.9599
9.5979 -2.4656 -2.5657 0.9599
-0.5170 -8.8342 -2.5052 0.9639
0.4462 -8.8600 -2.5114 0.9638
0.7677 -8.8453 -2.5134 0.9638
1.0887 -8.8188 -2.5155 0.9637
1.7276 -8.7308 -2.5195 0.9637
2.0446 -8.6693 -2.5215 0.9636
2.3593 -8.5962 -2.5235 0.9636
2.6714 -8.5116 -2.5255 0.9636
2.9805 -8.4155 -2.5274 0.9636
3.2860 -8.3082 -2.5293 0.9635
3.5877 -8.1896 -2.5311 0.9635
4.4649 -7.7681 -2.5365 0.9634
5.5550 -7.0593 -2.5430 0.9633
5.8107 -6.8574 -2.5445 0.9633
6.7551 -5.9583 -2.5499 0.9632
7.3719 -5.1968 -2.5534 0.9632
7.7350 -4.6525 -2.5553 0.9632
7.9012 -4.3706 -2.5562 0.9632
8.3361 -3.4900 -2.5584 0.9631
8.4590 -3.1862 -2.5589 0.9631
8.5706 -2.8780 -2.5594 0.9631
8.6708 -2.5659 -2.5599 0.9631
8.7593 -2.2502 -2.5602 0.9631
0.1146 -8.1557 -2.5088 0.9664
0.7063 -8.1382 -2.5126 0.9664
1.2960 -8.0778 -2.5163 0.9663
1.8806 -7.9742 -2.5200 0.9663
2.1700 -7.9065 -2.5218 0.9663
2.7410 -7.7394 -2.5254 0.9662
4.1050 -7.1419 -2.5337 0.9661
4.3639 -6.9927 -2.5353 0.9661
4.6173 -6.8340 -2.5368 0.9661
5.3409 -6.3030 -2.5411 0.9660
6.0026 -5.6945 -2.5449 0.9660
6.2079 -5.4757 -2.5461 0.9660
6.4051 -5.2493 -2.5472 0.9659
6.5939 -5.0158 -2.5482 0.9659
6.9452 -4.5282 -2.5501 0.9659
7.1072 -4.2750 -2.5510 0.9659
7.6588 -3.2064 -2.5538 0.9658
7.7716 -2.9273 -2.5543 0.9658
7.8740 -2.6441 -2.5548 0.9658
7.9659 -2.3573 -2.5552 0.9658
8.0472 -2.0672 -2.5555 0.9658
-0.4402 -7.5223 -2.5047 0.9687
0.1061 -7.5451 -2.5083 0.9687
0.3798 -7.5416 -2.5100 0.9687
0.6533 -7.5281 -2.5118 0.9687
0.9265 -7.5047 -2.5135 0.9686
1.4698 -7.4280 -2.5170 0.9686
1.7392 -7.3748 -2.5187 0.9686
2.0068 -7.3117 -2.5203 0.9685
2.7941 -7.0643 -2.5252 0.9685
3.0502 -6.9628 -2.5268 0.9685
3.5510 -6.7316 -2.5299 0.9684
3.7949 -6.6023 -2.5313 0.9684
4.0340 -6.4641 -2.5328 0.9684
4.2681 -6.3171 -2.5342 0.9684
4.9363 -5.8255 -2.5381 0.9683
5.5472 -5.2625 -2.5417 0.9683
5.9188 -4.8508 -2.5438 0.9683
6.2593 -4.4125 -2.5456 0.9682
6.8396 -3.4657 -2.5487 0.9682
7.0759 -2.9624 -2.5499 0.9682
7.1800 -2.7044 -2.5504 0.9682
7.4343 -1.9098 -2.5514 0.9682
-0.1555 -7.0066 -2.5062 0.9707
0.3529 -7.0086 -2.5095 0.9706
0.6071 -6.9957 -2.5111 0.9706
1.3656 -6.9016 -2.5159 0.9706
2.3545 -6.6481 -2.5221 0.9705
2.5955 -6.5623 -2.5236 0.9705
2.8333 -6.4676 -2.5251 0.9704
3.5245 -6.1320 -2.5293 0.9704
3.7465 -6.0034 -2.5306 0.9704
4.3826 -5.5695 -2.5344 0.9703
4.5838 -5.4095 -2.5356 0.9703
4.9680 -5.0676 -2.5378 0.9703
5.1506 -4.8862 -2.5388 0.9703
5.3264 -4.6982 -2.5398 0.9703
5.8112 -4.0965 -2.5425 0.9702
5.9577 -3.8844 -2.5433 0.9702
6.2269 -3.4444 -2.5448 0.9702
6.3493 -3.2172 -2.5454 0.9702
6.5685 -2.7499 -2.5465 0.9702
6.6650 -2.5105 -2.5469 0.9702
6.7527 -2.2676 -2.5473 0.9702
6.8313 -2.0215 -2.5476 0.9702
-0.3818 -6.5241 -2.5044 0.9724
-0.1452 -6.5376 -2.5060 0.9724
0.3293 -6.5389 -2.5090 0.9723
1.9687 -6.2725 -2.5194 0.9722
2.1960 -6.2005 -2.5208 0.9722
2.6424 -6.0317 -2.5235 0.9722
2.8608 -5.9351 -2.5249 0.9722
3.2866 -5.7181 -2.5274 0.9721
3.8936 -5.3352 -2.5311 0.9721
4.2737 -5.0435 -2.5333 0.9721
4.4555 -4.8873 -2.5344 0.9721
4.9655 -4.3798 -2.5373 0.9720
5.1228 -4.1984 -2.5382 0.9720
5.2733 -4.0112 -2.5390 0.9720
5.4169 -3.8186 -2.5398 0.9720
5.5534 -3.6208 -2.5405 0.9720
5.6826 -3.4180 -2.5412 0.9720
5.8042 -3.2106 -2.5419 0.9720
5.9181 -2.9988 -2.5425 0.9720
6.0242 -2.7828 -2.5430 0.9720
6.2122 -2.3399 -2.5439 0.9720
6.2938 -2.1135 -2.5442 0.9720
6.3671 -1.8842 -2.5446 0.9720
6.4319 -1.6523 -2.5448 0.9720
0.0861 -6.1252 -2.5072 0.9739
0.3082 -6.1216 -2.5086 0.9739
1.1924 -6.0262 -2.5142 0.9738
1.4109 -5.9823 -2.5156 0.9738
1.6276 -5.9304 -2.5169 0.9738
1.8426 -5.8706 -2.5183 0.9738
2.0552 -5.8030 -2.5196 0.9737
2.6771 -5.5540 -2.5234 0.9737
2.8781 -5.4560 -2.5246 0.9737
3.0754 -5.3506 -2.5258 0.9737
3.2689 -5.2380 -2.5270 0.9737
4.4921 -4.2615 -2.5342 0.9736
4.9330 -3.7523 -2.5366 0.9736
5.0672 -3.5721 -2.5374 0.9736
5.3155 -3.1972 -2.5387 0.9735
5.4292 -3.0032 -2.5393 0.9735
5.6348 -2.6030 -2.5404 0.9735
5.8105 -2.1886 -2.5412 0.9735
5.8868 -1.9768 -2.5415 0.9735
6.0158 -1.5454 -2.5421 0.9735
0.7059 -5.7178 -2.5108 0.9752
0.9132 -5.6915 -2.5122 0.9752
1.1195 -5.6576 -2.5135 0.9751
1.5280 -5.5673 -2.5160 0.9751
1.7297 -5.5110 -2.5173 0.9751
2.1265 -5.3764 -2.5197 0.9751
2.7013 -5.1209 -2.5233 0.9751
3.7522 -4.4282 -2.5295 0.9750
4.0662 -4.1477 -2.5314 0.9750
4.3589 -3.8447 -2.5330 0.9750
4.4967 -3.6853 -2.5338 0.9750
4.7546 -3.3517 -2.5352 0.9749
4.8742 -3.1779 -2.5359 0.9749
5.0940 -2.8177 -2.5370 0.9749
5.2868 -2.4422 -2.5380 0.9749
5.4515 -2.0534 -2.5388 0.9749
5.5230 -1.8546 -2.5391 0.9749
5.5872 -1.6534 -2.5394 0.9749
5.6440 -1.4499 -2.5396 0.9749
-0.3161 -5.4004 -2.5041 0.9764
-0.1202 -5.4111 -2.5053 0.9764
0.8596 -5.3574 -2.5116 0.9764
1.2467 -5.2862 -2.5140 0.9763
1.6279 -5.1869 -2.5164 0.9763
1.8157 -5.1269 -2.5176 0.9763
2.1844 -4.9863 -2.5198 0.9763
2.3647 -4.9060 -2.5209 0.9763
2.5421 -4.8191 -2.5220 0.9763
3.0540 -4.5202 -2.5251 0.9762
3.5306 -4.1666 -2.5279 0.9762
4.2306 -3.4672 -2.5319 0.9762
4.3548 -3.3125 -2.5326 0.9762
4.4731 -3.1533 -2.5333 0.9762
4.9734 -2.2975 -2.5359 0.9761
5.0542 -2.1160 -2.5363 0.9761
5.1283 -1.9316 -2.5366 0.9761
5.1956 -1.7447 -2.5369 0.9761
2.9815 -0.7659 -1.4249 0.9865
-0.2983 -5.0959 -2.5040 0.9775
0.0718 -5.1090 -2.5063 0.9775
0.2571 -5.1055 -2.5075 0.9775
0.4422 -5.0952 -2.5087 0.9775
0.8110 -5.0545 -2.5111 0.9775
0.9941 -5.0241 -2.5122 0.9774
1.7129 -4.8363 -2.5167 0.9774
2.0605 -4.7035 -2.5188 0.9774
2.2306 -4.6276 -2.5199 0.9774
2.8804 -4.2633 -2.5238 0.9773
3.0342 -4.1576 -2.5247 0.9773
3.1840 -4.0463 -2.5256 0.9773
3.3297 -3.9295 -2.5265 0.9773
3.6080 -3.6803 -2.5281 0.9773
3.7401 -3.5482 -2.5288 0.9773
3.8674 -3.4112 -2.5296 0.9773
3.9896 -3.2697 -2.5302 0.9773
4.1066 -3.1237 -2.5309 0.9773
4.2181 -2.9735 -2.5315 0.9773
4.3241 -2.8193 -2.5321 0.9773
4.4244 -2.6612 -2.5326 0.9773
4.6073 -2.3346 -2.5336 0.9773
4.7658 -1.9952 -2.5343 0.9772
4.9559 -1.4666 -2.5352 0.9772
2.6366 -0.6773 -1.3353 0.9879
0.2431 -4.8269 -2.5072 0.9785
0.7667 -4.7783 -2.5106 0.9784
1.1118 -4.7143 -2.5128 0.9784
1.2825 -4.6729 -2.5138 0.9784
1.6190 -4.5715 -2.5159 0.9784
1.9476 -4.4457 -2.5179 0.9784
2.1083 -4.3739 -2.5189 0.9784
2.7223 -4.0292 -2.5226 0.9783
3.1467 -3.7136 -2.5251 0.9783
3.4096 -3.4779 -2.5267 0.9783
3.5344 -3.3530 -2.5274 0.9783
3.7700 -3.0897 -2.5287 0.9783
3.8805 -2.9517 -2.5293 0.9783
4.1806 -2.5146 -2.5309 0.9783
4.3534 -2.2059 -2.5318 0.9782
4.5031 -1.8852 -2.5326 0.9782
4.5690 -1.7210 -2.5329 0.9782
-0.2671 -4.5636 -2.5038 0.9794
-0.1015 -4.5722 -2.5048 0.9794
0.0643 -4.5749 -2.5059 0.9793
0.7260 -4.5252 -2.5101 0.9793
1.0529 -4.4643 -2.5122 0.9793
1.2145 -4.4250 -2.5132 0.9793
1.6896 -4.2720 -2.5162 0.9793
1.8441 -4.2096 -2.5171 0.9793
1.9962 -4.1414 -2.5180 0.9793
3.1055 -3.4064 -2.5247 0.9792
3.4597 -3.0516 -2.5267 0.9792
3.8679 -2.5218 -2.5289 0.9792
4.1209 -2.0881 -2.5303 0.9792
4.1945 -1.9376 -2.5306 0.9791
4.3250 -1.6290 -2.5312 0.9791
4.3816 -1.4713 -2.5315 0.9791
-0.2533 -4.3291 -2.5037 0.9802
0.2184 -4.3363 -2.5067 0.9801
0.3756 -4.3273 -2.5077 0.9801
0.5324 -4.3125 -2.5087 0.9801
0.6886 -4.2921 -2.5097 0.9801
0.9986 -4.2342 -2.5117 0.9801
1.1519 -4.1968 -2.5126 0.9801
1.4540 -4.1054 -2.5145 0.9801
1.7489 -3.9922 -2.5163 0.9801
2.1742 -3.7826 -2.5189 0.9801
2.3106 -3.7025 -2.5198 0.9800
2.7014 -3.4330 -2.5221 0.9800
2.8249 -3.3337 -2.5228 0.9800
3.0607 -3.1220 -2.5242 0.9800
3.1726 -3.0098 -2.5248 0.9800
3.2804 -2.8935 -2.5254 0.9800
3.3840 -2.7733 -2.5260 0.9800
3.8322 -2.1198 -2.5284 0.9800
4.0413 -1.6919 -2.5295 0.9800
4.1004 -1.5445 -2.5297 0.9800
4.1541 -1.3950 -2.5300 0.9800
2.6161 -0.7742 -1.5752 0.9875
2.5458 -0.6540 -1.5175 0.9879
