ply
format ascii 1.0
element vertex 536
property float32 x
property float32 y
property float32 z
property float32 I
end_header
2.9180 32.6628 5.7823 0.8753
-0.5423 31.0895 5.4828 0.8814
-1.7012 32.0955 5.6673 0.8776
-2.5408 28.6437 5.0705 0.8898
-3.4119 27.3773 4.8647 0.8940
-4.9789 30.9501 5.5275 0.8804
-6.8855 25.2674 4.6178 0.8991
2.7103 7.7182 1.2532 0.9674
2.9201 32.6855 5.0272 0.8756
-0.5810 33.3062 5.1031 0.8739
-3.4686 27.8323 4.2967 0.8927
-5.6046 28.3740 4.4307 0.8896
-6.7316 24.7025 3.9223 0.9016
31.5838 24.7590 5.2260 0.8505
2.7103 7.7182 1.0652 0.9675
2.9200 32.6849 4.2732 0.8760
-0.5908 33.8671 4.4109 0.8723
-3.3743 27.0755 3.5531 0.8958
-4.4890 27.9049 3.6805 0.8922
-5.4610 27.6471 3.6698 0.8925
-6.1539 26.2197 3.5071 0.8971
31.5766 24.7533 4.3084 0.8509
-1.6806 31.7056 3.4094 0.8801
-2.4786 27.9424 3.0123 0.8933
-3.5143 28.1985 3.0514 0.8920
-4.5775 28.4549 3.0948 0.8905
-5.6251 28.4775 3.1170 0.8898
-6.1577 26.2362 2.8938 0.8973
-6.3461 23.2879 2.5919 0.9075
31.5694 24.7476 3.3957 0.8513
25.4744 35.5458 3.7020 0.8390
2.9199 32.6838 2.7778 0.8766
-0.6119 35.0786 2.9699 0.8686
-1.6830 31.7513 2.6916 0.8802
-2.8509 32.1398 2.7314 0.8785
-3.5731 28.6709 2.4458 0.8905
-4.4631 27.7440 2.3788 0.8933
-6.1616 26.2526 2.2827 0.8974
-7.3438 23.6098 2.0931 0.9055
31.5622 24.7420 2.4869 0.8515
2.9199 32.6832 2.0348 0.8768
-1.6854 31.7970 1.9745 0.8802
-3.7661 30.2189 1.8884 0.8851
-4.7826 29.7302 1.8673 0.8863
-7.2583 36.7460 2.3227 0.8606
-6.1654 26.2690 1.6732 0.8975
2.7102 7.7180 0.3225 0.9678
2.9198 32.6827 1.2938 0.8769
-6.1692 26.2853 1.0646 0.8976
2.9198 32.6821 0.5543 0.8770
-0.1131 6.4873 0.1096 0.9744
-5.3875 33.4902 0.5730 0.8731
-6.1731 26.3016 0.4564 0.8976
-6.4498 23.6687 0.4144 0.9065
31.5476 24.7306 -0.2257 0.8519
2.7102 7.7179 -0.0461 0.9678
-0.3438 6.4865 -0.0366 0.9744
-0.8186 6.5688 -0.0373 0.9739
-1.2972 6.5673 -0.0377 0.9736
-1.7891 6.5657 -0.0383 0.9731
-2.0419 6.5649 -0.0387 0.9729
37.8655 20.0650 -1.2067 0.8424
37.8726 21.8252 -1.2308 0.8395
37.8800 23.6598 -1.2576 0.8363
37.8957 27.5920 -1.3199 0.8290
31.5430 24.7269 -1.1286 0.8518
37.9130 31.9577 -1.3962 0.8200
2.7102 7.7178 -0.2303 0.9678
0.1173 6.4880 -0.1827 0.9744
-0.1131 6.4873 -0.1827 0.9744
-0.3438 6.4866 -0.1829 0.9743
-1.0565 6.5681 -0.1873 0.9737
-1.5411 6.5665 -0.1899 0.9734
-1.7891 6.5657 -0.1916 0.9731
37.8592 20.0616 -2.1729 0.8423
37.8661 21.8215 -2.2164 0.8394
37.8809 25.5738 -2.3179 0.8327
37.8887 27.5870 -2.3769 0.8289
31.4284 24.6371 -2.0252 0.8522
37.9057 31.9515 -2.5142 0.8199
28.8440 40.2474 -2.5112 0.8201
2.9122 32.5974 -1.6597 0.8772
2.6200 48.8443 -2.4807 0.8221
-0.1131 6.4873 -0.3290 0.9743
-0.5827 6.5696 -0.3345 0.9739
-1.0565 6.5681 -0.3374 0.9737
-1.5411 6.5665 -0.3421 0.9733
-1.7891 6.5657 -0.3451 0.9731
-2.0419 6.5649 -0.3487 0.9728
29.9510 17.2602 -2.5346 0.8705
28.7145 22.5096 -2.6752 0.8639
24.9832 26.0821 -2.6482 0.8651
23.9761 26.8796 -2.6410 0.8655
22.9429 27.6366 -2.6337 0.8658
21.8849 28.3538 -2.6262 0.8662
20.8041 29.0290 -2.6186 0.8665
19.7022 29.6620 -2.6109 0.8669
16.2876 31.3035 -2.5873 0.8680
11.5457 32.8789 -2.5551 0.8696
10.3379 33.1621 -2.5469 0.8700
9.1247 33.4012 -2.5388 0.8703
6.6881 33.7471 -2.5225 0.8711
5.1350 31.7924 -2.3613 0.8788
3.9900 31.8523 -2.3537 0.8792
0.5785 32.0053 -2.3471 0.8795
-0.1131 6.4873 -0.4757 0.9743
-1.0566 6.5681 -0.4878 0.9737
-1.2972 6.5673 -0.4908 0.9735
-1.7892 6.5658 -0.4990 0.9731
-2.0420 6.5649 -0.5041 0.9728
24.4246 12.9426 -2.6538 0.8949
23.9140 13.7812 -2.6498 0.8950
22.2041 16.1669 -2.6369 0.8955
20.9256 17.6386 -2.6274 0.8959
20.2479 18.3359 -2.6225 0.8960
19.5462 19.0064 -2.6174 0.8962
17.3076 20.8489 -2.6014 0.8968
16.5210 21.4044 -2.5958 0.8970
15.7163 21.9296 -2.5902 0.8973
14.0571 22.8869 -2.5786 0.8977
11.4635 24.0838 -2.5607 0.8984
10.5760 24.4176 -2.5547 0.8986
8.7742 24.9863 -2.5424 0.8991
6.9450 25.4222 -2.5301 0.8995
6.0231 25.5901 -2.5239 0.8997
3.9173 24.2533 -2.3586 0.9060
3.0487 24.3371 -2.3547 0.9061
0.4418 24.4389 -2.3466 0.9064
-0.1131 6.4873 -0.6229 0.9743
-0.5827 6.5696 -0.6332 0.9738
-0.8186 6.5689 -0.6355 0.9738
-1.0566 6.5681 -0.6387 0.9736
-1.7892 6.5658 -0.6533 0.9730
18.6854 11.6708 -2.6169 0.9151
18.2354 12.3109 -2.6135 0.9152
15.6594 15.2270 -2.5945 0.9158
14.4923 16.2473 -2.5861 0.9160
13.8829 16.7235 -2.5818 0.9162
12.6172 17.6054 -2.5729 0.9164
11.2953 18.3901 -2.5636 0.9167
10.6156 18.7448 -2.5589 0.9169
9.9247 19.0745 -2.5541 0.9170
9.2237 19.3783 -2.5493 0.9172
7.7953 19.9075 -2.5396 0.9175
5.2600 19.2543 -2.3710 0.9227
4.5640 19.3907 -2.3663 0.9229
3.1658 19.6004 -2.3584 0.9231
1.7645 19.7508 -2.3555 0.9232
1.0602 19.7651 -2.3512 0.9234
-0.3438 6.4866 -0.7716 0.9742
-0.8186 6.5689 -0.7863 0.9737
-1.0566 6.5681 -0.7902 0.9736
-1.5411 6.5666 -0.8012 0.9732
-2.0420 6.5650 -0.8167 0.9727
15.9014 9.1637 -2.6004 0.9285
15.5499 9.7124 -2.5977 0.9286
14.7886 10.7676 -2.5920 0.9288
14.3800 11.2727 -2.5889 0.9288
12.5749 13.1279 -2.5757 0.9292
12.0843 13.5476 -2.5722 0.9293
10.5297 14.6927 -2.5612 0.9296
9.9865 15.0349 -2.5574 0.9297
7.7094 16.1967 -2.5416 0.9301
7.1180 16.4340 -2.5376 0.9302
6.5195 16.6495 -2.5335 0.9303
5.5544 15.8173 -2.3753 0.9345
4.4034 16.1187 -2.3675 0.9347
3.8220 16.2380 -2.3636 0.9348
2.6569 16.4497 -2.3610 0.9349
0.2993 16.5559 -2.3462 0.9353
-0.1131 6.4874 -0.9193 0.9741
-0.3438 6.4866 -0.9204 0.9741
-0.5827 6.5696 -0.9345 0.9737
-0.8186 6.5689 -0.9379 0.9736
-1.2972 6.5674 -0.9485 0.9733
-1.5412 6.5666 -0.9557 0.9731
-1.7892 6.5658 -0.9642 0.9729
-2.0420 6.5650 -0.9741 0.9726
13.3033 8.3092 -2.5839 0.9384
12.6560 9.2149 -2.5790 0.9385
12.3085 9.6487 -2.5764 0.9386
11.9457 10.0692 -2.5738 0.9386
10.7394 11.2117 -2.5576 0.9390
10.3530 11.6067 -2.5622 0.9389
9.8931 11.9173 -2.5516 0.9391
9.0268 12.5954 -2.5528 0.9391
8.0892 13.1703 -2.5462 0.9393
7.6065 13.4315 -2.5429 0.9393
6.6162 13.9000 -2.5360 0.9395
5.2567 13.4245 -2.3750 0.9432
2.4317 7.8003 -1.3460 0.9674
3.7833 13.8489 -2.3651 0.9435
2.7872 14.0636 -2.3619 0.9435
2.2832 14.1358 -2.3589 0.9436
1.7775 14.1899 -2.3559 0.9437
-0.3438 6.4866 -1.0701 0.9740
-0.5827 6.5697 -1.0865 0.9736
-0.8186 6.5689 -1.0905 0.9735
-1.5412 6.5666 -1.1112 0.9730
11.8724 6.8418 -2.5756 0.9458
11.0506 8.0459 -2.5693 0.9459
10.1047 9.1505 -2.5623 0.9460
9.7639 9.4943 -2.5598 0.9461
9.4113 9.8252 -2.5573 0.9461
9.0472 10.1428 -2.5547 0.9462
8.2870 10.7365 -2.5492 0.9463
7.8919 11.0119 -2.5465 0.9464
5.4366 11.4217 -2.3776 0.9498
4.1760 11.8919 -2.3690 0.9500
2.4309 7.7979 -1.5353 0.9673
3.3149 12.1341 -2.3643 0.9501
2.8798 12.2350 -2.3625 0.9501
1.9997 12.3811 -2.3573 0.9502
1.5571 12.4305 -2.3547 0.9503
1.1136 12.4638 -2.3520 0.9503
0.2256 12.4790 -2.3459 0.9505
-0.1131 6.4874 -1.2195 0.9739
-0.5827 6.5697 -1.2397 0.9735
-1.2972 6.5674 -1.2582 0.9731
-1.5412 6.5666 -1.2678 0.9729
-1.7892 6.5658 -1.2791 0.9727
10.5229 6.0641 -2.5672 0.9516
10.2938 6.4295 -2.5655 0.9516
10.0519 6.7861 -2.5636 0.9516
9.7972 7.1334 -2.5617 0.9517
9.5304 7.4709 -2.5597 0.9517
8.9614 8.1151 -2.5555 0.9518
8.6602 8.4210 -2.5533 0.9518
8.3483 8.7155 -2.5511 0.9519
8.0263 8.9982 -2.5488 0.9519
5.5472 9.7953 -2.3795 0.9550
4.4600 10.2971 -2.3720 0.9552
4.0872 10.4378 -2.3695 0.9552
2.6603 7.5758 -1.6972 0.9677
2.3980 7.6923 -1.7032 0.9676
2.9460 10.7839 -2.3630 0.9553
2.5587 10.8712 -2.3607 0.9554
0.9899 11.0794 -2.3513 0.9555
-0.5827 6.5697 -1.3941 0.9734
-0.8186 6.5689 -1.3993 0.9733
-1.7892 6.5658 -1.4385 0.9726
9.6325 5.1043 -2.5621 0.9562
9.2349 5.7681 -2.5590 0.9562
8.7907 6.4005 -2.5556 0.9563
8.5519 6.7039 -2.5538 0.9563
8.3024 6.9983 -2.5520 0.9564
7.4938 7.8234 -2.5461 0.9565
7.2054 8.0779 -2.5440 0.9565
6.9083 8.3217 -2.5419 0.9565
6.6028 8.5545 -2.5397 0.9566
5.2970 8.6242 -2.3787 0.9593
4.3377 9.1131 -2.3720 0.9594
4.0076 9.2525 -2.3698 0.9594
3.6729 9.3799 -2.3675 0.9595
2.6434 7.5275 -1.8751 0.9677
2.6478 9.6921 -2.3613 0.9596
2.2999 9.7715 -2.3593 0.9596
1.9498 9.8383 -2.3572 0.9596
1.5978 9.8926 -2.3551 0.9597
1.2445 9.9342 -2.3530 0.9597
0.8900 9.9622 -2.3507 0.9597
0.5352 9.9772 -2.3482 0.9598
0.1804 9.9795 -2.3458 0.9598
-0.1131 6.4874 -1.5249 0.9737
-0.8186 6.5689 -1.5558 0.9732
-1.0566 6.5682 -1.5635 0.9730
-1.2972 6.5674 -1.5733 0.9729
-2.0420 6.5650 -1.6158 0.9721
8.3651 5.2248 -2.5536 0.9601
7.9638 5.7984 -2.5506 0.9601
7.5225 6.3408 -2.5473 0.9602
6.7913 7.0899 -2.5420 0.9602
6.2616 7.5427 -2.5382 0.9603
5.7015 7.9556 -2.5342 0.9604
5.0816 7.6503 -2.3780 0.9628
3.6349 8.3921 -2.3679 0.9629
0.8077 9.0409 -2.3502 0.9632
0.1637 9.0585 -2.3458 0.9633
-0.5827 6.5697 -1.7077 0.9731
-0.8186 6.5690 -1.7140 0.9730
-1.0566 6.5682 -1.7225 0.9729
-1.2972 6.5674 -1.7333 0.9727
-1.5412 6.5667 -1.7464 0.9725
-1.7892 6.5659 -1.7620 0.9723
-2.0420 6.5651 -1.7801 0.9720
7.9647 4.2204 -2.5517 0.9632
7.8060 4.4984 -2.5505 0.9632
7.6375 4.7703 -2.5492 0.9633
7.2717 5.2945 -2.5464 0.9633
7.0750 5.5462 -2.5449 0.9633
6.8695 5.7904 -2.5434 0.9633
6.6555 6.0270 -2.5418 0.9634
6.4332 6.2555 -2.5402 0.9634
4.3885 7.1450 -2.3738 0.9657
3.8644 7.4270 -2.3701 0.9658
3.5954 7.5536 -2.3683 0.9658
3.3223 7.6704 -2.3664 0.9658
3.0454 7.7773 -2.3645 0.9659
2.6029 7.4122 -2.2239 0.9679
2.1958 8.0376 -2.3588 0.9660
1.9076 8.1046 -2.3571 0.9660
1.6174 8.1613 -2.3553 0.9660
1.3257 8.2075 -2.3536 0.9660
1.0326 8.2430 -2.3518 0.9661
0.4442 8.2814 -2.3478 0.9661
-0.3438 6.4867 -1.8389 0.9734
-0.5827 6.5697 -1.8671 0.9730
-1.5412 6.5667 -1.9095 0.9723
7.3191 3.8784 -2.5477 0.9659
7.0190 4.3840 -2.5454 0.9660
6.6835 4.8662 -2.5428 0.9660
5.7026 5.9533 -2.5356 0.9661
5.2591 6.3351 -2.5324 0.9661
4.0358 6.5709 -2.3718 0.9682
3.7973 6.7054 -2.3702 0.9683
3.3071 6.9480 -2.3668 0.9683
2.8016 7.1547 -2.3633 0.9684
2.5439 7.2442 -2.3616 0.9684
2.2834 7.3245 -2.3598 0.9684
1.2198 7.5523 -2.3530 0.9685
0.4088 7.6217 -2.3477 0.9686
0.1379 7.6257 -2.3459 0.9686
-0.1131 6.4875 -1.9957 0.9732
-0.5827 6.5697 -2.0286 0.9728
-0.8186 6.5690 -2.0361 0.9727
-1.0566 6.5682 -2.0462 0.9725
-1.2972 6.5675 -2.0590 0.9724
-1.5412 6.5667 -2.0746 0.9722
-2.0420 6.5651 -2.1147 0.9716
6.4864 4.0514 -2.5421 0.9683
6.3356 4.2772 -2.5410 0.9683
6.1768 4.4973 -2.5398 0.9683
6.0103 4.7115 -2.5385 0.9683
5.8362 4.9194 -2.5372 0.9683
5.4665 5.3156 -2.5345 0.9684
5.2714 5.5032 -2.5331 0.9684
5.0697 5.6837 -2.5317 0.9684
4.8619 5.8567 -2.5302 0.9684
3.7319 6.0759 -2.3702 0.9704
3.2869 6.3172 -2.3671 0.9704
2.1121 6.7753 -2.3591 0.9705
1.8690 6.8413 -2.3574 0.9705
1.6237 6.8985 -2.3558 0.9706
1.3768 6.9469 -2.3541 0.9706
0.8791 7.0174 -2.3509 0.9706
0.6289 7.0392 -2.3492 0.9706
0.1276 7.0562 -2.3459 0.9707
-0.3438 6.4867 -2.1592 0.9730
-0.8186 6.5690 -2.2004 0.9725
-1.7892 6.5659 -2.2621 0.9717
6.2792 3.3274 -2.5413 0.9703
5.8827 3.9715 -2.5382 0.9703
5.7354 4.1760 -2.5371 0.9703
5.5811 4.3750 -2.5359 0.9703
5.4196 4.5683 -2.5347 0.9703
5.0767 4.9365 -2.5322 0.9704
4.5157 5.4397 -2.5282 0.9704
4.1136 5.7399 -2.5253 0.9704
3.6995 5.5696 -2.3911 0.9720
3.4667 5.6443 -2.3688 0.9723
3.0537 5.8690 -2.3659 0.9723
1.5090 6.4112 -2.3553 0.9724
1.2796 6.4565 -2.3538 0.9724
0.8171 6.5225 -2.3507 0.9725
0.5846 6.5431 -2.3492 0.9725
0.1186 6.5595 -2.3461 0.9725
-0.3468 6.5429 -2.3431 0.9726
-1.9375 6.2291 -2.3328 0.9727
5.8535 3.1018 -2.5386 0.9720
5.6146 3.5068 -2.5368 0.9720
5.4843 3.7025 -2.5358 0.9721
5.0530 4.2593 -2.5326 0.9721
4.7336 4.6029 -2.5302 0.9721
4.5650 4.7658 -2.5290 0.9721
4.3907 4.9224 -2.5277 0.9721
4.0262 5.2162 -2.5251 0.9722
3.8364 5.3530 -2.5238 0.9722
3.2437 5.2811 -2.3751 0.9738
3.0427 5.3727 -2.3662 0.9739
2.4498 5.6560 -2.3621 0.9739
2.2461 5.7360 -2.3607 0.9740
2.0398 5.8087 -2.3593 0.9740
1.8312 5.8739 -2.3578 0.9740
1.6205 5.9317 -2.3564 0.9740
0.9787 6.0593 -2.3521 0.9741
0.5455 6.1059 -2.3492 0.9741
0.1107 6.1218 -2.3464 0.9741
-0.1067 6.1181 -2.3449 0.9741
-0.5400 6.0878 -2.3421 0.9742
-1.1822 5.9852 -2.3380 0.9742
-1.8089 5.8156 -2.3340 0.9742
5.4758 2.9016 -2.5363 0.9736
5.1308 3.4638 -2.5336 0.9736
5.0026 3.6424 -2.5327 0.9736
4.7277 3.9850 -2.5306 0.9736
4.2715 4.4593 -2.5273 0.9737
4.1086 4.6060 -2.5261 0.9737
3.7677 4.8813 -2.5237 0.9737
3.5902 5.0095 -2.5224 0.9737
3.4083 5.1312 -2.5211 0.9737
3.2105 5.2271 -2.5106 0.9738
2.8791 5.0838 -2.3912 0.9751
2.4810 5.2123 -2.3626 0.9754
2.2931 5.2942 -2.3613 0.9754
1.9095 5.4375 -2.3587 0.9754
1.5170 5.5530 -2.3560 0.9754
1.3182 5.6002 -2.3547 0.9754
1.1178 5.6403 -2.3533 0.9755
0.9163 5.6732 -2.3520 0.9755
0.7139 5.6988 -2.3506 0.9755
0.5108 5.7173 -2.3493 0.9755
-0.0999 5.7294 -2.3453 0.9755
-0.3031 5.7190 -2.3439 0.9756
-1.1073 5.6060 -2.3387 0.9756
5.0366 2.9025 -2.5334 0.9750
4.9287 3.0784 -2.5326 0.9750
4.5685 3.5813 -2.5299 0.9750
4.0089 4.1852 -2.5257 0.9750
3.6985 4.4552 -2.5235 0.9751
3.1993 4.8165 -2.5200 0.9751
2.8466 5.0265 -2.5175 0.9751
2.5782 4.9549 -2.4343 0.9759
1.9739 5.0410 -2.3594 0.9767
1.7928 5.1052 -2.3581 0.9767
1.4244 5.2140 -2.3556 0.9767
1.2377 5.2585 -2.3544 0.9767
1.0497 5.2963 -2.3531 0.9767
0.8605 5.3274 -2.3518 0.9767
0.6704 5.3517 -2.3506 0.9767
0.4797 5.3692 -2.3493 0.9768
0.0973 5.3839 -2.3468 0.9768
-0.2847 5.3715 -2.3443 0.9768
-0.4750 5.3552 -2.3431 0.9768
-0.6645 5.3322 -2.3418 0.9768
-0.8529 5.3024 -2.3406 0.9768
-1.0402 5.2661 -2.3394 0.9769
-1.4098 5.1738 -2.3370 0.9769
-1.5919 5.1179 -2.3359 0.9769
4.8340 2.5615 -2.5323 0.9762
4.1747 3.5189 -2.5273 0.9762
4.0456 3.6635 -2.5264 0.9762
3.6287 4.0681 -2.5233 0.9763
3.3280 4.3117 -2.5212 0.9763
3.1714 4.4252 -2.5201 0.9763
3.0110 4.5330 -2.5189 0.9763
2.6792 4.7309 -2.5166 0.9763
2.5083 4.8208 -2.5154 0.9763
2.0837 4.8108 -2.4268 0.9772
1.8708 4.7777 -2.3750 0.9776
1.5151 4.8602 -2.3565 0.9778
1.3410 4.9084 -2.3553 0.9778
0.8101 5.0156 -2.3517 0.9779
0.4517 5.0553 -2.3494 0.9779
0.2717 5.0656 -2.3482 0.9779
0.0917 5.0695 -2.3470 0.9779
-0.6258 5.0214 -2.3423 0.9779
-0.9796 4.9595 -2.3400 0.9780
-1.1546 4.9192 -2.3389 0.9780
-1.3278 4.8728 -2.3378 0.9780
-1.4993 4.8203 -2.3367 0.9780
4.3731 2.7314 -2.5292 0.9773
4.0540 3.1780 -2.5268 0.9773
3.9373 3.3188 -2.5259 0.9773
3.8156 3.4552 -2.5250 0.9773
3.6891 3.5872 -2.5241 0.9773
3.2829 3.9546 -2.5211 0.9774
2.9915 4.1742 -2.5191 0.9774
2.8403 4.2760 -2.5180 0.9774
2.6854 4.3723 -2.5169 0.9774
2.5274 4.4629 -2.5158 0.9774
2.3663 4.5478 -2.5147 0.9774
2.2023 4.6269 -2.5136 0.9774
2.0357 4.7000 -2.5124 0.9774
1.8607 4.7517 -2.5032 0.9775
1.6620 4.7328 -2.4605 0.9779
1.2878 4.7138 -2.3970 0.9785
0.7645 4.7328 -2.3516 0.9789
0.5957 4.7547 -2.3505 0.9789
0.0865 4.7842 -2.3471 0.9789
-0.0834 4.7820 -2.3460 0.9789
-0.9295 4.7060 -2.3530 0.9789
4.1325 2.5812 -2.5277 0.9783
4.0371 2.7255 -2.5270 0.9783
3.6060 3.2655 -2.5237 0.9783
3.2348 3.6265 -2.5211 0.9783
2.9671 3.8440 -2.5191 0.9784
2.8276 3.9454 -2.5182 0.9784
2.5384 4.1328 -2.5161 0.9784
1.2737 4.6625 -2.5074 0.9785
0.7580 4.6925 -2.4659 0.9788
0.2519 4.6946 -2.4390 0.9790
-0.0818 4.6934 -2.4352 0.9791
-0.4160 4.6901 -2.4427 0.9790
-0.5842 4.6877 -2.4507 0.9789
-0.7536 4.6847 -2.4616 0.9788
-1.0975 4.6762 -2.4918 0.9786
-1.2623 4.6323 -2.4908 0.9786
-1.4254 4.5827 -2.4898 0.9786
3.9976 2.3037 -2.5270 0.9792
3.9122 2.4435 -2.5263 0.9792
3.8219 2.5802 -2.5256 0.9792
3.7269 2.7135 -2.5249 0.9792
3.5228 2.9694 -2.5234 0.9792
3.3010 3.2098 -2.5218 0.9792
3.1839 3.3239 -2.5209 0.9792
3.0628 3.4337 -2.5201 0.9792
2.8094 3.6397 -2.5182 0.9792
2.6773 3.7358 -2.5173 0.9793
2.2623 3.9947 -2.5144 0.9793
1.8224 4.2075 -2.5114 0.9793
0.2446 4.5593 -2.5007 0.9794
-0.2413 4.5537 -2.4976 0.9794
-0.5634 4.5212 -2.4955 0.9794
-1.1959 4.3888 -2.4914 0.9795
3.8664 2.0488 -2.5263 0.9800
3.6239 2.4465 -2.5244 0.9800
3.3404 2.8157 -2.5223 0.9800
3.2374 2.9316 -2.5216 0.9800
3.1303 3.0438 -2.5208 0.9800
2.9045 3.2561 -2.5191 0.9800
2.7861 3.3561 -2.5183 0.9801
2.4108 3.6295 -2.5156 0.9801
2.2796 3.7115 -2.5147 0.9801
2.1456 3.7887 -2.5138 0.9801
1.8699 3.9284 -2.5119 0.9801
1.7285 3.9907 -2.5109 0.9801
1.5851 4.0480 -2.5099 0.9801
1.1443 4.1886 -2.5069 0.9801
0.8435 4.2558 -2.5049 0.9802
0.2321 4.3253 -2.5008 0.9802
0.0783 4.3291 -2.4998 0.9802
-0.0754 4.3274 -2.4988 0.9802
-0.2290 4.3203 -2.4978 0.9802
-0.5346 4.2897 -2.4958 0.9802
-0.9866 4.2036 -2.4929 0.9803
-1.1347 4.1643 -2.4920 0.9803
