ply
format ascii 1.0
element vertex 504
property float32 x
property float32 y
property float32 z
property float32 I
end_header
2.6018 7.6747 1.4289 0.9676
0.1277 32.5291 5.7358 0.8762
-1.0067 31.4913 5.5556 0.8799
-5.2518 29.6201 5.3043 0.8850
2.6015 7.6738 1.2413 0.9677
-2.9096 27.9518 4.3052 0.8925
-3.8944 27.7157 4.2876 0.8929
-4.8548 27.3810 4.2600 0.8936
2.6012 7.6729 1.0550 0.9678
0.1334 33.9970 4.4271 0.8719
-1.9447 28.6238 3.7360 0.8907
-2.9421 28.2647 3.7005 0.8917
-3.9574 28.1637 3.7035 0.8916
-4.9350 27.8332 3.6810 0.8922
0.1326 33.7812 3.6275 0.8729
-2.9651 28.4855 3.0753 0.8912
-3.9640 28.2108 3.0591 0.8917
-5.8154 27.1029 2.9766 0.8945
-1.0663 33.3551 2.8250 0.8746
-2.1771 32.0433 2.7188 0.8790
-3.3140 31.8378 2.7097 0.8794
-5.2150 29.4125 2.5287 0.8870
-6.1583 28.7011 2.4849 0.8888
-2.1802 32.0899 1.9945 0.8791
-3.3450 32.1354 2.0035 0.8785
-4.2159 30.0033 1.8788 0.8857
-5.2330 29.5143 1.8587 0.8868
-7.4002 34.4892 2.1874 0.8682
2.5997 7.6684 0.1368 0.9681
0.0255 6.4877 0.1096 0.9744
-0.2074 6.4869 0.1096 0.9744
0.0255 6.4877 -0.0365 0.9744
-0.2073 6.4869 -0.0365 0.9744
-0.4463 6.5700 -0.0371 0.9740
-1.4090 6.5669 -0.0378 0.9735
37.8584 18.5009 -1.1865 0.8448
37.8652 20.2182 -1.2087 0.8422
37.8724 22.0032 -1.2333 0.8392
37.8798 23.8650 -1.2606 0.8360
37.8875 25.8137 -1.2909 0.8324
37.9042 30.0201 -1.3615 0.8241
-0.4463 6.5700 -0.1854 0.9740
-0.9229 6.5684 -0.1868 0.9738
-1.1644 6.5677 -0.1878 0.9737
37.8522 18.4979 -2.1366 0.8447
37.8589 20.2148 -2.1765 0.8421
37.8659 21.9995 -2.2209 0.8391
31.4047 24.8725 -2.0317 0.8518
37.9059 32.3005 -2.5256 0.8192
30.0448 39.5396 -2.5184 0.8196
28.6624 40.6705 -2.5233 0.8193
10.8448 48.6769 -2.5291 0.8189
9.0436 48.7752 -2.5158 0.8198
5.4656 48.7851 -2.4896 0.8215
1.9475 48.8974 -2.4818 0.8220
0.0255 6.4877 -0.3290 0.9744
-0.2073 6.4870 -0.3291 0.9743
29.8616 17.3490 -2.5322 0.8707
28.9478 19.7228 -2.5683 0.8689
28.9142 21.2577 -2.6314 0.8659
27.6776 23.5847 -2.6662 0.8643
26.7467 24.5009 -2.6596 0.8646
25.7840 25.3792 -2.6527 0.8649
20.5544 29.1656 -2.6162 0.8667
19.4377 29.7965 -2.6085 0.8670
17.1478 30.9270 -2.5929 0.8678
13.5989 32.2890 -2.5689 0.8689
12.3929 32.6530 -2.5608 0.8693
8.7292 33.4741 -2.5365 0.8704
6.2663 33.7963 -2.5203 0.8712
2.4237 31.9610 -2.3502 0.8794
0.0255 6.4877 -0.4757 0.9743
-0.2074 6.4870 -0.4759 0.9743
-0.9229 6.5684 -0.4863 0.9737
-1.4090 6.5669 -0.4925 0.9734
24.8521 12.1449 -2.6556 0.8948
24.3661 13.0103 -2.6518 0.8949
23.2996 14.6792 -2.6438 0.8952
22.1135 16.2578 -2.6350 0.8956
17.9236 20.3721 -2.6050 0.8967
17.1453 20.9580 -2.5996 0.8969
15.5311 22.0379 -2.5884 0.8973
12.9854 23.4198 -2.5709 0.8980
12.1087 23.8152 -2.5649 0.8982
11.2202 24.1775 -2.5589 0.8984
10.3212 24.5062 -2.5529 0.8987
9.4129 24.8013 -2.5468 0.8989
2.5982 7.6639 -0.7769 0.9680
7.5737 25.2899 -2.5345 0.8993
5.3651 24.0807 -2.3686 0.9056
4.4867 24.1985 -2.3628 0.9058
3.6070 24.2844 -2.3570 0.9061
2.7319 24.3844 -2.3557 0.9061
1.8559 24.4732 -2.3563 0.9061
0.9746 24.4685 -2.3510 0.9063
-0.2074 6.4870 -0.6231 0.9743
-0.4463 6.5700 -0.6322 0.9739
-0.6838 6.5692 -0.6341 0.9738
-0.9229 6.5685 -0.6368 0.9737
-1.1645 6.5677 -0.6404 0.9736
-1.4090 6.5669 -0.6448 0.9734
19.8529 9.7018 -2.6248 0.9148
19.0620 11.0747 -2.6187 0.9150
18.1725 12.3813 -2.6120 0.9152
17.6927 13.0076 -2.6085 0.9153
15.5577 15.3134 -2.5931 0.9158
14.9744 15.8363 -2.5889 0.9160
14.3730 16.3365 -2.5847 0.9161
13.1201 17.2663 -2.5759 0.9164
12.4703 17.6948 -2.5714 0.9165
11.1294 18.4766 -2.5622 0.9168
2.2106 19.7318 -2.3585 0.9231
1.4987 19.7635 -2.3544 0.9233
0.7873 19.7666 -2.3499 0.9234
-0.2073 6.4870 -0.7709 0.9742
16.1979 8.6488 -2.6017 0.9285
15.1278 10.3069 -2.5937 0.9287
14.7317 10.8308 -2.5907 0.9288
13.8840 11.8309 -2.5846 0.9290
13.3905 12.2663 -2.5730 0.9293
11.9860 13.6233 -2.5710 0.9293
11.4735 14.0248 -2.5674 0.9294
10.9472 14.4068 -2.5637 0.9295
9.8570 15.1100 -2.5562 0.9297
9.2945 15.4304 -2.5523 0.9298
8.1389 16.0075 -2.5444 0.9300
6.3416 16.7091 -2.5323 0.9303
2.5976 7.6621 -1.1463 0.9678
4.7993 16.0257 -2.3703 0.9346
3.6260 16.2750 -2.3625 0.9349
3.0385 16.3874 -2.3615 0.9349
1.8517 16.5283 -2.3565 0.9350
1.2557 16.5596 -2.3531 0.9351
0.0255 6.4877 -0.9192 0.9741
-0.4463 6.5700 -0.9330 0.9737
-0.6838 6.5692 -0.9358 0.9737
-1.1644 6.5677 -0.9451 0.9734
-1.4090 6.5669 -0.9516 0.9732
13.8545 7.3976 -2.5874 0.9383
12.6082 9.2695 -2.5780 0.9385
11.8868 10.1290 -2.5727 0.9387
10.6625 11.2762 -2.5566 0.9390
10.2695 11.6724 -2.5612 0.9389
9.8032 11.9833 -2.5505 0.9392
8.9231 12.6614 -2.5518 0.9391
6.9837 13.7354 -2.5384 0.9394
6.4777 13.9582 -2.5350 0.9395
5.1136 13.4734 -2.3741 0.9433
2.5973 7.6612 -1.3327 0.9677
4.1228 13.7668 -2.3674 0.9434
3.1196 14.0020 -2.3632 0.9435
2.6129 14.0920 -2.3611 0.9436
1.0796 14.2365 -2.3520 0.9438
0.5674 14.2449 -2.3486 0.9438
-0.2073 6.4870 -1.0692 0.9740
-0.4463 6.5700 -1.0848 0.9737
-0.9229 6.5685 -1.0927 0.9735
-1.1644 6.5677 -1.0988 0.9733
-1.4090 6.5669 -1.1064 0.9731
12.3246 6.0228 -2.5783 0.9457
12.0921 6.4566 -2.5765 0.9457
11.3022 7.7004 -2.5706 0.9459
10.7026 8.4764 -2.5662 0.9459
10.0487 9.2049 -2.5614 0.9460
9.7026 9.5502 -2.5589 0.9461
8.2028 10.7950 -2.5484 0.9463
7.8017 11.0701 -2.5456 0.9464
7.3912 11.3302 -2.5427 0.9464
6.5448 11.8040 -2.5369 0.9465
6.1101 12.0171 -2.5339 0.9466
5.3230 11.4702 -2.3768 0.9498
4.4762 11.7938 -2.3711 0.9500
2.5970 7.6604 -1.5203 0.9676
3.6102 12.0549 -2.3653 0.9501
2.7326 12.2649 -2.3618 0.9501
0.0255 6.4878 -1.2194 0.9739
-0.6838 6.5693 -1.2414 0.9735
-0.9229 6.5685 -1.2467 0.9734
-1.1645 6.5677 -1.2537 0.9732
10.9224 5.3376 -2.5697 0.9515
10.7172 5.7224 -2.5681 0.9515
10.4982 6.0992 -2.5664 0.9516
10.0197 6.8267 -2.5628 0.9516
9.4900 7.5160 -2.5589 0.9517
9.2069 7.8453 -2.5569 0.9517
8.2893 8.7664 -2.5503 0.9519
7.9622 9.0499 -2.5480 0.9519
7.6254 9.3211 -2.5456 0.9520
6.9241 9.8249 -2.5407 0.9520
6.5606 10.0570 -2.5382 0.9521
6.1894 10.2755 -2.5356 0.9521
5.0951 10.0209 -2.3763 0.9551
4.3542 10.3385 -2.3713 0.9552
3.9763 10.4768 -2.3687 0.9552
2.8201 10.8144 -2.3624 0.9553
2.0335 10.9674 -2.3578 0.9554
1.6371 11.0224 -2.3555 0.9555
0.8409 11.0881 -2.3505 0.9556
0.0255 6.4878 -1.3714 0.9738
-0.2073 6.4870 -1.3719 0.9738
-0.9229 6.5685 -1.4021 0.9732
-1.4090 6.5669 -1.4197 0.9729
9.7970 4.7877 -2.5628 0.9562
9.6137 5.1332 -2.5613 0.9562
8.5159 6.7446 -2.5531 0.9563
8.2625 7.0407 -2.5513 0.9564
7.9987 7.3271 -2.5494 0.9564
7.7247 7.6034 -2.5474 0.9564
6.8464 8.3688 -2.5412 0.9565
6.2179 8.8229 -2.5368 0.9566
5.2208 8.6673 -2.3780 0.9593
4.5773 9.0026 -2.3736 0.9594
3.9126 9.2900 -2.3691 0.9594
1.8280 9.8592 -2.3566 0.9596
1.1145 9.9471 -2.3524 0.9597
0.7561 9.9704 -2.3500 0.9597
0.3975 9.9807 -2.3476 0.9598
-0.2073 6.4870 -1.5254 0.9737
-0.6838 6.5693 -1.5523 0.9732
-0.9229 6.5685 -1.5589 0.9731
-1.4090 6.5669 -1.5785 0.9728
8.7075 4.6494 -2.5558 0.9600
8.1439 5.5487 -2.5515 0.9601
7.7156 6.1107 -2.5483 0.9601
7.4865 6.3794 -2.5467 0.9602
7.2479 6.6394 -2.5450 0.9602
7.0002 6.8903 -2.5432 0.9602
6.4787 7.3637 -2.5395 0.9603
5.0167 7.6902 -2.3773 0.9628
4.7337 7.8588 -2.3754 0.9628
4.1511 8.1642 -2.3714 0.9629
3.5488 8.4263 -2.3673 0.9629
3.2415 8.5407 -2.3652 0.9630
2.5442 7.5048 -2.0517 0.9678
2.3067 7.7027 -2.0819 0.9673
2.2995 8.8177 -2.3594 0.9630
1.9801 8.8875 -2.3576 0.9631
1.3356 8.9922 -2.3538 0.9631
1.0113 9.0266 -2.3518 0.9632
0.3608 9.0588 -2.3473 0.9632
0.0255 6.4878 -1.6798 0.9735
-0.4463 6.5701 -1.7050 0.9732
-0.6838 6.5693 -1.7101 0.9731
-1.1645 6.5677 -1.7270 0.9728
-1.4090 6.5670 -1.7390 0.9726
8.1003 3.9585 -2.5523 0.9632
7.9494 4.2446 -2.5511 0.9632
7.4360 5.0663 -2.5472 0.9633
7.0457 5.5801 -2.5444 0.9633
6.8369 5.8258 -2.5428 0.9633
6.6194 6.0636 -2.5413 0.9634
6.3935 6.2931 -2.5396 0.9634
6.1596 6.5141 -2.5380 0.9634
5.9179 6.7263 -2.5363 0.9634
4.8364 6.8626 -2.3767 0.9657
4.3255 7.1810 -2.3732 0.9657
3.5208 7.5865 -2.3677 0.9658
3.2438 7.7018 -2.3658 0.9659
2.2988 7.6762 -2.2684 0.9672
2.1021 8.0609 -2.3583 0.9660
1.5165 8.1790 -2.3549 0.9660
1.2212 8.2221 -2.3531 0.9660
0.6275 8.2745 -2.3492 0.9661
0.3300 8.2849 -2.3472 0.9661
0.0255 6.4878 -1.8366 0.9734
-0.2073 6.4870 -1.8374 0.9734
-0.4463 6.5701 -1.8642 0.9730
-1.1645 6.5678 -1.8883 0.9727
7.4436 3.6376 -2.5482 0.9659
7.1574 4.1583 -2.5460 0.9660
7.0004 4.4104 -2.5448 0.9660
6.8343 4.6564 -2.5436 0.9660
6.6595 4.8960 -2.5423 0.9660
6.4761 5.1291 -2.5410 0.9660
5.8776 5.7853 -2.5366 0.9661
5.2123 6.3714 -2.5319 0.9661
4.4474 6.3106 -2.3746 0.9682
4.2153 6.4617 -2.3730 0.9682
3.7359 6.7379 -2.3697 0.9683
3.2385 6.9784 -2.3663 0.9683
2.9839 7.0849 -2.3646 0.9683
2.7258 7.1821 -2.3628 0.9684
2.4646 7.2699 -2.3611 0.9684
2.2006 7.3481 -2.3593 0.9684
0.5775 7.6150 -2.3489 0.9685
0.3037 7.6251 -2.3472 0.9686
-0.2073 6.4871 -1.9963 0.9732
-0.4463 6.5701 -2.0254 0.9728
-0.6838 6.5693 -2.0315 0.9727
-1.4090 6.5670 -2.0658 0.9723
6.8782 3.3613 -2.5448 0.9682
6.7506 3.6045 -2.5438 0.9683
6.6142 3.8427 -2.5427 0.9683
6.4693 4.0758 -2.5416 0.9683
6.3161 4.3033 -2.5405 0.9683
5.8087 4.9497 -2.5367 0.9683
5.6244 5.1521 -2.5354 0.9684
5.4330 5.3477 -2.5340 0.9684
5.2347 5.5361 -2.5326 0.9684
5.0299 5.7170 -2.5312 0.9684
3.8976 5.9747 -2.3712 0.9704
3.4547 6.2307 -2.3682 0.9704
3.2269 6.3465 -2.3666 0.9704
2.2797 6.7245 -2.3602 0.9705
2.0356 6.7972 -2.3586 0.9705
1.5409 6.9160 -2.3553 0.9706
1.0396 6.9990 -2.3520 0.9706
0.7873 7.0269 -2.3504 0.9706
0.5343 7.0457 -2.3488 0.9707
0.0255 6.4878 -2.1566 0.9730
-0.6838 6.5693 -2.1955 0.9725
-0.9229 6.5685 -2.2048 0.9724
6.3859 3.1207 -2.5417 0.9703
6.2676 3.3465 -2.5408 0.9703
6.1411 3.5679 -2.5398 0.9703
6.0067 3.7844 -2.5388 0.9703
5.8647 3.9957 -2.5378 0.9703
5.7151 4.2017 -2.5366 0.9703
5.5581 4.4020 -2.5355 0.9703
4.8617 5.1415 -2.5305 0.9704
4.4757 5.4710 -2.5277 0.9704
4.2741 5.6249 -2.5263 0.9704
3.6206 5.5501 -2.3697 0.9722
2.7828 5.9963 -2.3640 0.9723
2.5643 6.0884 -2.3625 0.9723
2.3427 6.1726 -2.3610 0.9723
2.1184 6.2487 -2.3595 0.9724
1.8917 6.3166 -2.3580 0.9724
1.6628 6.3763 -2.3564 0.9724
1.4321 6.4276 -2.3549 0.9724
1.1997 6.4706 -2.3534 0.9724
0.9662 6.5052 -2.3518 0.9724
0.4966 6.5492 -2.3488 0.9725
0.2612 6.5585 -2.3472 0.9725
-0.4440 6.5359 -2.3427 0.9726
-0.6778 6.5115 -2.3412 0.9726
-1.3708 6.3889 -2.3367 0.9726
5.8427 3.1197 -2.5382 0.9720
5.7250 3.3261 -2.5373 0.9720
5.5999 3.5280 -2.5363 0.9720
5.3282 3.9173 -2.5343 0.9721
4.8701 4.4612 -2.5310 0.9721
4.5334 4.7943 -2.5286 0.9721
4.3563 4.9514 -2.5273 0.9721
4.1737 5.1019 -2.5260 0.9722
3.9860 5.2456 -2.5247 0.9722
3.7932 5.3823 -2.5234 0.9722
3.5478 5.4384 -2.4884 0.9726
3.1871 5.2911 -2.3671 0.9739
2.9935 5.3990 -2.3658 0.9739
2.7964 5.4998 -2.3644 0.9739
2.5958 5.5933 -2.3630 0.9739
2.3921 5.6795 -2.3617 0.9739
2.1855 5.7583 -2.3603 0.9740
1.5514 5.9490 -2.3560 0.9740
1.1195 6.0376 -2.3531 0.9740
0.4635 6.1117 -2.3488 0.9741
0.2438 6.1206 -2.3474 0.9741
0.0241 6.1217 -2.3460 0.9741
-0.6326 6.0779 -2.3417 0.9742
-0.8497 6.0477 -2.3403 0.9742
-1.0655 6.0098 -2.3390 0.9742
-1.2797 5.9642 -2.3376 0.9742
5.4657 2.9184 -2.5359 0.9736
5.3557 3.1116 -2.5350 0.9736
4.8484 3.8399 -2.5313 0.9736
4.7055 4.0097 -2.5302 0.9736
4.5568 4.1741 -2.5291 0.9736
4.4021 4.3330 -2.5280 0.9737
4.2419 4.4861 -2.5269 0.9737
4.0764 4.6332 -2.5257 0.9737
3.9057 4.7742 -2.5245 0.9737
3.7301 4.9088 -2.5233 0.9737
3.5498 5.0370 -2.5220 0.9737
3.3651 5.1584 -2.5207 0.9737
3.1232 5.1850 -2.4773 0.9742
2.8092 5.0665 -2.3710 0.9753
2.4296 5.2354 -2.3622 0.9754
2.2391 5.3162 -2.3609 0.9754
2.0457 5.3902 -2.3596 0.9754
1.8501 5.4570 -2.3583 0.9754
1.6521 5.5168 -2.3570 0.9754
1.4524 5.5694 -2.3556 0.9754
0.4340 5.7228 -2.3489 0.9755
0.2283 5.7314 -2.3476 0.9755
-0.1830 5.7265 -2.3449 0.9755
-0.5925 5.6922 -2.3423 0.9756
-0.7958 5.6641 -2.3410 0.9756
-0.9980 5.6288 -2.3397 0.9756
-1.1986 5.5864 -2.3384 0.9756
5.2252 2.5535 -2.5346 0.9749
5.0255 2.9198 -2.5330 0.9750
4.8001 3.2704 -2.5313 0.9750
4.4160 3.7629 -2.5285 0.9750
4.2764 3.9174 -2.5275 0.9750
3.6659 4.4810 -2.5231 0.9751
2.9816 4.9499 -2.5184 0.9751
2.1021 4.9911 -2.3602 0.9766
1.7370 5.1236 -2.3578 0.9767
0.4076 5.3744 -2.3490 0.9768
0.2144 5.3827 -2.3477 0.9768
0.0212 5.3840 -2.3465 0.9768
-0.3646 5.3659 -2.3440 0.9768
-0.5565 5.3466 -2.3427 0.9768
-0.7475 5.3204 -2.3415 0.9768
-1.1260 5.2477 -2.3391 0.9769
4.9159 2.4023 -2.5327 0.9762
4.8252 2.5764 -2.5320 0.9762
4.6253 2.9140 -2.5304 0.9762
4.2811 3.3906 -2.5279 0.9762
4.1552 3.5407 -2.5270 0.9762
3.8877 3.8266 -2.5250 0.9762
3.7464 3.9620 -2.5240 0.9763
3.4498 4.2169 -2.5219 0.9763
3.2949 4.3361 -2.5208 0.9763
2.9728 4.5571 -2.5186 0.9763
2.6360 4.7542 -2.5163 0.9763
2.4626 4.8434 -2.5151 0.9763
1.2838 4.9230 -2.3550 0.9778
0.7464 5.0248 -2.3514 0.9779
0.5653 5.0458 -2.3502 0.9779
0.3837 5.0602 -2.3490 0.9779
0.2019 5.0682 -2.3478 0.9779
0.0199 5.0696 -2.3467 0.9779
4.6357 2.2654 -2.5309 0.9773
4.5503 2.4296 -2.5303 0.9773
4.2592 2.9019 -2.5281 0.9773
3.9189 3.3394 -2.5256 0.9773
3.7953 3.4766 -2.5247 0.9773
3.3959 3.8598 -2.5218 0.9774
3.2540 3.9776 -2.5208 0.9774
2.6472 4.3947 -2.5166 0.9774
2.4867 4.4849 -2.5155 0.9774
2.1568 4.6475 -2.5132 0.9774
1.8009 4.7451 -2.4896 0.9776
1.6027 4.7275 -2.4486 0.9780
1.4124 4.7162 -2.4149 0.9783
1.0500 4.7126 -2.3683 0.9787
0.3621 4.7752 -2.3491 0.9789
0.1905 4.7828 -2.3480 0.9789
0.0188 4.7843 -2.3468 0.9789
-0.1528 4.7797 -2.3457 0.9789
-1.0089 4.7021 -2.3590 0.9788
4.3805 2.1407 -2.5294 0.9783
4.1220 2.5969 -2.5274 0.9783
4.0250 2.7423 -2.5266 0.9783
3.9229 2.8841 -2.5259 0.9783
3.8157 3.0220 -2.5251 0.9783
3.4654 3.4110 -2.5226 0.9783
3.2096 3.6481 -2.5207 0.9783
3.0755 3.7594 -2.5198 0.9784
2.6507 4.0633 -2.5168 0.9784
2.5022 4.1541 -2.5158 0.9784
2.3506 4.2394 -2.5148 0.9784
2.1961 4.3192 -2.5137 0.9784
2.0389 4.3933 -2.5126 0.9784
1.8791 4.4617 -2.5115 0.9784
1.7171 4.5243 -2.5105 0.9784
1.3871 4.6316 -2.5082 0.9784
1.2195 4.6763 -2.5071 0.9785
1.0448 4.6892 -2.4923 0.9786
0.6971 4.6929 -2.4613 0.9788
0.5259 4.6940 -2.4504 0.9789
0.0185 4.6939 -2.4351 0.9791
-0.3187 4.6912 -2.4393 0.9790
-0.6585 4.6864 -2.4551 0.9789
-0.8303 4.6831 -2.4674 0.9788
3.9889 2.3175 -2.5267 0.9792
3.8104 2.5961 -2.5254 0.9792
3.6124 2.8610 -2.5239 0.9792
3.3959 3.1107 -2.5223 0.9792
3.0389 3.4541 -2.5198 0.9792
2.9120 3.5596 -2.5189 0.9792
2.6474 3.7565 -2.5170 0.9793
2.5099 3.8475 -2.5161 0.9793
2.3694 3.9336 -2.5151 0.9793
2.0796 4.0901 -2.5131 0.9793
1.7796 4.2253 -2.5111 0.9793
1.1550 4.4289 -2.5069 0.9793
0.6716 4.5216 -2.5037 0.9794
0.5088 4.5408 -2.5026 0.9794
0.3454 4.5542 -2.5015 0.9794
0.1817 4.5617 -2.5005 0.9794
0.0179 4.5634 -2.4994 0.9794
-0.4719 4.5331 -2.4962 0.9794
-0.6339 4.5114 -2.4952 0.9794
-0.9549 4.4507 -2.4931 0.9795
3.9318 1.9214 -2.5266 0.9800
3.8595 2.0608 -2.5260 0.9800
3.7822 2.1974 -2.5254 0.9800
3.7000 2.3311 -2.5248 0.9800
3.3249 2.8332 -2.5220 0.9800
2.7616 3.3757 -2.5180 0.9801
2.5107 3.5625 -2.5163 0.9801
1.8313 3.9460 -2.5116 0.9801
1.6879 4.0076 -2.5106 0.9801
1.5424 4.0640 -2.5096 0.9801
1.2461 4.1608 -2.5076 0.9801
0.4826 4.3077 -2.5026 0.9802
0.0170 4.3293 -2.4995 0.9802
-0.4477 4.3009 -2.4965 0.9802
-0.6014 4.2804 -2.4956 0.9802
-0.7543 4.2544 -2.4946 0.9802
-0.9061 4.2230 -2.4936 0.9802
