ply
format ascii 1.0
element vertex 627
property float32 x
property float32 y
property float32 z
property float32 I
end_header
-38.6243 13.0162 7.1868 0.8474
-42.6748 12.7134 7.8515 0.8346
-38.7801 -8.1629 6.9878 0.8513
-21.7640 -6.2221 3.9913 0.9122
-22.4014 -7.2738 4.1530 0.9088
-21.9474 -7.9981 4.1189 0.9095
-20.7809 -9.2918 4.0138 0.9117
-31.7192 -21.6058 6.7672 0.8557
-29.4190 -21.6064 6.4361 0.8622
-27.3191 -21.5978 6.1406 0.8681
-23.6063 -21.5532 5.6364 0.8782
-21.9773 -21.5451 5.4267 0.8825
-19.0468 -21.5277 5.0684 0.8898
-41.6012 19.1569 7.0163 0.8308
-37.7957 14.2498 6.1879 0.8492
-39.0701 13.1664 6.3160 0.8463
-44.4334 13.2373 7.1026 0.8289
-43.3047 11.2441 6.8540 0.8344
-42.9401 9.5365 6.7385 0.8369
-43.1601 7.9895 6.7242 0.8373
-40.1601 -6.9749 6.2444 0.8479
-38.8653 -8.1808 6.0844 0.8515
-38.0314 -9.4265 6.0025 0.8534
-22.1836 -7.2031 3.5731 0.9099
-21.7846 -7.9388 3.5520 0.9104
-20.7567 -9.2809 3.4832 0.9121
-41.2038 -22.0552 7.1595 0.8277
-34.3047 -21.6253 6.2123 0.8487
-27.3170 -21.5961 5.3346 0.8686
-23.6066 -21.5535 4.8970 0.8787
-21.9776 -21.5454 4.7149 0.8829
-20.4610 -21.5351 4.5507 0.8867
-19.0472 -21.5282 4.4035 0.8902
-43.2637 16.3114 6.0210 0.8299
-43.8577 13.0658 5.9592 0.8314
-45.2546 10.0505 6.0367 0.8294
-39.6229 -6.8817 5.2370 0.8503
-38.8252 -8.1724 5.1666 0.8521
-37.8539 -9.3825 5.0785 0.8544
-21.9709 -7.1340 3.0081 0.9110
-21.2233 -8.5993 2.9820 0.9118
-20.4161 -9.1286 2.9123 0.9137
-44.2118 -21.6830 6.4124 0.8199
-40.4267 -21.6393 5.9711 0.8311
-37.1884 -21.6380 5.6028 0.8407
-31.7181 -21.6050 4.9975 0.8566
-27.3150 -21.5945 4.5343 0.8690
-25.3732 -21.5661 4.3364 0.8743
-21.9779 -21.5457 4.0079 0.8832
-19.0476 -21.5287 3.7432 0.8905
-42.6014 25.4233 5.3273 0.8191
-45.8162 17.2737 5.2579 0.8212
-45.4290 15.3093 5.1478 0.8246
-43.2527 12.8856 4.8463 0.8340
-38.6095 -8.1270 4.2368 0.8532
-21.7032 -7.0471 2.4503 0.9123
-21.7765 -7.9358 2.4888 0.9110
-40.4284 -21.6402 4.9241 0.8315
-37.1870 -21.6372 4.6200 0.8411
-25.3733 -21.5661 3.5758 0.8746
-23.6073 -21.5542 3.4327 0.8793
-19.0480 -21.5291 3.0868 0.8908
-38.9438 -6.7637 3.3460 0.8533
-21.7057 -7.9100 1.9556 0.9114
-21.2152 -8.5960 1.9377 0.9122
-20.2085 -9.0358 1.8739 0.9150
-44.2029 -21.6786 4.1677 0.8207
-27.3108 -21.5912 2.9472 0.8696
-25.3733 -21.5661 2.8189 0.8749
-23.6077 -21.5545 2.7061 0.8796
-20.4624 -21.5365 2.5148 0.8876
-45.4464 15.3152 2.9739 0.8251
-38.6433 -6.7115 2.4322 0.8545
-39.0208 -8.2136 2.4727 0.8523
-37.0150 -9.1746 2.3648 0.8583
-21.6577 -7.0323 1.4120 0.9128
-20.1071 -8.9905 1.3658 0.9155
-44.1984 -21.6764 3.0526 0.8210
-40.4318 -21.6420 2.8438 0.8321
-37.1842 -21.6356 2.6677 0.8416
-34.2951 -21.6192 2.5139 0.8500
-31.7163 -21.6038 2.3796 0.8574
-29.4073 -21.5979 2.2625 0.8640
-25.3733 -21.5661 2.0650 0.8751
-20.4628 -21.5370 1.8422 0.8878
-19.0488 -21.5300 1.7826 0.8912
-38.4879 -8.1014 1.5509 0.8543
-22.8347 -7.4145 0.9467 0.9084
-20.9935 -8.5062 0.8932 0.9133
-37.1828 -21.6348 1.6963 0.8418
-31.7157 -21.6034 1.5131 0.8576
-29.4050 -21.5962 1.4386 0.8641
-27.3067 -21.5880 1.3726 0.8699
-23.6084 -21.5551 1.2605 0.8799
-21.9792 -21.5469 1.2137 0.8841
-20.4632 -21.5374 1.1714 0.8879
-19.0492 -21.5305 1.1336 0.8913
-42.3737 23.2889 0.8168 0.8241
-38.9304 -8.1945 0.6720 0.8529
-21.7244 -7.9169 0.3906 0.9116
-20.6781 -8.3784 0.3769 0.9146
-44.1895 -21.6720 0.8314 0.8213
-40.4352 -21.6438 0.7747 0.8324
-37.1815 -21.6340 0.7266 0.8419
-34.2903 -21.6162 0.6847 0.8503
-29.4028 -21.5945 0.6162 0.8642
-27.3047 -21.5864 0.5880 0.8700
-23.6087 -21.5554 0.5400 0.8799
-21.9795 -21.5472 0.5199 0.8841
-20.4637 -21.5379 0.5018 0.8879
-10.8021 6.4465 -0.0708 0.9509
-17.2901 6.5188 -0.1040 0.9288
-21.8356 6.5052 -0.1283 0.9129
-29.1678 6.4779 -0.1682 0.8874
-21.7168 -7.9141 -0.1301 0.9117
-21.6404 -8.7683 -0.1315 0.9108
-44.1851 -21.6699 -0.2771 0.8213
-37.1801 -21.6332 -0.2422 0.8419
-29.4004 -21.5928 -0.2054 0.8642
-27.3027 -21.5848 -0.1959 0.8700
-21.9798 -21.5475 -0.1733 0.8842
-10.8021 6.4465 -0.3542 0.9509
-14.1852 6.5322 -0.4397 0.9394
-15.6109 6.5275 -0.4764 0.9345
-17.2901 6.5188 -0.5203 0.9287
-19.3242 6.5122 -0.5742 0.9216
-21.8356 6.5052 -0.6416 0.9129
-29.1679 6.4779 -0.8413 0.8873
-34.8801 6.4568 -0.9988 0.8677
-43.2940 6.4344 -1.2325 0.8393
-21.7052 -7.9098 -0.6505 0.9117
-40.4386 -21.6456 -1.2915 0.8323
-34.2855 -21.6133 -1.1412 0.8503
-31.7140 -21.6022 -1.0805 0.8577
-29.3982 -21.5911 -1.0271 0.8642
-27.3006 -21.5832 -0.9799 0.8700
-20.4646 -21.5388 -0.8366 0.8879
-11.8985 6.5396 -0.6886 0.9471
-12.9620 6.5362 -0.7362 0.9435
-14.1852 6.5322 -0.7920 0.9394
-15.6110 6.5276 -0.8581 0.9345
-17.2902 6.5188 -0.9371 0.9287
-19.3243 6.5122 -1.0342 0.9216
-21.8357 6.5052 -1.1555 0.9128
-25.0138 6.4949 -1.3106 0.9017
-40.6016 6.0342 -2.0817 0.8484
-43.5780 3.3419 -2.2165 0.8394
-43.6766 1.7935 -2.2169 0.8394
-43.7264 0.2422 -2.2176 0.8393
-43.6800 -2.8635 -2.2199 0.8392
-43.5833 -4.4153 -2.2216 0.8391
-42.7070 -10.5854 -2.2314 0.8384
-41.0493 -16.6324 -2.2462 0.8375
-40.5135 -18.1148 -2.2506 0.8372
-37.1703 -19.8963 -2.1381 0.8446
-36.2657 -21.1012 -2.1279 0.8453
-29.3959 -21.5894 -1.8497 0.8641
-27.2986 -21.5816 -1.7648 0.8699
-25.3734 -21.5662 -1.6888 0.8751
-23.6097 -21.5563 -1.6213 0.8798
-10.8022 6.4465 -0.9223 0.9508
-11.8986 6.5396 -0.9955 0.9470
-12.9620 6.5362 -1.0644 0.9434
-14.1852 6.5322 -1.1451 0.9393
-15.6110 6.5276 -1.2407 0.9344
-17.2902 6.5189 -1.3549 0.9286
-19.3243 6.5123 -1.4952 0.9215
-25.0139 6.4949 -1.8949 0.9015
-28.9405 5.3572 -2.1580 0.8887
-31.1361 3.5031 -2.2974 0.8819
-31.2414 2.3959 -2.2974 0.8819
-31.3436 0.1736 -2.2982 0.8819
-31.3404 -0.9393 -2.2990 0.8818
-31.3009 -2.0520 -2.3000 0.8818
-28.6977 -7.1130 -2.1679 0.8882
-28.4566 -8.1356 -2.1701 0.8881
-28.1819 -9.1508 -2.1726 0.8880
-21.6241 -7.8803 -1.6875 0.9118
-29.3176 -11.8789 -2.3194 0.8808
-28.9184 -12.9303 -2.3227 0.8807
-27.5120 -16.0078 -2.3339 0.8802
-25.7984 -18.9474 -2.3470 0.8795
-22.3396 -20.3967 -2.2180 0.8857
-11.8986 6.5396 -1.3035 0.9469
-14.1853 6.5322 -1.4993 0.9392
-15.6111 6.5276 -1.6245 0.9343
-21.9864 6.5501 -2.2025 0.9119
-22.1966 5.7634 -2.2016 0.9120
-23.9992 4.4426 -2.3432 0.9066
-24.2489 2.7283 -2.3427 0.9066
-24.4042 -0.7314 -2.3440 0.9065
-24.3711 -1.5977 -2.3448 0.9065
-23.9507 -5.0415 -2.3498 0.9063
-23.6801 -5.8694 -2.3422 0.9066
-21.5830 -7.8653 -2.2054 0.9118
-20.9259 -13.1915 -2.3749 0.9054
-20.4741 -13.9461 -2.3783 0.9052
-19.4932 -15.4109 -2.3856 0.9050
-18.4121 -16.8108 -2.3936 0.9047
-17.8351 -17.4844 -2.3978 0.9045
-17.2345 -18.1392 -2.4021 0.9043
-10.8022 6.4465 -1.4943 0.9506
-11.8986 6.5396 -1.6128 0.9468
-12.9621 6.5362 -1.7244 0.9432
-14.1853 6.5322 -1.8551 0.9390
-15.6111 6.5276 -2.0100 0.9341
-17.5753 6.6263 -2.2311 0.9271
-17.7915 5.9956 -2.2302 0.9272
-17.9862 5.3583 -2.2293 0.9272
-19.7504 2.9353 -2.3718 0.9227
-19.8411 2.2323 -2.3717 0.9227
-19.9080 1.5267 -2.3717 0.9227
-19.9513 0.8192 -2.3719 0.9227
-19.9706 0.1106 -2.3723 0.9227
-19.8857 -2.0146 -2.3742 0.9226
-19.8097 -2.7202 -2.3752 0.9226
-18.0609 -5.8645 -2.2556 0.9264
-16.9686 -8.3220 -2.2450 0.9267
-17.4312 -10.1424 -2.3956 0.9220
-17.0795 -10.7668 -2.3983 0.9219
-16.7063 -11.3796 -2.4011 0.9218
-16.3120 -11.9802 -2.4041 0.9217
-15.4614 -13.1416 -2.4104 0.9215
-15.0060 -13.7010 -2.4137 0.9214
-14.0369 -14.7738 -2.4207 0.9212
-11.8987 6.5397 -1.9238 0.9466
-12.9621 6.5362 -2.0569 0.9430
-14.4335 6.6465 -2.2515 0.9378
-14.8557 5.6009 -2.2495 0.9379
-15.0395 5.0682 -2.2487 0.9379
-16.4846 3.6610 -2.3926 0.9341
-16.6986 2.4817 -2.3920 0.9341
-16.8553 -1.1050 -2.3933 0.9340
-16.8103 -1.7030 -2.3940 0.9340
-16.7450 -2.2994 -2.3949 0.9340
-16.6595 -2.8934 -2.3958 0.9340
-16.5537 -3.4844 -2.3969 0.9339
-16.1164 -5.2331 -2.4009 0.9338
-15.9309 -5.8056 -2.4025 0.9338
-14.3291 -7.0275 -2.2613 0.9376
-13.8188 -8.0405 -2.2653 0.9375
-13.5376 -8.5340 -2.2674 0.9374
-13.2393 -9.0181 -2.2697 0.9373
-13.7626 -10.1078 -2.4194 0.9333
-13.4097 -10.6014 -2.4221 0.9333
-12.6528 -11.5524 -2.4276 0.9331
-11.8303 -12.4513 -2.4336 0.9330
-12.0599 6.6282 -2.2670 0.9457
-12.2813 6.1929 -2.2659 0.9458
-12.4876 5.7504 -2.2648 0.9458
-12.6785 5.3013 -2.2639 0.9458
-12.8539 4.8462 -2.2630 0.9458
-13.7216 4.6241 -2.3854 0.9430
-14.1468 3.6732 -2.4078 0.9425
-14.4513 2.1478 -2.4068 0.9425
-14.5178 1.6334 -2.4067 0.9425
-14.5668 1.1171 -2.4068 0.9425
-14.6117 0.0809 -2.4072 0.9425
-14.6076 -0.4378 -2.4075 0.9425
-14.5858 -0.9562 -2.4080 0.9425
-14.5463 -1.4736 -2.4086 0.9425
-14.4144 -2.5035 -2.4102 0.9424
-14.2121 -3.5226 -2.4121 0.9424
-14.0850 -4.0268 -2.4133 0.9423
-13.9405 -4.5265 -2.4146 0.9423
-13.7789 -5.0213 -2.4160 0.9423
-12.1751 -6.5170 -2.2750 0.9456
-11.9455 -6.9505 -2.2768 0.9455
-11.4415 -7.7935 -2.2806 0.9454
-10.8798 -8.6013 -2.2848 0.9453
-10.5779 -8.9908 -2.2870 0.9453
-10.9281 -9.9777 -2.4378 0.9418
-10.2143 -10.7505 -2.4429 0.9417
-10.4075 6.2109 -2.2781 0.9519
-10.8118 5.4519 -2.2759 0.9519
-10.9940 5.0626 -2.2750 0.9519
-11.1693 4.6703 -2.2755 0.9519
-12.2018 4.1119 -2.4202 0.9489
-12.3370 3.6754 -2.4196 0.9490
-12.4571 3.2345 -2.4191 0.9490
-12.5621 2.7899 -2.4187 0.9490
-12.6517 2.3420 -2.4184 0.9490
-12.7845 1.4384 -2.4182 0.9490
-12.8551 0.5279 -2.4183 0.9490
-12.8631 -0.3855 -2.4189 0.9490
-12.7576 -1.7518 -2.4204 0.9489
-12.6913 -2.2042 -2.4212 0.9489
-12.5120 -3.1012 -2.4229 0.9489
-12.3991 -3.5449 -2.4240 0.9489
-12.2713 -3.9846 -2.4251 0.9488
-11.7974 -5.2750 -2.4290 0.9488
-10.8892 -5.8287 -2.3215 0.9510
-10.5101 -6.1153 -2.2856 0.9517
-9.5684 -7.5646 -2.2926 0.9516
-9.3019 -7.9062 -2.2946 0.9515
-9.0233 -8.2386 -2.2966 0.9515
-8.7332 -8.5615 -2.2987 0.9514
-8.1194 -9.1770 -2.3031 0.9514
-9.2858 5.5416 -2.2858 0.9568
-9.4726 5.2062 -2.2848 0.9568
-10.1008 4.6513 -2.3506 0.9556
-10.6075 4.4354 -2.4303 0.9541
-10.7551 4.0549 -2.4296 0.9541
-10.8895 3.6697 -2.4290 0.9541
-11.0105 3.2802 -2.4285 0.9541
-11.1179 2.8868 -2.4280 0.9541
-11.2118 2.4900 -2.4277 0.9541
-11.2919 2.0903 -2.4274 0.9541
-11.4106 1.2838 -2.4272 0.9541
-11.4491 0.8780 -2.4272 0.9541
-11.4736 0.4711 -2.4273 0.9541
-11.4840 0.0636 -2.4275 0.9541
-11.4804 -0.3441 -2.4278 0.9541
-11.4628 -0.7515 -2.4282 0.9541
-11.4312 -1.1581 -2.4287 0.9541
-11.1650 -2.7674 -2.4315 0.9541
-10.9492 -3.5553 -2.4334 0.9540
-10.8210 -3.9434 -2.4345 0.9540
-10.6794 -4.3271 -2.4357 0.9540
-9.9780 -5.8057 -2.4402 0.9539
-9.2404 -5.8251 -2.3089 0.9563
-8.2929 -7.0486 -2.3006 0.9565
-7.5150 -7.9095 -2.3062 0.9564
-7.2358 -8.1783 -2.3082 0.9563
-8.3747 4.9978 -2.2921 0.9607
-8.5435 4.6956 -2.2912 0.9607
-9.4229 4.3391 -2.4381 0.9583
-9.5681 4.0008 -2.4374 0.9583
-9.8230 3.3103 -2.4362 0.9583
-10.0295 2.6042 -2.4353 0.9583
-10.1143 2.2463 -2.4350 0.9583
-10.1866 1.8857 -2.4348 0.9583
-10.2465 1.5228 -2.4346 0.9583
-10.2938 1.1582 -2.4345 0.9583
-10.3599 0.0574 -2.4348 0.9583
-10.3565 -0.3104 -2.4351 0.9583
-10.2703 -1.4103 -2.4364 0.9583
-10.2162 -1.7743 -2.4370 0.9583
-9.8751 -3.2065 -2.4402 0.9582
-9.6308 -3.9022 -2.4422 0.9582
-9.4907 -4.2436 -2.4433 0.9582
-9.1751 -4.9112 -2.4458 0.9581
-9.0000 -5.2366 -2.4472 0.9581
-8.8135 -5.5560 -2.4486 0.9581
-8.5201 -5.8035 -2.4228 0.9585
-7.4744 -6.3529 -2.3055 0.9605
-7.2494 -6.6189 -2.3071 0.9605
-7.0150 -6.8771 -2.3088 0.9604
-6.7716 -7.1271 -2.3105 0.9604
-6.5195 -7.3687 -2.3123 0.9604
-7.8144 4.6634 -2.3562 0.9631
-8.2771 4.5492 -2.4454 0.9617
-8.4305 4.2511 -2.4446 0.9617
-8.5735 3.9480 -2.4439 0.9618
-8.7059 3.6403 -2.4432 0.9618
-8.8275 3.3282 -2.4427 0.9618
-9.0379 2.6925 -2.4417 0.9618
-9.3988 0.7208 -2.4407 0.9618
-9.4272 0.0522 -2.4409 0.9618
-9.4094 -0.6168 -2.4415 0.9618
-9.2958 -1.6145 -2.4429 0.9618
-9.0791 -2.5957 -2.4449 0.9617
-8.3457 -4.4672 -2.4509 0.9616
-7.6459 -5.6155 -2.4563 0.9616
-5.9266 -6.6986 -2.3158 0.9637
-7.4346 4.4368 -2.4510 0.9646
-7.7258 3.8957 -2.4494 0.9647
-7.9785 3.3361 -2.4482 0.9647
-8.4958 1.5727 -2.4460 0.9647
-8.5459 1.2701 -2.4459 0.9647
-8.6143 0.6606 -2.4458 0.9647
-8.6326 0.3545 -2.4459 0.9647
-8.6403 0.0479 -2.4460 0.9647
-8.6373 -0.2589 -2.4463 0.9647
-8.5995 -0.8712 -2.4469 0.9647
-8.5646 -1.1761 -2.4473 0.9647
-8.5192 -1.4796 -2.4478 0.9647
-8.4633 -1.7815 -2.4484 0.9647
-8.3201 -2.3787 -2.4497 0.9647
-8.2330 -2.6733 -2.4505 0.9647
-8.1357 -2.9648 -2.4513 0.9646
-7.6464 -4.0929 -2.4553 0.9646
-7.0041 -5.1441 -2.4601 0.9645
-6.8207 -5.3924 -2.4615 0.9645
-6.6289 -5.6343 -2.4629 0.9645
-6.3463 -5.7944 -2.4328 0.9649
-5.9236 -5.8070 -2.3483 0.9661
-5.4272 -6.1342 -2.3186 0.9665
-6.8540 4.0903 -2.4550 0.9671
-7.1227 3.5917 -2.4536 0.9672
-7.2439 3.3357 -2.4530 0.9672
-7.3561 3.0758 -2.4524 0.9672
-7.4591 2.8122 -2.4519 0.9672
-7.5529 2.5453 -2.4515 0.9672
-7.6373 2.2753 -2.4511 0.9672
-7.7123 2.0025 -2.4508 0.9672
-7.7777 1.7273 -2.4505 0.9672
-7.8797 1.1711 -2.4503 0.9672
-7.9428 0.6091 -2.4502 0.9672
-7.9597 0.3268 -2.4503 0.9672
-7.9639 -0.2387 -2.4506 0.9672
-7.9288 -0.8033 -2.4512 0.9672
-7.8966 -1.0843 -2.4516 0.9672
-7.8029 -1.6425 -2.4526 0.9672
-7.7416 -1.9188 -2.4532 0.9672
-7.6706 -2.1930 -2.4538 0.9672
-7.5901 -2.4645 -2.4545 0.9672
-7.4009 -2.9987 -2.4561 0.9671
-7.2924 -3.2607 -2.4570 0.9671
-7.1748 -3.5188 -2.4579 0.9671
-7.0483 -3.7728 -2.4589 0.9671
-6.7687 -4.2670 -2.4611 0.9671
-6.4552 -4.7409 -2.4634 0.9670
-6.1089 -5.1923 -2.4660 0.9670
-5.9239 -5.4088 -2.4673 0.9670
-5.1305 -5.7987 -2.3814 0.9681
-6.3510 3.7901 -2.4585 0.9693
-6.8168 2.8504 -2.4561 0.9693
-6.9123 2.6061 -2.4556 0.9693
-6.9994 2.3588 -2.4552 0.9693
-7.0777 2.1085 -2.4548 0.9693
-7.1472 1.8558 -2.4546 0.9694
-7.2079 1.6008 -2.4543 0.9694
-7.3025 1.0853 -2.4541 0.9694
-7.3363 0.8254 -2.4540 0.9694
-7.3688 -0.4831 -2.4547 0.9694
-7.0332 -2.2837 -2.4580 0.9693
-6.9497 -2.5326 -2.4588 0.9693
-6.8576 -2.7786 -2.4595 0.9693
-6.5303 -3.4955 -2.4621 0.9693
-6.4046 -3.7265 -2.4631 0.9692
-5.9800 -4.3919 -2.4663 0.9692
-5.8231 -4.6036 -2.4675 0.9692
-5.4873 -5.0101 -2.4699 0.9692
-5.3087 -5.2044 -2.4712 0.9691
-5.1234 -5.3924 -2.4725 0.9691
-6.3446 2.6529 -2.4593 0.9712
-6.5877 1.9626 -2.4581 0.9712
-6.7090 1.4900 -2.4577 0.9712
-6.8286 0.7683 -2.4574 0.9712
-6.8516 0.5254 -2.4574 0.9712
-6.8721 0.0381 -2.4576 0.9712
-6.8392 -0.6929 -2.4583 0.9712
-6.8112 -0.9353 -2.4586 0.9712
-6.7300 -1.4166 -2.4594 0.9712
-6.6154 -1.8913 -2.4605 0.9712
-6.3820 -2.5859 -2.4625 0.9712
-6.2882 -2.8116 -2.4632 0.9712
-6.1864 -3.0340 -2.4641 0.9712
-5.9599 -3.4677 -2.4658 0.9711
-5.7033 -3.8849 -2.4678 0.9711
-5.5217 3.2952 -2.4642 0.9728
-5.6338 3.0964 -2.4636 0.9728
-5.7389 2.8939 -2.4630 0.9728
-5.9275 2.4785 -2.4621 0.9729
-6.0107 2.2662 -2.4617 0.9729
-6.2153 1.6138 -2.4608 0.9729
-6.3132 1.1687 -2.4604 0.9729
-6.3504 0.9438 -2.4604 0.9729
-6.3799 0.7178 -2.4603 0.9729
-6.4149 0.2634 -2.4604 0.9729
-6.4205 0.0356 -2.4605 0.9729
-6.3896 -0.6473 -2.4612 0.9729
-6.3294 -1.0993 -2.4618 0.9729
-6.2874 -1.3235 -2.4623 0.9729
-6.2377 -1.5461 -2.4627 0.9728
-6.1802 -1.7669 -2.4633 0.9728
-6.0422 -2.2019 -2.4644 0.9728
-5.8740 -2.6265 -2.4658 0.9728
-5.6765 -3.0385 -2.4674 0.9728
-5.5670 -3.2392 -2.4682 0.9728
-5.4504 -3.4359 -2.4691 0.9728
-5.3271 -3.6286 -2.4700 0.9728
-5.1970 -3.8169 -2.4710 0.9728
-5.0603 -4.0006 -2.4720 0.9727
-4.7679 -4.3532 -2.4742 0.9727
-4.6125 -4.5218 -2.4753 0.9727
-4.2841 -4.8422 -2.4776 0.9727
-5.1752 3.0884 -2.4666 0.9743
-5.2803 2.9021 -2.4660 0.9743
-5.3789 2.7123 -2.4655 0.9743
-5.5558 2.3231 -2.4646 0.9743
-5.6338 2.1241 -2.4642 0.9743
-5.7689 1.7186 -2.4636 0.9743
-5.8753 1.3048 -2.4632 0.9743
-5.9176 1.0954 -2.4631 0.9743
-6.0002 0.4602 -2.4630 0.9743
-6.0129 0.2469 -2.4630 0.9743
-6.0181 0.0333 -2.4631 0.9743
-6.0159 -0.1803 -2.4633 0.9743
-5.8931 -1.2405 -2.4648 0.9743
-5.8465 -1.4491 -2.4652 0.9743
-5.7313 -1.8610 -2.4662 0.9743
-5.6629 -2.0637 -2.4668 0.9743
-5.3198 -2.8476 -2.4696 0.9743
-5.1078 -3.2199 -2.4712 0.9742
-4.8700 -3.5767 -2.4730 0.9742
-4.7418 -3.7488 -2.4739 0.9742
-4.4675 -4.0790 -2.4759 0.9742
-4.3218 -4.2368 -2.4770 0.9742
-4.0139 -4.5367 -2.4792 0.9742
-4.9631 2.7278 -2.4682 0.9756
-5.0559 2.5494 -2.4677 0.9756
-5.4227 1.6155 -2.4659 0.9756
-5.5227 1.2265 -2.4656 0.9756
-5.6402 0.4325 -2.4653 0.9756
-5.6521 0.2321 -2.4654 0.9756
-5.6570 0.0313 -2.4655 0.9756
-5.6549 -0.1695 -2.4656 0.9756
-5.6458 -0.3701 -2.4658 0.9756
-5.5393 -1.1660 -2.4670 0.9756
-5.3870 -1.7492 -2.4684 0.9756
-5.3227 -1.9397 -2.4689 0.9756
-5.2517 -2.1279 -2.4695 0.9756
-4.9998 -2.6763 -2.4715 0.9756
-4.9031 -2.8529 -2.4723 0.9756
-4.8003 -3.0261 -2.4731 0.9755
-4.6915 -3.1956 -2.4739 0.9755
-4.3298 -3.6802 -2.4766 0.9755
-4.0611 -3.9812 -2.4785 0.9755
-3.7715 -4.2628 -2.4806 0.9755
-4.5834 2.7353 -2.4707 0.9767
-4.6766 2.5703 -2.4702 0.9768
-4.7641 2.4023 -2.4697 0.9768
-4.9902 1.8814 -2.4686 0.9768
-5.1099 1.5223 -2.4680 0.9768
-5.2042 1.1558 -2.4677 0.9768
-5.2727 0.7836 -2.4675 0.9768
-5.2971 0.5960 -2.4674 0.9768
-5.3150 0.4076 -2.4674 0.9768
-5.3262 0.2187 -2.4675 0.9768
-5.3288 -0.1597 -2.4677 0.9768
-5.3049 -0.5374 -2.4681 0.9768
-5.2831 -0.7255 -2.4684 0.9768
-5.2546 -0.9126 -2.4687 0.9768
-5.2197 -1.0987 -2.4691 0.9768
-5.1303 -1.4667 -2.4699 0.9768
-5.0760 -1.6482 -2.4704 0.9768
-4.8753 -2.1799 -2.4720 0.9767
-4.7108 -2.5216 -2.4733 0.9767
-4.6196 -2.6880 -2.4740 0.9767
-4.4200 -3.0108 -2.4755 0.9767
-4.3118 -3.1668 -2.4763 0.9767
-4.0791 -3.4671 -2.4781 0.9767
-3.9549 -3.6110 -2.4790 0.9767
-3.6916 -3.8854 -2.4808 0.9767
-4.3282 2.5830 -2.4724 0.9778
-4.4163 2.4273 -2.4720 0.9778
-4.6471 1.9431 -2.4708 0.9778
-4.7721 1.6082 -2.4702 0.9778
-4.8733 1.2654 -2.4698 0.9778
-5.0194 0.3849 -2.4694 0.9778
-5.0300 0.2065 -2.4694 0.9778
-5.0344 0.0279 -2.4695 0.9778
-5.0325 -0.1508 -2.4697 0.9778
-4.9892 -0.6851 -2.4703 0.9778
-4.9623 -0.8619 -2.4706 0.9778
-4.9293 -1.0376 -2.4709 0.9778
-4.8901 -1.2121 -2.4713 0.9778
-4.8447 -1.3851 -2.4717 0.9778
-4.6728 -1.8934 -2.4731 0.9778
-4.5289 -2.2211 -2.4743 0.9778
-4.4483 -2.3811 -2.4749 0.9778
-4.3622 -2.5381 -2.4756 0.9778
-4.2706 -2.6921 -2.4763 0.9778
-4.1735 -2.8428 -2.4770 0.9778
-3.9638 -3.1337 -2.4786 0.9777
-3.8514 -3.2735 -2.4794 0.9777
-3.7341 -3.4093 -2.4803 0.9777
-3.6120 -3.5410 -2.4811 0.9777
-3.4853 -3.6683 -2.4820 0.9777
-3.3541 -3.7911 -2.4830 0.9777
-4.0952 2.4439 -2.4740 0.9787
-4.1786 2.2966 -2.4736 0.9787
-4.3296 1.9937 -2.4728 0.9787
-4.5153 1.5217 -2.4719 0.9788
-4.5661 1.3603 -2.4717 0.9788
-4.6112 1.1973 -2.4715 0.9788
-4.6505 1.0328 -2.4714 0.9788
-4.6840 0.8671 -2.4712 0.9788
-4.7117 0.7003 -2.4712 0.9788
-4.7335 0.5326 -2.4711 0.9788
-4.7595 0.1954 -2.4712 0.9788
-4.6268 -1.1468 -2.4730 0.9787
-4.5353 -1.4726 -2.4738 0.9787
-4.4211 -1.7914 -2.4747 0.9787
-4.2848 -2.1014 -2.4758 0.9787
-4.2085 -2.2527 -2.4764 0.9787
-4.0402 -2.5469 -2.4777 0.9787
-3.9484 -2.6895 -2.4784 0.9787
-3.7499 -2.9646 -2.4799 0.9787
-3.6434 -3.0968 -2.4806 0.9787
-4.2796 1.4422 -2.4735 0.9796
-4.4395 0.8218 -2.4729 0.9796
-4.4865 0.5048 -2.4728 0.9796
-4.5016 0.3452 -2.4728 0.9796
-4.5111 0.1852 -2.4728 0.9796
-4.4929 -0.4552 -2.4734 0.9796
-4.4743 -0.6144 -2.4736 0.9796
-4.0608 -1.9916 -2.4772 0.9796
-3.9111 -2.2757 -2.4784 0.9796
-3.6499 -2.6807 -2.4803 0.9796
-3.3473 -3.0562 -2.4825 0.9795
-3.2378 -3.1741 -2.4833 0.9795
-3.6839 2.1985 -2.4769 0.9804
-3.7590 2.0660 -2.4765 0.9804
-3.8294 1.9310 -2.4761 0.9804
-3.8950 1.7936 -2.4758 0.9804
-4.1080 1.2238 -2.4748 0.9804
-4.1839 0.9292 -2.4745 0.9804
-4.2141 0.7801 -2.4744 0.9804
-4.2390 0.6300 -2.4743 0.9804
-4.2587 0.4792 -2.4743 0.9804
-4.2730 0.3277 -2.4743 0.9804
-4.2820 0.1758 -2.4743 0.9804
-4.2770 -0.2804 -2.4747 0.9804
-4.2647 -0.4320 -2.4748 0.9804
-4.2470 -0.5832 -2.4751 0.9804
-4.1959 -0.8832 -2.4756 0.9804
-4.0799 -1.3248 -2.4766 0.9804
-3.7856 -2.0263 -2.4790 0.9804
-3.7121 -2.1599 -2.4796 0.9804
-3.4641 -2.5442 -2.4814 0.9803
-3.3725 -2.6662 -2.4821 0.9803
-3.1767 -2.9004 -2.4835 0.9803
-2.9648 -3.1204 -2.4851 0.9803
-2.8530 -3.2247 -2.4859 0.9803
