ply
format ascii 1.0
element vertex 577
property float32 x
property float32 y
property float32 z
property float32 I
end_header
44.5465 -20.7590 8.6658 0.8190
43.5667 -18.4140 8.3400 0.8252
45.0654 -17.1529 8.5024 0.8221
44.9814 -13.4865 8.2803 0.8264
47.0224 -10.4608 8.4940 0.8223
48.0283 -3.5658 8.4920 0.8223
48.1683 -0.0824 8.4934 0.8223
45.5129 1.5702 8.0299 0.8311
46.0987 8.3542 8.2609 0.8267
44.1887 11.3621 8.0451 0.8308
45.7997 15.3847 8.5192 0.8218
45.2382 17.0416 8.5239 0.8217
43.9495 18.3987 8.4011 0.8241
46.4562 -15.7824 7.5163 0.8199
46.4915 -12.1240 7.3604 0.8233
46.5434 -6.8680 7.2074 0.8266
46.6304 1.6088 7.1478 0.8279
46.7037 8.4638 7.2713 0.8252
46.7229 10.2265 7.3271 0.8240
45.2331 15.1943 7.3100 0.8244
31.4435 -29.9975 5.6591 0.8392
31.4197 -27.8740 5.4695 0.8441
31.3974 -25.8856 5.2990 0.8486
38.2424 -25.1033 5.9570 0.8315
46.3398 -13.8938 6.2998 0.8227
48.5986 -7.1712 6.3971 0.8202
48.6536 -1.8453 6.3403 0.8217
48.6719 -0.0833 6.3381 0.8217
48.7087 3.4487 6.3588 0.8212
46.6277 13.8063 6.3325 0.8219
45.2259 15.1919 6.2127 0.8249
31.5195 -37.3958 5.2517 0.8214
31.2035 -32.0043 4.7998 0.8354
31.4133 -27.8683 4.5093 0.8446
31.3913 -25.8805 4.3688 0.8490
31.9111 -24.4243 4.3152 0.8507
34.8719 -24.7418 4.5914 0.8420
38.2424 -25.1033 4.9122 0.8319
42.1249 -25.5197 5.2888 0.8203
45.1326 15.1605 5.1125 0.8257
31.5121 -37.3871 4.1392 0.8218
31.4826 -34.7202 3.9675 0.8285
31.4555 -32.2627 3.8144 0.8345
31.4304 -29.9850 3.6773 0.8400
31.4070 -27.8627 3.5541 0.8449
31.3852 -25.8755 3.4434 0.8493
34.8720 -24.7419 3.6196 0.8423
38.2425 -25.1034 3.8725 0.8322
42.1250 -25.5198 4.1693 0.8206
45.1390 15.1627 4.0310 0.8260
31.4756 -34.7125 2.9057 0.8288
31.3791 -25.8705 2.5219 0.8496
31.9112 -24.4244 2.4919 0.8512
34.8720 -24.7419 2.6514 0.8425
42.1251 -25.5198 3.0542 0.8209
31.4420 -32.2489 1.7760 0.8350
31.4174 -29.9726 1.7121 0.8404
31.3945 -27.8516 1.6548 0.8454
34.8721 -24.7420 1.6860 0.8427
38.2427 -25.1035 1.8038 0.8327
45.1974 15.1823 1.8800 0.8262
31.4901 -37.3610 0.8253 0.8224
31.4616 -34.6970 0.7912 0.8291
31.4353 -32.2420 0.7606 0.8351
31.4109 -29.9664 0.7333 0.8406
31.3882 -27.8461 0.7088 0.8455
31.3670 -25.8605 0.6867 0.8499
42.1252 -25.5199 0.8320 0.8212
44.7249 15.0236 0.7970 0.8280
31.4828 -37.3524 -0.2751 0.8225
31.4546 -34.6894 -0.2636 0.8292
31.4286 -32.2351 -0.2535 0.8352
31.3609 -25.8555 -0.2288 0.8499
31.9114 -24.4245 -0.2263 0.8515
34.8722 -24.7421 -0.2407 0.8428
42.1254 -25.5200 -0.2773 0.8212
44.3472 -20.6662 -0.2755 0.8223
45.2678 -1.7169 -0.2550 0.8343
31.4755 -37.3437 -1.3752 0.8225
31.3980 -29.9541 -1.2219 0.8406
31.3758 -27.8350 -1.1810 0.8455
38.2429 -25.1036 -1.2881 0.8327
42.1255 -25.5200 -1.3868 0.8211
37.7249 -14.3590 -1.1366 0.8508
37.7374 -11.3146 -1.1093 0.8541
37.6648 -8.3791 -1.0865 0.8569
37.7832 -0.0647 -1.0639 0.8597
37.7998 4.0556 -1.0705 0.8589
37.8054 5.4464 -1.0755 0.8583
37.8110 6.8522 -1.0820 0.8575
37.8226 9.7252 -1.0996 0.8553
37.8285 11.2009 -1.1109 0.8540
37.8078 12.7001 -1.1230 0.8525
37.8406 14.2549 -1.1386 0.8506
37.8469 15.8440 -1.1553 0.8486
37.8534 17.4825 -1.1741 0.8463
37.8602 19.1775 -1.1950 0.8438
31.4682 -37.3351 -2.4762 0.8224
31.4152 -32.2213 -2.2822 0.8351
31.3915 -29.9479 -2.2003 0.8405
31.3695 -27.8295 -2.1267 0.8454
31.3488 -25.8455 -2.0605 0.8498
31.9115 -24.4246 -2.0380 0.8513
38.2430 -25.1037 -2.3200 0.8326
42.1255 -25.5201 -2.4978 0.8210
37.7124 -15.9396 -2.0764 0.8488
37.7253 -12.8163 -2.0206 0.8525
37.7377 -9.8412 -1.9778 0.8554
37.6591 -8.3778 -1.9565 0.8568
37.7494 -6.9747 -1.9468 0.8575
37.7609 -4.1822 -1.9267 0.8588
37.7721 -1.4326 -1.9170 0.8595
37.7776 -0.0647 -1.9159 0.8596
37.7942 4.0550 -1.9277 0.8588
37.8053 6.8512 -1.9485 0.8574
37.8226 11.1992 -2.0005 0.8539
37.8409 15.8414 -2.0804 0.8485
37.8539 19.1743 -2.1520 0.8437
37.8607 20.9328 -2.1940 0.8409
29.4936 -19.3603 -2.5868 0.8681
30.5099 -17.0052 -2.5611 0.8693
31.7415 -14.7918 -2.5677 0.8690
32.2919 -13.6485 -2.5705 0.8688
33.6678 -10.0944 -2.5772 0.8685
34.3473 -7.6411 -2.5800 0.8684
34.6137 -6.3953 -2.5809 0.8683
34.8303 -5.1396 -2.5815 0.8683
35.1133 -2.6069 -2.5817 0.8683
35.1790 -1.3343 -2.5812 0.8683
35.0724 2.4832 -2.5780 0.8685
34.9361 3.7483 -2.5763 0.8686
34.7499 5.0062 -2.5742 0.8687
34.5140 6.2547 -2.5719 0.8688
34.2292 7.4919 -2.5692 0.8689
33.5154 9.9238 -2.5629 0.8692
33.0880 11.1146 -2.5593 0.8694
32.6145 12.2861 -2.5554 0.8695
32.0962 13.4365 -2.5513 0.8697
30.9293 15.6667 -2.5421 0.8702
30.2829 16.7431 -2.5372 0.8704
17.6682 -20.9622 -2.6320 0.8957
18.4482 -20.3453 -2.6367 0.8955
19.2054 -19.6981 -2.6412 0.8953
21.9812 -16.8240 -2.6575 0.8947
24.2968 -13.5423 -2.6705 0.8942
24.7960 -12.6668 -2.6732 0.8941
26.7693 -8.0261 -2.6830 0.8938
27.0546 -7.0552 -2.6842 0.8937
27.5112 -5.0830 -2.6859 0.8937
27.6819 -4.0848 -2.6864 0.8937
27.9062 -2.0719 -2.6865 0.8936
27.7801 2.9805 -2.6823 0.8938
27.6376 3.9816 -2.6807 0.8939
27.4564 4.9757 -2.6789 0.8939
27.2371 5.9615 -2.6768 0.8940
26.9799 6.9372 -2.6745 0.8941
26.6856 7.9015 -2.6719 0.8942
25.9873 9.7896 -2.6661 0.8944
24.6768 12.4996 -2.6557 0.8948
14.1393 -16.7753 -2.6061 0.9154
15.3586 -15.7527 -2.6134 0.9152
16.5003 -14.6382 -2.6201 0.9150
17.5568 -13.4377 -2.6262 0.9148
18.0510 -12.8072 -2.6291 0.9147
18.9670 -11.4904 -2.6342 0.9145
19.7815 -10.1052 -2.6386 0.9144
20.1490 -9.3896 -2.6405 0.9143
20.4892 -8.6600 -2.6423 0.9143
20.8014 -7.9175 -2.6438 0.9142
21.0851 -7.1632 -2.6452 0.9142
21.3399 -6.3982 -2.6464 0.9142
21.7610 -4.8410 -2.6481 0.9141
21.9266 -4.0512 -2.6486 0.9141
22.1664 -2.4550 -2.6492 0.9141
22.2404 -1.6512 -2.6491 0.9141
22.2834 -0.8452 -2.6489 0.9141
22.2956 -0.0382 -2.6484 0.9141
22.1468 2.3761 -2.6458 0.9142
21.8945 3.9678 -2.6431 0.9143
21.7230 4.7546 -2.6415 0.9143
21.5218 5.5338 -2.6396 0.9144
20.7432 7.8141 -2.6330 0.9146
20.0831 9.2753 -2.6277 0.9147
19.3157 10.6794 -2.6218 0.9149
11.7749 -13.9701 -2.5887 0.9288
12.2874 -13.5509 -2.5918 0.9288
12.7843 -13.1123 -2.5948 0.9287
13.2650 -12.6549 -2.5976 0.9286
13.7287 -12.1793 -2.6003 0.9285
14.1746 -11.6861 -2.6029 0.9285
16.1138 -8.9813 -2.6138 0.9282
16.4393 -8.3979 -2.6156 0.9281
16.7426 -7.8022 -2.6172 0.9281
17.0233 -7.1951 -2.6186 0.9281
17.5152 -5.9503 -2.6210 0.9280
17.7255 -5.3145 -2.6220 0.9280
17.9116 -4.6710 -2.6228 0.9279
18.2101 -3.3645 -2.6238 0.9279
18.3220 -2.7036 -2.6241 0.9279
18.4088 -2.0389 -2.6243 0.9279
18.4702 -1.3713 -2.6242 0.9279
18.5063 -0.7019 -2.6240 0.9279
18.5169 -0.0317 -2.6236 0.9279
18.3964 1.9738 -2.6215 0.9280
18.3057 2.6372 -2.6205 0.9280
18.1899 3.2964 -2.6193 0.9280
17.8843 4.5985 -2.6164 0.9281
17.6949 5.2394 -2.6148 0.9282
16.9844 7.1102 -2.6089 0.9283
16.7015 7.7136 -2.6066 0.9284
16.0695 8.8846 -2.6017 0.9285
10.0787 -11.9577 -2.5763 0.9386
10.9390 -11.2197 -2.5814 0.9385
12.8344 -9.1061 -2.5924 0.9382
13.1650 -8.6418 -2.5943 0.9382
14.7660 -5.6203 -2.6028 0.9380
14.9652 -5.0841 -2.6037 0.9379
15.1441 -4.5406 -2.6045 0.9379
15.3024 -3.9905 -2.6052 0.9379
15.5565 -2.8742 -2.6061 0.9379
15.6519 -2.3096 -2.6064 0.9379
15.7783 -1.1714 -2.6065 0.9379
15.8094 -0.5996 -2.6063 0.9379
15.8187 -0.0271 -2.6060 0.9379
15.8066 0.5453 -2.6055 0.9379
15.7177 1.6864 -2.6042 0.9379
15.6411 2.2533 -2.6033 0.9379
15.5432 2.8168 -2.6023 0.9380
15.2844 3.9300 -2.5998 0.9380
14.5215 6.0792 -2.5934 0.9382
8.8014 -10.4422 -2.5669 0.9459
9.1817 -10.1258 -2.5692 0.9459
9.9066 -9.4510 -2.5735 0.9458
10.2502 -9.0934 -2.5755 0.9458
10.5804 -8.7230 -2.5774 0.9457
10.8969 -8.3402 -2.5792 0.9457
11.7586 -7.1234 -2.5841 0.9456
12.0152 -6.6969 -2.5855 0.9456
12.8779 -4.9016 -2.5899 0.9455
13.0510 -4.4337 -2.5908 0.9454
13.2065 -3.9596 -2.5915 0.9454
13.3441 -3.4799 -2.5920 0.9454
13.5651 -2.5063 -2.5929 0.9454
13.7125 -1.5187 -2.5932 0.9454
13.7854 -0.5228 -2.5930 0.9454
13.7939 -0.0236 -2.5927 0.9454
13.7836 0.4755 -2.5923 0.9454
13.6407 1.9651 -2.5904 0.9455
13.3320 3.4280 -2.5874 0.9455
13.1929 3.9064 -2.5862 0.9455
13.0361 4.3790 -2.5848 0.9456
12.8619 4.8452 -2.5834 0.9456
12.6705 5.3043 -2.5818 0.9456
12.2373 6.1986 -2.5784 0.9457
7.8040 -9.2588 -2.5596 0.9517
8.1403 -8.9774 -2.5616 0.9517
8.4663 -8.6835 -2.5635 0.9516
9.0851 -8.0598 -2.5672 0.9516
9.6567 -7.3910 -2.5705 0.9515
9.9237 -7.0409 -2.5720 0.9515
10.6448 -5.9331 -2.5760 0.9514
11.0554 -5.1519 -2.5782 0.9514
11.8188 -3.0821 -2.5818 0.9513
11.9244 -2.6528 -2.5822 0.9513
12.1444 -1.3451 -2.5828 0.9513
12.1850 -0.9047 -2.5827 0.9513
12.2091 -0.4631 -2.5826 0.9513
12.2078 0.4212 -2.5820 0.9513
12.1824 0.8625 -2.5816 0.9513
12.1406 1.3026 -2.5810 0.9513
11.9171 2.6083 -2.5787 0.9513
11.8104 3.0368 -2.5777 0.9514
11.3960 4.2930 -2.5741 0.9514
11.2272 4.7000 -2.5728 0.9515
11.0434 5.1004 -2.5713 0.9515
10.8450 5.4933 -2.5697 0.9515
10.6323 5.8785 -2.5681 0.9515
7.3040 -8.0551 -2.5555 0.9563
7.5959 -7.7908 -2.5573 0.9563
8.4112 -6.9346 -2.5620 0.9562
8.6615 -6.6293 -2.5635 0.9562
8.9004 -6.3149 -2.5648 0.9561
9.3429 -5.6600 -2.5673 0.9561
9.7358 -4.9735 -2.5694 0.9561
9.9130 -4.6195 -2.5703 0.9561
10.2274 -3.8928 -2.5719 0.9560
10.7707 -1.9900 -2.5742 0.9560
10.8364 -1.5990 -2.5744 0.9560
10.8875 -1.2058 -2.5744 0.9560
10.9239 -0.8110 -2.5744 0.9560
10.9525 -0.0187 -2.5741 0.9560
10.8848 1.1678 -2.5729 0.9560
10.8329 1.5606 -2.5723 0.9560
10.7664 1.9511 -2.5716 0.9560
10.6854 2.3388 -2.5708 0.9560
10.5902 2.7230 -2.5699 0.9561
10.4808 3.1033 -2.5689 0.9561
10.3573 3.4791 -2.5679 0.9561
10.2201 3.8500 -2.5667 0.9561
10.0692 4.2153 -2.5655 0.9561
9.7277 4.9274 -2.5628 0.9562
9.5375 5.2732 -2.5613 0.9562
6.3445 -7.5273 -2.5489 0.9601
6.6170 -7.2974 -2.5505 0.9601
6.8809 -7.0575 -2.5521 0.9601
7.3820 -6.5488 -2.5550 0.9600
7.6182 -6.2808 -2.5564 0.9600
7.8445 -6.0040 -2.5577 0.9600
8.0605 -5.7189 -2.5589 0.9600
8.4604 -5.1254 -2.5612 0.9600
8.8155 -4.5033 -2.5631 0.9599
9.1238 -3.8563 -2.5647 0.9599
9.3835 -3.1878 -2.5659 0.9599
9.4946 -2.8467 -2.5664 0.9599
9.5929 -2.5016 -2.5668 0.9599
9.6784 -2.1531 -2.5672 0.9599
9.7509 -1.8016 -2.5674 0.9599
3.8686 -0.4285 -1.0078 0.9840
3.8439 -0.2854 -0.9980 0.9842
3.8470 -0.0066 -0.9961 0.9842
3.8470 0.1327 -0.9966 0.9842
3.9851 0.4276 -1.0377 0.9836
9.7479 1.7665 -2.5650 0.9599
9.6749 2.1176 -2.5643 0.9599
9.4903 2.8100 -2.5626 0.9599
9.3788 3.1504 -2.5617 0.9599
8.8103 4.4627 -2.5571 0.9600
8.6385 4.7761 -2.5557 0.9600
5.7935 -6.8735 -2.5448 0.9633
6.0420 -6.6633 -2.5463 0.9633
6.2827 -6.4439 -2.5478 0.9633
6.5153 -6.2156 -2.5491 0.9633
6.7394 -5.9788 -2.5504 0.9632
6.9548 -5.7338 -2.5517 0.9632
7.1611 -5.4809 -2.5529 0.9632
8.0460 -4.1102 -2.5578 0.9631
8.3270 -3.5195 -2.5592 0.9631
8.4509 -3.2166 -2.5598 0.9631
8.6647 -2.5979 -2.5608 0.9631
8.8324 -1.9649 -2.5615 0.9631
4.8295 -0.8923 -1.3903 0.9798
3.5609 -0.3944 -1.0142 0.9852
4.8177 0.6941 -1.3779 0.9800
8.8964 1.6122 -2.5595 0.9631
8.8300 1.9327 -2.5589 0.9631
8.6620 2.5648 -2.5574 0.9631
8.4478 3.1823 -2.5556 0.9632
8.1888 3.7819 -2.5535 0.9632
8.0429 4.0740 -2.5523 0.9632
7.8864 4.3603 -2.5511 0.9632
5.3251 -6.3178 -2.5414 0.9660
5.5532 -6.1243 -2.5428 0.9660
6.3911 -5.2691 -2.5477 0.9659
6.7611 -4.7970 -2.5498 0.9659
6.9329 -4.5509 -2.5508 0.9659
7.8673 -2.6727 -2.5556 0.9658
8.0425 -2.0973 -2.5564 0.9658
8.1746 -1.5104 -2.5569 0.9658
3.3471 -0.3707 -1.0358 0.9860
3.3514 -0.2488 -1.0336 0.9860
3.3544 -0.0057 -1.0317 0.9861
3.3515 0.2373 -1.0334 0.9860
8.1734 1.4812 -2.5549 0.9658
8.1125 1.7756 -2.5543 0.9658
8.0409 2.0675 -2.5536 0.9659
7.9585 2.3565 -2.5529 0.9659
7.7621 2.9240 -2.5512 0.9659
7.6484 3.2019 -2.5503 0.9659
7.5246 3.4752 -2.5493 0.9659
7.3909 3.7437 -2.5483 0.9659
5.1322 -5.6600 -2.5397 0.9683
5.5334 -5.2789 -2.5421 0.9683
5.7233 -5.0774 -2.5432 0.9683
6.4058 -4.2049 -2.5471 0.9682
6.5559 -3.9716 -2.5479 0.9682
7.2682 -2.4692 -2.5516 0.9682
7.3539 -2.2049 -2.5520 0.9682
3.2576 -0.6019 -1.1012 0.9861
3.1915 -0.4709 -1.0724 0.9865
3.1800 0.1097 -1.0577 0.9867
3.1772 0.2250 -1.0588 0.9867
3.7619 0.5420 -1.2634 0.9841
7.5511 1.3684 -2.5509 0.9682
7.4950 1.6404 -2.5503 0.9682
7.4289 1.9102 -2.5497 0.9682
7.3530 2.1772 -2.5491 0.9682
7.2672 2.4412 -2.5483 0.9682
7.1719 2.7017 -2.5475 0.9682
4.5701 -5.4221 -2.5359 0.9703
4.7655 -5.2556 -2.5370 0.9703
4.9548 -5.0819 -2.5382 0.9703
5.6452 -4.3207 -2.5422 0.9703
5.7998 -4.1150 -2.5431 0.9702
6.5608 -2.7730 -2.5471 0.9702
6.6581 -2.5342 -2.5476 0.9702
6.8965 -1.7984 -2.5487 0.9702
6.9577 -1.5478 -2.5489 0.9702
3.0942 -0.5717 -1.1252 0.9867
3.0461 -0.4495 -1.1011 0.9870
3.0433 -0.3371 -1.0950 0.9871
3.0506 -0.1157 -1.0917 0.9871
3.0495 0.1052 -1.0912 0.9871
3.0684 0.3292 -1.1036 0.9870
3.1154 0.4488 -1.1256 0.9867
6.9574 1.5228 -2.5469 0.9702
6.8258 2.0211 -2.5457 0.9702
6.7464 2.2662 -2.5450 0.9702
6.5608 2.7466 -2.5435 0.9702
5.2623 -4.0276 -2.5395 0.9720
5.5433 -3.6387 -2.5411 0.9720
5.7951 -3.2300 -2.5424 0.9720
6.0163 -2.8036 -2.5436 0.9720
6.3621 -1.9075 -2.5453 0.9719
6.4847 -1.4426 -2.5458 0.9719
2.9146 -0.4301 -1.1290 0.9875
2.9217 -0.3236 -1.1265 0.9875
2.9301 -0.1111 -1.1237 0.9875
2.9288 0.1010 -1.1230 0.9875
2.9247 0.2071 -1.1236 0.9875
6.5330 1.1839 -2.5443 0.9720
6.2061 2.3379 -2.5414 0.9720
6.1157 2.5602 -2.5407 0.9720
6.0171 2.7790 -2.5399 0.9720
3.9864 -4.7296 -2.5316 0.9736
4.6342 -4.1112 -2.5354 0.9736
4.7815 -3.9421 -2.5363 0.9736
4.9226 -3.7677 -2.5371 0.9736
5.3064 -3.2147 -2.5392 0.9735
5.4206 -3.0213 -2.5398 0.9735
5.5277 -2.8237 -2.5404 0.9735
5.7196 -2.4175 -2.5414 0.9735
2.8097 -0.4146 -1.1624 0.9878
2.8091 -0.3111 -1.1567 0.9879
2.8169 -0.1068 -1.1537 0.9879
2.8174 -0.0048 -1.1531 0.9879
2.8125 0.1991 -1.1540 0.9879
2.8458 0.4100 -1.1767 0.9877
3.1558 0.5719 -1.3126 0.9862
6.0122 1.5459 -2.5407 0.9735
5.9511 1.7621 -2.5401 0.9735
5.8821 1.9758 -2.5396 0.9735
5.7207 2.3949 -2.5382 0.9736
5.6287 2.5996 -2.5375 0.9736
5.5292 2.8007 -2.5367 0.9736
5.4224 2.9980 -2.5359 0.9736
3.7410 -4.4384 -2.5298 0.9750
3.9006 -4.3017 -2.5307 0.9750
4.0552 -4.1593 -2.5317 0.9750
4.2046 -4.0112 -2.5325 0.9750
4.3484 -3.8577 -2.5334 0.9750
4.8652 -3.1936 -2.5363 0.9749
5.0859 -2.8347 -2.5375 0.9749
5.4456 -2.0727 -2.5394 0.9749
5.6401 -1.4708 -2.5403 0.9749
2.7173 -0.3010 -1.1915 0.9881
2.7248 -0.1033 -1.1884 0.9882
2.7226 0.0939 -1.1873 0.9882
2.7380 0.3945 -1.2056 0.9880
2.7585 0.4999 -1.2218 0.9878
5.5188 1.8538 -2.5373 0.9749
5.4468 2.0518 -2.5366 0.9749
5.3676 2.2471 -2.5360 0.9749
5.2813 2.4392 -2.5353 0.9749
5.1881 2.6279 -2.5346 0.9749
5.0880 2.8131 -2.5338 0.9750
3.6701 -4.0475 -2.5291 0.9762
4.2211 -3.4801 -2.5323 0.9762
4.3455 -3.3260 -2.5330 0.9762
4.4642 -3.1673 -2.5337 0.9762
4.7845 -2.6667 -2.5354 0.9761
4.9668 -2.3145 -2.5364 0.9761
5.0481 -2.1336 -2.5368 0.9761
5.1228 -1.9498 -2.5372 0.9761
5.2516 -1.5745 -2.5378 0.9761
3.1344 -0.8174 -1.4994 0.9858
2.6384 -0.5869 -1.2511 0.9882
2.6383 -0.3893 -1.2345 0.9883
2.6421 -0.2926 -1.2305 0.9884
2.6498 -0.1005 -1.2274 0.9884
2.6497 -0.0045 -1.2265 0.9884
2.6475 0.0913 -1.2262 0.9884
2.6429 0.2836 -1.2304 0.9884
2.6380 0.3800 -1.2337 0.9883
2.6512 0.4805 -1.2472 0.9882
5.2527 1.5553 -2.5357 0.9761
5.1918 1.7440 -2.5352 0.9761
5.1242 1.9303 -2.5346 0.9762
5.0497 2.1140 -2.5340 0.9762
4.7870 2.6467 -2.5319 0.9762
3.3197 -3.9386 -2.5267 0.9773
3.4612 -3.8172 -2.5275 0.9773
3.5983 -3.6906 -2.5283 0.9773
3.8581 -3.4227 -2.5299 0.9773
3.9806 -3.2818 -2.5306 0.9773
4.2097 -2.9868 -2.5319 0.9773
4.7600 -2.0118 -2.5348 0.9772
4.8303 -1.8385 -2.5352 0.9772
4.8943 -1.6627 -2.5355 0.9772
4.9518 -1.4846 -2.5358 0.9772
2.6417 -0.6889 -1.3392 0.9879
2.6058 -0.5797 -1.3094 0.9882
2.6058 -0.4815 -1.2999 0.9883
2.6036 -0.2884 -1.2849 0.9884
2.6009 -0.0986 -1.2767 0.9885
2.6032 0.0898 -1.2777 0.9885
2.6043 0.1844 -1.2807 0.9884
2.6055 0.2795 -1.2854 0.9884
2.9691 0.6499 -1.4909 0.9865
4.9530 1.4666 -2.5338 0.9772
4.8320 1.8202 -2.5328 0.9773
3.5254 -3.3632 -2.5277 0.9783
3.6458 -3.2343 -2.5284 0.9783
3.7615 -3.1011 -2.5290 0.9783
3.8722 -2.9637 -2.5297 0.9783
4.0783 -2.6771 -2.5308 0.9783
4.1734 -2.5282 -2.5313 0.9783
4.2629 -2.3760 -2.5318 0.9782
4.4251 -2.0621 -2.5327 0.9782
4.5639 -1.7371 -2.5334 0.9782
2.6113 -0.6810 -1.4000 0.9879
2.5773 -0.5734 -1.3697 0.9882
2.5817 -0.3810 -1.3538 0.9883
2.5808 -0.2858 -1.3471 0.9884
2.5805 -0.1916 -1.3424 0.9884
2.5803 -0.0979 -1.3396 0.9884
2.5806 0.0890 -1.3395 0.9884
2.5816 0.1828 -1.3426 0.9884
2.5897 0.4693 -1.3654 0.9882
2.6368 0.5771 -1.4003 0.9879
4.7279 1.2157 -2.5325 0.9782
4.6259 1.5539 -2.5316 0.9782
4.4996 1.8837 -2.5306 0.9783
4.3495 2.2031 -2.5294 0.9783
4.2658 2.3585 -2.5287 0.9783
2.9701 -3.5238 -2.5241 0.9792
3.2191 -3.3017 -2.5256 0.9792
3.4514 -3.0619 -2.5270 0.9792
3.5608 -2.9357 -2.5276 0.9792
3.6656 -2.8056 -2.5282 0.9792
3.8606 -2.5342 -2.5293 0.9792
4.1148 -2.1020 -2.5307 0.9791
4.1888 -1.9520 -2.5311 0.9791
4.2572 -1.7994 -2.5314 0.9791
4.3201 -1.6443 -2.5317 0.9791
4.3772 -1.4871 -2.5320 0.9791
4.4286 -1.3278 -2.5322 0.9791
2.5809 -0.6730 -1.4608 0.9879
2.5536 -0.5681 -1.4328 0.9881
2.5596 -0.0971 -1.4029 0.9884
2.5597 -0.0044 -1.4020 0.9884
2.5589 0.1812 -1.4050 0.9884
2.5575 0.2744 -1.4088 0.9883
2.5612 0.4641 -1.4256 0.9882
4.3789 1.4709 -2.5300 0.9792
4.3220 1.6281 -2.5296 0.9792
4.1175 2.0856 -2.5279 0.9792
2.8163 -3.3414 -2.5230 0.9800
3.2725 -2.9032 -2.5257 0.9800
3.3762 -2.7835 -2.5263 0.9800
3.4755 -2.6601 -2.5269 0.9800
3.7456 -2.2691 -2.5284 0.9800
3.9012 -1.9929 -2.5292 0.9800
3.9713 -1.8507 -2.5296 0.9800
4.0362 -1.7060 -2.5299 0.9800
4.0958 -1.5589 -2.5302 0.9800
4.1500 -1.4098 -2.5305 0.9800
2.6243 -0.7868 -1.5817 0.9874
2.5359 -0.4685 -1.4889 0.9882
2.5379 -0.3745 -1.4811 0.9882
2.5370 -0.1884 -1.4688 0.9883
2.5372 -0.0962 -1.4659 0.9883
2.5373 -0.0043 -1.4649 0.9883
2.5376 0.1797 -1.4688 0.9883
2.5371 0.2722 -1.4732 0.9883
4.2431 1.0910 -2.5294 0.9800
4.2002 1.2436 -2.5290 0.9800
3.8290 2.1170 -2.5260 0.9800
