ply
format ascii 1.0
element vertex 608
property float32 x
property float32 y
property float32 z
property float32 I
end_header
-12.1554 25.7282 5.0174 0.8909
-15.5739 23.4603 4.9652 0.8919
-15.3296 21.3728 4.6377 0.8987
-41.2723 19.5427 8.0520 0.8307
-38.5005 13.3478 7.1851 0.8475
-41.3501 12.6804 7.6263 0.8389
-43.0886 9.8719 7.7945 0.8356
-9.6131 24.8559 4.0826 0.8978
-10.7009 24.9474 4.1585 0.8960
-11.8341 25.0482 4.2439 0.8940
-14.2648 25.2816 4.4470 0.8892
-14.8632 22.3897 4.1169 0.8970
-38.1023 16.3823 6.3537 0.8455
-38.9093 13.4895 6.3087 0.8465
-43.5792 11.6578 6.9108 0.8331
-42.8428 9.8155 6.7333 0.8371
-40.1417 -6.9994 6.2423 0.8480
-10.4391 24.3371 3.4484 0.8987
-12.6792 24.5016 3.5925 0.8947
-13.8829 24.6049 3.6789 0.8923
-14.3883 23.4746 3.5854 0.8949
-15.2658 21.2837 3.4108 0.8997
-42.8586 22.2254 6.2869 0.8230
-41.2982 17.7564 5.8539 0.8342
-42.5010 16.4793 5.9360 0.8320
-46.1224 15.9902 6.3568 0.8213
-43.2623 11.5730 5.8317 0.8347
-44.9326 10.2943 6.0028 0.8303
-39.6171 -6.9080 5.2368 0.8503
-9.1860 23.7518 2.7346 0.9026
-13.7560 22.4429 2.8266 0.8995
-17.5217 21.0343 2.9397 0.8957
-36.8533 26.4811 4.8731 0.8331
-37.5483 24.9725 4.8423 0.8341
-41.1540 25.2733 5.1860 0.8234
-45.7274 17.7303 5.2665 0.8209
-46.0672 15.9711 5.2356 0.8219
-47.8879 12.8104 5.3231 0.8192
-9.1381 23.6278 2.1445 0.9033
-10.1393 23.6382 2.1773 0.9019
-11.1730 23.6489 2.2141 0.9003
-12.2437 23.6600 2.2552 0.8986
-13.6324 22.2413 2.2083 0.9006
-15.2419 21.2504 2.2138 0.9003
-16.4470 21.2629 2.2756 0.8977
-17.8592 21.4393 2.3621 0.8940
-35.9333 27.8441 3.8482 0.8332
-36.2653 24.1193 3.6869 0.8396
-39.6270 24.3355 3.9366 0.8297
-8.8811 22.9633 1.5267 0.9060
-9.9308 23.1521 1.5622 0.9040
-10.9614 23.2010 1.5912 0.9023
-13.1404 23.2889 1.6582 0.8984
-13.6362 22.2475 1.6181 0.9007
-15.2421 21.2508 1.6217 0.9005
-16.4473 21.2632 1.6670 0.8979
-17.8378 21.4136 1.7282 0.8943
-20.0817 22.4074 1.8658 0.8864
-35.4982 29.6220 2.8670 0.8309
-35.5416 25.5385 2.7139 0.8391
-38.9483 23.9187 2.8343 0.8326
-42.3692 23.9541 3.0182 0.8228
-7.7562 20.0546 0.8479 0.9175
-9.4833 20.0726 0.8754 0.9150
-10.6804 20.6390 0.9163 0.9112
-11.6801 20.7008 0.9372 0.9092
-12.7312 20.7709 0.9606 0.9071
-15.2424 21.2511 1.0312 0.9006
-17.8164 21.3880 1.0976 0.8946
-20.3468 22.7032 1.2021 0.8851
-21.8932 22.7192 1.2441 0.8813
-30.5553 27.4313 1.6191 0.8484
-30.4287 23.5787 1.5179 0.8572
-31.7603 22.8215 1.5421 0.8551
-35.9175 23.8879 1.7009 0.8414
-9.0348 23.3608 0.4231 0.9047
-11.0468 23.3817 0.4368 0.9017
-13.0689 23.1622 0.4492 0.8991
-13.0878 21.3528 0.4231 0.9047
-14.1222 21.2735 0.4313 0.9029
-5.3844 6.4639 0.1421 0.9669
-28.9598 25.9989 0.6574 0.8558
-28.9492 24.1571 0.6369 0.8600
-28.9406 22.4256 0.6185 0.8638
-10.3688 6.8961 0.2103 0.9514
-10.5191 6.4600 0.2085 0.9518
-2.5382 6.5630 -0.0396 0.9722
-2.8147 6.5621 -0.0402 0.9718
-4.0196 6.5582 -0.0433 0.9697
-5.3844 6.4639 -0.0474 0.9669
-5.8666 6.5461 -0.0495 0.9654
-6.3066 6.5447 -0.0512 0.9643
-6.7783 6.5432 -0.0530 0.9630
-7.2864 6.5415 -0.0551 0.9616
-7.8369 6.5397 -0.0575 0.9600
-8.4369 6.5377 -0.0601 0.9582
-9.8231 6.5332 -0.0664 0.9539
-13.7971 6.5331 -0.0859 0.9408
-15.1841 6.5286 -0.0931 0.9360
-24.2857 6.4967 -0.1415 0.9043
-28.2842 6.4802 -0.1634 0.8904
-41.7974 6.4404 -0.2381 0.8444
-2.5382 6.5630 -0.1981 0.9722
-2.8147 6.5621 -0.2011 0.9718
-3.3947 6.5602 -0.2080 0.9709
-4.0196 6.5582 -0.2166 0.9697
-4.7022 6.5559 -0.2272 0.9682
-5.0701 6.5547 -0.2333 0.9674
-5.3844 6.4639 -0.2369 0.9669
-6.7783 6.5432 -0.2653 0.9630
-7.2864 6.5415 -0.2757 0.9616
-8.4369 6.5377 -0.3005 0.9582
-11.5683 6.5404 -0.3742 0.9482
-15.1842 6.5286 -0.4654 0.9360
-16.8152 6.5200 -0.5078 0.9304
-28.2844 6.4802 -0.8171 0.8904
-33.7610 6.4597 -0.9679 0.8715
-2.8147 6.5621 -0.3621 0.9718
-3.7009 6.5592 -0.3819 0.9703
-4.3528 6.5571 -0.3991 0.9690
-4.7022 6.5559 -0.4092 0.9682
-5.0701 6.5547 -0.4203 0.9674
-7.2864 6.5415 -0.4966 0.9615
-9.0954 6.5356 -0.5680 0.9561
-9.8231 6.5332 -0.5983 0.9538
-11.5683 6.5404 -0.6739 0.9482
-13.7972 6.5331 -0.7742 0.9407
-16.8153 6.5200 -0.9146 0.9303
-28.2845 6.4802 -1.4716 0.8903
-40.5148 6.2427 -2.0789 0.8486
-40.7081 4.7729 -2.0786 0.8486
-43.6228 -2.8013 -2.2169 0.8394
-43.5261 -4.3802 -2.2185 0.8393
-43.3786 -5.9567 -2.2206 0.8391
-40.5508 -7.0708 -2.0875 0.8480
-2.8147 6.5621 -0.5235 0.9718
-3.0998 6.5612 -0.5321 0.9713
-3.3948 6.5602 -0.5416 0.9708
-4.0196 6.5582 -0.5640 0.9696
-4.3528 6.5571 -0.5771 0.9689
-4.7022 6.5560 -0.5916 0.9682
-5.3845 6.4639 -0.6168 0.9668
-7.2864 6.5415 -0.7180 0.9615
-7.8369 6.5397 -0.7484 0.9599
-8.4370 6.5378 -0.7826 0.9581
-9.0954 6.5356 -0.8212 0.9561
-20.9477 6.4239 -1.6065 0.9159
-28.8811 5.5260 -2.1560 0.8888
-31.0892 3.6451 -2.2951 0.8820
-31.2750 1.3888 -2.2954 0.8820
-31.3118 0.2570 -2.2959 0.8820
-31.3109 -0.8757 -2.2967 0.8819
-31.2724 -2.0082 -2.2977 0.8819
-31.1964 -3.1394 -2.2989 0.8818
-2.5382 6.5630 -0.6756 0.9721
-2.8147 6.5621 -0.6855 0.9717
-3.3948 6.5602 -0.7091 0.9708
-4.3528 6.5571 -0.7556 0.9689
-4.7022 6.5560 -0.7746 0.9681
-5.0701 6.5548 -0.7956 0.9672
-5.8666 6.5462 -0.8439 0.9653
-6.3067 6.5447 -0.8726 0.9641
-6.7783 6.5432 -0.9045 0.9628
-7.2864 6.5415 -0.9401 0.9614
-8.4370 6.5378 -1.0247 0.9580
-9.0954 6.5356 -1.0753 0.9560
-12.6057 6.5370 -1.3633 0.9445
-15.1843 6.5286 -1.5868 0.9357
-18.7878 6.5136 -1.9090 0.9232
-22.1390 5.9224 -2.2002 0.9120
-22.3312 5.1162 -2.1995 0.9120
-24.1011 3.7136 -2.3411 0.9067
-24.2177 2.8395 -2.3409 0.9067
-24.3892 0.2002 -2.3416 0.9066
-24.3868 -0.6820 -2.3422 0.9066
-24.3545 -1.5639 -2.3430 0.9066
-24.2923 -2.4446 -2.3440 0.9066
-3.3948 6.5602 -0.8774 0.9707
-3.7009 6.5592 -0.8946 0.9701
-4.3528 6.5571 -0.9349 0.9688
-4.7022 6.5560 -0.9584 0.9680
-5.0701 6.5548 -0.9844 0.9672
-5.3845 6.4640 -0.9993 0.9667
-5.8666 6.5462 -1.0442 0.9652
-6.3067 6.5447 -1.0796 0.9641
-7.2864 6.5415 -1.1632 0.9613
-7.8369 6.5397 -1.2125 0.9597
-9.8232 6.5333 -1.4014 0.9536
-10.5192 6.4601 -1.4663 0.9515
-15.1843 6.5286 -1.9633 0.9356
-16.8154 6.5201 -2.1423 0.9299
-18.1145 4.8458 -2.2274 0.9272
-19.7226 3.0390 -2.3704 0.9228
-19.8183 2.3236 -2.3703 0.9228
-19.8895 1.6055 -2.3703 0.9228
-19.9359 0.8853 -2.3704 0.9228
-19.8747 -2.0001 -2.3728 0.9227
-19.7976 -2.7186 -2.3737 0.9227
-19.6959 -3.4343 -2.3749 0.9226
-2.8147 6.5621 -1.0117 0.9716
-3.0998 6.5612 -1.0282 0.9711
-3.3948 6.5602 -1.0466 0.9706
-3.7009 6.5592 -1.0671 0.9700
-5.0701 6.5548 -1.1741 0.9671
-5.8667 6.5462 -1.2455 0.9651
-6.7783 6.5432 -1.3349 0.9627
-7.2864 6.5416 -1.3874 0.9612
-8.4370 6.5378 -1.5123 0.9578
-9.8232 6.5333 -1.6716 0.9535
-11.5684 6.5405 -1.8829 0.9477
-13.7973 6.5332 -2.1630 0.9402
-14.7971 5.7374 -2.2487 0.9379
-14.9888 5.1965 -2.2478 0.9379
-16.4521 3.7693 -2.3915 0.9341
-16.5747 3.1713 -2.3911 0.9341
-16.8570 0.7486 -2.3908 0.9341
-16.8751 0.1385 -2.3911 0.9341
-16.8721 -0.4718 -2.3915 0.9341
-16.8480 -1.0819 -2.3921 0.9341
-16.8027 -1.6909 -2.3928 0.9341
-16.7365 -2.2982 -2.3936 0.9340
-16.6492 -2.9031 -2.3946 0.9340
-2.5382 6.5631 -1.1592 0.9719
-3.3948 6.5603 -1.2168 0.9705
-3.7009 6.5593 -1.2407 0.9699
-4.0197 6.5582 -1.2672 0.9693
-4.3528 6.5571 -1.2966 0.9686
-4.7022 6.5560 -1.3291 0.9678
-5.8667 6.5462 -1.4481 0.9650
-9.0954 6.5357 -1.8451 0.9556
-9.8232 6.5333 -1.9435 0.9533
-10.5193 6.4601 -2.0336 0.9512
-11.5684 6.5405 -2.1893 0.9476
-12.2073 6.3304 -2.2653 0.9458
-13.9717 4.2846 -2.4075 0.9425
-14.1139 3.7756 -2.4069 0.9425
-14.4334 2.2240 -2.4058 0.9425
-14.5895 0.6479 -2.4058 0.9425
-14.6048 0.1199 -2.4061 0.9425
-14.5408 -1.4633 -2.4075 0.9425
-14.4828 -1.9887 -2.4083 0.9425
-14.4065 -2.5120 -2.4091 0.9424
-2.5382 6.5631 -1.3226 0.9718
-2.8147 6.5622 -1.3421 0.9714
-3.3948 6.5603 -1.3884 0.9704
-4.7022 6.5560 -1.5165 0.9677
-5.3845 6.4640 -1.5813 0.9663
-6.3067 6.5448 -1.7084 0.9637
-6.7783 6.5432 -1.7708 0.9624
-9.8232 6.5333 -2.2175 0.9531
-10.5434 5.9609 -2.2765 0.9519
-10.7469 5.5731 -2.2755 0.9519
-10.9367 5.1786 -2.2745 0.9519
-11.1126 4.7779 -2.2736 0.9520
-12.4288 3.3248 -2.4183 0.9490
-12.7108 1.9585 -2.4173 0.9490
-12.7728 1.4976 -2.4172 0.9490
-12.8186 1.0347 -2.4172 0.9490
-12.8482 0.5705 -2.4173 0.9490
-12.8397 -0.8245 -2.4183 0.9490
-12.8043 -1.2885 -2.4189 0.9490
-12.6851 -2.2119 -2.4203 0.9489
-2.8147 6.5622 -1.5093 0.9712
-3.0998 6.5612 -1.5339 0.9708
-5.0701 6.5548 -1.7517 0.9667
-5.3845 6.4640 -1.7783 0.9662
-5.8667 6.5462 -1.8581 0.9647
-6.3067 6.5448 -1.9212 0.9635
-6.7784 6.5432 -1.9915 0.9622
-8.5603 6.6333 -2.2892 0.9567
-8.7896 6.3158 -2.2879 0.9567
-9.2136 5.6582 -2.2855 0.9568
-9.5900 4.9731 -2.2835 0.9568
-10.5601 4.5404 -2.4298 0.9541
-10.7140 4.1543 -2.4290 0.9541
-10.8543 3.7631 -2.4284 0.9541
-11.0931 2.9675 -2.4273 0.9541
-11.1914 2.5640 -2.4269 0.9541
-11.3453 1.7481 -2.4265 0.9542
-11.4006 1.3367 -2.4264 0.9542
-11.4679 0.5093 -2.4265 0.9542
-11.4598 -0.7359 -2.4274 0.9541
-3.3948 6.5603 -1.7360 0.9701
-3.7009 6.5593 -1.7700 0.9695
-4.0197 6.5582 -1.8078 0.9689
-4.3528 6.5572 -1.8497 0.9682
-5.0701 6.5548 -1.9476 0.9665
-5.3845 6.4640 -1.9772 0.9660
-5.8667 6.5462 -2.0659 0.9645
-6.3067 6.5448 -2.1361 0.9633
-6.7784 6.5433 -2.2142 0.9620
-7.2749 6.5311 -2.2977 0.9606
-7.7193 5.9816 -2.2951 0.9607
-7.9264 5.6956 -2.2940 0.9607
-8.9724 4.6529 -2.3754 0.9593
-9.3742 4.4387 -2.4377 0.9583
-10.0073 2.6770 -2.4347 0.9583
-10.0962 2.3131 -2.4343 0.9583
-10.1721 1.9463 -2.4341 0.9583
-10.2352 1.5771 -2.4339 0.9583
-10.2852 1.2059 -2.4338 0.9583
-10.3458 0.4594 -2.4339 0.9583
-10.3564 0.0850 -2.4341 0.9583
-10.3092 -1.0374 -2.4351 0.9583
-10.2671 -1.4099 -2.4357 0.9583
-10.2120 -1.7807 -2.4363 0.9583
-2.8147 6.5622 -1.8488 0.9709
-3.0998 6.5613 -1.8789 0.9705
-4.0197 6.5583 -1.9916 0.9687
-5.0702 6.5548 -2.1456 0.9663
-5.3845 6.4640 -2.1782 0.9658
-6.1774 6.4105 -2.3050 0.9639
-6.4015 6.1793 -2.3037 0.9639
-6.6171 5.9406 -2.3024 0.9639
-7.0220 5.4413 -2.3001 0.9640
-7.2108 5.1814 -2.2990 0.9640
-7.3902 4.9151 -2.2980 0.9640
-7.6086 4.6725 -2.3118 0.9638
-8.6674 3.7266 -2.4428 0.9618
-8.7943 3.4099 -2.4422 0.9618
-8.9098 3.0890 -2.4416 0.9618
-9.0139 2.7642 -2.4411 0.9618
-9.1065 2.4361 -2.4408 0.9618
-9.2567 1.7711 -2.4402 0.9618
-9.3932 0.7582 -2.4400 0.9618
-9.4148 0.4181 -2.4401 0.9618
-9.4244 0.0774 -2.4402 0.9618
-9.4220 -0.2635 -2.4405 0.9618
-9.3810 -0.9440 -2.4412 0.9618
-9.2922 -1.6203 -2.4422 0.9618
-2.5382 6.5631 -1.9921 0.9712
-2.8147 6.5622 -2.0214 0.9708
-3.0998 6.5613 -2.0543 0.9703
-3.3948 6.5603 -2.0911 0.9698
-3.7009 6.5593 -2.1321 0.9692
-4.0197 6.5583 -2.1776 0.9685
-4.3529 6.5572 -2.2281 0.9678
-4.7644 6.6426 -2.3142 0.9666
-5.2257 6.2733 -2.3114 0.9666
-5.6591 5.8726 -2.3088 0.9667
-5.8646 5.6612 -2.3076 0.9667
-6.2524 5.2174 -2.3053 0.9667
-6.4340 4.9856 -2.3043 0.9667
-6.6072 4.7477 -2.3033 0.9667
-7.0107 4.6627 -2.3836 0.9656
-7.5334 4.2592 -2.4499 0.9647
-7.6800 3.9827 -2.4491 0.9647
-7.8168 3.7013 -2.4484 0.9647
-8.0598 3.1251 -2.4472 0.9647
-8.3464 2.2327 -2.4459 0.9647
-8.4207 1.9292 -2.4456 0.9647
-8.6094 0.6950 -2.4452 0.9647
-8.6356 -0.2415 -2.4456 0.9647
-8.6222 -0.5537 -2.4459 0.9647
-8.5625 -1.1758 -2.4467 0.9647
-8.5162 -1.4850 -2.4472 0.9647
-2.5382 6.5631 -2.1644 0.9710
-2.8147 6.5622 -2.1962 0.9706
-3.0998 6.5613 -2.2320 0.9701
-3.7085 6.5725 -2.3212 0.9689
-3.9412 6.4301 -2.3197 0.9689
-4.6063 5.9551 -2.3157 0.9690
-4.8160 5.7814 -2.3144 0.9690
-5.2159 5.4127 -2.3120 0.9690
-5.5881 5.0168 -2.3098 0.9691
-5.7634 4.8093 -2.3088 0.9691
-6.0331 4.6750 -2.3476 0.9686
-6.4755 4.6531 -2.4526 0.9672
-6.9453 3.9267 -2.4540 0.9672
-7.0806 3.6719 -2.4533 0.9672
-7.2069 3.4125 -2.4526 0.9672
-7.4312 2.8814 -2.4515 0.9672
-7.5292 2.6103 -2.4510 0.9672
-7.6174 2.3359 -2.4506 0.9672
-7.6958 2.0587 -2.4503 0.9672
-7.7644 1.7789 -2.4500 0.9672
-7.8716 1.2129 -2.4497 0.9672
-7.9567 0.3533 -2.4497 0.9672
-7.9647 0.0654 -2.4499 0.9672
-7.9625 -0.2227 -2.4501 0.9672
-7.9501 -0.5105 -2.4503 0.9672
-7.8948 -1.0841 -2.4511 0.9672
-7.8520 -1.3691 -2.4515 0.9672
-2.5273 6.5347 -2.3290 0.9709
-2.7602 6.4350 -2.3275 0.9709
-2.9892 6.3271 -2.3261 0.9709
-3.4346 6.0872 -2.3233 0.9710
-3.8612 5.8165 -2.3207 0.9710
-4.0668 5.6700 -2.3194 0.9710
-4.2669 5.5163 -2.3182 0.9710
-4.4613 5.3557 -2.3170 0.9710
-4.6498 5.1883 -2.3159 0.9711
-4.8321 5.0144 -2.3148 0.9711
-5.5895 4.6642 -2.4199 0.9698
-5.8518 4.5345 -2.4608 0.9693
-6.0097 4.3183 -2.4599 0.9693
-6.3019 3.8701 -2.4583 0.9693
-6.6785 3.1623 -2.4563 0.9693
-6.9775 2.4190 -2.4548 0.9694
-7.0593 2.1648 -2.4544 0.9694
-7.1321 1.9079 -2.4541 0.9694
-7.2501 1.3872 -2.4537 0.9694
-7.2951 1.1241 -2.4536 0.9694
-7.3308 0.8595 -2.4535 0.9694
-7.3571 0.5939 -2.4535 0.9694
-7.3813 0.0606 -2.4537 0.9694
-7.3793 -0.2064 -2.4539 0.9694
-7.3468 -0.7393 -2.4545 0.9694
-2.5674 5.9855 -2.3291 0.9727
-2.7806 5.8854 -2.3277 0.9727
-3.1951 5.6628 -2.3252 0.9728
-3.3960 5.5405 -2.3239 0.9728
-3.7837 5.2752 -2.3215 0.9728
-4.1511 4.9832 -2.3193 0.9728
-5.1303 4.6058 -2.4655 0.9711
-5.2915 4.4156 -2.4646 0.9711
-5.4457 4.2198 -2.4637 0.9712
-5.8651 3.6018 -2.4613 0.9712
-5.9899 3.3865 -2.4607 0.9712
-6.2159 2.9433 -2.4595 0.9712
-6.3170 2.7160 -2.4589 0.9712
-6.5707 2.0150 -2.4577 0.9712
-6.6977 1.5345 -2.4572 0.9712
-6.7484 1.2912 -2.4570 0.9712
-6.8706 0.0564 -2.4571 0.9712
-6.8686 -0.1921 -2.4572 0.9712
-6.8579 -0.4404 -2.4575 0.9712
-6.8382 -0.6882 -2.4578 0.9712
-6.8099 -0.9351 -2.4581 0.9712
-6.7727 -1.1810 -2.4585 0.9712
-2.5964 5.4955 -2.3292 0.9743
-2.9837 5.2880 -2.3268 0.9743
-3.9059 4.6889 -2.3386 0.9742
-4.1897 4.6749 -2.4057 0.9735
-4.6352 4.4744 -2.4689 0.9728
-4.9429 4.1247 -2.4671 0.9728
-5.0871 3.9419 -2.4662 0.9728
-5.3553 3.5617 -2.4647 0.9728
-5.5957 3.1637 -2.4634 0.9728
-5.7052 2.9586 -2.4628 0.9728
-5.9016 2.5374 -2.4618 0.9729
-5.9885 2.3220 -2.4614 0.9729
-6.0676 2.1036 -2.4610 0.9729
-6.1389 1.8826 -2.4607 0.9729
-6.2023 1.6592 -2.4604 0.9729
-6.2577 1.4337 -2.4602 0.9729
-6.3753 0.7475 -2.4599 0.9729
-6.3982 0.5165 -2.4599 0.9729
-6.3889 -0.6429 -2.4607 0.9729
-2.0561 5.3163 -2.3329 0.9757
-2.2458 5.2358 -2.3317 0.9757
-2.4324 5.1486 -2.3305 0.9757
-2.7955 4.9545 -2.3283 0.9757
-3.1434 4.7351 -2.3261 0.9757
-3.3624 4.6879 -2.3611 0.9754
-3.6167 4.6757 -2.4193 0.9748
-4.1908 4.3490 -2.4719 0.9742
-4.6323 3.8655 -2.4693 0.9743
-4.7676 3.6943 -2.4685 0.9743
-5.0192 3.3382 -2.4671 0.9743
-5.1353 3.1537 -2.4664 0.9743
-5.6131 2.1764 -2.4639 0.9743
-5.8136 1.5552 -2.4630 0.9743
-5.8656 1.3438 -2.4628 0.9743
-5.9759 0.7007 -2.4625 0.9743
-6.0110 0.2669 -2.4626 0.9743
-6.0170 0.0494 -2.4627 0.9743
-6.0057 -0.3857 -2.4631 0.9743
-5.9884 -0.6026 -2.4633 0.9743
-5.9635 -0.8189 -2.4636 0.9743
-5.9308 -1.0342 -2.4640 0.9743
-2.2854 4.8374 -2.3317 0.9769
-2.4577 4.7494 -2.3306 0.9769
-2.8713 4.6846 -2.3946 0.9763
-3.3132 4.6193 -2.4775 0.9755
-3.7895 4.2284 -2.4746 0.9755
-3.9386 4.0872 -2.4737 0.9755
-4.0823 3.9407 -2.4729 0.9755
-4.2208 3.7893 -2.4720 0.9756
-4.4809 3.4722 -2.4705 0.9756
-4.6022 3.3070 -2.4698 0.9756
-4.7176 3.1376 -2.4692 0.9756
-4.8268 2.9642 -2.4686 0.9756
-4.9297 2.7871 -2.4680 0.9756
-5.0262 2.6065 -2.4675 0.9756
-5.1995 2.2356 -2.4666 0.9756
-5.2762 2.0458 -2.4662 0.9756
-5.3460 1.8534 -2.4659 0.9756
-5.4648 1.4619 -2.4654 0.9756
-5.5554 1.0629 -2.4651 0.9756
-5.5900 0.8613 -2.4650 0.9756
-5.6174 0.6586 -2.4649 0.9756
-5.6291 -0.5665 -2.4657 0.9756
-5.6056 -0.7698 -2.4659 0.9756
-5.5748 -0.9721 -2.4663 0.9756
-1.8219 4.7109 -2.3380 0.9780
-2.2146 4.6874 -2.3997 0.9774
-2.4213 4.6790 -2.4387 0.9770
-2.6348 4.6698 -2.4819 0.9766
-2.8008 4.5695 -2.4809 0.9767
-2.9630 4.4635 -2.4799 0.9767
-3.1213 4.3517 -2.4789 0.9767
-3.5702 3.9837 -2.4762 0.9767
-3.7107 3.8507 -2.4754 0.9767
-4.1021 3.4231 -2.4731 0.9767
-4.2220 3.2716 -2.4724 0.9767
-4.3364 3.1160 -2.4717 0.9767
-4.4452 2.9564 -2.4711 0.9767
-4.5481 2.7931 -2.4705 0.9767
-4.6451 2.6262 -2.4700 0.9768
-4.8210 2.2828 -2.4691 0.9768
-4.8996 2.1066 -2.4687 0.9768
-5.1497 1.3776 -2.4675 0.9768
-5.1957 1.1904 -2.4673 0.9768
-5.2351 1.0017 -2.4672 0.9768
-5.2677 0.8117 -2.4671 0.9768
-5.2935 0.6207 -2.4671 0.9768
-5.3125 0.4288 -2.4671 0.9768
-5.3299 0.0438 -2.4672 0.9768
-5.3198 -0.3416 -2.4675 0.9768
-5.2823 -0.7254 -2.4680 0.9768
-5.2533 -0.9160 -2.4684 0.9768
-2.1641 4.5806 -2.4851 0.9777
-2.3274 4.4975 -2.4840 0.9777
-2.4875 4.4087 -2.4830 0.9777
-2.9469 4.1087 -2.4802 0.9777
-3.0925 3.9980 -2.4793 0.9777
-3.3711 3.7615 -2.4777 0.9777
-3.5037 3.6360 -2.4769 0.9778
-3.7552 3.3712 -2.4754 0.9778
-3.8735 3.2323 -2.4747 0.9778
-4.1977 2.7918 -2.4729 0.9778
-4.4726 2.3194 -2.4714 0.9778
-4.5528 2.1558 -2.4709 0.9778
-4.8135 1.4761 -2.4697 0.9778
-4.8633 1.3010 -2.4695 0.9778
-4.9748 0.7665 -2.4691 0.9778
-5.0171 0.4050 -2.4690 0.9778
-5.0336 0.0413 -2.4692 0.9778
-5.0095 -0.5041 -2.4697 0.9778
-4.9611 -0.8651 -2.4703 0.9778
-1.8898 4.4057 -2.4870 0.9786
-2.0470 4.3328 -2.4860 0.9786
-2.7878 3.8868 -2.4814 0.9787
-2.9255 3.7821 -2.4806 0.9787
-3.1892 3.5585 -2.4790 0.9787
-3.3148 3.4398 -2.4782 0.9787
-3.6647 3.0581 -2.4762 0.9787
-4.0636 2.4956 -2.4739 0.9787
-4.1504 2.3465 -2.4735 0.9787
-4.2318 2.1945 -2.4730 0.9787
-4.5015 1.5606 -2.4717 0.9788
-4.6429 1.0637 -2.4711 0.9788
-4.7073 0.7253 -2.4709 0.9788
-4.7304 0.5546 -2.4708 0.9788
-4.7473 0.3832 -2.4708 0.9788
-4.7628 0.0391 -2.4710 0.9788
-4.7614 -0.1332 -2.4711 0.9788
-4.7537 -0.3053 -2.4712 0.9788
-4.7400 -0.4770 -2.4715 0.9788
-4.7201 -0.6482 -2.4717 0.9788
-4.6942 -0.8185 -2.4720 0.9788
-1.7905 4.1744 -2.4878 0.9795
-1.9396 4.1054 -2.4869 0.9795
-2.0860 4.0311 -2.4859 0.9795
-2.2296 3.9516 -2.4851 0.9795
-2.5077 3.7775 -2.4833 0.9795
-2.7723 3.5841 -2.4817 0.9795
-3.1413 3.2599 -2.4795 0.9796
-3.4731 2.8982 -2.4776 0.9796
-3.6718 2.6384 -2.4764 0.9796
-3.7641 2.5034 -2.4759 0.9796
-3.9337 2.2240 -2.4750 0.9796
-4.0108 2.0799 -2.4746 0.9796
-4.2107 1.6327 -2.4735 0.9796
-4.2666 1.4792 -2.4733 0.9796
-4.3169 1.3238 -2.4730 0.9796
-4.4007 1.0082 -2.4727 0.9796
-4.4340 0.8484 -2.4726 0.9796
-4.4617 0.6875 -2.4725 0.9796
-4.4835 0.5257 -2.4725 0.9796
-4.4996 0.3632 -2.4725 0.9796
-4.5129 -0.1262 -2.4727 0.9796
-4.5057 -0.2893 -2.4729 0.9796
-4.4926 -0.4521 -2.4731 0.9796
-4.4738 -0.6143 -2.4733 0.9796
-4.4491 -0.7758 -2.4736 0.9796
-1.5553 4.0216 -2.4894 0.9803
-1.6991 3.9612 -2.4885 0.9803
-2.2494 3.6698 -2.4851 0.9803
-2.5071 3.4954 -2.4835 0.9803
-2.8684 3.2006 -2.4813 0.9803
-3.1955 2.8689 -2.4794 0.9804
-3.6556 2.2450 -2.4768 0.9804
-3.7338 2.1110 -2.4764 0.9804
-3.8071 1.9742 -2.4760 0.9804
-3.9969 1.5498 -2.4750 0.9804
-4.0499 1.4041 -2.4748 0.9804
-4.0977 1.2566 -2.4745 0.9804
-4.1401 1.1075 -2.4744 0.9804
-4.1772 0.9570 -2.4742 0.9804
-4.2352 0.6526 -2.4740 0.9804
-4.2559 0.4990 -2.4740 0.9804
-4.2712 0.3448 -2.4740 0.9804
-4.2851 0.0352 -2.4741 0.9804
-4.2645 -0.4292 -2.4746 0.9804
-4.2466 -0.5831 -2.4748 0.9804
-4.2231 -0.7364 -2.4750 0.9804
