ply
format ascii 1.0
element vertex 567
property float32 x
property float32 y
property float32 z
property float32 I
end_header
-2.0249 33.5886 5.9333 0.8723
-2.6947 28.0466 4.9681 0.8919
-7.0952 25.2779 4.6294 0.8988
-12.4926 25.7625 5.0485 0.8902
-15.5173 22.9865 4.8902 0.8935
-0.8240 33.4342 5.1235 0.8734
-3.6713 27.7880 4.2940 0.8928
-5.8309 28.3998 4.4414 0.8893
-6.9362 24.7113 3.9319 0.9013
-8.9091 24.8072 4.0380 0.8988
-9.9490 24.8830 4.1053 0.8972
-13.3414 25.1895 4.3667 0.8911
-14.5824 25.3129 4.4752 0.8885
-15.4988 21.2854 4.0336 0.8989
0.3925 35.9042 4.6757 0.8652
-1.7293 28.6838 3.7420 0.8906
-2.6884 27.9811 3.6605 0.8928
-3.6602 27.7039 3.6390 0.8934
-7.7345 24.2106 3.3097 0.9026
-8.7100 24.2528 3.3557 0.9013
-11.8475 24.4323 3.5359 0.8963
-14.2694 21.1378 3.3211 0.9022
-0.8283 33.6096 3.6101 0.8735
-3.7404 28.3112 3.0665 0.8915
-4.7823 28.3818 3.0906 0.8907
-6.5307 23.2668 2.5950 0.9074
-7.4359 23.2762 2.6239 0.9064
-10.5155 23.8067 2.7947 0.9006
-13.7229 21.9750 2.7820 0.9010
-16.6992 21.2986 2.9062 0.8968
-36.9640 28.5020 5.0122 0.8288
-41.2155 25.2772 5.1918 0.8232
-1.9226 31.8913 2.7046 0.8796
-2.9705 30.9173 2.6293 0.8828
-4.8458 28.7586 2.4688 0.8895
-6.1730 25.4372 2.2158 0.9003
-7.5429 23.6112 2.0983 0.9053
-10.4424 23.6412 2.1878 0.9015
-11.4690 23.6518 2.2252 0.8999
-12.5328 23.6628 2.2667 0.8981
-13.5154 23.4608 2.2920 0.8970
-14.3620 21.2750 2.1729 0.9021
-36.0170 29.8732 3.9612 0.8287
-35.9266 27.7021 3.8404 0.8335
-36.3662 24.1238 3.6943 0.8393
-39.6827 24.3371 3.9407 0.8296
-3.9791 30.1175 1.8838 0.8854
-4.8488 28.7770 1.8096 0.8896
-6.1768 25.4528 1.6241 0.9004
-7.2528 22.7029 1.4779 0.9089
-8.2046 22.8455 1.5052 0.9073
-9.2034 23.0182 1.5372 0.9054
-10.2384 23.1792 1.5713 0.9034
-16.6730 21.2653 1.6757 0.8974
-35.5222 27.3902 2.7815 0.8355
-35.5428 25.4431 2.7105 0.8393
-36.0103 23.8878 2.6797 0.8410
-39.0004 23.9187 2.8370 0.8325
-6.1805 25.4683 1.0334 0.9004
-7.2002 20.0487 0.8400 0.9183
-8.8632 20.0660 0.8650 0.9159
-10.9384 20.6524 0.9215 0.9107
-12.9802 20.7857 0.9663 0.9066
-18.8840 22.3966 1.1551 0.8893
-20.5694 22.7052 1.2080 0.8846
-22.1050 22.7211 1.2500 0.8808
-30.4806 25.2812 1.5615 0.8534
-30.4227 23.4581 1.5148 0.8575
-37.3185 22.8872 1.7262 0.8392
0.0709 6.4877 0.1096 0.9744
-0.1598 6.4869 0.1096 0.9744
-6.6250 23.6026 0.4141 0.9066
-8.3872 23.3540 0.4192 0.9055
-10.3244 23.3740 0.4316 0.9028
-11.3395 23.3845 0.4390 0.9013
-12.3912 23.3954 0.4472 0.8995
-13.6484 21.8557 0.4353 0.9021
-15.5009 21.2883 0.4448 0.9000
-5.4498 6.4636 0.1428 0.9667
-20.5445 22.6777 0.5169 0.8848
-22.0782 22.6936 0.5348 0.8810
-23.4136 22.4130 0.5475 0.8784
-28.9384 22.3136 0.6173 0.8640
0.0710 6.4877 -0.0365 0.9744
-0.1598 6.4869 -0.0365 0.9744
-0.3961 6.5700 -0.0371 0.9740
-0.6312 6.5692 -0.0372 0.9739
-0.8678 6.5684 -0.0373 0.9738
-1.3482 6.5668 -0.0377 0.9735
-2.3571 6.5635 -0.0393 0.9725
-2.6239 6.5626 -0.0398 0.9721
-3.4743 6.5598 -0.0418 0.9707
-3.7784 6.5589 -0.0426 0.9702
-4.0951 6.5578 -0.0435 0.9695
-5.4498 6.4636 -0.0476 0.9667
-5.9300 6.5458 -0.0497 0.9653
-6.3668 6.5444 -0.0514 0.9641
-7.3387 6.5412 -0.0553 0.9614
-8.4782 6.5374 -0.0603 0.9581
-9.1294 6.5353 -0.0632 0.9561
-10.5328 6.4598 -0.0696 0.9518
0.0710 6.4877 -0.1827 0.9744
-0.8678 6.5684 -0.1866 0.9738
-1.5934 6.5660 -0.1902 0.9733
-1.8427 6.5652 -0.1920 0.9731
-2.0971 6.5644 -0.1940 0.9728
-2.3572 6.5635 -0.1964 0.9725
-2.6239 6.5626 -0.1990 0.9721
-2.8983 6.5617 -0.2020 0.9717
-3.1814 6.5608 -0.2053 0.9712
-3.7784 6.5589 -0.2131 0.9702
-4.4262 6.5567 -0.2228 0.9688
-5.4498 6.4636 -0.2381 0.9667
-5.9300 6.5458 -0.2487 0.9653
-6.3668 6.5444 -0.2571 0.9641
-6.8348 6.5428 -0.2664 0.9628
-8.4783 6.5374 -0.3015 0.9581
-9.8482 6.5330 -0.3328 0.9538
-10.5329 6.4598 -0.3479 0.9518
7.5429 48.8438 -2.5064 0.8204
0.0709 6.4877 -0.3290 0.9743
-0.3961 6.5700 -0.3338 0.9740
-1.1066 6.5676 -0.3378 0.9737
-1.5934 6.5660 -0.3427 0.9733
-1.8427 6.5652 -0.3458 0.9731
-2.0971 6.5644 -0.3495 0.9728
-2.6239 6.5627 -0.3584 0.9721
-3.1814 6.5608 -0.3698 0.9712
-3.7784 6.5589 -0.3839 0.9701
-4.0952 6.5578 -0.3921 0.9695
-4.4262 6.5567 -0.4012 0.9688
-6.8348 6.5429 -0.4798 0.9628
-7.3387 6.5412 -0.4986 0.9614
-8.4783 6.5375 -0.5429 0.9580
-10.5329 6.4598 -0.6266 0.9517
8.9014 33.4698 -2.5394 0.8703
7.6804 33.6558 -2.5312 0.8707
4.9157 31.8313 -2.3616 0.8788
2.6284 31.9523 -2.3507 0.8793
1.4924 32.0688 -2.3539 0.8792
0.0709 6.4877 -0.4757 0.9743
-0.1598 6.4870 -0.4758 0.9743
-0.3960 6.5700 -0.4826 0.9739
-0.8678 6.5684 -0.4858 0.9738
-1.1066 6.5676 -0.4883 0.9736
-1.3482 6.5668 -0.4915 0.9735
-1.5934 6.5660 -0.4954 0.9733
-2.0971 6.5644 -0.5053 0.9727
-2.6239 6.5627 -0.5182 0.9721
-3.1814 6.5608 -0.5346 0.9712
-3.7784 6.5589 -0.5550 0.9701
-4.4262 6.5568 -0.5800 0.9688
-4.7734 6.5556 -0.5946 0.9680
-5.1296 6.5426 -0.6096 0.9672
-7.3387 6.5412 -0.7208 0.9613
-9.1294 6.5353 -0.8232 0.9560
-9.8482 6.5330 -0.8665 0.9537
-10.5329 6.4598 -0.9060 0.9517
7.6952 25.2782 -2.5368 0.8993
6.7746 25.4731 -2.5306 0.8995
2.8808 24.3733 -2.3562 0.9061
2.0130 24.4718 -2.3573 0.9060
1.1392 24.4789 -2.3526 0.9062
0.0709 6.4877 -0.6229 0.9743
-0.6312 6.5692 -0.6336 0.9738
-0.8678 6.5684 -0.6361 0.9737
-2.6239 6.5627 -0.6785 0.9720
-2.8983 6.5618 -0.6887 0.9716
-3.1814 6.5608 -0.7000 0.9711
-3.7784 6.5589 -0.7267 0.9700
-4.0952 6.5578 -0.7423 0.9694
-4.4262 6.5568 -0.7595 0.9687
-4.7734 6.5556 -0.7785 0.9679
-5.1309 6.5442 -0.7984 0.9671
-5.4498 6.4636 -0.8117 0.9666
-5.9300 6.5458 -0.8480 0.9651
-6.8348 6.5429 -0.9084 0.9627
-7.8842 6.5394 -0.9834 0.9597
-8.4783 6.5375 -1.0278 0.9579
-10.5329 6.4598 -1.1862 0.9516
4.4327 19.4239 -2.3666 0.9229
3.7315 19.5301 -2.3619 0.9230
2.3319 19.7295 -2.3599 0.9231
1.6258 19.7645 -2.3557 0.9232
-0.1599 6.4870 -0.7708 0.9742
-0.3960 6.5700 -0.7818 0.9738
-1.3482 6.5669 -0.7963 0.9734
-1.5934 6.5661 -0.8026 0.9732
-2.0971 6.5644 -0.8186 0.9726
-2.3572 6.5636 -0.8284 0.9723
-2.6239 6.5627 -0.8395 0.9719
-3.4743 6.5599 -0.8818 0.9705
-3.7784 6.5589 -0.8991 0.9700
-4.4262 6.5568 -0.9397 0.9686
-5.1321 6.5458 -0.9880 0.9670
-5.4498 6.4636 -1.0043 0.9665
-7.8842 6.5394 -1.2168 0.9596
-8.4783 6.5375 -1.2717 0.9578
-9.8482 6.5330 -1.4038 0.9535
4.8749 16.0138 -2.3718 0.9346
4.2952 16.1502 -2.3679 0.9347
3.7119 16.2655 -2.3639 0.9348
2.5434 16.4696 -2.3612 0.9349
1.3621 16.5590 -2.3542 0.9351
-0.3960 6.5700 -0.9326 0.9738
-0.6311 6.5692 -0.9351 0.9737
-0.8678 6.5684 -0.9388 0.9736
-1.3482 6.5669 -0.9499 0.9733
-1.5934 6.5661 -0.9573 0.9731
-1.8428 6.5652 -0.9662 0.9728
-2.0971 6.5644 -0.9764 0.9725
-2.3572 6.5636 -0.9881 0.9722
-3.1814 6.5609 -1.0331 0.9710
-3.7784 6.5589 -1.0725 0.9699
-4.4262 6.5568 -1.1209 0.9685
-4.7734 6.5556 -1.1490 0.9678
-5.1334 6.5474 -1.1788 0.9669
-5.4498 6.4636 -1.1979 0.9664
-6.8349 6.5429 -1.3406 0.9625
-7.8842 6.5395 -1.4514 0.9595
-8.4783 6.5375 -1.5169 0.9577
-9.1295 6.5354 -1.5908 0.9557
4.1874 13.7553 -2.3687 0.9434
3.6903 13.8757 -2.3653 0.9435
2.1856 14.1527 -2.3591 0.9436
0.0709 6.4877 -1.0688 0.9740
-0.8678 6.5685 -1.0915 0.9735
-1.8428 6.5653 -1.1233 0.9727
-2.0971 6.5644 -1.1352 0.9725
-2.3572 6.5636 -1.1489 0.9721
-2.8983 6.5618 -1.1817 0.9713
-3.4743 6.5599 -1.2229 0.9704
-4.4262 6.5568 -1.3032 0.9684
-4.7734 6.5556 -1.3359 0.9677
-5.1347 6.5491 -1.3709 0.9668
-6.8349 6.5429 -1.5587 0.9624
-7.8843 6.5395 -1.6875 0.9593
-9.1295 6.5354 -1.8496 0.9555
-9.8483 6.5330 -1.9469 0.9532
3.6665 12.0441 -2.3664 0.9500
2.3566 12.3338 -2.3602 0.9502
1.9143 12.3958 -2.3576 0.9502
1.0259 12.4717 -2.3521 0.9503
0.5810 12.4839 -2.3490 0.9504
0.0709 6.4878 -1.2195 0.9739
-0.3961 6.5700 -1.2371 0.9736
-0.6311 6.5692 -1.2404 0.9735
-1.1066 6.5677 -1.2519 0.9733
-1.3483 6.5669 -1.2601 0.9731
-1.8428 6.5653 -1.2817 0.9726
-2.0971 6.5644 -1.2953 0.9723
-2.6239 6.5627 -1.3285 0.9716
-2.8983 6.5618 -1.3483 0.9712
-3.1814 6.5609 -1.3705 0.9708
-4.0952 6.5579 -1.4532 0.9690
-4.4262 6.5568 -1.4869 0.9683
-4.7734 6.5557 -1.5242 0.9675
-5.1360 6.5507 -1.5646 0.9667
-5.9300 6.5459 -1.6602 0.9647
-7.3388 6.5413 -1.8478 0.9608
-7.8843 6.5395 -1.9253 0.9592
2.3529 7.7291 -1.7078 0.9675
2.0941 10.9601 -2.3587 0.9554
1.7013 11.0167 -2.3563 0.9554
0.5165 11.0989 -2.3486 0.9556
-0.1598 6.4870 -1.3716 0.9738
-0.8678 6.5685 -1.4005 0.9733
-1.3482 6.5669 -1.4170 0.9730
-1.5934 6.5661 -1.4282 0.9728
-1.8428 6.5653 -1.4414 0.9725
-2.0971 6.5644 -1.4567 0.9722
-2.6239 6.5627 -1.4940 0.9715
-3.1814 6.5609 -1.5413 0.9706
-3.4743 6.5599 -1.5691 0.9701
-4.0952 6.5579 -1.6343 0.9689
-4.4262 6.5568 -1.6722 0.9682
-4.7734 6.5557 -1.7141 0.9674
-6.3669 6.5445 -1.9300 0.9634
-6.8349 6.5429 -2.0000 0.9621
-7.8843 6.5395 -2.1652 0.9590
1.8825 9.8523 -2.3574 0.9596
1.5295 9.9042 -2.3553 0.9597
1.1752 9.9433 -2.3532 0.9597
0.8200 9.9685 -2.3507 0.9597
0.4645 9.9809 -2.3483 0.9598
0.0709 6.4878 -1.5248 0.9737
-0.1598 6.4870 -1.5250 0.9737
-0.3961 6.5700 -1.5469 0.9733
-0.6311 6.5693 -1.5510 0.9732
-0.8678 6.5685 -1.5571 0.9731
-1.5934 6.5661 -1.5880 0.9726
-1.8428 6.5653 -1.6026 0.9724
-2.0971 6.5644 -1.6196 0.9721
-2.8983 6.5618 -1.6859 0.9710
-3.4743 6.5599 -1.7446 0.9700
-4.0952 6.5579 -1.8171 0.9687
-4.7734 6.5557 -1.9059 0.9672
-5.4499 6.4637 -1.9870 0.9659
-5.9301 6.5459 -2.0758 0.9644
-6.3669 6.5445 -2.1459 0.9632
-6.8349 6.5429 -2.2237 0.9619
-7.2969 6.5038 -2.2973 0.9606
-7.5193 6.2367 -2.2960 0.9607
-7.7322 5.9621 -2.2947 0.9607
-7.9353 5.6805 -2.2936 0.9607
-8.1284 5.3921 -2.2925 0.9607
2.3370 7.6769 -2.0777 0.9674
2.0265 8.8800 -2.3583 0.9631
1.3879 8.9870 -2.3545 0.9631
1.0664 9.0230 -2.3525 0.9632
0.4216 9.0586 -2.3480 0.9632
-0.1598 6.4870 -1.6801 0.9735
-0.3961 6.5700 -1.7042 0.9732
-0.6311 6.5693 -1.7087 0.9731
-1.1066 6.5677 -1.7244 0.9729
-1.5934 6.5661 -1.7494 0.9725
-2.0971 6.5645 -1.7843 0.9719
-2.8983 6.5618 -1.8573 0.9708
-3.1814 6.5609 -1.8879 0.9703
-3.4743 6.5599 -1.9220 0.9698
-4.7734 6.5557 -2.0997 0.9670
-6.4261 6.1515 -2.3033 0.9639
-7.0339 5.4236 -2.2997 0.9640
-7.2190 5.1677 -2.2987 0.9640
2.1417 8.0530 -2.3590 0.9660
1.8526 8.1181 -2.3573 0.9660
1.5616 8.1728 -2.3555 0.9660
1.2690 8.2171 -2.3538 0.9660
0.9751 8.2503 -2.3519 0.9661
0.6805 8.2725 -2.3498 0.9661
0.3855 8.2845 -2.3478 0.9661
0.0709 6.4878 -1.8367 0.9734
-0.3961 6.5700 -1.8633 0.9730
-1.3483 6.5669 -1.8978 0.9725
-2.0971 6.5645 -1.9509 0.9718
-2.8983 6.5618 -2.0307 0.9706
-3.1814 6.5609 -2.0642 0.9701
-4.0952 6.5579 -2.1887 0.9684
-4.4262 6.5568 -2.2395 0.9676
-5.0397 6.4278 -2.3123 0.9666
-5.2621 6.2409 -2.3110 0.9666
-6.0810 5.4201 -2.3061 0.9667
-7.0274 4.6617 -2.3873 0.9655
-7.3788 4.5254 -2.4504 0.9647
1.9705 7.4094 -2.3582 0.9684
1.7045 7.4691 -2.3564 0.9684
1.4368 7.5199 -2.3548 0.9685
1.1677 7.5610 -2.3532 0.9685
0.8973 7.5918 -2.3513 0.9685
0.6262 7.6131 -2.3495 0.9685
0.0709 6.4878 -1.9956 0.9732
-0.1599 6.4870 -1.9959 0.9732
-1.1066 6.5677 -2.0485 0.9725
-1.3483 6.5669 -2.0620 0.9723
-1.5934 6.5661 -2.0782 0.9721
-2.8984 6.5618 -2.2064 0.9704
-3.5337 6.6718 -2.3221 0.9689
-3.7663 6.5378 -2.3207 0.9689
-4.2164 6.2460 -2.3179 0.9690
-5.0485 5.5727 -2.3128 0.9690
-5.4265 5.1946 -2.3106 0.9691
-5.6053 4.9961 -2.3095 0.9691
-5.7769 4.7915 -2.3085 0.9691
-6.0610 4.6735 -2.3541 0.9685
-6.6522 4.4128 -2.4553 0.9671
2.0670 6.7898 -2.3592 0.9705
1.8229 6.8542 -2.3576 0.9705
1.5769 6.9098 -2.3559 0.9706
1.3291 6.9564 -2.3542 0.9706
0.5794 7.0437 -2.3493 0.9706
-0.8678 6.5685 -2.2024 0.9725
-1.1066 6.5677 -2.2139 0.9723
-1.8428 6.5653 -2.2667 0.9717
-2.6006 6.5042 -2.3284 0.9709
-2.8285 6.4036 -2.3270 0.9709
-3.0526 6.2951 -2.3256 0.9709
-3.6993 5.9239 -2.3215 0.9710
-3.9055 5.7854 -2.3203 0.9710
-4.1066 5.6398 -2.3190 0.9710
-4.6770 5.1626 -2.3155 0.9711
-5.0275 4.8127 -2.3135 0.9711
-5.2518 4.6810 -2.3385 0.9708
-6.0168 4.3071 -2.4596 0.9693
1.9208 6.3096 -2.3586 0.9724
1.6941 6.3697 -2.3570 0.9724
1.4655 6.4217 -2.3555 0.9724
1.2353 6.4655 -2.3539 0.9724
0.3052 6.5579 -2.3477 0.9725
-1.5402 6.3469 -2.3356 0.9726
-1.7639 6.2843 -2.3341 0.9727
-2.2035 6.1356 -2.3313 0.9727
-2.6310 5.9564 -2.3286 0.9727
-2.8396 5.8558 -2.3273 0.9727
-3.0443 5.7479 -2.3260 0.9727
-3.2451 5.6330 -2.3247 0.9728
-3.4415 5.5111 -2.3235 0.9728
-4.0030 5.1056 -2.3201 0.9728
-4.1801 4.9577 -2.3190 0.9728
-4.8776 4.6691 -2.4146 0.9717
-5.1462 4.5869 -2.4652 0.9711
-5.3040 4.3993 -2.4643 0.9712
-5.4552 4.2064 -2.4634 0.9712
-5.5995 4.0084 -2.4626 0.9712
1.7919 5.8865 -2.3580 0.9740
1.1527 6.0327 -2.3537 0.9740
0.9368 6.0662 -2.3522 0.9740
0.7200 6.0919 -2.3508 0.9741
0.0670 6.1225 -2.3464 0.9741
-0.1508 6.1173 -2.3450 0.9741
-0.5845 6.0837 -2.3421 0.9742
-0.8000 6.0554 -2.3407 0.9742
-1.4379 5.9252 -2.3365 0.9742
-1.8533 5.8013 -2.3339 0.9742
-2.8428 5.3674 -2.3276 0.9743
-3.0304 5.2603 -2.3264 0.9743
-3.2139 5.1467 -2.3253 0.9743
-3.3934 5.0267 -2.3242 0.9744
-3.9516 4.6866 -2.3492 0.9741
-4.2330 4.6726 -2.4162 0.9734
-4.4937 4.6189 -2.4695 0.9728
-5.3591 3.5550 -2.4645 0.9728
1.4796 5.5635 -2.3562 0.9754
1.2801 5.6094 -2.3548 0.9754
0.6742 5.7039 -2.3507 0.9755
0.4706 5.7210 -2.3494 0.9755
0.2667 5.7308 -2.3480 0.9755
0.0627 5.7333 -2.3466 0.9755
-0.3446 5.7167 -2.3439 0.9756
-0.7493 5.6713 -2.3413 0.9756
-1.1492 5.5974 -2.3387 0.9756
-1.7361 5.4344 -2.3349 0.9756
-1.9273 5.3664 -2.3337 0.9757
-2.8392 4.9285 -2.3279 0.9757
-3.0113 4.8222 -2.3268 0.9757
-3.1796 4.7100 -2.3258 0.9757
-3.8957 4.6204 -2.4735 0.9742
-4.0560 4.4772 -2.4725 0.9742
-4.3608 4.1745 -2.4707 0.9742
-4.5049 4.0153 -2.4699 0.9743
-4.6434 3.8513 -2.4690 0.9743
-4.7759 3.6826 -2.4683 0.9743
-4.9024 3.5094 -2.4675 0.9743
1.5751 5.1739 -2.3570 0.9767
1.3893 5.2239 -2.3558 0.9767
1.0134 5.3036 -2.3532 0.9767
0.6331 5.3564 -2.3507 0.9767
0.0589 5.3846 -2.3468 0.9768
-0.5142 5.3516 -2.3431 0.9768
-0.7038 5.3271 -2.3418 0.9768
-0.8923 5.2959 -2.3406 0.9768
-1.0796 5.2581 -2.3394 0.9769
-1.4491 5.1628 -2.3370 0.9769
-1.6310 5.1054 -2.3358 0.9769
-2.1624 4.8955 -2.3324 0.9769
-2.5026 4.7251 -2.3303 0.9769
-2.9239 4.6821 -2.4057 0.9762
-3.3458 4.5949 -2.4772 0.9755
-3.5057 4.4713 -2.4762 0.9755
-3.6611 4.3421 -2.4752 0.9755
-3.8118 4.2076 -2.4743 0.9755
-4.2340 3.7738 -2.4718 0.9756
-4.3641 3.6197 -2.4710 0.9756
-4.4888 3.4612 -2.4703 0.9756
-4.8282 2.9611 -2.4684 0.9756
1.3079 4.9177 -2.3554 0.9778
0.7754 5.0213 -2.3518 0.9779
0.5961 5.0431 -2.3506 0.9779
0.0554 5.0701 -2.3470 0.9779
-0.1248 5.0663 -2.3458 0.9779
-0.3048 5.0561 -2.3446 0.9779
-0.6628 5.0166 -2.3423 0.9779
-0.8404 4.9874 -2.3411 0.9780
-1.1916 4.9103 -2.3389 0.9780
-1.3648 4.8624 -2.3377 0.9780
-1.5362 4.8086 -2.3366 0.9780
-2.0728 4.6928 -2.3747 0.9776
-2.4769 4.6766 -2.4496 0.9769
-2.8385 4.5454 -2.4806 0.9767
-3.4492 4.0908 -2.4768 0.9767
-3.5912 3.9641 -2.4760 0.9767
-3.7287 3.8326 -2.4751 0.9767
-3.9892 3.5557 -2.4736 0.9767
-4.1119 3.4105 -2.4729 0.9767
-4.2295 3.2612 -2.4722 0.9767
-4.3416 3.1080 -2.4715 0.9767
1.4358 4.7166 -2.4184 0.9783
1.2534 4.7130 -2.3922 0.9785
0.9021 4.7215 -2.3579 0.9788
0.7317 4.7382 -2.3517 0.9789
0.5625 4.7589 -2.3506 0.9789
0.3927 4.7736 -2.3495 0.9789
0.2225 4.7822 -2.3483 0.9789
-0.1179 4.7813 -2.3461 0.9789
-0.4570 4.7563 -2.3438 0.9789
-0.6256 4.7348 -2.3427 0.9789
-1.1403 4.6987 -2.3717 0.9787
-1.4979 4.6888 -2.4145 0.9783
-1.8697 4.6763 -2.4704 0.9778
-2.2101 4.5579 -2.4847 0.9777
-2.5265 4.3857 -2.4827 0.9777
-2.6799 4.2914 -2.4818 0.9777
-2.8297 4.1918 -2.4809 0.9777
-2.9760 4.0871 -2.4800 0.9777
-3.3909 3.7430 -2.4774 0.9777
-3.7669 3.3575 -2.4752 0.9778
-3.8829 3.2205 -2.4745 0.9778
-3.9939 3.0796 -2.4739 0.9778
-4.2962 2.6348 -2.4722 0.9778
1.4083 4.6262 -2.5087 0.9784
1.2423 4.6712 -2.5076 0.9785
0.8963 4.6910 -2.4776 0.9787
0.7247 4.6926 -2.4633 0.9788
0.2185 4.6944 -2.4380 0.9790
0.0513 4.6939 -2.4353 0.9791
-0.1157 4.6929 -2.4353 0.9791
-0.6192 4.6868 -2.4526 0.9789
-0.7892 4.6837 -2.4641 0.9788
-0.9609 4.6801 -2.4786 0.9787
-1.1327 4.6677 -2.4918 0.9786
-1.2975 4.6225 -2.4907 0.9786
-2.0906 4.3113 -2.4857 0.9786
-2.2418 4.2326 -2.4847 0.9786
-2.5351 4.0595 -2.4829 0.9787
-3.0810 3.6540 -2.4795 0.9787
-3.4496 3.3021 -2.4773 0.9787
-3.5638 3.1765 -2.4767 0.9787
-3.6736 3.0470 -2.4760 0.9787
-3.7787 2.9137 -2.4754 0.9787
-3.8790 2.7768 -2.4748 0.9787
0.8584 4.4926 -2.5051 0.9794
0.2122 4.5611 -2.5008 0.9794
-0.1124 4.5607 -2.4987 0.9794
-0.5968 4.5170 -2.4955 0.9794
-0.9156 4.4594 -2.4934 0.9795
-1.0732 4.4222 -2.4924 0.9795
-1.2292 4.3795 -2.4914 0.9795
-1.3837 4.3313 -2.4904 0.9795
-1.6868 4.2187 -2.4884 0.9795
-1.8350 4.1544 -2.4875 0.9795
-2.1242 4.0105 -2.4857 0.9795
-2.4022 3.8467 -2.4839 0.9795
-2.5366 3.7576 -2.4831 0.9795
-2.9197 3.4627 -2.4807 0.9796
-3.0401 3.3557 -2.4800 0.9796
-3.2691 3.1294 -2.4786 0.9796
-3.3774 3.0104 -2.4780 0.9796
-3.7668 2.4988 -2.4758 0.9796
-3.8525 2.3627 -2.4753 0.9796
0.6619 4.2862 -2.5040 0.9802
0.3553 4.3189 -2.5019 0.9802
0.2014 4.3270 -2.5009 0.9802
-0.2603 4.3185 -2.4978 0.9802
-0.7180 4.2611 -2.4948 0.9802
-0.8687 4.2312 -2.4938 0.9802
-1.0182 4.1960 -2.4929 0.9803
-1.1664 4.1555 -2.4919 0.9803
-1.4577 4.0591 -2.4901 0.9803
-2.0158 3.8059 -2.4865 0.9803
-2.1491 3.7306 -2.4857 0.9803
-2.4073 3.5660 -2.4841 0.9803
-2.6531 3.3838 -2.4826 0.9803
-2.8853 3.1849 -2.4812 0.9803
-3.1027 2.9702 -2.4799 0.9804
-3.2056 2.8572 -2.4792 0.9804
-3.3044 2.7408 -2.4787 0.9804
-3.3991 2.6210 -2.4781 0.9804
-3.6567 2.2427 -2.4767 0.9804
