ply
format ascii 1.0
element vertex 596
property float32 x
property float32 y
property float32 z
property float32 I
end_header
-9.5212 25.4755 4.7955 0.8954
-10.6287 25.5786 4.8841 0.8936
-15.4084 22.0097 4.7374 0.8966
-38.2309 13.7531 7.1641 0.8479
-40.8658 13.0528 7.5644 0.8401
-42.4695 10.2512 7.7036 0.8374
-42.6225 8.6706 7.6694 0.8381
-10.3551 24.9200 4.1341 0.8965
-13.8667 25.2445 4.4123 0.8900
-15.1578 25.3756 4.5281 0.8873
-14.8130 21.1592 3.9568 0.9008
-16.0831 21.2915 4.0877 0.8976
-41.2356 20.1126 7.0284 0.8306
-41.8995 18.5927 7.0224 0.8307
-38.0088 13.6732 6.1880 0.8492
-43.6844 12.2315 6.9496 0.8323
-42.4430 10.2448 6.6888 0.8380
-9.0713 24.2716 3.3742 0.9008
-10.1066 24.3221 3.4298 0.8992
-11.1816 24.3820 3.4930 0.8974
-12.3131 24.4734 3.5676 0.8954
-13.4983 24.5739 3.6510 0.8931
-14.2736 22.0440 3.4198 0.8995
-14.8972 21.2795 3.3826 0.9005
-17.0637 20.9682 3.5204 0.8967
-42.3657 18.7995 6.0357 0.8295
-42.5837 17.0817 5.9748 0.8310
-45.8351 16.4886 6.3431 0.8216
-43.9520 14.0386 6.0083 0.8302
-43.7816 12.2587 5.9205 0.8324
-44.3877 10.7142 5.9462 0.8318
-46.1879 9.3959 6.1378 0.8269
-8.8731 23.7412 2.7216 0.9031
-12.0135 23.8780 2.8703 0.8980
-13.1509 23.9415 2.9332 0.8959
-13.8075 23.1151 2.8912 0.8973
-13.7184 21.1866 2.7103 0.9034
-16.0839 21.2925 2.8654 0.8982
-17.3378 21.3050 2.9496 0.8954
-36.8947 27.1608 4.9196 0.8317
-45.9606 16.5338 5.2450 0.8216
-9.8210 23.6347 2.1666 0.9024
-10.8438 23.6453 2.2021 0.9008
-11.9020 23.6563 2.2417 0.8992
-13.0005 23.6676 2.2859 0.8973
-13.8455 21.3829 2.1564 0.9028
-14.8740 21.2463 2.1955 0.9011
-16.0583 21.2586 2.2553 0.8986
-35.9673 28.5392 3.8868 0.8317
-35.8895 26.4208 3.7726 0.8362
-42.2040 24.5083 4.1314 0.8221
-39.3937 -6.3936 3.3784 0.8520
-8.5656 22.9185 1.5172 0.9066
-20.1318 22.9881 1.8949 0.8847
-35.5152 28.1804 2.8114 0.8339
-41.2281 23.9416 2.9564 0.8261
-7.4942 20.0518 0.8441 0.9179
-11.3650 20.6903 0.9308 0.9098
-13.4910 20.8355 0.9787 0.9054
-14.8745 21.2470 1.0227 0.9014
-16.0588 21.2593 1.0506 0.8988
-30.5903 28.1043 1.6380 0.8468
-30.5202 26.0694 1.5827 0.8516
-30.4582 24.1679 1.5331 0.8559
-30.4035 22.3822 1.4887 0.8597
-39.6801 23.0427 1.8093 0.8322
-8.7296 23.3575 0.4212 0.9051
-9.7100 23.3676 0.4274 0.9037
-11.7675 23.3889 0.4423 0.9006
-12.8536 23.4002 0.4510 0.8987
-13.0833 21.9026 0.4310 0.9030
-5.6650 6.4689 0.1452 0.9662
-21.3648 22.6861 0.5264 0.8828
-23.0132 22.7308 0.5464 0.8786
-28.9618 24.7383 0.6434 0.8587
-10.3685 6.5335 0.2070 0.9522
-42.5670 22.7024 0.8149 0.8245
-2.7268 6.5623 -0.0400 0.9720
-3.3006 6.5604 -0.0413 0.9711
-3.6030 6.5594 -0.0421 0.9705
-4.5898 6.5562 -0.0451 0.9685
-6.1637 6.5450 -0.0506 0.9647
-7.6566 6.5401 -0.0567 0.9605
-8.2398 6.5382 -0.0592 0.9588
-9.5824 6.5338 -0.0653 0.9547
-11.2639 6.5411 -0.0733 0.9492
-12.2584 6.5379 -0.0782 0.9459
-18.1112 6.5154 -0.1084 0.9259
-23.2133 6.4997 -0.1357 0.9081
-26.5207 6.4016 -0.1536 0.8966
-2.7268 6.5623 -0.2001 0.9720
-3.0090 6.5614 -0.2033 0.9715
-3.6030 6.5594 -0.2107 0.9705
-3.9175 6.5584 -0.2151 0.9699
-4.5897 6.5562 -0.2253 0.9685
-4.9514 6.5550 -0.2313 0.9677
-5.2604 6.4642 -0.2347 0.9672
-6.1637 6.5450 -0.2532 0.9647
-6.6247 6.5435 -0.2622 0.9634
-7.1204 6.5419 -0.2723 0.9620
-7.6566 6.5401 -0.2835 0.9605
-8.2398 6.5382 -0.2962 0.9588
-8.8784 6.5361 -0.3104 0.9568
-9.5825 6.5338 -0.3266 0.9547
-14.7150 6.5298 -0.4533 0.9376
-16.0503 6.4383 -0.4869 0.9331
-20.3748 6.5079 -0.6023 0.9180
-23.2133 6.4997 -0.6788 0.9080
-31.3774 6.3831 -0.9016 0.8797
-2.7268 6.5623 -0.3604 0.9719
-3.6030 6.5594 -0.3795 0.9705
-3.9175 6.5584 -0.3874 0.9699
-4.5898 6.5562 -0.4059 0.9685
-4.9514 6.5550 -0.4166 0.9676
-6.1637 6.5450 -0.4559 0.9646
-7.6566 6.5401 -0.5107 0.9605
-9.5825 6.5338 -0.5882 0.9546
-13.3964 6.5341 -0.7559 0.9421
-16.0503 6.4383 -0.8770 0.9331
-18.1112 6.5154 -0.9761 0.9258
-20.3748 6.5079 -1.0847 0.9179
-23.2133 6.4997 -1.2225 0.9080
-26.5208 6.4016 -1.3836 0.8965
-38.8435 6.4493 -1.9969 0.8541
-40.7607 5.2614 -2.0843 0.8482
-43.6975 2.4520 -2.2196 0.8392
-43.7683 0.8709 -2.2201 0.8392
-43.7884 -0.7122 -2.2210 0.8391
-43.7575 -2.2959 -2.2222 0.8390
-40.7190 -6.6087 -2.0921 0.8477
-2.4529 6.5632 -0.5137 0.9723
-3.0090 6.5614 -0.5293 0.9715
-3.3006 6.5604 -0.5385 0.9710
-4.5897 6.5562 -0.5868 0.9684
-6.1637 6.5450 -0.6592 0.9646
-7.1204 6.5419 -0.7090 0.9620
-8.8784 6.5361 -0.8084 0.9567
-11.2639 6.5411 -0.9550 0.9491
-14.7151 6.5298 -1.1804 0.9375
-16.0503 6.4384 -1.2680 0.9330
-20.3749 6.5079 -1.5683 0.9178
-23.2134 6.4997 -1.7675 0.9078
-29.0595 4.8248 -2.1599 0.8886
-31.1051 4.0151 -2.2996 0.8818
-31.3636 0.6241 -2.3001 0.8818
-31.3744 -0.5103 -2.3007 0.8817
-31.3475 -1.6448 -2.3016 0.8817
-31.1806 -3.9097 -2.3041 0.8816
-4.2458 6.5573 -0.7500 0.9691
-5.2604 6.4642 -0.8001 0.9671
-5.6650 6.4689 -0.8255 0.9660
-6.1637 6.5450 -0.8631 0.9645
-7.6566 6.5401 -0.9667 0.9603
-8.2398 6.5382 -1.0098 0.9586
-8.8784 6.5361 -1.0584 0.9567
-10.3649 6.5312 -1.1762 0.9520
-12.2584 6.5379 -1.3338 0.9457
-13.3964 6.5341 -1.4309 0.9419
-16.0503 6.4384 -1.6603 0.9329
-18.1113 6.5154 -1.8479 0.9256
-20.3749 6.5079 -2.0534 0.9176
-22.1046 6.1892 -2.2038 0.9119
-22.3060 5.3842 -2.2030 0.9119
-24.3161 2.2486 -2.3444 0.9065
-24.3828 1.3682 -2.3446 0.9065
-24.4266 -0.3973 -2.3454 0.9065
-24.4036 -1.2805 -2.3461 0.9065
-24.3507 -2.1626 -2.3470 0.9064
-24.1551 -3.9204 -2.3493 0.9063
-2.7268 6.5623 -0.8441 0.9718
-3.3006 6.5604 -0.8724 0.9709
-3.6030 6.5594 -0.8890 0.9703
-4.2458 6.5573 -0.9279 0.9690
-4.5898 6.5562 -0.9506 0.9683
-5.2604 6.4642 -0.9900 0.9670
-5.6650 6.4689 -1.0214 0.9660
-7.1205 6.5419 -1.1486 0.9618
-7.6566 6.5401 -1.1961 0.9602
-8.2398 6.5382 -1.2495 0.9585
-9.5825 6.5338 -1.3777 0.9544
-10.3649 6.5312 -1.4552 0.9518
-11.2639 6.5411 -1.5472 0.9489
-13.3964 6.5341 -1.7705 0.9417
-14.7151 6.5298 -1.9123 0.9372
-17.8926 5.7150 -2.2312 0.9271
-18.0810 5.0626 -2.2304 0.9272
-19.7107 3.2726 -2.3734 0.9227
-19.8144 2.5577 -2.3732 0.9227
-19.8934 1.8396 -2.3731 0.9227
-19.9478 1.1193 -2.3732 0.9227
-19.9775 0.3975 -2.3735 0.9227
-19.9824 -0.3250 -2.3739 0.9227
-19.9624 -1.0474 -2.3745 0.9226
-19.8483 -2.4888 -2.3762 0.9226
-19.7541 -3.2061 -2.3772 0.9226
-2.4529 6.5632 -0.9928 0.9721
-3.0090 6.5614 -1.0228 0.9713
-3.9175 6.5584 -1.0824 0.9696
-4.2458 6.5573 -1.1069 0.9689
-4.5898 6.5562 -1.1339 0.9682
-4.9514 6.5550 -1.1640 0.9674
-5.2604 6.4642 -1.1809 0.9669
-6.1637 6.5450 -1.2739 0.9643
-6.6247 6.5435 -1.3193 0.9631
-7.1205 6.5419 -1.3700 0.9617
-7.6566 6.5401 -1.4268 0.9601
-8.2399 6.5382 -1.4904 0.9584
-8.8784 6.5361 -1.5621 0.9564
-9.5825 6.5338 -1.6433 0.9542
-10.3649 6.5312 -1.7358 0.9517
-11.2639 6.5412 -1.8456 0.9487
-12.2584 6.5379 -1.9685 0.9454
-13.3964 6.5341 -2.1119 0.9416
-14.7467 5.9154 -2.2513 0.9378
-16.7512 2.1623 -2.3932 0.9340
-16.8181 1.5553 -2.3931 0.9340
-16.8639 0.9463 -2.3932 0.9340
-16.8888 0.3361 -2.3934 0.9340
-16.8749 -0.8854 -2.3943 0.9340
-16.6959 -2.7098 -2.3966 0.9339
-2.4529 6.5632 -1.1543 0.9720
-3.0090 6.5614 -1.1892 0.9712
-3.6030 6.5594 -1.2329 0.9701
-3.9175 6.5584 -1.2585 0.9695
-4.2458 6.5573 -1.2869 0.9688
-4.9514 6.5550 -1.3533 0.9672
-5.2604 6.4642 -1.3730 0.9668
-5.6650 6.4689 -1.4165 0.9657
-6.1637 6.5450 -1.4811 0.9642
-7.1205 6.5419 -1.5929 0.9616
-7.6566 6.5401 -1.6589 0.9600
-8.2399 6.5382 -1.7328 0.9583
-8.8784 6.5361 -1.8162 0.9563
-10.3649 6.5312 -2.0182 0.9515
-12.3658 6.0314 -2.2665 0.9458
-12.5701 5.5779 -2.2655 0.9458
-12.7584 5.1178 -2.2646 0.9458
-14.0828 3.9431 -2.4092 0.9424
-14.3254 2.9142 -2.4083 0.9425
-14.4197 2.3941 -2.4080 0.9425
-14.4959 1.8712 -2.4079 0.9425
-14.5538 1.3459 -2.4078 0.9425
-14.5934 0.8189 -2.4079 0.9425
-14.6147 0.2908 -2.4081 0.9425
-14.6021 -0.7662 -2.4088 0.9424
-14.5681 -1.2938 -2.4094 0.9424
-14.5159 -1.8201 -2.4101 0.9424
-14.4453 -2.3445 -2.4108 0.9424
-2.7268 6.5623 -1.3357 0.9715
-3.0090 6.5614 -1.3568 0.9710
-3.3006 6.5604 -1.3804 0.9706
-3.9175 6.5584 -1.4359 0.9694
-4.2458 6.5573 -1.4683 0.9687
-4.5898 6.5562 -1.5043 0.9680
-5.2604 6.4642 -1.5665 0.9666
-5.6650 6.4689 -1.6162 0.9656
-6.6247 6.5435 -1.7502 0.9628
-7.1205 6.5419 -1.8175 0.9614
-7.6566 6.5401 -1.8927 0.9598
-8.2399 6.5382 -1.9771 0.9581
-8.8784 6.5361 -2.0722 0.9561
-9.5825 6.5338 -2.1800 0.9539
-10.2618 6.4662 -2.2798 0.9518
-10.4834 6.0878 -2.2786 0.9519
-10.6915 5.7021 -2.2775 0.9519
-10.8859 5.3096 -2.2765 0.9519
-12.1228 4.3610 -2.4216 0.9489
-12.2691 3.9188 -2.4209 0.9489
-12.3999 3.4719 -2.4203 0.9489
-12.5150 3.0208 -2.4199 0.9489
-12.6142 2.5661 -2.4195 0.9490
-12.6974 2.1082 -2.4193 0.9490
-12.8504 0.7211 -2.4192 0.9490
-12.8690 0.2561 -2.4193 0.9490
-12.8713 -0.2093 -2.4196 0.9490
-12.8574 -0.6746 -2.4200 0.9489
-12.8271 -1.1392 -2.4205 0.9489
-2.4529 6.5632 -1.4810 0.9718
-2.7268 6.5623 -1.5021 0.9714
-3.6030 6.5594 -1.5819 0.9699
-4.2458 6.5573 -1.6513 0.9686
-4.9514 6.5550 -1.7365 0.9670
-5.2604 6.4642 -1.7617 0.9665
-5.6650 6.4689 -1.8176 0.9655
-7.6567 6.5401 -2.1285 0.9597
-8.7234 6.4219 -2.2897 0.9567
-8.9451 6.0991 -2.2885 0.9567
-9.5395 5.0877 -2.2853 0.9568
-10.6736 4.2815 -2.4309 0.9541
-11.1692 2.6960 -2.4287 0.9541
-11.2579 2.2902 -2.4284 0.9541
-11.3323 1.8815 -2.4282 0.9541
-11.3923 1.4705 -2.4281 0.9541
-11.4689 0.6436 -2.4281 0.9541
-11.4854 0.2285 -2.4283 0.9541
-11.4057 -1.4302 -2.4298 0.9541
-2.7268 6.5623 -1.6701 0.9712
-3.0090 6.5614 -1.6965 0.9708
-4.5898 6.5562 -1.8809 0.9677
-4.9514 6.5550 -1.9307 0.9668
-6.1638 6.5450 -2.1130 0.9637
-6.6247 6.5435 -2.1884 0.9625
-7.4350 6.3507 -2.2981 0.9606
-8.0664 5.5000 -2.2945 0.9607
-8.2562 5.2025 -2.2935 0.9607
-9.3289 4.5502 -2.4394 0.9582
-9.4843 4.2086 -2.4386 0.9583
-9.6275 3.8619 -2.4379 0.9583
-9.9824 2.7950 -2.4363 0.9583
-10.0754 2.4320 -2.4360 0.9583
-10.1555 2.0659 -2.4357 0.9583
-10.2769 1.3266 -2.4353 0.9583
-10.3180 0.9542 -2.4353 0.9583
-10.3460 0.5805 -2.4354 0.9583
-10.3625 -0.1685 -2.4357 0.9583
-10.3509 -0.5431 -2.4361 0.9583
-10.2883 -1.2901 -2.4369 0.9583
-3.0090 6.5614 -1.8690 0.9706
-3.9175 6.5584 -1.9780 0.9689
-4.2458 6.5573 -2.0226 0.9682
-6.1074 6.4852 -2.3065 0.9639
-6.3343 6.2566 -2.3052 0.9639
-6.5528 6.0202 -2.3040 0.9639
-6.7626 5.7764 -2.3028 0.9639
-7.5109 4.7328 -2.2986 0.9640
-8.3352 4.4454 -2.4459 0.9617
-8.4877 4.1399 -2.4451 0.9617
-8.6293 3.8292 -2.4444 0.9617
-8.9869 2.8705 -2.4427 0.9618
-9.0832 2.5433 -2.4423 0.9618
-9.1680 2.2130 -2.4419 0.9618
-9.3516 1.2071 -2.4414 0.9618
-9.3890 0.8683 -2.4414 0.9618
-9.4145 0.5283 -2.4414 0.9618
-9.4293 -0.1534 -2.4417 0.9618
-9.4187 -0.4942 -2.4420 0.9618
-2.4529 6.5632 -1.9835 0.9713
-3.0090 6.5614 -2.0435 0.9704
-3.6030 6.5595 -2.1186 0.9694
-4.5898 6.5562 -2.2656 0.9673
-4.9271 6.5226 -2.3141 0.9666
-5.1566 6.3365 -2.3127 0.9666
-5.3792 6.1424 -2.3114 0.9666
-5.8028 5.7316 -2.3090 0.9667
-6.1957 5.2922 -2.3067 0.9667
-6.3801 5.0625 -2.3057 0.9667
-6.5562 4.8264 -2.3047 0.9667
-7.4883 4.3485 -2.4514 0.9646
-7.6381 4.0737 -2.4506 0.9647
-7.9080 3.5091 -2.4492 0.9647
-8.1372 2.9273 -2.4481 0.9647
-8.2362 2.6307 -2.4477 0.9647
-8.4024 2.0282 -2.4470 0.9647
-8.4694 1.7229 -2.4467 0.9647
-8.5255 1.4155 -2.4466 0.9647
-8.6051 0.7958 -2.4464 0.9647
-8.6284 0.4842 -2.4465 0.9647
-8.6419 -0.1406 -2.4468 0.9647
-8.6321 -0.4529 -2.4471 0.9647
-8.5794 -1.0758 -2.4478 0.9647
-2.4529 6.5632 -2.1551 0.9711
-3.3007 6.5605 -2.2588 0.9697
-4.0988 6.3302 -2.3195 0.9689
-4.3225 6.1743 -2.3182 0.9690
-4.9575 5.6608 -2.3144 0.9690
-5.5332 5.0835 -2.3111 0.9690
-5.7109 4.8780 -2.3101 0.9691
-5.9052 4.6856 -2.3186 0.9689
-6.3304 4.6603 -2.4178 0.9676
-7.0416 3.7556 -2.4546 0.9672
-7.1708 3.4976 -2.4540 0.9672
-7.2908 3.2353 -2.4534 0.9672
-7.5938 2.4255 -2.4519 0.9672
-7.7471 1.8700 -2.4513 0.9672
-7.8608 1.3051 -2.4509 0.9672
-7.9026 1.0201 -2.4508 0.9672
-7.9342 0.7337 -2.4508 0.9672
-7.9557 0.4464 -2.4508 0.9672
-7.9670 0.1585 -2.4510 0.9672
-7.9680 -0.1296 -2.4511 0.9672
-7.9589 -0.4176 -2.4514 0.9672
-7.9396 -0.7051 -2.4517 0.9672
-2.9183 6.3636 -2.3271 0.9709
-3.7963 5.8630 -2.3218 0.9710
-4.0037 5.7189 -2.3205 0.9710
-4.2056 5.5676 -2.3193 0.9710
-4.5924 5.2440 -2.3171 0.9710
-4.9548 4.8940 -2.3149 0.9711
-5.8022 4.6039 -2.4621 0.9693
-6.2601 3.9446 -2.4595 0.9693
-6.3967 3.7146 -2.4588 0.9693
-6.5250 3.4800 -2.4581 0.9693
-6.6448 3.2410 -2.4575 0.9693
-7.0371 2.2477 -2.4556 0.9693
-7.1129 1.9916 -2.4553 0.9693
-7.1795 1.7330 -2.4550 0.9693
-7.3832 0.1469 -2.4547 0.9694
-7.3842 -0.1201 -2.4549 0.9693
-7.3578 -0.6535 -2.4554 0.9693
-7.2935 -1.1837 -2.4561 0.9693
-2.2824 6.1068 -2.3314 0.9727
-2.5002 6.0168 -2.3300 0.9727
-2.7145 5.9192 -2.3287 0.9727
-2.9251 5.8140 -2.3274 0.9727
-3.7248 5.3206 -2.3226 0.9728
-3.9128 5.1799 -2.3215 0.9728
-4.0956 5.0328 -2.3204 0.9728
-4.2729 4.8792 -2.3193 0.9728
-5.0714 4.6593 -2.4628 0.9712
-5.2429 4.4783 -2.4658 0.9711
-5.6911 3.8804 -2.4633 0.9712
-5.8259 3.6711 -2.4625 0.9712
-5.9532 3.4571 -2.4618 0.9712
-6.3836 2.5607 -2.4596 0.9712
-6.6204 1.8537 -2.4585 0.9712
-6.6824 1.6130 -2.4583 0.9712
-6.8166 0.8799 -2.4579 0.9712
-6.8439 0.6329 -2.4579 0.9712
-6.8650 -0.3602 -2.4584 0.9712
-6.8483 -0.6082 -2.4586 0.9712
-2.5347 5.5269 -2.3301 0.9743
-2.7314 5.4289 -2.3289 0.9743
-3.1134 5.2121 -2.3266 0.9743
-3.2982 5.0937 -2.3255 0.9743
-3.6544 4.8377 -2.3234 0.9744
-4.0980 4.6795 -2.3837 0.9737
-4.3928 4.6645 -2.4554 0.9729
-4.8973 4.1831 -2.4682 0.9728
-5.1834 3.8158 -2.4666 0.9728
-5.3163 3.6249 -2.4658 0.9728
-5.7775 2.8180 -2.4634 0.9728
-5.9638 2.3923 -2.4624 0.9728
-6.0454 2.1748 -2.4620 0.9729
-6.1192 1.9545 -2.4617 0.9729
-6.3941 0.5913 -2.4608 0.9729
-6.4114 0.3598 -2.4608 0.9729
-6.4212 -0.1044 -2.4611 0.9729
-6.4138 -0.3365 -2.4613 0.9729
-6.3981 -0.5682 -2.4615 0.9729
-1.9962 5.3412 -2.3337 0.9757
-2.5589 5.0861 -2.3302 0.9757
-2.7398 4.9879 -2.3291 0.9757
-2.9170 4.8834 -2.3281 0.9757
-3.2844 4.6915 -2.3439 0.9756
-3.5349 4.6796 -2.4003 0.9750
-3.7977 4.6667 -2.4625 0.9743
-3.9822 4.5472 -2.4738 0.9742
-4.2971 4.2444 -2.4720 0.9742
-4.4462 4.0849 -2.4711 0.9742
-4.8578 3.5762 -2.4688 0.9743
-5.2123 3.0268 -2.4669 0.9743
-5.3171 2.8358 -2.4663 0.9743
-5.4150 2.6412 -2.4658 0.9743
-5.5060 2.4432 -2.4653 0.9743
-5.7355 1.8320 -2.4643 0.9743
-5.8518 1.4125 -2.4638 0.9743
-5.9379 0.9859 -2.4635 0.9743
-5.9934 0.5542 -2.4634 0.9743
-6.0096 0.3372 -2.4634 0.9743
-6.0180 0.1198 -2.4635 0.9743
-5.9969 -0.5326 -2.4641 0.9743
-1.8754 5.0180 -2.3347 0.9769
-2.5831 4.7025 -2.3383 0.9769
-3.2614 4.6586 -2.4784 0.9755
-3.7422 4.2732 -2.4755 0.9755
-4.0384 3.9889 -2.4738 0.9755
-4.3134 3.6843 -2.4722 0.9756
-4.4424 3.5249 -2.4715 0.9756
-4.6829 3.1930 -2.4702 0.9756
-4.7941 3.0209 -2.4696 0.9756
-4.8991 2.8450 -2.4690 0.9756
-4.9977 2.6654 -2.4685 0.9756
-5.1753 2.2965 -2.4676 0.9756
-5.3261 1.9160 -2.4668 0.9756
-5.3912 1.7220 -2.4665 0.9756
-5.6337 0.5210 -2.4657 0.9756
-5.6489 0.3170 -2.4658 0.9756
-5.6569 0.1126 -2.4658 0.9756
-5.6575 -0.0920 -2.4660 0.9756
-5.6509 -0.2965 -2.4661 0.9756
-5.6370 -0.5006 -2.4664 0.9756
-5.6158 -0.7042 -2.4666 0.9756
-5.5874 -0.9068 -2.4669 0.9756
-1.7664 4.7264 -2.3356 0.9780
-1.9519 4.6972 -2.3545 0.9778
-2.1507 4.6898 -2.3883 0.9775
-2.3555 4.6817 -2.4259 0.9772
-2.7494 4.6028 -2.4817 0.9766
-3.2278 4.2731 -2.4789 0.9767
-3.3790 4.1521 -2.4780 0.9767
-3.8048 3.7581 -2.4755 0.9767
-4.1856 3.3212 -2.4733 0.9767
-4.3018 3.1669 -2.4726 0.9767
-4.4124 3.0086 -2.4720 0.9767
-4.7960 2.3392 -2.4700 0.9768
-5.0803 1.6227 -2.4686 0.9768
-5.1351 1.4378 -2.4684 0.9768
-5.1833 1.2511 -2.4682 0.9768
-5.2248 1.0629 -2.4680 0.9768
-5.2596 0.8733 -2.4679 0.9768
-5.2876 0.6825 -2.4679 0.9768
-5.3088 0.4909 -2.4678 0.9768
-5.3232 0.2987 -2.4679 0.9768
-5.3306 0.1061 -2.4679 0.9768
-5.3312 -0.0867 -2.4681 0.9768
-5.3118 -0.4718 -2.4684 0.9768
-2.1125 4.6064 -2.4858 0.9777
-2.4378 4.4382 -2.4838 0.9777
-2.9007 4.1435 -2.4810 0.9777
-3.1903 3.9203 -2.4793 0.9777
-3.3289 3.8012 -2.4785 0.9777
-3.4630 3.6772 -2.4777 0.9777
-3.5926 3.5485 -2.4770 0.9778
-3.7175 3.4153 -2.4762 0.9778
-3.8375 3.2778 -2.4756 0.9778
-3.9524 3.1361 -2.4749 0.9778
-4.0621 2.9904 -2.4743 0.9778
-4.1666 2.8410 -2.4737 0.9778
-4.2657 2.6879 -2.4732 0.9778
-4.4470 2.3717 -2.4722 0.9778
-4.6052 2.0436 -2.4714 0.9778
-4.6754 1.8755 -2.4711 0.9778
-4.7396 1.7050 -2.4707 0.9778
-4.7976 1.5324 -2.4705 0.9778
-4.8495 1.3578 -2.4703 0.9778
-4.9671 0.8247 -2.4698 0.9778
-5.0136 0.4636 -2.4698 0.9778
-5.0271 0.2821 -2.4698 0.9778
-5.0341 0.1002 -2.4699 0.9778
-5.0288 -0.2639 -2.4701 0.9778
-4.9721 -0.8070 -2.4708 0.9778
-1.6794 4.4936 -2.4887 0.9786
-1.8401 4.4282 -2.4877 0.9786
-1.9981 4.3571 -2.4867 0.9786
-2.1535 4.2803 -2.4858 0.9786
-2.3060 4.1981 -2.4848 0.9786
-2.7440 3.9196 -2.4822 0.9787
-2.8830 3.8166 -2.4814 0.9787
-3.2762 3.4788 -2.4790 0.9787
-4.0359 2.5431 -2.4747 0.9787
-4.2076 2.2440 -2.4738 0.9787
-4.3573 1.9335 -2.4731 0.9787
-4.4238 1.7745 -2.4727 0.9788
-4.5885 1.2848 -2.4720 0.9788
-4.6316 1.1180 -2.4718 0.9788
-4.6688 0.9498 -2.4717 0.9788
-4.7567 0.2669 -2.4715 0.9788
-4.7633 0.0948 -2.4716 0.9788
-4.7582 -0.2497 -2.4719 0.9788
-4.7464 -0.4215 -2.4720 0.9788
-1.8932 4.1283 -2.4875 0.9795
-2.0405 4.0557 -2.4866 0.9795
-2.1850 3.9779 -2.4858 0.9795
-2.3266 3.8950 -2.4849 0.9795
-2.4650 3.8070 -2.4841 0.9795
-2.7319 3.6166 -2.4825 0.9795
-3.1046 3.2967 -2.4803 0.9796
-3.3330 3.0621 -2.4789 0.9796
-3.4407 2.9389 -2.4783 0.9796
-3.5438 2.8119 -2.4777 0.9796
-3.6423 2.6814 -2.4772 0.9796
-3.7361 2.5474 -2.4767 0.9796
-3.8250 2.4102 -2.4762 0.9796
-3.9089 2.2700 -2.4757 0.9796
-3.9877 2.1268 -2.4753 0.9796
-4.1298 1.8326 -2.4746 0.9796
-4.1928 1.6819 -2.4743 0.9796
-4.2504 1.5290 -2.4740 0.9796
-4.3025 1.3742 -2.4738 0.9796
-4.4963 0.4158 -2.4731 0.9796
-4.5084 0.2530 -2.4731 0.9796
-4.5152 -0.0734 -2.4733 0.9796
-4.5098 -0.2366 -2.4734 0.9796
-4.4816 -0.5620 -2.4738 0.9796
-4.4588 -0.7237 -2.4741 0.9796
-1.7966 3.9175 -2.4883 0.9803
-2.2079 3.6963 -2.4858 0.9803
-2.4677 3.5249 -2.4842 0.9803
-3.1634 2.9063 -2.4801 0.9804
-3.2656 2.7894 -2.4795 0.9804
-3.3635 2.6689 -2.4790 0.9804
-3.7851 2.0187 -2.4767 0.9804
-3.8550 1.8803 -2.4763 0.9804
-3.9200 1.7395 -2.4760 0.9804
-3.9798 1.5964 -2.4757 0.9804
-4.0345 1.4514 -2.4754 0.9804
-4.1281 1.1559 -2.4750 0.9804
-4.2004 0.8545 -2.4748 0.9804
-4.2284 0.7020 -2.4747 0.9804
-4.2509 0.5487 -2.4746 0.9804
-4.2679 0.3947 -2.4746 0.9804
-4.2795 0.2401 -2.4746 0.9804
-4.2854 0.0853 -2.4747 0.9804
-4.2808 -0.2246 -2.4749 0.9804
-4.2702 -0.3792 -2.4751 0.9804
-4.2540 -0.5334 -2.4753 0.9804
