ply
format ascii 1.0
element vertex 627
property float32 x
property float32 y
property float32 z
property float32 I
end_header
2.8805 32.6560 5.7805 0.8753
-0.6073 31.1416 5.4921 0.8812
-1.7810 32.1603 5.6794 0.8774
-2.6183 28.6455 5.0720 0.8897
-3.4927 27.3593 4.8633 0.8940
-5.8474 29.0510 5.2252 0.8866
-15.5292 23.0580 4.9018 0.8932
-41.2905 19.4743 8.0498 0.8307
-37.6052 14.5448 7.1095 0.8489
-38.5075 13.3288 7.1852 0.8475
-0.6501 33.3397 5.1084 0.8738
-1.8597 33.5812 5.1523 0.8728
-2.5231 27.6039 4.2464 0.8939
-5.7132 28.3844 4.4355 0.8894
-5.9084 24.7377 3.8963 0.9022
-6.8453 24.7073 3.9276 0.9015
-7.8225 24.7520 3.9767 0.9003
-8.8274 24.8027 4.0331 0.8989
-9.8712 24.8764 4.1000 0.8974
-10.9587 24.9689 4.1773 0.8955
-15.0433 24.1616 4.3602 0.8912
-15.4706 21.2839 4.0309 0.8990
-43.0705 22.2334 7.4254 0.8219
-37.6765 14.5723 6.1885 0.8492
-38.9182 13.4710 6.3091 0.8465
-3.4860 27.3069 3.5848 0.8949
-4.5744 27.8495 3.6752 0.8924
-8.6304 24.2490 3.3518 0.9014
-11.7815 24.4266 3.5315 0.8964
-12.9296 24.5215 3.6099 0.8942
-14.1343 24.6257 3.6975 0.8918
-14.3544 23.0550 3.5366 0.8962
-16.6776 21.2966 3.5224 0.8966
-41.9437 21.6517 6.1467 0.8266
-41.4862 17.7792 5.8776 0.8335
-42.4977 16.4371 5.9336 0.8321
-46.1280 15.9665 6.3565 0.8213
2.8819 32.6718 3.5220 0.8764
-0.6560 33.6409 3.6131 0.8734
-2.5619 28.0287 3.0223 0.8929
-3.6054 28.2419 3.0573 0.8918
-4.6231 28.1463 3.0629 0.8916
-5.7183 28.4097 3.1119 0.8900
-7.3556 23.2747 2.6211 0.9065
-8.4430 23.7225 2.7039 0.9037
-10.4471 23.8034 2.7914 0.9007
-11.5038 23.8509 2.8435 0.8989
-13.7660 23.9842 2.9695 0.8947
-15.4714 21.2850 2.8256 0.8996
-16.6780 21.2971 2.9047 0.8969
-36.8471 26.2962 4.8610 0.8335
-37.8108 24.9895 4.8668 0.8333
2.8819 32.6712 2.7764 0.8766
-1.7607 31.7933 2.6955 0.8800
-2.9330 32.0887 2.7277 0.8787
-3.6733 28.7740 2.4556 0.8901
-4.6260 28.1640 2.4161 0.8917
-5.8276 28.9527 2.5001 0.8882
-6.1712 25.8376 2.2487 0.8989
-6.5386 23.6001 2.0731 0.9064
-7.4615 23.6096 2.0960 0.9054
-8.4063 23.6193 2.1223 0.9043
-9.3763 23.6293 2.1520 0.9030
-11.4069 23.6502 2.2228 0.9000
-12.4760 23.6612 2.2644 0.8982
-13.6384 21.9051 2.1844 0.9016
-16.6340 21.2409 2.2838 0.8974
-36.0187 29.8175 3.9583 0.8289
-35.9284 27.6351 3.8371 0.8336
-35.8550 25.5882 3.7289 0.8379
-39.8746 24.3477 3.9550 0.8290
2.8818 32.6706 2.0338 0.8768
-1.7632 31.8390 1.9774 0.8800
-4.8762 29.6871 1.8656 0.8864
-7.3651 36.5913 2.3145 0.8611
-6.1750 25.8535 1.6483 0.8990
-9.1296 23.0074 1.5349 0.9056
-12.2583 23.2484 1.6298 0.9000
-16.6518 21.2637 1.6748 0.8974
-20.0663 22.1532 1.8535 0.8871
-35.5254 27.3251 2.7792 0.8356
-35.5460 25.3677 2.7080 0.8394
-36.1417 23.8864 2.6864 0.8406
-39.1702 23.9175 2.8460 0.8320
2.8817 32.6700 1.2932 0.8770
-6.5387 23.6008 0.9657 0.9066
-7.9583 20.0558 0.8508 0.9172
-9.6819 20.0736 0.8788 0.9146
-10.8889 20.6512 0.9206 0.9108
-11.8890 20.7139 0.9417 0.9088
-12.9410 20.7849 0.9654 0.9066
-16.6521 21.2641 1.0650 0.8975
-18.8888 22.4172 1.1559 0.8893
-31.9773 22.8208 1.5491 0.8545
-36.1426 23.8870 1.7083 0.8408
2.8817 32.6694 0.5540 0.8770
-6.1826 25.8854 0.4495 0.8990
-6.5388 23.6011 0.4137 0.9067
-9.2704 23.3623 0.4246 0.9043
-13.0754 22.7808 0.4437 0.9003
-15.4726 21.2867 0.4445 0.9001
-5.1257 6.5455 0.1404 0.9673
-20.5399 22.6760 0.5168 0.8848
-23.4152 22.3952 0.5473 0.8784
-28.9611 25.7779 0.6549 0.8563
-28.9422 22.2615 0.6168 0.8641
-31.9387 22.7933 0.6628 0.8547
-42.3708 23.8317 0.8212 0.8233
-44.0019 22.7141 0.8365 0.8203
-0.1265 6.4869 -0.0365 0.9744
-0.6004 6.5691 -0.0371 0.9740
-1.0787 6.5675 -0.0375 0.9737
-1.5682 6.5658 -0.0380 0.9734
-1.8188 6.5650 -0.0384 0.9731
-2.0745 6.5641 -0.0388 0.9728
-2.3359 6.5632 -0.0392 0.9725
-2.6040 6.5624 -0.0397 0.9722
-2.8797 6.5614 -0.0403 0.9717
-3.7643 6.5585 -0.0426 0.9702
-4.4155 6.5563 -0.0445 0.9689
-4.7646 6.5551 -0.0456 0.9681
-6.3685 6.5437 -0.0514 0.9641
-6.8401 6.5422 -0.0533 0.9628
-7.3480 6.5405 -0.0554 0.9614
-9.8831 6.5320 -0.0667 0.9537
-11.6256 6.5390 -0.0751 0.9480
-16.8525 6.5182 -0.1017 0.9303
-18.8122 6.5116 -0.1121 0.9235
2.8816 32.6682 -0.9234 0.8770
0.1060 6.4876 -0.1827 0.9744
-1.0787 6.5675 -0.1874 0.9737
-1.5682 6.5658 -0.1901 0.9733
-2.3359 6.5633 -0.1962 0.9725
-4.4155 6.5563 -0.2226 0.9689
-4.7646 6.5551 -0.2282 0.9681
-5.1282 6.5486 -0.2342 0.9673
-6.3685 6.5437 -0.2571 0.9641
-6.8401 6.5422 -0.2665 0.9628
-7.3480 6.5405 -0.2770 0.9614
-8.4981 6.5366 -0.3019 0.9580
-9.8831 6.5320 -0.3336 0.9537
-10.5564 6.4459 -0.3483 0.9517
-11.6257 6.5390 -0.3756 0.9480
-15.2299 6.5269 -0.4666 0.9358
-16.8525 6.5182 -0.5088 0.9302
-18.8122 6.5116 -0.5605 0.9234
2.8754 32.5980 -1.6596 0.8772
2.5532 48.9101 -2.4838 0.8219
-1.8188 6.5650 -0.3455 0.9731
-2.0745 6.5641 -0.3491 0.9728
-2.3359 6.5633 -0.3533 0.9725
-3.1642 6.5605 -0.3694 0.9712
-3.4586 6.5595 -0.3761 0.9707
-3.7643 6.5585 -0.3835 0.9702
-4.4155 6.5563 -0.4009 0.9688
-4.7646 6.5551 -0.4110 0.9681
-5.4457 6.4631 -0.4286 0.9667
-5.9286 6.5452 -0.4479 0.9652
-8.4981 6.5366 -0.5437 0.9580
-9.1561 6.5344 -0.5705 0.9559
-9.8832 6.5320 -0.6008 0.9537
-10.5564 6.4459 -0.6273 0.9517
-13.8484 6.5316 -0.7765 0.9405
-15.2299 6.5269 -0.8403 0.9358
-18.8122 6.5117 -1.0096 0.9234
3.9676 31.8833 -2.3558 0.8791
2.8173 31.9399 -2.3510 0.8793
1.6726 32.0409 -2.3525 0.8793
0.1060 6.4877 -0.4757 0.9743
-0.8385 6.5683 -0.4855 0.9738
-1.0787 6.5675 -0.4880 0.9737
-1.3217 6.5667 -0.4911 0.9735
-1.5682 6.5658 -0.4950 0.9733
-1.8188 6.5650 -0.4995 0.9730
-2.6040 6.5624 -0.5177 0.9721
-2.8797 6.5614 -0.5254 0.9717
-4.4155 6.5563 -0.5796 0.9688
-4.7646 6.5551 -0.5942 0.9680
-5.4457 6.4631 -0.6197 0.9667
-5.9286 6.5452 -0.6475 0.9652
-7.8984 6.5386 -0.7518 0.9597
-10.5564 6.4459 -0.9069 0.9516
-11.6257 6.5390 -0.9780 0.9479
-12.6605 6.5355 -1.0447 0.9445
-13.8484 6.5316 -1.1227 0.9404
3.0310 24.3569 -2.3564 0.9061
2.1577 24.4616 -2.3575 0.9060
-0.3638 6.5699 -0.6317 0.9739
-1.5682 6.5658 -0.6481 0.9732
-2.0745 6.5641 -0.6609 0.9727
-2.6040 6.5624 -0.6778 0.9720
-3.7643 6.5585 -0.7260 0.9701
-4.0827 6.5574 -0.7416 0.9694
-4.7646 6.5551 -0.7780 0.9680
-5.1320 6.5534 -0.7991 0.9671
-5.4457 6.4631 -0.8114 0.9666
-5.9286 6.5452 -0.8478 0.9651
-6.8400 6.5422 -0.9087 0.9627
-7.8984 6.5386 -0.9844 0.9596
-9.1561 6.5344 -1.0799 0.9558
-9.8832 6.5320 -1.1373 0.9535
-10.5565 6.4459 -1.1875 0.9515
-11.6257 6.5390 -1.2806 0.9478
-12.6605 6.5356 -1.3679 0.9444
-13.8485 6.5316 -1.4700 0.9403
-15.2299 6.5269 -1.5908 0.9356
1.7433 19.7632 -2.3567 0.9232
-0.3638 6.5699 -0.7816 0.9738
-1.0787 6.5675 -0.7906 0.9735
-1.5682 6.5658 -0.8019 0.9732
-1.8188 6.5650 -0.8092 0.9729
-2.3359 6.5633 -0.8275 0.9723
-2.6040 6.5624 -0.8386 0.9720
-3.1642 6.5605 -0.8652 0.9711
-3.7643 6.5585 -0.8983 0.9700
-4.0827 6.5574 -0.9176 0.9694
-4.4155 6.5563 -0.9389 0.9687
-4.7646 6.5551 -0.9626 0.9679
-5.1323 6.5539 -0.9888 0.9670
-6.8401 6.5422 -1.1243 0.9626
-7.8984 6.5386 -1.2180 0.9595
-9.1561 6.5344 -1.3362 0.9557
-9.8832 6.5320 -1.4072 0.9534
-10.5565 6.4459 -1.4692 0.9514
-11.6258 6.5390 -1.5844 0.9477
-12.6606 6.5356 -1.6924 0.9442
-13.8485 6.5316 -1.8188 0.9402
-15.2299 6.5270 -1.9682 0.9354
-17.7314 6.1375 -2.2289 0.9272
2.0556 16.5186 -2.3586 0.9350
1.4604 16.5567 -2.3550 0.9351
0.1060 6.4877 -0.9193 0.9741
-0.1265 6.4869 -0.9193 0.9741
-0.3638 6.5699 -0.9323 0.9738
-0.6004 6.5691 -0.9346 0.9737
-1.8188 6.5650 -0.9652 0.9729
-2.0745 6.5642 -0.9754 0.9726
-3.7643 6.5585 -1.0714 0.9699
-4.7646 6.5551 -1.1482 0.9678
-5.4457 6.4631 -1.1975 0.9664
-6.8401 6.5422 -1.3411 0.9625
-7.3481 6.5405 -1.3938 0.9610
-7.8984 6.5387 -1.4528 0.9594
-9.8832 6.5320 -1.6785 0.9533
-13.8485 6.5316 -2.1695 0.9400
1.7667 14.1970 -2.3568 0.9437
1.2554 14.2328 -2.3538 0.9437
0.1060 6.4877 -1.0689 0.9740
-0.1265 6.4869 -1.0688 0.9740
-0.3592 6.4861 -1.0701 0.9740
-1.0787 6.5675 -1.0964 0.9734
-1.3217 6.5667 -1.1035 0.9732
-1.5682 6.5659 -1.1121 0.9730
-1.8188 6.5650 -1.1222 0.9728
-2.0745 6.5642 -1.1341 0.9725
-2.8797 6.5615 -1.1804 0.9714
-3.1642 6.5605 -1.1999 0.9709
-3.7643 6.5585 -1.2457 0.9698
-4.7646 6.5551 -1.3350 0.9677
-5.1324 6.5539 -1.3713 0.9668
-5.4457 6.4631 -1.3923 0.9663
-5.9286 6.5453 -1.4548 0.9648
-7.3481 6.5405 -1.6206 0.9609
-7.8984 6.5387 -1.6892 0.9593
-9.1561 6.5344 -1.8531 0.9554
-9.8832 6.5320 -1.9516 0.9531
-10.5565 6.4460 -2.0376 0.9511
-12.4302 5.8626 -2.2641 0.9458
1.5476 12.4362 -2.3555 0.9503
0.1060 6.4877 -1.2196 0.9739
-0.3592 6.4861 -1.2210 0.9739
-0.6004 6.5691 -1.2399 0.9735
-0.8385 6.5683 -1.2446 0.9734
-1.0787 6.5675 -1.2510 0.9733
-1.3217 6.5667 -1.2590 0.9731
-1.5682 6.5659 -1.2688 0.9729
-2.0745 6.5642 -1.2939 0.9724
-2.8797 6.5615 -1.3468 0.9713
-3.1642 6.5605 -1.3690 0.9708
-3.4586 6.5595 -1.3938 0.9703
-3.7643 6.5585 -1.4213 0.9697
-4.0827 6.5574 -1.4519 0.9690
-4.4155 6.5563 -1.4857 0.9683
-5.4457 6.4631 -1.5885 0.9662
-10.7567 5.5527 -2.2753 0.9519
-12.1633 4.2101 -2.4193 0.9490
0.9777 11.0838 -2.3520 0.9555
0.5794 11.0987 -2.3492 0.9556
-0.1265 6.4869 -1.3714 0.9738
-0.3592 6.4861 -1.3731 0.9738
-0.6004 6.5691 -1.3943 0.9734
-0.8385 6.5683 -1.3997 0.9733
-1.3217 6.5667 -1.4159 0.9730
-1.5682 6.5659 -1.4269 0.9728
-1.8188 6.5650 -1.4400 0.9725
-3.4586 6.5595 -1.5675 0.9701
-3.7643 6.5585 -1.5984 0.9696
-4.0827 6.5574 -1.6328 0.9689
-4.4155 6.5563 -1.6709 0.9682
-5.4457 6.4631 -1.7865 0.9660
-6.8401 6.5422 -2.0007 0.9620
-7.3481 6.5405 -2.0794 0.9606
-7.8984 6.5387 -2.1674 0.9589
-8.5835 6.6022 -2.2890 0.9567
-9.2275 5.6344 -2.2854 0.9568
-9.8779 4.6589 -2.3086 0.9563
-10.5650 4.5277 -2.4297 0.9541
0.8791 9.9659 -2.3513 0.9597
0.5210 9.9805 -2.3488 0.9598
-0.3592 6.4861 -1.5267 0.9737
-0.8385 6.5683 -1.5562 0.9732
-1.3217 6.5667 -1.5743 0.9729
-1.5682 6.5659 -1.5865 0.9726
-1.8188 6.5650 -1.6010 0.9724
-2.3359 6.5633 -1.6373 0.9718
-2.6040 6.5624 -1.6593 0.9714
-3.1642 6.5605 -1.7118 0.9705
-3.4586 6.5595 -1.7428 0.9700
-3.7643 6.5585 -1.7772 0.9694
-4.0827 6.5574 -1.8154 0.9688
-4.4155 6.5563 -1.8577 0.9680
-4.7647 6.5552 -1.9046 0.9672
-5.1324 6.5539 -1.9564 0.9664
-5.9286 6.5453 -2.0755 0.9644
-6.8401 6.5422 -2.2245 0.9619
-7.5261 6.2304 -2.2963 0.9606
-7.9445 5.6696 -2.2938 0.9607
-8.4954 4.7783 -2.2908 0.9607
-9.5300 4.0842 -2.4368 0.9583
-9.6674 3.7391 -2.4361 0.9583
-9.7927 3.3896 -2.4355 0.9583
1.1222 9.0182 -2.3530 0.9631
0.7978 9.0440 -2.3508 0.9632
-0.1265 6.4869 -1.6799 0.9735
-0.6004 6.5691 -1.7079 0.9731
-0.8385 6.5683 -1.7144 0.9730
-1.0787 6.5675 -1.7232 0.9729
-1.3217 6.5667 -1.7343 0.9727
-1.5682 6.5659 -1.7478 0.9725
-1.8188 6.5650 -1.7638 0.9722
-2.3359 6.5633 -1.8038 0.9716
-2.8797 6.5615 -1.8553 0.9708
-3.4586 6.5595 -1.9200 0.9698
-4.0827 6.5574 -2.0000 0.9686
-5.1324 6.5539 -2.1553 0.9662
-5.9797 6.6016 -2.3062 0.9639
-6.2087 6.3794 -2.3049 0.9639
-6.8459 5.6673 -2.3011 0.9639
-7.0411 5.4158 -2.3000 0.9640
-7.2272 5.1578 -2.2989 0.9640
-8.7968 3.4024 -2.4421 0.9618
-8.9110 3.0844 -2.4415 0.9618
0.4324 8.2838 -2.3483 0.9661
0.1354 8.2871 -2.3463 0.9661
-0.3592 6.4861 -1.8390 0.9734
-1.3217 6.5667 -1.8962 0.9725
-1.5682 6.5659 -1.9110 0.9723
-1.8189 6.5650 -1.9285 0.9721
-2.3359 6.5633 -1.9722 0.9715
-2.6040 6.5624 -1.9987 0.9711
-2.8797 6.5615 -2.0285 0.9707
-3.4586 6.5595 -2.0993 0.9696
-3.7643 6.5585 -2.1407 0.9691
-4.4155 6.5563 -2.2377 0.9677
-5.4778 6.0475 -2.3099 0.9666
-6.0854 5.4165 -2.3063 0.9667
-6.4515 4.9624 -2.3042 0.9667
-6.6223 4.7261 -2.3032 0.9667
-7.0508 4.6599 -2.3926 0.9655
-7.3883 4.5114 -2.4507 0.9647
-7.5426 4.2424 -2.4498 0.9647
-8.0622 3.1183 -2.4471 0.9647
0.6713 7.6106 -2.3499 0.9685
0.3980 7.6239 -2.3481 0.9686
-0.1265 6.4869 -1.9956 0.9732
-0.8385 6.5683 -2.0366 0.9727
-1.0787 6.5675 -2.0471 0.9725
-1.5682 6.5659 -2.0763 0.9721
-1.8188 6.5650 -2.0953 0.9719
-2.0745 6.5642 -2.1174 0.9716
-2.6040 6.5624 -2.1715 0.9709
-2.8797 6.5615 -2.2040 0.9705
-3.5217 6.6791 -2.3224 0.9689
-3.7563 6.5446 -2.3210 0.9689
-4.8482 5.7539 -2.3143 0.9690
-5.2424 5.3865 -2.3119 0.9690
-5.6092 4.9927 -2.3097 0.9691
-6.5007 4.6393 -2.4565 0.9671
-6.6603 4.4019 -2.4556 0.9671
-6.8114 4.1591 -2.4547 0.9672
-7.0873 3.6585 -2.4532 0.9672
-7.2119 3.4014 -2.4525 0.9672
-7.3272 3.1402 -2.4520 0.9672
0.8735 7.0196 -2.3513 0.9706
0.1153 7.0577 -2.3463 0.9707
-0.1265 6.4869 -2.1567 0.9730
-0.6004 6.5691 -2.1927 0.9726
-1.0787 6.5675 -2.2123 0.9723
-1.5682 6.5659 -2.2439 0.9719
-1.8188 6.5650 -2.2644 0.9717
-2.8138 6.4111 -2.3273 0.9709
-3.2616 6.1857 -2.3245 0.9710
-3.8996 5.7902 -2.3205 0.9710
-4.2996 5.4904 -2.3181 0.9710
-4.6770 5.1634 -2.3158 0.9711
-5.6308 4.6614 -2.4299 0.9697
-5.8678 4.5133 -2.4607 0.9693
-6.0235 4.2987 -2.4598 0.9693
-6.1715 4.0788 -2.4590 0.9693
-6.4437 3.6243 -2.4575 0.9693
-6.5676 3.3903 -2.4568 0.9693
-6.6831 3.1521 -2.4562 0.9693
-6.7902 2.9100 -2.4557 0.9693
0.8119 6.5244 -2.3512 0.9725
0.3423 6.5571 -2.3481 0.9725
-0.5961 6.5216 -2.3419 0.9726
-1.0600 6.4538 -2.3389 0.9726
-1.5175 6.3533 -2.3359 0.9726
-1.9659 6.2207 -2.3330 0.9727
-2.1862 6.1426 -2.3316 0.9727
-2.6172 5.9633 -2.3289 0.9727
-3.0340 5.7542 -2.3263 0.9727
-3.2364 5.6387 -2.3250 0.9728
-3.4345 5.5163 -2.3238 0.9728
-4.1788 4.9595 -2.3192 0.9728
-4.3518 4.8044 -2.3182 0.9728
-4.8811 4.6685 -2.4154 0.9717
-5.3086 4.3947 -2.4645 0.9711
-5.4607 4.2002 -2.4636 0.9712
-6.1126 3.1554 -2.4600 0.9712
-6.2203 2.9337 -2.4594 0.9712
-6.3200 2.7085 -2.4589 0.9712
-6.4118 2.4799 -2.4584 0.9712
-6.4954 2.2483 -2.4580 0.9712
0.7577 6.0882 -2.3511 0.9741
0.3194 6.1192 -2.3482 0.9741
-0.3382 6.1069 -2.3438 0.9741
-0.9895 6.0244 -2.3396 0.9742
-1.2039 5.9815 -2.3382 0.9742
-1.6271 5.8731 -2.3355 0.9742
-1.8355 5.8078 -2.3341 0.9742
-2.0411 5.7351 -2.3328 0.9743
-2.4438 5.5681 -2.3303 0.9743
-2.8332 5.3732 -2.3278 0.9743
-3.2073 5.1514 -2.3255 0.9743
-3.3882 5.0308 -2.3244 0.9744
-3.5645 4.9040 -2.3233 0.9744
-3.9486 4.6863 -2.3484 0.9741
-4.2320 4.6722 -2.4158 0.9734
-4.4948 4.6185 -2.4697 0.9728
-4.6556 4.4528 -2.4688 0.9728
-4.8103 4.2816 -2.4679 0.9728
-4.9589 4.1051 -2.4670 0.9728
-5.6026 3.1512 -2.4633 0.9728
-5.7106 2.9478 -2.4628 0.9728
-5.8112 2.7408 -2.4622 0.9729
-5.9903 2.3169 -2.4613 0.9729
-6.0685 2.1005 -2.4609 0.9729
0.5045 5.7188 -2.3497 0.9755
0.2991 5.7299 -2.3483 0.9755
0.0937 5.7336 -2.3469 0.9755
-0.3167 5.7190 -2.3442 0.9755
-0.5211 5.7007 -2.3429 0.9756
-0.9268 5.6424 -2.3403 0.9756
-1.1277 5.6025 -2.3390 0.9756
-1.5242 5.5014 -2.3364 0.9756
-1.9121 5.3724 -2.3339 0.9757
-2.2894 5.2164 -2.3315 0.9757
-2.4736 5.1285 -2.3304 0.9757
-3.1747 4.7138 -2.3260 0.9757
-3.4056 4.6854 -2.3707 0.9753
-3.6595 4.6731 -2.4292 0.9747
-4.0560 4.4778 -2.4727 0.9742
-4.3629 4.1729 -2.4709 0.9742
-4.7806 3.6771 -2.4684 0.9743
-4.9078 3.5025 -2.4677 0.9743
-5.0288 3.3236 -2.4670 0.9743
-5.1432 3.1405 -2.4664 0.9743
-5.2512 2.9535 -2.4658 0.9743
-5.3524 2.7630 -2.4652 0.9743
-5.4468 2.5689 -2.4648 0.9743
-5.5343 2.3718 -2.4643 0.9743
0.0879 5.3849 -2.3471 0.9768
-0.2974 5.3715 -2.3446 0.9768
-0.4894 5.3545 -2.3433 0.9768
-0.6805 5.3307 -2.3421 0.9768
-0.8706 5.3001 -2.3408 0.9768
-1.4319 5.1682 -2.3372 0.9769
-2.6930 4.6919 -2.3577 0.9767
-2.9152 4.6821 -2.4037 0.9762
-3.5033 4.4736 -2.4764 0.9755
-3.8117 4.2082 -2.4745 0.9755
-4.1004 3.9217 -2.4728 0.9755
-4.2368 3.7711 -2.4720 0.9756
-4.6128 3.2920 -2.4698 0.9756
-4.7266 3.1238 -2.4692 0.9756
-4.8342 2.9518 -2.4686 0.9756
-4.9357 2.7761 -2.4680 0.9756
-5.0310 2.5970 -2.4675 0.9756
-5.1198 2.4147 -2.4670 0.9756
-5.2021 2.2294 -2.4666 0.9756
0.6272 5.0400 -2.3509 0.9779
0.2645 5.0667 -2.3485 0.9779
0.0828 5.0703 -2.3473 0.9779
-0.0988 5.0675 -2.3461 0.9779
-0.2801 5.0581 -2.3449 0.9779
-0.6409 5.0200 -2.3425 0.9779
-0.8199 4.9913 -2.3414 0.9780
-1.1739 4.9150 -2.3391 0.9780
-1.3486 4.8675 -2.3380 0.9780
-1.5213 4.8138 -2.3369 0.9780
-1.8670 4.7050 -2.3431 0.9779
-2.0597 4.6930 -2.3723 0.9777
-2.2598 4.6852 -2.4078 0.9773
-2.4659 4.6767 -2.4473 0.9770
-2.6689 4.6500 -2.4818 0.9766
-2.8326 4.5496 -2.4808 0.9767
-2.9926 4.4434 -2.4798 0.9767
-3.1486 4.3317 -2.4788 0.9767
-3.4481 4.0922 -2.4770 0.9767
-3.8633 3.6950 -2.4745 0.9767
-3.9919 3.5531 -2.4737 0.9767
-4.1154 3.4069 -2.4730 0.9767
-4.2336 3.2564 -2.4723 0.9767
-4.3464 3.1018 -2.4717 0.9767
-4.4536 2.9435 -2.4711 0.9767
-4.5551 2.7814 -2.4705 0.9767
-4.9734 1.9236 -2.4683 0.9768
-5.0384 1.7440 -2.4680 0.9768
0.5918 4.7559 -2.3509 0.9789
0.4209 4.7717 -2.3497 0.9789
0.0782 4.7850 -2.3474 0.9789
-0.0932 4.7824 -2.3463 0.9789
-0.2643 4.7737 -2.3452 0.9789
-0.4350 4.7589 -2.3441 0.9789
-0.6048 4.7380 -2.3430 0.9789
-0.7746 4.7161 -2.3443 0.9789
-0.9469 4.7045 -2.3540 0.9788
-1.1223 4.6989 -2.3698 0.9787
-1.4819 4.6890 -2.4122 0.9783
-2.5197 4.3901 -2.4829 0.9777
-2.6743 4.2953 -2.4820 0.9777
-2.8254 4.1952 -2.4810 0.9777
-2.9727 4.0898 -2.4801 0.9777
-3.1162 3.9793 -2.4793 0.9777
-3.2556 3.8638 -2.4784 0.9777
-3.5216 3.6185 -2.4768 0.9778
-3.6479 3.4890 -2.4761 0.9778
-3.8861 3.2170 -2.4747 0.9778
-3.9978 3.0750 -2.4740 0.9778
-4.3920 2.4703 -2.4718 0.9778
-4.4769 2.3110 -2.4713 0.9778
-4.6293 1.9839 -2.4705 0.9778
-4.6968 1.8166 -2.4702 0.9778
0.5841 4.6935 -2.4536 0.9789
0.4141 4.6941 -2.4447 0.9790
0.2450 4.6942 -2.4386 0.9790
-0.0915 4.6929 -2.4351 0.9791
-0.2598 4.6915 -2.4376 0.9790
-0.4286 4.6895 -2.4429 0.9790
-0.5984 4.6870 -2.4512 0.9789
-0.7693 4.6839 -2.4625 0.9788
-0.9420 4.6802 -2.4767 0.9787
-1.1159 4.6722 -2.4920 0.9786
-1.2820 4.6273 -2.4910 0.9786
-1.9265 4.3895 -2.4869 0.9786
-2.0817 4.3160 -2.4859 0.9786
-2.2341 4.2370 -2.4849 0.9786
-2.5298 4.0632 -2.4831 0.9787
-3.0799 3.6553 -2.4797 0.9787
-3.2079 3.5415 -2.4789 0.9787
-3.3317 3.4233 -2.4782 0.9787
-3.5662 3.1742 -2.4768 0.9787
-3.7824 2.9093 -2.4755 0.9787
-3.8832 2.7713 -2.4750 0.9787
-3.9791 2.6299 -2.4744 0.9787
-4.5022 1.5584 -2.4716 0.9788
0.5644 4.5354 -2.5032 0.9794
0.4014 4.5507 -2.5021 0.9794
-0.0889 4.5616 -2.4989 0.9794
-0.4149 4.5396 -2.4967 0.9794
-0.8984 4.4633 -2.4936 0.9795
-1.3703 4.3359 -2.4906 0.9795
-1.5241 4.2824 -2.4896 0.9795
-1.6759 4.2234 -2.4886 0.9795
-1.8254 4.1591 -2.4877 0.9795
-2.1169 4.0147 -2.4858 0.9795
-2.2585 3.9349 -2.4849 0.9795
-2.3971 3.8502 -2.4841 0.9795
-2.5327 3.7606 -2.4832 0.9795
-2.7936 3.5673 -2.4816 0.9795
-2.9187 3.4639 -2.4809 0.9796
-3.0400 3.3561 -2.4802 0.9796
-3.1573 3.2442 -2.4795 0.9796
-3.3797 3.0082 -2.4781 0.9796
-3.4844 2.8845 -2.4775 0.9796
-3.6803 2.6265 -2.4764 0.9796
-3.7713 2.4925 -2.4759 0.9796
-4.0146 2.0724 -2.4745 0.9796
-4.1514 1.7792 -2.4738 0.9796
-4.2121 1.6291 -2.4735 0.9796
-4.2673 1.4771 -2.4732 0.9796
0.5354 4.3025 -2.5032 0.9802
0.0707 4.3297 -2.5001 0.9802
-0.0844 4.3277 -2.4991 0.9802
-0.2392 4.3201 -2.4980 0.9802
-0.7004 4.2644 -2.4950 0.9802
-0.8524 4.2349 -2.4941 0.9802
-1.1525 4.1598 -2.4921 0.9803
-1.3002 4.1143 -2.4912 0.9803
-1.4462 4.0635 -2.4902 0.9803
-1.5903 4.0076 -2.4893 0.9803
-1.7322 3.9467 -2.4884 0.9803
-2.0088 3.8099 -2.4867 0.9803
-2.1433 3.7342 -2.4858 0.9803
-2.6513 3.3856 -2.4827 0.9803
-2.7700 3.2875 -2.4820 0.9803
-2.8852 3.1853 -2.4813 0.9803
-2.9966 3.0791 -2.4806 0.9804
-3.1042 2.9690 -2.4800 0.9804
-3.2078 2.8552 -2.4794 0.9804
-3.3071 2.7378 -2.4788 0.9804
-3.4024 2.6170 -2.4782 0.9804
-3.5795 2.3658 -2.4772 0.9804
-3.7384 2.1027 -2.4763 0.9804
-3.8106 1.9671 -2.4760 0.9804
-3.8781 1.8291 -2.4756 0.9804
