ply
format ascii 1.0
element vertex 554
property float32 x
property float32 y
property float32 z
property float32 I
end_header
-15.4752 22.5547 4.8231 0.8948
-42.0198 19.0585 8.1357 0.8291
-38.0728 15.6308 7.2570 0.8461
-39.3111 12.9002 7.2953 0.8453
-42.2037 10.5339 7.6700 0.8380
-21.9640 -6.7711 4.0527 0.9109
-22.2203 -7.7423 4.1491 0.9089
-21.2448 -8.2773 4.0203 0.9116
-20.8748 -9.0174 4.0095 0.9118
-14.7883 21.5535 4.0043 0.8996
-15.7696 21.2872 4.0584 0.8983
-42.0993 19.0946 7.0818 0.8294
-37.8988 13.9771 6.1881 0.8492
-43.9438 12.6763 7.0064 0.8310
-42.1775 10.5274 6.6596 0.8387
-43.1482 9.1226 6.7562 0.8366
-38.3523 -7.3882 5.9834 0.8538
-38.9137 -8.9700 6.1177 0.8508
-21.8968 -6.7504 3.5103 0.9114
-21.7780 -7.5882 3.5330 0.9109
-21.3425 -8.3154 3.5089 0.9115
-15.7700 21.2877 3.4499 0.8986
-16.9589 21.2381 3.5392 0.8962
-42.5453 21.1879 6.1893 0.8255
-44.5947 20.2264 6.3766 0.8208
-42.5095 17.4523 5.9840 0.8308
-43.5666 12.5675 5.9046 0.8328
-21.8155 -7.6013 3.0083 0.9110
-21.1769 -9.1479 3.0040 0.9111
-36.9280 27.6824 4.9559 0.8305
-45.8867 16.9231 5.2518 0.8214
-43.9174 12.6687 4.9082 0.8320
-37.3676 -8.6136 4.1178 0.8570
-21.5493 -6.6433 2.4215 0.9133
-21.2510 -8.2797 2.4490 0.9123
-16.9501 21.2271 2.2995 0.8967
-35.9111 26.9201 3.7993 0.8351
-35.8398 24.8906 3.6939 0.8393
-41.2926 24.4464 4.0622 0.8248
-38.8873 -7.4913 3.3524 0.8530
-21.3818 -6.5916 1.8941 0.9141
-14.5984 21.2769 1.6001 0.9018
-15.7454 21.2544 1.6403 0.8994
-20.1701 23.4628 1.9186 0.8834
-20.4672 22.1328 1.8693 0.8862
-35.5340 26.6374 2.7539 0.8370
-45.4664 14.9201 2.9673 0.8255
-38.3901 -8.8493 2.4430 0.8539
-22.1170 -6.8183 1.4352 0.9114
-21.8655 -7.6187 1.4358 0.9114
-20.5349 -8.8706 1.3871 0.9143
-14.5987 21.2772 1.0175 0.9019
-19.0142 22.1182 1.1501 0.8898
-20.9991 22.7079 1.2196 0.8835
-22.2051 22.3314 1.2418 0.8816
-30.5411 26.5578 1.5959 0.8504
-30.4769 24.6207 1.5449 0.8548
-30.4202 22.8039 1.4991 0.8588
-32.7723 22.7603 1.5733 0.8524
-36.6526 23.5336 1.7175 0.8400
-38.8781 23.0169 1.7815 0.8345
-45.4462 14.9135 1.8860 0.8257
-38.9751 -7.5082 1.5651 0.8531
-38.0812 -8.7781 1.5410 0.8552
-21.6772 -7.5531 0.9052 0.9122
-14.5989 21.2775 0.4359 0.9019
-5.1278 6.9219 0.1455 0.9661
-5.1615 6.4640 0.1397 0.9674
-22.5685 22.6968 0.5407 0.8798
-28.9805 27.1062 0.6703 0.8532
-28.9684 25.1902 0.6485 0.8576
-32.8330 22.8024 0.6752 0.8522
-10.3699 6.6583 0.2082 0.9519
-40.0719 23.7237 0.7866 0.8300
-45.4273 14.9072 0.8076 0.8259
-21.3909 -7.4533 0.3826 0.9134
-21.1443 -8.2381 0.3833 0.9132
-5.5556 6.4627 -0.0480 0.9665
-6.0522 6.5448 -0.0502 0.9650
-6.9938 6.5416 -0.0539 0.9624
-7.5206 6.5399 -0.0561 0.9609
-8.0929 6.5380 -0.0586 0.9592
-9.4074 6.5335 -0.0645 0.9552
-10.8858 6.4448 -0.0712 0.9507
-12.0156 6.5377 -0.0770 0.9468
-13.1201 6.5340 -0.0825 0.9431
-17.6663 6.5154 -0.1060 0.9274
-22.5336 6.5002 -0.1320 0.9105
-25.9961 6.4886 -0.1508 0.8984
-30.6000 6.4697 -0.1761 0.8824
-36.6438 6.3700 -0.2094 0.8618
-46.9386 6.4172 -0.2667 0.8274
-21.9403 -7.6447 -0.1308 0.9113
-21.6392 -8.4309 -0.1308 0.9113
-4.4981 6.5560 -0.2239 0.9687
-5.1615 6.4640 -0.2329 0.9674
-5.5556 6.4627 -0.2400 0.9665
-6.0522 6.5448 -0.2510 0.9650
-6.5062 6.5433 -0.2598 0.9637
-6.9939 6.5416 -0.2697 0.9624
-8.0929 6.5380 -0.2929 0.9592
-10.1716 6.5310 -0.3404 0.9528
-10.8858 6.4448 -0.3562 0.9506
-13.1201 6.5340 -0.4127 0.9430
-19.8323 6.5082 -0.5877 0.9199
-22.5336 6.5002 -0.6604 0.9104
-25.9961 6.4886 -0.7545 0.8983
-36.6438 6.3700 -1.0473 0.8617
-4.4981 6.5560 -0.4032 0.9687
-4.8558 6.5548 -0.4137 0.9679
-5.1615 6.4640 -0.4195 0.9674
-5.5556 6.4627 -0.4322 0.9664
-6.5062 6.5433 -0.4680 0.9637
-7.5206 6.5399 -0.5054 0.9609
-8.0930 6.5380 -0.5276 0.9592
-8.7186 6.5359 -0.5526 0.9573
-10.1716 6.5310 -0.6130 0.9527
-10.8858 6.4448 -0.6416 0.9506
-13.1200 6.5340 -0.7433 0.9430
-40.7365 5.5693 -2.0851 0.8482
-43.5607 4.3544 -2.2202 0.8392
-43.6923 2.7733 -2.2203 0.8392
-40.7664 -6.3310 -2.0922 0.8477
-40.5542 -7.8124 -2.0945 0.8475
-40.2939 -9.2881 -2.0971 0.8474
-42.1997 -13.0094 -2.2395 0.8379
-5.1615 6.4640 -0.6065 0.9674
-6.5062 6.5433 -0.6766 0.9637
-6.9939 6.5416 -0.7022 0.9623
-7.5206 6.5399 -0.7308 0.9608
-8.0929 6.5379 -0.7628 0.9591
-9.4075 6.5335 -0.8398 0.9551
-10.1716 6.5310 -0.8863 0.9527
-17.6663 6.5154 -1.3806 0.9273
-19.8323 6.5082 -1.5304 0.9197
-25.9961 6.4886 -1.9646 0.8981
-29.0313 5.0466 -2.1606 0.8885
-31.0832 4.2495 -2.3003 0.8818
-31.3085 1.9872 -2.3002 0.8818
-31.2096 -3.6944 -2.3043 0.8816
-31.0761 -4.8261 -2.3059 0.8815
-30.6601 -5.9064 -2.2894 0.8823
-28.5946 -7.6924 -2.1712 0.8880
-29.8432 -10.3984 -2.3172 0.8810
-29.4846 -11.4877 -2.3202 0.8808
-29.0890 -12.5658 -2.3234 0.8807
-4.4981 6.5560 -0.7633 0.9686
-4.8558 6.5548 -0.7831 0.9678
-5.1615 6.4640 -0.7941 0.9673
-5.5556 6.4627 -0.8182 0.9663
-7.5206 6.5399 -0.9568 0.9607
-9.4075 6.5335 -1.0996 0.9550
-10.8858 6.4448 -1.2145 0.9504
-17.6663 6.5154 -1.8077 0.9271
-19.8323 6.5082 -2.0039 0.9195
-22.2701 5.5586 -2.2036 0.9119
-22.4502 4.7466 -2.2030 0.9119
-24.3765 1.5472 -2.3450 0.9065
-24.0450 -4.6320 -2.3509 0.9063
-23.8777 -5.5040 -2.3525 0.9062
-22.2383 -5.9825 -2.2109 0.9116
-4.4981 6.5560 -0.9444 0.9685
-5.1615 6.4640 -0.9826 0.9672
-6.0522 6.5448 -1.0589 0.9647
-7.5206 6.5399 -1.1839 0.9606
-8.0929 6.5379 -1.2358 0.9590
-8.7186 6.5358 -1.2943 0.9571
-10.8858 6.4448 -1.5027 0.9503
-15.6820 6.4383 -2.0137 0.9340
-17.6356 6.5041 -2.2328 0.9271
-17.8518 5.8582 -2.2318 0.9271
-18.4977 4.6170 -2.2647 0.9261
-19.6894 3.4227 -2.3739 0.9227
-19.9420 1.2658 -2.3736 0.9227
-19.9712 -0.9061 -2.3747 0.9226
-19.9311 -1.6296 -2.3754 0.9226
-19.8661 -2.3516 -2.3763 0.9226
-17.5812 -6.8499 -2.2413 0.9268
-4.8558 6.5548 -1.1558 0.9676
-5.1615 6.4640 -1.1720 0.9671
-6.0522 6.5448 -1.2630 0.9646
-6.9939 6.5416 -1.3569 0.9621
-7.5206 6.5399 -1.4121 0.9605
-8.7186 6.5358 -1.5439 0.9569
-9.4074 6.5335 -1.6229 0.9548
-10.8858 6.4448 -1.7924 0.9502
-13.1200 6.5339 -2.0767 0.9425
-14.9050 5.4970 -2.2509 0.9378
-15.0887 4.9515 -2.2501 0.9379
-16.3974 4.0928 -2.3946 0.9340
-16.5315 3.4952 -2.3941 0.9340
-16.6448 2.8934 -2.3938 0.9340
-16.8955 -0.1537 -2.3940 0.9340
-16.8821 -0.7660 -2.3945 0.9340
-16.7916 -1.9877 -2.3958 0.9340
-16.6165 -3.2010 -2.3977 0.9339
-16.4974 -3.8028 -2.3988 0.9339
-16.1965 -4.9931 -2.4015 0.9338
-16.0152 -5.5802 -2.4030 0.9338
-15.0184 -5.8514 -2.2838 0.9370
-14.6416 -6.3248 -2.2598 0.9376
-4.8558 6.5548 -1.3438 0.9675
-5.1615 6.4640 -1.3627 0.9670
-5.5556 6.4627 -1.4040 0.9660
-6.0522 6.5448 -1.4685 0.9645
-6.9939 6.5416 -1.5776 0.9619
-8.0929 6.5379 -1.7139 0.9587
-8.7186 6.5358 -1.7951 0.9568
-9.4075 6.5335 -1.8869 0.9546
-10.1716 6.5310 -1.9913 0.9522
-12.0947 6.5806 -2.2683 0.9457
-12.8955 4.7559 -2.2643 0.9458
-14.0541 4.0541 -2.4097 0.9424
-14.4834 1.9801 -2.4082 0.9425
-14.5453 1.4540 -2.4081 0.9425
-14.5887 0.9260 -2.4082 0.9425
-14.6136 0.3968 -2.4083 0.9425
-14.6081 -0.6628 -2.4090 0.9424
-14.5776 -1.1919 -2.4095 0.9424
-14.4614 -2.2458 -2.4109 0.9424
-14.1496 -3.8065 -2.4139 0.9423
-13.8513 -4.8263 -2.4164 0.9423
-4.4981 6.5560 -1.4944 0.9682
-6.5062 6.5433 -1.7344 0.9631
-6.9939 6.5416 -1.8000 0.9618
-8.7186 6.5358 -2.0481 0.9566
-10.2091 6.5550 -2.2804 0.9518
-10.8441 5.4005 -2.2770 0.9519
-12.0898 4.4588 -2.4220 0.9489
-12.6827 2.2047 -2.4196 0.9490
-12.7534 1.7436 -2.4194 0.9490
-12.8078 1.2803 -2.4194 0.9490
-12.8679 0.3494 -2.4196 0.9490
-12.8734 -0.1171 -2.4198 0.9490
-12.8354 -1.0495 -2.4206 0.9489
-12.7920 -1.5142 -2.4212 0.9489
-12.6562 -2.4381 -2.4226 0.9489
-12.5641 -2.8961 -2.4235 0.9489
-12.3317 -3.8017 -2.4255 0.9488
-12.0361 -4.6895 -2.4280 0.9488
-4.8558 6.5548 -1.7243 0.9672
-6.0522 6.5448 -1.8843 0.9642
-6.5062 6.5433 -1.9505 0.9630
-8.6696 6.4990 -2.2903 0.9567
-8.8946 6.1773 -2.2891 0.9567
-9.1079 5.8479 -2.2879 0.9567
-9.3094 5.5114 -2.2868 0.9567
-9.4988 5.1682 -2.2858 0.9568
-10.7887 3.9789 -2.4307 0.9541
-11.0433 3.1856 -2.4295 0.9541
-11.3821 1.5561 -2.4283 0.9541
-11.4843 0.3118 -2.4285 0.9541
-11.4891 -0.1045 -2.4287 0.9541
-11.4793 -0.5208 -2.4290 0.9541
-11.4157 -1.3513 -2.4299 0.9541
-11.3620 -1.7645 -2.4305 0.9541
-11.2938 -2.1757 -2.4312 0.9541
-11.2112 -2.5843 -2.4320 0.9541
-11.0029 -3.3920 -2.4338 0.9540
-10.8774 -3.7901 -2.4349 0.9540
-10.7380 -4.1837 -2.4360 0.9540
-4.4981 6.5560 -1.8686 0.9679
-6.0522 6.5448 -2.0950 0.9640
-6.5062 6.5433 -2.1686 0.9628
-7.1469 6.6847 -2.2999 0.9606
-7.8174 5.8602 -2.2962 0.9607
-8.0206 5.5703 -2.2951 0.9607
-8.3955 4.9704 -2.2930 0.9607
-9.7314 3.5890 -2.4377 0.9583
-9.9615 2.8736 -2.4367 0.9583
-10.3115 1.0307 -2.4355 0.9583
-10.3423 0.6565 -2.4356 0.9583
-10.3598 0.2813 -2.4357 0.9583
-10.3550 -0.4698 -2.4362 0.9583
-10.3327 -0.8448 -2.4365 0.9583
-10.2486 -1.5916 -2.4375 0.9583
-10.1120 -2.3309 -2.4389 0.9583
-10.0241 -2.6967 -2.4397 0.9582
-9.9233 -3.0592 -2.4405 0.9582
-9.8098 -3.4181 -2.4415 0.9582
-9.6836 -3.7729 -2.4425 0.9582
-4.8558 6.5548 -2.1121 0.9669
-5.1615 6.4640 -2.1417 0.9664
-6.0497 6.5421 -2.3071 0.9639
-6.5003 6.0799 -2.3045 0.9639
-7.2962 5.0672 -2.3000 0.9640
-7.8709 4.6598 -2.3683 0.9629
-8.2993 4.5156 -2.4463 0.9617
-8.7324 3.5851 -2.4441 0.9617
-8.8544 3.2655 -2.4435 0.9618
-8.9651 2.9420 -2.4430 0.9618
-9.0641 2.6147 -2.4426 0.9618
-9.1516 2.2842 -2.4422 0.9618
-9.2273 1.9509 -2.4419 0.9618
-9.2912 1.6151 -2.4417 0.9618
-9.3431 1.2773 -2.4416 0.9618
-9.4306 -0.0858 -2.4419 0.9618
-9.4223 -0.4275 -2.4421 0.9618
-9.4020 -0.7687 -2.4425 0.9618
-9.3696 -1.1091 -2.4429 0.9618
-9.0281 -2.7832 -2.4461 0.9617
-8.9245 -3.1096 -2.4470 0.9617
-8.6827 -3.7507 -2.4489 0.9617
-4.4981 6.5560 -2.2508 0.9675
-4.8671 6.5700 -2.3147 0.9666
-5.0989 6.3855 -2.3133 0.9666
-5.3239 6.1930 -2.3120 0.9666
-6.1499 5.3479 -2.3072 0.9667
-6.7320 4.6753 -2.3203 0.9665
-7.4526 4.4122 -2.4518 0.9646
-7.6051 4.1379 -2.4510 0.9646
-7.7477 3.8584 -2.4503 0.9647
-7.8802 3.5742 -2.4496 0.9647
-8.0026 3.2855 -2.4490 0.9647
-8.1146 2.9927 -2.4484 0.9647
-8.3071 2.3963 -2.4476 0.9647
-8.3873 2.0935 -2.4472 0.9647
-8.4568 1.7880 -2.4470 0.9647
-8.5629 1.1707 -2.4467 0.9647
-8.6431 -0.0786 -2.4469 0.9647
-8.6354 -0.3918 -2.4472 0.9647
-8.6167 -0.7045 -2.4475 0.9647
-8.5868 -1.0165 -2.4479 0.9647
-8.5460 -1.3272 -2.4483 0.9647
-8.1778 -2.8494 -2.4516 0.9646
-4.4850 6.0542 -2.3174 0.9690
-4.6988 5.8845 -2.3162 0.9690
-5.1074 5.5230 -2.3138 0.9690
-5.3015 5.3317 -2.3127 0.9690
-5.4887 5.1337 -2.3116 0.9690
-5.8410 4.7186 -2.3096 0.9691
-7.1428 3.5572 -2.4543 0.9672
-7.2651 3.2952 -2.4537 0.9672
-7.4814 2.7592 -2.4526 0.9672
-7.8513 1.3648 -2.4511 0.9672
-7.8952 1.0794 -2.4510 0.9672
-7.9526 0.5048 -2.4510 0.9672
-7.9660 0.2163 -2.4511 0.9672
-7.9446 -0.6496 -2.4518 0.9672
-7.9170 -0.9372 -2.4521 0.9672
-7.8792 -1.2236 -2.4525 0.9672
-7.6269 -2.3512 -2.4548 0.9672
-7.5390 -2.6268 -2.4556 0.9671
-7.4412 -2.8992 -2.4564 0.9671
-4.1543 5.6078 -2.3198 0.9710
-4.3526 5.4508 -2.3187 0.9710
-4.7313 5.1164 -2.3164 0.9711
-4.9114 4.9394 -2.3154 0.9711
-5.9253 4.4418 -2.4616 0.9693
-6.0802 4.2228 -2.4607 0.9693
-6.2272 3.9984 -2.4599 0.9693
-6.4966 3.5348 -2.4585 0.9693
-6.6187 3.2962 -2.4578 0.9693
-6.8370 2.8070 -2.4567 0.9693
-6.9329 2.5569 -2.4563 0.9693
-7.0199 2.3036 -2.4559 0.9693
-7.0978 2.0475 -2.4555 0.9693
-7.1664 1.7887 -2.4553 0.9693
-7.2259 1.5277 -2.4550 0.9693
-7.3168 1.0003 -2.4548 0.9694
-7.3700 0.4678 -2.4548 0.9694
-7.2570 -1.3980 -2.4566 0.9693
-7.1398 -1.9207 -2.4577 0.9693
-6.7952 -2.9354 -2.4605 0.9693
-3.8650 5.2173 -2.3219 0.9728
-4.0496 5.0715 -2.3208 0.9728
-4.4023 4.7606 -2.3188 0.9728
-4.9856 4.6632 -2.4412 0.9714
-5.2040 4.5253 -2.4662 0.9711
-5.6584 3.9298 -2.4636 0.9712
-5.7953 3.7210 -2.4629 0.9712
-5.9246 3.5076 -2.4622 0.9712
-6.0463 3.2897 -2.4615 0.9712
-6.3633 2.6125 -2.4599 0.9712
-6.6702 1.6649 -2.4585 0.9712
-6.7723 1.1773 -2.4582 0.9712
-6.8394 0.6837 -2.4580 0.9712
-6.8598 0.4354 -2.4580 0.9712
-6.8713 0.1866 -2.4581 0.9712
-6.8739 -0.0625 -2.4583 0.9712
-6.7040 -1.5453 -2.4603 0.9712
-6.6450 -1.7876 -2.4608 0.9712
-6.5774 -2.0277 -2.4614 0.9712
-6.4167 -2.5001 -2.4627 0.9712
-6.3238 -2.7317 -2.4634 0.9712
-3.6096 4.8725 -2.3238 0.9744
-3.7821 4.7364 -2.3228 0.9744
-4.5453 4.5712 -2.4704 0.9728
-4.8608 4.2269 -2.4686 0.9728
-5.0091 4.0466 -2.4677 0.9728
-5.1508 3.8612 -2.4669 0.9728
-5.8536 2.6550 -2.4631 0.9728
-6.0284 2.2233 -2.4623 0.9729
-6.1041 2.0031 -2.4619 0.9729
-6.2317 1.5554 -2.4614 0.9729
-6.2835 1.3285 -2.4612 0.9729
-6.3272 1.0999 -2.4611 0.9729
-6.3627 0.8699 -2.4610 0.9729
-6.3899 0.6387 -2.4609 0.9729
-6.4221 -0.0584 -2.4612 0.9729
-6.4162 -0.2911 -2.4613 0.9729
-6.4020 -0.5235 -2.4616 0.9729
-6.3100 -1.2156 -2.4626 0.9728
-6.1445 -1.8943 -2.4641 0.9728
-5.9942 -2.3354 -2.4653 0.9728
-5.9073 -2.5518 -2.4660 0.9728
-3.4687 4.6824 -2.3850 0.9751
-3.7288 4.6697 -2.4457 0.9745
-4.1029 4.4368 -2.4733 0.9742
-4.5553 3.9612 -2.4707 0.9742
-4.8272 3.6186 -2.4691 0.9743
-4.9537 3.4404 -2.4684 0.9743
-5.1872 3.0710 -2.4672 0.9743
-5.2938 2.8804 -2.4666 0.9743
-5.4863 2.4884 -2.4656 0.9743
-5.5720 2.2876 -2.4652 0.9743
-5.7213 1.8775 -2.4645 0.9743
-5.7850 1.6688 -2.4642 0.9743
-5.8411 1.4579 -2.4640 0.9743
-5.8896 1.2452 -2.4638 0.9743
-5.9305 1.0309 -2.4636 0.9743
-5.9638 0.8153 -2.4636 0.9743
-6.0172 0.1634 -2.4636 0.9743
-6.0007 -0.4906 -2.4641 0.9743
-5.9796 -0.7078 -2.4644 0.9743
-5.9508 -0.9241 -2.4647 0.9743
-5.8701 -1.3531 -2.4655 0.9743
-5.8183 -1.5652 -2.4660 0.9743
-5.7590 -1.7754 -2.4665 0.9743
-5.5363 -2.3916 -2.4683 0.9743
-3.2033 4.6687 -2.4676 0.9756
-3.3843 4.5685 -2.4778 0.9755
-3.5463 4.4411 -2.4769 0.9755
-4.1448 3.8767 -2.4734 0.9755
-4.4119 3.5642 -2.4718 0.9756
-5.2374 2.1502 -2.4674 0.9756
-5.3110 1.9587 -2.4671 0.9756
-5.3779 1.7648 -2.4667 0.9756
-5.4377 1.5686 -2.4665 0.9756
-5.4904 1.3704 -2.4663 0.9756
-5.5361 1.1705 -2.4661 0.9756
-5.5746 0.9691 -2.4660 0.9756
-5.6059 0.7664 -2.4659 0.9756
-5.6299 0.5628 -2.4659 0.9756
-5.6582 -0.0515 -2.4661 0.9756
-5.6530 -0.2565 -2.4662 0.9756
-5.6404 -0.4612 -2.4664 0.9756
-5.6206 -0.6653 -2.4667 0.9756
-5.5935 -0.8687 -2.4670 0.9756
-5.5591 -1.0709 -2.4673 0.9756
-5.4688 -1.4712 -2.4681 0.9756
-5.2802 -2.0573 -2.4697 0.9756
-5.2035 -2.2478 -2.4703 0.9756
-3.3409 4.1839 -2.4783 0.9767
-3.4890 4.0587 -2.4775 0.9767
-3.6326 3.9282 -2.4766 0.9767
-3.9050 3.6525 -2.4750 0.9767
-4.0336 3.5076 -2.4743 0.9767
-4.1569 3.3582 -2.4736 0.9767
-4.2747 3.2045 -2.4729 0.9767
-4.3869 3.0467 -2.4723 0.9767
-4.4934 2.8851 -2.4717 0.9767
-4.5939 2.7198 -2.4712 0.9767
-4.8592 2.2040 -2.4698 0.9768
-4.9351 2.0261 -2.4694 0.9768
-5.0046 1.8457 -2.4691 0.9768
-5.0676 1.6630 -2.4688 0.9768
-5.2826 0.7222 -2.4680 0.9768
-5.3210 0.3377 -2.4680 0.9768
-5.3319 -0.0485 -2.4681 0.9768
-5.3269 -0.2417 -2.4683 0.9768
-5.2707 -0.8185 -2.4690 0.9768
-5.2383 -1.0091 -2.4693 0.9768
-5.0411 -1.7565 -2.4711 0.9767
-4.9752 -1.9384 -2.4716 0.9767
-3.6873 3.4488 -2.4766 0.9778
-3.8087 3.3120 -2.4759 0.9778
-4.0365 3.0259 -2.4746 0.9778
-4.1425 2.8770 -2.4740 0.9778
-4.6605 1.9134 -2.4713 0.9778
-4.7857 1.5705 -2.4707 0.9778
-4.8389 1.3959 -2.4704 0.9778
-5.0251 0.3190 -2.4699 0.9778
-5.0353 -0.0458 -2.4701 0.9778
-5.0306 -0.2282 -2.4702 0.9778
-5.0017 -0.5921 -2.4706 0.9778
-4.9468 -0.9530 -2.4712 0.9778
-4.8663 -1.3091 -2.4719 0.9778
-4.8165 -1.4848 -2.4723 0.9778
-4.6298 -2.0000 -2.4738 0.9778
-3.2448 3.5089 -2.4794 0.9787
-3.4884 3.2628 -2.4780 0.9787
-3.8189 2.8628 -2.4761 0.9787
-4.2681 2.1256 -2.4736 0.9787
-4.3417 1.9692 -2.4733 0.9787
-4.4096 1.8104 -2.4729 0.9787
-4.5282 1.4859 -2.4724 0.9788
-4.5786 1.3208 -2.4721 0.9788
-4.6231 1.1539 -2.4720 0.9788
-4.7547 0.3018 -2.4716 0.9788
-4.7627 0.1293 -2.4717 0.9788
-4.7494 -0.3883 -2.4721 0.9788
-4.7326 -0.5602 -2.4723 0.9788
-4.7096 -0.7314 -2.4726 0.9788
-4.6805 -0.9017 -2.4729 0.9787
-4.5040 -1.5694 -2.4744 0.9787
-4.3803 -1.8922 -2.4754 0.9787
-2.5654 3.7391 -2.4836 0.9795
-2.8277 3.5412 -2.4820 0.9795
-2.9532 3.4354 -2.4813 0.9796
-3.0749 3.3252 -2.4806 0.9796
-3.1925 3.2107 -2.4799 0.9796
-3.3059 3.0921 -2.4792 0.9796
-3.5194 2.8432 -2.4780 0.9796
-3.6193 2.7132 -2.4774 0.9796
-3.8047 2.4429 -2.4764 0.9796
-3.8900 2.3030 -2.4760 0.9796
-4.0452 2.0146 -2.4751 0.9796
-4.1150 1.8664 -2.4748 0.9796
-4.3818 1.0937 -2.4735 0.9796
-4.4183 0.9341 -2.4734 0.9796
-4.4740 0.6117 -2.4733 0.9796
-4.5066 0.2860 -2.4732 0.9796
-4.5115 -0.2047 -2.4735 0.9796
-4.5014 -0.3681 -2.4737 0.9796
-4.4362 -0.8546 -2.4744 0.9796
-4.3638 -1.1739 -2.4750 0.9796
-4.2128 -1.6414 -2.4763 0.9796
-2.4346 3.5484 -2.4845 0.9803
-2.5608 3.4568 -2.4838 0.9803
-2.6836 3.3608 -2.4831 0.9803
-2.8028 3.2604 -2.4824 0.9803
-2.9183 3.1558 -2.4817 0.9803
-3.0300 3.0472 -2.4810 0.9803
-3.1376 2.9347 -2.4804 0.9804
-3.2411 2.8184 -2.4798 0.9804
-3.3403 2.6985 -2.4792 0.9804
-3.6112 2.3187 -2.4777 0.9804
-3.8396 1.9122 -2.4765 0.9804
-3.9670 1.6287 -2.4759 0.9804
-4.0230 1.4837 -2.4756 0.9804
-4.0737 1.3368 -2.4754 0.9804
-4.1191 1.1882 -2.4752 0.9804
-4.1592 1.0381 -2.4750 0.9804
-4.1939 0.8867 -2.4749 0.9804
-4.2231 0.7341 -2.4748 0.9804
-4.2777 0.2715 -2.4747 0.9804
-4.2864 -0.0390 -2.4749 0.9804
-4.2576 -0.5040 -2.4753 0.9804
-4.2370 -0.6580 -2.4755 0.9804
-4.2108 -0.8112 -2.4758 0.9804
-4.1791 -0.9633 -2.4761 0.9804
-4.1420 -1.1143 -2.4764 0.9804
-3.9402 -1.7021 -2.4781 0.9804
