ply
format ascii 1.0
element vertex 544
property float32 x
property float32 y
property float32 z
property float32 I
end_header
43.7496 -20.7270 8.5362 0.8215
43.5640 -18.7437 8.3623 0.8248
44.9690 -17.4517 8.5054 0.8221
45.5549 -15.8109 8.5026 0.8221
43.8620 -13.4692 8.0905 0.8300
47.8524 -7.4007 8.5380 0.8215
46.9841 -3.8232 8.3120 0.8257
48.1751 -0.4309 8.4949 0.8223
45.5304 1.2379 8.0312 0.8311
47.9773 4.7862 8.5017 0.8221
45.1598 6.1594 8.0366 0.8310
48.0142 8.3251 8.5925 0.8204
47.2105 9.9543 8.5075 0.8220
45.8988 13.2011 8.4213 0.8237
45.9189 15.0225 8.5190 0.8218
44.1290 18.0584 8.4074 0.8239
46.4708 -14.2703 7.4472 0.8214
46.4881 -12.4573 7.3730 0.8230
46.5223 -8.9263 7.2570 0.8256
46.5563 -5.4871 7.1815 0.8272
46.6076 -0.4168 7.1403 0.8281
46.6604 4.6548 7.1836 0.8272
46.7159 9.8500 7.3140 0.8243
46.7353 11.6317 7.3780 0.8229
46.7758 15.3029 7.5395 0.8194
34.3492 -24.6813 5.5080 0.8431
37.6371 -25.0335 5.8863 0.8333
46.3180 -16.0758 6.3845 0.8206
46.3365 -14.2291 6.3121 0.8224
46.3546 -12.4215 6.2493 0.8240
46.3725 -10.6473 6.1958 0.8254
46.7064 -8.9614 6.1931 0.8254
48.6125 -5.7294 6.3742 0.8208
48.6667 -0.4353 6.3377 0.8218
48.6847 1.3236 6.3421 0.8216
48.7029 3.0873 6.3549 0.8213
48.7212 4.8604 6.3760 0.8208
48.7398 6.6477 6.4057 0.8200
46.6252 9.8308 6.2051 0.8251
46.6012 11.5984 6.2536 0.8239
46.5749 15.2371 6.3813 0.8206
34.3493 -24.6814 4.5420 0.8435
37.6372 -25.0336 4.8539 0.8337
41.4154 -25.4384 5.2192 0.8224
46.4607 15.1997 5.2492 0.8215
41.4155 -25.4385 4.1145 0.8227
47.2668 15.4635 4.2099 0.8190
34.3496 -24.6816 2.6229 0.8441
37.6375 -25.0339 2.8030 0.8343
41.4159 -25.4387 1.9165 0.8232
37.6379 -25.0341 0.7636 0.8346
44.3520 -21.0124 0.8290 0.8217
44.7176 14.6295 0.7948 0.8284
37.6380 -25.0342 -0.2545 0.8346
41.4163 -25.4390 -0.2737 0.8233
44.5400 -2.0087 -0.2510 0.8367
37.6382 -25.0343 -1.2728 0.8345
37.7114 -17.8663 -1.1750 0.8462
37.7179 -16.2284 -1.1562 0.8485
37.7242 -14.6401 -1.1394 0.8505
37.7304 -13.0952 -1.1246 0.8523
37.7480 -8.6671 -1.0906 0.8564
37.7536 -7.2438 -1.0825 0.8574
37.7591 -5.8398 -1.0759 0.8582
37.7646 -4.4509 -1.0707 0.8588
37.7649 2.3939 -1.0655 0.8595
37.8023 5.1559 -1.0743 0.8584
37.8133 7.9729 -1.0882 0.8567
37.8188 9.4125 -1.0974 0.8556
37.7456 12.3486 -1.1183 0.8531
37.8363 13.9101 -1.1351 0.8510
37.8423 15.4857 -1.1513 0.8491
37.8617 20.5270 -1.2127 0.8417
37.8687 22.3370 -1.2380 0.8387
37.8759 24.2266 -1.2660 0.8353
34.3503 -24.6821 -2.1451 0.8442
41.4167 -25.4392 -2.4650 0.8231
37.7053 -17.8634 -2.1159 0.8461
37.7183 -14.6378 -2.0519 0.8504
37.7245 -13.0932 -2.0251 0.8522
37.7306 -11.5864 -2.0017 0.8538
37.7423 -8.6658 -1.9639 0.8563
37.7479 -7.2427 -1.9493 0.8573
37.7535 -5.8389 -1.9374 0.8581
37.7699 -1.7034 -1.9174 0.8595
37.7753 -0.3379 -1.9158 0.8596
37.7806 1.0272 -1.9167 0.8595
37.7593 2.3936 -1.9188 0.8594
37.7967 5.1551 -1.9346 0.8583
37.8021 6.5544 -1.9457 0.8576
37.8131 9.4111 -1.9762 0.8555
37.8187 10.8771 -1.9957 0.8542
37.8363 15.4833 -2.0733 0.8490
37.8488 18.7840 -2.1429 0.8443
37.8554 20.5235 -2.1838 0.8416
37.8622 22.3332 -2.2293 0.8386
37.8693 24.2223 -2.2798 0.8352
29.6853 -18.2334 -2.5544 0.8696
30.3697 -17.1750 -2.5582 0.8694
31.6137 -14.9774 -2.5650 0.8691
32.1708 -13.8417 -2.5679 0.8690
33.9426 -9.0955 -2.5766 0.8685
34.2671 -7.8678 -2.5779 0.8685
34.5429 -6.6278 -2.5790 0.8684
35.1492 -1.5852 -2.5798 0.8684
35.1753 -0.3146 -2.5792 0.8684
34.9518 3.4868 -2.5755 0.8686
34.7774 4.7433 -2.5736 0.8687
34.5536 5.9911 -2.5713 0.8688
34.2809 7.2281 -2.5688 0.8689
33.9600 8.4521 -2.5660 0.8690
33.5914 9.6613 -2.5628 0.8692
33.1761 10.8537 -2.5594 0.8694
32.2086 13.1803 -2.5517 0.8697
31.6585 14.3110 -2.5474 0.8699
31.0656 15.4175 -2.5429 0.8701
30.4310 16.4983 -2.5381 0.8704
29.7561 17.5518 -2.5331 0.8706
28.9372 20.0176 -2.5799 0.8684
24.1921 -13.6813 -2.6682 0.8943
24.6959 -12.8119 -2.6710 0.8942
26.0033 -10.0914 -2.6778 0.8940
26.3686 -9.1519 -2.6797 0.8939
26.6975 -8.1983 -2.6812 0.8938
26.9894 -7.2323 -2.6825 0.8938
27.6382 -4.2745 -2.6850 0.8937
27.7777 -3.2738 -2.6853 0.8937
27.8783 -2.2685 -2.6853 0.8937
27.9398 -1.2600 -2.6851 0.8937
27.9622 -0.2501 -2.6846 0.8937
27.9454 0.7598 -2.6839 0.8937
27.8896 1.7679 -2.6829 0.8938
27.7948 2.7728 -2.6817 0.8938
27.6613 3.7728 -2.6802 0.8939
27.4893 4.7663 -2.6785 0.8939
27.2791 5.7517 -2.6765 0.8940
27.0313 6.7277 -2.6743 0.8941
26.4244 8.6448 -2.6692 0.8943
26.0666 9.5831 -2.6663 0.8944
25.6733 10.5060 -2.6632 0.8945
25.2455 11.4120 -2.6598 0.8946
24.7837 12.2999 -2.6563 0.8948
24.2890 13.1684 -2.6525 0.8949
23.7621 14.0161 -2.6486 0.8951
22.6159 15.6447 -2.6401 0.8954
21.3532 17.1767 -2.6310 0.8957
20.6809 17.9038 -2.6261 0.8959
17.9610 -12.9057 -2.6272 0.9148
18.4343 -12.2612 -2.6299 0.9147
19.7049 -10.2226 -2.6369 0.9145
20.4207 -8.7861 -2.6407 0.9143
20.7374 -8.0478 -2.6423 0.9143
21.2856 -6.5364 -2.6450 0.9142
21.5162 -5.7656 -2.6460 0.9142
21.8884 -4.1997 -2.6475 0.9141
22.0294 -3.4070 -2.6479 0.9141
22.2201 -1.8081 -2.6482 0.9141
22.2695 -1.0043 -2.6480 0.9141
22.2882 -0.1993 -2.6476 0.9141
22.2760 0.6056 -2.6471 0.9141
22.1597 2.2106 -2.6453 0.9142
22.0557 3.0082 -2.6442 0.9142
21.9213 3.8009 -2.6428 0.9143
21.7570 4.5874 -2.6412 0.9143
21.5629 5.3667 -2.6395 0.9144
21.3395 6.1375 -2.6376 0.9144
19.7971 9.8251 -2.6253 0.9148
18.9921 11.2025 -2.6192 0.9150
18.0875 12.5122 -2.6125 0.9152
17.0896 13.7470 -2.6053 0.9154
16.5576 14.3342 -2.6014 0.9156
14.9373 -10.7330 -2.6062 0.9284
15.6989 -9.6426 -2.6105 0.9283
16.0488 -9.0761 -2.6124 0.9282
16.3774 -8.4963 -2.6142 0.9282
16.6840 -7.9042 -2.6158 0.9281
16.9681 -7.3006 -2.6173 0.9281
17.2295 -6.6864 -2.6186 0.9281
17.6819 -5.4298 -2.6208 0.9280
17.8723 -4.7892 -2.6217 0.9280
18.1798 -3.4882 -2.6229 0.9279
18.2964 -2.8297 -2.6232 0.9279
18.5022 0.5030 -2.6225 0.9280
18.4676 1.1707 -2.6219 0.9280
18.4077 1.8363 -2.6211 0.9280
18.0779 3.8117 -2.6178 0.9281
17.9186 4.4597 -2.6163 0.9281
17.7351 5.1008 -2.6147 0.9282
17.2966 6.3589 -2.6111 0.9283
16.4662 8.1720 -2.6046 0.9284
15.4398 9.8757 -2.5969 0.9286
15.0566 10.4156 -2.5941 0.9287
13.7928 11.9407 -2.5849 0.9289
13.4212 -8.2436 -2.5948 0.9381
14.5008 -6.2390 -2.6006 0.9380
14.9255 -5.1802 -2.6027 0.9380
15.5314 -2.9800 -2.6053 0.9379
15.6308 -2.4174 -2.6056 0.9379
15.7089 -1.8514 -2.6058 0.9379
15.8009 -0.7126 -2.6057 0.9379
15.7276 1.5690 -2.6038 0.9379
15.5628 2.6984 -2.6021 0.9380
15.4488 3.2573 -2.6010 0.9380
14.7866 5.4361 -2.5953 0.9381
14.3358 6.4804 -2.5918 0.9382
12.8838 8.9125 -2.5808 0.9385
12.5414 9.3629 -2.5783 0.9385
12.1827 9.7999 -2.5757 0.9386
11.8084 10.2228 -2.5730 0.9386
11.1462 -8.0090 -2.5798 0.9457
11.7097 -7.1923 -2.5830 0.9456
12.4379 -5.8926 -2.5869 0.9455
13.0170 -4.5179 -2.5899 0.9455
13.3162 -3.5683 -2.5912 0.9454
13.5437 -2.5986 -2.5921 0.9454
13.6301 -2.1080 -2.5924 0.9454
13.7477 -1.1187 -2.5926 0.9454
13.7785 -0.6214 -2.5924 0.9454
13.7844 0.3748 -2.5919 0.9454
13.7594 0.8722 -2.5914 0.9454
12.7134 5.2025 -2.5820 0.9456
12.5095 5.6548 -2.5804 0.9457
12.0522 6.5342 -2.5768 0.9457
11.5316 7.3759 -2.5729 0.9458
10.9509 8.1755 -2.5687 0.9459
10.6391 8.5581 -2.5664 0.9459
10.3136 8.9286 -2.5641 0.9460
10.1330 -6.7397 -2.5724 0.9515
11.0186 -5.2202 -2.5773 0.9514
11.2042 -4.8206 -2.5782 0.9514
11.3748 -4.4143 -2.5791 0.9513
11.5302 -4.0018 -2.5799 0.9513
11.6701 -3.5837 -2.5805 0.9513
11.7945 -3.1605 -2.5811 0.9513
12.1321 -1.4299 -2.5822 0.9513
12.2088 0.3319 -2.5816 0.9513
12.1486 1.2119 -2.5807 0.9513
12.0940 1.6495 -2.5801 0.9513
11.9362 2.5167 -2.5785 0.9514
11.8332 2.9451 -2.5776 0.9514
11.7145 3.3692 -2.5766 0.9514
11.4302 4.2022 -2.5742 0.9514
11.2652 4.6099 -2.5729 0.9515
11.0853 5.0110 -2.5715 0.9515
10.8907 5.4049 -2.5700 0.9515
10.4587 6.1691 -2.5667 0.9516
10.2220 6.5383 -2.5649 0.9516
9.9720 6.8982 -2.5631 0.9516
9.7091 7.2484 -2.5612 0.9517
9.1459 7.9178 -2.5571 0.9517
9.3048 -5.7152 -2.5664 0.9561
9.5093 -5.3778 -2.5675 0.9561
9.7013 -5.0329 -2.5686 0.9561
9.8804 -4.6809 -2.5695 0.9561
10.0464 -4.3225 -2.5704 0.9561
10.1990 -3.9580 -2.5712 0.9560
10.6716 -2.4502 -2.5733 0.9560
10.7544 -2.0634 -2.5736 0.9560
10.8767 -1.2819 -2.5740 0.9560
10.9405 -0.4934 -2.5739 0.9560
10.9505 -0.0979 -2.5737 0.9560
10.9263 0.6926 -2.5731 0.9560
10.8922 1.0866 -2.5726 0.9560
10.7803 1.8691 -2.5714 0.9560
10.7026 2.2566 -2.5707 0.9561
10.6107 2.6408 -2.5698 0.9561
10.3846 3.3973 -2.5679 0.9561
10.2507 3.7686 -2.5668 0.9561
9.7685 4.8480 -2.5630 0.9562
8.9470 6.1892 -2.5568 0.9563
8.7117 6.5039 -2.5551 0.9563
8.4652 6.8095 -2.5533 0.9563
8.2078 7.1056 -2.5515 0.9564
7.9398 7.3918 -2.5495 0.9564
8.2302 -5.4742 -2.5593 0.9600
8.9464 -4.2385 -2.5632 0.9599
9.4731 -2.9090 -2.5658 0.9599
9.5737 -2.5654 -2.5662 0.9599
9.6614 -2.2183 -2.5666 0.9599
3.8858 -0.4580 -1.0131 0.9840
3.8430 -0.3127 -0.9983 0.9842
3.8461 -0.1735 -0.9968 0.9842
3.8467 -0.0344 -0.9960 0.9842
3.8530 0.2442 -0.9996 0.9842
9.8175 1.3390 -2.5655 0.9599
9.7605 1.6923 -2.5649 0.9599
9.6905 2.0432 -2.5642 0.9599
9.5118 2.7357 -2.5626 0.9599
9.4035 3.0764 -2.5617 0.9599
9.2826 3.4127 -2.5607 0.9600
9.1495 3.7441 -2.5596 0.9600
8.1050 5.6067 -2.5517 0.9601
7.6696 6.1695 -2.5485 0.9601
7.3244 -5.2629 -2.5532 0.9632
7.8599 -4.4450 -2.5562 0.9632
8.0179 -4.1596 -2.5571 0.9631
8.4279 -3.2707 -2.5592 0.9631
8.8170 -2.0244 -2.5610 0.9631
8.8853 -1.7048 -2.5612 0.9631
3.5787 -0.4218 -1.0201 0.9851
3.5631 -0.1607 -1.0097 0.9853
3.5639 -0.0319 -1.0090 0.9853
3.5654 0.0969 -1.0097 0.9853
3.6469 0.3638 -1.0375 0.9849
4.8254 0.6581 -1.3787 0.9800
8.7688 2.1824 -2.5581 0.9631
8.4730 3.1150 -2.5556 0.9632
8.3518 3.4177 -2.5546 0.9632
7.5845 4.8513 -2.5488 0.9633
7.2067 5.3802 -2.5460 0.9633
7.0036 5.6337 -2.5445 0.9633
6.7914 5.8795 -2.5430 0.9633
6.5706 6.1171 -2.5414 0.9634
6.7304 -4.8361 -2.5491 0.9659
7.0672 -4.3408 -2.5510 0.9659
7.8479 -2.7238 -2.5551 0.9658
7.9426 -2.4390 -2.5555 0.9658
8.0266 -2.1509 -2.5559 0.9658
3.3459 -0.3943 -1.0362 0.9860
3.3508 -0.2727 -1.0340 0.9860
3.3542 -0.0300 -1.0317 0.9861
3.3545 0.0912 -1.0322 0.9861
3.9289 0.5359 -1.2196 0.9835
7.9766 2.2942 -2.5529 0.9659
7.7854 2.8622 -2.5513 0.9659
7.5529 3.4142 -2.5494 0.9659
7.2808 3.9473 -2.5473 0.9659
7.1303 4.2058 -2.5462 0.9659
6.9704 4.4585 -2.5450 0.9660
6.6237 4.9451 -2.5425 0.9660
6.2427 5.4044 -2.5397 0.9660
6.3786 -4.2426 -2.5465 0.9682
6.5299 -4.0108 -2.5473 0.9682
6.6725 -3.7735 -2.5481 0.9682
6.8064 -3.5310 -2.5488 0.9682
7.1534 -2.7761 -2.5506 0.9682
7.2504 -2.5164 -2.5511 0.9682
7.4830 -1.7181 -2.5521 0.9682
7.5408 -1.4469 -2.5523 0.9682
3.2036 -0.4955 -1.0776 0.9864
3.1803 -0.0284 -1.0572 0.9867
3.1781 0.2015 -1.0585 0.9867
7.5071 1.5829 -2.5503 0.9682
7.4434 1.8525 -2.5497 0.9682
7.3697 2.1196 -2.5490 0.9682
7.2863 2.3837 -2.5483 0.9682
7.1934 2.6446 -2.5476 0.9682
7.0909 2.9017 -2.5467 0.9682
6.9790 3.1548 -2.5459 0.9682
6.7279 3.6476 -2.5439 0.9683
6.2857 4.3482 -2.5406 0.9683
5.9497 4.7860 -2.5382 0.9683
5.7700 4.9952 -2.5369 0.9683
5.5829 5.1976 -2.5355 0.9684
5.7737 -4.1486 -2.5425 0.9702
5.9217 -3.9387 -2.5433 0.9702
6.1943 -3.5030 -2.5448 0.9702
6.4343 -3.0483 -2.5461 0.9702
6.9460 -1.5948 -2.5485 0.9702
3.1022 -0.5952 -1.1296 0.9867
3.0422 -0.3586 -1.0955 0.9871
3.0502 -0.1376 -1.0919 0.9871
3.0512 -0.0273 -1.0912 0.9871
3.0499 0.0829 -1.0911 0.9871
3.1066 0.4237 -1.1212 0.9868
6.9096 1.7197 -2.5463 0.9702
6.7641 2.2129 -2.5450 0.9702
6.5829 2.6938 -2.5436 0.9702
6.3670 3.1599 -2.5419 0.9703
6.2465 3.3866 -2.5409 0.9703
6.1177 3.6086 -2.5400 0.9703
5.9810 3.8256 -2.5390 0.9703
5.6843 4.2437 -2.5368 0.9703
5.1846 4.8268 -2.5332 0.9704
5.3821 -3.8672 -2.5397 0.9720
5.5200 -3.6715 -2.5405 0.9720
5.7738 -3.2652 -2.5419 0.9720
5.9972 -2.8413 -2.5431 0.9720
6.0972 -2.6233 -2.5436 0.9720
6.1891 -2.4019 -2.5441 0.9720
6.2728 -2.1771 -2.5445 0.9720
6.3482 -1.9494 -2.5449 0.9720
6.4152 -1.7191 -2.5452 0.9720
6.4737 -1.4864 -2.5454 0.9719
2.9261 -0.2381 -1.1251 0.9875
2.9307 -0.0262 -1.1232 0.9875
2.9294 0.0796 -1.1230 0.9875
2.9258 0.1855 -1.1235 0.9875
2.9273 0.2920 -1.1273 0.9875
6.4403 1.6029 -2.5433 0.9720
6.3048 2.0626 -2.5421 0.9720
6.1362 2.5110 -2.5408 0.9720
5.9353 2.9456 -2.5392 0.9720
5.8230 3.1570 -2.5383 0.9720
5.5759 3.5665 -2.5365 0.9720
5.2996 3.9565 -2.5344 0.9721
4.9958 4.3249 -2.5322 0.9721
4.8341 4.5005 -2.5311 0.9721
5.2856 -3.2465 -2.5387 0.9735
5.4007 -3.0543 -2.5394 0.9735
5.5088 -2.8579 -2.5399 0.9735
5.9376 -1.8233 -2.5421 0.9735
6.0003 -1.6079 -2.5424 0.9735
2.8585 -0.6563 -1.2003 0.9874
2.8164 -0.1270 -1.1539 0.9879
2.8175 -0.0252 -1.1532 0.9879
2.8163 0.0766 -1.1531 0.9879
2.8159 0.2809 -1.1582 0.9878
2.8726 0.4981 -1.1932 0.9875
6.0753 1.2810 -2.5411 0.9735
5.9646 1.7155 -2.5401 0.9735
5.8975 1.9294 -2.5396 0.9735
5.8225 2.1406 -2.5389 0.9735
5.7399 2.3489 -2.5383 0.9736
5.6497 2.5539 -2.5376 0.9736
4.8193 3.8767 -2.5314 0.9736
5.4312 -2.1077 -2.5390 0.9749
2.7413 -0.6294 -1.2258 0.9878
2.7162 -0.3201 -1.1920 0.9881
2.7244 -0.1229 -1.1886 0.9882
2.7250 -0.0244 -1.1877 0.9882
2.7216 0.1725 -1.1885 0.9882
2.7280 0.2721 -1.1948 0.9881
2.7329 0.3728 -1.2021 0.9880
2.7564 0.4779 -1.2192 0.9879
5.6999 1.2018 -2.5387 0.9749
5.6518 1.4066 -2.5383 0.9749
5.5962 1.6095 -2.5378 0.9749
5.4631 2.0084 -2.5367 0.9749
5.3857 2.2039 -2.5361 0.9749
5.3011 2.3963 -2.5354 0.9749
5.1113 2.7711 -2.5339 0.9749
4.8948 3.1309 -2.5323 0.9750
4.3866 3.7975 -2.5286 0.9750
4.6655 -2.8657 -2.5345 0.9762
4.8623 -2.5225 -2.5355 0.9761
5.0335 -2.1657 -2.5364 0.9761
5.1092 -1.9828 -2.5368 0.9761
5.1782 -1.7972 -2.5371 0.9761
5.2403 -1.6092 -2.5374 0.9761
5.2955 -1.4190 -2.5377 0.9761
2.6460 -0.2153 -1.2288 0.9884
2.6493 -0.1195 -1.2276 0.9884
2.6499 -0.0237 -1.2267 0.9884
2.6481 0.0720 -1.2262 0.9884
2.6390 0.3599 -1.2329 0.9883
5.3168 1.3233 -2.5361 0.9761
5.2646 1.5142 -2.5357 0.9761
4.9873 2.2545 -2.5334 0.9762
4.8089 2.6072 -2.5321 0.9762
4.7103 2.7783 -2.5313 0.9762
4.4945 3.1091 -2.5297 0.9762
4.1275 3.5732 -2.5270 0.9762
3.9942 3.7186 -2.5261 0.9762
4.1910 -3.0114 -2.5315 0.9773
4.2981 -2.8588 -2.5321 0.9773
4.3995 -2.7023 -2.5326 0.9773
4.4952 -2.5421 -2.5332 0.9773
4.5849 -2.3786 -2.5336 0.9773
4.6687 -2.2118 -2.5341 0.9772
4.8176 -1.8696 -2.5348 0.9772
4.8826 -1.6946 -2.5352 0.9772
4.9411 -1.5173 -2.5354 0.9772
2.6514 -0.7105 -1.3464 0.9878
2.6099 -0.5992 -1.3135 0.9881
2.6050 -0.4029 -1.2930 0.9883
2.6012 -0.0233 -1.2760 0.9885
2.6029 0.0708 -1.2773 0.9885
2.6053 0.2599 -1.2843 0.9884
2.6054 0.3554 -1.2898 0.9884
2.8134 0.5932 -1.4104 0.9873
4.9086 1.6058 -2.5333 0.9773
4.7778 1.9552 -2.5323 0.9773
4.7030 2.1259 -2.5317 0.9773
4.6220 2.2938 -2.5310 0.9773
4.5349 2.4586 -2.5304 0.9773
4.4420 2.6201 -2.5297 0.9773
4.3431 2.7780 -2.5289 0.9773
4.0133 3.2283 -2.5265 0.9773
3.9602 -2.8456 -2.5299 0.9783
4.0613 -2.7013 -2.5304 0.9783
4.1572 -2.5534 -2.5310 0.9783
4.3323 -2.2475 -2.5319 0.9782
4.4113 -2.0899 -2.5323 0.9782
4.6134 -1.6012 -2.5333 0.9782
2.5773 -0.5918 -1.3718 0.9882
2.5802 -0.4951 -1.3630 0.9882
2.5820 -0.3993 -1.3554 0.9883
2.5811 -0.3042 -1.3483 0.9884
2.5805 -0.2100 -1.3431 0.9884
2.5803 0.3519 -1.3510 0.9883
2.6266 0.5538 -1.3926 0.9880
4.7371 1.1790 -2.5325 0.9782
4.6907 1.3491 -2.5321 0.9782
4.3675 2.1675 -2.5295 0.9783
4.0055 2.7709 -2.5267 0.9783
3.9017 2.9128 -2.5260 0.9783
3.6789 3.1849 -2.5243 0.9783
3.7489 -2.6937 -2.5284 0.9792
3.8446 -2.5571 -2.5289 0.9792
4.0207 -2.2738 -2.5299 0.9792
4.1009 -2.1275 -2.5303 0.9792
4.1757 -1.9783 -2.5307 0.9791
4.2450 -1.8264 -2.5311 0.9791
2.5900 -0.6940 -1.4686 0.9878
2.5532 -0.5862 -1.4348 0.9881
2.5591 -0.3016 -1.4114 0.9883
2.5596 -0.2083 -1.4066 0.9884
2.5553 0.3485 -1.4125 0.9883
2.5971 0.5476 -1.4537 0.9880
4.3904 1.4363 -2.5300 0.9792
4.3349 1.5937 -2.5296 0.9792
4.1345 2.0519 -2.5280 0.9792
4.0567 2.1994 -2.5274 0.9792
3.7921 2.6232 -2.5254 0.9792
3.6938 2.7576 -2.5247 0.9792
3.5907 2.8884 -2.5240 0.9792
3.4830 3.0153 -2.5232 0.9792
3.3707 3.1381 -2.5224 0.9792
3.5545 -2.5541 -2.5270 0.9800
3.6452 -2.4245 -2.5275 0.9800
3.7311 -2.2917 -2.5280 0.9800
3.8121 -2.1558 -2.5285 0.9800
3.8880 -2.0171 -2.5289 0.9800
4.0851 -1.5853 -2.5299 0.9800
4.1401 -1.4369 -2.5302 0.9800
2.5342 -0.5819 -1.5012 0.9881
2.5354 -0.4865 -1.4905 0.9881
2.5369 -0.2064 -1.4695 0.9883
2.5373 -0.0227 -1.4650 0.9883
2.5371 0.0690 -1.4653 0.9883
2.5375 0.2531 -1.4723 0.9883
2.5352 0.3458 -1.4772 0.9883
4.2513 1.0581 -2.5294 0.9800
4.2097 1.2108 -2.5290 0.9800
4.1626 1.3618 -2.5286 0.9800
4.1100 1.5110 -2.5282 0.9800
3.9887 1.8030 -2.5272 0.9800
3.8464 2.0854 -2.5261 0.9800
3.6841 2.3564 -2.5249 0.9800
3.5956 2.4873 -2.5242 0.9800
3.4048 2.7389 -2.5228 0.9800
3.3027 2.8592 -2.5221 0.9800
3.1963 2.9757 -2.5213 0.9800
