ply
format ascii 1.0
element vertex 568
property float32 x
property float32 y
property float32 z
property float32 I
end_header
-40.7822 19.8217 7.9954 0.8318
-37.4182 14.9616 7.1057 0.8490
-38.2597 13.7217 7.1670 0.8478
-42.5614 11.8854 7.7918 0.8357
-42.4852 10.2302 7.7054 0.8374
-39.1889 -7.7786 7.0449 0.8502
-37.7185 -8.9097 6.8338 0.8543
-22.3127 -7.0001 4.1234 0.9094
-21.7226 -8.5768 4.1180 0.9095
-16.1893 21.2906 4.0974 0.8974
-41.8735 18.5188 7.0141 0.8309
-38.0202 13.6357 6.1877 0.8492
-37.5915 -8.8797 5.9173 0.8553
-21.9439 -6.8844 3.5232 0.9111
-21.8327 -7.7236 3.5478 0.9105
-21.2329 -8.3834 3.4971 0.9118
-15.0025 21.2789 3.3904 0.9003
-16.1897 21.2912 3.4831 0.8977
-17.1695 20.9673 3.5290 0.8964
-42.5770 18.8299 6.0624 0.8288
-42.5764 17.0241 5.9711 0.8311
-43.9503 13.9979 6.0065 0.8302
-43.7804 12.2258 5.9192 0.8325
-38.6740 -9.1354 5.1748 0.8519
-20.8569 -8.2349 2.9200 0.9135
-16.1901 21.2917 2.8722 0.8980
-17.4202 21.2735 2.9526 0.8953
-37.0189 29.2401 5.0656 0.8271
-36.8873 27.0373 4.9111 0.8319
-36.8459 25.0185 4.7825 0.8360
-40.1072 25.1717 5.0847 0.8265
-45.9699 16.4869 5.2442 0.8216
-39.3835 -7.8172 4.3116 0.8508
-16.1643 21.2577 2.2607 0.8983
-17.4458 21.3047 2.3310 0.8954
-35.9613 28.4048 3.8793 0.8320
-35.8841 26.3020 3.7663 0.8364
-35.8542 24.3451 3.6687 0.8403
-38.6705 24.2700 3.8649 0.8325
-38.0460 -8.9870 3.3093 0.8548
-21.6423 -7.6562 1.9433 0.9120
-14.9793 21.2459 1.6120 0.9011
-16.1646 21.2581 1.6560 0.8985
-17.4460 21.3050 1.7076 0.8955
-20.1198 22.8400 1.8875 0.8852
-20.9637 22.1370 1.8906 0.8850
-35.5196 28.0558 2.8068 0.8341
-38.0888 23.9050 2.7885 0.8351
-41.3812 23.9387 2.9645 0.8256
-38.7647 -7.6944 2.4507 0.8535
-21.8502 -7.7298 1.4372 0.9113
-21.0709 -8.3194 1.4048 0.9132
-16.1648 21.2584 1.0531 0.8986
-30.5821 27.9564 1.6338 0.8472
-30.5126 25.9388 1.5791 0.8519
-39.8245 23.0382 1.8142 0.8318
-38.0842 -7.5593 1.5310 0.8560
-37.6726 -8.8988 1.5263 0.8565
-15.0042 21.2812 0.4398 0.9011
-5.1274 6.7431 0.1431 0.9667
-5.2925 6.4633 0.1411 0.9671
-5.6975 6.4679 0.1456 0.9661
-21.4825 22.6848 0.5277 0.8825
-33.5918 22.8089 0.6859 0.8501
-41.3833 23.9398 0.8076 0.8259
-38.7113 -7.6838 0.6667 0.8539
-38.9679 -9.2048 0.6764 0.8520
-21.4976 -7.6050 0.3852 0.9128
-4.9836 6.5541 -0.0464 0.9676
-7.1550 6.5408 -0.0546 0.9620
-7.6918 6.5389 -0.0568 0.9604
-8.9153 6.5348 -0.0622 0.9567
-10.3714 6.5093 -0.0689 0.9522
-11.3044 6.5396 -0.0735 0.9491
-12.3003 6.5362 -0.0784 0.9458
-14.7602 6.5278 -0.0909 0.9375
-16.1047 6.4395 -0.0977 0.9330
-18.1600 6.5130 -0.1086 0.9257
-23.2649 6.4969 -0.1360 0.9079
-21.8695 -7.7366 -0.1306 0.9114
-4.6217 6.5553 -0.2258 0.9684
-4.9837 6.5541 -0.2318 0.9676
-5.2925 6.4633 -0.2352 0.9671
-6.1971 6.5440 -0.2538 0.9646
-6.6586 6.5424 -0.2628 0.9633
-7.1550 6.5408 -0.2730 0.9620
-7.6918 6.5389 -0.2843 0.9604
-8.2759 6.5370 -0.2970 0.9587
-8.9153 6.5348 -0.3113 0.9567
-9.6204 6.5324 -0.3274 0.9545
-11.3044 6.5396 -0.3677 0.9491
-12.3003 6.5362 -0.3922 0.9458
-16.1047 6.4395 -0.4884 0.9329
-18.1600 6.5130 -0.5432 0.9257
-23.2650 6.4969 -0.6802 0.9079
-4.9836 6.5541 -0.4176 0.9676
-5.2925 6.4633 -0.4237 0.9671
-7.1550 6.5408 -0.4916 0.9619
-8.9153 6.5348 -0.5606 0.9567
-9.6204 6.5324 -0.5897 0.9545
-11.3044 6.5396 -0.6623 0.9490
-12.3003 6.5362 -0.7064 0.9457
-13.4399 6.5323 -0.7578 0.9419
-16.1047 6.4395 -0.8796 0.9329
-20.4253 6.5054 -1.0871 0.9177
-31.4256 6.3794 -1.6262 0.8795
-38.8827 6.4449 -1.9988 0.8540
-43.4775 4.0208 -2.2143 0.8396
-43.5976 2.4526 -2.2145 0.8395
-43.6874 -0.6922 -2.2158 0.8395
-43.6571 -2.2662 -2.2170 0.8394
-43.5764 -3.8395 -2.2185 0.8393
-40.6296 -6.5536 -2.0871 0.8480
-42.7514 -10.0985 -2.2278 0.8387
-42.4195 -11.6479 -2.2309 0.8385
-42.0375 -13.1883 -2.2344 0.8382
-41.1237 -16.2369 -2.2422 0.8377
-4.9836 6.5541 -0.6037 0.9675
-5.2925 6.4633 -0.6125 0.9671
-6.1971 6.5440 -0.6608 0.9645
-6.6586 6.5424 -0.6845 0.9633
-7.1550 6.5408 -0.7108 0.9619
-8.9153 6.5348 -0.8105 0.9566
-9.6204 6.5324 -0.8526 0.9544
-10.3769 6.5127 -0.8983 0.9521
-11.3044 6.5396 -0.9576 0.9490
-13.4398 6.5323 -1.0957 0.9418
-18.1600 6.5130 -1.4146 0.9255
-20.4252 6.5054 -1.5717 0.9176
-26.5717 6.3984 -2.0040 0.8962
-28.8302 5.8525 -2.1570 0.8887
-29.0146 4.8092 -2.1564 0.8887
-31.1782 2.8833 -2.2958 0.8820
-31.2636 1.7588 -2.2959 0.8820
-31.2326 -2.7519 -2.2989 0.8818
-31.1316 -3.8772 -2.3003 0.8818
-30.9933 -4.9992 -2.3019 0.8817
-28.7411 -6.7891 -2.1654 0.8883
-29.7454 -10.5228 -2.3135 0.8811
-29.3856 -11.6023 -2.3165 0.8810
-5.2925 6.4633 -0.8020 0.9670
-6.1971 6.5440 -0.8653 0.9644
-6.6586 6.5424 -0.8962 0.9632
-7.1550 6.5408 -0.9307 0.9618
-7.6918 6.5389 -0.9692 0.9602
-8.2759 6.5370 -1.0125 0.9585
-8.9153 6.5348 -1.0612 0.9566
-9.6204 6.5324 -1.1164 0.9543
-10.3787 6.5139 -1.1764 0.9520
-11.3044 6.5396 -1.2538 0.9489
-22.0824 6.1666 -2.2011 0.9120
-22.2819 5.3654 -2.2003 0.9120
-22.6579 4.5995 -2.2196 0.9113
-24.0647 3.9887 -2.3419 0.9066
-24.1898 3.1191 -2.3416 0.9066
-24.2854 2.2459 -2.3415 0.9066
-24.3883 0.4921 -2.3419 0.9066
-24.3954 -0.3865 -2.3424 0.9066
-24.3728 -1.2652 -2.3431 0.9066
-22.1782 -6.0899 -2.2080 0.9117
-21.9634 -6.8905 -2.2099 0.9117
-21.7214 -7.6842 -2.2120 0.9116
-4.9836 6.5541 -0.9780 0.9674
-5.6975 6.4679 -1.0239 0.9659
-6.1971 6.5440 -1.0706 0.9643
-8.2759 6.5370 -1.2527 0.9584
-8.9153 6.5348 -1.3130 0.9565
-10.3806 6.5150 -1.4558 0.9518
-11.3044 6.5396 -1.5513 0.9488
-12.3003 6.5362 -1.6546 0.9454
-14.7602 6.5278 -1.9171 0.9371
-16.0966 6.4363 -2.0592 0.9326
-17.6711 6.3377 -2.2300 0.9272
-19.1010 4.5994 -2.3338 0.9239
-19.5647 3.9716 -2.3714 0.9227
-19.6918 3.2639 -2.3710 0.9227
-19.8729 1.8378 -2.3707 0.9228
-19.9565 0.4027 -2.3710 0.9227
-19.9615 -0.3163 -2.3714 0.9227
-19.9420 -1.0352 -2.3720 0.9227
-19.8979 -1.7532 -2.3727 0.9227
-19.7362 -3.1835 -2.3747 0.9226
-19.6187 -3.8941 -2.3759 0.9226
-19.4769 -4.6007 -2.3773 0.9225
-19.3110 -5.3026 -2.3788 0.9225
-18.6721 -5.8579 -2.3246 0.9242
-17.5324 -6.9223 -2.2391 0.9269
-4.6217 6.5553 -1.1365 0.9681
-4.9837 6.5541 -1.1666 0.9673
-5.2925 6.4633 -1.1836 0.9668
-6.6586 6.5424 -1.3226 0.9630
-7.6918 6.5389 -1.4304 0.9600
-9.6204 6.5324 -1.6476 0.9541
-12.3003 6.5362 -1.9736 0.9453
-13.4398 6.5323 -2.1173 0.9414
-14.7416 5.8944 -2.2495 0.9379
-15.1156 4.8142 -2.2477 0.9379
-16.2650 4.5420 -2.3927 0.9341
-16.4138 3.9523 -2.3921 0.9341
-16.5421 3.3580 -2.3916 0.9341
-16.8035 1.5540 -2.3910 0.9341
-16.8491 0.9479 -2.3911 0.9341
-16.8738 0.3405 -2.3913 0.9341
-16.8604 -0.8752 -2.3922 0.9341
-16.6835 -2.6911 -2.3944 0.9340
-16.5829 -3.2915 -2.3955 0.9340
-16.4616 -3.8885 -2.3966 0.9339
-16.3197 -4.4812 -2.3979 0.9339
-15.9747 -5.6512 -2.4009 0.9338
-4.6217 6.5553 -1.3213 0.9680
-4.9837 6.5541 -1.3564 0.9672
-6.1971 6.5440 -1.4847 0.9641
-6.6586 6.5424 -1.5378 0.9629
-7.1550 6.5408 -1.5970 0.9615
-7.6918 6.5389 -1.6631 0.9599
-8.2759 6.5370 -1.7374 0.9581
-9.6204 6.5324 -1.9157 0.9540
-10.3843 6.5174 -2.0197 0.9515
-12.1478 6.4551 -2.2662 0.9458
-12.5686 5.5585 -2.2640 0.9458
-12.7553 5.1002 -2.2630 0.9458
-12.9730 4.6527 -2.2704 0.9457
-14.2047 3.4204 -2.4070 0.9425
-14.3162 2.9062 -2.4065 0.9425
-14.4854 1.8678 -2.4061 0.9425
-14.5429 1.3449 -2.4060 0.9425
-14.5912 -0.7574 -2.4070 0.9425
-14.5578 -1.2827 -2.4075 0.9425
-14.5061 -1.8066 -2.4082 0.9425
-14.1187 -3.8768 -2.4120 0.9424
-13.8179 -4.8883 -2.4146 0.9423
-4.6217 6.5553 -1.5076 0.9679
-4.9837 6.5541 -1.5476 0.9670
-8.9153 6.5348 -2.0777 0.9560
-9.6204 6.5324 -2.1857 0.9538
-10.6940 5.6826 -2.2762 0.9519
-10.8869 5.2914 -2.2752 0.9519
-11.0658 4.8939 -2.2743 0.9519
-12.1196 4.3466 -2.4201 0.9489
-12.3945 3.4612 -2.4188 0.9490
-12.5087 3.0120 -2.4184 0.9490
-12.7564 1.6449 -2.4176 0.9490
-12.8071 1.1844 -2.4175 0.9490
-12.8603 0.2595 -2.4177 0.9490
-12.8491 -0.6670 -2.4184 0.9490
-12.8192 -1.1295 -2.4189 0.9490
-12.7114 -2.0504 -2.4201 0.9489
-12.5396 -2.9620 -2.4218 0.9489
-12.4299 -3.4131 -2.4228 0.9489
-12.3045 -3.8603 -2.4239 0.9489
-4.6217 6.5553 -1.6954 0.9677
-4.9837 6.5541 -1.7404 0.9669
-5.2925 6.4633 -1.7658 0.9664
-6.1971 6.5440 -1.9051 0.9638
-8.7327 6.4008 -2.2887 0.9567
-8.9526 6.0789 -2.2874 0.9567
-9.5424 5.0706 -2.2842 0.9568
-10.4781 4.6340 -2.4218 0.9542
-10.6726 4.2674 -2.4296 0.9541
-10.8162 3.8792 -2.4289 0.9541
-11.0622 3.0892 -2.4278 0.9541
-11.1644 2.6883 -2.4274 0.9541
-11.3263 1.8773 -2.4268 0.9541
-11.4620 0.6448 -2.4267 0.9541
-11.4785 0.2316 -2.4268 0.9541
-11.4806 -0.1819 -2.4271 0.9541
-11.4681 -0.5953 -2.4274 0.9541
-11.4413 -1.0081 -2.4278 0.9541
-11.4000 -1.4198 -2.4284 0.9541
-11.3444 -1.8299 -2.4290 0.9541
-11.2744 -2.2379 -2.4297 0.9541
-11.1902 -2.6433 -2.4305 0.9541
-10.9794 -3.4445 -2.4324 0.9540
-5.2925 6.4633 -1.9633 0.9663
-5.6975 6.4679 -2.0258 0.9652
-6.1971 6.5440 -2.1182 0.9636
-7.2184 6.5986 -2.2985 0.9606
-7.4469 6.3307 -2.2972 0.9606
-9.4851 4.1948 -2.4375 0.9583
-9.7569 3.4993 -2.4361 0.9583
-10.0716 2.4252 -2.4347 0.9583
-10.2717 1.3245 -2.4341 0.9583
-10.3126 0.9537 -2.4340 0.9583
-10.3404 0.5817 -2.4341 0.9583
-10.3570 -0.1641 -2.4344 0.9583
-10.3456 -0.5370 -2.4347 0.9583
-10.3212 -0.9094 -2.4351 0.9583
-10.2838 -1.2808 -2.4356 0.9583
-10.2333 -1.6506 -2.4362 0.9583
-10.1700 -2.0186 -2.4368 0.9583
-10.0046 -2.7471 -2.4383 0.9583
-9.9028 -3.1068 -2.4392 0.9583
-9.6614 -3.8146 -2.4412 0.9582
-4.6217 6.5553 -2.0767 0.9674
-4.9837 6.5541 -2.1318 0.9666
-6.1234 6.4661 -2.3058 0.9639
-6.5654 6.0018 -2.3031 0.9639
-6.7737 5.7584 -2.3019 0.9639
-7.1636 5.2508 -2.2997 0.9640
-7.3447 4.9871 -2.2987 0.9640
-7.5165 4.7174 -2.2977 0.9640
-8.3385 4.4309 -2.4449 0.9617
-8.4898 4.1264 -2.4441 0.9617
-8.6303 3.8168 -2.4433 0.9618
-8.8782 3.1841 -2.4421 0.9618
-8.9853 2.8617 -2.4416 0.9618
-9.0809 2.5359 -2.4412 0.9618
-9.2375 1.8752 -2.4405 0.9618
-9.3845 0.8679 -2.4402 0.9618
-9.4232 0.1902 -2.4403 0.9618
-9.3920 -0.8275 -2.4412 0.9618
-9.1841 -2.1694 -2.4434 0.9618
-9.1028 -2.4995 -2.4441 0.9617
-9.0098 -2.8266 -2.4449 0.9617
-4.9464 6.5051 -2.3135 0.9666
-5.1744 6.3190 -2.3121 0.9666
-5.3955 6.1250 -2.3108 0.9666
-5.6095 5.9234 -2.3095 0.9667
-6.2061 5.2758 -2.3060 0.9667
-7.4927 4.3345 -2.4505 0.9647
-7.6414 4.0605 -2.4497 0.9647
-7.9093 3.4979 -2.4483 0.9647
-8.1367 2.9182 -2.4471 0.9647
-8.2350 2.6228 -2.4467 0.9647
-8.3228 2.3242 -2.4463 0.9647
-8.4000 2.0227 -2.4459 0.9647
-8.4665 1.7187 -2.4457 0.9647
-8.5672 1.1047 -2.4454 0.9647
-8.6014 0.7954 -2.4454 0.9647
-8.6245 0.4852 -2.4454 0.9647
-8.6285 -0.4479 -2.4460 0.9647
-8.6079 -0.7584 -2.4463 0.9647
-8.5764 -1.0681 -2.4467 0.9647
-8.4808 -1.6833 -2.4477 0.9647
-8.4168 -1.9882 -2.4483 0.9647
-8.3420 -2.2906 -2.4490 0.9647
-8.2566 -2.5903 -2.4497 0.9647
-4.9726 5.6449 -2.3138 0.9690
-5.1700 5.4594 -2.3126 0.9690
-5.3606 5.2671 -2.3115 0.9690
-5.5442 5.0682 -2.3104 0.9691
-5.7206 4.8631 -2.3094 0.9691
-6.6066 4.4859 -2.4562 0.9671
-6.7615 4.2436 -2.4553 0.9671
-7.2922 3.2250 -2.4525 0.9672
-7.4019 2.9596 -2.4519 0.9672
-7.5929 2.4183 -2.4510 0.9672
-7.6739 2.1430 -2.4506 0.9672
-7.8580 1.3025 -2.4499 0.9672
-7.8996 1.0186 -2.4498 0.9672
-7.9637 0.1607 -2.4500 0.9672
-7.9648 -0.1262 -2.4501 0.9672
-7.9559 -0.4130 -2.4504 0.9672
-7.9077 -0.9848 -2.4510 0.9672
-7.8685 -1.2692 -2.4515 0.9672
-7.8192 -1.5520 -2.4520 0.9672
-7.7600 -1.8330 -2.4525 0.9672
-7.5234 -2.6615 -2.4546 0.9672
-7.4252 -2.9317 -2.4554 0.9671
-4.2223 5.5528 -2.3188 0.9710
-4.4173 5.3944 -2.3176 0.9710
-4.6065 5.2293 -2.3165 0.9711
-4.7895 5.0576 -2.3154 0.9711
-5.1383 4.6971 -2.3141 0.9711
-5.4913 4.6682 -2.3958 0.9701
-6.1216 4.1566 -2.4596 0.9693
-6.4008 3.7028 -2.4580 0.9693
-6.5282 3.4690 -2.4573 0.9693
-6.6472 3.2308 -2.4567 0.9693
-6.9524 2.4935 -2.4552 0.9693
-7.1117 1.9860 -2.4544 0.9694
-7.1778 1.7284 -2.4542 0.9694
-7.2825 1.2071 -2.4538 0.9694
-7.3700 0.4146 -2.4537 0.9694
-7.3554 -0.6481 -2.4544 0.9694
-7.3283 -0.9127 -2.4548 0.9694
-7.1270 -1.9570 -2.4567 0.9693
-6.9715 -2.4662 -2.4581 0.9693
-3.7417 5.3071 -2.3221 0.9728
-4.1100 5.0191 -2.3199 0.9728
-4.4566 4.7061 -2.3178 0.9728
-4.7575 4.6745 -2.3851 0.9721
-5.2521 4.4648 -2.4651 0.9711
-5.6970 3.8683 -2.4626 0.9712
-5.8309 3.6595 -2.4618 0.9712
-5.9572 3.4462 -2.4611 0.9712
-6.2896 2.7816 -2.4593 0.9712
-6.4711 2.3208 -2.4584 0.9712
-6.5495 2.0860 -2.4581 0.9712
-6.6811 1.6088 -2.4575 0.9712
-6.7341 1.3670 -2.4573 0.9712
-6.8600 0.3859 -2.4571 0.9712
-6.8697 0.1386 -2.4572 0.9712
-6.8628 -0.3562 -2.4575 0.9712
-6.8463 -0.6032 -2.4578 0.9712
-6.7443 -1.3387 -2.4589 0.9712
-6.4882 -2.2953 -2.4612 0.9712
-3.8475 4.6985 -2.3272 0.9743
-4.1205 4.6776 -2.3888 0.9737
-4.4154 4.6625 -2.4608 0.9729
-4.7543 4.3461 -2.4685 0.9728
-4.9059 4.1706 -2.4676 0.9728
-5.0512 3.9898 -2.4667 0.9728
-5.4471 3.4187 -2.4645 0.9728
-5.5652 3.2194 -2.4638 0.9728
-5.7797 2.8092 -2.4627 0.9728
-5.9647 2.3850 -2.4617 0.9729
-6.3332 1.0497 -2.4601 0.9729
-6.4093 0.3606 -2.4600 0.9729
-6.4183 0.1295 -2.4601 0.9729
-6.2529 -1.4770 -2.4622 0.9729
-6.1970 -1.7016 -2.4627 0.9728
-5.9817 -2.3618 -2.4645 0.9728
-3.3065 4.6898 -2.3485 0.9755
-3.8199 4.6648 -2.4676 0.9743
-4.4554 4.0729 -2.4706 0.9742
-4.5977 3.9085 -2.4698 0.9743
-4.8640 3.5652 -2.4682 0.9743
-4.9879 3.3868 -2.4675 0.9743
-5.1052 3.2041 -2.4669 0.9743
-5.4172 2.6330 -2.4652 0.9743
-5.5075 2.4357 -2.4647 0.9743
-5.5907 2.2354 -2.4643 0.9743
-5.6667 2.0323 -2.4639 0.9743
-5.7969 1.6188 -2.4633 0.9743
-5.8508 1.4089 -2.4631 0.9743
-5.9678 0.7695 -2.4627 0.9743
-5.9916 0.5541 -2.4627 0.9743
-6.0077 0.3380 -2.4627 0.9743
-6.0161 0.1214 -2.4628 0.9743
-6.0169 -0.0953 -2.4629 0.9743
-6.0100 -0.3120 -2.4631 0.9743
-5.9954 -0.5283 -2.4633 0.9743
-5.8608 -1.3844 -2.4647 0.9743
-5.8083 -1.5949 -2.4652 0.9743
-5.6809 -2.0097 -2.4663 0.9743
-3.5995 4.3956 -2.4760 0.9755
-3.7540 4.2615 -2.4751 0.9755
-4.3211 3.6734 -2.4717 0.9756
-4.6880 3.1832 -2.4696 0.9756
-4.7984 3.0116 -2.4690 0.9756
-4.9027 2.8361 -2.4684 0.9756
-5.0005 2.6572 -2.4679 0.9756
-5.0919 2.4749 -2.4674 0.9756
-5.1769 2.2895 -2.4669 0.9756
-5.4998 1.3243 -2.4654 0.9756
-5.5803 0.9249 -2.4651 0.9756
-5.6097 0.7233 -2.4651 0.9756
-5.6472 0.3177 -2.4651 0.9756
-5.6559 -0.0896 -2.4653 0.9756
-5.6494 -0.2933 -2.4654 0.9756
-5.6357 -0.4966 -2.4656 0.9756
-5.4595 -1.4991 -2.4674 0.9756
-5.4030 -1.6951 -2.4679 0.9756
-5.2694 -2.0805 -2.4690 0.9756
-3.2409 4.2621 -2.4785 0.9767
-3.5367 4.0149 -2.4767 0.9767
-3.8140 3.7474 -2.4750 0.9767
-3.9452 3.6065 -2.4742 0.9767
-4.4173 2.9994 -2.4715 0.9767
-4.5214 2.8377 -2.4709 0.9767
-4.8781 2.1574 -2.4690 0.9768
-4.9519 1.9800 -2.4686 0.9768
-5.0803 1.6181 -2.4680 0.9768
-5.1348 1.4339 -2.4678 0.9768
-5.2239 1.0604 -2.4674 0.9768
-5.2863 0.6816 -2.4672 0.9768
-5.3217 0.2994 -2.4672 0.9768
-5.3292 0.1075 -2.4673 0.9768
-5.3237 -0.2763 -2.4676 0.9768
-5.2909 -0.6589 -2.4680 0.9768
-5.2644 -0.8491 -2.4683 0.9768
-5.1911 -1.2262 -2.4690 0.9768
-5.0314 -1.7799 -2.4704 0.9768
-2.9141 4.1332 -2.4807 0.9777
-3.0599 4.0241 -2.4798 0.9777
-3.2018 3.9100 -2.4789 0.9777
-3.3394 3.7909 -2.4781 0.9777
-3.4726 3.6670 -2.4773 0.9778
-3.8444 3.2682 -2.4751 0.9778
-4.0675 2.9814 -2.4738 0.9778
-4.2696 2.6797 -2.4727 0.9778
-4.6067 2.0374 -2.4708 0.9778
-4.6765 1.8699 -2.4705 0.9778
-4.7978 1.5281 -2.4699 0.9778
-4.8945 1.1786 -2.4695 0.9778
-4.9334 1.0015 -2.4693 0.9778
-4.9924 0.6437 -2.4692 0.9778
-5.0123 0.4635 -2.4692 0.9778
-5.0258 0.2827 -2.4692 0.9778
-5.0328 0.1016 -2.4692 0.9778
-5.0276 -0.2610 -2.4695 0.9778
-4.9966 -0.6223 -2.4699 0.9778
-4.9716 -0.8019 -2.4702 0.9778
-4.8582 -1.3340 -2.4713 0.9778
-4.8079 -1.5084 -2.4717 0.9778
-4.7513 -1.6808 -2.4722 0.9778
-4.6887 -1.8512 -2.4727 0.9778
-2.7567 3.9099 -2.4818 0.9787
-3.0289 3.6989 -2.4802 0.9787
-3.2853 3.4691 -2.4786 0.9787
-3.5244 3.2218 -2.4772 0.9787
-3.6372 3.0920 -2.4766 0.9787
-3.7452 2.9582 -2.4759 0.9787
-3.8484 2.8208 -2.4753 0.9787
-3.9466 2.6798 -2.4748 0.9787
-4.0397 2.5354 -2.4743 0.9787
-4.1276 2.3878 -2.4738 0.9787
-4.2101 2.2372 -2.4733 0.9787
-4.2872 2.0838 -2.4729 0.9787
-4.3588 1.9277 -2.4725 0.9788
-4.4248 1.7693 -2.4722 0.9788
-4.4852 1.6086 -2.4719 0.9788
-4.5397 1.4459 -2.4717 0.9788
-4.5884 1.2813 -2.4714 0.9788
-4.6312 1.1152 -2.4713 0.9788
-4.6990 0.7789 -2.4710 0.9788
-4.7239 0.6091 -2.4710 0.9788
-4.7622 0.0961 -2.4710 0.9788
-4.7627 -0.0755 -2.4711 0.9788
-4.7456 -0.4181 -2.4714 0.9788
-4.7279 -0.5888 -2.4717 0.9788
-4.7041 -0.7588 -2.4719 0.9788
-4.5967 -1.2622 -2.4729 0.9787
-4.4955 -1.5903 -2.4738 0.9787
-4.4362 -1.7515 -2.4743 0.9787
-3.3400 3.0533 -2.4785 0.9796
-3.4470 2.9303 -2.4779 0.9796
-3.8286 2.4029 -2.4757 0.9796
-3.9902 2.1203 -2.4748 0.9796
-4.0633 1.9749 -2.4745 0.9796
-4.1312 1.8271 -2.4741 0.9796
-4.3489 1.2145 -2.4730 0.9796
-4.4245 0.8982 -2.4727 0.9796
-4.4953 0.4157 -2.4726 0.9796
-4.5142 -0.0715 -2.4728 0.9796
-4.4979 -0.3963 -2.4731 0.9796
-4.4811 -0.5581 -2.4733 0.9796
-4.4302 -0.8794 -2.4738 0.9796
-4.3566 -1.1963 -2.4745 0.9796
-4.2044 -1.6600 -2.4758 0.9796
-2.4791 3.5162 -2.4839 0.9803
-2.6033 3.4236 -2.4832 0.9803
-2.7241 3.3266 -2.4824 0.9803
-2.8413 3.2255 -2.4817 0.9803
-2.9548 3.1202 -2.4810 0.9803
-3.0645 3.0110 -2.4804 0.9804
-3.1701 2.8979 -2.4798 0.9804
-3.2716 2.7812 -2.4792 0.9804
-3.3689 2.6610 -2.4786 0.9804
-3.4618 2.5374 -2.4781 0.9804
-3.6340 2.2807 -2.4771 0.9804
-3.7131 2.1480 -2.4766 0.9804
-3.9808 1.5917 -2.4752 0.9804
-4.0351 1.4472 -2.4750 0.9804
-4.0842 1.3008 -2.4747 0.9804
-4.1666 1.0033 -2.4744 0.9804
-4.1998 0.8526 -2.4742 0.9804
-4.2501 0.5480 -2.4741 0.9804
-4.2850 -0.0679 -2.4743 0.9804
-4.2695 -0.3762 -2.4745 0.9804
-4.2535 -0.5297 -2.4747 0.9804
-4.2321 -0.6826 -2.4750 0.9804
-4.2052 -0.8347 -2.4752 0.9804
-4.1729 -0.9857 -2.4756 0.9804
-4.1353 -1.1355 -2.4759 0.9804
-4.0923 -1.2839 -2.4763 0.9804
-3.9907 -1.5756 -2.4771 0.9804
