ply
format ascii 1.0
element vertex 517
property float32 x
property float32 y
property float32 z
property float32 I
end_header
44.5621 -19.3799 8.5684 0.8209
43.6156 -13.6362 8.0577 0.8306
47.8503 -7.7259 8.5466 0.8213
47.8679 -5.9830 8.5061 0.8221
45.3333 -4.0275 8.0250 0.8312
48.1438 -0.8253 8.4903 0.8224
48.1484 0.8953 8.4913 0.8223
31.4105 -26.2479 6.2708 0.8473
46.4695 -14.5285 7.4587 0.8212
46.4866 -12.7297 7.3837 0.8228
46.5036 -10.9645 7.3194 0.8242
46.5204 -9.2276 7.2655 0.8254
46.5372 -7.5139 7.2216 0.8263
46.5708 -4.1375 7.1625 0.8276
45.0475 -2.3842 6.9107 0.8331
46.6046 -0.7989 7.1406 0.8281
46.6218 0.8670 7.1434 0.8280
31.4768 -32.6246 5.9034 0.8329
31.4268 -28.2283 5.5009 0.8433
46.3166 -16.3189 6.3948 0.8203
46.3529 -12.6931 6.2583 0.8238
48.5920 -7.8457 6.4096 0.8199
48.6278 -4.3202 6.3573 0.8213
44.7123 -2.3664 5.8306 0.8348
48.6634 -0.8342 6.3379 0.8217
31.5276 -37.7344 5.2802 0.8205
31.4975 -35.0717 5.0619 0.8273
31.4698 -32.6174 4.8669 0.8333
31.4442 -30.3424 4.6922 0.8388
31.4203 -28.2225 4.5352 0.8437
31.3980 -26.2374 4.3938 0.8482
37.4465 -25.0126 4.8356 0.8343
41.1514 -25.4095 5.1934 0.8232
31.4904 -35.0637 3.9896 0.8276
31.4630 -32.6103 3.8359 0.8337
31.4139 -28.2167 3.5745 0.8441
44.9547 -2.3793 3.8109 0.8347
31.5127 -37.7165 3.0477 0.8212
31.4561 -32.6032 2.8093 0.8340
31.3856 -26.2271 2.5363 0.8488
31.4199 -24.4035 2.4670 0.8526
41.1518 -25.4097 2.9991 0.8238
45.0203 -2.3827 2.7956 0.8347
31.5053 -37.7076 1.9375 0.8214
31.4762 -35.0478 1.8575 0.8281
31.4244 -30.3232 1.7219 0.8396
31.3795 -26.2220 1.6125 0.8490
34.2157 -24.6669 1.6632 0.8446
37.4470 -25.0130 1.7757 0.8350
41.1520 -25.4098 1.9071 0.8240
31.4424 -32.5890 0.7649 0.8343
31.3948 -28.1996 0.7128 0.8447
34.2159 -24.6670 0.7125 0.8447
37.4471 -25.0131 0.7607 0.8351
41.1522 -25.4099 0.8170 0.8241
44.5433 -2.3575 0.7535 0.8366
31.4905 -37.6899 -0.2765 0.8216
31.4620 -35.0320 -0.2651 0.8283
31.3885 -28.1939 -0.2376 0.8447
34.2160 -24.6671 -0.2375 0.8447
44.3433 -21.1996 -0.2767 0.8215
44.5367 -2.3572 -0.2511 0.8366
17.1276 -43.5872 -1.3187 0.8291
18.4187 -42.3606 -1.3007 0.8312
31.4831 -37.6810 -1.3826 0.8216
31.4288 -32.5749 -1.2746 0.8343
31.4047 -30.3043 -1.2289 0.8398
31.3611 -26.2066 -1.1508 0.8491
41.1526 -25.4102 -1.3619 0.8240
37.7358 -11.7980 -1.1133 0.8537
37.7416 -10.3350 -1.1018 0.8551
37.7637 -4.7201 -1.0716 0.8587
37.7745 -1.9992 -1.0651 0.8595
37.7850 0.7026 -1.0641 0.8597
18.3599 -42.2254 -2.3351 0.8316
31.4220 -32.5678 -2.2951 0.8342
31.3549 -26.2015 -2.0722 0.8490
31.3923 -24.3821 -2.0158 0.8528
37.4477 -25.0134 -2.2838 0.8350
41.1528 -25.4103 -2.4528 0.8239
37.7178 -14.8244 -2.0553 0.8502
37.7299 -11.7961 -2.0048 0.8536
37.7415 -8.8986 -1.9665 0.8562
37.7471 -7.4874 -1.9516 0.8572
37.7526 -6.0956 -1.9394 0.8580
37.7741 -0.6476 -1.9160 0.8596
37.7794 0.7025 -1.9163 0.8596
8.0621 -34.2045 -2.5767 0.8685
10.5497 -33.7520 -2.5928 0.8678
11.7850 -33.4561 -2.6008 0.8674
13.0122 -33.1140 -2.6087 0.8670
14.2293 -32.7256 -2.6165 0.8666
15.4347 -32.2910 -2.6242 0.8663
16.6264 -31.8106 -2.6318 0.8659
17.8025 -31.2845 -2.6392 0.8656
18.9612 -30.7133 -2.6465 0.8652
21.2187 -29.4373 -2.6607 0.8646
23.3839 -27.9875 -2.6741 0.8639
24.4273 -27.1990 -2.6805 0.8636
26.4266 -25.5006 -2.6927 0.8630
27.3789 -24.5924 -2.6984 0.8628
29.1806 -22.6642 -2.7091 0.8623
29.5070 -21.2721 -2.6671 0.8643
29.4973 -19.7029 -2.6009 0.8674
29.6766 -18.3242 -2.5573 0.8695
30.9992 -16.2052 -2.5648 0.8691
32.1558 -13.9843 -2.5710 0.8688
32.6690 -12.8400 -2.5737 0.8687
33.9368 -9.2931 -2.5799 0.8684
34.2661 -8.0792 -2.5814 0.8683
35.1011 -3.1185 -2.5838 0.8682
35.2242 -0.6038 -2.5831 0.8682
35.2115 0.6548 -2.5822 0.8683
5.7420 -24.3613 -2.4029 0.9043
7.9889 -25.5592 -2.5709 0.8980
9.8390 -25.0389 -2.5828 0.8975
10.7516 -24.7271 -2.5886 0.8973
11.6540 -24.3813 -2.5944 0.8971
12.5449 -24.0015 -2.6000 0.8969
16.7802 -21.6081 -2.6265 0.8959
17.5741 -21.0339 -2.6314 0.8957
18.3474 -20.4293 -2.6362 0.8955
19.8266 -19.1319 -2.6451 0.8952
21.2083 -17.7224 -2.6534 0.8949
22.4829 -16.2084 -2.6609 0.8946
24.6777 -12.9005 -2.6734 0.8941
25.1468 -12.0221 -2.6759 0.8940
25.5826 -11.1257 -2.6783 0.8940
25.9839 -10.2126 -2.6803 0.8939
26.9760 -7.3870 -2.6852 0.8937
27.4547 -5.4458 -2.6871 0.8936
27.7833 -3.4726 -2.6881 0.8936
27.8907 -2.4779 -2.6882 0.8936
27.9598 -1.4798 -2.6880 0.8936
27.9905 -0.4798 -2.6876 0.8936
27.9829 0.5203 -2.6870 0.8936
4.9205 -20.8760 -2.5477 0.9172
5.6741 -20.7266 -2.5526 0.9171
7.1666 -20.3449 -2.5622 0.9168
10.0637 -19.2544 -2.5807 0.9162
10.7635 -18.9149 -2.5851 0.9161
11.4516 -18.5492 -2.5895 0.9159
12.1267 -18.1578 -2.5937 0.9158
15.2739 -15.8308 -2.6130 0.9152
15.8508 -15.2954 -2.6165 0.9151
17.4600 -13.5610 -2.6261 0.9148
18.4229 -12.3057 -2.6317 0.9146
18.8691 -11.6509 -2.6342 0.9145
19.6869 -10.2915 -2.6388 0.9144
20.0573 -9.5889 -2.6408 0.9143
20.4013 -8.8724 -2.6426 0.9143
20.7181 -8.1429 -2.6443 0.9142
21.8796 -4.3399 -2.6496 0.9141
22.0246 -3.5561 -2.6501 0.9141
22.1400 -2.7673 -2.6504 0.9140
22.2253 -1.9746 -2.6504 0.9140
22.3008 0.4147 -2.6495 0.9141
4.1131 -17.4504 -2.5403 0.9301
4.7415 -17.3200 -2.5444 0.9300
5.3657 -17.1667 -2.5484 0.9299
6.5983 -16.7917 -2.5563 0.9297
7.2049 -16.5703 -2.5602 0.9296
7.8039 -16.3266 -2.5640 0.9295
8.3945 -16.0607 -2.5677 0.9294
8.9757 -15.7731 -2.5714 0.9293
10.6551 -14.7822 -2.5819 0.9290
11.1908 -14.4105 -2.5852 0.9289
11.7130 -14.0189 -2.5884 0.9289
13.1914 -12.7291 -2.5974 0.9286
13.6522 -12.2627 -2.6001 0.9285
14.5217 -11.2788 -2.6053 0.9284
15.3170 -10.2311 -2.6099 0.9283
15.6854 -9.6851 -2.6120 0.9282
16.0334 -9.1254 -2.6139 0.9282
16.6662 -7.9677 -2.6174 0.9281
17.2114 -6.7647 -2.6203 0.9280
18.0259 -4.2501 -2.6241 0.9279
18.1700 -3.6041 -2.6247 0.9279
18.2899 -2.9531 -2.6250 0.9279
18.5022 -0.9792 -2.6252 0.9279
4.0685 -14.8618 -2.5384 0.9394
5.1332 -14.5726 -2.5453 0.9393
7.1937 -13.7633 -2.5584 0.9390
7.6902 -13.5140 -2.5615 0.9389
8.6559 -12.9608 -2.5675 0.9388
9.1237 -12.6576 -2.5704 0.9387
10.0260 -11.9997 -2.5760 0.9386
10.4590 -11.6458 -2.5786 0.9385
11.2857 -10.8902 -2.5836 0.9384
12.0559 -10.0744 -2.5882 0.9383
12.4184 -9.6452 -2.5904 0.9382
13.0952 -8.7470 -2.5943 0.9382
13.4086 -8.2793 -2.5961 0.9381
13.9828 -7.3096 -2.5993 0.9380
14.7063 -5.7801 -2.6031 0.9380
14.9092 -5.2530 -2.6041 0.9379
15.2558 -4.1776 -2.6058 0.9379
15.5216 -3.0788 -2.6068 0.9379
15.6237 -2.5226 -2.6072 0.9379
15.7654 -1.4006 -2.6074 0.9379
15.8233 -0.2713 -2.6071 0.9379
3.0890 -13.1056 -2.5309 0.9467
4.0266 -12.8824 -2.5369 0.9465
4.9477 -12.5912 -2.5428 0.9464
5.8474 -12.2332 -2.5485 0.9463
6.2875 -12.0296 -2.5513 0.9463
7.1456 -11.5743 -2.5567 0.9461
7.9698 -11.0567 -2.5618 0.9460
8.7555 -10.4791 -2.5667 0.9459
9.4981 -9.8444 -2.5712 0.9458
10.1934 -9.1559 -2.5754 0.9458
10.5219 -8.7925 -2.5773 0.9457
11.1385 -8.0299 -2.5809 0.9456
11.4255 -7.6317 -2.5826 0.9456
11.6979 -7.2230 -2.5841 0.9456
12.1969 -6.3761 -2.5869 0.9455
13.0020 -4.5810 -2.5911 0.9454
13.5342 -2.6846 -2.5935 0.9454
13.6937 -1.7116 -2.5939 0.9454
13.7809 -0.7294 -2.5939 0.9454
13.7971 -0.2365 -2.5937 0.9454
3.9855 -11.3144 -2.5357 0.9521
4.7930 -11.0233 -2.5408 0.9520
5.1889 -10.8557 -2.5433 0.9520
6.3387 -10.2673 -2.5506 0.9519
7.0682 -9.8059 -2.5551 0.9518
8.0968 -9.0155 -2.5614 0.9517
8.4202 -8.7272 -2.5634 0.9516
9.0348 -8.1153 -2.5671 0.9516
9.8701 -7.1155 -2.5720 0.9515
10.1237 -6.7622 -2.5734 0.9514
10.3644 -6.3996 -2.5748 0.9514
10.5916 -6.0282 -2.5761 0.9514
11.3605 -4.4650 -2.5802 0.9513
12.2191 -0.2095 -2.5832 0.9513
2.4649 -10.4575 -2.5251 0.9568
2.8396 -10.3727 -2.5275 0.9568
3.5798 -10.1626 -2.5323 0.9567
4.3042 -9.8990 -2.5369 0.9566
5.3526 -9.4062 -2.5435 0.9565
6.0205 -9.0147 -2.5477 0.9564
6.3437 -8.8008 -2.5497 0.9564
6.6591 -8.5750 -2.5517 0.9564
8.3648 -6.9899 -2.5619 0.9562
9.2946 -5.7391 -2.5673 0.9561
9.4980 -5.4057 -2.5685 0.9561
9.6890 -5.0650 -2.5695 0.9561
9.8675 -4.7174 -2.5705 0.9561
10.0332 -4.3634 -2.5714 0.9560
10.1858 -4.0033 -2.5721 0.9560
10.3251 -3.6379 -2.5728 0.9560
10.4509 -3.2674 -2.5734 0.9560
4.4946 -0.3993 -1.0605 0.9816
10.9412 -0.5791 -2.5750 0.9560
10.9529 0.2037 -2.5746 0.9560
3.2458 -9.2145 -2.5295 0.9604
3.9020 -8.9740 -2.5337 0.9604
4.2236 -8.8360 -2.5357 0.9603
4.5401 -8.6863 -2.5377 0.9603
5.1566 -8.3527 -2.5416 0.9603
6.0336 -7.7696 -2.5470 0.9602
6.3116 -7.5541 -2.5487 0.9601
6.5817 -7.3285 -2.5504 0.9601
7.3412 -6.5940 -2.5549 0.9600
8.0170 -5.7796 -2.5589 0.9600
8.2221 -5.4920 -2.5601 0.9600
8.4167 -5.1970 -2.5612 0.9600
8.7731 -4.5862 -2.5632 0.9599
8.9344 -4.2713 -2.5640 0.9599
9.2220 -3.6246 -2.5655 0.9599
9.4616 -2.9581 -2.5667 0.9599
9.5630 -2.6187 -2.5672 0.9599
9.6519 -2.2757 -2.5676 0.9599
9.7281 -1.9296 -2.5678 0.9598
9.7916 -1.5810 -2.5681 0.9598
3.8403 -0.3412 -0.9982 0.9842
3.8442 -0.2035 -0.9967 0.9842
3.8443 -0.0659 -0.9955 0.9842
2.3534 -8.5967 -2.5232 0.9636
2.9659 -8.4198 -2.5272 0.9636
3.2673 -8.3148 -2.5291 0.9635
3.5650 -8.1989 -2.5310 0.9635
4.1474 -7.9350 -2.5347 0.9635
4.4313 -7.7872 -2.5364 0.9634
4.7100 -7.6292 -2.5382 0.9634
4.9829 -7.4610 -2.5399 0.9634
5.2496 -7.2830 -2.5415 0.9634
5.7635 -6.8981 -2.5447 0.9633
6.0098 -6.6917 -2.5462 0.9633
6.9164 -5.7797 -2.5516 0.9632
7.1219 -5.5315 -2.5528 0.9632
7.5052 -5.0131 -2.5551 0.9632
7.8500 -4.4678 -2.5570 0.9631
8.2907 -3.6056 -2.5594 0.9631
8.4163 -3.3079 -2.5600 0.9631
8.6347 -2.6996 -2.5611 0.9631
8.8080 -2.0767 -2.5619 0.9631
8.8775 -1.7609 -2.5621 0.9631
3.6779 -0.5938 -1.0547 0.9846
3.5950 -0.4493 -1.0256 0.9851
3.5617 -0.1885 -1.0097 0.9853
1.8794 -7.9736 -2.5197 0.9663
3.5479 -7.4225 -2.5304 0.9662
4.3301 -7.0138 -2.5353 0.9661
5.2975 -6.3404 -2.5413 0.9660
5.5237 -6.1504 -2.5427 0.9660
5.7429 -5.9523 -2.5440 0.9660
5.9548 -5.7462 -2.5453 0.9660
6.1593 -5.5324 -2.5465 0.9659
6.7246 -4.8479 -2.5498 0.9659
6.8962 -4.6063 -2.5508 0.9659
7.0589 -4.3586 -2.5517 0.9659
7.2126 -4.1050 -2.5526 0.9659
7.3569 -3.8459 -2.5534 0.9659
7.4917 -3.5816 -2.5541 0.9658
7.6169 -3.3125 -2.5547 0.9658
7.7322 -3.0390 -2.5553 0.9658
7.8374 -2.7614 -2.5559 0.9658
8.0915 -1.9078 -2.5570 0.9658
3.4176 -0.5518 -1.0648 0.9856
3.3520 -0.4190 -1.0390 0.9860
3.3539 0.0624 -1.0318 0.9861
3.5254 -6.7449 -2.5298 0.9684
3.7663 -6.6186 -2.5313 0.9684
4.0028 -6.4836 -2.5328 0.9684
4.2342 -6.3401 -2.5343 0.9684
5.5030 -5.3102 -2.5420 0.9683
6.2136 -4.4795 -2.5462 0.9682
6.3719 -4.2561 -2.5471 0.9682
6.5221 -4.0271 -2.5480 0.9682
7.0370 -3.0603 -2.5508 0.9682
7.1434 -2.8076 -2.5513 0.9682
7.2405 -2.5511 -2.5518 0.9682
7.4064 -2.0281 -2.5526 0.9681
7.4750 -1.7624 -2.5529 0.9681
7.5338 -1.4944 -2.5531 0.9681
3.2151 -0.5191 -1.0826 0.9864
3.1713 -0.3964 -1.0624 0.9866
3.1761 -0.2822 -1.0599 0.9866
3.1786 -0.1682 -1.0581 0.9867
3.1794 -0.0545 -1.0570 0.9867
3.1800 0.0591 -1.0572 0.9867
2.3431 -6.6517 -2.5220 0.9705
2.8154 -6.4751 -2.5250 0.9705
3.4981 -6.1472 -2.5293 0.9704
3.9323 -5.8880 -2.5320 0.9704
4.1423 -5.7467 -2.5333 0.9704
4.3471 -5.5978 -2.5345 0.9703
5.2846 -4.7467 -2.5402 0.9703
5.7686 -4.1587 -2.5431 0.9702
6.0547 -3.7385 -2.5447 0.9702
6.4251 -3.0717 -2.5467 0.9702
6.5322 -2.8408 -2.5473 0.9702
6.6308 -2.6061 -2.5478 0.9702
3.1089 -0.6167 -1.1334 0.9866
3.0638 -0.4947 -1.1098 0.9869
3.0491 -0.1614 -1.0919 0.9871
1.5064 -6.3910 -2.5163 0.9723
1.9612 -6.2744 -2.5192 0.9722
2.8413 -5.9443 -2.5248 0.9722
3.0535 -5.8421 -2.5261 0.9722
3.6666 -5.4901 -2.5300 0.9721
3.8622 -5.3582 -2.5312 0.9721
4.2389 -5.0734 -2.5335 0.9721
4.7634 -4.5964 -2.5367 0.9720
5.5140 -3.6831 -2.5411 0.9720
5.7661 -3.2818 -2.5425 0.9720
5.9886 -2.8630 -2.5437 0.9720
6.1802 -2.4290 -2.5447 0.9720
6.2641 -2.2070 -2.5451 0.9720
6.4666 -1.5247 -2.5460 0.9719
2.9648 -0.5881 -1.1583 0.9871
2.9287 -0.1550 -1.1239 0.9875
2.9303 -0.0502 -1.1231 0.9875
2.9295 0.0545 -1.1228 0.9875
2.4572 -5.6512 -2.5221 0.9737
2.8574 -5.4668 -2.5246 0.9737
3.0523 -5.3639 -2.5258 0.9737
3.2435 -5.2539 -2.5270 0.9737
3.9659 -4.7466 -2.5315 0.9736
4.6087 -4.1396 -2.5354 0.9736
5.3935 -3.0697 -2.5399 0.9735
5.6014 -2.6779 -2.5410 0.9735
5.6946 -2.4766 -2.5415 0.9735
5.9297 -1.8539 -2.5427 0.9735
5.9928 -1.6410 -2.5430 0.9735
2.8318 -0.5617 -1.1816 0.9876
2.8066 -0.3508 -1.1576 0.9878
2.8116 -0.2498 -1.1553 0.9879
2.8155 -0.1490 -1.1539 0.9879
1.5243 -5.5679 -2.5159 0.9751
1.7231 -5.5127 -2.5172 0.9751
2.1145 -5.3810 -2.5197 0.9751
2.3064 -5.3045 -2.5209 0.9751
3.3914 -4.7050 -2.5277 0.9750
4.0333 -4.1804 -2.5316 0.9750
4.3245 -3.8844 -2.5333 0.9750
4.4619 -3.7286 -2.5342 0.9749
4.5937 -3.5679 -2.5349 0.9749
4.7196 -3.4024 -2.5357 0.9749
4.8395 -3.2325 -2.5363 0.9749
4.9531 -3.0583 -2.5370 0.9749
5.0604 -2.8801 -2.5376 0.9749
5.1612 -2.6981 -2.5381 0.9749
5.3427 -2.3235 -2.5391 0.9749
5.4232 -2.1315 -2.5395 0.9749
5.4967 -1.9367 -2.5399 0.9749
5.6222 -1.5396 -2.5405 0.9749
2.7238 -0.5403 -1.2102 0.9880
2.7176 -0.3397 -1.1936 0.9881
2.7200 -0.2417 -1.1901 0.9882
2.7250 -0.0467 -1.1878 0.9882
2.7236 0.0506 -1.1872 0.9882
1.6218 -5.1885 -2.5163 0.9763
1.8069 -5.1297 -2.5175 0.9763
2.6959 -4.7375 -2.5231 0.9763
3.0298 -4.5366 -2.5252 0.9762
3.1912 -4.4272 -2.5262 0.9762
3.3486 -4.3121 -2.5272 0.9762
3.7949 -3.9332 -2.5299 0.9762
3.9342 -3.7964 -2.5307 0.9762
4.4402 -3.2010 -2.5337 0.9762
4.5529 -3.0411 -2.5343 0.9762
4.6597 -2.8772 -2.5349 0.9762
4.7606 -2.7095 -2.5355 0.9761
4.8553 -2.5382 -2.5360 0.9761
4.9438 -2.3635 -2.5365 0.9761
5.0260 -2.1858 -2.5369 0.9761
5.2331 -1.6361 -2.5380 0.9761
5.2888 -1.4483 -2.5382 0.9761
2.6461 -0.6239 -1.2584 0.9881
2.6291 -0.5215 -1.2407 0.9883
2.6396 -0.3299 -1.2314 0.9883
2.6485 -0.1402 -1.2277 0.9884
2.6485 0.0492 -1.2261 0.9884
1.1754 -4.9869 -2.5132 0.9774
1.3535 -4.9440 -2.5144 0.9774
2.3806 -4.5546 -2.5209 0.9774
2.5428 -4.4685 -2.5219 0.9774
3.1582 -4.0668 -2.5258 0.9773
4.0755 -3.1654 -2.5313 0.9773
4.1871 -3.0185 -2.5319 0.9773
4.5783 -2.3934 -2.5341 0.9772
4.7391 -2.0610 -2.5350 0.9772
4.8104 -1.8907 -2.5353 0.9772
4.9343 -1.5427 -2.5359 0.9772
2.9469 -0.8070 -1.4988 0.9865
2.6133 -0.6162 -1.3170 0.9881
2.6050 -0.4206 -1.2944 0.9883
2.6038 -0.3255 -1.2872 0.9884
2.6027 -0.2312 -1.2817 0.9884
1.1112 -4.7142 -2.5126 0.9784
1.2794 -4.6735 -2.5137 0.9784
1.6112 -4.5741 -2.5158 0.9784
2.0939 -4.3807 -2.5189 0.9784
2.4033 -4.2233 -2.5209 0.9783
2.7007 -4.0439 -2.5227 0.9783
2.8444 -3.9462 -2.5236 0.9783
2.9846 -3.8434 -2.5245 0.9783
3.2536 -3.6228 -2.5261 0.9783
3.5061 -3.3832 -2.5276 0.9783
3.9564 -2.8523 -2.5303 0.9783
4.2416 -2.4141 -2.5319 0.9782
4.4047 -2.1058 -2.5328 0.9782
4.4778 -1.9474 -2.5332 0.9782
4.6066 -1.6231 -2.5338 0.9782
2.6281 -0.7197 -1.4136 0.9878
2.5820 -0.4169 -1.3568 0.9883
2.5802 -0.2292 -1.3438 0.9884
2.5803 -0.1366 -1.3405 0.9884
2.5803 0.0480 -1.3388 0.9884
1.6801 -4.2756 -2.5161 0.9793
2.2755 -3.9987 -2.5199 0.9792
2.4178 -3.9162 -2.5208 0.9792
2.6931 -3.7361 -2.5225 0.9792
2.9549 -3.5365 -2.5241 0.9792
3.0802 -3.4297 -2.5248 0.9792
3.3192 -3.2029 -2.5263 0.9792
3.4324 -3.0831 -2.5270 0.9792
3.6456 -2.8315 -2.5282 0.9792
3.7453 -2.7001 -2.5288 0.9792
3.8402 -2.5651 -2.5293 0.9792
3.9302 -2.4267 -2.5298 0.9792
4.0151 -2.2852 -2.5303 0.9792
4.0949 -2.1407 -2.5308 0.9791
4.1694 -1.9933 -2.5312 0.9791
4.2386 -1.8433 -2.5315 0.9791
4.3023 -1.6909 -2.5318 0.9791
4.3605 -1.5363 -2.5321 0.9791
4.4130 -1.3797 -2.5324 0.9791
2.5530 -0.6019 -1.4366 0.9881
2.5574 -0.4129 -1.4188 0.9883
2.5588 -0.3198 -1.4124 0.9883
2.5594 -0.2274 -1.4073 0.9883
2.5595 -0.1355 -1.4038 0.9884
2.5595 -0.0439 -1.4020 0.9884
2.5595 0.0476 -1.4021 0.9884
1.2988 -4.1553 -2.5135 0.9801
1.5934 -4.0550 -2.5154 0.9801
1.8803 -3.9337 -2.5172 0.9801
2.0203 -3.8654 -2.5181 0.9801
2.2927 -3.7137 -2.5198 0.9800
2.4247 -3.6306 -2.5206 0.9800
2.8019 -3.3534 -2.5230 0.9800
2.9207 -3.2521 -2.5237 0.9800
3.1472 -3.0369 -2.5250 0.9800
3.2545 -2.9233 -2.5257 0.9800
3.4566 -2.6847 -2.5269 0.9800
3.6410 -2.4320 -2.5279 0.9800
3.7263 -2.3008 -2.5284 0.9800
3.8068 -2.1666 -2.5289 0.9800
3.9530 -1.8898 -2.5297 0.9800
4.1838 -1.3081 -2.5308 0.9800
2.5704 -0.7039 -1.5386 0.9878
2.5339 -0.5975 -1.5031 0.9880
2.5348 -0.5028 -1.4920 0.9881
2.5370 -0.1343 -1.4668 0.9883
