ply
format ascii 1.0
element vertex 645
property float32 x
property float32 y
property float32 z
property float32 I
end_header
-1.2282 31.6787 5.5900 0.8792
-2.1401 28.6310 5.0625 0.8899
-3.0453 27.4547 4.8707 0.8939
-4.0742 27.6441 4.9271 0.8927
-5.4652 29.6654 5.3188 0.8847
-6.5528 25.2513 4.6000 0.8995
-8.5724 25.3896 4.7252 0.8969
-9.6347 25.4826 4.8037 0.8952
-10.7371 25.5855 4.8926 0.8934
-11.8857 25.6992 4.9926 0.8914
-15.6505 24.0645 5.0617 0.8899
-42.1933 18.8645 8.1496 0.8288
-37.9492 15.3592 7.2187 0.8468
-37.8930 13.7771 7.1095 0.8489
-1.2157 31.3572 4.8074 0.8807
-2.0218 27.0482 4.1552 0.8960
-3.0960 27.9115 4.3021 0.8926
-4.0755 27.6531 4.2821 0.8931
-5.2180 28.3237 4.4120 0.8900
-5.8038 26.1942 4.1101 0.8971
-7.3736 24.7309 3.9534 0.9008
-8.3662 24.7787 4.0065 0.8996
-10.4602 24.9256 4.1411 0.8964
-11.5730 25.0232 4.2235 0.8944
-12.7355 25.1306 4.3160 0.8923
-13.9549 25.2489 4.4194 0.8898
-15.1589 25.2450 4.5111 0.8877
-14.8289 21.1050 3.9515 0.9009
-16.1290 21.2898 4.0917 0.8976
-40.8552 20.0535 6.9721 0.8318
-0.0982 33.9580 4.4221 0.8720
-1.3046 33.6481 4.3850 0.8730
-2.0370 27.2509 3.5585 0.8956
-3.1480 28.3805 3.7184 0.8912
-4.0878 27.7364 3.6509 0.8931
-5.1159 27.7693 3.6770 0.8923
-6.2681 24.1545 3.2496 0.9042
-7.2121 24.1894 3.2870 0.9032
-8.1806 24.2291 3.3301 0.9020
-10.2077 24.3242 3.4351 0.8991
-13.5836 24.5770 3.6567 0.8929
-14.2648 21.9338 3.4071 0.8998
-14.9505 21.2781 3.3864 0.9004
-17.1008 20.9664 3.5232 0.8966
-42.1423 20.6852 6.1132 0.8275
-42.8544 19.1600 6.1129 0.8275
-44.1738 16.0607 6.1208 0.8273
-0.0976 33.7415 3.6232 0.8731
-3.1046 27.9895 3.0240 0.8929
-5.9960 27.0619 2.9764 0.8945
-8.0041 23.7064 2.6868 0.9042
-8.9769 23.7427 2.7257 0.9029
-11.0204 23.8284 2.8191 0.8998
-12.1011 23.8787 2.8746 0.8979
-13.7984 22.9792 2.8782 0.8978
-14.9508 21.2786 2.7926 0.9007
-45.9285 16.6987 5.2477 0.8215
-1.2202 31.4715 2.6662 0.8812
-2.4050 32.1737 2.7312 0.8785
-5.3942 29.2800 2.5203 0.8873
-6.2029 23.9032 2.0905 0.9056
-7.0378 23.6048 2.0851 0.9059
-7.9730 23.6144 2.1099 0.9048
-9.9182 23.6343 2.1697 0.9022
-13.0804 23.6666 2.2891 0.8971
-13.6315 22.7012 2.2416 0.8992
-14.9271 21.2449 2.1980 0.9010
-16.1040 21.2569 2.2575 0.8985
-35.9656 28.5786 3.8887 0.8316
-35.8880 26.4748 3.7752 0.8361
-35.8192 24.4909 3.6732 0.8401
-2.4085 32.2206 2.0036 0.8785
-7.5879 34.2468 2.1752 0.8689
-7.6857 22.7632 1.4898 0.9082
-8.6688 22.9281 1.5200 0.9064
-9.6985 23.1107 1.5542 0.9044
-10.7278 23.1956 1.5847 0.9026
-11.7723 23.2299 1.6149 0.9009
-12.8646 23.2762 1.6491 0.8989
-14.9273 21.2452 1.6101 0.9012
-20.1249 22.9429 1.8925 0.8849
-20.8676 22.1358 1.8864 0.8852
-35.5178 28.2228 2.8131 0.8338
-37.7977 23.9015 2.7731 0.8359
-41.0366 23.9346 2.9459 0.8266
-6.8934 23.1206 0.9513 0.9079
-6.7673 20.0431 0.8342 0.9188
-7.5812 20.0515 0.8453 0.9178
-9.2817 20.0689 0.8719 0.9153
-10.4527 20.6260 0.9118 0.9116
-11.4325 20.6850 0.9319 0.9097
-12.4611 20.7521 0.9545 0.9076
-13.5456 20.8280 0.9797 0.9053
-14.9276 21.2455 1.0238 0.9013
-16.1046 21.2576 1.0516 0.8987
-17.3766 21.3045 1.0840 0.8958
-21.4099 22.7110 1.2307 0.8825
-30.5140 26.0849 1.5829 0.8515
-30.3975 22.4245 1.4895 0.8597
-32.8380 22.4526 1.5686 0.8528
-0.0187 6.4871 0.1096 0.9744
-6.8969 23.1323 0.4077 0.9079
-8.8311 23.3572 0.4218 0.9049
-9.8061 23.3672 0.4281 0.9036
-10.8119 23.3775 0.4351 0.9021
-11.8524 23.3881 0.4429 0.9004
-12.9326 23.3992 0.4516 0.8986
-13.2254 20.3355 0.4098 0.9075
-14.9521 21.2805 0.4393 0.9012
-5.1274 6.7681 0.1434 0.9666
-21.3840 22.6835 0.5266 0.8827
-23.0197 22.7279 0.5464 0.8786
-28.9471 23.0017 0.6245 0.8625
-0.2514 6.4863 -0.0365 0.9744
-0.9679 6.5677 -0.0374 0.9738
-1.2098 6.5668 -0.0376 0.9736
-2.7535 6.5616 -0.0401 0.9719
-3.0342 6.5606 -0.0407 0.9715
-3.3242 6.5596 -0.0414 0.9710
-3.6248 6.5586 -0.0422 0.9705
-3.9376 6.5576 -0.0431 0.9699
-4.2640 6.5565 -0.0440 0.9692
-5.2715 6.4632 -0.0470 0.9672
-5.6733 6.4679 -0.0484 0.9662
-6.1690 6.5440 -0.0506 0.9647
-7.1179 6.5408 -0.0544 0.9621
-8.8582 6.5348 -0.0620 0.9569
-9.5539 6.5325 -0.0652 0.9548
-11.2124 6.5397 -0.0731 0.9494
-15.9034 6.4367 -0.0966 0.9337
-0.4910 6.5693 -0.1855 0.9740
-1.2098 6.5668 -0.1880 0.9736
-1.4548 6.5660 -0.1894 0.9734
-2.2160 6.5634 -0.1951 0.9727
-2.4812 6.5625 -0.1976 0.9723
-3.0342 6.5606 -0.2035 0.9715
-4.2640 6.5565 -0.2202 0.9692
-4.6058 6.5553 -0.2256 0.9684
-4.9652 6.5541 -0.2315 0.9676
-5.2716 6.4632 -0.2348 0.9672
-6.1690 6.5440 -0.2532 0.9647
-7.1179 6.5408 -0.2722 0.9621
-7.6491 6.5389 -0.2834 0.9605
-8.2265 6.5370 -0.2959 0.9588
-8.8582 6.5348 -0.3100 0.9569
-10.3261 6.5298 -0.3440 0.9523
-11.2124 6.5397 -0.3655 0.9494
-17.9151 6.5136 -0.5368 0.9266
6.9161 48.8865 -2.5039 0.8206
5.1318 48.8441 -2.4907 0.8214
-0.0187 6.4871 -0.3290 0.9744
-0.7285 6.5685 -0.3352 0.9739
-1.4548 6.5660 -0.3411 0.9734
-2.2160 6.5634 -0.3513 0.9726
-3.0342 6.5606 -0.3666 0.9715
-3.3242 6.5596 -0.3729 0.9710
-5.6733 6.4679 -0.4363 0.9661
-6.1690 6.5440 -0.4561 0.9646
-6.6263 6.5424 -0.4722 0.9634
-7.1179 6.5408 -0.4902 0.9620
-7.6491 6.5389 -0.5103 0.9605
-8.2265 6.5370 -0.5329 0.9588
-9.5539 6.5325 -0.5869 0.9547
-10.3261 6.5298 -0.6196 0.9522
-12.1910 6.5364 -0.7015 0.9461
-13.3088 6.5326 -0.7519 0.9424
-15.9034 6.4367 -0.8701 0.9336
-17.9151 6.5136 -0.9667 0.9265
3.3527 31.9108 -2.3526 0.8792
1.0579 32.0781 -2.3533 0.8792
-0.0187 6.4871 -0.4756 0.9743
-0.2515 6.4863 -0.4759 0.9743
-0.4910 6.5693 -0.4830 0.9739
-0.9679 6.5677 -0.4868 0.9737
-1.2097 6.5668 -0.4896 0.9736
-1.7036 6.5652 -0.4973 0.9732
-2.2160 6.5634 -0.5079 0.9726
-3.0342 6.5606 -0.5300 0.9714
-5.2716 6.4632 -0.6115 0.9671
-6.1690 6.5440 -0.6594 0.9646
-7.6491 6.5389 -0.7378 0.9604
-8.2265 6.5370 -0.7704 0.9587
-8.8582 6.5348 -0.8071 0.9568
-9.5539 6.5325 -0.8486 0.9546
-10.3261 6.5298 -0.8958 0.9522
-11.2124 6.5397 -0.9517 0.9493
-12.1910 6.5364 -1.0142 0.9460
-14.6011 6.5282 -1.1727 0.9379
2.5661 24.4239 -2.3577 0.9060
1.6884 24.4935 -2.3571 0.9061
0.8072 24.4799 -2.3515 0.9063
-0.2515 6.4863 -0.6232 0.9743
-0.4910 6.5693 -0.6324 0.9739
-0.7285 6.5685 -0.6345 0.9738
-1.4548 6.5660 -0.6456 0.9733
-1.9571 6.5643 -0.6576 0.9729
-2.2160 6.5634 -0.6651 0.9725
-2.4812 6.5625 -0.6736 0.9722
-3.3242 6.5597 -0.7060 0.9709
-3.6248 6.5586 -0.7194 0.9703
-3.9376 6.5576 -0.7343 0.9697
-4.2640 6.5565 -0.7509 0.9691
-4.6058 6.5553 -0.7691 0.9683
-5.2715 6.4632 -0.8007 0.9670
-5.6734 6.4679 -0.8260 0.9660
-7.1179 6.5408 -0.9281 0.9619
-7.6491 6.5389 -0.9661 0.9604
-8.2265 6.5370 -1.0088 0.9587
-9.5539 6.5325 -1.1111 0.9546
-10.3261 6.5298 -1.1729 0.9521
-12.1910 6.5364 -1.3280 0.9459
-15.9034 6.4367 -1.6471 0.9334
-17.9151 6.5136 -1.8301 0.9263
2.0753 19.7528 -2.3593 0.9231
0.6521 19.7750 -2.3503 0.9234
-0.0187 6.4871 -0.7706 0.9742
-0.4910 6.5693 -0.7825 0.9738
-0.7285 6.5685 -0.7850 0.9737
-0.9679 6.5677 -0.7886 0.9736
-1.2098 6.5668 -0.7932 0.9735
-1.7036 6.5652 -0.8057 0.9730
-2.4812 6.5625 -0.8334 0.9721
-2.7536 6.5616 -0.8453 0.9717
-3.9376 6.5576 -0.9086 0.9697
-4.9652 6.5541 -0.9767 0.9674
-6.6263 6.5424 -1.1061 0.9632
-7.1179 6.5408 -1.1483 0.9618
-8.8582 6.5348 -1.3076 0.9566
-9.5539 6.5325 -1.3748 0.9544
-10.3261 6.5298 -1.4513 0.9520
2.3339 16.4970 -2.3607 0.9349
1.7383 16.5451 -2.3572 0.9350
0.5465 16.5728 -2.3495 0.9352
-0.0187 6.4871 -0.9191 0.9741
-0.4910 6.5693 -0.9334 0.9737
-0.7286 6.5685 -0.9364 0.9737
-0.9679 6.5677 -0.9406 0.9735
-1.2098 6.5668 -0.9461 0.9734
-1.9571 6.5643 -0.9705 0.9727
-2.2160 6.5634 -0.9815 0.9724
-3.3242 6.5597 -1.0420 0.9707
-3.6249 6.5586 -1.0618 0.9702
-4.6058 6.5553 -1.1351 0.9682
-4.9652 6.5541 -1.1650 0.9673
-5.2716 6.4632 -1.1817 0.9669
-5.6733 6.4679 -1.2190 0.9658
-6.6263 6.5424 -1.3194 0.9631
-7.1179 6.5408 -1.3697 0.9617
-8.2265 6.5370 -1.4888 0.9584
-8.8582 6.5348 -1.5597 0.9565
-9.5539 6.5325 -1.6399 0.9543
-13.3088 6.5326 -2.1006 0.9419
-14.4958 6.4811 -2.2498 0.9379
-14.7117 5.9543 -2.2487 0.9379
1.4941 14.2210 -2.3556 0.9437
0.9820 14.2459 -2.3524 0.9438
0.4700 14.2504 -2.3489 0.9438
-0.2514 6.4863 -1.0693 0.9740
-0.4910 6.5693 -1.0852 0.9736
-0.7286 6.5685 -1.0887 0.9736
-0.9679 6.5677 -1.0936 0.9734
-1.2098 6.5668 -1.1000 0.9733
-1.7036 6.5652 -1.1174 0.9729
-1.9571 6.5643 -1.1284 0.9726
-2.7535 6.5616 -1.1723 0.9716
-3.6248 6.5586 -1.2345 0.9701
-3.9376 6.5576 -1.2601 0.9695
-4.2640 6.5565 -1.2884 0.9688
-4.9652 6.5541 -1.3546 0.9672
-5.2716 6.4632 -1.3740 0.9668
-5.6734 6.4679 -1.4173 0.9657
-6.6263 6.5424 -1.5340 0.9630
-7.1179 6.5408 -1.5925 0.9616
-7.6491 6.5389 -1.6578 0.9600
-10.3261 6.5298 -2.0127 0.9517
-12.3391 6.0566 -2.2644 0.9458
-12.5424 5.6077 -2.2633 0.9458
-12.7300 5.1522 -2.2624 0.9458
-12.9016 4.6908 -2.2615 0.9459
1.3089 12.4579 -2.3545 0.9503
0.8604 12.4812 -2.3515 0.9504
-0.0187 6.4871 -1.2193 0.9739
-0.4910 6.5693 -1.2382 0.9735
-0.7286 6.5685 -1.2422 0.9735
-1.4548 6.5660 -1.2641 0.9730
-1.7036 6.5652 -1.2749 0.9728
-2.2160 6.5634 -1.3021 0.9722
-2.4812 6.5625 -1.3187 0.9718
-3.3242 6.5596 -1.3822 0.9705
-3.6249 6.5586 -1.4085 0.9700
-3.9376 6.5576 -1.4377 0.9693
-4.2640 6.5565 -1.4700 0.9687
-4.6058 6.5553 -1.5059 0.9679
-4.9652 6.5541 -1.5455 0.9671
-5.2715 6.4632 -1.5677 0.9666
-6.6263 6.5424 -1.7503 0.9628
-7.1179 6.5408 -1.8170 0.9614
-7.6491 6.5389 -1.8915 0.9599
-9.5539 6.5325 -2.1754 0.9540
-10.2436 6.4776 -2.2781 0.9519
-10.8636 5.3323 -2.2747 0.9519
1.1635 11.0734 -2.3536 0.9555
0.7648 11.0951 -2.3508 0.9555
0.3661 11.1023 -2.3481 0.9556
-0.0187 6.4871 -1.3712 0.9738
-0.2514 6.4863 -1.3721 0.9738
-0.9679 6.5677 -1.4033 0.9732
-1.2098 6.5668 -1.4114 0.9731
-1.4548 6.5660 -1.4216 0.9729
-1.7036 6.5652 -1.4337 0.9727
-2.2160 6.5634 -1.4643 0.9721
-2.4812 6.5625 -1.4830 0.9717
-2.7535 6.5616 -1.5042 0.9713
-3.6248 6.5586 -1.5840 0.9698
-3.9376 6.5576 -1.6168 0.9692
-4.2640 6.5565 -1.6532 0.9685
-4.9652 6.5541 -1.7381 0.9669
-5.2716 6.4632 -1.7630 0.9665
-5.6733 6.4679 -1.8186 0.9654
-6.1690 6.5440 -1.9010 0.9639
-7.1179 6.5408 -2.0433 0.9612
-7.6491 6.5389 -2.1271 0.9597
-8.7114 6.4265 -2.2883 0.9567
-8.9313 6.1066 -2.2870 0.9567
-9.3365 5.4455 -2.2847 0.9568
-9.5215 5.1050 -2.2837 0.9568
-9.6945 4.7585 -2.2828 0.9568
-10.3736 4.6380 -2.4020 0.9546
-10.6522 4.3113 -2.4291 0.9541
1.4036 9.9215 -2.3550 0.9597
-0.2515 6.4863 -1.5256 0.9737
-0.7286 6.5685 -1.5532 0.9732
-0.9679 6.5677 -1.5602 0.9731
-1.2098 6.5668 -1.5693 0.9729
-1.4548 6.5660 -1.5806 0.9727
-1.7036 6.5652 -1.5941 0.9725
-2.2160 6.5634 -1.6281 0.9719
-2.7535 6.5616 -1.6724 0.9712
-3.0342 6.5606 -1.6988 0.9707
-3.3242 6.5597 -1.7283 0.9702
-4.2640 6.5565 -1.8381 0.9684
-5.6733 6.4679 -2.0220 0.9653
-8.0545 5.5072 -2.2932 0.9607
-8.2429 5.2125 -2.2921 0.9607
-8.6976 4.6632 -2.3194 0.9603
-9.3115 4.5705 -2.4378 0.9583
-9.7395 3.5411 -2.4356 0.9583
1.2737 9.0028 -2.3542 0.9631
0.9492 9.0345 -2.3521 0.9632
0.6241 9.0541 -2.3498 0.9632
0.2989 9.0619 -2.3476 0.9632
-0.2514 6.4863 -1.6807 0.9735
-0.7285 6.5685 -1.7111 0.9731
-0.9679 6.5677 -1.7188 0.9729
-1.2098 6.5668 -1.7289 0.9728
-1.9571 6.5643 -1.7735 0.9721
-2.2160 6.5634 -1.7936 0.9718
-2.7535 6.5616 -1.8424 0.9710
-3.3242 6.5597 -1.9040 0.9701
-3.6248 6.5586 -1.9402 0.9695
-4.2639 6.5565 -2.0250 0.9682
-6.1080 6.4792 -2.3055 0.9639
-6.9562 5.5274 -2.3005 0.9640
-7.3275 5.0101 -2.2983 0.9640
-7.4992 4.7422 -2.2973 0.9640
-8.4723 4.1586 -2.4436 0.9618
-8.6133 3.8510 -2.4429 0.9618
-8.7434 3.5388 -2.4422 0.9618
1.1646 8.2316 -2.3535 0.9660
0.8679 8.2610 -2.3515 0.9661
0.5707 8.2795 -2.3494 0.9661
-0.0187 6.4871 -1.8364 0.9734
-0.2515 6.4863 -1.8376 0.9734
-0.4910 6.5693 -1.8649 0.9730
-0.7286 6.5685 -1.8709 0.9729
-1.2098 6.5668 -1.8903 0.9726
-1.9571 6.5643 -1.9391 0.9719
-2.4812 6.5625 -1.9861 0.9713
-2.7536 6.5616 -2.0145 0.9709
-3.0342 6.5606 -2.0463 0.9704
-3.3242 6.5597 -2.0818 0.9699
-3.9376 6.5576 -2.1653 0.9687
-4.2640 6.5565 -2.2141 0.9680
-4.6058 6.5553 -2.2680 0.9672
-4.9344 6.5133 -2.3133 0.9666
-5.3821 6.1357 -2.3105 0.9666
-5.5954 5.9355 -2.3092 0.9667
-6.8301 4.6700 -2.3423 0.9662
-7.6251 4.0883 -2.4493 0.9647
-7.7644 3.8111 -2.4486 0.9647
1.0715 7.5743 -2.3529 0.9685
0.7987 7.6018 -2.3510 0.9685
0.2516 7.6277 -2.3474 0.9686
-0.0187 6.4871 -1.9953 0.9732
-0.7286 6.5685 -2.0327 0.9727
-0.9679 6.5677 -2.0419 0.9726
-1.7036 6.5652 -2.0862 0.9720
-1.9571 6.5643 -2.1068 0.9717
-2.4812 6.5625 -2.1579 0.9711
-2.7536 6.5616 -2.1887 0.9707
-3.3242 6.5597 -2.2619 0.9697
-3.8835 6.4673 -2.3203 0.9689
-4.1103 6.3200 -2.3189 0.9689
-4.3316 6.1650 -2.3175 0.9690
-4.5472 6.0023 -2.3161 0.9690
-4.7569 5.8321 -2.3149 0.9690
-4.9602 5.6548 -2.3136 0.9690
-5.1571 5.4705 -2.3124 0.9690
-5.5305 5.0820 -2.3102 0.9691
-5.7066 4.8783 -2.3091 0.9691
-6.3165 4.6597 -2.4143 0.9677
-7.0299 3.7692 -2.4534 0.9672
-7.1586 3.5137 -2.4528 0.9672
-7.3883 2.9903 -2.4516 0.9672
-7.4892 2.7229 -2.4510 0.9672
0.4860 7.0499 -2.3490 0.9707
0.2327 7.0577 -2.3473 0.9707
-0.2515 6.4863 -2.1577 0.9730
-0.7285 6.5685 -2.1968 0.9725
-1.4547 6.5660 -2.2355 0.9720
-2.2433 6.6441 -2.3310 0.9709
-2.7102 6.4580 -2.3281 0.9709
-3.1620 6.2396 -2.3252 0.9709
-3.8071 5.8538 -2.3211 0.9710
-4.2122 5.5599 -2.3186 0.9710
-4.5951 5.2385 -2.3163 0.9711
-4.9540 4.8912 -2.3141 0.9711
-5.4623 4.6695 -2.3887 0.9702
-5.7967 4.6061 -2.4611 0.9693
-5.9559 4.3937 -2.4602 0.9693
-6.1074 4.1759 -2.4593 0.9693
-6.2511 3.9529 -2.4585 0.9693
-6.3869 3.7251 -2.4577 0.9693
-6.5144 3.4928 -2.4570 0.9693
-6.8469 2.7711 -2.4553 0.9693
-6.9405 2.5234 -2.4548 0.9694
0.9213 6.5125 -2.3521 0.9724
0.6868 6.5370 -2.3505 0.9725
0.4517 6.5530 -2.3490 0.9725
0.2164 6.5606 -2.3474 0.9725
-0.2540 6.5506 -2.3443 0.9725
-1.1846 6.4302 -2.3382 0.9726
-1.4135 6.3796 -2.3367 0.9726
-1.8647 6.2541 -2.3338 0.9727
-2.0864 6.1794 -2.3324 0.9727
-2.3052 6.0970 -2.3310 0.9727
-2.5208 6.0069 -2.3296 0.9727
-2.7329 5.9092 -2.3282 0.9727
-3.1458 5.6918 -2.3256 0.9728
-3.3461 5.5724 -2.3244 0.9728
-4.4456 4.7158 -2.3176 0.9728
-4.7355 4.6755 -2.3798 0.9721
-5.0694 4.6583 -2.4620 0.9712
-5.2393 4.4788 -2.4649 0.9711
-5.3945 4.2865 -2.4640 0.9712
-5.6839 3.8863 -2.4623 0.9712
-6.0631 3.2508 -2.4602 0.9712
-6.2775 2.8066 -2.4590 0.9712
-6.3728 2.5793 -2.4585 0.9712
-6.4600 2.3487 -2.4581 0.9712
0.8597 6.0769 -2.3520 0.9741
0.4215 6.1153 -2.3490 0.9741
-0.2370 6.1138 -2.3447 0.9741
-0.4558 6.0976 -2.3432 0.9741
-0.6737 6.0736 -2.3418 0.9742
-0.8905 6.0419 -2.3404 0.9742
-1.1058 6.0025 -2.3390 0.9742
-1.3196 5.9555 -2.3376 0.9742
-1.7409 5.8388 -2.3349 0.9742
-1.9479 5.7693 -2.3335 0.9743
-2.1523 5.6926 -2.3322 0.9743
-2.3537 5.6087 -2.3309 0.9743
-2.9376 5.3151 -2.3272 0.9743
-3.1247 5.2038 -2.3261 0.9743
-3.3077 5.0859 -2.3249 0.9743
-3.4862 4.9617 -2.3238 0.9744
-3.8342 4.7009 -2.3247 0.9743
-4.5851 4.5270 -2.4692 0.9728
-4.8940 4.1837 -2.4674 0.9728
-5.5531 3.2389 -2.4636 0.9728
-5.8648 2.6221 -2.4619 0.9729
-5.9538 2.4097 -2.4614 0.9729
0.6001 5.7116 -2.3505 0.9755
0.3947 5.7261 -2.3491 0.9755
0.1891 5.7332 -2.3477 0.9755
-0.0166 5.7330 -2.3464 0.9755
-0.6309 5.6882 -2.3423 0.9756
-0.8340 5.6587 -2.3410 0.9756
-1.4343 5.5272 -2.3371 0.9756
-1.6307 5.4693 -2.3358 0.9756
-1.8247 5.4044 -2.3346 0.9756
-2.0162 5.3327 -2.3334 0.9757
-2.5732 5.0777 -2.3298 0.9757
-2.7523 4.9798 -2.3287 0.9757
-3.0992 4.7653 -2.3265 0.9757
-3.8052 4.6654 -2.4640 0.9743
-4.1435 4.3953 -2.4722 0.9742
-4.2968 4.2424 -2.4713 0.9742
-4.5866 3.9208 -2.4696 0.9743
-4.7226 3.7527 -2.4688 0.9743
-4.8526 3.5798 -2.4680 0.9743
-4.9764 3.4026 -2.4673 0.9743
-5.0938 3.2211 -2.4666 0.9743
-5.2047 3.0357 -2.4660 0.9743
-5.3090 2.8464 -2.4654 0.9743
-5.4064 2.6537 -2.4649 0.9743
-5.4971 2.4577 -2.4644 0.9743
-5.5806 2.2587 -2.4640 0.9743
-5.6571 2.0568 -2.4636 0.9743
0.5636 5.3637 -2.3504 0.9767
0.1776 5.3844 -2.3479 0.9768
-0.0156 5.3843 -2.3466 0.9768
-0.2085 5.3774 -2.3453 0.9768
-0.4009 5.3636 -2.3440 0.9768
-0.5926 5.3429 -2.3428 0.9768
-1.1610 5.2400 -2.3391 0.9769
-1.3474 5.1924 -2.3379 0.9769
-1.5319 5.1381 -2.3367 0.9769
-1.8943 5.0101 -2.3344 0.9769
-2.0717 4.9366 -2.3332 0.9769
-2.2462 4.8569 -2.3321 0.9769
-2.4178 4.7710 -2.3310 0.9769
-3.0411 4.6761 -2.4310 0.9760
-3.2686 4.6521 -2.4779 0.9755
-3.4319 4.5300 -2.4769 0.9755
-3.7448 4.2692 -2.4749 0.9755
-3.8940 4.1307 -2.4740 0.9755
-4.0382 3.9870 -2.4732 0.9755
-4.1771 3.8384 -2.4723 0.9756
-4.4387 3.5270 -2.4708 0.9756
-4.5609 3.3646 -2.4701 0.9756
-4.6773 3.1981 -2.4694 0.9756
-4.8921 2.8533 -2.4682 0.9756
-4.9901 2.6755 -2.4677 0.9756
-5.0818 2.4944 -2.4672 0.9756
-5.1670 2.3102 -2.4667 0.9756
-5.2457 2.1231 -2.4663 0.9756
-5.3176 1.9334 -2.4659 0.9756
0.5306 5.0500 -2.3504 0.9779
0.3490 5.0631 -2.3492 0.9779
-0.1963 5.0635 -2.3456 0.9779
-0.3775 5.0507 -2.3444 0.9779
-0.5581 5.0313 -2.3432 0.9779
-1.0934 4.9350 -2.3397 0.9780
-1.6146 4.7822 -2.3364 0.9780
-1.7842 4.7190 -2.3353 0.9780
-1.9706 4.6960 -2.3573 0.9778
-2.1684 4.6886 -2.3911 0.9775
-2.3719 4.6804 -2.4288 0.9771
-2.7595 4.5956 -2.4813 0.9766
-2.9213 4.4919 -2.4803 0.9767
-3.5280 4.0221 -2.4765 0.9767
-3.6687 3.8917 -2.4757 0.9767
-4.1822 3.3232 -2.4726 0.9767
-4.4072 3.0134 -2.4713 0.9767
-4.6097 2.6886 -2.4702 0.9768
-4.7886 2.3505 -2.4692 0.9768
-4.8690 2.1769 -2.4688 0.9768
-4.9431 2.0006 -2.4684 0.9768
0.6716 4.7467 -2.3515 0.9789
0.1578 4.7844 -2.3481 0.9789
-0.1853 4.7787 -2.3458 0.9789
-0.5267 4.7486 -2.3436 0.9789
-0.6962 4.7244 -2.3425 0.9789
-1.0417 4.7007 -2.3617 0.9788
-1.2187 4.6963 -2.3799 0.9786
-1.3987 4.6913 -2.4013 0.9784
-1.5820 4.6856 -2.4259 0.9782
-1.9608 4.6724 -2.4855 0.9777
-2.2895 4.5179 -2.4844 0.9777
-2.4490 4.4311 -2.4834 0.9777
-2.6053 4.3387 -2.4825 0.9777
-2.9073 4.1377 -2.4806 0.9777
-3.0526 4.0294 -2.4797 0.9777
-3.1940 3.9160 -2.4788 0.9777
-3.3312 3.7977 -2.4780 0.9777
-3.4641 3.6746 -2.4772 0.9778
-3.5925 3.5470 -2.4764 0.9778
-3.8352 3.2785 -2.4749 0.9778
-4.2602 2.6940 -2.4725 0.9778
-4.3531 2.5390 -2.4720 0.9778
-4.6681 1.8893 -2.4703 0.9778
-4.7323 1.7206 -2.4700 0.9778
0.6639 4.6928 -2.4588 0.9789
0.3236 4.6941 -2.4410 0.9790
-0.1819 4.6921 -2.4360 0.9791
-0.3506 4.6903 -2.4400 0.9790
-0.5200 4.6880 -2.4470 0.9790
-1.0364 4.6778 -2.4856 0.9786
-1.2063 4.6487 -2.4915 0.9786
-1.5350 4.5465 -2.4894 0.9786
-2.3166 4.1915 -2.4845 0.9787
-2.4645 4.1042 -2.4835 0.9787
-2.6090 4.0117 -2.4826 0.9787
-2.7502 3.9142 -2.4818 0.9787
-2.8878 3.8118 -2.4809 0.9787
-3.0216 3.7046 -2.4801 0.9787
-3.8395 2.8324 -2.4752 0.9787
-4.0308 2.5489 -2.4741 0.9787
-4.1188 2.4023 -2.4736 0.9787
-4.4777 1.6280 -2.4717 0.9788
-0.0132 4.5636 -2.4995 0.9794
-0.1767 4.5582 -2.4984 0.9794
-0.3399 4.5470 -2.4974 0.9794
-0.5024 4.5300 -2.4963 0.9794
-1.1429 4.4042 -2.4921 0.9795
-1.2995 4.3587 -2.4911 0.9795
-1.6072 4.2510 -2.4891 0.9795
-1.7579 4.1890 -2.4882 0.9795
-1.9063 4.1217 -2.4872 0.9795
-2.0520 4.0492 -2.4863 0.9795
-2.1951 3.9716 -2.4854 0.9795
-2.3352 3.8890 -2.4845 0.9795
-2.4723 3.8015 -2.4837 0.9795
-2.7365 3.6122 -2.4820 0.9795
-2.8634 3.5106 -2.4813 0.9796
-3.1057 3.2945 -2.4798 0.9796
-3.5411 2.8138 -2.4772 0.9796
-3.6388 2.6844 -2.4766 0.9796
-4.1235 1.8436 -2.4739 0.9796
-4.1864 1.6944 -2.4736 0.9796
0.4529 4.3112 -2.5028 0.9802
0.2980 4.3229 -2.5017 0.9802
0.1428 4.3290 -2.5007 0.9802
-0.0125 4.3295 -2.4997 0.9802
-0.4767 4.2979 -2.4966 0.9802
-0.6302 4.2763 -2.4956 0.9802
-1.2331 4.1358 -2.4917 0.9803
-1.3800 4.0874 -2.4907 0.9803
-1.5251 4.0338 -2.4898 0.9803
-1.6682 3.9751 -2.4889 0.9803
-1.8089 3.9113 -2.4880 0.9803
-2.2161 3.6907 -2.4854 0.9803
-2.4733 3.5201 -2.4838 0.9803
-2.5971 3.4281 -2.4831 0.9803
-2.9476 3.1268 -2.4809 0.9803
-3.0570 3.0183 -2.4803 0.9804
-3.2638 2.7901 -2.4790 0.9804
-3.3610 2.6706 -2.4785 0.9804
-3.4538 2.5479 -2.4779 0.9804
-3.7052 2.1611 -2.4765 0.9804
-3.7797 2.0265 -2.4761 0.9804
-3.8493 1.8894 -2.4757 0.9804
-3.9140 1.7500 -2.4754 0.9804
-3.9738 1.6083 -2.4751 0.9804
