ply
format ascii 1.0
element vertex 574
property float32 x
property float32 y
property float32 z
property float32 I
end_header
-3.9653 -8.0057 1.5753 0.9644
-3.2737 -7.2605 1.4043 0.9682
-3.2818 -8.9622 1.6829 0.9620
-2.8753 -21.4431 3.8148 0.9159
-1.3030 -21.4329 3.7862 0.9165
-0.5236 -21.4279 3.7794 0.9166
1.0310 -21.3970 3.7772 0.9167
1.8115 -21.4032 3.7874 0.9165
2.6220 -21.6137 3.8390 0.9154
-3.6133 -8.0137 1.3467 0.9651
-3.2893 -8.0638 1.3342 0.9654
-3.2718 -8.9349 1.4577 0.9622
-2.9313 -9.0041 1.4506 0.9624
-6.1395 -21.4758 3.4218 0.9136
-4.4811 -21.4579 3.3581 0.9151
-3.6735 -21.4536 3.3344 0.9157
-2.0862 -21.4382 3.2997 0.9165
-1.3030 -21.4332 3.2895 0.9168
-0.5236 -21.4282 3.2837 0.9169
0.2541 -21.4299 3.2832 0.9169
1.0310 -21.3965 3.2816 0.9170
2.6221 -21.6144 3.3355 0.9157
31.4063 -25.8165 6.2281 0.8483
-3.5804 -8.7774 1.2344 0.9625
-2.9225 -8.9770 1.2294 0.9626
-5.3013 -21.4620 2.8788 0.9147
-4.4811 -21.4576 2.8545 0.9154
-3.6735 -21.4534 2.8343 0.9159
-2.8754 -21.4435 2.8174 0.9164
-1.3030 -21.4334 2.7962 0.9170
0.2541 -21.4295 2.7908 0.9172
3.5527 -22.4407 2.9586 0.9124
31.5313 -37.3342 6.3636 0.8211
31.4226 -27.8003 5.4634 0.8443
-3.8470 -7.7669 0.9307 0.9657
-3.8722 -8.5878 1.0116 0.9628
-3.5444 -8.6891 1.0077 0.9630
-3.2189 -8.7904 1.0052 0.9630
-6.1390 -21.4743 2.3983 0.9141
-5.3013 -21.4618 2.3739 0.9149
-4.4810 -21.4574 2.3538 0.9156
-3.6734 -21.4532 2.3372 0.9162
-2.8754 -21.4438 2.3233 0.9166
-1.3030 -21.4336 2.3058 0.9172
0.2541 -21.4292 2.3013 0.9174
1.8114 -21.4025 2.3065 0.9172
2.6223 -21.6158 2.3382 0.9161
3.5534 -22.4452 2.4402 0.9126
31.5238 -37.3253 5.2463 0.8216
31.2546 -31.9811 4.8018 0.8354
31.3938 -25.8062 4.3639 0.8492
-3.7116 -7.4936 0.7079 0.9670
-3.8337 -8.5023 0.7895 0.9633
-3.1871 -8.7034 0.7846 0.9635
-6.9922 -21.4775 1.9121 0.9133
-5.3012 -21.4616 1.8714 0.9151
-2.8754 -21.4440 1.8315 0.9168
-2.0863 -21.4389 1.8234 0.9172
-0.5236 -21.4288 1.8146 0.9176
0.2541 -21.4288 1.8141 0.9176
1.0309 -21.3950 1.8133 0.9176
3.5541 -22.4497 1.9241 0.9128
31.4589 -32.1902 3.8102 0.8347
31.4335 -29.9118 3.6732 0.8401
31.4098 -27.7889 3.5502 0.8451
-3.7960 -8.4188 0.5727 0.9637
-3.4749 -8.5188 0.5705 0.9638
-5.3012 -21.4613 1.3708 0.9152
-4.4809 -21.4570 1.3593 0.9159
-3.6734 -21.4528 1.3497 0.9165
-2.8755 -21.4442 1.3417 0.9169
-2.0863 -21.4391 1.3357 0.9173
-1.3031 -21.4341 1.3316 0.9175
-0.5236 -21.4291 1.3292 0.9177
0.2541 -21.4285 1.3289 0.9177
1.8114 -21.4021 1.3319 0.9175
2.6225 -21.6179 1.3504 0.9164
3.5548 -22.4541 1.4097 0.9129
31.4521 -32.1832 2.7905 0.8350
31.4269 -29.9055 2.6901 0.8404
31.4034 -27.7833 2.6001 0.8453
-3.7592 -8.3372 0.3606 0.9641
-3.4414 -8.4365 0.3593 0.9642
-6.1384 -21.4719 0.8806 0.9145
-4.4809 -21.4568 0.8643 0.9160
-2.8755 -21.4444 0.8531 0.9170
-1.3031 -21.4343 0.8467 0.9176
-0.5237 -21.4293 0.8452 0.9178
1.0309 -21.3941 0.8446 0.9178
3.5555 -22.4586 0.8966 0.9130
31.5015 -37.2988 1.9251 0.8225
31.4722 -34.6329 1.8452 0.8292
31.3971 -27.7776 1.6530 0.8455
-8.7635 -21.4833 0.3919 0.9114
-7.8655 -21.4791 0.3864 0.9126
-6.9914 -21.4751 0.3815 0.9136
-5.3011 -21.4609 0.3734 0.9154
-4.4809 -21.4566 0.3703 0.9160
-2.8755 -21.4447 0.3655 0.9171
-0.5237 -21.4295 0.3621 0.9178
1.8113 -21.4017 0.3628 0.9177
2.6231 -21.6224 0.3679 0.9166
31.4941 -37.2900 0.8245 0.8226
31.3907 -27.7721 0.7080 0.8456
-3.6879 -8.1790 -0.0505 0.9647
-6.1379 -21.4704 -0.1257 0.9145
-4.4808 -21.4564 -0.1234 0.9161
-2.8756 -21.4449 -0.1218 0.9171
-2.0864 -21.4398 -0.1213 0.9174
-1.3031 -21.4348 -0.1209 0.9177
-0.5237 -21.4298 -0.1207 0.9178
2.6233 -21.6246 -0.1226 0.9166
3.5569 -22.4675 -0.1281 0.9130
31.4867 -37.2813 -0.2748 0.8227
31.4580 -34.6173 -0.2633 0.8294
31.4317 -32.1623 -0.2532 0.8354
31.3630 -25.7809 -0.2286 0.8501
-3.9644 -8.0039 -0.2515 0.9649
-8.7628 -21.4817 -0.6533 0.9113
-7.8649 -21.4775 -0.6440 0.9125
-6.9909 -21.4735 -0.6359 0.9136
-6.1377 -21.4696 -0.6288 0.9145
-5.3010 -21.4605 -0.6224 0.9153
-3.6732 -21.4520 -0.6128 0.9166
-1.3031 -21.4350 -0.6047 0.9177
-0.5237 -21.4300 -0.6036 0.9178
0.2541 -21.4270 -0.6034 0.9178
1.8113 -21.4013 -0.6048 0.9176
2.6236 -21.6269 -0.6134 0.9165
18.4640 -42.3628 -1.3012 0.8312
31.4793 -37.2725 -1.3738 0.8226
31.4510 -34.6095 -1.3168 0.8293
31.4249 -32.1553 -1.2660 0.8353
31.4006 -29.8805 -1.2205 0.8408
31.3569 -25.7758 -1.1430 0.8501
-8.7625 -21.4809 -1.1765 0.9113
-7.8646 -21.4768 -1.1599 0.9125
-6.9907 -21.4728 -1.1452 0.9135
-6.1374 -21.4688 -1.1324 0.9145
-4.4807 -21.4560 -1.1116 0.9160
-3.6732 -21.4518 -1.1037 0.9165
-1.3031 -21.4352 -1.0891 0.9176
-0.5237 -21.4302 -1.0871 0.9177
0.2541 -21.4267 -1.0867 0.9178
1.8113 -21.4011 -1.0892 0.9176
2.6239 -21.6292 -1.1049 0.9164
3.5583 -22.4763 -1.1541 0.9129
31.4719 -37.2638 -2.4736 0.8225
31.4180 -32.1483 -2.2797 0.8352
31.3941 -29.8743 -2.1978 0.8407
31.3717 -27.7552 -2.1243 0.8456
31.3508 -25.7708 -2.0582 0.8500
-9.6879 -21.4857 -1.7281 0.9098
-8.7621 -21.4801 -1.7010 0.9112
-7.8643 -21.4760 -1.6769 0.9124
-6.9904 -21.4720 -1.6557 0.9134
-6.1372 -21.4681 -1.6371 0.9143
-2.0864 -21.4405 -1.5795 0.9172
-0.5237 -21.4304 -1.5718 0.9176
1.0307 -21.3917 -1.5703 0.9177
6.7288 -34.3755 -2.5683 0.8689
7.9974 -34.2194 -2.5767 0.8685
10.5248 -33.7647 -2.5932 0.8678
11.7798 -33.4656 -2.6013 0.8674
14.2629 -32.7241 -2.6174 0.8666
16.6973 -31.7922 -2.6330 0.8659
19.0672 -30.6723 -2.6481 0.8652
21.3569 -29.3681 -2.6625 0.8645
23.5505 -27.8846 -2.6762 0.8638
25.6328 -26.2286 -2.6890 0.8632
-10.5995 -21.3999 -2.2927 0.9085
-9.6873 -21.4845 -2.2626 0.9096
-8.7618 -21.4793 -2.2271 0.9110
-7.8640 -21.4752 -2.1956 0.9122
-6.9902 -21.4712 -2.1678 0.9133
-6.1370 -21.4673 -2.1435 0.9142
-5.3008 -21.4599 -2.1222 0.9150
-4.4806 -21.4556 -2.1043 0.9157
-3.6731 -21.4514 -2.0894 0.9163
-2.0865 -21.4407 -2.0681 0.9171
0.2541 -21.4260 -2.0571 0.9175
1.0307 -21.3912 -2.0560 0.9175
3.5598 -22.4853 -2.1856 0.9126
5.6960 -24.3721 -2.4029 0.9043
7.0200 -25.7783 -2.5650 0.8982
7.9698 -25.5681 -2.5712 0.8980
11.6925 -24.3720 -2.5952 0.8971
15.2251 -22.6182 -2.6176 0.8962
16.0681 -22.0954 -2.6229 0.8960
16.8922 -21.5400 -2.6280 0.8958
18.4783 -20.3340 -2.6378 0.8955
19.9730 -19.0061 -2.6469 0.8951
-9.1652 -18.5040 -2.4529 0.9202
-7.8289 -19.1925 -2.4622 0.9199
-7.1412 -19.5015 -2.4669 0.9197
-6.4246 -19.7342 -2.4652 0.9198
-5.6421 -19.7365 -2.4383 0.9206
-4.8755 -19.7382 -2.4151 0.9214
-4.1221 -19.7393 -2.3953 0.9220
-2.6468 -19.7396 -2.3658 0.9229
0.2360 -19.8986 -2.3638 0.9230
2.4112 -19.8759 -2.3783 0.9225
3.1696 -20.0206 -2.4078 0.9216
4.0020 -20.4448 -2.4746 0.9195
5.6467 -20.7351 -2.5527 0.9171
6.4076 -20.5563 -2.5577 0.9169
9.3834 -19.5589 -2.5769 0.9163
13.5224 -17.2431 -2.6030 0.9155
14.7812 -16.2655 -2.6107 0.9153
15.3832 -15.7407 -2.6144 0.9152
16.5278 -14.6224 -2.6213 0.9149
-7.7083 -15.5627 -2.4607 0.9322
-7.1499 -15.8572 -2.4646 0.9321
-6.5805 -16.1320 -2.4686 0.9320
-6.0006 -16.3867 -2.4726 0.9319
-4.8125 -16.8342 -2.4808 0.9317
-4.2055 -17.0262 -2.4849 0.9316
-3.5911 -17.1965 -2.4891 0.9315
-2.9699 -17.3449 -2.4933 0.9314
-0.4328 -17.7127 -2.5104 0.9309
0.2105 -17.7471 -2.5147 0.9308
0.8557 -17.7580 -2.5190 0.9307
2.1484 -17.7092 -2.5276 0.9305
3.4384 -17.5657 -2.5361 0.9302
4.0802 -17.4582 -2.5403 0.9301
4.7186 -17.3271 -2.5445 0.9300
8.4284 -16.0479 -2.5683 0.9294
11.7920 -13.9621 -2.5894 0.9288
12.8040 -13.1016 -2.5956 0.9287
13.2858 -12.6426 -2.5986 0.9286
13.7505 -12.1654 -2.6013 0.9285
14.1974 -11.6704 -2.6040 0.9284
-6.6453 -13.4165 -2.4665 0.9411
-5.6705 -13.9012 -2.4733 0.9410
-5.1697 -14.1175 -2.4767 0.9409
-4.6606 -14.3160 -2.4802 0.9408
-4.1441 -14.4964 -2.4838 0.9407
-3.0910 -14.8014 -2.4910 0.9405
-2.0154 -15.0305 -2.4983 0.9404
-0.3721 -15.2275 -2.5093 0.9401
0.1809 -15.2534 -2.5130 0.9400
0.7352 -15.2592 -2.5167 0.9399
2.3993 -15.1549 -2.5277 0.9397
2.9517 -15.0795 -2.5313 0.9396
4.5920 -14.7315 -2.5420 0.9394
5.1304 -14.5752 -2.5455 0.9393
8.2209 -13.2245 -2.5652 0.9388
8.7056 -12.9328 -2.5683 0.9388
9.6424 -12.2954 -2.5741 0.9386
10.5309 -11.5884 -2.5796 0.9385
11.7615 -10.4057 -2.5870 0.9383
12.1420 -9.9808 -2.5893 0.9383
-3.6355 -12.7171 -2.4861 0.9476
-3.1757 -12.8569 -2.4892 0.9475
-2.2408 -13.0866 -2.4956 0.9474
-1.7668 -13.1762 -2.4988 0.9473
-1.2892 -13.2487 -2.5020 0.9473
-0.3260 -13.3417 -2.5085 0.9471
0.1585 -13.3619 -2.5117 0.9471
1.1299 -13.3495 -2.5182 0.9469
1.6155 -13.3167 -2.5214 0.9469
2.5834 -13.1977 -2.5277 0.9467
3.5423 -13.0077 -2.5340 0.9466
4.4870 -12.7474 -2.5401 0.9465
5.8658 -12.2268 -2.5490 0.9463
6.7519 -11.7953 -2.5546 0.9462
8.0183 -11.0261 -2.5625 0.9460
9.1948 -10.1182 -2.5698 0.9459
9.9213 -9.4410 -2.5742 0.9458
10.2656 -9.0821 -2.5763 0.9457
-5.1955 -10.4894 -2.4743 0.9533
-4.8166 -10.6824 -2.4770 0.9532
-4.4307 -10.8618 -2.4796 0.9532
-4.0381 -11.0275 -2.4824 0.9531
-3.2350 -11.3164 -2.4879 0.9530
-2.8255 -11.4391 -2.4907 0.9530
-2.4114 -11.5472 -2.4935 0.9529
-1.9931 -11.6403 -2.4963 0.9529
-1.5713 -11.7183 -2.4992 0.9528
-1.1464 -11.7811 -2.5020 0.9528
-0.7191 -11.8285 -2.5049 0.9527
1.0040 -11.8622 -2.5164 0.9525
1.4353 -11.8314 -2.5192 0.9524
2.2946 -11.7224 -2.5249 0.9523
4.8033 -11.0204 -2.5411 0.9520
5.6010 -10.6644 -2.5462 0.9519
5.9900 -10.4643 -2.5487 0.9519
6.3717 -10.2498 -2.5511 0.9519
6.7456 -10.0210 -2.5534 0.9518
7.1111 -9.7784 -2.5557 0.9518
8.4785 -8.6755 -2.5641 0.9516
-4.3932 -8.8697 -2.3263 0.9601
-4.0724 -9.0319 -2.3285 0.9601
-3.6348 -9.9261 -2.4844 0.9575
-2.5425 -10.2932 -2.4919 0.9574
-2.1696 -10.3893 -2.4944 0.9573
-1.4134 -10.5408 -2.4995 0.9572
-0.2606 -10.6649 -2.5073 0.9571
0.9025 -10.6629 -2.5150 0.9570
2.4451 -10.4622 -2.5251 0.9568
2.8259 -10.3768 -2.5276 0.9568
3.2036 -10.2774 -2.5301 0.9567
3.9479 -10.0371 -2.5349 0.9567
4.3134 -9.8964 -2.5372 0.9566
5.0286 -9.5747 -2.5418 0.9565
5.3774 -9.3941 -2.5440 0.9565
5.7195 -9.2006 -2.5461 0.9565
6.0546 -8.9945 -2.5482 0.9564
6.7014 -8.5453 -2.5522 0.9564
7.6067 -7.7835 -2.5578 0.9563
7.8893 -7.5074 -2.5595 0.9562
8.1617 -7.2208 -2.5611 0.9562
8.4234 -6.9242 -2.5627 0.9562
-3.9915 -8.0586 -2.3284 0.9635
-2.1681 -8.7777 -2.3410 0.9633
-0.2365 -9.6790 -2.5068 0.9608
1.1703 -9.6472 -2.5161 0.9606
1.5210 -9.6072 -2.5184 0.9606
1.8702 -9.5544 -2.5207 0.9606
3.2440 -9.2159 -2.5297 0.9604
3.9103 -8.9716 -2.5339 0.9604
4.2367 -8.8310 -2.5360 0.9603
5.1833 -8.3381 -2.5420 0.9602
5.4865 -8.1506 -2.5439 0.9602
5.7828 -7.9520 -2.5458 0.9602
6.0718 -7.7424 -2.5476 0.9602
6.8906 -7.0508 -2.5526 0.9601
7.3925 -6.5403 -2.5556 0.9600
-3.6535 -7.3762 -2.3303 0.9664
-3.3862 -7.5099 -2.3321 0.9663
-2.2718 -7.9468 -2.3398 0.9662
-1.9836 -8.0307 -2.3418 0.9662
-1.6924 -8.1043 -2.3438 0.9662
-1.3985 -8.1673 -2.3457 0.9661
-1.1021 -8.2196 -2.3477 0.9661
-0.8561 -8.7970 -2.5021 0.9639
0.1051 -8.8607 -2.5086 0.9638
0.4268 -8.8586 -2.5107 0.9638
1.7095 -8.7330 -2.5192 0.9637
2.3420 -8.6001 -2.5233 0.9636
3.2703 -8.3144 -2.5293 0.9635
3.8704 -8.0677 -2.5331 0.9635
4.4518 -7.7771 -2.5368 0.9634
4.7343 -7.6158 -2.5386 0.9634
5.0109 -7.4441 -2.5403 0.9634
5.2812 -7.2622 -2.5420 0.9634
5.5447 -7.0704 -2.5436 0.9633
6.2914 -6.4376 -2.5482 0.9633
6.5244 -6.2086 -2.5496 0.9633
6.9646 -5.7250 -2.5523 0.9632
-2.3539 -7.2304 -2.3388 0.9687
-2.0916 -7.3167 -2.3406 0.9687
-1.8262 -7.3935 -2.3424 0.9686
-1.5580 -7.4607 -2.3443 0.9686
-1.0145 -7.5659 -2.3479 0.9686
-0.7879 -8.0968 -2.5022 0.9665
-0.4940 -8.1265 -2.5041 0.9665
-0.1990 -8.1455 -2.5061 0.9665
0.3928 -8.1512 -2.5101 0.9664
2.1541 -7.9102 -2.5216 0.9663
2.4415 -7.8326 -2.5235 0.9662
2.7261 -7.7445 -2.5253 0.9662
3.0074 -7.6460 -2.5271 0.9662
3.5589 -7.4182 -2.5307 0.9662
4.6064 -6.8432 -2.5373 0.9661
4.8547 -6.6757 -2.5388 0.9660
5.0967 -6.4990 -2.5403 0.9660
5.5607 -6.1192 -2.5432 0.9660
5.7821 -5.9165 -2.5445 0.9660
6.2021 -5.4871 -2.5470 0.9659
-3.1154 -6.2898 -2.3332 0.9708
-2.6547 -6.5080 -2.3364 0.9708
-2.1788 -6.6928 -2.3397 0.9708
-1.4419 -6.9047 -2.3447 0.9707
-0.9388 -7.0013 -2.3481 0.9707
-0.4571 -7.5191 -2.5040 0.9687
-0.1841 -7.5362 -2.5058 0.9687
0.0895 -7.5434 -2.5077 0.9687
0.3633 -7.5407 -2.5095 0.9687
0.6371 -7.5280 -2.5113 0.9687
1.1830 -7.4727 -2.5149 0.9686
1.7242 -7.3776 -2.5184 0.9686
2.2577 -7.2431 -2.5219 0.9685
2.5208 -7.1612 -2.5236 0.9685
2.7808 -7.0697 -2.5253 0.9685
3.2903 -6.8583 -2.5285 0.9684
3.5392 -6.7386 -2.5301 0.9684
4.0233 -6.4721 -2.5332 0.9684
4.7106 -6.0068 -2.5374 0.9683
4.9281 -5.8350 -2.5388 0.9683
5.3436 -5.4677 -2.5413 0.9683
5.5410 -5.2728 -2.5425 0.9683
5.7312 -5.0705 -2.5437 0.9683
-2.8975 -5.8495 -2.3344 0.9727
-2.4687 -6.0519 -2.3373 0.9726
-1.8000 -6.2966 -2.3419 0.9726
-1.5715 -6.3620 -2.3435 0.9725
-0.6777 -6.9642 -2.5022 0.9707
-0.4248 -6.9889 -2.5039 0.9707
-0.1711 -7.0045 -2.5056 0.9707
0.3377 -7.0079 -2.5090 0.9706
0.5921 -6.9957 -2.5107 0.9706
0.8461 -6.9743 -2.5123 0.9706
1.3514 -6.9036 -2.5157 0.9706
1.6020 -6.8545 -2.5173 0.9705
1.8508 -6.7963 -2.5189 0.9705
2.8214 -6.4732 -2.5252 0.9704
3.2872 -6.2589 -2.5281 0.9704
3.9543 -5.8744 -2.5323 0.9704
4.1670 -5.7301 -2.5337 0.9704
4.9616 -5.0769 -2.5385 0.9703
5.1447 -4.8956 -2.5396 0.9703
5.3212 -4.7077 -2.5407 0.9703
-2.8614 -5.7769 -2.4705 0.9728
-2.3761 -5.8250 -2.4108 0.9734
-2.1556 -5.8866 -2.4024 0.9735
-1.7359 -6.0723 -2.4202 0.9733
-1.3278 -6.3582 -2.4891 0.9726
-1.1006 -6.4277 -2.4991 0.9725
-0.6324 -6.4988 -2.5022 0.9724
0.3151 -6.5384 -2.5085 0.9723
0.5524 -6.5268 -2.5101 0.9723
0.7894 -6.5065 -2.5117 0.9723
1.0255 -6.4776 -2.5132 0.9723
1.4943 -6.3939 -2.5163 0.9723
1.7264 -6.3393 -2.5178 0.9722
1.9564 -6.2762 -2.5193 0.9722
2.1840 -6.2047 -2.5208 0.9722
3.0654 -5.8366 -2.5264 0.9722
3.2769 -5.7246 -2.5277 0.9721
3.6871 -5.4774 -2.5303 0.9721
3.8853 -5.3427 -2.5315 0.9721
4.2664 -5.0516 -2.5339 0.9721
4.4489 -4.8956 -2.5350 0.9721
4.6255 -4.7330 -2.5361 0.9720
-2.6980 -5.4471 -2.4878 0.9741
-2.0937 -5.7176 -2.4920 0.9740
-1.8860 -5.7931 -2.4934 0.9740
-1.6755 -5.8611 -2.4949 0.9740
-1.4626 -5.9215 -2.4963 0.9740
-1.2475 -5.9741 -2.4978 0.9740
-1.0306 -6.0190 -2.4993 0.9740
-0.5921 -6.0851 -2.5022 0.9739
-0.3712 -6.1062 -2.5037 0.9739
-0.1495 -6.1192 -2.5052 0.9739
0.0727 -6.1242 -2.5067 0.9739
0.2950 -6.1212 -2.5082 0.9739
0.5171 -6.1100 -2.5096 0.9738
0.7389 -6.0908 -2.5111 0.9738
0.9600 -6.0635 -2.5125 0.9738
1.1800 -6.0281 -2.5140 0.9738
2.0440 -5.8070 -2.5196 0.9737
2.4623 -5.6495 -2.5223 0.9737
2.6671 -5.5593 -2.5236 0.9737
3.4499 -5.1251 -2.5285 0.9737
3.8159 -4.8658 -2.5308 0.9736
3.9916 -4.7262 -2.5319 0.9736
4.1622 -4.5801 -2.5329 0.9736
4.4868 -4.2696 -2.5349 0.9736
-1.7715 -5.4415 -2.4940 0.9753
-1.1717 -5.6109 -2.4981 0.9753
-0.5561 -5.7145 -2.5022 0.9753
-0.1404 -5.7462 -2.5050 0.9752
0.0682 -5.7507 -2.5064 0.9752
1.3131 -5.6185 -2.5146 0.9751
1.5169 -5.5701 -2.5159 0.9751
1.7188 -5.5142 -2.5172 0.9751
1.9187 -5.4511 -2.5185 0.9751
2.6923 -5.1262 -2.5235 0.9751
2.8779 -5.0275 -2.5247 0.9750
3.0598 -4.9220 -2.5258 0.9750
3.5810 -4.5663 -2.5290 0.9750
4.0606 -4.1550 -2.5320 0.9750
4.3543 -3.8523 -2.5338 0.9750
4.4927 -3.6930 -2.5346 0.9749
-2.3871 -4.8195 -2.4895 0.9766
-2.0334 -4.9848 -2.4920 0.9765
-1.8521 -5.0578 -2.4932 0.9765
-1.4820 -5.1841 -2.4958 0.9765
-1.2936 -5.2371 -2.4970 0.9765
-1.1033 -5.2833 -2.4983 0.9765
-0.9113 -5.3227 -2.4996 0.9765
-0.3282 -5.3986 -2.5036 0.9764
-0.1322 -5.4098 -2.5049 0.9764
1.2360 -5.2884 -2.5139 0.9763
1.4277 -5.2427 -2.5151 0.9763
1.6178 -5.1900 -2.5164 0.9763
2.7082 -4.7311 -2.5233 0.9763
3.2102 -4.4143 -2.5265 0.9762
3.3695 -4.2966 -2.5275 0.9762
3.6749 -4.0440 -2.5294 0.9762
4.0967 -3.6244 -2.5319 0.9762
-1.5745 -4.8364 -2.4949 0.9776
-1.2209 -4.9426 -2.4973 0.9776
-0.4941 -5.0772 -2.5023 0.9775
0.0606 -5.1084 -2.5060 0.9775
0.2460 -5.1054 -2.5072 0.9775
0.4313 -5.0956 -2.5084 0.9775
0.6162 -5.0790 -2.5096 0.9775
0.8004 -5.0558 -2.5109 0.9775
0.9838 -5.0258 -2.5121 0.9774
1.1661 -4.9892 -2.5132 0.9774
1.5262 -4.8960 -2.5156 0.9774
1.8788 -4.7768 -2.5179 0.9774
2.2222 -4.6320 -2.5201 0.9774
2.3898 -4.5503 -2.5211 0.9774
2.5544 -4.4624 -2.5222 0.9774
2.7157 -4.3685 -2.5232 0.9773
2.8736 -4.2688 -2.5242 0.9773
3.0277 -4.1633 -2.5251 0.9773
3.1779 -4.0522 -2.5261 0.9773
3.6030 -3.6868 -2.5287 0.9773
3.7356 -3.5548 -2.5295 0.9773
3.8633 -3.4179 -2.5302 0.9773
3.9859 -3.2764 -2.5309 0.9773
-1.8151 -4.4497 -2.4931 0.9786
-1.4890 -4.5737 -2.4953 0.9786
-0.6407 -4.7784 -2.5011 0.9785
-0.4671 -4.8007 -2.5023 0.9785
0.0573 -4.8298 -2.5058 0.9785
0.2326 -4.8268 -2.5069 0.9785
0.9300 -4.7511 -2.5115 0.9784
1.1022 -4.7163 -2.5127 0.9784
1.4426 -4.6280 -2.5149 0.9784
1.9394 -4.4495 -2.5181 0.9784
3.2752 -3.6041 -2.5264 0.9783
3.5301 -3.3592 -2.5280 0.9783
3.6506 -3.2298 -2.5287 0.9783
3.7664 -3.0961 -2.5294 0.9783
-2.0191 -4.0764 -2.4915 0.9795
-1.5662 -4.2770 -2.4946 0.9794
-1.2530 -4.3831 -2.4968 0.9794
-0.9327 -4.4663 -2.4990 0.9794
-0.4425 -4.5472 -2.5023 0.9794
-0.1117 -4.5714 -2.5045 0.9794
0.0542 -4.5744 -2.5056 0.9794
0.2203 -4.5714 -2.5067 0.9793
0.7166 -4.5264 -2.5100 0.9793
0.8807 -4.4993 -2.5110 0.9793
1.3661 -4.3825 -2.5142 0.9793
1.5248 -4.3318 -2.5152 0.9793
1.8364 -4.2132 -2.5172 0.9793
1.9887 -4.1454 -2.5182 0.9792
2.1387 -4.0720 -2.5192 0.9792
2.7090 -3.7252 -2.5227 0.9792
2.9739 -3.5212 -2.5244 0.9792
3.1007 -3.4120 -2.5251 0.9792
3.2234 -3.2983 -2.5259 0.9792
3.3419 -3.1801 -2.5266 0.9792
3.4560 -3.0575 -2.5273 0.9792
3.5655 -2.9309 -2.5279 0.9792
-1.9158 -3.8679 -2.4921 0.9803
-1.7749 -3.9364 -2.4930 0.9803
-1.6316 -3.9998 -2.4940 0.9802
-1.3383 -4.1109 -2.4961 0.9802
-1.1888 -4.1585 -2.4971 0.9802
-0.8849 -4.2372 -2.4991 0.9802
-0.7309 -4.2683 -2.5002 0.9802
-0.5757 -4.2938 -2.5012 0.9802
-0.4198 -4.3137 -2.5023 0.9802
-0.1060 -4.3364 -2.5044 0.9802
0.2090 -4.3363 -2.5065 0.9801
0.5233 -4.3133 -2.5086 0.9801
0.6797 -4.2933 -2.5096 0.9801
0.8353 -4.2675 -2.5106 0.9801
0.9900 -4.2361 -2.5116 0.9801
1.2956 -4.1564 -2.5136 0.9801
1.7415 -3.9956 -2.5165 0.9801
1.8860 -3.9312 -2.5174 0.9801
2.0281 -3.8616 -2.5183 0.9801
2.1676 -3.7868 -2.5192 0.9800
2.5688 -3.5324 -2.5217 0.9800
2.6961 -3.4380 -2.5225 0.9800
2.8199 -3.3389 -2.5232 0.9800
