ply
format ascii 1.0
element vertex 659
property float32 x
property float32 y
property float32 z
property float32 I
end_header
-0.1467 32.1209 5.6638 0.8777
-1.2771 31.7193 5.5975 0.8790
-2.1778 28.6320 5.0632 0.8899
-5.4889 29.6697 5.3203 0.8847
-6.2185 27.9918 5.0560 0.8901
-6.5632 25.2525 4.6006 0.8994
-8.5729 25.3904 4.7253 0.8969
-15.6652 24.1554 5.0765 0.8896
-15.4110 22.0026 4.7366 0.8966
-1.2641 31.3970 4.8137 0.8806
-2.0603 27.0881 4.1617 0.8959
-8.3666 24.7794 4.0066 0.8996
-9.3856 24.8374 4.0675 0.8981
-10.4494 24.9255 4.1404 0.8964
-12.7116 25.1292 4.3142 0.8923
-13.9233 25.2467 4.4168 0.8899
-14.9351 23.0296 4.2049 0.8949
-14.8170 21.1546 3.9566 0.9008
2.5211 7.6980 1.0548 0.9679
-2.0758 27.2915 3.5642 0.8955
-6.2781 24.1554 3.2500 0.9042
-8.1810 24.2298 3.3302 0.9020
-9.1729 24.2744 3.3792 0.9006
-12.3811 24.4760 3.5719 0.8953
-14.4552 24.1335 3.6633 0.8927
-14.2744 22.0108 3.4162 0.8996
-16.0728 21.2892 3.4737 0.8980
-17.0537 20.9877 3.5215 0.8967
-3.1381 28.0055 3.0261 0.8928
-4.1128 27.7265 3.0099 0.8934
-6.0107 27.0561 2.9762 0.8945
-6.1134 23.5218 2.6097 0.9069
-8.0045 23.7070 2.6869 0.9042
-9.9706 23.7835 2.7692 0.9015
-11.0045 23.8284 2.8184 0.8998
-12.0788 23.8783 2.8735 0.8979
-13.2039 23.9422 2.9360 0.8958
-13.8068 23.0510 2.8853 0.8975
-13.7289 21.1696 2.7094 0.9035
-14.9031 21.2775 2.7895 0.9008
-16.0732 21.2897 2.8645 0.8982
-17.3089 21.3018 2.9473 0.8955
2.5204 7.6962 0.6855 0.9680
-1.2682 31.4986 2.6686 0.8811
-3.2113 28.6586 2.4412 0.8907
-4.1195 27.7721 2.3767 0.8934
-5.4141 29.2654 2.5194 0.8874
-7.5858 34.1467 2.9611 0.8690
-7.9731 23.6141 2.1099 0.9048
-10.9194 23.6441 2.2047 0.9007
-13.6326 22.7602 2.2459 0.8990
-13.8595 21.3709 2.1562 0.9028
-14.8795 21.2438 2.1956 0.9011
-16.0475 21.2557 2.2546 0.8986
-17.3095 21.3025 2.3236 0.8957
2.5202 7.6952 0.5021 0.9681
-2.4526 32.2453 2.0053 0.8784
-5.5200 29.8378 1.8816 0.8855
-8.6658 22.9324 1.5202 0.9064
-13.8611 21.3734 1.5797 0.9029
-16.0478 21.2560 1.6516 0.8988
-17.3098 21.3029 1.7021 0.8958
-20.1385 23.0529 1.8982 0.8845
-20.7734 22.1340 1.8823 0.8855
2.5198 7.6943 0.3193 0.9681
-6.8952 23.1105 0.9510 0.9080
-6.7673 20.0428 0.8341 0.9188
-7.5770 20.0511 0.8452 0.9178
-9.2680 20.0683 0.8716 0.9153
-10.4354 20.6295 0.9116 0.9116
-12.4317 20.7552 0.9540 0.9077
-14.8799 21.2444 1.0227 0.9014
-16.0480 21.2563 1.0502 0.8989
-19.8250 22.6940 1.1882 0.8864
-21.3132 22.7092 1.2280 0.8828
2.5196 7.6934 0.1367 0.9681
-0.0296 6.4870 0.1096 0.9744
-0.2612 6.4862 0.1097 0.9744
-6.8986 23.1220 0.4076 0.9080
-6.9027 20.4438 0.3645 0.9173
-8.8261 23.3567 0.4218 0.9049
-9.7959 23.3666 0.4280 0.9036
-10.7959 23.3768 0.4350 0.9021
-5.1285 6.7930 0.1438 0.9665
-5.2515 6.4631 0.1407 0.9672
-5.6499 6.4677 0.1451 0.9662
-21.2874 22.6817 0.5254 0.8830
2.5192 7.6925 -0.0456 0.9681
-0.7360 6.5683 -0.0372 0.9739
-0.9742 6.5675 -0.0374 0.9738
-1.2148 6.5667 -0.0376 0.9736
-1.4586 6.5659 -0.0379 0.9735
-2.2160 6.5633 -0.0390 0.9727
-2.4798 6.5624 -0.0395 0.9723
-3.0297 6.5605 -0.0407 0.9715
-3.3180 6.5595 -0.0414 0.9710
-4.2518 6.5563 -0.0440 0.9692
-4.9479 6.5539 -0.0462 0.9677
-5.2515 6.4630 -0.0469 0.9672
-5.6499 6.4677 -0.0483 0.9662
-0.4996 6.5692 -0.1855 0.9740
-0.9742 6.5675 -0.1869 0.9738
-1.2148 6.5667 -0.1880 0.9736
-1.7062 6.5650 -0.1910 0.9732
-1.9584 6.5641 -0.1929 0.9730
-3.0297 6.5605 -0.2035 0.9715
-3.6169 6.5584 -0.2109 0.9705
-3.9276 6.5574 -0.2152 0.9699
-4.2518 6.5563 -0.2200 0.9692
-5.2515 6.4630 -0.2345 0.9672
-6.1414 6.5438 -0.2527 0.9647
31.1111 39.0105 -2.5305 0.8189
8.5807 48.8740 -2.5165 0.8198
5.0221 48.8481 -2.4904 0.8215
3.2721 48.9271 -2.4868 0.8217
1.5227 48.9362 -2.4830 0.8219
-0.0296 6.4870 -0.3290 0.9744
-0.4996 6.5692 -0.3341 0.9740
-0.7360 6.5683 -0.3352 0.9739
-1.4586 6.5659 -0.3411 0.9734
-2.2160 6.5633 -0.3513 0.9726
-3.0297 6.5605 -0.3665 0.9715
-3.6169 6.5584 -0.3798 0.9704
-3.9276 6.5574 -0.3876 0.9699
-4.9479 6.5539 -0.4165 0.9676
-5.2515 6.4630 -0.4223 0.9672
24.4616 26.5456 -2.6468 0.8652
22.3836 28.0671 -2.6322 0.8659
21.3078 28.7658 -2.6248 0.8663
20.2097 29.4221 -2.6172 0.8666
19.0912 30.0357 -2.6095 0.8670
15.6311 31.6146 -2.5859 0.8681
14.4488 32.0525 -2.5779 0.8685
2.5184 7.6898 -0.5933 0.9681
5.9459 33.8664 -2.5211 0.8712
3.2813 31.9154 -2.3524 0.8793
2.1416 32.0215 -2.3531 0.8792
-0.4996 6.5691 -0.4831 0.9739
-0.7360 6.5683 -0.4846 0.9738
-1.4586 6.5659 -0.4932 0.9734
-1.7062 6.5650 -0.4973 0.9732
-2.7507 6.5614 -0.5217 0.9719
-3.0297 6.5605 -0.5298 0.9714
-3.3180 6.5595 -0.5390 0.9709
-3.6169 6.5584 -0.5492 0.9704
-3.9276 6.5574 -0.5604 0.9698
-4.2518 6.5562 -0.5730 0.9691
-4.5912 6.5551 -0.5868 0.9684
-4.9479 6.5539 -0.6021 0.9676
-5.6499 6.4677 -0.6297 0.9661
-6.1414 6.5438 -0.6580 0.9646
17.6695 20.6034 -2.6058 0.8967
16.0875 21.7183 -2.5948 0.8971
15.2692 22.2296 -2.5891 0.8973
13.5847 23.1574 -2.5775 0.8977
12.7209 23.5731 -2.5716 0.8980
10.0590 24.6228 -2.5536 0.8986
9.1526 24.9063 -2.5475 0.8989
2.5180 7.6888 -0.7767 0.9680
6.3932 25.5549 -2.5290 0.8996
5.1315 24.1383 -2.3692 0.9056
4.2570 24.2465 -2.3634 0.9058
2.5119 24.4321 -2.3580 0.9060
1.6383 24.4965 -2.3570 0.9061
0.7618 24.4816 -2.3515 0.9063
-0.0296 6.4870 -0.6228 0.9743
-0.2612 6.4862 -0.6232 0.9743
-0.4996 6.5691 -0.6325 0.9739
-1.2148 6.5667 -0.6411 0.9735
-1.9584 6.5641 -0.6576 0.9728
-2.2160 6.5632 -0.6650 0.9725
-3.0297 6.5604 -0.6937 0.9714
-3.3180 6.5595 -0.7057 0.9709
-3.9276 6.5574 -0.7338 0.9698
-4.5912 6.5551 -0.7683 0.9684
-5.6499 6.4676 -0.8245 0.9661
-6.1414 6.5438 -0.8616 0.9646
14.7728 16.0315 -2.5895 0.9159
13.5474 16.9872 -2.5810 0.9162
12.9107 17.4296 -2.5765 0.9163
12.2593 17.8476 -2.5720 0.9165
11.5943 18.2409 -2.5674 0.9166
10.2270 18.9515 -2.5580 0.9169
8.8167 19.5587 -2.5484 0.9172
8.0981 19.8228 -2.5436 0.9174
4.8425 19.3564 -2.3701 0.9228
4.1409 19.4783 -2.3655 0.9229
2.0312 19.7563 -2.3591 0.9231
1.3229 19.7811 -2.3550 0.9232
-0.0296 6.4870 -0.7706 0.9742
-0.2612 6.4862 -0.7711 0.9742
-0.4996 6.5691 -0.7826 0.9738
-1.4586 6.5658 -0.7989 0.9733
-2.2160 6.5632 -0.8229 0.9725
-2.4797 6.5623 -0.8333 0.9721
-3.0297 6.5604 -0.8584 0.9713
-3.3180 6.5595 -0.8732 0.9708
-4.2518 6.5562 -0.9282 0.9690
-5.6499 6.4676 -1.0201 0.9660
12.3155 13.3648 -2.5750 0.9292
11.3001 14.1693 -2.5679 0.9294
10.7721 14.5425 -2.5642 0.9295
10.2316 14.8956 -2.5605 0.9296
9.1163 15.5403 -2.5528 0.9298
8.5431 15.8311 -2.5489 0.9299
7.9606 16.1006 -2.5449 0.9300
6.7711 16.5744 -2.5368 0.9302
6.1657 16.7782 -2.5327 0.9303
2.5174 7.6870 -1.1461 0.9679
4.0541 16.2050 -2.3668 0.9347
3.4678 16.3123 -2.3629 0.9348
2.8840 16.4267 -2.3631 0.9348
1.7013 16.5481 -2.3570 0.9350
0.5157 16.5737 -2.3495 0.9352
-0.2611 6.4862 -0.9198 0.9741
-0.7360 6.5683 -0.9365 0.9737
-1.2148 6.5667 -0.9462 0.9734
-1.4586 6.5658 -0.9530 0.9732
-1.9584 6.5641 -0.9706 0.9727
-2.2160 6.5632 -0.9815 0.9724
-2.4797 6.5623 -0.9940 0.9721
-3.9276 6.5574 -1.0830 0.9696
-4.5912 6.5551 -1.1339 0.9682
-4.9479 6.5538 -1.1635 0.9674
-5.2515 6.4630 -1.1799 0.9669
-5.6499 6.4676 -1.2168 0.9659
-6.1414 6.5438 -1.2716 0.9644
9.6548 12.1063 -2.5510 0.9392
8.7715 12.7699 -2.5522 0.9391
7.8187 13.3283 -2.5456 0.9393
7.3287 13.5807 -2.5422 0.9394
6.8305 13.8149 -2.5388 0.9394
4.9715 13.5288 -2.3744 0.9432
2.5171 7.6861 -1.3324 0.9677
3.9833 13.8100 -2.3678 0.9434
3.4834 13.9236 -2.3645 0.9435
2.9846 14.0392 -2.3645 0.9435
1.9712 14.1804 -2.3585 0.9436
1.4624 14.2236 -2.3555 0.9437
0.9528 14.2474 -2.3523 0.9438
0.4434 14.2511 -2.3489 0.9438
-0.0296 6.4870 -1.0687 0.9740
-0.2611 6.4862 -1.0694 0.9740
-0.7360 6.5683 -1.0888 0.9736
-0.9742 6.5675 -1.0938 0.9734
-1.4586 6.5658 -1.1080 0.9731
-1.7062 6.5650 -1.1174 0.9729
-1.9584 6.5641 -1.1285 0.9726
-2.2160 6.5632 -1.1412 0.9723
-2.4798 6.5623 -1.1557 0.9720
-2.7507 6.5614 -1.1720 0.9716
-3.0297 6.5604 -1.1904 0.9711
-3.3180 6.5594 -1.2110 0.9706
-3.6169 6.5584 -1.2338 0.9701
-4.2518 6.5562 -1.2873 0.9688
-4.5912 6.5551 -1.3184 0.9681
-4.9479 6.5538 -1.3528 0.9673
-5.2515 6.4630 -1.3719 0.9668
-5.6499 6.4676 -1.4148 0.9658
-6.1414 6.5438 -1.4784 0.9643
9.2178 10.0031 -2.5567 0.9461
8.4637 10.6127 -2.5514 0.9463
8.0711 10.8961 -2.5487 0.9463
7.6690 11.1648 -2.5459 0.9464
7.2578 11.4184 -2.5431 0.9464
5.6119 11.3503 -2.3799 0.9498
4.7771 11.6935 -2.3743 0.9499
4.3517 11.8421 -2.3714 0.9499
1.7266 12.4204 -2.3570 0.9502
1.2811 12.4602 -2.3544 0.9503
0.3886 12.4880 -2.3484 0.9504
-0.4996 6.5691 -1.2383 0.9735
-0.7360 6.5683 -1.2423 0.9735
-1.4586 6.5658 -1.2642 0.9730
-1.9584 6.5641 -1.2875 0.9725
-3.0297 6.5604 -1.3582 0.9710
-3.3180 6.5594 -1.3817 0.9705
-3.6169 6.5584 -1.4077 0.9700
-3.9276 6.5573 -1.4367 0.9694
-4.2518 6.5562 -1.4688 0.9687
-4.9479 6.5538 -1.5435 0.9671
-5.2515 6.4630 -1.5653 0.9667
-5.6499 6.4676 -1.6142 0.9657
-6.1414 6.5437 -1.6868 0.9641
7.8480 9.1511 -2.5483 0.9519
7.5096 9.4164 -2.5459 0.9520
6.8062 9.9087 -2.5410 0.9520
6.4420 10.1351 -2.5385 0.9521
4.9831 10.0785 -2.3766 0.9551
4.6156 10.2390 -2.3741 0.9551
3.8657 10.5194 -2.3690 0.9552
2.4922 7.6099 -1.6927 0.9678
3.1008 10.7503 -2.3650 0.9553
2.7128 10.8436 -2.3627 0.9553
2.3221 10.9228 -2.3604 0.9554
1.5345 11.0388 -2.3558 0.9555
0.7421 11.0962 -2.3508 0.9556
-0.0296 6.4870 -1.3712 0.9738
-0.4996 6.5691 -1.3926 0.9734
-0.7360 6.5683 -1.3971 0.9733
-0.9742 6.5675 -1.4034 0.9732
-1.7062 6.5650 -1.4338 0.9726
-1.9584 6.5641 -1.4479 0.9724
-2.2160 6.5632 -1.4643 0.9721
-2.4797 6.5623 -1.4829 0.9717
-3.0297 6.5604 -1.5275 0.9709
-4.2518 6.5562 -1.6518 0.9686
-4.9479 6.5538 -1.7358 0.9670
-5.2515 6.4630 -1.7603 0.9665
7.3400 7.9653 -2.5457 0.9565
7.0455 8.2153 -2.5436 0.9565
6.7424 8.4543 -2.5415 0.9565
6.4310 8.6820 -2.5393 0.9566
4.8012 8.8972 -2.3761 0.9593
4.4767 9.0543 -2.3739 0.9593
4.1470 9.1995 -2.3716 0.9594
3.8126 9.3326 -2.3693 0.9594
2.4839 7.5845 -1.8757 0.9677
2.7866 9.6610 -2.3631 0.9595
2.0872 9.8180 -2.3590 0.9596
1.7342 9.8774 -2.3569 0.9596
1.0238 9.9577 -2.3526 0.9597
0.6673 9.9776 -2.3502 0.9597
0.3107 9.9846 -2.3478 0.9598
-0.0296 6.4870 -1.5246 0.9737
-0.7360 6.5683 -1.5534 0.9732
-0.9742 6.5675 -1.5604 0.9731
-1.2148 6.5667 -1.5695 0.9729
-1.7062 6.5650 -1.5942 0.9725
-1.9584 6.5641 -1.6099 0.9722
-2.4797 6.5623 -1.6487 0.9716
-2.7506 6.5614 -1.6721 0.9712
-3.0297 6.5604 -1.6983 0.9707
-3.9276 6.5573 -1.7964 0.9691
-5.2515 6.4630 -1.9572 0.9664
5.8296 7.8700 -2.5358 0.9603
4.3537 8.0678 -2.3736 0.9628
4.0597 8.2110 -2.3716 0.9629
3.7611 8.3434 -2.3696 0.9629
2.8272 7.6936 -2.1222 0.9667
2.4755 7.5590 -2.0594 0.9677
1.5735 8.9621 -2.3559 0.9631
1.2518 9.0053 -2.3540 0.9631
0.9290 9.0361 -2.3519 0.9632
0.6056 9.0550 -2.3497 0.9632
0.2820 9.0623 -2.3475 0.9632
-0.0296 6.4870 -1.6796 0.9736
-0.2611 6.4862 -1.6807 0.9735
-0.7360 6.5683 -1.7113 0.9731
-1.7062 6.5650 -1.7562 0.9724
-2.2160 6.5632 -1.7936 0.9718
-2.4797 6.5623 -1.8163 0.9714
-3.0297 6.5604 -1.8710 0.9706
-3.3180 6.5594 -1.9033 0.9701
-3.6169 6.5584 -1.9392 0.9695
-3.9276 6.5573 -1.9790 0.9689
-4.2518 6.5562 -2.0232 0.9682
-4.5912 6.5551 -2.0721 0.9675
-4.9479 6.5538 -2.1262 0.9666
-5.6499 6.4676 -2.2235 0.9651
5.8328 6.8013 -2.5365 0.9634
4.2421 7.2314 -2.3734 0.9657
3.9785 7.3725 -2.3716 0.9658
2.4671 7.5333 -2.2441 0.9676
2.0220 8.0823 -2.3585 0.9660
1.7312 8.1433 -2.3568 0.9660
1.1446 8.2339 -2.3534 0.9660
0.5538 8.2804 -2.3494 0.9661
0.2579 8.2880 -2.3474 0.9661
-0.2611 6.4862 -1.8377 0.9734
-0.4996 6.5691 -1.8650 0.9730
-0.9742 6.5675 -1.8795 0.9728
-1.2148 6.5667 -1.8905 0.9726
-1.7062 6.5650 -1.9202 0.9722
-2.2160 6.5632 -1.9610 0.9716
-2.4797 6.5623 -1.9859 0.9713
-2.7506 6.5614 -2.0141 0.9709
-3.0297 6.5604 -2.0457 0.9704
-3.9276 6.5573 -2.1638 0.9687
-4.2518 6.5562 -2.2121 0.9680
-4.5912 6.5551 -2.2656 0.9673
-4.9247 6.5230 -2.3138 0.9666
-5.5837 5.9494 -2.3098 0.9666
5.5858 6.0616 -2.5353 0.9661
5.3626 6.2531 -2.5337 0.9661
4.8969 6.6109 -2.5305 0.9662
4.3714 6.3641 -2.3748 0.9682
3.9013 6.6504 -2.3715 0.9682
3.4125 6.9019 -2.3682 0.9683
2.6499 7.2111 -2.3630 0.9684
2.3893 7.2956 -2.3612 0.9684
2.1260 7.3706 -2.3595 0.9684
1.8604 7.4361 -2.3577 0.9684
1.5928 7.4924 -2.3560 0.9685
0.7817 7.6032 -2.3509 0.9685
0.5097 7.6204 -2.3491 0.9685
0.2373 7.6280 -2.3473 0.9686
-0.4996 6.5691 -2.0263 0.9728
-0.9742 6.5675 -2.0421 0.9726
-1.2148 6.5667 -2.0540 0.9724
-1.4586 6.5658 -2.0687 0.9722
-1.7062 6.5650 -2.0863 0.9720
-2.7507 6.5614 -2.1883 0.9707
-3.6459 6.6110 -2.3221 0.9689
-4.1029 6.3265 -2.3193 0.9689
-4.5382 6.0111 -2.3166 0.9690
-4.7471 5.8422 -2.3154 0.9690
-4.9498 5.6662 -2.3141 0.9690
-5.1461 5.4832 -2.3130 0.9690
5.1635 5.6034 -2.5328 0.9684
4.5274 6.1120 -2.5283 0.9684
4.0417 5.8841 -2.3729 0.9704
3.8269 6.0208 -2.3714 0.9704
3.1558 6.3827 -2.3668 0.9704
2.9242 6.4868 -2.3652 0.9705
1.4735 6.9312 -2.3554 0.9706
0.7232 7.0343 -2.3506 0.9706
-0.0296 6.4869 -2.1563 0.9730
-0.7360 6.5683 -2.1970 0.9725
-0.9742 6.5675 -2.2069 0.9724
-1.2148 6.5667 -2.2198 0.9722
-1.4586 6.5658 -2.2357 0.9720
-1.7062 6.5650 -2.2547 0.9718
-2.2435 6.6448 -2.3313 0.9709
-2.7081 6.4598 -2.3283 0.9709
-3.1579 6.2428 -2.3255 0.9709
-3.3766 6.1226 -2.3242 0.9710
-3.5907 5.9949 -2.3228 0.9710
-4.0045 5.7174 -2.3203 0.9710
-4.5853 5.2489 -2.3168 0.9710
-4.7674 5.0797 -2.3157 0.9711
4.7955 5.2040 -2.5306 0.9704
4.6043 5.3689 -2.5293 0.9704
4.4075 5.5266 -2.5279 0.9704
4.2053 5.6771 -2.5265 0.9704
3.9507 5.7516 -2.4953 0.9708
3.3512 5.7127 -2.3685 0.9723
2.4986 6.1161 -2.3626 0.9723
2.2775 6.1974 -2.3612 0.9723
1.1381 6.4822 -2.3535 0.9724
0.2041 6.5609 -2.3474 0.9725
-0.4968 6.5324 -2.3428 0.9726
-0.9600 6.4721 -2.3398 0.9726
-1.1895 6.4297 -2.3383 0.9726
-1.4171 6.3791 -2.3368 0.9726
-2.0866 6.1800 -2.3326 0.9727
-2.5189 6.0085 -2.3298 0.9727
-3.3404 5.5769 -2.3247 0.9728
-3.5353 5.4514 -2.3235 0.9728
-3.7256 5.3192 -2.3224 0.9728
-3.9111 5.1804 -2.3212 0.9728
-4.2664 4.8839 -2.3191 0.9728
-4.4360 4.7265 -2.3181 0.9728
4.4716 4.8525 -2.5287 0.9721
4.1101 5.1538 -2.5262 0.9722
3.9217 5.2943 -2.5249 0.9722
3.7284 5.4279 -2.5235 0.9722
3.4079 5.3615 -2.4346 0.9732
3.1256 5.3281 -2.3672 0.9739
2.7347 5.5311 -2.3645 0.9739
2.5343 5.6219 -2.3632 0.9739
2.3308 5.7053 -2.3618 0.9739
2.1246 5.7814 -2.3604 0.9740
1.9159 5.8500 -2.3590 0.9740
1.7050 5.9111 -2.3576 0.9740
1.4922 5.9645 -2.3561 0.9740
1.2777 6.0103 -2.3547 0.9740
1.0619 6.0483 -2.3533 0.9740
-0.0280 6.1220 -2.3461 0.9741
-0.2461 6.1134 -2.3447 0.9741
-0.4637 6.0971 -2.3433 0.9741
-0.6805 6.0730 -2.3419 0.9742
-1.5336 5.9007 -2.3364 0.9742
-1.7421 5.8389 -2.3350 0.9742
-1.9481 5.7698 -2.3337 0.9743
-2.1514 5.6935 -2.3324 0.9743
-2.3519 5.6101 -2.3312 0.9743
-2.7429 5.4225 -2.3287 0.9743
-2.9331 5.3185 -2.3275 0.9743
-3.1194 5.2079 -2.3264 0.9743
-3.3015 5.0909 -2.3253 0.9743
-3.6527 4.8381 -2.3231 0.9744
4.0176 4.6847 -2.5259 0.9737
3.8462 4.8227 -2.5246 0.9737
3.6699 4.9544 -2.5234 0.9737
3.4891 5.0796 -2.5222 0.9737
3.3041 5.1982 -2.5209 0.9737
3.0165 5.1421 -2.4399 0.9746
2.7441 5.0850 -2.3649 0.9753
2.5596 5.1769 -2.3636 0.9753
2.3721 5.2620 -2.3623 0.9754
1.9887 5.4118 -2.3597 0.9754
1.7935 5.4762 -2.3584 0.9754
0.9942 5.6627 -2.3531 0.9755
-0.0262 5.7329 -2.3463 0.9755
-0.2305 5.7250 -2.3450 0.9755
-0.4343 5.7099 -2.3437 0.9756
-0.6373 5.6876 -2.3424 0.9756
-1.4365 5.5270 -2.3372 0.9756
-2.0155 5.3336 -2.3335 0.9757
-2.5698 5.0802 -2.3301 0.9757
-2.7480 4.9829 -2.3290 0.9757
-2.9226 4.8795 -2.3279 0.9757
-3.2853 4.6905 -2.3438 0.9756
-3.5323 4.6788 -2.3994 0.9750
-3.7913 4.6659 -2.4606 0.9744
-3.9762 4.5516 -2.4736 0.9742
-4.1344 4.4052 -2.4726 0.9742
3.9269 4.2615 -2.5255 0.9750
3.7708 4.3969 -2.5244 0.9750
3.4446 4.6503 -2.5221 0.9751
3.2751 4.7679 -2.5209 0.9751
2.6945 4.9931 -2.4727 0.9755
2.4300 4.9148 -2.3895 0.9764
2.2269 4.9400 -2.3616 0.9766
1.6838 5.1416 -2.3579 0.9767
1.3117 5.2430 -2.3554 0.9767
1.1233 5.2836 -2.3541 0.9767
0.7429 5.3445 -2.3516 0.9767
0.5515 5.3647 -2.3503 0.9767
0.1676 5.3846 -2.3478 0.9768
-0.0246 5.3842 -2.3466 0.9768
-0.4079 5.3631 -2.3441 0.9768
-0.7883 5.3147 -2.3416 0.9768
-1.1640 5.2396 -2.3392 0.9769
-1.3494 5.1921 -2.3380 0.9769
-1.5330 5.1381 -2.3368 0.9769
-1.7144 5.0777 -2.3357 0.9769
-1.8935 5.0109 -2.3345 0.9769
-2.0700 4.9378 -2.3334 0.9769
-2.4145 4.7732 -2.3313 0.9769
-2.5922 4.7003 -2.3394 0.9769
-2.8070 4.6865 -2.3808 0.9764
-3.0326 4.6763 -2.4290 0.9760
-3.2622 4.6575 -2.4782 0.9755
-3.4248 4.5364 -2.4772 0.9755
-3.5830 4.4096 -2.4762 0.9755
-3.8854 4.1399 -2.4744 0.9755
3.6953 4.0101 -2.5241 0.9763
3.5484 4.1376 -2.5231 0.9763
3.3972 4.2598 -2.5220 0.9763
3.2417 4.3763 -2.5210 0.9763
3.0822 4.4872 -2.5198 0.9763
2.9189 4.5922 -2.5187 0.9763
2.5817 4.7842 -2.5164 0.9763
1.9575 4.7917 -2.3959 0.9774
1.5851 4.8399 -2.3574 0.9778
1.2348 4.9357 -2.3551 0.9778
0.5193 5.0509 -2.3503 0.9779
-0.0231 5.0698 -2.3468 0.9779
-0.3841 5.0502 -2.3444 0.9779
-0.5637 5.0308 -2.3432 0.9779
-0.9200 4.9729 -2.3409 0.9780
-1.2709 4.8900 -2.3387 0.9780
-1.6147 4.7824 -2.3365 0.9780
-1.7835 4.7197 -2.3354 0.9780
-1.9686 4.6959 -2.3569 0.9778
-2.1652 4.6885 -2.3905 0.9775
-2.5763 4.6715 -2.4694 0.9768
-2.7547 4.5991 -2.4815 0.9766
-3.2264 4.2736 -2.4786 0.9767
-3.5203 4.0298 -2.4769 0.9767
3.4854 3.7823 -2.5229 0.9773
3.3470 3.9027 -2.5219 0.9774
2.9074 4.2327 -2.5188 0.9774
2.5960 4.4254 -2.5167 0.9774
2.2719 4.5951 -2.5145 0.9774
1.9369 4.7411 -2.5122 0.9774
1.5466 4.7225 -2.4375 0.9781
0.8296 4.7251 -2.3532 0.9789
0.6600 4.7480 -2.3514 0.9789
-0.3625 4.7663 -2.3447 0.9789
-0.5320 4.7481 -2.3436 0.9789
-1.0442 4.7005 -2.3619 0.9788
-1.2205 4.6961 -2.3801 0.9786
-1.3996 4.6911 -2.4013 0.9784
-1.5820 4.6855 -2.4258 0.9782
-1.7682 4.6792 -2.4537 0.9780
-1.9587 4.6723 -2.4851 0.9777
-2.6008 4.3420 -2.4827 0.9777
-2.9015 4.1425 -2.4809 0.9777
-3.3239 3.8050 -2.4783 0.9777
-3.4564 3.6828 -2.4775 0.9777
2.8901 3.9017 -2.5189 0.9784
2.6026 4.0945 -2.5169 0.9784
2.4539 4.1830 -2.5159 0.9784
2.3021 4.2661 -2.5149 0.9784
1.9905 4.4156 -2.5127 0.9784
1.1726 4.6870 -2.5064 0.9785
0.6524 4.6928 -2.4579 0.9789
0.1461 4.6938 -2.4362 0.9791
-0.0214 4.6931 -2.4347 0.9791
-0.1889 4.6919 -2.4360 0.9791
-0.5253 4.6878 -2.4472 0.9790
-0.6949 4.6850 -2.4571 0.9789
-1.2081 4.6485 -2.4916 0.9786
-1.3725 4.6005 -2.4906 0.9786
-1.6956 4.4872 -2.4885 0.9786
-2.1627 4.2754 -2.4856 0.9786
-2.3129 4.1940 -2.4847 0.9786
-2.4601 4.1073 -2.4838 0.9787
-2.6041 4.0155 -2.4829 0.9787
-2.8818 3.8170 -2.4812 0.9787
-3.0150 3.7106 -2.4804 0.9787
-3.1445 3.5996 -2.4796 0.9787
-3.2699 3.4841 -2.4788 0.9787
2.9951 3.4924 -2.5199 0.9792
2.8676 3.5957 -2.5190 0.9792
2.3237 3.9610 -2.5152 0.9793
2.1800 4.0398 -2.5142 0.9793
1.8850 4.1815 -2.5122 0.9793
1.7339 4.2444 -2.5112 0.9793
1.4258 4.3536 -2.5091 0.9793
1.2691 4.3998 -2.5080 0.9793
1.1109 4.4404 -2.5070 0.9793
0.7908 4.5044 -2.5048 0.9794
0.6294 4.5278 -2.5038 0.9794
0.4674 4.5454 -2.5027 0.9794
0.1420 4.5633 -2.5005 0.9794
-0.0208 4.5635 -2.4995 0.9794
-0.3458 4.5465 -2.4974 0.9794
-0.5075 4.5294 -2.4963 0.9794
-0.6685 4.5066 -2.4953 0.9794
-1.1446 4.4040 -2.4922 0.9795
-1.3004 4.3586 -2.4912 0.9795
-1.6066 4.2515 -2.4893 0.9795
-1.7565 4.1899 -2.4883 0.9795
-1.9041 4.1231 -2.4874 0.9795
-2.0492 4.0510 -2.4865 0.9795
-2.3311 3.8919 -2.4847 0.9795
-2.7308 3.6171 -2.4823 0.9795
-2.8572 3.5163 -2.4815 0.9795
-2.9799 3.4111 -2.4808 0.9796
-3.0988 3.3017 -2.4801 0.9796
2.7194 3.4099 -2.5181 0.9801
2.4677 3.5926 -2.5163 0.9801
2.2037 3.7566 -2.5145 0.9801
1.7879 3.9660 -2.5117 0.9801
1.6446 4.0257 -2.5107 0.9801
1.2038 4.1734 -2.5077 0.9801
1.0537 4.2120 -2.5067 0.9801
0.9025 4.2452 -2.5057 0.9802
0.7502 4.2729 -2.5047 0.9802
0.4433 4.3120 -2.5027 0.9802
0.2892 4.3233 -2.5016 0.9802
0.1347 4.3291 -2.5006 0.9802
-0.6342 4.2758 -2.4956 0.9802
-0.7860 4.2488 -2.4946 0.9802
-0.9367 4.2164 -2.4937 0.9802
-1.0861 4.1787 -2.4927 0.9803
-1.3801 4.0876 -2.4909 0.9803
-1.5245 4.0343 -2.4899 0.9803
-1.6668 3.9759 -2.4890 0.9803
-1.8069 3.9125 -2.4882 0.9803
-2.3418 3.6110 -2.4848 0.9803
-2.4683 3.5241 -2.4841 0.9803
-2.5916 3.4328 -2.4833 0.9803
-2.7116 3.3372 -2.4826 0.9803
-2.8281 3.2374 -2.4819 0.9803
