ply
format ascii 1.0
element vertex 673
property float32 x
property float32 y
property float32 z
property float32 I
end_header
-28.3569 -21.6077 6.2863 0.8652
-22.7309 -21.5535 5.5234 0.8805
-21.1476 -21.5453 5.3233 0.8846
-19.6707 -21.5348 5.1428 0.8883
-6.0719 -7.1463 1.6535 0.9626
-5.8952 -7.4656 1.6773 0.9621
-5.0569 -6.8993 1.5083 0.9659
-4.4924 -7.7592 1.5809 0.9642
-4.3141 -8.1092 1.6196 0.9634
-3.8859 -7.9827 1.5655 0.9646
-3.2984 -8.2286 1.5632 0.9646
-2.8909 -9.0420 1.6739 0.9622
-2.8027 -21.4427 3.8131 0.9159
-2.0227 -21.4377 3.7968 0.9163
-0.4775 -21.4277 3.7792 0.9166
0.2918 -21.4296 3.7790 0.9166
1.8324 -21.4037 3.7879 0.9164
-38.9359 -21.6540 6.8251 0.8350
-12.4963 -7.5493 2.2366 0.9426
-33.0429 -21.6176 6.0491 0.8523
-28.3548 -21.6061 5.4612 0.8657
-22.7313 -21.5538 4.7989 0.8809
-19.6712 -21.5353 4.4682 0.8887
-6.0417 -7.1108 1.4295 0.9629
-5.8655 -7.4279 1.4499 0.9624
-5.0159 -6.8434 1.2998 0.9662
-4.7952 -7.6363 1.3814 0.9642
-4.3486 -7.5108 1.3295 0.9655
-4.2883 -8.0606 1.3987 0.9637
-3.9109 -8.0339 1.3688 0.9645
-3.5584 -8.8773 1.4651 0.9620
-6.0231 -21.4662 3.4155 0.9137
-5.1988 -21.4618 3.3829 0.9145
-2.0227 -21.4379 3.2988 0.9166
-1.2484 -21.4329 3.2890 0.9168
0.2918 -21.4292 3.2831 0.9169
2.6353 -21.6191 3.3364 0.9156
-42.5076 -21.6809 6.2138 0.8249
-28.3526 -21.6044 4.6418 0.8661
-26.3014 -21.5763 4.4300 0.8718
-24.4447 -21.5663 4.2450 0.8768
-22.7317 -21.5542 4.0793 0.8813
-6.0121 -7.0760 1.2091 0.9632
-5.8363 -7.3910 1.2264 0.9627
-5.6579 -7.7193 1.2463 0.9621
-4.9063 -7.2240 1.1372 0.9654
-4.7262 -7.5265 1.1573 0.9648
-4.2496 -7.9879 1.1782 0.9642
-3.5254 -8.7949 1.2339 0.9625
-6.0231 -21.4660 2.9033 0.9140
-4.3890 -21.4573 2.8520 0.9154
-3.5914 -21.4531 2.8325 0.9160
-2.8028 -21.4432 2.8161 0.9165
-2.0228 -21.4381 2.8041 0.9168
-1.2483 -21.4331 2.7958 0.9170
1.0601 -21.3943 2.7894 0.9172
1.8324 -21.4033 2.7974 0.9170
2.6356 -21.6213 2.8364 0.9159
3.5579 -22.4471 2.9596 0.9124
-38.9331 -21.6525 4.7837 0.8359
-12.4981 -7.5504 1.5680 0.9429
-33.0418 -21.6168 4.2399 0.8531
-24.4447 -21.5664 3.5005 0.8771
-22.7321 -21.5545 3.3639 0.8816
-19.6721 -21.5364 3.1322 0.8893
-5.8076 -7.3547 1.0063 0.9630
-5.5903 -7.6270 1.0154 0.9627
-4.6596 -7.4204 0.9409 0.9654
-3.4899 -8.7065 1.0072 0.9630
-6.0230 -21.4658 2.3941 0.9142
-5.1987 -21.4614 2.3712 0.9150
-3.5913 -21.4529 2.3357 0.9162
-2.0228 -21.4384 2.3123 0.9170
-1.2484 -21.4334 2.3055 0.9173
-0.4776 -21.4284 2.3016 0.9174
0.2917 -21.4285 2.3012 0.9174
1.0601 -21.3938 2.3001 0.9174
1.8324 -21.4031 2.3067 0.9172
-42.4995 -21.6768 4.0386 0.8257
-12.4990 -7.5509 1.2362 0.9431
-28.3484 -21.6012 3.0171 0.8667
-24.4448 -21.5664 2.7596 0.8773
-22.7324 -21.5549 2.6519 0.8818
-21.1490 -21.5466 2.5558 0.8859
-19.6725 -21.5369 2.4693 0.8895
-18.2929 -21.5298 2.3916 0.8928
-5.5246 -7.5374 0.7911 0.9632
-5.2275 -7.6970 0.7876 0.9633
-4.7503 -7.5649 0.7562 0.9648
-3.7758 -8.5207 0.7889 0.9633
-3.4554 -8.6202 0.7862 0.9634
-7.7281 -21.4812 1.9325 0.9124
-3.5913 -21.4527 1.8413 0.9164
-2.8028 -21.4437 1.8307 0.9168
-0.4776 -21.4286 1.8144 0.9176
1.8324 -21.4029 1.8184 0.9174
2.6362 -21.6258 1.8442 0.9163
-38.9304 -21.6509 2.7623 0.8365
-30.5704 -21.6053 2.3213 0.8607
-26.3016 -21.5765 2.1096 0.8725
-24.4449 -21.5665 2.0215 0.8775
-21.1493 -21.5470 1.8722 0.8860
-18.2933 -21.5303 1.7519 0.8929
-5.6988 -7.2168 0.5702 0.9638
-4.0589 -8.3380 0.5750 0.9635
-7.7278 -21.4804 1.4156 0.9126
-6.0229 -21.4654 1.3825 0.9145
-5.1986 -21.4611 1.3693 0.9153
-2.0228 -21.4389 1.3353 0.9173
0.2917 -21.4278 1.3289 0.9177
1.8323 -21.4027 1.3320 0.9175
2.6364 -21.6281 1.3511 0.9164
3.5600 -22.4603 1.4102 0.9129
-12.5005 -7.5519 0.5759 0.9432
-33.0402 -21.6158 1.5569 0.8538
-30.5699 -21.6050 1.4761 0.8608
-28.3442 -21.5980 1.4051 0.8671
-26.3017 -21.5765 1.3414 0.8727
-24.4450 -21.5666 1.2854 0.8777
-22.7332 -21.5556 1.2353 0.8821
-19.6735 -21.5379 1.1502 0.8898
-18.2937 -21.5308 1.1141 0.8931
-16.9935 -21.5203 1.0812 0.8960
-5.1086 -7.5218 0.3585 0.9643
-4.6967 -8.1121 0.3696 0.9632
-4.0194 -8.2568 0.3621 0.9639
-8.6117 -21.4838 0.9126 0.9115
-6.0229 -21.4652 0.8791 0.9146
-5.1986 -21.4609 0.8707 0.9154
-4.3888 -21.4566 0.8636 0.9161
-3.5912 -21.4523 0.8577 0.9166
-2.8029 -21.4442 0.8528 0.9171
-2.0228 -21.4391 0.8491 0.9174
-1.2484 -21.4341 0.8466 0.9176
-0.4776 -21.4291 0.8452 0.9178
1.0600 -21.3924 0.8446 0.9178
1.8323 -21.4026 0.8470 0.9176
2.6367 -21.6303 0.8592 0.9165
3.5607 -22.4647 0.8969 0.9130
-38.9276 -21.6494 0.7524 0.8368
-30.5695 -21.6047 0.6324 0.8609
-28.3421 -21.5964 0.6019 0.8671
-24.4450 -21.5666 0.5507 0.8777
-21.1500 -21.5477 0.5100 0.8862
-18.2941 -21.5313 0.4772 0.8931
-16.9939 -21.5208 0.4632 0.8961
-4.9054 -7.8118 0.1558 0.9638
-4.5827 -7.9152 0.1545 0.9641
-3.9806 -8.1773 0.1536 0.9643
-7.7272 -21.4788 0.3856 0.9127
-6.0228 -21.4650 0.3766 0.9147
-5.1985 -21.4607 0.3730 0.9155
-4.3888 -21.4564 0.3699 0.9161
-2.8029 -21.4444 0.3653 0.9171
-2.0228 -21.4393 0.3638 0.9175
-1.2484 -21.4343 0.3627 0.9177
-0.4776 -21.4293 0.3621 0.9178
0.2917 -21.4271 0.3620 0.9178
-42.4835 -21.6686 -0.2685 0.8263
-38.9262 -21.6487 -0.2508 0.8368
-12.5021 -7.5528 -0.0822 0.9432
-33.0392 -21.6151 -0.2223 0.8539
-28.3400 -21.5948 -0.2006 0.8672
-26.3019 -21.5767 -0.1915 0.8728
-21.1503 -21.5480 -0.1700 0.8862
-19.6744 -21.5389 -0.1642 0.8899
-18.2946 -21.5318 -0.1590 0.8931
-4.8723 -7.7592 -0.0516 0.9640
-4.2565 -8.0010 -0.0510 0.9644
-3.9427 -8.0994 -0.0507 0.9646
-9.5224 -21.4887 -0.1323 0.9103
-4.3888 -21.4562 -0.1233 0.9161
-3.5912 -21.4520 -0.1225 0.9167
-2.0229 -21.4396 -0.1212 0.9175
-1.2484 -21.4346 -0.1209 0.9177
-0.4776 -21.4296 -0.1207 0.9178
1.8323 -21.4022 -0.1209 0.9177
2.6372 -21.6347 -0.1227 0.9165
-12.5028 -7.5533 -0.4113 0.9432
-28.3379 -21.5932 -1.0032 0.8671
-26.3020 -21.5768 -0.9579 0.8727
-21.1506 -21.5483 -0.8502 0.8862
-18.2950 -21.5323 -0.7956 0.8931
-5.0175 -7.3876 -0.2515 0.9649
-4.4534 -7.6918 -0.2503 0.9651
-3.9055 -8.0229 -0.2513 0.9649
-8.6108 -21.4814 -0.6517 0.9116
-7.7267 -21.4773 -0.6427 0.9127
-6.0227 -21.4646 -0.6277 0.9147
-2.0229 -21.4398 -0.6064 0.9174
-1.2485 -21.4348 -0.6046 0.9177
0.2917 -21.4265 -0.6034 0.9178
1.0599 -21.3910 -0.6031 0.9179
1.8323 -21.4020 -0.6048 0.9176
2.6375 -21.6370 -0.6138 0.9165
3.5628 -22.4778 -0.6408 0.9130
-36.5880 -20.3483 -2.1232 0.8456
-12.5036 -7.5537 -0.7408 0.9432
-33.0381 -21.6144 -2.0022 0.8537
-28.3358 -21.5916 -1.8067 0.8670
-24.4453 -21.5668 -1.6533 0.8776
-22.7346 -21.5570 -1.5889 0.8821
-21.1509 -21.5487 -1.5313 0.8861
-16.9952 -21.5224 -1.3908 0.8960
-4.7495 -7.5636 -0.4529 0.9649
-4.5792 -7.9091 -0.4635 0.9641
-7.7264 -21.4765 -1.1575 0.9126
-6.8652 -21.4725 -1.1433 0.9137
-6.0226 -21.4644 -1.1306 0.9146
-5.1984 -21.4601 -1.1198 0.9154
-3.5911 -21.4516 -1.1030 0.9166
-2.8030 -21.4451 -1.0968 0.9170
-1.2485 -21.4350 -1.0889 0.9176
-0.4776 -21.4300 -1.0871 0.9177
0.2917 -21.4261 -1.0867 0.9178
1.8323 -21.4018 -1.0893 0.9176
3.5635 -22.4822 -1.1544 0.9129
-28.2641 -14.4161 -2.3264 0.8805
-27.7740 -15.4465 -2.3302 0.8803
-26.6891 -17.4607 -2.3385 0.8799
-25.4671 -19.4057 -2.3476 0.8795
-21.9604 -20.8230 -2.2190 0.8857
-21.1513 -21.5490 -2.2140 0.8859
-19.6758 -21.5404 -2.1391 0.8896
-18.2958 -21.5332 -2.0718 0.8929
-15.7689 -21.5142 -1.9558 0.8985
-4.5780 -7.9070 -0.6699 0.9640
-10.4613 -21.4902 -1.7525 0.9086
-9.5209 -21.4852 -1.7231 0.9101
-7.7261 -21.4757 -1.6734 0.9125
-6.0226 -21.4642 -1.6346 0.9145
-5.1983 -21.4599 -1.6190 0.9152
-3.5911 -21.4514 -1.5947 0.9165
-1.2485 -21.4353 -1.5743 0.9175
-0.4776 -21.4303 -1.5717 0.9176
0.2917 -21.4258 -1.5711 0.9176
1.0599 -21.3900 -1.5703 0.9177
2.6380 -21.6414 -1.5985 0.9163
9.2219 -33.9967 -2.5828 0.8682
-21.9509 -11.1960 -2.3657 0.9057
-21.5624 -11.9919 -2.3687 0.9056
-12.5051 -7.5546 -1.4026 0.9430
-20.2341 -14.3003 -2.3787 0.9052
-19.2168 -15.7645 -2.3863 0.9049
-18.0979 -17.1606 -2.3944 0.9046
-17.5018 -17.8309 -2.3987 0.9045
-16.8818 -18.4816 -2.4031 0.9043
-16.2385 -19.1119 -2.4077 0.9041
-15.5726 -19.7209 -2.4124 0.9040
-14.5004 -19.7836 -2.3549 0.9061
-11.1999 -21.0524 -2.2894 0.9086
-8.6098 -21.4790 -2.2216 0.9112
-6.8647 -21.4710 -2.1641 0.9134
-5.1983 -21.4597 -2.1198 0.9151
-4.3886 -21.4554 -2.1025 0.9158
-3.5910 -21.4512 -2.0881 0.9163
-2.8031 -21.4456 -2.0764 0.9168
-1.2485 -21.4355 -2.0614 0.9173
-0.4776 -21.4305 -2.0579 0.9175
1.8323 -21.4014 -2.0622 0.9173
2.6383 -21.6437 -2.0933 0.9161
3.5649 -22.4910 -2.1862 0.9126
5.6781 -24.3616 -2.4015 0.9044
-16.8369 -8.5877 -2.2451 0.9267
-16.5351 -9.1959 -2.2475 0.9266
-12.5059 -7.5551 -1.7356 0.9428
-16.8976 -11.0549 -2.3986 0.9219
-16.5099 -11.6682 -2.4015 0.9218
-16.1008 -12.2687 -2.4045 0.9217
-15.6707 -12.8555 -2.4077 0.9216
-15.2200 -13.4279 -2.4110 0.9215
-14.7491 -13.9852 -2.4144 0.9214
-14.2585 -14.5266 -2.4179 0.9213
-13.2201 -15.5594 -2.4253 0.9210
-12.6733 -16.0493 -2.4292 0.9209
-12.1089 -16.5208 -2.4331 0.9208
-4.5662 -7.8867 -1.0825 0.9640
-9.0435 -18.5778 -2.4544 0.9201
-8.3863 -18.9250 -2.4589 0.9200
-7.0334 -19.5507 -2.4681 0.9197
-4.0375 -19.7396 -2.3933 0.9220
-2.5801 -19.7398 -2.3648 0.9229
-1.8630 -19.7461 -2.3560 0.9232
-1.1523 -19.7853 -2.3542 0.9233
0.2709 -19.8957 -2.3636 0.9230
0.9867 -19.9126 -2.3682 0.9228
2.4220 -19.8686 -2.3776 0.9225
3.9969 -20.4414 -2.4741 0.9195
4.8663 -20.8785 -2.5465 0.9173
-13.9606 -7.7642 -2.2634 0.9375
-12.5067 -7.5556 -2.0703 0.9427
-13.3932 -8.7622 -2.2677 0.9374
-13.5840 -10.3509 -2.4198 0.9333
-13.2184 -10.8438 -2.4225 0.9333
-12.8355 -11.3242 -2.4253 0.9332
-12.4356 -11.7915 -2.4282 0.9331
-12.0192 -12.2453 -2.4312 0.9330
-11.5867 -12.6848 -2.4342 0.9329
-9.7050 -14.2895 -2.4475 0.9326
-9.1990 -14.6496 -2.4510 0.9325
-4.5600 -7.8759 -1.2895 0.9639
-8.1486 -15.3170 -2.4583 0.9323
-5.3248 -16.6549 -2.4775 0.9318
-4.1298 -17.0490 -2.4855 0.9316
-2.9057 -17.3583 -2.4937 0.9314
-1.6587 -17.5801 -2.5020 0.9311
-0.3947 -17.7126 -2.5103 0.9309
0.2416 -17.7448 -2.5145 0.9308
0.8798 -17.7541 -2.5187 0.9307
2.1580 -17.7035 -2.5270 0.9305
2.7966 -17.6435 -2.5311 0.9304
3.4336 -17.5602 -2.5352 0.9303
4.0680 -17.4538 -2.5393 0.9302
-12.0694 -6.7124 -2.2751 0.9456
-11.5759 -7.5733 -2.2789 0.9455
-11.3066 -7.9908 -2.2809 0.9454
-10.7244 -8.7978 -2.2852 0.9453
-10.4121 -9.1861 -2.2874 0.9453
-10.3788 -10.5740 -2.4409 0.9417
-10.0036 -10.9517 -2.4435 0.9416
-8.7990 -12.0050 -2.4520 0.9414
-8.3727 -12.3280 -2.4550 0.9414
-4.5536 -7.8649 -1.4972 0.9638
-7.0258 -13.2064 -2.4643 0.9412
-6.0764 -13.7124 -2.4708 0.9410
-5.5879 -13.9404 -2.4742 0.9409
-5.0909 -14.1512 -2.4775 0.9409
-4.5861 -14.3445 -2.4809 0.9408
-3.5553 -14.6774 -2.4879 0.9406
-3.0305 -14.8164 -2.4914 0.9405
0.2077 -15.2516 -2.5128 0.9400
0.7560 -15.2561 -2.5164 0.9400
1.8536 -15.2056 -2.5235 0.9398
2.4014 -15.1505 -2.5270 0.9397
2.9477 -15.0755 -2.5306 0.9396
3.4917 -14.9807 -2.5341 0.9395
4.0325 -14.8660 -2.5375 0.9395
-11.4085 -5.8189 -2.4072 0.9492
-10.6202 -5.9063 -2.2841 0.9517
-9.4315 -7.7372 -2.2930 0.9516
-9.1558 -8.0777 -2.2950 0.9515
-8.8680 -8.4087 -2.2970 0.9515
-8.5686 -8.7297 -2.2992 0.9514
-4.5470 -7.8535 -1.7057 0.9637
-5.3340 -12.0370 -2.4747 0.9478
-4.0238 -12.5856 -2.4836 0.9476
-2.6575 -12.9929 -2.4927 0.9475
-1.2504 -13.2528 -2.5021 0.9473
-0.2973 -13.3417 -2.5083 0.9471
0.1820 -13.3605 -2.5115 0.9471
2.5799 -13.1946 -2.5270 0.9468
3.0555 -13.1094 -2.5301 0.9467
-10.2760 -5.2412 -2.4384 0.9539
-8.8693 -6.2683 -2.2958 0.9566
-8.1626 -7.2015 -2.3009 0.9565
-7.9052 -7.4958 -2.3028 0.9564
-7.0720 -8.3234 -2.3087 0.9563
-6.1535 -9.0605 -2.3151 0.9562
-6.2082 -9.8866 -2.4677 0.9534
-4.5403 -7.8419 -1.9154 0.9636
-5.4939 -10.3270 -2.4726 0.9533
-5.1251 -10.5283 -2.4751 0.9533
-4.7488 -10.7165 -2.4777 0.9532
-3.9763 -11.0529 -2.4830 0.9531
-3.5809 -11.2005 -2.4856 0.9531
-2.7743 -11.4534 -2.4910 0.9530
-1.9499 -11.6486 -2.4965 0.9529
-1.5324 -11.7241 -2.4993 0.9528
-0.6890 -11.8301 -2.5049 0.9527
-0.2643 -11.8604 -2.5077 0.9527
0.1617 -11.8754 -2.5105 0.9526
0.5885 -11.8751 -2.5132 0.9526
1.0154 -11.8595 -2.5160 0.9525
1.8675 -11.7818 -2.5215 0.9524
2.2916 -11.7200 -2.5243 0.9523
2.7137 -11.6426 -2.5270 0.9523
-9.2660 -4.7261 -2.4446 0.9582
-9.0953 -5.0583 -2.4460 0.9581
-8.9130 -5.3846 -2.4473 0.9581
-7.7928 -5.9380 -2.3026 0.9605
-7.5797 -6.2180 -2.3041 0.9605
-7.3568 -6.4906 -2.3058 0.9605
-7.1243 -6.7553 -2.3074 0.9605
-6.8825 -7.0119 -2.3092 0.9604
-6.3718 -7.4993 -2.3128 0.9604
-5.8271 -7.9502 -2.3166 0.9603
-5.2509 -8.3621 -2.3206 0.9602
-4.6459 -8.7329 -2.3248 0.9602
-4.3335 -8.9022 -2.3269 0.9601
-3.6907 -9.2074 -2.3313 0.9601
-3.5791 -9.9487 -2.4849 0.9575
-3.2229 -10.0805 -2.4873 0.9574
-2.1270 -10.3991 -2.4946 0.9573
-1.3784 -10.5459 -2.4996 0.9572
-1.0000 -10.5992 -2.5021 0.9572
-0.2377 -10.6650 -2.5071 0.9571
0.9127 -10.6605 -2.5146 0.9570
1.6783 -10.5884 -2.5196 0.9569
2.4382 -10.4610 -2.5245 0.9568
2.8147 -10.3767 -2.5269 0.9568
-8.1069 -4.8976 -2.4523 0.9616
-7.7433 -5.4725 -2.4550 0.9616
-7.5465 -5.7503 -2.4565 0.9616
-6.4777 -6.1422 -2.3113 0.9638
-6.2573 -6.3750 -2.3129 0.9638
-5.7922 -6.8172 -2.3162 0.9637
-5.5479 -7.0258 -2.3179 0.9637
-5.2962 -7.2259 -2.3197 0.9637
-5.0374 -7.4171 -2.3215 0.9636
-4.7718 -7.5991 -2.3233 0.9636
-4.4996 -7.7718 -2.3252 0.9636
-3.3525 -8.3637 -2.3330 0.9635
-3.0529 -8.4860 -2.3350 0.9634
-2.7488 -8.5977 -2.3371 0.9634
-2.1288 -8.7883 -2.3413 0.9633
-1.8136 -8.8670 -2.3434 0.9633
-1.2513 -9.5736 -2.4999 0.9609
-0.9077 -9.6211 -2.5021 0.9609
-0.5624 -9.6562 -2.5044 0.9608
-0.2157 -9.6790 -2.5067 0.9608
0.8281 -9.6723 -2.5135 0.9607
1.1758 -9.6450 -2.5158 0.9606
2.5527 -9.4105 -2.5246 0.9605
-7.4272 -4.4870 -2.4565 0.9646
-7.2650 -4.7530 -2.4577 0.9646
-6.5246 -5.7563 -2.4632 0.9645
-6.1198 -5.8029 -2.3875 0.9655
-5.7307 -5.8385 -2.3160 0.9666
-5.5211 -6.0443 -2.3175 0.9665
-5.0800 -6.4334 -2.3206 0.9665
-4.6120 -6.7907 -2.3239 0.9665
-3.8640 -7.2632 -2.3290 0.9664
-2.7937 -7.7656 -2.3363 0.9663
-2.5152 -7.8671 -2.3382 0.9662
-2.2330 -7.9588 -2.3401 0.9662
-1.6591 -8.1118 -2.3439 0.9662
-1.3681 -8.1728 -2.3459 0.9661
-0.8302 -8.7995 -2.5022 0.9639
-0.5143 -8.8310 -2.5042 0.9639
0.4389 -8.8571 -2.5105 0.9638
0.7571 -8.8430 -2.5125 0.9638
2.3329 -8.6004 -2.5227 0.9636
-7.1189 -3.6310 -2.4580 0.9671
-6.3709 -4.8546 -2.4636 0.9670
-6.1958 -5.0827 -2.4649 0.9670
-5.2936 -5.7954 -2.4143 0.9677
-4.6804 -5.9271 -2.3229 0.9689
-4.2486 -6.2557 -2.3259 0.9688
-4.0241 -6.4084 -2.3275 0.9688
-3.7941 -6.5531 -2.3291 0.9688
-3.5589 -6.6897 -2.3307 0.9688
-3.3189 -6.8179 -2.3323 0.9688
-3.0743 -6.9376 -2.3340 0.9687
-1.2594 -7.5232 -2.3462 0.9686
-0.9893 -7.5694 -2.3480 0.9686
-0.7641 -8.0991 -2.5022 0.9665
-0.4733 -8.1275 -2.5041 0.9665
0.4038 -8.1499 -2.5098 0.9664
0.6966 -8.1364 -2.5117 0.9664
0.9889 -8.1122 -2.5136 0.9664
1.2804 -8.0775 -2.5155 0.9664
1.8592 -7.9767 -2.5192 0.9663
-6.3426 -3.8317 -2.4632 0.9692
-6.2037 -4.0586 -2.4642 0.9692
-5.9019 -4.4972 -2.4665 0.9692
-5.7395 -4.7084 -2.4677 0.9692
-5.5696 -4.9138 -2.4689 0.9692
-5.3924 -5.1131 -2.4702 0.9692
-5.0172 -5.4927 -2.4728 0.9691
-3.9420 -5.8042 -2.3323 0.9709
-3.7262 -5.9340 -2.3291 0.9709
-3.5130 -6.0677 -2.3306 0.9709
-3.2951 -6.1939 -2.3321 0.9709
-3.0728 -6.3122 -2.3336 0.9708
-2.3813 -6.6192 -2.3383 0.9708
-2.1437 -6.7050 -2.3399 0.9708
-1.9029 -6.7823 -2.3415 0.9707
-0.7070 -7.4942 -2.5022 0.9688
-0.4379 -7.5201 -2.5039 0.9687
0.1027 -7.5428 -2.5075 0.9687
0.3736 -7.5395 -2.5093 0.9687
0.6444 -7.5266 -2.5110 0.9687
1.1843 -7.4713 -2.5145 0.9686
1.9845 -7.3156 -2.5196 0.9686
-6.1382 -3.1308 -2.4641 0.9712
-6.0240 -3.3503 -2.4650 0.9711
-5.9021 -3.5656 -2.4659 0.9711
-5.7727 -3.7766 -2.4669 0.9711
-5.6357 -3.9830 -2.4679 0.9711
-5.4915 -4.1845 -2.4690 0.9711
-5.3402 -4.3808 -2.4701 0.9711
-5.1819 -4.5718 -2.4712 0.9711
-5.0169 -4.7571 -2.4724 0.9711
-4.4835 -5.2768 -2.4762 0.9710
-4.2935 -5.4373 -2.4775 0.9710
-4.0979 -5.5909 -2.4789 0.9710
-3.3533 -5.7919 -2.3933 0.9720
-3.0846 -5.7983 -2.3487 0.9725
-2.8576 -5.8703 -2.3348 0.9726
-2.6467 -5.9727 -2.3362 0.9726
-1.9932 -6.2344 -2.3406 0.9726
-1.3142 -6.4249 -2.3452 0.9725
-1.1075 -6.6162 -2.3989 0.9719
-0.6572 -6.9661 -2.5022 0.9707
0.5989 -6.9944 -2.5104 0.9706
0.8500 -6.9729 -2.5120 0.9706
1.5976 -6.8543 -2.5168 0.9705
-5.6271 -3.1295 -2.4675 0.9728
-5.5130 -3.3306 -2.4683 0.9728
-5.3920 -3.5276 -2.4692 0.9728
-5.1291 -3.9083 -2.4712 0.9728
-4.9876 -4.0916 -2.4722 0.9727
-4.8396 -4.2698 -2.4733 0.9727
-4.3588 -4.7718 -2.4767 0.9727
-4.1867 -4.9276 -2.4779 0.9727
-4.0092 -5.0773 -2.4792 0.9727
-3.8264 -5.2206 -2.4805 0.9727
-3.2484 -5.6106 -2.4845 0.9726
-2.5670 -5.7930 -2.4282 0.9732
-2.3389 -5.8350 -2.4090 0.9734
-1.7081 -6.0877 -2.4230 0.9733
-1.0767 -6.4319 -2.4991 0.9725
-0.8457 -6.4704 -2.5007 0.9724
-0.6133 -6.5006 -2.5022 0.9724
-0.1456 -6.5358 -2.5053 0.9724
0.0891 -6.5409 -2.5068 0.9724
0.3239 -6.5374 -2.5083 0.9724
0.5587 -6.5256 -2.5099 0.9723
0.7930 -6.5052 -2.5114 0.9723
1.2591 -6.4393 -2.5144 0.9723
1.7198 -6.3398 -2.5173 0.9723
-5.2735 -2.9328 -2.4696 0.9743
-4.9328 -3.4862 -2.4722 0.9742
-4.3902 -4.1628 -2.4761 0.9742
-4.2398 -4.3196 -2.4772 0.9742
-4.0839 -4.4710 -2.4783 0.9742
-3.9226 -4.6168 -2.4795 0.9742
-3.4087 -5.0189 -2.4831 0.9741
-3.2279 -5.1406 -2.4843 0.9741
-3.0429 -5.2558 -2.4856 0.9741
-2.8539 -5.3644 -2.4869 0.9741
-2.4644 -5.5613 -2.4896 0.9741
-2.2644 -5.6492 -2.4909 0.9740
-2.0613 -5.7300 -2.4923 0.9740
-1.8554 -5.8035 -2.4937 0.9740
-1.6469 -5.8697 -2.4951 0.9740
-1.0082 -6.0229 -2.4993 0.9740
-0.7919 -6.0587 -2.5008 0.9739
-0.1363 -6.1193 -2.5051 0.9739
0.3033 -6.1203 -2.5080 0.9739
0.5230 -6.1089 -2.5094 0.9738
0.7423 -6.0897 -2.5108 0.9738
0.9609 -6.0625 -2.5122 0.9738
-4.7487 -3.1068 -2.4732 0.9755
-4.5168 -3.4418 -2.4749 0.9755
-3.3681 -4.5953 -2.4831 0.9754
-3.0327 -4.8296 -2.4854 0.9754
-2.8588 -4.9377 -2.4866 0.9754
-2.6811 -5.0396 -2.4878 0.9754
-2.1271 -5.3066 -2.4916 0.9754
-1.7428 -5.4512 -2.4942 0.9753
-1.5469 -5.5132 -2.4955 0.9753
-0.9469 -5.6565 -2.4995 0.9753
-0.7437 -5.6899 -2.5009 0.9753
-0.5393 -5.7160 -2.5022 0.9753
1.1065 -5.6589 -2.5129 0.9752
1.5111 -5.5706 -2.5155 0.9751
-4.6698 -2.5971 -2.4734 0.9767
-4.4741 -2.9271 -2.4749 0.9767
-4.3676 -3.0867 -2.4756 0.9767
-4.2554 -3.2426 -2.4765 0.9767
-4.1378 -3.3944 -2.4773 0.9767
-4.0147 -3.5420 -2.4782 0.9767
-3.6150 -3.9575 -2.4811 0.9767
-2.8565 -4.5490 -2.4864 0.9766
-2.1803 -4.9201 -2.4910 0.9766
-1.6412 -5.1334 -2.4947 0.9765
-0.7002 -5.3574 -2.5009 0.9765
-0.1205 -5.4099 -2.5048 0.9764
0.0737 -5.4134 -2.5060 0.9764
0.4623 -5.3997 -2.5086 0.9764
1.0415 -5.3266 -2.5123 0.9764
1.4223 -5.2434 -2.5147 0.9763
-4.4096 -2.4524 -2.4750 0.9778
-4.2246 -2.7639 -2.4764 0.9778
-4.1240 -2.9146 -2.4771 0.9778
-4.0180 -3.0617 -2.4779 0.9777
-3.7906 -3.3442 -2.4796 0.9777
-3.6694 -3.4793 -2.4804 0.9777
-3.5435 -3.6101 -2.4813 0.9777
-3.4129 -3.7363 -2.4823 0.9777
-3.2778 -3.8579 -2.4832 0.9777
-3.1385 -3.9746 -2.4842 0.9777
-2.9951 -4.0863 -2.4852 0.9777
-2.6965 -4.2942 -2.4873 0.9777
-2.2222 -4.5651 -2.4905 0.9776
-2.0579 -4.6440 -2.4917 0.9776
-1.8908 -4.7171 -2.4928 0.9776
-1.3748 -4.8998 -2.4963 0.9776
-1.1986 -4.9483 -2.4974 0.9776
-0.4791 -5.0786 -2.5022 0.9775
0.0696 -5.1080 -2.5058 0.9775
0.2530 -5.1046 -2.5070 0.9775
0.4362 -5.0947 -2.5082 0.9775
1.1629 -4.9892 -2.5129 0.9774
1.3418 -4.9465 -2.5140 0.9774
-4.2514 -2.1684 -2.4759 0.9787
-4.1718 -2.3202 -2.4765 0.9787
-3.9968 -2.6148 -2.4778 0.9787
-3.8012 -2.8965 -2.4792 0.9787
-3.6959 -3.0320 -2.4800 0.9787
-3.5859 -3.1637 -2.4808 0.9787
-2.6935 -3.9659 -2.4871 0.9786
-2.4040 -4.1523 -2.4891 0.9786
-2.2544 -4.2376 -2.4901 0.9786
-1.7882 -4.4611 -2.4933 0.9786
-1.6276 -4.5243 -2.4944 0.9786
-1.3001 -4.6335 -2.4966 0.9785
-0.7956 -4.7528 -2.5000 0.9785
-0.6248 -4.7805 -2.5011 0.9785
-0.4530 -4.8020 -2.5022 0.9785
-0.2805 -4.8173 -2.5034 0.9785
0.2392 -4.8261 -2.5068 0.9785
0.4124 -4.8166 -2.5079 0.9785
0.5852 -4.8008 -2.5090 0.9784
0.9289 -4.7507 -2.5112 0.9784
1.2684 -4.6758 -2.5134 0.9784
-4.0291 -2.0551 -2.4772 0.9796
-3.9537 -2.1988 -2.4778 0.9796
-3.8732 -2.3399 -2.4784 0.9796
-3.7877 -2.4780 -2.4791 0.9796
-3.6973 -2.6131 -2.4797 0.9796
-3.6022 -2.7448 -2.4804 0.9796
-3.5024 -2.8732 -2.4812 0.9796
-3.3980 -2.9980 -2.4819 0.9795
-3.1763 -3.2360 -2.4835 0.9795
-2.8130 -3.5624 -2.4861 0.9795
-2.5521 -3.7577 -2.4879 0.9795
-2.2777 -3.9341 -2.4898 0.9795
-2.1359 -4.0149 -2.4908 0.9795
-1.8439 -4.1611 -2.4928 0.9795
-1.6940 -4.2263 -2.4938 0.9794
-1.5419 -4.2861 -2.4948 0.9794
-1.2316 -4.3893 -2.4969 0.9794
-0.9143 -4.4702 -2.4990 0.9794
-0.7536 -4.5020 -2.5001 0.9794
-0.4291 -4.5484 -2.5022 0.9794
-0.1018 -4.5714 -2.5044 0.9794
0.5543 -4.5467 -2.5087 0.9793
0.7174 -4.5257 -2.5097 0.9793
0.8797 -4.4989 -2.5107 0.9793
-3.6761 -2.2208 -2.4796 0.9804
-3.5949 -2.3519 -2.4803 0.9804
-3.5091 -2.4800 -2.4809 0.9803
-3.2249 -2.8452 -2.4830 0.9803
-3.1216 -2.9600 -2.4837 0.9803
-2.6694 -3.3806 -2.4869 0.9803
-2.2930 -3.6517 -2.4895 0.9803
-2.0267 -3.8096 -2.4914 0.9803
-1.7496 -3.9482 -2.4933 0.9803
-1.6073 -4.0100 -2.4942 0.9802
-1.4630 -4.0667 -2.4952 0.9802
-1.3166 -4.1182 -2.4962 0.9802
-1.1685 -4.1644 -2.4972 0.9802
-1.0186 -4.2054 -2.4982 0.9802
-0.8674 -4.2409 -2.4992 0.9802
-0.5614 -4.2957 -2.5012 0.9802
-0.2521 -4.3284 -2.5033 0.9802
0.0591 -4.3389 -2.5053 0.9802
0.2149 -4.3357 -2.5063 0.9801
0.3705 -4.3270 -2.5073 0.9801
0.5257 -4.3126 -2.5083 0.9801
1.1392 -4.1996 -2.5123 0.9801
