ply
format ascii 1.0
element vertex 624
property float32 x
property float32 y
property float32 z
property float32 I
end_header
-0.7747 31.2822 5.5176 0.8806
-2.0323 33.5887 5.9334 0.8723
-2.7047 28.0572 4.9702 0.8918
-4.9962 29.5577 5.2858 0.8854
-5.9732 29.0019 5.2211 0.8867
-6.1449 25.2425 4.5809 0.8999
-7.1179 25.2795 4.6308 0.8988
-8.1251 25.3529 4.6944 0.8975
-9.1662 25.4415 4.7683 0.8960
-10.2446 25.5395 4.8521 0.8943
-15.5183 22.9030 4.8781 0.8937
-15.3294 20.9725 4.5805 0.8999
-41.2977 19.4523 8.0493 0.8308
-37.6057 14.5365 7.1091 0.8489
-38.5118 13.3285 7.1859 0.8474
-41.3477 12.6778 7.6257 0.8389
-2.0129 33.2684 5.1059 0.8738
-2.6768 27.7670 4.2735 0.8933
-3.6827 27.7848 4.2937 0.8928
-5.8489 28.3980 4.4417 0.8893
-6.9584 24.7127 3.9331 0.9013
-7.9343 24.7578 3.9828 0.9001
-9.9825 24.8860 4.1077 0.8972
-11.0697 24.9791 4.1856 0.8953
-12.2032 25.0815 4.2730 0.8933
-13.3897 25.1942 4.3708 0.8910
-15.0330 23.9865 4.3366 0.8918
-14.8220 21.8753 4.0480 0.8986
-16.5504 21.0257 4.0992 0.8974
-37.6828 14.5663 6.1891 0.8492
-38.9207 13.4700 6.3094 0.8465
-43.5551 11.6725 6.9078 0.8332
0.3919 35.9085 4.6763 0.8651
-1.7354 28.6822 3.7418 0.8906
-2.6974 27.9811 3.6606 0.8928
-3.6721 27.7048 3.6393 0.8934
-4.7177 27.9100 3.6860 0.8921
-5.9460 28.8694 3.8383 0.8879
-5.9025 24.2464 3.2496 0.9042
-6.8068 24.1744 3.2704 0.9037
-7.7594 24.2119 3.3108 0.9025
-9.7482 24.3018 3.4097 0.8998
-10.7932 24.3551 3.4690 0.8981
-11.8890 24.4356 3.5387 0.8962
-14.2961 21.0991 3.3188 0.9023
-44.0925 20.7688 6.3468 0.8215
-41.5204 17.7767 5.8815 0.8334
-42.5034 16.4297 5.9339 0.8321
-43.7060 13.4009 5.9529 0.8316
-43.2384 11.5877 5.8292 0.8348
0.3842 35.2039 3.7805 0.8679
-0.8324 33.6106 3.6103 0.8735
-1.7314 28.6153 3.0784 0.8911
-2.7182 28.1973 3.0419 0.8923
-3.7528 28.3138 3.0670 0.8915
-9.5329 23.7653 2.7496 0.9021
-10.5509 23.8082 2.7964 0.9005
-12.7066 23.9089 2.9074 0.8968
-15.5570 21.2838 2.8309 0.8994
-16.7629 21.2958 2.9102 0.8967
-37.9137 24.9968 4.8765 0.8330
-41.5355 25.3069 5.2228 0.8223
-46.0760 15.9464 5.2357 0.8219
-0.8683 35.0630 2.9691 0.8687
-1.9295 31.8896 2.7045 0.8796
-3.8186 28.8097 2.4602 0.8899
-4.8670 28.7933 2.4720 0.8894
-5.9451 28.8652 2.4948 0.8884
-6.1806 25.3888 2.2120 0.9004
-6.6451 23.6002 2.0755 0.9063
-8.5096 23.6191 2.1252 0.9041
-9.4783 23.6290 2.1552 0.9028
-10.4759 23.6391 2.1888 0.9014
-11.5065 23.6496 2.2264 0.8998
-12.5745 23.6604 2.2682 0.8980
-13.6440 21.7702 2.1749 0.9020
-14.4136 21.2725 2.1752 0.9020
-3.1163 32.3258 2.0138 0.8780
-6.6452 23.6005 1.5204 0.9064
-9.2399 23.0346 1.5390 0.9053
-10.2776 23.1916 1.5730 0.9033
-13.4810 23.3191 1.6703 0.8977
-16.7367 21.2624 1.6780 0.8972
-35.5310 27.2490 2.7766 0.8357
-35.5513 25.3033 2.7059 0.8396
-36.2240 23.8828 2.6905 0.8404
-39.2485 23.9135 2.8500 0.8318
-42.6586 23.9481 3.0336 0.8220
-7.2227 20.0471 0.8402 0.9182
-8.0448 20.0555 0.8521 0.9171
-10.0267 20.6080 0.9037 0.9123
-10.9817 20.6634 0.9227 0.9106
-11.9824 20.7269 0.9440 0.9086
-13.0352 20.7987 0.9679 0.9064
-14.4140 21.2731 1.0132 0.9022
-18.8942 22.3171 1.1530 0.8895
-30.6340 29.1891 1.6685 0.8442
-30.4360 23.3416 1.5124 0.8577
-32.0588 22.8176 1.5516 0.8543
-37.5978 22.9077 1.7360 0.8384
-0.1606 6.4864 0.1096 0.9744
-10.3575 23.3719 0.4318 0.9028
-11.3765 23.3823 0.4392 0.9012
-13.2148 21.0854 0.4203 0.9052
-14.4142 21.2734 0.4341 0.9023
-5.1295 7.0178 0.1468 0.9658
-5.1278 6.5145 0.1400 0.9674
-5.4708 6.4620 0.1430 0.9667
-23.4196 22.3150 0.5464 0.8786
-28.9718 25.6976 0.6542 0.8565
-28.9611 23.8980 0.6343 0.8605
-28.9990 22.2396 0.6173 0.8640
-40.0570 22.4876 0.7760 0.8321
-44.0635 22.7093 0.8373 0.8201
0.0708 6.4872 -0.0365 0.9744
-0.1606 6.4864 -0.0365 0.9744
-0.6332 6.5686 -0.0372 0.9739
-0.8705 6.5678 -0.0373 0.9738
-1.5982 6.5652 -0.0380 0.9733
-2.1034 6.5635 -0.0388 0.9728
-2.3644 6.5626 -0.0393 0.9725
-2.6320 6.5617 -0.0398 0.9721
-3.1915 6.5597 -0.0411 0.9712
-3.4856 6.5587 -0.0418 0.9707
-3.7910 6.5576 -0.0426 0.9702
-4.1091 6.5565 -0.0436 0.9695
-4.4416 6.5554 -0.0446 0.9688
-5.1290 6.5160 -0.0467 0.9674
-5.4708 6.4620 -0.0477 0.9667
-5.9537 6.5441 -0.0498 0.9652
-6.3934 6.5426 -0.0515 0.9641
-6.8646 6.5410 -0.0534 0.9628
-7.3723 6.5392 -0.0555 0.9613
-7.9222 6.5373 -0.0578 0.9597
-9.1787 6.5329 -0.0634 0.9559
-10.5767 6.4443 -0.0697 0.9517
-11.6447 6.5373 -0.0752 0.9480
-12.6773 6.5337 -0.0803 0.9445
-16.8564 6.5159 -0.1017 0.9303
-18.8075 6.5091 -0.1121 0.9235
-20.9352 6.4191 -0.1233 0.9161
-24.2222 6.4915 -0.1412 0.9046
0.0708 6.4872 -0.1827 0.9744
-0.1606 6.4864 -0.1827 0.9744
-1.3523 6.5661 -0.1888 0.9735
-1.8483 6.5644 -0.1920 0.9731
-2.1034 6.5635 -0.1941 0.9728
-2.3643 6.5626 -0.1964 0.9725
-2.6320 6.5616 -0.1991 0.9721
-3.4856 6.5587 -0.2091 0.9707
-3.7910 6.5576 -0.2133 0.9701
-5.1302 6.5176 -0.2336 0.9674
-5.4708 6.4620 -0.2384 0.9667
-5.9537 6.5441 -0.2491 0.9652
-6.3934 6.5426 -0.2576 0.9641
-6.8646 6.5410 -0.2670 0.9628
-7.3723 6.5392 -0.2775 0.9613
-9.1787 6.5329 -0.3172 0.9559
-13.8622 6.5296 -0.4315 0.9405
-15.2396 6.5248 -0.4668 0.9358
-20.9352 6.4191 -0.6166 0.9161
-24.2221 6.4915 -0.7061 0.9045
-0.1606 6.4864 -0.3291 0.9743
-0.6332 6.5686 -0.3347 0.9739
-1.3523 6.5661 -0.3400 0.9735
-2.1034 6.5635 -0.3495 0.9728
-2.3644 6.5626 -0.3538 0.9724
-3.1915 6.5597 -0.3700 0.9712
-3.7910 6.5576 -0.3841 0.9701
-4.1091 6.5565 -0.3924 0.9695
-6.3934 6.5426 -0.4639 0.9640
-6.8646 6.5410 -0.4809 0.9627
-7.9222 6.5373 -0.5209 0.9597
-8.5214 6.5352 -0.5446 0.9579
-9.1787 6.5329 -0.5714 0.9559
-10.5767 6.4443 -0.6281 0.9516
-12.6773 6.5337 -0.7233 0.9445
-15.2396 6.5248 -0.8407 0.9358
-16.8564 6.5159 -0.9165 0.9302
-18.8075 6.5091 -1.0093 0.9234
-24.2221 6.4915 -1.2718 0.9044
1.4961 32.0914 -2.3556 0.8791
0.0708 6.4872 -0.4757 0.9743
-0.1606 6.4864 -0.4757 0.9743
-0.3974 6.5694 -0.4826 0.9739
-0.6332 6.5686 -0.4838 0.9739
-0.8705 6.5678 -0.4858 0.9738
-1.1100 6.5669 -0.4883 0.9736
-1.3523 6.5661 -0.4915 0.9735
-1.8483 6.5644 -0.5000 0.9730
-2.3643 6.5626 -0.5115 0.9724
-3.1915 6.5597 -0.5349 0.9712
-3.4856 6.5587 -0.5446 0.9707
-4.4416 6.5554 -0.5806 0.9687
-5.4708 6.4620 -0.6208 0.9666
-5.9537 6.5441 -0.6487 0.9651
-6.3934 6.5426 -0.6707 0.9640
-6.8646 6.5410 -0.6952 0.9627
-7.9221 6.5373 -0.7531 0.9596
-8.5214 6.5352 -0.7874 0.9578
-9.9048 6.5304 -0.8699 0.9535
-10.5767 6.4443 -0.9081 0.9515
-11.6446 6.5372 -0.9792 0.9478
-13.8622 6.5295 -1.1235 0.9404
-15.2396 6.5248 -1.2155 0.9357
-16.8564 6.5159 -1.3251 0.9301
-18.8075 6.5091 -1.4593 0.9233
-20.9352 6.4191 -1.6055 0.9159
1.1418 24.4923 -2.3539 0.9062
0.0708 6.4872 -0.6228 0.9743
-0.6332 6.5686 -0.6335 0.9738
-1.1100 6.5669 -0.6394 0.9736
-1.3523 6.5661 -0.6436 0.9734
-1.5982 6.5652 -0.6487 0.9732
-2.1034 6.5635 -0.6617 0.9727
-3.4856 6.5587 -0.7131 0.9706
-3.7910 6.5576 -0.7272 0.9700
-4.1091 6.5565 -0.7429 0.9694
-4.4416 6.5554 -0.7602 0.9687
-4.7905 6.5541 -0.7794 0.9679
-6.3934 6.5426 -0.8782 0.9639
-6.8646 6.5410 -0.9103 0.9626
-7.3723 6.5392 -0.9461 0.9612
-7.9221 6.5373 -0.9861 0.9596
-8.5214 6.5352 -1.0310 0.9578
-11.6446 6.5372 -1.2821 0.9478
-15.2396 6.5248 -1.5915 0.9356
-16.8564 6.5159 -1.7350 0.9300
-18.8075 6.5091 -1.9107 0.9231
-20.9351 6.4191 -2.1022 0.9158
-22.1588 5.9384 -2.2024 0.9119
0.9222 19.7811 -2.3523 0.9233
0.0708 6.4872 -0.7706 0.9742
-0.1606 6.4864 -0.7707 0.9742
-0.3974 6.5694 -0.7818 0.9738
-1.1100 6.5669 -0.7911 0.9735
-1.5982 6.5652 -0.8026 0.9731
-2.1034 6.5635 -0.8187 0.9726
-2.9074 6.5607 -0.8524 0.9715
-3.1915 6.5597 -0.8665 0.9710
-3.4856 6.5587 -0.8823 0.9705
-4.1091 6.5565 -0.9191 0.9693
-4.7906 6.5541 -0.9643 0.9678
-10.5767 6.4443 -1.4712 0.9513
-12.6773 6.5337 -1.6941 0.9442
-13.8622 6.5295 -1.8202 0.9401
-16.8563 6.5159 -2.1467 0.9298
0.0708 6.4872 -0.9192 0.9741
-0.1606 6.4864 -0.9193 0.9741
-0.3974 6.5694 -0.9325 0.9738
-0.6332 6.5686 -0.9350 0.9737
-1.8483 6.5644 -0.9663 0.9728
-2.1034 6.5635 -0.9766 0.9725
-2.9074 6.5607 -1.0168 0.9714
-3.4856 6.5587 -1.0524 0.9704
-3.7910 6.5576 -1.0732 0.9699
-4.1091 6.5565 -1.0963 0.9692
-4.4416 6.5554 -1.1219 0.9685
-5.1364 6.5254 -1.1766 0.9670
-6.3934 6.5426 -1.2961 0.9637
-7.3723 6.5392 -1.3963 0.9610
-7.9221 6.5373 -1.4553 0.9594
-9.9048 6.5304 -1.6810 0.9532
-11.6446 6.5372 -1.8921 0.9475
-12.6773 6.5337 -2.0208 0.9440
-13.8622 6.5295 -2.1711 0.9400
-14.8136 5.7262 -2.2503 0.9379
-15.0023 5.1922 -2.2494 0.9379
-15.1727 4.6522 -2.2486 0.9379
-16.3183 4.3732 -2.3937 0.9340
0.6644 14.2514 -2.3503 0.9438
0.0708 6.4872 -1.0688 0.9740
-0.6332 6.5686 -1.0871 0.9736
-0.8705 6.5677 -1.0914 0.9735
-1.1100 6.5669 -1.0972 0.9734
-1.3523 6.5661 -1.1044 0.9732
-1.5982 6.5652 -1.1131 0.9730
-2.1034 6.5635 -1.1354 0.9724
-2.3644 6.5626 -1.1491 0.9721
-2.6320 6.5616 -1.1647 0.9717
-2.9074 6.5607 -1.1822 0.9713
-4.7906 6.5541 -1.3374 0.9676
-5.1376 6.5270 -1.3684 0.9669
-5.4708 6.4620 -1.3948 0.9663
-5.9537 6.5441 -1.4575 0.9648
-7.3722 6.5392 -1.6234 0.9608
-7.9221 6.5373 -1.6921 0.9592
-9.1786 6.5329 -1.8560 0.9554
-9.9048 6.5304 -1.9544 0.9530
-10.5766 6.4443 -2.0403 0.9510
-11.6446 6.5372 -2.1999 0.9473
-12.2307 6.3034 -2.2667 0.9457
-12.6371 5.4105 -2.2646 0.9458
-12.8170 4.9544 -2.2637 0.9458
-13.3841 4.6321 -2.3332 0.9442
-13.9805 4.2866 -2.4090 0.9424
0.0708 6.4872 -1.2194 0.9739
-0.6332 6.5686 -1.2403 0.9735
-0.8705 6.5677 -1.2453 0.9734
-1.3523 6.5661 -1.2601 0.9731
-1.5982 6.5652 -1.2700 0.9729
-1.8483 6.5644 -1.2818 0.9726
-2.1034 6.5635 -1.2955 0.9723
-2.3644 6.5626 -1.3111 0.9720
-2.6320 6.5616 -1.3288 0.9716
-2.9074 6.5607 -1.3488 0.9712
-3.7910 6.5576 -1.4237 0.9696
-5.1389 6.5286 -1.5617 0.9667
-5.4708 6.4620 -1.5914 0.9661
-6.3934 6.5426 -1.7194 0.9635
-6.8646 6.5410 -1.7822 0.9621
-7.3722 6.5392 -1.8523 0.9607
-7.9221 6.5373 -1.9306 0.9591
-8.5214 6.5352 -2.0185 0.9572
-9.9048 6.5304 -2.2299 0.9529
-10.3539 6.3085 -2.2789 0.9519
-10.9531 5.1592 -2.2757 0.9519
-11.1258 4.7634 -2.2748 0.9519
-12.1708 4.2122 -2.4208 0.9489
-12.3100 3.7744 -2.4201 0.9489
-0.6332 6.5686 -1.3949 0.9734
-1.3523 6.5661 -1.4171 0.9730
-2.6320 6.5616 -1.4944 0.9715
-4.4416 6.5554 -1.6738 0.9681
-4.7905 6.5541 -1.7160 0.9674
-5.9537 6.5441 -1.8701 0.9645
-6.8646 6.5409 -2.0043 0.9620
-9.4283 5.2930 -2.2855 0.9568
-9.6071 4.9513 -2.2846 0.9568
-9.8874 4.6572 -2.3102 0.9563
-10.8617 3.7591 -2.4295 0.9541
-10.9862 3.3685 -2.4290 0.9541
-0.1606 6.4864 -1.5249 0.9737
-0.6332 6.5686 -1.5509 0.9732
-0.8705 6.5677 -1.5571 0.9731
-1.1100 6.5669 -1.5653 0.9730
-1.3523 6.5661 -1.5756 0.9728
-3.1915 6.5597 -1.7145 0.9705
-3.7910 6.5576 -1.7802 0.9694
-5.1414 6.5318 -1.9536 0.9664
-6.8646 6.5409 -2.2285 0.9618
-7.5392 6.2212 -2.2973 0.9606
-7.7521 5.9452 -2.2960 0.9607
-7.9553 5.6621 -2.2949 0.9607
-8.5033 4.7737 -2.2919 0.9607
-9.0198 4.6486 -2.3848 0.9592
-9.5360 4.0828 -2.4380 0.9583
-9.6729 3.7391 -2.4373 0.9583
-9.7977 3.3909 -2.4367 0.9583
-10.0105 2.6828 -2.4357 0.9583
0.0708 6.4872 -1.6797 0.9735
-0.6332 6.5686 -1.7086 0.9731
-0.8705 6.5677 -1.7154 0.9730
-1.1100 6.5669 -1.7244 0.9729
-1.3523 6.5661 -1.7357 0.9727
-2.3644 6.5626 -1.8061 0.9716
-2.6320 6.5616 -1.8305 0.9712
-2.9074 6.5607 -1.8580 0.9708
-3.1915 6.5597 -1.8888 0.9703
-4.1091 6.5565 -2.0034 0.9685
-4.4416 6.5553 -2.0502 0.9678
-4.7905 6.5541 -2.1019 0.9670
-5.1428 6.5335 -2.1528 0.9662
-5.4708 6.4620 -2.1922 0.9656
-5.9963 6.5908 -2.3071 0.9639
-6.6548 5.9028 -2.3032 0.9639
-6.8576 5.6588 -2.3020 0.9639
-8.2379 4.6247 -2.4461 0.9617
-8.3948 4.3265 -2.4452 0.9617
-8.5410 4.0231 -2.4445 0.9617
-8.6766 3.7148 -2.4438 0.9618
-8.8013 3.4022 -2.4432 0.9618
0.3863 8.2860 -2.3483 0.9661
0.0708 6.4872 -1.8366 0.9734
-0.1606 6.4864 -1.8368 0.9734
-0.3974 6.5694 -1.8631 0.9730
-0.6332 6.5686 -1.8681 0.9729
-1.1100 6.5669 -1.8854 0.9727
-1.5982 6.5652 -1.9128 0.9723
-1.8483 6.5643 -1.9306 0.9720
-2.3644 6.5626 -1.9747 0.9714
-2.6320 6.5616 -2.0014 0.9710
-2.9074 6.5607 -2.0315 0.9706
-3.7910 6.5576 -2.1443 0.9690
-4.1091 6.5565 -2.1905 0.9683
-5.0542 6.4209 -2.3133 0.9666
-5.2769 6.2330 -2.3120 0.9666
-5.7016 5.8346 -2.3094 0.9667
-5.9030 5.6246 -2.3082 0.9667
-6.0969 5.4079 -2.3071 0.9667
-6.6308 4.7195 -2.3041 0.9667
-7.0653 4.6582 -2.3957 0.9654
-7.5490 4.2379 -2.4508 0.9647
-7.6929 3.9647 -2.4500 0.9647
-7.8271 3.6868 -2.4493 0.9647
-8.1704 2.8277 -2.4476 0.9647
-8.2646 2.5341 -2.4472 0.9647
0.3555 7.6259 -2.3481 0.9686
-0.3974 6.5694 -2.0243 0.9728
-0.8705 6.5677 -2.0377 0.9727
-2.6320 6.5616 -2.1745 0.9708
-2.9074 6.5607 -2.2072 0.9704
-3.7775 6.5344 -2.3215 0.9689
-4.4461 6.0828 -2.3174 0.9690
-4.6576 5.9171 -2.3162 0.9690
-4.8631 5.7442 -2.3149 0.9690
-5.0623 5.5642 -2.3137 0.9690
-5.2549 5.3775 -2.3126 0.9690
-5.6197 4.9846 -2.3105 0.9691
-6.0900 4.6705 -2.3606 0.9684
-6.8178 4.1540 -2.4556 0.9671
-6.9594 3.9070 -2.4548 0.9672
-7.0923 3.6552 -2.4541 0.9672
-7.3311 3.1388 -2.4529 0.9672
-7.6201 2.3364 -2.4515 0.9672
-7.6975 2.0629 -2.4511 0.9672
0.3289 7.0559 -2.3480 0.9707
-0.3974 6.5694 -2.1877 0.9726
-0.8705 6.5677 -2.2022 0.9725
-1.1100 6.5669 -2.2138 0.9723
-1.8483 6.5643 -2.2668 0.9717
-2.1411 6.6810 -2.3321 0.9709
-2.6086 6.5032 -2.3291 0.9709
-2.8372 6.4021 -2.3277 0.9709
-3.0618 6.2931 -2.3263 0.9709
-3.2824 6.1762 -2.3249 0.9709
-3.4986 6.0518 -2.3236 0.9710
-4.1183 5.6343 -2.3198 0.9710
-4.3144 5.4811 -2.3187 0.9710
-4.5049 5.3211 -2.3175 0.9710
-4.8683 4.9818 -2.3154 0.9711
-5.6469 4.6597 -2.4336 0.9696
-5.8760 4.5064 -2.4615 0.9693
-6.0308 4.2924 -2.4606 0.9693
-6.5721 3.3871 -2.4576 0.9693
-6.9810 2.4161 -2.4556 0.9693
-7.0617 2.1652 -2.4552 0.9693
-7.1335 1.9117 -2.4549 0.9693
0.3058 6.5588 -2.3480 0.9725
0.0716 6.5613 -2.3465 0.9725
-0.1623 6.5555 -2.3450 0.9725
-0.6284 6.5188 -2.3420 0.9726
-1.7695 6.2843 -2.3347 0.9726
-1.9913 6.2135 -2.3333 0.9727
-2.2103 6.1349 -2.3319 0.9727
-2.6390 5.9549 -2.3293 0.9727
-3.2546 5.6298 -2.3255 0.9728
-4.0141 5.0996 -2.3208 0.9728
-4.1915 4.9509 -2.3198 0.9728
-4.3635 4.7961 -2.3188 0.9728
-4.5764 4.6831 -2.3416 0.9726
-5.7496 3.7907 -2.4628 0.9712
-6.2237 2.9315 -2.4602 0.9712
-6.3230 2.7072 -2.4597 0.9712
-6.4144 2.4795 -2.4592 0.9712
-6.5728 2.0153 -2.4585 0.9712
-6.6396 1.7794 -2.4582 0.9712
0.0668 6.1234 -2.3467 0.9741
-0.1515 6.1182 -2.3453 0.9741
-0.3694 6.1052 -2.3439 0.9741
-1.0176 6.0202 -2.3398 0.9742
-1.2309 5.9766 -2.3384 0.9742
-2.0637 5.7279 -2.3331 0.9743
-2.4641 5.5602 -2.3306 0.9743
-2.8512 5.3649 -2.3282 0.9743
-3.0392 5.2572 -2.3271 0.9743
-3.7489 4.7627 -2.3228 0.9744
-3.9662 4.6847 -2.3523 0.9740
-4.2493 4.6706 -2.4198 0.9733
-4.6652 4.4452 -2.4694 0.9728
-4.8190 4.2744 -2.4685 0.9728
-5.2428 3.7315 -2.4661 0.9728
-5.4924 3.3464 -2.4647 0.9728
-5.6068 3.1476 -2.4641 0.9728
-5.8143 2.7387 -2.4630 0.9728
-6.0704 2.1009 -2.4617 0.9729
-6.1407 1.8828 -2.4614 0.9729
-6.2032 1.6624 -2.4611 0.9729
0.0626 5.7341 -2.3470 0.9755
-0.3459 5.7175 -2.3443 0.9755
-0.9530 5.6384 -2.3404 0.9756
-1.1529 5.5978 -2.3391 0.9756
-1.7414 5.4340 -2.3354 0.9756
-1.9332 5.3656 -2.3342 0.9757
-2.4915 5.1208 -2.3307 0.9757
-2.6712 5.0263 -2.3296 0.9757
-2.8475 4.9255 -2.3285 0.9757
-3.0200 4.8187 -2.3275 0.9757
-3.4236 4.6839 -2.3745 0.9752
-3.6772 4.6715 -2.4332 0.9746
-3.9062 4.6139 -2.4742 0.9742
-4.0667 4.4699 -2.4733 0.9742
-4.3718 4.1656 -2.4715 0.9742
-4.6546 3.8409 -2.4698 0.9743
-5.0338 3.3188 -2.4677 0.9743
-5.1476 3.1364 -2.4671 0.9743
-5.2550 2.9501 -2.4665 0.9743
-5.3556 2.7602 -2.4659 0.9743
-5.4496 2.5669 -2.4654 0.9743
-5.6168 2.1712 -2.4646 0.9743
-5.6898 1.9692 -2.4642 0.9743
-5.8144 1.5582 -2.4637 0.9743
0.2509 5.3826 -2.3484 0.9768
0.0588 5.3853 -2.3471 0.9768
-0.3249 5.3701 -2.3447 0.9768
-0.7061 5.3277 -2.3422 0.9768
-1.0830 5.2584 -2.3398 0.9768
-1.2692 5.2138 -2.3386 0.9769
-2.1688 4.8940 -2.3330 0.9769
-2.3409 4.8113 -2.3319 0.9769
-2.5099 4.7227 -2.3308 0.9769
-2.7116 4.6906 -2.3612 0.9766
-2.9335 4.6807 -2.4075 0.9762
-3.1642 4.6699 -2.4584 0.9757
-3.5152 4.4657 -2.4769 0.9755
-4.2443 3.7647 -2.4725 0.9755
-4.8383 2.9479 -2.4692 0.9756
-4.9392 2.7729 -2.4686 0.9756
-5.0339 2.5944 -2.4681 0.9756
-5.1223 2.4128 -2.4677 0.9756
-5.2042 2.2282 -2.4672 0.9756
-5.3483 1.8510 -2.4665 0.9756
0.2363 5.0681 -2.3485 0.9779
0.0553 5.0707 -2.3473 0.9779
-0.1254 5.0669 -2.3461 0.9779
-0.3059 5.0567 -2.3450 0.9779
-0.4858 5.0401 -2.3438 0.9779
-0.6650 5.0171 -2.3427 0.9779
-1.1953 4.9103 -2.3393 0.9780
-1.3691 4.8622 -2.3382 0.9780
-1.5409 4.8081 -2.3371 0.9780
-1.7106 4.7479 -2.3360 0.9780
-2.0792 4.6917 -2.3754 0.9776
-2.8465 4.5419 -2.4812 0.9767
-3.7382 3.8254 -2.4758 0.9767
-3.8711 3.6885 -2.4750 0.9767
-3.9989 3.5470 -2.4743 0.9767
-4.2392 3.2511 -2.4729 0.9767
-4.3513 3.0970 -2.4723 0.9767
-4.4579 2.9392 -2.4717 0.9767
-4.6541 2.6128 -2.4706 0.9767
-4.9039 2.0996 -2.4693 0.9768
-4.9750 1.9231 -2.4689 0.9768
-5.0397 1.7442 -2.4686 0.9768
-5.1502 1.3802 -2.4681 0.9768
0.2230 4.7827 -2.3486 0.9789
-0.2887 4.7724 -2.3452 0.9789
-0.9686 4.7028 -2.3552 0.9788
-1.1437 4.6980 -2.3718 0.9787
-1.8754 4.6753 -2.4710 0.9778
-2.0536 4.6339 -2.4863 0.9777
-2.2167 4.5559 -2.4852 0.9777
-2.3767 4.4722 -2.4843 0.9777
-2.5338 4.3828 -2.4833 0.9777
-2.6874 4.2881 -2.4824 0.9777
-2.9841 4.0826 -2.4805 0.9777
-3.1267 3.9722 -2.4797 0.9777
-3.2653 3.8569 -2.4789 0.9777
-3.3997 3.7368 -2.4781 0.9777
-3.5296 3.6120 -2.4773 0.9778
-3.6552 3.4828 -2.4765 0.9778
-3.8920 3.2116 -2.4752 0.9778
-4.0030 3.0699 -2.4745 0.9778
-4.3051 2.6230 -2.4728 0.9778
-4.4794 2.3086 -2.4719 0.9778
-4.6311 1.9828 -2.4711 0.9778
-4.6982 1.8161 -2.4708 0.9778
-4.8146 1.4762 -2.4702 0.9778
-4.8638 1.3035 -2.4700 0.9778
0.2188 4.6939 -2.4377 0.9790
0.0513 4.6934 -2.4350 0.9791
-0.1162 4.6924 -2.4351 0.9791
-0.2838 4.6909 -2.4380 0.9790
-0.9637 4.6793 -2.4785 0.9787
-1.3015 4.6222 -2.4912 0.9786
-1.7855 4.4513 -2.4881 0.9786
-2.0967 4.3094 -2.4862 0.9786
-2.2482 4.2303 -2.4852 0.9786
-2.8229 3.8621 -2.4817 0.9787
-3.6822 3.0385 -2.4766 0.9787
-3.7873 2.9045 -2.4760 0.9787
-3.9829 2.6260 -2.4749 0.9787
-4.2382 2.1843 -2.4735 0.9787
-4.3818 1.8761 -2.4728 0.9787
-4.4454 1.7184 -2.4725 0.9788
-4.6021 1.2333 -2.4717 0.9788
-0.5987 4.5173 -2.4958 0.9794
-0.7591 4.4912 -2.4948 0.9794
-1.2330 4.3792 -2.4917 0.9795
-1.5408 4.2768 -2.4898 0.9795
-1.9866 4.0832 -2.4870 0.9795
-2.2711 3.9284 -2.4853 0.9795
-2.6750 3.6597 -2.4828 0.9795
-2.8029 3.5609 -2.4820 0.9795
-2.9273 3.4576 -2.4813 0.9796
-3.1645 3.2383 -2.4799 0.9796
-3.2771 3.1226 -2.4792 0.9796
-3.4896 2.8796 -2.4780 0.9796
-3.5893 2.7526 -2.4774 0.9796
-3.9411 2.2125 -2.4755 0.9796
-4.0168 2.0702 -2.4750 0.9796
-4.0875 1.9253 -2.4747 0.9796
-4.3178 1.3239 -2.4735 0.9796
0.2017 4.3273 -2.5011 0.9802
-0.4150 4.3052 -2.4971 0.9802
-0.5681 4.2859 -2.4961 0.9802
-1.0214 4.1959 -2.4932 0.9803
-1.3169 4.1093 -2.4914 0.9803
-1.7464 3.9409 -2.4887 0.9803
-1.8852 3.8747 -2.4878 0.9803
-2.0215 3.8037 -2.4870 0.9803
-2.2860 3.6476 -2.4853 0.9803
-2.4139 3.5626 -2.4846 0.9803
-2.6601 3.3794 -2.4831 0.9803
-2.8926 3.1794 -2.4817 0.9803
-3.0034 3.0734 -2.4810 0.9803
-3.1103 2.9636 -2.4804 0.9804
-3.3121 2.7331 -2.4792 0.9804
-3.4067 2.6126 -2.4787 0.9804
-3.5828 2.3622 -2.4777 0.9804
-3.7408 2.1001 -2.4768 0.9804
-3.9992 1.5459 -2.4755 0.9804
-4.0514 1.4022 -2.4752 0.9804
-4.1404 1.1096 -2.4748 0.9804
