ply
format ascii 1.0
element vertex 579
property float32 x
property float32 y
property float32 z
property float32 I
end_header
-38.4150 16.4351 7.3675 0.8439
-37.6088 14.5300 7.1092 0.8489
-38.5149 13.3256 7.1862 0.8474
-41.3488 12.6780 7.6259 0.8389
-42.7746 11.4672 7.8087 0.8354
-38.5337 -7.8385 6.9337 0.8524
-30.8508 -7.4277 5.5953 0.8791
-22.4099 -7.1152 4.1459 0.9089
-22.2253 -7.9375 4.1614 0.9086
-37.1418 15.8904 6.1888 0.8492
-37.6869 14.5602 6.1893 0.8492
-38.9234 13.4670 6.3097 0.8465
-42.8529 8.2750 6.6861 0.8381
-38.4489 -7.8213 6.0108 0.8532
-22.1690 -7.0387 3.5632 0.9102
-21.1762 -8.4238 3.4913 0.9119
-34.7775 -21.6360 6.2746 0.8473
-42.1295 21.6892 6.1705 0.8260
-41.5637 17.7822 5.8870 0.8333
-42.5040 16.4212 5.9336 0.8321
-46.1331 15.9615 6.3569 0.8213
-46.9264 9.0616 6.2237 0.8247
-38.9839 -7.9301 5.1805 0.8517
-38.1430 -9.1834 5.1090 0.8536
-21.8904 -6.9503 2.9908 0.9115
-34.7752 -21.6346 5.3333 0.8477
-32.1334 -21.6138 5.0429 0.8554
-37.1597 30.6034 5.1693 0.8239
-36.9704 28.3016 4.9996 0.8292
-37.9836 25.0048 4.8832 0.8328
-45.7438 17.6729 5.2659 0.8210
-43.9998 13.4908 4.9419 0.8310
-47.8838 12.8369 5.3234 0.8192
-38.9441 -6.4886 4.2395 0.8531
-37.9229 -9.1304 4.1886 0.8548
-21.6612 -6.8775 2.4404 0.9126
-21.8174 -7.7919 2.4877 0.9110
-20.5596 -9.0385 2.4117 0.9136
-41.0519 -21.6526 4.9838 0.8297
-36.0253 29.6691 3.9507 0.8292
-35.9371 27.5106 3.8312 0.8339
-40.0360 24.3597 3.9672 0.8285
-38.8373 -6.4708 3.3330 0.8538
-38.9077 -7.9146 3.3611 0.8527
-21.6268 -6.8666 1.9208 0.9129
-20.5544 -8.1765 1.8726 0.9150
-20.4547 -8.9924 1.8915 0.9142
-41.0539 -21.6537 3.9291 0.8300
-34.7705 -21.6317 3.4665 0.8484
-35.5320 27.2005 2.7748 0.8358
-35.5522 25.2618 2.7045 0.8396
-39.3042 23.9143 2.8530 0.8316
-42.7128 23.9490 3.0366 0.8218
-39.3137 -6.5502 2.4715 0.8524
-38.8362 -7.9000 2.4576 0.8531
-21.4584 -6.8131 1.3961 0.9137
-20.6872 -7.3882 1.3622 0.9157
-21.0092 -8.3574 1.4021 0.9134
-20.3233 -8.9346 1.3767 0.9149
-44.9291 -21.6908 3.0938 0.8188
-41.0558 -21.6547 2.8783 0.8303
-37.7233 -21.6463 2.6970 0.8400
-34.7682 -21.6302 2.5392 0.8487
-30.5627 27.0516 1.6094 0.8493
-32.1133 22.8184 1.5534 0.8541
-42.7138 23.9495 1.9309 0.8220
-21.6549 -7.7338 0.9067 0.9121
-21.2238 -8.4428 0.9007 0.9126
-44.9247 -21.6887 1.9671 0.8190
-28.9755 25.6466 0.6536 0.8566
-29.0387 22.2297 0.6177 0.8639
-10.5914 6.4443 0.2094 0.9516
-40.0463 22.4539 0.7755 0.8322
-44.1125 22.7100 0.8381 0.8200
-44.9203 -21.6866 0.8426 0.8191
-34.7636 -21.6274 0.6916 0.8489
-32.1311 -21.6122 0.6541 0.8565
-8.5369 6.5352 -0.0605 0.9579
-16.8656 6.5160 -0.1018 0.9302
-20.9359 6.4192 -0.1233 0.9161
-28.1154 6.4747 -0.1624 0.8910
-33.4208 6.4537 -0.1916 0.8727
-21.8284 -7.7958 -0.1305 0.9115
-44.9160 -21.6845 -0.2808 0.8191
-37.7196 -21.6442 -0.2448 0.8403
-34.7614 -21.6260 -0.2305 0.8489
-32.1306 -21.6119 -0.2180 0.8565
-9.1940 6.5330 -0.3176 0.9559
-9.9200 6.5304 -0.3344 0.9536
-11.6591 6.5373 -0.3764 0.9479
-12.6911 6.5337 -0.4019 0.9445
-16.8655 6.5160 -0.5091 0.9302
-33.4206 6.4537 -0.9584 0.8727
-41.1300 6.4339 -1.1722 0.8465
-44.9116 -21.6824 -1.4043 0.8191
-41.0634 -21.6587 -1.3072 0.8305
-37.7184 -21.6435 -1.2245 0.8403
-32.1301 -21.6115 -1.0903 0.8565
-8.5369 6.5352 -0.5452 0.9579
-9.1940 6.5329 -0.5720 0.9558
-13.8750 6.5296 -0.7777 0.9404
-18.8133 6.5092 -1.0096 0.9234
-20.9358 6.4192 -1.1105 0.9160
-43.7777 -0.9964 -2.2207 0.8391
-43.5081 -5.6665 -2.2251 0.8388
-42.7953 -10.3036 -2.2323 0.8384
-42.4594 -11.8357 -2.2354 0.8382
-42.0742 -13.3587 -2.2387 0.8379
-41.6402 -14.8714 -2.2424 0.8377
-40.0461 -19.3334 -2.2552 0.8369
-36.3823 -20.8769 -2.1273 0.8454
-34.7568 -21.6231 -2.0759 0.8488
-7.9377 6.5373 -0.7540 0.9596
-8.5369 6.5352 -0.7883 0.9578
-9.1940 6.5329 -0.8270 0.9558
-9.9200 6.5304 -0.8708 0.9535
-10.5913 6.4443 -0.9090 0.9515
-12.6911 6.5337 -1.0466 0.9444
-15.2508 6.5248 -1.2163 0.9356
-16.8654 6.5159 -1.3257 0.9301
-20.9357 6.4192 -1.6056 0.9159
-28.9286 5.5862 -2.1603 0.8885
-31.1377 3.7415 -2.2995 0.8818
-31.3257 1.5178 -2.2996 0.8818
-31.3651 0.4024 -2.2999 0.8818
-31.3342 -1.8302 -2.3014 0.8817
-31.2640 -2.9452 -2.3025 0.8817
-29.1161 -5.9228 -2.1786 0.8877
-28.7537 -6.9229 -2.1685 0.8881
-28.5170 -7.9492 -2.1706 0.8880
-28.2463 -8.9683 -2.1730 0.8879
-21.8036 -7.7869 -1.6976 0.9113
-29.3943 -11.6930 -2.3195 0.8808
-28.9990 -12.7486 -2.3227 0.8807
-28.5684 -13.7922 -2.3260 0.8805
-28.1028 -14.8227 -2.3296 0.8804
-27.6027 -15.8390 -2.3334 0.8802
-27.0682 -16.8399 -2.3374 0.8800
-6.8803 6.5410 -0.9114 0.9626
-7.3879 6.5392 -0.9472 0.9611
-7.9377 6.5373 -0.9872 0.9595
-8.5368 6.5352 -1.0322 0.9577
-9.1940 6.5329 -1.0828 0.9557
-9.9199 6.5304 -1.1402 0.9534
-12.6910 6.5337 -1.3704 0.9443
-15.2508 6.5248 -1.5925 0.9355
-22.1707 5.9436 -2.2037 0.9119
-22.3603 5.1493 -2.2029 0.9119
-23.6876 4.5741 -2.3161 0.9076
-24.1289 3.7744 -2.3447 0.9065
-24.2453 2.9133 -2.3444 0.9065
-24.4212 0.3133 -2.3448 0.9065
-24.4220 -0.5558 -2.3452 0.9065
-24.3366 -2.2926 -2.3468 0.9064
-24.2504 -3.1584 -2.3478 0.9064
-24.1354 -4.0213 -2.3491 0.9064
-23.9915 -4.8803 -2.3505 0.9063
-23.8188 -5.7347 -2.3521 0.9062
-22.1792 -6.1825 -2.2105 0.9116
-21.4525 -8.5337 -2.2165 0.9114
-21.1576 -9.3014 -2.2188 0.9113
-21.8190 -11.5083 -2.3682 0.9056
-20.9999 -13.0646 -2.3744 0.9054
-20.5505 -13.8228 -2.3777 0.9053
-6.8803 6.5409 -1.1277 0.9625
-7.3879 6.5392 -1.1720 0.9610
-9.9199 6.5304 -1.4108 0.9533
-15.2507 6.5248 -1.9704 0.9354
-16.8653 6.5159 -2.1477 0.9298
-17.7572 6.1438 -2.2320 0.9271
-18.1352 4.8618 -2.2303 0.9272
-19.4778 4.4855 -2.3742 0.9226
-19.6207 3.7888 -2.3737 0.9227
-19.7400 3.0879 -2.3733 0.9227
-19.9790 0.2563 -2.3734 0.9227
-19.9066 -1.8753 -2.3751 0.9226
-19.8345 -2.5832 -2.3760 0.9226
-19.7385 -3.2887 -2.3770 0.9226
-17.4900 -10.0361 -2.3953 0.9220
-17.1405 -10.6636 -2.3979 0.9219
-6.8802 6.5409 -1.3451 0.9624
-7.3878 6.5392 -1.3979 0.9609
-7.9377 6.5373 -1.4570 0.9593
-9.1940 6.5329 -1.5981 0.9555
-9.9199 6.5304 -1.6828 0.9532
-10.5912 6.4443 -1.7566 0.9511
-11.6590 6.5372 -1.8939 0.9474
-13.8749 6.5295 -2.1727 0.9399
-14.8204 5.7258 -2.2512 0.9378
-16.3242 4.3763 -2.3946 0.9340
-16.5870 3.2030 -2.3936 0.9340
-16.6882 2.6105 -2.3933 0.9340
-16.7692 2.0150 -2.3931 0.9340
-16.8299 1.4170 -2.3931 0.9340
-16.8702 0.8174 -2.3931 0.9340
-16.8271 -1.5852 -2.3948 0.9340
-16.6830 -2.7796 -2.3964 0.9340
-16.1520 -5.1283 -2.4011 0.9338
-15.9692 -5.7033 -2.4027 0.9338
-14.8067 -5.8901 -2.2578 0.9377
-14.1277 -7.4516 -2.2631 0.9375
-13.8657 -7.9564 -2.2651 0.9375
-13.5863 -8.4524 -2.2672 0.9374
-13.2898 -8.9391 -2.2694 0.9373
-6.8803 6.5409 -1.5639 0.9622
-7.3878 6.5392 -1.6253 0.9608
-9.1939 6.5329 -1.8580 0.9553
-10.5912 6.4442 -2.0424 0.9510
-12.4479 5.8579 -2.2664 0.9458
-12.8222 4.9538 -2.2645 0.9458
-14.1252 3.7868 -2.4091 0.9424
-14.2480 3.2811 -2.4086 0.9425
-14.5115 1.7437 -2.4078 0.9425
-14.5641 1.2263 -2.4078 0.9425
-14.5989 0.7074 -2.4078 0.9425
-14.6160 0.1875 -2.4080 0.9425
-14.6152 -0.3326 -2.4083 0.9425
-14.4343 -2.4049 -2.4107 0.9424
-14.3447 -2.9180 -2.4115 0.9424
-14.2377 -3.4279 -2.4125 0.9424
-13.9711 -4.4359 -2.4148 0.9423
-12.4267 -5.9994 -2.2733 0.9456
-12.2141 -6.4423 -2.2749 0.9456
-11.7432 -7.3058 -2.2784 0.9455
-11.4854 -7.7254 -2.2803 0.9454
-7.3878 6.5392 -1.8544 0.9606
-7.9377 6.5372 -1.9328 0.9590
-8.5368 6.5352 -2.0208 0.9572
-9.1939 6.5329 -2.1199 0.9551
-10.1351 6.6720 -2.2807 0.9518
-10.3608 6.3040 -2.2796 0.9518
-10.7723 5.5458 -2.2774 0.9519
-10.9581 5.1569 -2.2764 0.9519
-11.9737 4.6260 -2.4127 0.9491
-12.1747 4.2123 -2.4215 0.9489
-12.4373 3.3343 -2.4203 0.9489
-12.5458 2.8891 -2.4198 0.9490
-12.7783 1.5354 -2.4191 0.9490
-12.8246 1.0798 -2.4191 0.9490
-12.8693 -0.2929 -2.4196 0.9490
-12.8527 -0.7507 -2.4199 0.9489
-12.7085 -2.1174 -2.4216 0.9489
-12.4239 -3.4632 -2.4242 0.9489
-11.8304 -5.2009 -2.4290 0.9488
-11.6447 -5.6218 -2.4305 0.9487
-11.0494 -5.8279 -2.3480 0.9504
-10.3313 -6.4274 -2.2870 0.9517
-10.1035 -6.7959 -2.2887 0.9516
-6.8802 6.5409 -2.0067 0.9619
-7.3878 6.5391 -2.0855 0.9605
-7.9376 6.5372 -2.1736 0.9588
-8.6051 6.5874 -2.2907 0.9567
-8.8291 6.2736 -2.2895 0.9567
-9.0420 5.9524 -2.2883 0.9567
-9.2436 5.6242 -2.2872 0.9567
-9.4336 5.2894 -2.2861 0.9567
-9.8958 4.6570 -2.3118 0.9563
-10.7271 4.1444 -2.4308 0.9541
-10.9890 3.3694 -2.4296 0.9541
-11.2799 2.1782 -2.4284 0.9541
-11.3492 1.7753 -2.4282 0.9541
-11.4460 0.9637 -2.4280 0.9541
-11.4733 0.5559 -2.4281 0.9541
-11.4865 0.1474 -2.4282 0.9541
-11.4706 -0.6700 -2.4288 0.9541
-11.3983 -1.4845 -2.4297 0.9541
-11.1847 -2.6929 -2.4318 0.9541
-10.9731 -3.4840 -2.4336 0.9540
-10.5539 -4.6398 -2.4370 0.9540
-10.3876 -5.0149 -2.4382 0.9539
-9.0101 -6.0604 -2.2953 0.9566
-6.8802 6.5409 -2.2311 0.9617
-7.3250 6.4835 -2.2990 0.9606
-7.7591 5.9398 -2.2966 0.9606
-7.9615 5.6571 -2.2954 0.9607
-8.1539 5.3678 -2.2943 0.9607
-8.3361 5.0721 -2.2933 0.9607
-9.0289 4.6483 -2.3867 0.9591
-9.3911 4.4194 -2.4393 0.9582
-9.5394 4.0812 -2.4385 0.9583
-9.8002 3.3908 -2.4372 0.9583
-10.0126 2.6842 -2.4363 0.9583
-10.1002 2.3260 -2.4359 0.9583
-10.2381 1.6015 -2.4354 0.9583
-10.3254 0.8694 -2.4353 0.9583
-10.3500 0.5015 -2.4353 0.9583
-10.3472 -0.6044 -2.4360 0.9583
-10.2298 -1.7044 -2.4374 0.9583
-10.0881 -2.4289 -2.4387 0.9583
-9.6558 -3.8410 -2.4423 0.9582
-9.3668 -4.5221 -2.4445 0.9582
-9.2046 -4.8549 -2.4458 0.9581
-9.0309 -5.1821 -2.4471 0.9581
-8.8457 -5.5032 -2.4485 0.9581
-6.6623 5.8969 -2.3036 0.9639
-6.8644 5.6533 -2.3025 0.9639
-7.4176 4.8831 -2.2994 0.9640
-7.6716 4.6678 -2.3251 0.9636
-8.2421 4.6213 -2.4466 0.9617
-8.5443 4.0209 -2.4450 0.9617
-8.8038 3.4013 -2.4437 0.9618
-8.9172 3.0852 -2.4431 0.9618
-9.1906 2.1165 -2.4419 0.9618
-9.2591 1.7880 -2.4416 0.9618
-9.3618 1.1249 -2.4414 0.9618
-9.4288 0.1210 -2.4415 0.9618
-9.4154 -0.5499 -2.4420 0.9618
-9.3912 -0.8847 -2.4423 0.9618
-9.0969 -2.5358 -2.4451 0.9617
-8.8995 -3.1784 -2.4468 0.9617
-8.6578 -3.8061 -2.4487 0.9617
-8.3726 -4.4161 -2.4509 0.9616
-8.2142 -4.7135 -2.4521 0.9616
-8.0454 -5.0053 -2.4533 0.9616
-7.8662 -5.2912 -2.4546 0.9616
-5.9104 5.6189 -2.3087 0.9667
-6.1037 5.4024 -2.3075 0.9667
-6.2891 5.1795 -2.3065 0.9667
-7.3997 4.5023 -2.4521 0.9646
-7.5526 4.2348 -2.4513 0.9646
-7.6961 3.9621 -2.4505 0.9647
-7.9540 3.4030 -2.4491 0.9647
-8.0681 3.1171 -2.4486 0.9647
-8.2662 2.5345 -2.4476 0.9647
-8.4232 1.9397 -2.4469 0.9647
-8.4860 1.6387 -2.4467 0.9647
-8.5384 1.3356 -2.4465 0.9647
-8.6113 0.7251 -2.4464 0.9647
-8.6416 0.1109 -2.4466 0.9647
-8.6291 -0.5040 -2.4470 0.9647
-8.4115 -2.0252 -2.4493 0.9647
-8.3363 -2.3238 -2.4499 0.9647
-8.1550 -2.9125 -2.4514 0.9646
-7.9329 -3.4875 -2.4532 0.9646
-7.8069 -3.7690 -2.4542 0.9646
-5.4475 5.1788 -2.3119 0.9690
-5.6258 4.9795 -2.3108 0.9690
-5.7970 4.7742 -2.3099 0.9691
-6.1005 4.6701 -2.3631 0.9684
-6.6718 4.3921 -2.4568 0.9671
-6.8215 4.1505 -2.4560 0.9671
-7.0951 3.6527 -2.4545 0.9672
-7.3332 3.1374 -2.4533 0.9672
-7.6214 2.3368 -2.4519 0.9672
-7.6986 2.0639 -2.4515 0.9672
-7.9678 0.1022 -2.4509 0.9672
-7.9670 -0.1813 -2.4511 0.9672
-7.9356 -0.7476 -2.4516 0.9672
-7.8648 -1.3104 -2.4524 0.9672
-7.7549 -1.8671 -2.4534 0.9672
-7.6855 -2.1424 -2.4540 0.9672
-7.6065 -2.4151 -2.4547 0.9672
-7.3128 -3.2149 -2.4570 0.9671
-7.1964 -3.4743 -2.4579 0.9671
-6.9367 -3.9804 -2.4599 0.9671
-6.1819 4.0696 -2.4602 0.9693
-6.3207 3.8458 -2.4594 0.9693
-6.4517 3.6175 -2.4587 0.9693
-6.5746 3.3848 -2.4580 0.9693
-6.6892 3.1479 -2.4574 0.9693
-6.7954 2.9073 -2.4569 0.9693
-6.9823 2.4158 -2.4560 0.9693
-7.0628 2.1655 -2.4556 0.9693
-7.1345 1.9126 -2.4553 0.9693
-7.3316 0.8810 -2.4546 0.9694
-7.3582 0.6195 -2.4546 0.9694
-7.3757 0.3574 -2.4546 0.9694
-7.3840 0.0947 -2.4547 0.9694
-7.3257 -0.9541 -2.4557 0.9693
-7.2883 -1.2143 -2.4561 0.9693
-7.2417 -1.4731 -2.4565 0.9693
-7.1218 -1.9852 -2.4576 0.9693
-6.9662 -2.4879 -2.4589 0.9693
-6.8753 -2.7350 -2.4596 0.9693
-6.7758 -2.9788 -2.4604 0.9693
-6.6678 -3.2191 -2.4612 0.9693
-6.5514 -3.4555 -2.4621 0.9693
-6.4268 -3.6878 -2.4630 0.9692
-6.2940 -3.9157 -2.4640 0.9692
-6.1533 -4.1389 -2.4650 0.9692
-4.9084 4.6663 -2.4219 0.9716
-5.3220 4.3830 -2.4655 0.9711
-5.7530 3.7873 -2.4631 0.9712
-6.0044 3.3667 -2.4617 0.9712
-6.1189 3.1501 -2.4611 0.9712
-6.3246 2.7059 -2.4600 0.9712
-6.6405 1.7802 -2.4585 0.9712
-6.7491 1.3033 -2.4581 0.9712
-6.8241 0.8200 -2.4579 0.9712
-6.8488 0.5767 -2.4579 0.9712
-6.8651 0.3326 -2.4579 0.9712
-6.8729 0.0882 -2.4580 0.9712
-6.8721 -0.1564 -2.4581 0.9712
-6.8627 -0.4008 -2.4583 0.9712
-6.8184 -0.8880 -2.4589 0.9712
-6.3985 -2.5453 -2.4625 0.9712
-6.0966 -3.2156 -2.4649 0.9711
-4.6708 4.4404 -2.4697 0.9728
-4.8241 4.2699 -2.4688 0.9728
-4.9712 4.0941 -2.4680 0.9728
-5.6092 3.1451 -2.4644 0.9728
-5.9086 2.5279 -2.4628 0.9728
-6.1415 1.8831 -2.4617 0.9729
-6.2039 1.6632 -2.4614 0.9729
-6.2586 1.4413 -2.4612 0.9729
-6.3055 1.2176 -2.4610 0.9729
-6.3987 0.5388 -2.4608 0.9729
-6.4204 -0.1461 -2.4610 0.9729
-6.4116 -0.3745 -2.4612 0.9729
-6.3948 -0.6024 -2.4615 0.9729
-6.3701 -0.8296 -2.4618 0.9729
-6.3374 -1.0559 -2.4621 0.9729
-6.2968 -1.2809 -2.4625 0.9728
-6.2484 -1.5044 -2.4629 0.9728
-6.1921 -1.7261 -2.4634 0.9728
-5.9772 -2.3777 -2.4652 0.9728
-5.8905 -2.5896 -2.4658 0.9728
-5.7963 -2.7983 -2.4666 0.9728
-5.6949 -3.0037 -2.4673 0.9728
-5.5862 -3.2055 -2.4682 0.9728
-5.4705 -3.4034 -2.4690 0.9728
-5.3479 -3.5972 -2.4699 0.9728
-4.3771 4.1612 -2.4718 0.9742
-4.5208 4.0015 -2.4709 0.9742
-5.1502 3.1336 -2.4674 0.9743
-5.7564 1.7650 -2.4642 0.9743
-5.9102 1.1413 -2.4636 0.9743
-6.0119 0.2913 -2.4634 0.9743
-6.0187 0.0772 -2.4635 0.9743
-6.0097 -0.3510 -2.4638 0.9743
-5.9400 -0.9897 -2.4646 0.9743
-5.9019 -1.2006 -2.4650 0.9743
-5.7436 -1.8236 -2.4664 0.9743
-5.6764 -2.0273 -2.4669 0.9743
-5.5206 -2.4270 -2.4681 0.9743
-5.4322 -2.6226 -2.4688 0.9743
-5.2351 -3.0040 -2.4703 0.9743
-5.1267 -3.1894 -2.4711 0.9742
-4.1135 3.9107 -2.4736 0.9755
-4.2487 3.7606 -2.4728 0.9755
-4.5028 3.4470 -2.4714 0.9756
-4.8407 2.9453 -2.4695 0.9756
-4.9413 2.7706 -2.4689 0.9756
-5.0357 2.5925 -2.4684 0.9756
-5.1238 2.4112 -2.4679 0.9756
-5.3490 1.8507 -2.4668 0.9756
-5.4109 1.6590 -2.4665 0.9756
-5.5555 1.0728 -2.4659 0.9756
-5.5899 0.8744 -2.4658 0.9756
-5.6173 0.6750 -2.4658 0.9756
-5.6567 -0.1287 -2.4660 0.9756
-5.6489 -0.3299 -2.4661 0.9756
-5.6123 -0.7309 -2.4666 0.9756
-5.4551 -1.5206 -2.4680 0.9756
-5.3353 -1.9054 -2.4690 0.9756
-5.2653 -2.0945 -2.4696 0.9756
-5.0161 -2.6457 -2.4715 0.9756
-4.9202 -2.8233 -2.4722 0.9756
-4.7099 -3.1680 -2.4738 0.9755
-3.8756 3.6844 -2.4753 0.9767
-4.0031 3.5432 -2.4745 0.9767
-4.1254 3.3975 -2.4738 0.9767
-4.3543 3.0940 -2.4725 0.9767
-4.4605 2.9364 -2.4719 0.9767
-4.6560 2.6106 -2.4708 0.9767
-4.8280 2.2721 -2.4699 0.9768
-4.9050 2.0985 -2.4695 0.9768
-4.9759 1.9224 -2.4692 0.9768
-5.0405 1.7439 -2.4689 0.9768
-5.0988 1.5633 -2.4686 0.9768
-5.2676 0.8240 -2.4679 0.9768
-5.3126 0.4473 -2.4678 0.9768
-5.3252 0.2580 -2.4679 0.9768
-5.3305 -0.1213 -2.4681 0.9768
-5.3231 -0.3109 -2.4682 0.9768
-5.2885 -0.6888 -2.4686 0.9768
-5.2613 -0.8766 -2.4689 0.9768
-5.2274 -1.0634 -2.4693 0.9768
-5.1871 -1.2489 -2.4696 0.9768
-5.1402 -1.4328 -2.4700 0.9768
-5.0869 -1.6151 -2.4705 0.9767
-4.9612 -1.9735 -2.4715 0.9767
-4.7261 -2.4928 -2.4733 0.9767
-4.5394 -2.8241 -2.4747 0.9767
-3.7799 3.3456 -2.4761 0.9778
-4.1117 2.9216 -2.4742 0.9778
-4.2120 2.7728 -2.4736 0.9778
-4.3071 2.6207 -2.4731 0.9778
-4.3968 2.4653 -2.4726 0.9778
-4.6321 1.9817 -2.4714 0.9778
-4.6990 1.8154 -2.4710 0.9778
-4.7600 1.6469 -2.4707 0.9778
-4.8151 1.4764 -2.4705 0.9778
-4.8642 1.3040 -2.4703 0.9778
-4.9440 0.9547 -2.4699 0.9778
-4.9746 0.7782 -2.4698 0.9778
-4.9990 0.6007 -2.4698 0.9778
-5.0172 0.4224 -2.4698 0.9778
-5.0347 0.0646 -2.4699 0.9778
-5.0271 -0.2936 -2.4701 0.9778
-5.0138 -0.4723 -2.4703 0.9778
-4.9943 -0.6505 -2.4705 0.9778
-4.9686 -0.8278 -2.4708 0.9778
-4.8984 -1.1793 -2.4714 0.9778
-4.8037 -1.5252 -2.4722 0.9778
-4.7473 -1.6954 -2.4727 0.9778
-4.6849 -1.8636 -2.4732 0.9778
-4.6166 -2.0296 -2.4737 0.9778
-4.3773 -2.5118 -2.4756 0.9778
-4.2863 -2.6667 -2.4762 0.9778
-4.1899 -2.8183 -2.4769 0.9778
-3.4621 3.2913 -2.4782 0.9787
-4.1600 2.3325 -2.4742 0.9787
-4.2396 2.1826 -2.4738 0.9787
-4.5560 1.3969 -2.4722 0.9788
-4.6024 1.2339 -2.4720 0.9788
-4.6431 1.0693 -2.4718 0.9788
-4.6779 0.9033 -2.4717 0.9788
-4.7070 0.7363 -2.4716 0.9788
-4.7301 0.5684 -2.4715 0.9788
-4.7473 0.3997 -2.4715 0.9788
-4.7585 0.2306 -2.4715 0.9788
-4.7638 0.0611 -2.4716 0.9788
-4.7632 -0.1084 -2.4717 0.9788
-4.7566 -0.2778 -2.4718 0.9788
-4.7256 -0.6155 -2.4722 0.9788
-4.5928 -1.2802 -2.4735 0.9787
-4.5450 -1.4431 -2.4739 0.9787
-4.4325 -1.7633 -2.4748 0.9787
-4.2222 -2.2270 -2.4764 0.9787
-4.1413 -2.3764 -2.4770 0.9787
-4.0552 -2.5228 -2.4776 0.9787
-3.9639 -2.6662 -2.4783 0.9787
-3.4927 2.8765 -2.4782 0.9796
-3.8622 2.3499 -2.4761 0.9796
-3.9426 2.2106 -2.4757 0.9796
-4.0181 2.0686 -2.4753 0.9796
-4.0886 1.9241 -2.4749 0.9796
-4.1539 1.7772 -2.4746 0.9796
-4.2139 1.6280 -2.4743 0.9796
-4.2687 1.4769 -2.4740 0.9796
-4.3182 1.3240 -2.4738 0.9796
-4.4008 1.0134 -2.4734 0.9796
-4.4613 0.6979 -2.4732 0.9796
-4.4832 0.5387 -2.4731 0.9796
-4.4995 0.3789 -2.4731 0.9796
-4.4788 -0.5833 -2.4738 0.9796
-4.3076 -1.3677 -2.4754 0.9796
-4.2569 -1.5203 -2.4758 0.9796
-4.2009 -1.6711 -2.4762 0.9796
-4.1396 -1.8198 -2.4767 0.9796
-4.0731 -1.9664 -2.4772 0.9796
-4.0014 -2.1105 -2.4778 0.9796
-3.9247 -2.2521 -2.4783 0.9796
-3.7565 -2.5267 -2.4796 0.9796
-3.2165 2.8470 -2.4800 0.9804
-3.4992 2.4864 -2.4784 0.9804
-3.5848 2.3599 -2.4779 0.9804
-3.6658 2.2305 -2.4774 0.9804
-3.7423 2.0983 -2.4770 0.9804
-3.9999 1.5453 -2.4757 0.9804
-4.0988 1.2568 -2.4752 0.9804
-4.1406 1.1100 -2.4750 0.9804
-4.1773 0.9620 -2.4749 0.9804
-4.2086 0.8127 -2.4748 0.9804
-4.2811 0.2074 -2.4746 0.9804
-4.2859 0.0550 -2.4747 0.9804
-4.2680 -0.4021 -2.4751 0.9804
-4.2513 -0.5537 -2.4753 0.9804
-4.1695 -1.0039 -2.4760 0.9804
-4.1316 -1.1517 -2.4764 0.9804
-4.0887 -1.2982 -2.4767 0.9804
-4.0405 -1.4431 -2.4771 0.9804
-3.9291 -1.7273 -2.4780 0.9804
-3.8659 -1.8664 -2.4785 0.9804
-3.7978 -2.0032 -2.4790 0.9804
-3.7250 -2.1375 -2.4795 0.9804
-3.6474 -2.2692 -2.4801 0.9804
-3.5653 -2.3981 -2.4807 0.9803
