ply
format ascii 1.0
element vertex 568
property float32 x
property float32 y
property float32 z
property float32 I
end_header
-3.3350 -21.4547 3.8285 0.9156
-1.7656 -21.4381 3.7929 0.9163
-0.9900 -21.4329 3.7832 0.9165
0.5546 -21.4264 3.7793 0.9166
3.9569 -23.0595 4.1254 0.9093
44.5571 -20.3495 8.6372 0.8196
43.5932 -16.2290 8.2020 0.8278
-2.5463 -21.4436 3.3081 0.9163
-0.9900 -21.4330 3.2869 0.9168
1.3255 -21.3896 3.2830 0.9169
3.9583 -23.0675 3.5855 0.9096
31.4077 -25.4258 6.1905 0.8491
32.5729 -24.4814 6.2422 0.8480
-4.1319 -21.4586 2.8457 0.9156
-2.5463 -21.4437 2.8120 0.9166
0.5545 -21.4256 2.7910 0.9172
2.1080 -21.4614 2.8082 0.9167
2.9425 -21.8402 2.8697 0.9149
31.5331 -36.6729 6.2982 0.8228
31.5026 -34.0745 6.0430 0.8293
31.4485 -29.4483 5.6104 0.8405
31.4015 -25.4208 5.2611 0.8496
35.6042 -24.8050 5.6507 0.8394
39.0615 -25.1742 6.0515 0.8291
-4.1319 -21.4583 2.3466 0.9158
-0.9900 -21.4333 2.3040 0.9173
-0.2173 -21.4281 2.3011 0.9174
0.5545 -21.4250 2.3014 0.9174
1.3255 -21.3890 2.3012 0.9174
2.1081 -21.4620 2.3157 0.9169
2.9429 -21.8424 2.3667 0.9152
31.4956 -34.0668 4.9820 0.8297
31.3955 -25.4159 4.3375 0.8500
32.5727 -24.4812 4.3755 0.8488
35.6040 -24.8049 4.6596 0.8398
39.0613 -25.1741 4.9901 0.8295
-4.1318 -21.4580 1.8498 0.9160
-3.3348 -21.4536 1.8379 0.9165
2.1081 -21.4626 1.8256 0.9171
2.9432 -21.8446 1.8659 0.9153
31.5185 -36.6559 4.0924 0.8236
31.4887 -34.0593 3.9267 0.8301
31.4611 -31.6619 3.7785 0.8360
31.4355 -29.4361 3.6457 0.8412
32.5726 -24.4811 3.4493 0.8491
35.6039 -24.8048 3.6733 0.8401
-3.3347 -21.4533 1.3463 0.9167
-2.5463 -21.4441 1.3391 0.9171
-0.2173 -21.4284 1.3289 0.9177
0.5545 -21.4239 1.3289 0.9177
1.3255 -21.3884 1.3289 0.9177
2.1082 -21.4632 1.3373 0.9172
31.5113 -36.6475 2.9971 0.8239
31.4817 -34.0518 2.8758 0.8304
31.3834 -25.4061 2.5039 0.8506
32.5724 -24.4810 2.5267 0.8493
39.0609 -25.1739 2.8816 0.8301
-1.7657 -21.4390 0.8482 0.9175
2.1082 -21.4638 0.8504 0.9173
3.9651 -23.1070 0.9244 0.9104
31.4227 -29.4241 1.6974 0.8417
31.3993 -27.3481 1.6419 0.8465
31.3774 -25.4012 1.5918 0.8508
32.5723 -24.4809 1.6067 0.8495
-4.1316 -21.4572 0.3691 0.9163
-3.3346 -21.4527 0.3667 0.9168
-2.5464 -21.4444 0.3648 0.9172
-0.2173 -21.4287 0.3620 0.9178
0.5545 -21.4227 0.3620 0.9178
1.3254 -21.3879 0.3620 0.9178
3.9664 -23.1148 0.3962 0.9104
31.4969 -36.6307 0.8160 0.8243
31.4411 -31.6418 0.7535 0.8366
31.4163 -29.4181 0.7270 0.8418
35.6035 -24.8045 0.7330 0.8406
-4.1316 -21.4569 -0.1230 0.9163
-3.3346 -21.4524 -0.1222 0.9168
-0.2173 -21.4289 -0.1207 0.9179
0.5545 -21.4222 -0.1206 0.9179
1.3254 -21.3876 -0.1206 0.9179
31.4897 -36.6223 -0.2719 0.8243
31.4345 -31.6352 -0.2511 0.8366
31.4099 -29.4121 -0.2423 0.8419
31.3654 -25.3916 -0.2272 0.8509
35.6033 -24.8044 -0.2443 0.8407
44.3581 -20.2587 -0.2746 0.8228
-1.7657 -21.4395 -0.6057 0.9175
-0.2173 -21.4290 -0.6034 0.9178
0.5545 -21.4216 -0.6034 0.9178
3.9691 -23.1305 -0.6608 0.9104
17.2344 -42.4042 -1.2889 0.8326
19.0235 -42.3648 -1.3076 0.8304
31.4035 -29.4062 -1.2114 0.8418
31.3808 -27.3320 -1.1718 0.8466
31.3594 -25.3867 -1.1361 0.8509
37.7185 -17.2264 -1.1676 0.8471
37.7244 -15.6129 -1.1496 0.8493
37.7302 -14.0463 -1.1336 0.8512
-3.3345 -21.4519 -1.1010 0.9167
-2.5464 -21.4449 -1.0952 0.9171
-1.7657 -21.4396 -1.0910 0.9174
-0.9901 -21.4344 -1.0882 0.9177
1.3254 -21.3870 -1.0867 0.9178
2.1085 -21.4661 -1.0939 0.9172
17.1615 -42.2248 -2.3115 0.8331
18.9574 -42.2178 -2.3470 0.8308
31.4753 -36.6056 -2.4483 0.8242
31.4472 -34.0145 -2.3492 0.8307
31.4212 -31.6218 -2.2608 0.8365
31.3971 -29.4002 -2.1814 0.8417
32.5719 -24.4806 -2.0664 0.8494
39.0601 -25.1734 -2.3567 0.8302
37.7124 -17.2236 -2.1026 0.8470
-4.1314 -21.4560 -1.6021 0.9161
-1.7657 -21.4397 -1.5773 0.9173
2.1085 -21.4667 -1.5816 0.9171
3.9718 -23.1462 -1.7219 0.9101
7.1851 -34.3917 -2.5761 0.8686
8.4453 -34.2179 -2.5842 0.8682
9.7021 -33.9970 -2.5923 0.8678
10.9535 -33.7289 -2.6002 0.8674
12.1978 -33.4136 -2.6081 0.8670
14.6573 -32.6415 -2.6236 0.8663
15.8688 -32.1851 -2.6311 0.8660
17.0654 -31.6818 -2.6385 0.8656
25.8756 -26.0407 -2.6917 0.8631
26.8530 -25.1451 -2.6974 0.8628
28.7056 -23.2383 -2.7080 0.8623
29.5186 -22.1857 -2.7075 0.8623
29.5084 -20.5582 -2.6369 0.8657
29.4981 -19.0109 -2.5731 0.8687
30.0082 -17.8440 -2.5599 0.8693
30.6733 -16.7749 -2.5634 0.8692
31.2967 -15.6791 -2.5666 0.8690
32.9050 -12.2500 -2.5744 0.8686
-4.1313 -21.4557 -2.0977 0.9159
-3.3344 -21.4513 -2.0842 0.9165
-2.5465 -21.4452 -2.0733 0.9169
-1.7658 -21.4399 -2.0653 0.9172
2.9455 -21.8620 -2.1178 0.9152
5.1177 -24.4956 -2.4025 0.9043
8.2889 -25.5239 -2.5764 0.8978
10.1504 -24.9744 -2.5881 0.8973
11.0676 -24.6472 -2.5939 0.8971
11.9738 -24.2853 -2.5995 0.8969
13.7483 -23.4590 -2.6104 0.8965
14.6136 -22.9952 -2.6157 0.8963
15.4626 -22.4984 -2.6209 0.8961
17.1060 -21.4076 -2.6308 0.8957
19.4148 -19.5388 -2.6444 0.8952
20.1377 -18.8568 -2.6486 0.8951
20.8350 -18.1468 -2.6526 0.8949
22.1487 -16.6466 -2.6600 0.8946
23.9001 -14.2119 -2.6695 0.8943
24.4213 -13.3557 -2.6723 0.8942
25.7847 -10.6714 -2.6791 0.8939
26.1697 -9.7425 -2.6809 0.8939
-3.8012 -19.7419 -2.3881 0.9222
-3.0687 -19.7419 -2.3732 0.9227
-0.9164 -19.8416 -2.3594 0.9231
-0.2018 -19.9014 -2.3641 0.9230
4.3182 -20.6691 -2.5082 0.9185
5.1485 -20.8600 -2.5522 0.9171
6.6614 -20.5124 -2.5618 0.9168
7.4093 -20.2965 -2.5666 0.9166
8.1501 -20.0528 -2.5712 0.9165
9.6059 -19.4827 -2.5803 0.9162
11.0203 -18.8041 -2.5890 0.9159
12.3846 -18.0198 -2.5973 0.9157
13.6905 -17.1333 -2.6051 0.9154
15.5223 -15.6214 -2.6159 0.9151
16.0951 -15.0714 -2.6192 0.9150
16.6475 -14.4995 -2.6224 0.9149
17.1784 -13.9066 -2.6254 0.9148
18.6347 -12.0097 -2.6334 0.9146
19.0720 -11.3409 -2.6358 0.9145
20.2291 -9.2388 -2.6417 0.9143
20.8652 -7.7677 -2.6447 0.9142
-1.4520 -17.6311 -2.5066 0.9310
-0.8176 -17.7015 -2.5108 0.9309
-0.1800 -17.7491 -2.5150 0.9308
1.7438 -17.7533 -2.5276 0.9305
3.0269 -17.6395 -2.5359 0.9302
4.3024 -17.4319 -2.5440 0.9300
5.5633 -17.1308 -2.5520 0.9298
8.0128 -16.2515 -2.5673 0.9294
8.6050 -15.9752 -2.5710 0.9293
9.7592 -15.3565 -2.5781 0.9291
11.4018 -14.2690 -2.5879 0.9289
11.9224 -13.8657 -2.5910 0.9288
12.4282 -13.4428 -2.5940 0.9287
12.9184 -13.0009 -2.5969 0.9286
13.3923 -12.5405 -2.5996 0.9286
13.8491 -12.0622 -2.6022 0.9285
14.7085 -11.0547 -2.6070 0.9284
15.1098 -10.5268 -2.6092 0.9283
17.3330 -6.4528 -2.6206 0.9280
-2.3297 -14.9882 -2.4988 0.9404
-1.7911 -15.0840 -2.5024 0.9403
-0.7028 -15.2175 -2.5096 0.9401
0.3953 -15.2725 -2.5168 0.9399
0.9463 -15.2701 -2.5204 0.9399
1.4977 -15.2478 -2.5240 0.9398
2.5985 -15.1430 -2.5311 0.9396
3.1464 -15.0605 -2.5346 0.9395
4.2338 -14.8354 -2.5415 0.9394
6.3528 -14.1476 -2.5549 0.9391
8.3583 -13.1521 -2.5672 0.9388
8.8364 -12.8571 -2.5701 0.9387
9.3038 -12.5443 -2.5729 0.9386
9.7597 -12.2140 -2.5756 0.9386
10.2037 -11.8668 -2.5782 0.9385
11.0525 -11.1230 -2.5832 0.9384
12.2190 -9.8917 -2.5899 0.9383
12.5769 -9.4526 -2.5918 0.9382
12.9184 -9.0001 -2.5937 0.9382
13.2431 -8.5349 -2.5955 0.9381
13.8397 -7.5688 -2.5986 0.9381
14.1108 -7.0693 -2.6000 0.9380
14.3631 -6.5597 -2.6013 0.9380
14.5962 -6.0409 -2.6024 0.9380
-2.5109 -13.0403 -2.4961 0.9474
-2.0423 -13.1387 -2.4992 0.9473
-1.5698 -13.2204 -2.5024 0.9473
-0.1355 -13.3630 -2.5119 0.9471
0.8287 -13.3716 -2.5182 0.9469
2.7533 -13.1788 -2.5306 0.9467
4.1733 -12.8507 -2.5396 0.9465
5.5536 -12.3676 -2.5482 0.9463
6.4431 -11.9616 -2.5537 0.9462
7.3023 -11.4904 -2.5590 0.9461
7.7189 -11.2311 -2.5615 0.9460
8.5231 -10.6664 -2.5663 0.9459
8.9096 -10.3618 -2.5686 0.9459
9.2849 -10.0429 -2.5708 0.9459
9.6484 -9.7100 -2.5729 0.9458
10.6632 -8.6323 -2.5787 0.9457
10.9745 -8.2483 -2.5804 0.9457
11.2715 -7.8527 -2.5821 0.9456
12.3081 -6.1661 -2.5875 0.9455
12.7301 -5.2685 -2.5896 0.9455
-2.2333 -11.5987 -2.4968 0.9529
-1.8162 -11.6847 -2.4996 0.9528
-1.3959 -11.7556 -2.5024 0.9528
-0.1204 -11.8775 -2.5108 0.9526
3.2882 -11.5221 -2.5328 0.9522
4.1174 -11.2788 -2.5380 0.9521
4.9282 -10.9751 -2.5431 0.9520
6.4770 -10.1918 -2.5526 0.9518
7.2061 -9.7159 -2.5570 0.9517
7.5574 -9.4579 -2.5591 0.9517
7.8994 -9.1869 -2.5611 0.9517
8.2312 -8.9032 -2.5630 0.9516
8.5528 -8.6073 -2.5649 0.9516
8.8633 -8.2996 -2.5667 0.9516
9.1625 -7.9803 -2.5684 0.9515
9.4499 -7.6500 -2.5700 0.9515
9.7250 -7.3092 -2.5715 0.9515
10.4729 -6.2276 -2.5756 0.9514
10.9033 -5.4624 -2.5778 0.9514
11.0971 -5.0681 -2.5788 0.9513
11.4402 -4.2590 -2.5804 0.9513
-2.0091 -10.4342 -2.4973 0.9573
-1.6337 -10.5103 -2.4998 0.9572
-1.2554 -10.5730 -2.5024 0.9572
-0.4922 -10.6574 -2.5074 0.9571
-0.1083 -10.6790 -2.5099 0.9571
0.2766 -10.6867 -2.5125 0.9570
0.6619 -10.6804 -2.5150 0.9570
2.1970 -10.5160 -2.5249 0.9568
2.5768 -10.4401 -2.5273 0.9568
2.9538 -10.3503 -2.5297 0.9567
3.3277 -10.2468 -2.5320 0.9567
4.4252 -9.8548 -2.5389 0.9566
4.7813 -9.6975 -2.5411 0.9565
5.1318 -9.5271 -2.5433 0.9565
5.4760 -9.3439 -2.5454 0.9565
5.8136 -9.1480 -2.5474 0.9564
6.7817 -8.4871 -2.5532 0.9563
7.6730 -7.7220 -2.5585 0.9563
8.4762 -6.8618 -2.5630 0.9562
8.7224 -6.5556 -2.5644 0.9562
8.9573 -6.2404 -2.5657 0.9561
9.3917 -5.5846 -2.5680 0.9561
9.5905 -5.2449 -2.5690 0.9561
-1.4830 -9.5412 -2.5001 0.9609
-0.7940 -9.6409 -2.5046 0.9608
-0.4467 -9.6720 -2.5069 0.9608
0.9499 -9.6711 -2.5161 0.9606
1.2987 -9.6392 -2.5183 0.9606
1.6464 -9.5948 -2.5205 0.9606
2.3368 -9.4679 -2.5250 0.9605
4.0114 -8.9333 -2.5355 0.9603
5.2684 -8.2900 -2.5432 0.9602
5.8595 -7.9004 -2.5467 0.9602
6.6902 -7.2363 -2.5517 0.9601
7.2019 -6.7439 -2.5546 0.9601
7.4441 -6.4837 -2.5560 0.9600
7.6767 -6.2146 -2.5573 0.9600
8.6841 -4.7492 -2.5627 0.9599
8.8524 -4.4349 -2.5636 0.9599
9.0091 -4.1145 -2.5644 0.9599
9.2865 -3.4572 -2.5657 0.9599
-1.5669 -8.1376 -2.3460 0.9661
-0.7261 -8.8169 -2.5044 0.9639
-0.4085 -8.8447 -2.5065 0.9639
-0.0898 -8.8611 -2.5086 0.9638
0.2295 -8.8659 -2.5107 0.9638
0.5490 -8.8593 -2.5128 0.9638
0.8684 -8.8410 -2.5149 0.9637
1.5049 -8.7699 -2.5190 0.9637
1.8212 -8.7170 -2.5210 0.9637
2.1356 -8.6527 -2.5230 0.9636
2.4477 -8.5769 -2.5250 0.9636
2.7571 -8.4897 -2.5269 0.9636
5.0846 -7.3981 -2.5413 0.9634
5.8633 -6.8191 -2.5459 0.9633
6.1085 -6.6072 -2.5474 0.9633
6.3460 -6.3864 -2.5487 0.9633
6.5752 -6.1570 -2.5501 0.9632
7.2109 -5.4196 -2.5536 0.9632
7.4045 -5.1586 -2.5547 0.9632
7.5883 -4.8905 -2.5557 0.9632
7.7623 -4.6158 -2.5566 0.9632
8.0795 -4.0477 -2.5582 0.9631
8.2223 -3.7552 -2.5589 0.9631
8.3543 -3.4575 -2.5596 0.9631
8.4752 -3.1552 -2.5601 0.9631
-1.4423 -7.4908 -2.3463 0.9686
-0.9008 -7.5868 -2.3499 0.9685
0.7990 -8.1340 -2.5139 0.9664
1.0921 -8.1060 -2.5158 0.9663
1.3843 -8.0675 -2.5176 0.9663
1.6752 -8.0183 -2.5195 0.9663
1.9643 -7.9586 -2.5213 0.9663
2.2512 -7.8884 -2.5232 0.9663
2.8171 -7.7168 -2.5267 0.9662
3.3697 -7.5043 -2.5302 0.9662
3.6402 -7.3829 -2.5318 0.9661
4.4234 -6.9605 -2.5366 0.9661
4.6740 -6.8007 -2.5381 0.9661
4.9187 -6.6318 -2.5396 0.9660
5.3891 -6.2675 -2.5424 0.9660
6.2452 -5.4395 -2.5473 0.9659
6.6260 -4.9800 -2.5495 0.9659
6.8037 -4.7400 -2.5504 0.9659
6.9724 -4.4936 -2.5514 0.9659
7.1321 -4.2410 -2.5522 0.9659
7.2824 -3.9826 -2.5530 0.9659
7.4231 -3.7189 -2.5537 0.9659
7.5542 -3.4500 -2.5543 0.9658
7.6752 -3.1765 -2.5549 0.9658
-1.3348 -6.9321 -2.3466 0.9707
-1.0851 -6.9806 -2.3483 0.9707
-0.8422 -7.0925 -2.3741 0.9703
-0.6183 -7.5079 -2.5041 0.9687
0.4673 -7.5403 -2.5112 0.9687
0.7390 -7.5238 -2.5130 0.9686
1.0102 -7.4976 -2.5148 0.9686
1.2804 -7.4615 -2.5165 0.9686
1.8165 -7.3600 -2.5199 0.9686
2.0818 -7.2947 -2.5216 0.9685
2.3446 -7.2197 -2.5233 0.9685
2.8618 -7.0413 -2.5265 0.9685
3.1154 -6.9380 -2.5281 0.9685
3.3653 -6.8255 -2.5296 0.9684
4.0889 -6.4340 -2.5340 0.9684
4.3203 -6.2861 -2.5354 0.9684
4.5462 -6.1297 -2.5368 0.9683
5.5840 -5.2288 -2.5429 0.9683
6.1226 -4.6016 -2.5459 0.9682
6.4423 -4.1519 -2.5476 0.9682
6.5896 -3.9184 -2.5484 0.9682
6.9791 -3.1874 -2.5504 0.9682
-0.0711 -7.0110 -2.5073 0.9707
0.9387 -6.9668 -2.5139 0.9706
1.4395 -6.8899 -2.5171 0.9705
2.8938 -6.4444 -2.5262 0.9704
3.1257 -6.3396 -2.5277 0.9704
3.5778 -6.1049 -2.5304 0.9704
3.7973 -5.9752 -2.5318 0.9704
4.2217 -5.6922 -2.5343 0.9703
4.4261 -5.5391 -2.5355 0.9703
5.0043 -5.0362 -2.5389 0.9703
5.3580 -4.6667 -2.5409 0.9703
5.5246 -4.4724 -2.5419 0.9703
5.6841 -4.2721 -2.5428 0.9702
5.8361 -4.0660 -2.5436 0.9702
6.1172 -3.6375 -2.5451 0.9702
6.5821 -2.7241 -2.5474 0.9702
6.6771 -2.4857 -2.5479 0.9702
-1.2331 -6.4041 -2.4992 0.9724
-0.7700 -6.4842 -2.5023 0.9724
-0.5363 -6.5118 -2.5039 0.9724
-0.0663 -6.5416 -2.5070 0.9724
0.4052 -6.5374 -2.5101 0.9723
1.5742 -6.3781 -2.5176 0.9723
1.8039 -6.3210 -2.5190 0.9722
2.0315 -6.2555 -2.5205 0.9722
2.4792 -6.0998 -2.5233 0.9722
2.9149 -5.9119 -2.5260 0.9722
3.1274 -5.8061 -2.5273 0.9721
3.5407 -5.5715 -2.5298 0.9721
4.1267 -5.1644 -2.5333 0.9721
4.6653 -4.6951 -2.5364 0.9720
4.9948 -4.3504 -2.5383 0.9720
5.4401 -3.7900 -2.5408 0.9720
5.7019 -3.3906 -2.5422 0.9720
5.9339 -2.9728 -2.5434 0.9720
6.0383 -2.7577 -2.5439 0.9720
6.1348 -2.5390 -2.5444 0.9720
-0.9385 -6.0380 -2.5009 0.9739
-0.5021 -6.0970 -2.5038 0.9739
-0.2824 -6.1146 -2.5052 0.9739
-0.0621 -6.1244 -2.5067 0.9739
0.8197 -6.0837 -2.5124 0.9738
1.2568 -6.0156 -2.5152 0.9738
1.4734 -5.9697 -2.5166 0.9738
2.1120 -5.7853 -2.5206 0.9737
2.5254 -5.6240 -2.5232 0.9737
2.7277 -5.5322 -2.5244 0.9737
3.1217 -5.3266 -2.5269 0.9737
3.3130 -5.2132 -2.5280 0.9737
3.5001 -5.0927 -2.5291 0.9736
3.8608 -4.8317 -2.5313 0.9736
4.0340 -4.6915 -2.5323 0.9736
4.2019 -4.5449 -2.5333 0.9736
4.3645 -4.3923 -2.5342 0.9736
4.8176 -3.9000 -2.5368 0.9736
4.9564 -3.7251 -2.5376 0.9736
5.0888 -3.5453 -2.5383 0.9736
5.3335 -3.1715 -2.5396 0.9735
5.5503 -2.7806 -2.5407 0.9735
5.6479 -2.5794 -2.5412 0.9735
5.7381 -2.3748 -2.5416 0.9735
-0.8814 -5.6705 -2.5010 0.9753
-0.6770 -5.7016 -2.5023 0.9753
-0.4715 -5.7254 -2.5037 0.9752
0.5631 -5.7328 -2.5105 0.9752
0.7696 -5.7118 -2.5118 0.9752
0.9752 -5.6834 -2.5131 0.9752
1.5849 -5.5536 -2.5170 0.9751
1.7847 -5.4957 -2.5182 0.9751
1.9825 -5.4305 -2.5195 0.9751
2.1778 -5.3582 -2.5207 0.9751
2.3704 -5.2788 -2.5219 0.9751
2.5601 -5.1925 -2.5231 0.9751
2.7467 -5.0992 -2.5242 0.9750
3.1093 -4.8926 -2.5264 0.9750
3.2848 -4.7795 -2.5275 0.9750
3.4562 -4.6600 -2.5285 0.9750
3.6232 -4.5343 -2.5295 0.9750
3.9431 -4.2649 -2.5314 0.9750
4.0955 -4.1216 -2.5323 0.9750
4.2427 -3.9728 -2.5331 0.9750
4.3844 -3.8187 -2.5339 0.9749
4.6505 -3.4953 -2.5354 0.9749
4.7747 -3.3264 -2.5361 0.9749
5.0041 -2.9756 -2.5373 0.9749
5.1091 -2.7941 -2.5379 0.9749
5.4610 -2.0330 -2.5396 0.9749
-0.8299 -5.3391 -2.5010 0.9765
-0.6374 -5.3682 -2.5023 0.9765
-0.4439 -5.3905 -2.5036 0.9764
-0.0549 -5.4140 -2.5062 0.9764
0.3352 -5.4094 -2.5087 0.9764
1.1105 -5.3157 -2.5137 0.9763
1.3019 -5.2749 -2.5149 0.9763
2.0495 -5.0427 -2.5196 0.9763
2.5848 -4.7986 -2.5229 0.9763
2.7570 -4.7044 -2.5240 0.9763
3.0909 -4.4973 -2.5260 0.9762
3.4092 -4.2664 -2.5279 0.9762
3.7099 -4.0128 -2.5297 0.9762
4.1249 -3.5927 -2.5320 0.9762
4.2528 -3.4428 -2.5328 0.9762
4.3752 -3.2883 -2.5334 0.9762
4.6028 -2.9664 -2.5347 0.9762
4.8063 -2.6285 -2.5357 0.9761
4.8988 -2.4542 -2.5362 0.9761
5.0643 -2.0959 -2.5370 0.9761
5.1372 -1.9125 -2.5373 0.9761
0.1322 -5.1095 -2.5072 0.9775
0.3163 -5.1038 -2.5083 0.9775
0.5001 -5.0915 -2.5095 0.9775
0.6834 -5.0726 -2.5107 0.9775
0.8661 -5.0471 -2.5119 0.9774
1.0477 -5.0149 -2.5131 0.9774
1.2282 -4.9762 -2.5142 0.9774
1.4072 -4.9310 -2.5153 0.9774
1.9333 -4.7567 -2.5186 0.9774
2.2725 -4.6091 -2.5207 0.9774
2.4380 -4.5261 -2.5218 0.9774
2.6004 -4.4371 -2.5228 0.9773
3.2152 -4.0237 -2.5264 0.9773
3.4988 -3.7844 -2.5281 0.9773
3.7643 -3.5249 -2.5296 0.9773
4.0105 -3.2466 -2.5310 0.9773
4.1258 -3.1009 -2.5317 0.9773
4.2358 -2.9510 -2.5323 0.9773
4.4391 -2.6396 -2.5334 0.9773
4.5321 -2.4786 -2.5338 0.9772
4.6192 -2.3142 -2.5343 0.9772
4.7003 -2.1467 -2.5347 0.9772
4.8439 -1.8033 -2.5353 0.9772
-0.9112 -4.7322 -2.5000 0.9785
-0.0490 -4.8298 -2.5057 0.9785
0.1250 -4.8307 -2.5069 0.9785
0.2991 -4.8252 -2.5080 0.9785
0.4728 -4.8135 -2.5091 0.9784
0.6461 -4.7955 -2.5103 0.9784
0.8187 -4.7712 -2.5114 0.9784
0.9904 -4.7407 -2.5125 0.9784
1.1610 -4.7040 -2.5136 0.9784
1.3302 -4.6611 -2.5146 0.9784
1.4978 -4.6121 -2.5157 0.9784
1.6636 -4.5571 -2.5167 0.9784
1.9888 -4.4291 -2.5187 0.9784
2.1479 -4.3563 -2.5197 0.9784
2.7551 -4.0087 -2.5234 0.9783
3.1744 -3.6919 -2.5259 0.9783
3.3063 -3.5762 -2.5267 0.9783
3.4340 -3.4559 -2.5274 0.9783
3.5572 -3.3309 -2.5281 0.9783
3.6758 -3.2015 -2.5288 0.9783
4.1011 -2.6431 -2.5312 0.9783
4.1945 -2.4942 -2.5316 0.9782
4.2823 -2.3419 -2.5321 0.9782
-0.2110 -4.5678 -2.5045 0.9794
0.2832 -4.5698 -2.5077 0.9793
0.9379 -4.4894 -2.5119 0.9793
1.2596 -4.4138 -2.5140 0.9793
1.4183 -4.3673 -2.5150 0.9793
1.7303 -4.2572 -2.5169 0.9793
1.8832 -4.1937 -2.5179 0.9793
2.6085 -3.7953 -2.5223 0.9792
2.7443 -3.7001 -2.5231 0.9792
3.0053 -3.4951 -2.5247 0.9792
3.1301 -3.3856 -2.5254 0.9792
3.6905 -2.7738 -2.5286 0.9792
3.8822 -2.5020 -2.5296 0.9792
3.9705 -2.3610 -2.5301 0.9792
4.0537 -2.2169 -2.5305 0.9791
4.1315 -2.0698 -2.5309 0.9791
4.2039 -1.9200 -2.5313 0.9791
4.2709 -1.7676 -2.5316 0.9791
4.3322 -1.6128 -2.5319 0.9791
-0.5110 -4.3039 -2.5023 0.9802
-0.3559 -4.3213 -2.5033 0.9802
0.1123 -4.3398 -2.5064 0.9801
0.4247 -4.3239 -2.5084 0.9801
0.7354 -4.2856 -2.5104 0.9801
0.8896 -4.2580 -2.5114 0.9801
1.4939 -4.0924 -2.5153 0.9801
1.6410 -4.0374 -2.5162 0.9801
2.2066 -3.7652 -2.5197 0.9800
2.3415 -3.6845 -2.5205 0.9800
2.4735 -3.5989 -2.5213 0.9800
2.6022 -3.5086 -2.5220 0.9800
2.9679 -3.2103 -2.5242 0.9800
3.0825 -3.1021 -2.5249 0.9800
3.2994 -2.8736 -2.5261 0.9800
3.4014 -2.7536 -2.5267 0.9800
3.4991 -2.6299 -2.5272 0.9800
3.5923 -2.5027 -2.5277 0.9800
3.7645 -2.2385 -2.5286 0.9800
3.8433 -2.1018 -2.5290 0.9800
4.1073 -1.5291 -2.5303 0.9800
