ply
format ascii 1.0
element vertex 514
property float32 x
property float32 y
property float32 z
property float32 I
end_header
45.7337 -15.1744 8.4964 0.8222
47.0755 -10.1547 8.4916 0.8223
47.8435 -8.5323 8.5692 0.8209
48.0404 -3.2991 8.4908 0.8224
48.1644 0.1627 8.4927 0.8223
48.1363 1.8951 8.4943 0.8223
47.9806 5.3621 8.5129 0.8219
45.2360 8.3829 8.1121 0.8296
46.7104 12.1852 8.5119 0.8220
44.1577 13.2327 8.1283 0.8292
45.7615 15.5275 8.5208 0.8218
45.2000 17.1733 8.5259 0.8217
46.4981 -11.7950 7.3489 0.8236
46.5145 -10.0336 7.2897 0.8248
46.5308 -8.2982 7.2407 0.8259
46.5471 -6.5837 7.2017 0.8268
46.5634 -4.8855 7.1724 0.8274
46.5962 -1.5193 7.1421 0.8281
46.6127 0.1574 7.1408 0.8281
46.6294 1.8358 7.1489 0.8279
46.6636 5.2149 7.1931 0.8270
46.6811 6.9246 7.2295 0.8262
46.6990 8.6541 7.2758 0.8251
46.7173 10.4081 7.3323 0.8239
46.7361 12.1920 7.3993 0.8225
46.3648 -11.7612 6.2289 0.8245
46.4625 -10.0226 6.1895 0.8255
46.7869 -8.3438 6.1888 0.8255
48.6200 -5.1013 6.3661 0.8210
48.6893 1.9169 6.3453 0.8216
48.7244 5.4452 6.3844 0.8206
46.8304 8.6781 6.2021 0.8252
46.5837 10.3783 6.2149 0.8249
45.2174 15.3429 6.2180 0.8248
45.1305 15.3134 4.0344 0.8259
45.1959 15.3356 2.9596 0.8259
45.1888 15.3332 1.8816 0.8261
44.5358 -3.0585 0.7541 0.8365
44.7164 15.1729 0.7976 0.8279
44.5292 -3.0581 -0.2513 0.8365
37.7570 -6.7335 -1.0799 0.8577
37.7767 -1.2318 -1.0643 0.8596
37.7959 4.2239 -1.0709 0.8588
37.8008 5.6073 -1.0760 0.8582
37.8057 7.0060 -1.0827 0.8574
37.8107 8.4238 -1.0908 0.8564
37.8209 11.3337 -1.1117 0.8539
37.8315 14.3738 -1.1396 0.8505
37.8370 15.9557 -1.1563 0.8485
37.8546 21.0247 -1.2193 0.8409
37.8675 24.7516 -1.2738 0.8344
37.8892 31.0707 -1.3797 0.8219
37.7411 -9.5737 -1.9746 0.8556
37.6617 -8.1240 -1.9539 0.8570
37.7563 -5.3404 -1.9338 0.8584
37.7662 -2.5936 -1.9198 0.8593
37.7711 -1.2316 -1.9165 0.8595
37.7759 0.1276 -1.9158 0.8596
37.7807 1.4874 -1.9175 0.8595
37.8000 7.0049 -1.9496 0.8573
37.8050 8.4225 -1.9643 0.8563
37.8151 11.3320 -2.0020 0.8538
37.8309 15.9531 -2.0822 0.8484
37.8423 19.2708 -2.1537 0.8436
37.8608 24.7472 -2.2939 0.8343
30.7946 39.0198 -2.5209 0.8195
29.2442 39.9285 -2.5100 0.8202
33.3709 -11.0725 -2.5780 0.8685
33.7692 -9.8715 -2.5797 0.8684
34.4224 -7.4253 -2.5820 0.8683
34.8808 -4.9336 -2.5830 0.8682
35.0358 -3.6760 -2.5830 0.8682
35.1409 -2.4133 -2.5827 0.8683
35.1961 -1.1476 -2.5820 0.8683
35.1563 1.3841 -2.5797 0.8684
34.9172 3.9021 -2.5761 0.8686
34.7237 5.1509 -2.5739 0.8687
34.4812 6.3899 -2.5713 0.8688
34.1906 7.6173 -2.5684 0.8689
33.8523 8.8309 -2.5652 0.8691
33.0361 11.2096 -2.5579 0.8694
32.0394 13.5108 -2.5495 0.8698
31.4759 14.6279 -2.5449 0.8700
30.8704 15.7204 -2.5401 0.8703
29.5387 17.8253 -2.5296 0.8708
28.1437 23.0789 -2.6687 0.8642
26.2759 24.9133 -2.6549 0.8648
23.2466 27.3711 -2.6331 0.8659
21.0959 28.8032 -2.6178 0.8666
19.9866 29.4551 -2.6100 0.8670
18.8570 30.0635 -2.6021 0.8673
17.7090 30.6278 -2.5941 0.8677
26.8432 -7.8469 -2.6849 0.8937
27.8409 -2.9211 -2.6875 0.8936
27.9254 -1.9178 -2.6873 0.8936
27.9777 0.0945 -2.6860 0.8937
27.9457 1.1002 -2.6850 0.8937
27.8748 2.1035 -2.6837 0.8937
27.7654 3.1029 -2.6822 0.8938
27.2083 6.0617 -2.6762 0.8940
26.6503 7.9862 -2.6710 0.8942
25.9477 9.8586 -2.6648 0.8945
25.5439 10.7717 -2.6615 0.8946
25.1060 11.6676 -2.6579 0.8947
23.5964 14.2393 -2.6459 0.8952
23.0310 15.0539 -2.6415 0.8953
21.8127 16.6120 -2.6323 0.8957
19.0567 19.4167 -2.6119 0.8964
16.7473 21.2205 -2.5953 0.8971
15.9379 21.7607 -2.5895 0.8973
14.2673 22.7463 -2.5778 0.8977
13.4088 23.1906 -2.5718 0.8979
21.1488 -7.0172 -2.6469 0.9142
21.8017 -4.7028 -2.6493 0.9141
22.0884 -3.1242 -2.6499 0.9141
22.1866 -2.3278 -2.6499 0.9141
22.2915 -0.7268 -2.6493 0.9141
22.2982 0.0753 -2.6487 0.9141
22.2743 0.8769 -2.6479 0.9141
22.1353 2.4737 -2.6457 0.9142
21.4972 5.6079 -2.6390 0.9144
21.0029 7.1266 -2.6346 0.9145
20.7133 7.8698 -2.6321 0.9146
18.4175 12.0384 -2.6136 0.9152
16.9410 13.8923 -2.6024 0.9155
15.8491 15.0273 -2.5944 0.9158
15.2737 15.5623 -2.5902 0.9159
14.6796 16.0747 -2.5858 0.9160
12.7957 17.4706 -2.5723 0.9165
12.1371 17.8870 -2.5677 0.9166
17.7701 -5.1946 -2.6232 0.9279
18.1056 -3.9056 -2.6244 0.9279
18.4246 -1.9331 -2.6249 0.9279
18.4810 -1.2692 -2.6247 0.9279
18.5124 -0.6036 -2.6244 0.9279
18.5187 0.0625 -2.6239 0.9279
18.0317 4.0173 -2.6175 0.9281
17.8645 4.6603 -2.6159 0.9281
17.6735 5.2962 -2.6142 0.9282
17.4588 5.9240 -2.6122 0.9282
17.2208 6.5429 -2.6102 0.9283
16.6769 7.7503 -2.6056 0.9284
16.3718 8.3371 -2.6032 0.9285
15.6979 9.4730 -2.5978 0.9286
15.3302 10.0204 -2.5950 0.9287
14.9428 10.5531 -2.5920 0.9288
14.5363 11.0705 -2.5889 0.9288
14.1113 11.5718 -2.5857 0.9289
13.2087 12.5237 -2.5790 0.9291
12.2407 13.4040 -2.5720 0.9293
10.1324 14.9326 -2.5569 0.9297
15.5785 -2.7782 -2.6069 0.9379
15.7388 -1.6513 -2.6070 0.9379
15.7871 -1.0842 -2.6069 0.9379
15.8045 0.6222 -2.6056 0.9379
15.7676 1.1899 -2.6049 0.9379
15.4095 3.4330 -2.6008 0.9380
15.2680 3.9829 -2.5994 0.9380
14.9243 5.0640 -2.5963 0.9381
14.7225 5.5937 -2.5945 0.9381
13.7248 7.6228 -2.5863 0.9383
12.7879 9.0313 -2.5791 0.9385
12.4421 9.4756 -2.5764 0.9386
11.3121 10.7254 -2.5680 0.9388
10.8741 11.0795 -2.5574 0.9390
10.0551 11.8391 -2.5589 0.9390
7.7247 13.3600 -2.5423 0.9394
13.4865 -2.9092 -2.5932 0.9454
13.7234 -1.4399 -2.5936 0.9454
13.7656 -0.9453 -2.5935 0.9454
13.7895 -0.4496 -2.5933 0.9454
13.7816 0.5426 -2.5924 0.9454
13.6999 1.5310 -2.5911 0.9454
13.5450 2.5101 -2.5893 0.9455
13.4404 2.9944 -2.5882 0.9455
12.6534 5.3358 -2.5811 0.9456
12.4449 5.7836 -2.5794 0.9457
11.9796 6.6535 -2.5757 0.9458
11.7233 7.0745 -2.5736 0.9458
11.4519 7.4853 -2.5715 0.9458
11.1657 7.8856 -2.5693 0.9459
10.2231 9.0173 -2.5622 0.9460
9.8824 9.3700 -2.5597 0.9461
8.7883 10.3475 -2.5517 0.9462
8.0041 10.9284 -2.5461 0.9464
7.5973 11.1964 -2.5432 0.9464
7.1814 11.4492 -2.5403 0.9465
12.0302 -2.1454 -2.5831 0.9513
12.1000 -1.7115 -2.5832 0.9513
12.1913 -0.8372 -2.5831 0.9513
12.2125 -0.3982 -2.5829 0.9513
12.1344 1.3561 -2.5809 0.9513
11.9060 2.6525 -2.5784 0.9514
11.5356 3.9142 -2.5749 0.9514
11.3815 4.3243 -2.5736 0.9514
11.2123 4.7282 -2.5722 0.9515
11.0285 5.1253 -2.5706 0.9515
10.8302 5.5152 -2.5690 0.9515
9.8993 6.9912 -2.5617 0.9517
9.6338 7.3369 -2.5597 0.9517
8.7653 8.3107 -2.5532 0.9518
8.4531 8.6128 -2.5509 0.9519
7.7976 9.1810 -2.5462 0.9519
7.4551 9.4464 -2.5437 0.9520
6.7433 9.9380 -2.5386 0.9521
6.3750 10.1636 -2.5360 0.9521
5.9991 10.3755 -2.5334 0.9522
10.3922 -3.4481 -2.5733 0.9560
10.7080 -2.3098 -2.5745 0.9560
10.9294 -0.7506 -2.5747 0.9560
10.9485 -0.3570 -2.5745 0.9560
10.9530 0.0370 -2.5742 0.9560
10.9430 0.4308 -2.5738 0.9560
10.6756 2.3784 -2.5705 0.9561
10.5793 2.7598 -2.5696 0.9561
10.4690 3.1372 -2.5686 0.9561
10.3450 3.5102 -2.5674 0.9561
10.2073 3.8781 -2.5662 0.9561
10.0561 4.2406 -2.5650 0.9561
9.8919 4.5971 -2.5636 0.9562
9.5248 5.2901 -2.5606 0.9562
9.3225 5.6257 -2.5590 0.9562
9.1082 5.9535 -2.5574 0.9563
8.8822 6.2729 -2.5556 0.9563
8.3962 6.8852 -2.5519 0.9564
8.1369 7.1773 -2.5500 0.9564
7.2989 7.9925 -2.5438 0.9565
7.0008 8.2429 -2.5417 0.9565
6.3789 8.7095 -2.5372 0.9566
5.3772 8.5728 -2.3783 0.9593
9.4085 -3.1217 -2.5666 0.9599
9.5163 -2.7818 -2.5671 0.9599
3.8569 -0.4047 -1.0041 0.9841
3.8476 -0.1255 -0.9967 0.9842
3.8486 0.0130 -0.9965 0.9842
3.8830 0.2930 -1.0082 0.9840
3.9992 0.4469 -1.0419 0.9835
9.8014 1.4539 -2.5655 0.9599
9.7402 1.8050 -2.5648 0.9599
9.6661 2.1535 -2.5641 0.9599
9.5792 2.4989 -2.5632 0.9599
9.1070 3.8404 -2.5591 0.9600
8.9587 4.1634 -2.5578 0.9600
8.7987 4.4806 -2.5565 0.9600
8.6272 4.7916 -2.5551 0.9600
8.2509 5.3931 -2.5522 0.9601
7.8320 5.9647 -2.5490 0.9601
7.6074 6.2384 -2.5473 0.9602
7.1293 6.7596 -2.5437 0.9602
6.8766 7.0065 -2.5419 0.9602
6.3455 7.4713 -2.5380 0.9603
6.0679 7.6886 -2.5360 0.9603
5.7828 7.8955 -2.5340 0.9604
5.1573 7.6006 -2.3782 0.9628
4.8755 7.7730 -2.3757 0.9628
3.5589 -0.3734 -1.0130 0.9852
3.5635 -0.2447 -1.0112 0.9853
3.5642 -0.1162 -1.0095 0.9853
3.5657 0.0120 -1.0094 0.9853
3.5874 0.2707 -1.0185 0.9852
3.6723 0.4104 -1.0461 0.9848
8.8221 1.9654 -2.5587 0.9631
8.7430 2.2808 -2.5579 0.9631
8.6525 2.5929 -2.5571 0.9631
8.5506 2.9013 -2.5561 0.9632
8.4374 3.2057 -2.5552 0.9632
8.0325 4.0904 -2.5518 0.9632
7.7099 4.6525 -2.5492 0.9633
7.3474 5.1890 -2.5464 0.9633
6.7335 5.9393 -2.5418 0.9634
6.5113 6.1736 -2.5401 0.9634
6.2809 6.3995 -2.5384 0.9634
6.0425 6.6167 -2.5367 0.9634
5.2833 7.2135 -2.5312 0.9635
4.4550 7.1025 -2.3735 0.9657
7.8879 -2.6172 -2.5562 0.9658
3.4550 -0.6162 -1.0795 0.9854
3.3552 0.0113 -1.0320 0.9861
3.3544 0.1321 -1.0325 0.9860
3.3541 0.2531 -1.0346 0.9860
8.2179 1.2190 -2.5553 0.9658
8.1670 1.5135 -2.5547 0.9658
7.9498 2.3823 -2.5526 0.9659
7.8564 2.6658 -2.5518 0.9659
7.5150 3.4925 -2.5489 0.9659
7.3814 3.7589 -2.5478 0.9659
7.2382 4.0201 -2.5466 0.9659
6.9237 4.5256 -2.5442 0.9660
6.1896 5.4597 -2.5386 0.9660
5.7742 5.8833 -2.5355 0.9661
5.5554 6.0834 -2.5339 0.9661
5.0971 6.4585 -2.5306 0.9662
4.0971 6.5319 -2.3716 0.9682
3.8567 6.6703 -2.3699 0.9683
7.3703 -2.1545 -2.5525 0.9682
7.5075 -1.6194 -2.5529 0.9681
3.2475 -0.5792 -1.0965 0.9862
3.1836 -0.4503 -1.0688 0.9865
3.1791 -0.2183 -1.0592 0.9867
3.1801 -0.1037 -1.0577 0.9867
3.1800 0.1252 -1.0579 0.9867
3.1768 0.2397 -1.0590 0.9867
7.5452 1.3982 -2.5508 0.9682
7.3450 2.2011 -2.5488 0.9682
7.2589 2.4630 -2.5480 0.9682
7.1633 2.7216 -2.5472 0.9682
7.0583 2.9764 -2.5463 0.9682
6.9441 3.2271 -2.5453 0.9682
6.8208 3.4734 -2.5443 0.9683
5.9021 4.8400 -2.5372 0.9683
5.7212 5.0464 -2.5358 0.9684
5.5329 5.2460 -2.5344 0.9684
5.1356 5.6237 -2.5315 0.9684
4.9271 5.8013 -2.5300 0.9684
4.7124 5.9711 -2.5285 0.9684
4.0058 5.9036 -2.3715 0.9704
6.7641 -2.2443 -2.5485 0.9702
6.8413 -1.9998 -2.5489 0.9702
6.9094 -1.7527 -2.5491 0.9702
3.0391 -0.4299 -1.0976 0.9870
7.0039 1.2979 -2.5473 0.9702
6.9512 1.5486 -2.5467 0.9702
6.8185 2.0433 -2.5455 0.9702
6.6500 2.5266 -2.5440 0.9702
6.5528 2.7633 -2.5431 0.9702
6.4469 2.9961 -2.5423 0.9703
6.2102 3.4491 -2.5403 0.9703
6.0796 3.6688 -2.5393 0.9703
5.9412 3.8834 -2.5382 0.9703
5.7952 4.0927 -2.5371 0.9703
5.6416 4.2965 -2.5359 0.9703
5.4808 4.4945 -2.5347 0.9703
5.1383 4.8719 -2.5322 0.9704
4.5763 5.3882 -2.5280 0.9704
3.5194 5.6109 -2.3685 0.9723
3.3133 5.7303 -2.3671 0.9723
6.4396 -1.6335 -2.5459 0.9719
2.9835 -0.6436 -1.1696 0.9870
2.9461 -0.5254 -1.1468 0.9873
2.9167 -0.4125 -1.1288 0.9875
2.9234 -0.3067 -1.1264 0.9875
2.9242 0.2207 -1.1238 0.9875
6.5279 1.2097 -2.5442 0.9720
6.4214 1.6751 -2.5431 0.9720
6.2812 2.1313 -2.5419 0.9720
6.1988 2.3551 -2.5411 0.9720
6.0096 2.7929 -2.5395 0.9720
5.9033 3.0062 -2.5387 0.9720
5.7893 3.2154 -2.5378 0.9720
5.6678 3.4202 -2.5368 0.9720
5.5388 3.6204 -2.5358 0.9721
5.2598 4.0058 -2.5336 0.9721
5.1101 4.1905 -2.5325 0.9721
4.9538 4.3695 -2.5313 0.9721
4.7912 4.5427 -2.5301 0.9721
4.6224 4.7097 -2.5289 0.9721
3.8912 5.3128 -2.5236 0.9722
3.3399 5.3247 -2.4087 0.9734
3.0903 5.3447 -2.3659 0.9739
5.8964 -1.9564 -2.5426 0.9735
5.9636 -1.7433 -2.5429 0.9735
2.8084 -0.3972 -1.1608 0.9878
2.8175 -0.0919 -1.1537 0.9879
2.8154 0.1108 -1.1531 0.9879
2.8194 0.3151 -1.1611 0.9878
2.8496 0.4227 -1.1790 0.9876
6.0601 1.3501 -2.5410 0.9735
5.9448 1.7814 -2.5399 0.9735
5.7984 2.2030 -2.5386 0.9735
5.6217 2.6126 -2.5371 0.9736
5.5223 2.8122 -2.5363 0.9736
5.3022 3.1996 -2.5346 0.9736
5.1818 3.3870 -2.5336 0.9736
5.0547 3.5698 -2.5326 0.9736
4.9211 3.7477 -2.5316 0.9736
4.7811 3.9207 -2.5306 0.9736
4.6350 4.0883 -2.5295 0.9736
4.3252 4.4069 -2.5272 0.9737
4.1619 4.5575 -2.5260 0.9737
3.9934 4.7019 -2.5248 0.9737
3.8198 4.8401 -2.5235 0.9737
3.6414 4.9718 -2.5222 0.9737
3.4585 5.0969 -2.5209 0.9737
3.2712 5.2153 -2.5196 0.9737
2.9605 5.1202 -2.4206 0.9748
5.5319 -1.8355 -2.5401 0.9749
5.6505 -1.4333 -2.5406 0.9749
2.7354 -0.5901 -1.2196 0.9879
2.7231 -0.3852 -1.1986 0.9881
2.7248 0.0092 -1.1875 0.9882
2.7264 0.3047 -1.1956 0.9881
5.6353 1.4701 -2.5381 0.9749
5.5776 1.6714 -2.5376 0.9749
5.4404 2.0670 -2.5364 0.9749
5.1817 2.6387 -2.5342 0.9749
5.0819 2.8225 -2.5334 0.9750
4.9754 3.0024 -2.5326 0.9750
4.7434 3.3499 -2.5308 0.9750
4.4868 3.6794 -2.5288 0.9750
4.2073 3.9891 -2.5267 0.9750
3.9062 4.2774 -2.5245 0.9750
3.7481 4.4131 -2.5234 0.9751
3.5854 4.5430 -2.5222 0.9751
3.4180 4.6668 -2.5210 0.9751
5.2038 -1.7266 -2.5379 0.9761
2.7910 -0.7080 -1.3328 0.9874
2.6339 -0.4697 -1.2384 0.9883
2.6397 -0.3734 -1.2340 0.9883
2.6434 -0.2773 -1.2303 0.9884
2.6503 -0.0864 -1.2274 0.9884
2.6404 0.3917 -1.2356 0.9883
5.3487 1.1916 -2.5365 0.9761
5.2471 1.5724 -2.5355 0.9761
5.1861 1.7597 -2.5350 0.9762
5.1182 1.9446 -2.5344 0.9762
5.0437 2.1269 -2.5337 0.9762
4.9626 2.3063 -2.5331 0.9762
4.8751 2.4826 -2.5323 0.9762
4.6812 2.8249 -2.5308 0.9762
4.5751 2.9904 -2.5300 0.9762
4.4630 3.1519 -2.5291 0.9762
4.3452 3.3092 -2.5282 0.9762
4.2218 3.4621 -2.5273 0.9762
3.8199 3.8920 -2.5243 0.9762
3.5272 4.1530 -2.5221 0.9763
3.3741 4.2753 -2.5210 0.9763
2.7212 4.7063 -2.5164 0.9763
4.9067 -1.6280 -2.5358 0.9772
4.9625 -1.4506 -2.5361 0.9772
2.6326 -0.6678 -1.3322 0.9880
2.6061 -0.4648 -1.2985 0.9883
2.6048 -0.3684 -1.2904 0.9883
2.6023 -0.1787 -1.2795 0.9884
2.6011 -0.0848 -1.2766 0.9885
2.6045 0.1965 -1.2812 0.9884
5.0434 1.1236 -2.5345 0.9772
4.5973 2.3411 -2.5306 0.9773
4.0980 3.1209 -2.5267 0.9773
3.7340 3.5403 -2.5240 0.9773
3.6029 3.6709 -2.5230 0.9773
3.3270 3.9173 -2.5210 0.9774
2.8821 4.2475 -2.5178 0.9774
2.7263 4.3465 -2.5167 0.9774
2.6025 -0.6602 -1.3929 0.9880
2.5784 -0.5562 -1.3684 0.9882
2.5810 -0.2708 -1.3463 0.9884
2.5806 0.0087 -1.3388 0.9884
2.5808 0.1016 -1.3399 0.9884
2.5823 0.2886 -1.3480 0.9884
2.5792 0.3826 -1.3527 0.9883
2.5949 0.4809 -1.3691 0.9882
4.6751 1.4010 -2.5319 0.9782
4.5605 1.7327 -2.5309 0.9783
4.1717 2.5174 -2.5277 0.9783
4.0772 2.6650 -2.5270 0.9783
3.8727 2.9494 -2.5254 0.9783
3.6483 3.2180 -2.5237 0.9783
3.4051 3.4694 -2.5219 0.9783
3.2769 3.5883 -2.5210 0.9783
2.7242 4.0148 -2.5170 0.9784
2.5770 4.1084 -2.5159 0.9784
2.4265 4.1967 -2.5149 0.9784
4.3883 -1.4560 -2.5323 0.9791
2.6372 -0.7709 -1.5048 0.9875
2.5545 -0.5510 -1.4313 0.9882
2.5570 -0.4560 -1.4225 0.9882
2.5589 -0.3619 -1.4154 0.9883
2.5596 -0.2686 -1.4096 0.9883
2.5597 -0.0835 -1.4027 0.9884
2.5596 0.1008 -1.4030 0.9884
2.5589 0.1931 -1.4055 0.9884
2.5572 0.2858 -1.4093 0.9883
2.5544 0.3789 -1.4143 0.9883
4.4255 1.3262 -2.5303 0.9792
4.3171 1.6402 -2.5294 0.9792
4.2544 1.7940 -2.5288 0.9792
4.1861 1.9454 -2.5282 0.9792
4.1125 2.0942 -2.5276 0.9792
4.0335 2.2402 -2.5270 0.9792
3.9493 2.3832 -2.5263 0.9792
3.7656 2.6594 -2.5249 0.9792
3.6664 2.7923 -2.5242 0.9792
3.5625 2.9214 -2.5234 0.9792
3.4541 3.0467 -2.5226 0.9792
3.3411 3.1679 -2.5217 0.9792
3.1026 3.3975 -2.5200 0.9792
2.9774 3.5056 -2.5191 0.9792
2.2978 3.9740 -2.5142 0.9793
4.1604 -1.3804 -2.5307 0.9800
2.6089 -0.7626 -1.5693 0.9875
2.5367 -0.4524 -1.4877 0.9882
2.5380 -0.3590 -1.4799 0.9882
2.5373 -0.0827 -1.4657 0.9883
2.5374 0.0086 -1.4650 0.9883
2.5370 0.0999 -1.4659 0.9883
2.5379 0.1915 -1.4694 0.9883
2.5367 0.2835 -1.4737 0.9883
2.5374 0.4702 -1.4899 0.9882
2.5925 0.5776 -1.5335 0.9878
4.2390 1.1058 -2.5293 0.9800
4.1958 1.2573 -2.5289 0.9800
4.1472 1.4072 -2.5284 0.9800
4.0931 1.5551 -2.5279 0.9800
4.0337 1.7010 -2.5274 0.9800
3.8993 1.9857 -2.5263 0.9800
3.7446 2.2597 -2.5251 0.9800
3.6600 2.3923 -2.5244 0.9800
3.3781 2.7702 -2.5223 0.9800
3.1683 3.0040 -2.5207 0.9800
3.0572 3.1150 -2.5199 0.9800
2.8235 3.3244 -2.5182 0.9801
2.7011 3.4226 -2.5173 0.9801
2.5754 3.5163 -2.5164 0.9801
2.4464 3.6053 -2.5155 0.9801
