ply
format ascii 1.0
element vertex 547
property float32 x
property float32 y
property float32 z
property float32 I
end_header
2.4763 7.7545 1.4354 0.9675
-2.4413 28.6364 5.0677 0.8898
-4.8765 30.8628 5.5094 0.8808
-5.8670 25.2419 4.5695 0.9001
-6.8321 25.2545 4.6131 0.8992
-8.8681 25.4030 4.7443 0.8965
-15.5838 23.4422 4.9635 0.8920
-16.2027 20.9480 4.6697 0.8980
2.4755 7.7521 1.2467 0.9676
-0.4446 33.2187 5.0894 0.8742
-1.6660 33.8234 5.1878 0.8719
-2.3341 27.3785 4.2094 0.8948
-5.5289 28.3596 4.4263 0.8897
-7.6520 24.7336 3.9662 0.9005
-8.6516 24.7828 4.0213 0.8992
-9.6868 24.8493 4.0858 0.8977
-10.7665 24.9398 4.1614 0.8959
-11.8911 25.0394 4.2465 0.8939
-13.0672 25.1491 4.3417 0.8916
-14.8730 22.3730 4.1156 0.8970
-16.4630 21.2846 4.1222 0.8968
2.4748 7.7497 1.0594 0.9677
-0.4536 33.8923 4.4139 0.8722
-1.6587 33.6756 4.3906 0.8728
-3.2515 26.7675 3.5113 0.8969
-5.3954 27.6747 3.6717 0.8925
-7.4840 24.1906 3.2974 0.9029
-8.4590 24.2312 3.3422 0.9017
-9.4637 24.2770 3.3931 0.9002
-11.5868 24.3987 3.5173 0.8968
-12.7255 24.4915 3.5941 0.8946
-13.9194 24.5934 3.6799 0.8923
-16.4635 21.2852 3.5041 0.8971
-1.5573 31.6171 3.3992 0.8804
-3.4174 28.1339 3.0433 0.8922
-5.5633 28.5360 3.1219 0.8896
-6.1727 26.5572 2.9278 0.8961
-8.2759 23.7067 2.6963 0.9039
-12.4090 23.8824 2.8900 0.8974
-13.7649 22.4078 2.8239 0.8996
-15.2690 21.2742 2.8120 0.9000
-16.4640 21.2859 2.8896 0.8974
2.4733 7.7451 0.6883 0.9679
-3.4818 28.6635 2.4443 0.8906
-5.6700 29.0833 2.5083 0.8879
-6.4126 23.7041 2.0787 0.9061
-7.3022 23.6030 2.0915 0.9056
-8.2429 23.6122 2.1171 0.9045
-9.2082 23.6217 2.1462 0.9032
-10.2017 23.6315 2.1789 0.9018
-12.2893 23.6520 2.2563 0.8985
2.4725 7.7427 0.5040 0.9680
-7.1904 36.8817 2.3301 0.8602
-6.4135 23.7072 1.5229 0.9063
-7.0119 22.6646 1.4712 0.9093
-7.9517 22.7780 1.4961 0.9078
-8.9451 22.9468 1.5272 0.9060
-9.9869 23.1339 1.5625 0.9039
-11.0060 23.1756 1.5909 0.9023
-13.1658 23.2620 1.6575 0.8984
-14.1356 21.2637 1.5833 0.9027
-16.4383 21.2526 1.6661 0.8979
-17.7292 21.2989 1.7184 0.8949
-20.0930 22.4515 1.8684 0.8863
2.4718 7.7404 0.3204 0.9680
-6.4144 23.7104 0.9685 0.9064
-6.9115 22.3401 0.9221 0.9106
-6.9963 20.0413 0.8370 0.9185
-14.1358 21.2641 1.0068 0.9028
-17.7296 21.2994 1.0927 0.8950
-20.3068 22.6903 1.2007 0.8852
-30.5681 27.5371 1.6223 0.8482
-0.3194 6.4847 0.1097 0.9744
-5.3009 33.5485 0.5737 0.8729
-7.0756 20.2684 0.3626 0.9177
-11.1006 23.3747 0.4371 0.9017
-13.2208 21.5222 0.4267 0.9039
-5.3769 6.4596 0.1420 0.9669
-20.2823 22.6630 0.5137 0.8854
-21.8083 22.6780 0.5315 0.8817
-23.4104 22.6601 0.5504 0.8778
-28.9696 26.0970 0.6586 0.8556
2.4704 7.7358 -0.0457 0.9680
-0.3194 6.4848 -0.0366 0.9744
-0.5599 6.5676 -0.0371 0.9740
-0.7976 6.5667 -0.0372 0.9739
-1.2798 6.5649 -0.0377 0.9736
-1.7755 6.5630 -0.0383 0.9732
-2.0301 6.5621 -0.0387 0.9729
-3.1143 6.5580 -0.0409 0.9714
-3.7103 6.5557 -0.0424 0.9703
-4.3564 6.5533 -0.0443 0.9690
-4.7024 6.5520 -0.0454 0.9683
-5.3769 6.4596 -0.0473 0.9669
-5.8544 6.5416 -0.0494 0.9655
-6.7546 6.5382 -0.0529 0.9631
-7.2556 6.5363 -0.0550 0.9617
-0.0868 6.4857 -0.1826 0.9744
-1.0374 6.5659 -0.1872 0.9738
-1.5256 6.5640 -0.1898 0.9734
-1.7755 6.5631 -0.1914 0.9732
-2.2904 6.5611 -0.1957 0.9726
-3.1143 6.5580 -0.2044 0.9714
-3.4068 6.5569 -0.2081 0.9709
-4.3564 6.5533 -0.2216 0.9690
-4.7025 6.5520 -0.2271 0.9682
-5.3770 6.4597 -0.2367 0.9669
-5.8544 6.5416 -0.2472 0.9655
-6.7546 6.5382 -0.2647 0.9631
11.7366 48.4971 -2.5305 0.8189
9.9379 48.6230 -2.5169 0.8197
8.1459 48.6863 -2.5034 0.8206
6.3627 48.6883 -2.4902 0.8215
4.5903 48.6296 -2.4772 0.8223
-0.7977 6.5668 -0.3355 0.9739
-1.0374 6.5659 -0.3371 0.9737
-2.0301 6.5621 -0.3484 0.9729
-2.8315 6.5591 -0.3623 0.9718
-3.1144 6.5580 -0.3682 0.9713
-3.7104 6.5558 -0.3820 0.9703
-4.0263 6.5546 -0.3901 0.9697
-4.3564 6.5533 -0.3991 0.9690
-4.7025 6.5520 -0.4090 0.9682
-5.0667 6.5506 -0.4200 0.9674
-5.8544 6.5417 -0.4452 0.9655
-6.2891 6.5400 -0.4601 0.9643
-6.7547 6.5383 -0.4768 0.9630
14.1824 32.0507 -2.5698 0.8689
12.9835 32.4340 -2.5616 0.8693
9.3375 33.3143 -2.5368 0.8704
8.1116 33.5180 -2.5286 0.8708
4.1556 31.7996 -2.3514 0.8793
3.0056 31.8413 -2.3451 0.8796
-0.5599 6.5677 -0.4833 0.9739
-1.0374 6.5659 -0.4874 0.9737
-1.5256 6.5641 -0.4941 0.9733
-1.7755 6.5631 -0.4985 0.9731
-2.5572 6.5602 -0.5163 0.9722
-3.1144 6.5581 -0.5323 0.9713
-3.4069 6.5570 -0.5418 0.9708
-4.0263 6.5546 -0.5640 0.9696
-4.3565 6.5534 -0.5770 0.9689
-4.7025 6.5521 -0.5913 0.9682
-5.8545 6.5417 -0.6437 0.9654
-6.2892 6.5401 -0.6653 0.9643
-7.2558 6.5364 -0.7160 0.9616
12.5371 23.6032 -2.5658 0.8982
9.8607 24.6331 -2.5473 0.8989
8.9500 24.9094 -2.5411 0.8991
6.1798 25.5356 -2.5223 0.8998
1.4261 24.4412 -2.3505 0.9063
-0.3194 6.4849 -0.6233 0.9742
-1.2799 6.5650 -0.6421 0.9735
-1.7755 6.5632 -0.6527 0.9730
-2.2904 6.5612 -0.6672 0.9725
-2.5573 6.5602 -0.6760 0.9721
-2.8316 6.5592 -0.6859 0.9717
-3.1144 6.5581 -0.6970 0.9712
-3.7104 6.5558 -0.7232 0.9702
-4.0264 6.5547 -0.7385 0.9696
-4.7026 6.5521 -0.7743 0.9681
-5.0667 6.5507 -0.7951 0.9673
-6.7548 6.5384 -0.9025 0.9629
10.0836 18.9841 -2.5534 0.9171
7.2121 20.0726 -2.5336 0.9177
2.4666 7.7242 -0.9632 0.9679
5.3843 19.2099 -2.3698 0.9228
3.2732 19.5629 -2.3561 0.9232
2.5712 19.6750 -2.3570 0.9232
1.8622 19.7285 -2.3539 0.9233
1.1522 19.7470 -2.3497 0.9234
-0.0868 6.4858 -0.7705 0.9742
-1.2799 6.5651 -0.7945 0.9734
-1.7755 6.5632 -0.8076 0.9730
-2.2905 6.5612 -0.8255 0.9724
-2.5573 6.5602 -0.8364 0.9720
-2.8316 6.5592 -0.8486 0.9716
-3.4069 6.5570 -0.8777 0.9707
-4.7026 6.5521 -0.9580 0.9680
-5.0668 6.5508 -0.9837 0.9672
-5.3771 6.4598 -0.9984 0.9667
-5.8545 6.5418 -1.0428 0.9653
-7.2559 6.5365 -1.1601 0.9614
8.4259 15.8631 -2.5450 0.9300
7.2449 16.3727 -2.5368 0.9302
6.6429 16.5945 -2.5327 0.9303
2.4659 7.7219 -1.1485 0.9678
3.9221 16.2067 -2.3626 0.9349
2.7483 16.4260 -2.3597 0.9349
2.1548 16.4891 -2.3562 0.9350
1.5604 16.5308 -2.3527 0.9351
0.3715 16.5450 -2.3448 0.9353
-0.3194 6.4849 -0.9199 0.9741
-0.5599 6.5678 -0.9340 0.9737
-0.7977 6.5669 -0.9373 0.9736
-1.5257 6.5642 -0.9549 0.9731
-2.2905 6.5613 -0.9847 0.9723
-2.8316 6.5592 -1.0123 0.9715
-3.7104 6.5559 -1.0674 0.9700
-4.0264 6.5547 -1.0900 0.9694
-4.3565 6.5535 -1.1150 0.9687
-6.2893 6.5402 -1.2856 0.9640
6.7281 13.8422 -2.5355 0.9395
5.3563 13.3807 -2.3744 0.9432
2.4651 7.7195 -1.3350 0.9677
3.8732 13.8188 -2.3642 0.9435
3.3713 13.9309 -2.3612 0.9436
2.8697 14.0407 -2.3609 0.9436
1.8523 14.1736 -2.3548 0.9437
1.3415 14.2125 -2.3518 0.9438
0.8304 14.2312 -2.3484 0.9438
-0.3194 6.4850 -1.0696 0.9740
-0.7977 6.5670 -1.0898 0.9735
-1.5257 6.5642 -1.1102 0.9730
-2.0302 6.5623 -1.1316 0.9725
-2.8316 6.5593 -1.1769 0.9715
-3.1144 6.5582 -1.1960 0.9710
-3.4070 6.5571 -1.2173 0.9705
-3.7105 6.5560 -1.2410 0.9699
-4.0264 6.5548 -1.2673 0.9693
-4.7026 6.5522 -1.3286 0.9678
-5.0668 6.5508 -1.3643 0.9670
-5.8546 6.5419 -1.4463 0.9650
-7.2560 6.5366 -1.6089 0.9612
6.3250 11.9080 -2.5344 0.9466
5.5287 11.3746 -2.3771 0.9498
5.1114 11.5512 -2.3743 0.9499
4.6886 11.7125 -2.3713 0.9499
4.2607 11.8582 -2.3684 0.9500
2.9555 12.2123 -2.3617 0.9501
2.5133 12.2966 -2.3591 0.9502
1.6227 12.4169 -2.3537 0.9503
1.1755 12.4530 -2.3511 0.9504
0.7277 12.4708 -2.3480 0.9504
-0.3194 6.4850 -1.2204 0.9739
-1.0374 6.5661 -1.2495 0.9733
-1.2799 6.5652 -1.2572 0.9731
-1.5257 6.5642 -1.2667 0.9729
-2.5573 6.5603 -1.3234 0.9717
-3.1144 6.5582 -1.3646 0.9709
-4.0265 6.5548 -1.4459 0.9692
-4.7027 6.5522 -1.5159 0.9677
-5.3772 6.4599 -1.5798 0.9664
-5.8546 6.5419 -1.6501 0.9649
-6.2894 6.5403 -1.7055 0.9637
-6.7549 6.5385 -1.7670 0.9625
-7.2561 6.5367 -1.8356 0.9610
5.2743 9.9297 -2.3766 0.9551
4.9099 10.1014 -2.3741 0.9551
2.7680 7.7040 -1.7304 0.9671
2.4425 7.6487 -1.6972 0.9677
2.2335 10.9276 -2.3576 0.9554
0.6470 11.0877 -2.3477 0.9556
0.2491 11.0908 -2.3450 0.9557
-0.0868 6.4859 -1.3711 0.9738
-0.3194 6.4850 -1.3725 0.9738
-0.5599 6.5679 -1.3933 0.9734
-1.2799 6.5652 -1.4139 0.9730
-1.7755 6.5633 -1.4372 0.9726
-2.5573 6.5604 -1.4884 0.9716
-3.1145 6.5583 -1.5347 0.9708
-4.7027 6.5523 -1.7048 0.9676
-5.0669 6.5509 -1.7506 0.9667
-5.3772 6.4600 -1.7767 0.9662
-6.2894 6.5403 -1.9180 0.9636
-6.7550 6.5386 -1.9872 0.9623
-7.2561 6.5367 -2.0644 0.9609
4.4114 9.0758 -2.3716 0.9594
4.0795 9.2191 -2.3693 0.9594
2.7109 9.6718 -2.3607 0.9596
2.3605 9.7540 -2.3586 0.9596
2.0078 9.8235 -2.3565 0.9596
1.2969 9.9242 -2.3522 0.9597
0.5818 9.9712 -2.3475 0.9598
0.2240 9.9752 -2.3450 0.9598
-0.0868 6.4859 -1.5245 0.9737
-0.3194 6.4851 -1.5260 0.9737
-1.0375 6.5661 -1.5623 0.9731
-1.2799 6.5652 -1.5720 0.9729
-1.5257 6.5643 -1.5839 0.9727
-2.0302 6.5624 -1.6144 0.9722
-2.2905 6.5614 -1.6333 0.9718
-2.8316 6.5594 -1.6791 0.9711
-3.1145 6.5583 -1.7063 0.9706
-3.4070 6.5572 -1.7367 0.9701
-3.7105 6.5561 -1.7705 0.9695
-4.0265 6.5549 -1.8080 0.9689
-4.3566 6.5536 -1.8495 0.9682
-5.3772 6.4600 -1.9754 0.9661
-6.2895 6.5404 -2.1325 0.9634
-6.7550 6.5386 -2.2095 0.9621
-7.2605 6.5406 -2.2967 0.9606
4.2969 8.0897 -2.3717 0.9629
4.0009 8.2312 -2.3696 0.9629
2.4593 8.7742 -2.3594 0.9630
0.8528 9.0341 -2.3495 0.9632
-0.0868 6.4860 -1.6795 0.9736
-0.7977 6.5671 -1.7128 0.9730
-1.7755 6.5634 -1.7604 0.9723
-2.0302 6.5624 -1.7786 0.9720
-2.8317 6.5594 -1.8498 0.9709
-3.4070 6.5572 -1.9133 0.9699
-5.0669 6.5510 -2.1443 0.9664
-6.1680 6.4140 -2.3040 0.9639
-6.3903 6.1855 -2.3027 0.9639
3.9269 7.3930 -2.3698 0.9658
3.6566 7.5229 -2.3679 0.9658
3.3820 7.6429 -2.3660 0.9659
3.1035 7.7528 -2.3641 0.9659
2.4179 7.5715 -2.2501 0.9675
2.1723 7.7502 -2.2786 0.9671
1.9580 8.0906 -2.3565 0.9660
1.3716 8.1978 -2.3530 0.9660
0.4830 8.2769 -2.3471 0.9661
-1.7755 6.5634 -1.9248 0.9721
-2.0302 6.5625 -1.9446 0.9718
-2.2905 6.5615 -1.9674 0.9715
-3.1145 6.5584 -2.0553 0.9703
-3.4070 6.5573 -2.0919 0.9697
-4.0266 6.5549 -2.1778 0.9685
-4.7642 6.6380 -2.3131 0.9666
-5.4395 6.0780 -2.3091 0.9667
-5.8546 5.6670 -2.3067 0.9667
-6.0509 5.4510 -2.3055 0.9667
2.0687 7.3805 -2.3576 0.9684
1.5326 7.4985 -2.3541 0.9685
1.2621 7.5434 -2.3524 0.9685
0.7177 7.6028 -2.3488 0.9685
0.4445 7.6177 -2.3470 0.9686
0.1712 7.6229 -2.3452 0.9686
-0.0868 6.4860 -1.9951 0.9732
-0.3194 6.4852 -1.9971 0.9732
-0.5599 6.5680 -2.0275 0.9728
-1.0375 6.5662 -2.0447 0.9726
-1.7756 6.5635 -2.0913 0.9719
-2.0302 6.5625 -2.1129 0.9717
-2.5574 6.5605 -2.1657 0.9710
-2.8317 6.5595 -2.1975 0.9705
-3.4071 6.5573 -2.2729 0.9695
-3.7153 6.5645 -2.3201 0.9689
-4.1709 6.2741 -2.3173 0.9690
-4.3904 6.1172 -2.3160 0.9690
-5.0134 5.6019 -2.3123 0.9690
-5.2083 5.4160 -2.3111 0.9690
-5.3964 5.2235 -2.3100 0.9691
-5.5776 5.0246 -2.3090 0.9691
3.3401 6.2883 -2.3668 0.9704
3.1106 6.3996 -2.3652 0.9705
2.8774 6.5025 -2.3636 0.9705
2.6408 6.5968 -2.3620 0.9705
1.9137 6.8276 -2.3570 0.9706
1.6667 6.8869 -2.3553 0.9706
1.4179 6.9372 -2.3536 0.9706
1.1676 6.9787 -2.3520 0.9706
0.6640 7.0344 -2.3487 0.9707
0.1584 7.0538 -2.3453 0.9707
-0.5599 6.5681 -2.1912 0.9726
-0.7977 6.5672 -2.1990 0.9725
-1.2799 6.5654 -2.2234 0.9722
-2.0303 6.5625 -2.2834 0.9715
-2.3095 6.6158 -2.3293 0.9709
-2.5435 6.5247 -2.3278 0.9709
-3.2229 6.2029 -2.3236 0.9710
-3.8633 5.8115 -2.3197 0.9710
-4.2651 5.5142 -2.3173 0.9710
-4.4577 5.3553 -2.3161 0.9711
-4.8252 5.0177 -2.3140 0.9711
-4.9997 4.8395 -2.3130 0.9711
3.1032 5.8422 -2.3656 0.9723
2.8901 5.9459 -2.3642 0.9723
2.2311 6.2096 -2.3596 0.9724
1.3178 6.4476 -2.3534 0.9724
0.8516 6.5167 -2.3502 0.9725
0.3823 6.5522 -2.3471 0.9725
0.1473 6.5574 -2.3456 0.9725
-0.7888 6.4942 -2.3394 0.9726
-1.0203 6.4576 -2.3379 0.9726
-1.4782 6.3599 -2.3350 0.9726
-1.9274 6.2301 -2.3321 0.9727
-2.3658 6.0689 -2.3294 0.9727
-2.9982 5.7703 -2.3254 0.9728
-3.4001 5.5350 -2.3230 0.9728
-3.7838 5.2720 -2.3207 0.9728
-3.9684 5.1307 -2.3195 0.9728
-4.1478 4.9829 -2.3185 0.9728
-4.5087 4.6885 -2.3261 0.9727
-4.8230 4.6684 -2.4004 0.9719
-5.1209 4.6132 -2.4648 0.9711
2.4939 5.6359 -2.3618 0.9739
2.2890 5.7182 -2.3604 0.9740
2.0815 5.7930 -2.3589 0.9740
1.8714 5.8603 -2.3575 0.9740
1.4453 5.9719 -2.3546 0.9740
0.7947 6.0811 -2.3502 0.9741
0.5760 6.1019 -2.3488 0.9741
0.3568 6.1148 -2.3473 0.9741
-0.0818 6.1171 -2.3444 0.9741
-0.3008 6.1065 -2.3430 0.9742
-1.1671 5.9865 -2.3373 0.9742
-1.3800 5.9374 -2.3360 0.9742
-2.0056 5.7453 -2.3320 0.9743
-2.2090 5.6667 -2.3307 0.9743
-2.4092 5.5809 -2.3295 0.9743
-3.1753 5.1690 -2.3248 0.9743
-3.3568 5.0496 -2.3237 0.9744
-3.5339 4.9238 -2.3226 0.9744
-4.1812 4.6720 -2.4027 0.9735
-4.6277 4.4794 -2.4681 0.9728
-4.7835 4.3092 -2.4672 0.9728
2.3344 5.2754 -2.3610 0.9754
1.7520 5.4861 -2.3570 0.9754
1.5534 5.5421 -2.3557 0.9754
1.3531 5.5910 -2.3543 0.9754
0.9482 5.6669 -2.3516 0.9755
0.7441 5.6939 -2.3502 0.9755
0.5393 5.7136 -2.3488 0.9755
0.3341 5.7259 -2.3475 0.9755
-0.0766 5.7285 -2.3448 0.9755
-0.2817 5.7188 -2.3434 0.9756
-0.6896 5.6775 -2.3407 0.9756
-1.4902 5.5087 -2.3356 0.9756
-1.6857 5.4488 -2.3344 0.9757
-2.0694 5.3086 -2.3319 0.9757
-2.6231 5.0485 -2.3285 0.9757
-3.1454 4.7314 -2.3253 0.9757
-3.6143 4.6728 -2.4178 0.9748
-4.1851 4.3521 -2.4712 0.9742
-4.3368 4.1979 -2.4703 0.9743
2.6434 4.9767 -2.4559 0.9757
2.3833 4.9033 -2.3760 0.9765
2.1916 4.9527 -2.3604 0.9766
1.8294 5.0915 -2.3579 0.9767
1.6450 5.1510 -2.3566 0.9767
1.2705 5.2499 -2.3540 0.9767
1.0810 5.2891 -2.3528 0.9767
0.5065 5.3658 -2.3489 0.9768
0.3138 5.3776 -2.3476 0.9768
0.1209 5.3824 -2.3463 0.9768
-0.0720 5.3804 -2.3451 0.9768
-0.2646 5.3714 -2.3438 0.9768
-1.4000 5.1751 -2.3365 0.9769
-1.5837 5.1191 -2.3353 0.9769
-1.7652 5.0565 -2.3342 0.9769
-2.1207 4.9125 -2.3319 0.9769
-2.6551 4.6915 -2.3494 0.9768
-2.8759 4.6817 -2.3946 0.9763
-3.1052 4.6711 -2.4445 0.9758
-4.0759 3.9453 -2.4722 0.9756
2.5490 4.7989 -2.5152 0.9763
2.3682 4.8721 -2.5075 0.9764
2.1336 4.8215 -2.4405 0.9770
1.3731 4.8989 -2.3550 0.9778
1.1961 4.9424 -2.3538 0.9778
1.0178 4.9795 -2.3526 0.9778
0.8383 5.0102 -2.3514 0.9779
0.6579 5.0344 -2.3502 0.9779
0.1138 5.0681 -2.3465 0.9779
-0.4299 5.0434 -2.3430 0.9779
-0.6100 5.0222 -2.3418 0.9779
-0.9671 4.9608 -2.3395 0.9780
-1.1437 4.9206 -2.3384 0.9780
-1.3186 4.8741 -2.3372 0.9780
-1.4916 4.8215 -2.3362 0.9780
-1.6626 4.7627 -2.3351 0.9780
-1.8350 4.7073 -2.3386 0.9780
-2.0257 4.6924 -2.3658 0.9777
-2.2247 4.6847 -2.4006 0.9774
-2.4297 4.6763 -2.4393 0.9770
-2.8044 4.5653 -2.4801 0.9767
-3.4226 4.1118 -2.4764 0.9767
-3.5665 3.9852 -2.4755 0.9767
-3.8402 3.7172 -2.4740 0.9767
-3.9697 3.5762 -2.4732 0.9767
2.2399 4.6083 -2.5134 0.9774
1.9024 4.7524 -2.5110 0.9775
1.7019 4.7366 -2.4688 0.9778
1.1399 4.7102 -2.3772 0.9786
0.9641 4.7170 -2.3616 0.9788
0.7910 4.7277 -2.3513 0.9789
0.4500 4.7676 -2.3490 0.9789
0.2788 4.7783 -2.3479 0.9789
0.1074 4.7829 -2.3467 0.9789
-0.0640 4.7814 -2.3456 0.9789
-0.2351 4.7738 -2.3445 0.9789
-0.4058 4.7600 -2.3434 0.9789
-1.0920 4.6982 -2.3660 0.9787
-1.4504 4.6884 -2.4073 0.9784
-1.8228 4.6760 -2.4618 0.9779
-2.0081 4.6516 -2.4853 0.9777
-2.4926 4.4040 -2.4823 0.9777
-2.7994 4.2111 -2.4804 0.9777
-2.9474 4.1066 -2.4795 0.9777
-3.0916 3.9970 -2.4787 0.9777
-3.2317 3.8824 -2.4778 0.9777
-3.3676 3.7629 -2.4770 0.9778
-3.7486 3.3769 -2.4748 0.9778
2.2731 4.2795 -2.5138 0.9784
1.7985 4.4927 -2.5105 0.9784
1.4708 4.6058 -2.5083 0.9784
1.3043 4.6534 -2.5071 0.9785
1.1344 4.6872 -2.5018 0.9785
0.9585 4.6896 -2.4831 0.9787
0.6133 4.6926 -2.4551 0.9789
0.4430 4.6933 -2.4456 0.9790
0.2738 4.6934 -2.4390 0.9790
-0.0628 4.6921 -2.4344 0.9791
-0.5692 4.6862 -2.4490 0.9790
-0.9123 4.6796 -2.4734 0.9787
-1.2535 4.6337 -2.4903 0.9786
-1.5808 4.5283 -2.4882 0.9786
-1.7413 4.4669 -2.4872 0.9786
-1.8994 4.3999 -2.4862 0.9786
-2.2079 4.2494 -2.4843 0.9787
-2.7883 3.8849 -2.4808 0.9787
-3.0573 3.6729 -2.4792 0.9787
-3.1859 3.5599 -2.4784 0.9787
-3.4307 3.3207 -2.4770 0.9787
1.8553 4.1927 -2.5112 0.9793
1.3930 4.3620 -2.5080 0.9793
0.4292 4.5470 -2.5015 0.9794
0.1024 4.5621 -2.4993 0.9794
-0.0610 4.5608 -2.4982 0.9794
-0.2243 4.5538 -2.4971 0.9794
-0.5493 4.5222 -2.4950 0.9794
-0.7106 4.4977 -2.4940 0.9794
-1.1877 4.3901 -2.4909 0.9795
-1.3436 4.3430 -2.4899 0.9795
-1.4978 4.2904 -2.4889 0.9795
-1.9472 4.1003 -2.4861 0.9795
-2.6422 3.6814 -2.4819 0.9795
-3.3610 3.0278 -2.4777 0.9796
2.0415 3.8435 -2.5127 0.9801
1.9018 3.9127 -2.5117 0.9801
1.7597 3.9767 -2.5107 0.9801
1.6155 4.0356 -2.5097 0.9801
1.4693 4.0892 -2.5087 0.9801
1.3213 4.1376 -2.5077 0.9801
1.1718 4.1806 -2.5067 0.9801
1.0208 4.2181 -2.5056 0.9802
0.8687 4.2502 -2.5046 0.9802
-0.0579 4.3270 -2.4984 0.9802
-0.2128 4.3204 -2.4974 0.9802
-0.5212 4.2906 -2.4954 0.9802
-0.6743 4.2675 -2.4944 0.9802
-0.8264 4.2389 -2.4934 0.9803
-0.9773 4.2050 -2.4925 0.9803
-2.2524 3.6667 -2.4845 0.9803
