ply
format ascii 1.0
element vertex 595
property float32 x
property float32 y
property float32 z
property float32 I
end_header
-5.7076 29.7138 5.3351 0.8844
-9.8453 25.4857 4.8175 0.8950
-10.9527 25.5895 4.9080 0.8931
-12.1072 25.7043 5.0100 0.8910
-15.6099 23.6554 4.9974 0.8913
-40.9362 19.8190 8.0196 0.8313
-40.9012 13.0019 7.5676 0.8400
-42.5623 11.8716 7.7913 0.8357
-42.4715 10.2242 7.7028 0.8374
-42.6227 8.6605 7.6691 0.8381
-5.4454 28.3488 4.4223 0.8897
-8.5657 24.7752 4.0159 0.8994
-10.6694 24.9276 4.1539 0.8961
-14.1836 25.2534 4.4371 0.8894
-15.1194 24.7982 4.4494 0.8891
-14.8933 22.5696 4.1425 0.8963
-14.9151 20.9333 3.9376 0.9012
-41.3858 20.0367 7.0440 0.8302
-41.8661 18.4511 7.0089 0.8310
-38.1373 15.2030 6.2895 0.8469
-38.0272 13.6041 6.1871 0.8492
-43.6919 12.1867 6.9488 0.8323
-42.6463 8.6653 6.6667 0.8385
-5.3211 27.7019 3.6733 0.8924
-6.1024 26.5957 3.5533 0.8958
-7.4043 24.1846 3.2936 0.9030
-8.3754 24.2246 3.3378 0.9018
-9.3755 24.2696 3.3880 0.9004
-10.4094 24.3202 3.4449 0.8988
-11.4866 24.3868 3.5103 0.8970
-12.6186 24.4784 3.5862 0.8949
-13.8048 24.5789 3.6710 0.8925
-14.2439 21.5855 3.3677 0.9009
-15.1548 21.2699 3.4009 0.9000
-16.3414 21.2814 3.4940 0.8974
-42.7227 18.8286 6.0797 0.8283
-42.5789 16.9736 5.9690 0.8312
-43.9590 13.9739 6.0066 0.8302
-43.7893 12.2138 5.9199 0.8325
-44.3856 10.6850 5.9450 0.8318
-5.4098 28.1635 3.0795 0.8910
-6.1722 26.8998 2.9636 0.8949
-8.1942 23.7009 2.6929 0.9040
-11.2212 23.8232 2.8277 0.8995
-12.3068 23.8736 2.8842 0.8976
-13.4477 23.9432 2.9488 0.8954
-13.7796 22.6007 2.8424 0.8990
-13.8310 20.9596 2.6965 0.9039
-15.1553 21.2705 2.8045 0.9003
-37.0132 29.0555 5.0529 0.8275
-36.8846 26.8793 4.9009 0.8323
-44.0581 14.0055 4.9643 0.8303
-5.5975 29.1407 2.5119 0.8877
-6.1762 26.9174 2.3378 0.8951
-6.3549 23.7621 2.0822 0.9060
-8.1628 23.6099 2.1147 0.9046
-9.1242 23.6192 2.1434 0.9034
-10.1135 23.6288 2.1758 0.9020
-13.2884 23.6596 2.2971 0.8968
-14.0290 21.2597 2.1562 0.9028
-16.3160 21.2483 2.2678 0.8980
-17.5971 21.2944 2.3385 0.8950
-35.9605 28.2291 3.8701 0.8323
-35.8838 26.1499 3.7587 0.8367
-42.5257 24.4861 4.1540 0.8212
-6.1803 26.9349 1.7136 0.8952
-6.3558 23.7654 1.5255 0.9061
-6.9353 22.6526 1.4691 0.9094
-9.8898 23.1063 1.5586 0.9042
-10.9101 23.1628 1.5877 0.9025
-15.1316 21.2373 1.6170 0.9008
-17.5975 21.2949 1.7130 0.8952
-35.5156 29.9937 2.8826 0.8300
-35.5366 27.8963 2.8015 0.8344
-41.5349 23.9155 2.9720 0.8252
-6.3567 23.7687 0.9702 0.9062
-6.9119 22.5763 0.9310 0.9098
-6.9283 20.0393 0.8361 0.9186
-8.5839 20.0554 0.8602 0.9164
-9.4504 20.0638 0.8745 0.9150
-11.6064 20.6648 0.9346 0.9095
-14.0296 21.2606 1.0044 0.9031
-16.3167 21.2492 1.0564 0.8983
-30.5042 25.7614 1.5744 0.8523
-32.9320 22.2402 1.5669 0.8529
-36.5148 22.8018 1.6975 0.8417
-39.9493 23.0026 1.8177 0.8315
-6.1883 26.9698 0.4674 0.8952
-6.3575 23.7719 0.4157 0.9062
-6.9154 22.5876 0.3990 0.9098
-7.0068 20.2664 0.3622 0.9178
-9.0212 23.3526 0.4229 0.9047
-9.9993 23.3621 0.4293 0.9033
-12.0534 23.3820 0.4444 0.9001
-13.0849 23.2971 0.4514 0.8986
-13.2022 21.6538 0.4284 0.9035
-14.0299 21.2611 0.4303 0.9031
-15.1570 21.2728 0.4412 0.9008
-5.1316 6.6830 0.1423 0.9669
-5.3372 6.4586 0.1415 0.9670
-5.7420 6.4630 0.1460 0.9660
-21.6433 22.6730 0.5295 0.8821
-23.2938 22.7167 0.5496 0.8779
-28.9573 24.4550 0.6402 0.8593
-31.2404 22.7662 0.6530 0.8567
-10.3760 7.0073 0.2115 0.9511
-10.3739 6.4781 0.2066 0.9522
-1.2609 6.5645 -0.0376 0.9736
-1.5060 6.5635 -0.0379 0.9734
-1.7550 6.5625 -0.0382 0.9732
-2.5339 6.5595 -0.0396 0.9723
-2.8070 6.5584 -0.0402 0.9719
-3.3796 6.5561 -0.0415 0.9709
-4.3238 6.5524 -0.0442 0.9691
-4.6676 6.5511 -0.0453 0.9683
-5.0293 6.5497 -0.0465 0.9675
-5.3372 6.4587 -0.0472 0.9670
-5.7420 6.4631 -0.0487 0.9660
-7.1992 6.5352 -0.0547 0.9619
-7.7357 6.5331 -0.0570 0.9603
-8.3193 6.5308 -0.0595 0.9586
-9.6624 6.5255 -0.0656 0.9544
-14.7899 6.5182 -0.0910 0.9374
-31.3510 6.3703 -0.1801 0.8799
-49.2450 6.3837 -0.2796 0.8199
-1.7550 6.5626 -0.1913 0.9732
-2.8071 6.5584 -0.2009 0.9719
-4.3238 6.5525 -0.2211 0.9691
-4.6676 6.5511 -0.2265 0.9683
-5.0293 6.5497 -0.2325 0.9675
-5.3372 6.4587 -0.2359 0.9670
-6.7032 6.5372 -0.2636 0.9632
-7.1993 6.5352 -0.2738 0.9618
-7.7358 6.5331 -0.2851 0.9603
-8.3194 6.5308 -0.2978 0.9586
-8.9582 6.5283 -0.3121 0.9566
-10.3776 6.4804 -0.3445 0.9522
-18.1741 6.5018 -0.5435 0.9257
-1.5060 6.5636 -0.3415 0.9734
-3.0886 6.5574 -0.3676 0.9714
-3.3797 6.5562 -0.3741 0.9709
-3.6816 6.5550 -0.3813 0.9703
-3.9958 6.5538 -0.3893 0.9697
-5.0293 6.5497 -0.4188 0.9675
-5.3373 6.4588 -0.4249 0.9670
-5.7421 6.4632 -0.4384 0.9660
-6.2420 6.5390 -0.4585 0.9644
-6.7032 6.5372 -0.4748 0.9632
-8.3194 6.5309 -0.5364 0.9585
-8.9583 6.5284 -0.5622 0.9566
-9.6626 6.5256 -0.5913 0.9544
-10.3795 6.4816 -0.6206 0.9522
-11.3440 6.5319 -0.6639 0.9489
-13.4743 6.5236 -0.7592 0.9418
-14.7903 6.5184 -0.8197 0.9373
-31.3607 6.3722 -1.6229 0.8797
-43.3582 4.0499 -2.2084 0.8400
-43.4842 2.4971 -2.2089 0.8399
-1.2609 6.5646 -0.4901 0.9735
-1.7551 6.5626 -0.4981 0.9731
-2.0088 6.5616 -0.5031 0.9729
-2.2682 6.5606 -0.5090 0.9725
-2.5339 6.5596 -0.5156 0.9722
-2.8071 6.5585 -0.5231 0.9718
-4.6677 6.5512 -0.5898 0.9683
-5.0294 6.5498 -0.6055 0.9674
-5.3373 6.4588 -0.6143 0.9670
-6.7033 6.5372 -0.6865 0.9631
-7.1994 6.5353 -0.7129 0.9618
-9.6627 6.5257 -0.8549 0.9543
-12.3379 6.5281 -1.0235 0.9456
-16.1283 6.4295 -1.2731 0.9327
-20.4259 6.4932 -1.5715 0.9176
-26.5158 6.3832 -1.9997 0.8964
-28.7665 5.8451 -2.1523 0.8889
-28.9521 4.8116 -2.1519 0.8890
-30.9912 4.0174 -2.2914 0.8822
-31.1163 2.9065 -2.2914 0.8822
-1.2609 6.5646 -0.6417 0.9735
-1.5060 6.5636 -0.6465 0.9733
-1.7551 6.5627 -0.6522 0.9731
-2.0089 6.5617 -0.6588 0.9728
-2.5340 6.5596 -0.6751 0.9721
-2.8071 6.5585 -0.6849 0.9717
-3.0886 6.5574 -0.6959 0.9713
-3.9958 6.5539 -0.7369 0.9696
-5.0294 6.5498 -0.7928 0.9674
-7.1994 6.5354 -0.9335 0.9617
-8.9585 6.5285 -1.0642 0.9564
-9.6628 6.5257 -1.1194 0.9542
-13.4746 6.5237 -1.4373 0.9416
-16.1286 6.4295 -1.6669 0.9326
-20.4262 6.4933 -2.0577 0.9175
-22.0441 6.1486 -2.1971 0.9121
-24.2475 2.2649 -2.3380 0.9068
-24.3158 1.3963 -2.3383 0.9068
-1.5060 6.5637 -0.7999 0.9732
-1.7551 6.5627 -0.8069 0.9730
-3.0886 6.5575 -0.8610 0.9712
-3.6817 6.5551 -0.8931 0.9702
-4.3239 6.5526 -0.9325 0.9689
-5.0294 6.5499 -0.9809 0.9673
-5.3374 6.4589 -0.9953 0.9668
-6.2421 6.5391 -1.0738 0.9642
-7.7360 6.5333 -1.2028 0.9600
-8.3196 6.5310 -1.2564 0.9583
-8.9585 6.5285 -1.3167 0.9563
-9.6629 6.5258 -1.3850 0.9541
-11.3444 6.5321 -1.5550 0.9486
-12.3382 6.5282 -1.6581 0.9453
-13.4747 6.5238 -1.7783 0.9415
-18.0415 5.0322 -2.2249 0.9273
-19.0612 4.5886 -2.3289 0.9241
-19.5370 3.9697 -2.3682 0.9228
-19.6643 3.2680 -2.3679 0.9228
-19.7678 2.5625 -2.3678 0.9228
-19.9028 1.1429 -2.3681 0.9228
-1.2610 6.5647 -0.9471 0.9734
-1.5060 6.5637 -0.9542 0.9732
-1.7551 6.5627 -0.9625 0.9729
-2.0089 6.5617 -0.9723 0.9727
-2.5340 6.5597 -0.9964 0.9720
-3.3797 6.5564 -1.0451 0.9706
-3.9959 6.5540 -1.0876 0.9695
-4.3240 6.5527 -1.1124 0.9688
-7.7361 6.5334 -1.4347 0.9599
-8.3197 6.5311 -1.4986 0.9582
-8.9586 6.5286 -1.5706 0.9562
-9.6630 6.5258 -1.6521 0.9540
-10.3870 6.4862 -1.7351 0.9517
-15.0986 4.7996 -2.2448 0.9380
-16.2459 4.5314 -2.3897 0.9341
-16.3941 3.9466 -2.3892 0.9341
-16.7178 2.1671 -2.3886 0.9342
-1.5060 6.5637 -1.1094 0.9731
-1.7551 6.5628 -1.1191 0.9728
-2.5340 6.5597 -1.1585 0.9719
-2.8071 6.5586 -1.1753 0.9715
-3.0887 6.5575 -1.1941 0.9710
-3.3798 6.5564 -1.2152 0.9705
-3.6817 6.5552 -1.2386 0.9700
-3.9959 6.5540 -1.2645 0.9694
-4.3240 6.5527 -1.2933 0.9687
-5.0295 6.5500 -1.3604 0.9671
-5.7422 6.4634 -1.4243 0.9656
-6.7035 6.5374 -1.5425 0.9628
-7.1996 6.5355 -1.6018 0.9613
-7.7361 6.5334 -1.6681 0.9598
-9.6630 6.5259 -1.9209 0.9538
-11.3446 6.5322 -2.1566 0.9483
-12.3594 5.9838 -2.2622 0.9459
-12.5602 5.5355 -2.2612 0.9459
-13.9154 4.4235 -2.4054 0.9425
-14.0614 3.9221 -2.4049 0.9425
-14.1901 3.4160 -2.4044 0.9425
-14.3949 2.3923 -2.4039 0.9426
-14.4708 1.8759 -2.4039 0.9426
-14.5289 1.3571 -2.4039 0.9426
-14.5691 0.8366 -2.4041 0.9426
-1.5061 6.5638 -1.2658 0.9730
-1.7551 6.5628 -1.2769 0.9727
-2.5340 6.5598 -1.3218 0.9718
-3.0887 6.5576 -1.3624 0.9709
-3.3798 6.5564 -1.3864 0.9704
-3.6817 6.5553 -1.4132 0.9699
-3.9959 6.5540 -1.4428 0.9692
-5.3375 6.4590 -1.5749 0.9665
-5.7423 6.4634 -1.6251 0.9654
-6.2422 6.5393 -1.6992 0.9639
-6.7035 6.5375 -1.7600 0.9626
-8.3198 6.5312 -1.9881 0.9579
-8.9588 6.5287 -2.0836 0.9559
-10.2699 6.4131 -2.2758 0.9519
-10.8827 5.2688 -2.2727 0.9520
-11.0601 4.8744 -2.2718 0.9520
-11.6208 4.6325 -2.3514 0.9504
-12.2549 3.8957 -2.4170 0.9490
-12.3838 3.4541 -2.4165 0.9490
-12.7450 1.6521 -2.4156 0.9490
-12.7962 1.1952 -2.4157 0.9490
-12.8315 0.7368 -2.4158 0.9490
-1.2610 6.5648 -1.4130 0.9730
-1.5061 6.5638 -1.4235 0.9728
-2.0089 6.5618 -1.4506 0.9723
-2.2683 6.5608 -1.4674 0.9720
-2.8072 6.5587 -1.5080 0.9713
-3.0887 6.5576 -1.5322 0.9708
-3.3798 6.5565 -1.5592 0.9703
-3.9960 6.5541 -1.6226 0.9691
-4.6679 6.5515 -1.7004 0.9676
-5.7423 6.4635 -1.8276 0.9653
-6.2423 6.5393 -1.9109 0.9637
-7.7363 6.5335 -2.1404 0.9594
-8.7404 6.3695 -2.2861 0.9567
-8.9580 6.0497 -2.2849 0.9568
-10.4971 4.6262 -2.4248 0.9542
-10.6670 4.2523 -2.4274 0.9541
-10.8095 3.8671 -2.4267 0.9541
-10.9384 3.4772 -2.4262 0.9542
-11.2432 2.2845 -2.4251 0.9542
-11.4223 1.0669 -2.4250 0.9542
-11.4538 0.6577 -2.4251 0.9542
-1.7551 6.5629 -1.5966 0.9725
-2.2683 6.5609 -1.6315 0.9719
-3.0887 6.5577 -1.7036 0.9707
-3.6818 6.5553 -1.7670 0.9696
-3.9960 6.5541 -1.8041 0.9690
-4.3241 6.5528 -1.8451 0.9683
-4.6679 6.5515 -1.8906 0.9675
-5.0296 6.5501 -1.9409 0.9666
-5.7424 6.4635 -2.0320 0.9651
-6.7036 6.5376 -2.2007 0.9623
-7.2336 6.5663 -2.2960 0.9607
-7.6761 6.0257 -2.2935 0.9607
-7.8827 5.7445 -2.2924 0.9607
-8.0793 5.4563 -2.2913 0.9607
-8.2657 5.1616 -2.2903 0.9607
-8.4416 4.8607 -2.2894 0.9608
-8.7944 4.6532 -2.3384 0.9599
-9.3295 4.5168 -2.4361 0.9583
-9.4821 4.1790 -2.4354 0.9583
-10.0643 2.4228 -2.4329 0.9584
-10.1436 2.0611 -2.4327 0.9584
-10.3337 0.5934 -2.4327 0.9584
-1.2610 6.5648 -1.7308 0.9728
-2.5341 6.5599 -1.8208 0.9714
-2.8072 6.5588 -1.8472 0.9710
-3.0887 6.5577 -1.8768 0.9705
-3.3799 6.5566 -1.9099 0.9700
-3.6818 6.5554 -1.9467 0.9694
-4.3241 6.5529 -2.0328 0.9681
-4.6679 6.5515 -2.0828 0.9673
-6.1429 6.4352 -2.3034 0.9639
-6.5799 5.9730 -2.3009 0.9639
-6.7859 5.7308 -2.2997 0.9640
-6.9831 5.4818 -2.2986 0.9640
-7.5205 4.6962 -2.2957 0.9640
-8.0664 4.6446 -2.4100 0.9623
-8.3394 4.4124 -2.4428 0.9618
-8.4892 4.1100 -2.4421 0.9618
-8.6284 3.8027 -2.4414 0.9618
-8.7567 3.4908 -2.4408 0.9618
-8.9803 2.8547 -2.4398 0.9618
-9.1590 2.2049 -2.4392 0.9618
-9.2312 1.8757 -2.4390 0.9618
-9.3410 1.2109 -2.4388 0.9618
-9.3784 0.8760 -2.4388 0.9618
-9.4042 0.5400 -2.4389 0.9618
-1.5061 6.5639 -1.9065 0.9724
-1.7552 6.5629 -1.9232 0.9722
-2.0090 6.5620 -1.9427 0.9719
-2.5341 6.5599 -1.9908 0.9712
-2.8072 6.5588 -2.0197 0.9708
-3.0888 6.5577 -2.0521 0.9703
-3.9960 6.5542 -2.1731 0.9686
-4.7404 6.6532 -2.3127 0.9666
-4.9723 6.4755 -2.3113 0.9666
-5.1977 6.2898 -2.3099 0.9666
-5.8321 5.6876 -2.3062 0.9667
-6.0288 5.4726 -2.3050 0.9667
-6.3987 5.0231 -2.3029 0.9667
-7.3388 4.5828 -2.4494 0.9647
-7.4955 4.3159 -2.4486 0.9647
-7.6427 4.0438 -2.4478 0.9647
-7.9080 3.4852 -2.4465 0.9647
-8.2310 2.6165 -2.4451 0.9647
-8.3182 2.3201 -2.4447 0.9647
-8.5619 1.1099 -2.4441 0.9647
-8.6198 0.4950 -2.4442 0.9647
-1.5061 6.5640 -2.0714 0.9722
-2.5341 6.5599 -2.1630 0.9710
-3.3799 6.5566 -2.2688 0.9696
-3.6933 6.5758 -2.3197 0.9689
-3.9237 6.4355 -2.3183 0.9689
-4.1489 6.2873 -2.3169 0.9690
-4.7904 5.7969 -2.3130 0.9690
-5.1873 5.4341 -2.3107 0.9690
-5.5573 5.0447 -2.3085 0.9691
-6.6128 4.4659 -2.4543 0.9672
-6.7660 4.2251 -2.4535 0.9672
-7.2915 3.2135 -2.4508 0.9672
-7.4002 2.9500 -2.4503 0.9672
-7.4996 2.6830 -2.4499 0.9672
-7.5896 2.4126 -2.4495 0.9672
-7.6701 2.1394 -2.4492 0.9672
-7.7409 1.8635 -2.4490 0.9672
-7.8534 1.3052 -2.4487 0.9672
-7.8949 1.0234 -2.4486 0.9672
-7.9483 0.4564 -2.4488 0.9672
-1.5061 6.5640 -2.2386 0.9720
-2.2895 6.6222 -2.3291 0.9709
-3.2025 6.2126 -2.3233 0.9710
-3.4207 6.0905 -2.3220 0.9710
-4.0467 5.6796 -2.3181 0.9710
-4.4379 5.3703 -2.3158 0.9711
-4.6249 5.2056 -2.3146 0.9711
-4.9806 4.8573 -2.3126 0.9711
-6.1277 4.1383 -2.4579 0.9693
-6.2698 3.9152 -2.4571 0.9693
-6.4040 3.6874 -2.4564 0.9693
-6.5300 3.4551 -2.4557 0.9693
-6.6479 3.2185 -2.4552 0.9693
-6.9504 2.4865 -2.4537 0.9694
-7.0338 2.2360 -2.4534 0.9694
-7.1742 1.7271 -2.4529 0.9694
-7.2309 1.4692 -2.4527 0.9694
-7.2785 1.2096 -2.4526 0.9694
-7.3170 0.9485 -2.4526 0.9694
-7.3464 0.6862 -2.4526 0.9694
-1.4602 6.3638 -2.3349 0.9726
-1.6858 6.3036 -2.3334 0.9727
-2.1295 6.1594 -2.3306 0.9727
-2.3471 6.0757 -2.3292 0.9727
-3.1823 5.6660 -2.3239 0.9728
-3.3811 5.5456 -2.3227 0.9728
-3.5755 5.4184 -2.3215 0.9728
-3.9498 5.1438 -2.3192 0.9728
-4.1293 4.9970 -2.3181 0.9728
-4.3035 4.8439 -2.3171 0.9729
-5.1024 4.6318 -2.4643 0.9712
-5.2629 4.4446 -2.4634 0.9712
-5.8354 3.6440 -2.4602 0.9712
-5.9604 3.4320 -2.4596 0.9712
-6.0779 3.2158 -2.4590 0.9712
-6.1876 2.9957 -2.4584 0.9712
-6.2895 2.7719 -2.4579 0.9712
-6.4694 2.3144 -2.4571 0.9712
-6.6779 1.6076 -2.4563 0.9712
-6.8569 0.3938 -2.4561 0.9712
-1.3632 5.9411 -2.3359 0.9742
-2.5887 5.4959 -2.3280 0.9743
-3.3393 5.0604 -2.3234 0.9744
-3.8753 4.6895 -2.3313 0.9743
-4.6102 4.4960 -2.4677 0.9728
-4.7663 4.3266 -2.4668 0.9728
-4.9162 4.1519 -2.4660 0.9728
-5.3278 3.5981 -2.4637 0.9728
-5.4516 3.4043 -2.4630 0.9728
-5.6783 3.0044 -2.4618 0.9729
-5.8762 2.5897 -2.4609 0.9729
-5.9640 2.3775 -2.4604 0.9729
-6.0444 2.1624 -2.4601 0.9729
-6.1171 1.9446 -2.4598 0.9729
-6.1821 1.7243 -2.4595 0.9729
-6.2393 1.5020 -2.4593 0.9729
-6.3636 0.8249 -2.4591 0.9729
-6.3891 0.5968 -2.4591 0.9729
-1.0776 5.6102 -2.3381 0.9756
-1.2769 5.5650 -2.3368 0.9756
-1.4743 5.5127 -2.3355 0.9756
-2.0530 5.3146 -2.3318 0.9757
-2.2407 5.2351 -2.3306 0.9757
-2.4253 5.1490 -2.3294 0.9757
-2.6066 5.0565 -2.3283 0.9757
-2.7845 4.9577 -2.3272 0.9757
-3.1289 4.7416 -2.3251 0.9757
-3.3383 4.6854 -2.3546 0.9754
-3.5885 4.6733 -2.4115 0.9749
-3.8486 4.6573 -2.4727 0.9742
-4.3205 4.2134 -2.4699 0.9743
-4.4669 4.0548 -2.4691 0.9743
-4.6075 3.8912 -2.4683 0.9743
-4.9935 3.3723 -2.4661 0.9743
-5.1096 3.1907 -2.4655 0.9743
-5.4185 2.6233 -2.4639 0.9743
-5.5079 2.4274 -2.4635 0.9743
-5.6656 2.0269 -2.4627 0.9743
-5.7338 1.8227 -2.4625 0.9743
-5.8948 1.1978 -2.4619 0.9743
-5.9337 0.9861 -2.4618 0.9743
-1.1995 5.2278 -2.3376 0.9769
-1.5686 5.1235 -2.3352 0.9769
-1.9289 4.9933 -2.3329 0.9769
-2.4492 4.7512 -2.3296 0.9769
-2.8546 4.6820 -2.3898 0.9764
-3.0826 4.6714 -2.4392 0.9759
-3.2973 4.6278 -2.4764 0.9755
-3.4593 4.5051 -2.4754 0.9755
-3.9176 4.1041 -2.4727 0.9755
-4.0605 3.9600 -2.4719 0.9756
-4.3305 3.6572 -2.4703 0.9756
-4.5783 3.3364 -2.4689 0.9756
-4.6935 3.1697 -2.4683 0.9756
-4.8027 2.9991 -2.4677 0.9756
-4.9058 2.8248 -2.4672 0.9756
-5.0933 2.4659 -2.4662 0.9756
-5.1773 2.2818 -2.4658 0.9756
-5.3899 1.7134 -2.4648 0.9756
-5.4472 1.5194 -2.4646 0.9756
-5.4977 1.3235 -2.4645 0.9756
-5.5778 0.9270 -2.4642 0.9756
-5.6073 0.7269 -2.4642 0.9756
-0.9534 4.9633 -2.3395 0.9780
-1.3045 4.8777 -2.3372 0.9780
-1.8190 4.7087 -2.3366 0.9780
-2.7889 4.5743 -2.4799 0.9767
-2.9496 4.4698 -2.4789 0.9767
-3.1063 4.3598 -2.4779 0.9767
-3.9556 3.5907 -2.4729 0.9767
-4.0804 3.4460 -2.4722 0.9767
-4.1999 3.2969 -2.4715 0.9767
-4.3139 3.1438 -2.4709 0.9767
-4.4226 2.9868 -2.4703 0.9768
-4.6228 2.6618 -2.4692 0.9768
-4.7995 2.3237 -2.4683 0.9768
-4.8788 2.1502 -2.4679 0.9768
-5.0187 1.7954 -2.4673 0.9768
-5.0792 1.6146 -2.4670 0.9768
-5.1808 1.2472 -2.4666 0.9768
-5.2218 1.0610 -2.4665 0.9768
-5.2841 0.6850 -2.4664 0.9768
-5.3198 0.3055 -2.4665 0.9768
-0.9039 4.7057 -2.3505 0.9789
-1.0780 4.6982 -2.3644 0.9788
-1.4354 4.6884 -2.4051 0.9784
-1.6189 4.6825 -2.4303 0.9782
-2.9329 4.1164 -2.4793 0.9777
-3.2174 3.8935 -2.4776 0.9777
-3.3536 3.7747 -2.4768 0.9778
-3.9659 3.1133 -2.4732 0.9778
-4.0738 2.9688 -2.4726 0.9778
-4.2737 2.6688 -2.4715 0.9778
-4.4519 2.3555 -2.4706 0.9778
-4.6074 2.0306 -2.4698 0.9778
-4.6765 1.8643 -2.4695 0.9778
-4.7396 1.6956 -2.4692 0.9778
-4.7968 1.5248 -2.4690 0.9778
-4.8929 1.1779 -2.4686 0.9778
-4.9316 1.0021 -2.4685 0.9778
-4.9641 0.8250 -2.4684 0.9778
-4.9904 0.6469 -2.4684 0.9778
-5.0241 0.2885 -2.4685 0.9778
-1.2401 4.6372 -2.4902 0.9786
-1.4046 4.5879 -2.4891 0.9786
-1.5671 4.5328 -2.4881 0.9786
-1.7275 4.4720 -2.4871 0.9786
-2.3440 4.1734 -2.4832 0.9787
-2.4908 4.0854 -2.4823 0.9787
-2.7746 3.8942 -2.4805 0.9787
-2.9111 3.7912 -2.4797 0.9787
-3.0439 3.6834 -2.4789 0.9787
-3.8544 2.8089 -2.4742 0.9787
-3.9515 2.6686 -2.4737 0.9787
-4.1306 2.3784 -2.4727 0.9788
-4.2123 2.2288 -2.4723 0.9788
-4.2887 2.0763 -2.4719 0.9788
-4.4250 1.7640 -2.4713 0.9788
-4.4847 1.6044 -2.4710 0.9788
-4.5388 1.4428 -2.4708 0.9788
-4.5872 1.2795 -2.4706 0.9788
-4.7221 0.6121 -2.4702 0.9788
-4.7410 0.4428 -2.4703 0.9788
-1.1750 4.3934 -2.4909 0.9795
-1.3308 4.3468 -2.4898 0.9795
-1.6368 4.2372 -2.4879 0.9795
-2.6293 3.6902 -2.4817 0.9795
-2.7587 3.5927 -2.4809 0.9796
-3.0067 3.3842 -2.4794 0.9796
-3.1249 3.2736 -2.4787 0.9796
-3.2391 3.1589 -2.4781 0.9796
-3.4549 2.9178 -2.4768 0.9796
-3.5562 2.7917 -2.4762 0.9796
-3.6530 2.6621 -2.4757 0.9796
-3.9149 2.2542 -2.4743 0.9796
-4.1321 1.8211 -2.4732 0.9796
-4.1940 1.6719 -2.4729 0.9796
-4.3020 1.3676 -2.4724 0.9796
-4.3479 1.2127 -2.4723 0.9796
-4.3882 1.0564 -2.4721 0.9796
-4.4522 0.7399 -2.4719 0.9796
-4.4758 0.5802 -2.4719 0.9796
-0.8146 4.2412 -2.4934 0.9803
-0.9654 4.2076 -2.4924 0.9803
-1.2628 4.1247 -2.4905 0.9803
-1.5532 4.0208 -2.4886 0.9803
-1.9729 3.8272 -2.4860 0.9803
-2.1079 3.7530 -2.4851 0.9803
-2.2400 3.6739 -2.4843 0.9803
-2.4953 3.5022 -2.4827 0.9803
-2.6182 3.4097 -2.4820 0.9803
-2.7377 3.3129 -2.4813 0.9803
-2.8536 3.2120 -2.4806 0.9804
-2.9659 3.1070 -2.4799 0.9804
-3.3754 2.6498 -2.4776 0.9804
-3.4673 2.5268 -2.4771 0.9804
-3.6377 2.2716 -2.4761 0.9804
-3.7896 2.0051 -2.4753 0.9804
-3.8583 1.8680 -2.4750 0.9804
-3.9222 1.7286 -2.4747 0.9804
-3.9811 1.5870 -2.4744 0.9804
-4.1271 1.1512 -2.4738 0.9804
-4.1655 1.0028 -2.4736 0.9804
-4.2262 0.7024 -2.4735 0.9804
-4.2486 0.5508 -2.4735 0.9804
-4.2772 0.2456 -2.4735 0.9804
