ply
format ascii 1.0
element vertex 567
property float32 x
property float32 y
property float32 z
property float32 I
end_header
-41.8894 19.4667 8.1448 0.8289
-37.8707 15.9895 7.2484 0.8462
-37.7318 14.3746 7.1196 0.8487
-42.2849 11.1330 7.7101 0.8373
-39.1748 -8.1156 7.0542 0.8500
-30.8643 -8.7185 5.6552 0.8779
-21.5014 -8.6343 4.0855 0.9102
-20.8607 -9.2502 4.0237 0.9115
-29.6424 -21.6342 6.4708 0.8615
-42.3616 19.6861 7.1561 0.8278
-37.7895 15.9552 6.2840 0.8471
-44.6254 13.4607 7.1406 0.8281
-43.7309 11.5137 6.9276 0.8328
-42.7173 8.0564 6.6594 0.8387
-38.6360 -8.0040 6.0445 0.8524
-37.5113 -21.6733 6.6367 0.8392
-31.9686 -21.6351 5.9135 0.8554
-29.6398 -21.6323 5.6214 0.8620
-27.5177 -21.6219 5.3612 0.8680
-43.0004 21.8720 6.2823 0.8232
-46.1782 15.7386 6.3530 0.8214
-43.8596 13.2297 5.9656 0.8313
-43.4123 11.4298 5.8458 0.8344
-45.0591 10.1672 6.0152 0.8300
-39.6512 -6.7557 5.2378 0.8502
-21.9036 -7.0362 2.9959 0.9114
-21.7347 -7.8438 3.0090 0.9110
-21.2937 -8.5508 2.9881 0.9116
-20.5633 -9.1183 2.9292 0.9133
-37.5095 -21.6723 5.6412 0.8397
-34.5854 -21.6563 5.3138 0.8482
-36.9561 27.9849 4.9778 0.8299
-36.8459 25.8955 4.8360 0.8343
-38.4060 25.0030 4.9211 0.8316
-42.1036 25.3283 5.2762 0.8206
-45.5109 17.3382 5.2297 0.8221
-42.1805 12.7232 4.7310 0.8376
-38.9854 -6.6423 4.2466 0.8529
-38.8799 -8.0545 4.2636 0.8524
-37.9666 -9.2827 4.1970 0.8545
-21.6741 -6.9625 2.4445 0.9125
-21.7861 -8.7486 2.5210 0.9099
-20.4574 -9.0713 2.4030 0.9139
-44.6381 -21.7220 5.3307 0.8190
-36.0149 29.3413 3.9325 0.8299
-35.9310 27.2087 3.8153 0.8345
-37.0733 24.1354 3.7448 0.8373
-40.4822 24.3529 3.9992 0.8273
-38.8787 -6.6241 3.3386 0.8536
-38.9128 -8.0613 3.3640 0.8525
-37.6247 -9.1991 3.2789 0.8560
-21.7045 -6.9723 1.9298 0.9125
-21.6756 -7.8225 1.9507 0.9116
-20.3532 -9.0251 1.8847 0.9145
-40.7993 -21.6785 3.9110 0.8307
-37.5061 -21.6704 3.6668 0.8404
-34.5801 -21.6529 3.4538 0.8489
-31.9662 -21.6334 3.2675 0.8565
-29.6322 -21.6267 3.1055 0.8631
-35.5501 26.9202 2.7652 0.8363
-35.5690 24.9981 2.6959 0.8401
-36.6562 23.8638 2.7123 0.8392
-39.7178 23.8931 2.8742 0.8305
-38.4704 -6.5545 2.4199 0.8552
-38.7996 -8.0379 2.4571 0.8532
-37.3653 -9.1356 2.3853 0.8571
-21.2038 -7.6522 1.3979 0.9136
-21.8843 -8.7880 1.4624 0.9098
-40.8007 -21.6792 2.8650 0.8310
-34.5774 -21.6513 2.5298 0.8492
-29.6296 -21.6249 2.2746 0.8633
-27.5087 -21.6148 2.1694 0.8692
-30.4274 23.0411 1.5050 0.8583
-32.4425 22.8008 1.5636 0.8532
-43.4551 24.0826 1.9590 0.8196
-21.6425 -7.8105 0.9073 0.9120
-44.6234 -21.7148 1.9568 0.8198
-40.8021 -21.6799 1.8219 0.8311
-37.5027 -21.6684 1.7079 0.8408
-28.9616 23.5950 0.6310 0.8612
-30.0441 22.7509 0.6366 0.8600
-42.3922 23.4935 0.8187 0.8237
-20.8080 -8.3558 0.3788 0.9142
-40.8035 -21.6807 0.7805 0.8312
-29.6246 -21.6212 0.6195 0.8635
-27.5042 -21.6113 0.5909 0.8694
-8.0161 6.5308 -0.0582 0.9595
-8.6211 6.5284 -0.0609 0.9577
-9.2850 6.5257 -0.0639 0.9556
-10.0191 6.5227 -0.0673 0.9533
-11.7800 6.5285 -0.0758 0.9476
-21.2280 6.4032 -0.1248 0.9151
-24.5913 6.4746 -0.1432 0.9033
-28.6063 6.4549 -0.1651 0.8893
-41.8398 6.3617 -0.2383 0.8443
-38.7120 -8.0197 -0.2226 0.8537
-21.7847 -7.8618 -0.1304 0.9115
-21.6353 -8.6880 -0.1313 0.9110
-37.4994 -21.6665 -0.2438 0.8409
-34.5694 -21.6463 -0.2296 0.8495
-31.9630 -21.6312 -0.2173 0.8569
-29.6221 -21.6194 -0.2065 0.8636
-8.6211 6.5284 -0.3045 0.9576
-9.2851 6.5257 -0.3196 0.9556
-10.6989 6.4362 -0.3516 0.9513
-12.8267 6.5243 -0.4052 0.9440
-14.0288 6.5195 -0.4356 0.9400
-17.0719 6.5039 -0.5144 0.9295
-19.0593 6.4959 -0.5670 0.9226
-21.2284 6.4033 -0.6243 0.9151
-34.0949 6.4303 -0.9770 0.8704
-38.6479 -8.0065 -1.1113 0.8539
-34.5668 -21.6446 -1.1484 0.8494
-8.0162 6.5309 -0.5244 0.9594
-8.6212 6.5285 -0.5484 0.9576
-10.0193 6.5228 -0.6063 0.9532
-12.8268 6.5244 -0.7298 0.9440
-17.0721 6.5040 -0.9265 0.9294
-21.2287 6.4034 -1.1245 0.9150
-28.6076 6.4552 -1.4873 0.8892
-34.0958 6.4305 -1.7596 0.8703
-40.7095 4.7178 -2.0784 0.8486
-43.5056 3.4817 -2.2134 0.8396
-43.6129 1.9352 -2.2140 0.8396
-43.6717 0.3854 -2.2149 0.8395
-43.6818 -1.1662 -2.2161 0.8394
-43.6430 -2.7184 -2.2176 0.8393
-43.5555 -4.2700 -2.2195 0.8392
-43.4189 -5.8197 -2.2216 0.8391
-42.7154 -10.4437 -2.2301 0.8385
-42.0019 -13.4925 -2.2373 0.8380
-40.5658 -17.9879 -2.2504 0.8372
-39.9902 -19.4602 -2.2554 0.8368
-37.5017 -19.9263 -2.1537 0.8436
-34.5641 -21.6429 -2.0682 0.8493
-27.4975 -21.6061 -1.7735 0.8693
-8.6212 6.5285 -0.7929 0.9576
-14.0291 6.5196 -1.1343 0.9398
-15.4280 6.5140 -1.2279 0.9350
-21.2290 6.4035 -1.6258 0.9149
-29.8416 4.5374 -2.2132 0.8860
-31.2021 2.4971 -2.2951 0.8820
-31.3155 0.2764 -2.2962 0.8820
-31.3179 -0.8361 -2.2971 0.8819
-31.2137 -3.0601 -2.2996 0.8818
-30.9644 -5.2756 -2.3031 0.8816
-28.9105 -5.9892 -2.1648 0.8883
-28.4726 -8.0429 -2.1694 0.8881
-28.2029 -9.0598 -2.1720 0.8880
-21.7266 -7.8408 -1.6936 0.9115
-28.9567 -12.8401 -2.3225 0.8807
-28.5277 -13.8822 -2.3262 0.8805
-27.5651 -15.9267 -2.3342 0.8801
-26.4654 -17.9107 -2.3431 0.8797
-25.8650 -18.8773 -2.3479 0.8795
-8.0163 6.5310 -0.9927 0.9593
-9.2854 6.5259 -1.0896 0.9554
-10.0194 6.5229 -1.1478 0.9531
-11.7805 6.5287 -1.2930 0.9473
-12.8271 6.5245 -1.3816 0.9438
-19.0601 6.4962 -1.9332 0.9223
-22.1548 5.8330 -2.1995 0.9120
-22.3422 5.0413 -2.1989 0.9121
-24.1053 3.6652 -2.3408 0.9067
-24.2198 2.8069 -2.3408 0.9067
-24.3621 -1.5175 -2.3434 0.9066
-24.3042 -2.3827 -2.3445 0.9065
-24.2175 -3.2460 -2.3458 0.9065
-23.9579 -4.9632 -2.3489 0.9064
-21.6850 -7.8258 -2.2133 0.9115
-21.4215 -8.6022 -2.2162 0.9114
-22.4972 -9.9758 -2.3627 0.9058
-22.1560 -10.7817 -2.3656 0.9057
-21.7875 -11.5767 -2.3686 0.9056
-20.9697 -13.1306 -2.3753 0.9054
-20.5211 -13.8878 -2.3789 0.9052
-20.0464 -14.6307 -2.3826 0.9051
-19.5461 -15.3583 -2.3865 0.9049
-9.2854 6.5259 -1.3481 0.9553
-10.0195 6.5230 -1.4202 0.9530
-10.6993 6.4365 -1.4832 0.9509
-14.0294 6.5198 -1.8377 0.9396
-18.1286 4.7730 -2.2268 0.9273
-19.4685 4.3929 -2.3707 0.9228
-19.6092 3.6983 -2.3704 0.9228
-19.7265 2.9994 -2.3702 0.9228
-19.8203 2.2970 -2.3701 0.9228
-19.9593 0.1762 -2.3710 0.9227
-19.9579 -0.5328 -2.3716 0.9227
-19.8107 -2.6553 -2.3743 0.9226
-19.4496 -4.7553 -2.3784 0.9225
-19.2820 -5.4468 -2.3801 0.9225
-17.5043 -7.0292 -2.2407 0.9268
-16.9945 -8.2699 -2.2450 0.9267
-17.4640 -10.0904 -2.3959 0.9220
-17.1148 -10.7168 -2.3987 0.9219
-16.7439 -11.3316 -2.4016 0.9218
-16.3519 -11.9343 -2.4047 0.9217
-8.0165 6.5311 -1.4651 0.9591
-8.6215 6.5287 -1.5323 0.9573
-10.0196 6.5231 -1.6940 0.9528
-10.6994 6.4365 -1.7692 0.9508
-14.6210 6.1732 -2.2487 0.9379
-15.3242 4.6223 -2.2679 0.9374
-16.3221 4.2974 -2.3915 0.9341
-16.4615 3.7144 -2.3911 0.9341
-16.8188 1.3460 -2.3907 0.9341
-16.8576 0.7480 -2.3909 0.9341
-16.8762 0.1489 -2.3913 0.9341
-16.8744 -0.4505 -2.3918 0.9341
-16.8098 -1.6480 -2.3932 0.9340
-16.7470 -2.2447 -2.3941 0.9340
-16.6639 -2.8392 -2.3951 0.9340
-16.4373 -4.0189 -2.3976 0.9339
-16.1306 -5.1818 -2.4006 0.9338
-15.9476 -5.7553 -2.4022 0.9338
-14.7861 -5.9376 -2.2576 0.9377
-13.5653 -8.4942 -2.2678 0.9374
-13.2688 -8.9798 -2.2701 0.9373
-13.7958 -10.0687 -2.4200 0.9333
-13.4446 -10.5641 -2.4227 0.9333
-10.6995 6.4366 -2.0570 0.9506
-12.6515 5.3417 -2.2624 0.9458
-13.5477 4.6174 -2.3579 0.9436
-13.9879 4.2193 -2.4069 0.9425
-14.2469 3.2147 -2.4060 0.9425
-14.3505 2.7065 -2.4058 0.9425
-14.5054 1.6810 -2.4056 0.9425
-14.5565 1.1649 -2.4057 0.9425
-14.5899 0.6474 -2.4059 0.9425
-14.6037 -0.3899 -2.4067 0.9425
-14.5840 -0.9084 -2.4072 0.9425
-14.5466 -1.4261 -2.4079 0.9425
-14.4915 -1.9424 -2.4087 0.9424
-14.4188 -2.4566 -2.4096 0.9424
-13.9531 -4.4822 -2.4143 0.9423
-13.7935 -4.9779 -2.4158 0.9423
-13.6169 -5.4681 -2.4173 0.9422
-13.1705 -5.8401 -2.3734 0.9433
-12.1957 -6.4801 -2.2751 0.9456
-11.9677 -6.9147 -2.2770 0.9455
-8.0166 6.5312 -1.9436 0.9588
-8.6216 6.5288 -2.0327 0.9569
-10.5888 5.8683 -2.2755 0.9519
-11.1398 4.7034 -2.2728 0.9520
-12.3178 3.7155 -2.4183 0.9490
-12.6378 2.3835 -2.4173 0.9490
-12.7743 1.4804 -2.4171 0.9490
-12.8486 0.5701 -2.4174 0.9490
-12.8603 -0.3433 -2.4181 0.9490
-12.6956 -2.1631 -2.4207 0.9489
-12.5199 -3.0611 -2.4226 0.9489
-12.4089 -3.5053 -2.4237 0.9489
-12.2827 -3.9456 -2.4249 0.9488
-11.9849 -4.8127 -2.4275 0.9488
-10.9851 -5.8368 -2.3381 0.9506
-10.5295 -6.0838 -2.2857 0.9517
-10.3146 -6.4587 -2.2875 0.9517
-10.0867 -6.8263 -2.2893 0.9516
-9.8461 -7.1860 -2.2911 0.9516
-9.5929 -7.5376 -2.2931 0.9516
-8.0167 6.5313 -2.1857 0.9586
-8.6285 6.5340 -2.2878 0.9567
-9.2608 5.5711 -2.2845 0.9568
-9.4488 5.2365 -2.2835 0.9568
-9.9969 4.6457 -2.3302 0.9559
-10.7356 4.0899 -2.4284 0.9541
-10.9940 3.3162 -2.4273 0.9541
-11.1985 2.5269 -2.4266 0.9541
-11.3482 1.7255 -2.4263 0.9542
-11.4021 1.3214 -2.4263 0.9542
-11.4421 0.9157 -2.4264 0.9542
-11.4682 0.5089 -2.4265 0.9542
-11.4803 0.1013 -2.4268 0.9541
-11.4783 -0.3064 -2.4271 0.9541
-11.4622 -0.7140 -2.4276 0.9541
-11.4322 -1.1208 -2.4281 0.9541
-11.3881 -1.5264 -2.4287 0.9541
-11.1723 -2.7316 -2.4312 0.9541
-10.8326 -3.9094 -2.4344 0.9540
-10.6925 -4.2937 -2.4356 0.9540
-10.1928 -5.4159 -2.4398 0.9539
-9.3143 -5.8323 -2.3230 0.9561
-8.9949 -6.0874 -2.2958 0.9566
-8.5529 -6.7205 -2.2993 0.9565
-7.9818 5.6096 -2.2929 0.9607
-8.5226 4.7232 -2.2900 0.9608
-9.1180 4.6378 -2.4042 0.9588
-9.8072 3.3425 -2.4351 0.9583
-10.0165 2.6372 -2.4343 0.9583
-10.1764 1.9193 -2.4339 0.9583
-10.2865 1.1921 -2.4337 0.9583
-10.3461 0.4591 -2.4340 0.9583
-10.3549 -0.2764 -2.4345 0.9583
-10.2729 -1.3769 -2.4360 0.9583
-10.2202 -1.7413 -2.4366 0.9583
-10.1550 -2.1037 -2.4373 0.9583
-10.0772 -2.4638 -2.4381 0.9583
-9.9870 -2.8211 -2.4390 0.9583
-9.8844 -3.1752 -2.4400 0.9582
-9.7696 -3.5257 -2.4410 0.9582
-9.6427 -3.8722 -2.4422 0.9582
-9.3530 -4.5514 -2.4446 0.9582
-9.1905 -4.8833 -2.4460 0.9581
-9.0165 -5.2096 -2.4474 0.9581
-7.9835 -5.8266 -2.3229 0.9602
-7.2614 5.1034 -2.2980 0.9640
-7.7442 4.6587 -2.3400 0.9633
-8.5560 3.9761 -2.4428 0.9618
-8.9243 3.0416 -2.4412 0.9618
-9.0252 2.7223 -2.4408 0.9618
-9.1935 2.0744 -2.4402 0.9618
-9.3608 1.0848 -2.4399 0.9618
-9.4247 0.0832 -2.4403 0.9618
-9.4229 -0.2516 -2.4406 0.9618
-9.3844 -0.9200 -2.4414 0.9618
-9.3477 -1.2529 -2.4419 0.9618
-9.2400 -1.9142 -2.4432 0.9618
-8.5079 -4.1402 -2.4498 0.9617
-8.0321 -5.0294 -2.4537 0.9616
-7.6638 -5.5934 -2.4566 0.9616
-6.3104 5.1411 -2.3042 0.9667
-7.1415 4.6493 -2.4124 0.9652
-7.5671 4.1936 -2.4491 0.9647
-7.7090 3.9211 -2.4484 0.9647
-7.8413 3.6440 -2.4478 0.9647
-8.2719 2.4951 -2.4459 0.9647
-8.4262 1.9013 -2.4454 0.9647
-8.5391 1.2984 -2.4451 0.9647
-8.5798 0.9943 -2.4451 0.9647
-8.6099 0.6890 -2.4452 0.9647
-8.6293 0.3829 -2.4453 0.9647
-8.6382 0.0762 -2.4455 0.9647
-8.6239 -0.5372 -2.4461 0.9647
-8.6008 -0.8432 -2.4465 0.9647
-8.5228 -1.4521 -2.4475 0.9647
-8.4680 -1.7543 -2.4481 0.9647
-8.4027 -2.0544 -2.4488 0.9647
-8.3270 -2.3522 -2.4496 0.9647
-8.2409 -2.6473 -2.4504 0.9647
-8.0382 -3.2279 -2.4522 0.9646
-7.9217 -3.5127 -2.4532 0.9646
-7.6593 -4.0697 -2.4554 0.9646
-7.5135 -4.3412 -2.4565 0.9646
-5.8170 4.7391 -2.3078 0.9691
-6.8368 4.1128 -2.4540 0.9672
-7.3427 3.1002 -2.4515 0.9672
-7.5416 2.5703 -2.4507 0.9672
-7.6271 2.3006 -2.4503 0.9672
-7.7030 2.0281 -2.4500 0.9672
-7.7696 1.7531 -2.4498 0.9672
-7.9112 0.9168 -2.4496 0.9672
-7.9302 -0.7775 -2.4509 0.9672
-7.8990 -1.0587 -2.4513 0.9672
-7.6770 -2.1686 -2.4537 0.9672
-7.5974 -2.4406 -2.4544 0.9672
-7.3025 -3.2381 -2.4570 0.9671
-7.1858 -3.4968 -2.4580 0.9671
-7.0601 -3.7513 -2.4590 0.9671
-6.9255 -4.0014 -2.4601 0.9671
-6.6303 -4.4871 -2.4625 0.9671
-6.3017 -4.9515 -2.4650 0.9670
-6.3353 3.8111 -2.4576 0.9693
-6.4649 3.5828 -2.4569 0.9693
-6.9012 2.6291 -2.4548 0.9694
-7.0684 2.1321 -2.4541 0.9694
-7.2533 1.3680 -2.4535 0.9694
-7.3575 0.5888 -2.4535 0.9694
-7.3816 0.0651 -2.4538 0.9694
-7.3799 -0.1970 -2.4540 0.9694
-7.3691 -0.4590 -2.4543 0.9694
-7.3493 -0.7205 -2.4546 0.9694
-7.2350 -1.4988 -2.4560 0.9693
-6.7663 -3.0003 -2.4604 0.9693
-6.6579 -3.2399 -2.4613 0.9693
-6.2833 -3.9344 -2.4643 0.9692
-6.1425 -4.1570 -2.4654 0.9692
-5.9938 -4.3745 -2.4666 0.9692
-5.8375 -4.5868 -2.4678 0.9692
-5.3411 4.3514 -2.4637 0.9712
-5.6329 3.9588 -2.4621 0.9712
-5.7681 3.7552 -2.4613 0.9712
-5.8962 3.5470 -2.4607 0.9712
-6.3335 2.6741 -2.4585 0.9712
-6.5053 2.2172 -2.4578 0.9712
-6.7514 1.2733 -2.4569 0.9712
-6.7922 1.0327 -2.4569 0.9712
-6.8692 -0.1834 -2.4574 0.9712
-6.8591 -0.4272 -2.4576 0.9712
-6.6817 -1.6336 -2.4598 0.9712
-6.6210 -1.8703 -2.4604 0.9712
-6.4751 -2.3368 -2.4617 0.9712
-6.2969 -2.7922 -2.4633 0.9712
-6.1959 -3.0151 -2.4641 0.9712
-5.9707 -3.4498 -2.4660 0.9711
-5.8468 -3.6611 -2.4669 0.9711
-5.5770 -4.0703 -2.4691 0.9711
-5.4314 -4.2677 -2.4702 0.9711
-5.2621 3.6982 -2.4647 0.9728
-5.3886 3.5081 -2.4640 0.9728
-5.6212 3.1152 -2.4628 0.9728
-6.0012 2.2863 -2.4610 0.9729
-6.0778 2.0715 -2.4607 0.9729
-6.1468 1.8541 -2.4604 0.9729
-6.3460 0.9649 -2.4598 0.9729
-6.4193 0.0567 -2.4601 0.9729
-6.4179 -0.1713 -2.4603 0.9729
-6.3909 -0.6265 -2.4609 0.9729
-6.3656 -0.8532 -2.4612 0.9729
-6.2911 -1.3033 -2.4621 0.9729
-6.1210 -1.9663 -2.4637 0.9728
-6.0489 -2.1830 -2.4644 0.9728
-5.9693 -2.3971 -2.4651 0.9728
-5.7877 -2.8165 -2.4666 0.9728
-5.6860 -3.0212 -2.4675 0.9728
-5.5771 -3.2224 -2.4684 0.9728
-5.3384 -3.6128 -2.4702 0.9728
-5.2089 -3.8017 -2.4713 0.9728
-4.6759 3.8095 -2.4685 0.9743
-4.8069 3.6400 -2.4678 0.9743
-5.1628 3.1058 -2.4659 0.9743
-5.2686 2.9198 -2.4653 0.9743
-5.3679 2.7304 -2.4648 0.9743
-5.4605 2.5376 -2.4644 0.9743
-5.6251 2.1430 -2.4636 0.9743
-5.6969 1.9416 -2.4633 0.9743
-5.7617 1.7379 -2.4630 0.9743
-5.8696 1.3244 -2.4627 0.9743
-5.9767 0.6927 -2.4625 0.9743
-6.0068 -0.3742 -2.4632 0.9743
-5.9904 -0.5873 -2.4635 0.9743
-5.9665 -0.7997 -2.4638 0.9743
-5.8967 -1.2216 -2.4646 0.9743
-5.8507 -1.4305 -2.4651 0.9743
-5.7974 -1.6377 -2.4656 0.9743
-5.7370 -1.8429 -2.4662 0.9743
-5.5946 -2.2466 -2.4674 0.9743
-5.5128 -2.4445 -2.4681 0.9743
-5.4242 -2.6395 -2.4689 0.9743
-5.3287 -2.8314 -2.4697 0.9743
-5.1179 -3.2046 -2.4714 0.9742
-4.7535 -3.7350 -2.4742 0.9742
-4.3948 3.5805 -2.4705 0.9756
-5.2133 2.2011 -2.4663 0.9756
-5.4160 1.6337 -2.4654 0.9756
-5.5175 1.2450 -2.4651 0.9756
-5.6182 0.6511 -2.4649 0.9756
-5.6378 0.4512 -2.4649 0.9756
-5.6561 0.0499 -2.4651 0.9756
-5.6547 -0.1510 -2.4653 0.9756
-5.6309 -0.5520 -2.4658 0.9756
-5.5790 -0.9505 -2.4665 0.9756
-5.5426 -1.1482 -2.4669 0.9756
-5.4994 -1.3446 -2.4673 0.9756
-5.0980 -2.4808 -2.4709 0.9756
-5.0082 -2.6611 -2.4716 0.9756
-4.9121 -2.8381 -2.4724 0.9756
-4.7014 -3.1817 -2.4741 0.9755
-4.5871 -3.3479 -2.4750 0.9755
-4.1409 3.3736 -2.4724 0.9767
-4.2570 3.2236 -2.4717 0.9767
-4.4729 2.9120 -2.4706 0.9767
-4.5726 2.7507 -2.4700 0.9768
-4.7545 2.4183 -2.4691 0.9768
-4.9825 1.8982 -2.4680 0.9768
-5.1036 1.5395 -2.4675 0.9768
-5.2375 0.9878 -2.4671 0.9768
-5.2692 0.8012 -2.4671 0.9768
-5.3247 0.2363 -2.4672 0.9768
-5.3287 -0.1423 -2.4674 0.9768
-5.2229 -1.0820 -2.4689 0.9768
-5.1820 -1.2670 -2.4693 0.9768
-5.1347 -1.4505 -2.4698 0.9768
-5.0810 -1.6322 -2.4703 0.9768
-4.9546 -1.9896 -2.4714 0.9767
-4.8821 -2.1648 -2.4721 0.9767
-4.8034 -2.3375 -2.4727 0.9767
-4.4295 -2.9977 -2.4757 0.9767
-4.2084 -3.3068 -2.4774 0.9767
-3.9102 3.1857 -2.4740 0.9778
-4.0199 3.0441 -2.4734 0.9778
-4.1245 2.8987 -2.4729 0.9778
-4.2239 2.7499 -2.4723 0.9778
-4.4067 2.4422 -2.4714 0.9778
-4.4899 2.2838 -2.4710 0.9778
-4.6394 1.9588 -2.4702 0.9778
-4.8681 1.2817 -2.4693 0.9778
-4.9464 0.9329 -2.4691 0.9778
-4.9762 0.7566 -2.4690 0.9778
-5.0000 0.5794 -2.4690 0.9778
-5.0174 0.4015 -2.4690 0.9778
-5.0287 0.2231 -2.4691 0.9778
-5.0324 -0.1344 -2.4694 0.9778
-5.0249 -0.3130 -2.4696 0.9778
-4.9323 -1.0218 -2.4708 0.9778
-4.7414 -1.7111 -2.4726 0.9778
-4.6788 -1.8788 -2.4732 0.9778
-4.6102 -2.0443 -2.4737 0.9778
-4.5358 -2.2072 -2.4744 0.9778
-4.3701 -2.5250 -2.4757 0.9778
-4.2789 -2.6793 -2.4764 0.9778
-4.1824 -2.8305 -2.4772 0.9778
-4.0805 -2.9781 -2.4780 0.9777
-3.6996 3.0140 -2.4756 0.9787
-3.9965 2.6018 -2.4739 0.9787
-4.2483 2.1609 -2.4727 0.9788
-4.3897 1.8534 -2.4720 0.9788
-4.4523 1.6962 -2.4717 0.9788
-4.5093 1.5369 -2.4714 0.9788
-4.6063 1.2128 -2.4711 0.9788
-4.6462 1.0484 -2.4710 0.9788
-4.6803 0.8827 -2.4709 0.9788
-4.7476 0.3799 -2.4708 0.9788
-4.7582 0.2111 -2.4709 0.9788
-4.7629 0.0420 -2.4710 0.9788
-4.7546 -0.2962 -2.4713 0.9788
-4.7415 -0.4648 -2.4716 0.9788
-4.5879 -1.2960 -2.4733 0.9787
-4.5398 -1.4584 -2.4737 0.9787
-4.4861 -1.6190 -2.4742 0.9787
-4.3617 -1.9341 -2.4753 0.9787
-4.2914 -2.0883 -2.4759 0.9787
-4.2156 -2.2399 -2.4765 0.9787
-4.0481 -2.5348 -2.4778 0.9787
-3.9567 -2.6778 -2.4786 0.9787
-3.8603 -2.8174 -2.4793 0.9787
-3.7590 -2.9536 -2.4801 0.9787
-3.5061 2.8565 -2.4770 0.9796
-3.6046 2.7296 -2.4764 0.9796
-3.7877 2.4659 -2.4754 0.9796
-3.8722 2.3294 -2.4750 0.9796
-3.9518 2.1901 -2.4746 0.9796
-4.0961 1.9035 -2.4739 0.9796
-4.2199 1.6076 -2.4733 0.9796
-4.3659 1.1495 -2.4727 0.9796
-4.4037 0.9937 -2.4726 0.9796
-4.4629 0.6786 -2.4725 0.9796
-4.4999 0.3601 -2.4725 0.9796
-4.5144 0.0398 -2.4727 0.9796
-4.4940 -0.4406 -2.4732 0.9796
-4.4524 -0.7586 -2.4737 0.9796
-4.4232 -0.9163 -2.4740 0.9796
-4.3885 -1.0730 -2.4744 0.9796
-4.3483 -1.2283 -2.4748 0.9796
-4.3027 -1.3822 -2.4752 0.9796
-4.1954 -1.6847 -2.4762 0.9796
-4.0670 -1.9791 -2.4773 0.9796
-3.9182 -2.2639 -2.4785 0.9796
-3.8364 -2.4022 -2.4791 0.9796
-3.7496 -2.5376 -2.4798 0.9796
-3.6583 -2.6699 -2.4805 0.9796
-3.5104 2.4672 -2.4773 0.9804
-4.0569 1.3827 -2.4746 0.9804
-4.1802 0.9432 -2.4741 0.9804
-4.2109 0.7942 -2.4740 0.9804
-4.2363 0.6441 -2.4740 0.9804
-4.2810 0.1900 -2.4741 0.9804
-4.2852 0.0378 -2.4742 0.9804
-4.2841 -0.1144 -2.4743 0.9804
-4.2487 -0.5695 -2.4749 0.9804
-4.2262 -0.7201 -2.4752 0.9804
-4.1985 -0.8698 -2.4755 0.9804
-4.0840 -1.3119 -2.4766 0.9804
-3.8602 -1.8784 -2.4785 0.9804
-3.7919 -2.0148 -2.4791 0.9804
-3.5587 -2.4084 -2.4810 0.9803
-3.4720 -2.5340 -2.4816 0.9803
