ply
format ascii 1.0
element vertex 557
property float32 x
property float32 y
property float32 z
property float32 I
end_header
44.5588 -20.9413 8.6814 0.8188
43.5770 -18.6001 8.3545 0.8249
45.3055 -8.6163 8.1318 0.8292
47.8565 -7.3318 8.5368 0.8215
47.8729 -5.5836 8.4985 0.8222
47.2306 -3.7957 8.3549 0.8249
45.5364 1.2548 8.0323 0.8311
45.1743 6.1493 8.0389 0.8310
48.0060 8.3002 8.5903 0.8205
47.2351 9.9258 8.5107 0.8220
44.3052 10.9849 8.0487 0.8308
46.1814 13.2272 8.4705 0.8227
31.4237 -25.9741 6.2456 0.8479
46.4641 -15.9979 7.5281 0.8197
46.4802 -14.1583 7.4435 0.8215
46.5276 -8.8487 7.2555 0.8256
46.6223 1.2847 7.1450 0.8280
46.6385 2.9639 7.1592 0.8277
46.6550 4.6518 7.1827 0.8272
46.6889 8.0725 7.2586 0.8255
46.7064 9.8147 7.3114 0.8244
46.7428 13.3880 7.4487 0.8214
46.7619 15.2303 7.5340 0.8195
31.5559 -37.4276 6.3750 0.8208
31.4942 -32.3293 5.8774 0.8336
31.4668 -30.0618 5.6670 0.8390
31.4413 -27.9484 5.4781 0.8439
31.4175 -25.9690 5.3079 0.8484
34.6669 -24.6920 5.5424 0.8422
37.9771 -25.0443 5.9239 0.8323
46.3627 -12.3218 6.2470 0.8241
46.3791 -10.5590 6.1941 0.8254
46.7105 -8.8834 6.1917 0.8255
48.6153 -5.6701 6.3736 0.8208
48.6320 -3.9084 6.3533 0.8214
48.6486 -2.1555 6.3413 0.8217
48.6653 -0.4071 6.3375 0.8218
48.6988 3.0948 6.3544 0.8213
48.7157 4.8573 6.3753 0.8208
46.6554 9.8043 6.2082 0.8251
46.5904 11.5515 6.2507 0.8240
46.6260 15.1860 6.3856 0.8205
31.5486 -37.4188 5.2556 0.8213
31.5168 -34.7671 5.0390 0.8280
31.4603 -30.0556 4.6721 0.8394
31.4114 -25.9640 4.3761 0.8488
31.7536 -24.3819 4.2990 0.8512
31.5413 -37.4102 4.1423 0.8217
31.4538 -30.0494 3.6824 0.8398
31.4053 -25.9589 3.4492 0.8491
31.7534 -24.3817 3.3890 0.8515
47.1828 15.3674 4.2007 0.8194
31.5340 -37.4015 3.0336 0.8220
31.5028 -34.7517 2.9086 0.8286
31.4740 -32.3085 2.7970 0.8346
31.4225 -27.9317 2.6071 0.8449
31.7532 -24.3815 2.4825 0.8518
34.6661 -24.6915 2.6392 0.8432
31.4958 -34.7440 1.8491 0.8288
31.4409 -30.0370 1.7146 0.8402
31.4163 -27.9262 1.6574 0.8451
31.5195 -37.3843 0.8260 0.8223
31.4889 -34.7363 0.7920 0.8290
31.4606 -32.2948 0.7616 0.8350
31.4101 -27.9207 0.7099 0.8452
31.3873 -25.9440 0.6879 0.8497
31.7527 -24.3811 0.6762 0.8520
34.6656 -24.6911 0.7189 0.8434
37.9755 -25.0432 0.7684 0.8336
41.7800 -25.4480 0.8264 0.8223
44.3669 -20.8512 0.8281 0.8219
44.5465 -1.9738 0.7532 0.8366
31.5122 -37.3757 -0.2753 0.8224
31.4540 -32.2880 -0.2538 0.8350
31.4280 -30.0247 -0.2447 0.8404
31.3812 -25.9390 -0.2292 0.8497
34.6653 -24.6909 -0.2396 0.8435
37.9751 -25.0430 -0.2561 0.8336
41.7796 -25.4478 -0.2754 0.8223
44.3598 -20.8479 -0.2760 0.8220
31.3753 -25.9341 -1.1462 0.8497
31.7522 -24.3808 -1.1272 0.8520
34.6650 -24.6907 -1.1984 0.8434
41.7793 -25.4476 -1.3775 0.8222
37.7337 -14.5275 -1.1385 0.8506
37.7386 -12.9937 -1.1239 0.8524
37.7435 -11.4970 -1.1110 0.8539
37.7529 -8.5951 -1.0902 0.8565
37.7620 -5.7853 -1.0757 0.8582
37.7664 -4.4048 -1.0706 0.8589
37.7752 -1.6738 -1.0647 0.8596
37.7796 -0.3161 -1.0638 0.8597
37.7839 1.0412 -1.0643 0.8596
37.7969 5.1451 -1.0741 0.8584
37.8013 6.5358 -1.0802 0.8577
37.8103 9.3746 -1.0969 0.8557
31.4681 -34.7133 -2.3761 0.8289
31.4406 -32.2743 -2.2850 0.8349
31.3692 -25.9291 -2.0640 0.8496
31.7520 -24.3806 -2.0302 0.8519
34.6647 -24.6905 -2.1583 0.8433
37.9745 -25.0426 -2.3069 0.8334
37.7225 -16.1013 -2.0800 0.8485
37.7473 -8.5938 -1.9633 0.8564
37.7518 -7.1797 -1.9489 0.8573
37.7740 -0.3160 -1.9157 0.8596
37.7784 1.0410 -1.9166 0.8595
37.7870 3.7676 -1.9258 0.8589
37.7913 5.1443 -1.9342 0.8583
37.8001 7.9431 -1.9589 0.8567
37.8046 9.3731 -1.9753 0.8556
37.8091 10.8292 -1.9946 0.8543
37.8137 12.3159 -2.0168 0.8528
20.2658 -30.0886 -2.6599 0.8646
22.4840 -28.6984 -2.6731 0.8640
24.5991 -27.1360 -2.6855 0.8634
28.4617 -23.5257 -2.7075 0.8623
29.3405 -22.5289 -2.7123 0.8621
29.5195 -21.0256 -2.6573 0.8647
29.5086 -19.4597 -2.5917 0.8678
30.4832 -17.0978 -2.5627 0.8692
31.1160 -16.0120 -2.5658 0.8691
31.7064 -14.9011 -2.5687 0.8689
33.9864 -9.0326 -2.5785 0.8685
34.3022 -7.8095 -2.5795 0.8684
34.9571 -4.0771 -2.5805 0.8684
35.1466 -1.5573 -2.5796 0.8684
35.1668 -0.2942 -2.5786 0.8684
35.1373 0.9682 -2.5773 0.8685
34.9295 3.4827 -2.5738 0.8687
34.5253 5.9694 -2.5690 0.8689
33.9286 8.4121 -2.5630 0.8692
33.5597 9.6121 -2.5596 0.8693
33.1448 10.7952 -2.5559 0.8695
14.3998 -23.1306 -2.6158 0.8963
16.0843 -22.1224 -2.6259 0.8959
16.8993 -21.5701 -2.6307 0.8957
17.6942 -20.9865 -2.6354 0.8956
21.3240 -17.6259 -2.6560 0.8948
24.2718 -13.6138 -2.6717 0.8942
25.2306 -11.8577 -2.6764 0.8940
25.6594 -10.9523 -2.6784 0.8939
26.0532 -10.0304 -2.6802 0.8939
26.7337 -8.1433 -2.6830 0.8938
27.4781 -5.2258 -2.6853 0.8937
27.6507 -4.2362 -2.6856 0.8937
27.8811 -2.2407 -2.6854 0.8937
27.8786 1.7716 -2.6819 0.8938
27.7816 2.7700 -2.6804 0.8939
27.4730 4.7501 -2.6767 0.8940
27.2621 5.7287 -2.6745 0.8941
26.4085 8.6012 -2.6664 0.8944
12.2149 -18.1354 -2.5973 0.9157
13.5252 -17.2634 -2.6051 0.9154
14.7703 -16.2935 -2.6123 0.9152
15.9423 -15.2304 -2.6190 0.9150
17.0338 -14.0797 -2.6251 0.9148
17.5471 -13.4734 -2.6279 0.9147
18.0377 -12.8476 -2.6306 0.9147
18.5048 -12.2031 -2.6330 0.9146
18.9477 -11.5409 -2.6353 0.9145
19.3655 -10.8619 -2.6375 0.9144
20.1233 -9.4574 -2.6412 0.9143
20.4622 -8.7339 -2.6428 0.9143
20.7734 -7.9978 -2.6442 0.9142
21.5374 -5.7240 -2.6472 0.9141
22.0383 -3.3764 -2.6484 0.9141
22.1455 -2.5829 -2.6484 0.9141
22.2688 -0.9867 -2.6478 0.9141
22.2707 0.6137 -2.6464 0.9142
22.2261 1.4124 -2.6455 0.9142
22.1512 2.2086 -2.6443 0.9142
22.0462 3.0010 -2.6429 0.9143
21.9113 3.7884 -2.6414 0.9143
21.5530 5.3438 -2.6377 0.9144
21.3301 6.1093 -2.6356 0.9145
21.0787 6.8653 -2.6333 0.9146
9.0433 -15.7610 -2.5747 0.9292
9.6163 -15.4468 -2.5781 0.9291
10.1780 -15.1112 -2.5815 0.9290
10.7275 -14.7546 -2.5847 0.9290
11.2642 -14.3775 -2.5879 0.9289
11.7870 -13.9802 -2.5909 0.9288
12.7884 -13.1274 -2.5967 0.9286
13.2653 -12.6729 -2.5994 0.9286
14.5923 -11.2046 -2.6068 0.9284
14.9978 -10.6824 -2.6089 0.9283
15.3837 -10.1449 -2.6110 0.9283
16.0946 -9.0273 -2.6146 0.9282
16.4184 -8.4487 -2.6163 0.9281
16.7205 -7.8581 -2.6177 0.9281
17.4914 -6.0224 -2.6211 0.9280
17.7019 -5.3922 -2.6220 0.9280
18.0513 -4.1097 -2.6231 0.9279
18.1895 -3.4593 -2.6235 0.9279
18.4562 -1.4833 -2.6235 0.9279
18.4954 -0.8195 -2.6232 0.9279
18.5095 -0.1548 -2.6227 0.9279
18.4985 0.5097 -2.6220 0.9280
18.4626 1.1733 -2.6212 0.9280
18.4018 1.8348 -2.6203 0.9280
18.0713 3.7974 -2.6164 0.9281
17.9124 4.4411 -2.6148 0.9282
7.7467 -13.5011 -2.5643 0.9388
8.7153 -12.9396 -2.5701 0.9387
9.1842 -12.6320 -2.5729 0.9386
9.6420 -12.3069 -2.5756 0.9386
10.5212 -11.6062 -2.5807 0.9385
10.9413 -11.2314 -2.5831 0.9384
11.3476 -10.8409 -2.5854 0.9384
14.0318 -7.2206 -2.5997 0.9380
14.2888 -6.7153 -2.6009 0.9380
14.7456 -5.6771 -2.6030 0.9380
14.9448 -5.1456 -2.6038 0.9379
15.2829 -4.0617 -2.6051 0.9379
15.4214 -3.5109 -2.6055 0.9379
15.5392 -2.9553 -2.6058 0.9379
15.6362 -2.3955 -2.6059 0.9379
15.7671 -1.2671 -2.6058 0.9379
15.8008 -0.7001 -2.6056 0.9379
15.7745 1.0024 -2.6039 0.9379
15.5581 2.6900 -2.6011 0.9380
15.4442 3.2454 -2.5998 0.9380
15.3098 3.7959 -2.5985 0.9381
7.6131 -11.3032 -2.5615 0.9460
8.0217 -11.0329 -2.5639 0.9460
8.4203 -10.7476 -2.5663 0.9459
8.8086 -10.4475 -2.5685 0.9459
9.1858 -10.1331 -2.5707 0.9459
9.5515 -9.8047 -2.5728 0.9458
10.2461 -9.1078 -2.5767 0.9457
10.5739 -8.7401 -2.5785 0.9457
11.1883 -7.9690 -2.5819 0.9456
11.4739 -7.5666 -2.5834 0.9456
11.7446 -7.1536 -2.5848 0.9456
11.9999 -6.7306 -2.5861 0.9455
12.8600 -4.9511 -2.5901 0.9455
13.0331 -4.4874 -2.5908 0.9454
13.1889 -4.0175 -2.5914 0.9454
13.4477 -3.0616 -2.5923 0.9454
13.5502 -2.5770 -2.5926 0.9454
13.6347 -2.0889 -2.5927 0.9454
13.7784 -0.6105 -2.5923 0.9454
13.7896 -0.1154 -2.5920 0.9454
13.7823 0.3798 -2.5915 0.9454
13.7566 0.8742 -2.5909 0.9454
13.4713 2.8308 -2.5874 0.9455
13.0694 4.2567 -2.5835 0.9456
6.3821 -10.2517 -2.5526 0.9518
7.1135 -9.7839 -2.5570 0.9517
8.7795 -8.3875 -2.5666 0.9516
9.3708 -7.7457 -2.5699 0.9515
10.6310 -5.9628 -2.5765 0.9514
10.8426 -5.5795 -2.5776 0.9514
11.0400 -5.1885 -2.5785 0.9514
11.2229 -4.7903 -2.5793 0.9513
11.3909 -4.3855 -2.5801 0.9513
11.6816 -3.5583 -2.5813 0.9513
11.8038 -3.1371 -2.5817 0.9513
11.9103 -2.7116 -2.5820 0.9513
12.0758 -1.8501 -2.5823 0.9513
12.1769 -0.9786 -2.5823 0.9513
12.2033 -0.5407 -2.5820 0.9513
12.0912 1.6460 -2.5794 0.9513
12.0206 2.0783 -2.5786 0.9513
11.7133 3.3549 -2.5755 0.9514
11.5797 3.7715 -2.5743 0.9514
5.3901 -9.3940 -2.5454 0.9565
5.7285 -9.2018 -2.5475 0.9564
6.0599 -8.9971 -2.5494 0.9564
6.3839 -8.7803 -2.5514 0.9564
6.6999 -8.5517 -2.5532 0.9563
7.0076 -8.3114 -2.5550 0.9563
7.8760 -7.5242 -2.5600 0.9562
8.4053 -6.9476 -2.5629 0.9562
8.6539 -6.6448 -2.5643 0.9562
9.1172 -6.0124 -2.5667 0.9561
9.7225 -5.0031 -2.5698 0.9561
9.8991 -4.6523 -2.5706 0.9561
10.0627 -4.2951 -2.5714 0.9560
10.8261 -1.6586 -2.5741 0.9560
10.8787 -1.2688 -2.5741 0.9560
10.9169 -0.8773 -2.5740 0.9560
10.9406 -0.4848 -2.5738 0.9560
10.8414 1.4758 -2.5715 0.9560
10.7783 1.8636 -2.5707 0.9561
10.5041 3.0085 -2.5679 0.9561
10.3848 3.3823 -2.5669 0.9561
4.8849 -8.5135 -2.5414 0.9603
5.7843 -7.9556 -2.5467 0.9602
6.0702 -7.7479 -2.5484 0.9601
6.3485 -7.5297 -2.5500 0.9601
6.8807 -7.0632 -2.5531 0.9601
7.1339 -6.8154 -2.5545 0.9601
7.6126 -6.2923 -2.5572 0.9600
7.8374 -6.0178 -2.5584 0.9600
8.0520 -5.7351 -2.5596 0.9600
8.2562 -5.4446 -2.5606 0.9600
8.4497 -5.1466 -2.5616 0.9599
8.6321 -4.8417 -2.5626 0.9599
8.8033 -4.5301 -2.5634 0.9599
9.1108 -3.8888 -2.5648 0.9599
9.2468 -3.5600 -2.5654 0.9599
9.8011 -1.5016 -2.5673 0.9599
3.8861 -0.4533 -1.0130 0.9840
3.8460 -0.3091 -0.9990 0.9842
3.8482 -0.0322 -0.9964 0.9842
3.8541 0.2449 -0.9999 0.9842
3.9605 0.3949 -1.0305 0.9837
9.6067 2.3819 -2.5627 0.9599
4.4618 -7.7761 -2.5380 0.9634
5.7970 -6.8755 -2.5459 0.9633
6.2823 -6.4488 -2.5487 0.9633
6.5131 -6.2223 -2.5500 0.9632
6.7356 -5.9873 -2.5512 0.9632
6.9495 -5.7442 -2.5524 0.9632
7.3500 -5.2351 -2.5546 0.9632
7.5361 -4.9697 -2.5556 0.9632
7.7125 -4.6976 -2.5565 0.9632
7.8787 -4.4191 -2.5573 0.9631
8.0348 -4.1346 -2.5581 0.9631
8.4389 -3.2490 -2.5599 0.9631
8.5517 -2.9444 -2.5604 0.9631
8.6532 -2.6359 -2.5608 0.9631
8.7434 -2.3237 -2.5611 0.9631
3.6663 -0.5617 -1.0500 0.9847
3.5782 -0.4173 -1.0198 0.9851
3.5651 -0.0298 -1.0093 0.9853
3.5629 0.2264 -1.0107 0.9853
8.9068 1.5400 -2.5588 0.9631
8.7683 2.1740 -2.5574 0.9631
8.6818 2.4866 -2.5566 0.9632
4.1020 -7.1490 -2.5351 0.9661
4.3587 -7.0013 -2.5367 0.9661
4.6100 -6.8444 -2.5382 0.9661
4.8555 -6.6782 -2.5396 0.9660
5.3281 -6.3194 -2.5424 0.9660
5.5544 -6.1272 -2.5437 0.9660
5.7737 -5.9267 -2.5449 0.9660
5.9856 -5.7183 -2.5461 0.9660
6.3861 -5.2786 -2.5483 0.9659
6.7537 -4.8104 -2.5503 0.9659
7.0863 -4.3162 -2.5521 0.9659
7.3821 -3.7987 -2.5535 0.9659
7.5156 -3.5321 -2.5542 0.9658
7.6393 -3.2607 -2.5547 0.9658
7.8564 -2.7050 -2.5557 0.9658
7.9496 -2.4215 -2.5560 0.9658
8.1045 -1.8451 -2.5565 0.9658
8.1660 -1.5530 -2.5567 0.9658
3.3524 -0.2694 -1.0345 0.9860
3.3543 -0.1486 -1.0327 0.9860
3.3550 -0.0281 -1.0320 0.9861
8.0562 1.9974 -2.5529 0.9659
4.4879 -6.1726 -2.5368 0.9683
4.7091 -6.0105 -2.5381 0.9683
5.3356 -5.4771 -2.5417 0.9683
6.2403 -4.4447 -2.5467 0.9682
6.3979 -4.2192 -2.5475 0.9682
6.6881 -3.7513 -2.5490 0.9682
6.8203 -3.5096 -2.5496 0.9682
7.0576 -3.0124 -2.5508 0.9682
7.1626 -2.7576 -2.5512 0.9682
7.4205 -1.9721 -2.5522 0.9682
3.2696 -0.6218 -1.1063 0.9861
3.1808 -0.0266 -1.0574 0.9867
3.1806 0.0876 -1.0576 0.9867
3.1780 0.2020 -1.0585 0.9867
7.5601 1.3071 -2.5503 0.9682
7.3701 2.1109 -2.5484 0.9682
3.5217 -6.1376 -2.5305 0.9704
4.1676 -5.7320 -2.5343 0.9703
4.3728 -5.5813 -2.5355 0.9703
4.5725 -5.4232 -2.5367 0.9703
4.7663 -5.2578 -2.5378 0.9703
5.3105 -4.7205 -2.5409 0.9703
5.6396 -4.3303 -2.5427 0.9702
6.2086 -3.4824 -2.5456 0.9702
6.6487 -2.5597 -2.5477 0.9702
3.0548 -0.4680 -1.1052 0.9870
3.0437 -0.3550 -1.0958 0.9871
3.0517 -0.0255 -1.0913 0.9871
3.0474 0.1937 -1.0920 0.9871
3.0585 0.3049 -1.0991 0.9870
7.0179 1.2134 -2.5469 0.9702
6.9682 1.4643 -2.5463 0.9702
6.9096 1.7131 -2.5457 0.9702
6.7652 2.2034 -2.5444 0.9702
3.4889 -5.6042 -2.5298 0.9721
3.6896 -5.4779 -2.5310 0.9721
3.8857 -5.3444 -2.5322 0.9721
4.0769 -5.2037 -2.5333 0.9721
4.2630 -5.0561 -2.5344 0.9721
4.4436 -4.9018 -2.5354 0.9721
4.7876 -4.5738 -2.5374 0.9720
4.9505 -4.4005 -2.5383 0.9720
5.2570 -4.0365 -2.5399 0.9720
5.5364 -3.6510 -2.5414 0.9720
5.6654 -3.4507 -2.5421 0.9720
5.7870 -3.2459 -2.5427 0.9720
6.1968 -2.3857 -2.5446 0.9720
6.2793 -2.1620 -2.5450 0.9720
6.3536 -1.9354 -2.5453 0.9719
6.4196 -1.7061 -2.5455 0.9719
6.4771 -1.4746 -2.5457 0.9719
2.9217 -0.3408 -1.1272 0.9875
2.9271 -0.2352 -1.1253 0.9875
2.9272 0.2919 -1.1273 0.9875
2.9671 0.4039 -1.1475 0.9873
6.5411 1.1309 -2.5438 0.9720
6.4949 1.3648 -2.5433 0.9720
6.4403 1.5968 -2.5428 0.9720
3.2645 -5.2438 -2.5280 0.9737
3.8143 -4.8686 -2.5313 0.9736
4.1572 -4.5859 -2.5333 0.9736
4.3207 -4.4353 -2.5342 0.9736
5.1788 -3.4151 -2.5389 0.9735
5.5197 -2.8404 -2.5406 0.9735
5.6192 -2.6408 -2.5411 0.9735
5.7960 -2.2315 -2.5419 0.9735
5.9426 -1.8102 -2.5425 0.9735
6.0043 -1.5958 -2.5427 0.9735
2.8585 -0.6508 -1.1998 0.9874
2.8178 -0.0236 -1.1533 0.9879
2.8163 0.0776 -1.1531 0.9879
2.8155 0.2807 -1.1580 0.9878
2.8381 0.3863 -1.1723 0.9877
6.0751 1.2766 -2.5407 0.9735
6.0241 1.4936 -2.5402 0.9735
5.9653 1.7085 -2.5396 0.9735
5.8987 1.9212 -2.5390 0.9735
2.8838 -5.0260 -2.5254 0.9750
3.2398 -4.8101 -2.5275 0.9750
3.4118 -4.6926 -2.5285 0.9750
3.5795 -4.5688 -2.5295 0.9750
3.7427 -4.4390 -2.5305 0.9750
4.2027 -4.0150 -2.5331 0.9750
4.3455 -3.8627 -2.5339 0.9750
4.4827 -3.7053 -2.5346 0.9749
4.6142 -3.5429 -2.5353 0.9749
4.7397 -3.3759 -2.5360 0.9749
4.8590 -3.2043 -2.5366 0.9749
5.0787 -2.8486 -2.5378 0.9749
5.1787 -2.6649 -2.5383 0.9749
5.2720 -2.4777 -2.5387 0.9749
5.4378 -2.0935 -2.5394 0.9749
5.5752 -1.6983 -2.5400 0.9749
5.6330 -1.4971 -2.5402 0.9749
2.7172 -0.3169 -1.1922 0.9881
2.7219 -0.2187 -1.1901 0.9882
2.7249 -0.1207 -1.1887 0.9882
2.7233 0.0750 -1.1873 0.9882
2.7217 0.1730 -1.1886 0.9882
2.7276 0.2720 -1.1946 0.9881
2.7324 0.3719 -1.2018 0.9880
5.6521 1.4013 -2.5378 0.9749
2.7138 -4.7296 -2.5240 0.9763
3.2104 -4.4155 -2.5270 0.9762
3.3681 -4.2989 -2.5279 0.9762
3.5215 -4.1767 -2.5288 0.9762
3.9541 -3.7775 -2.5313 0.9762
4.0884 -3.6341 -2.5320 0.9762
4.2174 -3.4860 -2.5327 0.9762
4.3410 -3.3332 -2.5334 0.9762
4.4590 -3.1760 -2.5340 0.9762
4.5712 -3.0145 -2.5346 0.9762
4.6775 -2.8490 -2.5352 0.9761
4.8718 -2.5070 -2.5361 0.9761
4.9595 -2.3308 -2.5365 0.9761
5.2446 -1.5975 -2.5378 0.9761
5.2990 -1.4083 -2.5379 0.9761
2.6419 -0.3081 -1.2312 0.9883
2.6467 -0.2127 -1.2290 0.9884
2.6501 -0.0222 -1.2267 0.9884
2.6481 0.0730 -1.2262 0.9884
2.6434 0.2636 -1.2297 0.9884
2.6385 0.3592 -1.2326 0.9883
5.3620 1.1267 -2.5362 0.9761
5.3171 1.3183 -2.5357 0.9761
5.2067 1.6958 -2.5347 0.9762
2.5596 -4.4609 -2.5228 0.9773
3.0278 -4.1644 -2.5256 0.9773
3.5975 -3.6928 -2.5289 0.9773
4.4107 -2.6865 -2.5333 0.9773
4.5938 -2.3639 -2.5342 0.9772
4.6765 -2.1978 -2.5346 0.9772
4.7530 -2.0287 -2.5349 0.9772
4.8234 -1.8570 -2.5352 0.9772
2.6063 -0.4957 -1.3013 0.9882
2.6043 -0.3037 -1.2861 0.9884
2.6029 -0.2092 -1.2809 0.9884
2.6013 -0.1153 -1.2772 0.9885
2.6031 0.0717 -1.2773 0.9885
2.6041 0.1655 -1.2800 0.9884
2.6142 0.4520 -1.3013 0.9882
5.0138 1.2431 -2.5338 0.9772
4.9650 1.4220 -2.5333 0.9773
4.9097 1.5991 -2.5328 0.9773
2.5699 -4.1279 -2.5226 0.9783
2.8614 -3.9356 -2.5243 0.9783
3.0019 -3.8315 -2.5251 0.9783
3.6433 -3.2385 -2.5288 0.9783
3.7581 -3.1063 -2.5294 0.9783
4.0730 -2.6860 -2.5311 0.9783
4.4910 -1.9169 -2.5331 0.9782
4.6179 -1.5900 -2.5337 0.9782
4.6724 -1.4232 -2.5339 0.9782
2.5824 -0.3956 -1.3553 0.9883
2.5814 -0.3011 -1.3483 0.9884
2.5806 -0.1143 -1.3401 0.9884
2.5806 -0.0216 -1.3388 0.9884
2.5805 0.0711 -1.3392 0.9884
2.5824 0.2575 -1.3463 0.9884
2.6257 0.5517 -1.3919 0.9880
4.7374 1.1746 -2.5321 0.9782
4.6913 1.3437 -2.5316 0.9782
2.4331 -3.9083 -2.5215 0.9792
2.9713 -3.5241 -2.5247 0.9792
3.2183 -3.3036 -2.5261 0.9792
3.3358 -3.1868 -2.5267 0.9792
3.4489 -3.0657 -2.5274 0.9792
3.5576 -2.9406 -2.5280 0.9792
3.7611 -2.6789 -2.5291 0.9792
3.8556 -2.5426 -2.5296 0.9792
4.3139 -1.6608 -2.5318 0.9791
4.3712 -1.5050 -2.5320 0.9791
4.4227 -1.3472 -2.5322 0.9791
2.5878 -0.6878 -1.4665 0.9879
2.5539 -0.5814 -1.4345 0.9881
2.5564 -0.4862 -1.4253 0.9882
2.5596 -0.2985 -1.4114 0.9883
2.5600 -0.2057 -1.4066 0.9884
2.5598 -0.1134 -1.4034 0.9884
2.5551 0.3478 -1.4123 0.9883
2.5525 0.4413 -1.4188 0.9883
4.4409 1.2719 -2.5301 0.9792
4.3916 1.4303 -2.5296 0.9792
2.1720 -3.7854 -2.5197 0.9800
2.4396 -3.6220 -2.5213 0.9800
2.6949 -3.4397 -2.5228 0.9800
3.0516 -3.1325 -2.5248 0.9800
3.1629 -3.0216 -2.5255 0.9800
3.3732 -2.7881 -2.5266 0.9800
3.4718 -2.6658 -2.5272 0.9800
3.6556 -2.4107 -2.5281 0.9800
3.7404 -2.2783 -2.5286 0.9800
3.8955 -2.0046 -2.5293 0.9800
3.9655 -1.8636 -2.5297 0.9800
2.6351 -0.8027 -1.5904 0.9874
2.5383 -0.3889 -1.4826 0.9882
2.5370 -0.2959 -1.4747 0.9883
2.5373 -0.2039 -1.4696 0.9883
2.5374 -0.1124 -1.4664 0.9883
2.5374 0.2530 -1.4722 0.9883
2.5338 0.4381 -1.4846 0.9882
2.5680 0.5396 -1.5150 0.9880
4.2104 1.2059 -2.5286 0.9800
