ply
format ascii 1.0
element vertex 1090
property float32 x
property float32 y
property float32 z
property float32 I
end_header
-0.1364 32.1772 5.6738 0.8775
-1.2761 31.6899 5.5923 0.8791
-2.1872 28.6268 5.0624 0.8899
-3.0944 27.4485 4.8706 0.8939
-4.1177 27.5678 4.9149 0.8930
-6.2681 27.9924 5.0580 0.8900
-6.6143 25.2400 4.6008 0.8994
-7.6118 25.2952 4.6578 0.8983
-9.7136 25.4726 4.8070 0.8952
-15.6450 23.8605 5.0310 0.8906
-16.0938 21.0663 4.6745 0.8979
-40.9813 19.8124 8.0263 0.8312
-39.0106 17.1556 7.5144 0.8411
-38.3032 13.6483 7.1698 0.8478
-40.9593 12.9530 7.5748 0.8399
2.5463 7.6881 1.2407 0.9678
-1.2632 31.3684 4.8094 0.8807
-2.0684 27.0727 4.1595 0.8959
-4.1246 27.6136 4.2772 0.8932
-5.2798 28.3259 4.4141 0.8899
-6.4670 24.6778 3.9082 0.9019
-7.4387 24.7197 3.9547 0.9008
-8.4367 24.7675 4.0083 0.8995
-9.4674 24.8269 4.0705 0.8981
-15.1553 25.0350 4.4832 0.8883
-16.2541 21.2761 4.1017 0.8973
-41.8601 18.4087 7.0054 0.8311
-38.1217 15.1514 6.2844 0.8470
-43.6889 12.1045 6.9450 0.8324
-42.5101 10.1453 6.6952 0.8379
2.5460 7.6872 1.0545 0.9679
-0.1439 33.9489 4.4209 0.8720
-1.3344 33.1358 4.3185 0.8748
-2.0840 27.2761 3.5623 0.8955
-3.1988 28.3744 3.7184 0.8912
-5.9638 26.6335 3.5541 0.8957
-6.3270 24.1437 3.2502 0.9042
-7.2758 24.1785 3.2880 0.9032
-9.2523 24.2628 3.3814 0.9006
-10.2886 24.3130 3.4379 0.8990
-14.2672 21.7593 3.3883 0.9004
-16.2546 21.2768 3.4867 0.8976
-42.8195 18.8306 6.0914 0.8280
-42.5835 16.9247 5.9672 0.8312
-0.1430 33.7326 3.6223 0.8731
-1.3231 32.8565 3.5311 0.8761
-2.0996 27.4814 2.9596 0.8950
-5.2596 28.2180 3.0823 0.8909
-6.0558 27.0443 2.9760 0.8945
-6.1558 23.4906 2.6076 0.9069
-7.0002 23.2627 2.6086 0.9069
-11.1060 23.8171 2.8219 0.8997
-13.7972 21.0424 2.7020 0.9037
-16.2552 21.2775 2.8753 0.8979
-17.4515 21.2145 2.9498 0.8954
-36.9035 26.9271 4.9055 0.8321
-40.2611 25.1488 5.0974 0.8262
-45.9962 16.3895 5.2433 0.8217
28.9482 35.8047 3.8977 0.8312
2.5454 7.6855 0.6853 0.9680
-1.2678 31.4817 2.6672 0.8812
-2.4592 32.1867 2.7326 0.8785
-4.4705 29.9297 2.5617 0.8856
-5.4526 29.2533 2.5190 0.8874
-8.0412 23.6066 2.1111 0.9047
-9.0056 23.6157 2.1396 0.9035
-9.9976 23.6252 2.1716 0.9021
-11.0211 23.6349 2.2076 0.9006
-13.1805 23.6554 2.2924 0.8970
-13.6515 22.5510 2.2315 0.8996
-35.9010 26.1956 3.7621 0.8366
-35.9155 24.2744 3.6696 0.8403
-38.8158 24.2460 3.8742 0.8322
2.5451 7.6846 0.5020 0.9681
-2.4628 32.2339 2.0047 0.8785
-9.7713 23.0906 1.5548 0.9044
-10.8032 23.1677 1.5851 0.9026
-13.6553 22.5573 1.6351 0.8997
-13.9558 21.2843 1.5783 0.9030
-15.0423 21.2330 1.6136 0.9010
-16.2297 21.2442 1.6578 0.8984
-21.0406 22.1198 1.8931 0.8848
-35.7226 30.2339 2.9021 0.8290
-35.5625 25.9486 2.7299 0.8383
-35.6517 24.0961 2.6684 0.8416
-38.2227 23.8755 2.7946 0.8348
28.9558 35.8142 1.8160 0.8316
-6.9135 22.9746 0.9460 0.9084
-6.8251 20.0364 0.8346 0.9188
-7.6436 20.0442 0.8459 0.9177
-11.5148 20.6659 0.9328 0.9096
-15.0426 21.2334 1.0261 0.9011
-17.5142 21.2907 1.0871 0.8955
-30.4646 23.9560 1.5282 0.8563
-30.4382 22.2097 1.4858 0.8600
-32.8951 22.2330 1.5656 0.8530
2.5446 7.6829 0.1367 0.9681
-0.0275 6.4850 0.1095 0.9744
-8.9039 23.3492 0.4221 0.9049
-9.8847 23.3585 0.4284 0.9035
-10.8967 23.3682 0.4355 0.9020
-13.1062 21.6501 0.4275 0.9037
-5.1340 6.7204 0.1429 0.9667
-5.7176 6.4616 0.1457 0.9661
-31.1914 22.7592 0.6522 0.8569
-10.3762 6.4815 0.2067 0.9522
-42.8750 22.6672 0.8192 0.8236
28.9634 35.8236 -0.2594 0.8317
2.5443 7.6820 -0.0456 0.9681
-0.0275 6.4850 -0.0365 0.9744
-0.2611 6.4841 -0.0365 0.9744
-0.5017 6.5669 -0.0371 0.9740
-0.7402 6.5659 -0.0372 0.9739
-0.9805 6.5649 -0.0374 0.9738
-1.7195 6.5619 -0.0382 0.9732
-1.9742 6.5608 -0.0386 0.9730
-2.5010 6.5586 -0.0395 0.9723
-3.0572 6.5564 -0.0407 0.9715
-3.3490 6.5552 -0.0414 0.9710
-3.9667 6.5526 -0.0431 0.9698
-4.2955 6.5513 -0.0441 0.9691
-5.3118 6.4573 -0.0471 0.9671
-6.2183 6.5373 -0.0508 0.9646
-6.6809 6.5354 -0.0526 0.9633
-7.1785 6.5334 -0.0546 0.9619
-7.7167 6.5312 -0.0569 0.9604
-10.3779 6.4826 -0.0689 0.9522
-11.3418 6.5291 -0.0737 0.9490
-12.3420 6.5250 -0.0786 0.9457
-13.4869 6.5203 -0.0843 0.9418
-16.1667 6.4255 -0.0979 0.9328
-18.2346 6.4975 -0.1090 0.9255
-20.5161 6.4881 -0.1211 0.9175
-23.3788 6.4774 -0.1366 0.9075
-26.7320 6.3799 -0.1547 0.8959
-31.6248 6.3537 -0.1816 0.8789
-39.1773 6.4133 -0.2235 0.8532
37.8391 18.6909 -1.1884 0.8446
37.8500 22.2185 -1.2358 0.8389
37.8559 24.0951 -1.2635 0.8356
37.8619 26.0604 -1.2942 0.8320
2.5440 7.6812 -0.2278 0.9681
-0.0275 6.4851 -0.1826 0.9744
-0.7402 6.5659 -0.1861 0.9739
-0.9805 6.5649 -0.1869 0.9738
-1.2234 6.5639 -0.1880 0.9736
-1.4695 6.5629 -0.1894 0.9734
-1.9743 6.5609 -0.1929 0.9730
-2.2345 6.5598 -0.1951 0.9727
-2.5010 6.5587 -0.1976 0.9723
-2.7749 6.5576 -0.2005 0.9719
-3.0572 6.5564 -0.2037 0.9715
-3.3490 6.5552 -0.2073 0.9710
-3.6517 6.5539 -0.2113 0.9704
-3.9667 6.5527 -0.2157 0.9698
-4.2955 6.5513 -0.2206 0.9691
-5.0026 6.5484 -0.2320 0.9676
-5.3119 6.4573 -0.2354 0.9671
-6.2184 6.5374 -0.2541 0.9645
-6.6809 6.5355 -0.2632 0.9633
-7.7168 6.5312 -0.2847 0.9604
-8.9440 6.5262 -0.3118 0.9567
-9.6515 6.5233 -0.3280 0.9545
-10.3797 6.4837 -0.3446 0.9522
-12.3421 6.5251 -0.3931 0.9457
-14.8143 6.5149 -0.4557 0.9373
-16.1669 6.4256 -0.4899 0.9328
-20.5164 6.4882 -0.6059 0.9175
37.8182 13.8381 -2.0423 0.8510
37.8230 15.4054 -2.0712 0.8491
37.8279 17.0198 -2.1036 0.8469
37.8330 18.6878 -2.1400 0.8445
37.8382 20.4168 -2.1805 0.8418
37.8437 22.2148 -2.2254 0.8388
37.8494 24.0910 -2.2753 0.8355
37.7766 28.0582 -2.3864 0.8282
32.7146 37.6090 -2.5279 0.8190
29.6724 39.5306 -2.5067 0.8204
2.5437 7.6803 -0.4103 0.9681
10.4325 48.5160 -2.5167 0.8198
8.6334 48.6028 -2.5034 0.8206
6.8423 48.6273 -2.4904 0.8215
5.0611 48.5905 -2.4776 0.8223
3.3027 48.6552 -2.4732 0.8226
-0.0275 6.4851 -0.3289 0.9744
-0.2611 6.4842 -0.3291 0.9743
-0.9805 6.5650 -0.3366 0.9738
-1.4696 6.5630 -0.3411 0.9734
-1.7196 6.5619 -0.3440 0.9732
-2.5010 6.5587 -0.3560 0.9723
-2.7749 6.5576 -0.3611 0.9719
-3.0572 6.5564 -0.3669 0.9714
-3.3491 6.5552 -0.3733 0.9709
-3.9667 6.5527 -0.3885 0.9698
-4.6402 6.5499 -0.4071 0.9684
-5.0027 6.5484 -0.4179 0.9675
-5.3119 6.4574 -0.4240 0.9671
-6.2184 6.5375 -0.4576 0.9645
-7.1786 6.5335 -0.4923 0.9619
-7.7169 6.5313 -0.5127 0.9603
-8.3026 6.5289 -0.5356 0.9586
-9.6516 6.5233 -0.5908 0.9544
-10.3815 6.4848 -0.6208 0.9522
-12.3423 6.5252 -0.7080 0.9456
-14.8145 6.5150 -0.8207 0.9372
-20.5168 6.4883 -1.0913 0.9174
-40.7500 5.1723 -2.0832 0.8483
-43.5675 3.9424 -2.2185 0.8393
32.6561 11.9492 -2.5497 0.8698
32.1511 13.0952 -2.5454 0.8700
30.3811 16.3930 -2.5312 0.8707
29.7098 17.4401 -2.5260 0.8709
29.0001 18.4585 -2.5205 0.8712
28.3827 22.7110 -2.6653 0.8643
27.4780 23.6590 -2.6587 0.8647
26.5402 24.5696 -2.6518 0.8650
24.5719 26.2748 -2.6377 0.8656
22.4914 27.8186 -2.6230 0.8663
20.3131 29.1947 -2.6078 0.8671
18.0512 30.3977 -2.5922 0.8678
15.7204 31.4241 -2.5763 0.8686
12.1260 32.6268 -2.5521 0.8697
2.5434 7.6794 -0.5932 0.9681
5.9912 33.7280 -2.5117 0.8716
4.4681 31.7542 -2.3512 0.8793
3.3115 31.7930 -2.3437 0.8797
1.0158 31.9636 -2.3448 0.8796
-0.2611 6.4842 -0.4758 0.9743
-0.7402 6.5660 -0.4845 0.9738
-1.2234 6.5640 -0.4896 0.9736
-1.4695 6.5630 -0.4931 0.9734
-1.7196 6.5620 -0.4974 0.9732
-2.2345 6.5599 -0.5081 0.9726
-2.5011 6.5588 -0.5147 0.9722
-3.0572 6.5565 -0.5304 0.9714
-3.3491 6.5553 -0.5397 0.9709
-3.6518 6.5540 -0.5501 0.9704
-3.9667 6.5527 -0.5616 0.9697
-4.6402 6.5500 -0.5886 0.9683
-5.0027 6.5485 -0.6042 0.9675
-7.7169 6.5314 -0.7413 0.9603
-8.3027 6.5289 -0.7744 0.9585
-8.9442 6.5263 -0.8118 0.9566
-9.6517 6.5234 -0.8542 0.9544
-11.3421 6.5294 -0.9596 0.9489
-12.3424 6.5252 -1.0237 0.9455
-18.2355 6.4978 -1.4194 0.9253
-26.7340 6.3803 -2.0153 0.8956
-29.0557 4.7564 -2.1588 0.8886
-31.1015 3.9476 -2.2987 0.8818
-31.2257 2.8256 -2.2989 0.8818
24.7577 12.2292 -2.6510 0.8950
22.6024 15.5573 -2.6343 0.8956
21.9891 16.3322 -2.6297 0.8958
21.3481 17.0822 -2.6249 0.8960
20.6805 17.8062 -2.6200 0.8961
19.9874 18.5033 -2.6149 0.8963
19.2700 19.1727 -2.6097 0.8965
17.7670 20.4250 -2.5990 0.8969
15.3608 22.0769 -2.5821 0.8976
12.8030 23.4431 -2.5644 0.8982
11.0310 24.1895 -2.5524 0.8987
10.1288 24.5123 -2.5463 0.8989
9.2176 24.8014 -2.5402 0.8991
5.1730 24.0571 -2.3624 0.9059
4.2932 24.1687 -2.3566 0.9061
1.6580 24.4252 -2.3503 0.9063
0.7758 24.4124 -2.3449 0.9065
-0.9805 6.5651 -0.6373 0.9737
-1.2235 6.5641 -0.6410 0.9735
-1.7196 6.5620 -0.6513 0.9731
-2.2345 6.5599 -0.6653 0.9725
-2.5011 6.5588 -0.6739 0.9722
-2.7750 6.5577 -0.6836 0.9718
-3.0573 6.5565 -0.6945 0.9713
-3.9668 6.5528 -0.7354 0.9697
-4.2956 6.5514 -0.7521 0.9690
-4.6402 6.5500 -0.7706 0.9683
-5.0027 6.5485 -0.7912 0.9674
-6.2185 6.5376 -0.8662 0.9644
-8.9443 6.5264 -1.0630 0.9565
-9.6518 6.5235 -1.1184 0.9543
-11.3423 6.5294 -1.2565 0.9488
-12.3426 6.5253 -1.3404 0.9454
-13.4876 6.5206 -1.4383 0.9416
-14.8150 6.5152 -1.5538 0.9370
-18.2358 6.4979 -1.8585 0.9252
-20.5176 6.4886 -2.0659 0.9172
-22.1068 6.1250 -2.2023 0.9119
-22.3070 5.3237 -2.2017 0.9120
-24.2187 3.0740 -2.3438 0.9066
-24.3150 2.2003 -2.3439 0.9066
20.4805 8.3417 -2.6268 0.9148
20.1456 9.0640 -2.6241 0.9149
19.3965 10.4659 -2.6180 0.9150
18.9836 11.1436 -2.6148 0.9151
18.0847 12.4477 -2.6079 0.9154
17.6001 13.0723 -2.6042 0.9155
17.0933 13.6775 -2.6004 0.9156
16.0158 14.8267 -2.5925 0.9158
15.4471 15.3691 -2.5884 0.9160
14.8595 15.8893 -2.5842 0.9161
13.6314 16.8601 -2.5754 0.9164
12.9929 17.3096 -2.5709 0.9165
10.2986 18.8573 -2.5523 0.9171
8.8813 19.4755 -2.5426 0.9174
7.4282 19.9868 -2.5328 0.9177
2.5429 7.6777 -0.9607 0.9679
4.8828 19.2985 -2.3646 0.9229
3.4679 19.5227 -2.3553 0.9232
2.0527 19.7078 -2.3537 0.9233
0.6271 19.7309 -2.3449 0.9236
-0.0275 6.4852 -0.7704 0.9742
-0.2611 6.4843 -0.7709 0.9742
-0.5017 6.5671 -0.7823 0.9738
-0.7402 6.5661 -0.7849 0.9737
-1.2235 6.5641 -0.7931 0.9735
-1.4696 6.5631 -0.7989 0.9733
-1.7196 6.5621 -0.8058 0.9730
-2.7750 6.5577 -0.8458 0.9717
-3.0573 6.5566 -0.8593 0.9713
-3.6518 6.5541 -0.8912 0.9702
-3.9668 6.5528 -0.9099 0.9696
-4.6403 6.5501 -0.9535 0.9682
-5.3120 6.4575 -0.9932 0.9669
-5.7178 6.4619 -1.0249 0.9658
-6.2186 6.5376 -1.0718 0.9643
-9.6519 6.5235 -1.3838 0.9542
-12.3427 6.5254 -1.6584 0.9453
-13.4878 6.5207 -1.7796 0.9414
-16.1679 6.4260 -2.0666 0.9323
-17.8979 5.6601 -2.2298 0.9272
-18.0849 5.0106 -2.2292 0.9272
-19.5844 3.9346 -2.3728 0.9227
-19.7116 3.2268 -2.3726 0.9227
-19.8932 1.8001 -2.3727 0.9227
16.7572 7.5395 -2.6036 0.9285
16.1404 8.7090 -2.5986 0.9286
15.8002 9.2749 -2.5959 0.9287
15.4394 9.8271 -2.5931 0.9287
14.2399 11.3944 -2.5841 0.9290
12.8785 12.8135 -2.5741 0.9292
12.3920 13.2507 -2.5706 0.9293
11.8903 13.6691 -2.5670 0.9294
11.3742 14.0682 -2.5633 0.9295
10.8446 14.4475 -2.5596 0.9296
9.7477 15.1449 -2.5519 0.9298
9.1821 15.4622 -2.5480 0.9299
8.0205 16.0325 -2.5400 0.9301
6.8243 16.5152 -2.5319 0.9304
4.0894 16.1626 -2.3622 0.9349
2.9109 16.3869 -2.3582 0.9350
2.3168 16.4652 -2.3559 0.9350
-0.2611 6.4843 -0.9195 0.9741
-0.9806 6.5651 -0.9405 0.9735
-1.4696 6.5631 -0.9529 0.9732
-2.2345 6.5600 -0.9819 0.9724
-2.7750 6.5578 -1.0089 0.9716
-3.0573 6.5566 -1.0250 0.9712
-3.9668 6.5529 -1.0853 0.9695
-4.2957 6.5515 -1.1100 0.9688
-4.6403 6.5501 -1.1374 0.9681
-5.3121 6.4576 -1.1848 0.9668
-7.1788 6.5337 -1.3754 0.9615
-7.7171 6.5315 -1.4325 0.9600
-8.9444 6.5265 -1.5688 0.9563
-10.3887 6.4893 -1.7355 0.9517
-11.3425 6.5296 -1.8544 0.9485
-13.4880 6.5208 -2.1227 0.9413
-15.1297 4.7847 -2.2484 0.9379
-16.4288 3.9209 -2.3932 0.9340
-16.6649 2.7280 -2.3927 0.9341
-16.7520 2.1263 -2.3926 0.9341
-16.8183 1.5219 -2.3927 0.9341
14.3314 6.4481 -2.5889 0.9383
13.8078 7.4504 -2.5847 0.9384
13.5186 7.9356 -2.5824 0.9384
12.8883 8.8710 -2.5775 0.9385
11.8200 10.1771 -2.5695 0.9387
11.4333 10.5843 -2.5667 0.9388
11.0323 10.9766 -2.5638 0.9389
10.1897 11.7142 -2.5577 0.9390
8.3606 12.9898 -2.5448 0.9393
5.0129 13.4879 -2.3705 0.9433
3.5146 13.8909 -2.3605 0.9436
1.9915 14.1532 -2.3546 0.9437
1.4788 14.1977 -2.3516 0.9438
0.4521 14.2274 -2.3450 0.9439
-0.9806 6.5652 -1.0935 0.9734
-1.7196 6.5621 -1.1175 0.9729
-1.9743 6.5611 -1.1287 0.9726
-2.7750 6.5578 -1.1731 0.9715
-3.3492 6.5554 -1.2127 0.9706
-3.6519 6.5542 -1.2360 0.9700
-3.9668 6.5529 -1.2619 0.9694
-5.0028 6.5487 -1.3576 0.9671
-5.3121 6.4576 -1.3775 0.9667
-6.2187 6.5377 -1.4864 0.9641
-8.9445 6.5266 -1.8241 0.9561
-10.3905 6.4904 -2.0182 0.9515
-12.1605 6.4291 -2.2661 0.9458
-12.7673 5.0744 -2.2633 0.9458
-13.9410 4.4087 -2.4087 0.9424
-14.0877 3.9032 -2.4082 0.9425
-14.2168 3.3930 -2.4078 0.9425
12.5073 5.6274 -2.5779 0.9457
12.0528 6.5034 -2.5742 0.9458
11.5354 7.3422 -2.5701 0.9459
11.2542 7.7462 -2.5680 0.9459
10.9584 8.1392 -2.5657 0.9460
10.6487 8.5208 -2.5634 0.9460
10.3254 8.8903 -2.5610 0.9461
9.9890 9.2473 -2.5586 0.9461
9.6400 9.5913 -2.5560 0.9462
6.8906 11.6035 -2.5366 0.9466
6.0237 12.0409 -2.5306 0.9467
3.5191 12.0642 -2.3621 0.9501
3.0815 12.1789 -2.3613 0.9502
1.2958 12.4401 -2.3509 0.9504
-0.7402 6.5662 -1.2420 0.9735
-0.9806 6.5652 -1.2477 0.9733
-1.2235 6.5642 -1.2551 0.9732
-1.4696 6.5632 -1.2642 0.9730
-1.7196 6.5622 -1.2751 0.9728
-2.2346 6.5601 -1.3026 0.9722
-3.6519 6.5543 -1.4103 0.9699
-3.9669 6.5530 -1.4398 0.9693
-4.2957 6.5516 -1.4725 0.9686
-4.6404 6.5502 -1.5088 0.9679
-5.0029 6.5487 -1.5490 0.9670
-5.7179 6.4620 -1.6218 0.9655
-7.7173 6.5316 -1.9003 0.9597
-10.4992 6.0441 -2.2771 0.9519
-10.7053 5.6597 -2.2761 0.9519
-11.6477 4.6294 -2.3559 0.9503
-12.2753 3.8820 -2.4199 0.9489
-12.4049 3.4369 -2.4195 0.9490
-12.5187 2.9877 -2.4191 0.9490
-12.6993 2.0789 -2.4187 0.9490
-12.8162 1.1597 -2.4188 0.9490
11.0846 4.9872 -2.5693 0.9515
10.4618 6.1412 -2.5643 0.9516
10.2267 6.5092 -2.5624 0.9516
9.9783 6.8680 -2.5605 0.9517
9.7171 7.2172 -2.5586 0.9517
9.4433 7.5563 -2.5565 0.9518
9.1576 7.8848 -2.5544 0.9518
8.5516 8.5084 -2.5499 0.9519
8.2323 8.8028 -2.5476 0.9519
7.9027 9.0850 -2.5453 0.9520
7.5634 9.3547 -2.5429 0.9520
7.2147 9.6116 -2.5404 0.9521
6.1179 10.3023 -2.5327 0.9522
3.8992 10.4915 -2.3659 0.9553
3.1290 10.7266 -2.3619 0.9553
2.3445 10.9028 -2.3573 0.9554
1.9485 10.9694 -2.3550 0.9555
1.5509 11.0216 -2.3527 0.9555
1.1519 11.0594 -2.3504 0.9556
0.3524 11.0882 -2.3450 0.9557
-0.0275 6.4854 -1.3709 0.9738
-0.2611 6.4844 -1.3718 0.9738
-0.5017 6.5672 -1.3922 0.9734
-0.7402 6.5662 -1.3967 0.9733
-1.4696 6.5632 -1.4217 0.9729
-1.9744 6.5612 -1.4483 0.9724
-2.2346 6.5601 -1.4649 0.9721
-2.5012 6.5590 -1.4838 0.9717
-2.7751 6.5579 -1.5052 0.9713
-3.0574 6.5567 -1.5292 0.9709
-3.3492 6.5555 -1.5561 0.9704
-3.6519 6.5543 -1.5860 0.9698
-3.9669 6.5530 -1.6192 0.9692
-4.2958 6.5517 -1.6560 0.9685
-4.6404 6.5503 -1.6968 0.9677
-5.3122 6.4577 -1.7675 0.9664
-5.7180 6.4621 -1.8239 0.9653
-6.6814 6.5359 -1.9757 0.9625
-7.1790 6.5339 -2.0519 0.9611
-7.7173 6.5317 -2.1371 0.9595
-8.7442 6.3803 -2.2881 0.9567
-9.1718 5.7291 -2.2859 0.9568
-9.7246 4.7014 -2.2832 0.9568
-10.8256 3.8575 -2.4293 0.9541
-10.9553 3.4645 -2.4288 0.9541
-11.2606 2.2623 -2.4278 0.9541
-11.3342 1.8554 -2.4277 0.9541
-11.3935 1.4461 -2.4277 0.9541
-11.4385 1.0351 -2.4278 0.9541
10.1025 4.1148 -2.5637 0.9562
9.5841 5.1714 -2.5595 0.9562
7.3907 7.9028 -2.5430 0.9565
6.7914 8.4000 -2.5387 0.9566
6.4790 8.6315 -2.5365 0.9566
6.1586 8.8513 -2.5342 0.9567
5.4756 8.5073 -2.3777 0.9593
4.8403 8.8628 -2.3734 0.9594
4.1821 9.1707 -2.3689 0.9594
3.8455 9.3063 -2.3666 0.9595
2.5046 7.5620 -1.8722 0.9678
1.7519 9.8622 -2.3541 0.9597
1.3945 9.9101 -2.3520 0.9597
1.0358 9.9447 -2.3499 0.9597
0.6765 9.9652 -2.3474 0.9598
0.3170 9.9728 -2.3450 0.9598
-0.2611 6.4845 -1.5252 0.9737
-0.5017 6.5673 -1.5479 0.9733
-0.7402 6.5663 -1.5530 0.9732
-1.9744 6.5612 -1.6103 0.9722
-2.5012 6.5591 -1.6498 0.9716
-2.7751 6.5579 -1.6736 0.9712
-3.0574 6.5568 -1.7003 0.9707
-3.3493 6.5556 -1.7301 0.9702
-3.6520 6.5543 -1.7634 0.9696
-4.6404 6.5503 -1.8866 0.9676
-6.6814 6.5360 -2.1967 0.9623
-7.2301 6.5803 -2.2977 0.9606
-7.4583 6.3124 -2.2964 0.9606
-7.8854 5.7537 -2.2941 0.9607
-9.3402 4.5156 -2.4383 0.9583
-9.6358 3.8297 -2.4369 0.9583
-9.7653 3.4796 -2.4364 0.9583
-9.8824 3.1252 -2.4360 0.9583
-10.0790 2.4054 -2.4353 0.9583
-10.1582 2.0409 -2.4351 0.9583
-10.2246 1.6738 -2.4350 0.9583
-10.3187 0.9337 -2.4351 0.9583
9.2818 3.3963 -2.5590 0.9600
9.1494 3.7266 -2.5579 0.9600
9.0051 4.0516 -2.5567 0.9600
8.8490 4.3710 -2.5554 0.9600
8.6813 4.6842 -2.5541 0.9601
8.5023 4.9910 -2.5527 0.9601
8.3124 5.2907 -2.5512 0.9601
8.1116 5.5832 -2.5496 0.9601
7.9003 5.8679 -2.5480 0.9602
7.4478 6.4126 -2.5446 0.9602
7.2071 6.6719 -2.5429 0.9602
6.9572 6.9221 -2.5410 0.9603
6.6985 7.1627 -2.5392 0.9603
5.8737 7.8250 -2.5333 0.9604
1.9124 8.8933 -2.3553 0.9631
1.5897 8.9492 -2.3534 0.9631
0.6140 9.0447 -2.3472 0.9632
-0.0275 6.4855 -1.6792 0.9736
-0.2611 6.4845 -1.6803 0.9735
-0.5018 6.5673 -1.7053 0.9732
-1.4696 6.5633 -1.7414 0.9726
-1.7196 6.5623 -1.7564 0.9724
-2.2346 6.5602 -1.7944 0.9718
-2.7751 6.5580 -1.8437 0.9710
-3.6520 6.5544 -1.9427 0.9695
-3.9670 6.5531 -1.9834 0.9688
-4.2958 6.5518 -2.0285 0.9681
-4.6404 6.5503 -2.0785 0.9674
-5.0030 6.5489 -2.1338 0.9665
-6.1351 6.4498 -2.3048 0.9639
-6.3599 6.2214 -2.3036 0.9639
-6.7842 5.7419 -2.3012 0.9639
-6.9833 5.4914 -2.3002 0.9640
-7.1733 5.2341 -2.2992 0.9640
-8.0656 4.6431 -2.4096 0.9623
-8.3473 4.4131 -2.4447 0.9617
-8.4983 4.1085 -2.4440 0.9617
-9.1714 2.1888 -2.4414 0.9618
-9.2437 1.8571 -2.4412 0.9618
-9.3041 1.5231 -2.4411 0.9618
8.4728 3.1003 -2.5541 0.9632
8.3523 3.4019 -2.5531 0.9632
8.2209 3.6988 -2.5520 0.9632
7.9259 4.2767 -2.5496 0.9633
7.5898 4.8309 -2.5469 0.9633
7.4069 5.0981 -2.5455 0.9633
7.2144 5.3584 -2.5441 0.9633
6.8019 5.8565 -2.5410 0.9634
6.3547 6.3226 -2.5377 0.9634
4.7911 6.8858 -2.3747 0.9657
4.5367 7.0485 -2.3730 0.9658
4.2767 7.2018 -2.3712 0.9658
3.4672 7.6030 -2.3656 0.9659
3.1887 7.7168 -2.3637 0.9659
2.4877 7.5112 -2.2400 0.9676
1.1572 8.2239 -2.3510 0.9661
0.5615 8.2718 -2.3471 0.9661
0.2631 8.2798 -2.3451 0.9661
-0.0275 6.4855 -1.8360 0.9734
-0.9806 6.5654 -1.8792 0.9728
-1.9744 6.5613 -1.9397 0.9719
-2.2346 6.5602 -1.9619 0.9716
-2.5012 6.5591 -1.9873 0.9712
-3.0574 6.5569 -2.0481 0.9704
-3.3493 6.5557 -2.0840 0.9699
-3.6520 6.5544 -2.1241 0.9693
-3.9670 6.5531 -2.1686 0.9687
-4.2959 6.5518 -2.2179 0.9680
-5.1862 6.3045 -2.3110 0.9666
-5.4069 6.1104 -2.3098 0.9666
-5.6204 5.9087 -2.3086 0.9667
-5.8266 5.6997 -2.3074 0.9667
-6.0251 5.4837 -2.3064 0.9667
-6.3985 5.0315 -2.3043 0.9667
-6.8957 4.6607 -2.3562 0.9660
-7.3432 4.5869 -2.4510 0.9646
-7.6495 4.0442 -2.4495 0.9647
-7.7880 3.7652 -2.4489 0.9647
-7.9167 3.4815 -2.4483 0.9647
-8.0352 3.1936 -2.4478 0.9647
-8.1435 2.9017 -2.4474 0.9647
-8.2414 2.6063 -2.4470 0.9647
-8.3289 2.3076 -2.4467 0.9647
-8.5273 1.3959 -2.4462 0.9647
-8.5720 1.0880 -2.4462 0.9647
7.5545 3.3989 -2.5479 0.9659
7.4241 3.6671 -2.5469 0.9659
7.2840 3.9303 -2.5457 0.9660
6.8079 4.6858 -2.5420 0.9660
6.6313 4.9253 -2.5407 0.9660
6.0513 5.6020 -2.5364 0.9661
5.6257 6.0155 -2.5333 0.9661
5.1716 6.3965 -2.5300 0.9662
4.9347 6.5742 -2.5283 0.9662
3.6898 6.7562 -2.3678 0.9683
3.4417 6.8797 -2.3661 0.9683
2.9335 7.0991 -2.3626 0.9684
2.6740 7.1948 -2.3609 0.9684
2.4115 7.2809 -2.3591 0.9684
2.1462 7.3575 -2.3573 0.9684
1.6089 7.4817 -2.3538 0.9685
1.0649 7.5677 -2.3506 0.9685
0.2422 7.6210 -2.3452 0.9686
-0.2611 6.4846 -1.9961 0.9732
-1.2235 6.5644 -2.0538 0.9724
-2.7752 6.5581 -2.1903 0.9706
-3.0575 6.5569 -2.2252 0.9702
-3.6722 6.5905 -2.3205 0.9689
-3.9047 6.4502 -2.3192 0.9689
-4.1320 6.3019 -2.3178 0.9690
-4.3537 6.1456 -2.3165 0.9690
-4.5697 5.9817 -2.3153 0.9690
-4.7796 5.8102 -2.3141 0.9690
-4.9832 5.6316 -2.3129 0.9690
-5.1802 5.4459 -2.3118 0.9690
-6.3743 4.6511 -2.4270 0.9675
-6.7696 4.2286 -2.4550 0.9671
-7.0524 3.7285 -2.4537 0.9672
-7.2990 3.2099 -2.4525 0.9672
-7.4084 2.9445 -2.4520 0.9672
-7.5987 2.4030 -2.4513 0.9672
-7.8114 1.5694 -2.4506 0.9672
-7.8625 1.2871 -2.4506 0.9672
6.9807 3.1408 -2.5445 0.9682
6.4468 4.1033 -2.5402 0.9683
6.2919 4.3307 -2.5390 0.9683
5.7796 4.9763 -2.5351 0.9684
5.5937 5.1783 -2.5338 0.9684
5.2007 5.5611 -2.5309 0.9684
4.9942 5.7413 -2.5294 0.9684
4.7814 5.9138 -2.5279 0.9685
3.8580 5.9941 -2.3695 0.9704
3.6374 6.1252 -2.3680 0.9704
1.9854 6.8063 -2.3568 0.9706
1.4884 6.9219 -2.3535 0.9706
0.9852 7.0014 -2.3502 0.9706
0.7320 7.0274 -2.3486 0.9707
0.4782 7.0443 -2.3469 0.9707
0.2241 7.0520 -2.3453 0.9707
-0.2611 6.4846 -2.1572 0.9730
-0.5017 6.5674 -2.1894 0.9726
-0.9806 6.5655 -2.2066 0.9724
-1.2235 6.5645 -2.2196 0.9722
-1.4696 6.5634 -2.2357 0.9720
-1.7197 6.5624 -2.2550 0.9718
-2.2597 6.6340 -2.3296 0.9709
-2.4955 6.5443 -2.3281 0.9709
-3.8273 5.8371 -2.3202 0.9710
-4.2331 5.5410 -2.3178 0.9710
-4.7991 5.0453 -2.3146 0.9711
-4.9755 4.8672 -2.3136 0.9711
-5.1524 4.6894 -2.3159 0.9711
-5.9783 4.3622 -2.4600 0.9693
-6.2729 3.9183 -2.4585 0.9693
-6.4081 3.6890 -2.4578 0.9693
-6.5351 3.4550 -2.4572 0.9693
-6.7638 2.9745 -2.4562 0.9693
-6.8653 2.7286 -2.4557 0.9693
-7.0419 2.2269 -2.4550 0.9693
-7.2865 1.1928 -2.4543 0.9694
-7.3536 0.6654 -2.4544 0.9694
6.6785 2.4437 -2.5431 0.9702
6.5841 2.6817 -2.5423 0.9703
6.1220 3.5936 -2.5385 0.9703
5.3673 4.6213 -2.5328 0.9704
5.1949 4.8091 -2.5315 0.9704
5.0158 4.9904 -2.5302 0.9704
4.4412 5.4931 -2.5261 0.9704
4.2382 5.6462 -2.5247 0.9705
3.5840 5.5684 -2.3681 0.9723
3.1702 5.8048 -2.3652 0.9723
2.9574 5.9115 -2.3638 0.9723
2.7409 6.0104 -2.3623 0.9723
2.0730 6.2589 -2.3578 0.9724
1.8451 6.3254 -2.3563 0.9724
1.6152 6.3835 -2.3547 0.9724
1.3834 6.4334 -2.3532 0.9724
1.1501 6.4748 -2.3517 0.9725
0.9157 6.5077 -2.3501 0.9725
0.4445 6.5482 -2.3471 0.9725
0.2084 6.5557 -2.3455 0.9725
-0.0278 6.5547 -2.3440 0.9725
-0.2635 6.5452 -2.3425 0.9726
-0.4987 6.5273 -2.3410 0.9726
-0.7329 6.5010 -2.3395 0.9726
-0.9658 6.4663 -2.3381 0.9726
-1.1972 6.4234 -2.3366 0.9726
-1.6543 6.3129 -2.3338 0.9727
-1.8794 6.2455 -2.3324 0.9727
-2.1017 6.1702 -2.3310 0.9727
-2.3212 6.0870 -2.3297 0.9727
-2.7501 5.8976 -2.3271 0.9727
-2.9590 5.7917 -2.3258 0.9727
-3.1639 5.6784 -2.3246 0.9728
-3.3646 5.5580 -2.3234 0.9728
-3.5607 5.4306 -2.3223 0.9728
-3.7521 5.2963 -2.3211 0.9728
-3.9385 5.1554 -2.3201 0.9728
-4.1197 5.0081 -2.3190 0.9728
-4.2955 4.8544 -2.3180 0.9728
-4.4667 4.6958 -2.3176 0.9728
-4.7728 4.6689 -2.3876 0.9720
-5.5637 4.0596 -2.4630 0.9712
-5.8380 3.6467 -2.4615 0.9712
-5.9640 3.4333 -2.4609 0.9712
-6.1928 2.9939 -2.4598 0.9712
-6.2953 2.7685 -2.4594 0.9712
-6.5543 2.0728 -2.4583 0.9712
-6.6853 1.5955 -2.4579 0.9712
-6.7380 1.3537 -2.4577 0.9712
-6.7822 1.1102 -2.4577 0.9712
-6.8177 0.8654 -2.4576 0.9712
6.2254 2.2779 -2.5403 0.9720
6.1375 2.4998 -2.5396 0.9720
5.9378 2.9330 -2.5379 0.9720
5.4471 3.7492 -2.5341 0.9721
5.3063 3.9412 -2.5330 0.9721
5.1587 4.1278 -2.5319 0.9721
4.8439 4.4842 -2.5296 0.9721
4.5043 4.8164 -2.5271 0.9721
4.3258 4.9729 -2.5258 0.9722
4.1418 5.1227 -2.5245 0.9722
3.4789 5.4051 -2.4633 0.9728
3.1519 5.3076 -2.3656 0.9739
2.9571 5.4145 -2.3642 0.9739
2.7586 5.5143 -2.3628 0.9739
1.7215 5.9016 -2.3558 0.9740
1.5071 5.9561 -2.3544 0.9740
1.0733 6.0417 -2.3515 0.9741
0.8545 6.0727 -2.3501 0.9741
0.4148 6.1110 -2.3472 0.9741
-0.0259 6.1176 -2.3444 0.9741
-0.6841 6.0683 -2.3402 0.9742
-0.9015 6.0362 -2.3388 0.9742
-1.1176 5.9964 -2.3375 0.9742
-1.5444 5.8937 -2.3348 0.9742
-2.7631 5.4083 -2.3274 0.9743
-3.5042 4.9464 -2.3230 0.9744
-3.6784 4.8150 -2.3220 0.9744
-3.8599 4.6922 -2.3284 0.9743
-4.4300 4.6572 -2.4632 0.9728
-4.6051 4.5048 -2.4687 0.9728
-4.7626 4.3346 -2.4679 0.9728
-5.0589 3.9781 -2.4663 0.9728
-5.4537 3.4067 -2.4642 0.9728
-5.8814 2.5865 -2.4622 0.9729
-5.9697 2.3727 -2.4618 0.9729
-6.1234 1.9365 -2.4612 0.9729
-6.2459 1.4906 -2.4608 0.9729
-6.3365 1.0373 -2.4606 0.9729
-6.3697 0.8085 -2.4606 0.9729
-6.3947 0.5787 -2.4606 0.9729
5.7413 2.3384 -2.5372 0.9736
5.5548 2.7438 -2.5356 0.9736
5.3393 3.1342 -2.5339 0.9736
5.2211 3.3232 -2.5330 0.9736
5.0961 3.5077 -2.5320 0.9736
4.5323 4.1958 -2.5278 0.9737
4.2148 4.5069 -2.5255 0.9737
4.0480 4.6535 -2.5243 0.9737
3.8759 4.7939 -2.5231 0.9737
3.6990 4.9278 -2.5218 0.9737
3.5174 5.0552 -2.5205 0.9737
2.5821 5.1614 -2.3620 0.9754
2.2016 5.3279 -2.3594 0.9754
2.0072 5.4007 -2.3581 0.9754
1.8105 5.4664 -2.3568 0.9754
1.0048 5.6568 -2.3514 0.9755
0.5946 5.7079 -2.3488 0.9755
-0.0242 5.7290 -2.3448 0.9755
-0.2304 5.7212 -2.3434 0.9756
-1.2477 5.5722 -2.3370 0.9756
-1.6437 5.4622 -2.3346 0.9756
-1.8383 5.3967 -2.3334 0.9757
-2.0304 5.3244 -2.3322 0.9757
-2.2196 5.2452 -2.3310 0.9757
-2.4058 5.1594 -2.3299 0.9757
-2.7683 4.9683 -2.3278 0.9757
-2.9440 4.8633 -2.3267 0.9757
-3.1158 4.7521 -2.3257 0.9757
-3.3192 4.6854 -2.3501 0.9755
-4.1622 4.3758 -2.4717 0.9742
-4.3156 4.2216 -2.4708 0.9742
-4.4633 4.0622 -2.4700 0.9743
-4.6052 3.8977 -2.4693 0.9743
-4.7412 3.7283 -2.4685 0.9743
-4.8709 3.5542 -2.4678 0.9743
-4.9944 3.3756 -2.4672 0.9743
-5.1115 3.1929 -2.4666 0.9743
-5.2219 3.0061 -2.4661 0.9743
-5.4226 2.6216 -2.4651 0.9743
-5.6711 2.0208 -2.4640 0.9743
-5.7396 1.8151 -2.4638 0.9743
-5.8007 1.6072 -2.4635 0.9743
-5.8544 1.3972 -2.4634 0.9743
-5.9393 0.9723 -2.4632 0.9743
-5.9705 0.7578 -2.4632 0.9743
-5.9940 0.5424 -2.4632 0.9743
5.4640 1.9993 -2.5357 0.9749
5.3031 2.3860 -2.5343 0.9749
5.2123 2.5746 -2.5336 0.9750
5.1146 2.7597 -2.5328 0.9750
5.0102 2.9411 -2.5320 0.9750
4.8995 3.1185 -2.5311 0.9750
4.6590 3.4604 -2.5292 0.9750
4.5296 3.6245 -2.5283 0.9750
4.2537 3.9378 -2.5262 0.9750
4.1074 4.0867 -2.5252 0.9750
3.9559 4.2300 -2.5241 0.9750
3.7994 4.3678 -2.5229 0.9751
3.4721 4.6255 -2.5206 0.9751
3.1272 4.8587 -2.5182 0.9751
1.8846 5.0707 -2.3576 0.9767
1.6999 5.1326 -2.3564 0.9767
1.3248 5.2360 -2.3539 0.9767
0.9436 5.3121 -2.3513 0.9767
0.7514 5.3397 -2.3501 0.9767
0.5584 5.3605 -2.3488 0.9768
0.3648 5.3742 -2.3476 0.9768
0.1710 5.3810 -2.3463 0.9768
-0.0228 5.3808 -2.3451 0.9768
-0.4095 5.3596 -2.3426 0.9768
-0.6018 5.3386 -2.3414 0.9768
-0.9834 5.2760 -2.3390 0.9769
-1.1721 5.2345 -2.3378 0.9769
-1.5441 5.1316 -2.3355 0.9769
-1.7271 5.0702 -2.3344 0.9769
-1.9075 5.0024 -2.3333 0.9769
-2.2645 4.8564 -2.3353 0.9769
-2.4324 4.7611 -2.3301 0.9769
-2.6152 4.6937 -2.3417 0.9768
-2.8343 4.6821 -2.3853 0.9764
-3.6081 4.3862 -2.4753 0.9755
-3.7624 4.2519 -2.4744 0.9755
-3.9116 4.1123 -2.4735 0.9755
-4.0559 3.9676 -2.4727 0.9755
-4.1948 3.8178 -2.4720 0.9756
-4.3282 3.6632 -2.4712 0.9756
-4.9082 2.8255 -2.4682 0.9756
-5.0059 2.6465 -2.4678 0.9756
-5.1816 2.2787 -2.4669 0.9756
-5.4526 1.5107 -2.4659 0.9756
-5.5829 0.9139 -2.4655 0.9756
-5.6122 0.7123 -2.4655 0.9756
5.1405 1.8809 -2.5337 0.9762
5.0681 2.0643 -2.5331 0.9762
4.9893 2.2448 -2.5324 0.9762
4.8121 2.5965 -2.5310 0.9762
4.4997 3.0971 -2.5285 0.9762
4.2622 3.4105 -2.5267 0.9762
4.0027 3.7055 -2.5248 0.9762
3.8651 3.8456 -2.5238 0.9763
3.7227 3.9806 -2.5228 0.9763
3.5755 4.1104 -2.5217 0.9763
3.4237 4.2346 -2.5206 0.9763
3.1074 4.4660 -2.5184 0.9763
2.9433 4.5729 -2.5172 0.9763
2.6042 4.7683 -2.5149 0.9763
2.2060 4.8375 -2.4610 0.9768
1.9818 4.7960 -2.4020 0.9774
1.7755 4.7772 -2.3591 0.9778
1.0684 4.9686 -2.3524 0.9778
0.8884 5.0013 -2.3513 0.9779
0.7074 5.0275 -2.3501 0.9779
0.5257 5.0471 -2.3489 0.9779
0.3435 5.0602 -2.3477 0.9779
-0.2037 5.0602 -2.3442 0.9779
-0.3856 5.0471 -2.3430 0.9779
-0.5668 5.0274 -2.3419 0.9779
-1.2800 4.8847 -2.3374 0.9780
-1.4544 4.8332 -2.3363 0.9780
-1.6267 4.7756 -2.3353 0.9780
-1.9858 4.6926 -2.3586 0.9778
-2.7750 4.5841 -2.4804 0.9767
-3.2494 4.2535 -2.4777 0.9767
-3.3993 4.1323 -2.4768 0.9767
-3.9522 3.5971 -2.4737 0.9767
-4.4232 2.9895 -2.4712 0.9767
-4.8028 2.3219 -2.4693 0.9768
-4.8826 2.1472 -2.4690 0.9768
-4.9561 1.9698 -2.4687 0.9768
-5.0232 1.7899 -2.4684 0.9768
-5.0839 1.6078 -2.4682 0.9768
-5.2267 1.0501 -2.4677 0.9768
-5.2610 0.8612 -2.4677 0.9768
-5.2886 0.6713 -2.4676 0.9768
4.7793 1.9466 -2.5313 0.9773
4.7049 2.1169 -2.5307 0.9773
4.6245 2.2843 -2.5300 0.9773
4.5380 2.4486 -2.5293 0.9773
4.4456 2.6096 -2.5286 0.9773
4.3475 2.7671 -2.5278 0.9773
4.0198 3.2165 -2.5253 0.9773
3.9000 3.3580 -2.5245 0.9773
3.5113 3.7546 -2.5216 0.9774
3.3725 3.8771 -2.5206 0.9774
3.2295 3.9943 -2.5196 0.9774
2.7765 4.3138 -2.5164 0.9774
1.7624 4.7420 -2.4815 0.9777
1.3754 4.7149 -2.4091 0.9784
1.1920 4.7110 -2.3837 0.9786
0.8390 4.7231 -2.3531 0.9789
0.6676 4.7442 -2.3501 0.9789
0.4961 4.7629 -2.3489 0.9789
0.3242 4.7754 -2.3478 0.9789
-0.3639 4.7635 -2.3434 0.9789
-1.0520 4.6982 -2.3617 0.9788
-1.4108 4.6885 -2.4017 0.9784
-1.5951 4.6827 -2.4266 0.9782
-2.3035 4.5087 -2.4835 0.9777
-2.4634 4.4211 -2.4826 0.9777
-2.6200 4.3280 -2.4817 0.9777
-2.9225 4.1253 -2.4799 0.9777
-3.0680 4.0160 -2.4790 0.9777
-3.2096 3.9017 -2.4782 0.9777
-3.3469 3.7824 -2.4775 0.9777
-3.6083 3.5297 -2.4760 0.9778
-3.7320 3.3966 -2.4753 0.9778
-4.0734 2.9722 -2.4735 0.9778
-4.1769 2.8231 -2.4729 0.9778
-4.3675 2.5142 -2.4720 0.9778
-4.4544 2.3550 -2.4716 0.9778
-4.6804 1.8602 -2.4705 0.9778
-4.8011 1.5183 -2.4700 0.9778
-4.8523 1.3444 -2.4699 0.9778
-4.9684 0.8133 -2.4696 0.9778
-4.9944 0.6339 -2.4696 0.9778
-5.0141 0.4537 -2.4696 0.9778
4.5161 1.8394 -2.5297 0.9783
4.3699 2.1585 -2.5285 0.9783
4.2883 2.3139 -2.5278 0.9783
4.2011 2.4661 -2.5272 0.9783
4.1084 2.6149 -2.5264 0.9783
4.0104 2.7603 -2.5257 0.9783
3.9072 2.9020 -2.5249 0.9783
3.5679 3.3030 -2.5224 0.9783
3.4455 3.4281 -2.5215 0.9783
2.9134 3.8813 -2.5177 0.9784
2.7707 3.9820 -2.5166 0.9784
2.6245 4.0775 -2.5156 0.9784
2.4750 4.1677 -2.5146 0.9784
2.1668 4.3313 -2.5125 0.9784
1.5200 4.5894 -2.5081 0.9784
1.3532 4.6391 -2.5070 0.9785
1.1848 4.6827 -2.5058 0.9785
1.0082 4.6886 -2.4879 0.9786
0.8332 4.6904 -2.4714 0.9788
0.3186 4.6928 -2.4401 0.9790
0.1492 4.6925 -2.4356 0.9791
-0.0198 4.6917 -2.4340 0.9791
-0.1888 4.6904 -2.4352 0.9791
-0.5282 4.6861 -2.4464 0.9790
-0.8722 4.6795 -2.4695 0.9788
-1.3827 4.5950 -2.4894 0.9786
-1.5466 4.5404 -2.4884 0.9786
-1.7084 4.4800 -2.4874 0.9786
-1.8678 4.4139 -2.4864 0.9786
-2.3302 4.1821 -2.4837 0.9787
-2.6232 4.0008 -2.4819 0.9787
-2.7646 3.9025 -2.4811 0.9787
-2.9024 3.7992 -2.4803 0.9787
-3.1663 3.5783 -2.4788 0.9787
-3.2921 3.4611 -2.4781 0.9787
-3.5308 3.2135 -2.4768 0.9787
-3.6433 3.0835 -2.4762 0.9787
-3.7510 2.9497 -2.4756 0.9787
-3.8540 2.8121 -2.4750 0.9787
-3.9519 2.6710 -2.4745 0.9787
-4.1323 2.3789 -2.4736 0.9787
-4.5428 1.4366 -2.4718 0.9788
-4.6704 0.9383 -2.4714 0.9788
-4.7012 0.7696 -2.4713 0.9788
-4.7443 0.4293 -2.4714 0.9788
4.3360 1.5866 -2.5288 0.9792
4.2752 1.7413 -2.5283 0.9792
4.2087 1.8936 -2.5277 0.9792
3.9771 2.3346 -2.5258 0.9792
3.7967 2.6133 -2.5244 0.9792
3.5967 2.8779 -2.5229 0.9792
3.3781 3.1273 -2.5213 0.9792
3.2623 3.2458 -2.5204 0.9792
3.1422 3.3599 -2.5196 0.9792
3.0181 3.4696 -2.5187 0.9792
2.8902 3.5747 -2.5178 0.9793
2.7587 3.6751 -2.5168 0.9793
2.6236 3.7706 -2.5159 0.9793
2.4852 3.8611 -2.5149 0.9793
2.3436 3.9465 -2.5139 0.9793
2.1992 4.0268 -2.5129 0.9793
2.0520 4.1017 -2.5119 0.9793
1.9022 4.1712 -2.5109 0.9793
1.5958 4.2937 -2.5088 0.9793
1.2816 4.3937 -2.5067 0.9793
1.1222 4.4351 -2.5056 0.9794
0.9614 4.4707 -2.5046 0.9794
0.6366 4.5244 -2.5024 0.9794
0.4732 4.5425 -2.5014 0.9794
0.3092 4.5546 -2.5003 0.9794
0.1450 4.5608 -2.4993 0.9794
-0.0193 4.5612 -2.4982 0.9794
-0.1834 4.5556 -2.4971 0.9794
-0.3471 4.5441 -2.4961 0.9794
-0.6727 4.5037 -2.4940 0.9794
-1.1529 4.3996 -2.4910 0.9795
-1.3100 4.3535 -2.4901 0.9795
-1.4654 4.3019 -2.4891 0.9795
-1.6187 4.2448 -2.4882 0.9795
-1.9185 4.1143 -2.4864 0.9795
-2.0646 4.0411 -2.4855 0.9795
-2.4858 3.7912 -2.4830 0.9795
-3.0006 3.3910 -2.4800 0.9796
-3.2351 3.1647 -2.4787 0.9796
-3.4528 2.9223 -2.4775 0.9796
-3.7454 2.5314 -2.4760 0.9796
-3.8334 2.3945 -2.4755 0.9796
-3.9164 2.2546 -2.4751 0.9796
-3.9945 2.1118 -2.4747 0.9796
-4.0673 1.9664 -2.4744 0.9796
-4.1349 1.8184 -2.4741 0.9796
-4.1973 1.6682 -2.4738 0.9796
-4.2542 1.5159 -2.4736 0.9796
-4.3056 1.3616 -2.4734 0.9796
-4.3516 1.2057 -2.4732 0.9796
-4.4791 0.5685 -2.4729 0.9796
-4.4967 0.4069 -2.4730 0.9796
4.1111 1.5043 -2.5274 0.9800
4.0535 1.6510 -2.5269 0.9800
3.9225 1.9375 -2.5258 0.9800
3.8493 2.0770 -2.5252 0.9800
3.7711 2.2137 -2.5246 0.9800
3.6001 2.4779 -2.5233 0.9800
3.4106 2.7290 -2.5218 0.9800
3.2034 2.9655 -2.5203 0.9800
2.3569 3.6619 -2.5143 0.9801
1.9462 3.8903 -2.5114 0.9801
1.6600 4.0171 -2.5095 0.9801
1.5137 4.0726 -2.5085 0.9801
1.3655 4.1228 -2.5075 0.9801
1.2157 4.1677 -2.5065 0.9801
1.0645 4.2070 -2.5055 0.9802
0.7584 4.2693 -2.5035 0.9802
-0.0183 4.3273 -2.4984 0.9802
-0.1740 4.3221 -2.4974 0.9802
-0.3294 4.3114 -2.4964 0.9802
-0.4842 4.2950 -2.4954 0.9802
-0.9433 4.2129 -2.4925 0.9803
-1.0939 4.1746 -2.4916 0.9803
-1.2431 4.1310 -2.4907 0.9803
-1.3905 4.0821 -2.4898 0.9803
-2.0954 3.7607 -2.4855 0.9803
-2.6103 3.4168 -2.4825 0.9803
-2.7308 3.3197 -2.4818 0.9803
-3.1758 2.8905 -2.4793 0.9804
-3.3741 2.6533 -2.4783 0.9804
-3.5549 2.4027 -2.4773 0.9804
-3.6385 2.2728 -2.4769 0.9804
-3.7915 2.0045 -2.4761 0.9804
-3.8607 1.8665 -2.4758 0.9804
-3.9249 1.7261 -2.4755 0.9804
-4.0381 1.4389 -2.4750 0.9804
-4.2019 0.8442 -2.4745 0.9804
-4.2517 0.5397 -2.4744 0.9804
-4.2684 0.3863 -2.4745 0.9804
