ply
format ascii 1.0
element vertex 548
property float32 x
property float32 y
property float32 z
property float32 I
end_header
47.8549 -7.4482 8.5397 0.8214
47.8713 -5.6967 8.5006 0.8222
48.1424 -2.2414 8.4980 0.8222
48.1303 2.9567 8.5027 0.8221
48.0060 4.6864 8.5050 0.8221
45.2054 6.0606 8.0422 0.8309
44.3440 10.9059 8.0520 0.8307
46.4883 13.2226 8.5223 0.8218
43.9043 15.9780 8.2382 0.8272
44.6271 18.0833 8.4904 0.8224
46.5418 -7.2438 7.2158 0.8265
46.5573 -5.5404 7.1827 0.8272
46.5730 -3.8503 7.1591 0.8277
45.4216 -2.1148 6.9659 0.8319
46.6045 -0.4924 7.1399 0.8281
46.6365 2.8649 7.1579 0.8277
46.6866 7.9772 7.2558 0.8256
46.7219 11.4907 7.3708 0.8231
46.7402 13.2943 7.4443 0.8215
46.7591 15.1367 7.5292 0.8196
2.5689 7.6805 1.2407 0.9678
48.5971 -7.5637 6.4046 0.8201
48.6138 -5.7851 6.3752 0.8208
48.6304 -4.0204 6.3543 0.8213
44.7135 -2.0818 5.8289 0.8348
48.6636 -0.5141 6.3374 0.8218
48.6969 2.9915 6.3533 0.8214
48.7308 6.5333 6.4025 0.8201
46.9937 8.0298 6.2082 0.8251
46.7000 9.7192 6.2116 0.8250
46.5881 11.4578 6.2475 0.8240
46.6055 13.2560 6.3097 0.8225
46.6234 15.0927 6.3815 0.8206
2.5684 7.6787 0.8695 0.9680
2.5681 7.6779 0.6853 0.9680
45.1937 14.6299 0.8024 0.8269
2.5672 7.6753 0.1367 0.9681
45.1963 14.6307 -0.2675 0.8269
37.7662 -4.4942 -1.0709 0.8588
37.7792 -0.3992 -1.0638 0.8597
37.7610 2.3197 -1.0653 0.8595
37.7962 5.0672 -1.0738 0.8585
37.8005 6.4588 -1.0798 0.8577
37.8049 7.8680 -1.0873 0.8568
37.8094 9.2987 -1.0964 0.8557
37.8139 10.7554 -1.1070 0.8544
37.8185 12.2424 -1.1193 0.8529
37.8380 18.6013 -1.1872 0.8447
37.8433 20.3247 -1.2095 0.8421
37.8544 23.9860 -1.2619 0.8358
37.8731 30.1697 -1.3634 0.8239
37.7607 -4.4936 -1.9285 0.8587
37.6805 -3.1151 -1.9175 0.8595
37.7737 -0.3991 -1.9158 0.8596
37.7555 2.3193 -1.9183 0.8594
37.7864 3.6888 -1.9254 0.8589
37.7907 5.0665 -1.9337 0.8584
37.7950 6.4579 -1.9445 0.8576
37.7994 7.8668 -1.9580 0.8567
37.8037 9.2973 -1.9743 0.8556
37.8127 12.2406 -2.0156 0.8528
37.8319 18.5983 -2.1379 0.8446
37.8370 20.3214 -2.1781 0.8420
37.8424 22.1129 -2.2228 0.8390
37.8479 23.9819 -2.2723 0.8357
37.8537 25.9386 -2.3272 0.8321
37.8598 27.9948 -2.3879 0.8281
31.3777 24.9955 -2.0345 0.8516
32.7973 37.5201 -2.5273 0.8191
34.9085 -4.1541 -2.5776 0.8685
35.1264 -0.3711 -2.5757 0.8686
35.0994 0.8915 -2.5744 0.8686
35.0228 2.1515 -2.5728 0.8687
34.4980 5.8945 -2.5661 0.8690
33.9063 8.3388 -2.5602 0.8693
33.5398 9.5397 -2.5568 0.8695
33.1273 10.7238 -2.5531 0.8697
32.6695 11.8893 -2.5491 0.8698
32.1674 13.0345 -2.5449 0.8701
31.6221 14.1575 -2.5404 0.8703
30.4063 16.3305 -2.5306 0.8707
29.0315 18.3954 -2.5200 0.8712
28.4264 22.6445 -2.6648 0.8644
27.5254 23.5930 -2.6581 0.8647
25.6254 25.3777 -2.6444 0.8653
24.6299 26.2118 -2.6372 0.8657
23.6064 27.0057 -2.6300 0.8660
21.4822 28.4696 -2.6150 0.8667
13.4258 32.2300 -2.5600 0.8693
27.6177 -4.2985 -2.6834 0.8938
27.7544 -3.3028 -2.6834 0.8938
27.8526 -2.3026 -2.6831 0.8938
27.9121 -1.2995 -2.6826 0.8938
27.9329 -0.2951 -2.6818 0.8938
27.9150 0.7090 -2.6808 0.8939
27.7636 2.7103 -2.6781 0.8940
27.4590 4.6918 -2.6744 0.8941
26.7210 7.6002 -2.6671 0.8944
26.4020 8.5467 -2.6642 0.8945
25.6577 10.3967 -2.6578 0.8947
25.2339 11.2974 -2.6543 0.8949
24.7767 12.1803 -2.6506 0.8950
24.2869 13.0439 -2.6467 0.8951
23.7655 13.8872 -2.6426 0.8953
22.6313 15.5077 -2.6339 0.8956
22.0206 16.2828 -2.6293 0.8958
20.7171 17.7575 -2.6196 0.8962
19.3119 19.1253 -2.6094 0.8965
18.5740 19.7669 -2.6041 0.8967
17.0337 20.9620 -2.5931 0.8971
13.7303 22.9816 -2.5701 0.8980
10.1981 24.4817 -2.5461 0.8989
22.0155 -3.4265 -2.6466 0.9142
22.2032 -1.8356 -2.6464 0.9142
22.2515 -1.0360 -2.6460 0.9142
22.2694 -0.2353 -2.6454 0.9142
22.2568 0.5653 -2.6446 0.9142
22.2139 1.3646 -2.6437 0.9143
22.1406 2.1614 -2.6425 0.9143
22.0372 2.9545 -2.6411 0.9143
21.9039 3.7426 -2.6396 0.9144
21.5484 5.2996 -2.6359 0.9145
21.0769 6.8229 -2.6316 0.9146
20.4927 8.3038 -2.6265 0.9148
19.0033 11.1044 -2.6145 0.9152
18.1084 12.4084 -2.6076 0.9154
17.6259 13.0332 -2.6039 0.9155
16.0479 14.7885 -2.5922 0.9158
14.2922 16.3503 -2.5796 0.9162
13.0353 17.2753 -2.5707 0.9165
9.6472 19.1519 -2.5473 0.9172
8.9354 19.4494 -2.5425 0.9174
8.2147 19.7203 -2.5376 0.9175
18.2864 -2.8461 -2.6222 0.9280
18.3768 -2.1869 -2.6222 0.9280
18.4424 -1.5247 -2.6220 0.9280
18.4986 -0.1954 -2.6212 0.9280
18.4891 0.4696 -2.6205 0.9280
18.3108 2.4549 -2.6177 0.9281
18.0683 3.7604 -2.6149 0.9282
17.9106 4.4049 -2.6134 0.9282
17.5236 5.6727 -2.6098 0.9283
17.2950 6.2941 -2.6077 0.9283
17.0434 6.9061 -2.6056 0.9284
16.7694 7.5078 -2.6033 0.9285
16.4732 8.0983 -2.6009 0.9285
15.4577 9.7946 -2.5929 0.9287
15.0787 10.3324 -2.5900 0.9288
14.2634 11.3622 -2.5838 0.9290
13.8284 11.8528 -2.5806 0.9291
13.3330 12.2867 -2.5690 0.9294
12.9071 12.7824 -2.5738 0.9292
12.4223 13.2202 -2.5704 0.9293
10.8802 14.4191 -2.5594 0.9296
9.7867 15.1184 -2.5518 0.9298
9.2227 15.4368 -2.5479 0.9299
8.6483 15.7340 -2.5439 0.9300
8.0644 16.0096 -2.5399 0.9301
7.4717 16.2633 -2.5359 0.9302
6.2636 16.7043 -2.5277 0.9305
15.6230 -2.4316 -2.6047 0.9379
15.8052 -0.1670 -2.6039 0.9379
15.7977 0.4013 -2.6033 0.9379
15.6478 2.0979 -2.6009 0.9380
15.4430 3.2140 -2.5986 0.9381
14.7879 5.3817 -2.5925 0.9382
13.8209 7.4229 -2.5844 0.9384
13.5332 7.9080 -2.5822 0.9384
12.9057 8.8434 -2.5773 0.9385
12.2120 9.7281 -2.5721 0.9387
11.0570 10.9501 -2.5636 0.9389
10.6122 11.2938 -2.5530 0.9391
8.8663 12.6734 -2.5480 0.9392
7.4209 13.5011 -2.5380 0.9395
6.9214 13.7406 -2.5346 0.9395
6.4142 13.9616 -2.5311 0.9396
5.5407 13.3010 -2.3737 0.9433
13.6240 -2.1205 -2.5916 0.9454
13.7712 -0.6412 -2.5912 0.9454
13.7526 0.8448 -2.5898 0.9455
13.4711 2.8036 -2.5863 0.9455
13.3555 3.2846 -2.5851 0.9456
13.2223 3.7608 -2.5838 0.9456
13.0715 4.2314 -2.5825 0.9456
12.9035 4.6959 -2.5810 0.9456
12.2986 6.0460 -2.5759 0.9457
11.8146 6.9038 -2.5720 0.9458
11.2695 7.7222 -2.5678 0.9459
10.9750 8.1153 -2.5656 0.9460
9.6617 9.5683 -2.5559 0.9462
8.9308 10.2167 -2.5506 0.9463
8.5485 10.5200 -2.5479 0.9463
7.7534 11.0826 -2.5423 0.9464
7.3417 11.3414 -2.5394 0.9465
6.0567 12.0239 -2.5305 0.9467
4.8501 11.6431 -2.3707 0.9500
12.0668 -1.8781 -2.5814 0.9513
12.1266 -1.4431 -2.5814 0.9513
12.1701 -1.0061 -2.5813 0.9513
12.1974 -0.5679 -2.5811 0.9513
12.2085 -0.1290 -2.5808 0.9513
12.2032 0.3100 -2.5803 0.9513
12.1439 1.1855 -2.5792 0.9513
12.0901 1.6209 -2.5785 0.9514
12.0201 2.0538 -2.5776 0.9514
11.8324 2.9100 -2.5757 0.9514
11.7151 3.3321 -2.5745 0.9514
11.5822 3.7493 -2.5733 0.9514
11.4340 4.1612 -2.5720 0.9515
11.2709 4.5671 -2.5706 0.9515
10.4733 6.1200 -2.5641 0.9516
9.9919 6.8468 -2.5604 0.9517
9.7318 7.1960 -2.5584 0.9517
9.1746 7.8639 -2.5542 0.9518
8.8784 8.1816 -2.5520 0.9518
8.5709 8.4881 -2.5498 0.9519
7.5861 9.3356 -2.5427 0.9520
7.2386 9.5930 -2.5403 0.9521
6.8822 9.8373 -2.5378 0.9521
6.1451 10.2856 -2.5326 0.9522
5.0513 10.0280 -2.3734 0.9551
4.6826 10.1923 -2.3709 0.9552
4.3085 10.3430 -2.3684 0.9552
3.9296 10.4799 -2.3658 0.9553
2.5323 7.5708 -1.6875 0.9679
10.8721 -1.2938 -2.5732 0.9560
10.9357 -0.5091 -2.5729 0.9560
10.8886 1.0630 -2.5712 0.9560
10.7782 1.8416 -2.5698 0.9561
10.6108 2.6096 -2.5681 0.9561
10.5060 2.9882 -2.5671 0.9561
9.9503 4.4548 -2.5622 0.9562
9.3964 5.4907 -2.5577 0.9563
9.1870 5.8212 -2.5561 0.9563
8.7331 6.4575 -2.5526 0.9564
8.4892 6.7625 -2.5508 0.9564
8.2345 7.0580 -2.5489 0.9564
7.6940 7.6196 -2.5449 0.9565
7.4091 7.8849 -2.5429 0.9565
6.8119 8.3828 -2.5386 0.9566
6.5005 8.6148 -2.5364 0.9566
6.1811 8.8351 -2.5342 0.9567
4.5386 9.0101 -2.3711 0.9594
4.2077 9.1587 -2.3688 0.9594
3.5319 9.4192 -2.3642 0.9595
9.7945 -1.5244 -2.5665 0.9599
3.8898 -0.4629 -1.0142 0.9839
3.8437 -0.3178 -0.9986 0.9842
3.8462 -0.1791 -0.9969 0.9842
3.8466 0.0977 -0.9963 0.9842
3.9503 0.3856 -1.0277 0.9837
9.7592 1.6675 -2.5635 0.9599
9.6901 2.0167 -2.5627 0.9599
9.6082 2.3630 -2.5619 0.9599
9.5137 2.7060 -2.5610 0.9600
9.4066 3.0451 -2.5600 0.9600
9.0121 4.0348 -2.5566 0.9600
8.8568 4.3540 -2.5553 0.9600
8.6899 4.6671 -2.5539 0.9601
7.9124 5.8507 -2.5479 0.9602
7.4617 6.3957 -2.5445 0.9602
7.2219 6.6552 -2.5428 0.9602
6.7153 7.1465 -2.5391 0.9603
6.4491 7.3778 -2.5372 0.9603
5.2627 7.5224 -2.3770 0.9628
4.9848 7.7005 -2.3751 0.9628
4.4112 8.0253 -2.3711 0.9629
4.1163 8.1718 -2.3691 0.9629
3.5123 8.4318 -2.3650 0.9630
3.2041 8.5451 -2.3629 0.9630
2.5154 7.5203 -2.0532 0.9678
3.6695 -0.5711 -1.0513 0.9847
3.5825 -0.4263 -1.0213 0.9851
3.5613 -0.2944 -1.0116 0.9853
3.5633 -0.1659 -1.0098 0.9853
3.5646 0.0905 -1.0094 0.9853
3.6399 0.3553 -1.0353 0.9849
8.9072 1.5219 -2.5581 0.9631
8.8444 1.8407 -2.5574 0.9631
8.5864 2.7796 -2.5549 0.9632
8.3579 3.3867 -2.5529 0.9632
8.2272 3.6834 -2.5518 0.9632
7.9338 4.2611 -2.5494 0.9633
7.2255 5.3428 -2.5439 0.9633
6.1341 6.5280 -2.5359 0.9634
5.6413 6.9423 -2.5324 0.9635
5.3842 7.1355 -2.5305 0.9635
4.8086 6.8733 -2.3747 0.9657
4.5550 7.0364 -2.3729 0.9658
4.2958 7.1902 -2.3711 0.9658
3.7622 7.4687 -2.3674 0.9658
3.4885 7.5931 -2.3656 0.9659
3.2107 7.7075 -2.3637 0.9659
2.5069 7.4949 -2.2373 0.9677
3.4094 -0.5306 -1.0613 0.9857
3.3467 -0.3983 -1.0366 0.9860
3.3512 -0.2771 -1.0343 0.9860
3.3533 -0.1561 -1.0325 0.9860
3.3539 -0.0354 -1.0317 0.9861
3.8383 0.5146 -1.1911 0.9839
8.1836 1.3983 -2.5536 0.9659
8.1261 1.6912 -2.5529 0.9659
7.7900 2.8350 -2.5498 0.9659
7.2913 3.9160 -2.5456 0.9660
7.1425 4.1737 -2.5444 0.9660
6.8174 4.6715 -2.5419 0.9660
5.4169 6.1969 -2.5316 0.9661
5.1873 6.3835 -2.5299 0.9662
4.9511 6.5615 -2.5283 0.9662
4.1891 6.4713 -2.3711 0.9683
3.9510 6.6131 -2.3694 0.9683
3.7080 6.7461 -2.3677 0.9683
3.4606 6.8701 -2.3660 0.9683
3.2090 6.9850 -2.3643 0.9683
2.9537 7.0906 -2.3626 0.9684
3.2063 -0.4990 -1.0786 0.9864
3.1736 -0.3777 -1.0624 0.9866
3.1777 -0.2627 -1.0599 0.9866
3.1796 -0.1480 -1.0580 0.9867
3.1801 -0.0336 -1.0571 0.9867
3.1800 0.0808 -1.0574 0.9867
3.1775 0.1952 -1.0582 0.9867
3.1971 0.3121 -1.0678 0.9866
3.2624 0.4374 -1.0941 0.9862
7.5608 1.2919 -2.5497 0.9682
7.5078 1.5625 -2.5491 0.9682
6.9862 3.1278 -2.5444 0.9682
6.7380 3.6188 -2.5423 0.9683
6.6007 3.8571 -2.5412 0.9683
6.4549 4.0900 -2.5401 0.9683
6.3007 4.3174 -2.5389 0.9683
6.1384 4.5390 -2.5377 0.9683
5.9683 4.7543 -2.5364 0.9683
5.4129 5.3606 -2.5323 0.9684
5.2137 5.5485 -2.5308 0.9684
4.5778 6.0667 -2.5263 0.9685
3.4291 6.2387 -2.3664 0.9704
3.2005 6.3537 -2.3648 0.9705
2.9680 6.4603 -2.3632 0.9705
2.7320 6.5584 -2.3616 0.9705
2.4927 6.6478 -2.3600 0.9705
2.2506 6.7285 -2.3584 0.9705
3.0428 -0.3621 -1.0958 0.9871
3.0471 -0.2519 -1.0934 0.9871
3.0496 0.0775 -1.0909 0.9871
3.1027 0.4160 -1.1195 0.9868
7.0186 1.1992 -2.5463 0.9702
6.9695 1.4505 -2.5457 0.9702
6.8439 1.9466 -2.5445 0.9702
6.6825 2.4319 -2.5430 0.9702
6.5886 2.6698 -2.5422 0.9703
6.4862 2.9039 -2.5414 0.9703
6.3753 3.1341 -2.5404 0.9703
5.9936 3.7978 -2.5374 0.9703
5.8507 4.0090 -2.5363 0.9703
5.7002 4.2149 -2.5351 0.9703
5.5424 4.4150 -2.5340 0.9703
5.3774 4.6092 -2.5327 0.9704
5.2056 4.7971 -2.5315 0.9704
5.0272 4.9786 -2.5302 0.9704
4.8424 5.1534 -2.5288 0.9704
4.0446 5.7813 -2.5231 0.9705
3.3943 5.6813 -2.3666 0.9723
3.1859 5.7961 -2.3652 0.9723
2.7578 6.0026 -2.3623 0.9723
2.3164 6.1774 -2.3593 0.9724
2.9214 -0.4547 -1.1330 0.9874
2.9264 -0.2419 -1.1253 0.9875
2.9297 -0.1364 -1.1239 0.9875
2.9307 -0.0310 -1.1231 0.9875
2.9255 0.1797 -1.1232 0.9875
2.9242 0.2855 -1.1259 0.9875
2.9645 0.3974 -1.1462 0.9873
6.4962 1.3520 -2.5428 0.9720
6.3794 1.8145 -2.5416 0.9720
6.3084 2.0421 -2.5410 0.9720
6.1418 2.4887 -2.5395 0.9720
5.8322 3.1323 -2.5370 0.9720
5.5878 3.5406 -2.5350 0.9721
5.3146 3.9297 -2.5329 0.9721
4.8539 4.4730 -2.5295 0.9721
4.6878 4.6424 -2.5283 0.9721
4.5156 4.8056 -2.5270 0.9721
4.3377 4.9623 -2.5257 0.9722
3.7722 5.3919 -2.5217 0.9722
2.5725 5.5995 -2.3614 0.9739
2.1610 5.7631 -2.3587 0.9740
2.8165 -0.1311 -1.1540 0.9879
2.8175 -0.0298 -1.1532 0.9879
2.8161 0.0715 -1.1529 0.9879
2.8131 0.1728 -1.1535 0.9879
2.8358 0.3802 -1.1710 0.9877
6.0763 1.2646 -2.5402 0.9735
6.0257 1.4819 -2.5396 0.9735
5.9672 1.6972 -2.5391 0.9735
5.9009 1.9102 -2.5385 0.9735
5.8269 2.1206 -2.5378 0.9736
5.7453 2.3280 -2.5371 0.9736
5.6562 2.5323 -2.5364 0.9736
5.4561 2.9303 -2.5347 0.9736
5.3454 3.1235 -2.5338 0.9736
5.2277 3.3125 -2.5329 0.9736
5.1033 3.4969 -2.5320 0.9736
4.9723 3.6767 -2.5310 0.9736
4.8349 3.8515 -2.5299 0.9736
4.6914 4.0211 -2.5288 0.9736
4.3864 4.3440 -2.5266 0.9737
4.2254 4.4968 -2.5254 0.9737
4.0591 4.6436 -2.5242 0.9737
3.8876 4.7842 -2.5230 0.9737
3.7113 4.9184 -2.5218 0.9737
2.2168 5.3216 -2.3594 0.9754
2.0229 5.3949 -2.3581 0.9754
2.7222 -0.4237 -1.2007 0.9881
2.7165 -0.3233 -1.1923 0.9881
2.7214 -0.2250 -1.1901 0.9882
2.7250 -0.0288 -1.1877 0.9882
2.7231 0.0692 -1.1872 0.9882
2.7207 0.1671 -1.1880 0.9882
2.7276 0.2663 -1.1944 0.9881
2.7307 0.3661 -1.2008 0.9881
2.7546 0.4707 -1.2179 0.9879
5.6536 1.3904 -2.5373 0.9749
5.5988 1.5924 -2.5368 0.9749
5.4673 1.9897 -2.5356 0.9749
5.3908 2.1844 -2.5350 0.9749
5.3073 2.3761 -2.5342 0.9749
4.9057 3.1084 -2.5310 0.9750
4.4028 3.7738 -2.5272 0.9750
4.2625 3.9280 -2.5262 0.9750
4.1168 4.0770 -2.5251 0.9750
3.9659 4.2205 -2.5240 0.9750
3.8099 4.3585 -2.5229 0.9751
3.4836 4.6167 -2.5206 0.9751
3.1399 4.8504 -2.5182 0.9751
1.8993 5.0652 -2.3576 0.9767
1.7151 5.1275 -2.3564 0.9767
2.6413 -0.3143 -1.2313 0.9883
2.6494 -0.1234 -1.2277 0.9884
2.6480 0.0673 -1.2261 0.9884
2.6386 0.3538 -1.2323 0.9883
2.6463 0.4522 -1.2427 0.9882
3.1114 0.6476 -1.4711 0.9861
5.3186 1.3080 -2.5353 0.9761
5.2671 1.4981 -2.5348 0.9762
5.2088 1.6861 -2.5342 0.9762
4.9932 2.2355 -2.5324 0.9762
4.9083 2.4129 -2.5317 0.9762
4.6157 2.9247 -2.5293 0.9762
4.3906 3.2466 -2.5276 0.9762
4.0110 3.6963 -2.5248 0.9762
3.8740 3.8365 -2.5238 0.9763
3.4341 4.2260 -2.5206 0.9763
3.1188 4.4579 -2.5184 0.9763
2.6171 4.7612 -2.5149 0.9763
2.2243 4.8414 -2.4662 0.9768
1.9989 4.7986 -2.4062 0.9773
1.7912 4.7768 -2.3614 0.9778
1.6145 4.8269 -2.3560 0.9778
2.6041 -0.3099 -1.2864 0.9884
2.6011 -0.1211 -1.2773 0.9885
2.6011 -0.0275 -1.2760 0.9885
2.6028 0.0661 -1.2771 0.9885
2.6038 0.1600 -1.2797 0.9884
2.6128 0.4464 -1.3002 0.9883
5.0152 1.2334 -2.5334 0.9773
4.8504 1.7652 -2.5319 0.9773
4.7827 1.9380 -2.5313 0.9773
4.7087 2.1081 -2.5306 0.9773
4.5426 2.4397 -2.5293 0.9773
4.4507 2.6007 -2.5286 0.9773
4.0267 3.2077 -2.5253 0.9773
3.2393 3.9863 -2.5196 0.9774
3.0926 4.0985 -2.5185 0.9774
2.9420 4.2052 -2.5175 0.9774
2.6299 4.4020 -2.5153 0.9774
2.4689 4.4917 -2.5142 0.9774
2.3048 4.5755 -2.5130 0.9774
2.1378 4.6533 -2.5119 0.9774
1.7786 4.7434 -2.4849 0.9777
2.5823 -0.4019 -1.3558 0.9883
2.5806 -0.2133 -1.3433 0.9884
2.5805 -0.1201 -1.3401 0.9884
2.5803 0.0655 -1.3390 0.9884
2.5812 0.1586 -1.3416 0.9884
2.5821 0.2521 -1.3459 0.9884
4.7388 1.1655 -2.5317 0.9782
4.5193 1.8312 -2.5297 0.9783
4.2927 2.3055 -2.5278 0.9783
4.2059 2.4576 -2.5271 0.9783
4.1136 2.6065 -2.5264 0.9783
3.9133 2.8936 -2.5248 0.9783
3.1964 3.6566 -2.5196 0.9784
2.9231 3.8739 -2.5176 0.9784
2.7808 3.9749 -2.5166 0.9784
2.4860 4.1610 -2.5146 0.9784
2.1787 4.3253 -2.5124 0.9784
2.0210 4.3989 -2.5114 0.9784
1.6982 4.5288 -2.5092 0.9784
2.5598 -0.2116 -1.4068 0.9884
2.5596 0.0650 -1.4023 0.9884
2.5589 0.1572 -1.4042 0.9884
2.5579 0.2497 -1.4077 0.9883
2.5551 0.3426 -1.4119 0.9883
2.5935 0.5398 -1.4509 0.9880
4.4858 1.1032 -2.5301 0.9792
4.3934 1.4222 -2.5292 0.9792
4.3386 1.5789 -2.5287 0.9792
4.2782 1.7335 -2.5282 0.9792
4.1406 2.0355 -2.5271 0.9792
4.0638 2.1826 -2.5264 0.9792
3.8944 2.4676 -2.5251 0.9792
3.7049 2.7395 -2.5236 0.9792
3.6029 2.8700 -2.5229 0.9792
3.1501 3.3524 -2.5195 0.9792
3.0265 3.4623 -2.5186 0.9792
2.8990 3.5675 -2.5177 0.9793
2.7678 3.6681 -2.5168 0.9793
2.4952 3.8546 -2.5149 0.9793
2.3541 3.9403 -2.5139 0.9793
2.2101 4.0208 -2.5129 0.9793
2.0633 4.0960 -2.5119 0.9793
1.9139 4.1658 -2.5109 0.9793
1.7621 4.2302 -2.5099 0.9793
1.6083 4.2890 -2.5088 0.9793
2.5380 -0.3950 -1.4830 0.9882
2.5370 -0.3019 -1.4751 0.9883
2.5371 -0.2097 -1.4698 0.9883
2.5373 -0.1181 -1.4665 0.9883
2.5373 -0.0268 -1.4650 0.9883
2.5373 0.2477 -1.4719 0.9883
2.5350 0.3399 -1.4767 0.9883
2.5336 0.4329 -1.4840 0.9882
4.1136 1.4971 -2.5274 0.9800
4.0563 1.6436 -2.5269 0.9800
3.9938 1.7880 -2.5263 0.9800
3.8532 2.0695 -2.5252 0.9800
3.6927 2.3398 -2.5239 0.9800
3.1007 3.0707 -2.5195 0.9800
2.9873 3.1791 -2.5186 0.9801
2.8701 3.2834 -2.5178 0.9801
2.6250 3.4787 -2.5161 0.9801
2.4973 3.5696 -2.5152 0.9801
2.2327 3.7370 -2.5133 0.9801
2.0961 3.8135 -2.5124 0.9801
1.9569 3.8849 -2.5114 0.9801
1.5255 4.0682 -2.5085 0.9801
1.3777 4.1188 -2.5075 0.9801
