ply
format ascii 1.0
element vertex 521
property float32 x
property float32 y
property float32 z
property float32 I
end_header
-5.6628 29.1285 5.2323 0.8865
-6.8007 25.2498 4.6109 0.8992
-7.7915 25.3102 4.6695 0.8980
-8.8169 25.3945 4.7399 0.8966
-10.9788 25.5912 4.9101 0.8931
2.4557 7.7850 1.2505 0.9675
-1.6891 33.8587 5.1934 0.8718
-2.3433 27.3759 4.2092 0.8948
-3.3848 27.8529 4.2983 0.8927
-4.3485 27.5638 4.2748 0.8932
-6.0623 26.1799 4.1167 0.8970
-6.6489 24.6861 3.9165 0.9017
-0.4848 33.8880 4.4134 0.8722
-3.4416 28.3207 3.7151 0.8913
-4.4127 27.9708 3.6874 0.8921
-6.5047 24.1507 3.2570 0.9040
-7.4454 24.1857 3.2953 0.9030
-9.4057 24.2702 3.3895 0.9003
-1.5775 31.6209 3.3997 0.8804
-3.4181 28.1274 3.0426 0.8923
-5.4709 28.1413 3.0784 0.8911
-8.2291 23.7015 2.6941 0.9040
-9.1992 23.7376 2.7337 0.9027
-10.2009 23.7780 2.7784 0.9011
25.6977 35.5851 3.7157 0.8384
-1.5798 31.6665 2.6840 0.8805
-3.4830 28.6612 2.4441 0.8906
-5.6569 29.0979 2.5093 0.8878
-6.3914 23.7303 2.0804 0.9061
-8.1966 23.6080 2.1155 0.9045
-9.1525 23.6171 2.1441 0.9033
-10.1359 23.6264 2.1763 0.9019
-4.6979 29.7786 1.8694 0.8862
-7.1773 36.9188 2.3322 0.8601
-6.3923 23.7334 1.5242 0.9062
-6.9759 22.6605 1.4703 0.9094
-5.2951 33.5643 1.3398 0.8728
-6.1927 26.7428 1.0824 0.8959
-6.9570 20.0376 0.8364 0.9186
-5.2939 33.5568 0.5739 0.8729
-6.3940 23.7398 0.4153 0.9063
-7.0359 20.2647 0.3624 0.9178
-10.0215 23.3597 0.4294 0.9033
2.4506 7.7686 -0.0459 0.9679
-0.7978 6.5656 -0.0372 0.9739
-1.0356 6.5646 -0.0374 0.9738
-1.2760 6.5636 -0.0376 0.9736
-1.5196 6.5626 -0.0379 0.9734
-1.7672 6.5616 -0.0383 0.9732
-2.0196 6.5606 -0.0386 0.9729
-2.2774 6.5595 -0.0391 0.9726
-2.5416 6.5584 -0.0396 0.9723
37.8656 27.3476 -1.3152 0.8295
2.4498 7.7663 -0.2293 0.9679
-0.0928 6.4848 -0.1826 0.9744
-1.0356 6.5647 -0.1871 0.9738
-1.5196 6.5627 -0.1897 0.9734
-1.7673 6.5616 -0.1913 0.9732
-2.0196 6.5606 -0.1933 0.9729
-2.5416 6.5584 -0.1981 0.9722
-2.8131 6.5573 -0.2009 0.9719
37.8714 31.6773 -2.5039 0.8206
32.0043 38.2664 -2.5299 0.8189
30.4950 39.2131 -2.5192 0.8196
9.8065 48.6412 -2.5164 0.8198
1.0355 48.7541 -2.4731 0.8226
-0.5621 6.5666 -0.3342 0.9739
-0.7979 6.5657 -0.3354 0.9739
-1.0356 6.5647 -0.3370 0.9737
-1.2760 6.5637 -0.3391 0.9736
-2.2774 6.5596 -0.3521 0.9726
28.7857 22.3882 -2.6738 0.8639
27.9033 23.3395 -2.6673 0.8642
26.9878 24.2547 -2.6605 0.8646
26.0409 25.1327 -2.6536 0.8649
25.0642 25.9725 -2.6465 0.8652
24.0594 26.7732 -2.6392 0.8656
23.0280 27.5342 -2.6319 0.8659
21.9722 28.2538 -2.6243 0.8663
20.8934 28.9322 -2.6167 0.8666
19.7934 29.5685 -2.6089 0.8670
18.6739 30.1623 -2.6011 0.8674
12.8463 32.4787 -2.5609 0.8693
2.4484 7.7616 -0.5967 0.9679
9.2279 33.3394 -2.5364 0.8705
6.7928 33.6927 -2.5201 0.8712
4.0893 31.8082 -2.3514 0.8793
2.9490 31.8527 -2.3455 0.8796
1.8164 31.9580 -2.3470 0.8795
-0.0928 6.4848 -0.4755 0.9743
-0.7979 6.5657 -0.4849 0.9738
-1.5196 6.5627 -0.4939 0.9733
-2.0196 6.5606 -0.5033 0.9728
-2.2774 6.5596 -0.5091 0.9725
-2.8131 6.5574 -0.5232 0.9718
20.3082 18.2516 -2.6214 0.8961
19.6084 18.9245 -2.6162 0.8963
17.3750 20.7746 -2.6001 0.8969
16.5899 21.3327 -2.5945 0.8971
14.9663 22.3576 -2.5830 0.8975
12.4157 23.6590 -2.5651 0.8982
11.5398 24.0283 -2.5591 0.8984
9.7573 24.6687 -2.5468 0.8989
2.4476 7.7593 -0.7811 0.9678
6.1037 25.5516 -2.5221 0.8998
-0.0928 6.4848 -0.6226 0.9743
-0.7979 6.5657 -0.6350 0.9738
-1.0356 6.5647 -0.6380 0.9736
-1.7673 6.5617 -0.6524 0.9731
-2.2775 6.5596 -0.6666 0.9725
-2.5416 6.5585 -0.6753 0.9721
-2.8131 6.5574 -0.6850 0.9717
17.3143 13.4663 -2.6055 0.9154
16.2651 14.6180 -2.5977 0.9157
15.7107 15.1628 -2.5936 0.9158
13.3143 17.1207 -2.5763 0.9163
12.0218 17.9589 -2.5671 0.9166
10.6765 18.6983 -2.5577 0.9169
9.9866 19.0301 -2.5529 0.9171
8.5769 19.6161 -2.5431 0.9174
2.4469 7.7570 -0.9662 0.9678
4.6257 19.3643 -2.3649 0.9229
3.9269 19.4777 -2.3602 0.9231
2.5305 19.6827 -2.3573 0.9232
-0.0928 6.4849 -0.7704 0.9742
-0.5621 6.5667 -0.7829 0.9738
-1.2760 6.5638 -0.7943 0.9734
-2.2775 6.5596 -0.8248 0.9724
-2.5417 6.5586 -0.8355 0.9721
-2.8131 6.5574 -0.8476 0.9717
14.4195 11.2148 -2.5883 0.9289
13.9946 11.7057 -2.5851 0.9289
12.6197 13.0770 -2.5749 0.9292
11.6265 13.9013 -2.5677 0.9294
11.1091 14.2850 -2.5640 0.9295
10.5789 14.6491 -2.5603 0.9296
10.0365 14.9932 -2.5564 0.9297
8.3451 15.9021 -2.5446 0.9300
7.7624 16.1629 -2.5405 0.9301
2.4462 7.7546 -1.1521 0.9677
4.4552 16.0962 -2.3664 0.9348
3.8740 16.2175 -2.3625 0.9349
3.2908 16.3226 -2.3593 0.9349
2.7093 16.4325 -2.3597 0.9349
2.1205 16.4939 -2.3562 0.9350
0.9408 16.5522 -2.3491 0.9352
-0.5621 6.5668 -0.9338 0.9737
-1.0356 6.5648 -0.9417 0.9735
-1.2760 6.5638 -0.9474 0.9733
-1.5197 6.5628 -0.9545 0.9732
-1.7673 6.5618 -0.9629 0.9729
-2.0196 6.5607 -0.9726 0.9726
-2.5417 6.5586 -0.9966 0.9720
11.9811 10.0215 -2.5732 0.9386
11.6048 10.4295 -2.5704 0.9387
11.2143 10.8231 -2.5675 0.9388
10.7781 11.1687 -2.5569 0.9390
10.3929 11.5652 -2.5615 0.9389
9.9338 11.8775 -2.5508 0.9392
8.6063 12.8566 -2.5487 0.9392
7.1605 13.6449 -2.5386 0.9394
3.8281 13.8306 -2.3641 0.9435
3.3304 13.9419 -2.3614 0.9435
1.8228 14.1777 -2.3548 0.9437
0.8090 14.2330 -2.3485 0.9438
0.3023 14.2316 -2.3450 0.9439
-0.3235 6.4840 -1.0695 0.9740
-0.5621 6.5668 -1.0857 0.9736
-1.2760 6.5638 -1.1016 0.9733
-1.7673 6.5618 -1.1195 0.9728
-2.2775 6.5597 -1.1439 0.9722
11.0796 8.0020 -2.5689 0.9459
8.3238 10.7035 -2.5486 0.9463
7.5258 11.2425 -2.5429 0.9464
6.2647 11.9378 -2.5340 0.9466
5.4746 11.3992 -2.3769 0.9498
2.4446 7.7499 -1.5274 0.9675
3.3537 12.1165 -2.3630 0.9501
2.0394 12.3698 -2.3564 0.9503
0.2649 12.4735 -2.3451 0.9505
-0.0928 6.4850 -1.2190 0.9739
-0.3235 6.4840 -1.2202 0.9739
-0.7979 6.5658 -1.2432 0.9734
-1.2760 6.5639 -1.2568 0.9732
-1.5197 6.5629 -1.2662 0.9730
-2.5417 6.5586 -1.3221 0.9718
-2.8132 6.5575 -1.3412 0.9714
9.8231 7.0945 -2.5613 0.9517
9.2796 7.7618 -2.5572 0.9517
7.0374 9.7451 -2.5409 0.9520
6.3148 10.1997 -2.5358 0.9521
5.5803 9.7731 -2.3789 0.9550
4.8619 10.1234 -2.3739 0.9551
2.9811 10.7705 -2.3623 0.9553
2.5940 10.8590 -2.3599 0.9554
2.2043 10.9335 -2.3576 0.9554
1.4194 11.0406 -2.3530 0.9555
-0.0928 6.4850 -1.3709 0.9738
-0.3235 6.4840 -1.3723 0.9738
-0.7979 6.5659 -1.3981 0.9733
-1.2760 6.5639 -1.4134 0.9730
-1.7673 6.5619 -1.4365 0.9726
-2.0197 6.5608 -1.4510 0.9723
-2.2775 6.5598 -1.4678 0.9720
-2.8132 6.5576 -1.5083 0.9712
8.8141 6.3657 -2.5553 0.9563
7.7999 7.5279 -2.5477 0.9564
7.5215 7.7940 -2.5456 0.9565
7.2338 8.0497 -2.5435 0.9565
6.9373 8.2947 -2.5414 0.9565
6.6325 8.5286 -2.5392 0.9566
5.3265 8.6034 -2.3781 0.9593
5.0128 8.7791 -2.3759 0.9593
4.3683 9.0957 -2.3714 0.9594
4.0385 9.2362 -2.3692 0.9594
3.7041 9.3648 -2.3669 0.9595
2.4102 7.6407 -1.8830 0.9676
2.3317 9.7609 -2.3586 0.9596
1.9816 9.8288 -2.3565 0.9596
0.9218 9.9564 -2.3500 0.9597
0.5668 9.9725 -2.3475 0.9598
0.2119 9.9759 -2.3451 0.9598
-0.0928 6.4850 -1.5243 0.9737
-0.3235 6.4841 -1.5258 0.9737
-0.5621 6.5669 -1.5490 0.9733
-0.7979 6.5659 -1.5545 0.9732
-1.2760 6.5639 -1.5715 0.9729
-2.0197 6.5609 -1.6133 0.9722
-2.2775 6.5598 -1.6320 0.9719
-2.5417 6.5587 -1.6531 0.9715
-2.8132 6.5576 -1.6770 0.9711
7.9851 5.7670 -2.5503 0.9601
7.7701 6.0432 -2.5487 0.9601
7.3114 6.5709 -2.5452 0.9602
7.0683 6.8218 -2.5434 0.9602
6.5562 7.2958 -2.5397 0.9603
6.0122 7.7310 -2.5357 0.9603
5.1079 7.6305 -2.3775 0.9628
4.2562 8.1103 -2.3715 0.9629
3.9618 8.2493 -2.3694 0.9629
3.6630 8.3775 -2.3674 0.9629
3.3600 8.4949 -2.3653 0.9630
2.6736 7.5315 -2.0693 0.9675
2.4021 7.6149 -2.0674 0.9675
0.8366 9.0358 -2.3495 0.9632
0.1923 9.0555 -2.3451 0.9633
-0.3235 6.4841 -1.6809 0.9735
-1.0357 6.5649 -1.7208 0.9729
-1.2761 6.5640 -1.7313 0.9727
-1.5197 6.5630 -1.7442 0.9725
-1.7673 6.5619 -1.7595 0.9723
-2.2775 6.5598 -1.7979 0.9717
-2.5417 6.5587 -1.8212 0.9714
-2.8132 6.5576 -1.8475 0.9709
6.8906 5.7636 -2.5431 0.9633
6.6773 6.0010 -2.5415 0.9634
6.2261 6.4517 -2.5382 0.9634
5.9888 6.6643 -2.5364 0.9634
5.7442 6.8681 -2.5347 0.9635
4.4130 7.1280 -2.3733 0.9657
3.8896 7.4119 -2.3696 0.9658
3.6210 7.5395 -2.3678 0.9658
2.6551 7.4796 -2.2469 0.9675
2.3939 7.5889 -2.2527 0.9675
1.9340 8.0963 -2.3565 0.9660
1.6439 8.1539 -2.3548 0.9660
1.3521 8.2011 -2.3530 0.9660
0.7650 8.2629 -2.3492 0.9661
0.4705 8.2779 -2.3472 0.9661
0.1759 8.2825 -2.3452 0.9661
-0.0928 6.4851 -1.8360 0.9734
-0.7979 6.5660 -1.8724 0.9729
-1.0357 6.5650 -1.8815 0.9727
-1.2761 6.5640 -1.8930 0.9726
-1.5197 6.5630 -1.9071 0.9724
-1.7673 6.5620 -1.9238 0.9721
-2.2775 6.5599 -1.9658 0.9715
6.7015 4.8400 -2.5426 0.9660
6.5218 5.0723 -2.5412 0.9660
6.3339 5.2979 -2.5398 0.9660
6.1381 5.5164 -2.5383 0.9661
5.9347 5.7277 -2.5368 0.9661
5.5061 6.1271 -2.5337 0.9661
4.8117 6.6630 -2.5279 0.9662
4.2919 6.4115 -2.3731 0.9682
3.8204 6.6907 -2.3698 0.9683
3.5776 6.8173 -2.3681 0.9683
3.3307 6.9351 -2.3663 0.9683
3.0799 7.0439 -2.3646 0.9683
2.8256 7.1436 -2.3629 0.9684
2.3076 7.3153 -2.3593 0.9684
2.0447 7.3870 -2.3575 0.9684
0.9746 7.5802 -2.3507 0.9685
0.7040 7.6043 -2.3489 0.9685
0.1619 7.6234 -2.3453 0.9686
-0.3235 6.4842 -1.9968 0.9732
-1.2761 6.5640 -2.0567 0.9724
-2.0197 6.5610 -2.1114 0.9717
-2.2776 6.5599 -2.1358 0.9714
6.1935 4.4731 -2.5395 0.9683
6.0277 4.6880 -2.5383 0.9683
5.8543 4.8967 -2.5370 0.9683
5.6736 5.0990 -2.5356 0.9684
5.4858 5.2944 -2.5342 0.9684
5.2912 5.4829 -2.5328 0.9684
4.4503 6.1625 -2.5267 0.9685
3.9684 5.9283 -2.3713 0.9704
3.7529 6.0616 -2.3698 0.9704
3.3085 6.3045 -2.3667 0.9704
3.0803 6.4138 -2.3651 0.9705
2.8485 6.5148 -2.3635 0.9705
2.3754 6.6914 -2.3603 0.9705
1.8915 6.8337 -2.3570 0.9706
1.1511 6.9815 -2.3520 0.9706
0.6514 7.0357 -2.3487 0.9707
0.1499 7.0543 -2.3454 0.9707
-0.0928 6.4851 -2.1559 0.9730
-0.5621 6.5670 -2.1909 0.9726
-0.7979 6.5660 -2.1986 0.9725
-2.2986 6.6205 -2.3296 0.9709
5.7511 4.1535 -2.5369 0.9703
5.4364 4.5472 -2.5345 0.9703
5.2688 4.7352 -2.5333 0.9704
4.5351 5.4224 -2.5279 0.9704
4.1338 5.7243 -2.5250 0.9705
3.2820 5.7479 -2.3670 0.9723
2.8620 5.9591 -2.3640 0.9723
2.6467 6.0532 -2.3625 0.9723
2.2073 6.2179 -2.3595 0.9724
1.9837 6.2884 -2.3580 0.9724
1.7578 6.3508 -2.3565 0.9724
1.3006 6.4511 -2.3534 0.9724
1.0699 6.4890 -2.3518 0.9724
0.6055 6.5399 -2.3487 0.9725
0.3725 6.5530 -2.3472 0.9725
0.1393 6.5578 -2.3456 0.9725
-0.0938 6.5543 -2.3441 0.9725
-0.3264 6.5426 -2.3426 0.9726
-0.5583 6.5227 -2.3411 0.9726
-0.7892 6.4946 -2.3396 0.9726
-1.0188 6.4583 -2.3381 0.9726
-1.4731 6.3617 -2.3352 0.9726
-1.9189 6.2335 -2.3324 0.9727
-2.3540 6.0743 -2.3296 0.9727
5.3617 3.8724 -2.5346 0.9721
5.0687 4.2397 -2.5323 0.9721
4.7504 4.5847 -2.5300 0.9721
4.4084 4.9056 -2.5275 0.9721
4.2291 5.0566 -2.5262 0.9722
4.0446 5.2009 -2.5248 0.9722
3.6610 5.4691 -2.5221 0.9722
3.2793 5.2968 -2.3873 0.9737
2.2654 5.7274 -2.3603 0.9740
2.0592 5.8008 -2.3589 0.9740
1.8507 5.8668 -2.3575 0.9740
1.6400 5.9252 -2.3560 0.9740
1.2136 6.0194 -2.3531 0.9740
0.9983 6.0550 -2.3517 0.9741
0.7820 6.0829 -2.3503 0.9741
0.5651 6.1031 -2.3488 0.9741
0.1300 6.1203 -2.3459 0.9741
-0.3046 6.1067 -2.3431 0.9741
-0.7367 6.0623 -2.3403 0.9742
-1.3752 5.9391 -2.3362 0.9742
-1.5845 5.8831 -2.3348 0.9742
-2.3968 5.5870 -2.3297 0.9743
4.8824 3.7973 -2.5315 0.9736
4.7424 3.9667 -2.5304 0.9736
4.5965 4.1310 -2.5293 0.9736
4.4448 4.2898 -2.5282 0.9737
4.2876 4.4430 -2.5270 0.9737
3.9574 4.7318 -2.5246 0.9737
3.6078 4.9959 -2.5221 0.9737
3.4263 5.1183 -2.5208 0.9737
3.2405 5.2341 -2.5195 0.9737
2.9131 5.1018 -2.4045 0.9749
2.6835 5.1136 -2.3635 0.9753
2.4988 5.2029 -2.3623 0.9754
2.3111 5.2855 -2.3610 0.9754
2.1206 5.3613 -2.3596 0.9754
1.9277 5.4302 -2.3583 0.9754
0.5291 5.7147 -2.3489 0.9755
0.3255 5.7266 -2.3475 0.9755
-1.2882 5.5630 -2.3371 0.9756
-1.4842 5.5108 -2.3358 0.9756
-1.6782 5.4517 -2.3346 0.9756
-2.0590 5.3133 -2.3322 0.9757
-2.2454 5.2342 -2.3310 0.9757
4.5818 3.5635 -2.5297 0.9750
4.4505 3.7226 -2.5287 0.9750
4.1715 4.0260 -2.5266 0.9750
3.7145 4.4412 -2.5233 0.9751
3.5526 4.5683 -2.5221 0.9751
1.9910 5.0335 -2.3590 0.9767
1.4416 5.2085 -2.3553 0.9767
1.2550 5.2536 -2.3540 0.9767
1.0670 5.2920 -2.3528 0.9767
0.8777 5.3237 -2.3515 0.9767
0.6877 5.3487 -2.3502 0.9767
0.1144 5.3828 -2.3464 0.9768
-0.4584 5.3558 -2.3427 0.9768
-0.6481 5.3333 -2.3414 0.9768
-1.0242 5.2684 -2.3390 0.9769
-1.2101 5.2260 -2.3378 0.9769
-1.3944 5.1771 -2.3367 0.9769
-1.5767 5.1217 -2.3355 0.9769
-1.7568 5.0600 -2.3344 0.9769
-1.9346 4.9920 -2.3333 0.9769
-2.1097 4.9178 -2.3322 0.9769
4.1878 3.5028 -2.5271 0.9762
4.0591 3.6480 -2.5262 0.9762
3.9254 3.7884 -2.5252 0.9762
3.6434 4.0543 -2.5231 0.9763
3.4955 4.1794 -2.5220 0.9763
3.1871 4.4133 -2.5198 0.9763
2.8629 4.6242 -2.5175 0.9763
2.6955 4.7208 -2.5163 0.9763
2.5249 4.8114 -2.5151 0.9763
2.3368 4.8655 -2.4985 0.9765
2.1057 4.8159 -2.4330 0.9771
1.5313 4.8544 -2.3562 0.9778
1.3571 4.9033 -2.3550 0.9778
0.6474 5.0359 -2.3502 0.9779
0.4679 5.0531 -2.3490 0.9779
0.2879 5.0640 -2.3478 0.9779
0.1077 5.0684 -2.3466 0.9779
-0.0724 5.0665 -2.3454 0.9779
-1.4850 4.8240 -2.3363 0.9780
-2.0127 4.6915 -2.3630 0.9777
4.1771 3.0168 -2.5274 0.9773
4.0659 3.1622 -2.5266 0.9773
3.9496 3.3036 -2.5257 0.9773
3.8283 3.4406 -2.5248 0.9773
3.7023 3.5731 -2.5239 0.9773
3.2971 3.9422 -2.5209 0.9774
2.8553 4.2653 -2.5178 0.9774
2.7007 4.3622 -2.5167 0.9774
2.3820 4.5390 -2.5144 0.9774
1.8811 4.7557 -2.5087 0.9775
1.3046 4.7134 -2.3990 0.9784
1.1252 4.7100 -2.3754 0.9787
0.9511 4.7174 -2.3606 0.9788
0.4415 4.7685 -2.3491 0.9789
-0.2381 4.7738 -2.3446 0.9789
-0.4074 4.7601 -2.3435 0.9789
-0.5761 4.7404 -2.3424 0.9789
-0.7439 4.7158 -2.3418 0.9790
-0.9146 4.7046 -2.3509 0.9789
-1.2638 4.6926 -2.3839 0.9786
-1.8117 4.6750 -2.4594 0.9779
-1.9977 4.6566 -2.4855 0.9777
3.9474 2.8509 -2.5261 0.9783
3.7326 3.1221 -2.5244 0.9783
3.6180 3.2516 -2.5236 0.9783
3.3756 3.4979 -2.5218 0.9783
3.2479 3.6143 -2.5209 0.9783
2.9807 3.8329 -2.5189 0.9784
2.6988 4.0317 -2.5169 0.9784
2.5529 4.1233 -2.5159 0.9784
2.2516 4.2906 -2.5138 0.9784
1.4546 4.6110 -2.5083 0.9784
1.1197 4.6870 -2.4999 0.9785
0.6032 4.6920 -2.4542 0.9789
0.2668 4.6927 -2.4384 0.9790
0.0997 4.6922 -2.4348 0.9791
-0.2339 4.6898 -2.4360 0.9791
-0.7387 4.6822 -2.4591 0.9789
-0.9095 4.6786 -2.4726 0.9788
-1.0824 4.6744 -2.4891 0.9786
-1.2485 4.6354 -2.4905 0.9786
-1.4118 4.5862 -2.4894 0.9786
-1.5732 4.5313 -2.4884 0.9786
3.6378 2.8292 -2.5240 0.9792
3.4254 3.0785 -2.5225 0.9792
3.0752 3.4221 -2.5199 0.9792
2.6906 3.7258 -2.5171 0.9793
2.5556 3.8176 -2.5161 0.9793
2.4173 3.9045 -2.5152 0.9793
2.1322 4.0631 -2.5132 0.9793
1.6856 4.2616 -2.5101 0.9793
1.3776 4.3669 -2.5079 0.9793
1.2210 4.4112 -2.5069 0.9793
0.4211 4.5478 -2.5015 0.9794
0.2591 4.5580 -2.5004 0.9794
0.0969 4.5623 -2.4994 0.9794
-0.0652 4.5609 -2.4983 0.9794
-0.2272 4.5538 -2.4972 0.9794
-0.5496 4.5224 -2.4951 0.9794
-0.7096 4.4981 -2.4941 0.9794
-0.8687 4.4682 -2.4931 0.9795
-1.0264 4.4328 -2.4921 0.9795
-1.1829 4.3917 -2.4911 0.9795
-1.3376 4.3452 -2.4901 0.9795
-1.7904 4.1734 -2.4873 0.9795
3.1414 3.0319 -2.5206 0.9800
3.0307 3.1406 -2.5198 0.9800
2.9162 3.2452 -2.5190 0.9800
2.7982 3.3456 -2.5181 0.9801
2.6766 3.4417 -2.5172 0.9801
2.2926 3.7030 -2.5145 0.9801
2.1588 3.7807 -2.5136 0.9801
1.8834 3.9215 -2.5116 0.9801
1.7421 3.9844 -2.5107 0.9801
1.5988 4.0422 -2.5097 0.9801
1.4536 4.0948 -2.5087 0.9801
1.3067 4.1422 -2.5077 0.9801
1.1582 4.1843 -2.5067 0.9801
1.0084 4.2211 -2.5056 0.9802
0.8574 4.2526 -2.5046 0.9802
0.7055 4.2786 -2.5036 0.9802
0.2458 4.3241 -2.5005 0.9802
0.0920 4.3283 -2.4995 0.9802
-0.2155 4.3204 -2.4975 0.9802
-0.3687 4.3083 -2.4965 0.9802
-0.6733 4.2679 -2.4945 0.9802
-0.8242 4.2396 -2.4936 0.9802
-0.9739 4.2060 -2.4926 0.9803
-1.1224 4.1672 -2.4917 0.9803
-1.2692 4.1231 -2.4907 0.9803
-1.4144 4.0739 -2.4898 0.9803
-1.6990 3.9603 -2.4880 0.9803
