ply
format ascii 1.0
element vertex 647
property float32 x
property float32 y
property float32 z
property float32 I
end_header
0.1095 32.5382 5.7374 0.8762
-1.0281 31.4849 5.5546 0.8799
-2.2766 33.1099 5.8520 0.8739
-2.8876 27.4892 4.8738 0.8938
-3.8629 27.2799 4.8582 0.8941
-6.2114 28.7629 5.1886 0.8873
-6.4091 25.2373 4.5913 0.8996
-7.4000 25.2859 4.6456 0.8985
-8.4268 25.3681 4.7134 0.8971
-9.4878 25.4593 4.7907 0.8955
-10.5884 25.5604 4.8784 0.8937
-11.7346 25.6722 4.9772 0.8917
-15.4387 22.1469 4.7603 0.8961
-16.0003 21.2767 4.6941 0.8975
-37.7366 15.3303 7.1821 0.8475
-1.0178 31.1673 4.7772 0.8814
-2.9357 27.9470 4.3049 0.8925
-4.8870 27.3722 4.2596 0.8936
-6.1390 28.4274 4.4553 0.8890
-6.2666 24.6761 3.9002 0.9021
-7.2335 24.7168 3.9453 0.9010
-8.2259 24.7633 3.9974 0.8998
-10.3160 24.9030 4.1294 0.8967
-12.5868 25.1045 4.3022 0.8926
-15.0839 25.3494 4.5189 0.8875
-16.0007 21.2772 4.0784 0.8979
-41.9368 18.8227 7.0419 0.8303
-38.3306 15.5716 6.3381 0.8458
-37.9421 13.8444 6.1874 0.8492
0.1144 33.9827 4.4253 0.8719
-1.9679 28.6204 3.7358 0.8907
-3.9854 28.1448 3.7016 0.8917
-4.9677 27.8243 3.6806 0.8922
-6.1378 24.1690 3.2472 0.9043
-9.0403 24.2587 3.3712 0.9008
-10.0694 24.3077 3.4262 0.8993
-12.2604 24.4537 3.5622 0.8955
-14.4862 24.3450 3.6890 0.8920
-14.8247 21.2661 3.3758 0.9007
-16.0011 21.2777 3.4668 0.8982
-17.0393 21.0367 3.5253 0.8965
-42.3109 20.8520 6.1425 0.8267
-42.6275 17.3172 5.9916 0.8306
-44.2157 16.1334 6.1291 0.8271
-1.0960 33.5642 3.6061 0.8736
-3.9904 28.1799 3.0562 0.8918
-5.8515 27.0963 2.9767 0.8945
-7.7304 23.2717 2.6332 0.9061
-10.8846 23.8125 2.8115 0.9000
-11.9636 23.8615 2.8663 0.8982
-13.6987 21.2420 2.7142 0.9033
-16.0015 21.2783 2.8589 0.8984
-17.2442 21.2897 2.9420 0.8956
-37.0571 29.5974 5.0927 0.8263
-36.8166 25.2920 4.7964 0.8355
-39.5018 25.0926 5.0252 0.8284
-45.9229 16.7564 5.2493 0.8215
-3.9988 28.2393 2.4144 0.8918
-6.2041 24.4302 2.1337 0.9038
-6.9059 23.5976 2.0814 0.9060
-7.8416 23.6066 2.1057 0.9050
-8.8008 23.6158 2.1334 0.9038
-9.7867 23.6253 2.1648 0.9024
-10.8034 23.6351 2.1999 0.9009
-11.8551 23.6452 2.2391 0.8993
-13.6441 22.9298 2.2587 0.8984
-13.8130 21.4193 2.1576 0.9027
-14.8016 21.2330 2.1911 0.9013
-35.9892 28.7445 3.8991 0.8312
-35.9092 26.6211 3.7840 0.8357
-35.8383 24.6200 3.6807 0.8398
-38.1027 24.2039 3.8212 0.8343
-2.2062 32.0854 1.9943 0.8791
-5.2676 29.5039 1.8585 0.8868
-7.4425 34.4639 2.1864 0.8682
-7.5498 22.7280 1.4851 0.9085
-8.5303 22.8901 1.5148 0.9067
-12.7266 23.2542 1.6438 0.8992
-13.6480 22.9364 1.6550 0.8986
-14.8018 21.2333 1.6050 0.9015
-15.9762 21.2446 1.6483 0.8989
-35.5343 28.3811 2.8201 0.8334
-35.5543 26.3580 2.7445 0.8375
-35.5733 24.4379 2.6763 0.8412
-37.5850 23.8751 2.7611 0.8366
-40.8094 23.9061 2.9328 0.8273
-6.8812 23.5131 0.9660 0.9066
-6.6557 20.0363 0.8325 0.9190
-7.4697 20.0441 0.8435 0.9179
-8.3066 20.0522 0.8558 0.9168
-9.1695 20.0605 0.8697 0.9155
-13.4159 20.8035 0.9761 0.9057
-19.7647 22.6806 1.1862 0.8865
-21.2623 22.6951 1.2263 0.8829
-22.2878 22.1356 1.2386 0.8818
-30.6056 28.2822 1.6432 0.8464
-30.5336 26.2421 1.5875 0.8511
-36.5702 23.2304 1.7083 0.8408
-6.8848 23.5253 0.4141 0.9066
-9.6762 23.3583 0.4271 0.9038
-10.6814 23.3680 0.4340 0.9023
-12.8001 23.3884 0.4504 0.8988
-13.0996 22.0146 0.4327 0.9026
-13.1106 20.3301 0.4086 0.9078
-5.1332 6.8260 0.1443 0.9664
-21.2365 22.6676 0.5247 0.8831
-28.9840 26.7837 0.6666 0.8540
-28.9604 23.1306 0.6261 0.8622
-10.3754 6.5908 0.2076 0.9520
-0.4515 6.5676 -0.0371 0.9740
-0.6898 6.5667 -0.0372 0.9739
-0.9297 6.5657 -0.0373 0.9738
-1.1720 6.5647 -0.0375 0.9737
-1.4174 6.5637 -0.0378 0.9735
-1.9203 6.5617 -0.0385 0.9730
-2.1793 6.5607 -0.0389 0.9727
-2.4445 6.5596 -0.0394 0.9724
-4.9254 6.5497 -0.0461 0.9678
-5.2314 6.4587 -0.0468 0.9673
-6.1260 6.5389 -0.0504 0.9648
-7.6013 6.5330 -0.0564 0.9607
-8.1766 6.5307 -0.0589 0.9590
-9.4987 6.5254 -0.0649 0.9549
-10.2676 6.5223 -0.0685 0.9525
-12.1240 6.5278 -0.0775 0.9464
-13.2364 6.5233 -0.0831 0.9427
-14.5223 6.5182 -0.0896 0.9383
-15.8179 6.4260 -0.0961 0.9340
0.0219 6.4857 -0.1826 0.9744
-0.4516 6.5676 -0.1854 0.9740
-1.1720 6.5647 -0.1878 0.9737
-1.4174 6.5637 -0.1891 0.9735
-1.6666 6.5627 -0.1907 0.9733
-2.1793 6.5607 -0.1947 0.9727
-2.7168 6.5585 -0.1999 0.9720
-3.5874 6.5551 -0.2104 0.9705
-3.8997 6.5538 -0.2147 0.9699
-4.2256 6.5525 -0.2195 0.9693
-4.5668 6.5511 -0.2249 0.9685
-4.9254 6.5497 -0.2308 0.9677
-5.2314 6.4587 -0.2340 0.9673
-6.5820 6.5371 -0.2612 0.9636
-7.6013 6.5330 -0.2822 0.9607
-8.8058 6.5282 -0.3087 0.9571
-10.2676 6.5224 -0.3425 0.9525
-10.9860 6.4357 -0.3585 0.9503
-13.2364 6.5234 -0.4155 0.9427
-15.8179 6.4260 -0.4808 0.9340
-17.8187 6.5018 -0.5341 0.9269
7.2571 48.8767 -2.5059 0.8204
5.4635 48.8442 -2.4925 0.8213
3.6918 48.8810 -2.4860 0.8217
0.0219 6.4857 -0.3289 0.9744
-0.4516 6.5676 -0.3339 0.9740
-0.6898 6.5667 -0.3349 0.9739
-0.9297 6.5657 -0.3363 0.9738
-1.4174 6.5637 -0.3405 0.9735
-1.9203 6.5617 -0.3467 0.9730
-2.4445 6.5596 -0.3550 0.9724
-2.7168 6.5586 -0.3600 0.9720
-3.5874 6.5551 -0.3790 0.9705
-4.2256 6.5525 -0.3954 0.9693
-4.5668 6.5512 -0.4050 0.9685
-5.2314 6.4587 -0.4215 0.9673
-5.6321 6.4631 -0.4348 0.9662
-6.1260 6.5389 -0.4544 0.9647
-6.5820 6.5371 -0.4705 0.9635
-8.1766 6.5307 -0.5307 0.9590
-10.9860 6.4357 -0.6457 0.9503
-12.1241 6.5278 -0.6983 0.9463
-13.2365 6.5234 -0.7484 0.9426
6.2755 33.8315 -2.5229 0.8711
3.5683 31.9011 -2.3536 0.8792
2.4156 31.9835 -2.3518 0.8793
0.0218 6.4857 -0.4755 0.9743
-0.2117 6.4848 -0.4757 0.9743
-0.4516 6.5676 -0.4827 0.9739
-0.6898 6.5667 -0.4841 0.9739
-1.4174 6.5638 -0.4924 0.9734
-1.9203 6.5617 -0.5013 0.9730
-2.4445 6.5596 -0.5133 0.9723
-2.7168 6.5586 -0.5205 0.9719
-3.5874 6.5551 -0.5479 0.9705
-4.9254 6.5497 -0.6009 0.9677
-5.2314 6.4587 -0.6094 0.9672
-6.1260 6.5389 -0.6570 0.9647
-6.5820 6.5371 -0.6802 0.9635
-7.0719 6.5351 -0.7060 0.9621
-8.1766 6.5307 -0.7673 0.9589
-8.8058 6.5282 -0.8037 0.9570
-9.4987 6.5254 -0.8450 0.9548
-10.9861 6.4357 -0.9336 0.9502
-12.1241 6.5278 -1.0096 0.9463
-13.2365 6.5234 -1.0820 0.9425
-14.5224 6.5182 -1.1671 0.9382
-15.8179 6.4260 -1.2519 0.9338
-17.8188 6.5018 -1.3908 0.9267
3.6083 24.3024 -2.3587 0.9060
1.8495 24.4879 -2.3577 0.9060
-0.2117 6.4848 -0.6229 0.9743
-0.4516 6.5676 -0.6320 0.9739
-1.1720 6.5647 -0.6402 0.9736
-1.4174 6.5638 -0.6447 0.9734
-2.1793 6.5607 -0.6637 0.9726
-2.4445 6.5596 -0.6721 0.9723
-2.7168 6.5586 -0.6815 0.9719
-3.5874 6.5551 -0.7174 0.9704
-4.5668 6.5512 -0.7667 0.9684
-5.2314 6.4587 -0.7980 0.9672
-5.6321 6.4631 -0.8230 0.9661
-6.5820 6.5371 -0.8906 0.9634
-8.8058 6.5282 -1.0524 0.9569
-9.4987 6.5254 -1.1064 0.9547
-12.1241 6.5278 -1.3220 0.9462
-13.2365 6.5234 -1.4167 0.9424
-15.8180 6.4260 -1.6391 0.9337
-17.8188 6.5018 -1.8210 0.9266
3.6264 19.5499 -2.3619 0.9230
2.9184 19.6553 -2.3604 0.9231
1.4934 19.7733 -2.3555 0.9232
-0.4515 6.5676 -0.7820 0.9738
-0.9297 6.5657 -0.7877 0.9736
-1.4174 6.5638 -0.7976 0.9733
-1.6666 6.5628 -0.8043 0.9731
-2.4445 6.5597 -0.8315 0.9722
-2.9973 6.5574 -0.8564 0.9714
-3.2871 6.5563 -0.8712 0.9709
-3.8997 6.5538 -0.9059 0.9697
-4.2256 6.5525 -0.9262 0.9691
-5.2314 6.4587 -0.9873 0.9671
-5.6321 6.4631 -1.0183 0.9661
-6.1260 6.5389 -1.0643 0.9646
-7.0719 6.5352 -1.1438 0.9620
-8.8058 6.5282 -1.3021 0.9568
-10.9861 6.4357 -1.5124 0.9500
-12.1241 6.5278 -1.6357 0.9460
-13.2365 6.5234 -1.7529 0.9423
3.0412 16.3952 -2.3627 0.9349
2.4475 16.4840 -2.3612 0.9349
1.8497 16.5362 -2.3576 0.9350
0.6529 16.5723 -2.3499 0.9352
-0.4516 6.5676 -0.9327 0.9738
-1.1721 6.5647 -0.9449 0.9734
-1.6666 6.5628 -0.9594 0.9730
-2.4445 6.5597 -0.9919 0.9721
-2.7168 6.5586 -1.0058 0.9717
-3.2871 6.5563 -1.0392 0.9708
-3.5874 6.5551 -1.0588 0.9703
-4.9254 6.5497 -1.1611 0.9674
-5.2314 6.4587 -1.1777 0.9670
-5.6321 6.4631 -1.2147 0.9660
-6.5820 6.5371 -1.3144 0.9632
-7.0720 6.5352 -1.3643 0.9618
-14.6993 5.9715 -2.2480 0.9379
-14.8982 5.4361 -2.2471 0.9379
2.6152 14.0986 -2.3622 0.9435
2.1032 14.1651 -2.3591 0.9436
0.5613 14.2496 -2.3493 0.9438
0.0218 6.4857 -1.0684 0.9740
-0.6897 6.5667 -1.0877 0.9736
-1.1720 6.5647 -1.0986 0.9733
-1.9203 6.5618 -1.1263 0.9727
-2.9973 6.5574 -1.1878 0.9712
-3.2871 6.5563 -1.2082 0.9707
-3.5874 6.5551 -1.2310 0.9702
-3.8997 6.5538 -1.2563 0.9696
-4.5668 6.5512 -1.3156 0.9681
-4.9254 6.5497 -1.3500 0.9673
-5.2314 6.4587 -1.3692 0.9669
-6.1260 6.5390 -1.4761 0.9643
-7.6013 6.5331 -1.6512 0.9602
-9.4987 6.5255 -1.8985 0.9544
-10.9861 6.4357 -2.0975 0.9497
-12.1060 6.5180 -2.2650 0.9458
2.2902 12.3465 -2.3602 0.9502
1.8421 12.4067 -2.3575 0.9502
0.9424 12.4773 -2.3519 0.9503
-0.2117 6.4848 -1.2195 0.9739
-0.6898 6.5667 -1.2411 0.9735
-0.9297 6.5657 -1.2464 0.9734
-1.6666 6.5628 -1.2727 0.9728
-2.1793 6.5607 -1.2994 0.9723
-2.7168 6.5586 -1.3343 0.9715
-3.2871 6.5563 -1.3785 0.9706
-3.5874 6.5551 -1.4045 0.9700
-4.2256 6.5525 -1.4655 0.9688
-4.9254 6.5497 -1.5403 0.9672
-5.6321 6.4631 -1.6113 0.9657
-6.1261 6.5390 -1.6842 0.9642
-6.5820 6.5371 -1.7436 0.9629
-8.1767 6.5308 -1.9669 0.9583
-9.4987 6.5255 -2.1661 0.9542
-10.8526 5.3485 -2.2741 0.9519
-12.0894 4.4112 -2.4189 0.9490
2.0351 10.9714 -2.3587 0.9554
1.6371 11.0263 -2.3563 0.9554
0.8377 11.0915 -2.3512 0.9555
0.0219 6.4857 -1.3709 0.9738
-0.2117 6.4848 -1.3715 0.9738
-0.4516 6.5676 -1.3915 0.9734
-0.6898 6.5667 -1.3957 0.9734
-0.9297 6.5657 -1.4017 0.9733
-1.4174 6.5638 -1.4194 0.9729
-1.6666 6.5628 -1.4313 0.9727
-1.9203 6.5618 -1.4452 0.9724
-2.1793 6.5607 -1.4613 0.9721
-3.5874 6.5551 -1.5795 0.9699
-4.2256 6.5525 -1.6481 0.9686
-4.5668 6.5512 -1.6880 0.9679
-4.9254 6.5497 -1.7323 0.9671
-5.6321 6.4631 -1.8121 0.9656
-6.1261 6.5390 -1.8940 0.9640
-6.5820 6.5371 -1.9609 0.9628
-7.0720 6.5352 -2.0354 0.9614
-7.6013 6.5331 -2.1187 0.9599
-8.6947 6.4458 -2.2879 0.9567
-8.9162 6.1252 -2.2866 0.9567
-9.1262 5.7972 -2.2854 0.9568
-9.5107 5.1207 -2.2832 0.9568
-10.3212 4.6325 -2.3914 0.9548
1.4719 9.9129 -2.3553 0.9597
0.7532 9.9732 -2.3506 0.9597
0.3933 9.9831 -2.3481 0.9598
-0.2117 6.4848 -1.5249 0.9737
-0.4515 6.5676 -1.5472 0.9733
-0.9297 6.5657 -1.5585 0.9731
-1.1721 6.5648 -1.5672 0.9730
-1.6666 6.5628 -1.5913 0.9726
-1.9203 6.5618 -1.6068 0.9723
-2.7168 6.5586 -1.6684 0.9713
-2.9973 6.5575 -1.6945 0.9708
-3.2871 6.5563 -1.7237 0.9703
-3.8997 6.5539 -1.7924 0.9691
-4.9254 6.5498 -1.9260 0.9669
-5.2314 6.4588 -1.9534 0.9664
-5.6321 6.4631 -2.0148 0.9654
-6.5820 6.5371 -2.1802 0.9626
-7.1806 6.6355 -2.2978 0.9606
-7.4105 6.3689 -2.2965 0.9606
-7.6306 6.0946 -2.2952 0.9607
-8.0411 5.5240 -2.2928 0.9607
-8.2308 5.2285 -2.2917 0.9607
-8.4100 4.9266 -2.2907 0.9607
-9.3024 4.5845 -2.4374 0.9583
-9.6021 3.9008 -2.4358 0.9583
1.6599 8.9484 -2.3564 0.9631
1.3355 8.9949 -2.3545 0.9631
1.0100 9.0291 -2.3524 0.9632
0.6836 9.0509 -2.3501 0.9632
-0.2117 6.4848 -1.6799 0.9735
-0.4516 6.5676 -1.7045 0.9732
-0.6897 6.5667 -1.7096 0.9731
-1.1720 6.5648 -1.7266 0.9728
-1.4174 6.5638 -1.7386 0.9726
-1.6666 6.5628 -1.7531 0.9724
-1.9203 6.5618 -1.7702 0.9721
-2.1793 6.5607 -1.7899 0.9718
-2.4445 6.5597 -1.8125 0.9715
-2.7168 6.5586 -1.8381 0.9711
-2.9973 6.5575 -1.8668 0.9706
-3.2871 6.5563 -1.8989 0.9702
-3.5874 6.5551 -1.9348 0.9696
-3.8997 6.5539 -1.9746 0.9690
-4.2256 6.5526 -2.0187 0.9683
-4.5668 6.5512 -2.0677 0.9675
-4.9254 6.5498 -2.1218 0.9667
-6.0872 6.4974 -2.3052 0.9639
-6.3134 6.2703 -2.3039 0.9639
-6.5313 6.0355 -2.3026 0.9639
-7.1330 5.2880 -2.2990 0.9640
-7.3154 5.0255 -2.2980 0.9640
-7.4884 4.7568 -2.2970 0.9640
-8.3114 4.4750 -2.4441 0.9617
-8.4643 4.1714 -2.4432 0.9618
-8.7373 3.5495 -2.4418 0.9618
1.5176 8.1812 -2.3556 0.9660
1.2211 8.2243 -2.3538 0.9660
0.9235 8.2560 -2.3518 0.9661
0.3264 8.2866 -2.3477 0.9661
0.0218 6.4858 -1.8361 0.9734
-0.2117 6.4848 -1.8368 0.9734
-0.4516 6.5676 -1.8636 0.9730
-1.4174 6.5638 -1.9010 0.9725
-1.6666 6.5628 -1.9168 0.9722
-1.9203 6.5618 -1.9355 0.9720
-2.4445 6.5597 -1.9817 0.9713
-2.9973 6.5575 -2.0411 0.9705
-3.8997 6.5539 -2.1589 0.9688
-4.5668 6.5512 -2.2607 0.9673
-5.1396 6.3454 -2.3117 0.9666
-5.3616 6.1526 -2.3103 0.9666
-5.5764 5.9522 -2.3090 0.9667
-6.3602 5.0798 -2.3043 0.9667
-7.3064 4.6413 -2.4504 0.9647
-7.4668 4.3740 -2.4498 0.9647
-8.0078 3.2531 -2.4469 0.9647
0.8497 7.5970 -2.3513 0.9685
0.5753 7.6168 -2.3494 0.9685
0.0218 6.4858 -1.9949 0.9732
-0.4516 6.5677 -2.0248 0.9728
-0.6897 6.5667 -2.0309 0.9727
-0.9297 6.5657 -2.0396 0.9726
-1.6666 6.5628 -2.0826 0.9721
-1.9203 6.5618 -2.1029 0.9718
-2.1793 6.5607 -2.1263 0.9715
-2.7168 6.5586 -2.1835 0.9707
-2.9973 6.5575 -2.2176 0.9703
-3.2871 6.5563 -2.2558 0.9698
-3.6237 6.6213 -2.3216 0.9689
-3.8573 6.4824 -2.3201 0.9689
-4.0856 6.3355 -2.3187 0.9689
-4.5256 6.0179 -2.3160 0.9690
-4.7366 5.8478 -2.3147 0.9690
-5.1396 5.4860 -2.3122 0.9690
-5.3312 5.2948 -2.3111 0.9690
-5.5157 5.0970 -2.3099 0.9691
-5.6930 4.8928 -2.3089 0.9691
-5.8685 4.6872 -2.3101 0.9691
-6.2810 4.6564 -2.4049 0.9678
-6.5805 4.5206 -2.4556 0.9671
-7.2723 3.2641 -2.4518 0.9672
1.2917 6.9635 -2.3542 0.9706
1.0395 7.0007 -2.3526 0.9706
0.5323 7.0472 -2.3492 0.9706
0.2780 7.0567 -2.3475 0.9707
-0.4516 6.5677 -2.1883 0.9726
-0.6897 6.5667 -2.1948 0.9726
-1.4174 6.5638 -2.2321 0.9721
-1.6666 6.5628 -2.2507 0.9719
-1.9203 6.5618 -2.2726 0.9716
-2.6803 6.4704 -2.3280 0.9709
-2.9097 6.3656 -2.3266 0.9709
-3.5726 6.0040 -2.3224 0.9710
-3.7843 5.8681 -2.3210 0.9710
-3.9909 5.7249 -2.3197 0.9710
-4.1921 5.5745 -2.3185 0.9710
-4.7615 5.0824 -2.3150 0.9711
-4.9391 4.9054 -2.3139 0.9711
-5.1102 4.7223 -2.3129 0.9711
-5.4297 4.6665 -2.3799 0.9703
-5.7846 4.6201 -2.4609 0.9693
-5.9449 4.4072 -2.4599 0.9693
-6.0975 4.1888 -2.4590 0.9693
-6.2422 3.9653 -2.4582 0.9693
-6.3790 3.7368 -2.4574 0.9693
-6.5075 3.5037 -2.4567 0.9693
-6.6277 3.2663 -2.4561 0.9693
-6.7393 3.0249 -2.4555 0.9693
-6.9366 2.5311 -2.4545 0.9694
1.2005 6.4721 -2.3539 0.9724
0.9661 6.5067 -2.3524 0.9724
0.7307 6.5329 -2.3508 0.9725
0.2584 6.5596 -2.3476 0.9725
-0.4494 6.5361 -2.3429 0.9726
-1.1492 6.4369 -2.3383 0.9726
-1.3793 6.3872 -2.3368 0.9726
-2.2762 6.1078 -2.3309 0.9727
-2.7066 5.9212 -2.3282 0.9727
-3.1221 5.7046 -2.3256 0.9728
-3.5206 5.4593 -2.3230 0.9728
-3.7130 5.3263 -2.3218 0.9728
-4.0826 5.0403 -2.3196 0.9728
-4.2594 4.8878 -2.3185 0.9728
-4.4306 4.7292 -2.3174 0.9728
-4.7050 4.6728 -2.3713 0.9722
-5.0380 4.6556 -2.4531 0.9713
-5.2269 4.4923 -2.4647 0.9711
-5.9370 3.4779 -2.4606 0.9712
-6.0567 3.2610 -2.4599 0.9712
-6.1686 3.0401 -2.4593 0.9712
-6.2726 2.8154 -2.4587 0.9712
-6.3687 2.5872 -2.4582 0.9712
1.1202 6.0389 -2.3537 0.9740
0.9015 6.0715 -2.3522 0.9740
0.4617 6.1129 -2.3492 0.9741
0.2412 6.1217 -2.3478 0.9741
-0.1997 6.1155 -2.3448 0.9741
-0.4194 6.1005 -2.3434 0.9741
-1.2876 5.9626 -2.3376 0.9742
-1.5006 5.9088 -2.3363 0.9742
-1.7113 5.8476 -2.3349 0.9742
-1.9196 5.7788 -2.3335 0.9743
-2.3278 5.6194 -2.3309 0.9743
-3.6427 4.8440 -2.3226 0.9744
-3.8131 4.7076 -2.3216 0.9744
-4.3667 4.6610 -2.4476 0.9730
-4.7300 4.3709 -2.4681 0.9728
-4.8825 4.1963 -2.4671 0.9728
-5.1683 3.8315 -2.4655 0.9728
-5.6583 3.0465 -2.4627 0.9728
-5.8603 2.6303 -2.4616 0.9729
-5.9501 2.4172 -2.4611 0.9729
-6.0322 2.2010 -2.4607 0.9729
1.0487 5.6538 -2.3534 0.9755
0.4323 5.7238 -2.3493 0.9755
0.2258 5.7323 -2.3479 0.9755
-0.1870 5.7269 -2.3451 0.9755
-0.3928 5.7132 -2.3438 0.9756
-0.5979 5.6920 -2.3424 0.9756
-0.8020 5.6636 -2.3411 0.9756
-1.0048 5.6278 -2.3397 0.9756
-1.2061 5.5848 -2.3384 0.9756
-1.4056 5.5347 -2.3371 0.9756
-1.6030 5.4775 -2.3358 0.9756
-1.9908 5.3422 -2.3333 0.9757
-2.1807 5.2644 -2.3321 0.9757
-2.3677 5.1798 -2.3309 0.9757
-2.5513 5.0886 -2.3298 0.9757
-2.7315 4.9910 -2.3286 0.9757
-2.9080 4.8871 -2.3275 0.9757
-3.0806 4.7770 -2.3264 0.9757
-3.2687 4.6890 -2.3394 0.9756
-3.5166 4.6763 -2.3947 0.9750
-3.7772 4.6633 -2.4561 0.9744
-3.9698 4.5554 -2.4730 0.9742
-4.4327 4.0962 -2.4702 0.9743
-4.5758 3.9326 -2.4694 0.9743
-4.7128 3.7641 -2.4686 0.9743
-5.1984 3.0452 -2.4658 0.9743
-5.4016 2.6621 -2.4647 0.9743
-5.6541 2.0631 -2.4633 0.9743
0.9848 5.3090 -2.3532 0.9767
-0.1756 5.3788 -2.3454 0.9768
-0.7533 5.3199 -2.3416 0.9768
-0.9439 5.2865 -2.3404 0.9768
-1.5059 5.1458 -2.3367 0.9769
-1.8704 5.0191 -2.3343 0.9769
-2.0489 4.9460 -2.3332 0.9769
-2.5728 4.7011 -2.3356 0.9769
-3.0143 4.6742 -2.4239 0.9760
-3.2505 4.6628 -2.4772 0.9755
-4.0261 3.9986 -2.4730 0.9755
-4.1660 3.8498 -2.4722 0.9756
-4.8862 2.8623 -2.4680 0.9756
-5.0773 2.5023 -2.4669 0.9756
-5.1632 2.3174 -2.4665 0.9756
-5.3149 1.9393 -2.4657 0.9756
0.3822 5.0611 -2.3494 0.9779
-0.1654 5.0649 -2.3457 0.9779
-0.3474 5.0530 -2.3445 0.9779
-0.7094 5.0098 -2.3421 0.9779
-1.0670 4.9408 -2.3398 0.9780
-1.4183 4.8465 -2.3375 0.9780
-1.9448 4.6944 -2.3520 0.9779
-2.3458 4.6788 -2.4227 0.9772
-2.5556 4.6698 -2.4641 0.9768
-3.2179 4.2789 -2.4782 0.9767
-3.3685 4.1588 -2.4773 0.9767
-3.6564 3.9028 -2.4755 0.9767
-3.7933 3.7674 -2.4747 0.9767
-3.9252 3.6272 -2.4739 0.9767
-4.2897 3.1801 -2.4718 0.9767
-4.4002 3.0228 -2.4711 0.9767
-4.5051 2.8618 -2.4705 0.9767
-4.6042 2.6971 -2.4700 0.9768
-4.8653 2.1837 -2.4685 0.9768
-5.0084 1.8275 -2.4678 0.9768
0.8760 4.7221 -2.3558 0.9788
0.3607 4.7760 -2.3494 0.9789
0.1884 4.7835 -2.3482 0.9789
0.0161 4.7849 -2.3471 0.9789
-0.1561 4.7800 -2.3459 0.9789
-0.4991 4.7518 -2.3437 0.9789
-0.8410 4.7103 -2.3471 0.9789
-1.5560 4.6842 -2.4212 0.9782
-1.7433 4.6779 -2.4488 0.9780
-2.2700 4.5276 -2.4844 0.9777
-2.5878 4.3490 -2.4824 0.9777
-2.8918 4.1483 -2.4805 0.9777
-3.3187 3.8083 -2.4778 0.9777
-3.4525 3.6851 -2.4770 0.9778
-3.5818 3.5573 -2.4762 0.9778
-3.7064 3.4251 -2.4755 0.9778
-3.8262 3.2885 -2.4748 0.9778
-3.9411 3.1477 -2.4741 0.9778
-4.1552 2.8545 -2.4729 0.9778
-4.2543 2.7025 -2.4723 0.9778
-4.3479 2.5470 -2.4718 0.9778
-4.5947 2.0623 -2.4704 0.9778
-4.6653 1.8952 -2.4701 0.9778
0.8700 4.6902 -2.4747 0.9787
0.6966 4.6916 -2.4606 0.9789
0.5249 4.6925 -2.4496 0.9789
0.3545 4.6929 -2.4415 0.9790
0.1849 4.6928 -2.4364 0.9791
-0.1532 4.6908 -2.4348 0.9791
-0.4923 4.6868 -2.4448 0.9790
-0.6633 4.6839 -2.4542 0.9789
-0.8357 4.6805 -2.4666 0.9788
-1.3484 4.6074 -2.4905 0.9786
-1.5128 4.5540 -2.4894 0.9786
-1.6750 4.4947 -2.4884 0.9786
-1.8350 4.4296 -2.4874 0.9786
-1.9924 4.3589 -2.4864 0.9786
-2.1472 4.2827 -2.4854 0.9786
-2.7356 3.9243 -2.4817 0.9787
-2.8741 3.8219 -2.4808 0.9787
-3.2663 3.4864 -2.4784 0.9787
-3.6200 3.1112 -2.4763 0.9787
-3.7287 2.9781 -2.4756 0.9787
-3.8325 2.8412 -2.4750 0.9787
-3.9314 2.7008 -2.4745 0.9787
-4.1972 2.2598 -2.4730 0.9787
-4.2751 2.1069 -2.4725 0.9788
-4.4143 1.7933 -2.4718 0.9788
-4.4754 1.6330 -2.4715 0.9788
0.8342 4.4972 -2.5051 0.9794
0.1797 4.5623 -2.5007 0.9794
-0.1488 4.5594 -2.4985 0.9794
-0.3128 4.5491 -2.4975 0.9794
-0.6388 4.5109 -2.4953 0.9794
-0.8004 4.4831 -2.4942 0.9794
-1.1200 4.4102 -2.4921 0.9795
-1.4332 4.3147 -2.4901 0.9795
-1.5870 4.2586 -2.4891 0.9795
-1.7386 4.1970 -2.4882 0.9795
-1.8878 4.1301 -2.4872 0.9795
-2.0345 4.0580 -2.4863 0.9795
-2.1785 3.9806 -2.4853 0.9795
-2.3196 3.8982 -2.4845 0.9795
-2.4575 3.8108 -2.4836 0.9795
-2.8513 3.5202 -2.4811 0.9796
-2.9753 3.4142 -2.4804 0.9796
-3.0953 3.3039 -2.4797 0.9796
-3.4307 2.9485 -2.4776 0.9796
-3.6322 2.6928 -2.4765 0.9796
-3.8150 2.4234 -2.4754 0.9796
-4.2419 1.5478 -2.4731 0.9796
0.6370 4.2900 -2.5040 0.9802
0.3264 4.3211 -2.5019 0.9802
-0.4518 4.3007 -2.4967 0.9802
-1.0627 4.1846 -2.4927 0.9803
-1.2122 4.1420 -2.4917 0.9803
-1.3600 4.0941 -2.4907 0.9803
-1.7915 3.9193 -2.4880 0.9803
-1.9307 3.8509 -2.4871 0.9803
-2.0674 3.7775 -2.4862 0.9803
-2.2013 3.6994 -2.4854 0.9803
-2.7061 3.3409 -2.4822 0.9803
-3.0479 3.0271 -2.4801 0.9804
-3.1541 2.9147 -2.4795 0.9804
-3.2562 2.7986 -2.4789 0.9804
-3.3541 2.6789 -2.4783 0.9804
-3.4476 2.5558 -2.4778 0.9804
-3.6211 2.3002 -2.4768 0.9804
-3.7009 2.1680 -2.4763 0.9804
-4.0265 1.4692 -2.4746 0.9804
