ply
format ascii 1.0
element vertex 623
property float32 x
property float32 y
property float32 z
property float32 I
end_header
2.5266 7.6981 1.4286 0.9676
-0.2565 30.8343 5.4371 0.8823
-5.1913 33.6735 6.0077 0.8708
-5.8142 25.3702 4.5894 0.8997
-8.8146 25.4214 4.7443 0.8965
-9.8952 25.5175 4.8259 0.8948
-11.0180 25.6239 4.9182 0.8929
-3.2700 27.8686 4.2986 0.8927
-4.2529 27.5867 4.2761 0.8932
-5.4246 28.3397 4.4203 0.8898
-5.9991 26.1768 4.1141 0.8970
-6.6108 24.7070 3.9181 0.9017
-8.5993 24.8003 4.0212 0.8992
-9.6432 24.8678 4.0860 0.8977
-11.8668 25.0602 4.2477 0.8939
-15.1114 24.6069 4.4237 0.8897
-15.2898 21.2792 4.0141 0.8994
2.5259 7.6961 1.0548 0.9679
-1.5005 33.7127 4.3944 0.8727
-3.2302 27.5296 3.6095 0.8942
-5.3017 27.6979 3.6723 0.8925
-6.4673 24.1706 3.2582 0.9040
-9.4209 24.2944 3.3932 0.9002
-14.2406 21.4122 3.3487 0.9015
-15.2900 21.2795 3.4122 0.8997
28.8757 35.8002 4.9389 0.8311
2.5256 7.6951 0.8697 0.9679
-1.4034 31.5304 3.3891 0.8808
-2.2343 27.6465 2.9784 0.8944
-3.2957 28.0876 3.0368 0.8925
-4.2209 27.3786 2.9747 0.8945
-5.3899 28.1589 3.0786 0.8911
-6.2575 23.3864 2.5996 0.9072
-7.1376 23.2712 2.6138 0.9067
-9.2138 23.7604 2.7365 0.9026
-10.2348 23.8024 2.7822 0.9010
-13.5559 23.9769 2.9577 0.8951
-13.7786 22.4366 2.8273 0.8995
-13.9212 20.9321 2.6994 0.9038
28.8750 35.7994 3.8934 0.8314
-1.4054 31.5753 2.6756 0.8808
-2.6094 32.2886 2.7422 0.8781
-4.6042 29.8652 2.5580 0.8858
-5.5771 29.1371 2.5113 0.8877
-6.1694 26.9200 2.3379 0.8951
-7.2403 23.6059 2.0902 0.9056
-8.1884 23.6154 2.1159 0.9045
-9.1614 23.6252 2.1450 0.9033
-12.2680 23.6563 2.2558 0.8985
-13.3565 23.6241 2.2973 0.8968
-13.6442 22.2177 2.2071 0.9006
-14.1447 21.2682 2.1622 0.9025
-15.2657 21.2457 2.2146 0.9003
28.8744 35.7985 2.8520 0.8317
2.5250 7.6932 0.5021 0.9681
-2.6438 32.7145 2.0352 0.8767
-3.7332 31.8163 1.9865 0.8795
-4.5982 29.8261 1.8714 0.8861
-6.1736 26.9385 1.7138 0.8952
-6.9722 22.7319 1.4744 0.9091
-7.9236 22.8516 1.4998 0.9076
-8.9280 23.0235 1.5313 0.9058
-9.9819 23.2143 1.5670 0.9037
-11.0132 23.2575 1.5957 0.9020
-12.0813 23.2963 1.6273 0.9002
-13.2002 23.3477 1.6632 0.8981
-14.1448 21.2683 1.5839 0.9027
28.8737 35.7977 1.8135 0.8318
2.5246 7.6922 0.3192 0.9681
-5.1838 33.6247 1.3415 0.8727
-6.1774 26.9551 1.0904 0.8952
-6.3587 23.7648 0.9700 0.9062
-6.9499 20.0436 0.8365 0.9186
-11.7281 20.7440 0.9396 0.9090
-14.1449 21.2684 1.0072 0.9028
-15.2658 21.2459 1.0316 0.9006
28.8730 35.7969 0.7769 0.8319
2.5243 7.6913 0.1367 0.9681
-0.0539 6.4868 0.1096 0.9744
-5.1826 33.6167 0.5746 0.8728
-6.1813 26.9718 0.4674 0.8952
-6.3595 23.7677 0.4156 0.9063
-7.0286 20.2705 0.3624 0.9178
-9.0576 23.3575 0.4232 0.9046
-11.0701 23.3777 0.4369 0.9017
-12.1290 23.3883 0.4450 0.9000
-13.0806 23.1362 0.4490 0.8991
-12.6270 20.5614 0.4076 0.9080
-14.1449 21.2685 0.4315 0.9029
-15.2908 21.2807 0.4426 0.9005
2.5240 7.6903 -0.0456 0.9681
-0.2887 6.4859 -0.0366 0.9744
-1.0124 6.5671 -0.0374 0.9738
-1.5046 6.5653 -0.0379 0.9734
-1.7564 6.5644 -0.0383 0.9732
-2.2754 6.5626 -0.0391 0.9726
-2.8209 6.5606 -0.0402 0.9718
-3.1061 6.5596 -0.0409 0.9714
-3.4011 6.5585 -0.0416 0.9709
-4.3595 6.5550 -0.0443 0.9690
-4.7090 6.5538 -0.0454 0.9682
28.8718 35.7953 -1.2949 0.8319
2.5237 7.6893 -0.2279 0.9681
-0.0539 6.4867 -0.1827 0.9744
-0.2887 6.4859 -0.1828 0.9744
-0.5308 6.5688 -0.1856 0.9740
-1.5046 6.5653 -0.1897 0.9734
-1.7564 6.5644 -0.1913 0.9732
-2.2754 6.5625 -0.1956 0.9726
-3.7073 6.5573 -0.2121 0.9703
-4.0262 6.5562 -0.2166 0.9697
28.8711 35.7945 -2.3322 0.8318
29.9120 39.9593 -2.5314 0.8188
6.7492 49.2007 -2.5185 0.8196
-0.5308 6.5687 -0.3342 0.9740
-0.7706 6.5679 -0.3354 0.9739
-1.0124 6.5670 -0.3370 0.9737
-1.2568 6.5661 -0.3390 0.9736
-1.5045 6.5652 -0.3416 0.9734
-1.7564 6.5643 -0.3446 0.9732
-2.2754 6.5624 -0.3522 0.9726
-3.1061 6.5594 -0.3681 0.9714
-3.4011 6.5584 -0.3747 0.9708
-4.0261 6.5561 -0.3902 0.9697
-4.3594 6.5549 -0.3992 0.9690
-4.7089 6.5536 -0.4093 0.9682
24.6986 26.4556 -2.6537 0.8649
23.6652 27.2613 -2.6469 0.8652
22.6045 28.0251 -2.6400 0.8655
19.2771 30.0579 -2.6182 0.8666
18.1257 30.6471 -2.6107 0.8669
16.9563 31.1912 -2.6031 0.8673
14.5710 32.1427 -2.5876 0.8680
13.3588 32.5495 -2.5798 0.8684
12.1360 32.9100 -2.5719 0.8688
3.2367 32.2047 -2.3732 0.8783
2.0664 32.2415 -2.3689 0.8785
0.8975 32.2261 -2.3638 0.8787
-0.0539 6.4866 -0.4756 0.9743
-0.2887 6.4858 -0.4760 0.9743
-1.0124 6.5669 -0.4872 0.9737
-1.2568 6.5661 -0.4902 0.9735
-1.5045 6.5652 -0.4938 0.9733
-2.0130 6.5633 -0.5034 0.9728
-2.2754 6.5624 -0.5093 0.9725
-2.8209 6.5604 -0.5236 0.9718
-3.1060 6.5594 -0.5321 0.9713
-4.0261 6.5560 -0.5641 0.9696
18.5972 19.9202 -2.6163 0.8963
17.0423 21.1291 -2.6061 0.8967
16.2341 21.6871 -2.6008 0.8969
15.4074 22.2136 -2.5954 0.8971
11.0394 24.3522 -2.5669 0.8981
10.1285 24.6785 -2.5610 0.8984
2.5228 7.6865 -0.7767 0.9680
5.1281 24.2200 -2.3768 0.9053
3.3484 24.4093 -2.3654 0.9057
1.5756 24.5841 -2.3650 0.9058
0.6842 24.5669 -2.3595 0.9060
-0.0539 6.4866 -0.6228 0.9743
-0.2887 6.4857 -0.6233 0.9742
-0.5308 6.5686 -0.6327 0.9739
-0.7706 6.5678 -0.6349 0.9738
-1.2568 6.5660 -0.6418 0.9735
-1.5045 6.5651 -0.6466 0.9733
-2.0130 6.5633 -0.6591 0.9728
-2.5443 6.5613 -0.6756 0.9721
-2.8208 6.5603 -0.6856 0.9717
-3.1060 6.5593 -0.6968 0.9713
-3.7072 6.5571 -0.7232 0.9702
-4.3593 6.5548 -0.7557 0.9689
14.2914 16.4631 -2.5896 0.9159
13.6651 16.9420 -2.5855 0.9161
12.3643 17.8262 -2.5770 0.9163
9.5980 19.2863 -2.5590 0.9169
8.8783 19.5848 -2.5543 0.9170
8.1493 19.8562 -2.5496 0.9172
7.4122 20.1002 -2.5448 0.9173
5.9179 20.5052 -2.5351 0.9176
1.9914 19.8143 -2.3655 0.9229
1.2715 19.8388 -2.3614 0.9230
0.5523 19.8322 -2.3567 0.9232
-0.0539 6.4865 -0.7705 0.9742
-0.2887 6.4857 -0.7712 0.9742
-1.2567 6.5660 -0.7941 0.9734
-1.5045 6.5651 -0.8000 0.9732
-2.0130 6.5632 -0.8155 0.9727
-2.5443 6.5613 -0.8359 0.9721
-2.8208 6.5603 -0.8482 0.9716
-3.1060 6.5592 -0.8621 0.9712
-3.4010 6.5582 -0.8775 0.9707
-4.0260 6.5559 -0.9139 0.9695
-4.7088 6.5534 -0.9586 0.9680
12.9074 12.8604 -2.5817 0.9290
11.3950 14.1275 -2.5717 0.9293
10.8619 14.5105 -2.5682 0.9294
10.3159 14.8729 -2.5646 0.9295
8.0173 16.1098 -2.5496 0.9299
7.4182 16.3641 -2.5457 0.9300
6.1971 16.8050 -2.5378 0.9302
2.5221 7.6845 -1.1460 0.9679
4.6493 16.1094 -2.3757 0.9345
4.0573 16.2409 -2.3719 0.9346
3.4619 16.3505 -2.3680 0.9347
2.8689 16.4671 -2.3684 0.9347
1.6673 16.5894 -2.3624 0.9349
0.4627 16.6132 -2.3548 0.9351
-0.0539 6.4865 -0.9191 0.9741
-0.5308 6.5685 -0.9337 0.9737
-1.0123 6.5668 -0.9414 0.9735
-1.2567 6.5659 -0.9472 0.9734
-1.7563 6.5641 -0.9628 0.9729
-2.0130 6.5632 -0.9727 0.9726
-2.2754 6.5622 -0.9841 0.9723
-2.8208 6.5602 -1.0118 0.9716
-3.4010 6.5581 -1.0467 0.9706
-3.7071 6.5570 -1.0673 0.9700
-4.7087 6.5534 -1.1434 0.9679
11.0524 11.0121 -2.5703 0.9387
10.6042 11.3586 -2.5599 0.9389
8.8417 12.7475 -2.5557 0.9390
8.3648 13.0429 -2.5526 0.9391
7.8780 13.3202 -2.5494 0.9392
7.3819 13.5790 -2.5462 0.9393
6.8773 13.8192 -2.5429 0.9393
6.3649 14.0404 -2.5396 0.9394
4.9954 13.5464 -2.3785 0.9431
2.5218 7.6835 -1.3322 0.9677
1.9495 14.2112 -2.3631 0.9435
1.4326 14.2545 -2.3601 0.9436
0.3978 14.2805 -2.3535 0.9437
-0.0539 6.4864 -1.0686 0.9740
-0.5308 6.5685 -1.0856 0.9736
-0.7706 6.5676 -1.0894 0.9735
-1.0123 6.5667 -1.0946 0.9734
-1.2567 6.5658 -1.1013 0.9733
-1.5045 6.5649 -1.1095 0.9731
-1.7563 6.5640 -1.1194 0.9728
-2.2753 6.5621 -1.1442 0.9722
-2.5443 6.5612 -1.1593 0.9719
-3.1059 6.5591 -1.1956 0.9710
-3.4009 6.5581 -1.2170 0.9705
-3.7071 6.5569 -1.2409 0.9699
-4.0259 6.5558 -1.2674 0.9693
9.2918 9.9528 -2.5593 0.9461
8.9173 10.2723 -2.5568 0.9461
7.3132 11.4032 -2.5463 0.9464
6.8887 11.6474 -2.5435 0.9464
6.4560 11.8757 -2.5407 0.9465
5.2291 11.5350 -2.3805 0.9498
2.5215 7.6825 -1.5198 0.9676
3.4953 12.1109 -2.3693 0.9500
3.0543 12.2259 -2.3686 0.9500
2.6075 12.3151 -2.3661 0.9501
2.1582 12.3880 -2.3635 0.9501
1.2547 12.4843 -2.3584 0.9502
0.8016 12.5061 -2.3555 0.9503
0.3484 12.5107 -2.3524 0.9503
-0.2886 6.4855 -1.2202 0.9739
-0.5308 6.5684 -1.2386 0.9735
-0.7706 6.5675 -1.2429 0.9734
-1.0123 6.5667 -1.2488 0.9733
-1.5045 6.5649 -1.2659 0.9730
-1.7563 6.5640 -1.2772 0.9727
-2.8207 6.5601 -1.3422 0.9714
-3.1059 6.5591 -1.3641 0.9709
-4.3591 6.5545 -1.4796 0.9685
-4.7086 6.5532 -1.5167 0.9677
8.2415 8.8278 -2.5528 0.9518
7.9102 9.1122 -2.5506 0.9519
7.5689 9.3839 -2.5484 0.9519
6.8585 9.8882 -2.5437 0.9520
5.0154 10.0780 -2.3795 0.9550
4.6431 10.2423 -2.3771 0.9551
3.8828 10.5291 -2.3721 0.9552
1.9175 11.0065 -2.3616 0.9554
1.1151 11.0947 -2.3570 0.9554
0.7124 11.1151 -2.3543 0.9555
0.3097 11.1208 -2.3516 0.9555
-0.0539 6.4863 -1.3711 0.9738
-0.2886 6.4854 -1.3722 0.9738
-0.7706 6.5675 -1.3977 0.9733
-1.2567 6.5657 -1.4130 0.9730
-2.0129 6.5630 -1.4511 0.9723
-2.2753 6.5620 -1.4681 0.9720
-2.8207 6.5600 -1.5094 0.9712
-3.7070 6.5568 -1.5921 0.9697
-4.0258 6.5556 -1.6262 0.9690
-4.3591 6.5544 -1.6639 0.9683
-4.7086 6.5532 -1.7057 0.9675
7.6847 7.6567 -2.5495 0.9564
7.3974 7.9237 -2.5476 0.9564
7.1007 8.1796 -2.5457 0.9565
6.7949 8.4243 -2.5437 0.9565
6.1583 8.8787 -2.5395 0.9566
4.5052 9.0526 -2.3765 0.9593
3.8322 9.3373 -2.3721 0.9594
2.8685 7.7788 -1.9485 0.9665
2.4876 7.5793 -1.8748 0.9678
2.7916 9.6727 -2.3661 0.9595
2.4380 9.7591 -2.3641 0.9595
0.6405 9.9930 -2.3534 0.9597
-0.0539 6.4862 -1.5244 0.9737
-0.5308 6.5683 -1.5487 0.9733
-0.7706 6.5674 -1.5541 0.9732
-1.0123 6.5666 -1.5615 0.9731
-1.2567 6.5657 -1.5711 0.9729
-1.7563 6.5639 -1.5969 0.9725
-2.5442 6.5610 -1.6538 0.9715
-2.8207 6.5600 -1.6782 0.9711
-3.1058 6.5589 -1.7056 0.9706
-3.7070 6.5567 -1.7702 0.9695
-4.0258 6.5556 -1.8080 0.9689
-4.3590 6.5544 -1.8500 0.9682
-4.7085 6.5531 -1.8965 0.9674
6.4350 7.4129 -2.5416 0.9603
6.1584 7.6352 -2.5398 0.9603
5.8741 7.8471 -2.5379 0.9603
5.2423 7.5580 -2.3816 0.9627
4.9618 7.7367 -2.3797 0.9627
4.6752 7.9048 -2.3778 0.9628
4.3828 8.0621 -2.3759 0.9628
2.4792 7.5537 -2.0584 0.9677
2.2115 8.8522 -2.3624 0.9630
1.8886 8.9195 -2.3606 0.9630
1.2371 9.0185 -2.3569 0.9631
0.2528 9.0745 -2.3505 0.9632
-0.0539 6.4862 -1.6794 0.9736
-0.5308 6.5682 -1.7062 0.9731
-1.2567 6.5656 -1.7308 0.9728
-1.5044 6.5647 -1.7438 0.9726
-1.7562 6.5638 -1.7592 0.9723
-2.0129 6.5629 -1.7774 0.9720
-2.2752 6.5619 -1.7982 0.9717
-2.5442 6.5609 -1.8220 0.9713
-3.1058 6.5589 -1.8790 0.9705
-3.4008 6.5578 -1.9126 0.9699
-4.7085 6.5530 -2.0892 0.9672
6.1225 6.5580 -2.5398 0.9634
5.6253 6.9743 -2.5366 0.9634
4.7891 6.9047 -2.3788 0.9657
4.5332 7.0683 -2.3771 0.9657
3.4568 7.6253 -2.3701 0.9658
3.1764 7.7394 -2.3683 0.9658
2.0214 8.0915 -2.3610 0.9659
1.4294 8.2047 -2.3577 0.9660
1.1311 8.2451 -2.3560 0.9660
0.8315 8.2736 -2.3540 0.9660
0.2311 8.2983 -2.3501 0.9661
-0.0539 6.4861 -1.8362 0.9734
-0.2886 6.4853 -1.8377 0.9734
-0.5308 6.5682 -1.8654 0.9730
-1.2567 6.5655 -1.8924 0.9726
-1.5044 6.5646 -1.9066 0.9724
-1.7562 6.5637 -1.9235 0.9721
-2.0129 6.5628 -1.9433 0.9719
-2.8206 6.5599 -2.0214 0.9708
-3.7069 6.5566 -2.1322 0.9692
-4.0257 6.5554 -2.1778 0.9685
-4.3589 6.5542 -2.2283 0.9678
-4.7773 6.6488 -2.3177 0.9665
5.8459 5.8246 -2.5382 0.9661
5.6284 6.0287 -2.5368 0.9661
5.4036 6.2246 -2.5353 0.9661
4.9336 6.5908 -2.5322 0.9661
4.1684 6.4996 -2.3750 0.9682
3.9281 6.6417 -2.3734 0.9682
3.6830 6.7748 -2.3718 0.9682
3.4333 6.8988 -2.3702 0.9683
3.1794 7.0135 -2.3685 0.9683
2.9217 7.1188 -2.3668 0.9683
2.3962 7.3008 -2.3634 0.9684
2.1291 7.3773 -2.3617 0.9684
1.0406 7.5859 -2.3551 0.9685
0.7651 7.6128 -2.3533 0.9685
0.4890 7.6297 -2.3516 0.9685
0.2127 7.6367 -2.3498 0.9685
-0.0539 6.4861 -1.9950 0.9732
-0.7705 6.5672 -2.0338 0.9727
-1.0123 6.5664 -2.0435 0.9726
-1.2567 6.5655 -2.0560 0.9724
-1.5044 6.5646 -2.0714 0.9722
-2.2752 6.5618 -2.1361 0.9714
-2.5441 6.5608 -2.1643 0.9710
-2.8206 6.5598 -2.1962 0.9706
-3.4007 6.5577 -2.2721 0.9696
-3.7195 6.5788 -2.3245 0.9689
-3.9524 6.4360 -2.3231 0.9689
-4.1799 6.2851 -2.3216 0.9689
5.2026 5.5727 -2.5342 0.9684
4.7811 5.9276 -2.5314 0.9684
3.8540 6.0094 -2.3731 0.9704
3.6321 6.1410 -2.3716 0.9704
3.1748 6.3794 -2.3686 0.9704
2.9402 6.4858 -2.3671 0.9704
2.7020 6.5836 -2.3656 0.9704
2.4606 6.6725 -2.3640 0.9705
2.2163 6.7526 -2.3624 0.9705
1.2165 6.9825 -2.3560 0.9706
0.9627 7.0172 -2.3544 0.9706
0.7078 7.0426 -2.3528 0.9706
0.4524 7.0587 -2.3512 0.9706
-0.0539 6.4860 -2.1560 0.9730
-0.2886 6.4852 -2.1578 0.9730
-0.7705 6.5672 -2.1979 0.9725
-1.2567 6.5654 -2.2220 0.9722
-1.5044 6.5645 -2.2386 0.9720
-2.0128 6.5627 -2.2817 0.9715
-2.2998 6.6329 -2.3336 0.9708
-2.7696 6.4412 -2.3306 0.9709
-3.6603 5.9604 -2.3250 0.9709
-3.8712 5.8209 -2.3237 0.9710
5.0180 4.9997 -2.5331 0.9704
4.6390 5.3440 -2.5306 0.9704
3.3739 5.7045 -2.3701 0.9722
3.1636 5.8194 -2.3687 0.9723
2.7316 6.0256 -2.3659 0.9723
2.5104 6.1167 -2.3644 0.9723
2.0594 6.2744 -2.3615 0.9723
1.8300 6.3408 -2.3600 0.9724
1.3653 6.4482 -2.3570 0.9724
0.6579 6.5455 -2.3525 0.9724
0.4206 6.5607 -2.3510 0.9725
0.1829 6.5674 -2.3495 0.9725
-0.2917 6.5550 -2.3464 0.9725
-0.5282 6.5360 -2.3449 0.9725
-1.9156 6.2455 -2.3361 0.9726
-2.1388 6.1684 -2.3347 0.9726
-2.3590 6.0835 -2.3333 0.9727
-2.5759 5.9907 -2.3320 0.9727
-3.7927 5.2785 -2.3244 0.9728
4.6788 4.6617 -2.5311 0.9721
4.3257 4.9830 -2.5287 0.9721
4.1408 5.1337 -2.5275 0.9721
3.7552 5.4140 -2.5250 0.9722
3.4573 5.3907 -2.4542 0.9729
3.1466 5.3202 -2.3687 0.9739
2.9506 5.4276 -2.3674 0.9739
2.7510 5.5277 -2.3661 0.9739
2.5479 5.6204 -2.3648 0.9739
2.3417 5.7056 -2.3635 0.9739
2.1326 5.7832 -2.3621 0.9739
1.7072 5.9153 -2.3594 0.9740
1.4914 5.9696 -2.3580 0.9740
1.2738 6.0160 -2.3566 0.9740
1.0548 6.0545 -2.3552 0.9740
0.6139 6.1076 -2.3523 0.9740
-0.0510 6.1270 -2.3481 0.9741
-0.2722 6.1175 -2.3467 0.9741
-0.9313 6.0412 -2.3425 0.9742
-1.3638 5.9512 -2.3397 0.9742
-1.5772 5.8946 -2.3384 0.9742
-1.9967 5.7587 -2.3357 0.9742
-2.2024 5.6796 -2.3344 0.9742
-2.4050 5.5932 -2.3332 0.9743
-2.6042 5.4996 -2.3319 0.9743
-2.9917 5.2916 -2.3295 0.9743
-3.3629 5.0565 -2.3272 0.9743
4.3777 4.3618 -2.5292 0.9736
4.2154 4.5152 -2.5281 0.9737
3.8747 4.8038 -2.5259 0.9737
3.6968 4.9384 -2.5247 0.9737
3.3270 5.1876 -2.5223 0.9737
3.0498 5.1567 -2.4520 0.9744
2.7615 5.0796 -2.3663 0.9753
2.5747 5.1735 -2.3651 0.9753
2.1918 5.3404 -2.3626 0.9754
1.7982 5.4789 -2.3600 0.9754
1.3961 5.5883 -2.3575 0.9754
0.9875 5.6683 -2.3548 0.9754
0.5747 5.7184 -2.3522 0.9755
0.1598 5.7384 -2.3495 0.9755
-0.0477 5.7372 -2.3482 0.9755
-0.4616 5.7124 -2.3455 0.9755
-0.6675 5.6888 -2.3442 0.9755
-1.0756 5.6194 -2.3416 0.9756
-1.2773 5.5738 -2.3404 0.9756
-1.4772 5.5210 -2.3391 0.9756
-1.8703 5.3941 -2.3366 0.9756
-2.0630 5.3202 -2.3354 0.9756
-2.2529 5.2395 -2.3342 0.9757
-2.6229 5.0579 -2.3319 0.9757
-2.8028 4.9574 -2.3308 0.9757
-2.9787 4.8505 -2.3297 0.9757
-3.1507 4.7375 -2.3286 0.9757
-3.3668 4.6857 -2.3614 0.9754
4.1085 4.0934 -2.5276 0.9750
3.7988 4.3761 -2.5255 0.9750
3.6366 4.5086 -2.5244 0.9750
3.4697 4.6351 -2.5233 0.9751
3.2984 4.7554 -2.5222 0.9751
2.9434 4.9767 -2.5199 0.9751
2.0577 5.0135 -2.3618 0.9766
1.8741 5.0820 -2.3606 0.9766
1.6883 5.1438 -2.3594 0.9767
1.1197 5.2882 -2.3558 0.9767
0.9273 5.3224 -2.3545 0.9767
0.7338 5.3496 -2.3533 0.9767
-0.2394 5.3801 -2.3470 0.9768
-0.4336 5.3651 -2.3458 0.9768
-1.1999 5.2357 -2.3409 0.9768
-1.3876 5.1862 -2.3398 0.9768
-1.5734 5.1301 -2.3386 0.9769
-2.2919 4.8403 -2.3341 0.9769
-2.4644 4.7521 -2.3330 0.9769
-3.3204 4.6211 -2.4799 0.9755
3.8659 3.8518 -2.5261 0.9762
3.7227 3.9875 -2.5251 0.9762
3.5747 4.1179 -2.5241 0.9763
3.4222 4.2428 -2.5231 0.9763
1.7640 4.7836 -2.3600 0.9778
1.5892 4.8419 -2.3589 0.9778
1.4124 4.8938 -2.3577 0.9778
1.2340 4.9393 -2.3566 0.9778
1.0541 4.9782 -2.3554 0.9778
0.8729 5.0106 -2.3542 0.9778
0.6909 5.0363 -2.3531 0.9778
0.5081 5.0555 -2.3519 0.9779
0.3248 5.0680 -2.3507 0.9779
-0.0421 5.0732 -2.3484 0.9779
-0.4083 5.0519 -2.3460 0.9779
-0.5903 5.0313 -2.3449 0.9779
-0.9514 4.9706 -2.3426 0.9779
-1.1300 4.9306 -2.3415 0.9780
-1.3068 4.8842 -2.3403 0.9780
-1.4819 4.8315 -2.3392 0.9780
-1.8266 4.7104 -2.3386 0.9780
-2.0180 4.6932 -2.3648 0.9777
-2.2187 4.6856 -2.3997 0.9774
-2.8074 4.5715 -2.4832 0.9766
3.5112 3.7609 -2.5238 0.9773
3.3717 3.8840 -2.5229 0.9773
3.2278 4.0018 -2.5219 0.9774
3.0799 4.1143 -2.5210 0.9774
2.6131 4.4182 -2.5179 0.9774
2.4506 4.5079 -2.5169 0.9774
1.9456 4.7406 -2.5136 0.9774
1.7481 4.7405 -2.4784 0.9777
1.1769 4.7108 -2.3818 0.9786
0.9986 4.7162 -2.3647 0.9788
0.6519 4.7522 -2.3529 0.9789
0.4795 4.7704 -2.3518 0.9789
0.1334 4.7881 -2.3496 0.9789
-0.3853 4.7676 -2.3463 0.9789
-1.2560 4.6944 -2.3837 0.9786
-1.4382 4.6892 -2.4059 0.9784
-1.6238 4.6833 -2.4315 0.9782
-1.8135 4.6768 -2.4605 0.9779
-2.0038 4.6603 -2.4883 0.9777
-2.3334 4.4996 -2.4863 0.9777
-2.6503 4.3157 -2.4843 0.9777
-2.9530 4.1098 -2.4824 0.9777
3.1866 3.6708 -2.5218 0.9783
2.6203 4.0857 -2.5180 0.9784
2.4700 4.1762 -2.5171 0.9784
2.3165 4.2610 -2.5161 0.9784
2.1600 4.3402 -2.5150 0.9784
2.0008 4.4137 -2.5140 0.9784
1.8392 4.4813 -2.5130 0.9784
1.1708 4.6865 -2.5060 0.9785
0.9929 4.6890 -2.4865 0.9786
0.6437 4.6924 -2.4571 0.9789
0.4717 4.6932 -2.4470 0.9790
-0.7220 4.6838 -2.4586 0.9789
-1.7354 4.4752 -2.4901 0.9786
-1.8953 4.4078 -2.4891 0.9786
-2.3586 4.1718 -2.4862 0.9786
3.1418 3.3653 -2.5216 0.9792
3.0171 3.4755 -2.5207 0.9792
2.8885 3.5811 -2.5199 0.9792
2.7562 3.6819 -2.5190 0.9792
2.4812 3.8687 -2.5172 0.9793
2.3388 3.9544 -2.5163 0.9793
2.1935 4.0348 -2.5153 0.9793
2.0454 4.1099 -2.5144 0.9793
1.8947 4.1796 -2.5134 0.9793
1.4293 4.3549 -2.5104 0.9793
0.9483 4.4785 -2.5073 0.9793
0.7854 4.5080 -2.5062 0.9793
0.2923 4.5607 -2.5030 0.9794
-0.0379 4.5661 -2.5009 0.9794
-0.2029 4.5598 -2.4999 0.9794
-0.3675 4.5476 -2.4988 0.9794
-0.5314 4.5294 -2.4978 0.9794
-0.8566 4.4755 -2.4957 0.9794
-1.0175 4.4398 -2.4947 0.9794
-1.1768 4.3983 -2.4937 0.9794
-1.4904 4.2983 -2.4917 0.9795
-1.6442 4.2400 -2.4907 0.9795
-1.7957 4.1762 -2.4898 0.9795
-1.9447 4.1070 -2.4889 0.9795
-2.0912 4.0325 -2.4879 0.9795
-2.3754 3.8681 -2.4862 0.9795
-2.5129 3.7784 -2.4853 0.9795
-2.6469 3.6838 -2.4845 0.9795
3.0937 3.0823 -2.5213 0.9800
2.9793 3.1912 -2.5206 0.9800
2.8611 3.2958 -2.5198 0.9800
2.7392 3.3960 -2.5190 0.9800
2.4850 3.5827 -2.5173 0.9801
1.7970 3.9640 -2.5128 0.9801
1.5047 4.0804 -2.5109 0.9801
1.3557 4.1306 -2.5100 0.9801
1.0529 4.2145 -2.5080 0.9801
0.8995 4.2481 -2.5070 0.9801
0.7450 4.2761 -2.5060 0.9802
0.4337 4.3153 -2.5040 0.9802
0.2773 4.3265 -2.5030 0.9802
0.1207 4.3319 -2.5020 0.9802
-0.1925 4.3259 -2.5000 0.9802
-0.3486 4.3144 -2.4990 0.9802
-0.5042 4.2972 -2.4980 0.9802
-0.6590 4.2745 -2.4970 0.9802
-0.8128 4.2462 -2.4961 0.9802
-0.9654 4.2124 -2.4951 0.9802
-1.1166 4.1732 -2.4941 0.9802
-1.2663 4.1285 -2.4932 0.9803
-1.4141 4.0785 -2.4923 0.9803
-1.5601 4.0232 -2.4913 0.9803
-1.8454 3.8972 -2.4895 0.9803
-1.9844 3.8266 -2.4887 0.9803
-2.1207 3.7510 -2.4878 0.9803
-2.2542 3.6707 -2.4870 0.9803
