ply
format ascii 1.0
element vertex 527
property float32 x
property float32 y
property float32 z
property float32 I
end_header
-37.8459 15.6924 7.2242 0.8467
-39.2399 13.0513 7.2917 0.8454
-42.0583 10.6999 7.6522 0.8384
-42.9352 9.2922 7.7459 0.8366
-38.1621 -7.0510 6.8429 0.8542
-38.3273 -8.5180 6.9230 0.8526
-21.8865 -6.5469 4.0281 0.9114
-20.3685 -8.5784 3.8970 0.9141
-41.2860 20.7146 7.0762 0.8295
-42.0287 19.2269 7.0803 0.8294
-37.9570 15.7385 6.2948 0.8468
-44.5649 13.0616 7.1143 0.8287
-42.0321 10.6933 6.6442 0.8390
-42.8684 9.2777 6.7192 0.8374
-38.2767 -8.5067 6.0068 0.8533
-21.8197 -6.5270 3.4890 0.9120
-21.2971 -8.0803 3.4895 0.9119
-21.1615 -8.9124 3.5176 0.9113
-43.2268 16.1267 6.0080 0.8302
-43.8286 11.1503 5.8892 0.8332
-45.5249 9.8527 6.0655 0.8287
-39.5852 -7.3139 5.2421 0.8501
-38.6991 -8.6006 5.1624 0.8522
-21.8766 -7.4113 3.0078 0.9110
-20.9659 -8.8300 2.9625 0.9123
-19.8801 -9.2283 2.8541 0.9154
-36.8274 25.6832 4.8213 0.8347
-45.2895 15.0634 5.1252 0.8253
-43.9351 12.8770 4.9163 0.8318
-22.2254 -6.6483 2.4911 0.9109
-21.7876 -7.3812 2.4702 0.9116
-21.1696 -8.0319 2.4313 0.9129
-21.2353 -8.9435 2.4743 0.9115
-35.9971 29.1657 3.9219 0.8303
-37.5321 24.2155 3.7811 0.8359
-41.0577 24.4443 4.0450 0.8255
-45.2700 15.0569 4.0386 0.8257
-37.5905 -8.3542 3.2598 0.8568
-22.1844 -6.6360 1.9602 0.9112
-20.8581 -8.7846 1.9159 0.9132
-35.5073 28.7689 2.8338 0.8326
-35.5293 26.7280 2.7570 0.8368
-35.5500 24.7924 2.6876 0.8406
-37.0508 23.9050 2.7342 0.8380
-40.2074 23.9381 2.9017 0.8290
-38.7618 -7.1618 2.4443 0.8539
-20.9867 22.7132 1.2194 0.8836
-22.1913 22.3474 1.2418 0.8816
-36.6486 23.6455 1.7198 0.8398
-38.6854 23.0319 1.7753 0.8351
-38.8647 -7.1808 1.5584 0.8537
-20.5221 -8.6431 0.8781 0.9147
-20.9609 22.6854 0.5217 0.8838
-28.9881 27.1636 0.6711 0.8531
-28.9750 25.2561 0.6493 0.8575
-30.2853 22.7831 0.6402 0.8593
-32.7053 22.8085 0.6735 0.8526
-10.3706 6.6911 0.2085 0.9518
-42.3755 23.2060 0.8161 0.8242
-22.3091 -7.5579 0.3979 0.9101
-6.0490 6.5467 -0.0502 0.9650
-10.1268 6.5338 -0.0679 0.9529
-11.9441 6.5410 -0.0767 0.9470
-14.2818 6.5336 -0.0884 0.9391
-15.6157 6.4750 -0.0952 0.9346
-22.1988 6.5064 -0.1302 0.9116
-29.9336 6.4784 -0.1724 0.8847
-30.9241 -8.0504 -0.1799 0.8800
-6.0489 6.5466 -0.2510 0.9650
-6.9831 6.5437 -0.2695 0.9624
-7.5052 6.5420 -0.2803 0.9609
-8.6911 6.5383 -0.3062 0.9574
-10.1265 6.5337 -0.3393 0.9529
-10.8296 6.4477 -0.3549 0.9508
-13.0294 6.5374 -0.4105 0.9433
-14.2814 6.5334 -0.4422 0.9391
-22.1980 6.5061 -0.6513 0.9116
-25.5318 6.4955 -0.7418 0.8999
-29.9321 6.4781 -0.8623 0.8847
-36.0613 6.4561 -1.0316 0.8636
-6.4993 6.5451 -0.4678 0.9637
-6.9830 6.5436 -0.4853 0.9624
-7.5051 6.5419 -0.5049 0.9609
-8.0718 6.5401 -0.5269 0.9592
-9.3719 6.5360 -0.5795 0.9553
-10.8294 6.4475 -0.6392 0.9508
-11.9435 6.5407 -0.6906 0.9469
-13.0291 6.5372 -0.7393 0.9433
-22.1971 6.5059 -1.1731 0.9115
-25.5306 6.4953 -1.3360 0.8999
-36.0592 6.4557 -1.8578 0.8635
-42.6240 4.4998 -2.1737 0.8423
-43.5417 3.0177 -2.2135 0.8396
-43.6416 -0.1211 -2.2133 0.8396
-40.6082 -6.0011 -2.0818 0.8484
-40.3970 -7.4639 -2.0834 0.8483
-41.6208 -14.1003 -2.2286 0.8386
-41.1481 -15.6119 -2.2319 0.8384
-40.6264 -17.1103 -2.2356 0.8382
-40.0559 -18.5940 -2.2396 0.8379
-6.0487 6.5464 -0.6535 0.9649
-6.4992 6.5450 -0.6763 0.9637
-6.9829 6.5435 -0.7017 0.9623
-7.5050 6.5418 -0.7300 0.9609
-9.3717 6.5359 -0.8378 0.9552
-10.1262 6.5334 -0.8836 0.9528
-11.9433 6.5405 -0.9984 0.9469
-13.0288 6.5370 -1.0688 0.9432
-15.6233 6.4781 -1.2401 0.9344
-19.5813 6.5128 -1.5131 0.9206
-25.5296 6.4950 -1.9315 0.8997
-28.7722 6.2270 -2.1585 0.8886
-28.9626 5.1851 -2.1574 0.8887
-31.0068 4.4064 -2.2963 0.8820
-31.1359 3.2870 -2.2956 0.8820
-31.2808 -1.2131 -2.2953 0.8820
-31.2242 -2.3383 -2.2958 0.8820
-31.1304 -3.4613 -2.2966 0.8819
-30.8316 -5.6966 -2.2989 0.8818
-28.7616 -6.3921 -2.1603 0.8885
-28.5347 -7.4284 -2.1620 0.8885
-28.2736 -8.4575 -2.1638 0.8884
-29.7926 -10.0931 -2.3064 0.8815
-29.4417 -11.1704 -2.3089 0.8814
-29.0548 -12.2368 -2.3116 0.8812
-28.6322 -13.2911 -2.3145 0.8811
-6.0486 6.5464 -0.8557 0.9648
-8.6906 6.5379 -1.0441 0.9572
-10.8290 6.4473 -1.2099 0.9506
-11.9430 6.5404 -1.3073 0.9468
-13.0285 6.5369 -1.3994 0.9431
-14.2803 6.5329 -1.5076 0.9388
-24.3688 0.8096 -2.3408 0.9067
-24.3825 -0.0677 -2.3408 0.9067
-24.0084 -4.4359 -2.3439 0.9066
-23.8454 -5.2995 -2.3451 0.9065
-22.0052 -6.5825 -2.2051 0.9118
-21.2209 -8.9374 -2.2106 0.9116
-6.0485 6.5463 -1.0587 0.9647
-6.4990 6.5448 -1.0956 0.9635
-7.5047 6.5416 -1.1826 0.9607
-8.0714 6.5398 -1.2340 0.9590
-8.6905 6.5378 -1.2918 0.9571
-9.3713 6.5356 -1.3572 0.9550
-10.1258 6.5332 -1.4314 0.9526
-10.8287 6.4471 -1.4970 0.9505
-13.0282 6.5367 -1.7314 0.9430
-15.6284 6.4802 -2.0097 0.9341
-17.6080 6.5690 -2.2324 0.9271
-17.8223 5.9277 -2.2311 0.9271
-18.2218 4.6358 -2.2334 0.9271
-19.5206 4.2247 -2.3725 0.9227
-19.6535 3.5185 -2.3717 0.9227
-19.9066 1.3796 -2.3703 0.9228
-19.9533 -0.0554 -2.3702 0.9228
-19.9400 -0.7733 -2.3704 0.9228
-19.9022 -1.4904 -2.3707 0.9228
-19.8400 -2.2060 -2.3712 0.9227
-19.7534 -2.9192 -2.3719 0.9227
-19.5074 -4.3354 -2.3737 0.9227
-19.3482 -5.0369 -2.3749 0.9226
-19.1651 -5.7329 -2.3762 0.9226
-17.8035 -6.0315 -2.2329 0.9271
-17.5869 -6.6726 -2.2344 0.9270
-17.3484 -7.3065 -2.2361 0.9270
-17.0881 -7.9324 -2.2379 0.9269
-6.4989 6.5447 -1.3068 0.9634
-6.9825 6.5432 -1.3558 0.9621
-9.3711 6.5355 -1.6188 0.9549
-10.8285 6.4470 -1.7856 0.9504
-11.9425 6.5401 -1.9292 0.9465
-15.0646 5.0105 -2.2495 0.9379
-16.3700 4.1647 -2.3933 0.9340
-16.5037 3.5718 -2.3925 0.9341
-16.7813 1.7716 -2.3910 0.9341
-16.8324 1.1666 -2.3907 0.9341
-16.8627 0.5602 -2.3906 0.9341
-16.8721 -0.0468 -2.3906 0.9341
-16.8606 -0.6539 -2.3908 0.9341
-16.8282 -1.2602 -2.3911 0.9341
-16.7751 -1.8652 -2.3915 0.9341
-16.7012 -2.4681 -2.3921 0.9341
-16.4911 -3.6650 -2.3936 0.9340
-16.0227 -5.4282 -2.3970 0.9339
-14.4373 -6.7018 -2.2553 0.9377
-6.9824 6.5431 -1.5764 0.9620
-8.6902 6.5376 -1.7915 0.9569
-9.3710 6.5354 -1.8821 0.9547
-10.8283 6.4469 -2.0761 0.9502
-12.5099 5.7229 -2.2663 0.9458
-12.8995 4.8124 -2.2681 0.9457
-13.8802 4.6166 -2.4098 0.9424
-14.0318 4.1126 -2.4088 0.9424
-14.1659 3.6039 -2.4080 0.9425
-14.2822 3.0910 -2.4073 0.9425
-14.3808 2.5746 -2.4067 0.9425
-14.4613 2.0551 -2.4063 0.9425
-14.5238 1.5333 -2.4059 0.9425
-14.6026 -0.0405 -2.4056 0.9425
-14.5179 -1.6142 -2.4064 0.9425
-14.3710 -2.6552 -2.4075 0.9425
-14.2705 -3.1715 -2.4083 0.9425
-14.0162 -4.1927 -2.4101 0.9424
-13.8625 -4.6963 -2.4112 0.9424
-6.9823 6.5430 -1.7986 0.9618
-7.5043 6.5413 -1.8712 0.9603
-8.6900 6.5374 -2.0440 0.9567
-9.3708 6.5352 -2.1474 0.9546
-10.1994 6.5806 -2.2815 0.9518
-11.0128 5.0381 -2.2763 0.9519
-11.2382 4.6598 -2.2867 0.9517
-12.0717 4.5036 -2.4218 0.9489
-12.2212 4.0648 -2.4208 0.9489
-12.3553 3.6213 -2.4200 0.9489
-12.5768 2.7219 -2.4187 0.9490
-12.7351 1.8098 -2.4178 0.9490
-12.8296 0.8892 -2.4173 0.9490
-12.8529 0.4270 -2.4172 0.9490
-12.8600 -0.0357 -2.4172 0.9490
-12.8260 -0.9605 -2.4175 0.9490
-12.7278 -1.8809 -2.4183 0.9490
-12.4612 -3.2440 -2.4203 0.9489
-12.3407 -3.6915 -2.4211 0.9489
-12.2048 -4.1347 -2.4221 0.9489
-11.8868 -5.0063 -2.4243 0.9489
-6.0482 6.5459 -1.8839 0.9642
-6.9822 6.5428 -2.0226 0.9616
-8.0709 6.5393 -2.1957 0.9584
-8.6637 6.5175 -2.2917 0.9566
-9.2989 5.5363 -2.2876 0.9567
-9.6631 4.8483 -2.2853 0.9568
-10.1629 4.6492 -2.3623 0.9553
-10.6252 4.4056 -2.4314 0.9541
-11.0266 3.2318 -2.4289 0.9541
-11.1328 2.8323 -2.4282 0.9541
-11.2249 2.4294 -2.4277 0.9541
-11.3029 2.0236 -2.4272 0.9541
-11.4513 0.7936 -2.4264 0.9542
-11.4704 -0.4448 -2.4264 0.9542
-11.4480 -0.8573 -2.4267 0.9541
-11.4111 -1.2688 -2.4270 0.9541
-11.3600 -1.6788 -2.4274 0.9541
-11.2945 -2.0868 -2.4278 0.9541
-11.0131 -3.2944 -2.4299 0.9541
-10.8913 -3.6898 -2.4307 0.9541
-10.7557 -4.0808 -2.4317 0.9541
-6.4985 6.5443 -2.1675 0.9628
-6.9821 6.5427 -2.2488 0.9614
-7.3777 6.4309 -2.3002 0.9606
-8.2049 5.2938 -2.2949 0.9607
-8.3858 4.9926 -2.2937 0.9607
-8.5560 4.6855 -2.2926 0.9607
-9.4380 4.3176 -2.4392 0.9583
-9.5836 3.9738 -2.4383 0.9583
-9.7171 3.6252 -2.4375 0.9583
-10.1262 2.1915 -2.4350 0.9583
-10.1967 1.8255 -2.4346 0.9583
-10.2544 1.4573 -2.4342 0.9583
-10.2991 1.0873 -2.4340 0.9583
-10.3309 0.7160 -2.4338 0.9583
-10.3554 -0.0287 -2.4338 0.9583
-10.3278 -0.7734 -2.4341 0.9583
-10.2480 -1.5145 -2.4347 0.9583
-10.1167 -2.2484 -2.4357 0.9583
-10.0317 -2.6115 -2.4363 0.9583
-9.9341 -2.9716 -2.4370 0.9583
-9.7013 -3.6808 -2.4386 0.9583
-9.5662 -4.0290 -2.4396 0.9582
-6.0519 6.5498 -2.3090 0.9638
-6.7100 5.8488 -2.3047 0.9639
-6.9121 5.6004 -2.3034 0.9639
-7.1053 5.3452 -2.3022 0.9639
-7.4637 4.8157 -2.2999 0.9640
-8.2887 4.5391 -2.4468 0.9617
-8.7198 3.6156 -2.4441 0.9617
-8.9519 2.9774 -2.4427 0.9618
-9.0510 2.6528 -2.4420 0.9618
-9.2146 1.9943 -2.4411 0.9618
-9.2789 1.6612 -2.4407 0.9618
-9.3315 1.3261 -2.4404 0.9618
-9.3723 0.9894 -2.4401 0.9618
-9.4236 -0.0262 -2.4399 0.9618
-9.4169 -0.3652 -2.4400 0.9618
-9.3679 -1.0416 -2.4405 0.9618
-9.3255 -1.3781 -2.4408 0.9618
-9.1282 -2.3763 -2.4422 0.9618
-9.0392 -2.7039 -2.4429 0.9618
-8.9386 -3.0282 -2.4436 0.9618
-8.8267 -3.3489 -2.4444 0.9617
-8.5693 -3.9779 -2.4462 0.9617
-5.5433 5.9994 -2.3124 0.9666
-5.9536 5.5789 -2.3098 0.9667
-6.1471 5.3582 -2.3085 0.9667
-6.3326 5.1309 -2.3073 0.9667
-7.2125 4.6535 -2.4299 0.9649
-7.5953 4.1594 -2.4515 0.9646
-7.7371 3.8820 -2.4506 0.9647
-7.9910 3.3134 -2.4490 0.9647
-8.1027 3.0229 -2.4483 0.9647
-8.2041 2.7287 -2.4476 0.9647
-8.4453 1.8278 -2.4462 0.9647
-8.5044 1.5225 -2.4458 0.9647
-8.5527 1.2154 -2.4455 0.9647
-8.6168 0.5972 -2.4452 0.9647
-8.6372 -0.0240 -2.4452 0.9647
-8.6140 -0.6451 -2.4454 0.9647
-8.5860 -0.9547 -2.4456 0.9647
-8.5471 -1.2631 -2.4459 0.9647
-8.4370 -1.8751 -2.4467 0.9647
-8.3659 -2.1779 -2.4473 0.9647
-7.9759 -3.3591 -2.4500 0.9647
-5.1085 5.5289 -2.3154 0.9690
-5.6657 4.9386 -2.3117 0.9690
-5.8369 4.7293 -2.3106 0.9691
-6.5557 4.5719 -2.4583 0.9671
-6.7131 4.3313 -2.4573 0.9671
-6.8620 4.0854 -2.4563 0.9671
-7.2548 3.3189 -2.4539 0.9672
-7.3674 3.0548 -2.4531 0.9672
-7.4705 2.7871 -2.4525 0.9672
-7.5642 2.5159 -2.4519 0.9672
-7.6482 2.2416 -2.4514 0.9672
-7.7225 1.9647 -2.4509 0.9672
-7.8415 1.4039 -2.4502 0.9672
-7.8861 1.1207 -2.4500 0.9672
-7.9453 0.5507 -2.4497 0.9672
-7.9597 0.2644 -2.4496 0.9672
-7.9641 -0.0221 -2.4496 0.9672
-7.9427 -0.5948 -2.4498 0.9672
-7.8809 -1.1646 -2.4503 0.9672
-7.8350 -1.4476 -2.4507 0.9672
-7.7134 -2.0080 -2.4516 0.9672
-7.6378 -2.2847 -2.4521 0.9672
-7.4576 -2.8295 -2.4534 0.9672
-7.2393 -3.3605 -2.4549 0.9672
-4.7322 5.1216 -2.3179 0.9710
-5.0832 4.7633 -2.3156 0.9711
-5.3644 4.6759 -2.3655 0.9704
-6.2201 4.0132 -2.4606 0.9693
-6.3582 3.7855 -2.4597 0.9693
-6.4881 3.5531 -2.4589 0.9693
-6.6096 3.3163 -2.4581 0.9693
-6.8272 2.8308 -2.4568 0.9693
-7.0878 2.0774 -2.4551 0.9693
-7.3406 0.7750 -2.4536 0.9694
-7.3634 0.5103 -2.4535 0.9694
-7.3768 0.2451 -2.4535 0.9694
-7.3809 -0.0205 -2.4535 0.9694
-7.3610 -0.5512 -2.4537 0.9694
-7.2092 -1.6022 -2.4548 0.9693
-6.9988 -2.3711 -2.4563 0.9693
-6.9107 -2.6220 -2.4570 0.9693
-6.8138 -2.8697 -2.4576 0.9693
-6.7081 -3.1139 -2.4584 0.9693
-5.2010 4.5334 -2.4673 0.9711
-5.5090 4.1444 -2.4653 0.9711
-5.6524 3.9420 -2.4644 0.9711
-5.7886 3.7348 -2.4635 0.9712
-5.9172 3.5229 -2.4627 0.9712
-6.0382 3.3067 -2.4619 0.9712
-6.2569 2.8623 -2.4605 0.9712
-6.3542 2.6347 -2.4599 0.9712
-6.4434 2.4039 -2.4594 0.9712
-6.6613 1.6947 -2.4580 0.9712
-6.7170 1.4537 -2.4577 0.9712
-6.7642 1.2110 -2.4574 0.9712
-6.8516 -0.5131 -2.4571 0.9712
-6.8292 -0.7593 -2.4572 0.9712
-6.7981 -1.0046 -2.4575 0.9712
-6.5140 -2.2068 -2.4595 0.9712
-6.4319 -2.4403 -2.4601 0.9712
-6.3416 -2.6709 -2.4607 0.9712
-6.2431 -2.8981 -2.4614 0.9712
-4.8579 4.2344 -2.4696 0.9728
-5.0052 4.0554 -2.4687 0.9728
-5.4073 3.4888 -2.4661 0.9728
-5.5276 3.2910 -2.4653 0.9728
-5.7467 2.8833 -2.4639 0.9728
-6.0197 2.2458 -2.4622 0.9729
-6.0954 2.0274 -2.4617 0.9729
-6.1634 1.8065 -2.4613 0.9729
-6.2234 1.5833 -2.4609 0.9729
-6.4154 0.2131 -2.4598 0.9729
-6.4189 -0.0178 -2.4599 0.9729
-6.3805 -0.7094 -2.4602 0.9729
-6.2690 -1.3933 -2.4610 0.9729
-6.1547 -1.8411 -2.4619 0.9729
-6.0857 -2.0617 -2.4623 0.9729
-6.0088 -2.2798 -2.4629 0.9728
-5.9244 -2.4951 -2.4635 0.9728
-5.8323 -2.7074 -2.4641 0.9728
-4.1032 4.4408 -2.4746 0.9742
-4.2586 4.2885 -2.4736 0.9742
-4.8226 3.6280 -2.4699 0.9743
-5.1806 3.0844 -2.4676 0.9743
-5.5640 2.3071 -2.4652 0.9743
-5.6422 2.1050 -2.4647 0.9743
-5.8334 1.4841 -2.4635 0.9743
-5.8823 1.2731 -2.4632 0.9743
-5.9807 -0.6650 -2.4628 0.9743
-5.8761 -1.3059 -2.4636 0.9743
-5.8262 -1.5167 -2.4640 0.9743
-5.6320 -2.1368 -2.4654 0.9743
-5.5527 -2.3386 -2.4659 0.9743
-5.4662 -2.5375 -2.4665 0.9743
-3.8559 4.1732 -2.4763 0.9755
-4.0020 4.0302 -2.4753 0.9755
-4.1429 3.8822 -2.4744 0.9755
-4.5324 3.4097 -2.4719 0.9756
-4.6507 3.2434 -2.4711 0.9756
-4.7630 3.0731 -2.4704 0.9756
-5.0625 2.5401 -2.4685 0.9756
-5.6001 0.7958 -2.4652 0.9756
-5.6248 0.5938 -2.4650 0.9756
-5.6527 0.1878 -2.4649 0.9756
-5.6558 -0.0157 -2.4649 0.9756
-5.6517 -0.2192 -2.4650 0.9756
-5.6403 -0.4224 -2.4651 0.9756
-5.6219 -0.6251 -2.4652 0.9756
-5.5962 -0.8270 -2.4654 0.9756
-5.5634 -1.0279 -2.4657 0.9756
-5.5234 -1.2276 -2.4660 0.9756
-5.4764 -1.4257 -2.4663 0.9756
-5.3616 -1.8164 -2.4671 0.9756
-5.2937 -2.0085 -2.4676 0.9756
-5.1378 -2.3850 -2.4687 0.9756
-3.7704 3.7969 -2.4769 0.9767
-3.9032 3.6575 -2.4760 0.9767
-4.6821 2.5641 -2.4710 0.9767
-4.7703 2.3934 -2.4704 0.9768
-4.9280 2.0434 -2.4694 0.9768
-4.9975 1.8644 -2.4690 0.9768
-5.1171 1.4998 -2.4683 0.9768
-5.1671 1.3146 -2.4680 0.9768
-5.2104 1.1277 -2.4677 0.9768
-5.2472 0.9394 -2.4675 0.9768
-5.3171 0.3685 -2.4671 0.9768
-5.3297 -0.0148 -2.4671 0.9768
-5.3258 -0.2065 -2.4671 0.9768
-5.3152 -0.3980 -2.4672 0.9768
-5.2977 -0.5890 -2.4674 0.9768
-5.2735 -0.7793 -2.4676 0.9768
-5.2425 -0.9686 -2.4678 0.9768
-5.2049 -1.1568 -2.4681 0.9768
-5.1606 -1.3434 -2.4684 0.9768
-5.1096 -1.5285 -2.4687 0.9768
-5.0522 -1.7116 -2.4691 0.9768
-4.9179 -2.0712 -2.4701 0.9768
-4.8412 -2.2473 -2.4706 0.9767
-3.4299 3.7121 -2.4791 0.9777
-3.8061 3.3176 -2.4767 0.9778
-3.9218 3.1776 -2.4760 0.9778
-4.0324 3.0336 -2.4752 0.9778
-4.1378 2.8857 -2.4746 0.9778
-4.2379 2.7343 -2.4739 0.9778
-4.3324 2.5794 -2.4733 0.9778
-4.4214 2.4213 -2.4727 0.9778
-4.5047 2.2602 -2.4722 0.9778
-4.5822 2.0962 -2.4717 0.9778
-4.7194 1.7607 -2.4709 0.9778
-4.7790 1.5895 -2.4705 0.9778
-4.8797 1.2414 -2.4699 0.9778
-4.9207 1.0650 -2.4696 0.9778
-4.9838 0.7083 -2.4693 0.9778
-5.0214 0.3480 -2.4691 0.9778
-5.0306 0.1671 -2.4690 0.9778
-5.0334 -0.0140 -2.4690 0.9778
-5.0298 -0.1951 -2.4691 0.9778
-5.0197 -0.3759 -2.4692 0.9778
-4.8735 -1.2687 -2.4703 0.9778
-4.8254 -1.4434 -2.4706 0.9778
-3.3678 3.3916 -2.4796 0.9787
-3.4866 3.2672 -2.4788 0.9787
-3.7104 3.0062 -2.4774 0.9787
-4.0096 2.5870 -2.4755 0.9787
-4.1833 2.2909 -2.4743 0.9787
-4.2621 2.1385 -2.4738 0.9787
-4.3355 1.9834 -2.4734 0.9787
-4.5218 1.5040 -2.4722 0.9788
-4.5724 1.3402 -2.4719 0.9788
-4.6172 1.1747 -2.4716 0.9788
-4.6889 0.8395 -2.4712 0.9788
-4.7158 0.6702 -2.4710 0.9788
-4.7366 0.5000 -2.4709 0.9788
-4.7592 -0.1846 -2.4709 0.9788
-4.6113 -1.2005 -2.4720 0.9788
-4.5657 -1.3658 -2.4723 0.9788
-4.4571 -1.6911 -2.4731 0.9787
-4.3941 -1.8507 -2.4735 0.9787
-3.4124 2.9745 -2.4794 0.9796
-3.5163 2.8490 -2.4787 0.9796
-3.6155 2.7199 -2.4780 0.9796
-3.7101 2.5875 -2.4774 0.9796
-3.9647 2.1712 -2.4758 0.9796
-4.0395 2.0268 -2.4753 0.9796
-4.1734 1.7305 -2.4745 0.9796
-4.2323 1.5790 -2.4741 0.9796
-4.3338 1.2702 -2.4735 0.9796
-4.3762 1.1133 -2.4732 0.9796
-4.4130 0.9551 -2.4730 0.9796
-4.4442 0.7956 -2.4728 0.9796
-4.4697 0.6352 -2.4727 0.9796
-4.4894 0.4740 -2.4726 0.9796
-4.5035 0.3121 -2.4725 0.9796
-4.5109 -0.1749 -2.4725 0.9796
-4.4870 -0.4989 -2.4727 0.9796
-4.4082 -0.9797 -2.4733 0.9796
-4.3705 -1.1378 -2.4736 0.9796
-4.3273 -1.2945 -2.4739 0.9796
-4.2786 -1.4495 -2.4742 0.9796
-4.1646 -1.7540 -2.4750 0.9796
-3.0290 3.0503 -2.4819 0.9803
-3.1359 2.9385 -2.4812 0.9803
-3.2387 2.8231 -2.4805 0.9804
-3.4316 2.5816 -2.4793 0.9804
-3.6873 2.1953 -2.4776 0.9804
-3.7632 2.0608 -2.4772 0.9804
-3.8342 1.9238 -2.4767 0.9804
-4.0681 1.3531 -2.4752 0.9804
-4.2427 0.6029 -2.4742 0.9804
-4.2827 0.1423 -2.4740 0.9804
-4.2396 -0.6265 -2.4744 0.9804
-4.2147 -0.7787 -2.4746 0.9804
-4.1075 -1.2287 -2.4753 0.9804
-4.0612 -1.3759 -2.4757 0.9804
-4.0097 -1.5213 -2.4760 0.9804
-3.8912 -1.8063 -2.4769 0.9804
