ply
format ascii 1.0
element vertex 660
property float32 x
property float32 y
property float32 z
property float32 I
end_header
-12.5040 -7.5294 2.5737 0.9424
-33.7945 -22.0309 7.1133 0.8489
-28.4587 -21.5956 6.2993 0.8649
-24.5496 -21.5556 5.7606 0.8757
-22.8370 -21.5436 5.5358 0.8803
-21.2546 -21.5360 5.3353 0.8844
-6.0871 -7.1193 1.6516 0.9627
-5.9118 -7.4361 1.6751 0.9621
-4.3612 -8.1149 1.6244 0.9633
-3.9322 -7.9882 1.5699 0.9645
-3.6247 -8.0792 1.5614 0.9647
-3.2743 -8.9614 1.6823 0.9620
-2.9383 -9.0298 1.6744 0.9622
-6.1487 -21.4723 3.9383 0.9133
-5.3237 -21.4583 3.8984 0.9141
-4.5162 -21.4543 3.8659 0.9148
-2.1581 -21.4352 3.7987 0.9162
-1.3870 -21.4304 3.7867 0.9165
-0.6199 -21.4257 3.7795 0.9166
0.1454 -21.4295 3.7787 0.9166
1.6768 -21.3972 3.7845 0.9165
-39.0230 -21.6384 6.8357 0.8348
-12.5050 -7.5300 2.2362 0.9426
-30.6723 -21.5942 5.7465 0.8592
-24.5500 -21.5560 5.0049 0.8762
-22.8377 -21.5442 4.8097 0.8807
-6.0570 -7.0840 1.4278 0.9630
-5.8821 -7.3988 1.4480 0.9625
-5.0237 -6.8043 1.2957 0.9664
-4.8013 -7.5811 1.3747 0.9643
-4.4628 -7.6369 1.3550 0.9648
-3.5929 -8.0083 1.3446 0.9651
-3.2719 -8.0508 1.3313 0.9654
-2.9295 -9.0025 1.4503 0.9624
-6.1485 -21.4717 3.4215 0.9136
-4.5162 -21.4543 3.3587 0.9151
-3.7211 -21.4504 3.3352 0.9157
-2.9351 -21.4404 3.3152 0.9162
-2.1581 -21.4356 3.3004 0.9165
1.6768 -21.3972 3.2880 0.9168
-12.5060 -7.5306 1.9010 0.9428
-33.1477 -21.6092 5.1527 0.8525
-30.6723 -21.5942 4.8848 0.8596
-28.4554 -21.5930 4.6516 0.8658
-26.4059 -21.5657 4.4397 0.8715
-24.5504 -21.5564 4.2545 0.8765
-5.8530 -7.3621 1.2248 0.9628
-5.6856 -7.7007 1.2465 0.9621
-4.6869 -8.0202 1.2097 0.9632
-4.2921 -7.9864 1.1807 0.9641
-3.5917 -8.0057 1.1426 0.9652
-3.2441 -8.8789 1.2310 0.9626
-6.1484 -21.4711 2.9084 0.9138
-4.5162 -21.4543 2.8550 0.9154
-3.7211 -21.4504 2.8350 0.9159
-0.6199 -21.4266 2.7914 0.9172
1.6768 -21.3973 2.7949 0.9171
3.3487 -22.2129 2.9253 0.9134
-42.5847 -21.6630 5.1305 0.8251
-33.1462 -21.6082 4.2488 0.8528
-30.6724 -21.5942 4.0280 0.8599
-22.8391 -21.5456 3.3716 0.8813
-19.7807 -21.5284 3.1394 0.8890
-5.8243 -7.3260 1.0050 0.9630
-4.6662 -7.3678 0.9365 0.9655
-4.6156 -7.8983 0.9823 0.9639
-3.5317 -8.6902 1.0073 0.9630
-6.1482 -21.4706 2.3982 0.9141
-5.3237 -21.4584 2.3741 0.9149
-4.5162 -21.4544 2.3543 0.9156
-3.7211 -21.4504 2.3378 0.9161
-2.9353 -21.4413 2.3239 0.9166
-1.3871 -21.4318 2.3062 0.9172
1.6768 -21.3973 2.3047 0.9173
-12.5079 -7.5318 1.2360 0.9431
-33.1446 -21.6072 3.3493 0.8531
-30.6724 -21.5943 3.1754 0.8602
-26.4068 -21.5665 2.8862 0.8721
-21.2572 -21.5385 2.5617 0.8856
-18.4024 -21.5227 2.3972 0.8925
-5.7919 -7.2853 0.7879 0.9633
-4.7604 -7.5164 0.7532 0.9649
-4.6436 -7.9461 0.7791 0.9637
-4.2166 -7.8459 0.7540 0.9649
-3.8157 -8.5051 0.7891 0.9633
-6.1481 -21.4700 1.8905 0.9142
-4.5162 -21.4544 1.8560 0.9157
-3.7211 -21.4504 1.8430 0.9163
-2.9353 -21.4418 1.8320 0.9168
-1.3872 -21.4322 1.8181 0.9174
0.9100 -21.4002 1.8132 0.9176
2.4681 -21.5719 1.8380 0.9165
3.3501 -22.2222 1.9024 0.9137
-33.1400 -21.6043 2.4531 0.8534
-28.4504 -21.5893 2.2147 0.8666
-26.4073 -21.5669 2.1143 0.8723
-24.5518 -21.5576 2.0261 0.8773
-5.7166 -7.1906 0.5696 0.9639
-5.5128 -7.4667 0.5755 0.9635
-5.1955 -7.5898 0.5704 0.9638
-4.7211 -7.4544 0.5472 0.9653
-4.6385 -7.9375 0.5701 0.9638
-4.1597 -7.7399 0.5449 0.9654
-4.0971 -8.3230 0.5753 0.9635
-3.7784 -8.4217 0.5724 0.9637
-7.8473 -21.4769 1.4179 0.9124
-4.5162 -21.4544 1.3596 0.9159
-0.6199 -21.4279 1.3293 0.9177
0.1455 -21.4288 1.3288 0.9177
0.9100 -21.3999 1.3282 0.9177
2.4682 -21.5728 1.3465 0.9167
3.3508 -22.2268 1.3939 0.9139
-39.0200 -21.6367 1.7593 0.8364
-33.1401 -21.6043 1.5599 0.8535
-28.4487 -21.5880 1.4082 0.8668
-22.8412 -21.5475 1.2382 0.8819
-21.2584 -21.5398 1.1933 0.8859
-17.1042 -21.5143 1.0838 0.8958
-4.9848 -7.8708 0.3674 0.9634
-3.7418 -8.3402 0.3604 0.9641
-3.4292 -8.4379 0.3591 0.9642
-7.8471 -21.4763 0.9016 0.9125
-6.1478 -21.4689 0.8806 0.9145
-5.3237 -21.4584 0.8718 0.9153
-1.3872 -21.4331 0.8469 0.9176
-0.6199 -21.4284 0.8453 0.9178
0.1455 -21.4286 0.8450 0.9178
0.9100 -21.3996 0.8446 0.9178
1.6768 -21.3973 0.8463 0.9177
2.4683 -21.5737 0.8562 0.9167
-42.5722 -21.6567 0.8068 0.8261
-39.0194 -21.6364 0.7537 0.8365
-33.1399 -21.6041 0.6682 0.8536
-30.6726 -21.5944 0.6336 0.8606
-28.4471 -21.5867 0.6032 0.8669
-26.4083 -21.5677 0.5760 0.8725
-19.7836 -21.5316 0.4939 0.8896
-18.4044 -21.5249 0.4784 0.8929
-17.1048 -21.5151 0.4643 0.8959
-5.3721 -7.2762 0.1528 0.9645
-5.1678 -7.5493 0.1545 0.9641
-4.0181 -8.1627 0.1537 0.9643
-3.7060 -8.2604 0.1529 0.9644
-4.5162 -21.4544 0.3703 0.9160
-3.7211 -21.4505 0.3677 0.9166
-1.3872 -21.4336 0.3628 0.9177
-0.6200 -21.4288 0.3621 0.9178
0.1455 -21.4285 0.3620 0.9178
2.4684 -21.5746 0.3668 0.9168
3.3522 -22.2361 0.3799 0.9140
-42.5691 -21.6551 -0.2689 0.8261
-12.5113 -7.5338 -0.0822 0.9433
-30.6726 -21.5944 -0.2112 0.8607
-26.4088 -21.5681 -0.1920 0.8725
-22.8426 -21.5488 -0.1768 0.8820
-19.7843 -21.5324 -0.1646 0.8896
-18.4050 -21.5257 -0.1594 0.8929
-3.9799 -8.0849 -0.0507 0.9646
-4.5162 -21.4545 -0.1234 0.9160
-3.7211 -21.4505 -0.1226 0.9166
-1.3873 -21.4340 -0.1209 0.9177
-0.6200 -21.4293 -0.1207 0.9178
0.9100 -21.3991 -0.1206 0.9179
1.6768 -21.3973 -0.1208 0.9177
2.4685 -21.5755 -0.1223 0.9168
3.3529 -22.2407 -0.1266 0.9140
-42.5660 -21.6535 -1.3447 0.8260
-12.5121 -7.5343 -0.4113 0.9432
-33.1368 -21.6021 -1.1138 0.8536
-26.4093 -21.5685 -0.9601 0.8725
-24.5535 -21.5591 -0.9201 0.8774
-22.8433 -21.5495 -0.8843 0.8819
-19.7850 -21.5331 -0.8234 0.8896
-18.4057 -21.5265 -0.7975 0.8929
-15.8801 -21.5083 -0.7528 0.8985
-14.7235 -21.5085 -0.7339 0.9010
-4.5473 -8.4611 -0.2705 0.9623
-9.6389 -21.4844 -0.6631 0.9101
-8.7291 -21.4784 -0.6528 0.9114
-7.8464 -21.4746 -0.6438 0.9126
-6.1473 -21.4673 -0.6288 0.9145
-4.5162 -21.4545 -0.6173 0.9160
-2.9356 -21.4440 -0.6094 0.9170
-2.1585 -21.4392 -0.6067 0.9174
-1.3873 -21.4345 -0.6048 0.9176
0.1455 -21.4282 -0.6034 0.9178
1.6768 -21.3974 -0.6044 0.9177
3.3536 -22.2453 -0.6335 0.9139
-36.4085 -20.1887 -2.1113 0.8464
-12.5129 -7.5348 -0.7408 0.9432
-26.4098 -21.5689 -1.7293 0.8723
-22.8440 -21.5502 -1.5927 0.8818
-19.7858 -21.5339 -1.4831 0.8895
-18.4063 -21.5272 -1.4364 0.8928
-15.8806 -21.5091 -1.3559 0.8985
-4.7715 -7.5340 -0.4523 0.9649
-4.6118 -7.8918 -0.4636 0.9641
-11.5512 -21.4931 -1.2375 0.9069
-8.7288 -21.4779 -1.1757 0.9113
-6.9867 -21.4704 -1.1450 0.9135
-6.1471 -21.4667 -1.1324 0.9144
-4.5162 -21.4545 -1.1119 0.9159
-3.7211 -21.4505 -1.1041 0.9165
-2.9357 -21.4445 -1.0977 0.9170
-1.3873 -21.4349 -1.0893 0.9176
0.1455 -21.4281 -1.0867 0.9178
0.9099 -21.3986 -1.0862 0.9178
1.6769 -21.3974 -1.0885 0.9176
2.4687 -21.5774 -1.1014 0.9167
3.3543 -22.2500 -1.1411 0.9138
-28.1713 -14.3309 -2.3175 0.8809
-26.0120 -18.3132 -2.3325 0.8802
-25.3884 -19.2657 -2.3368 0.8800
-24.2672 -19.8191 -2.2973 0.8819
-21.9032 -20.6628 -2.2078 0.8862
-21.1979 -21.4785 -2.2127 0.8860
-19.7865 -21.5347 -2.1443 0.8893
-17.1074 -21.5183 -2.0156 0.8956
-13.6178 -21.5019 -1.8662 0.9030
-4.6106 -7.8898 -0.6700 0.9640
-10.5774 -21.4873 -1.7560 0.9084
-8.7286 -21.4773 -1.6998 0.9112
-7.8460 -21.4735 -1.6763 0.9124
-5.3237 -21.4585 -1.6211 0.9151
-3.7211 -21.4505 -1.5963 0.9164
-2.9358 -21.4449 -1.5871 0.9168
-2.1586 -21.4401 -1.5800 0.9172
0.1455 -21.4279 -1.5712 0.9176
0.9099 -21.3983 -1.5704 0.9177
1.6768 -21.3974 -1.5737 0.9175
3.3549 -22.2546 -1.6502 0.9137
6.0205 -32.1111 -2.3955 0.8772
7.6522 -34.0524 -2.5591 0.8694
-21.5106 -11.9278 -2.3614 0.9059
-12.5146 -7.5358 -1.4025 0.9430
-18.6381 -16.3652 -2.3812 0.9051
-18.0713 -17.0479 -2.3851 0.9050
-16.8668 -18.3571 -2.3933 0.9047
-15.5711 -19.5859 -2.4022 0.9043
-14.6014 -19.7766 -2.3601 0.9059
-12.6470 -19.9691 -2.2693 0.9094
-4.6050 -7.8801 -0.8762 0.9640
-7.8458 -21.4729 -2.1948 0.9122
-6.9863 -21.4692 -2.1675 0.9133
-5.3237 -21.4586 -2.1226 0.9150
-3.7211 -21.4506 -2.0901 0.9162
-2.9358 -21.4454 -2.0781 0.9167
-2.1587 -21.4406 -2.0688 0.9171
-1.3874 -21.4358 -2.0622 0.9173
0.9099 -21.3980 -2.0562 0.9175
1.6768 -21.3974 -2.0606 0.9174
6.7494 -25.7070 -2.5516 0.8987
-16.8053 -8.5489 -2.2397 0.9269
-16.5048 -9.1520 -2.2418 0.9268
-16.4846 -11.6056 -2.3947 0.9220
-16.0785 -12.2010 -2.3975 0.9219
-15.6517 -12.7829 -2.4005 0.9218
-15.2048 -13.3506 -2.4035 0.9217
-14.2520 -14.4406 -2.4101 0.9215
-13.7469 -14.9616 -2.4135 0.9214
-13.2235 -15.4657 -2.4171 0.9213
-12.1236 -16.4205 -2.4246 0.9211
-11.5482 -16.8700 -2.4285 0.9209
-4.5988 -7.8695 -1.0827 0.9640
-9.7272 -18.0994 -2.4408 0.9206
-7.7779 -19.1382 -2.4539 0.9202
-6.4162 -19.7177 -2.4631 0.9199
-4.8961 -19.7353 -2.4153 0.9214
-4.1545 -19.7366 -2.3958 0.9220
-3.4238 -19.7373 -2.3795 0.9225
-1.2778 -19.7439 -2.3502 0.9234
0.1346 -19.8188 -2.3543 0.9233
0.8438 -19.8411 -2.3590 0.9231
2.2664 -19.8094 -2.3684 0.9228
3.0095 -19.9627 -2.3981 0.9219
3.8122 -20.3331 -2.4574 0.9200
5.4345 -20.6987 -2.5420 0.9174
-14.1965 -7.2218 -2.2568 0.9377
-13.3767 -8.7204 -2.2625 0.9375
-13.0691 -9.2010 -2.2646 0.9375
-13.2087 -10.7876 -2.4164 0.9334
-12.8289 -11.2645 -2.4190 0.9334
-12.0199 -12.1790 -2.4245 0.9332
-11.1474 -13.0376 -2.4305 0.9330
-10.6886 -13.4445 -2.4336 0.9330
-10.2152 -13.8358 -2.4368 0.9329
-9.7279 -14.2109 -2.4401 0.9328
-9.2272 -14.5694 -2.4435 0.9327
-4.5924 -7.8586 -1.2897 0.9639
-8.1875 -15.2344 -2.4505 0.9325
-6.5411 -16.0950 -2.4616 0.9322
-5.9716 -16.3437 -2.4655 0.9321
-4.8053 -16.7812 -2.4733 0.9319
-2.9981 -17.2830 -2.4854 0.9316
-1.7629 -17.5109 -2.4936 0.9314
-0.5106 -17.6509 -2.5020 0.9311
0.1201 -17.6876 -2.5062 0.9310
0.7528 -17.7017 -2.5104 0.9309
2.0208 -17.6619 -2.5188 0.9307
4.5444 -17.3086 -2.5356 0.9303
-12.2783 -6.2460 -2.2694 0.9457
-11.5653 -7.5395 -2.2744 0.9456
-11.2979 -7.9541 -2.2762 0.9455
-10.3833 -10.5208 -2.4351 0.9418
-9.6264 -11.2587 -2.4403 0.9417
-8.8182 -11.9437 -2.4458 0.9416
-7.9623 -12.5723 -2.4516 0.9415
-4.5858 -7.8473 -1.4973 0.9638
-7.0624 -13.1409 -2.4577 0.9413
-6.5971 -13.4018 -2.4608 0.9412
-6.1224 -13.6465 -2.4640 0.9412
-4.1397 -14.4568 -2.4773 0.9409
-2.5810 -14.8790 -2.4878 0.9406
-1.5170 -15.0682 -2.4949 0.9405
-0.9795 -15.1344 -2.4985 0.9404
-0.4392 -15.1816 -2.5021 0.9403
0.1033 -15.2095 -2.5057 0.9402
0.6471 -15.2181 -2.5093 0.9401
1.1918 -15.2072 -2.5129 0.9400
2.8231 -15.0572 -2.5237 0.9398
3.3636 -14.9680 -2.5273 0.9397
-10.6105 -5.8835 -2.2804 0.9518
-10.4002 -6.2626 -2.2819 0.9518
-10.1769 -6.6344 -2.2834 0.9518
-9.6917 -7.3545 -2.2868 0.9517
-8.1121 -10.2038 -2.4502 0.9483
-7.3783 -10.7786 -2.4552 0.9482
-6.9962 -11.0467 -2.4577 0.9482
-4.5791 -7.8359 -1.7059 0.9637
-6.2035 -11.5429 -2.4631 0.9481
-5.7940 -11.7702 -2.4659 0.9480
-3.6327 -12.6864 -2.4804 0.9477
-3.1814 -12.8237 -2.4834 0.9476
-2.7249 -12.9450 -2.4865 0.9476
-1.3301 -13.2115 -2.4958 0.9474
-0.8587 -13.2672 -2.4989 0.9473
-0.3849 -13.3062 -2.5021 0.9473
0.5670 -13.3334 -2.5084 0.9471
1.5209 -13.2925 -2.5148 0.9470
1.9970 -13.2463 -2.5179 0.9469
2.4717 -13.1830 -2.5211 0.9469
2.9444 -13.1026 -2.5242 0.9468
3.4146 -13.0052 -2.5273 0.9467
-10.0799 -5.5893 -2.4363 0.9540
-8.8665 -6.2423 -2.2921 0.9566
-8.6437 -6.5592 -2.2936 0.9566
-8.4099 -6.8685 -2.2952 0.9566
-7.9102 -7.4622 -2.2987 0.9565
-7.6447 -7.7459 -2.3005 0.9565
-7.3693 -8.0205 -2.3023 0.9564
-7.0842 -8.2854 -2.3043 0.9564
-6.7898 -8.5405 -2.3063 0.9564
-6.1742 -9.0195 -2.3105 0.9563
-4.5725 -7.8245 -1.9156 0.9636
-5.1604 -10.4831 -2.4699 0.9534
-4.7877 -10.6715 -2.4724 0.9533
-3.6306 -11.1573 -2.4801 0.9532
-2.8312 -11.4125 -2.4855 0.9531
-2.0141 -11.6109 -2.4910 0.9530
-1.6001 -11.6884 -2.4937 0.9529
-1.1831 -11.7512 -2.4965 0.9529
0.5041 -11.8530 -2.5078 0.9527
0.9279 -11.8408 -2.5106 0.9526
2.1961 -11.7128 -2.5190 0.9524
-8.7163 -5.6822 -2.4454 0.9581
-7.7932 -5.9136 -2.2992 0.9606
-7.3606 -6.4630 -2.3021 0.9606
-6.3840 -7.4665 -2.3088 0.9604
-5.8442 -7.9156 -2.3125 0.9604
-5.2733 -8.3264 -2.3163 0.9603
-4.5658 -7.8130 -2.1268 0.9635
-4.0487 -9.0243 -2.3246 0.9602
-3.7274 -9.1716 -2.3268 0.9601
-3.6213 -9.9113 -2.4800 0.9576
-2.9104 -10.1639 -2.4848 0.9575
-1.4396 -10.5162 -2.4946 0.9573
-0.3079 -10.6420 -2.5022 0.9572
0.0724 -10.6569 -2.5047 0.9572
0.4533 -10.6583 -2.5072 0.9571
1.9738 -10.5275 -2.5173 0.9569
2.7254 -10.3803 -2.5223 0.9569
-8.4240 -4.2853 -2.4471 0.9617
-8.2692 -4.5853 -2.4482 0.9617
-7.9286 -5.1687 -2.4505 0.9616
-7.7430 -5.4513 -2.4518 0.9616
-7.5475 -5.7274 -2.4532 0.9616
-7.1084 -5.8056 -2.3764 0.9628
-6.6941 -5.8776 -2.3065 0.9639
-6.2653 -6.3483 -2.3094 0.9638
-6.0387 -6.5724 -2.3109 0.9638
-5.8043 -6.7885 -2.3125 0.9638
-5.5621 -6.9963 -2.3142 0.9637
-5.3127 -7.1957 -2.3159 0.9637
-4.7930 -7.5680 -2.3194 0.9637
-4.2474 -7.9032 -2.3231 0.9636
-3.6787 -8.1997 -2.3269 0.9635
-2.7880 -8.5680 -2.3329 0.9635
-2.4825 -8.6697 -2.3350 0.9634
-1.8609 -8.8405 -2.3391 0.9634
-1.3071 -9.5484 -2.4953 0.9610
-0.9662 -9.5978 -2.4976 0.9609
-0.2794 -9.6599 -2.5022 0.9609
0.0657 -9.6726 -2.5045 0.9608
0.4114 -9.6730 -2.5068 0.9608
0.7572 -9.6610 -2.5091 0.9608
1.4472 -9.5998 -2.5136 0.9607
1.7907 -9.5506 -2.5159 0.9606
2.1324 -9.4892 -2.5182 0.9606
2.4721 -9.4154 -2.5204 0.9606
-7.2644 -4.7357 -2.4549 0.9646
-7.0940 -4.9944 -2.4561 0.9646
-6.9148 -5.2471 -2.4573 0.9646
-6.7264 -5.4936 -2.4586 0.9645
-6.5296 -5.7334 -2.4599 0.9645
-5.7387 -5.8148 -2.3128 0.9666
-5.5309 -6.0196 -2.3142 0.9666
-4.6299 -6.7635 -2.3203 0.9665
-4.3885 -6.9294 -2.3220 0.9665
-3.0997 -7.6271 -2.3307 0.9664
-2.8276 -7.7389 -2.3325 0.9663
-2.5515 -7.8412 -2.3344 0.9663
-2.2718 -7.9337 -2.3362 0.9663
-1.9887 -8.0162 -2.3381 0.9662
-1.1229 -8.2032 -2.3439 0.9662
-0.5703 -8.8129 -2.5001 0.9640
-0.2556 -8.8351 -2.5022 0.9639
0.0601 -8.8460 -2.5043 0.9639
0.3762 -8.8456 -2.5064 0.9639
0.6923 -8.8340 -2.5085 0.9638
1.6370 -8.7310 -2.5148 0.9637
-7.1161 -3.6200 -2.4557 0.9671
-6.9849 -3.8732 -2.4566 0.9671
-6.5389 -4.6036 -2.4597 0.9671
-6.3733 -4.8364 -2.4608 0.9671
-6.1996 -5.0633 -2.4620 0.9671
-6.0181 -5.2841 -2.4633 0.9670
-5.8285 -5.4985 -2.4646 0.9670
-4.6934 -5.9037 -2.3198 0.9689
-4.4825 -6.0712 -2.3212 0.9689
-4.2656 -6.2314 -2.3227 0.9689
-4.0430 -6.3838 -2.3242 0.9689
-3.1015 -6.9132 -2.3305 0.9688
-2.6040 -7.1271 -2.3339 0.9687
-2.0919 -7.3055 -2.3373 0.9687
-1.3017 -7.5042 -2.3426 0.9686
-1.0338 -7.5517 -2.3444 0.9686
-0.5250 -8.1119 -2.5003 0.9666
-0.2352 -8.1318 -2.5022 0.9665
0.0553 -8.1413 -2.5041 0.9665
0.3462 -8.1404 -2.5061 0.9665
0.6371 -8.1291 -2.5080 0.9665
1.2174 -8.0753 -2.5119 0.9664
2.0786 -7.9168 -2.5176 0.9663
-6.5937 -3.3543 -2.4591 0.9693
-6.4720 -3.5888 -2.4600 0.9693
-6.3421 -3.8190 -2.4609 0.9693
-5.3993 -5.0935 -2.4674 0.9692
-5.2164 -5.2857 -2.4686 0.9692
-4.8313 -5.6505 -2.4712 0.9691
-4.5982 -5.7840 -2.4562 0.9693
-3.9714 -5.8018 -2.3371 0.9708
-2.8716 -6.4008 -2.3320 0.9709
-1.4509 -6.8931 -2.3415 0.9707
-1.2047 -6.9454 -2.3432 0.9707
-0.9567 -6.9889 -2.3448 0.9707
-0.2177 -7.5245 -2.5022 0.9688
0.0512 -7.5328 -2.5040 0.9687
0.3203 -7.5316 -2.5058 0.9687
1.1262 -7.4701 -2.5112 0.9687
1.6587 -7.3810 -2.5147 0.9686
1.9225 -7.3222 -2.5164 0.9686
-6.1365 -3.1217 -2.4621 0.9712
-5.7735 -3.7638 -2.4646 0.9711
-5.6376 -3.9691 -2.4656 0.9711
-5.4945 -4.1695 -2.4666 0.9711
-5.3444 -4.3648 -2.4676 0.9711
-5.1874 -4.5548 -2.4687 0.9711
-5.0237 -4.7392 -2.4698 0.9711
-4.8536 -4.9179 -2.4710 0.9711
-4.3064 -5.4168 -2.4747 0.9710
-4.1125 -5.5701 -2.4760 0.9710
-3.6620 -5.7823 -2.4476 0.9713
-3.3832 -5.7897 -2.3980 0.9719
-2.8799 -5.8502 -2.3318 0.9727
-1.8006 -6.2882 -2.3391 0.9726
-1.3490 -6.4089 -2.3421 0.9726
-1.1413 -6.5793 -2.3879 0.9720
-0.7000 -6.9527 -2.4989 0.9708
0.0476 -7.0017 -2.5039 0.9707
0.2977 -7.0001 -2.5056 0.9707
0.5478 -6.9897 -2.5072 0.9707
1.0466 -6.9419 -2.5105 0.9706
1.2946 -6.9046 -2.5122 0.9706
1.5413 -6.8585 -2.5138 0.9706
-5.7326 -2.9162 -2.4648 0.9728
-5.6265 -3.1200 -2.4655 0.9728
-5.5133 -3.3199 -2.4663 0.9728
-4.9918 -4.0769 -2.4699 0.9728
-4.8450 -4.2542 -2.4709 0.9728
-4.3681 -4.7542 -2.4742 0.9727
-4.1976 -4.9094 -2.4753 0.9727
-3.4630 -5.4679 -2.4803 0.9727
-2.8433 -5.7763 -2.4673 0.9728
-2.5975 -5.7898 -2.4318 0.9732
-2.1514 -5.8884 -2.4025 0.9735
-1.7387 -6.0719 -2.4204 0.9733
-1.5372 -6.1965 -2.4466 0.9730
-0.8839 -6.4572 -2.4976 0.9725
-0.6532 -6.4887 -2.4992 0.9725
-0.4214 -6.5119 -2.5007 0.9724
0.0444 -6.5335 -2.5038 0.9724
0.5111 -6.5217 -2.5069 0.9724
0.7441 -6.5033 -2.5084 0.9723
1.2077 -6.4415 -2.5115 0.9723
1.4378 -6.3982 -2.5130 0.9723
-5.3728 -2.7332 -2.4671 0.9743
-5.2733 -2.9241 -2.4678 0.9743
-4.9350 -3.4744 -2.4702 0.9743
-4.8096 -3.6497 -2.4710 0.9742
-4.3968 -4.1478 -2.4739 0.9742
-4.2476 -4.3039 -2.4749 0.9742
-4.0930 -4.4547 -2.4759 0.9742
-3.9331 -4.6000 -2.4770 0.9742
-3.5981 -4.8734 -2.4793 0.9742
-3.4234 -5.0011 -2.4805 0.9741
-2.2888 -5.6320 -2.4881 0.9741
-1.6763 -5.8541 -2.4922 0.9740
-1.4670 -5.9136 -2.4936 0.9740
-1.2557 -5.9655 -2.4951 0.9740
-0.8278 -6.0469 -2.4979 0.9740
-0.3946 -6.0976 -2.5008 0.9739
0.0416 -6.1173 -2.5037 0.9739
0.6966 -6.0883 -2.5081 0.9739
1.5598 -5.9407 -2.5138 0.9738
-5.0499 -2.5689 -2.4692 0.9756
-4.9562 -2.7483 -2.4699 0.9756
-4.8564 -2.9243 -2.4706 0.9756
-4.6381 -3.2654 -2.4721 0.9756
-4.3962 -3.5905 -2.4738 0.9755
-4.1319 -3.8979 -2.4756 0.9755
-3.8462 -4.1861 -2.4775 0.9755
-3.6958 -4.3225 -2.4786 0.9755
-3.5406 -4.4536 -2.4796 0.9755
-3.3809 -4.5792 -2.4807 0.9755
-3.0483 -4.8131 -2.4829 0.9754
-1.9609 -5.3670 -2.4903 0.9754
-1.5746 -5.4990 -2.4929 0.9754
-1.3780 -5.5546 -2.4942 0.9753
-1.1795 -5.6032 -2.4955 0.9753
-0.5745 -5.7065 -2.4995 0.9753
-0.3706 -5.7264 -2.5009 0.9753
-0.1660 -5.7391 -2.5023 0.9753
0.4493 -5.7334 -2.5064 0.9752
1.0616 -5.6616 -2.5104 0.9752
1.4644 -5.5773 -2.5131 0.9752
-4.6700 -2.5896 -2.4718 0.9767
-4.5758 -2.7554 -2.4724 0.9767
-4.4757 -2.9178 -2.4731 0.9767
-4.3700 -3.0766 -2.4739 0.9767
-4.1420 -3.3828 -2.4754 0.9767
-4.0199 -3.5297 -2.4763 0.9767
-3.7604 -3.8103 -2.4780 0.9767
-3.6234 -3.9436 -2.4790 0.9767
-3.4816 -4.0720 -2.4799 0.9767
-3.3354 -4.1954 -2.4809 0.9767
-3.1848 -4.3136 -2.4819 0.9766
-2.8713 -4.5337 -2.4841 0.9766
-1.8468 -5.0546 -2.4910 0.9766
-1.6660 -5.1198 -2.4922 0.9765
-1.4829 -5.1785 -2.4934 0.9765
-1.1106 -5.2764 -2.4959 0.9765
0.0367 -5.4085 -2.5036 0.9764
0.4230 -5.3976 -2.5061 0.9764
0.9993 -5.3295 -2.5099 0.9764
1.1895 -5.2931 -2.5112 0.9764
1.3784 -5.2499 -2.5125 0.9764
-4.4099 -2.4453 -2.4735 0.9778
-4.1264 -2.9051 -2.4754 0.9778
-4.0212 -3.0515 -2.4762 0.9778
-3.9109 -3.1941 -2.4769 0.9778
-3.6754 -3.4673 -2.4785 0.9777
-3.5505 -3.5976 -2.4794 0.9777
-3.2871 -3.8445 -2.4812 0.9777
-3.0067 -4.0724 -2.4831 0.9777
-2.8605 -4.1788 -2.4841 0.9777
-2.4003 -4.4663 -2.4872 0.9777
-2.0773 -4.6303 -2.4894 0.9776
-1.5725 -4.8324 -2.4928 0.9776
-1.2247 -4.9369 -2.4951 0.9776
-0.5105 -5.0707 -2.4999 0.9776
-0.3293 -5.0881 -2.5011 0.9775
-0.1474 -5.0991 -2.5023 0.9775
0.0347 -5.1036 -2.5035 0.9775
0.2170 -5.1016 -2.5047 0.9775
0.3992 -5.0930 -2.5059 0.9775
0.5810 -5.0780 -2.5071 0.9775
0.9428 -5.0284 -2.5095 0.9775
1.1222 -4.9939 -2.5107 0.9775
-4.2513 -2.1627 -2.4745 0.9787
-3.9039 -2.7485 -2.4769 0.9787
-3.7000 -3.0218 -2.4783 0.9787
-3.5908 -3.1529 -2.4790 0.9787
-3.4771 -3.2802 -2.4798 0.9787
-3.2362 -3.5222 -2.4815 0.9787
-3.1095 -3.6368 -2.4823 0.9787
-2.9787 -3.7468 -2.4832 0.9787
-2.5640 -4.0484 -2.4860 0.9786
-2.4187 -4.1390 -2.4870 0.9786
-1.9647 -4.3793 -2.4901 0.9786
-1.6486 -4.5122 -2.4922 0.9786
-1.4871 -4.5702 -2.4933 0.9786
-1.1582 -4.6688 -2.4955 0.9786
-0.9912 -4.7092 -2.4966 0.9785
-0.8229 -4.7438 -2.4977 0.9785
-0.6533 -4.7723 -2.4989 0.9785
-0.4827 -4.7948 -2.5000 0.9785
0.2051 -4.8235 -2.5046 0.9785
0.8913 -4.7538 -2.5091 0.9784
-3.6054 -2.7359 -2.4789 0.9796
-3.5063 -2.8637 -2.4796 0.9796
-3.4029 -2.9879 -2.4803 0.9796
-3.2950 -3.1084 -2.4810 0.9796
-3.0667 -3.3377 -2.4826 0.9795
-2.5639 -3.7454 -2.4860 0.9795
-2.1511 -4.0026 -2.4888 0.9795
-2.0076 -4.0784 -2.4897 0.9795
-1.7128 -4.2146 -2.4917 0.9795
-1.2539 -4.3790 -2.4948 0.9794
-1.0972 -4.4229 -2.4958 0.9794
-0.9390 -4.4611 -2.4969 0.9794
-0.7795 -4.4937 -2.4980 0.9794
-0.2949 -4.5572 -2.5012 0.9794
0.0311 -4.5706 -2.5034 0.9794
0.3574 -4.5607 -2.5055 0.9794
0.6826 -4.5274 -2.5077 0.9793
1.0047 -4.4710 -2.5098 0.9793
1.1642 -4.4341 -2.5109 0.9793
-3.8243 -1.9455 -2.4773 0.9804
-3.6773 -2.2143 -2.4783 0.9804
-3.5115 -2.4722 -2.4795 0.9804
-3.3279 -2.7179 -2.4807 0.9803
-3.2296 -2.8358 -2.4814 0.9803
-2.9104 -3.1676 -2.4836 0.9803
-2.7964 -3.2705 -2.4844 0.9803
-2.6787 -3.3694 -2.4852 0.9803
-2.5575 -3.4640 -2.4860 0.9803
-2.4330 -3.5543 -2.4868 0.9803
-2.0412 -3.7981 -2.4895 0.9803
-1.9050 -3.8700 -2.4904 0.9803
-1.7663 -3.9370 -2.4913 0.9803
-1.6252 -3.9991 -2.4923 0.9803
-1.4820 -4.0561 -2.4932 0.9803
-0.8909 -4.2325 -2.4972 0.9802
-0.7395 -4.2633 -2.4982 0.9802
-0.4338 -4.3088 -2.5002 0.9802
-0.2798 -4.3233 -2.5013 0.9802
0.1844 -4.3338 -2.5044 0.9802
0.4935 -4.3131 -2.5064 0.9801
0.6474 -4.2945 -2.5074 0.9801
1.1042 -4.2057 -2.5105 0.9801
