ply
format ascii 1.0
element vertex 565
property float32 x
property float32 y
property float32 z
property float32 I
end_header
44.5554 -19.9474 8.6077 0.8201
32.5195 -13.1885 6.1877 0.8672
45.8531 -14.8896 8.5007 0.8222
46.3423 -13.2422 8.4985 0.8222
47.8247 -10.0448 8.6168 0.8200
45.5675 -6.2226 8.1094 0.8296
48.1714 0.3320 8.4941 0.8223
45.4127 3.5584 8.0320 0.8311
44.8104 8.3931 8.0387 0.8310
47.0744 10.5668 8.5070 0.8220
43.9820 13.2262 8.0983 0.8298
31.4165 -26.7944 6.3255 0.8461
31.3946 -24.8986 6.1384 0.8503
33.2940 -22.7388 6.1765 0.8495
46.4625 -15.0875 7.4837 0.8206
46.4962 -11.5104 7.3380 0.8238
46.5129 -9.7693 7.2810 0.8250
46.5460 -6.3562 7.1968 0.8269
46.5626 -4.6749 7.1690 0.8275
45.3453 -2.9249 6.9611 0.8320
46.5959 -1.3405 7.1412 0.8281
46.6298 1.9851 7.1499 0.8279
46.6470 3.6551 7.1680 0.8275
46.6646 5.3359 7.1953 0.8269
46.6824 7.0317 7.2322 0.8261
46.7006 8.7471 7.2787 0.8251
46.7192 10.4870 7.3352 0.8239
46.7579 14.0609 7.4799 0.8207
31.5135 -35.7842 6.2092 0.8250
31.4847 -33.2806 5.9659 0.8313
31.4581 -30.9631 5.7479 0.8369
31.4102 -26.7891 5.3759 0.8466
31.3886 -24.8938 5.2169 0.8508
46.3456 -13.2431 6.2767 0.8233
46.3631 -11.4775 6.2197 0.8248
46.8521 -8.1088 6.1918 0.8255
48.6193 -4.8814 6.3631 0.8211
48.6545 -1.3997 6.3385 0.8217
48.6721 0.3355 6.3383 0.8217
46.8095 8.7674 6.2016 0.8252
46.6225 14.0202 6.3398 0.8217
31.5062 -35.7760 5.1190 0.8255
31.4778 -33.2733 4.9185 0.8317
31.4514 -30.9565 4.7388 0.8373
31.4269 -28.8004 4.5774 0.8424
31.4040 -26.7838 4.4321 0.8470
31.3825 -24.8890 4.3011 0.8512
36.4637 -24.9037 4.7416 0.8372
31.5298 -38.4861 4.2117 0.8190
31.4447 -30.9499 3.7349 0.8377
31.4205 -28.7945 3.6078 0.8427
40.0111 -25.2834 4.0066 0.8270
31.4141 -28.7887 2.6423 0.8430
31.3705 -24.8795 2.4828 0.8517
36.4642 -24.9040 2.7382 0.8378
40.0114 -25.2835 2.9350 0.8272
32.4734 -13.1698 2.1730 0.8690
31.5149 -38.4679 1.9609 0.8195
31.4848 -35.7517 1.8785 0.8264
31.4316 -30.9370 1.7390 0.8382
31.3646 -24.8748 1.5785 0.8519
33.3594 -24.5719 1.6337 0.8472
40.0116 -25.2837 1.8663 0.8274
32.4661 -13.1668 1.3814 0.8691
31.4250 -30.9305 0.7448 0.8383
33.3596 -24.5721 0.6999 0.8473
40.0119 -25.2839 0.7995 0.8275
44.3636 -19.8617 0.8211 0.8233
32.4587 -13.1639 0.5917 0.8692
44.5355 -2.8727 0.7538 0.8365
31.5000 -38.4498 -0.2798 0.8197
31.3527 -24.8654 -0.2253 0.8521
36.4650 -24.9045 -0.2486 0.8381
31.4926 -38.4408 -1.3993 0.8197
31.4635 -35.7275 -1.3405 0.8265
31.4119 -30.9176 -1.2411 0.8383
31.3888 -28.7654 -1.1988 0.8434
33.3600 -24.5724 -1.1667 0.8472
37.7084 -18.5229 -1.1830 0.8453
32.4441 -13.1579 -0.9858 0.8693
37.6660 -13.7336 -1.1287 0.8518
37.7327 -12.2527 -1.1171 0.8532
37.7383 -10.7836 -1.1052 0.8547
37.7439 -9.3437 -1.0949 0.8559
37.6648 -7.9109 -1.0837 0.8573
37.7546 -6.5342 -1.0789 0.8579
37.7599 -5.1564 -1.0731 0.8586
37.7806 0.2604 -1.0638 0.8597
37.7908 2.9612 -1.0674 0.8593
37.8063 7.0812 -1.0831 0.8573
37.8225 11.3739 -1.1121 0.8538
31.4852 -38.4317 -2.5196 0.8196
31.4564 -35.7194 -2.4138 0.8264
31.3824 -28.7596 -2.1588 0.8433
31.3610 -26.7471 -2.0903 0.8478
33.3602 -24.5725 -2.1013 0.8471
40.0128 -25.2844 -2.4004 0.8273
37.7022 -18.5198 -2.1303 0.8452
37.7268 -12.2508 -2.0116 0.8531
37.7381 -9.3423 -1.9716 0.8558
37.6591 -7.9097 -1.9515 0.8572
37.7489 -6.5332 -1.9429 0.8578
37.7543 -5.1557 -1.9324 0.8585
37.7750 0.2603 -1.9158 0.8596
37.7801 1.6083 -1.9177 0.8595
37.7955 5.6930 -1.9384 0.8581
37.8112 9.9155 -1.9824 0.8551
37.8167 11.3721 -2.0027 0.8537
18.6383 -30.8299 -2.6415 0.8655
20.8981 -29.5805 -2.6556 0.8648
23.0683 -28.1578 -2.6690 0.8642
24.1152 -27.3832 -2.6754 0.8639
25.1341 -26.5678 -2.6816 0.8636
26.1234 -25.7123 -2.6876 0.8633
27.0812 -24.8179 -2.6933 0.8630
28.8960 -22.9169 -2.7041 0.8625
29.5088 -21.7356 -2.6872 0.8633
29.4992 -20.1470 -2.6193 0.8665
30.1234 -17.5649 -2.5568 0.8695
31.3844 -15.4165 -2.5638 0.8691
32.2911 -13.0959 -2.5550 0.8696
32.9583 -12.0171 -2.5722 0.8688
33.3941 -10.8439 -2.5744 0.8686
33.7842 -9.6537 -2.5763 0.8686
34.8723 -4.7621 -2.5806 0.8683
35.0238 -3.5164 -2.5809 0.8683
35.1265 -2.2658 -2.5809 0.8683
35.1401 1.4959 -2.5789 0.8684
35.0467 2.7462 -2.5776 0.8685
34.9043 3.9911 -2.5759 0.8686
34.7137 5.2288 -2.5740 0.8687
33.4771 10.0671 -2.5632 0.8692
15.7329 -22.2693 -2.6177 0.8962
17.3451 -21.1719 -2.6276 0.8959
18.1214 -20.5772 -2.6324 0.8957
19.6082 -19.2997 -2.6414 0.8953
25.4310 -11.3855 -2.6750 0.8941
25.8417 -10.4803 -2.6772 0.8940
26.2178 -9.5594 -2.6791 0.8939
26.8640 -7.6763 -2.6823 0.8938
27.3650 -5.7476 -2.6845 0.8937
27.5600 -4.7698 -2.6852 0.8937
27.7173 -3.7850 -2.6857 0.8937
27.8370 -2.7949 -2.6859 0.8937
27.9623 -0.8044 -2.6856 0.8937
27.9678 0.1928 -2.6851 0.8937
27.9351 1.1892 -2.6843 0.8937
27.8643 2.1834 -2.6833 0.8938
27.4257 5.1369 -2.6788 0.8939
10.5759 -18.9914 -2.5821 0.9162
11.9413 -18.2497 -2.5906 0.9159
13.8852 -16.9487 -2.6026 0.9155
15.6805 -15.4338 -2.6135 0.9152
17.3022 -13.7221 -2.6232 0.9149
17.8001 -13.1112 -2.6261 0.9148
18.2753 -12.4815 -2.6288 0.9147
19.1545 -11.1690 -2.6338 0.9146
19.5572 -10.4881 -2.6361 0.9145
19.9343 -9.7920 -2.6382 0.9144
20.2853 -9.0817 -2.6401 0.9144
20.6095 -8.3583 -2.6418 0.9143
20.9064 -7.6228 -2.6433 0.9143
21.1755 -6.8762 -2.6447 0.9142
21.8123 -4.5813 -2.6475 0.9141
21.9665 -3.8017 -2.6481 0.9141
22.1862 -2.2275 -2.6487 0.9141
22.2865 -0.6412 -2.6484 0.9141
22.2917 0.1536 -2.6480 0.9141
22.2669 0.9479 -2.6474 0.9141
22.2123 1.7405 -2.6466 0.9142
22.0137 3.3159 -2.6444 0.9142
21.8701 4.0963 -2.6430 0.9143
21.6973 4.8704 -2.6415 0.9143
21.2655 6.3949 -2.6378 0.9144
9.3929 -15.5370 -2.5724 0.9293
10.5040 -14.8680 -2.5793 0.9291
11.0415 -14.5028 -2.5826 0.9290
11.5658 -14.1175 -2.5859 0.9289
12.5719 -13.2890 -2.5920 0.9288
13.0521 -12.8467 -2.5949 0.9287
13.5162 -12.3865 -2.5976 0.9286
13.9634 -11.9091 -2.6003 0.9285
14.8044 -10.9046 -2.6052 0.9284
15.1969 -10.3791 -2.6075 0.9283
15.5700 -9.8388 -2.6097 0.9283
15.9230 -9.2847 -2.6116 0.9282
16.5666 -8.1377 -2.6152 0.9281
17.3687 -6.3329 -2.6194 0.9280
17.5909 -5.7122 -2.6206 0.9280
17.7897 -5.0834 -2.6215 0.9280
17.9650 -4.4474 -2.6223 0.9280
18.1165 -3.8051 -2.6229 0.9279
18.3470 -2.5054 -2.6237 0.9279
18.4256 -1.8500 -2.6238 0.9279
18.5093 -0.5325 -2.6237 0.9279
18.4498 1.4457 -2.6222 0.9280
18.2874 2.7546 -2.6204 0.9280
17.8625 4.6842 -2.6165 0.9281
17.6734 5.3147 -2.6149 0.9282
7.5585 -13.5731 -2.5593 0.9390
9.4541 -12.4178 -2.5711 0.9387
9.9013 -12.0857 -2.5738 0.9386
11.5634 -10.5970 -2.5839 0.9384
12.9941 -8.8746 -2.5923 0.9382
13.3116 -8.4117 -2.5941 0.9382
13.8946 -7.4513 -2.5974 0.9381
14.6330 -5.9345 -2.6013 0.9380
15.1993 -4.3432 -2.6041 0.9379
15.3484 -3.7996 -2.6048 0.9379
15.4773 -3.2508 -2.6053 0.9379
15.5857 -2.6974 -2.6057 0.9379
15.6735 -2.1404 -2.6060 0.9379
15.8122 -0.4549 -2.6060 0.9379
15.8166 0.1090 -2.6057 0.9379
15.7045 1.7957 -2.6040 0.9379
15.6255 2.3536 -2.6032 0.9379
15.4059 3.4582 -2.6011 0.9380
15.2657 4.0032 -2.5999 0.9380
7.0321 -11.6318 -2.5548 0.9462
7.4498 -11.3854 -2.5574 0.9461
7.8586 -11.1235 -2.5599 0.9461
8.2580 -10.8468 -2.5624 0.9460
9.0263 -10.2496 -2.5671 0.9459
9.7502 -9.5967 -2.5715 0.9458
10.0941 -9.2505 -2.5735 0.9458
12.3511 -6.0670 -2.5865 0.9455
12.5651 -5.6254 -2.5876 0.9455
12.7628 -5.1760 -2.5887 0.9455
13.1079 -4.2565 -2.5904 0.9455
13.2549 -3.7875 -2.5911 0.9454
13.3845 -3.3134 -2.5917 0.9454
13.4965 -2.8347 -2.5922 0.9454
13.6671 -1.8664 -2.5927 0.9454
13.7255 -1.3781 -2.5928 0.9454
13.7922 0.0951 -2.5924 0.9454
13.6955 1.5660 -2.5910 0.9454
13.1766 3.9624 -2.5863 0.9455
6.9702 -9.8660 -2.5534 0.9518
7.3236 -9.6194 -2.5556 0.9518
7.6682 -9.3600 -2.5577 0.9517
8.3286 -8.8037 -2.5617 0.9517
8.6435 -8.5075 -2.5636 0.9516
10.0473 -6.8620 -2.5719 0.9515
11.1309 -4.9833 -2.5779 0.9514
11.8546 -2.9347 -2.5815 0.9513
12.1562 -1.2205 -2.5825 0.9513
12.2116 -0.3513 -2.5824 0.9513
12.2031 0.5195 -2.5818 0.9513
12.1747 0.9540 -2.5814 0.9513
11.9945 2.2466 -2.5795 0.9513
11.9029 2.6718 -2.5786 0.9513
5.2622 -9.4496 -2.5420 0.9565
5.9318 -9.0655 -2.5462 0.9565
6.2561 -8.8553 -2.5482 0.9564
6.8814 -8.3997 -2.5520 0.9564
7.1816 -8.1549 -2.5538 0.9563
7.4729 -7.8991 -2.5556 0.9563
7.7549 -7.6328 -2.5573 0.9563
8.0271 -7.3562 -2.5589 0.9562
8.2892 -7.0697 -2.5605 0.9562
9.2295 -5.8322 -2.5659 0.9561
9.4358 -5.5020 -2.5671 0.9561
9.6300 -5.1643 -2.5682 0.9561
9.8117 -4.8197 -2.5692 0.9561
9.9808 -4.4684 -2.5701 0.9561
10.1370 -4.1111 -2.5709 0.9560
10.2800 -3.7483 -2.5716 0.9560
10.4097 -3.3803 -2.5723 0.9560
10.7168 -2.2509 -2.5736 0.9560
10.7914 -1.8677 -2.5739 0.9560
10.8518 -1.4819 -2.5741 0.9560
10.8981 -1.0942 -2.5742 0.9560
10.9479 -0.3150 -2.5741 0.9560
10.9405 0.4657 -2.5736 0.9560
10.9153 0.8553 -2.5732 0.9560
10.8759 1.2436 -2.5727 0.9560
10.4678 3.1478 -2.5690 0.9561
5.6692 -8.0245 -2.5439 0.9602
5.9557 -7.8227 -2.5456 0.9602
6.5065 -7.3882 -2.5490 0.9601
6.7699 -7.1561 -2.5506 0.9601
7.7357 -6.1350 -2.5563 0.9600
7.9534 -5.8583 -2.5576 0.9600
8.1610 -5.5737 -2.5588 0.9600
8.3581 -5.2816 -2.5599 0.9600
8.5446 -4.9823 -2.5610 0.9600
8.8843 -4.3641 -2.5628 0.9599
9.0371 -4.0459 -2.5637 0.9599
9.4247 -3.0604 -2.5657 0.9599
9.5296 -2.7231 -2.5661 0.9599
9.6222 -2.3820 -2.5666 0.9599
9.7022 -2.0378 -2.5669 0.9599
3.8434 -0.3859 -1.0001 0.9842
3.8498 0.0265 -0.9968 0.9842
3.8490 0.1639 -0.9975 0.9842
3.8917 0.3049 -1.0107 0.9840
9.8466 1.1259 -2.5661 0.9599
9.4783 2.8503 -2.5627 0.9599
4.6363 -7.6689 -2.5369 0.9634
5.1777 -7.3288 -2.5403 0.9634
5.9413 -6.7465 -2.5449 0.9633
6.1816 -6.5342 -2.5464 0.9633
6.4141 -6.3132 -2.5478 0.9633
7.0620 -5.6008 -2.5516 0.9632
7.2605 -5.3479 -2.5528 0.9632
7.7993 -4.5477 -2.5559 0.9632
8.2481 -3.6927 -2.5583 0.9631
8.3767 -3.3972 -2.5590 0.9631
8.4945 -3.0972 -2.5596 0.9631
8.7812 -2.1738 -2.5609 0.9631
4.8171 -0.8337 -1.3840 0.9799
3.6266 -0.4952 -1.0362 0.9849
3.5591 -0.3573 -1.0126 0.9852
3.5645 -0.1025 -1.0095 0.9853
3.5667 0.0246 -1.0097 0.9853
3.5959 0.2818 -1.0211 0.9851
8.8195 1.9797 -2.5589 0.9631
8.7410 2.2922 -2.5582 0.9631
8.6511 2.6015 -2.5574 0.9631
4.7598 -6.7372 -2.5372 0.9661
4.9998 -6.5671 -2.5387 0.9660
5.4610 -6.2011 -2.5415 0.9660
5.8950 -5.8022 -2.5441 0.9660
6.1010 -5.5911 -2.5453 0.9660
6.4897 -5.1468 -2.5476 0.9659
6.8454 -4.6752 -2.5497 0.9659
7.1662 -4.1786 -2.5515 0.9659
7.3129 -3.9217 -2.5523 0.9659
7.5780 -3.3927 -2.5538 0.9659
7.6960 -3.1212 -2.5544 0.9658
7.9020 -2.5660 -2.5554 0.9658
7.9897 -2.2830 -2.5558 0.9658
8.0671 -1.9971 -2.5562 0.9658
8.1340 -1.7084 -2.5565 0.9658
3.4433 -0.5959 -1.0748 0.9855
3.3747 -0.4609 -1.0476 0.9858
3.3494 -0.3363 -1.0354 0.9860
3.3531 -0.2163 -1.0335 0.9860
3.3544 -0.0965 -1.0322 0.9861
3.3558 0.0231 -1.0322 0.9861
3.3552 0.1428 -1.0329 0.9860
3.4258 0.3917 -1.0606 0.9857
8.1028 1.8188 -2.5543 0.9658
7.9485 2.3903 -2.5529 0.9659
3.7034 -6.6503 -2.5302 0.9684
4.3996 -6.2275 -2.5346 0.9684
4.6213 -6.0700 -2.5359 0.9684
5.0472 -5.7312 -2.5385 0.9683
6.1649 -4.5410 -2.5452 0.9682
6.3252 -4.3199 -2.5461 0.9682
6.6212 -3.8608 -2.5478 0.9682
6.7566 -3.6234 -2.5485 0.9682
7.3002 -2.3706 -2.5514 0.9682
7.3812 -2.1092 -2.5518 0.9682
7.4526 -1.8449 -2.5521 0.9682
3.2373 -0.5603 -1.0921 0.9862
3.1762 -0.4337 -1.0656 0.9866
3.1760 -0.3189 -1.0610 0.9866
3.1804 -0.0915 -1.0576 0.9867
3.2293 0.3693 -1.0804 0.9864
7.5427 1.4128 -2.5508 0.9682
7.4196 1.9457 -2.5497 0.9682
3.6597 -6.0535 -2.5296 0.9704
4.0859 -5.7834 -2.5323 0.9704
4.2916 -5.6369 -2.5335 0.9704
4.6868 -5.3219 -2.5359 0.9703
4.8757 -5.1538 -2.5371 0.9703
5.2349 -4.7974 -2.5392 0.9703
5.5677 -4.4156 -2.5412 0.9703
6.0133 -3.7999 -2.5438 0.9702
6.1467 -3.5841 -2.5445 0.9702
6.7764 -2.2005 -2.5478 0.9702
3.0797 -0.5330 -1.1177 0.9868
3.0451 -0.3057 -1.0944 0.9871
3.0491 -0.1967 -1.0926 0.9871
3.0516 -0.0878 -1.0917 0.9871
3.0498 0.1298 -1.0916 0.9871
3.0467 0.2387 -1.0929 0.9871
3.0786 0.3520 -1.1081 0.9869
3.1240 0.4706 -1.1298 0.9867
7.0016 1.3114 -2.5474 0.9702
6.8172 2.0501 -2.5457 0.9702
3.4126 -5.6448 -2.5278 0.9721
3.8098 -5.3926 -2.5302 0.9721
4.0014 -5.2558 -2.5314 0.9721
4.1881 -5.1121 -2.5326 0.9721
4.8802 -4.4723 -2.5367 0.9720
5.0384 -4.2971 -2.5377 0.9720
5.1902 -4.1162 -2.5385 0.9720
5.3354 -3.9299 -2.5394 0.9720
5.4738 -3.7384 -2.5402 0.9720
5.6052 -3.5420 -2.5409 0.9720
5.7295 -3.3408 -2.5416 0.9720
5.9559 -2.9256 -2.5429 0.9720
6.0576 -2.7120 -2.5434 0.9720
6.1517 -2.4949 -2.5439 0.9720
6.2378 -2.2744 -2.5444 0.9720
6.3158 -2.0509 -2.5448 0.9720
2.9771 -0.6253 -1.1658 0.9871
2.9237 -0.2935 -1.1261 0.9875
2.9284 -0.1889 -1.1246 0.9875
2.9310 -0.0843 -1.1237 0.9875
2.9451 0.3368 -1.1360 0.9874
2.9833 0.4494 -1.1561 0.9872
6.5258 1.2223 -2.5443 0.9720
6.4197 1.6835 -2.5433 0.9720
6.3543 1.9108 -2.5428 0.9720
3.1932 -5.2820 -2.5261 0.9737
3.3811 -5.1672 -2.5273 0.9737
3.5647 -5.0457 -2.5284 0.9737
3.7439 -4.9175 -2.5295 0.9736
4.2527 -4.4952 -2.5326 0.9736
4.4119 -4.3424 -2.5336 0.9736
4.8553 -3.8506 -2.5362 0.9736
5.4687 -2.9327 -2.5397 0.9735
5.6661 -2.5367 -2.5408 0.9735
5.7539 -2.3335 -2.5412 0.9735
5.8344 -2.1273 -2.5416 0.9735
5.9074 -1.9183 -2.5420 0.9735
6.0303 -1.4929 -2.5426 0.9735
2.8420 -0.5969 -1.1886 0.9875
2.8146 -0.4871 -1.1691 0.9877
2.8066 -0.3833 -1.1593 0.9878
2.8151 -0.1816 -1.1546 0.9879
2.8219 0.3227 -1.1625 0.9878
2.8525 0.4297 -1.1806 0.9876
6.1038 1.1432 -2.5416 0.9735
6.0047 1.5747 -2.5407 0.9735
5.9436 1.7873 -2.5402 0.9735
3.8364 -4.3563 -2.5298 0.9750
4.1400 -4.0749 -2.5317 0.9750
4.2841 -3.9260 -2.5325 0.9750
4.4228 -3.7721 -2.5333 0.9750
4.5558 -3.6131 -2.5341 0.9749
5.2268 -2.5675 -2.5379 0.9749
5.3160 -2.3800 -2.5384 0.9749
5.3984 -2.1894 -2.5388 0.9749
5.5422 -1.7997 -2.5396 0.9749
5.6035 -1.6012 -2.5398 0.9749
5.6575 -1.4006 -2.5401 0.9749
2.7188 -0.4706 -1.2025 0.9880
2.7191 -0.2730 -1.1910 0.9881
2.7232 -0.1757 -1.1893 0.9882
2.7256 -0.0784 -1.1884 0.9882
2.7248 0.0188 -1.1875 0.9882
2.7223 0.1159 -1.1875 0.9882
2.7429 0.4132 -1.2089 0.9880
2.8939 0.5420 -1.2832 0.9872
5.6338 1.4774 -2.5383 0.9749
5.5764 1.6769 -2.5378 0.9749
2.6512 -4.7607 -2.5223 0.9763
2.8203 -4.6651 -2.5234 0.9763
2.9860 -4.5635 -2.5244 0.9762
3.1480 -4.4559 -2.5254 0.9762
3.3062 -4.3425 -2.5264 0.9762
3.4601 -4.2235 -2.5273 0.9762
3.7549 -3.9690 -2.5291 0.9762
4.0307 -3.6939 -2.5307 0.9762
4.1611 -3.5489 -2.5315 0.9762
4.2862 -3.3993 -2.5322 0.9762
4.6282 -2.9246 -2.5342 0.9762
4.7306 -2.7584 -2.5348 0.9762
4.8270 -2.5886 -2.5353 0.9761
4.9171 -2.4153 -2.5358 0.9761
5.0009 -2.2389 -2.5363 0.9761
5.0784 -2.0596 -2.5367 0.9761
5.2136 -1.6930 -2.5373 0.9761
5.2712 -1.5062 -2.5376 0.9761
2.6544 -0.6571 -1.2658 0.9880
2.6312 -0.5526 -1.2445 0.9882
2.6438 -0.2654 -1.2299 0.9884
2.6480 -0.1708 -1.2283 0.9884
2.6504 -0.0762 -1.2274 0.9884
2.6496 0.0183 -1.2265 0.9884
2.6551 0.4973 -1.2504 0.9882
5.3469 1.2002 -2.5366 0.9761
5.2460 1.5776 -2.5357 0.9761
2.8164 -4.3042 -2.5231 0.9773
2.9691 -4.2027 -2.5241 0.9773
3.1182 -4.0956 -2.5250 0.9773
3.5412 -3.7432 -2.5276 0.9773
3.6735 -3.6157 -2.5283 0.9773
3.9241 -3.3467 -2.5298 0.9773
4.0420 -3.2056 -2.5305 0.9773
4.1547 -3.0603 -2.5312 0.9773
4.5516 -2.4409 -2.5334 0.9773
4.6365 -2.2775 -2.5339 0.9772
4.8554 -1.7703 -2.5350 0.9772
4.9160 -1.5963 -2.5353 0.9772
2.6041 -0.5469 -1.3052 0.9882
2.6058 -0.4510 -1.2972 0.9883
2.6046 -0.3557 -1.2895 0.9884
2.6036 -0.2614 -1.2835 0.9884
2.6021 -0.1678 -1.2790 0.9885
2.6011 -0.0748 -1.2765 0.9885
2.6060 0.2980 -1.2866 0.9884
2.6044 0.3923 -1.2920 0.9883
5.0417 1.1317 -2.5346 0.9772
4.9975 1.3105 -2.5342 0.9772
2.5141 -4.1587 -2.5211 0.9783
2.8061 -3.9719 -2.5229 0.9783
3.2172 -3.6532 -2.5254 0.9783
3.3464 -3.5373 -2.5262 0.9783
3.4715 -3.4168 -2.5269 0.9783
3.5921 -3.2918 -2.5276 0.9783
3.7081 -3.1626 -2.5283 0.9783
3.8195 -3.0292 -2.5290 0.9783
3.9260 -2.8918 -2.5296 0.9783
4.0275 -2.7507 -2.5302 0.9783
4.2150 -2.4578 -2.5312 0.9783
4.3810 -2.1520 -2.5322 0.9782
4.4556 -1.9948 -2.5326 0.9782
4.5876 -1.6727 -2.5332 0.9782
2.5945 -0.6423 -1.3866 0.9880
2.5819 -0.4469 -1.3594 0.9883
2.5817 -0.3525 -1.3517 0.9883
2.5808 -0.2591 -1.3456 0.9884
2.5807 -0.1665 -1.3416 0.9884
2.5805 -0.0742 -1.3393 0.9884
2.5811 0.1099 -1.3402 0.9884
2.5820 0.2023 -1.3436 0.9884
2.5824 0.2953 -1.3484 0.9884
2.5793 0.3885 -1.3532 0.9883
2.5975 0.4865 -1.3710 0.9882
2.6992 0.6059 -1.4352 0.9876
4.7220 1.2383 -2.5325 0.9782
2.6567 -3.7605 -2.5218 0.9792
2.7900 -3.6646 -2.5226 0.9792
2.9198 -3.5639 -2.5234 0.9792
3.0458 -3.4586 -2.5242 0.9792
3.2864 -3.2347 -2.5256 0.9792
3.4005 -3.1163 -2.5263 0.9792
3.6157 -2.8676 -2.5276 0.9792
3.7165 -2.7375 -2.5281 0.9792
4.0711 -2.1832 -2.5301 0.9792
4.3425 -1.5834 -2.5316 0.9791
4.3966 -1.4277 -2.5319 0.9791
2.6231 -0.7495 -1.4942 0.9876
2.5546 -0.5366 -1.4297 0.9882
2.5589 -0.3494 -1.4145 0.9883
2.5597 -0.0736 -1.4026 0.9884
2.5600 0.0176 -1.4021 0.9884
2.5545 0.3848 -1.4149 0.9883
2.5688 0.4811 -1.4314 0.9882
2.6222 0.5886 -1.4720 0.9878
4.4697 1.1721 -2.5309 0.9791
4.4245 1.3305 -2.5305 0.9791
2.2574 -3.7340 -2.5192 0.9800
2.3899 -3.6523 -2.5200 0.9800
2.5193 -3.5660 -2.5208 0.9800
3.0040 -3.1754 -2.5237 0.9800
3.2243 -2.9549 -2.5250 0.9800
3.3284 -2.8387 -2.5257 0.9800
3.6148 -2.4688 -2.5273 0.9800
3.7830 -2.2058 -2.5283 0.9800
3.8598 -2.0699 -2.5287 0.9800
3.9318 -1.9313 -2.5291 0.9800
4.0605 -1.6468 -2.5298 0.9800
2.5346 -0.5323 -1.4953 0.9881
2.5367 -0.2547 -1.4719 0.9883
2.5373 -0.1637 -1.4680 0.9883
2.5374 -0.0730 -1.4656 0.9883
2.5370 0.1080 -1.4661 0.9883
2.5399 0.4757 -1.4919 0.9881
4.2378 1.1113 -2.5294 0.9800
