ply
format ascii 1.0
element vertex 654
property float32 x
property float32 y
property float32 z
property float32 I
end_header
-6.0746 -7.1420 1.6532 0.9626
-5.0587 -6.8822 1.5061 0.9659
-4.9074 -7.1980 1.5361 0.9652
-5.0619 -8.0219 1.6725 0.9622
-4.3533 -8.1232 1.6251 0.9633
-5.3356 -21.4655 3.9001 0.9141
-2.9610 -21.4457 3.8173 0.9158
-2.1886 -21.4404 3.8002 0.9162
-0.6597 -21.4300 3.7805 0.9166
1.6219 -21.3977 3.7838 0.9165
2.4044 -21.5472 3.8229 0.9157
3.2619 -22.0898 3.9373 0.9133
-21.1423 -21.5537 4.6252 0.8850
-19.6820 -21.5430 4.4702 0.8886
-5.0178 -6.8265 1.2979 0.9663
-4.7967 -7.6017 1.3770 0.9643
-4.4409 -7.6243 1.3517 0.9649
-3.9476 -8.0387 1.3720 0.9644
-3.5887 -8.0144 1.3452 0.9651
-6.1556 -21.4792 3.4229 0.9135
-5.3356 -21.4653 3.3884 0.9144
-4.5328 -21.4608 3.3602 0.9151
-3.7423 -21.4563 3.3366 0.9156
-2.1886 -21.4407 3.3017 0.9165
-1.4222 -21.4354 3.2910 0.9167
-0.6597 -21.4302 3.2845 0.9169
-24.3977 -21.5753 4.2412 0.8769
-22.7069 -21.5627 4.0777 0.8813
-6.0149 -7.0718 1.2089 0.9632
-4.7280 -7.4928 1.1537 0.9649
-4.6714 -8.0199 1.2086 0.9633
-3.5884 -8.0137 1.1434 0.9652
-3.5650 -8.7841 1.2345 0.9625
-3.2434 -8.8838 1.2315 0.9626
-5.3355 -21.4651 2.8803 0.9146
-4.5328 -21.4606 2.8563 0.9153
-2.1886 -21.4409 2.8066 0.9167
-1.4222 -21.4357 2.7975 0.9170
-0.6597 -21.4305 2.7920 0.9171
0.8606 -21.4070 2.7899 0.9172
1.6219 -21.3973 2.7944 0.9171
2.4046 -21.5486 2.8235 0.9163
3.2632 -22.0987 2.9089 0.9138
-22.7073 -21.5631 3.3626 0.8816
-21.1430 -21.5544 3.2422 0.8856
-19.6829 -21.5440 3.1336 0.8892
-18.3179 -21.5366 3.0360 0.8925
-5.6026 -7.6221 1.0158 0.9627
-4.8692 -7.1420 0.9282 0.9658
-3.7762 -7.6896 0.9199 0.9661
-3.5291 -8.6958 1.0077 0.9629
-3.2108 -8.7946 1.0054 0.9630
-6.9899 -21.4818 2.4258 0.9131
-6.1552 -21.4776 2.3992 0.9140
-4.5327 -21.4604 2.3553 0.9155
-3.7423 -21.4559 2.3388 0.9161
-2.9611 -21.4464 2.3248 0.9166
-1.4222 -21.4359 2.3069 0.9172
0.1008 -21.4329 2.3015 0.9174
3.2638 -22.1031 2.3992 0.9140
-24.3978 -21.5754 2.7571 0.8774
-22.7077 -21.5634 2.6509 0.8819
-18.3183 -21.5371 2.3934 0.8927
-5.2430 -7.6903 0.7879 0.9633
-4.7545 -7.5347 0.7542 0.9649
-4.6448 -7.9742 0.7812 0.9636
-3.6448 -7.4222 0.7000 0.9674
-3.8112 -8.5113 0.7894 0.9633
-6.1550 -21.4768 1.8913 0.9142
-4.5327 -21.4602 1.8567 0.9157
-3.7422 -21.4557 1.8437 0.9163
-2.9611 -21.4466 1.8327 0.9168
-1.4222 -21.4362 1.8186 0.9174
-0.6597 -21.4310 1.8150 0.9175
1.6219 -21.3969 1.8165 0.9175
3.2645 -22.1075 1.8918 0.9142
-24.3979 -21.5755 2.0197 0.8776
-22.7080 -21.5638 1.9419 0.8821
-21.1436 -21.5551 1.8724 0.8860
-19.6839 -21.5450 1.8096 0.8896
-5.7043 -7.2100 0.5701 0.9638
-5.5015 -7.4845 0.5760 0.9635
-5.1826 -7.6016 0.5705 0.9638
-4.6327 -7.9535 0.5708 0.9638
-4.1510 -7.7458 0.5449 0.9654
-3.7738 -8.4277 0.5726 0.9637
-6.1548 -21.4761 1.3853 0.9144
-4.5327 -21.4600 1.3601 0.9159
-2.1887 -21.4416 1.3365 0.9172
-0.6597 -21.4312 1.3296 0.9177
0.1008 -21.4322 1.3290 0.9177
1.6218 -21.3967 1.3306 0.9176
-22.7084 -21.5641 1.2348 0.8822
-19.6843 -21.5455 1.1507 0.8897
-17.0317 -21.5273 1.0824 0.8959
-5.4303 -7.3877 0.3615 0.9640
-5.1237 -7.5152 0.3587 0.9642
-4.1395 -7.7243 0.3456 0.9655
-3.4265 -8.4431 0.3593 0.9642
-7.8436 -21.4838 0.9018 0.9125
-6.9891 -21.4795 0.8907 0.9135
-6.1546 -21.4753 0.8809 0.9145
-3.7422 -21.4553 0.8588 0.9165
-2.1887 -21.4419 0.8499 0.9173
-1.4222 -21.4366 0.8471 0.9176
-0.6597 -21.4314 0.8455 0.9177
0.1008 -21.4319 0.8451 0.9178
0.8605 -21.4051 0.8447 0.9178
2.4049 -21.5515 0.8551 0.9169
3.2658 -22.1163 0.8815 0.9144
-24.3981 -21.5756 0.5502 0.8778
-21.1443 -21.5557 0.5100 0.8862
-19.6848 -21.5460 0.4930 0.8898
-18.3195 -21.5386 0.4776 0.8930
-17.0321 -21.5278 0.4637 0.8960
-5.3609 -7.2934 0.1529 0.9644
-3.9934 -7.4516 0.1428 0.9667
-3.7014 -8.2661 0.1530 0.9644
-6.9889 -21.4787 0.3815 0.9136
-5.3353 -21.4641 0.3736 0.9153
-3.7421 -21.4552 0.3679 0.9166
0.8604 -21.4046 0.3619 0.9179
1.6218 -21.3963 0.3625 0.9177
-22.7091 -21.5648 -0.1763 0.8823
-21.1446 -21.5561 -0.1700 0.8862
-19.6852 -21.5465 -0.1643 0.8898
-18.3199 -21.5391 -0.1592 0.8931
-17.0326 -21.5283 -0.1546 0.8960
-5.0919 -7.4686 -0.0509 0.9645
-4.8854 -7.7422 -0.0515 0.9640
-4.6036 -7.9036 -0.0515 0.9641
-7.8430 -21.4822 -0.1288 0.9126
-6.9887 -21.4779 -0.1272 0.9136
-6.1541 -21.4738 -0.1258 0.9145
-4.5325 -21.4594 -0.1235 0.9160
-3.7421 -21.4550 -0.1226 0.9166
-2.9612 -21.4476 -0.1219 0.9170
-2.1888 -21.4423 -0.1213 0.9174
-1.4223 -21.4371 -0.1210 0.9177
-0.6597 -21.4319 -0.1207 0.9178
0.1008 -21.4312 -0.1207 0.9178
0.8604 -21.4041 -0.1206 0.9179
1.6218 -21.3961 -0.1208 0.9177
-24.3982 -21.5757 -0.9171 0.8778
-19.6857 -21.5470 -0.8218 0.8898
-18.3203 -21.5395 -0.7962 0.8930
-4.5235 -7.7661 -0.2531 0.9647
-3.9359 -8.0149 -0.2514 0.9649
-9.6238 -21.4923 -0.6631 0.9101
-8.7198 -21.4858 -0.6529 0.9114
-7.8427 -21.4814 -0.6439 0.9126
-6.9884 -21.4772 -0.6360 0.9136
-5.3352 -21.4637 -0.6228 0.9153
-4.5325 -21.4592 -0.6176 0.9160
-3.7421 -21.4548 -0.6132 0.9165
-0.6597 -21.4321 -0.6038 0.9178
1.6218 -21.3959 -0.6042 0.9177
2.4052 -21.5536 -0.6107 0.9169
17.1498 -45.6372 -1.3728 0.8228
17.6639 -42.3762 -1.2927 0.8322
-24.3983 -21.5758 -1.6517 0.8777
-19.6861 -21.5475 -1.4802 0.8897
-18.3207 -21.5400 -1.4341 0.8929
-17.0334 -21.5294 -1.3922 0.8959
-4.7624 -7.5473 -0.4526 0.9649
-4.6013 -7.8995 -0.4636 0.9640
-10.5563 -21.4964 -1.2145 0.9085
-9.6233 -21.4911 -1.1942 0.9100
-8.7195 -21.4850 -1.1759 0.9113
-6.9881 -21.4764 -1.1454 0.9135
-6.1537 -21.4722 -1.1328 0.9144
-4.5324 -21.4590 -1.1123 0.9159
-3.7420 -21.4546 -1.1045 0.9165
-2.9613 -21.4481 -1.0980 0.9169
2.4053 -21.5543 -1.0999 0.9168
17.1423 -45.6174 -2.4714 0.8227
17.5998 -42.2224 -2.3199 0.8326
-21.9083 -20.8045 -2.2153 0.8859
-21.1456 -21.5571 -2.2141 0.8859
-19.6866 -21.5480 -2.1400 0.8895
-18.3212 -21.5405 -2.0734 0.8928
-15.8187 -21.5208 -1.9584 0.8984
-14.6704 -21.5183 -1.9096 0.9008
-11.5223 -21.5007 -1.7886 0.9068
-8.7192 -21.4842 -1.7000 0.9112
-6.9879 -21.4756 -1.6559 0.9134
-4.5324 -21.4588 -1.6081 0.9158
-3.7420 -21.4544 -1.5968 0.9164
-2.9613 -21.4483 -1.5876 0.9168
-1.4223 -21.4378 -1.5753 0.9174
-0.6598 -21.4326 -1.5722 0.9176
0.8604 -21.4027 -1.5706 0.9177
1.6218 -21.3955 -1.5733 0.9175
2.4053 -21.5550 -1.5903 0.9167
7.5765 -34.2743 -2.5737 0.8687
10.0508 -33.8650 -2.5901 0.8679
11.2807 -33.5919 -2.5982 0.8675
12.5036 -33.2730 -2.6062 0.8671
13.7175 -32.9085 -2.6142 0.8668
14.9206 -32.4984 -2.6220 0.8664
16.1112 -32.0430 -2.6297 0.8660
17.2875 -31.5423 -2.6373 0.8657
-18.0620 -17.1519 -2.3913 0.9048
-17.4739 -17.8141 -2.3957 0.9046
-16.8627 -18.4571 -2.4002 0.9044
-15.5725 -19.6829 -2.4095 0.9041
-14.5454 -19.7886 -2.3578 0.9060
-10.5238 -21.4303 -2.2921 0.9085
-7.8419 -21.4790 -2.1952 0.9122
-6.9876 -21.4748 -2.1681 0.9132
-5.3351 -21.4631 -2.1233 0.9150
-4.5324 -21.4586 -2.1056 0.9156
-3.7420 -21.4542 -2.0908 0.9162
-2.1889 -21.4433 -2.0694 0.9170
0.8604 -21.4022 -2.0564 0.9175
1.6218 -21.3953 -2.0600 0.9174
3.2697 -22.1425 -2.1488 0.9140
4.5172 -24.5339 -2.3950 0.9046
5.3977 -24.4177 -2.4008 0.9044
6.6825 -25.8434 -2.5627 0.8983
7.6131 -25.6514 -2.5688 0.8981
10.3671 -24.8709 -2.5869 0.8974
11.2682 -24.5430 -2.5927 0.8972
12.1586 -24.1816 -2.5985 0.8969
13.0369 -23.7868 -2.6041 0.8967
13.9021 -23.3592 -2.6097 0.8965
-13.2151 -15.5373 -2.4229 0.9211
-12.6761 -16.0221 -2.4268 0.9210
-9.7338 -18.1635 -2.4479 0.9203
-6.4222 -19.7375 -2.4655 0.9198
-3.4432 -19.7419 -2.3805 0.9224
-0.6107 -19.8391 -2.3577 0.9232
0.0936 -19.8884 -2.3625 0.9230
0.8005 -19.9126 -2.3672 0.9229
1.5093 -19.9116 -2.3720 0.9227
2.2190 -19.8853 -2.3768 0.9226
5.3761 -20.7910 -2.5509 0.9171
6.1218 -20.6269 -2.5558 0.9170
6.8626 -20.4356 -2.5607 0.9168
8.3250 -19.9718 -2.5702 0.9165
9.0445 -19.6997 -2.5749 0.9164
11.1442 -18.7253 -2.5884 0.9160
-12.8109 -11.3289 -2.4231 0.9332
-11.1362 -13.0930 -2.4354 0.9329
-10.6793 -13.4981 -2.4387 0.9328
-10.2080 -13.8877 -2.4421 0.9327
-9.7229 -14.2613 -2.4456 0.9326
-9.2243 -14.6185 -2.4492 0.9326
-8.1893 -15.2813 -2.4565 0.9324
-7.6538 -15.5861 -2.4603 0.9323
-6.5502 -16.1401 -2.4680 0.9320
-5.9832 -16.3885 -2.4720 0.9319
-5.4069 -16.6173 -2.4760 0.9318
-4.8221 -16.8261 -2.4800 0.9317
1.3454 -17.7487 -2.5220 0.9306
1.9774 -17.7195 -2.5262 0.9305
2.6089 -17.6676 -2.5305 0.9304
3.2393 -17.5931 -2.5346 0.9303
5.1147 -17.2332 -2.5470 0.9300
5.7318 -17.0680 -2.5511 0.9298
6.3434 -16.8804 -2.5551 0.9297
8.1376 -16.1844 -2.5667 0.9294
8.7192 -15.9088 -2.5704 0.9293
9.2912 -15.6117 -2.5741 0.9292
-10.3934 -9.1911 -2.2857 0.9453
-10.3678 -10.5696 -2.4391 0.9417
-9.2178 -11.6509 -2.4474 0.9416
-8.8094 -11.9850 -2.4504 0.9415
-8.3891 -12.3050 -2.4534 0.9414
-7.9573 -12.6106 -2.4565 0.9413
-4.5753 -7.8549 -1.4975 0.9638
-7.0616 -13.1770 -2.4628 0.9412
-6.5985 -13.4369 -2.4661 0.9411
-4.6573 -14.3134 -2.4797 0.9408
-4.1525 -14.4899 -2.4832 0.9407
-3.1238 -14.7900 -2.4902 0.9406
-2.0734 -15.0174 -2.4974 0.9404
-1.5417 -15.1034 -2.5011 0.9403
0.6134 -15.2580 -2.5156 0.9400
1.6984 -15.2200 -2.5229 0.9398
2.2404 -15.1718 -2.5265 0.9397
2.7811 -15.1042 -2.5301 0.9396
3.8556 -14.9108 -2.5372 0.9395
4.3881 -14.7851 -2.5407 0.9394
4.9164 -14.6401 -2.5442 0.9393
5.4398 -14.4759 -2.5476 0.9392
5.9577 -14.2927 -2.5509 0.9392
6.4693 -14.0907 -2.5543 0.9391
7.9593 -13.3737 -2.5638 0.9389
-9.1403 -8.0830 -2.2934 0.9516
-8.5602 -8.7268 -2.2977 0.9515
-8.2534 -9.0338 -2.3000 0.9514
-8.4504 -9.9353 -2.4516 0.9483
-8.1010 -10.2393 -2.4541 0.9482
-7.7409 -10.5313 -2.4567 0.9482
-7.3705 -10.8109 -2.4593 0.9481
-4.5687 -7.8435 -1.7061 0.9637
-6.2012 -11.5716 -2.4677 0.9480
-4.9545 -12.2081 -2.4764 0.9478
-2.7395 -12.9705 -2.4917 0.9475
-2.2806 -13.0760 -2.4949 0.9474
-0.8821 -13.2949 -2.5044 0.9472
-0.4104 -13.3348 -2.5076 0.9471
0.0629 -13.3579 -2.5108 0.9471
1.0122 -13.3536 -2.5172 0.9470
1.4871 -13.3261 -2.5203 0.9469
1.9613 -13.2816 -2.5235 0.9468
2.4341 -13.2201 -2.5266 0.9468
3.8387 -12.9340 -2.5359 0.9466
4.3001 -12.8050 -2.5389 0.9465
5.6556 -12.3183 -2.5477 0.9463
6.0957 -12.1235 -2.5506 0.9463
6.5290 -11.9127 -2.5534 0.9462
-8.1493 -7.2067 -2.2996 0.9565
-7.3563 -8.0519 -2.3054 0.9564
-7.0724 -8.3152 -2.3075 0.9564
-6.7793 -8.5687 -2.3096 0.9563
-6.4772 -8.8120 -2.3117 0.9563
-6.1665 -9.0449 -2.3140 0.9562
-4.5620 -7.8320 -1.9159 0.9636
-5.5226 -10.3054 -2.4715 0.9533
-4.7882 -10.6933 -2.4766 0.9532
-4.0267 -11.0295 -2.4819 0.9531
-3.6369 -11.1776 -2.4846 0.9531
-3.2418 -11.3120 -2.4874 0.9530
-2.8417 -11.4325 -2.4901 0.9530
-1.6166 -11.7090 -2.4985 0.9528
-1.2017 -11.7723 -2.5013 0.9528
-0.3649 -11.8546 -2.5070 0.9527
0.8995 -11.8664 -2.5155 0.9525
2.1621 -11.7428 -2.5239 0.9524
2.5801 -11.6715 -2.5267 0.9523
3.8176 -11.3679 -2.5348 0.9522
4.2228 -11.2371 -2.5375 0.9521
5.0189 -10.9316 -2.5426 0.9520
5.4089 -10.7574 -2.5451 0.9520
6.1697 -10.3667 -2.5500 0.9519
-7.1156 -6.7571 -2.3062 0.9605
-6.8767 -7.0106 -2.3080 0.9605
-6.6289 -7.2558 -2.3098 0.9604
-5.8351 -7.9385 -2.3155 0.9603
-4.5552 -7.8204 -2.1270 0.9635
-4.6704 -8.7151 -2.3238 0.9602
-3.7288 -9.1879 -2.3304 0.9601
-3.6246 -9.9281 -2.4840 0.9575
-3.2734 -10.0603 -2.4864 0.9575
-2.9174 -10.1801 -2.4889 0.9574
-1.8250 -10.4639 -2.4964 0.9573
-1.0808 -10.5884 -2.5015 0.9572
-0.3281 -10.6601 -2.5066 0.9571
0.0502 -10.6759 -2.5091 0.9571
1.9429 -10.5524 -2.5217 0.9569
2.3183 -10.4872 -2.5242 0.9568
2.6914 -10.4085 -2.5267 0.9568
3.0618 -10.3164 -2.5291 0.9567
3.4291 -10.2110 -2.5315 0.9567
4.1520 -9.9607 -2.5362 0.9566
4.5068 -9.8160 -2.5385 0.9566
4.8564 -9.6586 -2.5408 0.9566
5.2004 -9.4885 -2.5430 0.9565
-6.0267 -6.5966 -2.3135 0.9638
-5.3038 -7.2157 -2.3187 0.9637
-3.6780 -8.2139 -2.3302 0.9635
-3.3873 -8.3464 -2.3322 0.9635
-2.7920 -8.5808 -2.3364 0.9634
-2.1806 -8.7729 -2.3406 0.9633
-1.8698 -8.8528 -2.3427 0.9633
-1.3202 -9.5619 -2.4992 0.9609
-0.6402 -9.6493 -2.5039 0.9608
-0.2978 -9.6748 -2.5062 0.9608
0.3896 -9.6894 -2.5108 0.9607
1.0775 -9.6551 -2.5154 0.9607
1.7623 -9.5717 -2.5199 0.9606
2.4408 -9.4394 -2.5244 0.9605
2.7765 -9.3551 -2.5266 0.9605
4.4020 -8.7548 -2.5372 0.9603
-6.5150 -5.7614 -2.4621 0.9645
-5.7262 -5.8379 -2.3150 0.9666
-5.3052 -6.2374 -2.3181 0.9665
-4.6223 -6.7800 -2.3230 0.9665
-4.3822 -6.9448 -2.3247 0.9664
-3.8847 -7.2489 -2.3282 0.9664
-3.6279 -7.3879 -2.3300 0.9664
-3.3663 -7.5178 -2.3319 0.9663
-1.9951 -8.0265 -2.3414 0.9662
-0.2723 -8.8475 -2.5058 0.9639
0.0417 -8.8591 -2.5080 0.9638
0.6707 -8.8487 -2.5122 0.9638
0.9850 -8.8267 -2.5143 0.9638
1.2985 -8.7935 -2.5164 0.9637
1.6109 -8.7490 -2.5184 0.9637
2.2308 -8.6268 -2.5225 0.9636
2.5373 -8.5491 -2.5245 0.9636
3.1419 -8.3608 -2.5285 0.9636
4.0213 -7.9977 -2.5342 0.9635
4.3055 -7.8557 -2.5360 0.9634
-6.0040 -5.3095 -2.4652 0.9670
-5.6190 -5.7284 -2.4681 0.9670
-5.2970 -5.7978 -2.4155 0.9677
-4.9400 -5.8081 -2.3452 0.9686
-4.6840 -5.9206 -2.3221 0.9689
-4.4741 -6.0870 -2.3236 0.9689
-4.2582 -6.2460 -2.3251 0.9689
-4.0368 -6.3974 -2.3267 0.9688
-3.5781 -6.6768 -2.3299 0.9688
-2.8548 -7.0344 -2.3350 0.9687
-2.0961 -7.3143 -2.3403 0.9687
-1.5747 -7.4559 -2.3439 0.9686
-1.3103 -7.5129 -2.3457 0.9686
-0.7756 -7.5986 -2.3493 0.9685
-0.5388 -8.1219 -2.5036 0.9665
0.0384 -8.1524 -2.5075 0.9665
0.3278 -8.1522 -2.5095 0.9664
0.6172 -8.1417 -2.5114 0.9664
0.9062 -8.1209 -2.5133 0.9664
1.1946 -8.0899 -2.5152 0.9664
1.7678 -7.9969 -2.5190 0.9663
2.0518 -7.9350 -2.5209 0.9663
2.3337 -7.8630 -2.5228 0.9663
2.6130 -7.7809 -2.5246 0.9662
3.4320 -7.4751 -2.5299 0.9662
3.6974 -7.3536 -2.5316 0.9661
3.9585 -7.2226 -2.5333 0.9661
4.2149 -7.0822 -2.5349 0.9661
-5.5618 -4.9184 -2.4680 0.9692
-5.3866 -5.1153 -2.4693 0.9692
-5.2046 -5.3060 -2.4706 0.9692
-4.8208 -5.6680 -2.4734 0.9691
-4.5798 -5.7886 -2.4535 0.9694
-3.9582 -5.8058 -2.3357 0.9708
-2.8702 -6.4099 -2.3345 0.9708
-2.1775 -6.6923 -2.3394 0.9708
-1.9401 -6.7701 -2.3410 0.9708
-1.7000 -6.8395 -2.3427 0.9707
-1.4574 -6.9004 -2.3443 0.9707
-1.2126 -6.9527 -2.3460 0.9707
-0.9659 -6.9963 -2.3477 0.9707
-0.2319 -7.5334 -2.5053 0.9687
0.0355 -7.5423 -2.5071 0.9687
0.3032 -7.5417 -2.5089 0.9687
0.5709 -7.5316 -2.5107 0.9687
0.8383 -7.5119 -2.5125 0.9686
1.6349 -7.3959 -2.5178 0.9686
1.8976 -7.3383 -2.5195 0.9686
2.1581 -7.2713 -2.5212 0.9685
2.4162 -7.1950 -2.5229 0.9685
2.6717 -7.1095 -2.5246 0.9685
3.1730 -6.9111 -2.5278 0.9685
3.6595 -6.6770 -2.5310 0.9684
-5.1748 -4.5762 -2.4704 0.9711
-5.0117 -4.7592 -2.4716 0.9711
-4.8422 -4.9365 -2.4728 0.9711
-4.6665 -5.1078 -2.4741 0.9710
-4.2973 -5.4316 -2.4768 0.9710
-3.9059 -5.7290 -2.4796 0.9710
-3.1081 -5.7996 -2.3530 0.9724
-2.8772 -5.8589 -2.3342 0.9727
-2.4576 -6.0557 -2.3371 0.9726
-2.2427 -6.1430 -2.3386 0.9726
-1.3549 -6.4152 -2.3447 0.9725
-1.1463 -6.5724 -2.3858 0.9721
-0.7104 -6.9597 -2.5018 0.9707
-0.4634 -6.9852 -2.5035 0.9707
1.2736 -6.9168 -2.5151 0.9706
1.5191 -6.8717 -2.5167 0.9705
2.0049 -6.7553 -2.5199 0.9705
2.4819 -6.6043 -2.5230 0.9705
2.9473 -6.4194 -2.5260 0.9704
3.1750 -6.3145 -2.5275 0.9704
3.3989 -6.2015 -2.5289 0.9704
3.6187 -6.0804 -2.5303 0.9704
-4.8331 -4.2741 -2.4725 0.9727
-4.5222 -4.6102 -2.4748 0.9727
-4.1881 -4.9240 -2.4772 0.9727
-4.0129 -5.0721 -2.4785 0.9727
-3.8324 -5.2139 -2.4798 0.9727
-3.6471 -5.3494 -2.4811 0.9726
-2.3658 -5.8295 -2.4109 0.9734
-2.1504 -5.8903 -2.4030 0.9735
-1.9428 -5.9709 -2.4062 0.9735
-1.5397 -6.1949 -2.4462 0.9730
-0.4324 -6.5182 -2.5034 0.9724
0.0308 -6.5406 -2.5065 0.9724
0.4950 -6.5301 -2.5096 0.9723
0.7268 -6.5124 -2.5112 0.9723
1.1880 -6.4524 -2.5142 0.9723
1.4170 -6.4100 -2.5157 0.9723
1.8701 -6.3009 -2.5187 0.9722
2.0936 -6.2342 -2.5202 0.9722
2.3147 -6.1596 -2.5216 0.9722
2.9608 -5.8886 -2.5258 0.9722
3.1695 -5.7829 -2.5271 0.9721
3.3744 -5.6698 -2.5284 0.9721
-4.5289 -4.0050 -2.4744 0.9742
-4.3859 -4.1649 -2.4754 0.9742
-4.0832 -4.4693 -2.4776 0.9742
-3.9239 -4.6135 -2.4788 0.9742
-3.4167 -5.0116 -2.4824 0.9741
-3.2384 -5.1322 -2.4837 0.9741
-2.8695 -5.3545 -2.4863 0.9741
-2.6792 -5.4559 -2.4877 0.9741
-2.4854 -5.5505 -2.4890 0.9741
-2.2882 -5.6383 -2.4904 0.9740
-1.8848 -5.7928 -2.4932 0.9740
-1.4711 -5.9186 -2.4960 0.9740
-1.2610 -5.9705 -2.4975 0.9740
-1.0491 -6.0150 -2.4989 0.9740
-0.8355 -6.0519 -2.5004 0.9739
-0.1883 -6.1171 -2.5048 0.9739
0.2461 -6.1222 -2.5077 0.9739
0.8967 -6.0719 -2.5120 0.9738
1.3263 -5.9999 -2.5149 0.9738
1.5392 -5.9524 -2.5163 0.9738
1.9594 -5.8347 -2.5190 0.9737
2.1663 -5.7646 -2.5204 0.9737
2.7707 -5.5104 -2.5243 0.9737
2.9659 -5.4113 -2.5255 0.9737
3.1574 -5.3053 -2.5268 0.9737
-4.1214 -3.9138 -2.4771 0.9755
-3.8369 -4.1997 -2.4791 0.9755
-3.3736 -4.5897 -2.4825 0.9755
-3.0426 -4.8219 -2.4848 0.9754
-2.6958 -5.0304 -2.4873 0.9754
-2.3347 -5.2141 -2.4898 0.9754
-1.9613 -5.3722 -2.4924 0.9754
-1.7704 -5.4412 -2.4938 0.9753
-1.1843 -5.6076 -2.4978 0.9753
-0.1768 -5.7443 -2.5046 0.9752
0.2311 -5.7486 -2.5074 0.9752
0.6388 -5.7240 -2.5101 0.9752
1.0441 -5.6704 -2.5128 0.9752
1.2452 -5.6328 -2.5141 0.9751
1.4450 -5.5880 -2.5154 0.9751
1.6431 -5.5361 -2.5167 0.9751
1.8393 -5.4771 -2.5180 0.9751
2.0335 -5.4111 -2.5193 0.9751
-3.8827 -3.6871 -2.4785 0.9767
-3.7510 -3.8240 -2.4795 0.9767
-3.6144 -3.9562 -2.4805 0.9767
-3.4733 -4.0836 -2.4815 0.9766
-3.1778 -4.3233 -2.4836 0.9766
-3.0237 -4.4352 -2.4847 0.9766
-2.7042 -4.6427 -2.4870 0.9766
-2.5390 -4.7379 -2.4882 0.9766
-2.3705 -4.8273 -2.4894 0.9766
-2.1988 -4.9107 -2.4906 0.9766
-2.0243 -4.9880 -2.4918 0.9766
-1.6673 -5.1241 -2.4943 0.9765
-1.3011 -5.2347 -2.4968 0.9765
-1.1152 -5.2802 -2.4981 0.9765
-0.9277 -5.3192 -2.4993 0.9765
-0.3579 -5.3960 -2.5032 0.9764
0.0255 -5.4134 -2.5058 0.9764
0.2176 -5.4119 -2.5071 0.9764
0.4096 -5.4035 -2.5084 0.9764
0.6013 -5.3883 -2.5097 0.9764
1.1721 -5.3019 -2.5134 0.9764
1.3600 -5.2596 -2.5147 0.9763
1.5465 -5.2106 -2.5159 0.9763
1.7311 -5.1549 -2.5171 0.9763
2.2721 -4.9488 -2.5206 0.9763
2.4473 -4.8673 -2.5217 0.9763
-3.7857 -3.3478 -2.4790 0.9777
-3.6660 -3.4812 -2.4799 0.9777
-3.2791 -3.8554 -2.4827 0.9777
-3.0000 -4.0814 -2.4847 0.9777
-1.9107 -4.7081 -2.4924 0.9776
-1.7433 -4.7751 -2.4935 0.9776
-1.5736 -4.8362 -2.4947 0.9776
-1.2279 -4.9404 -2.4971 0.9776
-0.8755 -5.0198 -2.4995 0.9776
-0.5179 -5.0742 -2.5019 0.9775
-0.3378 -5.0919 -2.5032 0.9775
-0.1571 -5.1031 -2.5044 0.9775
0.2053 -5.1064 -2.5068 0.9775
0.9272 -5.0357 -2.5116 0.9774
1.1058 -5.0020 -2.5128 0.9774
1.2830 -4.9619 -2.5140 0.9774
1.8053 -4.8041 -2.5174 0.9774
1.9754 -4.7391 -2.5185 0.9774
-3.2281 -3.5333 -2.4828 0.9787
-2.9716 -3.7561 -2.4847 0.9786
-2.8377 -3.8606 -2.4856 0.9786
-2.7000 -3.9604 -2.4866 0.9786
-2.5589 -4.0553 -2.4876 0.9786
-2.2669 -4.2300 -2.4897 0.9786
-2.1163 -4.3096 -2.4908 0.9786
-1.6487 -4.5159 -2.4940 0.9786
-1.4881 -4.5736 -2.4951 0.9786
-1.1612 -4.6718 -2.4974 0.9785
-0.8279 -4.7467 -2.4997 0.9785
-0.6593 -4.7753 -2.5008 0.9785
-0.4897 -4.7979 -2.5020 0.9785
-0.1485 -4.8250 -2.5043 0.9785
0.1941 -4.8278 -2.5066 0.9785
0.7068 -4.7864 -2.5100 0.9784
0.8765 -4.7604 -2.5111 0.9784
1.0453 -4.7284 -2.5122 0.9784
1.2129 -4.6905 -2.5133 0.9784
1.3791 -4.6465 -2.5144 0.9784
1.7064 -4.5409 -2.5166 0.9784
1.8672 -4.4794 -2.5176 0.9784
2.3352 -4.2608 -2.5206 0.9783
2.4859 -4.1769 -2.5216 0.9783
-3.3938 -3.0013 -2.4814 0.9795
-3.2863 -3.1207 -2.4822 0.9795
-3.1746 -3.2364 -2.4830 0.9795
-3.0589 -3.3481 -2.4839 0.9795
-2.9392 -3.4557 -2.4847 0.9795
-2.8158 -3.5590 -2.4856 0.9795
-2.6888 -3.6580 -2.4865 0.9795
-2.5583 -3.7525 -2.4875 0.9795
-2.1477 -4.0077 -2.4904 0.9795
-1.8597 -4.1532 -2.4924 0.9795
-1.5619 -4.2782 -2.4945 0.9794
-1.4098 -4.3327 -2.4955 0.9794
-1.2558 -4.3819 -2.4966 0.9794
-0.9427 -4.4637 -2.4987 0.9794
-0.6245 -4.5233 -2.5009 0.9794
-0.4638 -4.5445 -2.5020 0.9794
-0.3025 -4.5601 -2.5031 0.9794
-0.1406 -4.5700 -2.5042 0.9794
0.6694 -4.5329 -2.5096 0.9793
0.9899 -4.4778 -2.5117 0.9793
1.1486 -4.4417 -2.5128 0.9793
1.3059 -4.4000 -2.5138 0.9793
1.4617 -4.3527 -2.5148 0.9793
1.6158 -4.2998 -2.5158 0.9793
1.7680 -4.2415 -2.5168 0.9793
2.0659 -4.1086 -2.5187 0.9792
2.2111 -4.0342 -2.5197 0.9792
-3.1188 -2.9617 -2.4832 0.9803
-2.7893 -3.2794 -2.4856 0.9803
-2.6721 -3.3775 -2.4865 0.9803
-2.5515 -3.4713 -2.4873 0.9803
-2.4277 -3.5609 -2.4882 0.9803
-2.3007 -3.6461 -2.4891 0.9803
-2.1707 -3.7268 -2.4900 0.9803
-1.9025 -3.8742 -2.4919 0.9803
-1.6243 -4.0025 -2.4939 0.9802
-0.8944 -4.2348 -2.4989 0.9802
-0.7439 -4.2656 -2.4999 0.9802
-0.2869 -4.3259 -2.5031 0.9802
-0.1334 -4.3352 -2.5041 0.9802
0.1744 -4.3373 -2.5062 0.9802
0.3283 -4.3302 -2.5072 0.9801
0.6349 -4.2995 -2.5092 0.9801
0.7873 -4.2760 -2.5102 0.9801
0.9388 -4.2471 -2.5112 0.9801
1.2385 -4.1731 -2.5132 0.9801
1.5324 -4.0779 -2.5151 0.9801
1.8190 -3.9619 -2.5170 0.9801
1.9591 -3.8963 -2.5179 0.9801
2.2319 -3.7502 -2.5196 0.9800
