ply
format ascii 1.0
element vertex 550
property float32 x
property float32 y
property float32 z
property float32 I
end_header
-1.7975 -21.4382 3.7934 0.9163
-0.2428 -21.4275 3.7785 0.9166
44.6250 -18.2838 8.5034 0.8221
45.7981 -15.0013 8.4976 0.8222
-2.5815 -21.4439 3.3088 0.9163
-1.7975 -21.4385 3.2958 0.9166
-0.2428 -21.4277 3.2828 0.9169
0.5322 -21.4260 3.2834 0.9169
3.9409 -23.0309 3.5795 0.9098
31.4334 -27.2535 6.3733 0.8451
31.4101 -25.3034 6.1790 0.8494
32.7629 -24.4941 6.2667 0.8474
44.8754 -20.3108 7.5460 0.8193
46.4678 -15.2206 7.4908 0.8205
-2.5816 -21.4442 2.8126 0.9166
-1.7975 -21.4387 2.8016 0.9169
-1.0186 -21.4333 2.7942 0.9171
-0.2428 -21.4279 2.7905 0.9172
3.9422 -23.0390 3.0438 0.9100
31.5378 -36.5539 6.2869 0.8230
31.4782 -31.5548 5.8041 0.8354
31.4517 -29.3270 5.5999 0.8407
31.4270 -27.2480 5.4165 0.8455
32.7630 -24.4943 5.3270 0.8479
35.8323 -24.8214 5.6763 0.8388
46.3151 -17.0481 6.4268 0.8195
46.3329 -15.1764 6.3489 0.8215
-1.0186 -21.4336 2.3042 0.9173
-0.2428 -21.4282 2.3011 0.9174
0.5321 -21.4253 2.3014 0.9174
2.0910 -21.4555 2.3148 0.9169
31.5304 -36.5453 5.1830 0.8235
31.4997 -33.9469 4.9729 0.8300
35.8325 -24.8215 4.6808 0.8392
-2.5816 -21.4447 1.8285 0.9169
-1.7975 -21.4392 1.8213 0.9173
-0.2428 -21.4284 1.8141 0.9176
0.5321 -21.4249 1.8142 0.9176
2.0911 -21.4562 1.8249 0.9171
2.9276 -21.8306 1.8646 0.9154
31.5230 -36.5368 4.0850 0.8239
31.4646 -31.5412 3.7714 0.8362
31.4386 -29.3148 3.6388 0.8415
31.4144 -27.2370 3.5197 0.8463
31.3917 -25.2886 3.4124 0.8506
32.7634 -24.4945 3.4629 0.8486
35.8327 -24.8217 3.6900 0.8395
39.3379 -25.1953 3.9545 0.8290
-1.7976 -21.4395 1.3341 0.9174
0.5321 -21.4246 1.3290 0.9177
1.3061 -21.3875 1.3287 0.9177
2.9279 -21.8329 1.3660 0.9155
3.9464 -23.0633 1.4510 0.9105
31.5157 -36.5284 2.9917 0.8242
31.4856 -33.9317 2.8705 0.8307
31.4579 -31.5344 2.7621 0.8365
31.4321 -29.3087 2.6650 0.8418
31.4081 -27.2316 2.5777 0.8465
31.3857 -25.2837 2.4992 0.8508
32.7635 -24.4946 2.5367 0.8488
39.3381 -25.1954 2.8968 0.8293
-2.5817 -21.4451 0.8517 0.9172
-1.7976 -21.4397 0.8484 0.9175
0.5321 -21.4243 0.8450 0.9178
1.3061 -21.3873 0.8449 0.9178
2.9282 -21.8352 0.8687 0.9156
3.9478 -23.0714 0.9230 0.9106
31.5084 -36.5199 1.9019 0.8244
31.4787 -33.9242 1.8248 0.8309
31.4512 -31.5277 1.7560 0.8367
31.4257 -29.3027 1.6943 0.8420
32.7637 -24.4948 1.6130 0.8489
35.8331 -24.8219 1.7188 0.8399
39.3383 -25.1956 1.8420 0.8294
44.8385 -20.2941 1.9407 0.8212
-2.5817 -21.4454 0.3649 0.9172
-1.7976 -21.4399 0.3634 0.9175
-0.2428 -21.4291 0.3620 0.9178
0.5321 -21.4239 0.3620 0.9178
1.3061 -21.3871 0.3619 0.9179
2.0913 -21.4583 0.3642 0.9174
31.5012 -36.5115 0.8146 0.8245
31.4717 -33.9167 0.7816 0.8310
31.4445 -31.5210 0.7521 0.8368
31.3956 -27.2207 0.7019 0.8468
31.3735 -25.2739 0.6805 0.8511
-2.5817 -21.4456 -0.1216 0.9172
-1.0187 -21.4348 -0.1208 0.9177
-0.2428 -21.4294 -0.1207 0.9178
0.5321 -21.4236 -0.1207 0.9178
2.9288 -21.8398 -0.1241 0.9156
31.4128 -29.2907 -0.2418 0.8421
32.7640 -24.4950 -0.2303 0.8491
39.3387 -25.1958 -0.2630 0.8296
44.3622 -20.0785 -0.2742 0.8230
-2.5818 -21.4458 -0.6082 0.9172
-1.7977 -21.4404 -0.6058 0.9175
-0.2428 -21.4296 -0.6034 0.9178
0.5321 -21.4232 -0.6034 0.9178
1.3060 -21.3868 -0.6033 0.9178
3.9519 -23.0955 -0.6598 0.9105
17.2412 -42.3737 -1.2881 0.8327
19.0369 -42.3343 -1.3070 0.8305
31.4578 -33.9017 -1.3023 0.8310
31.3832 -27.2099 -1.1696 0.8469
35.8337 -24.8223 -1.2274 0.8399
37.6885 -18.7280 -1.1850 0.8450
37.7319 -13.8887 -1.1321 0.8514
37.7372 -12.3609 -1.1181 0.8531
-2.5818 -21.4461 -1.0955 0.9171
-1.0187 -21.4352 -1.0883 0.9176
1.3060 -21.3866 -1.0866 0.9178
2.9295 -21.8444 -1.1177 0.9155
3.9533 -23.1036 -1.1887 0.9104
17.1796 -42.2222 -2.3117 0.8331
31.4794 -36.4862 -2.4439 0.8245
31.4508 -33.8942 -2.3449 0.8309
31.3554 -25.2593 -2.0420 0.8511
39.3392 -25.1961 -2.3692 0.8294
37.6822 -18.7249 -2.1340 0.8449
37.7259 -13.8865 -2.0387 0.8513
37.7313 -12.3590 -2.0136 0.8530
-1.0187 -21.4355 -1.5735 0.9175
-0.2428 -21.4301 -1.5714 0.9176
0.5321 -21.4224 -1.5712 0.9176
1.3060 -21.3864 -1.5710 0.9177
2.0916 -21.4610 -1.5810 0.9172
2.9298 -21.8467 -1.6162 0.9154
3.9547 -23.1116 -1.7192 0.9102
7.1564 -34.3103 -2.5698 0.8689
17.0597 -31.6093 -2.6337 0.8658
18.2431 -31.0600 -2.6412 0.8655
19.4079 -30.4646 -2.6485 0.8651
22.7712 -28.4078 -2.6695 0.8641
23.8423 -27.6343 -2.6761 0.8638
25.8980 -25.9610 -2.6887 0.8632
26.8790 -25.0631 -2.6947 0.8629
29.5097 -20.4416 -2.6321 0.8659
30.0495 -17.7479 -2.5589 0.8694
31.3419 -15.5743 -2.5661 0.8690
31.9240 -14.4489 -2.5693 0.8689
32.2947 -13.2318 -2.5590 0.8694
32.9541 -12.1300 -2.5748 0.8686
-1.7977 -21.4411 -2.0657 0.9172
-1.0187 -21.4357 -2.0603 0.9174
-0.2428 -21.4303 -2.0575 0.9175
1.3060 -21.3862 -2.0570 0.9175
2.9301 -21.8491 -2.1164 0.9152
5.9954 -24.3107 -2.4039 0.9043
8.2775 -25.4800 -2.5720 0.8979
9.2149 -25.2232 -2.5781 0.8977
10.1441 -24.9311 -2.5841 0.8975
11.0639 -24.6040 -2.5899 0.8973
11.9729 -24.2420 -2.5957 0.8970
17.1210 -21.3589 -2.6280 0.8958
17.9152 -20.7646 -2.6329 0.8957
18.6878 -20.1395 -2.6377 0.8955
20.8618 -18.0877 -2.6508 0.8950
21.5346 -17.3478 -2.6548 0.8948
23.9354 -14.1368 -2.6688 0.8943
25.4024 -11.4972 -2.6769 0.8940
25.8230 -10.5802 -2.6792 0.8939
1.9390 -19.8954 -2.3745 0.9226
4.3093 -20.6601 -2.5069 0.9185
5.1373 -20.8310 -2.5486 0.9172
7.4046 -20.2682 -2.5632 0.9167
8.1477 -20.0244 -2.5680 0.9166
8.8824 -19.7528 -2.5727 0.9165
9.6079 -19.4536 -2.5773 0.9163
10.3231 -19.1271 -2.5818 0.9162
11.7179 -18.3935 -2.5906 0.9159
14.3360 -16.6161 -2.6068 0.9154
14.9487 -16.1101 -2.6106 0.9153
15.5429 -15.5807 -2.6142 0.9152
16.1173 -15.0285 -2.6177 0.9151
18.2005 -12.6076 -2.6300 0.9147
18.6633 -11.9535 -2.6327 0.9146
19.5139 -10.5931 -2.6375 0.9144
19.9002 -9.8887 -2.6396 0.9144
20.5916 -8.4368 -2.6433 0.9143
20.8956 -7.6914 -2.6449 0.9142
-0.8400 -17.6754 -2.5072 0.9310
0.4409 -17.7498 -2.5157 0.9308
2.3719 -17.6867 -2.5285 0.9304
3.0148 -17.6187 -2.5327 0.9303
3.6558 -17.5270 -2.5368 0.9302
4.2940 -17.4118 -2.5410 0.9301
6.8018 -16.7167 -2.5571 0.9297
7.4130 -16.4850 -2.5610 0.9296
8.0161 -16.2305 -2.5649 0.9295
9.1945 -15.6541 -2.5723 0.9293
9.7681 -15.3329 -2.5759 0.9292
11.9381 -13.8368 -2.5894 0.9288
12.4454 -13.4122 -2.5925 0.9287
12.9370 -12.9684 -2.5955 0.9287
13.4122 -12.5061 -2.5983 0.9286
14.7316 -11.0136 -2.6062 0.9284
15.5159 -9.9377 -2.6107 0.9283
15.8775 -9.3776 -2.6128 0.9282
16.2180 -8.8039 -2.6147 0.9282
16.8334 -7.6189 -2.6180 0.9281
17.3581 -6.3893 -2.6208 0.9280
-0.7222 -15.1981 -2.5066 0.9402
-0.1726 -15.2365 -2.5102 0.9401
0.3789 -15.2549 -2.5139 0.9400
0.9315 -15.2534 -2.5175 0.9399
1.4845 -15.2317 -2.5211 0.9398
2.0371 -15.1899 -2.5248 0.9398
2.5886 -15.1279 -2.5284 0.9397
4.2290 -14.8209 -2.5390 0.9394
5.3032 -14.5160 -2.5459 0.9393
7.8772 -13.4114 -2.5623 0.9389
8.3670 -13.1336 -2.5654 0.9388
8.8466 -12.8375 -2.5684 0.9388
9.7728 -12.1919 -2.5741 0.9386
10.2180 -11.8432 -2.5768 0.9386
11.0693 -11.0962 -2.5820 0.9384
11.4740 -10.6988 -2.5845 0.9384
12.2386 -9.8591 -2.5890 0.9383
12.9395 -8.9633 -2.5931 0.9382
13.2646 -8.4957 -2.5950 0.9381
13.5722 -8.0161 -2.5967 0.9381
14.1329 -7.0228 -2.5998 0.9380
14.3851 -6.5107 -2.6012 0.9380
14.6180 -5.9893 -2.6024 0.9380
14.8312 -5.4592 -2.6035 0.9379
-1.1125 -13.2692 -2.5028 0.9472
-0.1512 -13.3489 -2.5092 0.9471
1.2999 -13.3375 -2.5188 0.9469
1.7834 -13.2985 -2.5220 0.9469
4.6380 -12.6953 -2.5405 0.9465
5.5560 -12.3555 -2.5463 0.9464
8.1369 -10.9390 -2.5626 0.9460
8.9228 -10.3420 -2.5674 0.9459
9.6637 -9.6872 -2.5719 0.9458
10.0159 -9.3392 -2.5740 0.9458
10.3551 -8.9781 -2.5760 0.9457
10.6809 -8.6043 -2.5780 0.9457
12.0919 -6.5641 -2.5861 0.9455
12.3275 -6.1257 -2.5874 0.9455
0.2950 -11.8769 -2.5113 0.9526
1.1550 -11.8512 -2.5170 0.9525
1.5845 -11.8149 -2.5198 0.9524
2.4394 -11.6954 -2.5254 0.9523
3.2852 -11.5135 -2.5308 0.9522
4.5266 -11.1250 -2.5388 0.9521
4.9309 -10.9652 -2.5414 0.9520
6.1069 -10.3972 -2.5488 0.9519
6.8547 -9.9470 -2.5535 0.9518
7.2161 -9.7012 -2.5557 0.9518
7.5686 -9.4420 -2.5579 0.9517
8.2443 -8.8848 -2.5621 0.9517
8.5667 -8.5875 -2.5640 0.9516
8.8780 -8.2782 -2.5659 0.9516
9.1779 -7.9574 -2.5677 0.9516
9.4659 -7.6255 -2.5694 0.9515
10.0043 -6.9301 -2.5725 0.9515
10.2541 -6.5675 -2.5740 0.9514
10.9206 -5.4266 -2.5777 0.9514
11.4565 -4.2170 -2.5805 0.9513
11.6048 -3.8012 -2.5813 0.9513
-0.8897 -10.6117 -2.5027 0.9572
-0.5060 -10.6478 -2.5053 0.9571
-0.1208 -10.6700 -2.5079 0.9571
0.2653 -10.6783 -2.5104 0.9571
0.6518 -10.6725 -2.5130 0.9570
1.4241 -10.6189 -2.5180 0.9569
1.8089 -10.5710 -2.5205 0.9569
2.1920 -10.5091 -2.5230 0.9568
2.5730 -10.4332 -2.5255 0.9568
3.6980 -10.1223 -2.5328 0.9567
4.7852 -9.6888 -2.5397 0.9566
5.8210 -9.1372 -2.5462 0.9565
6.4763 -8.7066 -2.5503 0.9564
7.6858 -7.7045 -2.5577 0.9563
7.9646 -7.4265 -2.5593 0.9562
8.7374 -6.5322 -2.5639 0.9562
9.1960 -5.8899 -2.5666 0.9561
9.6062 -5.2147 -2.5689 0.9561
9.7924 -4.8660 -2.5699 0.9561
9.9655 -4.5104 -2.5708 0.9560
10.2717 -3.7809 -2.5724 0.9560
10.4043 -3.4080 -2.5731 0.9560
-1.1542 -9.5879 -2.5004 0.9609
-0.8076 -9.6322 -2.5027 0.9608
-0.4592 -9.6641 -2.5050 0.9608
0.2407 -9.6899 -2.5097 0.9607
0.5914 -9.6838 -2.5120 0.9607
0.9420 -9.6649 -2.5143 0.9607
1.6408 -9.5890 -2.5189 0.9606
1.9882 -9.5320 -2.5211 0.9606
4.3376 -8.7826 -2.5362 0.9603
4.6560 -8.6269 -2.5382 0.9603
4.9687 -8.4595 -2.5402 0.9603
5.5753 -8.0904 -2.5440 0.9602
5.8682 -7.8892 -2.5458 0.9602
6.7013 -7.2219 -2.5509 0.9601
6.9623 -6.9793 -2.5525 0.9601
7.2144 -6.7270 -2.5540 0.9601
7.4571 -6.4654 -2.5554 0.9600
7.6901 -6.1950 -2.5568 0.9600
7.9130 -5.9159 -2.5581 0.9600
8.3276 -5.3337 -2.5605 0.9600
8.5186 -5.0313 -2.5616 0.9599
8.8666 -4.4059 -2.5635 0.9599
9.1675 -3.7561 -2.5651 0.9599
9.4196 -3.0854 -2.5664 0.9599
-0.7386 -8.8096 -2.5027 0.9639
-0.4200 -8.8380 -2.5048 0.9639
-0.1003 -8.8549 -2.5069 0.9639
0.2201 -8.8602 -2.5090 0.9638
1.4999 -8.7652 -2.5174 0.9637
2.1327 -8.6480 -2.5215 0.9636
2.4460 -8.5722 -2.5236 0.9636
2.7564 -8.4848 -2.5256 0.9636
3.6673 -8.1553 -2.5314 0.9635
3.9626 -8.0233 -2.5333 0.9635
4.2532 -7.8805 -2.5351 0.9635
4.5385 -7.7271 -2.5369 0.9634
4.8182 -7.5632 -2.5386 0.9634
5.3592 -7.2048 -2.5420 0.9634
5.6197 -7.0108 -2.5436 0.9633
6.3569 -6.3724 -2.5481 0.9633
7.0203 -5.6554 -2.5521 0.9632
7.2236 -5.4005 -2.5533 0.9632
7.4174 -5.1381 -2.5544 0.9632
7.7755 -4.5924 -2.5564 0.9632
8.0925 -4.0213 -2.5582 0.9631
8.2351 -3.7272 -2.5590 0.9631
8.3667 -3.4280 -2.5596 0.9631
-0.6798 -8.1082 -2.5027 0.9665
0.2025 -8.1532 -2.5085 0.9664
0.4976 -8.1468 -2.5105 0.9664
1.6716 -8.0145 -2.5181 0.9663
1.9618 -7.9547 -2.5200 0.9663
3.0968 -7.6109 -2.5273 0.9662
3.6436 -7.3774 -2.5308 0.9662
4.1726 -7.1041 -2.5341 0.9661
4.6809 -6.7926 -2.5373 0.9661
5.3982 -6.2567 -2.5417 0.9660
5.8424 -5.8566 -2.5444 0.9660
6.0533 -5.6443 -2.5457 0.9660
6.2564 -5.4244 -2.5469 0.9659
6.4513 -5.1970 -2.5480 0.9659
6.9845 -4.4734 -2.5511 0.9659
7.1442 -4.2195 -2.5520 0.9659
7.2945 -3.9598 -2.5529 0.9659
7.4351 -3.6946 -2.5536 0.9659
7.5659 -3.4243 -2.5544 0.9658
7.8974 -2.5868 -2.5560 0.9658
-0.8511 -7.0705 -2.3672 0.9704
-0.6290 -7.5025 -2.5026 0.9688
-0.3576 -7.5258 -2.5044 0.9687
0.7329 -7.5203 -2.5116 0.9687
1.0051 -7.4942 -2.5134 0.9686
1.2762 -7.4582 -2.5152 0.9686
1.5461 -7.4124 -2.5169 0.9686
1.8143 -7.3568 -2.5187 0.9686
2.0805 -7.2913 -2.5204 0.9685
2.3443 -7.2162 -2.5221 0.9685
2.6054 -7.1314 -2.5238 0.9685
3.1179 -6.9335 -2.5270 0.9685
3.3686 -6.8206 -2.5286 0.9684
3.6152 -6.6984 -2.5302 0.9684
4.0946 -6.4273 -2.5332 0.9684
4.7744 -5.9561 -2.5374 0.9683
5.1975 -5.6013 -2.5400 0.9683
5.3992 -5.4123 -2.5412 0.9683
5.7814 -5.0126 -2.5435 0.9683
5.9613 -4.8023 -2.5446 0.9682
6.1335 -4.5855 -2.5456 0.9682
6.4534 -4.1333 -2.5474 0.9682
6.6008 -3.8986 -2.5483 0.9682
6.9900 -3.1637 -2.5504 0.9682
7.2959 -2.3898 -2.5520 0.9682
-0.0794 -7.0072 -2.5060 0.9707
0.9339 -6.9639 -2.5126 0.9706
1.1859 -6.9301 -2.5143 0.9706
1.6857 -6.8351 -2.5175 0.9705
1.9329 -6.7740 -2.5191 0.9705
2.8962 -6.4404 -2.5253 0.9704
3.5825 -6.0995 -2.5296 0.9704
3.8028 -5.9692 -2.5310 0.9704
4.0182 -5.8309 -2.5323 0.9704
4.2286 -5.6848 -2.5336 0.9704
4.4335 -5.5309 -2.5349 0.9703
4.6328 -5.3696 -2.5361 0.9703
5.0132 -5.0254 -2.5384 0.9703
5.3678 -4.6539 -2.5406 0.9703
5.5346 -4.4586 -2.5415 0.9703
5.8465 -4.0499 -2.5434 0.9702
6.2563 -3.3962 -2.5457 0.9702
6.3767 -3.1686 -2.5463 0.9702
6.5919 -2.7008 -2.5475 0.9702
-0.7800 -6.4796 -2.5010 0.9724
-0.3102 -6.5272 -2.5042 0.9724
0.1625 -6.5407 -2.5073 0.9724
0.8713 -6.4967 -2.5119 0.9723
1.3400 -6.4246 -2.5150 0.9723
1.5724 -6.3758 -2.5165 0.9723
1.8029 -6.3185 -2.5180 0.9722
2.4807 -6.0967 -2.5223 0.9722
2.7010 -6.0063 -2.5237 0.9722
3.1313 -5.8017 -2.5265 0.9722
3.5459 -5.5660 -2.5291 0.9721
3.7467 -5.4369 -2.5303 0.9721
4.1336 -5.1568 -2.5327 0.9721
4.3193 -5.0063 -2.5338 0.9721
4.6737 -4.6850 -2.5360 0.9721
4.8420 -4.5148 -2.5370 0.9720
5.1593 -4.1562 -2.5389 0.9720
5.3080 -3.9684 -2.5398 0.9720
5.4498 -3.7751 -2.5406 0.9720
5.7117 -3.3734 -2.5421 0.9720
5.9435 -2.9534 -2.5434 0.9720
6.2320 -2.2939 -2.5449 0.9720
6.3119 -2.0675 -2.5453 0.9719
-0.7304 -6.0673 -2.5011 0.9739
-0.5108 -6.0933 -2.5026 0.9739
-0.0693 -6.1214 -2.5055 0.9739
0.1521 -6.1235 -2.5070 0.9739
0.5949 -6.1036 -2.5099 0.9738
0.8156 -6.0816 -2.5113 0.9738
1.0355 -6.0516 -2.5128 0.9738
1.6874 -5.9139 -2.5170 0.9738
2.3216 -5.7056 -2.5211 0.9737
2.7306 -5.5286 -2.5237 0.9737
3.5056 -5.0871 -2.5285 0.9737
4.2095 -4.5365 -2.5328 0.9736
4.3724 -4.3830 -2.5338 0.9736
4.6811 -4.0586 -2.5357 0.9736
5.0979 -3.5313 -2.5381 0.9736
5.3427 -3.1555 -2.5395 0.9735
5.4546 -2.9610 -2.5401 0.9735
5.5593 -2.7625 -2.5407 0.9735
5.7466 -2.3545 -2.5417 0.9735
5.8290 -2.1456 -2.5421 0.9735
5.9036 -1.9337 -2.5425 0.9735
-0.6859 -5.6980 -2.5012 0.9753
-0.4797 -5.7222 -2.5026 0.9753
0.5585 -5.7308 -2.5094 0.9752
0.7658 -5.7100 -2.5108 0.9752
0.9722 -5.6816 -2.5121 0.9752
1.9831 -5.4283 -2.5187 0.9751
2.1792 -5.3557 -2.5199 0.9751
2.5629 -5.1892 -2.5224 0.9751
2.7502 -5.0956 -2.5235 0.9751
3.1140 -4.8880 -2.5258 0.9750
3.4619 -4.6542 -2.5280 0.9750
3.6294 -4.5278 -2.5290 0.9750
3.9502 -4.2570 -2.5310 0.9750
4.5287 -3.6482 -2.5344 0.9749
4.6590 -3.4831 -2.5352 0.9749
4.9012 -3.1391 -2.5366 0.9749
5.0127 -2.9606 -2.5372 0.9749
5.1177 -2.7781 -2.5378 0.9749
5.4687 -2.0130 -2.5397 0.9749
-0.6458 -5.3649 -2.5013 0.9765
-0.4516 -5.3875 -2.5026 0.9765
-0.0613 -5.4117 -2.5051 0.9764
0.1345 -5.4132 -2.5064 0.9764
0.5258 -5.3948 -2.5090 0.9764
1.1084 -5.3142 -2.5128 0.9764
1.8665 -5.1089 -2.5177 0.9763
2.2328 -4.9653 -2.5200 0.9763
2.7609 -4.7006 -2.5234 0.9763
2.9303 -4.5996 -2.5244 0.9762
3.0959 -4.4925 -2.5255 0.9762
3.5682 -4.1357 -2.5284 0.9762
3.9991 -3.7289 -2.5310 0.9762
4.1326 -3.5830 -2.5318 0.9762
4.9068 -2.4382 -2.5362 0.9761
4.9926 -2.2597 -2.5367 0.9761
5.0718 -2.0780 -2.5371 0.9761
5.2102 -1.7066 -2.5378 0.9761
-0.4262 -5.0839 -2.5025 0.9775
0.3116 -5.1022 -2.5074 0.9775
1.7607 -4.8194 -2.5168 0.9774
1.9346 -4.7547 -2.5179 0.9774
2.1062 -4.6836 -2.5190 0.9774
2.2751 -4.6064 -2.5201 0.9774
2.9200 -4.2372 -2.5241 0.9773
3.0724 -4.1304 -2.5251 0.9773
3.2208 -4.0181 -2.5260 0.9773
3.7713 -3.5165 -2.5293 0.9773
3.8971 -3.3789 -2.5301 0.9773
4.2435 -2.9395 -2.5321 0.9773
4.3480 -2.7848 -2.5327 0.9773
4.5398 -2.4644 -2.5338 0.9772
4.6268 -2.2991 -2.5343 0.9772
4.7077 -2.1307 -2.5347 0.9772
4.8507 -1.7855 -2.5355 0.9772
-0.5763 -4.7871 -2.5014 0.9785
-0.4030 -4.8070 -2.5025 0.9785
-0.2291 -4.8207 -2.5037 0.9785
-0.0546 -4.8280 -2.5048 0.9785
0.1200 -4.8291 -2.5060 0.9785
0.4690 -4.8122 -2.5083 0.9784
1.4979 -4.6107 -2.5150 0.9784
1.8286 -4.4942 -2.5171 0.9784
2.1503 -4.3538 -2.5191 0.9784
2.3072 -4.2749 -2.5201 0.9783
2.4612 -4.1903 -2.5211 0.9783
2.6121 -4.1001 -2.5220 0.9783
2.7596 -4.0045 -2.5230 0.9783
3.1802 -3.6860 -2.5255 0.9783
3.3124 -3.5697 -2.5263 0.9783
3.4403 -3.4487 -2.5271 0.9783
3.5638 -3.3230 -2.5279 0.9783
3.6827 -3.1929 -2.5286 0.9783
4.1085 -2.6314 -2.5311 0.9783
4.2018 -2.4816 -2.5316 0.9783
4.2896 -2.3286 -2.5321 0.9782
4.3717 -2.1724 -2.5325 0.9782
4.4481 -2.0132 -2.5329 0.9782
-0.5458 -4.5344 -2.5014 0.9794
0.4442 -4.5575 -2.5080 0.9793
0.6089 -4.5404 -2.5091 0.9793
0.7730 -4.5174 -2.5101 0.9793
0.9362 -4.4884 -2.5112 0.9793
1.7315 -4.2555 -2.5163 0.9793
1.8850 -4.1918 -2.5173 0.9793
2.0360 -4.1225 -2.5182 0.9792
2.1846 -4.0477 -2.5192 0.9792
2.3303 -3.9675 -2.5201 0.9792
2.6127 -3.7914 -2.5219 0.9792
3.0108 -3.4896 -2.5243 0.9792
3.1359 -3.3795 -2.5251 0.9792
3.6974 -2.7642 -2.5284 0.9792
3.7957 -2.6293 -2.5290 0.9792
3.9774 -2.3491 -2.5300 0.9792
4.3383 -1.5969 -2.5320 0.9791
4.3937 -1.4392 -2.5322 0.9791
-0.5178 -4.3016 -2.5015 0.9802
-0.0491 -4.3378 -2.5046 0.9802
0.2647 -4.3336 -2.5067 0.9801
0.5776 -4.3067 -2.5087 0.9801
0.7332 -4.2847 -2.5097 0.9801
1.0417 -4.2239 -2.5117 0.9801
1.1942 -4.1851 -2.5127 0.9801
1.7876 -3.9753 -2.5165 0.9801
1.9309 -3.9095 -2.5174 0.9801
2.3452 -3.6813 -2.5200 0.9800
2.4776 -3.5952 -2.5208 0.9800
3.3056 -2.8660 -2.5259 0.9800
3.5988 -2.4929 -2.5276 0.9800
3.6874 -2.3617 -2.5281 0.9800
3.9234 -1.9496 -2.5294 0.9800
3.9919 -1.8067 -2.5298 0.9800
4.0551 -1.6615 -2.5301 0.9800
