ply
format ascii 1.0
element vertex 635
property float32 x
property float32 y
property float32 z
property float32 I
end_header
-38.4433 -7.2628 6.8985 0.8531
-38.3244 -8.6750 6.9286 0.8525
-21.9056 -6.6413 4.0362 0.9112
-22.2882 -7.6406 4.1545 0.9087
-21.3548 -8.1879 4.0327 0.9113
-24.3679 -21.5872 5.7403 0.8761
-22.6595 -21.5733 5.5167 0.8807
-19.6075 -21.5523 5.1376 0.8884
-6.0629 -7.1646 1.6549 0.9626
-5.8858 -7.4841 1.6789 0.9621
-4.5040 -7.8141 1.5903 0.9640
-4.2961 -8.1128 1.6187 0.9634
-3.5647 -8.0855 1.5581 0.9647
-3.2812 -8.2304 1.5623 0.9647
-2.8747 -9.0494 1.6742 0.9622
-5.9826 -21.4737 3.9306 0.9134
-3.5526 -21.4590 3.8353 0.9154
-38.0246 -7.1837 5.9282 0.8551
-38.1006 -8.6243 5.9845 0.8538
-22.0662 -7.5645 3.5735 0.9099
-21.4880 -8.2390 3.5255 0.9111
-12.4858 -7.5789 2.2376 0.9426
-30.4737 -21.6322 5.7250 0.8597
-26.2184 -21.5985 5.2039 0.8716
-5.8561 -7.4464 1.4512 0.9624
-5.0110 -6.8650 1.3021 0.9662
-4.7908 -7.6623 1.3844 0.9641
-3.5422 -8.8851 1.4653 0.9620
-6.8260 -21.4873 3.4538 0.9128
-5.9825 -21.4734 3.4149 0.9137
-3.5525 -21.4587 3.3321 0.9157
-39.5025 -7.4630 5.2350 0.8503
-21.8548 -7.4920 3.0085 0.9110
-21.6440 -8.2989 3.0186 0.9107
-12.4867 -7.5794 1.9021 0.9428
-26.2182 -21.5984 4.4235 0.8720
-24.3677 -21.5870 4.2393 0.8769
-6.0032 -7.0941 1.2102 0.9632
-5.6442 -7.7324 1.2466 0.9621
-4.7218 -7.5520 1.1598 0.9647
-4.2328 -7.9932 1.1778 0.9642
-3.8602 -7.9683 1.1530 0.9649
-3.5260 -7.9978 1.1382 0.9654
-3.5100 -8.8044 1.2343 0.9625
-6.8257 -21.4864 2.9358 0.9131
-5.9824 -21.4731 2.9027 0.9140
-5.1588 -21.4681 2.8752 0.9148
-4.3496 -21.4632 2.8518 0.9155
-1.9846 -21.4422 2.8042 0.9168
-21.3953 -8.2035 2.4606 0.9119
-21.1747 -9.0029 2.4708 0.9116
-12.4881 -7.5803 1.5687 0.9429
-30.4722 -21.6312 4.0128 0.8604
-28.2600 -21.6263 3.8212 0.8666
-26.2181 -21.5983 3.6476 0.8723
-24.3676 -21.5869 3.4957 0.8772
-22.6601 -21.5738 3.3597 0.8817
-21.0812 -21.5644 3.2383 0.8857
-19.6085 -21.5534 3.1289 0.8894
-5.7983 -7.3728 1.0072 0.9630
-5.5767 -7.6400 1.0157 0.9627
-4.6551 -7.4453 0.9429 0.9653
-4.1952 -7.9222 0.9626 0.9646
-3.4747 -8.7158 1.0075 0.9630
-3.1529 -8.8157 1.0054 0.9630
-6.8255 -21.4855 2.4208 0.9133
-5.1587 -21.4678 2.3709 0.9150
-3.5524 -21.4581 2.3356 0.9162
-2.7643 -21.4480 2.3222 0.9167
-1.9846 -21.4424 2.3124 0.9170
-37.9765 -7.1747 3.2717 0.8563
-38.4007 -8.6923 3.3330 0.8538
-22.1734 -6.7225 1.9614 0.9112
-21.5714 -7.3949 1.9304 0.9125
-21.7781 -8.3503 1.9744 0.9106
-38.7938 -21.6828 3.7621 0.8366
-28.2577 -21.6246 3.0122 0.8669
-26.2180 -21.5982 2.8755 0.8725
-22.6603 -21.5740 2.6486 0.8820
-21.0791 -21.5623 2.5526 0.8860
-19.6089 -21.5538 2.4667 0.8896
-18.2326 -21.5457 2.3893 0.8929
-5.7640 -7.3292 0.7893 0.9633
-5.5111 -7.5501 0.7913 0.9632
-5.2141 -7.7095 0.7879 0.9633
-3.5451 -7.3179 0.6883 0.9679
-7.6857 -21.4893 1.9320 0.9125
-6.8252 -21.4847 1.9083 0.9135
-5.9822 -21.4725 1.8869 0.9144
-5.1586 -21.4675 1.8690 0.9152
-37.5173 -7.0879 2.3676 0.8581
-38.6535 -8.7495 2.4576 0.8531
-21.8784 -7.5001 1.4342 0.9115
-42.3373 -21.7079 2.9503 0.8264
-38.7920 -21.6818 2.7557 0.8369
-12.4916 -7.5824 0.9061 0.9431
-26.2179 -21.5981 2.1064 0.8727
-24.3674 -21.5867 2.0186 0.8777
-22.6605 -21.5742 1.9402 0.8822
-18.2329 -21.5461 1.7502 0.8930
-5.6889 -7.2338 0.5707 0.9638
-5.1539 -7.6206 0.5705 0.9638
-4.7811 -8.2947 0.5937 0.9624
-4.0954 -7.7338 0.5427 0.9655
-3.7238 -8.4464 0.5724 0.9637
-3.4066 -8.5450 0.5704 0.9638
-5.9822 -21.4722 1.3822 0.9145
-5.1586 -21.4672 1.3691 0.9153
-3.5523 -21.4575 1.3487 0.9165
-2.7643 -21.4482 1.3410 0.9170
-38.9921 -7.3665 1.5647 0.8531
-21.6497 -7.4217 0.9024 0.9125
-38.7903 -21.6808 1.7522 0.8370
-12.4933 -7.5834 0.5763 0.9432
-32.9298 -21.6422 1.5538 0.8541
-28.2530 -21.6210 1.4028 0.8673
-24.3672 -21.5866 1.2836 0.8778
-18.2332 -21.5464 1.1130 0.8932
-3.6877 -8.3645 0.3605 0.9641
-7.6851 -21.4875 0.8998 0.9127
-5.9821 -21.4718 0.8789 0.9146
-2.7644 -21.4484 0.8527 0.9171
-37.7077 -8.5354 0.6531 0.8567
-21.3599 -8.1899 0.3864 0.9125
-42.3284 -21.7033 0.8035 0.8267
-38.7886 -21.6798 0.7506 0.8371
-12.4950 -7.5845 0.2469 0.9432
-28.2507 -21.6192 0.6009 0.8673
-26.2176 -21.5978 0.5738 0.8729
-24.3671 -21.5865 0.5499 0.8779
-22.6609 -21.5746 0.5285 0.8823
-19.6098 -21.5548 0.4922 0.8900
-18.2335 -21.5468 0.4768 0.8932
-16.9362 -21.5352 0.4628 0.8962
-5.3430 -7.3198 0.1531 0.9644
-4.8947 -7.8286 0.1560 0.9637
-4.6887 -8.1345 0.1586 0.9631
-3.9659 -8.1865 0.1537 0.9643
-3.6524 -8.2844 0.1529 0.9644
-7.6848 -21.4866 0.3855 0.9128
-5.9820 -21.4715 0.3765 0.9147
-4.3493 -21.4617 0.3699 0.9161
-3.5522 -21.4569 0.3674 0.9167
-2.7644 -21.4485 0.3653 0.9171
-1.9847 -21.4429 0.3638 0.9175
-38.6486 -8.7484 -0.2231 0.8534
-22.0225 -7.5495 -0.1311 0.9111
-21.0357 -8.0656 -0.1268 0.9138
-42.3240 -21.7011 -0.2678 0.8267
-38.7868 -21.6788 -0.2502 0.8372
-12.4967 -7.5855 -0.0823 0.9432
-32.9282 -21.6411 -0.2218 0.8542
-30.4685 -21.6285 -0.2104 0.8612
-26.2175 -21.5977 -0.1912 0.8730
-15.7126 -21.5260 -0.1500 0.8989
-4.5675 -7.9241 -0.0515 0.9641
-4.2419 -8.0104 -0.0510 0.9644
-9.4778 -21.4977 -0.1323 0.9103
-7.6845 -21.4857 -0.1285 0.9128
-6.8241 -21.4811 -0.1269 0.9138
-5.1583 -21.4663 -0.1243 0.9155
-1.9847 -21.4430 -0.1212 0.9175
-38.7850 -21.6778 -1.2511 0.8371
-12.4985 -7.5866 -0.4117 0.9432
-26.2174 -21.5976 -0.9565 0.8729
-24.3669 -21.5863 -0.9166 0.8779
-22.6613 -21.5750 -0.8810 0.8823
-21.0809 -21.5642 -0.8491 0.8863
-16.9368 -21.5360 -0.7715 0.8962
-15.7129 -21.5264 -0.7504 0.8988
-5.0073 -7.4037 -0.2517 0.9649
-4.7996 -7.6764 -0.2549 0.9644
-4.5412 -8.5756 -0.2732 0.9619
-9.4772 -21.4964 -0.6615 0.9103
-8.5672 -21.4896 -0.6514 0.9116
-5.9818 -21.4709 -0.6276 0.9147
-1.9847 -21.4431 -0.6064 0.9174
-40.4802 -7.6477 -2.0892 0.8479
-42.5308 -11.2453 -2.2310 0.8385
-42.1688 -12.7847 -2.2347 0.8382
-41.7567 -14.3146 -2.2386 0.8380
-40.2232 -18.8333 -2.2524 0.8370
-30.4671 -21.6275 -1.8948 0.8610
-24.3668 -21.5862 -1.6509 0.8778
-16.9371 -21.5364 -1.3895 0.8961
-15.7132 -21.5268 -1.3516 0.8988
-14.5576 -21.5250 -1.3178 0.9012
-10.4159 -21.5008 -1.2116 0.9087
-9.4767 -21.4951 -1.1914 0.9102
-6.8235 -21.4793 -1.1430 0.9137
-5.1582 -21.4657 -1.1196 0.9154
-4.3491 -21.4608 -1.1105 0.9160
-3.5521 -21.4560 -1.1029 0.9166
-2.7644 -21.4489 -1.0968 0.9170
-1.9847 -21.4433 -1.0921 0.9174
-31.1587 -3.5978 -2.2998 0.8818
-29.5054 -11.3131 -2.3170 0.8810
-28.7048 -13.4402 -2.3240 0.8806
-26.6774 -17.5329 -2.3407 0.8798
-26.0836 -18.5159 -2.3454 0.8796
-25.4560 -19.4805 -2.3503 0.8794
-24.0954 -19.8497 -2.2890 0.8823
-21.9499 -20.8978 -2.2222 0.8855
-21.0816 -21.5649 -2.2112 0.8861
-19.6111 -21.5562 -2.1368 0.8897
-18.2346 -21.5481 -2.0697 0.8930
-16.9374 -21.5368 -2.0090 0.8959
-15.7135 -21.5272 -1.9542 0.8986
-13.4533 -21.5172 -1.8607 0.9032
-4.5639 -7.9179 -0.6701 0.9640
-7.6835 -21.4831 -1.6729 0.9126
-5.1581 -21.4654 -1.6187 0.9153
-3.5520 -21.4557 -1.5946 0.9165
-2.7644 -21.4490 -1.5857 0.9169
-1.9847 -21.4434 -1.5790 0.9173
-23.8673 -5.4025 -2.3493 0.9063
-22.3460 -5.9084 -2.2191 0.9113
-22.0304 -6.6792 -2.2101 0.9116
-21.5387 -8.2585 -2.2146 0.9115
-21.2527 -9.0361 -2.2171 0.9114
-21.9375 -11.2482 -2.3668 0.9057
-21.5490 -12.0443 -2.3700 0.9056
-12.5037 -7.5897 -1.4043 0.9429
-20.6902 -13.5980 -2.3770 0.9053
-20.2205 -14.3539 -2.3807 0.9052
-19.2028 -15.8192 -2.3886 0.9049
-15.5554 -19.7797 -2.4158 0.9038
-13.3931 -19.8030 -2.2952 0.9084
-12.6078 -20.1649 -2.2832 0.9089
-4.5584 -7.9084 -0.8763 0.9640
-11.1791 -21.1108 -2.2934 0.9085
-10.4146 -21.4982 -2.2934 0.9085
-8.5662 -21.4868 -2.2207 0.9112
-7.6832 -21.4822 -2.1903 0.9124
-5.1580 -21.4650 -2.1194 0.9151
-3.5520 -21.4554 -2.0879 0.9163
-1.9848 -21.4435 -2.0675 0.9171
-19.8476 -2.2918 -2.3733 0.9227
-19.7624 -3.0038 -2.3745 0.9226
-19.6527 -3.7129 -2.3758 0.9226
-19.5188 -4.4182 -2.3772 0.9226
-19.1788 -5.8147 -2.3806 0.9224
-17.6023 -6.7492 -2.2393 0.9269
-17.3650 -7.3832 -2.2414 0.9268
-17.1058 -8.0093 -2.2436 0.9267
-16.8251 -8.6269 -2.2460 0.9267
-16.5231 -9.2351 -2.2485 0.9266
-12.5054 -7.5908 -1.7377 0.9428
-16.8844 -11.0968 -2.4000 0.9218
-15.6565 -12.8978 -2.4096 0.9215
-15.2055 -13.4704 -2.4130 0.9214
-14.7341 -14.0279 -2.4166 0.9213
-14.2430 -14.5696 -2.4203 0.9212
-13.2035 -15.6028 -2.4279 0.9210
-12.0910 -16.5646 -2.4361 0.9207
-11.5088 -17.0170 -2.4403 0.9206
-10.9101 -17.4496 -2.4446 0.9204
-4.5521 -7.8976 -1.0828 0.9639
-9.6657 -18.2529 -2.4534 0.9202
-9.0213 -18.6224 -2.4580 0.9200
-7.6918 -19.2941 -2.4673 0.9197
-4.7445 -19.7445 -2.4121 0.9215
-1.8282 -19.7529 -2.3564 0.9232
-16.7059 -2.5392 -2.3942 0.9340
-16.3618 -4.3261 -2.3980 0.9339
-16.2062 -4.9134 -2.3995 0.9339
-15.2850 -5.8607 -2.3195 0.9360
-14.2070 -7.2845 -2.2622 0.9375
-12.5071 -7.5919 -2.0731 0.9426
-13.0713 -9.2789 -2.2713 0.9373
-13.5709 -10.3853 -2.4213 0.9333
-13.2049 -10.8781 -2.4241 0.9332
-12.8215 -11.3585 -2.4270 0.9331
-12.0043 -12.2796 -2.4332 0.9330
-11.5713 -12.7191 -2.4364 0.9329
-10.6587 -13.5532 -2.4431 0.9327
-9.6873 -14.3237 -2.4501 0.9325
-6.4631 -16.2120 -2.4729 0.9319
-5.3012 -16.6879 -2.4809 0.9317
-4.7069 -16.8951 -2.4850 0.9316
-4.1046 -17.0814 -2.4891 0.9315
-3.4949 -17.2464 -2.4933 0.9314
-2.8788 -17.3897 -2.4975 0.9313
-1.6299 -17.6105 -2.5059 0.9310
-14.3734 -2.7155 -2.4098 0.9424
-14.2731 -3.2308 -2.4108 0.9424
-14.1551 -3.7427 -2.4120 0.9424
-13.8659 -4.7534 -2.4148 0.9423
-13.6951 -5.2511 -2.4163 0.9423
-13.5071 -5.7429 -2.4179 0.9422
-12.5069 -5.8560 -2.2750 0.9456
-12.0592 -6.7402 -2.2759 0.9455
-10.7124 -8.8248 -2.2865 0.9453
-10.3648 -10.6025 -2.4426 0.9417
-9.9891 -10.9800 -2.4454 0.9416
-9.6000 -11.3445 -2.4482 0.9415
-9.1979 -11.6956 -2.4512 0.9415
-8.7831 -12.0328 -2.4542 0.9414
-8.3563 -12.3556 -2.4573 0.9413
-7.0077 -13.2335 -2.4669 0.9411
-6.5372 -13.4945 -2.4702 0.9410
-5.5680 -13.9667 -2.4770 0.9409
-3.5329 -14.7022 -2.4910 0.9405
-3.0074 -14.8408 -2.4946 0.9405
-1.4016 -15.1435 -2.5054 0.9402
-12.7286 -1.9347 -2.4200 0.9489
-12.6555 -2.3909 -2.4208 0.9489
-12.3415 -3.7417 -2.4240 0.9489
-12.0544 -4.6220 -2.4266 0.9488
-11.8879 -5.0545 -2.4280 0.9488
-11.7063 -5.4812 -2.4296 0.9488
-11.3699 -5.8298 -2.4017 0.9493
-10.6106 -5.9306 -2.2848 0.9517
-10.1737 -6.6863 -2.2883 0.9517
-9.6841 -7.4110 -2.2921 0.9516
-9.4203 -7.7605 -2.2941 0.9515
-9.1442 -8.1008 -2.2962 0.9515
-8.8561 -8.4316 -2.2984 0.9514
-8.5562 -8.7524 -2.3006 0.9514
-8.4365 -9.9696 -2.4548 0.9482
-7.7163 -10.5714 -2.4600 0.9481
-7.3402 -10.8533 -2.4627 0.9481
-6.9539 -11.1221 -2.4655 0.9480
-4.5331 -7.8644 -1.7062 0.9637
-4.4488 -12.4391 -2.4831 0.9477
-2.6369 -13.0123 -2.4955 0.9474
-2.1711 -13.1150 -2.4987 0.9473
-11.1203 -2.9403 -2.4314 0.9541
-11.0123 -3.3387 -2.4324 0.9540
-10.2670 -5.2643 -2.4389 0.9539
-10.0779 -5.6328 -2.4405 0.9539
-9.0726 -5.9629 -2.2949 0.9566
-8.6348 -6.6079 -2.2984 0.9565
-8.1518 -7.2216 -2.3020 0.9565
-7.6260 -7.8009 -2.3060 0.9564
-7.3478 -8.0766 -2.3080 0.9563
-6.4556 -8.8442 -2.3145 0.9562
-6.1936 -9.9060 -2.4695 0.9534
-4.5264 -7.8528 -1.9159 0.9636
-5.4786 -10.3459 -2.4746 0.9533
-5.1092 -10.5468 -2.4772 0.9532
-4.7326 -10.7347 -2.4798 0.9532
-3.5635 -11.2176 -2.4879 0.9530
-3.1622 -11.3508 -2.4907 0.9530
-1.9309 -11.6639 -2.4991 0.9528
-1.0920 -11.7989 -2.5047 0.9527
-10.2940 -1.1886 -2.4354 0.9583
-9.9324 -3.0113 -2.4393 0.9582
-9.8221 -3.3671 -2.4403 0.9582
-9.6993 -3.7190 -2.4414 0.9582
-9.5642 -4.0665 -2.4426 0.9582
-9.4171 -4.4092 -2.4438 0.9582
-9.0867 -5.0788 -2.4465 0.9581
-8.9040 -5.4048 -2.4480 0.9581
-8.7098 -5.7243 -2.4495 0.9581
-7.5700 -6.2361 -2.3051 0.9605
-6.6205 -7.2772 -2.3122 0.9604
-5.8150 -7.9665 -2.3181 0.9603
-5.5304 -8.1772 -2.3201 0.9602
-5.2381 -8.3779 -2.3222 0.9602
-4.5197 -7.8412 -2.1271 0.9635
-3.6763 -9.2216 -2.3332 0.9600
-2.1100 -10.4123 -2.4969 0.9573
-1.7369 -10.4919 -2.4994 0.9572
-9.3671 -1.0816 -2.4414 0.9618
-9.2700 -1.7513 -2.4426 0.9618
-9.2038 -2.0834 -2.4433 0.9618
-9.1260 -2.4130 -2.4441 0.9617
-8.5664 -4.0110 -2.4491 0.9617
-8.2651 -4.6196 -2.4516 0.9616
-7.9214 -5.2062 -2.4543 0.9616
-7.5370 -5.7678 -2.4573 0.9615
-7.0605 -5.8165 -2.3686 0.9629
-6.6799 -5.9178 -2.3107 0.9638
-5.5370 -7.0406 -2.3191 0.9637
-4.4875 -7.7854 -2.3267 0.9636
-4.2088 -7.9481 -2.3286 0.9635
-3.3392 -8.3761 -2.3347 0.9634
-3.0393 -8.4980 -2.3368 0.9634
-2.1144 -8.7992 -2.3431 0.9633
-1.7990 -8.8775 -2.3453 0.9633
-8.5457 -1.2989 -2.4470 0.9647
-8.4956 -1.6050 -2.4476 0.9647
-8.3633 -2.2113 -2.4490 0.9647
-8.1887 -2.8072 -2.4506 0.9647
-8.0858 -3.1003 -2.4515 0.9646
-7.9725 -3.3897 -2.4525 0.9646
-7.4195 -4.5036 -2.4571 0.9646
-7.2569 -4.7694 -2.4583 0.9645
-6.9039 -5.2834 -2.4611 0.9645
-6.7139 -5.5309 -2.4625 0.9645
-6.5152 -5.7717 -2.4641 0.9645
-6.1019 -5.8095 -2.3851 0.9656
-5.7210 -5.8525 -2.3170 0.9665
-5.5113 -6.0580 -2.3185 0.9665
-5.2941 -6.2561 -2.3201 0.9665
-4.6012 -6.8034 -2.3251 0.9664
-3.5917 -7.4143 -2.3323 0.9663
-3.0557 -7.6650 -2.3360 0.9663
-2.7811 -7.7761 -2.3379 0.9663
-2.2200 -7.9686 -2.3418 0.9662
-1.9343 -8.0498 -2.3437 0.9662
-1.3544 -8.1815 -2.3476 0.9661
-1.0609 -8.2317 -2.3496 0.9661
-7.8793 -1.1976 -2.4513 0.9672
-7.7767 -1.7603 -2.4525 0.9672
-7.7106 -2.0387 -2.4531 0.9672
-7.6348 -2.3147 -2.4539 0.9672
-6.8387 -4.1511 -2.4606 0.9671
-6.6885 -4.3959 -2.4618 0.9671
-6.5299 -4.6353 -2.4630 0.9670
-5.8124 -5.5339 -2.4685 0.9670
-5.6136 -5.7423 -2.4700 0.9670
-5.2778 -5.8014 -2.4123 0.9677
-4.9178 -5.8116 -2.3417 0.9686
-4.4576 -6.1068 -2.3255 0.9689
-4.2385 -6.2670 -2.3271 0.9688
-4.0137 -6.4195 -2.3287 0.9688
-3.5480 -6.7002 -2.3320 0.9688
-2.8138 -7.0582 -2.3371 0.9687
-2.3039 -7.2527 -2.3406 0.9687
-0.9764 -7.5765 -2.3496 0.9685
-0.7503 -8.1062 -2.5040 0.9665
-7.2588 -1.3714 -2.4556 0.9693
-7.2066 -1.6313 -2.4561 0.9693
-7.0748 -2.1449 -2.4574 0.9693
-6.9954 -2.3981 -2.4581 0.9693
-6.9070 -2.6483 -2.4589 0.9693
-6.7041 -3.1390 -2.4607 0.9693
-6.5897 -3.3788 -2.4616 0.9693
-6.4669 -3.6145 -2.4626 0.9693
-5.8941 -4.5106 -2.4671 0.9692
-5.7314 -4.7215 -2.4684 0.9692
-5.3838 -5.1258 -2.4710 0.9692
-5.0080 -5.5048 -2.4738 0.9691
-4.8102 -5.6843 -2.4752 0.9691
-4.2343 -5.8010 -2.3873 0.9702
-3.9287 -5.8091 -2.3311 0.9709
-3.7162 -5.9440 -2.3302 0.9709
-3.5030 -6.0775 -2.3318 0.9709
-3.2849 -6.2033 -2.3333 0.9708
-2.8355 -6.4316 -2.3364 0.9708
-1.8916 -6.7899 -2.3430 0.9707
-1.6480 -6.8583 -2.3446 0.9707
-1.4019 -6.9179 -2.3463 0.9707
-1.1536 -6.9687 -2.3480 0.9707
-0.9035 -7.0107 -2.3497 0.9706
-0.6942 -7.5004 -2.5038 0.9687
-6.8279 -0.7884 -2.4579 0.9712
-6.7562 -1.2764 -2.4588 0.9712
-6.7074 -1.5183 -2.4593 0.9712
-6.6502 -1.7584 -2.4599 0.9712
-6.5845 -1.9963 -2.4605 0.9712
-6.3376 -2.6946 -2.4627 0.9712
-6.1323 -3.1443 -2.4644 0.9711
-5.8957 -3.5787 -2.4664 0.9711
-5.6287 -3.9956 -2.4685 0.9711
-5.3326 -4.3930 -2.4707 0.9711
-5.1741 -4.5837 -2.4719 0.9711
-5.0088 -4.7687 -2.4732 0.9710
-4.6589 -5.1210 -2.4758 0.9710
-4.2845 -5.4479 -2.4785 0.9710
-3.8871 -5.7477 -2.4814 0.9710
-3.6195 -5.7892 -2.4416 0.9714
-3.0727 -5.8025 -2.3480 0.9725
-2.8475 -5.8786 -2.3359 0.9726
-2.6367 -5.9808 -2.3374 0.9726
-2.4220 -6.0754 -2.3389 0.9726
-1.3032 -6.4311 -2.3466 0.9725
-1.0973 -6.6284 -2.4026 0.9719
-6.3496 -0.9651 -2.4612 0.9729
-6.2128 -1.6427 -2.4627 0.9728
-6.1513 -1.8650 -2.4633 0.9728
-6.0050 -2.3025 -2.4646 0.9728
-5.9203 -2.5172 -2.4653 0.9728
-5.8280 -2.7288 -2.4661 0.9728
-5.7283 -2.9371 -2.4669 0.9728
-5.3856 -3.5395 -2.4697 0.9728
-5.2572 -3.7320 -2.4707 0.9728
-4.9804 -4.1029 -2.4728 0.9727
-4.8322 -4.2808 -2.4739 0.9727
-4.6777 -4.4535 -2.4751 0.9727
-4.3506 -4.7821 -2.4775 0.9727
-3.8176 -5.2301 -2.4814 0.9726
-3.6295 -5.3666 -2.4828 0.9726
-3.4365 -5.4964 -2.4841 0.9726
-3.2389 -5.6193 -2.4855 0.9726
-2.5560 -5.7977 -2.4281 0.9732
-2.3284 -5.8407 -2.4096 0.9734
-2.1119 -5.9050 -2.4033 0.9735
-1.9027 -5.9896 -2.4084 0.9734
-1.2946 -6.3887 -2.4980 0.9725
-1.0657 -6.4375 -2.5005 0.9724
-0.8346 -6.4756 -2.5021 0.9724
-0.6021 -6.5054 -2.5036 0.9724
-5.9793 -0.6904 -2.4635 0.9743
-5.9516 -0.9046 -2.4638 0.9743
-5.8231 -1.5397 -2.4652 0.9743
-5.7004 -1.9542 -2.4663 0.9743
-5.6280 -2.1580 -2.4670 0.9743
-5.2680 -2.9444 -2.4700 0.9743
-5.0469 -3.3169 -2.4717 0.9742
-4.5278 -4.0112 -2.4757 0.9742
-3.9147 -4.6261 -2.4803 0.9741
-3.5764 -4.8997 -2.4827 0.9741
-2.8447 -5.3721 -2.4879 0.9741
-2.6516 -5.4737 -2.4893 0.9741
-1.4258 -5.9339 -2.4977 0.9740
-0.9979 -6.0279 -2.5006 0.9739
-0.7814 -6.0633 -2.5021 0.9739
-0.5637 -6.0910 -2.5036 0.9739
-5.5943 -0.8503 -2.4661 0.9756
-5.5208 -1.2497 -2.4669 0.9756
-5.4191 -1.6430 -2.4679 0.9756
-5.3579 -1.8368 -2.4685 0.9756
-5.2151 -2.2173 -2.4697 0.9756
-5.0455 -2.5871 -2.4712 0.9756
-4.9511 -2.7673 -2.4719 0.9756
-4.8502 -2.9441 -2.4727 0.9755
-4.6298 -3.2866 -2.4745 0.9755
-4.5106 -3.4518 -2.4754 0.9755
-3.9769 -4.0681 -2.4794 0.9755
-3.8301 -4.2100 -2.4805 0.9755
-3.5216 -4.4779 -2.4827 0.9754
-3.0244 -4.8373 -2.4863 0.9754
-2.6725 -5.0467 -2.4888 0.9754
-2.4910 -5.1420 -2.4901 0.9754
-2.3061 -5.2308 -2.4914 0.9754
-2.1180 -5.3129 -2.4927 0.9754
-1.7335 -5.4569 -2.4953 0.9753
-0.9371 -5.6610 -2.5007 0.9753
-0.5294 -5.7199 -2.5035 0.9752
-5.1576 -1.3637 -2.4694 0.9768
-5.1063 -1.5481 -2.4699 0.9768
-4.9844 -1.9112 -2.4710 0.9767
-4.9138 -2.0893 -2.4716 0.9767
-4.6648 -2.6073 -2.4737 0.9767
-4.2495 -3.2520 -2.4769 0.9767
-4.1316 -3.4036 -2.4778 0.9767
-4.0083 -3.5510 -2.4788 0.9767
-3.6080 -3.9659 -2.4818 0.9766
-3.4648 -4.0945 -2.4828 0.9766
-3.3171 -4.2180 -2.4839 0.9766
-2.6846 -4.6575 -2.4884 0.9766
-2.3459 -4.8427 -2.4908 0.9766
-1.9946 -5.0033 -2.4932 0.9765
-1.4477 -5.1965 -2.4970 0.9765
-1.0725 -5.2924 -2.4996 0.9765
-0.8824 -5.3302 -2.5008 0.9765
-5.0018 -0.5775 -2.4698 0.9778
-4.9785 -0.7567 -2.4701 0.9778
-4.8706 -1.2878 -2.4713 0.9778
-4.7069 -1.8048 -2.4728 0.9778
-4.5675 -2.1386 -2.4739 0.9778
-4.4891 -2.3017 -2.4746 0.9778
-4.4048 -2.4620 -2.4753 0.9778
-4.2194 -2.7731 -2.4768 0.9778
-4.1186 -2.9237 -2.4775 0.9777
-3.9010 -3.2136 -2.4792 0.9777
-3.7845 -3.3527 -2.4801 0.9777
-3.6631 -3.4876 -2.4810 0.9777
-3.4062 -3.7441 -2.4829 0.9777
-3.2710 -3.8655 -2.4839 0.9777
-2.9879 -4.0934 -2.4859 0.9777
-2.8403 -4.1998 -2.4870 0.9777
-2.5341 -4.3965 -2.4892 0.9776
-2.3758 -4.4866 -2.4903 0.9776
-2.0499 -4.6497 -2.4926 0.9776
-1.5406 -4.8498 -2.4961 0.9776
-1.3663 -4.9043 -2.4973 0.9776
-1.1901 -4.9526 -2.4985 0.9776
-1.0121 -4.9945 -2.4997 0.9776
-4.7327 -0.5465 -2.4716 0.9788
-4.4534 -1.7076 -2.4743 0.9787
-4.3902 -1.8666 -2.4749 0.9787
-4.2471 -2.1777 -2.4761 0.9787
-4.1674 -2.3292 -2.4767 0.9787
-3.9919 -2.6236 -2.4781 0.9787
-3.8963 -2.7659 -2.4789 0.9787
-3.7958 -2.9048 -2.4797 0.9787
-3.3458 -3.4226 -2.4830 0.9787
-2.9621 -3.7665 -2.4859 0.9786
-2.8262 -3.8719 -2.4868 0.9786
-2.5433 -4.0679 -2.4889 0.9786
-2.3968 -4.1582 -2.4899 0.9786
-2.0942 -4.3231 -2.4920 0.9786
-1.9386 -4.3973 -2.4931 0.9786
-1.4569 -4.5863 -2.4964 0.9785
-1.2921 -4.6377 -2.4976 0.9785
-1.1253 -4.6832 -2.4987 0.9785
-0.9570 -4.7227 -2.4998 0.9785
-4.4857 -0.5179 -2.4732 0.9796
-4.4647 -0.6786 -2.4734 0.9796
-4.4380 -0.8385 -2.4737 0.9796
-4.3678 -1.1549 -2.4745 0.9796
-4.2752 -1.4656 -2.4753 0.9796
-4.2207 -1.6183 -2.4758 0.9796
-4.0250 -2.0638 -2.4775 0.9796
-3.9494 -2.2074 -2.4781 0.9796
-3.8687 -2.3483 -2.4787 0.9796
-3.6924 -2.6211 -2.4801 0.9796
-3.4971 -2.8809 -2.4816 0.9795
-3.2836 -3.1263 -2.4832 0.9795
-3.0531 -3.3560 -2.4849 0.9795
-2.9318 -3.4646 -2.4858 0.9795
-2.6778 -3.6686 -2.4876 0.9795
-2.2708 -3.9397 -2.4905 0.9795
-2.1288 -4.0202 -2.4916 0.9795
-1.5345 -4.2905 -2.4957 0.9794
-1.2239 -4.3932 -2.4978 0.9794
-1.0660 -4.4362 -2.4989 0.9794
-0.9065 -4.4735 -2.5000 0.9794
-0.7457 -4.5051 -2.5011 0.9794
-0.4212 -4.5510 -2.5032 0.9794
-4.2379 -0.6442 -2.4749 0.9804
-4.2126 -0.7959 -2.4752 0.9804
-4.1819 -0.9466 -2.4755 0.9804
-4.1458 -1.0962 -2.4759 0.9804
-4.1045 -1.2444 -2.4763 0.9804
-4.0579 -1.3911 -2.4767 0.9804
-3.8873 -1.8201 -2.4782 0.9804
-3.8203 -1.9588 -2.4787 0.9804
-3.6718 -2.2288 -2.4799 0.9804
-3.5044 -2.4877 -2.4812 0.9803
-3.4139 -2.6125 -2.4819 0.9803
-3.3189 -2.7341 -2.4827 0.9803
-2.7822 -3.2878 -2.4866 0.9803
-2.6634 -3.3867 -2.4875 0.9803
-2.4154 -3.5715 -2.4893 0.9803
-2.1547 -3.7383 -2.4912 0.9803
-2.0200 -3.8146 -2.4921 0.9803
-1.7426 -3.9527 -2.4940 0.9802
-1.4559 -4.0707 -2.4960 0.9802
-0.8600 -4.2440 -2.5001 0.9802
-0.5539 -4.2983 -2.5022 0.9802
