ply
format ascii 1.0
element vertex 551
property float32 x
property float32 y
property float32 z
property float32 I
end_header
-1.2106 -21.4366 3.7859 0.9165
-0.4400 -21.4310 3.7797 0.9166
0.3292 -21.4321 3.7795 0.9166
1.0975 -21.3962 3.7777 0.9167
3.6014 -22.4725 4.0131 0.9117
43.5771 -18.7890 8.3676 0.8247
44.9091 -17.4804 8.4974 0.8222
45.4938 -15.8532 8.4949 0.8223
43.6251 -13.4674 8.0505 0.8307
-1.2106 -21.4367 3.2892 0.9168
-0.4400 -21.4311 3.2838 0.9169
1.0974 -21.3956 3.2820 0.9170
46.4639 -16.1912 7.5378 0.8195
46.4955 -12.5452 7.3776 0.8229
-1.2106 -21.4368 2.7960 0.9170
-0.4400 -21.4312 2.7914 0.9172
1.8698 -21.4055 2.7981 0.9170
2.6757 -21.6405 2.8395 0.9158
31.5302 -35.0148 6.1359 0.8269
31.5000 -32.5526 5.8988 0.8330
31.4722 -30.2708 5.6864 0.8385
31.4859 -24.3499 5.1832 0.8517
37.6251 -25.0025 5.8827 0.8334
41.3714 -25.4008 6.3218 0.8222
46.3618 -12.5091 6.2532 0.8239
-0.4400 -21.4314 2.3018 0.9174
2.6760 -21.6427 2.3417 0.9160
31.5553 -37.6778 5.2774 0.8206
31.5229 -35.0067 5.0585 0.8274
31.4931 -32.5455 4.8631 0.8334
31.4655 -30.2644 4.6881 0.8389
31.4159 -26.1497 4.3892 0.8484
31.4857 -24.3498 4.2741 0.8520
34.3612 -24.6555 4.5414 0.8435
0.3292 -21.4302 1.8143 0.9176
1.0973 -21.3938 1.8134 0.9176
1.8698 -21.4049 1.8189 0.9174
2.6762 -21.6448 1.8462 0.9162
31.5158 -34.9988 3.9869 0.8277
31.4335 -28.1336 3.5711 0.8442
31.4096 -26.1446 3.4595 0.8487
34.3610 -24.6553 3.5801 0.8439
37.6246 -25.0022 3.8241 0.8341
41.3709 -25.4004 4.1096 0.8229
1.0973 -21.3932 1.3283 0.9177
1.8697 -21.4046 1.3324 0.9175
2.6765 -21.6470 1.3526 0.9163
3.6048 -22.4943 1.4127 0.9127
31.5404 -37.6600 3.0461 0.8213
31.4794 -32.5313 2.8071 0.8341
31.4035 -26.1394 2.5337 0.8490
0.3292 -21.4293 0.8451 0.9178
1.8698 -21.4042 0.8472 0.9176
3.6055 -22.4986 0.8985 0.9128
31.4457 -30.2454 1.7204 0.8397
31.3973 -26.1343 1.6108 0.8491
31.4852 -24.3494 1.5694 0.8527
37.6242 -25.0019 1.7813 0.8346
41.3703 -25.4001 1.9142 0.8234
-0.4400 -21.4319 0.3621 0.9178
0.3292 -21.4288 0.3620 0.9178
1.0972 -21.3921 0.3618 0.9179
1.8697 -21.4039 0.3629 0.9176
2.6770 -21.6513 0.3685 0.9164
31.5255 -37.6422 0.8294 0.8217
31.4944 -34.9751 0.7950 0.8284
31.4144 -28.1165 0.7121 0.8448
31.3912 -26.1292 0.6899 0.8493
31.4850 -24.3493 0.6723 0.8528
34.3604 -24.6549 0.7144 0.8444
37.6239 -25.0018 0.7631 0.8347
41.3701 -25.3999 0.8200 0.8235
44.3662 -21.0479 0.8295 0.8216
45.5337 -19.6327 0.8376 0.8201
-1.2106 -21.4376 -0.1209 0.9177
-0.4400 -21.4320 -0.1207 0.9178
1.0972 -21.3915 -0.1206 0.9179
2.6773 -21.6534 -0.1228 0.9164
31.4873 -34.9672 -0.2649 0.8284
31.4589 -32.5101 -0.2547 0.8345
31.4849 -24.3492 -0.2241 0.8528
34.3603 -24.6548 -0.2381 0.8444
44.3589 -21.0445 -0.2764 0.8217
45.5094 -19.6222 -0.2790 0.8202
1.8697 -21.4033 -0.6050 0.9176
31.5107 -37.6245 -1.3819 0.8217
31.4802 -34.9593 -1.3247 0.8284
31.4260 -30.2264 -1.2278 0.8399
31.4017 -28.1051 -1.1866 0.8448
31.4847 -24.3490 -1.1207 0.8528
34.3600 -24.6546 -1.1908 0.8443
37.6235 -25.0015 -1.2720 0.8346
37.7232 -17.8964 -1.1757 0.8461
37.7334 -14.6874 -1.1401 0.8504
37.7429 -11.6515 -1.1122 0.8538
37.7475 -10.1849 -1.1009 0.8552
-0.4400 -21.4322 -1.0871 0.9177
1.0971 -21.3903 -1.0862 0.9178
1.8696 -21.4030 -1.0896 0.9175
17.1539 -43.6789 -2.3798 0.8287
18.3521 -42.2123 -2.3343 0.8316
31.4731 -34.9514 -2.3853 0.8283
31.4453 -32.4960 -2.2933 0.8343
31.3954 -28.0995 -2.1368 0.8447
31.3728 -26.1138 -2.0701 0.8492
31.4845 -24.3489 -2.0185 0.8526
41.3692 -25.3994 -2.4619 0.8233
37.7223 -16.2646 -2.0833 0.8483
37.6478 -13.1191 -2.0219 0.8524
37.7370 -11.6497 -2.0029 0.8537
37.7417 -10.1833 -1.9825 0.8551
-0.4400 -21.4323 -1.5718 0.9176
2.6781 -21.6598 -1.6002 0.9162
8.0576 -34.3083 -2.5840 0.8682
9.3126 -34.1041 -2.5921 0.8678
11.8069 -33.5550 -2.6082 0.8670
15.4812 -32.3792 -2.6315 0.8659
20.1755 -30.1629 -2.6607 0.8646
22.4004 -28.7846 -2.6743 0.8639
25.5419 -26.3954 -2.6931 0.8630
26.5296 -25.5169 -2.6989 0.8627
29.7778 -18.2826 -2.5620 0.8692
30.4576 -17.2268 -2.5657 0.8691
31.0964 -16.1439 -2.5690 0.8689
32.7548 -12.7495 -2.5772 0.8685
33.6351 -10.3834 -2.5810 0.8683
34.0050 -9.1751 -2.5825 0.8683
-1.2107 -21.4381 -2.0614 0.9173
-0.4400 -21.4325 -2.0581 0.9175
2.6784 -21.6620 -2.0955 0.9160
4.8434 -24.5491 -2.4023 0.9043
8.9281 -25.3734 -2.5824 0.8975
10.7733 -24.7799 -2.5941 0.8971
12.5772 -24.0481 -2.6054 0.8967
13.4602 -23.6311 -2.6109 0.8965
14.3288 -23.1805 -2.6163 0.8963
15.1817 -22.6969 -2.6215 0.8961
16.0173 -22.1807 -2.6266 0.8959
16.8345 -21.6324 -2.6316 0.8957
18.4081 -20.4425 -2.6410 0.8953
19.8923 -19.1329 -2.6498 0.8950
21.2771 -17.7104 -2.6577 0.8947
21.9292 -16.9591 -2.6614 0.8946
23.1475 -15.3819 -2.6682 0.8943
23.7115 -14.5581 -2.6712 0.8942
25.2117 -11.9607 -2.6790 0.8939
26.4062 -9.2018 -2.6846 0.8937
-1.1196 -19.8269 -2.3589 0.9231
1.0234 -19.9525 -2.3732 0.9227
2.4614 -19.9070 -2.3827 0.9224
3.2101 -20.0309 -2.4098 0.9215
4.9123 -20.9160 -2.5521 0.9171
5.6704 -20.7660 -2.5570 0.9169
6.4239 -20.5880 -2.5619 0.9168
7.1718 -20.3823 -2.5666 0.9166
8.6463 -19.8876 -2.5760 0.9164
10.0854 -19.2837 -2.5850 0.9161
10.7890 -18.9414 -2.5894 0.9159
11.4806 -18.5727 -2.5936 0.9158
12.8234 -17.7577 -2.6019 0.9155
13.4725 -17.3122 -2.6058 0.9154
16.4563 -14.7287 -2.6234 0.9149
18.0034 -12.9181 -2.6321 0.9146
18.9192 -11.6158 -2.6371 0.9145
20.4465 -8.8158 -2.6449 0.9142
21.0479 -7.3345 -2.6476 0.9141
21.3062 -6.5774 -2.6487 0.9141
-0.9989 -17.6891 -2.5103 0.9309
-0.3642 -17.7435 -2.5146 0.9308
0.2731 -17.7751 -2.5188 0.9307
0.9122 -17.7837 -2.5231 0.9306
2.8318 -17.6706 -2.5357 0.9303
3.4697 -17.5863 -2.5398 0.9301
4.1050 -17.4788 -2.5439 0.9300
4.7371 -17.3480 -2.5480 0.9299
5.3649 -17.1940 -2.5520 0.9298
7.2144 -16.5940 -2.5638 0.9295
7.8166 -16.3485 -2.5676 0.9294
8.4103 -16.0807 -2.5713 0.9293
8.9945 -15.7909 -2.5749 0.9292
9.5684 -15.4792 -2.5784 0.9291
10.1311 -15.1462 -2.5819 0.9290
11.2197 -14.4175 -2.5885 0.9289
11.7441 -14.0226 -2.5916 0.9288
12.2539 -13.6081 -2.5947 0.9287
12.7486 -13.1745 -2.5976 0.9286
13.6892 -12.2521 -2.6030 0.9285
15.3560 -10.2043 -2.6124 0.9282
15.7241 -9.6541 -2.6143 0.9282
16.0716 -9.0901 -2.6162 0.9281
16.3979 -8.5131 -2.6179 0.9281
16.9850 -7.3234 -2.6208 0.9280
17.2448 -6.7124 -2.6220 0.9280
17.4815 -6.0918 -2.6230 0.9279
17.6948 -5.4625 -2.6239 0.9279
17.8844 -4.8255 -2.6246 0.9279
0.2347 -15.2739 -2.5165 0.9400
1.3332 -15.2617 -2.5238 0.9398
2.4311 -15.1699 -2.5310 0.9396
2.9779 -15.0940 -2.5345 0.9395
3.5225 -14.9983 -2.5380 0.9395
4.6015 -14.7473 -2.5450 0.9393
5.1345 -14.5921 -2.5484 0.9392
6.1837 -14.2233 -2.5550 0.9391
6.6985 -14.0100 -2.5582 0.9390
8.6750 -12.9693 -2.5704 0.9387
9.1449 -12.6638 -2.5733 0.9386
9.6036 -12.3408 -2.5761 0.9386
10.0507 -12.0007 -2.5787 0.9385
10.9067 -11.2712 -2.5838 0.9384
11.3145 -10.8826 -2.5862 0.9383
12.0864 -10.0604 -2.5906 0.9382
12.4494 -9.6279 -2.5927 0.9382
13.4398 -8.2516 -2.5981 0.9381
14.2722 -6.7709 -2.6024 0.9380
14.5124 -6.2573 -2.6035 0.9379
14.7334 -5.7348 -2.6045 0.9379
14.9348 -5.2043 -2.6054 0.9379
15.1163 -4.6665 -2.6062 0.9379
15.2776 -4.1221 -2.6068 0.9379
0.2055 -13.3776 -2.5148 0.9470
1.6479 -13.3282 -2.5243 0.9468
2.1277 -13.2769 -2.5274 0.9467
3.0819 -13.1222 -2.5336 0.9466
4.0245 -12.8982 -2.5396 0.9465
4.9505 -12.6055 -2.5455 0.9464
5.4057 -12.4338 -2.5484 0.9463
5.8548 -12.2453 -2.5512 0.9463
6.2971 -12.0404 -2.5539 0.9462
6.7322 -11.8192 -2.5566 0.9461
7.9871 -11.0605 -2.5643 0.9460
9.8758 -9.4988 -2.5755 0.9458
10.5472 -8.7792 -2.5794 0.9457
10.8629 -8.4009 -2.5811 0.9456
11.4517 -7.6099 -2.5844 0.9456
12.2222 -6.3452 -2.5884 0.9455
12.4475 -5.9052 -2.5896 0.9455
12.6563 -5.4569 -2.5906 0.9454
12.8483 -5.0011 -2.5915 0.9454
13.0234 -4.5382 -2.5922 0.9454
-0.2437 -11.8744 -2.5105 0.9526
0.1827 -11.8889 -2.5134 0.9526
1.4639 -11.8401 -2.5218 0.9524
1.8899 -11.7929 -2.5246 0.9523
2.7366 -11.6523 -2.5301 0.9522
3.5728 -11.4503 -2.5354 0.9521
3.9854 -11.3264 -2.5381 0.9521
4.3937 -11.1875 -2.5407 0.9520
5.9720 -10.4845 -2.5505 0.9519
6.7205 -10.0473 -2.5551 0.9518
7.0827 -9.8081 -2.5573 0.9517
7.4363 -9.5557 -2.5594 0.9517
7.7806 -9.2902 -2.5615 0.9517
8.1152 -9.0120 -2.5635 0.9516
8.4396 -8.7215 -2.5654 0.9516
9.0558 -8.1051 -2.5689 0.9515
9.3468 -7.7800 -2.5706 0.9515
9.6258 -7.4442 -2.5722 0.9515
10.3867 -6.3771 -2.5763 0.9514
11.2102 -4.8335 -2.5805 0.9513
11.3800 -4.4295 -2.5813 0.9513
11.5346 -4.0194 -2.5820 0.9513
11.6740 -3.6038 -2.5825 0.9513
11.7979 -3.1832 -2.5830 0.9513
-0.6014 -10.6508 -2.5072 0.9571
-0.2191 -10.6763 -2.5097 0.9571
0.5481 -10.6862 -2.5148 0.9570
0.9321 -10.6703 -2.5173 0.9569
1.3157 -10.6406 -2.5198 0.9569
1.6983 -10.5970 -2.5223 0.9569
2.4586 -10.4684 -2.5273 0.9568
2.8353 -10.3834 -2.5297 0.9567
3.2091 -10.2847 -2.5321 0.9567
4.6642 -9.7551 -2.5413 0.9565
5.3608 -9.4115 -2.5456 0.9565
5.6997 -9.2207 -2.5477 0.9564
6.3562 -8.8020 -2.5517 0.9564
6.6729 -8.5747 -2.5536 0.9563
6.9813 -8.3358 -2.5554 0.9563
7.2809 -8.0855 -2.5572 0.9563
7.5714 -7.8243 -2.5589 0.9562
8.3835 -6.9782 -2.5636 0.9562
8.6332 -6.6766 -2.5650 0.9561
9.0988 -6.0463 -2.5675 0.9561
10.2027 -3.9713 -2.5731 0.9560
10.3411 -3.6035 -2.5737 0.9560
10.4658 -3.2309 -2.5742 0.9560
-0.5459 -9.6661 -2.5067 0.9608
0.1490 -9.6982 -2.5113 0.9607
1.1935 -9.6524 -2.5182 0.9606
2.2297 -9.4936 -2.5249 0.9605
3.2452 -9.2227 -2.5314 0.9604
4.2277 -8.8422 -2.5376 0.9603
4.5457 -8.6916 -2.5396 0.9603
5.1650 -8.3557 -2.5434 0.9602
5.7591 -7.9752 -2.5470 0.9602
6.5956 -7.3245 -2.5520 0.9601
7.1123 -6.8408 -2.5550 0.9600
7.5927 -6.3199 -2.5578 0.9600
8.2393 -5.4752 -2.5614 0.9599
8.4339 -5.1781 -2.5624 0.9599
8.6175 -4.8740 -2.5634 0.9599
8.7898 -4.5633 -2.5643 0.9599
9.0998 -3.9235 -2.5658 0.9599
9.2370 -3.5954 -2.5664 0.9599
9.4748 -2.9249 -2.5674 0.9599
9.5751 -2.5835 -2.5678 0.9599
-0.4992 -8.8393 -2.5063 0.9639
-0.1818 -8.8590 -2.5085 0.9638
0.4547 -8.8641 -2.5127 0.9638
0.7730 -8.8495 -2.5148 0.9637
1.4080 -8.7857 -2.5189 0.9637
1.7237 -8.7366 -2.5210 0.9637
2.3496 -8.6043 -2.5250 0.9636
2.9651 -8.4267 -2.5289 0.9635
3.5671 -8.2047 -2.5327 0.9635
3.8620 -8.0773 -2.5346 0.9635
4.1523 -7.9392 -2.5364 0.9634
4.4375 -7.7906 -2.5381 0.9634
4.7174 -7.6315 -2.5399 0.9634
5.2593 -7.2830 -2.5431 0.9633
5.5206 -7.0940 -2.5447 0.9633
6.2617 -6.4709 -2.5491 0.9633
6.4932 -6.2454 -2.5505 0.9632
6.9312 -5.7693 -2.5530 0.9632
7.3335 -5.2620 -2.5552 0.9632
7.6979 -4.7262 -2.5572 0.9631
7.8652 -4.4485 -2.5580 0.9631
8.0222 -4.1648 -2.5589 0.9631
8.1689 -3.8754 -2.5596 0.9631
8.3047 -3.5807 -2.5602 0.9631
8.5438 -2.9772 -2.5613 0.9631
8.6465 -2.6692 -2.5617 0.9631
8.7379 -2.3576 -2.5621 0.9631
0.7112 -8.1418 -2.5138 0.9664
2.7268 -7.7494 -2.5268 0.9662
3.0051 -7.6519 -2.5285 0.9662
3.2800 -7.5443 -2.5303 0.9662
3.5509 -7.4267 -2.5320 0.9661
4.5883 -6.8596 -2.5384 0.9661
4.8343 -6.6945 -2.5399 0.9660
5.0743 -6.5205 -2.5413 0.9660
5.3079 -6.3377 -2.5427 0.9660
5.5348 -6.1464 -2.5440 0.9660
5.7546 -5.9469 -2.5453 0.9660
5.9672 -5.7394 -2.5466 0.9659
6.3692 -5.3015 -2.5489 0.9659
7.0727 -4.3424 -2.5527 0.9659
7.5049 -3.5604 -2.5549 0.9658
7.7443 -3.0144 -2.5561 0.9658
7.9432 -2.4521 -2.5569 0.9658
0.1160 -7.5481 -2.5093 0.9687
0.3870 -7.5445 -2.5111 0.9687
0.6579 -7.5311 -2.5129 0.9686
0.9283 -7.5079 -2.5147 0.9686
1.1979 -7.4750 -2.5164 0.9686
1.4664 -7.4324 -2.5182 0.9686
1.9983 -7.3180 -2.5216 0.9685
2.2611 -7.2464 -2.5233 0.9685
2.7785 -7.0748 -2.5266 0.9685
3.0325 -6.9750 -2.5282 0.9684
3.2828 -6.8659 -2.5297 0.9684
3.5291 -6.7478 -2.5313 0.9684
4.2411 -6.3405 -2.5356 0.9684
4.4683 -6.1876 -2.5370 0.9683
4.6898 -6.0265 -2.5383 0.9683
5.1151 -5.6803 -2.5409 0.9683
5.3180 -5.4957 -2.5421 0.9683
6.0596 -4.6862 -2.5463 0.9682
6.3845 -4.2426 -2.5481 0.9682
6.5347 -4.0121 -2.5489 0.9682
6.6763 -3.7761 -2.5496 0.9682
6.8093 -3.5351 -2.5503 0.9682
7.0486 -3.0391 -2.5515 0.9682
7.4154 -2.0008 -2.5530 0.9681
0.1078 -7.0148 -2.5088 0.9706
0.6114 -6.9983 -2.5122 0.9706
2.1005 -6.7318 -2.5218 0.9705
2.3421 -6.6561 -2.5233 0.9705
2.5809 -6.5717 -2.5248 0.9705
2.8167 -6.4787 -2.5263 0.9704
3.0491 -6.3772 -2.5278 0.9704
3.2778 -6.2672 -2.5292 0.9704
3.5024 -6.1489 -2.5306 0.9704
3.7228 -6.0225 -2.5319 0.9704
3.9385 -5.8881 -2.5333 0.9704
4.3549 -5.5961 -2.5358 0.9703
6.1976 -3.5053 -2.5462 0.9702
6.4361 -3.0533 -2.5474 0.9702
6.7304 -2.3454 -2.5488 0.9702
-0.3686 -6.5271 -2.5053 0.9724
1.5021 -6.3955 -2.5176 0.9723
2.4070 -6.1289 -2.5233 0.9722
2.8434 -5.9469 -2.5261 0.9722
3.0565 -5.8441 -2.5274 0.9721
3.4712 -5.6156 -2.5299 0.9721
3.8687 -5.3573 -2.5324 0.9721
4.0602 -5.2174 -2.5335 0.9721
4.2467 -5.0706 -2.5346 0.9721
4.4278 -4.9171 -2.5357 0.9721
4.6032 -4.7570 -2.5367 0.9720
4.7728 -4.5905 -2.5377 0.9720
5.0933 -4.2395 -2.5395 0.9720
5.2439 -4.0554 -2.5404 0.9720
5.5246 -3.6711 -2.5419 0.9720
5.6543 -3.4715 -2.5426 0.9720
5.7766 -3.2672 -2.5433 0.9720
5.8915 -3.0586 -2.5438 0.9720
6.0981 -2.6293 -2.5449 0.9720
6.4149 -1.7308 -2.5462 0.9719
-0.3451 -6.1111 -2.5051 0.9739
0.0942 -6.1272 -2.5080 0.9739
0.5339 -6.1118 -2.5109 0.9738
0.7533 -6.0922 -2.5124 0.9738
0.9719 -6.0646 -2.5138 0.9738
1.1896 -6.0293 -2.5152 0.9738
1.8335 -5.8762 -2.5193 0.9737
2.6607 -5.5650 -2.5245 0.9737
3.6196 -5.0124 -2.5304 0.9736
3.7987 -4.8814 -2.5315 0.9736
3.9731 -4.7439 -2.5325 0.9736
4.3064 -4.4502 -2.5345 0.9736
4.6177 -4.1329 -2.5363 0.9736
4.9053 -3.7935 -2.5379 0.9736
5.2889 -3.2472 -2.5400 0.9735
5.4032 -3.0560 -2.5406 0.9735
5.6108 -2.6618 -2.5417 0.9735
5.7037 -2.4592 -2.5421 0.9735
5.7892 -2.2534 -2.5425 0.9735
5.8670 -2.0445 -2.5428 0.9735
5.9373 -1.8329 -2.5431 0.9735
5.9998 -1.6188 -2.5434 0.9735
0.2949 -5.7495 -2.5090 0.9752
0.5013 -5.7384 -2.5104 0.9752
0.7072 -5.7197 -2.5117 0.9752
1.3198 -5.6195 -2.5157 0.9751
1.5214 -5.5714 -2.5170 0.9751
1.7211 -5.5160 -2.5183 0.9751
2.4974 -5.2232 -2.5232 0.9751
3.3969 -4.7039 -2.5287 0.9750
3.7284 -4.4517 -2.5307 0.9750
3.8871 -4.3167 -2.5316 0.9750
4.0409 -4.1759 -2.5325 0.9750
4.4706 -3.7212 -2.5350 0.9749
4.7286 -3.3929 -2.5364 0.9749
4.9622 -3.0466 -2.5377 0.9749
5.0694 -2.8673 -2.5382 0.9749
5.2641 -2.4973 -2.5392 0.9749
5.3511 -2.3072 -2.5396 0.9749
5.5043 -1.9181 -2.5403 0.9749
5.5702 -1.7195 -2.5406 0.9749
0.2776 -5.4125 -2.5086 0.9764
0.4719 -5.4018 -2.5099 0.9764
0.6657 -5.3841 -2.5112 0.9764
1.6199 -5.1915 -2.5173 0.9763
2.8683 -4.6403 -2.5251 0.9762
3.1962 -4.4261 -2.5271 0.9762
3.3543 -4.3102 -2.5281 0.9762
3.8020 -3.9290 -2.5307 0.9762
3.9418 -3.7912 -2.5315 0.9762
4.0765 -3.6485 -2.5323 0.9762
4.2060 -3.5009 -2.5331 0.9762
4.4486 -3.1920 -2.5344 0.9762
4.7690 -2.6973 -2.5361 0.9761
5.0338 -2.1704 -2.5374 0.9761
5.1091 -1.9887 -2.5378 0.9761
-0.1048 -5.1075 -2.5059 0.9775
0.2620 -5.1068 -2.5083 0.9775
0.4452 -5.0965 -2.5095 0.9775
0.6281 -5.0797 -2.5107 0.9775
1.1719 -4.9898 -2.5142 0.9774
1.3508 -4.9468 -2.5154 0.9774
1.5281 -4.8974 -2.5165 0.9774
1.7036 -4.8415 -2.5176 0.9774
2.2168 -4.6364 -2.5208 0.9774
2.3827 -4.5557 -2.5219 0.9774
2.5456 -4.4691 -2.5229 0.9773
2.7054 -4.3766 -2.5239 0.9773
2.8617 -4.2783 -2.5248 0.9773
3.0145 -4.1744 -2.5257 0.9773
3.1634 -4.0650 -2.5266 0.9773
3.7172 -3.5753 -2.5299 0.9773
4.0832 -3.1578 -2.5320 0.9773
4.1948 -3.0100 -2.5326 0.9773
4.3011 -2.8582 -2.5332 0.9773
4.4969 -2.5434 -2.5342 0.9772
4.5861 -2.3809 -2.5346 0.9772
4.6693 -2.2152 -2.5351 0.9772
4.7464 -2.0465 -2.5354 0.9772
4.8174 -1.8751 -2.5358 0.9772
2.7770 -0.7493 -1.4109 0.9873
0.2477 -4.8280 -2.5080 0.9785
0.4209 -4.8182 -2.5091 0.9784
0.5938 -4.8022 -2.5102 0.9784
0.7660 -4.7799 -2.5114 0.9784
1.2769 -4.6760 -2.5146 0.9784
1.4444 -4.6292 -2.5157 0.9784
1.9359 -4.4527 -2.5188 0.9784
2.0952 -4.3821 -2.5198 0.9784
2.2520 -4.3058 -2.5208 0.9783
2.4059 -4.2238 -2.5217 0.9783
2.5568 -4.1363 -2.5227 0.9783
2.8488 -3.9450 -2.5244 0.9783
2.9896 -3.8416 -2.5253 0.9783
3.3882 -3.5014 -2.5276 0.9783
3.5126 -3.3785 -2.5284 0.9783
3.6326 -3.2512 -2.5291 0.9783
3.7479 -3.1196 -2.5297 0.9783
3.8583 -2.9838 -2.5303 0.9783
4.0642 -2.7007 -2.5315 0.9783
4.3332 -2.2496 -2.5329 0.9782
-0.0939 -4.5736 -2.5055 0.9794
0.0704 -4.5760 -2.5066 0.9793
0.2346 -4.5725 -2.5077 0.9793
0.5623 -4.5478 -2.5098 0.9793
1.0491 -4.4667 -2.5130 0.9793
1.3678 -4.3835 -2.5150 0.9793
1.9838 -4.1491 -2.5189 0.9792
2.1322 -4.0768 -2.5198 0.9792
2.2779 -3.9991 -2.5207 0.9792
2.5606 -3.8281 -2.5224 0.9792
2.6971 -3.7350 -2.5233 0.9792
3.0857 -3.4267 -2.5256 0.9792
3.5479 -2.9531 -2.5282 0.9792
3.6524 -2.8246 -2.5288 0.9792
3.8472 -2.5565 -2.5299 0.9792
4.0221 -2.2749 -2.5308 0.9791
4.1018 -2.1294 -2.5312 0.9791
4.1761 -1.9812 -2.5316 0.9791
4.2451 -1.8303 -2.5319 0.9791
4.3085 -1.6770 -2.5322 0.9791
-0.2445 -4.3307 -2.5043 0.9802
-0.0890 -4.3384 -2.5053 0.9802
0.9950 -4.2364 -2.5124 0.9801
1.2972 -4.1573 -2.5144 0.9801
1.4461 -4.1096 -2.5153 0.9801
1.7383 -3.9983 -2.5171 0.9801
1.8813 -3.9347 -2.5180 0.9801
2.0220 -3.8660 -2.5189 0.9801
2.1601 -3.7923 -2.5198 0.9800
2.6838 -3.4486 -2.5229 0.9800
3.0413 -3.1429 -2.5251 0.9800
3.2605 -2.9182 -2.5263 0.9800
3.4630 -2.6781 -2.5275 0.9800
3.5575 -2.5527 -2.5280 0.9800
3.7329 -2.2918 -2.5289 0.9800
3.8133 -2.1568 -2.5293 0.9800
3.8888 -2.0189 -2.5297 0.9800
4.0246 -1.7353 -2.5304 0.9800
4.1396 -1.4425 -2.5309 0.9800
2.5627 -0.6914 -1.5325 0.9878
