ply
format ascii 1.0
element vertex 609
property float32 x
property float32 y
property float32 z
property float32 I
end_header
-42.1194 18.9265 8.1421 0.8290
-37.6928 15.3431 7.1758 0.8476
-39.7531 12.9575 7.3725 0.8438
-42.4124 12.1659 7.7800 0.8359
-21.8872 -6.5919 4.0305 0.9113
-21.8397 -8.3209 4.1210 0.9094
-20.3836 -8.6123 3.9018 0.9140
-33.8112 -22.0784 7.1203 0.8487
-26.4053 -21.6032 6.0157 0.8706
-22.8303 -21.5773 5.5390 0.8802
-21.2451 -21.5676 5.3381 0.8843
-19.7664 -21.5558 5.1570 0.8880
-5.9072 -7.4464 1.6760 0.9621
-40.7639 20.0980 6.9626 0.8320
-44.1027 12.6508 7.0287 0.8306
-42.1888 10.4856 6.6597 0.8387
-44.5567 7.7457 6.9282 0.8328
-38.3668 -7.1921 5.9800 0.8539
-21.8205 -6.5718 3.4911 0.9119
-21.3198 -8.1228 3.4951 0.9118
-21.1608 -8.9407 3.5192 0.9112
-33.1654 -21.6567 6.0680 0.8519
-26.4053 -21.6031 5.2264 0.8710
-24.5462 -21.5915 5.0081 0.8761
-6.0529 -7.0939 1.4286 0.9630
-42.3621 20.8860 6.1505 0.8265
-44.0198 19.7805 6.2844 0.8231
-42.6477 17.3600 5.9961 0.8305
-44.4609 14.4920 6.0895 0.8281
-44.0372 10.9450 5.9090 0.8327
-45.7824 9.6559 6.0930 0.8280
-38.6886 -8.6942 5.1637 0.8522
-21.7545 -6.5519 2.9586 0.9124
-21.8715 -7.4495 3.0088 0.9110
-21.8857 -8.3384 3.0498 0.9099
-20.9648 -8.8579 2.9637 0.9123
-19.8891 -9.2544 2.8566 0.9153
-12.5039 -7.5418 1.9015 0.9428
-33.1630 -21.6552 5.1577 0.8523
-28.4591 -21.6330 4.6551 0.8657
-26.4052 -21.6031 4.4427 0.8714
-22.8309 -21.5778 4.0908 0.8810
-21.2456 -21.5681 3.9424 0.8850
-19.7672 -21.5567 3.8087 0.8887
-6.0232 -7.0591 1.2084 0.9633
-43.9313 12.6016 4.9077 0.8321
-39.5285 -7.4099 4.3186 0.8506
-22.2192 -6.6919 2.4918 0.9109
-21.7869 -7.4207 2.4715 0.9116
-21.1672 -8.0647 2.4324 0.9129
-42.6275 -21.7203 5.1374 0.8249
-12.5036 -7.5416 1.5680 0.9429
-30.6805 -21.6365 4.0314 0.8598
-26.4052 -21.6031 3.6635 0.8718
-24.5461 -21.5914 3.5104 0.8768
-22.8312 -21.5781 3.3733 0.8813
-19.7676 -21.5571 3.1407 0.8890
-5.8195 -7.3358 1.0055 0.9630
-37.6903 -7.0653 3.2462 0.8573
-20.8607 -8.8139 1.9171 0.9131
-12.5045 -7.5421 1.2362 0.9431
-33.1583 -21.6521 3.3524 0.8530
-30.6799 -21.6360 3.1780 0.8601
-22.8315 -21.5783 2.6594 0.8815
-38.7840 -8.7156 2.4650 0.8527
-20.8373 -8.8040 1.4027 0.9133
-42.6189 -21.7159 2.9661 0.8256
-33.1560 -21.6506 2.4555 0.8533
-30.6793 -21.6356 2.3279 0.8603
-28.4523 -21.6278 2.2162 0.8666
-26.4051 -21.6030 2.1156 0.8722
-22.8317 -21.5786 1.9481 0.8817
-5.7132 -7.2019 0.5700 0.9638
-38.9563 -7.3027 1.5628 0.8533
-38.5869 -8.6713 1.5595 0.8536
-20.5242 -8.6717 0.8786 0.9147
-42.6146 -21.7137 1.8859 0.8258
-12.5060 -7.5430 0.5759 0.9432
-33.1536 -21.6490 1.5613 0.8534
-28.4501 -21.6261 1.4091 0.8667
-26.4051 -21.6030 1.3452 0.8723
-22.8320 -21.5788 1.2388 0.8818
-21.2466 -21.5691 1.1938 0.8859
-19.7688 -21.5584 1.1534 0.8895
-18.3877 -21.5501 1.1170 0.8928
-17.0864 -21.5386 1.0841 0.8958
-39.7021 -7.4425 0.6823 0.8508
-22.3023 -7.5962 0.3980 0.9101
-42.6103 -21.7115 0.8078 0.8259
-39.0463 -21.6869 0.7545 0.8364
-33.1513 -21.6475 0.6688 0.8535
-28.4479 -21.6244 0.6036 0.8668
-26.4051 -21.6030 0.5763 0.8724
-18.3880 -21.5505 0.4785 0.8929
-17.0868 -21.5391 0.4644 0.8958
-15.7719 6.4201 -0.0959 0.9342
-17.7481 6.4954 -0.1064 0.9272
-19.8988 6.4861 -0.1178 0.9197
-22.5749 6.4756 -0.1322 0.9103
-25.9949 6.4609 -0.1508 0.8984
-36.6000 6.3626 -0.2091 0.8619
-22.0546 -7.5119 -0.1312 0.9110
-12.5074 -7.5439 -0.0822 0.9432
-33.1490 -21.6460 -0.2229 0.8535
-28.4456 -21.6227 -0.2012 0.8668
-24.5459 -21.5913 -0.1841 0.8774
-21.2471 -21.5696 -0.1705 0.8859
-18.3884 -21.5509 -0.1595 0.8929
-17.0871 -21.5395 -0.1548 0.8959
-13.2205 6.5182 -0.4150 0.9427
-14.4934 6.5127 -0.4474 0.9384
-17.7482 6.4954 -0.5322 0.9272
-19.8990 6.4861 -0.5893 0.9197
-25.9951 6.4609 -0.7542 0.8984
-46.4296 6.3715 -1.3196 0.8290
-12.5081 -7.5443 -0.4113 0.9432
-33.1466 -21.6445 -1.1147 0.8535
-26.4050 -21.6029 -0.9606 0.8724
-24.5459 -21.5913 -0.9205 0.8774
-19.7699 -21.5596 -0.8237 0.8895
-17.0875 -21.5400 -0.7742 0.8958
-13.2206 6.5183 -0.7475 0.9427
-15.7721 6.4202 -0.8636 0.9341
-19.8992 6.4862 -1.0614 0.9196
-22.5753 6.4758 -1.1911 0.9102
-36.6108 6.3645 -1.8845 0.8617
-43.6616 2.8373 -2.2189 0.8393
-43.7464 1.2755 -2.2195 0.8392
-43.7674 -1.8541 -2.2216 0.8391
-43.7034 -3.4193 -2.2232 0.8390
-43.5895 -4.9830 -2.2250 0.8389
-40.5807 -7.6072 -2.0939 0.8476
-42.2744 -12.7321 -2.2390 0.8379
-40.8901 -17.2766 -2.2512 0.8371
-40.3302 -18.7657 -2.2559 0.8368
-39.1177 -19.9319 -2.2265 0.8388
-33.1443 -21.6430 -2.0075 0.8534
-30.6762 -21.6334 -1.9037 0.8604
-21.2476 -21.5701 -1.5355 0.8858
-19.7703 -21.5600 -1.4835 0.8894
-18.3890 -21.5517 -1.4368 0.8927
-15.7722 6.4202 -1.2486 0.9340
-17.7485 6.4955 -1.3858 0.9270
-19.8993 6.4862 -1.5346 0.9195
-25.9957 6.4610 -1.9640 0.8981
-28.8225 6.0789 -2.1598 0.8886
-29.0146 5.0439 -2.1593 0.8886
-31.0646 4.2630 -2.2991 0.8818
-31.3502 0.9141 -2.2996 0.8818
-31.3719 -0.2069 -2.3003 0.8818
-31.3047 -2.4492 -2.3023 0.8817
-31.0901 -4.6850 -2.3053 0.8815
-29.1851 -12.3311 -2.3231 0.8807
-28.7684 -13.3860 -2.3265 0.8805
-28.3161 -14.4281 -2.3302 0.8803
-27.8287 -15.4565 -2.3341 0.8801
-12.5096 -7.5452 -1.0712 0.9431
-26.7495 -17.4673 -2.3425 0.8797
-26.1586 -18.4474 -2.3470 0.8795
-24.2658 -19.8528 -2.2988 0.8818
-22.0328 -20.8236 -2.2228 0.8855
-19.7707 -21.5605 -2.1449 0.8893
-17.0882 -21.5409 -2.0160 0.8956
-13.2208 6.5184 -1.4151 0.9425
-14.4937 6.5129 -1.5255 0.9381
-15.7723 6.4203 -1.6349 0.9339
-19.8995 6.4863 -2.0094 0.9193
-22.0594 6.3277 -2.2032 0.9119
-24.1893 3.3195 -2.3441 0.9065
-24.3685 -1.9066 -2.3466 0.9064
-24.2961 -2.7774 -2.3477 0.9064
-24.1944 -3.6459 -2.3490 0.9064
-23.9038 -5.3717 -2.3521 0.9062
-22.5091 -5.9107 -2.2342 0.9107
-22.0663 -6.6459 -2.2125 0.9116
-21.5770 -8.2208 -2.2168 0.9114
-21.2924 -8.9963 -2.2191 0.9113
-22.3421 -10.3958 -2.3658 0.9057
-21.5967 -11.9951 -2.3717 0.9055
-12.5103 -7.5456 -1.4026 0.9430
-20.7425 -13.5447 -2.3783 0.9052
-20.2754 -14.2986 -2.3819 0.9051
-19.7823 -15.0374 -2.3856 0.9050
-19.2634 -15.7602 -2.3895 0.9048
-18.7193 -16.4661 -2.3935 0.9047
-18.1504 -17.1543 -2.3976 0.9045
-16.9404 -18.4739 -2.4064 0.9042
-16.3004 -19.1038 -2.4110 0.9040
-15.6377 -19.7125 -2.4157 0.9038
-13.2208 6.5184 -1.7509 0.9424
-14.4938 6.5129 -1.8875 0.9380
-15.7724 6.4203 -2.0228 0.9337
-17.8544 5.8196 -2.2307 0.9271
-19.5501 4.1233 -2.3734 0.9227
-19.6821 3.4215 -2.3730 0.9227
-19.7902 2.7158 -2.3728 0.9227
-19.9820 -0.1318 -2.3736 0.9227
-19.8719 -2.2717 -2.3759 0.9226
-19.7868 -2.9817 -2.3769 0.9226
-19.5445 -4.3921 -2.3795 0.9225
-19.2064 -5.7845 -2.3827 0.9224
-17.6304 -6.7172 -2.2411 0.9268
-12.5111 -7.5461 -1.7355 0.9428
-16.9252 -11.0521 -2.4012 0.9218
-16.5396 -11.6640 -2.4041 0.9217
-15.2565 -13.4201 -2.4136 0.9214
-13.2671 -15.5489 -2.4280 0.9210
-12.7231 -16.0384 -2.4318 0.9208
-13.2209 6.5184 -2.0886 0.9422
-14.4963 6.5140 -2.2518 0.9378
-15.0921 4.9193 -2.2491 0.9379
-16.3954 4.0749 -2.3937 0.9340
-16.6396 2.8926 -2.3930 0.9340
-16.7311 2.2960 -2.3928 0.9340
-16.8023 1.6966 -2.3928 0.9340
-16.8494 -1.3183 -2.3947 0.9340
-16.7969 -1.9202 -2.3954 0.9340
-16.7238 -2.5201 -2.3963 0.9340
-16.6302 -3.1175 -2.3974 0.9339
-16.2272 -4.8873 -2.4012 0.9338
-16.0525 -5.4675 -2.4028 0.9338
-14.6907 -6.2070 -2.2597 0.9376
-14.4710 -6.7334 -2.2615 0.9376
-13.1047 -9.2416 -2.2721 0.9373
-13.6085 -10.3445 -2.4220 0.9333
-13.2450 -10.8362 -2.4247 0.9332
-12.8641 -11.3156 -2.4275 0.9331
-12.4663 -11.7821 -2.4304 0.9330
-12.0522 -12.2352 -2.4334 0.9330
-11.6220 -12.6741 -2.4365 0.9329
-10.7153 -13.5074 -2.4429 0.9327
-12.3373 6.0827 -2.2660 0.9458
-12.7296 5.1817 -2.2642 0.9458
-14.0553 4.0317 -2.4088 0.9424
-14.3022 3.0165 -2.4080 0.9425
-14.3994 2.5032 -2.4077 0.9425
-14.4788 1.9869 -2.4076 0.9425
-14.5404 1.4682 -2.4075 0.9425
-14.6099 0.4260 -2.4078 0.9425
-14.6076 -0.6188 -2.4086 0.9425
-14.5335 -1.6614 -2.4098 0.9424
-14.4696 -2.1804 -2.4106 0.9424
-14.3877 -2.6971 -2.4115 0.9424
-14.1709 -3.7211 -2.4136 0.9423
-14.0361 -4.2273 -2.4149 0.9423
-13.8837 -4.7288 -2.4162 0.9423
-13.5273 -5.7155 -2.4192 0.9422
-12.3050 -6.2699 -2.2751 0.9456
-12.0823 -6.7107 -2.2768 0.9455
-11.5914 -7.5691 -2.2806 0.9454
-11.0412 -8.3929 -2.2848 0.9453
-10.7445 -8.7905 -2.2870 0.9453
-10.4339 -9.1780 -2.2892 0.9452
-10.7653 -10.1745 -2.4402 0.9417
-10.4059 -10.5639 -2.4428 0.9417
-10.0328 -10.9410 -2.4455 0.9416
-9.6462 -11.3053 -2.4482 0.9415
-11.0411 4.9614 -2.2752 0.9519
-12.0966 4.4270 -2.4212 0.9489
-12.4926 3.1049 -2.4196 0.9490
-12.5939 2.6562 -2.4192 0.9490
-12.6796 2.2042 -2.4190 0.9490
-12.7496 1.7496 -2.4189 0.9490
-12.8423 0.8345 -2.4189 0.9490
-12.8649 0.3751 -2.4191 0.9490
-12.8716 -0.0849 -2.4194 0.9490
-12.8374 -1.0044 -2.4203 0.9489
-12.7396 -1.9197 -2.4216 0.9489
-12.6670 -2.3745 -2.4224 0.9489
-12.5787 -2.8267 -2.4233 0.9489
-12.3553 -3.7211 -2.4253 0.9488
-12.2204 -4.1623 -2.4265 0.9488
-12.0702 -4.5987 -2.4278 0.9488
-11.9049 -5.0300 -2.4292 0.9488
-11.7246 -5.4555 -2.4307 0.9487
-11.4425 -5.8304 -2.4138 0.9491
-10.6302 -5.9043 -2.2856 0.9517
-10.4201 -6.2849 -2.2873 0.9517
-9.9598 -7.0238 -2.2907 0.9516
-9.4484 -7.7301 -2.2945 0.9515
-8.8879 -8.4001 -2.2986 0.9514
-8.5901 -8.7205 -2.3008 0.9514
-8.4771 -9.9351 -2.4548 0.9482
-8.1249 -10.2420 -2.4573 0.9482
-10.3028 4.6296 -2.3876 0.9549
-10.6500 4.3352 -2.4306 0.9541
-11.1494 2.7711 -2.4285 0.9541
-11.2400 2.3706 -2.4282 0.9541
-11.4275 1.1539 -2.4278 0.9541
-11.4618 0.7448 -2.4279 0.9541
-11.4877 -0.0758 -2.4283 0.9541
-11.4793 -0.4863 -2.4287 0.9541
-11.3688 -1.7132 -2.4303 0.9541
-11.3036 -2.1189 -2.4310 0.9541
-11.1311 -2.9229 -2.4327 0.9540
-10.9030 -3.7136 -2.4347 0.9540
-10.7684 -4.1028 -2.4358 0.9540
-10.4588 -4.8665 -2.4384 0.9539
-10.0963 -5.6077 -2.4413 0.9539
-9.6612 -5.8271 -2.3849 0.9549
-9.0929 -5.9376 -2.2956 0.9566
-8.8811 -6.2631 -2.2972 0.9565
-8.6579 -6.5812 -2.2988 0.9565
-8.4235 -6.8916 -2.3005 0.9565
-8.1782 -7.1938 -2.3023 0.9564
-7.9223 -7.4875 -2.3042 0.9564
-7.6561 -7.7723 -2.3061 0.9564
-7.3798 -8.0479 -2.3081 0.9563
-7.0937 -8.3138 -2.3101 0.9563
-6.7982 -8.5697 -2.3122 0.9563
-9.3080 4.5892 -2.4390 0.9583
-9.4631 4.2523 -2.4383 0.9583
-9.6063 3.9103 -2.4376 0.9583
-9.7376 3.5637 -2.4370 0.9583
-9.8566 3.2127 -2.4365 0.9583
-10.0576 2.4997 -2.4357 0.9583
-10.2086 1.7747 -2.4352 0.9583
-10.3088 1.0409 -2.4351 0.9583
-10.3577 0.3020 -2.4353 0.9583
-10.3629 -0.0683 -2.4356 0.9583
-10.3345 -0.8086 -2.4363 0.9583
-10.3011 -1.1776 -2.4368 0.9583
-10.0394 -2.6363 -2.4395 0.9582
-9.7111 -3.6999 -2.4424 0.9582
-9.4309 -4.3882 -2.4447 0.9582
-9.2728 -4.7248 -2.4459 0.9581
-9.1030 -5.0559 -2.4473 0.9581
-7.8039 -5.9321 -2.3039 0.9605
-7.5921 -6.2115 -2.3054 0.9605
-7.3705 -6.4834 -2.3070 0.9605
-7.1393 -6.7475 -2.3087 0.9604
-6.8988 -7.0036 -2.3105 0.9604
-6.3910 -7.4901 -2.3141 0.9603
-8.9687 2.9233 -2.4424 0.9618
-9.0660 2.6006 -2.4420 0.9618
-9.1520 2.2746 -2.4417 0.9618
-9.2265 1.9459 -2.4414 0.9618
-9.3408 1.2818 -2.4412 0.9618
-9.3806 0.9472 -2.4412 0.9618
-9.4297 -0.0622 -2.4416 0.9618
-9.3308 -1.4061 -2.4432 0.9618
-9.2768 -1.7390 -2.4438 0.9618
-9.2112 -2.0700 -2.4444 0.9617
-8.7121 -3.6810 -2.4488 0.9617
-8.5787 -3.9917 -2.4499 0.9617
-8.4346 -4.2977 -2.4510 0.9616
-7.9386 -5.1838 -2.4549 0.9616
-7.7528 -5.4673 -2.4563 0.9616
-7.1097 -5.8166 -2.3784 0.9628
-6.7017 -5.8949 -2.3109 0.9638
-6.4910 -6.1347 -2.3125 0.9638
-6.2718 -6.3671 -2.3140 0.9637
-6.0446 -6.5918 -2.3157 0.9637
-5.8093 -6.8085 -2.3173 0.9637
-7.7608 3.8263 -2.4495 0.9647
-8.2196 2.6792 -2.4474 0.9647
-8.3088 2.3834 -2.4470 0.9647
-8.3877 2.0847 -2.4467 0.9647
-8.5975 0.8681 -2.4463 0.9647
-8.6232 0.5604 -2.4463 0.9647
-8.6357 -0.3658 -2.4469 0.9647
-8.6183 -0.6743 -2.4472 0.9647
-8.5901 -0.9820 -2.4476 0.9647
-8.5015 -1.5937 -2.4487 0.9647
-8.4412 -1.8969 -2.4493 0.9647
-8.2890 -2.4964 -2.4507 0.9647
-8.1972 -2.7920 -2.4515 0.9646
-8.0950 -3.0842 -2.4523 0.9646
-7.7278 -3.9376 -2.4553 0.9646
-7.5856 -4.2132 -2.4564 0.9646
-7.1018 -5.0083 -2.4601 0.9645
-6.9219 -5.2618 -2.4615 0.9645
-6.7334 -5.5089 -2.4629 0.9645
-6.1469 -5.8096 -2.3944 0.9654
-5.5353 -6.0364 -2.3185 0.9665
-5.3195 -6.2344 -2.3201 0.9665
-7.3853 3.0062 -2.4525 0.9672
-7.4866 2.7399 -2.4521 0.9672
-7.6609 2.1975 -2.4514 0.9672
-7.7968 1.6444 -2.4509 0.9672
-7.8501 1.3647 -2.4507 0.9672
-7.8936 1.0832 -2.4507 0.9672
-7.9509 0.5167 -2.4507 0.9672
-7.9462 -0.6217 -2.4515 0.9672
-7.8840 -1.1880 -2.4523 0.9672
-7.7824 -1.7489 -2.4534 0.9672
-7.6417 -2.3015 -2.4547 0.9672
-7.4625 -2.8432 -2.4562 0.9671
-7.3587 -3.1091 -2.4571 0.9671
-6.9920 -3.8834 -2.4600 0.9671
-6.8517 -4.1326 -2.4611 0.9671
-6.7028 -4.3769 -2.4622 0.9671
-6.5452 -4.6158 -2.4634 0.9670
-6.3793 -4.8492 -2.4647 0.9670
-6.2052 -5.0767 -2.4659 0.9670
-6.0229 -5.2981 -2.4673 0.9670
-5.6356 -5.7212 -2.4701 0.9670
-5.3197 -5.8014 -2.4210 0.9676
-6.6302 3.2689 -2.4572 0.9693
-6.7413 3.0292 -2.4567 0.9693
-6.8438 2.7858 -2.4562 0.9693
-7.0231 2.2892 -2.4554 0.9693
-7.2255 1.5239 -2.4546 0.9694
-7.2749 1.2647 -2.4545 0.9694
-7.3153 1.0039 -2.4544 0.9694
-7.3684 0.4788 -2.4545 0.9694
-7.3812 0.2152 -2.4546 0.9694
-7.3846 -0.0487 -2.4547 0.9694
-7.3788 -0.3126 -2.4550 0.9693
-7.3638 -0.5761 -2.4553 0.9693
-7.3061 -1.1010 -2.4560 0.9693
-7.1508 -1.8777 -2.4576 0.9693
-7.0022 -2.3850 -2.4589 0.9693
-6.9146 -2.6345 -2.4596 0.9693
-6.8182 -2.8808 -2.4604 0.9693
-6.7133 -3.1237 -2.4613 0.9693
-6.5998 -3.3628 -2.4622 0.9693
-6.4779 -3.5979 -2.4631 0.9692
-6.0634 -4.2760 -2.4663 0.9692
-5.7479 -4.7026 -2.4686 0.9692
-5.2198 -5.2990 -2.4725 0.9691
-4.8333 -5.6646 -2.4752 0.9691
-6.2743 2.8194 -2.4598 0.9712
-6.5368 2.1307 -2.4586 0.9712
-6.7253 1.4184 -2.4579 0.9712
-6.7714 1.1771 -2.4578 0.9712
-6.8379 0.6905 -2.4577 0.9712
-6.8680 -0.2909 -2.4582 0.9712
-6.8001 -1.0247 -2.4592 0.9712
-6.6553 -1.7476 -2.4607 0.9712
-6.4350 -2.4517 -2.4626 0.9712
-6.2474 -2.9069 -2.4641 0.9712
-6.0280 -3.3481 -2.4658 0.9711
-5.6418 -3.9787 -2.4688 0.9711
-5.4984 -4.1796 -2.4699 0.9711
-5.1906 -4.5658 -2.4721 0.9711
-5.0265 -4.7507 -2.4733 0.9710
-4.8560 -4.9297 -2.4745 0.9710
-4.6791 -5.1027 -2.4758 0.9710
-4.4961 -5.2694 -2.4771 0.9710
-4.3072 -5.4296 -2.4784 0.9710
-6.0328 2.2078 -2.4618 0.9729
-6.1070 1.9906 -2.4615 0.9729
-6.2324 1.5490 -2.4610 0.9729
-6.4187 0.1871 -2.4608 0.9729
-6.4216 -0.0423 -2.4609 0.9729
-6.4165 -0.2718 -2.4611 0.9729
-6.3821 -0.7296 -2.4617 0.9729
-6.2705 -1.4091 -2.4629 0.9728
-5.9273 -2.5044 -2.4659 0.9728
-5.8358 -2.7154 -2.4666 0.9728
-5.6307 -3.1273 -2.4682 0.9728
-5.3968 -3.5241 -2.4700 0.9728
-5.2694 -3.7161 -2.4710 0.9728
-4.6942 -4.4366 -2.4752 0.9727
-4.1984 -4.9205 -2.4788 0.9727
-4.0220 -5.0700 -2.4800 0.9727
-5.4032 2.6640 -2.4656 0.9743
-5.6545 2.0694 -2.4644 0.9743
-5.7866 1.6599 -2.4638 0.9743
-5.8418 1.4519 -2.4636 0.9743
-5.9298 1.0308 -2.4633 0.9743
-6.0163 0.1754 -2.4634 0.9743
-6.0019 -0.4696 -2.4640 0.9743
-5.9820 -0.6838 -2.4642 0.9743
-5.9545 -0.8973 -2.4646 0.9743
-5.9196 -1.1097 -2.4649 0.9743
-5.8772 -1.3207 -2.4654 0.9743
-5.8273 -1.5302 -2.4658 0.9743
-5.7701 -1.7378 -2.4664 0.9743
-5.7056 -1.9434 -2.4669 0.9743
-5.2767 -2.9308 -2.4704 0.9742
-5.1704 -3.1185 -2.4712 0.9742
-5.0574 -3.3024 -2.4721 0.9742
-4.9379 -3.4823 -2.4730 0.9742
-4.5422 -3.9955 -2.4759 0.9742
-4.3984 -4.1570 -2.4769 0.9742
-3.9335 -4.6100 -2.4802 0.9741
-3.7680 -4.7499 -2.4814 0.9741
-5.0787 2.5040 -2.4678 0.9756
-5.1640 2.3205 -2.4674 0.9756
-5.3151 1.9452 -2.4666 0.9756
-5.4911 1.3648 -2.4659 0.9756
-5.6288 0.5684 -2.4656 0.9756
-5.6456 0.3669 -2.4656 0.9756
-5.6553 0.1649 -2.4657 0.9756
-5.6579 -0.0373 -2.4659 0.9756
-5.6533 -0.2395 -2.4660 0.9756
-5.6417 -0.4414 -2.4663 0.9756
-5.5970 -0.8434 -2.4668 0.9756
-5.5641 -1.0430 -2.4672 0.9756
-5.4773 -1.4383 -2.4680 0.9756
-5.4235 -1.6334 -2.4685 0.9756
-5.3628 -1.8266 -2.4690 0.9756
-5.2953 -2.0175 -2.4696 0.9756
-5.2211 -2.2060 -2.4702 0.9756
-5.1404 -2.3918 -2.4709 0.9756
-4.9592 -2.7544 -2.4723 0.9756
-4.7529 -3.1036 -2.4739 0.9755
-4.6405 -3.2726 -2.4747 0.9755
-4.5222 -3.4375 -2.4756 0.9755
-4.3981 -3.5983 -2.4765 0.9755
-4.2683 -3.7546 -2.4775 0.9755
-3.8467 -4.1949 -2.4805 0.9755
-4.7855 2.3594 -2.4698 0.9768
-4.8660 2.1866 -2.4694 0.9768
-5.0701 1.6526 -2.4684 0.9768
-5.1744 1.2861 -2.4680 0.9768
-5.2168 1.1003 -2.4679 0.9768
-5.2525 0.9131 -2.4678 0.9768
-5.3042 0.5356 -2.4677 0.9768
-5.3200 0.3457 -2.4678 0.9768
-5.3316 -0.0352 -2.4680 0.9768
-5.3273 -0.2257 -2.4681 0.9768
-5.3162 -0.4159 -2.4683 0.9768
-5.2985 -0.6057 -2.4686 0.9768
-5.2741 -0.7948 -2.4689 0.9768
-5.2430 -0.9829 -2.4692 0.9768
-5.1611 -1.3553 -2.4700 0.9768
-5.0531 -1.7211 -2.4710 0.9767
-4.8433 -2.2536 -2.4727 0.9767
-4.4779 -2.9240 -2.4755 0.9767
-4.2604 -3.2385 -2.4772 0.9767
-4.1434 -3.3899 -2.4780 0.9767
-4.0211 -3.5371 -2.4789 0.9767
-3.7610 -3.8181 -2.4808 0.9767
-4.5953 2.0649 -2.4712 0.9778
-4.7298 1.7310 -2.4706 0.9778
-4.9266 1.0391 -2.4698 0.9778
-4.9605 0.8623 -2.4697 0.9778
-4.9880 0.6845 -2.4697 0.9778
-5.0093 0.5058 -2.4696 0.9778
-5.0038 -0.5720 -2.4705 0.9778
-4.9807 -0.7505 -2.4707 0.9778
-4.9513 -0.9282 -2.4710 0.9778
-4.8739 -1.2798 -2.4718 0.9778
-4.8258 -1.4534 -2.4722 0.9778
-4.7718 -1.6253 -2.4727 0.9778
-4.6455 -1.9628 -2.4738 0.9778
-4.4956 -2.2907 -2.4750 0.9778
-4.3229 -2.6073 -2.4763 0.9778
-4.2281 -2.7609 -2.4770 0.9778
-4.1280 -2.9112 -2.4778 0.9777
-3.5508 -3.6047 -2.4820 0.9777
-3.2868 -3.8521 -2.4839 0.9777
-3.1482 -3.9686 -2.4848 0.9777
-4.2760 2.1082 -2.4732 0.9787
-4.3479 1.9538 -2.4729 0.9787
-4.4144 1.7969 -2.4726 0.9788
-4.4753 1.6378 -2.4723 0.9788
-4.5305 1.4767 -2.4720 0.9788
-4.5800 1.3138 -2.4718 0.9788
-4.6237 1.1492 -2.4717 0.9788
-4.6616 0.9832 -2.4715 0.9788
-4.6114 -1.2109 -2.4734 0.9787
-4.5660 -1.3752 -2.4739 0.9787
-4.5148 -1.5377 -2.4743 0.9787
-4.2533 -2.1672 -2.4764 0.9787
-4.1741 -2.3184 -2.4771 0.9787
-4.0897 -2.4667 -2.4777 0.9787
-4.0001 -2.6120 -2.4784 0.9787
-3.8055 -2.8927 -2.4798 0.9787
-3.7009 -3.0278 -2.4806 0.9787
-3.4774 -3.2866 -2.4822 0.9787
-3.3589 -3.4099 -2.4831 0.9787
-3.2360 -3.5290 -2.4840 0.9787
-3.1090 -3.6437 -2.4849 0.9786
-4.0526 1.9981 -2.4747 0.9796
-4.1209 1.8517 -2.4744 0.9796
-4.1839 1.7031 -2.4741 0.9796
-4.4183 0.9319 -2.4732 0.9796
-4.4486 0.7733 -2.4731 0.9796
-4.4924 0.4536 -2.4730 0.9796
-4.5058 0.2928 -2.4730 0.9796
-4.5118 -0.1911 -2.4734 0.9796
-4.5024 -0.3523 -2.4735 0.9796
-4.4402 -0.8323 -2.4743 0.9796
-4.4082 -0.9906 -2.4746 0.9796
-4.3706 -1.1477 -2.4749 0.9796
-4.2788 -1.4574 -2.4758 0.9796
-3.8757 -2.3377 -2.4790 0.9796
-3.7907 -2.4753 -2.4796 0.9796
-3.7008 -2.6099 -2.4803 0.9796
-3.6062 -2.7413 -2.4810 0.9796
-3.5070 -2.8692 -2.4817 0.9795
-3.0663 -3.3439 -2.4849 0.9795
-2.8216 -3.5569 -2.4867 0.9795
-3.9115 1.7576 -2.4758 0.9804
-3.9713 1.6166 -2.4755 0.9804
-4.0262 1.4735 -2.4753 0.9804
-4.1205 1.1820 -2.4749 0.9804
-4.1939 0.8845 -2.4746 0.9804
-4.2227 0.7341 -2.4746 0.9804
-4.2643 0.4306 -2.4745 0.9804
-4.2843 0.1249 -2.4746 0.9804
-4.2862 -0.0283 -2.4747 0.9804
-4.2827 -0.1814 -2.4748 0.9804
-4.2737 -0.3344 -2.4750 0.9804
-4.2594 -0.4869 -2.4752 0.9804
-4.2397 -0.6389 -2.4754 0.9804
-4.1842 -0.9403 -2.4760 0.9804
-4.1076 -1.2371 -2.4767 0.9804
-4.0614 -1.3833 -2.4771 0.9804
-4.0100 -1.5278 -2.4775 0.9804
-3.7545 -2.0853 -2.4796 0.9804
-3.5124 -2.4770 -2.4814 0.9803
-3.2299 -2.8411 -2.4835 0.9803
-3.0205 -3.0664 -2.4850 0.9803
-2.9099 -3.1733 -2.4858 0.9803
