ply
format ascii 1.0
element vertex 486
property float32 x
property float32 y
property float32 z
property float32 I
end_header
44.3805 -18.2740 8.4629 0.8229
43.6013 -16.1432 8.1981 0.8279
45.7851 -15.1011 8.5009 0.8222
46.2878 -13.4400 8.4989 0.8222
44.1756 -11.1191 8.0323 0.8311
47.8298 -10.2233 8.6242 0.8198
47.9209 -4.9320 8.4944 0.8223
48.0690 -3.2039 8.4947 0.8223
45.9144 3.5640 8.1203 0.8294
47.9748 5.4673 8.5140 0.8219
47.9915 7.2276 8.5576 0.8211
44.8364 8.4131 8.0439 0.8309
46.6974 12.2973 8.5147 0.8219
45.1711 17.2873 8.5282 0.8216
43.9444 20.5552 8.5544 0.8211
46.5180 -9.9430 7.2873 0.8249
46.5485 -6.4916 7.2000 0.8268
46.5638 -4.7924 7.1710 0.8274
46.5791 -3.1046 7.1515 0.8279
46.6258 1.9343 7.1490 0.8279
46.6418 3.6205 7.1668 0.8275
46.6580 5.3172 7.1940 0.8269
46.6914 8.7612 7.2777 0.8251
46.7087 10.5180 7.3347 0.8239
46.7264 12.3049 7.4023 0.8224
46.7447 14.1276 7.4809 0.8207
46.3367 -15.2831 6.3538 0.8213
46.3695 -11.6713 6.2266 0.8246
46.5126 -9.9418 6.1937 0.8254
48.6532 -1.4868 6.3386 0.8217
48.6694 0.2656 6.3379 0.8217
48.6858 2.0198 6.3454 0.8216
48.7022 3.7804 6.3611 0.8212
48.7188 5.5521 6.3853 0.8205
48.7356 7.3396 6.4180 0.8197
46.8335 8.7875 6.2051 0.8251
46.5752 10.4880 6.2169 0.8248
46.5921 12.2696 6.2741 0.8234
46.6094 14.0867 6.3407 0.8217
45.2060 15.4591 6.2215 0.8247
44.7815 -20.3542 5.2821 0.8205
44.8597 -20.3897 4.1713 0.8205
45.1192 15.4294 4.0366 0.8258
44.3763 -20.1700 0.8234 0.8228
44.5356 -2.9685 0.7540 0.8365
44.7054 15.2879 0.7981 0.8278
44.6985 15.2856 -0.2660 0.8278
37.7273 -17.1479 -1.1669 0.8472
37.7369 -13.9720 -1.1331 0.8513
37.7459 -10.9598 -1.1067 0.8545
37.7503 -9.5019 -1.0961 0.8558
37.7587 -6.6593 -1.0796 0.8578
37.7670 -3.8870 -1.0691 0.8591
37.7791 0.2061 -1.0638 0.8597
37.7831 1.5674 -1.0648 0.8596
37.7870 2.9331 -1.0672 0.8593
37.7911 4.3067 -1.0710 0.8588
37.7951 5.6920 -1.0762 0.8582
37.7992 7.0926 -1.0829 0.8574
37.8076 9.9562 -1.1009 0.8552
37.8118 11.4278 -1.1123 0.8538
37.7895 12.9229 -1.1246 0.8523
37.8206 14.4742 -1.1403 0.8504
37.8252 16.0598 -1.1571 0.8484
37.7452 17.6555 -1.1734 0.8464
37.8347 19.3869 -1.1971 0.8436
37.8397 21.1427 -1.2205 0.8408
37.8561 26.8858 -1.3074 0.8304
37.8620 28.9956 -1.3428 0.8263
37.8683 31.2259 -1.3821 0.8217
37.7213 -17.1451 -2.1013 0.8471
37.7357 -12.4463 -2.0151 0.8529
37.7446 -9.5005 -1.9739 0.8557
37.7573 -5.2656 -1.9334 0.8584
37.7614 -3.8864 -1.9252 0.8590
37.7655 -2.5172 -1.9195 0.8593
37.7736 0.2061 -1.9157 0.8596
37.7776 1.5672 -1.9175 0.8595
37.7855 4.3061 -1.9287 0.8587
37.7936 7.0916 -1.9501 0.8573
37.8060 11.4260 -2.0030 0.8537
37.8147 14.4719 -2.0534 0.8503
37.7390 17.6526 -2.1130 0.8463
37.8285 19.3837 -2.1556 0.8435
37.8334 21.1391 -2.1979 0.8407
37.8118 22.9510 -2.2432 0.8376
37.8437 24.8775 -2.2968 0.8341
37.8492 26.8810 -2.3543 0.8303
37.8550 28.9903 -2.4181 0.8262
31.8748 -14.4877 -2.5672 0.8690
32.2910 -13.2961 -2.5605 0.8693
32.8982 -12.1805 -2.5722 0.8688
33.7383 -9.7961 -2.5759 0.8686
34.6408 -6.1094 -2.5791 0.8684
35.1013 -2.3396 -2.5794 0.8684
35.1127 1.4567 -2.5768 0.8685
34.6762 5.2223 -2.5712 0.8688
34.1408 7.6879 -2.5660 0.8690
33.8012 8.9012 -2.5629 0.8692
32.9826 11.2791 -2.5558 0.8695
32.5051 12.4399 -2.5519 0.8697
31.4185 14.6961 -2.5432 0.8701
30.1644 16.8541 -2.5335 0.8706
28.9368 19.0223 -2.5391 0.8703
28.0721 23.1480 -2.6678 0.8642
27.1528 24.0835 -2.6612 0.8645
25.3683 -11.5304 -2.6752 0.8941
25.7867 -10.6179 -2.6773 0.8940
26.1700 -9.6893 -2.6791 0.8939
26.5174 -8.7462 -2.6807 0.8939
27.6977 -3.8627 -2.6848 0.8937
27.9027 -1.8598 -2.6847 0.8937
27.9470 -0.8540 -2.6843 0.8937
27.9524 0.1525 -2.6836 0.8938
27.9190 1.1582 -2.6827 0.8938
27.8469 2.1615 -2.6815 0.8938
27.5870 4.1546 -2.6784 0.8939
27.1751 6.1194 -2.6743 0.8941
26.9130 7.0873 -2.6719 0.8942
25.0643 11.7239 -2.6565 0.8948
22.9833 15.1087 -2.6406 0.8954
22.3869 15.8994 -2.6361 0.8955
21.7619 16.6658 -2.6315 0.8957
21.1095 17.4068 -2.6268 0.8959
20.2348 -9.1971 -2.6402 0.9144
20.8682 -7.7264 -2.6433 0.9143
21.3885 -6.2103 -2.6456 0.9142
21.6051 -5.4381 -2.6464 0.9142
22.1738 -2.2821 -2.6478 0.9141
22.2404 -1.4824 -2.6477 0.9141
22.2819 0.1216 -2.6468 0.9142
22.2569 0.9233 -2.6461 0.9142
22.2013 1.7233 -2.6451 0.9142
20.9755 7.1730 -2.6333 0.9146
20.0207 9.3648 -2.6255 0.9148
19.6487 10.0682 -2.6226 0.9149
18.8280 11.4282 -2.6163 0.9151
17.9097 12.7197 -2.6094 0.9153
17.4158 13.3374 -2.6057 0.9154
16.8999 13.9355 -2.6019 0.9155
17.5637 -5.7930 -2.6204 0.9280
17.7667 -5.1587 -2.6213 0.9280
17.9456 -4.5170 -2.6220 0.9280
18.1003 -3.8688 -2.6225 0.9280
18.2304 -3.2152 -2.6229 0.9279
18.5021 -0.5654 -2.6228 0.9279
18.4874 0.7670 -2.6217 0.9280
18.3724 2.0938 -2.6200 0.9280
18.1579 3.4072 -2.6177 0.9281
18.0138 4.0564 -2.6163 0.9281
17.8455 4.6994 -2.6147 0.9282
17.6533 5.3353 -2.6130 0.9282
17.1983 6.5819 -2.6092 0.9283
16.9363 7.1908 -2.6070 0.9284
16.3455 8.3756 -2.6023 0.9285
15.6692 9.5109 -2.5971 0.9286
15.3002 10.0580 -2.5943 0.9287
14.9115 10.5903 -2.5914 0.9288
14.5037 11.1073 -2.5884 0.9289
14.0775 11.6081 -2.5853 0.9289
14.6015 -6.0123 -2.6014 0.9380
14.8142 -5.4849 -2.6024 0.9380
15.1797 -4.4075 -2.6040 0.9379
15.3320 -3.8591 -2.6046 0.9379
15.4637 -3.3053 -2.6050 0.9379
15.7806 -1.0518 -2.6055 0.9379
15.8068 -0.4830 -2.6052 0.9379
15.8117 0.0863 -2.6048 0.9379
15.6984 1.7890 -2.6029 0.9380
15.5171 2.9116 -2.6009 0.9380
15.0898 4.5606 -2.5969 0.9381
14.9068 5.0977 -2.5954 0.9381
13.4056 8.1370 -2.5834 0.9384
13.0921 8.6064 -2.5811 0.9385
12.7615 9.0634 -2.5786 0.9385
12.4146 9.5074 -2.5760 0.9386
11.6737 10.3541 -2.5706 0.9387
12.5335 -5.6967 -2.5877 0.9455
12.9201 -4.7836 -2.5896 0.9455
13.2379 -3.8437 -2.5910 0.9454
13.5813 -2.3953 -2.5921 0.9454
13.6595 -1.9049 -2.5923 0.9454
13.7195 -1.4120 -2.5923 0.9454
13.7609 -0.9172 -2.5923 0.9454
13.7839 -0.4212 -2.5920 0.9454
13.7884 0.0752 -2.5917 0.9454
13.7744 0.5714 -2.5913 0.9454
13.6216 2.0514 -2.5892 0.9455
13.5342 2.5396 -2.5883 0.9455
13.4286 3.0239 -2.5873 0.9455
13.3052 3.5038 -2.5861 0.9455
13.0054 4.4475 -2.5835 0.9456
12.8295 4.9099 -2.5820 0.9456
12.4273 5.8129 -2.5787 0.9457
10.8413 8.3025 -2.5667 0.9459
10.5259 8.6796 -2.5643 0.9460
10.1971 9.0444 -2.5619 0.9460
11.2811 -4.6451 -2.5788 0.9513
11.4444 -4.2372 -2.5796 0.9513
11.7252 -3.4045 -2.5808 0.9513
11.8422 -2.9807 -2.5813 0.9513
11.9434 -2.5528 -2.5816 0.9513
12.0287 -2.1215 -2.5819 0.9513
12.0979 -1.6872 -2.5820 0.9513
12.2082 -0.3731 -2.5818 0.9513
12.2002 0.5061 -2.5811 0.9513
12.1270 1.3820 -2.5800 0.9513
12.0661 1.8172 -2.5793 0.9513
11.9890 2.2496 -2.5785 0.9514
11.8961 2.6788 -2.5776 0.9514
11.6629 3.5248 -2.5754 0.9514
11.5231 3.9405 -2.5742 0.9514
11.0131 5.1514 -2.5700 0.9515
10.8140 5.5412 -2.5685 0.9515
10.3735 6.2965 -2.5651 0.9516
9.8792 7.0163 -2.5613 0.9517
9.3341 7.6968 -2.5573 0.9517
10.2612 -3.7992 -2.5716 0.9560
10.3937 -3.4281 -2.5722 0.9560
10.7842 -1.9019 -2.5736 0.9560
10.8461 -1.5126 -2.5738 0.9560
10.8937 -1.1212 -2.5738 0.9560
10.9267 -0.7283 -2.5737 0.9560
10.9451 -0.3345 -2.5736 0.9560
10.9382 0.4538 -2.5729 0.9560
10.9129 0.8471 -2.5725 0.9560
10.8187 1.6293 -2.5713 0.9560
10.7500 2.0171 -2.5706 0.9561
10.6670 2.4020 -2.5698 0.9561
10.5699 2.7835 -2.5689 0.9561
10.4588 3.1610 -2.5679 0.9561
10.3339 3.5339 -2.5668 0.9561
10.1954 3.9018 -2.5656 0.9561
9.8783 4.6206 -2.5631 0.9562
9.7002 4.9705 -2.5616 0.9562
9.5096 5.3134 -2.5602 0.9562
9.0912 5.9763 -2.5570 0.9563
8.1164 7.1989 -2.5498 0.9564
9.4102 -3.1037 -2.5656 0.9599
9.5175 -2.7635 -2.5660 0.9599
9.7632 -1.7219 -2.5669 0.9599
3.8487 -0.3961 -1.0018 0.9841
3.8442 -0.2562 -0.9975 0.9842
3.8463 0.0210 -0.9959 0.9842
3.8854 0.3016 -1.0090 0.9840
4.6572 0.5307 -1.2136 0.9808
9.6586 2.1749 -2.5634 0.9599
9.5710 2.5204 -2.5626 0.9599
9.3579 3.2002 -2.5607 0.9600
9.2329 3.5335 -2.5597 0.9600
9.0957 3.8619 -2.5585 0.9600
8.7858 4.5019 -2.5561 0.9600
8.6135 4.8127 -2.5547 0.9601
8.0305 5.7034 -2.5503 0.9601
7.8151 5.9850 -2.5487 0.9601
7.5897 6.2584 -2.5470 0.9602
7.3545 6.5231 -2.5453 0.9602
8.2272 -3.7394 -2.5584 0.9631
8.6859 -2.5220 -2.5605 0.9631
4.8168 -0.8495 -1.3847 0.9799
3.6326 -0.5066 -1.0383 0.9849
3.5617 -0.2374 -1.0105 0.9853
3.5623 -0.1089 -1.0089 0.9853
3.5640 0.0194 -1.0090 0.9853
3.5636 0.1478 -1.0097 0.9853
3.5906 0.2787 -1.0195 0.9851
3.6746 0.4188 -1.0470 0.9847
8.8834 1.6669 -2.5587 0.9631
8.7357 2.3004 -2.5573 0.9631
8.6444 2.6126 -2.5565 0.9632
8.5418 2.9210 -2.5556 0.9632
8.4279 3.2254 -2.5546 0.9632
8.3030 3.5253 -2.5536 0.9632
7.6967 4.6718 -2.5489 0.9633
7.5196 4.9432 -2.5475 0.9633
6.9310 5.7152 -2.5431 0.9633
6.7165 5.9573 -2.5416 0.9634
7.6793 -3.1620 -2.5544 0.9658
7.7897 -2.8841 -2.5549 0.9658
7.8899 -2.6023 -2.5554 0.9658
8.0588 -2.0284 -2.5560 0.9658
8.1273 -1.7372 -2.5563 0.9658
3.4496 -0.6084 -1.0774 0.9854
3.3518 -0.2234 -1.0332 0.9860
3.3540 0.0183 -1.0316 0.9861
3.3532 0.1391 -1.0323 0.9861
8.2132 1.2369 -2.5547 0.9658
8.1616 1.5314 -2.5541 0.9658
8.0992 1.8238 -2.5535 0.9659
7.8485 2.6840 -2.5513 0.9659
7.5051 3.5105 -2.5484 0.9659
7.2269 4.0380 -2.5463 0.9659
7.0735 4.2935 -2.5451 0.9660
6.9110 4.5431 -2.5438 0.9660
6.7396 4.7865 -2.5426 0.9660
6.3709 5.2534 -2.5398 0.9660
6.1741 5.4762 -2.5384 0.9661
6.9835 -3.1741 -2.5499 0.9682
7.1966 -2.6645 -2.5509 0.9682
7.4450 -1.8739 -2.5519 0.9682
3.1799 -0.4435 -1.0672 0.9866
3.1751 -0.3268 -1.0610 0.9866
3.1784 -0.2118 -1.0589 0.9867
3.1791 0.1319 -1.0577 0.9867
7.5879 1.1427 -2.5507 0.9682
7.5403 1.4149 -2.5502 0.9682
7.4829 1.6850 -2.5496 0.9682
7.4155 1.9528 -2.5490 0.9682
7.3384 2.2179 -2.5483 0.9682
7.1554 2.7384 -2.5467 0.9682
6.9350 3.2439 -2.5449 0.9682
6.8111 3.4901 -2.5440 0.9683
6.6783 3.7315 -2.5429 0.9683
6.3869 4.1986 -2.5407 0.9683
6.2287 4.4237 -2.5395 0.9683
6.0625 4.6428 -2.5383 0.9683
5.7069 5.0618 -2.5357 0.9684
6.5858 -2.7118 -2.5470 0.9702
6.7660 -2.2316 -2.5478 0.9702
6.9106 -1.7394 -2.5484 0.9702
6.9694 -1.4897 -2.5486 0.9702
3.0838 -0.5439 -1.1198 0.9868
3.0387 -0.4238 -1.0972 0.9871
3.0444 -0.3133 -1.0945 0.9871
3.0483 -0.2032 -1.0925 0.9871
6.9463 1.5642 -2.5462 0.9702
6.8838 1.8128 -2.5456 0.9702
6.8124 2.0589 -2.5450 0.9702
6.7321 2.3022 -2.5443 0.9702
6.3237 3.2403 -2.5410 0.9703
6.0694 3.6840 -2.5390 0.9703
5.6296 4.3112 -2.5357 0.9703
5.4681 4.5090 -2.5345 0.9703
6.0423 -2.7463 -2.5435 0.9720
6.3062 -2.0799 -2.5447 0.9720
6.3777 -1.8518 -2.5450 0.9720
6.4409 -1.6212 -2.5452 0.9719
2.9808 -0.6371 -1.1681 0.9870
2.9278 -0.1951 -1.1245 0.9875
2.9302 -0.0895 -1.1234 0.9875
2.9234 0.2269 -1.1237 0.9875
2.9434 0.3354 -1.1353 0.9874
2.9816 0.4490 -1.1555 0.9872
6.2751 2.1459 -2.5414 0.9720
6.1921 2.3697 -2.5407 0.9720
6.1010 2.5903 -2.5400 0.9720
6.0019 2.8074 -2.5392 0.9720
5.7803 3.2297 -2.5375 0.9720
5.6582 3.4344 -2.5365 0.9720
5.0983 4.2040 -2.5323 0.9721
4.9414 4.3828 -2.5312 0.9721
5.8237 -2.1562 -2.5416 0.9735
5.9652 -1.7320 -2.5422 0.9735
6.0242 -1.5163 -2.5425 0.9735
2.8454 -0.6082 -1.1909 0.9875
2.8146 -0.1876 -1.1545 0.9879
2.8147 0.1168 -1.1530 0.9879
2.8113 0.2182 -1.1541 0.9879
2.8206 0.3214 -1.1619 0.9878
2.8512 0.4294 -1.1801 0.9876
6.0017 1.5805 -2.5401 0.9735
5.8697 2.0073 -2.5389 0.9735
5.7922 2.2167 -2.5383 0.9736
5.7071 2.4231 -2.5376 0.9736
5.5146 2.8257 -2.5360 0.9736
5.2934 3.2130 -2.5343 0.9736
5.1724 3.4002 -2.5334 0.9736
4.9106 3.7606 -2.5314 0.9736
4.6234 4.1008 -2.5293 0.9736
5.3025 -2.4101 -2.5384 0.9749
5.4638 -2.0229 -2.5392 0.9749
5.6518 -1.4226 -2.5400 0.9749
2.7338 -0.5843 -1.2184 0.9879
2.7227 -0.1815 -1.1892 0.9882
2.7252 -0.0833 -1.1882 0.9882
2.7261 0.2116 -1.1917 0.9881
2.9120 0.5464 -1.2913 0.9872
5.6310 1.4829 -2.5377 0.9749
5.5728 1.6843 -2.5372 0.9749
5.5074 1.8834 -2.5367 0.9749
5.3549 2.2736 -2.5354 0.9749
5.2681 2.4642 -2.5347 0.9749
5.1745 2.6514 -2.5339 0.9749
5.0741 2.8351 -2.5332 0.9750
4.8537 3.1907 -2.5315 0.9750
4.7341 3.3622 -2.5306 0.9750
4.6083 3.5291 -2.5296 0.9750
4.9882 -2.2672 -2.5363 0.9761
5.1399 -1.9030 -2.5370 0.9761
5.2056 -1.7170 -2.5373 0.9761
5.2646 -1.5286 -2.5375 0.9761
2.6600 -0.6695 -1.2697 0.9880
2.6334 -0.5629 -1.2465 0.9882
2.6434 -0.2721 -1.2300 0.9884
2.6476 -0.1765 -1.2282 0.9884
2.6501 -0.0810 -1.2273 0.9884
2.6492 0.0145 -1.2263 0.9884
2.6466 0.1098 -1.2261 0.9884
2.6454 0.2053 -1.2282 0.9884
2.6545 0.4981 -1.2502 0.9882
5.2427 1.5845 -2.5351 0.9761
5.1128 1.9567 -2.5340 0.9762
4.8683 2.4945 -2.5321 0.9762
4.6734 2.8367 -2.5306 0.9762
4.5668 3.0021 -2.5297 0.9762
4.4543 3.1635 -2.5289 0.9762
4.0828 3.6213 -2.5262 0.9762
4.7035 -2.1379 -2.5343 0.9772
4.8465 -1.7944 -2.5350 0.9772
4.9085 -1.6189 -2.5353 0.9772
4.9640 -1.4413 -2.5355 0.9772
2.6299 -0.6620 -1.3303 0.9880
2.6035 -0.2680 -1.2838 0.9884
2.6019 -0.1734 -1.2791 0.9884
2.6008 -0.0795 -1.2763 0.9885
2.6018 0.0142 -1.2763 0.9885
2.6041 0.2021 -1.2812 0.9884
2.6053 0.2969 -1.2862 0.9884
5.0401 1.1349 -2.5342 0.9772
4.9436 1.4941 -2.5333 0.9773
4.8856 1.6707 -2.5328 0.9773
4.7507 2.0170 -2.5316 0.9773
4.6738 2.1862 -2.5310 0.9773
4.4073 2.6751 -2.5289 0.9773
4.3068 2.8312 -2.5282 0.9773
4.0893 3.1317 -2.5265 0.9773
4.4443 -2.0200 -2.5326 0.9782
4.5792 -1.6954 -2.5332 0.9782
4.6378 -1.5297 -2.5335 0.9782
4.6902 -1.3618 -2.5337 0.9782
2.5999 -0.6544 -1.3908 0.9880
2.5785 -0.5511 -1.3679 0.9882
2.5807 -0.2656 -1.3459 0.9884
2.5805 -0.1720 -1.3417 0.9884
2.5802 -0.0788 -1.3392 0.9884
2.5803 0.0141 -1.3387 0.9884
2.5806 0.1071 -1.3399 0.9884
2.5817 0.2942 -1.3480 0.9884
2.5972 0.4873 -1.3709 0.9882
2.7155 0.6115 -1.4440 0.9875
4.7198 1.2429 -2.5320 0.9782
4.6712 1.4118 -2.5316 0.9783
4.6164 1.5787 -2.5311 0.9783
4.5557 1.7435 -2.5306 0.9783
4.1648 2.5279 -2.5275 0.9783
3.9698 2.8194 -2.5260 0.9783
3.7543 3.0958 -2.5244 0.9783
4.2735 -1.7596 -2.5313 0.9791
2.6331 -0.7645 -1.5017 0.9876
2.5698 -0.6468 -1.4514 0.9880
2.5546 -0.5460 -1.4308 0.9882
2.5586 0.1986 -1.4056 0.9884
2.5566 0.2914 -1.4094 0.9883
2.5685 0.4820 -1.4314 0.9882
2.6229 0.5906 -1.4726 0.9878
4.4677 1.1765 -2.5304 0.9792
4.4218 1.3364 -2.5300 0.9792
4.3700 1.4944 -2.5295 0.9792
4.1809 1.9556 -2.5280 0.9792
4.0274 2.2503 -2.5268 0.9792
3.9428 2.3932 -2.5261 0.9792
3.8530 2.5329 -2.5254 0.9792
3.5544 2.9309 -2.5232 0.9792
3.9885 -1.8128 -2.5295 0.9800
4.1620 -1.3727 -2.5303 0.9800
2.5397 -0.6393 -1.5120 0.9880
2.5347 -0.5418 -1.4965 0.9881
2.5367 -0.4474 -1.4872 0.9882
2.5371 -0.1691 -1.4681 0.9883
2.5371 -0.0775 -1.4655 0.9883
2.5372 0.0138 -1.4649 0.9883
2.5367 0.1052 -1.4658 0.9883
2.5376 0.1970 -1.4695 0.9883
2.5363 0.2890 -1.4738 0.9883
2.5339 0.3816 -1.4795 0.9882
2.5398 0.4766 -1.4919 0.9881
4.2358 1.1155 -2.5290 0.9800
4.1923 1.2670 -2.5286 0.9800
4.1433 1.4169 -2.5281 0.9800
4.0291 1.7107 -2.5272 0.9800
3.8187 2.1336 -2.5255 0.9800
3.6534 2.4017 -2.5242 0.9800
3.5636 2.5309 -2.5236 0.9800
3.4693 2.6568 -2.5229 0.9800
3.3704 2.7792 -2.5221 0.9800
3.2672 2.8979 -2.5214 0.9800
