ply
format ascii 1.0
element vertex 225
property float32 x
property float32 y
property float32 z
property float32 I
end_header
30.6299 39.1427 -2.5206 0.8195
29.0636 40.0564 -2.5098 0.8202
11.2917 48.6035 -2.5305 0.8189
9.4687 48.7186 -2.5170 0.8197
7.6530 48.7696 -2.5036 0.8206
26.2016 24.9815 -2.6544 0.8649
25.2103 25.8475 -2.6474 0.8652
23.1403 27.4564 -2.6328 0.8659
20.9660 28.8959 -2.6177 0.8666
19.8443 29.5503 -2.6099 0.8670
17.5412 30.7253 -2.5941 0.8677
13.9653 32.1473 -2.5699 0.8689
12.7485 32.5294 -2.5618 0.8692
11.5223 32.8652 -2.5536 0.8696
2.4222 7.8055 -0.5992 0.9678
6.5590 33.7473 -2.5207 0.8712
4.9887 31.7914 -2.3595 0.8789
19.7277 18.8091 -2.6168 0.8963
18.9937 19.4738 -2.6116 0.8965
17.4579 20.7142 -2.6007 0.8969
16.6585 21.2884 -2.5952 0.8971
15.8399 21.8310 -2.5895 0.8973
14.1501 22.8194 -2.5778 0.8977
9.6821 24.7051 -2.5475 0.8989
2.4214 7.8032 -0.7844 0.9677
6.8882 25.4238 -2.5288 0.8996
4.6961 24.1621 -2.3631 0.9058
3.8064 24.2566 -2.3572 0.9060
15.2236 15.6083 -2.5899 0.9159
14.0041 16.6162 -2.5813 0.9162
13.3686 17.0840 -2.5768 0.9163
12.7171 17.5271 -2.5723 0.9165
7.7983 19.8982 -2.5387 0.9175
7.0570 20.1287 -2.5337 0.9177
4.5060 19.3954 -2.3653 0.9229
12.6910 13.0117 -2.5753 0.9292
12.1935 13.4453 -2.5718 0.9293
11.6808 13.8595 -2.5682 0.9294
10.6135 14.6278 -2.5607 0.9296
10.0604 14.9810 -2.5569 0.9297
8.3332 15.9117 -2.5450 0.9300
7.7378 16.1779 -2.5409 0.9301
7.1339 16.4216 -2.5368 0.9302
4.3681 16.1223 -2.3667 0.9347
3.7737 16.2431 -2.3628 0.9349
2.5822 16.4552 -2.3601 0.9349
10.8387 11.1126 -2.5573 0.9390
9.5318 12.1809 -2.5480 0.9392
9.0988 12.5402 -2.5524 0.9391
8.1438 13.1332 -2.5457 0.9393
6.6408 13.8843 -2.5355 0.9395
6.1239 14.0967 -2.5319 0.9396
3.7532 13.8526 -2.3643 0.9435
9.8556 9.3967 -2.5595 0.9461
9.4985 9.7385 -2.5570 0.9461
8.3570 10.6796 -2.5489 0.9463
7.9550 10.9638 -2.5461 0.9464
7.1224 11.4860 -2.5403 0.9465
6.6929 11.7233 -2.5373 0.9465
6.2556 11.9444 -2.5343 0.9466
5.4569 11.4091 -2.3771 0.9498
5.0331 11.5857 -2.3743 0.9499
2.4185 7.7937 -1.5338 0.9673
3.2886 12.1380 -2.3637 0.9501
2.8436 12.2399 -2.3619 0.9501
2.3948 12.3214 -2.3593 0.9502
1.9437 12.3864 -2.3566 0.9503
8.7416 8.3345 -2.5530 0.9518
8.0992 8.9307 -2.5485 0.9519
7.4158 9.4768 -2.5436 0.9520
6.6954 9.9702 -2.5386 0.9521
6.3226 10.1963 -2.5360 0.9521
5.2163 9.9601 -2.3766 0.9551
4.8461 10.1321 -2.3741 0.9551
4.4703 10.2903 -2.3715 0.9552
4.0894 10.4344 -2.3690 0.9552
2.9228 10.7875 -2.3625 0.9553
2.5267 10.8758 -2.3602 0.9554
2.1281 10.9495 -2.3578 0.9554
1.7275 11.0086 -2.3555 0.9555
7.8462 7.4808 -2.5478 0.9564
7.5634 7.7545 -2.5458 0.9565
7.2709 8.0174 -2.5437 0.9565
6.6587 8.5093 -2.5394 0.9566
6.3399 8.7378 -2.5372 0.9566
6.0131 8.9541 -2.5349 0.9566
4.6862 8.9479 -2.3739 0.9593
2.6421 7.5362 -1.8769 0.9677
2.3783 7.6641 -1.8860 0.9676
1.9131 9.8431 -2.3567 0.9596
1.5531 9.8972 -2.3545 0.9597
6.0359 7.7135 -2.5359 0.9603
5.7474 7.9212 -2.5339 0.9604
5.1196 7.6236 -2.3777 0.9628
3.9489 8.2562 -2.3696 0.9629
3.6434 8.3868 -2.3675 0.9629
2.6273 7.4939 -2.0561 0.9677
2.0605 8.8693 -2.3576 0.9631
1.4093 8.9809 -2.3538 0.9631
6.4938 6.1914 -2.5400 0.9634
5.7705 6.8467 -2.5348 0.9635
5.2509 7.2369 -2.5312 0.9635
4.4184 7.1253 -2.3735 0.9657
3.0472 7.7752 -2.3641 0.9659
2.1785 8.0407 -2.3583 0.9660
5.5342 6.1023 -2.5338 0.9661
5.0703 6.4794 -2.5306 0.9662
4.3016 6.4055 -2.3732 0.9682
3.8201 6.6913 -2.3699 0.9683
2.8033 7.1528 -2.3630 0.9684
1.7333 7.4604 -2.3558 0.9685
1.4603 7.5133 -2.3542 0.9685
1.1858 7.5562 -2.3526 0.9685
5.5181 5.2611 -2.5343 0.9684
5.3205 5.4549 -2.5329 0.9684
5.1160 5.6412 -2.5315 0.9684
4.6876 5.9904 -2.5284 0.9684
4.4643 6.1528 -2.5269 0.9685
3.9774 5.9227 -2.3715 0.9704
3.5326 6.1876 -2.3684 0.9704
3.3034 6.3076 -2.3668 0.9704
3.0702 6.4190 -2.3652 0.9705
2.8332 6.5218 -2.3636 0.9705
2.5928 6.6158 -2.3620 0.9705
2.3493 6.7009 -2.3603 0.9705
1.6035 6.9020 -2.3554 0.9706
1.0970 6.9904 -2.3521 0.9706
5.1246 4.8860 -2.5320 0.9704
4.7516 5.2394 -2.5294 0.9704
4.3541 5.5641 -2.5266 0.9704
4.1468 5.7152 -2.5251 0.9704
3.7838 5.6345 -2.4271 0.9716
3.4904 5.6289 -2.3685 0.9723
3.2818 5.7484 -2.3671 0.9723
2.8525 5.9639 -2.3641 0.9723
2.1830 6.2267 -2.3596 0.9724
1.9543 6.2978 -2.3581 0.9724
1.7233 6.3604 -2.3565 0.9724
1.0196 6.4972 -2.3519 0.9724
4.7783 4.5558 -2.5300 0.9721
4.4308 4.8857 -2.5275 0.9721
3.6693 5.4639 -2.5222 0.9722
2.6608 5.5631 -2.3632 0.9739
2.4556 5.6527 -2.3618 0.9739
2.0366 5.8090 -2.3590 0.9740
1.6078 5.9342 -2.3561 0.9740
1.3905 5.9850 -2.3546 0.9740
1.1716 6.0278 -2.3532 0.9740
4.4710 4.2628 -2.5283 0.9737
3.9755 4.7169 -2.5247 0.9737
3.7997 4.8558 -2.5235 0.9737
3.6192 4.9880 -2.5222 0.9737
3.4339 5.1135 -2.5209 0.9737
2.2986 5.2911 -2.3610 0.9754
2.1038 5.3680 -2.3597 0.9754
1.7069 5.5003 -2.3570 0.9754
1.5052 5.5555 -2.3557 0.9754
1.3018 5.6032 -2.3543 0.9754
4.0463 4.1485 -2.5256 0.9750
3.7313 4.4272 -2.5233 0.9751
3.3971 4.6819 -2.5210 0.9751
3.0455 4.9113 -2.5185 0.9751
2.8637 5.0161 -2.5173 0.9751
2.5999 4.9643 -2.4423 0.9758
2.3440 4.9007 -2.3675 0.9766
1.6026 5.1644 -2.3566 0.9767
1.2224 5.2614 -2.3541 0.9767
1.0300 5.2994 -2.3528 0.9767
3.6619 4.0378 -2.5232 0.9763
3.5114 4.1663 -2.5221 0.9763
3.3564 4.2892 -2.5210 0.9763
3.0336 4.5173 -2.5187 0.9763
2.6954 4.7211 -2.5164 0.9763
2.5210 4.8136 -2.5152 0.9763
2.0911 4.8133 -2.4292 0.9771
1.3305 4.9106 -2.3550 0.9778
1.1508 4.9532 -2.3538 0.9778
0.9697 4.9892 -2.3526 0.9778
0.7875 5.0185 -2.3514 0.9779
3.7240 3.5506 -2.5239 0.9773
3.5913 3.6820 -2.5230 0.9773
2.8616 4.2612 -2.5178 0.9774
2.3783 4.5410 -2.5145 0.9774
2.0406 4.6973 -2.5122 0.9774
1.8628 4.7532 -2.5042 0.9775
1.6593 4.7327 -2.4601 0.9779
1.4636 4.7163 -2.4223 0.9782
1.2768 4.7125 -2.3949 0.9785
1.0943 4.7100 -2.3719 0.9787
0.9172 4.7191 -2.3581 0.9788
3.3942 3.4799 -2.5218 0.9783
3.1304 3.7143 -2.5199 0.9783
2.9923 3.8240 -2.5190 0.9784
2.8504 3.9285 -2.5180 0.9784
2.5558 4.1216 -2.5159 0.9784
2.4035 4.2099 -2.5149 0.9784
2.0899 4.3695 -2.5127 0.9784
1.9291 4.4405 -2.5116 0.9784
1.7658 4.5056 -2.5105 0.9784
1.2638 4.6646 -2.5072 0.9785
0.9114 4.6891 -2.4781 0.9787
0.7361 4.6907 -2.4632 0.9788
3.3322 3.1770 -2.5216 0.9792
3.2136 3.2948 -2.5208 0.9792
3.0908 3.4081 -2.5199 0.9792
2.9640 3.5168 -2.5190 0.9792
2.5612 3.8139 -2.5162 0.9793
2.4201 3.9028 -2.5152 0.9793
2.1289 4.0649 -2.5132 0.9793
1.8268 4.2052 -2.5111 0.9793
1.6723 4.2670 -2.5101 0.9793
1.5156 4.3230 -2.5090 0.9793
0.7087 4.5159 -2.5037 0.9794
3.0474 3.1244 -2.5198 0.9800
2.9310 3.2319 -2.5190 0.9800
2.4290 3.6170 -2.5155 0.9801
2.2953 3.7014 -2.5145 0.9801
2.1586 3.7809 -2.5136 0.9801
2.0191 3.8553 -2.5126 0.9801
1.8771 3.9245 -2.5117 0.9801
1.2873 4.1483 -2.5077 0.9801
1.1354 4.1906 -2.5067 0.9801
0.9821 4.2273 -2.5056 0.9802
0.8277 4.2584 -2.5046 0.9802
0.6723 4.2839 -2.5036 0.9802
