ply
format ascii 1.0
element vertex 625
property float32 x
property float32 y
property float32 z
property float32 I
end_header
2.7484 32.6988 5.7860 0.8752
-0.7051 31.1895 5.5010 0.8810
-1.9607 33.7145 5.9548 0.8718
-2.6879 28.6407 5.0723 0.8897
-5.1521 31.0272 5.5459 0.8801
-5.8879 29.0405 5.2248 0.8866
-7.0187 25.2610 4.6229 0.8990
-8.0157 25.3286 4.6844 0.8977
-9.0468 25.4146 4.7567 0.8962
-12.3802 25.7313 5.0349 0.8905
-41.2189 19.8151 8.0642 0.8305
-37.4966 14.8524 7.1115 0.8489
-0.7544 33.3706 5.1135 0.8737
-1.9466 33.4726 5.1365 0.8731
-4.5644 27.4880 4.2687 0.8934
-5.7535 28.3775 4.4357 0.8894
-6.8615 24.6956 3.9265 0.9015
-9.8561 24.8589 4.0966 0.8974
-13.2235 25.1582 4.3540 0.8914
-14.4540 25.2787 4.4609 0.8888
-15.3699 21.2640 4.0194 0.8993
-16.5290 21.2378 4.1227 0.8968
-41.8323 18.3123 6.9956 0.8313
-37.5712 14.8819 6.1908 0.8491
2.7495 32.7120 4.2748 0.8760
0.4637 35.9950 4.6877 0.8648
-1.6691 28.7006 3.7437 0.8905
-3.5545 27.3878 3.5964 0.8946
-4.6400 27.9430 3.6886 0.8920
-5.8489 28.8481 3.8331 0.8880
-7.6567 24.1944 3.3046 0.9027
-11.7425 24.4059 3.5269 0.8965
-12.8767 24.4984 3.6040 0.8944
-14.0658 24.5999 3.6901 0.8920
-14.3996 23.2302 3.5591 0.8956
-16.5584 21.2755 3.5107 0.8970
-42.8312 18.7497 6.0885 0.8281
-42.5837 16.8674 5.9645 0.8313
-45.9425 16.3370 6.3497 0.8214
2.7492 32.7076 3.5246 0.8763
-0.7602 33.6246 3.6116 0.8734
-2.6342 28.0676 3.0272 0.8928
-3.6661 28.2478 3.0587 0.8917
-5.7577 28.3981 3.1115 0.8900
-6.4615 23.2557 2.5918 0.9075
-7.3623 23.2641 2.6202 0.9065
-8.4397 23.7092 2.7024 0.9037
-9.4148 23.7460 2.7430 0.9023
-12.5537 23.8840 2.8974 0.8971
-13.7001 23.9603 2.9638 0.8949
-14.2429 21.2543 2.7474 0.9022
-15.3707 21.2652 2.8175 0.8998
-16.5588 21.2761 2.8951 0.8972
-17.5621 20.9845 2.9384 0.8958
-36.9017 26.6546 4.8882 0.8327
-37.1847 24.9003 4.8055 0.8352
-46.0057 16.3595 5.2432 0.8217
-0.7928 35.0661 2.9692 0.8687
-3.0087 32.0585 2.7258 0.8787
-6.2018 25.8432 2.2498 0.8988
-6.5545 23.5905 2.0726 0.9064
-7.4683 23.5990 2.0954 0.9054
-9.3635 23.6166 2.1506 0.9030
-10.3515 23.6257 2.1835 0.9016
-11.3717 23.6352 2.2203 0.9001
-15.3463 21.2314 2.2176 0.9002
-36.0760 30.1723 3.9812 0.8280
-35.9790 27.9830 3.8585 0.8328
-35.9027 25.9330 3.7492 0.8371
-42.8796 24.4992 4.1806 0.8202
2.7484 32.6987 2.0348 0.8768
-1.8532 31.8660 1.9794 0.8799
-3.0411 32.4040 2.0182 0.8777
-3.9143 30.1596 1.8859 0.8853
-7.4143 36.5691 2.3138 0.8611
-6.2055 25.8588 1.6490 0.8989
-6.5546 23.5909 1.5183 0.9065
-8.1212 22.8143 1.5017 0.9075
-9.1129 22.9845 1.5332 0.9057
-13.3111 23.2799 1.6629 0.8981
-13.6675 22.0490 1.6086 0.9013
-14.2435 21.2553 1.5866 0.9025
-15.3466 21.2318 1.6245 0.9003
-20.1128 22.3692 1.8654 0.8864
-35.5345 29.7193 2.8726 0.8306
-35.5542 27.6525 2.7931 0.8348
-38.5349 23.8690 2.8108 0.8339
2.7480 32.6943 1.2937 0.8769
-6.5547 23.5912 0.9655 0.9066
-6.7517 21.3346 0.8824 0.9143
-7.9473 20.0447 0.8502 0.9173
-9.6518 20.0605 0.8778 0.9147
-10.8449 20.6329 0.9191 0.9109
-12.8704 20.7632 0.9632 0.9068
-14.2438 21.2557 1.0089 0.9026
-15.3469 21.2321 1.0330 0.9004
-18.9270 22.6153 1.1628 0.8886
-20.3905 22.6781 1.2025 0.8851
-30.5981 27.4934 1.6220 0.8482
-35.7897 23.9662 1.6984 0.8416
-36.8484 22.8244 1.7091 0.8407
-40.3025 23.0267 1.8303 0.8304
0.0836 6.4849 0.1096 0.9744
-0.1466 6.4839 0.1096 0.9744
-6.2130 25.8899 0.4497 0.8990
-6.5548 23.5916 0.4136 0.9067
-8.3086 23.3410 0.4185 0.9056
-13.1014 22.9132 0.4459 0.8998
-13.1640 21.2368 0.4221 0.9049
-15.3722 21.2672 0.4433 0.9003
-20.3659 22.6507 0.5145 0.8853
-21.8816 22.6648 0.5322 0.8816
-23.4207 22.5965 0.5497 0.8779
-31.5016 22.7540 0.6564 0.8560
-10.3817 6.9520 0.2110 0.9512
-41.8327 23.9010 0.8138 0.8247
-43.1439 22.6589 0.8232 0.8229
0.0836 6.4849 -0.0365 0.9744
-0.6162 6.5657 -0.0371 0.9740
-0.8520 6.5646 -0.0373 0.9739
-1.3305 6.5626 -0.0377 0.9736
-1.8227 6.5604 -0.0383 0.9731
-2.8724 6.5558 -0.0403 0.9718
-3.4445 6.5533 -0.0417 0.9708
-3.7463 6.5520 -0.0425 0.9703
-4.0605 6.5507 -0.0434 0.9696
-4.3887 6.5492 -0.0444 0.9690
-4.7327 6.5477 -0.0455 0.9682
-5.0947 6.5462 -0.0467 0.9674
-5.4022 6.4550 -0.0474 0.9669
-6.3090 6.5349 -0.0511 0.9643
-7.2681 6.5307 -0.0550 0.9617
-9.0306 6.5230 -0.0627 0.9564
-9.7364 6.5199 -0.0660 0.9542
-10.4067 6.4461 -0.0689 0.9522
-12.4165 6.5211 -0.0790 0.9454
-14.8722 6.5104 -0.0914 0.9371
-16.2100 6.4208 -0.0981 0.9326
0.0836 6.4849 -0.1826 0.9744
-0.3819 6.5667 -0.1852 0.9740
-1.0899 6.5636 -0.1873 0.9737
-1.5746 6.5615 -0.1900 0.9734
-1.8227 6.5604 -0.1917 0.9731
-2.8724 6.5559 -0.2015 0.9718
-3.1536 6.5546 -0.2048 0.9713
-4.0605 6.5507 -0.2170 0.9696
-4.3887 6.5492 -0.2220 0.9689
-5.4022 6.4551 -0.2370 0.9669
-7.2681 6.5307 -0.2751 0.9617
-8.3904 6.5258 -0.2993 0.9584
-9.7364 6.5200 -0.3299 0.9542
-10.4067 6.4461 -0.3447 0.9522
-11.4212 6.5255 -0.3704 0.9487
-14.8722 6.5105 -0.4571 0.9371
-16.2101 6.4209 -0.4909 0.9326
-18.2578 6.4925 -0.5456 0.9254
2.7400 32.5987 -1.6590 0.8772
2.3646 48.8489 -2.4802 0.8221
-0.1466 6.4840 -0.3289 0.9744
-1.0899 6.5636 -0.3374 0.9737
-1.3305 6.5626 -0.3396 0.9735
-1.5746 6.5615 -0.3422 0.9733
-1.8227 6.5604 -0.3453 0.9731
-2.0758 6.5593 -0.3489 0.9728
-2.3345 6.5582 -0.3530 0.9725
-3.1536 6.5546 -0.3689 0.9713
-3.4445 6.5534 -0.3755 0.9708
-3.7463 6.5521 -0.3828 0.9702
-4.0605 6.5507 -0.3909 0.9696
-4.7328 6.5478 -0.4097 0.9682
-5.4022 6.4551 -0.4269 0.9668
-7.8057 6.5284 -0.5161 0.9601
-8.3905 6.5259 -0.5391 0.9583
-10.4068 6.4462 -0.6208 0.9522
-13.5548 6.5163 -0.7627 0.9415
-14.8723 6.5105 -0.8233 0.9370
-18.2579 6.4925 -0.9827 0.9253
3.8190 31.8482 -2.3519 0.8793
1.5495 32.0104 -2.3498 0.8794
-0.1466 6.4840 -0.4755 0.9743
-0.3819 6.5667 -0.4823 0.9740
-0.6162 6.5657 -0.4835 0.9739
-0.8520 6.5647 -0.4854 0.9738
-1.0899 6.5637 -0.4878 0.9737
-1.8227 6.5605 -0.4992 0.9731
-2.3345 6.5582 -0.5104 0.9725
-2.5997 6.5571 -0.5172 0.9721
-2.8724 6.5559 -0.5248 0.9717
-3.1536 6.5547 -0.5333 0.9712
-3.4445 6.5534 -0.5428 0.9707
-3.7463 6.5521 -0.5534 0.9702
-6.3090 6.5349 -0.6660 0.9642
-7.2682 6.5308 -0.7164 0.9616
-8.3905 6.5259 -0.7794 0.9583
-9.7365 6.5200 -0.8592 0.9541
-11.4212 6.5256 -0.9645 0.9486
-12.4167 6.5212 -1.0283 0.9453
-13.5549 6.5163 -1.1027 0.9415
-14.8724 6.5106 -1.1904 0.9370
2.9194 24.3462 -2.3541 0.9062
-0.1466 6.4840 -0.6226 0.9743
-0.6162 6.5657 -0.6331 0.9738
-1.0899 6.5637 -0.6388 0.9736
-1.3305 6.5626 -0.6429 0.9735
-1.8227 6.5605 -0.6537 0.9730
-2.0758 6.5594 -0.6605 0.9727
-3.4445 6.5534 -0.7108 0.9707
-4.0605 6.5507 -0.7399 0.9695
-5.4023 6.4551 -0.8081 0.9667
-5.8774 6.5368 -0.8439 0.9653
-6.3091 6.5350 -0.8721 0.9642
-7.2682 6.5308 -0.9381 0.9615
-9.7365 6.5201 -1.1250 0.9540
-11.4213 6.5256 -1.2629 0.9485
-12.4168 6.5213 -1.3465 0.9452
-13.5550 6.5163 -1.4439 0.9414
0.0836 6.4850 -0.7704 0.9742
-0.1466 6.4840 -0.7704 0.9742
-0.3819 6.5668 -0.7813 0.9739
-0.6162 6.5657 -0.7833 0.9738
-1.0899 6.5637 -0.7903 0.9736
-1.3305 6.5626 -0.7954 0.9734
-1.5746 6.5616 -0.8015 0.9732
-1.8228 6.5605 -0.8088 0.9729
-2.3345 6.5583 -0.8269 0.9723
-2.5997 6.5571 -0.8379 0.9720
-2.8724 6.5559 -0.8502 0.9716
-3.1536 6.5547 -0.8640 0.9711
-3.7463 6.5521 -0.8965 0.9701
-4.3888 6.5493 -0.9365 0.9687
-5.4023 6.4551 -0.9999 0.9667
-5.8774 6.5369 -1.0442 0.9652
-6.3091 6.5350 -1.0790 0.9641
-7.8058 6.5285 -1.2088 0.9598
-8.3906 6.5259 -1.2627 0.9581
-9.7366 6.5201 -1.3919 0.9539
-11.4214 6.5256 -1.5625 0.9484
-13.5551 6.5164 -1.7865 0.9412
-14.8726 6.5106 -1.9285 0.9367
-17.6968 6.2929 -2.2311 0.9271
1.9802 16.5135 -2.3566 0.9350
0.8017 16.5619 -2.3494 0.9352
-0.6162 6.5658 -0.9344 0.9737
-1.0899 6.5637 -0.9427 0.9735
-1.8228 6.5605 -0.9648 0.9729
-2.0758 6.5594 -0.9748 0.9726
-2.3345 6.5583 -0.9863 0.9723
-2.8724 6.5559 -1.0141 0.9715
-3.1537 6.5547 -1.0306 0.9710
-3.4445 6.5535 -1.0490 0.9705
-3.7463 6.5521 -1.0694 0.9700
-4.0605 6.5508 -1.0920 0.9693
-4.3888 6.5493 -1.1170 0.9687
-6.7712 6.5330 -1.3331 0.9627
-7.2682 6.5308 -1.3845 0.9613
-11.4214 6.5257 -1.8638 0.9482
-12.4169 6.5213 -1.9872 0.9449
-13.5552 6.5164 -2.1310 0.9410
-14.5556 6.3718 -2.2513 0.9378
-14.7660 5.8488 -2.2503 0.9379
-14.9584 5.3192 -2.2495 0.9379
1.7021 14.1943 -2.3551 0.9437
1.1959 14.2280 -2.3522 0.9438
0.6894 14.2410 -2.3488 0.9438
0.0836 6.4850 -1.0684 0.9741
-0.8520 6.5648 -1.0905 0.9735
-1.3305 6.5627 -1.1031 0.9732
-1.8228 6.5605 -1.1217 0.9728
-2.0758 6.5594 -1.1334 0.9725
-2.5997 6.5571 -1.1620 0.9718
-3.1537 6.5547 -1.1983 0.9709
-4.0606 6.5508 -1.2697 0.9692
-4.3888 6.5494 -1.2988 0.9685
-4.7328 6.5479 -1.3310 0.9678
-5.0948 6.5463 -1.3665 0.9669
-5.4023 6.4552 -1.3867 0.9665
-6.3091 6.5350 -1.4964 0.9638
-6.7712 6.5330 -1.5500 0.9626
-7.2683 6.5309 -1.6097 0.9612
-8.3906 6.5260 -1.7511 0.9578
-9.0309 6.5232 -1.8353 0.9558
-9.7366 6.5201 -1.9304 0.9536
-10.4070 6.4463 -2.0167 0.9516
-11.4215 6.5257 -2.1670 0.9481
-12.1812 6.3975 -2.2666 0.9457
-12.3947 5.9585 -2.2656 0.9458
-12.7757 5.0605 -2.2638 0.9458
-13.0239 4.6313 -2.2772 0.9455
-0.1466 6.4840 -1.2190 0.9739
-0.6162 6.5658 -1.2395 0.9735
-0.8520 6.5648 -1.2443 0.9734
-1.0899 6.5637 -1.2506 0.9733
-1.3305 6.5627 -1.2586 0.9731
-1.5746 6.5616 -1.2683 0.9729
-2.3345 6.5583 -1.3085 0.9721
-2.8724 6.5560 -1.3453 0.9713
-3.4446 6.5535 -1.3916 0.9703
-3.7464 6.5522 -1.4186 0.9697
-4.0606 6.5508 -1.4486 0.9691
-4.3888 6.5494 -1.4819 0.9684
-5.4023 6.4552 -1.5822 0.9663
-5.8775 6.5369 -1.6523 0.9649
-6.3092 6.5350 -1.7074 0.9637
-7.2683 6.5309 -1.8366 0.9610
-8.3907 6.5260 -1.9980 0.9577
-9.0309 6.5232 -2.0940 0.9557
-9.7367 6.5202 -2.2026 0.9534
-10.5214 6.0114 -2.2776 0.9519
-10.7233 5.6318 -2.2766 0.9519
-11.6756 4.6247 -2.3605 0.9502
-12.1351 4.3152 -2.4208 0.9489
0.9314 11.0815 -2.3507 0.9556
0.5371 11.0950 -2.3480 0.9556
-0.1466 6.4841 -1.3709 0.9738
-0.6162 6.5658 -1.3940 0.9734
-1.8228 6.5606 -1.4393 0.9725
-2.0758 6.5595 -1.4543 0.9723
-2.3345 6.5583 -1.4715 0.9719
-2.5997 6.5572 -1.4910 0.9716
-2.8724 6.5560 -1.5130 0.9712
-3.1537 6.5548 -1.5376 0.9707
-4.3888 6.5494 -1.6665 0.9683
-4.7329 6.5479 -1.7078 0.9675
-5.4024 6.4552 -1.7793 0.9662
-7.8059 6.5286 -2.1510 0.9592
-8.9920 6.0214 -2.2875 0.9567
-9.1956 5.6959 -2.2864 0.9567
-9.3878 5.3637 -2.2854 0.9568
-9.5683 5.0252 -2.2845 0.9568
-9.7369 4.6808 -2.2837 0.9568
-10.5352 4.6119 -2.4310 0.9541
-10.6890 4.2339 -2.4302 0.9541
-10.8297 3.8510 -2.4296 0.9541
1.1917 9.9383 -2.3525 0.9597
0.4830 9.9776 -2.3477 0.9598
-0.1466 6.4841 -1.5243 0.9737
-0.6162 6.5658 -1.5499 0.9733
-1.0899 6.5638 -1.5637 0.9730
-1.3305 6.5627 -1.5738 0.9729
-1.8228 6.5606 -1.6003 0.9724
-2.8725 6.5560 -1.6822 0.9710
-3.4446 6.5535 -1.7400 0.9700
-4.3888 6.5494 -1.8529 0.9681
-6.3092 6.5351 -2.1349 0.9634
-7.7109 5.9972 -2.2958 0.9607
-8.1091 5.4302 -2.2937 0.9607
-8.2931 5.1368 -2.2927 0.9607
-8.4667 4.8375 -2.2918 0.9607
-9.3519 4.4957 -2.4387 0.9583
0.7601 9.0431 -2.3497 0.9632
-0.1466 6.4841 -1.6793 0.9736
-0.3819 6.5669 -1.7031 0.9732
-0.6162 6.5658 -1.7075 0.9731
-0.8520 6.5648 -1.7140 0.9730
-1.5746 6.5617 -1.7471 0.9725
-1.8228 6.5606 -1.7630 0.9723
-2.5997 6.5572 -1.8263 0.9713
-2.8725 6.5560 -1.8532 0.9709
-3.7464 6.5522 -1.9542 0.9693
-4.0606 6.5509 -1.9955 0.9687
-4.3888 6.5494 -2.0413 0.9679
-5.0949 6.5464 -2.1478 0.9663
-5.4024 6.4553 -2.1795 0.9658
-6.6161 5.9447 -2.3029 0.9639
-7.2000 5.2007 -2.2997 0.9640
-7.3770 4.9399 -2.2987 0.9640
-7.5486 4.6757 -2.2990 0.9640
-8.6462 3.7849 -2.4438 0.9618
-8.8887 3.1608 -2.4426 0.9618
0.4009 8.2821 -2.3474 0.9661
-0.1466 6.4841 -1.8361 0.9734
-0.3819 6.5669 -1.8622 0.9730
-1.0899 6.5638 -1.8836 0.9727
-2.5998 6.5572 -1.9969 0.9711
-2.8725 6.5560 -2.0263 0.9707
-3.4446 6.5536 -2.0959 0.9697
-4.0606 6.5509 -2.1819 0.9685
-4.3888 6.5495 -2.2319 0.9678
-4.7889 6.6254 -2.3143 0.9666
-5.0180 6.4475 -2.3129 0.9666
-5.8671 5.6607 -2.3080 0.9667
-6.0614 5.4464 -2.3069 0.9667
-6.2479 5.2255 -2.3058 0.9667
-6.4266 4.9984 -2.3048 0.9667
-7.3618 4.5600 -2.4515 0.9646
-7.5165 4.2945 -2.4507 0.9647
-7.6618 4.0239 -2.4499 0.9647
-7.7976 3.7485 -2.4493 0.9647
-8.0399 3.1846 -2.4481 0.9647
0.9100 7.5885 -2.3508 0.9685
-0.3819 6.5669 -2.0232 0.9728
-1.0899 6.5638 -2.0465 0.9725
-2.0758 6.5595 -2.1162 0.9716
-2.5998 6.5573 -2.1696 0.9709
-2.8725 6.5561 -2.2015 0.9705
-3.1537 6.5548 -2.2373 0.9700
-3.7457 6.5509 -2.3210 0.9689
-4.1959 6.2615 -2.3183 0.9689
-4.4130 6.1053 -2.3171 0.9690
-4.8297 5.7709 -2.3146 0.9690
-5.5870 5.0201 -2.3102 0.9691
-5.7590 4.8167 -2.3093 0.9691
-6.4319 4.6459 -2.4404 0.9673
-6.6355 4.4434 -2.4563 0.9671
-6.9295 3.9592 -2.4547 0.9672
-7.4127 2.9362 -2.4523 0.9672
0.5919 7.0413 -2.3488 0.9707
-0.1466 6.4841 -2.1559 0.9730
-0.3770 6.4831 -2.1586 0.9730
-0.6162 6.5659 -2.1921 0.9726
-0.8520 6.5649 -2.2005 0.9725
-1.0899 6.5638 -2.2117 0.9723
-1.5746 6.5617 -2.2431 0.9720
-2.5819 6.5121 -2.3286 0.9709
-2.8096 6.4126 -2.3272 0.9709
-3.2535 6.1900 -2.3245 0.9710
-3.8865 5.7997 -2.3207 0.9710
-4.0877 5.6552 -2.3195 0.9710
-4.6587 5.1814 -2.3161 0.9711
-4.8374 5.0106 -2.3151 0.9711
-5.0100 4.8337 -2.3141 0.9711
-5.8449 4.5459 -2.4613 0.9693
-6.1484 4.1172 -2.4597 0.9693
-6.4211 3.6687 -2.4582 0.9693
-6.5455 3.4377 -2.4576 0.9693
0.5501 6.5451 -2.3488 0.9725
0.0845 6.5592 -2.3458 0.9725
-0.1482 6.5538 -2.3443 0.9725
-0.6118 6.5186 -2.3413 0.9726
-0.8421 6.4887 -2.3399 0.9726
-1.2986 6.4047 -2.3370 0.9726
-1.5240 6.3507 -2.3355 0.9726
-1.9682 6.2193 -2.3328 0.9727
-2.1863 6.1420 -2.3314 0.9727
-2.4015 6.0571 -2.3301 0.9727
-2.8219 5.8650 -2.3275 0.9727
-3.0266 5.7581 -2.3263 0.9727
-3.2272 5.6442 -2.3250 0.9728
-3.4237 5.5233 -2.3239 0.9728
-3.8031 5.2615 -2.3216 0.9728
-3.9855 5.1209 -2.3205 0.9728
-4.1628 4.9740 -2.3195 0.9728
-4.5216 4.6834 -2.3280 0.9727
-4.8340 4.6639 -2.4021 0.9719
-5.4392 4.2304 -2.4642 0.9712
-5.5841 4.0335 -2.4634 0.9712
-5.8526 3.6252 -2.4619 0.9712
-5.9760 3.4144 -2.4613 0.9712
-6.0919 3.1994 -2.4607 0.9712
-6.3008 2.7582 -2.4596 0.9712
-6.3936 2.5325 -2.4592 0.9712
-6.4784 2.3037 -2.4588 0.9712
0.0789 6.1215 -2.3461 0.9741
-0.3550 6.1044 -2.3433 0.9741
-0.7861 6.0568 -2.3405 0.9742
-0.9999 6.0216 -2.3392 0.9742
-1.4227 5.9287 -2.3365 0.9742
-1.6313 5.8712 -2.3352 0.9742
-1.8375 5.8065 -2.3339 0.9742
-2.0413 5.7345 -2.3326 0.9743
-2.4402 5.5694 -2.3302 0.9743
-2.6350 5.4766 -2.3290 0.9743
-3.1973 5.1580 -2.3256 0.9743
-3.5518 4.9138 -2.3235 0.9744
-3.9181 4.6817 -2.3395 0.9742
-4.9391 4.1308 -2.4675 0.9728
-5.0809 3.9517 -2.4667 0.9728
-5.3452 3.5794 -2.4652 0.9728
-5.7924 2.7846 -2.4629 0.9728
-5.8864 2.5768 -2.4625 0.9728
0.4807 5.7191 -2.3490 0.9755
0.0738 5.7324 -2.3463 0.9755
-0.1295 5.7282 -2.3450 0.9755
-0.9365 5.6398 -2.3399 0.9756
-1.1354 5.6001 -2.3386 0.9756
-1.3327 5.5533 -2.3374 0.9756
-1.7213 5.4392 -2.3349 0.9756
-1.9122 5.3719 -2.3337 0.9757
-2.1006 5.2981 -2.3326 0.9757
-2.2861 5.2176 -2.3314 0.9757
-2.6478 5.0376 -2.3292 0.9757
-2.9955 4.8328 -2.3271 0.9757
-3.1639 4.7214 -2.3261 0.9757
-3.8795 4.6355 -2.4740 0.9742
-4.1954 4.3455 -2.4721 0.9742
-4.3454 4.1925 -2.4713 0.9742
-4.4899 4.0343 -2.4704 0.9742
-4.6287 3.8713 -2.4697 0.9743
-4.7618 3.7035 -2.4689 0.9743
-5.1242 3.1740 -2.4670 0.9743
-5.4290 2.6099 -2.4654 0.9743
-5.5986 2.2176 -2.4646 0.9743
0.4514 5.3710 -2.3490 0.9768
0.2604 5.3808 -2.3478 0.9768
0.0694 5.3838 -2.3465 0.9768
-0.5023 5.3523 -2.3429 0.9768
-1.0665 5.2606 -2.3393 0.9769
-1.2519 5.2168 -2.3381 0.9769
-1.4355 5.1666 -2.3370 0.9769
-1.7965 5.0469 -2.3347 0.9769
-2.4879 4.7334 -2.3305 0.9769
-2.6804 4.6876 -2.3533 0.9767
-2.8996 4.6777 -2.3985 0.9763
-3.3302 4.6072 -2.4775 0.9755
-3.4902 4.4845 -2.4766 0.9755
-3.6458 4.3562 -2.4757 0.9755
-3.7967 4.2226 -2.4748 0.9755
-3.9428 4.0839 -2.4739 0.9755
-4.0838 3.9401 -2.4731 0.9755
-4.3503 3.6384 -2.4716 0.9756
-4.4754 3.4808 -2.4709 0.9756
-4.5948 3.3189 -2.4703 0.9756
-4.7085 3.1530 -2.4697 0.9756
-4.8163 2.9833 -2.4691 0.9756
-5.3324 1.8962 -2.4665 0.9756
0.4251 5.0570 -2.3491 0.9779
0.2453 5.0664 -2.3479 0.9779
0.0653 5.0694 -2.3467 0.9779
-0.1146 5.0660 -2.3456 0.9779
-0.2940 5.0563 -2.3444 0.9779
-0.6512 5.0178 -2.3421 0.9779
-0.8284 4.9891 -2.3410 0.9780
-1.5231 4.8128 -2.3367 0.9780
-1.8643 4.7022 -2.3414 0.9780
-2.0544 4.6889 -2.3696 0.9777
-2.2522 4.6811 -2.4045 0.9774
-2.4559 4.6725 -2.4434 0.9770
-2.8237 4.5553 -2.4808 0.9767
-2.9824 4.4506 -2.4799 0.9767
-3.1372 4.3403 -2.4790 0.9767
-3.4347 4.1040 -2.4772 0.9767
-3.7146 3.8476 -2.4756 0.9767
-3.8477 3.7122 -2.4748 0.9767
-4.0988 3.4281 -2.4734 0.9767
-4.2168 3.2796 -2.4727 0.9767
-4.7243 2.4811 -2.4700 0.9768
-4.8085 2.3116 -2.4696 0.9768
-4.8867 2.1392 -2.4692 0.9768
0.5704 4.7572 -2.3502 0.9789
0.4011 4.7722 -2.3491 0.9789
0.2314 4.7812 -2.3480 0.9789
-0.1081 4.7811 -2.3458 0.9789
-0.4464 4.7570 -2.3436 0.9789
-0.6146 4.7360 -2.3426 0.9789
-0.7826 4.7131 -2.3436 0.9789
-0.9532 4.7015 -2.3531 0.9789
-1.6656 4.6792 -2.4363 0.9781
-1.8526 4.6725 -2.4656 0.9779
-2.1963 4.5649 -2.4849 0.9777
-2.3560 4.4823 -2.4839 0.9777
-2.5126 4.3943 -2.4830 0.9777
-2.8158 4.2019 -2.4811 0.9777
-2.9621 4.0979 -2.4803 0.9777
-3.2430 3.8750 -2.4786 0.9777
-3.3774 3.7563 -2.4778 0.9777
-3.5075 3.6330 -2.4771 0.9778
-3.6331 3.5053 -2.4764 0.9778
-3.8704 3.2370 -2.4750 0.9778
-3.9818 3.0969 -2.4744 0.9778
-4.0882 2.9530 -2.4738 0.9778
-4.2855 2.6545 -2.4727 0.9778
-4.3761 2.5003 -2.4723 0.9778
-4.4613 2.3431 -2.4718 0.9778
-4.5409 2.1829 -2.4714 0.9778
-4.6148 2.0202 -2.4711 0.9778
-4.6830 1.8549 -2.4707 0.9778
-4.7453 1.6874 -2.4705 0.9778
0.5626 4.6917 -2.4514 0.9789
0.3944 4.6921 -2.4428 0.9790
-0.2727 4.6887 -2.4365 0.9791
-0.6079 4.6839 -2.4503 0.9789
-0.7772 4.6807 -2.4615 0.9788
-1.1208 4.6705 -2.4918 0.9786
-1.2853 4.6259 -2.4907 0.9786
-1.6088 4.5194 -2.4887 0.9786
-1.7674 4.4578 -2.4877 0.9786
-2.0775 4.3179 -2.4858 0.9786
-2.2286 4.2399 -2.4849 0.9786
-2.6637 3.9749 -2.4823 0.9787
-2.9369 3.7735 -2.4807 0.9787
-3.1951 3.5536 -2.4791 0.9787
-3.5517 3.1913 -2.4771 0.9787
-3.7672 2.9300 -2.4759 0.9787
-3.9638 2.6543 -2.4748 0.9787
-4.0547 2.5115 -2.4743 0.9787
-4.1405 2.3657 -2.4739 0.9787
-4.2211 2.2169 -2.4735 0.9787
0.3826 4.5513 -2.5016 0.9794
-0.4259 4.5379 -2.4963 0.9794
-0.5864 4.5181 -2.4953 0.9794
-0.9046 4.4615 -2.4933 0.9795
-1.2177 4.3827 -2.4913 0.9795
-1.3719 4.3350 -2.4904 0.9795
-2.6553 3.6735 -2.4826 0.9795
-2.7831 3.5759 -2.4818 0.9795
-2.9073 3.4739 -2.4811 0.9796
-3.0279 3.3676 -2.4804 0.9796
-3.1446 3.2572 -2.4797 0.9796
-3.2573 3.1427 -2.4790 0.9796
-3.6658 2.6478 -2.4768 0.9796
-3.9242 2.2421 -2.4754 0.9796
-4.1384 1.8116 -2.4743 0.9796
-4.1996 1.6635 -2.4740 0.9796
0.0558 4.3291 -2.4996 0.9802
-0.0978 4.3266 -2.4986 0.9802
-0.4041 4.3054 -2.4966 0.9802
-0.5564 4.2867 -2.4957 0.9802
-0.7078 4.2626 -2.4947 0.9802
-0.8583 4.2332 -2.4938 0.9802
-1.5891 4.0079 -2.4892 0.9803
-1.7296 3.9476 -2.4883 0.9803
-1.8680 3.8825 -2.4875 0.9803
-2.0039 3.8125 -2.4867 0.9803
-2.1372 3.7378 -2.4859 0.9803
-2.2677 3.6584 -2.4851 0.9803
-2.5199 3.4863 -2.4836 0.9803
-2.7592 3.2969 -2.4821 0.9803
-2.8737 3.1961 -2.4815 0.9803
-2.9845 3.0913 -2.4808 0.9803
-3.2938 2.7548 -2.4791 0.9804
-3.3887 2.6356 -2.4786 0.9804
-3.5657 2.3877 -2.4776 0.9804
-3.6475 2.2593 -2.4771 0.9804
-3.7248 2.1281 -2.4767 0.9804
-3.9282 1.7196 -2.4757 0.9804
