ply
format ascii 1.0
element vertex 575
property float32 x
property float32 y
property float32 z
property float32 I
end_header
44.5613 -20.5424 8.6521 0.8193
43.7507 -18.2768 8.3605 0.8248
45.7043 -15.3097 8.4990 0.8222
44.1141 -11.2987 8.0296 0.8311
47.0601 -10.2516 8.4926 0.8223
45.4890 -1.5138 8.0254 0.8312
48.1212 1.8884 8.4916 0.8223
46.8892 3.5453 8.2914 0.8261
47.9766 5.3820 8.5126 0.8219
32.1665 -24.4241 6.1873 0.8492
44.8748 -20.6870 7.5699 0.8188
46.5148 -10.1328 7.2929 0.8248
46.5464 -6.6544 7.2032 0.8267
46.5622 -4.9427 7.1732 0.8274
46.5781 -3.2429 7.1528 0.8278
46.5941 -1.5506 7.1419 0.8281
46.6102 0.1388 7.1404 0.8281
46.6264 1.8297 7.1484 0.8279
46.6429 3.5267 7.1658 0.8275
31.5512 -37.1637 6.3483 0.8215
31.4895 -32.0619 5.8520 0.8342
31.4620 -29.7932 5.6425 0.8396
31.4366 -27.6787 5.4543 0.8445
31.4127 -25.6982 5.2850 0.8490
32.1668 -24.4243 5.2595 0.8497
38.5775 -25.1062 5.9938 0.8306
46.3315 -15.5198 6.3628 0.8211
46.3487 -13.6787 6.2929 0.8229
46.3655 -11.8754 6.2326 0.8244
46.7752 -8.4264 6.1892 0.8255
48.6020 -6.9483 6.3933 0.8203
48.6188 -5.1610 6.3668 0.8210
48.6356 -3.3862 6.3487 0.8215
48.6693 0.1449 6.3378 0.8217
48.6862 1.9106 6.3448 0.8216
31.5438 -37.1549 5.2337 0.8219
31.4826 -32.0549 4.8246 0.8346
31.4554 -29.7869 4.6519 0.8401
31.4065 -25.6932 4.3572 0.8494
32.1671 -24.4245 4.3371 0.8500
35.1633 -24.7433 4.6170 0.8412
38.5779 -25.1065 4.9426 0.8310
44.7743 -20.6407 5.2942 0.8201
31.5048 -34.4933 3.9546 0.8290
31.4758 -32.0479 3.8026 0.8350
31.4488 -29.7807 3.6665 0.8404
31.4004 -25.6881 3.4343 0.8497
42.5166 -25.5257 4.1980 0.8195
44.8524 -20.6767 4.1809 0.8202
31.4977 -34.4856 2.8962 0.8293
31.4423 -29.7745 2.6852 0.8407
31.4175 -27.6619 2.5957 0.8456
32.1677 -24.4250 2.5046 0.8506
35.1640 -24.7437 2.6663 0.8417
38.5787 -25.1070 2.8543 0.8315
42.5170 -25.5260 3.0752 0.8198
44.8451 -20.6733 3.0621 0.8204
31.5216 -37.1287 1.9204 0.8229
31.4907 -34.4779 1.8412 0.8295
31.4622 -32.0341 1.7705 0.8355
31.3881 -25.6781 1.5991 0.8502
32.1680 -24.4252 1.5926 0.8507
35.1643 -24.7440 1.6954 0.8419
38.5791 -25.1073 1.8150 0.8317
42.5175 -25.5263 1.9555 0.8199
44.8377 -20.6699 1.9468 0.8207
31.5142 -37.1201 0.8225 0.8230
31.4836 -34.4701 0.7886 0.8296
31.4048 -27.6508 0.7068 0.8459
31.3820 -25.6731 0.6849 0.8503
32.1683 -24.4254 0.6823 0.8508
35.1647 -24.7442 0.7263 0.8420
42.5179 -25.5266 0.8377 0.8200
44.3687 -20.4537 0.8253 0.8225
31.5069 -37.1114 -0.2741 0.8231
31.4486 -32.0203 -0.2527 0.8357
32.1686 -24.4256 -0.2274 0.8508
35.1650 -24.7444 -0.2421 0.8420
38.5799 -25.1078 -0.2592 0.8318
42.5184 -25.5269 -0.2792 0.8201
17.1531 -43.2342 -1.3097 0.8302
18.5955 -42.3271 -1.3018 0.8311
31.4419 -32.0134 -1.2635 0.8356
31.3699 -25.6632 -1.1412 0.8503
35.1653 -24.7447 -1.2108 0.8419
37.7274 -15.7606 -1.1513 0.8491
37.7325 -14.1798 -1.1350 0.8510
37.7376 -12.6410 -1.1206 0.8528
37.7610 -5.3985 -1.0741 0.8584
37.7744 -1.2571 -1.0642 0.8596
37.7832 1.4827 -1.0647 0.8596
37.7875 2.8571 -1.0671 0.8593
18.5458 -42.2139 -2.3383 0.8314
31.4922 -37.0941 -2.4678 0.8229
31.4351 -32.0065 -2.2751 0.8355
31.4097 -29.7436 -2.1938 0.8409
31.3860 -27.6342 -2.1208 0.8458
31.3637 -25.6582 -2.0550 0.8502
32.1691 -24.4260 -2.0484 0.8506
35.1657 -24.7449 -2.1807 0.8418
38.5807 -25.1083 -2.3345 0.8316
37.7265 -14.1775 -2.0439 0.8509
37.7316 -12.6391 -2.0180 0.8527
37.7414 -9.6666 -1.9758 0.8555
37.7195 -8.2169 -1.9578 0.8567
37.7554 -5.3977 -1.9342 0.8583
37.7599 -4.0083 -1.9257 0.8589
37.7688 -1.2569 -1.9165 0.8595
37.7732 0.1125 -1.9156 0.8596
37.7776 1.4825 -1.9173 0.8595
37.7819 2.8567 -1.9215 0.8592
37.7863 4.2388 -1.9283 0.8587
8.0928 -34.1444 -2.5729 0.8687
9.3546 -33.9371 -2.5811 0.8683
10.6118 -33.6823 -2.5893 0.8679
11.8624 -33.3800 -2.5975 0.8676
13.1047 -33.0302 -2.6055 0.8672
14.3367 -32.6330 -2.6134 0.8668
15.5562 -32.1883 -2.6213 0.8664
16.7617 -31.6966 -2.6290 0.8661
17.9510 -31.1582 -2.6366 0.8657
19.1222 -30.5735 -2.6441 0.8653
24.6385 -26.9757 -2.6788 0.8637
25.6604 -26.1268 -2.6851 0.8634
26.6507 -25.2362 -2.6912 0.8631
27.6078 -24.3076 -2.6971 0.8628
28.5298 -23.3398 -2.7027 0.8626
29.4150 -22.3347 -2.7080 0.8623
29.5145 -20.7684 -2.6461 0.8652
29.8946 -17.9478 -2.5566 0.8695
31.8017 -14.6603 -2.5676 0.8690
34.0835 -8.7296 -2.5797 0.8684
34.3968 -7.4931 -2.5812 0.8683
34.8750 -4.9859 -2.5831 0.8682
35.0390 -3.7195 -2.5836 0.8682
35.1523 -2.4475 -2.5837 0.8682
34.9574 3.9215 -2.5792 0.8684
8.9792 -25.2667 -2.5743 0.8979
10.8357 -24.6642 -2.5863 0.8974
13.5382 -23.4987 -2.6036 0.8968
14.4115 -23.0417 -2.6092 0.8965
15.2687 -22.5511 -2.6146 0.8963
16.1083 -22.0276 -2.6199 0.8961
16.9292 -21.4715 -2.6250 0.8959
18.5090 -20.2648 -2.6349 0.8956
20.7044 -18.2295 -2.6484 0.8951
21.3847 -17.4945 -2.6525 0.8949
22.0373 -16.7329 -2.6565 0.8948
22.6610 -15.9457 -2.6602 0.8946
23.2546 -15.1341 -2.6637 0.8945
23.8173 -14.2992 -2.6670 0.8944
24.3479 -13.4423 -2.6701 0.8943
26.1320 -9.8203 -2.6801 0.8939
26.4894 -8.8732 -2.6820 0.8938
27.5450 -4.9624 -2.6870 0.8936
27.8421 -2.9555 -2.6880 0.8936
27.9319 -1.9447 -2.6881 0.8936
27.9930 0.0833 -2.6875 0.8936
27.9644 1.0974 -2.6868 0.8936
5.7055 -20.6988 -2.5504 0.9171
6.4643 -20.5180 -2.5553 0.9170
7.2174 -20.3089 -2.5602 0.9168
7.9635 -20.0718 -2.5650 0.9167
8.7017 -19.8066 -2.5698 0.9165
9.4308 -19.5138 -2.5745 0.9164
10.1498 -19.1934 -2.5791 0.9163
12.2352 -18.0708 -2.5923 0.9158
13.5550 -17.1921 -2.6006 0.9156
16.5485 -14.5703 -2.6191 0.9150
17.0869 -13.9785 -2.6223 0.9149
17.6031 -13.3660 -2.6255 0.9148
18.5653 -12.0823 -2.6312 0.9146
19.0097 -11.4129 -2.6338 0.9146
19.8215 -10.0239 -2.6385 0.9144
20.5260 -8.5747 -2.6424 0.9143
20.8365 -7.8303 -2.6441 0.9142
21.1185 -7.0741 -2.6456 0.9142
21.3713 -6.3073 -2.6469 0.9142
21.5947 -5.5310 -2.6480 0.9141
22.0846 -3.1573 -2.6500 0.9141
22.2582 -1.5497 -2.6504 0.9140
22.2337 1.6811 -2.6486 0.9141
22.1503 2.4848 -2.6476 0.9141
5.4009 -17.1427 -2.5466 0.9300
7.2634 -16.5330 -2.5587 0.9296
7.8697 -16.2836 -2.5625 0.9295
8.4672 -16.0116 -2.5664 0.9294
9.6323 -15.4006 -2.5738 0.9292
10.1982 -15.0623 -2.5773 0.9291
10.7518 -14.7027 -2.5808 0.9291
11.2923 -14.3222 -2.5842 0.9290
12.3307 -13.5004 -2.5907 0.9288
13.7697 -12.1237 -2.5995 0.9286
14.6412 -11.1171 -2.6047 0.9284
15.0485 -10.5891 -2.6072 0.9284
16.1486 -8.9155 -2.6136 0.9282
16.4726 -8.3303 -2.6155 0.9281
16.7746 -7.7330 -2.6172 0.9281
17.0539 -7.1242 -2.6187 0.9281
17.3100 -6.5050 -2.6201 0.9280
18.3399 -2.6219 -2.6250 0.9279
18.4244 -1.9558 -2.6252 0.9279
18.4836 -1.2869 -2.6253 0.9279
18.5173 -0.6162 -2.6252 0.9279
18.5082 0.7263 -2.6244 0.9279
18.4654 1.3962 -2.6238 0.9279
3.5465 -14.9630 -2.5333 0.9396
4.0921 -14.8454 -2.5368 0.9395
5.1708 -14.5501 -2.5438 0.9393
7.2565 -13.7222 -2.5572 0.9390
8.7347 -12.9008 -2.5666 0.9388
9.6681 -12.2622 -2.5724 0.9387
10.1171 -11.9167 -2.5752 0.9386
10.9762 -11.1757 -2.5805 0.9385
11.3850 -10.7811 -2.5830 0.9384
11.7791 -10.3711 -2.5854 0.9384
12.5210 -9.5072 -2.5899 0.9383
13.5092 -8.1105 -2.5958 0.9381
13.8032 -7.6206 -2.5975 0.9381
14.3355 -6.6086 -2.6005 0.9380
14.9883 -5.0207 -2.6040 0.9379
15.3224 -3.9244 -2.6057 0.9379
15.4582 -3.3674 -2.6063 0.9379
15.7746 1.1927 -2.6061 0.9379
15.7171 1.7631 -2.6055 0.9379
4.5227 -12.7264 -2.5386 0.9465
5.4452 -12.3944 -2.5446 0.9464
5.8975 -12.2028 -2.5475 0.9463
6.7807 -11.7695 -2.5531 0.9462
7.6314 -11.2712 -2.5585 0.9461
8.4445 -10.7102 -2.5636 0.9460
8.8354 -10.4070 -2.5660 0.9460
9.2151 -10.0893 -2.5684 0.9459
9.9389 -9.4117 -2.5728 0.9458
10.9269 -8.2968 -2.5788 0.9457
11.2281 -7.9009 -2.5806 0.9457
11.5146 -7.4937 -2.5823 0.9456
11.7859 -7.0759 -2.5839 0.9456
12.0414 -6.6479 -2.5853 0.9456
12.5039 -5.7642 -2.5879 0.9455
12.7102 -5.3097 -2.5891 0.9455
13.2251 -3.9031 -2.5918 0.9454
13.6603 -1.9529 -2.5937 0.9454
13.7922 -0.4590 -2.5938 0.9454
13.7987 0.0411 -2.5936 0.9454
13.7553 1.0400 -2.5928 0.9454
3.1795 -11.5348 -2.5292 0.9523
4.0152 -11.2983 -2.5346 0.9522
4.4266 -11.1571 -2.5372 0.9521
4.8329 -11.0006 -2.5398 0.9521
5.2337 -10.8292 -2.5424 0.9520
6.3964 -10.2269 -2.5498 0.9519
7.4886 -9.4979 -2.5566 0.9518
8.4958 -8.6502 -2.5629 0.9516
8.8103 -8.3429 -2.5648 0.9516
9.1134 -8.0240 -2.5666 0.9516
9.6835 -7.3527 -2.5701 0.9515
9.9497 -7.0013 -2.5717 0.9515
10.4424 -6.2693 -2.5746 0.9514
10.8796 -5.5019 -2.5771 0.9514
11.0766 -5.1062 -2.5782 0.9514
11.2587 -4.7033 -2.5792 0.9513
11.5774 -3.8781 -2.5809 0.9513
11.8337 -3.0309 -2.5822 0.9513
12.0261 -2.1666 -2.5830 0.9513
12.2147 -0.4065 -2.5834 0.9513
12.2098 0.4791 -2.5829 0.9513
12.1826 0.9211 -2.5825 0.9513
2.8566 -10.3632 -2.5264 0.9568
4.3402 -9.8791 -2.5360 0.9566
4.6996 -9.7242 -2.5383 0.9566
5.7420 -9.1806 -2.5449 0.9565
6.7206 -8.5238 -2.5511 0.9564
7.0303 -8.2809 -2.5530 0.9563
7.6225 -7.7611 -2.5567 0.9563
8.1754 -7.1981 -2.5600 0.9562
8.4361 -6.9014 -2.5616 0.9562
8.9239 -6.2795 -2.5645 0.9562
9.1504 -5.9551 -2.5659 0.9561
9.5666 -5.2817 -2.5683 0.9561
9.7559 -4.9336 -2.5694 0.9561
9.9321 -4.5786 -2.5703 0.9561
10.0950 -4.2172 -2.5712 0.9560
10.2443 -3.8498 -2.5721 0.9560
10.7025 -2.3315 -2.5743 0.9560
10.8952 -1.1566 -2.5750 0.9560
10.9301 -0.7610 -2.5750 0.9560
10.9556 0.0326 -2.5748 0.9560
10.9461 0.4295 -2.5746 0.9560
2.2464 -9.4778 -2.5220 0.9606
2.5907 -9.3985 -2.5242 0.9605
2.9321 -9.3066 -2.5264 0.9605
3.2703 -9.2022 -2.5286 0.9605
4.5805 -8.6619 -2.5370 0.9603
4.8953 -8.4969 -2.5390 0.9603
5.2040 -8.3203 -2.5409 0.9603
5.5061 -8.1324 -2.5428 0.9602
5.8015 -7.9333 -2.5447 0.9602
6.0894 -7.7233 -2.5465 0.9602
6.3696 -7.5027 -2.5482 0.9602
6.6417 -7.2718 -2.5499 0.9601
7.4052 -6.5200 -2.5546 0.9601
7.6408 -6.2508 -2.5560 0.9600
7.8665 -5.9730 -2.5574 0.9600
8.2865 -5.3929 -2.5599 0.9600
8.4802 -5.0913 -2.5610 0.9600
8.6627 -4.7826 -2.5621 0.9599
8.8337 -4.4673 -2.5630 0.9599
9.1401 -3.8183 -2.5647 0.9599
9.5076 -2.8060 -2.5667 0.9599
9.6891 -2.1107 -2.5675 0.9599
3.9643 -0.5667 -1.0369 0.9836
3.8445 -0.1279 -0.9960 0.9842
3.8460 0.0115 -0.9958 0.9842
3.8811 0.2935 -1.0078 0.9840
2.9883 -8.4088 -2.5263 0.9636
3.8921 -8.0533 -2.5321 0.9635
4.4717 -7.7616 -2.5358 0.9634
4.7533 -7.5998 -2.5376 0.9634
5.0290 -7.4276 -2.5393 0.9634
5.2984 -7.2453 -2.5410 0.9634
5.8166 -6.8513 -2.5443 0.9633
6.0647 -6.6400 -2.5458 0.9633
6.5372 -6.1904 -2.5487 0.9633
7.1812 -5.4527 -2.5526 0.9632
7.3775 -5.1913 -2.5538 0.9632
7.5640 -4.9227 -2.5549 0.9632
7.7406 -4.6472 -2.5559 0.9632
7.9069 -4.3653 -2.5568 0.9631
8.3418 -3.4848 -2.5593 0.9631
8.7653 -2.2450 -2.5615 0.9631
8.8421 -1.9262 -2.5618 0.9631
4.8173 -0.8679 -1.3857 0.9799
3.6396 -0.5203 -1.0408 0.9848
3.5605 -0.2479 -1.0104 0.9853
3.5618 -0.1185 -1.0089 0.9853
3.5641 0.1399 -1.0097 0.9853
1.8887 -7.9685 -2.5188 0.9663
2.4645 -7.8224 -2.5226 0.9663
2.7483 -7.7335 -2.5244 0.9662
3.0289 -7.6343 -2.5262 0.9662
3.5789 -7.4052 -2.5297 0.9662
3.8474 -7.2756 -2.5314 0.9661
4.1113 -7.1361 -2.5331 0.9661
4.6232 -6.8283 -2.5364 0.9661
4.8706 -6.6604 -2.5379 0.9661
5.3464 -6.2975 -2.5409 0.9660
5.7948 -5.9001 -2.5436 0.9660
6.0079 -5.6892 -2.5449 0.9660
6.4103 -5.2441 -2.5474 0.9659
7.1122 -4.2700 -2.5515 0.9659
7.2648 -4.0108 -2.5524 0.9659
7.4078 -3.7461 -2.5532 0.9659
7.5409 -3.4763 -2.5540 0.9658
7.6639 -3.2016 -2.5547 0.9658
7.9711 -2.3525 -2.5563 0.9658
8.0523 -2.0624 -2.5567 0.9658
3.3468 -0.3553 -1.0352 0.9860
3.3508 -0.2333 -1.0331 0.9860
3.3525 -0.1116 -1.0317 0.9861
3.3539 0.0100 -1.0316 0.9861
3.3535 0.1316 -1.0323 0.9861
3.3531 0.2535 -1.0343 0.9860
1.7468 -7.3697 -2.5176 0.9686
3.3088 -6.8465 -2.5277 0.9685
4.7248 -5.9925 -2.5366 0.9683
5.1518 -5.6404 -2.5393 0.9683
5.3554 -5.4527 -2.5405 0.9683
5.7416 -5.0552 -2.5429 0.9683
6.0978 -4.6300 -2.5450 0.9682
6.5714 -3.9453 -2.5478 0.9682
6.8441 -3.4611 -2.5494 0.9682
6.9669 -3.2117 -2.5501 0.9682
7.0804 -2.9578 -2.5507 0.9682
7.1845 -2.6999 -2.5512 0.9682
7.2791 -2.4383 -2.5517 0.9682
7.3639 -2.1733 -2.5522 0.9682
3.1843 -0.4552 -1.0692 0.9865
3.1740 -0.3369 -1.0610 0.9866
3.1777 -0.2212 -1.0588 0.9867
3.1790 -0.1058 -1.0573 0.9867
3.1764 0.2402 -1.0589 0.9867
3.2236 0.3616 -1.0783 0.9864
1.8712 -6.7884 -2.5181 0.9705
2.3610 -6.6435 -2.5213 0.9705
2.6017 -6.5576 -2.5229 0.9705
2.8393 -6.4629 -2.5244 0.9705
3.3039 -6.2476 -2.5273 0.9704
3.5301 -6.1272 -2.5288 0.9704
3.9689 -5.8619 -2.5315 0.9704
4.3876 -5.5648 -2.5342 0.9703
4.5886 -5.4048 -2.5354 0.9703
5.4997 -4.4992 -2.5410 0.9703
6.1005 -3.6626 -2.5446 0.9702
6.4672 -2.9813 -2.5466 0.9702
6.7567 -2.2633 -2.5482 0.9702
3.0878 -0.5563 -1.1220 0.9868
3.0396 -0.4346 -1.0980 0.9870
3.0504 -0.1015 -1.0914 0.9871
3.0506 0.0091 -1.0909 0.9871
3.0490 0.1196 -1.0912 0.9871
3.0460 0.2303 -1.0924 0.9871
2.2020 -6.1963 -2.5200 0.9722
2.8663 -5.9308 -2.5243 0.9722
3.0810 -5.8262 -2.5257 0.9722
3.2918 -5.7137 -2.5270 0.9721
3.7008 -5.4659 -2.5296 0.9721
3.8983 -5.3308 -2.5308 0.9721
4.4600 -4.8830 -2.5343 0.9721
4.6360 -4.7202 -2.5354 0.9721
4.8059 -4.5510 -2.5364 0.9720
4.9696 -4.3756 -2.5374 0.9720
5.5573 -3.6167 -2.5409 0.9720
5.9219 -2.9947 -2.5430 0.9720
6.4354 -1.6483 -2.5458 0.9719
2.9219 -0.3102 -1.1260 0.9875
2.9271 -0.2038 -1.1244 0.9875
2.9299 -0.0975 -1.1234 0.9875
2.9282 0.1149 -1.1230 0.9875
1.4171 -5.9787 -2.5147 0.9738
1.8484 -5.8669 -2.5175 0.9738
2.0609 -5.7993 -2.5189 0.9738
2.2710 -5.7238 -2.5203 0.9737
2.6823 -5.5501 -2.5229 0.9737
2.8831 -5.4520 -2.5242 0.9737
3.6475 -4.9878 -2.5290 0.9736
3.8275 -4.8545 -2.5301 0.9736
4.0027 -4.7147 -2.5312 0.9736
4.1726 -4.5684 -2.5323 0.9736
4.4960 -4.2575 -2.5342 0.9736
4.6491 -4.0933 -2.5352 0.9736
4.7961 -3.9235 -2.5361 0.9736
4.9367 -3.7484 -2.5369 0.9736
5.1984 -3.3831 -2.5384 0.9735
5.3190 -3.1934 -2.5392 0.9735
5.4326 -2.9993 -2.5398 0.9735
5.5391 -2.8012 -2.5404 0.9735
5.8138 -2.1848 -2.5419 0.9735
5.9586 -1.7585 -2.5427 0.9735
2.8480 -0.6204 -1.1929 0.9875
2.8190 -0.5079 -1.1723 0.9877
2.8093 -0.2982 -1.1562 0.9879
2.8139 -0.1959 -1.1545 0.9879
2.8168 -0.0937 -1.1535 0.9879
2.8171 0.0084 -1.1530 0.9879
2.8151 0.1105 -1.1530 0.9879
2.8195 0.3163 -1.1612 0.9878
1.3304 -5.6129 -2.5140 0.9751
1.5337 -5.5639 -2.5153 0.9751
2.1317 -5.3729 -2.5192 0.9751
2.3261 -5.2947 -2.5204 0.9751
2.5177 -5.2095 -2.5216 0.9751
2.8911 -5.0182 -2.5240 0.9750
3.2499 -4.7999 -2.5263 0.9750
3.4231 -4.6810 -2.5274 0.9750
4.0700 -4.1439 -2.5314 0.9750
4.2190 -3.9952 -2.5323 0.9750
4.3625 -3.8410 -2.5331 0.9750
4.6321 -3.5172 -2.5348 0.9749
5.4546 -2.0498 -2.5395 0.9749
2.7355 -0.5959 -1.2201 0.9879
2.7171 -0.4895 -1.2032 0.9880
2.7227 -0.3893 -1.1987 0.9881
2.7221 -0.1895 -1.1892 0.9882
2.7221 0.1068 -1.1872 0.9882
2.7264 0.3058 -1.1957 0.9881
1.2522 -5.2833 -2.5133 0.9764
1.4436 -5.2370 -2.5145 0.9763
1.6332 -5.1838 -2.5158 0.9763
2.3694 -4.9026 -2.5205 0.9763
2.5467 -4.8157 -2.5216 0.9763
2.8912 -4.6226 -2.5238 0.9763
4.1044 -3.6138 -2.5313 0.9762
4.2340 -3.4637 -2.5321 0.9762
4.3580 -3.3090 -2.5329 0.9762
4.4763 -3.1498 -2.5336 0.9762
4.5887 -2.9863 -2.5342 0.9762
4.6950 -2.8187 -2.5348 0.9762
4.9763 -2.2940 -2.5364 0.9761
5.1983 -1.7413 -2.5376 0.9761
5.2587 -1.5520 -2.5379 0.9761
2.9474 -0.7549 -1.4083 0.9867
2.6356 -0.5741 -1.2486 0.9882
2.6425 -0.2805 -1.2301 0.9884
2.6498 -0.0882 -1.2272 0.9884
2.6493 0.0079 -1.2263 0.9884
1.1813 -4.9844 -2.5127 0.9774
1.3619 -4.9406 -2.5138 0.9774
1.7177 -4.8334 -2.5161 0.9774
2.2350 -4.6245 -2.5195 0.9774
2.7270 -4.3601 -2.5226 0.9773
3.0380 -4.1543 -2.5245 0.9773
3.4746 -3.8042 -2.5273 0.9773
3.7435 -3.5449 -2.5289 0.9773
4.1096 -3.1204 -2.5311 0.9773
4.2211 -2.9702 -2.5318 0.9773
4.3270 -2.8160 -2.5324 0.9773
4.5216 -2.4963 -2.5335 0.9773
4.6100 -2.3313 -2.5340 0.9772
4.6924 -2.1631 -2.5345 0.9772
4.7684 -1.9920 -2.5349 0.9772
4.9584 -1.4633 -2.5359 0.9772
2.6356 -0.6750 -1.3346 0.9880
2.6031 -0.5671 -1.3068 0.9882
2.6057 -0.4694 -1.2987 0.9883
2.6007 -0.0866 -1.2764 0.9885
2.6016 0.0077 -1.2762 0.9885
2.6031 0.1022 -1.2779 0.9885
2.6041 0.1969 -1.2810 0.9884
1.1168 -4.7118 -2.5121 0.9784
1.2873 -4.6703 -2.5132 0.9784
1.4563 -4.6224 -2.5143 0.9784
1.7889 -4.5088 -2.5165 0.9784
2.1125 -4.3710 -2.5185 0.9784
2.2704 -4.2933 -2.5195 0.9784
2.8711 -3.9262 -2.5233 0.9783
3.0126 -3.8209 -2.5242 0.9783
3.1501 -3.7105 -2.5251 0.9783
3.2836 -3.5950 -2.5259 0.9783
3.4128 -3.4748 -2.5267 0.9783
3.5375 -3.3499 -2.5274 0.9783
3.8833 -2.9486 -2.5295 0.9783
3.9886 -2.8067 -2.5302 0.9783
4.0887 -2.6609 -2.5307 0.9783
4.1833 -2.5115 -2.5313 0.9783
4.2725 -2.3588 -2.5318 0.9782
4.3560 -2.2028 -2.5323 0.9782
4.5055 -1.8822 -2.5331 0.9782
4.6312 -1.5513 -2.5338 0.9782
2.6054 -0.6673 -1.3953 0.9880
2.5815 -0.3691 -1.3529 0.9883
2.5804 -0.1797 -1.3419 0.9884
2.5801 -0.0859 -1.3393 0.9884
2.5803 0.0077 -1.3386 0.9884
1.2191 -4.4227 -2.5126 0.9793
1.6939 -4.2695 -2.5157 0.9793
2.1497 -4.0651 -2.5186 0.9792
2.4403 -3.9016 -2.5205 0.9792
2.7183 -3.7172 -2.5222 0.9792
2.8522 -3.6174 -2.5230 0.9792
2.9823 -3.5128 -2.5239 0.9792
3.1086 -3.4035 -2.5246 0.9792
3.3489 -3.1713 -2.5261 0.9792
3.6762 -2.7913 -2.5281 0.9792
3.7758 -2.6569 -2.5287 0.9792
3.8704 -2.5189 -2.5292 0.9792
3.9600 -2.3775 -2.5298 0.9792
4.0443 -2.2328 -2.5302 0.9792
4.2648 -1.7816 -2.5315 0.9791
4.3837 -1.4684 -2.5321 0.9791
2.6455 -0.7808 -1.5107 0.9875
2.5751 -0.6596 -1.4559 0.9879
2.5540 -0.5564 -1.4316 0.9881
2.5596 -0.1782 -1.4053 0.9884
2.5596 0.0076 -1.4019 0.9884
2.5586 0.1935 -1.4054 0.9884
1.1563 -4.1947 -2.5121 0.9801
1.6065 -4.0491 -2.5150 0.9801
1.8969 -3.9250 -2.5169 0.9801
2.0387 -3.8551 -2.5178 0.9801
2.3141 -3.6999 -2.5195 0.9800
2.5777 -3.5249 -2.5212 0.9800
2.7046 -3.4302 -2.5220 0.9800
2.9477 -3.2273 -2.5235 0.9800
3.0635 -3.1192 -2.5242 0.9800
3.7546 -2.2541 -2.5283 0.9800
3.9093 -1.9770 -2.5292 0.9800
4.1561 -1.3922 -2.5306 0.9800
2.5448 -0.6518 -1.5167 0.9879
2.5362 -0.4569 -1.4879 0.9882
2.5378 -0.3628 -1.4801 0.9882
2.5363 -0.2692 -1.4726 0.9883
2.5372 0.0076 -1.4649 0.9883
2.5367 0.0995 -1.4657 0.9883
2.5365 0.2845 -1.4736 0.9883
