ply
format ascii 1.0
element vertex 458
property float32 x
property float32 y
property float32 z
property float32 I
end_header
47.0838 10.4995 8.5061 0.8221
46.6966 12.1793 8.5093 0.8220
44.2551 13.2477 8.1455 0.8289
45.1897 17.1287 8.5214 0.8218
2.5122 7.7005 1.4282 0.9676
46.6761 6.9569 7.2295 0.8262
46.6933 8.6745 7.2755 0.8252
46.7477 13.9938 7.4755 0.8208
45.2164 15.3153 7.3135 0.8243
2.5119 7.6995 1.2407 0.9678
46.5947 12.1527 6.2706 0.8235
45.2092 15.3129 6.2157 0.8249
45.1160 15.2812 5.1150 0.8256
2.5112 7.6976 0.8695 0.9680
45.1224 15.2834 4.0329 0.8259
2.5109 7.6967 0.6853 0.9680
45.1879 15.3056 2.9585 0.8260
28.5394 35.8309 2.8406 0.8323
2.5106 7.6957 0.5020 0.9681
45.1808 15.3032 1.8809 0.8262
44.7085 15.1432 0.7974 0.8279
2.5100 7.6938 0.1367 0.9681
44.7015 15.1409 -0.2657 0.8280
2.5097 7.6929 -0.0456 0.9681
37.7963 5.6334 -1.0760 0.8582
37.8008 7.0225 -1.0826 0.8574
37.8054 8.4305 -1.0907 0.8564
37.8100 9.8614 -1.1003 0.8553
37.8146 11.3197 -1.1115 0.8539
37.8242 14.3369 -1.1390 0.8506
37.8451 20.9316 -1.2178 0.8411
37.8508 22.7371 -1.2433 0.8380
37.8567 24.6223 -1.2716 0.8347
37.8403 28.6539 -1.3366 0.8270
2.5094 7.6920 -0.2278 0.9681
37.7997 8.4292 -1.9641 0.8563
37.8042 9.8599 -1.9813 0.8552
37.8088 11.3180 -2.0015 0.8538
37.8281 17.5212 -2.1142 0.8462
37.8334 19.1935 -2.1515 0.8437
37.8443 22.7332 -2.2389 0.8379
37.8690 30.8643 -2.4776 0.8223
29.6166 40.0384 -2.5257 0.8192
2.5091 7.6910 -0.4103 0.9681
34.7284 5.1761 -2.5745 0.8686
34.4935 6.4080 -2.5724 0.8687
34.2108 7.6289 -2.5700 0.8689
33.8810 8.8367 -2.5673 0.8690
33.5048 10.0295 -2.5643 0.8691
33.0828 11.2055 -2.5611 0.8693
31.5519 14.6142 -2.5496 0.8698
30.9565 15.7048 -2.5452 0.8700
28.9579 18.8344 -2.5329 0.8706
28.8786 21.8677 -2.6560 0.8648
27.3938 24.0051 -2.6706 0.8641
26.4540 24.9071 -2.6641 0.8644
24.4825 26.5954 -2.6505 0.8650
22.4001 28.1230 -2.6362 0.8657
21.3217 28.8245 -2.6288 0.8661
19.0993 30.0994 -2.6138 0.8668
14.4429 32.1232 -2.5825 0.8683
12.0375 32.8669 -2.5664 0.8690
2.5088 7.6901 -0.5931 0.9681
9.5995 33.4303 -2.5502 0.8698
7.1427 33.8140 -2.5340 0.8706
4.3954 31.9472 -2.3645 0.8787
27.6199 4.1166 -2.6809 0.8939
27.4386 5.0974 -2.6793 0.8939
27.2202 6.0700 -2.6775 0.8940
26.9648 7.0329 -2.6754 0.8941
25.9832 9.8487 -2.6677 0.8943
25.1552 11.6514 -2.6615 0.8946
23.1097 15.0308 -2.6466 0.8951
21.9067 16.5884 -2.6381 0.8955
20.5943 18.0468 -2.6289 0.8958
17.6774 20.6360 -2.6087 0.8966
16.8942 21.2104 -2.6033 0.8968
14.4350 22.7487 -2.5866 0.8974
13.5828 23.1979 -2.5808 0.8976
12.7167 23.6147 -2.5750 0.8978
11.8379 23.9986 -2.5690 0.8980
2.5085 7.6892 -0.7765 0.9680
7.2985 25.4170 -2.5388 0.8992
6.3705 25.5994 -2.5326 0.8994
5.1076 24.1797 -2.3726 0.9055
4.2304 24.2874 -2.3668 0.9057
3.3520 24.3635 -2.3610 0.9059
22.0215 3.2822 -2.6447 0.9142
21.8797 4.0647 -2.6435 0.9143
21.7085 4.8409 -2.6420 0.9143
19.7205 10.0046 -2.6267 0.9148
18.9136 11.3614 -2.6209 0.9150
18.0096 12.6513 -2.6144 0.9152
17.0146 13.8674 -2.6073 0.9154
15.9349 15.0030 -2.5998 0.9156
15.3654 15.5389 -2.5958 0.9157
13.5494 17.0110 -2.5833 0.9161
10.9123 18.6369 -2.5654 0.9167
8.8071 19.5885 -2.5512 0.9171
8.0865 19.8529 -2.5464 0.9173
4.1205 19.5065 -2.3682 0.9228
3.4144 19.6026 -2.3636 0.9230
18.1772 3.3769 -2.6196 0.9280
18.0367 4.0221 -2.6184 0.9281
17.8723 4.6614 -2.6170 0.9281
17.2383 6.5340 -2.6121 0.9282
16.9812 7.1402 -2.6101 0.9283
16.7020 7.7360 -2.6080 0.9283
16.0788 8.8930 -2.6034 0.9285
15.7359 9.4526 -2.6009 0.9285
14.9900 10.5301 -2.5956 0.9287
13.2755 12.4992 -2.5835 0.9290
12.8044 12.9490 -2.5802 0.9291
10.7710 14.5611 -2.5663 0.9294
9.6758 15.2485 -2.5588 0.9296
7.9528 16.1223 -2.5472 0.9299
7.3603 16.3705 -2.5432 0.9301
6.1532 16.8006 -2.5351 0.9303
4.6224 16.0975 -2.3730 0.9346
4.0379 16.2258 -2.3691 0.9347
3.4501 16.3328 -2.3652 0.9348
2.8648 16.4471 -2.3655 0.9348
15.4131 3.4371 -2.6015 0.9380
15.2737 3.9836 -2.6004 0.9380
15.1143 4.5244 -2.5991 0.9380
14.7360 5.5855 -2.5961 0.9381
14.2808 6.6145 -2.5927 0.9382
14.0252 7.1152 -2.5908 0.9382
13.4599 8.0854 -2.5867 0.9383
12.8258 9.0098 -2.5821 0.9384
12.4841 9.4533 -2.5797 0.9385
11.3665 10.7018 -2.5719 0.9387
10.1224 11.8165 -2.5632 0.9389
9.6538 12.1202 -2.5526 0.9391
8.2958 13.0737 -2.5507 0.9392
6.3161 14.0479 -2.5374 0.9395
5.4490 13.3776 -2.3796 0.9431
2.9689 14.0550 -2.3665 0.9434
13.6315 2.0317 -2.5905 0.9455
13.5462 2.5165 -2.5897 0.9455
13.4431 2.9978 -2.5888 0.9455
13.3223 3.4747 -2.5878 0.9455
13.0285 4.4129 -2.5855 0.9456
12.8559 4.8729 -2.5842 0.9456
12.4609 5.7716 -2.5812 0.9456
11.4799 7.4666 -2.5740 0.9458
11.1971 7.8657 -2.5720 0.9458
10.5892 8.6305 -2.5677 0.9459
9.9282 9.3476 -2.5631 0.9460
9.5788 9.6870 -2.5606 0.9461
9.2177 10.0132 -2.5581 0.9461
6.8329 11.6699 -2.5418 0.9464
5.9687 12.1001 -2.5360 0.9466
5.1896 11.5425 -2.3787 0.9498
2.5072 7.6854 -1.5195 0.9676
2.5993 12.3055 -2.3640 0.9501
12.0741 1.7996 -2.5804 0.9513
11.9990 2.2291 -2.5797 0.9513
11.9081 2.6555 -2.5790 0.9513
11.5425 3.9096 -2.5760 0.9514
11.3904 4.3174 -2.5748 0.9514
11.0417 5.1143 -2.5722 0.9515
10.8459 5.5023 -2.5708 0.9515
10.6361 5.8827 -2.5692 0.9515
10.4126 6.2549 -2.5676 0.9516
10.1758 6.6184 -2.5659 0.9516
9.9260 6.9728 -2.5641 0.9516
9.3889 7.6522 -2.5603 0.9517
9.1024 7.9764 -2.5583 0.9517
8.8045 8.2896 -2.5562 0.9518
8.4956 8.5916 -2.5540 0.9518
7.8468 9.1601 -2.5495 0.9519
7.5078 9.4259 -2.5472 0.9519
7.1596 9.6789 -2.5448 0.9520
5.3394 9.9151 -2.3804 0.9550
4.6084 10.2498 -2.3755 0.9551
4.2349 10.3969 -2.3730 0.9551
3.8567 10.5303 -2.3705 0.9552
2.4829 7.6109 -1.6922 0.9678
1.5201 11.0483 -2.3574 0.9554
10.7585 1.9986 -2.5717 0.9560
10.5822 2.7600 -2.5702 0.9561
10.4733 3.1351 -2.5694 0.9561
10.3507 3.5059 -2.5684 0.9561
10.0655 4.2323 -2.5662 0.9561
9.5405 5.2767 -2.5623 0.9562
9.3406 5.6109 -2.5609 0.9562
9.1288 5.9374 -2.5593 0.9562
8.4248 6.8664 -2.5543 0.9563
7.9017 7.4396 -2.5507 0.9564
7.3391 7.9725 -2.5468 0.9565
7.0441 8.2230 -2.5447 0.9565
6.7404 8.4624 -2.5426 0.9565
6.4283 8.6904 -2.5405 0.9566
5.4294 8.5564 -2.3816 0.9592
4.7960 8.9061 -2.3773 0.9593
4.1403 9.2086 -2.3729 0.9594
3.8051 9.3417 -2.3707 0.9594
2.7767 9.6700 -2.3645 0.9595
2.0757 9.8265 -2.3604 0.9596
1.7219 9.8857 -2.3584 0.9596
1.3665 9.9321 -2.3563 0.9596
9.8012 1.4608 -2.5657 0.9599
9.7407 1.8096 -2.5652 0.9599
9.6674 2.1558 -2.5645 0.9599
9.4833 2.8388 -2.5630 0.9599
9.3727 3.1746 -2.5622 0.9599
9.1151 3.8327 -2.5602 0.9600
8.8104 4.4696 -2.5579 0.9600
8.6409 4.7792 -2.5567 0.9600
8.4603 5.0821 -2.5554 0.9600
7.4008 6.4853 -2.5478 0.9602
6.9096 6.9877 -2.5444 0.9602
6.3840 7.4525 -2.5408 0.9603
4.6382 7.9215 -2.3767 0.9628
4.3488 8.0755 -2.3748 0.9628
4.0541 8.2188 -2.3728 0.9628
2.8169 7.6913 -2.1208 0.9667
2.4663 7.5599 -2.0589 0.9677
1.8831 8.9147 -2.3591 0.9631
1.5622 8.9691 -2.3572 0.9631
1.2399 9.0120 -2.3553 0.9631
4.8210 0.7185 -1.3799 0.9799
8.8898 1.6515 -2.5597 0.9631
8.8232 1.9675 -2.5591 0.9631
8.7450 2.2808 -2.5585 0.9631
8.6555 2.5910 -2.5577 0.9631
8.5548 2.8976 -2.5569 0.9631
8.0428 4.0802 -2.5531 0.9632
7.7239 4.6397 -2.5507 0.9632
7.5495 4.9102 -2.5495 0.9633
7.1721 5.4309 -2.5468 0.9633
6.9696 5.6804 -2.5454 0.9633
6.7583 5.9223 -2.5439 0.9633
6.5386 6.1562 -2.5423 0.9634
6.3105 6.3818 -2.5407 0.9634
6.0747 6.5989 -2.5391 0.9634
5.8312 6.8071 -2.5374 0.9634
4.4971 7.0873 -2.3762 0.9657
3.7048 7.5107 -2.3708 0.9658
3.4316 7.6323 -2.3690 0.9658
3.1543 7.7439 -2.3671 0.9658
1.4283 8.1999 -2.3563 0.9660
8.2177 1.2248 -2.5555 0.9658
8.1672 1.5173 -2.5550 0.9658
8.1061 1.8076 -2.5545 0.9658
7.9525 2.3805 -2.5532 0.9659
7.8601 2.6623 -2.5525 0.9659
7.5227 3.4843 -2.5499 0.9659
7.3906 3.7494 -2.5490 0.9659
7.2490 4.0093 -2.5479 0.9659
6.0104 5.6589 -2.5391 0.9660
4.3686 6.3697 -2.3757 0.9682
4.1355 6.5173 -2.3741 0.9682
3.8974 6.6563 -2.3725 0.9682
3.1563 7.0202 -2.3675 0.9683
2.6433 7.2171 -2.3640 0.9683
2.1181 7.3764 -2.3605 0.9684
1.5838 7.4979 -2.3571 0.9684
7.5919 1.1315 -2.5514 0.9682
7.5453 1.4017 -2.5510 0.9682
7.4890 1.6700 -2.5505 0.9682
7.4230 1.9360 -2.5500 0.9682
7.3473 2.1994 -2.5494 0.9682
7.2622 2.4598 -2.5487 0.9682
7.1677 2.7168 -2.5480 0.9682
7.0638 2.9702 -2.5472 0.9682
6.8291 3.4645 -2.5454 0.9682
6.5593 3.9401 -2.5435 0.9683
6.0921 4.6131 -2.5401 0.9683
5.3622 5.4227 -2.5350 0.9684
5.1622 5.6077 -2.5336 0.9684
4.5249 6.1171 -2.5292 0.9684
4.0390 5.8891 -2.3737 0.9703
3.3794 6.2755 -2.3692 0.9704
2.6834 6.5879 -2.3646 0.9705
2.4448 6.6751 -2.3630 0.9705
1.7132 6.8841 -2.3581 0.9705
1.4652 6.9360 -2.3564 0.9706
7.0040 1.3012 -2.5475 0.9702
6.8205 2.0417 -2.5460 0.9702
6.6540 2.5221 -2.5447 0.9702
6.4531 2.9889 -2.5432 0.9702
5.4977 4.4808 -2.5363 0.9703
5.1589 4.8572 -2.5339 0.9703
4.7942 5.2079 -2.5314 0.9704
4.4055 5.5310 -2.5287 0.9704
4.2028 5.6817 -2.5273 0.9704
3.9468 5.7547 -2.4954 0.9708
3.1395 5.8299 -2.3679 0.9723
2.7119 6.0318 -2.3650 0.9723
2.4932 6.1210 -2.3635 0.9723
1.3617 6.4460 -2.3560 0.9724
1.1298 6.4863 -2.3545 0.9724
0.8968 6.5182 -2.3529 0.9724
6.4795 1.4449 -2.5440 0.9720
6.4225 1.6751 -2.5436 0.9720
6.2023 2.3509 -2.5418 0.9720
6.0153 2.7861 -2.5404 0.9720
5.2738 3.9934 -2.5350 0.9721
4.9710 4.3561 -2.5329 0.9721
4.8101 4.5288 -2.5318 0.9721
4.2919 5.0102 -2.5282 0.9721
3.9194 5.2985 -2.5256 0.9722
3.1222 5.3324 -2.3680 0.9739
2.9282 5.4375 -2.3667 0.9739
2.7305 5.5355 -2.3653 0.9739
2.1190 5.7857 -2.3612 0.9740
1.6986 5.9152 -2.3584 0.9740
1.2704 6.0141 -2.3556 0.9740
1.0542 6.0520 -2.3542 0.9740
2.8507 0.4249 -1.1796 0.9876
5.9464 1.7800 -2.5404 0.9735
5.8778 1.9909 -2.5399 0.9735
5.8016 2.1990 -2.5393 0.9735
5.6268 2.6062 -2.5380 0.9736
5.5286 2.8047 -2.5372 0.9736
5.1918 3.3768 -2.5348 0.9736
5.0661 3.5588 -2.5339 0.9736
4.7954 3.9084 -2.5319 0.9736
4.6509 4.0756 -2.5309 0.9736
4.3444 4.3935 -2.5288 0.9736
4.0161 4.6882 -2.5265 0.9737
3.8442 4.8264 -2.5253 0.9737
3.4865 5.0836 -2.5229 0.9737
3.3011 5.2022 -2.5216 0.9737
3.0113 5.1429 -2.4391 0.9746
2.7405 5.0890 -2.3656 0.9753
2.5556 5.1809 -2.3643 0.9753
1.9835 5.4157 -2.3605 0.9754
1.5900 5.5374 -2.3579 0.9754
1.3905 5.5875 -2.3566 0.9754
1.1894 5.6304 -2.3552 0.9754
0.9869 5.6661 -2.3539 0.9754
2.7415 0.4086 -1.2080 0.9880
5.5148 1.8679 -2.5375 0.9749
5.3649 2.2558 -2.5364 0.9749
5.2796 2.4454 -2.5358 0.9749
5.1875 2.6317 -2.5351 0.9749
4.7539 3.3395 -2.5319 0.9750
4.6300 3.5059 -2.5310 0.9750
4.5002 3.6677 -2.5301 0.9750
4.3646 3.8247 -2.5292 0.9750
4.2236 3.9766 -2.5282 0.9750
4.0772 4.1232 -2.5272 0.9750
3.9257 4.2645 -2.5261 0.9750
3.7693 4.4001 -2.5250 0.9750
3.2725 4.7716 -2.5216 0.9751
3.0985 4.8831 -2.5204 0.9751
2.2228 4.9437 -2.3623 0.9766
2.0437 5.0173 -2.3611 0.9766
1.8622 5.0845 -2.3599 0.9767
1.6786 5.1451 -2.3586 0.9767
0.9267 5.3204 -2.3536 0.9767
2.6537 0.4930 -1.2494 0.9882
5.3021 1.3829 -2.5364 0.9761
5.1209 1.9410 -2.5349 0.9762
5.0472 2.1222 -2.5344 0.9762
4.8804 2.4759 -2.5331 0.9762
4.6886 2.8164 -2.5317 0.9762
4.3563 3.2987 -2.5293 0.9762
4.1068 3.5988 -2.5276 0.9762
3.9742 3.7418 -2.5267 0.9762
3.8366 3.8799 -2.5257 0.9762
3.6941 4.0128 -2.5247 0.9762
3.5470 4.1406 -2.5237 0.9763
3.2396 4.3796 -2.5216 0.9763
2.5783 4.7877 -2.5171 0.9763
2.4045 4.8745 -2.5159 0.9763
2.1718 4.8303 -2.4515 0.9769
1.9517 4.7913 -2.3948 0.9775
1.7529 4.7860 -2.3593 0.9778
1.2290 4.9387 -2.3558 0.9778
0.8725 5.0089 -2.3534 0.9778
0.6926 5.0343 -2.3522 0.9779
2.6042 0.3881 -1.2915 0.9883
2.6237 0.4874 -1.3090 0.9882
5.0437 1.1247 -2.5348 0.9772
4.8289 1.8303 -2.5331 0.9773
4.6838 2.1694 -2.5320 0.9773
4.6022 2.3348 -2.5314 0.9773
4.4215 2.6560 -2.5301 0.9773
4.3226 2.8114 -2.5293 0.9773
4.2182 2.9631 -2.5286 0.9773
3.4842 3.7849 -2.5234 0.9773
3.2026 4.0208 -2.5215 0.9774
3.0558 4.1310 -2.5205 0.9774
2.9051 4.2358 -2.5195 0.9774
2.5931 4.4286 -2.5173 0.9774
2.4322 4.5165 -2.5162 0.9774
2.1017 4.6744 -2.5140 0.9774
1.9325 4.7444 -2.5129 0.9774
1.7359 4.7395 -2.4759 0.9778
1.5404 4.7218 -2.4363 0.9781
1.3537 4.7142 -2.4059 0.9784
0.8232 4.7262 -2.3532 0.9789
0.6536 4.7504 -2.3521 0.9789
2.5951 0.4821 -1.3693 0.9882
2.6679 0.5949 -1.4180 0.9878
4.6762 1.3998 -2.5323 0.9782
4.4259 2.0499 -2.5304 0.9783
4.3488 2.2062 -2.5298 0.9783
4.2662 2.3596 -2.5292 0.9783
4.0848 2.6567 -2.5279 0.9783
3.9862 2.8002 -2.5271 0.9783
3.8825 2.9399 -2.5264 0.9783
3.6604 3.2076 -2.5248 0.9783
3.4198 3.4584 -2.5232 0.9783
3.2929 3.5771 -2.5223 0.9783
3.1619 3.6911 -2.5214 0.9783
2.8882 3.9045 -2.5195 0.9784
2.6000 4.0975 -2.5175 0.9784
2.2990 4.2692 -2.5155 0.9784
1.8268 4.4849 -2.5123 0.9784
1.6648 4.5454 -2.5112 0.9784
1.5007 4.5999 -2.5101 0.9784
0.8170 4.6903 -2.4699 0.9788
0.6455 4.6916 -2.4568 0.9789
2.5543 0.3807 -1.4144 0.9883
2.5665 0.4768 -1.4297 0.9882
4.4717 1.1663 -2.5310 0.9791
4.3191 1.6371 -2.5298 0.9792
4.2571 1.7900 -2.5294 0.9792
4.1897 1.9405 -2.5289 0.9792
4.0387 2.2337 -2.5277 0.9792
3.8670 2.5151 -2.5265 0.9792
3.7737 2.6509 -2.5258 0.9792
3.5728 2.9119 -2.5244 0.9792
2.8660 3.5982 -2.5195 0.9792
2.5999 3.7909 -2.5177 0.9793
2.1770 4.0426 -2.5148 0.9793
1.8813 4.1844 -2.5128 0.9793
1.5766 4.3045 -2.5107 0.9793
1.2642 4.4024 -2.5087 0.9793
0.9458 4.4777 -2.5065 0.9793
0.7850 4.5067 -2.5055 0.9794
0.6232 4.5299 -2.5044 0.9794
2.5342 0.3777 -1.4793 0.9882
2.5378 0.4715 -1.4902 0.9881
4.1968 1.2563 -2.5292 0.9800
4.1486 1.4052 -2.5288 0.9800
4.0951 1.5522 -2.5284 0.9800
3.9723 1.8399 -2.5275 0.9800
3.9033 1.9802 -2.5270 0.9800
3.8293 2.1179 -2.5264 0.9800
3.6666 2.3848 -2.5252 0.9800
3.3878 2.7611 -2.5233 0.9800
3.2861 2.8795 -2.5225 0.9800
2.5934 3.5059 -2.5177 0.9801
2.4657 3.5951 -2.5169 0.9801
2.0647 3.8340 -2.5141 0.9801
1.9257 3.9039 -2.5132 0.9801
1.7844 3.9687 -2.5123 0.9801
1.6408 4.0283 -2.5113 0.9801
1.1991 4.1758 -2.5083 0.9801
0.8972 4.2474 -2.5063 0.9801
0.7446 4.2750 -2.5053 0.9802
0.5912 4.2971 -2.5043 0.9802
