ply
format ascii 1.0
element vertex 546
property float32 x
property float32 y
property float32 z
property float32 I
end_header
45.8154 -15.1070 8.5063 0.8221
46.3110 -13.4552 8.5036 0.8221
44.1915 -11.1429 8.0360 0.8310
47.9192 -5.0009 8.4953 0.8223
45.5163 -1.4787 8.0300 0.8311
47.1860 3.5355 8.3435 0.8251
47.9758 5.3250 8.5114 0.8220
45.5777 8.3903 8.1716 0.8284
47.0938 10.4225 8.5048 0.8221
44.1521 11.4414 8.0423 0.8309
44.4800 13.2401 8.1831 0.8282
45.2023 17.0566 8.5189 0.8218
44.8724 -20.3503 7.5481 0.8192
46.4642 -15.3210 7.4950 0.8204
46.4806 -13.5045 7.4150 0.8221
46.4968 -11.7242 7.3460 0.8236
46.5128 -9.9745 7.2875 0.8249
46.5288 -8.2504 7.2391 0.8259
46.5448 -6.5468 7.2006 0.8268
46.6091 0.1528 7.1403 0.8281
46.6421 3.4947 7.1653 0.8276
46.6762 6.8776 7.2277 0.8262
46.6937 8.5957 7.2734 0.8252
46.7116 10.3380 7.3291 0.8240
45.2180 15.2394 7.3100 0.8244
31.4002 -25.1878 5.2419 0.8501
32.8952 -24.5072 5.3417 0.8475
39.4251 -25.2030 6.0933 0.8280
44.8650 -20.3469 6.4151 0.8198
46.3119 -17.1293 6.4301 0.8194
46.3295 -15.2765 6.3526 0.8214
46.8443 -8.3063 6.1953 0.8254
48.6175 -5.0738 6.3654 0.8210
48.6514 -1.5806 6.3388 0.8217
48.6683 0.1595 6.3377 0.8218
48.6854 1.9013 6.3447 0.8216
48.7025 3.6491 6.3599 0.8212
48.7198 5.4076 6.3833 0.8206
46.8240 8.6197 6.1999 0.8253
46.5781 10.3084 6.2122 0.8250
31.3942 -25.1829 4.3217 0.8505
35.9462 -24.8327 4.6915 0.8388
39.4259 -25.2035 5.0248 0.8284
44.7722 -20.3049 5.2790 0.8206
45.1175 15.2055 5.1125 0.8257
31.3881 -25.1781 3.4063 0.8508
35.9470 -24.8332 3.6985 0.8391
45.1240 15.2077 4.0310 0.8260
35.9477 -24.8337 2.7093 0.8394
32.8976 -24.5090 1.6176 0.8486
44.8360 -20.3338 1.9412 0.8211
31.3702 -25.1637 0.6793 0.8514
35.9491 -24.8347 0.7381 0.8396
39.4293 -25.2057 0.7905 0.8293
44.3671 -20.1211 0.8229 0.8229
44.5332 -3.0433 0.7540 0.8365
44.7101 15.0682 0.7970 0.8280
31.3643 -25.1589 -0.2264 0.8514
32.8989 -24.5099 -0.2310 0.8487
35.9498 -24.8352 -0.2460 0.8396
39.4301 -25.2062 -0.2635 0.8293
44.3599 -20.1179 -0.2742 0.8230
44.5266 -3.0428 -0.2513 0.8365
44.7032 15.0659 -0.2656 0.8280
31.3583 -25.1542 -1.1320 0.8514
35.9505 -24.8357 -1.2304 0.8396
37.7190 -17.1061 -1.1662 0.8473
37.7299 -13.9551 -1.1327 0.8513
37.7352 -12.4427 -1.1188 0.8530
37.7550 -6.6946 -1.0797 0.8578
37.7597 -5.3111 -1.0737 0.8585
37.7645 -3.9411 -1.0691 0.8590
37.7692 -2.5810 -1.0660 0.8594
37.7738 -1.2272 -1.0642 0.8596
37.7784 0.1238 -1.0638 0.8597
37.7922 4.1947 -1.0707 0.8589
37.8016 6.9588 -1.0823 0.8574
37.8064 8.3671 -1.0903 0.8565
37.8161 11.2565 -1.1110 0.8539
37.7944 12.7375 -1.1230 0.8525
37.8262 14.2733 -1.1384 0.8506
37.8314 15.8423 -1.1549 0.8486
37.8368 17.4595 -1.1734 0.8464
37.8424 19.1315 -1.1940 0.8439
37.8604 24.5539 -1.2706 0.8348
37.8810 30.7966 -1.3747 0.8225
32.9001 -24.5109 -2.0806 0.8485
39.4319 -25.2073 -2.3734 0.8291
37.7186 -15.5052 -2.0682 0.8493
37.7293 -12.4408 -2.0148 0.8529
37.6732 -8.0789 -1.9540 0.8570
37.7542 -5.3103 -1.9335 0.8584
37.7729 0.1238 -1.9156 0.8596
37.7775 1.4753 -1.9173 0.8595
37.7820 2.8309 -1.9215 0.8592
37.7866 4.1940 -1.9281 0.8588
37.8054 9.7967 -1.9806 0.8552
37.8103 11.2548 -2.0007 0.8538
37.8202 14.2711 -2.0500 0.8505
37.8254 15.8398 -2.0797 0.8485
37.8362 19.1283 -2.1501 0.8438
37.8601 26.5232 -2.3443 0.8310
37.8401 28.5788 -2.4049 0.8270
37.8737 30.7908 -2.4754 0.8224
29.5059 -20.3835 -2.6295 0.8660
29.4956 -18.8554 -2.5668 0.8690
29.9513 -17.6713 -2.5498 0.8698
31.2323 -15.5334 -2.5576 0.8694
32.8380 -12.1457 -2.5672 0.8690
33.6861 -9.7872 -2.5721 0.8688
34.0407 -8.5834 -2.5741 0.8687
34.6078 -6.1366 -2.5771 0.8685
34.8191 -4.8975 -2.5781 0.8685
35.0954 -2.3983 -2.5793 0.8684
35.1600 -1.1423 -2.5794 0.8684
35.1409 1.3723 -2.5786 0.8684
34.7435 5.1194 -2.5750 0.8686
34.2362 7.5769 -2.5710 0.8688
33.5395 9.9835 -2.5658 0.8691
33.1220 11.1628 -2.5628 0.8692
32.6594 12.3236 -2.5595 0.8694
32.1525 13.4642 -2.5559 0.8695
31.6026 14.5828 -2.5520 0.8697
31.0105 15.6776 -2.5478 0.8699
30.3777 16.7470 -2.5434 0.8701
28.9190 20.2594 -2.5890 0.8680
28.8838 21.8145 -2.6540 0.8649
28.3721 23.0661 -2.6810 0.8636
22.1438 -16.4973 -2.6510 0.8950
23.3301 -14.9140 -2.6583 0.8947
24.3955 -13.2413 -2.6648 0.8945
25.7512 -10.5857 -2.6730 0.8942
26.1351 -9.6665 -2.6752 0.8941
26.4840 -8.7327 -2.6772 0.8940
27.0739 -6.8267 -2.6806 0.8939
27.3140 -5.8574 -2.6819 0.8938
27.5167 -4.8792 -2.6829 0.8938
27.6820 -3.8936 -2.6838 0.8937
27.8093 -2.9022 -2.6843 0.8937
27.9622 0.0917 -2.6845 0.8937
27.9366 1.0910 -2.6841 0.8937
27.6304 4.0713 -2.6813 0.8938
27.4526 5.0537 -2.6799 0.8939
27.2375 6.0280 -2.6782 0.8940
26.9855 6.9929 -2.6763 0.8940
26.6970 7.9467 -2.6742 0.8941
26.3724 8.8881 -2.6718 0.8942
26.0126 9.8156 -2.6692 0.8943
24.7278 12.5013 -2.6601 0.8946
23.7079 14.1981 -2.6530 0.8949
23.1517 15.0147 -2.6492 0.8950
21.9512 16.5787 -2.6409 0.8954
21.3091 17.3239 -2.6365 0.8955
17.1923 -13.7908 -2.6180 0.9150
18.1751 -12.5567 -2.6241 0.9149
18.6329 -11.9113 -2.6269 0.9148
19.0660 -11.2489 -2.6296 0.9147
19.8570 -9.8759 -2.6344 0.9145
20.5437 -8.4450 -2.6385 0.9144
21.3684 -6.2084 -2.6432 0.9143
22.0662 -3.1037 -2.6469 0.9142
22.1667 -2.3133 -2.6474 0.9141
22.2779 -0.7238 -2.6477 0.9141
22.2883 0.0731 -2.6475 0.9141
22.2685 0.8696 -2.6472 0.9141
22.2187 1.6648 -2.6467 0.9142
22.0292 3.2459 -2.6450 0.9142
21.7210 4.8072 -2.6426 0.9143
21.5231 5.5774 -2.6411 0.9143
21.2964 6.3392 -2.6394 0.9144
21.0413 7.0914 -2.6375 0.9144
20.7583 7.8329 -2.6355 0.9145
20.4478 8.5627 -2.6333 0.9146
20.1104 9.2797 -2.6309 0.9146
18.9423 11.3441 -2.6227 0.9149
18.0405 12.6384 -2.6165 0.9151
17.5549 13.2583 -2.6132 0.9152
17.0470 13.8589 -2.6097 0.9153
14.3063 -11.4758 -2.5986 0.9286
15.4963 -9.9062 -2.6059 0.9284
15.8537 -9.3537 -2.6081 0.9283
17.3225 -6.4070 -2.6169 0.9281
17.5492 -5.7866 -2.6182 0.9281
18.2205 -3.2308 -2.6219 0.9280
18.3280 -2.5779 -2.6224 0.9280
18.5118 0.0607 -2.6229 0.9279
18.4958 0.7223 -2.6227 0.9279
18.4551 1.3828 -2.6222 0.9280
18.2996 2.6964 -2.6208 0.9280
17.6972 5.2678 -2.6162 0.9281
16.9987 7.1184 -2.6112 0.9283
16.7207 7.7156 -2.6092 0.9283
15.3956 9.9846 -2.6000 0.9285
15.0136 10.5179 -2.5973 0.9286
12.2387 -9.8172 -2.5847 0.9384
12.5924 -9.3814 -2.5869 0.9383
12.9302 -8.9325 -2.5890 0.9383
14.1103 -7.0178 -2.5961 0.9381
14.3604 -6.5126 -2.5976 0.9381
15.3223 -3.8635 -2.6032 0.9379
15.8074 -0.5135 -2.6055 0.9379
15.8150 0.0518 -2.6054 0.9379
15.8016 0.6171 -2.6051 0.9379
15.7672 1.1814 -2.6047 0.9379
15.7117 1.7439 -2.6042 0.9379
15.4209 3.4129 -2.6019 0.9380
14.7489 5.5653 -2.5969 0.9381
14.5318 6.0853 -2.5954 0.9381
14.2957 6.5966 -2.5937 0.9382
13.4776 8.0713 -2.5880 0.9383
12.8447 8.9984 -2.5836 0.9384
12.1464 9.8748 -2.5788 0.9385
10.9908 -8.1882 -2.5761 0.9457
11.2844 -7.7956 -2.5779 0.9457
12.3100 -6.1224 -2.5842 0.9456
12.7282 -5.2323 -2.5867 0.9455
12.9125 -4.7759 -2.5877 0.9455
13.2300 -3.8439 -2.5896 0.9455
13.3628 -3.3694 -2.5903 0.9455
13.7592 -0.9403 -2.5922 0.9454
13.7794 0.5381 -2.5920 0.9454
13.7017 1.5208 -2.5912 0.9454
13.4496 2.9766 -2.5892 0.9455
13.3299 3.4542 -2.5882 0.9455
13.0382 4.3941 -2.5861 0.9455
12.8666 4.8551 -2.5849 0.9456
12.6782 5.3091 -2.5835 0.9456
12.4733 5.7557 -2.5821 0.9456
12.2522 6.1941 -2.5805 0.9457
12.0152 6.6239 -2.5788 0.9457
10.6058 8.6222 -2.5691 0.9459
9.4694 -7.5959 -2.5660 0.9516
10.9066 -5.4244 -2.5748 0.9514
11.0985 -5.0333 -2.5760 0.9514
11.5864 -3.8205 -2.5788 0.9513
11.8362 -2.9845 -2.5802 0.9513
12.0238 -2.1320 -2.5812 0.9513
12.1863 -0.8328 -2.5819 0.9513
12.2084 -0.3966 -2.5820 0.9513
12.2043 0.4766 -2.5817 0.9513
12.0777 1.7796 -2.5805 0.9513
11.9137 2.6367 -2.5792 0.9513
11.8081 3.0599 -2.5784 0.9514
11.6871 3.4788 -2.5775 0.9514
11.5508 3.8929 -2.5765 0.9514
11.0523 5.1000 -2.5730 0.9515
10.8571 5.4889 -2.5716 0.9515
10.4250 6.2432 -2.5686 0.9515
9.9393 6.9630 -2.5652 0.9516
9.4029 7.6444 -2.5615 0.9517
8.4951 -6.8143 -2.5595 0.9562
9.1911 -5.8755 -2.5638 0.9562
10.3888 -3.4256 -2.5709 0.9560
10.5074 -3.0528 -2.5716 0.9560
10.7031 -2.2953 -2.5727 0.9560
10.7800 -1.9115 -2.5731 0.9560
10.9254 -0.7466 -2.5737 0.9560
10.9453 -0.3556 -2.5737 0.9560
10.9417 0.4273 -2.5735 0.9560
10.9183 0.8181 -2.5732 0.9560
10.8806 1.2077 -2.5729 0.9560
10.8286 1.5956 -2.5724 0.9560
10.0740 4.2186 -2.5668 0.9561
8.9168 6.2467 -2.5587 0.9563
8.6823 6.5573 -2.5571 0.9563
8.4369 6.8590 -2.5554 0.9563
8.5127 -5.0225 -2.5591 0.9600
8.6905 -4.7170 -2.5602 0.9600
8.8570 -4.4050 -2.5612 0.9600
9.0121 -4.0871 -2.5621 0.9599
9.1554 -3.7636 -2.5630 0.9599
9.2869 -3.4349 -2.5637 0.9599
9.5134 -2.7640 -2.5650 0.9599
9.6081 -2.4227 -2.5656 0.9599
9.7597 -1.7306 -2.5664 0.9599
3.9609 -0.5571 -1.0356 0.9836
3.8553 -0.4023 -1.0036 0.9841
3.8501 0.0126 -0.9969 0.9842
3.8502 0.1504 -0.9976 0.9842
4.0026 0.4443 -1.0427 0.9835
9.7442 1.7938 -2.5653 0.9599
9.5866 2.4842 -2.5641 0.9599
9.3789 3.1609 -2.5626 0.9599
9.2568 3.4929 -2.5617 0.9599
9.1226 3.8202 -2.5607 0.9600
8.8189 4.4584 -2.5586 0.9600
8.4698 5.0723 -2.5561 0.9600
7.8652 5.9402 -2.5520 0.9601
7.0253 -5.6353 -2.5496 0.9633
7.2258 -5.3832 -2.5508 0.9632
7.4170 -5.1239 -2.5520 0.9632
7.7707 -4.5847 -2.5542 0.9632
7.9327 -4.3057 -2.5551 0.9632
8.0844 -4.0208 -2.5561 0.9632
8.2257 -3.7304 -2.5569 0.9631
8.3563 -3.4351 -2.5577 0.9631
8.4761 -3.1350 -2.5584 0.9631
8.7687 -2.2110 -2.5600 0.9631
8.8435 -1.8965 -2.5604 0.9631
3.5576 -0.3713 -1.0126 0.9852
3.5630 -0.2435 -1.0110 0.9853
3.5668 0.0117 -1.0097 0.9853
3.5675 0.1393 -1.0107 0.9853
3.5879 0.2688 -1.0185 0.9852
3.6737 0.4078 -1.0464 0.9848
4.8244 0.7109 -1.3805 0.9799
8.8270 1.9535 -2.5593 0.9631
8.7495 2.2673 -2.5587 0.9631
8.6606 2.5779 -2.5580 0.9631
8.5604 2.8850 -2.5573 0.9631
8.1940 3.7810 -2.5547 0.9632
8.0504 4.0699 -2.5537 0.9632
7.3745 5.1662 -2.5490 0.9633
6.9825 -4.4636 -2.5490 0.9659
7.1403 -4.2128 -2.5500 0.9659
7.2889 -3.9562 -2.5509 0.9659
7.5577 -3.4275 -2.5525 0.9659
7.7875 -2.8803 -2.5538 0.9658
7.8872 -2.6007 -2.5544 0.9658
7.9767 -2.3175 -2.5549 0.9658
3.3819 -0.4757 -1.0504 0.9858
3.3483 -0.3494 -1.0355 0.9860
3.3525 -0.2291 -1.0336 0.9860
3.3544 -0.1090 -1.0323 0.9861
3.3560 0.0110 -1.0322 0.9861
3.3543 0.2513 -1.0346 0.9860
3.4203 0.3796 -1.0585 0.9857
8.2199 1.2112 -2.5555 0.9658
8.1701 1.5040 -2.5551 0.9658
8.1096 1.7948 -2.5547 0.9658
8.0385 2.0831 -2.5541 0.9658
7.8652 2.6507 -2.5528 0.9659
7.6511 3.2040 -2.5513 0.9659
7.5291 3.4742 -2.5504 0.9659
7.3974 3.7398 -2.5495 0.9659
7.2562 4.0003 -2.5485 0.9659
7.1056 4.2553 -2.5475 0.9659
6.7774 4.7479 -2.5452 0.9660
6.6002 4.9847 -2.5440 0.9660
5.9664 -4.7859 -2.5425 0.9683
6.2981 -4.3509 -2.5445 0.9682
6.5976 -3.8926 -2.5463 0.9682
6.7348 -3.6555 -2.5472 0.9682
6.8632 -3.4134 -2.5479 0.9682
6.9828 -3.1668 -2.5487 0.9682
7.0934 -2.9159 -2.5493 0.9682
7.1947 -2.6611 -2.5499 0.9682
7.4424 -1.8766 -2.5513 0.9682
3.2445 -0.5753 -1.0953 0.9862
3.1821 -0.4476 -1.0681 0.9865
3.1751 -0.3314 -1.0612 0.9866
3.1789 -0.2172 -1.0591 0.9867
3.1803 -0.1033 -1.0577 0.9867
3.1783 0.2381 -1.0594 0.9867
3.2236 0.3578 -1.0781 0.9864
7.4922 1.6581 -2.5507 0.9682
7.4267 1.9245 -2.5502 0.9682
7.1727 2.7065 -2.5483 0.9682
7.0693 2.9603 -2.5476 0.9682
6.8353 3.4556 -2.5459 0.9682
6.5660 3.9322 -2.5440 0.9683
6.0996 4.6067 -2.5408 0.9683
5.9283 4.8196 -2.5396 0.9683
5.6971 -4.2444 -2.5406 0.9703
5.8473 -4.0395 -2.5415 0.9703
5.9901 -3.8292 -2.5424 0.9703
6.1250 -3.6138 -2.5432 0.9702
6.2522 -3.3936 -2.5439 0.9702
6.3714 -3.1688 -2.5447 0.9702
6.4822 -2.9398 -2.5453 0.9702
6.7641 -2.2304 -2.5470 0.9702
6.8406 -1.9875 -2.5474 0.9702
6.9083 -1.7419 -2.5478 0.9702
3.0849 -0.5470 -1.1204 0.9868
3.0443 -0.3177 -1.0946 0.9871
3.0514 -0.0991 -1.0918 0.9871
3.0518 0.0100 -1.0913 0.9871
7.0064 1.2898 -2.5476 0.9702
6.9547 1.5392 -2.5472 0.9702
6.8939 1.7865 -2.5467 0.9702
6.7458 2.2735 -2.5457 0.9702
6.4584 2.9802 -2.5436 0.9702
5.9595 3.8649 -2.5401 0.9703
5.6636 4.2774 -2.5381 0.9703
5.5047 4.4752 -2.5370 0.9703
5.1643 -4.1425 -2.5371 0.9720
5.3109 -3.9567 -2.5380 0.9720
5.4508 -3.7656 -2.5388 0.9720
5.5837 -3.5695 -2.5396 0.9720
5.9388 -2.9537 -2.5418 0.9720
6.0421 -2.7401 -2.5424 0.9720
6.2250 -2.3024 -2.5435 0.9720
6.3045 -2.0788 -2.5439 0.9720
6.3758 -1.8524 -2.5443 0.9720
2.9808 -0.6392 -1.1683 0.9870
2.9441 -0.5220 -1.1458 0.9873
2.9228 -0.3050 -1.1261 0.9875
2.9279 -0.2001 -1.1246 0.9875
2.9308 -0.0952 -1.1237 0.9875
2.9312 0.0096 -1.1233 0.9875
2.9293 0.1144 -1.1234 0.9875
6.4821 1.4346 -2.5442 0.9720
6.3608 1.8934 -2.5432 0.9720
6.2065 2.3419 -2.5421 0.9720
6.0201 2.7779 -2.5408 0.9720
5.6829 3.4033 -2.5384 0.9720
5.5556 3.6030 -2.5375 0.9720
4.8312 -3.8753 -2.5348 0.9736
5.5551 -2.7628 -2.5392 0.9735
5.9635 -1.7326 -2.5416 0.9735
2.8173 -0.4996 -1.1710 0.9877
2.8077 -0.3949 -1.1604 0.9878
2.8175 -0.0915 -1.1537 0.9879
2.8179 0.0092 -1.1533 0.9879
2.8161 0.1100 -1.1534 0.9879
2.8196 0.3130 -1.1611 0.9878
2.8500 0.4199 -1.1790 0.9876
6.1079 1.1244 -2.5418 0.9735
6.0630 1.3418 -2.5414 0.9735
5.4282 2.9925 -2.5369 0.9736
5.1973 3.3706 -2.5353 0.9736
5.0717 3.5530 -2.5344 0.9736
4.9397 3.7307 -2.5335 0.9736
4.8014 3.9034 -2.5325 0.9736
4.7846 -3.3053 -2.5344 0.9749
5.0112 -2.9566 -2.5357 0.9749
5.4629 -2.0205 -2.5384 0.9749
5.5949 -1.6256 -2.5392 0.9749
2.7177 -0.4819 -1.2029 0.9880
2.7224 -0.3829 -1.1982 0.9881
2.7227 -0.1861 -1.1894 0.9882
2.7255 -0.0885 -1.1884 0.9882
2.7250 0.0089 -1.1876 0.9882
2.7229 0.1063 -1.1876 0.9882
2.7412 0.4039 -1.2075 0.9880
2.7728 0.5104 -1.2287 0.9878
5.5821 1.6616 -2.5382 0.9749
5.5181 1.8597 -2.5378 0.9749
5.4470 2.0553 -2.5372 0.9749
5.3688 2.2482 -2.5367 0.9749
5.1919 2.6248 -2.5354 0.9749
4.8768 3.1628 -2.5332 0.9750
4.7592 3.3340 -2.5324 0.9750
4.5057 3.6630 -2.5307 0.9750
4.3862 -3.2677 -2.5318 0.9762
4.6109 -2.9476 -2.5331 0.9762
4.8121 -2.6118 -2.5344 0.9762
4.9034 -2.4387 -2.5349 0.9762
4.9884 -2.2623 -2.5354 0.9761
5.0670 -2.0829 -2.5359 0.9761
5.1391 -1.9008 -2.5363 0.9761
5.2632 -1.5292 -2.5370 0.9761
2.6340 -0.5648 -1.2469 0.9882
2.6331 -0.4669 -1.2378 0.9883
2.6431 -0.2758 -1.2301 0.9884
2.6476 0.1034 -1.2265 0.9884
2.6456 0.1982 -1.2280 0.9884
2.6432 0.2934 -1.2310 0.9883
5.1911 1.7495 -2.5357 0.9761
5.0508 2.1151 -2.5346 0.9762
4.9709 2.2938 -2.5341 0.9762
4.7919 2.6417 -2.5328 0.9762
4.5883 2.9757 -2.5314 0.9762
4.4777 3.1368 -2.5306 0.9762
4.2394 3.4465 -2.5290 0.9762
4.0224 -3.2265 -2.5294 0.9773
4.2449 -2.9325 -2.5307 0.9773
4.3481 -2.7795 -2.5314 0.9773
4.7779 -1.9641 -2.5340 0.9772
4.9075 -1.6182 -2.5347 0.9772
4.9628 -1.4419 -2.5350 0.9772
2.6037 -0.5583 -1.3062 0.9882
2.6048 -0.3664 -1.2903 0.9883
2.6038 -0.2717 -1.2841 0.9884
2.6037 0.1017 -1.2782 0.9885
2.6047 0.1952 -1.2813 0.9884
2.6060 0.2892 -1.2861 0.9884
2.6219 0.4827 -1.3077 0.9882
5.0456 1.1167 -2.5349 0.9772
5.0018 1.2961 -2.5345 0.9772
4.8949 1.6497 -2.5338 0.9772
4.6061 2.3286 -2.5317 0.9773
4.5188 2.4912 -2.5311 0.9773
4.4257 2.6504 -2.5304 0.9773
4.3270 2.8062 -2.5297 0.9773
4.2227 2.9582 -2.5290 0.9773
4.1130 3.1063 -2.5283 0.9773
3.8010 -3.0490 -2.5279 0.9783
3.9086 -2.9119 -2.5285 0.9783
4.1087 -2.6265 -2.5298 0.9783
4.2008 -2.4785 -2.5303 0.9783
4.2877 -2.3272 -2.5309 0.9783
4.4446 -2.0157 -2.5318 0.9782
4.5146 -1.8558 -2.5322 0.9782
4.5787 -1.6935 -2.5326 0.9782
4.6369 -1.5290 -2.5329 0.9782
2.6007 -0.6558 -1.3914 0.9880
2.5808 -0.1764 -1.3420 0.9884
2.5806 -0.0838 -1.3395 0.9884
2.5820 0.1935 -1.3432 0.9884
2.5827 0.2867 -1.3481 0.9884
4.6787 1.3927 -2.5324 0.9782
4.5004 1.8846 -2.5311 0.9783
4.0889 2.6518 -2.5282 0.9783
3.7783 3.0717 -2.5261 0.9783
3.7972 -2.6232 -2.5277 0.9792
3.8894 -2.4863 -2.5283 0.9792
4.2073 -1.9080 -2.5302 0.9792
4.2735 -1.7567 -2.5306 0.9791
2.6336 -0.7652 -1.5021 0.9876
2.5600 0.0084 -1.4021 0.9884
2.5598 0.1000 -1.4031 0.9884
2.5576 0.2839 -1.4094 0.9883
4.4737 1.1593 -2.5311 0.9791
4.4288 1.3183 -2.5308 0.9791
4.2601 1.7840 -2.5296 0.9792
4.1928 1.9347 -2.5291 0.9792
4.0422 2.2284 -2.5280 0.9792
3.7776 2.6464 -2.5262 0.9792
3.6796 2.7790 -2.5255 0.9792
3.4119 -2.7368 -2.5253 0.9800
3.5084 -2.6137 -2.5259 0.9800
3.6003 -2.4872 -2.5264 0.9800
3.6878 -2.3574 -2.5270 0.9800
3.7704 -2.2245 -2.5275 0.9800
3.9889 -1.8090 -2.5288 0.9800
4.1092 -1.5198 -2.5295 0.9800
2.6053 -0.7569 -1.5664 0.9875
2.5402 -0.6405 -1.5125 0.9880
2.5346 -0.5435 -1.4966 0.9881
2.5379 -0.3570 -1.4797 0.9882
2.5367 -0.2647 -1.4725 0.9883
2.5374 -0.0824 -1.4657 0.9883
2.5376 0.0083 -1.4651 0.9883
2.5372 0.0991 -1.4660 0.9883
2.5380 0.1902 -1.4695 0.9883
2.5371 0.2816 -1.4738 0.9883
2.5896 0.5731 -1.5313 0.9878
4.1989 1.2498 -2.5293 0.9800
4.1510 1.3989 -2.5290 0.9800
4.0977 1.5462 -2.5286 0.9800
3.9065 1.9749 -2.5272 0.9800
3.8326 2.1129 -2.5267 0.9800
3.7538 2.2480 -2.5262 0.9800
3.6702 2.3802 -2.5256 0.9800
3.3917 2.7574 -2.5237 0.9800
