ply
format ascii 1.0
element vertex 557
property float32 x
property float32 y
property float32 z
property float32 I
end_header
44.5525 -20.7192 8.6638 0.8191
45.0828 -17.1841 8.5072 0.8220
45.6471 -15.5639 8.5038 0.8221
44.0569 -11.6007 8.0332 0.8311
45.7753 -8.6296 8.2136 0.8276
47.8533 -7.2698 8.5347 0.8215
48.1043 -2.1212 8.4903 0.8224
31.4318 -27.5586 6.4039 0.8444
31.4089 -25.6216 6.2095 0.8487
32.2362 -24.4401 6.1973 0.8490
46.4586 -15.8406 7.5195 0.8199
46.5399 -7.0703 7.2115 0.8266
46.5883 -2.0543 7.1440 0.8280
46.6046 -0.3961 7.1398 0.8281
31.4755 -31.8281 5.8291 0.8348
31.4496 -29.6172 5.6256 0.8401
31.4254 -27.5530 5.4424 0.8449
46.3234 -15.7945 6.3733 0.8208
46.3580 -12.2066 6.2426 0.8242
46.7260 -8.8088 6.1919 0.8255
48.5951 -7.3825 6.4007 0.8201
31.5265 -36.7758 5.2015 0.8229
31.4964 -34.2005 4.9926 0.8294
31.4190 -27.5474 4.4870 0.8453
32.2376 -24.4411 4.3442 0.8498
35.1844 -24.7555 4.6196 0.8411
31.4619 -31.8143 3.7877 0.8356
31.4126 -27.5418 3.5365 0.8456
31.4299 -29.5986 2.6772 0.8411
31.3843 -25.6015 2.5115 0.8502
32.2390 -24.4422 2.5088 0.8503
35.1860 -24.7567 2.6679 0.8416
42.3904 -25.5255 3.0684 0.8201
31.4753 -34.1775 1.8321 0.8303
31.4483 -31.8006 1.7635 0.8361
31.4234 -29.5925 1.7020 0.8413
31.4000 -27.5307 1.6466 0.8461
31.3781 -25.5965 1.5967 0.8504
32.2397 -24.4427 1.5953 0.8505
31.4971 -36.7415 0.8175 0.8240
31.4683 -34.1699 0.7847 0.8304
31.4416 -31.7938 0.7553 0.8362
31.3937 -27.5252 0.7053 0.8462
31.3720 -25.5916 0.6839 0.8505
32.2404 -24.4433 0.6834 0.8506
35.1876 -24.7578 0.7268 0.8419
38.5386 -25.1155 0.7770 0.8319
42.3926 -25.5268 0.8359 0.8204
31.4898 -36.7330 -0.2724 0.8240
31.4613 -34.1623 -0.2615 0.8305
31.4349 -31.7870 -0.2517 0.8363
31.4104 -29.5802 -0.2429 0.8415
35.1885 -24.7584 -0.2422 0.8419
38.5395 -25.1161 -0.2590 0.8319
42.3937 -25.5275 -0.2786 0.8204
44.3526 -20.6263 -0.2754 0.8223
44.5372 -1.9639 -0.2510 0.8367
17.1507 -46.5465 -1.3968 0.8200
17.3218 -42.3087 -1.2873 0.8328
19.0880 -42.2700 -1.3060 0.8306
31.4281 -31.7802 -1.2585 0.8362
31.4038 -29.5741 -1.2147 0.8415
31.3812 -27.5142 -1.1752 0.8462
31.3599 -25.5816 -1.1396 0.8505
32.2418 -24.4443 -1.1393 0.8505
35.1893 -24.7590 -1.2115 0.8418
37.7154 -17.5396 -1.1712 0.8467
37.7211 -15.9364 -1.1530 0.8489
37.7322 -12.8652 -1.1225 0.8525
37.6926 -8.5041 -1.0880 0.8567
37.7577 -5.7361 -1.0754 0.8583
37.7625 -4.3696 -1.0704 0.8589
37.7407 -3.0118 -1.0661 0.8594
37.7770 -0.3211 -1.0638 0.8597
17.1432 -46.5262 -2.5146 0.8199
31.4752 -36.7160 -2.4526 0.8239
31.4214 -31.7733 -2.2662 0.8361
31.3974 -29.5680 -2.1872 0.8414
35.1901 -24.7596 -2.1821 0.8417
38.5414 -25.1173 -2.3330 0.8317
37.7091 -17.5367 -2.1091 0.8466
37.7150 -15.9338 -2.0764 0.8488
37.7207 -14.3779 -2.0472 0.8507
37.7262 -12.8632 -2.0214 0.8525
37.7369 -9.9366 -1.9790 0.8553
37.7520 -5.7353 -1.9365 0.8582
37.7569 -4.3689 -1.9276 0.8588
37.7666 -1.6653 -1.9172 0.8595
37.7713 -0.3211 -1.9156 0.8596
7.2975 -34.1101 -2.5576 0.8694
8.5329 -33.9367 -2.5658 0.8691
12.2126 -33.1444 -2.5899 0.8679
13.4245 -32.7895 -2.5979 0.8675
14.6261 -32.3891 -2.6058 0.8672
16.9913 -31.4531 -2.6212 0.8664
18.1512 -30.9180 -2.6288 0.8661
19.2936 -30.3386 -2.6362 0.8657
20.4166 -29.7153 -2.6435 0.8654
21.5184 -29.0489 -2.6507 0.8650
22.5971 -28.3399 -2.6576 0.8647
24.6785 -26.7971 -2.6711 0.8641
25.6775 -25.9650 -2.6775 0.8638
28.4871 -23.2381 -2.6956 0.8629
29.3557 -22.2561 -2.7011 0.8626
29.5060 -20.7602 -2.6453 0.8653
29.4959 -19.2224 -2.5814 0.8683
30.4721 -16.9024 -2.5550 0.8696
31.6904 -14.7376 -2.5626 0.8692
32.2370 -13.6194 -2.5660 0.8690
32.7403 -12.4795 -2.5691 0.8689
34.5780 -6.5187 -2.5800 0.8684
35.1945 -1.5519 -2.5830 0.8682
6.0835 -24.1955 -2.3952 0.9046
8.3325 -25.3593 -2.5627 0.8983
10.1611 -24.8185 -2.5747 0.8978
11.0624 -24.4974 -2.5806 0.8976
11.9534 -24.1429 -2.5864 0.8974
12.8328 -23.7552 -2.5921 0.8972
15.3877 -22.3961 -2.6087 0.8966
17.0087 -21.3313 -2.6192 0.8962
18.5524 -20.1448 -2.6292 0.8958
19.2916 -19.5076 -2.6340 0.8956
20.0079 -18.8422 -2.6386 0.8954
21.3668 -17.4298 -2.6473 0.8951
23.7576 -14.3056 -2.6624 0.8945
24.7734 -12.6111 -2.6688 0.8943
25.2332 -11.7347 -2.6717 0.8942
25.6598 -10.8407 -2.6743 0.8941
26.0525 -9.9304 -2.6767 0.8940
26.7335 -8.0660 -2.6808 0.8939
27.0206 -7.1148 -2.6825 0.8938
27.4853 -5.1815 -2.6852 0.8937
27.6622 -4.2024 -2.6862 0.8937
27.8015 -3.2170 -2.6869 0.8936
27.9032 -2.2267 -2.6874 0.8936
27.9670 -1.2332 -2.6876 0.8936
27.9928 -0.2379 -2.6875 0.8936
4.4454 -20.7785 -2.5240 0.9180
6.7034 -20.4015 -2.5509 0.9171
7.4387 -20.1882 -2.5557 0.9170
8.8876 -19.6813 -2.5652 0.9167
9.5992 -19.3879 -2.5698 0.9165
10.3008 -19.0681 -2.5744 0.9164
12.3360 -17.9545 -2.5876 0.9160
12.9878 -17.5330 -2.5919 0.9159
13.6247 -17.0872 -2.5960 0.9157
14.2456 -16.6176 -2.6000 0.9156
15.4361 -15.6090 -2.6076 0.9154
16.0037 -15.0712 -2.6113 0.9153
16.5517 -14.5121 -2.6148 0.9151
18.0697 -12.7137 -2.6245 0.9148
20.1326 -9.3627 -2.6374 0.9144
20.4689 -8.6477 -2.6395 0.9144
21.0606 -7.1808 -2.6431 0.9143
21.3149 -6.4311 -2.6446 0.9142
21.5410 -5.6720 -2.6460 0.9142
21.7385 -4.9045 -2.6471 0.9141
21.9071 -4.1299 -2.6481 0.9141
22.0464 -3.3493 -2.6488 0.9141
22.1563 -2.5638 -2.6494 0.9141
22.2870 -0.9827 -2.6500 0.9141
22.3076 -0.1896 -2.6499 0.9141
4.3623 -17.3495 -2.5348 0.9303
6.2148 -16.8668 -2.5469 0.9300
7.4208 -16.4332 -2.5548 0.9297
8.0125 -16.1833 -2.5587 0.9296
10.2853 -14.9697 -2.5734 0.9293
11.8681 -13.8441 -2.5837 0.9290
12.3683 -13.4301 -2.5869 0.9289
13.3230 -12.5467 -2.5930 0.9287
13.7761 -12.0785 -2.5959 0.9287
14.2121 -11.5934 -2.5987 0.9286
15.4110 -10.0433 -2.6063 0.9284
15.7722 -9.4972 -2.6086 0.9283
16.7323 -7.7814 -2.6146 0.9282
17.2646 -6.5807 -2.6179 0.9281
17.4971 -5.9658 -2.6193 0.9280
18.1946 -3.4300 -2.6234 0.9279
18.3095 -2.7816 -2.6240 0.9279
18.4662 -1.4736 -2.6248 0.9279
18.5079 -0.8161 -2.6249 0.9279
18.5251 -0.1575 -2.6249 0.9279
3.2087 -14.9978 -2.5266 0.9397
4.8075 -14.6314 -2.5371 0.9395
5.8510 -14.2911 -2.5440 0.9393
6.8698 -13.8753 -2.5506 0.9392
7.3682 -13.6396 -2.5539 0.9391
8.3396 -13.1138 -2.5602 0.9389
10.1613 -11.8532 -2.5720 0.9387
10.5877 -11.4966 -2.5747 0.9386
11.0011 -11.1243 -2.5774 0.9385
11.7869 -10.3344 -2.5824 0.9384
12.8542 -9.0441 -2.5892 0.9383
13.1781 -8.5881 -2.5913 0.9382
13.4852 -8.1201 -2.5932 0.9382
14.3013 -6.6508 -2.5983 0.9381
14.7536 -5.6236 -2.6011 0.9380
14.9512 -5.0978 -2.6023 0.9380
15.4257 -3.4803 -2.6051 0.9379
15.5436 -2.9303 -2.6057 0.9379
15.6412 -2.3762 -2.6063 0.9379
15.7182 -1.8188 -2.6067 0.9379
15.8100 -0.6971 -2.6070 0.9379
2.8089 -13.1292 -2.5236 0.9468
3.2780 -13.0369 -2.5267 0.9468
4.2064 -12.8018 -2.5328 0.9466
4.6644 -12.6591 -2.5358 0.9466
5.1176 -12.4998 -2.5388 0.9465
5.5653 -12.3241 -2.5417 0.9465
6.0068 -12.1321 -2.5446 0.9464
6.4415 -11.9241 -2.5474 0.9463
7.6994 -11.2061 -2.5556 0.9462
8.1013 -10.9364 -2.5582 0.9461
8.8754 -10.3532 -2.5632 0.9460
9.2466 -10.0404 -2.5656 0.9460
9.6064 -9.7140 -2.5679 0.9459
9.9544 -9.3744 -2.5701 0.9459
10.6128 -8.6573 -2.5743 0.9458
11.2180 -7.8929 -2.5782 0.9457
11.4995 -7.4942 -2.5799 0.9457
11.7664 -7.0851 -2.5816 0.9456
12.6800 -5.3570 -2.5873 0.9455
13.0397 -4.4460 -2.5895 0.9455
13.1943 -3.9810 -2.5904 0.9455
13.6388 -2.0720 -2.5930 0.9454
13.7854 -0.6079 -2.5936 0.9454
3.3252 -11.4815 -2.5267 0.9523
3.7353 -11.3681 -2.5294 0.9523
4.9401 -10.9396 -2.5373 0.9521
5.3313 -10.7679 -2.5398 0.9521
5.7165 -10.5819 -2.5423 0.9520
6.0951 -10.3820 -2.5448 0.9520
6.4665 -10.1683 -2.5472 0.9519
6.8303 -9.9412 -2.5496 0.9519
7.1860 -9.7008 -2.5519 0.9518
8.5174 -8.6127 -2.5604 0.9517
9.1217 -7.9977 -2.5643 0.9516
9.4070 -7.6737 -2.5661 0.9516
9.6805 -7.3393 -2.5679 0.9515
10.1904 -6.6411 -2.5711 0.9515
10.8574 -5.5270 -2.5753 0.9514
11.0522 -5.1399 -2.5765 0.9514
11.2329 -4.7456 -2.5776 0.9514
11.3990 -4.3449 -2.5786 0.9513
11.5504 -3.9382 -2.5795 0.9513
11.6869 -3.5261 -2.5804 0.9513
11.8081 -3.1092 -2.5811 0.9513
11.9141 -2.6880 -2.5817 0.9513
12.0045 -2.2631 -2.5822 0.9513
12.0793 -1.8351 -2.5826 0.9513
12.1383 -1.4045 -2.5829 0.9513
12.2088 -0.5383 -2.5832 0.9513
12.2201 -0.1039 -2.5832 0.9513
2.6165 -10.4060 -2.5218 0.9569
2.9877 -10.3164 -2.5242 0.9568
3.3559 -10.2134 -2.5266 0.9568
3.7204 -10.0971 -2.5290 0.9567
4.0810 -9.9677 -2.5314 0.9567
5.1331 -9.5021 -2.5382 0.9566
5.4726 -9.3217 -2.5404 0.9566
6.1315 -8.9241 -2.5447 0.9565
6.4502 -8.7075 -2.5468 0.9565
6.7611 -8.4793 -2.5488 0.9564
7.3578 -7.9894 -2.5526 0.9564
7.6427 -7.7282 -2.5545 0.9563
7.9181 -7.4567 -2.5562 0.9563
8.4391 -6.8841 -2.5596 0.9562
8.6838 -6.5836 -2.5611 0.9562
8.9176 -6.2743 -2.5626 0.9562
9.1400 -5.9565 -2.5640 0.9562
9.7366 -4.9565 -2.5678 0.9561
9.9108 -4.6090 -2.5688 0.9561
10.5868 -2.7876 -2.5729 0.9560
10.6814 -2.4099 -2.5735 0.9560
10.8292 -1.6452 -2.5743 0.9560
10.9205 -0.8715 -2.5747 0.9560
10.9450 -0.4826 -2.5748 0.9560
10.9552 -0.0931 -2.5748 0.9560
2.3733 -9.4389 -2.5200 0.9606
2.7098 -9.3567 -2.5222 0.9605
3.0435 -9.2625 -2.5244 0.9605
4.3405 -8.7667 -2.5328 0.9604
5.5570 -8.0879 -2.5408 0.9603
5.8454 -7.8910 -2.5426 0.9602
6.1267 -7.6836 -2.5444 0.9602
6.6664 -7.2386 -2.5479 0.9602
7.6441 -6.2356 -2.5542 0.9601
7.8653 -5.9631 -2.5556 0.9600
8.0766 -5.6826 -2.5569 0.9600
8.2777 -5.3945 -2.5582 0.9600
8.6480 -4.7969 -2.5605 0.9600
8.8168 -4.4882 -2.5616 0.9599
8.9742 -4.1734 -2.5625 0.9599
9.1202 -3.8531 -2.5634 0.9599
9.3766 -3.1971 -2.5650 0.9599
9.4868 -2.8624 -2.5657 0.9599
9.6703 -2.1818 -2.5667 0.9599
9.7434 -1.8368 -2.5672 0.9599
9.8038 -1.4894 -2.5675 0.9599
3.8808 -0.4491 -1.0115 0.9840
3.8431 -0.3067 -0.9982 0.9842
3.8467 -0.1696 -0.9969 0.9842
3.8480 -0.0327 -0.9964 0.9842
1.8596 -8.6923 -2.5164 0.9637
2.1693 -8.6277 -2.5185 0.9637
2.4767 -8.5519 -2.5205 0.9637
2.7814 -8.4652 -2.5225 0.9636
3.0831 -8.3674 -2.5244 0.9636
3.3813 -8.2589 -2.5264 0.9636
3.6757 -8.1396 -2.5283 0.9636
4.5316 -7.7189 -2.5339 0.9635
4.8066 -7.5582 -2.5357 0.9634
5.3389 -7.2072 -2.5391 0.9634
5.5954 -7.0174 -2.5408 0.9634
6.0876 -6.6102 -2.5440 0.9633
6.7685 -5.9345 -2.5483 0.9633
7.5564 -4.9245 -2.5533 0.9632
7.8938 -4.3786 -2.5554 0.9632
8.0476 -4.0967 -2.5564 0.9632
8.1910 -3.8092 -2.5573 0.9631
8.3239 -3.5167 -2.5581 0.9631
8.4462 -3.2194 -2.5589 0.9631
8.8251 -1.9911 -2.5611 0.9631
8.8916 -1.6762 -2.5615 0.9631
3.5606 -0.2841 -1.0112 0.9853
3.5634 -0.1571 -1.0098 0.9853
1.9956 -7.9368 -2.5172 0.9663
2.2782 -7.8666 -2.5190 0.9663
2.5584 -7.7863 -2.5209 0.9663
3.1097 -7.5956 -2.5245 0.9662
3.3803 -7.4855 -2.5262 0.9662
3.6468 -7.3656 -2.5280 0.9662
4.4193 -6.9491 -2.5330 0.9661
4.9081 -6.6257 -2.5362 0.9661
5.1437 -6.4509 -2.5377 0.9661
5.3729 -6.2675 -2.5392 0.9660
5.8113 -5.8763 -2.5420 0.9660
6.0197 -5.6689 -2.5433 0.9660
6.2206 -5.4541 -2.5446 0.9660
6.4137 -5.2319 -2.5458 0.9660
6.5988 -5.0029 -2.5470 0.9659
7.3942 -3.7641 -2.5520 0.9659
7.7599 -2.9578 -2.5543 0.9658
7.9541 -2.3999 -2.5554 0.9658
8.0359 -2.1159 -2.5559 0.9658
3.3455 -0.3871 -1.0359 0.9860
3.3507 -0.2674 -1.0339 0.9860
3.3534 -0.1479 -1.0324 0.9861
3.3549 -0.0285 -1.0319 0.9861
1.5825 -7.3966 -2.5143 0.9686
2.3660 -7.2007 -2.5195 0.9686
3.3719 -6.8102 -2.5260 0.9685
3.8521 -6.5615 -2.5292 0.9684
4.5369 -6.1247 -2.5336 0.9684
5.1718 -5.6157 -2.5377 0.9683
5.3709 -5.4310 -2.5390 0.9683
5.5633 -5.2391 -2.5402 0.9683
5.7487 -5.0403 -2.5414 0.9683
5.9270 -4.8349 -2.5425 0.9683
6.0978 -4.6230 -2.5436 0.9683
6.5630 -3.9519 -2.5466 0.9682
6.7017 -3.7173 -2.5474 0.9682
7.0657 -2.9851 -2.5497 0.9682
7.1692 -2.7326 -2.5503 0.9682
7.2634 -2.4765 -2.5509 0.9682
7.4898 -1.6898 -2.5522 0.9682
3.1984 -0.4859 -1.0754 0.9865
3.1774 -0.2536 -1.0595 0.9867
3.1808 -0.0270 -1.0573 0.9867
1.4704 -6.8730 -2.5135 0.9706
2.1982 -6.6901 -2.5182 0.9705
2.4362 -6.6117 -2.5198 0.9705
2.6714 -6.5249 -2.5213 0.9705
3.1321 -6.3261 -2.5243 0.9705
3.5780 -6.0945 -2.5272 0.9704
4.0064 -5.8312 -2.5300 0.9704
4.2135 -5.6880 -2.5314 0.9704
4.6118 -5.3796 -2.5339 0.9703
5.1657 -4.8647 -2.5375 0.9703
5.3377 -4.6800 -2.5386 0.9703
5.5031 -4.4891 -2.5397 0.9703
6.0929 -3.6688 -2.5434 0.9702
6.3422 -3.2285 -2.5449 0.9702
6.5590 -2.7710 -2.5463 0.9702
6.7424 -2.2989 -2.5474 0.9702
6.9522 -1.5685 -2.5486 0.9702
3.0977 -0.5840 -1.1273 0.9867
3.0466 -0.2431 -1.0930 0.9871
3.0516 -0.0259 -1.0913 0.9871
1.3718 -6.4117 -2.5127 0.9723
1.5998 -6.3628 -2.5142 0.9723
2.0504 -6.2403 -2.5172 0.9723
2.4916 -6.0858 -2.5201 0.9722
2.7079 -5.9967 -2.5215 0.9722
2.9211 -5.8998 -2.5229 0.9722
3.1307 -5.7954 -2.5242 0.9722
3.3366 -5.6834 -2.5256 0.9722
4.1170 -5.1632 -2.5306 0.9721
4.3000 -5.0159 -2.5318 0.9721
4.8160 -4.5353 -2.5351 0.9721
5.2777 -4.0013 -2.5381 0.9720
5.4186 -3.8124 -2.5390 0.9720
5.7992 -3.2167 -2.5413 0.9720
6.0164 -2.7979 -2.5427 0.9720
6.1135 -2.5828 -2.5433 0.9720
6.2842 -2.1427 -2.5443 0.9720
6.3575 -1.9182 -2.5448 0.9720
6.4796 -1.4619 -2.5455 0.9719
2.9162 -0.4430 -1.1304 0.9874
2.9261 -0.2335 -1.1249 0.9875
2.9310 -0.0249 -1.1233 0.9875
1.2841 -6.0020 -2.5121 0.9738
1.7093 -5.9021 -2.5148 0.9738
2.3319 -5.6958 -2.5189 0.9738
2.5343 -5.6122 -2.5202 0.9737
2.7337 -5.5213 -2.5215 0.9737
2.9298 -5.4234 -2.5228 0.9737
3.8521 -4.8310 -2.5288 0.9736
4.0231 -4.6930 -2.5299 0.9736
4.1893 -4.5489 -2.5310 0.9736
4.5056 -4.2431 -2.5330 0.9736
4.6554 -4.0817 -2.5340 0.9736
4.7993 -3.9150 -2.5349 0.9736
5.0688 -3.5664 -2.5366 0.9736
5.4246 -3.0089 -2.5388 0.9735
5.7183 -2.4159 -2.5406 0.9735
5.8018 -2.2114 -2.5412 0.9735
5.8778 -2.0041 -2.5416 0.9735
5.9463 -1.7941 -2.5420 0.9735
2.8541 -0.6439 -1.1975 0.9874
2.8247 -0.5325 -1.1765 0.9877
2.8129 -0.2245 -1.1549 0.9879
2.8165 -0.1242 -1.1538 0.9879
2.8178 -0.0240 -1.1533 0.9879
1.2056 -5.6351 -2.5115 0.9752
1.4060 -5.5915 -2.5128 0.9752
1.6047 -5.5410 -2.5141 0.9751
1.8017 -5.4832 -2.5154 0.9751
2.1891 -5.3467 -2.5179 0.9751
2.3789 -5.2681 -2.5191 0.9751
2.5660 -5.1826 -2.5204 0.9751
2.9306 -4.9919 -2.5227 0.9751
3.2810 -4.7752 -2.5250 0.9750
3.4502 -4.6576 -2.5261 0.9750
3.7756 -4.4042 -2.5282 0.9750
3.9314 -4.2689 -2.5292 0.9750
4.0823 -4.1280 -2.5302 0.9750
4.2280 -3.9817 -2.5311 0.9750
4.3685 -3.8302 -2.5320 0.9750
4.8736 -3.1761 -2.5352 0.9749
4.9848 -3.0016 -2.5359 0.9749
5.1882 -2.6411 -2.5372 0.9749
5.2800 -2.4555 -2.5378 0.9749
5.3651 -2.2666 -2.5383 0.9749
5.5788 -1.6832 -2.5396 0.9749
5.6358 -1.4840 -2.5399 0.9749
2.7252 -0.0232 -1.1877 0.9882
1.5105 -5.2155 -2.5134 0.9764
1.6958 -5.1610 -2.5146 0.9763
2.0603 -5.0322 -2.5170 0.9763
2.2389 -4.9581 -2.5182 0.9763
2.4149 -4.8775 -2.5193 0.9763
2.7579 -4.6977 -2.5215 0.9763
2.9245 -4.5986 -2.5226 0.9763
3.0875 -4.4936 -2.5237 0.9763
3.4018 -4.2663 -2.5257 0.9762
3.5527 -4.1442 -2.5267 0.9762
4.1102 -3.6037 -2.5303 0.9762
4.3586 -3.3045 -2.5318 0.9762
4.4747 -3.1484 -2.5326 0.9762
4.5851 -2.9881 -2.5333 0.9762
4.6896 -2.8239 -2.5339 0.9762
4.7883 -2.6560 -2.5345 0.9762
4.8808 -2.4846 -2.5351 0.9761
5.1876 -1.7688 -2.5370 0.9761
2.6305 -0.4959 -1.2391 0.9883
2.6410 -0.3056 -1.2307 0.9883
2.6460 -0.2112 -1.2287 0.9884
1.0707 -5.0046 -2.5104 0.9775
1.2486 -4.9657 -2.5116 0.9774
1.4250 -4.9204 -2.5128 0.9774
1.9436 -4.7471 -2.5162 0.9774
2.2780 -4.6010 -2.5183 0.9774
2.7585 -4.3375 -2.5215 0.9774
3.0622 -4.1338 -2.5234 0.9773
3.6225 -3.6630 -2.5270 0.9773
4.1103 -3.1163 -2.5302 0.9773
4.3237 -2.8177 -2.5315 0.9773
4.4223 -2.6629 -2.5321 0.9773
4.6024 -2.3429 -2.5333 0.9773
4.6837 -2.1782 -2.5338 0.9772
4.8915 -1.6678 -2.5350 0.9772
4.9484 -1.4930 -2.5354 0.9772
2.6077 -0.5883 -1.3113 0.9882
2.6039 -0.3013 -1.2858 0.9884
2.6026 -0.2077 -1.2807 0.9884
2.6012 -0.1147 -1.2772 0.9885
1.3471 -4.6514 -2.5122 0.9784
1.5123 -4.6025 -2.5133 0.9784
1.6757 -4.5478 -2.5143 0.9784
2.1532 -4.3488 -2.5175 0.9784
2.3074 -4.2712 -2.5185 0.9784
2.4587 -4.1881 -2.5195 0.9784
2.6071 -4.0996 -2.5204 0.9783
2.7523 -4.0058 -2.5214 0.9783
2.8940 -3.9068 -2.5223 0.9783
3.0322 -3.8028 -2.5232 0.9783
3.1666 -3.6938 -2.5240 0.9783
3.2971 -3.5801 -2.5249 0.9783
3.4233 -3.4617 -2.5257 0.9783
3.6630 -3.2116 -2.5272 0.9783
3.8841 -2.9447 -2.5286 0.9783
3.9874 -2.8055 -2.5293 0.9783
4.2665 -2.3665 -2.5310 0.9783
4.3488 -2.2138 -2.5315 0.9783
4.6218 -1.5758 -2.5332 0.9782
2.5804 -0.4865 -1.3623 0.9882
0.9586 -4.4806 -2.5096 0.9793
1.1178 -4.4456 -2.5106 0.9793
1.7396 -4.2490 -2.5147 0.9793
2.0388 -4.1178 -2.5167 0.9793
2.1848 -4.0443 -2.5176 0.9793
2.3281 -3.9655 -2.5185 0.9792
2.6059 -3.7927 -2.5203 0.9792
2.8708 -3.6003 -2.5221 0.9792
3.1214 -3.3894 -2.5237 0.9792
3.3564 -3.1609 -2.5252 0.9792
3.5746 -2.9159 -2.5266 0.9792
3.6770 -2.7877 -2.5272 0.9792
3.7747 -2.6558 -2.5278 0.9792
3.8676 -2.5205 -2.5284 0.9792
4.2566 -1.7983 -2.5309 0.9791
4.3185 -1.6461 -2.5312 0.9791
4.3749 -1.4917 -2.5316 0.9791
4.4257 -1.3353 -2.5319 0.9791
2.5533 -0.5761 -1.4336 0.9881
2.5560 -0.4818 -1.4246 0.9882
2.5597 -0.1129 -1.4033 0.9884
1.3583 -4.1338 -2.5122 0.9801
1.7928 -3.9701 -2.5150 0.9801
2.2078 -3.7606 -2.5177 0.9801
2.3409 -3.6810 -2.5186 0.9801
2.4712 -3.5966 -2.5194 0.9800
2.5984 -3.5076 -2.5202 0.9800
2.9599 -3.2140 -2.5226 0.9800
3.0732 -3.1076 -2.5233 0.9800
3.2880 -2.8828 -2.5247 0.9800
3.3893 -2.7648 -2.5253 0.9800
3.5789 -2.5181 -2.5265 0.9800
3.6671 -2.3898 -2.5271 0.9800
3.7505 -2.2584 -2.5276 0.9800
3.8292 -2.1240 -2.5281 0.9800
4.0943 -1.5606 -2.5297 0.9800
2.5343 -0.5718 -1.4999 0.9881
2.5356 -0.4780 -1.4898 0.9882
2.5379 -0.3856 -1.4821 0.9882
2.5375 -0.0216 -1.4651 0.9883
