ply
format ascii 1.0
element vertex 547
property float32 x
property float32 y
property float32 z
property float32 I
end_header
32.5780 -13.0696 6.1894 0.8671
44.0648 -15.8752 8.2587 0.8268
46.3900 -13.0558 8.4976 0.8222
45.3074 -4.3493 8.0257 0.8312
48.1345 -1.1673 8.4899 0.8224
48.1482 0.5528 8.4904 0.8224
31.4192 -26.6293 6.3095 0.8465
31.4098 -24.7490 6.1260 0.8506
33.6116 -24.5899 6.3800 0.8449
33.2785 -22.5667 6.1597 0.8498
46.4665 -14.8879 7.4749 0.8208
46.4831 -13.0820 7.3976 0.8225
46.4996 -11.3108 7.3312 0.8239
46.5322 -7.8514 7.2292 0.8262
46.5485 -6.1533 7.1930 0.8270
46.5975 -1.1300 7.1406 0.8281
46.6141 0.5352 7.1415 0.8281
31.4614 -30.7845 5.7319 0.8373
31.4363 -28.6349 5.5374 0.8424
33.6121 -24.5904 5.4233 0.8454
36.7580 -24.9262 5.7834 0.8360
46.3140 -16.6855 6.4105 0.8199
46.3493 -13.0443 6.2701 0.8235
46.3664 -11.2785 6.2139 0.8249
46.5697 -9.5801 6.1913 0.8255
48.6042 -6.4250 6.3843 0.8206
48.6215 -4.6674 6.3607 0.8212
31.5418 -38.2879 5.3269 0.8191
31.4814 -33.0865 4.9042 0.8322
31.4546 -30.7779 4.7256 0.8377
31.4066 -26.6186 4.4208 0.8474
31.3986 -24.7401 4.2925 0.8514
33.6127 -24.5908 4.4722 0.8457
36.7587 -24.9267 4.7692 0.8364
40.3571 -25.3109 5.1155 0.8256
31.5342 -38.2787 4.1984 0.8195
31.5031 -35.5716 4.0224 0.8263
31.4745 -33.0792 3.8653 0.8325
31.4480 -30.7714 3.7246 0.8381
31.4233 -28.6231 3.5982 0.8431
31.3930 -24.7357 3.3833 0.8518
40.3579 -25.3114 4.0327 0.8259
32.5498 -13.0583 2.9689 0.8687
31.5267 -38.2696 3.0747 0.8198
31.4413 -30.7649 2.7278 0.8384
36.7600 -24.9276 2.7542 0.8369
40.3587 -25.3119 2.9541 0.8262
31.5192 -38.2605 1.9546 0.8200
31.4887 -35.5553 1.8728 0.8269
31.4606 -33.0647 1.7996 0.8330
31.4346 -30.7583 1.7342 0.8386
31.3879 -26.6028 1.6224 0.8481
33.6145 -24.5921 1.6423 0.8464
40.3595 -25.3124 1.8785 0.8264
32.5359 -13.0527 1.3823 0.8691
45.0069 -2.7025 1.7779 0.8349
31.4537 -33.0575 0.7708 0.8331
31.4041 -28.6056 0.7176 0.8437
31.3817 -26.5975 0.6949 0.8483
40.3603 -25.3128 0.8048 0.8265
44.3682 -19.6674 0.8198 0.8235
32.5289 -13.0499 0.5920 0.8692
44.5367 -2.6743 0.7537 0.8365
31.5042 -38.2423 -0.2790 0.8202
31.4469 -33.0502 -0.2568 0.8332
31.4214 -30.7454 -0.2475 0.8387
31.3977 -28.5997 -0.2391 0.8438
31.3755 -26.5923 -0.2316 0.8483
36.7620 -24.9289 -0.2501 0.8372
44.3610 -19.6642 -0.2732 0.8236
44.5301 -2.6739 -0.2512 0.8366
17.1403 -44.5160 -1.3432 0.8262
18.0540 -42.3155 -1.2954 0.8319
31.4967 -38.2332 -1.3948 0.8202
31.4672 -35.5310 -1.3364 0.8270
33.6162 -24.5933 -1.1728 0.8465
37.7113 -18.3553 -1.1810 0.8455
37.7173 -16.7192 -1.1617 0.8478
32.5151 -13.0443 -0.9865 0.8692
37.7449 -9.1813 -1.0938 0.8560
37.7500 -7.7658 -1.0852 0.8571
37.7551 -6.3705 -1.0781 0.8579
37.7650 -3.6253 -1.0683 0.8591
37.7700 -2.2679 -1.0654 0.8595
37.7749 -0.9161 -1.0640 0.8597
37.7798 0.4338 -1.0639 0.8597
18.0143 -42.2225 -2.3280 0.8321
31.4331 -33.0358 -2.3126 0.8331
31.4081 -30.7324 -2.2285 0.8386
31.3849 -28.5881 -2.1530 0.8436
33.6168 -24.5937 -2.1124 0.8463
37.7051 -18.3523 -2.1267 0.8454
37.7112 -16.7165 -2.0920 0.8477
32.5081 -13.0415 -1.7763 0.8691
37.6384 -13.5600 -2.0290 0.8519
37.7284 -12.0883 -2.0092 0.8533
37.7338 -10.6197 -1.9880 0.8547
37.7391 -9.1799 -1.9697 0.8559
37.7494 -6.3695 -1.9415 0.8578
37.7594 -3.6247 -1.9237 0.8591
37.7644 -2.2676 -1.9186 0.8594
37.7693 -0.9160 -1.9160 0.8596
37.7741 0.4337 -1.9158 0.8596
9.0344 -33.9121 -2.5732 0.8687
11.5044 -33.3891 -2.5894 0.8679
13.9440 -32.6822 -2.6053 0.8672
15.1479 -32.2600 -2.6132 0.8668
16.3387 -31.7921 -2.6209 0.8664
17.5146 -31.2787 -2.6285 0.8661
20.9345 -29.4708 -2.6506 0.8650
22.0322 -28.7805 -2.6576 0.8647
26.1630 -25.6001 -2.6839 0.8635
27.1218 -24.7048 -2.6900 0.8632
28.9386 -22.8017 -2.7014 0.8626
29.5010 -18.5022 -2.5533 0.8696
30.1674 -17.4507 -2.5554 0.8696
30.8192 -16.3874 -2.5593 0.8694
31.4303 -15.2980 -2.5630 0.8692
31.9990 -14.1844 -2.5664 0.8690
32.2981 -12.9573 -2.5516 0.8697
33.0060 -11.8910 -2.5723 0.8687
33.4422 -10.7149 -2.5748 0.8686
34.9194 -4.6160 -2.5826 0.8683
35.0700 -3.3665 -2.5832 0.8682
35.1715 -2.1119 -2.5835 0.8682
35.2236 -0.8542 -2.5834 0.8682
35.2263 0.4044 -2.5830 0.8682
6.8541 -25.7279 -2.5561 0.8985
8.7147 -25.2927 -2.5683 0.8981
11.4492 -24.3831 -2.5861 0.8974
13.2193 -23.6077 -2.5976 0.8970
14.9342 -22.6999 -2.6086 0.8966
15.7678 -22.1974 -2.6140 0.8964
17.3807 -21.0980 -2.6243 0.8960
18.1574 -20.5023 -2.6293 0.8958
18.9125 -19.8768 -2.6341 0.8956
19.6450 -19.2223 -2.6387 0.8954
22.3236 -16.3317 -2.6555 0.8948
22.9248 -15.5456 -2.6592 0.8947
24.0378 -13.9049 -2.6660 0.8944
25.4695 -11.2900 -2.6747 0.8941
26.2557 -9.4591 -2.6793 0.8939
26.5962 -8.5214 -2.6812 0.8938
26.9007 -7.5708 -2.6829 0.8938
27.5936 -4.6559 -2.6866 0.8936
27.8678 -2.6752 -2.6877 0.8936
27.9477 -1.6781 -2.6879 0.8936
27.9892 -0.6788 -2.6879 0.8936
6.2651 -20.5376 -2.5506 0.9171
8.4738 -19.8610 -2.5650 0.9167
9.1945 -19.5813 -2.5696 0.9166
9.9058 -19.2749 -2.5742 0.9164
13.9173 -16.8939 -2.6000 0.9156
14.5338 -16.4108 -2.6039 0.9155
15.1328 -15.9043 -2.6077 0.9154
16.8154 -14.2519 -2.6183 0.9150
17.3352 -13.6591 -2.6216 0.9149
17.8331 -13.0465 -2.6247 0.9148
18.3083 -12.4151 -2.6276 0.9147
19.1871 -11.0990 -2.6330 0.9146
19.5896 -10.4162 -2.6355 0.9145
21.4450 -6.0354 -2.6463 0.9142
21.6563 -5.2678 -2.6475 0.9141
21.9913 -3.7106 -2.6492 0.9141
22.2078 -2.1318 -2.6501 0.9141
22.2711 -1.3373 -2.6503 0.9140
22.3074 0.2561 -2.6500 0.9141
4.6122 -17.3126 -2.5386 0.9302
7.0754 -16.5836 -2.5546 0.9297
7.6749 -16.3451 -2.5585 0.9296
8.8485 -15.8022 -2.5661 0.9294
9.4208 -15.4983 -2.5698 0.9293
10.5325 -14.8272 -2.5769 0.9292
11.0701 -14.4608 -2.5804 0.9291
11.5946 -14.0744 -2.5837 0.9290
12.6010 -13.2434 -2.5901 0.9288
13.9926 -11.8593 -2.5989 0.9286
14.8334 -10.8519 -2.6041 0.9284
15.5985 -9.7829 -2.6088 0.9283
15.9511 -9.2271 -2.6110 0.9283
16.2830 -8.6581 -2.6130 0.9282
17.3938 -6.2665 -2.6196 0.9280
17.8129 -5.0132 -2.6219 0.9280
17.9871 -4.3753 -2.6229 0.9279
18.4421 -1.7703 -2.6251 0.9279
18.4945 -1.1105 -2.6252 0.9279
18.5250 0.2127 -2.6250 0.9279
3.9589 -14.8603 -2.5335 0.9396
4.4934 -14.7297 -2.5369 0.9395
5.5485 -14.4103 -2.5438 0.9393
7.0859 -13.7878 -2.5538 0.9391
8.0723 -13.2798 -2.5602 0.9389
9.0212 -12.6997 -2.5663 0.9388
9.9271 -12.0504 -2.5720 0.9387
11.1942 -10.9533 -2.5801 0.9385
11.5894 -10.5566 -2.5826 0.9384
12.3358 -9.7198 -2.5872 0.9383
12.6858 -9.2808 -2.5894 0.9383
13.0195 -8.8287 -2.5915 0.9382
13.3366 -8.3643 -2.5934 0.9382
13.6365 -7.8882 -2.5952 0.9381
13.9187 -7.4009 -2.5969 0.9381
14.1829 -6.9032 -2.5985 0.9381
15.3669 -3.7379 -2.6053 0.9379
15.6017 -2.6325 -2.6065 0.9379
15.7537 -1.5123 -2.6072 0.9379
15.7984 -0.9486 -2.6073 0.9379
3.4645 -13.0044 -2.5296 0.9467
3.9315 -12.8879 -2.5326 0.9466
4.8531 -12.6042 -2.5386 0.9465
5.3063 -12.4372 -2.5416 0.9465
6.1948 -12.0539 -2.5473 0.9463
6.6287 -11.8379 -2.5501 0.9463
7.0549 -11.6060 -2.5529 0.9462
7.8818 -11.0958 -2.5582 0.9461
8.6709 -10.5254 -2.5632 0.9460
9.0499 -10.2186 -2.5656 0.9460
9.7737 -9.5634 -2.5702 0.9459
10.7667 -8.4835 -2.5764 0.9457
11.6367 -7.2982 -2.5818 0.9456
11.8973 -6.8821 -2.5834 0.9456
12.1425 -6.4564 -2.5849 0.9456
12.3719 -6.0218 -2.5863 0.9455
12.7823 -5.1280 -2.5887 0.9455
12.9625 -4.6700 -2.5897 0.9455
13.1257 -4.2055 -2.5907 0.9454
13.6043 -2.2955 -2.5932 0.9454
13.6794 -1.8083 -2.5935 0.9454
13.7364 -1.3186 -2.5938 0.9454
3.9020 -11.3247 -2.5319 0.9522
6.6293 -10.0764 -2.5496 0.9519
7.3449 -9.5946 -2.5542 0.9518
7.6896 -9.3342 -2.5563 0.9518
8.6649 -8.4784 -2.5625 0.9516
8.9688 -8.1696 -2.5644 0.9516
9.2616 -7.8496 -2.5663 0.9516
9.8114 -7.1779 -2.5697 0.9515
10.0678 -6.8271 -2.5713 0.9515
10.5414 -6.0978 -2.5742 0.9514
10.7579 -5.7202 -2.5755 0.9514
11.4820 -4.1366 -2.5798 0.9513
11.6261 -3.7250 -2.5806 0.9513
12.1149 -1.6015 -2.5831 0.9513
12.1653 -1.1678 -2.5833 0.9513
12.1997 -0.7325 -2.5834 0.9513
12.2179 -0.2963 -2.5834 0.9513
2.7647 -10.3778 -2.5241 0.9568
3.1367 -10.2823 -2.5265 0.9568
3.5053 -10.1734 -2.5289 0.9567
4.5862 -9.7671 -2.5359 0.9566
5.2812 -9.4314 -2.5404 0.9566
6.2755 -8.8345 -2.5468 0.9564
6.5923 -8.6115 -2.5489 0.9564
6.9010 -8.3770 -2.5508 0.9564
7.2013 -8.1312 -2.5527 0.9564
7.4925 -7.8745 -2.5546 0.9563
7.7744 -7.6071 -2.5563 0.9563
8.0465 -7.3295 -2.5581 0.9563
8.3086 -7.0419 -2.5597 0.9562
8.5600 -6.7447 -2.5613 0.9562
9.0299 -6.1233 -2.5642 0.9562
9.4536 -5.4686 -2.5668 0.9561
9.8286 -4.7839 -2.5690 0.9561
10.1526 -4.0730 -2.5709 0.9560
10.2949 -3.7089 -2.5718 0.9560
10.4238 -3.3398 -2.5725 0.9560
10.5390 -2.9661 -2.5731 0.9560
10.6406 -2.5883 -2.5737 0.9560
10.7281 -2.2069 -2.5741 0.9560
10.8016 -1.8226 -2.5745 0.9560
4.3497 -0.4175 -1.0270 0.9822
10.9532 -0.2656 -2.5750 0.9560
10.9552 0.1258 -2.5749 0.9560
2.5076 -9.4125 -2.5221 0.9606
2.8447 -9.3251 -2.5243 0.9605
3.5092 -9.1138 -2.5286 0.9605
4.4751 -8.7076 -2.5349 0.9604
4.7871 -8.5490 -2.5369 0.9603
5.3934 -8.1980 -2.5408 0.9603
6.5246 -7.3671 -2.5480 0.9602
6.7880 -7.1341 -2.5497 0.9601
7.5259 -6.3785 -2.5543 0.9601
8.1780 -5.5456 -2.5584 0.9600
8.8997 -4.3317 -2.5627 0.9599
9.3210 -3.3581 -2.5652 0.9599
9.4374 -3.0238 -2.5659 0.9599
9.5416 -2.6853 -2.5664 0.9599
9.6332 -2.3432 -2.5669 0.9599
9.7788 -1.6500 -2.5677 0.9599
3.9214 -0.5184 -1.0242 0.9838
3.8422 -0.0932 -0.9951 0.9842
3.8446 0.0441 -0.9955 0.9842
2.2919 -8.6030 -2.5204 0.9637
2.5998 -8.5224 -2.5224 0.9636
2.9048 -8.4308 -2.5244 0.9636
3.2066 -8.3281 -2.5264 0.9636
3.7988 -8.0902 -2.5302 0.9635
4.0884 -7.9552 -2.5321 0.9635
4.3731 -7.8098 -2.5339 0.9635
4.6526 -7.6540 -2.5357 0.9634
4.9264 -7.4881 -2.5375 0.9634
5.1943 -7.3123 -2.5392 0.9634
5.4557 -7.1268 -2.5408 0.9634
6.4308 -6.2924 -2.5470 0.9633
6.6551 -6.0620 -2.5484 0.9633
7.0782 -5.5772 -2.5511 0.9632
7.2765 -5.3234 -2.5523 0.9632
7.6447 -4.7945 -2.5546 0.9632
8.1230 -3.9537 -2.5575 0.9631
8.3897 -3.3657 -2.5590 0.9631
8.5068 -3.0647 -2.5597 0.9631
8.7077 -2.4507 -2.5609 0.9631
8.8633 -1.8233 -2.5617 0.9631
4.8101 -0.8116 -1.3810 0.9799
3.6101 -0.4772 -1.0309 0.9850
3.5593 -0.2137 -1.0094 0.9853
3.5629 0.0409 -1.0087 0.9853
2.3913 -7.8390 -2.5208 0.9663
2.6718 -7.7542 -2.5226 0.9663
2.9491 -7.6593 -2.5244 0.9662
3.2231 -7.5544 -2.5262 0.9662
3.4933 -7.4396 -2.5280 0.9662
3.7594 -7.3150 -2.5297 0.9662
4.0210 -7.1809 -2.5314 0.9661
4.2777 -7.0372 -2.5330 0.9661
4.7752 -6.7223 -2.5362 0.9661
5.0153 -6.5514 -2.5377 0.9661
5.4766 -6.1838 -2.5407 0.9660
5.6971 -5.9875 -2.5421 0.9660
6.3146 -5.3519 -2.5460 0.9660
6.6866 -4.8918 -2.5483 0.9659
7.1800 -4.1534 -2.5513 0.9659
7.3263 -3.8956 -2.5522 0.9659
7.4632 -3.6326 -2.5530 0.9659
7.5905 -3.3647 -2.5538 0.9658
7.7079 -3.0922 -2.5544 0.9658
7.9127 -2.5352 -2.5556 0.9658
8.0763 -1.9645 -2.5565 0.9658
3.3502 -0.2012 -1.0323 0.9861
3.3514 -0.0813 -1.0311 0.9861
3.3532 0.0385 -1.0314 0.9861
2.4707 -7.1707 -2.5211 0.9685
3.4758 -6.7632 -2.5276 0.9685
3.7175 -6.6388 -2.5292 0.9684
4.1869 -6.3640 -2.5322 0.9684
4.4141 -6.2140 -2.5337 0.9684
4.8518 -5.8895 -2.5364 0.9683
5.0617 -5.7154 -2.5378 0.9683
5.2653 -5.5338 -2.5391 0.9683
6.6341 -3.8376 -2.5476 0.9682
7.0128 -3.1086 -2.5498 0.9682
7.1211 -2.8568 -2.5505 0.9682
7.3101 -2.3421 -2.5516 0.9682
7.5220 -1.5474 -2.5527 0.9681
3.2263 -0.5444 -1.0876 0.9863
3.1686 -0.4189 -1.0624 0.9866
3.1741 -0.3047 -1.0599 0.9866
3.1773 -0.1908 -1.0581 0.9867
3.1795 0.0365 -1.0570 0.9867
3.2285 -6.2821 -2.5258 0.9704
3.8886 -5.9106 -2.5301 0.9704
4.3052 -5.6238 -2.5327 0.9704
4.5056 -5.4692 -2.5340 0.9703
4.7003 -5.3073 -2.5353 0.9703
4.8892 -5.1385 -2.5365 0.9703
5.0720 -4.9628 -2.5376 0.9703
5.4180 -4.5920 -2.5398 0.9703
5.5808 -4.3973 -2.5408 0.9703
5.7364 -4.1967 -2.5418 0.9703
6.1588 -3.5626 -2.5443 0.9702
6.2839 -3.3413 -2.5451 0.9702
6.4010 -3.1156 -2.5458 0.9702
6.5099 -2.8857 -2.5464 0.9702
6.6103 -2.6519 -2.5470 0.9702
3.0718 -0.5183 -1.1140 0.9869
3.0380 -0.4016 -1.0959 0.9871
3.0436 -0.2922 -1.0934 0.9871
3.0500 -0.0740 -1.0910 0.9871
3.0498 0.0350 -1.0907 0.9871
1.6899 -6.3433 -2.5157 0.9723
2.3629 -6.1368 -2.5201 0.9722
2.5821 -6.0519 -2.5215 0.9722
3.4251 -5.6346 -2.5269 0.9721
3.6260 -5.5115 -2.5282 0.9721
3.8225 -5.3811 -2.5295 0.9721
4.0142 -5.2437 -2.5307 0.9721
4.7285 -4.6268 -2.5352 0.9721
5.6168 -3.5227 -2.5407 0.9720
5.8573 -3.1145 -2.5422 0.9720
5.9663 -2.9040 -2.5429 0.9720
6.1612 -2.4717 -2.5440 0.9720
6.3243 -2.0263 -2.5449 0.9720
6.4546 -1.5701 -2.5457 0.9719
2.9705 -0.6111 -1.1622 0.9871
2.9297 -0.0710 -1.1231 0.9875
2.9296 0.0336 -1.1227 0.9875
1.5818 -5.9375 -2.5148 0.9738
2.8176 -5.4826 -2.5229 0.9737
3.0132 -5.3811 -2.5241 0.9737
3.2050 -5.2726 -2.5253 0.9737
3.3929 -5.1572 -2.5266 0.9737
3.7560 -4.9063 -2.5289 0.9736
3.9305 -4.7711 -2.5300 0.9736
4.1001 -4.6297 -2.5311 0.9736
4.5773 -4.1694 -2.5341 0.9736
4.8668 -3.8347 -2.5359 0.9736
5.1315 -3.4797 -2.5375 0.9736
5.2540 -3.2952 -2.5383 0.9736
5.3699 -3.1063 -2.5390 0.9735
5.8429 -2.1050 -2.5418 0.9735
5.9800 -1.6830 -2.5425 0.9735
2.8099 -0.4741 -1.1663 0.9878
2.8043 -0.3707 -1.1577 0.9878
2.8099 -0.2697 -1.1553 0.9879
2.8143 -0.1690 -1.1539 0.9879
1.4850 -5.5742 -2.5141 0.9751
1.6840 -5.5205 -2.5154 0.9751
1.8811 -5.4596 -2.5166 0.9751
2.0760 -5.3916 -2.5179 0.9751
2.6447 -5.1461 -2.5216 0.9751
2.8282 -5.0507 -2.5228 0.9751
3.5249 -4.6046 -2.5272 0.9750
3.6887 -4.4776 -2.5283 0.9750
4.0021 -4.2061 -2.5303 0.9750
4.2953 -3.9125 -2.5321 0.9750
4.4338 -3.7579 -2.5330 0.9750
4.5667 -3.5983 -2.5338 0.9750
4.6938 -3.4339 -2.5346 0.9749
4.8148 -3.2650 -2.5354 0.9749
5.0384 -2.9145 -2.5367 0.9749
5.2361 -2.5485 -2.5379 0.9749
5.3249 -2.3604 -2.5384 0.9749
5.4068 -2.1691 -2.5389 0.9749
5.4817 -1.9749 -2.5393 0.9749
5.5496 -1.7781 -2.5397 0.9749
2.7182 -0.4587 -1.2014 0.9880
2.7186 -0.2610 -1.1902 0.9882
2.7226 -0.1635 -1.1887 0.9882
1.5851 -5.1961 -2.5146 0.9763
2.3133 -4.9266 -2.5193 0.9763
2.9966 -4.5548 -2.5237 0.9763
3.1587 -4.4467 -2.5248 0.9762
3.4709 -4.2132 -2.5268 0.9762
3.6205 -4.0881 -2.5277 0.9762
3.7656 -3.9576 -2.5286 0.9762
4.0413 -3.6811 -2.5304 0.9762
4.4160 -3.2307 -2.5327 0.9762
4.5298 -3.0717 -2.5334 0.9762
4.7400 -2.7419 -2.5347 0.9762
4.8360 -2.5714 -2.5353 0.9761
4.9258 -2.3975 -2.5358 0.9761
5.0863 -2.0405 -2.5368 0.9761
5.1568 -1.8578 -2.5372 0.9761
2.6288 -0.5408 -1.2423 0.9882
2.6339 -0.4444 -1.2364 0.9883
2.6377 -0.3487 -1.2316 0.9883
2.6434 -0.2538 -1.2292 0.9884
2.6496 -0.0643 -1.2269 0.9884
1.3187 -4.9500 -2.5128 0.9774
1.4954 -4.9019 -2.5139 0.9774
1.6703 -4.8476 -2.5151 0.9774
2.1822 -4.6472 -2.5184 0.9774
2.3478 -4.5683 -2.5194 0.9774
2.5105 -4.4834 -2.5205 0.9774
2.8264 -4.2961 -2.5225 0.9773
3.4146 -3.8555 -2.5263 0.9773
3.5513 -3.7324 -2.5271 0.9773
3.6836 -3.6043 -2.5280 0.9773
3.9340 -3.3342 -2.5295 0.9773
4.4696 -2.5855 -2.5328 0.9773
4.6448 -2.2607 -2.5339 0.9772
4.7234 -2.0938 -2.5344 0.9772
4.8624 -1.7518 -2.5352 0.9772
4.9225 -1.5772 -2.5355 0.9772
2.6181 -0.6369 -1.3217 0.9881
2.6036 -0.5356 -1.3039 0.9882
2.6049 -0.4395 -1.2958 0.9883
2.6027 -0.2498 -1.2825 0.9884
2.6011 -0.1562 -1.2782 0.9885
2.6005 -0.0631 -1.2760 0.9885
2.6018 0.0299 -1.2763 0.9885
1.5789 -4.5823 -2.5144 0.9784
1.7423 -4.5249 -2.5154 0.9784
1.9036 -4.4616 -2.5165 0.9784
2.2190 -4.3179 -2.5185 0.9784
2.3728 -4.2375 -2.5195 0.9784
2.5236 -4.1516 -2.5205 0.9783
2.8157 -3.9638 -2.5223 0.9783
2.9565 -3.8621 -2.5232 0.9783
3.0937 -3.7553 -2.5241 0.9783
3.2269 -3.6436 -2.5250 0.9783
3.3561 -3.5272 -2.5258 0.9783
3.4811 -3.4061 -2.5266 0.9783
3.6016 -3.2806 -2.5273 0.9783
3.7175 -3.1507 -2.5281 0.9783
3.8287 -3.0168 -2.5287 0.9783
3.9351 -2.8788 -2.5294 0.9783
4.2234 -2.4431 -2.5312 0.9783
4.3088 -2.2911 -2.5317 0.9782
4.4630 -1.9784 -2.5326 0.9782
4.5316 -1.8180 -2.5330 0.9782
2.6412 -0.7433 -1.4234 0.9877
2.5884 -0.6296 -1.3820 0.9881
2.5784 -0.5304 -1.3656 0.9882
2.5800 -0.2477 -1.3446 0.9884
1.3386 -4.3881 -2.5127 0.9793
2.1012 -4.0884 -2.5177 0.9793
2.3895 -3.9309 -2.5195 0.9792
2.5292 -3.8444 -2.5204 0.9792
2.9290 -3.5554 -2.5230 0.9792
3.0551 -3.4496 -2.5238 0.9792
3.2955 -3.2246 -2.5253 0.9792
3.6245 -2.8559 -2.5273 0.9792
3.7251 -2.7253 -2.5280 0.9792
3.8210 -2.5911 -2.5286 0.9792
4.0788 -2.1688 -2.5301 0.9792
4.2246 -1.8727 -2.5310 0.9791
4.3488 -1.5667 -2.5317 0.9791
4.4025 -1.4106 -2.5320 0.9791
2.6135 -0.7355 -1.4870 0.9877
2.5586 -0.6224 -1.4422 0.9881
2.5543 -0.5255 -1.4283 0.9882
2.5593 -0.1537 -1.4043 0.9884
1.5647 -4.0637 -2.5141 0.9801
1.9926 -3.8773 -2.5169 0.9801
2.1306 -3.8050 -2.5178 0.9801
2.2660 -3.7277 -2.5186 0.9801
2.3985 -3.6456 -2.5195 0.9800
2.5280 -3.5588 -2.5203 0.9800
3.0128 -3.1664 -2.5234 0.9800
3.1248 -3.0576 -2.5241 0.9800
3.2329 -2.9448 -2.5248 0.9800
3.3369 -2.8282 -2.5254 0.9800
3.4366 -2.7078 -2.5260 0.9800
3.7090 -2.3262 -2.5277 0.9800
3.7905 -2.1927 -2.5282 0.9800
3.8671 -2.0562 -2.5287 0.9800
4.0054 -1.7755 -2.5295 0.9800
4.0668 -1.6315 -2.5299 0.9800
4.1230 -1.4854 -2.5302 0.9800
4.1739 -1.3373 -2.5305 0.9800
2.5336 -0.6163 -1.5054 0.9880
2.5340 -0.5213 -1.4937 0.9881
2.5370 -0.3354 -1.4775 0.9882
2.5368 -0.1523 -1.4673 0.9883
2.5369 -0.0615 -1.4651 0.9883
2.5370 0.0291 -1.4648 0.9883
