ply
format ascii 1.0
element vertex 484
property float32 x
property float32 y
property float32 z
property float32 I
end_header
48.1409 2.2743 8.4980 0.8222
45.4061 3.7978 8.0343 0.8310
47.9811 5.7702 8.5213 0.8218
46.4210 10.7909 8.4035 0.8240
46.5907 12.6259 8.5115 0.8220
43.8858 13.6178 8.1022 0.8297
45.0087 17.6312 8.5234 0.8217
31.6688 24.7444 7.0865 0.8494
46.7003 9.0862 7.2884 0.8249
46.7383 12.6659 7.4183 0.8220
46.7580 14.5090 7.5000 0.8203
31.6533 24.7323 6.1538 0.8500
2.6082 7.6719 1.2414 0.9677
48.7252 5.8598 6.3908 0.8204
46.6225 14.4669 6.3568 0.8213
46.6418 16.3478 6.4360 0.8193
31.6491 24.7290 5.2303 0.8504
2.6082 7.6718 1.0552 0.9678
31.6392 24.7213 3.3990 0.8511
31.6343 24.7174 2.4894 0.8514
31.6294 24.7136 1.5827 0.8516
44.7194 15.6740 0.8004 0.8273
31.6245 24.7098 0.6779 0.8517
44.7125 15.6715 -0.2668 0.8274
31.6196 24.7060 -0.2259 0.8517
37.7994 5.9421 -1.0774 0.8580
37.8149 10.2477 -1.1032 0.8549
37.8202 11.7356 -1.1150 0.8535
37.8312 14.8196 -1.1441 0.8499
37.8688 25.3985 -1.2839 0.8332
37.8760 27.4439 -1.3170 0.8293
31.6147 24.7021 -1.1297 0.8517
2.6079 7.6708 -0.2281 0.9681
37.7887 4.5445 -1.9302 0.8586
37.8144 11.7338 -2.0079 0.8534
37.8253 14.8173 -2.0602 0.8498
37.7520 18.0427 -2.1220 0.8457
37.8489 21.5861 -2.2097 0.8399
37.8621 25.3941 -2.3120 0.8331
37.8692 27.4389 -2.3717 0.8292
28.8079 40.5560 -2.5228 0.8194
2.6078 7.6707 -0.4109 0.9681
9.0730 49.0908 -2.5318 0.8188
7.2499 49.1266 -2.5184 0.8196
34.8576 4.1920 -2.5742 0.8687
34.6600 5.4485 -2.5725 0.8687
33.7720 9.1521 -2.5656 0.8691
32.9410 11.5457 -2.5594 0.8694
31.9267 13.8609 -2.5520 0.8697
31.3531 14.9845 -2.5479 0.8699
30.7370 16.0830 -2.5436 0.8701
30.0794 17.1549 -2.5390 0.8703
29.3816 18.1985 -2.5341 0.8706
28.9416 19.4111 -2.5552 0.8696
28.9076 20.9456 -2.6175 0.8666
28.8166 22.5158 -2.6814 0.8636
26.9840 24.4290 -2.6689 0.8642
26.0171 25.3282 -2.6623 0.8645
25.0188 26.1876 -2.6556 0.8648
21.8532 28.5173 -2.6343 0.8658
20.7472 29.2081 -2.6269 0.8662
19.6190 29.8548 -2.6194 0.8665
14.9213 31.9909 -2.5882 0.8680
13.7100 32.4102 -2.5803 0.8684
12.4878 32.7832 -2.5722 0.8687
6.2750 33.9521 -2.5316 0.8707
27.8371 2.3283 -2.6818 0.8938
27.7233 3.3340 -2.6807 0.8939
26.8829 7.2852 -2.6740 0.8941
26.5785 8.2473 -2.6717 0.8942
26.2374 9.1961 -2.6692 0.8943
25.4478 11.0482 -2.6634 0.8945
25.0008 11.9485 -2.6602 0.8946
24.5200 12.8301 -2.6568 0.8948
23.4607 14.5312 -2.6494 0.8950
22.8842 15.3484 -2.6454 0.8952
22.2778 16.1418 -2.6412 0.8953
20.2896 18.3685 -2.6276 0.8959
19.5746 19.0562 -2.6227 0.8960
18.8352 19.7152 -2.6177 0.8962
18.0730 20.3446 -2.6126 0.8964
16.4847 21.5117 -2.6019 0.8968
15.6612 22.0480 -2.5964 0.8970
14.8200 22.5520 -2.5908 0.8972
13.9624 23.0233 -2.5850 0.8974
11.3043 24.2360 -2.5674 0.8981
9.4749 24.8736 -2.5554 0.8986
3.5966 24.3710 -2.3651 0.9057
22.1932 1.8562 -2.6454 0.9142
22.1043 2.6583 -2.6446 0.9142
21.9848 3.4560 -2.6436 0.9143
21.4452 5.8116 -2.6393 0.9144
21.2061 6.5802 -2.6375 0.9144
20.9379 7.3387 -2.6355 0.9145
18.7502 11.6135 -2.6199 0.9150
16.2426 14.7046 -2.6026 0.9155
15.0896 15.7946 -2.5948 0.9158
14.4846 16.3052 -2.5907 0.9159
13.8619 16.7920 -2.5865 0.9160
13.2224 17.2545 -2.5822 0.9162
10.5173 18.8508 -2.5641 0.9167
9.8094 19.1843 -2.5594 0.9169
9.0910 19.4908 -2.5547 0.9170
7.6268 20.0220 -2.5450 0.9173
2.6077 7.6702 -0.9623 0.9679
6.1332 20.4426 -2.5352 0.9176
5.0504 19.3558 -2.3762 0.9226
3.6213 19.5934 -2.3668 0.9229
2.9075 19.7014 -2.3656 0.9229
18.4829 0.8732 -2.6217 0.9280
18.4354 1.5420 -2.6212 0.9280
18.3625 2.2083 -2.6205 0.9280
18.1414 3.5297 -2.6186 0.9281
17.6244 5.4688 -2.6146 0.9282
17.1596 6.7219 -2.6112 0.9283
16.8923 7.3337 -2.6093 0.9283
16.6022 7.9346 -2.6072 0.9284
16.2899 8.5237 -2.6050 0.9284
15.6009 9.6629 -2.6001 0.9285
15.2252 10.2115 -2.5975 0.9286
13.9811 11.7642 -2.5889 0.9288
13.4860 12.2090 -2.5775 0.9291
11.5584 14.0016 -2.5725 0.9293
10.4846 14.7604 -2.5653 0.9295
9.9286 15.1086 -2.5616 0.9296
8.7822 15.7409 -2.5540 0.9298
7.5958 16.2852 -2.5461 0.9300
6.9898 16.5237 -2.5421 0.9301
6.3764 16.7394 -2.5380 0.9302
2.6076 7.6701 -1.1479 0.9678
3.0360 16.4265 -2.3669 0.9347
2.4374 16.5163 -2.3655 0.9348
15.7513 1.3175 -2.6039 0.9379
15.6897 1.8868 -2.6033 0.9379
15.6066 2.4534 -2.6026 0.9380
14.8767 5.2142 -2.5969 0.9381
14.4424 6.2701 -2.5938 0.9382
14.1961 6.7847 -2.5920 0.9382
13.6470 7.7831 -2.5881 0.9383
13.0256 8.7363 -2.5838 0.9384
11.5824 10.4857 -2.5738 0.9386
10.3424 11.6423 -2.5654 0.9388
8.5112 12.9518 -2.5531 0.9391
8.0262 13.2348 -2.5499 0.9392
7.5317 13.4995 -2.5466 0.9393
6.5171 13.9725 -2.5399 0.9394
5.9985 14.1802 -2.5365 0.9395
2.6076 7.6700 -1.3346 0.9677
2.6100 14.1217 -2.3658 0.9434
13.7711 0.6506 -2.5913 0.9454
13.6112 2.1397 -2.5898 0.9455
13.5208 2.6307 -2.5890 0.9455
13.4121 3.1178 -2.5882 0.9455
12.7983 5.0134 -2.5836 0.9456
12.1571 6.3611 -2.5790 0.9457
11.9105 6.7928 -2.5772 0.9457
11.0782 8.0269 -2.5714 0.9458
10.7712 8.4161 -2.5693 0.9459
10.1158 9.1579 -2.5648 0.9460
8.2593 10.7779 -2.5522 0.9462
7.8550 11.0582 -2.5495 0.9463
7.0181 11.5726 -2.5439 0.9464
2.6075 7.6698 -1.5227 0.9676
3.1815 12.1930 -2.3685 0.9500
2.7347 12.2869 -2.3660 0.9501
1.8337 12.4253 -2.3608 0.9502
12.1669 1.0176 -2.5808 0.9513
11.8811 2.7618 -2.5784 0.9514
11.7692 3.1894 -2.5775 0.9514
11.4983 4.0301 -2.5755 0.9514
10.7736 5.6373 -2.5702 0.9515
10.5560 6.0203 -2.5687 0.9515
10.3244 6.3947 -2.5671 0.9516
9.8208 7.1159 -2.5636 0.9516
9.2659 7.7967 -2.5597 0.9517
8.6630 8.4336 -2.5556 0.9518
8.3448 8.7346 -2.5535 0.9518
8.0157 9.0233 -2.5512 0.9519
7.6767 9.2994 -2.5490 0.9519
7.3280 9.5626 -2.5466 0.9519
6.9702 9.8126 -2.5442 0.9520
6.2291 10.2715 -2.5393 0.9521
5.1255 10.0240 -2.3798 0.9550
4.7541 10.1925 -2.3773 0.9551
4.3771 10.3472 -2.3748 0.9551
3.9951 10.4879 -2.3723 0.9552
1.6294 11.0412 -2.3592 0.9554
10.9357 0.5166 -2.5730 0.9560
10.9085 0.9124 -2.5727 0.9560
10.7389 2.0894 -2.5712 0.9560
10.6533 2.4764 -2.5705 0.9561
10.4393 3.2393 -2.5689 0.9561
10.1694 3.9836 -2.5669 0.9561
10.0140 4.3476 -2.5658 0.9561
9.6635 5.0564 -2.5632 0.9562
9.4688 5.4003 -2.5619 0.9562
8.8112 6.3843 -2.5573 0.9563
8.5684 6.6950 -2.5556 0.9563
8.3146 6.9962 -2.5539 0.9563
7.4898 7.8398 -2.5482 0.9564
7.1953 8.0996 -2.5462 0.9565
6.8915 8.3483 -2.5442 0.9565
6.2585 8.8107 -2.5399 0.9566
5.2535 8.6628 -2.3811 0.9592
4.6040 9.0041 -2.3768 0.9593
4.2708 9.1565 -2.3746 0.9593
3.9326 9.2964 -2.3723 0.9594
2.5576 7.5229 -1.8674 0.9679
2.1834 9.8101 -2.3620 0.9595
3.8449 0.1816 -0.9966 0.9842
9.7873 1.5386 -2.5652 0.9599
9.4527 2.9332 -2.5626 0.9599
9.3371 3.2726 -2.5617 0.9599
8.7520 4.5794 -2.5575 0.9600
8.5762 4.8911 -2.5563 0.9600
8.3890 5.1960 -2.5549 0.9600
8.1908 5.4935 -2.5536 0.9601
7.2937 6.6030 -2.5474 0.9602
6.7872 7.1042 -2.5439 0.9602
6.5207 7.3403 -2.5421 0.9602
5.9632 7.7817 -2.5384 0.9603
5.0483 7.6821 -2.3801 0.9627
4.7629 7.8537 -2.3782 0.9628
4.4715 8.0146 -2.3762 0.9628
4.1747 8.1645 -2.3743 0.9628
3.8729 8.3034 -2.3723 0.9629
3.5665 8.4311 -2.3702 0.9629
2.3082 7.6935 -2.0797 0.9674
2.3036 8.8286 -2.3624 0.9630
1.3289 9.0049 -2.3568 0.9631
3.6059 0.3016 -1.0244 0.9851
3.6885 0.4436 -1.0517 0.9847
8.8036 2.0465 -2.5587 0.9631
8.6278 2.6772 -2.5573 0.9631
8.5225 2.9871 -2.5566 0.9632
7.9896 4.1805 -2.5527 0.9632
7.8294 4.4653 -2.5516 0.9632
7.6589 4.7438 -2.5504 0.9632
7.4783 5.0156 -2.5491 0.9633
4.8669 6.8516 -2.3792 0.9657
4.6122 7.0184 -2.3775 0.9657
4.3516 7.1757 -2.3757 0.9657
4.0858 7.3232 -2.3740 0.9657
3.8149 7.4607 -2.3722 0.9658
3.2596 7.7054 -2.3685 0.9658
2.5405 7.4727 -2.2344 0.9677
2.3003 7.6671 -2.2661 0.9673
2.1057 8.0699 -2.3610 0.9659
1.8106 8.1350 -2.3593 0.9659
1.5136 8.1894 -2.3576 0.9660
1.2150 8.2328 -2.3559 0.9660
3.3531 0.1584 -1.0325 0.9860
3.3679 0.2817 -1.0395 0.9860
3.4346 0.4131 -1.0640 0.9856
8.2063 1.2900 -2.5551 0.9658
8.0883 1.8802 -2.5541 0.9658
7.9271 2.4598 -2.5529 0.9659
7.7236 3.0255 -2.5514 0.9659
7.3418 3.8416 -2.5486 0.9659
7.1948 4.1034 -2.5476 0.9659
6.8727 4.6095 -2.5453 0.9660
6.6980 4.8532 -2.5441 0.9660
6.1224 5.5426 -2.5402 0.9660
5.9142 5.7576 -2.5387 0.9660
5.2452 6.3539 -2.5342 0.9661
5.0084 6.5357 -2.5326 0.9661
4.4951 6.3283 -2.3875 0.9680
3.7575 6.7347 -2.3720 0.9682
3.5086 6.8616 -2.3704 0.9683
2.7374 7.1863 -2.3653 0.9683
2.4734 7.2754 -2.3635 0.9684
1.9372 7.4243 -2.3600 0.9684
3.1790 0.1502 -1.0579 0.9867
3.1756 0.2656 -1.0593 0.9867
3.2385 0.3895 -1.0843 0.9863
7.5321 1.4655 -2.5507 0.9682
7.4727 1.7371 -2.5502 0.9682
7.3239 2.2726 -2.5490 0.9682
7.2349 2.5358 -2.5484 0.9682
7.0281 3.0513 -2.5469 0.9682
6.9107 3.3028 -2.5460 0.9682
6.6485 3.7918 -2.5441 0.9683
5.8435 4.9169 -2.5386 0.9683
5.6587 5.1229 -2.5373 0.9683
5.2674 5.5134 -2.5346 0.9684
3.9212 5.9669 -2.3734 0.9704
3.7001 6.1012 -2.3719 0.9704
3.4744 6.2273 -2.3704 0.9704
2.2877 6.7291 -2.3625 0.9705
2.0410 6.8029 -2.3609 0.9705
1.7920 6.8676 -2.3593 0.9705
1.5409 6.9232 -2.3576 0.9705
1.2881 6.9695 -2.3559 0.9706
1.0341 7.0069 -2.3544 0.9706
3.0854 0.3710 -1.1113 0.9869
3.7128 0.5837 -1.3440 0.9842
6.9918 1.3603 -2.5472 0.9702
6.5247 2.8327 -2.5437 0.9702
6.4158 3.0663 -2.5429 0.9702
6.2984 3.2956 -2.5420 0.9703
6.1727 3.5204 -2.5412 0.9703
6.0389 3.7404 -2.5402 0.9703
5.8971 3.9552 -2.5392 0.9703
5.7476 4.1645 -2.5382 0.9703
5.0765 4.9421 -2.5336 0.9704
4.7006 5.2914 -2.5310 0.9704
4.3005 5.6119 -2.5283 0.9704
3.0140 5.8945 -2.3675 0.9723
2.7968 5.9962 -2.3661 0.9723
1.8966 6.3214 -2.3601 0.9724
1.1972 6.4773 -2.3555 0.9724
2.9232 0.2445 -1.1241 0.9875
2.9894 0.4699 -1.1597 0.9871
6.5167 1.2679 -2.5441 0.9720
6.3372 1.9664 -2.5427 0.9720
6.1752 2.4190 -2.5415 0.9720
5.9805 2.8582 -2.5401 0.9720
5.8713 3.0721 -2.5394 0.9720
5.6296 3.4869 -2.5377 0.9720
5.4976 3.6872 -2.5367 0.9720
5.3583 3.8825 -2.5358 0.9721
5.2121 4.0724 -2.5348 0.9721
4.3831 4.9340 -2.5291 0.9721
4.1994 5.0870 -2.5279 0.9721
4.0103 5.2332 -2.5266 0.9722
3.0103 5.3954 -2.3677 0.9739
2.8112 5.4979 -2.3663 0.9739
2.6087 5.5929 -2.3650 0.9739
1.9830 5.8327 -2.3609 0.9740
1.7693 5.8972 -2.3594 0.9740
1.5535 5.9539 -2.3580 0.9740
0.8967 6.0762 -2.3537 0.9740
2.8146 0.1330 -1.1532 0.9879
2.8124 0.2352 -1.1551 0.9879
2.8260 0.3399 -1.1649 0.9878
5.9915 1.6237 -2.5406 0.9735
5.9276 1.8393 -2.5401 0.9735
5.8559 2.0525 -2.5396 0.9735
5.4923 2.8738 -2.5370 0.9736
5.3829 3.0700 -2.5362 0.9736
5.1431 3.4494 -2.5345 0.9736
5.0129 3.6322 -2.5336 0.9736
4.8762 3.8100 -2.5327 0.9736
4.7331 3.9826 -2.5317 0.9736
4.5839 4.1498 -2.5307 0.9736
4.2677 4.4671 -2.5285 0.9737
4.1012 4.6167 -2.5274 0.9737
3.7527 4.8970 -2.5250 0.9737
3.5711 5.0273 -2.5238 0.9737
2.6311 5.1456 -2.3653 0.9753
2.4416 5.2347 -2.3640 0.9753
1.8562 5.4598 -2.3602 0.9754
1.6562 5.5204 -2.3588 0.9754
1.2507 5.6195 -2.3562 0.9754
0.8396 5.6888 -2.3535 0.9755
2.7214 0.1286 -1.1873 0.9882
5.6738 1.3189 -2.5387 0.9749
5.4197 2.1231 -2.5368 0.9749
5.1535 2.6965 -2.5348 0.9749
5.0509 2.8806 -2.5341 0.9749
4.8261 3.2368 -2.5325 0.9750
4.5758 3.5754 -2.5308 0.9750
4.4417 3.7374 -2.5299 0.9750
4.3018 3.8944 -2.5289 0.9750
4.1562 4.0461 -2.5279 0.9750
4.0053 4.1924 -2.5269 0.9750
3.5221 4.5962 -2.5236 0.9751
3.3518 4.7187 -2.5225 0.9751
2.9985 4.9444 -2.5201 0.9751
2.8082 5.0333 -2.5119 0.9752
2.5274 4.9429 -2.4195 0.9761
2.2921 4.9141 -2.3632 0.9766
2.1115 4.9914 -2.3620 0.9766
1.9282 5.0620 -2.3608 0.9766
1.5550 5.1830 -2.3583 0.9767
1.3655 5.2332 -2.3571 0.9767
1.1744 5.2764 -2.3558 0.9767
0.7884 5.3419 -2.3533 0.9767
2.6463 0.1250 -1.2263 0.9884
2.6454 0.2213 -1.2288 0.9884
2.6415 0.3177 -1.2315 0.9883
2.6439 0.4156 -1.2388 0.9883
5.3375 1.2407 -2.5365 0.9761
5.2320 1.6235 -2.5357 0.9761
5.1688 1.8116 -2.5352 0.9761
4.9384 2.3602 -2.5336 0.9762
4.8484 2.5369 -2.5329 0.9762
4.6494 2.8798 -2.5315 0.9762
4.5407 3.0454 -2.5308 0.9762
4.4259 3.2069 -2.5300 0.9762
4.3054 3.3640 -2.5291 0.9762
4.1793 3.5166 -2.5283 0.9762
3.7689 3.9449 -2.5255 0.9762
3.4705 4.2041 -2.5234 0.9763
3.1544 4.4407 -2.5213 0.9763
2.0320 4.8035 -2.4142 0.9773
1.4667 4.8886 -2.3625 0.9778
1.2854 4.9263 -2.3566 0.9778
1.1055 4.9671 -2.3555 0.9778
2.6034 0.1230 -1.2784 0.9885
2.6045 0.2178 -1.2820 0.9884
2.6051 0.4095 -1.2935 0.9883
2.6348 0.5126 -1.3167 0.9881
5.0329 1.1699 -2.5346 0.9772
4.5721 2.3923 -2.5312 0.9773
4.4813 2.5558 -2.5305 0.9773
4.3846 2.7157 -2.5299 0.9773
4.1740 3.0243 -2.5284 0.9773
3.9415 3.3165 -2.5268 0.9773
3.8175 3.4560 -2.5259 0.9773
3.6885 3.5908 -2.5251 0.9773
3.1264 4.0798 -2.5212 0.9774
2.5001 4.4811 -2.5171 0.9774
2.1672 4.6463 -2.5148 0.9774
1.6074 4.7279 -2.4495 0.9780
1.0489 4.7127 -2.3682 0.9787
0.8729 4.7230 -2.3560 0.9788
2.5817 0.2159 -1.3440 0.9884
2.5783 0.4053 -1.3540 0.9883
2.8813 0.6698 -1.5346 0.9868
4.7116 1.2768 -2.5325 0.9782
4.6616 1.4465 -2.5321 0.9782
4.6053 1.6142 -2.5317 0.9782
4.5430 1.7796 -2.5312 0.9783
4.4747 1.9427 -2.5307 0.9783
4.4004 2.1031 -2.5302 0.9783
4.2346 2.4151 -2.5290 0.9783
4.1433 2.5663 -2.5283 0.9783
3.8371 2.9981 -2.5262 0.9783
3.7248 3.1342 -2.5254 0.9783
3.4859 3.3935 -2.5238 0.9783
3.3595 3.5164 -2.5229 0.9783
3.2287 3.6345 -2.5221 0.9783
3.0938 3.7478 -2.5211 0.9783
2.9549 3.8560 -2.5202 0.9783
2.8122 3.9590 -2.5193 0.9784
2.6659 4.0567 -2.5183 0.9784
2.2073 4.3168 -2.5152 0.9784
2.0486 4.3921 -2.5142 0.9784
1.8873 4.4615 -2.5131 0.9784
1.7237 4.5250 -2.5120 0.9784
0.8668 4.6902 -2.4744 0.9787
0.6924 4.6917 -2.4603 0.9789
2.5588 0.2140 -1.4064 0.9884
2.5564 0.3074 -1.4103 0.9883
2.5537 0.4014 -1.4158 0.9883
2.5771 0.5014 -1.4380 0.9881
4.4126 1.3692 -2.5305 0.9791
4.3005 1.6846 -2.5297 0.9792
4.0899 2.1400 -2.5281 0.9792
3.9223 2.4294 -2.5270 0.9792
3.6327 2.8384 -2.5249 0.9792
3.5264 2.9673 -2.5242 0.9792
3.4156 3.0922 -2.5235 0.9792
2.9292 3.5484 -2.5202 0.9792
2.7978 3.6510 -2.5193 0.9792
2.6627 3.7486 -2.5184 0.9792
2.5243 3.8412 -2.5174 0.9793
2.3825 3.9286 -2.5165 0.9793
2.0901 4.0877 -2.5145 0.9793
1.4754 4.3397 -2.5105 0.9793
1.1563 4.4314 -2.5084 0.9793
2.5366 0.1198 -1.4661 0.9883
2.6112 0.6070 -1.5477 0.9877
4.1333 1.4487 -2.5287 0.9800
3.9495 1.8876 -2.5273 0.9800
3.8778 2.0290 -2.5268 0.9800
3.8009 2.1677 -2.5263 0.9800
3.3439 2.8136 -2.5231 0.9800
3.2388 2.9321 -2.5224 0.9800
3.1296 3.0466 -2.5216 0.9800
3.0161 3.1570 -2.5208 0.9800
2.8988 3.2632 -2.5200 0.9800
2.7779 3.3650 -2.5192 0.9800
2.6532 3.4623 -2.5184 0.9801
2.5252 3.5549 -2.5175 0.9801
2.3939 3.6428 -2.5167 0.9801
2.2595 3.7258 -2.5158 0.9801
1.9823 3.8768 -2.5139 0.9801
1.5482 4.0644 -2.5110 0.9801
1.3994 4.1162 -2.5101 0.9801
1.0968 4.2034 -2.5081 0.9801
0.7889 4.2683 -2.5061 0.9802
0.6335 4.2924 -2.5050 0.9802
