ply
format ascii 1.0
element vertex 609
property float32 x
property float32 y
property float32 z
property float32 I
end_header
-41.1591 12.8180 7.6012 0.8394
-42.6879 11.6395 7.8018 0.8355
-42.7315 10.0270 7.7394 0.8367
-42.8730 8.4576 7.7054 0.8374
-39.1927 -7.8658 7.0485 0.8501
-22.3650 -7.0459 4.1346 0.9092
-22.0957 -7.8387 4.1340 0.9092
-20.7762 -9.0878 3.9985 0.9120
-25.7240 -21.5805 5.9206 0.8725
-23.9183 -21.5666 5.6787 0.8774
-4.8978 -7.3616 1.5591 0.9647
-4.3375 -7.6527 1.5511 0.9649
-44.4780 12.1276 7.0625 0.8298
-42.6552 10.0091 6.7120 0.8375
-38.7732 -7.7816 6.0583 0.8521
-38.6360 -9.2004 6.0843 0.8515
-21.9557 -6.9170 3.5265 0.9111
-21.8452 -7.7499 3.5509 0.9105
-21.2292 -8.3962 3.4973 0.9118
-20.9182 -9.1498 3.4977 0.9117
-32.2328 -21.6234 5.9461 0.8546
-29.8666 -21.6213 5.6485 0.8614
-27.7132 -21.6115 5.3838 0.8674
-22.2567 -21.5580 4.7468 0.8822
-20.7113 -21.5468 4.5785 0.8861
-19.2726 -21.5391 4.4277 0.8896
-5.9946 -7.2013 1.4354 0.9628
-5.8178 -7.5195 1.4565 0.9623
-4.5562 -8.0386 1.4155 0.9633
-44.2631 10.3864 5.9205 0.8324
-38.4797 -9.1631 5.1510 0.8525
-20.8424 -8.2432 2.9187 0.9136
-41.2336 -21.6641 6.0655 0.8287
-34.8970 -21.6452 5.3475 0.8473
-32.2325 -21.6233 5.0543 0.8551
-27.7114 -21.6101 4.5761 0.8678
-23.9194 -21.5676 4.1940 0.8782
-22.2572 -21.5585 4.0351 0.8825
-19.2731 -21.5398 3.7638 0.8899
-5.9651 -7.1659 1.2141 0.9631
-4.9593 -6.9059 1.1072 0.9663
-4.7612 -7.1563 1.1193 0.9659
-4.7154 -7.6676 1.1722 0.9643
-4.5396 -8.0092 1.1988 0.9635
-44.0296 13.7119 4.9519 0.8307
-38.0465 -9.0600 4.1997 0.8544
-21.6467 -6.8196 2.4371 0.9127
-20.6417 -9.0289 2.4193 0.9133
-34.8949 -21.6439 4.4093 0.8477
-32.2322 -21.6231 4.1678 0.8554
-22.2577 -21.5590 3.3274 0.8828
-19.2737 -21.5404 3.1038 0.8902
-5.9361 -7.1310 0.9963 0.9634
-5.7601 -7.4450 1.0108 0.9628
-4.8483 -7.2871 0.9399 0.9654
-4.6480 -7.5581 0.9528 0.9649
-38.7934 -6.3541 3.3277 0.8540
-38.9223 -7.8115 3.3606 0.8527
-20.7173 -8.1937 1.8860 0.9144
-20.5362 -8.9827 1.8975 0.9139
-41.2383 -21.6665 3.9434 0.8294
-37.8740 -21.6586 3.6934 0.8393
-32.2320 -21.6229 3.2856 0.8557
-29.8604 -21.6168 3.1206 0.8624
-25.7251 -21.5814 2.8425 0.8739
-23.9205 -21.5687 2.7266 0.8787
-22.2583 -21.5595 2.6232 0.8830
-5.9075 -7.0966 0.7817 0.9636
-5.7187 -7.3915 0.7911 0.9632
-4.8087 -7.2277 0.7349 0.9658
-38.8422 -7.7954 2.4566 0.8532
-21.8512 -7.7520 1.4377 0.9113
-21.0667 -8.3319 1.4048 0.9132
-37.8731 -21.6581 2.7054 0.8396
-32.2318 -21.6228 2.4068 0.8559
-27.7059 -21.6058 2.1787 0.8687
-17.9241 -21.5323 1.7373 0.8938
-5.0911 -7.6521 0.5699 0.9638
-4.6912 -7.6283 0.5553 0.9647
-38.3340 -7.6934 1.5417 0.8551
-37.5679 -8.9460 1.5228 0.8568
-21.3033 -8.4255 0.9033 0.9124
-41.2429 -21.6689 1.8370 0.8299
-32.2315 -21.6226 1.5304 0.8561
-27.7041 -21.6044 1.3853 0.8688
-22.2593 -21.5605 1.2219 0.8833
-20.7145 -21.5501 1.1787 0.8872
-19.2754 -21.5423 1.1398 0.8907
-17.9247 -21.5330 1.1047 0.8939
-5.3679 -7.4750 0.3629 0.9638
-5.1425 -7.7293 0.3661 0.9635
-4.6523 -7.5650 0.3502 0.9651
-21.5136 -7.6322 0.3856 0.9127
-41.2452 -21.6701 0.7870 0.8299
-37.8712 -21.6570 0.7369 0.8399
-34.8868 -21.6388 0.6935 0.8485
-29.8543 -21.6124 0.6226 0.8629
-22.2598 -21.5610 0.5235 0.8834
-19.2760 -21.5430 0.4883 0.8908
-17.9253 -21.5337 0.4733 0.8940
-5.2991 -7.3792 0.1535 0.9643
-20.8568 6.4954 -0.1230 0.9163
-23.7856 6.4856 -0.1388 0.9061
-21.8638 -7.7565 -0.1306 0.9114
-37.8703 -21.6565 -0.2456 0.8399
-34.8848 -21.6375 -0.2311 0.8486
-32.2310 -21.6223 -0.2185 0.8562
-29.8522 -21.6109 -0.2075 0.8629
-27.7005 -21.6016 -0.1978 0.8689
-25.7262 -21.5823 -0.1891 0.8743
-23.9228 -21.5707 -0.1814 0.8791
-20.7158 -21.5514 -0.1683 0.8873
-19.2765 -21.5436 -0.1628 0.8908
-16.6537 -21.5249 -0.1532 0.8969
-15.4510 -21.5160 -0.1491 0.8995
-5.0277 -7.5568 -0.0511 0.9643
-4.8180 -7.8345 -0.0518 0.9639
-4.3897 -7.7449 -0.0501 0.9650
-23.7852 6.4854 -0.6942 0.9061
-27.5630 6.4678 -0.7972 0.8929
-32.6758 6.4460 -0.9378 0.8752
-29.8502 -21.6094 -1.0377 0.8629
-27.6987 -21.6002 -0.9890 0.8689
-20.7164 -21.5521 -0.8418 0.8873
-19.2771 -21.5442 -0.8140 0.8908
-16.6542 -21.5256 -0.7663 0.8968
-15.4515 -21.5166 -0.7459 0.8994
-4.7564 -7.7343 -0.2557 0.9643
-12.1884 -21.5041 -0.6960 0.9058
-20.8561 6.4952 -1.1078 0.9162
-32.6750 6.4459 -1.6890 0.8751
-40.6095 6.5143 -2.0858 0.8481
-40.8043 5.0587 -2.0852 0.8482
-43.7145 2.2718 -2.2199 0.8392
-43.7724 0.7096 -2.2202 0.8392
-43.7807 -0.8540 -2.2207 0.8391
-43.7394 -2.4175 -2.2216 0.8391
-43.6486 -3.9798 -2.2228 0.8390
-40.6799 -6.6631 -2.0905 0.8478
-38.8872 -7.8044 -2.0115 0.8531
-42.0636 -13.2518 -2.2366 0.8381
-41.6269 -14.7676 -2.2400 0.8379
-41.1411 -16.2714 -2.2437 0.8376
-40.0234 -19.2372 -2.2520 0.8371
-36.3545 -20.7897 -2.1239 0.8456
-27.6969 -21.5988 -1.7812 0.8688
-23.9239 -21.5717 -1.6337 0.8790
-16.6547 -21.5262 -1.3803 0.8967
-14.3153 -21.5164 -1.3106 0.9017
-13.2280 -21.5099 -1.2806 0.9038
-12.1882 -21.5037 -1.2535 0.9057
-23.7842 6.4852 -1.8076 0.9059
-27.5618 6.4675 -2.0758 0.8927
-29.0973 4.6675 -2.1607 0.8885
-31.2485 2.7455 -2.3000 0.8818
-31.3257 1.6279 -2.3000 0.8818
-31.3662 0.5085 -2.3001 0.8818
-31.3699 -0.6119 -2.3005 0.8818
-31.3369 -1.7320 -2.3012 0.8817
-31.1605 -3.9674 -2.3032 0.8816
-28.7558 -6.8476 -2.1674 0.8882
-29.7535 -10.5554 -2.3148 0.8811
-29.3924 -11.6248 -2.3175 0.8809
-28.5635 -13.7290 -2.3237 0.8806
-28.0963 -14.7617 -2.3271 0.8805
-25.2456 -19.6872 -2.3474 0.8795
-21.7296 -21.0476 -2.2181 0.8857
-20.7177 -21.5534 -2.1920 0.8870
-17.9275 -21.5364 -2.0546 0.8937
-15.4524 -21.5179 -1.9424 0.8992
-14.3150 -21.5160 -1.8949 0.9015
-13.2278 -21.5095 -1.8515 0.9037
-4.5049 -7.9481 -0.6699 0.9640
-20.8554 6.4950 -2.0971 0.9160
-22.1575 6.0416 -2.2049 0.9118
-22.3496 5.2444 -2.2040 0.9119
-23.2056 4.5778 -2.2708 0.9093
-24.1224 3.8695 -2.3455 0.9065
-24.3301 2.1376 -2.3448 0.9065
-24.3904 1.2675 -2.3448 0.9065
-24.3962 -1.3484 -2.3457 0.9065
-24.3398 -2.2193 -2.3464 0.9065
-24.2543 -3.0881 -2.3473 0.9064
-24.1396 -3.9539 -2.3484 0.9064
-23.8232 -5.6730 -2.3511 0.9063
-21.9671 -6.9206 -2.2111 0.9116
-21.7244 -7.7070 -2.2130 0.9115
-21.4551 -8.4855 -2.2150 0.9115
-21.1608 -9.2554 -2.2172 0.9114
-22.1891 -10.6652 -2.3636 0.9058
-21.8190 -11.4637 -2.3663 0.9057
-20.9975 -13.0239 -2.3721 0.9055
-20.5467 -13.7838 -2.3753 0.9054
-18.4864 -16.6689 -2.3897 0.9048
-17.9092 -17.3471 -2.3937 0.9047
-14.2120 -19.7907 -2.3392 0.9067
-4.4995 -7.9385 -0.8760 0.9640
-19.6120 3.8689 -2.3745 0.9226
-19.7333 3.1655 -2.3740 0.9227
-19.9043 1.7488 -2.3735 0.9227
-19.9800 -0.3897 -2.3738 0.9227
-19.8383 -2.5258 -2.3755 0.9226
-19.7429 -3.2337 -2.3764 0.9226
-19.6235 -3.9383 -2.3775 0.9225
-19.4801 -4.6388 -2.3787 0.9225
-19.3133 -5.3344 -2.3800 0.9225
-18.6228 -5.8670 -2.3193 0.9244
-17.5333 -6.9345 -2.2397 0.9269
-17.0224 -8.1818 -2.2435 0.9267
-16.7350 -8.7925 -2.2456 0.9267
-17.4919 -10.0029 -2.3935 0.9220
-17.1415 -10.6322 -2.3960 0.9220
-15.5263 -13.0255 -2.4074 0.9216
-13.5886 -15.1867 -2.4207 0.9212
-12.5080 -16.1666 -2.4280 0.9210
-11.3586 -17.0723 -2.4358 0.9207
-4.4934 -7.9277 -1.0824 0.9640
-16.4552 3.8612 -2.3949 0.9340
-16.5787 3.2705 -2.3943 0.9340
-16.7646 2.0784 -2.3936 0.9340
-16.8269 1.4784 -2.3934 0.9340
-16.8900 0.2738 -2.3934 0.9340
-16.8906 -0.3295 -2.3937 0.9340
-16.8706 -0.9325 -2.3940 0.9340
-16.8300 -1.5345 -2.3945 0.9340
-16.7689 -2.1350 -2.3952 0.9340
-16.6873 -2.7332 -2.3959 0.9340
-16.5852 -3.3286 -2.3968 0.9339
-16.4627 -3.9203 -2.3978 0.9339
-16.3201 -4.5077 -2.3990 0.9339
-16.1573 -5.0902 -2.4002 0.9339
-14.6029 -6.3874 -2.2583 0.9376
-14.3760 -6.9098 -2.2600 0.9376
-13.8687 -7.9310 -2.2637 0.9375
-13.2914 -8.9166 -2.2678 0.9374
-11.8876 -12.3672 -2.4306 0.9330
-11.4525 -12.7994 -2.4335 0.9330
-11.0020 -13.2167 -2.4366 0.9329
-10.5367 -13.6187 -2.4397 0.9328
-9.5636 -14.3745 -2.4463 0.9326
-9.0568 -14.7272 -2.4497 0.9325
-13.9713 4.3510 -2.4107 0.9424
-14.2383 3.3411 -2.4093 0.9424
-14.3456 2.8300 -2.4088 0.9424
-14.6161 -0.2851 -2.4083 0.9425
-14.5630 -1.3278 -2.4090 0.9424
-14.4383 -2.3649 -2.4103 0.9424
-14.2424 -3.3916 -2.4119 0.9424
-13.9764 -4.4031 -2.4140 0.9423
-13.3351 -5.8329 -2.3978 0.9427
-12.4312 -5.9750 -2.2722 0.9456
-11.9898 -6.8565 -2.2754 0.9455
-11.4879 -7.7067 -2.2789 0.9455
-10.2655 -10.6796 -2.4403 0.9417
-9.8881 -11.0510 -2.4429 0.9417
-9.4975 -11.4094 -2.4456 0.9416
-9.0942 -11.7543 -2.4483 0.9415
-8.2513 -12.4021 -2.4540 0.9414
-12.4266 3.3883 -2.4210 0.9489
-12.5368 2.9418 -2.4204 0.9489
-12.6316 2.4918 -2.4200 0.9489
-12.7742 1.5837 -2.4194 0.9490
-12.8219 1.1265 -2.4193 0.9490
-12.8538 0.6680 -2.4193 0.9490
-12.8699 0.2086 -2.4194 0.9490
-12.8544 -0.7105 -2.4198 0.9490
-12.7755 -1.6266 -2.4207 0.9489
-12.1624 -4.3148 -2.4257 0.9488
-12.0065 -4.7486 -2.4268 0.9488
-11.8354 -5.1769 -2.4281 0.9488
-10.3347 -6.4102 -2.2858 0.9517
-10.1064 -6.7799 -2.2875 0.9517
-9.6112 -7.4951 -2.2909 0.9516
-9.3451 -7.8399 -2.2928 0.9516
-9.0668 -8.1754 -2.2947 0.9515
-7.9920 -10.3297 -2.4548 0.9482
-7.6258 -10.6191 -2.4573 0.9482
-4.7599 -7.7400 -1.7079 0.9637
-10.9772 3.4186 -2.4303 0.9541
-11.0897 3.0238 -2.4297 0.9541
-11.4008 1.4134 -2.4283 0.9541
-11.4434 1.0054 -2.4282 0.9541
-11.4862 -0.2240 -2.4284 0.9541
-11.4438 -1.0434 -2.4290 0.9541
-11.3446 -1.8582 -2.4300 0.9541
-10.8518 -3.8498 -2.4339 0.9540
-10.7120 -4.2366 -2.4350 0.9540
-10.5589 -4.6185 -2.4361 0.9540
-10.3924 -4.9951 -2.4373 0.9540
-9.3951 -5.8275 -2.3370 0.9558
-9.0132 -6.0465 -2.2942 0.9566
-8.7973 -6.3687 -2.2957 0.9566
-8.3322 -6.9901 -2.2990 0.9565
-7.2750 -8.1306 -2.3062 0.9564
-6.6878 -8.6440 -2.3102 0.9563
-6.0649 -9.1157 -2.3144 0.9562
-4.7529 -7.7287 -1.9179 0.9636
-9.9016 3.0836 -2.4374 0.9583
-10.0033 2.7276 -2.4368 0.9583
-10.0925 2.3682 -2.4364 0.9583
-10.2332 1.6415 -2.4358 0.9583
-10.2845 1.2750 -2.4356 0.9583
-10.3230 0.9070 -2.4355 0.9583
-10.3487 0.5378 -2.4355 0.9583
-10.3487 -0.5720 -2.4359 0.9583
-10.3229 -0.9412 -2.4362 0.9583
-10.2331 -1.6761 -2.4371 0.9583
-10.1690 -2.0409 -2.4376 0.9583
-10.0923 -2.4033 -2.4383 0.9583
-9.6606 -3.8208 -2.4416 0.9582
-9.0350 -5.1668 -2.4461 0.9581
-8.8495 -5.4890 -2.4474 0.9581
-8.6529 -5.8048 -2.4488 0.9581
-7.7255 -6.0246 -2.3025 0.9605
-7.2855 -6.5692 -2.3055 0.9605
-7.0512 -6.8299 -2.3071 0.9605
-6.8077 -7.0824 -2.3088 0.9604
-6.5554 -7.3264 -2.3105 0.9604
-6.2945 -7.5616 -2.3123 0.9604
-5.4630 -8.2112 -2.3179 0.9603
-4.7459 -7.7173 -2.1293 0.9635
-4.4622 -7.8728 -2.1268 0.9635
-9.2533 1.8254 -2.4420 0.9618
-9.3116 1.4937 -2.4418 0.9618
-9.3583 1.1602 -2.4416 0.9618
-9.3934 0.8253 -2.4415 0.9618
-9.4285 -0.1839 -2.4417 0.9618
-9.3932 -0.8565 -2.4422 0.9618
-9.3580 -1.1915 -2.4425 0.9618
-9.3111 -1.5251 -2.4429 0.9618
-8.7887 -3.4759 -2.4471 0.9617
-8.6623 -3.7890 -2.4480 0.9617
-8.3769 -4.4012 -2.4501 0.9617
-7.8698 -5.2795 -2.4537 0.9616
-7.4400 -5.8020 -2.4429 0.9618
-6.6247 -5.9734 -2.3096 0.9638
-5.9596 -6.6606 -2.3141 0.9637
-4.9651 -7.4628 -2.3208 0.9636
-4.6991 -7.6411 -2.3226 0.9636
-4.4267 -7.8102 -2.3244 0.9636
-8.2567 2.5714 -2.4481 0.9647
-8.3418 2.2745 -2.4477 0.9647
-8.4164 1.9749 -2.4473 0.9647
-8.4806 1.6730 -2.4470 0.9647
-8.5341 1.3690 -2.4468 0.9647
-8.5770 1.0633 -2.4467 0.9647
-8.6091 0.7564 -2.4466 0.9647
-8.6306 0.4485 -2.4466 0.9647
-8.6412 -0.1686 -2.4467 0.9647
-8.5763 -1.0919 -2.4475 0.9647
-8.5333 -1.3977 -2.4479 0.9647
-8.4795 -1.7018 -2.4484 0.9647
-8.3403 -2.3036 -2.4495 0.9647
-8.0534 -3.1851 -2.4517 0.9646
-7.6752 -4.0326 -2.4544 0.9646
-7.5296 -4.3059 -2.4555 0.9646
-6.8532 -5.3443 -2.4602 0.9645
-6.4288 -5.7967 -2.4505 0.9647
-5.6687 -5.8973 -2.3157 0.9666
-5.4578 -6.0997 -2.3171 0.9665
-5.2399 -6.2947 -2.3186 0.9665
-5.0151 -6.4820 -2.3201 0.9665
-4.5459 -6.8327 -2.3233 0.9665
-4.3021 -6.9956 -2.3249 0.9664
-4.0525 -7.1498 -2.3266 0.9664
-7.6911 2.0971 -2.4520 0.9672
-7.7600 1.8209 -2.4516 0.9672
-7.8192 1.5425 -2.4514 0.9672
-7.9081 0.9804 -2.4510 0.9672
-7.9577 0.4135 -2.4509 0.9672
-7.9674 -0.1554 -2.4511 0.9672
-7.9573 -0.4398 -2.4512 0.9672
-7.9373 -0.7237 -2.4515 0.9672
-7.8179 -1.5690 -2.4526 0.9672
-7.7584 -1.8475 -2.4531 0.9672
-7.4242 -2.9363 -2.4556 0.9671
-7.2006 -3.4609 -2.4573 0.9671
-7.0750 -3.7172 -2.4582 0.9671
-6.9405 -3.9690 -2.4592 0.9671
-6.7972 -4.2160 -2.4602 0.9671
-6.6452 -4.4580 -2.4612 0.9671
-6.4847 -4.6945 -2.4624 0.9671
-6.1392 -5.1503 -2.4648 0.9670
-5.9544 -5.3690 -2.4660 0.9670
-5.7620 -5.5812 -2.4674 0.9670
-4.8375 -5.8113 -2.3257 0.9689
-4.1878 -6.2944 -2.3254 0.9689
-3.9630 -6.4441 -2.3269 0.9688
-7.0545 2.1969 -2.4560 0.9693
-7.3563 0.6463 -2.4547 0.9694
-7.2909 -1.1942 -2.4558 0.9693
-7.1253 -1.9681 -2.4572 0.9693
-6.7798 -2.9655 -2.4598 0.9693
-6.6717 -3.2068 -2.4606 0.9693
-6.5552 -3.4441 -2.4614 0.9693
-6.4304 -3.6773 -2.4623 0.9693
-6.0075 -4.3491 -2.4653 0.9692
-5.8511 -4.5628 -2.4664 0.9692
-5.6870 -4.7710 -2.4675 0.9692
-5.3372 -5.1697 -2.4699 0.9692
-5.1518 -5.3597 -2.4712 0.9691
-4.9598 -5.5432 -2.4725 0.9691
-4.4810 -5.7917 -2.4341 0.9696
-3.4563 -6.0981 -2.3300 0.9709
-6.5659 2.0448 -2.4592 0.9712
-6.6337 1.8088 -2.4589 0.9712
-6.6933 1.5706 -2.4586 0.9712
-6.7445 1.3305 -2.4584 0.9712
-6.8471 0.6016 -2.4580 0.9712
-6.8641 0.3567 -2.4580 0.9712
-6.8726 0.1114 -2.4580 0.9712
-6.8724 -0.1341 -2.4581 0.9712
-6.8463 -0.6242 -2.4585 0.9712
-6.7860 -1.1115 -2.4590 0.9712
-6.7429 -1.3533 -2.4594 0.9712
-6.6316 -1.8317 -2.4603 0.9712
-6.5634 -2.0678 -2.4608 0.9712
-6.4022 -2.5321 -2.4621 0.9712
-6.3096 -2.7599 -2.4627 0.9712
-6.1002 -3.2051 -2.4643 0.9712
-5.7287 -3.8431 -2.4669 0.9711
-5.4442 -4.2455 -2.4689 0.9711
-5.1318 -4.6273 -2.4711 0.9711
-4.9656 -4.8098 -2.4722 0.9711
-4.7930 -4.9864 -2.4734 0.9710
-4.6142 -5.1569 -2.4746 0.9710
-4.2388 -5.4786 -2.4771 0.9710
-3.8411 -5.7734 -2.4798 0.9710
-3.5598 -5.7887 -2.4302 0.9715
-3.2849 -5.7957 -2.3823 0.9721
-6.1341 1.9103 -2.4621 0.9729
-6.2533 1.4674 -2.4615 0.9729
-6.3730 0.7901 -2.4610 0.9729
-6.4130 0.3333 -2.4609 0.9729
-6.4209 0.1041 -2.4609 0.9729
-6.3963 -0.5832 -2.4613 0.9729
-6.3397 -1.0384 -2.4619 0.9729
-6.2996 -1.2643 -2.4622 0.9729
-6.2514 -1.4886 -2.4626 0.9728
-6.0600 -2.1499 -2.4641 0.9728
-5.8941 -2.5781 -2.4654 0.9728
-5.7999 -2.7877 -2.4660 0.9728
-5.6984 -2.9939 -2.4668 0.9728
-5.3509 -3.5897 -2.4692 0.9728
-5.0849 -3.9653 -2.4711 0.9728
-4.9421 -4.1460 -2.4721 0.9727
-4.7929 -4.3217 -2.4731 0.9727
-4.6375 -4.4920 -2.4742 0.9727
-4.4762 -4.6567 -2.4753 0.9727
-4.3090 -4.8158 -2.4764 0.9727
-4.1363 -4.9689 -2.4776 0.9727
-3.9581 -5.1159 -2.4788 0.9727
-3.5866 -5.3908 -2.4813 0.9726
-3.3936 -5.5183 -2.4826 0.9726
-5.7495 1.7905 -2.4646 0.9743
-5.9061 1.1651 -2.4638 0.9743
-5.9736 0.7406 -2.4636 0.9743
-6.0184 0.0976 -2.4635 0.9743
-6.0183 -0.1174 -2.4636 0.9743
-5.9953 -0.5466 -2.4639 0.9743
-5.9422 -0.9733 -2.4644 0.9743
-5.9045 -1.1850 -2.4647 0.9743
-5.8593 -1.3953 -2.4651 0.9743
-5.8067 -1.6039 -2.4655 0.9743
-5.6797 -2.0150 -2.4665 0.9743
-5.6054 -2.2170 -2.4671 0.9743
-5.5240 -2.4163 -2.4677 0.9743
-5.4357 -2.6126 -2.4683 0.9743
-5.0144 -3.3640 -2.4713 0.9742
-4.8928 -3.5421 -2.4722 0.9742
-4.7649 -3.7158 -2.4731 0.9742
-4.6310 -3.8851 -2.4740 0.9742
-4.4910 -4.0495 -2.4750 0.9742
-4.0373 -4.5122 -2.4781 0.9742
-3.7084 -4.7931 -2.4803 0.9741
-3.5365 -4.9247 -2.4814 0.9741
-3.1791 -5.1696 -2.4838 0.9741
-2.9940 -5.2824 -2.4851 0.9741
-5.4043 1.6830 -2.4669 0.9756
-5.4603 1.4888 -2.4666 0.9756
-5.5869 0.8962 -2.4660 0.9756
-5.6362 0.4952 -2.4658 0.9756
-5.6571 -0.1103 -2.4659 0.9756
-5.6498 -0.3123 -2.4660 0.9756
-5.6354 -0.5138 -2.4662 0.9756
-5.5499 -1.1138 -2.4670 0.9756
-5.4016 -1.7017 -2.4682 0.9756
-5.3385 -1.8939 -2.4687 0.9756
-5.2686 -2.0837 -2.4692 0.9756
-5.1920 -2.2710 -2.4698 0.9756
-4.8210 -2.9903 -2.4724 0.9756
-4.7126 -3.1615 -2.4732 0.9755
-4.5982 -3.3288 -2.4740 0.9755
-4.4779 -3.4920 -2.4748 0.9755
-4.0833 -3.9552 -2.4775 0.9755
-3.9411 -4.1001 -2.4785 0.9755
-3.6414 -4.3745 -2.4806 0.9755
-3.4844 -4.5036 -2.4816 0.9755
-2.9869 -4.8569 -2.4850 0.9754
-5.1453 1.4029 -2.4686 0.9768
-5.2314 1.0320 -2.4682 0.9768
-5.3244 0.2767 -2.4679 0.9768
-5.3310 0.0864 -2.4679 0.9768
-5.3308 -0.1040 -2.4680 0.9768
-5.3239 -0.2943 -2.4681 0.9768
-5.3104 -0.4842 -2.4683 0.9768
-5.2902 -0.6735 -2.4685 0.9768
-5.2633 -0.8621 -2.4687 0.9768
-5.2297 -1.0496 -2.4690 0.9768
-5.0898 -1.6035 -2.4702 0.9768
-5.0302 -1.7845 -2.4706 0.9767
-4.7292 -2.4847 -2.4728 0.9767
-4.6387 -2.6527 -2.4735 0.9767
-4.5422 -2.8174 -2.4741 0.9767
-4.3322 -3.1362 -2.4756 0.9767
-3.8468 -3.7261 -2.4790 0.9767
-3.7127 -3.8625 -2.4799 0.9767
-3.4302 -4.1207 -2.4818 0.9766
-3.1300 -4.3586 -2.4838 0.9766
-2.8133 -4.5747 -2.4860 0.9766
-4.8092 1.4977 -2.4708 0.9778
-4.8590 1.3249 -2.4705 0.9778
-4.9969 0.6195 -2.4699 0.9778
-5.0283 0.2613 -2.4698 0.9778
-5.0345 0.0816 -2.4699 0.9778
-5.0278 -0.2779 -2.4700 0.9778
-4.9959 -0.6361 -2.4704 0.9778
-4.9387 -0.9912 -2.4709 0.9778
-4.9008 -1.1670 -2.4712 0.9778
-4.8065 -1.5143 -2.4719 0.9778
-4.7502 -1.6852 -2.4724 0.9778
-4.6879 -1.8541 -2.4728 0.9778
-4.6196 -2.0207 -2.4733 0.9778
-4.5455 -2.1848 -2.4739 0.9778
-4.4657 -2.3463 -2.4745 0.9778
-4.3801 -2.5048 -2.4751 0.9778
-4.2890 -2.6603 -2.4757 0.9778
-4.1925 -2.8125 -2.4764 0.9778
-3.6319 -3.5180 -2.4803 0.9777
-3.5053 -3.6467 -2.4811 0.9777
-3.3740 -3.7709 -2.4820 0.9777
-3.2385 -3.8904 -2.4830 0.9777
-2.9548 -4.1147 -2.4849 0.9777
-2.8071 -4.2193 -2.4859 0.9777
-2.5009 -4.4125 -2.4879 0.9777
-4.5976 1.2536 -2.4722 0.9788
-4.6390 1.0886 -2.4720 0.9788
-4.6746 0.9222 -2.4718 0.9788
-4.7043 0.7546 -2.4717 0.9788
-4.7281 0.5862 -2.4716 0.9788
-4.7459 0.4170 -2.4716 0.9788
-4.7452 -0.4327 -2.4719 0.9788
-4.7029 -0.7703 -2.4723 0.9788
-4.5477 -1.4327 -2.4736 0.9787
-4.4354 -1.7542 -2.4744 0.9787
-4.3708 -1.9118 -2.4749 0.9787
-4.2250 -2.2198 -2.4760 0.9787
-4.0578 -2.5169 -2.4772 0.9787
-3.9664 -2.6608 -2.4778 0.9787
-3.8698 -2.8015 -2.4785 0.9787
-3.7684 -2.9388 -2.4792 0.9787
-3.6622 -3.0723 -2.4799 0.9787
-3.5513 -3.2021 -2.4807 0.9787
-3.4358 -3.3279 -2.4815 0.9787
-3.0633 -3.6800 -2.4840 0.9787
-2.7949 -3.8921 -2.4858 0.9786
-2.6552 -3.9909 -2.4868 0.9786
-2.5120 -4.0847 -2.4877 0.9786
-4.4306 0.8740 -2.4734 0.9796
-4.4813 0.5556 -2.4732 0.9796
-4.4982 0.3952 -2.4732 0.9796
-4.5150 0.0732 -2.4732 0.9796
-4.5149 -0.0881 -2.4733 0.9796
-4.5090 -0.2492 -2.4734 0.9796
-4.3949 -1.0466 -2.4744 0.9796
-4.3102 -1.3579 -2.4751 0.9796
-4.2596 -1.5111 -2.4755 0.9796
-4.2036 -1.6626 -2.4759 0.9796
-4.1423 -1.8119 -2.4763 0.9796
-4.0758 -1.9590 -2.4768 0.9796
-4.0041 -2.1038 -2.4773 0.9796
-3.9273 -2.2459 -2.4779 0.9796
-3.6673 -2.6549 -2.4797 0.9796
-3.5712 -2.7849 -2.4804 0.9796
-3.3653 -3.0344 -2.4818 0.9795
-3.0243 -3.3800 -2.4841 0.9795
-2.3801 -3.8702 -2.4885 0.9795
-4.0937 1.2749 -2.4755 0.9804
-4.1363 1.1278 -2.4752 0.9804
-4.2056 0.8296 -2.4749 0.9804
-4.2857 0.0695 -2.4747 0.9804
-4.2855 -0.0836 -2.4747 0.9804
-4.2800 -0.2366 -2.4748 0.9804
-4.2310 -0.6930 -2.4753 0.9804
-4.1340 -1.1418 -2.4761 0.9804
-4.0911 -1.2889 -2.4765 0.9804
-3.9317 -1.7198 -2.4777 0.9804
-3.8004 -1.9968 -2.4786 0.9804
-3.7275 -2.1316 -2.4791 0.9804
-3.6499 -2.2639 -2.4797 0.9804
-3.5675 -2.3933 -2.4803 0.9804
-3.4807 -2.5198 -2.4809 0.9803
-3.3893 -2.6431 -2.4815 0.9803
-3.2937 -2.7632 -2.4822 0.9803
-3.0898 -2.9929 -2.4836 0.9803
-2.8701 -3.2077 -2.4851 0.9803
-2.7546 -3.3091 -2.4859 0.9803
-2.6356 -3.4065 -2.4867 0.9803
-2.3874 -3.5883 -2.4883 0.9803
