ply
format ascii 1.0
element vertex 293
property float32 x
property float32 y
property float32 z
property float32 I
end_header
-1.0887 -18.5400 3.2747 0.9273
-23.3177 -43.6021 -2.5076 0.8203
-21.6893 -44.3272 -2.5027 0.8207
-18.4014 -45.6758 -2.4973 0.8210
-1.1050 -48.8495 -2.4780 0.8223
0.6562 -48.8960 -2.4799 0.8221
-26.0759 -22.8403 -2.5417 0.8702
-22.0204 -25.7593 -2.4848 0.8729
-21.0976 -26.5606 -2.4871 0.8728
-18.0246 -30.9670 -2.6272 0.8661
-10.9614 -34.1128 -2.6272 0.8661
-7.2167 -35.0964 -2.6272 0.8661
-4.6707 -35.5250 -2.6272 0.8661
-0.7646 -33.7980 -2.4788 0.8732
-19.3908 -16.9847 -2.4748 0.9016
-18.8322 -17.7344 -2.4835 0.9013
-16.2374 -22.0271 -2.6272 0.8959
-15.4333 -22.5978 -2.6272 0.8959
-14.6091 -23.1391 -2.6272 0.8959
-12.0271 -24.5803 -2.6272 0.8959
-10.2259 -25.3826 -2.6272 0.8959
-9.3048 -25.7346 -2.6272 0.8959
-6.4738 -26.5883 -2.6272 0.8959
-5.5116 -26.8043 -2.6272 0.8959
-2.5873 -27.2425 -2.6272 0.8959
-1.5123 -25.7534 -2.4767 0.9015
-0.5840 -25.8169 -2.4792 0.9014
-16.1013 -15.1627 -2.6272 0.9148
-15.5448 -15.7330 -2.6272 0.9148
-14.3713 -16.8115 -2.6272 0.9148
-13.7563 -17.3183 -2.6272 0.9148
-12.4735 -18.2639 -2.6272 0.9148
-11.8074 -18.7015 -2.6272 0.9148
-10.4300 -19.5032 -2.6272 0.9148
-8.9985 -20.2036 -2.6272 0.9148
-8.2648 -20.5147 -2.6272 0.9148
-7.5203 -20.7992 -2.6272 0.9148
-3.6712 -21.8101 -2.6272 0.9148
-2.8830 -21.9282 -2.6272 0.9148
-1.9704 -20.7462 -2.4754 0.9195
-1.2226 -20.8205 -2.4774 0.9194
-0.4720 -20.8679 -2.4794 0.9194
0.2802 -20.8763 -2.4800 0.9193
-13.4986 -12.7117 -2.6272 0.9278
-13.0319 -13.1898 -2.6272 0.9278
-11.5326 -14.5189 -2.6272 0.9278
-10.4572 -15.3117 -2.6272 0.9278
-9.8987 -15.6785 -2.6272 0.9278
-9.3274 -16.0249 -2.6272 0.9278
-8.7441 -16.3506 -2.6272 0.9278
-6.9288 -17.1986 -2.6272 0.9278
-6.3047 -17.4371 -2.6272 0.9278
-5.6723 -17.6529 -2.6272 0.9278
-3.0778 -18.2846 -2.6272 0.9278
-2.4170 -18.3836 -2.6272 0.9278
-1.6514 -17.3880 -2.4748 0.9319
-1.0239 -17.4362 -2.4748 0.9319
-10.7925 -11.7408 -2.6272 0.9374
-9.4626 -12.8367 -2.6272 0.9374
-7.5206 -14.0629 -2.6272 0.9374
-7.0090 -14.3247 -2.6272 0.9374
-5.4225 -14.9973 -2.6272 0.9374
-4.8787 -15.1829 -2.6272 0.9374
-3.7727 -15.4948 -2.6272 0.9374
-3.2120 -15.6207 -2.6272 0.9374
-2.6471 -15.7263 -2.6272 0.9374
-0.9348 -15.9201 -2.6272 0.9374
-0.3606 -15.9435 -2.6272 0.9374
0.2102 -15.6634 -2.5806 0.9385
-10.5142 -9.2096 -2.6272 0.9447
-10.1756 -9.5824 -2.6272 0.9447
-9.4591 -10.2903 -2.6272 0.9447
-9.0822 -10.6244 -2.6272 0.9447
-8.6936 -10.9447 -2.6272 0.9447
-8.2936 -11.2508 -2.6272 0.9447
-7.4619 -11.8188 -2.6272 0.9447
-6.5915 -12.3255 -2.6272 0.9447
-6.1431 -12.5549 -2.6272 0.9447
-5.6868 -12.7681 -2.6272 0.9447
-5.2231 -12.9647 -2.6272 0.9447
-4.7526 -13.1445 -2.6272 0.9447
-4.2759 -13.3072 -2.6272 0.9447
-3.7937 -13.4526 -2.6272 0.9447
-2.8152 -13.6908 -2.6272 0.9447
-2.3201 -13.7834 -2.6272 0.9447
-1.8220 -13.8580 -2.6272 0.9447
-1.3215 -13.9147 -2.6272 0.9447
-0.3161 -13.9737 -2.6272 0.9447
-9.0482 -8.5207 -2.6272 0.9505
-7.7304 -9.7321 -2.6272 0.9505
-6.6352 -10.5094 -2.6272 0.9505
-5.8612 -10.9599 -2.6272 0.9505
-5.4625 -11.1640 -2.6272 0.9505
-4.6444 -11.5283 -2.6272 0.9505
-3.8022 -11.8328 -2.6272 0.9505
-3.3734 -11.9621 -2.6272 0.9505
-2.9403 -12.0759 -2.6272 0.9505
-2.5033 -12.1740 -2.6272 0.9505
-1.1751 -12.3730 -2.6272 0.9505
-0.2811 -12.4255 -2.6272 0.9505
0.1668 -12.4276 -2.6272 0.9505
-8.1380 -7.6636 -2.6272 0.9551
-7.8566 -7.9518 -2.6272 0.9551
-7.5650 -8.2297 -2.6272 0.9551
-6.9527 -8.7531 -2.6272 0.9551
-6.6328 -8.9979 -2.6272 0.9551
-5.6233 -9.6610 -2.6272 0.9551
-5.2716 -9.8574 -2.6272 0.9551
-4.5480 -10.2114 -2.6272 0.9551
-3.8009 -10.5124 -2.6272 0.9551
-3.0341 -10.7588 -2.6272 0.9551
-2.6445 -10.8611 -2.6272 0.9551
-1.8555 -11.0233 -2.6272 0.9551
-1.4571 -11.0830 -2.6272 0.9551
-0.6553 -11.1592 -2.6272 0.9551
-7.3869 -6.9563 -2.6272 0.9589
-7.1315 -7.2179 -2.6272 0.9589
-6.8668 -7.4702 -2.6272 0.9589
-6.5932 -7.7127 -2.6272 0.9589
-6.3111 -7.9453 -2.6272 0.9589
-5.7226 -8.3791 -2.6272 0.9589
-5.4170 -8.5798 -2.6272 0.9589
-5.1043 -8.7694 -2.6272 0.9589
-4.7850 -8.9476 -2.6272 0.9589
-4.1283 -9.2690 -2.6272 0.9589
-3.4501 -9.5422 -2.6272 0.9589
-3.1041 -9.6603 -2.6272 0.9589
-2.7541 -9.7659 -2.6272 0.9589
-2.4004 -9.8588 -2.6272 0.9589
-2.0437 -9.9388 -2.6272 0.9589
-0.2295 -10.1442 -2.6272 0.9589
0.1362 -10.1459 -2.6272 0.9589
-6.5225 -6.6016 -2.6272 0.9622
-6.2804 -6.8323 -2.6272 0.9622
-4.9544 -7.8472 -2.6272 0.9622
-4.6684 -8.0206 -2.6272 0.9622
-4.0787 -8.3359 -2.6272 0.9622
-3.7758 -8.4775 -2.6272 0.9622
-3.1555 -8.7273 -2.6272 0.9622
-2.5189 -8.9319 -2.6272 0.9622
-2.1954 -9.0169 -2.6272 0.9622
-1.8692 -9.0901 -2.6272 0.9622
-1.5404 -9.1516 -2.6272 0.9622
-1.2097 -9.2011 -2.6272 0.9622
-0.5440 -9.2643 -2.6272 0.9622
-6.4252 -5.6280 -2.6272 0.9649
-6.0033 -6.0760 -2.6272 0.9649
-5.0682 -6.8754 -2.6272 0.9649
-4.2968 -7.3821 -2.6272 0.9649
-3.4752 -7.8026 -2.6272 0.9649
-3.1918 -7.9227 -2.6272 0.9649
-2.9043 -8.0326 -2.6272 0.9649
-1.1134 -8.4686 -2.6272 0.9649
0.1146 -8.5407 -2.6272 0.9649
-5.9453 -5.2076 -2.6272 0.9672
-5.5549 -5.6222 -2.6272 0.9672
-5.3487 -5.8187 -2.6272 0.9672
-5.1356 -6.0076 -2.6272 0.9672
-4.6896 -6.3618 -2.6272 0.9672
-4.2194 -6.6830 -2.6272 0.9672
-3.7272 -6.9695 -2.6272 0.9672
-2.6874 -7.4326 -2.6272 0.9672
-1.8697 -7.6792 -2.6272 0.9672
-1.5919 -7.7416 -2.6272 0.9672
-1.3119 -7.7939 -2.6272 0.9672
-0.4633 -7.8900 -2.6272 0.9672
0.1061 -7.9028 -2.6272 0.9672
-5.1634 -5.2260 -2.6272 0.9693
-4.7737 -5.5842 -2.6272 0.9693
-4.5694 -5.7526 -2.6272 0.9693
-4.1433 -6.0667 -2.6272 0.9693
-3.6957 -6.3493 -2.6272 0.9693
-3.2288 -6.5990 -2.6272 0.9693
-2.9890 -6.7110 -2.6272 0.9693
-2.7453 -6.8143 -2.6272 0.9693
-2.2475 -6.9943 -2.6272 0.9693
-1.4797 -7.1960 -2.6272 0.9693
-1.2194 -7.2446 -2.6272 0.9693
-0.4306 -7.3339 -2.6272 0.9693
-5.1570 -4.5171 -2.6272 0.9711
-4.9909 -4.7000 -2.6272 0.9711
-4.8183 -4.8767 -2.6272 0.9711
-4.4546 -5.2110 -2.6272 0.9711
-4.2640 -5.3682 -2.6272 0.9711
-4.0678 -5.5183 -2.6272 0.9711
-3.8664 -5.6613 -2.6272 0.9711
-3.6599 -5.7969 -2.6272 0.9711
-3.4487 -5.9250 -2.6272 0.9711
-3.2330 -6.0454 -2.6272 0.9711
-2.7892 -6.2625 -2.6272 0.9711
-2.5618 -6.3589 -2.6272 0.9711
-2.0973 -6.5269 -2.6272 0.9711
-1.6218 -6.6610 -2.6272 0.9711
-1.3808 -6.7151 -2.6272 0.9711
-0.6482 -6.8249 -2.6272 0.9711
-0.1550 -6.8538 -2.6272 0.9711
0.0920 -6.8550 -2.6272 0.9711
-4.8287 -4.2295 -2.6272 0.9726
-4.3441 -4.7258 -2.6272 0.9726
-4.1711 -4.8793 -2.6272 0.9726
-3.9925 -5.0264 -2.6272 0.9726
-3.6202 -5.3008 -2.6272 0.9726
-3.4269 -5.4278 -2.6272 0.9726
-3.0271 -5.6605 -2.6272 0.9726
-2.6117 -5.8638 -2.6272 0.9726
-2.3987 -5.9541 -2.6272 0.9726
-2.1827 -6.0366 -2.6272 0.9726
-1.2929 -6.2876 -2.6272 0.9726
-1.0655 -6.3301 -2.6272 0.9726
-0.8367 -6.3643 -2.6272 0.9726
0.0861 -6.4185 -2.6272 0.9726
-4.5346 -3.9719 -2.6272 0.9740
-4.3885 -4.1327 -2.6272 0.9740
-4.2368 -4.2882 -2.6272 0.9740
-3.9170 -4.5821 -2.6272 0.9740
-3.7494 -4.7203 -2.6272 0.9740
-3.5769 -4.8523 -2.6272 0.9740
-3.0325 -5.2099 -2.6272 0.9740
-2.8428 -5.3158 -2.6272 0.9740
-2.6494 -5.4148 -2.6272 0.9740
-2.2526 -5.5915 -2.6272 0.9740
-2.0497 -5.6690 -2.6272 0.9740
-1.8441 -5.7392 -2.6272 0.9740
-1.6362 -5.8019 -2.6272 0.9740
-0.5700 -6.0012 -2.6272 0.9740
-0.3534 -6.0178 -2.6272 0.9740
-0.1363 -6.0266 -2.6272 0.9740
-4.2694 -3.7397 -2.6272 0.9753
-4.1319 -3.8911 -2.6272 0.9753
-3.9891 -4.0374 -2.6272 0.9753
-3.0300 -4.7992 -2.6272 0.9753
-2.8551 -4.9052 -2.6272 0.9753
-2.6765 -5.0049 -2.6272 0.9753
-2.3092 -5.1847 -2.6272 0.9753
-1.7363 -5.4036 -2.6272 0.9753
-1.5405 -5.4626 -2.6272 0.9753
-1.3427 -5.5146 -2.6272 0.9753
-1.1431 -5.5594 -2.6272 0.9753
-0.9421 -5.5969 -2.6272 0.9753
-0.1283 -5.6742 -2.6272 0.9753
0.0762 -5.6752 -2.6272 0.9753
-4.0289 -3.5290 -2.6272 0.9764
-3.7643 -3.8099 -2.6272 0.9764
-3.3312 -4.1938 -2.6272 0.9764
-3.1780 -4.3111 -2.6272 0.9764
-3.0206 -4.4228 -2.6272 0.9764
-2.8593 -4.5288 -2.6272 0.9764
-2.6943 -4.6289 -2.6272 0.9764
-2.5257 -4.7229 -2.6272 0.9764
-2.3539 -4.8108 -2.6272 0.9764
-1.6385 -5.0991 -2.6272 0.9764
-0.5064 -5.3319 -2.6272 0.9764
-0.1211 -5.3545 -2.6272 0.9764
-3.6867 -3.4718 -2.6272 0.9774
-3.5593 -3.6024 -2.6272 0.9774
-3.2906 -3.8494 -2.6272 0.9774
-3.1498 -3.9654 -2.6272 0.9774
-3.0049 -4.0763 -2.6272 0.9774
-2.8561 -4.1819 -2.6272 0.9774
-2.5475 -4.3767 -2.6272 0.9774
-2.2257 -4.5488 -2.6272 0.9774
-2.0604 -4.6261 -2.6272 0.9774
-1.8924 -4.6973 -2.6272 0.9774
-1.1980 -4.9204 -2.6272 0.9774
-0.4788 -5.0415 -2.6272 0.9774
-0.2969 -5.0554 -2.6272 0.9774
-0.1145 -5.0629 -2.6272 0.9774
0.0680 -5.0637 -2.6272 0.9774
-3.6082 -3.1605 -2.6272 0.9784
-3.4921 -3.2885 -2.6272 0.9784
-3.2462 -3.5314 -2.6272 0.9784
-3.1168 -3.6461 -2.6272 0.9784
-2.5608 -4.0560 -2.6272 0.9784
-2.1082 -4.3086 -2.6272 0.9784
-1.9516 -4.3818 -2.6272 0.9784
-1.7925 -4.4492 -2.6272 0.9784
-1.6310 -4.5109 -2.6272 0.9784
-1.4674 -4.5668 -2.6272 0.9784
-1.1347 -4.6606 -2.6272 0.9784
-0.6253 -4.7558 -2.6272 0.9784
-0.4535 -4.7752 -2.6272 0.9784
-0.2812 -4.7885 -2.6272 0.9784
0.0644 -4.7963 -2.6272 0.9784
-3.1982 -3.2369 -2.6272 0.9792
-3.0795 -3.3501 -2.6272 0.9792
-2.7000 -3.6628 -2.6272 0.9792
-2.2891 -3.9327 -2.6272 0.9792
-1.8514 -4.1568 -2.6272 0.9792
-1.3921 -4.3323 -2.6272 0.9792
-0.9165 -4.4572 -2.6272 0.9792
-0.4302 -4.5300 -2.6272 0.9792
-0.2667 -4.5426 -2.6272 0.9792
-0.1029 -4.5492 -2.6272 0.9792
