ply
format ascii 1.0
element vertex 582
property float32 x
property float32 y
property float32 z
property float32 I
end_header
-25.2086 39.5104 8.2640 0.8267
-16.3552 13.2529 3.7118 0.9181
-20.0504 15.0922 4.4250 0.9031
-20.0144 12.9334 4.2018 0.9077
-20.2774 11.1349 4.0791 0.9103
-20.8564 10.5002 4.1173 0.9095
-22.0992 10.1524 4.2882 0.9059
-26.6191 9.9925 5.0135 0.8909
-33.8803 10.0212 6.2299 0.8663
-44.5945 -9.6510 8.0452 0.8308
-19.9425 31.2566 5.6799 0.8607
-19.9692 26.8520 5.1264 0.8734
-20.0021 24.9788 4.9023 0.8785
-20.0313 23.2592 4.7025 0.8832
-20.0581 20.1746 4.3582 0.8913
-20.0660 17.4847 4.0773 0.8979
-20.0424 13.9922 3.7446 0.9058
-20.0532 11.9643 3.5773 0.9098
-20.2774 11.1349 3.5439 0.9106
-23.8855 9.9547 3.9642 0.9006
-23.7118 7.9460 3.8311 0.9038
-33.8757 10.0198 5.4118 0.8668
-19.9431 31.2576 4.8283 0.8611
-19.9689 26.8516 4.3576 0.8737
-20.0311 23.2589 3.9972 0.8835
-20.0578 20.1743 3.7046 0.8916
-20.0504 15.0922 3.2680 0.9037
-20.8564 10.5003 3.0407 0.9101
-23.8855 9.9547 3.3697 0.9009
-29.8742 10.0111 4.1029 0.8807
-33.8712 10.0185 4.5996 0.8672
-19.9531 33.8875 4.2228 0.8537
-19.9887 28.9881 3.7811 0.8679
-20.0016 24.9781 3.4362 0.8792
-20.0312 21.6432 3.1667 0.8881
-20.0575 20.1740 3.0548 0.8919
-20.0537 18.7769 2.9500 0.8954
-20.0424 13.9922 2.6248 0.9063
-20.2774 11.1349 2.4841 0.9111
-20.8564 10.5003 2.5074 0.9103
-22.0992 10.1524 2.6115 0.9068
-26.6238 9.9943 3.0537 0.8919
-29.8717 10.0102 3.3830 0.8810
-38.8872 10.0048 4.3118 0.8508
-45.6678 10.0230 5.0206 0.8285
-19.9444 31.2595 3.1389 0.8617
-19.9874 28.9862 2.9806 0.8682
-20.0014 24.9778 2.7088 0.8795
-20.0638 17.4828 2.2528 0.8987
-20.0504 15.0922 2.1244 0.9042
-20.0532 11.9643 1.9767 0.9105
-20.2774 11.1349 1.9583 0.9113
-20.8564 10.5003 1.9767 0.9105
-26.6253 9.9949 2.4075 0.8921
-38.8915 10.0059 3.3995 0.8511
-43.6750 7.9604 3.7581 0.8368
-19.9450 31.2605 2.2994 0.8619
-20.0304 23.2582 1.9034 0.8843
-20.0307 21.6427 1.8287 0.8885
-20.0532 18.7764 1.7035 0.8957
-20.0716 16.2643 1.6020 0.9016
-20.0504 15.0922 1.5562 0.9043
-20.0424 13.9922 1.5157 0.9067
-20.0144 12.9334 1.4777 0.9089
-20.0532 11.9643 1.4480 0.9107
-22.0992 10.1524 1.5081 0.9071
-26.6269 9.9955 1.7636 0.8923
-33.8577 10.0145 2.1894 0.8681
-19.9485 33.8798 1.5503 0.8544
-19.9456 31.2614 1.4622 0.8620
-19.9678 26.8502 1.3194 0.8746
-20.0008 24.9772 1.2617 0.8798
-20.0302 23.2579 1.2103 0.8844
-20.0305 21.6425 1.1628 0.8887
-20.0567 20.1732 1.1217 0.8924
-20.0529 18.7762 1.0832 0.8959
-20.0144 12.9334 0.9396 0.9090
-20.2774 11.1349 0.9122 0.9116
-20.8564 10.5003 0.9207 0.9108
-22.0992 10.1524 0.9590 0.9072
-26.6284 9.9960 1.1215 0.8924
-29.8644 10.0078 1.2419 0.8815
-38.9002 10.0082 1.5838 0.8515
-45.6589 10.0211 1.8432 0.8293
-19.9462 31.2624 0.6264 0.8621
-19.9836 28.9807 0.5946 0.8686
-20.0300 23.2576 0.5185 0.8844
-20.0303 21.6422 0.4981 0.8887
-20.0564 20.1729 0.4805 0.8924
-20.0526 18.7759 0.4641 0.8959
-20.0504 15.0922 0.4239 0.9045
-20.0532 11.9643 0.3944 0.9108
-20.2774 11.1349 0.3908 0.9116
-26.6300 9.9966 0.4805 0.8924
-29.8620 10.0070 0.5320 0.8816
-33.8488 10.0118 0.5963 0.8683
-38.9044 10.0093 0.6786 0.8515
-45.6558 10.0204 0.7896 0.8294
-19.6313 30.7689 -0.2055 0.8642
-19.9823 28.9788 -0.1982 0.8687
-19.9673 26.8495 -0.1884 0.8747
-20.0297 23.2574 -0.1728 0.8845
-20.0301 21.6420 -0.1660 0.8887
-20.0609 17.4802 -0.1498 0.8990
-20.0694 16.2625 -0.1454 0.9018
-20.0504 15.0922 -0.1413 0.9045
-20.0424 13.9922 -0.1376 0.9069
-23.8855 9.9547 -0.1457 0.9017
-26.6315 9.9972 -0.1602 0.8924
-29.8596 10.0062 -0.1773 0.8816
-33.8444 10.0105 -0.1987 0.8683
-16.2536 27.6045 -0.9020 0.8797
-17.5471 27.5023 -0.9186 0.8776
-18.3328 26.5868 -0.9093 0.8788
-20.0001 24.9762 -0.9010 0.8798
-20.0521 18.7754 -0.7735 0.8959
-20.0601 17.4796 -0.7492 0.8990
-20.0144 12.9334 -0.6710 0.9090
-20.0532 11.9643 -0.6575 0.9108
-20.2774 11.1349 -0.6514 0.9116
-20.8564 10.5003 -0.6575 0.9108
-26.6330 9.9978 -0.8010 0.8924
-29.8572 10.0054 -0.8867 0.8816
-33.8399 10.0092 -0.9937 0.8683
-38.9131 10.0115 -1.1314 0.8515
-45.6499 10.0191 -1.3160 0.8294
-15.2551 23.9099 -1.4384 0.8926
-17.5052 23.5388 -1.4877 0.8892
-19.1937 22.2867 -1.4916 0.8889
-20.0556 20.1721 -1.4426 0.8923
-20.0518 18.7752 -1.3931 0.8958
-20.0504 15.0922 -1.2727 0.9044
-20.0424 13.9922 -1.2396 0.9067
-20.8564 10.5003 -1.1842 0.9107
-22.0992 10.1524 -1.2334 0.9072
-23.8855 9.9547 -1.3123 0.9015
-26.6346 9.9984 -1.4428 0.8923
-33.8355 10.0079 -1.7894 0.8682
-48.3964 7.0434 -2.4802 0.8221
-48.6173 5.3084 -2.4802 0.8221
-48.7760 3.5665 -2.4802 0.8221
-48.8775 -1.6774 -2.4802 0.8221
-48.7862 -3.4240 -2.4802 0.8221
-45.7964 -15.1981 -2.4471 0.8243
-13.2542 20.7737 -1.8068 0.9059
-14.1678 20.5465 -1.8299 0.9047
-15.0971 20.3007 -1.8550 0.9035
-17.0085 19.7494 -1.9111 0.9007
-17.9854 19.4328 -1.9415 0.8992
-18.2061 18.3119 -1.8933 0.9016
-19.1439 17.9250 -1.9229 0.9002
-20.0587 17.4783 -1.9508 0.8988
-20.0504 15.0922 -1.8401 0.9042
-20.0424 13.9922 -1.7922 0.9066
-22.0992 10.1524 -1.7832 0.9071
-33.0402 7.2516 -2.4802 0.8731
-33.4740 4.8717 -2.4802 0.8731
-33.6268 3.6716 -2.4802 0.8731
-33.8266 0.0494 -2.4802 0.8731
-33.7437 -2.3683 -2.4802 0.8731
-33.4881 -4.7739 -2.4802 0.8731
-33.2960 -5.9683 -2.4802 0.8731
-32.4654 -9.4996 -2.4802 0.8731
-11.5361 18.0810 -2.0591 0.9174
-12.2935 17.8284 -2.0791 0.9167
-13.0567 17.5570 -2.1006 0.9158
-17.6876 15.4122 -2.2523 0.9100
-18.1889 14.7387 -2.2476 0.9102
-18.2288 13.7210 -2.1904 0.9124
-22.3811 9.3278 -2.3278 0.9072
-24.7735 7.3276 -2.4802 0.9014
-25.2339 5.5383 -2.4802 0.9014
-25.4158 4.6324 -2.4802 0.9014
-25.8166 0.9615 -2.4802 0.9014
-25.8345 0.0377 -2.4802 0.9014
-25.6900 -2.7291 -2.4802 0.9014
-24.7949 -7.2552 -2.4802 0.9014
-24.5196 -8.1371 -2.4802 0.9014
-9.4403 16.0330 -2.2101 0.9278
-10.0798 15.7984 -2.2261 0.9273
-10.7200 15.5465 -2.2432 0.9268
-11.9688 14.9468 -2.2746 0.9258
-13.6225 13.7017 -2.2951 0.9251
-15.6283 12.6638 -2.3894 0.9222
-16.7590 11.7000 -2.4279 0.9210
-17.8367 10.6419 -2.4672 0.9197
-19.5539 7.3404 -2.4810 0.9193
-19.8034 6.6363 -2.4809 0.9193
-20.3987 4.4771 -2.4808 0.9193
-20.5452 3.7446 -2.4807 0.9193
-20.6655 3.0076 -2.4806 0.9193
-20.7593 2.2667 -2.4806 0.9193
-20.8265 1.5229 -2.4805 0.9193
-20.8671 0.7771 -2.4804 0.9193
-20.8810 0.0305 -2.4804 0.9193
-20.8287 -1.4619 -2.4802 0.9193
-20.5524 -3.6840 -2.4802 0.9193
-20.4075 -4.4166 -2.4802 0.9193
-19.8172 -6.5766 -2.4802 0.9193
-8.2981 14.0932 -2.3173 0.9361
-9.9215 13.3412 -2.3557 0.9350
-10.4561 13.0577 -2.3702 0.9347
-11.4980 12.4233 -2.3985 0.9339
-11.9744 12.0440 -2.4064 0.9337
-13.4058 10.8630 -2.4448 0.9327
-14.3113 9.9911 -2.4730 0.9319
-14.7455 9.5286 -2.4875 0.9315
-15.3538 8.4312 -2.4819 0.9317
-15.6392 7.8737 -2.4809 0.9317
-15.9109 7.3094 -2.4809 0.9317
-16.1620 6.7358 -2.4809 0.9317
-16.6014 5.5633 -2.4808 0.9317
-16.9559 4.3624 -2.4807 0.9317
-17.2236 3.1393 -2.4806 0.9317
-17.3244 2.5213 -2.4805 0.9317
-17.4596 1.2767 -2.4804 0.9317
-17.4937 0.6515 -2.4804 0.9317
-17.5054 0.0256 -2.4803 0.9317
-17.4618 -1.2256 -2.4802 0.9317
-17.4069 -1.8492 -2.4802 0.9317
-17.2302 -3.0885 -2.4802 0.9317
-17.1087 -3.7026 -2.4802 0.9317
-16.8004 -4.9159 -2.4802 0.9317
-7.3734 12.5228 -2.3940 0.9428
-8.3150 12.0586 -2.4130 0.9423
-8.7693 11.7919 -2.4209 0.9422
-10.0681 10.8784 -2.4418 0.9417
-10.4956 10.5566 -2.4523 0.9414
-11.3255 9.8686 -2.4747 0.9409
-12.3549 8.6254 -2.4823 0.9407
-12.6478 8.1731 -2.4808 0.9408
-13.1998 7.2484 -2.4808 0.9408
-13.6842 6.2865 -2.4808 0.9408
-13.9000 5.7931 -2.4808 0.9408
-14.2780 4.7847 -2.4807 0.9408
-14.7075 3.2280 -2.4806 0.9408
-14.9001 2.1685 -2.4805 0.9408
-14.9678 1.6343 -2.4804 0.9408
-15.0164 1.0980 -2.4804 0.9408
-15.0458 0.5604 -2.4804 0.9408
-15.0559 0.0220 -2.4803 0.9408
-15.0468 -0.5164 -2.4803 0.9408
-15.0186 -1.0541 -2.4802 0.9408
-14.9713 -1.5904 -2.4802 0.9408
-14.9049 -2.1248 -2.4802 0.9408
-14.4497 -4.2281 -2.4802 0.9408
-14.2893 -4.7421 -2.4802 0.9408
-6.5860 11.1852 -2.4398 0.9485
-6.9761 10.9339 -2.4378 0.9486
-8.5750 9.9569 -2.4699 0.9479
-9.6449 9.0309 -2.4835 0.9476
-10.8217 7.5550 -2.4807 0.9477
-11.0850 7.1632 -2.4807 0.9477
-11.3341 6.7623 -2.4807 0.9477
-11.9932 5.5096 -2.4807 0.9477
-12.1823 5.0772 -2.4807 0.9477
-12.5137 4.1934 -2.4806 0.9477
-12.6554 3.7433 -2.4806 0.9477
-12.7810 3.2883 -2.4806 0.9477
-12.9829 2.3663 -2.4805 0.9477
-13.1184 1.4324 -2.4804 0.9477
-13.1868 0.4911 -2.4803 0.9477
-13.1878 -0.4526 -2.4802 0.9477
-13.1632 -0.9238 -2.4802 0.9477
-12.9885 -2.3282 -2.4802 0.9477
-12.5239 -4.1562 -2.4802 0.9477
-6.6551 9.6515 -2.4781 0.9532
-7.0095 9.4256 -2.4829 0.9531
-7.3427 9.1697 -2.4831 0.9531
-7.6636 8.8985 -2.4824 0.9531
-8.2757 8.3238 -2.4811 0.9531
-8.5664 8.0210 -2.4806 0.9532
-8.8478 7.7096 -2.4806 0.9532
-9.1178 7.3883 -2.4806 0.9532
-9.8567 6.3695 -2.4807 0.9532
-10.2869 5.6488 -2.4807 0.9532
-10.6641 4.8991 -2.4807 0.9532
-10.8323 4.5146 -2.4806 0.9532
-11.2531 3.3285 -2.4805 0.9532
-11.5443 2.1041 -2.4804 0.9532
-11.6120 1.6900 -2.4804 0.9532
-11.7028 0.8557 -2.4803 0.9532
-11.7257 0.4367 -2.4803 0.9532
-11.7267 -0.4024 -2.4802 0.9532
-11.7048 -0.8215 -2.4802 0.9532
-11.4681 -2.4819 -2.4802 0.9532
-11.3720 -2.8904 -2.4802 0.9532
-11.2614 -3.2952 -2.4802 0.9532
-11.1363 -3.6957 -2.4802 0.9532
-5.6801 8.9026 -2.4819 0.9575
-6.2996 8.4709 -2.4810 0.9576
-6.8876 7.9975 -2.4806 0.9576
-7.4416 7.4848 -2.4806 0.9576
-7.9576 6.9339 -2.4806 0.9576
-8.4329 6.3475 -2.4806 0.9576
-9.0642 5.4080 -2.4807 0.9576
-9.2519 5.0805 -2.4807 0.9576
-9.4275 4.7463 -2.4806 0.9576
-9.5911 4.4062 -2.4806 0.9576
-9.8812 3.7093 -2.4806 0.9576
-10.1208 2.9936 -2.4805 0.9576
-10.3087 2.2625 -2.4804 0.9576
-10.4913 1.1455 -2.4803 0.9576
-10.5254 0.7696 -2.4803 0.9576
-10.5273 -0.7389 -2.4802 0.9576
-10.4941 -1.1148 -2.4802 0.9576
-10.4476 -1.4893 -2.4802 0.9576
-10.3876 -1.8620 -2.4802 0.9576
-10.3144 -2.2322 -2.4802 0.9576
-10.1285 -2.9637 -2.4802 0.9576
-4.8611 8.2560 -2.4806 0.9612
-5.1529 8.0763 -2.4805 0.9612
-5.7170 7.6875 -2.4805 0.9612
-6.5075 7.0312 -2.4805 0.9612
-6.9934 6.5482 -2.4806 0.9612
-7.2231 6.2939 -2.4806 0.9612
-7.4436 6.0317 -2.4806 0.9612
-7.8557 5.4843 -2.4806 0.9612
-8.0468 5.1999 -2.4806 0.9612
-8.2276 4.9089 -2.4806 0.9612
-8.7058 3.9994 -2.4806 0.9612
-8.9692 3.3670 -2.4805 0.9612
-9.1867 2.7173 -2.4805 0.9612
-9.2779 2.3870 -2.4804 0.9612
-9.3572 2.0537 -2.4804 0.9612
-9.5727 0.3565 -2.4803 0.9612
-9.5558 -0.6707 -2.4802 0.9612
-9.5257 -1.0119 -2.4802 0.9612
-9.4290 -1.6901 -2.4802 0.9612
-9.2841 -2.3597 -2.4802 0.9612
-9.1938 -2.6902 -2.4802 0.9612
-4.4457 7.5504 -2.4805 0.9642
-4.7129 7.3867 -2.4805 0.9642
-5.7179 6.6394 -2.4805 0.9642
-6.1779 6.2138 -2.4805 0.9642
-6.3962 5.9889 -2.4806 0.9642
-6.6062 5.7564 -2.4806 0.9642
-7.1848 5.0159 -2.4806 0.9642
-7.3596 4.7558 -2.4806 0.9642
-7.8264 3.9403 -2.4806 0.9642
-8.0879 3.3708 -2.4805 0.9642
-8.2031 3.0794 -2.4805 0.9642
-8.3079 2.7841 -2.4805 0.9642
-8.4021 2.4852 -2.4804 0.9642
-8.5580 1.8783 -2.4804 0.9642
-8.6196 1.5711 -2.4804 0.9642
-8.7097 0.9510 -2.4803 0.9642
-8.7380 0.6389 -2.4803 0.9642
-8.7552 0.3261 -2.4803 0.9642
-8.7561 -0.3005 -2.4802 0.9642
-8.7122 -0.9255 -2.4802 0.9642
-8.6736 -1.2364 -2.4802 0.9642
-8.4087 -2.4604 -2.4802 0.9642
-4.0918 6.9493 -2.4805 0.9668
-4.5780 6.6392 -2.4805 0.9668
-4.8125 6.4712 -2.4805 0.9668
-5.0408 6.2950 -2.4805 0.9668
-6.2659 5.0773 -2.4806 0.9668
-6.4435 4.8501 -2.4806 0.9668
-6.6128 4.6166 -2.4806 0.9668
-6.7736 4.3772 -2.4806 0.9668
-7.3283 3.3666 -2.4805 0.9668
-7.4439 3.1024 -2.4805 0.9668
-7.5500 2.8342 -2.4805 0.9668
-7.6465 2.5624 -2.4804 0.9668
-7.7331 2.2873 -2.4804 0.9668
-7.9334 1.4460 -2.4803 0.9668
-7.9800 1.1614 -2.4803 0.9668
-8.0582 0.3001 -2.4802 0.9668
-8.0590 -0.2766 -2.4802 0.9668
-8.0440 -0.5646 -2.4802 0.9668
-8.0186 -0.8518 -2.4802 0.9668
-7.9831 -1.1380 -2.4802 0.9668
-7.9373 -1.4227 -2.4802 0.9668
-7.7393 -2.2646 -2.4802 0.9668
-3.7862 6.4303 -2.4804 0.9690
-4.0137 6.2908 -2.4805 0.9690
-4.6643 5.8249 -2.4805 0.9690
-4.8696 5.6544 -2.4805 0.9690
-6.1188 4.2717 -2.4806 0.9690
-6.5410 3.5918 -2.4805 0.9690
-6.8879 2.8706 -2.4805 0.9690
-7.0753 2.3710 -2.4804 0.9690
-7.2883 1.5996 -2.4803 0.9690
-7.4417 0.5441 -2.4803 0.9690
-7.4571 -0.2559 -2.4802 0.9690
-7.4432 -0.5224 -2.4802 0.9690
-7.3868 -1.0530 -2.4802 0.9690
-7.3444 -1.3165 -2.4802 0.9690
-7.2315 -1.8380 -2.4802 0.9690
-4.1392 5.5659 -2.4805 0.9710
-4.3356 5.4143 -2.4805 0.9710
-4.5264 5.2559 -2.4805 0.9710
-4.7115 5.0907 -2.4805 0.9710
-5.3892 4.3670 -2.4805 0.9710
-5.5420 4.1715 -2.4805 0.9710
-5.6876 3.9707 -2.4805 0.9710
-5.9567 3.5540 -2.4805 0.9710
-6.0800 3.3387 -2.4805 0.9710
-6.1954 3.1191 -2.4805 0.9710
-6.6512 1.9673 -2.4804 0.9710
-6.7746 1.4869 -2.4803 0.9710
-6.9172 0.5058 -2.4802 0.9710
-6.9308 0.2581 -2.4802 0.9710
-6.9316 -0.2379 -2.4802 0.9710
-6.9187 -0.4856 -2.4802 0.9710
-6.8969 -0.7327 -2.4802 0.9710
-6.6566 -1.9478 -2.4802 0.9710
-3.2841 5.5776 -2.4804 0.9727
-4.0458 5.0525 -2.4805 0.9727
-4.2239 4.9046 -2.4805 0.9727
-4.3966 4.7504 -2.4805 0.9727
-4.7249 4.4241 -2.4805 0.9727
-4.8801 4.2523 -2.4805 0.9727
-5.0290 4.0751 -2.4805 0.9727
-5.3074 3.7053 -2.4805 0.9727
-5.5586 3.3164 -2.4805 0.9727
-5.9745 2.4900 -2.4804 0.9727
-6.0596 2.2747 -2.4804 0.9727
-6.2682 1.6127 -2.4803 0.9727
-6.3219 1.3875 -2.4803 0.9727
-6.4048 0.9321 -2.4803 0.9727
-6.4339 0.7025 -2.4803 0.9727
-6.4677 0.2409 -2.4802 0.9727
-6.4683 -0.2220 -2.4802 0.9727
-6.4563 -0.4531 -2.4802 0.9727
-6.4359 -0.6837 -2.4802 0.9727
-6.3706 -1.1419 -2.4802 0.9727
-6.2727 -1.5943 -2.4802 0.9727
-6.2117 -1.8176 -2.4802 0.9727
-3.4404 4.9894 -2.4804 0.9741
-3.9550 4.5923 -2.4805 0.9741
-4.1167 4.4480 -2.4805 0.9741
-4.7088 3.8156 -2.4805 0.9741
-4.9694 3.4693 -2.4805 0.9741
-5.0903 3.2894 -2.4805 0.9741
-5.2046 3.1053 -2.4805 0.9741
-5.4132 2.7253 -2.4804 0.9741
-5.5071 2.5300 -2.4804 0.9741
-5.7463 1.9256 -2.4804 0.9741
-5.8114 1.7189 -2.4803 0.9741
-5.8691 1.5100 -2.4803 0.9741
-5.9620 1.0867 -2.4803 0.9741
-6.0601 0.0088 -2.4802 0.9741
-6.0565 -0.2078 -2.4802 0.9741
-6.0262 -0.6402 -2.4802 0.9741
-5.8733 -1.4928 -2.4802 0.9741
-5.8162 -1.7019 -2.4802 0.9741
-3.0613 4.7980 -2.4804 0.9755
-3.3964 4.5670 -2.4804 0.9755
-3.5575 4.4427 -2.4805 0.9755
-4.0128 4.0362 -2.4805 0.9755
-4.2911 3.7391 -2.4805 0.9755
-4.8876 2.9161 -2.4804 0.9755
-4.9887 2.7395 -2.4804 0.9755
-5.1717 2.3759 -2.4804 0.9755
-5.3282 2.0002 -2.4804 0.9755
-5.3963 1.8083 -2.4803 0.9755
-5.4575 1.6142 -2.4803 0.9755
-5.5117 1.4180 -2.4803 0.9755
-5.5588 1.2200 -2.4803 0.9755
-5.6574 0.6177 -2.4802 0.9755
-5.6871 0.2118 -2.4802 0.9755
-5.6877 -0.1952 -2.4802 0.9755
-5.6770 -0.3984 -2.4802 0.9755
-5.4620 -1.5982 -2.4802 0.9755
-5.4013 -1.7925 -2.4802 0.9755
-2.7189 4.6176 -2.4804 0.9767
-2.8822 4.5175 -2.4804 0.9767
-3.1977 4.3000 -2.4804 0.9767
-3.3495 4.1829 -2.4804 0.9767
-3.9117 3.6626 -2.4805 0.9767
-4.0401 3.5204 -2.4805 0.9767
-4.2813 3.2226 -2.4805 0.9767
-4.5007 2.9084 -2.4804 0.9767
-4.6018 2.7456 -2.4804 0.9767
-4.7862 2.4096 -2.4804 0.9767
-4.8693 2.2369 -2.4804 0.9767
-4.9461 2.0614 -2.4804 0.9767
-5.0166 1.8832 -2.4803 0.9767
-5.0807 1.7026 -2.4803 0.9767
-5.2714 0.9608 -2.4803 0.9767
-5.3024 0.7717 -2.4803 0.9767
-5.3439 0.3908 -2.4802 0.9767
-5.3545 0.1994 -2.4802 0.9767
-5.3582 0.0078 -2.4802 0.9767
-5.3282 -0.5660 -2.4802 0.9767
-5.2742 -0.9454 -2.4802 0.9767
-2.5656 4.3574 -2.4804 0.9777
-2.8705 4.1629 -2.4804 0.9777
-3.4348 3.7112 -2.4805 0.9777
-3.5653 3.5860 -2.4805 0.9777
-3.9288 3.1836 -2.4804 0.9777
-4.1462 2.8946 -2.4804 0.9777
-4.3425 2.5909 -2.4804 0.9777
-4.4323 2.4339 -2.4804 0.9777
-4.6674 1.9452 -2.4803 0.9777
-4.7339 1.7771 -2.4803 0.9777
-4.8488 1.4342 -2.4803 0.9777
-4.8969 1.2599 -2.4803 0.9777
-4.9388 1.0840 -2.4803 0.9777
-4.9744 0.9067 -2.4803 0.9777
-5.0036 0.7282 -2.4802 0.9777
-5.0429 0.3687 -2.4802 0.9777
-5.0528 0.1882 -2.4802 0.9777
-5.0563 0.0074 -2.4802 0.9777
-5.0533 -0.1734 -2.4802 0.9777
-5.0439 -0.3540 -2.4802 0.9777
-5.0280 -0.5341 -2.4802 0.9777
-5.0057 -0.7136 -2.4802 0.9777
-4.9419 -1.0695 -2.4802 0.9777
-4.9005 -1.2455 -2.4802 0.9777
-4.8528 -1.4200 -2.4802 0.9777
-4.7990 -1.5926 -2.4802 0.9777
-2.7142 3.9362 -2.4804 0.9787
-2.8532 3.8367 -2.4804 0.9787
-3.3711 3.3907 -2.4805 0.9787
-3.6048 3.1411 -2.4804 0.9787
-3.7148 3.0101 -2.4804 0.9787
-3.8200 2.8754 -2.4804 0.9787
-3.9204 2.7369 -2.4804 0.9787
-4.0157 2.5950 -2.4804 0.9787
-4.1059 2.4497 -2.4804 0.9787
-4.1909 2.3013 -2.4804 0.9787
-4.4131 1.8393 -2.4803 0.9787
-4.4761 1.6803 -2.4803 0.9787
-4.5847 1.3561 -2.4803 0.9787
-4.6302 1.1912 -2.4803 0.9787
-4.6698 1.0249 -2.4803 0.9787
-4.7311 0.6885 -2.4802 0.9787
-4.7527 0.5189 -2.4802 0.9787
-4.7682 0.3487 -2.4802 0.9787
-4.7542 -0.5050 -2.4802 0.9787
-4.7059 -0.8435 -2.4802 0.9787
-4.6727 -1.0113 -2.4802 0.9787
-4.6336 -1.1777 -2.4802 0.9787
-2.4359 3.8179 -2.4804 0.9796
-2.7025 3.6340 -2.4804 0.9796
-2.8308 3.5351 -2.4804 0.9796
-3.0762 3.3237 -2.4804 0.9796
-3.1930 3.2116 -2.4804 0.9796
-3.5186 2.8512 -2.4804 0.9796
-3.6183 2.7235 -2.4804 0.9796
-3.7133 2.5924 -2.4804 0.9796
-3.8036 2.4579 -2.4804 0.9796
-3.9695 2.1798 -2.4804 0.9796
-4.0449 2.0364 -2.4803 0.9796
-4.1151 1.8905 -2.4803 0.9796
-4.1801 1.7421 -2.4803 0.9796
-4.2396 1.5915 -2.4803 0.9796
-4.2939 1.4389 -2.4803 0.9796
-4.3425 1.2845 -2.4803 0.9796
-4.3857 1.1283 -2.4803 0.9796
-4.4232 0.9708 -2.4803 0.9796
-4.4812 0.6522 -2.4802 0.9796
-4.5017 0.4915 -2.4802 0.9796
-4.5253 0.1685 -2.4802 0.9796
-4.5284 0.0066 -2.4802 0.9796
-4.4831 -0.6391 -2.4802 0.9796
-4.4574 -0.7990 -2.4802 0.9796
-2.3108 3.6218 -2.4804 0.9804
-2.4388 3.5369 -2.4804 0.9804
-2.8036 3.2554 -2.4804 0.9804
-3.0291 3.0467 -2.4804 0.9804
-3.2390 2.8224 -2.4804 0.9804
-3.4324 2.5837 -2.4804 0.9804
-3.5226 2.4593 -2.4804 0.9804
-3.6083 2.3317 -2.4804 0.9804
-3.7657 2.0678 -2.4803 0.9804
-3.8372 1.9319 -2.4803 0.9804
-3.9038 1.7934 -2.4803 0.9804
-4.0220 1.5098 -2.4803 0.9804
-4.2705 0.4663 -2.4802 0.9804
-4.2929 0.1599 -2.4802 0.9804
-4.2959 0.0063 -2.4802 0.9804
-4.2934 -0.1473 -2.4802 0.9804
-4.2853 -0.3008 -2.4802 0.9804
-4.2719 -0.4538 -2.4802 0.9804
-4.2529 -0.6063 -2.4802 0.9804
-4.1635 -1.0582 -2.4802 0.9804
-4.1230 -1.2064 -2.4802 0.9804
-4.0772 -1.3531 -2.4802 0.9804
