ply
format ascii 1.0
element vertex 485
property float32 x
property float32 y
property float32 z
property float32 I
end_header
4.9013 -15.5233 0.2750 0.9370
5.5351 -15.5389 0.2786 0.9361
6.1870 -15.5550 0.2828 0.9352
6.8594 -15.5716 0.2874 0.9342
7.5552 -15.5888 0.2926 0.9330
7.4427 -16.8959 -0.1039 0.9288
4.2830 -15.5080 -0.4530 0.9376
5.3145 -16.8321 -0.4970 0.9318
6.7176 -16.8891 -0.5118 0.9298
7.4688 -16.9551 -0.5217 0.9285
7.3544 -45.4669 -2.3358 0.8315
5.3145 -16.8321 -0.8952 0.9317
6.7176 -16.8891 -0.9218 0.9298
7.4688 -16.9551 -0.9396 0.9285
20.0750 -41.4211 -2.3344 0.8316
23.0254 -39.8412 -2.3337 0.8317
24.4525 -38.9678 -2.3331 0.8317
25.8466 -38.0434 -2.3325 0.8318
29.8369 -35.0048 -2.3326 0.8318
31.0957 -33.9033 -2.3331 0.8317
32.3140 -32.7564 -2.3335 0.8317
37.7391 -26.3971 -2.3356 0.8316
41.0994 -20.6139 -2.3318 0.8318
46.5064 -15.3824 -2.4842 0.8219
47.0350 -13.6813 -2.4842 0.8219
47.9049 -10.2271 -2.4842 0.8219
48.2450 -8.4786 -2.4842 0.8219
5.0877 -31.4533 -2.3362 0.8800
6.2274 -31.2448 -2.3360 0.8800
5.3145 -16.8321 -1.2942 0.9317
6.0099 -16.8717 -1.3132 0.9307
14.9156 -28.1218 -2.3340 0.8801
16.9138 -26.9541 -2.3332 0.8802
18.8212 -25.6447 -2.3324 0.8802
19.7377 -24.9391 -2.3320 0.8802
20.6313 -24.2048 -2.3320 0.8802
23.1532 -21.8230 -2.3329 0.8802
24.6842 -20.0879 -2.3335 0.8802
25.4014 -19.1795 -2.3338 0.8802
26.0849 -18.2454 -2.3340 0.8801
26.7055 -17.2684 -2.3318 0.8802
27.3157 -16.2860 -2.3318 0.8802
27.8898 -15.2820 -2.3318 0.8802
30.8171 -14.0786 -2.4842 0.8729
31.7587 -11.8019 -2.4842 0.8729
32.1668 -10.6394 -2.4842 0.8729
32.5324 -9.4628 -2.4842 0.8729
32.8549 -8.2737 -2.4842 0.8729
33.3693 -5.8643 -2.4842 0.8729
33.5605 -4.6472 -2.4842 0.8729
33.7073 -3.4239 -2.4842 0.8729
33.8094 -2.1961 -2.4842 0.8729
4.7568 -23.8663 -2.3364 0.9068
5.6207 -23.6746 -2.3361 0.9068
4.2830 -15.5080 -1.5446 0.9374
6.0099 -16.8717 -1.7195 0.9306
6.7176 -16.8891 -1.7450 0.9296
7.2739 -16.5126 -1.7323 0.9301
8.1726 -16.8627 -1.7990 0.9275
12.1626 -21.0452 -2.3336 0.9069
13.6561 -20.1004 -2.3330 0.9070
17.6747 -16.6592 -2.3318 0.9070
18.2687 -16.0056 -2.3318 0.9070
18.8386 -15.3308 -2.3318 0.9070
20.1355 -15.2035 -2.4223 0.9036
22.2254 -13.2511 -2.4842 0.9012
22.6925 -12.4342 -2.4842 0.9012
23.1295 -11.6009 -2.4842 0.9012
24.2552 -9.0135 -2.4842 0.9012
24.8460 -7.2271 -2.4842 0.9012
25.4852 -4.4788 -2.4842 0.9012
25.6312 -3.5492 -2.4842 0.9012
25.7433 -2.6150 -2.4842 0.9012
3.1403 -19.4137 -2.3360 0.9238
3.8436 -19.2847 -2.3358 0.9238
4.5418 -19.1302 -2.3356 0.9239
4.2830 -15.5080 -1.9111 0.9372
6.5918 -18.5052 -2.3334 0.9239
7.4688 -16.9551 -2.2008 0.9281
10.4340 -16.6277 -2.3318 0.9240
11.0316 -16.2374 -2.3318 0.9240
12.1825 -15.3928 -2.3318 0.9240
12.9664 -15.2123 -2.3744 0.9226
15.2186 -14.3443 -2.4842 0.9192
15.7301 -13.7815 -2.4842 0.9192
16.2208 -13.2004 -2.4842 0.9192
16.6900 -12.6020 -2.4842 0.9192
17.9630 -10.7097 -2.4842 0.9192
18.6937 -9.3761 -2.4842 0.9192
19.0223 -8.6902 -2.4842 0.9192
19.8554 -6.5673 -2.4842 0.9192
20.0810 -5.8411 -2.4842 0.9192
20.2801 -5.1071 -2.4842 0.9192
20.4524 -4.3663 -2.4842 0.9192
20.5977 -3.6198 -2.4842 0.9192
20.7157 -2.8685 -2.4842 0.9192
3.8015 -16.0121 -2.3318 0.9357
4.2830 -15.5080 -2.2796 0.9371
5.5224 -15.5030 -2.3318 0.9357
7.3709 -15.2086 -2.3946 0.9340
8.7731 -15.1800 -2.4842 0.9316
9.3191 -14.8510 -2.4842 0.9316
10.3737 -14.1345 -2.4842 0.9316
11.3734 -13.3433 -2.4842 0.9316
11.8510 -12.9210 -2.4842 0.9316
12.7586 -12.0256 -2.4842 0.9316
13.5988 -11.0666 -2.4842 0.9316
14.3671 -10.0492 -2.4842 0.9316
14.7229 -9.5202 -2.4842 0.9316
15.6720 -7.8605 -2.4842 0.9316
15.9474 -7.2855 -2.4842 0.9316
16.2018 -6.7008 -2.4842 0.9316
16.8350 -4.8969 -2.4842 0.9316
17.0019 -4.2816 -2.4842 0.9316
17.1464 -3.6605 -2.4842 0.9316
17.4959 -1.1364 -2.4842 0.9316
2.9475 -14.7887 -2.4842 0.9407
4.0144 -14.5355 -2.4842 0.9407
5.0601 -14.2053 -2.4842 0.9407
5.5732 -14.0119 -2.4842 0.9407
6.0790 -13.8000 -2.4842 0.9407
6.5767 -13.5699 -2.4842 0.9407
7.5455 -13.0561 -2.4842 0.9407
9.3583 -11.8244 -2.4842 0.9407
9.7821 -11.4764 -2.4842 0.9407
10.5902 -10.7351 -2.4842 0.9407
10.9735 -10.3430 -2.4842 0.9407
11.6961 -9.5182 -2.4842 0.9407
12.0344 -9.0867 -2.4842 0.9407
12.3568 -8.6431 -2.4842 0.9407
13.7161 -6.2661 -2.4842 0.9407
14.4795 -4.2117 -2.4842 0.9407
14.6231 -3.6825 -2.4842 0.9407
14.7473 -3.1484 -2.4842 0.9407
14.9371 -2.0684 -2.4842 0.9407
15.0025 -1.5239 -2.4842 0.9407
2.5834 -12.9617 -2.4842 0.9476
3.5185 -12.7397 -2.4842 0.9476
3.9793 -12.6033 -2.4842 0.9476
4.4349 -12.4503 -2.4842 0.9476
4.8847 -12.2808 -2.4842 0.9476
5.3280 -12.0951 -2.4842 0.9476
7.0249 -11.1950 -2.4842 0.9476
7.4274 -10.9322 -2.4842 0.9476
7.8199 -10.6550 -2.4842 0.9476
8.5735 -10.0585 -2.4842 0.9476
8.9336 -9.7401 -2.4842 0.9476
9.6178 -9.0652 -2.4842 0.9476
9.9410 -8.7095 -2.4842 0.9476
10.8302 -7.5753 -2.4842 0.9476
11.0985 -7.1765 -2.4842 0.9476
11.3521 -6.7683 -2.4842 0.9476
12.2133 -5.0512 -2.4842 0.9476
12.5481 -4.1504 -2.4842 0.9476
12.8165 -3.2275 -2.4842 0.9476
12.9254 -2.7594 -2.4842 0.9476
13.0917 -1.8128 -2.4842 0.9476
13.1490 -1.3356 -2.4842 0.9476
13.1888 -0.8567 -2.4842 0.9476
2.2972 -11.5256 -2.4842 0.9531
2.7147 -11.4345 -2.4842 0.9531
3.1287 -11.3282 -2.4842 0.9531
3.5385 -11.2070 -2.4842 0.9531
3.9436 -11.0709 -2.4842 0.9531
5.5067 -10.3823 -2.4842 0.9531
5.8806 -10.1753 -2.4842 0.9531
6.2466 -9.9547 -2.4842 0.9531
6.6045 -9.7210 -2.4842 0.9531
6.9535 -9.4745 -2.4842 0.9531
7.2934 -9.2154 -2.4842 0.9531
7.6237 -8.9441 -2.4842 0.9531
7.9438 -8.6610 -2.4842 0.9531
8.2535 -8.3665 -2.4842 0.9531
8.5522 -8.0608 -2.4842 0.9531
9.6303 -6.7360 -2.4842 0.9531
10.3065 -5.6474 -2.4842 0.9531
10.6896 -4.8835 -2.4842 0.9531
11.2846 -3.2824 -2.4842 0.9531
11.3965 -2.8699 -2.4842 0.9531
11.5750 -2.0342 -2.4842 0.9531
11.6412 -1.6120 -2.4842 0.9531
11.6922 -1.1877 -2.4842 0.9531
2.0661 -10.3662 -2.4842 0.9575
3.1825 -10.0796 -2.4842 0.9575
3.5469 -9.9572 -2.4842 0.9575
3.9066 -9.8217 -2.4842 0.9575
4.6100 -9.5118 -2.4842 0.9575
4.9527 -9.3379 -2.4842 0.9575
5.2890 -9.1516 -2.4842 0.9575
6.8567 -8.0444 -2.4842 0.9575
7.4232 -7.5248 -2.4842 0.9575
7.6918 -7.2499 -2.4842 0.9575
8.4355 -6.3693 -2.4842 0.9575
8.6615 -6.0584 -2.4842 0.9575
9.2697 -5.0793 -2.4842 0.9575
9.7676 -4.0397 -2.4842 0.9575
9.9081 -3.6819 -2.4842 0.9575
10.0354 -3.3193 -2.4842 0.9575
10.2501 -2.5812 -2.4842 0.9575
10.4105 -1.8296 -2.4842 0.9575
10.4701 -1.4498 -2.4842 0.9575
10.5159 -1.0682 -2.4842 0.9575
10.5478 -0.6851 -2.4842 0.9575
1.5321 -9.4715 -2.4842 0.9611
1.8754 -9.4095 -2.4842 0.9611
2.2163 -9.3351 -2.4842 0.9611
2.5542 -9.2483 -2.4842 0.9611
2.8888 -9.1493 -2.4842 0.9611
3.2196 -9.0383 -2.4842 0.9611
3.5460 -8.9152 -2.4842 0.9611
3.8678 -8.7804 -2.4842 0.9611
4.4957 -8.4761 -2.4842 0.9611
5.6768 -7.7350 -2.4842 0.9611
5.9543 -7.5234 -2.4842 0.9611
6.4853 -7.0708 -2.4842 0.9611
7.2166 -6.3226 -2.4842 0.9611
7.4417 -6.0561 -2.4842 0.9611
7.6571 -5.7815 -2.4842 0.9611
7.8622 -5.4993 -2.4842 0.9611
8.0569 -5.2098 -2.4842 0.9611
8.9937 -3.3421 -2.4842 0.9611
9.1092 -3.0129 -2.4842 0.9611
9.3041 -2.3430 -2.4842 0.9611
9.5744 -0.6219 -2.4842 0.9611
1.7153 -8.6059 -2.4842 0.9642
2.0270 -8.5379 -2.4842 0.9642
2.3361 -8.4586 -2.4842 0.9642
2.6421 -8.3680 -2.4842 0.9642
3.2432 -8.1539 -2.4842 0.9642
3.5375 -8.0306 -2.4842 0.9642
3.8272 -7.8967 -2.4842 0.9642
4.1118 -7.7523 -2.4842 0.9642
4.6642 -7.4330 -2.4842 0.9642
5.9315 -6.4670 -2.4842 0.9642
6.1627 -6.2471 -2.4842 0.9642
6.3858 -6.0189 -2.4842 0.9642
6.6004 -5.7827 -2.4842 0.9642
6.8063 -5.5389 -2.4842 0.9642
7.0032 -5.2878 -2.4842 0.9642
7.1908 -5.0297 -2.4842 0.9642
7.6957 -4.2168 -2.4842 0.9642
7.8439 -3.9342 -2.4842 0.9642
7.9818 -3.6464 -2.4842 0.9642
8.3313 -2.7556 -2.4842 0.9642
8.4260 -2.4509 -2.4842 0.9642
8.5096 -2.1429 -2.4842 0.9642
8.6923 -1.2036 -2.4842 0.9642
8.7303 -0.8868 -2.4842 0.9642
8.7568 -0.5688 -2.4842 0.9642
1.2897 -7.9730 -2.4842 0.9668
1.5787 -7.9209 -2.4842 0.9668
2.1501 -7.7852 -2.4842 0.9668
2.4318 -7.7019 -2.4842 0.9668
3.5225 -7.2680 -2.4842 0.9668
3.7844 -7.1352 -2.4842 0.9668
4.0414 -6.9928 -2.4842 0.9668
4.5388 -6.6807 -2.4842 0.9668
4.7787 -6.5112 -2.4842 0.9668
5.0123 -6.3332 -2.4842 0.9668
5.2393 -6.1467 -2.4842 0.9668
5.4593 -5.9522 -2.4842 0.9668
5.8774 -5.5397 -2.4842 0.9668
6.0749 -5.3224 -2.4842 0.9668
6.9373 -4.1361 -2.4842 0.9668
7.2195 -3.6210 -2.4842 0.9668
7.3463 -3.3561 -2.4842 0.9668
7.4635 -3.0868 -2.4842 0.9668
7.6681 -2.5363 -2.4842 0.9668
7.7552 -2.2558 -2.4842 0.9668
7.8987 -1.6863 -2.4842 0.9668
7.9547 -1.3980 -2.4842 0.9668
8.0003 -1.1078 -2.4842 0.9668
8.0353 -0.8162 -2.4842 0.9668
8.0597 -0.5235 -2.4842 0.9668
1.4608 -7.3293 -2.4842 0.9690
2.2502 -7.1266 -2.4842 0.9690
2.5078 -7.0401 -2.4842 0.9690
2.7621 -6.9443 -2.4842 0.9690
3.0127 -6.8392 -2.4842 0.9690
3.2594 -6.7252 -2.4842 0.9690
4.4218 -6.0249 -2.4842 0.9690
5.0516 -5.5076 -2.4842 0.9690
5.4384 -5.1260 -2.4842 0.9690
5.6212 -4.9248 -2.4842 0.9690
5.7966 -4.7172 -2.4842 0.9690
5.9642 -4.5033 -2.4842 0.9690
6.2757 -4.0580 -2.4842 0.9690
6.4191 -3.8271 -2.4842 0.9690
6.6803 -3.3506 -2.4842 0.9690
7.1760 -2.0873 -2.4842 0.9690
7.2472 -1.8250 -2.4842 0.9690
7.3087 -1.5603 -2.4842 0.9690
7.3606 -1.2935 -2.4842 0.9690
7.4028 -1.0251 -2.4842 0.9690
7.4352 -0.7552 -2.4842 0.9690
1.6047 -6.7589 -2.4842 0.9709
1.8494 -6.6961 -2.4842 0.9709
2.3310 -6.5440 -2.4842 0.9709
2.5674 -6.4549 -2.4842 0.9709
2.8004 -6.3573 -2.4842 0.9709
3.0297 -6.2512 -2.4842 0.9709
3.2550 -6.1370 -2.4842 0.9709
3.4760 -6.0146 -2.4842 0.9709
4.1102 -5.6003 -2.4842 0.9709
4.3111 -5.4472 -2.4842 0.9709
4.6955 -5.1195 -2.4842 0.9709
4.8786 -4.9454 -2.4842 0.9709
5.0552 -4.7647 -2.4842 0.9709
5.2251 -4.5778 -2.4842 0.9709
5.3881 -4.3848 -2.4842 0.9709
5.5439 -4.1860 -2.4842 0.9709
5.9667 -3.5574 -2.4842 0.9709
6.0921 -3.3382 -2.4842 0.9709
6.2095 -3.1144 -2.4842 0.9709
6.7364 -1.6964 -2.4842 0.9709
6.8811 -0.9528 -2.4842 0.9709
6.9112 -0.7020 -2.4842 0.9709
6.9321 -0.4503 -2.4842 0.9709
1.0351 -6.3993 -2.4842 0.9726
1.2671 -6.3574 -2.4842 0.9726
1.7257 -6.2486 -2.4842 0.9726
2.3958 -6.0235 -2.4842 0.9726
3.0375 -5.7268 -2.4842 0.9726
3.2437 -5.6126 -2.4842 0.9726
3.4456 -5.4909 -2.4842 0.9726
3.6430 -5.3620 -2.4842 0.9726
4.0230 -5.0831 -2.4842 0.9726
4.5525 -4.6149 -2.4842 0.9726
4.7173 -4.4463 -2.4842 0.9726
4.8759 -4.2718 -2.4842 0.9726
5.4436 -3.5200 -2.4842 0.9726
5.5680 -3.3197 -2.4842 0.9726
5.6850 -3.1150 -2.4842 0.9726
5.9904 -2.4775 -2.4842 0.9726
6.0765 -2.2581 -2.4842 0.9726
6.2862 -1.5830 -2.4842 0.9726
6.3847 -1.1220 -2.4842 0.9726
0.9692 -5.9919 -2.4842 0.9741
1.4021 -5.9056 -2.4842 0.9741
1.6159 -5.8507 -2.4842 0.9741
2.0368 -5.7179 -2.4842 0.9741
2.2433 -5.6400 -2.4842 0.9741
2.4469 -5.5547 -2.4842 0.9741
2.6473 -5.4621 -2.4842 0.9741
3.0372 -5.2553 -2.4842 0.9741
3.2262 -5.1413 -2.4842 0.9741
3.5913 -4.8933 -2.4842 0.9741
3.9374 -4.6194 -2.4842 0.9741
4.5655 -3.9999 -2.4842 0.9741
4.8440 -3.6575 -2.4842 0.9741
5.0970 -3.2958 -2.4842 0.9741
5.2135 -3.1083 -2.4842 0.9741
5.3231 -2.9167 -2.4842 0.9741
5.6090 -2.3198 -2.4842 0.9741
5.6896 -2.1143 -2.4842 0.9741
5.8283 -1.6953 -2.4842 0.9741
5.8860 -1.4822 -2.4842 0.9741
5.9360 -1.2673 -2.4842 0.9741
6.0387 -0.6134 -2.4842 0.9741
1.1142 -5.5902 -2.4842 0.9754
1.3167 -5.5459 -2.4842 0.9754
1.7162 -5.4356 -2.4842 0.9754
1.9127 -5.3696 -2.4842 0.9754
2.1067 -5.2965 -2.4842 0.9754
2.2979 -5.2164 -2.4842 0.9754
2.4860 -5.1294 -2.4842 0.9754
2.8522 -4.9352 -2.4842 0.9754
3.8529 -4.2008 -2.4842 0.9754
4.2874 -3.7563 -2.4842 0.9754
4.4211 -3.5979 -2.4842 0.9754
4.6709 -3.2671 -2.4842 0.9754
4.8960 -2.9190 -2.4842 0.9754
4.9989 -2.7391 -2.4842 0.9754
5.1847 -2.3686 -2.4842 0.9754
5.2674 -2.1785 -2.4842 0.9754
5.4733 -1.5920 -2.4842 0.9754
5.5745 -1.1901 -2.4842 0.9754
5.6709 -0.5760 -2.4842 0.9754
1.4287 -5.1731 -2.4842 0.9766
1.8009 -5.0556 -2.4842 0.9766
1.9835 -4.9868 -2.4842 0.9766
2.3407 -4.8295 -2.4842 0.9766
2.5147 -4.7412 -2.4842 0.9766
2.6854 -4.6466 -2.4842 0.9766
3.1754 -4.3266 -2.4842 0.9766
3.4814 -4.0844 -2.4842 0.9766
3.6276 -3.9551 -2.4842 0.9766
3.7690 -3.8206 -2.4842 0.9766
4.0367 -3.5366 -2.4842 0.9766
4.2830 -3.2339 -2.4842 0.9766
4.5067 -2.9141 -2.4842 0.9766
4.6097 -2.7483 -2.4842 0.9766
4.7066 -2.5789 -2.4842 0.9766
4.9594 -2.0511 -2.4842 0.9766
5.0307 -1.8695 -2.4842 0.9766
5.2043 -1.3106 -2.4842 0.9766
5.3161 -0.7361 -2.4842 0.9766
5.3393 -0.5424 -2.4842 0.9766
5.3555 -0.3479 -2.4842 0.9766
0.8087 -4.9994 -2.4842 0.9777
0.9899 -4.9667 -2.4842 0.9777
1.1699 -4.9274 -2.4842 0.9777
1.3482 -4.8817 -2.4842 0.9777
1.5248 -4.8294 -2.4842 0.9777
1.8717 -4.7058 -2.4842 0.9777
2.0416 -4.6347 -2.4842 0.9777
2.2088 -4.5574 -2.4842 0.9777
2.6919 -4.2898 -2.4842 0.9777
2.9965 -4.0828 -2.4842 0.9777
3.2853 -3.8543 -2.4842 0.9777
3.6854 -3.4736 -2.4842 0.9777
3.8092 -3.3373 -2.4842 0.9777
4.0417 -3.0517 -2.4842 0.9777
4.1500 -2.9027 -2.4842 0.9777
4.2528 -2.7499 -2.4842 0.9777
4.6065 -2.1044 -2.4842 0.9777
4.8082 -1.5904 -2.4842 0.9777
4.8629 -1.4145 -2.4842 0.9777
4.9111 -1.2367 -2.4842 0.9777
4.9528 -1.0574 -2.4842 0.9777
5.0166 -0.6946 -2.4842 0.9777
5.0385 -0.5118 -2.4842 0.9777
5.0538 -0.3283 -2.4842 0.9777
1.1061 -4.6591 -2.4842 0.9787
1.2748 -4.6158 -2.4842 0.9787
1.9304 -4.3822 -2.4842 0.9787
2.3961 -4.1460 -2.4842 0.9787
2.5453 -4.0561 -2.4842 0.9787
3.1063 -3.6443 -2.4842 0.9787
3.2368 -3.5290 -2.4842 0.9787
3.4847 -3.2844 -2.4842 0.9787
3.6018 -3.1556 -2.4842 0.9787
3.7141 -3.0225 -2.4842 0.9787
3.8216 -2.8855 -2.4842 0.9787
3.9239 -2.7446 -2.4842 0.9787
4.1130 -2.4522 -2.4842 0.9787
4.1995 -2.3011 -2.4842 0.9787
4.3556 -1.9898 -2.4842 0.9787
4.4887 -1.6680 -2.4842 0.9787
4.5463 -1.5037 -2.4842 0.9787
4.6830 -0.9998 -2.4842 0.9787
4.7641 -0.4839 -2.4842 0.9787
4.7785 -0.3104 -2.4842 0.9787
0.8866 -4.4482 -2.4842 0.9795
1.2075 -4.3720 -2.4842 0.9795
1.3657 -4.3252 -2.4842 0.9795
1.6763 -4.2145 -2.4842 0.9795
1.9782 -4.0816 -2.4842 0.9795
2.1253 -4.0069 -2.4842 0.9795
2.4108 -3.8419 -2.4842 0.9795
2.5489 -3.7517 -2.4842 0.9795
3.1854 -3.2289 -2.4842 0.9795
3.4116 -2.9889 -2.4842 0.9795
3.6197 -2.7331 -2.4842 0.9795
3.9777 -2.1796 -2.4842 0.9795
4.0543 -2.0335 -2.4842 0.9795
4.1914 -1.7335 -2.4842 0.9795
4.2516 -1.5800 -2.4842 0.9795
4.3552 -1.2668 -2.4842 0.9795
4.4672 -0.7851 -2.4842 0.9795
4.4928 -0.6221 -2.4842 0.9795
4.5125 -0.4584 -2.4842 0.9795
4.5262 -0.2940 -2.4842 0.9795
0.6871 -4.2476 -2.4842 0.9803
0.9939 -4.1864 -2.4842 0.9803
1.2955 -4.1031 -2.4842 0.9803
1.4438 -4.0533 -2.4842 0.9803
1.5903 -3.9981 -2.4842 0.9803
1.7346 -3.9377 -2.4842 0.9803
2.2870 -3.6446 -2.4842 0.9803
2.5458 -3.4688 -2.4842 0.9803
3.0218 -3.0631 -2.4842 0.9803
3.3373 -2.7159 -2.4842 0.9803
3.4339 -2.5928 -2.4842 0.9803
3.6958 -2.2035 -2.4842 0.9803
3.7734 -2.0676 -2.4842 0.9803
3.8461 -1.9291 -2.4842 0.9803
3.9137 -1.7879 -2.4842 0.9803
3.9761 -1.6445 -2.4842 0.9803
4.0851 -1.3512 -2.4842 0.9803
4.2080 -0.8983 -2.4842 0.9803
4.2379 -0.7447 -2.4842 0.9803
4.2621 -0.5902 -2.4842 0.9803
4.2808 -0.4348 -2.4842 0.9803
4.2937 -0.2789 -2.4842 0.9803
