ply
format ascii 1.0
element vertex 615
property float32 x
property float32 y
property float32 z
property float32 I
end_header
-19.9962 28.3541 6.1178 0.8686
-19.9794 26.2832 5.8214 0.8745
-20.0316 22.7720 5.3478 0.8841
-20.0612 21.2255 5.1498 0.8881
-16.6646 13.2192 3.7506 0.9172
-20.0511 14.7695 4.3912 0.9038
-20.1029 11.7147 4.1026 0.9098
-20.3895 10.9250 4.0788 0.9103
-21.1568 10.3806 4.1554 0.9087
-22.5694 10.0896 4.3592 0.9045
-30.9281 10.0151 5.7323 0.8763
-44.6066 -10.1158 8.0651 0.8305
-21.7909 -7.4698 4.0618 0.9107
-20.0311 24.4830 4.8460 0.8798
-20.0314 22.7718 4.6461 0.8845
-20.0569 19.7562 4.3129 0.8923
-20.0685 17.1227 4.0413 0.8987
-20.0258 12.6495 3.6286 0.9086
-20.3895 10.9250 3.5437 0.9106
-22.5694 10.0896 3.7873 0.9048
-27.4721 9.9942 4.4784 0.8884
-30.9255 10.0143 4.9798 0.8767
-35.1895 10.0207 5.6052 0.8624
-19.9582 30.5638 4.7534 0.8631
-19.9789 26.2825 4.2991 0.8753
-20.0308 24.4827 4.1193 0.8802
-20.0312 22.7715 3.9493 0.8849
-20.0607 21.2249 3.8031 0.8889
-20.0567 19.7559 3.6660 0.8926
-20.0590 18.3931 3.5440 0.8960
-20.0678 17.1221 3.4352 0.8991
-20.0761 15.9253 3.3370 0.9018
-20.0511 14.7695 3.2430 0.9044
-19.3827 13.2354 3.0563 0.9097
-20.3895 10.9250 3.0123 0.9109
-21.1568 10.3806 3.0688 0.9093
-27.4738 9.9948 3.8070 0.8888
-30.9228 10.0134 4.2327 0.8771
-35.1847 10.0193 4.7639 0.8628
-40.5990 10.0073 5.4451 0.8448
-19.9923 28.3486 3.7250 0.8697
-19.9786 26.2821 3.5451 0.8756
-20.0306 24.4824 3.3968 0.8805
-20.0583 18.3924 2.9223 0.8963
-20.0671 17.1214 2.8326 0.8993
-20.0511 14.7695 2.6742 0.9047
-19.4781 13.3006 2.5327 0.9095
-20.0258 12.6495 2.5435 0.9091
-20.3895 10.9250 2.4839 0.9111
-22.5694 10.0896 2.6547 0.9053
-27.4755 9.9953 3.1395 0.8890
-30.9203 10.0126 3.4900 0.8774
-35.1798 10.0179 3.9278 0.8632
-40.6037 10.0085 4.4906 0.8452
-47.9551 10.0174 5.2607 0.8211
-19.9911 28.3468 2.9363 0.8700
-20.0304 24.4821 2.6777 0.8808
-20.0601 21.2243 2.4722 0.8894
-20.0575 18.3917 2.3037 0.8965
-20.0663 17.1208 2.2329 0.8995
-20.0511 14.7695 2.1082 0.9049
-19.4781 13.3006 1.9966 0.9097
-20.0258 12.6495 2.0051 0.9093
-20.3895 10.9250 1.9582 0.9113
-21.1568 10.3806 1.9949 0.9097
-22.5694 10.0896 2.0928 0.9055
-35.1750 10.0165 3.0960 0.8635
-19.9601 30.5666 2.2638 0.8639
-19.9898 28.3450 2.1508 0.8702
-20.0558 19.7551 1.7457 0.8933
-20.0656 17.1202 1.6356 0.8997
-20.0739 15.9236 1.5889 0.9024
-20.0511 14.7695 1.5443 0.9050
-19.4781 13.3006 1.4626 0.9098
-21.1567 10.3806 1.4613 0.9099
-22.5694 10.0896 1.5330 0.9057
-24.5432 9.9355 1.6419 0.8993
-27.4788 9.9966 1.8132 0.8894
-30.9150 10.0109 2.0151 0.8779
-19.9607 30.5675 1.4396 0.8640
-19.9886 28.3432 1.3676 0.8704
-19.9779 26.2811 1.3017 0.8762
-20.0595 21.2237 1.1515 0.8897
-20.0649 17.1196 1.0400 0.8998
-19.4781 13.3006 0.9300 0.9099
-20.3895 10.9250 0.9121 0.9116
-21.1567 10.3806 0.9292 0.9100
-24.5432 9.9355 1.0441 0.8994
-19.9613 30.5685 0.6167 0.8641
-19.9873 28.3415 0.5858 0.8705
-19.9776 26.2807 0.5576 0.8763
-20.0553 19.7546 0.4755 0.8935
-20.0552 18.3896 0.4596 0.8969
-20.0725 15.9225 0.4328 0.9026
-19.4781 13.3006 0.3984 0.9100
-20.1029 11.7147 0.3930 0.9111
-20.3895 10.9250 0.3907 0.9116
-21.1567 10.3806 0.3981 0.9100
-24.5432 9.9355 0.4473 0.8995
-30.9098 10.0092 0.5488 0.8781
-19.9619 30.5694 -0.2056 0.8641
-19.9860 28.3397 -0.1952 0.8705
-19.9773 26.2804 -0.1859 0.8763
-20.0294 24.4810 -0.1781 0.8812
-20.0589 21.2231 -0.1644 0.8898
-20.0511 14.7695 -0.1402 0.9052
-19.4781 13.3006 -0.1328 0.9100
-20.0258 12.6495 -0.1334 0.9096
-20.1029 11.7148 -0.1310 0.9111
-20.3895 10.9250 -0.1302 0.9116
-22.5694 10.0896 -0.1392 0.9058
-24.5432 9.9355 -0.1491 0.8995
-27.4837 9.9983 -0.1647 0.8896
-35.1558 10.0110 -0.2058 0.8640
-40.6272 10.0143 -0.2356 0.8459
-19.9771 26.2801 -0.9295 0.8763
-20.0587 21.2228 -0.8223 0.8897
-20.0547 19.7541 -0.7926 0.8935
-20.0538 18.3882 -0.7661 0.8968
-20.0627 17.1177 -0.7426 0.8998
-20.0711 15.9214 -0.7214 0.9026
-20.0511 14.7695 -0.7012 0.9052
-19.4781 13.3006 -0.6641 0.9099
-20.0258 12.6495 -0.6670 0.9096
-22.5694 10.0896 -0.6961 0.9058
-35.1510 10.0097 -1.0291 0.8639
-40.6319 10.0154 -1.1783 0.8458
-15.6304 23.9362 -1.4498 0.8918
-18.4251 22.5202 -1.4756 0.8900
-20.0584 21.2225 -1.4809 0.8896
-20.0545 19.7538 -1.4276 0.8934
-20.0620 17.1171 -1.3374 0.8998
-19.4781 13.3006 -1.1961 0.9099
-20.0258 12.6496 -1.2012 0.9095
-20.1029 11.7148 -1.1800 0.9110
-24.5432 9.9355 -1.3428 0.8994
-35.1462 10.0083 -1.8533 0.8638
-40.6366 10.0166 -2.1225 0.8457
-45.2168 9.4454 -2.3426 0.8311
-48.9585 4.8478 -2.4950 0.8212
-49.1004 3.0950 -2.4950 0.8212
-49.1797 1.3383 -2.4950 0.8212
-49.1497 -2.1779 -2.4950 0.8212
-49.0404 -3.9330 -2.4950 0.8212
-48.8685 -5.6831 -2.4950 0.8212
-48.6342 -7.4259 -2.4950 0.8212
-47.9796 -10.8808 -2.4950 0.8212
-44.3804 -15.2134 -2.3793 0.8287
-43.1335 -16.5310 -2.3426 0.8311
-42.6986 -18.1398 -2.3527 0.8304
-13.5741 20.7872 -1.8203 0.9052
-14.4951 20.5538 -1.8441 0.9040
-15.4324 20.3015 -1.8698 0.9028
-17.2092 19.5636 -1.9104 0.9008
-18.1728 19.2275 -1.9398 0.8993
-19.5142 17.8935 -1.9413 0.8993
-20.0511 14.7695 -1.8260 0.9049
-19.4781 13.3006 -1.7294 0.9097
-20.0258 12.6495 -1.7367 0.9094
-20.1029 11.7147 -1.7060 0.9109
-22.5694 10.0896 -1.8127 0.9056
-24.5432 9.9355 -1.9414 0.8992
-27.4886 10.0001 -2.1448 0.8893
-30.3960 9.8428 -2.3426 0.8797
-33.5368 5.7632 -2.4950 0.8724
-33.7213 4.5610 -2.4950 0.8724
-33.9610 2.1407 -2.4950 0.8724
-34.0158 0.9256 -2.4950 0.8724
-34.0271 -0.2905 -2.4950 0.8724
-33.9195 -2.7203 -2.4950 0.8724
-33.6385 -5.1362 -2.4950 0.8724
-33.4333 -6.3350 -2.4950 0.8724
-32.5634 -9.8770 -2.4950 0.8724
-31.7748 -12.1777 -2.4950 0.8724
-31.3193 -13.3055 -2.4950 0.8724
-14.1132 17.2499 -2.1397 0.9143
-15.6667 16.5760 -2.1897 0.9124
-16.4410 16.1945 -2.2156 0.9114
-17.2199 15.7898 -2.2430 0.9104
-19.2215 13.1254 -2.2346 0.9107
-19.9265 12.5868 -2.2627 0.9096
-21.1567 10.3806 -2.2625 0.9096
-22.2765 9.9587 -2.3426 0.9066
-25.4395 5.3141 -2.4950 0.9008
-25.7541 3.4834 -2.4950 0.9008
-25.9876 -0.2219 -2.4950 0.9008
-25.9631 -1.1505 -2.4950 0.9008
-25.8146 -3.0020 -2.4950 0.9008
-25.6908 -3.9227 -2.4950 0.9008
-25.5343 -4.8383 -2.4950 0.9008
-25.3450 -5.7477 -2.4950 0.9008
-25.1234 -6.6498 -2.4950 0.9008
-24.8697 -7.5434 -2.4950 0.9008
-24.5843 -8.4274 -2.4950 0.9008
-10.3151 15.7965 -2.2410 0.9268
-10.9581 15.5384 -2.2586 0.9263
-11.5865 15.2422 -2.2743 0.9258
-13.4500 14.2307 -2.3259 0.9242
-14.0652 13.8544 -2.3452 0.9236
-15.2913 13.0467 -2.3877 0.9222
-15.8750 12.5929 -2.4070 0.9216
-16.4438 12.1125 -2.4260 0.9210
-17.5603 11.0922 -2.4672 0.9197
-18.0849 10.5388 -2.4864 0.9191
-18.9202 9.2833 -2.5034 0.9186
-19.1958 8.5815 -2.4977 0.9188
-19.7447 7.1830 -2.4958 0.9188
-19.9883 6.4726 -2.4957 0.9189
-20.2064 5.7540 -2.4957 0.9189
-20.7046 3.5580 -2.4955 0.9189
-20.8180 2.8158 -2.4954 0.9189
-20.9982 0.5714 -2.4952 0.9189
-20.9843 -0.9299 -2.4951 0.9189
-20.7638 -3.1704 -2.4950 0.9189
-20.6373 -3.9104 -2.4950 0.9189
-20.4843 -4.6454 -2.4950 0.9189
-10.1285 13.3242 -2.3714 0.9346
-10.6643 13.0345 -2.3862 0.9342
-11.1935 12.7249 -2.4013 0.9338
-11.7022 12.3814 -2.4139 0.9335
-12.1819 11.9992 -2.4228 0.9333
-12.6678 11.6157 -2.4352 0.9329
-13.1447 11.2152 -2.4483 0.9326
-13.6120 10.7977 -2.4618 0.9322
-15.2402 8.8811 -2.4993 0.9312
-15.5287 8.3205 -2.4962 0.9313
-16.9393 4.8237 -2.4955 0.9313
-17.4523 2.3605 -2.4953 0.9313
-17.5252 1.7353 -2.4953 0.9313
-17.5756 1.1079 -2.4952 0.9313
-17.5921 -0.7795 -2.4951 0.9313
-17.5528 -1.4077 -2.4950 0.9313
-17.4075 -2.6579 -2.4950 0.9313
-17.1731 -3.8945 -2.4950 0.9313
-16.4430 -6.3018 -2.4950 0.9313
-16.2072 -6.8854 -2.4950 0.9313
-8.0259 12.2908 -2.4182 0.9422
-8.4952 12.0460 -2.4283 0.9420
-9.8134 11.1559 -2.4477 0.9415
-10.6754 10.5154 -2.4686 0.9411
-11.0943 10.1729 -2.4797 0.9408
-11.5043 9.8156 -2.4913 0.9405
-12.5167 8.5470 -2.4969 0.9404
-13.0885 7.6272 -2.4956 0.9404
-13.3528 7.1546 -2.4956 0.9404
-14.0417 5.6843 -2.4956 0.9404
-14.2356 5.1788 -2.4955 0.9404
-14.5687 4.1486 -2.4954 0.9404
-14.7074 3.6253 -2.4954 0.9404
-15.1162 0.9528 -2.4952 0.9404
-15.1305 -0.6705 -2.4950 0.9404
-15.0440 -1.7495 -2.4950 0.9404
-14.9719 -2.2860 -2.4950 0.9404
-14.4933 -4.3961 -2.4950 0.9404
-14.1423 -5.4201 -2.4950 0.9404
-7.9475 10.4551 -2.4685 0.9480
-8.3443 10.1989 -2.4768 0.9478
-8.7344 9.9294 -2.4857 0.9476
-9.7971 8.9834 -2.4984 0.9473
-11.2250 7.0904 -2.4955 0.9474
-11.4712 6.6848 -2.4955 0.9474
-11.9195 5.8484 -2.4956 0.9474
-12.1208 5.4186 -2.4955 0.9474
-12.4765 4.5389 -2.4955 0.9474
-12.6305 4.0900 -2.4954 0.9474
-12.7685 3.6360 -2.4954 0.9474
-13.0836 2.2484 -2.4953 0.9474
-13.1554 1.7794 -2.4952 0.9474
-13.2485 0.8351 -2.4951 0.9474
-13.2612 -0.5876 -2.4950 0.9474
-13.1221 -2.0036 -2.4950 0.9474
-12.7027 -3.8529 -2.4950 0.9474
-12.3951 -4.7504 -2.4950 0.9474
-12.2174 -5.1904 -2.4950 0.9474
-6.4315 9.8492 -2.4865 0.9530
-6.7982 9.6397 -2.4934 0.9529
-7.8027 8.8702 -2.4972 0.9528
-8.1120 8.5828 -2.4963 0.9529
-8.7011 7.9785 -2.4954 0.9529
-8.9808 7.6625 -2.4954 0.9529
-9.9812 6.3047 -2.4955 0.9529
-10.4061 5.5758 -2.4955 0.9529
-10.5987 5.2003 -2.4955 0.9529
-10.9428 4.4298 -2.4954 0.9529
-11.2309 3.6368 -2.4954 0.9529
-11.4617 2.8252 -2.4953 0.9529
-11.6339 1.9993 -2.4952 0.9529
-11.7467 1.1631 -2.4952 0.9529
-11.7994 0.3211 -2.4951 0.9529
-11.8032 -0.1008 -2.4950 0.9529
-11.7920 -0.5225 -2.4950 0.9529
-11.7658 -0.9436 -2.4950 0.9529
-11.7245 -1.3635 -2.4950 0.9529
-11.6683 -1.7816 -2.4950 0.9529
-11.5972 -2.1975 -2.4950 0.9529
-11.4106 -3.0202 -2.4950 0.9529
-11.2954 -3.4261 -2.4950 0.9529
-11.1657 -3.8276 -2.4950 0.9529
-5.8082 8.8946 -2.4967 0.9573
-6.4263 8.4539 -2.4957 0.9573
-7.0127 7.9720 -2.4954 0.9573
-7.2931 7.7164 -2.4954 0.9573
-7.5642 7.4508 -2.4954 0.9573
-8.0772 6.8916 -2.4954 0.9573
-8.9769 5.6704 -2.4954 0.9573
-9.1739 5.3460 -2.4955 0.9573
-9.3591 5.0148 -2.4955 0.9573
-9.9777 3.6298 -2.4953 0.9573
-10.1009 3.2709 -2.4953 0.9573
-10.2112 2.9078 -2.4953 0.9573
-10.3085 2.5410 -2.4953 0.9573
-10.3926 2.1709 -2.4952 0.9573
-10.4634 1.7981 -2.4952 0.9573
-10.5209 1.4230 -2.4952 0.9573
-10.5648 1.0461 -2.4951 0.9573
-10.6158 -0.0907 -2.4950 0.9573
-10.5451 -1.2263 -2.4950 0.9573
-10.1591 -3.0814 -2.4950 0.9573
-10.0425 -3.4425 -2.4950 0.9573
-9.9130 -3.7992 -2.4950 0.9573
-9.7709 -4.1510 -2.4950 0.9573
-5.2692 8.0693 -2.4953 0.9610
-5.5543 7.8759 -2.4953 0.9610
-5.8322 7.6724 -2.4953 0.9610
-6.1027 7.4591 -2.4953 0.9610
-6.8661 6.7632 -2.4954 0.9610
-7.7599 5.7159 -2.4954 0.9610
-7.9592 5.4349 -2.4954 0.9610
-8.1484 5.1471 -2.4954 0.9610
-8.3271 4.8526 -2.4954 0.9610
-8.4952 4.5519 -2.4954 0.9610
-8.7984 3.9333 -2.4954 0.9610
-9.0567 3.2948 -2.4953 0.9610
-9.1686 2.9690 -2.4953 0.9610
-9.2688 2.6394 -2.4953 0.9610
-9.3571 2.3065 -2.4952 0.9610
-9.4977 1.6321 -2.4952 0.9610
-9.5498 1.2917 -2.4951 0.9610
-9.5898 0.9496 -2.4951 0.9610
-9.6175 0.6062 -2.4951 0.9610
-9.6329 0.2621 -2.4951 0.9610
-9.6361 -0.0823 -2.4950 0.9610
-9.6269 -0.4266 -2.4950 0.9610
-9.5719 -1.1131 -2.4950 0.9610
-9.4679 -1.7940 -2.4950 0.9610
-9.3978 -2.1312 -2.4950 0.9610
-8.9982 -3.4486 -2.4950 0.9610
-8.8692 -3.7679 -2.4950 0.9610
-5.0799 7.2033 -2.4953 0.9640
-5.3341 7.0171 -2.4953 0.9640
-5.5815 6.8221 -2.4953 0.9640
-6.4968 5.9572 -2.4953 0.9640
-6.7056 5.7213 -2.4954 0.9640
-6.9058 5.4780 -2.4954 0.9640
-7.4525 4.7075 -2.4954 0.9640
-7.6159 4.4381 -2.4954 0.9640
-7.9134 3.8827 -2.4953 0.9640
-8.0470 3.5974 -2.4953 0.9640
-8.1703 3.3075 -2.4953 0.9640
-8.4771 2.4140 -2.4952 0.9640
-8.5579 2.1095 -2.4952 0.9640
-8.6277 1.8023 -2.4952 0.9640
-8.6866 1.4928 -2.4951 0.9640
-8.7342 1.1814 -2.4951 0.9640
-8.7961 0.5545 -2.4951 0.9640
-8.8102 0.2398 -2.4950 0.9640
-8.8132 -0.0753 -2.4950 0.9640
-8.8048 -0.3902 -2.4950 0.9640
-8.7545 -1.0181 -2.4950 0.9640
-8.7125 -1.3303 -2.4950 0.9640
-8.4340 -2.5582 -2.4950 0.9640
-8.3372 -2.8580 -2.4950 0.9640
-8.2298 -3.1541 -2.4950 0.9640
-4.4356 6.7926 -2.4953 0.9666
-4.6755 6.6298 -2.4953 0.9666
-4.9095 6.4585 -2.4953 0.9666
-5.3583 6.0914 -2.4953 0.9666
-5.5726 5.8960 -2.4953 0.9666
-5.7798 5.6931 -2.4953 0.9666
-5.9795 5.4829 -2.4953 0.9666
-6.1717 5.2658 -2.4953 0.9666
-6.3560 5.0419 -2.4953 0.9666
-6.5321 4.8115 -2.4954 0.9666
-6.8592 4.3327 -2.4954 0.9666
-7.2833 3.5736 -2.4953 0.9666
-7.4063 3.3110 -2.4953 0.9666
-7.5198 3.0442 -2.4953 0.9666
-7.7179 2.4992 -2.4952 0.9666
-7.8022 2.2218 -2.4952 0.9666
-7.8766 1.9415 -2.4952 0.9666
-7.9408 1.6588 -2.4952 0.9666
-7.9950 1.3739 -2.4951 0.9666
-8.0389 1.0873 -2.4951 0.9666
-8.0725 0.7993 -2.4951 0.9666
-8.0958 0.5103 -2.4951 0.9666
-8.1116 -0.0693 -2.4950 0.9666
-8.1039 -0.3591 -2.4950 0.9666
-8.0576 -0.9370 -2.4950 0.9666
-7.9700 -1.5102 -2.4950 0.9666
-7.7626 -2.3545 -2.4950 0.9666
-7.5746 -2.9030 -2.4950 0.9666
-7.4660 -3.1718 -2.4950 0.9666
-4.3263 6.1346 -2.4953 0.9689
-4.9581 5.6364 -2.4953 0.9689
-5.1564 5.4556 -2.4953 0.9689
-5.7107 4.8725 -2.4953 0.9689
-6.3467 4.0090 -2.4953 0.9689
-6.4859 3.7796 -2.4953 0.9689
-6.6168 3.5454 -2.4953 0.9689
-6.7392 3.3066 -2.4953 0.9689
-6.8530 3.0637 -2.4953 0.9689
-6.9581 2.8168 -2.4952 0.9689
-7.0542 2.5663 -2.4952 0.9689
-7.1414 2.3125 -2.4952 0.9689
-7.2194 2.0558 -2.4952 0.9689
-7.2882 1.7965 -2.4952 0.9689
-7.3978 1.2713 -2.4951 0.9689
-7.4384 1.0061 -2.4951 0.9689
-7.4911 0.4722 -2.4950 0.9689
-7.5057 -0.0641 -2.4950 0.9689
-7.4820 -0.6000 -2.4950 0.9689
-7.4200 -1.1329 -2.4950 0.9689
-7.3201 -1.6601 -2.4950 0.9689
-7.2561 -1.9206 -2.4950 0.9689
-7.0089 -2.6862 -2.4950 0.9689
-3.8150 5.8423 -2.4952 0.9708
-4.4184 5.4005 -2.4953 0.9708
-4.6087 5.2392 -2.4953 0.9708
-4.7929 5.0711 -2.4953 0.9708
-4.9711 4.8966 -2.4953 0.9708
-5.3082 4.5291 -2.4953 0.9708
-5.4667 4.3365 -2.4953 0.9708
-6.0288 3.5132 -2.4953 0.9708
-6.1504 3.2955 -2.4953 0.9708
-6.2642 3.0736 -2.4953 0.9708
-6.3700 2.8477 -2.4952 0.9708
-6.4677 2.6182 -2.4952 0.9708
-6.5571 2.3854 -2.4952 0.9708
-6.7745 1.6699 -2.4951 0.9708
-6.8298 1.4267 -2.4951 0.9708
-6.8764 1.1817 -2.4951 0.9708
-6.9632 0.4389 -2.4950 0.9708
-6.9744 0.1898 -2.4950 0.9708
-6.9547 -0.5578 -2.4950 0.9708
-6.9303 -0.8059 -2.4950 0.9708
-6.8042 -1.5431 -2.4950 0.9708
-6.7448 -1.7852 -2.4950 0.9708
-6.6000 -2.2625 -2.4950 0.9708
-6.5149 -2.4969 -2.4950 0.9708
-3.5601 5.4518 -2.4952 0.9725
-3.7526 5.3212 -2.4952 0.9725
-4.6389 4.5694 -2.4953 0.9725
-4.7992 4.4007 -2.4953 0.9725
-4.9534 4.2263 -2.4953 0.9725
-5.2427 3.8617 -2.4953 0.9725
-5.3773 3.6719 -2.4953 0.9725
-5.5051 3.4774 -2.4953 0.9725
-5.6258 3.2784 -2.4953 0.9725
-5.7393 3.0752 -2.4952 0.9725
-5.8455 2.8681 -2.4952 0.9725
-5.9442 2.6574 -2.4952 0.9725
-6.0354 2.4432 -2.4952 0.9725
-6.1188 2.2260 -2.4952 0.9725
-6.2621 1.7832 -2.4951 0.9725
-6.4521 0.8727 -2.4951 0.9725
-6.4791 0.6415 -2.4950 0.9725
-6.4978 0.4096 -2.4950 0.9725
-6.4361 -0.9827 -2.4950 0.9725
-6.2940 -1.6659 -2.4950 0.9725
-6.1589 -2.1112 -2.4950 0.9725
-5.9924 -2.5458 -2.4950 0.9725
-3.3334 5.1047 -2.4952 0.9740
-4.0268 4.5777 -2.4953 0.9740
-4.4937 4.1205 -2.4953 0.9740
-4.9089 3.6159 -2.4953 0.9740
-5.1545 3.2559 -2.4953 0.9740
-5.5658 2.4882 -2.4952 0.9740
-5.6511 2.2877 -2.4952 0.9740
-5.7292 2.0842 -2.4952 0.9740
-5.8000 1.8782 -2.4951 0.9740
-5.9675 1.2466 -2.4951 0.9740
-6.0082 1.0325 -2.4951 0.9740
-6.0413 0.8171 -2.4951 0.9740
-6.0666 0.6007 -2.4950 0.9740
-6.0940 0.1658 -2.4950 0.9740
-6.0767 -0.4873 -2.4950 0.9740
-6.0554 -0.7042 -2.4950 0.9740
-5.9896 -1.1349 -2.4950 0.9740
-5.9452 -1.3483 -2.4950 0.9740
-5.8933 -1.5599 -2.4950 0.9740
-5.7668 -1.9768 -2.4950 0.9740
-5.6925 -2.1817 -2.4950 0.9740
-4.3556 3.7162 -2.4953 0.9753
-4.4856 3.5582 -2.4953 0.9753
-4.9467 2.8827 -2.4952 0.9753
-5.2268 2.3366 -2.4952 0.9753
-5.3802 1.9573 -2.4951 0.9753
-5.5587 1.3702 -2.4951 0.9753
-5.6423 0.9696 -2.4951 0.9753
-5.6971 0.5641 -2.4950 0.9753
-5.7247 -0.0489 -2.4950 0.9753
-5.6594 -0.8641 -2.4950 0.9753
-5.6249 -1.0658 -2.4950 0.9753
-5.5832 -1.2662 -2.4950 0.9753
-5.4156 -1.8564 -2.4950 0.9753
-3.1067 4.4053 -2.4952 0.9765
-3.5604 4.0475 -2.4952 0.9765
-3.7028 3.9177 -2.4953 0.9765
-3.9732 3.6432 -2.4953 0.9765
-4.4517 3.0399 -2.4952 0.9765
-4.5575 2.8788 -2.4952 0.9765
-4.7514 2.5459 -2.4952 0.9765
-5.0656 1.8428 -2.4951 0.9765
-5.1282 1.6606 -2.4951 0.9765
-5.1842 1.4763 -2.4951 0.9765
-5.2336 1.2901 -2.4951 0.9765
-5.2764 1.1022 -2.4951 0.9765
-5.3415 0.7225 -2.4950 0.9765
-5.3639 0.5311 -2.4950 0.9765
-5.3900 -0.0460 -2.4950 0.9765
-5.3729 -0.4309 -2.4950 0.9765
-5.3541 -0.6226 -2.4950 0.9765
-5.2959 -1.0035 -2.4950 0.9765
-5.2107 -1.3792 -2.4950 0.9765
-5.1581 -1.5646 -2.4950 0.9765
-5.0332 -1.9290 -2.4950 0.9765
-3.0784 4.0497 -2.4952 0.9776
-3.4942 3.6970 -2.4952 0.9776
-3.7493 3.4379 -2.4953 0.9776
-3.8698 3.3017 -2.4952 0.9776
-3.9853 3.1613 -2.4952 0.9776
-4.3007 2.7166 -2.4952 0.9776
-4.4837 2.4024 -2.4952 0.9776
-4.7150 1.9087 -2.4951 0.9776
-4.8921 1.3931 -2.4951 0.9776
-4.9387 1.2174 -2.4951 0.9776
-5.0130 0.8615 -2.4950 0.9776
-5.0764 0.3200 -2.4950 0.9776
-5.0863 -0.0434 -2.4950 0.9776
-5.0815 -0.2252 -2.4950 0.9776
-4.9975 -0.9469 -2.4950 0.9776
-4.9605 -1.1249 -2.4950 0.9776
-4.9171 -1.3015 -2.4950 0.9776
-4.8675 -1.4764 -2.4950 0.9776
-4.7496 -1.8203 -2.4950 0.9776
-4.6815 -1.9889 -2.4950 0.9776
-2.6298 4.0272 -2.4952 0.9786
-2.7720 3.9307 -2.4952 0.9786
-3.0457 3.7226 -2.4952 0.9786
-3.1768 3.6114 -2.4952 0.9786
-3.3038 3.4956 -2.4952 0.9786
-3.4267 3.3753 -2.4952 0.9786
-3.5451 3.2507 -2.4952 0.9786
-3.6590 3.1219 -2.4952 0.9786
-3.7682 2.9891 -2.4952 0.9786
-4.0664 2.5686 -2.4952 0.9786
-4.3179 2.1186 -2.4951 0.9786
-4.3908 1.9629 -2.4951 0.9786
-4.4581 1.8047 -2.4951 0.9786
-4.5198 1.6443 -2.4951 0.9786
-4.5756 1.4817 -2.4951 0.9786
-4.6256 1.3172 -2.4951 0.9786
-4.6697 1.1510 -2.4951 0.9786
-4.7078 0.9834 -2.4951 0.9786
-4.7400 0.8146 -2.4950 0.9786
-4.7660 0.6446 -2.4950 0.9786
-4.7999 0.3025 -2.4950 0.9786
-4.8076 0.1308 -2.4950 0.9786
-4.7940 -0.3845 -2.4950 0.9786
-4.7772 -0.5556 -2.4950 0.9786
-4.7254 -0.8954 -2.4950 0.9786
-4.6493 -1.2306 -2.4950 0.9786
-4.6024 -1.3960 -2.4950 0.9786
-4.4909 -1.7212 -2.4950 0.9786
-4.4265 -1.8805 -2.4950 0.9786
-2.7570 3.6269 -2.4952 0.9794
-3.0090 3.4207 -2.4952 0.9794
-3.1293 3.3110 -2.4952 0.9794
-3.3578 3.0790 -2.4952 0.9794
-3.5692 2.8312 -2.4952 0.9794
-3.6680 2.7019 -2.4952 0.9794
-3.8516 2.4329 -2.4952 0.9794
-3.9361 2.2937 -2.4952 0.9794
-4.0155 2.1516 -2.4951 0.9794
-4.1589 1.8593 -2.4951 0.9794
-4.2227 1.7094 -2.4951 0.9794
-4.4231 1.0903 -2.4951 0.9794
-4.4592 0.9315 -2.4950 0.9794
-4.4896 0.7715 -2.4950 0.9794
-4.5143 0.6106 -2.4950 0.9794
-4.4758 -0.8481 -2.4950 0.9794
-4.4426 -1.0075 -2.4950 0.9794
-4.2537 -1.6303 -2.4950 0.9794
-4.1928 -1.7812 -2.4950 0.9794
-2.3630 3.6186 -2.4952 0.9802
-3.0790 3.0328 -2.4952 0.9802
-3.1854 2.9208 -2.4952 0.9802
-3.2877 2.8051 -2.4952 0.9802
-3.3859 2.6858 -2.4952 0.9802
-3.4797 2.5631 -2.4952 0.9802
-3.8798 1.9036 -2.4951 0.9802
-4.0058 1.6216 -2.4951 0.9802
-4.2302 0.8837 -2.4950 0.9802
-4.2591 0.7319 -2.4950 0.9802
-4.2825 0.5792 -2.4950 0.9802
-4.3005 0.4258 -2.4950 0.9802
-4.3130 0.2719 -2.4950 0.9802
-4.3199 0.1176 -2.4950 0.9802
-4.3214 -0.0369 -2.4950 0.9802
-4.3077 -0.3455 -2.4950 0.9802
-4.2145 -0.9558 -2.4950 0.9802
-4.1777 -1.1058 -2.4950 0.9802
-4.0880 -1.4013 -2.4950 0.9802
-4.0353 -1.5465 -2.4950 0.9802
-3.9775 -1.6898 -2.4950 0.9802
