ply
format ascii 1.0
element vertex 468
property float32 x
property float32 y
property float32 z
property float32 I
end_header
-28.1605 -15.6957 5.6846 0.8773
-0.6078 -18.5464 3.2720 0.9274
0.1042 -37.9994 6.7003 0.8570
0.7090 -18.5307 3.2699 0.9274
0.7090 -18.5307 2.8409 0.9277
-21.8622 -15.4427 3.4855 0.8977
0.1041 -37.9894 4.9470 0.8579
0.7090 -18.5307 2.4149 0.9279
0.1041 -37.9859 4.0790 0.8583
-28.1926 -15.7135 1.2727 0.8788
0.1041 -37.9685 -0.2138 0.8591
0.7090 -18.5307 -0.1044 0.9285
-28.1806 -15.7068 -0.9084 0.8789
-42.4438 -19.8509 -2.3763 0.8289
-28.1765 -15.7046 -1.6359 0.8788
-40.0704 -28.3044 -2.4880 0.8216
-39.3863 -29.9719 -2.5100 0.8202
-38.6306 -31.6236 -2.5318 0.8188
-30.6369 -38.5282 -2.4964 0.8211
-28.7616 -38.9302 -2.4547 0.8238
-26.9813 -39.3715 -2.4206 0.8260
-25.2913 -39.8700 -2.3945 0.8277
-23.6833 -40.4405 -2.3767 0.8289
-15.3312 -46.7678 -2.4960 0.8211
-11.9747 -47.7376 -2.4960 0.8211
-10.2728 -48.1326 -2.4960 0.8211
-6.8321 -48.7401 -2.4960 0.8211
-3.3571 -49.1020 -2.4960 0.8211
0.1038 -37.8604 -1.9201 0.8593
0.7090 -18.5307 -0.9405 0.9284
3.4116 -46.1780 -2.3483 0.8307
6.6774 -45.8084 -2.3477 0.8308
8.2982 -45.5370 -2.3474 0.8308
-30.8355 -14.4218 -2.4960 0.8724
-29.7060 -15.2011 -2.4467 0.8747
-27.3491 -16.5423 -2.3436 0.8797
-26.7661 -17.5166 -2.3455 0.8796
-26.2817 -18.5645 -2.3593 0.8789
-25.7545 -19.5985 -2.3730 0.8783
-25.1846 -20.6165 -2.3864 0.8776
-24.2856 -21.3643 -2.3716 0.8783
-23.3355 -22.0461 -2.3538 0.8792
-20.8589 -24.4011 -2.3537 0.8792
-19.9256 -25.0580 -2.3474 0.8795
-18.3376 -26.7586 -2.3785 0.8780
-17.2028 -29.3748 -2.4960 0.8724
-16.1493 -29.9669 -2.4960 0.8724
-15.0755 -30.5212 -2.4960 0.8724
-12.8722 -31.5139 -2.4960 0.8724
-11.7455 -31.9508 -2.4960 0.8724
-10.6041 -32.3476 -2.4960 0.8724
-9.4492 -32.7036 -2.4960 0.8724
-7.1053 -33.2916 -2.4960 0.8724
0.7090 -18.5307 -1.3597 0.9283
4.6193 -31.6890 -2.3481 0.8795
-23.5500 -11.0143 -2.4960 0.9008
-22.7093 -12.6574 -2.4960 0.9008
-22.2457 -13.4554 -2.4960 0.9008
-21.7542 -14.2366 -2.4960 0.9008
-21.2351 -14.9997 -2.4960 0.9008
-19.9443 -16.3267 -2.4745 0.9016
-18.7898 -17.7516 -2.4816 0.9013
-16.8935 -19.7620 -2.4960 0.9008
-15.4488 -20.9107 -2.4960 0.9008
-14.6968 -21.4458 -2.4960 0.9008
-13.1384 -22.4345 -2.4960 0.9008
-11.5136 -23.3100 -2.4960 0.9008
-9.8309 -24.0681 -2.4960 0.9008
-8.0987 -24.7049 -2.4960 0.9008
-7.2167 -24.9768 -2.4960 0.9008
-5.4265 -25.4259 -2.4960 0.9008
-2.6929 -25.8586 -2.4960 0.9008
-1.6661 -24.3699 -2.3451 0.9065
0.0671 -24.4660 -2.3489 0.9064
1.8024 -24.3964 -2.3486 0.9064
3.5284 -24.2052 -2.3484 0.9064
4.3851 -24.0637 -2.3483 0.9064
5.2358 -23.8900 -2.3480 0.9064
-18.3541 -10.2299 -2.4960 0.9188
-17.5821 -11.5062 -2.4960 0.9188
-17.1626 -12.1231 -2.4960 0.9188
-16.7215 -12.7246 -2.4960 0.9188
-15.7766 -13.8788 -2.4960 0.9188
-15.2741 -14.4301 -2.4960 0.9188
-14.7522 -14.9631 -2.4960 0.9188
-13.0780 -16.4466 -2.4960 0.9188
-10.6187 -18.1320 -2.4960 0.9188
-9.9684 -18.4974 -2.4960 0.9188
-9.3055 -18.8396 -2.4960 0.9188
-8.6310 -19.1580 -2.4960 0.9188
-6.5455 -19.9670 -2.4960 0.9188
-5.8326 -20.1867 -2.4960 0.9188
-5.1125 -20.3810 -2.4960 0.9188
-3.6536 -20.6924 -2.4960 0.9188
-1.3457 -19.6835 -2.3436 0.9236
2.1553 -19.6502 -2.3482 0.9235
2.8512 -19.5594 -2.3479 0.9235
-15.3872 -8.5763 -2.4960 0.9313
-14.0185 -10.6677 -2.4960 0.9313
-13.6310 -11.1586 -2.4960 0.9313
-13.2264 -11.6354 -2.4960 0.9313
-12.8051 -12.0975 -2.4960 0.9313
-12.3676 -12.5444 -2.4960 0.9313
-11.9146 -12.9755 -2.4960 0.9313
-11.4465 -13.3902 -2.4960 0.9313
-10.9640 -13.7881 -2.4960 0.9313
-9.4362 -14.8755 -2.4960 0.9313
-8.9022 -15.2010 -2.4960 0.9313
-6.0781 -16.5341 -2.4960 0.9313
-5.4874 -16.7394 -2.4960 0.9313
-4.2860 -17.0865 -2.4960 0.9313
-3.6769 -17.2279 -2.4960 0.9313
-3.0605 -17.3475 -2.4960 0.9313
-1.8246 -17.5211 -2.4960 0.9313
-1.1439 -16.7318 -2.3763 0.9345
-0.5418 -16.5314 -2.3436 0.9354
0.6324 -16.5282 -2.3436 0.9354
1.2187 -16.4954 -2.3436 0.9354
2.3858 -16.3673 -2.3436 0.9354
-13.7242 -6.4188 -2.4960 0.9404
-13.4878 -6.9019 -2.4960 0.9404
-12.9641 -7.8414 -2.4960 0.9404
-12.0571 -9.1751 -2.4960 0.9404
-11.0134 -10.4049 -2.4960 0.9404
-9.8449 -11.5167 -2.4960 0.9404
-9.0031 -12.1861 -2.4960 0.9404
-8.1158 -12.7941 -2.4960 0.9404
-7.6566 -13.0741 -2.4960 0.9404
-7.1877 -13.3377 -2.4960 0.9404
-5.7291 -14.0262 -2.4960 0.9404
-4.7196 -14.3973 -2.4960 0.9404
-3.1624 -14.8174 -2.4960 0.9404
-1.5694 -15.0696 -2.4960 0.9404
-1.0335 -15.1158 -2.4960 0.9404
-0.4963 -15.1430 -2.4960 0.9404
0.0416 -15.1511 -2.4960 0.9404
0.5793 -15.1401 -2.4960 0.9404
1.1163 -15.1100 -2.4960 0.9404
1.6519 -15.0608 -2.4960 0.9404
2.1854 -14.9927 -2.4960 0.9404
3.2436 -14.7999 -2.4960 0.9404
-10.8462 -7.6614 -2.4960 0.9474
-10.5675 -8.0416 -2.4960 0.9474
-10.2754 -8.4116 -2.4960 0.9474
-8.9815 -9.7812 -2.4960 0.9474
-8.6286 -10.0939 -2.4960 0.9474
-8.2649 -10.3938 -2.4960 0.9474
-7.8908 -10.6806 -2.4960 0.9474
-5.8808 -11.9061 -2.4960 0.9474
-5.4545 -12.1073 -2.4960 0.9474
-5.0213 -12.2933 -2.4960 0.9474
-4.5818 -12.4638 -2.4960 0.9474
-4.1365 -12.6186 -2.4960 0.9474
-3.2309 -12.8802 -2.4960 0.9474
-2.7717 -12.9868 -2.4960 0.9474
-2.3090 -13.0770 -2.4960 0.9474
-1.3754 -13.2079 -2.4960 0.9474
0.0364 -13.2792 -2.4960 0.9474
0.5077 -13.2696 -2.4960 0.9474
0.9784 -13.2432 -2.4960 0.9474
1.4479 -13.2001 -2.4960 0.9474
2.3807 -13.0641 -2.4960 0.9474
-10.6960 -5.0025 -2.4960 0.9529
-10.5117 -5.3790 -2.4960 0.9529
-10.3141 -5.7487 -2.4960 0.9529
-10.1036 -6.1112 -2.4960 0.9529
-9.8803 -6.4660 -2.4960 0.9529
-9.3967 -7.1506 -2.4960 0.9529
-9.1370 -7.4797 -2.4960 0.9529
-8.8657 -7.7993 -2.4960 0.9529
-8.5833 -8.1090 -2.4960 0.9529
-8.2901 -8.4086 -2.4960 0.9529
-7.9864 -8.6975 -2.4960 0.9529
-7.3492 -9.2422 -2.4960 0.9529
-7.0166 -9.4973 -2.4960 0.9529
-6.6750 -9.7403 -2.4960 0.9529
-5.2293 -10.5870 -2.4960 0.9529
-4.4650 -10.9313 -2.4960 0.9529
-3.2777 -11.3440 -2.4960 0.9529
-2.0532 -11.6282 -2.4960 0.9529
-1.6391 -11.6937 -2.4960 0.9529
-1.2231 -11.7446 -2.4960 0.9529
-0.3868 -11.8017 -2.4960 0.9529
0.0324 -11.8080 -2.4960 0.9529
0.4515 -11.7994 -2.4960 0.9529
0.8700 -11.7760 -2.4960 0.9529
2.1169 -11.6167 -2.4960 0.9529
2.5279 -11.5343 -2.4960 0.9529
-9.4542 -4.8379 -2.4960 0.9573
-8.6744 -6.1273 -2.4960 0.9573
-8.2178 -6.7272 -2.4960 0.9573
-7.7198 -7.2933 -2.4960 0.9573
-7.4561 -7.5627 -2.4960 0.9573
-5.6888 -8.9680 -2.4960 0.9573
-5.3669 -9.1643 -2.4960 0.9573
-5.0382 -9.3490 -2.4960 0.9573
-4.3623 -9.6829 -2.4960 0.9573
-4.0158 -9.8316 -2.4960 0.9573
-3.3082 -10.0918 -2.4960 0.9573
-2.2167 -10.3862 -2.4960 0.9573
-0.7244 -10.5954 -2.4960 0.9573
-0.3479 -10.6145 -2.4960 0.9573
0.0291 -10.6201 -2.4960 0.9573
0.4061 -10.6124 -2.4960 0.9573
0.7825 -10.5913 -2.4960 0.9573
1.5319 -10.5091 -2.4960 0.9573
2.2736 -10.3739 -2.4960 0.9573
-8.2485 -4.9892 -2.4960 0.9610
-8.0663 -5.2788 -2.4960 0.9610
-7.6714 -5.8378 -2.4960 0.9610
-6.7680 -6.8648 -2.4960 0.9610
-6.5201 -7.1007 -2.4960 0.9610
-5.1638 -8.1404 -2.4960 0.9610
-4.2692 -8.6432 -2.4960 0.9610
-3.6452 -8.9243 -2.4960 0.9610
-3.0029 -9.1604 -2.4960 0.9610
-2.3455 -9.3504 -2.4960 0.9610
-2.0121 -9.4277 -2.4960 0.9610
-1.6762 -9.4932 -2.4960 0.9610
-1.3382 -9.5467 -2.4960 0.9610
-0.3157 -9.6349 -2.4960 0.9610
1.0511 -9.5826 -2.4960 0.9610
1.7283 -9.4839 -2.4960 0.9610
2.0638 -9.4166 -2.4960 0.9610
-7.8489 -4.0164 -2.4960 0.9640
-7.5441 -4.5631 -2.4960 0.9640
-7.3774 -4.8280 -2.4960 0.9640
-7.2014 -5.0869 -2.4960 0.9640
-7.0163 -5.3392 -2.4960 0.9640
-6.4090 -6.0549 -2.4960 0.9640
-6.1900 -6.2785 -2.4960 0.9640
-5.4875 -6.9010 -2.4960 0.9640
-4.4556 -7.6082 -2.4960 0.9640
-4.1827 -7.7615 -2.4960 0.9640
-3.6215 -8.0387 -2.4960 0.9640
-3.3339 -8.1622 -2.4960 0.9640
-3.0421 -8.2754 -2.4960 0.9640
-2.7465 -8.3782 -2.4960 0.9640
-2.4474 -8.4704 -2.4960 0.9640
-1.5331 -8.6825 -2.4960 0.9640
-1.2239 -8.7315 -2.4960 0.9640
-0.6014 -8.7963 -2.4960 0.9640
-0.2888 -8.8121 -2.4960 0.9640
1.8875 -8.6124 -2.4960 0.9640
-7.3507 -3.4379 -2.4960 0.9666
-7.2240 -3.6967 -2.4960 0.9666
-7.0883 -3.9508 -2.4960 0.9666
-6.7901 -4.4437 -2.4960 0.9666
-6.6281 -4.6819 -2.4960 0.9666
-6.2793 -5.1403 -2.4960 0.9666
-6.0929 -5.3600 -2.4960 0.9666
-5.4886 -5.9773 -2.4960 0.9666
-5.2729 -6.1683 -2.4960 0.9666
-5.0507 -6.3516 -2.4960 0.9666
-4.1009 -7.0025 -2.4960 0.9666
-3.8498 -7.1437 -2.4960 0.9666
-3.5938 -7.2758 -2.4960 0.9666
-3.3333 -7.3988 -2.4960 0.9666
-2.5278 -7.7112 -2.4960 0.9666
-2.2526 -7.7960 -2.4960 0.9666
-1.9744 -7.8711 -2.4960 0.9666
-1.4110 -7.9913 -2.4960 0.9666
-0.5535 -8.0961 -2.4960 0.9666
-0.2658 -8.1106 -2.4960 0.9666
0.5979 -8.0929 -2.4960 0.9666
0.8848 -8.0666 -2.4960 0.9666
1.7373 -7.9268 -2.4960 0.9666
-6.5588 -3.6557 -2.4960 0.9688
-6.2830 -4.1118 -2.4960 0.9688
-5.9754 -4.5472 -2.4960 0.9688
-4.8791 -5.7076 -2.4960 0.9688
-4.6734 -5.8772 -2.4960 0.9688
-4.4619 -6.0394 -2.4960 0.9688
-4.0222 -6.3407 -2.4960 0.9688
-3.5622 -6.6101 -2.4960 0.9688
-3.3254 -6.7324 -2.4960 0.9688
-2.5908 -7.0477 -2.4960 0.9688
-2.3391 -7.1352 -2.4960 0.9688
-2.0843 -7.2138 -2.4960 0.9688
-1.0423 -7.4362 -2.4960 0.9688
-0.2459 -7.5048 -2.4960 0.9688
0.2871 -7.5034 -2.4960 0.9688
-6.0967 -3.3981 -2.4960 0.9708
-5.8402 -3.8220 -2.4960 0.9708
-5.7009 -4.0269 -2.4960 0.9708
-5.5543 -4.2267 -2.4960 0.9708
-5.4008 -4.4212 -2.4960 0.9708
-4.5353 -5.3054 -2.4960 0.9708
-4.3441 -5.4630 -2.4960 0.9708
-3.9456 -5.7575 -2.4960 0.9708
-3.3112 -6.1443 -2.4960 0.9708
-3.0910 -6.2579 -2.4960 0.9708
-1.4568 -6.8259 -2.4960 0.9708
-1.2136 -6.8734 -2.4960 0.9708
-0.7229 -6.9421 -2.4960 0.9708
-0.4761 -6.9634 -2.4960 0.9708
-0.2286 -6.9759 -2.4960 0.9708
0.2669 -6.9746 -2.4960 0.9708
0.7610 -6.9381 -2.4960 0.9708
1.0068 -6.9067 -2.4960 0.9708
1.2513 -6.8666 -2.4960 0.9708
1.4942 -6.8179 -2.4960 0.9708
-5.7982 -2.9670 -2.4960 0.9725
-5.6892 -3.1710 -2.4960 0.9725
-4.8903 -4.3020 -2.4960 0.9725
-4.7345 -4.4729 -2.4960 0.9725
-4.4052 -4.7975 -2.4960 0.9725
-4.2321 -4.9508 -2.4960 0.9725
-4.0538 -5.0979 -2.4960 0.9725
-3.8703 -5.2386 -2.4960 0.9725
-3.6819 -5.3727 -2.4960 0.9725
-3.2914 -5.6204 -2.4960 0.9725
-2.8844 -5.8397 -2.4960 0.9725
-2.6753 -5.9384 -2.4960 0.9725
-2.4629 -6.0296 -2.4960 0.9725
-1.8079 -6.2573 -2.4960 0.9725
-1.3595 -6.3698 -2.4960 0.9725
-1.1325 -6.4140 -2.4960 0.9725
-0.9041 -6.4502 -2.4960 0.9725
-0.4443 -6.4980 -2.4960 0.9725
0.4799 -6.4955 -2.4960 0.9725
0.9395 -6.4451 -2.4960 0.9725
1.1677 -6.4077 -2.4960 0.9725
1.3944 -6.3622 -2.4960 0.9725
-5.4290 -2.7781 -2.4960 0.9740
-4.9812 -3.5185 -2.4960 0.9740
-4.8532 -3.6931 -2.4960 0.9740
-4.7190 -3.8631 -2.4960 0.9740
-4.5789 -4.0281 -2.4960 0.9740
-4.2816 -4.3428 -2.4960 0.9740
-4.1247 -4.4921 -2.4960 0.9740
-3.6239 -4.9051 -2.4960 0.9740
-3.4475 -5.0306 -2.4960 0.9740
-3.2667 -5.1498 -2.4960 0.9740
-2.7008 -5.4679 -2.4960 0.9740
-1.4838 -5.9153 -2.4960 0.9740
-1.0604 -6.0057 -2.4960 0.9740
-0.6317 -6.0658 -2.4960 0.9740
-0.4160 -6.0843 -2.4960 0.9740
-0.1998 -6.0953 -2.4960 0.9740
0.0167 -6.0985 -2.4960 0.9740
0.4493 -6.0820 -2.4960 0.9740
0.6649 -6.0622 -2.4960 0.9740
0.8797 -6.0348 -2.4960 0.9740
-5.1878 -2.4263 -2.4960 0.9753
-5.0984 -2.6089 -2.4960 0.9753
-5.0026 -2.7883 -2.4960 0.9753
-4.9004 -2.9641 -2.4960 0.9753
-4.5576 -3.4682 -2.4960 0.9753
-4.1631 -3.9330 -2.4960 0.9753
-4.0209 -4.0783 -2.4960 0.9753
-3.8735 -4.2185 -2.4960 0.9753
-3.7214 -4.3533 -2.4960 0.9753
-3.2375 -4.7243 -2.4960 0.9753
-3.0678 -4.8362 -2.4960 0.9753
-2.7170 -5.0417 -2.4960 0.9753
-2.3525 -5.2217 -2.4960 0.9753
-1.9761 -5.3754 -2.4960 0.9753
-1.5897 -5.5021 -2.4960 0.9753
-1.3934 -5.5550 -2.4960 0.9753
-1.1954 -5.6010 -2.4960 0.9753
-0.9958 -5.6399 -2.4960 0.9753
0.2190 -5.7229 -2.4960 0.9753
0.4220 -5.7116 -2.4960 0.9753
0.8261 -5.6673 -2.4960 0.9753
1.2261 -5.5944 -2.4960 0.9753
-4.5119 -2.9527 -2.4960 0.9765
-4.0486 -3.5616 -2.4960 0.9765
-3.7857 -3.8398 -2.4960 0.9765
-3.5038 -4.0988 -2.4960 0.9765
-3.3561 -4.2205 -2.4960 0.9765
-3.2041 -4.3370 -2.4960 0.9765
-3.0482 -4.4480 -2.4960 0.9765
-2.5581 -4.7468 -2.4960 0.9765
-2.3880 -4.8346 -2.4960 0.9765
-2.2149 -4.9163 -2.4960 0.9765
-2.0390 -4.9919 -2.4960 0.9765
-1.8605 -5.0611 -2.4960 0.9765
-1.6797 -5.1239 -2.4960 0.9765
-1.4968 -5.1803 -2.4960 0.9765
-0.5585 -5.3632 -2.4960 0.9765
-0.3678 -5.3797 -2.4960 0.9765
0.0148 -5.3922 -2.4960 0.9765
0.9667 -5.3049 -2.4960 0.9765
1.1544 -5.2672 -2.4960 0.9765
-4.0493 -3.0814 -2.4960 0.9776
-3.8205 -3.3609 -2.4960 0.9776
-3.5724 -3.6235 -2.4960 0.9776
-3.4415 -3.7480 -2.4960 0.9776
-3.1670 -3.9827 -2.4960 0.9776
-3.0236 -4.0926 -2.4960 0.9776
-2.8764 -4.1974 -2.4960 0.9776
-2.5714 -4.3909 -2.4960 0.9776
-2.4139 -4.4794 -2.4960 0.9776
-2.2534 -4.5622 -2.4960 0.9776
-2.0901 -4.6393 -2.4960 0.9776
-1.9241 -4.7106 -2.4960 0.9776
-1.7557 -4.7759 -2.4960 0.9776
-1.2380 -4.9355 -2.4960 0.9776
-0.8848 -5.0109 -2.4960 0.9776
-0.7064 -5.0391 -2.4960 0.9776
-0.5270 -5.0610 -2.4960 0.9776
-0.3471 -5.0766 -2.4960 0.9776
0.3749 -5.0746 -2.4960 0.9776
0.7340 -5.0352 -2.4960 0.9776
-4.0258 -2.6346 -2.4960 0.9786
-3.6124 -3.1779 -2.4960 0.9786
-3.1263 -3.6571 -2.4960 0.9786
-2.7198 -3.9688 -2.4960 0.9786
-2.2825 -4.2354 -2.4960 0.9786
-2.1307 -4.3137 -2.4960 0.9786
-1.8193 -4.4540 -2.4960 0.9786
-1.6601 -4.5158 -2.4960 0.9786
-1.4987 -4.5719 -2.4960 0.9786
-1.3355 -4.6222 -2.4960 0.9786
-1.1706 -4.6667 -2.4960 0.9786
-0.8366 -4.7380 -2.4960 0.9786
0.1840 -4.8077 -2.4960 0.9786
0.3545 -4.7982 -2.4960 0.9786
0.6940 -4.7610 -2.4960 0.9786
0.8626 -4.7333 -2.4960 0.9786
-3.8993 -2.3586 -2.4960 0.9794
-3.7222 -2.6292 -2.4960 0.9794
-3.6265 -2.7597 -2.4960 0.9794
-3.5263 -2.8867 -2.4960 0.9794
-3.4216 -3.0100 -2.4960 0.9794
-3.0823 -3.3567 -2.4960 0.9794
-2.9612 -3.4640 -2.4960 0.9794
-2.8363 -3.5669 -2.4960 0.9794
-2.7080 -3.6654 -2.4960 0.9794
-2.5761 -3.7592 -2.4960 0.9794
-2.4411 -3.8482 -2.4960 0.9794
-1.8719 -4.1550 -2.4960 0.9794
-1.7232 -4.2188 -2.4960 0.9794
-1.1088 -4.4202 -2.4960 0.9794
-0.9512 -4.4568 -2.4960 0.9794
-0.6326 -4.5131 -2.4960 0.9794
-0.4720 -4.5327 -2.4960 0.9794
-0.1493 -4.5547 -2.4960 0.9794
0.0125 -4.5572 -2.4960 0.9794
0.1743 -4.5538 -2.4960 0.9794
0.4969 -4.5300 -2.4960 0.9794
0.9756 -4.4515 -2.4960 0.9794
-3.9160 -1.8315 -2.4960 0.9802
-3.7762 -2.1047 -2.4960 0.9802
-3.6991 -2.2374 -2.4960 0.9802
-3.5311 -2.4942 -2.4960 0.9802
-3.3452 -2.7385 -2.4960 0.9802
-3.2459 -2.8555 -2.4960 0.9802
-3.1425 -2.9689 -2.4960 0.9802
-3.0352 -3.0786 -2.4960 0.9802
-2.8091 -3.2861 -2.4960 0.9802
-2.6907 -3.3838 -2.4960 0.9802
-2.5689 -3.4771 -2.4960 0.9802
-2.4439 -3.5661 -2.4960 0.9802
-2.1847 -3.7305 -2.4960 0.9802
-2.0509 -3.8057 -2.4960 0.9802
-1.9145 -3.8761 -2.4960 0.9802
-1.7757 -3.9416 -2.4960 0.9802
-1.4916 -4.0577 -2.4960 0.9802
-1.3467 -4.1081 -2.4960 0.9802
-1.0519 -4.1933 -2.4960 0.9802
-0.6001 -4.2813 -2.4960 0.9802
-0.2949 -4.3131 -2.4960 0.9802
0.0119 -4.3232 -2.4960 0.9802
0.1653 -4.3200 -2.4960 0.9802
0.3185 -4.3114 -2.4960 0.9802
0.6236 -4.2780 -2.4960 0.9802
