ply
format ascii 1.0
element vertex 680
property float32 x
property float32 y
property float32 z
property float32 I
end_header
15.1633 10.9119 3.2940 0.9269
18.7404 14.5279 4.1811 0.9082
16.2248 16.7774 4.1154 0.9096
16.3621 24.4219 5.1834 0.8875
8.4430 14.7821 3.0017 0.9332
7.1126 14.8149 2.8977 0.9354
6.4798 14.8305 2.8537 0.9364
5.8652 14.8457 2.8146 0.9372
5.2664 14.8604 2.7800 0.9380
4.1084 14.8890 2.7234 0.9392
1.3909 25.1725 4.4454 0.9027
30.6259 14.6211 5.1990 0.8717
30.6600 16.0042 5.2983 0.8694
21.8074 14.5414 4.0154 0.8994
17.4579 14.5596 3.4825 0.9121
16.2757 14.5887 3.3484 0.9154
16.1956 15.5938 3.4442 0.9130
16.2248 16.7774 3.5755 0.9099
16.2732 19.4261 3.8822 0.9025
16.4165 22.7075 4.2925 0.8928
16.4154 24.5015 4.5180 0.8875
8.4430 14.7821 2.6079 0.9334
5.2664 14.8604 2.4153 0.9382
4.1084 14.8890 2.3662 0.9394
3.5455 14.9029 2.3468 0.9399
2.4434 14.9301 2.3176 0.9406
2.0707 22.7243 3.4957 0.9118
32.6590 14.1845 4.6367 0.8662
30.8030 14.7056 4.4449 0.8714
30.7757 17.4887 4.6095 0.8669
21.8074 14.5414 3.4132 0.8997
15.1602 10.9097 2.4322 0.9274
17.4579 14.5596 2.9602 0.9124
16.2758 14.5888 2.8462 0.9156
16.2564 18.0566 3.1639 0.9066
16.2732 19.4261 3.3000 0.9028
16.3750 21.0278 3.4706 0.8981
16.4154 24.5014 3.8405 0.8878
16.4668 26.5817 4.0719 0.8815
8.4430 14.7820 2.2168 0.9336
7.7660 14.7987 2.1763 0.9348
7.1126 14.8149 2.1400 0.9359
6.4798 14.8305 2.1075 0.9368
5.2664 14.8604 2.0531 0.9384
3.5455 14.9029 1.9948 0.9401
2.9910 14.9166 1.9811 0.9405
2.0777 22.8011 2.9815 0.9118
32.8533 14.2689 3.8462 0.8658
30.8030 14.7056 3.6653 0.8717
30.8374 16.0968 3.7354 0.8694
30.7757 17.4887 3.8011 0.8673
30.9261 19.0645 3.9012 0.8640
21.6784 14.4554 2.7979 0.9005
18.7404 14.5279 2.5462 0.9090
17.4579 14.5596 2.4410 0.9126
16.2757 14.5887 2.3471 0.9158
16.1956 15.5938 2.4142 0.9135
16.2248 16.7774 2.5062 0.9104
16.2564 18.0566 2.6090 0.9069
16.2907 19.4470 2.7241 0.9030
16.3283 20.9677 2.8537 0.8986
16.3005 22.5471 2.9876 0.8941
16.4668 26.5817 3.3577 0.8818
8.4429 14.7821 1.8280 0.9338
7.7660 14.7987 1.7946 0.9350
5.2664 14.8604 1.6930 0.9385
4.6815 14.8749 1.6745 0.9392
4.1084 14.8890 1.6586 0.9398
3.5455 14.9029 1.6450 0.9402
2.9910 14.9166 1.6337 0.9406
46.1866 12.6358 4.0535 0.8251
32.5414 14.1334 3.0033 0.8673
30.8374 16.0968 2.9447 0.8697
30.7757 17.4888 2.9965 0.8675
21.6784 14.4554 2.2057 0.9007
15.1572 10.9075 1.5808 0.9278
18.7404 14.5279 2.0073 0.9092
17.4579 14.5596 1.9244 0.9128
16.1956 15.5938 1.9032 0.9137
16.2907 19.4469 2.1475 0.9032
16.3282 20.9677 2.2497 0.8988
16.4154 24.5015 2.4966 0.8883
8.4430 14.7821 1.4411 0.9339
5.2664 14.8604 1.3346 0.9387
3.5666 14.9916 1.3045 0.9400
2.4434 14.9301 1.2807 0.9411
1.7821 14.0075 1.1953 0.9449
1.2800 14.0465 1.1940 0.9450
0.7784 14.0879 1.1944 0.9449
32.6590 14.1845 2.2080 0.8670
30.8374 16.0968 2.1571 0.8699
18.7404 14.5279 1.4704 0.9093
16.2758 14.5888 1.3554 0.9161
16.0973 15.4991 1.3857 0.9143
16.2564 18.0566 1.5066 0.9072
16.2907 19.4470 1.5731 0.9033
16.4154 24.5014 1.8288 0.8885
16.4668 26.5817 1.9390 0.8822
8.4430 14.7821 1.0556 0.9341
7.1549 14.9030 1.0251 0.9359
5.2664 14.8604 0.9777 0.9388
4.1329 14.9776 0.9635 0.9396
3.5666 14.9916 0.9556 0.9401
2.9910 14.9166 0.9434 0.9409
1.7189 13.5105 0.8445 0.9469
0.7491 13.5575 0.8420 0.9470
35.9288 14.1038 1.5220 0.8568
23.3644 13.2772 1.0596 0.8980
23.3519 14.3954 1.0817 0.8960
15.1542 10.9053 0.7362 0.9280
16.1956 15.5938 0.8865 0.9139
16.2248 16.7774 0.9203 0.9108
16.4165 22.7075 1.1049 0.8939
16.4668 26.5817 1.2330 0.8823
8.4430 14.7821 0.6712 0.9341
7.7660 14.7987 0.6590 0.9353
5.8652 14.8457 0.6294 0.9381
5.2664 14.8604 0.6217 0.9388
4.6815 14.8749 0.6149 0.9395
3.5666 14.9916 0.6076 0.9402
2.9910 14.9166 0.5999 0.9409
0.7218 13.0624 0.5158 0.9490
39.6462 12.3823 0.7016 0.8469
36.1425 14.1877 0.6559 0.8561
30.8030 14.7056 0.5766 0.8724
23.7556 12.4002 0.4527 0.8983
21.8074 14.5414 0.4427 0.9005
18.7404 14.5279 0.4005 0.9095
16.1956 15.5938 0.3798 0.9140
16.2248 16.7774 0.3942 0.9109
16.2732 19.4261 0.4281 0.9036
16.4165 22.7075 0.4733 0.8940
16.3201 24.3591 0.4953 0.8893
8.4430 14.7821 0.2876 0.9342
7.7660 14.7987 0.2823 0.9353
7.1549 14.9030 0.2792 0.9360
6.4798 14.8305 0.2734 0.9373
5.8652 14.8457 0.2696 0.9381
4.6815 14.8749 0.2634 0.9395
4.1329 14.9776 0.2625 0.9397
2.4434 14.9301 0.2556 0.9413
1.8988 14.9248 0.2541 0.9416
2.1774 23.8954 0.4053 0.9085
35.9288 14.1038 -0.2173 0.8569
30.8030 14.7056 -0.1922 0.8724
30.8374 16.0968 -0.1959 0.8701
15.1512 10.9032 -0.1051 0.9281
18.7404 14.5279 -0.1335 0.9095
17.4579 14.5596 -0.1280 0.9131
16.2757 14.5887 -0.1231 0.9163
16.1956 15.5938 -0.1266 0.9140
16.2564 18.0566 -0.1368 0.9074
16.2907 19.4469 -0.1428 0.9035
16.3283 20.9677 -0.1496 0.8992
16.3696 22.6427 -0.1573 0.8943
16.3189 24.3573 -0.1651 0.8893
6.4798 14.8305 -0.0911 0.9373
5.2664 14.8604 -0.0888 0.9389
4.6815 14.8749 -0.0878 0.9395
3.5327 14.8492 -0.0859 0.9408
2.9910 14.9166 -0.0857 0.9410
2.1793 23.9159 -0.1352 0.9084
1.3586 24.5885 -0.1386 0.9062
35.9288 14.1038 -1.0868 0.8569
32.6590 14.1845 -1.0026 0.8672
30.8031 14.7056 -0.9611 0.8723
30.8374 16.0968 -0.9795 0.8701
21.6784 14.4554 -0.7337 0.9010
15.1497 10.9021 -0.5256 0.9280
16.2757 14.5887 -0.6154 0.9163
16.2248 16.7774 -0.6572 0.9108
16.3282 20.9677 -0.7483 0.8991
16.3176 24.3554 -0.8255 0.8893
7.1126 14.8149 -0.4627 0.9364
4.1084 14.8890 -0.4349 0.9401
3.5455 14.9029 -0.4313 0.9405
2.9910 14.9166 -0.4284 0.9409
1.8371 14.4399 -0.4099 0.9434
1.3585 24.5869 -0.6934 0.9062
49.0544 4.3618 -2.4976 0.8210
48.8677 6.1085 -2.4976 0.8210
48.3079 9.5765 -2.4976 0.8210
47.9356 11.2933 -2.4976 0.8210
37.9176 13.3443 -2.0386 0.8513
32.6590 14.1845 -1.8058 0.8671
30.8030 14.7056 -1.7310 0.8722
24.3191 13.8197 -1.4186 0.8940
23.3145 14.3723 -1.3890 0.8961
18.7404 14.5279 -1.2025 0.9094
16.3696 22.6427 -1.4170 0.8941
15.0982 24.3724 -1.4540 0.8915
7.7660 14.7987 -0.8476 0.9353
5.8652 14.8457 -0.8095 0.9381
5.2664 14.8604 -0.7996 0.9388
4.1084 14.8890 -0.7833 0.9400
2.9910 14.9166 -0.7715 0.9409
1.8059 14.1946 -0.7257 0.9443
0.9639 17.4452 -0.8861 0.9324
33.9292 3.0169 -2.4976 0.8723
33.4128 6.6237 -2.4976 0.8723
30.8508 8.4402 -2.3452 0.8796
30.5302 9.5352 -2.3452 0.8796
28.5565 10.0499 -2.2197 0.8857
28.1799 11.0620 -2.2197 0.8857
27.7675 12.0600 -2.2197 0.8857
23.4251 13.3117 -1.9755 0.8976
23.3145 14.3723 -2.0082 0.8960
21.6784 14.4554 -1.9105 0.9008
15.1467 10.8999 -1.3683 0.9279
18.7404 14.5279 -1.7386 0.9093
17.4579 14.5596 -1.6668 0.9129
16.1956 15.5938 -1.6485 0.9138
16.2248 16.7774 -1.7113 0.9106
16.2564 18.0566 -1.7815 0.9072
16.2907 19.4470 -1.8601 0.9033
16.3282 20.9677 -1.9486 0.8989
16.3151 24.3516 -2.1492 0.8891
15.0970 24.3706 -2.1020 0.8914
5.8652 14.8457 -1.1704 0.9380
5.2664 14.8604 -1.1560 0.9387
4.6815 14.8749 -1.1434 0.9394
4.1084 14.8890 -1.1325 0.9399
2.9910 14.9166 -1.1155 0.9408
1.8437 14.4920 -1.0711 0.9431
1.3644 14.9729 -1.1024 0.9415
0.8280 14.9851 -1.1004 0.9416
25.9128 2.3041 -2.4976 0.9007
25.6827 4.1454 -2.4976 0.9007
25.3218 5.9657 -2.4976 0.9007
24.8321 7.7555 -2.4976 0.9007
22.7384 8.9259 -2.3452 0.9065
22.4056 9.7312 -2.3452 0.9065
20.1017 11.4231 -2.2197 0.9113
19.6815 12.1328 -2.2197 0.9113
19.2363 12.8270 -2.2197 0.9113
15.0127 10.8035 -1.7757 0.9284
16.2757 14.5887 -2.0984 0.9159
16.1956 15.5938 -2.1584 0.9136
16.0729 16.6202 -2.2197 0.9113
15.4698 17.1829 -2.2197 0.9113
12.1758 19.6550 -2.2197 0.9113
7.7660 14.7987 -1.6045 0.9350
5.8652 14.8457 -1.5325 0.9379
4.6815 14.8749 -1.4971 0.9393
3.5455 14.9029 -1.4707 0.9403
2.9910 14.9166 -1.4606 0.9407
1.8290 14.3765 -1.3913 0.9434
1.3111 14.3882 -1.3871 0.9436
0.7957 14.3999 -1.3846 0.9437
20.8635 2.6079 -2.4976 0.9188
20.7572 3.3504 -2.4976 0.9188
20.6245 4.0886 -2.4976 0.9188
19.8335 6.9800 -2.4976 0.9188
19.5719 7.6829 -2.4976 0.9188
17.8167 8.5058 -2.3452 0.9236
17.5019 9.1358 -2.3452 0.9236
15.5472 10.3670 -2.2197 0.9275
14.3509 11.9684 -2.2197 0.9275
13.4612 12.9609 -2.2197 0.9275
12.9904 13.4328 -2.2197 0.9275
11.9997 14.3246 -2.2197 0.9275
11.4812 14.7435 -2.2197 0.9275
10.9481 15.1436 -2.2197 0.9275
8.4430 14.7821 -2.0221 0.9337
6.4798 14.8305 -1.9225 0.9369
5.8652 14.8457 -1.8961 0.9377
5.2664 14.8604 -1.8728 0.9385
4.1084 14.8890 -1.8347 0.9397
2.4434 14.9301 -1.7971 0.9409
1.7929 14.0923 -1.6875 0.9444
0.7799 14.1153 -1.6793 0.9446
17.5578 1.5612 -2.4976 0.9313
17.4910 2.1864 -2.4976 0.9313
17.2907 3.4277 -2.4976 0.9313
17.1574 4.0422 -2.4976 0.9313
17.0023 4.6515 -2.4976 0.9313
16.8256 5.2550 -2.4976 0.9313
16.6275 5.8517 -2.4976 0.9313
16.4082 6.4410 -2.4976 0.9313
15.9073 7.5943 -2.4976 0.9313
15.6264 8.1568 -2.4976 0.9313
14.4656 8.2203 -2.3574 0.9350
13.7708 9.1825 -2.3452 0.9353
10.8905 11.2614 -2.2197 0.9387
10.0600 12.0091 -2.2197 0.9387
9.6253 12.3603 -2.2197 0.9387
9.1784 12.6957 -2.2197 0.9387
8.2500 13.3177 -2.2197 0.9387
7.7698 13.6034 -2.2197 0.9387
7.2797 13.8719 -2.2197 0.9387
6.7803 14.1227 -2.2197 0.9387
5.7563 14.5701 -2.2197 0.9387
4.1084 14.8890 -2.1885 0.9395
3.5455 14.9029 -2.1705 0.9400
1.7616 13.8462 -1.9777 0.9452
1.2627 13.8575 -1.9716 0.9453
0.7663 13.8688 -1.9681 0.9454
15.1012 1.3427 -2.4976 0.9404
15.0437 1.8805 -2.4976 0.9404
14.9671 2.4158 -2.4976 0.9404
14.7568 3.4766 -2.4976 0.9404
14.6234 4.0007 -2.4976 0.9404
13.9059 6.0396 -2.4976 0.9404
13.4399 7.0155 -2.4976 0.9404
13.1812 7.4904 -2.4976 0.9404
12.9057 7.9557 -2.4976 0.9404
12.3024 8.2034 -2.4359 0.9418
10.2549 9.8738 -2.3452 0.9439
9.8962 10.2333 -2.3452 0.9439
9.2544 10.2792 -2.2786 0.9455
8.6525 10.3288 -2.2197 0.9468
7.0957 11.4543 -2.2197 0.9468
6.6827 11.7001 -2.2197 0.9468
6.2611 11.9310 -2.2197 0.9468
5.8316 12.1467 -2.2197 0.9468
5.3947 12.3470 -2.2197 0.9468
4.9509 12.5315 -2.2197 0.9468
4.5008 12.7001 -2.2197 0.9468
3.1185 13.1082 -2.2197 0.9468
1.7005 13.3663 -2.2197 0.9468
1.2227 13.4185 -2.2197 0.9468
0.7434 13.4535 -2.2197 0.9468
13.1851 1.6481 -2.4976 0.9474
12.8168 3.5064 -2.4976 0.9474
12.6835 3.9613 -2.4976 0.9474
12.3689 4.8554 -2.4976 0.9474
12.1879 5.2934 -2.4976 0.9474
11.9913 5.7247 -2.4976 0.9474
11.0553 7.3718 -2.4976 0.9474
10.7852 7.7614 -2.4976 0.9474
10.5017 8.1411 -2.4976 0.9474
9.8424 8.2084 -2.4089 0.9492
8.9880 8.6539 -2.3452 0.9505
8.3482 9.2726 -2.3452 0.9505
8.0122 9.5645 -2.3452 0.9505
7.3100 10.1113 -2.3452 0.9505
5.8914 10.3147 -2.2327 0.9528
5.4876 10.4570 -2.2197 0.9531
5.1112 10.6460 -2.2197 0.9531
4.7282 10.8216 -2.2197 0.9531
3.5453 11.2647 -2.2197 0.9531
2.3217 11.5789 -2.2197 0.9531
1.9073 11.6544 -2.2197 0.9531
11.7243 1.4656 -2.4976 0.9528
11.5901 2.2976 -2.4976 0.9528
11.2783 3.5224 -2.4976 0.9528
11.1455 3.9224 -2.4976 0.9528
10.4744 5.4675 -2.4976 0.9528
10.2728 5.8376 -2.4976 0.9528
10.0580 6.2003 -2.4976 0.9528
8.7984 7.8864 -2.4976 0.9528
7.4233 8.2453 -2.3452 0.9557
6.8166 8.7535 -2.3452 0.9557
6.1753 9.2171 -2.3452 0.9557
5.1554 9.8240 -2.3452 0.9557
4.8018 10.0016 -2.3452 0.9557
4.0766 10.3185 -2.3452 0.9557
3.2551 10.3426 -2.2919 0.9566
2.4625 10.3509 -2.2490 0.9574
1.6953 10.3591 -2.2188 0.9580
0.2617 4.7363 -1.0027 0.9808
10.5852 0.9412 -2.4976 0.9573
10.3438 2.4369 -2.4976 0.9573
10.1437 3.1681 -2.4976 0.9573
10.0243 3.5279 -2.4976 0.9573
9.7473 4.2335 -2.4976 0.9573
9.5901 4.5784 -2.4976 0.9573
8.6257 6.2072 -2.4976 0.9573
7.6553 7.3708 -2.4976 0.9573
6.3872 8.2020 -2.4432 0.9582
4.6368 8.8357 -2.3452 0.9598
3.9952 9.1438 -2.3452 0.9598
3.6665 9.2805 -2.3452 0.9598
3.3332 9.4053 -2.3452 0.9598
2.6542 9.6190 -2.3452 0.9598
2.3095 9.7075 -2.3452 0.9598
0.2465 4.4606 -1.0499 0.9818
9.6083 0.8543 -2.4976 0.9609
9.4621 1.8758 -2.4976 0.9609
9.3043 2.5455 -2.4976 0.9609
9.2076 2.8757 -2.4976 0.9609
9.0992 3.2023 -2.4976 0.9609
8.5513 4.4637 -2.4976 0.9609
8.0256 5.3516 -2.4976 0.9609
7.8296 5.6344 -2.4976 0.9609
7.6237 5.9100 -2.4976 0.9609
7.1830 6.4385 -2.4976 0.9609
6.4542 7.1689 -2.4976 0.9609
5.9267 7.6107 -2.4976 0.9609
5.6515 7.8173 -2.4976 0.9609
5.0751 8.1924 -2.4952 0.9610
4.6845 8.2016 -2.4455 0.9617
4.3084 8.2099 -2.4006 0.9624
3.9452 8.2174 -2.3601 0.9630
3.6265 8.2999 -2.3452 0.9633
3.3282 8.4240 -2.3452 0.9633
3.0256 8.5373 -2.3452 0.9633
2.7192 8.6398 -2.3452 0.9633
0.7319 4.4720 -1.1733 0.9815
0.5612 4.4108 -1.1513 0.9818
0.4026 4.4182 -1.1487 0.9818
0.2443 4.4211 -1.1464 0.9819
8.7544 1.0943 -2.4976 0.9640
8.7097 1.4058 -2.4976 0.9640
8.6541 1.7156 -2.4976 0.9640
8.0922 3.5146 -2.4976 0.9640
7.8211 4.0825 -2.4976 0.9640
7.6705 4.3589 -2.4976 0.9640
7.3402 4.8946 -2.4976 0.9640
6.9726 5.4054 -2.4976 0.9640
6.7754 5.6506 -2.4976 0.9640
6.5696 5.8887 -2.4976 0.9640
5.4206 6.9608 -2.4976 0.9640
5.1689 7.1497 -2.4976 0.9640
4.9106 7.3295 -2.4976 0.9640
4.6461 7.5000 -2.4976 0.9640
4.3757 7.6609 -2.4976 0.9640
4.0996 7.8121 -2.4976 0.9640
0.8803 4.3904 -1.2676 0.9816
0.7140 4.3626 -1.2514 0.9818
0.5551 4.3632 -1.2451 0.9819
0.3985 4.3736 -1.2433 0.9819
8.0882 0.7192 -2.4976 0.9666
8.0574 1.0072 -2.4976 0.9666
7.9651 1.5790 -2.4976 0.9666
7.9038 1.8621 -2.4976 0.9666
7.7509 2.4208 -2.4976 0.9666
7.4480 3.2348 -2.4976 0.9666
7.3279 3.4984 -2.4976 0.9666
7.1984 3.7575 -2.4976 0.9666
6.4176 4.9750 -2.4976 0.9666
6.2360 5.2008 -2.4976 0.9666
5.2144 6.2247 -2.4976 0.9666
4.7574 6.5805 -2.4976 0.9666
4.5197 6.7460 -2.4976 0.9666
4.2762 6.9029 -2.4976 0.9666
3.7733 7.1902 -2.4976 0.9666
3.5144 7.3202 -2.4976 0.9666
3.2511 7.4409 -2.4976 0.9666
1.7083 4.8204 -1.5730 0.9788
1.2465 4.5173 -1.4414 0.9806
1.0338 4.3453 -1.3738 0.9815
0.3944 4.3283 -1.3368 0.9820
0.2396 4.3355 -1.3355 0.9820
7.4556 0.9320 -2.4976 0.9688
7.4176 1.1973 -2.4976 0.9688
7.3702 1.4611 -2.4976 0.9688
7.0876 2.4943 -2.4976 0.9688
6.9941 2.7455 -2.4976 0.9688
6.8917 2.9932 -2.4976 0.9688
6.7806 3.2371 -2.4976 0.9688
6.6608 3.4769 -2.4976 0.9688
6.0987 4.3888 -2.4976 0.9688
5.9383 4.6035 -2.4976 0.9688
5.7703 4.8123 -2.4976 0.9688
5.4125 5.2114 -2.4976 0.9688
5.2233 5.4011 -2.4976 0.9688
4.8250 5.7597 -2.4976 0.9688
4.6165 5.9282 -2.4976 0.9688
4.1821 6.2422 -2.4976 0.9688
3.9568 6.3874 -2.4976 0.9688
3.2519 6.7734 -2.4976 0.9688
1.7940 4.5409 -1.6230 0.9796
1.5511 4.3768 -1.5435 0.9806
1.1874 4.3030 -1.4838 0.9814
0.6760 4.1309 -1.3914 0.9825
0.2370 4.2885 -1.4277 0.9821
6.9302 0.8663 -2.4976 0.9708
6.8949 1.1129 -2.4976 0.9708
6.8508 1.3581 -2.4976 0.9708
6.5012 2.5520 -2.4976 0.9708
6.4060 2.7823 -2.4976 0.9708
6.1914 3.2318 -2.4976 0.9708
6.0722 3.4506 -2.4976 0.9708
5.9453 3.6650 -2.4976 0.9708
5.5198 4.2790 -2.4976 0.9708
5.3637 4.4732 -2.4976 0.9708
5.2007 4.6616 -2.4976 0.9708
5.0311 4.8442 -2.4976 0.9708
4.4849 5.3538 -2.4976 0.9708
4.2911 5.5104 -2.4976 0.9708
4.0919 5.6599 -2.4976 0.9708
3.8874 5.8023 -2.4976 0.9708
3.6780 5.9372 -2.4976 0.9708
3.2454 6.1843 -2.4976 0.9708
3.0228 6.2961 -2.4976 0.9708
2.7963 6.3999 -2.4976 0.9708
1.3429 4.2669 -1.5997 0.9812
1.1748 4.2575 -1.5794 0.9814
1.0133 4.2594 -1.5657 0.9816
0.5421 4.2609 -1.5360 0.9819
0.3882 4.2604 -1.5299 0.9820
0.2354 4.2595 -1.5256 0.9820
6.4918 0.5772 -2.4976 0.9725
6.4671 0.8084 -2.4976 0.9725
6.4341 1.0385 -2.4976 0.9725
6.1478 2.1636 -2.4976 0.9725
6.0667 2.3815 -2.4976 0.9725
5.9779 2.5963 -2.4976 0.9725
5.6664 3.2200 -2.4976 0.9725
5.4224 3.6157 -2.4976 0.9725
5.2900 3.8068 -2.4976 0.9725
5.0052 4.1742 -2.4976 0.9725
4.6949 4.5204 -2.4976 0.9725
4.5307 4.6850 -2.4976 0.9725
4.3607 4.8436 -2.4976 0.9725
3.8184 5.2817 -2.4976 0.9725
3.4322 5.5404 -2.4976 0.9725
2.8208 5.8753 -2.4976 0.9725
2.6094 5.9722 -2.4976 0.9725
1.6995 4.3017 -1.7725 0.9804
1.0122 4.2544 -1.6759 0.9814
0.8530 4.2541 -1.6627 0.9816
0.6961 4.2535 -1.6517 0.9817
0.2349 4.2511 -1.6316 0.9819
6.0245 0.9724 -2.4976 0.9740
5.9398 1.3994 -2.4976 0.9740
5.8250 1.8192 -2.4976 0.9740
5.7564 2.0258 -2.4976 0.9740
5.6804 2.2299 -2.4976 0.9740
5.5973 2.4310 -2.4976 0.9740
5.1947 3.2023 -2.4976 0.9740
5.0772 3.3855 -2.4976 0.9740
4.9532 3.5645 -2.4976 0.9740
4.6866 3.9085 -2.4976 0.9740
4.5442 4.0731 -2.4976 0.9740
4.3960 4.2326 -2.4976 0.9740
4.2422 4.3867 -2.4976 0.9740
4.0831 4.5352 -2.4976 0.9740
3.7494 4.8147 -2.4976 0.9740
3.5753 4.9454 -2.4976 0.9740
3.3967 5.0698 -2.4976 0.9740
3.2137 5.1877 -2.4976 0.9740
2.8357 5.4036 -2.4976 0.9740
2.6412 5.5013 -2.4976 0.9740
1.6785 4.2485 -1.8696 0.9805
1.5011 4.2358 -1.8393 0.9808
1.1677 4.2317 -1.7966 0.9812
1.0110 4.2494 -1.7877 0.9813
0.8515 4.2465 -1.7726 0.9815
0.3867 4.2435 -1.7440 0.9818
0.2344 4.2426 -1.7391 0.9818
5.7083 0.5076 -2.4976 0.9753
5.6866 0.7108 -2.4976 0.9753
5.6576 0.9132 -2.4976 0.9753
5.5781 1.3142 -2.4976 0.9753
5.5277 1.5123 -2.4976 0.9753
5.4702 1.7085 -2.4976 0.9753
5.3345 2.0940 -2.4976 0.9753
5.2564 2.2830 -2.4976 0.9753
5.1717 2.4690 -2.4976 0.9753
4.7680 3.1793 -2.4976 0.9753
4.5292 3.5112 -2.4976 0.9753
4.4011 3.6705 -2.4976 0.9753
4.1283 3.9748 -2.4976 0.9753
3.9839 4.1196 -2.4976 0.9753
3.6801 4.3931 -2.4976 0.9753
3.5211 4.5215 -2.4976 0.9753
2.8423 4.9763 -2.4976 0.9753
2.2945 5.2514 -2.4976 0.9753
1.1753 4.2595 -1.9257 0.9809
1.0095 4.2433 -1.9009 0.9811
0.6936 4.2380 -1.8716 0.9814
0.2341 4.2368 -1.8493 0.9817
5.2519 1.2373 -2.4976 0.9765
5.2044 1.4238 -2.4976 0.9765
5.1504 1.6085 -2.4976 0.9765
5.0897 1.7912 -2.4976 0.9765
5.0226 1.9716 -2.4976 0.9765
4.7832 2.4968 -2.4976 0.9765
4.4892 2.9934 -2.4976 0.9765
4.3796 3.1516 -2.4976 0.9765
4.2644 3.3058 -2.4976 0.9765
4.1437 3.4558 -2.4976 0.9765
3.7509 3.8787 -2.4976 0.9765
3.6102 4.0100 -2.4976 0.9765
3.4649 4.1362 -2.4976 0.9765
3.3152 4.2571 -2.4976 0.9765
3.0033 4.4826 -2.4976 0.9765
2.8415 4.5869 -2.4976 0.9765
2.6761 4.6853 -2.4976 0.9765
2.5073 4.7778 -2.4976 0.9765
2.3353 4.8641 -2.4976 0.9765
1.6481 4.1717 -2.0763 0.9804
1.3138 4.1746 -2.0258 0.9809
1.1511 4.1717 -2.0032 0.9811
1.0073 4.2341 -2.0146 0.9810
0.8507 4.2425 -2.0029 0.9811
0.6937 4.2390 -1.9883 0.9812
0.3862 4.2380 -1.9698 0.9814
5.0717 0.4510 -2.4976 0.9776
4.9945 0.9901 -2.4976 0.9776
4.9560 1.1676 -2.4976 0.9776
4.8601 1.5179 -2.4976 0.9776
4.5949 2.1936 -2.4976 0.9776
4.5137 2.3561 -2.4976 0.9776
4.2362 2.8248 -2.4976 0.9776
4.1328 2.9741 -2.4976 0.9776
3.7915 3.3985 -2.4976 0.9776
3.4068 3.7840 -2.4976 0.9776
3.2697 3.9031 -2.4976 0.9776
3.1284 4.0172 -2.4976 0.9776
2.9831 4.1263 -2.4976 0.9776
2.8341 4.2300 -2.4976 0.9776
2.6814 4.3284 -2.4976 0.9776
2.2037 4.5901 -2.4976 0.9776
1.3146 4.1769 -2.1479 0.9807
1.1515 4.1731 -2.1235 0.9809
0.8509 4.2438 -2.1231 0.9809
0.5393 4.2392 -2.0962 0.9811
0.3863 4.2391 -2.0880 0.9812
0.2342 4.2389 -2.0825 0.9813
4.7772 0.5971 -2.4976 0.9785
4.5413 1.5982 -2.4976 0.9785
4.4814 1.7592 -2.4976 0.9785
4.2679 2.2278 -2.4976 0.9785
4.1857 2.3786 -2.4976 0.9785
4.0982 2.5263 -2.4976 0.9785
4.0055 2.6709 -2.4976 0.9785
3.8049 2.9496 -2.4976 0.9785
3.6973 3.0835 -2.4976 0.9785
3.0916 3.6905 -2.4976 0.9785
2.8206 3.9015 -2.4976 0.9785
1.9275 4.4116 -2.4976 0.9785
1.6480 4.1714 -2.3268 0.9800
1.4795 4.1749 -2.2978 0.9802
1.1515 4.1731 -2.2458 0.9807
1.0068 4.2318 -2.2567 0.9806
0.3858 4.2335 -2.2053 0.9810
0.2339 4.2340 -2.1999 0.9811
4.5422 0.4039 -2.4976 0.9794
4.5249 0.5656 -2.4976 0.9794
4.5018 0.7266 -2.4976 0.9794
4.4731 0.8867 -2.4976 0.9794
4.2448 1.6663 -2.4976 0.9794
4.1826 1.8166 -2.4976 0.9794
4.1152 1.9646 -2.4976 0.9794
4.0425 2.1101 -2.4976 0.9794
3.9647 2.2530 -2.4976 0.9794
3.7013 2.6636 -2.4976 0.9794
3.5021 2.9206 -2.4976 0.9794
3.3957 3.0437 -2.4976 0.9794
3.2849 3.1629 -2.4976 0.9794
3.0511 3.3890 -2.4976 0.9794
2.9283 3.4956 -2.4976 0.9794
2.5382 3.7884 -2.4976 0.9794
2.4014 3.8765 -2.4976 0.9794
2.2617 3.9597 -2.4976 0.9794
1.9736 4.1109 -2.4976 0.9794
1.4787 4.1726 -2.4246 0.9800
1.1512 4.1718 -2.3703 0.9805
1.0554 4.4363 -2.4976 0.9794
0.8965 4.4711 -2.4976 0.9794
0.7365 4.5003 -2.4976 0.9794
0.5755 4.5237 -2.4976 0.9794
4.2925 0.5366 -2.4976 0.9802
4.1292 1.2896 -2.4976 0.9802
4.0268 1.5807 -2.4976 0.9802
3.6825 2.2701 -2.4976 0.9802
3.5992 2.4000 -2.4976 0.9802
3.4189 2.6504 -2.4976 0.9802
3.3222 2.7707 -2.4976 0.9802
3.2213 2.8874 -2.4976 0.9802
3.1163 3.0004 -2.4976 0.9802
3.0073 3.1097 -2.4976 0.9802
2.8944 3.2150 -2.4976 0.9802
2.7779 3.3161 -2.4976 0.9802
2.6579 3.4131 -2.4976 0.9802
2.5345 3.5057 -2.4976 0.9802
2.4078 3.5939 -2.4976 0.9802
2.2781 3.6775 -2.4976 0.9802
2.1455 3.7564 -2.4976 0.9802
2.0102 3.8305 -2.4976 0.9802
1.8723 3.8998 -2.4976 0.9802
1.7320 3.9641 -2.4976 0.9802
1.4450 4.0775 -2.4976 0.9802
0.8505 4.2416 -2.4976 0.9802
0.5460 4.2914 -2.4976 0.9802
0.3926 4.3082 -2.4976 0.9802
0.2387 4.3194 -2.4976 0.9802
