ply
format ascii 1.0
element vertex 447
property float32 x
property float32 y
property float32 z
property float32 I
end_header
20.9732 14.4728 4.4932 0.9017
19.4856 14.5096 4.2838 0.9060
30.6746 16.5963 5.3429 0.8684
22.6159 14.4323 4.1100 0.8971
20.9732 14.4728 3.9037 0.9020
18.2367 14.6295 3.5816 0.9097
34.6017 14.1365 4.8674 0.8600
31.4980 14.2131 4.4999 0.8699
30.8888 18.1801 4.6673 0.8654
16.8833 14.5738 2.9044 0.9140
16.1814 15.0184 2.8749 0.9148
34.6017 14.1365 4.0137 0.8604
31.4980 14.2131 3.7107 0.8702
30.8888 18.1801 3.8488 0.8657
22.6159 14.4323 2.8809 0.8977
19.4856 14.5096 2.6088 0.9069
18.1289 14.5430 2.4957 0.9107
16.1814 15.0184 2.3707 0.9150
34.6017 14.1365 3.1642 0.8607
31.4980 14.2131 2.9253 0.8705
30.8095 16.6693 2.9654 0.8688
30.8888 18.1801 3.0341 0.8660
19.4856 14.5096 2.0566 0.9071
18.1289 14.5430 1.9674 0.9109
16.8833 14.5738 1.8880 0.9144
16.1814 15.0184 1.8689 0.9152
31.4980 14.2131 2.1428 0.8707
30.8168 15.2648 2.1326 0.8713
24.2801 14.2904 1.7470 0.8932
20.9732 14.4728 1.5802 0.9029
16.8833 14.5738 1.3830 0.9145
39.5187 14.5074 1.6599 0.8449
34.6017 14.1365 1.4739 0.8610
22.6159 14.4323 1.0579 0.8982
37.8711 12.3738 0.6730 0.8527
34.6017 14.1365 0.6314 0.8611
20.9732 14.4728 0.4304 0.9031
18.2367 14.6295 0.3949 0.9107
16.1814 15.0184 0.3729 0.9155
34.6017 14.1365 -0.2104 0.8611
20.9732 14.4728 -0.1435 0.9031
19.4856 14.5096 -0.1368 0.9074
16.8833 14.5738 -0.1256 0.9146
16.1814 15.0184 -0.1243 0.9155
34.6017 14.1365 -1.0525 0.8611
30.8168 15.2648 -0.9684 0.8714
25.0152 14.7231 -0.8173 0.8903
19.4856 14.5096 -0.6841 0.9074
18.1289 14.5430 -0.6544 0.9112
16.1814 15.0184 -0.6216 0.9154
41.1199 -21.2417 -2.3472 0.8308
45.9745 -17.7651 -2.4996 0.8209
48.4135 -9.2404 -2.4996 0.8209
48.7149 -7.4906 -2.4996 0.8209
48.9532 -5.7309 -2.4996 0.8209
49.1278 -3.9639 -2.4996 0.8209
49.2387 -2.1917 -2.4996 0.8209
49.2857 -0.4167 -2.4996 0.8209
49.1878 3.1326 -2.4996 0.8209
49.0430 4.9024 -2.4996 0.8209
48.8346 6.6658 -2.4996 0.8209
48.5628 8.4205 -2.4996 0.8209
48.2280 10.1643 -2.4996 0.8209
47.8306 11.8949 -2.4996 0.8209
38.7836 12.6719 -2.0692 0.8492
34.6017 14.1365 -1.8956 0.8610
30.8168 15.2648 -1.7441 0.8713
23.5166 13.8411 -1.3839 0.8965
22.6159 14.4323 -1.3606 0.8981
20.9732 14.4728 -1.2923 0.9030
19.4856 14.5096 -1.2321 0.9073
18.1289 14.5430 -1.1787 0.9111
16.8833 14.5738 -1.1311 0.9145
16.1814 15.0184 -1.1196 0.9154
29.4341 -15.2050 -2.4291 0.8756
32.6010 -9.9663 -2.4996 0.8722
33.2339 -7.5933 -2.4996 0.8722
33.4859 -6.3913 -2.4996 0.8722
33.8591 -3.9639 -2.4996 0.8722
34.0774 0.9399 -2.4996 0.8722
34.0215 2.1667 -2.4996 0.8722
33.9213 3.3908 -2.4996 0.8722
33.7771 4.6105 -2.4996 0.8722
30.4288 9.9421 -2.3472 0.8795
28.4445 10.4420 -2.2217 0.8856
28.0499 11.4598 -2.2217 0.8856
27.6190 12.4628 -2.2217 0.8856
27.1521 13.4495 -2.2217 0.8856
23.2973 13.7120 -1.9821 0.8972
20.9732 14.4728 -1.8684 0.9028
19.4856 14.5096 -1.7813 0.9072
18.1289 14.5430 -1.7041 0.9110
23.1318 -11.9494 -2.4996 0.9007
24.2859 -9.3843 -2.4996 0.9007
24.6082 -8.5035 -2.4996 0.9007
24.8984 -7.6116 -2.4996 0.9007
25.1565 -6.7098 -2.4996 0.9007
25.3818 -5.7993 -2.4996 0.9007
25.5743 -4.8812 -2.4996 0.9007
25.7335 -3.9569 -2.4996 0.9007
25.8593 -3.0274 -2.4996 0.9007
26.0350 -0.2201 -2.4996 0.9007
25.9833 1.6548 -2.4996 0.9007
22.9509 8.4253 -2.3472 0.9064
22.2848 10.0558 -2.3472 0.9064
20.3535 11.0122 -2.2217 0.9112
19.9436 11.7382 -2.2217 0.9112
19.0468 13.1435 -2.2217 0.9112
16.8833 14.5738 -2.1412 0.9143
18.6956 -9.6577 -2.4996 0.9187
19.6283 -7.5846 -2.4996 0.9187
19.8888 -6.8727 -2.4996 0.9187
20.3319 -5.4230 -2.4996 0.9187
20.5141 -4.6871 -2.4996 0.9187
20.6696 -3.9451 -2.4996 0.9187
20.7983 -3.1980 -2.4996 0.9187
20.9000 -2.4468 -2.4996 0.9187
20.9746 -1.6924 -2.4996 0.9187
21.0219 -0.9357 -2.4996 0.9187
21.0420 -0.1779 -2.4996 0.9187
21.0002 1.3375 -2.4996 0.9187
20.9383 2.0930 -2.4996 0.9187
20.5904 4.3395 -2.4996 0.9187
20.2246 5.8106 -2.4996 0.9187
18.2064 8.2154 -2.3726 0.9227
17.7066 8.7708 -2.3472 0.9235
17.3791 9.4029 -2.3472 0.9235
15.9963 10.2080 -2.2541 0.9264
15.3940 10.6228 -2.2217 0.9274
14.5892 11.7035 -2.2217 0.9274
14.1582 12.2215 -2.2217 0.9274
15.6735 -8.0966 -2.4996 0.9312
16.2157 -6.9472 -2.4996 0.9312
17.0454 -4.5464 -2.4996 0.9312
17.3284 -3.3074 -2.4996 0.9312
17.4363 -2.6811 -2.4996 0.9312
17.6238 -0.7845 -2.4996 0.9312
17.5538 1.7547 -2.4996 0.9312
17.2620 3.6381 -2.4996 0.9312
16.5606 6.0794 -2.4996 0.9312
16.0800 7.2559 -2.4996 0.9312
15.1606 8.2025 -2.4423 0.9327
13.9645 8.9114 -2.3472 0.9353
13.6345 9.4086 -2.3472 0.9353
12.7675 10.2421 -2.3192 0.9360
11.8696 10.2459 -2.2217 0.9386
13.9469 -5.9752 -2.4996 0.9403
14.1531 -5.4689 -2.4996 0.9403
14.7918 -3.3796 -2.4996 0.9403
14.9039 -2.8446 -2.4996 0.9403
15.0700 -1.7642 -2.4996 0.9403
15.1238 -1.2203 -2.4996 0.9403
15.1579 -0.6747 -2.4996 0.9403
15.0335 2.0520 -2.4996 0.9403
14.9499 2.5922 -2.4996 0.9403
14.8468 3.1290 -2.4996 0.9403
14.5830 4.1898 -2.4996 0.9403
14.4226 4.7124 -2.4996 0.9403
14.2436 5.2288 -2.4996 0.9403
14.0459 5.7385 -2.4996 0.9403
12.7905 8.1622 -2.4996 0.9403
11.8151 -6.1034 -2.4996 0.9473
12.2238 -5.2370 -2.4996 0.9473
12.4045 -4.7933 -2.4996 0.9473
12.5691 -4.3433 -2.4996 0.9473
12.7174 -3.8878 -2.4996 0.9473
12.8492 -3.4272 -2.4996 0.9473
13.2082 -1.5463 -2.4996 0.9473
13.2853 -0.5914 -2.4996 0.9473
12.4838 4.5828 -2.4996 0.9473
12.1215 5.4697 -2.4996 0.9473
11.6962 6.3282 -2.4996 0.9473
11.4607 6.7454 -2.4996 0.9473
10.6662 7.9423 -2.4996 0.9473
10.2203 8.1988 -2.4627 0.9481
9.5193 8.2171 -2.3637 0.9501
10.5061 -5.4272 -2.4996 0.9528
11.1766 -3.8621 -2.4996 0.9528
11.3085 -3.4570 -2.4996 0.9528
11.6877 -1.7971 -2.4996 0.9528
11.8134 -0.5258 -2.4996 0.9528
11.8011 0.7516 -2.4996 0.9528
11.7164 1.5992 -2.4996 0.9528
11.6512 2.0202 -2.4996 0.9528
11.5709 2.4386 -2.4996 0.9528
11.3653 3.2653 -2.4996 0.9528
11.1007 4.0751 -2.4996 0.9528
10.9467 4.4723 -2.4996 0.9528
10.7785 4.8637 -2.4996 0.9528
10.4004 5.6271 -2.4996 0.9528
9.9683 6.3612 -2.4996 0.9528
8.9514 7.7269 -2.4996 0.9528
8.6673 8.0443 -2.4996 0.9528
9.6189 -4.5377 -2.4996 0.9572
9.7761 -4.1883 -2.4996 0.9572
9.9206 -3.8334 -2.4996 0.9572
10.2762 -2.7409 -2.4996 0.9572
10.3683 -2.3689 -2.4996 0.9572
10.5119 -1.6163 -2.4996 0.9572
10.5633 -1.2367 -2.4996 0.9572
10.6010 -0.8554 -2.4996 0.9572
10.6249 -0.4729 -2.4996 0.9572
10.6351 -0.0899 -2.4996 0.9572
10.6140 0.6760 -2.4996 0.9572
10.5827 1.0579 -2.4996 0.9572
10.5377 1.4384 -2.4996 0.9572
10.4791 1.8170 -2.4996 0.9572
10.3211 2.5667 -2.4996 0.9572
10.2220 2.9368 -2.4996 0.9572
10.1095 3.3031 -2.4996 0.9572
9.9840 3.6651 -2.4996 0.9572
9.6942 4.3744 -2.4996 0.9572
9.3541 5.0610 -2.4996 0.9572
9.1658 5.3946 -2.4996 0.9572
8.2960 6.6551 -2.4996 0.9572
8.7312 -4.1189 -2.4996 0.9609
8.8739 -3.8018 -2.4996 0.9609
9.0051 -3.4797 -2.4996 0.9609
9.1245 -3.1530 -2.4996 0.9609
9.2322 -2.8223 -2.4996 0.9609
9.3279 -2.4879 -2.4996 0.9609
9.4114 -2.1503 -2.4996 0.9609
9.4828 -1.8099 -2.4996 0.9609
9.5418 -1.4672 -2.4996 0.9609
9.6444 -0.4293 -2.4996 0.9609
9.5653 1.3056 -2.4996 0.9609
9.5120 1.6493 -2.4996 0.9609
9.1766 2.9983 -2.4996 0.9609
8.7996 3.9707 -2.4996 0.9609
8.3199 4.8968 -2.4996 0.9609
7.5304 6.0409 -2.4996 0.9609
7.0759 6.5674 -2.4996 0.9609
7.8447 -4.0524 -2.4996 0.9640
8.2361 -3.1825 -2.4996 0.9640
8.3453 -2.8838 -2.4996 0.9640
8.7696 -1.0267 -2.4996 0.9640
8.8009 -0.7101 -2.4996 0.9640
8.8292 -0.0747 -2.4996 0.9640
8.8262 0.2434 -2.4996 0.9640
8.8117 0.5612 -2.4996 0.9640
8.5686 2.1309 -2.4996 0.9640
8.4862 2.4382 -2.4996 0.9640
8.2887 3.0428 -2.4996 0.9640
8.0481 3.6316 -2.4996 0.9640
7.9121 3.9192 -2.4996 0.9640
7.4431 4.7498 -2.4996 0.9640
7.2672 5.0148 -2.4996 0.9640
7.0819 5.2733 -2.4996 0.9640
6.8873 5.5250 -2.4996 0.9640
6.6838 5.7695 -2.4996 0.9640
7.2202 -3.7298 -2.4996 0.9666
7.3499 -3.4673 -2.4996 0.9666
7.5804 -2.9292 -2.4996 0.9666
7.6810 -2.6542 -2.4996 0.9666
7.8521 -2.0943 -2.4996 0.9666
7.9825 -1.5236 -2.4996 0.9666
8.0323 -1.2351 -2.4996 0.9666
8.0715 -0.9449 -2.4996 0.9666
8.1003 -0.6536 -2.4996 0.9666
8.0520 1.0991 -2.4996 0.9666
7.9520 1.6759 -2.4996 0.9666
7.7248 2.5239 -2.4996 0.9666
7.5230 3.0735 -2.4996 0.9666
7.1476 3.8671 -2.4996 0.9666
6.8506 4.3717 -2.4996 0.9666
6.6887 4.6156 -2.4996 0.9666
5.9565 5.5283 -2.4996 0.9666
6.9121 -2.9613 -2.4996 0.9688
7.0142 -2.7104 -2.4996 0.9688
7.1912 -2.1984 -2.4996 0.9688
7.2657 -1.9379 -2.4996 0.9688
7.4323 -1.1428 -2.4996 0.9688
7.4953 -0.6048 -2.4996 0.9688
7.5194 -0.0636 -2.4996 0.9688
7.5168 0.2073 -2.4996 0.9688
7.5045 0.4779 -2.4996 0.9688
7.4824 0.7479 -2.4996 0.9688
7.4506 1.0170 -2.4996 0.9688
7.4091 1.2847 -2.4996 0.9688
7.3581 1.5507 -2.4996 0.9688
7.1478 2.3354 -2.4996 0.9688
7.0591 2.5914 -2.4996 0.9688
6.7383 3.3378 -2.4996 0.9688
6.6137 3.5783 -2.4996 0.9688
6.3389 4.0452 -2.4996 0.9688
5.8656 4.7054 -2.4996 0.9688
5.6923 4.9136 -2.4996 0.9688
5.5116 5.1154 -2.4996 0.9688
6.5199 -2.5194 -2.4996 0.9707
6.6844 -2.0434 -2.4996 0.9707
6.8658 -1.3104 -2.4996 0.9707
6.9086 -1.0623 -2.4996 0.9707
6.9671 -0.5621 -2.4996 0.9707
6.9895 -0.0591 -2.4996 0.9707
6.9871 0.1927 -2.4996 0.9707
6.9756 0.4443 -2.4996 0.9707
6.8395 1.4414 -2.4996 0.9707
6.7180 1.9301 -2.4996 0.9707
6.6441 2.1708 -2.4996 0.9707
6.4705 2.6436 -2.4996 0.9707
6.3711 2.8749 -2.4996 0.9707
6.1477 3.3261 -2.4996 0.9707
6.0238 3.5454 -2.4996 0.9707
5.8922 3.7601 -2.4996 0.9707
5.7530 3.9699 -2.4996 0.9707
5.4522 4.3738 -2.4996 0.9707
5.2911 4.5673 -2.4996 0.9707
5.7951 -2.9936 -2.4996 0.9724
6.0842 -2.3510 -2.4996 0.9724
6.1649 -2.1303 -2.4996 0.9724
6.3023 -1.6809 -2.4996 0.9724
6.4070 -1.2229 -2.4996 0.9724
6.5162 -0.2900 -2.4996 0.9724
6.5201 0.1798 -2.4996 0.9724
6.5094 0.4146 -2.4996 0.9724
6.4903 0.6488 -2.4996 0.9724
6.4627 0.8821 -2.4996 0.9724
6.3824 1.3451 -2.4996 0.9724
6.3298 1.5742 -2.4996 0.9724
6.1231 2.2478 -2.4996 0.9724
6.0381 2.4669 -2.4996 0.9724
5.9454 2.6828 -2.4996 0.9724
5.8448 2.8952 -2.4996 0.9724
5.3685 3.7046 -2.4996 0.9724
5.4261 -2.8030 -2.4996 0.9739
5.5236 -2.6057 -2.4996 0.9739
5.6138 -2.4051 -2.4996 0.9739
5.6968 -2.2013 -2.4996 0.9739
5.8405 -1.7855 -2.4996 0.9739
5.9011 -1.5739 -2.4996 0.9739
5.9991 -1.1450 -2.4996 0.9739
6.0364 -0.9282 -2.4996 0.9739
6.1013 -0.2716 -2.4996 0.9739
6.0950 0.3882 -2.4996 0.9739
6.0771 0.6075 -2.4996 0.9739
5.9268 1.4739 -2.4996 0.9739
5.6537 2.3098 -2.4996 0.9739
5.5668 2.5120 -2.4996 0.9739
5.4727 2.7109 -2.4996 0.9739
5.2634 3.0978 -2.4996 0.9739
5.1484 3.2854 -2.4996 0.9739
5.0267 3.4687 -2.4996 0.9739
5.2720 -2.2586 -2.4996 0.9753
5.4848 -1.6767 -2.4996 0.9753
5.6337 -1.0753 -2.4996 0.9753
5.6688 -0.8716 -2.4996 0.9753
5.7168 -0.4613 -2.4996 0.9753
5.7297 -0.2550 -2.4996 0.9753
5.7352 -0.0485 -2.4996 0.9753
5.7238 0.3645 -2.4996 0.9753
5.7070 0.5705 -2.4996 0.9753
5.6511 0.9799 -2.4996 0.9753
5.6121 1.1828 -2.4996 0.9753
5.4518 1.7813 -2.4996 0.9753
5.3841 1.9765 -2.4996 0.9753
5.3094 2.1692 -2.4996 0.9753
5.2278 2.3590 -2.4996 0.9753
4.8348 3.0853 -2.4996 0.9753
4.4738 3.5889 -2.4996 0.9753
4.7977 -2.4784 -2.4996 0.9765
4.8838 -2.3040 -2.4996 0.9765
5.0371 -1.9464 -2.4996 0.9765
5.1641 -1.5787 -2.4996 0.9765
5.2176 -1.3916 -2.4996 0.9765
5.3634 -0.6279 -2.4996 0.9765
5.3947 -0.2401 -2.4996 0.9765
5.3998 -0.0457 -2.4996 0.9765
5.3980 0.1489 -2.4996 0.9765
5.3732 0.5371 -2.4996 0.9765
5.3504 0.7303 -2.4996 0.9765
5.2839 1.1136 -2.4996 0.9765
5.1330 1.6771 -2.4996 0.9765
5.0692 1.8609 -2.4996 0.9765
4.7494 2.5696 -2.4996 0.9765
4.5521 2.9049 -2.4996 0.9765
3.9580 3.6735 -2.4996 0.9765
4.6087 -2.1741 -2.4996 0.9776
4.6840 -2.0067 -2.4996 0.9776
4.8731 -1.4897 -2.4996 0.9776
4.9677 -1.1350 -2.4996 0.9776
5.0054 -0.9554 -2.4996 0.9776
5.0366 -0.7744 -2.4996 0.9776
5.0792 -0.4098 -2.4996 0.9776
5.0907 -0.2266 -2.4996 0.9776
5.0854 0.3239 -2.4996 0.9776
5.0489 0.6892 -2.4996 0.9776
5.0208 0.8706 -2.4996 0.9776
4.9862 1.0509 -2.4996 0.9776
4.8438 1.5826 -2.4996 0.9776
4.5662 2.2618 -2.4996 0.9776
4.0871 3.0434 -2.4996 0.9776
3.8574 3.3297 -2.4996 0.9776
4.2808 -2.2114 -2.4996 0.9785
4.4289 -1.8974 -2.4996 0.9785
4.5540 -1.5736 -2.4996 0.9785
4.6077 -1.4086 -2.4996 0.9785
4.6554 -1.2417 -2.4996 0.9785
4.7328 -0.9033 -2.4996 0.9785
4.8026 -0.3875 -2.4996 0.9785
4.8134 -0.2143 -2.4996 0.9785
4.8180 -0.0407 -2.4996 0.9785
4.8164 0.1328 -2.4996 0.9785
4.7740 0.6516 -2.4996 0.9785
4.6758 1.1628 -2.4996 0.9785
4.5230 1.6604 -2.4996 0.9785
4.4603 1.8223 -2.4996 0.9785
4.3176 2.1387 -2.4996 0.9785
4.2377 2.2928 -2.4996 0.9785
4.1524 2.4439 -2.4996 0.9785
4.0617 2.5919 -2.4996 0.9785
3.9657 2.7365 -2.4996 0.9785
4.0547 -2.0946 -2.4996 0.9794
4.2570 -1.6450 -2.4996 0.9794
4.3135 -1.4905 -2.4996 0.9794
4.3644 -1.3342 -2.4996 0.9794
4.4491 -1.0165 -2.4996 0.9794
4.5490 -0.3670 -2.4996 0.9794
4.5592 -0.2029 -2.4996 0.9794
4.5620 0.1258 -2.4996 0.9794
4.5545 0.2901 -2.4996 0.9794
4.5218 0.6172 -2.4996 0.9794
4.4657 0.9412 -2.4996 0.9794
4.4289 1.1014 -2.4996 0.9794
4.1598 1.8771 -2.4996 0.9794
4.0895 2.0257 -2.4996 0.9794
4.0139 2.1717 -2.4996 0.9794
3.7562 2.5920 -2.4996 0.9794
3.6604 2.7256 -2.4996 0.9794
3.8465 -1.9870 -2.4996 0.9802
4.0920 -1.4140 -2.4996 0.9802
4.1403 -1.2657 -2.4996 0.9802
4.2206 -0.9643 -2.4996 0.9802
4.3000 -0.5034 -2.4996 0.9802
4.3154 -0.3482 -2.4996 0.9802
4.3251 -0.1925 -2.4996 0.9802
4.3292 -0.0366 -2.4996 0.9802
4.3278 0.1194 -2.4996 0.9802
4.3207 0.2752 -2.4996 0.9802
4.3079 0.4306 -2.4996 0.9802
4.2896 0.5855 -2.4996 0.9802
4.1611 1.1955 -2.4996 0.9802
4.1153 1.3446 -2.4996 0.9802
3.8795 1.9217 -2.4996 0.9802
3.6496 2.3290 -2.4996 0.9802
3.3771 2.7091 -2.4996 0.9802
3.2773 2.8290 -2.4996 0.9802
3.1732 2.9452 -2.4996 0.9802
