ply
format ascii 1.0
element vertex 443
property float32 x
property float32 y
property float32 z
property float32 I
end_header
-19.8294 -27.3902 5.9624 0.8717
-0.9527 -18.5945 3.2830 0.9272
-0.2826 -18.5571 3.2725 0.9274
-19.8523 -27.4218 5.1862 0.8720
-19.8491 -27.4174 4.4077 0.8724
-19.8459 -27.4131 3.6341 0.8727
-19.8428 -27.4087 2.8644 0.8730
-19.8303 -27.3915 -0.1904 0.8735
-19.8272 -27.3872 -0.9520 0.8735
-30.2156 -38.7249 -2.4910 0.8214
-19.7779 -27.3191 -1.7104 0.8736
-26.5443 -39.5879 -2.4172 0.8262
-21.7276 -41.4545 -2.3736 0.8291
-20.0389 -41.8248 -2.3520 0.8305
-18.4910 -42.4469 -2.3481 0.8307
-16.3917 -46.5001 -2.5005 0.8208
-13.0075 -47.5579 -2.5005 0.8208
-7.8106 -48.6821 -2.5005 0.8208
2.6293 -46.3201 -2.3529 0.8304
4.2926 -46.1898 -2.3526 0.8304
9.2382 -45.4422 -2.3517 0.8305
-26.7563 -17.7035 -2.3524 0.8793
-25.7159 -19.8125 -2.3803 0.8779
-25.1298 -20.8429 -2.3939 0.8773
-23.2023 -22.2455 -2.3568 0.8790
-22.3664 -23.0437 -2.3546 0.8792
-21.5490 -23.8614 -2.3574 0.8790
-20.6784 -24.6224 -2.3576 0.8790
-19.7271 -25.2827 -2.3513 0.8793
-18.7851 -25.9478 -2.3488 0.8794
-17.9612 -28.9890 -2.5005 0.8722
-15.8313 -30.2049 -2.5005 0.8722
-14.7350 -30.7546 -2.5005 0.8722
-12.4867 -31.7340 -2.5005 0.8722
-11.3375 -32.1624 -2.5005 0.8722
-10.1738 -32.5493 -2.5005 0.8722
-7.8083 -33.1963 -2.5005 0.8722
-6.6095 -33.4556 -2.5005 0.8722
-5.4023 -33.6716 -2.5005 0.8722
-2.9684 -33.9728 -2.5005 0.8722
-0.4885 -32.0843 -2.3528 0.8792
0.6655 -32.0874 -2.3532 0.8792
1.8187 -32.0399 -2.3530 0.8792
6.3911 -31.4375 -2.3522 0.8793
7.5172 -31.1866 -2.3522 0.8793
-21.7208 -14.3717 -2.5005 0.9006
-21.1900 -15.1434 -2.5005 0.9006
-18.7013 -17.9302 -2.4873 0.9011
-18.1399 -18.6892 -2.5005 0.9006
-17.4561 -19.3294 -2.5005 0.9006
-16.7498 -19.9445 -2.5005 0.9006
-16.0218 -20.5339 -2.5005 0.9006
-15.2732 -21.0967 -2.5005 0.9006
-14.5047 -21.6323 -2.5005 0.9006
-12.9125 -22.6188 -2.5005 0.9006
-12.0909 -23.0684 -2.5005 0.9006
-9.5365 -24.2363 -2.5005 0.9006
-8.6589 -24.5635 -2.5005 0.9006
-7.7700 -24.8590 -2.5005 0.9006
-5.0479 -25.5512 -2.5005 0.9006
-4.1259 -25.7161 -2.5005 0.9006
-3.1986 -25.8478 -2.5005 0.9006
-2.1292 -24.3676 -2.3483 0.9064
-0.3732 -24.5064 -2.3530 0.9062
0.5083 -24.5065 -2.3533 0.9062
2.2679 -24.4034 -2.3529 0.9062
4.0156 -24.1759 -2.3528 0.9062
4.8818 -24.0137 -2.3526 0.9062
5.7414 -23.8196 -2.3523 0.9062
-16.6750 -12.8471 -2.5005 0.9187
-16.2023 -13.4384 -2.5005 0.9187
-14.1084 -15.6224 -2.5005 0.9187
-13.5375 -16.1196 -2.5005 0.9187
-12.9491 -16.5959 -2.5005 0.9187
-11.7226 -17.4836 -2.5005 0.9187
-11.0867 -17.8938 -2.5005 0.9187
-9.7721 -18.6443 -2.5005 0.9187
-6.9983 -19.8527 -2.5005 0.9187
-4.0798 -20.6509 -2.5005 0.9187
-3.3346 -20.7843 -2.5005 0.9187
-1.7206 -19.6921 -2.3481 0.9235
-0.3016 -19.8078 -2.3532 0.9233
0.4108 -19.8061 -2.3532 0.9233
1.8328 -19.7216 -2.3527 0.9233
3.9447 -19.4038 -2.3520 0.9233
4.6394 -19.2475 -2.3518 0.9233
-14.7175 -9.7379 -2.5005 0.9312
-14.3578 -10.2608 -2.5005 0.9312
-13.9796 -10.7704 -2.5005 0.9312
-13.5833 -11.2661 -2.5005 0.9312
-13.1694 -11.7473 -2.5005 0.9312
-12.7385 -12.2132 -2.5005 0.9312
-10.3487 -14.2946 -2.5005 0.9312
-9.8280 -14.6575 -2.5005 0.9312
-8.7492 -15.3259 -2.5005 0.9312
-8.1925 -15.6306 -2.5005 0.9312
-5.8670 -16.6436 -2.5005 0.9312
-4.6557 -17.0222 -2.5005 0.9312
-4.0406 -17.1786 -2.5005 0.9312
-3.4203 -17.3128 -2.5005 0.9312
-2.7956 -17.4246 -2.5005 0.9312
-2.1673 -17.5138 -2.5005 0.9312
-0.2523 -16.5699 -2.3481 0.9352
0.3437 -16.5683 -2.3481 0.9352
3.3014 -16.2396 -2.3481 0.9352
3.8832 -16.1104 -2.3481 0.9352
-12.0236 -9.2635 -2.5005 0.9403
-11.6827 -9.6898 -2.5005 0.9403
-11.3268 -10.1036 -2.5005 0.9403
-10.5714 -10.8915 -2.5005 0.9403
-9.7613 -11.6231 -2.5005 0.9403
-9.3371 -11.9666 -2.5005 0.9403
-8.9007 -12.2945 -2.5005 0.9403
-8.4529 -12.6066 -2.5005 0.9403
-7.9942 -12.9024 -2.5005 0.9403
-7.0462 -13.4436 -2.5005 0.9403
-6.5582 -13.6883 -2.5005 0.9403
-5.5575 -14.1242 -2.5005 0.9403
-5.0461 -14.3149 -2.5005 0.9403
-4.5281 -14.4871 -2.5005 0.9403
-4.0042 -14.6405 -2.5005 0.9403
-3.4753 -14.7750 -2.5005 0.9403
-2.9418 -14.8904 -2.5005 0.9403
-2.4045 -14.9866 -2.5005 0.9403
-1.8640 -15.0633 -2.5005 0.9403
-1.3212 -15.1206 -2.5005 0.9403
-0.7766 -15.1583 -2.5005 0.9403
-0.2311 -15.1765 -2.5005 0.9403
0.8602 -15.1538 -2.5005 0.9403
1.9470 -15.0528 -2.5005 0.9403
3.0238 -14.8740 -2.5005 0.9403
-11.0944 -7.3407 -2.5005 0.9473
-10.2394 -8.4927 -2.5005 0.9473
-9.9274 -8.8554 -2.5005 0.9473
-9.6026 -9.2066 -2.5005 0.9473
-9.2653 -9.5459 -2.5005 0.9473
-8.9161 -9.8729 -2.5005 0.9473
-8.5553 -10.1871 -2.5005 0.9473
-7.4086 -11.0492 -2.5005 0.9473
-7.0065 -11.3084 -2.5005 0.9473
-4.8709 -12.3792 -2.5005 0.9473
-4.4227 -12.5463 -2.5005 0.9473
-3.9687 -12.6973 -2.5005 0.9473
-3.5096 -12.8317 -2.5005 0.9473
-2.5783 -13.0508 -2.5005 0.9473
-2.1074 -13.1351 -2.5005 0.9473
-1.1580 -13.2525 -2.5005 0.9473
-0.6807 -13.2856 -2.5005 0.9473
-0.2025 -13.3015 -2.5005 0.9473
0.7539 -13.2817 -2.5005 0.9473
3.1173 -12.9327 -2.5005 0.9473
-9.6241 -6.8779 -2.5005 0.9528
-9.1049 -7.5518 -2.5005 0.9528
-8.2388 -8.4883 -2.5005 0.9528
-7.9283 -8.7791 -2.5005 0.9528
-7.6075 -9.0585 -2.5005 0.9528
-7.2768 -9.3262 -2.5005 0.9528
-6.9368 -9.5818 -2.5005 0.9528
-6.5878 -9.8250 -2.5005 0.9528
-6.2302 -10.0555 -2.5005 0.9528
-5.8646 -10.2730 -2.5005 0.9528
-5.4915 -10.4773 -2.5005 0.9528
-4.3313 -11.0077 -2.5005 0.9528
-3.9327 -11.1563 -2.5005 0.9528
-3.5290 -11.2905 -2.5005 0.9528
-3.1207 -11.4101 -2.5005 0.9528
-2.7084 -11.5149 -2.5005 0.9528
-1.4527 -11.7396 -2.5005 0.9528
-1.0297 -11.7843 -2.5005 0.9528
-0.6053 -11.8137 -2.5005 0.9528
-0.1801 -11.8278 -2.5005 0.9528
0.2453 -11.8266 -2.5005 0.9528
1.9383 -11.6693 -2.5005 0.9528
2.3566 -11.5921 -2.5005 0.9528
2.7719 -11.4998 -2.5005 0.9528
-8.8728 -5.8707 -2.5005 0.9572
-8.4279 -6.4932 -2.5005 0.9572
-8.1890 -6.7921 -2.5005 0.9572
-7.9395 -7.0821 -2.5005 0.9572
-6.5448 -8.3879 -2.5005 0.9572
-6.2389 -8.6179 -2.5005 0.9572
-5.6035 -9.0439 -2.5005 0.9572
-5.2746 -9.2396 -2.5005 0.9572
-4.9390 -9.4233 -2.5005 0.9572
-4.5970 -9.5948 -2.5005 0.9572
-4.2490 -9.7538 -2.5005 0.9572
-3.1740 -10.1547 -2.5005 0.9572
-2.4360 -10.3565 -2.5005 0.9572
-1.6854 -10.5048 -2.5005 0.9572
-0.1620 -10.6379 -2.5005 0.9572
0.6030 -10.6221 -2.5005 0.9572
1.7433 -10.4954 -2.5005 0.9572
2.1196 -10.4259 -2.5005 0.9572
2.4931 -10.3430 -2.5005 0.9572
-7.6501 -5.8940 -2.5005 0.9609
-6.4726 -7.1672 -2.5005 0.9609
-5.9408 -7.6138 -2.5005 0.9609
-5.3783 -8.0211 -2.5005 0.9609
-5.0863 -8.2093 -2.5005 0.9609
-4.7879 -8.3869 -2.5005 0.9609
-4.1728 -8.7093 -2.5005 0.9609
-3.8569 -8.8537 -2.5005 0.9609
-2.8811 -9.2175 -2.5005 0.9609
-2.5478 -9.3152 -2.5005 0.9609
-2.2112 -9.4008 -2.5005 0.9609
-1.8717 -9.4742 -2.5005 0.9609
-1.5299 -9.5354 -2.5005 0.9609
-0.4942 -9.6447 -2.5005 0.9609
0.5473 -9.6418 -2.5005 0.9609
1.9239 -9.4637 -2.5005 0.9609
-7.3662 -4.8739 -2.5005 0.9639
-7.1862 -5.1356 -2.5005 0.9639
-6.7985 -5.6388 -2.5005 0.9639
-6.3757 -6.1128 -2.5005 0.9639
-6.1517 -6.3380 -2.5005 0.9639
-5.9199 -6.5552 -2.5005 0.9639
-5.6804 -6.7638 -2.5005 0.9639
-5.4335 -6.9637 -2.5005 0.9639
-5.1796 -7.1545 -2.5005 0.9639
-4.9190 -7.3361 -2.5005 0.9639
-4.6520 -7.5083 -2.5005 0.9639
-3.5275 -8.0976 -2.5005 0.9639
-3.2341 -8.2192 -2.5005 0.9639
-2.6350 -8.4304 -2.5005 0.9639
-2.3302 -8.5197 -2.5005 0.9639
-2.0224 -8.5980 -2.5005 0.9639
-1.7119 -8.6651 -2.5005 0.9639
-1.0847 -8.7658 -2.5005 0.9639
0.8173 -8.7947 -2.5005 0.9639
1.1330 -8.7596 -2.5005 0.9639
1.4473 -8.7132 -2.5005 0.9639
1.7596 -8.6556 -2.5005 0.9639
2.0697 -8.5867 -2.5005 0.9639
-6.4398 -4.9615 -2.5005 0.9666
-5.4486 -6.0333 -2.5005 0.9666
-4.7672 -6.5850 -2.5005 0.9666
-4.5274 -6.7521 -2.5005 0.9666
-3.7739 -7.2004 -2.5005 0.9666
-3.5126 -7.3314 -2.5005 0.9666
-3.2467 -7.4530 -2.5005 0.9666
-2.7027 -7.6671 -2.5005 0.9666
-2.4253 -7.7593 -2.5005 0.9666
-2.1447 -7.8415 -2.5005 0.9666
-1.5756 -7.9753 -2.5005 0.9666
-1.2878 -8.0268 -2.5005 0.9666
-0.9984 -8.0679 -2.5005 0.9666
-0.4160 -8.1188 -2.5005 0.9666
0.7523 -8.0946 -2.5005 0.9666
1.0428 -8.0623 -2.5005 0.9666
1.3321 -8.0196 -2.5005 0.9666
1.6196 -7.9665 -2.5005 0.9666
1.9050 -7.9031 -2.5005 0.9666
-5.9588 -4.5909 -2.5005 0.9688
-5.7899 -4.8022 -2.5005 0.9688
-5.6135 -5.0073 -2.5005 0.9688
-5.0417 -5.5827 -2.5005 0.9688
-4.8376 -5.7604 -2.5005 0.9688
-4.6274 -5.9306 -2.5005 0.9688
-4.1892 -6.2478 -2.5005 0.9688
-3.9619 -6.3944 -2.5005 0.9688
-3.2503 -6.7838 -2.5005 0.9688
-3.0042 -6.8963 -2.5005 0.9688
-2.7543 -6.9999 -2.5005 0.9688
-2.5008 -7.0944 -2.5005 0.9688
-2.2441 -7.1797 -2.5005 0.9688
-1.1916 -7.4273 -2.5005 0.9688
-0.6548 -7.4937 -2.5005 0.9688
-0.3849 -7.5124 -2.5005 0.9688
0.9650 -7.4601 -2.5005 0.9688
1.7627 -7.3129 -2.5005 0.9688
-5.8313 -3.8583 -2.5005 0.9707
-5.6888 -4.0655 -2.5005 0.9707
-5.2179 -4.6544 -2.5005 0.9707
-5.0472 -4.8391 -2.5005 0.9707
-4.8699 -5.0174 -2.5005 0.9707
-4.4967 -5.3544 -2.5005 0.9707
-3.8940 -5.8075 -2.5005 0.9707
-3.4665 -6.0723 -2.5005 0.9707
-3.0212 -6.3058 -2.5005 0.9707
-2.7925 -6.4103 -2.5005 0.9707
-2.3246 -6.5944 -2.5005 0.9707
-1.8446 -6.7445 -2.5005 0.9707
-1.6009 -6.8064 -2.5005 0.9707
-1.3552 -6.8596 -2.5005 0.9707
-0.8587 -6.9392 -2.5005 0.9707
-0.6086 -6.9656 -2.5005 0.9707
-5.3086 -3.7938 -2.5005 0.9724
-5.0222 -4.1655 -2.5005 0.9724
-4.7099 -4.5157 -2.5005 0.9724
-4.1962 -4.9966 -2.5005 0.9724
-4.0138 -5.1442 -2.5005 0.9724
-3.8263 -5.2852 -2.5005 0.9724
-3.4365 -5.5465 -2.5005 0.9724
-3.0291 -5.7792 -2.5005 0.9724
-2.8193 -5.8844 -2.5005 0.9724
-2.6058 -5.9819 -2.5005 0.9724
-2.3891 -6.0718 -2.5005 0.9724
-2.1692 -6.1537 -2.5005 0.9724
-1.9466 -6.2278 -2.5005 0.9724
-1.2646 -6.4012 -2.5005 0.9724
-0.5680 -6.5001 -2.5005 0.9724
0.1353 -6.5235 -2.5005 0.9724
0.3698 -6.5144 -2.5005 0.9724
0.6038 -6.4969 -2.5005 0.9724
1.0692 -6.4367 -2.5005 0.9724
1.2999 -6.3941 -2.5005 0.9724
1.5290 -6.3432 -2.5005 0.9724
-5.0951 -3.3712 -2.5005 0.9739
-4.9706 -3.5523 -2.5005 0.9739
-4.8397 -3.7287 -2.5005 0.9739
-4.4100 -4.2282 -2.5005 0.9739
-4.2551 -4.3840 -2.5005 0.9739
-3.9290 -4.6785 -2.5005 0.9739
-3.7583 -4.8167 -2.5005 0.9739
-3.0289 -5.3058 -2.5005 0.9739
-2.8362 -5.4112 -2.5005 0.9739
-2.4400 -5.6011 -2.5005 0.9739
-2.0311 -5.7620 -2.5005 0.9739
-1.8226 -5.8313 -2.5005 0.9739
-1.6118 -5.8930 -2.5005 0.9739
-1.3988 -5.9472 -2.5005 0.9739
-1.1841 -5.9936 -2.5005 0.9739
-0.9678 -6.0323 -2.5005 0.9739
-0.7503 -6.0632 -2.5005 0.9739
-0.5318 -6.0863 -2.5005 0.9739
0.7837 -6.0590 -2.5005 0.9739
-4.5449 -3.5016 -2.5005 0.9753
-4.2815 -3.8192 -2.5005 0.9753
-4.1414 -3.9707 -2.5005 0.9753
-3.8454 -4.2580 -2.5005 0.9753
-3.6897 -4.3935 -2.5005 0.9753
-3.1952 -4.7653 -2.5005 0.9753
-3.0218 -4.8771 -2.5005 0.9753
-2.6635 -5.0817 -2.5005 0.9753
-2.2914 -5.2600 -2.5005 0.9753
-1.9074 -5.4110 -2.5005 0.9753
-1.5136 -5.5341 -2.5005 0.9753
-1.3137 -5.5850 -2.5005 0.9753
-1.1120 -5.6286 -2.5005 0.9753
-0.9089 -5.6649 -2.5005 0.9753
-0.0873 -5.7367 -2.5005 0.9753
0.7360 -5.6900 -2.5005 0.9753
-4.5050 -2.9808 -2.5005 0.9765
-4.3949 -3.1408 -2.5005 0.9765
-4.2791 -3.2968 -2.5005 0.9765
-4.0312 -3.5958 -2.5005 0.9765
-3.8992 -3.7385 -2.5005 0.9765
-3.7623 -3.8763 -2.5005 0.9765
-3.3230 -4.2589 -2.5005 0.9765
-3.1677 -4.3756 -2.5005 0.9765
-2.8451 -4.5919 -2.5005 0.9765
-2.3340 -4.8716 -2.5005 0.9765
-1.9779 -5.0267 -2.5005 0.9765
-1.7959 -5.0946 -2.5005 0.9765
-1.6115 -5.1559 -2.5005 0.9765
-1.0470 -5.2995 -2.5005 0.9765
-0.4702 -5.3814 -2.5005 0.9765
-0.2764 -5.3948 -2.5005 0.9765
-0.0822 -5.4013 -2.5005 0.9765
0.1120 -5.4007 -2.5005 0.9765
0.3062 -5.3932 -2.5005 0.9765
0.6929 -5.3573 -2.5005 0.9765
0.8851 -5.3289 -2.5005 0.9765
1.0762 -5.2936 -2.5005 0.9765
1.2658 -5.2515 -2.5005 0.9765
-3.8040 -3.3932 -2.5005 0.9775
-3.6796 -3.5278 -2.5005 0.9775
-3.4165 -3.7831 -2.5005 0.9775
-3.1358 -4.0189 -2.5005 0.9775
-2.9892 -4.1291 -2.5005 0.9775
-2.8388 -4.2339 -2.5005 0.9775
-2.6848 -4.3332 -2.5005 0.9775
-2.3664 -4.5150 -2.5005 0.9775
-2.2025 -4.5971 -2.5005 0.9775
-1.6947 -4.8076 -2.5005 0.9775
-1.3448 -4.9169 -2.5005 0.9775
-1.1671 -4.9621 -2.5005 0.9775
-0.9880 -5.0008 -2.5005 0.9775
-0.6260 -5.0589 -2.5005 0.9775
-0.4437 -5.0782 -2.5005 0.9775
-0.0776 -5.0969 -2.5005 0.9775
0.2889 -5.0893 -2.5005 0.9775
1.0155 -4.9953 -2.5005 0.9775
1.1945 -4.9556 -2.5005 0.9775
-4.0196 -2.6596 -2.5005 0.9785
-3.8181 -2.9416 -2.5005 0.9785
-3.5968 -3.2084 -2.5005 0.9785
-3.2304 -3.5771 -2.5005 0.9785
-2.6842 -4.0033 -2.5005 0.9785
-2.3896 -4.1858 -2.5005 0.9785
-2.2375 -4.2690 -2.5005 0.9785
-2.0826 -4.3467 -2.5005 0.9785
-1.7648 -4.4852 -2.5005 0.9785
-0.7635 -4.7590 -2.5005 0.9785
-0.5919 -4.7834 -2.5005 0.9785
-0.4195 -4.8016 -2.5005 0.9785
-0.2466 -4.8136 -2.5005 0.9785
0.2732 -4.8121 -2.5005 0.9785
0.4460 -4.7992 -2.5005 0.9785
0.6183 -4.7800 -2.5005 0.9785
0.7898 -4.7547 -2.5005 0.9785
1.1294 -4.6857 -2.5005 0.9785
-3.8073 -2.5192 -2.5005 0.9794
-3.7143 -2.6544 -2.5005 0.9794
-3.6165 -2.7863 -2.5005 0.9794
-3.5139 -2.9145 -2.5005 0.9794
-3.2954 -3.1595 -2.5005 0.9794
-2.9360 -3.4960 -2.5005 0.9794
-2.6772 -3.6980 -2.5005 0.9794
-2.2634 -3.9648 -2.5005 0.9794
-2.1194 -4.0436 -2.5005 0.9794
-1.9726 -4.1172 -2.5005 0.9794
-1.8233 -4.1854 -2.5005 0.9794
-1.5178 -4.3056 -2.5005 0.9794
-1.2044 -4.4036 -2.5005 0.9794
-0.8848 -4.4788 -2.5005 0.9794
-0.7232 -4.5077 -2.5005 0.9794
-0.5606 -4.5308 -2.5005 0.9794
0.0947 -4.5643 -2.5005 0.9794
0.7481 -4.5036 -2.5005 0.9794
0.9095 -4.4738 -2.5005 0.9794
-3.5236 -2.5181 -2.5005 0.9802
-3.4308 -2.6432 -2.5005 0.9802
-3.3335 -2.7649 -2.5005 0.9802
-3.2319 -2.8829 -2.5005 0.9802
-3.0164 -3.1077 -2.5005 0.9802
-2.9027 -3.2142 -2.5005 0.9802
-2.7852 -3.3165 -2.5005 0.9802
-2.5397 -3.5081 -2.5005 0.9802
-2.2810 -3.6815 -2.5005 0.9802
-2.0105 -3.8359 -2.5005 0.9802
-1.5858 -4.0302 -2.5005 0.9802
-1.4398 -4.0846 -2.5005 0.9802
-1.2920 -4.1337 -2.5005 0.9802
-1.1426 -4.1775 -2.5005 0.9802
-0.9916 -4.2159 -2.5005 0.9802
-0.8394 -4.2488 -2.5005 0.9802
-0.6861 -4.2762 -2.5005 0.9802
0.0898 -4.3300 -2.5005 0.9802
0.4008 -4.3123 -2.5005 0.9802
0.5556 -4.2951 -2.5005 0.9802
0.7097 -4.2724 -2.5005 0.9802
1.0149 -4.2103 -2.5005 0.9802
