ply
format ascii 1.0
element vertex 579
property float32 x
property float32 y
property float32 z
property float32 I
end_header
-23.7826 41.4290 8.4231 0.8236
-26.6644 39.5463 8.4101 0.8239
-19.9595 27.4154 5.9795 0.8713
-19.9936 25.4786 5.7107 0.8767
-20.0314 23.7141 5.4736 0.8815
-20.0594 20.5413 5.0625 0.8899
-20.0554 19.1080 4.8844 0.8936
-20.0499 15.3384 4.4512 0.9025
-20.0499 14.2226 4.3345 0.9050
-20.0458 12.1490 4.1331 0.9092
-21.8289 10.1886 4.2476 0.9068
-23.5679 9.9820 4.5130 0.9013
-29.3240 9.9957 5.4628 0.8818
-33.2811 10.0208 6.1286 0.8683
-19.9492 34.7511 6.1385 0.8503
-19.9877 29.6439 5.4771 0.8653
-19.9592 27.4150 5.1950 0.8718
-20.0312 23.7138 4.7554 0.8820
-20.0591 20.5410 4.3983 0.8903
-20.0552 19.1077 4.2436 0.8940
-20.0499 15.3384 3.8673 0.9029
-20.0499 14.2226 3.7658 0.9053
-20.2321 11.2854 3.5490 0.9105
-20.7393 10.6067 3.5686 0.9100
-26.2060 10.0012 4.2970 0.8927
-19.9476 34.7484 5.2175 0.8508
-19.9863 29.6419 4.6555 0.8657
-20.0588 20.5407 3.7387 0.8906
-20.0549 19.1075 3.6071 0.8943
-20.0499 15.3384 3.2873 0.9032
-20.0146 13.1394 3.1178 0.9079
-20.2321 11.2854 3.0168 0.9108
-20.7393 10.6067 3.0334 0.9103
-21.8289 10.1886 3.1370 0.9074
-23.5679 9.9820 3.3330 0.9019
-29.3278 9.9970 4.0349 0.8825
-33.2723 10.0182 4.5249 0.8692
-19.8258 45.2493 5.3049 0.8198
-19.8497 41.1961 4.9105 0.8320
-19.9037 37.7630 4.5838 0.8422
-19.9850 29.6400 3.8387 0.8660
-19.9928 25.4776 3.4776 0.8778
-20.0585 20.5404 3.0829 0.8909
-20.0546 19.1072 2.9744 0.8945
-20.0625 17.7799 2.8786 0.8978
-20.0499 15.3384 2.7108 0.9034
-20.0146 13.1394 2.5710 0.9082
-20.2321 11.2854 2.4877 0.9110
-26.2061 10.0012 3.0120 0.8933
-19.8251 45.2477 4.1819 0.8201
-19.8511 41.1989 3.8713 0.8323
-19.9030 37.7616 3.6135 0.8425
-19.9445 34.7429 3.3912 0.8514
-19.9285 31.9864 3.1903 0.8596
-19.9837 29.6380 3.0260 0.8663
-19.9584 27.4139 2.8705 0.8727
-19.9925 25.4772 2.7415 0.8781
-20.0309 22.0492 2.5217 0.8873
-20.0582 20.5401 2.4303 0.8911
-20.0543 19.1070 2.3448 0.8948
-20.0618 17.7793 2.2692 0.8980
-20.7393 10.6067 1.9719 0.9107
-21.8289 10.1886 2.0393 0.9078
-29.3316 9.9983 2.6233 0.8830
-33.2636 10.0155 2.9407 0.8698
-4.0694 45.8966 2.8572 0.8314
-5.7533 45.9758 2.8732 0.8305
-7.4624 46.0804 2.8947 0.8294
-10.9877 46.3703 2.9551 0.8261
-14.7155 46.7783 3.0409 0.8216
-16.6812 47.0318 3.0945 0.8187
-19.8244 45.2463 3.0632 0.8204
-19.8524 41.2017 2.8360 0.8325
-19.9023 37.7603 2.6469 0.8428
-19.9291 31.9874 2.3370 0.8598
-19.9825 29.6361 2.2165 0.8665
-19.9582 27.4136 2.1027 0.8729
-20.0303 23.7127 1.9248 0.8830
-20.0579 20.5398 1.7803 0.8913
-20.0499 15.3384 1.5654 0.9038
-20.0499 14.2226 1.5243 0.9062
-20.0146 13.1394 1.4847 0.9085
-20.0458 12.1490 1.4535 0.9103
-20.2321 11.2854 1.4366 0.9113
-20.7393 10.6067 1.4445 0.9109
-21.8289 10.1886 1.4938 0.9080
-23.5679 9.9820 1.5871 0.9025
-33.2592 10.0142 2.1539 0.8701
-2.0517 39.1359 1.5453 0.8548
-3.5487 40.0240 1.5844 0.8514
-8.0035 40.1823 1.6156 0.8487
-11.1125 40.3531 1.6504 0.8457
-14.3939 40.5829 1.6979 0.8417
-19.3659 40.1920 1.7592 0.8364
-19.9016 37.7590 1.6830 0.8429
-19.9298 31.9884 1.4861 0.8600
-20.0301 23.7125 1.2239 0.8832
-20.0538 19.1064 1.0922 0.8950
-20.0690 16.5332 1.0253 0.9011
-20.0499 14.2226 0.9693 0.9063
-20.2321 11.2854 0.9135 0.9114
-21.8289 10.1886 0.9499 0.9081
-23.5679 9.9820 1.0092 0.9026
-26.2060 10.0012 1.1060 0.8938
-29.3353 9.9996 1.2221 0.8833
-1.8201 34.7192 0.5873 0.8702
-4.4433 35.5072 0.6045 0.8666
-5.7534 35.5275 0.6079 0.8659
-7.0812 35.5521 0.6123 0.8650
-12.6609 35.6969 0.6398 0.8594
-14.1488 35.7460 0.6494 0.8574
-15.6861 35.8011 0.6602 0.8552
-18.5325 35.1616 0.6714 0.8530
-19.9398 34.7349 0.6765 0.8519
-19.9918 25.4763 0.5470 0.8785
-20.0302 22.0485 0.5032 0.8877
-20.0574 20.5393 0.4849 0.8915
-20.0535 19.1062 0.4679 0.8951
-20.0499 14.2226 0.4152 0.9063
-20.0146 13.1394 0.4044 0.9087
-20.0458 12.1490 0.3959 0.9105
-26.2060 10.0012 0.4739 0.8939
-33.2506 10.0116 0.5866 0.8703
-5.1413 31.7478 -0.1811 0.8793
-6.3230 31.7454 -0.1822 0.8786
-8.7398 31.7369 -0.1853 0.8766
-12.5529 31.7139 -0.1920 0.8725
-13.8906 31.7032 -0.1949 0.8707
-15.2697 31.6909 -0.1981 0.8687
-18.1291 31.5806 -0.2050 0.8645
-19.9786 29.6304 -0.2012 0.8668
-19.9574 27.4125 -0.1909 0.8732
-19.9915 25.4759 -0.1823 0.8785
-20.0296 23.7119 -0.1748 0.8832
-20.0300 22.0483 -0.1677 0.8877
-20.0571 20.5390 -0.1616 0.8915
-20.0588 17.7766 -0.1509 0.8983
-20.0499 15.3384 -0.1421 0.9040
-20.0499 14.2226 -0.1384 0.9063
-20.0146 13.1394 -0.1348 0.9087
-21.8289 10.1886 -0.1356 0.9081
-23.5679 9.9820 -0.1441 0.9027
-26.2060 10.0012 -0.1579 0.8939
-29.3390 10.0008 -0.1745 0.8834
-33.2463 10.0104 -0.1955 0.8703
-3.5400 28.2892 -0.8028 0.8922
-4.5783 28.2707 -0.8064 0.8917
-5.6262 28.2467 -0.8110 0.8911
-6.6422 28.0314 -0.8112 0.8911
-7.7607 28.1814 -0.8231 0.8896
-8.8522 28.1396 -0.8306 0.8887
-11.0974 28.0367 -0.8490 0.8863
-15.9260 27.7428 -0.9007 0.8798
-19.9913 25.4756 -0.9118 0.8785
-20.0298 22.0480 -0.8388 0.8876
-20.0568 20.5387 -0.8083 0.8915
-20.0530 19.1057 -0.7799 0.8951
-20.0581 17.7760 -0.7547 0.8983
-20.0668 16.5314 -0.7321 0.9012
-20.0146 13.1394 -0.6742 0.9086
-20.0458 12.1490 -0.6600 0.9105
-20.2321 11.2854 -0.6523 0.9115
-3.1475 25.1523 -1.2855 0.9035
-4.0681 25.1206 -1.2906 0.9031
-4.9954 25.0799 -1.2969 0.9026
-5.9310 25.0302 -1.3045 0.9021
-10.7848 24.6145 -1.3629 0.8980
-16.1111 23.8946 -1.4615 0.8910
-20.0527 19.1054 -1.4046 0.8950
-20.0573 17.7753 -1.3592 0.8982
-20.0661 16.5308 -1.3185 0.9011
-20.0499 14.2226 -1.2467 0.9062
-21.8289 10.1886 -1.2217 0.9080
-29.3427 10.0021 -1.5722 0.8832
-1.1315 21.5829 -1.5847 0.9170
-4.4294 22.2382 -1.6626 0.9131
-7.7633 21.8883 -1.7029 0.9111
-9.4789 21.6342 -1.7318 0.9096
-10.3526 21.4859 -1.7487 0.9088
-11.2384 21.3226 -1.7673 0.9079
-13.0515 20.9485 -1.8097 0.9058
-14.9109 20.4809 -1.8575 0.9034
-15.8651 20.2176 -1.8843 0.9021
-17.8308 19.6275 -1.9443 0.8991
-20.0150 17.7378 -1.9609 0.8983
-20.0458 12.1490 -1.7187 0.9103
-21.8289 10.1886 -1.7663 0.9079
-23.5679 9.9820 -1.8767 0.9024
-26.2060 10.0012 -2.0567 0.8936
-1.0017 19.1071 -1.8369 0.9260
-2.4817 19.8315 -1.9188 0.9228
-3.9279 19.7203 -1.9304 0.9224
-7.5947 19.1874 -1.9811 0.9204
-9.8456 18.6799 -2.0272 0.9186
-12.1440 18.0109 -2.0855 0.9164
-12.9163 17.7412 -2.1068 0.9156
-15.2685 16.8071 -2.1800 0.9128
-17.6225 15.6176 -2.2606 0.9097
-18.2227 13.9406 -2.2027 0.9119
-18.9150 13.4176 -2.2264 0.9110
-19.6162 12.8778 -2.2528 0.9100
-20.0458 12.1490 -2.2504 0.9101
-20.2321 11.2854 -2.2241 0.9111
-20.7393 10.6067 -2.2364 0.9106
-22.8553 8.7225 -2.3486 0.9064
-24.0650 8.2031 -2.4409 0.9029
-24.9444 7.5107 -2.5010 0.9006
-0.8887 16.9523 -2.0165 0.9339
-2.1117 16.8749 -2.0201 0.9338
-6.0653 17.1008 -2.1553 0.9295
-7.3608 16.7999 -2.1787 0.9288
-8.0070 16.6177 -2.1911 0.9284
-8.6539 16.4190 -2.2047 0.9280
-10.5995 15.7203 -2.2522 0.9265
-11.2464 15.4476 -2.2697 0.9259
-11.8785 15.1372 -2.2856 0.9254
-12.5079 14.8075 -2.3025 0.9249
-13.1346 14.4581 -2.3203 0.9243
-13.7582 14.0887 -2.3392 0.9237
-14.3783 13.6991 -2.3590 0.9231
-15.0046 13.2975 -2.3815 0.9224
-16.1886 12.3844 -2.4212 0.9212
-17.3253 11.3739 -2.4619 0.9199
-18.3853 10.2552 -2.5007 0.9187
-18.8045 9.6172 -2.5089 0.9184
-1.3342 15.0474 -2.1404 0.9408
-1.8770 14.9992 -2.1418 0.9408
-2.5412 15.6918 -2.2523 0.9378
-3.1118 15.6230 -2.2571 0.9377
-3.6823 15.5399 -2.2628 0.9375
-4.2517 15.4393 -2.2690 0.9374
-5.3844 15.1812 -2.2823 0.9370
-7.0714 14.6760 -2.3082 0.9363
-9.2890 13.7766 -2.3543 0.9351
-9.8361 13.5104 -2.3679 0.9347
-10.3798 13.2273 -2.3823 0.9343
-10.9197 12.9272 -2.3977 0.9339
-11.4477 12.6012 -2.4122 0.9335
-11.9396 12.2264 -2.4213 0.9333
-12.4355 11.8481 -2.4337 0.9330
-12.9225 11.4523 -2.4465 0.9326
-13.8675 10.6088 -2.4739 0.9319
-15.4308 8.6072 -2.5035 0.9311
-15.7193 8.0393 -2.5016 0.9312
-15.9990 7.4675 -2.5017 0.9312
-16.4952 6.2952 -2.5016 0.9312
-16.7110 5.6963 -2.5016 0.9312
-16.9052 5.0901 -2.5015 0.9312
-0.7065 13.4776 -2.2233 0.9468
-1.1921 13.4449 -2.2236 0.9468
-2.1602 13.3390 -2.2261 0.9467
-3.7930 13.7736 -2.3535 0.9437
-4.2976 13.6613 -2.3593 0.9436
-5.3015 13.3938 -2.3730 0.9433
-5.8003 13.2383 -2.3810 0.9431
-6.7693 12.8434 -2.3917 0.9428
-7.2788 12.6795 -2.4085 0.9425
-7.7600 12.4553 -2.4175 0.9422
-8.2370 12.2164 -2.4273 0.9420
-10.0305 11.0411 -2.4574 0.9413
-10.4666 10.7181 -2.4679 0.9411
-10.8946 10.3799 -2.4790 0.9408
-11.3138 10.0266 -2.4904 0.9406
-12.3971 8.7940 -2.5039 0.9402
-12.9860 7.8703 -2.5015 0.9403
-13.2614 7.3971 -2.5015 0.9403
-13.5195 6.9143 -2.5016 0.9403
-13.7600 6.4224 -2.5016 0.9403
-13.9824 5.9221 -2.5015 0.9403
-0.2691 5.1331 -0.9662 0.9793
-0.4595 5.1821 -0.9778 0.9790
-0.6556 5.2386 -0.9923 0.9787
-2.5070 12.5868 -2.4123 0.9491
-2.9625 12.5023 -2.4150 0.9490
-3.8688 12.2983 -2.4233 0.9489
-4.7654 12.0396 -2.4338 0.9487
-5.2095 11.8900 -2.4400 0.9485
-6.0861 11.5471 -2.4534 0.9483
-7.3204 10.8571 -2.4612 0.9481
-8.1364 10.3685 -2.4773 0.9478
-8.9258 9.8252 -2.4950 0.9474
-9.3096 9.5333 -2.5046 0.9472
-9.6492 9.1934 -2.5051 0.9472
-10.2745 8.4644 -2.5021 0.9473
-10.8547 7.6999 -2.5015 0.9473
-11.1253 7.3036 -2.5015 0.9473
-12.0597 5.6288 -2.5015 0.9473
-12.7427 3.8368 -2.5013 0.9473
-0.2426 4.6269 -0.9794 0.9812
-0.5833 4.6616 -0.9930 0.9810
-0.7633 4.7135 -1.0093 0.9807
-4.7001 10.7273 -2.4756 0.9532
-5.0776 10.5382 -2.4726 0.9533
-5.4606 10.3605 -2.4756 0.9532
-7.3124 9.3185 -2.5038 0.9527
-7.6426 9.0477 -2.5035 0.9527
-7.9618 8.7641 -2.5029 0.9527
-8.2694 8.4681 -2.5019 0.9528
-8.5679 8.1632 -2.5015 0.9528
-9.1334 7.5243 -2.5014 0.9528
-9.3988 7.1902 -2.5014 0.9528
-9.8925 6.4943 -2.5014 0.9528
-10.1202 6.1335 -2.5014 0.9528
-10.3348 5.7647 -2.5014 0.9528
-10.8966 4.6151 -2.5014 0.9528
-11.2005 3.8179 -2.5013 0.9528
-0.2337 4.4570 -1.0489 0.9818
-0.5577 4.4563 -1.0555 0.9817
-0.7216 4.4560 -1.0609 0.9816
-0.8947 4.4919 -1.0764 0.9814
-1.0799 4.5572 -1.1007 0.9809
-1.2756 4.6322 -1.1292 0.9805
-3.1768 10.0986 -2.4881 0.9574
-3.5365 9.9711 -2.4865 0.9575
-3.8999 9.8529 -2.4905 0.9574
-4.6166 9.5813 -2.4996 0.9572
-5.6311 9.0382 -2.5027 0.9572
-5.9527 8.8286 -2.5025 0.9572
-6.2661 8.6068 -2.5021 0.9572
-7.1564 7.8775 -2.5013 0.9572
-7.9652 7.0590 -2.5013 0.9572
-8.4532 6.4668 -2.5014 0.9572
-8.6808 6.1579 -2.5014 0.9572
-8.8972 5.8409 -2.5014 0.9572
-9.4758 4.8462 -2.5014 0.9572
-9.6443 4.5014 -2.5014 0.9572
-0.2313 4.4120 -1.1439 0.9819
-0.3922 4.4237 -1.1499 0.9818
-0.7162 4.4224 -1.1600 0.9817
-1.4048 4.4655 -1.2121 0.9808
-3.2299 9.1066 -2.5018 0.9609
-3.5561 8.9842 -2.5018 0.9609
-3.8777 8.8503 -2.5018 0.9609
-4.1941 8.7045 -2.5017 0.9609
-4.5050 8.5473 -2.5016 0.9609
-4.8100 8.3790 -2.5015 0.9609
-5.1083 8.1997 -2.5014 0.9609
-5.4006 8.0097 -2.5012 0.9609
-6.2339 7.3800 -2.5013 0.9609
-6.4959 7.1505 -2.5013 0.9609
-6.9943 6.6639 -2.5013 0.9609
-7.4563 6.1427 -2.5013 0.9609
-7.8796 5.5895 -2.5014 0.9609
-8.0760 5.3018 -2.5014 0.9609
-8.2619 5.0073 -2.5014 0.9609
-8.4371 4.7062 -2.5014 0.9609
-8.8956 3.7677 -2.5013 0.9609
-0.3883 4.3787 -1.2445 0.9819
-0.8697 4.3667 -1.2605 0.9817
-1.2031 4.3689 -1.2828 0.9813
-2.9535 8.3274 -2.5013 0.9639
-3.5458 8.0927 -2.5012 0.9639
-3.8351 7.9594 -2.5012 0.9639
-4.1196 7.8160 -2.5012 0.9639
-4.9394 7.3257 -2.5012 0.9639
-5.9412 6.5398 -2.5013 0.9639
-6.1730 6.3214 -2.5013 0.9639
-7.0176 5.3686 -2.5013 0.9639
-7.2067 5.1121 -2.5013 0.9639
-7.3863 4.8490 -2.5013 0.9639
-7.7165 4.3042 -2.5013 0.9639
-7.8665 4.0232 -2.5013 0.9639
-8.1358 3.4459 -2.5013 0.9639
-8.2547 3.1503 -2.5012 0.9639
-8.3628 2.8506 -2.5012 0.9639
-8.4600 2.5473 -2.5012 0.9639
-0.2266 4.3222 -1.3312 0.9821
-1.1915 4.3265 -1.3803 0.9814
-2.7182 7.6639 -2.5011 0.9665
-2.9928 7.5610 -2.5011 0.9665
-3.2634 7.4482 -2.5012 0.9665
-3.7916 7.1938 -2.5012 0.9665
-4.0485 7.0525 -2.5012 0.9665
-4.5462 6.7425 -2.5012 0.9665
-4.7863 6.5742 -2.5012 0.9665
-5.0202 6.3974 -2.5012 0.9665
-5.2476 6.2123 -2.5012 0.9665
-6.0861 5.3937 -2.5013 0.9665
-6.2766 5.1708 -2.5013 0.9665
-6.9547 4.2150 -2.5013 0.9665
-7.1020 3.9615 -2.5013 0.9665
-7.2402 3.7029 -2.5013 0.9665
-7.4880 3.1715 -2.5012 0.9665
-7.5974 2.8995 -2.5012 0.9665
-7.6970 2.6237 -2.5012 0.9665
-0.2245 4.2822 -1.4254 0.9821
-0.3795 4.2806 -1.4285 0.9820
-0.8506 4.2706 -1.4474 0.9818
-1.1766 4.2726 -1.4731 0.9815
-1.3440 4.2724 -1.4888 0.9813
-1.5451 4.3563 -1.5364 0.9807
-2.7692 6.9962 -2.5011 0.9688
-3.0196 6.8919 -2.5012 0.9688
-3.5084 6.6565 -2.5012 0.9688
-3.7461 6.5257 -2.5012 0.9688
-3.9789 6.3864 -2.5012 0.9688
-4.4288 6.0832 -2.5012 0.9688
-4.6452 5.9196 -2.5012 0.9688
-4.8556 5.7483 -2.5012 0.9688
-5.0597 5.5696 -2.5012 0.9688
-5.2572 5.3835 -2.5013 0.9688
-5.4479 5.1906 -2.5013 0.9688
-5.9765 4.5721 -2.5013 0.9688
-6.1375 4.3537 -2.5013 0.9688
-6.4351 3.9001 -2.5013 0.9688
-6.6993 3.4262 -2.5012 0.9688
-6.9287 2.9346 -2.5012 0.9688
-7.0299 2.6829 -2.5012 0.9688
-7.2048 2.1694 -2.5011 0.9688
-0.2232 4.2574 -1.5246 0.9821
-0.3774 4.2563 -1.5281 0.9820
-0.5325 4.2551 -1.5335 0.9819
-1.0058 4.2449 -1.5600 0.9816
-2.5741 6.5032 -2.5011 0.9707
-3.0360 6.3009 -2.5012 0.9707
-3.9101 5.7992 -2.5012 0.9707
-4.3178 5.5024 -2.5012 0.9707
-4.5134 5.3432 -2.5012 0.9707
-4.8867 5.0041 -2.5012 0.9707
-5.0639 4.8247 -2.5012 0.9707
-5.2346 4.6391 -2.5013 0.9707
-5.5553 4.2498 -2.5013 0.9707
-5.8470 3.8385 -2.5013 0.9707
-6.1083 3.4072 -2.5012 0.9707
-6.3379 2.9582 -2.5012 0.9707
-6.6200 2.2566 -2.5011 0.9707
-6.6970 2.0165 -2.5011 0.9707
-0.3766 4.2477 -1.6342 0.9819
-1.0029 4.2325 -1.6669 0.9815
-1.3306 4.2297 -1.6992 0.9812
-1.5125 4.2644 -1.7339 0.9808
-3.0432 5.7738 -2.5012 0.9724
-3.4513 5.5396 -2.5012 0.9724
-3.8415 5.2766 -2.5012 0.9724
-4.0293 5.1347 -2.5012 0.9724
-4.5601 4.6697 -2.5012 0.9724
-4.8848 4.3290 -2.5012 0.9724
-5.0377 4.1501 -2.5013 0.9724
-5.1840 3.9658 -2.5013 0.9724
-5.3236 3.7763 -2.5013 0.9724
-5.4562 3.5820 -2.5012 0.9724
-5.5818 3.3829 -2.5012 0.9724
-5.7000 3.1795 -2.5012 0.9724
-5.9142 2.7604 -2.5012 0.9724
-6.0099 2.5454 -2.5012 0.9724
-6.0977 2.3271 -2.5011 0.9724
-6.1776 2.1058 -2.5011 0.9724
-6.2494 1.8817 -2.5011 0.9724
-0.6854 4.2325 -1.7548 0.9816
-1.5046 4.2421 -1.8421 0.9807
-2.4525 5.5975 -2.5011 0.9739
-2.6527 5.5054 -2.5011 0.9739
-2.8494 5.4062 -2.5012 0.9739
-3.4165 5.0671 -2.5012 0.9739
-3.5969 4.9406 -2.5012 0.9739
-3.7727 4.8077 -2.5012 0.9739
-4.1093 4.5234 -2.5012 0.9739
-4.8539 3.7133 -2.5012 0.9739
-4.9846 3.5359 -2.5012 0.9739
-5.4409 2.7827 -2.5012 0.9739
-5.7842 1.9717 -2.5011 0.9739
-0.3757 4.2369 -1.8538 0.9816
-0.5302 4.2368 -1.8609 0.9815
-0.6854 4.2320 -1.8684 0.9815
-0.8420 4.2271 -1.8785 0.9814
-1.3187 4.1919 -1.9152 0.9810
-1.4967 4.2199 -1.9514 0.9807
-2.1121 5.3361 -2.5011 0.9753
-2.4911 5.1701 -2.5011 0.9753
-2.6759 5.0770 -2.5012 0.9753
-3.7034 4.3843 -2.5012 0.9753
-3.8591 4.2479 -2.5012 0.9753
-4.0097 4.1061 -2.5012 0.9753
-4.1551 3.9589 -2.5012 0.9753
-4.2952 3.8065 -2.5012 0.9753
-4.4296 3.6492 -2.5012 0.9753
-4.6810 3.3205 -2.5012 0.9753
-4.7976 3.1496 -2.5012 0.9753
-4.9080 2.9746 -2.5012 0.9753
-5.2004 2.4273 -2.5011 0.9753
-5.2845 2.2382 -2.5011 0.9753
-0.2222 4.2381 -1.9644 0.9815
-0.3758 4.2383 -1.9695 0.9814
-0.8394 4.2142 -1.9890 0.9812
-1.1496 4.1743 -2.0042 0.9811
-1.3127 4.1729 -2.0249 0.9809
-1.9886 5.0241 -2.5011 0.9765
-2.1684 4.9492 -2.5011 0.9765
-2.3454 4.8678 -2.5011 0.9765
-3.1803 4.3684 -2.5012 0.9765
-3.3358 4.2509 -2.5012 0.9765
-3.4868 4.1279 -2.5012 0.9765
-4.0440 3.5839 -2.5012 0.9765
-4.1705 3.4358 -2.5012 0.9765
-4.4072 3.1263 -2.5012 0.9765
-4.8107 2.4603 -2.5011 0.9765
-4.9754 2.1073 -2.5011 0.9765
-5.0481 1.9266 -2.5011 0.9765
-5.1143 1.7433 -2.5011 0.9765
-5.1737 1.5578 -2.5011 0.9765
-0.3757 4.2371 -2.0865 0.9812
-0.6855 4.2327 -2.1033 0.9811
-0.8308 4.1711 -2.0862 0.9812
-1.3131 4.1742 -2.1465 0.9807
-2.0462 4.6703 -2.5011 0.9775
-2.2133 4.5935 -2.5011 0.9775
-2.3775 4.5107 -2.5011 0.9775
-2.6963 4.3277 -2.5012 0.9775
-3.0011 4.1222 -2.5012 0.9775
-3.1478 4.0114 -2.5012 0.9775
-3.2904 3.8953 -2.5012 0.9775
-3.4287 3.7742 -2.5012 0.9775
-3.5625 3.6481 -2.5012 0.9775
-3.6917 3.5173 -2.5012 0.9775
-3.8161 3.3819 -2.5012 0.9775
-3.9355 3.2422 -2.5012 0.9775
-4.1589 2.9501 -2.5012 0.9775
-4.2625 2.7983 -2.5012 0.9775
-4.4530 2.4839 -2.5011 0.9775
-4.5396 2.3217 -2.5011 0.9775
-4.6203 2.1565 -2.5011 0.9775
-4.7636 1.8180 -2.5011 0.9775
-0.2219 4.2335 -2.1993 0.9811
-2.2479 4.2650 -2.5011 0.9785
-2.4003 4.1812 -2.5011 0.9785
-2.5494 4.0920 -2.5012 0.9785
-2.8377 3.8977 -2.5012 0.9785
-2.9764 3.7929 -2.5012 0.9785
-3.1112 3.6831 -2.5012 0.9785
-3.2419 3.5686 -2.5012 0.9785
-3.3685 3.4494 -2.5012 0.9785
-3.4906 3.3257 -2.5012 0.9785
-3.6082 3.1977 -2.5012 0.9785
-3.8292 2.9294 -2.5012 0.9785
-4.1230 2.4988 -2.5011 0.9785
-4.2104 2.3486 -2.5011 0.9785
-4.2923 2.1952 -2.5011 0.9785
-4.3687 2.0391 -2.5011 0.9785
-4.5042 1.7190 -2.5011 0.9785
-0.2390 4.5602 -2.5011 0.9794
-0.4033 4.5486 -2.5011 0.9794
-0.7300 4.5078 -2.5011 0.9794
-0.8920 4.4785 -2.5011 0.9794
-0.9889 4.1734 -2.3491 0.9806
-1.3125 4.1721 -2.3955 0.9803
-1.5265 4.3039 -2.5011 0.9794
-1.6806 4.2460 -2.5011 0.9794
-1.8326 4.1827 -2.5011 0.9794
-2.5530 3.7863 -2.5012 0.9794
-2.6878 3.6919 -2.5012 0.9794
-2.8191 3.5926 -2.5012 0.9794
-3.0707 3.3801 -2.5012 0.9794
-3.1905 3.2672 -2.5012 0.9794
-3.5246 2.9036 -2.5012 0.9794
-3.6270 2.7747 -2.5011 0.9794
-3.7246 2.6421 -2.5011 0.9794
-4.1379 1.9314 -2.5011 0.9794
-4.2049 1.7809 -2.5011 0.9794
-4.2663 1.6282 -2.5011 0.9794
-4.3222 1.4733 -2.5010 0.9794
-0.3826 4.3151 -2.5011 0.9802
-0.5379 4.2985 -2.5011 0.9802
-0.6925 4.2763 -2.5011 0.9802
-1.1502 4.1766 -2.5011 0.9802
-1.4481 4.0829 -2.5011 0.9802
-1.7385 3.9679 -2.5011 0.9802
-2.0199 3.8324 -2.5011 0.9802
-2.2908 3.6769 -2.5011 0.9802
-2.5498 3.5023 -2.5012 0.9802
-2.6744 3.4081 -2.5012 0.9802
-2.7955 3.3095 -2.5012 0.9802
-3.2421 2.8733 -2.5011 0.9802
-3.3436 2.7545 -2.5011 0.9802
-3.6214 2.3774 -2.5011 0.9802
-3.7047 2.2453 -2.5011 0.9802
-3.8569 1.9725 -2.5011 0.9802
-3.9889 1.6895 -2.5011 0.9802
-4.1002 1.3977 -2.5010 0.9802
-4.1479 1.2489 -2.5010 0.9802
