ply
format ascii 1.0
element vertex 630
property float32 x
property float32 y
property float32 z
property float32 I
end_header
-20.0548 18.8828 4.8570 0.8942
-20.0661 17.5836 4.7044 0.8973
-20.0502 15.1809 4.4344 0.9029
-20.0452 14.0789 4.3192 0.9053
-20.0112 13.0124 4.2089 0.9076
-20.0501 12.0406 4.1239 0.9094
-21.9685 10.1699 4.2686 0.9064
-26.4261 10.0089 4.9827 0.8916
-21.8005 -7.1567 4.0459 0.9110
-20.0316 21.7632 4.5313 0.8872
-20.0738 16.3596 3.9671 0.9005
-20.2578 11.2002 3.5461 0.9106
-20.8028 10.5490 3.5732 0.9099
-33.5085 10.0196 5.3579 0.8680
-20.0314 21.7630 3.8517 0.8875
-20.0581 20.2864 3.7150 0.8913
-20.0542 18.8823 3.5869 0.8948
-20.0646 17.5823 3.4741 0.8980
-20.0731 16.3591 3.3721 0.9008
-20.0502 15.1809 3.2749 0.9035
-18.9204 13.2889 3.0108 0.9110
-20.0112 13.0124 3.1084 0.9082
-20.0501 12.0406 3.0456 0.9100
-20.8028 10.5490 3.0374 0.9102
-21.9685 10.1699 3.1524 0.9070
-29.5427 9.9973 4.0614 0.8818
-20.0308 23.3876 3.3066 0.8835
-20.0312 21.7627 3.1761 0.8878
-20.0502 15.1809 2.7005 0.9038
-20.0452 14.0789 2.6304 0.9062
-20.0112 13.0124 2.5632 0.9084
-26.4261 10.0089 3.0344 0.8925
-33.4997 10.0170 3.7546 0.8688
-38.3882 9.9988 4.2597 0.8525
-20.0309 21.7625 2.5039 0.8880
-20.0537 18.8817 2.3317 0.8953
-20.0631 17.5810 2.2582 0.8984
-20.0502 15.1809 2.1289 0.9040
-20.0452 14.0789 2.0736 0.9063
-20.0112 13.0124 2.0207 0.9086
-20.0501 12.0406 1.9798 0.9104
-20.8029 10.5490 1.9745 0.9106
-21.9685 10.1699 2.0493 0.9074
-23.7231 9.9686 2.1783 0.9019
-29.5465 9.9986 2.6405 0.8823
-33.4953 10.0157 2.9595 0.8691
-45.0204 10.0228 3.9044 0.8310
-43.6863 8.0988 3.7612 0.8366
-20.0304 23.3870 1.9094 0.8839
-20.0573 20.2855 1.7690 0.8920
-20.0535 18.8815 1.7080 0.8955
-20.0624 17.5803 1.6541 0.8986
-20.0709 16.3573 1.6056 0.9014
-20.0112 13.0124 1.4802 0.9088
-20.8028 10.5490 1.4464 0.9108
-21.9685 10.1699 1.5012 0.9075
-23.7231 9.9686 1.5957 0.9020
-26.4261 10.0089 1.7523 0.8929
-29.5484 9.9992 1.9344 0.8825
-33.4909 10.0143 2.1676 0.8693
-38.3994 10.0017 2.4606 0.8530
-45.0174 10.0221 2.8599 0.8312
-20.0301 23.3868 1.2142 0.8840
-20.0570 20.2852 1.1248 0.8921
-20.0616 17.5797 1.0518 0.8987
-20.0702 16.3567 1.0209 0.9015
-20.0502 15.1809 0.9916 0.9042
-20.0452 14.0789 0.9659 0.9066
-20.0112 13.0124 0.9412 0.9089
-20.0501 12.0406 0.9222 0.9106
-20.2578 11.2002 0.9127 0.9115
-20.8029 10.5490 0.9197 0.9109
-23.7231 9.9686 1.0147 0.9021
-29.5503 9.9999 1.2301 0.8826
-20.0299 23.3865 0.5201 0.8841
-20.0303 21.7618 0.4996 0.8884
-20.0609 17.5791 0.4506 0.8988
-20.0695 16.3561 0.4373 0.9016
-20.0502 15.1809 0.4248 0.9043
-20.0112 13.0124 0.4032 0.9089
-20.2577 11.2002 0.3910 0.9116
-21.9685 10.1699 0.4089 0.9077
-26.4261 10.0089 0.4773 0.8931
-29.5521 10.0005 0.5270 0.8827
-33.4821 10.0117 0.5903 0.8695
-20.0564 20.2847 -0.1606 0.8922
-20.0527 18.8807 -0.1551 0.8957
-20.0602 17.5784 -0.1502 0.8988
-20.0688 16.3556 -0.1458 0.9016
-20.0502 15.1809 -0.1416 0.9043
-20.0453 14.0789 -0.1379 0.9067
-20.0112 13.0124 -0.1344 0.9089
-20.2578 11.2002 -0.1303 0.9116
-20.8029 10.5490 -0.1313 0.9109
-23.7231 9.9686 -0.1449 0.9022
-33.4778 10.0104 -0.1967 0.8696
-38.4161 10.0061 -0.2235 0.8532
-20.0299 21.7613 -0.8328 0.8884
-20.0562 20.2844 -0.8032 0.8921
-20.0502 15.1809 -0.7081 0.9043
-20.0452 14.0789 -0.6897 0.9066
-20.0501 12.0406 -0.6585 0.9107
-20.2577 11.2002 -0.6518 0.9115
-20.8029 10.5490 -0.6568 0.9109
-21.9684 10.1699 -0.6817 0.9077
-29.5559 10.0018 -0.8786 0.8826
-19.2006 22.4183 -1.4969 0.8885
-20.0296 21.7611 -1.4999 0.8883
-20.0559 20.2841 -1.4466 0.8920
-20.0521 18.8803 -1.3968 0.8956
-20.0587 17.5771 -1.3526 0.8987
-20.0674 16.3544 -1.3129 0.9015
-20.0452 14.0789 -1.2423 0.9066
-20.0501 12.0406 -1.1861 0.9106
-20.8029 10.5490 -1.1829 0.9108
-23.7231 9.9686 -1.3050 0.9021
-26.4261 10.0089 -1.4331 0.8930
-45.0030 10.0189 -2.3382 0.8314
-45.5430 8.4430 -2.3490 0.8307
-49.1815 3.7477 -2.5014 0.8207
-48.2410 -10.2796 -2.5014 0.8207
-47.8428 -11.9972 -2.5014 0.8207
-47.3834 -13.6996 -2.5014 0.8207
-46.2942 -15.1976 -2.4711 0.8227
-43.4638 -16.0108 -2.3490 0.8307
-42.9116 -17.5737 -2.3517 0.8305
-42.3439 -20.9897 -2.3968 0.8276
-41.5050 -24.4133 -2.4420 0.8246
-40.3857 -27.8194 -2.4870 0.8217
-18.0136 19.5708 -1.9503 0.8988
-19.1924 18.0708 -1.9328 0.8997
-20.0667 16.3538 -1.8981 0.9014
-20.0502 15.1809 -1.8440 0.9041
-20.0501 12.0406 -1.7148 0.9105
-20.2577 11.2002 -1.6972 0.9113
-23.7231 9.9686 -1.8868 0.9019
-29.5596 10.0030 -2.2881 0.8824
-30.6943 9.1781 -2.3490 0.8794
-31.5310 8.2128 -2.3891 0.8775
-33.9027 3.8063 -2.5014 0.8721
-33.9359 -3.4974 -2.5014 0.8721
-33.7893 -4.7081 -2.5014 0.8721
-33.3666 -7.1100 -2.5014 0.8721
-31.0885 -14.0494 -2.5014 0.8721
-30.5665 -15.1516 -2.5014 0.8721
-27.6144 -16.2428 -2.3490 0.8794
-27.0161 -17.2194 -2.3490 0.8794
-14.6311 17.0829 -2.1594 0.9136
-15.4113 16.7436 -2.1847 0.9126
-17.7479 15.5522 -2.2655 0.9095
-18.1906 14.8250 -2.2529 0.9100
-18.3121 13.8649 -2.2051 0.9118
-19.0092 13.3513 -2.2301 0.9109
-19.7037 12.8124 -2.2564 0.9099
-20.0501 12.0406 -2.2453 0.9103
-20.2577 11.2002 -2.2223 0.9112
-20.8029 10.5490 -2.2393 0.9105
-21.9684 10.1699 -2.3241 0.9073
-22.5572 9.4787 -2.3490 0.9064
-22.8816 8.6664 -2.3490 0.9064
-24.9631 7.4644 -2.5014 0.9006
-25.7721 3.8306 -2.5014 0.9006
-25.8926 2.9070 -2.5014 0.9006
-25.9799 1.9797 -2.5014 0.9006
-26.0341 1.0498 -2.5014 0.9006
-26.0550 0.1187 -2.5014 0.9006
-26.0425 -0.8127 -2.5014 0.9006
-25.8059 -3.5958 -2.5014 0.9006
-25.6609 -4.5158 -2.5014 0.9006
-24.7555 -8.1268 -2.5014 0.9006
-23.7433 -10.7300 -2.5014 0.9006
-22.9161 -12.3988 -2.5014 0.9006
-21.4572 -14.7806 -2.5014 0.9006
-13.2495 14.3949 -2.3240 0.9242
-14.4817 13.6354 -2.3627 0.9230
-15.1041 13.2354 -2.3855 0.9223
-15.6979 12.7934 -2.4055 0.9217
-16.8363 11.8251 -2.4439 0.9205
-17.3960 11.3119 -2.4649 0.9198
-18.4388 10.1946 -2.5027 0.9186
-18.8545 9.5610 -2.5111 0.9184
-19.1466 8.8636 -2.5062 0.9185
-19.9528 6.7521 -2.5021 0.9187
-20.1809 6.0344 -2.5021 0.9187
-20.5594 4.5765 -2.5020 0.9187
-20.7093 3.8392 -2.5019 0.9187
-20.8328 3.0965 -2.5018 0.9187
-20.9297 2.3498 -2.5018 0.9187
-20.9997 1.6002 -2.5017 0.9187
-21.0429 0.8486 -2.5016 0.9187
-21.0593 0.0959 -2.5016 0.9187
-21.0112 -1.4087 -2.5014 0.9187
-20.9474 -2.1588 -2.5014 0.9187
-20.8569 -2.9061 -2.5014 0.9187
-20.5959 -4.3887 -2.5014 0.9187
-20.4259 -5.1221 -2.5014 0.9187
-20.2298 -5.8489 -2.5014 0.9187
-19.1898 -8.6722 -2.5014 0.9187
-18.5212 -10.0209 -2.5014 0.9187
-18.1512 -10.6765 -2.5014 0.9187
-17.7580 -11.3185 -2.5014 0.9187
-17.3421 -11.9460 -2.5014 0.9187
-11.0231 12.8703 -2.4010 0.9338
-11.5435 12.5414 -2.4151 0.9335
-12.5179 11.7864 -2.4361 0.9329
-13.4714 10.9789 -2.4624 0.9322
-14.3851 10.1034 -2.4907 0.9314
-14.8255 9.6404 -2.5057 0.9310
-15.7498 7.9866 -2.5021 0.9311
-16.0253 7.4186 -2.5021 0.9311
-16.2801 6.8410 -2.5021 0.9311
-16.5139 6.2547 -2.5021 0.9311
-16.9179 5.0587 -2.5020 0.9311
-17.0876 4.4508 -2.5019 0.9311
-17.2354 3.8371 -2.5019 0.9312
-17.4647 2.5959 -2.5017 0.9312
-17.5459 1.9699 -2.5017 0.9312
-17.6048 1.3415 -2.5016 0.9312
-17.6411 0.7114 -2.5016 0.9312
-17.6549 0.0804 -2.5015 0.9312
-17.6148 -1.1810 -2.5014 0.9312
-17.5614 -1.8099 -2.5014 0.9312
-17.3872 -3.0598 -2.5014 0.9312
-16.9597 -4.9034 -2.5014 0.9312
-16.3374 -6.6907 -2.5014 0.9312
-16.0878 -7.2704 -2.5014 0.9312
-15.8177 -7.8408 -2.5014 0.9312
-14.8875 -9.4889 -2.5014 0.9312
-9.6727 11.2936 -2.4496 0.9415
-10.1115 10.9856 -2.4597 0.9413
-10.5426 10.6626 -2.4702 0.9410
-10.9656 10.3248 -2.4812 0.9408
-11.3799 9.9720 -2.4927 0.9405
-11.7851 9.6046 -2.5046 0.9402
-12.4396 8.7371 -2.5043 0.9402
-13.0202 7.8190 -2.5020 0.9403
-13.2914 7.3486 -2.5020 0.9403
-13.7826 6.3804 -2.5020 0.9403
-14.0016 5.8836 -2.5020 0.9403
-14.2028 5.3793 -2.5020 0.9403
-14.8233 3.3001 -2.5018 0.9403
-14.9316 2.7681 -2.5017 0.9403
-15.1413 1.1538 -2.5016 0.9403
-15.1769 -0.4736 -2.5015 0.9403
-15.1502 -1.0158 -2.5014 0.9403
-14.9544 -2.6317 -2.5014 0.9403
-14.4267 -4.7360 -2.5014 0.9403
-14.2482 -5.2486 -2.5014 0.9403
-14.0515 -5.7546 -2.5014 0.9403
-8.6106 10.0536 -2.4880 0.9476
-9.3724 9.4791 -2.5056 0.9472
-10.3212 8.4115 -2.5026 0.9473
-10.8925 7.6505 -2.5019 0.9473
-11.1591 7.2563 -2.5019 0.9473
-11.8719 6.0202 -2.5020 0.9473
-12.6080 4.2666 -2.5018 0.9473
-12.7523 3.8132 -2.5018 0.9473
-12.9917 2.8923 -2.5017 0.9473
-13.1647 1.9567 -2.5016 0.9473
-13.2785 -0.8903 -2.5014 0.9473
-13.2381 -1.3643 -2.5014 0.9473
-13.1809 -1.8366 -2.5014 0.9473
-13.1069 -2.3066 -2.5014 0.9473
-13.0161 -2.7735 -2.5014 0.9473
-12.9086 -3.2370 -2.5014 0.9473
-12.4879 -4.6002 -2.5014 0.9473
-12.3155 -5.0436 -2.5014 0.9473
-11.9238 -5.9105 -2.5014 0.9473
-11.7049 -6.3329 -2.5014 0.9473
-11.2225 -7.1530 -2.5014 0.9473
-7.7056 8.9969 -2.5039 0.9527
-8.0197 8.7130 -2.5032 0.9527
-8.3234 8.4182 -2.5024 0.9528
-8.6170 8.1134 -2.5018 0.9528
-8.9016 7.8003 -2.5018 0.9528
-9.1748 7.4772 -2.5018 0.9528
-9.4362 7.1445 -2.5019 0.9528
-9.6856 6.8028 -2.5019 0.9528
-9.9226 6.4522 -2.5019 0.9528
-10.1469 6.0935 -2.5019 0.9528
-10.3583 5.7269 -2.5019 0.9528
-10.5564 5.3531 -2.5019 0.9528
-11.2109 3.7938 -2.5018 0.9528
-11.3392 3.3906 -2.5017 0.9528
-11.6365 2.1572 -2.5016 0.9528
-11.7060 1.7399 -2.5016 0.9528
-11.8245 0.4768 -2.5015 0.9528
-11.8338 0.0539 -2.5015 0.9528
-11.8281 -0.3691 -2.5014 0.9528
-11.8073 -0.7916 -2.5014 0.9528
-11.7715 -1.2132 -2.5014 0.9528
-11.7206 -1.6331 -2.5014 0.9528
-11.5740 -2.4663 -2.5014 0.9528
-11.3682 -3.2868 -2.5014 0.9528
-11.1044 -4.0905 -2.5014 0.9528
-10.7838 -4.8734 -2.5014 0.9528
-10.2001 -5.9997 -2.5014 0.9528
-9.7454 -6.7131 -2.5014 0.9528
-6.9243 8.0847 -2.5017 0.9572
-7.4843 7.5695 -2.5018 0.9572
-7.7501 7.2972 -2.5018 0.9572
-8.2517 6.7249 -2.5018 0.9572
-8.4868 6.4257 -2.5018 0.9572
-8.9242 5.8031 -2.5018 0.9572
-9.3161 5.1507 -2.5019 0.9572
-9.6601 4.4720 -2.5018 0.9572
-10.1983 3.0495 -2.5017 0.9572
-10.3007 2.6830 -2.5017 0.9572
-10.3898 2.3131 -2.5016 0.9572
-10.4657 1.9402 -2.5016 0.9572
-10.5773 1.1876 -2.5015 0.9572
-10.6129 0.8087 -2.5015 0.9572
-10.6349 0.4289 -2.5015 0.9572
-10.6382 -0.3320 -2.5014 0.9572
-10.6195 -0.7120 -2.5014 0.9572
-10.5873 -1.0911 -2.5014 0.9572
-10.5415 -1.4688 -2.5014 0.9572
-10.4096 -2.2182 -2.5014 0.9572
-10.2246 -2.9562 -2.5014 0.9572
-10.1124 -3.3197 -2.5014 0.9572
-9.9873 -3.6790 -2.5014 0.9572
-9.8494 -4.0337 -2.5014 0.9572
-9.6989 -4.3831 -2.5014 0.9572
-9.5360 -4.7270 -2.5014 0.9572
-9.3610 -5.0648 -2.5014 0.9572
-9.1740 -5.3962 -2.5014 0.9572
-8.7651 -6.0378 -2.5014 0.9572
-6.2853 7.3386 -2.5017 0.9609
-6.5436 7.1093 -2.5017 0.9609
-6.7935 6.8709 -2.5018 0.9609
-7.4901 6.1042 -2.5018 0.9609
-7.7035 5.8327 -2.5018 0.9609
-8.4562 4.6753 -2.5018 0.9609
-8.6178 4.3700 -2.5018 0.9609
-8.7684 4.0592 -2.5018 0.9609
-9.0358 3.4223 -2.5017 0.9609
-9.1522 3.0971 -2.5017 0.9609
-9.3499 2.4353 -2.5016 0.9609
-9.4309 2.0996 -2.5016 0.9609
-9.4998 1.7611 -2.5016 0.9609
-9.6011 1.0779 -2.5015 0.9609
-9.6334 0.7341 -2.5015 0.9609
-9.6534 0.3893 -2.5015 0.9609
-9.6610 0.0440 -2.5014 0.9609
-9.6564 -0.3013 -2.5014 0.9609
-9.6395 -0.6463 -2.5014 0.9609
-9.6102 -0.9904 -2.5014 0.9609
-9.5687 -1.3333 -2.5014 0.9609
-9.5149 -1.6744 -2.5014 0.9609
-9.3710 -2.3499 -2.5014 0.9609
-9.2810 -2.6833 -2.5014 0.9609
-9.0656 -3.3395 -2.5014 0.9609
-8.8039 -3.9786 -2.5014 0.9609
-8.6560 -4.2908 -2.5014 0.9609
-8.1470 -5.1927 -2.5014 0.9609
-5.7485 6.7118 -2.5017 0.9639
-6.6464 5.8242 -2.5018 0.9639
-6.8504 5.5829 -2.5018 0.9639
-7.0456 5.3345 -2.5018 0.9639
-7.2318 5.0793 -2.5018 0.9639
-7.7339 4.2760 -2.5018 0.9639
-8.1470 3.4234 -2.5017 0.9639
-8.3706 2.8326 -2.5017 0.9639
-8.4664 2.5316 -2.5016 0.9639
-8.5514 2.2274 -2.5016 0.9639
-8.6254 1.9203 -2.5016 0.9639
-8.6885 1.6107 -2.5016 0.9639
-8.8107 0.6714 -2.5015 0.9639
-8.8163 -0.5911 -2.5014 0.9639
-8.7515 -1.2194 -2.5014 0.9639
-8.6421 -1.8415 -2.5014 0.9639
-8.5707 -2.1492 -2.5014 0.9639
-8.4884 -2.4542 -2.5014 0.9639
-8.3953 -2.7560 -2.5014 0.9639
-8.2914 -3.0543 -2.5014 0.9639
-8.0520 -3.6388 -2.5014 0.9639
-7.6162 -4.4799 -2.5014 0.9639
-7.4512 -4.7492 -2.5014 0.9639
-5.7187 5.7838 -2.5017 0.9665
-5.9218 5.5757 -2.5017 0.9665
-6.1173 5.3605 -2.5017 0.9665
-6.8189 4.4340 -2.5018 0.9665
-6.9730 4.1875 -2.5018 0.9665
-7.6061 2.8808 -2.5017 0.9665
-7.7041 2.6071 -2.5016 0.9665
-7.7923 2.3300 -2.5016 0.9665
-7.8705 2.0500 -2.5016 0.9665
-7.9967 1.4825 -2.5015 0.9665
-8.1326 0.0370 -2.5014 0.9665
-8.1287 -0.2537 -2.5014 0.9665
-8.0898 -0.8337 -2.5014 0.9665
-8.0548 -1.1223 -2.5014 0.9665
-7.9541 -1.6949 -2.5014 0.9665
-7.6314 -2.8112 -2.5014 0.9665
-7.2866 -3.6119 -2.5014 0.9665
-7.0099 -4.1232 -2.5014 0.9665
-6.8581 -4.3712 -2.5014 0.9665
-6.6975 -4.6135 -2.5014 0.9665
-5.2915 5.3517 -2.5017 0.9688
-5.4794 5.1592 -2.5017 0.9688
-5.6604 4.9601 -2.5017 0.9688
-5.8340 4.7546 -2.5017 0.9688
-6.0003 4.5431 -2.5017 0.9688
-6.1589 4.3257 -2.5017 0.9688
-6.3095 4.1028 -2.5017 0.9688
-6.4521 3.8746 -2.5017 0.9688
-6.5864 3.6415 -2.5017 0.9688
-7.0379 2.6656 -2.5016 0.9688
-7.3457 1.6354 -2.5015 0.9688
-7.5035 0.5718 -2.5015 0.9688
-7.5191 0.3032 -2.5014 0.9688
-7.5252 0.0343 -2.5014 0.9688
-7.5216 -0.2347 -2.5014 0.9688
-7.5084 -0.5034 -2.5014 0.9688
-7.4533 -1.0385 -2.5014 0.9688
-7.4114 -1.3043 -2.5014 0.9688
-7.2992 -1.8304 -2.5014 0.9688
-7.2292 -2.0901 -2.5014 0.9688
-6.9639 -2.8519 -2.5014 0.9688
-6.8575 -3.0990 -2.5014 0.9688
-6.7423 -3.3421 -2.5014 0.9688
-6.1972 -4.2689 -2.5014 0.9688
-4.5506 5.3132 -2.5017 0.9707
-5.4229 4.4195 -2.5017 0.9707
-5.5774 4.2229 -2.5017 0.9707
-5.7248 4.0209 -2.5017 0.9707
-5.8648 3.8136 -2.5017 0.9707
-5.9973 3.6016 -2.5017 0.9707
-6.3482 2.9388 -2.5016 0.9707
-6.5419 2.4778 -2.5016 0.9707
-6.7021 2.0040 -2.5016 0.9707
-6.7694 1.7632 -2.5015 0.9707
-6.8280 1.5201 -2.5015 0.9707
-6.8779 1.2751 -2.5015 0.9707
-6.9190 1.0284 -2.5015 0.9707
-6.9513 0.7804 -2.5015 0.9707
-6.9747 0.5315 -2.5014 0.9707
-6.9915 -0.2182 -2.5014 0.9707
-6.9280 -0.9653 -2.5014 0.9707
-6.8413 -1.4578 -2.5014 0.9707
-6.7848 -1.7014 -2.5014 0.9707
-6.4731 -2.6510 -2.5014 0.9707
-6.2672 -3.1066 -2.5014 0.9707
-6.1521 -3.3286 -2.5014 0.9707
-5.8986 -3.7596 -2.5014 0.9707
-4.2465 4.9581 -2.5017 0.9724
-4.5899 4.6421 -2.5017 0.9724
-4.7529 4.4751 -2.5017 0.9724
-4.9098 4.3024 -2.5017 0.9724
-5.2046 3.9406 -2.5017 0.9724
-5.3421 3.7521 -2.5017 0.9724
-5.4728 3.5587 -2.5017 0.9724
-5.5965 3.3608 -2.5017 0.9724
-6.1833 2.0925 -2.5016 0.9724
-6.3716 1.4185 -2.5015 0.9724
-6.4182 1.1899 -2.5015 0.9724
-6.4867 0.7283 -2.5015 0.9724
-6.5221 0.2630 -2.5014 0.9724
-6.4930 -0.6692 -2.5014 0.9724
-6.4650 -0.9008 -2.5014 0.9724
-6.4287 -1.1313 -2.5014 0.9724
-6.3841 -1.3604 -2.5014 0.9724
-6.2706 -1.8130 -2.5014 0.9724
-6.2018 -2.0359 -2.5014 0.9724
-6.1251 -2.2563 -2.5014 0.9724
-6.0405 -2.4738 -2.5014 0.9724
-5.6263 -3.3094 -2.5014 0.9724
-3.9761 4.6424 -2.5017 0.9739
-4.1395 4.4974 -2.5017 0.9739
-4.2976 4.3465 -2.5017 0.9739
-4.5972 4.0284 -2.5017 0.9739
-4.7382 3.8616 -2.5017 0.9739
-4.8732 3.6897 -2.5017 0.9739
-5.0020 3.5132 -2.5017 0.9739
-5.2401 3.1468 -2.5016 0.9739
-5.4515 2.7644 -2.5016 0.9739
-5.5467 2.5678 -2.5016 0.9739
-5.7159 2.1649 -2.5016 0.9739
-5.7896 1.9592 -2.5016 0.9739
-5.8559 1.7510 -2.5015 0.9739
-5.9659 1.3282 -2.5015 0.9739
-6.0096 1.1141 -2.5015 0.9739
-6.1069 0.2463 -2.5014 0.9739
-6.0982 -0.4089 -2.5014 0.9739
-6.0534 -0.8435 -2.5014 0.9739
-6.0194 -1.0593 -2.5014 0.9739
-5.9283 -1.4866 -2.5014 0.9739
-5.8714 -1.6975 -2.5014 0.9739
-5.8070 -1.9063 -2.5014 0.9739
-5.7351 -2.1127 -2.5014 0.9739
-5.5695 -2.5170 -2.5014 0.9739
-5.4760 -2.7144 -2.5014 0.9739
-5.2681 -3.0987 -2.5014 0.9739
-5.1540 -3.2850 -2.5014 0.9739
-5.0333 -3.4671 -2.5014 0.9739
-3.7339 4.3597 -2.5017 0.9753
-3.8874 4.2234 -2.5017 0.9753
-4.4496 3.6264 -2.5017 0.9753
-4.9209 2.9552 -2.5016 0.9753
-5.0234 2.7774 -2.5016 0.9753
-5.1194 2.5960 -2.5016 0.9753
-5.4370 1.8399 -2.5015 0.9753
-5.4992 1.6444 -2.5015 0.9753
-5.6436 1.0462 -2.5015 0.9753
-5.6773 0.8438 -2.5015 0.9753
-5.7094 -0.5884 -2.5014 0.9753
-5.6847 -0.7921 -2.5014 0.9753
-5.6136 -1.1962 -2.5014 0.9753
-5.5673 -1.3961 -2.5014 0.9753
-5.5138 -1.5942 -2.5014 0.9753
-5.4533 -1.7902 -2.5014 0.9753
-4.9473 -2.9100 -2.5014 0.9753
-4.8401 -3.0850 -2.5014 0.9753
-3.5156 4.1047 -2.5016 0.9765
-4.4226 3.1062 -2.5016 0.9765
-4.5308 2.9462 -2.5016 0.9765
-4.6331 2.7823 -2.5016 0.9765
-4.7296 2.6149 -2.5016 0.9765
-4.8200 2.4442 -2.5016 0.9765
-5.1190 1.7323 -2.5015 0.9765
-5.2750 1.1743 -2.5015 0.9765
-5.3453 0.7945 -2.5014 0.9765
-5.3996 0.2177 -2.5014 0.9765
-5.4039 0.0246 -2.5014 0.9765
-5.3919 -0.3615 -2.5014 0.9765
-5.3755 -0.5540 -2.5014 0.9765
-5.2853 -1.1262 -2.5014 0.9765
-5.2417 -1.3144 -2.5014 0.9765
-5.1914 -1.5009 -2.5014 0.9765
-5.1344 -1.6855 -2.5014 0.9765
-5.0709 -1.8680 -2.5014 0.9765
-5.0008 -2.0480 -2.5014 0.9765
-4.9245 -2.2255 -2.5014 0.9765
-4.8418 -2.4001 -2.5014 0.9765
-4.7529 -2.5716 -2.5014 0.9765
-4.5571 -2.9046 -2.5014 0.9765
-4.4503 -3.0656 -2.5014 0.9765
-3.3175 3.8734 -2.5016 0.9775
-3.4538 3.7524 -2.5016 0.9775
-3.5858 3.6266 -2.5017 0.9775
-3.7131 3.4961 -2.5017 0.9775
-3.8356 3.3611 -2.5016 0.9775
-3.9533 3.2219 -2.5016 0.9775
-4.0659 3.0785 -2.5016 0.9775
-4.1733 2.9312 -2.5016 0.9775
-4.2754 2.7801 -2.5016 0.9775
-4.3721 2.6255 -2.5016 0.9775
-4.4631 2.4676 -2.5016 0.9775
-4.5484 2.3065 -2.5016 0.9775
-4.7015 1.9756 -2.5015 0.9775
-4.7691 1.8063 -2.5015 0.9775
-4.8306 1.6347 -2.5015 0.9775
-5.0141 0.9295 -2.5015 0.9775
-5.0441 0.7497 -2.5014 0.9775
-5.0677 0.5690 -2.5014 0.9775
-5.0847 0.3875 -2.5014 0.9775
-5.0954 0.2055 -2.5014 0.9775
-5.0970 -0.1591 -2.5014 0.9775
-4.9875 -1.0628 -2.5014 0.9775
-4.8989 -1.4164 -2.5014 0.9775
-4.8451 -1.5906 -2.5014 0.9775
-4.7852 -1.7627 -2.5014 0.9775
-4.6470 -2.1001 -2.5014 0.9775
-4.3955 -2.5854 -2.5014 0.9775
-4.1996 -2.8929 -2.5014 0.9775
-3.1368 3.6625 -2.5016 0.9785
-3.2657 3.5480 -2.5016 0.9785
-3.5108 3.3056 -2.5016 0.9785
-3.6267 3.1780 -2.5016 0.9785
-3.8445 2.9108 -2.5016 0.9785
-4.0425 2.6287 -2.5016 0.9785
-4.2200 2.3332 -2.5016 0.9785
-4.3007 2.1808 -2.5016 0.9785
-4.3758 2.0257 -2.5015 0.9785
-4.4454 1.8680 -2.5015 0.9785
-4.6197 1.3814 -2.5015 0.9785
-4.7694 0.7089 -2.5014 0.9785
-4.8078 0.3664 -2.5014 0.9785
-4.8178 0.1943 -2.5014 0.9785
-4.8217 0.0220 -2.5014 0.9785
-4.8194 -0.1504 -2.5014 0.9785
-4.7964 -0.4943 -2.5014 0.9785
-4.7159 -1.0049 -2.5014 0.9785
-4.6769 -1.1728 -2.5014 0.9785
-4.5245 -1.6667 -2.5014 0.9785
-4.4621 -1.8274 -2.5014 0.9785
-4.3201 -2.1415 -2.5014 0.9785
-4.2408 -2.2945 -2.5014 0.9785
-4.0661 -2.5916 -2.5014 0.9785
-3.2114 3.2479 -2.5016 0.9794
-3.4352 3.0102 -2.5016 0.9794
-3.9971 2.2099 -2.5016 0.9794
-4.0735 2.0657 -2.5015 0.9794
-4.2106 1.7693 -2.5015 0.9794
-4.2712 1.6177 -2.5015 0.9794
-4.3758 1.3084 -2.5015 0.9794
-4.4197 1.1512 -2.5015 0.9794
-4.4580 0.9925 -2.5015 0.9794
-4.4906 0.8325 -2.5014 0.9794
-4.5175 0.6714 -2.5014 0.9794
-4.5539 0.3470 -2.5014 0.9794
-4.5634 0.1840 -2.5014 0.9794
-4.5671 0.0208 -2.5014 0.9794
-4.5569 -0.3055 -2.5014 0.9794
-4.5234 -0.6303 -2.5014 0.9794
-4.4980 -0.7916 -2.5014 0.9794
-4.4668 -0.9518 -2.5014 0.9794
-4.4299 -1.1109 -2.5014 0.9794
-4.2264 -1.7309 -2.5014 0.9794
-4.0168 -2.1733 -2.5014 0.9794
-3.9366 -2.3155 -2.5014 0.9794
-2.8186 3.2909 -2.5016 0.9802
-3.0464 3.0811 -2.5016 0.9802
-3.2587 2.8556 -2.5016 0.9802
-3.7145 2.2307 -2.5015 0.9802
-3.8643 1.9596 -2.5015 0.9802
-3.9944 1.6785 -2.5015 0.9802
-4.0518 1.5346 -2.5015 0.9802
-4.1040 1.3888 -2.5015 0.9802
-4.1510 1.2412 -2.5015 0.9802
-4.2291 0.9415 -2.5014 0.9802
-4.2600 0.7897 -2.5014 0.9802
-4.2855 0.6370 -2.5014 0.9802
-4.3055 0.4834 -2.5014 0.9802
-4.3305 -0.1351 -2.5014 0.9802
-4.3098 -0.4442 -2.5014 0.9802
-4.2670 -0.7509 -2.5014 0.9802
-4.2375 -0.9029 -2.5014 0.9802
-4.0655 -1.4976 -2.5014 0.9802
-3.7345 -2.1966 -2.5014 0.9802
