ply
format ascii 1.0
element vertex 632
property float32 x
property float32 y
property float32 z
property float32 I
end_header
-23.7774 41.6403 8.4550 0.8230
-19.9570 27.5556 5.9993 0.8709
-19.9913 25.6099 5.7286 0.8764
-20.0597 20.6549 5.0769 0.8896
-20.0641 17.8847 4.7393 0.8966
-20.0726 16.6357 4.5969 0.8995
-20.0497 15.4342 4.4615 0.9023
-20.0423 12.2350 4.1405 0.9090
-20.2097 11.3598 4.0879 0.9101
-23.3804 9.9985 4.4837 0.9019
-25.9026 9.9906 4.8953 0.8934
-28.9803 9.9953 5.4054 0.8829
-32.8430 10.0205 6.0546 0.8698
-19.9477 34.9333 6.1626 0.8498
-19.9231 32.1458 5.7937 0.8581
-19.9868 29.7978 5.4966 0.8649
-19.9568 27.5553 5.2121 0.8714
-19.9910 25.6095 4.9770 0.8768
-20.0315 22.1691 4.5772 0.8861
-20.0594 20.6546 4.4108 0.8900
-20.0554 19.2159 4.2550 0.8937
-20.0633 17.8841 4.1174 0.8969
-20.0719 16.6351 3.9937 0.8999
-20.0497 15.4341 3.8762 0.9027
-20.0176 13.2316 3.6760 0.9075
-25.9026 9.9906 4.2531 0.8937
-28.9822 9.9960 4.6966 0.8833
-19.9006 37.9611 5.5814 0.8412
-19.9461 34.9305 5.2380 0.8502
-19.9237 32.1469 4.9250 0.8585
-19.9855 29.7958 4.6720 0.8653
-19.9908 25.6092 4.2306 0.8772
-20.0310 23.8397 4.0548 0.8820
-20.0313 22.1688 3.8908 0.8865
-20.0591 20.6543 3.7493 0.8904
-20.0552 19.2157 3.6169 0.8940
-20.0520 14.3171 3.2085 0.9054
-20.6779 10.6626 3.0296 0.9104
-25.9026 9.9906 3.6153 0.8941
-28.9840 9.9966 3.9925 0.8837
-32.8344 10.0179 4.4703 0.8707
-37.5593 9.9973 5.0613 0.8549
-43.9115 10.0110 5.8649 0.8339
-19.8204 45.4954 5.3289 0.8190
-19.8444 41.4130 4.9312 0.8313
-19.9445 34.9278 4.3190 0.8506
-20.0588 20.6540 3.0917 0.8906
-20.0704 16.6339 2.7992 0.9004
-20.0520 14.3171 2.6457 0.9056
-20.0176 13.2316 2.5767 0.9080
-20.0423 12.2351 2.5215 0.9099
-20.2097 11.3598 2.4895 0.9109
-20.6779 10.6626 2.4983 0.9107
-21.6794 10.2089 2.5732 0.9081
-32.8301 10.0166 3.6858 0.8710
-37.5647 9.9987 4.1742 0.8552
-19.9250 32.1489 3.2018 0.8591
-19.9829 29.7919 3.0368 0.8659
-20.0305 23.8392 2.6359 0.8825
-20.0610 17.8820 2.2750 0.8977
-20.0497 15.4341 2.1419 0.9034
-20.0520 14.3171 2.0857 0.9058
-20.0423 12.2351 1.9878 0.9100
-20.2097 11.3598 1.9626 0.9111
-21.6794 10.2089 2.0285 0.9083
-25.9026 9.9906 2.3502 0.8945
-28.9877 9.9979 2.5957 0.8842
-32.8259 10.0153 2.9053 0.8713
-37.5701 10.0001 3.2911 0.8555
-9.1225 46.2087 2.9207 0.8280
-14.6158 46.7700 3.0385 0.8217
-16.5739 47.0212 3.0916 0.8189
-19.8471 41.4186 2.8480 0.8319
-19.8985 37.9571 2.6576 0.8422
-19.9414 34.9223 2.4937 0.8511
-19.9256 32.1499 2.3455 0.8593
-19.9900 25.6082 2.0145 0.8779
-20.0303 23.8389 1.9308 0.8827
-20.0603 17.8814 1.6664 0.8979
-20.0690 16.6327 1.6163 0.9008
-20.0497 15.4341 1.5690 0.9036
-20.0520 14.3171 1.5278 0.9060
-20.0176 13.2316 1.4880 0.9083
-20.0423 12.2351 1.4561 0.9102
-20.2097 11.3598 1.4376 0.9113
-20.6779 10.6626 1.4427 0.9110
-23.3804 9.9985 1.5769 0.9031
-25.9026 9.9906 1.7216 0.8947
-28.9895 9.9985 1.9016 0.8844
-32.8217 10.0140 2.1279 0.8715
-37.5754 10.0016 2.4112 0.8557
-3.4886 40.0261 1.5843 0.8514
-4.9502 40.0659 1.5919 0.8508
-6.4298 40.1179 1.6021 0.8499
-7.9328 40.1824 1.6150 0.8488
-11.0329 40.3516 1.6495 0.8458
-17.8071 40.8741 1.7580 0.8365
-19.8978 37.9558 1.6898 0.8424
-19.9263 32.1509 1.4915 0.8595
-19.9803 29.7881 1.4143 0.8662
-19.9928 27.6050 1.3440 0.8725
-19.9897 25.6079 1.2810 0.8781
-20.0300 23.8386 1.2277 0.8828
-20.0580 20.6531 1.1352 0.8911
-20.0541 19.2146 1.0951 0.8948
-20.0497 15.4341 0.9977 0.9037
-23.3804 9.9985 1.0027 0.9032
-28.9913 9.9991 1.2092 0.8845
-32.8175 10.0127 1.3529 0.8717
-37.5808 10.0030 1.5334 0.8558
-3.0935 35.4934 0.6018 0.8672
-4.3873 35.5095 0.6044 0.8666
-8.3654 35.5827 0.6174 0.8640
-12.5825 35.6975 0.6394 0.8595
-15.5969 35.8008 0.6596 0.8554
-19.9383 34.9169 0.6792 0.8514
-19.9269 32.1519 0.6390 0.8596
-19.9916 27.6033 0.5758 0.8725
-20.0577 20.6528 0.4863 0.8912
-20.0520 14.3171 0.4162 0.9061
-20.0423 12.2351 0.3966 0.9103
-20.2097 11.3598 0.3916 0.9114
-21.6794 10.2089 0.4048 0.9086
-25.9026 9.9906 0.4690 0.8949
-28.9931 9.9997 0.5181 0.8845
-32.8133 10.0115 0.5795 0.8718
-37.5861 10.0044 0.6570 0.8559
-43.9338 10.0161 0.7612 0.8350
-2.7674 31.7513 -0.1794 0.8803
-5.0888 31.7509 -0.1810 0.8793
-6.2678 31.7487 -0.1822 0.8786
-7.4633 31.7452 -0.1836 0.8777
-8.6784 31.7404 -0.1853 0.8767
-9.9171 31.7342 -0.1872 0.8755
-11.1829 31.7267 -0.1894 0.8741
-12.4802 31.7176 -0.1919 0.8725
-13.8134 31.7071 -0.1947 0.8708
-19.9777 29.7842 -0.2019 0.8664
-19.9903 27.6016 -0.1919 0.8726
-20.0296 23.8381 -0.1753 0.8829
-20.0574 20.6525 -0.1621 0.8912
-20.0536 19.2141 -0.1564 0.8949
-20.0581 17.8794 -0.1513 0.8981
-20.0669 16.6309 -0.1467 0.9010
-20.0423 12.2351 -0.1322 0.9103
-20.2097 11.3598 -0.1305 0.9114
-21.6794 10.2089 -0.1349 0.9086
-23.3804 9.9985 -0.1432 0.9033
-28.9949 10.0004 -0.1727 0.8845
-32.8091 10.0102 -0.1931 0.8718
-3.4957 28.2930 -0.8027 0.8922
-4.5317 28.2749 -0.8063 0.8917
-5.5773 28.2512 -0.8108 0.8912
-6.6349 28.2218 -0.8163 0.8905
-7.7067 28.1865 -0.8228 0.8896
-9.9037 28.0974 -0.8389 0.8876
-11.0343 28.0431 -0.8486 0.8864
-12.1905 27.9817 -0.8594 0.8850
-13.3754 27.9131 -0.8715 0.8835
-17.1392 27.6540 -0.9161 0.8779
-20.0294 23.8379 -0.8767 0.8829
-20.0533 19.2139 -0.7820 0.8948
-20.0573 17.8787 -0.7566 0.8981
-20.0497 15.4341 -0.7125 0.9037
-20.0176 13.2316 -0.6757 0.9084
-20.0423 12.2350 -0.6612 0.9103
-21.6794 10.2089 -0.6747 0.9086
-25.9026 9.9906 -0.7817 0.8949
-28.9967 10.0010 -0.8637 0.8845
-32.8048 10.0089 -0.9657 0.8718
-43.9427 10.0181 -1.2691 0.8350
-5.8859 25.0359 -1.3043 0.9021
-6.8293 24.9775 -1.3132 0.9015
-7.7830 24.9053 -1.3233 0.9008
-9.7303 24.7291 -1.3477 0.8990
-11.7436 24.5076 -1.3782 0.8969
-12.7801 24.3786 -1.3959 0.8956
-13.7479 24.0759 -1.4060 0.8949
-16.0374 23.9097 -1.4601 0.8911
-17.1815 23.7234 -1.4855 0.8893
-18.1617 23.2661 -1.4969 0.8885
-18.8861 22.4773 -1.4889 0.8891
-20.0569 20.6520 -1.4600 0.8911
-20.0530 19.2136 -1.4084 0.8947
-20.0566 17.8781 -1.3626 0.8980
-20.2097 11.3598 -1.1757 0.9113
-21.6794 10.2089 -1.2153 0.9085
-28.9986 10.0016 -1.5557 0.8844
-32.8007 10.0076 -1.7392 0.8717
-37.6021 10.0087 -1.9734 0.8557
-43.9472 10.0191 -2.2859 0.8348
-48.7574 7.4770 -2.5016 0.8207
-48.9949 5.7177 -2.5016 0.8207
-2.7600 22.3390 -1.6504 0.9137
-5.2137 22.1765 -1.6704 0.9127
-6.0416 22.0963 -1.6796 0.9122
-7.7184 21.8977 -1.7024 0.9111
-10.3016 21.4983 -1.7479 0.9088
-12.0820 21.1586 -1.7865 0.9069
-12.9934 20.9648 -1.8085 0.9058
-13.9136 20.7435 -1.8314 0.9047
-14.8481 20.5016 -1.8561 0.9035
-19.9393 17.7735 -1.9585 0.8984
-20.0647 16.6291 -1.9108 0.9008
-20.0497 15.4341 -1.8552 0.9035
-20.0520 14.3171 -1.8066 0.9059
-20.0176 13.2316 -1.7594 0.9082
-20.0423 12.2351 -1.7217 0.9101
-21.6794 10.2089 -1.7570 0.9084
-23.3804 9.9985 -1.8645 0.9030
-25.9026 9.9906 -2.0356 0.8946
-33.2644 7.5837 -2.5016 0.8721
-33.7237 5.1716 -2.5016 0.8721
-34.0083 2.7328 -2.5016 0.8721
-2.4508 19.8365 -1.9189 0.9228
-3.1715 19.7880 -1.9240 0.9226
-4.6202 19.6521 -1.9381 0.9221
-6.0806 19.4576 -1.9571 0.9213
-9.8005 18.6949 -2.0265 0.9187
-13.6419 17.4760 -2.1284 0.9148
-14.4251 17.1680 -2.1528 0.9138
-18.2152 14.0220 -2.2069 0.9118
-18.8592 13.4654 -2.2247 0.9111
-19.5595 12.9288 -2.2510 0.9101
-20.2097 11.3598 -2.2257 0.9110
-20.6779 10.6626 -2.2336 0.9107
-21.6794 10.2089 -2.3005 0.9082
-22.4986 9.6214 -2.3492 0.9064
-22.8303 8.8057 -2.3492 0.9064
-23.7972 8.2077 -2.4167 0.9038
-24.9228 7.6041 -2.5016 0.9006
-2.0853 16.8776 -2.0201 0.9338
-3.4599 17.5254 -2.1220 0.9306
-6.0312 17.1111 -2.1551 0.9295
-7.3247 16.8130 -2.1784 0.9288
-10.5579 15.7406 -2.2514 0.9265
-13.7135 14.1205 -2.3382 0.9238
-14.3330 13.7330 -2.3579 0.9232
-17.2799 11.4220 -2.4605 0.9199
-17.8318 10.8856 -2.4817 0.9193
-18.3460 10.3122 -2.4999 0.9187
-18.7629 9.6752 -2.5076 0.9185
-19.0978 8.9932 -2.5075 0.9185
-20.1483 6.1473 -2.5023 0.9186
-20.3560 5.4182 -2.5022 0.9186
-20.5373 4.6823 -2.5021 0.9187
-20.6919 3.9400 -2.5021 0.9187
-20.9944 1.6870 -2.5019 0.9187
-1.3119 15.0522 -2.1408 0.9408
-1.8539 15.0046 -2.1422 0.9407
-3.0856 15.6294 -2.2573 0.9377
-4.2238 15.4481 -2.2692 0.9373
-7.5969 14.4914 -2.3183 0.9360
-8.7044 14.0446 -2.3412 0.9354
-9.8005 13.5320 -2.3674 0.9347
-10.3435 13.2506 -2.3818 0.9343
-10.8828 12.9522 -2.3970 0.9339
-11.4114 12.6291 -2.4117 0.9335
-12.8868 11.4871 -2.4460 0.9326
-13.8319 10.6477 -2.4733 0.9319
-14.7348 9.7397 -2.5026 0.9311
-15.1091 9.2235 -2.5082 0.9310
-15.4073 8.6604 -2.5043 0.9311
-15.9774 7.5238 -2.5023 0.9311
-16.4768 6.3551 -2.5022 0.9311
-16.6945 5.7580 -2.5022 0.9311
-16.8906 5.1534 -2.5021 0.9311
-17.0647 4.5422 -2.5021 0.9311
-17.2168 3.9251 -2.5020 0.9311
-17.4537 2.6766 -2.5019 0.9311
-2.1387 13.3446 -2.2264 0.9467
-3.2293 13.7358 -2.3245 0.9444
-4.7742 13.5447 -2.3659 0.9434
-5.2745 13.4048 -2.3731 0.9433
-6.7406 12.8581 -2.3917 0.9428
-7.7304 12.4730 -2.4174 0.9422
-9.9999 11.0670 -2.4572 0.9413
-10.4360 10.7456 -2.4677 0.9411
-10.8639 10.4091 -2.4786 0.9408
-11.6933 9.6911 -2.5019 0.9403
-12.3748 8.8356 -2.5049 0.9402
-12.6744 8.3777 -2.5029 0.9403
-12.9638 7.9139 -2.5022 0.9403
-13.2403 7.4423 -2.5022 0.9403
-13.7414 6.4709 -2.5022 0.9403
-14.1708 5.4657 -2.5021 0.9403
-14.3581 4.9521 -2.5021 0.9403
-14.5268 4.4322 -2.5020 0.9403
-14.9190 2.8407 -2.5019 0.9403
-15.0113 2.3020 -2.5019 0.9403
-15.1374 1.2164 -2.5018 0.9403
-0.6470 5.2366 -0.9918 0.9788
-1.9265 12.0200 -2.2881 0.9517
-2.9409 12.5092 -2.4153 0.9490
-3.3945 12.4150 -2.4192 0.9490
-3.8460 12.3070 -2.4235 0.9489
-4.2950 12.1852 -2.4285 0.9488
-4.7414 12.0501 -2.4340 0.9487
-5.1850 11.9015 -2.4401 0.9485
-5.6255 11.7398 -2.4469 0.9484
-6.4862 11.3590 -2.4586 0.9482
-7.2943 10.8749 -2.4613 0.9481
-8.5078 10.1256 -2.4859 0.9476
-9.2827 9.5581 -2.5044 0.9472
-10.2526 8.4971 -2.5029 0.9472
-10.5482 8.1199 -2.5021 0.9473
-10.8336 7.7352 -2.5021 0.9473
-11.3620 6.9360 -2.5021 0.9473
-12.0434 5.6713 -2.5021 0.9473
-12.2395 5.2342 -2.5021 0.9473
-12.4197 4.7903 -2.5020 0.9473
-12.9777 2.9587 -2.5019 0.9473
-13.0755 2.4897 -2.5019 0.9473
-3.4848 11.1513 -2.4696 0.9534
-5.4381 10.3734 -2.4758 0.9532
-6.5742 9.8013 -2.4947 0.9529
-7.2903 9.3393 -2.5044 0.9527
-7.6214 9.0706 -2.5043 0.9527
-7.9409 8.7883 -2.5037 0.9527
-8.2487 8.4935 -2.5027 0.9527
-8.5475 8.1897 -2.5023 0.9528
-9.8745 6.5270 -2.5020 0.9528
-10.1030 6.1675 -2.5021 0.9528
-10.3184 5.8000 -2.5021 0.9528
-10.8832 4.6541 -2.5020 0.9528
-11.1894 3.8592 -2.5019 0.9528
-11.5397 2.6308 -2.5018 0.9528
-11.6267 2.2138 -2.5018 0.9528
-11.7555 1.3719 -2.5017 0.9528
-11.7971 0.9480 -2.5017 0.9528
-0.3886 4.4589 -1.0519 0.9818
-0.5506 4.4566 -1.0554 0.9817
-0.7142 4.4559 -1.0606 0.9816
-4.9451 9.4330 -2.5031 0.9572
-5.6115 9.0542 -2.5035 0.9572
-6.5516 8.3929 -2.5023 0.9572
-6.8486 8.1509 -2.5021 0.9572
-7.1371 7.8986 -2.5019 0.9572
-7.4167 7.6367 -2.5019 0.9572
-7.6867 7.3649 -2.5019 0.9572
-8.6640 6.1861 -2.5020 0.9572
-9.2803 5.2164 -2.5020 0.9572
-9.9323 3.8309 -2.5019 0.9572
-10.0636 3.4709 -2.5019 0.9572
-10.1819 3.1065 -2.5019 0.9572
-10.2869 2.7381 -2.5018 0.9572
-10.3786 2.3661 -2.5018 0.9572
-10.5217 1.6135 -2.5017 0.9572
-10.6102 0.8526 -2.5017 0.9572
-0.7088 4.4226 -1.1597 0.9817
-1.2062 4.4115 -1.1841 0.9813
-3.2128 9.1150 -2.5024 0.9609
-3.5388 8.9936 -2.5024 0.9609
-4.1764 8.7158 -2.5024 0.9609
-4.7920 8.3920 -2.5021 0.9609
-5.0906 8.2137 -2.5020 0.9609
-5.6679 7.8259 -2.5019 0.9609
-5.9458 7.6169 -2.5019 0.9609
-6.2161 7.3981 -2.5019 0.9609
-6.7321 6.9319 -2.5019 0.9609
-6.9772 6.6852 -2.5019 0.9609
-7.4401 6.1661 -2.5019 0.9609
-7.6571 5.8944 -2.5020 0.9609
-7.8643 5.6151 -2.5020 0.9609
-8.0613 5.3285 -2.5020 0.9609
-8.5885 4.4287 -2.5020 0.9609
-8.8846 3.7995 -2.5019 0.9609
-9.1347 3.1506 -2.5019 0.9609
-9.2420 2.8198 -2.5018 0.9609
-9.3374 2.4854 -2.5018 0.9609
-9.4207 2.1478 -2.5018 0.9609
-9.4918 1.8073 -2.5017 0.9609
-9.5970 1.1200 -2.5017 0.9609
-0.3816 4.3786 -1.2442 0.9819
-0.8622 4.3676 -1.2603 0.9817
-1.1945 4.3688 -1.2822 0.9813
-3.5298 8.1022 -2.5019 0.9639
-4.1032 7.8271 -2.5018 0.9639
-4.6556 7.5118 -2.5018 0.9639
-5.4380 6.9664 -2.5019 0.9639
-6.1572 6.3399 -2.5019 0.9639
-6.5973 5.8807 -2.5019 0.9639
-7.5435 4.6050 -2.5020 0.9639
-7.8550 4.0504 -2.5019 0.9639
-8.1258 3.4750 -2.5019 0.9639
-8.6162 1.9643 -2.5018 0.9639
-8.8084 0.7078 -2.5016 0.9639
-0.3771 4.3260 -1.3356 0.9820
-0.5358 4.3365 -1.3440 0.9819
-0.8523 4.3170 -1.3535 0.9818
-1.0152 4.3180 -1.3643 0.9816
-1.1829 4.3264 -1.3796 0.9814
-2.9782 7.5689 -2.5018 0.9665
-3.2486 7.4569 -2.5018 0.9665
-3.7765 7.2040 -2.5018 0.9665
-4.2849 6.9137 -2.5018 0.9665
-4.5310 6.7551 -2.5018 0.9665
-4.7711 6.5877 -2.5018 0.9665
-5.0051 6.4118 -2.5019 0.9665
-5.2326 6.2276 -2.5019 0.9665
-5.4533 6.0353 -2.5019 0.9665
-5.8733 5.6275 -2.5019 0.9665
-6.0720 5.4125 -2.5019 0.9665
-6.4456 4.9618 -2.5019 0.9665
-6.7858 4.4854 -2.5019 0.9665
-6.9428 4.2383 -2.5019 0.9665
-7.2296 3.7279 -2.5019 0.9665
-7.3590 3.4654 -2.5019 0.9665
-7.4788 3.1983 -2.5018 0.9665
-7.9900 1.5214 -2.5017 0.9665
-8.0395 1.2329 -2.5017 0.9665
-8.0786 0.9428 -2.5017 0.9665
-0.3731 4.2809 -1.4284 0.9820
-0.5292 4.2829 -1.4345 0.9820
-0.8432 4.2711 -1.4472 0.9818
-2.7557 7.0036 -2.5018 0.9688
-3.0060 6.8999 -2.5018 0.9688
-3.2523 6.7873 -2.5018 0.9688
-3.4945 6.6659 -2.5018 0.9688
-3.9649 6.3973 -2.5018 0.9688
-4.1925 6.2506 -2.5018 0.9688
-4.4147 6.0957 -2.5018 0.9688
-4.8417 5.7624 -2.5018 0.9688
-5.0460 5.5845 -2.5019 0.9688
-5.4346 5.2071 -2.5019 0.9688
-5.6185 5.0082 -2.5019 0.9688
-6.1255 4.3736 -2.5019 0.9688
-6.2790 4.1504 -2.5019 0.9688
-6.6895 3.4495 -2.5019 0.9688
-6.9202 2.9594 -2.5018 0.9688
-7.1150 2.4540 -2.5018 0.9688
-7.3378 1.6729 -2.5017 0.9688
-7.3932 1.4077 -2.5017 0.9688
-7.4390 1.1408 -2.5017 0.9688
-0.3710 4.2564 -1.5279 0.9820
-0.5258 4.2552 -1.5333 0.9820
-0.6814 4.2516 -1.5398 0.9819
-0.8390 4.2497 -1.5490 0.9818
-0.9981 4.2453 -1.5596 0.9816
-1.1594 4.2404 -1.5721 0.9815
-3.0231 6.3089 -2.5018 0.9707
-3.2482 6.1961 -2.5018 0.9707
-3.4691 6.0752 -2.5018 0.9707
-3.6855 5.9465 -2.5018 0.9707
-3.8970 5.8100 -2.5018 0.9707
-4.3049 5.5148 -2.5018 0.9707
-4.6904 5.1909 -2.5018 0.9707
-4.8742 5.0188 -2.5019 0.9707
-5.0516 4.8401 -2.5019 0.9707
-5.2225 4.6552 -2.5019 0.9707
-5.3867 4.4643 -2.5019 0.9707
-5.8364 3.8578 -2.5019 0.9707
-5.9714 3.6453 -2.5019 0.9707
-6.0987 3.4280 -2.5018 0.9707
-6.3293 2.9805 -2.5018 0.9707
-6.4324 2.7508 -2.5018 0.9707
-6.6135 2.2810 -2.5018 0.9707
-6.9147 1.0604 -2.5017 0.9707
-0.3702 4.2478 -1.6340 0.9819
-0.5247 4.2466 -1.6397 0.9818
-0.9952 4.2330 -1.6664 0.9815
-1.3215 4.2288 -1.6979 0.9812
-1.4998 4.2550 -1.7289 0.9809
-2.8211 5.8873 -2.5018 0.9724
-3.0311 5.7820 -2.5018 0.9724
-3.4392 5.5491 -2.5018 0.9724
-4.0171 5.1462 -2.5018 0.9724
-4.1997 4.9983 -2.5018 0.9724
-4.7140 4.5167 -2.5019 0.9724
-4.8734 4.3441 -2.5019 0.9724
-5.0266 4.1659 -2.5019 0.9724
-5.1733 3.9824 -2.5019 0.9724
-5.3132 3.7936 -2.5019 0.9724
-5.4463 3.6000 -2.5019 0.9724
-5.9063 2.7813 -2.5018 0.9724
-6.0025 2.5669 -2.5018 0.9724
-6.0909 2.3493 -2.5018 0.9724
-6.1715 2.1286 -2.5017 0.9724
-6.3085 1.6792 -2.5017 0.9724
-6.3648 1.4510 -2.5017 0.9724
-6.4128 1.2211 -2.5017 0.9724
-6.4525 0.9895 -2.5016 0.9724
-0.3694 4.2388 -1.7414 0.9818
-0.6784 4.2327 -1.7545 0.9816
-0.8345 4.2272 -1.7635 0.9815
-1.1517 4.2122 -1.7872 0.9813
-1.4919 4.2327 -1.8368 0.9808
-2.2382 5.6881 -2.5017 0.9739
-2.8381 5.4139 -2.5018 0.9739
-3.0311 5.3083 -2.5018 0.9739
-3.2202 5.1958 -2.5018 0.9739
-3.4050 5.0766 -2.5018 0.9739
-3.7614 4.8185 -2.5018 0.9739
-4.0982 4.5355 -2.5018 0.9739
-4.2588 4.3852 -2.5018 0.9739
-4.7066 3.9007 -2.5019 0.9739
-4.8439 3.7288 -2.5019 0.9739
-5.0995 3.3707 -2.5018 0.9739
-5.2174 3.1850 -2.5018 0.9739
-5.4329 2.8015 -2.5018 0.9739
-5.6203 2.4035 -2.5018 0.9739
-5.7031 2.1997 -2.5017 0.9739
-5.8464 1.7838 -2.5017 0.9739
-6.0711 0.7085 -2.5016 0.9739
-6.0926 0.4896 -2.5016 0.9739
-0.3693 4.2369 -1.8535 0.9816
-0.5235 4.2370 -1.8606 0.9815
-0.8346 4.2274 -1.8779 0.9814
-0.9906 4.2137 -1.8865 0.9813
-2.1018 5.3417 -2.5017 0.9753
-2.2927 5.2626 -2.5018 0.9753
-2.4806 5.1767 -2.5018 0.9753
-2.8465 4.9850 -2.5018 0.9753
-3.3671 4.6492 -2.5018 0.9753
-3.5323 4.5251 -2.5018 0.9753
-4.1450 3.9715 -2.5018 0.9753
-4.2852 3.8198 -2.5018 0.9753
-4.4199 3.6631 -2.5018 0.9753
-4.6719 3.3357 -2.5018 0.9753
-4.7889 3.1654 -2.5018 0.9753
-5.0041 2.8128 -2.5018 0.9753
-5.1933 2.4456 -2.5018 0.9753
-5.3557 2.0657 -2.5017 0.9753
-5.6388 1.0737 -2.5016 0.9753
-5.6737 0.8701 -2.5016 0.9753
-0.3694 4.2382 -1.9693 0.9814
-0.5236 4.2377 -1.9765 0.9814
-0.6784 4.2329 -1.9844 0.9813
-1.3041 4.1730 -2.0238 0.9809
-1.4861 4.2161 -2.0692 0.9805
-1.9789 5.0294 -2.5017 0.9765
-2.3355 4.8740 -2.5018 0.9765
-3.0107 4.4886 -2.5018 0.9765
-3.4769 4.1380 -2.5018 0.9765
-3.6235 4.0102 -2.5018 0.9765
-4.1614 3.4489 -2.5018 0.9765
-4.5088 2.9803 -2.5018 0.9765
-4.7114 2.6483 -2.5018 0.9765
-4.8036 2.4770 -2.5017 0.9765
-4.8896 2.3025 -2.5017 0.9765
-4.9693 2.1251 -2.5017 0.9765
-5.0425 1.9449 -2.5017 0.9765
-5.1092 1.7622 -2.5017 0.9765
-5.1693 1.5772 -2.5017 0.9765
-5.3679 0.6264 -2.5016 0.9765
-0.3693 4.2371 -2.0863 0.9812
-0.5235 4.2370 -2.0941 0.9812
-1.6954 4.8101 -2.5017 0.9775
-2.0370 4.6757 -2.5017 0.9775
-2.5290 4.4290 -2.5018 0.9775
-2.8411 4.2357 -2.5018 0.9775
-2.9916 4.1307 -2.5018 0.9775
-3.1383 4.0204 -2.5018 0.9775
-3.2810 3.9049 -2.5018 0.9775
-3.4194 3.7843 -2.5018 0.9775
-3.5533 3.6588 -2.5018 0.9775
-3.9269 3.2545 -2.5018 0.9775
-4.1508 2.9637 -2.5018 0.9775
-4.3531 2.6574 -2.5018 0.9775
-4.4459 2.4990 -2.5017 0.9775
-4.6141 2.1728 -2.5017 0.9775
-4.6893 2.0053 -2.5017 0.9775
-4.7584 1.8353 -2.5017 0.9775
-4.8213 1.6629 -2.5017 0.9775
-4.9283 1.3118 -2.5017 0.9775
-4.9724 1.1336 -2.5016 0.9775
-5.0655 0.5911 -2.5016 0.9775
-0.3690 4.2334 -2.2045 0.9810
-0.5230 4.2333 -2.2128 0.9810
-0.6784 4.2327 -2.2239 0.9809
-0.9815 4.1748 -2.2249 0.9809
-1.1420 4.1768 -2.2464 0.9807
-1.3044 4.1740 -2.2687 0.9805
-1.6031 4.5481 -2.5017 0.9785
-1.7657 4.4875 -2.5017 0.9785
-1.9261 4.4210 -2.5017 0.9785
-2.0839 4.3489 -2.5018 0.9785
-2.2390 4.2711 -2.5018 0.9785
-2.5404 4.0990 -2.5018 0.9785
-2.8287 3.9057 -2.5018 0.9785
-2.9674 3.8014 -2.5018 0.9785
-3.1023 3.6922 -2.5018 0.9785
-3.2331 3.5781 -2.5018 0.9785
-3.4821 3.3364 -2.5018 0.9785
-3.5999 3.2089 -2.5018 0.9785
-3.7130 3.0773 -2.5018 0.9785
-3.9247 2.8022 -2.5018 0.9785
-4.1160 2.5127 -2.5017 0.9785
-4.2037 2.3629 -2.5017 0.9785
-4.3628 2.0544 -2.5017 0.9785
-4.6123 1.4072 -2.5017 0.9785
-4.6599 1.2403 -2.5016 0.9785
-4.7370 0.9020 -2.5016 0.9785
-4.7664 0.7309 -2.5016 0.9785
-4.8066 0.3862 -2.5016 0.9785
-0.3966 4.5503 -2.5017 0.9794
-0.9812 4.1733 -2.3481 0.9806
-1.1413 4.1742 -2.3701 0.9805
-1.5184 4.3079 -2.5017 0.9794
-2.4063 3.8825 -2.5018 0.9794
-2.8107 3.6006 -2.5018 0.9794
-2.9384 3.4972 -2.5018 0.9794
-3.0624 3.3892 -2.5018 0.9794
-3.2982 3.1601 -2.5018 0.9794
-3.4098 3.0394 -2.5018 0.9794
-4.0597 2.0934 -2.5017 0.9794
-4.3687 1.3329 -2.5016 0.9794
-4.4532 1.0152 -2.5016 0.9794
-4.5146 0.6923 -2.5016 0.9794
-0.5313 4.3004 -2.5017 0.9802
-0.8392 4.2510 -2.5017 0.9802
-0.9916 4.2181 -2.5017 0.9802
-1.1428 4.1797 -2.5017 0.9802
-1.2925 4.1359 -2.5017 0.9802
-1.4404 4.0867 -2.5017 0.9802
-1.5866 4.0322 -2.5017 0.9802
-1.7306 3.9725 -2.5017 0.9802
-1.8725 3.9077 -2.5017 0.9802
-2.0119 3.8378 -2.5018 0.9802
-2.2827 3.6832 -2.5018 0.9802
-2.4138 3.5986 -2.5018 0.9802
-2.7875 3.3176 -2.5018 0.9802
-2.9051 3.2151 -2.5018 0.9802
-3.1288 2.9979 -2.5018 0.9802
-3.4336 2.6432 -2.5017 0.9802
-3.5265 2.5179 -2.5017 0.9802
-3.6984 2.2578 -2.5017 0.9802
-3.9840 1.7037 -2.5017 0.9802
-4.0962 1.4128 -2.5016 0.9802
-4.2245 0.9631 -2.5016 0.9802
-4.2828 0.6568 -2.5016 0.9802
-4.3190 0.3471 -2.5016 0.9802
