ply
format ascii 1.0
element vertex 661
property float32 x
property float32 y
property float32 z
property float32 I
end_header
22.2897 14.4404 4.6830 0.8977
20.7005 14.4796 4.4544 0.9025
16.7244 14.5777 3.9120 0.9138
16.1847 15.1516 3.9092 0.9139
16.3124 20.3259 4.5955 0.8996
16.3519 21.9269 4.8230 0.8949
16.3956 23.6971 5.0810 0.8895
8.0559 14.7916 2.9699 0.9339
7.3955 14.8079 2.9186 0.9350
6.1371 14.8389 2.8315 0.9369
5.5342 14.8538 2.7950 0.9376
4.9458 14.8683 2.7629 0.9383
3.8052 14.8965 2.7110 0.9395
3.2494 14.9102 2.6908 0.9399
2.7012 14.9237 2.6742 0.9403
1.9636 18.1053 3.2112 0.9287
1.8249 25.1213 4.4412 0.9028
0.3638 9.8290 1.7343 0.9608
30.6882 14.1782 5.1788 0.8721
30.6825 16.9148 5.3673 0.8678
22.2897 14.4403 4.0686 0.8981
20.7005 14.4796 3.8700 0.9028
19.2575 14.5152 3.6943 0.9070
18.0448 14.6343 3.5592 0.9103
16.2434 17.5300 3.6612 0.9078
16.3124 20.3259 3.9926 0.8999
16.3724 23.6635 4.4082 0.8901
8.0559 14.7916 2.5803 0.9341
7.3955 14.8079 2.5357 0.9352
6.7568 14.8237 2.4957 0.9362
6.1371 14.8389 2.4600 0.9371
4.3701 14.8825 2.3762 0.9392
2.0363 18.7756 2.8932 0.9264
33.7419 14.1578 4.7650 0.8628
30.8010 14.2303 4.4183 0.8721
30.7277 15.5434 4.4842 0.8703
30.8965 18.4928 4.6890 0.8648
22.2897 14.4404 3.4585 0.8984
19.2574 14.5152 3.1403 0.9073
17.8735 14.4953 2.9967 0.9114
16.1847 15.1516 2.8870 0.9145
16.1145 16.1972 2.9753 0.9120
16.3231 18.9215 3.2541 0.9041
16.3519 21.9269 3.5619 0.8955
16.3724 23.6635 3.7471 0.8904
16.4504 25.6796 3.9713 0.8842
7.3955 14.8079 2.1554 0.9354
6.7568 14.8237 2.1214 0.9364
6.1371 14.8389 2.0911 0.9373
4.9458 14.8683 2.0405 0.9387
3.2494 14.9102 1.9872 0.9403
2.1590 14.9371 1.9653 0.9409
30.8249 15.5926 3.7094 0.8703
30.8600 17.0126 3.7840 0.8678
19.2574 14.5152 2.5895 0.9075
17.9381 14.5477 2.4801 0.9113
16.7244 14.5777 2.3824 0.9146
16.2130 16.2962 2.4684 0.9117
16.2764 18.8674 2.6757 0.9046
16.3519 21.9269 2.9372 0.8958
16.3264 23.5970 3.0813 0.8910
16.4914 25.7436 3.2830 0.8843
8.7408 14.7747 1.8434 0.9333
8.0559 14.7916 1.8086 0.9345
5.5342 14.8538 1.7021 0.9382
3.8052 14.8965 1.6510 0.9400
3.2494 14.9102 1.6387 0.9405
1.5803 14.5717 1.5739 0.9427
1.0615 14.6131 1.5733 0.9428
0.0218 14.6985 1.5784 0.9426
37.1883 14.0727 3.3660 0.8525
33.7419 14.1578 3.0976 0.8634
30.8249 15.5926 2.9243 0.8705
22.2897 14.4404 2.2483 0.8989
19.2574 14.5152 2.0414 0.9077
17.9381 14.5477 1.9551 0.9115
16.1847 15.1516 1.8768 0.9148
16.2434 17.5300 2.0231 0.9085
16.2764 18.8674 2.1094 0.9048
16.3124 20.3259 2.2062 0.9007
16.3519 21.9269 2.3155 0.8960
16.3956 23.6971 2.4394 0.8908
16.3749 25.5616 2.5698 0.8853
8.7408 14.7747 1.4532 0.9334
8.0559 14.7916 1.4258 0.9346
7.3689 14.7545 1.3961 0.9359
4.9458 14.8683 1.3265 0.9390
4.3701 14.8825 1.3130 0.9396
1.5220 14.0340 1.1950 0.9449
1.0224 14.0741 1.1946 0.9449
0.0209 14.1157 1.1949 0.9449
30.8010 14.2303 2.1040 0.8729
23.7877 14.2379 1.7191 0.8948
17.9381 14.5477 1.4322 0.9116
16.1847 15.1516 1.3748 0.9150
16.2434 17.5300 1.4820 0.9087
16.2764 18.8674 1.5452 0.9050
16.4443 25.6700 1.8904 0.8850
8.0559 14.7916 1.0444 0.9347
7.4395 14.8960 1.0325 0.9354
6.7568 14.8237 1.0102 0.9368
6.1371 14.8389 0.9958 0.9377
4.9458 14.8683 0.9717 0.9391
1.4681 13.5365 0.8443 0.9469
0.3638 9.8290 0.6099 0.9613
0.0201 13.5794 0.8421 0.9470
-1.5271 44.8516 2.7829 0.8354
-4.8440 45.9346 2.8642 0.8310
37.1883 14.0727 1.5678 0.8529
30.8010 14.2303 1.3379 0.8730
30.8288 18.4522 1.4167 0.8660
16.1847 15.1516 0.8742 0.9151
16.1519 16.2348 0.9030 0.9124
16.2434 17.5300 0.9424 0.9088
16.3124 20.3259 1.0277 0.9009
16.3519 21.9269 1.0785 0.8963
16.4443 25.6700 1.2021 0.8851
8.7408 14.7747 0.6769 0.9336
8.0559 14.7916 0.6641 0.9348
7.4395 14.8960 0.6565 0.9355
4.3701 14.8825 0.6116 0.9398
2.7012 14.9237 0.5980 0.9411
1.8844 13.0375 0.5194 0.9486
1.4160 13.0569 0.5179 0.9488
0.0194 13.0837 0.5159 0.9490
-2.7873 40.0116 1.5815 0.8517
-4.2229 40.0452 1.5878 0.8511
37.1883 14.0727 0.6716 0.8529
33.7419 14.1578 0.6181 0.8638
30.8010 14.2303 0.5731 0.8731
24.5185 12.4025 0.4641 0.8959
30.8600 17.0126 0.5952 0.8685
20.7005 14.4796 0.4267 0.9039
16.1847 15.1516 0.3745 0.9151
16.1519 16.2348 0.3868 0.9125
16.2434 17.5300 0.4037 0.9088
16.3231 18.9215 0.4221 0.9049
16.3519 21.9269 0.4620 0.8963
16.3724 23.6635 0.4861 0.8913
15.6116 24.3701 0.4889 0.8907
8.7408 14.7747 0.2900 0.9336
6.1371 14.8389 0.2712 0.9378
5.5342 14.8538 0.2678 0.9386
3.2377 14.8565 0.2568 0.9410
1.8797 13.0048 0.2220 0.9488
1.9636 18.1053 0.3076 0.9297
1.7858 24.5835 0.4164 0.9061
0.0654 44.1333 0.7455 0.8381
-1.1824 34.7266 0.5869 0.8702
-2.4722 35.4876 0.6009 0.8673
37.1883 14.0727 -0.2239 0.8530
33.7419 14.1578 -0.2060 0.8638
30.8010 14.2303 -0.1910 0.8731
30.8249 15.5926 -0.1945 0.8709
30.8600 17.0126 -0.1984 0.8685
30.8965 18.4928 -0.2027 0.8659
19.2574 14.5152 -0.1358 0.9080
16.7244 14.5777 -0.1249 0.9151
16.1847 15.1516 -0.1248 0.9151
16.2434 17.5300 -0.1346 0.9088
16.3124 20.3259 -0.1467 0.9010
15.6104 24.3682 -0.1629 0.8907
8.7408 14.7747 -0.0967 0.9336
8.0559 14.7916 -0.0948 0.9348
6.7568 14.8237 -0.0917 0.9369
5.5342 14.8538 -0.0892 0.9386
4.9458 14.8683 -0.0882 0.9392
4.3701 14.8825 -0.0873 0.9398
3.7915 14.8428 -0.0863 0.9406
1.8797 13.0048 -0.0740 0.9488
1.9120 17.6293 -0.0998 0.9315
0.3638 9.8290 -0.0554 0.9614
-1.0548 30.9811 -0.1745 0.8834
-2.1574 30.9693 -0.1748 0.8832
30.8600 17.0126 -0.9922 0.8685
23.3603 13.9821 -0.7666 0.8968
22.2897 14.4404 -0.7478 0.8992
20.7005 14.4796 -0.7113 0.9039
19.2574 14.5152 -0.6790 0.9080
17.9382 14.5477 -0.6503 0.9117
16.7244 14.5777 -0.6247 0.9150
16.1847 15.1516 -0.6243 0.9151
16.2130 16.2962 -0.6473 0.9121
16.2434 17.5300 -0.6729 0.9088
16.3124 20.3259 -0.7339 0.9010
16.3519 21.9269 -0.7702 0.8963
16.3956 23.6971 -0.8114 0.8911
15.6092 24.3664 -0.8148 0.8907
8.7408 14.7747 -0.4834 0.9336
7.3955 14.8079 -0.4661 0.9359
5.5342 14.8538 -0.4463 0.9385
4.9458 14.8683 -0.4412 0.9392
4.3701 14.8825 -0.4368 0.9398
3.2494 14.9102 -0.4297 0.9408
1.8797 13.0048 -0.3700 0.9488
2.0363 18.7756 -0.5318 0.9272
0.3638 9.8290 -0.2770 0.9614
0.0360 24.3141 -0.6846 0.9073
-0.9377 27.5424 -0.7760 0.8956
-2.9844 28.3004 -0.8013 0.8924
33.7419 14.1578 -1.8557 0.8637
30.8010 14.2303 -1.7207 0.8729
23.3010 12.8454 -1.3494 0.8989
22.2897 14.4404 -1.3469 0.8991
20.7005 14.4796 -1.2811 0.9038
19.2575 14.5152 -1.2230 0.9079
16.2130 16.2962 -1.1658 0.9120
16.3519 21.9269 -1.3872 0.8962
6.1371 14.8389 -0.8144 0.9377
5.5342 14.8538 -0.8039 0.9385
3.8052 14.8965 -0.7797 0.9403
3.2494 14.9102 -0.7739 0.9407
2.7012 14.9237 -0.7691 0.9411
1.9010 17.5287 -0.8942 0.9318
-0.8309 24.4039 -1.2383 0.9068
-2.6542 25.1695 -1.2835 0.9036
27.9674 11.7348 -2.2238 0.8855
27.5330 12.7205 -2.2238 0.8855
23.9895 13.2250 -2.0085 0.8960
22.2897 14.4404 -1.9473 0.8990
19.2574 14.5152 -1.7682 0.9078
16.1847 15.1516 -1.6256 0.9149
16.2434 17.5300 -1.7523 0.9086
16.3519 21.9269 -2.0056 0.8961
16.3956 23.6971 -2.1129 0.8909
15.6068 24.3626 -2.1214 0.8904
7.3955 14.8079 -1.2136 0.9358
6.7568 14.8237 -1.1945 0.9368
4.9458 14.8683 -1.1489 0.9391
4.3701 14.8825 -1.1373 0.9397
3.2494 14.9102 -1.1189 0.9406
1.8797 13.0048 -0.9635 0.9487
1.0881 14.9792 -1.1012 0.9415
0.0450 30.3295 -2.2238 0.8855
-0.7354 21.5984 -1.5846 0.9170
-2.3575 22.3558 -1.6483 0.9138
22.8867 8.6607 -2.3493 0.9063
22.5647 9.4679 -2.3493 0.9063
21.9585 10.1450 -2.3222 0.9074
20.6696 10.4556 -2.2238 0.9111
20.2853 11.1830 -2.2238 0.9111
19.4405 12.5945 -2.2238 0.9111
18.9810 13.2768 -2.2238 0.9111
17.9382 14.5477 -2.2173 0.9114
15.7438 16.9908 -2.2238 0.9111
15.1305 17.5391 -2.2238 0.9111
7.3955 14.8079 -1.5891 0.9357
5.5342 14.8538 -1.5218 0.9383
3.8052 14.8965 -1.4761 0.9401
3.2494 14.9102 -1.4651 0.9405
2.7012 14.9237 -1.4560 0.9409
1.8797 13.0048 -1.2615 0.9486
1.0456 14.3943 -1.3856 0.9437
0.3638 9.8290 -0.9443 0.9612
-0.6511 19.1233 -1.8370 0.9260
-1.3303 19.0964 -1.8378 0.9260
-2.0096 19.0569 -1.8397 0.9259
19.4203 8.1486 -2.5017 0.9187
17.9540 8.2949 -2.3493 0.9234
17.6482 8.9272 -2.3493 0.9234
17.3200 9.5482 -2.3493 0.9234
15.2776 10.6864 -2.2147 0.9276
14.8159 11.1674 -2.2039 0.9280
14.5406 11.7923 -2.2238 0.9274
13.6670 12.7946 -2.2238 0.9274
13.2040 13.2718 -2.2238 0.9274
12.2288 14.1754 -2.2238 0.9274
11.7177 14.6007 -2.2238 0.9274
11.1919 15.0076 -2.2238 0.9274
10.6519 15.3955 -2.2238 0.9274
10.0985 15.7641 -2.2238 0.9274
6.1371 14.8389 -1.9075 0.9374
4.3701 14.8825 -1.8425 0.9394
3.2494 14.9102 -1.8127 0.9404
1.8797 13.0048 -1.5608 0.9484
1.5290 14.0983 -1.6845 0.9445
0.3638 9.8290 -1.1683 0.9612
-0.5777 16.9678 -2.0167 0.9339
-1.7825 16.9026 -2.0189 0.9338
16.0282 7.4052 -2.5017 0.9312
15.7552 7.9697 -2.5017 0.9312
14.8908 8.2091 -2.4092 0.9336
14.2269 8.5154 -2.3493 0.9352
13.9156 9.0152 -2.3493 0.9352
13.2406 9.9801 -2.3493 0.9352
11.8314 10.3128 -2.2238 0.9386
11.4578 10.7264 -2.2238 0.9386
10.6676 11.5125 -2.2238 0.9386
9.8236 12.2406 -2.2238 0.9386
9.3828 12.5817 -2.2238 0.9386
8.4661 13.2159 -2.2238 0.9386
7.5068 13.7834 -2.2238 0.9386
7.0127 14.0413 -2.2238 0.9386
4.9458 14.8683 -2.2202 0.9387
3.2494 14.9102 -2.1622 0.9402
1.0071 13.8634 -1.9695 0.9454
0.3638 9.8290 -1.3936 0.9610
0.0232 15.6950 -2.2238 0.9386
-0.5140 15.0973 -2.1404 0.9408
-1.0498 15.0707 -2.1405 0.9408
-1.5850 15.0305 -2.1415 0.9408
14.2029 5.3746 -2.5017 0.9403
14.0031 5.8755 -2.5017 0.9403
13.5508 6.8546 -2.5017 0.9403
12.6502 8.1954 -2.4831 0.9407
11.7509 8.2195 -2.3624 0.9435
11.3880 8.5837 -2.3493 0.9438
10.7501 9.3703 -2.3493 0.9438
10.0580 10.1096 -2.3493 0.9438
8.4491 10.5279 -2.2238 0.9467
6.8734 11.6181 -2.2238 0.9467
4.7129 12.6496 -2.2238 0.9467
3.8033 12.9522 -2.2238 0.9467
2.8744 13.1895 -2.2238 0.9467
1.8797 13.0048 -2.1647 0.9481
0.9780 13.4636 -2.2238 0.9467
0.0200 13.4990 -2.2238 0.9467
-0.4594 13.4923 -2.2240 0.9467
-1.4161 13.4286 -2.2245 0.9467
12.4482 4.7106 -2.5017 0.9473
12.2731 5.1496 -2.5017 0.9473
12.0825 5.5822 -2.5017 0.9473
11.1704 7.2367 -2.5017 0.9473
10.6286 8.0112 -2.5017 0.9473
9.4398 8.2281 -2.3537 0.9503
8.8154 8.8606 -2.3493 0.9504
8.4952 9.1680 -2.3493 0.9504
8.1643 9.4639 -2.3493 0.9504
7.4720 10.0195 -2.3493 0.9504
7.1115 10.2785 -2.3493 0.9504
6.1009 10.3125 -2.2522 0.9524
4.9071 10.7657 -2.2238 0.9530
4.5217 10.9332 -2.2238 0.9530
3.3334 11.3520 -2.2238 0.9530
2.9282 11.4632 -2.2238 0.9530
2.5193 11.5600 -2.2238 0.9530
2.1072 11.6421 -2.2238 0.9530
1.6925 11.7096 -2.2238 0.9530
0.1939 5.2387 -0.9853 0.9789
0.0077 5.1856 -0.9747 0.9791
-0.1752 5.1453 -0.9677 0.9793
-0.3596 5.1613 -0.9725 0.9792
10.3644 5.7137 -2.5017 0.9528
9.6980 6.7836 -2.5017 0.9528
9.4510 7.1237 -2.5017 0.9528
9.1921 7.4548 -2.5017 0.9528
7.6137 8.2167 -2.3679 0.9552
7.2597 8.4154 -2.3493 0.9556
6.9563 8.6679 -2.3493 0.9556
6.6442 8.9094 -2.3493 0.9556
5.9951 9.3585 -2.3493 0.9556
4.6097 10.1131 -2.3493 0.9556
3.8510 10.3363 -2.3316 0.9559
3.4397 10.3406 -2.3036 0.9564
3.0377 10.3449 -2.2790 0.9569
2.6436 10.3490 -2.2578 0.9573
0.3494 4.8094 -1.0193 0.9805
0.0069 4.6497 -0.9829 0.9812
-0.1578 4.6355 -0.9804 0.9812
-0.4910 4.6561 -0.9897 0.9810
9.8155 4.1185 -2.5017 0.9572
9.4984 4.8047 -2.5017 0.9572
9.3218 5.1389 -2.5017 0.9572
9.1334 5.4667 -2.5017 0.9572
8.9336 5.7876 -2.5017 0.9572
8.7224 6.1012 -2.5017 0.9572
8.5002 6.4070 -2.5017 0.9572
7.7707 7.2747 -2.5017 0.9572
7.2348 7.8078 -2.5017 0.9572
6.9530 8.0598 -2.5017 0.9572
6.5791 8.1977 -2.4704 0.9577
6.1222 8.2095 -2.4069 0.9588
5.6941 8.2299 -2.3520 0.9597
5.3920 8.4171 -2.3493 0.9598
4.4663 8.9427 -2.3493 0.9598
3.8203 9.2372 -2.3493 0.9598
3.4899 9.3670 -2.3493 0.9598
2.8163 9.5911 -2.3493 0.9598
2.4740 9.6850 -2.3493 0.9598
2.1319 9.7822 -2.3530 0.9597
0.4864 4.4851 -1.0603 0.9816
0.3239 4.4587 -1.0507 0.9818
0.1651 4.4592 -1.0487 0.9818
0.0066 4.4577 -1.0477 0.9818
-0.1517 4.4563 -1.0480 0.9818
-0.3107 4.4599 -1.0507 0.9818
9.0367 3.4196 -2.5017 0.9609
8.9096 3.7384 -2.5017 0.9609
8.7712 4.0524 -2.5017 0.9609
8.4615 4.6647 -2.5017 0.9609
8.2905 4.9622 -2.5017 0.9609
8.1091 5.2535 -2.5017 0.9609
7.9175 5.5381 -2.5017 0.9609
7.7158 5.8157 -2.5017 0.9609
7.2836 6.3487 -2.5017 0.9609
7.0536 6.6033 -2.5017 0.9609
6.8146 6.8496 -2.5017 0.9609
6.3113 7.3160 -2.5017 0.9609
6.0476 7.5355 -2.5017 0.9609
5.4975 7.9457 -2.5017 0.9609
4.8503 8.1985 -2.4664 0.9614
4.1028 8.2149 -2.3775 0.9628
2.8639 8.6097 -2.3493 0.9632
2.5564 8.7059 -2.3493 0.9632
1.4246 5.5770 -1.4904 0.9765
1.1540 5.2954 -1.4032 0.9779
0.8374 4.6264 -1.2173 0.9808
0.6386 4.4181 -1.1558 0.9817
0.1635 4.4182 -1.1447 0.9819
0.0065 4.4116 -1.1422 0.9819
-0.3078 4.4180 -1.1467 0.9819
-0.4666 4.4245 -1.1519 0.9818
8.2650 3.1276 -2.5017 0.9639
8.1488 3.4191 -2.5017 0.9639
8.0222 3.7063 -2.5017 0.9639
7.8855 3.9889 -2.5017 0.9639
7.7389 4.2663 -2.5017 0.9639
7.5826 4.5385 -2.5017 0.9639
7.4166 4.8048 -2.5017 0.9639
7.2414 5.0652 -2.5017 0.9639
7.0569 5.3191 -2.5017 0.9639
6.8636 5.5663 -2.5017 0.9639
6.6616 5.8065 -2.5017 0.9639
6.0063 6.4820 -2.5017 0.9639
5.7724 6.6912 -2.5017 0.9639
5.5311 6.8920 -2.5017 0.9639
5.0280 7.2672 -2.5017 0.9639
4.7668 7.4411 -2.5017 0.9639
4.2266 7.7607 -2.5017 0.9639
3.9484 7.9059 -2.5017 0.9639
3.6652 8.0411 -2.5017 0.9639
3.3774 8.1662 -2.5017 0.9639
2.7284 8.2021 -2.4470 0.9647
1.2690 4.9677 -1.4515 0.9789
0.9790 4.4923 -1.3016 0.9811
0.7896 4.3627 -1.2551 0.9817
0.1620 4.3774 -1.2401 0.9820
0.0065 4.3710 -1.2374 0.9820
-0.1486 4.3641 -1.2361 0.9820
-0.3046 4.3732 -1.2410 0.9819
7.6071 2.8786 -2.5017 0.9665
7.3836 3.4113 -2.5017 0.9665
7.2578 3.6713 -2.5017 0.9665
7.1229 3.9267 -2.5017 0.9665
6.9789 4.1771 -2.5017 0.9665
6.1313 5.3443 -2.5017 0.9665
5.9376 5.5586 -2.5017 0.9665
5.0908 6.3433 -2.5017 0.9665
4.8624 6.5201 -2.5017 0.9665
4.1414 7.0002 -2.5017 0.9665
3.8902 7.1429 -2.5017 0.9665
1.3457 4.5829 -1.4691 0.9802
1.1170 4.3727 -1.3881 0.9813
0.9418 4.3214 -1.3604 0.9817
0.4688 4.3227 -1.3373 0.9820
0.3147 4.3325 -1.3361 0.9820
0.1604 4.3348 -1.3342 0.9820
0.0064 4.3302 -1.3319 0.9820
-0.4568 4.3314 -1.3396 0.9819
7.0389 2.6636 -2.5017 0.9688
6.9399 2.9119 -2.5017 0.9688
6.7157 3.3971 -2.5017 0.9688
6.4577 3.8652 -2.5017 0.9688
6.1671 4.3137 -2.5017 0.9688
5.8454 4.7406 -2.5017 0.9688
5.6733 4.9451 -2.5017 0.9688
5.4942 5.1435 -2.5017 0.9688
5.3081 5.3353 -2.5017 0.9688
5.1153 5.5204 -2.5017 0.9688
4.0597 6.3372 -2.5017 0.9688
3.3627 6.7330 -2.5017 0.9688
2.8764 6.9547 -2.5017 0.9688
1.4467 4.3491 -1.5236 0.9809
1.0939 4.2822 -1.4691 0.9815
0.4644 4.2821 -1.4317 0.9820
6.5429 2.4759 -2.5017 0.9707
6.0026 3.5928 -2.5017 0.9707
5.8712 3.8037 -2.5017 0.9707
5.7325 4.0097 -2.5017 0.9707
5.5865 4.2108 -2.5017 0.9707
5.4334 4.4065 -2.5017 0.9707
5.2735 4.5966 -2.5017 0.9707
4.7548 5.1314 -2.5017 0.9707
3.5620 6.0209 -2.5017 0.9707
3.3460 6.1436 -2.5017 0.9707
3.1257 6.2585 -2.5017 0.9707
2.6737 6.4646 -2.5017 0.9707
1.6007 4.2964 -1.6396 0.9807
1.4209 4.2715 -1.6098 0.9811
0.6159 4.2609 -1.5396 0.9819
0.1577 4.2592 -1.5241 0.9821
0.0063 4.2585 -1.5229 0.9821
-0.1450 4.2578 -1.5235 0.9821
-0.2966 4.2570 -1.5260 0.9820
6.0197 2.5258 -2.5017 0.9724
5.8252 2.9467 -2.5017 0.9724
5.4788 3.5495 -2.5017 0.9724
5.0703 4.1120 -2.5017 0.9724
4.7657 4.4615 -2.5017 0.9724
4.6043 4.6279 -2.5017 0.9724
4.4370 4.7885 -2.5017 0.9724
3.7143 5.3684 -2.5017 0.9724
3.5214 5.4969 -2.5017 0.9724
3.3239 5.6185 -2.5017 0.9724
3.1224 5.7330 -2.5017 0.9724
2.9168 5.8403 -2.5017 0.9724
2.4950 6.0325 -2.5017 0.9724
1.5902 4.2680 -1.7454 0.9807
1.4100 4.2387 -1.7118 0.9810
0.9274 4.2551 -1.6689 0.9815
0.1573 4.2504 -1.6299 0.9819
5.7169 2.1634 -2.5017 0.9739
5.5489 2.5637 -2.5017 0.9739
5.3530 2.9510 -2.5017 0.9739
5.2448 3.1392 -2.5017 0.9739
5.1300 3.3235 -2.5017 0.9739
5.0088 3.5035 -2.5017 0.9739
4.6078 4.0163 -2.5017 0.9739
4.4623 4.1774 -2.5017 0.9739
4.3111 4.3332 -2.5017 0.9739
3.2972 5.1470 -2.5017 0.9739
2.7311 5.4684 -2.5017 0.9739
2.5352 5.5620 -2.5017 0.9739
2.3361 5.6485 -2.5017 0.9739
1.2402 4.2234 -1.8015 0.9812
1.0836 4.2419 -1.7918 0.9813
0.7685 4.2459 -1.7660 0.9815
0.6135 4.2449 -1.7554 0.9816
0.3082 4.2430 -1.7411 0.9818
0.1570 4.2419 -1.7373 0.9818
0.0063 4.2407 -1.7356 0.9818
-0.1444 4.2397 -1.7362 0.9818
-0.2953 4.2391 -1.7392 0.9818
-0.4470 4.2384 -1.7443 0.9817
5.3687 2.0316 -2.5017 0.9753
5.0270 2.7713 -2.5017 0.9753
4.7037 3.2902 -2.5017 0.9753
3.7496 4.3464 -2.5017 0.9753
3.5929 4.4768 -2.5017 0.9753
3.2661 4.7205 -2.5017 0.9753
2.5648 5.1354 -2.5017 0.9753
2.3808 5.2232 -2.5017 0.9753
1.7917 4.3321 -2.0431 0.9798
1.3879 4.1723 -1.9163 0.9810
1.0809 4.2314 -1.9033 0.9811
0.9247 4.2430 -1.8926 0.9812
0.4595 4.2372 -1.8575 0.9816
0.0063 4.2366 -1.8464 0.9817
4.9837 2.0911 -2.5017 0.9765
4.7330 2.6092 -2.5017 0.9765
4.6374 2.7756 -2.5017 0.9765
4.3159 3.2531 -2.5017 0.9765
3.9455 3.6936 -2.5017 0.9765
3.6734 3.9643 -2.5017 0.9765
3.5303 4.0922 -2.5017 0.9765
3.2309 4.3325 -2.5017 0.9765
3.0751 4.4445 -2.5017 0.9765
2.4148 4.8351 -2.5017 0.9765
2.2416 4.9178 -2.5017 0.9765
1.7696 4.2788 -2.1433 0.9798
1.5549 4.1734 -2.0615 0.9806
1.3888 4.1752 -2.0367 0.9808
1.2254 4.1733 -2.0133 0.9810
1.0866 4.2539 -2.0323 0.9808
0.9253 4.2455 -2.0113 0.9810
0.7673 4.2393 -1.9942 0.9812
0.6127 4.2388 -1.9825 0.9813
0.1569 4.2381 -1.9631 0.9815
0.0063 4.2381 -1.9618 0.9815
-0.1443 4.2380 -1.9628 0.9815
-0.2953 4.2382 -1.9665 0.9814
4.7029 1.9733 -2.5017 0.9775
4.6298 2.1390 -2.5017 0.9775
4.5510 2.3021 -2.5017 0.9775
4.3761 2.6193 -2.5017 0.9775
4.1792 2.9232 -2.5017 0.9775
4.0727 3.0698 -2.5017 0.9775
3.8446 3.3511 -2.5017 0.9775
3.5970 3.6155 -2.5017 0.9775
3.4664 3.7409 -2.5017 0.9775
3.3314 3.8617 -2.5017 0.9775
2.9018 4.1941 -2.5017 0.9775
1.9492 4.7129 -2.5017 0.9775
1.2259 4.1748 -2.1343 0.9808
0.9257 4.2476 -2.1325 0.9808
0.7674 4.2395 -2.1134 0.9810
0.6127 4.2391 -2.1010 0.9811
0.1569 4.2386 -2.0806 0.9813
-0.1443 4.2378 -2.0799 0.9813
4.4467 1.8658 -2.5017 0.9785
4.3777 2.0225 -2.5017 0.9785
4.2231 2.3281 -2.5017 0.9785
4.0472 2.6219 -2.5017 0.9785
3.9515 2.7640 -2.5017 0.9785
3.7454 3.0375 -2.5017 0.9785
3.6352 3.1686 -2.5017 0.9785
3.4011 3.4186 -2.5017 0.9785
3.1499 3.6513 -2.5017 0.9785
3.0183 3.7609 -2.5017 0.9785
2.8829 3.8657 -2.5017 0.9785
2.7437 3.9656 -2.5017 0.9785
2.4554 4.1504 -2.5017 0.9785
2.1546 4.3142 -2.5017 0.9785
1.3891 4.1760 -2.2831 0.9804
1.0655 4.1712 -2.2334 0.9808
0.9257 4.2475 -2.2552 0.9806
0.6124 4.2366 -2.2207 0.9809
0.0063 4.2339 -2.1965 0.9811
-0.1442 4.2335 -2.1975 0.9811
-0.2949 4.2335 -2.2016 0.9811
4.2720 1.6166 -2.5017 0.9794
3.8335 2.4835 -2.5017 0.9794
3.7429 2.6180 -2.5017 0.9794
3.6475 2.7493 -2.5017 0.9794
3.5476 2.8771 -2.5017 0.9794
3.4432 3.0012 -2.5017 0.9794
3.1045 3.3504 -2.5017 0.9794
2.9836 3.4585 -2.5017 0.9794
2.8589 3.5623 -2.5017 0.9794
2.7306 3.6616 -2.5017 0.9794
2.4638 3.8461 -2.5017 0.9794
2.1847 4.0113 -2.5017 0.9794
1.8945 4.1562 -2.5017 0.9794
1.7457 4.2209 -2.5017 0.9794
1.3882 4.1733 -2.4089 0.9801
1.1305 4.4255 -2.5017 0.9794
0.9726 4.4629 -2.5017 0.9794
0.4925 4.5411 -2.5017 0.9794
0.3309 4.5557 -2.5017 0.9794
0.1690 4.5646 -2.5018 0.9794
0.0068 4.5677 -2.5018 0.9794
-0.3174 4.5567 -2.5018 0.9794
-0.4790 4.5426 -2.5018 0.9794
4.0526 1.5336 -2.5017 0.9802
3.9956 1.6765 -2.5017 0.9802
3.8665 1.9559 -2.5017 0.9802
3.7946 2.0919 -2.5017 0.9802
3.6366 2.3560 -2.5017 0.9802
3.4602 2.6081 -2.5017 0.9802
3.2664 2.8471 -2.5017 0.9802
3.1633 2.9613 -2.5017 0.9802
3.0561 3.0718 -2.5017 0.9802
2.8304 3.2809 -2.5017 0.9802
2.7121 3.3793 -2.5017 0.9802
2.5904 3.4735 -2.5017 0.9802
2.4654 3.5633 -2.5017 0.9802
2.3373 3.6486 -2.5017 0.9802
2.2063 3.7293 -2.5017 0.9802
2.0725 3.8053 -2.5017 0.9802
1.9361 3.8765 -2.5017 0.9802
1.6560 4.0041 -2.5017 0.9802
1.3677 4.1116 -2.5017 0.9802
1.0724 4.1983 -2.5017 0.9802
0.7718 4.2638 -2.5017 0.9802
0.6199 4.2886 -2.5017 0.9802
0.4672 4.3079 -2.5017 0.9802
0.3140 4.3218 -2.5017 0.9802
0.1603 4.3302 -2.5018 0.9802
0.0064 4.3332 -2.5018 0.9802
-0.3011 4.3227 -2.5018 0.9802
-0.4544 4.3093 -2.5018 0.9802
