ply
format ascii 1.0
element vertex 668
property float32 x
property float32 y
property float32 z
property float32 I
end_header
9.0279 14.7676 3.0520 0.9321
8.3320 14.7848 2.9924 0.9334
5.7776 14.8478 2.8093 0.9373
4.0336 14.8908 2.7203 0.9393
3.4742 14.9047 2.6985 0.9397
2.9230 14.9183 2.6805 0.9401
1.9675 15.9894 2.8406 0.9367
2.0970 24.0662 4.2596 0.9065
-24.3471 39.4891 8.1801 0.8283
-26.3604 39.5388 8.3791 0.8245
-20.0603 20.8691 5.1042 0.8891
-20.0563 19.4338 4.9243 0.8928
16.4237 24.8379 4.5617 0.8865
8.3320 14.7848 2.5998 0.9336
7.0145 14.8173 2.5114 0.9358
5.1835 14.8625 2.4113 0.9383
4.6027 14.8768 2.3856 0.9389
3.4742 14.9047 2.3445 0.9399
2.9230 14.9183 2.3288 0.9403
2.3784 14.9317 2.3163 0.9406
1.4892 28.9524 4.4412 0.8893
-19.9464 35.0826 6.1824 0.8493
-19.9195 32.3080 5.8145 0.8576
-19.9876 25.8033 5.0001 0.8763
-20.0315 22.3784 4.6011 0.8856
16.4237 24.8379 3.8776 0.8868
8.3320 14.7848 2.2100 0.9338
7.6618 14.8013 2.1704 0.9350
5.1835 14.8625 2.0497 0.9385
4.6028 14.8768 2.0279 0.9391
3.4742 14.9047 1.9929 0.9401
2.9230 14.9183 1.9796 0.9405
2.0969 24.0662 3.1458 0.9072
0.3924 24.7304 3.2208 0.9050
-19.8408 41.5038 5.9905 0.8306
-19.8982 38.0854 5.5956 0.8409
-19.9202 32.3091 4.9427 0.8580
-19.9967 27.8011 4.4595 0.8710
-19.9874 25.8030 4.2502 0.8766
-20.0309 24.0442 4.0752 0.8814
-20.0312 22.3782 3.9110 0.8859
-20.0597 20.8685 3.7694 0.8898
-20.0558 19.4332 3.6366 0.8935
7.0145 14.8173 1.7604 0.9362
6.3872 14.8328 1.7342 0.9371
4.6027 14.8768 1.6722 0.9393
3.4742 14.9047 1.6434 0.9403
2.9230 14.9183 1.6324 0.9407
1.7911 14.5559 1.5748 0.9427
1.2718 14.5960 1.5733 0.9428
0.2330 14.6862 1.5772 0.9426
-19.8975 38.0840 4.6140 0.8413
-19.9433 35.0770 4.3329 0.8502
-19.9954 27.7994 3.6771 0.8713
-19.9871 25.8026 3.5048 0.8770
-20.0310 22.3779 3.2251 0.8862
-20.0555 19.4330 2.9987 0.8937
8.3320 14.7848 1.4366 0.9341
4.6027 14.8768 1.3183 0.9394
2.3784 14.9317 1.2799 0.9411
1.2249 14.0576 1.1945 0.9449
-19.8968 38.0827 3.6373 0.8416
-19.9417 35.0743 3.4155 0.8505
-19.9215 32.3111 3.2133 0.8587
-19.9868 25.8023 2.7629 0.8772
-20.0305 24.0437 2.6491 0.8819
-20.0591 20.8679 2.4503 0.8903
9.0279 14.7676 1.0733 0.9330
5.1835 14.8625 0.9761 0.9389
4.6027 14.8768 0.9657 0.9395
4.0576 14.9794 0.9624 0.9397
2.9230 14.9183 0.9427 0.9409
0.2154 13.5750 0.8419 0.9470
-0.8817 44.8530 2.7819 0.8354
-4.1752 45.9056 2.8584 0.8313
-5.8355 45.9850 2.8744 0.8305
-9.2378 46.2189 2.9227 0.8279
-16.6009 47.0256 3.0924 0.8188
-19.8606 45.6443 3.0867 0.8191
-19.8961 38.0814 2.6643 0.8418
-19.9402 35.0716 2.5017 0.8507
-19.9805 29.9694 2.2336 0.8656
-19.9930 27.7959 2.1232 0.8718
-19.9866 25.8019 2.0239 0.8774
-20.0302 24.0434 1.9405 0.8821
-20.0306 22.3774 1.8623 0.8866
-20.0550 19.4325 1.7317 0.8941
16.4237 24.8379 1.1741 0.8876
9.0279 14.7676 0.6825 0.9331
8.3320 14.7848 0.6692 0.9343
7.6342 14.7480 0.6548 0.9357
7.0562 14.9054 0.6503 0.9361
6.3872 14.8328 0.6368 0.9374
5.1835 14.8625 0.6207 0.9389
4.0576 14.9794 0.6119 0.9398
2.9230 14.9183 0.5994 0.9410
1.6063 13.0540 0.5186 0.9487
1.1381 13.0615 0.5170 0.9489
0.6723 13.0700 0.5160 0.9490
-0.7695 39.1436 1.5438 0.8549
-2.1620 39.1419 1.5458 0.8548
-3.6408 40.0304 1.5850 0.8514
-5.0850 40.0708 1.5927 0.8507
-8.0323 40.1878 1.6160 0.8487
-9.5466 40.2653 1.6317 0.8473
-16.0224 40.7184 1.7254 0.8393
-19.8954 38.0800 1.6941 0.8420
-19.9386 35.0688 1.5907 0.8509
-19.9792 29.9675 1.4202 0.8657
-19.9917 27.7942 1.3500 0.8719
-20.0304 22.3772 1.1842 0.8867
-20.0547 19.4322 1.1011 0.8942
8.3320 14.7848 0.2867 0.9344
7.6342 14.7480 0.2805 0.9357
7.0562 14.9054 0.2786 0.9362
5.7776 14.8478 0.2691 0.9383
5.1835 14.8625 0.2659 0.9390
4.6028 14.8768 0.2630 0.9396
3.4948 14.9933 0.2601 0.9403
2.1413 24.5748 0.4167 0.9060
1.2649 24.5915 0.4159 0.9062
0.2076 13.0854 0.2211 0.9490
-0.6828 34.7306 0.5868 0.8703
-3.2146 35.3444 0.5995 0.8676
-4.5064 35.5117 0.6047 0.8666
-5.7978 35.5320 0.6081 0.8659
-11.1798 35.6559 0.6312 0.8611
-14.0661 35.7469 0.6489 0.8575
-17.1431 35.8607 0.6714 0.8530
-18.3677 35.1561 0.6700 0.8533
-19.9233 32.3142 0.6413 0.8591
-19.9779 29.9655 0.6084 0.8658
-19.9861 25.8013 0.5513 0.8776
-20.0298 24.0429 0.5286 0.8823
-20.0302 22.3769 0.5073 0.8868
-20.0583 20.8671 0.4889 0.8907
5.7776 14.8478 -0.0897 0.9383
5.1835 14.8625 -0.0886 0.9390
4.6028 14.8768 -0.0877 0.9396
4.0190 14.8372 -0.0865 0.9404
3.4617 14.8510 -0.0859 0.9408
2.9230 14.9183 -0.0856 0.9410
2.3784 14.9317 -0.0851 0.9413
1.2648 24.5899 -0.1386 0.9062
-2.8879 31.7520 -0.1795 0.8803
-4.0293 31.7523 -0.1802 0.8798
-5.1810 31.7514 -0.1811 0.8792
-7.5267 31.7456 -0.1837 0.8777
-9.9503 31.7347 -0.1872 0.8754
-12.4809 31.7183 -0.1919 0.8725
-13.7966 31.7079 -0.1947 0.8708
-15.1521 31.6958 -0.1978 0.8689
-18.0042 31.6666 -0.2051 0.8644
-19.0383 30.8787 -0.2042 0.8649
-20.0296 24.0426 -0.1762 0.8823
-20.0299 22.3767 -0.1691 0.8868
-20.0541 19.4317 -0.1572 0.8943
16.1068 24.3587 -0.8223 0.8897
9.0279 14.7676 -0.4874 0.9331
8.3320 14.7848 -0.4779 0.9343
7.6618 14.8013 -0.4693 0.9355
4.6027 14.8768 -0.4385 0.9396
2.9230 14.9183 -0.4281 0.9410
1.2647 24.5883 -0.6933 0.9062
0.2076 13.0854 -0.3685 0.9490
-5.6463 28.2500 -0.8112 0.8911
-7.7495 28.1856 -0.8231 0.8896
-8.8247 28.1446 -0.8305 0.8887
-13.3449 27.9155 -0.8712 0.8835
-14.5454 27.8402 -0.8845 0.8819
-17.0546 27.6614 -0.9150 0.8781
-18.1518 27.2265 -0.9214 0.8773
-19.9855 25.8006 -0.9189 0.8776
-20.0293 24.0423 -0.8811 0.8823
-20.0577 20.8665 -0.8150 0.8906
-20.0539 19.4314 -0.7863 0.8943
16.1056 24.3568 -1.4809 0.8896
9.0279 14.7676 -0.8778 0.9330
8.3320 14.7848 -0.8607 0.9343
7.0145 14.8173 -0.8314 0.9364
3.4742 14.9047 -0.7761 0.9405
2.9230 14.9183 -0.7710 0.9409
0.2076 13.0854 -0.6637 0.9489
-0.4759 24.2108 -1.2281 0.9076
-3.1717 24.9938 -1.2777 0.9040
-4.0994 25.1231 -1.2910 0.9031
-5.0133 25.0828 -1.2972 0.9026
-5.9353 25.0337 -1.3048 0.9021
-7.8085 24.9039 -1.3236 0.9007
-8.7626 24.8221 -1.3350 0.8999
-10.7153 24.6263 -1.3620 0.8980
-11.7176 24.5114 -1.3778 0.8969
-14.8537 24.0916 -1.4353 0.8928
-17.0767 23.7416 -1.4831 0.8895
-18.7472 22.5034 -1.4854 0.8893
-19.9417 22.2781 -1.5163 0.8871
9.0279 14.7676 -1.2691 0.9329
8.3320 14.7848 -1.2443 0.9342
7.0145 14.8173 -1.2020 0.9364
5.7776 14.8478 -1.1682 0.9381
5.1835 14.8625 -1.1541 0.9388
4.6028 14.8768 -1.1418 0.9395
4.0336 14.8908 -1.1312 0.9400
0.7708 14.9864 -1.1003 0.9416
0.2076 13.0854 -0.9596 0.9489
-1.1922 21.5849 -1.5851 0.9169
-1.9603 21.5531 -1.5868 0.9169
-2.8344 22.3363 -1.6509 0.9137
-3.6379 22.2946 -1.6563 0.9134
-4.4453 22.2410 -1.6630 0.9130
-5.2571 22.1733 -1.6709 0.9127
-6.0745 22.0936 -1.6801 0.9122
-6.8985 22.0015 -1.6906 0.9117
-7.7300 21.8968 -1.7026 0.9111
-8.5699 21.7792 -1.7161 0.9104
-9.4194 21.6480 -1.7310 0.9097
-10.2794 21.5029 -1.7475 0.9088
-11.1511 21.3434 -1.7657 0.9079
-13.8124 20.7177 -1.8257 0.9050
-15.7005 20.2688 -1.8799 0.9023
-16.6556 19.9927 -1.9079 0.9009
-18.1832 18.9164 -1.9239 0.9001
-18.8065 18.2228 -1.9201 0.9003
12.7763 19.3219 -2.2239 0.9111
9.0279 14.7676 -1.6617 0.9328
8.3320 14.7848 -1.6293 0.9341
7.6618 14.8013 -1.6001 0.9352
6.3872 14.8328 -1.5504 0.9372
5.7776 14.8478 -1.5296 0.9380
5.1835 14.8625 -1.5112 0.9387
4.6027 14.8768 -1.4950 0.9393
4.0336 14.8909 -1.4811 0.9399
3.4742 14.9047 -1.4693 0.9404
2.3784 14.9317 -1.4516 0.9411
1.7692 14.3778 -1.3908 0.9435
0.7407 14.4012 -1.3844 0.9437
-1.0555 19.1089 -1.8373 0.9260
-2.5168 19.8332 -1.9194 0.9228
-3.2026 19.6273 -1.9092 0.9232
-4.6585 19.6485 -1.9386 0.9221
-5.3783 19.5612 -1.9477 0.9217
-6.7680 19.1717 -1.9519 0.9215
-7.5548 19.1993 -1.9808 0.9204
-8.2886 19.0492 -1.9944 0.9199
-9.7715 18.7029 -2.0259 0.9187
-10.5216 18.5058 -2.0437 0.9180
-13.5615 17.5074 -2.1261 0.9149
-14.3338 17.2057 -2.1499 0.9139
-15.8811 16.5214 -2.2001 0.9120
9.0279 14.7676 -2.0560 0.9327
7.6618 14.8013 -1.9798 0.9351
6.3872 14.8328 -1.9183 0.9370
5.7776 14.8478 -1.8925 0.9378
5.1835 14.8625 -1.8697 0.9386
4.0336 14.8908 -1.8326 0.9397
3.4742 14.9047 -1.8179 0.9402
2.9230 14.9183 -1.8058 0.9406
2.3784 14.9317 -1.7960 0.9409
1.2290 14.1051 -1.6818 0.9446
-0.3337 16.9749 -2.0168 0.9339
-0.9364 16.9540 -2.0170 0.9339
-1.5389 16.9201 -2.0182 0.9339
-2.1413 16.8739 -2.0205 0.9338
-2.8700 17.5889 -2.1169 0.9307
-3.5019 17.5211 -2.1224 0.9306
-5.4037 17.2340 -2.1454 0.9298
-6.0401 17.1099 -2.1553 0.9295
-6.6780 16.9711 -2.1664 0.9292
-7.3168 16.8158 -2.1784 0.9288
-9.2292 16.2328 -2.2181 0.9275
-9.8682 16.0055 -2.2335 0.9271
-12.3921 14.8749 -2.2997 0.9250
-13.0102 14.5345 -2.3171 0.9244
-14.2372 13.7953 -2.3549 0.9232
8.6569 13.0920 -2.2239 0.9386
6.7156 14.1860 -2.2239 0.9386
6.2076 14.4155 -2.2239 0.9386
5.6917 14.6269 -2.2239 0.9386
5.1686 14.8198 -2.2239 0.9386
2.9230 14.9183 -2.1539 0.9404
2.3784 14.9317 -2.1423 0.9407
1.7040 13.8475 -1.9768 0.9452
0.2076 13.0854 -1.8543 0.9485
-0.2969 15.1044 -2.1405 0.9408
-1.9035 15.0002 -2.1424 0.9407
-2.5607 15.6933 -2.2530 0.9378
-3.1230 15.6251 -2.2577 0.9377
-3.6851 15.5431 -2.2633 0.9375
-4.2463 15.4443 -2.2695 0.9373
-5.3626 15.1908 -2.2826 0.9370
-5.9186 15.0412 -2.2902 0.9368
-7.0253 14.6959 -2.3080 0.9363
-7.5756 14.5000 -2.3180 0.9360
-9.2118 13.8171 -2.3529 0.9351
-10.2878 13.2811 -2.3803 0.9344
-11.3444 12.6736 -2.4100 0.9336
-11.8376 12.3150 -2.4203 0.9333
-12.3237 11.9412 -2.4314 0.9330
6.6275 11.7603 -2.2239 0.9467
5.7760 12.2011 -2.2239 0.9467
5.3390 12.3986 -2.2239 0.9467
3.9900 12.8961 -2.2239 0.9467
3.5294 13.0297 -2.2239 0.9467
3.0644 13.1468 -2.2239 0.9467
2.5956 13.2474 -2.2239 0.9467
1.6487 13.3982 -2.2239 0.9467
1.1718 13.4483 -2.2239 0.9467
-0.2653 13.4989 -2.2242 0.9467
-1.2229 13.4459 -2.2242 0.9467
-1.7004 13.3994 -2.2251 0.9467
-2.1768 13.3405 -2.2268 0.9467
-2.7957 13.9874 -2.3498 0.9438
-3.2557 13.7317 -2.3249 0.9444
-3.7882 13.7781 -2.3540 0.9437
-4.2855 13.6678 -2.3597 0.9436
-4.7811 13.5435 -2.3661 0.9434
-5.2749 13.4053 -2.3732 0.9433
-5.7666 13.2530 -2.3810 0.9431
-8.6359 12.0064 -2.4364 0.9418
-9.0777 11.7191 -2.4420 0.9417
-9.9431 11.1081 -2.4560 0.9414
-10.3746 10.7929 -2.4663 0.9411
5.8087 10.3074 -2.2239 0.9530
4.6794 10.8668 -2.2239 0.9530
4.2905 11.0261 -2.2239 0.9530
3.8962 11.1715 -2.2239 0.9530
3.0934 11.4199 -2.2239 0.9530
2.6858 11.5226 -2.2239 0.9530
2.2749 11.6107 -2.2239 0.9530
1.8611 11.6842 -2.2239 0.9530
1.4450 11.7429 -2.2239 0.9530
1.0270 11.7868 -2.2239 0.9530
0.2742 5.3312 -1.0034 0.9785
0.0825 5.2002 -0.9776 0.9791
-0.1015 5.1626 -0.9705 0.9792
-1.9604 12.0146 -2.2881 0.9517
-3.4125 12.4115 -2.4194 0.9490
-4.7418 12.0506 -2.4341 0.9487
-5.1796 11.9040 -2.4401 0.9485
-6.0444 11.5690 -2.4534 0.9483
-6.4648 11.3706 -2.4585 0.9482
-8.0684 10.4160 -2.4765 0.9478
-8.4620 10.1575 -2.4849 0.9476
-9.2287 9.6008 -2.5031 0.9472
-9.5744 9.2773 -2.5059 0.9472
5.7971 9.4826 -2.3493 0.9556
5.4566 9.6825 -2.3493 0.9556
4.0214 10.3345 -2.3441 0.9557
2.8028 10.3474 -2.2660 0.9571
2.4129 10.3515 -2.2467 0.9575
2.0229 10.3244 -2.2239 0.9579
1.6549 10.3897 -2.2239 0.9579
0.4252 4.8794 -1.0353 0.9802
0.0739 4.6547 -0.9840 0.9811
-0.0913 4.6417 -0.9813 0.9812
-0.4229 4.6503 -0.9870 0.9811
-0.7703 4.7209 -1.0111 0.9806
-3.0932 11.2502 -2.4663 0.9534
-5.8022 10.2052 -2.4815 0.9531
-6.5456 9.8180 -2.4943 0.9529
-7.2556 9.3667 -2.5045 0.9527
-8.5019 8.2379 -2.5024 0.9528
5.2139 8.5287 -2.3493 0.9598
4.9077 8.7085 -2.3493 0.9598
4.2772 9.0349 -2.3493 0.9598
3.9536 9.1811 -2.3493 0.9598
3.6250 9.3157 -2.3493 0.9598
3.2919 9.4386 -2.3493 0.9598
2.9546 9.5495 -2.3493 0.9598
2.2692 9.7352 -2.3493 0.9598
1.9251 9.8254 -2.3531 0.9597
0.8036 5.0449 -1.2006 0.9792
0.3892 4.4673 -1.0539 0.9817
-0.2463 4.4583 -1.0494 0.9818
-0.5655 4.4564 -1.0558 0.9817
-0.7276 4.4588 -1.0618 0.9816
-1.2738 4.6329 -1.1292 0.9805
-3.1684 10.1049 -2.4889 0.9574
-3.8808 9.8624 -2.4909 0.9574
-4.2359 9.7351 -2.4952 0.9573
-4.9322 9.4403 -2.5033 0.9572
-5.9083 8.8620 -2.5032 0.9572
-6.8147 8.1801 -2.5023 0.9572
5.3293 8.0596 -2.5017 0.9609
5.0097 8.1947 -2.4868 0.9611
4.2509 8.2119 -2.3942 0.9625
2.9881 8.5675 -2.3493 0.9632
2.6819 8.6682 -2.3493 0.9632
2.3723 8.7580 -2.3493 0.9632
0.7075 4.4414 -1.1645 0.9816
0.5426 4.4096 -1.1503 0.9818
0.2274 4.4207 -1.1461 0.9819
0.0700 4.4144 -1.1431 0.9819
-0.0867 4.4105 -1.1422 0.9819
-0.5613 4.4230 -1.1544 0.9817
-1.0458 4.4111 -1.1738 0.9814
-1.2130 4.4116 -1.1846 0.9813
-1.4001 4.4654 -1.2117 0.9808
-3.2174 9.1140 -2.5025 0.9609
-4.4754 8.5660 -2.5024 0.9609
-4.7766 8.4013 -2.5022 0.9609
-5.0713 8.2259 -2.5021 0.9609
-5.9176 7.6395 -2.5020 0.9609
-6.4450 7.2002 -2.5020 0.9609
-6.6967 6.9668 -2.5020 0.9609
-6.9400 6.7246 -2.5020 0.9609
4.6094 7.5398 -2.5017 0.9639
4.0625 7.8480 -2.5017 0.9639
3.4951 8.1166 -2.5017 0.9639
3.1886 8.1943 -2.4892 0.9641
2.8599 8.2000 -2.4585 0.9645
0.3811 4.3740 -1.2429 0.9819
0.2253 4.3799 -1.2416 0.9819
-0.0859 4.3670 -1.2365 0.9820
-0.2413 4.3687 -1.2386 0.9820
-0.3983 4.3798 -1.2450 0.9819
-0.8728 4.3668 -1.2606 0.9817
-1.0343 4.3622 -1.2692 0.9815
-1.2013 4.3691 -1.2828 0.9813
-3.8117 7.9735 -2.5019 0.9639
-4.3681 7.6829 -2.5019 0.9639
-4.9025 7.3535 -2.5020 0.9639
-5.4122 6.9870 -2.5020 0.9639
-5.6570 6.7904 -2.5020 0.9639
4.4862 6.7845 -2.5017 0.9665
4.2424 6.9396 -2.5017 0.9665
3.9933 7.0859 -2.5017 0.9665
3.7391 7.2232 -2.5017 0.9665
3.4802 7.3515 -2.5017 0.9665
3.2169 7.4704 -2.5017 0.9665
2.9496 7.5800 -2.5017 0.9665
1.6710 4.7911 -1.5607 0.9790
0.3772 4.3286 -1.3364 0.9820
-0.0851 4.3262 -1.3309 0.9821
-0.2387 4.3224 -1.3315 0.9820
-0.5504 4.3375 -1.3448 0.9819
-0.8628 4.3167 -1.3540 0.9817
-1.0239 4.3186 -1.3651 0.9816
-1.1896 4.3268 -1.3802 0.9814
-1.3569 4.3276 -1.3950 0.9812
-1.5683 4.4425 -1.4491 0.9805
-3.2454 7.4587 -2.5019 0.9665
-3.7667 7.2096 -2.5019 0.9665
-4.0204 7.0713 -2.5019 0.9665
-4.2690 6.9241 -2.5019 0.9665
-4.5123 6.7681 -2.5020 0.9665
-4.7498 6.6036 -2.5020 0.9665
-4.9814 6.4308 -2.5020 0.9665
-5.2066 6.2498 -2.5020 0.9665
3.6950 6.5566 -2.5017 0.9688
3.4598 6.6837 -2.5017 0.9688
3.2203 6.8024 -2.5017 0.9688
1.7515 4.5011 -1.6055 0.9798
1.3382 4.3254 -1.5050 0.9811
1.1628 4.2927 -1.4783 0.9814
0.5269 4.2818 -1.4340 0.9820
0.3732 4.2833 -1.4292 0.9820
0.2205 4.2877 -1.4271 0.9821
-0.8536 4.2708 -1.4477 0.9818
-2.7560 7.0039 -2.5019 0.9688
-3.0030 6.9016 -2.5019 0.9688
-3.2462 6.7906 -2.5019 0.9688
-3.4854 6.6711 -2.5019 0.9688
-3.9502 6.4069 -2.5019 0.9688
-4.1752 6.2626 -2.5019 0.9688
-5.0201 5.6083 -2.5020 0.9688
-5.2161 5.4265 -2.5020 0.9688
3.4346 6.0946 -2.5017 0.9707
3.2160 6.2127 -2.5017 0.9707
2.9933 6.3230 -2.5017 0.9707
1.4913 4.2760 -1.6195 0.9809
1.3196 4.2650 -1.5965 0.9812
0.8350 4.2618 -1.5530 0.9817
0.6787 4.2611 -1.5430 0.9818
0.5243 4.2607 -1.5351 0.9819
0.3712 4.2602 -1.5292 0.9820
0.2191 4.2594 -1.5252 0.9820
0.0676 4.2588 -1.5232 0.9821
-0.3871 4.2563 -1.5284 0.9820
-0.5400 4.2551 -1.5339 0.9819
-1.0064 4.2449 -1.5601 0.9816
-1.1658 4.2403 -1.5726 0.9815
-1.5112 4.2807 -1.6234 0.9809
-2.5618 6.5103 -2.5019 0.9707
-3.2397 6.2009 -2.5019 0.9707
-3.4579 6.0820 -2.5019 0.9707
-3.6718 5.9554 -2.5019 0.9707
-3.8809 5.8212 -2.5019 0.9707
-4.0853 5.6797 -2.5019 0.9707
-4.2844 5.5311 -2.5020 0.9707
-4.4782 5.3754 -2.5020 0.9707
-4.8485 5.0440 -2.5020 0.9707
-5.0246 4.8687 -2.5020 0.9707
3.6007 5.4454 -2.5017 0.9724
3.2051 5.6873 -2.5017 0.9724
2.5820 5.9959 -2.5017 0.9724
1.3121 4.2409 -1.7012 0.9812
1.1486 4.2404 -1.6836 0.9814
0.8335 4.2540 -1.6612 0.9816
0.5233 4.2523 -1.6419 0.9818
0.3705 4.2518 -1.6355 0.9819
0.0674 4.2498 -1.6288 0.9820
-0.0835 4.2491 -1.6286 0.9820
-0.2347 4.2485 -1.6306 0.9819
-0.3863 4.2477 -1.6345 0.9819
-0.5389 4.2465 -1.6404 0.9818
-0.6921 4.2412 -1.6468 0.9818
-1.0035 4.2326 -1.6670 0.9815
-1.1615 4.2244 -1.6789 0.9814
-1.5029 4.2573 -1.7302 0.9808
-2.8158 5.8902 -2.5019 0.9724
-3.0232 5.7865 -2.5019 0.9724
-3.8122 5.3001 -2.5019 0.9724
-4.1789 5.0162 -2.5020 0.9724
-4.5244 4.7069 -2.5020 0.9724
-4.6888 4.5433 -2.5020 0.9724
3.3715 5.0987 -2.5017 0.9739
1.6522 4.2459 -1.8647 0.9805
1.1471 4.2347 -1.7956 0.9812
0.6762 4.2453 -1.7594 0.9816
0.5222 4.2442 -1.7502 0.9817
0.3697 4.2433 -1.7433 0.9818
-0.0833 4.2400 -1.7356 0.9818
-0.3855 4.2387 -1.7420 0.9818
-0.6906 4.2323 -1.7551 0.9816
-1.0006 4.2201 -1.7751 0.9814
-1.4951 4.2350 -1.8381 0.9808
-2.2383 5.6884 -2.5019 0.9739
-2.8307 5.4181 -2.5019 0.9739
-3.3910 5.0863 -2.5019 0.9739
-3.5695 4.9627 -2.5019 0.9739
-3.7435 4.8328 -2.5019 0.9739
-4.0772 4.5549 -2.5020 0.9739
-4.3902 4.2540 -2.5020 0.9739
2.9941 4.8976 -2.5017 0.9753
2.6389 5.0978 -2.5017 0.9753
2.4562 5.1883 -2.5017 0.9753
2.2704 5.2723 -2.5017 0.9753
1.6669 4.2838 -2.0033 0.9801
1.4551 4.1722 -1.9257 0.9809
1.2907 4.1717 -1.9031 0.9811
1.1437 4.2222 -1.9064 0.9811
0.9895 4.2452 -1.8997 0.9812
0.8307 4.2399 -1.8829 0.9813
0.6750 4.2380 -1.8703 0.9814
0.5214 4.2375 -1.8607 0.9815
0.3692 4.2369 -1.8535 0.9816
0.2179 4.2368 -1.8489 0.9817
0.0672 4.2366 -1.8466 0.9817
-0.0833 4.2365 -1.8467 0.9817
-0.2340 4.2366 -1.8492 0.9817
-0.3854 4.2369 -1.8541 0.9816
-0.5376 4.2366 -1.8612 0.9815
-0.6905 4.2319 -1.8687 0.9815
-0.8449 4.2271 -1.8787 0.9814
-1.1469 4.1715 -1.8855 0.9813
-1.3125 4.1858 -1.9118 0.9810
-2.1020 5.3419 -2.5019 0.9753
-2.2904 5.2640 -2.5019 0.9753
-2.4759 5.1793 -2.5019 0.9753
-2.6583 5.0881 -2.5019 0.9753
-2.8374 4.9905 -2.5019 0.9753
-3.0128 4.8866 -2.5019 0.9753
-3.1845 4.7765 -2.5019 0.9753
-3.3521 4.6604 -2.5019 0.9753
-3.5155 4.5384 -2.5019 0.9753
-4.1229 3.9949 -2.5020 0.9753
2.8190 4.6112 -2.5017 0.9765
2.6534 4.7084 -2.5017 0.9765
2.3125 4.8849 -2.5017 0.9765
2.1376 4.9640 -2.5017 0.9765
1.6235 4.1722 -2.0723 0.9805
1.4560 4.1748 -2.0466 0.9807
0.9880 4.2387 -2.0146 0.9810
0.5216 4.2385 -1.9767 0.9814
0.0672 4.2382 -1.9620 0.9815
-0.2341 4.2381 -1.9647 0.9815
-0.3855 4.2383 -1.9699 0.9814
-0.9893 4.1728 -1.9851 0.9813
-1.1477 4.1743 -2.0039 0.9811
-2.3311 4.8764 -2.5019 0.9765
-2.5029 4.7906 -2.5019 0.9765
-2.6714 4.6987 -2.5019 0.9765
-2.9983 4.4972 -2.5019 0.9765
-3.1561 4.3879 -2.5019 0.9765
-3.3100 4.2731 -2.5019 0.9765
-3.4596 4.1528 -2.5019 0.9765
-3.8818 3.7613 -2.5019 0.9765
2.8130 4.2542 -2.5017 0.9775
2.6602 4.3514 -2.5017 0.9775
2.5039 4.4431 -2.5017 0.9775
2.1822 4.6097 -2.5017 0.9775
2.0171 4.6843 -2.5017 0.9775
1.6237 4.1727 -2.1963 0.9802
1.2921 4.1764 -2.1444 0.9807
1.1303 4.1726 -2.1205 0.9809
0.9870 4.2342 -2.1327 0.9808
0.8313 4.2427 -2.1207 0.9809
0.6752 4.2390 -2.1055 0.9811
0.5216 4.2392 -2.0951 0.9812
0.2180 4.2388 -2.0820 0.9813
-0.3854 4.2371 -2.0870 0.9812
-0.5377 4.2370 -2.0950 0.9812
-0.6907 4.2325 -2.1036 0.9811
-0.9898 4.1747 -2.1046 0.9811
-1.3088 4.1743 -2.1459 0.9807
-2.0350 4.6769 -2.5019 0.9775
-2.8293 4.2438 -2.5019 0.9775
-2.9782 4.1406 -2.5019 0.9775
-3.1234 4.0323 -2.5019 0.9775
2.5153 4.1144 -2.5017 0.9785
2.0634 4.3586 -2.5017 0.9785
1.2919 4.1756 -2.2675 0.9805
0.8319 4.2459 -2.2446 0.9807
0.5209 4.2333 -2.2127 0.9810
0.3689 4.2334 -2.2045 0.9810
-0.2338 4.2335 -2.1996 0.9811
-0.3850 4.2333 -2.2052 0.9810
-0.5372 4.2334 -2.2138 0.9810
-0.8338 4.1716 -2.2069 0.9810
-1.3087 4.1739 -2.2693 0.9805
-2.5310 4.1051 -2.5019 0.9785
-2.6752 4.0126 -2.5019 0.9785
-2.8160 3.9151 -2.5019 0.9785
-3.3421 3.4769 -2.5019 0.9785
2.5194 3.8101 -2.5017 0.9794
1.6564 4.2568 -2.5017 0.9794
1.4553 4.1727 -2.4204 0.9800
1.2912 4.1733 -2.3926 0.9803
1.1300 4.1714 -2.3671 0.9805
1.0369 4.4485 -2.5018 0.9794
0.8783 4.4825 -2.5018 0.9794
0.3965 4.5505 -2.5018 0.9794
-0.2519 4.5608 -2.5018 0.9794
-0.4137 4.5490 -2.5018 0.9794
-0.5750 4.5315 -2.5018 0.9794
-0.8953 4.4793 -2.5018 0.9794
-0.9895 4.1734 -2.3492 0.9806
-1.1477 4.1741 -2.3710 0.9805
-1.6726 4.2507 -2.5019 0.9794
-1.8225 4.1886 -2.5019 0.9794
-1.9701 4.1212 -2.5019 0.9794
-2.2577 3.9710 -2.5019 0.9794
-2.6673 3.7083 -2.5019 0.9794
-2.7973 3.6113 -2.5019 0.9794
-3.1656 3.2933 -2.5019 0.9794
-3.2806 3.1788 -2.5019 0.9794
2.2601 3.6970 -2.5017 0.9802
2.1274 3.7749 -2.5017 0.9802
1.9920 3.8481 -2.5017 0.9802
1.5714 4.0382 -2.5017 0.9802
1.4270 4.0915 -2.5017 0.9802
1.1329 4.1824 -2.5018 0.9802
0.8332 4.2523 -2.5018 0.9802
0.5292 4.3008 -2.5018 0.9802
-0.0852 4.3324 -2.5018 0.9802
-0.3925 4.3154 -2.5018 0.9802
-0.9997 4.2164 -2.5018 0.9802
-1.1488 4.1783 -2.5018 0.9802
-1.2965 4.1348 -2.5018 0.9802
-1.4425 4.0862 -2.5019 0.9802
-1.8690 3.9096 -2.5019 0.9802
-2.1418 3.7671 -2.5019 0.9802
-2.2742 3.6886 -2.5019 0.9802
-2.5303 3.5179 -2.5019 0.9802
-2.8902 3.2288 -2.5019 0.9802
-3.0030 3.1241 -2.5019 0.9802
-3.1121 3.0155 -2.5019 0.9802
