ply
format ascii 1.0
element vertex 500
property float32 x
property float32 y
property float32 z
property float32 I
end_header
-44.4027 -9.1807 7.9950 0.8318
-21.8200 -7.0055 4.0409 0.9111
-21.7781 -7.8573 4.0823 0.9102
-21.8038 -8.7555 4.1430 0.9090
-21.8449 -13.6899 3.9494 0.9009
-21.8847 -17.2170 2.9901 0.8940
-19.7167 -27.6489 -0.1912 0.8730
-19.7083 -27.6371 -0.9558 0.8730
-49.1690 3.9841 -2.5017 0.8207
-49.2369 -3.0327 -2.5017 0.8207
-49.0978 -4.7829 -2.5017 0.8207
-48.8965 -6.5270 -2.5017 0.8207
-48.6332 -8.2629 -2.5017 0.8207
-48.3084 -9.9882 -2.5017 0.8207
-47.9224 -11.7010 -2.5017 0.8207
-47.4756 -13.3989 -2.5017 0.8207
-46.9688 -15.0798 -2.5017 0.8207
-43.5757 -15.7217 -2.3493 0.8307
-42.9584 -17.2503 -2.3477 0.8308
-41.6119 -24.0590 -2.4377 0.8249
-41.1049 -25.7598 -2.4601 0.8234
-40.5275 -27.4537 -2.4825 0.8220
-39.8791 -29.1372 -2.5048 0.8205
-26.2409 -39.7153 -2.4141 0.8264
-21.5023 -41.5961 -2.3747 0.8290
-19.8233 -41.9431 -2.3527 0.8304
-16.2057 -46.5923 -2.5017 0.8207
-12.8508 -47.6269 -2.5017 0.8207
-34.0084 2.7557 -2.5017 0.8721
-34.0849 1.5437 -2.5017 0.8721
-34.0553 -2.0976 -2.5017 0.8721
-33.9591 -3.3082 -2.5017 0.8721
-33.8199 -4.5145 -2.5017 0.8721
-33.4132 -6.9085 -2.5017 0.8721
-33.1461 -8.0931 -2.5017 0.8721
-32.8372 -9.2675 -2.5017 0.8721
-32.4866 -10.4301 -2.5017 0.8721
-31.6625 -12.7143 -2.5017 0.8721
-31.1900 -13.8330 -2.5017 0.8721
-30.6779 -14.9341 -2.5017 0.8721
-27.7387 -16.0379 -2.3493 0.8794
-26.1202 -19.0844 -2.3719 0.8783
-24.9042 -21.0695 -2.3919 0.8774
-23.9065 -21.7313 -2.3689 0.8785
-22.9949 -22.4481 -2.3562 0.8791
-22.1847 -23.2554 -2.3566 0.8791
-21.3683 -24.0585 -2.3594 0.8789
-20.4570 -24.7533 -2.3546 0.8792
-19.5429 -25.4391 -2.3521 0.8793
-16.7367 -29.7330 -2.5017 0.8721
-15.6680 -30.3097 -2.5017 0.8721
-13.4726 -31.3473 -2.5017 0.8721
-11.2089 -32.2262 -2.5017 0.8721
-10.0551 -32.6046 -2.5017 0.8721
-8.8884 -32.9418 -2.5017 0.8721
-26.0497 -0.6755 -2.5017 0.9006
-25.8293 -3.4479 -2.5017 0.9006
-25.5187 -5.2762 -2.5017 0.9006
-25.3148 -6.1810 -2.5017 0.9006
-25.0788 -7.0779 -2.5017 0.9006
-24.8111 -7.9658 -2.5017 0.9006
-24.5119 -8.8437 -2.5017 0.9006
-23.4298 -11.4056 -2.5017 0.9006
-23.0091 -12.2322 -2.5017 0.9006
-22.5592 -13.0432 -2.5017 0.9006
-20.3417 -16.0031 -2.4848 0.9012
-19.6462 -16.6211 -2.4706 0.9018
-17.9869 -18.8551 -2.5017 0.9006
-16.6004 -20.0867 -2.5017 0.9006
-13.5823 -22.2389 -2.5017 0.9006
-11.1349 -23.5597 -2.5017 0.9006
-9.4310 -24.2920 -2.5017 0.9006
-7.6794 -24.9012 -2.5017 0.9006
-6.7884 -25.1587 -2.5017 0.9006
-20.9945 1.7012 -2.5020 0.9187
-20.9617 -2.0420 -2.5017 0.9187
-20.8758 -2.7866 -2.5017 0.9187
-20.7634 -3.5277 -2.5017 0.9187
-20.6247 -4.2643 -2.5017 0.9187
-20.4599 -4.9956 -2.5017 0.9187
-20.2692 -5.7205 -2.5017 0.9187
-19.5441 -7.8481 -2.5017 0.9187
-19.2524 -8.5386 -2.5017 0.9187
-17.8461 -11.1839 -2.5017 0.9187
-17.4368 -11.8119 -2.5017 0.9187
-17.0055 -12.4249 -2.5017 0.9187
-16.0787 -13.6029 -2.5017 0.9187
-15.0704 -14.7121 -2.5017 0.9187
-14.5374 -15.2390 -2.5017 0.9187
-13.9860 -15.7467 -2.5017 0.9187
-13.4167 -16.2344 -2.5017 0.9187
-12.8305 -16.7015 -2.5017 0.9187
-12.2281 -17.1475 -2.5017 0.9187
-11.6102 -17.5718 -2.5017 0.9187
-10.9775 -17.9738 -2.5017 0.9187
-10.3309 -18.3531 -2.5017 0.9187
-8.3161 -19.3496 -2.5017 0.9187
-6.9188 -19.8920 -2.5017 0.9187
-5.4865 -20.3338 -2.5017 0.9187
-17.6564 0.1707 -2.5018 0.9312
-17.6509 -0.4577 -2.5018 0.9312
-17.6231 -1.0855 -2.5017 0.9312
-17.5733 -1.7119 -2.5017 0.9312
-17.4071 -2.9575 -2.5017 0.9312
-17.2908 -3.5750 -2.5017 0.9312
-16.8113 -5.3974 -2.5017 0.9312
-16.1404 -7.1583 -2.5017 0.9312
-14.9614 -9.3761 -2.5017 0.9312
-14.6183 -9.9025 -2.5017 0.9312
-14.2566 -10.4164 -2.5017 0.9312
-13.8769 -10.9172 -2.5017 0.9312
-12.6344 -12.3339 -2.5017 0.9312
-12.1875 -12.7757 -2.5017 0.9312
-11.7251 -13.2013 -2.5017 0.9312
-11.2479 -13.6102 -2.5017 0.9312
-10.7565 -14.0018 -2.5017 0.9312
-9.7334 -14.7314 -2.5017 0.9312
-9.2030 -15.0684 -2.5017 0.9312
-8.1080 -15.6848 -2.5017 0.9312
-7.5444 -15.9634 -2.5017 0.9312
-6.9717 -16.2218 -2.5017 0.9312
-6.3902 -16.4596 -2.5017 0.9312
-5.2033 -16.8724 -2.5017 0.9312
-15.1712 0.6871 -2.5019 0.9403
-15.1858 0.1468 -2.5018 0.9403
-15.1145 -1.4724 -2.5017 0.9403
-15.0526 -2.0093 -2.5017 0.9403
-14.9715 -2.5437 -2.5017 0.9403
-14.6152 -4.1248 -2.5017 0.9403
-14.2848 -5.1538 -2.5017 0.9403
-14.0923 -5.6589 -2.5017 0.9403
-13.8820 -6.1568 -2.5017 0.9403
-11.9353 -9.3897 -2.5017 0.9403
-11.2372 -10.2148 -2.5017 0.9403
-10.4822 -10.9882 -2.5017 0.9403
-10.0846 -11.3542 -2.5017 0.9403
-8.3715 -12.6702 -2.5017 0.9403
-7.9154 -12.9601 -2.5017 0.9403
-7.4492 -13.2336 -2.5017 0.9403
-6.9735 -13.4903 -2.5017 0.9403
-5.9964 -13.9521 -2.5017 0.9403
-5.4961 -14.1566 -2.5017 0.9403
-4.4752 -14.5117 -2.5017 0.9403
-13.2671 1.0750 -2.5019 0.9473
-13.2967 0.6022 -2.5018 0.9473
-13.3096 0.1287 -2.5018 0.9473
-13.2472 -1.2905 -2.5017 0.9473
-13.1929 -1.7611 -2.5017 0.9473
-13.0342 -2.6950 -2.5017 0.9473
-12.9301 -3.1571 -2.5017 0.9473
-12.6728 -4.0687 -2.5017 0.9473
-12.5200 -4.5171 -2.5017 0.9473
-12.3513 -4.9598 -2.5017 0.9473
-12.1670 -5.3961 -2.5017 0.9473
-11.9672 -5.8257 -2.5017 0.9473
-11.7524 -6.2479 -2.5017 0.9473
-11.5226 -6.6621 -2.5017 0.9473
-11.2782 -7.0679 -2.5017 0.9473
-10.1613 -8.5967 -2.5017 0.9473
-9.8489 -8.9528 -2.5017 0.9473
-9.1872 -9.6306 -2.5017 0.9473
-8.8387 -9.9514 -2.5017 0.9473
-8.4789 -10.2597 -2.5017 0.9473
-8.1085 -10.5549 -2.5017 0.9473
-7.3373 -11.1049 -2.5017 0.9473
-6.5288 -11.5986 -2.5017 0.9473
-6.1120 -11.8236 -2.5017 0.9473
-5.6874 -12.0336 -2.5017 0.9473
-4.8171 -12.4076 -2.5017 0.9473
-11.8235 0.5355 -2.5018 0.9528
-11.8349 0.1144 -2.5018 0.9528
-11.7312 -1.5660 -2.5017 0.9528
-11.6681 -1.9824 -2.5017 0.9528
-11.5901 -2.3964 -2.5017 0.9528
-11.4975 -2.8073 -2.5017 0.9528
-11.2687 -3.6179 -2.5017 0.9528
-10.9829 -4.4103 -2.5017 0.9528
-10.8190 -4.7983 -2.5017 0.9528
-10.6414 -5.1802 -2.5017 0.9528
-10.4503 -5.5556 -2.5017 0.9528
-10.2460 -5.9240 -2.5017 0.9528
-9.3018 -7.3179 -2.5017 0.9528
-8.7577 -7.9609 -2.5017 0.9528
-8.1693 -8.5636 -2.5017 0.9528
-7.5396 -9.1230 -2.5017 0.9528
-6.8716 -9.6361 -2.5017 0.9528
-6.1688 -10.1005 -2.5017 0.9528
-5.4348 -10.5136 -2.5017 0.9528
-5.0572 -10.7004 -2.5017 0.9528
-4.6733 -10.8736 -2.5017 0.9528
-4.2834 -11.0330 -2.5017 0.9528
-3.4878 -11.3097 -2.5017 0.9528
-10.6339 0.4816 -2.5018 0.9572
-10.6442 0.1029 -2.5018 0.9572
-10.6411 -0.2759 -2.5017 0.9572
-10.6245 -0.6544 -2.5017 0.9572
-10.5511 -1.4084 -2.5017 0.9572
-10.4242 -2.1553 -2.5017 0.9572
-9.8780 -3.9666 -2.5017 0.9572
-9.3990 -4.9967 -2.5017 0.9572
-9.2153 -5.3280 -2.5017 0.9572
-8.5949 -6.2798 -2.5017 0.9572
-8.3660 -6.5817 -2.5017 0.9572
-8.1265 -6.8752 -2.5017 0.9572
-7.8767 -7.1600 -2.5017 0.9572
-7.6170 -7.4358 -2.5017 0.9572
-7.3475 -7.7021 -2.5017 0.9572
-7.0688 -7.9587 -2.5017 0.9572
-6.1803 -8.6667 -2.5017 0.9572
-5.8680 -8.8812 -2.5017 0.9572
-5.2215 -9.2761 -2.5017 0.9572
-4.5485 -9.6239 -2.5017 0.9572
-4.2031 -9.7797 -2.5017 0.9572
-3.1369 -10.1720 -2.5017 0.9572
-2.7730 -10.2771 -2.5017 0.9572
-9.6618 0.0934 -2.5017 0.9609
-9.6591 -0.2505 -2.5017 0.9609
-9.6440 -0.5940 -2.5017 0.9609
-9.6168 -0.9368 -2.5017 0.9609
-9.5773 -1.2784 -2.5017 0.9609
-9.4621 -1.9564 -2.5017 0.9609
-9.2991 -2.6244 -2.5017 0.9609
-9.1997 -2.9537 -2.5017 0.9609
-9.0888 -3.2792 -2.5017 0.9609
-8.9664 -3.6005 -2.5017 0.9609
-8.8326 -3.9173 -2.5017 0.9609
-8.6876 -4.2291 -2.5017 0.9609
-7.9996 -5.4190 -2.5017 0.9609
-7.8017 -5.7003 -2.5017 0.9609
-7.1498 -6.4993 -2.5017 0.9609
-6.9140 -6.7496 -2.5017 0.9609
-6.6694 -6.9913 -2.5017 0.9609
-6.4164 -7.2242 -2.5017 0.9609
-6.1553 -7.4480 -2.5017 0.9609
-5.6100 -7.8669 -2.5017 0.9609
-5.0362 -8.2460 -2.5017 0.9609
-3.4970 -9.0073 -2.5017 0.9609
-2.8475 -9.2332 -2.5017 0.9609
-2.5171 -9.3287 -2.5017 0.9609
-8.8342 -0.2291 -2.5017 0.9639
-8.8205 -0.5433 -2.5017 0.9639
-8.7123 -1.4802 -2.5017 0.9639
-8.5049 -2.4003 -2.5017 0.9639
-8.4141 -2.7014 -2.5017 0.9639
-8.3127 -2.9991 -2.5017 0.9639
-7.8030 -4.1483 -2.5017 0.9639
-7.6505 -4.4233 -2.5017 0.9639
-7.3165 -4.9563 -2.5017 0.9639
-7.1355 -5.2135 -2.5017 0.9639
-6.9455 -5.4641 -2.5017 0.9639
-6.0999 -6.3943 -2.5017 0.9639
-4.6061 -7.5418 -2.5017 0.9639
-4.3349 -7.7010 -2.5017 0.9639
-3.7761 -7.9898 -2.5017 0.9639
-3.4894 -8.1191 -2.5017 0.9639
-3.1983 -8.2381 -2.5017 0.9639
-2.9031 -8.3467 -2.5017 0.9639
-2.6043 -8.4447 -2.5017 0.9639
-8.1254 0.3680 -2.5017 0.9665
-8.1333 0.0786 -2.5017 0.9665
-8.1183 -0.5000 -2.5017 0.9665
-8.0953 -0.7886 -2.5017 0.9665
-8.0622 -1.0762 -2.5017 0.9665
-7.9652 -1.6469 -2.5017 0.9665
-7.9016 -1.9293 -2.5017 0.9665
-7.3132 -3.5601 -2.5017 0.9665
-7.1819 -3.8180 -2.5017 0.9665
-7.0415 -4.0712 -2.5017 0.9665
-6.5674 -4.7984 -2.5017 0.9665
-6.3925 -5.0291 -2.5017 0.9665
-6.0187 -5.4710 -2.5017 0.9665
-5.8201 -5.6818 -2.5017 0.9665
-5.6143 -5.8853 -2.5017 0.9665
-4.7224 -6.6223 -2.5017 0.9665
-4.4838 -6.7862 -2.5017 0.9665
-3.7350 -7.2254 -2.5017 0.9665
-3.4755 -7.3537 -2.5017 0.9665
-2.3970 -7.7725 -2.5017 0.9665
-2.1189 -7.8528 -2.5017 0.9665
-7.5016 0.6078 -2.5018 0.9688
-7.5184 0.3405 -2.5017 0.9688
-7.5236 -0.1951 -2.5017 0.9688
-7.4198 -1.2606 -2.5017 0.9688
-7.2432 -2.0442 -2.5017 0.9688
-7.1659 -2.3007 -2.5017 0.9688
-6.9841 -2.8045 -2.5017 0.9688
-6.8799 -3.0513 -2.5017 0.9688
-6.7670 -3.2942 -2.5017 0.9688
-6.6454 -3.5329 -2.5017 0.9688
-6.5155 -3.7671 -2.5017 0.9688
-6.3773 -3.9966 -2.5017 0.9688
-6.2311 -4.2210 -2.5017 0.9688
-6.0769 -4.4401 -2.5017 0.9688
-5.9151 -4.6535 -2.5017 0.9688
-5.5691 -5.0624 -2.5017 0.9688
-5.3855 -5.2574 -2.5017 0.9688
-4.7945 -5.8014 -2.5017 0.9688
-4.5850 -5.9683 -2.5017 0.9688
-4.1489 -6.2793 -2.5017 0.9688
-3.9228 -6.4230 -2.5017 0.9688
-3.6918 -6.5585 -2.5017 0.9688
-3.4560 -6.6857 -2.5017 0.9688
-3.2160 -6.8045 -2.5017 0.9688
-1.9606 -7.2663 -2.5017 0.9688
-6.9825 -0.4301 -2.5017 0.9707
-6.9343 -0.9256 -2.5017 0.9707
-6.8969 -1.1718 -2.5017 0.9707
-6.7961 -1.6594 -2.5017 0.9707
-6.5806 -2.3742 -2.5017 0.9707
-6.3950 -2.8362 -2.5017 0.9707
-6.1771 -3.2839 -2.5017 0.9707
-5.9279 -3.7150 -2.5017 0.9707
-5.6487 -4.1272 -2.5017 0.9707
-5.3408 -4.5185 -2.5017 0.9707
-5.1766 -4.7057 -2.5017 0.9707
-4.8288 -5.0619 -2.5017 0.9707
-4.4566 -5.3925 -2.5017 0.9707
-3.6464 -5.9703 -2.5017 0.9707
-3.4316 -6.0963 -2.5017 0.9707
-2.9893 -6.3249 -2.5017 0.9707
-2.7624 -6.4273 -2.5017 0.9707
-2.2982 -6.6075 -2.5017 0.9707
-2.0616 -6.6851 -2.5017 0.9707
-6.5159 -0.4013 -2.5017 0.9724
-6.4975 -0.6330 -2.5017 0.9724
-6.4360 -1.0935 -2.5017 0.9724
-6.3419 -1.5485 -2.5017 0.9724
-6.2828 -1.7732 -2.5017 0.9724
-6.1408 -2.2155 -2.5017 0.9724
-5.9676 -2.6467 -2.5017 0.9724
-5.8697 -2.8574 -2.5017 0.9724
-5.5317 -3.4667 -2.5017 0.9724
-5.1308 -4.0365 -2.5017 0.9724
-4.6714 -4.5603 -2.5017 0.9724
-3.9770 -5.1770 -2.5017 0.9724
-3.5988 -5.4467 -2.5017 0.9724
-3.2023 -5.6889 -2.5017 0.9724
-2.5777 -5.9978 -2.5017 0.9724
-1.9238 -6.2383 -2.5017 0.9724
-6.0926 0.4937 -2.5017 0.9739
-6.1106 -0.1585 -2.5017 0.9739
-6.1010 -0.3758 -2.5017 0.9739
-6.0262 -1.0239 -2.5017 0.9739
-5.9860 -1.2377 -2.5017 0.9739
-5.9382 -1.4499 -2.5017 0.9739
-5.8828 -1.6603 -2.5017 0.9739
-5.8200 -1.8686 -2.5017 0.9739
-5.7498 -2.0745 -2.5017 0.9739
-5.5877 -2.4782 -2.5017 0.9739
-5.4960 -2.6755 -2.5017 0.9739
-5.2918 -3.0596 -2.5017 0.9739
-5.1796 -3.2460 -2.5017 0.9739
-4.6666 -3.9480 -2.5017 0.9739
-4.0592 -4.5702 -2.5017 0.9739
-3.8940 -4.7118 -2.5017 0.9739
-3.7239 -4.8474 -2.5017 0.9739
-3.5490 -4.9768 -2.5017 0.9739
-3.3696 -5.1000 -2.5017 0.9739
-2.9984 -5.3267 -2.5017 0.9739
-2.4136 -5.6159 -2.5017 0.9739
-2.2123 -5.6983 -2.5017 0.9739
-2.0081 -5.7734 -2.5017 0.9739
-1.5924 -5.9016 -2.5017 0.9739
-5.7401 0.0555 -2.5017 0.9753
-5.7384 -0.1488 -2.5017 0.9753
-5.7295 -0.3529 -2.5017 0.9753
-5.6899 -0.7595 -2.5017 0.9753
-5.6593 -0.9615 -2.5017 0.9753
-5.5765 -1.3616 -2.5017 0.9753
-5.5245 -1.5592 -2.5017 0.9753
-5.4656 -1.7548 -2.5017 0.9753
-5.3996 -1.9481 -2.5017 0.9753
-5.2474 -2.3273 -2.5017 0.9753
-5.1613 -2.5125 -2.5017 0.9753
-5.0686 -2.6946 -2.5017 0.9753
-4.6350 -3.3865 -2.5017 0.9753
-4.5116 -3.5493 -2.5017 0.9753
-4.3824 -3.7076 -2.5017 0.9753
-3.9623 -4.1535 -2.5017 0.9753
-3.8120 -4.2919 -2.5017 0.9753
-3.1644 -4.7894 -2.5017 0.9753
-2.8158 -5.0023 -2.5017 0.9753
-2.0775 -5.3512 -2.5017 0.9753
-1.6917 -5.4854 -2.5017 0.9753
-1.4954 -5.5422 -2.5017 0.9753
-5.3870 0.4365 -2.5017 0.9765
-5.3991 0.2445 -2.5017 0.9765
-5.4044 0.0522 -2.5017 0.9765
-5.4029 -0.1401 -2.5017 0.9765
-5.3944 -0.3323 -2.5017 0.9765
-5.3283 -0.9053 -2.5017 0.9765
-5.2504 -1.2820 -2.5017 0.9765
-5.2015 -1.4680 -2.5017 0.9765
-5.0154 -2.0140 -2.5017 0.9765
-4.8595 -2.3656 -2.5017 0.9765
-4.5797 -2.8700 -2.5017 0.9765
-4.4746 -3.0312 -2.5017 0.9765
-4.3639 -3.1885 -2.5017 0.9765
-4.1261 -3.4908 -2.5017 0.9765
-3.9993 -3.6354 -2.5017 0.9765
-3.5890 -4.0409 -2.5017 0.9765
-3.4430 -4.1661 -2.5017 0.9765
-3.2926 -4.2860 -2.5017 0.9765
-3.1380 -4.4004 -2.5017 0.9765
-2.9794 -4.5093 -2.5017 0.9765
-2.1341 -4.9655 -2.5017 0.9765
-1.7755 -5.1047 -2.5017 0.9765
-1.4079 -5.2181 -2.5017 0.9765
-5.0835 0.4119 -2.5017 0.9775
-5.0905 -0.3135 -2.5017 0.9775
-5.0761 -0.4945 -2.5017 0.9775
-5.0553 -0.6748 -2.5017 0.9775
-5.0281 -0.8543 -2.5017 0.9775
-4.9945 -1.0327 -2.5017 0.9775
-4.9546 -1.2097 -2.5017 0.9775
-4.9084 -1.3853 -2.5017 0.9775
-4.6622 -2.0677 -2.5017 0.9775
-4.5856 -2.2323 -2.5017 0.9775
-4.3216 -2.7083 -2.5017 0.9775
-4.2225 -2.8604 -2.5017 0.9775
-4.0084 -3.1535 -2.5017 0.9775
-3.6495 -3.5627 -2.5017 0.9775
-3.3868 -3.8132 -2.5017 0.9775
-2.9612 -4.1525 -2.5017 0.9775
-2.8115 -4.2552 -2.5017 0.9775
-1.8458 -4.7544 -2.5017 0.9775
-1.3286 -4.9240 -2.5017 0.9775
-4.8066 0.3895 -2.5017 0.9785
-4.8174 0.2182 -2.5017 0.9785
-4.8221 0.0466 -2.5017 0.9785
-4.8207 -0.1250 -2.5017 0.9785
-4.7996 -0.4676 -2.5017 0.9785
-4.7542 -0.8078 -2.5017 0.9785
-4.6847 -1.1438 -2.5017 0.9785
-4.5915 -1.4742 -2.5017 0.9785
-4.5361 -1.6366 -2.5017 0.9785
-4.4750 -1.7970 -2.5017 0.9785
-4.2580 -2.2637 -2.5017 0.9785
-4.1748 -2.4138 -2.5017 0.9785
-4.0863 -2.5608 -2.5017 0.9785
-3.9925 -2.7046 -2.5017 0.9785
-3.7901 -2.9817 -2.5017 0.9785
-3.6815 -3.1147 -2.5017 0.9785
-3.2024 -3.6056 -2.5017 0.9785
-2.9378 -3.8242 -2.5017 0.9785
-2.7999 -3.9263 -2.5017 0.9785
-2.5135 -4.1155 -2.5017 0.9785
-2.2144 -4.2839 -2.5017 0.9785
-1.9042 -4.4305 -2.5017 0.9785
-1.7453 -4.4955 -2.5017 0.9785
-1.5842 -4.5547 -2.5017 0.9785
-4.5528 0.3689 -2.5017 0.9794
-4.5630 0.2067 -2.5017 0.9794
-4.5662 -0.1184 -2.5017 0.9794
-4.5590 -0.2808 -2.5017 0.9794
-4.5462 -0.4429 -2.5017 0.9794
-4.5275 -0.6044 -2.5017 0.9794
-4.5031 -0.7651 -2.5017 0.9794
-4.4731 -0.9249 -2.5017 0.9794
-4.4373 -1.0834 -2.5017 0.9794
-4.3960 -1.2407 -2.5017 0.9794
-4.3490 -1.3963 -2.5017 0.9794
-4.2387 -1.7021 -2.5017 0.9794
-4.1754 -1.8518 -2.5017 0.9794
-4.1069 -1.9993 -2.5017 0.9794
-3.8704 -2.4256 -2.5017 0.9794
-3.7817 -2.5617 -2.5017 0.9794
-3.6881 -2.6947 -2.5017 0.9794
-3.4871 -2.9502 -2.5017 0.9794
-2.9098 -3.5209 -2.5017 0.9794
-2.7827 -3.6222 -2.5017 0.9794
-2.3808 -3.8982 -2.5017 0.9794
-2.2405 -3.9804 -2.5017 0.9794
-2.0975 -4.0576 -2.5017 0.9794
-1.9518 -4.1297 -2.5017 0.9794
-1.8036 -4.1965 -2.5017 0.9794
-1.5006 -4.3142 -2.5017 0.9794
-1.1899 -4.4100 -2.5017 0.9794
-4.3287 0.1960 -2.5017 0.9802
-4.3249 -0.2664 -2.5017 0.9802
-4.3127 -0.4201 -2.5017 0.9802
-4.2950 -0.5733 -2.5017 0.9802
-4.2434 -0.8774 -2.5017 0.9802
-4.2095 -1.0278 -2.5017 0.9802
-4.1702 -1.1770 -2.5017 0.9802
-4.0760 -1.4706 -2.5017 0.9802
-3.9610 -1.7567 -2.5017 0.9802
-3.8960 -1.8966 -2.5017 0.9802
-3.8261 -2.0340 -2.5017 0.9802
-3.7513 -2.1689 -2.5017 0.9802
-3.5875 -2.4302 -2.5017 0.9802
-3.2064 -2.9147 -2.5017 0.9802
-3.1006 -3.0269 -2.5017 0.9802
-2.8775 -3.2398 -2.5017 0.9802
-2.6398 -3.4362 -2.5017 0.9802
-2.3887 -3.6153 -2.5017 0.9802
-2.2586 -3.6980 -2.5017 0.9802
-2.1255 -3.7760 -2.5017 0.9802
-1.7110 -3.9810 -2.5017 0.9802
-1.2770 -4.1407 -2.5017 0.9802
