ply
format ascii 1.0
element vertex 579
property float32 x
property float32 y
property float32 z
property float32 I
end_header
22.3688 14.4384 4.6945 0.8975
20.7453 14.4785 4.4607 0.9023
19.2739 14.5148 4.2544 0.9066
18.0376 14.6344 4.0957 0.9100
16.6972 14.5783 3.9084 0.9139
16.1474 15.1608 3.9055 0.9140
16.3263 19.0534 4.4243 0.9031
16.2477 20.4105 4.6000 0.8995
16.3573 22.1454 4.8545 0.8942
16.4024 23.9732 5.1218 0.8887
22.3689 14.4384 4.0786 0.8979
20.7453 14.4785 3.8755 0.9027
18.0376 14.6344 3.5583 0.9103
16.6972 14.5784 3.3957 0.9142
16.1474 15.1608 3.3931 0.9143
16.1162 16.2665 3.5079 0.9115
16.2458 17.6281 3.6724 0.9075
16.3263 19.0534 3.8439 0.9034
16.2477 20.4105 3.9965 0.8998
16.4528 26.0167 4.7157 0.8829
31.1250 14.2223 4.4562 0.8711
30.7502 15.4177 4.4794 0.8704
30.7597 16.8400 4.5665 0.8681
30.8941 18.3948 4.6822 0.8650
22.3689 14.4384 3.4670 0.8982
20.7453 14.4785 3.2943 0.9030
19.2739 14.5148 3.1420 0.9073
16.6972 14.5783 2.8865 0.9145
16.1162 16.2665 2.9818 0.9118
16.2458 17.6281 3.1217 0.9078
16.2478 20.4105 3.3972 0.9001
16.4024 23.9732 3.7826 0.8894
34.1762 14.1471 3.9719 0.8617
30.8215 15.4534 3.7024 0.8705
22.3688 14.4384 2.8589 0.8984
20.7453 14.4785 2.7166 0.9032
16.1859 15.1969 2.3841 0.9146
16.2147 16.3659 2.4739 0.9115
16.2458 17.6281 2.5742 0.9081
16.2796 18.9989 2.6867 0.9042
16.3166 20.4970 2.8132 0.9000
16.4024 23.9732 3.1192 0.8897
34.1762 14.1471 3.1312 0.8620
19.2739 14.5148 2.0425 0.9077
17.9309 14.5479 1.9547 0.9115
16.1859 15.1969 1.8795 0.9147
16.2797 18.9989 2.1180 0.9044
16.3573 22.1454 2.3306 0.8954
16.3834 25.9069 2.5948 0.8842
37.7695 14.0584 2.4991 0.8509
34.1762 14.1471 2.2937 0.8622
31.1250 14.2223 2.1220 0.8718
30.8570 16.8933 2.1814 0.8685
22.3688 14.4384 1.6510 0.8988
20.7453 14.4785 1.5687 0.9036
19.2739 14.5148 1.4962 0.9078
17.9309 14.5479 1.4318 0.9116
16.2147 16.3659 1.4286 0.9118
16.2458 17.6281 1.4865 0.9084
16.2797 18.9989 1.5515 0.9046
16.3166 20.4970 1.6246 0.9003
16.4024 23.9732 1.8012 0.8901
16.4528 26.0167 1.9088 0.8839
37.7695 14.0584 1.5891 0.8510
34.1763 14.1471 1.4585 0.8624
31.1250 14.2223 1.3493 0.8720
30.7243 15.4047 1.3552 0.8715
24.4189 13.3686 1.0977 0.8945
30.8263 18.3545 1.4147 0.8662
22.3688 14.4384 1.0498 0.8989
19.2739 14.5148 0.9514 0.9079
16.6972 14.5783 0.8740 0.9151
16.1474 15.1608 0.8734 0.9152
16.1162 16.2665 0.9029 0.9124
16.2458 17.6281 0.9453 0.9085
16.3263 19.0534 0.9894 0.9044
16.3573 22.1454 1.0856 0.8956
37.7695 14.0584 0.6808 0.8511
34.1762 14.1471 0.6248 0.8625
22.3688 14.4384 0.4497 0.8990
20.7453 14.4785 0.4273 0.9037
19.2739 14.5148 0.4076 0.9080
16.1474 15.1608 0.3741 0.9152
16.3573 22.1454 0.4651 0.8957
15.4134 24.3731 0.4871 0.8910
37.7695 14.0584 -0.2269 0.8511
34.1763 14.1471 -0.2083 0.8625
31.1250 14.2223 -0.1927 0.8721
24.9579 12.5135 -0.1572 0.8943
22.3689 14.4384 -0.1499 0.8990
19.2739 14.5148 -0.1358 0.9080
17.9309 14.5479 -0.1300 0.9118
16.6972 14.5783 -0.1248 0.9152
16.2147 16.3659 -0.1297 0.9120
16.2797 18.9989 -0.1409 0.9048
16.3166 20.4970 -0.1475 0.9005
16.3573 22.1454 -0.1550 0.8957
16.4024 23.9732 -0.1635 0.8903
37.7695 14.0584 -1.1348 0.8511
34.1762 14.1471 -1.0415 0.8624
31.1250 14.2223 -0.9636 0.8720
22.3689 14.4384 -0.7497 0.8989
20.7453 14.4785 -0.7123 0.9037
17.9309 14.5479 -0.6502 0.9117
16.3166 20.4970 -0.7377 0.9005
16.3573 22.1454 -0.7752 0.8957
16.4024 23.9732 -0.8179 0.8903
46.0535 -17.6789 -2.5017 0.8207
47.2101 -14.3066 -2.5017 0.8207
49.0126 -5.5884 -2.5017 0.8207
49.2883 -2.0340 -2.5017 0.8207
49.3296 -0.2517 -2.5017 0.8207
49.0671 5.0881 -2.5017 0.8207
48.8512 6.8578 -2.5017 0.8207
48.2283 10.3681 -2.5017 0.8207
47.8222 12.1040 -2.5017 0.8207
38.2575 12.6859 -2.0441 0.8509
24.9579 12.5135 -1.4159 0.8942
22.3688 14.4384 -1.3502 0.8989
20.7453 14.4785 -1.2830 0.9036
19.2739 14.5148 -1.2236 0.9079
17.9309 14.5479 -1.1710 0.9117
16.1859 15.1969 -1.1260 0.9149
16.2147 16.3659 -1.1684 0.9119
16.2458 17.6281 -1.2157 0.9085
16.3166 20.4970 -1.3286 0.9004
16.3573 22.1454 -1.3962 0.8956
31.8536 -12.2278 -2.5017 0.8721
32.2746 -11.0688 -2.5017 0.8721
33.2829 -7.5112 -2.5017 0.8721
34.1035 1.0590 -2.5017 0.8721
33.5951 5.9611 -2.5017 0.8721
32.4031 8.2014 -2.4508 0.8745
30.7575 8.9792 -2.3493 0.8794
28.4250 10.5802 -2.2239 0.8855
28.0241 11.6004 -2.2239 0.8855
24.0294 13.1554 -2.0086 0.8959
23.3016 13.8741 -1.9884 0.8969
22.3688 14.4384 -1.9521 0.8987
19.2739 14.5148 -1.7691 0.9078
17.9309 14.5479 -1.6930 0.9115
16.1859 15.1969 -1.6279 0.9148
16.2147 16.3659 -1.6892 0.9117
16.2458 17.6281 -1.7577 0.9083
16.3166 20.4970 -1.9209 0.9003
16.4024 23.9732 -2.1298 0.8900
15.4087 24.3657 -2.1138 0.8908
24.3276 -9.3388 -2.5017 0.9006
24.6492 -8.4536 -2.5017 0.9006
25.4192 -5.7365 -2.5017 0.9006
26.0582 -0.1329 -2.5017 0.9006
26.0460 0.8088 -2.5017 0.9006
25.9997 1.7494 -2.5017 0.9006
25.9195 2.6878 -2.5017 0.9006
25.6577 4.5527 -2.5017 0.9006
25.2619 6.3939 -2.5017 0.9006
25.0144 7.3026 -2.5017 0.9006
22.6105 9.3595 -2.3493 0.9063
22.1965 10.1425 -2.3429 0.9066
20.3185 11.1237 -2.2239 0.9111
18.9954 13.2572 -2.2239 0.9111
14.9297 11.2432 -1.7943 0.9276
16.6972 14.5783 -2.1280 0.9148
16.1859 15.1969 -2.1315 0.9146
15.0723 17.5899 -2.2239 0.9111
12.3809 19.5778 -2.2239 0.9111
19.6620 -7.5478 -2.5017 0.9187
19.9219 -6.8324 -2.5017 0.9187
20.1558 -6.1080 -2.5017 0.9187
20.3634 -5.3757 -2.5017 0.9187
20.9979 -1.6282 -2.5017 0.9187
21.0607 -0.1074 -2.5017 0.9187
21.0508 0.6537 -2.5017 0.9187
21.0135 1.4139 -2.5017 0.9187
20.9487 2.1723 -2.5017 0.9187
20.8565 2.9279 -2.5017 0.9187
20.7370 3.6796 -2.5017 0.9187
20.5906 4.4265 -2.5017 0.9187
20.4172 5.1677 -2.5017 0.9187
20.2171 5.9021 -2.5017 0.9187
19.9906 6.6287 -2.5017 0.9187
19.4597 8.0552 -2.5017 0.9187
17.6802 8.8646 -2.3493 0.9234
17.3483 9.4977 -2.3493 0.9234
14.8156 11.1574 -2.2031 0.9280
14.1028 12.3132 -2.2239 0.9274
13.1767 13.2996 -2.2239 0.9274
12.1817 14.2165 -2.2239 0.9274
11.1232 15.0591 -2.2239 0.9274
10.0065 15.8232 -2.2239 0.9274
16.7017 -5.7279 -2.5017 0.9312
16.8977 -5.1207 -2.5017 0.9312
17.0717 -4.5067 -2.5017 0.9312
17.4592 -2.6328 -2.5017 0.9312
17.5429 -2.0002 -2.5017 0.9312
17.6563 -0.0901 -2.5017 0.9312
17.6481 0.5480 -2.5017 0.9312
17.6167 1.1854 -2.5017 0.9312
17.4851 2.4546 -2.5017 0.9312
17.3850 3.0848 -2.5017 0.9312
17.2622 3.7110 -2.5017 0.9312
16.7592 5.5572 -2.5017 0.9312
16.3141 6.7531 -2.5017 0.9312
16.0594 7.3382 -2.5017 0.9312
15.7838 7.9137 -2.5017 0.9312
14.2468 8.4827 -2.3493 0.9352
13.2452 9.9746 -2.3493 0.9352
12.6257 10.2436 -2.3037 0.9364
11.4424 10.7433 -2.2239 0.9386
11.0467 11.1497 -2.2239 0.9386
10.2126 11.9185 -2.2239 0.9386
9.7753 12.2797 -2.2239 0.9386
9.3251 12.6249 -2.2239 0.9386
8.8629 12.9536 -2.2239 0.9386
8.3890 13.2654 -2.2239 0.9386
14.1774 -5.4424 -2.5017 0.9403
14.6831 -3.8762 -2.5017 0.9403
14.8136 -3.3431 -2.5017 0.9403
14.9247 -2.8056 -2.5017 0.9403
15.0163 -2.2645 -2.5017 0.9403
15.0883 -1.7204 -2.5017 0.9403
15.1051 1.5663 -2.5017 0.9403
15.0386 2.1111 -2.5017 0.9403
14.9526 2.6532 -2.5017 0.9403
14.7219 3.7262 -2.5017 0.9403
14.2322 5.2974 -2.5017 0.9403
14.0315 5.8082 -2.5017 0.9403
13.8124 6.3115 -2.5017 0.9403
13.5753 6.8065 -2.5017 0.9403
13.3205 7.2926 -2.5017 0.9403
12.6949 8.1943 -2.4892 0.9406
11.7739 8.2172 -2.3653 0.9435
11.3920 8.5790 -2.3493 0.9438
10.7426 9.3794 -2.3493 0.9438
10.3967 9.7614 -2.3493 0.9438
8.7837 10.2509 -2.2239 0.9467
8.4075 10.5616 -2.2239 0.9467
8.0204 10.8585 -2.2239 0.9467
12.4258 -4.7700 -2.5017 0.9473
12.8691 -3.3973 -2.5017 0.9473
12.9834 -2.9301 -2.5017 0.9473
13.0808 -2.4590 -2.5017 0.9473
13.1611 -1.9847 -2.5017 0.9473
13.2986 -0.5488 -2.5017 0.9473
13.3098 -0.0679 -2.5017 0.9473
13.3035 0.4131 -2.5017 0.9473
13.2799 0.8935 -2.5017 0.9473
13.1807 1.8503 -2.5017 0.9473
13.0126 2.7974 -2.5017 0.9473
12.9030 3.2658 -2.5017 0.9473
12.6335 4.1892 -2.5017 0.9473
12.4739 4.6429 -2.5017 0.9473
11.6748 6.3916 -2.5017 0.9473
11.4362 6.8093 -2.5017 0.9473
11.1827 7.2181 -2.5017 0.9473
10.6322 8.0069 -2.5017 0.9473
8.4705 9.1912 -2.3493 0.9504
8.1329 9.4913 -2.3493 0.9504
6.5188 10.3081 -2.2924 0.9516
11.0492 -4.2415 -2.5017 0.9528
11.4433 -3.0209 -2.5017 0.9528
11.8352 -0.0604 -2.5017 0.9528
11.8296 0.3673 -2.5017 0.9528
11.8086 0.7946 -2.5017 0.9528
11.7722 1.2207 -2.5017 0.9528
11.7204 1.6453 -2.5017 0.9528
11.3611 3.3167 -2.5017 0.9528
11.2338 3.7251 -2.5017 0.9528
10.9354 4.5267 -2.5017 0.9528
10.5800 5.3046 -2.5017 0.9528
10.3814 5.6835 -2.5017 0.9528
10.1692 6.0549 -2.5017 0.9528
9.9438 6.4184 -2.5017 0.9528
9.4543 7.1198 -2.5017 0.9528
7.5748 8.2193 -2.3627 0.9553
6.6034 8.9400 -2.3493 0.9556
5.9405 9.3936 -2.3493 0.9556
10.1872 -3.0871 -2.5017 0.9572
10.2921 -2.7170 -2.5017 0.9572
10.4615 -1.9666 -2.5017 0.9572
10.5257 -1.5873 -2.5017 0.9572
10.5762 -1.2059 -2.5017 0.9572
10.6128 -0.8229 -2.5017 0.9572
10.6356 -0.4389 -2.5017 0.9572
10.6446 -0.0543 -2.5017 0.9572
10.6207 0.7146 -2.5017 0.9572
10.5879 1.0979 -2.5017 0.9572
10.4810 1.8597 -2.5017 0.9572
10.1037 3.3503 -2.5017 0.9572
9.9760 3.7132 -2.5017 0.9572
9.8353 4.0713 -2.5017 0.9572
9.1462 5.4458 -2.5017 0.9572
8.9435 5.7727 -2.5017 0.9572
8.7290 6.0921 -2.5017 0.9572
8.2662 6.7066 -2.5017 0.9572
7.7603 7.2861 -2.5017 0.9572
7.4919 7.5618 -2.5017 0.9572
6.5269 8.1991 -2.4630 0.9579
9.1397 -3.1346 -2.5017 0.9609
9.2471 -2.8022 -2.5017 0.9609
9.4960 -1.7851 -2.5017 0.9609
9.6001 -1.0946 -2.5017 0.9609
9.6577 0.2999 -2.5017 0.9609
9.5137 1.6881 -2.5017 0.9609
9.2752 2.7077 -2.5017 0.9609
8.7883 4.0157 -2.5017 0.9609
8.6374 4.3307 -2.5017 0.9609
8.1181 5.2400 -2.5017 0.9609
7.9234 5.5299 -2.5017 0.9609
7.7185 5.8126 -2.5017 0.9609
7.2785 6.3549 -2.5017 0.9609
6.5480 7.1052 -2.5017 0.9609
6.2870 7.3372 -2.5017 0.9609
5.7407 7.7721 -2.5017 0.9609
8.2502 -3.1671 -2.5017 0.9639
8.5445 -2.2556 -2.5017 0.9639
8.6851 -1.6327 -2.5017 0.9639
8.8108 -0.6832 -2.5017 0.9639
8.8297 -0.3644 -2.5017 0.9639
8.8371 -0.0451 -2.5017 0.9639
8.8330 0.2743 -2.5017 0.9639
8.8173 0.5933 -2.5017 0.9639
8.6398 1.8574 -2.5017 0.9639
8.4831 2.4765 -2.5017 0.9639
8.2821 3.0827 -2.5017 0.9639
8.1653 3.3800 -2.5017 0.9639
8.0378 3.6728 -2.5017 0.9639
7.4248 4.7925 -2.5017 0.9639
7.2468 5.0577 -2.5017 0.9639
6.8626 5.5678 -2.5017 0.9639
6.4425 6.0489 -2.5017 0.9639
6.2198 6.2778 -2.5017 0.9639
5.9889 6.4984 -2.5017 0.9639
5.7501 6.7106 -2.5017 0.9639
5.5039 6.9140 -2.5017 0.9639
5.2505 7.1084 -2.5017 0.9639
4.7234 7.4690 -2.5017 0.9639
7.5934 -2.9149 -2.5017 0.9665
7.9342 -1.7906 -2.5017 0.9665
7.9937 -1.5027 -2.5017 0.9665
8.1268 -0.3354 -2.5017 0.9665
8.1298 0.2525 -2.5017 0.9665
8.1154 0.5460 -2.5017 0.9665
8.0547 1.1307 -2.5017 0.9665
7.9520 1.7095 -2.5017 0.9665
7.8850 1.9957 -2.5017 0.9665
7.8078 2.2794 -2.5017 0.9665
7.7203 2.5600 -2.5017 0.9665
7.5153 3.1109 -2.5017 0.9665
7.1345 3.9059 -2.5017 0.9665
6.8338 4.4110 -2.5017 0.9665
6.6699 4.6550 -2.5017 0.9665
6.4973 4.8930 -2.5017 0.9665
6.3163 5.1246 -2.5017 0.9665
6.1270 5.3495 -2.5017 0.9665
5.9297 5.5674 -2.5017 0.9665
5.2924 6.1764 -2.5017 0.9665
4.8325 6.5425 -2.5017 0.9665
4.5929 6.7128 -2.5017 0.9665
4.3473 6.8744 -2.5017 0.9665
7.0263 -2.6972 -2.5017 0.9688
7.1192 -2.4416 -2.5017 0.9688
7.2027 -2.1827 -2.5017 0.9688
7.3416 -1.6568 -2.5017 0.9688
7.3966 -1.3904 -2.5017 0.9688
7.5037 -0.5818 -2.5017 0.9688
7.5198 -0.3103 -2.5017 0.9688
7.5261 -0.0384 -2.5017 0.9688
7.4104 1.3149 -2.5017 0.9688
7.1437 2.3688 -2.5017 0.9688
6.9539 2.8785 -2.5017 0.9688
6.4667 3.8504 -2.5017 0.9688
6.3234 4.0815 -2.5017 0.9688
6.1717 4.3074 -2.5017 0.9688
6.0121 4.5275 -2.5017 0.9688
5.8446 4.7418 -2.5017 0.9688
5.6694 4.9499 -2.5017 0.9688
5.4868 5.1516 -2.5017 0.9688
4.2499 6.2114 -2.5017 0.9688
6.5311 -2.5071 -2.5017 0.9707
6.6175 -2.2695 -2.5017 0.9707
6.6951 -2.0289 -2.5017 0.9707
6.9176 -1.0432 -2.5017 0.9707
6.9508 -0.7925 -2.5017 0.9707
6.9800 0.4697 -2.5017 0.9707
6.9585 0.7216 -2.5017 0.9707
6.9279 0.9725 -2.5017 0.9707
6.4639 2.6757 -2.5017 0.9707
6.3630 2.9075 -2.5017 0.9707
6.1364 3.3595 -2.5017 0.9707
6.0110 3.5790 -2.5017 0.9707
5.4326 4.4077 -2.5017 0.9707
5.2698 4.6011 -2.5017 0.9707
5.1001 4.7885 -2.5017 0.9707
4.7410 5.1444 -2.5017 0.9707
3.9504 5.7737 -2.5017 0.9707
6.0946 -2.3396 -2.5017 0.9724
6.2477 -1.8933 -2.5017 0.9724
6.4159 -1.2061 -2.5017 0.9724
6.4553 -0.9735 -2.5017 0.9724
6.5282 -0.0333 -2.5017 0.9724
6.5251 0.2026 -2.5017 0.9724
6.4649 0.9075 -2.5017 0.9724
6.3824 1.3721 -2.5017 0.9724
6.2667 1.8295 -2.5017 0.9724
6.1965 2.0547 -2.5017 0.9724
6.1182 2.2773 -2.5017 0.9724
6.0319 2.4969 -2.5017 0.9724
5.9377 2.7132 -2.5017 0.9724
5.8358 2.9260 -2.5017 0.9724
5.4849 3.5403 -2.5017 0.9724
5.3534 3.7362 -2.5017 0.9724
5.2149 3.9272 -2.5017 0.9724
4.9176 4.2936 -2.5017 0.9724
4.5947 4.6376 -2.5017 0.9724
4.4241 4.8006 -2.5017 0.9724
4.0658 5.1075 -2.5017 0.9724
3.8786 5.2511 -2.5017 0.9724
3.6864 5.3879 -2.5017 0.9724
3.4893 5.5175 -2.5017 0.9724
5.7066 -2.1906 -2.5017 0.9739
5.7821 -1.9830 -2.5017 0.9739
5.9627 -1.3456 -2.5017 0.9739
6.0443 -0.9115 -2.5017 0.9739
6.0733 -0.6925 -2.5017 0.9739
6.0943 -0.4726 -2.5017 0.9739
6.1074 -0.2520 -2.5017 0.9739
6.1126 -0.0312 -2.5017 0.9739
6.1097 0.1897 -2.5017 0.9739
6.0989 0.4104 -2.5017 0.9739
6.0800 0.6305 -2.5017 0.9739
6.0533 0.8498 -2.5017 0.9739
6.0186 1.0680 -2.5017 0.9739
5.9258 1.4998 -2.5017 0.9739
5.8677 1.7130 -2.5017 0.9739
5.8020 1.9239 -2.5017 0.9739
5.6479 2.3379 -2.5017 0.9739
5.5597 2.5405 -2.5017 0.9739
5.2521 3.1272 -2.5017 0.9739
5.1357 3.3149 -2.5017 0.9739
4.8829 3.6772 -2.5017 0.9739
4.6046 4.0202 -2.5017 0.9739
4.1425 4.4949 -2.5017 0.9739
3.9773 4.6417 -2.5017 0.9739
3.6317 4.9168 -2.5017 0.9739
3.4517 5.0448 -2.5017 0.9739
3.2671 5.1663 -2.5017 0.9739
5.3591 -2.0572 -2.5017 0.9753
5.4299 -1.8622 -2.5017 0.9753
5.5502 -1.4652 -2.5017 0.9753
5.6762 -0.8560 -2.5017 0.9753
5.7274 0.3854 -2.5017 0.9753
5.6846 0.7980 -2.5017 0.9753
5.6521 1.0029 -2.5017 0.9753
5.6122 1.2065 -2.5017 0.9753
5.5649 1.4085 -2.5017 0.9753
5.5104 1.6087 -2.5017 0.9753
5.4486 1.8067 -2.5017 0.9753
5.3039 2.1955 -2.5017 0.9753
5.2211 2.3857 -2.5017 0.9753
5.1315 2.5729 -2.5017 0.9753
5.0352 2.7566 -2.5017 0.9753
4.8229 3.1130 -2.5017 0.9753
4.7073 3.2853 -2.5017 0.9753
4.4577 3.6167 -2.5017 0.9753
4.1849 3.9292 -2.5017 0.9753
3.8902 4.2212 -2.5017 0.9753
3.5752 4.4911 -2.5017 0.9753
3.4105 4.6174 -2.5017 0.9753
3.2415 4.7376 -2.5017 0.9753
3.0682 4.8516 -2.5017 0.9753
5.0457 -1.9369 -2.5017 0.9765
5.1124 -1.7533 -2.5017 0.9765
5.1724 -1.5675 -2.5017 0.9765
5.2257 -1.3795 -2.5017 0.9765
5.2721 -1.1898 -2.5017 0.9765
5.3117 -0.9985 -2.5017 0.9765
5.3443 -0.8059 -2.5017 0.9765
5.3699 -0.6123 -2.5017 0.9765
5.3885 -0.4178 -2.5017 0.9765
5.4046 -0.0276 -2.5017 0.9765
5.4021 0.1677 -2.5017 0.9765
5.3925 0.3628 -2.5017 0.9765
5.3522 0.7514 -2.5017 0.9765
5.2840 1.1359 -2.5017 0.9765
5.0652 1.8853 -2.5017 0.9765
4.9938 2.0671 -2.5017 0.9765
4.9158 2.2462 -2.5017 0.9765
4.7408 2.5954 -2.5017 0.9765
4.6439 2.7650 -2.5017 0.9765
4.4320 3.0932 -2.5017 0.9765
4.1971 3.4052 -2.5017 0.9765
3.9402 3.6994 -2.5017 0.9765
3.5167 4.1041 -2.5017 0.9765
3.3661 4.2285 -2.5017 0.9765
3.0519 4.4605 -2.5017 0.9765
2.8887 4.5679 -2.5017 0.9765
4.9312 -1.3018 -2.5017 0.9775
5.0124 -0.9422 -2.5017 0.9775
5.0673 -0.5778 -2.5017 0.9775
5.0506 0.7090 -2.5017 0.9775
5.0217 0.8911 -2.5017 0.9775
4.8958 1.4292 -2.5017 0.9775
4.8410 1.6052 -2.5017 0.9775
4.5592 2.2859 -2.5017 0.9775
4.4736 2.4492 -2.5017 0.9775
4.3822 2.6092 -2.5017 0.9775
4.2850 2.7659 -2.5017 0.9775
4.0741 3.0681 -2.5017 0.9775
3.8419 3.3543 -2.5017 0.9775
3.5896 3.6230 -2.5017 0.9775
3.3185 3.8728 -2.5017 0.9775
3.1764 3.9902 -2.5017 0.9775
2.7260 4.3105 -2.5017 0.9775
4.6627 -1.2309 -2.5017 0.9785
4.7041 -1.0616 -2.5017 0.9785
4.7913 -0.5463 -2.5017 0.9785
4.8079 -0.3728 -2.5017 0.9785
4.8223 -0.0246 -2.5017 0.9785
4.7147 1.0136 -2.5017 0.9785
4.6750 1.1833 -2.5017 0.9785
4.5195 1.6822 -2.5017 0.9785
4.3862 2.0042 -2.5017 0.9785
4.3109 2.1614 -2.5017 0.9785
4.2300 2.3158 -2.5017 0.9785
4.1435 2.4671 -2.5017 0.9785
3.9545 2.7599 -2.5017 0.9785
3.8522 2.9010 -2.5017 0.9785
3.6326 3.1717 -2.5017 0.9785
3.5157 3.3008 -2.5017 0.9785
3.2681 3.5461 -2.5017 0.9785
2.8651 3.8790 -2.5017 0.9785
2.7231 3.9800 -2.5017 0.9785
4.2643 -1.6370 -2.5017 0.9794
4.3207 -1.4818 -2.5017 0.9794
4.3714 -1.3247 -2.5017 0.9794
4.4891 -0.8439 -2.5017 0.9794
4.5166 -0.6811 -2.5017 0.9794
4.5383 -0.5175 -2.5017 0.9794
4.5638 -0.1883 -2.5017 0.9794
4.5655 0.1418 -2.5017 0.9794
4.5574 0.3067 -2.5017 0.9794
4.5434 0.4711 -2.5017 0.9794
4.4975 0.7980 -2.5017 0.9794
4.4657 0.9600 -2.5017 0.9794
4.3847 1.2800 -2.5017 0.9794
4.2808 1.5934 -2.5017 0.9794
4.0832 2.0473 -2.5017 0.9794
3.9247 2.3368 -2.5017 0.9794
3.8377 2.4771 -2.5017 0.9794
3.6488 2.7478 -2.5017 0.9794
3.5471 2.8779 -2.5017 0.9794
3.4408 3.0042 -2.5017 0.9794
2.5793 3.7698 -2.5017 0.9794
2.4414 3.8605 -2.5017 0.9794
4.0453 -1.5529 -2.5017 0.9802
4.1469 -1.2567 -2.5017 0.9802
4.1896 -1.1060 -2.5017 0.9802
4.2586 -0.8005 -2.5017 0.9802
4.2847 -0.6461 -2.5017 0.9802
4.3331 -0.0221 -2.5017 0.9802
4.3100 0.4469 -2.5017 0.9802
4.2911 0.6024 -2.5017 0.9802
4.2665 0.7571 -2.5017 0.9802
4.2007 1.0632 -2.5017 0.9802
4.1129 1.3638 -2.5017 0.9802
4.0610 1.5115 -2.5017 0.9802
4.0037 1.6573 -2.5017 0.9802
3.8735 1.9421 -2.5017 0.9802
3.6407 2.3499 -2.5017 0.9802
3.5533 2.4799 -2.5017 0.9802
3.4614 2.6067 -2.5017 0.9802
3.2641 2.8499 -2.5017 0.9802
3.0498 3.0782 -2.5017 0.9802
2.9365 3.1864 -2.5017 0.9802
2.6987 3.3901 -2.5017 0.9802
2.5745 3.4854 -2.5017 0.9802
2.4468 3.5762 -2.5017 0.9802
2.3160 3.6623 -2.5017 0.9802
