ply
format ascii 1.0
element vertex 560
property float32 x
property float32 y
property float32 z
property float32 I
end_header
-20.0502 15.2032 4.4368 0.9028
-20.0114 13.0415 4.2117 0.9075
-20.2487 11.2303 4.0828 0.9102
-23.6249 9.9771 4.5219 0.9011
-29.3355 9.9958 5.4647 0.8817
-44.4142 -9.2595 7.9998 0.8317
-21.7778 -7.8982 4.0848 0.9102
-20.0737 16.3781 3.9689 0.9005
-17.5316 13.2935 3.3705 0.9148
-20.0489 12.0718 3.5852 0.9096
-20.2487 11.2303 3.5471 0.9106
-23.6249 9.9771 3.9287 0.9014
-29.3374 9.9964 4.7481 0.8821
-33.2352 10.0195 5.3178 0.8689
-38.0019 9.9959 6.0197 0.8530
-18.9061 13.3032 3.0104 0.9110
-20.0114 13.0415 3.1104 0.9081
-20.2487 11.2303 3.0152 0.9108
-20.7756 10.5738 3.0357 0.9103
-21.8957 10.1796 3.1444 0.9072
-23.6249 9.9771 3.3395 0.9017
-26.2564 10.0030 3.6588 0.8928
-33.2309 10.0181 4.5197 0.8694
-38.0074 9.9973 5.1177 0.8534
-20.0502 15.2032 2.7020 0.9037
-20.0461 14.1053 2.6321 0.9061
-20.0114 13.0415 2.5649 0.9084
-20.0489 12.0718 2.5130 0.9101
-20.2487 11.2303 2.4864 0.9111
-21.8956 10.1796 2.5929 0.9074
-23.6249 9.9771 2.7538 0.9020
-29.3411 9.9977 3.3286 0.8828
-21.8804 -17.2738 2.9935 0.8939
-20.0502 15.2032 2.1301 0.9039
-20.0461 14.1054 2.0750 0.9063
-20.0114 13.0415 2.0220 0.9086
-20.0489 12.0718 1.9811 0.9103
-20.7756 10.5738 1.9734 0.9107
-21.8956 10.1796 2.0441 0.9076
-38.0184 10.0002 3.3278 0.8540
-43.6963 8.2234 3.7639 0.8365
-20.0708 16.3757 1.6063 0.9014
-20.0114 13.0415 1.4812 0.9087
-20.0489 12.0718 1.4512 0.9105
-20.2487 11.2303 1.4358 0.9114
-26.2564 10.0030 1.7423 0.8935
-33.2179 10.0142 2.1514 0.8702
-38.0240 10.0017 2.4381 0.8542
-20.0502 15.2032 0.9922 0.9042
-20.0461 14.1054 0.9665 0.9065
-20.0114 13.0415 0.9418 0.9088
-20.2487 11.2302 0.9130 0.9115
-20.7756 10.5738 0.9192 0.9109
-21.8956 10.1796 0.9521 0.9079
-38.0294 10.0031 1.5505 0.8544
-44.4527 10.0159 1.7968 0.8333
-20.0502 15.2032 0.4250 0.9042
-20.2487 11.2302 0.3911 0.9115
-23.6249 9.9771 0.4332 0.9025
-26.2564 10.0030 0.4746 0.8937
-29.3485 10.0002 0.5237 0.8833
-33.2093 10.0116 0.5859 0.8704
-20.0687 16.3740 -0.1458 0.9016
-20.0461 14.1054 -0.1380 0.9066
-20.0114 13.0415 -0.1345 0.9089
-20.0489 12.0718 -0.1318 0.9106
-20.2487 11.2302 -0.1304 0.9115
-20.7756 10.5738 -0.1312 0.9110
-23.6249 9.9771 -0.1444 0.9025
-26.2564 10.0030 -0.1582 0.8937
-29.3504 10.0008 -0.1745 0.8834
-33.2050 10.0103 -0.1953 0.8705
-38.0403 10.0060 -0.2215 0.8544
-44.4619 10.0179 -0.2566 0.8333
-20.2487 11.2302 -0.6520 0.9115
-26.2564 10.0030 -0.7911 0.8937
-33.2007 10.0090 -0.9764 0.8704
-44.4664 10.0189 -1.2834 0.8333
-20.0489 12.0718 -1.1869 0.9105
-20.2487 11.2303 -1.1743 0.9114
-23.6249 9.9771 -1.3006 0.9024
-26.2564 10.0030 -1.4249 0.8936
-29.3541 10.0021 -1.5727 0.8832
-33.1964 10.0077 -1.7584 0.8703
-38.0513 10.0088 -1.9954 0.8542
-45.5259 8.5677 -2.3493 0.8307
-49.0054 5.6520 -2.5017 0.8207
-49.2833 2.1518 -2.5017 0.8207
-49.3286 0.3966 -2.5017 0.8207
-47.9030 -11.7801 -2.5017 0.8207
-43.5495 -15.7942 -2.3493 0.8307
-42.9488 -17.3296 -2.3487 0.8307
-42.7089 -19.0271 -2.3712 0.8292
-42.4032 -20.7298 -2.3937 0.8278
-41.5895 -24.1394 -2.4387 0.8248
-40.4985 -27.5338 -2.4836 0.8219
-20.0665 16.3722 -1.8989 0.9013
-20.0502 15.2032 -1.8450 0.9040
-20.0461 14.1053 -1.7972 0.9064
-20.0489 12.0718 -1.7159 0.9104
-20.2487 11.2303 -1.6977 0.9113
-21.8956 10.1796 -1.7705 0.9077
-23.6249 9.9771 -1.8804 0.9023
-26.2564 10.0030 -2.0601 0.8934
-33.7346 5.1131 -2.5017 0.8721
-34.0129 2.7005 -2.5017 0.8721
-34.1188 0.2743 -2.5017 0.8721
-34.0519 -2.1533 -2.5017 0.8721
-33.9537 -3.3638 -2.5017 0.8721
-33.6284 -5.7705 -2.5017 0.8721
-33.4018 -6.9636 -2.5017 0.8721
-32.0756 -11.6329 -2.5017 0.8721
-31.6413 -12.7671 -2.5017 0.8721
-31.1669 -13.8850 -2.5017 0.8721
-30.6529 -14.9854 -2.5017 0.8721
-28.5071 -15.2165 -2.3693 0.8784
-27.1218 -17.0605 -2.3493 0.8794
-26.6035 -18.0870 -2.3588 0.8790
-25.5436 -20.1657 -2.3862 0.8776
-18.9945 13.3654 -2.2298 0.9109
-20.2487 11.2302 -2.2229 0.9112
-21.8956 10.1796 -2.3182 0.9075
-22.8677 8.7120 -2.3493 0.9063
-24.0743 8.2031 -2.4417 0.9028
-25.6089 4.8195 -2.5017 0.9006
-25.7642 3.9050 -2.5017 0.9006
-26.0337 1.1367 -2.5017 0.9006
-26.0577 0.2095 -2.5017 0.9006
-25.9316 -2.5691 -2.5017 0.9006
-25.6831 -4.4071 -2.5017 0.9006
-25.3046 -6.2228 -2.5017 0.9006
-25.0671 -7.1194 -2.5017 0.9006
-24.7978 -8.0070 -2.5017 0.9006
-24.1655 -9.7506 -2.5017 0.9006
-22.9886 -12.2708 -2.5017 0.9006
-22.5373 -13.0811 -2.5017 0.9006
-21.0147 -15.4087 -2.5017 0.9006
-20.3046 -16.0297 -2.4836 0.9013
-16.8246 11.8385 -2.4437 0.9205
-17.3820 11.3279 -2.4645 0.9198
-18.4234 10.2180 -2.5025 0.9186
-18.8365 9.5869 -2.5106 0.9184
-19.4080 8.1962 -2.5025 0.9186
-19.9411 6.7947 -2.5025 0.9186
-20.1698 6.0806 -2.5024 0.9186
-20.5502 4.6297 -2.5023 0.9186
-20.7015 3.8959 -2.5022 0.9186
-20.8265 3.1566 -2.5021 0.9187
-20.9251 2.4134 -2.5021 0.9187
-21.0427 0.9188 -2.5020 0.9187
-21.0616 0.1699 -2.5019 0.9187
-21.0536 -0.5803 -2.5018 0.9187
-21.0191 -1.3292 -2.5018 0.9187
-20.7576 -3.5619 -2.5017 0.9187
-20.4516 -5.0294 -2.5017 0.9187
-20.2597 -5.7541 -2.5017 0.9187
-20.0421 -6.4714 -2.5017 0.9187
-19.7991 -7.1806 -2.5017 0.9187
-19.2382 -8.5707 -2.5017 0.9187
-17.4169 -11.8413 -2.5017 0.9187
-16.9844 -12.4536 -2.5017 0.9187
-13.4657 10.9867 -2.4624 0.9322
-13.9260 10.5595 -2.4763 0.9318
-14.3759 10.1155 -2.4906 0.9314
-15.1610 9.1287 -2.5075 0.9310
-15.4547 8.5714 -2.5040 0.9311
-16.2699 6.8710 -2.5024 0.9311
-16.5038 6.2875 -2.5024 0.9311
-17.3545 3.2660 -2.5021 0.9311
-17.6409 0.7702 -2.5019 0.9311
-17.6567 0.1420 -2.5018 0.9312
-17.6502 -0.4865 -2.5018 0.9312
-17.6213 -1.1143 -2.5017 0.9312
-17.4974 -2.3649 -2.5017 0.9312
-17.2849 -3.6036 -2.5017 0.9312
-17.1457 -4.2164 -2.5017 0.9312
-15.8625 -7.7547 -2.5017 0.9312
-15.2707 -8.8634 -2.5017 0.9312
-14.6015 -9.9272 -2.5017 0.9312
-14.2390 -10.4405 -2.5017 0.9312
-13.8584 -10.9407 -2.5017 0.9312
-13.4603 -11.4270 -2.5017 0.9312
-11.7803 9.6115 -2.5047 0.9402
-12.1265 9.1949 -2.5071 0.9402
-12.4336 8.7488 -2.5046 0.9402
-13.2833 7.3671 -2.5023 0.9403
-14.1941 5.4076 -2.5023 0.9403
-14.3773 4.8989 -2.5022 0.9403
-14.5422 4.3841 -2.5022 0.9403
-14.6888 3.8637 -2.5021 0.9403
-15.0873 1.7401 -2.5020 0.9403
-15.1723 0.6625 -2.5019 0.9403
-15.1805 -0.4184 -2.5018 0.9403
-15.1558 -0.9584 -2.5017 0.9403
-15.1121 -1.4972 -2.5017 0.9403
-14.9673 -2.5683 -2.5017 0.9403
-14.8664 -3.0994 -2.5017 0.9403
-13.8718 -6.1800 -2.5017 0.9403
-13.3970 -7.1510 -2.5017 0.9403
-13.1340 -7.6233 -2.5017 0.9403
-12.8544 -8.0859 -2.5017 0.9403
-12.5585 -8.5382 -2.5017 0.9403
-10.6077 8.0434 -2.5022 0.9473
-11.1531 7.2685 -2.5022 0.9473
-11.4047 6.8670 -2.5022 0.9473
-12.0718 5.6124 -2.5023 0.9473
-12.4400 4.7393 -2.5022 0.9473
-12.8737 3.3863 -2.5021 0.9473
-12.9859 2.9259 -2.5020 0.9473
-13.0816 2.4619 -2.5020 0.9473
-13.2689 1.0535 -2.5019 0.9473
-13.2977 0.5806 -2.5018 0.9473
-13.2834 -0.8400 -2.5017 0.9473
-12.8035 -3.6364 -2.5017 0.9473
-12.6660 -4.0897 -2.5017 0.9473
-12.3430 -4.9803 -2.5017 0.9473
-12.1580 -5.4165 -2.5017 0.9473
-11.9575 -5.8457 -2.5017 0.9473
-11.7419 -6.2676 -2.5017 0.9473
-11.5114 -6.6815 -2.5017 0.9473
-11.0070 -7.4833 -2.5017 0.9473
-10.1467 -8.6139 -2.5017 0.9473
-9.1718 7.4832 -2.5022 0.9528
-9.6809 6.8119 -2.5022 0.9528
-10.1410 6.1061 -2.5022 0.9528
-10.3519 5.7414 -2.5022 0.9528
-10.5497 5.3693 -2.5022 0.9528
-10.7340 4.9904 -2.5022 0.9528
-11.0615 4.2141 -2.5021 0.9528
-11.3330 3.4166 -2.5021 0.9528
-11.6321 2.1891 -2.5020 0.9528
-11.7024 1.7737 -2.5019 0.9528
-11.7580 1.3561 -2.5019 0.9528
-11.7986 0.9368 -2.5018 0.9528
-11.8243 0.5163 -2.5018 0.9528
-11.8350 0.0952 -2.5018 0.9528
-11.7776 -1.1668 -2.5017 0.9528
-11.7286 -1.5852 -2.5017 0.9528
-11.2627 -3.6367 -2.5017 0.9528
-11.1262 -4.0352 -2.5017 0.9528
-10.6327 -5.1981 -2.5017 0.9528
-10.4410 -5.5732 -2.5017 0.9528
-9.7875 -6.6543 -2.5017 0.9528
-8.2490 6.7303 -2.5021 0.9572
-8.9194 5.8129 -2.5022 0.9572
-9.1207 5.4918 -2.5022 0.9572
-9.3104 5.1637 -2.5022 0.9572
-9.4882 4.8291 -2.5022 0.9572
-9.8075 4.1418 -2.5021 0.9572
-9.9485 3.7901 -2.5021 0.9572
-10.0770 3.4336 -2.5020 0.9572
-10.1927 3.0728 -2.5020 0.9572
-10.2955 2.7081 -2.5020 0.9572
-10.3852 2.3399 -2.5020 0.9572
-10.4618 1.9689 -2.5019 0.9572
-10.5251 1.5953 -2.5019 0.9572
-10.6116 0.8425 -2.5018 0.9572
-10.6347 0.4643 -2.5018 0.9572
-10.6444 0.0856 -2.5018 0.9572
-10.6406 -0.2933 -2.5017 0.9572
-10.6235 -0.6718 -2.5017 0.9572
-10.4913 -1.8003 -2.5017 0.9572
-10.4206 -2.1725 -2.5017 0.9572
-10.3367 -2.5420 -2.5017 0.9572
-10.2397 -2.9082 -2.5017 0.9572
-9.8714 -3.9831 -2.5017 0.9572
-9.7234 -4.3318 -2.5017 0.9572
-9.5631 -4.6751 -2.5017 0.9572
-9.3906 -5.0125 -2.5017 0.9572
-9.0103 -5.6678 -2.5017 0.9572
-8.8029 -5.9849 -2.5017 0.9572
-8.5843 -6.2943 -2.5017 0.9572
-7.4876 6.1092 -2.5021 0.9609
-7.7003 5.8388 -2.5021 0.9609
-7.9033 5.5611 -2.5021 0.9609
-8.2789 4.9849 -2.5021 0.9609
-8.6124 4.3833 -2.5021 0.9609
-8.7629 4.0740 -2.5021 0.9609
-9.0303 3.4403 -2.5020 0.9609
-9.2519 2.7892 -2.5020 0.9609
-9.3452 2.4581 -2.5019 0.9609
-9.4962 1.7871 -2.5019 0.9609
-9.5536 1.4480 -2.5019 0.9609
-9.5990 1.1071 -2.5018 0.9609
-9.6152 -0.9526 -2.5017 0.9609
-9.5752 -1.2942 -2.5017 0.9609
-9.3828 -2.3074 -2.5017 0.9609
-9.2947 -2.6398 -2.5017 0.9609
-9.0834 -3.2943 -2.5017 0.9609
-8.9604 -3.6155 -2.5017 0.9609
-8.6805 -4.2437 -2.5017 0.9609
-8.5240 -4.5499 -2.5017 0.9609
-8.3567 -4.8504 -2.5017 0.9609
-7.5838 -5.9871 -2.5017 0.9609
-7.3659 -6.2533 -2.5017 0.9609
-7.0427 5.3402 -2.5021 0.9639
-7.5718 4.5592 -2.5021 0.9639
-7.7292 4.2868 -2.5021 0.9639
-7.8768 4.0089 -2.5021 0.9639
-8.3657 2.8505 -2.5020 0.9639
-8.4617 2.5510 -2.5019 0.9639
-8.6216 1.9426 -2.5019 0.9639
-8.6851 1.6345 -2.5019 0.9639
-8.7377 1.3244 -2.5018 0.9639
-8.8338 -0.2435 -2.5017 0.9639
-8.8196 -0.5577 -2.5017 0.9639
-8.7941 -0.8712 -2.5017 0.9639
-8.7099 -1.4946 -2.5017 0.9639
-8.6512 -1.8036 -2.5017 0.9639
-8.5815 -2.1103 -2.5017 0.9639
-8.5010 -2.4144 -2.5017 0.9639
-8.3077 -3.0130 -2.5017 0.9639
-8.1952 -3.3067 -2.5017 0.9639
-8.0723 -3.5963 -2.5017 0.9639
-7.9392 -3.8813 -2.5017 0.9639
-7.6431 -4.4362 -2.5017 0.9639
-7.4803 -4.7054 -2.5017 0.9639
-6.7369 -5.7192 -2.5017 0.9639
-6.3029 5.1426 -2.5021 0.9665
-6.8152 4.4415 -2.5021 0.9665
-7.1138 3.9454 -2.5021 0.9665
-7.2496 3.6897 -2.5020 0.9665
-7.3763 3.4294 -2.5020 0.9665
-7.6996 2.6236 -2.5019 0.9665
-7.7880 2.3479 -2.5019 0.9665
-7.8666 2.0692 -2.5019 0.9665
-7.9937 1.5044 -2.5018 0.9665
-8.0421 1.2189 -2.5018 0.9665
-8.1259 0.3548 -2.5018 0.9665
-8.1334 0.0654 -2.5017 0.9665
-8.1306 -0.2241 -2.5017 0.9665
-8.1175 -0.5133 -2.5017 0.9665
-8.0604 -1.0894 -2.5017 0.9665
-7.9625 -1.6600 -2.5017 0.9665
-7.8984 -1.9423 -2.5017 0.9665
-7.7402 -2.4992 -2.5017 0.9665
-7.6463 -2.7731 -2.5017 0.9665
-7.3072 -3.5723 -2.5017 0.9665
-7.0346 -4.0830 -2.5017 0.9665
-6.8848 -4.3308 -2.5017 0.9665
-6.7263 -4.5731 -2.5017 0.9665
-6.5594 -4.8096 -2.5017 0.9665
-6.2006 -5.2639 -2.5017 0.9665
-5.9978 4.5479 -2.5020 0.9688
-6.1559 4.3316 -2.5021 0.9688
-6.3061 4.1098 -2.5021 0.9688
-6.4483 3.8827 -2.5020 0.9688
-6.5824 3.6507 -2.5020 0.9688
-6.9338 2.9283 -2.5020 0.9688
-7.1244 2.4276 -2.5019 0.9688
-7.2790 1.9146 -2.5019 0.9688
-7.3425 1.6544 -2.5019 0.9688
-7.3966 1.3920 -2.5018 0.9688
-7.4767 0.8623 -2.5018 0.9688
-7.5026 0.5957 -2.5018 0.9688
-7.5259 0.0605 -2.5017 0.9688
-7.5112 -0.4750 -2.5017 0.9688
-7.4895 -0.7420 -2.5017 0.9688
-7.3678 -1.5360 -2.5017 0.9688
-7.0752 -2.5660 -2.5017 0.9688
-6.9794 -2.8162 -2.5017 0.9688
-6.5092 -3.7781 -2.5017 0.9688
-6.0694 -4.4503 -2.5017 0.9688
-5.9072 -4.6635 -2.5017 0.9688
-5.7375 -4.8708 -2.5017 0.9688
-5.5751 4.2274 -2.5020 0.9707
-5.9938 3.6090 -2.5020 0.9707
-6.1185 3.3934 -2.5020 0.9707
-6.2353 3.1735 -2.5020 0.9707
-6.3442 2.9495 -2.5020 0.9707
-6.4451 2.7219 -2.5019 0.9707
-6.6223 2.2565 -2.5019 0.9707
-6.6984 2.0194 -2.5019 0.9707
-6.7660 1.7797 -2.5019 0.9707
-6.8249 1.5378 -2.5018 0.9707
-6.8753 1.2939 -2.5018 0.9707
-6.9169 1.0484 -2.5018 0.9707
-6.9738 0.5537 -2.5018 0.9707
-6.9931 -0.1928 -2.5017 0.9707
-6.9818 -0.4415 -2.5017 0.9707
-6.9327 -0.9370 -2.5017 0.9707
-6.8950 -1.1832 -2.5017 0.9707
-6.7296 -1.9113 -2.5017 0.9707
-6.6573 -2.1496 -2.5017 0.9707
-6.5766 -2.3852 -2.5017 0.9707
-5.9216 -3.7249 -2.5017 0.9707
-5.7853 -3.9333 -2.5017 0.9707
-5.2025 3.9448 -2.5020 0.9724
-5.4698 3.5647 -2.5020 0.9724
-5.7095 3.1666 -2.5020 0.9724
-5.8185 2.9614 -2.5019 0.9724
-6.1009 2.3243 -2.5019 0.9724
-6.1797 2.1057 -2.5019 0.9724
-6.2507 1.8844 -2.5019 0.9724
-6.3137 1.6607 -2.5018 0.9724
-6.3688 1.4350 -2.5018 0.9724
-6.4546 0.9783 -2.5018 0.9724
-6.4853 0.7480 -2.5018 0.9724
-6.5280 0.0525 -2.5017 0.9724
-6.4964 -0.6436 -2.5017 0.9724
-6.3394 -1.5590 -2.5017 0.9724
-6.2124 -2.0059 -2.5017 0.9724
-6.1371 -2.2258 -2.5017 0.9724
-5.9632 -2.6567 -2.5017 0.9724
-5.8649 -2.8672 -2.5017 0.9724
-5.5259 -3.4760 -2.5017 0.9724
-5.3987 -3.6704 -2.5017 0.9724
-5.2647 -3.8602 -2.5017 0.9724
-5.1239 -4.0452 -2.5017 0.9724
-4.9767 -4.2250 -2.5017 0.9724
-4.9996 3.5179 -2.5020 0.9739
-5.3459 2.9650 -2.5019 0.9739
-5.5432 2.5771 -2.5019 0.9739
-5.7862 1.9716 -2.5019 0.9739
-5.8527 1.7644 -2.5018 0.9739
-5.9117 1.5550 -2.5018 0.9739
-6.0073 1.1305 -2.5018 0.9739
-6.0437 0.9160 -2.5018 0.9739
-6.0724 0.7004 -2.5018 0.9739
-6.1103 -0.1684 -2.5017 0.9739
-6.1004 -0.3858 -2.5017 0.9739
-6.0575 -0.8187 -2.5017 0.9739
-5.9358 -1.4597 -2.5017 0.9739
-5.8801 -1.6700 -2.5017 0.9739
-5.7464 -2.0841 -2.5017 0.9739
-5.6686 -2.2872 -2.5017 0.9739
-5.5836 -2.4875 -2.5017 0.9739
-5.3925 -2.8784 -2.5017 0.9739
-5.2866 -3.0685 -2.5017 0.9739
-4.9295 -3.6145 -2.5017 0.9739
-4.7977 -3.7876 -2.5017 0.9739
-4.6599 -3.9560 -2.5017 0.9739
-4.4482 3.6293 -2.5020 0.9753
-4.6950 3.3036 -2.5020 0.9753
-4.8096 3.1345 -2.5020 0.9753
-4.9181 2.9613 -2.5019 0.9753
-5.1162 2.6039 -2.5019 0.9753
-5.2056 2.4202 -2.5019 0.9753
-5.3645 2.0437 -2.5019 0.9753
-5.4962 1.6570 -2.5018 0.9753
-5.5517 1.4603 -2.5018 0.9753
-5.6001 1.2618 -2.5018 0.9753
-5.6756 0.8602 -2.5018 0.9753
-5.7026 0.6577 -2.5017 0.9753
-5.7223 0.4543 -2.5017 0.9753
-5.7349 0.2504 -2.5017 0.9753
-5.7402 0.0462 -2.5017 0.9753
-5.7382 -0.1582 -2.5017 0.9753
-5.7289 -0.3623 -2.5017 0.9753
-5.6577 -0.9708 -2.5017 0.9753
-5.5743 -1.3708 -2.5017 0.9753
-5.4626 -1.7638 -2.5017 0.9753
-5.0641 -2.7031 -2.5017 0.9753
-4.9647 -2.8816 -2.5017 0.9753
-4.8590 -3.0565 -2.5017 0.9753
-4.7471 -3.2275 -2.5017 0.9753
-4.3761 -3.7150 -2.5017 0.9753
-4.1880 3.4170 -2.5020 0.9765
-4.4204 3.1104 -2.5019 0.9765
-4.8170 2.4516 -2.5019 0.9765
-4.9012 2.2786 -2.5019 0.9765
-4.9791 2.1028 -2.5019 0.9765
-5.0508 1.9242 -2.5019 0.9765
-5.2270 1.3749 -2.5018 0.9765
-5.3115 0.9996 -2.5018 0.9765
-5.3437 0.8099 -2.5018 0.9765
-5.3691 0.6192 -2.5017 0.9765
-5.3877 0.4278 -2.5017 0.9765
-5.4045 0.0435 -2.5017 0.9765
-5.4026 -0.1489 -2.5017 0.9765
-5.3560 -0.7239 -2.5017 0.9765
-5.3268 -0.9141 -2.5017 0.9765
-5.2483 -1.2906 -2.5017 0.9765
-5.1432 -1.6607 -2.5017 0.9765
-5.0120 -2.0223 -2.5017 0.9765
-4.9369 -2.1994 -2.5017 0.9765
-4.7680 -2.5450 -2.5017 0.9765
-4.6744 -2.7131 -2.5017 0.9765
-4.4695 -3.0387 -2.5017 0.9765
-4.3586 -3.1959 -2.5017 0.9765
-4.2421 -3.3489 -2.5017 0.9765
-4.1202 -3.4978 -2.5017 0.9765
-3.9520 3.2245 -2.5019 0.9775
-4.1713 2.9352 -2.5019 0.9775
-4.2731 2.7848 -2.5019 0.9775
-4.3695 2.6310 -2.5019 0.9775
-4.4603 2.4738 -2.5019 0.9775
-4.6985 1.9843 -2.5019 0.9775
-4.8832 1.4721 -2.5018 0.9775
-4.9755 1.1211 -2.5018 0.9775
-5.0841 0.4037 -2.5017 0.9775
-5.0542 -0.6831 -2.5017 0.9775
-5.0267 -0.8626 -2.5017 0.9775
-4.9928 -1.0409 -2.5017 0.9775
-4.9526 -1.2179 -2.5017 0.9775
-4.9061 -1.3934 -2.5017 0.9775
-4.7296 -1.9084 -2.5017 0.9775
-4.5819 -2.2400 -2.5017 0.9775
-4.3171 -2.7156 -2.5017 0.9775
-4.1130 -3.0158 -2.5017 0.9775
-3.7367 3.0488 -2.5019 0.9785
-3.9441 2.7753 -2.5019 0.9785
-4.1315 2.4877 -2.5019 0.9785
-4.2174 2.3390 -2.5019 0.9785
-4.2979 2.1875 -2.5019 0.9785
-4.3731 2.0331 -2.5019 0.9785
-4.5065 1.7169 -2.5018 0.9785
-4.5648 1.5554 -2.5018 0.9785
-4.7045 1.0600 -2.5018 0.9785
-4.8072 0.3817 -2.5017 0.9785
-4.8178 0.2104 -2.5017 0.9785
-4.8205 -0.1329 -2.5017 0.9785
-4.7989 -0.4754 -2.5017 0.9785
-4.7529 -0.8156 -2.5017 0.9785
-4.5891 -1.4818 -2.5017 0.9785
-4.3324 -2.1180 -2.5017 0.9785
-4.1707 -2.4208 -2.5017 0.9785
-4.0819 -2.5677 -2.5017 0.9785
-3.9880 -2.7113 -2.5017 0.9785
-3.8889 -2.8515 -2.5017 0.9785
-3.7850 -2.9881 -2.5017 0.9785
-3.6399 2.7600 -2.5019 0.9794
-3.7358 2.6287 -2.5019 0.9794
-3.9133 2.3563 -2.5019 0.9794
-4.0710 2.0719 -2.5019 0.9794
-4.1421 1.9257 -2.5018 0.9794
-4.3733 1.3184 -2.5018 0.9794
-4.4560 1.0040 -2.5018 0.9794
-4.5534 0.3615 -2.5017 0.9794
-4.5675 0.0367 -2.5017 0.9794
-4.5659 -0.1258 -2.5017 0.9794
-4.5265 -0.6118 -2.5017 0.9794
-4.3939 -1.2479 -2.5017 0.9794
-4.3467 -1.4035 -2.5017 0.9794
-4.2940 -1.5573 -2.5017 0.9794
-4.1724 -1.8588 -2.5017 0.9794
-4.1036 -2.0061 -2.5017 0.9794
-3.9505 -2.2929 -2.5017 0.9794
-3.7773 -2.5681 -2.5017 0.9794
-3.5851 -2.8303 -2.5017 0.9794
-3.3576 2.7395 -2.5019 0.9802
-3.4530 2.6183 -2.5019 0.9802
-3.7123 2.2353 -2.5019 0.9802
-3.9294 1.8268 -2.5018 0.9802
-4.0493 1.5427 -2.5018 0.9802
-4.1016 1.3976 -2.5018 0.9802
-4.1488 1.2507 -2.5018 0.9802
-4.2584 0.8014 -2.5017 0.9802
-4.2842 0.6493 -2.5017 0.9802
-4.3196 0.3429 -2.5017 0.9802
-4.3315 -0.1194 -2.5017 0.9802
-4.3120 -0.4272 -2.5017 0.9802
-4.2941 -0.5804 -2.5017 0.9802
-4.2707 -0.7328 -2.5017 0.9802
-4.1683 -1.1839 -2.5017 0.9802
-3.9581 -1.7634 -2.5017 0.9802
-3.8929 -1.9031 -2.5017 0.9802
-3.6678 -2.3072 -2.5017 0.9802
-3.5834 -2.4363 -2.5017 0.9802
-3.4010 -2.6850 -2.5017 0.9802
