ply
format ascii 1.0
element vertex 496
property float32 x
property float32 y
property float32 z
property float32 I
end_header
-0.5300 -18.5406 3.2705 0.9274
0.8013 -18.5304 3.2705 0.9274
0.2784 -38.0451 5.8285 0.8573
0.8013 -18.5304 2.4153 0.9279
0.8013 -18.5304 1.9917 0.9281
0.8013 -18.5304 1.5701 0.9282
0.2789 -38.1100 2.3633 0.8584
0.8013 -18.5304 1.1502 0.9284
0.8013 -18.5304 0.7314 0.9284
5.9649 -15.5495 0.2813 0.9355
6.6213 -15.5657 0.2857 0.9346
7.2866 -15.5549 0.2902 0.9336
0.2787 -38.0823 -0.2144 0.8587
0.8013 -18.5304 -0.1044 0.9285
4.2669 -16.1304 -0.0939 0.9354
5.7845 -16.8661 -0.1004 0.9312
6.4673 -16.8593 -0.1017 0.9303
4.2289 -15.9869 -0.4656 0.9360
5.7845 -16.8661 -0.5021 0.9311
6.4673 -16.8593 -0.5084 0.9303
7.4963 -16.0024 -0.4976 0.9317
-27.1679 -39.4617 -2.4297 0.8254
-22.2416 -41.1769 -2.3734 0.8291
-20.5932 -41.6328 -2.3555 0.8302
-19.0461 -42.2571 -2.3507 0.8306
-18.3818 -45.0314 -2.4667 0.8230
-13.6262 -47.4112 -2.5018 0.8207
-11.9159 -47.8697 -2.5018 0.8207
-6.7016 -48.8731 -2.5018 0.8207
-4.9432 -49.0822 -2.5018 0.8207
-3.1785 -49.2279 -2.5018 0.8207
0.8013 -18.5304 -0.9406 0.9284
3.6684 -46.2716 -2.3540 0.8304
5.3260 -46.1044 -2.3537 0.8304
10.2469 -45.2482 -2.3528 0.8304
13.4631 -44.3860 -2.3523 0.8305
6.4673 -16.8593 -0.9158 0.9302
7.4963 -16.0024 -0.8963 0.9317
21.1668 -41.2615 -2.3518 0.8305
22.6307 -40.4691 -2.3515 0.8305
24.0624 -39.6209 -2.3509 0.8306
25.4625 -38.7221 -2.3503 0.8306
-19.1185 -25.7405 -2.3510 0.8793
-17.2825 -29.4193 -2.5018 0.8721
-16.2156 -30.0206 -2.5018 0.8721
-14.0203 -31.1064 -2.5018 0.8721
-12.8948 -31.5896 -2.5018 0.8721
-11.7528 -32.0320 -2.5018 0.8721
-10.5956 -32.4332 -2.5018 0.8721
-5.8455 -33.6156 -2.5018 0.8721
-4.6352 -33.8038 -2.5018 0.8721
-2.0650 -31.9819 -2.3499 0.8794
0.2350 -32.1123 -2.3546 0.8792
3.6843 -31.8928 -2.3540 0.8792
4.8262 -31.7373 -2.3538 0.8792
5.9616 -31.5410 -2.3536 0.8792
5.7845 -16.8661 -1.3074 0.9310
7.1892 -16.9008 -1.3467 0.9290
14.6398 -28.5382 -2.3517 0.8793
15.6519 -27.9895 -2.3513 0.8793
16.6435 -27.4050 -2.3509 0.8793
18.5600 -26.1314 -2.3501 0.8794
-18.3714 -18.4808 -2.5018 0.9006
-16.9984 -19.7511 -2.5018 0.9006
-16.2786 -20.3485 -2.5018 0.9006
-15.5378 -20.9196 -2.5018 0.9006
-13.9971 -21.9803 -2.5018 0.9006
-13.1992 -22.4685 -2.5018 0.9006
-12.3843 -22.9277 -2.5018 0.9006
-11.5535 -23.3574 -2.5018 0.9006
-9.8482 -24.1260 -2.5018 0.9006
-8.9760 -24.4639 -2.5018 0.9006
-8.0922 -24.7703 -2.5018 0.9006
-7.1980 -25.0447 -2.5018 0.9006
-5.3829 -25.4966 -2.5018 0.9006
-4.4644 -25.6734 -2.5018 0.9006
-2.6112 -25.9275 -2.5018 0.9006
-1.5779 -24.4385 -2.3511 0.9063
0.8013 -18.5304 -1.7807 0.9282
1.9381 -24.4461 -2.3543 0.9062
3.6864 -24.2423 -2.3541 0.9062
4.5539 -24.0931 -2.3540 0.9062
5.4149 -23.9112 -2.3537 0.9062
4.2289 -15.9869 -1.5876 0.9357
7.1144 -23.4551 -2.3531 0.9062
6.4673 -16.8593 -1.7336 0.9300
7.4963 -16.0024 -1.6966 0.9315
8.5295 -16.6271 -1.7941 0.9277
14.1763 -19.9593 -2.3503 0.9063
-14.8481 -14.9366 -2.5018 0.9187
-14.3025 -15.4599 -2.5018 0.9187
-13.7384 -15.9632 -2.5018 0.9187
-11.9430 -17.3474 -2.5018 0.9187
-9.3377 -18.8779 -2.5018 0.9187
-8.6542 -19.2009 -2.5018 0.9187
-7.2546 -19.7722 -2.5018 0.9187
-6.5403 -20.0198 -2.5018 0.9187
-5.0874 -20.4374 -2.5018 0.9187
-3.6082 -20.7497 -2.5018 0.9187
-2.8612 -20.8658 -2.5018 0.9187
0.8013 -18.5304 -2.2032 0.9280
1.5663 -19.7563 -2.3541 0.9233
5.7490 -18.9537 -2.3527 0.9233
6.4238 -18.7301 -2.3521 0.9233
6.4673 -16.8593 -2.1449 0.9298
7.7439 -18.2046 -2.3500 0.9234
7.4963 -16.0024 -2.0992 0.9313
9.6533 -17.2623 -2.3494 0.9234
10.2665 -16.9048 -2.3494 0.9234
10.8666 -16.5254 -2.3494 0.9234
11.4527 -16.1247 -2.3494 0.9234
-11.5176 -13.3828 -2.5018 0.9312
-11.0299 -13.7876 -2.5018 0.9312
-10.5280 -14.1746 -2.5018 0.9312
-10.0125 -14.5433 -2.5018 0.9312
-8.9434 -15.2240 -2.5018 0.9312
-8.3913 -15.5352 -2.5018 0.9312
-7.8283 -15.8264 -2.5018 0.9312
-6.6729 -16.3471 -2.5018 0.9312
-6.0817 -16.5761 -2.5018 0.9312
-5.4831 -16.7837 -2.5018 0.9312
-4.8772 -16.9697 -2.5018 0.9312
-4.2650 -17.1338 -2.5018 0.9312
-3.6473 -17.2758 -2.5018 0.9312
-3.0249 -17.3956 -2.5018 0.9312
-2.3987 -17.4930 -2.5018 0.9312
-1.0762 -16.6674 -2.3665 0.9348
0.1214 -16.5806 -2.3494 0.9352
1.3104 -16.5292 -2.3494 0.9352
3.0795 -16.2926 -2.3494 0.9352
4.8128 -15.8672 -2.3494 0.9352
5.3792 -15.6842 -2.3494 0.9352
5.9386 -15.4811 -2.3494 0.9352
8.4991 -15.1983 -2.4673 0.9321
9.1653 -15.0915 -2.5018 0.9312
9.7011 -14.7529 -2.5018 0.9312
10.2243 -14.3952 -2.5018 0.9312
-10.7063 -10.7701 -2.5018 0.9403
-9.9061 -11.5103 -2.5018 0.9403
-9.4867 -11.8585 -2.5018 0.9403
-9.0549 -12.1913 -2.5018 0.9403
-8.1571 -12.8094 -2.5018 0.9403
-7.6915 -13.0941 -2.5018 0.9403
-7.2171 -13.3616 -2.5018 0.9403
-6.7330 -13.6120 -2.5018 0.9403
-6.2402 -13.8449 -2.5018 0.9403
-4.1948 -14.5953 -2.5018 0.9403
-2.6017 -14.9616 -2.5018 0.9403
-2.0631 -15.0454 -2.5018 0.9403
-1.5217 -15.1097 -2.5018 0.9403
-0.4339 -15.1800 -2.5018 0.9403
0.6561 -15.1720 -2.5018 0.9403
1.2002 -15.1387 -2.5018 0.9403
1.7427 -15.0858 -2.5018 0.9403
4.9267 -14.3648 -2.5018 0.9403
5.9444 -13.9744 -2.5018 0.9403
6.4421 -13.7520 -2.5018 0.9403
6.9315 -13.5120 -2.5018 0.9403
7.4120 -13.2545 -2.5018 0.9403
8.7937 -12.3810 -2.5018 0.9403
-9.3836 -9.4395 -2.5018 0.9473
-9.0388 -9.7702 -2.5018 0.9473
-7.5477 -10.9631 -2.5018 0.9473
-7.1493 -11.2269 -2.5018 0.9473
-3.6765 -12.7921 -2.5018 0.9473
-3.2150 -12.9158 -2.5018 0.9473
-2.2803 -13.1132 -2.5018 0.9473
-1.8082 -13.1866 -2.5018 0.9473
-0.8576 -13.2823 -2.5018 0.9473
-0.3803 -13.3046 -2.5018 0.9473
0.0974 -13.3096 -2.5018 0.9473
1.5274 -13.2221 -2.5018 0.9473
2.0010 -13.1587 -2.5018 0.9473
2.9398 -12.9813 -2.5018 0.9473
3.4037 -12.8674 -2.5018 0.9473
3.8634 -12.7370 -2.5018 0.9473
4.7671 -12.4270 -2.5018 0.9473
5.2100 -12.2479 -2.5018 0.9473
5.6462 -12.0531 -2.5018 0.9473
6.4963 -11.6170 -2.5018 0.9473
6.9091 -11.3763 -2.5018 0.9473
7.3129 -11.1210 -2.5018 0.9473
-8.0373 -8.6877 -2.5018 0.9528
-7.3934 -9.2419 -2.5018 0.9528
-7.0570 -9.5013 -2.5018 0.9528
-6.3572 -9.9830 -2.5018 0.9528
-4.8633 -10.7900 -2.5018 0.9528
-3.6753 -11.2502 -2.5018 0.9528
-2.8588 -11.4849 -2.5018 0.9528
-0.3382 -11.8305 -2.5018 0.9528
0.5113 -11.8243 -2.5018 0.9528
0.9354 -11.7983 -2.5018 0.9528
1.7793 -11.7008 -2.5018 0.9528
2.1981 -11.6294 -2.5018 0.9528
3.0267 -11.4418 -2.5018 0.9528
3.4354 -11.3258 -2.5018 0.9528
3.8396 -11.1952 -2.5018 0.9528
4.2389 -11.0502 -2.5018 0.9528
4.6328 -10.8910 -2.5018 0.9528
6.5027 -9.8889 -2.5018 0.9528
-7.2288 -7.8138 -2.5018 0.9572
-6.0363 -8.7678 -2.5018 0.9572
-5.3918 -9.1782 -2.5018 0.9572
-4.7195 -9.5413 -2.5018 0.9572
-3.3056 -10.1185 -2.5018 0.9572
-2.5712 -10.3295 -2.5018 0.9572
-1.0666 -10.5912 -2.5018 0.9572
-0.6859 -10.6226 -2.5018 0.9572
0.0779 -10.6445 -2.5018 0.9572
0.8413 -10.6114 -2.5018 0.9572
1.9770 -10.4595 -2.5018 0.9572
2.7222 -10.2908 -2.5018 0.9572
3.4534 -10.0690 -2.5018 0.9572
3.8125 -9.9386 -2.5018 0.9572
4.5156 -9.6395 -2.5018 0.9572
5.1955 -9.2907 -2.5018 0.9572
5.8485 -8.8941 -2.5018 0.9572
-6.8120 -6.8526 -2.5018 0.9609
-5.7613 -7.7569 -2.5018 0.9609
-4.8942 -8.3312 -2.5018 0.9609
-4.5920 -8.5014 -2.5018 0.9609
-4.2840 -8.6608 -2.5018 0.9609
-3.9703 -8.8090 -2.5018 0.9609
-3.6516 -8.9458 -2.5018 0.9609
-3.0005 -9.1846 -2.5018 0.9609
-2.3340 -9.3762 -2.5018 0.9609
-1.3126 -9.5728 -2.5018 0.9609
-0.9682 -9.6137 -2.5018 0.9609
0.7636 -9.6321 -2.5018 0.9609
1.1088 -9.5985 -2.5018 0.9609
1.4526 -9.5526 -2.5018 0.9609
2.8046 -9.2464 -2.5018 0.9609
3.1347 -9.1398 -2.5018 0.9609
4.0989 -8.7499 -2.5018 0.9609
4.7160 -8.4333 -2.5018 0.9609
5.3088 -8.0733 -2.5018 0.9609
-6.0013 -6.4870 -2.5018 0.9639
-5.7646 -6.6982 -2.5018 0.9639
-4.1999 -7.7754 -2.5018 0.9639
-3.6313 -8.0567 -2.5018 0.9639
-3.3398 -8.1818 -2.5018 0.9639
-2.7443 -8.4003 -2.5018 0.9639
-1.8255 -8.6466 -2.5018 0.9639
-1.5140 -8.7066 -2.5018 0.9639
-0.5694 -8.8189 -2.5018 0.9639
0.3818 -8.8290 -2.5018 0.9639
0.6984 -8.8096 -2.5018 0.9639
1.0141 -8.7789 -2.5018 0.9639
1.6413 -8.6835 -2.5018 0.9639
2.2600 -8.5434 -2.5018 0.9639
2.5651 -8.4568 -2.5018 0.9639
3.1652 -8.2510 -2.5018 0.9639
4.0337 -7.8630 -2.5018 0.9639
4.3133 -7.7132 -2.5018 0.9639
4.8554 -7.3839 -2.5018 0.9639
-5.0811 -6.3514 -2.5018 0.9665
-4.6123 -6.6995 -2.5018 0.9665
-4.3689 -6.8607 -2.5018 0.9665
-4.1199 -7.0131 -2.5018 0.9665
-3.6062 -7.2906 -2.5018 0.9665
-2.2467 -7.8173 -2.5018 0.9665
-1.1050 -8.0583 -2.5018 0.9665
-0.8150 -8.0928 -2.5018 0.9665
-0.5241 -8.1168 -2.5018 0.9665
0.3514 -8.1261 -2.5018 0.9665
0.6428 -8.1083 -2.5018 0.9665
0.9334 -8.0800 -2.5018 0.9665
2.0800 -7.8633 -2.5018 0.9665
2.3609 -7.7835 -2.5018 0.9665
3.4504 -7.3656 -2.5018 0.9665
3.7126 -7.2370 -2.5018 0.9665
3.9699 -7.0991 -2.5018 0.9665
4.7099 -6.6313 -2.5018 0.9665
-5.3060 -5.3376 -2.5018 0.9688
-5.1110 -5.5246 -2.5018 0.9688
-4.9094 -5.7045 -2.5018 0.9688
-4.7015 -5.8770 -2.5018 0.9688
-4.4876 -6.0420 -2.5018 0.9688
-4.2679 -6.1991 -2.5018 0.9688
-4.0426 -6.3483 -2.5018 0.9688
-3.8122 -6.4893 -2.5018 0.9688
-3.5768 -6.6220 -2.5018 0.9688
-3.3369 -6.7461 -2.5018 0.9688
-3.0926 -6.8615 -2.5018 0.9688
-2.8443 -6.9681 -2.5018 0.9688
-2.3372 -7.1541 -2.5018 0.9688
-2.0789 -7.2334 -2.5018 0.9688
-1.8179 -7.3033 -2.5018 0.9688
-1.5546 -7.3639 -2.5018 0.9688
-1.0224 -7.4564 -2.5018 0.9688
-0.7542 -7.4883 -2.5018 0.9688
-0.4849 -7.5106 -2.5018 0.9688
-0.2150 -7.5231 -2.5018 0.9688
0.0551 -7.5260 -2.5018 0.9688
0.5948 -7.5027 -2.5018 0.9688
1.1315 -7.4407 -2.5018 0.9688
1.3978 -7.3953 -2.5018 0.9688
2.1846 -7.2022 -2.5018 0.9688
2.6956 -7.0269 -2.5018 0.9688
3.1927 -6.8155 -2.5018 0.9688
3.6734 -6.5689 -2.5018 0.9688
-4.9321 -4.9615 -2.5018 0.9707
-4.5634 -5.3025 -2.5018 0.9707
-3.9671 -5.7623 -2.5018 0.9707
-3.1017 -6.2706 -2.5018 0.9707
-2.8746 -6.3779 -2.5018 0.9707
-2.1725 -6.6500 -2.5018 0.9707
-1.9324 -6.7236 -2.5018 0.9707
-1.6898 -6.7887 -2.5018 0.9707
-1.4451 -6.8449 -2.5018 0.9707
-1.1985 -6.8924 -2.5018 0.9707
-0.7010 -6.9606 -2.5018 0.9707
-0.1999 -6.9930 -2.5018 0.9707
0.8028 -6.9496 -2.5018 0.9707
1.2993 -6.8741 -2.5018 0.9707
1.5452 -6.8231 -2.5018 0.9707
2.0306 -6.6946 -2.5018 0.9707
2.2696 -6.6174 -2.5018 0.9707
2.5056 -6.5317 -2.5018 0.9707
3.1932 -6.2246 -2.5018 0.9707
3.4145 -6.1060 -2.5018 0.9707
3.8437 -5.8453 -2.5018 0.9707
4.0510 -5.7036 -2.5018 0.9707
-4.6025 -4.6299 -2.5018 0.9724
-4.4333 -4.7921 -2.5018 0.9724
-4.2585 -4.9481 -2.5018 0.9724
-3.8926 -5.2408 -2.5018 0.9724
-3.5066 -5.5066 -2.5018 0.9724
-3.3067 -5.6289 -2.5018 0.9724
-2.4672 -6.0441 -2.5018 0.9724
-2.2487 -6.1288 -2.5018 0.9724
-1.5769 -6.3350 -2.5018 0.9724
-0.8869 -6.4678 -2.5018 0.9724
-0.6542 -6.4954 -2.5018 0.9724
0.5159 -6.5079 -2.5018 0.9724
0.9815 -6.4541 -2.5018 0.9724
1.2125 -6.4147 -2.5018 0.9724
1.4419 -6.3671 -2.5018 0.9724
1.8949 -6.2472 -2.5018 0.9724
2.1179 -6.1752 -2.5018 0.9724
2.7694 -5.9118 -2.5018 0.9724
3.5868 -5.4547 -2.5018 0.9724
3.7803 -5.3224 -2.5018 0.9724
-4.1511 -4.4870 -2.5018 0.9739
-3.9874 -4.6331 -2.5018 0.9739
-3.8185 -4.7732 -2.5018 0.9739
-3.6447 -4.9072 -2.5018 0.9739
-2.9050 -5.3782 -2.5018 0.9739
-2.7101 -5.4790 -2.5018 0.9739
-2.5117 -5.5728 -2.5018 0.9739
-1.8982 -5.8104 -2.5018 0.9739
-1.6884 -5.8748 -2.5018 0.9739
-1.4765 -5.9317 -2.5018 0.9739
-1.2627 -5.9808 -2.5018 0.9739
-0.8304 -6.0560 -2.5018 0.9739
-0.3938 -6.1000 -2.5018 0.9739
0.2641 -6.1070 -2.5018 0.9739
0.4831 -6.0935 -2.5018 0.9739
0.7015 -6.0723 -2.5018 0.9739
0.9190 -6.0432 -2.5018 0.9739
1.1353 -6.0063 -2.5018 0.9739
1.3501 -5.9617 -2.5018 0.9739
1.5632 -5.9094 -2.5018 0.9739
1.7743 -5.8495 -2.5018 0.9739
2.9835 -5.3351 -2.5018 0.9739
3.1730 -5.2246 -2.5018 0.9739
3.3585 -5.1074 -2.5018 0.9739
-3.2552 -4.7282 -2.5018 0.9753
-2.9076 -4.9495 -2.5018 0.9753
-2.7281 -5.0507 -2.5018 0.9753
-1.7826 -5.4566 -2.5018 0.9753
-1.1858 -5.6166 -2.5018 0.9753
-0.7798 -5.6872 -2.5018 0.9753
-0.5752 -5.7115 -2.5018 0.9753
-0.1640 -5.7380 -2.5018 0.9753
0.2480 -5.7350 -2.5018 0.9753
0.6588 -5.7025 -2.5018 0.9753
1.0661 -5.6405 -2.5018 0.9753
1.2679 -5.5986 -2.5018 0.9753
2.0560 -5.3596 -2.5018 0.9753
2.2470 -5.2823 -2.5018 0.9753
2.6201 -5.1075 -2.5018 0.9753
2.8018 -5.0102 -2.5018 0.9753
3.1540 -4.7963 -2.5018 0.9753
3.3241 -4.6800 -2.5018 0.9753
-3.6703 -3.9673 -2.5018 0.9765
-3.5255 -4.0965 -2.5018 0.9765
-3.2226 -4.3388 -2.5018 0.9765
-3.0648 -4.4517 -2.5018 0.9765
-2.9031 -4.5588 -2.5018 0.9765
-2.7376 -4.6601 -2.5018 0.9765
-2.5686 -4.7553 -2.5018 0.9765
-2.3963 -4.8445 -2.5018 0.9765
-2.2208 -4.9273 -2.5018 0.9765
-2.0425 -5.0039 -2.5018 0.9765
-1.8617 -5.0740 -2.5018 0.9765
-1.6784 -5.1375 -2.5018 0.9765
-0.9259 -5.3248 -2.5018 0.9765
-0.7342 -5.3546 -2.5018 0.9765
-0.5416 -5.3775 -2.5018 0.9765
0.0396 -5.4046 -2.5018 0.9765
0.2335 -5.3997 -2.5018 0.9765
0.4272 -5.3878 -2.5018 0.9765
1.0038 -5.3107 -2.5018 0.9765
1.1937 -5.2712 -2.5018 0.9765
1.7534 -5.1124 -2.5018 0.9765
1.9358 -5.0462 -2.5018 0.9765
2.1156 -4.9734 -2.5018 0.9765
2.6379 -4.7172 -2.5018 0.9765
2.9695 -4.5159 -2.5018 0.9765
3.1297 -4.4064 -2.5018 0.9765
-3.4635 -3.7438 -2.5018 0.9775
-2.5833 -4.3975 -2.5018 0.9775
-1.9275 -4.7219 -2.5018 0.9775
-1.0535 -4.9902 -2.5018 0.9775
-0.8738 -5.0248 -2.5018 0.9775
-0.6929 -5.0529 -2.5018 0.9775
0.0373 -5.1000 -2.5018 0.9775
0.5853 -5.0665 -2.5018 0.9775
0.7668 -5.0422 -2.5018 0.9775
1.1265 -4.9742 -2.5018 0.9775
1.3043 -4.9306 -2.5018 0.9775
1.6546 -4.8243 -2.5018 0.9775
1.8267 -4.7618 -2.5018 0.9775
1.9964 -4.6932 -2.5018 0.9775
2.1636 -4.6185 -2.5018 0.9775
2.6475 -4.3592 -2.5018 0.9775
2.8022 -4.2614 -2.5018 0.9775
2.9533 -4.1581 -2.5018 0.9775
-3.3998 -3.4201 -2.5018 0.9785
-3.1457 -3.6551 -2.5018 0.9785
-2.8754 -3.8714 -2.5018 0.9785
-2.7346 -3.9721 -2.5018 0.9785
-2.5903 -4.0677 -2.5018 0.9785
-2.1381 -4.3225 -2.5018 0.9785
-1.9816 -4.3964 -2.5018 0.9785
-1.3320 -4.6348 -2.5018 0.9785
-0.8262 -4.7511 -2.5018 0.9785
-0.6551 -4.7777 -2.5018 0.9785
-0.4832 -4.7981 -2.5018 0.9785
-0.3107 -4.8124 -2.5018 0.9785
0.0353 -4.8223 -2.5018 0.9785
0.2083 -4.8179 -2.5018 0.9785
1.0651 -4.7033 -2.5018 0.9785
1.2332 -4.6620 -2.5018 0.9785
1.3998 -4.6148 -2.5018 0.9785
1.5645 -4.5616 -2.5018 0.9785
1.7272 -4.5025 -2.5018 0.9785
1.8877 -4.4376 -2.5018 0.9785
2.0457 -4.3670 -2.5018 0.9785
2.3537 -4.2090 -2.5018 0.9785
-3.1019 -3.3529 -2.5018 0.9794
-2.9796 -3.4621 -2.5018 0.9794
-2.7235 -3.6669 -2.5018 0.9794
-2.5902 -3.7623 -2.5018 0.9794
-2.3136 -3.9384 -2.5018 0.9794
-1.8769 -4.1643 -2.5018 0.9794
-1.5734 -4.2882 -2.5018 0.9794
-1.1033 -4.4325 -2.5018 0.9794
-0.7825 -4.5002 -2.5018 0.9794
-0.6205 -4.5254 -2.5018 0.9794
0.6867 -4.5158 -2.5018 0.9794
0.8483 -4.4882 -2.5018 0.9794
1.3258 -4.3711 -2.5018 0.9794
1.4819 -4.3207 -2.5018 0.9794
1.7880 -4.2032 -2.5018 0.9794
2.0849 -4.0642 -2.5018 0.9794
2.3711 -3.9041 -2.5018 0.9794
2.5096 -3.8165 -2.5018 0.9794
2.6450 -3.7240 -2.5018 0.9794
-2.8266 -3.2843 -2.5018 0.9802
-2.7069 -3.3836 -2.5018 0.9802
-2.5837 -3.4786 -2.5018 0.9802
-2.3275 -3.6550 -2.5018 0.9802
-2.1948 -3.7362 -2.5018 0.9802
-1.9212 -3.8840 -2.5018 0.9802
-1.7805 -3.9504 -2.5018 0.9802
-1.6376 -4.0118 -2.5018 0.9802
-1.3456 -4.1189 -2.5018 0.9802
-0.7424 -4.2691 -2.5018 0.9802
-0.5887 -4.2930 -2.5018 0.9802
-0.2792 -4.3242 -2.5018 0.9802
-0.1238 -4.3314 -2.5018 0.9802
0.0317 -4.3331 -2.5018 0.9802
0.1872 -4.3291 -2.5018 0.9802
0.4973 -4.3045 -2.5018 0.9802
0.6515 -4.2839 -2.5018 0.9802
0.9571 -4.2262 -2.5018 0.9802
1.1081 -4.1891 -2.5018 0.9802
1.4058 -4.0988 -2.5018 0.9802
1.5520 -4.0457 -2.5018 0.9802
1.6962 -3.9874 -2.5018 0.9802
1.8382 -3.9240 -2.5018 0.9802
1.9778 -3.8555 -2.5018 0.9802
2.2493 -3.7037 -2.5018 0.9802
2.5092 -3.5328 -2.5018 0.9802
