ply
format ascii 1.0
element vertex 483
property float32 x
property float32 y
property float32 z
property float32 I
end_header
4.3130 -15.5088 0.2719 0.9376
4.9300 -15.5240 0.2751 0.9369
6.2133 -15.5557 0.2830 0.9352
7.5655 -15.5617 0.2923 0.9331
4.3054 -15.4813 -0.0905 0.9377
6.0397 -16.8724 -0.1009 0.9308
6.7462 -16.8898 -0.1024 0.9298
5.3457 -16.8329 -0.4973 0.9318
6.0397 -16.8724 -0.5046 0.9308
6.7462 -16.8898 -0.5121 0.9298
4.3054 -15.4813 -0.8149 0.9377
6.0397 -16.8724 -0.9088 0.9307
6.7462 -16.8898 -0.9224 0.9297
20.2765 -41.7071 -2.3519 0.8305
21.7741 -40.9433 -2.3518 0.8305
23.2382 -40.1174 -2.3512 0.8305
26.0703 -38.3091 -2.3500 0.8306
27.4348 -37.3295 -2.3494 0.8307
28.7737 -36.3154 -2.3497 0.8306
31.3408 -34.1484 -2.3506 0.8306
32.5641 -32.9962 -2.3511 0.8305
33.7450 -31.8001 -2.3515 0.8305
37.0177 -27.9645 -2.3528 0.8304
39.8553 -23.7935 -2.3540 0.8303
45.5659 -18.9002 -2.5017 0.8207
47.3483 -13.8424 -2.5017 0.8207
48.2267 -10.3758 -2.5017 0.8207
48.8517 -6.8548 -2.5017 0.8207
4.0417 -31.8484 -2.3539 0.8792
7.4734 -31.2153 -2.3535 0.8792
5.3457 -16.8329 -1.2950 0.9316
14.0252 -28.8487 -2.3520 0.8793
15.0590 -28.3164 -2.3516 0.8793
18.9797 -25.8250 -2.3499 0.8794
19.8998 -25.1157 -2.3495 0.8794
20.7973 -24.3780 -2.3495 0.8794
21.6700 -23.6113 -2.3498 0.8794
22.5146 -22.8133 -2.3501 0.8794
24.1143 -21.1276 -2.3507 0.8793
24.8674 -20.2423 -2.3510 0.8793
25.5879 -19.3300 -2.3513 0.8793
26.2750 -18.3921 -2.3516 0.8793
32.7491 -9.5743 -2.5017 0.8721
33.0746 -8.3810 -2.5017 0.8721
33.5949 -5.9628 -2.5017 0.8721
33.7889 -4.7412 -2.5017 0.8721
33.9386 -3.5134 -2.5017 0.8721
2.2034 -24.4230 -2.3543 0.9062
3.0871 -24.3263 -2.3542 0.9062
3.9667 -24.1977 -2.3541 0.9062
4.8407 -24.0360 -2.3539 0.9062
4.3054 -15.4813 -1.5427 0.9375
5.3457 -16.8329 -1.6955 0.9315
7.3375 -16.5971 -1.7422 0.9297
13.7744 -20.2408 -2.3505 0.9063
14.4970 -19.7256 -2.3502 0.9063
15.8838 -18.6185 -2.3496 0.9063
17.1916 -17.4196 -2.3496 0.9063
17.8093 -16.7828 -2.3493 0.9063
20.1298 -15.2067 -2.4220 0.9036
21.3481 -14.9434 -2.5017 0.9006
22.3746 -13.3575 -2.5017 0.9006
22.8441 -12.5377 -2.5017 0.9006
23.2835 -11.7015 -2.5017 0.9006
23.6923 -10.8498 -2.5017 0.9006
24.4161 -9.1050 -2.5017 0.9006
24.7300 -8.2140 -2.5017 0.9006
25.0116 -7.3122 -2.5017 0.9006
25.2601 -6.4008 -2.5017 0.9006
2.4947 -19.6580 -2.3538 0.9233
3.9115 -19.4218 -2.3534 0.9233
4.6124 -19.2652 -2.3531 0.9233
4.3054 -15.4813 -1.9087 0.9373
6.6724 -18.6398 -2.3517 0.9233
7.3403 -18.3774 -2.3507 0.9234
7.4702 -16.8973 -2.1946 0.9283
8.1250 -16.7125 -2.2074 0.9279
9.2866 -17.4622 -2.3493 0.9234
9.9135 -17.1141 -2.3493 0.9234
11.7126 -15.9369 -2.3493 0.9234
12.2825 -15.5019 -2.3493 0.9234
14.7939 -14.9902 -2.5017 0.9187
15.3275 -14.4441 -2.5017 0.9187
17.2539 -12.0775 -2.5017 0.9187
17.6280 -11.4103 -2.4943 0.9189
18.0836 -10.7958 -2.5017 0.9187
18.8182 -9.4574 -2.5017 0.9187
19.1486 -8.7691 -2.5017 0.9187
19.4538 -8.0692 -2.5017 0.9187
20.5899 -4.4299 -2.5017 0.9187
20.7369 -3.6806 -2.5017 0.9187
20.8567 -2.9266 -2.5017 0.9187
2.6823 -16.3626 -2.3493 0.9352
3.2736 -16.2546 -2.3493 0.9352
3.8606 -16.1253 -2.3493 0.9352
4.3054 -15.4813 -2.2768 0.9371
5.5882 -15.6109 -2.3493 0.9352
7.3953 -15.2115 -2.3965 0.9340
8.0854 -15.2034 -2.4398 0.9328
9.9338 -14.5971 -2.5017 0.9312
10.4563 -14.2275 -2.5017 0.9312
11.9389 -13.0084 -2.5017 0.9312
12.4025 -12.5671 -2.5017 0.9312
13.2804 -11.6355 -2.5017 0.9312
14.0884 -10.6429 -2.5017 0.9312
14.4649 -10.1253 -2.5017 0.9312
15.1604 -9.0507 -2.5017 0.9312
16.3092 -6.7649 -2.5017 0.9312
17.2616 -3.7138 -2.5017 0.9312
17.3849 -3.0857 -2.5017 0.9312
17.4853 -2.4535 -2.5017 0.9312
1.3645 -15.1247 -2.5017 0.9403
1.9118 -15.0653 -2.5017 0.9403
2.9982 -14.8872 -2.5017 0.9403
4.0688 -14.6309 -2.5017 0.9403
5.1181 -14.2977 -2.5017 0.9403
5.6330 -14.1028 -2.5017 0.9403
6.6399 -13.6576 -2.5017 0.9403
7.6118 -13.1407 -2.5017 0.9403
10.2684 -11.1883 -2.5017 0.9403
10.6672 -10.8087 -2.5017 0.9403
11.0520 -10.4150 -2.5017 0.9403
11.4222 -10.0075 -2.5017 0.9403
12.4410 -8.7085 -2.5017 0.9403
12.7485 -8.2519 -2.5017 0.9403
13.5689 -6.8193 -2.5017 0.9403
14.0273 -5.8183 -2.5017 0.9403
14.4119 -4.7869 -2.5017 0.9403
14.5760 -4.2613 -2.5017 0.9403
14.9524 -2.6539 -2.5017 0.9403
15.0388 -2.1102 -2.5017 0.9403
1.1959 -13.2561 -2.5017 0.9473
1.6756 -13.2040 -2.5017 0.9473
2.1531 -13.1346 -2.5017 0.9473
2.6278 -13.0479 -2.5017 0.9473
3.0990 -12.9441 -2.5017 0.9473
3.5662 -12.8233 -2.5017 0.9473
4.0286 -12.6856 -2.5017 0.9473
4.4858 -12.5312 -2.5017 0.9473
4.9370 -12.3604 -2.5017 0.9473
6.2496 -11.7515 -2.5017 0.9473
7.0845 -11.2679 -2.5017 0.9473
7.8822 -10.7250 -2.5017 0.9473
8.9998 -9.8060 -2.5017 0.9473
9.3493 -9.4734 -2.5017 0.9473
9.6866 -9.1283 -2.5017 0.9473
10.3224 -8.4025 -2.5017 0.9473
11.1735 -7.2324 -2.5017 0.9473
11.6681 -6.4039 -2.5017 0.9473
11.8925 -5.9768 -2.5017 0.9473
12.6314 -4.1955 -2.5017 0.9473
13.0122 -2.7995 -2.5017 0.9473
13.1808 -1.8495 -2.5017 0.9473
1.0634 -11.7874 -2.5017 0.9528
1.4900 -11.7412 -2.5017 0.9528
2.3367 -11.6023 -2.5017 0.9528
3.1711 -11.4026 -2.5017 0.9528
3.5823 -11.2801 -2.5017 0.9528
3.9888 -11.1429 -2.5017 0.9528
4.3900 -10.9910 -2.5017 0.9528
4.7855 -10.8246 -2.5017 0.9528
5.1748 -10.6441 -2.5017 0.9528
6.6586 -9.7845 -2.5017 0.9528
7.0089 -9.5368 -2.5017 0.9528
7.3500 -9.2764 -2.5017 0.9528
7.6814 -9.0039 -2.5017 0.9528
8.0027 -8.7196 -2.5017 0.9528
9.4436 -7.1340 -2.5017 0.9528
9.6959 -6.7870 -2.5017 0.9528
9.9356 -6.4311 -2.5017 0.9528
10.3754 -5.6944 -2.5017 0.9528
10.5750 -5.3146 -2.5017 0.9528
11.2320 -3.7307 -2.5017 0.9528
11.3598 -3.3211 -2.5017 0.9528
11.6532 -2.0683 -2.5017 0.9528
11.7724 -1.2187 -2.5017 0.9528
0.9565 -10.6016 -2.5017 0.9572
1.3401 -10.5600 -2.5017 0.9572
1.7220 -10.5045 -2.5017 0.9572
2.1016 -10.4352 -2.5017 0.9572
2.4785 -10.3521 -2.5017 0.9572
2.8521 -10.2555 -2.5017 0.9572
3.5875 -10.0219 -2.5017 0.9572
3.9484 -9.8853 -2.5017 0.9572
4.3041 -9.7357 -2.5017 0.9572
4.9981 -9.3983 -2.5017 0.9572
5.3355 -9.2110 -2.5017 0.9572
5.6659 -9.0115 -2.5017 0.9572
6.6106 -8.3433 -2.5017 0.9572
6.9087 -8.0982 -2.5017 0.9572
7.1976 -7.8424 -2.5017 0.9572
7.4772 -7.5764 -2.5017 0.9572
8.4936 -6.4163 -2.5017 0.9572
8.7205 -6.1042 -2.5017 0.9572
9.6781 -4.4321 -2.5017 0.9572
9.8324 -4.0784 -2.5017 0.9572
10.1020 -3.3553 -2.5017 0.9572
10.4066 -2.2390 -2.5017 0.9572
10.5414 -1.4792 -2.5017 0.9572
0.8682 -9.6232 -2.5017 0.9609
1.5631 -9.5351 -2.5017 0.9609
2.5888 -9.3091 -2.5017 0.9609
3.2564 -9.0970 -2.5017 0.9609
3.5840 -8.9730 -2.5017 0.9609
3.9069 -8.8372 -2.5017 0.9609
4.2247 -8.6898 -2.5017 0.9609
4.5369 -8.5310 -2.5017 0.9609
4.8431 -8.3609 -2.5017 0.9609
5.1430 -8.1799 -2.5017 0.9609
5.7221 -7.7858 -2.5017 0.9609
6.0005 -7.5733 -2.5017 0.9609
6.2711 -7.3508 -2.5017 0.9609
7.9158 -5.5409 -2.5017 0.9609
8.1114 -5.2503 -2.5017 0.9609
8.4704 -4.6489 -2.5017 0.9609
8.7850 -4.0231 -2.5017 0.9609
8.9250 -3.7020 -2.5017 0.9609
9.1697 -3.0457 -2.5017 0.9609
9.2741 -2.7113 -2.5017 0.9609
9.3663 -2.3734 -2.5017 0.9609
0.7941 -8.8015 -2.5017 0.9639
1.1125 -8.7669 -2.5017 0.9639
1.7447 -8.6633 -2.5017 0.9639
2.0576 -8.5943 -2.5017 0.9639
2.3678 -8.5141 -2.5017 0.9639
2.9784 -8.3202 -2.5017 0.9639
3.2780 -8.2068 -2.5017 0.9639
3.8639 -7.9477 -2.5017 0.9639
4.4295 -7.6469 -2.5017 0.9639
4.7038 -7.4813 -2.5017 0.9639
4.9719 -7.3059 -2.5017 0.9639
5.2334 -7.1209 -2.5017 0.9639
6.4314 -6.0608 -2.5017 0.9639
6.6469 -5.8237 -2.5017 0.9639
6.8536 -5.5789 -2.5017 0.9639
7.0513 -5.3268 -2.5017 0.9639
7.2398 -5.0677 -2.5017 0.9639
7.4187 -4.8020 -2.5017 0.9639
7.5879 -4.5299 -2.5017 0.9639
7.7471 -4.2519 -2.5017 0.9639
7.8961 -3.9683 -2.5017 0.9639
8.0348 -3.6795 -2.5017 0.9639
8.2802 -3.0877 -2.5017 0.9639
8.3867 -2.7856 -2.5017 0.9639
8.4822 -2.4798 -2.5017 0.9639
8.5665 -2.1707 -2.5017 0.9639
8.7012 -1.5444 -2.5017 0.9639
8.7515 -1.2280 -2.5017 0.9639
1.0240 -8.0690 -2.5017 0.9665
1.3158 -8.0266 -2.5017 0.9665
1.6059 -7.9736 -2.5017 0.9665
1.8938 -7.9101 -2.5017 0.9665
2.4619 -7.7522 -2.5017 0.9665
3.0170 -7.5534 -2.5017 0.9665
3.2888 -7.4391 -2.5017 0.9665
3.5563 -7.3150 -2.5017 0.9665
4.0769 -7.0382 -2.5017 0.9665
4.5761 -6.7243 -2.5017 0.9665
4.8168 -6.5540 -2.5017 0.9665
5.2789 -6.1879 -2.5017 0.9665
5.4998 -5.9924 -2.5017 0.9665
6.1178 -5.3600 -2.5017 0.9665
6.4900 -4.9028 -2.5017 0.9665
6.6634 -4.6643 -2.5017 0.9665
6.8281 -4.4197 -2.5017 0.9665
7.1304 -3.9134 -2.5017 0.9665
7.2675 -3.6524 -2.5017 0.9665
7.3951 -3.3866 -2.5017 0.9665
7.6210 -2.8419 -2.5017 0.9665
7.8845 -1.9979 -2.5017 0.9665
8.0085 -1.4214 -2.5017 0.9665
8.0548 -1.1302 -2.5017 0.9665
0.6762 -7.4957 -2.5017 0.9688
1.4859 -7.3780 -2.5017 0.9688
1.7524 -7.3193 -2.5017 0.9688
2.0165 -7.2510 -2.5017 0.9688
3.0432 -6.8835 -2.5017 0.9688
3.5339 -6.6450 -2.5017 0.9688
4.4570 -6.0645 -2.5017 0.9688
4.8847 -5.7257 -2.5017 0.9688
5.2867 -5.3568 -2.5017 0.9688
5.4773 -5.1617 -2.5017 0.9688
5.6608 -4.9597 -2.5017 0.9688
5.8369 -4.7513 -2.5017 0.9688
6.0053 -4.5366 -2.5017 0.9688
6.1658 -4.3159 -2.5017 0.9688
6.3181 -4.0896 -2.5017 0.9688
6.8428 -3.1336 -2.5017 0.9688
7.2238 -2.1119 -2.5017 0.9688
7.3579 -1.5830 -2.5017 0.9688
1.1317 -6.9037 -2.5017 0.9707
1.3812 -6.8581 -2.5017 0.9707
1.6289 -6.8035 -2.5017 0.9707
1.8744 -6.7400 -2.5017 0.9707
2.1175 -6.6676 -2.5017 0.9707
2.3578 -6.5865 -2.5017 0.9707
3.0588 -6.2917 -2.5017 0.9707
4.3445 -5.4833 -2.5017 0.9707
4.7304 -5.1541 -2.5017 0.9707
4.9141 -4.9793 -2.5017 0.9707
5.2619 -4.6102 -2.5017 0.9707
5.5821 -4.2169 -2.5017 0.9707
5.8729 -3.8014 -2.5017 0.9707
6.2508 -3.1414 -2.5017 0.9707
6.4620 -2.6803 -2.5017 0.9707
6.7147 -1.9631 -2.5017 0.9707
6.7815 -1.7184 -2.5017 0.9707
6.9279 -0.9721 -2.5017 0.9707
0.8219 -6.4763 -2.5017 0.9724
1.2889 -6.3998 -2.5017 0.9724
1.5200 -6.3488 -2.5017 0.9724
1.9760 -6.2221 -2.5017 0.9724
2.2002 -6.1463 -2.5017 0.9724
2.4215 -6.0625 -2.5017 0.9724
2.6397 -5.9708 -2.5017 0.9724
2.8544 -5.8712 -2.5017 0.9724
3.4748 -5.5267 -2.5017 0.9724
4.0542 -5.1168 -2.5017 0.9724
4.4142 -4.8097 -2.5017 0.9724
4.9102 -4.3021 -2.5017 0.9724
5.2090 -3.9351 -2.5017 0.9724
5.3482 -3.7437 -2.5017 0.9724
5.4804 -3.5474 -2.5017 0.9724
5.7230 -3.1410 -2.5017 0.9724
5.8331 -2.9315 -2.5017 0.9724
6.1168 -2.2810 -2.5017 0.9724
6.1954 -2.0578 -2.5017 0.9724
6.2660 -1.8319 -2.5017 0.9724
6.3283 -1.6036 -2.5017 0.9724
6.4278 -1.1409 -2.5017 0.9724
6.4649 -0.9071 -2.5017 0.9724
0.9888 -6.0321 -2.5017 0.9739
1.2068 -5.9923 -2.5017 0.9739
1.6378 -5.8891 -2.5017 0.9739
1.8502 -5.8259 -2.5017 0.9739
2.2674 -5.6766 -2.5017 0.9739
2.4716 -5.5906 -2.5017 0.9739
2.6726 -5.4974 -2.5017 0.9739
4.1332 -4.5034 -2.5017 0.9739
4.4486 -4.1922 -2.5017 0.9739
4.5976 -4.0282 -2.5017 0.9739
4.7406 -3.8589 -2.5017 0.9739
4.8774 -3.6845 -2.5017 0.9739
5.2485 -3.1333 -2.5017 0.9739
5.4617 -2.7449 -2.5017 0.9739
5.6462 -2.3420 -2.5017 0.9739
5.7274 -2.1358 -2.5017 0.9739
5.8010 -1.9268 -2.5017 0.9739
5.9759 -1.2857 -2.5017 0.9739
6.0186 -1.0683 -2.5017 0.9739
6.0533 -0.8494 -2.5017 0.9739
0.5158 -5.7171 -2.5017 0.9753
0.7227 -5.6947 -2.5017 0.9753
0.9286 -5.6648 -2.5017 0.9753
1.1333 -5.6274 -2.5017 0.9753
1.3366 -5.5826 -2.5017 0.9753
1.5380 -5.5305 -2.5017 0.9753
2.6954 -5.0682 -2.5017 0.9753
3.0554 -4.8596 -2.5017 0.9753
3.3995 -4.6255 -2.5017 0.9753
3.5649 -4.4993 -2.5017 0.9753
3.8815 -4.2292 -2.5017 0.9753
4.1777 -3.9369 -2.5017 0.9753
4.3176 -3.7829 -2.5017 0.9753
4.4519 -3.6239 -2.5017 0.9753
4.8190 -3.1192 -2.5017 0.9753
4.9289 -2.9425 -2.5017 0.9753
5.0323 -2.7619 -2.5017 0.9753
5.3786 -2.0057 -2.5017 0.9753
5.5097 -1.6108 -2.5017 0.9753
5.6847 -0.7977 -2.5017 0.9753
0.4856 -5.3828 -2.5017 0.9765
1.6359 -5.1512 -2.5017 0.9765
1.8215 -5.0885 -2.5017 0.9765
2.1854 -4.9432 -2.5017 0.9765
2.5378 -4.7718 -2.5017 0.9765
2.7090 -4.6767 -2.5017 0.9765
2.8768 -4.5755 -2.5017 0.9765
3.3564 -4.2362 -2.5017 0.9765
3.5078 -4.1117 -2.5017 0.9765
3.7964 -3.8468 -2.5017 0.9765
3.9334 -3.7067 -2.5017 0.9765
4.0651 -3.5616 -2.5017 0.9765
4.1916 -3.4120 -2.5017 0.9765
4.3125 -3.2578 -2.5017 0.9765
4.4277 -3.0993 -2.5017 0.9765
4.6406 -2.7704 -2.5017 0.9765
4.8291 -2.4270 -2.5017 0.9765
4.9923 -2.0707 -2.5017 0.9765
5.1876 -1.5166 -2.5017 0.9765
5.2838 -1.1368 -2.5017 0.9765
5.3215 -0.9445 -2.5017 0.9765
5.3523 -0.7510 -2.5017 0.9765
5.3760 -0.5565 -2.5017 0.9765
0.4583 -5.0795 -2.5017 0.9775
1.0069 -4.9998 -2.5017 0.9775
1.3665 -4.9137 -2.5017 0.9775
1.5437 -4.8609 -2.5017 0.9775
2.2300 -4.5868 -2.5017 0.9775
2.3948 -4.5030 -2.5017 0.9775
2.5564 -4.4132 -2.5017 0.9775
2.7147 -4.3177 -2.5017 0.9775
3.3101 -3.8800 -2.5017 0.9775
3.4486 -3.7575 -2.5017 0.9775
3.5825 -3.6300 -2.5017 0.9775
3.7117 -3.4978 -2.5017 0.9775
3.9554 -3.2197 -2.5017 0.9775
4.0695 -3.0742 -2.5017 0.9775
4.1783 -2.9247 -2.5017 0.9775
4.2815 -2.7713 -2.5017 0.9775
4.4710 -2.4539 -2.5017 0.9775
4.7787 -1.7820 -2.5017 0.9775
4.8402 -1.6076 -2.5017 0.9775
4.8953 -1.4311 -2.5017 0.9775
4.9439 -1.2528 -2.5017 0.9775
4.9861 -1.0727 -2.5017 0.9775
5.0507 -0.7087 -2.5017 0.9775
5.0731 -0.5252 -2.5017 0.9775
0.4333 -4.8029 -2.5017 0.9785
0.6071 -4.7840 -2.5017 0.9785
0.7801 -4.7589 -2.5017 0.9785
0.9521 -4.7275 -2.5017 0.9785
1.1228 -4.6898 -2.5017 0.9785
1.2921 -4.6461 -2.5017 0.9785
1.4596 -4.5962 -2.5017 0.9785
2.1085 -4.3370 -2.5017 0.9785
2.2643 -4.2577 -2.5017 0.9785
2.4172 -4.1728 -2.5017 0.9785
2.5668 -4.0825 -2.5017 0.9785
2.7131 -3.9868 -2.5017 0.9785
2.8558 -3.8858 -2.5017 0.9785
2.9948 -3.7798 -2.5017 0.9785
3.1298 -3.6687 -2.5017 0.9785
3.2608 -3.5529 -2.5017 0.9785
3.3874 -3.4323 -2.5017 0.9785
3.5096 -3.3073 -2.5017 0.9785
3.6272 -3.1779 -2.5017 0.9785
3.7400 -3.0443 -2.5017 0.9785
3.8478 -2.9068 -2.5017 0.9785
4.3088 -2.1655 -2.5017 0.9785
4.3845 -2.0079 -2.5017 0.9785
4.4544 -1.8476 -2.5017 0.9785
4.5184 -1.6850 -2.5017 0.9785
4.5766 -1.5201 -2.5017 0.9785
4.6286 -1.3532 -2.5017 0.9785
4.7482 -0.8428 -2.5017 0.9785
1.5394 -4.3005 -2.5017 0.9794
1.6943 -4.2419 -2.5017 0.9794
1.8469 -4.1776 -2.5017 0.9794
2.4313 -3.8669 -2.5017 0.9794
2.9646 -3.4750 -2.5017 0.9794
3.3242 -3.1326 -2.5017 0.9794
3.4356 -3.0101 -2.5017 0.9794
3.5425 -2.8836 -2.5017 0.9794
3.7420 -2.6194 -2.5017 0.9794
4.0813 -2.0511 -2.5017 0.9794
4.3349 -1.4398 -2.5017 0.9794
4.4278 -1.1220 -2.5017 0.9794
4.4655 -0.9608 -2.5017 0.9794
4.4974 -0.7983 -2.5017 0.9794
4.5234 -0.6347 -2.5017 0.9794
0.3894 -4.3156 -2.5017 0.9802
0.5455 -4.2987 -2.5017 0.9802
0.7010 -4.2761 -2.5017 0.9802
1.0089 -4.2141 -2.5017 0.9802
1.3115 -4.1299 -2.5017 0.9802
1.7521 -3.9631 -2.5017 0.9802
1.8946 -3.8970 -2.5017 0.9802
2.1719 -3.7495 -2.5017 0.9802
2.4379 -3.5823 -2.5017 0.9802
2.6910 -3.3963 -2.5017 0.9802
2.8123 -3.2965 -2.5017 0.9802
3.0438 -3.0841 -2.5017 0.9802
3.1535 -2.9718 -2.5017 0.9802
3.2592 -2.8555 -2.5017 0.9802
3.4575 -2.6119 -2.5017 0.9802
3.5499 -2.4849 -2.5017 0.9802
3.6376 -2.3546 -2.5017 0.9802
3.8717 -1.9458 -2.5017 0.9802
3.9397 -1.8042 -2.5017 0.9802
4.1123 -1.3659 -2.5017 0.9802
4.2004 -1.0644 -2.5017 0.9802
4.2362 -0.9114 -2.5017 0.9802
