ply
format ascii 1.0
element vertex 665
property float32 x
property float32 y
property float32 z
property float32 I
end_header
21.9794 14.4480 4.6379 0.8987
18.9626 14.5225 4.2115 0.9075
17.5862 14.5024 4.0193 0.9116
16.2210 16.6238 4.0955 0.9100
16.1539 17.7944 4.2377 0.9070
16.3658 22.4914 4.9046 0.8932
16.4632 26.4353 5.4913 0.8812
7.7973 14.7980 2.9493 0.9343
6.4968 14.8301 2.8549 0.9364
5.8758 14.8454 2.8152 0.9372
4.6802 14.8749 2.7496 0.9386
4.1016 14.8892 2.7232 0.9392
21.9134 14.4046 4.0173 0.8993
20.3983 14.4870 3.8328 0.9037
18.9626 14.5225 3.6590 0.9079
16.4418 14.5847 3.3669 0.9149
16.1918 15.4401 3.4275 0.9134
16.2210 16.6238 3.5582 0.9103
16.1539 17.7944 3.6817 0.9073
16.2968 22.3964 4.2432 0.8940
16.4118 24.3520 4.4987 0.8880
16.4632 26.4353 4.7709 0.8816
7.7973 14.7980 2.5624 0.9346
7.1365 14.8143 2.5191 0.9356
6.4968 14.8301 2.4803 0.9366
5.8758 14.8454 2.4459 0.9374
4.6802 14.8749 2.3889 0.9388
4.1016 14.8892 2.3659 0.9394
3.5333 14.9032 2.3464 0.9399
2.9736 14.9170 2.3302 0.9403
35.0446 10.5851 4.7672 0.8627
36.8102 14.0821 5.1323 0.8530
33.3769 14.1668 4.7217 0.8639
30.7327 15.7448 4.4967 0.8700
30.9030 18.7559 4.7074 0.8643
21.9134 14.4046 3.4149 0.8996
20.3983 14.4870 3.2580 0.9040
18.9626 14.5225 3.1103 0.9082
17.5862 14.5024 2.9683 0.9122
16.2210 16.6238 3.0246 0.9106
16.1539 17.7944 3.1296 0.9076
16.3336 19.3491 3.2974 0.9029
16.2968 22.3964 3.6069 0.8943
7.1365 14.8143 2.1413 0.9358
6.4968 14.8301 2.1084 0.9368
5.8758 14.8454 2.0791 0.9376
3.5333 14.9032 1.9945 0.9401
2.9736 14.9170 1.9807 0.9405
35.0406 10.5839 3.9306 0.8631
33.3769 14.1668 3.8936 0.8643
30.7955 14.4012 3.6506 0.8722
30.8299 15.7946 3.7197 0.8699
30.9490 18.7838 3.8876 0.8645
21.9794 14.4480 2.8244 0.8996
17.6498 14.5549 2.4566 0.9121
16.1918 15.4401 2.4025 0.9139
16.2210 16.6238 2.4941 0.9108
16.2526 17.9031 2.5965 0.9073
16.3245 20.8153 2.8406 0.8990
16.3145 22.4209 2.9775 0.8944
8.4822 14.7811 1.8300 0.9337
5.2710 14.8603 1.6931 0.9385
3.5333 14.9032 1.6447 0.9402
2.9736 14.9170 1.6333 0.9406
33.3769 14.1668 3.0694 0.8645
30.7955 14.4012 2.8779 0.8724
30.7683 17.1893 2.9835 0.8681
30.8352 18.7147 3.0534 0.8652
21.9794 14.4480 2.2266 0.8998
18.9626 14.5225 2.0219 0.9086
16.4418 14.5846 1.8605 0.9156
16.1918 15.4401 1.8940 0.9141
16.2526 17.9031 2.0469 0.9075
16.2869 19.2938 2.1374 0.9036
16.3245 20.8153 2.2393 0.8993
16.3658 22.4913 2.3547 0.8943
16.4118 24.3520 2.4859 0.8888
7.7973 14.7980 1.4160 0.9351
7.1108 14.7609 1.3870 0.9363
3.5472 14.9620 1.3017 0.9401
35.0327 10.5815 2.2693 0.8636
36.8103 14.0821 2.4440 0.8539
33.3769 14.1668 2.2484 0.8648
30.8657 17.2437 2.1924 0.8679
20.3983 14.4870 1.5515 0.9046
18.9626 14.5225 1.4811 0.9087
16.0935 15.3463 1.3790 0.9147
16.2210 16.6238 1.4403 0.9111
16.3658 22.4914 1.7248 0.8945
8.4822 14.7811 1.0568 0.9340
7.7973 14.7980 1.0372 0.9352
7.1790 14.9024 1.0257 0.9359
6.4968 14.8301 1.0040 0.9372
3.5543 14.9918 0.9554 0.9401
35.0287 10.5803 1.4428 0.8637
36.8102 14.0821 1.5540 0.8540
33.3769 14.1668 1.4297 0.8649
30.7955 14.4012 1.3405 0.8728
30.7327 15.7448 1.3616 0.8709
23.8489 13.3236 1.0772 0.8964
21.9134 14.4046 1.0340 0.9003
20.3983 14.4870 0.9865 0.9047
17.5862 14.5024 0.8988 0.9128
16.4418 14.5846 0.8666 0.9158
16.1918 15.4401 0.8822 0.9143
16.2210 16.6238 0.9158 0.9112
16.1539 17.7944 0.9476 0.9083
16.3713 20.8749 1.0461 0.8992
16.2968 22.3964 1.0922 0.8950
16.4118 24.3520 1.1579 0.8891
8.4822 14.7811 0.6720 0.9341
7.7973 14.7980 0.6595 0.9352
6.4968 14.8301 0.6384 0.9372
5.8758 14.8454 0.6296 0.9381
5.2710 14.8603 0.6217 0.9388
4.6802 14.8749 0.6149 0.9395
3.5543 14.9918 0.6075 0.9402
2.9736 14.9170 0.5998 0.9409
35.0248 10.5791 0.6180 0.8638
36.8103 14.0821 0.6657 0.8541
30.8657 17.2437 0.5972 0.8681
18.9626 14.5225 0.4035 0.9089
16.4418 14.5847 0.3713 0.9158
16.1918 15.4401 0.3779 0.9144
16.2210 16.6238 0.3923 0.9113
16.1539 17.7944 0.4060 0.9083
16.3336 19.3491 0.4277 0.9037
16.3713 20.8749 0.4481 0.8993
16.2968 22.3964 0.4679 0.8951
8.4822 14.7811 0.2879 0.9341
7.1790 14.9024 0.2794 0.9360
6.4968 14.8301 0.2735 0.9373
5.8758 14.8454 0.2697 0.9381
4.6802 14.8749 0.2634 0.9395
2.9736 14.9170 0.2569 0.9410
36.8103 14.0821 -0.2219 0.8541
33.3769 14.1668 -0.2041 0.8650
30.7955 14.4012 -0.1914 0.8729
30.8657 17.2437 -0.1991 0.8681
21.9794 14.4480 -0.1481 0.9001
20.3983 14.4870 -0.1409 0.9048
18.9626 14.5225 -0.1345 0.9089
17.6498 14.5549 -0.1288 0.9126
16.4418 14.5847 -0.1237 0.9158
16.2210 16.6238 -0.1308 0.9113
16.2526 17.9031 -0.1361 0.9078
16.2869 19.2938 -0.1422 0.9039
16.3245 20.8153 -0.1489 0.8996
16.3658 22.4913 -0.1566 0.8947
15.1800 24.3749 -0.1617 0.8915
8.4822 14.7811 -0.0960 0.9341
7.7973 14.7980 -0.0942 0.9353
6.4968 14.8301 -0.0912 0.9373
5.2710 14.8603 -0.0888 0.9389
4.6802 14.8749 -0.0878 0.9395
4.0868 14.8355 -0.0866 0.9403
2.9736 14.9170 -0.0856 0.9410
35.0169 10.5767 -1.0300 0.8638
30.7955 14.4012 -0.9573 0.8728
25.0287 13.9827 -0.8072 0.8916
25.0267 15.1894 -0.8243 0.8895
20.3983 14.4870 -0.7045 0.9047
17.6498 14.5549 -0.6442 0.9125
16.4418 14.5847 -0.6189 0.9158
16.2526 17.9031 -0.6809 0.9078
16.3245 20.8153 -0.7449 0.8996
16.4118 24.3520 -0.8269 0.8891
7.1365 14.8143 -0.4630 0.9363
6.4968 14.8301 -0.4559 0.9373
5.8758 14.8454 -0.4496 0.9381
5.2710 14.8603 -0.4440 0.9389
4.6802 14.8749 -0.4391 0.9395
4.1016 14.8892 -0.4349 0.9401
2.9736 14.9170 -0.4283 0.9409
49.3066 -1.5229 -2.5017 0.8207
49.2883 2.0304 -2.5017 0.8207
49.0143 5.5731 -2.5017 0.8207
48.7818 7.3348 -2.5017 0.8207
47.7060 12.5536 -2.5017 0.8207
34.9081 10.5439 -1.8493 0.8641
33.3769 14.1668 -1.8389 0.8648
24.9680 12.7915 -1.4227 0.8937
20.3983 14.4870 -1.2688 0.9047
17.6498 14.5549 -1.1602 0.9124
16.2526 17.9031 -1.2263 0.9077
16.3245 20.8153 -1.3415 0.8995
16.3658 22.4913 -1.4106 0.8946
8.4822 14.7811 -0.8643 0.9340
7.1365 14.8143 -0.8339 0.9363
6.4968 14.8301 -0.8211 0.9372
5.2710 14.8603 -0.7996 0.9388
4.1016 14.8892 -0.7832 0.9400
2.9736 14.9170 -0.7714 0.9409
34.0435 -2.2809 -2.5017 0.8721
34.1194 0.1756 -2.5017 0.8721
34.0909 1.4043 -2.5017 0.8721
34.0182 2.6312 -2.5017 0.8721
33.5360 6.2851 -2.5017 0.8721
33.2879 7.4888 -2.5017 0.8721
31.2256 8.2168 -2.3675 0.8785
30.6727 9.2646 -2.3493 0.8794
29.4491 10.0659 -2.2819 0.8827
27.9193 11.8503 -2.2239 0.8855
20.3983 14.4870 -1.8345 0.9045
16.4418 14.5847 -1.6115 0.9156
16.2211 16.6238 -1.7030 0.9111
16.3658 22.4914 -2.0395 0.8944
16.4105 24.3501 -2.1530 0.8889
15.1766 24.3693 -2.1050 0.8912
8.4822 14.7811 -1.2496 0.9339
7.7973 14.7980 -1.2264 0.9351
6.4968 14.8301 -1.1871 0.9371
5.8758 14.8454 -1.1707 0.9380
5.2710 14.8603 -1.1561 0.9387
4.6802 14.8749 -1.1434 0.9394
2.9736 14.9170 -1.1153 0.9408
26.0001 -1.7420 -2.5017 0.9006
26.0460 -0.8045 -2.5017 0.9006
25.9808 2.0096 -2.5017 0.9006
25.8916 2.9440 -2.5017 0.9006
25.7688 3.8745 -2.5017 0.9006
25.4230 5.7195 -2.5017 0.9006
25.2005 6.6314 -2.5017 0.9006
22.8557 8.7436 -2.3493 0.9063
21.6999 10.1477 -2.2998 0.9082
19.8023 12.0186 -2.2239 0.9111
19.3566 12.7239 -2.2239 0.9111
15.2032 10.7974 -1.7902 0.9278
17.6498 14.5549 -2.1963 0.9122
16.4418 14.5846 -2.1100 0.9155
14.2948 18.2273 -2.2239 0.9111
12.9457 19.2090 -2.2239 0.9111
12.2455 19.6628 -2.2239 0.9111
8.4822 14.7811 -1.6361 0.9338
7.7973 14.7980 -1.6058 0.9350
7.1365 14.8143 -1.5787 0.9361
6.4968 14.8301 -1.5544 0.9370
5.8758 14.8454 -1.5328 0.9379
5.2710 14.8603 -1.5138 0.9386
3.5333 14.9032 -1.4704 0.9403
2.9736 14.9170 -1.4603 0.9407
21.0607 0.1084 -2.5017 0.9187
21.0431 0.8668 -2.5017 0.9187
20.9982 1.6242 -2.5017 0.9187
20.9261 2.3794 -2.5017 0.9187
20.8268 3.1315 -2.5017 0.9187
20.5473 4.6226 -2.5017 0.9187
20.3675 5.3596 -2.5017 0.9187
20.1613 6.0897 -2.5017 0.9187
19.6706 7.5252 -2.5017 0.9187
17.9158 8.3781 -2.3493 0.9234
15.6444 10.2837 -2.2239 0.9274
15.0546 10.6919 -2.1934 0.9283
14.8268 11.3551 -2.2184 0.9275
13.0749 13.3996 -2.2239 0.9274
12.5838 13.8618 -2.2239 0.9274
12.0764 14.3060 -2.2239 0.9274
11.5533 14.7316 -2.2239 0.9274
11.0153 15.1382 -2.2239 0.9274
8.4822 14.7811 -2.0243 0.9337
7.7973 14.7980 -1.9869 0.9348
7.1365 14.8143 -1.9533 0.9359
5.8758 14.8454 -1.8965 0.9377
4.6802 14.8749 -1.8523 0.9391
2.9736 14.9170 -1.8068 0.9406
17.6481 -0.5451 -2.5017 0.9312
17.6563 0.0909 -2.5017 0.9312
17.5435 1.9947 -2.5017 0.9312
17.3544 3.2524 -2.5017 0.9312
17.0752 4.4932 -2.5017 0.9312
16.9023 5.1053 -2.5017 0.9312
16.7075 5.7107 -2.5017 0.9312
16.4910 6.3087 -2.5017 0.9312
15.9941 7.4795 -2.5017 0.9312
15.7143 8.0507 -2.5017 0.9312
14.1746 8.6029 -2.3493 0.9352
10.9614 11.2336 -2.2239 0.9386
10.5497 11.6211 -2.2239 0.9386
7.8120 13.6132 -2.2239 0.9386
6.8118 14.1402 -2.2239 0.9386
6.2981 14.3763 -2.2239 0.9386
5.7762 14.5939 -2.2239 0.9386
4.6802 14.8749 -2.2095 0.9389
4.1016 14.8892 -2.1882 0.9395
2.9736 14.9170 -2.1552 0.9404
15.1789 -0.4688 -2.5017 0.9403
15.1859 0.0782 -2.5017 0.9403
15.1732 0.6250 -2.5017 0.9403
15.0888 1.7156 -2.5017 0.9403
14.9262 2.7974 -2.5017 0.9403
14.6861 3.8646 -2.5017 0.9403
14.5374 4.3910 -2.5017 0.9403
14.3698 4.9117 -2.5017 0.9403
13.7562 6.4330 -2.5017 0.9403
12.9821 7.8792 -2.5017 0.9403
12.4742 8.1998 -2.4592 0.9413
11.6270 8.2576 -2.3493 0.9438
11.0024 9.0731 -2.3493 0.9438
10.6685 9.4635 -2.3493 0.9438
8.3306 10.6223 -2.2239 0.9467
7.9426 10.9154 -2.2239 0.9467
7.1363 11.4589 -2.2239 0.9467
6.7189 11.7085 -2.2239 0.9467
6.2929 11.9428 -2.2239 0.9467
5.8587 12.1617 -2.2239 0.9467
4.5127 12.7227 -2.2239 0.9467
2.6391 13.2389 -2.2239 0.9467
13.3036 -0.4109 -2.5017 0.9473
13.3097 0.0685 -2.5017 0.9473
13.2247 1.5037 -2.5017 0.9473
12.5945 4.3049 -2.5017 0.9473
11.8458 6.0688 -2.5017 0.9473
11.6196 6.4915 -2.5017 0.9473
11.3782 6.9058 -2.5017 0.9473
11.1221 7.3111 -2.5017 0.9473
10.8516 7.7069 -2.5017 0.9473
10.5670 8.0927 -2.5017 0.9473
9.9513 8.2063 -2.4244 0.9489
9.3505 8.2943 -2.3493 0.9504
9.0457 8.6257 -2.3493 0.9504
8.7292 8.9459 -2.3493 0.9504
8.0625 9.5511 -2.3493 0.9504
7.7133 9.8352 -2.3493 0.9504
6.9440 10.3036 -2.3354 0.9507
5.1349 10.6592 -2.2239 0.9530
4.3543 11.0012 -2.2239 0.9530
3.5511 11.2861 -2.2239 0.9530
2.7294 11.5124 -2.2239 0.9530
2.3130 11.6033 -2.2239 0.9530
11.8351 0.0609 -2.5017 0.9528
11.8001 0.9127 -2.5017 0.9528
11.7595 1.3371 -2.5017 0.9528
11.3297 3.4221 -2.5017 0.9528
11.1992 3.8279 -2.5017 0.9528
10.5334 5.3964 -2.5017 0.9528
10.3322 5.7723 -2.5017 0.9528
9.3963 7.1961 -2.5017 0.9528
9.1310 7.5299 -2.5017 0.9528
8.8539 7.8538 -2.5017 0.9528
8.5653 8.1676 -2.5017 0.9528
7.4729 8.2318 -2.3501 0.9556
7.1693 8.4929 -2.3493 0.9556
6.2114 9.2166 -2.3493 0.9556
5.5319 9.6398 -2.3493 0.9556
5.1811 9.8328 -2.3493 0.9556
4.8236 10.0130 -2.3493 0.9556
4.4599 10.1802 -2.3493 0.9556
4.0901 10.3337 -2.3492 0.9556
3.2542 10.3426 -2.2919 0.9566
10.6445 0.0548 -2.5017 0.9572
10.6356 0.4381 -2.5017 0.9572
10.6130 0.8209 -2.5017 0.9572
10.5264 1.5827 -2.5017 0.9572
10.4625 1.9608 -2.5017 0.9572
10.2942 2.7089 -2.5017 0.9572
10.1900 3.0778 -2.5017 0.9572
10.0725 3.4429 -2.5017 0.9572
9.9420 3.8034 -2.5017 0.9572
9.7986 4.1590 -2.5017 0.9572
9.4738 4.8535 -2.5017 0.9572
9.2928 5.1916 -2.5017 0.9572
9.0998 5.5229 -2.5017 0.9572
8.8950 5.8471 -2.5017 0.9572
8.2124 6.7724 -2.5017 0.9572
7.4341 7.6186 -2.5017 0.9572
6.8663 8.1340 -2.5017 0.9572
6.4321 8.2016 -2.4496 0.9581
5.5866 8.2894 -2.3493 0.9598
5.2844 8.4853 -2.3493 0.9598
4.3383 9.0057 -2.3493 0.9598
4.0112 9.1561 -2.3493 0.9598
3.3417 9.4211 -2.3493 0.9598
3.0002 9.5354 -2.3493 0.9598
2.6548 9.6372 -2.3493 0.9598
9.6622 0.0497 -2.5017 0.9609
9.6541 0.3977 -2.5017 0.9609
9.6336 0.7451 -2.5017 0.9609
9.6005 1.0916 -2.5017 0.9609
9.5549 1.4367 -2.5017 0.9609
9.4267 2.1207 -2.5017 0.9609
9.2496 2.7938 -2.5017 0.9609
9.1429 3.1251 -2.5017 0.9609
9.0245 3.4524 -2.5017 0.9609
8.8943 3.7752 -2.5017 0.9609
8.7526 4.0930 -2.5017 0.9609
8.5995 4.4056 -2.5017 0.9609
8.4352 4.7125 -2.5017 0.9609
8.2600 5.0132 -2.5017 0.9609
8.0741 5.3075 -2.5017 0.9609
7.4545 6.1474 -2.5017 0.9609
6.7480 6.9155 -2.5017 0.9609
6.2327 7.3833 -2.5017 0.9609
5.9627 7.6030 -2.5017 0.9609
4.7067 8.2018 -2.4484 0.9617
4.3261 8.2103 -2.4028 0.9624
3.9595 8.2196 -2.3623 0.9630
3.0333 8.5517 -2.3493 0.9632
2.7233 8.6554 -2.3493 0.9632
8.8174 -0.5908 -2.5017 0.9639
8.8330 -0.2728 -2.5017 0.9639
8.8371 0.0455 -2.5017 0.9639
8.8109 0.6815 -2.5017 0.9639
8.7806 0.9984 -2.5017 0.9639
8.7389 1.3140 -2.5017 0.9639
8.6217 1.9396 -2.5017 0.9639
8.5463 2.2489 -2.5017 0.9639
8.4597 2.5552 -2.5017 0.9639
8.3622 2.8583 -2.5017 0.9639
8.0051 3.7435 -2.5017 0.9639
7.8651 4.0294 -2.5017 0.9639
7.7149 4.3100 -2.5017 0.9639
7.3846 4.8542 -2.5017 0.9639
7.2050 5.1170 -2.5017 0.9639
6.8179 5.6224 -2.5017 0.9639
6.1717 6.3250 -2.5017 0.9639
5.1996 7.1457 -2.5017 0.9639
4.9388 7.3283 -2.5017 0.9639
4.3985 7.6648 -2.5017 0.9639
4.1196 7.8182 -2.5017 0.9639
3.5461 8.0945 -2.5017 0.9639
2.9083 8.1992 -2.4628 0.9645
0.8744 4.3863 -1.2662 0.9816
8.1155 -0.5437 -2.5017 0.9665
8.1298 -0.2511 -2.5017 0.9665
8.1095 0.6272 -2.5017 0.9665
8.0816 0.9189 -2.5017 0.9665
7.9945 1.4983 -2.5017 0.9665
7.4872 3.1779 -2.5017 0.9665
7.3678 3.4455 -2.5017 0.9665
7.1007 3.9669 -2.5017 0.9665
6.9532 4.2201 -2.5017 0.9665
6.7967 4.4678 -2.5017 0.9665
6.6314 4.7097 -2.5017 0.9665
6.4575 4.9454 -2.5017 0.9665
6.2752 5.1748 -2.5017 0.9665
5.6804 5.8215 -2.5017 0.9665
5.2466 6.2153 -2.5017 0.9665
5.0194 6.4002 -2.5017 0.9665
4.0483 7.0546 -2.5017 0.9665
3.2638 7.4501 -2.5017 0.9665
7.5038 0.5804 -2.5017 0.9688
7.4780 0.8503 -2.5017 0.9688
7.3974 1.3864 -2.5017 0.9688
7.2784 1.9153 -2.5017 0.9688
7.2047 2.1762 -2.5017 0.9688
7.1217 2.4342 -2.5017 0.9688
7.0294 2.6891 -2.5017 0.9688
6.9279 2.9405 -2.5017 0.9688
6.8176 3.1882 -2.5017 0.9688
6.6983 3.4316 -2.5017 0.9688
6.5704 3.6707 -2.5017 0.9688
6.2891 4.1341 -2.5017 0.9688
5.2562 5.3867 -2.5017 0.9688
5.0588 5.5725 -2.5017 0.9688
4.8547 5.7511 -2.5017 0.9688
4.4282 6.0856 -2.5017 0.9688
3.9786 6.3886 -2.5017 0.9688
3.7460 6.5277 -2.5017 0.9688
3.5084 6.6584 -2.5017 0.9688
3.2664 6.7804 -2.5017 0.9688
1.7963 4.5386 -1.6225 0.9796
1.5518 4.3750 -1.5430 0.9806
1.3620 4.3289 -1.5085 0.9811
1.1847 4.3005 -1.4828 0.9814
1.0148 4.2802 -1.4622 0.9816
6.9899 0.2879 -2.5017 0.9707
6.9510 0.7904 -2.5017 0.9707
6.9180 1.0402 -2.5017 0.9707
6.8761 1.2887 -2.5017 0.9707
6.8252 1.5355 -2.5017 0.9707
6.7655 1.7803 -2.5017 0.9707
6.6970 2.0228 -2.5017 0.9707
6.4397 2.7333 -2.5017 0.9707
6.3371 2.9635 -2.5017 0.9707
6.1073 3.4120 -2.5017 0.9707
5.9805 3.6297 -2.5017 0.9707
5.8459 3.8427 -2.5017 0.9707
5.7037 4.0508 -2.5017 0.9707
5.3973 4.4509 -2.5017 0.9707
5.0629 4.8278 -2.5017 0.9707
4.8858 5.0070 -2.5017 0.9707
4.7022 5.1798 -2.5017 0.9707
4.5126 5.3458 -2.5017 0.9707
4.3172 5.5048 -2.5017 0.9707
3.9097 5.8013 -2.5017 0.9707
3.6982 5.9383 -2.5017 0.9707
3.2612 6.1892 -2.5017 0.9707
1.7269 4.3631 -1.6781 0.9803
1.3424 4.2665 -1.5995 0.9812
6.5251 -0.2015 -2.5017 0.9724
6.5088 0.5034 -2.5017 0.9724
6.4865 0.7375 -2.5017 0.9724
6.4557 0.9707 -2.5017 0.9724
6.4165 1.2025 -2.5017 0.9724
6.3133 1.6613 -2.5017 0.9724
6.2494 1.8876 -2.5017 0.9724
6.1774 2.1115 -2.5017 0.9724
5.9136 2.7654 -2.5017 0.9724
5.8102 2.9766 -2.5017 0.9724
5.6992 3.1839 -2.5017 0.9724
5.4552 3.5859 -2.5017 0.9724
4.8837 4.3321 -2.5017 0.9724
4.0287 5.1369 -2.5017 0.9724
3.8410 5.2787 -2.5017 0.9724
3.6484 5.4136 -2.5017 0.9724
3.2493 5.6622 -2.5017 0.9724
2.6196 5.9796 -2.5017 0.9724
1.7026 4.3018 -1.7730 0.9804
1.3342 4.2404 -1.7035 0.9811
0.8480 4.2540 -1.6623 0.9816
6.0989 -0.4086 -2.5017 0.9739
6.1075 0.2516 -2.5017 0.9739
6.0735 0.6906 -2.5017 0.9739
6.0447 0.9089 -2.5017 0.9739
5.9636 1.3416 -2.5017 0.9739
5.8515 1.7674 -2.5017 0.9739
5.3363 2.9812 -2.5017 0.9739
5.2255 3.1715 -2.5017 0.9739
4.9837 3.5394 -2.5017 0.9739
4.8529 3.7166 -2.5017 0.9739
4.7160 3.8890 -2.5017 0.9739
4.5728 4.0563 -2.5017 0.9739
4.4238 4.2184 -2.5017 0.9739
4.1086 4.5258 -2.5017 0.9739
3.7722 4.8099 -2.5017 0.9739
3.5965 4.9426 -2.5017 0.9739
3.4162 5.0689 -2.5017 0.9739
3.0424 5.3017 -2.5017 0.9739
2.4528 5.5989 -2.5017 0.9739
1.5022 4.2352 -1.8392 0.9808
1.3289 4.2237 -1.8122 0.9810
1.1658 4.2318 -1.7965 0.9812
5.7275 -0.3837 -2.5017 0.9753
5.7376 -0.1772 -2.5017 0.9753
5.7233 0.4427 -2.5017 0.9753
5.6421 1.0574 -2.5017 0.9753
5.6004 1.2599 -2.5017 0.9753
5.4952 1.6598 -2.5017 0.9753
5.4318 1.8566 -2.5017 0.9753
5.3614 2.0511 -2.5017 0.9753
5.2841 2.2428 -2.5017 0.9753
5.0113 2.7997 -2.5017 0.9753
4.9073 2.9783 -2.5017 0.9753
4.7968 3.1531 -2.5017 0.9753
4.4288 3.6521 -2.5017 0.9753
4.2943 3.8093 -2.5017 0.9753
4.1544 3.9615 -2.5017 0.9753
3.0346 4.8727 -2.5017 0.9753
2.8571 4.9788 -2.5017 0.9753
1.6750 4.2321 -1.9836 0.9803
1.4799 4.1722 -1.9293 0.9809
1.3126 4.1718 -1.9060 0.9811
0.8453 4.2404 -1.8844 0.9813
5.4046 0.0278 -2.5017 0.9765
5.3701 0.6106 -2.5017 0.9765
5.3122 0.9956 -2.5017 0.9765
5.2268 1.3754 -2.5017 0.9765
5.1142 1.7480 -2.5017 0.9765
5.0479 1.9311 -2.5017 0.9765
4.8958 2.2895 -2.5017 0.9765
4.7183 2.6360 -2.5017 0.9765
4.6203 2.8042 -2.5017 0.9765
4.5163 2.9688 -2.5017 0.9765
4.4064 3.1295 -2.5017 0.9765
4.2909 3.2862 -2.5017 0.9765
3.9114 3.7298 -2.5017 0.9765
3.7745 3.8683 -2.5017 0.9765
3.6328 4.0017 -2.5017 0.9765
3.1800 4.3702 -2.5017 0.9765
2.8571 4.5877 -2.5017 0.9765
2.5195 4.7815 -2.5017 0.9765
2.3456 4.8692 -2.5017 0.9765
1.3135 4.1747 -2.0258 0.9809
1.1492 4.1717 -2.0030 0.9811
1.0040 4.2347 -2.0145 0.9810
0.8457 4.2422 -2.0023 0.9811
5.0887 -0.3409 -2.5017 0.9775
5.0977 -0.1574 -2.5017 0.9775
5.0958 0.2099 -2.5017 0.9775
5.0850 0.3933 -2.5017 0.9775
5.0129 0.9395 -2.5017 0.9775
4.9323 1.2979 -2.5017 0.9775
4.8823 1.4747 -2.5017 0.9775
4.8260 1.6496 -2.5017 0.9775
4.6948 1.9927 -2.5017 0.9775
4.5392 2.3255 -2.5017 0.9775
4.4524 2.4874 -2.5017 0.9775
4.3600 2.6462 -2.5017 0.9775
4.2618 2.8015 -2.5017 0.9775
4.1582 2.9532 -2.5017 0.9775
4.0491 3.1010 -2.5017 0.9775
3.9348 3.2448 -2.5017 0.9775
3.8154 3.3844 -2.5017 0.9775
3.6910 3.5196 -2.5017 0.9775
3.5619 3.6503 -2.5017 0.9775
3.1474 4.0132 -2.5017 0.9775
2.8503 4.2293 -2.5017 0.9775
2.0466 4.6715 -2.5017 0.9775
1.6513 4.1721 -2.2010 0.9802
1.4812 4.1760 -2.1735 0.9805
1.3142 4.1769 -2.1479 0.9807
1.1496 4.1731 -2.1232 0.9809
0.8459 4.2436 -2.1225 0.9809
4.8116 -0.3224 -2.5017 0.9785
4.8200 -0.1489 -2.5017 0.9785
4.8223 0.0248 -2.5017 0.9785
4.8183 0.1985 -2.5017 0.9785
4.7398 0.8883 -2.5017 0.9785
4.7048 1.0584 -2.5017 0.9785
4.6636 1.2272 -2.5017 0.9785
4.6164 1.3944 -2.5017 0.9785
4.3683 2.0428 -2.5017 0.9785
4.2919 2.1988 -2.5017 0.9785
4.1225 2.5020 -2.5017 0.9785
4.0297 2.6489 -2.5017 0.9785
3.7205 3.0681 -2.5017 0.9785
3.4900 3.3279 -2.5017 0.9785
3.3679 3.4515 -2.5017 0.9785
3.2414 3.5705 -2.5017 0.9785
2.9759 3.7946 -2.5017 0.9785
2.6951 3.9990 -2.5017 0.9785
2.5493 4.0935 -2.5017 0.9785
2.4002 4.1826 -2.5017 0.9785
2.2480 4.2663 -2.5017 0.9785
1.3139 4.1759 -2.2711 0.9805
4.5655 -0.1410 -2.5017 0.9794
4.5638 0.1880 -2.5017 0.9794
4.5385 0.5160 -2.5017 0.9794
4.3726 1.3207 -2.5017 0.9794
4.3222 1.4774 -2.5017 0.9794
4.2662 1.6321 -2.5017 0.9794
4.1376 1.9349 -2.5017 0.9794
3.9876 2.2277 -2.5017 0.9794
3.7241 2.6448 -2.5017 0.9794
3.5240 2.9061 -2.5017 0.9794
3.4171 3.0311 -2.5017 0.9794
3.3057 3.1522 -2.5017 0.9794
2.9464 3.4904 -2.5017 0.9794
2.2735 3.9617 -2.5017 0.9794
1.9824 4.1151 -2.5017 0.9794
1.4800 4.1725 -2.4248 0.9800
1.3131 4.1733 -2.3962 0.9802
0.8930 4.4796 -2.5018 0.9794
4.3234 -0.2897 -2.5017 0.9802
4.3202 0.3342 -2.5017 0.9802
4.2850 0.6443 -2.5017 0.9802
4.2275 0.9511 -2.5017 0.9802
4.1481 1.2529 -2.5017 0.9802
4.1003 1.4015 -2.5017 0.9802
4.0471 1.5483 -2.5017 0.9802
3.9887 1.6930 -2.5017 0.9802
3.9252 1.8356 -2.5017 0.9802
3.6209 2.3802 -2.5017 0.9802
3.5329 2.5090 -2.5017 0.9802
3.4402 2.6346 -2.5017 0.9802
3.2416 2.8754 -2.5017 0.9802
2.9125 3.2083 -2.5017 0.9802
2.7951 3.3111 -2.5017 0.9802
2.5495 3.5037 -2.5017 0.9802
2.4217 3.5933 -2.5017 0.9802
2.2907 3.6782 -2.5017 0.9802
2.0200 3.8335 -2.5017 0.9802
1.7388 3.9690 -2.5017 0.9802
1.5947 4.0291 -2.5017 0.9802
1.1508 4.1776 -2.5018 0.9802
