ply
format ascii 1.0
element vertex 520
property float32 x
property float32 y
property float32 z
property float32 I
end_header
-24.4221 9.9337 4.6489 0.8984
-27.3231 9.9933 5.1299 0.8885
-44.4896 -8.3049 7.9802 0.8321
-28.1441 -15.5825 5.6724 0.8775
-30.7361 10.0138 4.9522 0.8774
-34.9424 10.0205 5.5687 0.8632
-27.3264 9.9946 3.7890 0.8893
-30.7335 10.0130 4.2092 0.8778
-28.1706 -15.5972 4.1931 0.8782
-21.8664 -15.3706 3.4806 0.8978
-34.9328 10.0178 3.9023 0.8640
-40.2672 10.0078 4.4555 0.8463
-47.4806 10.0169 5.2108 0.8227
-28.1682 -15.5958 3.4574 0.8785
-27.3296 9.9958 2.4634 0.8897
-34.9280 10.0164 3.0759 0.8643
-47.4842 10.0177 4.1081 0.8230
-28.1657 -15.5945 2.7254 0.8788
-27.3313 9.9964 1.8046 0.8899
-30.7258 10.0105 2.0039 0.8785
-34.9233 10.0150 2.2529 0.8645
-47.4876 10.0184 3.0095 0.8232
-28.1633 -15.5931 1.9962 0.8790
-24.4221 9.9337 1.0396 0.8998
-34.9186 10.0137 1.4324 0.8647
-47.4912 10.0192 1.9138 0.8234
-24.4221 9.9337 0.4454 0.8999
-27.3345 9.9975 0.4916 0.8901
-30.7207 10.0088 0.5458 0.8787
-40.2857 10.0124 0.7012 0.8470
-28.1584 -15.5904 0.5437 0.8792
-24.4221 9.9337 -0.1484 0.8999
-27.3361 9.9981 -0.1639 0.8901
-30.7181 10.0080 -0.1819 0.8788
-34.9091 10.0110 -0.2045 0.8648
-28.1560 -15.5891 -0.1812 0.8792
-24.4221 9.9337 -0.7424 0.8999
-27.3377 9.9987 -0.8196 0.8900
-30.7156 10.0072 -0.9096 0.8787
-34.9044 10.0096 -1.0224 0.8648
-40.2949 10.0147 -1.1691 0.8469
-47.4858 10.0180 -1.3665 0.8235
-28.1536 -15.5878 -0.9061 0.8792
-24.4221 9.9337 -1.3371 0.8998
-27.3394 9.9993 -1.4763 0.8899
-34.8996 10.0083 -1.8412 0.8647
-45.3274 9.5627 -2.3493 0.8307
-49.3087 1.4563 -2.5017 0.8207
-49.3293 -0.3035 -2.5017 0.8207
-49.2871 -2.0630 -2.5017 0.8207
-49.1821 -3.8198 -2.5017 0.8207
-49.0146 -5.5717 -2.5017 0.8207
-48.7846 -7.3166 -2.5017 0.8207
-48.1388 -10.7762 -2.5017 0.8207
-47.2480 -14.1809 -2.5017 0.8207
-43.3074 -16.4466 -2.3493 0.8307
-42.8550 -18.0491 -2.3583 0.8301
-42.5866 -19.7530 -2.3808 0.8286
-42.2517 -21.4612 -2.4033 0.8271
-28.1512 -15.5864 -1.6319 0.8791
-40.8347 -26.5796 -2.4710 0.8227
-30.7801 -38.6385 -2.5053 0.8205
-28.8868 -39.0423 -2.4630 0.8232
-27.0877 -39.4823 -2.4283 0.8255
-32.9692 8.1940 -2.4909 0.8726
-33.3851 7.0432 -2.5017 0.8721
-33.6151 5.8479 -2.5017 0.8721
-33.8023 4.6450 -2.5017 0.8721
-33.9465 3.4363 -2.5017 0.8721
-34.1051 1.0073 -2.5017 0.8721
-33.7425 -5.0606 -2.5017 0.8721
-33.5406 -6.2610 -2.5017 0.8721
-33.2959 -7.4535 -2.5017 0.8721
-32.3091 -10.9679 -2.5017 0.8721
-31.4449 -13.2435 -2.5017 0.8721
-30.9524 -14.3567 -2.5017 0.8721
-29.9240 -15.1995 -2.4609 0.8741
-28.0074 -15.5068 -2.3473 0.8795
-27.4602 -16.5103 -2.3493 0.8794
-26.8713 -17.4907 -2.3509 0.8793
-26.3860 -18.5476 -2.3648 0.8787
-25.2855 -20.6173 -2.3922 0.8773
-22.5835 -22.8419 -2.3552 0.8791
-21.7799 -23.6607 -2.3580 0.8790
-20.9374 -24.4404 -2.3597 0.8789
-18.3389 -26.7303 -2.3768 0.8781
-18.2867 -28.8056 -2.5017 0.8721
-22.9822 8.4057 -2.3493 0.9063
-25.0488 7.1833 -2.5017 0.9006
-25.2891 6.2852 -2.5017 0.9006
-26.0471 0.7693 -2.5017 0.9006
-26.0580 -0.1603 -2.5017 0.9006
-25.7703 -3.8650 -2.5017 0.9006
-24.3610 -9.2514 -2.5017 0.9006
-24.0155 -10.1145 -2.5017 0.9006
-23.2332 -11.8010 -2.5017 0.9006
-22.3327 -13.4275 -2.5017 0.9006
-21.8395 -14.2155 -2.5017 0.9006
-19.9824 -16.2933 -2.4753 0.9016
-19.3371 -16.9507 -2.4687 0.9018
-17.6484 -19.1724 -2.5017 0.9006
-16.9532 -19.7897 -2.5017 0.9006
-16.2366 -20.3819 -2.5017 0.9006
-13.9662 -21.9998 -2.5017 0.9006
-19.7854 7.2365 -2.5025 0.9186
-20.2500 5.8071 -2.5024 0.9186
-20.4438 5.0810 -2.5023 0.9186
-20.6115 4.3483 -2.5023 0.9186
-20.7530 3.6103 -2.5022 0.9186
-20.8681 2.8676 -2.5021 0.9187
-21.0183 1.3724 -2.5020 0.9187
-21.0533 0.6218 -2.5019 0.9187
-20.9977 -1.6308 -2.5017 0.9187
-20.8280 -3.1237 -2.5017 0.9187
-20.5523 -4.6008 -2.5017 0.9187
-20.3751 -5.3310 -2.5017 0.9187
-20.1720 -6.0544 -2.5017 0.9187
-19.6890 -7.4772 -2.5017 0.9187
-19.1058 -8.8619 -2.5017 0.9187
-18.7775 -9.5378 -2.5017 0.9187
-18.4253 -10.2015 -2.5017 0.9187
-17.6511 -11.4892 -2.5017 0.9187
-16.7871 -12.7185 -2.5017 0.9187
-15.8375 -13.8830 -2.5017 0.9187
-14.8075 -14.9768 -2.5017 0.9187
-14.2638 -15.4955 -2.5017 0.9187
-13.7019 -15.9944 -2.5017 0.9187
-12.5267 -16.9306 -2.5017 0.9187
-11.9153 -17.3667 -2.5017 0.9187
-11.2877 -17.7807 -2.5017 0.9187
-16.3596 6.6543 -2.5024 0.9311
-16.5863 6.0664 -2.5024 0.9311
-16.7918 5.4708 -2.5023 0.9311
-17.1384 4.2595 -2.5022 0.9311
-17.4942 2.4040 -2.5020 0.9311
-17.5685 1.7784 -2.5020 0.9311
-17.6204 1.1506 -2.5019 0.9311
-17.6498 0.5213 -2.5019 0.9311
-17.6413 -0.7384 -2.5018 0.9312
-17.6035 -1.3672 -2.5017 0.9312
-17.5436 -1.9943 -2.5017 0.9312
-17.3567 -3.2400 -2.5017 0.9312
-17.2301 -3.8571 -2.5017 0.9312
-16.7195 -5.6757 -2.5017 0.9312
-16.5064 -6.2685 -2.5017 0.9312
-16.2723 -6.8533 -2.5017 0.9312
-15.7422 -7.9961 -2.5017 0.9312
-15.4470 -8.5525 -2.5017 0.9312
-14.7979 -9.6321 -2.5017 0.9312
-14.4449 -10.1538 -2.5017 0.9312
-14.0735 -10.6626 -2.5017 0.9312
-12.4138 -12.5559 -2.5017 0.9312
-11.9581 -12.9907 -2.5017 0.9312
-11.4871 -13.4090 -2.5017 0.9312
-10.5018 -14.1939 -2.5017 0.9312
-9.9888 -14.5595 -2.5017 0.9312
-9.4631 -14.9065 -2.5017 0.9312
-14.0700 5.7230 -2.5023 0.9403
-14.4417 4.7051 -2.5022 0.9403
-14.6001 4.1869 -2.5022 0.9403
-14.7399 3.6634 -2.5021 0.9403
-14.8610 3.1352 -2.5021 0.9403
-14.9631 2.6031 -2.5020 0.9403
-15.1100 1.5295 -2.5019 0.9403
-15.1547 0.9896 -2.5019 0.9403
-15.1862 -0.0934 -2.5018 0.9403
-15.1405 -1.1759 -2.5017 0.9403
-15.0889 -1.7152 -2.5017 0.9403
-14.9282 -2.7867 -2.5017 0.9403
-14.8193 -3.3174 -2.5017 0.9403
-14.3801 -4.8816 -2.5017 0.9403
-13.9955 -5.8944 -2.5017 0.9403
-13.5396 -6.8773 -2.5017 0.9403
-13.2857 -7.3559 -2.5017 0.9403
-13.0148 -7.8251 -2.5017 0.9403
-12.7274 -8.2844 -2.5017 0.9403
-12.1044 -9.1707 -2.5017 0.9403
-11.4197 -10.0104 -2.5017 0.9403
-9.8798 -11.5329 -2.5017 0.9403
-12.5022 4.5727 -2.5022 0.9473
-12.6572 4.1237 -2.5021 0.9473
-12.7960 3.6696 -2.5021 0.9473
-13.1142 2.2814 -2.5020 0.9473
-13.2431 1.3406 -2.5019 0.9473
-13.3098 -0.0819 -2.5018 0.9473
-13.2983 -0.5566 -2.5017 0.9473
-13.2248 -1.5033 -2.5017 0.9473
-13.1627 -1.9741 -2.5017 0.9473
-13.0839 -2.4424 -2.5017 0.9473
-12.7481 -3.8262 -2.5017 0.9473
-12.4429 -4.7254 -2.5017 0.9473
-12.2664 -5.1662 -2.5017 0.9473
-11.8669 -6.0276 -2.5017 0.9473
-11.6443 -6.4471 -2.5017 0.9473
-11.1550 -7.2609 -2.5017 0.9473
-10.8889 -7.6542 -2.5017 0.9473
-10.6090 -8.0377 -2.5017 0.9473
-10.3155 -8.4110 -2.5017 0.9473
-10.0089 -8.7736 -2.5017 0.9473
-9.3579 -9.4649 -2.5017 0.9473
-8.2931 -10.4105 -2.5017 0.9473
-7.9165 -10.6997 -2.5017 0.9473
-7.1335 -11.2369 -2.5017 0.9473
-10.9648 4.4600 -2.5021 0.9528
-11.4871 2.8549 -2.5020 0.9528
-11.8106 0.7712 -2.5018 0.9528
-11.8249 -0.4950 -2.5017 0.9528
-11.7998 -0.9164 -2.5017 0.9528
-11.7596 -1.3368 -2.5017 0.9528
-11.7044 -1.7554 -2.5017 0.9528
-11.6344 -2.1718 -2.5017 0.9528
-11.5495 -2.5854 -2.5017 0.9528
-11.3357 -3.4023 -2.5017 0.9528
-11.2072 -3.8045 -2.5017 0.9528
-11.0643 -4.2018 -2.5017 0.9528
-10.9074 -4.5938 -2.5017 0.9528
-10.1431 -6.0985 -2.5017 0.9528
-9.9191 -6.4564 -2.5017 0.9528
-9.1726 -7.4792 -2.5017 0.9528
-8.0156 -8.7078 -2.5017 0.9528
-7.6999 -8.9882 -2.5017 0.9528
-7.0394 -9.5142 -2.5017 0.9528
-6.6956 -9.7593 -2.5017 0.9528
-6.3432 -9.9919 -2.5017 0.9528
-9.9983 3.6568 -2.5021 0.9572
-10.2333 2.9346 -2.5020 0.9572
-10.3313 2.5677 -2.5020 0.9572
-10.4162 2.1975 -2.5019 0.9572
-10.5461 1.4492 -2.5019 0.9572
-10.6223 0.6936 -2.5018 0.9572
-10.6445 -0.0655 -2.5017 0.9572
-10.6127 -0.8242 -2.5017 0.9572
-10.5766 -1.2023 -2.5017 0.9572
-10.5269 -1.5788 -2.5017 0.9572
-10.3876 -2.3253 -2.5017 0.9572
-10.2980 -2.6944 -2.5017 0.9572
-10.1954 -3.0600 -2.5017 0.9572
-10.0797 -3.4217 -2.5017 0.9572
-9.6565 -4.4790 -2.5017 0.9572
-9.4906 -4.8206 -2.5017 0.9572
-8.9212 -5.8069 -2.5017 0.9572
-8.7084 -6.1215 -2.5017 0.9572
-8.0046 -7.0168 -2.5017 0.9572
-7.2092 -7.8318 -2.5017 0.9572
-5.7051 -8.9867 -2.5017 0.9572
-8.9513 3.6410 -2.5020 0.9609
-9.0754 3.3193 -2.5020 0.9609
-9.1879 2.9934 -2.5020 0.9609
-9.2888 2.6638 -2.5020 0.9609
-9.5728 1.3155 -2.5019 0.9609
-9.6135 0.9732 -2.5018 0.9609
-9.6539 -0.4041 -2.5017 0.9609
-9.6005 -1.0913 -2.5017 0.9609
-9.4289 -2.1107 -2.5017 0.9609
-9.2545 -2.7776 -2.5017 0.9609
-9.0329 -3.4304 -2.5017 0.9609
-7.7015 -5.8350 -2.5017 0.9609
-5.7470 -7.7674 -2.5017 0.9609
-5.4662 -7.9675 -2.5017 0.9609
-8.6473 1.8243 -2.5019 0.9639
-8.7068 1.5147 -2.5019 0.9639
-8.7552 1.2031 -2.5018 0.9639
-8.7924 0.8900 -2.5018 0.9639
-8.8333 0.2609 -2.5018 0.9639
-8.8370 -0.0544 -2.5017 0.9639
-8.8106 -0.6843 -2.5017 0.9639
-8.7806 -0.9981 -2.5017 0.9639
-8.6871 -1.6216 -2.5017 0.9639
-8.5494 -2.2369 -2.5017 0.9639
-8.4642 -2.5404 -2.5017 0.9639
-8.1443 -3.4301 -2.5017 0.9639
-7.7313 -4.2806 -2.5017 0.9639
-7.4064 -4.8209 -2.5017 0.9639
-7.2297 -5.0820 -2.5017 0.9639
-7.0439 -5.3367 -2.5017 0.9639
-6.8490 -5.5846 -2.5017 0.9639
-6.2132 -6.2843 -2.5017 0.9639
-4.9994 -7.2871 -2.5017 0.9639
-7.6394 2.7941 -2.5020 0.9665
-7.7342 2.5198 -2.5019 0.9665
-7.9589 1.6791 -2.5019 0.9665
-8.0582 1.1073 -2.5018 0.9665
-8.0925 0.8192 -2.5018 0.9665
-8.1301 0.2401 -2.5017 0.9665
-8.1092 -0.6298 -2.5017 0.9665
-8.0816 -0.9187 -2.5017 0.9665
-8.0437 -1.2064 -2.5017 0.9665
-7.9955 -1.4925 -2.5017 0.9665
-7.9372 -1.7768 -2.5017 0.9665
-7.6038 -2.8876 -2.5017 0.9665
-7.4960 -3.1571 -2.5017 0.9665
-7.3786 -3.4224 -2.5017 0.9665
-7.1158 -3.9398 -2.5017 0.9665
-6.9707 -4.1911 -2.5017 0.9665
-6.8168 -4.4371 -2.5017 0.9665
-6.6542 -4.6775 -2.5017 0.9665
-6.3038 -5.1400 -2.5017 0.9665
-6.1164 -5.3616 -2.5017 0.9665
-5.5086 -5.9843 -2.5017 0.9665
-4.8378 -6.5386 -2.5017 0.9665
-4.3593 -6.8668 -2.5017 0.9665
-7.2350 2.0748 -2.5019 0.9688
-7.4880 0.7580 -2.5018 0.9688
-7.5229 0.2222 -2.5017 0.9688
-7.5196 -0.3147 -2.5017 0.9688
-7.5036 -0.5828 -2.5017 0.9688
-7.4780 -0.8501 -2.5017 0.9688
-7.4429 -1.1163 -2.5017 0.9688
-7.3984 -1.3811 -2.5017 0.9688
-7.2811 -1.9050 -2.5017 0.9688
-7.1267 -2.4193 -2.5017 0.9688
-7.0359 -2.6720 -2.5017 0.9688
-6.8275 -3.1668 -2.5017 0.9688
-6.4501 -3.8781 -2.5017 0.9688
-6.3077 -4.1057 -2.5017 0.9688
-6.1572 -4.3281 -2.5017 0.9688
-5.9989 -4.5450 -2.5017 0.9688
-5.6596 -4.9611 -2.5017 0.9688
-5.2915 -5.3520 -2.5017 0.9688
-6.4807 2.6360 -2.5019 0.9707
-6.5705 2.4032 -2.5019 0.9707
-6.8453 1.4442 -2.5018 0.9707
-6.9308 0.9524 -2.5018 0.9707
-6.9603 0.7046 -2.5018 0.9707
-6.9809 0.4558 -2.5017 0.9707
-6.9956 -0.0430 -2.5017 0.9707
-6.9897 -0.2926 -2.5017 0.9707
-6.9748 -0.5417 -2.5017 0.9707
-6.8770 -1.2837 -2.5017 0.9707
-6.7005 -2.0111 -2.5017 0.9707
-6.6245 -2.2488 -2.5017 0.9707
-6.3463 -2.9436 -2.5017 0.9707
-6.2373 -3.1682 -2.5017 0.9707
-6.1203 -3.3886 -2.5017 0.9707
-5.9955 -3.6048 -2.5017 0.9707
-5.8631 -3.8164 -2.5017 0.9707
-5.4219 -4.4209 -2.5017 0.9707
-4.9186 -4.9748 -2.5017 0.9707
-4.5513 -5.3129 -2.5017 0.9707
-3.9577 -5.7687 -2.5017 0.9707
-6.0476 2.4599 -2.5019 0.9724
-6.1314 2.2426 -2.5019 0.9724
-6.3358 1.5746 -2.5018 0.9724
-6.3878 1.3476 -2.5018 0.9724
-6.4676 0.8888 -2.5018 0.9724
-6.4951 0.6575 -2.5018 0.9724
-6.5144 0.4254 -2.5017 0.9724
-6.5254 0.1927 -2.5017 0.9724
-6.5086 -0.5055 -2.5017 0.9724
-6.4560 -0.9683 -2.5017 0.9724
-6.2527 -1.8767 -2.5017 0.9724
-6.1818 -2.0985 -2.5017 0.9724
-6.0164 -2.5339 -2.5017 0.9724
-5.0595 -4.1254 -2.5017 0.9724
-4.9091 -4.3033 -2.5017 0.9724
-4.4213 -4.8031 -2.5017 0.9724
-4.2472 -4.9578 -2.5017 0.9724
-3.8829 -5.2480 -2.5017 0.9724
-3.6932 -5.3831 -2.5017 0.9724
-5.6625 2.3032 -2.5019 0.9739
-5.7410 2.0998 -2.5019 0.9739
-5.8122 1.8936 -2.5019 0.9739
-5.8760 1.6851 -2.5018 0.9739
-5.9323 1.4744 -2.5018 0.9739
-5.9811 1.2618 -2.5018 0.9739
-6.0558 0.8322 -2.5018 0.9739
-6.0815 0.6156 -2.5018 0.9739
-6.0996 0.3983 -2.5017 0.9739
-6.1125 -0.0376 -2.5017 0.9739
-6.1073 -0.2556 -2.5017 0.9739
-6.0943 -0.4733 -2.5017 0.9739
-6.0735 -0.6904 -2.5017 0.9739
-6.0088 -1.1217 -2.5017 0.9739
-5.9136 -1.5472 -2.5017 0.9739
-5.8546 -1.7572 -2.5017 0.9739
-5.7882 -1.9649 -2.5017 0.9739
-5.3477 -2.9608 -2.5017 0.9739
-5.2386 -3.1497 -2.5017 0.9739
-5.1230 -3.3346 -2.5017 0.9739
-5.0008 -3.5152 -2.5017 0.9739
-4.5966 -4.0293 -2.5017 0.9739
-4.2976 -4.3468 -2.5017 0.9739
-3.9768 -4.6421 -2.5017 0.9739
-3.8086 -4.7810 -2.5017 0.9739
-3.4581 -5.0404 -2.5017 0.9739
-5.3913 1.9719 -2.5019 0.9753
-5.4582 1.7783 -2.5018 0.9753
-5.5710 1.3846 -2.5018 0.9753
-5.7112 0.5781 -2.5017 0.9753
-5.7282 0.3740 -2.5017 0.9753
-5.7402 -0.0353 -2.5017 0.9753
-5.7353 -0.2401 -2.5017 0.9753
-5.7231 -0.4445 -2.5017 0.9753
-5.7036 -0.6484 -2.5017 0.9753
-5.6769 -0.8514 -2.5017 0.9753
-5.6429 -1.0534 -2.5017 0.9753
-5.3664 -2.0380 -2.5017 0.9753
-5.2903 -2.2281 -2.5017 0.9753
-5.2075 -2.4154 -2.5017 0.9753
-5.1180 -2.5996 -2.5017 0.9753
-4.9196 -2.9579 -2.5017 0.9753
-4.8110 -3.1315 -2.5017 0.9753
-4.5755 -3.4665 -2.5017 0.9753
-4.4489 -3.6275 -2.5017 0.9753
-4.3167 -3.7839 -2.5017 0.9753
-4.1789 -3.9355 -2.5017 0.9753
-4.0359 -4.0821 -2.5017 0.9753
-3.8877 -4.2234 -2.5017 0.9753
-3.0766 -4.8463 -2.5017 0.9753
-5.2452 1.3036 -2.5018 0.9765
-5.3772 0.5443 -2.5017 0.9765
-5.3932 0.3522 -2.5017 0.9765
-5.4046 -0.0333 -2.5017 0.9765
-5.3999 -0.2260 -2.5017 0.9765
-5.3701 -0.6104 -2.5017 0.9765
-5.3449 -0.8016 -2.5017 0.9765
-5.1178 -1.7373 -2.5017 0.9765
-5.0526 -1.9188 -2.5017 0.9765
-4.9809 -2.0978 -2.5017 0.9765
-4.9029 -2.2742 -2.5017 0.9765
-4.8187 -2.4476 -2.5017 0.9765
-4.7283 -2.6179 -2.5017 0.9765
-4.6319 -2.7849 -2.5017 0.9765
-4.5296 -2.9484 -2.5017 0.9765
-4.3079 -3.2638 -2.5017 0.9765
-4.1887 -3.4154 -2.5017 0.9765
-4.0642 -3.5627 -2.5017 0.9765
-3.7999 -3.8434 -2.5017 0.9765
-3.6604 -3.9765 -2.5017 0.9765
-3.5162 -4.1045 -2.5017 0.9765
-3.3675 -4.2273 -2.5017 0.9765
-3.0576 -4.4567 -2.5017 0.9765
-4.8494 1.5800 -2.5018 0.9775
-4.9904 1.0528 -2.5018 0.9775
-5.0247 0.8741 -2.5018 0.9775
-5.0527 0.6943 -2.5017 0.9775
-5.0742 0.5137 -2.5017 0.9775
-5.0893 0.3323 -2.5017 0.9775
-5.1001 -0.0314 -2.5017 0.9775
-5.0848 -0.3949 -2.5017 0.9775
-5.0437 -0.7564 -2.5017 0.9775
-4.9770 -1.1141 -2.5017 0.9775
-4.9341 -1.2910 -2.5017 0.9775
-4.8849 -1.4661 -2.5017 0.9775
-4.8295 -1.6395 -2.5017 0.9775
-4.7003 -1.9796 -2.5017 0.9775
-4.6267 -2.1460 -2.5017 0.9775
-4.4619 -2.4704 -2.5017 0.9775
-4.3709 -2.6280 -2.5017 0.9775
-4.2744 -2.7823 -2.5017 0.9775
-4.0652 -3.0799 -2.5017 0.9775
-3.8353 -3.3619 -2.5017 0.9775
-3.7129 -3.4966 -2.5017 0.9775
-3.5858 -3.6268 -2.5017 0.9775
-3.4541 -3.7524 -2.5017 0.9775
-3.1778 -3.9891 -2.5017 0.9775
-3.0335 -4.1000 -2.5017 0.9775
-4.4671 1.8170 -2.5018 0.9785
-4.6356 1.3294 -2.5018 0.9785
-4.7185 0.9955 -2.5018 0.9785
-4.7510 0.8265 -2.5018 0.9785
-4.7775 0.6565 -2.5017 0.9785
-4.7978 0.4857 -2.5017 0.9785
-4.8203 0.1424 -2.5017 0.9785
-4.8181 -0.2017 -2.5017 0.9785
-4.8079 -0.3734 -2.5017 0.9785
-4.7915 -0.5447 -2.5017 0.9785
-4.5082 -1.7121 -2.5017 0.9785
-4.4443 -1.8718 -2.5017 0.9785
-4.1329 -2.4849 -2.5017 0.9785
-4.0416 -2.6307 -2.5017 0.9785
-3.9452 -2.7732 -2.5017 0.9785
-3.8438 -2.9122 -2.5017 0.9785
-3.2660 -3.5480 -2.5017 0.9785
-3.1373 -3.6623 -2.5017 0.9785
-3.0047 -3.7719 -2.5017 0.9785
-2.8683 -3.8766 -2.5017 0.9785
-2.5846 -4.0713 -2.5017 0.9785
-4.2312 1.7210 -2.5018 0.9794
-4.2899 1.5690 -2.5018 0.9794
-4.3431 1.4150 -2.5018 0.9794
-4.4329 1.1017 -2.5018 0.9794
-4.4693 0.9429 -2.5018 0.9794
-4.5001 0.7829 -2.5017 0.9794
-4.5657 0.1348 -2.5017 0.9794
-4.5540 -0.3537 -2.5017 0.9794
-4.5385 -0.5159 -2.5017 0.9794
-4.4574 -0.9978 -2.5017 0.9794
-4.3749 -1.3131 -2.5017 0.9794
-4.2096 -1.7729 -2.5017 0.9794
-3.9961 -2.2125 -2.5017 0.9794
-3.9146 -2.3537 -2.5017 0.9794
-3.8282 -2.4918 -2.5017 0.9794
-3.7368 -2.6268 -2.5017 0.9794
-3.2114 -3.2482 -2.5017 0.9794
-2.9717 -3.4689 -2.5017 0.9794
-2.8460 -3.5727 -2.5017 0.9794
-2.7168 -3.6719 -2.5017 0.9794
-2.5841 -3.7665 -2.5017 0.9794
-2.4481 -3.8563 -2.5017 0.9794
-4.0139 1.6327 -2.5018 0.9802
-4.0696 1.4884 -2.5018 0.9802
-4.1201 1.3423 -2.5018 0.9802
-4.1653 1.1945 -2.5018 0.9802
-4.2052 1.0451 -2.5018 0.9802
-4.2690 0.7427 -2.5017 0.9802
-4.3239 0.2823 -2.5017 0.9802
-4.3313 0.1279 -2.5017 0.9802
-4.3331 -0.0267 -2.5017 0.9802
-4.2852 -0.6427 -2.5017 0.9802
-4.1920 -1.0968 -2.5017 0.9802
-4.1502 -1.2457 -2.5017 0.9802
-4.1032 -1.3929 -2.5017 0.9802
-3.7136 -2.2328 -2.5017 0.9802
-3.5450 -2.4919 -2.5017 0.9802
-3.4538 -2.6167 -2.5017 0.9802
-3.0465 -3.0814 -2.5017 0.9802
-2.8191 -3.2908 -2.5017 0.9802
-2.5773 -3.4834 -2.5017 0.9802
-2.3224 -3.6583 -2.5017 0.9802
