ply
format ascii 1.0
element vertex 546
property float32 x
property float32 y
property float32 z
property float32 I
end_header
30.9370 -17.3351 6.2530 0.8659
21.4454 14.4072 4.5555 0.9004
15.0974 10.9411 3.2876 0.9271
18.6200 14.5309 4.1647 0.9085
30.9366 -17.3350 5.4326 0.8663
31.9162 14.0148 5.3400 0.8684
30.6296 14.7701 5.2093 0.8714
30.6637 16.1546 5.3095 0.8691
18.6201 14.5309 3.6183 0.9088
30.9340 -17.3334 4.6175 0.8667
30.7096 14.8087 4.4397 0.8715
23.2027 14.4178 3.5573 0.8957
21.6510 14.5453 3.3966 0.9001
30.9313 -17.3319 3.8073 0.8671
35.5215 14.1138 4.1044 0.8575
32.2052 14.1417 3.7769 0.8681
30.8768 17.6968 3.8216 0.8666
23.2027 14.4178 2.9334 0.8959
21.5229 14.4593 2.7843 0.9009
35.5215 14.1138 3.2357 0.8578
32.2052 14.1417 2.9775 0.8683
30.8067 14.8556 2.8953 0.8717
30.8411 16.2480 2.9509 0.8694
30.8768 17.6968 3.0127 0.8669
21.5229 14.4593 2.1950 0.9011
15.0913 10.9367 1.5777 0.9279
18.6200 14.5309 1.9994 0.9095
35.5215 14.1138 2.3702 0.8580
23.2027 14.4178 1.6940 0.8963
21.5229 14.4593 1.6079 0.9013
18.6200 14.5309 1.4646 0.9097
39.6815 -30.3528 1.9699 0.8187
30.9233 -17.3275 1.3977 0.8677
38.4747 13.7246 1.6107 0.8491
35.5215 14.1138 1.5072 0.8581
32.2052 14.1417 1.3869 0.8687
30.7096 14.8087 1.3443 0.8724
15.0884 10.9345 0.7348 0.9281
18.6200 14.5309 0.9313 0.9098
39.6780 -30.3502 0.8438 0.8189
30.9206 -17.3259 0.5987 0.8678
30.7096 14.8087 0.5759 0.8725
30.8768 17.6968 0.6012 0.8673
23.2027 14.4178 0.4614 0.8965
21.6510 14.5453 0.4406 0.9009
15.0869 10.9334 0.3147 0.9282
30.9180 -17.3245 -0.1995 0.8678
39.6273 14.1358 -0.2369 0.8451
35.5215 14.1138 -0.2152 0.8582
32.3216 14.1928 -0.1987 0.8683
30.8067 14.8555 -0.1926 0.8721
23.2027 14.4178 -0.1538 0.8965
21.5229 14.4593 -0.1460 0.9015
30.9153 -17.3230 -0.9979 0.8678
38.5989 13.7689 -1.1539 0.8488
32.3216 14.1928 -0.9940 0.8683
30.8067 14.8555 -0.9630 0.8721
23.2027 14.4178 -0.7692 0.8964
18.6200 14.5309 -0.6651 0.9098
36.8482 -28.1855 -2.3527 0.8304
38.7711 -25.5049 -2.3535 0.8304
39.6600 -24.1145 -2.3539 0.8304
45.3577 -19.3949 -2.5018 0.8207
46.0185 -17.7702 -2.5018 0.8207
46.6212 -16.1230 -2.5018 0.8207
47.6490 -12.7695 -2.5018 0.8207
48.0728 -11.0675 -2.5018 0.8207
49.3176 1.1161 -2.5018 0.8207
49.1137 4.6175 -2.5018 0.8207
48.9186 6.3606 -2.5018 0.8207
48.3430 9.8205 -2.5018 0.8207
47.9633 11.5329 -2.5018 0.8207
47.5230 13.2307 -2.5018 0.8207
39.5897 12.5547 -2.1063 0.8468
25.0132 13.1776 -1.4338 0.8929
24.1213 13.8250 -1.4100 0.8946
23.2027 14.4178 -1.3854 0.8964
21.5230 14.4593 -1.3150 0.9014
15.0824 10.9302 -0.9446 0.9281
18.6200 14.5309 -1.1978 0.9097
24.7591 -20.3737 -2.3510 0.8793
27.3779 -16.6466 -2.3494 0.8794
27.9524 -15.6628 -2.3494 0.8794
29.5507 -15.2040 -2.4367 0.8752
32.2462 -11.1517 -2.5018 0.8721
32.9571 -8.8322 -2.5018 0.8721
33.2502 -7.6550 -2.5018 0.8721
33.5013 -6.4681 -2.5018 0.8721
33.8763 -4.0713 -2.5018 0.8721
34.0800 -1.6539 -2.5018 0.8721
34.1172 -0.4413 -2.5018 0.8721
34.1113 0.7719 -2.5018 0.8721
33.9702 3.1938 -2.5018 0.8721
33.8352 4.3994 -2.5018 0.8721
30.5425 9.6857 -2.3494 0.8794
28.1868 11.1995 -2.2239 0.8855
27.7709 12.1945 -2.2239 0.8855
27.3198 13.1741 -2.2239 0.8855
24.7104 13.0181 -2.0479 0.8940
23.2027 14.4178 -2.0030 0.8962
18.8961 -15.5491 -2.3494 0.9063
21.2475 -15.0861 -2.5018 0.9006
21.7704 -14.3213 -2.5018 0.9006
23.9600 -10.2453 -2.5018 0.9006
24.3092 -9.3870 -2.5018 0.9006
24.9147 -7.6360 -2.5018 0.9006
25.3943 -5.8464 -2.5018 0.9006
25.5861 -4.9399 -2.5018 0.9006
25.8724 -3.1094 -2.5018 0.9006
25.9666 -2.1876 -2.5018 0.9006
26.0279 -1.2631 -2.5018 0.9006
25.8411 3.3600 -2.5018 0.9006
25.7053 4.2765 -2.5018 0.9006
25.1038 6.9891 -2.5018 0.9006
24.8395 7.8771 -2.5018 0.9006
23.0720 8.2302 -2.3517 0.9063
22.4061 9.8388 -2.3494 0.9063
21.0580 10.1545 -2.2445 0.9103
20.4941 10.7969 -2.2239 0.9111
19.6751 12.2258 -2.2239 0.9111
19.2281 12.9176 -2.2239 0.9111
14.9433 10.8294 -1.7718 0.9285
18.2616 14.2512 -2.2239 0.9111
16.2629 -13.3823 -2.5018 0.9187
16.7283 -12.7957 -2.5018 0.9187
17.5433 -11.5406 -2.4944 0.9189
18.7276 -9.6355 -2.5018 0.9187
19.3650 -8.2804 -2.5018 0.9187
19.6471 -7.5868 -2.5018 0.9187
19.9044 -6.8835 -2.5018 0.9187
20.1365 -6.1716 -2.5018 0.9187
20.6791 -3.9925 -2.5018 0.9187
20.8080 -3.2548 -2.5018 0.9187
20.9106 -2.5131 -2.5018 0.9187
21.0254 1.2247 -2.5018 0.9187
20.7755 3.4564 -2.5018 0.9187
20.6395 4.1928 -2.5018 0.9187
20.0758 6.3664 -2.5018 0.9187
19.8367 7.0761 -2.5018 0.9187
18.6883 8.2063 -2.4245 0.9211
17.8149 8.5907 -2.3494 0.9234
17.4983 9.2186 -2.3494 0.9234
17.1595 9.8348 -2.3494 0.9234
16.4206 10.2035 -2.2964 0.9251
15.5405 10.4402 -2.2239 0.9274
13.6341 -11.2191 -2.5018 0.9312
14.7511 -9.7037 -2.5018 0.9312
15.0867 -9.1732 -2.5018 0.9312
15.7004 -8.0780 -2.5018 0.9312
15.9776 -7.5147 -2.5018 0.9312
16.2347 -6.9419 -2.5018 0.9312
16.8816 -5.1740 -2.5018 0.9312
17.0548 -4.5705 -2.5018 0.9312
17.2065 -3.9613 -2.5018 0.9312
17.3365 -3.3471 -2.5018 0.9312
17.5305 -2.1068 -2.5018 0.9312
17.6551 -0.2283 -2.5018 0.9312
17.5791 1.6527 -2.5018 0.9312
17.5092 2.2766 -2.5018 0.9312
17.4172 2.8977 -2.5018 0.9312
17.1673 4.1279 -2.5018 0.9312
17.0097 4.7356 -2.5018 0.9312
16.6302 5.9323 -2.5018 0.9312
16.1667 7.0990 -2.5018 0.9312
15.5534 8.1940 -2.4909 0.9314
14.3857 8.2451 -2.3494 0.9352
14.0835 8.7513 -2.3494 0.9352
13.7635 9.2464 -2.3494 0.9352
13.4261 9.7299 -2.3494 0.9352
13.0716 10.2010 -2.3494 0.9352
12.0621 -9.2264 -2.5018 0.9403
12.6872 -8.3460 -2.5018 0.9403
12.9758 -7.8897 -2.5018 0.9403
13.9632 -5.9706 -2.5018 0.9403
14.1666 -5.4705 -2.5018 0.9403
14.5195 -4.4500 -2.5018 0.9403
14.6686 -3.9310 -2.5018 0.9403
14.7990 -3.4071 -2.5018 0.9403
14.9108 -2.8788 -2.5018 0.9403
15.0037 -2.3469 -2.5018 0.9403
15.1326 -1.2749 -2.5018 0.9403
15.1683 -0.7361 -2.5018 0.9403
15.1849 -0.1964 -2.5018 0.9403
15.1604 0.8831 -2.5018 0.9403
14.9803 2.4922 -2.5018 0.9403
14.6297 4.0730 -2.5018 0.9403
14.4757 4.5905 -2.5018 0.9403
14.3034 5.1023 -2.5018 0.9403
13.6788 6.5962 -2.5018 0.9403
13.1755 7.5515 -2.5018 0.9403
12.2152 8.2063 -2.4243 0.9421
11.2427 8.7737 -2.3494 0.9438
10.2777 -8.4572 -2.5018 0.9473
10.8526 -7.7056 -2.5018 0.9473
11.1197 -7.3149 -2.5018 0.9473
11.6114 -6.5063 -2.5018 0.9473
11.8353 -6.0894 -2.5018 0.9473
12.0443 -5.6648 -2.5018 0.9473
12.2381 -5.2330 -2.5018 0.9473
12.5790 -4.3502 -2.5018 0.9473
12.9707 -2.9862 -2.5018 0.9473
13.0686 -2.5232 -2.5018 0.9473
13.2630 -1.1174 -2.5018 0.9473
13.2875 0.7740 -2.5018 0.9473
13.2515 1.2459 -2.5018 0.9473
13.1989 1.7162 -2.5018 0.9473
13.1295 2.1843 -2.5018 0.9473
13.0436 2.6497 -2.5018 0.9473
12.6873 4.0234 -2.5018 0.9473
12.5363 4.4719 -2.5018 0.9473
12.3694 4.9147 -2.5018 0.9473
11.7757 6.2038 -2.5018 0.9473
11.5478 6.6185 -2.5018 0.9473
11.3051 7.0248 -2.5018 0.9473
11.0483 7.4223 -2.5018 0.9473
10.4930 8.1886 -2.5018 0.9473
9.1390 -7.5202 -2.5018 0.9528
9.6503 -6.8519 -2.5018 0.9528
9.8877 -6.5045 -2.5018 0.9528
10.3249 -5.7854 -2.5018 0.9528
10.5241 -5.4147 -2.5018 0.9528
10.8822 -4.6532 -2.5018 0.9528
11.0408 -4.2634 -2.5018 0.9528
11.3158 -3.4681 -2.5018 0.9528
11.4320 -3.0637 -2.5018 0.9528
11.5336 -2.6553 -2.5018 0.9528
11.6932 -1.8291 -2.5018 0.9528
11.8323 0.2677 -2.5018 0.9528
11.7834 1.1078 -2.5018 0.9528
11.7365 1.5260 -2.5018 0.9528
11.5984 2.3561 -2.5018 0.9528
11.2817 3.5776 -2.5018 0.9528
10.9989 4.3702 -2.5018 0.9528
10.6606 5.1407 -2.5018 0.9528
9.8242 6.6000 -2.5018 0.9528
9.3304 7.2814 -2.5018 0.9528
8.8931 -5.8501 -2.5018 0.9572
9.0954 -5.5303 -2.5018 0.9572
9.4654 -4.8700 -2.5018 0.9572
9.7875 -4.1851 -2.5018 0.9572
10.0601 -3.4791 -2.5018 0.9572
10.2819 -2.7555 -2.5018 0.9572
10.6322 -0.5160 -2.5018 0.9572
10.6438 -0.1377 -2.5018 0.9572
10.6267 0.6190 -2.5018 0.9572
10.3498 2.4886 -2.5018 0.9572
10.2547 2.8550 -2.5018 0.9572
10.0259 3.5764 -2.5018 0.9572
9.8925 3.9306 -2.5018 0.9572
8.6193 6.2464 -2.5018 0.9572
7.4611 -6.1395 -2.5018 0.9609
7.6746 -5.8704 -2.5018 0.9609
8.0723 -5.3102 -2.5018 0.9609
8.5918 -4.4206 -2.5018 0.9609
9.0137 -3.4807 -2.5018 0.9609
9.4160 -2.1678 -2.5018 0.9609
9.5463 -1.4933 -2.5018 0.9609
9.5933 -1.1529 -2.5018 0.9609
9.6510 -0.4683 -2.5018 0.9609
9.6460 0.5619 -2.5018 0.9609
9.6199 0.9044 -2.5018 0.9609
9.5817 1.2458 -2.5018 0.9609
9.5313 1.5857 -2.5018 0.9609
9.3083 2.5915 -2.5018 0.9609
9.1007 3.2464 -2.5018 0.9609
8.9795 3.5679 -2.5018 0.9609
8.8470 3.8848 -2.5018 0.9609
8.7033 4.1969 -2.5018 0.9609
8.2070 5.0997 -2.5018 0.9609
7.5510 -4.5912 -2.5018 0.9639
7.7094 -4.3199 -2.5018 0.9639
7.8581 -4.0431 -2.5018 0.9639
8.1256 -3.4745 -2.5018 0.9639
8.2439 -3.1834 -2.5018 0.9639
8.4493 -2.5896 -2.5018 0.9639
8.5360 -2.2876 -2.5018 0.9639
8.7311 -1.3657 -2.5018 0.9639
8.7741 -1.0545 -2.5018 0.9639
8.8060 -0.7419 -2.5018 0.9639
8.8268 -0.4283 -2.5018 0.9639
8.8365 -0.1143 -2.5018 0.9639
8.8350 0.1999 -2.5018 0.9639
8.8223 0.5139 -2.5018 0.9639
8.7635 1.1395 -2.5018 0.9639
8.7174 1.4503 -2.5018 0.9639
8.6603 1.7593 -2.5018 0.9639
8.5923 2.0661 -2.5018 0.9639
8.5134 2.3702 -2.5018 0.9639
8.4238 2.6714 -2.5018 0.9639
8.3235 2.9692 -2.5018 0.9639
8.2127 3.2632 -2.5018 0.9639
7.9601 3.8385 -2.5018 0.9639
7.3356 4.9281 -2.5018 0.9639
7.1557 5.1857 -2.5018 0.9639
6.2807 -5.1682 -2.5018 0.9665
6.4604 -4.9417 -2.5018 0.9665
7.5877 -2.9300 -2.5018 0.9665
7.6870 -2.6584 -2.5018 0.9665
7.7767 -2.3834 -2.5018 0.9665
7.9264 -1.8248 -2.5018 0.9665
8.0360 -1.2570 -2.5018 0.9665
8.0756 -0.9705 -2.5018 0.9665
8.1050 -0.6828 -2.5018 0.9665
8.1242 -0.3942 -2.5018 0.9665
8.1316 0.1840 -2.5018 0.9665
8.0234 1.3348 -2.5018 0.9665
7.9709 1.6192 -2.5018 0.9665
7.8357 2.1815 -2.5018 0.9665
7.7532 2.4587 -2.5018 0.9665
7.6609 2.7328 -2.5018 0.9665
7.5589 3.0034 -2.5018 0.9665
7.1962 3.7911 -2.5018 0.9665
7.0569 4.0446 -2.5018 0.9665
6.9086 4.2929 -2.5018 0.9665
6.7516 4.5358 -2.5018 0.9665
6.4122 5.0040 -2.5018 0.9665
5.8116 -4.7822 -2.5018 0.9688
6.4308 -3.9101 -2.5018 0.9688
6.5658 -3.6790 -2.5018 0.9688
6.6924 -3.4433 -2.5018 0.9688
6.9201 -2.9590 -2.5018 0.9688
7.1958 -2.2054 -2.5018 0.9688
7.2697 -1.9482 -2.5018 0.9688
7.3344 -1.6885 -2.5018 0.9688
7.4358 -1.1631 -2.5018 0.9688
7.4996 -0.6318 -2.5018 0.9688
7.5174 -0.3648 -2.5018 0.9688
7.5256 -0.0973 -2.5018 0.9688
7.5135 0.4376 -2.5018 0.9688
7.4242 1.2351 -2.5018 0.9688
7.2505 2.0186 -2.5018 0.9688
7.1741 2.2751 -2.5018 0.9688
6.6587 3.5080 -2.5018 0.9688
6.5298 3.7425 -2.5018 0.9688
6.0942 4.4164 -2.5018 0.9688
5.9333 4.6303 -2.5018 0.9688
5.5567 -4.2503 -2.5018 0.9707
5.7042 -4.0501 -2.5018 0.9707
5.8446 -3.8448 -2.5018 0.9707
5.9776 -3.6345 -2.5018 0.9707
6.2207 -3.2006 -2.5018 0.9707
6.5261 -2.5201 -2.5018 0.9707
6.6887 -2.0500 -2.5018 0.9707
6.7574 -1.8109 -2.5018 0.9707
6.8690 -1.3262 -2.5018 0.9707
6.9458 -0.8348 -2.5018 0.9707
6.9711 -0.5873 -2.5018 0.9707
6.9953 -0.0905 -2.5018 0.9707
6.9840 0.4068 -2.5018 0.9707
6.9010 1.1481 -2.5018 0.9707
6.8558 1.3927 -2.5018 0.9707
6.7395 1.8763 -2.5018 0.9707
6.5892 2.3505 -2.5018 0.9707
6.5014 2.5832 -2.5018 0.9707
6.4055 2.8127 -2.5018 0.9707
6.3014 3.0387 -2.5018 0.9707
6.1894 3.2608 -2.5018 0.9707
6.0696 3.4787 -2.5018 0.9707
5.8071 3.9012 -2.5018 0.9707
5.6647 4.1052 -2.5018 0.9707
5.5152 4.3040 -2.5018 0.9707
5.1853 -3.9663 -2.5018 0.9724
5.3230 -3.7794 -2.5018 0.9724
5.5781 -3.3916 -2.5018 0.9724
6.0900 -2.3517 -2.5018 0.9724
6.2417 -1.9130 -2.5018 0.9724
6.3058 -1.6899 -2.5018 0.9724
6.3619 -1.4647 -2.5018 0.9724
6.4099 -1.2376 -2.5018 0.9724
6.4499 -1.0089 -2.5018 0.9724
6.5277 -0.0844 -2.5018 0.9724
6.5266 0.1477 -2.5018 0.9724
6.5172 0.3796 -2.5018 0.9724
6.4738 0.8418 -2.5018 0.9724
6.4398 1.0714 -2.5018 0.9724
6.3976 1.2996 -2.5018 0.9724
6.3474 1.5262 -2.5018 0.9724
6.2891 1.7509 -2.5018 0.9724
6.2229 1.9734 -2.5018 0.9724
6.1488 2.1934 -2.5018 0.9724
5.8803 2.8356 -2.5018 0.9724
5.7758 3.0428 -2.5018 0.9724
5.5450 3.4456 -2.5018 0.9724
5.4190 3.6405 -2.5018 0.9724
5.2861 3.8308 -2.5018 0.9724
4.7201 -3.8840 -2.5018 0.9739
5.1068 -3.3594 -2.5018 0.9739
5.3326 -2.9880 -2.5018 0.9739
5.5314 -2.6016 -2.5018 0.9739
5.7023 -2.2020 -2.5018 0.9739
5.7770 -1.9978 -2.5018 0.9739
6.0392 -0.9447 -2.5018 0.9739
6.0911 -0.5132 -2.5018 0.9739
6.1121 -0.0791 -2.5018 0.9739
6.1111 0.1383 -2.5018 0.9739
6.1023 0.3554 -2.5018 0.9739
6.0858 0.5722 -2.5018 0.9739
5.9903 1.2169 -2.5018 0.9739
5.9433 1.4291 -2.5018 0.9739
5.8887 1.6395 -2.5018 0.9739
5.7573 2.0537 -2.5018 0.9739
5.6807 2.2571 -2.5018 0.9739
5.5968 2.4576 -2.5018 0.9739
5.5059 2.6550 -2.5018 0.9739
5.4081 2.8491 -2.5018 0.9739
5.1919 3.2262 -2.5018 0.9739
4.9496 3.5870 -2.5018 0.9739
4.8189 3.7606 -2.5018 0.9739
4.6806 -3.3233 -2.5018 0.9753
4.9049 -2.9823 -2.5018 0.9753
5.1945 -2.4431 -2.5018 0.9753
5.3550 -2.0678 -2.5018 0.9753
5.4251 -1.8762 -2.5018 0.9753
5.4885 -1.6821 -2.5018 0.9753
5.5447 -1.4859 -2.5018 0.9753
5.5941 -1.2879 -2.5018 0.9753
5.6363 -1.0882 -2.5018 0.9753
5.6714 -0.8871 -2.5018 0.9753
5.6994 -0.6850 -2.5018 0.9753
5.7201 -0.4819 -2.5018 0.9753
5.7399 -0.0742 -2.5018 0.9753
5.7152 0.5373 -2.5018 0.9753
5.2560 2.3080 -2.5018 0.9753
5.1706 2.4933 -2.5018 0.9753
5.0787 2.6756 -2.5018 0.9753
4.9804 2.8545 -2.5018 0.9753
4.6481 3.3685 -2.5018 0.9753
4.5254 3.5316 -2.5018 0.9753
4.2929 -3.2836 -2.5018 0.9765
4.4069 -3.1289 -2.5018 0.9765
4.5153 -2.9703 -2.5018 0.9765
4.7150 -2.6420 -2.5018 0.9765
4.8059 -2.4727 -2.5018 0.9765
4.9695 -2.1249 -2.5018 0.9765
5.1079 -1.7665 -2.5018 0.9765
5.1675 -1.5838 -2.5018 0.9765
5.3661 -0.6449 -2.5018 0.9765
5.3856 -0.4537 -2.5018 0.9765
5.4033 0.1223 -2.5018 0.9765
5.3956 0.3143 -2.5018 0.9765
5.3810 0.5059 -2.5018 0.9765
5.3596 0.6969 -2.5018 0.9765
5.3314 0.8870 -2.5018 0.9765
5.2549 1.2636 -2.5018 0.9765
5.2067 1.4496 -2.5018 0.9765
5.1518 1.6338 -2.5018 0.9765
5.0228 1.9957 -2.5018 0.9765
4.9486 2.1730 -2.5018 0.9765
4.7817 2.5191 -2.5018 0.9765
4.6891 2.6875 -2.5018 0.9765
4.5906 2.8525 -2.5018 0.9765
4.4863 3.0139 -2.5018 0.9765
4.3763 3.1715 -2.5018 0.9765
4.2608 3.3251 -2.5018 0.9765
4.0510 -3.0986 -2.5018 0.9775
4.2609 -2.8029 -2.5018 0.9775
4.3579 -2.6497 -2.5018 0.9775
4.4493 -2.4931 -2.5018 0.9775
4.6895 -2.0052 -2.5018 0.9775
4.9263 -1.3202 -2.5018 0.9775
4.9702 -1.1442 -2.5018 0.9775
5.0077 -0.9668 -2.5018 0.9775
5.0389 -0.7882 -2.5018 0.9775
5.0637 -0.6086 -2.5018 0.9775
5.0998 -0.0660 -2.5018 0.9775
5.0989 0.1154 -2.5018 0.9775
5.0778 0.4774 -2.5018 0.9775
5.0310 0.8370 -2.5018 0.9775
4.9981 1.0153 -2.5018 0.9775
4.9133 1.3679 -2.5018 0.9775
4.8616 1.5417 -2.5018 0.9775
4.8037 1.7136 -2.5018 0.9775
4.7398 1.8833 -2.5018 0.9775
4.4249 2.5361 -2.5018 0.9775
4.3320 2.6918 -2.5018 0.9775
4.2336 2.8441 -2.5018 0.9775
4.0208 3.1377 -2.5018 0.9775
3.7237 -3.0642 -2.5018 0.9785
3.8303 -2.9299 -2.5018 0.9785
4.2070 -2.3573 -2.5018 0.9785
4.2881 -2.2062 -2.5018 0.9785
4.4340 -1.8960 -2.5018 0.9785
4.4986 -1.7372 -2.5018 0.9785
4.5576 -1.5761 -2.5018 0.9785
4.6580 -1.2483 -2.5018 0.9785
4.6995 -1.0819 -2.5018 0.9785
4.7880 -0.5754 -2.5018 0.9785
4.8054 -0.4048 -2.5018 0.9785
4.8167 -0.2338 -2.5018 0.9785
4.8212 0.1091 -2.5018 0.9785
4.8142 0.2804 -2.5018 0.9785
4.8012 0.4514 -2.5018 0.9785
4.7259 0.9600 -2.5018 0.9785
4.6888 1.1274 -2.5018 0.9785
4.6457 1.2934 -2.5018 0.9785
4.5968 1.4577 -2.5018 0.9785
4.4816 1.7807 -2.5018 0.9785
4.2665 2.2477 -2.5018 0.9785
4.1839 2.3980 -2.5018 0.9785
4.0960 2.5452 -2.5018 0.9785
4.0030 2.6892 -2.5018 0.9785
3.9048 2.8298 -2.5018 0.9785
3.6280 -2.7751 -2.5018 0.9794
3.7244 -2.6444 -2.5018 0.9794
3.8161 -2.5103 -2.5018 0.9794
3.9848 -2.2328 -2.5018 0.9794
4.1334 -1.9440 -2.5018 0.9794
4.2611 -1.6454 -2.5018 0.9794
4.3672 -1.3385 -2.5018 0.9794
4.4513 -1.0248 -2.5018 0.9794
4.5129 -0.7059 -2.5018 0.9794
4.5351 -0.5450 -2.5018 0.9794
4.5516 -0.3835 -2.5018 0.9794
4.5673 -0.0591 -2.5018 0.9794
4.5666 0.1033 -2.5018 0.9794
4.5600 0.2656 -2.5018 0.9794
4.5477 0.4276 -2.5018 0.9794
4.5296 0.5890 -2.5018 0.9794
4.4763 0.9093 -2.5018 0.9794
4.4004 1.2251 -2.5018 0.9794
4.3540 1.3808 -2.5018 0.9794
4.2449 1.6866 -2.5018 0.9794
4.1143 1.9840 -2.5018 0.9794
3.9630 2.2713 -2.5018 0.9794
3.8797 2.4108 -2.5018 0.9794
3.6986 2.6804 -2.5018 0.9794
3.4418 -2.6326 -2.5018 0.9802
3.6201 -2.3814 -2.5018 0.9802
3.7802 -2.1182 -2.5018 0.9802
3.9842 -1.7036 -2.5018 0.9802
4.0423 -1.5609 -2.5018 0.9802
4.1430 -1.2698 -2.5018 0.9802
4.1855 -1.1217 -2.5018 0.9802
4.2227 -0.9722 -2.5018 0.9802
4.2546 -0.8214 -2.5018 0.9802
4.2811 -0.6697 -2.5018 0.9802
4.3022 -0.5170 -2.5018 0.9802
4.3281 -0.2100 -2.5018 0.9802
4.2464 0.8626 -2.5018 0.9802
4.1305 1.3098 -2.5018 0.9802
4.0813 1.4559 -2.5018 0.9802
4.0269 1.6000 -2.5018 0.9802
3.8337 2.0197 -2.5018 0.9802
3.6805 2.2870 -2.5018 0.9802
3.5969 2.4164 -2.5018 0.9802
3.5087 2.5427 -2.5018 0.9802
