ply
format ascii 1.0
element vertex 207
property float32 x
property float32 y
property float32 z
property float32 I
end_header
21.8859 14.4503 4.6244 0.8990
17.4503 14.5598 4.0073 0.9118
16.2181 14.5902 3.8466 0.9152
16.1983 15.7029 3.9780 0.9124
16.2625 18.3042 4.3174 0.9053
21.9150 14.4695 4.0230 0.8992
20.2623 14.4904 3.8161 0.9041
18.7918 14.5267 3.6387 0.9084
17.4503 14.5598 3.4816 0.9121
16.1983 15.7029 3.4561 0.9127
16.2218 16.9427 3.5934 0.9094
16.2990 19.7831 3.9268 0.9015
16.2702 21.3194 4.1085 0.8972
16.4334 25.2284 4.6125 0.8853
16.2181 14.5902 2.8408 0.9158
16.1983 15.7029 2.9378 0.9130
16.2702 21.3193 3.4923 0.8975
16.4805 25.3008 3.9320 0.8853
20.2623 14.4904 2.6749 0.9046
18.7918 14.5267 2.5505 0.9089
16.2291 16.9503 2.5199 0.9099
16.2625 18.3042 2.6292 0.9062
16.2990 19.7831 2.7525 0.9020
16.3391 21.4097 2.8920 0.8973
16.3145 23.1148 3.0381 0.8924
16.4805 25.3008 3.2424 0.8856
20.2623 14.4904 2.1087 0.9048
17.4503 14.5598 1.9239 0.9128
16.1983 15.7029 1.9098 0.9134
16.2291 16.9503 1.9865 0.9101
16.2990 19.7831 2.1699 0.9022
16.3391 21.4097 2.2799 0.8975
18.7918 14.5267 1.4729 0.9092
16.1000 15.6075 1.3905 0.9141
16.2625 18.3042 1.5183 0.9065
16.2990 19.7831 1.5895 0.9024
16.3391 21.4097 1.6701 0.8977
16.3836 23.2128 1.7619 0.8924
16.4334 25.2284 1.8670 0.8863
21.9150 14.4695 1.0355 0.9002
18.7918 14.5267 0.9366 0.9093
16.2181 14.5902 0.8602 0.9164
16.1983 15.7029 0.8896 0.9136
16.2218 16.9427 0.9249 0.9104
16.2990 19.7831 1.0107 0.9025
16.2702 21.3193 1.0575 0.8982
20.2623 14.4904 0.4208 0.9051
18.7918 14.5267 0.4012 0.9094
17.4503 14.5598 0.3839 0.9131
16.1983 15.7029 0.3811 0.9137
16.2218 16.9427 0.3962 0.9104
15.8716 24.3661 0.4912 0.8902
21.8859 14.4503 -0.1477 0.9004
20.2623 14.4904 -0.1403 0.9052
17.4503 14.5598 -0.1280 0.9131
16.1000 15.6075 -0.1262 0.9142
16.2291 16.9503 -0.1321 0.9104
16.2625 18.3042 -0.1379 0.9067
16.3391 21.4097 -0.1516 0.8979
16.3836 23.2127 -0.1600 0.8926
15.8704 24.3642 -0.1637 0.8902
21.8859 14.4503 -0.7385 0.9004
18.7918 14.5267 -0.6688 0.9093
17.4503 14.5598 -0.6399 0.9131
16.2291 16.9503 -0.6608 0.9104
16.2625 18.3042 -0.6894 0.9067
16.2990 19.7831 -0.7218 0.9025
16.3391 21.4097 -0.7584 0.8978
16.3837 23.2128 -0.8000 0.8925
20.2623 14.4904 -1.2633 0.9050
18.7918 14.5267 -1.2046 0.9093
17.4503 14.5598 -1.1526 0.9130
16.1983 15.7029 -1.1441 0.9136
16.2625 18.3042 -1.2417 0.9066
16.3391 21.4097 -1.3658 0.8977
15.8680 24.3605 -1.4744 0.8901
21.8859 14.4503 -1.9229 0.9002
17.4503 14.5598 -1.6664 0.9129
16.1983 15.7029 -1.6542 0.9135
16.2990 19.7831 -1.8794 0.9023
16.3836 23.2128 -2.0832 0.8923
16.2181 14.5902 -2.0944 0.9161
14.7292 17.8777 -2.2238 0.9111
14.0529 18.4140 -2.2238 0.9111
15.6232 10.3153 -2.2238 0.9274
14.8118 11.4500 -2.2238 0.9274
11.3578 14.8825 -2.2238 0.9274
10.2182 15.6869 -2.2238 0.9274
13.4868 9.6450 -2.3493 0.9352
13.1181 10.1407 -2.3493 0.9352
11.2691 10.9245 -2.2238 0.9386
9.9801 12.1134 -2.2238 0.9386
9.5219 12.4768 -2.2238 0.9386
9.0505 12.8229 -2.2238 0.9386
8.5665 13.1512 -2.2238 0.9386
12.4212 8.2011 -2.4520 0.9414
11.5998 8.2955 -2.3493 0.9438
10.6019 9.5377 -2.3493 0.9438
10.2393 9.9261 -2.3493 0.9438
9.1338 10.2805 -2.2655 0.9458
8.5837 10.4186 -2.2238 0.9467
8.1896 10.7311 -2.2238 0.9467
7.7842 11.0288 -2.2238 0.9467
11.1071 7.3335 -2.5017 0.9473
10.5302 8.1402 -2.5017 0.9473
9.8390 8.2092 -2.4085 0.9492
8.6439 9.0280 -2.3493 0.9504
9.6268 6.8845 -2.5017 0.9528
9.3636 7.2383 -2.5017 0.9528
9.0874 7.5821 -2.5017 0.9528
7.8610 8.2103 -2.4027 0.9546
7.3818 8.3086 -2.3493 0.9556
7.0672 8.5779 -2.3493 0.9556
6.4089 9.0802 -2.3493 0.9556
6.0662 9.3127 -2.3493 0.9556
8.8830 5.8650 -2.5017 0.9572
8.4216 6.5102 -2.5017 0.9572
7.9135 7.1192 -2.5017 0.9572
7.6428 7.4090 -2.5017 0.9572
7.0699 7.9575 -2.5017 0.9572
6.2625 8.2060 -2.4261 0.9585
5.4605 8.3830 -2.3513 0.9597
6.6821 6.9791 -2.5017 0.9609
5.5716 7.8940 -2.5017 0.9609
5.2736 8.0961 -2.5017 0.9609
7.1881 5.1405 -2.5017 0.9639
6.9916 5.4047 -2.5017 0.9639
6.7854 5.6614 -2.5017 0.9639
6.3450 6.1510 -2.5017 0.9639
6.1115 6.3831 -2.5017 0.9639
5.6192 6.8204 -2.5017 0.9639
6.7875 4.4815 -2.5017 0.9665
6.6159 4.7313 -2.5017 0.9665
6.4350 4.9745 -2.5017 0.9665
6.0468 5.4398 -2.5017 0.9665
5.8399 5.6613 -2.5017 0.9665
5.1719 6.2774 -2.5017 0.9665
4.6902 6.6451 -2.5017 0.9665
4.4393 6.8152 -2.5017 0.9665
5.9544 4.6029 -2.5017 0.9688
5.7788 4.8216 -2.5017 0.9688
5.5952 5.0335 -2.5017 0.9688
5.4037 5.2384 -2.5017 0.9688
4.9987 5.6263 -2.5017 0.9688
4.7856 5.8086 -2.5017 0.9688
4.3398 6.1488 -2.5017 0.9688
5.6903 4.0694 -2.5017 0.9707
5.5348 4.2785 -2.5017 0.9707
5.3716 4.4818 -2.5017 0.9707
5.2008 4.6788 -2.5017 0.9707
4.8380 5.0530 -2.5017 0.9707
4.6464 5.2298 -2.5017 0.9707
4.4484 5.3992 -2.5017 0.9707
4.0340 5.7154 -2.5017 0.9707
5.4478 3.5970 -2.5017 0.9724
5.3101 3.7974 -2.5017 0.9724
5.1649 3.9926 -2.5017 0.9724
5.0125 4.1822 -2.5017 0.9724
4.6872 4.5439 -2.5017 0.9724
4.5147 4.7153 -2.5017 0.9724
4.1511 5.0384 -2.5017 0.9724
4.9720 3.5557 -2.5017 0.9739
4.6934 3.9160 -2.5017 0.9739
4.3888 4.2546 -2.5017 0.9739
4.0598 4.5695 -2.5017 0.9739
3.7083 4.8592 -2.5017 0.9739
3.5247 4.9939 -2.5017 0.9739
4.5415 3.5107 -2.5017 0.9753
3.9698 4.1462 -2.5017 0.9753
3.6501 4.4303 -2.5017 0.9753
4.5102 2.9779 -2.5017 0.9765
4.3962 3.1438 -2.5017 0.9765
4.2760 3.3054 -2.5017 0.9765
4.1499 3.4624 -2.5017 0.9765
4.0180 3.6146 -2.5017 0.9765
3.5896 4.0403 -2.5017 0.9765
3.4367 4.1712 -2.5017 0.9765
3.1165 4.4155 -2.5017 0.9765
4.2561 2.8101 -2.5017 0.9775
4.1484 2.9667 -2.5017 0.9775
4.0350 3.1192 -2.5017 0.9775
3.9160 3.2674 -2.5017 0.9775
3.5271 3.6838 -2.5017 0.9775
3.3874 3.8127 -2.5017 0.9775
3.2430 3.9362 -2.5017 0.9775
2.7837 4.2734 -2.5017 0.9775
4.0243 2.6570 -2.5017 0.9785
3.9225 2.8051 -2.5017 0.9785
3.7027 3.0894 -2.5017 0.9785
3.4624 3.3565 -2.5017 0.9785
3.2029 3.6050 -2.5017 0.9785
3.0664 3.7218 -2.5017 0.9785
2.9256 3.8335 -2.5017 0.9785
2.7808 3.9398 -2.5017 0.9785
3.8117 2.5167 -2.5017 0.9794
3.7153 2.6570 -2.5017 0.9794
3.6138 2.7936 -2.5017 0.9794
3.5072 2.9262 -2.5017 0.9794
3.0338 3.4146 -2.5017 0.9794
2.9044 3.5253 -2.5017 0.9794
2.6339 3.7317 -2.5017 0.9794
2.4930 3.8273 -2.5017 0.9794
3.6160 2.3875 -2.5017 0.9802
3.3271 2.7760 -2.5017 0.9802
3.1112 3.0160 -2.5017 0.9802
2.6288 3.4446 -2.5017 0.9802
2.3650 3.6308 -2.5017 0.9802
