ply
format ascii 1.0
element vertex 644
property float32 x
property float32 y
property float32 z
property float32 I
end_header
8.1542 14.7892 2.9778 0.9337
4.9751 14.8676 2.7644 0.9383
3.8120 14.8963 2.7113 0.9395
3.2456 14.9103 2.6907 0.9399
1.9243 18.1298 3.2148 0.9286
1.7503 25.1264 4.4412 0.9028
-0.0693 24.3949 4.3015 0.9057
-20.0317 22.5312 5.3160 0.8847
-20.0606 20.9827 5.1186 0.8888
8.1542 14.7892 2.5872 0.9339
7.4780 14.8058 2.5411 0.9351
6.8246 14.8220 2.4998 0.9361
6.1913 14.8376 2.4630 0.9370
5.5755 14.8528 2.4304 0.9378
4.9751 14.8676 2.4018 0.9385
4.3879 14.8821 2.3769 0.9391
3.8120 14.8963 2.3556 0.9397
3.2456 14.9103 2.3377 0.9401
2.6870 14.9241 2.3230 0.9405
-0.0693 24.3896 3.7364 0.9060
-23.7559 42.5128 7.4606 0.8211
-19.9833 26.0507 5.0298 0.8756
-20.0311 24.2433 4.8177 0.8805
-20.0563 19.5129 4.2867 0.8929
7.4780 14.8058 2.1600 0.9353
6.8246 14.8220 2.1249 0.9363
6.1913 14.8376 2.0936 0.9372
4.9751 14.8676 2.0416 0.9387
3.8120 14.8963 2.0023 0.9399
2.1346 14.9377 1.9650 0.9409
2.0494 19.3086 2.5285 0.9247
2.3701 34.0227 4.4412 0.8715
-0.0693 24.3844 3.1754 0.9063
-19.8839 38.8191 5.6796 0.8387
-19.9949 28.1172 4.4929 0.8701
-19.9830 26.0504 4.2754 0.8760
-20.0600 20.9821 3.7801 0.8895
-20.0560 19.5126 3.6438 0.8933
8.8564 14.7718 1.8495 0.9331
8.1542 14.7892 1.8135 0.9343
7.4780 14.8059 1.7812 0.9354
6.1913 14.8376 1.7264 0.9374
4.9751 14.8676 1.6835 0.9389
4.3879 14.8821 1.6661 0.9395
3.2456 14.9103 1.6386 0.9405
2.1346 14.9377 1.6203 0.9411
1.0182 14.6167 1.5734 0.9428
0.3277 9.8216 1.0553 0.9612
-0.0418 14.7002 1.5785 0.9426
-19.9937 28.1154 3.7046 0.8704
-19.9827 26.0500 3.5255 0.8763
8.8564 14.7718 1.4580 0.9332
6.8000 14.7686 1.3764 0.9368
5.5755 14.8528 1.3430 0.9383
4.9751 14.8676 1.3272 0.9390
3.8121 14.8968 1.3017 0.9401
1.4899 14.0366 1.1949 0.9449
0.9807 14.0776 1.1946 0.9449
0.3277 9.8216 0.8319 0.9613
-0.0401 14.1173 1.1951 0.9449
-19.8213 42.4130 3.9631 0.8287
-19.8825 38.8163 3.6919 0.8394
-19.9367 35.6780 3.4598 0.8487
-19.9825 26.0497 2.7792 0.8765
-20.0308 22.5302 2.5520 0.8860
-20.0594 20.9815 2.4573 0.8900
6.8000 14.7686 1.0082 0.9369
5.5755 14.8528 0.9838 0.9384
4.9751 14.8676 0.9722 0.9391
3.2353 14.8630 0.9433 0.9409
2.6870 14.9241 0.9403 0.9410
1.9293 13.5010 0.8457 0.9468
1.4370 13.5390 0.8443 0.9469
-0.0386 13.5808 0.8422 0.9470
-3.4580 45.8786 2.8530 0.8316
-5.1412 45.9490 2.8671 0.8309
-6.8469 46.0447 2.8866 0.8298
-8.5830 46.1667 2.9119 0.8285
-12.1798 46.4947 2.9804 0.8248
-16.0067 46.9467 3.0757 0.8197
-19.8227 42.4159 2.9033 0.8289
-19.8818 38.8149 2.7043 0.8396
-19.9351 35.6751 2.5342 0.8489
-19.9117 32.7877 2.3787 0.8575
-19.9783 30.3633 2.2539 0.8644
-19.9912 28.1119 2.1391 0.8709
-19.9822 26.0494 2.0358 0.8767
-20.0302 24.2422 1.9500 0.8816
-20.0306 22.5300 1.8694 0.8862
8.8564 14.7718 0.6791 0.9334
6.8000 14.7686 0.6411 0.9370
6.1913 14.8376 0.6340 0.9377
5.5755 14.8528 0.6256 0.9385
4.9751 14.8676 0.6182 0.9392
3.8347 14.9849 0.6099 0.9400
3.2353 14.8630 0.5998 0.9409
2.6870 14.9241 0.5979 0.9411
1.8633 13.0393 0.5194 0.9486
0.9102 13.0655 0.5164 0.9489
-0.0372 13.0850 0.5160 0.9490
-3.0161 40.0164 1.5824 0.8516
-10.5633 40.3237 1.6437 0.8463
-12.1693 40.4260 1.6647 0.8445
-17.3100 40.8300 1.7487 0.8373
-19.8811 38.8136 1.7195 0.8398
-19.9335 35.6723 1.6113 0.8491
-19.9124 32.7887 1.5126 0.8576
-19.9770 30.3613 1.4331 0.8646
-19.9899 28.1101 1.3601 0.8710
-19.9819 26.0490 1.2945 0.8768
-20.0589 20.9809 1.1446 0.8903
7.5225 14.8939 0.2819 0.9354
5.5755 14.8528 0.2680 0.9385
4.3879 14.8821 0.2621 0.9398
3.8347 14.9849 0.2613 0.9400
3.2353 14.8630 0.2569 0.9410
1.8585 13.0053 0.2219 0.9488
1.9243 18.1298 0.3080 0.9297
1.7126 24.5846 0.4163 0.9061
0.3277 9.8216 0.1660 0.9614
-2.6750 35.4897 0.6012 0.8673
-3.9726 35.5045 0.6035 0.8668
-5.2824 35.5234 0.6067 0.8662
-6.6086 35.5466 0.6107 0.8653
-9.3275 35.6062 0.6217 0.8631
-16.7519 35.8454 0.6684 0.8536
-19.6866 35.2306 0.6817 0.8509
-19.9757 30.3593 0.6139 0.8647
-19.9886 28.1084 0.5826 0.8711
-19.9817 26.0487 0.5546 0.8769
-20.0297 24.2416 0.5312 0.8818
-20.0301 22.5294 0.5092 0.8864
-20.0586 20.9806 0.4903 0.8904
8.8564 14.7718 -0.0970 0.9334
8.1542 14.7892 -0.0951 0.9347
7.4510 14.7525 -0.0931 0.9360
6.8000 14.7686 -0.0915 0.9370
6.1913 14.8376 -0.0905 0.9377
4.3879 14.8821 -0.0874 0.9398
3.2353 14.8630 -0.0857 0.9410
2.6870 14.9241 -0.0854 0.9411
1.9243 18.1298 -0.1026 0.9297
-1.2099 30.9795 -0.1746 0.8834
-2.3932 31.7516 -0.1793 0.8804
-7.0996 31.7471 -0.1832 0.8780
-9.5537 31.7368 -0.1866 0.8758
-10.8184 31.7296 -0.1887 0.8745
-12.1136 31.7210 -0.1912 0.8730
-16.2299 31.6854 -0.2004 0.8673
-17.6970 31.6700 -0.2043 0.8649
-18.7522 30.8783 -0.2034 0.8654
-19.9744 30.3574 -0.2046 0.8647
-19.9814 26.0483 -0.1848 0.8769
-20.0299 22.5292 -0.1697 0.8864
8.1542 14.7892 -0.4755 0.9347
7.4780 14.8059 -0.4671 0.9358
6.1913 14.8376 -0.4527 0.9377
4.9751 14.8676 -0.4415 0.9392
4.3879 14.8821 -0.4369 0.9398
3.2456 14.9103 -0.4297 0.9408
1.8585 13.0053 -0.3699 0.9488
1.7124 24.5814 -0.6938 0.9061
0.3277 9.8216 -0.2767 0.9614
-5.2539 28.2597 -0.8094 0.8913
-6.3135 28.2319 -0.8146 0.8907
-8.4765 28.1585 -0.8280 0.8890
-9.5851 28.1124 -0.8363 0.8879
-10.7155 28.0596 -0.8457 0.8868
-11.8707 28.0000 -0.8563 0.8854
-13.0541 27.9329 -0.8682 0.8839
-14.2694 27.8581 -0.8813 0.8823
-15.5205 27.7749 -0.8959 0.8805
-16.8103 27.6807 -0.9119 0.8785
-18.1394 27.5686 -0.9292 0.8763
-19.9812 26.0480 -0.9244 0.8769
-20.0293 24.2411 -0.8854 0.8818
-20.0580 20.9800 -0.8173 0.8903
8.1542 14.7892 -0.8565 0.9346
7.4780 14.8058 -0.8412 0.9357
6.8246 14.8220 -0.8275 0.9367
6.1913 14.8376 -0.8154 0.9376
4.9751 14.8676 -0.7951 0.9391
4.3879 14.8821 -0.7869 0.9397
3.8120 14.8963 -0.7798 0.9403
3.2456 14.9103 -0.7739 0.9407
1.8585 13.0053 -0.6663 0.9487
1.8602 17.5263 -0.8938 0.9318
1.2202 17.5166 -0.8905 0.9321
-0.0687 24.1935 -1.2270 0.9076
-8.4721 24.8480 -1.3314 0.9002
-10.4525 24.6548 -1.3581 0.8983
-11.4689 24.5408 -1.3738 0.8972
-12.5055 24.4145 -1.3911 0.8960
-16.9037 23.7703 -1.4792 0.8897
-18.6135 22.5276 -1.4820 0.8895
-19.8275 22.3016 -1.5134 0.8873
-20.0578 20.9797 -1.4720 0.8903
8.8564 14.7718 -1.2629 0.9333
8.1542 14.7892 -1.2383 0.9345
6.8246 14.8220 -1.1964 0.9366
6.1913 14.8376 -1.1788 0.9376
4.9751 14.8676 -1.1495 0.9391
4.3879 14.8821 -1.1376 0.9397
3.8120 14.8963 -1.1274 0.9402
3.2456 14.9103 -1.1189 0.9406
2.6870 14.9241 -1.1119 0.9410
1.8585 13.0053 -0.9633 0.9487
1.0435 14.9802 -1.1010 0.9416
-0.0862 30.3298 -2.2239 0.8855
-4.9644 22.1991 -1.6679 0.9128
-6.6324 22.0325 -1.6871 0.9118
-7.4771 21.9299 -1.6988 0.9113
-8.3303 21.8140 -1.7121 0.9106
-9.1931 21.6841 -1.7269 0.9099
-10.9518 21.3810 -1.7614 0.9081
-11.8501 21.2065 -1.7812 0.9072
-12.7628 21.0159 -1.8028 0.9061
-14.6223 20.5622 -1.8500 0.9038
-16.5458 20.0252 -1.9046 0.9011
-17.5365 19.7247 -1.9352 0.8996
-18.1802 19.0160 -1.9290 0.8999
-18.7515 18.2435 -1.9182 0.9004
8.8564 14.7718 -1.6535 0.9331
8.1542 14.7892 -1.6213 0.9344
6.1913 14.8376 -1.5435 0.9374
5.5755 14.8528 -1.5231 0.9382
4.9751 14.8676 -1.5052 0.9389
4.3879 14.8821 -1.4896 0.9396
3.8120 14.8963 -1.4762 0.9401
2.6870 14.9241 -1.4558 0.9409
1.5266 14.3833 -1.3886 0.9435
-0.7467 19.1204 -1.8371 0.9260
-1.4389 19.0911 -1.8380 0.9260
-2.9450 19.8053 -1.9223 0.9227
-5.8674 19.4911 -1.9542 0.9215
-6.6052 19.3727 -1.9650 0.9210
-7.3471 19.2392 -1.9772 0.9206
-8.0935 19.0905 -1.9907 0.9201
-8.8449 18.9261 -2.0056 0.9195
-10.3647 18.5483 -2.0399 0.9182
-11.1341 18.3339 -2.0593 0.9174
-11.9061 18.0952 -2.0795 0.9166
-13.4593 17.5460 -2.1230 0.9150
-15.0385 16.9150 -2.1729 0.9131
-15.8225 16.5498 -2.1982 0.9121
-16.6089 16.1590 -2.2247 0.9111
8.1542 14.7892 -2.0061 0.9342
6.1913 14.8376 -1.9098 0.9373
4.9751 14.8676 -1.8623 0.9388
4.3879 14.8821 -1.8430 0.9394
3.2456 14.9103 -1.8126 0.9404
1.8585 13.0053 -1.5605 0.9485
0.3277 9.8216 -1.1673 0.9612
-0.6625 16.9651 -2.0168 0.9339
-1.8903 16.8944 -2.0193 0.9338
-2.6190 17.6121 -2.1151 0.9308
-3.2334 17.3917 -2.1013 0.9312
-3.9069 17.4705 -2.1265 0.9304
-4.5524 17.3781 -2.1339 0.9302
-5.1990 17.2710 -2.1425 0.9299
-5.8471 17.1491 -2.1522 0.9296
-6.4966 17.0121 -2.1631 0.9293
-8.4460 16.4890 -2.2007 0.9281
-9.7470 16.0499 -2.2305 0.9272
-10.3987 15.8041 -2.2472 0.9266
-11.0512 15.5404 -2.2651 0.9261
7.0759 14.0098 -2.2239 0.9386
6.5643 14.2567 -2.2239 0.9386
6.0441 14.4849 -2.2239 0.9386
1.8585 13.0053 -1.8614 0.9483
1.4703 13.8528 -1.9738 0.9453
0.3277 9.8216 -1.3924 0.9611
-0.5895 15.0946 -2.1404 0.9408
-3.4828 15.5742 -2.2612 0.9376
-4.0556 15.4815 -2.2676 0.9374
-4.6253 15.3652 -2.2736 0.9372
-5.7608 15.0853 -2.2880 0.9368
-6.8894 14.7418 -2.3056 0.9364
-8.0096 14.3337 -2.3265 0.9358
-8.5659 14.1051 -2.3382 0.9355
-9.1194 13.8598 -2.3508 0.9352
-10.2167 13.3188 -2.3784 0.9344
-10.7600 13.0226 -2.3935 0.9340
-11.2956 12.7051 -2.4088 0.9336
-11.8054 12.3481 -2.4205 0.9333
-12.2959 11.9628 -2.4307 0.9330
6.9414 11.5779 -2.2239 0.9467
6.5179 11.8215 -2.2239 0.9467
6.0859 12.0496 -2.2239 0.9467
5.6458 12.2619 -2.2239 0.9467
5.1984 12.4582 -2.2239 0.9467
3.3466 13.0779 -2.2239 0.9467
2.3920 13.2857 -2.2239 0.9467
0.3277 9.8216 -1.6189 0.9609
-0.0383 13.4992 -2.2239 0.9467
-0.5268 13.4897 -2.2240 0.9467
-2.6059 14.0165 -2.3486 0.9438
-3.6183 13.8125 -2.3522 0.9438
-4.6311 13.5827 -2.3641 0.9435
-5.1348 13.4460 -2.3711 0.9433
-5.6364 13.2948 -2.3789 0.9431
-6.6323 12.9482 -2.3966 0.9427
-7.1254 12.7514 -2.4064 0.9425
-9.0217 11.7610 -2.4419 0.9417
-10.7742 10.4823 -2.4764 0.9409
5.7127 10.3610 -2.2239 0.9530
5.3340 10.5609 -2.2239 0.9530
4.5562 10.9191 -2.2239 0.9530
4.1581 11.0768 -2.2239 0.9530
3.7545 11.2200 -2.2239 0.9530
2.9332 11.4622 -2.2239 0.9530
2.5165 11.5608 -2.2239 0.9530
1.2488 11.7654 -2.2239 0.9530
0.8222 11.8029 -2.2239 0.9530
-0.2007 5.1393 -0.9667 0.9793
-0.3896 5.1691 -0.9743 0.9791
-0.5836 5.2159 -0.9865 0.9789
-2.3453 12.6151 -2.4118 0.9491
-2.8033 12.5356 -2.4144 0.9491
-3.2601 12.4450 -2.4181 0.9490
-4.6169 12.0898 -2.4325 0.9487
-5.5076 11.7851 -2.4451 0.9484
-7.1925 10.9314 -2.4595 0.9481
-7.6071 10.6973 -2.4672 0.9480
-8.8125 9.9121 -2.4930 0.9474
5.7150 9.5323 -2.3493 0.9556
4.2800 10.2571 -2.3493 0.9556
3.8800 10.3360 -2.3337 0.9559
3.4602 10.3404 -2.3049 0.9564
3.0501 10.3447 -2.2797 0.9569
2.6483 10.3490 -2.2581 0.9573
1.4883 10.4149 -2.2239 0.9579
0.5364 5.0541 -1.0743 0.9794
0.3340 4.7953 -1.0161 0.9805
-0.1810 4.6334 -0.9801 0.9812
-0.3500 4.6435 -0.9843 0.9811
-0.8891 4.7825 -1.0282 0.9803
-1.1205 5.0107 -1.0853 0.9792
-3.7741 11.0693 -2.4721 0.9533
-4.1769 10.9377 -2.4749 0.9533
-4.5726 10.7858 -2.4763 0.9532
-4.9571 10.6071 -2.4749 0.9533
-5.3366 10.4186 -2.4744 0.9533
-6.1058 10.0542 -2.4865 0.9530
-6.4830 9.8529 -2.4931 0.9529
-7.8706 8.8527 -2.5039 0.9527
-8.4847 8.2552 -2.5024 0.9528
5.1401 8.5734 -2.3493 0.9598
4.8265 8.7538 -2.3493 0.9598
4.5066 8.9227 -2.3493 0.9598
4.1807 9.0799 -2.3493 0.9598
3.5131 9.3585 -2.3493 0.9598
3.1721 9.4795 -2.3493 0.9598
2.8270 9.5881 -2.3493 0.9598
0.3106 4.4590 -1.0505 0.9818
-0.0127 4.4576 -1.0476 0.9819
-0.1740 4.4561 -1.0481 0.9818
-3.7793 9.8965 -2.4897 0.9574
-4.8556 9.4795 -2.5032 0.9572
-5.1960 9.2985 -2.5034 0.9572
-5.5297 9.1056 -2.5037 0.9572
-5.8548 8.8983 -2.5034 0.9572
-6.7815 8.2076 -2.5022 0.9572
-7.3569 7.6951 -2.5021 0.9572
4.9144 8.1970 -2.4746 0.9613
4.1486 8.2140 -2.3826 0.9627
3.4978 8.3825 -2.3518 0.9632
3.1888 8.4948 -2.3493 0.9632
1.4279 5.5801 -1.4913 0.9765
1.1516 5.2905 -1.4019 0.9779
0.3079 4.4195 -1.1471 0.9819
-0.0125 4.4111 -1.1421 0.9819
-0.6576 4.4226 -1.1577 0.9817
-1.1556 4.4115 -1.1807 0.9813
-3.4483 9.0299 -2.5027 0.9608
-3.7729 8.8992 -2.5027 0.9608
-4.7142 8.4364 -2.5022 0.9609
-5.0162 8.2600 -2.5022 0.9609
-5.8815 7.6673 -2.5020 0.9609
-6.1551 7.4495 -2.5020 0.9609
-6.4207 7.2219 -2.5020 0.9609
-6.6779 6.9849 -2.5020 0.9609
-6.9263 6.7387 -2.5021 0.9609
4.5441 7.5793 -2.5017 0.9639
4.2669 7.7388 -2.5017 0.9639
3.0768 8.1963 -2.4784 0.9643
2.7446 8.2018 -2.4484 0.9647
1.5170 5.1452 -1.5185 0.9779
1.2718 4.9699 -1.4523 0.9789
0.9770 4.4883 -1.3004 0.9811
0.3050 4.3787 -1.2426 0.9819
0.1460 4.3768 -1.2397 0.9820
-0.0124 4.3702 -1.2372 0.9820
-0.1704 4.3635 -1.2362 0.9820
-0.4908 4.3860 -1.2494 0.9818
-0.8128 4.3719 -1.2589 0.9817
-0.9753 4.3614 -1.2652 0.9816
-1.1439 4.3668 -1.2779 0.9814
-1.5103 4.4296 -1.3249 0.9807
-3.1531 8.2569 -2.5021 0.9639
-3.7418 8.0066 -2.5019 0.9639
-4.0291 7.8660 -2.5019 0.9639
-4.8579 7.3831 -2.5020 0.9639
-5.1219 7.2025 -2.5020 0.9639
-5.3792 7.0125 -2.5020 0.9639
-5.8724 6.6051 -2.5020 0.9639
3.4018 7.3881 -2.5017 0.9665
1.5864 4.7408 -1.5376 0.9793
1.3525 4.5870 -1.4709 0.9802
0.9407 4.3214 -1.3603 0.9817
0.7817 4.3417 -1.3569 0.9817
0.4589 4.3233 -1.3372 0.9820
0.1446 4.3348 -1.3340 0.9820
-0.1688 4.3229 -1.3306 0.9821
-0.3258 4.3225 -1.3333 0.9820
-0.6442 4.3320 -1.3471 0.9818
-1.1327 4.3241 -1.3749 0.9815
-2.9019 7.5989 -2.5019 0.9665
-3.4439 7.3692 -2.5019 0.9665
-3.7083 7.2398 -2.5019 0.9665
-4.4711 6.7953 -2.5020 0.9665
-4.7141 6.6291 -2.5020 0.9665
-4.9510 6.4542 -2.5020 0.9665
-5.1813 6.2708 -2.5020 0.9665
-5.6213 5.8797 -2.5020 0.9665
-5.8304 5.6725 -2.5020 0.9665
3.1477 6.8363 -2.5017 0.9688
1.4561 4.3515 -1.5253 0.9808
0.9328 4.2854 -1.4578 0.9817
0.7444 4.1346 -1.3964 0.9824
0.6118 4.2812 -1.4376 0.9819
0.4545 4.2821 -1.4314 0.9820
0.1431 4.2879 -1.4261 0.9821
-0.3227 4.2816 -1.4273 0.9821
-0.6362 4.2783 -1.4378 0.9819
-0.7944 4.2730 -1.4447 0.9818
-1.1192 4.2722 -1.4680 0.9816
-1.2867 4.2742 -1.4837 0.9814
-2.6851 7.0313 -2.5019 0.9688
-2.9378 6.9296 -2.5019 0.9688
-3.1867 6.8188 -2.5019 0.9688
-3.4314 6.6990 -2.5019 0.9688
-3.6715 6.5705 -2.5019 0.9688
-3.9069 6.4333 -2.5019 0.9688
-4.1372 6.2878 -2.5019 0.9688
-4.3620 6.1340 -2.5020 0.9688
-4.7943 5.8025 -2.5020 0.9688
-5.0011 5.6252 -2.5020 0.9688
-5.3949 5.2488 -2.5020 0.9688
3.5973 6.0000 -2.5017 0.9707
3.3778 6.1262 -2.5017 0.9707
3.1539 6.2445 -2.5017 0.9707
2.9259 6.3545 -2.5017 0.9707
1.6158 4.3045 -1.6442 0.9807
1.4296 4.2721 -1.6110 0.9810
0.9277 4.2619 -1.5598 0.9816
0.6089 4.2609 -1.5392 0.9819
0.4522 4.2605 -1.5321 0.9820
0.2967 4.2598 -1.5270 0.9820
0.1421 4.2591 -1.5239 0.9821
-0.0121 4.2584 -1.5229 0.9821
-0.3208 4.2568 -1.5266 0.9820
-0.4762 4.2556 -1.5313 0.9820
-0.7902 4.2503 -1.5460 0.9818
-1.1111 4.2416 -1.5680 0.9815
-1.2756 4.2376 -1.5826 0.9814
-1.4518 4.2580 -1.6088 0.9811
-2.7308 6.4412 -2.5019 0.9707
-2.9621 6.3382 -2.5019 0.9707
-3.6316 5.9799 -2.5019 0.9707
-4.0546 5.7017 -2.5019 0.9707
-4.6487 5.2287 -2.5020 0.9707
-4.8349 5.0571 -2.5020 0.9707
-5.0147 4.8789 -2.5020 0.9707
3.1521 5.7168 -2.5017 0.9724
2.9431 5.8271 -2.5017 0.9724
2.5139 6.0247 -2.5017 0.9724
1.0867 4.2468 -1.6799 0.9814
0.9262 4.2551 -1.6688 0.9815
0.7659 4.2539 -1.6564 0.9817
0.6077 4.2528 -1.6463 0.9818
0.4513 4.2521 -1.6386 0.9818
-0.0121 4.2495 -1.6285 0.9820
-0.4752 4.2470 -1.6377 0.9819
-0.6310 4.2434 -1.6440 0.9818
-0.7879 4.2380 -1.6519 0.9817
-0.9472 4.2355 -1.6632 0.9816
-2.3291 6.0990 -2.5019 0.9724
-2.5483 6.0108 -2.5019 0.9724
-2.7641 5.9146 -2.5019 0.9724
-2.9764 5.8107 -2.5019 0.9724
-3.1847 5.6992 -2.5019 0.9724
-3.3888 5.5803 -2.5019 0.9724
-3.9737 5.1802 -2.5019 0.9724
-4.5117 4.7191 -2.5020 0.9724
-4.6796 4.5528 -2.5020 0.9724
3.1432 5.2425 -2.5017 0.9739
2.9514 5.3529 -2.5017 0.9739
2.5565 5.5523 -2.5017 0.9739
2.3539 5.6412 -2.5017 0.9739
1.5923 4.2417 -1.8543 0.9806
1.4154 4.2298 -1.8255 0.9809
0.9248 4.2485 -1.7795 0.9814
0.7644 4.2459 -1.7657 0.9815
0.4504 4.2436 -1.7466 0.9817
-0.0121 4.2405 -1.7355 0.9818
-0.1656 4.2396 -1.7365 0.9818
-0.3195 4.2390 -1.7398 0.9818
-0.4742 4.2382 -1.7454 0.9817
-0.6297 4.2345 -1.7521 0.9817
-0.7862 4.2289 -1.7604 0.9816
-1.4407 4.2253 -1.8271 0.9809
-2.3860 5.6281 -2.5019 0.9739
-2.5881 5.5381 -2.5019 0.9739
-2.7869 5.4408 -2.5019 0.9739
-2.9819 5.3364 -2.5019 0.9739
-3.1731 5.2250 -2.5019 0.9739
2.7717 5.0269 -2.5017 0.9753
2.5879 5.1239 -2.5017 0.9753
2.2105 5.2976 -2.5017 0.9753
1.5659 4.1713 -1.9418 0.9807
1.3962 4.1723 -1.9175 0.9810
1.0828 4.2311 -1.9034 0.9811
0.9236 4.2430 -1.8925 0.9812
0.4497 4.2372 -1.8570 0.9816
0.1414 4.2367 -1.8475 0.9817
-0.0120 4.2366 -1.8464 0.9817
-0.3193 4.2368 -1.8517 0.9816
-0.4741 4.2371 -1.8581 0.9816
-0.6296 4.2338 -1.8654 0.9815
-0.9423 4.2137 -1.8818 0.9813
-1.2557 4.1713 -1.8985 0.9812
-1.4353 4.2096 -1.9383 0.9808
-2.6171 5.1094 -2.5019 0.9753
-3.3270 4.6784 -2.5019 0.9753
-3.6566 4.4256 -2.5019 0.9753
-3.9672 4.1495 -2.5020 0.9753
-4.1147 4.0033 -2.5020 0.9753
2.7791 4.6354 -2.5017 0.9765
2.6096 4.7329 -2.5017 0.9765
2.2604 4.9093 -2.5017 0.9765
2.0813 4.9878 -2.5017 0.9765
1.3971 4.1751 -2.0379 0.9808
0.4499 4.2383 -1.9728 0.9814
0.1414 4.2381 -1.9628 0.9815
-0.0120 4.2381 -1.9618 0.9815
-0.6297 4.2344 -1.9816 0.9813
-0.7853 4.2240 -1.9888 0.9812
-0.9330 4.1719 -1.9788 0.9813
-1.0934 4.1741 -1.9973 0.9812
-1.2564 4.1737 -2.0176 0.9810
-1.4221 4.1710 -2.0398 0.9808
-2.1097 4.9762 -2.5019 0.9765
-2.2884 4.8967 -2.5019 0.9765
-2.8056 4.6198 -2.5019 0.9765
-3.1324 4.4049 -2.5019 0.9765
-3.2898 4.2886 -2.5019 0.9765
-3.4428 4.1668 -2.5019 0.9765
-3.5913 4.0395 -2.5019 0.9765
-3.7352 3.9069 -2.5019 0.9765
-3.8741 3.7692 -2.5020 0.9765
2.6225 4.3742 -2.5017 0.9775
1.9640 4.7068 -2.5017 0.9775
1.5669 4.1740 -2.1870 0.9803
1.2310 4.1750 -2.1351 0.9808
1.0674 4.1711 -2.1120 0.9810
0.9246 4.2478 -2.1325 0.9808
0.7633 4.2393 -2.1129 0.9810
0.6058 4.2391 -2.1005 0.9811
0.1414 4.2386 -2.0803 0.9813
-0.0120 4.2381 -2.0789 0.9813
-0.7842 4.2183 -2.1046 0.9811
-1.2569 4.1754 -2.1389 0.9808
-1.4224 4.1718 -2.1620 0.9806
-1.9908 4.6958 -2.5019 0.9775
-2.1594 4.6207 -2.5019 0.9775
-2.3252 4.5396 -2.5019 0.9775
-2.6475 4.3595 -2.5019 0.9775
-2.8035 4.2609 -2.5019 0.9775
-2.9559 4.1567 -2.5019 0.9775
-3.1044 4.0470 -2.5019 0.9775
-3.2488 3.9320 -2.5019 0.9775
-3.6558 3.5568 -2.5019 0.9775
2.1741 4.3045 -2.5017 0.9785
2.0169 4.3803 -2.5017 0.9785
1.5665 4.1731 -2.3124 0.9801
0.6054 4.2363 -2.2200 0.9809
0.1413 4.2342 -2.1979 0.9811
-0.0120 4.2338 -2.1964 0.9811
-0.7878 4.2372 -2.2358 0.9808
-1.2568 4.1750 -2.2619 0.9805
-1.4223 4.1715 -2.2864 0.9803
-1.8824 4.4401 -2.5019 0.9785
-2.0418 4.3690 -2.5019 0.9785
-2.1986 4.2923 -2.5019 0.9785
-2.3525 4.2100 -2.5019 0.9785
-2.5033 4.1221 -2.5019 0.9785
-3.0719 3.7178 -2.5019 0.9785
-3.2044 3.6042 -2.5019 0.9785
2.3487 3.9175 -2.5017 0.9794
2.2054 4.0000 -2.5017 0.9794
2.0593 4.0772 -2.5017 0.9794
1.7590 4.2154 -2.5017 0.9794
1.6053 4.2763 -2.5017 0.9794
1.3965 4.1732 -2.4103 0.9801
1.2303 4.1728 -2.3827 0.9804
1.1324 4.4251 -2.5018 0.9794
0.9715 4.4632 -2.5018 0.9794
0.6462 4.5218 -2.5018 0.9794
0.4821 4.5422 -2.5018 0.9794
-0.8349 4.4909 -2.5018 0.9794
-1.2562 4.1730 -2.3869 0.9803
-1.4741 4.3235 -2.5019 0.9794
-1.6296 4.2673 -2.5019 0.9794
-1.7830 4.2056 -2.5019 0.9794
-1.9340 4.1383 -2.5019 0.9794
-2.2283 3.9876 -2.5019 0.9794
-2.3711 3.9044 -2.5019 0.9794
-2.5108 3.8160 -2.5019 0.9794
-2.6473 3.7227 -2.5019 0.9794
-2.7803 3.6244 -2.5019 0.9794
-2.9096 3.5215 -2.5019 0.9794
-3.0351 3.4139 -2.5019 0.9794
-3.1567 3.3018 -2.5019 0.9794
2.2281 3.7164 -2.5017 0.9802
1.8123 3.9360 -2.5017 0.9802
1.3751 4.1092 -2.5017 0.9802
0.9216 4.2340 -2.5018 0.9802
0.6130 4.2896 -2.5018 0.9802
0.4574 4.3090 -2.5018 0.9802
0.3012 4.3228 -2.5018 0.9802
0.1445 4.3308 -2.5018 0.9802
-0.0123 4.3332 -2.5018 0.9802
-0.6373 4.2862 -2.5018 0.9802
-0.7920 4.2603 -2.5018 0.9802
-1.0981 4.1919 -2.5018 0.9802
-1.2491 4.1494 -2.5018 0.9802
-1.3984 4.1015 -2.5019 0.9802
-1.8347 3.9258 -2.5019 0.9802
-1.9755 3.8569 -2.5019 0.9802
-2.2493 3.7039 -2.5019 0.9802
-2.3819 3.6201 -2.5019 0.9802
-2.6375 3.4383 -2.5019 0.9802
-2.8793 3.2386 -2.5019 0.9802
