ply
format ascii 1.0
element vertex 477
property float32 x
property float32 y
property float32 z
property float32 I
end_header
-21.8584 -17.5466 4.9424 0.8924
-0.4049 -18.5479 3.2713 0.9274
-21.8584 -17.5466 4.2940 0.8928
-21.9491 -15.1355 3.4719 0.8980
-21.8584 -17.5466 3.6501 0.8931
-21.8584 -17.5466 3.0099 0.8934
-21.8584 -17.5466 2.3728 0.8936
-21.8584 -17.5466 1.7381 0.8937
-21.8584 -17.5466 1.1052 0.8939
-21.8584 -17.5466 0.4735 0.8939
6.1785 -15.5548 0.2827 0.9352
-21.8584 -17.5466 -0.1578 0.8939
4.2757 -15.5079 -0.0906 0.9377
5.3062 -16.8319 -0.0994 0.9318
6.0011 -16.8714 -0.1008 0.9309
6.7084 -16.8889 -0.1023 0.9299
7.4330 -16.8956 -0.1039 0.9288
-21.8584 -17.5466 -0.7893 0.8939
4.2757 -15.5079 -0.4530 0.9377
5.3062 -16.8319 -0.4969 0.9318
6.0011 -16.8714 -0.5042 0.9309
6.7084 -16.8889 -0.5117 0.9299
-40.3830 -27.8471 -2.4877 0.8216
-27.1972 -39.4540 -2.4302 0.8254
-22.2102 -41.1959 -2.3735 0.8291
-20.5334 -41.6420 -2.3546 0.8303
-18.9725 -42.2858 -2.3505 0.8306
-15.1745 -46.9385 -2.5018 0.8207
-13.4583 -47.4590 -2.5018 0.8207
-9.9749 -48.3113 -2.5018 0.8207
-4.6567 -49.1101 -2.5018 0.8207
-1.0125 -46.3821 -2.3528 0.8304
0.6746 -46.4222 -2.3545 0.8303
2.3613 -46.3611 -2.3542 0.8303
5.7217 -46.0555 -2.3536 0.8304
9.0503 -45.5068 -2.3530 0.8304
10.6971 -45.1422 -2.3528 0.8304
4.2757 -15.5079 -0.8158 0.9376
5.3062 -16.8319 -0.8950 0.9318
6.0011 -16.8714 -0.9081 0.9308
6.7084 -16.8889 -0.9216 0.9298
-26.5126 -18.2824 -2.3613 0.8788
-23.6046 -21.9513 -2.3635 0.8787
-21.8928 -23.5492 -2.3576 0.8790
-21.0417 -24.3520 -2.3598 0.8789
-20.0900 -25.0350 -2.3536 0.8792
-18.3226 -28.7642 -2.5006 0.8722
-17.2729 -29.4248 -2.5018 0.8721
-16.1920 -30.0332 -2.5018 0.8721
-13.9673 -31.1302 -2.5018 0.8721
-10.4956 -32.4654 -2.5018 0.8721
-6.8993 -33.4152 -2.5018 0.8721
-4.4534 -33.8281 -2.5018 0.8721
-1.8641 -32.0015 -2.3504 0.8794
0.4666 -32.1091 -2.3546 0.8792
6.2611 -31.4821 -2.3535 0.8792
-20.9007 -15.5631 -2.5018 0.9006
-20.1341 -16.1624 -2.4787 0.9015
-19.4555 -16.8163 -2.4688 0.9018
-18.8927 -17.5694 -2.4769 0.9015
-18.4247 -18.4277 -2.5018 0.9006
-17.7427 -19.0852 -2.5018 0.9006
-16.3093 -20.3238 -2.5018 0.9006
-15.5598 -20.9032 -2.5018 0.9006
-14.7897 -21.4549 -2.5018 0.9006
-13.1919 -22.4727 -2.5018 0.9006
-9.7960 -24.1472 -2.5018 0.9006
-8.9118 -24.4873 -2.5018 0.9006
-6.1933 -25.3119 -2.5018 0.9006
-5.2692 -25.5203 -2.5018 0.9006
-2.3100 -24.3619 -2.3494 0.9063
-1.4243 -24.4521 -2.3515 0.9063
0.3564 -24.5230 -2.3546 0.9061
1.2474 -24.4923 -2.3544 0.9062
4.7825 -24.0479 -2.3539 0.9062
5.6528 -23.8551 -2.3536 0.9062
5.3062 -16.8319 -1.6943 0.9315
6.7084 -16.8889 -1.7446 0.9296
7.3052 -16.6050 -1.7416 0.9297
-15.9339 -13.7724 -2.5018 0.9187
-15.4227 -14.3425 -2.5018 0.9187
-14.8912 -14.8936 -2.5018 0.9187
-13.7698 -15.9361 -2.5018 0.9187
-13.1815 -16.4261 -2.5018 0.9187
-12.5757 -16.8943 -2.5018 0.9187
-11.9533 -17.3403 -2.5018 0.9187
-11.3151 -17.7633 -2.5018 0.9187
-7.9173 -19.5162 -2.5018 0.9187
-7.2026 -19.7911 -2.5018 0.9187
-6.4786 -20.0398 -2.5018 0.9187
-3.5061 -20.7671 -2.5018 0.9187
-0.4325 -19.8134 -2.3541 0.9233
0.2880 -19.8196 -2.3545 0.9233
1.7268 -19.7425 -2.3541 0.9233
3.1559 -19.5610 -2.3536 0.9233
4.2757 -15.5079 -1.9109 0.9373
-14.5357 -10.0234 -2.5018 0.9312
-14.1617 -10.5452 -2.5018 0.9312
-13.7691 -11.0530 -2.5018 0.9312
-13.3582 -11.5462 -2.5018 0.9312
-12.0220 -12.9316 -2.5018 0.9312
-11.5440 -13.3601 -2.5018 0.9312
-11.0508 -13.7709 -2.5018 0.9312
-10.0211 -14.5373 -2.5018 0.9312
-8.9385 -15.2269 -2.5018 0.9312
-6.0383 -16.5920 -2.5018 0.9312
-5.4313 -16.8005 -2.5018 0.9312
-4.1964 -17.1507 -2.5018 0.9312
-3.5702 -17.2919 -2.5018 0.9312
-2.9394 -17.4102 -2.5018 0.9312
-2.3046 -17.5056 -2.5018 0.9312
-0.9654 -16.5747 -2.3524 0.9351
-0.3618 -16.5771 -2.3494 0.9352
0.2409 -16.5793 -2.3494 0.9352
2.6410 -16.3693 -2.3494 0.9352
3.8232 -16.1342 -2.3494 0.9352
5.5568 -15.6222 -2.3494 0.9352
6.1209 -15.4099 -2.3494 0.9352
-12.1803 -9.0697 -2.5018 0.9403
-11.4892 -9.9306 -2.5018 0.9403
-10.7373 -10.7391 -2.5018 0.9403
-9.9288 -11.4908 -2.5018 0.9403
-9.5045 -11.8441 -2.5018 0.9403
-9.0678 -12.1817 -2.5018 0.9403
-8.6190 -12.5033 -2.5018 0.9403
-8.1588 -12.8083 -2.5018 0.9403
-7.6873 -13.0966 -2.5018 0.9403
-7.2067 -13.3672 -2.5018 0.9403
-6.7161 -13.6203 -2.5018 0.9403
-6.2165 -13.8554 -2.5018 0.9403
-5.7088 -14.0723 -2.5018 0.9403
-5.1935 -14.2705 -2.5018 0.9403
-4.6714 -14.4498 -2.5018 0.9403
-4.1430 -14.6101 -2.5018 0.9403
-3.0707 -14.8724 -2.5018 0.9403
-0.8831 -15.1604 -2.5018 0.9403
-0.3314 -15.1825 -2.5018 0.9403
0.7725 -15.1665 -2.5018 0.9403
1.3232 -15.1284 -2.5018 0.9403
2.9622 -14.8945 -2.5018 0.9403
3.5016 -14.7769 -2.5018 0.9403
4.0364 -14.6399 -2.5018 0.9403
4.5659 -14.4835 -2.5018 0.9403
5.0893 -14.3080 -2.5018 0.9403
5.6060 -14.1135 -2.5018 0.9403
-10.9573 -7.5559 -2.5018 0.9473
-10.0697 -8.7038 -2.5018 0.9473
-9.7467 -9.0640 -2.5018 0.9473
-9.4108 -9.4123 -2.5018 0.9473
-8.7022 -10.0712 -2.5018 0.9473
-7.1508 -11.2259 -2.5018 0.9473
-6.7380 -11.4784 -2.5018 0.9473
-6.3164 -11.7157 -2.5018 0.9473
-5.4485 -12.1437 -2.5018 0.9473
-5.0035 -12.3337 -2.5018 0.9473
-4.5519 -12.5074 -2.5018 0.9473
-4.0943 -12.6646 -2.5018 0.9473
-2.2158 -13.1242 -2.5018 0.9473
-1.7372 -13.1961 -2.5018 0.9473
-0.2905 -13.3068 -2.5018 0.9473
0.6770 -13.2927 -2.5018 0.9473
1.1597 -13.2593 -2.5018 0.9473
1.6410 -13.2084 -2.5018 0.9473
2.1200 -13.1401 -2.5018 0.9473
2.5962 -13.0543 -2.5018 0.9473
3.5378 -12.8312 -2.5018 0.9473
4.0018 -12.6941 -2.5018 0.9473
4.4606 -12.5403 -2.5018 0.9473
4.9134 -12.3699 -2.5018 0.9473
5.3598 -12.1831 -2.5018 0.9473
-9.7434 -6.7188 -2.5018 0.9528
-8.9541 -7.7395 -2.5018 0.9528
-8.3682 -8.3695 -2.5018 0.9528
-7.0670 -9.4938 -2.5018 0.9528
-6.7172 -9.7444 -2.5018 0.9528
-5.6166 -10.4177 -2.5018 0.9528
-4.4492 -10.9672 -2.5018 0.9528
-4.0476 -11.1217 -2.5018 0.9528
-3.2289 -11.3864 -2.5018 0.9528
-2.8129 -11.4962 -2.5018 0.9528
-2.3932 -11.5909 -2.5018 0.9528
-1.5448 -11.7341 -2.5018 0.9528
-1.1172 -11.7825 -2.5018 0.9528
0.1720 -11.8341 -2.5018 0.9528
1.8851 -11.6843 -2.5018 0.9528
2.7290 -11.5164 -2.5018 0.9528
3.1458 -11.4096 -2.5018 0.9528
3.5584 -11.2877 -2.5018 0.9528
3.9664 -11.1509 -2.5018 0.9528
4.3691 -10.9994 -2.5018 0.9528
-8.7632 -6.0429 -2.5018 0.9572
-8.5377 -6.3574 -2.5018 0.9572
-8.3010 -6.6636 -2.5018 0.9572
-8.0533 -6.9609 -2.5018 0.9572
-7.5263 -7.5276 -2.5018 0.9572
-7.2478 -7.7961 -2.5018 0.9572
-6.3560 -8.5388 -2.5018 0.9572
-6.0415 -8.7642 -2.5018 0.9572
-4.3575 -9.7120 -2.5018 0.9572
-4.0016 -9.8639 -2.5018 0.9572
-3.6404 -10.0029 -2.5018 0.9572
-3.2744 -10.1286 -2.5018 0.9572
-2.9041 -10.2409 -2.5018 0.9572
-2.1524 -10.4248 -2.5018 0.9572
-1.7721 -10.4962 -2.5018 0.9572
-0.6190 -10.6267 -2.5018 0.9572
-0.2323 -10.6422 -2.5018 0.9572
0.1547 -10.6436 -2.5018 0.9572
0.5415 -10.6309 -2.5018 0.9572
1.3124 -10.5635 -2.5018 0.9572
1.6955 -10.5088 -2.5018 0.9572
2.4544 -10.3579 -2.5018 0.9572
3.2005 -10.1522 -2.5018 0.9572
3.9295 -9.8929 -2.5018 0.9572
4.2865 -9.7435 -2.5018 0.9572
-7.5349 -6.0486 -2.5018 0.9609
-7.3101 -6.3185 -2.5018 0.9609
-7.0756 -6.5800 -2.5018 0.9609
-6.0474 -7.5359 -2.5018 0.9609
-5.7694 -7.7508 -2.5018 0.9609
-5.4839 -7.9553 -2.5018 0.9609
-3.9553 -8.8157 -2.5018 0.9609
-3.3044 -9.0797 -2.5018 0.9609
-2.9722 -9.1938 -2.5018 0.9609
-2.2964 -9.3855 -2.5018 0.9609
-1.9538 -9.4628 -2.5018 0.9609
-0.9121 -9.6192 -2.5018 0.9609
-0.2108 -9.6600 -2.5018 0.9609
0.1404 -9.6613 -2.5018 0.9609
0.4915 -9.6498 -2.5018 0.9609
1.1912 -9.5886 -2.5018 0.9609
2.2279 -9.4020 -2.5018 0.9609
2.5682 -9.3148 -2.5018 0.9609
2.9051 -9.2153 -2.5018 0.9609
3.8909 -8.8443 -2.5018 0.9609
-7.2752 -5.0168 -2.5018 0.9639
-6.8915 -5.5321 -2.5018 0.9639
-6.6858 -5.7789 -2.5018 0.9639
-5.5309 -6.8924 -2.5018 0.9639
-5.0156 -7.2760 -2.5018 0.9639
-4.7478 -7.4535 -2.5018 0.9639
-4.1937 -7.7787 -2.5018 0.9639
-3.9083 -7.9260 -2.5018 0.9639
-3.6176 -8.0629 -2.5018 0.9639
-2.4110 -8.5020 -2.5018 0.9639
-2.1003 -8.5840 -2.5018 0.9639
-1.7869 -8.6546 -2.5018 0.9639
-0.5139 -8.8223 -2.5018 0.9639
-0.1929 -8.8351 -2.5018 0.9639
0.1284 -8.8363 -2.5018 0.9639
0.7700 -8.8036 -2.5018 0.9639
1.0895 -8.7698 -2.5018 0.9639
1.4076 -8.7244 -2.5018 0.9639
2.3489 -8.5193 -2.5018 0.9639
3.2623 -8.2130 -2.5018 0.9639
3.5587 -8.0890 -2.5018 0.9639
-6.6960 -4.6174 -2.5018 0.9665
-6.5237 -4.8578 -2.5018 0.9665
-6.3429 -5.0917 -2.5018 0.9665
-6.1536 -5.3189 -2.5018 0.9665
-5.9562 -5.5390 -2.5018 0.9665
-5.5380 -5.9571 -2.5018 0.9665
-4.8567 -6.5245 -2.5018 0.9665
-4.6163 -6.6968 -2.5018 0.9665
-3.8599 -7.1595 -2.5018 0.9665
-3.0576 -7.5371 -2.5018 0.9665
-2.7817 -7.6433 -2.5018 0.9665
-2.5020 -7.7393 -2.5018 0.9665
-1.6447 -7.9657 -2.5018 0.9665
-1.3540 -8.0202 -2.5018 0.9665
-0.1775 -8.1318 -2.5018 0.9665
1.2955 -8.0299 -2.5018 0.9665
2.1619 -7.8411 -2.5018 0.9665
2.4455 -7.7574 -2.5018 0.9665
3.0026 -7.5592 -2.5018 0.9665
-6.1959 -4.2725 -2.5018 0.9688
-5.3214 -5.3223 -2.5018 0.9688
-5.1244 -5.5122 -2.5018 0.9688
-4.9207 -5.6948 -2.5018 0.9688
-4.7104 -5.8699 -2.5018 0.9688
-4.4939 -6.0372 -2.5018 0.9688
-4.0435 -6.3478 -2.5018 0.9688
-3.5716 -6.6247 -2.5018 0.9688
-3.3285 -6.7502 -2.5018 0.9688
-3.0809 -6.8667 -2.5018 0.9688
-2.8293 -6.9742 -2.5018 0.9688
-2.5739 -7.0724 -2.5018 0.9688
-1.2529 -7.4212 -2.5018 0.9688
-0.9823 -7.4618 -2.5018 0.9688
-0.4376 -7.5135 -2.5018 0.9688
-0.1642 -7.5244 -2.5018 0.9688
0.1094 -7.5254 -2.5018 0.9688
0.3828 -7.5165 -2.5018 0.9688
0.6558 -7.4976 -2.5018 0.9688
1.1988 -7.4301 -2.5018 0.9688
1.7354 -7.3234 -2.5018 0.9688
2.0004 -7.2555 -2.5018 0.9688
2.5223 -7.0910 -2.5018 0.9688
-5.7592 -3.9714 -2.5018 0.9707
-5.6111 -4.1781 -2.5018 0.9707
-5.4555 -4.3793 -2.5018 0.9707
-5.1229 -4.7641 -2.5018 0.9707
-4.9464 -4.9472 -2.5018 0.9707
-4.7633 -5.1237 -2.5018 0.9707
-4.5739 -5.2935 -2.5018 0.9707
-4.3785 -5.4562 -2.5018 0.9707
-3.9705 -5.7599 -2.5018 0.9707
-3.5416 -6.0331 -2.5018 0.9707
-2.3925 -6.5740 -2.5018 0.9707
-2.1520 -6.6566 -2.5018 0.9707
-1.6627 -6.7954 -2.5018 0.9707
-1.4146 -6.8513 -2.5018 0.9707
-0.6604 -6.9646 -2.5018 0.9707
0.1017 -6.9951 -2.5018 0.9707
0.3559 -6.9867 -2.5018 0.9707
1.1143 -6.9065 -2.5018 0.9707
1.3646 -6.8614 -2.5018 0.9707
1.6131 -6.8073 -2.5018 0.9707
2.3445 -6.5913 -2.5018 0.9707
-5.3743 -3.7060 -2.5018 0.9724
-5.2361 -3.8989 -2.5018 0.9724
-4.7806 -4.4457 -2.5018 0.9724
-4.6158 -4.6166 -2.5018 0.9724
-4.0858 -5.0916 -2.5018 0.9724
-3.7051 -5.3750 -2.5018 0.9724
-3.5073 -5.5061 -2.5018 0.9724
-2.8871 -5.8551 -2.5018 0.9724
-2.4541 -6.0494 -2.5018 0.9724
-0.6162 -6.4991 -2.5018 0.9724
0.3321 -6.5198 -2.5018 0.9724
0.5689 -6.5034 -2.5018 0.9724
0.8049 -6.4785 -2.5018 0.9724
1.0398 -6.4449 -2.5018 0.9724
1.5053 -6.3524 -2.5018 0.9724
1.7352 -6.2934 -2.5018 0.9724
1.9628 -6.2262 -2.5018 0.9724
2.4100 -6.0672 -2.5018 0.9724
2.6289 -5.9756 -2.5018 0.9724
-4.7668 -3.8265 -2.5018 0.9739
-4.6246 -3.9972 -2.5018 0.9739
-4.3219 -4.3226 -2.5018 0.9739
-4.1620 -4.4769 -2.5018 0.9739
-3.9965 -4.6252 -2.5018 0.9739
-3.8257 -4.7674 -2.5018 0.9739
-3.6499 -4.9033 -2.5018 0.9739
-3.2840 -5.1555 -2.5018 0.9739
-2.9008 -5.3805 -2.5018 0.9739
-2.7033 -5.4824 -2.5018 0.9739
-2.0905 -5.7441 -2.5018 0.9739
-1.4528 -5.9375 -2.5018 0.9739
-1.2360 -5.9864 -2.5018 0.9739
-1.0176 -6.0274 -2.5018 0.9739
-0.5770 -6.0853 -2.5018 0.9739
-0.3554 -6.1023 -2.5018 0.9739
0.0888 -6.1120 -2.5018 0.9739
0.5326 -6.0894 -2.5018 0.9739
0.7537 -6.0660 -2.5018 0.9739
0.9736 -6.0346 -2.5018 0.9739
1.4095 -5.9479 -2.5018 0.9739
2.2565 -5.6809 -2.5018 0.9739
-4.6041 -3.4284 -2.5018 0.9753
-4.4765 -3.5935 -2.5018 0.9753
-4.3429 -3.7538 -2.5018 0.9753
-3.5927 -4.4771 -2.5018 0.9753
-3.4276 -4.6047 -2.5018 0.9753
-2.7241 -5.0528 -2.5018 0.9753
-2.5387 -5.1485 -2.5018 0.9753
-2.3499 -5.2374 -2.5018 0.9753
-2.1579 -5.3193 -2.5018 0.9753
-1.9632 -5.3942 -2.5018 0.9753
-1.3643 -5.5759 -2.5018 0.9753
-1.1607 -5.6218 -2.5018 0.9753
-0.3338 -5.7307 -2.5018 0.9753
0.2920 -5.7329 -2.5018 0.9753
1.3236 -5.5857 -2.5018 0.9753
2.1191 -5.3349 -2.5018 0.9753
-4.4494 -3.0682 -2.5018 0.9765
-4.3349 -3.2279 -2.5018 0.9765
-4.0890 -3.5343 -2.5018 0.9765
-3.9578 -3.6806 -2.5018 0.9765
-3.6799 -3.9584 -2.5018 0.9765
-3.5336 -4.0895 -2.5018 0.9765
-3.3826 -4.2153 -2.5018 0.9765
-2.7361 -4.6610 -2.5018 0.9765
-2.5649 -4.7573 -2.5018 0.9765
-2.3902 -4.8474 -2.5018 0.9765
-1.6625 -5.1426 -2.5018 0.9765
-1.4745 -5.1997 -2.5018 0.9765
-1.2845 -5.2498 -2.5018 0.9765
-1.0929 -5.2931 -2.5018 0.9765
-0.5102 -5.3806 -2.5018 0.9765
-0.1179 -5.4034 -2.5018 0.9765
0.2749 -5.3977 -2.5018 0.9765
0.8609 -5.3357 -2.5018 0.9765
1.0542 -5.3009 -2.5018 0.9765
1.4366 -5.2103 -2.5018 0.9765
1.8113 -5.0922 -2.5018 0.9765
1.9952 -5.0230 -2.5018 0.9765
-3.6061 -3.6067 -2.5018 0.9775
-3.4726 -3.7354 -2.5018 0.9775
-3.3345 -3.8591 -2.5018 0.9775
-3.1920 -3.9778 -2.5018 0.9775
-3.0454 -4.0912 -2.5018 0.9775
-2.5819 -4.3983 -2.5018 0.9775
-2.4203 -4.4893 -2.5018 0.9775
-2.0878 -4.6533 -2.5018 0.9775
-1.9173 -4.7261 -2.5018 0.9775
-1.5689 -4.8529 -2.5018 0.9775
-1.3914 -4.9067 -2.5018 0.9775
-1.0313 -4.9948 -2.5018 0.9775
-0.8491 -5.0290 -2.5018 0.9775
-0.6657 -5.0565 -2.5018 0.9775
-0.4814 -5.0774 -2.5018 0.9775
0.2594 -5.0936 -2.5018 0.9775
0.4444 -5.0808 -2.5018 0.9775
0.9949 -5.0022 -2.5018 0.9775
1.3556 -4.9167 -2.5018 0.9775
1.5335 -4.8642 -2.5018 0.9775
2.0538 -4.6684 -2.5018 0.9775
-3.9700 -2.7376 -2.5018 0.9785
-3.8679 -2.8801 -2.5018 0.9785
-3.6484 -3.1535 -2.5018 0.9785
-3.5314 -3.2840 -2.5018 0.9785
-3.4097 -3.4102 -2.5018 0.9785
-3.0182 -3.7611 -2.5018 0.9785
-2.7370 -3.9704 -2.5018 0.9785
-2.2885 -4.2448 -2.5018 0.9785
-1.8129 -4.4687 -2.5018 0.9785
-1.4834 -4.5885 -2.5018 0.9785
-1.1461 -4.6842 -2.5018 0.9785
-0.8028 -4.7551 -2.5018 0.9785
-0.4552 -4.8008 -2.5018 0.9785
-0.1052 -4.8212 -2.5018 0.9785
0.2453 -4.8161 -2.5018 0.9785
0.4202 -4.8040 -2.5018 0.9785
0.5946 -4.7856 -2.5018 0.9785
0.7681 -4.7608 -2.5018 0.9785
1.4499 -4.5993 -2.5018 0.9785
1.6161 -4.5435 -2.5018 0.9785
1.7802 -4.4818 -2.5018 0.9785
1.9420 -4.4141 -2.5018 0.9785
-3.7603 -2.5930 -2.5018 0.9794
-3.6636 -2.7280 -2.5018 0.9794
-3.3449 -3.1106 -2.5018 0.9794
-3.2296 -3.2301 -2.5018 0.9794
-3.1100 -3.3454 -2.5018 0.9794
-2.9864 -3.4562 -2.5018 0.9794
-2.3124 -3.9392 -2.5018 0.9794
-2.1677 -4.0206 -2.5018 0.9794
-0.7604 -4.5040 -2.5018 0.9794
-0.0997 -4.5666 -2.5018 0.9794
0.2323 -4.5618 -2.5018 0.9794
0.7275 -4.5094 -2.5018 0.9794
0.8910 -4.4800 -2.5018 0.9794
1.0532 -4.4446 -2.5018 0.9794
1.8394 -4.1810 -2.5018 0.9794
-3.5673 -2.4599 -2.5018 0.9802
-3.3791 -2.7125 -2.5018 0.9802
-3.2783 -2.8336 -2.5018 0.9802
-3.1731 -2.9509 -2.5018 0.9802
-2.7120 -3.3795 -2.5018 0.9802
-2.1936 -3.7369 -2.5018 0.9802
-1.9163 -3.8864 -2.5018 0.9802
-1.7738 -3.9535 -2.5018 0.9802
-1.4819 -4.0719 -2.5018 0.9802
-1.3329 -4.1231 -2.5018 0.9802
-1.1822 -4.1688 -2.5018 0.9802
-0.7213 -4.2727 -2.5018 0.9802
-0.5656 -4.2961 -2.5018 0.9802
-0.4090 -4.3138 -2.5018 0.9802
0.0630 -4.3327 -2.5018 0.9802
0.3776 -4.3167 -2.5018 0.9802
0.6902 -4.2779 -2.5018 0.9802
0.8452 -4.2499 -2.5018 0.9802
0.9992 -4.2164 -2.5018 0.9802
1.3028 -4.1327 -2.5018 0.9802
1.4522 -4.0826 -2.5018 0.9802
