ply
format ascii 1.0
element vertex 486
property float32 x
property float32 y
property float32 z
property float32 I
end_header
-44.3230 -8.5594 7.9597 0.8325
-21.7812 -7.5483 4.0647 0.9106
-44.7034 -15.4921 7.2479 0.8258
-21.8874 -13.3547 3.9279 0.9014
-44.6801 -15.4840 6.1578 0.8263
-21.8672 -15.5871 3.4969 0.8973
-44.6787 -15.4835 5.0776 0.8268
-44.6748 -15.4821 4.0025 0.8271
-44.6710 -15.4808 2.9317 0.8274
-44.6672 -15.4795 1.8640 0.8276
-44.6633 -15.4782 0.7985 0.8277
-44.6557 -15.4755 -1.3308 0.8277
-49.2440 2.9185 -2.5018 0.8207
-49.3267 -0.6029 -2.5018 0.8207
-49.1580 -4.1211 -2.5018 0.8207
-48.9795 -5.8735 -2.5018 0.8207
-48.7386 -7.6184 -2.5018 0.8207
-47.1578 -14.4787 -2.5018 0.8207
-42.8119 -18.3543 -2.3623 0.8298
-42.5314 -20.0607 -2.3848 0.8283
-42.1840 -21.7706 -2.4074 0.8269
-41.7683 -23.4812 -2.4300 0.8254
-21.9231 -41.3690 -2.3744 0.8290
-20.2558 -41.7615 -2.3539 0.8304
-18.7192 -42.3840 -2.3498 0.8306
-16.6591 -46.4324 -2.5018 0.8207
-13.3034 -47.5028 -2.5018 0.8207
-34.0603 2.0186 -2.5018 0.8721
-34.1107 0.8013 -2.5018 0.8721
-33.5011 -6.4695 -2.5018 0.8721
-33.2488 -7.6614 -2.5018 0.8721
-32.9541 -8.8436 -2.5018 0.8721
-32.6173 -10.0144 -2.5018 0.8721
-32.2390 -11.1725 -2.5018 0.8721
-31.8196 -12.3163 -2.5018 0.8721
-31.3596 -13.4445 -2.5018 0.8721
-27.9305 -15.7019 -2.3494 0.8794
-23.2712 -22.2116 -2.3588 0.8790
-22.4343 -22.9985 -2.3557 0.8791
-21.6245 -23.8128 -2.3585 0.8790
-19.8227 -25.2348 -2.3529 0.8792
-18.3358 -27.1238 -2.4006 0.8769
-15.9768 -30.1483 -2.5018 0.8721
-14.8903 -30.6995 -2.5018 0.8721
-13.7848 -31.2116 -2.5018 0.8721
-11.5225 -32.1156 -2.5018 0.8721
-8.0226 -33.1635 -2.5018 0.8721
-26.0129 1.5417 -2.5018 0.9006
-26.0514 0.6120 -2.5018 0.9006
-26.0567 -0.3184 -2.5018 0.9006
-25.9675 -2.1770 -2.5018 0.9006
-25.7460 -4.0244 -2.5018 0.9006
-24.9109 -7.6483 -2.5018 0.9006
-24.3016 -9.4064 -2.5018 0.9006
-23.5685 -11.1165 -2.5018 0.9006
-23.1566 -11.9508 -2.5018 0.9006
-22.7149 -12.7711 -2.5018 0.9006
-22.2448 -13.5728 -2.5018 0.9006
-20.6055 -15.8269 -2.4944 0.9009
-19.2282 -17.0832 -2.4693 0.9018
-16.8186 -19.9044 -2.5018 0.9006
-15.3554 -21.0538 -2.5018 0.9006
-14.5940 -21.5886 -2.5018 0.9006
-13.8139 -22.0958 -2.5018 0.9006
-12.2020 -23.0252 -2.5018 0.9006
-10.5279 -23.8372 -2.5018 0.9006
-9.6702 -24.1979 -2.5018 0.9006
-7.9188 -24.8263 -2.5018 0.9006
-7.0275 -25.0931 -2.5018 0.9006
-21.0567 0.4947 -2.5019 0.9187
-20.9874 -1.7595 -2.5018 0.9187
-20.6790 -3.9934 -2.5018 0.9187
-20.5232 -4.7291 -2.5018 0.9187
-20.1335 -6.1815 -2.5018 0.9187
-19.6410 -7.6024 -2.5018 0.9187
-19.3571 -8.2988 -2.5018 0.9187
-19.0485 -8.9846 -2.5018 0.9187
-18.7156 -9.6589 -2.5018 0.9187
-18.3588 -10.3209 -2.5018 0.9187
-17.9787 -10.9698 -2.5018 0.9187
-16.7027 -12.8292 -2.5018 0.9187
-14.7064 -15.0762 -2.5018 0.9187
-11.1647 -17.8583 -2.5018 0.9187
-10.5200 -18.2455 -2.5018 0.9187
-9.1912 -18.9496 -2.5018 0.9187
-8.5089 -19.2657 -2.5018 0.9187
-7.1124 -19.8238 -2.5018 0.9187
-6.4002 -20.0650 -2.5018 0.9187
-17.6270 1.0447 -2.5019 0.9311
-17.6526 0.4147 -2.5019 0.9311
-17.6558 -0.2158 -2.5018 0.9312
-17.5949 -1.4750 -2.5018 0.9312
-17.2057 -3.9647 -2.5018 0.9312
-17.0532 -4.5764 -2.5018 0.9312
-16.2281 -6.9573 -2.5018 0.9312
-15.9694 -7.5322 -2.5018 0.9312
-15.6903 -8.0976 -2.5018 0.9312
-15.3912 -8.6526 -2.5018 0.9312
-15.0725 -9.1965 -2.5018 0.9312
-14.7346 -9.7288 -2.5018 0.9312
-14.0028 -10.7554 -2.5018 0.9312
-13.6099 -11.2485 -2.5018 0.9312
-11.8700 -13.0713 -2.5018 0.9312
-11.3958 -13.4867 -2.5018 0.9312
-10.9071 -13.8850 -2.5018 0.9312
-10.4044 -14.2655 -2.5018 0.9312
-9.8885 -14.6279 -2.5018 0.9312
-9.3599 -14.9716 -2.5018 0.9312
-7.1334 -16.1515 -2.5018 0.9312
-5.9627 -16.6193 -2.5018 0.9312
-4.7616 -17.0025 -2.5018 0.9312
-4.1516 -17.1616 -2.5018 0.9312
-15.1604 0.8985 -2.5019 0.9403
-15.1825 0.3567 -2.5018 0.9403
-15.1853 -0.1856 -2.5018 0.9403
-15.1331 -1.2687 -2.5018 0.9403
-14.7984 -3.4099 -2.5018 0.9403
-14.6672 -3.9361 -2.5018 0.9403
-14.5173 -4.4572 -2.5018 0.9403
-14.3489 -4.9727 -2.5018 0.9403
-14.1623 -5.4818 -2.5018 0.9403
-13.7350 -6.4784 -2.5018 0.9403
-13.4950 -6.9646 -2.5018 0.9403
-12.9636 -7.9098 -2.5018 0.9403
-12.3661 -8.8147 -2.5018 0.9403
-12.0436 -9.2505 -2.5018 0.9403
-11.3527 -10.0863 -2.5018 0.9403
-10.9854 -10.4852 -2.5018 0.9403
-9.8013 -11.5997 -2.5018 0.9403
-9.3810 -11.9422 -2.5018 0.9403
-8.9486 -12.2695 -2.5018 0.9403
-8.5049 -12.5812 -2.5018 0.9403
-8.0500 -12.8769 -2.5018 0.9403
-7.5855 -13.1560 -2.5018 0.9403
-6.6273 -13.6637 -2.5018 0.9403
-6.1353 -13.8916 -2.5018 0.9403
-13.2872 0.7875 -2.5019 0.9473
-13.2947 -0.6377 -2.5018 0.9473
-13.2635 -1.1119 -2.5018 0.9473
-13.2153 -1.5847 -2.5018 0.9473
-13.1503 -2.0555 -2.5018 0.9473
-13.0685 -2.5237 -2.5018 0.9473
-12.9701 -2.9887 -2.5018 0.9473
-12.7238 -3.9065 -2.5018 0.9473
-12.5762 -4.3583 -2.5018 0.9473
-12.2331 -5.2446 -2.5018 0.9473
-12.0381 -5.6780 -2.5018 0.9473
-11.6022 -6.5225 -2.5018 0.9473
-11.1072 -7.3338 -2.5018 0.9473
-10.5556 -8.1077 -2.5018 0.9473
-10.2594 -8.4794 -2.5018 0.9473
-9.9502 -8.8402 -2.5018 0.9473
-9.6282 -9.1898 -2.5018 0.9473
-8.9479 -9.8534 -2.5018 0.9473
-8.5904 -10.1666 -2.5018 0.9473
-8.2220 -10.4668 -2.5018 0.9473
-7.8431 -10.7537 -2.5018 0.9473
-7.0557 -11.2859 -2.5018 0.9473
-6.2324 -11.7606 -2.5018 0.9473
-5.8086 -11.9756 -2.5018 0.9473
-5.3773 -12.1754 -2.5018 0.9473
-4.4948 -12.5281 -2.5018 0.9473
-4.0447 -12.6805 -2.5018 0.9473
-3.5894 -12.8169 -2.5018 0.9473
-3.1296 -12.9368 -2.5018 0.9473
-11.8150 0.7002 -2.5018 0.9528
-11.8345 -0.1446 -2.5018 0.9528
-11.7940 -0.9887 -2.5018 0.9528
-11.7512 -1.4092 -2.5018 0.9528
-11.6934 -1.8278 -2.5018 0.9528
-11.6206 -2.2441 -2.5018 0.9528
-11.3141 -3.4737 -2.5018 0.9528
-10.7044 -5.0489 -2.5018 0.9528
-10.3168 -5.7999 -2.5018 0.9528
-10.1032 -6.1645 -2.5018 0.9528
-9.3862 -7.2094 -2.5018 0.9528
-9.1228 -7.5399 -2.5018 0.9528
-8.2643 -8.4721 -2.5018 0.9528
-7.9566 -8.7618 -2.5018 0.9528
-7.3111 -9.3072 -2.5018 0.9528
-6.6283 -9.8051 -2.5018 0.9528
-2.7828 -11.5035 -2.5018 0.9528
-10.6263 0.6298 -2.5018 0.9572
-10.6419 0.2500 -2.5018 0.9572
-10.6325 -0.5100 -2.5018 0.9572
-10.5690 -1.2674 -2.5018 0.9572
-10.4516 -2.0183 -2.5018 0.9572
-10.2810 -2.7590 -2.5018 0.9572
-10.0579 -3.4856 -2.5018 0.9572
-9.9270 -3.8425 -2.5018 0.9572
-9.0868 -5.5444 -2.5018 0.9572
-8.6680 -6.1786 -2.5018 0.9572
-8.4419 -6.4842 -2.5018 0.9572
-8.2050 -6.7814 -2.5018 0.9572
-7.9577 -7.0700 -2.5018 0.9572
-6.2725 -8.6003 -2.5018 0.9572
-5.9615 -8.8188 -2.5018 0.9572
-5.3170 -9.2217 -2.5018 0.9572
-4.9844 -9.4056 -2.5018 0.9572
-4.6454 -9.5776 -2.5018 0.9572
-4.3005 -9.7373 -2.5018 0.9572
-3.9502 -9.8846 -2.5018 0.9572
-3.5948 -10.0194 -2.5018 0.9572
-2.5029 -10.3463 -2.5018 0.9572
-9.6616 -0.1181 -2.5018 0.9609
-9.6512 -0.4629 -2.5018 0.9609
-9.5936 -1.1504 -2.5018 0.9609
-9.3321 -2.5044 -2.5018 0.9609
-9.1297 -3.1639 -2.5018 0.9609
-9.0109 -3.4878 -2.5018 0.9609
-8.8806 -3.8073 -2.5018 0.9609
-8.4226 -4.7350 -2.5018 0.9609
-8.2482 -5.0327 -2.5018 0.9609
-8.0633 -5.3240 -2.5018 0.9609
-7.6629 -5.8858 -2.5018 0.9609
-7.4478 -6.1556 -2.5018 0.9609
-6.9896 -6.6713 -2.5018 0.9609
-6.4957 -7.1531 -2.5018 0.9609
-5.9687 -7.5984 -2.5018 0.9609
-4.8263 -8.3706 -2.5018 0.9609
-3.5856 -8.9724 -2.5018 0.9609
-3.2630 -9.0947 -2.5018 0.9609
-2.2719 -9.3915 -2.5018 0.9609
-8.8218 0.5228 -2.5018 0.9639
-8.8271 -0.4234 -2.5018 0.9639
-8.8063 -0.7383 -2.5018 0.9639
-8.7743 -1.0522 -2.5018 0.9639
-8.6769 -1.6756 -2.5018 0.9639
-8.5352 -2.2905 -2.5018 0.9639
-8.4480 -2.5938 -2.5018 0.9639
-8.3500 -2.8937 -2.5018 0.9639
-8.1222 -3.4822 -2.5018 0.9639
-7.9928 -3.7699 -2.5018 0.9639
-7.8531 -4.0529 -2.5018 0.9639
-7.7033 -4.3307 -2.5018 0.9639
-7.0084 -5.3831 -2.5018 0.9639
-6.1708 -6.3260 -2.5018 0.9639
-5.9410 -6.5422 -2.5018 0.9639
-5.7037 -6.7502 -2.5018 0.9639
-5.2074 -7.1400 -2.5018 0.9639
-4.9492 -7.3213 -2.5018 0.9639
-4.6847 -7.4933 -2.5018 0.9639
-4.1380 -7.8085 -2.5018 0.9639
-3.8566 -7.9513 -2.5018 0.9639
-3.5703 -8.0839 -2.5018 0.9639
-2.3832 -8.5098 -2.5018 0.9639
-2.0779 -8.5895 -2.5018 0.9639
-8.1331 -0.0994 -2.5018 0.9665
-8.1053 -0.6795 -2.5018 0.9665
-7.9862 -1.5422 -2.5018 0.9665
-7.9260 -1.8264 -2.5018 0.9665
-7.7755 -2.3873 -2.5018 0.9665
-7.6853 -2.6634 -2.5018 0.9665
-7.3565 -3.4698 -2.5018 0.9665
-7.0901 -3.9859 -2.5018 0.9665
-6.4505 -4.9546 -2.5018 0.9665
-6.2695 -5.1817 -2.5018 0.9665
-6.0805 -5.4023 -2.5018 0.9665
-5.4681 -6.0214 -2.5018 0.9665
-5.0245 -6.3963 -2.5018 0.9665
-4.3117 -6.8968 -2.5018 0.9665
-3.8086 -7.1869 -2.5018 0.9665
-3.5496 -7.3183 -2.5018 0.9665
-3.2861 -7.4404 -2.5018 0.9665
-3.0183 -7.5529 -2.5018 0.9665
-2.7468 -7.6559 -2.5018 0.9665
-2.4717 -7.7491 -2.5018 0.9665
-7.5130 0.4453 -2.5018 0.9688
-7.5241 0.1768 -2.5018 0.9688
-7.5256 -0.0920 -2.5018 0.9688
-7.4999 -0.6287 -2.5018 0.9688
-7.4359 -1.1623 -2.5018 0.9688
-7.2690 -1.9507 -2.5018 0.9688
-7.1947 -2.2090 -2.5018 0.9688
-7.1113 -2.4644 -2.5018 0.9688
-6.8070 -3.2107 -2.5018 0.9688
-6.5606 -3.6882 -2.5018 0.9688
-6.4247 -3.9201 -2.5018 0.9688
-6.2806 -4.1469 -2.5018 0.9688
-6.1286 -4.3685 -2.5018 0.9688
-5.9687 -4.5845 -2.5018 0.9688
-5.8013 -4.7947 -2.5018 0.9688
-5.6264 -4.9988 -2.5018 0.9688
-5.4443 -5.1964 -2.5018 0.9688
-5.2553 -5.3875 -2.5018 0.9688
-5.0596 -5.5717 -2.5018 0.9688
-4.8575 -5.7488 -2.5018 0.9688
-4.6492 -5.9185 -2.5018 0.9688
-3.2845 -6.7717 -2.5018 0.9688
-3.0407 -6.8846 -2.5018 0.9688
-2.5416 -7.0841 -2.5018 0.9688
-2.2871 -7.1703 -2.5018 0.9688
-2.0296 -7.2474 -2.5018 0.9688
-6.9836 0.4139 -2.5018 0.9707
-6.9939 0.1643 -2.5018 0.9707
-6.9714 -0.5844 -2.5018 0.9707
-6.8689 -1.3265 -2.5018 0.9707
-6.8172 -1.5709 -2.5018 0.9707
-6.7567 -1.8132 -2.5018 0.9707
-6.6877 -2.0533 -2.5018 0.9707
-6.5241 -2.5253 -2.5018 0.9707
-6.3273 -2.9844 -2.5018 0.9707
-6.0982 -3.4283 -2.5018 0.9707
-5.2299 -4.6465 -2.5018 0.9707
-4.8850 -5.0078 -2.5018 0.9707
-4.7031 -5.1790 -2.5018 0.9707
-4.3215 -5.5014 -2.5018 0.9707
-4.1224 -5.6522 -2.5018 0.9707
-3.9180 -5.7958 -2.5018 0.9707
-3.7085 -5.9320 -2.5018 0.9707
-3.4944 -6.0606 -2.5018 0.9707
-3.2758 -6.1815 -2.5018 0.9707
-1.8866 -6.7366 -2.5018 0.9707
-1.6449 -6.7997 -2.5018 0.9707
-6.5168 0.3862 -2.5018 0.9724
-6.5265 0.1533 -2.5018 0.9724
-6.5208 -0.3128 -2.5018 0.9724
-6.5054 -0.5454 -2.5018 0.9724
-6.4818 -0.7773 -2.5018 0.9724
-6.2408 -1.9161 -2.5018 0.9724
-6.1684 -2.1377 -2.5018 0.9724
-6.0881 -2.3565 -2.5018 0.9724
-6.0001 -2.5724 -2.5018 0.9724
-5.9045 -2.7849 -2.5018 0.9724
-5.5728 -3.4003 -2.5018 0.9724
-5.1773 -3.9767 -2.5018 0.9724
-4.3888 -4.8329 -2.5018 0.9724
-3.6561 -5.4084 -2.5018 0.9724
-3.2609 -5.6555 -2.5018 0.9724
-2.8490 -5.8738 -2.5018 0.9724
-2.6375 -5.9718 -2.5018 0.9724
-2.2046 -6.1448 -2.5018 0.9724
-6.1019 0.3616 -2.5018 0.9739
-6.1056 -0.2929 -2.5018 0.9739
-6.0692 -0.7278 -2.5018 0.9739
-6.0393 -0.9440 -2.5018 0.9739
-5.9566 -1.3725 -2.5018 0.9739
-5.9037 -1.5843 -2.5018 0.9739
-5.7756 -2.0016 -2.5018 0.9739
-5.7005 -2.2065 -2.5018 0.9739
-5.6181 -2.4086 -2.5018 0.9739
-5.5285 -2.6076 -2.5018 0.9739
-5.4319 -2.8034 -2.5018 0.9739
-5.2180 -3.1838 -2.5018 0.9739
-5.1010 -3.3681 -2.5018 0.9739
-4.9776 -3.5480 -2.5018 0.9739
-4.7117 -3.8942 -2.5018 0.9739
-4.5696 -4.0599 -2.5018 0.9739
-4.1094 -4.5252 -2.5018 0.9739
-3.9452 -4.6691 -2.5018 0.9739
-3.6020 -4.9387 -2.5018 0.9739
-3.2404 -5.1831 -2.5018 0.9739
-3.0533 -5.2955 -2.5018 0.9739
-2.6676 -5.4999 -2.5018 0.9739
-2.4695 -5.5916 -2.5018 0.9739
-2.2683 -5.6762 -2.5018 0.9739
-1.8575 -5.8236 -2.5018 0.9739
-5.7303 0.3396 -2.5018 0.9753
-5.7399 -0.0702 -2.5018 0.9753
-5.7203 -0.4796 -2.5018 0.9753
-5.6715 -0.8865 -2.5018 0.9753
-5.4876 -1.6848 -2.5018 0.9753
-5.4239 -1.8797 -2.5018 0.9753
-5.1918 -2.4488 -2.5018 0.9753
-5.1011 -2.6326 -2.5018 0.9753
-5.0039 -2.8131 -2.5018 0.9753
-4.4247 -3.6570 -2.5018 0.9753
-4.0083 -4.1092 -2.5018 0.9753
-3.8591 -4.2496 -2.5018 0.9753
-3.7049 -4.3847 -2.5018 0.9753
-2.8673 -4.9730 -2.5018 0.9753
-2.6880 -5.0722 -2.5018 0.9753
-2.3192 -5.2511 -2.5018 0.9753
-1.9385 -5.4032 -2.5018 0.9753
-1.3497 -5.5794 -2.5018 0.9753
-5.3858 -0.4515 -2.5018 0.9765
-5.3663 -0.6435 -2.5018 0.9765
-5.2667 -1.2136 -2.5018 0.9765
-5.1667 -1.5863 -2.5018 0.9765
-4.9674 -2.1296 -2.5018 0.9765
-4.8882 -2.3056 -2.5018 0.9765
-4.6137 -2.8151 -2.5018 0.9765
-3.7739 -3.8688 -2.5018 0.9765
-3.6334 -4.0011 -2.5018 0.9765
-3.3387 -4.2502 -2.5018 0.9765
-3.1848 -4.3667 -2.5018 0.9765
-3.0269 -4.4776 -2.5018 0.9765
-2.6996 -4.6822 -2.5018 0.9765
-2.3586 -4.8629 -2.5018 0.9765
-2.1835 -4.9440 -2.5018 0.9765
-2.0056 -5.0188 -2.5018 0.9765
-1.6424 -5.1491 -2.5018 0.9765
-1.4575 -5.2045 -2.5018 0.9765
-1.2708 -5.2532 -2.5018 0.9765
-5.0912 0.3017 -2.5018 0.9775
-5.0987 0.1198 -2.5018 0.9775
-5.0943 -0.2444 -2.5018 0.9775
-5.0823 -0.4261 -2.5018 0.9775
-5.0390 -0.7876 -2.5018 0.9775
-4.5322 -2.3390 -2.5018 0.9775
-4.4458 -2.4993 -2.5018 0.9775
-4.2561 -2.8102 -2.5018 0.9775
-4.1531 -2.9603 -2.5018 0.9775
-4.0447 -3.1067 -2.5018 0.9775
-3.8127 -3.3874 -2.5018 0.9775
-3.2917 -3.8957 -2.5018 0.9775
-3.1505 -4.0107 -2.5018 0.9775
-3.0053 -4.1206 -2.5018 0.9775
-2.8563 -4.2253 -2.5018 0.9775
-2.7036 -4.3246 -2.5018 0.9775
-2.5475 -4.4184 -2.5018 0.9775
-2.3882 -4.5065 -2.5018 0.9775
-2.2258 -4.5889 -2.5018 0.9775
-2.0605 -4.6654 -2.5018 0.9775
-1.8926 -4.7360 -2.5018 0.9775
-1.5499 -4.8590 -2.5018 0.9775
-4.8139 0.2853 -2.5018 0.9785
-4.8211 0.1133 -2.5018 0.9785
-4.8169 -0.2311 -2.5018 0.9785
-4.8055 -0.4029 -2.5018 0.9785
-4.7645 -0.7447 -2.5018 0.9785
-4.6992 -1.0828 -2.5018 0.9785
-4.6100 -1.4154 -2.5018 0.9785
-4.4972 -1.7407 -2.5018 0.9785
-4.4322 -1.9002 -2.5018 0.9785
-4.3616 -2.0572 -2.5018 0.9785
-4.1166 -2.5118 -2.5018 0.9785
-4.0243 -2.6571 -2.5018 0.9785
-3.8244 -2.9375 -2.5018 0.9785
-3.7171 -3.0722 -2.5018 0.9785
-3.6051 -3.2029 -2.5018 0.9785
-3.2419 -3.5700 -2.5018 0.9785
-2.9789 -3.7923 -2.5018 0.9785
-2.7007 -3.9952 -2.5018 0.9785
-2.4088 -4.1777 -2.5018 0.9785
-2.2581 -4.2610 -2.5018 0.9785
-2.1045 -4.3389 -2.5018 0.9785
-1.9483 -4.4113 -2.5018 0.9785
-1.7896 -4.4781 -2.5018 0.9785
-1.6285 -4.5391 -2.5018 0.9785
-1.4654 -4.5943 -2.5018 0.9785
-1.3005 -4.6437 -2.5018 0.9785
-4.5664 0.1073 -2.5018 0.9794
-4.5674 -0.0558 -2.5018 0.9794
-4.5625 -0.2188 -2.5018 0.9794
-4.4849 -0.8661 -2.5018 0.9794
-4.4116 -1.1839 -2.5018 0.9794
-4.3665 -1.3407 -2.5018 0.9794
-4.3159 -1.4957 -2.5018 0.9794
-4.2597 -1.6488 -2.5018 0.9794
-4.1982 -1.7998 -2.5018 0.9794
-4.0590 -2.0948 -2.5018 0.9794
-3.9817 -2.2384 -2.5018 0.9794
-3.7195 -2.6513 -2.5018 0.9794
-3.6225 -2.7824 -2.5018 0.9794
-2.9481 -3.4890 -2.5018 0.9794
-2.8216 -3.5920 -2.5018 0.9794
-2.4214 -3.8731 -2.5018 0.9794
-1.5425 -4.2994 -2.5018 0.9794
-4.3256 0.2564 -2.5018 0.9802
-4.3320 0.1018 -2.5018 0.9802
-4.3180 -0.3620 -2.5018 0.9802
-4.3023 -0.5159 -2.5018 0.9802
-4.2812 -0.6692 -2.5018 0.9802
-4.2225 -0.9730 -2.5018 0.9802
-4.1851 -1.1231 -2.5018 0.9802
-4.1423 -1.2718 -2.5018 0.9802
-4.0943 -1.4189 -2.5018 0.9802
-4.0410 -1.5642 -2.5018 0.9802
-3.9191 -1.8485 -2.5018 0.9802
-3.8506 -1.9872 -2.5018 0.9802
-3.6990 -2.2570 -2.5018 0.9802
-3.6160 -2.3876 -2.5018 0.9802
-3.5285 -2.5152 -2.5018 0.9802
-3.4364 -2.6395 -2.5018 0.9802
-3.3400 -2.7605 -2.5018 0.9802
-3.1345 -2.9918 -2.5018 0.9802
-2.7967 -3.3098 -2.5018 0.9802
-2.6767 -3.4076 -2.5018 0.9802
-2.5534 -3.5009 -2.5018 0.9802
-2.2970 -3.6742 -2.5018 0.9802
-2.1644 -3.7539 -2.5018 0.9802
-2.0290 -3.8288 -2.5018 0.9802
-1.8910 -3.8988 -2.5018 0.9802
-1.6080 -4.0237 -2.5018 0.9802
-1.1685 -4.1726 -2.5018 0.9802
