ply
format ascii 1.0
element vertex 614
property float32 x
property float32 y
property float32 z
property float32 I
end_header
17.3615 14.5597 3.9953 0.9121
16.1745 14.5889 3.8407 0.9153
16.1006 15.6111 3.9544 0.9129
16.1626 18.1069 4.2797 0.9061
16.2361 21.0670 4.6899 0.8976
16.2785 22.7751 4.9362 0.8925
16.1494 24.4089 5.1607 0.8879
16.3787 26.8079 5.5394 0.8802
8.3153 14.7828 2.9907 0.9334
6.9800 14.8158 2.8878 0.9356
6.3445 14.8315 2.8444 0.9366
5.1255 14.8615 2.7720 0.9381
4.5374 14.8760 2.7424 0.9388
3.9611 14.8903 2.7169 0.9393
2.2846 14.9316 2.6635 0.9405
1.9723 24.6891 4.3672 0.9043
1.0991 25.1584 4.4403 0.9028
0.0759 9.9754 1.7590 0.9603
21.7324 14.5410 4.0058 0.8996
15.1193 10.9253 2.8576 0.9273
17.3615 14.5596 3.4711 0.9124
16.1001 15.6105 3.4354 0.9132
16.1298 16.8090 3.5688 0.9100
16.1282 19.4355 3.8691 0.9028
16.2822 21.1268 4.0862 0.8977
16.3249 24.6742 4.5324 0.8872
16.3778 26.8065 4.8124 0.8806
7.6360 14.7996 2.5512 0.9348
6.9800 14.8158 2.5090 0.9359
6.3445 14.8314 2.4713 0.9368
5.7271 14.8467 2.4378 0.9376
3.3946 14.9042 2.3417 0.9400
2.8363 14.9180 2.3263 0.9404
2.2846 14.9316 2.3141 0.9407
1.2650 28.9561 4.4401 0.8893
0.0758 9.9744 1.5281 0.9604
30.7779 17.5230 4.6120 0.8669
18.6498 14.5279 3.0785 0.9090
17.3615 14.5596 2.9506 0.9127
16.0995 15.6099 2.9202 0.9135
16.1292 16.8084 3.0335 0.9103
16.1613 18.1054 3.1604 0.9067
16.2815 21.1259 3.4732 0.8980
16.3240 22.8387 3.6557 0.8929
16.3241 24.6730 3.8525 0.8875
16.3770 26.8051 4.0905 0.8810
8.3153 14.7828 2.2087 0.9339
5.7271 14.8467 2.0722 0.9378
4.5374 14.8760 2.0253 0.9392
3.9610 14.8902 2.0065 0.9397
3.3946 14.9042 1.9905 0.9402
2.2846 14.9316 1.9670 0.9409
0.0758 9.9734 1.2988 0.9606
30.8432 19.0643 3.8936 0.8643
21.6038 14.4550 2.7912 0.9007
18.6498 14.5278 2.5386 0.9093
16.1744 14.5889 2.3390 0.9161
16.0989 15.6094 2.4079 0.9137
16.1286 16.8077 2.5014 0.9105
16.1956 19.5168 2.7234 0.9030
16.2340 21.0642 2.8557 0.8985
16.2071 22.6753 2.9929 0.8939
16.3762 26.8038 3.3729 0.8813
6.9799 14.8157 1.7587 0.9362
5.7271 14.8467 1.7088 0.9380
4.5374 14.8760 1.6701 0.9393
3.3946 14.9042 1.6414 0.9404
2.8363 14.9180 1.6306 0.9407
2.2846 14.9316 1.6220 0.9410
1.6928 14.5564 1.5736 0.9427
1.1661 14.5967 1.5724 0.9428
0.0758 9.9724 1.0709 0.9607
30.6787 17.4666 2.9884 0.8679
18.6498 14.5278 2.0012 0.9095
16.1280 16.8071 1.9719 0.9107
16.1950 19.5160 2.1468 0.9032
16.2755 22.7710 2.3694 0.8937
16.3226 24.6707 2.5042 0.8880
8.3153 14.7828 1.4358 0.9342
7.6359 14.7996 1.4098 0.9353
6.9548 14.7624 1.3814 0.9366
6.3445 14.8314 1.3656 0.9373
5.7271 14.8467 1.3471 0.9381
5.1255 14.8615 1.3308 0.9388
4.5374 14.8760 1.3166 0.9395
3.9468 14.8366 1.2996 0.9402
3.4057 14.9532 1.2982 0.9403
2.2846 14.9316 1.2787 0.9412
1.6303 14.0190 1.1947 0.9449
0.0758 9.9715 0.8441 0.9608
23.1978 14.3386 1.6911 0.8965
21.6038 14.4549 1.6119 0.9011
15.1010 10.9120 1.1553 0.9281
18.6498 14.5278 1.4660 0.9096
17.3614 14.5596 1.4051 0.9132
16.1274 16.8065 1.4444 0.9109
16.3745 26.8011 1.9476 0.8817
8.3153 14.7828 1.0518 0.9343
5.1254 14.8615 0.9748 0.9389
4.5374 14.8760 0.9644 0.9396
3.9846 14.9788 0.9611 0.9398
2.2846 14.9316 0.9367 0.9413
-1.2762 44.8416 2.7818 0.8355
-2.9611 45.8384 2.8484 0.8319
-6.3191 45.9644 2.8771 0.8303
-8.0344 46.0652 2.8996 0.8291
-9.7845 46.1926 2.9280 0.8276
23.4099 13.3281 1.0622 0.8978
23.2883 14.3946 1.0795 0.8962
21.7323 14.5409 1.0311 0.9006
16.0971 15.6077 0.8841 0.9142
16.2787 21.1223 1.0515 0.8987
16.3210 24.6683 1.1663 0.8883
16.3737 26.7997 1.2384 0.8819
7.0215 14.9039 0.6496 0.9362
6.3445 14.8314 0.6361 0.9375
5.7271 14.8466 0.6275 0.9383
3.9846 14.9788 0.6112 0.9398
2.2846 14.9316 0.5956 0.9413
0.5710 13.0702 0.5159 0.9490
0.0758 9.9695 0.3931 0.9609
-1.1138 39.1338 1.5437 0.8549
-2.5832 39.9894 1.5801 0.8518
-4.0375 40.0126 1.5858 0.8513
-5.5057 40.0479 1.5940 0.8506
30.6760 17.4650 0.5963 0.8683
23.2883 14.3946 0.4625 0.8963
21.7323 14.5409 0.4417 0.9007
18.6497 14.5278 0.3993 0.9098
16.1744 14.5889 0.3679 0.9165
16.0966 15.6071 0.3787 0.9142
16.1261 16.8052 0.3934 0.9110
16.1582 18.1019 0.4099 0.9075
16.1176 24.3608 0.4934 0.8897
7.6359 14.7995 0.2813 0.9355
5.7271 14.8466 0.2688 0.9383
4.5374 14.8760 0.2627 0.9397
2.8363 14.9180 0.2565 0.9411
2.2846 14.9316 0.2552 0.9414
-0.9882 34.7219 0.5868 0.8703
-3.5799 35.4776 0.6023 0.8671
-4.8788 35.4879 0.6051 0.8665
-6.1921 35.5023 0.6088 0.8657
-7.5240 35.5209 0.6133 0.8648
24.9530 14.2067 -0.1617 0.8915
15.0874 10.9022 -0.1048 0.9282
17.3614 14.5596 -0.1276 0.9134
16.1924 19.5129 -0.1428 0.9035
16.2305 21.0597 -0.1497 0.8991
16.1163 24.3590 -0.1644 0.8897
8.3153 14.7828 -0.0955 0.9344
7.6359 14.7995 -0.0938 0.9356
6.9548 14.7623 -0.0919 0.9368
5.1254 14.8615 -0.0885 0.9391
3.3824 14.8505 -0.0858 0.9409
2.2846 14.9316 -0.0850 0.9414
1.7209 14.7979 -0.0839 0.9421
-0.8816 30.9775 -0.1745 0.8834
-1.9998 30.9578 -0.1747 0.8833
-3.2019 31.7323 -0.1796 0.8802
-5.5319 31.7172 -0.1813 0.8792
-6.7163 31.7076 -0.1825 0.8784
30.7716 17.5194 -0.9971 0.8679
21.6037 14.4549 -0.7319 0.9012
18.6497 14.5278 -0.6657 0.9097
17.3614 14.5595 -0.6380 0.9133
16.0954 15.6060 -0.6313 0.9142
16.1569 18.1005 -0.6832 0.9075
16.2719 22.7659 -0.7879 0.8941
6.3445 14.8314 -0.4542 0.9375
5.7271 14.8466 -0.4481 0.9383
3.9610 14.8902 -0.4339 0.9402
3.3946 14.9042 -0.4304 0.9407
2.8363 14.9179 -0.4276 0.9410
2.2846 14.9315 -0.4253 0.9413
1.7358 14.9263 -0.4231 0.9416
0.0758 9.9666 -0.2806 0.9609
-1.7774 27.5149 -0.7764 0.8955
-2.8540 28.2838 -0.8005 0.8925
-3.8855 28.2631 -0.8033 0.8921
-4.9249 28.2369 -0.8071 0.8916
-5.9744 28.2051 -0.8118 0.8910
24.2709 13.8184 -1.4164 0.8942
21.6036 14.4548 -1.3182 0.9011
15.0784 10.8957 -0.9434 0.9282
17.3614 14.5595 -1.1491 0.9132
16.0948 15.6054 -1.1369 0.9141
16.1563 18.0998 -1.2304 0.9074
16.2291 21.0579 -1.3483 0.8990
16.1138 24.3552 -1.4810 0.8896
14.8918 24.3742 -1.4486 0.8919
8.3152 14.7827 -0.8602 0.9343
7.6359 14.7995 -0.8446 0.9355
5.7271 14.8466 -0.8070 0.9383
5.1254 14.8614 -0.7972 0.9390
3.9610 14.8902 -0.7814 0.9402
2.8363 14.9179 -0.7701 0.9410
1.7358 14.9263 -0.7621 0.9416
0.0758 9.9657 -0.5054 0.9609
-0.6945 24.4021 -1.2380 0.9069
-3.4541 25.1247 -1.2862 0.9034
-5.3031 25.0359 -1.2978 0.9026
23.2118 14.3473 -2.0008 0.8963
15.0738 10.8924 -1.3636 0.9281
18.6497 14.5277 -1.7334 0.9095
17.3613 14.5595 -1.6613 0.9131
16.1237 16.8027 -1.7075 0.9108
16.1904 19.5105 -1.8590 0.9033
16.2284 21.0570 -1.9493 0.8989
16.2704 22.7639 -2.0516 0.8938
16.1126 24.3533 -2.1411 0.8895
6.9799 14.8157 -1.2008 0.9364
6.3445 14.8314 -1.1828 0.9373
4.5374 14.8759 -1.1403 0.9395
2.8363 14.9179 -1.1134 0.9409
0.6547 14.9867 -1.0999 0.9416
0.0758 9.9647 -0.7306 0.9608
-0.6147 21.5973 -1.5842 0.9170
-2.1723 21.5287 -1.5865 0.9169
-3.0665 22.3058 -1.6509 0.9137
-3.8817 22.2556 -1.6565 0.9134
19.4366 13.0049 -2.2452 0.9103
18.4399 14.3644 -2.2441 0.9103
17.3613 14.5595 -2.1753 0.9130
16.1231 16.8021 -2.2356 0.9107
15.5431 17.4128 -2.2408 0.9105
14.2388 18.4755 -2.2394 0.9105
12.1484 19.8840 -2.2370 0.9106
5.7271 14.8466 -1.5277 0.9381
5.1254 14.8614 -1.5092 0.9388
2.8363 14.9179 -1.4578 0.9408
1.6720 14.3777 -1.3896 0.9435
1.1495 14.3896 -1.3859 0.9436
0.6292 14.4014 -1.3839 0.9437
0.0758 9.9637 -0.9566 0.9608
-0.5442 19.1227 -1.8366 0.9260
-1.2334 19.0932 -1.8369 0.9260
-1.9223 19.0507 -1.8383 0.9259
-2.7224 19.8029 -1.9191 0.9228
-4.1675 19.6749 -1.9308 0.9224
17.3262 9.8644 -2.3683 0.9228
16.5047 10.2016 -2.3048 0.9248
15.6797 10.4912 -2.2410 0.9268
14.8101 10.7018 -2.1705 0.9290
14.4466 12.1152 -2.2396 0.9269
9.8071 16.0518 -2.2344 0.9270
8.3152 14.7827 -2.0147 0.9340
7.6359 14.7995 -1.9782 0.9351
6.9799 14.8157 -1.9454 0.9362
6.3445 14.8313 -1.9162 0.9371
5.7271 14.8466 -1.8902 0.9379
5.1254 14.8614 -1.8674 0.9386
3.3946 14.9041 -1.8157 0.9403
2.8363 14.9179 -1.8038 0.9407
2.2846 14.9315 -1.7943 0.9410
1.1268 14.1052 -1.6808 0.9446
-1.0942 16.9396 -2.0164 0.9339
-1.7051 16.8983 -2.0175 0.9339
-2.3158 16.8452 -2.0198 0.9338
-3.0610 17.5505 -2.1162 0.9308
13.8693 9.2798 -2.3644 0.9348
13.1416 10.2371 -2.3603 0.9349
12.2187 10.2468 -2.2595 0.9376
11.7214 10.5724 -2.2366 0.9382
10.5052 11.7689 -2.2352 0.9383
10.0720 12.1374 -2.2347 0.9383
8.2153 13.4465 -2.2327 0.9383
7.7233 13.7305 -2.2321 0.9383
6.7106 14.2441 -2.2310 0.9384
6.1912 14.4729 -2.2304 0.9384
5.6639 14.6829 -2.2298 0.9384
3.9610 14.8901 -2.1831 0.9397
2.2846 14.9315 -2.1403 0.9408
1.6103 13.8473 -1.9752 0.9452
1.1071 13.8588 -1.9699 0.9454
0.6059 13.8702 -1.9671 0.9455
-0.4296 15.0975 -2.1400 0.9408
-1.5163 15.0276 -2.1401 0.9408
-3.2857 15.5119 -2.2466 0.9380
13.2733 7.5569 -2.5162 0.9400
12.9906 8.0295 -2.5159 0.9400
10.6416 9.5984 -2.3608 0.9436
9.1753 10.2790 -2.2698 0.9457
8.2733 10.7350 -2.2327 0.9465
7.4754 11.2986 -2.2318 0.9466
7.0618 11.5584 -2.2314 0.9466
5.3226 12.4425 -2.2294 0.9466
4.8695 12.6235 -2.2289 0.9466
4.4103 12.7879 -2.2284 0.9466
2.5242 13.2764 -2.2263 0.9467
2.0435 13.3556 -2.2258 0.9467
1.5603 13.4173 -2.2253 0.9467
1.0754 13.4616 -2.2247 0.9467
0.5892 13.4883 -2.2242 0.9467
0.0757 9.9607 -1.6410 0.9604
-0.3840 13.4928 -2.2237 0.9467
-0.8699 13.4666 -2.2231 0.9468
-1.8385 13.3732 -2.2238 0.9467
-2.3210 13.3073 -2.2253 0.9467
11.6249 6.6185 -2.5143 0.9470
11.3775 7.0325 -2.5141 0.9470
11.1153 7.4372 -2.5138 0.9470
10.5179 8.1933 -2.5060 0.9472
9.3210 8.4073 -2.3594 0.9502
8.6885 9.0543 -2.3587 0.9502
8.0110 9.6537 -2.3579 0.9502
7.6565 9.9346 -2.3575 0.9502
6.8173 10.3039 -2.3222 0.9510
6.2987 10.3094 -2.2708 0.9520
5.8165 10.3405 -2.2300 0.9529
5.4390 10.5415 -2.2296 0.9529
4.6635 10.9017 -2.2287 0.9529
3.8644 11.2049 -2.2278 0.9529
3.4572 11.3346 -2.2274 0.9529
3.0458 11.4495 -2.2269 0.9529
2.6305 11.5495 -2.2264 0.9529
2.2120 11.6344 -2.2260 0.9529
1.7908 11.7041 -2.2255 0.9530
1.3674 11.7585 -2.2250 0.9530
0.0396 5.2109 -0.9795 0.9790
-0.7153 5.2029 -0.9871 0.9789
-2.0902 11.9843 -2.2866 0.9517
-2.6581 12.5491 -2.4111 0.9491
10.3310 5.8818 -2.5129 0.9526
9.3745 7.3025 -2.5118 0.9526
8.8218 7.9570 -2.5112 0.9526
7.8796 8.2113 -2.4056 0.9545
7.1204 8.5805 -2.3569 0.9554
6.1497 9.2948 -2.3558 0.9555
5.4622 9.7106 -2.3551 0.9555
5.1077 9.8995 -2.3547 0.9555
2.7524 10.3468 -2.2632 0.9572
2.3575 10.3510 -2.2440 0.9575
-0.4681 4.6390 -0.9856 0.9811
-0.6395 4.6517 -0.9925 0.9810
-1.0096 4.7664 -1.0299 0.9803
9.2874 5.2877 -2.5117 0.9570
9.0900 5.6185 -2.5115 0.9570
8.8807 5.9420 -2.5113 0.9570
8.4278 6.5651 -2.5108 0.9571
8.1848 6.8639 -2.5105 0.9571
7.9312 7.1537 -2.5102 0.9571
7.6672 7.4341 -2.5099 0.9571
7.3934 7.7047 -2.5096 0.9571
7.1099 7.9652 -2.5093 0.9571
6.7991 8.1932 -2.5022 0.9572
5.8730 8.2168 -2.3737 0.9593
5.5294 8.3573 -2.3551 0.9597
4.9114 8.7314 -2.3545 0.9597
4.5928 8.9015 -2.3541 0.9597
4.2683 9.0599 -2.3537 0.9597
3.9383 9.2064 -2.3534 0.9597
3.2637 9.4632 -2.3526 0.9597
2.9200 9.5731 -2.3522 0.9597
0.8106 5.2978 -1.2596 0.9782
0.5572 4.7914 -1.1337 0.9804
0.1948 4.4596 -1.0491 0.9818
-0.1268 4.4571 -1.0479 0.9818
-0.7769 4.4543 -1.0627 0.9816
-0.9472 4.4720 -1.0743 0.9814
8.4271 4.7979 -2.5108 0.9607
8.2480 5.0981 -2.5106 0.9607
7.8579 5.6782 -2.5101 0.9607
7.6474 5.9572 -2.5099 0.9607
7.1969 6.4914 -2.5094 0.9607
6.9575 6.7459 -2.5091 0.9607
6.7090 6.9915 -2.5089 0.9608
6.4519 7.2280 -2.5086 0.9608
5.9129 7.6722 -2.5080 0.9608
5.6318 7.8794 -2.5077 0.9608
5.3434 8.0763 -2.5073 0.9608
4.6152 8.2048 -2.4374 0.9619
4.2375 8.2129 -2.3928 0.9625
3.2702 8.4775 -2.3526 0.9632
2.6502 8.6885 -2.3519 0.9632
1.2643 5.5511 -1.4741 0.9768
0.9845 5.1781 -1.3647 0.9785
0.3527 4.4151 -1.1468 0.9819
0.1931 4.4202 -1.1456 0.9819
0.0336 4.4171 -1.1437 0.9819
-0.1255 4.4106 -1.1424 0.9819
-0.4459 4.4193 -1.1501 0.9818
-0.6080 4.4225 -1.1558 0.9817
-0.7711 4.4210 -1.1619 0.9816
-0.9354 4.4160 -1.1688 0.9815
7.5413 4.6613 -2.5098 0.9638
6.9923 5.4469 -2.5092 0.9638
6.5805 5.9354 -2.5087 0.9638
6.3616 6.1682 -2.5085 0.9638
6.1346 6.3929 -2.5082 0.9638
5.8995 6.6091 -2.5080 0.9638
5.6568 6.8168 -2.5077 0.9638
5.4068 7.0155 -2.5074 0.9638
4.6162 7.5555 -2.5065 0.9639
4.0588 7.8665 -2.5059 0.9639
1.3684 5.1442 -1.5069 0.9781
1.1317 4.9688 -1.4427 0.9790
0.8471 4.4554 -1.2839 0.9813
0.0333 4.3765 -1.2390 0.9820
-0.1243 4.3694 -1.2374 0.9820
-0.2818 4.3633 -1.2378 0.9820
-0.4414 4.3743 -1.2446 0.9819
-0.9252 4.3678 -1.2639 0.9816
7.0897 4.0364 -2.5093 0.9664
6.9391 4.2891 -2.5091 0.9664
6.7795 4.5361 -2.5089 0.9664
5.6450 5.8826 -2.5077 0.9665
5.4287 6.0817 -2.5074 0.9665
4.4964 6.7960 -2.5064 0.9665
4.2480 6.9529 -2.5061 0.9665
3.9942 7.1007 -2.5058 0.9665
3.7352 7.2393 -2.5055 0.9665
3.4714 7.3683 -2.5053 0.9665
3.2031 7.4878 -2.5050 0.9665
1.7049 4.9434 -1.6084 0.9784
1.4510 4.7570 -1.5297 0.9794
1.2234 4.5989 -1.4637 0.9803
0.8221 4.3240 -1.3538 0.9817
0.5024 4.3200 -1.3377 0.9820
0.1894 4.3346 -1.3345 0.9820
0.0330 4.3349 -1.3334 0.9820
-0.1232 4.3286 -1.3319 0.9820
6.5586 3.7341 -2.5087 0.9687
5.9523 4.6367 -2.5080 0.9687
5.7808 4.8479 -2.5078 0.9687
5.6019 5.0527 -2.5076 0.9687
5.4157 5.2509 -2.5074 0.9687
5.2224 5.4423 -2.5072 0.9687
4.3843 6.1341 -2.5063 0.9687
3.6954 6.5695 -2.5055 0.9687
3.4558 6.6977 -2.5052 0.9687
1.5254 4.4230 -1.5552 0.9805
1.3290 4.3570 -1.5142 0.9810
1.1494 4.3206 -1.4861 0.9813
0.9759 4.2847 -1.4607 0.9816
0.4981 4.2829 -1.4333 0.9820
0.1874 4.2882 -1.4268 0.9821
6.0952 3.4702 -2.5082 0.9706
5.9658 3.6875 -2.5080 0.9706
5.8286 3.8999 -2.5079 0.9706
5.6839 4.1072 -2.5077 0.9706
5.3725 4.5054 -2.5074 0.9707
5.0331 4.8800 -2.5070 0.9707
4.4758 5.3935 -2.5064 0.9707
3.8663 5.8436 -2.5057 0.9707
3.6528 5.9786 -2.5055 0.9707
2.9851 6.3361 -2.5047 0.9707
2.7545 6.4390 -2.5045 0.9707
2.5203 6.5334 -2.5042 0.9707
1.4809 4.2940 -1.6243 0.9809
0.9696 4.2568 -1.5613 0.9816
0.6521 4.2621 -1.5419 0.9819
-0.1212 4.2583 -1.5234 0.9821
-0.4295 4.2565 -1.5299 0.9820
-0.5850 4.2551 -1.5360 0.9819
-0.7415 4.2513 -1.5433 0.9818
5.6868 3.2377 -2.5077 0.9724
5.5661 3.4404 -2.5076 0.9724
5.4381 3.6386 -2.5074 0.9724
4.3551 4.8790 -2.5062 0.9724
3.8020 5.3193 -2.5056 0.9724
3.6075 5.4525 -2.5054 0.9724
3.4083 5.5785 -2.5052 0.9724
2.9969 5.8085 -2.5047 0.9724
2.7854 5.9122 -2.5045 0.9724
1.7213 4.4623 -1.8329 0.9797
1.1276 4.2387 -1.6809 0.9814
0.9678 4.2490 -1.6700 0.9815
0.6509 4.2543 -1.6493 0.9817
0.4946 4.2531 -1.6408 0.9818
0.3397 4.2523 -1.6348 0.9819
0.1858 4.2515 -1.6308 0.9819
-0.1209 4.2493 -1.6291 0.9820
-0.5838 4.2465 -1.6426 0.9818
-0.7399 4.2425 -1.6504 0.9817
-0.8974 4.2368 -1.6597 0.9816
5.2109 3.2209 -2.5072 0.9739
5.0911 3.4064 -2.5071 0.9739
4.8319 3.7640 -2.5068 0.9739
4.6928 3.9354 -2.5066 0.9739
4.3965 4.2628 -2.5063 0.9739
4.2397 4.4182 -2.5061 0.9739
4.0773 4.5678 -2.5059 0.9739
3.9097 4.7115 -2.5057 0.9739
3.7371 4.8490 -2.5055 0.9739
3.3775 5.1048 -2.5051 0.9739
3.1910 5.2228 -2.5049 0.9739
3.0004 5.3340 -2.5047 0.9739
2.8059 5.4382 -2.5045 0.9739
2.6078 5.5353 -2.5043 0.9739
1.2897 4.2284 -1.8093 0.9811
1.1241 4.2255 -1.7895 0.9813
0.6497 4.2463 -1.7581 0.9816
-0.4277 4.2386 -1.7436 0.9818
4.8929 3.0243 -2.5068 0.9752
4.7804 3.1985 -2.5067 0.9752
4.6618 3.3686 -2.5066 0.9752
4.5371 3.5343 -2.5064 0.9752
4.2701 3.8515 -2.5061 0.9752
4.1282 4.0027 -2.5060 0.9752
3.6712 4.4241 -2.5055 0.9752
2.9964 4.9043 -2.5047 0.9752
2.8174 5.0087 -2.5045 0.9752
2.6348 5.1066 -2.5043 0.9752
2.4488 5.1979 -2.5041 0.9752
2.2597 5.2823 -2.5039 0.9752
1.4386 4.1712 -1.9230 0.9809
1.1179 4.2022 -1.8951 0.9812
0.9646 4.2350 -1.8929 0.9812
0.4928 4.2376 -1.8593 0.9816
0.0322 4.2367 -1.8465 0.9817
-0.1206 4.2366 -1.8471 0.9817
-0.2737 4.2366 -1.8502 0.9816
-0.5825 4.2372 -1.8640 0.9815
-0.8957 4.2287 -1.8838 0.9813
4.7060 2.6793 -2.5066 0.9764
4.6062 2.8471 -2.5065 0.9764
4.5003 3.0111 -2.5064 0.9764
4.2712 3.3272 -2.5061 0.9764
4.0200 3.6259 -2.5059 0.9764
3.8864 3.7682 -2.5057 0.9764
3.7478 3.9056 -2.5056 0.9764
3.6043 4.0379 -2.5054 0.9764
2.8209 4.6172 -2.5045 0.9764
2.6525 4.7155 -2.5043 0.9764
2.4806 4.8077 -2.5041 0.9764
2.3055 4.8936 -2.5040 0.9764
2.1274 4.9731 -2.5038 0.9764
1.6439 4.2615 -2.1143 0.9801
1.2734 4.1748 -2.0203 0.9809
0.9620 4.2236 -2.0051 0.9811
0.8071 4.2448 -2.0000 0.9811
0.4929 4.2387 -1.9753 0.9814
0.1852 4.2380 -1.9636 0.9815
0.0322 4.2381 -1.9618 0.9815
-0.1206 4.2381 -1.9625 0.9815
-0.4277 4.2383 -1.9718 0.9814
4.2463 2.8411 -2.5061 0.9775
4.1409 2.9922 -2.5060 0.9775
4.0301 3.1394 -2.5059 0.9775
3.9142 3.2825 -2.5057 0.9775
3.7931 3.4212 -2.5056 0.9775
3.4010 3.8101 -2.5052 0.9775
3.2612 3.9300 -2.5050 0.9775
2.9692 4.1542 -2.5047 0.9775
2.5029 4.4495 -2.5042 0.9775
2.1754 4.6176 -2.5038 0.9775
0.9597 4.2137 -2.1199 0.9809
0.8075 4.2471 -2.1206 0.9809
0.6486 4.2393 -2.1037 0.9811
0.4930 4.2394 -2.0935 0.9812
0.3387 4.2393 -2.0861 0.9812
0.1852 4.2391 -2.0813 0.9813
0.0322 4.2386 -2.0792 0.9813
-0.2737 4.2376 -2.0830 0.9813
-0.4275 4.2371 -2.0890 0.9812
-0.5824 4.2365 -2.0976 0.9811
4.1980 2.3901 -2.5061 0.9785
4.1090 2.5398 -2.5060 0.9785
4.0146 2.6861 -2.5059 0.9785
3.8103 2.9681 -2.5056 0.9785
3.3434 3.4842 -2.5051 0.9785
3.2155 3.6023 -2.5050 0.9785
3.0833 3.7156 -2.5048 0.9785
2.9472 3.8241 -2.5047 0.9785
2.8073 3.9276 -2.5045 0.9785
2.5167 4.1191 -2.5042 0.9785
1.8980 4.4369 -2.5035 0.9785
1.4395 4.1739 -2.2905 0.9803
1.2739 4.1765 -2.2652 0.9805
1.1105 4.1746 -2.2410 0.9807
-0.4271 4.2333 -2.2073 0.9810
-0.5819 4.2328 -2.2165 0.9809
-0.7384 4.2336 -2.2295 0.9808
-0.9987 4.7151 -2.5004 0.9785
3.8916 2.4054 -2.5057 0.9794
3.7079 2.6793 -2.5055 0.9794
3.1666 3.2999 -2.5049 0.9794
2.6588 3.7200 -2.5043 0.9794
2.3836 3.9014 -2.5040 0.9794
2.0961 4.0625 -2.5037 0.9794
1.9481 4.1351 -2.5036 0.9794
1.7977 4.2024 -2.5034 0.9794
1.0147 4.4551 -2.5025 0.9794
0.8534 4.4884 -2.5024 0.9794
0.5277 4.5376 -2.5020 0.9794
0.3638 4.5534 -2.5018 0.9794
-0.2943 4.5571 -2.5011 0.9794
-0.6218 4.5234 -2.5008 0.9794
-0.9460 4.4662 -2.5004 0.9794
3.7714 2.1472 -2.5056 0.9802
3.5172 2.5415 -2.5053 0.9802
3.3246 2.7881 -2.5051 0.9802
3.1148 3.0201 -2.5049 0.9802
2.8889 3.2363 -2.5046 0.9802
2.7702 3.3382 -2.5045 0.9802
2.5222 3.5287 -2.5042 0.9802
2.1261 3.7797 -2.5038 0.9802
1.9883 3.8537 -2.5036 0.9802
1.8480 3.9226 -2.5034 0.9802
1.7053 3.9864 -2.5033 0.9802
1.4135 4.0984 -2.5030 0.9802
1.1144 4.1890 -2.5026 0.9802
0.8095 4.2579 -2.5023 0.9802
0.6555 4.2840 -2.5022 0.9802
0.5006 4.3046 -2.5020 0.9802
0.3451 4.3195 -2.5018 0.9802
0.1891 4.3289 -2.5017 0.9802
-0.1232 4.3307 -2.5013 0.9802
-0.2792 4.3231 -2.5011 0.9802
-0.4348 4.3100 -2.5010 0.9802
-0.5899 4.2912 -2.5008 0.9802
-0.7442 4.2668 -2.5006 0.9802
-0.8974 4.2370 -2.5005 0.9802
