ply
format ascii 1.0
element vertex 561
property float32 x
property float32 y
property float32 z
property float32 I
end_header
34.5676 10.4381 6.3670 0.8636
22.1402 14.4300 4.6599 0.8982
34.5658 10.4376 5.5314 0.8641
30.0719 15.3124 5.1697 0.8724
34.5603 10.4359 4.7012 0.8645
36.6574 13.9800 5.1089 0.8536
33.4790 14.1503 4.7331 0.8636
30.5710 14.2220 4.3907 0.8728
30.1851 16.7467 4.4951 0.8700
22.1401 14.4300 3.4414 0.8989
34.5547 10.4342 3.8760 0.8648
36.8835 14.0663 4.2389 0.8532
30.2463 15.4012 3.6447 0.8724
30.2493 18.2173 3.7918 0.8676
22.1401 14.4299 2.8378 0.8991
34.5492 10.4326 3.0551 0.8651
30.5709 14.2219 2.8542 0.8734
30.2448 15.4005 2.8731 0.8726
22.1400 14.4299 2.2371 0.8993
36.8833 14.0662 2.4478 0.8537
33.4788 14.1502 2.2539 0.8644
30.5708 14.2219 2.0908 0.8736
30.2778 16.7981 2.1471 0.8704
23.7857 14.3247 1.7218 0.8947
22.1400 14.4299 1.6388 0.8995
36.8831 14.0661 1.5565 0.8538
30.1445 15.3494 1.3339 0.8734
30.3123 18.2553 1.3953 0.8679
22.1400 14.4298 1.0420 0.8996
33.4786 14.1501 0.6140 0.8647
22.6776 12.5815 0.4381 0.9015
30.2430 18.2136 0.5964 0.8683
34.5274 10.4260 -0.2031 0.8657
33.4785 14.1501 -0.2046 0.8647
24.4831 14.7447 -0.1609 0.8920
39.0940 13.3383 -1.1631 0.8476
22.7094 12.5992 -0.7313 0.9013
22.7395 13.6946 -0.7474 0.8992
28.9060 -37.5891 -2.4048 0.8270
30.2622 -36.5847 -2.4078 0.8268
31.5824 -35.5303 -2.4108 0.8266
32.8647 -34.4271 -2.4138 0.8264
34.1075 -33.2766 -2.4166 0.8263
37.5795 -29.5551 -2.4246 0.8257
40.5488 -25.4109 -2.4268 0.8256
34.3375 10.3686 -1.8191 0.8662
37.9231 12.9387 -2.0321 0.8517
33.4784 14.1500 -1.8433 0.8645
30.5704 14.2217 -1.7099 0.8737
22.7082 12.5985 -1.3170 0.9012
22.7701 13.7131 -1.3480 0.8990
22.1398 14.4298 -1.3402 0.8996
18.9052 -26.4808 -2.3857 0.8777
21.6642 -24.3723 -2.3910 0.8774
22.5354 -23.6067 -2.3930 0.8773
23.3788 -22.8093 -2.3949 0.8772
24.9782 -21.1235 -2.3986 0.8770
26.4533 -19.3237 -2.4020 0.8769
27.1414 -18.3836 -2.4036 0.8768
27.7638 -17.3988 -2.4024 0.8769
28.3760 -16.4079 -2.4034 0.8768
28.9546 -15.3962 -2.4045 0.8768
31.2029 -15.1949 -2.5447 0.8701
32.4424 -13.0363 -2.5636 0.8692
32.8964 -11.8793 -2.5645 0.8691
34.0021 -8.3175 -2.5666 0.8690
34.2834 -7.1054 -2.5672 0.8690
34.5204 -5.8837 -2.5676 0.8690
34.7127 -4.6539 -2.5680 0.8690
34.8600 -3.4177 -2.5683 0.8689
34.9621 -2.1769 -2.5685 0.8689
35.0302 0.3119 -2.5686 0.8689
34.9166 2.7990 -2.5684 0.8689
34.6219 5.2708 -2.5678 0.8690
34.4072 6.4968 -2.5674 0.8690
31.4563 9.4986 -2.4093 0.8765
28.1629 13.1017 -2.2775 0.8829
27.6680 14.0884 -2.2765 0.8829
22.7071 12.5979 -1.9040 0.9011
22.7115 13.6778 -1.9439 0.8991
22.1397 14.4297 -1.9377 0.8994
17.7662 -17.3333 -2.3829 0.9051
21.9342 -14.8566 -2.5434 0.8990
24.2577 -10.7639 -2.5478 0.8988
24.6319 -9.8978 -2.5486 0.8988
25.2852 -8.1273 -2.5498 0.8988
25.5634 -7.2251 -2.5504 0.8988
25.8088 -6.3133 -2.5508 0.8987
26.0210 -5.3930 -2.5512 0.8987
26.1998 -4.4655 -2.5516 0.8987
26.4559 -2.5938 -2.5521 0.8987
26.5329 -1.6521 -2.5522 0.8987
26.5842 0.2367 -2.5523 0.8987
26.4985 2.1242 -2.5522 0.8987
26.4044 3.0643 -2.5520 0.8987
26.2763 4.0003 -2.5517 0.8987
26.1144 4.9309 -2.5514 0.8987
25.9188 5.8550 -2.5510 0.8987
25.6899 6.7712 -2.5506 0.8987
24.0681 8.2117 -2.4414 0.9029
22.9586 9.7037 -2.3929 0.9047
21.7979 10.1406 -2.3081 0.9079
20.6114 11.4352 -2.2629 0.9096
20.1846 12.1560 -2.2621 0.9097
11.5980 -16.2455 -2.3710 0.9227
12.1737 -15.8304 -2.3722 0.9227
13.5219 -15.2122 -2.4177 0.9213
14.5083 -15.1981 -2.4958 0.9188
15.2480 -14.8765 -2.5305 0.9178
15.7733 -14.3310 -2.5315 0.9177
16.2789 -13.7667 -2.5325 0.9177
17.2280 -12.5847 -2.5343 0.9176
19.5355 -8.6685 -2.5387 0.9175
19.8357 -7.9706 -2.5393 0.9175
21.2097 -2.8436 -2.5420 0.9174
21.3606 -1.3300 -2.5423 0.9174
21.4018 0.1905 -2.5423 0.9174
21.3811 0.9509 -2.5423 0.9174
21.3330 1.7101 -2.5422 0.9174
21.2576 2.4670 -2.5421 0.9174
21.0922 3.2111 -2.5343 0.9176
21.0249 3.9699 -2.5416 0.9174
20.6845 5.4519 -2.5409 0.9174
20.2382 6.9050 -2.5401 0.9175
19.3982 8.1989 -2.5016 0.9187
17.8782 9.1035 -2.3831 0.9224
17.5385 9.7304 -2.3825 0.9224
16.9236 10.1921 -2.3467 0.9235
10.3383 -14.4809 -2.5210 0.9306
10.8505 -14.1099 -2.5220 0.9306
11.8342 -13.3136 -2.5239 0.9306
13.1977 -11.9909 -2.5265 0.9305
14.4123 -10.5279 -2.5289 0.9304
15.7750 -8.3882 -2.5315 0.9304
16.0667 -7.8240 -2.5321 0.9303
16.2896 -7.2282 -2.5251 0.9305
16.5884 -6.6657 -2.5331 0.9303
17.3759 -4.2504 -2.5346 0.9303
17.5179 -3.6307 -2.5348 0.9303
17.8603 -1.1121 -2.5355 0.9303
17.6887 2.6929 -2.5352 0.9303
17.5804 3.3195 -2.5350 0.9303
17.4496 3.9418 -2.5347 0.9303
17.2964 4.5589 -2.5344 0.9303
16.9242 5.7742 -2.5337 0.9303
16.7055 6.3710 -2.5333 0.9303
16.2046 7.5386 -2.5323 0.9303
14.3674 8.6526 -2.3764 0.9345
14.0472 9.1554 -2.3758 0.9345
10.1654 -11.4362 -2.5207 0.9399
10.5687 -11.0711 -2.5215 0.9398
10.9587 -10.6918 -2.5222 0.9398
12.0444 -9.4725 -2.5243 0.9398
12.9935 -8.1427 -2.5261 0.9397
13.2776 -7.6775 -2.5267 0.9397
13.5448 -7.2023 -2.5272 0.9397
13.7948 -6.7177 -2.5277 0.9397
14.0273 -6.2243 -2.5281 0.9397
14.2419 -5.7228 -2.5285 0.9397
14.6166 -4.6981 -2.5293 0.9397
14.7761 -4.1762 -2.5296 0.9396
14.9168 -3.6489 -2.5298 0.9396
15.0384 -3.1168 -2.5301 0.9396
15.1409 -2.5806 -2.5303 0.9396
15.3318 -0.9546 -2.5306 0.9396
15.3465 0.6825 -2.5307 0.9396
15.3121 1.2274 -2.5306 0.9396
15.2582 1.7708 -2.5305 0.9396
15.1848 2.3117 -2.5304 0.9396
14.8487 3.9137 -2.5297 0.9396
14.3423 5.4697 -2.5287 0.9397
14.1366 5.9750 -2.5283 0.9397
13.9130 6.4725 -2.5279 0.9397
13.1373 7.9118 -2.5264 0.9397
12.5836 8.2014 -2.4744 0.9409
7.7780 -10.8947 -2.5161 0.9470
8.1626 -10.6146 -2.5168 0.9470
9.2537 -9.6936 -2.5189 0.9469
10.5443 -8.2927 -2.5214 0.9469
10.8347 -7.9145 -2.5220 0.9469
11.1115 -7.5261 -2.5225 0.9468
11.3742 -7.1279 -2.5230 0.9468
11.6225 -6.7205 -2.5235 0.9468
12.0747 -5.8800 -2.5244 0.9468
12.4655 -5.0090 -2.5251 0.9468
12.9325 -3.6552 -2.5260 0.9468
13.4180 -0.8355 -2.5269 0.9468
13.4395 -0.3581 -2.5270 0.9468
13.4438 0.1197 -2.5270 0.9468
13.3537 1.5497 -2.5268 0.9468
13.2085 2.4940 -2.5265 0.9468
13.1105 2.9616 -2.5264 0.9468
12.9958 3.4254 -2.5261 0.9468
12.8646 3.8846 -2.5259 0.9468
12.7170 4.3388 -2.5256 0.9468
12.3734 5.2298 -2.5249 0.9468
12.1780 5.6653 -2.5246 0.9468
11.9670 6.0936 -2.5242 0.9468
11.7409 6.5139 -2.5237 0.9468
11.4999 6.9257 -2.5233 0.9468
6.9116 -9.6812 -2.5144 0.9525
7.2532 -9.4320 -2.5151 0.9525
7.5857 -9.1706 -2.5157 0.9525
8.8170 -8.0107 -2.5181 0.9525
9.0980 -7.6940 -2.5186 0.9525
9.3676 -7.3673 -2.5191 0.9524
10.3246 -5.9700 -2.5210 0.9524
10.7258 -5.2232 -2.5218 0.9524
11.0727 -4.4493 -2.5224 0.9524
11.4870 -3.2466 -2.5232 0.9524
11.5960 -2.8366 -2.5234 0.9524
11.7698 -2.0061 -2.5238 0.9524
11.8342 -1.5866 -2.5239 0.9524
11.9406 0.1063 -2.5241 0.9524
11.9292 0.5306 -2.5241 0.9524
11.8607 1.3765 -2.5239 0.9524
11.8038 1.7970 -2.5238 0.9524
11.7318 2.2152 -2.5237 0.9524
11.4268 3.4504 -2.5231 0.9524
11.2958 3.8540 -2.5229 0.9524
11.1505 4.2525 -2.5226 0.9524
10.9910 4.6455 -2.5223 0.9524
10.6303 5.4129 -2.5216 0.9524
10.2158 6.1523 -2.5208 0.9524
9.9890 6.5104 -2.5203 0.9524
6.5199 -8.4784 -2.5137 0.9570
6.8186 -8.2432 -2.5142 0.9570
7.1088 -7.9975 -2.5148 0.9570
7.3901 -7.7414 -2.5153 0.9570
7.9246 -7.1999 -2.5164 0.9570
8.4191 -6.6214 -2.5173 0.9569
8.6507 -6.3191 -2.5178 0.9569
8.8712 -6.0087 -2.5182 0.9569
9.0806 -5.6906 -2.5186 0.9569
9.2785 -5.3651 -2.5190 0.9569
9.4646 -5.0327 -2.5193 0.9569
9.6388 -4.6938 -2.5197 0.9569
9.8007 -4.3489 -2.5200 0.9569
9.9502 -3.9983 -2.5203 0.9569
10.0871 -3.6425 -2.5205 0.9569
10.3222 -2.9174 -2.5210 0.9569
10.5048 -2.1772 -2.5213 0.9569
10.6339 -1.4257 -2.5216 0.9569
10.6783 -1.0469 -2.5217 0.9569
10.7294 0.0955 -2.5218 0.9569
10.6953 0.8574 -2.5217 0.9569
10.6577 1.2368 -2.5216 0.9569
10.4640 2.3638 -2.5213 0.9569
10.2682 3.1006 -2.5209 0.9569
10.0201 3.8214 -2.5204 0.9569
9.7211 4.5224 -2.5198 0.9569
9.1808 5.5290 -2.5188 0.9569
8.9771 5.8509 -2.5184 0.9569
5.6371 -7.8960 -2.5120 0.9607
6.1863 -7.4788 -2.5130 0.9607
6.4495 -7.2557 -2.5135 0.9607
6.7046 -7.0233 -2.5140 0.9607
6.9512 -6.7819 -2.5145 0.9607
7.1892 -6.5318 -2.5149 0.9607
7.8475 -5.7324 -2.5162 0.9606
8.0475 -5.4508 -2.5166 0.9606
8.7433 -4.2577 -2.5179 0.9606
9.0256 -3.6267 -2.5185 0.9606
9.3627 -2.6462 -2.5191 0.9606
9.5282 -1.9748 -2.5195 0.9606
9.5928 -1.6350 -2.5196 0.9606
9.6453 -1.2931 -2.5197 0.9606
9.7133 -0.6048 -2.5198 0.9606
9.6669 1.1219 -2.5197 0.9606
9.4913 2.1440 -2.5194 0.9606
9.4085 2.4798 -2.5192 0.9606
9.3137 2.8124 -2.5190 0.9606
9.2072 3.1413 -2.5188 0.9606
9.0889 3.4662 -2.5186 0.9606
8.9591 3.7867 -2.5184 0.9606
8.6656 4.4125 -2.5178 0.9606
8.5022 4.7170 -2.5175 0.9606
7.3563 -4.9827 -2.5153 0.9637
7.6937 -4.4487 -2.5159 0.9637
7.9920 -3.8919 -2.5165 0.9637
8.1261 -3.6058 -2.5168 0.9637
8.2499 -3.3151 -2.5170 0.9637
8.3632 -3.0201 -2.5172 0.9637
8.5579 -2.4188 -2.5176 0.9637
8.6390 -2.1133 -2.5177 0.9637
8.7091 -1.8050 -2.5179 0.9637
8.8160 -1.1820 -2.5181 0.9637
8.8781 -0.5528 -2.5182 0.9637
8.8951 0.0792 -2.5182 0.9637
8.8668 0.7108 -2.5182 0.9637
8.7934 1.3387 -2.5180 0.9637
8.7399 1.6503 -2.5179 0.9637
8.6753 1.9597 -2.5178 0.9637
8.5132 2.5707 -2.5175 0.9637
7.7718 4.3118 -2.5161 0.9637
7.4440 4.8517 -2.5154 0.9637
4.7421 -6.6423 -2.5102 0.9664
4.9760 -6.4707 -2.5107 0.9664
5.4249 -6.1030 -2.5115 0.9664
5.6393 -5.9074 -2.5120 0.9664
5.8466 -5.7042 -2.5124 0.9664
6.0465 -5.4936 -2.5127 0.9664
6.4233 -5.0517 -2.5135 0.9664
6.5996 -4.8209 -2.5138 0.9664
6.7677 -4.5839 -2.5141 0.9664
7.0778 -4.0926 -2.5147 0.9664
7.2196 -3.8389 -2.5150 0.9664
7.4755 -3.3171 -2.5155 0.9664
7.5893 -3.0496 -2.5157 0.9664
7.7879 -2.5033 -2.5161 0.9663
7.9470 -1.9440 -2.5164 0.9663
8.0658 -1.3747 -2.5166 0.9663
8.1435 -0.7984 -2.5168 0.9663
8.1669 -0.5085 -2.5168 0.9663
8.1799 -0.2180 -2.5169 0.9663
8.1747 0.3636 -2.5168 0.9663
8.1565 0.6538 -2.5168 0.9663
8.1279 0.9433 -2.5168 0.9663
8.0399 1.5181 -2.5166 0.9663
7.9109 2.0851 -2.5163 0.9663
7.6425 2.9146 -2.5158 0.9663
7.4149 3.4495 -2.5154 0.9664
7.1497 3.9666 -2.5149 0.9664
7.0035 4.2177 -2.5146 0.9664
4.3867 -6.1445 -2.5095 0.9687
5.2164 -5.4644 -2.5111 0.9687
5.5929 -5.0815 -2.5119 0.9686
5.7708 -4.8802 -2.5122 0.9686
5.9413 -4.6727 -2.5125 0.9686
6.1044 -4.4592 -2.5129 0.9686
6.4072 -4.0152 -2.5134 0.9686
6.6776 -3.5507 -2.5140 0.9686
7.1157 -2.5696 -2.5148 0.9686
7.3501 -1.7980 -2.5153 0.9686
7.4097 -1.5357 -2.5154 0.9686
7.5006 -1.0056 -2.5155 0.9686
7.5534 -0.4703 -2.5156 0.9686
7.5654 -0.2016 -2.5157 0.9686
7.5678 0.0674 -2.5157 0.9686
7.5174 0.8724 -2.5156 0.9686
7.4814 1.1389 -2.5155 0.9686
7.3810 1.6673 -2.5153 0.9686
7.1604 2.4430 -2.5149 0.9686
7.0686 2.6957 -2.5147 0.9686
6.9678 2.9450 -2.5145 0.9686
6.7398 3.4319 -2.5141 0.9686
6.6130 3.6689 -2.5138 0.9686
6.4778 3.9012 -2.5136 0.9686
4.0766 -5.7101 -2.5090 0.9706
4.4732 -5.4078 -2.5097 0.9706
4.6632 -5.2462 -2.5101 0.9706
5.0255 -4.9030 -2.5108 0.9706
5.1972 -4.7220 -2.5111 0.9706
5.6723 -4.1435 -2.5120 0.9706
5.9536 -3.7310 -2.5126 0.9706
6.2048 -3.2993 -2.5131 0.9706
6.3186 -3.0770 -2.5133 0.9706
6.5222 -2.6208 -2.5137 0.9706
6.6117 -2.3876 -2.5138 0.9706
6.8847 -1.4269 -2.5144 0.9706
6.9692 -0.9344 -2.5145 0.9706
6.9981 -0.6861 -2.5146 0.9706
7.0294 -0.1873 -2.5146 0.9706
7.0316 0.0626 -2.5146 0.9706
7.0249 0.3124 -2.5146 0.9706
7.0093 0.5619 -2.5146 0.9706
6.9091 1.3046 -2.5144 0.9706
6.8581 1.5492 -2.5143 0.9706
6.7301 2.0322 -2.5141 0.9706
3.8033 -5.3274 -2.5084 0.9723
4.1733 -5.0452 -2.5091 0.9723
4.5223 -4.7373 -2.5098 0.9723
5.1504 -4.0507 -2.5110 0.9723
5.4263 -3.6754 -2.5116 0.9723
5.6747 -3.2813 -2.5120 0.9723
6.3111 -1.7837 -2.5133 0.9723
6.4224 -1.3311 -2.5135 0.9723
6.5468 -0.4076 -2.5137 0.9723
6.5593 0.0584 -2.5137 0.9723
6.5156 0.7562 -2.5136 0.9723
6.4845 0.9872 -2.5136 0.9723
6.3975 1.4452 -2.5134 0.9723
6.3418 1.6715 -2.5133 0.9723
6.1269 2.3366 -2.5129 0.9723
6.0396 2.5527 -2.5127 0.9723
5.7323 3.1802 -2.5121 0.9723
5.4909 3.5787 -2.5117 0.9723
4.2335 -4.4347 -2.5093 0.9738
4.8213 -3.7918 -2.5104 0.9738
4.9535 -3.6184 -2.5106 0.9738
5.0795 -3.4405 -2.5109 0.9738
5.1990 -3.2581 -2.5111 0.9738
5.3120 -3.0715 -2.5113 0.9738
5.7733 -2.0848 -2.5122 0.9738
5.8441 -1.8784 -2.5124 0.9738
5.9074 -1.6696 -2.5125 0.9738
5.9633 -1.4587 -2.5126 0.9738
6.0116 -1.2459 -2.5127 0.9738
6.1105 -0.5991 -2.5129 0.9738
6.1377 -0.1636 -2.5129 0.9738
6.1397 0.0547 -2.5129 0.9738
6.1338 0.2728 -2.5129 0.9738
6.1202 0.4906 -2.5129 0.9738
6.0988 0.7078 -2.5128 0.9738
6.0697 0.9240 -2.5128 0.9738
6.0328 1.1391 -2.5127 0.9738
5.9883 1.3527 -2.5126 0.9738
5.9362 1.5646 -2.5125 0.9738
5.8766 1.7745 -2.5124 0.9738
5.8096 1.9821 -2.5123 0.9738
5.5646 2.5887 -2.5118 0.9738
5.3658 2.9770 -2.5114 0.9738
5.1399 3.3500 -2.5110 0.9738
3.8239 -4.3019 -2.5085 0.9752
3.9749 -4.1638 -2.5088 0.9752
4.2615 -3.8718 -2.5093 0.9752
4.6508 -3.3973 -2.5101 0.9752
4.7690 -3.2302 -2.5103 0.9752
4.9872 -2.8838 -2.5107 0.9752
5.0869 -2.7049 -2.5109 0.9752
5.1802 -2.5226 -2.5111 0.9752
5.2669 -2.3371 -2.5112 0.9752
5.4203 -1.9573 -2.5115 0.9752
5.5461 -1.5675 -2.5118 0.9752
5.7367 -0.5624 -2.5121 0.9752
5.7532 -0.3582 -2.5122 0.9752
5.7623 -0.1536 -2.5122 0.9752
5.7641 0.0513 -2.5122 0.9752
5.7258 0.6645 -2.5121 0.9752
5.6638 1.0694 -2.5120 0.9752
5.5172 1.6660 -2.5117 0.9752
5.4542 1.8609 -2.5116 0.9752
5.3844 2.0534 -2.5115 0.9752
5.3077 2.2433 -2.5113 0.9752
5.2243 2.4304 -2.5112 0.9752
5.0378 2.7949 -2.5108 0.9752
4.8257 3.1452 -2.5104 0.9752
3.1471 -4.4083 -2.5072 0.9764
3.3022 -4.2942 -2.5075 0.9764
3.4531 -4.1746 -2.5077 0.9764
3.5997 -4.0497 -2.5080 0.9764
3.7417 -3.9196 -2.5083 0.9764
3.8791 -3.7846 -2.5086 0.9764
4.0115 -3.6447 -2.5088 0.9764
4.2611 -3.3512 -2.5093 0.9764
4.3779 -3.1980 -2.5095 0.9764
4.6945 -2.7145 -2.5101 0.9764
5.1645 -1.6600 -2.5110 0.9764
5.2205 -1.4755 -2.5112 0.9764
5.2699 -1.2891 -2.5112 0.9764
5.3484 -0.9116 -2.5114 0.9764
5.3775 -0.7210 -2.5115 0.9764
5.4153 -0.3372 -2.5115 0.9764
5.4239 -0.1445 -2.5115 0.9764
5.4256 0.0483 -2.5115 0.9764
5.4205 0.2411 -2.5115 0.9764
5.3638 0.8166 -2.5114 0.9764
5.1933 1.5682 -2.5111 0.9764
5.0683 1.9329 -2.5109 0.9764
4.9962 2.1117 -2.5107 0.9764
4.7421 2.6309 -2.5102 0.9764
4.5425 2.9606 -2.5098 0.9764
3.1157 -4.0516 -2.5071 0.9775
3.2581 -3.9388 -2.5074 0.9775
3.6599 -3.5707 -2.5081 0.9775
3.7848 -3.4388 -2.5084 0.9775
4.0202 -3.1618 -2.5088 0.9775
4.2354 -2.8687 -2.5093 0.9775
4.4291 -2.5610 -2.5096 0.9775
4.5176 -2.4022 -2.5098 0.9775
4.6004 -2.2403 -2.5100 0.9775
4.6774 -2.0755 -2.5101 0.9775
4.7485 -1.9081 -2.5102 0.9775
4.8135 -1.7382 -2.5104 0.9775
4.9252 -1.3920 -2.5106 0.9775
5.0120 -1.0388 -2.5108 0.9775
5.0459 -0.8600 -2.5108 0.9775
5.0734 -0.6802 -2.5109 0.9775
5.1090 -0.3181 -2.5109 0.9775
5.1187 0.0456 -2.5110 0.9775
5.1139 0.2274 -2.5109 0.9775
5.0297 0.9497 -2.5108 0.9775
4.9926 1.1278 -2.5107 0.9775
4.8996 1.4795 -2.5105 0.9775
4.7136 1.9923 -2.5102 0.9775
4.5596 2.3217 -2.5099 0.9775
4.3826 2.6394 -2.5095 0.9775
2.9456 -3.8304 -2.5068 0.9785
3.0802 -3.7237 -2.5070 0.9785
3.2109 -3.6123 -2.5073 0.9785
3.4600 -3.3757 -2.5078 0.9785
3.6917 -3.1220 -2.5082 0.9784
3.8006 -2.9891 -2.5084 0.9784
3.9048 -2.8524 -2.5086 0.9784
4.0981 -2.5682 -2.5090 0.9784
4.2707 -2.2709 -2.5093 0.9784
4.4889 -1.8038 -2.5097 0.9784
4.5504 -1.6432 -2.5099 0.9784
4.6061 -1.4805 -2.5100 0.9784
4.6560 -1.3160 -2.5101 0.9784
4.7000 -1.1497 -2.5102 0.9784
4.7380 -0.9820 -2.5102 0.9784
4.8159 -0.4722 -2.5104 0.9784
4.8297 -0.3007 -2.5104 0.9784
4.8389 0.0431 -2.5104 0.9784
4.8235 0.3867 -2.5104 0.9784
4.7838 0.7283 -2.5103 0.9784
4.7548 0.8978 -2.5103 0.9784
4.6787 1.2332 -2.5101 0.9784
4.6318 1.3986 -2.5100 0.9784
4.5789 1.5623 -2.5099 0.9784
4.5203 1.7239 -2.5098 0.9784
4.3860 2.0404 -2.5095 0.9784
4.1432 2.4952 -2.5091 0.9784
2.7897 -3.6277 -2.5065 0.9793
2.9171 -3.5266 -2.5067 0.9793
3.3887 -3.0788 -2.5076 0.9793
3.4962 -2.9567 -2.5078 0.9793
3.5994 -2.8308 -2.5080 0.9793
3.6980 -2.7013 -2.5082 0.9793
3.7919 -2.5684 -2.5084 0.9793
4.0445 -2.1506 -2.5089 0.9793
4.1186 -2.0057 -2.5090 0.9793
4.1875 -1.8581 -2.5092 0.9793
4.3621 -1.4021 -2.5095 0.9793
4.4093 -1.2462 -2.5096 0.9793
4.4869 -0.9299 -2.5097 0.9793
4.5173 -0.7699 -2.5098 0.9793
4.5810 -0.1221 -2.5099 0.9793
4.5824 0.0408 -2.5099 0.9793
4.5781 0.2036 -2.5099 0.9793
4.5679 0.3662 -2.5099 0.9793
4.5520 0.5283 -2.5099 0.9793
4.3863 1.3245 -2.5095 0.9793
4.3363 1.4795 -2.5094 0.9793
4.2808 1.6326 -2.5093 0.9793
4.0821 2.0786 -2.5090 0.9793
4.0055 2.2222 -2.5088 0.9793
3.9237 2.3630 -2.5087 0.9793
3.8370 2.5008 -2.5085 0.9793
2.7670 -3.3452 -2.5064 0.9801
3.2142 -2.9203 -2.5073 0.9801
3.3162 -2.8045 -2.5075 0.9801
3.4141 -2.6851 -2.5077 0.9801
3.5076 -2.5622 -2.5079 0.9801
3.5967 -2.4361 -2.5080 0.9801
3.7611 -2.1748 -2.5083 0.9801
3.9718 -1.7624 -2.5087 0.9801
4.0321 -1.6202 -2.5089 0.9801
4.0873 -1.4760 -2.5090 0.9801
4.1374 -1.3298 -2.5091 0.9801
4.2845 -0.7303 -2.5094 0.9801
4.3078 -0.5775 -2.5094 0.9801
4.3464 0.0387 -2.5095 0.9801
4.3326 0.3473 -2.5094 0.9801
4.3175 0.5010 -2.5094 0.9801
4.2708 0.8064 -2.5093 0.9801
4.2394 0.9577 -2.5093 0.9801
4.1604 1.2563 -2.5091 0.9801
4.1129 1.4033 -2.5090 0.9801
3.8719 1.9715 -2.5086 0.9801
