ply
format ascii 1.0
element vertex 619
property float32 x
property float32 y
property float32 z
property float32 I
end_header
-24.5258 40.7512 8.3865 0.8243
-27.8068 39.5565 8.5258 0.8217
-20.6920 27.3218 6.0433 0.8700
-20.7631 23.7152 5.5578 0.8798
-20.7919 20.5988 5.1607 0.8879
-20.7884 19.1832 4.9878 0.8915
-20.7972 17.8683 4.8347 0.8946
-20.8060 16.6305 4.6966 0.8975
-20.7832 15.4370 4.5649 0.9002
-20.9439 11.3595 4.2012 0.9078
-22.4759 10.2001 4.3521 0.9046
-24.2547 9.9859 4.6250 0.8989
-45.2492 -8.0921 8.1052 0.8297
-20.7267 25.4402 5.0270 0.8756
-20.7643 23.7165 4.8290 0.8802
-20.7649 22.0853 4.6439 0.8846
-20.7977 17.8686 4.2005 0.8950
-20.8064 16.6308 4.0805 0.8978
-20.7843 15.4378 3.9663 0.9005
-20.7868 14.3245 3.8673 0.9029
-20.7529 13.2409 3.7712 0.9052
-30.2035 9.9964 4.8739 0.8792
-34.3074 10.0196 5.4753 0.8653
-39.3874 10.0019 6.2254 0.8484
-20.6656 31.7329 4.9313 0.8583
-20.7278 25.4415 4.2734 0.8760
-20.7660 22.0864 3.9477 0.8849
-20.7939 20.6007 3.8117 0.8886
-20.7854 15.4386 3.3717 0.9008
-20.7879 14.3252 3.2875 0.9032
-20.7540 13.2416 3.2058 0.9055
-20.9457 11.3604 3.1029 0.9084
-21.4233 10.6542 3.1157 0.9080
-22.4764 10.2003 3.2142 0.9052
-34.3028 10.0182 4.6535 0.8658
-46.2982 10.0236 6.1687 0.8261
-20.5798 44.2455 5.2400 0.8218
-20.6006 40.4714 4.8765 0.8330
-20.6476 37.2352 4.5720 0.8426
-20.6833 34.3664 4.3071 0.8510
-20.6678 31.7363 4.0668 0.8587
-20.7209 29.4763 3.8690 0.8651
-20.6955 27.3264 3.6809 0.8712
-20.7671 22.0876 3.2555 0.8852
-20.7912 19.1858 3.0379 0.8924
-20.7985 17.8693 2.9445 0.8956
-20.7866 15.4394 2.7805 0.9011
-20.7551 13.2423 2.6437 0.9057
-20.9466 11.3609 2.5588 0.9086
-21.4239 10.6545 2.5693 0.9082
-22.4766 10.2004 2.6505 0.9055
-34.2982 10.0169 3.8369 0.8661
-20.5811 44.2484 4.1311 0.8221
-20.6834 34.3666 3.3955 0.8513
-20.6700 31.7397 3.2064 0.8589
-20.7681 22.0887 2.5666 0.8854
-20.7958 20.6026 2.4781 0.8891
-20.7921 19.1866 2.3950 0.8926
-20.7562 13.2429 2.0842 0.9059
-20.7802 12.2437 2.0417 0.9077
-21.4246 10.6548 2.0256 0.9084
-22.4768 10.2005 2.0895 0.9057
-24.2555 9.9862 2.2205 0.9001
-30.2095 9.9983 2.6937 0.8801
-34.2936 10.0155 3.0243 0.8664
-39.4007 10.0053 3.4412 0.8494
-46.2920 10.0222 4.0095 0.8268
-20.5825 44.2512 3.0263 0.8223
-20.6069 40.4839 2.8169 0.8336
-20.6497 37.2390 2.6405 0.8431
-20.6835 34.3669 2.4873 0.8515
-20.6978 27.3295 2.1259 0.8716
-20.7887 15.4411 1.6058 0.9014
-20.7911 14.3274 1.5657 0.9038
-20.7812 12.2443 1.4957 0.9079
-21.4253 10.6552 1.4838 0.9086
-22.4771 10.2006 1.5306 0.9058
-26.9738 10.0021 1.7839 0.8911
-34.2890 10.0142 2.2151 0.8666
-39.4052 10.0064 2.5211 0.8496
-46.2890 10.0216 2.9369 0.8271
-18.8445 40.5148 1.7619 0.8362
-20.6507 37.2409 1.6791 0.8433
-20.6744 31.7464 1.4938 0.8593
-20.7215 29.4772 1.4208 0.8657
-20.7322 25.4470 1.2943 0.8769
-20.7698 23.7228 1.2433 0.8814
-20.7703 22.0910 1.1956 0.8857
-20.7940 19.1884 1.1157 0.8929
-20.8084 16.6324 1.0504 0.8989
-20.7899 15.4419 1.0212 0.9015
-20.7922 14.3282 0.9957 0.9039
-20.7583 13.2443 0.9709 0.9061
-21.4259 10.6555 0.9436 0.9087
-24.2558 9.9864 1.0343 0.9003
-46.2859 10.0209 1.8674 0.8273
-19.4188 35.0194 0.6764 0.8520
-20.6838 34.3673 0.6776 0.8517
-20.6766 31.7497 0.6400 0.8594
-20.7217 29.4775 0.6086 0.8658
-20.7333 25.4483 0.5545 0.8769
-20.7709 23.7241 0.5326 0.8815
-20.7909 15.4427 0.4375 0.9016
-20.7593 13.2450 0.4160 0.9062
-20.7832 12.2455 0.4075 0.9080
-20.9501 11.3628 0.4026 0.9091
-21.4266 10.6558 0.4042 0.9087
-22.4776 10.2009 0.4170 0.9060
-24.2560 9.9864 0.4431 0.9004
-30.2153 10.0003 0.5377 0.8804
-39.4140 10.0086 0.6869 0.8499
-16.0475 31.5266 -0.1992 0.8681
-20.7012 27.3340 -0.1930 0.8718
-20.7344 25.4497 -0.1848 0.8769
-20.7720 23.7254 -0.1775 0.8815
-20.7959 19.1901 -0.1593 0.8930
-20.8091 16.6330 -0.1500 0.8989
-20.7920 15.4435 -0.1458 0.9016
-20.7943 14.3296 -0.1422 0.9039
-20.7604 13.2457 -0.1386 0.9062
-20.7842 12.2461 -0.1358 0.9080
-21.4272 10.6562 -0.1347 0.9087
-26.9735 10.0020 -0.1619 0.8913
-30.2173 10.0009 -0.1792 0.8805
-39.4184 10.0097 -0.2290 0.8499
-46.2798 10.0196 -0.2666 0.8274
-12.9345 27.8086 -0.8636 0.8845
-14.1124 27.7249 -0.8760 0.8829
-15.3204 27.6284 -0.8896 0.8812
-16.5638 27.5218 -0.9045 0.8794
-19.9623 26.3584 -0.9310 0.8761
-20.7355 25.4510 -0.9244 0.8769
-20.7732 23.7266 -0.8880 0.8814
-20.7735 22.0943 -0.8539 0.8857
-20.7968 19.1909 -0.7968 0.8929
-20.8008 17.8714 -0.7722 0.8961
-20.8095 16.6333 -0.7501 0.8989
-20.7954 14.3304 -0.7111 0.9039
-20.7615 13.2463 -0.6935 0.9062
-20.7852 12.2467 -0.6793 0.9080
-20.9518 11.3637 -0.6711 0.9090
-22.4780 10.2011 -0.6951 0.9059
-34.2707 10.0088 -1.0053 0.8669
-46.2768 10.0189 -1.3332 0.8274
-11.3628 24.4294 -1.3664 0.8977
-12.3675 24.2970 -1.3826 0.8966
-14.3666 23.8711 -1.4129 0.8944
-15.5136 23.8218 -1.4417 0.8924
-17.7359 23.4186 -1.4898 0.8890
-18.8899 23.1857 -1.5167 0.8871
-19.3766 22.1316 -1.4918 0.8889
-20.8016 20.6083 -1.4850 0.8893
-20.7977 19.1918 -1.4352 0.8928
-20.8099 16.6336 -1.3511 0.8988
-20.7942 15.4451 -1.3136 0.9015
-20.7965 14.3311 -1.2808 0.9038
-20.7625 13.2470 -1.2490 0.9061
-21.4285 10.6568 -1.2137 0.9086
-24.2566 9.9867 -1.3303 0.9003
-30.2212 10.0022 -1.6143 0.8803
-39.4272 10.0120 -2.0630 0.8497
-45.6667 8.2033 -2.3530 0.8304
-47.0959 6.7459 -2.4128 0.8265
-47.2980 5.0707 -2.4124 0.8265
-47.4427 3.3898 -2.4122 0.8265
-47.4453 -3.3529 -2.4122 0.8265
-47.1009 -6.7093 -2.4128 0.8265
-46.8428 -8.3771 -2.4133 0.8265
-9.9750 21.4457 -1.7342 0.9095
-11.7036 21.1060 -1.7695 0.9077
-12.5860 20.9125 -1.7896 0.9067
-16.2287 19.9193 -1.8839 0.9021
-17.9683 19.1109 -1.9233 0.9001
-18.9203 18.7445 -1.9528 0.8987
-20.1929 17.3490 -1.9520 0.8987
-20.8103 16.6339 -1.9534 0.8987
-20.7975 14.3318 -1.8519 0.9037
-20.7872 12.2478 -1.7691 0.9078
-20.9536 11.3647 -1.7478 0.9088
-22.4785 10.2013 -1.8100 0.9057
-24.2568 9.9868 -1.9234 0.9001
-26.9731 10.0018 -2.1093 0.8910
-29.6896 9.8263 -2.2930 0.8821
-32.2596 8.1919 -2.4404 0.8750
-32.5260 7.0419 -2.4401 0.8750
-32.9330 4.7172 -2.4394 0.8751
-33.0759 3.5460 -2.4391 0.8751
-33.1783 2.3706 -2.4389 0.8751
-33.2399 1.1925 -2.4388 0.8751
-33.2608 0.0129 -2.4388 0.8751
-33.1801 -2.3448 -2.4389 0.8751
-32.9366 -4.6916 -2.4394 0.8751
-32.7540 -5.8575 -2.4397 0.8751
-32.5313 -7.0166 -2.4401 0.8750
-8.7659 18.8463 -1.9955 0.9199
-9.5003 18.6641 -2.0106 0.9193
-10.9848 18.2520 -2.0452 0.9180
-13.2284 17.4669 -2.1035 0.9157
-14.7489 16.8459 -2.1496 0.9140
-17.0159 15.7020 -2.2229 0.9112
-17.7552 15.2547 -2.2473 0.9102
-18.9670 13.0704 -2.2114 0.9116
-20.3112 11.9674 -2.2633 0.9096
-20.9544 11.3651 -2.2886 0.9087
-21.4298 10.6574 -2.2977 0.9083
-22.5258 8.3527 -2.3065 0.9080
-24.5471 7.1690 -2.4551 0.9023
-24.7814 6.2929 -2.4546 0.9024
-25.1579 4.5192 -2.4539 0.9024
-25.4891 1.8212 -2.4533 0.9024
-25.5529 0.0099 -2.4532 0.9024
-25.5375 -0.8963 -2.4532 0.9024
-25.4905 -1.8014 -2.4533 0.9024
-25.4121 -2.7044 -2.4535 0.9024
-25.1614 -4.4997 -2.4539 0.9024
-8.3586 16.4211 -2.1888 0.9285
-8.9892 16.2109 -2.2019 0.9281
-10.2514 15.7414 -2.2314 0.9271
-10.8817 15.4798 -2.2476 0.9266
-11.4960 15.1794 -2.2618 0.9262
-12.7160 14.5240 -2.2930 0.9252
-13.3212 14.1683 -2.3101 0.9247
-15.1196 12.9902 -2.3678 0.9228
-15.6879 12.5395 -2.3856 0.9223
-16.7775 11.5616 -2.4203 0.9212
-17.2529 11.0078 -2.4310 0.9209
-17.7538 10.4605 -2.4477 0.9203
-18.2420 9.8940 -2.4651 0.9198
-18.9215 8.5870 -2.4682 0.9197
-20.4104 3.6664 -2.4633 0.9199
-20.6147 2.2100 -2.4628 0.9199
-20.7168 0.7432 -2.4625 0.9199
-20.6777 -1.4613 -2.4623 0.9199
-20.5245 -2.9236 -2.4626 0.9199
-9.5288 13.5551 -2.3477 0.9353
-10.5850 12.9921 -2.3745 0.9345
-11.6064 12.3444 -2.4008 0.9338
-12.0679 11.9558 -2.4069 0.9337
-13.4682 10.7653 -2.4430 0.9327
-14.3522 9.8903 -2.4696 0.9320
-15.6243 7.7702 -2.4724 0.9319
-15.8869 7.2099 -2.4720 0.9319
-16.1296 6.6407 -2.4715 0.9320
-16.7350 4.8875 -2.4702 0.9320
-16.8954 4.2904 -2.4699 0.9320
-17.0348 3.6880 -2.4696 0.9320
-17.2498 2.4708 -2.4691 0.9320
-17.3788 -1.2282 -2.4685 0.9320
-17.3250 -1.8438 -2.4686 0.9320
-17.2497 -2.4571 -2.4688 0.9320
-17.0350 -3.6742 -2.4692 0.9320
-16.8957 -4.2765 -2.4694 0.9320
-7.5184 12.4924 -2.4020 0.9426
-7.9847 12.2609 -2.4104 0.9424
-8.4469 12.0161 -2.4197 0.9422
-8.8973 11.7481 -2.4278 0.9420
-9.3082 11.4250 -2.4277 0.9420
-9.7400 11.1249 -2.4359 0.9418
-10.5867 10.4884 -2.4550 0.9414
-10.9978 10.1486 -2.4653 0.9411
-12.3939 8.5408 -2.4796 0.9408
-13.6864 6.2112 -2.4760 0.9409
-14.0876 5.2238 -2.4752 0.9409
-14.4183 4.2109 -2.4745 0.9409
-14.6771 3.1776 -2.4739 0.9409
-14.7792 2.6549 -2.4737 0.9409
-14.9745 1.0699 -2.4732 0.9410
-14.9745 -1.0582 -2.4730 0.9410
-14.9281 -1.5887 -2.4731 0.9410
-14.6777 -3.1658 -2.4736 0.9409
-5.4647 11.7490 -2.4355 0.9486
-7.9011 10.4327 -2.4598 0.9481
-8.2918 10.1774 -2.4675 0.9480
-8.6757 9.9092 -2.4755 0.9478
-9.0524 9.6281 -2.4840 0.9476
-10.0233 8.6117 -2.4838 0.9476
-10.3168 8.2463 -2.4825 0.9477
-10.8696 7.4904 -2.4812 0.9477
-11.3690 6.6986 -2.4803 0.9477
-11.5974 6.2902 -2.4799 0.9477
-12.1943 5.0205 -2.4787 0.9477
-12.5160 4.1424 -2.4780 0.9478
-12.7753 3.2441 -2.4775 0.9478
-13.0443 1.8684 -2.4768 0.9478
-13.1016 1.4046 -2.4767 0.9478
-13.1425 0.9390 -2.4766 0.9478
-13.1671 0.4723 -2.4765 0.9478
-13.1671 -0.4621 -2.4764 0.9478
-13.1019 -1.3943 -2.4766 0.9478
-13.0448 -1.8582 -2.4767 0.9478
-12.8819 -2.7785 -2.4770 0.9478
-12.7762 -3.2338 -2.4772 0.9478
-4.9295 10.5981 -2.4707 0.9533
-5.2943 10.4012 -2.4670 0.9534
-6.0369 10.0307 -2.4747 0.9533
-7.1119 9.3906 -2.4900 0.9530
-7.7548 8.8574 -2.4885 0.9530
-8.0598 8.5723 -2.4872 0.9530
-8.6406 7.9734 -2.4853 0.9531
-9.1804 7.3380 -2.4843 0.9531
-9.4331 7.0065 -2.4838 0.9531
-9.6739 6.6664 -2.4834 0.9531
-9.9025 6.3181 -2.4830 0.9531
-10.5129 5.2283 -2.4818 0.9531
-10.6901 4.8514 -2.4815 0.9531
-11.1407 3.6872 -2.4806 0.9532
-11.2633 3.2895 -2.4803 0.9532
-11.5460 2.0741 -2.4797 0.9532
-11.6626 1.2503 -2.4794 0.9532
-11.6991 0.8359 -2.4793 0.9532
-11.7283 0.0046 -2.4791 0.9532
-11.6994 -0.8268 -2.4792 0.9532
-11.6630 -1.2412 -2.4793 0.9532
-11.6121 -1.6541 -2.4793 0.9532
-11.5467 -2.0649 -2.4795 0.9532
-11.4669 -2.4733 -2.4796 0.9532
-11.3728 -2.8786 -2.4798 0.9532
-2.1136 4.5441 -1.1778 0.9796
-7.5184 7.4486 -2.4873 0.9574
-7.7763 7.1759 -2.4869 0.9575
-8.0244 6.8943 -2.4864 0.9575
-8.2625 6.6043 -2.4860 0.9575
-9.2910 5.0392 -2.4841 0.9575
-9.4626 4.7059 -2.4838 0.9575
-9.9052 3.6729 -2.4829 0.9575
-10.3213 2.2346 -2.4820 0.9575
-10.3934 1.8670 -2.4818 0.9575
-10.4525 1.4972 -2.4816 0.9575
-10.4985 1.1255 -2.4815 0.9575
-10.5314 0.7525 -2.4814 0.9575
-10.5578 0.0041 -2.4813 0.9575
-10.5317 -0.7443 -2.4814 0.9575
-10.4989 -1.1173 -2.4814 0.9575
-10.4531 -1.4890 -2.4815 0.9575
-10.3223 -2.2264 -2.4818 0.9575
-10.2375 -2.5912 -2.4819 0.9575
-4.9633 8.2468 -2.4921 0.9610
-5.2512 8.0635 -2.4915 0.9610
-5.5328 7.8706 -2.4910 0.9610
-5.8072 7.6679 -2.4905 0.9610
-6.3337 7.2342 -2.4895 0.9611
-6.5850 7.0037 -2.4890 0.9611
-7.0624 6.5171 -2.4882 0.9611
-7.2879 6.2615 -2.4878 0.9611
-7.7110 5.7274 -2.4870 0.9611
-8.0953 5.1650 -2.4863 0.9611
-8.2722 4.8740 -2.4860 0.9611
-8.5948 4.2743 -2.4853 0.9611
-8.7399 3.9664 -2.4850 0.9611
-8.9971 3.3362 -2.4845 0.9611
-9.1089 3.0148 -2.4843 0.9611
-9.2981 2.3611 -2.4839 0.9611
-9.4409 1.6959 -2.4835 0.9611
-9.4946 1.3600 -2.4834 0.9611
-9.5663 0.6835 -2.4832 0.9611
-9.5843 0.3438 -2.4832 0.9611
-9.5846 -0.3364 -2.4831 0.9611
-9.5667 -0.6761 -2.4832 0.9611
-9.5369 -1.0149 -2.4832 0.9611
-9.4953 -1.3526 -2.4833 0.9611
-9.4417 -1.6885 -2.4834 0.9611
-2.0208 4.3445 -1.3564 0.9803
-4.2711 7.7024 -2.4933 0.9640
-4.8044 7.3774 -2.4923 0.9641
-5.0620 7.2010 -2.4918 0.9641
-6.0252 6.4083 -2.4901 0.9641
-6.2476 6.1896 -2.4897 0.9641
-6.4622 5.9632 -2.4893 0.9641
-6.6686 5.7294 -2.4889 0.9641
-7.0559 5.2408 -2.4882 0.9641
-7.2363 4.9867 -2.4879 0.9641
-7.4077 4.7263 -2.4876 0.9641
-7.5697 4.4601 -2.4873 0.9641
-7.8650 3.9114 -2.4867 0.9641
-7.9979 3.6296 -2.4864 0.9641
-8.1207 3.3434 -2.4861 0.9641
-8.2334 3.0530 -2.4859 0.9642
-8.3358 2.7589 -2.4857 0.9642
-8.4277 2.4613 -2.4855 0.9642
-8.5798 1.8575 -2.4852 0.9642
-8.6398 1.5520 -2.4850 0.9642
-8.7273 0.9356 -2.4848 0.9642
-8.7768 0.0034 -2.4847 0.9642
-8.7551 -0.6187 -2.4847 0.9642
-8.6407 -1.5452 -2.4849 0.9642
-8.5102 -2.1540 -2.4852 0.9642
-2.1846 4.2918 -1.4812 0.9800
-4.1803 6.9458 -2.4935 0.9666
-4.4232 6.7920 -2.4930 0.9666
-4.6604 6.6297 -2.4926 0.9667
-5.3356 6.0942 -2.4913 0.9667
-5.7524 5.6990 -2.4906 0.9667
-5.9500 5.4906 -2.4902 0.9667
-6.1401 5.2754 -2.4899 0.9667
-6.6631 4.5916 -2.4889 0.9667
-6.9702 4.1069 -2.4884 0.9667
-7.3646 3.3422 -2.4876 0.9667
-7.6759 2.5405 -2.4869 0.9667
-7.7606 2.2665 -2.4867 0.9667
-7.8356 1.9897 -2.4866 0.9667
-8.0620 0.5760 -2.4860 0.9667
-8.0772 0.2898 -2.4860 0.9667
-8.0624 -0.5698 -2.4860 0.9667
-8.0373 -0.8553 -2.4860 0.9667
-8.0021 -1.1399 -2.4861 0.9667
-7.9569 -1.4230 -2.4862 0.9667
-7.9018 -1.7043 -2.4863 0.9667
-7.8367 -1.9836 -2.4864 0.9667
-2.1662 4.2557 -1.5873 0.9801
-3.6391 6.5628 -2.4945 0.9689
-4.0938 6.2862 -2.4936 0.9689
-4.7361 5.8131 -2.4925 0.9689
-4.9385 5.6407 -2.4921 0.9689
-5.1347 5.4612 -2.4917 0.9689
-5.3244 5.2750 -2.4914 0.9689
-5.5074 5.0821 -2.4910 0.9689
-5.6834 4.8830 -2.4907 0.9689
-6.0138 4.4668 -2.4901 0.9689
-6.3139 4.0284 -2.4896 0.9689
-6.5821 3.5700 -2.4890 0.9689
-7.3650 1.3230 -2.4874 0.9690
-7.4071 1.0610 -2.4873 0.9690
-7.4398 0.7976 -2.4872 0.9690
-7.4773 0.2682 -2.4871 0.9690
-7.4775 -0.2624 -2.4871 0.9690
-7.4077 -1.0552 -2.4872 0.9690
-7.3659 -1.3173 -2.4873 0.9690
-7.3148 -1.5777 -2.4874 0.9689
-7.2546 -1.8362 -2.4875 0.9689
-2.1578 4.2392 -1.7011 0.9800
-3.3833 6.1015 -2.4949 0.9708
-3.5970 5.9767 -2.4945 0.9708
-4.0104 5.7050 -2.4938 0.9708
-4.4034 5.4048 -2.4931 0.9708
-4.7741 5.0777 -2.4924 0.9708
-4.9505 4.9046 -2.4921 0.9708
-5.1207 4.7254 -2.4918 0.9708
-5.2844 4.5402 -2.4915 0.9708
-5.5917 4.1533 -2.4909 0.9708
-5.9993 3.5348 -2.4901 0.9709
-6.2336 3.1001 -2.4896 0.9709
-6.6073 2.1868 -2.4889 0.9709
-6.7449 1.7128 -2.4886 0.9709
-6.8010 1.4724 -2.4884 0.9709
-6.9575 0.0027 -2.4881 0.9709
-6.9533 -0.2440 -2.4881 0.9709
-6.9403 -0.4905 -2.4881 0.9709
-6.9187 -0.7363 -2.4881 0.9709
-6.8494 -1.2249 -2.4883 0.9709
-6.7459 -1.7075 -2.4885 0.9709
-1.9580 4.2096 -1.7792 0.9803
-3.3572 5.5783 -2.4950 0.9725
-4.1100 5.0447 -2.4936 0.9725
-4.2858 4.8951 -2.4933 0.9725
-4.6208 4.5779 -2.4927 0.9725
-4.9326 4.2379 -2.4921 0.9725
-5.3531 3.6889 -2.4913 0.9725
-6.0083 2.4737 -2.4900 0.9726
-6.1677 2.0413 -2.4897 0.9726
-6.2962 1.5988 -2.4894 0.9726
-6.4296 0.9209 -2.4891 0.9726
-6.4784 0.4629 -2.4890 0.9726
-6.4908 -0.2278 -2.4889 0.9726
-6.4787 -0.4579 -2.4890 0.9726
-1.9402 4.1713 -1.8829 0.9803
-2.1408 4.2057 -1.9315 0.9798
-3.3268 5.1085 -2.4950 0.9740
-3.8491 4.7244 -2.4941 0.9740
-4.0137 4.5844 -2.4938 0.9740
-4.1733 4.4387 -2.4935 0.9740
-4.3276 4.2874 -2.4932 0.9740
-4.4764 4.1308 -2.4929 0.9740
-5.0135 3.4549 -2.4919 0.9740
-5.1324 3.2746 -2.4917 0.9740
-5.2449 3.0903 -2.4915 0.9740
-5.3507 2.9021 -2.4913 0.9740
-5.4498 2.7103 -2.4911 0.9740
-5.6274 2.3168 -2.4907 0.9740
-5.7767 1.9119 -2.4904 0.9740
-5.8405 1.7058 -2.4903 0.9740
-6.0221 0.8626 -2.4898 0.9740
-6.0487 0.6485 -2.4898 0.9741
-6.0793 0.2181 -2.4897 0.9741
-6.0832 0.0024 -2.4897 0.9741
-6.0492 -0.6438 -2.4898 0.9741
-5.9886 -1.0710 -2.4899 0.9740
-5.9471 -1.2827 -2.4900 0.9740
-5.8981 -1.4929 -2.4901 0.9740
-1.9416 4.1743 -2.0064 0.9801
-2.1236 4.1719 -2.0402 0.9798
-2.7774 5.0088 -2.4961 0.9753
-3.7700 4.3060 -2.4942 0.9753
-3.9198 4.1691 -2.4940 0.9753
-4.0648 4.0271 -2.4937 0.9753
-4.3392 3.7281 -2.4932 0.9753
-4.4682 3.5715 -2.4930 0.9753
-4.5916 3.4105 -2.4927 0.9754
-4.7092 3.2452 -2.4925 0.9754
-5.0260 2.7260 -2.4919 0.9754
-5.1191 2.5458 -2.4917 0.9754
-5.2860 2.1763 -2.4913 0.9754
-5.3595 1.9873 -2.4912 0.9754
-5.4263 1.7959 -2.4910 0.9754
-5.4863 1.6023 -2.4909 0.9754
-5.5394 1.4067 -2.4908 0.9754
-5.6569 0.8103 -2.4905 0.9754
-5.6998 0.4073 -2.4904 0.9754
-5.7107 0.2049 -2.4904 0.9754
-5.7143 0.0022 -2.4904 0.9754
-5.7002 -0.4028 -2.4904 0.9754
-5.6575 -0.8059 -2.4905 0.9754
-5.6254 -1.0060 -2.4906 0.9754
-5.5864 -1.2049 -2.4906 0.9754
-5.5404 -1.4023 -2.4907 0.9754
-2.1240 4.1729 -2.1674 0.9796
-2.6153 4.7164 -2.4964 0.9765
-2.9424 4.5181 -2.4958 0.9765
-3.1004 4.4104 -2.4955 0.9765
-3.5501 4.0548 -2.4946 0.9765
-3.6913 3.9260 -2.4944 0.9765
-3.8278 3.7922 -2.4941 0.9765
-3.9595 3.6538 -2.4939 0.9765
-4.0862 3.5107 -2.4937 0.9765
-4.5399 2.8966 -2.4928 0.9765
-4.8208 2.3975 -2.4922 0.9765
-4.9780 2.0495 -2.4919 0.9766
-5.0472 1.8716 -2.4917 0.9766
-5.1102 1.6913 -2.4916 0.9766
-5.1667 1.5089 -2.4915 0.9766
-5.2602 1.1388 -2.4913 0.9766
-5.2971 0.9515 -2.4912 0.9766
-5.3273 0.7631 -2.4911 0.9766
-5.3815 0.0021 -2.4910 0.9766
-5.3682 -0.3794 -2.4911 0.9766
-5.3514 -0.5695 -2.4911 0.9766
-5.3280 -0.7589 -2.4911 0.9766
-5.2978 -0.9474 -2.4912 0.9766
-1.9424 4.1760 -2.2592 0.9797
-2.1237 4.1722 -2.2965 0.9794
-2.4682 4.4512 -2.4966 0.9776
-2.7769 4.2641 -2.4961 0.9776
-2.9260 4.1625 -2.4958 0.9776
-3.0715 4.0556 -2.4955 0.9776
-3.4838 3.7054 -2.4948 0.9776
-3.6127 3.5791 -2.4945 0.9776
-3.7370 3.4484 -2.4943 0.9776
-4.0810 3.0312 -2.4936 0.9776
-4.1856 2.8844 -2.4934 0.9776
-4.2849 2.7339 -2.4932 0.9776
-4.3788 2.5800 -2.4931 0.9776
-4.5501 2.2628 -2.4927 0.9776
-4.6272 2.0999 -2.4925 0.9776
-4.6985 1.9344 -2.4924 0.9776
-4.8233 1.5963 -2.4921 0.9776
-4.9238 1.2503 -2.4919 0.9776
-4.9649 1.0749 -2.4918 0.9776
-4.9997 0.8981 -2.4917 0.9776
-5.0668 -0.3581 -2.4916 0.9776
-5.0510 -0.5375 -2.4916 0.9776
-2.1835 4.2898 -2.4971 0.9785
-2.4816 4.1233 -2.4966 0.9785
-2.6259 4.0323 -2.4963 0.9785
-3.1685 3.6190 -2.4953 0.9786
-3.2945 3.5040 -2.4951 0.9786
-3.5340 3.2611 -2.4947 0.9786
-3.7556 3.0019 -2.4942 0.9786
-3.8594 2.8666 -2.4940 0.9786
-3.9583 2.7277 -2.4938 0.9786
-4.1411 2.4399 -2.4935 0.9786
-4.4434 1.8294 -2.4929 0.9786
-4.5052 1.6706 -2.4927 0.9786
-4.5614 1.5097 -2.4926 0.9786
-4.6119 1.3469 -2.4925 0.9786
-4.6566 1.1825 -2.4924 0.9786
-4.7765 0.5121 -2.4922 0.9786
-4.8038 0.0019 -2.4921 0.9786
-4.8008 -0.1685 -2.4921 0.9786
-4.7769 -0.5084 -2.4922 0.9786
-1.9232 4.1348 -2.4976 0.9794
-2.0684 4.0636 -2.4974 0.9794
-2.2110 3.9872 -2.4971 0.9794
-2.7515 3.6331 -2.4961 0.9794
-3.1209 3.3194 -2.4954 0.9794
-3.4550 2.9684 -2.4948 0.9794
-3.6561 2.7156 -2.4944 0.9794
-4.0022 2.1707 -2.4937 0.9794
-4.2094 1.7331 -2.4933 0.9795
-4.2680 1.5826 -2.4932 0.9795
-4.3213 1.4302 -2.4931 0.9795
-4.4115 1.1202 -2.4929 0.9795
-4.4483 0.9631 -2.4928 0.9795
-4.5480 0.1631 -2.4926 0.9795
-4.5482 -0.1596 -2.4926 0.9795
-4.5397 -0.3208 -2.4926 0.9795
-4.5056 -0.6418 -2.4927 0.9795
-4.4490 -0.9596 -2.4928 0.9795
-4.4123 -1.1168 -2.4928 0.9795
-1.9623 3.8552 -2.4976 0.9802
-2.2302 3.7057 -2.4971 0.9802
-2.3600 3.6239 -2.4968 0.9802
-2.6104 3.4469 -2.4964 0.9802
-2.9610 3.1493 -2.4957 0.9802
-3.0706 3.0421 -2.4955 0.9802
-3.4688 2.5765 -2.4947 0.9802
-3.6422 2.3238 -2.4944 0.9802
-3.8677 1.9235 -2.4939 0.9802
-3.9333 1.7850 -2.4938 0.9802
-4.0495 1.5016 -2.4936 0.9802
-4.1001 1.3570 -2.4935 0.9803
-4.1856 1.0629 -2.4933 0.9803
-4.2205 0.9137 -2.4932 0.9803
-4.2502 0.7635 -2.4931 0.9803
-4.2935 0.4603 -2.4931 0.9803
-4.3180 0.0017 -2.4930 0.9803
-4.3154 -0.1515 -2.4930 0.9803
-4.2938 -0.4570 -2.4931 0.9803
-4.2750 -0.6090 -2.4931 0.9803
-4.2508 -0.7602 -2.4931 0.9803
-4.2213 -0.9105 -2.4932 0.9803
