ply
format ascii 1.0
element vertex 465
property float32 x
property float32 y
property float32 z
property float32 I
end_header
18.4631 14.4772 4.1370 0.9091
17.1784 14.5089 3.9648 0.9127
16.0551 14.5927 3.8256 0.9156
32.0686 13.9533 5.3576 0.8680
28.5414 17.7304 5.1474 0.8729
28.4005 19.1081 5.2439 0.8706
16.0546 14.5922 3.3236 0.9160
40.9270 12.7183 5.5810 0.8412
32.4781 14.1314 4.6123 0.8669
28.3743 14.8853 4.1725 0.8788
28.5778 19.2274 4.4853 0.8703
19.8662 14.4426 3.1984 0.9057
18.4631 14.4772 3.0553 0.9097
17.1785 14.5089 2.9281 0.9133
29.6432 14.2014 3.5296 0.8761
28.5047 16.3020 3.5261 0.8763
28.5400 17.7296 3.6079 0.8736
18.4630 14.4772 2.5194 0.9099
17.1784 14.5089 2.4145 0.9135
15.9950 14.5380 2.3210 0.9167
32.4780 14.1314 2.9983 0.8675
28.5393 17.7291 2.8441 0.8738
18.4630 14.4771 1.9861 0.9101
17.1784 14.5088 1.9035 0.9137
29.6431 14.2013 2.0382 0.8766
28.4696 14.9353 1.9936 0.8791
19.8662 14.4425 1.5230 0.9063
17.1784 14.5088 1.3943 0.9138
15.9371 14.4855 1.3355 0.9173
29.6431 14.2013 1.2961 0.8767
28.3716 14.8839 1.2633 0.8796
16.0523 14.5901 0.8553 0.9168
35.5416 12.4790 0.6363 0.8601
29.6431 14.2013 0.5552 0.8768
28.3709 14.8836 0.5412 0.8797
19.8662 14.4425 0.4149 0.9064
18.4630 14.4771 0.3963 0.9104
17.1784 14.5088 0.3798 0.9140
16.0518 14.5897 0.3664 0.9169
32.4778 14.1313 -0.1994 0.8679
29.6430 14.2013 -0.1851 0.8768
28.4675 14.9342 -0.1810 0.8793
17.1784 14.5088 -0.1266 0.9140
37.2941 13.0944 -1.1129 0.8537
35.8344 14.0654 -1.0840 0.8572
28.4669 14.9339 -0.9052 0.8793
28.5006 16.2996 -0.9245 0.8769
22.7096 14.1076 -0.7528 0.8985
28.5727 19.2240 -0.9697 0.8713
19.8661 14.4425 -0.6916 0.9064
18.4630 14.4771 -0.6606 0.9104
36.8027 12.9218 -1.9781 0.8554
35.5910 13.9698 -1.9390 0.8580
32.4777 14.1313 -1.7962 0.8677
28.4662 14.9335 -1.6302 0.8792
17.1784 14.5088 -1.1403 0.9139
27.8592 -16.5175 -2.3747 0.8782
28.4478 -15.4972 -2.3753 0.8782
31.9293 -13.1137 -2.5309 0.8707
32.3905 -11.9461 -2.5313 0.8707
32.8083 -10.7621 -2.5317 0.8707
33.1825 -9.5633 -2.5320 0.8707
33.5123 -8.3515 -2.5323 0.8706
34.0371 -5.8951 -2.5328 0.8706
34.2314 -4.6539 -2.5330 0.8706
34.3798 -3.4064 -2.5331 0.8706
34.4822 -2.1541 -2.5332 0.8706
34.5384 -0.8989 -2.5333 0.8706
34.5484 0.3575 -2.5333 0.8706
33.9061 6.5979 -2.5327 0.8706
31.2994 8.4917 -2.3779 0.8780
30.9659 9.6229 -2.3776 0.8780
28.9572 10.1672 -2.2503 0.8842
27.6632 13.2528 -2.2491 0.8842
26.6155 15.2216 -2.2481 0.8843
20.9984 13.0446 -1.8126 0.9056
20.9649 14.1054 -1.8527 0.9036
19.8661 14.4425 -1.8009 0.9062
18.4629 14.4771 -1.7203 0.9102
15.9949 14.5380 -1.5848 0.9170
23.0753 -12.5704 -2.5227 0.8998
24.3179 -9.9876 -2.5239 0.8997
24.9855 -8.1959 -2.5245 0.8997
25.2696 -7.2828 -2.5247 0.8997
25.7364 -5.4280 -2.5252 0.8997
25.9185 -4.4890 -2.5253 0.8997
26.2564 -1.6402 -2.5257 0.8997
26.2991 -0.6845 -2.5257 0.8997
26.3066 0.2722 -2.5257 0.8997
25.8191 5.0242 -2.5252 0.8997
25.6174 5.9592 -2.5251 0.8997
25.1120 7.8037 -2.5246 0.8997
23.4141 8.2209 -2.3824 0.9051
22.9817 9.0205 -2.3702 0.9056
21.0702 10.0942 -2.2430 0.9104
20.6860 10.8520 -2.2426 0.9104
20.2742 11.5950 -2.2423 0.9104
19.8357 12.3223 -2.2419 0.9104
18.3649 14.4002 -2.2405 0.9105
12.8153 10.8237 -1.6104 0.9348
18.6195 -10.1431 -2.5186 0.9181
18.9784 -9.4606 -2.5189 0.9181
19.9025 -7.3403 -2.5198 0.9181
20.1581 -6.6124 -2.5200 0.9181
20.3869 -5.8756 -2.5202 0.9181
21.0282 -2.8589 -2.5208 0.9181
21.1190 -2.0925 -2.5209 0.9181
21.2159 -0.5522 -2.5210 0.9181
21.2047 0.2194 -2.5190 0.9181
21.1494 1.7612 -2.5209 0.9181
21.0708 2.5290 -2.5209 0.9181
20.9020 3.2836 -2.5133 0.9183
20.4771 5.5556 -2.5203 0.9181
20.0159 7.0278 -2.5199 0.9181
19.7451 7.7502 -2.5196 0.9181
18.8598 8.2060 -2.4432 0.9205
17.9601 8.6043 -2.3656 0.9229
17.2828 9.8842 -2.3650 0.9229
14.8212 11.6215 -2.2372 0.9269
15.2715 -9.0544 -2.5155 0.9308
16.4297 -6.7478 -2.5166 0.9308
16.6656 -6.1465 -2.5168 0.9308
16.8793 -5.5369 -2.5170 0.9307
17.2394 -4.2962 -2.5173 0.9307
17.3851 -3.6667 -2.5175 0.9307
17.5078 -3.0323 -2.5176 0.9307
17.6071 -2.3937 -2.5177 0.9307
17.6829 -1.7520 -2.5177 0.9307
17.7641 -0.4623 -2.5178 0.9307
17.7506 0.8299 -2.5178 0.9307
17.7084 1.4747 -2.5178 0.9307
17.6426 2.1176 -2.5177 0.9307
16.9646 5.2719 -2.5171 0.9307
16.7604 5.8848 -2.5169 0.9308
16.5340 6.4898 -2.5167 0.9308
16.2856 7.0860 -2.5165 0.9308
15.6214 8.1951 -2.4995 0.9312
14.4733 8.2774 -2.3624 0.9349
13.0270 10.2147 -2.3456 0.9353
11.6693 10.6064 -2.2343 0.9383
13.6578 -6.8083 -2.5140 0.9400
13.8976 -6.3078 -2.5143 0.9400
14.1189 -5.7988 -2.5145 0.9400
14.3215 -5.2820 -2.5147 0.9400
14.9392 -3.1508 -2.5152 0.9400
15.0445 -2.6056 -2.5153 0.9400
15.1298 -2.0570 -2.5154 0.9400
15.1950 -1.5055 -2.5155 0.9400
15.1603 1.8196 -2.5154 0.9400
15.0837 2.3696 -2.5154 0.9400
14.9870 2.9164 -2.5153 0.9400
14.8705 3.4592 -2.5152 0.9400
14.7341 3.9974 -2.5150 0.9400
14.2085 5.5770 -2.5145 0.9400
13.7634 6.5937 -2.5141 0.9400
13.5133 7.0892 -2.5139 0.9400
12.9597 8.0508 -2.5134 0.9400
11.2706 8.8375 -2.3594 0.9436
10.9404 9.2402 -2.3591 0.9436
10.5958 9.6306 -2.3588 0.9436
11.4961 -6.8159 -2.5120 0.9471
12.1729 -5.5250 -2.5127 0.9470
12.3666 -5.0791 -2.5129 0.9470
12.5439 -4.6264 -2.5130 0.9470
12.7046 -4.1675 -2.5132 0.9470
12.8484 -3.7029 -2.5133 0.9470
12.9752 -3.2335 -2.5134 0.9470
13.1768 -2.2822 -2.5136 0.9470
13.2515 -1.8016 -2.5137 0.9470
13.3085 -1.3186 -2.5137 0.9470
13.3478 -0.8338 -2.5138 0.9470
13.3694 -0.3479 -2.5138 0.9470
13.3732 0.1384 -2.5138 0.9470
13.3593 0.6246 -2.5138 0.9470
13.3276 1.1099 -2.5137 0.9470
13.2111 2.0754 -2.5136 0.9470
12.6152 4.4294 -2.5131 0.9470
12.4451 4.8848 -2.5129 0.9470
11.8365 6.2095 -2.5124 0.9471
11.3519 7.0520 -2.5119 0.9471
10.8073 7.8568 -2.5114 0.9471
10.4319 -5.6829 -2.5111 0.9526
10.9910 -4.5141 -2.5116 0.9526
11.1485 -4.1117 -2.5117 0.9526
11.4189 -3.2910 -2.5120 0.9526
11.5315 -2.8737 -2.5121 0.9526
11.7107 -2.0282 -2.5122 0.9526
11.7769 -1.6011 -2.5123 0.9526
11.8276 -1.1719 -2.5124 0.9526
11.8625 -0.7410 -2.5124 0.9526
11.8817 -0.3092 -2.5124 0.9526
11.8851 0.1230 -2.5124 0.9526
11.8727 0.5551 -2.5124 0.9526
11.8007 1.4164 -2.5123 0.9526
11.7411 1.8445 -2.5123 0.9526
11.3481 3.5265 -2.5119 0.9526
11.0606 4.3414 -2.5116 0.9526
10.5200 5.5189 -2.5111 0.9526
9.8541 6.6300 -2.5105 0.9526
9.6057 6.9832 -2.5103 0.9526
9.0710 7.6613 -2.5098 0.9526
9.3789 -5.1092 -2.5101 0.9571
9.5591 -4.7651 -2.5103 0.9571
9.8813 -4.0583 -2.5106 0.9571
10.1511 -3.3298 -2.5108 0.9571
10.2658 -2.9587 -2.5109 0.9571
10.4545 -2.2049 -2.5111 0.9570
10.5280 -1.8234 -2.5112 0.9570
10.5876 -1.4394 -2.5112 0.9570
10.6483 0.8868 -2.5113 0.9570
10.6089 1.2733 -2.5112 0.9570
10.4878 2.0409 -2.5111 0.9570
10.4064 2.4208 -2.5110 0.9570
10.0797 3.5391 -2.5107 0.9571
9.9439 3.9031 -2.5106 0.9571
9.6328 4.6149 -2.5103 0.9571
9.4580 4.9618 -2.5102 0.9571
9.0712 5.6352 -2.5098 0.9571
8.6363 6.2785 -2.5094 0.9571
8.4016 6.5878 -2.5092 0.9571
7.8991 7.1796 -2.5087 0.9571
8.8260 -4.0059 -2.5096 0.9607
9.0947 -3.3543 -2.5098 0.9607
9.2111 -3.0215 -2.5099 0.9607
9.3152 -2.6847 -2.5100 0.9607
9.6070 -1.3061 -2.5103 0.9607
9.6483 -0.9559 -2.5103 0.9607
9.6952 0.1003 -2.5104 0.9607
9.5778 1.5046 -2.5103 0.9607
9.5166 1.8519 -2.5102 0.9607
9.4427 2.1966 -2.5102 0.9607
9.3563 2.5384 -2.5101 0.9607
9.2575 2.8768 -2.5100 0.9607
8.8879 3.8672 -2.5096 0.9607
8.7410 4.1876 -2.5095 0.9607
8.5824 4.5024 -2.5094 0.9607
8.0396 5.4091 -2.5089 0.9608
7.6240 5.9781 -2.5085 0.9608
7.7817 -4.2392 -2.5086 0.9638
8.1983 -3.3671 -2.5090 0.9638
8.3157 -3.0669 -2.5091 0.9638
8.6736 -1.8293 -2.5094 0.9638
8.7346 -1.5128 -2.5095 0.9638
8.7839 -1.1942 -2.5095 0.9638
8.8343 0.7357 -2.5096 0.9638
8.7013 1.6932 -2.5095 0.9638
8.6338 2.0084 -2.5094 0.9638
8.5547 2.3209 -2.5093 0.9638
8.4644 2.6304 -2.5093 0.9638
7.9923 3.8289 -2.5088 0.9638
7.5266 4.6757 -2.5084 0.9638
7.3511 4.9459 -2.5082 0.9638
6.5546 5.9576 -2.5075 0.9638
7.0137 -4.1584 -2.5079 0.9665
7.5439 -3.0983 -2.5084 0.9664
7.7497 -2.5421 -2.5086 0.9664
7.8372 -2.2587 -2.5087 0.9664
7.9144 -1.9723 -2.5087 0.9664
8.0372 -1.3920 -2.5089 0.9664
8.0826 -1.0989 -2.5089 0.9664
8.1173 -0.8043 -2.5089 0.9664
8.1544 -0.2122 -2.5090 0.9664
8.1483 0.3809 -2.5090 0.9664
8.1290 0.6770 -2.5089 0.9664
8.0580 1.2659 -2.5089 0.9664
8.0065 1.5580 -2.5088 0.9664
7.7887 2.4204 -2.5086 0.9664
7.6953 2.7019 -2.5085 0.9664
7.4779 3.2537 -2.5083 0.9664
7.3544 3.5233 -2.5082 0.9664
7.0782 4.0480 -2.5080 0.9665
6.9259 4.3025 -2.5078 0.9665
6.4150 5.0301 -2.5074 0.9665
6.2274 5.2597 -2.5072 0.9665
6.0317 5.4822 -2.5070 0.9665
6.9790 -2.8663 -2.5079 0.9687
7.1693 -2.3517 -2.5081 0.9687
7.3834 -1.5572 -2.5083 0.9687
7.4772 -1.0166 -2.5083 0.9687
7.5315 -0.4705 -2.5084 0.9687
7.5458 0.0781 -2.5084 0.9687
7.5380 0.3524 -2.5084 0.9687
7.5201 0.6262 -2.5084 0.9687
7.4923 0.8993 -2.5084 0.9687
7.4546 1.1711 -2.5083 0.9687
7.4069 1.4413 -2.5083 0.9687
7.2054 2.2391 -2.5081 0.9687
6.4074 3.9804 -2.5074 0.9687
6.2581 4.2105 -2.5072 0.9687
6.1005 4.4350 -2.5071 0.9687
5.9349 4.6536 -2.5069 0.9687
5.5802 5.0719 -2.5066 0.9687
6.0303 -3.5753 -2.5070 0.9707
6.2747 -3.1279 -2.5072 0.9707
6.3846 -2.8978 -2.5073 0.9707
6.4860 -2.6638 -2.5074 0.9707
6.5788 -2.4263 -2.5075 0.9707
6.6628 -2.1856 -2.5076 0.9707
6.7381 -1.9419 -2.5077 0.9707
6.8044 -1.6957 -2.5077 0.9706
6.8617 -1.4472 -2.5078 0.9706
6.9099 -1.1968 -2.5078 0.9706
6.9490 -0.9447 -2.5079 0.9706
7.0107 -0.1825 -2.5079 0.9706
7.0054 0.3275 -2.5079 0.9706
6.9888 0.5820 -2.5079 0.9706
6.9630 0.8357 -2.5079 0.9706
6.9279 1.0883 -2.5078 0.9706
6.6964 2.0809 -2.5076 0.9707
6.6161 2.3230 -2.5075 0.9707
6.4293 2.7974 -2.5074 0.9707
6.2085 3.2570 -2.5072 0.9707
5.5157 4.3250 -2.5065 0.9707
5.1862 4.7138 -2.5062 0.9707
5.8545 -2.9184 -2.5068 0.9724
5.9570 -2.7037 -2.5069 0.9724
6.1381 -2.2638 -2.5071 0.9724
6.2165 -2.0392 -2.5072 0.9724
6.2867 -1.8119 -2.5072 0.9724
6.3486 -1.5821 -2.5073 0.9724
6.4470 -1.1166 -2.5074 0.9724
6.4834 -0.8814 -2.5074 0.9724
6.5410 -0.1702 -2.5075 0.9724
6.5429 0.0677 -2.5075 0.9724
6.4965 0.7797 -2.5074 0.9724
6.4638 1.0154 -2.5074 0.9724
6.4225 1.2498 -2.5074 0.9724
6.2478 1.9415 -2.5072 0.9724
6.1729 2.1674 -2.5071 0.9724
6.0898 2.3903 -2.5071 0.9724
5.9987 2.6101 -2.5070 0.9724
5.6781 3.2474 -2.5067 0.9724
5.5561 3.4515 -2.5066 0.9724
5.2900 3.8458 -2.5063 0.9724
4.8390 4.3982 -2.5059 0.9724
5.2675 -3.1231 -2.5063 0.9739
5.7465 -2.1194 -2.5067 0.9739
5.8199 -1.9091 -2.5068 0.9739
5.8856 -1.6963 -2.5069 0.9739
5.9936 -1.2641 -2.5070 0.9739
6.0356 -1.0453 -2.5070 0.9739
6.0958 -0.6040 -2.5071 0.9739
6.1138 -0.3819 -2.5071 0.9739
6.1237 -0.1594 -2.5071 0.9739
6.1254 0.0634 -2.5071 0.9739
6.0513 0.9506 -2.5070 0.9739
5.9115 1.6038 -2.5069 0.9739
5.7791 2.0291 -2.5068 0.9739
5.7013 2.2378 -2.5067 0.9739
5.6160 2.4436 -2.5066 0.9739
5.5232 2.6460 -2.5065 0.9739
5.4232 2.8450 -2.5064 0.9739
5.2017 3.2313 -2.5062 0.9739
5.0805 3.4182 -2.5061 0.9739
4.9526 3.6005 -2.5060 0.9739
4.8182 3.7780 -2.5059 0.9739
4.9462 -2.9325 -2.5060 0.9752
5.0497 -2.7508 -2.5061 0.9752
5.1466 -2.5655 -2.5062 0.9752
5.4647 -1.7926 -2.5065 0.9752
5.5264 -1.5927 -2.5065 0.9752
5.5808 -1.3908 -2.5066 0.9752
5.6278 -1.1869 -2.5066 0.9752
5.7499 -0.1496 -2.5067 0.9752
5.7456 0.2686 -2.5067 0.9752
5.7320 0.4773 -2.5067 0.9752
5.7108 0.6854 -2.5067 0.9752
5.4922 1.7067 -2.5065 0.9752
5.3534 2.1012 -2.5064 0.9752
5.1862 2.4846 -2.5062 0.9752
5.0923 2.6714 -2.5061 0.9752
4.9916 2.8547 -2.5060 0.9752
4.8843 3.0342 -2.5060 0.9752
4.3921 3.7095 -2.5055 0.9752
4.6564 -2.7608 -2.5057 0.9764
4.8451 -2.4152 -2.5059 0.9764
4.9298 -2.2375 -2.5060 0.9764
5.1446 -1.6876 -2.5062 0.9764
5.2981 -1.1174 -2.5063 0.9764
5.3353 -0.9240 -2.5064 0.9764
5.3884 -0.5339 -2.5064 0.9764
5.4043 -0.3376 -2.5064 0.9764
5.4130 -0.1409 -2.5064 0.9764
5.4146 0.0560 -2.5064 0.9764
5.4089 0.2529 -2.5064 0.9764
5.3961 0.4494 -2.5064 0.9764
5.3762 0.6453 -2.5064 0.9764
5.3491 0.8403 -2.5064 0.9764
5.2256 1.4177 -2.5063 0.9764
5.1704 1.6067 -2.5062 0.9764
5.0398 1.9782 -2.5061 0.9764
4.8824 2.3390 -2.5059 0.9764
4.7940 2.5149 -2.5059 0.9764
4.5982 2.8565 -2.5057 0.9764
4.4911 3.0217 -2.5056 0.9764
4.1349 3.4923 -2.5053 0.9764
4.5716 -2.2789 -2.5057 0.9775
4.7254 -1.9408 -2.5058 0.9775
4.7930 -1.7677 -2.5059 0.9775
4.8542 -1.5923 -2.5059 0.9775
4.9090 -1.4148 -2.5060 0.9775
4.9573 -1.2354 -2.5060 0.9775
5.0341 -0.8719 -2.5061 0.9775
5.0842 -0.5037 -2.5061 0.9775
5.0992 -0.3186 -2.5061 0.9775
5.1074 -0.1329 -2.5062 0.9775
5.1089 0.0529 -2.5062 0.9775
5.1036 0.2386 -2.5062 0.9775
5.0915 0.4240 -2.5061 0.9775
5.0727 0.6088 -2.5061 0.9775
5.0472 0.7929 -2.5061 0.9775
4.8201 1.6924 -2.5059 0.9775
4.6842 2.0381 -2.5058 0.9775
4.3387 2.6953 -2.5054 0.9775
4.2377 2.8511 -2.5054 0.9775
4.1311 3.0032 -2.5053 0.9775
3.9015 3.2952 -2.5050 0.9775
4.1540 -2.4629 -2.5053 0.9785
4.2409 -2.3103 -2.5054 0.9785
4.3978 -1.9961 -2.5055 0.9785
4.4676 -1.8349 -2.5056 0.9785
4.5315 -1.6713 -2.5056 0.9785
4.6412 -1.3376 -2.5057 0.9785
4.7262 -0.9968 -2.5058 0.9785
4.7863 -0.6507 -2.5059 0.9785
4.8068 -0.4763 -2.5059 0.9785
4.8137 0.4009 -2.5059 0.9785
4.7718 0.7496 -2.5058 0.9785
4.7413 0.9226 -2.5058 0.9785
4.7046 1.0944 -2.5058 0.9785
4.6124 1.4333 -2.5057 0.9785
4.4286 1.9269 -2.5055 0.9785
4.2767 2.2435 -2.5054 0.9785
4.1921 2.3975 -2.5053 0.9785
3.9057 2.8394 -2.5050 0.9785
3.5729 3.2474 -2.5047 0.9785
4.2313 -1.7378 -2.5053 0.9794
4.3466 -1.4258 -2.5055 0.9794
4.5077 -0.7807 -2.5056 0.9794
4.5660 -0.2852 -2.5057 0.9794
4.5733 -0.1190 -2.5057 0.9794
4.5699 0.2136 -2.5057 0.9794
4.5591 0.3797 -2.5057 0.9794
4.5422 0.5452 -2.5056 0.9794
4.5194 0.7100 -2.5056 0.9794
4.4150 1.1978 -2.5055 0.9794
4.3685 1.3575 -2.5055 0.9794
4.3161 1.5154 -2.5054 0.9794
3.9704 2.2707 -2.5051 0.9794
3.8851 2.4135 -2.5050 0.9794
3.6992 2.6892 -2.5049 0.9794
3.3839 3.0757 -2.5046 0.9794
3.7320 -2.2127 -2.5049 0.9802
3.8831 -1.9357 -2.5050 0.9802
4.2106 -1.0493 -2.5053 0.9802
4.2758 -0.7406 -2.5054 0.9802
4.3000 -0.5846 -2.5054 0.9802
4.3184 -0.4279 -2.5054 0.9802
4.3381 -0.1129 -2.5054 0.9802
4.3246 0.3601 -2.5054 0.9802
4.2266 0.9832 -2.5053 0.9802
3.9130 1.8746 -2.5051 0.9802
3.8422 2.0156 -2.5050 0.9802
3.7662 2.1539 -2.5049 0.9802
3.5090 2.5510 -2.5047 0.9802
