ply
format ascii 1.0
element vertex 487
property float32 x
property float32 y
property float32 z
property float32 I
end_header
-3.7934 -18.5754 3.3429 0.9259
-3.0932 -18.5686 3.3193 0.9264
-24.6091 -17.0338 3.2138 0.8866
1.5091 -16.8045 0.2850 0.9347
1.9646 -15.5171 0.2642 0.9393
3.1301 -15.5459 0.2679 0.9385
3.7267 -15.5606 0.2703 0.9380
4.9568 -15.5910 0.2764 0.9366
1.5091 -16.8046 -0.0950 0.9347
3.3975 -16.8735 -0.0969 0.9335
4.0450 -16.8895 -0.0978 0.9329
2.7606 -16.8578 -0.4810 0.9339
3.3975 -16.8735 -0.4847 0.9334
4.7051 -16.9058 -0.4941 0.9322
-40.8554 -24.0865 -2.4052 0.8270
-40.3357 -25.8016 -2.4283 0.8255
-39.7444 -27.5101 -2.4513 0.8240
-35.0217 -35.1576 -2.5167 0.8198
-33.1605 -35.8040 -2.4749 0.8225
-29.5487 -36.9668 -2.4001 0.8273
-27.8902 -37.6197 -2.3750 0.8290
-24.8368 -39.1609 -2.3518 0.8305
-21.7515 -40.5401 -2.3332 0.8317
-19.9723 -44.7595 -2.4857 0.8218
-15.0026 -46.7431 -2.4896 0.8215
-9.8388 -48.1789 -2.4938 0.8212
-8.0847 -48.5321 -2.4952 0.8211
0.7805 -46.4213 -2.3545 0.8303
5.8395 -46.1220 -2.3577 0.8301
2.7606 -16.8578 -0.8663 0.9339
4.7051 -16.9058 -0.8899 0.9321
-27.3434 -16.1204 -2.3274 0.8805
-24.7849 -19.9692 -2.3337 0.8802
-23.3109 -21.7587 -2.3381 0.8799
-22.4717 -22.5590 -2.3347 0.8801
-21.6217 -23.3454 -2.3331 0.8802
-21.0081 -26.2822 -2.4670 0.8738
-19.1908 -27.9561 -2.4863 0.8728
-18.1674 -28.6450 -2.4871 0.8728
-17.1193 -29.2966 -2.4879 0.8728
-16.0481 -29.9101 -2.4888 0.8727
-14.9549 -30.4847 -2.4897 0.8727
-13.8413 -31.0195 -2.4906 0.8726
-12.7087 -31.5139 -2.4915 0.8726
-10.3921 -32.3783 -2.4933 0.8725
-6.8117 -33.3558 -2.4962 0.8724
-5.5963 -33.5946 -2.4972 0.8723
-4.1101 -31.7608 -2.3482 0.8795
-1.7942 -32.0403 -2.3529 0.8792
-0.6280 -32.0943 -2.3537 0.8792
0.5398 -32.1058 -2.3544 0.8792
1.7076 -32.0749 -2.3551 0.8791
1.4940 -16.6363 -1.2247 0.9352
3.3975 -16.8735 -1.2620 0.9333
4.0450 -16.8895 -1.2734 0.9327
4.7051 -16.9058 -1.2867 0.9320
9.7540 -30.6803 -2.3605 0.8789
-22.2868 -13.1393 -2.4838 0.9013
-21.7977 -13.9433 -2.4842 0.9012
-19.5598 -16.9687 -2.4860 0.9012
-17.6064 -19.0100 -2.4876 0.9011
-16.1854 -20.2487 -2.4887 0.9011
-15.4420 -20.8289 -2.4893 0.9011
-13.0915 -22.4038 -2.4912 0.9010
-12.2713 -22.8711 -2.4918 0.9010
-11.4345 -23.3085 -2.4925 0.9009
-10.5821 -23.7154 -2.4932 0.9009
-9.7154 -24.0913 -2.4939 0.9009
-8.8353 -24.4356 -2.4946 0.9009
-7.9430 -24.7478 -2.4953 0.9008
-7.0398 -25.0276 -2.4960 0.9008
-6.1267 -25.2744 -2.4967 0.9008
-4.8881 -23.9362 -2.3454 0.9065
-3.1434 -24.2907 -2.3515 0.9063
-1.3704 -24.4730 -2.3532 0.9062
-0.4796 -24.5125 -2.3538 0.9062
0.4123 -24.5202 -2.3544 0.9062
3.0825 -24.3465 -2.3560 0.9061
3.3975 -16.8735 -1.6525 0.9332
4.7051 -16.9058 -1.6847 0.9319
7.4417 -23.4071 -2.3580 0.9060
-18.0372 -10.6340 -2.4872 0.9191
-17.6408 -11.2843 -2.4875 0.9191
-16.7786 -12.5402 -2.4882 0.9191
-15.8275 -13.7309 -2.4890 0.9191
-14.7926 -14.8499 -2.4898 0.9190
-13.6789 -15.8916 -2.4907 0.9190
-13.0944 -16.3817 -2.4912 0.9190
-11.8736 -17.2969 -2.4921 0.9190
-11.2390 -17.7209 -2.4927 0.9189
-9.9253 -18.4987 -2.4937 0.9189
-7.8568 -19.4826 -2.4954 0.9189
-6.4228 -20.0114 -2.4965 0.9188
-4.6518 -19.1900 -2.3455 0.9235
-2.5409 -19.6348 -2.3518 0.9233
-0.3876 -19.8092 -2.3535 0.9233
1.0537 -19.7909 -2.3542 0.9233
1.5091 -16.8046 -2.0042 0.9343
3.9143 -19.4402 -2.3556 0.9232
5.3184 -19.1094 -2.3562 0.9232
-15.1358 -8.9233 -2.4895 0.9315
-14.8028 -9.4689 -2.4898 0.9315
-14.4503 -10.0021 -2.4901 0.9315
-14.0786 -10.5223 -2.4904 0.9315
-13.6884 -11.0287 -2.4907 0.9314
-13.2800 -11.5208 -2.4910 0.9314
-12.4109 -12.4591 -2.4917 0.9314
-10.9851 -13.7429 -2.4929 0.9314
-9.4277 -14.8650 -2.4941 0.9314
-8.8825 -15.2007 -2.4945 0.9313
-8.3252 -15.5165 -2.4950 0.9313
-7.7569 -15.8119 -2.4954 0.9313
-5.3864 -16.7822 -2.4973 0.9313
-1.5277 -16.5011 -2.3480 0.9352
-0.9267 -16.5491 -2.3485 0.9352
0.2788 -16.5795 -2.3495 0.9352
0.8817 -16.5618 -2.3500 0.9352
1.4837 -16.5222 -2.3504 0.9352
2.0841 -16.4606 -2.3509 0.9352
2.6819 -16.3773 -2.3514 0.9352
3.2764 -16.2722 -2.3519 0.9351
5.0321 -15.8280 -2.3533 0.9351
-11.7804 -9.4914 -2.4922 0.9405
-11.4287 -9.9147 -2.4925 0.9405
-11.0618 -10.3250 -2.4928 0.9405
-10.6803 -10.7218 -2.4931 0.9405
-10.2846 -11.1045 -2.4934 0.9405
-9.8753 -11.4727 -2.4937 0.9405
-9.4528 -11.8259 -2.4941 0.9405
-9.0177 -12.1635 -2.4944 0.9405
-8.1121 -12.7905 -2.4952 0.9404
-7.6427 -13.0791 -2.4955 0.9404
-6.6738 -13.6042 -2.4963 0.9404
-5.6691 -14.0579 -2.4971 0.9404
-4.1064 -14.5990 -2.4984 0.9404
-3.5734 -14.7412 -2.4988 0.9404
-3.0355 -14.8640 -2.4992 0.9404
-2.4933 -14.9671 -2.4996 0.9403
-1.9477 -15.0505 -2.5001 0.9403
-1.3992 -15.1141 -2.5005 0.9403
-0.8488 -15.1576 -2.5010 0.9403
0.2553 -15.1846 -2.5018 0.9403
1.9086 -15.0744 -2.5032 0.9403
2.4560 -14.9977 -2.5036 0.9403
3.0003 -14.9010 -2.5040 0.9402
3.5409 -14.7846 -2.5045 0.9402
4.0769 -14.6486 -2.5049 0.9402
-11.1717 -7.1462 -2.4927 0.9475
-10.9054 -7.5484 -2.4929 0.9475
-10.6246 -7.9408 -2.4931 0.9474
-10.3298 -8.3227 -2.4934 0.9474
-9.6994 -9.0533 -2.4939 0.9474
-9.3648 -9.4011 -2.4941 0.9474
-9.0177 -9.7366 -2.4944 0.9474
-8.2880 -10.3687 -2.4950 0.9474
-7.9064 -10.6646 -2.4953 0.9474
-7.1121 -11.2139 -2.4960 0.9474
-6.7005 -11.4667 -2.4963 0.9474
-6.2799 -11.7044 -2.4966 0.9474
-4.9699 -12.3238 -2.4977 0.9474
-4.5190 -12.4983 -2.4980 0.9473
-4.0621 -12.6562 -2.4984 0.9473
-3.5996 -12.7974 -2.4988 0.9473
-2.1855 -13.1193 -2.4999 0.9473
-1.7072 -13.1921 -2.5003 0.9473
-1.2265 -13.2475 -2.5007 0.9473
0.2238 -13.3085 -2.5018 0.9473
1.6727 -13.2111 -2.5030 0.9472
2.1524 -13.1435 -2.5034 0.9472
3.5727 -12.8367 -2.5045 0.9472
4.0377 -12.7002 -2.5049 0.9472
-10.1618 -5.9909 -2.4935 0.9529
-9.7009 -6.7147 -2.4939 0.9529
-9.1887 -7.4033 -2.4943 0.9529
-8.9141 -7.7333 -2.4945 0.9529
-7.0324 -9.4857 -2.4960 0.9529
-6.6835 -9.7362 -2.4963 0.9529
-5.9595 -10.1987 -2.4969 0.9529
-4.8151 -10.7910 -2.4978 0.9528
-4.0190 -11.1153 -2.4984 0.9528
-3.2013 -11.3810 -2.4991 0.9528
-2.3662 -11.5867 -2.4998 0.9528
-1.9435 -11.6667 -2.5001 0.9528
-1.5181 -11.7313 -2.5004 0.9528
-0.6616 -11.8138 -2.5011 0.9528
0.6293 -11.8205 -2.5021 0.9528
1.0589 -11.7914 -2.5025 0.9528
1.4872 -11.7467 -2.5028 0.9527
2.7589 -11.5195 -2.5039 0.9527
3.1764 -11.4131 -2.5042 0.9527
3.5899 -11.2915 -2.5045 0.9527
-9.1425 -5.3900 -2.4943 0.9573
-8.7277 -6.0411 -2.4947 0.9573
-8.5029 -6.3550 -2.4948 0.9573
-7.4940 -7.5231 -2.4956 0.9573
-6.9286 -8.0494 -2.4961 0.9573
-5.3610 -9.1745 -2.4974 0.9573
-5.0244 -9.3644 -2.4976 0.9573
-4.6810 -9.5420 -2.4979 0.9573
-4.3314 -9.7070 -2.4982 0.9573
-3.9759 -9.8592 -2.4985 0.9573
-2.1283 -10.4219 -2.4999 0.9572
-0.9809 -10.5956 -2.5009 0.9572
-0.5950 -10.6256 -2.5012 0.9572
0.9524 -10.6048 -2.5024 0.9572
2.8566 -10.2639 -2.5039 0.9572
-8.1180 -5.1929 -2.4951 0.9610
-7.9243 -5.4850 -2.4953 0.9610
-7.7201 -5.7700 -2.4955 0.9610
-7.0473 -6.5779 -2.4960 0.9610
-6.8039 -6.8303 -2.4962 0.9609
-6.5515 -7.0738 -2.4964 0.9609
-6.0210 -7.5326 -2.4968 0.9609
-5.4586 -7.9518 -2.4973 0.9609
-5.1663 -8.1458 -2.4975 0.9609
-4.5614 -8.5014 -2.4980 0.9609
-4.2496 -8.6625 -2.4982 0.9609
-3.9321 -8.8123 -2.4985 0.9609
-2.9499 -9.1910 -2.4993 0.9609
-2.2746 -9.3831 -2.4998 0.9609
-1.9320 -9.4607 -2.5001 0.9609
-1.2395 -9.5782 -2.5007 0.9609
0.1625 -9.6610 -2.5018 0.9609
0.5137 -9.6498 -2.5021 0.9609
1.2141 -9.5891 -2.5026 0.9608
1.5622 -9.5397 -2.5029 0.9608
1.9083 -9.4776 -2.5032 0.9608
2.2520 -9.4030 -2.5034 0.9608
2.5927 -9.3159 -2.5037 0.9608
2.9301 -9.2164 -2.5040 0.9608
-7.5939 -4.4770 -2.4956 0.9640
-7.4264 -4.7505 -2.4957 0.9640
-7.2492 -5.0177 -2.4958 0.9640
-7.0623 -5.2783 -2.4960 0.9640
-6.8661 -5.5320 -2.4961 0.9640
-6.6608 -5.7784 -2.4963 0.9640
-6.4467 -6.0173 -2.4965 0.9640
-6.2240 -6.2482 -2.4967 0.9640
-5.9931 -6.4709 -2.4968 0.9640
-4.4520 -7.6188 -2.4981 0.9640
-4.1724 -7.7764 -2.4983 0.9640
-3.5967 -8.0606 -2.4988 0.9640
-3.3015 -8.1868 -2.4990 0.9640
-2.3909 -8.5002 -2.4997 0.9640
-1.7671 -8.6532 -2.5002 0.9640
-1.1337 -8.7606 -2.5007 0.9639
-0.8144 -8.7969 -2.5010 0.9639
-0.4940 -8.8216 -2.5012 0.9639
-0.1729 -8.8346 -2.5015 0.9639
0.1486 -8.8360 -2.5018 0.9639
0.7906 -8.8036 -2.5023 0.9639
2.0595 -8.5995 -2.5033 0.9639
2.6797 -8.4287 -2.5038 0.9639
-6.5012 -4.8590 -2.4964 0.9666
-5.7295 -5.7517 -2.4971 0.9666
-5.5169 -5.9567 -2.4972 0.9666
-4.8363 -6.5235 -2.4978 0.9666
-4.5963 -6.6956 -2.4980 0.9666
-3.8406 -7.1581 -2.4986 0.9666
-3.5781 -7.2937 -2.4988 0.9666
-3.3107 -7.4196 -2.4990 0.9666
-2.4836 -7.7381 -2.4997 0.9666
-2.2007 -7.8240 -2.4999 0.9666
-1.9149 -7.8996 -2.5001 0.9666
-1.0435 -8.0634 -2.5008 0.9665
-0.7496 -8.0968 -2.5010 0.9665
-0.1591 -8.1314 -2.5015 0.9665
0.7277 -8.1026 -2.5022 0.9665
1.0219 -8.0716 -2.5025 0.9665
1.3149 -8.0298 -2.5027 0.9665
1.8955 -7.9145 -2.5032 0.9665
2.1823 -7.8410 -2.5034 0.9665
-6.1759 -4.2748 -2.4967 0.9688
-6.0166 -4.4968 -2.4968 0.9688
-5.8494 -4.7129 -2.4970 0.9688
-5.4920 -5.1262 -2.4972 0.9688
-4.9019 -5.6949 -2.4977 0.9688
-4.2534 -6.1962 -2.4982 0.9688
-3.7924 -6.4899 -2.4986 0.9688
-3.0637 -6.8660 -2.4992 0.9688
-2.5569 -7.0717 -2.4996 0.9688
-0.9655 -7.4613 -2.5009 0.9688
-0.4207 -7.5131 -2.5013 0.9688
0.1265 -7.5251 -2.5017 0.9688
0.4001 -7.5162 -2.5020 0.9688
0.6733 -7.4973 -2.5022 0.9688
1.2167 -7.4298 -2.5026 0.9688
-6.0146 -3.5459 -2.4968 0.9708
-5.7414 -3.9741 -2.4970 0.9708
-5.4379 -4.3813 -2.4973 0.9708
-4.9292 -4.9483 -2.4977 0.9708
-4.5570 -5.2942 -2.4980 0.9708
-4.1607 -5.6121 -2.4983 0.9708
-3.9541 -5.7601 -2.4985 0.9708
-3.5254 -6.0331 -2.4988 0.9708
-3.0780 -6.2743 -2.4992 0.9707
-2.8480 -6.3825 -2.4994 0.9707
-2.6142 -6.4824 -2.4996 0.9707
-2.3769 -6.5737 -2.4997 0.9707
-2.1364 -6.6563 -2.4999 0.9707
-1.6472 -6.7950 -2.5003 0.9707
-1.3991 -6.8510 -2.5005 0.9707
-1.1491 -6.8979 -2.5007 0.9707
0.3720 -6.9864 -2.5019 0.9707
1.6302 -6.8067 -2.5029 0.9707
1.8768 -6.7434 -2.5031 0.9707
-5.6133 -3.3094 -2.4971 0.9725
-5.3584 -3.7089 -2.4974 0.9725
-5.2202 -3.9015 -2.4975 0.9725
-5.0751 -4.0890 -2.4976 0.9725
-4.2529 -4.9408 -2.4982 0.9725
-3.8829 -5.2375 -2.4985 0.9725
-3.6901 -5.3756 -2.4987 0.9725
-3.4924 -5.5066 -2.4988 0.9725
-3.0833 -5.7466 -2.4992 0.9725
-2.4396 -6.0495 -2.4997 0.9724
-2.2181 -6.1347 -2.4999 0.9724
-1.7666 -6.2806 -2.5002 0.9724
-1.5371 -6.3411 -2.5004 0.9724
-0.8376 -6.4723 -2.5010 0.9724
-0.1277 -6.5265 -2.5015 0.9724
0.1098 -6.5273 -2.5017 0.9724
0.3471 -6.5195 -2.5019 0.9724
0.5840 -6.5030 -2.5021 0.9724
1.2891 -6.4022 -2.5027 0.9724
1.5212 -6.3515 -2.5029 0.9724
1.7513 -6.2925 -2.5030 0.9724
-4.7525 -3.8291 -2.4978 0.9740
-4.6102 -3.9995 -2.4980 0.9740
-4.1479 -4.4785 -2.4983 0.9740
-3.4554 -5.0337 -2.4989 0.9740
-2.8872 -5.3811 -2.4993 0.9740
-2.6897 -5.4829 -2.4995 0.9740
-2.0770 -5.7444 -2.5000 0.9739
-1.6542 -5.8809 -2.5003 0.9739
-1.4393 -5.9376 -2.5005 0.9739
-1.0041 -6.0274 -2.5008 0.9739
-0.3417 -6.1021 -2.5014 0.9739
0.3250 -6.1044 -2.5019 0.9739
0.5468 -6.0889 -2.5021 0.9739
0.7680 -6.0655 -2.5023 0.9739
1.2070 -5.9944 -2.5026 0.9739
1.8531 -5.8285 -2.5031 0.9739
-4.9369 -2.9106 -2.4977 0.9753
-4.8280 -3.0883 -2.4978 0.9753
-4.5911 -3.4313 -2.4980 0.9753
-4.3299 -3.7563 -2.4982 0.9753
-4.1906 -3.9115 -2.4983 0.9753
-4.0458 -4.0615 -2.4984 0.9753
-3.8956 -4.2061 -2.4985 0.9753
-3.7402 -4.3452 -2.4986 0.9753
-2.5261 -5.1492 -2.4996 0.9753
-2.3373 -5.2380 -2.4998 0.9753
-2.1454 -5.3199 -2.4999 0.9753
-1.7532 -5.4625 -2.5002 0.9753
-1.3517 -5.5761 -2.5006 0.9753
-1.1481 -5.6220 -2.5007 0.9753
-0.9429 -5.6604 -2.5009 0.9753
-0.7365 -5.6913 -2.5011 0.9753
-0.5291 -5.7147 -2.5012 0.9753
-0.3209 -5.7305 -2.5014 0.9753
0.0965 -5.7395 -2.5017 0.9753
0.3052 -5.7326 -2.5019 0.9753
0.5135 -5.7181 -2.5021 0.9753
0.7212 -5.6960 -2.5022 0.9753
0.9279 -5.6663 -2.5024 0.9753
1.1335 -5.6292 -2.5025 0.9753
1.5398 -5.5327 -2.5029 0.9753
1.7401 -5.4734 -2.5030 0.9753
-4.5461 -2.9080 -2.4980 0.9765
-4.4375 -3.0715 -2.4981 0.9765
-4.0770 -3.5369 -2.4984 0.9765
-3.6680 -3.9604 -2.4987 0.9765
-3.5217 -4.0914 -2.4988 0.9765
-3.2153 -4.3370 -2.4991 0.9765
-2.8919 -4.5597 -2.4993 0.9765
-2.7243 -4.6621 -2.4995 0.9765
-2.5531 -4.7584 -2.4996 0.9765
-2.3784 -4.8484 -2.4997 0.9765
-2.2007 -4.9319 -2.4999 0.9765
-2.0200 -5.0090 -2.5000 0.9765
-1.8366 -5.0794 -2.5002 0.9765
-1.6507 -5.1432 -2.5003 0.9765
-1.2727 -5.2502 -2.5006 0.9765
-0.8878 -5.3295 -2.5009 0.9765
-0.6934 -5.3586 -2.5011 0.9765
-0.3021 -5.3955 -2.5014 0.9765
0.2873 -5.3973 -2.5019 0.9765
0.6790 -5.3628 -2.5022 0.9765
0.8736 -5.3349 -2.5023 0.9765
1.4497 -5.2090 -2.5028 0.9764
1.6383 -5.1531 -2.5030 0.9764
-4.3871 -2.5864 -2.4981 0.9776
-4.0797 -3.0492 -2.4984 0.9776
-3.9663 -3.1956 -2.4985 0.9776
-3.7238 -3.4758 -2.4987 0.9776
-3.1810 -3.9796 -2.4991 0.9776
-3.0343 -4.0929 -2.4992 0.9776
-2.8836 -4.2007 -2.4993 0.9776
-2.7291 -4.3030 -2.4995 0.9776
-2.5709 -4.3997 -2.4996 0.9776
-2.4093 -4.4905 -2.4997 0.9776
-2.2445 -4.5754 -2.4998 0.9776
-2.0768 -4.6542 -2.5000 0.9775
-1.9062 -4.7269 -2.5001 0.9775
-1.5578 -4.8535 -2.5004 0.9775
-1.3803 -4.9073 -2.5005 0.9775
-1.2010 -4.9545 -2.5007 0.9775
-0.8378 -5.0293 -2.5010 0.9775
-0.4701 -5.0775 -2.5013 0.9775
-0.2851 -5.0915 -2.5014 0.9775
-0.0998 -5.0988 -2.5016 0.9775
0.0857 -5.0994 -2.5017 0.9775
0.4562 -5.0803 -2.5020 0.9775
1.0070 -5.0012 -2.5024 0.9775
1.1883 -4.9616 -2.5026 0.9775
-4.1485 -2.4458 -2.4983 0.9785
-3.9600 -2.7410 -2.4985 0.9785
-3.8578 -2.8833 -2.4986 0.9785
-3.7505 -3.0218 -2.4986 0.9785
-3.3995 -3.4127 -2.4989 0.9785
-3.2732 -3.5342 -2.4990 0.9785
-3.0079 -3.7631 -2.4992 0.9785
-2.8692 -3.8701 -2.4993 0.9785
-2.5805 -4.0688 -2.4996 0.9785
-2.4310 -4.1602 -2.4997 0.9785
-2.2782 -4.2461 -2.4998 0.9785
-2.1224 -4.3263 -2.4999 0.9785
-1.9637 -4.4009 -2.5001 0.9785
-1.6388 -4.5325 -2.5003 0.9785
-1.4730 -4.5893 -2.5005 0.9785
-1.1356 -4.6847 -2.5007 0.9785
-0.7921 -4.7554 -2.5010 0.9785
-0.6187 -4.7813 -2.5011 0.9785
-0.4445 -4.8010 -2.5013 0.9785
-0.0943 -4.8211 -2.5016 0.9785
0.2564 -4.8158 -2.5018 0.9785
0.4314 -4.8035 -2.5020 0.9785
0.7795 -4.7600 -2.5023 0.9785
1.1235 -4.6912 -2.5025 0.9785
1.2935 -4.6475 -2.5027 0.9785
1.4617 -4.5977 -2.5028 0.9785
-3.7511 -2.5964 -2.4986 0.9794
-3.5526 -2.8624 -2.4988 0.9794
-2.9769 -3.4584 -2.4993 0.9794
-2.8492 -3.5645 -2.4994 0.9794
-2.7178 -3.6659 -2.4995 0.9794
-2.5828 -3.7625 -2.4996 0.9794
-2.4444 -3.8542 -2.4997 0.9794
-2.3027 -3.9407 -2.4998 0.9794
-2.0104 -4.0980 -2.5000 0.9794
-1.8601 -4.1686 -2.5002 0.9794
-1.7073 -4.2337 -2.5003 0.9794
-1.2362 -4.3951 -2.5007 0.9794
-0.9136 -4.4738 -2.5009 0.9794
-0.5860 -4.5289 -2.5012 0.9794
-0.0894 -4.5665 -2.5016 0.9794
0.2429 -4.5614 -2.5018 0.9794
0.5738 -4.5322 -2.5021 0.9794
0.7383 -4.5085 -2.5022 0.9794
0.9018 -4.4789 -2.5024 0.9794
1.0642 -4.4434 -2.5025 0.9794
1.2251 -4.4020 -2.5026 0.9794
1.3845 -4.3548 -2.5027 0.9794
-3.6458 -2.3321 -2.4987 0.9802
-3.5587 -2.4632 -2.4988 0.9802
-3.4669 -2.5911 -2.4989 0.9802
-3.3704 -2.7156 -2.4989 0.9802
-3.0549 -3.0668 -2.4992 0.9802
-2.9415 -3.1760 -2.4993 0.9802
-2.7030 -3.3817 -2.4995 0.9802
-2.5784 -3.4779 -2.4996 0.9802
-2.4503 -3.5695 -2.4997 0.9802
-2.1845 -3.7385 -2.4999 0.9802
-1.7646 -3.9547 -2.5002 0.9802
-1.6197 -4.0164 -2.5003 0.9802
-1.0204 -4.2096 -2.5008 0.9802
-0.7118 -4.2731 -2.5011 0.9802
-0.3994 -4.3140 -2.5013 0.9802
-0.0847 -4.3320 -2.5016 0.9802
0.0728 -4.3325 -2.5017 0.9802
0.2304 -4.3272 -2.5018 0.9802
0.5443 -4.2994 -2.5021 0.9802
0.8555 -4.2489 -2.5023 0.9802
1.0095 -4.2152 -2.5024 0.9802
1.1622 -4.1759 -2.5026 0.9802
1.3134 -4.1310 -2.5027 0.9802
