ply
format ascii 1.0
element vertex 552
property float32 x
property float32 y
property float32 z
property float32 I
end_header
-23.6570 24.6613 6.0257 0.8704
-23.6807 22.9802 5.8184 0.8746
-23.7110 21.4162 5.6338 0.8783
-23.7070 19.9193 5.4599 0.8818
-23.7033 18.5104 5.3029 0.8850
-18.2545 13.2316 3.9754 0.9125
-23.1582 13.2538 4.7050 0.8973
-23.6833 12.4510 4.7179 0.8970
-23.8295 11.4588 4.6623 0.8982
-25.6888 10.1603 4.8711 0.8939
-28.0045 9.9326 5.2393 0.8863
-31.7389 9.9936 5.8673 0.8736
-23.6809 22.9804 5.0551 0.8750
-23.7072 19.9194 4.7436 0.8822
-23.7034 18.5105 4.6073 0.8854
-23.7271 15.9350 4.3785 0.8908
-23.1584 13.2540 4.0876 0.8976
-23.6837 12.4512 4.0991 0.8974
-23.8298 11.4590 4.0507 0.8985
-24.3417 10.6500 4.0703 0.8981
-36.3107 10.0198 5.7705 0.8586
-25.4329 -7.9646 4.0828 0.8978
-25.4430 -8.9796 4.1334 0.8966
-23.6812 22.9806 4.2971 0.8754
-23.7113 21.4165 4.1607 0.8791
-23.7073 19.9196 4.0323 0.8826
-23.7267 15.9348 3.7218 0.8911
-21.4980 13.3471 3.2952 0.9030
-23.1587 13.2541 3.4747 0.8980
-23.6841 12.4514 3.4844 0.8977
-23.8302 11.4591 3.4433 0.8988
-24.3419 10.6501 3.4599 0.8984
-31.7434 9.9950 4.3337 0.8744
-23.6814 22.9808 3.5435 0.8757
-23.7074 19.9197 3.3251 0.8829
-23.7175 17.1914 3.1455 0.8888
-23.7019 14.7154 2.9958 0.8938
-23.1589 13.2542 2.8653 0.8982
-23.6844 12.4516 2.8733 0.8979
-25.6891 10.1604 2.9665 0.8948
-31.7455 9.9957 3.5739 0.8747
-42.0467 9.9981 4.6409 0.8404
-23.6578 24.6622 2.8929 0.8718
-23.6816 22.9810 2.7935 0.8759
-23.7116 21.4167 2.7048 0.8796
-23.7076 19.9198 2.6213 0.8831
-23.7038 18.5108 2.5460 0.8863
-23.7023 14.7156 2.3617 0.8940
-23.6848 12.4518 2.2652 0.8982
-23.8308 11.4594 2.2385 0.8993
-31.7477 9.9963 2.8176 0.8749
-42.0534 9.9997 3.6592 0.8407
-23.6580 24.6624 2.1192 0.8720
-23.6818 22.9813 2.0463 0.8761
-23.7117 21.4169 1.9813 0.8798
-23.7039 18.5109 1.8650 0.8864
-23.7167 17.1908 1.8164 0.8892
-23.6852 12.4520 1.6593 0.8983
-23.8311 11.4596 1.6398 0.8994
-24.3427 10.6504 1.6477 0.8990
-25.6893 10.1605 1.7131 0.8952
-31.7499 9.9970 2.0641 0.8751
-36.2901 10.0141 2.3345 0.8600
-23.6582 24.6626 1.3475 0.8721
-23.7119 21.4170 1.2599 0.8799
-23.7079 19.9200 1.2210 0.8834
-23.7031 14.7161 1.1001 0.8943
-23.1596 13.2546 1.0522 0.8987
-23.8315 11.4597 1.0427 0.8996
-24.3429 10.6505 1.0477 0.8991
-25.6894 10.1605 1.0893 0.8953
-31.7520 9.9977 1.3126 0.8752
-36.2850 10.0127 1.4842 0.8601
-23.6584 24.6628 0.5773 0.8722
-23.7080 19.9201 0.5231 0.8835
-23.7042 18.5111 0.5080 0.8866
-23.7159 17.1903 0.4948 0.8894
-23.7034 14.7164 0.4713 0.8944
-23.6859 12.4524 0.4520 0.8985
-28.0043 9.9325 0.5019 0.8879
-36.2799 10.0113 0.6357 0.8602
-42.0734 10.0044 0.7305 0.8411
-23.6586 24.6630 -0.1925 0.8722
-23.6825 22.9819 -0.1858 0.8763
-23.7122 21.4173 -0.1799 0.8800
-23.7155 17.1900 -0.1649 0.8894
-23.7244 15.9332 -0.1609 0.8920
-23.7038 14.7166 -0.1571 0.8944
-23.1601 13.2549 -0.1502 0.8988
-23.6863 12.4526 -0.1507 0.8985
-23.8321 11.4600 -0.1489 0.8996
-24.3434 10.6508 -0.1496 0.8992
-25.6896 10.1606 -0.1555 0.8954
-31.7563 9.9991 -0.1874 0.8753
-36.2749 10.0099 -0.2119 0.8603
-42.0800 10.0060 -0.2435 0.8411
-23.6588 24.6632 -0.9623 0.8722
-23.7123 21.4174 -0.8997 0.8800
-23.7240 15.9329 -0.8047 0.8919
-23.7042 14.7168 -0.7856 0.8944
-23.6866 12.4528 -0.7535 0.8984
-24.3437 10.6509 -0.7482 0.8991
-28.0043 9.9325 -0.8367 0.8879
-31.7585 9.9997 -0.9375 0.8753
-36.2698 10.0085 -1.0594 0.8602
-23.7147 17.1894 -1.4854 0.8893
-23.1605 13.2552 -1.3533 0.8986
-25.6898 10.1607 -1.4010 0.8953
-28.0043 9.9325 -1.5069 0.8878
-42.0933 10.0092 -2.1943 0.8409
-44.8841 8.9889 -2.3215 0.8325
-48.1041 7.8547 -2.4719 0.8227
-48.3514 6.1278 -2.4717 0.8227
-48.7252 0.9100 -2.4715 0.8227
-48.6661 -2.5776 -2.4715 0.8227
-48.3608 -6.0526 -2.4717 0.8227
-47.4444 -11.2037 -2.4723 0.8226
-46.5322 -14.5721 -2.4728 0.8226
-43.1857 -15.2416 -2.3225 0.8324
-42.2408 -18.4031 -2.3367 0.8315
-41.9559 -20.0950 -2.3592 0.8300
-41.6051 -21.7906 -2.3818 0.8285
-40.7004 -25.1814 -2.4272 0.8256
-18.5212 19.3075 -1.9617 0.8983
-21.5681 18.1222 -2.0655 0.8932
-22.5904 16.3744 -2.0457 0.8941
-23.7050 14.7173 -2.0458 0.8941
-23.1608 13.2553 -1.9567 0.8985
-23.6874 12.4532 -1.9622 0.8982
-28.0043 9.9325 -2.1787 0.8877
-30.6366 8.4540 -2.3303 0.8803
-32.9229 7.8286 -2.4813 0.8731
-33.5669 4.2541 -2.4809 0.8731
-33.7834 1.8420 -2.4807 0.8731
-33.8273 0.6318 -2.4807 0.8731
-33.7012 -2.9976 -2.4808 0.8731
-33.5735 -4.2019 -2.4809 0.8731
-33.1901 -6.5933 -2.4811 0.8731
-32.9350 -7.7774 -2.4813 0.8731
-32.6379 -8.9518 -2.4815 0.8731
-30.5390 -14.6268 -2.4828 0.8730
-27.6303 -15.7564 -2.3322 0.8802
-27.0529 -16.7377 -2.3325 0.8802
-16.5809 16.0904 -2.2182 0.9113
-18.8513 14.7214 -2.2963 0.9084
-20.8410 12.9392 -2.3551 0.9061
-21.7587 12.4529 -2.4069 0.9042
-22.3549 10.7497 -2.3814 0.9051
-22.8576 10.0007 -2.3953 0.9046
-23.5277 9.3055 -2.4290 0.9033
-24.7041 7.7786 -2.4865 0.9012
-25.3899 5.0848 -2.4860 0.9012
-25.5545 4.1727 -2.4859 0.9012
-25.8881 -0.4433 -2.4858 0.9012
-25.8550 -1.3694 -2.4857 0.9012
-25.6917 -3.2155 -2.4858 0.9012
-25.5609 -4.1330 -2.4858 0.9012
-25.2021 -5.9513 -2.4861 0.9012
-24.9744 -6.8499 -2.4862 0.9012
-24.4238 -8.6199 -2.4866 0.9012
-23.7487 -10.3466 -2.4870 0.9011
-22.9523 -12.0213 -2.4875 0.9011
-22.0386 -13.6354 -2.4880 0.9011
-13.5673 14.1433 -2.3280 0.9241
-14.1804 13.7609 -2.3472 0.9235
-16.5013 11.9608 -2.4209 0.9212
-17.0343 11.4401 -2.4374 0.9207
-19.2142 8.4066 -2.4913 0.9190
-19.7572 7.0075 -2.4901 0.9190
-20.2046 5.5754 -2.4897 0.9190
-20.5489 4.1153 -2.4894 0.9190
-20.6818 3.3771 -2.4892 0.9191
-20.7884 2.6346 -2.4891 0.9191
-20.8684 1.8889 -2.4890 0.9191
-20.9218 1.1408 -2.4889 0.9191
-20.8692 -1.8562 -2.4888 0.9191
-20.6839 -3.3444 -2.4889 0.9191
-20.5517 -4.0827 -2.4890 0.9191
-20.3932 -4.8157 -2.4891 0.9191
-19.9984 -6.2627 -2.4893 0.9191
-19.2157 -8.3718 -2.4898 0.9190
-18.9053 -9.0548 -2.4900 0.9190
-17.8307 -11.0319 -2.4906 0.9190
-12.3117 11.9475 -2.4308 0.9330
-12.7508 11.5167 -2.4345 0.9329
-14.5839 9.7945 -2.4892 0.9315
-14.9751 9.2973 -2.4975 0.9313
-15.2819 8.7461 -2.4948 0.9313
-15.5713 8.1863 -2.4926 0.9314
-16.1146 7.0505 -2.4922 0.9314
-16.5758 5.8791 -2.4920 0.9314
-16.7744 5.2817 -2.4918 0.9314
-16.9516 4.6777 -2.4916 0.9314
-17.1071 4.0678 -2.4915 0.9314
-17.4420 2.2105 -2.4911 0.9314
-17.5093 1.5848 -2.4910 0.9314
-17.5542 0.9571 -2.4909 0.9314
-17.5768 0.3283 -2.4909 0.9314
-17.5548 -0.9298 -2.4908 0.9314
-17.3549 -2.8061 -2.4909 0.9314
-17.2438 -3.4256 -2.4910 0.9314
-16.7793 -5.2546 -2.4913 0.9314
-16.5813 -5.8520 -2.4914 0.9314
-16.3621 -6.4421 -2.4916 0.9314
-16.1221 -7.0239 -2.4917 0.9314
-15.8614 -7.5969 -2.4919 0.9314
-15.5804 -8.1602 -2.4920 0.9314
-14.9592 -9.2552 -2.4924 0.9314
-4.3457 4.5302 -1.0341 0.9749
-4.7394 4.5992 -1.0880 0.9736
-13.1392 7.5198 -2.4940 0.9405
-13.3991 7.0443 -2.4938 0.9405
-13.8672 6.0672 -2.4936 0.9405
-14.4352 4.5452 -2.4931 0.9405
-14.5879 4.0255 -2.4930 0.9405
-14.7218 3.5006 -2.4929 0.9405
-14.8370 2.9714 -2.4928 0.9405
-15.0103 1.9023 -2.4926 0.9405
-15.0683 1.3638 -2.4925 0.9405
-15.1264 0.2825 -2.4924 0.9405
-15.0696 -1.3404 -2.4924 0.9405
-15.0122 -1.8789 -2.4924 0.9405
-14.9356 -2.4150 -2.4924 0.9405
-14.7254 -3.4773 -2.4926 0.9405
-14.4399 -4.5220 -2.4927 0.9405
-14.0808 -5.5438 -2.4930 0.9405
-13.8740 -6.0445 -2.4931 0.9405
-13.4077 -7.0223 -2.4934 0.9405
-13.1486 -7.4981 -2.4935 0.9405
-12.8727 -7.9644 -2.4937 0.9405
-10.4649 8.1724 -2.4957 0.9474
-11.0204 7.4013 -2.4952 0.9474
-11.2775 7.0017 -2.4950 0.9474
-11.5203 6.5932 -2.4949 0.9474
-11.7482 6.1764 -2.4948 0.9474
-11.9612 5.7517 -2.4947 0.9474
-12.1588 5.3197 -2.4946 0.9474
-12.3409 4.8810 -2.4944 0.9474
-12.5070 4.4360 -2.4943 0.9474
-12.6571 3.9853 -2.4942 0.9474
-12.7909 3.5296 -2.4941 0.9474
-13.1617 1.6680 -2.4937 0.9474
-13.2466 0.7223 -2.4935 0.9474
-13.2474 -0.7017 -2.4935 0.9474
-13.2139 -1.1753 -2.4935 0.9474
-12.7949 -3.5093 -2.4938 0.9474
-12.1651 -5.3000 -2.4942 0.9474
-11.9683 -5.7323 -2.4943 0.9474
-11.5288 -6.5744 -2.4945 0.9474
-4.1945 4.3725 -1.2808 0.9755
-4.4695 4.3373 -1.3165 0.9749
-9.0417 7.5971 -2.4963 0.9529
-10.0310 6.2278 -2.4958 0.9529
-10.2470 5.8645 -2.4957 0.9529
-10.6393 5.1161 -2.4954 0.9529
-10.8151 4.7318 -2.4953 0.9529
-11.3776 3.1396 -2.4949 0.9529
-11.4822 2.7303 -2.4948 0.9529
-11.5721 2.3175 -2.4947 0.9529
-11.6473 1.9018 -2.4946 0.9529
-11.7831 0.6425 -2.4944 0.9529
-11.7984 0.2204 -2.4944 0.9529
-11.7840 -0.6242 -2.4944 0.9529
-11.7542 -1.0455 -2.4944 0.9529
-11.7094 -1.4655 -2.4944 0.9529
-11.6496 -1.8836 -2.4945 0.9529
-11.5749 -2.2994 -2.4945 0.9529
-11.4855 -2.7122 -2.4946 0.9529
-11.3813 -3.1216 -2.4946 0.9529
-11.2627 -3.5270 -2.4947 0.9529
-10.9823 -4.3239 -2.4949 0.9529
-10.2548 -5.8479 -2.4953 0.9529
-10.0394 -6.2114 -2.4955 0.9529
-9.0241 5.6026 -2.4964 0.9573
-9.2184 5.2758 -2.4963 0.9573
-9.4009 4.9423 -2.4962 0.9573
-10.0083 3.5497 -2.4958 0.9573
-10.2358 2.8245 -2.4955 0.9573
-10.4785 1.7110 -2.4953 0.9573
-10.5328 1.3349 -2.4952 0.9573
-10.6008 0.5780 -2.4951 0.9573
-10.6149 -0.1818 -2.4951 0.9573
-10.6017 -0.5615 -2.4951 0.9573
-10.5748 -0.9406 -2.4951 0.9573
-10.5345 -1.3185 -2.4952 0.9573
-10.4807 -1.6946 -2.4952 0.9573
-10.4135 -2.0687 -2.4952 0.9573
-10.3330 -2.4401 -2.4953 0.9573
-9.8802 -3.8900 -2.4956 0.9573
-4.3760 4.2465 -1.5788 0.9751
-7.6015 5.9362 -2.4972 0.9609
-7.8087 5.6600 -2.4971 0.9609
-8.1928 5.0866 -2.4969 0.9609
-8.3693 4.7899 -2.4968 0.9609
-9.0866 3.2228 -2.4963 0.9609
-9.1958 2.8954 -2.4962 0.9609
-9.5136 1.5535 -2.4959 0.9610
-9.5629 1.2119 -2.4958 0.9610
-9.6000 0.8689 -2.4958 0.9610
-9.6374 0.1800 -2.4957 0.9610
-9.6256 -0.5098 -2.4957 0.9610
-9.4547 -1.8782 -2.4958 0.9610
-9.1995 -2.8809 -2.4960 0.9610
-9.0908 -3.2084 -2.4961 0.9609
-8.3759 -4.7764 -2.4965 0.9609
-4.0720 4.2449 -1.6652 0.9758
-4.3633 4.2343 -1.7212 0.9750
-4.6703 4.2183 -1.7816 0.9742
-5.0136 4.2125 -1.8538 0.9731
-6.9534 5.4301 -2.4976 0.9640
-7.1430 5.1775 -2.4975 0.9640
-7.3234 4.9184 -2.4974 0.9640
-7.4944 4.6529 -2.4973 0.9640
-7.6559 4.3816 -2.4972 0.9640
-7.8075 4.1046 -2.4971 0.9640
-7.9491 3.8225 -2.4970 0.9640
-8.2016 3.2438 -2.4968 0.9640
-8.5794 2.0401 -2.4965 0.9640
-8.8046 0.4801 -2.4962 0.9640
-8.8054 -0.4664 -2.4962 0.9640
-8.7496 -1.0951 -2.4963 0.9640
-8.7049 -1.4075 -2.4963 0.9640
-8.2059 -3.2308 -2.4966 0.9640
-7.9543 -3.8098 -2.4968 0.9640
-7.5010 -4.6409 -2.4970 0.9640
-4.0639 4.2365 -1.8056 0.9757
-4.6180 4.1711 -1.9140 0.9743
-6.4007 4.9984 -2.4979 0.9666
-6.8988 4.2831 -2.4976 0.9666
-7.1870 3.7784 -2.4975 0.9666
-7.6516 2.7139 -2.4971 0.9666
-7.8977 1.8779 -2.4969 0.9666
-7.9596 1.5941 -2.4968 0.9666
-8.0529 1.0206 -2.4967 0.9666
-8.0842 0.7317 -2.4967 0.9666
-7.8286 -2.1472 -2.4968 0.9666
-7.4428 -3.2426 -2.4971 0.9666
-6.9049 -4.2721 -2.4974 0.9666
-4.3612 4.2322 -2.0201 0.9747
-4.6211 4.1738 -2.0699 0.9741
-4.9680 4.1742 -2.1569 0.9730
-6.3843 3.9637 -2.4979 0.9688
-6.6511 3.4967 -2.4978 0.9688
-6.9868 2.7634 -2.4975 0.9688
-7.1662 2.2564 -2.4974 0.9688
-7.2421 1.9984 -2.4973 0.9688
-7.4815 0.6772 -2.4971 0.9688
-7.5109 -0.1286 -2.4970 0.9688
-7.4825 -0.6655 -2.4971 0.9688
-7.4540 -0.9329 -2.4971 0.9688
-7.4159 -1.1991 -2.4971 0.9688
-7.3683 -1.4638 -2.4971 0.9688
-7.2450 -1.9871 -2.4972 0.9688
-6.9907 -2.7524 -2.4974 0.9688
-6.6559 -3.4861 -2.4976 0.9688
-6.5271 -3.7222 -2.4976 0.9688
-6.3900 -3.9535 -2.4977 0.9688
-4.0640 4.2365 -2.0994 0.9754
-4.6218 4.1745 -2.2272 0.9739
-5.6566 4.1001 -2.4983 0.9708
-5.7995 3.8949 -2.4983 0.9708
-5.9350 3.6848 -2.4982 0.9708
-6.2952 3.0271 -2.4980 0.9708
-6.7946 1.6156 -2.4975 0.9708
-6.8479 1.3714 -2.4975 0.9708
-6.9282 0.8780 -2.4974 0.9708
-6.9552 0.6295 -2.4974 0.9708
-6.9561 -0.6187 -2.4974 0.9708
-6.8942 -1.1147 -2.4974 0.9708
-6.7352 -1.8473 -2.4975 0.9708
-6.6649 -2.0872 -2.4976 0.9708
-6.5861 -2.3244 -2.4976 0.9708
-6.4988 -2.5587 -2.4977 0.9708
-6.2994 -3.0172 -2.4978 0.9708
-6.1876 -3.2408 -2.4979 0.9708
-6.0678 -3.4602 -2.4979 0.9708
-5.9403 -3.6753 -2.4980 0.9708
-4.6796 4.5412 -2.4989 0.9725
-4.6195 4.1724 -2.3855 0.9737
-5.1388 4.0130 -2.4986 0.9725
-5.4124 3.6350 -2.4985 0.9725
-5.7703 3.0337 -2.4983 0.9725
-5.8750 2.8251 -2.4982 0.9725
-5.9722 2.6130 -2.4981 0.9725
-6.0617 2.3975 -2.4980 0.9725
-6.2173 1.9576 -2.4979 0.9725
-6.3412 1.5078 -2.4978 0.9725
-6.4325 1.0503 -2.4977 0.9725
-6.4659 0.8195 -2.4977 0.9725
-6.5079 0.3548 -2.4977 0.9725
-6.5085 -0.3447 -2.4977 0.9725
-6.4342 -1.0404 -2.4977 0.9725
-6.3434 -1.4980 -2.4978 0.9725
-6.1466 -2.1693 -2.4979 0.9725
-6.0651 -2.3880 -2.4979 0.9725
-5.8791 -2.8158 -2.4981 0.9725
-5.6629 -3.2293 -2.4982 0.9725
-4.5312 4.0927 -2.4990 0.9740
-4.6746 3.9278 -2.4989 0.9740
-4.8121 3.7578 -2.4988 0.9740
-4.9433 3.5831 -2.4988 0.9740
-5.1867 3.2201 -2.4986 0.9740
-5.4034 2.8408 -2.4985 0.9740
-5.6763 2.2450 -2.4983 0.9740
-5.7528 2.0404 -2.4982 0.9740
-5.8838 1.6236 -2.4981 0.9740
-5.9846 1.1985 -2.4980 0.9740
-6.0549 0.7674 -2.4979 0.9740
-6.0784 0.5502 -2.4979 0.9740
-6.0942 0.3323 -2.4979 0.9740
-6.1024 -0.1045 -2.4979 0.9740
-6.0947 -0.3228 -2.4979 0.9740
-6.0793 -0.5407 -2.4979 0.9740
-6.0251 -0.9742 -2.4980 0.9740
-5.8862 -1.6144 -2.4980 0.9740
-5.6795 -2.2361 -2.4982 0.9740
-5.5960 -2.4380 -2.4982 0.9740
-5.4075 -2.8322 -2.4983 0.9740
-5.3028 -3.0240 -2.4984 0.9740
-5.1914 -3.2119 -2.4985 0.9740
-3.9700 4.1385 -2.4993 0.9753
-4.1154 3.9936 -2.4992 0.9753
-4.6426 3.3651 -2.4989 0.9753
-4.7599 3.1967 -2.4989 0.9753
-4.9761 2.8479 -2.4987 0.9753
-5.0747 2.6679 -2.4987 0.9753
-5.1668 2.4845 -2.4986 0.9753
-5.2523 2.2980 -2.4985 0.9753
-5.3310 2.1085 -2.4985 0.9753
-5.4679 1.7217 -2.4984 0.9753
-5.5259 1.5249 -2.4983 0.9753
-5.6206 1.1256 -2.4982 0.9753
-5.6867 0.7207 -2.4982 0.9753
-5.7236 0.3121 -2.4981 0.9753
-5.7313 -0.0981 -2.4981 0.9753
-5.7096 -0.5078 -2.4982 0.9753
-5.6587 -0.9150 -2.4982 0.9753
-5.4705 -1.7132 -2.4983 0.9753
-5.4057 -1.9079 -2.4983 0.9753
-5.3341 -2.1001 -2.4984 0.9753
-5.2556 -2.2897 -2.4984 0.9753
-5.1704 -2.4764 -2.4985 0.9753
-5.0786 -2.6599 -2.4985 0.9753
-4.8756 -3.0165 -2.4987 0.9753
-3.7380 3.8967 -2.4995 0.9765
-3.8749 3.7603 -2.4994 0.9765
-4.0069 3.6191 -2.4993 0.9765
-4.2553 3.3230 -2.4992 0.9765
-4.4818 3.0100 -2.4990 0.9765
-4.5866 2.8476 -2.4990 0.9765
-4.6854 2.6816 -2.4989 0.9765
-4.8650 2.3394 -2.4988 0.9765
-5.0196 1.9853 -2.4986 0.9765
-5.2511 1.2486 -2.4984 0.9765
-5.2924 1.0599 -2.4984 0.9765
-5.3893 0.2938 -2.4984 0.9765
-5.3964 0.1008 -2.4983 0.9765
-5.3965 -0.0924 -2.4983 0.9765
-5.3556 -0.6703 -2.4984 0.9765
-5.3282 -0.8615 -2.4984 0.9765
-5.2053 -1.4277 -2.4985 0.9765
-5.1510 -1.6131 -2.4985 0.9765
-5.0900 -1.7965 -2.4985 0.9765
-5.0226 -1.9775 -2.4986 0.9765
-4.9487 -2.1560 -2.4986 0.9765
-4.8684 -2.3318 -2.4987 0.9765
-4.5908 -2.8404 -2.4989 0.9765
-3.6568 3.5486 -2.4995 0.9776
-3.7813 3.4154 -2.4994 0.9776
-4.0158 3.1360 -2.4993 0.9776
-4.1253 2.9902 -2.4992 0.9776
-4.2296 2.8406 -2.4992 0.9776
-4.3284 2.6873 -2.4991 0.9776
-4.5093 2.3707 -2.4990 0.9776
-4.5912 2.2077 -2.4989 0.9776
-4.7371 1.8736 -2.4988 0.9776
-4.9103 1.3550 -2.4987 0.9776
-4.9945 1.0003 -2.4986 0.9776
-5.0532 0.6404 -2.4986 0.9776
-5.0861 0.2773 -2.4985 0.9776
-5.0927 0.0951 -2.4985 0.9776
-5.0865 -0.2694 -2.4985 0.9776
-5.0736 -0.4513 -2.4986 0.9776
-5.0542 -0.6326 -2.4986 0.9776
-5.0284 -0.8131 -2.4986 0.9776
-4.9961 -0.9925 -2.4986 0.9776
-4.9574 -1.1707 -2.4986 0.9776
-4.5128 -2.3636 -2.4989 0.9776
-4.3324 -2.6805 -2.4990 0.9776
-3.6887 3.0994 -2.4995 0.9785
-3.7972 2.9653 -2.4994 0.9785
-4.0929 2.5411 -2.4993 0.9785
-4.5944 1.4466 -2.4989 0.9785
-4.6860 1.1143 -2.4988 0.9785
-4.7229 0.9458 -2.4988 0.9785
-4.7536 0.7762 -2.4987 0.9785
-4.7969 0.4342 -2.4987 0.9785
-4.8094 0.2622 -2.4987 0.9785
-4.8157 0.0899 -2.4987 0.9785
-4.8098 -0.2548 -2.4987 0.9785
-4.7976 -0.4267 -2.4987 0.9785
-4.7793 -0.5982 -2.4987 0.9785
-4.7243 -0.9385 -2.4988 0.9785
-4.6877 -1.1070 -2.4988 0.9785
-4.6452 -1.2741 -2.4988 0.9785
-4.5422 -1.6031 -2.4989 0.9785
-4.4820 -1.7647 -2.4989 0.9785
-4.1846 -2.3863 -2.4991 0.9785
-3.1596 3.2937 -2.4998 0.9794
-3.2753 3.1784 -2.4997 0.9794
-3.7884 2.5443 -2.4994 0.9794
-3.8769 2.4070 -2.4994 0.9794
-3.9605 2.2667 -2.4993 0.9794
-4.0390 2.1234 -2.4993 0.9794
-4.1123 1.9775 -2.4992 0.9794
-4.3520 1.3703 -2.4990 0.9794
-4.3982 1.2137 -2.4990 0.9794
-4.4388 1.0555 -2.4989 0.9794
-4.4737 0.8959 -2.4989 0.9794
-4.5029 0.7353 -2.4989 0.9794
-4.5263 0.5736 -2.4989 0.9794
-4.5439 0.4113 -2.4989 0.9794
-4.5557 0.2484 -2.4989 0.9794
-4.5618 -0.0781 -2.4989 0.9794
-4.5272 -0.5666 -2.4989 0.9794
-4.4751 -0.8890 -2.4989 0.9794
-4.4001 -1.2068 -2.4990 0.9794
-4.3542 -1.3636 -2.4990 0.9794
-4.3026 -1.5185 -2.4990 0.9794
-4.2456 -1.6716 -2.4991 0.9794
-4.1153 -1.9710 -2.4991 0.9794
-3.9639 -2.2604 -2.4992 0.9794
-3.1072 3.0154 -2.4998 0.9802
-3.2131 2.9021 -2.4998 0.9802
-3.3148 2.7852 -2.4997 0.9802
-3.5054 2.5409 -2.4996 0.9802
-3.5940 2.4137 -2.4995 0.9802
-3.6780 2.2835 -2.4995 0.9802
-4.2111 1.0013 -2.4991 0.9802
-4.3108 0.3902 -2.4990 0.9802
-4.3220 0.2357 -2.4990 0.9802
-4.3278 -0.0741 -2.4990 0.9802
-4.3114 -0.3835 -2.4990 0.9802
-4.2949 -0.5375 -2.4990 0.9802
-4.2730 -0.6909 -2.4990 0.9802
-4.2455 -0.8434 -2.4991 0.9802
-4.2127 -0.9948 -2.4991 0.9802
-4.1308 -1.2936 -2.4991 0.9802
-4.0278 -1.5858 -2.4992 0.9802
-3.9685 -1.7290 -2.4992 0.9802
-3.9042 -1.8699 -2.4993 0.9802
-3.6815 -2.2777 -2.4994 0.9802
