ply
format ascii 1.0
element vertex 500
property float32 x
property float32 y
property float32 z
property float32 I
end_header
4.0591 -16.7468 3.0384 0.9324
26.5078 -17.3441 5.5856 0.8793
26.5052 -17.3423 4.8524 0.8797
26.5025 -17.3406 4.1243 0.8801
4.0575 -16.7400 1.4581 0.9332
26.4973 -17.3372 2.6805 0.8806
4.0571 -16.7382 1.0680 0.9333
4.0566 -16.7365 0.6790 0.9334
26.4921 -17.3338 1.2483 0.8810
-0.2079 -15.5065 0.2620 0.9398
0.3490 -15.5202 0.2622 0.9398
0.9077 -15.5340 0.2628 0.9396
1.4698 -15.5479 0.2638 0.9394
2.0367 -15.5618 0.2651 0.9391
2.6100 -15.5760 0.2668 0.9388
4.0562 -16.7349 0.2909 0.9334
0.9843 -16.8458 -0.0950 0.9347
2.2102 -16.8871 -0.0959 0.9341
2.8323 -16.9025 -0.0965 0.9337
4.0558 -16.7331 -0.0969 0.9334
26.4869 -17.3304 -0.1782 0.8811
1.5950 -16.8720 -0.4772 0.9344
2.2102 -16.8871 -0.4796 0.9341
26.4843 -17.3287 -0.8912 0.8810
-3.9461 -46.2156 -2.3523 0.8305
-0.2079 -15.5065 -0.7865 0.9398
1.0435 -46.4092 -2.3542 0.8303
2.2102 -16.8872 -0.8637 0.9341
2.8323 -16.9025 -0.8691 0.9337
9.3216 -45.5379 -2.3573 0.8301
4.0550 -16.7297 -0.8730 0.9334
12.5714 -44.7816 -2.3589 0.8300
15.7607 -43.7936 -2.3604 0.8299
17.3274 -43.2140 -2.3612 0.8299
20.3910 -41.8792 -2.3622 0.8298
23.3461 -40.3167 -2.3627 0.8298
26.1945 -38.5643 -2.3643 0.8297
31.5045 -34.4892 -2.3690 0.8294
32.7371 -33.3525 -2.3701 0.8293
35.0765 -30.9472 -2.3723 0.8292
40.6440 -28.7273 -2.5241 0.8193
26.4622 -17.3142 -1.6037 0.8810
42.6178 -25.7499 -2.5252 0.8192
45.1629 -21.0331 -2.5266 0.8191
46.5694 -17.7458 -2.5274 0.8191
-1.5813 -32.0551 -2.3532 0.8792
0.7217 -32.0978 -2.3541 0.8792
1.5950 -16.8720 -1.2426 0.9343
2.2101 -16.8872 -1.2488 0.9340
2.8323 -16.9025 -1.2566 0.9336
6.4457 -31.4884 -2.3567 0.8791
4.0546 -16.7281 -1.2621 0.9333
11.9686 -29.8492 -2.3580 0.8790
14.0804 -28.9184 -2.3583 0.8790
15.1099 -28.3965 -2.3585 0.8790
16.1200 -27.8378 -2.3586 0.8790
20.8590 -24.5488 -2.3620 0.8788
23.3989 -22.1871 -2.3643 0.8787
24.9450 -20.4646 -2.3658 0.8786
26.3632 -18.6336 -2.3671 0.8786
26.3082 -17.2135 -2.3052 0.8815
27.6015 -16.6769 -2.3645 0.8787
28.1858 -15.6780 -2.3648 0.8787
29.8029 -15.2039 -2.4531 0.8744
31.6456 -13.3781 -2.5191 0.8713
-2.9595 -24.3266 -2.3527 0.9062
-2.0851 -24.4206 -2.3530 0.9062
-1.2078 -24.4839 -2.3534 0.9062
2.8323 -16.9025 -1.6453 0.9334
4.9197 -24.0336 -2.3552 0.9061
7.4753 -23.3710 -2.3557 0.9061
8.3095 -23.0892 -2.3559 0.9061
9.1331 -22.7776 -2.3560 0.9061
10.7442 -22.0666 -2.3563 0.9061
14.5186 -19.8067 -2.3577 0.9060
15.2239 -19.2781 -2.3583 0.9060
17.2204 -17.5440 -2.3601 0.9059
19.0031 -15.5899 -2.3598 0.9060
21.3796 -15.1112 -2.5135 0.9001
22.4133 -13.5422 -2.5141 0.9001
22.8871 -12.7307 -2.5143 0.9001
23.3314 -11.9025 -2.5146 0.9001
23.7456 -11.0587 -2.5148 0.9001
24.4814 -9.3289 -2.5152 0.9001
-2.3919 -19.6604 -2.3526 0.9233
-0.2079 -15.5065 -1.8421 0.9394
0.4453 -19.8064 -2.3533 0.9233
2.5715 -19.6481 -2.3538 0.9233
4.0223 -16.5946 -2.0283 0.9335
6.7125 -18.6516 -2.3547 0.9233
8.0335 -18.1240 -2.3549 0.9232
8.6790 -17.8250 -2.3550 0.9232
9.3107 -17.4978 -2.3544 0.9233
10.5446 -16.7900 -2.3551 0.9232
11.1417 -16.4031 -2.3554 0.9232
12.2926 -15.5661 -2.3561 0.9232
12.9300 -15.2172 -2.3720 0.9227
14.8009 -15.0791 -2.5099 0.9184
15.8478 -13.9821 -2.5104 0.9184
18.0976 -10.9347 -2.5117 0.9184
19.1724 -8.9289 -2.5123 0.9183
19.7659 -7.5320 -2.5126 0.9183
-2.0014 -16.4515 -2.3482 0.9352
-1.4101 -16.5150 -2.3485 0.9352
-0.8168 -16.5573 -2.3488 0.9352
0.3727 -16.5778 -2.3495 0.9352
1.5610 -16.5130 -2.3502 0.9352
2.7419 -16.3631 -2.3508 0.9352
3.3277 -16.2565 -2.3511 0.9352
3.9093 -16.1288 -2.3514 0.9352
4.4861 -15.9803 -2.3518 0.9351
5.6220 -15.6216 -2.3524 0.9351
6.1797 -15.4119 -2.3527 0.9351
6.7488 -15.2258 -2.3598 0.9349
7.4067 -15.2120 -2.3973 0.9339
8.7991 -15.1954 -2.4879 0.9315
9.4097 -14.9831 -2.5069 0.9310
10.9690 -13.8900 -2.5077 0.9310
12.4019 -12.6349 -2.5085 0.9310
13.6916 -11.2324 -2.5092 0.9310
14.4214 -10.1931 -2.5022 0.9311
15.1625 -9.1613 -2.5101 0.9309
15.7826 -8.0515 -2.5104 0.9309
16.0622 -7.4805 -2.5105 0.9309
16.5591 -6.3101 -2.5108 0.9309
-1.8332 -15.0685 -2.5007 0.9403
-0.7481 -15.1648 -2.5013 0.9403
-0.2038 -15.1837 -2.5016 0.9403
0.3416 -15.1831 -2.5019 0.9403
1.9715 -15.0639 -2.5028 0.9403
2.5111 -14.9853 -2.5031 0.9403
3.5800 -14.7701 -2.5037 0.9402
4.6310 -14.4787 -2.5042 0.9402
5.6587 -14.1125 -2.5048 0.9402
6.1621 -13.9019 -2.5051 0.9402
6.6576 -13.6734 -2.5054 0.9402
7.1447 -13.4272 -2.5056 0.9402
8.0908 -12.8829 -2.5062 0.9402
8.9956 -12.2720 -2.5067 0.9402
9.4310 -11.9425 -2.5069 0.9402
9.8543 -11.5975 -2.5071 0.9402
10.2650 -11.2375 -2.5074 0.9402
10.6626 -10.8629 -2.5076 0.9402
11.0464 -10.4743 -2.5078 0.9402
12.1107 -9.2288 -2.5084 0.9401
13.5275 -6.9010 -2.5017 0.9403
13.8080 -6.4306 -2.5093 0.9401
-1.6068 -13.2075 -2.5008 0.9473
-1.1320 -13.2581 -2.5011 0.9473
-0.1784 -13.3079 -2.5016 0.9473
0.7766 -13.2892 -2.5021 0.9473
1.7279 -13.2021 -2.5026 0.9473
2.2007 -13.1330 -2.5029 0.9472
2.6708 -13.0469 -2.5032 0.9472
4.0584 -12.6883 -2.5039 0.9472
4.5115 -12.5358 -2.5042 0.9472
4.9588 -12.3671 -2.5044 0.9472
5.3999 -12.1824 -2.5047 0.9472
6.2608 -11.7660 -2.5051 0.9472
6.6795 -11.5349 -2.5054 0.9472
7.4908 -11.0282 -2.5058 0.9472
8.6346 -10.1620 -2.5065 0.9472
8.9943 -9.8464 -2.5067 0.9472
9.3425 -9.5181 -2.5068 0.9472
9.6787 -9.1775 -2.5070 0.9472
10.3134 -8.4610 -2.5074 0.9472
10.6110 -8.0860 -2.5075 0.9472
11.8871 -6.0642 -2.5082 0.9471
12.2924 -5.1966 -2.5085 0.9471
12.4714 -4.7524 -2.5086 0.9471
-1.0066 -11.7895 -2.5011 0.9528
-0.1586 -11.8336 -2.5016 0.9528
0.6905 -11.8167 -2.5021 0.9528
1.1141 -11.7854 -2.5023 0.9528
1.5364 -11.7389 -2.5025 0.9528
2.7896 -11.5091 -2.5032 0.9527
3.2010 -11.4026 -2.5035 0.9527
3.6084 -11.2814 -2.5037 0.9527
4.4089 -10.9956 -2.5041 0.9527
4.8010 -10.8313 -2.5043 0.9527
5.5663 -10.4608 -2.5048 0.9527
6.3031 -10.0364 -2.5052 0.9527
6.6597 -9.8045 -2.5054 0.9527
7.0077 -9.5600 -2.5056 0.9527
7.3467 -9.3031 -2.5057 0.9527
9.4329 -7.1883 -2.5069 0.9527
9.6853 -6.8456 -2.5070 0.9527
9.9252 -6.4941 -2.5072 0.9527
10.5670 -5.3907 -2.5075 0.9527
10.9273 -4.6195 -2.5077 0.9527
11.0863 -4.2246 -2.5078 0.9527
-1.2851 -10.5635 -2.5010 0.9572
-0.9054 -10.6037 -2.5012 0.9572
-0.5244 -10.6303 -2.5014 0.9572
-0.1427 -10.6431 -2.5016 0.9572
0.2393 -10.6423 -2.5018 0.9572
0.6210 -10.6278 -2.5020 0.9572
1.0020 -10.5996 -2.5022 0.9572
1.3818 -10.5576 -2.5025 0.9572
2.8788 -10.2548 -2.5033 0.9572
3.2451 -10.1457 -2.5035 0.9572
3.6074 -10.0235 -2.5037 0.9572
5.6682 -9.0255 -2.5048 0.9572
5.9888 -8.8169 -2.5050 0.9571
6.3017 -8.5970 -2.5052 0.9571
6.6066 -8.3659 -2.5053 0.9571
6.9029 -8.1240 -2.5055 0.9571
7.1904 -7.8716 -2.5057 0.9571
7.4687 -7.6090 -2.5058 0.9571
7.7373 -7.3366 -2.5060 0.9571
8.4822 -6.4638 -2.5064 0.9571
9.1289 -5.5157 -2.5067 0.9571
9.5018 -4.8473 -2.5069 0.9571
9.6699 -4.5034 -2.5070 0.9571
-1.1666 -9.5889 -2.5010 0.9609
-0.4760 -9.6493 -2.5014 0.9609
-0.1295 -9.6610 -2.5016 0.9609
0.2172 -9.6601 -2.5018 0.9609
0.9095 -9.6211 -2.5022 0.9609
1.2542 -9.5830 -2.5024 0.9609
1.9385 -9.4699 -2.5028 0.9608
2.2772 -9.3949 -2.5029 0.9608
2.6130 -9.3079 -2.5031 0.9608
2.9455 -9.2088 -2.5033 0.9608
3.5988 -8.9751 -2.5037 0.9608
4.2337 -8.6952 -2.5040 0.9608
4.5433 -8.5383 -2.5042 0.9608
4.8470 -8.3703 -2.5044 0.9608
5.1445 -8.1916 -2.5045 0.9608
5.4355 -8.0022 -2.5047 0.9608
5.7194 -7.8026 -2.5048 0.9608
5.9961 -7.5928 -2.5050 0.9608
6.2650 -7.3732 -2.5051 0.9608
6.5259 -7.1441 -2.5053 0.9608
6.7783 -6.9057 -2.5054 0.9608
7.0221 -6.6585 -2.5056 0.9608
7.4823 -6.1384 -2.5058 0.9608
7.6981 -5.8663 -2.5059 0.9608
7.9040 -5.5865 -2.5060 0.9608
8.0997 -5.2996 -2.5062 0.9608
8.4595 -4.7055 -2.5064 0.9608
8.6232 -4.3991 -2.5064 0.9608
8.7758 -4.0870 -2.5065 0.9608
9.0468 -3.4474 -2.5067 0.9608
-0.7517 -8.8035 -2.5013 0.9639
-0.4354 -8.8254 -2.5014 0.9639
-0.1184 -8.8359 -2.5016 0.9639
0.5155 -8.8229 -2.5020 0.9639
1.4609 -8.7183 -2.5025 0.9639
1.7729 -8.6608 -2.5027 0.9639
2.0826 -8.5923 -2.5028 0.9639
2.6938 -8.4219 -2.5032 0.9639
3.5838 -8.0853 -2.5037 0.9639
3.8719 -7.9520 -2.5038 0.9639
4.7048 -7.4913 -2.5043 0.9639
4.9708 -7.3181 -2.5044 0.9639
5.4835 -6.9437 -2.5047 0.9639
5.7293 -6.7428 -2.5048 0.9639
5.9679 -6.5332 -2.5050 0.9639
6.1987 -6.3152 -2.5051 0.9639
6.4216 -6.0891 -2.5052 0.9639
6.6363 -5.8550 -2.5053 0.9639
7.0397 -5.3645 -2.5056 0.9639
7.4068 -4.8463 -2.5058 0.9639
7.5762 -4.5776 -2.5059 0.9639
7.7359 -4.3030 -2.5060 0.9639
7.8855 -4.0228 -2.5060 0.9639
8.1542 -3.4472 -2.5062 0.9639
-0.6918 -8.1028 -2.5013 0.9665
-0.1090 -8.1326 -2.5016 0.9665
0.7656 -8.0988 -2.5021 0.9665
1.0558 -8.0666 -2.5023 0.9665
1.3446 -8.0240 -2.5024 0.9665
1.6317 -7.9711 -2.5026 0.9665
1.9168 -7.9080 -2.5027 0.9665
2.1994 -7.8346 -2.5029 0.9665
2.7559 -7.6576 -2.5032 0.9665
3.0291 -7.5543 -2.5034 0.9665
3.8239 -7.1863 -2.5038 0.9665
4.5747 -6.7350 -2.5042 0.9665
5.0464 -6.3902 -2.5045 0.9665
6.1073 -5.3883 -2.5051 0.9665
6.2969 -5.1659 -2.5052 0.9665
6.6517 -4.7014 -2.5054 0.9665
6.9722 -4.2126 -2.5055 0.9665
7.2568 -3.7020 -2.5057 0.9665
7.6131 -2.9011 -2.5059 0.9665
-0.6402 -7.4977 -2.5013 0.9688
-0.1009 -7.5252 -2.5016 0.9688
0.1692 -7.5244 -2.5018 0.9688
0.4391 -7.5139 -2.5019 0.9688
0.7084 -7.4938 -2.5021 0.9688
1.5098 -7.3756 -2.5025 0.9688
1.7736 -7.3171 -2.5027 0.9688
2.0350 -7.2492 -2.5028 0.9688
2.2940 -7.1719 -2.5030 0.9688
2.8027 -6.9897 -2.5032 0.9688
3.0518 -6.8850 -2.5034 0.9688
4.0062 -6.3790 -2.5039 0.9687
4.2327 -6.2315 -2.5040 0.9687
4.4537 -6.0759 -2.5041 0.9687
4.6691 -5.9125 -2.5043 0.9687
4.8784 -5.7414 -2.5044 0.9687
5.2781 -5.3773 -2.5046 0.9687
5.4678 -5.1846 -2.5047 0.9687
5.6506 -4.9853 -2.5048 0.9687
5.8260 -4.7796 -2.5049 0.9687
6.1542 -4.3498 -2.5051 0.9687
6.7140 -3.4251 -2.5054 0.9687
6.8327 -3.1821 -2.5055 0.9687
6.9426 -2.9350 -2.5055 0.9687
-0.8447 -6.9431 -2.5012 0.9707
-0.5950 -6.9694 -2.5014 0.9707
-0.3446 -6.9866 -2.5015 0.9707
-0.0938 -6.9949 -2.5016 0.9707
0.1573 -6.9941 -2.5018 0.9707
0.4081 -6.9843 -2.5019 0.9707
0.9080 -6.9379 -2.5022 0.9707
1.4034 -6.8556 -2.5025 0.9707
1.6485 -6.8012 -2.5026 0.9707
1.8916 -6.7381 -2.5027 0.9707
2.3702 -6.5858 -2.5030 0.9707
2.6050 -6.4968 -2.5031 0.9707
3.2885 -6.1803 -2.5035 0.9707
4.1396 -5.6473 -2.5040 0.9707
4.3397 -5.4954 -2.5041 0.9707
4.5343 -5.3364 -2.5042 0.9707
4.7230 -5.1705 -2.5043 0.9707
4.9057 -4.9979 -2.5044 0.9707
5.2519 -4.6336 -2.5046 0.9707
5.4150 -4.4423 -2.5047 0.9707
5.8615 -3.8352 -2.5049 0.9707
6.1218 -3.4052 -2.5051 0.9707
6.2402 -3.1834 -2.5051 0.9707
6.3505 -2.9575 -2.5052 0.9707
6.5466 -2.4946 -2.5053 0.9707
-0.5553 -6.5036 -2.5014 0.9724
-0.3216 -6.5197 -2.5015 0.9724
1.0791 -6.4399 -2.5023 0.9724
1.3096 -6.3973 -2.5024 0.9724
1.9897 -6.2205 -2.5028 0.9724
2.2117 -6.1454 -2.5029 0.9724
2.4309 -6.0624 -2.5030 0.9724
2.6469 -5.9716 -2.5031 0.9724
2.8596 -5.8731 -2.5033 0.9724
3.0686 -5.7669 -2.5034 0.9724
3.2737 -5.6534 -2.5035 0.9724
3.4746 -5.5325 -2.5036 0.9724
3.8627 -5.2696 -2.5038 0.9724
4.4071 -4.8246 -2.5041 0.9724
5.7121 -3.1773 -2.5048 0.9724
5.9255 -2.7596 -2.5050 0.9724
6.0209 -2.5453 -2.5050 0.9724
-0.5200 -6.0896 -2.5014 0.9739
-0.3011 -6.1047 -2.5015 0.9739
-0.0819 -6.1118 -2.5016 0.9739
0.3566 -6.1026 -2.5019 0.9739
0.7934 -6.0619 -2.5021 0.9739
1.2262 -5.9899 -2.5024 0.9739
1.4404 -5.9424 -2.5025 0.9739
1.8629 -5.8243 -2.5027 0.9739
2.0708 -5.7540 -2.5028 0.9739
3.6166 -4.9338 -2.5037 0.9739
3.9614 -4.6621 -2.5039 0.9739
4.1263 -4.5172 -2.5040 0.9739
4.2858 -4.3664 -2.5041 0.9739
4.4399 -4.2099 -2.5041 0.9739
4.5882 -4.0480 -2.5042 0.9739
4.7306 -3.8809 -2.5043 0.9739
4.9971 -3.5319 -2.5044 0.9739
5.2377 -3.1647 -2.5046 0.9739
5.3481 -2.9748 -2.5046 0.9739
5.7191 -2.1793 -2.5048 0.9739
-0.4883 -5.7188 -2.5014 0.9753
0.1290 -5.7389 -2.5018 0.9753
0.3349 -5.7309 -2.5019 0.9753
0.5403 -5.7154 -2.5020 0.9753
0.7450 -5.6926 -2.5021 0.9753
1.1515 -5.6250 -2.5023 0.9753
1.5520 -5.5285 -2.5025 0.9753
2.1374 -5.3304 -2.5029 0.9753
2.3273 -5.2505 -2.5030 0.9753
2.5143 -5.1638 -2.5031 0.9753
2.6980 -5.0705 -2.5032 0.9752
3.3962 -4.6331 -2.5036 0.9752
3.5604 -4.5084 -2.5037 0.9752
3.7199 -4.3780 -2.5037 0.9752
4.4422 -3.6444 -2.5041 0.9752
4.5703 -3.4827 -2.5042 0.9752
4.6924 -3.3166 -2.5043 0.9752
4.8085 -3.1462 -2.5043 0.9752
5.0220 -2.7934 -2.5045 0.9752
5.1191 -2.6115 -2.5045 0.9752
5.2934 -2.2378 -2.5046 0.9752
5.3704 -2.0464 -2.5046 0.9752
-0.6526 -5.3642 -2.5013 0.9765
-0.2662 -5.3977 -2.5015 0.9765
-0.0724 -5.4040 -2.5016 0.9765
0.3153 -5.3957 -2.5019 0.9765
0.5087 -5.3812 -2.5020 0.9765
0.7015 -5.3597 -2.5021 0.9765
0.8933 -5.3313 -2.5022 0.9765
1.6471 -5.1495 -2.5026 0.9765
1.8309 -5.0873 -2.5027 0.9765
2.7100 -4.6798 -2.5032 0.9764
2.8762 -4.5797 -2.5033 0.9764
3.0387 -4.4738 -2.5034 0.9764
3.3520 -4.2446 -2.5035 0.9764
3.5022 -4.1217 -2.5036 0.9764
3.6480 -3.9936 -2.5037 0.9764
3.7890 -3.8602 -2.5038 0.9764
3.9252 -3.7219 -2.5039 0.9764
4.1822 -3.4311 -2.5040 0.9764
4.3028 -3.2789 -2.5041 0.9764
4.5271 -2.9620 -2.5042 0.9764
4.6305 -2.7978 -2.5042 0.9764
4.7280 -2.6299 -2.5043 0.9764
4.9046 -2.2842 -2.5044 0.9764
-0.6158 -5.0620 -2.5013 0.9775
-0.4338 -5.0811 -2.5014 0.9775
-0.2513 -5.0936 -2.5015 0.9775
0.2975 -5.0917 -2.5019 0.9775
0.4801 -5.0779 -2.5020 0.9775
0.8430 -5.0308 -2.5022 0.9775
1.2017 -4.9578 -2.5024 0.9775
2.2337 -4.5876 -2.5029 0.9775
2.3970 -4.5047 -2.5030 0.9775
2.8674 -4.2215 -2.5033 0.9775
3.3048 -3.8893 -2.5035 0.9775
3.8276 -3.3770 -2.5038 0.9775
4.0601 -3.0940 -2.5039 0.9775
4.1686 -2.9464 -2.5040 0.9775
4.2717 -2.7950 -2.5040 0.9775
4.3694 -2.6400 -2.5041 0.9775
4.6280 -2.1553 -2.5042 0.9775
4.7024 -1.9879 -2.5043 0.9775
4.7708 -1.8180 -2.5043 0.9775
-0.5823 -4.7863 -2.5014 0.9785
0.1084 -4.8212 -2.5017 0.9785
0.2813 -4.8143 -2.5018 0.9785
0.4539 -4.8013 -2.5019 0.9785
0.6259 -4.7821 -2.5020 0.9785
0.7971 -4.7568 -2.5021 0.9785
1.1362 -4.6877 -2.5023 0.9785
1.4696 -4.5945 -2.5025 0.9785
1.6336 -4.5390 -2.5026 0.9785
1.9550 -4.4105 -2.5028 0.9785
2.2664 -4.2592 -2.5029 0.9785
2.4178 -4.1753 -2.5030 0.9785
2.7112 -3.9914 -2.5032 0.9785
2.8527 -3.8917 -2.5033 0.9785
3.3805 -3.4440 -2.5036 0.9785
3.5020 -3.3206 -2.5036 0.9785
3.6190 -3.1929 -2.5037 0.9785
4.0388 -2.6426 -2.5039 0.9785
4.1312 -2.4961 -2.5040 0.9785
4.2997 -2.1935 -2.5041 0.9785
4.3757 -2.0378 -2.5041 0.9785
4.5107 -1.7188 -2.5042 0.9785
-0.5515 -4.5336 -2.5014 0.9794
-0.3885 -4.5506 -2.5015 0.9794
-0.0612 -4.5671 -2.5017 0.9794
0.9162 -4.4757 -2.5022 0.9794
1.0762 -4.4401 -2.5023 0.9794
1.3920 -4.3518 -2.5025 0.9794
1.5472 -4.2992 -2.5025 0.9794
2.1466 -4.0342 -2.5029 0.9794
2.4306 -3.8701 -2.5030 0.9794
2.5679 -3.7805 -2.5031 0.9794
2.8326 -3.5869 -2.5032 0.9794
2.9595 -3.4830 -2.5033 0.9794
3.0827 -3.3747 -2.5034 0.9794
3.2019 -3.2620 -2.5035 0.9794
3.4277 -3.0242 -2.5036 0.9794
3.5341 -2.8993 -2.5036 0.9794
3.6359 -2.7707 -2.5037 0.9794
3.8254 -2.5029 -2.5038 0.9794
3.9128 -2.3641 -2.5038 0.9794
3.9952 -2.2223 -2.5039 0.9794
4.2110 -1.7802 -2.5040 0.9794
4.2722 -1.6280 -2.5040 0.9794
-0.5232 -4.3008 -2.5014 0.9802
-0.2135 -4.3276 -2.5016 0.9802
-0.0581 -4.3326 -2.5017 0.9802
0.4079 -4.3142 -2.5019 0.9802
0.7162 -4.2742 -2.5021 0.9802
1.1714 -4.1729 -2.5023 0.9802
1.4678 -4.0784 -2.5025 0.9802
1.7566 -3.9629 -2.5027 0.9802
1.8977 -3.8974 -2.5027 0.9802
2.0363 -3.8269 -2.5028 0.9802
2.3057 -3.6713 -2.5030 0.9802
2.6870 -3.4026 -2.5032 0.9802
2.9243 -3.2013 -2.5033 0.9802
3.0373 -3.0944 -2.5034 0.9802
3.3525 -2.7503 -2.5035 0.9802
3.5412 -2.5029 -2.5036 0.9802
3.6288 -2.3743 -2.5037 0.9802
3.7117 -2.2426 -2.5037 0.9802
3.9314 -1.8309 -2.5039 0.9802
