ply
format ascii 1.0
element vertex 521
property float32 x
property float32 y
property float32 z
property float32 I
end_header
26.0843 15.2216 5.3252 0.8846
17.0389 14.5467 3.9504 0.9130
14.7301 14.5145 3.6464 0.9194
11.9316 14.5836 3.3225 0.9263
11.5316 15.1682 3.3597 0.9255
11.7233 19.4260 4.0007 0.9120
31.0801 13.9236 5.2172 0.8713
26.5042 14.2241 4.6081 0.8854
26.2616 15.3250 4.6580 0.8842
26.3276 17.9964 4.8855 0.8789
26.3632 19.4362 5.0176 0.8759
17.0389 14.5467 3.4321 0.9133
14.7300 14.5145 3.1680 0.9197
10.4954 11.1072 2.3410 0.9400
11.9316 14.5835 2.8866 0.9266
11.6306 15.2984 2.9440 0.9252
11.5987 17.7551 3.2489 0.9178
28.8206 14.1669 4.1820 0.8785
26.2612 15.3248 3.9594 0.8846
26.2222 16.5836 4.0402 0.8824
26.3272 17.9962 4.1528 0.8793
15.7929 14.4883 2.7909 0.9172
14.7300 14.5145 2.6929 0.9200
11.9316 14.5835 2.4537 0.9268
11.6304 15.2981 2.5025 0.9254
11.7329 19.4419 2.9570 0.9125
26.2608 15.3245 3.2650 0.8849
26.2222 16.5836 3.3316 0.8827
26.3624 19.4356 3.5170 0.8765
18.1768 14.4295 2.4921 0.9109
15.7928 14.4883 2.3014 0.9174
14.7300 14.5145 2.2206 0.9202
10.4892 11.1007 1.6400 0.9404
11.9316 14.5835 2.0233 0.9270
11.6606 16.5303 2.1723 0.9218
11.6945 17.9019 2.2962 0.9176
38.9883 12.6668 3.4703 0.8483
31.4767 14.1013 2.9198 0.8707
28.8206 14.1669 2.7186 0.8790
26.3264 17.9956 2.6995 0.8798
26.3619 19.4353 2.7725 0.8768
15.7928 14.4883 1.8143 0.9176
11.6299 15.2974 1.6267 0.9258
11.7323 19.4410 1.9222 0.9129
31.4767 14.1013 2.1388 0.8709
26.5041 14.2240 1.8653 0.8864
20.5449 14.0436 1.5432 0.9051
14.7300 14.5145 1.2823 0.9205
10.4831 11.0942 0.9465 0.9407
12.8079 14.5619 1.2026 0.9252
11.9316 14.5835 1.1684 0.9273
11.5304 15.1666 1.1814 0.9265
11.6601 16.5296 1.2544 0.9221
11.5942 17.7483 1.3146 0.9185
31.3624 14.0502 1.3551 0.8715
26.5041 14.2240 1.1861 0.8866
26.2222 16.5836 1.2234 0.8832
26.3611 19.4347 1.2914 0.8771
18.1767 14.4295 0.9151 0.9113
15.7928 14.4883 0.8451 0.9178
11.9316 14.5835 0.7430 0.9273
11.7232 19.4259 0.8947 0.9132
28.8206 14.1669 0.5425 0.8794
19.4781 12.3185 0.3893 0.9119
11.9316 14.5835 0.3183 0.9274
11.6596 16.5289 0.3417 0.9223
11.5986 17.7551 0.3582 0.9187
28.8206 14.1669 -0.1808 0.8794
26.5041 14.2240 -0.1694 0.8866
26.3603 19.4341 -0.1844 0.8772
15.7928 14.4883 -0.1207 0.9178
12.8079 14.5619 -0.1092 0.9254
11.9316 14.5835 -0.1061 0.9274
11.6593 16.5285 -0.1139 0.9223
11.5934 17.7470 -0.1193 0.9187
11.7311 19.4390 -0.1278 0.9132
33.3506 12.1669 -0.9996 0.8676
31.4767 14.1013 -0.9712 0.8711
26.5041 14.2240 -0.8470 0.8866
20.4693 13.9919 -0.6981 0.9055
16.9373 14.4600 -0.6271 0.9147
15.7928 14.4882 -0.6035 0.9178
10.4709 11.0813 -0.4293 0.9408
11.7308 19.4385 -0.6393 0.9132
48.2114 -12.6613 -2.5279 0.8190
48.9999 -9.1928 -2.5283 0.8190
49.5364 -5.6759 -2.5286 0.8190
49.7092 -3.9051 -2.5287 0.8190
49.8627 -0.3505 -2.5288 0.8190
49.8432 1.4286 -2.5288 0.8190
49.1254 8.5032 -2.5284 0.8190
48.7873 10.2497 -2.5282 0.8190
48.3863 11.9827 -2.5280 0.8190
47.3987 15.3992 -2.5275 0.8191
33.3502 12.1668 -1.8004 0.8675
31.4766 14.1013 -1.7492 0.8710
28.8205 14.1668 -1.6286 0.8793
26.2582 15.3230 -1.5418 0.8854
20.4690 13.9917 -1.2574 0.9055
18.7973 13.8583 -1.1844 0.9107
12.8078 14.5619 -0.9835 0.9253
11.9316 14.5835 -0.9556 0.9273
32.5266 -11.0754 -2.5194 0.8713
32.9036 -9.9087 -2.5196 0.8713
33.5309 -7.5382 -2.5199 0.8712
34.1490 -3.9128 -2.5203 0.8712
34.3599 0.9848 -2.5204 0.8712
34.3024 2.2101 -2.5203 0.8712
33.8667 5.8620 -2.5201 0.8712
28.2980 11.4834 -2.2392 0.8847
27.4012 13.4692 -2.2387 0.8847
19.7990 13.5337 -1.7584 0.9083
18.7398 13.8159 -1.7071 0.9108
18.1767 14.4294 -1.7016 0.9111
15.7928 14.4882 -1.5714 0.9176
14.7300 14.5145 -1.5163 0.9204
10.4648 11.0749 -1.1172 0.9407
12.8078 14.5619 -1.4219 0.9252
11.9316 14.5835 -1.3816 0.9272
11.6282 15.2952 -1.4088 0.9258
11.6586 16.5274 -1.4830 0.9221
11.6924 17.8985 -1.5676 0.9178
11.7303 19.4376 -1.6646 0.9130
25.0872 -7.5548 -2.5153 0.9001
25.9114 -3.9100 -2.5158 0.9001
26.0351 -2.9831 -2.5158 0.9001
26.1254 -2.0524 -2.5159 0.9000
26.1824 -1.1190 -2.5159 0.9000
26.0746 2.6168 -2.5159 0.9001
25.9641 3.5453 -2.5158 0.9001
25.8202 4.4693 -2.5157 0.9001
25.6434 5.3874 -2.5156 0.9001
23.1115 8.4315 -2.3619 0.9059
20.1047 11.7321 -2.2347 0.9107
19.0862 13.0466 -2.2196 0.9113
18.1767 14.4294 -2.2281 0.9110
12.8078 14.5619 -1.8618 0.9250
11.6279 15.2949 -1.8445 0.9257
11.6921 17.8981 -2.0525 0.9177
11.7300 19.4371 -2.1795 0.9128
20.2547 -6.0996 -2.5127 0.9183
20.4604 -5.3733 -2.5128 0.9183
20.7929 -3.9009 -2.5130 0.9183
20.9194 -3.1567 -2.5131 0.9183
21.1380 -0.9034 -2.5132 0.9183
21.1486 0.6062 -2.5132 0.9183
21.1133 1.3603 -2.5132 0.9183
21.0511 2.1127 -2.5131 0.9183
20.8459 3.6083 -2.5130 0.9183
20.5342 5.0852 -2.5129 0.9183
20.3388 5.8143 -2.5127 0.9183
20.1175 6.5359 -2.5126 0.9183
19.8705 7.2491 -2.5125 0.9183
17.1496 10.0076 -2.3586 0.9231
15.1244 11.1505 -2.2320 0.9271
14.7155 11.6818 -2.2318 0.9271
14.2879 12.1981 -2.2316 0.9271
13.8421 12.6987 -2.2313 0.9271
13.3787 13.1830 -2.2311 0.9271
10.3604 10.9643 -1.7919 0.9410
11.8892 14.5317 -2.2303 0.9272
11.3618 14.9447 -2.2300 0.9272
9.6959 16.0666 -2.2291 0.9272
16.7748 -5.7119 -2.5108 0.9309
16.9686 -5.1100 -2.5109 0.9309
17.1408 -4.5015 -2.5110 0.9309
17.2910 -3.8872 -2.5111 0.9309
17.4191 -3.2679 -2.5112 0.9309
17.6085 -2.0176 -2.5113 0.9309
17.6696 -1.3881 -2.5113 0.9309
17.7238 -0.1246 -2.5113 0.9309
17.6644 0.5063 -2.5039 0.9311
17.6874 1.1396 -2.5113 0.9309
17.3442 3.6438 -2.5111 0.9309
17.2025 4.2601 -2.5110 0.9309
17.0390 4.8710 -2.5110 0.9309
16.8537 5.4756 -2.5109 0.9309
16.4188 6.6628 -2.5106 0.9309
14.3682 8.3846 -2.3571 0.9350
13.7317 9.3864 -2.3568 0.9350
12.8404 10.1932 -2.3229 0.9359
11.9716 10.2206 -2.2303 0.9384
9.9627 12.1770 -2.2292 0.9384
8.1255 13.4644 -2.2282 0.9384
14.5868 -4.3927 -2.5096 0.9401
14.7348 -3.8696 -2.5097 0.9401
14.9740 -2.8092 -2.5098 0.9401
15.1891 -1.1932 -2.5099 0.9401
15.2298 0.4365 -2.5100 0.9401
15.2044 0.9796 -2.5100 0.9401
15.0955 2.0612 -2.5099 0.9401
14.9095 3.1323 -2.5098 0.9401
14.7879 3.6621 -2.5097 0.9401
14.6474 4.1873 -2.5097 0.9401
13.1534 7.6757 -2.5088 0.9401
12.8704 8.1396 -2.5087 0.9401
10.1818 10.0328 -2.3548 0.9437
9.0011 10.2338 -2.2452 0.9462
8.5658 10.4697 -2.2285 0.9466
12.7797 -3.8485 -2.5086 0.9471
13.2613 -1.5195 -2.5089 0.9471
13.3071 -1.0454 -2.5089 0.9471
13.3479 -0.0938 -2.5089 0.9471
13.3428 0.3824 -2.5089 0.9471
13.3205 0.8582 -2.5089 0.9471
13.2813 1.3329 -2.5089 0.9471
13.2252 1.8059 -2.5089 0.9471
13.0623 2.7442 -2.5088 0.9471
12.8327 3.6685 -2.5087 0.9471
12.6933 4.1239 -2.5086 0.9471
12.5376 4.5740 -2.5085 0.9471
11.9757 5.8867 -2.5082 0.9471
11.7575 6.3099 -2.5081 0.9471
10.7379 7.9165 -2.5075 0.9472
10.3263 8.1974 -2.4781 0.9478
9.2299 8.4675 -2.3543 0.9503
7.2167 10.2305 -2.3532 0.9503
11.2308 -3.8241 -2.5078 0.9527
11.3603 -3.4211 -2.5079 0.9527
11.5759 -2.6024 -2.5080 0.9526
11.6616 -2.1878 -2.5080 0.9526
11.7324 -1.7704 -2.5081 0.9526
11.8653 -0.0834 -2.5081 0.9526
11.8607 0.3400 -2.5081 0.9526
11.8410 0.7629 -2.5081 0.9526
11.8061 1.1848 -2.5081 0.9526
11.5168 2.8521 -2.5079 0.9527
11.2835 3.6659 -2.5078 0.9527
11.1452 4.0660 -2.5077 0.9527
10.9927 4.4609 -2.5077 0.9527
10.8261 4.8500 -2.5076 0.9527
10.6458 5.2330 -2.5075 0.9527
10.0244 6.3397 -2.5071 0.9527
9.7913 6.6929 -2.5070 0.9527
9.5458 7.0376 -2.5069 0.9527
9.2881 7.3733 -2.5067 0.9527
9.0186 7.6995 -2.5066 0.9527
8.7376 8.0159 -2.5064 0.9527
8.3206 8.1989 -2.4692 0.9534
7.0492 8.6159 -2.3531 0.9555
10.0984 -3.4386 -2.5072 0.9571
10.3184 -2.7098 -2.5073 0.9571
10.4858 -1.9672 -2.5074 0.9571
10.6689 -0.0750 -2.5075 0.9571
10.6470 0.6860 -2.5075 0.9571
10.5708 1.4434 -2.5074 0.9571
10.5125 1.8196 -2.5074 0.9571
10.4407 2.1935 -2.5074 0.9571
10.3556 2.5645 -2.5073 0.9571
10.1459 3.2963 -2.5072 0.9571
10.0216 3.6560 -2.5071 0.9571
9.7348 4.3611 -2.5070 0.9571
9.0140 5.7006 -2.5066 0.9571
8.8044 6.0183 -2.5065 0.9571
8.1097 6.9236 -2.5061 0.9571
7.8571 7.2081 -2.5060 0.9571
7.5946 7.4834 -2.5058 0.9571
7.0407 8.0050 -2.5055 0.9571
6.7046 8.1951 -2.4885 0.9574
6.2395 8.2072 -2.4230 0.9585
5.7990 8.2207 -2.3644 0.9595
5.1710 8.5685 -2.3521 0.9597
9.5161 -1.7853 -2.5069 0.9608
9.6736 -0.4134 -2.5069 0.9608
9.6785 0.2774 -2.5069 0.9608
9.5403 1.6513 -2.5069 0.9608
9.2077 2.9915 -2.5067 0.9608
9.0949 3.3180 -2.5066 0.9608
8.6875 4.2704 -2.5064 0.9608
8.3603 4.8787 -2.5062 0.9608
7.5800 6.0173 -2.5058 0.9608
7.1309 6.5418 -2.5056 0.9608
6.1265 7.4881 -2.5050 0.9608
5.2903 8.0984 -2.5046 0.9608
8.4772 -2.5529 -2.5063 0.9639
8.7019 -1.6325 -2.5064 0.9639
8.7547 -1.3211 -2.5064 0.9639
8.8504 0.2537 -2.5065 0.9639
8.8097 0.8841 -2.5065 0.9639
8.7241 1.5100 -2.5064 0.9639
8.5124 2.4334 -2.5063 0.9639
8.4199 2.7355 -2.5063 0.9639
8.2031 3.3288 -2.5061 0.9639
7.9443 3.9051 -2.5060 0.9639
7.7997 4.1859 -2.5059 0.9639
7.4809 4.7311 -2.5058 0.9639
7.3070 4.9948 -2.5057 0.9639
6.9317 5.5027 -2.5055 0.9639
6.7307 5.7462 -2.5053 0.9639
6.3032 6.2110 -2.5051 0.9639
5.8437 6.6440 -2.5049 0.9639
5.6026 6.8479 -2.5047 0.9639
5.3545 7.0430 -2.5046 0.9639
5.0995 7.2291 -2.5045 0.9639
4.8381 7.4060 -2.5043 0.9639
4.5705 7.5735 -2.5042 0.9639
7.8012 -2.3493 -2.5059 0.9665
7.9492 -1.7871 -2.5060 0.9665
8.0949 -0.9275 -2.5061 0.9665
8.1405 -0.3479 -2.5061 0.9665
8.1446 0.2334 -2.5061 0.9665
8.1310 0.5239 -2.5061 0.9665
8.0729 1.1023 -2.5061 0.9665
7.9736 1.6751 -2.5060 0.9665
7.8335 2.2394 -2.5059 0.9665
7.5490 3.0634 -2.5058 0.9665
7.3109 3.5937 -2.5057 0.9665
7.0356 4.1057 -2.5055 0.9665
6.7245 4.5966 -2.5053 0.9665
6.3791 5.0640 -2.5052 0.9665
6.1941 5.2882 -2.5051 0.9665
6.0013 5.5055 -2.5049 0.9665
5.3779 6.1144 -2.5046 0.9665
5.1561 6.3021 -2.5045 0.9665
4.9278 6.4817 -2.5044 0.9665
4.4525 6.8159 -2.5041 0.9665
7.2177 -2.1735 -2.5056 0.9687
7.3545 -1.6534 -2.5057 0.9687
7.4538 -1.1248 -2.5057 0.9687
7.4893 -0.8581 -2.5058 0.9687
7.5152 -0.5904 -2.5058 0.9687
7.5382 -0.0530 -2.5058 0.9687
7.5353 0.2160 -2.5058 0.9687
7.5228 0.4847 -2.5058 0.9687
7.4277 1.2857 -2.5057 0.9687
7.3771 1.5498 -2.5057 0.9687
7.3170 1.8120 -2.5057 0.9687
7.1689 2.3291 -2.5056 0.9687
7.0811 2.5833 -2.5055 0.9687
6.7641 3.3249 -2.5054 0.9687
6.3695 4.0283 -2.5051 0.9687
6.2216 4.2528 -2.5051 0.9687
5.3670 5.2885 -2.5046 0.9687
4.9758 5.6572 -2.5044 0.9687
4.7706 5.8309 -2.5043 0.9687
4.5594 5.9971 -2.5042 0.9687
4.3423 6.1557 -2.5040 0.9687
6.6318 -2.2581 -2.5053 0.9707
6.7083 -2.0201 -2.5053 0.9707
6.8354 -1.5367 -2.5054 0.9707
6.8860 -1.2918 -2.5054 0.9707
6.9848 -0.5487 -2.5055 0.9707
6.9918 0.4505 -2.5055 0.9707
6.9035 1.1949 -2.5054 0.9707
6.8564 1.4404 -2.5054 0.9707
6.8006 1.6841 -2.5054 0.9707
6.5814 2.4010 -2.5053 0.9707
6.0501 3.5305 -2.5050 0.9707
5.9201 3.7440 -2.5049 0.9707
5.7826 3.9527 -2.5048 0.9707
4.9884 4.9154 -2.5044 0.9707
4.8097 5.0900 -2.5043 0.9707
4.6248 5.2582 -2.5042 0.9707
4.4341 5.4196 -2.5041 0.9707
4.2377 5.5741 -2.5040 0.9707
3.8292 5.8616 -2.5038 0.9707
6.1880 -2.1070 -2.5051 0.9724
6.2594 -1.8849 -2.5051 0.9724
6.3780 -1.4338 -2.5052 0.9724
6.4251 -1.2054 -2.5052 0.9724
6.5314 -0.2791 -2.5052 0.9724
6.5372 -0.0459 -2.5052 0.9724
6.5347 0.1873 -2.5052 0.9724
6.5047 0.6528 -2.5052 0.9724
6.4415 1.1150 -2.5052 0.9724
6.3975 1.3440 -2.5052 0.9724
6.1410 2.2403 -2.5050 0.9724
5.5240 3.4935 -2.5047 0.9724
5.3957 3.6882 -2.5046 0.9724
5.1186 4.0634 -2.5045 0.9724
4.8155 4.4177 -2.5043 0.9724
4.4879 4.7495 -2.5041 0.9724
4.3155 4.9064 -2.5040 0.9724
3.9543 5.2013 -2.5038 0.9724
3.7661 5.3388 -2.5037 0.9724
3.3755 5.5933 -2.5035 0.9724
5.9196 -1.5546 -2.5049 0.9739
5.9714 -1.3424 -2.5049 0.9739
6.0520 -0.9132 -2.5050 0.9739
6.0808 -0.6967 -2.5050 0.9739
6.1018 -0.4794 -2.5050 0.9739
6.1150 -0.2614 -2.5050 0.9739
6.1205 -0.0430 -2.5050 0.9739
6.1181 0.1754 -2.5050 0.9739
6.0308 1.0439 -2.5050 0.9739
5.9897 1.2584 -2.5049 0.9739
5.7495 2.0975 -2.5048 0.9739
5.5851 2.5021 -2.5047 0.9739
5.4921 2.6997 -2.5047 0.9739
4.7924 3.8044 -2.5043 0.9739
4.6535 3.9728 -2.5042 0.9739
4.3581 4.2943 -2.5041 0.9739
4.2019 4.4469 -2.5040 0.9739
5.4403 -1.8524 -2.5046 0.9752
5.5030 -1.6572 -2.5047 0.9752
5.5587 -1.4598 -2.5047 0.9752
5.6487 -1.0597 -2.5048 0.9752
5.7100 -0.6542 -2.5048 0.9752
5.7297 -0.4501 -2.5048 0.9752
5.7422 -0.2454 -2.5048 0.9752
5.7473 -0.0404 -2.5048 0.9752
5.7450 0.1647 -2.5048 0.9752
5.6631 0.9802 -2.5048 0.9752
5.6245 1.1816 -2.5047 0.9752
5.4658 1.7758 -2.5047 0.9752
5.3989 1.9696 -2.5046 0.9752
5.3251 2.1609 -2.5046 0.9752
5.2445 2.3495 -2.5045 0.9752
5.1573 2.5351 -2.5045 0.9752
5.0635 2.7174 -2.5044 0.9752
4.8566 3.0714 -2.5043 0.9752
4.7438 3.2426 -2.5043 0.9752
4.6250 3.4097 -2.5042 0.9752
4.2338 3.8841 -2.5040 0.9752
3.6377 4.4462 -2.5037 0.9752
3.1415 4.8090 -2.5034 0.9752
5.1218 -1.7440 -2.5045 0.9764
5.3181 -0.9977 -2.5046 0.9764
5.3503 -0.8073 -2.5046 0.9764
5.3757 -0.6160 -2.5046 0.9764
5.4108 -0.0380 -2.5046 0.9764
5.4087 0.1550 -2.5046 0.9764
5.3997 0.3479 -2.5046 0.9764
5.3611 0.7321 -2.5046 0.9764
5.2023 1.4872 -2.5045 0.9764
5.0829 1.8543 -2.5044 0.9764
4.8554 2.3867 -2.5043 0.9764
4.6727 2.7267 -2.5042 0.9764
4.5723 2.8916 -2.5042 0.9764
4.1141 3.5123 -2.5039 0.9764
3.9860 3.6567 -2.5039 0.9764
3.8529 3.7965 -2.5038 0.9764
3.7149 3.9314 -2.5037 0.9764
3.5721 4.0613 -2.5036 0.9764
3.2732 4.3054 -2.5035 0.9764
3.1175 4.4193 -2.5034 0.9764
2.9577 4.5276 -2.5033 0.9764
2.7942 4.6300 -2.5032 0.9764
4.9381 -1.2968 -2.5044 0.9775
5.0181 -0.9414 -2.5044 0.9775
5.0725 -0.5812 -2.5044 0.9775
5.0900 -0.3999 -2.5045 0.9775
5.1011 -0.2180 -2.5045 0.9775
5.1056 -0.0359 -2.5045 0.9775
5.0308 0.8708 -2.5044 0.9775
4.9965 1.0497 -2.5044 0.9775
4.9088 1.4033 -2.5044 0.9775
4.8556 1.5775 -2.5043 0.9775
4.7962 1.7497 -2.5043 0.9775
4.4982 2.4141 -2.5041 0.9775
4.3145 2.7286 -2.5040 0.9775
4.2143 2.8807 -2.5040 0.9775
4.1087 3.0291 -2.5039 0.9775
3.9979 3.1737 -2.5039 0.9775
3.7612 3.4505 -2.5037 0.9775
3.6356 3.5824 -2.5037 0.9775
3.5054 3.7097 -2.5036 0.9775
3.3707 3.8323 -2.5035 0.9775
3.2318 3.9500 -2.5034 0.9775
3.0887 4.0627 -2.5034 0.9775
2.9417 4.1702 -2.5033 0.9775
2.7909 4.2723 -2.5032 0.9775
4.6221 -1.3919 -2.5042 0.9785
4.7445 -0.8901 -2.5043 0.9785
4.7959 -0.5495 -2.5043 0.9785
4.8125 -0.3781 -2.5043 0.9785
4.8272 -0.0339 -2.5043 0.9785
4.8173 0.3104 -2.5043 0.9785
4.7829 0.6531 -2.5043 0.9785
4.7565 0.8233 -2.5043 0.9785
4.5909 1.4915 -2.5042 0.9785
4.4727 1.8150 -2.5041 0.9785
4.4050 1.9734 -2.5041 0.9785
3.8847 2.8640 -2.5038 0.9785
3.7800 3.0007 -2.5037 0.9785
3.6704 3.1336 -2.5037 0.9785
3.5562 3.2624 -2.5036 0.9785
3.3144 3.5075 -2.5035 0.9785
2.7813 3.9429 -2.5032 0.9785
4.3279 -1.4737 -2.5040 0.9794
4.3778 -1.3183 -2.5041 0.9794
4.4220 -1.1613 -2.5041 0.9794
4.5424 -0.5205 -2.5042 0.9794
4.5581 -0.3581 -2.5042 0.9794
4.5680 -0.1952 -2.5042 0.9794
4.5720 -0.0321 -2.5042 0.9794
4.5627 0.2940 -2.5042 0.9794
4.5301 0.6186 -2.5041 0.9794
4.3959 1.2567 -2.5041 0.9794
4.2950 1.5669 -2.5040 0.9794
4.2363 1.7191 -2.5040 0.9794
4.1722 1.8691 -2.5040 0.9794
4.1028 2.0167 -2.5039 0.9794
3.9484 2.3041 -2.5038 0.9794
3.8636 2.4435 -2.5038 0.9794
3.6794 2.7126 -2.5037 0.9794
3.5802 2.8421 -2.5036 0.9794
3.3683 3.0900 -2.5035 0.9794
3.1392 3.3222 -2.5034 0.9794
2.6344 3.7346 -2.5031 0.9794
2.4994 3.8261 -2.5030 0.9794
2.3612 3.9127 -2.5030 0.9794
4.2886 -0.6471 -2.5040 0.9802
4.3332 -0.1852 -2.5040 0.9802
4.3282 0.2789 -2.5040 0.9802
4.2736 0.7397 -2.5040 0.9802
4.2444 0.8917 -2.5040 0.9802
4.2099 1.0425 -2.5040 0.9802
4.1700 1.1921 -2.5040 0.9802
4.1247 1.3401 -2.5039 0.9802
4.0186 1.6307 -2.5039 0.9802
3.9578 1.7730 -2.5038 0.9802
3.8212 2.0507 -2.5038 0.9802
3.7455 2.1857 -2.5037 0.9802
3.4903 2.5732 -2.5036 0.9802
3.0885 3.0433 -2.5034 0.9802
2.9779 3.1515 -2.5033 0.9802
2.8635 3.2556 -2.5032 0.9802
2.7454 3.3556 -2.5032 0.9802
2.4991 3.5427 -2.5030 0.9802
2.2399 3.7116 -2.5029 0.9802
