ply
format ascii 1.0
element vertex 650
property float32 x
property float32 y
property float32 z
property float32 I
end_header
15.6083 14.4443 3.7498 0.9172
14.4924 14.4178 3.6046 0.9203
13.5535 14.4950 3.4991 0.9226
9.6227 16.2350 3.3277 0.9262
10.0371 30.4673 5.6562 0.8778
1.5057 14.7922 2.6217 0.9414
0.4325 14.8187 2.6140 0.9416
-0.1032 14.8319 2.6153 0.9415
-1.1796 14.8585 2.6282 0.9413
-1.7233 14.8719 2.6399 0.9410
-2.8287 14.8991 2.6741 0.9403
-3.9693 14.9273 2.7235 0.9392
24.3602 18.0723 4.6467 0.8845
24.3956 19.5035 4.7848 0.8813
15.6083 14.4443 3.2579 0.9175
12.6234 14.5179 2.9472 0.9251
11.7474 14.5395 2.8635 0.9271
10.1316 14.5794 2.7198 0.9307
9.6874 16.3442 2.9106 0.9260
9.6240 17.6623 3.0814 0.9218
9.8766 23.9927 3.9748 0.9003
10.0368 30.4661 4.9140 0.8783
11.4917 45.7726 7.2297 0.8262
2.0461 14.7789 2.2856 0.9414
1.5057 14.7922 2.2778 0.9416
0.9683 14.8055 2.2730 0.9417
-0.1032 14.8319 2.2722 0.9417
-3.9693 14.9273 2.3662 0.9394
14.5453 14.4705 2.6718 0.9206
10.9187 14.5600 2.3699 0.9292
10.1316 14.5794 2.3119 0.9309
9.6871 16.3438 2.4741 0.9262
9.8763 23.9919 3.3786 0.9006
10.0364 30.4649 4.1769 0.8786
13.2542 45.7292 6.2000 0.8253
11.4917 45.7727 6.1455 0.8267
10.2561 48.1558 6.4115 0.8199
1.5057 14.7922 1.9362 0.9418
-0.1032 14.8319 1.9315 0.9419
-1.1796 14.8584 1.9410 0.9416
-1.7232 14.8719 1.9496 0.9414
-2.8287 14.8991 1.9748 0.9407
-3.3938 14.9131 1.9916 0.9402
-3.9693 14.9273 2.0114 0.9396
24.2284 16.6522 3.1569 0.8885
24.3595 18.0718 3.2570 0.8851
15.6083 14.4443 2.2836 0.9180
13.5535 14.4950 2.1309 0.9233
11.7474 14.5395 2.0072 0.9276
10.1316 14.5794 1.9065 0.9311
9.6543 15.0231 1.9176 0.9307
9.6869 16.3434 2.0401 0.9264
9.7241 17.8460 2.1824 0.9215
9.7669 19.5763 2.3492 0.9157
9.8760 23.9912 2.7859 0.9009
10.0360 30.4638 3.4442 0.8789
13.2541 45.7291 5.1126 0.8257
10.3508 48.6007 5.3359 0.8188
1.5057 14.7922 1.5966 0.9419
-1.1796 14.8584 1.6005 0.9418
-1.7233 14.8718 1.6077 0.9415
-2.2724 14.8854 1.6169 0.9412
-2.8287 14.8991 1.6285 0.9408
-3.3938 14.9131 1.6423 0.9403
24.3592 18.0716 2.5676 0.8854
16.7533 14.4160 1.8710 0.9151
14.5453 14.4705 1.7368 0.9209
12.6234 14.5179 1.6286 0.9257
10.9187 14.5600 1.5406 0.9295
10.1316 14.5794 1.5029 0.9312
9.7239 17.8456 1.7204 0.9217
9.7666 19.5758 1.8519 0.9159
9.9472 26.8846 2.4266 0.8913
10.0356 30.4626 2.7151 0.8792
13.2541 45.7291 4.0304 0.8260
10.3502 48.5978 4.2062 0.8192
2.0461 14.7788 1.2630 0.9419
1.5057 14.7922 1.2587 0.9421
0.9741 14.8945 1.2636 0.9418
-1.7233 14.8718 1.2674 0.9417
-3.3938 14.9131 1.2947 0.9405
-3.9692 14.9273 1.3075 0.9399
-4.5571 14.9418 1.3224 0.9392
-5.4810 14.2032 1.2888 0.9407
-6.1147 14.2861 1.3155 0.9395
18.7194 13.8876 1.4454 0.9108
15.6083 14.4443 1.3187 0.9183
14.4924 14.4178 1.2676 0.9213
13.5535 14.4949 1.2306 0.9236
12.6234 14.5179 1.1930 0.9258
11.8180 14.6269 1.1661 0.9274
10.9187 14.5600 1.1285 0.9297
9.6227 16.2349 1.1703 0.9272
9.8162 21.5948 1.4710 0.9093
13.2541 45.7291 2.9524 0.8263
10.2561 48.1557 3.0531 0.8209
1.5057 14.7922 0.9220 0.9422
0.9741 14.8945 0.9256 0.9419
0.4351 14.9078 0.9248 0.9420
-0.1032 14.8319 0.9198 0.9423
-0.6401 14.8451 0.9214 0.9422
-1.1796 14.8584 0.9243 0.9420
-1.7233 14.8718 0.9284 0.9418
-2.2642 14.8312 0.9303 0.9416
-4.5571 14.9418 0.9687 0.9393
-5.2631 13.6385 0.9065 0.9431
24.2274 16.6515 1.1592 0.8890
24.3938 19.5021 1.2315 0.8825
16.7533 14.4160 0.8715 0.9153
14.4923 14.4178 0.8061 0.9214
13.5535 14.4949 0.7825 0.9236
12.6234 14.5179 0.7586 0.9259
11.8180 14.6269 0.7415 0.9275
10.9187 14.5599 0.7176 0.9297
9.6537 15.0222 0.7041 0.9310
9.6227 16.2349 0.7442 0.9272
9.6959 19.4341 0.8564 0.9167
9.8751 23.9890 1.0229 0.9014
9.9465 26.8828 1.1302 0.8916
10.0349 30.4603 1.2646 0.8795
10.3490 48.5920 1.9590 0.8196
2.0462 14.7788 0.5883 0.9420
-2.2642 14.8312 0.5916 0.9417
-3.9693 14.9272 0.6091 0.9400
-4.5571 14.9418 0.6160 0.9394
-13.9669 40.4910 1.6889 0.8424
16.8157 12.4753 0.3537 0.9196
16.7533 14.4160 0.3733 0.9154
15.6083 14.4442 0.3592 0.9184
11.8180 14.6269 0.3176 0.9275
10.9187 14.5599 0.3074 0.9298
10.1316 14.5794 0.2999 0.9314
9.6535 15.0218 0.3016 0.9311
9.6226 16.2350 0.3188 0.9273
9.6740 17.7540 0.3415 0.9223
9.8157 21.5936 0.4007 0.9095
9.8748 23.9883 0.4382 0.9014
9.0172 24.3711 0.4389 0.9013
6.1298 24.4156 0.4252 0.9042
5.2030 24.4299 0.4219 0.9049
4.2260 24.0830 0.4130 0.9068
0.4351 14.9078 0.2519 0.9421
-0.1032 14.8319 0.2505 0.9424
-1.1796 14.8584 0.2518 0.9421
-3.3938 14.9131 0.2583 0.9406
-12.2924 35.6363 0.6368 0.8600
-13.7691 35.6806 0.6460 0.8581
-15.2934 35.7305 0.6565 0.8560
24.3245 16.7182 -0.1662 0.8886
16.8157 12.4753 -0.1179 0.9197
16.7533 14.4160 -0.1244 0.9154
14.4923 14.4178 -0.1151 0.9215
12.6234 14.5179 -0.1083 0.9259
9.6533 15.0215 -0.1005 0.9311
9.6954 19.4331 -0.1223 0.9168
9.8154 21.5930 -0.1335 0.9095
9.8745 23.9875 -0.1461 0.9014
9.0166 24.3694 -0.1463 0.9013
7.0719 24.3994 -0.1430 0.9034
6.1294 24.4140 -0.1417 0.9042
5.2027 24.4283 -0.1406 0.9049
1.5057 14.7922 -0.0837 0.9423
-0.6401 14.8451 -0.0837 0.9423
-1.1796 14.8584 -0.0839 0.9421
-2.2642 14.8312 -0.0845 0.9418
-3.3938 14.9130 -0.0861 0.9407
-3.9692 14.9273 -0.0870 0.9401
-10.9280 31.6810 -0.1887 0.8745
24.3241 16.7180 -0.8311 0.8886
14.5453 14.4704 -0.5777 0.9212
11.7474 14.5395 -0.5263 0.9279
9.7227 17.8435 -0.5722 0.9219
9.7654 19.5733 -0.6159 0.9162
9.8151 21.5924 -0.6679 0.9095
9.8742 23.9868 -0.7304 0.9014
7.0714 24.3978 -0.7153 0.9033
6.1290 24.4123 -0.7087 0.9042
4.6900 22.0210 -0.6340 0.9138
3.8678 22.0413 -0.6301 0.9143
1.5057 14.7922 -0.4187 0.9422
0.9683 14.8054 -0.4178 0.9424
-1.7233 14.8718 -0.4216 0.9419
-2.8287 14.8991 -0.4270 0.9411
-3.9692 14.9272 -0.4349 0.9401
-9.6808 28.0654 -0.8360 0.8880
-6.3084 14.7385 -0.4514 0.9379
16.7532 14.4160 -1.1209 0.9153
13.5535 14.4949 -1.0064 0.9236
10.9187 14.5599 -0.9230 0.9297
9.6854 16.3409 -0.9633 0.9267
9.8149 21.5918 -1.2028 0.9094
9.0153 24.3660 -1.3176 0.9012
7.0710 24.3961 -1.2881 0.9033
6.1286 24.4107 -1.2764 0.9041
2.0461 14.7788 -0.7566 0.9420
0.4325 14.8186 -0.7518 0.9424
-2.2724 14.8854 -0.7636 0.9415
-3.3938 14.9130 -0.7756 0.9406
-4.5571 14.9417 -0.7922 0.9394
16.8157 12.4753 -1.5352 0.9195
16.8192 13.4465 -1.5789 0.9173
16.7532 14.4160 -1.6206 0.9152
15.6083 14.4442 -1.5593 0.9182
13.5534 14.4949 -1.4550 0.9235
10.9187 14.5599 -1.3344 0.9296
9.6852 16.3405 -1.3928 0.9266
9.7649 19.5723 -1.6038 0.9160
9.8736 23.9853 -1.9018 0.9012
4.3471 20.4111 -1.5302 0.9197
3.6061 20.5500 -1.5298 0.9197
0.4325 14.8186 -1.0870 0.9423
-0.1032 14.8319 -1.0875 0.9422
-0.6401 14.8451 -1.0895 0.9421
18.4340 12.6697 -2.1475 0.9140
16.7532 14.4160 -2.1219 0.9150
15.6082 14.4442 -2.0417 0.9181
13.5535 14.4949 -1.9052 0.9234
12.6234 14.5179 -1.8470 0.9256
10.9186 14.5599 -1.7472 0.9295
9.6525 15.0203 -1.7141 0.9308
9.7646 19.5718 -2.0999 0.9159
8.0519 21.7621 -2.2277 0.9110
5.6473 22.4938 -2.2265 0.9110
3.5095 19.9994 -1.9494 0.9216
1.5057 14.7922 -1.4275 0.9420
0.9683 14.8054 -1.4244 0.9421
0.4325 14.8186 -1.4233 0.9422
-0.6401 14.8451 -1.4265 0.9420
-1.1796 14.8584 -1.4310 0.9419
-1.7233 14.8718 -1.4373 0.9416
-4.5570 14.9417 -1.4997 0.9392
-4.6408 13.4541 -1.3663 0.9444
14.2345 12.2486 -2.2307 0.9271
12.3167 14.1652 -2.2297 0.9272
8.7379 10.8147 -1.6515 0.9455
8.4150 11.2214 -1.6661 0.9451
9.5653 16.1382 -2.2284 0.9272
8.9749 16.4711 -2.2281 0.9272
8.3729 16.7824 -2.2278 0.9272
5.8653 17.8037 -2.2266 0.9273
3.2380 18.4524 -2.2254 0.9273
2.0461 14.7788 -1.7723 0.9417
0.9683 14.8054 -1.7624 0.9420
-0.6401 14.8451 -1.7650 0.9419
-2.2724 14.8854 -1.7887 0.9411
-2.8287 14.8991 -1.8014 0.9407
-3.3937 14.9130 -1.8167 0.9403
-4.5571 14.9417 -1.8556 0.9390
-4.6825 13.5749 -1.7057 0.9438
13.7027 9.4179 -2.3559 0.9350
12.7255 10.1737 -2.3085 0.9363
11.9276 10.2635 -2.2296 0.9384
11.5481 10.6869 -2.2294 0.9384
10.7444 11.4908 -2.2290 0.9384
8.9740 12.9136 -2.2281 0.9384
8.5007 13.2280 -2.2279 0.9385
7.0174 14.0655 -2.2272 0.9385
6.5040 14.3082 -2.2269 0.9385
5.4527 14.7371 -2.2264 0.9385
4.3734 15.0889 -2.2259 0.9385
3.8250 15.2352 -2.2257 0.9385
3.2717 15.3616 -2.2254 0.9385
1.5057 14.7921 -2.1067 0.9417
0.9683 14.8054 -2.1022 0.9418
-0.1032 14.8318 -2.1016 0.9418
-0.6401 14.8451 -2.1053 0.9417
-1.1796 14.8584 -2.1119 0.9416
-1.7232 14.8718 -2.1213 0.9413
-2.8287 14.8991 -2.1488 0.9406
-4.5571 14.9417 -2.2134 0.9388
-4.6825 13.5749 -2.0346 0.9436
-5.8258 13.6110 -2.0978 0.9419
10.4891 9.7068 -2.3543 0.9437
10.1308 10.0786 -2.3542 0.9437
9.5443 10.2073 -2.3021 0.9449
8.4993 10.5194 -2.2279 0.9467
8.1130 10.8186 -2.2277 0.9467
7.7162 11.1037 -2.2275 0.9467
6.8931 11.6298 -2.2271 0.9467
6.0343 12.0949 -2.2267 0.9467
5.5929 12.3038 -2.2265 0.9467
5.1443 12.4966 -2.2263 0.9467
3.7610 12.9760 -2.2256 0.9467
2.8136 13.2109 -2.2252 0.9467
2.3343 13.3026 -2.2249 0.9467
1.3674 13.4336 -2.2245 0.9467
0.8812 13.4728 -2.2242 0.9467
0.3938 13.4944 -2.2240 0.9467
-0.5814 13.4848 -2.2235 0.9468
-1.0681 13.4535 -2.2233 0.9468
-2.5166 13.2549 -2.2226 0.9468
-3.9346 12.9008 -2.2219 0.9468
-4.8549 12.5805 -2.2215 0.9468
10.9920 7.5547 -2.5070 0.9472
10.7113 7.9465 -2.5068 0.9472
8.5515 9.1455 -2.3534 0.9503
7.8677 9.7377 -2.3531 0.9503
6.5796 10.2385 -2.2876 0.9517
6.0717 10.2439 -2.2383 0.9527
5.6679 10.4018 -2.2265 0.9529
5.2879 10.5989 -2.2264 0.9529
4.9012 10.7821 -2.2262 0.9529
4.1092 11.1060 -2.2258 0.9529
3.7050 11.2462 -2.2256 0.9530
2.4658 11.5779 -2.2250 0.9530
1.1985 11.7735 -2.2244 0.9530
0.7723 11.8080 -2.2242 0.9530
0.3452 11.8271 -2.2240 0.9530
-0.9362 11.7918 -2.2234 0.9530
-1.3614 11.7492 -2.2232 0.9530
-1.7848 11.6912 -2.2230 0.9530
-2.2058 11.6181 -2.2228 0.9530
-3.4489 11.3082 -2.2222 0.9530
-3.8548 11.1752 -2.2220 0.9530
-4.6508 10.8659 -2.2216 0.9530
9.7718 6.7162 -2.5064 0.9527
8.9865 7.7328 -2.5060 0.9527
8.7008 8.0519 -2.5059 0.9527
8.2433 8.2008 -2.4579 0.9536
7.6821 8.2157 -2.3775 0.9551
7.3035 8.3995 -2.3528 0.9555
6.6771 8.9038 -2.3525 0.9555
6.3506 9.1386 -2.3523 0.9555
6.0159 9.3614 -2.3522 0.9555
5.6734 9.5719 -2.3520 0.9555
4.6035 10.1273 -2.3515 0.9555
4.2250 10.2634 -2.3461 0.9556
3.7991 10.2679 -2.3142 0.9562
2.9785 10.2766 -2.2617 0.9572
2.5811 10.2808 -2.2406 0.9576
2.1925 10.2946 -2.2249 0.9579
1.0656 10.4688 -2.2243 0.9579
0.6867 10.4996 -2.2241 0.9579
-0.4532 10.5096 -2.2236 0.9579
-0.8325 10.4856 -2.2234 0.9579
-1.2106 10.4478 -2.2232 0.9579
-1.5871 10.3964 -2.2230 0.9579
-1.9610 10.3287 -2.2223 0.9579
-2.3514 10.3329 -2.2400 0.9576
-3.1540 10.3413 -2.2854 0.9568
-4.3785 10.2296 -2.3521 0.9555
8.7871 6.0394 -2.5059 0.9571
8.5629 6.3526 -2.5058 0.9571
8.3274 6.6575 -2.5057 0.9571
7.8242 7.2407 -2.5055 0.9571
7.2802 7.7859 -2.5052 0.9571
6.9938 8.0434 -2.5051 0.9571
6.6230 8.1972 -2.4768 0.9576
6.1562 8.2092 -2.4116 0.9587
4.7875 8.7861 -2.3516 0.9597
3.8081 9.2506 -2.3511 0.9597
3.4711 9.3815 -2.3510 0.9597
3.1298 9.5001 -2.3508 0.9597
2.7843 9.6063 -2.3506 0.9597
2.4353 9.6999 -2.3505 0.9597
1.3713 9.9043 -2.3499 0.9597
1.0125 9.9467 -2.3498 0.9598
0.6525 9.9760 -2.3496 0.9598
0.2917 9.9923 -2.3494 0.9598
-0.0695 9.9956 -2.3492 0.9598
-0.4305 9.9858 -2.3491 0.9598
-0.7909 9.9630 -2.3489 0.9598
-1.8638 9.8168 -2.3484 0.9598
-2.2170 9.7423 -2.3482 0.9598
-2.5674 9.6552 -2.3480 0.9598
-2.9143 9.5555 -2.3479 0.9598
-3.5961 9.3188 -2.3476 0.9598
7.9749 5.4812 -2.5055 0.9608
6.8588 6.8235 -2.5050 0.9608
6.6075 7.0665 -2.5049 0.9608
5.5196 7.9428 -2.5043 0.9608
5.2288 8.1365 -2.5042 0.9608
4.4722 8.2075 -2.4201 0.9621
4.0988 8.2154 -2.3772 0.9628
3.1506 8.5152 -2.3508 0.9632
2.5272 8.7193 -2.3505 0.9632
2.2104 8.8044 -2.3503 0.9632
1.8908 8.8779 -2.3502 0.9632
1.2447 8.9900 -2.3499 0.9632
0.9190 9.0285 -2.3497 0.9632
0.5922 9.0552 -2.3496 0.9632
0.2647 9.0701 -2.3494 0.9632
-1.0442 9.0112 -2.3488 0.9632
-1.6918 8.9111 -2.3485 0.9632
-2.0125 8.8436 -2.3483 0.9632
-2.3305 8.7646 -2.3482 0.9632
-2.9569 8.5723 -2.3479 0.9632
7.2930 5.0124 -2.5052 0.9639
7.1068 5.2724 -2.5051 0.9639
6.9115 5.5255 -2.5050 0.9639
6.7071 5.7714 -2.5049 0.9639
6.2724 6.2401 -2.5047 0.9639
5.8049 6.6761 -2.5045 0.9639
5.3072 7.0771 -2.5042 0.9639
5.0478 7.2638 -2.5041 0.9639
4.5097 7.6086 -2.5039 0.9639
4.2315 7.7661 -2.5037 0.9639
3.3661 8.1770 -2.5033 0.9639
2.7023 8.2027 -2.4449 0.9647
2.3789 8.2075 -2.4191 0.9651
2.0616 8.2116 -2.3968 0.9654
1.7496 8.2151 -2.3778 0.9657
1.4424 8.2200 -2.3626 0.9659
1.1395 8.2303 -2.3522 0.9660
0.8406 8.2574 -2.3497 0.9661
0.5417 8.2819 -2.3495 0.9661
0.2421 8.2955 -2.3494 0.9661
-0.3574 8.2903 -2.3491 0.9661
-0.6567 8.2715 -2.3490 0.9661
-1.2557 8.2257 -2.3556 0.9660
-1.5600 8.2167 -2.3676 0.9658
-2.8285 8.2002 -2.4557 0.9646
-3.4749 8.1187 -2.5000 0.9640
6.7117 4.6129 -2.5049 0.9665
6.5404 4.8522 -2.5048 0.9665
4.4009 6.8482 -2.5038 0.9665
3.6336 7.2831 -2.5034 0.9665
3.3680 7.4092 -2.5033 0.9665
3.0980 7.5256 -2.5032 0.9665
2.5462 7.7289 -2.5029 0.9665
2.2652 7.8154 -2.5028 0.9665
1.9813 7.8917 -2.5026 0.9665
1.6948 7.9577 -2.5025 0.9665
1.1157 8.0584 -2.5022 0.9665
0.5309 8.1170 -2.5019 0.9665
-0.9360 8.0780 -2.5012 0.9665
-1.2271 8.0384 -2.5011 0.9665
-2.0892 7.8572 -2.5007 0.9665
-2.3716 7.7762 -2.5005 0.9665
-3.1985 7.4727 -2.5001 0.9666
6.2097 4.2679 -2.5047 0.9687
6.0513 4.4894 -2.5046 0.9687
5.7110 4.9143 -2.5044 0.9687
5.3409 5.3134 -2.5043 0.9687
4.9429 5.6847 -2.5041 0.9687
4.0720 6.3363 -2.5036 0.9688
3.8402 6.4790 -2.5035 0.9688
3.3621 6.7387 -2.5033 0.9688
3.1163 6.8555 -2.5032 0.9688
2.6129 7.0619 -2.5029 0.9688
2.0960 7.2314 -2.5027 0.9688
1.5682 7.3631 -2.5024 0.9688
1.3011 7.4146 -2.5023 0.9688
1.0324 7.4564 -2.5022 0.9688
0.7623 7.4884 -2.5021 0.9688
-0.0524 7.5257 -2.5017 0.9688
-0.8661 7.4747 -2.5013 0.9688
-1.1355 7.4382 -2.5011 0.9688
-1.9333 7.2706 -2.5008 0.9688
-2.1945 7.1956 -2.5006 0.9688
-2.4530 7.1113 -2.5005 0.9688
5.7717 3.9668 -2.5045 0.9707
5.6244 4.1726 -2.5044 0.9707
5.1395 4.7562 -2.5042 0.9707
4.9642 4.9386 -2.5041 0.9707
4.7823 5.1145 -2.5040 0.9707
4.5943 5.2838 -2.5039 0.9707
4.2005 5.6013 -2.5037 0.9707
3.9952 5.7491 -2.5036 0.9707
3.7848 5.8895 -2.5035 0.9707
3.5694 6.0221 -2.5034 0.9707
3.3494 6.1468 -2.5033 0.9707
2.8966 6.3721 -2.5031 0.9707
2.6643 6.4723 -2.5030 0.9707
1.9482 6.7216 -2.5026 0.9707
1.4577 6.8441 -2.5024 0.9707
1.2094 6.8919 -2.5023 0.9707
0.7085 6.9606 -2.5020 0.9707
0.4566 6.9813 -2.5019 0.9707
-0.0486 6.9954 -2.5017 0.9707
-0.3013 6.9887 -2.5015 0.9707
-0.5536 6.9729 -2.5014 0.9707
-0.8051 6.9480 -2.5013 0.9707
-1.0555 6.9141 -2.5012 0.9707
-1.5518 6.8192 -2.5009 0.9707
-1.7971 6.7583 -2.5008 0.9707
-2.0400 6.6887 -2.5007 0.9707
-2.2801 6.6103 -2.5006 0.9707
-2.5173 6.5233 -2.5005 0.9707
-2.7512 6.4279 -2.5004 0.9707
5.2482 3.8935 -2.5042 0.9724
5.1039 4.0804 -2.5041 0.9724
4.2870 4.9304 -2.5037 0.9724
4.1059 5.0818 -2.5037 0.9724
3.5317 5.4956 -2.5034 0.9724
3.3307 5.6194 -2.5033 0.9724
2.0435 6.2027 -2.5027 0.9724
1.3602 6.3866 -2.5023 0.9724
1.1286 6.4312 -2.5022 0.9724
0.8955 6.4675 -2.5021 0.9724
0.6612 6.4954 -2.5020 0.9724
0.4261 6.5147 -2.5019 0.9724
0.1905 6.5256 -2.5018 0.9724
-0.2812 6.5217 -2.5015 0.9724
-0.9850 6.4521 -2.5012 0.9724
-1.6770 6.3068 -2.5009 0.9724
4.7787 3.8204 -2.5040 0.9739
4.4901 4.1552 -2.5038 0.9739
4.1781 4.4683 -2.5037 0.9739
4.0138 4.6162 -2.5036 0.9739
3.6698 4.8937 -2.5035 0.9739
3.4905 5.0229 -2.5034 0.9739
3.1185 5.2614 -2.5032 0.9739
2.9263 5.3704 -2.5031 0.9739
2.7303 5.4724 -2.5030 0.9739
2.3278 5.6548 -2.5028 0.9739
2.1219 5.7350 -2.5027 0.9739
1.9133 5.8077 -2.5026 0.9739
0.3990 6.0999 -2.5019 0.9739
-0.4837 6.0927 -2.5015 0.9739
-0.7034 6.0710 -2.5013 0.9739
-0.9223 6.0414 -2.5012 0.9739
-1.3560 5.9585 -2.5010 0.9739
-1.5703 5.9054 -2.5009 0.9739
-1.7825 5.8446 -2.5008 0.9739
-1.9924 5.7762 -2.5007 0.9739
-2.4041 5.6168 -2.5005 0.9739
4.0726 4.0516 -2.5036 0.9752
3.7692 4.3349 -2.5035 0.9752
3.6100 4.4681 -2.5034 0.9752
3.4462 4.5954 -2.5033 0.9752
3.2778 4.7168 -2.5033 0.9752
2.9285 4.9408 -2.5031 0.9753
2.3765 5.2281 -2.5028 0.9753
2.1860 5.3103 -2.5027 0.9753
1.9927 5.3856 -2.5026 0.9753
1.5985 5.5150 -2.5025 0.9753
-0.0399 5.7400 -2.5017 0.9753
-0.2472 5.7346 -2.5016 0.9753
-0.4543 5.7217 -2.5015 0.9753
-0.6606 5.7013 -2.5014 0.9753
-1.2734 5.5957 -2.5011 0.9753
-1.4747 5.5459 -2.5010 0.9753
-2.0658 5.3532 -2.5007 0.9753
-2.2578 5.2749 -2.5006 0.9753
4.4579 3.0639 -2.5038 0.9764
4.2248 3.3776 -2.5037 0.9764
3.8343 3.8145 -2.5035 0.9764
3.6939 3.9505 -2.5035 0.9764
3.2445 4.3265 -2.5032 0.9764
3.0860 4.4408 -2.5032 0.9764
2.5872 4.7481 -2.5029 0.9764
2.4139 4.8383 -2.5028 0.9764
1.6917 5.1348 -2.5025 0.9765
1.5050 5.1924 -2.5024 0.9765
0.9343 5.3242 -2.5021 0.9765
0.5474 5.3773 -2.5019 0.9765
0.1577 5.4024 -2.5018 0.9765
-0.4277 5.3872 -2.5015 0.9765
-1.1990 5.2686 -2.5011 0.9765
-1.3885 5.2217 -2.5010 0.9765
-1.9450 5.0403 -2.5007 0.9765
-2.1257 4.9665 -2.5007 0.9765
4.2065 2.8911 -2.5037 0.9775
4.0992 3.0411 -2.5037 0.9775
3.9866 3.1871 -2.5036 0.9775
3.8687 3.3290 -2.5035 0.9775
3.6181 3.5995 -2.5034 0.9775
3.4856 3.7277 -2.5034 0.9775
3.3486 3.8511 -2.5033 0.9775
3.2072 3.9695 -2.5032 0.9775
2.7587 4.2928 -2.5030 0.9775
2.4414 4.4805 -2.5029 0.9775
2.1114 4.6448 -2.5027 0.9775
1.9421 4.7178 -2.5026 0.9775
1.5963 4.8454 -2.5025 0.9775
1.4202 4.8998 -2.5024 0.9775
0.8816 5.0241 -2.5021 0.9775
0.5165 5.0743 -2.5019 0.9775
0.3329 5.0895 -2.5018 0.9775
0.1488 5.0980 -2.5018 0.9775
-0.5870 5.0656 -2.5014 0.9775
-0.9511 5.0096 -2.5012 0.9775
-1.1314 4.9718 -2.5011 0.9775
-1.4873 4.8768 -2.5010 0.9775
-1.6625 4.8197 -2.5009 0.9775
-2.0060 4.6868 -2.5007 0.9775
3.6579 3.1475 -2.5034 0.9785
3.5417 3.2776 -2.5034 0.9785
3.4209 3.4033 -2.5033 0.9785
3.2957 3.5246 -2.5033 0.9785
3.1661 3.6412 -2.5032 0.9785
3.0324 3.7531 -2.5031 0.9785
2.8948 3.8601 -2.5031 0.9785
2.3083 4.2363 -2.5028 0.9785
2.1537 4.3168 -2.5027 0.9785
1.9963 4.3917 -2.5026 0.9785
1.6739 4.5241 -2.5025 0.9785
1.3428 4.6328 -2.5023 0.9785
1.1745 4.6782 -2.5022 0.9785
0.8336 4.7504 -2.5021 0.9785
0.6614 4.7773 -2.5020 0.9785
0.3148 4.8123 -2.5018 0.9785
0.1407 4.8203 -2.5018 0.9785
-0.0335 4.8221 -2.5017 0.9785
-0.2077 4.8176 -2.5016 0.9785
-0.7276 4.7664 -2.5013 0.9785
-1.0698 4.7011 -2.5012 0.9785
-1.2389 4.6592 -2.5011 0.9785
-1.7355 4.4974 -2.5008 0.9785
3.7670 2.5890 -2.5035 0.9794
3.5701 2.8542 -2.5034 0.9794
3.1215 3.3383 -2.5032 0.9794
2.9988 3.4488 -2.5031 0.9794
2.8722 3.5548 -2.5031 0.9794
2.7418 3.6562 -2.5030 0.9794
2.6079 3.7527 -2.5029 0.9794
2.3300 3.9310 -2.5028 0.9794
2.1864 4.0125 -2.5027 0.9794
1.8908 4.1597 -2.5026 0.9794
1.7393 4.2251 -2.5025 0.9794
1.4296 4.3394 -2.5024 0.9794
1.2719 4.3881 -2.5023 0.9794
1.1125 4.4311 -2.5022 0.9794
0.9517 4.4682 -2.5021 0.9794
0.7896 4.4995 -2.5021 0.9794
0.4626 4.5445 -2.5019 0.9794
0.2981 4.5581 -2.5018 0.9794
0.1333 4.5658 -2.5017 0.9794
-0.0318 4.5675 -2.5017 0.9794
-0.3614 4.5529 -2.5015 0.9794
-0.5257 4.5368 -2.5014 0.9794
-0.8518 4.4867 -2.5013 0.9794
-1.0133 4.4529 -2.5012 0.9794
-1.1735 4.4132 -2.5011 0.9794
-1.3321 4.3678 -2.5010 0.9794
-1.7967 4.1977 -2.5008 0.9794
3.5734 2.4560 -2.5034 0.9802
3.2866 2.8280 -2.5033 0.9802
3.1822 2.9448 -2.5032 0.9802
3.0737 3.0578 -2.5032 0.9802
2.8447 3.2716 -2.5031 0.9802
2.4739 3.5599 -2.5029 0.9802
2.2103 3.7291 -2.5027 0.9802
2.0741 3.8064 -2.5027 0.9802
1.6500 4.0081 -2.5025 0.9802
1.5041 4.0650 -2.5024 0.9802
1.3562 4.1165 -2.5023 0.9802
1.2066 4.1627 -2.5023 0.9802
1.0553 4.2035 -2.5022 0.9802
0.9028 4.2387 -2.5021 0.9802
0.7490 4.2684 -2.5020 0.9802
0.4389 4.3111 -2.5019 0.9802
-0.3429 4.3192 -2.5015 0.9802
-0.6538 4.2829 -2.5014 0.9802
-0.8081 4.2563 -2.5013 0.9802
-0.9613 4.2242 -2.5012 0.9802
-1.2637 4.1436 -2.5011 0.9802
-1.4125 4.0951 -2.5010 0.9802
-1.5595 4.0413 -2.5009 0.9802
