ply
format ascii 1.0
element vertex 299
property float32 x
property float32 y
property float32 z
property float32 I
end_header
-30.5993 -8.6275 4.1400 0.8796
-30.6675 -17.6694 4.6090 0.8670
-30.6631 -14.8832 3.6600 0.8719
-30.6683 -17.6699 2.9962 0.8675
-30.6696 -17.6706 0.5979 0.8680
-30.6700 -17.6708 -0.1993 0.8680
-30.6705 -17.6711 -0.9967 0.8679
-48.8960 0.4148 -2.4798 0.8221
-48.8801 -1.3167 -2.4798 0.8221
-48.8035 -3.0465 -2.4799 0.8221
-48.6663 -4.7726 -2.4799 0.8221
-48.4687 -6.4929 -2.4800 0.8221
-48.2105 -8.2052 -2.4801 0.8221
-47.0783 -13.2739 -2.4806 0.8221
-42.3459 -18.7314 -2.3483 0.8307
-41.6935 -22.0940 -2.3930 0.8278
-30.6709 -17.6714 -1.7952 0.8678
-40.2145 -27.1320 -2.4602 0.8234
-39.5841 -28.7973 -2.4825 0.8220
-38.3400 -30.0244 -2.4696 0.8228
-35.0445 -31.6904 -2.3962 0.8276
-28.3724 -27.5445 -2.0054 0.8535
-32.1865 -33.5413 -2.3575 0.8301
-33.8999 -0.9132 -2.4865 0.8728
-33.8467 -2.1128 -2.4865 0.8728
-33.7513 -3.3099 -2.4866 0.8728
-33.6138 -4.5029 -2.4866 0.8728
-33.4344 -5.6904 -2.4867 0.8728
-33.2133 -6.8709 -2.4868 0.8728
-32.9507 -8.0428 -2.4869 0.8728
-32.3027 -10.3557 -2.4872 0.8728
-29.6376 -15.7054 -2.4593 0.8741
-27.8361 -17.3790 -2.4061 0.8767
-27.3261 -18.4364 -2.4170 0.8762
-25.9796 -21.8721 -2.4901 0.8727
-25.1925 -22.7814 -2.4904 0.8726
-23.5243 -24.5144 -2.4912 0.8726
-25.9372 0.2200 -2.4902 0.9010
-25.9279 -0.6984 -2.4901 0.9010
-25.8869 -1.6160 -2.4901 0.9010
-25.8138 -2.5315 -2.4901 0.9010
-25.7085 -3.4439 -2.4902 0.9010
-25.2007 -6.1512 -2.4904 0.9010
-24.7044 -7.9198 -2.4906 0.9010
-23.7295 -10.4966 -2.4911 0.9010
-23.3446 -11.3309 -2.4912 0.9010
-21.5182 -14.5179 -2.4921 0.9009
-20.4408 -16.0074 -2.4925 0.9009
-19.2608 -17.4174 -2.4931 0.9009
-20.8817 -2.0478 -2.4923 0.9190
-20.5480 -4.2508 -2.4925 0.9190
-19.9835 -6.4063 -2.4928 0.9189
-19.4818 -7.8051 -2.4930 0.9189
-18.8826 -9.1652 -2.4932 0.9189
-18.5474 -9.8286 -2.4934 0.9189
-18.1890 -10.4798 -2.4936 0.9189
-17.8078 -11.1179 -2.4937 0.9189
-16.0648 -13.5249 -2.4945 0.9189
-15.5773 -14.0864 -2.4947 0.9189
-17.6000 0.1493 -2.4938 0.9314
-17.5942 -0.4739 -2.4938 0.9314
-17.4453 -2.3370 -2.4939 0.9314
-17.2368 -3.5658 -2.4940 0.9314
-16.9421 -4.7769 -2.4941 0.9314
-15.5577 -8.2443 -2.4947 0.9313
-15.2569 -8.7904 -2.4949 0.9313
-14.9369 -9.3256 -2.4950 0.9313
-14.5983 -9.8492 -2.4952 0.9313
-13.8665 -10.8590 -2.4955 0.9313
-15.1441 0.1285 -2.4949 0.9405
-14.7139 -3.5915 -2.4951 0.9404
-14.5779 -4.1103 -2.4952 0.9404
-14.2512 -5.1318 -2.4953 0.9404
-14.0611 -5.6334 -2.4954 0.9404
-13.8534 -6.1279 -2.4955 0.9404
-13.3861 -7.0935 -2.4957 0.9404
-13.1272 -7.5634 -2.4958 0.9404
-12.8518 -8.0238 -2.4959 0.9404
-11.9305 -9.3429 -2.4964 0.9404
-11.5929 -9.7600 -2.4965 0.9404
-10.4947 -10.9364 -2.4970 0.9404
-13.2776 0.1126 -2.4958 0.9474
-13.0903 -2.2279 -2.4958 0.9474
-13.0034 -2.6900 -2.4959 0.9474
-12.9002 -3.1488 -2.4959 0.9474
-12.7809 -3.6036 -2.4960 0.9474
-12.6456 -4.0540 -2.4960 0.9474
-12.4945 -4.4993 -2.4961 0.9474
-12.3278 -4.9390 -2.4962 0.9474
-12.1456 -5.3725 -2.4963 0.9474
-11.9481 -5.7994 -2.4963 0.9474
-11.7358 -6.2190 -2.4964 0.9474
-11.2672 -7.0345 -2.4967 0.9474
-11.0116 -7.4293 -2.4968 0.9474
-10.7422 -7.8149 -2.4969 0.9474
-10.4593 -8.1908 -2.4970 0.9474
-10.1633 -8.5564 -2.4971 0.9474
-9.5334 -9.2552 -2.4974 0.9474
-11.8096 0.1002 -2.4964 0.9529
-11.8058 -0.3180 -2.4964 0.9529
-11.7057 -1.5681 -2.4965 0.9529
-11.5657 -2.3926 -2.4965 0.9529
-10.9646 -4.3929 -2.4968 0.9529
-10.6269 -5.1581 -2.4969 0.9529
-10.4380 -5.5313 -2.4970 0.9529
-10.0211 -6.2565 -2.4972 0.9528
-9.5541 -6.9506 -2.4974 0.9528
-9.3024 -7.2848 -2.4975 0.9528
-8.7644 -7.9256 -2.4978 0.9528
-8.4787 -8.2313 -2.4979 0.9528
-8.1825 -8.5268 -2.4980 0.9528
-10.5736 -1.0369 -2.4970 0.9573
-10.4739 -1.7826 -2.4970 0.9573
-10.4044 -2.1524 -2.4970 0.9573
-10.3218 -2.5194 -2.4971 0.9573
-10.2263 -2.8833 -2.4971 0.9573
-9.8635 -3.9517 -2.4973 0.9573
-9.7177 -4.2986 -2.4973 0.9573
-9.5597 -4.6400 -2.4974 0.9573
-9.0146 -5.6281 -2.4977 0.9573
-8.5944 -6.2524 -2.4978 0.9573
-8.3680 -6.5531 -2.4980 0.9573
-8.1311 -6.8455 -2.4981 0.9573
-7.3604 -7.6702 -2.4984 0.9573
-9.6268 -0.6009 -2.4974 0.9609
-9.5995 -0.9414 -2.4974 0.9609
-9.5090 -1.6184 -2.4974 0.9609
-9.3708 -2.2873 -2.4975 0.9609
-9.1858 -2.9448 -2.4976 0.9609
-9.0759 -3.2682 -2.4976 0.9609
-8.8223 -3.9023 -2.4977 0.9609
-8.3594 -4.8164 -2.4980 0.9609
-8.1839 -5.1095 -2.4980 0.9609
-7.8024 -5.6762 -2.4982 0.9609
-7.1573 -6.4723 -2.4985 0.9609
-6.9240 -6.7219 -2.4986 0.9609
-8.8227 0.0748 -2.4977 0.9640
-8.8199 -0.2376 -2.4977 0.9640
-8.8059 -0.5497 -2.4978 0.9640
-8.5718 -2.0923 -2.4979 0.9640
-8.3020 -2.9896 -2.4980 0.9640
-8.1911 -3.2817 -2.4980 0.9640
-8.0700 -3.5697 -2.4981 0.9640
-7.9387 -3.8533 -2.4981 0.9640
-7.7975 -4.1320 -2.4982 0.9640
-7.6466 -4.4056 -2.4983 0.9640
-7.3161 -4.9360 -2.4984 0.9640
-6.9489 -5.4417 -2.4986 0.9640
-6.5468 -5.9202 -2.4988 0.9640
-6.1119 -6.3692 -2.4990 0.9640
-8.0067 -1.3627 -2.4981 0.9666
-7.6420 -2.7519 -2.4983 0.9666
-7.5400 -3.0208 -2.4983 0.9666
-7.3076 -3.5469 -2.4984 0.9666
-6.8908 -4.3021 -2.4986 0.9666
-6.3963 -5.0090 -2.4988 0.9666
-6.0262 -5.4495 -2.4990 0.9666
-5.8297 -5.6596 -2.4991 0.9666
-5.6259 -5.8627 -2.4992 0.9666
-7.4801 -0.7336 -2.4983 0.9688
-7.4495 -0.9979 -2.4984 0.9688
-7.4095 -1.2611 -2.4984 0.9688
-7.3603 -1.5226 -2.4984 0.9688
-7.3018 -1.7823 -2.4984 0.9688
-7.1576 -2.2946 -2.4985 0.9688
-7.0720 -2.5466 -2.4985 0.9688
-6.9775 -2.7954 -2.4986 0.9688
-6.8743 -3.0408 -2.4986 0.9688
-6.7624 -3.2823 -2.4987 0.9688
-6.6421 -3.5198 -2.4987 0.9688
-6.5135 -3.7528 -2.4988 0.9688
-6.3767 -3.9812 -2.4988 0.9688
-6.0793 -4.4227 -2.4990 0.9688
-5.9191 -4.6353 -2.4990 0.9688
-5.7514 -4.8421 -2.4991 0.9688
-5.5766 -5.0429 -2.4992 0.9688
-5.2061 -5.4252 -2.4994 0.9688
-6.9867 0.0593 -2.4986 0.9708
-6.8880 -1.1723 -2.4986 0.9708
-6.8422 -1.4155 -2.4986 0.9708
-6.7250 -1.8962 -2.4987 0.9708
-6.5742 -2.3674 -2.4988 0.9708
-6.4863 -2.5987 -2.4988 0.9708
-6.3904 -2.8267 -2.4988 0.9708
-6.0550 -3.4886 -2.4990 0.9708
-5.7932 -3.9086 -2.4991 0.9707
-5.6513 -4.1113 -2.4992 0.9707
-5.5024 -4.3089 -2.4992 0.9707
-5.1839 -4.6878 -2.4994 0.9707
-6.5203 0.0553 -2.4988 0.9725
-6.5079 -0.4063 -2.4988 0.9725
-6.4894 -0.6364 -2.4988 0.9725
-6.3347 -1.5462 -2.4989 0.9725
-6.2761 -1.7696 -2.4989 0.9725
-6.1353 -2.2093 -2.4989 0.9725
-5.9638 -2.6380 -2.4990 0.9725
-5.8667 -2.8476 -2.4991 0.9725
-5.7623 -3.0536 -2.4991 0.9725
-5.6507 -3.2557 -2.4992 0.9725
-5.5320 -3.4538 -2.4992 0.9725
-5.4064 -3.6476 -2.4993 0.9724
-4.8378 -4.3748 -2.4995 0.9724
-4.6800 -4.5434 -2.4996 0.9724
-6.1056 0.0518 -2.4990 0.9740
-6.0767 -0.5959 -2.4990 0.9740
-6.0518 -0.8107 -2.4990 0.9740
-6.0194 -1.0245 -2.4990 0.9740
-5.9794 -1.2370 -2.4990 0.9740
-5.8770 -1.6570 -2.4991 0.9740
-5.6683 -2.2709 -2.4992 0.9740
-5.5845 -2.4702 -2.4992 0.9740
-5.4936 -2.6665 -2.4992 0.9740
-5.3958 -2.8593 -2.4993 0.9740
-5.2913 -3.0486 -2.4993 0.9740
-5.1802 -3.2341 -2.4994 0.9740
-5.0625 -3.4156 -2.4994 0.9740
-4.9385 -3.5928 -2.4995 0.9740
-4.6721 -3.9334 -2.4996 0.9739
-4.5300 -4.0965 -2.4997 0.9739
-4.2290 -4.4070 -2.4998 0.9739
-5.7341 0.0486 -2.4991 0.9753
-5.7232 -0.3573 -2.4991 0.9753
-5.6156 -1.1617 -2.4992 0.9753
-5.5194 -1.5562 -2.4992 0.9753
-5.2447 -2.3200 -2.4993 0.9753
-5.1593 -2.5042 -2.4994 0.9753
-4.6380 -3.3741 -2.4996 0.9753
-4.5157 -3.5363 -2.4997 0.9753
-4.3878 -3.6941 -2.4997 0.9753
-3.9717 -4.1388 -2.4999 0.9753
-5.3974 -0.1454 -2.4993 0.9765
-5.3889 -0.3364 -2.4993 0.9765
-5.3516 -0.7169 -2.4993 0.9765
-5.1969 -1.4653 -2.4994 0.9765
-5.0803 -1.8294 -2.4994 0.9765
-5.0124 -2.0082 -2.4995 0.9765
-4.6790 -2.6959 -2.4996 0.9765
-4.5807 -2.8599 -2.4996 0.9765
-4.2519 -3.3297 -2.4998 0.9765
-4.0058 -3.6224 -2.4999 0.9765
-3.7395 -3.8969 -2.5000 0.9765
-5.0952 0.0432 -2.4994 0.9776
-5.0503 -0.6765 -2.4994 0.9776
-4.9044 -1.3828 -2.4995 0.9776
-4.7943 -1.7264 -2.4995 0.9776
-4.5844 -2.2252 -2.4996 0.9776
-4.5028 -2.3861 -2.4997 0.9776
-4.0125 -3.1422 -2.4999 0.9775
-3.8988 -3.2824 -2.5000 0.9775
-3.7802 -3.4184 -2.5000 0.9775
-3.6569 -3.5502 -2.5001 0.9775
-3.5290 -3.6775 -2.5001 0.9775
-4.8164 -0.1297 -2.4995 0.9785
-4.8088 -0.3002 -2.4995 0.9785
-4.7951 -0.4703 -2.4995 0.9785
-4.7499 -0.8084 -2.4996 0.9785
-4.7183 -0.9761 -2.4996 0.9785
-4.6808 -1.1425 -2.4996 0.9785
-4.5883 -1.4709 -2.4996 0.9785
-4.5334 -1.6325 -2.4997 0.9785
-4.4728 -1.7920 -2.4997 0.9785
-4.4066 -1.9492 -2.4997 0.9785
-4.3349 -2.1041 -2.4998 0.9785
-4.2577 -2.2562 -2.4998 0.9785
-4.1752 -2.4056 -2.4998 0.9785
-3.8968 -2.8349 -2.5000 0.9785
-3.6866 -3.1037 -2.5000 0.9785
-3.3369 -3.4773 -2.5002 0.9785
-4.5637 0.0387 -2.4997 0.9794
-4.5622 -0.1229 -2.4997 0.9794
-4.5550 -0.2843 -2.4997 0.9794
-4.5421 -0.4454 -2.4997 0.9794
-4.4992 -0.7658 -2.4997 0.9794
-4.4693 -0.9246 -2.4997 0.9794
-4.4338 -1.0822 -2.4997 0.9794
-4.3928 -1.2386 -2.4997 0.9794
-4.2942 -1.5463 -2.4998 0.9794
-4.2368 -1.6974 -2.4998 0.9794
-4.1741 -1.8464 -2.4998 0.9794
-4.1061 -1.9930 -2.4999 0.9794
-4.0330 -2.1372 -2.4999 0.9794
-3.9549 -2.2787 -2.4999 0.9794
-3.5938 -2.8144 -2.5001 0.9794
-4.3296 0.0367 -2.4998 0.9802
-4.3213 -0.2698 -2.4998 0.9802
-4.2914 -0.5749 -2.4998 0.9802
-4.2684 -0.7265 -2.4998 0.9802
-4.2400 -0.8771 -2.4998 0.9802
-4.2063 -1.0267 -2.4998 0.9802
-4.1674 -1.1750 -2.4998 0.9802
-4.0738 -1.4670 -2.4999 0.9802
-3.9599 -1.7516 -2.4999 0.9802
-3.8954 -1.8908 -2.5000 0.9802
-3.5897 -2.4219 -2.5001 0.9802
-3.5017 -2.5475 -2.5001 0.9802
-3.4094 -2.6699 -2.5002 0.9802
-3.2120 -2.9046 -2.5003 0.9802
-3.1072 -3.0166 -2.5003 0.9802
-2.9985 -3.1248 -2.5004 0.9802
