ply
format ascii 1.0
element vertex 452
property float32 x
property float32 y
property float32 z
property float32 I
end_header
21.8939 -17.3789 4.9289 0.8927
21.8917 -17.3772 4.2818 0.8931
30.6762 -30.3518 5.6195 0.8402
30.6731 -30.3487 4.6335 0.8406
21.8851 -17.3721 2.3654 0.8939
30.6668 -30.3425 2.6752 0.8412
30.6637 -30.3395 1.7009 0.8414
21.8809 -17.3686 1.1016 0.8942
-1.3956 -16.8892 0.2863 0.9345
-3.2713 -16.8653 -0.0967 0.9336
-2.6363 -16.8488 -0.0960 0.9341
30.6575 -30.3333 -0.2428 0.8415
-3.2713 -16.8653 -0.4837 0.9336
-2.6365 -16.8501 -0.4802 0.9340
21.8745 -17.3636 -0.7864 0.8943
-2.0172 -16.8962 -0.8630 0.9341
4.6097 -46.1922 -2.3542 0.8303
6.2882 -46.0045 -2.3548 0.8303
7.9597 -45.7577 -2.3554 0.8303
9.6213 -45.4498 -2.3560 0.8302
11.2710 -45.0815 -2.3566 0.8302
12.9067 -44.6534 -2.3573 0.8301
16.1264 -43.6176 -2.3584 0.8301
17.7031 -43.0041 -2.3585 0.8301
19.2562 -42.3333 -2.3586 0.8301
20.7841 -41.6064 -2.3587 0.8300
23.7741 -40.0194 -2.3607 0.8299
25.2258 -39.1465 -2.3618 0.8298
31.9144 -33.9615 -2.3635 0.8297
30.5124 -30.1897 -2.1768 0.8421
21.8724 -17.3618 -1.4162 0.8942
42.0589 -26.4740 -2.5204 0.8195
43.0013 -24.9308 -2.5208 0.8195
43.8864 -23.3538 -2.5212 0.8195
-2.6369 -16.8527 -1.2507 0.9339
-2.0172 -16.8962 -1.2477 0.9340
-2.6419 -31.9727 -2.3523 0.8793
-0.7766 -16.8468 -1.2366 0.9346
-0.3106 -32.0915 -2.3531 0.8792
0.8570 -32.0873 -2.3536 0.8792
2.0239 -32.0408 -2.3540 0.8792
6.6513 -31.4202 -2.3548 0.8791
7.7901 -31.1589 -2.3550 0.8791
8.9187 -30.8563 -2.3551 0.8791
10.0356 -30.5127 -2.3552 0.8791
11.1392 -30.1285 -2.3552 0.8791
14.3585 -28.7435 -2.3559 0.8791
15.3996 -28.2114 -2.3566 0.8791
17.4211 -27.0347 -2.3582 0.8790
19.3525 -25.7129 -2.3596 0.8789
20.2812 -24.9996 -2.3604 0.8789
22.0581 -23.4730 -2.3618 0.8788
22.9040 -22.6618 -2.3625 0.8788
23.7198 -21.8198 -2.3631 0.8787
21.7538 -17.2678 -2.0365 0.8946
27.2558 -17.1562 -2.3614 0.8788
27.8650 -16.1553 -2.3617 0.8788
28.5996 -15.2191 -2.3754 0.8782
-3.2713 -16.8653 -1.6493 0.9333
-2.5642 -16.3882 -1.5925 0.9355
-2.0172 -16.8962 -1.6336 0.9339
-2.0178 -24.4194 -2.3524 0.9062
0.6543 -24.4979 -2.3528 0.9062
1.5450 -24.4592 -2.3529 0.9062
3.3194 -24.2843 -2.3531 0.9062
6.8069 -23.5498 -2.3534 0.9062
7.6592 -23.2873 -2.3535 0.9062
10.1519 -22.3181 -2.3539 0.9062
10.9598 -21.9396 -2.3545 0.9062
14.7660 -19.6190 -2.3574 0.9060
16.8266 -17.9059 -2.3590 0.9060
17.4524 -17.2679 -2.3570 0.9061
18.6659 -15.9570 -2.3576 0.9060
19.2360 -15.2692 -2.3578 0.9060
21.6160 -14.7305 -2.5113 0.9002
22.1396 -13.9358 -2.5115 0.9002
23.0980 -12.2914 -2.5119 0.9002
-3.7691 -19.4317 -2.3512 0.9234
-2.3467 -19.6563 -2.3515 0.9234
0.5286 -19.7924 -2.3519 0.9233
1.2483 -19.7608 -2.3520 0.9233
1.9662 -19.7031 -2.3521 0.9233
2.6817 -19.6192 -2.3522 0.9233
3.3937 -19.5094 -2.3522 0.9233
4.8033 -19.2122 -2.3524 0.9233
5.4991 -19.0253 -2.3524 0.9233
6.1876 -18.8131 -2.3525 0.9233
7.5395 -18.3149 -2.3527 0.9233
8.2024 -18.0323 -2.3532 0.9233
11.3348 -16.2589 -2.3543 0.9233
11.9200 -15.8376 -2.3546 0.9233
12.4896 -15.3952 -2.3548 0.9233
13.2869 -15.2120 -2.3992 0.9219
14.2815 -15.1976 -2.4773 0.9194
15.0109 -14.8521 -2.5084 0.9185
15.5426 -14.2977 -2.5086 0.9184
17.8801 -11.2547 -2.5096 0.9184
18.2790 -10.5975 -2.5098 0.9184
-3.1554 -16.2676 -2.3479 0.9352
-2.5619 -16.3734 -2.3482 0.9352
-1.3651 -16.5201 -2.3487 0.9352
-0.7602 -16.4912 -2.3391 0.9355
1.0455 -16.5509 -2.3498 0.9352
1.6470 -16.5038 -2.3500 0.9352
2.2464 -16.4349 -2.3503 0.9352
2.8431 -16.3441 -2.3506 0.9352
3.4361 -16.2317 -2.3508 0.9352
4.0247 -16.0978 -2.3511 0.9352
4.6080 -15.9425 -2.3513 0.9352
6.9219 -15.2171 -2.3687 0.9347
8.2979 -15.2014 -2.4539 0.9324
9.0252 -15.1923 -2.5038 0.9311
9.5802 -14.8669 -2.5060 0.9310
10.6376 -14.1337 -2.5064 0.9310
11.1457 -13.7387 -2.5066 0.9310
12.1170 -12.8943 -2.5071 0.9310
13.4527 -11.5004 -2.5077 0.9310
13.8630 -11.0042 -2.5079 0.9310
14.2551 -10.4934 -2.5080 0.9310
14.6284 -9.9686 -2.5082 0.9310
15.3162 -8.8799 -2.5085 0.9310
-1.7996 -15.0740 -2.5009 0.9403
-1.2503 -15.1309 -2.5011 0.9403
-0.6991 -15.1678 -2.5014 0.9403
-0.1469 -15.1847 -2.5016 0.9403
0.9575 -15.1582 -2.5021 0.9403
2.6037 -14.9681 -2.5029 0.9403
4.7486 -14.4378 -2.5038 0.9402
5.7867 -14.0569 -2.5043 0.9402
6.2947 -13.8384 -2.5045 0.9402
7.2854 -13.3465 -2.5049 0.9402
8.2378 -12.7837 -2.5054 0.9402
8.6980 -12.4766 -2.5056 0.9402
9.5835 -11.8131 -2.5060 0.9402
11.1985 -10.3015 -2.5067 0.9402
11.5666 -9.8880 -2.5068 0.9402
12.2562 -9.0220 -2.5071 0.9402
12.5770 -8.5708 -2.5073 0.9402
12.8812 -8.1080 -2.5074 0.9402
13.1682 -7.6345 -2.5075 0.9402
-2.5333 -13.0603 -2.5006 0.9473
-2.0567 -13.1449 -2.5008 0.9473
-1.5774 -13.2121 -2.5010 0.9473
-1.0958 -13.2619 -2.5012 0.9473
-0.1288 -13.3088 -2.5016 0.9473
0.3554 -13.3058 -2.5019 0.9473
0.8392 -13.2852 -2.5021 0.9473
2.2819 -13.1181 -2.5027 0.9472
2.7578 -13.0275 -2.5029 0.9472
3.2301 -12.9196 -2.5031 0.9472
4.1615 -12.6527 -2.5035 0.9472
4.6193 -12.4940 -2.5037 0.9472
8.3978 -10.3515 -2.5054 0.9472
8.7433 -10.0101 -2.4982 0.9473
9.1292 -9.7149 -2.5057 0.9472
9.8126 -9.0266 -2.5061 0.9472
10.4440 -8.2902 -2.5063 0.9472
11.2865 -7.1043 -2.5067 0.9472
11.5380 -6.6894 -2.5068 0.9472
-2.2527 -11.6139 -2.5007 0.9528
-1.8289 -11.6890 -2.5009 0.9528
-1.4026 -11.7487 -2.5011 0.9528
-0.9744 -11.7929 -2.5013 0.9528
-0.1146 -11.8343 -2.5016 0.9528
0.3160 -11.8315 -2.5018 0.9528
0.7462 -11.8131 -2.5020 0.9528
2.0290 -11.6642 -2.5026 0.9527
2.4521 -11.5835 -2.5028 0.9527
3.7001 -11.2500 -2.5033 0.9527
4.1071 -11.1088 -2.5035 0.9527
4.9046 -10.7823 -2.5039 0.9527
5.2939 -10.5975 -2.5040 0.9527
6.0511 -10.1860 -2.5044 0.9527
6.4180 -9.9598 -2.5045 0.9527
6.7765 -9.7204 -2.5047 0.9527
7.1260 -9.4680 -2.5049 0.9527
7.4661 -9.2031 -2.5050 0.9527
7.7964 -8.9260 -2.5052 0.9527
8.1163 -8.6370 -2.5053 0.9527
9.0103 -7.7027 -2.5057 0.9527
9.7971 -6.6763 -2.5060 0.9527
10.0339 -6.3158 -2.5061 0.9527
10.2574 -5.9469 -2.5062 0.9527
10.4673 -5.5701 -2.5063 0.9527
-2.0262 -10.4460 -2.5008 0.9572
-1.6450 -10.5135 -2.5010 0.9572
-1.2616 -10.5671 -2.5011 0.9572
-0.8764 -10.6067 -2.5013 0.9572
1.4420 -10.5491 -2.5023 0.9572
1.8248 -10.4904 -2.5025 0.9572
2.2053 -10.4178 -2.5027 0.9572
3.3277 -10.1176 -2.5032 0.9572
3.6937 -9.9905 -2.5033 0.9572
4.4108 -9.6968 -2.5037 0.9572
4.7609 -9.5305 -2.5038 0.9572
5.7717 -8.9568 -2.5043 0.9572
6.0940 -8.7414 -2.5044 0.9572
6.7142 -8.2762 -2.5047 0.9572
7.0111 -8.0269 -2.5048 0.9572
8.1026 -6.9267 -2.5053 0.9571
8.7839 -5.9859 -2.4982 0.9573
9.0228 -5.6794 -2.5057 0.9571
-1.8392 -9.4823 -2.5009 0.9609
0.2580 -9.6591 -2.5018 0.9609
0.9596 -9.6160 -2.5021 0.9609
1.6564 -9.5220 -2.5024 0.9609
2.6842 -9.2866 -2.5029 0.9608
3.0204 -9.1834 -2.5030 0.9608
3.3526 -9.0680 -2.5032 0.9608
3.6805 -8.9405 -2.5033 0.9608
5.5311 -7.9339 -2.5042 0.9608
5.8163 -7.7279 -2.5043 0.9608
7.1200 -6.5497 -2.5049 0.9608
7.5779 -6.0152 -2.5051 0.9608
7.9958 -5.4488 -2.5052 0.9608
-1.6822 -8.6727 -2.5010 0.9639
-1.0474 -8.7731 -2.5012 0.9639
-0.7276 -8.8059 -2.5014 0.9639
-0.4069 -8.8270 -2.5015 0.9639
-0.0855 -8.8365 -2.5017 0.9639
0.2359 -8.8343 -2.5018 0.9639
0.5572 -8.8203 -2.5019 0.9639
0.8777 -8.7947 -2.5021 0.9639
1.5149 -8.7086 -2.5024 0.9639
1.8307 -8.6482 -2.5025 0.9639
2.4549 -8.4932 -2.5028 0.9639
3.3660 -8.1766 -2.5032 0.9639
3.9519 -7.9111 -2.5035 0.9639
5.0583 -7.2558 -2.5039 0.9639
6.2888 -6.2224 -2.5045 0.9639
6.7251 -5.7491 -2.5047 0.9639
7.1257 -5.2454 -2.5049 0.9639
7.6554 -4.4384 -2.5051 0.9639
-1.5483 -7.9825 -2.5010 0.9665
-1.2571 -8.0340 -2.5011 0.9665
-0.6697 -8.1049 -2.5014 0.9665
-0.3745 -8.1244 -2.5015 0.9665
-0.0787 -8.1330 -2.5017 0.9665
0.2172 -8.1310 -2.5018 0.9665
1.3942 -8.0152 -2.5023 0.9665
1.6850 -7.9596 -2.5024 0.9665
2.8220 -7.6326 -2.5030 0.9665
3.3697 -7.4080 -2.5032 0.9665
3.6371 -7.2809 -2.5033 0.9665
3.8997 -7.1441 -2.5034 0.9665
4.1572 -6.9979 -2.5035 0.9665
4.4092 -6.8423 -2.5037 0.9665
4.6553 -6.6777 -2.5038 0.9665
4.8953 -6.5042 -2.5039 0.9665
5.1289 -6.3221 -2.5040 0.9665
5.7877 -5.7265 -2.5043 0.9665
5.9924 -5.5124 -2.5044 0.9665
6.1891 -5.2910 -2.5044 0.9665
6.5578 -4.8273 -2.5046 0.9665
6.8918 -4.3381 -2.5048 0.9665
7.1893 -3.8258 -2.5049 0.9665
-1.1632 -7.4341 -2.5012 0.9688
-0.6197 -7.4997 -2.5014 0.9688
-0.3465 -7.5176 -2.5015 0.9688
-0.0729 -7.5256 -2.5017 0.9688
0.4745 -7.5117 -2.5019 0.9688
1.0194 -7.4581 -2.5022 0.9688
2.3524 -7.1523 -2.5027 0.9688
2.6111 -7.0623 -2.5029 0.9688
3.1179 -6.8544 -2.5031 0.9688
3.3653 -6.7368 -2.5032 0.9688
4.3074 -6.1786 -2.5036 0.9688
4.7455 -5.8495 -2.5038 0.9687
4.9553 -5.6733 -2.5039 0.9687
5.1586 -5.4895 -2.5040 0.9687
5.3550 -5.2984 -2.5041 0.9687
5.5444 -5.1003 -2.5042 0.9687
6.0675 -4.4664 -2.5044 0.9687
6.5184 -3.7792 -2.5046 0.9687
-1.3318 -6.8661 -2.5011 0.9707
-1.0812 -6.9103 -2.5012 0.9707
-0.8292 -6.9453 -2.5013 0.9707
-0.5760 -6.9712 -2.5014 0.9707
-0.0677 -6.9953 -2.5017 0.9707
0.1868 -6.9934 -2.5018 0.9707
0.9476 -6.9324 -2.5021 0.9707
1.1992 -6.8936 -2.5022 0.9707
1.9432 -6.7229 -2.5026 0.9707
2.1865 -6.6480 -2.5027 0.9707
2.6643 -6.4720 -2.5029 0.9707
2.8980 -6.3711 -2.5030 0.9707
3.3538 -6.1441 -2.5032 0.9707
3.5752 -6.0182 -2.5033 0.9707
3.7919 -5.8844 -2.5034 0.9707
4.0036 -5.7428 -2.5035 0.9707
4.4108 -5.4370 -2.5037 0.9707
4.7947 -5.1023 -2.5038 0.9707
4.9773 -4.9247 -2.5039 0.9707
5.1533 -4.7405 -2.5040 0.9707
5.6395 -4.1513 -2.5042 0.9707
5.7869 -3.9436 -2.5043 0.9707
5.9267 -3.7305 -2.5043 0.9707
6.0586 -3.5126 -2.5044 0.9707
-0.7738 -6.4812 -2.5014 0.9724
-0.5376 -6.5054 -2.5015 0.9724
0.1743 -6.5260 -2.5018 0.9724
0.4116 -6.5156 -2.5019 0.9724
0.6483 -6.4966 -2.5020 0.9724
0.8842 -6.4690 -2.5021 0.9724
1.3523 -6.3881 -2.5023 0.9724
1.5838 -6.3350 -2.5024 0.9724
1.8133 -6.2734 -2.5025 0.9724
2.2647 -6.1255 -2.5027 0.9724
2.7043 -5.9451 -2.5029 0.9724
2.9188 -5.8430 -2.5030 0.9724
3.3361 -5.6158 -2.5032 0.9724
3.5383 -5.4909 -2.5033 0.9724
3.9284 -5.2195 -2.5034 0.9724
4.2978 -4.9204 -2.5036 0.9724
4.6444 -4.5953 -2.5038 0.9724
4.8086 -4.4234 -2.5038 0.9724
4.9664 -4.2457 -2.5039 0.9724
5.3998 -3.6797 -2.5041 0.9724
5.6533 -3.2776 -2.5042 0.9724
5.7689 -3.0699 -2.5043 0.9724
-0.5033 -6.0912 -2.5015 0.9739
-0.0592 -6.1122 -2.5017 0.9739
1.0477 -6.0232 -2.5022 0.9739
1.9104 -5.8085 -2.5025 0.9739
2.3278 -5.6546 -2.5027 0.9739
2.5320 -5.5664 -2.5028 0.9739
2.7329 -5.4708 -2.5029 0.9739
3.4978 -5.0174 -2.5032 0.9739
3.6782 -4.8870 -2.5033 0.9739
3.8536 -4.7501 -2.5034 0.9739
4.0239 -4.6070 -2.5035 0.9739
4.3485 -4.3025 -2.5036 0.9739
4.9269 -3.6268 -2.5039 0.9739
5.2930 -3.0687 -2.5040 0.9739
-0.8872 -5.6704 -2.5013 0.9753
-0.4727 -5.7203 -2.5015 0.9753
-0.2643 -5.7339 -2.5016 0.9753
0.7775 -5.6882 -2.5020 0.9753
1.1891 -5.6170 -2.5022 0.9753
1.3926 -5.5702 -2.5023 0.9753
1.9913 -5.3860 -2.5026 0.9753
2.5664 -5.1375 -2.5028 0.9753
2.7517 -5.0409 -2.5029 0.9753
3.2847 -4.7117 -2.5032 0.9753
3.4540 -4.5892 -2.5032 0.9752
3.6187 -4.4607 -2.5033 0.9752
3.7787 -4.3262 -2.5034 0.9752
4.7475 -3.2353 -2.5038 0.9752
4.8622 -3.0605 -2.5039 0.9752
-0.8353 -5.3388 -2.5013 0.9765
-0.6406 -5.3659 -2.5014 0.9765
-0.2489 -5.3986 -2.5016 0.9765
-0.0523 -5.4043 -2.5017 0.9765
0.1443 -5.4028 -2.5018 0.9765
0.3406 -5.3942 -2.5018 0.9765
0.5365 -5.3784 -2.5019 0.9765
1.3112 -5.2444 -2.5023 0.9765
1.5011 -5.1934 -2.5024 0.9765
1.6891 -5.1356 -2.5024 0.9765
1.8748 -5.0709 -2.5025 0.9765
2.4162 -4.8370 -2.5028 0.9764
2.5907 -4.7460 -2.5028 0.9764
2.7617 -4.6488 -2.5029 0.9764
2.9290 -4.5454 -2.5030 0.9764
3.0925 -4.4360 -2.5031 0.9764
3.2519 -4.3207 -2.5031 0.9764
3.4070 -4.1996 -2.5032 0.9764
3.5576 -4.0731 -2.5033 0.9764
3.7035 -3.9411 -2.5033 0.9764
4.1110 -3.5145 -2.5035 0.9764
4.3558 -3.2064 -2.5036 0.9764
4.5776 -2.8814 -2.5037 0.9764
-0.7883 -5.0381 -2.5013 0.9775
-0.6045 -5.0636 -2.5014 0.9775
-0.4200 -5.0824 -2.5015 0.9775
-0.0494 -5.0998 -2.5017 0.9775
0.3215 -5.0902 -2.5018 0.9775
0.5065 -5.0753 -2.5019 0.9775
0.8742 -5.0254 -2.5021 0.9775
1.0564 -4.9904 -2.5022 0.9775
1.2373 -4.9489 -2.5022 0.9775
1.7692 -4.7851 -2.5025 0.9775
1.9421 -4.7177 -2.5026 0.9775
2.2801 -4.5643 -2.5027 0.9775
2.4446 -4.4785 -2.5028 0.9775
2.6060 -4.3867 -2.5029 0.9775
3.3570 -3.8434 -2.5032 0.9775
3.7560 -3.4551 -2.5034 0.9775
3.9974 -3.1731 -2.5035 0.9775
4.1103 -3.0256 -2.5035 0.9775
4.3195 -2.7189 -2.5036 0.9775
4.4156 -2.5600 -2.5037 0.9775
-0.7454 -4.7637 -2.5014 0.9785
-0.5716 -4.7878 -2.5014 0.9785
-0.3971 -4.8056 -2.5015 0.9785
-0.0467 -4.8220 -2.5017 0.9785
0.1287 -4.8207 -2.5018 0.9785
0.3040 -4.8129 -2.5018 0.9785
0.8266 -4.7516 -2.5021 0.9785
0.9989 -4.7186 -2.5021 0.9785
1.1699 -4.6793 -2.5022 0.9785
1.3393 -4.6337 -2.5023 0.9785
1.5071 -4.5821 -2.5024 0.9785
1.6728 -4.5244 -2.5024 0.9785
1.8363 -4.4607 -2.5025 0.9785
2.1558 -4.3156 -2.5027 0.9785
2.4640 -4.1477 -2.5028 0.9785
3.0397 -3.7469 -2.5030 0.9785
3.4300 -3.3937 -2.5032 0.9785
3.5513 -3.2668 -2.5033 0.9785
3.6678 -3.1355 -2.5033 0.9785
3.7795 -3.0001 -2.5034 0.9785
3.9878 -2.7175 -2.5035 0.9785
4.0841 -2.5707 -2.5035 0.9785
4.1749 -2.4205 -2.5035 0.9785
-0.5414 -4.5350 -2.5015 0.9794
-0.2103 -4.5626 -2.5016 0.9794
-0.0442 -4.5674 -2.5017 0.9794
0.2880 -4.5588 -2.5018 0.9794
0.6187 -4.5260 -2.5020 0.9794
0.7829 -4.5007 -2.5020 0.9794
1.2686 -4.3890 -2.5023 0.9794
1.7393 -4.2250 -2.5025 0.9794
1.8918 -4.1591 -2.5025 0.9794
2.1893 -4.0108 -2.5027 0.9794
2.4752 -3.8412 -2.5028 0.9794
3.1296 -3.3304 -2.5031 0.9794
3.2488 -3.2144 -2.5031 0.9794
3.4740 -2.9699 -2.5032 0.9794
3.5798 -2.8416 -2.5033 0.9794
3.6809 -2.7095 -2.5033 0.9794
3.7770 -2.5739 -2.5034 0.9794
3.8682 -2.4349 -2.5034 0.9794
-0.6698 -4.2805 -2.5014 0.9802
-0.5136 -4.3021 -2.5015 0.9802
-0.3568 -4.3181 -2.5015 0.9802
0.5869 -4.2936 -2.5020 0.9802
0.7427 -4.2695 -2.5020 0.9802
0.8975 -4.2398 -2.5021 0.9802
2.0769 -3.8047 -2.5026 0.9802
2.2139 -3.7268 -2.5027 0.9802
2.3481 -3.6439 -2.5027 0.9802
2.4791 -3.5561 -2.5028 0.9802
2.6069 -3.4637 -2.5029 0.9802
2.7312 -3.3666 -2.5029 0.9802
3.0819 -3.0493 -2.5031 0.9802
3.1908 -2.9352 -2.5031 0.9802
3.2955 -2.8173 -2.5032 0.9802
3.3959 -2.6956 -2.5032 0.9802
3.4917 -2.5703 -2.5032 0.9802
3.6695 -2.3097 -2.5033 0.9802
3.7511 -2.1748 -2.5034 0.9802
