ply
format ascii 1.0
element vertex 578
property float32 x
property float32 y
property float32 z
property float32 I
end_header
23.9788 14.1519 4.9096 0.8931
20.7892 14.3819 4.4574 0.9024
20.7200 15.4661 4.5591 0.9003
20.8481 16.7638 4.7171 0.8970
20.9146 19.4552 5.0367 0.8905
20.7720 20.7670 5.1792 0.8875
10.0335 14.4959 3.1086 0.9309
7.2412 14.5648 2.8681 0.9361
6.6053 14.5805 2.8225 0.9371
6.3251 19.2593 3.5744 0.9210
6.3467 21.9634 4.0312 0.9113
6.5685 30.9277 5.5750 0.8795
-0.3134 45.9780 8.1074 0.8296
25.8943 14.0506 4.5132 0.8876
23.9788 14.1519 4.2655 0.8934
20.7889 14.3818 3.8726 0.9028
20.7498 16.6848 4.0789 0.8979
20.9143 19.4549 4.3758 0.8908
20.8827 20.8777 4.5237 0.8874
20.9909 22.5546 4.7201 0.8828
12.4953 14.4352 2.9248 0.9256
9.2914 14.5142 2.6401 0.9326
7.8988 14.5486 2.5361 0.9352
7.2412 14.5648 2.4918 0.9363
6.6053 14.5805 2.4522 0.9373
6.1755 15.0514 2.4923 0.9363
6.2204 16.8660 2.7539 0.9298
6.2037 18.8896 3.0459 0.9227
6.5682 30.9259 4.8434 0.8799
8.0109 45.7727 7.1187 0.8286
26.1467 14.1876 3.8738 0.8869
23.9788 14.1519 3.6258 0.8938
22.1876 14.1961 3.4301 0.8992
20.8173 15.5387 3.3828 0.9005
20.8797 18.0649 3.5954 0.8946
20.9458 20.9408 3.8569 0.8874
11.6301 14.4565 2.4161 0.9279
7.2412 14.5648 2.1181 0.9365
6.1753 15.0509 2.1185 0.9365
6.2202 16.8655 2.3408 0.9301
6.4895 25.9237 3.4800 0.8978
6.5678 30.9243 4.1168 0.8803
8.0109 45.7726 6.0512 0.8291
-0.3134 45.9780 5.9874 0.8307
31.4069 12.8773 3.6450 0.8724
26.1467 14.1876 3.1944 0.8872
20.8170 15.5385 2.7894 0.9008
20.8472 16.7631 2.8726 0.8980
20.8794 18.0647 2.9648 0.8949
12.4953 14.4352 2.0501 0.9261
11.6301 14.4565 1.9924 0.9281
10.8114 14.4767 1.9402 0.9299
9.2915 14.5142 1.8506 0.9330
8.5811 14.5317 1.8122 0.9344
7.2412 14.5648 1.7466 0.9367
6.1752 15.0505 1.7469 0.9366
6.3460 21.9608 2.4547 0.9121
6.4892 25.9225 2.8695 0.8981
6.5463 30.8231 3.3837 0.8809
8.0109 45.7726 4.9899 0.8295
25.9895 14.1023 2.5031 0.8881
22.1876 14.1961 2.2298 0.8997
20.7882 14.3812 2.1398 0.9035
20.8791 18.0644 2.3372 0.8951
20.9134 19.4541 2.4179 0.8917
13.2884 14.2783 1.6512 0.9247
12.4952 14.4352 1.6162 0.9262
10.8114 14.4767 1.5295 0.9300
10.0334 14.4959 1.4924 0.9317
6.1750 15.0501 1.3771 0.9368
6.2753 19.1075 1.7025 0.9224
6.3457 21.9599 1.9350 0.9123
6.5464 30.8231 2.6675 0.8812
8.0109 45.7726 3.9337 0.8298
-0.3134 45.9780 3.8923 0.8315
-0.8110 18.9235 1.6034 0.9268
25.9894 14.1023 1.8336 0.8882
20.7879 14.3811 1.5675 0.9037
20.8165 15.5381 1.6108 0.9011
20.8467 16.7627 1.6588 0.8983
13.3963 14.3942 1.2193 0.9242
11.7005 14.5439 1.1575 0.9279
10.0335 14.4959 1.0932 0.9318
9.2915 14.5142 1.0687 0.9333
8.5811 14.5317 1.0465 0.9346
6.6053 14.5805 0.9926 0.9379
6.2196 16.8639 1.1146 0.9305
6.3240 19.2560 1.2568 0.9220
6.3455 21.9591 1.4174 0.9125
6.4383 25.7194 1.6441 0.8992
8.0109 45.7726 2.8815 0.8301
-0.7683 17.9258 1.1126 0.9306
31.4058 12.8768 1.3384 0.8729
26.1466 14.1875 1.1730 0.8877
23.9787 14.1518 1.0979 0.8945
22.1875 14.1960 1.0386 0.8999
20.7484 16.6837 1.0498 0.8989
14.8824 12.8761 0.7760 0.9242
13.8208 12.8563 0.7443 0.9272
13.3963 14.3942 0.7754 0.9243
12.4953 14.4352 0.7528 0.9264
10.8114 14.4767 0.7125 0.9302
9.2915 14.5142 0.6795 0.9333
7.2412 14.5648 0.6414 0.9370
6.6053 14.5805 0.6312 0.9379
6.1747 15.0493 0.6414 0.9370
6.2194 16.8634 0.7087 0.9306
6.3238 19.2554 0.7992 0.9221
6.3452 21.9582 0.9013 0.9126
6.5664 30.9177 1.2463 0.8812
8.0109 45.7726 1.8323 0.8303
22.1875 14.1961 0.4449 0.9000
20.8159 15.5378 0.4388 0.9013
15.2168 12.2357 0.3298 0.9249
14.1720 12.2615 0.3166 0.9278
13.2432 12.3190 0.3055 0.9302
11.7005 14.5439 0.3153 0.9280
10.8114 14.4767 0.3052 0.9303
10.0334 14.4959 0.2978 0.9319
8.5811 14.5317 0.2851 0.9347
7.9466 14.6366 0.2813 0.9355
6.0986 24.3623 0.4242 0.9044
4.2687 24.3905 0.4183 0.9057
3.3705 24.4044 0.4161 0.9061
-0.7683 17.9258 0.3031 0.9307
29.5698 12.1240 -0.1799 0.8800
25.9894 14.1022 -0.1665 0.8884
23.9787 14.1518 -0.1568 0.8946
20.7872 14.3805 -0.1423 0.9038
20.8157 15.5376 -0.1462 0.9013
20.8459 16.7620 -0.1506 0.8985
20.8780 18.0635 -0.1554 0.8954
13.3296 14.3225 -0.1102 0.9247
12.4953 14.4352 -0.1075 0.9265
11.5875 14.4036 -0.1041 0.9287
10.8114 14.4767 -0.1017 0.9303
10.0334 14.4959 -0.0993 0.9319
9.2915 14.5142 -0.0970 0.9334
8.5811 14.5317 -0.0950 0.9347
7.8699 14.4953 -0.0929 0.9362
6.2191 16.8624 -0.1012 0.9306
6.2022 18.8851 -0.1119 0.9236
6.3448 21.9566 -0.1287 0.9126
5.1768 24.3749 -0.1403 0.9051
4.2684 24.3889 -0.1394 0.9057
2.4801 24.4166 -0.1382 0.9065
-0.7506 17.5124 -0.0987 0.9323
22.1875 14.1960 -0.7417 0.9000
20.7869 14.3804 -0.7117 0.9038
20.8456 16.7618 -0.7532 0.8985
13.3962 14.3942 -0.5537 0.9243
12.4952 14.4351 -0.5376 0.9264
11.6301 14.4565 -0.5224 0.9284
8.5811 14.5317 -0.4752 0.9347
7.8988 14.5485 -0.4661 0.9359
7.2412 14.5648 -0.4580 0.9370
6.6053 14.5805 -0.4507 0.9380
6.1742 15.0481 -0.4580 0.9370
6.2742 19.1042 -0.5662 0.9227
6.3445 21.9557 -0.6435 0.9126
5.1765 24.3733 -0.7016 0.9051
4.2681 24.3873 -0.6971 0.9057
3.3701 24.4012 -0.6936 0.9061
2.4800 24.4150 -0.6910 0.9065
0.6436 22.0349 -0.6207 0.9156
-0.1504 22.0545 -0.6210 0.9155
29.5692 12.1238 -1.6207 0.8799
27.9228 13.8740 -1.5813 0.8826
25.9894 14.1022 -1.4996 0.8883
23.9787 14.1518 -1.4121 0.8945
20.7866 14.3802 -1.2819 0.9037
20.8152 15.5372 -1.3173 0.9012
20.8454 16.7616 -1.3565 0.8984
20.8775 18.0630 -1.4001 0.8953
15.0202 13.9721 -1.0404 0.9211
7.2412 14.5648 -0.8249 0.9369
6.6053 14.5805 -0.8118 0.9379
6.1740 15.0477 -0.8249 0.9369
6.2187 16.8614 -0.9114 0.9306
6.2740 19.1036 -1.0197 0.9226
6.3443 21.9548 -1.1590 0.9125
6.0974 24.3574 -1.2734 0.9043
4.2679 24.3857 -1.2555 0.9056
2.4798 24.4134 -1.2445 0.9064
0.6196 21.2153 -1.0764 0.9185
25.0782 10.2824 -1.9874 0.8970
23.9787 14.1518 -2.0415 0.8943
22.1875 14.1960 -1.9313 0.8997
20.7864 14.3800 -1.8533 0.9036
20.8149 15.5370 -1.9045 0.9011
20.8772 18.0628 -2.0242 0.8952
14.8413 13.8056 -1.4862 0.9219
11.6301 14.4565 -1.3604 0.9283
10.0334 14.4959 -1.2926 0.9317
9.2914 14.5142 -1.2636 0.9332
8.5811 14.5317 -1.2374 0.9346
7.8988 14.5486 -1.2138 0.9358
7.2412 14.5648 -1.1926 0.9368
5.0309 11.1053 -0.8939 0.9523
6.1738 15.0472 -1.1926 0.9368
6.3440 21.9540 -1.6756 0.9124
4.2676 24.3841 -1.8151 0.9055
3.3697 24.3980 -1.8059 0.9059
1.5951 24.4254 -1.7947 0.9065
20.4405 11.0913 -2.2327 0.9108
19.5860 12.5316 -2.2323 0.9108
19.1204 13.2275 -2.2321 0.9108
17.5773 15.2077 -2.2314 0.9108
13.3176 13.3144 -1.8079 0.9271
13.3038 14.2949 -1.8748 0.9245
9.2914 14.5142 -1.6545 0.9331
7.8988 14.5486 -1.5893 0.9356
7.2412 14.5648 -1.5616 0.9367
5.0069 11.0521 -1.1649 0.9524
6.2183 16.8604 -1.7253 0.9303
6.2735 19.1023 -1.9303 0.9224
6.3438 21.9532 -2.1938 0.9123
5.6312 22.4949 -2.2263 0.9110
3.9964 22.8346 -2.2256 0.9111
3.1710 22.9600 -2.2252 0.9111
2.3419 23.0556 -2.2248 0.9111
1.5099 23.1212 -2.2245 0.9111
0.5837 19.9858 -1.9196 0.9228
-0.1364 20.0035 -1.9205 0.9228
19.5522 8.0166 -2.5102 0.9184
17.4392 9.4628 -2.3568 0.9232
17.0860 10.0839 -2.3567 0.9232
15.8182 10.1208 -2.2307 0.9271
15.4424 10.6830 -2.2305 0.9272
14.6312 11.7649 -2.2302 0.9272
12.7861 13.7386 -2.2294 0.9272
10.8114 14.4767 -2.1463 0.9298
7.2412 14.5648 -1.9321 0.9366
6.2181 16.8598 -2.1346 0.9302
4.5502 18.1770 -2.2258 0.9273
3.8923 18.3267 -2.2255 0.9273
3.2295 18.4526 -2.2252 0.9273
1.8926 18.6323 -2.2246 0.9273
1.2203 18.6859 -2.2244 0.9273
0.5466 18.7153 -2.2241 0.9274
-0.8015 18.7012 -2.2235 0.9274
16.3827 6.7171 -2.5088 0.9310
16.1295 7.3023 -2.5087 0.9310
15.1214 8.2051 -2.4376 0.9329
13.6700 9.4569 -2.3552 0.9351
13.3198 9.9423 -2.3551 0.9351
12.6082 10.1381 -2.2923 0.9367
11.5176 10.7139 -2.2288 0.9384
10.2926 11.8906 -2.2283 0.9384
9.8569 12.2524 -2.2281 0.9384
7.9930 13.5357 -2.2273 0.9385
7.4997 13.8134 -2.2271 0.9385
4.9264 10.8745 -1.6915 0.9529
5.9646 14.5372 -2.2264 0.9385
3.8142 15.2366 -2.2255 0.9385
2.7071 15.4682 -2.2250 0.9385
2.1482 15.5540 -2.2248 0.9385
0.4582 15.6898 -2.2240 0.9386
13.1077 7.7359 -2.5074 0.9402
12.8045 8.1926 -2.5042 0.9402
11.8758 8.2157 -2.3789 0.9431
11.1363 8.9546 -2.3541 0.9437
10.8060 9.3492 -2.3540 0.9437
8.8500 10.2240 -2.2277 0.9467
8.4755 10.5353 -2.2275 0.9467
8.0900 10.8328 -2.2273 0.9467
7.6942 11.1162 -2.2272 0.9467
7.2883 11.3852 -2.2270 0.9467
6.4490 11.8782 -2.2266 0.9467
5.3543 10.7696 -1.9814 0.9524
4.9016 10.8197 -1.9568 0.9530
4.6753 12.6767 -2.2259 0.9467
3.2802 13.1033 -2.2252 0.9467
2.8060 13.2117 -2.2250 0.9467
1.8475 13.3769 -2.2246 0.9467
1.3645 13.4335 -2.2244 0.9467
0.8798 13.4727 -2.2242 0.9467
0.3941 13.4943 -2.2240 0.9467
-0.5780 13.4852 -2.2236 0.9468
11.9441 5.9346 -2.5069 0.9472
11.4851 6.7783 -2.5067 0.9472
11.2331 7.1871 -2.5066 0.9472
10.9665 7.5866 -2.5064 0.9472
10.1986 8.2006 -2.4598 0.9481
8.8535 8.8514 -2.3531 0.9503
8.5285 9.1639 -2.3530 0.9503
8.1925 9.4644 -2.3528 0.9503
7.0577 10.1967 -2.3309 0.9508
6.5311 10.2023 -2.2769 0.9519
4.0973 11.1093 -2.2256 0.9530
3.2866 11.3735 -2.2253 0.9530
2.8747 11.4836 -2.2251 0.9530
2.0404 11.6588 -2.2247 0.9530
1.6192 11.7238 -2.2245 0.9530
1.1959 11.7735 -2.2243 0.9530
10.9712 4.4983 -2.5064 0.9527
10.8017 4.8903 -2.5064 0.9527
10.6183 5.2759 -2.5063 0.9527
9.4998 7.0910 -2.5058 0.9527
8.2038 8.2018 -2.4521 0.9537
7.2837 8.4144 -2.3525 0.9555
6.6584 8.9158 -2.3522 0.9555
6.3327 9.1492 -2.3520 0.9555
4.9524 9.9611 -2.3514 0.9555
4.5901 10.1322 -2.3513 0.9555
3.7735 10.2314 -2.3051 0.9564
2.9590 10.2400 -2.2531 0.9574
2.1866 10.2954 -2.2248 0.9579
1.8143 10.3667 -2.2246 0.9579
1.4397 10.4245 -2.2245 0.9579
0.3071 10.5167 -2.2240 0.9579
-0.0717 10.5201 -2.2238 0.9579
9.8656 4.0450 -2.5060 0.9571
9.7133 4.3975 -2.5059 0.9571
9.1816 5.4188 -2.5057 0.9571
8.5428 6.3766 -2.5054 0.9571
8.0610 6.9743 -2.5052 0.9571
7.8043 7.2597 -2.5051 0.9571
7.5375 7.5357 -2.5050 0.9572
6.9750 8.0578 -2.5047 0.9572
6.5951 8.1979 -2.4728 0.9577
6.1312 8.2098 -2.4082 0.9588
5.0875 8.6154 -2.3515 0.9597
4.7737 8.7925 -2.3514 0.9597
4.4537 8.9582 -2.3512 0.9597
3.7970 9.2543 -2.3509 0.9597
3.4611 9.3845 -2.3508 0.9597
2.7764 9.6080 -2.3505 0.9597
2.4285 9.7011 -2.3503 0.9597
1.7238 9.8495 -2.3500 0.9597
1.3679 9.9045 -2.3499 0.9597
0.6515 9.9760 -2.3496 0.9598
0.2918 9.9923 -2.3494 0.9598
-0.0681 9.9957 -2.3493 0.9598
8.9537 3.6711 -2.5056 0.9608
8.8155 3.9911 -2.5055 0.9608
7.5396 6.0625 -2.5050 0.9608
7.0832 6.5889 -2.5048 0.9608
6.5901 7.0810 -2.5046 0.9608
6.3306 7.3133 -2.5044 0.9608
5.5042 7.9522 -2.5041 0.9608
3.7468 8.2707 -2.3509 0.9632
3.1415 8.5179 -2.3507 0.9632
2.8326 8.6250 -2.3505 0.9632
2.5201 8.7209 -2.3504 0.9632
2.2043 8.8055 -2.3503 0.9632
1.8857 8.8786 -2.3501 0.9632
1.5647 8.9402 -2.3500 0.9632
0.9171 9.0286 -2.3497 0.9632
0.2649 9.0701 -2.3494 0.9632
-0.0619 9.0732 -2.3493 0.9632
8.1880 3.3572 -2.5052 0.9639
8.0616 3.6498 -2.5052 0.9639
7.7777 4.2203 -2.5051 0.9639
7.4534 4.7688 -2.5049 0.9639
7.0904 5.2925 -2.5048 0.9639
6.4776 6.0256 -2.5045 0.9639
6.2562 6.2547 -2.5044 0.9639
6.0267 6.4757 -2.5043 0.9639
5.5446 6.8920 -2.5041 0.9639
5.0338 7.2726 -2.5039 0.9639
4.7684 7.4487 -2.5038 0.9639
4.2196 7.7719 -2.5035 0.9639
3.9368 7.9184 -2.5034 0.9639
3.6489 8.0546 -2.5033 0.9639
3.3563 8.1803 -2.5032 0.9639
3.0233 8.1975 -2.4734 0.9643
2.6940 8.2028 -2.4442 0.9647
2.3717 8.2075 -2.4186 0.9651
1.1367 8.2303 -2.3521 0.9660
0.5408 8.2818 -2.3495 0.9661
-0.0566 8.2984 -2.3493 0.9661
7.0131 4.1390 -2.5047 0.9665
6.3455 5.1024 -2.5044 0.9665
5.5465 5.9597 -2.5041 0.9665
5.3281 6.1553 -2.5040 0.9665
4.8709 6.5223 -2.5038 0.9665
4.1386 7.0086 -2.5035 0.9665
3.8834 7.1528 -2.5034 0.9665
3.6232 7.2876 -2.5033 0.9665
2.8158 7.6348 -2.5029 0.9665
2.5390 7.7308 -2.5028 0.9665
1.6903 7.9584 -2.5024 0.9665
1.4025 8.0137 -2.5023 0.9665
1.1130 8.0586 -2.5022 0.9665
0.8221 8.0930 -2.5021 0.9665
0.2374 8.1304 -2.5018 0.9665
-0.0555 8.1332 -2.5017 0.9665
-0.3482 8.1256 -2.5015 0.9665
6.9718 2.8585 -2.5047 0.9687
6.8643 3.1077 -2.5047 0.9687
6.7478 3.3528 -2.5046 0.9687
6.6225 3.5935 -2.5046 0.9687
6.4887 3.8295 -2.5045 0.9687
6.3464 4.0606 -2.5044 0.9687
6.1959 4.2863 -2.5044 0.9687
5.6971 4.9291 -2.5042 0.9687
5.5158 5.1309 -2.5041 0.9687
5.3272 5.3260 -2.5040 0.9687
5.1319 5.5142 -2.5039 0.9687
4.9298 5.6952 -2.5038 0.9687
4.2864 6.1929 -2.5036 0.9688
3.8293 6.4848 -2.5034 0.9688
3.5932 6.6182 -2.5033 0.9688
3.3524 6.7430 -2.5031 0.9688
1.8282 7.3030 -2.5025 0.9688
1.5640 7.3638 -2.5024 0.9688
1.2977 7.4150 -2.5023 0.9688
1.0298 7.4566 -2.5021 0.9688
0.7607 7.4885 -2.5020 0.9688
0.2197 7.5231 -2.5018 0.9688
6.3800 2.8884 -2.5045 0.9707
6.2717 3.1162 -2.5044 0.9707
6.1553 3.3400 -2.5044 0.9707
6.0309 3.5593 -2.5043 0.9707
4.5821 5.2935 -2.5037 0.9707
4.3884 5.4549 -2.5036 0.9707
4.1890 5.6091 -2.5035 0.9707
3.9842 5.7561 -2.5034 0.9707
3.7742 5.8956 -2.5033 0.9707
3.5593 6.0275 -2.5032 0.9707
3.3398 6.1515 -2.5031 0.9707
3.1161 6.2675 -2.5030 0.9707
2.6567 6.4750 -2.5028 0.9707
2.4217 6.5662 -2.5027 0.9707
2.1836 6.6489 -2.5026 0.9707
1.9427 6.7229 -2.5025 0.9707
0.9573 6.9310 -2.5021 0.9707
0.4559 6.9813 -2.5019 0.9707
-0.0477 6.9954 -2.5017 0.9707
5.8521 2.9077 -2.5042 0.9724
5.7435 3.1165 -2.5042 0.9724
5.3737 3.7175 -2.5040 0.9724
5.2362 3.9085 -2.5040 0.9724
4.9411 4.2750 -2.5038 0.9724
4.7838 4.4500 -2.5038 0.9724
4.6203 4.6192 -2.5037 0.9724
4.4509 4.7824 -2.5036 0.9724
4.2756 4.9394 -2.5035 0.9724
3.9088 5.2340 -2.5034 0.9724
3.7177 5.3712 -2.5033 0.9724
3.5218 5.5014 -2.5032 0.9724
3.3213 5.6244 -2.5031 0.9724
2.9077 5.8485 -2.5030 0.9724
2.6951 5.9492 -2.5029 0.9724
2.2598 6.1272 -2.5027 0.9724
1.3565 6.3872 -2.5023 0.9724
1.1256 6.4316 -2.5022 0.9724
0.8933 6.4677 -2.5021 0.9724
0.4255 6.5147 -2.5019 0.9724
5.6611 2.3211 -2.5041 0.9739
5.4792 2.7224 -2.5041 0.9739
5.2689 3.1096 -2.5040 0.9739
4.7675 3.8335 -2.5038 0.9739
4.6262 4.0026 -2.5037 0.9739
4.3259 4.3249 -2.5036 0.9739
4.1673 4.4777 -2.5035 0.9739
3.8340 4.7658 -2.5034 0.9739
3.6598 4.9006 -2.5033 0.9739
3.1097 5.2662 -2.5030 0.9739
2.9180 5.3745 -2.5030 0.9739
2.5235 5.5702 -2.5028 0.9739
2.1159 5.7370 -2.5026 0.9739
1.6974 5.8740 -2.5024 0.9739
1.4847 5.9311 -2.5023 0.9739
1.0539 6.0221 -2.5022 0.9739
0.6178 6.0819 -2.5020 0.9739
0.3984 6.0999 -2.5019 0.9739
-0.0417 6.1123 -2.5017 0.9739
-0.2617 6.1066 -2.5016 0.9739
5.3160 2.1796 -2.5040 0.9752
4.8393 3.0963 -2.5038 0.9752
4.6037 3.4364 -2.5037 0.9752
4.3443 3.7586 -2.5036 0.9752
4.0623 4.0613 -2.5035 0.9752
3.6004 4.4753 -2.5033 0.9752
3.2688 4.7226 -2.5031 0.9753
3.0965 4.8371 -2.5030 0.9753
1.9870 5.3875 -2.5026 0.9753
1.7916 5.4553 -2.5025 0.9753
1.1928 5.6162 -2.5022 0.9753
0.9897 5.6553 -2.5021 0.9753
0.5802 5.7114 -2.5019 0.9753
0.3741 5.7284 -2.5019 0.9753
0.1676 5.7379 -2.5018 0.9753
-0.2458 5.7347 -2.5016 0.9753
5.0049 2.0521 -2.5039 0.9764
4.6582 2.7492 -2.5037 0.9764
4.5561 2.9151 -2.5037 0.9764
4.4481 3.0772 -2.5036 0.9764
4.3343 3.2353 -2.5036 0.9764
4.0900 3.5387 -2.5035 0.9764
3.9599 3.6836 -2.5034 0.9764
3.6843 3.9588 -2.5033 0.9764
3.5393 4.0888 -2.5032 0.9764
3.3897 4.2135 -2.5032 0.9764
2.9154 4.5541 -2.5030 0.9764
2.5799 4.7518 -2.5028 0.9764
2.4070 4.8415 -2.5027 0.9764
2.2311 4.9249 -2.5027 0.9765
1.6868 5.1362 -2.5024 0.9765
1.5008 5.1935 -2.5023 0.9765
1.3127 5.2440 -2.5023 0.9765
0.9319 5.3245 -2.5021 0.9765
0.1578 5.4024 -2.5018 0.9765
4.7227 1.9363 -2.5037 0.9775
4.6498 2.1051 -2.5037 0.9775
4.4862 2.4342 -2.5036 0.9775
4.3955 2.5942 -2.5036 0.9775
4.2992 2.7507 -2.5036 0.9775
4.1973 2.9037 -2.5035 0.9775
3.8594 3.3391 -2.5034 0.9775
3.7366 3.4759 -2.5033 0.9775
3.6089 3.6081 -2.5033 0.9775
3.1986 3.9759 -2.5031 0.9775
3.0533 4.0884 -2.5030 0.9775
2.9040 4.1956 -2.5030 0.9775
2.7510 4.2974 -2.5029 0.9775
2.5944 4.3935 -2.5028 0.9775
2.4345 4.4840 -2.5028 0.9775
1.7653 4.7864 -2.5025 0.9775
1.5918 4.8467 -2.5024 0.9775
1.4162 4.9008 -2.5023 0.9775
0.8793 5.0245 -2.5021 0.9775
0.5154 5.0744 -2.5019 0.9775
-0.0348 5.0999 -2.5017 0.9775
4.4652 1.8308 -2.5036 0.9785
4.3218 2.1474 -2.5036 0.9785
4.1559 2.4528 -2.5035 0.9785
3.5330 3.2864 -2.5032 0.9785
3.1578 3.6480 -2.5031 0.9785
3.0243 3.7593 -2.5030 0.9785
2.1476 4.3196 -2.5026 0.9785
1.9906 4.3940 -2.5026 0.9785
1.8311 4.4628 -2.5025 0.9785
1.6691 4.5257 -2.5024 0.9785
1.5051 4.5827 -2.5024 0.9785
1.1713 4.6789 -2.5022 0.9785
1.0020 4.7179 -2.5021 0.9785
0.6598 4.7775 -2.5020 0.9785
0.4874 4.7980 -2.5019 0.9785
0.3143 4.8123 -2.5018 0.9785
-0.0329 4.8221 -2.5017 0.9785
-0.2065 4.8177 -2.5016 0.9785
3.9363 2.3231 -2.5034 0.9794
3.6627 2.7339 -2.5033 0.9794
3.5618 2.8640 -2.5032 0.9794
3.4563 2.9903 -2.5032 0.9794
3.3463 3.1128 -2.5031 0.9794
3.1135 3.3454 -2.5030 0.9794
2.9909 3.4553 -2.5030 0.9794
2.8645 3.5607 -2.5029 0.9794
2.6007 3.7574 -2.5028 0.9794
2.3234 3.9346 -2.5027 0.9794
2.0341 4.0914 -2.5026 0.9794
1.8854 4.1619 -2.5025 0.9794
1.7343 4.2270 -2.5024 0.9794
1.5810 4.2866 -2.5024 0.9794
1.2683 4.3890 -2.5022 0.9794
1.1094 4.4317 -2.5022 0.9794
0.9491 4.4687 -2.5021 0.9794
0.4616 4.5446 -2.5019 0.9794
-0.0311 4.5675 -2.5017 0.9794
-0.1956 4.5633 -2.5016 0.9794
3.9501 1.7883 -2.5034 0.9802
3.8831 1.9294 -2.5034 0.9802
3.8110 2.0679 -2.5033 0.9802
3.5657 2.4667 -2.5032 0.9802
2.8373 3.2778 -2.5029 0.9802
2.7174 3.3777 -2.5029 0.9802
2.5939 3.4733 -2.5028 0.9802
1.6452 4.0099 -2.5024 0.9802
1.4998 4.0664 -2.5023 0.9802
1.2032 4.1636 -2.5022 0.9802
0.9003 4.2392 -2.5021 0.9802
0.7471 4.2687 -2.5020 0.9802
0.2824 4.3241 -2.5018 0.9802
-0.1855 4.3289 -2.5016 0.9802
