ply
format ascii 1.0
element vertex 565
property float32 x
property float32 y
property float32 z
property float32 I
end_header
-32.0759 -12.0200 6.0399 0.8701
-11.0330 -18.5412 3.3053 0.9164
-32.2072 -17.6261 2.2767 0.8632
-32.2076 -17.6263 1.4477 0.8633
-32.2080 -17.6266 0.6202 0.8634
-5.2061 -15.5296 0.2767 0.9366
-4.0120 -15.5590 0.2714 0.9377
-32.2084 -17.6268 -0.2067 0.8634
-6.0558 -16.1369 -0.0970 0.9334
-4.9775 -16.8079 -0.0987 0.9323
-32.2089 -17.6270 -1.0339 0.8634
-48.4070 -7.0800 -2.4810 0.8221
-48.1272 -8.7966 -2.4812 0.8221
-47.7869 -10.5023 -2.4813 0.8220
-46.9270 -13.8727 -2.4817 0.8220
-45.4185 -15.2020 -2.4290 0.8254
-42.5165 -17.6803 -2.3352 0.8316
-41.9424 -21.0524 -2.3800 0.8286
-40.5826 -26.1183 -2.4475 0.8242
-39.9916 -27.7965 -2.4699 0.8228
-36.8956 -29.7450 -2.4035 0.8271
-28.7275 -38.3091 -2.4284 0.8255
-28.0387 -40.2991 -2.4897 0.8215
-25.1174 -42.2104 -2.4910 0.8214
-23.6073 -43.0878 -2.4916 0.8214
-22.0667 -43.9112 -2.4923 0.8213
-20.4975 -44.6798 -2.4930 0.8213
-4.9779 -16.8091 -0.8891 0.9322
-3.7198 -16.8873 -0.8770 0.9331
-3.0977 -16.9026 -0.8715 0.9335
-33.8437 2.3077 -2.4873 0.8728
-33.8967 -1.3082 -2.4872 0.8728
-33.8292 -2.5122 -2.4873 0.8728
-33.5668 -4.9095 -2.4874 0.8728
-33.3722 -6.0997 -2.4875 0.8728
-33.1357 -7.2823 -2.4876 0.8728
-32.5379 -9.6190 -2.4878 0.8728
-30.3358 -15.2266 -2.4888 0.8727
-29.1832 -17.3468 -2.4893 0.8727
-28.5513 -18.3751 -2.4895 0.8727
-27.1801 -20.3618 -2.4901 0.8727
-26.4425 -21.3178 -2.4904 0.8726
-25.6715 -22.2471 -2.4908 0.8726
-24.0329 -24.0212 -2.4915 0.8726
-23.1673 -24.8642 -2.4918 0.8726
-22.2723 -25.6759 -2.4922 0.8726
-21.3489 -26.4554 -2.4926 0.8725
-20.3984 -27.2020 -2.4930 0.8725
-17.3957 -29.2339 -2.4943 0.8725
-15.2804 -30.4069 -2.4952 0.8724
-12.2937 -29.5236 -2.3449 0.8796
-6.1056 -16.2696 -1.2742 0.9327
-4.9780 -16.8098 -1.2854 0.9321
-4.3505 -16.8717 -1.2775 0.9325
-3.7198 -16.8873 -1.2679 0.9330
-4.6566 -31.7325 -2.3516 0.8793
-25.8851 1.7650 -2.4909 0.9010
-25.9305 0.8438 -2.4908 0.9010
-25.9432 -0.0784 -2.4907 0.9010
-25.9235 -1.0005 -2.4906 0.9010
-25.7875 -2.8397 -2.4907 0.9010
-25.6708 -3.7546 -2.4907 0.9010
-25.1276 -6.4666 -2.4910 0.9010
-24.2999 -9.1061 -2.4913 0.9010
-23.5944 -10.8107 -2.4916 0.9010
-22.7700 -12.4614 -2.4920 0.9010
-20.2166 -16.2985 -2.4931 0.9009
-19.6265 -17.0085 -2.4933 0.9009
-19.0115 -17.6972 -2.4936 0.9009
-17.0252 -19.6271 -2.4944 0.9009
-16.3189 -20.2223 -2.4947 0.9008
-14.8448 -21.3360 -2.4954 0.9008
-14.0789 -21.8530 -2.4957 0.9008
-11.7442 -21.4354 -2.3465 0.9065
-9.4112 -22.6011 -2.3504 0.9063
-4.9782 -16.8104 -1.6832 0.9320
-4.3505 -16.8717 -1.6727 0.9324
-3.0977 -16.9026 -1.6498 0.9333
-20.9746 0.6825 -2.4928 0.9189
-20.9696 -0.8093 -2.4928 0.9189
-20.9278 -1.5541 -2.4928 0.9189
-20.8595 -2.2971 -2.4928 0.9189
-20.7650 -3.0371 -2.4928 0.9189
-20.6444 -3.7733 -2.4929 0.9189
-20.4977 -4.5048 -2.4930 0.9189
-20.3253 -5.2307 -2.4930 0.9189
-19.0841 -8.7442 -2.4936 0.9189
-18.7623 -9.4175 -2.4937 0.9189
-18.4168 -10.0790 -2.4938 0.9189
-18.0481 -10.7280 -2.4940 0.9189
-17.2427 -11.9847 -2.4943 0.9189
-16.3502 -13.1814 -2.4947 0.9189
-14.8579 -14.8508 -2.4954 0.9189
-13.7678 -15.8718 -2.4958 0.9188
-13.1963 -16.3528 -2.4961 0.9188
-10.0951 -16.9650 -2.3450 0.9236
-9.4867 -17.3150 -2.3453 0.9236
-6.2838 -18.7445 -2.3484 0.9235
-4.9412 -19.1626 -2.3507 0.9234
-4.2572 -19.3270 -2.3508 0.9234
-3.5677 -19.4670 -2.3509 0.9234
-17.5630 1.1975 -2.4943 0.9314
-17.6031 -0.0532 -2.4942 0.9314
-17.5902 -0.6789 -2.4942 0.9314
-17.5550 -1.3037 -2.4942 0.9314
-17.3172 -3.1652 -2.4943 0.9314
-17.0494 -4.3877 -2.4944 0.9313
-16.6956 -5.5882 -2.4946 0.9313
-16.4870 -6.1783 -2.4947 0.9313
-16.2576 -6.7607 -2.4948 0.9313
-16.0077 -7.3346 -2.4949 0.9313
-15.7376 -7.8993 -2.4950 0.9313
-15.4477 -8.4541 -2.4951 0.9313
-14.4624 -10.0522 -2.4955 0.9313
-14.0968 -10.5606 -2.4957 0.9313
-13.7134 -11.0557 -2.4959 0.9313
-13.3127 -11.5369 -2.4960 0.9313
-12.8952 -12.0037 -2.4962 0.9313
-10.0666 -14.4685 -2.4974 0.9313
-9.5468 -14.8185 -2.4976 0.9313
-9.0149 -15.1498 -2.4979 0.9313
-7.6425 -15.2081 -2.4116 0.9335
-6.3664 -15.2890 -2.3466 0.9353
-5.8195 -15.5072 -2.3468 0.9353
-4.1369 -16.0435 -2.3475 0.9353
-3.5644 -16.1821 -2.3478 0.9352
-2.9873 -16.3002 -2.3480 0.9352
-15.1354 -0.5841 -2.4952 0.9404
-15.0558 -1.6579 -2.4953 0.9404
-14.9004 -2.7235 -2.4953 0.9404
-14.7944 -3.2514 -2.4954 0.9404
-14.5267 -4.2944 -2.4955 0.9404
-14.3653 -4.8082 -2.4956 0.9404
-14.1857 -5.3159 -2.4956 0.9404
-13.9883 -5.8170 -2.4957 0.9404
-13.7732 -6.3107 -2.4958 0.9404
-13.5407 -6.7966 -2.4959 0.9404
-13.2912 -7.2739 -2.4960 0.9404
-12.7420 -8.2006 -2.4963 0.9404
-12.1285 -9.0860 -2.4965 0.9404
-11.7986 -9.5119 -2.4967 0.9404
-11.4537 -9.9259 -2.4968 0.9404
-9.5212 -11.7986 -2.4976 0.9404
-9.0965 -12.1305 -2.4978 0.9404
-8.2129 -12.7480 -2.4982 0.9404
-7.7552 -13.0329 -2.4984 0.9404
-7.2877 -13.3014 -2.4986 0.9404
-6.8108 -13.5531 -2.4988 0.9404
-6.3253 -13.7878 -2.4990 0.9404
-5.8317 -14.0051 -2.4992 0.9404
-5.3307 -14.2047 -2.4994 0.9403
-3.7893 -14.6954 -2.5001 0.9403
-3.2648 -14.8221 -2.5003 0.9403
-2.7362 -14.9301 -2.5005 0.9403
-13.2488 0.9034 -2.4960 0.9474
-13.2725 0.4319 -2.4960 0.9474
-13.2795 -0.0401 -2.4960 0.9474
-13.2697 -0.5121 -2.4960 0.9474
-13.1999 -1.4536 -2.4961 0.9474
-13.0636 -2.3877 -2.4961 0.9474
-12.5943 -4.2154 -2.4963 0.9474
-12.0751 -5.5327 -2.4965 0.9474
-11.6524 -6.3770 -2.4967 0.9474
-11.4188 -6.7875 -2.4968 0.9474
-11.1708 -7.1893 -2.4969 0.9474
-10.9087 -7.5822 -2.4970 0.9474
-10.6328 -7.9655 -2.4972 0.9474
-10.0410 -8.7017 -2.4974 0.9474
-9.0592 -9.7228 -2.4978 0.9473
-8.7084 -10.0391 -2.4980 0.9473
-7.9742 -10.6339 -2.4983 0.9473
-7.5917 -10.9113 -2.4985 0.9473
-7.1995 -11.1750 -2.4986 0.9473
-6.7982 -11.4246 -2.4988 0.9473
-5.9703 -11.8804 -2.4992 0.9473
-5.5446 -12.0860 -2.4993 0.9473
-5.1119 -12.2763 -2.4995 0.9473
-3.7769 -12.7537 -2.5001 0.9473
-11.8050 0.3841 -2.4967 0.9529
-11.8112 -0.0357 -2.4967 0.9529
-11.7404 -1.2929 -2.4967 0.9529
-11.6871 -1.7094 -2.4967 0.9529
-11.4393 -2.9439 -2.4968 0.9529
-11.2017 -3.7493 -2.4969 0.9529
-11.0616 -4.1452 -2.4970 0.9529
-10.5584 -5.2996 -2.4972 0.9528
-10.3637 -5.6718 -2.4973 0.9528
-10.1559 -6.0368 -2.4974 0.9528
-9.9353 -6.3942 -2.4975 0.9528
-9.4567 -7.0844 -2.4977 0.9528
-9.1993 -7.4164 -2.4978 0.9528
-8.0569 -8.6471 -2.4983 0.9528
-7.7449 -8.9284 -2.4984 0.9528
-7.0918 -9.4571 -2.4987 0.9528
-6.7515 -9.7038 -2.4988 0.9528
-6.4027 -9.9382 -2.4990 0.9528
-6.0458 -10.1602 -2.4991 0.9528
-5.6812 -10.3693 -2.4993 0.9528
-4.9308 -10.7481 -2.4996 0.9528
-3.7594 -11.2142 -2.5001 0.9528
-3.3587 -11.3415 -2.5003 0.9528
-2.1327 -11.6370 -2.5008 0.9528
-10.6196 0.3456 -2.4972 0.9573
-10.6173 -0.4098 -2.4972 0.9573
-10.5961 -0.7869 -2.4972 0.9573
-10.5615 -1.1630 -2.4972 0.9573
-10.4523 -1.9104 -2.4972 0.9573
-10.3780 -2.2804 -2.4973 0.9573
-10.2905 -2.6483 -2.4973 0.9573
-9.9507 -3.7289 -2.4975 0.9573
-9.8121 -4.0803 -2.4975 0.9573
-9.4979 -4.7674 -2.4976 0.9573
-9.3227 -5.1021 -2.4977 0.9573
-8.7275 -6.0662 -2.4980 0.9573
-8.5067 -6.3728 -2.4981 0.9573
-8.2751 -6.6714 -2.4982 0.9573
-8.0331 -6.9616 -2.4983 0.9573
-7.7809 -7.2430 -2.4984 0.9573
-6.6771 -8.2743 -2.4989 0.9573
-5.7593 -8.9394 -2.4992 0.9572
-5.1102 -9.3271 -2.4995 0.9572
-4.7757 -9.5033 -2.4997 0.9572
-3.0209 -10.2011 -2.5004 0.9572
-2.6566 -10.3027 -2.5006 0.9572
-1.5450 -10.5289 -2.5010 0.9572
-9.6239 0.6562 -2.4976 0.9609
-9.6411 0.3137 -2.4976 0.9609
-9.6462 -0.0292 -2.4976 0.9609
-9.6391 -0.3720 -2.4976 0.9609
-9.6198 -0.7144 -2.4976 0.9609
-9.5884 -1.0559 -2.4976 0.9609
-9.3423 -2.4043 -2.4977 0.9609
-9.1482 -3.0620 -2.4978 0.9609
-9.0338 -3.3853 -2.4978 0.9609
-8.7708 -4.0187 -2.4980 0.9609
-8.6227 -4.3280 -2.4980 0.9609
-8.4636 -4.6319 -2.4981 0.9609
-8.1136 -5.2218 -2.4982 0.9609
-7.5124 -6.0565 -2.4985 0.9609
-7.2927 -6.3199 -2.4986 0.9609
-7.0637 -6.5754 -2.4987 0.9609
-6.8258 -6.8226 -2.4988 0.9609
-6.5793 -7.0612 -2.4989 0.9609
-5.5131 -7.9238 -2.4994 0.9609
-5.2282 -8.1152 -2.4995 0.9609
-4.9367 -8.2963 -2.4996 0.9609
-4.6390 -8.4670 -2.4997 0.9609
-4.3353 -8.6270 -2.4999 0.9609
-4.0261 -8.7761 -2.5000 0.9609
-3.3928 -9.0409 -2.5003 0.9609
-3.0695 -9.1563 -2.5004 0.9609
-2.7423 -9.2601 -2.5005 0.9609
-2.4115 -9.3523 -2.5007 0.9609
-2.0777 -9.4326 -2.5008 0.9609
-1.7412 -9.5011 -2.5010 0.9609
-8.8033 0.6003 -2.4979 0.9640
-8.8191 0.2870 -2.4979 0.9640
-8.8237 -0.0267 -2.4979 0.9640
-8.8172 -0.3403 -2.4979 0.9640
-8.7995 -0.6535 -2.4979 0.9640
-8.6801 -1.5865 -2.4980 0.9640
-8.6183 -1.8941 -2.4980 0.9640
-8.3681 -2.8009 -2.4981 0.9640
-8.0229 -3.6760 -2.4983 0.9640
-7.8873 -3.9589 -2.4983 0.9640
-7.5865 -4.5095 -2.4985 0.9640
-7.2474 -5.0374 -2.4986 0.9640
-7.0640 -5.2920 -2.4987 0.9640
-6.6706 -5.7808 -2.4989 0.9640
-6.4612 -6.0145 -2.4989 0.9640
-6.0180 -6.4588 -2.4991 0.9640
-5.5444 -6.8706 -2.4993 0.9640
-5.2969 -7.0636 -2.4994 0.9640
-5.0427 -7.2478 -2.4996 0.9640
-4.7821 -7.4227 -2.4997 0.9640
-4.5155 -7.5884 -2.4998 0.9640
-3.3950 -8.1533 -2.5003 0.9639
-3.1033 -8.2692 -2.5004 0.9639
-2.8075 -8.3747 -2.5005 0.9639
-2.5082 -8.4697 -2.5006 0.9639
-2.2057 -8.5539 -2.5008 0.9639
-1.9003 -8.6274 -2.5009 0.9639
-1.5926 -8.6899 -2.5010 0.9639
-1.2827 -8.7415 -2.5012 0.9639
-8.1035 0.5525 -2.4982 0.9666
-8.1162 -0.3132 -2.4982 0.9666
-8.1000 -0.6015 -2.4982 0.9666
-7.8663 -2.0244 -2.4983 0.9666
-7.7895 -2.3028 -2.4984 0.9666
-7.7028 -2.5782 -2.4984 0.9666
-7.6064 -2.8504 -2.4985 0.9666
-7.3850 -3.3837 -2.4986 0.9666
-7.2602 -3.6442 -2.4986 0.9666
-6.3252 -5.0994 -2.4990 0.9666
-6.1402 -5.3211 -2.4991 0.9666
-5.7470 -5.7443 -2.4993 0.9666
-4.6416 -6.6712 -2.4997 0.9666
-4.4017 -6.8323 -2.4998 0.9666
-3.9055 -7.1283 -2.5000 0.9666
-3.3896 -7.3884 -2.5003 0.9666
-2.5841 -7.7083 -2.5006 0.9665
-2.3086 -7.7957 -2.5007 0.9665
-1.7491 -7.9407 -2.5010 0.9665
-1.4658 -7.9983 -2.5011 0.9665
-7.4990 0.5113 -2.4985 0.9688
-7.5124 0.2445 -2.4985 0.9688
-7.5163 -0.0227 -2.4985 0.9688
-7.5108 -0.2899 -2.4985 0.9688
-7.4713 -0.8227 -2.4985 0.9688
-7.4374 -1.0878 -2.4985 0.9688
-7.3414 -1.6135 -2.4986 0.9688
-7.2795 -1.8734 -2.4986 0.9688
-7.2084 -2.1310 -2.4986 0.9688
-6.9409 -2.8864 -2.4987 0.9688
-6.8340 -3.1313 -2.4988 0.9688
-6.5946 -3.6091 -2.4989 0.9688
-6.4623 -3.8413 -2.4989 0.9688
-6.3218 -4.0686 -2.4990 0.9688
-6.1734 -4.2909 -2.4991 0.9688
-5.5036 -5.1231 -2.4994 0.9688
-5.3182 -5.3156 -2.4994 0.9688
-5.1260 -5.5015 -2.4995 0.9688
-4.9274 -5.6804 -2.4996 0.9688
-4.5117 -6.0165 -2.4998 0.9688
-4.2952 -6.1733 -2.4999 0.9688
-4.0732 -6.3224 -2.5000 0.9688
-3.8460 -6.4634 -2.5001 0.9688
-2.8916 -6.9444 -2.5005 0.9688
-2.1362 -7.2137 -2.5008 0.9688
-1.8785 -7.2853 -2.5009 0.9688
-1.6185 -7.3478 -2.5010 0.9688
-6.9712 0.4753 -2.4987 0.9708
-6.9836 0.2272 -2.4987 0.9708
-6.9821 -0.2695 -2.4987 0.9708
-6.9454 -0.7648 -2.4987 0.9708
-6.7010 -1.9810 -2.4988 0.9708
-6.5435 -2.4521 -2.4989 0.9708
-6.4523 -2.6832 -2.4989 0.9708
-5.8768 -3.7822 -2.4992 0.9707
-5.7388 -3.9888 -2.4993 0.9707
-5.5935 -4.1903 -2.4993 0.9707
-5.1160 -4.7624 -2.4995 0.9707
-4.7651 -5.1141 -2.4997 0.9707
-4.5804 -5.2804 -2.4997 0.9707
-3.9927 -5.7386 -2.5000 0.9707
-3.3594 -6.1317 -2.5003 0.9707
-2.9156 -6.3553 -2.5005 0.9707
-1.9857 -6.7054 -2.5009 0.9707
-1.7462 -6.7721 -2.5010 0.9707
-1.5045 -6.8301 -2.5011 0.9707
-1.2608 -6.8796 -2.5012 0.9707
-1.0155 -6.9204 -2.5013 0.9707
-6.5174 0.2121 -2.4989 0.9725
-6.5030 -0.4829 -2.4989 0.9725
-6.4817 -0.7138 -2.4989 0.9725
-6.3690 -1.3997 -2.4990 0.9725
-6.3153 -1.6253 -2.4990 0.9725
-6.2536 -1.8487 -2.4990 0.9725
-6.1066 -2.2884 -2.4991 0.9725
-5.8286 -2.9256 -2.4992 0.9725
-5.7210 -3.1310 -2.4993 0.9724
-5.6062 -3.3324 -2.4993 0.9724
-5.2200 -3.9105 -2.4995 0.9724
-4.9292 -4.2717 -2.4996 0.9724
-4.7744 -4.4443 -2.4997 0.9724
-4.6135 -4.6114 -2.4997 0.9724
-4.2745 -4.9278 -2.4999 0.9724
-4.0968 -5.0767 -2.5000 0.9724
-3.9139 -5.2193 -2.5000 0.9724
-3.5334 -5.4845 -2.5002 0.9724
-3.3364 -5.6069 -2.5003 0.9724
-2.7208 -5.9308 -2.5005 0.9724
-2.2928 -6.1095 -2.5007 0.9724
-2.0742 -6.1874 -2.5008 0.9724
-1.8531 -6.2575 -2.5009 0.9724
-1.6295 -6.3196 -2.5010 0.9724
-1.4039 -6.3738 -2.5011 0.9724
-0.9476 -6.4579 -2.5013 0.9724
-6.1029 0.1986 -2.4991 0.9740
-6.1016 -0.2355 -2.4991 0.9740
-6.0894 -0.4522 -2.4991 0.9740
-6.0695 -0.6684 -2.4991 0.9740
-6.0419 -0.8837 -2.4991 0.9740
-5.9639 -1.3107 -2.4992 0.9740
-5.8559 -1.7312 -2.4992 0.9740
-5.6385 -2.3448 -2.4993 0.9740
-5.5517 -2.5437 -2.4993 0.9740
-5.4579 -2.7395 -2.4994 0.9740
-5.2496 -3.1204 -2.4995 0.9740
-5.0149 -3.4857 -2.4996 0.9739
-4.6157 -4.0000 -2.4997 0.9739
-4.4707 -4.1616 -2.4998 0.9739
-4.0025 -4.6142 -2.5000 0.9739
-3.8361 -4.7537 -2.5001 0.9739
-3.3086 -5.1356 -2.5003 0.9739
-2.9356 -5.3580 -2.5005 0.9739
-2.7434 -5.4591 -2.5005 0.9739
-2.5477 -5.5534 -2.5006 0.9739
-2.3488 -5.6406 -2.5007 0.9739
-2.1468 -5.7207 -2.5008 0.9739
-1.9422 -5.7936 -2.5009 0.9739
-1.7351 -5.8592 -2.5010 0.9739
-0.8873 -6.0468 -2.5013 0.9739
-5.7316 0.1865 -2.4993 0.9753
-5.7346 -0.0173 -2.4993 0.9753
-5.7189 -0.4247 -2.4993 0.9753
-5.6743 -0.8299 -2.4993 0.9753
-5.6011 -1.2310 -2.4993 0.9753
-5.2954 -2.2021 -2.4994 0.9753
-5.2139 -2.3890 -2.4995 0.9753
-5.1258 -2.5728 -2.4995 0.9753
-5.0311 -2.7534 -2.4996 0.9753
-4.9302 -2.9306 -2.4996 0.9753
-4.8230 -3.1040 -2.4996 0.9753
-4.4654 -3.6000 -2.4998 0.9753
-4.3348 -3.7566 -2.4999 0.9753
-3.7590 -4.3334 -2.5001 0.9753
-3.4418 -4.5898 -2.5002 0.9753
-3.1072 -4.8230 -2.5004 0.9753
-2.5764 -5.1268 -2.5006 0.9753
-2.3926 -5.2153 -2.5007 0.9753
-2.2057 -5.2972 -2.5008 0.9753
-1.4329 -5.5571 -2.5011 0.9753
-1.2345 -5.6047 -2.5012 0.9753
-1.0346 -5.6452 -2.5013 0.9753
-0.8333 -5.6786 -2.5013 0.9753
-5.3871 0.3673 -2.4994 0.9765
-5.3967 0.1756 -2.4994 0.9765
-5.3996 -0.0163 -2.4994 0.9765
-5.3848 -0.3999 -2.4994 0.9765
-5.3672 -0.5910 -2.4994 0.9765
-5.3428 -0.7814 -2.4994 0.9765
-5.3117 -0.9709 -2.4994 0.9765
-5.2294 -1.3458 -2.4995 0.9765
-5.0565 -1.8949 -2.4995 0.9765
-4.9860 -2.0734 -2.4996 0.9765
-4.7372 -2.5926 -2.4997 0.9765
-4.6421 -2.7593 -2.4997 0.9765
-4.5412 -2.9226 -2.4998 0.9765
-4.4345 -3.0823 -2.4998 0.9765
-4.3222 -3.2380 -2.4999 0.9765
-4.2045 -3.3897 -2.4999 0.9765
-4.0814 -3.5370 -2.5000 0.9765
-3.9532 -3.6799 -2.5000 0.9765
-3.8200 -3.8182 -2.5001 0.9765
-3.6820 -3.9517 -2.5001 0.9765
-2.9256 -4.5411 -2.5005 0.9765
-2.7624 -4.6423 -2.5005 0.9765
-2.5957 -4.7377 -2.5006 0.9765
-2.4258 -4.8271 -2.5007 0.9765
-2.2527 -4.9104 -2.5007 0.9765
-2.0768 -4.9875 -2.5008 0.9765
-1.8983 -5.0584 -2.5009 0.9765
-1.7173 -5.1228 -2.5010 0.9765
-1.5342 -5.1808 -2.5010 0.9765
-1.3491 -5.2322 -2.5011 0.9765
-1.1623 -5.2770 -2.5012 0.9765
-0.9741 -5.3152 -2.5013 0.9765
-0.7846 -5.3466 -2.5014 0.9765
-5.0838 0.3466 -2.4995 0.9776
-5.0918 -0.1965 -2.4995 0.9776
-5.0650 -0.5578 -2.4995 0.9776
-5.0420 -0.7375 -2.4996 0.9776
-4.9769 -1.0938 -2.4996 0.9776
-4.9349 -1.2700 -2.4996 0.9776
-4.8867 -1.4446 -2.4996 0.9776
-4.7718 -1.7882 -2.4997 0.9776
-4.7053 -1.9567 -2.4997 0.9776
-4.6329 -2.1227 -2.4997 0.9776
-4.4705 -2.4466 -2.4998 0.9776
-4.1848 -2.9087 -2.4999 0.9775
-4.0789 -3.0557 -2.5000 0.9775
-3.9678 -3.1988 -2.5000 0.9775
-3.8516 -3.3379 -2.5001 0.9775
-3.7306 -3.4727 -2.5001 0.9775
-3.6049 -3.6032 -2.5002 0.9775
-2.9113 -4.1844 -2.5005 0.9775
-2.6068 -4.3809 -2.5006 0.9775
-2.4495 -4.4709 -2.5007 0.9775
-2.2891 -4.5552 -2.5007 0.9775
-2.1258 -4.6338 -2.5008 0.9775
-1.9598 -4.7066 -2.5009 0.9775
-1.4478 -4.8889 -2.5011 0.9775
-1.0969 -4.9797 -2.5012 0.9775
-0.9192 -5.0157 -2.5013 0.9775
-0.7404 -5.0454 -2.5014 0.9775
-4.8071 0.3278 -2.4997 0.9785
-4.8157 0.1567 -2.4996 0.9785
-4.8147 -0.1858 -2.4996 0.9785
-4.8051 -0.3568 -2.4997 0.9785
-4.7894 -0.5274 -2.4997 0.9785
-4.7676 -0.6973 -2.4997 0.9785
-4.7061 -1.0343 -2.4997 0.9785
-4.6664 -1.2009 -2.4997 0.9785
-4.5693 -1.5294 -2.4998 0.9785
-4.5121 -1.6909 -2.4998 0.9785
-4.4492 -1.8502 -2.4998 0.9785
-4.3807 -2.0072 -2.4998 0.9785
-4.3067 -2.1617 -2.4999 0.9785
-4.2272 -2.3134 -2.4999 0.9785
-4.0522 -2.6080 -2.5000 0.9785
-3.4087 -3.4071 -2.5002 0.9785
-3.2855 -3.5262 -2.5003 0.9785
-2.7528 -3.9566 -2.5005 0.9785
-2.6105 -4.0520 -2.5006 0.9785
-2.3162 -4.2275 -2.5007 0.9785
-2.1645 -4.3072 -2.5008 0.9785
-1.8531 -4.4503 -2.5009 0.9785
-1.6938 -4.5135 -2.5010 0.9785
-1.5324 -4.5710 -2.5010 0.9785
-1.2038 -4.6686 -2.5012 0.9785
-0.7000 -4.7706 -2.5014 0.9785
-4.5616 0.1484 -2.4998 0.9794
-4.5640 -0.0138 -2.4998 0.9794
-4.5607 -0.1760 -2.4998 0.9794
-4.5160 -0.6605 -2.4998 0.9794
-4.4897 -0.8206 -2.4998 0.9794
-4.4578 -0.9797 -2.4998 0.9794
-4.4201 -1.1375 -2.4998 0.9794
-4.3769 -1.2939 -2.4998 0.9794
-4.3282 -1.4487 -2.4999 0.9794
-4.2740 -1.6017 -2.4999 0.9794
-4.2144 -1.7526 -2.4999 0.9794
-4.1495 -1.9013 -2.4999 0.9794
-4.0041 -2.1913 -2.5000 0.9794
-3.9237 -2.3323 -2.5000 0.9794
-3.8384 -2.4703 -2.5001 0.9794
-3.7482 -2.6053 -2.5001 0.9794
-3.4498 -2.9896 -2.5002 0.9794
-3.3414 -3.1104 -2.5003 0.9794
-3.2288 -3.2273 -2.5003 0.9794
-3.1121 -3.3401 -2.5004 0.9794
-2.8670 -3.5529 -2.5005 0.9794
-2.7390 -3.6526 -2.5005 0.9794
-2.1939 -4.0043 -2.5008 0.9794
-2.0502 -4.0799 -2.5008 0.9794
-1.9040 -4.1502 -2.5009 0.9794
-1.7553 -4.2154 -2.5010 0.9794
-1.4515 -4.3297 -2.5011 0.9794
-1.2967 -4.3786 -2.5011 0.9794
-0.9824 -4.4599 -2.5013 0.9794
-4.3198 0.2945 -2.4999 0.9802
-4.3276 0.1408 -2.4999 0.9802
-4.3266 -0.1670 -2.4999 0.9802
-4.3039 -0.4739 -2.4999 0.9802
-4.2843 -0.6266 -2.4999 0.9802
-4.1524 -1.2275 -2.4999 0.9802
-3.9366 -1.8037 -2.5000 0.9802
-3.8700 -1.9425 -2.5001 0.9802
-3.7986 -2.0789 -2.5001 0.9802
-3.7224 -2.2126 -2.5001 0.9802
-3.5559 -2.4715 -2.5002 0.9802
-3.4658 -2.5964 -2.5002 0.9802
-3.2727 -2.8362 -2.5003 0.9802
-2.9524 -3.1686 -2.5004 0.9802
-2.8379 -3.2716 -2.5005 0.9802
-2.3458 -3.6411 -2.5007 0.9802
-2.0812 -3.7987 -2.5008 0.9802
-1.9450 -3.8704 -2.5009 0.9802
-1.8062 -3.9372 -2.5009 0.9802
-1.5220 -4.0558 -2.5011 0.9802
-1.3769 -4.1074 -2.5011 0.9802
-1.0817 -4.1951 -2.5012 0.9802
-0.7810 -4.2615 -2.5014 0.9802
-0.6290 -4.2867 -2.5014 0.9802
