ply
format ascii 1.0
element vertex 445
property float32 x
property float32 y
property float32 z
property float32 I
end_header
29.8215 -30.3502 7.5026 0.8413
-0.1736 -46.3911 -2.3527 0.8304
1.4720 -46.3761 -2.3531 0.8304
3.1163 -46.3029 -2.3535 0.8304
4.7572 -46.1727 -2.3540 0.8304
6.3934 -45.9866 -2.3546 0.8303
8.0222 -45.7422 -2.3552 0.8303
11.2498 -45.0805 -2.3563 0.8302
12.8445 -44.6640 -2.3569 0.8302
14.4238 -44.1911 -2.3575 0.8301
15.9830 -43.6549 -2.3576 0.8301
17.5217 -43.0621 -2.3577 0.8301
22.0113 -40.9854 -2.3593 0.8300
23.4615 -40.1971 -2.3604 0.8299
26.2750 -38.4671 -2.3625 0.8298
27.6345 -37.5273 -2.3635 0.8297
28.9604 -36.5393 -2.3645 0.8297
30.2084 -35.4546 -2.3622 0.8298
37.2154 -32.8546 -2.5176 0.8197
38.3646 -31.5202 -2.5181 0.8197
40.5171 -28.7321 -2.5190 0.8196
41.5176 -27.2818 -2.5194 0.8196
42.4658 -25.7964 -2.5198 0.8195
43.3604 -24.2778 -2.5202 0.8195
44.2004 -22.7281 -2.5206 0.8195
44.9846 -21.1492 -2.5209 0.8195
45.7118 -19.5429 -2.5212 0.8195
-3.5262 -31.8821 -2.3519 0.8793
-0.1201 -32.0922 -2.3531 0.8792
1.0183 -32.0816 -2.3535 0.8792
3.2904 -31.9354 -2.3540 0.8792
4.4211 -31.8002 -2.3541 0.8792
5.5463 -31.6248 -2.3542 0.8792
7.7746 -31.1546 -2.3544 0.8792
9.9640 -30.5271 -2.3545 0.8792
11.0405 -30.1554 -2.3546 0.8792
12.1033 -29.7456 -2.3546 0.8791
14.1885 -28.8275 -2.3558 0.8791
15.2067 -28.3151 -2.3566 0.8791
17.1861 -27.1828 -2.3580 0.8790
19.9939 -25.2264 -2.3602 0.8789
20.8820 -24.5085 -2.3608 0.8789
23.3864 -22.1705 -2.3628 0.8788
24.1644 -21.3329 -2.3634 0.8787
27.5634 -16.7438 -2.3647 0.8787
-2.6930 -24.3488 -2.3519 0.9063
-0.0917 -24.5008 -2.3522 0.9062
4.2331 -24.1373 -2.3527 0.9062
5.0866 -23.9728 -2.3527 0.9062
5.9338 -23.7780 -2.3528 0.9062
6.7735 -23.5533 -2.3529 0.9062
7.6046 -23.2988 -2.3529 0.9062
8.4263 -23.0149 -2.3530 0.9062
10.8304 -22.0046 -2.3546 0.9061
11.6067 -21.6119 -2.3551 0.9061
12.3687 -21.1917 -2.3557 0.9061
15.9316 -18.6984 -2.3584 0.9060
16.5881 -18.1254 -2.3589 0.9060
18.4062 -16.2493 -2.3572 0.9060
18.9727 -15.5879 -2.3574 0.9060
21.3334 -15.1283 -2.5108 0.9002
21.8584 -14.3635 -2.5110 0.9002
22.3559 -13.5804 -2.5112 0.9002
22.8253 -12.7801 -2.5114 0.9002
23.6771 -11.1316 -2.5118 0.9002
-1.8589 -16.8071 -2.0086 0.9342
-0.0740 -19.7948 -2.3514 0.9234
1.3293 -19.7516 -2.3515 0.9234
3.4200 -19.5004 -2.3517 0.9233
4.1095 -19.3674 -2.3518 0.9233
5.4722 -19.0283 -2.3519 0.9233
6.1436 -18.8224 -2.3519 0.9233
11.1779 -16.3646 -2.3541 0.9233
11.7524 -15.9596 -2.3543 0.9233
12.3122 -15.5344 -2.3546 0.9233
14.7980 -15.0603 -2.5080 0.9185
15.8310 -13.9760 -2.5085 0.9185
16.7845 -12.8207 -2.5089 0.9184
17.2300 -12.2184 -2.5091 0.9184
17.6537 -11.6005 -2.5092 0.9184
18.0552 -10.9679 -2.5094 0.9184
18.4340 -10.3214 -2.5096 0.9184
18.7896 -9.6617 -2.5097 0.9184
-1.8221 -16.4748 -2.3485 0.9352
-1.2369 -16.5308 -2.3488 0.9352
-0.6499 -16.5660 -2.3490 0.9352
0.5260 -16.5739 -2.3495 0.9352
2.2842 -16.4296 -2.3503 0.9352
4.0175 -16.0991 -2.3510 0.9352
5.1496 -15.7771 -2.3515 0.9352
6.8321 -15.2209 -2.3639 0.9348
7.4866 -15.2109 -2.4021 0.9338
8.1648 -15.2030 -2.4451 0.9327
8.8683 -15.1943 -2.4927 0.9314
9.4506 -14.9478 -2.5057 0.9310
9.9756 -14.6046 -2.5060 0.9310
10.9876 -13.8631 -2.5064 0.9310
11.9446 -13.0516 -2.5068 0.9310
12.8416 -12.1739 -2.5072 0.9310
13.2663 -11.7117 -2.5074 0.9310
13.6742 -11.2346 -2.5075 0.9310
14.0649 -10.7434 -2.5077 0.9310
14.4380 -10.2385 -2.5079 0.9310
15.4464 -8.6486 -2.5083 0.9310
16.0222 -7.5327 -2.5085 0.9310
16.2799 -6.9601 -2.5087 0.9310
-1.6689 -15.0895 -2.5010 0.9403
-0.0568 -15.1856 -2.5017 0.9403
1.5567 -15.1099 -2.5024 0.9403
2.0919 -15.0465 -2.5026 0.9403
2.6244 -14.9643 -2.5028 0.9403
3.1537 -14.8631 -2.5031 0.9403
5.2256 -14.2729 -2.5039 0.9402
5.7290 -14.0798 -2.5042 0.9402
7.6649 -13.1325 -2.5050 0.9402
8.1264 -12.8534 -2.5052 0.9402
8.5779 -12.5581 -2.5054 0.9402
9.4478 -11.9203 -2.5057 0.9402
10.6627 -10.8516 -2.5063 0.9402
11.0415 -10.4674 -2.5064 0.9402
11.7571 -9.6596 -2.5067 0.9402
12.4136 -8.8029 -2.5070 0.9402
13.0076 -7.9017 -2.5073 0.9402
13.2803 -7.4358 -2.5074 0.9402
13.5362 -6.9604 -2.5075 0.9402
-1.4628 -13.2257 -2.5011 0.9473
-0.9929 -13.2704 -2.5013 0.9473
-0.5217 -13.2983 -2.5015 0.9473
-0.0498 -13.3095 -2.5017 0.9473
0.4223 -13.3040 -2.5019 0.9473
0.8939 -13.2817 -2.5021 0.9473
1.8334 -13.1871 -2.5025 0.9473
4.1327 -12.6617 -2.5035 0.9472
5.0206 -12.3388 -2.5038 0.9472
7.1002 -11.2302 -2.4973 0.9474
7.4945 -10.9721 -2.4975 0.9474
7.9028 -10.7319 -2.5051 0.9472
8.9996 -9.8336 -2.5055 0.9472
9.6751 -9.1720 -2.5058 0.9472
9.9948 -8.8236 -2.5060 0.9472
10.8771 -7.7133 -2.5063 0.9472
11.3975 -6.9236 -2.5066 0.9472
11.8605 -6.0987 -2.5068 0.9472
-1.3008 -11.7608 -2.5012 0.9528
-0.0443 -11.8349 -2.5017 0.9528
0.3755 -11.8299 -2.5019 0.9528
1.2133 -11.7752 -2.5022 0.9528
1.6302 -11.7256 -2.5024 0.9528
3.6746 -11.2580 -2.5033 0.9527
4.4639 -10.9707 -2.5036 0.9527
5.9542 -10.2016 -2.4968 0.9529
6.6830 -9.7840 -2.5046 0.9527
7.0262 -9.5414 -2.5047 0.9527
7.3605 -9.2868 -2.5048 0.9527
7.6857 -9.0204 -2.5050 0.9527
8.3066 -8.4538 -2.5052 0.9527
8.6016 -8.1544 -2.5054 0.9527
8.8858 -7.8446 -2.5055 0.9527
9.1588 -7.5249 -2.5056 0.9527
9.6700 -6.8574 -2.5058 0.9527
10.5441 -5.4219 -2.5062 0.9527
10.9025 -4.6611 -2.5064 0.9527
-1.1699 -10.5779 -2.5012 0.9572
-0.4173 -10.6356 -2.5015 0.9572
-0.0398 -10.6444 -2.5017 0.9572
0.3377 -10.6398 -2.5018 0.9572
0.7149 -10.6218 -2.5020 0.9572
1.8393 -10.4878 -2.5025 0.9572
2.2102 -10.4166 -2.5026 0.9572
2.5784 -10.3323 -2.5028 0.9572
2.9434 -10.2350 -2.5030 0.9572
3.3047 -10.1248 -2.5031 0.9572
3.6619 -10.0019 -2.5033 0.9572
5.0406 -9.3858 -2.5039 0.9572
5.3706 -9.2016 -2.5040 0.9572
6.0100 -8.7987 -2.5043 0.9572
6.3186 -8.5805 -2.5044 0.9572
7.1953 -7.8621 -2.5048 0.9572
7.7122 -7.3112 -2.4976 0.9573
8.2362 -6.7668 -2.5052 0.9571
8.6958 -6.1665 -2.5054 0.9571
9.1116 -5.5350 -2.5056 0.9571
9.3025 -5.2085 -2.5057 0.9571
9.4817 -4.8755 -2.5058 0.9571
-1.0620 -9.6019 -2.5013 0.9609
-0.7208 -9.6340 -2.5014 0.9609
-0.3787 -9.6541 -2.5015 0.9609
0.3066 -9.6578 -2.5018 0.9609
0.6489 -9.6414 -2.5020 0.9609
1.3308 -9.5723 -2.5023 0.9609
2.0062 -9.4550 -2.5026 0.9609
2.6716 -9.2900 -2.5028 0.9608
2.9996 -9.1900 -2.5030 0.9608
3.6438 -8.9552 -2.5033 0.9608
4.8746 -8.3517 -2.5038 0.9608
5.4548 -7.9860 -2.5040 0.9608
5.9899 -7.5575 -2.4969 0.9609
6.5305 -7.1357 -2.5045 0.9608
6.9996 -6.6357 -2.4973 0.9609
7.2309 -6.3835 -2.4974 0.9609
7.6885 -5.8728 -2.5050 0.9608
7.8922 -5.5966 -2.5051 0.9608
8.2696 -5.0234 -2.5052 0.9608
8.4428 -4.7272 -2.5053 0.9608
8.8978 -3.8040 -2.5055 0.9608
-0.9713 -8.7820 -2.5013 0.9639
-0.6593 -8.8114 -2.5014 0.9639
-0.3464 -8.8297 -2.5016 0.9639
0.2804 -8.8330 -2.5018 0.9639
0.5935 -8.8180 -2.5020 0.9639
1.5270 -8.7065 -2.5024 0.9639
1.8348 -8.6473 -2.5025 0.9639
3.0398 -8.3026 -2.5030 0.9639
4.1841 -7.7909 -2.5035 0.9639
4.4580 -7.6380 -2.5036 0.9639
5.2447 -7.1222 -2.5039 0.9639
5.4942 -6.9321 -2.5040 0.9639
5.9722 -6.5257 -2.5043 0.9639
6.2002 -6.3101 -2.5043 0.9639
6.6323 -5.8551 -2.5045 0.9639
7.0312 -5.3707 -2.5047 0.9639
7.3946 -4.8591 -2.5049 0.9639
7.5625 -4.5939 -2.5049 0.9639
7.7208 -4.3230 -2.5050 0.9639
7.8695 -4.0465 -2.5051 0.9639
-0.3188 -8.1269 -2.5016 0.9665
-0.0304 -8.1334 -2.5017 0.9665
0.8337 -8.0919 -2.5021 0.9665
1.1202 -8.0576 -2.5022 0.9665
1.4053 -8.0132 -2.5023 0.9665
1.6887 -7.9587 -2.5024 0.9665
1.9700 -7.8942 -2.5025 0.9665
2.7977 -7.6414 -2.5029 0.9665
3.0671 -7.5377 -2.5030 0.9665
3.5940 -7.3020 -2.5032 0.9665
3.8508 -7.1703 -2.5033 0.9665
4.3497 -6.8799 -2.5036 0.9665
5.0565 -6.3797 -2.5039 0.9665
5.2797 -6.1966 -2.5040 0.9665
6.1038 -5.3885 -2.5043 0.9665
6.2912 -5.1688 -2.5044 0.9665
6.6422 -4.7102 -2.5045 0.9665
6.8052 -4.4718 -2.5046 0.9665
7.1055 -3.9784 -2.5047 0.9665
7.3699 -3.4649 -2.5048 0.9665
-0.5615 -7.5044 -2.5015 0.9688
-0.2950 -7.5199 -2.5016 0.9688
-0.0281 -7.5260 -2.5017 0.9688
0.5054 -7.5097 -2.5019 0.9688
2.0808 -7.2355 -2.5026 0.9688
2.3362 -7.1574 -2.5027 0.9688
2.5886 -7.0704 -2.5028 0.9688
3.0835 -6.8697 -2.5030 0.9688
3.3254 -6.7563 -2.5031 0.9688
3.7962 -6.5041 -2.5033 0.9688
4.0247 -6.3657 -2.5034 0.9688
4.4661 -6.0648 -2.5036 0.9688
4.8851 -5.7334 -2.5038 0.9687
5.0855 -5.5568 -2.5039 0.9687
5.4669 -5.1827 -2.5040 0.9687
5.8209 -4.7824 -2.5042 0.9687
5.9870 -4.5731 -2.5043 0.9687
6.5742 -3.6809 -2.5045 0.9687
-0.7689 -6.9524 -2.5014 0.9707
-0.5219 -6.9756 -2.5015 0.9707
0.4698 -6.9804 -2.5019 0.9707
0.7171 -6.9597 -2.5020 0.9707
1.2087 -6.8919 -2.5022 0.9707
1.4524 -6.8450 -2.5023 0.9707
1.9341 -6.7254 -2.5025 0.9707
2.4061 -6.5719 -2.5027 0.9707
2.6378 -6.4827 -2.5028 0.9707
2.8661 -6.3854 -2.5029 0.9707
3.0909 -6.2799 -2.5030 0.9707
3.3118 -6.1666 -2.5031 0.9707
3.5285 -6.0455 -2.5032 0.9707
3.7408 -5.9168 -2.5033 0.9707
3.9485 -5.7806 -2.5034 0.9707
4.3485 -5.4866 -2.5036 0.9707
4.7268 -5.1649 -2.5037 0.9707
5.0813 -4.8171 -2.5039 0.9707
5.5647 -4.2505 -2.5041 0.9707
5.8522 -3.8456 -2.5042 0.9707
5.9851 -3.6357 -2.5043 0.9707
6.2280 -3.2025 -2.5044 0.9707
6.3377 -2.9796 -2.5044 0.9707
6.4396 -2.7530 -2.5045 0.9707
-0.7175 -6.4878 -2.5014 0.9724
-0.0244 -6.5281 -2.5017 0.9724
0.2071 -6.5251 -2.5018 0.9724
0.4384 -6.5139 -2.5019 0.9724
0.6692 -6.4945 -2.5020 0.9724
1.1279 -6.4312 -2.5022 0.9724
1.3553 -6.3875 -2.5023 0.9724
2.0263 -6.2081 -2.5026 0.9724
2.2452 -6.1325 -2.5027 0.9724
3.4907 -5.5211 -2.5032 0.9724
4.0577 -5.1196 -2.5034 0.9724
4.2369 -4.9727 -2.5035 0.9724
4.4107 -4.8194 -2.5036 0.9724
4.5789 -4.6601 -2.5037 0.9724
4.7414 -4.4949 -2.5037 0.9724
4.8980 -4.3241 -2.5038 0.9724
5.0484 -4.1477 -2.5039 0.9724
5.1925 -3.9662 -2.5039 0.9724
5.3300 -3.7797 -2.5040 0.9724
5.4608 -3.5883 -2.5040 0.9724
5.5847 -3.3925 -2.5041 0.9724
5.7016 -3.1924 -2.5041 0.9724
5.8114 -2.9882 -2.5042 0.9724
6.0087 -2.5689 -2.5043 0.9724
-0.4560 -6.0950 -2.5015 0.9739
-0.2396 -6.1076 -2.5016 0.9739
0.1940 -6.1096 -2.5018 0.9739
0.4105 -6.0992 -2.5019 0.9739
0.8418 -6.0552 -2.5021 0.9739
1.0561 -6.0217 -2.5022 0.9739
1.2690 -5.9807 -2.5022 0.9739
1.4804 -5.9321 -2.5023 0.9739
1.8973 -5.8127 -2.5025 0.9739
3.0828 -5.2819 -2.5030 0.9739
3.4497 -5.0504 -2.5032 0.9739
3.6267 -4.9250 -2.5033 0.9739
3.7992 -4.7935 -2.5033 0.9739
3.9669 -4.6558 -2.5034 0.9739
4.5859 -4.0485 -2.5037 0.9739
4.9903 -3.5388 -2.5038 0.9739
5.2288 -3.1763 -2.5039 0.9739
5.4410 -2.7978 -2.5040 0.9739
5.5369 -2.6031 -2.5041 0.9739
5.6258 -2.4052 -2.5041 0.9739
-0.4283 -5.7238 -2.5015 0.9753
-0.0215 -5.7402 -2.5017 0.9753
0.1821 -5.7376 -2.5018 0.9753
0.3855 -5.7277 -2.5019 0.9753
0.5884 -5.7106 -2.5020 0.9753
0.7906 -5.6863 -2.5020 0.9753
0.9917 -5.6549 -2.5021 0.9753
1.5869 -5.5182 -2.5024 0.9753
1.9742 -5.3922 -2.5025 0.9753
2.1642 -5.3189 -2.5026 0.9753
2.5360 -5.1525 -2.5028 0.9753
2.7172 -5.0595 -2.5029 0.9753
2.8950 -4.9601 -2.5029 0.9753
3.0692 -4.8544 -2.5030 0.9753
3.2395 -4.7427 -2.5031 0.9753
3.4057 -4.6249 -2.5032 0.9753
3.5677 -4.5014 -2.5032 0.9752
3.7252 -4.3721 -2.5033 0.9752
4.4387 -3.6468 -2.5036 0.9752
4.8012 -3.1549 -2.5038 0.9752
5.0129 -2.8068 -2.5038 0.9752
5.1994 -2.4444 -2.5039 0.9752
5.2829 -2.2586 -2.5040 0.9752
-0.5941 -5.3713 -2.5015 0.9765
-0.4032 -5.3892 -2.5015 0.9765
-0.2119 -5.4002 -2.5016 0.9765
0.7445 -5.3538 -2.5020 0.9765
1.4941 -5.1954 -2.5023 0.9765
1.6775 -5.1393 -2.5024 0.9765
1.8587 -5.0767 -2.5025 0.9765
2.3876 -4.8510 -2.5027 0.9765
2.7257 -4.6699 -2.5029 0.9764
3.0500 -4.4652 -2.5030 0.9764
3.2065 -4.3543 -2.5031 0.9764
3.3589 -4.2380 -2.5031 0.9764
3.5072 -4.1163 -2.5032 0.9764
3.9249 -3.7208 -2.5034 0.9764
4.1789 -3.4334 -2.5035 0.9764
4.2981 -3.2831 -2.5035 0.9764
4.5202 -2.9703 -2.5036 0.9764
4.7195 -2.6425 -2.5037 0.9764
-0.5606 -5.0687 -2.5015 0.9775
-0.1999 -5.0960 -2.5016 0.9775
-0.0191 -5.1000 -2.5017 0.9775
0.1618 -5.0976 -2.5018 0.9775
0.3425 -5.0888 -2.5018 0.9775
0.5228 -5.0737 -2.5019 0.9775
1.5829 -4.8496 -2.5024 0.9775
1.7540 -4.7906 -2.5025 0.9775
1.9228 -4.7255 -2.5025 0.9775
2.0892 -4.6545 -2.5026 0.9775
2.2530 -4.5776 -2.5027 0.9775
3.1696 -3.9991 -2.5031 0.9775
3.3095 -3.8842 -2.5031 0.9775
3.4453 -3.7645 -2.5032 0.9775
3.7036 -3.5110 -2.5033 0.9775
4.4534 -2.4935 -2.5036 0.9775
-0.5301 -4.7926 -2.5015 0.9785
-0.3598 -4.8085 -2.5015 0.9785
-0.0180 -4.8222 -2.5017 0.9785
0.6641 -4.7769 -2.5020 0.9785
0.8331 -4.7505 -2.5021 0.9785
1.0011 -4.7181 -2.5021 0.9785
1.3331 -4.6355 -2.5023 0.9785
1.6584 -4.5296 -2.5024 0.9785
1.8180 -4.4681 -2.5025 0.9785
2.1303 -4.3282 -2.5026 0.9785
2.4318 -4.1665 -2.5027 0.9785
2.5781 -4.0778 -2.5028 0.9785
2.7212 -3.9839 -2.5029 0.9785
2.8608 -3.8850 -2.5029 0.9785
2.9969 -3.7811 -2.5030 0.9785
3.3817 -3.4417 -2.5031 0.9785
3.5017 -3.3197 -2.5032 0.9785
3.7284 -3.0632 -2.5033 0.9785
4.1244 -2.5054 -2.5035 0.9785
4.2107 -2.3576 -2.5035 0.9785
4.4374 -1.8971 -2.5036 0.9785
-0.5021 -4.5396 -2.5015 0.9794
-0.0171 -4.5676 -2.5017 0.9794
0.1449 -4.5654 -2.5018 0.9794
0.3067 -4.5575 -2.5018 0.9794
0.4682 -4.5439 -2.5019 0.9794
0.7891 -4.4996 -2.5020 0.9794
0.9482 -4.4689 -2.5021 0.9794
1.2627 -4.3907 -2.5022 0.9794
1.5708 -4.2903 -2.5024 0.9794
1.8710 -4.1684 -2.5025 0.9794
2.5775 -3.7734 -2.5028 0.9794
2.7097 -3.6797 -2.5029 0.9794
2.8385 -3.5814 -2.5029 0.9794
3.3167 -3.1442 -2.5031 0.9794
3.5314 -2.9013 -2.5032 0.9794
3.7283 -2.6438 -2.5033 0.9794
3.8197 -2.5100 -2.5033 0.9794
3.9064 -2.3730 -2.5034 0.9794
3.9882 -2.2330 -2.5034 0.9794
4.0649 -2.0902 -2.5034 0.9794
0.1375 -4.3310 -2.5018 0.9802
1.0493 -4.2049 -2.5022 0.9802
1.4901 -4.0700 -2.5023 0.9802
1.6336 -4.0147 -2.5024 0.9802
1.7749 -3.9543 -2.5025 0.9802
1.9141 -3.8890 -2.5025 0.9802
2.0509 -3.8187 -2.5026 0.9802
2.3165 -3.6639 -2.5027 0.9802
3.0385 -3.0923 -2.5030 0.9802
3.1463 -2.9827 -2.5030 0.9802
3.3499 -2.7523 -2.5031 0.9802
3.4455 -2.6318 -2.5032 0.9802
3.5367 -2.5080 -2.5032 0.9802
3.7832 -2.1183 -2.5033 0.9802
3.8560 -1.9828 -2.5033 0.9802
3.9240 -1.8448 -2.5034 0.9802
