ply
format ascii 1.0
element vertex 537
property float32 x
property float32 y
property float32 z
property float32 I
end_header
24.6090 14.1196 5.0027 0.8912
20.1756 16.9520 4.6466 0.8985
20.2417 19.6256 4.9713 0.8918
20.2785 21.1115 5.1616 0.8879
20.1381 22.5165 5.3265 0.8845
11.2327 14.5168 3.2365 0.9282
26.6757 14.0687 4.6201 0.8851
22.7713 14.1650 4.1083 0.8972
20.1690 18.2088 4.1627 0.8959
20.2097 21.0399 4.4693 0.8886
20.3179 22.7175 4.6690 0.8840
12.0102 14.4305 2.8762 0.9268
26.6757 14.0687 3.9272 0.8855
24.6090 14.1197 3.6946 0.8919
22.7713 14.1650 3.4922 0.8975
20.1169 14.5947 3.2364 0.9046
20.1751 16.9515 3.4315 0.8992
20.1690 18.2088 3.5384 0.8962
20.2412 19.6250 3.6713 0.8925
12.0103 14.4304 2.4448 0.9271
11.1817 14.4509 2.3794 0.9289
10.3954 14.4703 2.3202 0.9307
35.3913 12.6393 4.0355 0.8597
22.7713 14.1650 2.8797 0.8977
20.1166 14.5945 2.6688 0.9049
20.1449 15.7385 2.7451 0.9023
20.3639 22.7689 3.2802 0.8844
10.3954 14.4703 1.9132 0.9308
26.6756 14.0687 2.5530 0.8860
24.6090 14.1196 2.4018 0.8924
22.7712 14.1650 2.2702 0.8979
20.1746 16.9511 2.2306 0.8996
20.2406 19.6245 2.3866 0.8930
12.0103 14.4304 1.5893 0.9274
11.1817 14.4509 1.5468 0.9293
26.6757 14.0687 1.8701 0.8862
24.6090 14.1196 1.7593 0.8925
22.7712 14.1650 1.6630 0.8981
20.1444 15.7381 1.5852 0.9026
20.1743 16.9509 1.6340 0.8998
13.9605 13.5356 1.2058 0.9250
12.9043 13.4344 1.1551 0.9281
12.0103 14.4304 1.1642 0.9275
26.6756 14.0686 1.1892 0.8863
24.6090 14.1196 1.1187 0.8926
22.7712 14.1650 1.0574 0.8982
21.1224 14.2056 1.0037 0.9031
20.1741 16.9507 1.0390 0.8999
12.0102 14.4304 0.7403 0.9276
11.2316 14.5154 0.7237 0.9292
10.3573 14.4172 0.7000 0.9314
26.6757 14.0686 0.5094 0.8863
22.7712 14.1650 0.4530 0.8983
20.1157 14.5938 0.4198 0.9054
20.1439 15.7377 0.4318 0.9028
14.5619 12.2352 0.3213 0.9267
13.5792 12.2594 0.3090 0.9294
11.2314 14.5152 0.3100 0.9292
10.3573 14.4172 0.2999 0.9314
26.6756 14.0686 -0.1698 0.8864
22.7712 14.1650 -0.1510 0.8983
21.1224 14.2056 -0.1433 0.9032
20.1736 16.9502 -0.1483 0.9000
20.2054 18.2417 -0.1533 0.8968
20.2395 19.6234 -0.1587 0.8934
20.2761 21.1091 -0.1648 0.8895
12.7300 14.2334 -0.1075 0.9265
12.0102 14.4304 -0.1057 0.9277
11.1407 14.3979 -0.1025 0.9298
10.3573 14.4172 -0.0999 0.9315
27.2528 13.1561 -0.8521 0.8859
26.6756 14.0686 -0.8492 0.8863
24.6089 14.1196 -0.7989 0.8927
22.7712 14.1650 -0.7551 0.8982
20.1434 15.7373 -0.7198 0.9028
20.1733 16.9500 -0.7419 0.8999
14.3097 13.8741 -0.5612 0.9233
14.4275 16.1314 -0.6094 0.9170
12.0102 14.4304 -0.5287 0.9276
11.1817 14.4509 -0.5145 0.9295
46.3783 -17.9104 -2.5213 0.8195
46.9909 -16.2511 -2.5216 0.8194
48.0358 -12.8714 -2.5220 0.8194
48.4668 -11.1554 -2.5222 0.8194
49.1428 -7.6824 -2.5225 0.8194
49.3868 -5.9297 -2.5226 0.8194
49.6859 -2.4037 -2.5227 0.8194
49.6591 2.9031 -2.5227 0.8194
49.5233 4.6675 -2.5227 0.8194
49.3242 6.4259 -2.5226 0.8194
49.0623 8.1759 -2.5225 0.8194
46.8237 16.7222 -2.5215 0.8194
28.9415 12.7226 -1.6033 0.8811
27.9001 13.4685 -1.5712 0.8833
24.6089 14.1196 -1.4389 0.8926
22.7712 14.1649 -1.3600 0.8982
20.1149 14.5933 -1.2603 0.9053
20.1431 15.7371 -1.2963 0.9027
20.2390 19.6229 -1.4296 0.8932
12.0102 14.4304 -0.9521 0.9276
11.1817 14.4509 -0.9266 0.9294
33.1415 -8.8804 -2.5157 0.8714
33.4381 -7.6963 -2.5159 0.8714
33.6921 -6.5024 -2.5160 0.8714
33.9033 -5.3000 -2.5161 0.8714
34.2771 -1.6582 -2.5162 0.8714
34.3146 -0.4379 -2.5162 0.8714
34.3084 0.7829 -2.5162 0.8714
34.2585 2.0028 -2.5162 0.8714
33.8478 5.6406 -2.5160 0.8714
33.6246 6.8407 -2.5159 0.8714
33.3585 8.0320 -2.5158 0.8714
33.0500 9.2130 -2.5157 0.8714
28.3338 11.2706 -2.2358 0.8849
24.2144 10.6446 -1.9394 0.8993
26.6756 14.0686 -2.2113 0.8861
20.1147 14.5932 -1.8221 0.9051
20.1429 15.7369 -1.8742 0.9026
20.1728 16.9496 -1.9319 0.8997
14.2371 13.8037 -1.4540 0.9235
12.6220 14.1127 -1.3883 0.9269
10.3954 14.4703 -1.3064 0.9310
24.4088 -9.4262 -2.5120 0.9002
24.7300 -8.5525 -2.5122 0.9002
25.0198 -7.6678 -2.5123 0.9002
25.5037 -5.8701 -2.5125 0.9002
25.8581 -4.0423 -2.5126 0.9002
25.9860 -3.1200 -2.5127 0.9002
26.0810 -2.1938 -2.5127 0.9002
26.1714 -0.3340 -2.5128 0.9002
26.1286 1.5275 -2.5128 0.9002
25.9531 3.3811 -2.5127 0.9002
25.8159 4.3021 -2.5126 0.9002
25.6458 5.2174 -2.5126 0.9002
25.4431 6.1262 -2.5125 0.9002
25.2081 7.0270 -2.5124 0.9002
24.9411 7.9188 -2.5123 0.9002
20.9434 10.1102 -2.2327 0.9108
20.1687 11.5720 -2.2324 0.9108
19.7427 12.2810 -2.2322 0.9108
19.2917 12.9744 -2.2320 0.9108
18.3171 14.3104 -2.2316 0.9108
12.6548 13.1747 -1.7538 0.9292
12.0102 14.4304 -1.8024 0.9273
11.1817 14.4509 -1.7542 0.9292
19.9712 -6.9068 -2.5102 0.9184
20.2050 -6.1922 -2.5103 0.9184
20.4133 -5.4698 -2.5103 0.9184
20.5955 -4.7404 -2.5104 0.9184
21.0613 -1.7716 -2.5106 0.9184
21.1342 -0.2697 -2.5106 0.9184
21.0997 1.2335 -2.5106 0.9184
20.9582 2.7304 -2.5106 0.9184
20.7101 4.2133 -2.5105 0.9184
20.5466 4.9472 -2.5104 0.9184
20.3570 5.6747 -2.5103 0.9184
18.6720 8.2081 -2.4228 0.9211
17.8682 8.6257 -2.3569 0.9232
17.2077 9.8731 -2.3566 0.9232
16.2250 10.0928 -2.2698 0.9259
15.5809 10.4788 -2.2304 0.9272
14.7943 11.5582 -2.2301 0.9272
13.9328 12.5787 -2.2297 0.9272
13.4429 13.0337 -2.2242 0.9274
12.5957 13.1131 -2.1598 0.9294
11.1817 14.4509 -2.1704 0.9290
16.5168 -6.3785 -2.5087 0.9310
16.7339 -5.7871 -2.5088 0.9310
17.2566 -3.9719 -2.5090 0.9310
17.3874 -3.3556 -2.5091 0.9310
17.4960 -2.7351 -2.5091 0.9310
17.5825 -2.1111 -2.5091 0.9310
17.7077 -0.2260 -2.5092 0.9310
17.7046 0.4040 -2.5092 0.9310
17.6789 1.0335 -2.5092 0.9310
17.6308 1.6617 -2.5092 0.9310
17.5603 2.2877 -2.5091 0.9310
17.2157 4.1452 -2.5090 0.9310
17.0569 4.7548 -2.5089 0.9310
16.8765 5.3583 -2.5088 0.9310
16.4516 6.5441 -2.5087 0.9310
16.2078 7.1249 -2.5086 0.9310
15.9434 7.6965 -2.5084 0.9310
15.5397 8.1955 -2.4893 0.9315
14.1148 8.7802 -2.3553 0.9350
13.7927 9.2761 -2.3551 0.9351
13.4532 9.7603 -2.3550 0.9351
12.0441 10.1197 -2.2289 0.9384
11.6757 10.5409 -2.2288 0.9384
11.2925 10.9488 -2.2286 0.9384
10.8951 11.3427 -2.2284 0.9384
10.0595 12.0866 -2.2281 0.9384
9.6225 12.4358 -2.2279 0.9385
14.2003 -5.4839 -2.5077 0.9402
14.3868 -4.9755 -2.5078 0.9402
14.5551 -4.4607 -2.5079 0.9402
14.7049 -3.9403 -2.5079 0.9402
14.9484 -2.8849 -2.5080 0.9401
15.0418 -2.3514 -2.5081 0.9401
15.2071 -0.7357 -2.5081 0.9401
15.2237 -0.1943 -2.5081 0.9401
15.2210 0.3473 -2.5081 0.9401
15.1576 1.4286 -2.5081 0.9401
15.0174 2.5025 -2.5081 0.9401
14.9186 3.0351 -2.5080 0.9401
14.8009 3.5637 -2.5080 0.9401
14.3359 5.1198 -2.5078 0.9402
13.4628 7.1002 -2.5074 0.9402
13.2012 7.5743 -2.5073 0.9402
12.9228 8.0387 -2.5072 0.9402
11.5669 8.3918 -2.3542 0.9437
10.6053 9.5746 -2.3538 0.9437
12.4422 -4.8049 -2.5070 0.9472
12.8843 -3.4524 -2.5072 0.9472
12.9991 -2.9920 -2.5072 0.9472
13.1793 -2.0603 -2.5073 0.9472
13.3242 -0.6446 -2.5073 0.9472
13.3387 -0.1702 -2.5073 0.9472
13.2808 1.2517 -2.5073 0.9472
13.1579 2.1927 -2.5073 0.9472
12.5610 4.4859 -2.5070 0.9472
12.2096 5.3673 -2.5069 0.9472
12.0105 5.7980 -2.5068 0.9472
11.7962 6.2213 -2.5067 0.9472
11.3232 7.0436 -2.5065 0.9472
10.4868 8.1929 -2.5013 0.9473
9.7733 8.2117 -2.3994 0.9494
8.6720 9.0282 -2.3530 0.9503
8.3448 9.3304 -2.3528 0.9503
7.3020 10.1644 -2.3524 0.9503
11.0611 -4.2716 -2.5064 0.9527
11.2064 -3.8755 -2.5064 0.9527
11.3374 -3.4746 -2.5065 0.9527
11.7163 -1.8316 -2.5067 0.9527
11.7741 -1.4137 -2.5067 0.9527
11.8206 0.2697 -2.4993 0.9528
11.6204 2.3641 -2.5066 0.9527
11.5287 2.7759 -2.5066 0.9527
11.3887 3.1747 -2.4991 0.9528
11.3018 3.5883 -2.5065 0.9527
11.1667 3.9880 -2.5064 0.9527
10.6775 5.1544 -2.5062 0.9527
10.0665 6.2620 -2.5060 0.9527
9.8371 6.6158 -2.5059 0.9527
9.5951 6.9612 -2.5058 0.9527
9.0752 7.6251 -2.5055 0.9527
8.7978 7.9427 -2.5054 0.9527
7.8863 8.2103 -2.4064 0.9545
7.4191 8.2953 -2.3524 0.9555
6.8098 8.8008 -2.3522 0.9555
10.0771 -3.4850 -2.5060 0.9571
10.1949 -3.1244 -2.5060 0.9571
10.2997 -2.7599 -2.5061 0.9571
10.5355 -1.6470 -2.5062 0.9571
10.5875 -1.2712 -2.5062 0.9571
10.6261 -0.8938 -2.5062 0.9571
10.6609 0.2433 -2.5062 0.9571
10.5742 1.3776 -2.5062 0.9571
10.3669 2.4961 -2.5061 0.9571
10.1629 3.2267 -2.5060 0.9571
9.9073 3.9409 -2.5059 0.9571
9.6016 4.6351 -2.5058 0.9571
8.8460 5.9492 -2.5054 0.9571
8.6285 6.2599 -2.5054 0.9571
8.4000 6.5626 -2.5053 0.9571
8.1609 6.8570 -2.5052 0.9571
7.3830 7.6863 -2.5048 0.9572
7.1046 7.9437 -2.5047 0.9572
6.8173 8.1910 -2.5046 0.9572
9.0272 -3.4861 -2.5055 0.9608
9.1457 -3.1629 -2.5056 0.9608
9.2525 -2.8356 -2.5056 0.9608
9.3477 -2.5048 -2.5057 0.9608
9.4310 -2.1707 -2.5057 0.9608
9.5023 -1.8339 -2.5057 0.9608
9.5617 -1.4947 -2.5057 0.9608
9.6088 -1.1537 -2.5058 0.9608
9.6439 -0.8112 -2.5058 0.9608
9.6772 -0.1235 -2.5058 0.9608
9.6754 0.2208 -2.5058 0.9608
9.6615 0.5648 -2.5058 0.9608
9.6352 0.9081 -2.5058 0.9608
9.5967 1.2503 -2.5058 0.9608
9.5461 1.5908 -2.5057 0.9608
9.3220 2.5986 -2.5056 0.9608
9.2235 2.9285 -2.5056 0.9608
8.2158 5.1106 -2.5052 0.9608
8.0285 5.3995 -2.5051 0.9608
7.8311 5.6814 -2.5050 0.9608
7.6238 5.9562 -2.5049 0.9608
7.4068 6.2234 -2.5048 0.9608
6.9451 6.7337 -2.5046 0.9608
6.4483 7.2098 -2.5044 0.9608
6.1874 7.4343 -2.5043 0.9608
5.9188 7.6493 -2.5042 0.9608
8.4613 -2.5931 -2.5053 0.9639
8.6245 -1.9851 -2.5054 0.9639
8.6897 -1.6771 -2.5054 0.9639
8.7871 -1.0550 -2.5054 0.9639
8.8191 -0.7418 -2.5054 0.9639
8.8399 -0.4276 -2.5054 0.9639
8.8480 0.2019 -2.5054 0.9639
8.8352 0.5165 -2.5054 0.9639
8.8112 0.8304 -2.5054 0.9639
8.7760 1.1433 -2.5054 0.9639
8.7297 1.4547 -2.5054 0.9639
8.6724 1.7643 -2.5054 0.9639
8.6040 2.0717 -2.5053 0.9639
8.2227 3.2708 -2.5052 0.9639
7.9690 3.8470 -2.5051 0.9639
7.8270 4.1279 -2.5050 0.9639
7.5133 4.6737 -2.5049 0.9639
7.1616 5.1957 -2.5047 0.9639
6.9720 5.4469 -2.5047 0.9639
6.7736 5.6913 -2.5046 0.9639
6.5666 5.9284 -2.5045 0.9639
5.8971 6.5935 -2.5042 0.9639
7.5972 -2.9339 -2.5049 0.9665
7.6969 -2.6618 -2.5050 0.9665
7.7868 -2.3864 -2.5050 0.9665
7.9369 -1.8268 -2.5051 0.9665
8.0469 -1.2579 -2.5051 0.9665
8.0866 -0.9709 -2.5051 0.9665
8.1352 -0.3936 -2.5051 0.9665
8.1441 -0.1039 -2.5051 0.9665
8.1309 0.4753 -2.5051 0.9665
8.0764 1.0522 -2.5051 0.9665
7.7624 2.4646 -2.5050 0.9665
7.2031 3.7989 -2.5048 0.9665
7.0632 4.0526 -2.5047 0.9665
6.9144 4.3012 -2.5046 0.9665
6.5908 4.7816 -2.5045 0.9665
6.4164 5.0129 -2.5044 0.9665
5.6398 5.8714 -2.5041 0.9665
5.4272 6.0681 -2.5040 0.9665
4.7493 6.6110 -2.5037 0.9665
7.1213 -2.4628 -2.5047 0.9687
7.2045 -2.2080 -2.5048 0.9687
7.2786 -1.9503 -2.5048 0.9687
7.3990 -1.4279 -2.5048 0.9687
7.4451 -1.1639 -2.5049 0.9687
7.5228 0.4398 -2.5049 0.9687
6.8978 3.0322 -2.5046 0.9687
6.7854 3.2756 -2.5046 0.9687
6.6645 3.5148 -2.5045 0.9687
6.5351 3.7496 -2.5045 0.9687
6.3975 3.9796 -2.5044 0.9687
6.0980 4.4241 -2.5043 0.9687
5.7677 4.8462 -2.5041 0.9687
4.8184 5.7894 -2.5037 0.9687
4.6093 5.9569 -2.5037 0.9688
6.5332 -2.5230 -2.5045 0.9707
6.6962 -2.0522 -2.5045 0.9707
6.7651 -1.8127 -2.5046 0.9707
6.8770 -1.3272 -2.5046 0.9707
6.9198 -1.0818 -2.5046 0.9707
6.9540 -0.8349 -2.5046 0.9707
6.9793 -0.5871 -2.5047 0.9707
6.9958 -0.3384 -2.5047 0.9707
6.9086 1.1513 -2.5046 0.9707
6.8632 1.3963 -2.5046 0.9707
6.5075 2.5885 -2.5045 0.9707
6.3067 3.0445 -2.5044 0.9707
6.1943 3.2669 -2.5043 0.9707
6.0741 3.4851 -2.5043 0.9707
5.9462 3.6988 -2.5042 0.9707
5.5179 4.3109 -2.5040 0.9707
4.8501 5.0494 -2.5038 0.9707
4.6673 5.2185 -2.5037 0.9707
4.4786 5.3811 -2.5036 0.9707
4.2842 5.5368 -2.5035 0.9707
4.0844 5.6855 -2.5034 0.9707
6.0961 -2.3542 -2.5043 0.9724
6.3125 -1.6914 -2.5044 0.9724
6.3687 -1.4658 -2.5044 0.9724
6.4169 -1.2384 -2.5044 0.9724
6.4569 -1.0094 -2.5044 0.9724
6.5337 0.1491 -2.5045 0.9724
6.5242 0.3814 -2.5045 0.9724
6.5065 0.6132 -2.5045 0.9724
6.1543 2.1979 -2.5043 0.9724
5.7800 3.0483 -2.5041 0.9724
5.2887 3.8370 -2.5039 0.9724
5.1488 4.0226 -2.5039 0.9724
5.0023 4.2031 -2.5038 0.9724
4.6906 4.5478 -2.5037 0.9724
4.5257 4.7117 -2.5036 0.9724
3.9977 5.1665 -2.5034 0.9724
3.8113 5.3053 -2.5033 0.9724
5.7076 -2.2042 -2.5041 0.9739
5.9102 -1.5836 -2.5042 0.9739
6.0079 -1.1595 -2.5042 0.9739
6.0454 -0.9450 -2.5043 0.9739
6.0752 -0.7294 -2.5043 0.9739
6.0973 -0.5129 -2.5043 0.9739
6.1117 -0.2957 -2.5043 0.9739
6.0676 0.7905 -2.5043 0.9739
6.0356 1.0058 -2.5043 0.9739
5.9487 1.4323 -2.5042 0.9739
5.8939 1.6430 -2.5042 0.9739
5.4117 2.8541 -2.5040 0.9739
5.3066 3.0447 -2.5039 0.9739
4.9518 3.5925 -2.5038 0.9739
4.8207 3.7662 -2.5037 0.9739
4.5405 4.0992 -2.5036 0.9739
4.3918 4.2581 -2.5036 0.9739
4.2374 4.4115 -2.5035 0.9739
4.0777 4.5593 -2.5034 0.9739
3.9128 4.7013 -2.5034 0.9739
3.5685 4.9673 -2.5032 0.9739
5.3597 -2.0698 -2.5040 0.9752
5.4300 -1.8779 -2.5040 0.9752
5.6769 -0.8874 -2.5041 0.9752
5.7048 -0.6850 -2.5041 0.9752
5.7256 -0.4816 -2.5041 0.9752
5.7454 -0.0733 -2.5041 0.9752
5.7205 0.5391 -2.5041 0.9752
5.6977 0.7423 -2.5041 0.9752
5.6676 0.9445 -2.5041 0.9752
5.6304 1.1455 -2.5041 0.9752
5.5346 1.5428 -2.5040 0.9752
5.4762 1.7387 -2.5040 0.9752
5.3386 2.1236 -2.5040 0.9752
5.0818 2.6801 -2.5039 0.9752
4.9832 2.8591 -2.5038 0.9752
4.7671 3.2061 -2.5037 0.9752
4.6500 3.3735 -2.5037 0.9752
4.3982 3.6954 -2.5036 0.9752
4.2638 3.8494 -2.5035 0.9752
3.9792 4.1426 -2.5034 0.9752
3.6744 4.4148 -2.5033 0.9752
3.5149 4.5426 -2.5032 0.9752
5.1122 -1.7680 -2.5039 0.9764
5.1719 -1.5850 -2.5039 0.9764
5.2716 -1.2133 -2.5039 0.9764
5.3710 -0.6449 -2.5040 0.9764
5.4081 0.1234 -2.5040 0.9764
5.4003 0.3157 -2.5040 0.9764
5.3642 0.6988 -2.5040 0.9764
5.3009 1.0784 -2.5039 0.9764
5.2107 1.4525 -2.5039 0.9764
5.0942 1.8193 -2.5039 0.9764
4.8712 2.3515 -2.5038 0.9764
4.7844 2.5233 -2.5037 0.9764
4.5927 2.8569 -2.5036 0.9764
4.4881 3.0184 -2.5036 0.9764
4.3778 3.1761 -2.5036 0.9764
4.1408 3.4792 -2.5035 0.9764
4.0143 3.6242 -2.5034 0.9764
3.6052 4.0309 -2.5032 0.9764
3.4594 4.1565 -2.5032 0.9764
3.3093 4.2768 -2.5031 0.9764
3.1550 4.3917 -2.5030 0.9764
4.8239 -1.6683 -2.5037 0.9775
4.8803 -1.4956 -2.5038 0.9775
4.9304 -1.3211 -2.5038 0.9775
5.0432 -0.7884 -2.5038 0.9775
5.0985 -0.2467 -2.5039 0.9775
5.1041 -0.0651 -2.5039 0.9775
5.0958 0.2979 -2.5039 0.9775
5.0820 0.4790 -2.5039 0.9775
5.0617 0.6594 -2.5038 0.9775
5.0350 0.8391 -2.5038 0.9775
4.9169 1.3706 -2.5038 0.9775
4.8069 1.7167 -2.5037 0.9775
4.7427 1.8866 -2.5037 0.9775
4.5965 2.2189 -2.5036 0.9775
4.4270 2.5400 -2.5036 0.9775
4.3338 2.6958 -2.5035 0.9775
3.9073 3.2830 -2.5034 0.9775
3.6639 3.5523 -2.5033 0.9775
3.5351 3.6803 -2.5032 0.9775
3.1227 4.0357 -2.5030 0.9775
2.9771 4.1441 -2.5030 0.9775
4.5610 -1.5773 -2.5036 0.9785
4.6617 -1.2491 -2.5037 0.9785
4.7387 -0.9145 -2.5037 0.9785
4.7683 -0.7454 -2.5037 0.9785
4.7918 -0.5753 -2.5037 0.9785
4.8093 -0.4045 -2.5037 0.9785
4.8206 -0.2332 -2.5037 0.9785
4.8259 -0.0616 -2.5037 0.9785
4.8250 0.1101 -2.5037 0.9785
4.8049 0.4529 -2.5037 0.9785
4.7605 0.7933 -2.5037 0.9785
4.7293 0.9621 -2.5037 0.9785
4.6920 1.1297 -2.5037 0.9785
4.6489 1.2959 -2.5037 0.9785
4.5998 1.4604 -2.5036 0.9785
4.5449 1.6231 -2.5036 0.9785
4.4842 1.7837 -2.5036 0.9785
4.3459 2.0980 -2.5035 0.9785
4.0975 2.5489 -2.5034 0.9785
3.9058 2.8337 -2.5034 0.9785
3.2165 3.5964 -2.5031 0.9785
3.0865 3.7084 -2.5030 0.9785
2.9526 3.8158 -2.5030 0.9785
4.2640 -1.6467 -2.5035 0.9794
4.4883 -0.8662 -2.5036 0.9794
4.5163 -0.7060 -2.5036 0.9794
4.5386 -0.5449 -2.5036 0.9794
4.5700 0.1043 -2.5036 0.9794
4.5634 0.2668 -2.5036 0.9794
4.5329 0.5905 -2.5036 0.9794
4.4793 0.9113 -2.5036 0.9794
4.4441 1.0700 -2.5036 0.9794
4.4032 1.2274 -2.5036 0.9794
4.3047 1.5373 -2.5035 0.9794
4.2472 1.6895 -2.5035 0.9794
4.1844 1.8395 -2.5035 0.9794
4.1163 1.9871 -2.5034 0.9794
4.0430 2.1322 -2.5034 0.9794
3.6995 2.6839 -2.5033 0.9794
3.6016 2.8138 -2.5032 0.9794
3.4992 2.9400 -2.5032 0.9794
3.3923 3.0626 -2.5031 0.9794
3.2812 3.1813 -2.5031 0.9794
2.9234 3.5125 -2.5029 0.9794
2.6662 3.7113 -2.5028 0.9794
4.0449 -1.5621 -2.5034 0.9802
4.0979 -1.4172 -2.5034 0.9802
4.1458 -1.2706 -2.5035 0.9802
4.2576 -0.8217 -2.5035 0.9802
4.3053 -0.5169 -2.5035 0.9802
4.3210 -0.3635 -2.5035 0.9802
4.3359 -0.0553 -2.5035 0.9802
4.3352 0.0989 -2.5035 0.9802
4.2999 0.5602 -2.5035 0.9802
4.2492 0.8645 -2.5035 0.9802
4.2157 1.0150 -2.5035 0.9802
4.1328 1.3122 -2.5035 0.9802
3.9694 1.7449 -2.5034 0.9802
3.7608 2.1578 -2.5033 0.9802
3.1126 3.0178 -2.5030 0.9802
3.0032 3.1266 -2.5030 0.9802
2.7732 3.3320 -2.5029 0.9802
2.5292 3.5206 -2.5028 0.9802
