ply
format ascii 1.0
element vertex 753
property float32 x
property float32 y
property float32 z
property float32 I
end_header
8.9244 14.5020 3.0025 0.9332
8.2347 14.5190 2.9432 0.9345
6.9301 14.5512 2.8419 0.9366
6.3093 14.5665 2.7990 0.9376
4.2717 10.9158 2.0669 0.9535
5.2705 16.9447 3.1290 0.9305
5.4323 19.9516 3.6461 0.9194
5.6486 28.6941 5.1567 0.8880
-1.6441 17.9261 3.1741 0.9295
-1.8886 14.7687 2.6253 0.9413
-3.5360 14.8094 2.6847 0.9400
-4.1042 14.8234 2.7121 0.9394
-5.8916 14.8675 2.8199 0.9371
-7.8504 14.9158 2.9721 0.9338
-8.5543 14.9332 3.0346 0.9325
9.6433 14.4842 2.6657 0.9320
7.5710 14.5354 2.5107 0.9358
6.9301 14.5512 2.4691 0.9369
6.3093 14.5665 2.4318 0.9378
4.2713 10.9148 1.7956 0.9537
5.4320 19.9508 3.1676 0.9197
5.6483 28.6925 4.4799 0.8884
7.3223 45.7683 7.1006 0.8290
-0.9197 45.9717 7.0440 0.8302
-1.8886 14.7687 2.2809 0.9415
-2.4298 14.7821 2.2949 0.9412
-2.9784 14.7956 2.3121 0.9408
-5.8916 14.8675 2.4499 0.9373
-6.5221 14.8831 2.4893 0.9364
-7.1741 14.8992 2.5333 0.9353
-8.5543 14.9332 2.6364 0.9327
-10.3812 9.9613 2.2041 0.9434
-30.9015 23.8629 5.9811 0.8539
9.6433 14.4842 2.2659 0.9322
8.9244 14.5020 2.2174 0.9336
7.5710 14.5354 2.1342 0.9360
6.3093 14.5665 2.0671 0.9380
4.2709 10.9138 1.5262 0.9538
5.3132 15.1508 2.0907 0.9373
7.3223 45.7683 6.0358 0.8295
5.9488 48.1548 6.3184 0.8222
-0.9197 45.9717 5.9877 0.8307
-1.4722 26.3880 3.4416 0.8989
-1.6881 18.4056 2.4069 0.9282
-2.4298 14.7821 1.9508 0.9414
-3.5359 14.8094 1.9827 0.9404
-4.6849 14.8377 2.0262 0.9392
-5.2800 14.8524 2.0527 0.9384
-5.8916 14.8675 2.0825 0.9375
-7.1741 14.8991 2.1534 0.9355
-7.8504 14.9158 2.1950 0.9343
-30.7966 36.6483 6.2337 0.8244
-10.3813 9.9614 1.8736 0.9436
-30.8274 27.5342 5.3825 0.8464
-30.8608 25.6423 5.2249 0.8506
9.6433 14.4842 1.8685 0.9324
8.2347 14.5190 1.7924 0.9351
7.5710 14.5354 1.7599 0.9362
4.2706 10.9128 1.2584 0.9539
5.3130 15.1503 1.7240 0.9375
5.4316 19.9492 2.2202 0.9202
5.6476 28.6892 3.1398 0.8890
-0.9197 45.9716 4.9375 0.8311
-1.6883 18.4071 1.9849 0.9283
-2.4298 14.7821 1.6086 0.9415
-2.9784 14.7956 1.6207 0.9411
-3.5359 14.8094 1.6350 0.9406
-4.1042 14.8234 1.6516 0.9400
-4.6849 14.8377 1.6708 0.9393
-5.2800 14.8524 1.6927 0.9386
-5.8916 14.8675 1.7173 0.9377
-7.1741 14.8991 1.7757 0.9356
-8.5543 14.9332 1.8480 0.9331
-30.7962 36.6479 5.1403 0.8248
-30.8030 31.7470 4.7500 0.8370
-10.3814 9.9615 1.5450 0.9438
-30.8609 25.6423 4.3086 0.8509
-30.9017 23.8630 4.1925 0.8546
8.9244 14.5020 1.4415 0.9339
8.2347 14.5190 1.4130 0.9352
6.9046 14.4978 1.3594 0.9376
6.3093 14.5665 1.3438 0.9383
4.2702 10.9118 0.9919 0.9541
5.3128 15.1498 1.3590 0.9376
5.5208 23.5682 2.0491 0.9074
-1.4854 26.6248 2.2574 0.8985
-1.6884 18.4087 1.5649 0.9285
-2.9784 14.7956 1.2776 0.9412
-3.5574 14.8991 1.2967 0.9404
-5.2800 14.8524 1.3344 0.9387
-7.8504 14.9158 1.4269 0.9346
-8.5543 14.9332 1.4569 0.9332
-10.5898 14.6040 1.5271 0.9301
-30.8214 34.1247 3.8926 0.8314
-30.8275 27.5343 3.4990 0.8471
9.6433 14.4842 1.0790 0.9326
8.2347 14.5190 1.0351 0.9353
6.9721 14.6393 1.0055 0.9371
6.3093 14.5665 0.9844 0.9384
4.2698 10.9108 0.7265 0.9541
5.3127 15.1493 0.9955 0.9377
5.2705 16.9447 1.1004 0.9314
5.4312 19.9476 1.2820 0.9205
5.5205 23.5671 1.5010 0.9076
5.6470 28.6859 1.8130 0.8894
5.9488 48.1548 3.0088 0.8233
-1.6441 17.9261 1.1163 0.9304
-1.8886 14.7687 0.9233 0.9421
-2.4298 14.7821 0.9289 0.9417
-2.9784 14.7956 0.9359 0.9413
-4.6849 14.8377 0.9649 0.9395
-6.5221 14.8831 1.0076 0.9370
-7.2176 14.9894 1.0316 0.9355
-8.5543 14.9332 1.0672 0.9334
-9.2631 13.7851 1.0299 0.9356
-10.0750 13.8941 1.0643 0.9335
-10.9073 13.9637 1.0988 0.9315
-30.7955 36.6471 2.9683 0.8254
-30.8054 31.7494 2.7432 0.8375
-30.8610 25.6424 2.4881 0.8515
-30.9019 23.8631 2.4211 0.8552
9.6433 14.4842 0.6861 0.9327
8.2347 14.5190 0.6582 0.9354
6.3093 14.5665 0.6259 0.9384
4.2694 10.9099 0.4620 0.9542
5.5429 23.6625 0.9583 0.9073
7.3223 45.7683 1.8276 0.8307
6.0051 48.6103 1.9313 0.8220
-0.8780 43.8884 1.7309 0.8388
-1.4857 26.6311 1.0517 0.8987
-1.6441 17.9261 0.7098 0.9305
-2.4298 14.7821 0.5907 0.9418
-2.9784 14.7956 0.5951 0.9414
-3.5574 14.8991 0.6040 0.9405
-4.6849 14.8377 0.6135 0.9396
-7.8504 14.9158 0.6646 0.9348
-8.5543 14.9332 0.6786 0.9334
-9.6062 13.2475 0.6452 0.9366
-30.7952 36.6466 1.8875 0.8256
-30.8065 31.7505 1.7444 0.8377
-30.8610 25.6425 1.5821 0.8516
8.9244 14.5020 0.2876 0.9341
8.2347 14.5190 0.2820 0.9354
6.9721 14.6393 0.2739 0.9372
6.3093 14.5665 0.2681 0.9385
4.2690 10.9089 0.1979 0.9542
5.3123 15.1484 0.2712 0.9378
5.2705 16.9447 0.2998 0.9315
5.5429 23.6625 0.4105 0.9074
3.9009 24.3829 0.4171 0.9059
2.1336 24.4102 0.4139 0.9066
1.2578 24.4237 0.4131 0.9068
-0.4820 24.0920 0.4070 0.9081
-1.3453 24.1133 0.4080 0.9079
-1.6441 17.9261 0.3041 0.9305
-1.8886 14.7687 0.2515 0.9422
-2.9784 14.7956 0.2549 0.9414
-4.6848 14.8377 0.2628 0.9396
-5.2800 14.8524 0.2663 0.9389
-5.8916 14.8675 0.2701 0.9380
-6.5221 14.8830 0.2745 0.9371
-7.2176 14.9894 0.2810 0.9356
-7.8504 14.9158 0.2847 0.9348
-26.2423 36.1899 0.7551 0.8362
-28.3533 36.2983 0.7780 0.8317
-29.9543 35.6460 0.7865 0.8300
-30.8077 31.7517 0.7473 0.8378
-10.3819 9.9619 0.2430 0.9441
-30.8277 27.5345 0.6982 0.8476
9.6433 14.4842 -0.0980 0.9328
8.9244 14.5019 -0.0959 0.9342
8.2347 14.5190 -0.0940 0.9354
6.9046 14.4978 -0.0904 0.9378
6.3093 14.5665 -0.0894 0.9385
4.2686 10.9079 -0.0659 0.9542
5.3122 15.1479 -0.0904 0.9378
5.2705 16.9447 -0.0999 0.9315
5.4305 19.9452 -0.1164 0.9206
4.7969 24.3674 -0.1398 0.9054
3.9007 24.3813 -0.1390 0.9060
3.0137 24.3950 -0.1384 0.9064
1.2577 24.4221 -0.1377 0.9068
0.3657 23.2508 -0.1309 0.9112
-0.4655 23.2714 -0.1310 0.9111
-1.6133 17.5896 -0.0994 0.9318
-2.4298 14.7821 -0.0843 0.9418
-2.9784 14.7956 -0.0850 0.9414
-3.5230 14.7550 -0.0854 0.9411
-4.0891 14.7690 -0.0863 0.9405
-4.6849 14.8377 -0.0876 0.9397
-5.2800 14.8524 -0.0887 0.9389
-6.5221 14.8830 -0.0915 0.9371
-7.1478 14.8445 -0.0928 0.9362
-7.8504 14.9158 -0.0949 0.9348
-10.6116 17.0796 -0.1132 0.9227
-10.6423 15.8374 -0.1075 0.9265
-22.8569 31.5212 -0.2192 0.8558
-24.5557 31.4366 -0.2246 0.8525
-29.7084 30.6188 -0.2402 0.8431
-30.8611 25.6425 -0.2259 0.8517
-30.9021 23.8633 -0.2198 0.8554
8.9244 14.5019 -0.4795 0.9341
7.5710 14.5353 -0.4615 0.9365
6.9301 14.5512 -0.4538 0.9375
6.3093 14.5665 -0.4470 0.9385
5.3120 15.1475 -0.4520 0.9378
5.3637 17.2443 -0.5085 0.9303
4.7966 24.3658 -0.6993 0.9054
3.0135 24.3934 -0.6921 0.9063
1.2577 24.4205 -0.6885 0.9068
0.3463 22.0209 -0.6201 0.9156
-0.4409 22.0404 -0.6207 0.9156
-1.6891 18.4162 -0.5207 0.9287
-1.8886 14.7687 -0.4192 0.9422
-2.4298 14.7821 -0.4218 0.9418
-2.9784 14.7956 -0.4250 0.9414
-3.5359 14.8094 -0.4287 0.9409
-5.2800 14.8524 -0.4439 0.9389
-22.7449 27.0667 -0.9955 0.8681
-24.3005 26.9050 -1.0209 0.8650
-25.9331 26.7278 -1.0486 0.8615
-10.3821 9.9621 -0.4052 0.9440
-30.4225 25.2781 -1.1138 0.8536
8.9244 14.5019 -0.8636 0.9341
6.3093 14.5665 -0.8050 0.9384
4.2679 10.9059 -0.5939 0.9542
5.3118 15.1470 -0.8140 0.9377
5.4301 19.9436 -1.0482 0.9205
3.9001 24.3781 -1.2520 0.9059
3.0133 24.3918 -1.2464 0.9063
2.1332 24.4054 -1.2424 0.9065
1.2576 24.4189 -1.2400 0.9067
-0.4245 21.2197 -1.0764 0.9185
-1.6892 18.4177 -0.9380 0.9286
-1.8886 14.7687 -0.7551 0.9421
-3.5359 14.8094 -0.7722 0.9408
-4.6849 14.8377 -0.7891 0.9396
-5.8916 14.8675 -0.8110 0.9380
-6.5221 14.8830 -0.8241 0.9370
-7.8504 14.9158 -0.8548 0.9347
-10.0699 14.9856 -0.9156 0.9302
-18.3140 23.4460 -1.5088 0.8877
-20.7343 22.9566 -1.5688 0.8835
-22.0060 22.6804 -1.6027 0.8811
-24.5069 21.8889 -1.6664 0.8767
-26.0803 21.6702 -1.7196 0.8730
9.6433 14.4842 -1.2759 0.9326
8.9243 14.5019 -1.2485 0.9340
8.2347 14.5190 -1.2239 0.9352
7.5709 14.5353 -1.2017 0.9364
6.9301 14.5511 -1.1817 0.9374
6.3093 14.5665 -1.1639 0.9383
5.3117 15.1465 -1.1769 0.9377
5.3633 17.2431 -1.3240 0.9301
5.4299 19.9428 -1.5155 0.9204
2.1330 24.4038 -1.7962 0.9064
0.3336 21.2109 -1.5554 0.9184
-0.4163 20.8094 -1.5261 0.9199
-1.6893 18.4192 -1.3562 0.9285
-1.8886 14.7687 -1.0917 0.9420
-2.4298 14.7821 -1.0984 0.9417
-2.9784 14.7956 -1.1066 0.9413
-3.5360 14.8093 -1.1164 0.9408
-6.5221 14.8830 -1.1914 0.9369
-7.1741 14.8991 -1.2125 0.9358
-7.8504 14.9158 -1.2359 0.9346
-8.5543 14.9332 -1.2619 0.9333
-9.8754 14.6962 -1.2982 0.9314
-17.5569 19.4386 -1.9206 0.9003
-21.7405 18.0642 -2.0725 0.8928
-22.7743 17.5868 -2.1098 0.8910
8.9243 14.5019 -1.6348 0.9339
8.2347 14.5189 -1.6025 0.9351
7.5710 14.5353 -1.5734 0.9363
6.9301 14.5511 -1.5473 0.9373
5.3115 15.1461 -1.5409 0.9375
3.6618 22.8886 -2.2254 0.9111
2.8415 23.0013 -2.2250 0.9111
2.0177 23.0845 -2.2247 0.9111
1.1916 23.1383 -2.2243 0.9111
0.3339 21.2335 -2.0388 0.9182
-1.1161 20.0064 -1.9237 0.9226
-1.6895 18.4207 -1.7759 0.9284
-1.8886 14.7687 -1.4294 0.9419
-2.4298 14.7821 -1.4382 0.9416
-4.1042 14.8234 -1.4767 0.9401
-5.2800 14.8524 -1.5133 0.9386
-8.5543 14.9332 -1.6522 0.9332
-9.0175 13.4196 -1.5522 0.9371
-15.1692 16.7950 -2.1727 0.9131
-15.9383 16.4267 -2.1974 0.9121
-17.4896 15.6212 -2.2513 0.9101
-18.2413 15.1567 -2.2769 0.9091
8.9244 14.5019 -2.0227 0.9337
4.2637 10.8954 -1.3898 0.9540
5.3113 15.1456 -1.9065 0.9374
2.2963 18.5881 -2.2248 0.9273
0.2944 18.7200 -2.2240 0.9274
-1.6896 18.4223 -2.1975 0.9282
-2.4298 14.7821 -1.7795 0.9414
-3.5359 14.8094 -1.8086 0.9405
-4.1042 14.8234 -1.8271 0.9399
-5.2800 14.8524 -1.8724 0.9385
-6.5221 14.8830 -1.9302 0.9366
-7.1741 14.8991 -1.9643 0.9356
-9.0176 13.4196 -1.9205 0.9369
-9.9072 13.6627 -2.0047 0.9343
-11.8590 14.1123 -2.1896 0.9284
-12.4341 13.7668 -2.2036 0.9280
-13.0049 13.4034 -2.2184 0.9275
-10.3825 9.9625 -1.7092 0.9437
-14.8927 13.3018 -2.3719 0.9227
-15.4971 12.8766 -2.3934 0.9220
8.7124 13.0860 -2.2275 0.9385
8.2386 13.3877 -2.2273 0.9385
7.7545 13.6722 -2.2271 0.9385
6.7572 14.1883 -2.2267 0.9385
6.2455 14.4192 -2.2265 0.9385
4.2339 10.8190 -1.6461 0.9541
5.1990 14.8254 -2.2260 0.9385
4.6657 15.0001 -2.2258 0.9385
4.1265 15.1556 -2.2256 0.9385
2.4806 15.5053 -2.2249 0.9385
1.3670 15.6395 -2.2244 0.9385
0.2468 15.6939 -2.2239 0.9386
-0.3139 15.6910 -2.2237 0.9386
-2.9784 14.7956 -2.1384 0.9408
-4.1042 14.8234 -2.1793 0.9398
-5.2520 14.7737 -2.2216 0.9386
-6.8004 14.1229 -2.2210 0.9386
-7.7899 13.5988 -2.2206 0.9386
-8.2699 13.3107 -2.2204 0.9387
-9.6440 12.3463 -2.2198 0.9387
-10.0780 11.9930 -2.2196 0.9387
-13.3848 11.1214 -2.4657 0.9321
-13.8426 10.6896 -2.4781 0.9318
7.4916 11.2525 -2.2270 0.9467
7.0844 11.5120 -2.2268 0.9467
6.6681 11.7568 -2.2266 0.9467
6.2434 11.9865 -2.2265 0.9467
5.8107 12.2009 -2.2263 0.9467
4.4710 12.7493 -2.2257 0.9467
4.0124 12.8997 -2.2255 0.9467
3.0806 13.1510 -2.2251 0.9467
2.6086 13.2514 -2.2249 0.9467
2.1334 13.3350 -2.2247 0.9467
1.1757 13.4508 -2.2243 0.9467
-1.2326 13.4395 -2.2233 0.9468
-1.7118 13.3857 -2.2231 0.9468
-2.1886 13.3148 -2.2229 0.9468
-2.6626 13.2270 -2.2227 0.9468
-3.1331 13.1222 -2.2225 0.9468
-3.5996 13.0008 -2.2223 0.9468
-4.0613 12.8628 -2.2221 0.9468
-4.5178 12.7084 -2.2219 0.9468
-5.4127 12.3513 -2.2216 0.9468
-5.8499 12.1491 -2.2214 0.9468
-6.7013 11.6985 -2.2210 0.9468
-8.2967 10.6216 -2.2203 0.9468
-9.3580 10.3609 -2.3000 0.9450
-10.2822 9.8663 -2.3476 0.9439
6.2745 10.1959 -2.2502 0.9524
5.8434 10.3027 -2.2263 0.9529
5.0921 10.6921 -2.2260 0.9529
4.7066 10.8664 -2.2258 0.9529
4.1858 10.6963 -2.1590 0.9543
3.1100 11.4225 -2.2251 0.9530
2.6998 11.5254 -2.2250 0.9530
1.4510 11.7453 -2.2244 0.9530
0.6086 11.8170 -2.2241 0.9530
-0.2366 11.8284 -2.2237 0.9530
-0.6590 11.8115 -2.2236 0.9530
-1.5004 11.7324 -2.2232 0.9530
-2.7462 11.5019 -2.2227 0.9530
-3.5599 11.2747 -2.2223 0.9530
-4.3551 10.9901 -2.2220 0.9530
-4.7446 10.8268 -2.2218 0.9530
-5.5047 10.4589 -2.2215 0.9530
-5.9143 10.3246 -2.2365 0.9527
-6.4180 10.3299 -2.2859 0.9517
-7.6834 9.8365 -2.3461 0.9505
-9.0064 8.6421 -2.3461 0.9505
5.4885 9.6769 -2.3516 0.9555
5.1390 9.8662 -2.3515 0.9555
4.7830 10.0428 -2.3513 0.9555
4.4209 10.2066 -2.3512 0.9555
3.9994 10.2199 -2.3198 0.9561
3.5855 10.2243 -2.2903 0.9567
3.1815 10.2286 -2.2643 0.9572
1.2902 10.4437 -2.2244 0.9579
0.9162 10.4824 -2.2242 0.9579
0.5411 10.5077 -2.2241 0.9579
-0.2104 10.5180 -2.2237 0.9579
-0.5860 10.5030 -2.2236 0.9579
-2.0754 10.3096 -2.2230 0.9579
-2.8496 10.2922 -2.2574 0.9573
-3.2510 10.2965 -2.2824 0.9568
-5.8592 9.4305 -2.3468 0.9556
-6.1919 9.2146 -2.3467 0.9556
-6.5168 8.9870 -2.3466 0.9556
-6.8332 8.7480 -2.3464 0.9556
-7.4396 8.2369 -2.3462 0.9556
-8.5273 8.1824 -2.4981 0.9528
-8.8138 7.8722 -2.4980 0.9528
-9.0889 7.5520 -2.4979 0.9528
-9.3525 7.2222 -2.4978 0.9528
5.5452 8.3289 -2.3516 0.9597
4.9358 8.7026 -2.3514 0.9597
4.6216 8.8729 -2.3512 0.9597
3.9758 9.1791 -2.3510 0.9597
3.3099 9.4384 -2.3507 0.9597
2.2808 9.7366 -2.3503 0.9597
1.9314 9.8112 -2.3501 0.9597
1.2258 9.9228 -2.3498 0.9597
0.5141 9.9837 -2.3495 0.9598
-0.1999 9.9937 -2.3492 0.9598
-1.2677 9.9130 -2.3488 0.9598
-1.9720 9.7960 -2.3485 0.9598
-2.6660 9.6290 -2.3482 0.9598
-3.3463 9.4129 -2.3479 0.9598
-4.0093 9.1489 -2.3476 0.9598
-4.3333 8.9993 -2.3475 0.9598
-4.6517 8.8383 -2.3473 0.9598
-5.2703 8.4827 -2.3471 0.9598
-5.5697 8.2886 -2.3470 0.9598
-7.1262 7.8899 -2.4987 0.9573
-7.4031 7.6300 -2.4986 0.9573
-7.9283 7.0813 -2.4984 0.9573
-8.1758 6.7933 -2.4983 0.9573
5.3595 8.0499 -2.5040 0.9608
5.0427 8.1943 -2.4912 0.9610
4.6528 8.2034 -2.4419 0.9618
3.6087 8.3314 -2.3508 0.9632
3.3086 8.4546 -2.3507 0.9632
2.6962 8.6683 -2.3504 0.9632
2.3847 8.7586 -2.3503 0.9632
2.0702 8.8377 -2.3502 0.9632
1.7531 8.9055 -2.3500 0.9632
1.4338 8.9619 -2.3499 0.9632
1.1127 9.0069 -2.3498 0.9632
0.4667 9.0623 -2.3495 0.9632
-0.1815 9.0714 -2.3492 0.9632
-0.8286 9.0343 -2.3490 0.9632
-1.1507 8.9984 -2.3488 0.9632
-2.1064 8.8221 -2.3484 0.9632
-2.4201 8.7408 -2.3483 0.9632
-2.7306 8.6482 -2.3482 0.9632
-3.3407 8.4303 -2.3479 0.9632
-3.6395 8.3051 -2.3478 0.9632
-3.9573 8.2185 -2.3618 0.9630
-4.6982 8.2017 -2.4473 0.9617
-5.0898 8.1924 -2.4972 0.9609
-5.9418 7.6069 -2.4992 0.9609
-6.2095 7.3894 -2.4991 0.9609
-6.7207 6.9266 -2.4989 0.9609
-6.9635 6.6819 -2.4988 0.9609
-7.1975 6.4286 -2.4987 0.9609
-7.4222 6.1672 -2.4986 0.9609
-7.6375 5.8979 -2.4985 0.9609
4.3629 7.6924 -2.5035 0.9639
4.0851 7.8430 -2.5034 0.9639
3.8022 7.9835 -2.5033 0.9639
3.5144 8.1138 -2.5032 0.9639
3.2067 8.1942 -2.4910 0.9641
1.9240 8.2132 -2.3880 0.9655
1.6175 8.2164 -2.3706 0.9658
-0.1660 8.2968 -2.3492 0.9661
-0.4622 8.2851 -2.3491 0.9661
-1.3516 8.2224 -2.3589 0.9660
-3.2466 8.1930 -2.4948 0.9640
-4.3893 7.6624 -2.4999 0.9640
-4.6600 7.5004 -2.4997 0.9640
-4.9247 7.3288 -2.4996 0.9640
-5.9173 6.5515 -2.4992 0.9640
-6.1474 6.3357 -2.4991 0.9640
-6.3695 6.1119 -2.4990 0.9640
-6.7892 5.6411 -2.4988 0.9640
-6.9861 5.3948 -2.4988 0.9640
4.5110 6.7754 -2.5036 0.9665
4.0154 7.0796 -2.5034 0.9665
3.7597 7.2182 -2.5033 0.9665
3.2345 7.4676 -2.5031 0.9665
2.4167 7.7697 -2.5027 0.9665
2.1375 7.8507 -2.5026 0.9665
1.8556 7.9216 -2.5025 0.9665
1.2852 8.0331 -2.5022 0.9665
0.7083 8.1036 -2.5020 0.9665
0.4184 8.1233 -2.5019 0.9665
-0.7428 8.0985 -2.5014 0.9665
-1.0315 8.0664 -2.5013 0.9665
-2.1695 7.8358 -2.5008 0.9665
-2.4479 7.7529 -2.5007 0.9665
-2.9949 7.5577 -2.5004 0.9666
-3.2628 7.4455 -2.5003 0.9666
-3.5265 7.3239 -2.5002 0.9666
-4.2893 6.9037 -2.4999 0.9666
-4.5329 6.7458 -2.4998 0.9666
-5.2280 6.2214 -2.4995 0.9666
-5.4467 6.0305 -2.4994 0.9666
-5.6584 5.8318 -2.4993 0.9666
-6.0600 5.4126 -2.4992 0.9666
4.1738 6.2690 -2.5035 0.9688
3.9471 6.4139 -2.5034 0.9688
2.9928 6.9095 -2.5030 0.9688
2.4916 7.1050 -2.5028 0.9688
2.2362 7.1891 -2.5026 0.9688
1.9779 7.2641 -2.5025 0.9688
1.7170 7.3298 -2.5024 0.9688
1.4540 7.3861 -2.5023 0.9688
0.9229 7.4704 -2.5021 0.9688
0.3871 7.5166 -2.5019 0.9688
-0.4192 7.5138 -2.5015 0.9688
-1.4848 7.3762 -2.5011 0.9688
-2.5198 7.0883 -2.5006 0.9688
-3.0192 6.8897 -2.5004 0.9688
-3.2633 6.7772 -2.5003 0.9688
-3.5032 6.6560 -2.5002 0.9688
-4.4147 6.0883 -2.4998 0.9688
-4.6293 5.9265 -2.4998 0.9688
-5.0402 5.5804 -2.4996 0.9688
-5.2362 5.3967 -2.4995 0.9688
-5.6078 5.0087 -2.4993 0.9688
-5.7829 4.8051 -2.4993 0.9688
3.8795 5.8269 -2.5033 0.9707
3.4533 6.0886 -2.5032 0.9707
2.7818 6.4224 -2.5029 0.9707
2.0785 6.6823 -2.5026 0.9707
1.8384 6.7520 -2.5025 0.9707
1.5960 6.8131 -2.5024 0.9707
1.3515 6.8655 -2.5023 0.9707
1.1054 6.9091 -2.5022 0.9707
0.8578 6.9439 -2.5021 0.9707
0.6092 6.9698 -2.5020 0.9707
0.3599 6.9868 -2.5019 0.9707
0.1100 6.9949 -2.5017 0.9707
-0.6388 6.9657 -2.5014 0.9707
-0.8872 6.9381 -2.5013 0.9707
-1.6242 6.8025 -2.5010 0.9707
-2.3423 6.5889 -2.5007 0.9707
-2.5761 6.5008 -2.5006 0.9707
-3.0334 6.2998 -2.5004 0.9707
-3.2564 6.1872 -2.5003 0.9707
-3.4752 6.0667 -2.5002 0.9707
-3.6896 5.9385 -2.5001 0.9707
-4.1038 5.6595 -2.5000 0.9707
-4.3033 5.5091 -2.4999 0.9707
-4.6853 5.1875 -2.4997 0.9707
-5.3758 4.4667 -2.4994 0.9707
3.4234 5.5629 -2.5031 0.9724
3.0173 5.7928 -2.5030 0.9724
2.8083 5.8966 -2.5029 0.9724
2.5958 5.9930 -2.5028 0.9724
2.3800 6.0817 -2.5027 0.9724
2.1611 6.1625 -2.5026 0.9724
1.9395 6.2356 -2.5025 0.9724
1.7155 6.3007 -2.5024 0.9724
1.0315 6.4473 -2.5021 0.9724
0.8005 6.4798 -2.5020 0.9724
0.3358 6.5199 -2.5018 0.9724
-0.1306 6.5267 -2.5016 0.9724
-0.3636 6.5176 -2.5015 0.9724
-1.0586 6.4406 -2.5013 0.9724
-1.2880 6.3984 -2.5012 0.9724
-1.5157 6.3480 -2.5011 0.9724
-1.7414 6.2896 -2.5010 0.9724
-1.9649 6.2231 -2.5009 0.9724
-2.1858 6.1488 -2.5008 0.9724
-2.4040 6.0665 -2.5007 0.9724
-2.6191 5.9766 -2.5006 0.9724
-2.8308 5.8790 -2.5005 0.9724
-3.6388 5.4151 -2.5002 0.9724
-4.0158 5.1412 -2.5000 0.9724
-4.1968 4.9943 -2.4999 0.9724
-4.5424 4.6816 -2.4998 0.9724
-4.8648 4.3451 -2.4997 0.9724
-5.0168 4.1685 -2.4996 0.9724
3.3894 5.0909 -2.5031 0.9739
2.8251 5.4238 -2.5029 0.9739
2.6295 5.5211 -2.5028 0.9739
2.4305 5.6113 -2.5027 0.9739
1.8160 5.8385 -2.5025 0.9739
1.6063 5.8994 -2.5024 0.9739
0.7495 6.0672 -2.5020 0.9739
0.5323 6.0898 -2.5019 0.9739
0.3144 6.1047 -2.5018 0.9739
-0.3404 6.1027 -2.5016 0.9739
-0.9913 6.0306 -2.5013 0.9739
-1.2060 5.9911 -2.5012 0.9739
-1.4192 5.9440 -2.5011 0.9739
-1.6306 5.8893 -2.5010 0.9739
-2.0467 5.7574 -2.5008 0.9739
-2.4524 5.5962 -2.5007 0.9739
-3.0367 5.3012 -2.5004 0.9739
-3.2241 5.1892 -2.5003 0.9739
-3.4073 5.0706 -2.5003 0.9739
-4.0942 4.5331 -2.5000 0.9739
-4.4072 4.2290 -2.4998 0.9739
-4.6977 3.9033 -2.4997 0.9739
-4.8340 3.7329 -2.4997 0.9739
3.1829 4.7807 -2.5030 0.9753
2.6529 5.0933 -2.5028 0.9753
2.4693 5.1847 -2.5027 0.9753
2.2824 5.2694 -2.5027 0.9753
2.0926 5.3474 -2.5026 0.9753
1.9002 5.4186 -2.5025 0.9753
1.3095 5.5902 -2.5023 0.9753
1.1090 5.6332 -2.5022 0.9753
0.9070 5.6690 -2.5021 0.9753
0.7039 5.6976 -2.5020 0.9753
0.4999 5.7189 -2.5019 0.9753
0.2953 5.7329 -2.5018 0.9753
0.0903 5.7396 -2.5017 0.9753
-0.1148 5.7390 -2.5017 0.9753
-0.3197 5.7310 -2.5016 0.9753
-0.7280 5.6932 -2.5014 0.9753
-1.5313 5.5307 -2.5011 0.9753
-1.7278 5.4723 -2.5010 0.9753
-2.4893 5.1698 -2.5007 0.9753
-2.6723 5.0774 -2.5006 0.9753
-2.8519 4.9785 -2.5005 0.9753
-3.1998 4.7619 -2.5004 0.9753
-3.5315 4.5211 -2.5002 0.9753
-3.6906 4.3919 -2.5001 0.9753
-3.8450 4.2572 -2.5001 0.9753
-3.9946 4.1170 -2.5000 0.9753
-4.1390 3.9716 -2.5000 0.9753
-4.2781 3.8211 -2.4999 0.9753
-4.5398 3.5058 -2.4998 0.9753
2.8339 4.6050 -2.5029 0.9764
2.4977 4.7954 -2.5028 0.9764
2.3248 4.8814 -2.5027 0.9765
2.1489 4.9611 -2.5026 0.9765
1.9702 5.0346 -2.5025 0.9765
1.7891 5.1016 -2.5025 0.9765
1.6056 5.1621 -2.5024 0.9765
1.4202 5.2160 -2.5023 0.9765
0.4707 5.3845 -2.5019 0.9765
0.2780 5.3977 -2.5018 0.9765
0.0850 5.4040 -2.5017 0.9765
-0.3010 5.3959 -2.5016 0.9765
-0.8765 5.3322 -2.5013 0.9765
-1.0664 5.2974 -2.5013 0.9765
-1.2549 5.2557 -2.5012 0.9765
-1.4417 5.2074 -2.5011 0.9765
-1.6268 5.1524 -2.5010 0.9765
-2.1685 4.9483 -2.5008 0.9765
-2.3438 4.8676 -2.5007 0.9765
-2.5161 4.7806 -2.5006 0.9765
-2.6852 4.6875 -2.5006 0.9765
-2.8508 4.5885 -2.5005 0.9765
-3.0128 4.4836 -2.5004 0.9765
-3.1710 4.3730 -2.5004 0.9765
-3.4749 4.1352 -2.5002 0.9765
-3.7611 3.8764 -2.5001 0.9765
-3.8971 3.7395 -2.5001 0.9765
-4.2745 3.3009 -2.4999 0.9765
2.6741 4.3454 -2.5028 0.9775
2.5171 4.4381 -2.5028 0.9775
2.3570 4.5250 -2.5027 0.9775
2.0278 4.6815 -2.5026 0.9775
1.6882 4.8141 -2.5024 0.9775
0.6254 5.0621 -2.5020 0.9775
0.2623 5.0935 -2.5018 0.9775
-0.1020 5.0990 -2.5017 0.9775
-0.2841 5.0919 -2.5016 0.9775
-0.4658 5.0783 -2.5015 0.9775
-0.6469 5.0583 -2.5014 0.9775
-0.8271 5.0318 -2.5014 0.9775
-1.0063 4.9989 -2.5013 0.9775
-1.1842 4.9596 -2.5012 0.9775
-1.3606 4.9140 -2.5011 0.9775
-1.5352 4.8621 -2.5011 0.9775
-1.7078 4.8041 -2.5010 0.9775
-2.0463 4.6696 -2.5008 0.9775
-2.2118 4.5934 -2.5008 0.9775
-2.3744 4.5113 -2.5007 0.9775
-2.9924 4.1267 -2.5004 0.9775
-3.1378 4.0171 -2.5004 0.9775
-3.5493 3.6581 -2.5002 0.9775
-3.6777 3.5289 -2.5002 0.9775
-4.0338 3.1150 -2.5000 0.9775
2.5285 4.1087 -2.5028 0.9785
2.3800 4.1963 -2.5027 0.9785
1.7579 4.4920 -2.5024 0.9785
1.5963 4.5518 -2.5024 0.9785
1.4326 4.6058 -2.5023 0.9785
1.2671 4.6539 -2.5022 0.9785
1.1001 4.6960 -2.5022 0.9785
0.9316 4.7322 -2.5021 0.9785
0.7619 4.7623 -2.5020 0.9785
0.4199 4.8043 -2.5019 0.9785
0.2480 4.8161 -2.5018 0.9785
0.0759 4.8217 -2.5017 0.9785
-0.4404 4.8018 -2.5015 0.9785
-0.7820 4.7578 -2.5014 0.9785
-0.9515 4.7267 -2.5013 0.9785
-1.1197 4.6896 -2.5012 0.9785
-1.2865 4.6464 -2.5012 0.9785
-1.6148 4.5425 -2.5010 0.9785
-2.2451 4.2657 -2.5008 0.9785
-2.5438 4.0943 -2.5006 0.9785
-2.9670 3.7984 -2.5005 0.9785
-3.1007 3.6899 -2.5004 0.9785
-3.3561 3.4590 -2.5003 0.9785
-3.4775 3.3368 -2.5002 0.9785
-3.7067 3.0799 -2.5001 0.9785
2.5324 3.8037 -2.5028 0.9794
2.3949 3.8916 -2.5027 0.9794
2.1108 4.0525 -2.5026 0.9794
1.9647 4.1252 -2.5025 0.9794
1.6650 4.2547 -2.5024 0.9794
1.5119 4.3114 -2.5023 0.9794
1.2002 4.4081 -2.5022 0.9794
0.8824 4.4823 -2.5021 0.9794
0.7217 4.5108 -2.5020 0.9794
-0.0914 4.5666 -2.5017 0.9794
-0.4171 4.5482 -2.5015 0.9794
-0.5793 4.5303 -2.5015 0.9794
-0.9013 4.4771 -2.5013 0.9794
-1.0606 4.4419 -2.5013 0.9794
-1.2185 4.4011 -2.5012 0.9794
-1.3749 4.3546 -2.5011 0.9794
-1.5296 4.3026 -2.5011 0.9794
-1.9809 4.1140 -2.5009 0.9794
-2.6802 3.6961 -2.5006 0.9794
-2.8104 3.5979 -2.5005 0.9794
-2.9371 3.4952 -2.5005 0.9794
-3.1790 3.2764 -2.5004 0.9794
-3.2939 3.1607 -2.5003 0.9794
-3.6130 2.7900 -2.5002 0.9794
2.1385 3.7704 -2.5026 0.9802
2.0024 3.8443 -2.5025 0.9802
1.7227 3.9773 -2.5024 0.9802
1.4343 4.0899 -2.5023 0.9802
1.2872 4.1384 -2.5022 0.9802
1.1385 4.1817 -2.5022 0.9802
0.9884 4.2196 -2.5021 0.9802
0.8370 4.2521 -2.5021 0.9802
0.6846 4.2792 -2.5020 0.9802
-0.2413 4.3262 -2.5016 0.9802
-0.3957 4.3147 -2.5015 0.9802
-0.5496 4.2977 -2.5015 0.9802
-0.7027 4.2752 -2.5014 0.9802
-1.0061 4.2139 -2.5013 0.9802
-1.1560 4.1751 -2.5012 0.9802
-1.4510 4.0818 -2.5011 0.9802
-1.7387 3.9676 -2.5010 0.9802
-1.8792 3.9028 -2.5009 0.9802
-2.1530 3.7585 -2.5008 0.9802
-2.5426 3.5064 -2.5006 0.9802
-2.7863 3.3158 -2.5005 0.9802
-3.2299 2.8849 -2.5003 0.9802
-3.3309 2.7676 -2.5003 0.9802
