ply
format ascii 1.0
element vertex 631
property float32 x
property float32 y
property float32 z
property float32 I
end_header
-6.0811 14.8505 2.8296 0.9369
-7.3868 14.8827 2.9297 0.9347
-8.0472 14.8450 2.9774 0.9337
-31.8294 15.8323 6.2683 0.8655
-29.2756 13.2689 5.6675 0.8776
-31.7604 13.0375 6.0537 0.8698
-31.8416 11.7492 5.9846 0.8712
-4.8554 14.8203 2.3891 0.9388
-6.0810 14.8505 2.4584 0.9371
-6.7226 14.8663 2.4995 0.9361
-8.0768 14.8997 2.5964 0.9337
-8.7960 14.9175 2.6530 0.9323
-31.7808 23.7471 6.0777 0.8517
-31.8042 18.7901 5.6590 0.8612
-31.8186 17.2837 5.5471 0.8637
-31.8013 14.4137 5.3488 0.8682
-31.7608 13.0376 5.2596 0.8703
-31.8419 11.7493 5.1995 0.8717
-4.8554 14.8203 2.0308 0.9390
-6.7226 14.8663 2.1246 0.9363
-8.7960 14.9175 2.2551 0.9325
-9.5482 14.9360 2.3085 0.9310
-31.7037 34.1041 6.0636 0.8288
-31.7417 25.5501 5.3061 0.8484
-31.7809 23.7472 5.1663 0.8521
-31.7813 22.0092 5.0341 0.8556
-31.8085 20.3730 4.9189 0.8587
-31.8042 18.7901 4.8104 0.8616
-31.8179 17.2834 4.7152 0.8641
-31.7611 13.0377 4.4709 0.8707
-32.4338 10.6570 4.4457 0.8713
-39.9040 9.9942 5.3568 0.8471
-4.8554 14.8203 1.6747 0.9392
-5.4595 14.8351 1.6975 0.9384
-6.0810 14.8505 1.7232 0.9375
-6.7226 14.8663 1.7520 0.9365
-7.3868 14.8827 1.7842 0.9353
-8.7960 14.9175 1.8596 0.9327
-9.5482 14.9361 1.9036 0.9312
-31.6758 36.6362 5.2006 0.8230
-31.7023 34.1026 4.9999 0.8292
-31.7366 29.5540 4.6568 0.8399
-31.7810 23.7473 4.2602 0.8525
-31.8085 20.3730 4.0562 0.8590
-31.8173 17.2830 3.8881 0.8644
-31.8274 15.8313 3.8171 0.8667
-29.2031 13.2361 3.4429 0.8790
-31.8425 11.7496 3.6446 0.8724
-32.4340 10.6571 3.6660 0.8717
-39.9074 9.9950 4.4177 0.8475
-5.4595 14.8352 1.3382 0.9385
-6.7226 14.8663 1.3812 0.9366
-8.7960 14.9175 1.4660 0.9328
-9.9682 14.4206 1.4840 0.9320
-11.8315 14.7247 1.5990 0.9270
-31.6754 36.6358 4.0998 0.8233
-31.7009 34.1011 3.9414 0.8295
-11.3571 9.8366 1.2719 0.9415
-31.7418 25.5502 3.4494 0.8491
-31.7811 23.7473 3.3585 0.8528
-31.8166 17.2826 3.0651 0.8647
-31.8428 11.7497 2.8732 0.8726
-39.9108 9.9958 3.4829 0.8478
-7.3868 14.8827 1.0303 0.9356
-8.1258 14.9901 1.0573 0.9339
-8.7960 14.9175 1.0739 0.9330
-9.5482 14.9360 1.0993 0.9314
-10.3387 13.8613 1.0723 0.9330
-31.6996 34.0996 2.8871 0.8298
-31.6854 31.7128 2.7799 0.8356
-11.3572 9.8366 0.9317 0.9416
-31.7815 22.0094 2.3972 0.8565
-31.8084 20.3730 2.3423 0.8595
-31.8042 18.7901 2.2907 0.8624
-31.7621 13.0381 2.1291 0.8714
-34.7368 10.0427 2.2422 0.8651
-4.8766 14.8849 0.6176 0.9392
-5.4595 14.8352 0.6233 0.9387
-6.0810 14.8505 0.6328 0.9378
-6.7226 14.8663 0.6433 0.9368
-7.3868 14.8827 0.6551 0.9357
-8.1258 14.9901 0.6723 0.9340
-9.5482 14.9360 0.6990 0.9315
-31.6865 31.7139 1.7677 0.8357
-11.3572 9.8366 0.5924 0.9416
-31.7419 25.5503 1.6067 0.8495
-31.7812 23.7474 1.5644 0.8532
-31.8042 18.7901 1.4566 0.8625
-31.8254 15.8304 1.4016 0.8674
-31.8029 14.4144 1.3768 0.8696
-31.7624 13.0382 1.3538 0.8716
-31.8434 11.7499 1.3384 0.8730
-32.4347 10.6573 1.3462 0.8723
-39.9174 9.9975 1.6226 0.8481
-4.8767 14.8853 0.2646 0.9393
-6.0810 14.8505 0.2711 0.9378
-6.7226 14.8663 0.2756 0.9368
-7.3868 14.8827 0.2807 0.9357
-8.7960 14.9175 0.2925 0.9331
-29.2008 36.3413 0.7875 0.8299
-31.7813 23.7475 0.6702 0.8532
-31.8146 17.2816 0.6116 0.8652
-31.8248 15.8300 0.6004 0.8674
-31.7627 13.0384 0.5800 0.8717
-31.8437 11.7500 0.5734 0.8730
-32.4350 10.6574 0.5767 0.8723
-34.7369 10.0428 0.6108 0.8653
-8.0472 14.8450 -0.0951 0.9347
-8.7960 14.9175 -0.0975 0.9331
-9.5482 14.9360 -0.0998 0.9315
-23.5016 31.5090 -0.2213 0.8545
-29.1979 31.4086 -0.2414 0.8424
-30.5738 30.6002 -0.2435 0.8411
-11.3573 9.8367 -0.0846 0.9417
-31.7818 22.0096 -0.2177 0.8567
-31.7631 13.0385 -0.1933 0.8717
-39.9241 9.9992 -0.2317 0.8482
-47.1114 10.0108 -0.2712 0.8248
-4.8554 14.8202 -0.4391 0.9395
-5.4595 14.8351 -0.4451 0.9387
-7.3868 14.8827 -0.4678 0.9357
-8.7960 14.9175 -0.4876 0.9330
-9.5482 14.9360 -0.4992 0.9315
-20.3609 27.2983 -0.9589 0.8726
-11.5802 14.4118 -0.5206 0.9287
-24.9458 26.8345 -1.0317 0.8636
-11.3573 9.8367 -0.4231 0.9416
-31.7815 23.7476 -1.1171 0.8532
-31.8041 18.7901 -1.0402 0.8626
-31.8133 17.2808 -1.0194 0.8651
-31.8039 14.4149 -0.9832 0.8696
-32.4354 10.6575 -0.9613 0.8723
-39.9275 10.0000 -1.1590 0.8481
-4.8554 14.8202 -0.7909 0.9394
-7.3868 14.8827 -0.8426 0.9356
-8.7960 14.9175 -0.8782 0.9330
-9.5482 14.9360 -0.8990 0.9315
-11.1813 14.9909 -0.9484 0.9278
-18.7675 23.3568 -1.5195 0.8869
-19.9831 23.1125 -1.5495 0.8848
-21.2392 22.8474 -1.5820 0.8826
-11.3574 9.8367 -0.7620 0.9416
-28.2067 21.0765 -1.7857 0.8685
-31.6816 18.7177 -1.8662 0.8630
-31.7637 13.0388 -1.7413 0.8715
-32.4357 10.6576 -1.7315 0.8722
-34.7372 10.0428 -1.8338 0.8652
-39.9308 10.0009 -2.0876 0.8480
-46.8555 8.2048 -2.4124 0.8265
-48.6823 4.9481 -2.4816 0.8220
-48.9105 1.4304 -2.4815 0.8220
-48.8868 -2.0946 -2.4815 0.8220
-4.8554 14.8202 -1.1435 0.9394
-5.4595 14.8351 -1.1591 0.9386
-6.7226 14.8663 -1.1963 0.9367
-7.3868 14.8827 -1.2182 0.9355
-8.0768 14.8997 -1.2427 0.9343
-8.7960 14.9175 -1.2698 0.9329
-10.9651 14.7010 -1.3447 0.9291
-18.0975 19.4677 -1.9489 0.8989
-19.0940 19.1105 -1.9808 0.8973
-11.3574 9.8367 -1.1017 0.9415
-22.1879 17.8599 -2.0884 0.8920
-23.2393 17.3648 -2.1271 0.8902
-24.3101 16.8353 -2.1682 0.8882
-25.3578 16.2414 -2.2080 0.8862
-26.4229 15.6109 -2.2502 0.8842
-28.4432 14.1480 -2.3293 0.8804
-28.9904 13.1397 -2.3338 0.8802
-29.9719 12.3033 -2.3756 0.8781
-30.8510 10.1369 -2.3810 0.8779
-31.7675 9.1843 -2.4247 0.8758
-32.9182 8.2445 -2.4882 0.8728
-33.4226 5.8526 -2.4879 0.8728
-33.8572 2.2128 -2.4878 0.8728
-33.9293 -0.2304 -2.4878 0.8728
-33.8977 -1.4524 -2.4877 0.8728
-33.8235 -2.6724 -2.4877 0.8728
-33.7060 -3.8891 -2.4878 0.8728
-33.5449 -5.1009 -2.4879 0.8728
-4.8554 14.8202 -1.4972 0.9393
-6.0811 14.8504 -1.5406 0.9376
-7.3868 14.8827 -1.5951 0.9354
-8.0768 14.8997 -1.6271 0.9342
-8.7959 14.9175 -1.6626 0.9328
-11.3488 14.1239 -1.7395 0.9298
-14.6963 16.9978 -2.1572 0.9137
-15.4775 16.6493 -2.1824 0.9127
-19.3061 14.4258 -2.3138 0.9077
-20.0475 13.8833 -2.3411 0.9067
-20.7867 13.3137 -2.3699 0.9056
-22.1700 12.0427 -2.4222 0.9036
-10.9906 5.4669 -1.1785 0.9519
-11.0205 4.9950 -1.1616 0.9525
-11.0594 4.5398 -1.1477 0.9531
-24.6606 8.1029 -2.4921 0.9009
-25.1782 6.3060 -2.4919 0.9010
-25.3874 5.3946 -2.4917 0.9010
-25.7070 3.5525 -2.4914 0.9010
-25.8935 1.6924 -2.4912 0.9010
-25.9367 0.7585 -2.4911 0.9010
-25.8663 -2.0437 -2.4910 0.9010
-25.7763 -2.9742 -2.4911 0.9010
-9.5482 14.9360 -2.1057 0.9311
-10.1366 13.5902 -2.0139 0.9340
-10.9345 13.6084 -2.0737 0.9321
-11.5339 13.3402 -2.0948 0.9314
-12.6743 13.6339 -2.2112 0.9278
-13.2480 13.2594 -2.2265 0.9273
-13.8163 12.8661 -2.2426 0.9268
-11.3574 9.8368 -1.7848 0.9413
-16.3283 12.2008 -2.4212 0.9212
-17.8551 10.5489 -2.4634 0.9199
-10.5887 5.2670 -1.4048 0.9535
-10.6235 4.8150 -1.3855 0.9541
-10.6612 4.3764 -1.3690 0.9546
-11.5623 4.2664 -1.4640 0.9516
-12.8854 4.2338 -1.6111 0.9468
-20.1678 5.8307 -2.4938 0.9189
-20.7927 2.8734 -2.4934 0.9189
-20.9872 -0.1425 -2.4930 0.9189
-20.9685 -0.8984 -2.4931 0.9189
-20.9227 -1.6531 -2.4931 0.9189
-20.8498 -2.4057 -2.4931 0.9189
-20.7500 -3.1552 -2.4931 0.9189
-5.4151 14.7146 -2.2216 0.9386
-7.4694 13.7791 -2.2208 0.9386
-8.4405 13.2032 -2.2204 0.9387
-9.3675 12.5591 -2.2200 0.9387
-10.6651 11.4726 -2.2194 0.9387
-11.0706 11.0801 -2.2193 0.9387
-11.3575 9.8368 -2.1289 0.9411
-12.8785 10.3664 -2.3425 0.9354
-14.0468 10.4960 -2.4845 0.9316
-9.9663 5.4136 -1.6070 0.9552
-10.0016 4.9749 -1.5828 0.9559
-10.0574 4.5584 -1.5646 0.9564
-10.3977 4.2682 -1.5925 0.9556
-12.7196 4.1794 -1.8970 0.9473
-16.9161 4.8906 -2.4950 0.9313
-17.2233 3.6598 -2.4949 0.9313
-17.3433 3.0370 -2.4948 0.9313
-17.5157 1.7803 -2.4946 0.9313
-17.5975 0.5147 -2.4944 0.9313
-17.6046 -0.1196 -2.4944 0.9313
-17.5889 -0.7536 -2.4944 0.9313
-17.4893 -2.0180 -2.4945 0.9313
-4.1995 12.8182 -2.2221 0.9468
-4.6581 12.6576 -2.2219 0.9468
-5.1106 12.4805 -2.2217 0.9468
-5.9948 12.0782 -2.2214 0.9468
-6.4255 11.8535 -2.2212 0.9468
-6.8478 11.6134 -2.2210 0.9468
-7.6649 11.0886 -2.2207 0.9468
-8.0588 10.8045 -2.2205 0.9468
-8.4421 10.5065 -2.2204 0.9468
-8.9463 10.3473 -2.2534 0.9461
-9.6257 10.3545 -2.3290 0.9443
-10.4311 9.7137 -2.3481 0.9439
-10.7678 9.3261 -2.3467 0.9439
-12.1397 9.0710 -2.4965 0.9404
-12.4584 8.6277 -2.4965 0.9404
-13.0468 7.7082 -2.4964 0.9404
-9.8478 4.8984 -1.8119 0.9564
-11.4870 4.2386 -2.0171 0.9516
-14.5544 4.2078 -2.4959 0.9404
-14.6963 3.6808 -2.4958 0.9404
-14.9223 2.6130 -2.4957 0.9404
-15.1414 0.4428 -2.4955 0.9404
-15.1341 -0.6484 -2.4955 0.9404
-15.0483 -1.7363 -2.4955 0.9404
-14.9762 -2.2773 -2.4955 0.9404
-4.8705 10.7706 -2.2218 0.9530
-5.2549 10.5875 -2.2217 0.9530
-6.0834 10.3171 -2.2512 0.9524
-7.0982 10.2688 -2.3464 0.9505
-8.4973 9.1407 -2.3458 0.9505
-9.1323 8.5043 -2.3455 0.9505
-9.4889 8.2185 -2.3595 0.9502
-10.2696 8.2664 -2.4779 0.9478
-10.6433 7.9528 -2.4973 0.9474
-10.9224 7.5640 -2.4972 0.9474
-11.4377 6.7575 -2.4970 0.9474
-9.8558 5.3537 -2.1082 0.9554
-9.8981 4.4863 -2.0426 0.9567
-12.4616 4.5982 -2.4967 0.9474
-12.7597 3.6890 -2.4966 0.9474
-12.8841 3.2269 -2.4965 0.9474
-12.9918 2.7607 -2.4965 0.9474
-13.1561 1.8181 -2.4963 0.9474
-13.2394 -1.0461 -2.4962 0.9474
-13.1932 -1.5223 -2.4963 0.9474
-4.2085 10.2776 -2.3476 0.9556
-5.9800 9.3544 -2.3468 0.9556
-6.9530 8.6532 -2.3464 0.9556
-7.2598 8.3967 -2.3463 0.9556
-8.6488 8.0541 -2.4981 0.9528
-9.2054 7.4098 -2.4979 0.9528
-9.4659 7.0731 -2.4978 0.9528
-9.9498 6.3728 -2.4976 0.9528
-10.1725 6.0100 -2.4975 0.9528
-10.3821 5.6395 -2.4974 0.9528
-10.5782 5.2617 -2.4974 0.9528
-10.1647 4.1726 -2.3226 0.9561
-11.2231 3.6877 -2.4971 0.9528
-11.3485 3.2809 -2.4971 0.9529
-11.5549 2.4553 -2.4970 0.9529
-11.6356 2.0375 -2.4970 0.9529
-11.7516 1.1944 -2.4969 0.9529
-11.7869 0.7704 -2.4968 0.9529
-11.8070 0.3453 -2.4968 0.9529
-11.8012 -0.5056 -2.4968 0.9529
-11.7754 -0.9304 -2.4968 0.9529
-11.7343 -1.3540 -2.4969 0.9529
-3.1104 9.4941 -2.3480 0.9598
-3.4502 9.3753 -2.3479 0.9598
-4.1157 9.1015 -2.3476 0.9598
-4.4406 8.9468 -2.3475 0.9598
-5.3790 8.4142 -2.3471 0.9598
-5.6880 8.2286 -2.3510 0.9597
-6.1229 8.2091 -2.4069 0.9588
-6.9539 8.0429 -2.4988 0.9573
-7.2388 7.7869 -2.4987 0.9573
-7.5142 7.5207 -2.4986 0.9573
-7.7799 7.2449 -2.4985 0.9573
-8.0355 6.9596 -2.4984 0.9573
-8.2806 6.6654 -2.4983 0.9573
-8.5150 6.3626 -2.4982 0.9573
-8.7383 6.0515 -2.4981 0.9573
-9.1507 5.4063 -2.4979 0.9573
-9.5156 4.7332 -2.4978 0.9573
-9.6797 4.3872 -2.4977 0.9573
-9.9700 3.6788 -2.4976 0.9573
-10.0958 3.3173 -2.4976 0.9573
-10.2086 2.9514 -2.4975 0.9573
-10.3081 2.5817 -2.4975 0.9573
-10.4669 1.8329 -2.4974 0.9573
-10.5260 1.4546 -2.4974 0.9573
-10.6213 0.3106 -2.4973 0.9573
-10.6256 -0.0722 -2.4973 0.9573
-10.5053 -1.5974 -2.4974 0.9573
-3.1319 8.5106 -2.3480 0.9632
-3.7361 8.2621 -2.3478 0.9632
-4.4490 8.2073 -2.4171 0.9622
-4.8342 8.1985 -2.4643 0.9614
-5.4891 7.9409 -2.4994 0.9609
-5.7713 7.7377 -2.4993 0.9609
-6.3128 7.3014 -2.4991 0.9609
-6.8215 6.8274 -2.4989 0.9609
-7.5174 6.0510 -2.4986 0.9609
-8.1255 5.2043 -2.4984 0.9609
-8.3074 4.9081 -2.4983 0.9609
-8.4785 4.6055 -2.4982 0.9609
-8.9252 3.6637 -2.4980 0.9609
-9.0512 3.3398 -2.4980 0.9609
-9.3582 2.3438 -2.4978 0.9609
-9.6427 0.2820 -2.4977 0.9609
-9.6466 -0.0655 -2.4977 0.9609
-9.6169 -0.7599 -2.4977 0.9609
-9.5373 -1.4503 -2.4978 0.9609
-3.0166 8.1971 -2.4727 0.9643
-3.3469 8.1735 -2.5003 0.9639
-4.2084 7.7636 -2.5000 0.9640
-4.4852 7.6066 -2.4999 0.9640
-4.7561 7.4398 -2.4997 0.9640
-5.2789 7.0775 -2.4995 0.9640
-6.2396 6.2450 -2.4991 0.9640
-6.8761 5.5349 -2.4989 0.9640
-7.0708 5.2834 -2.4988 0.9640
-7.5988 4.4895 -2.4986 0.9640
-7.9019 3.9305 -2.4984 0.9640
-8.2793 3.0550 -2.4983 0.9640
-8.3838 2.7547 -2.4982 0.9640
-8.4775 2.4509 -2.4982 0.9640
-8.5602 2.1439 -2.4982 0.9640
-8.8054 0.5755 -2.4981 0.9640
-8.8204 0.2580 -2.4981 0.9640
-8.8161 -0.3777 -2.4981 0.9640
-8.7968 -0.6950 -2.4981 0.9640
-8.7661 -1.0115 -2.4981 0.9640
-2.5312 7.7261 -2.5007 0.9665
-3.0806 7.5231 -2.5004 0.9666
-3.3494 7.4069 -2.5003 0.9666
-3.8737 7.1460 -2.5001 0.9666
-4.1284 7.0015 -2.5000 0.9666
-5.3150 6.1473 -2.4995 0.9666
-5.5328 5.9517 -2.4994 0.9666
-5.7433 5.7483 -2.4993 0.9666
-5.9465 5.5375 -2.4993 0.9666
-6.6793 4.6256 -2.4989 0.9666
-7.1388 3.8777 -2.4988 0.9666
-7.9455 1.6884 -2.4984 0.9666
-8.0011 1.4010 -2.4984 0.9666
-8.0811 0.8214 -2.4984 0.9666
-8.1192 0.2375 -2.4984 0.9666
-8.1225 -0.0552 -2.4984 0.9666
-8.0975 -0.6398 -2.4984 0.9666
-8.0692 -0.9311 -2.4984 0.9666
-8.0305 -1.2211 -2.4984 0.9666
-2.8506 6.9615 -2.5005 0.9688
-3.0994 6.8540 -2.5004 0.9688
-3.5845 6.6126 -2.5002 0.9688
-3.8202 6.4789 -2.5001 0.9688
-4.0510 6.3368 -2.5000 0.9688
-4.2764 6.1866 -2.4999 0.9688
-4.9183 5.6886 -2.4997 0.9688
-5.1199 5.5075 -2.4996 0.9688
-5.5028 5.1243 -2.4994 0.9688
-5.6836 4.9226 -2.4994 0.9688
-6.6062 3.5884 -2.4990 0.9688
-6.7310 3.3481 -2.4989 0.9688
-6.8471 3.1034 -2.4989 0.9688
-7.0525 2.6023 -2.4988 0.9688
-7.1416 2.3466 -2.4988 0.9688
-7.2918 1.8263 -2.4987 0.9688
-7.3528 1.5624 -2.4987 0.9688
-7.4783 0.7601 -2.4986 0.9688
-7.5007 0.4902 -2.4986 0.9688
-7.5098 -0.3218 -2.4986 0.9688
-7.4934 -0.5921 -2.4986 0.9688
-7.4314 -1.1300 -2.4986 0.9688
-2.6498 6.4711 -2.5006 0.9707
-2.8811 6.3712 -2.5005 0.9707
-3.3320 6.1468 -2.5003 0.9707
-4.1797 5.6038 -2.5000 0.9707
-4.3787 5.4494 -2.4999 0.9707
-4.5720 5.2880 -2.4998 0.9707
-4.7593 5.1197 -2.4997 0.9707
-4.9405 4.9448 -2.4997 0.9707
-5.1153 4.7635 -2.4996 0.9707
-5.2834 4.5760 -2.4995 0.9707
-5.5988 4.1835 -2.4994 0.9707
-6.0171 3.5549 -2.4992 0.9707
-6.4647 2.6537 -2.4990 0.9707
-6.5560 2.4191 -2.4990 0.9708
-6.6388 2.1814 -2.4990 0.9708
-6.8352 1.4524 -2.4989 0.9708
-6.8830 1.2053 -2.4989 0.9708
-6.9219 0.9565 -2.4988 0.9708
-6.9518 0.7066 -2.4988 0.9708
-6.9728 0.4557 -2.4988 0.9708
-6.9846 0.2043 -2.4988 0.9708
-6.9875 -0.0475 -2.4988 0.9708
-6.9083 -1.0505 -2.4989 0.9708
-3.1095 5.7362 -2.5004 0.9724
-3.3140 5.6203 -2.5003 0.9724
-3.5141 5.4971 -2.5003 0.9724
-3.9005 5.2295 -2.5001 0.9724
-4.2667 4.9348 -2.4999 0.9724
-4.9306 4.2704 -2.4997 0.9724
-5.3621 3.7134 -2.4995 0.9724
-5.4923 3.5178 -2.4994 0.9724
-6.0331 2.4766 -2.4992 0.9725
-6.1956 2.0357 -2.4991 0.9725
-6.2648 1.8112 -2.4991 0.9725
-6.3259 1.5844 -2.4991 0.9725
-6.3788 1.3555 -2.4991 0.9725
-6.4877 0.6594 -2.4990 0.9725
-6.5183 0.1906 -2.4990 0.9725
-6.5210 -0.0443 -2.4990 0.9725
-6.5152 -0.2791 -2.4990 0.9725
-6.4782 -0.7475 -2.4990 0.9725
-6.4471 -0.9803 -2.4990 0.9725
-2.1103 5.7344 -2.5008 0.9739
-2.3154 5.6545 -2.5007 0.9739
-2.7163 5.4728 -2.5006 0.9739
-2.9116 5.3712 -2.5005 0.9739
-3.2905 5.1473 -2.5003 0.9739
-3.9952 4.6208 -2.5001 0.9739
-4.1589 4.4738 -2.5000 0.9739
-4.3173 4.3210 -2.4999 0.9739
-4.4700 4.1626 -2.4999 0.9739
-4.8926 3.6558 -2.4997 0.9739
-5.3665 2.9151 -2.4995 0.9740
-5.4679 2.7198 -2.4994 0.9740
-5.5622 2.5211 -2.4994 0.9740
-5.6494 2.3190 -2.4994 0.9740
-5.9236 1.4836 -2.4993 0.9740
-5.9731 1.2693 -2.4992 0.9740
-6.0489 0.8359 -2.4992 0.9740
-6.0751 0.6175 -2.4992 0.9740
-6.0934 0.3983 -2.4992 0.9740
-6.1062 -0.0415 -2.4992 0.9740
-6.1008 -0.2614 -2.4992 0.9740
-6.0874 -0.4810 -2.4992 0.9740
-6.0662 -0.6999 -2.4992 0.9740
-1.9818 5.3853 -2.5009 0.9753
-2.1745 5.3103 -2.5008 0.9753
-2.5510 5.1396 -2.5007 0.9753
-2.7344 5.0442 -2.5006 0.9753
-2.9142 4.9423 -2.5005 0.9753
-3.0902 4.8340 -2.5004 0.9753
-3.2622 4.7194 -2.5004 0.9753
-3.7520 4.3396 -2.5002 0.9753
-3.9058 4.2015 -2.5001 0.9753
-4.4683 3.5967 -2.4999 0.9753
-4.5949 3.4333 -2.4998 0.9753
-4.7154 3.2656 -2.4998 0.9753
-4.9381 2.9175 -2.4997 0.9753
-5.0400 2.7377 -2.4996 0.9753
-5.1352 2.5543 -2.4996 0.9753
-5.3805 1.9854 -2.4995 0.9753
-5.5632 1.3933 -2.4994 0.9753
-5.6490 0.9892 -2.4994 0.9753
-5.7055 0.5799 -2.4994 0.9753
-5.7324 0.1676 -2.4993 0.9753
-5.7347 -0.0389 -2.4993 0.9753
-5.7296 -0.2455 -2.4993 0.9753
-5.7170 -0.4517 -2.4993 0.9753
-5.6971 -0.6573 -2.4994 0.9753
-5.6697 -0.8621 -2.4994 0.9753
-1.6822 5.1346 -2.5010 0.9765
-1.8660 5.0705 -2.5009 0.9765
-2.7439 4.6534 -2.5006 0.9765
-2.9096 4.5515 -2.5005 0.9765
-3.0716 4.4436 -2.5004 0.9765
-3.2296 4.3299 -2.5004 0.9765
-3.3833 4.2107 -2.5003 0.9765
-3.6775 3.9560 -2.5002 0.9765
-4.0825 3.5360 -2.5000 0.9765
-4.2072 3.3865 -2.5000 0.9765
-4.3264 3.2327 -2.4999 0.9765
-4.5477 2.9128 -2.4998 0.9765
-4.7454 2.5777 -2.4997 0.9765
-4.8351 2.4051 -2.4997 0.9765
-4.9186 2.2293 -2.4997 0.9765
-4.9956 2.0507 -2.4996 0.9765
-5.1302 1.6857 -2.4996 0.9765
-5.1875 1.4998 -2.4996 0.9765
-5.2381 1.3119 -2.4995 0.9765
-5.2819 1.1224 -2.4995 0.9765
-5.3189 0.9314 -2.4995 0.9765
-5.3490 0.7392 -2.4995 0.9765
-5.3721 0.5460 -2.4995 0.9765
-5.3975 0.1579 -2.4995 0.9765
-5.3948 -0.2311 -2.4995 0.9765
-5.3642 -0.6189 -2.4995 0.9765
-5.3385 -0.8118 -2.4995 0.9765
-1.7609 4.7849 -2.5010 0.9775
-1.9320 4.7182 -2.5009 0.9775
-2.1007 4.6454 -2.5008 0.9775
-2.7457 4.2951 -2.5006 0.9775
-2.8986 4.1933 -2.5005 0.9775
-3.0477 4.0861 -2.5004 0.9775
-3.3338 3.8559 -2.5003 0.9775
-3.4704 3.7332 -2.5003 0.9775
-3.8527 3.3368 -2.5001 0.9775
-4.0828 3.0507 -2.5000 0.9775
-4.1899 2.9016 -2.5000 0.9775
-4.2917 2.7488 -2.4999 0.9775
-4.4783 2.4326 -2.4999 0.9776
-4.6417 2.1038 -2.4998 0.9776
-4.7810 1.7641 -2.4997 0.9776
-4.8413 1.5908 -2.4997 0.9776
-4.9432 1.2381 -2.4997 0.9776
-4.9846 1.0592 -2.4996 0.9776
-5.0195 0.8790 -2.4996 0.9776
-5.0936 0.1490 -2.4996 0.9776
-5.0957 -0.0346 -2.4996 0.9776
-5.0911 -0.2181 -2.4996 0.9776
-5.0622 -0.5841 -2.4996 0.9776
-1.6650 4.5243 -2.5010 0.9785
-1.8268 4.4613 -2.5010 0.9785
-1.9863 4.3925 -2.5009 0.9785
-2.2972 4.2379 -2.5008 0.9785
-2.4483 4.1523 -2.5007 0.9785
-2.5963 4.0613 -2.5006 0.9785
-2.7408 3.9650 -2.5006 0.9785
-3.4065 3.4094 -2.5003 0.9785
-3.5270 3.2845 -2.5003 0.9785
-3.6430 3.1552 -2.5002 0.9785
-3.7542 3.0219 -2.5002 0.9785
-3.8605 2.8847 -2.5001 0.9785
-4.0580 2.5991 -2.5000 0.9785
-4.1490 2.4513 -2.5000 0.9785
-4.2345 2.3002 -2.5000 0.9785
-4.3146 2.1461 -2.4999 0.9785
-4.3890 1.9893 -2.4999 0.9785
-4.4578 1.8299 -2.4999 0.9785
-4.6290 1.3383 -2.4998 0.9785
-4.6742 1.1707 -2.4998 0.9785
-4.7133 1.0015 -2.4998 0.9785
-4.7463 0.8311 -2.4997 0.9785
-4.7938 0.4872 -2.4997 0.9785
-4.8082 0.3143 -2.4997 0.9785
-4.8164 0.1409 -2.4997 0.9785
-4.8035 -0.3795 -2.4997 0.9785
-4.7867 -0.5523 -2.4997 0.9785
-1.7304 4.2258 -2.5010 0.9794
-2.1760 4.0141 -2.5008 0.9794
-2.3191 3.9331 -2.5007 0.9794
-2.4592 3.8469 -2.5007 0.9794
-2.7297 3.6597 -2.5006 0.9794
-2.8596 3.5589 -2.5005 0.9794
-2.9859 3.4535 -2.5005 0.9794
-3.3409 3.1111 -2.5003 0.9794
-3.8439 2.4620 -2.5001 0.9794
-4.0110 2.1788 -2.5001 0.9794
-4.1574 1.8843 -2.5000 0.9794
-4.2822 1.5801 -2.4999 0.9794
-4.3363 1.4248 -2.4999 0.9794
-4.4958 0.7873 -2.4999 0.9794
-4.5213 0.6248 -2.4998 0.9794
-4.5600 -0.1954 -2.4998 0.9794
-4.5500 -0.3595 -2.4998 0.9794
-4.5341 -0.5232 -2.4998 0.9794
-4.5124 -0.6862 -2.4998 0.9794
-2.0643 3.8081 -2.5009 0.9802
-2.3330 3.6494 -2.5007 0.9802
-2.4629 3.5630 -2.5007 0.9802
-2.5895 3.4719 -2.5006 0.9802
-2.7129 3.3763 -2.5006 0.9802
-2.8327 3.2763 -2.5005 0.9802
-2.9488 3.1721 -2.5005 0.9802
-3.0611 3.0637 -2.5004 0.9802
-3.1694 2.9514 -2.5004 0.9802
-3.2736 2.8353 -2.5004 0.9802
-3.4691 2.5922 -2.5003 0.9802
-3.6466 2.3356 -2.5002 0.9802
-3.7283 2.2027 -2.5002 0.9802
-3.8052 2.0670 -2.5001 0.9802
-3.9441 1.7876 -2.5001 0.9802
-4.0059 1.6444 -2.5001 0.9802
-4.1597 1.2026 -2.5000 0.9802
-4.2892 0.5927 -2.4999 0.9802
-4.3208 0.2824 -2.4999 0.9802
-4.3299 -0.0294 -2.4999 0.9802
-4.3260 -0.1854 -2.4999 0.9802
-4.3165 -0.3411 -2.4999 0.9802
-4.3015 -0.4963 -2.4999 0.9802
-4.2808 -0.6509 -2.4999 0.9802
