ply
format ascii 1.0
element vertex 567
property float32 x
property float32 y
property float32 z
property float32 I
end_header
-4.3832 -16.7352 3.0504 0.9321
18.1417 -17.2971 4.4198 0.9032
34.4362 -30.5740 8.1199 0.8294
-4.3829 -16.7338 2.6500 0.9324
18.1380 -17.2937 3.2635 0.9039
18.1362 -17.2920 2.6908 0.9041
-12.0311 -18.5336 1.8705 0.9151
-4.3817 -16.7296 1.4640 0.9329
-12.0311 -18.5336 1.3702 0.9153
-4.3814 -16.7282 1.0723 0.9330
18.1326 -17.2885 1.5536 0.9045
-12.0311 -18.5337 0.8713 0.9153
-4.3810 -16.7268 0.6818 0.9331
-12.0312 -18.5337 0.3732 0.9154
-8.5530 -15.4809 0.2988 0.9317
-7.8576 -15.4981 0.2935 0.9328
-7.1979 -15.5416 0.2893 0.9338
-5.9099 -15.5734 0.2814 0.9355
-5.2906 -15.5887 0.2781 0.9363
-4.3806 -16.7254 0.2921 0.9332
18.1291 -17.2852 0.4231 0.9046
-5.7352 -16.8988 -0.1005 0.9311
18.1273 -17.2835 -0.1410 0.9047
-12.0312 -18.5338 -0.6222 0.9154
-8.5556 -16.8747 -0.5327 0.9271
-7.0950 -16.8652 -0.5152 0.9294
18.1255 -17.2818 -0.7052 0.9046
-28.1842 -40.2149 -2.4905 0.8215
-8.5679 -15.5079 -0.8985 0.9315
-8.5558 -16.8750 -0.9595 0.9270
-7.0950 -16.8652 -0.9279 0.9293
-6.3982 -16.8600 -0.9145 0.9303
-10.1420 -45.2162 -2.3501 0.8306
-8.5315 -45.5549 -2.3504 0.8306
-6.9098 -45.8361 -2.3508 0.8306
-5.2788 -46.0597 -2.3512 0.8305
-0.3512 -46.3814 -2.3523 0.8305
2.9423 -46.3066 -2.3531 0.8304
4.5856 -46.1832 -2.3537 0.8304
7.8551 -45.7621 -2.3547 0.8303
9.4771 -45.4646 -2.3553 0.8303
11.0878 -45.1095 -2.3558 0.8302
12.6853 -44.6975 -2.3563 0.8302
14.2650 -44.2212 -2.3564 0.8302
15.8265 -43.6879 -2.3565 0.8302
18.8917 -42.4654 -2.3571 0.8301
26.1522 -38.5444 -2.3622 0.8298
27.4818 -37.5609 -2.3603 0.8299
34.6622 -35.4820 -2.5156 0.8198
38.2605 -31.6129 -2.5170 0.8197
-20.4945 -27.1388 -2.4935 0.8725
-19.5210 -27.8537 -2.4939 0.8725
-12.0313 -18.5339 -1.6202 0.9152
-13.4595 -29.0616 -2.3483 0.8795
-7.0950 -16.8652 -1.3416 0.9292
-6.3982 -16.8600 -1.3222 0.9302
-5.9026 -31.5174 -2.3511 0.8793
-4.7805 -31.7117 -2.3514 0.8793
-3.6521 -31.8663 -2.3518 0.8793
-1.3819 -32.0547 -2.3525 0.8793
0.8966 -32.0784 -2.3530 0.8792
2.0350 -32.0277 -2.3531 0.8792
3.1710 -31.9365 -2.3532 0.8792
4.3031 -31.8049 -2.3533 0.8792
5.4298 -31.6331 -2.3533 0.8792
7.6614 -31.1697 -2.3535 0.8792
8.7635 -30.8787 -2.3535 0.8792
9.8545 -30.5487 -2.3535 0.8792
10.9339 -30.1822 -2.3538 0.8792
12.0023 -29.7842 -2.3545 0.8792
13.0563 -29.3483 -2.3552 0.8791
14.0944 -28.8751 -2.3559 0.8791
15.1154 -28.3650 -2.3566 0.8791
16.1178 -27.8188 -2.3574 0.8790
17.1004 -27.2371 -2.3581 0.8790
19.0012 -25.9700 -2.3594 0.8789
19.9170 -25.2862 -2.3601 0.8789
20.8081 -24.5699 -2.3608 0.8789
18.0167 -17.1780 -1.8252 0.9050
24.1026 -21.3994 -2.3633 0.8787
24.8534 -20.5352 -2.3639 0.8787
-14.7101 -19.4792 -2.3434 0.9066
-7.0950 -16.8652 -1.7566 0.9291
-6.3982 -16.8600 -1.7313 0.9301
-5.7352 -16.8988 -1.7133 0.9308
-4.3617 -16.6532 -1.6527 0.9332
0.6844 -24.4848 -2.3516 0.9063
3.2844 -24.2754 -2.3518 0.9063
4.1443 -24.1441 -2.3518 0.9063
5.8476 -23.7901 -2.3519 0.9062
8.3483 -23.0448 -2.3531 0.9062
9.9673 -22.4048 -2.3542 0.9062
11.5375 -21.6511 -2.3553 0.9061
12.3018 -21.2326 -2.3559 0.9061
13.0509 -20.7871 -2.3564 0.9061
13.7838 -20.3152 -2.3569 0.9061
15.1974 -19.2943 -2.3579 0.9060
15.8762 -18.7465 -2.3584 0.9060
16.5350 -18.1745 -2.3589 0.9060
18.3563 -16.2975 -2.3566 0.9061
18.9252 -15.6370 -2.3569 0.9061
-11.8947 -15.7510 -2.3446 0.9236
-10.7490 -16.5586 -2.3450 0.9236
-10.1554 -16.9316 -2.3453 0.9236
-8.5563 -16.8761 -2.2476 0.9266
-8.2999 -17.9211 -2.3460 0.9235
-5.6888 -18.9477 -2.3500 0.9234
-4.3463 -16.5940 -2.0376 0.9332
-4.3302 -19.3053 -2.3502 0.9234
-3.6421 -19.4475 -2.3503 0.9234
-2.9495 -19.5654 -2.3503 0.9234
1.9554 -19.6937 -2.3508 0.9234
4.0388 -19.3752 -2.3510 0.9234
4.7249 -19.2226 -2.3513 0.9234
6.7461 -18.6220 -2.3527 0.9233
7.4044 -18.3742 -2.3532 0.9233
8.0536 -18.1032 -2.3536 0.9233
8.6929 -17.8091 -2.3540 0.9233
10.5352 -16.7801 -2.3535 0.9233
11.1254 -16.3971 -2.3538 0.9233
11.7017 -15.9933 -2.3540 0.9233
13.8325 -15.2040 -2.4416 0.9205
14.7518 -15.1007 -2.5076 0.9185
15.2799 -14.5686 -2.5078 0.9185
15.7888 -14.0180 -2.5080 0.9185
16.2778 -13.4496 -2.5082 0.9185
-10.6223 -14.0661 -2.4975 0.9313
-9.5989 -14.7869 -2.4979 0.9313
-9.0686 -15.1197 -2.4981 0.9312
-8.3972 -15.1990 -2.4604 0.9323
-7.7102 -15.2073 -2.4158 0.9334
-7.0465 -15.2148 -2.3757 0.9345
-4.1980 -16.0283 -2.3476 0.9353
-3.6267 -16.1688 -2.3479 0.9352
-3.0506 -16.2890 -2.3481 0.9352
-1.8873 -16.4676 -2.3486 0.9352
-1.3016 -16.5259 -2.3488 0.9352
-0.1255 -16.5799 -2.3493 0.9352
2.2239 -16.4373 -2.3502 0.9352
3.9604 -16.1123 -2.3509 0.9352
4.5304 -15.9631 -2.3511 0.9352
5.6529 -15.6043 -2.3516 0.9351
6.2040 -15.3952 -2.3518 0.9351
7.4251 -15.2116 -2.3984 0.9339
10.4432 -14.2733 -2.5059 0.9310
11.9046 -13.0849 -2.5065 0.9310
12.8050 -12.2089 -2.5068 0.9310
13.2313 -11.7473 -2.5070 0.9310
13.6409 -11.2708 -2.5072 0.9310
-9.1382 -12.1009 -2.4981 0.9404
-8.7034 -12.4186 -2.4982 0.9404
-8.2576 -12.7207 -2.4984 0.9404
-7.8013 -13.0068 -2.4986 0.9404
-6.8596 -13.5297 -2.4990 0.9404
-6.3754 -13.7658 -2.4992 0.9404
-4.3637 -14.5344 -2.5000 0.9403
-3.3218 -14.8099 -2.5004 0.9403
-1.1919 -15.1362 -2.5012 0.9403
0.9632 -15.1577 -2.5021 0.9403
1.5008 -15.1152 -2.5023 0.9403
2.0368 -15.0537 -2.5025 0.9403
2.5701 -14.9732 -2.5027 0.9403
3.6269 -14.7555 -2.5032 0.9403
4.6657 -14.4633 -2.5036 0.9403
5.1767 -14.2897 -2.5038 0.9402
5.6812 -14.0980 -2.5040 0.9402
6.1787 -13.8885 -2.5042 0.9402
6.6685 -13.6615 -2.5044 0.9402
8.5379 -12.5835 -2.5051 0.9402
8.9799 -12.2733 -2.5053 0.9402
9.4107 -11.9476 -2.5055 0.9402
10.2362 -11.2511 -2.5058 0.9402
10.6299 -10.8812 -2.5060 0.9402
11.3766 -10.1007 -2.5063 0.9402
-7.6295 -10.8862 -2.4987 0.9473
-7.2386 -11.1509 -2.4988 0.9473
-5.5885 -12.0666 -2.4995 0.9473
-3.8250 -12.7398 -2.5002 0.9473
-2.9116 -12.9810 -2.5006 0.9473
-1.0448 -13.2665 -2.5013 0.9473
-0.5732 -13.2962 -2.5015 0.9473
-0.1008 -13.3092 -2.5017 0.9473
0.3719 -13.3054 -2.5019 0.9473
0.8441 -13.2848 -2.5021 0.9473
1.3154 -13.2474 -2.5022 0.9473
2.2525 -13.1226 -2.5026 0.9473
3.1786 -12.9316 -2.5030 0.9472
3.6360 -12.8115 -2.5032 0.9472
4.5366 -12.5230 -2.5035 0.9472
4.9788 -12.3549 -2.5037 0.9472
5.4147 -12.1712 -2.5039 0.9472
5.8438 -11.9721 -2.5040 0.9472
6.2656 -11.7579 -2.5042 0.9472
7.0852 -11.2850 -2.5045 0.9472
7.4818 -11.0271 -2.5047 0.9472
7.8691 -10.7551 -2.5049 0.9472
8.6136 -10.1708 -2.5052 0.9472
8.9698 -9.8591 -2.5053 0.9472
9.3147 -9.5349 -2.5054 0.9472
9.6478 -9.1987 -2.5056 0.9472
10.2773 -8.4917 -2.5058 0.9472
-7.1242 -9.4339 -2.4989 0.9528
-6.7851 -9.6814 -2.4990 0.9528
-6.4375 -9.9168 -2.4991 0.9528
-4.1963 -11.0578 -2.5000 0.9528
-3.4014 -11.3291 -2.5004 0.9528
-2.9972 -11.4435 -2.5005 0.9528
-2.5892 -11.5434 -2.5007 0.9528
-1.7637 -11.6996 -2.5010 0.9528
-0.5097 -11.8232 -2.5015 0.9528
-0.0896 -11.8346 -2.5017 0.9528
0.3307 -11.8312 -2.5018 0.9528
1.1696 -11.7794 -2.5022 0.9528
1.5872 -11.7313 -2.5023 0.9528
2.0029 -11.6683 -2.5025 0.9528
2.8263 -11.4983 -2.5028 0.9527
3.2329 -11.3914 -2.5030 0.9527
3.6356 -11.2701 -2.5032 0.9527
4.4267 -10.9851 -2.5035 0.9527
4.8000 -10.7897 -2.4962 0.9529
5.9212 -10.2199 -2.4967 0.9529
6.2807 -10.0038 -2.4968 0.9529
6.6520 -9.8040 -2.5044 0.9527
6.9963 -9.5622 -2.5045 0.9527
7.3318 -9.3083 -2.5046 0.9527
7.6581 -9.0425 -2.5048 0.9527
9.1370 -7.5495 -2.5054 0.9527
-6.4082 -8.4858 -2.4992 0.9572
-5.7904 -8.9201 -2.4994 0.9572
-5.4704 -9.1205 -2.4995 0.9572
-4.4702 -9.6520 -2.4999 0.9572
-4.1249 -9.8052 -2.5001 0.9572
-3.7744 -9.9460 -2.5002 0.9572
-2.6958 -10.2928 -2.5006 0.9572
-1.9588 -10.4594 -2.5009 0.9572
-1.2118 -10.5733 -2.5012 0.9572
-0.4584 -10.6339 -2.5015 0.9572
-0.0806 -10.6441 -2.5017 0.9572
1.0519 -10.5942 -2.5021 0.9572
1.4275 -10.5508 -2.5023 0.9572
1.8013 -10.4941 -2.5024 0.9572
2.1729 -10.4242 -2.5026 0.9572
3.2697 -10.1358 -2.5030 0.9572
3.6169 -9.9842 -2.4958 0.9573
3.9694 -9.8501 -2.4959 0.9573
5.3409 -9.2182 -2.5038 0.9572
5.9822 -8.8168 -2.5041 0.9572
6.2918 -8.5993 -2.5042 0.9572
6.5934 -8.3709 -2.5043 0.9572
6.8868 -8.1319 -2.5045 0.9572
7.1716 -7.8826 -2.5046 0.9572
7.4472 -7.6233 -2.5047 0.9572
8.2166 -6.7890 -2.5050 0.9571
-4.3662 -8.6118 -2.5000 0.9609
-4.0579 -8.7618 -2.5001 0.9609
-3.7445 -8.9009 -2.5002 0.9609
-3.1037 -9.1451 -2.5005 0.9609
-2.7770 -9.2501 -2.5006 0.9609
-2.4471 -9.3433 -2.5007 0.9609
-1.4400 -9.5520 -2.5011 0.9609
-0.7585 -9.6312 -2.5014 0.9609
-0.4161 -9.6526 -2.5015 0.9609
-0.0731 -9.6618 -2.5017 0.9609
0.2700 -9.6588 -2.5018 0.9609
1.6351 -9.5254 -2.5024 0.9609
1.9723 -9.4619 -2.5025 0.9609
2.3072 -9.3864 -2.5026 0.9608
2.9678 -9.1999 -2.5029 0.9608
3.6135 -8.9671 -2.5032 0.9608
3.9298 -8.8335 -2.5033 0.9608
4.5473 -8.5332 -2.5035 0.9608
5.1419 -8.1898 -2.5038 0.9608
6.7592 -6.9190 -2.5044 0.9608
7.0009 -6.6750 -2.5045 0.9608
7.4575 -6.1617 -2.5047 0.9608
-5.0677 -7.2309 -2.4997 0.9640
-4.8080 -7.4066 -2.4998 0.9640
-4.5422 -7.5729 -2.4999 0.9640
-4.2706 -7.7298 -2.5000 0.9640
-3.9936 -7.8769 -2.5001 0.9640
-3.4249 -8.1412 -2.5003 0.9639
-3.1338 -8.2580 -2.5005 0.9639
-2.5401 -8.4604 -2.5007 0.9639
-2.2382 -8.5457 -2.5008 0.9639
-0.3806 -8.8283 -2.5016 0.9639
0.5604 -8.8201 -2.5019 0.9639
0.8733 -8.7950 -2.5021 0.9639
1.1851 -8.7589 -2.5022 0.9639
1.4954 -8.7118 -2.5023 0.9639
2.1101 -8.5845 -2.5026 0.9639
2.4136 -8.5046 -2.5027 0.9639
3.8788 -7.9464 -2.5033 0.9639
4.1587 -7.8040 -2.5034 0.9639
4.6885 -7.4677 -2.4962 0.9640
4.9546 -7.3024 -2.4982 0.9640
5.2071 -7.1168 -2.4964 0.9640
5.4729 -6.9483 -2.5039 0.9639
5.9526 -6.5428 -2.5041 0.9639
6.6153 -5.8734 -2.5044 0.9639
6.8199 -5.6350 -2.5044 0.9639
-4.6646 -6.6557 -2.4999 0.9666
-4.4255 -6.8174 -2.4999 0.9666
-3.9308 -7.1148 -2.5001 0.9666
-3.6759 -7.2502 -2.5002 0.9666
-3.4163 -7.3764 -2.5003 0.9666
-3.1524 -7.4934 -2.5005 0.9666
-2.8845 -7.6009 -2.5006 0.9665
-2.6129 -7.6989 -2.5007 0.9665
-2.3380 -7.7871 -2.5008 0.9665
-1.4968 -7.9927 -2.5011 0.9665
-1.2122 -8.0412 -2.5012 0.9665
-0.3503 -8.1256 -2.5016 0.9665
0.2273 -8.1307 -2.5018 0.9665
0.5158 -8.1179 -2.5019 0.9665
0.8038 -8.0948 -2.5020 0.9665
1.0907 -8.0615 -2.5021 0.9665
1.3763 -8.0181 -2.5023 0.9665
1.6602 -7.9645 -2.5024 0.9665
1.9421 -7.9009 -2.5025 0.9665
3.2980 -7.4133 -2.4956 0.9666
3.5593 -7.2918 -2.4957 0.9666
4.0681 -7.0214 -2.4959 0.9666
4.7922 -6.5498 -2.4962 0.9666
5.0220 -6.3757 -2.4963 0.9666
5.2609 -6.2120 -2.5038 0.9665
5.4784 -6.0215 -2.5039 0.9665
5.8922 -5.6179 -2.5041 0.9665
-3.6374 -6.5837 -2.5003 0.9688
-3.4015 -6.7090 -2.5004 0.9688
-3.1612 -6.8258 -2.5005 0.9688
-2.6691 -7.0335 -2.5006 0.9688
-2.4177 -7.1241 -2.5007 0.9688
-2.1633 -7.2058 -2.5008 0.9688
-1.3851 -7.3958 -2.5012 0.9688
-1.1216 -7.4407 -2.5013 0.9688
-0.8568 -7.4761 -2.5014 0.9688
-0.3241 -7.5187 -2.5016 0.9688
-0.0570 -7.5258 -2.5017 0.9688
0.2103 -7.5234 -2.5018 0.9688
0.4773 -7.5115 -2.5019 0.9688
1.0092 -7.4593 -2.5021 0.9688
1.5362 -7.3695 -2.5023 0.9688
2.8143 -6.9837 -2.5028 0.9688
3.3031 -6.7669 -2.5030 0.9688
4.0044 -6.3780 -2.5033 0.9688
4.2284 -6.2321 -2.5034 0.9688
4.4472 -6.0782 -2.5035 0.9688
4.8677 -5.7477 -2.5037 0.9688
5.0688 -5.5714 -2.5037 0.9687
5.4518 -5.1980 -2.5039 0.9687
-4.2130 -5.5789 -2.5000 0.9707
-4.0124 -5.7252 -2.5001 0.9707
-3.3812 -6.1200 -2.5004 0.9707
-3.1619 -6.2364 -2.5004 0.9707
-2.9386 -6.3450 -2.5005 0.9707
-2.4811 -6.5380 -2.5007 0.9707
-1.2875 -6.8747 -2.5012 0.9707
-0.7964 -6.9493 -2.5014 0.9707
-0.3013 -6.9889 -2.5016 0.9707
-0.0529 -6.9954 -2.5017 0.9707
0.1955 -6.9932 -2.5018 0.9707
0.4437 -6.9821 -2.5019 0.9707
0.9381 -6.9336 -2.5021 0.9707
1.1837 -6.8962 -2.5022 0.9707
1.4279 -6.8501 -2.5023 0.9707
1.9106 -6.7320 -2.5025 0.9707
2.1485 -6.6601 -2.5026 0.9707
2.6159 -6.4914 -2.5028 0.9707
3.9303 -5.7926 -2.5033 0.9707
4.5244 -5.3423 -2.5035 0.9707
4.7113 -5.1785 -2.5036 0.9707
4.8924 -5.0081 -2.5037 0.9707
5.2358 -4.6485 -2.5038 0.9707
5.3976 -4.4598 -2.5039 0.9707
-3.9316 -5.2063 -2.5001 0.9724
-3.7444 -5.3428 -2.5002 0.9724
-3.5525 -5.4725 -2.5003 0.9724
-3.3560 -5.5954 -2.5004 0.9724
-3.1553 -5.7112 -2.5005 0.9724
-2.9507 -5.8198 -2.5005 0.9724
-2.7423 -5.9211 -2.5006 0.9724
-2.3153 -6.1012 -2.5008 0.9724
-0.5125 -6.5075 -2.5015 0.9724
-0.0494 -6.5279 -2.5017 0.9724
0.1824 -6.5258 -2.5018 0.9724
0.8754 -6.4701 -2.5021 0.9724
1.3324 -6.3922 -2.5022 0.9724
1.5586 -6.3410 -2.5023 0.9724
2.0049 -6.2149 -2.5025 0.9724
2.4410 -6.0574 -2.5027 0.9724
2.6546 -5.9671 -2.5028 0.9724
3.2744 -5.6515 -2.5030 0.9724
3.4731 -5.5319 -2.5031 0.9724
3.8572 -5.2718 -2.5033 0.9724
4.2218 -4.9851 -2.5034 0.9724
4.3963 -4.8321 -2.5035 0.9724
4.5652 -4.6731 -2.5035 0.9724
4.7284 -4.5082 -2.5036 0.9724
4.8856 -4.3376 -2.5037 0.9724
-3.5061 -5.0028 -2.5003 0.9739
-3.3264 -5.1243 -2.5004 0.9739
-3.1425 -5.2393 -2.5005 0.9739
-2.5677 -5.5443 -2.5007 0.9739
-2.3694 -5.6321 -2.5008 0.9739
-2.1679 -5.7129 -2.5008 0.9739
-1.7572 -5.8527 -2.5010 0.9739
-1.5483 -5.9116 -2.5011 0.9739
-1.3375 -5.9631 -2.5012 0.9739
-0.9110 -6.0434 -2.5013 0.9739
-0.4799 -6.0932 -2.5015 0.9739
-0.2633 -6.1066 -2.5016 0.9739
0.3876 -6.1006 -2.5019 0.9739
0.6040 -6.0832 -2.5020 0.9739
1.0343 -6.0254 -2.5021 0.9739
1.2476 -5.9851 -2.5022 0.9739
2.4855 -5.5871 -2.5027 0.9739
2.6824 -5.4954 -2.5028 0.9739
3.4338 -5.0609 -2.5031 0.9739
4.4271 -4.2210 -2.5035 0.9739
4.5743 -4.0612 -2.5035 0.9739
-3.4574 -4.5783 -2.5003 0.9753
-3.2928 -4.6983 -2.5004 0.9753
-3.1239 -4.8124 -2.5005 0.9753
-2.9512 -4.9204 -2.5005 0.9753
-2.7747 -5.0222 -2.5006 0.9753
-2.2250 -5.2893 -2.5008 0.9753
-1.6502 -5.4964 -2.5011 0.9753
-1.4541 -5.5517 -2.5011 0.9753
-1.2561 -5.6000 -2.5012 0.9753
-0.2472 -5.7347 -2.5016 0.9753
0.5673 -5.7127 -2.5019 0.9753
0.7697 -5.6892 -2.5020 0.9753
0.9713 -5.6584 -2.5021 0.9753
1.1716 -5.6205 -2.5022 0.9753
1.3705 -5.5756 -2.5023 0.9753
1.7628 -5.4646 -2.5024 0.9753
1.9558 -5.3987 -2.5025 0.9753
2.1463 -5.3261 -2.5026 0.9753
2.5190 -5.1606 -2.5027 0.9753
2.7007 -5.0681 -2.5028 0.9753
2.8790 -4.9691 -2.5029 0.9753
3.0538 -4.8639 -2.5029 0.9753
3.2246 -4.7525 -2.5030 0.9753
3.5540 -4.5120 -2.5031 0.9753
4.4284 -3.6589 -2.5035 0.9752
-3.2553 -4.3107 -2.5004 0.9765
-3.1003 -4.4237 -2.5005 0.9765
-2.9413 -4.5311 -2.5005 0.9765
-2.7787 -4.6328 -2.5006 0.9765
-2.4430 -4.8186 -2.5007 0.9765
-2.2705 -4.9024 -2.5008 0.9765
-2.0950 -4.9800 -2.5009 0.9765
-1.9169 -5.0514 -2.5009 0.9765
-1.5538 -5.1750 -2.5011 0.9765
-1.1827 -5.2726 -2.5012 0.9765
-0.6153 -5.3689 -2.5015 0.9765
-0.2327 -5.3994 -2.5016 0.9765
-0.0409 -5.4044 -2.5017 0.9765
0.1510 -5.4026 -2.5018 0.9765
0.9145 -5.3275 -2.5021 0.9765
2.0208 -5.0145 -2.5025 0.9765
2.1976 -4.9397 -2.5026 0.9765
2.5427 -4.7716 -2.5027 0.9764
2.7106 -4.6784 -2.5028 0.9764
2.8751 -4.5794 -2.5029 0.9764
3.0360 -4.4745 -2.5029 0.9764
3.1930 -4.3640 -2.5030 0.9764
3.3460 -4.2480 -2.5030 0.9764
3.4948 -4.1266 -2.5031 0.9764
3.6392 -4.0000 -2.5032 0.9764
3.9141 -3.7318 -2.5033 0.9764
-3.0720 -4.0679 -2.5005 0.9775
-2.9257 -4.1746 -2.5005 0.9775
-2.7757 -4.2759 -2.5006 0.9775
-2.1426 -4.6263 -2.5009 0.9775
-1.9770 -4.6996 -2.5009 0.9775
-1.8090 -4.7669 -2.5010 0.9775
-1.6386 -4.8283 -2.5011 0.9775
-1.1160 -4.9755 -2.5013 0.9775
-0.7601 -5.0425 -2.5014 0.9775
-0.5806 -5.0664 -2.5015 0.9775
-0.4004 -5.0840 -2.5016 0.9775
-0.2196 -5.0952 -2.5016 0.9775
0.3234 -5.0901 -2.5018 0.9775
0.5040 -5.0755 -2.5019 0.9775
0.6839 -5.0546 -2.5020 0.9775
0.8629 -5.0273 -2.5021 0.9775
1.0409 -4.9936 -2.5021 0.9775
1.3928 -4.9074 -2.5023 0.9775
1.7376 -4.7965 -2.5024 0.9775
2.5578 -4.4147 -2.5027 0.9775
3.1574 -4.0085 -2.5030 0.9775
3.2978 -3.8940 -2.5030 0.9775
3.5660 -3.6503 -2.5031 0.9775
3.6934 -3.5214 -2.5032 0.9775
3.8162 -3.3882 -2.5032 0.9775
3.9342 -3.2506 -2.5033 0.9775
-2.7664 -3.9473 -2.5006 0.9785
-2.6246 -4.0431 -2.5007 0.9785
-2.4794 -4.1338 -2.5007 0.9785
-2.1799 -4.2996 -2.5008 0.9785
-1.3863 -4.6176 -2.5012 0.9785
-1.0552 -4.7046 -2.5013 0.9785
-0.7187 -4.7679 -2.5014 0.9785
-0.3786 -4.8071 -2.5016 0.9785
0.1348 -4.8205 -2.5018 0.9785
0.6466 -4.7793 -2.5020 0.9785
0.8159 -4.7534 -2.5020 0.9785
1.1513 -4.6838 -2.5022 0.9785
1.4808 -4.5905 -2.5023 0.9785
1.6429 -4.5352 -2.5024 0.9785
1.9608 -4.4074 -2.5025 0.9785
2.1161 -4.3351 -2.5026 0.9785
2.4185 -4.1742 -2.5027 0.9785
2.7087 -3.9922 -2.5028 0.9785
3.1181 -3.6818 -2.5030 0.9785
3.2469 -3.5688 -2.5030 0.9785
3.3717 -3.4514 -2.5031 0.9785
3.6082 -3.2035 -2.5032 0.9785
3.7197 -3.0734 -2.5032 0.9785
-2.4860 -3.8297 -2.5007 0.9794
-2.0648 -4.0726 -2.5009 0.9794
-1.7707 -4.2091 -2.5010 0.9794
-1.6202 -4.2694 -2.5011 0.9794
-1.4676 -4.3243 -2.5011 0.9794
-1.1571 -4.4178 -2.5013 0.9794
-0.9995 -4.4562 -2.5013 0.9794
-0.8407 -4.4890 -2.5014 0.9794
-0.5200 -4.5376 -2.5015 0.9794
-0.1967 -4.5632 -2.5016 0.9794
-0.0346 -4.5675 -2.5017 0.9794
0.4514 -4.5456 -2.5019 0.9794
0.6125 -4.5268 -2.5020 0.9794
1.2473 -4.3950 -2.5022 0.9794
1.4026 -4.3480 -2.5023 0.9794
1.5562 -4.2956 -2.5023 0.9794
1.7077 -4.2377 -2.5024 0.9794
1.8572 -4.1745 -2.5025 0.9794
2.1488 -4.0324 -2.5026 0.9794
2.2907 -3.9537 -2.5026 0.9794
2.4297 -3.8699 -2.5027 0.9794
2.5656 -3.7813 -2.5027 0.9794
2.6983 -3.6879 -2.5028 0.9794
3.3076 -3.1536 -2.5030 0.9794
3.4176 -3.0342 -2.5031 0.9794
3.5232 -2.9110 -2.5031 0.9794
-2.4859 -3.5470 -2.5007 0.9802
-2.3584 -3.6331 -2.5008 0.9802
-2.2279 -3.7146 -2.5008 0.9802
-2.0947 -3.7915 -2.5009 0.9802
-1.2458 -4.1492 -2.5012 0.9802
-0.7975 -4.2585 -2.5014 0.9802
-0.6458 -4.2842 -2.5015 0.9802
-0.4933 -4.3046 -2.5015 0.9802
0.7332 -4.2711 -2.5020 0.9802
0.8844 -4.2425 -2.5021 0.9802
1.1833 -4.1693 -2.5022 0.9802
1.3306 -4.1247 -2.5022 0.9802
1.4762 -4.0750 -2.5023 0.9802
2.3049 -3.6711 -2.5026 0.9802
2.4338 -3.5870 -2.5027 0.9802
2.6824 -3.4054 -2.5028 0.9802
2.8016 -3.3081 -2.5028 0.9802
2.9174 -3.2066 -2.5029 0.9802
3.0294 -3.1010 -2.5029 0.9802
3.1377 -2.9916 -2.5030 0.9802
3.2420 -2.8783 -2.5030 0.9802
