ply
format ascii 1.0
element vertex 600
property float32 x
property float32 y
property float32 z
property float32 I
end_header
-8.8479 14.8784 3.0523 0.9321
-9.6635 14.9877 3.1444 0.9301
-11.2393 14.9374 3.2962 0.9269
-12.9488 9.5663 2.8387 0.9367
-7.4307 14.8435 2.5430 0.9350
-8.8479 14.8784 2.6519 0.9323
-9.6051 14.8971 2.7154 0.9308
-10.4004 14.9167 2.7858 0.9291
-33.4160 22.8658 6.2029 0.8489
-33.4412 19.4918 5.9297 0.8550
-33.4352 14.8983 5.6076 0.8623
-33.4328 12.0832 5.4460 0.8660
-33.8412 10.8637 5.4449 0.8660
-7.4307 14.8435 2.1616 0.9352
-8.8479 14.8784 2.2542 0.9326
-9.6051 14.8971 2.3082 0.9310
-10.4004 14.9167 2.3680 0.9293
-33.4161 22.8658 5.2727 0.8493
-33.4411 19.4918 5.0405 0.8554
-33.4594 16.3845 4.8515 0.8605
-33.4355 14.8984 4.7667 0.8627
-32.8944 13.2528 4.6181 0.8667
-33.8414 10.8637 4.6284 0.8664
-41.1468 9.9935 5.5139 0.8430
-9.6051 14.8971 1.9034 0.9312
-33.2898 32.9991 5.0334 0.8281
-33.3391 30.7381 4.8694 0.8332
-33.3772 28.6101 4.7206 0.8379
-33.4411 19.4918 4.1564 0.8558
-33.4586 16.3842 4.0005 0.8608
-33.4358 14.8985 3.9307 0.8631
-33.4334 12.0835 3.8174 0.8667
-41.1504 9.9943 4.5473 0.8434
-35.2300 -12.4889 4.0137 0.8604
-7.4307 14.8434 1.4052 0.9355
-8.1245 14.8606 1.4337 0.9343
-33.3760 28.6090 3.7213 0.8382
-33.3589 26.5627 3.6098 0.8427
-33.3923 24.6694 3.5145 0.8465
-33.4162 22.8659 3.4276 0.8500
-33.4455 21.1513 3.3499 0.8531
-33.4473 17.9068 3.2116 0.8587
-32.8328 13.2280 2.9965 0.8675
-35.8736 10.1001 3.1549 0.8610
-8.1245 14.8606 1.0502 0.9344
-9.6635 14.9877 1.1058 0.9310
-10.4004 14.9167 1.1276 0.9297
-11.2392 14.9374 1.1592 0.9278
-13.2429 14.1131 1.2001 0.9254
-33.3414 30.7402 2.8121 0.8338
-33.3747 28.6080 2.7258 0.8385
-33.3923 24.6694 2.5744 0.8467
-33.4163 22.8660 2.5108 0.8502
-33.4455 21.1513 2.4539 0.8533
-33.4410 19.4917 2.4002 0.8563
-33.4466 17.9064 2.3526 0.8589
-33.4365 14.8988 2.2699 0.8635
-33.4341 12.0837 2.2045 0.8672
-41.1576 9.9961 2.6264 0.8439
-7.4307 14.8434 0.6545 0.9357
-8.1245 14.8606 0.6678 0.9344
-11.5963 13.2908 0.6955 0.9318
-33.2934 33.0027 1.8485 0.8289
-33.3590 26.5627 1.6814 0.8431
-33.3924 24.6695 1.6371 0.8469
-33.4164 22.8660 1.5966 0.8504
-33.4455 21.1513 1.5604 0.8535
-33.4410 19.4917 1.5263 0.8565
-33.4368 14.8990 1.4434 0.8637
-33.4344 12.0838 1.4018 0.8673
-33.8423 10.8640 1.4015 0.8674
-41.1611 9.9970 1.6702 0.8440
-8.1244 14.8606 0.2861 0.9345
-10.4004 14.9167 0.3072 0.9298
-29.4714 36.3529 0.7905 0.8293
-13.1244 15.0422 0.3372 0.9232
-12.0340 12.8247 0.2971 0.9321
-12.9608 12.8476 0.3083 0.9296
-33.3437 30.7424 0.7661 0.8341
-33.3590 26.5627 0.7203 0.8432
-33.4164 22.8661 0.6840 0.8505
-33.4454 21.1513 0.6685 0.8536
-33.4410 19.4917 0.6538 0.8565
-33.4558 16.3828 0.6292 0.8615
-33.8426 10.8641 0.6004 0.8675
-41.1647 9.9978 0.7156 0.8441
-48.8729 10.0127 0.8427 0.8191
-8.1245 14.8606 -0.0954 0.9345
-9.5697 14.8422 -0.0994 0.9318
-25.5148 31.4725 -0.2281 0.8504
-13.1246 15.0424 -0.1124 0.9233
-13.2013 13.0860 -0.1047 0.9283
-33.1457 30.5598 -0.2538 0.8350
-33.3590 26.5627 -0.2401 0.8432
-33.3924 24.6695 -0.2337 0.8470
-33.4409 19.4917 -0.2179 0.8566
-33.4552 16.3824 -0.2097 0.8616
-33.4375 14.8993 -0.2061 0.8638
-41.1682 9.9987 -0.2385 0.8441
-48.8637 10.0108 -0.2809 0.8191
-7.4307 14.8434 -0.4674 0.9357
-8.8479 14.8784 -0.4874 0.9331
-9.6050 14.8971 -0.4991 0.9315
-13.1248 15.0426 -0.5621 0.9232
-28.6494 26.4143 -1.0973 0.8556
-30.5374 26.1760 -1.1325 0.8513
-33.3925 24.6695 -1.1690 0.8469
-33.4166 22.8662 -1.1401 0.8504
-33.4454 21.1513 -1.1143 0.8535
-33.4438 17.9049 -1.0682 0.8592
-33.8431 10.8643 -1.0008 0.8674
-35.8741 10.1003 -1.0494 0.8615
-41.1718 9.9996 -1.1930 0.8441
-48.8547 10.0090 -1.4043 0.8191
-8.8479 14.8784 -0.8779 0.9330
-11.2392 14.9374 -0.9480 0.9279
-11.5316 14.2243 -0.9286 0.9293
-13.0850 14.9970 -1.0094 0.9234
-13.2013 13.0860 -0.9427 0.9283
-24.0751 22.1969 -1.6607 0.8771
-26.9229 21.4379 -1.7454 0.8712
-31.9101 18.5994 -1.8731 0.8625
-33.4430 17.9045 -1.9238 0.8590
-35.8742 10.1003 -1.8901 0.8613
-41.1754 10.0004 -2.1489 0.8439
-45.0392 9.2273 -2.3316 0.8318
-48.2826 8.0840 -2.4827 0.8220
-48.7373 4.5715 -2.4825 0.8220
-48.8697 2.8054 -2.4825 0.8220
-48.9441 -0.7354 -2.4824 0.8220
-48.8859 -2.5055 -2.4825 0.8220
-48.7641 -4.2724 -2.4825 0.8220
-48.5792 -6.0339 -2.4826 0.8220
-48.0201 -9.5315 -2.4828 0.8219
-43.3453 -15.3657 -2.3322 0.8318
-7.4307 14.8434 -1.2171 0.9356
-9.6050 14.8971 -1.2996 0.9314
-10.4004 14.9167 -1.3333 0.9297
-11.2392 14.9374 -1.3706 0.9278
-11.5316 14.2242 -1.3426 0.9292
-13.1978 14.0650 -1.4142 0.9256
-13.2013 13.0860 -1.3629 0.9282
-21.2986 18.2567 -2.0569 0.8936
-23.4001 17.2874 -2.1332 0.8899
-26.5995 15.5040 -2.2575 0.8838
-28.5828 13.9965 -2.3335 0.8802
-29.6034 13.1909 -2.3763 0.8781
-12.9809 5.2299 -1.0261 0.9454
-32.9941 8.0134 -2.4895 0.8727
-33.2597 6.8140 -2.4893 0.8727
-33.8857 1.9453 -2.4887 0.8727
-33.9321 0.7181 -2.4885 0.8727
-33.8929 -1.7371 -2.4884 0.8727
-33.8084 -2.9621 -2.4884 0.8727
-33.5073 -5.3991 -2.4885 0.8727
-32.7292 -8.9985 -2.4888 0.8727
-32.3840 -10.1772 -2.4890 0.8727
-7.4307 14.8434 -1.5936 0.9355
-8.1244 14.8606 -1.6260 0.9342
-10.4004 14.9167 -1.7458 0.9295
-11.2392 14.9374 -1.7947 0.9276
-13.2013 13.0860 -1.7845 0.9280
-17.1446 15.8071 -2.2388 0.9105
-17.9245 15.3645 -2.2665 0.9095
-18.6725 14.8684 -2.2915 0.9085
-20.1322 13.7760 -2.3420 0.9066
-20.9053 13.2208 -2.3747 0.9054
-22.3087 11.9435 -2.4294 0.9033
-22.8617 11.1950 -2.4439 0.9028
-12.3946 5.5229 -1.3027 0.9469
-12.4231 5.0051 -1.2858 0.9476
-12.4511 4.5001 -1.2710 0.9482
-13.4411 4.3149 -1.3553 0.9449
-25.2267 6.1269 -2.4923 0.9009
-25.9488 -0.3899 -2.4915 0.9010
-25.9178 -1.3283 -2.4915 0.9010
-25.7547 -3.1989 -2.4916 0.9010
-25.6226 -4.1286 -2.4916 0.9010
-25.4571 -5.0529 -2.4917 0.9010
-25.2585 -5.9708 -2.4918 0.9010
-24.7626 -7.7820 -2.4920 0.9010
-7.4307 14.8434 -1.9718 0.9353
-8.8479 14.8784 -2.0562 0.9326
-10.4004 14.9167 -2.1601 0.9294
-11.2336 14.9300 -2.2194 0.9275
-11.4575 14.1328 -2.1612 0.9293
-11.5042 13.1852 -2.0786 0.9319
-13.2013 13.0860 -2.2080 0.9279
-13.9156 12.8300 -2.2483 0.9266
-14.4994 12.4285 -2.2685 0.9260
-17.5318 11.0874 -2.4640 0.9198
-18.4373 9.8708 -2.4842 0.9192
-18.8729 9.2418 -2.4962 0.9188
-11.9864 4.3321 -1.5140 0.9500
-13.2337 4.2483 -1.6510 0.9456
-20.5680 4.2138 -2.4939 0.9189
-20.7060 3.4669 -2.4938 0.9189
-20.9573 1.2031 -2.4935 0.9189
-20.9636 -1.0744 -2.4935 0.9189
-20.4299 -4.8293 -2.4937 0.9189
-20.2424 -5.5654 -2.4937 0.9189
-20.0285 -6.2943 -2.4938 0.9189
-19.7885 -7.0150 -2.4939 0.9189
-7.0172 14.0174 -2.2211 0.9386
-8.4923 13.1712 -2.2205 0.9387
-9.8668 12.1707 -2.2200 0.9387
-10.7193 11.4237 -2.2196 0.9387
-11.1248 11.0276 -2.2195 0.9387
-11.5156 10.6172 -2.2193 0.9387
-12.9602 10.3198 -2.3474 0.9353
-13.3152 9.8370 -2.3456 0.9353
-13.6524 9.3420 -2.3439 0.9354
-15.5293 8.3140 -2.4958 0.9313
-11.6555 5.7075 -1.8388 0.9489
-13.2021 4.2381 -1.9646 0.9455
-17.1128 4.1563 -2.4952 0.9313
-17.5786 1.0091 -2.4948 0.9313
-17.6054 -0.2645 -2.4948 0.9313
-17.5404 -1.5368 -2.4948 0.9313
-17.4735 -2.1703 -2.4948 0.9313
-17.3838 -2.8011 -2.4949 0.9313
-17.1364 -4.0508 -2.4950 0.9313
-16.9791 -4.6682 -2.4950 0.9313
-16.5981 -5.8840 -2.4952 0.9313
-6.4682 11.8310 -2.2213 0.9468
-6.8914 11.5884 -2.2211 0.9468
-10.1108 10.0226 -2.3453 0.9439
-10.4662 9.6497 -2.3452 0.9439
-10.8078 9.2642 -2.3451 0.9439
-11.4489 8.4582 -2.3450 0.9439
-12.1787 8.3336 -2.4311 0.9419
-12.8088 8.1004 -2.4967 0.9404
-13.0930 7.6315 -2.4966 0.9404
-13.3600 7.1526 -2.4965 0.9404
-11.5934 5.6771 -2.1266 0.9490
-11.4877 4.6283 -2.0403 0.9510
-11.7116 4.2328 -2.0515 0.9508
-14.4269 4.6313 -2.4961 0.9404
-14.7234 3.5759 -2.4960 0.9404
-14.9428 2.5019 -2.4959 0.9404
-15.0837 1.4149 -2.4958 0.9404
-15.1248 0.8683 -2.4958 0.9404
-15.1463 0.3205 -2.4957 0.9404
-15.1479 -0.2276 -2.4957 0.9404
-15.0920 -1.3223 -2.4958 0.9404
-14.8604 -2.9496 -2.4959 0.9404
-14.7443 -3.4854 -2.4959 0.9404
-14.6089 -4.0165 -2.4960 0.9404
-14.4544 -4.5425 -2.4960 0.9404
-5.2913 10.5698 -2.2218 0.9530
-7.1400 10.2406 -2.3465 0.9505
-7.8608 9.6963 -2.3462 0.9505
-8.5404 9.1016 -2.3459 0.9505
-9.1751 8.4593 -2.3457 0.9505
-10.2936 8.1965 -2.4732 0.9479
-10.6872 7.8954 -2.4975 0.9474
-11.9311 5.8425 -2.4970 0.9474
-11.7516 4.2473 -2.3487 0.9504
-12.6477 4.0602 -2.4968 0.9474
-12.7861 3.5999 -2.4967 0.9474
-12.9078 3.1350 -2.4967 0.9474
-13.0125 2.6659 -2.4967 0.9474
-13.2240 1.2404 -2.4965 0.9474
-13.2789 0.2810 -2.4965 0.9474
-13.2645 -0.6798 -2.4965 0.9474
-13.1808 -1.6372 -2.4965 0.9474
-13.0283 -2.5860 -2.4966 0.9474
-12.6722 -3.9824 -2.4967 0.9474
-12.5201 -4.4383 -2.4968 0.9474
-5.6754 9.5436 -2.3471 0.9556
-6.0165 9.3315 -2.3469 0.9556
-6.3498 9.1072 -2.3468 0.9556
-6.6748 8.8711 -2.3467 0.9556
-7.7073 8.2138 -2.3809 0.9550
-8.2710 8.1988 -2.4617 0.9535
-8.6893 8.0114 -2.4983 0.9528
-8.9730 7.6915 -2.4982 0.9528
-9.2450 7.3615 -2.4981 0.9528
-9.5049 7.0220 -2.4980 0.9528
-9.7523 6.6733 -2.4979 0.9528
-9.9870 6.3159 -2.4978 0.9528
-10.2086 5.9503 -2.4977 0.9528
-10.4168 5.5769 -2.4976 0.9528
-11.1110 4.0157 -2.4973 0.9528
-11.3718 3.2017 -2.4972 0.9528
-11.5732 2.3711 -2.4972 0.9528
-11.7141 1.5280 -2.4971 0.9529
-11.8105 0.2499 -2.4971 0.9529
-11.8118 -0.1775 -2.4971 0.9529
-11.7681 -1.0310 -2.4971 0.9529
-11.7232 -1.4561 -2.4971 0.9529
-11.5875 -2.3000 -2.4972 0.9528
-11.4969 -2.7177 -2.4972 0.9528
-11.3912 -3.1319 -2.4972 0.9528
-4.4713 8.9319 -2.3475 0.9598
-4.7913 8.7638 -2.3474 0.9598
-5.1049 8.5843 -2.3473 0.9598
-6.1757 8.2077 -2.4141 0.9587
-6.9904 8.0119 -2.4990 0.9573
-8.0715 6.9187 -2.4985 0.9573
-8.3162 6.6219 -2.4984 0.9573
-9.1831 5.3525 -2.4981 0.9573
-9.9950 3.6124 -2.4978 0.9573
-10.1189 3.2484 -2.4977 0.9573
-10.2296 2.8802 -2.4977 0.9573
-10.4108 2.1329 -2.4976 0.9573
-10.6093 0.6090 -2.4975 0.9573
-10.6128 -0.5439 -2.4975 0.9573
-10.5458 -1.3099 -2.4976 0.9573
-10.4916 -1.6905 -2.4976 0.9573
-10.3421 -2.4448 -2.4976 0.9573
-10.0169 -3.5510 -2.4978 0.9573
-5.2315 8.1139 -2.4997 0.9609
-5.5213 7.9190 -2.4995 0.9609
-5.8039 7.7137 -2.4994 0.9609
-6.0789 7.4984 -2.4993 0.9609
-6.3459 7.2732 -2.4992 0.9609
-6.6046 7.0386 -2.4991 0.9609
-6.8547 6.7948 -2.4990 0.9609
-7.5497 6.0116 -2.4987 0.9609
-7.7619 5.7343 -2.4987 0.9609
-8.1557 5.1578 -2.4985 0.9609
-8.3367 4.8592 -2.4984 0.9609
-8.6657 4.2435 -2.4983 0.9609
-8.8134 3.9272 -2.4982 0.9609
-9.0739 3.2795 -2.4981 0.9609
-9.1864 2.9490 -2.4981 0.9609
-9.2870 2.6147 -2.4981 0.9609
-9.3753 2.2770 -2.4980 0.9609
-9.4515 1.9364 -2.4980 0.9609
-9.5152 1.5932 -2.4980 0.9609
-9.5666 1.2479 -2.4979 0.9609
-9.6317 0.5529 -2.4979 0.9609
-9.6453 0.2041 -2.4979 0.9609
-9.6349 -0.4938 -2.4979 0.9609
-9.6107 -0.8420 -2.4979 0.9609
-9.5740 -1.1892 -2.4979 0.9609
-9.5248 -1.5347 -2.4980 0.9609
-9.4632 -1.8783 -2.4980 0.9609
-9.2044 -2.8926 -2.4981 0.9609
-9.0938 -3.2237 -2.4981 0.9609
-3.9534 7.8973 -2.5002 0.9640
-5.0502 7.2433 -2.4997 0.9640
-5.3087 7.0555 -2.4996 0.9640
-6.2699 6.2151 -2.4992 0.9640
-6.7024 5.7452 -2.4991 0.9640
-7.4600 4.7178 -2.4988 0.9640
-8.3000 2.9998 -2.4984 0.9640
-8.4030 2.6975 -2.4984 0.9640
-8.4950 2.3917 -2.4984 0.9640
-8.7508 1.1415 -2.4983 0.9640
-8.7863 0.8242 -2.4983 0.9640
-8.8103 0.5058 -2.4982 0.9640
-8.8228 0.1867 -2.4982 0.9640
-8.7576 -1.0878 -2.4983 0.9640
-8.7125 -1.4039 -2.4983 0.9640
-8.6561 -1.7181 -2.4983 0.9640
-8.5884 -2.0302 -2.4983 0.9640
-8.5094 -2.3396 -2.4984 0.9640
-8.4194 -2.6459 -2.4984 0.9640
-8.3183 -2.9488 -2.4984 0.9640
-3.8993 7.1323 -2.5002 0.9666
-4.1546 6.9862 -2.5001 0.9666
-4.4044 6.8311 -2.5000 0.9666
-5.1180 6.3130 -2.4997 0.9666
-5.3428 6.1236 -2.4996 0.9666
-5.9742 5.5081 -2.4994 0.9666
-6.1693 5.2882 -2.4993 0.9666
-6.5352 4.8281 -2.4991 0.9666
-6.7054 4.5884 -2.4991 0.9666
-6.8668 4.3427 -2.4990 0.9666
-7.0192 4.0913 -2.4989 0.9666
-7.1625 3.8346 -2.4989 0.9666
-7.2963 3.5729 -2.4988 0.9666
-7.4207 3.3066 -2.4988 0.9666
-7.5353 3.0359 -2.4987 0.9666
-7.6401 2.7613 -2.4987 0.9666
-7.8940 1.9172 -2.4986 0.9666
-7.9581 1.6304 -2.4986 0.9666
-8.0550 1.0507 -2.4985 0.9666
-8.0877 0.7586 -2.4985 0.9666
-8.1213 0.1719 -2.4985 0.9666
-8.1223 -0.1220 -2.4985 0.9666
-8.0613 -1.0013 -2.4985 0.9666
-7.6569 -2.7143 -2.4987 0.9666
-3.8445 6.4648 -2.5002 0.9688
-4.0757 6.3212 -2.5001 0.9688
-4.7360 5.8419 -2.4998 0.9688
-5.1457 5.4838 -2.4997 0.9688
-5.7089 4.8936 -2.4995 0.9688
-5.8821 4.6838 -2.4994 0.9688
-6.0475 4.4678 -2.4993 0.9688
-6.7520 3.3063 -2.4991 0.9688
-6.9731 2.8094 -2.4990 0.9688
-7.2362 2.0373 -2.4989 0.9688
-7.3050 1.7742 -2.4988 0.9688
-7.4141 1.2414 -2.4988 0.9688
-7.4541 0.9723 -2.4988 0.9688
-7.5155 0.1591 -2.4988 0.9688
-7.5163 -0.1129 -2.4988 0.9688
-7.4599 -0.9266 -2.4988 0.9688
-7.3735 -1.4635 -2.4988 0.9688
-7.3158 -1.7294 -2.4988 0.9688
-7.2485 -1.9929 -2.4989 0.9688
-7.1717 -2.2538 -2.4989 0.9688
-7.0856 -2.5118 -2.4989 0.9688
-3.1300 6.2525 -2.5005 0.9707
-3.3541 6.1350 -2.5004 0.9707
-3.5737 6.0094 -2.5003 0.9707
-4.2033 5.5864 -2.5001 0.9707
-4.4024 5.4305 -2.5000 0.9707
-5.1391 4.7382 -2.4997 0.9707
-5.3070 4.5490 -2.4996 0.9707
-5.4679 4.3540 -2.4996 0.9707
-5.7681 3.9470 -2.4994 0.9707
-5.9070 3.7357 -2.4994 0.9707
-6.2766 3.0736 -2.4992 0.9707
-6.3836 2.8445 -2.4992 0.9707
-6.4822 2.6116 -2.4992 0.9707
-6.7267 1.8939 -2.4991 0.9707
-6.7908 1.6493 -2.4990 0.9707
-6.8460 1.4026 -2.4990 0.9708
-6.8921 1.1540 -2.4990 0.9708
-6.9788 -0.3577 -2.4990 0.9708
-6.9613 -0.6099 -2.4990 0.9708
-6.7382 -1.8526 -2.4991 0.9707
-6.6669 -2.0952 -2.4991 0.9707
-2.9210 5.8349 -2.5006 0.9724
-3.9225 5.2133 -2.5002 0.9724
-4.2890 4.9157 -2.5000 0.9724
-4.7959 4.4218 -2.4998 0.9724
-4.9526 4.2453 -2.4998 0.9724
-5.1028 4.0632 -2.4997 0.9724
-5.3830 3.6835 -2.4996 0.9724
-5.5126 3.4863 -2.4995 0.9724
-5.6350 3.2845 -2.4995 0.9724
-5.7500 3.0784 -2.4994 0.9724
-6.0494 2.4373 -2.4993 0.9724
-6.1335 2.2168 -2.4993 0.9724
-6.2096 1.9934 -2.4993 0.9724
-6.4320 1.0769 -2.4992 0.9725
-6.4930 0.6090 -2.4992 0.9725
-6.5107 0.3738 -2.4991 0.9725
-6.5200 0.1380 -2.4991 0.9725
-6.5129 -0.3338 -2.4991 0.9725
-6.4385 -1.0375 -2.4992 0.9725
-6.3467 -1.5003 -2.4992 0.9725
-6.2217 -1.9553 -2.4993 0.9724
-6.1470 -2.1791 -2.4993 0.9724
-3.1228 5.2512 -2.5005 0.9739
-3.4940 5.0113 -2.5003 0.9739
-3.6730 4.8815 -2.5003 0.9739
-4.0161 4.6029 -2.5001 0.9739
-4.3381 4.3003 -2.5000 0.9739
-4.6375 3.9752 -2.4999 0.9739
-4.9126 3.6293 -2.4998 0.9739
-5.3843 2.8826 -2.4996 0.9739
-5.4849 2.6859 -2.4996 0.9739
-5.6646 2.2822 -2.4995 0.9740
-5.8147 1.8666 -2.4994 0.9740
-5.9343 1.4413 -2.4994 0.9740
-6.0800 0.5703 -2.4993 0.9740
-6.0966 0.3500 -2.4993 0.9740
-6.0987 -0.3126 -2.4993 0.9740
-6.0834 -0.5330 -2.4993 0.9740
-6.0601 -0.7527 -2.4993 0.9740
-5.8260 -1.8309 -2.4994 0.9740
-2.5686 5.1310 -2.5007 0.9753
-2.7524 5.0345 -2.5006 0.9753
-3.1090 4.8221 -2.5005 0.9753
-3.4494 4.5844 -2.5004 0.9753
-3.7716 4.3228 -2.5002 0.9753
-4.0741 4.0386 -2.5001 0.9753
-4.2175 3.8884 -2.5001 0.9753
-4.3553 3.7333 -2.5000 0.9753
-4.7338 3.2392 -2.4998 0.9753
-4.8478 3.0658 -2.4998 0.9753
-5.0566 2.7072 -2.4997 0.9753
-5.1512 2.5225 -2.4997 0.9753
-5.2390 2.3344 -2.4996 0.9753
-5.3199 2.1433 -2.4996 0.9753
-5.5206 1.5543 -2.4995 0.9753
-5.6185 1.1511 -2.4995 0.9753
-5.6869 0.7418 -2.4995 0.9753
-5.7100 0.5356 -2.4995 0.9753
-5.7257 0.3287 -2.4995 0.9753
-5.7338 0.1213 -2.4995 0.9753
-5.7344 -0.0862 -2.4995 0.9753
-5.7276 -0.2935 -2.4995 0.9753
-5.6914 -0.7069 -2.4995 0.9753
-5.5814 -1.3194 -2.4995 0.9753
-5.4715 -1.7195 -2.4996 0.9753
-5.4058 -1.9163 -2.4996 0.9753
-2.5915 4.7402 -2.5007 0.9765
-2.7612 4.6433 -2.5006 0.9765
-2.9273 4.5402 -2.5006 0.9765
-3.0896 4.4312 -2.5005 0.9765
-3.2478 4.3165 -2.5004 0.9765
-3.4017 4.1960 -2.5004 0.9765
-3.9710 3.6612 -2.5001 0.9765
-4.1008 3.5151 -2.5001 0.9765
-4.3440 3.2093 -2.5000 0.9765
-5.0091 2.0181 -2.4997 0.9765
-5.1418 1.6506 -2.4997 0.9765
-5.1981 1.4635 -2.4997 0.9765
-5.2476 1.2745 -2.4996 0.9765
-5.3911 0.3095 -2.4996 0.9765
-5.3994 -0.0811 -2.4996 0.9765
-5.3588 -0.6656 -2.4996 0.9765
-5.2070 -1.4316 -2.4997 0.9765
-2.2822 4.5589 -2.5008 0.9775
-2.9156 4.1817 -2.5006 0.9775
-3.0649 4.0734 -2.5005 0.9775
-3.2101 3.9597 -2.5004 0.9775
-3.3512 3.8409 -2.5004 0.9775
-3.4879 3.7171 -2.5003 0.9775
-3.6200 3.5884 -2.5003 0.9775
-3.8698 3.3172 -2.5002 0.9775
-3.9872 3.1749 -2.5001 0.9775
-4.0994 3.0286 -2.5001 0.9775
-4.4032 2.5665 -2.5000 0.9775
-4.4931 2.4055 -2.4999 0.9775
-4.5771 2.2413 -2.4999 0.9775
-4.6551 2.0743 -2.4999 0.9776
-4.7928 1.7322 -2.4998 0.9776
-4.9924 1.0228 -2.4997 0.9776
-5.0261 0.8415 -2.4997 0.9776
-5.0876 0.2921 -2.4997 0.9776
-5.0948 0.1078 -2.4997 0.9776
-5.0954 -0.0766 -2.4997 0.9776
-5.0893 -0.2608 -2.4997 0.9776
-4.9594 -1.1723 -2.4998 0.9776
-4.9138 -1.3510 -2.4998 0.9776
-4.8617 -1.5279 -2.4998 0.9776
-4.8033 -1.7028 -2.4998 0.9776
-2.1579 4.3107 -2.5009 0.9785
-2.3124 4.2297 -2.5008 0.9785
-2.7568 3.9540 -2.5006 0.9785
-3.0354 3.7442 -2.5005 0.9785
-3.2980 3.5147 -2.5004 0.9785
-3.6592 3.1366 -2.5003 0.9785
-3.8763 2.8637 -2.5002 0.9785
-3.9773 2.7216 -2.5001 0.9785
-4.0730 2.5759 -2.5001 0.9785
-4.1635 2.4268 -2.5001 0.9785
-4.2485 2.2746 -2.5000 0.9785
-4.4698 1.8008 -2.5000 0.9785
-4.5882 1.4729 -2.4999 0.9785
-4.6384 1.3060 -2.4999 0.9785
-4.6826 1.1373 -2.4999 0.9785
-4.7525 0.7957 -2.4998 0.9785
-4.7782 0.6233 -2.4998 0.9785
-4.8181 -0.0724 -2.4998 0.9785
-4.8003 -0.4206 -2.4998 0.9785
-4.7819 -0.5939 -2.4998 0.9785
-4.6895 -1.1085 -2.4999 0.9785
-4.5419 -1.6101 -2.4999 0.9785
-3.1239 3.3292 -2.5005 0.9794
-3.2423 3.2140 -2.5004 0.9794
-3.4660 2.9710 -2.5003 0.9794
-3.5712 2.8437 -2.5003 0.9794
-3.6717 2.7126 -2.5003 0.9794
-3.7673 2.5779 -2.5002 0.9794
-3.8580 2.4399 -2.5002 0.9794
-3.9437 2.2987 -2.5002 0.9794
-4.3460 1.3952 -2.5000 0.9794
-4.3936 1.2370 -2.5000 0.9794
-4.5444 0.4263 -2.4999 0.9794
-4.5568 0.2616 -2.4999 0.9794
-4.5583 -0.2336 -2.4999 0.9794
-4.5296 -0.5626 -2.4999 0.9794
-4.5062 -0.7261 -2.4999 0.9794
-4.4770 -0.8886 -2.5000 0.9794
-4.4420 -1.0500 -2.5000 0.9794
-4.3545 -1.3685 -2.5000 0.9794
-4.3022 -1.5251 -2.5000 0.9794
-1.9391 3.8735 -2.5009 0.9802
-2.0779 3.8008 -2.5009 0.9802
-2.2140 3.7230 -2.5008 0.9802
-2.4773 3.5530 -2.5007 0.9802
-2.6041 3.4610 -2.5007 0.9802
-2.9636 3.1583 -2.5005 0.9802
-3.1841 2.9357 -2.5005 0.9802
-3.3879 2.6977 -2.5004 0.9802
-3.5740 2.4456 -2.5003 0.9802
-3.8892 1.9045 -2.5002 0.9802
-4.0725 1.4719 -2.5001 0.9802
-4.1230 1.3236 -2.5001 0.9802
-4.1682 1.1736 -2.5001 0.9802
-4.2421 0.8691 -2.5000 0.9802
-4.2707 0.7151 -2.5000 0.9802
-4.2938 0.5601 -2.5000 0.9802
-4.3112 0.4044 -2.5000 0.9802
-4.3291 0.0916 -2.5000 0.9802
-4.3296 -0.0650 -2.5000 0.9802
-4.2971 -0.5337 -2.5000 0.9802
-4.2750 -0.6888 -2.5000 0.9802
-4.2473 -0.8430 -2.5000 0.9802
-4.1753 -1.1479 -2.5001 0.9802
-4.0814 -1.4469 -2.5001 0.9802
