ply
format ascii 1.0
element vertex 476
property float32 x
property float32 y
property float32 z
property float32 I
end_header
43.8353 -17.7112 4.0022 0.8271
28.7573 -40.3307 -2.5120 0.8201
34.1967 -35.8880 -2.5140 0.8199
38.9531 -30.7139 -2.5157 0.8198
41.0439 -27.8846 -2.5164 0.8198
42.0126 -26.4156 -2.5168 0.8197
42.9282 -24.9125 -2.5171 0.8197
44.5964 -21.8131 -2.5177 0.8197
45.3466 -20.2204 -2.5180 0.8197
47.2500 -15.2951 -2.5187 0.8196
48.6046 -10.1909 -2.5185 0.8196
48.6069 -8.4045 -2.5016 0.8207
48.6098 -4.8915 -2.4777 0.8223
48.6097 0.2963 -2.4653 0.8231
48.6086 2.0212 -2.4673 0.8230
48.6068 3.7511 -2.4724 0.8226
48.5980 9.0144 -2.5067 0.8204
48.0718 12.4967 -2.5190 0.8196
17.7368 -26.8395 -2.3588 0.8789
20.5030 -24.8245 -2.3607 0.8789
21.3758 -24.0882 -2.3613 0.8788
22.2221 -23.3212 -2.3620 0.8788
23.0407 -22.5243 -2.3625 0.8788
23.7775 -21.6502 -2.3579 0.8790
26.8962 -21.2072 -2.5114 0.8716
28.3371 -19.2518 -2.5119 0.8716
29.6357 -17.1985 -2.5124 0.8716
31.3017 -13.9577 -2.5129 0.8716
33.2823 -8.2202 -2.5137 0.8715
33.9703 -4.6400 -2.5139 0.8715
34.2575 1.4245 -2.5140 0.8715
34.1852 2.6381 -2.5140 0.8715
34.0695 3.8484 -2.5139 0.8715
33.4653 7.4437 -2.5137 0.8715
32.8509 9.7956 -2.5135 0.8715
13.5130 -17.5965 -2.1300 0.9147
15.6451 -18.9426 -2.3587 0.9060
16.3098 -18.3793 -2.3591 0.9060
18.1442 -16.5208 -2.3558 0.9061
20.7521 -15.2012 -2.4696 0.9018
21.6213 -14.6891 -2.5095 0.9003
23.0635 -12.3128 -2.5100 0.9003
23.4870 -11.4880 -2.5101 0.9003
23.8809 -10.6487 -2.5103 0.9003
24.2447 -9.7958 -2.5104 0.9003
24.5779 -8.9305 -2.5105 0.9003
24.8801 -8.0538 -2.5106 0.9002
25.5973 -5.3670 -2.5109 0.9002
25.7721 -4.4562 -2.5110 0.9002
25.9144 -3.5397 -2.5110 0.9002
26.1446 -0.7680 -2.5111 0.9002
26.1555 0.1594 -2.5111 0.9002
26.1333 1.0867 -2.5111 0.9002
25.9900 2.9358 -2.5110 0.9002
25.7157 4.7700 -2.5109 0.9002
25.3115 6.5799 -2.5108 0.9002
25.0614 7.4729 -2.5107 0.9002
24.7797 8.3564 -2.5106 0.9002
24.4668 9.2293 -2.5105 0.9003
11.5025 -16.1317 -2.3535 0.9233
12.0682 -15.7151 -2.3537 0.9233
12.6188 -15.2786 -2.3539 0.9233
13.4962 -15.2088 -2.4153 0.9214
15.0927 -14.7543 -2.5071 0.9185
15.6074 -14.2110 -2.5073 0.9185
16.1025 -13.6497 -2.5075 0.9185
16.5775 -13.0711 -2.5077 0.9185
17.4643 -11.8650 -2.5080 0.9185
17.8750 -11.2390 -2.5081 0.9185
18.2633 -10.5988 -2.5083 0.9185
18.6286 -9.9451 -2.5084 0.9185
20.0948 -6.5048 -2.5089 0.9184
20.3135 -5.7885 -2.5090 0.9184
20.6736 -4.3346 -2.5091 0.9184
20.8148 -3.5990 -2.5092 0.9184
21.0180 -2.1150 -2.5093 0.9184
21.0800 -1.3685 -2.5093 0.9184
21.1241 0.1288 -2.5093 0.9184
21.0617 1.6254 -2.5093 0.9184
20.9906 2.3710 -2.5092 0.9184
20.7692 3.8525 -2.5092 0.9184
20.6190 4.5863 -2.5091 0.9184
20.4430 5.3143 -2.5091 0.9184
20.0138 6.7492 -2.5089 0.9184
19.7612 7.4542 -2.5088 0.9184
9.7482 -14.7511 -2.5052 0.9311
10.7706 -14.0253 -2.5056 0.9311
11.2618 -13.6355 -2.5058 0.9310
11.7390 -13.2286 -2.5059 0.9310
12.2014 -12.8049 -2.5061 0.9310
12.6485 -12.3651 -2.5063 0.9310
13.0798 -11.9096 -2.5064 0.9310
13.8925 -10.9540 -2.5067 0.9310
14.2729 -10.4551 -2.5068 0.9310
14.6354 -9.9431 -2.5070 0.9310
15.6106 -8.3339 -2.5073 0.9310
16.1632 -7.2073 -2.5075 0.9310
16.4092 -6.6300 -2.5076 0.9310
16.6345 -6.0442 -2.5077 0.9310
16.8387 -5.4508 -2.5078 0.9310
17.0219 -4.8505 -2.5078 0.9310
17.1836 -4.2441 -2.5079 0.9310
17.3236 -3.6322 -2.5079 0.9310
17.4417 -3.0158 -2.5080 0.9310
17.5379 -2.3955 -2.5080 0.9310
17.6120 -1.7723 -2.5080 0.9310
17.6639 -1.1467 -2.5081 0.9310
17.6936 -0.5197 -2.5081 0.9310
17.7009 0.1079 -2.5081 0.9310
17.5891 1.9868 -2.5080 0.9310
17.2779 3.8431 -2.5079 0.9310
17.1304 4.4532 -2.5079 0.9310
16.5593 6.2465 -2.5077 0.9310
8.3826 -12.6847 -2.5047 0.9402
8.8276 -12.3803 -2.5049 0.9402
9.2615 -12.0603 -2.5050 0.9402
10.4917 -11.0106 -2.5055 0.9402
10.8760 -10.6323 -2.5056 0.9402
11.2468 -10.2405 -2.5058 0.9402
11.6033 -9.8358 -2.5059 0.9402
11.9454 -9.4187 -2.5060 0.9402
12.2724 -8.9897 -2.5061 0.9402
12.5839 -8.5493 -2.5062 0.9402
13.4222 -7.1656 -2.5065 0.9402
13.8972 -6.1969 -2.5067 0.9402
14.1086 -5.7004 -2.5068 0.9402
14.3022 -5.1968 -2.5069 0.9402
14.4778 -4.6866 -2.5069 0.9402
14.6352 -4.1704 -2.5070 0.9402
15.0787 -2.0597 -2.5071 0.9402
15.1424 -1.5238 -2.5072 0.9402
15.2125 -0.4469 -2.5072 0.9402
15.2188 0.0928 -2.5072 0.9402
15.1738 1.1710 -2.5072 0.9402
15.0525 2.2433 -2.5071 0.9402
14.9633 2.7755 -2.5071 0.9402
14.8552 3.3042 -2.5070 0.9402
14.5832 4.3485 -2.5070 0.9402
14.4195 4.8626 -2.5069 0.9402
14.2377 5.3707 -2.5068 0.9402
7.7358 -10.8491 -2.5045 0.9472
8.8455 -9.9679 -2.5049 0.9472
9.1938 -9.6485 -2.5050 0.9472
9.5305 -9.3169 -2.5051 0.9472
9.8553 -8.9736 -2.5053 0.9472
10.1677 -8.6189 -2.5054 0.9472
11.2859 -7.0960 -2.5058 0.9472
11.5308 -6.6917 -2.5059 0.9472
11.7612 -6.2789 -2.5059 0.9472
12.1773 -5.4300 -2.5061 0.9472
12.5321 -4.5536 -2.5062 0.9472
12.6859 -4.1065 -2.5063 0.9472
12.8237 -3.6542 -2.5063 0.9472
13.2124 -1.8047 -2.5065 0.9472
13.3072 -0.8639 -2.5065 0.9472
13.2956 1.0260 -2.5065 0.9472
12.9054 3.3549 -2.5063 0.9472
12.7782 3.8102 -2.5063 0.9472
12.4755 4.7060 -2.5062 0.9472
6.5312 -9.8832 -2.5041 0.9527
7.5449 -9.1351 -2.5044 0.9527
8.4734 -8.2834 -2.5048 0.9527
8.7621 -7.9781 -2.5049 0.9527
9.5608 -7.0034 -2.5052 0.9527
10.2514 -5.9492 -2.5054 0.9527
10.6478 -5.2081 -2.5055 0.9527
10.8261 -4.8274 -2.5056 0.9527
10.9906 -4.4407 -2.5057 0.9527
11.5089 -2.8425 -2.5059 0.9527
11.6817 -2.0198 -2.5059 0.9527
11.7956 -1.1870 -2.5060 0.9527
11.8551 0.0723 -2.5060 0.9527
11.8450 0.4925 -2.5060 0.9527
11.8201 0.9122 -2.5060 0.9527
11.0912 4.1838 -2.5057 0.9527
6.4893 -8.4503 -2.5041 0.9572
7.0724 -7.9699 -2.5043 0.9572
7.3509 -7.7144 -2.5044 0.9572
8.3688 -6.5987 -2.5047 0.9572
8.5978 -6.2980 -2.5048 0.9572
8.8159 -5.9894 -2.5049 0.9572
9.0230 -5.6733 -2.5050 0.9572
9.5752 -4.6834 -2.5052 0.9571
10.0189 -3.6405 -2.5053 0.9571
10.4336 -2.1876 -2.5055 0.9571
10.6072 -1.0674 -2.5055 0.9571
10.6563 -0.3130 -2.5055 0.9571
10.6607 0.0650 -2.5055 0.9571
10.6516 0.4429 -2.5055 0.9571
10.6292 0.8202 -2.5055 0.9571
10.5442 1.5714 -2.5055 0.9571
10.4818 1.9442 -2.5055 0.9571
10.4061 2.3146 -2.5055 0.9571
10.3174 2.6821 -2.5054 0.9571
5.3312 -8.0672 -2.5036 0.9608
5.6141 -7.8735 -2.5037 0.9608
5.8899 -7.6698 -2.5038 0.9608
6.9161 -6.7611 -2.5042 0.9608
7.1517 -6.5118 -2.5043 0.9608
7.8034 -5.7161 -2.5045 0.9608
8.3670 -4.8556 -2.5047 0.9608
8.5340 -4.5560 -2.5048 0.9608
8.8358 -3.9400 -2.5049 0.9608
8.9701 -3.6243 -2.5049 0.9608
9.4694 -1.9855 -2.5051 0.9608
9.5339 -1.6485 -2.5051 0.9608
9.6270 -0.9688 -2.5052 0.9608
9.6552 -0.6268 -2.5052 0.9608
9.6469 0.7445 -2.5052 0.9608
9.6144 1.0860 -2.5052 0.9608
9.5697 1.4262 -2.5052 0.9608
9.4445 2.1007 -2.5051 0.9608
9.3640 2.4342 -2.5051 0.9608
9.0521 3.4146 -2.5050 0.9608
4.8756 -7.3778 -2.5035 0.9639
5.1343 -7.2006 -2.5036 0.9639
5.6321 -6.8192 -2.5037 0.9639
6.5404 -5.9552 -2.5041 0.9639
7.1364 -5.2275 -2.5043 0.9639
7.3174 -4.9713 -2.5043 0.9639
7.4892 -4.7089 -2.5044 0.9639
7.8044 -4.1665 -2.5045 0.9639
8.3157 -3.0216 -2.5047 0.9639
8.4177 -2.7249 -2.5047 0.9639
8.5092 -2.4248 -2.5048 0.9639
8.5898 -2.1216 -2.5048 0.9639
8.6597 -1.8157 -2.5048 0.9639
8.7188 -1.5075 -2.5049 0.9639
8.8038 -0.8859 -2.5049 0.9639
8.8297 -0.5732 -2.5049 0.9639
8.8481 0.0539 -2.5049 0.9639
8.8221 0.6808 -2.5049 0.9639
8.7923 0.9932 -2.5049 0.9639
8.6997 1.6137 -2.5048 0.9639
8.6370 1.9211 -2.5048 0.9639
8.5633 2.2261 -2.5048 0.9639
8.3838 2.8273 -2.5047 0.9639
4.4872 -6.7901 -2.5033 0.9665
4.7253 -6.6270 -2.5034 0.9665
4.9574 -6.4555 -2.5035 0.9665
5.4028 -6.0883 -2.5037 0.9665
5.6154 -5.8932 -2.5037 0.9665
6.0193 -5.4808 -2.5039 0.9665
6.2099 -5.2640 -2.5040 0.9665
6.3929 -5.0407 -2.5040 0.9665
7.0419 -4.0867 -2.5042 0.9665
7.3141 -3.5775 -2.5043 0.9665
7.4365 -3.3160 -2.5044 0.9665
7.7469 -2.5077 -2.5045 0.9665
7.9053 -1.9525 -2.5046 0.9665
7.9696 -1.6710 -2.5046 0.9665
8.0681 -1.1020 -2.5046 0.9665
8.1260 -0.5275 -2.5046 0.9665
8.1360 0.3383 -2.5046 0.9665
8.1189 0.6266 -2.5046 0.9665
8.0916 0.9140 -2.5046 0.9665
8.0540 1.2003 -2.5046 0.9665
8.0064 1.4851 -2.5046 0.9665
7.9486 1.7680 -2.5046 0.9665
7.8808 2.0487 -2.5045 0.9665
7.6185 2.8738 -2.5045 0.9665
4.1519 -6.2827 -2.5032 0.9688
4.3721 -6.1317 -2.5033 0.9688
4.9990 -5.6333 -2.5035 0.9688
5.1957 -5.4527 -2.5036 0.9688
5.3859 -5.2652 -2.5037 0.9688
5.9150 -4.6639 -2.5038 0.9687
6.0768 -4.4513 -2.5039 0.9687
6.3772 -4.0097 -2.5040 0.9687
6.6456 -3.5478 -2.5041 0.9687
6.7673 -3.3100 -2.5042 0.9687
6.8805 -3.0681 -2.5042 0.9687
6.9851 -2.8222 -2.5042 0.9687
7.1677 -2.3202 -2.5043 0.9687
7.3142 -1.8065 -2.5043 0.9687
7.3737 -1.5461 -2.5044 0.9687
7.4240 -1.2837 -2.5044 0.9687
7.4963 -0.7543 -2.5044 0.9687
7.5119 0.5797 -2.5044 0.9687
7.4519 1.1106 -2.5044 0.9687
7.2916 1.8955 -2.5043 0.9687
7.2197 2.1528 -2.5043 0.9687
3.8591 -5.8397 -2.5031 0.9707
4.4578 -5.3974 -2.5033 0.9707
4.6464 -5.2360 -2.5034 0.9707
5.1765 -4.7134 -2.5036 0.9707
5.3405 -4.5270 -2.5036 0.9707
5.4978 -4.3349 -2.5037 0.9707
5.7914 -3.9346 -2.5038 0.9707
5.9274 -3.7269 -2.5039 0.9707
6.0559 -3.5144 -2.5039 0.9707
6.2899 -3.0766 -2.5040 0.9707
6.3952 -2.8517 -2.5040 0.9707
6.4923 -2.6232 -2.5041 0.9707
6.6621 -2.1566 -2.5041 0.9707
6.7983 -1.6791 -2.5042 0.9707
6.8536 -1.4370 -2.5042 0.9707
6.9003 -1.1931 -2.5042 0.9707
6.9675 -0.7011 -2.5042 0.9707
6.9880 -0.4537 -2.5042 0.9707
6.9967 0.2909 -2.5042 0.9707
6.9585 0.7860 -2.5042 0.9707
6.8852 1.2771 -2.5042 0.9707
6.7773 1.7618 -2.5042 0.9707
6.7105 2.0009 -2.5041 0.9707
6.6353 2.2376 -2.5041 0.9707
6.5516 2.4714 -2.5041 0.9707
3.7921 -5.3183 -2.5031 0.9724
3.9784 -5.1806 -2.5032 0.9724
4.3357 -4.8859 -2.5033 0.9724
4.6713 -4.5666 -2.5034 0.9724
4.9834 -4.2243 -2.5035 0.9724
5.1301 -4.0450 -2.5036 0.9724
5.2704 -3.8607 -2.5036 0.9724
5.5310 -3.4776 -2.5037 0.9724
5.7637 -3.0770 -2.5038 0.9724
6.1411 -2.2314 -2.5039 0.9724
6.2164 -2.0123 -2.5040 0.9724
6.2839 -1.7907 -2.5040 0.9724
6.3435 -1.5667 -2.5040 0.9724
6.3951 -1.3409 -2.5040 0.9724
6.4387 -1.1133 -2.5040 0.9724
6.4741 -0.8843 -2.5040 0.9724
6.5014 -0.6542 -2.5041 0.9724
6.5205 -0.4233 -2.5041 0.9724
6.5093 0.2707 -2.4967 0.9725
6.4956 0.5013 -2.4966 0.9725
6.4737 0.7312 -2.4966 0.9725
6.4437 0.9603 -2.4966 0.9725
6.4246 1.1917 -2.5040 0.9724
6.3239 1.6440 -2.5040 0.9724
3.3717 -5.1021 -2.5029 0.9739
3.7249 -4.8506 -2.5031 0.9739
3.8947 -4.7156 -2.5031 0.9739
4.0595 -4.5747 -2.5032 0.9739
4.2193 -4.4280 -2.5032 0.9739
5.1786 -3.2560 -2.5036 0.9739
5.2908 -3.0704 -2.5036 0.9739
5.7498 -2.0892 -2.5038 0.9739
5.8204 -1.8841 -2.5038 0.9739
5.8835 -1.6766 -2.5038 0.9739
5.9393 -1.4669 -2.5039 0.9739
6.0284 -1.0424 -2.5039 0.9739
6.0616 -0.8280 -2.5039 0.9739
6.0872 -0.6125 -2.5039 0.9739
6.1051 -0.3963 -2.5039 0.9739
6.1178 0.0373 -2.5039 0.9739
6.0612 0.6846 -2.4965 0.9740
6.0153 1.1157 -2.5039 0.9739
5.9719 1.3283 -2.5039 0.9739
5.9210 1.5392 -2.5038 0.9739
5.8626 1.7481 -2.5038 0.9739
5.7969 1.9549 -2.5038 0.9739
5.7239 2.1591 -2.5038 0.9739
3.1663 -4.7912 -2.5029 0.9753
3.3342 -4.6761 -2.5029 0.9753
3.4980 -4.5550 -2.5030 0.9753
3.6573 -4.4283 -2.5030 0.9753
3.8121 -4.2959 -2.5031 0.9753
4.2470 -3.8671 -2.5032 0.9752
4.3815 -3.7141 -2.5033 0.9752
4.6339 -3.3944 -2.5034 0.9752
4.8629 -3.0576 -2.5035 0.9752
4.9683 -2.8833 -2.5035 0.9752
5.0675 -2.7054 -2.5035 0.9752
5.3993 -1.9619 -2.5037 0.9752
5.4656 -1.7692 -2.5037 0.9752
5.5249 -1.5744 -2.5037 0.9752
5.6227 -1.1789 -2.5037 0.9752
5.6610 -0.9788 -2.5038 0.9752
5.6992 -0.5735 -2.4964 0.9753
5.7160 -0.3711 -2.4964 0.9753
5.7425 -0.1687 -2.5038 0.9752
5.7449 0.0350 -2.5038 0.9752
5.7401 0.2387 -2.5038 0.9752
5.6822 0.8468 -2.5038 0.9752
5.6486 1.0477 -2.5037 0.9752
5.5053 1.6416 -2.5037 0.9752
5.4436 1.8357 -2.5037 0.9752
5.3750 2.0276 -2.5037 0.9752
2.9810 -4.5109 -2.5028 0.9764
3.1392 -4.4025 -2.5029 0.9764
3.5891 -4.0446 -2.5030 0.9764
3.7303 -3.9148 -2.5031 0.9764
4.1252 -3.4968 -2.5032 0.9764
4.4734 -3.0392 -2.5033 0.9764
4.5784 -2.8787 -2.5034 0.9764
4.6776 -2.7146 -2.5034 0.9764
4.8584 -2.3764 -2.5035 0.9764
5.0834 -1.8471 -2.5035 0.9764
5.1457 -1.6657 -2.5036 0.9764
5.2936 -1.1099 -2.5036 0.9764
5.3297 -0.9215 -2.5036 0.9764
5.3431 -0.7298 -2.4962 0.9765
5.3815 -0.3494 -2.4963 0.9765
5.3768 0.4149 -2.4962 0.9765
5.3497 0.7973 -2.5036 0.9764
5.3180 0.9864 -2.5036 0.9764
5.1831 1.5455 -2.5036 0.9764
2.9622 -4.1544 -2.5028 0.9775
3.3868 -3.8166 -2.5029 0.9775
3.7731 -3.4355 -2.5031 0.9775
4.0072 -3.1596 -2.5032 0.9775
4.5020 -2.4035 -2.5033 0.9775
4.7319 -1.9119 -2.5034 0.9775
4.7968 -1.7429 -2.5034 0.9775
4.9549 -1.2238 -2.5035 0.9775
5.0568 -0.6907 -2.5035 0.9775
5.0782 -0.5110 -2.5035 0.9775
5.0931 -0.3306 -2.5036 0.9775
5.1037 0.0311 -2.5036 0.9775
5.0736 0.3915 -2.4961 0.9776
5.0566 0.5712 -2.4961 0.9776
5.0331 0.7501 -2.4961 0.9776
4.9820 1.1081 -2.5035 0.9775
4.8909 1.4584 -2.5035 0.9775
2.6597 -4.0247 -2.5027 0.9785
2.8008 -3.9280 -2.5027 0.9785
2.9384 -3.8263 -2.5028 0.9785
3.2022 -3.6086 -2.5029 0.9785
3.4500 -3.3727 -2.5030 0.9785
3.6805 -3.1198 -2.5030 0.9785
4.0848 -2.5683 -2.5032 0.9785
4.2567 -2.2725 -2.5033 0.9785
4.4071 -1.9652 -2.5033 0.9785
4.5909 -1.4861 -2.5034 0.9785
4.7229 -0.9903 -2.5034 0.9785
4.8236 -0.1417 -2.5035 0.9785
4.7588 0.7092 -2.4960 0.9786
4.7447 0.8801 -2.5034 0.9785
4.7104 1.0477 -2.5034 0.9785
4.6703 1.2141 -2.5034 0.9785
4.5725 1.5420 -2.5034 0.9785
4.5149 1.7031 -2.5033 0.9785
2.5192 -3.8121 -2.5026 0.9794
2.6528 -3.7205 -2.5027 0.9794
2.7831 -3.6242 -2.5027 0.9794
2.9099 -3.5233 -2.5028 0.9794
3.2677 -3.1945 -2.5029 0.9794
3.3790 -3.0767 -2.5029 0.9794
3.5886 -2.8296 -2.5030 0.9794
3.8690 -2.4326 -2.5031 0.9794
3.9528 -2.2940 -2.5031 0.9794
4.2957 -1.5609 -2.5033 0.9794
4.3484 -1.4076 -2.5033 0.9794
4.4372 -1.0959 -2.5033 0.9794
4.4733 -0.9379 -2.5033 0.9794
4.5038 -0.7787 -2.5033 0.9794
4.5611 -0.2961 -2.5034 0.9794
4.5705 0.0279 -2.5034 0.9794
4.5667 0.1899 -2.5034 0.9794
4.4939 0.8336 -2.5033 0.9794
4.3308 1.4605 -2.5033 0.9794
2.3898 -3.6163 -2.5026 0.9802
2.5166 -3.5294 -2.5026 0.9802
2.6402 -3.4380 -2.5027 0.9802
2.7604 -3.3423 -2.5027 0.9802
3.2054 -2.9186 -2.5029 0.9802
3.3069 -2.8032 -2.5029 0.9802
3.4974 -2.5619 -2.5030 0.9802
3.5860 -2.4363 -2.5030 0.9802
3.6702 -2.3077 -2.5030 0.9802
3.8246 -2.0418 -2.5031 0.9802
3.8946 -1.9050 -2.5031 0.9802
4.0750 -1.4807 -2.5032 0.9802
4.1697 -1.1882 -2.5032 0.9802
4.2092 -1.0396 -2.5032 0.9802
4.2724 -0.7387 -2.5033 0.9802
4.3339 -0.1273 -2.5033 0.9802
4.3357 0.0264 -2.5033 0.9802
4.3321 0.1801 -2.5033 0.9802
4.3229 0.3336 -2.5033 0.9802
4.3084 0.4867 -2.5033 0.9802
4.2323 0.9414 -2.5032 0.9802
4.1084 1.3854 -2.5032 0.9802
4.0566 1.5302 -2.5032 0.9802
