ply
format ascii 1.0
element vertex 491
property float32 x
property float32 y
property float32 z
property float32 I
end_header
-9.3506 -16.7522 3.3829 0.9250
-39.7744 -16.1953 5.5924 0.8409
-9.3491 -16.7494 2.4979 0.9255
-9.3483 -16.7480 2.0596 0.9257
-9.3475 -16.7466 1.6235 0.9259
-17.8000 -38.0025 2.6022 0.8452
-9.3459 -16.7438 0.7561 0.9261
-11.9395 -16.8779 0.3492 0.9206
-17.7954 -37.9928 0.7087 0.8455
-13.5442 -16.5201 -0.1203 0.9181
-10.2521 -16.9250 -0.5572 0.9239
-48.5245 -6.7386 -2.4845 0.8218
-48.2564 -8.4583 -2.4846 0.8218
-47.9277 -10.1675 -2.4847 0.8218
-47.5390 -11.8641 -2.4848 0.8218
-43.2138 -15.8307 -2.3340 0.8317
-41.5946 -20.4908 -2.3515 0.8305
-40.6285 -21.8413 -2.3393 0.8313
-39.8865 -23.3054 -2.3428 0.8311
-39.0938 -24.7456 -2.3464 0.8308
-37.1073 -27.3619 -2.3382 0.8314
-36.1908 -30.8828 -2.4128 0.8265
-36.1770 -33.1627 -2.4889 0.8216
-34.9822 -34.4326 -2.4893 0.8215
-13.6381 -15.4789 -1.0462 0.9207
-13.5981 -16.5859 -1.0877 0.9177
-29.7748 -39.0692 -2.4912 0.8214
-11.0698 -16.8906 -1.0242 0.9223
-9.3429 -16.7383 -0.9721 0.9261
-22.4261 -43.7614 -2.4938 0.8212
-17.7214 -37.8348 -2.1188 0.8459
-18.1384 -42.6026 -2.3482 0.8307
-16.6157 -43.2250 -2.3485 0.8307
-15.0716 -43.7931 -2.3488 0.8307
-11.9274 -44.7634 -2.3493 0.8307
-8.7214 -45.5083 -2.3499 0.8306
-33.6340 -4.6708 -2.4898 0.8727
-33.4478 -5.8626 -2.4898 0.8727
-33.2195 -7.0472 -2.4899 0.8727
-30.9866 -13.9199 -2.4907 0.8726
-30.4749 -15.0129 -2.4909 0.8726
-27.3546 -20.1706 -2.4920 0.8726
-25.8591 -22.0665 -2.4925 0.8725
-24.2329 -23.8522 -2.4931 0.8725
-23.3733 -24.7009 -2.4934 0.8725
-13.5983 -16.5862 -1.5726 0.9176
-19.3802 -25.4298 -2.3443 0.8796
-11.0698 -16.8906 -1.4807 0.9222
-10.2524 -16.9256 -1.4509 0.9237
-11.4974 -29.9100 -2.3495 0.8794
-9.3471 -30.6581 -2.3501 0.8794
-8.2532 -30.9744 -2.3504 0.8794
-6.0349 -31.4900 -2.3509 0.8793
-4.9128 -31.6863 -2.3511 0.8793
-25.7164 -3.5712 -2.4926 0.9009
-25.5739 -4.4825 -2.4926 0.9009
-25.3992 -5.3882 -2.4927 0.9009
-25.1924 -6.2872 -2.4928 0.9009
-24.9541 -7.1783 -2.4929 0.9009
-24.6843 -8.0604 -2.4930 0.9009
-23.2985 -11.4776 -2.4935 0.9009
-22.4276 -13.1043 -2.4938 0.9009
-21.9495 -13.8936 -2.4939 0.9009
-21.4438 -14.6655 -2.4941 0.9009
-19.7666 -16.8675 -2.4947 0.9008
-13.6381 -15.4789 -1.9807 0.9204
-11.9265 -16.8595 -1.9826 0.9204
-13.4096 -20.4607 -2.3486 0.9064
-10.2525 -16.9259 -1.8998 0.9236
-9.5854 -22.5137 -2.3492 0.9064
-8.7800 -22.8409 -2.3493 0.9063
-7.9635 -23.1393 -2.3494 0.9063
-7.1368 -23.4084 -2.3495 0.9063
-6.3011 -23.6480 -2.3495 0.9063
-5.4573 -23.8577 -2.3496 0.9063
-4.6066 -24.0373 -2.3497 0.9063
-20.6836 -3.6254 -2.4944 0.9189
-20.5422 -4.3579 -2.4944 0.9189
-19.9637 -6.5190 -2.4946 0.9189
-19.7203 -7.2242 -2.4947 0.9189
-19.1591 -8.6067 -2.4949 0.9189
-18.1375 -10.5976 -2.4953 0.9189
-17.7506 -11.2357 -2.4954 0.9189
-16.4576 -13.0627 -2.4959 0.9188
-14.3775 -15.1942 -2.4848 0.9192
-10.8235 -16.5147 -2.3455 0.9235
-10.2310 -16.8903 -2.3457 0.9235
-9.0077 -17.5773 -2.3461 0.9235
-7.7440 -18.1883 -2.3482 0.9235
-7.0940 -18.4549 -2.3486 0.9234
-6.4343 -18.6958 -2.3486 0.9234
-5.0910 -19.1066 -2.3488 0.9234
-4.4093 -19.2759 -2.3488 0.9234
-3.7219 -19.4209 -2.3489 0.9234
-3.0298 -19.5413 -2.3490 0.9234
-17.4453 -2.4226 -2.4955 0.9313
-17.3485 -3.0408 -2.4956 0.9313
-17.2298 -3.6552 -2.4956 0.9313
-17.0895 -4.2650 -2.4957 0.9313
-16.3149 -6.6431 -2.4959 0.9313
-15.8033 -7.7852 -2.4961 0.9313
-15.5174 -8.3420 -2.4962 0.9313
-14.8873 -9.4234 -2.4964 0.9313
-14.5439 -9.9467 -2.4966 0.9313
-13.4055 -11.4393 -2.4970 0.9313
-12.9914 -11.9090 -2.4971 0.9313
-12.1147 -12.8029 -2.4974 0.9313
-10.6861 -14.0218 -2.4979 0.9313
-10.1821 -14.3936 -2.4981 0.9312
-9.6651 -14.7473 -2.4983 0.9312
-9.1359 -15.0824 -2.4985 0.9312
-7.7927 -15.2064 -2.4210 0.9333
-7.1260 -15.2140 -2.3804 0.9344
-6.4889 -15.2408 -2.3470 0.9353
-5.9439 -15.4629 -2.3472 0.9353
-4.8320 -15.8485 -2.3476 0.9353
-4.2663 -16.0116 -2.3478 0.9352
-3.6952 -16.1544 -2.3480 0.9352
-3.1194 -16.2769 -2.3482 0.9352
-2.5395 -16.3788 -2.3484 0.9352
-1.9563 -16.4601 -2.3486 0.9352
-14.9263 -2.6163 -2.4964 0.9404
-14.8241 -3.1448 -2.4965 0.9404
-14.7033 -3.6695 -2.4965 0.9404
-13.3503 -7.1770 -2.4970 0.9404
-13.0875 -7.6469 -2.4971 0.9404
-11.8746 -9.4251 -2.4975 0.9404
-11.1766 -10.2454 -2.4978 0.9404
-10.4221 -11.0142 -2.4980 0.9404
-9.6150 -11.7276 -2.4983 0.9404
-9.1929 -12.0625 -2.4985 0.9404
-8.7592 -12.3822 -2.4986 0.9404
-7.8590 -12.9745 -2.4989 0.9404
-6.9190 -13.5015 -2.4993 0.9404
-5.9438 -13.9606 -2.4996 0.9403
-4.9384 -14.3494 -2.5000 0.9403
-4.4259 -14.5168 -2.5002 0.9403
-12.7679 -3.6728 -2.4972 0.9474
-12.3056 -5.0106 -2.4974 0.9474
-12.1202 -5.4447 -2.4974 0.9474
-11.9195 -5.8719 -2.4975 0.9474
-11.7037 -6.2918 -2.4976 0.9474
-10.6962 -7.8871 -2.4979 0.9473
-10.4097 -8.2624 -2.4980 0.9473
-9.7977 -8.9814 -2.4982 0.9473
-9.1362 -9.6552 -2.4985 0.9473
-7.2882 -11.1206 -2.4991 0.9473
-6.8890 -11.3731 -2.4993 0.9473
-3.4252 -12.8549 -2.5005 0.9473
-2.9667 -12.9693 -2.5007 0.9473
-2.5043 -13.0673 -2.5008 0.9473
-2.0387 -13.1489 -2.5010 0.9473
-1.5704 -13.2139 -2.5012 0.9473
-11.7032 -1.6252 -2.4976 0.9528
-11.6382 -2.0399 -2.4976 0.9528
-11.5585 -2.4521 -2.4976 0.9528
-11.4643 -2.8611 -2.4977 0.9528
-11.3556 -3.2666 -2.4977 0.9528
-10.7794 -4.8424 -2.4979 0.9528
-10.6008 -5.2223 -2.4980 0.9528
-10.4090 -5.5957 -2.4980 0.9528
-10.2039 -5.9621 -2.4981 0.9528
-9.7555 -6.6719 -2.4983 0.9528
-9.5127 -7.0145 -2.4983 0.9528
-9.2579 -7.3482 -2.4984 0.9528
-8.9914 -7.6727 -2.4985 0.9528
-8.4247 -8.2923 -2.4987 0.9528
-6.8284 -9.6527 -2.4993 0.9528
-6.1264 -10.1142 -2.4996 0.9528
-5.0165 -10.7102 -2.4999 0.9528
-4.2440 -11.0405 -2.5002 0.9528
-3.4498 -11.3153 -2.5005 0.9528
-2.6381 -11.5329 -2.5008 0.9528
-2.2269 -11.6200 -2.5009 0.9528
-1.3965 -11.7502 -2.5012 0.9528
-10.4692 -1.8350 -2.4980 0.9573
-10.3127 -2.5737 -2.4981 0.9573
-10.2149 -2.9384 -2.4981 0.9573
-9.9809 -3.6564 -2.4982 0.9573
-9.6965 -4.3559 -2.4983 0.9573
-9.3632 -5.0336 -2.4984 0.9573
-9.1788 -5.3631 -2.4985 0.9573
-8.9827 -5.6859 -2.4985 0.9573
-8.3277 -6.6098 -2.4988 0.9573
-7.3086 -7.7238 -2.4991 0.9572
-7.0299 -7.9789 -2.4992 0.9572
-6.7424 -8.2239 -2.4993 0.9572
-6.4463 -8.4585 -2.4994 0.9572
-5.5106 -9.0975 -2.4998 0.9572
-4.8513 -9.4666 -2.5000 0.9572
-4.5122 -9.6334 -2.5001 0.9572
-3.8172 -9.9305 -2.5004 0.9572
-3.1029 -10.1774 -2.5006 0.9572
-2.3728 -10.3731 -2.5009 0.9572
-2.0029 -10.4514 -2.5010 0.9572
-1.2560 -10.5683 -2.5013 0.9572
-9.5574 -1.3272 -2.4983 0.9609
-9.5043 -1.6659 -2.4984 0.9609
-9.4392 -2.0025 -2.4984 0.9609
-9.3623 -2.3365 -2.4984 0.9609
-9.0609 -3.3193 -2.4985 0.9609
-8.8028 -3.9544 -2.4986 0.9609
-8.6569 -4.2647 -2.4987 0.9609
-7.9664 -5.4483 -2.4989 0.9609
-7.7681 -5.7280 -2.4990 0.9609
-7.5599 -6.0005 -2.4990 0.9609
-7.3423 -6.2654 -2.4991 0.9609
-7.1153 -6.5225 -2.4992 0.9609
-6.8794 -6.7713 -2.4993 0.9609
-6.6348 -7.0117 -2.4994 0.9609
-6.1207 -7.4656 -2.4996 0.9609
-5.8519 -7.6785 -2.4997 0.9609
-5.2924 -8.0753 -2.4998 0.9609
-5.0024 -8.2585 -2.5000 0.9609
-4.4038 -8.5935 -2.5002 0.9609
-4.0960 -8.7449 -2.5003 0.9609
-3.7830 -8.8853 -2.5004 0.9609
-3.4651 -9.0144 -2.5005 0.9609
-2.1539 -9.4161 -2.5010 0.9609
-1.4801 -9.5462 -2.5012 0.9609
-1.1401 -9.5932 -2.5013 0.9609
-8.6937 -1.5238 -2.4986 0.9640
-8.6341 -1.8317 -2.4987 0.9640
-8.4825 -2.4401 -2.4987 0.9640
-8.3906 -2.7399 -2.4987 0.9640
-8.2881 -3.0362 -2.4988 0.9640
-8.0519 -3.6171 -2.4989 0.9640
-7.9185 -3.9009 -2.4989 0.9640
-7.7751 -4.1798 -2.4990 0.9640
-7.6219 -4.4534 -2.4990 0.9640
-7.4590 -4.7214 -2.4991 0.9640
-7.2868 -4.9835 -2.4991 0.9640
-7.1053 -5.2393 -2.4992 0.9640
-6.9150 -5.4886 -2.4993 0.9640
-6.7159 -5.7309 -2.4993 0.9640
-6.5083 -5.9660 -2.4994 0.9640
-6.2924 -6.1936 -2.4995 0.9640
-6.0687 -6.4134 -2.4996 0.9640
-5.5984 -6.8285 -2.4997 0.9640
-5.3525 -7.0233 -2.4998 0.9640
-5.0999 -7.2093 -2.4999 0.9640
-4.3045 -7.7117 -2.5002 0.9640
-4.0280 -7.8601 -2.5003 0.9639
-3.7464 -7.9985 -2.5004 0.9639
-3.4601 -8.1269 -2.5005 0.9639
-3.1694 -8.2450 -2.5006 0.9639
-2.5762 -8.4499 -2.5008 0.9639
-2.2746 -8.5365 -2.5009 0.9639
-1.9700 -8.6122 -2.5010 0.9639
-1.6629 -8.6771 -2.5011 0.9639
-1.3537 -8.7311 -2.5012 0.9639
-1.0428 -8.7741 -2.5014 0.9639
-8.0471 -1.1175 -2.4989 0.9666
-8.0024 -1.4026 -2.4989 0.9666
-7.9476 -1.6860 -2.4989 0.9666
-7.6290 -2.7948 -2.4990 0.9666
-7.4116 -3.3295 -2.4991 0.9666
-7.0157 -4.0992 -2.4992 0.9666
-6.7073 -4.5872 -2.4993 0.9666
-6.5403 -4.8226 -2.4994 0.9666
-6.3650 -5.0520 -2.4995 0.9666
-5.9906 -5.4915 -2.4996 0.9666
-5.7919 -5.7009 -2.4997 0.9666
-5.5859 -5.9033 -2.4997 0.9666
-5.1530 -6.2853 -2.4999 0.9666
-4.9267 -6.4646 -2.5000 0.9666
-4.6941 -6.6357 -2.5001 0.9666
-4.2115 -6.9527 -2.5002 0.9666
-3.9620 -7.0982 -2.5003 0.9666
-3.7075 -7.2347 -2.5004 0.9666
-3.4483 -7.3621 -2.5005 0.9666
-3.1847 -7.4802 -2.5006 0.9665
-2.6458 -7.6880 -2.5008 0.9665
-1.8132 -7.9268 -2.5011 0.9665
-1.5305 -7.9865 -2.5012 0.9665
-1.2460 -8.0362 -2.5013 0.9665
-0.9598 -8.0757 -2.5014 0.9665
-7.4053 -1.2980 -2.4991 0.9688
-7.2254 -2.0785 -2.4992 0.9688
-6.9635 -2.8354 -2.4993 0.9688
-6.7449 -3.3228 -2.4993 0.9688
-6.6227 -3.5603 -2.4994 0.9688
-6.3535 -4.0216 -2.4995 0.9688
-6.2068 -4.2449 -2.4995 0.9688
-5.8900 -4.6750 -2.4996 0.9688
-5.5435 -5.0816 -2.4998 0.9688
-4.9719 -5.6430 -2.5000 0.9688
-4.3438 -6.1404 -2.5002 0.9688
-3.8971 -6.4337 -2.5003 0.9688
-3.6662 -6.5683 -2.5004 0.9688
-3.4307 -6.6946 -2.5005 0.9688
-2.9470 -6.9217 -2.5007 0.9688
-2.6994 -7.0223 -2.5008 0.9688
-2.1942 -7.1967 -2.5009 0.9688
-1.9372 -7.2704 -2.5010 0.9688
-1.6772 -7.3323 -2.5002 0.9688
-0.8855 -7.4505 -2.4940 0.9689
-6.8368 -1.4504 -2.4993 0.9707
-6.7810 -1.6923 -2.4993 0.9707
-6.6439 -2.1695 -2.4994 0.9707
-6.3757 -2.8641 -2.4995 0.9707
-6.2700 -3.0888 -2.4995 0.9707
-5.9061 -3.7385 -2.4996 0.9707
-5.7697 -3.9460 -2.4997 0.9707
-5.4752 -4.3458 -2.4998 0.9707
-5.3175 -4.5377 -2.4998 0.9707
-5.1531 -4.7238 -2.4999 0.9707
-4.9822 -4.9040 -2.5000 0.9707
-4.6217 -5.2456 -2.5001 0.9707
-3.6226 -5.9806 -2.5004 0.9707
-2.5092 -6.5276 -2.5008 0.9707
-2.2758 -6.6128 -2.5009 0.9707
-1.8008 -6.7582 -2.5011 0.9707
-1.3165 -6.8694 -2.5013 0.9707
-1.0717 -6.9121 -2.5013 0.9707
-0.8255 -6.9461 -2.5014 0.9707
-6.4602 -0.8971 -2.4994 0.9724
-6.4243 -1.1260 -2.4994 0.9724
-6.3803 -1.3535 -2.4995 0.9724
-6.2682 -1.8031 -2.4995 0.9724
-6.0410 -2.4598 -2.4996 0.9724
-5.9499 -2.6728 -2.4996 0.9724
-5.8513 -2.8825 -2.4996 0.9724
-5.7453 -3.0886 -2.4997 0.9724
-5.5117 -3.4888 -2.4998 0.9724
-4.4841 -4.7388 -2.5001 0.9724
-4.3130 -4.8952 -2.5002 0.9724
-4.1365 -5.0455 -2.5003 0.9724
-3.9548 -5.1893 -2.5003 0.9724
-3.7681 -5.3267 -2.5004 0.9724
-3.5766 -5.4573 -2.5005 0.9724
-3.3806 -5.5811 -2.5005 0.9724
-3.1803 -5.6978 -2.5006 0.9724
-2.9760 -5.8073 -2.5007 0.9724
-2.7680 -5.9095 -2.5007 0.9724
-2.5564 -6.0043 -2.5008 0.9724
-2.3415 -6.0915 -2.5009 0.9724
-1.9033 -6.2428 -2.5011 0.9724
-1.6804 -6.3066 -2.5011 0.9724
-1.4554 -6.3625 -2.5012 0.9724
-1.2285 -6.4104 -2.5013 0.9724
-0.7704 -6.4819 -2.5015 0.9724
-6.0493 -0.8401 -2.4996 0.9739
-6.0156 -1.0544 -2.4996 0.9739
-5.9257 -1.4789 -2.4996 0.9739
-5.8695 -1.6884 -2.4996 0.9739
-5.7349 -2.1009 -2.4997 0.9739
-5.6567 -2.3033 -2.4997 0.9739
-5.4791 -2.6992 -2.4998 0.9739
-5.1611 -3.2669 -2.4999 0.9739
-4.5030 -4.1278 -2.5001 0.9739
-4.1988 -4.4373 -2.5002 0.9739
-4.0386 -4.5837 -2.5003 0.9739
-3.8733 -4.7244 -2.5004 0.9739
-3.3490 -5.1100 -2.5005 0.9739
-3.1655 -5.2259 -2.5006 0.9739
-2.9779 -5.3352 -2.5007 0.9739
-2.5918 -5.5334 -2.5008 0.9739
-2.3937 -5.6222 -2.5009 0.9739
-2.1925 -5.7038 -2.5009 0.9739
-1.7822 -5.8454 -2.5011 0.9739
-1.5735 -5.9052 -2.5012 0.9739
-1.3628 -5.9575 -2.5012 0.9739
-1.1503 -6.0024 -2.5013 0.9739
-5.6812 -0.7890 -2.4997 0.9753
-5.6496 -0.9903 -2.4997 0.9753
-5.5651 -1.3889 -2.4998 0.9753
-5.5123 -1.5857 -2.4998 0.9753
-5.3859 -1.9730 -2.4998 0.9753
-5.3125 -2.1631 -2.4998 0.9753
-5.1456 -2.5349 -2.4999 0.9753
-5.0524 -2.7161 -2.4999 0.9753
-4.9528 -2.8939 -2.5000 0.9753
-4.8470 -3.0680 -2.5000 0.9753
-4.7350 -3.2383 -2.5000 0.9753
-4.4933 -3.5664 -2.5001 0.9753
-4.0886 -4.0244 -2.5003 0.9753
-3.9432 -4.1672 -2.5003 0.9753
-3.4777 -4.5633 -2.5005 0.9753
-2.9728 -4.9078 -2.5007 0.9753
-2.7967 -5.0104 -2.5007 0.9753
-2.6170 -5.1067 -2.5008 0.9753
-2.0590 -5.3565 -2.5010 0.9753
-1.4777 -5.5456 -2.5012 0.9753
-0.8794 -5.6718 -2.5014 0.9753
-0.6774 -5.6997 -2.5015 0.9753
-5.3195 -0.9324 -2.4998 0.9765
-5.2830 -1.1208 -2.4999 0.9765
-5.1902 -1.4930 -2.4999 0.9765
-5.1339 -1.6764 -2.4999 0.9765
-4.8449 -2.3868 -2.5000 0.9765
-4.6634 -2.7248 -2.5001 0.9765
-4.2307 -3.3580 -2.5002 0.9765
-3.8497 -3.7892 -2.5004 0.9765
-3.7128 -3.9237 -2.5004 0.9765
-3.5711 -4.0531 -2.5005 0.9765
-3.4250 -4.1775 -2.5005 0.9765
-3.1199 -4.4103 -2.5006 0.9765
-2.6332 -4.7175 -2.5008 0.9765
-1.7583 -5.1092 -2.5011 0.9765
-1.5758 -5.1686 -2.5012 0.9765
-1.0171 -5.3073 -2.5014 0.9765
-5.0199 -0.8799 -2.4999 0.9775
-4.9855 -1.0577 -2.5000 0.9775
-4.9449 -1.2341 -2.5000 0.9775
-4.8979 -1.4090 -2.5000 0.9775
-4.8448 -1.5821 -2.5000 0.9775
-4.7856 -1.7531 -2.5000 0.9775
-4.6492 -2.0885 -2.5001 0.9775
-4.4893 -2.4134 -2.5001 0.9775
-4.2072 -2.8774 -2.5002 0.9775
-3.9925 -3.1689 -2.5003 0.9775
-3.8774 -3.3088 -2.5003 0.9775
-3.0900 -4.0546 -2.5006 0.9775
-2.7945 -4.2640 -2.5007 0.9775
-2.6413 -4.3606 -2.5008 0.9775
-2.4849 -4.4518 -2.5008 0.9775
-2.3252 -4.5373 -2.5009 0.9775
-2.1626 -4.6172 -2.5010 0.9775
-1.9973 -4.6912 -2.5010 0.9775
-1.8294 -4.7593 -2.5011 0.9775
-1.6593 -4.8214 -2.5011 0.9775
-1.4870 -4.8774 -2.5012 0.9775
-1.1371 -4.9709 -2.5013 0.9775
-0.7813 -5.0394 -2.5015 0.9775
-0.6018 -5.0641 -2.5015 0.9775
-4.7467 -0.8320 -2.5000 0.9785
-4.7142 -1.0001 -2.5001 0.9785
-4.6757 -1.1669 -2.5001 0.9785
-4.6313 -1.3323 -2.5001 0.9785
-4.5251 -1.6577 -2.5001 0.9785
-4.4634 -1.8174 -2.5001 0.9785
-4.3232 -2.1298 -2.5002 0.9785
-4.1612 -2.4314 -2.5002 0.9785
-4.0723 -2.5777 -2.5003 0.9785
-3.9782 -2.7208 -2.5003 0.9785
-3.8791 -2.8604 -2.5003 0.9785
-3.0561 -3.7276 -2.5006 0.9785
-2.9218 -3.8339 -2.5007 0.9785
-2.6424 -4.0318 -2.5008 0.9785
-2.3496 -4.2094 -2.5009 0.9785
-2.1986 -4.2903 -2.5009 0.9785
-1.8885 -4.4358 -2.5011 0.9785
-1.7298 -4.5001 -2.5011 0.9785
-1.0751 -4.7002 -2.5013 0.9785
-0.9075 -4.7355 -2.5014 0.9785
-0.7388 -4.7649 -2.5015 0.9785
-0.5690 -4.7883 -2.5015 0.9785
-4.5213 -0.6279 -2.5001 0.9794
-4.4962 -0.7881 -2.5001 0.9794
-4.4289 -1.1053 -2.5002 0.9794
-4.2279 -1.7215 -2.5002 0.9794
-3.9416 -2.3031 -2.5003 0.9794
-3.8573 -2.4416 -2.5004 0.9794
-3.4728 -2.9635 -2.5005 0.9794
-3.2538 -3.2027 -2.5006 0.9794
-3.0183 -3.4257 -2.5007 0.9794
-2.8948 -3.5308 -2.5007 0.9794
-2.7676 -3.6315 -2.5007 0.9794
-2.6369 -3.7276 -2.5008 0.9794
-2.0825 -4.0638 -2.5010 0.9794
-1.9369 -4.1353 -2.5010 0.9794
-1.7888 -4.2016 -2.5011 0.9794
-1.6385 -4.2625 -2.5011 0.9794
-1.4861 -4.3181 -2.5012 0.9794
-1.3318 -4.3683 -2.5013 0.9794
-1.1758 -4.4129 -2.5013 0.9794
-0.8596 -4.4855 -2.5014 0.9794
-0.6997 -4.5133 -2.5015 0.9794
-4.2017 -1.0486 -2.5002 0.9802
-4.1618 -1.1972 -2.5002 0.9802
-4.1167 -1.3443 -2.5003 0.9802
-4.0663 -1.4896 -2.5003 0.9802
-3.7393 -2.1849 -2.5004 0.9802
-3.6594 -2.3163 -2.5004 0.9802
-3.5749 -2.4449 -2.5005 0.9802
-3.4858 -2.5703 -2.5005 0.9802
-3.3923 -2.6926 -2.5005 0.9802
-3.2946 -2.8114 -2.5006 0.9802
-3.1927 -2.9267 -2.5006 0.9802
-3.0868 -3.0383 -2.5006 0.9802
-2.9770 -3.1461 -2.5007 0.9802
-2.8634 -3.2499 -2.5007 0.9802
-2.7462 -3.3496 -2.5008 0.9802
-2.6255 -3.4451 -2.5008 0.9802
-2.3744 -3.6229 -2.5009 0.9802
-2.1113 -3.7825 -2.5010 0.9802
-1.4098 -4.0965 -2.5012 0.9802
-0.9661 -4.2234 -2.5014 0.9802
-0.8155 -4.2552 -2.5014 0.9802
-0.5113 -4.3025 -2.5015 0.9802
