ply
format ascii 1.0
element vertex 448
property float32 x
property float32 y
property float32 z
property float32 I
end_header
48.8115 -1.2838 7.4802 0.8207
48.3092 9.3472 5.2837 0.8204
43.3282 -17.7427 3.9635 0.8287
49.7217 -1.3078 4.2105 0.8190
49.7167 -1.3076 3.0840 0.8193
49.1677 -6.6785 -0.2794 0.8200
49.1650 -4.8718 -0.2782 0.8207
49.1622 -3.0782 -0.2773 0.8212
49.1518 -1.2928 -0.2768 0.8215
49.1429 2.2709 -0.2770 0.8214
49.1296 7.6711 -0.2800 0.8196
49.1637 -4.8717 -1.3911 0.8206
49.1610 -3.0781 -1.3870 0.8211
49.1526 -1.2928 -1.3845 0.8214
49.1481 0.4886 -1.3840 0.8215
49.1436 2.2709 -1.3853 0.8213
49.1324 5.8572 -1.3933 0.8204
34.9846 -35.1158 -2.5138 0.8199
36.2400 -33.8310 -2.5143 0.8199
37.4480 -32.5013 -2.5147 0.8199
40.7720 -28.2594 -2.5158 0.8198
46.5961 -17.1372 -2.5178 0.8197
46.7888 -13.4520 -2.4690 0.8228
46.7976 -8.0930 -2.4085 0.8268
46.7993 -6.3568 -2.3952 0.8277
46.8029 -2.9308 -2.3782 0.8288
46.8057 0.4652 -2.3738 0.8291
46.8027 2.1630 -2.3761 0.8289
46.7972 3.8655 -2.3814 0.8286
46.7791 12.6247 -2.4572 0.8236
44.8057 21.3561 -2.5172 0.8197
43.9978 22.9628 -2.5169 0.8197
25.0273 -23.3637 -2.5104 0.8717
26.6593 -21.4949 -2.5109 0.8717
27.4234 -20.5171 -2.5112 0.8717
28.1515 -19.5121 -2.5115 0.8716
28.8426 -18.4811 -2.5117 0.8716
30.1104 -16.3469 -2.5121 0.8716
30.6853 -15.2465 -2.5123 0.8716
31.2199 -14.1259 -2.5125 0.8716
32.1649 -11.8297 -2.5128 0.8716
33.2635 -8.2713 -2.5132 0.8716
34.2139 -2.1423 -2.5135 0.8715
34.2693 -0.9014 -2.5136 0.8715
34.0390 4.0578 -2.5135 0.8715
33.8689 5.2883 -2.5134 0.8715
33.6540 6.5116 -2.5134 0.8716
33.3949 7.7263 -2.5133 0.8716
33.0916 8.9308 -2.5132 0.8716
32.7448 10.1233 -2.5130 0.8716
31.9222 12.4663 -2.5128 0.8716
31.4475 13.6138 -2.5126 0.8716
30.3747 15.8528 -2.5122 0.8716
17.3152 -17.3801 -2.3553 0.9061
21.4805 -14.8883 -2.5092 0.9003
22.5054 -13.2957 -2.5095 0.9003
23.4119 -11.6326 -2.5098 0.9003
23.8193 -10.7774 -2.5100 0.9003
24.1954 -9.9079 -2.5101 0.9003
24.5397 -9.0252 -2.5102 0.9003
24.8516 -8.1306 -2.5103 0.9003
25.3769 -6.3102 -2.5105 0.9003
25.5896 -5.3869 -2.5106 0.9003
25.7686 -4.4564 -2.5106 0.9002
26.0245 -2.5788 -2.5107 0.9002
26.1012 -1.6343 -2.5107 0.9002
26.1434 -0.6876 -2.5108 0.9002
26.0634 2.1529 -2.5107 0.9002
25.9679 3.0957 -2.5107 0.9002
25.6746 4.9677 -2.5106 0.9002
25.4770 5.8944 -2.5105 0.9003
24.9816 7.7232 -2.5104 0.9003
24.6844 8.6229 -2.5103 0.9003
23.9929 10.3866 -2.5100 0.9003
14.8950 -14.9508 -2.5069 0.9185
15.4280 -14.4024 -2.5071 0.9185
15.9407 -13.8350 -2.5072 0.9185
17.3511 -12.0262 -2.5077 0.9185
17.7764 -11.3903 -2.5079 0.9185
19.5426 -8.0026 -2.5085 0.9185
20.2977 -5.8357 -2.5087 0.9184
20.4963 -5.0966 -2.5088 0.9184
20.6679 -4.3508 -2.5089 0.9184
20.8124 -3.5992 -2.5089 0.9184
21.0809 -1.3200 -2.5090 0.9184
21.1212 0.2100 -2.5090 0.9184
20.9733 2.5002 -2.5090 0.9184
20.8687 3.2584 -2.5089 0.9184
20.5771 4.7608 -2.5088 0.9184
20.1772 6.2379 -2.5087 0.9184
19.6712 7.6820 -2.5085 0.9185
18.9575 8.2068 -2.4538 0.9202
17.9005 8.5320 -2.3555 0.9232
17.5788 9.1745 -2.3554 0.9232
12.4831 -12.5299 -2.5060 0.9310
12.9297 -12.0702 -2.5062 0.9310
14.1653 -10.5979 -2.5066 0.9310
14.5407 -10.0783 -2.5068 0.9310
15.2338 -8.9998 -2.5070 0.9310
15.5505 -8.4423 -2.5071 0.9310
16.1223 -7.2947 -2.5073 0.9310
16.3765 -6.7061 -2.5074 0.9310
17.0089 -4.8901 -2.5076 0.9310
17.1753 -4.2708 -2.5077 0.9310
17.3191 -3.6458 -2.5077 0.9310
17.6131 -1.7453 -2.5078 0.9310
17.6649 -1.1061 -2.5078 0.9310
17.6935 -0.4654 -2.5078 0.9310
17.6807 0.8170 -2.5078 0.9310
17.5748 2.0951 -2.5078 0.9310
17.4872 2.7304 -2.5078 0.9310
17.2430 3.9894 -2.5077 0.9310
16.9081 5.2272 -2.5076 0.9310
16.4842 6.4374 -2.5074 0.9310
10.7339 -10.7742 -2.5054 0.9402
11.1178 -10.3788 -2.5056 0.9402
11.4871 -9.9697 -2.5057 0.9402
12.1800 -9.1126 -2.5059 0.9402
12.8090 -8.2074 -2.5062 0.9402
13.0985 -7.7383 -2.5063 0.9402
14.0807 -5.7660 -2.5066 0.9402
14.6243 -4.2046 -2.5068 0.9402
14.9949 -2.5932 -2.5069 0.9402
15.1436 -1.5006 -2.5070 0.9402
15.1881 -0.9510 -2.5070 0.9402
15.2172 0.1513 -2.5070 0.9402
15.1662 1.2527 -2.5070 0.9402
15.0354 2.3476 -2.5069 0.9402
14.9403 2.8907 -2.5069 0.9402
14.8255 3.4301 -2.5069 0.9402
13.9630 6.0447 -2.5066 0.9402
13.7345 6.5463 -2.5065 0.9402
13.4878 7.0394 -2.5064 0.9402
9.4061 -9.4413 -2.5050 0.9472
9.7424 -9.0948 -2.5051 0.9472
10.0660 -8.7363 -2.5052 0.9472
10.3763 -8.3662 -2.5053 0.9472
10.6730 -7.9851 -2.5054 0.9472
10.9557 -7.5935 -2.5055 0.9472
11.4776 -6.7808 -2.5057 0.9472
12.1467 -5.4959 -2.5059 0.9472
12.3382 -5.0524 -2.5060 0.9472
13.0479 -2.7467 -2.5062 0.9472
13.2693 -1.3149 -2.5063 0.9472
13.3082 -0.8333 -2.5063 0.9472
13.3298 -0.3506 -2.5063 0.9472
13.3201 0.6155 -2.5063 0.9472
13.2890 1.0977 -2.5063 0.9472
13.2404 1.5784 -2.5063 0.9472
13.1744 2.0570 -2.5063 0.9472
12.9906 3.0055 -2.5062 0.9472
12.8729 3.4741 -2.5062 0.9472
12.7384 3.9381 -2.5061 0.9472
12.5871 4.3970 -2.5061 0.9472
11.8187 6.1683 -2.5058 0.9472
8.6617 -8.0860 -2.5047 0.9527
8.9494 -7.7672 -2.5048 0.9527
9.2252 -7.4381 -2.5049 0.9527
9.7403 -6.7511 -2.5051 0.9527
10.4162 -5.6550 -2.5053 0.9527
10.7989 -4.8861 -2.5055 0.9527
10.9691 -4.4918 -2.5055 0.9527
11.1249 -4.0915 -2.5056 0.9527
11.2661 -3.6859 -2.5056 0.9527
11.3924 -3.2754 -2.5057 0.9527
11.6000 -2.4419 -2.5057 0.9527
11.6809 -2.0201 -2.5058 0.9527
11.7465 -1.5956 -2.5058 0.9527
11.7968 -1.1690 -2.5058 0.9527
11.8419 0.5472 -2.5058 0.9527
11.8143 0.9759 -2.5058 0.9527
11.7711 1.4033 -2.5058 0.9527
11.6384 2.2519 -2.5057 0.9527
11.5490 2.6720 -2.5057 0.9527
11.3249 3.5011 -2.5056 0.9527
10.6995 5.0998 -2.5054 0.9527
10.5074 5.4839 -2.5054 0.9527
8.2961 -6.6890 -2.5046 0.9572
8.7592 -6.0711 -2.5048 0.9572
8.9737 -5.7500 -2.5048 0.9572
9.5453 -4.7428 -2.5050 0.9571
9.7111 -4.3939 -2.5051 0.9571
9.8641 -4.0393 -2.5051 0.9571
10.1311 -3.3146 -2.5052 0.9571
10.2447 -2.9454 -2.5053 0.9571
10.4314 -2.1959 -2.5053 0.9571
10.5631 -1.4348 -2.5054 0.9571
10.6082 -1.0512 -2.5054 0.9571
10.6395 -0.6662 -2.5054 0.9571
10.6598 0.1059 -2.5054 0.9571
10.6489 0.4921 -2.5054 0.9571
10.6241 0.8776 -2.5054 0.9571
10.5852 1.2619 -2.5054 0.9571
10.4659 2.0250 -2.5053 0.9571
10.2915 2.7775 -2.5053 0.9571
9.9290 3.8775 -2.5052 0.9571
9.6217 4.5860 -2.5051 0.9571
9.4490 4.9315 -2.5050 0.9571
7.0699 -6.5999 -2.5042 0.9608
7.3046 -6.3396 -2.5043 0.9608
7.5297 -6.0710 -2.5043 0.9608
8.3285 -4.9203 -2.5046 0.9608
8.5015 -4.6155 -2.5047 0.9608
8.6634 -4.3045 -2.5047 0.9608
8.9527 -3.6661 -2.5048 0.9608
9.2980 -2.6732 -2.5049 0.9608
9.3889 -2.3346 -2.5050 0.9608
9.5335 -1.6487 -2.5050 0.9608
9.5870 -1.3022 -2.5050 0.9608
9.6280 -0.9541 -2.5051 0.9608
9.6562 -0.6046 -2.5051 0.9608
9.6718 -0.2544 -2.5051 0.9608
9.6747 0.0962 -2.5051 0.9608
9.6423 0.7965 -2.5051 0.9608
9.6071 1.1453 -2.5050 0.9608
9.5592 1.4926 -2.5050 0.9608
9.4259 2.1808 -2.5050 0.9608
9.3405 2.5208 -2.5050 0.9608
9.2429 2.8575 -2.5049 0.9608
9.1332 3.1904 -2.5049 0.9608
8.8779 3.8433 -2.5048 0.9608
8.5759 4.4758 -2.5047 0.9608
6.2425 -6.2659 -2.5039 0.9639
6.4656 -6.0358 -2.5040 0.9639
6.6802 -5.7978 -2.5040 0.9639
6.8861 -5.5521 -2.5041 0.9639
7.7747 -4.2209 -2.5044 0.9639
7.9228 -3.9365 -2.5045 0.9639
8.1873 -3.3526 -2.5046 0.9639
8.5030 -2.4447 -2.5047 0.9639
8.5862 -2.1350 -2.5047 0.9639
8.6580 -1.8226 -2.5047 0.9639
8.7673 -1.1909 -2.5048 0.9639
8.8048 -0.8725 -2.5048 0.9639
8.8306 -0.5529 -2.5048 0.9639
8.8475 0.0880 -2.5048 0.9639
8.8385 0.4084 -2.5048 0.9639
8.8179 0.7284 -2.5048 0.9639
8.7419 1.3649 -2.5047 0.9639
8.6199 1.9943 -2.5047 0.9639
8.1189 3.5147 -2.5045 0.9639
7.9861 3.8065 -2.5045 0.9639
7.8428 4.0932 -2.5044 0.9639
6.5185 -4.8769 -2.5040 0.9665
6.6911 -4.6376 -2.5040 0.9665
7.5348 -3.0855 -2.5043 0.9665
7.7387 -2.5318 -2.5044 0.9665
7.8254 -2.2499 -2.5044 0.9665
7.9019 -1.9649 -2.5045 0.9665
8.1031 -0.8030 -2.5045 0.9665
8.1268 -0.5089 -2.5045 0.9665
8.1341 0.3759 -2.5045 0.9665
8.0452 1.2562 -2.5045 0.9665
7.9943 1.5468 -2.5045 0.9665
7.9330 1.8354 -2.5045 0.9665
7.8612 2.1216 -2.5044 0.9665
7.7791 2.4050 -2.5044 0.9665
7.3497 3.5031 -2.5043 0.9665
7.2179 3.7670 -2.5042 0.9665
5.3157 -5.3357 -2.5036 0.9688
5.6884 -4.9370 -2.5037 0.9687
6.0312 -4.5124 -2.5038 0.9687
6.1909 -4.2910 -2.5039 0.9687
6.4856 -3.8316 -2.5040 0.9687
6.9715 -2.8548 -2.5041 0.9687
7.2404 -2.0817 -2.5042 0.9687
7.3111 -1.8180 -2.5043 0.9687
7.3722 -1.5519 -2.5043 0.9687
7.4237 -1.2838 -2.5043 0.9687
7.4654 -1.0141 -2.5043 0.9687
7.4972 -0.7429 -2.5043 0.9687
7.5336 0.0749 -2.5043 0.9687
7.5259 0.3478 -2.5043 0.9687
7.5084 0.6202 -2.5043 0.9687
7.4437 1.1622 -2.5043 0.9687
7.3966 1.4311 -2.5043 0.9687
7.1975 2.2251 -2.5042 0.9687
7.1121 2.4844 -2.5042 0.9687
7.0173 2.7404 -2.5042 0.9687
6.6783 3.4854 -2.5040 0.9687
5.1174 -4.7773 -2.5035 0.9707
5.4501 -4.3943 -2.5036 0.9707
5.7543 -3.9883 -2.5037 0.9707
5.8951 -3.7773 -2.5038 0.9707
6.3793 -2.8864 -2.5039 0.9707
6.4798 -2.6534 -2.5040 0.9707
6.5717 -2.4170 -2.5040 0.9707
6.6551 -2.1773 -2.5040 0.9707
6.7296 -1.9348 -2.5041 0.9707
6.7954 -1.6898 -2.5041 0.9707
6.9000 -1.1933 -2.5041 0.9707
6.9387 -0.9425 -2.5041 0.9707
6.9889 -0.4376 -2.5041 0.9707
6.9532 0.8289 -2.5041 0.9707
6.8749 1.3302 -2.5041 0.9707
6.6104 2.3092 -2.5040 0.9707
6.5223 2.5471 -2.5040 0.9707
4.6104 -4.6277 -2.5033 0.9724
4.9337 -4.2819 -2.5034 0.9724
5.2310 -3.9136 -2.5035 0.9724
5.3694 -3.7216 -2.5036 0.9724
5.5008 -3.5247 -2.5036 0.9724
5.6250 -3.3231 -2.5037 0.9724
5.7418 -3.1172 -2.5037 0.9724
6.2099 -2.0317 -2.5039 0.9724
6.3408 -1.5767 -2.5039 0.9724
6.4746 -0.8795 -2.5040 0.9724
6.5319 -0.1718 -2.5040 0.9724
6.4881 0.7734 -2.5040 0.9724
6.3082 1.7025 -2.5039 0.9724
6.2423 1.9299 -2.5039 0.9724
6.0861 2.3767 -2.5038 0.9724
5.8978 2.8111 -2.5038 0.9724
5.7921 3.0229 -2.5037 0.9724
4.7617 -3.8392 -2.5034 0.9739
5.0273 -3.4845 -2.5035 0.9739
5.1504 -3.3001 -2.5035 0.9739
5.4782 -2.7220 -2.5036 0.9739
5.8794 -1.6903 -2.5038 0.9739
6.0282 -1.0425 -2.5038 0.9739
6.0620 -0.8234 -2.5038 0.9739
6.0879 -0.6033 -2.5038 0.9739
6.1058 -0.3823 -2.5038 0.9739
6.1112 0.2824 -2.5038 0.9739
6.0063 1.1621 -2.5038 0.9739
5.9602 1.3790 -2.5038 0.9739
5.8446 1.8069 -2.5037 0.9739
5.7753 2.0174 -2.5037 0.9739
5.6139 2.4303 -2.5037 0.9739
4.1985 -3.9194 -2.5032 0.9752
4.3379 -3.7648 -2.5032 0.9752
4.4715 -3.6053 -2.5033 0.9752
4.5993 -3.4410 -2.5033 0.9752
4.8365 -3.0990 -2.5034 0.9752
4.9457 -2.9218 -2.5034 0.9752
5.0483 -2.7407 -2.5035 0.9752
5.2337 -2.3680 -2.5035 0.9752
5.4599 -1.7863 -2.5036 0.9752
5.5210 -1.5873 -2.5036 0.9752
5.6926 -0.7733 -2.5037 0.9752
5.7387 0.2652 -2.5037 0.9752
5.5463 1.4968 -2.5036 0.9752
5.4884 1.6967 -2.5036 0.9752
5.4233 1.8945 -2.5036 0.9752
5.3510 2.0897 -2.5036 0.9752
5.1855 2.4716 -2.5035 0.9752
5.0925 2.6578 -2.5035 0.9752
3.9529 -3.6901 -2.5031 0.9764
4.0841 -3.5446 -2.5031 0.9764
4.2099 -3.3943 -2.5032 0.9764
4.3301 -3.2396 -2.5032 0.9764
4.5535 -2.9177 -2.5033 0.9764
4.6562 -2.7508 -2.5033 0.9764
4.7529 -2.5804 -2.5034 0.9764
4.8433 -2.4065 -2.5034 0.9764
4.9274 -2.2295 -2.5034 0.9764
5.0760 -1.8669 -2.5035 0.9764
5.1980 -1.4944 -2.5035 0.9764
5.2487 -1.3051 -2.5035 0.9764
5.2926 -1.1142 -2.5036 0.9764
5.3594 -0.7280 -2.5036 0.9764
5.3981 -0.3380 -2.5036 0.9764
5.4068 -0.1422 -2.5036 0.9764
5.4084 0.0538 -2.5036 0.9764
5.4029 0.2497 -2.5036 0.9764
5.3903 0.4452 -2.5036 0.9764
5.3547 0.6383 -2.4962 0.9765
5.3439 0.8344 -2.5036 0.9764
5.3101 1.0274 -2.5036 0.9764
5.2217 1.4092 -2.5035 0.9764
5.1059 1.7836 -2.5035 0.9764
5.0379 1.9674 -2.5035 0.9764
4.9633 2.1486 -2.5034 0.9764
4.8821 2.3270 -2.5034 0.9764
3.6014 -3.6149 -2.5030 0.9775
3.7300 -3.4821 -2.5030 0.9775
3.9725 -3.2030 -2.5031 0.9775
4.6496 -2.1038 -2.5033 0.9775
4.7228 -1.9340 -2.5034 0.9775
4.8505 -1.5870 -2.5034 0.9775
4.9528 -1.2316 -2.5034 0.9775
5.0290 -0.8697 -2.5035 0.9775
5.0572 -0.6870 -2.5035 0.9775
5.0788 -0.5033 -2.5035 0.9775
5.1020 -0.1342 -2.5035 0.9775
5.1035 0.0507 -2.5035 0.9775
5.0713 0.4189 -2.4961 0.9776
4.9274 1.3298 -2.5034 0.9775
4.8759 1.5074 -2.5034 0.9775
4.7538 1.8565 -2.5034 0.9775
4.6834 2.0275 -2.5033 0.9775
4.0626 -2.6032 -2.5031 0.9785
4.1543 -2.4543 -2.5032 0.9785
4.3962 -1.9892 -2.5032 0.9785
4.5288 -1.6656 -2.5033 0.9785
4.6376 -1.3333 -2.5033 0.9785
4.6829 -1.1645 -2.5033 0.9785
4.7549 -0.8223 -2.5034 0.9785
4.8239 -0.1269 -2.5034 0.9785
4.8253 0.0480 -2.5034 0.9785
4.8204 0.2227 -2.5034 0.9785
4.7949 0.3961 -2.4960 0.9786
4.7774 0.5695 -2.4960 0.9786
4.7536 0.7422 -2.4960 0.9786
4.7236 0.9139 -2.4960 0.9786
4.7013 1.0877 -2.5034 0.9785
4.6588 1.2573 -2.5033 0.9785
4.6102 1.4252 -2.5033 0.9785
4.5554 1.5913 -2.5033 0.9785
3.4513 -2.9954 -2.5029 0.9794
3.7561 -2.6034 -2.5030 0.9794
4.0165 -2.1805 -2.5031 0.9794
4.2295 -1.7319 -2.5032 0.9794
4.3925 -1.2629 -2.5032 0.9794
4.4354 -1.1029 -2.5033 0.9794
4.5037 -0.7788 -2.5033 0.9794
4.5483 -0.4507 -2.5033 0.9794
4.5616 -0.2856 -2.5033 0.9794
4.5690 -0.1202 -2.5033 0.9794
4.5703 0.0454 -2.5033 0.9794
4.5521 0.2103 -2.4959 0.9794
4.5250 0.5394 -2.4959 0.9794
4.4873 0.8682 -2.5033 0.9794
4.4529 1.0302 -2.5033 0.9794
4.4126 1.1909 -2.5033 0.9794
4.3665 1.3499 -2.5032 0.9794
4.2573 1.6625 -2.5032 0.9794
4.0516 2.1146 -2.5031 0.9794
3.0595 -3.0710 -2.5028 0.9802
3.6503 -2.3389 -2.5030 0.9802
3.7327 -2.2052 -2.5030 0.9802
3.8826 -1.9291 -2.5031 0.9802
3.9500 -1.7872 -2.5031 0.9802
4.0691 -1.4965 -2.5031 0.9802
4.1206 -1.3482 -2.5032 0.9802
4.1668 -1.1980 -2.5032 0.9802
4.2075 -1.0462 -2.5032 0.9802
4.2427 -0.8931 -2.5032 0.9802
4.2962 -0.5836 -2.5032 0.9802
4.3272 -0.2710 -2.5032 0.9802
4.3355 0.0431 -2.5032 0.9802
4.3311 0.2001 -2.5032 0.9802
4.3210 0.3569 -2.5032 0.9802
4.2711 0.6669 -2.4958 0.9802
4.2241 0.9773 -2.5032 0.9802
4.1859 1.1297 -2.5032 0.9802
4.1422 1.2806 -2.5032 0.9802
3.9136 1.8654 -2.5031 0.9802
