ply
format ascii 1.0
element vertex 482
property float32 x
property float32 y
property float32 z
property float32 I
end_header
9.2724 -17.2811 2.5538 0.9239
9.2720 -17.2805 1.6601 0.9243
45.3992 -0.0137 3.8432 0.8334
9.2719 -17.2802 1.2161 0.9244
46.6158 -8.4814 -0.2668 0.8274
46.4065 -6.7309 -0.2640 0.8290
46.4039 -5.0361 -0.2628 0.8297
46.4014 -3.3546 -0.2619 0.8302
46.3914 -1.6818 -0.2614 0.8305
46.3871 -0.0140 -0.2612 0.8306
46.3830 1.6534 -0.2613 0.8306
46.3770 3.3247 -0.2618 0.8303
46.3702 6.6972 -0.2638 0.8291
46.6134 -8.4810 -1.3340 0.8273
46.3746 3.3246 -1.3092 0.8302
46.3712 5.0042 -1.3133 0.8297
12.1586 -42.7881 -2.2559 0.8368
13.7145 -42.4059 -2.2603 0.8365
15.2597 -41.9698 -2.2648 0.8362
18.3100 -40.9355 -2.2742 0.8356
19.7877 -40.2897 -2.2764 0.8355
9.2710 -17.2787 -0.9944 0.9245
25.7219 -40.6348 -2.4389 0.8248
27.2233 -39.7693 -2.4441 0.8245
30.1405 -37.8774 -2.4549 0.8238
32.9303 -35.7759 -2.4659 0.8230
35.5777 -33.4726 -2.4773 0.8223
36.8431 -32.2479 -2.4831 0.8219
38.0671 -30.9760 -2.4889 0.8215
41.4726 -26.8909 -2.5067 0.8204
44.0234 -22.2212 -2.5009 0.8208
44.0387 -18.3902 -2.4203 0.8260
45.3609 -13.4265 -2.3991 0.8274
45.9196 -11.8154 -2.4046 0.8270
46.6111 -8.4805 -2.4026 0.8272
46.4009 -6.7301 -2.3778 0.8288
46.3984 -5.0355 -2.3669 0.8295
46.3854 -0.0140 -2.3524 0.8305
46.3812 1.6534 -2.3537 0.8304
46.3722 3.3244 -2.3578 0.8301
46.3688 5.0040 -2.3652 0.8296
46.3654 6.6964 -2.3758 0.8289
8.5207 -29.9860 -2.2857 0.8825
10.6813 -29.3777 -2.2920 0.8822
12.8005 -28.6180 -2.2987 0.8818
13.8412 -28.1820 -2.3021 0.8817
9.2709 -17.2784 -1.4377 0.9244
16.8721 -26.6540 -2.3130 0.8812
17.8477 -26.0729 -2.3167 0.8810
19.6977 -24.7540 -2.3195 0.8808
21.9418 -25.6275 -2.4737 0.8734
22.8843 -24.8617 -2.4776 0.8733
23.8005 -24.0618 -2.4815 0.8731
27.1774 -20.5371 -2.4977 0.8723
27.9435 -19.5795 -2.5018 0.8721
29.3738 -17.5803 -2.5100 0.8717
31.7971 -13.2782 -2.5265 0.8709
32.7743 -10.9962 -2.5347 0.8705
34.2263 -6.2272 -2.5507 0.8698
34.4805 -5.0012 -2.5546 0.8696
34.6899 -3.7648 -2.5585 0.8694
34.8543 -2.5198 -2.5623 0.8692
35.0455 -0.0106 -2.5696 0.8689
35.0516 2.5128 -2.5767 0.8685
34.9848 3.7755 -2.5800 0.8684
7.3855 -22.8364 -2.3042 0.9081
9.0259 -22.2956 -2.3092 0.9079
10.6278 -21.6394 -2.3145 0.9077
9.2106 -17.1661 -1.8703 0.9247
13.6841 -19.9905 -2.3258 0.9072
14.4116 -19.5105 -2.3287 0.9071
15.1222 -19.0040 -2.3316 0.9070
16.4874 -17.9121 -2.3372 0.9068
17.1404 -17.3284 -2.3400 0.9067
18.3502 -16.0615 -2.3412 0.9067
20.7689 -15.6944 -2.4992 0.9007
21.3461 -14.9569 -2.5023 0.9006
21.8971 -14.1982 -2.5055 0.9004
22.4213 -13.4191 -2.5086 0.9003
24.2332 -10.1196 -2.5212 0.8998
24.9587 -8.3740 -2.5274 0.8996
25.2742 -7.4810 -2.5305 0.8995
25.5575 -6.5761 -2.5336 0.8994
25.8080 -5.6604 -2.5366 0.8993
26.2090 -3.8014 -2.5425 0.8990
26.3587 -2.8607 -2.5454 0.8989
26.6121 0.9486 -2.5565 0.8985
26.5881 1.9061 -2.5591 0.8984
26.5289 2.8629 -2.5617 0.8983
5.3199 -18.7216 -2.3119 0.9246
5.9941 -18.5341 -2.3139 0.9245
6.6619 -18.3225 -2.3159 0.9245
7.9749 -17.8291 -2.3201 0.9243
8.6110 -17.5329 -2.3203 0.9243
10.4695 -16.5394 -2.3252 0.9242
11.0672 -16.1675 -2.3273 0.9241
11.6518 -15.7743 -2.3295 0.9240
12.2231 -15.3602 -2.3317 0.9240
13.0238 -15.2115 -2.3787 0.9225
13.9893 -15.1982 -2.4537 0.9202
15.8057 -13.8344 -2.4951 0.9189
16.3089 -13.2709 -2.4976 0.9188
17.2546 -12.0900 -2.5027 0.9186
17.6958 -11.4740 -2.5052 0.9186
18.1150 -10.8418 -2.5078 0.9185
18.5116 -10.1944 -2.5103 0.9184
18.8850 -9.5324 -2.5128 0.9183
19.2347 -8.8567 -2.5154 0.9182
19.5601 -8.1682 -2.5179 0.9182
20.1362 -6.7560 -2.5229 0.9180
20.9771 -3.8166 -2.5327 0.9177
21.1204 -3.0634 -2.5351 0.9176
21.3247 -1.5417 -2.5397 0.9175
21.3852 -0.7753 -2.5419 0.9174
21.4179 -0.0065 -2.5441 0.9173
21.4224 0.7636 -2.5463 0.9173
5.0336 -15.5641 -2.3177 0.9361
5.5932 -15.3835 -2.3193 0.9360
7.4680 -15.2058 -2.4003 0.9338
9.8961 -14.4567 -2.4823 0.9317
10.9260 -13.7307 -2.4863 0.9316
11.4215 -13.3400 -2.4883 0.9315
12.8222 -12.0636 -2.4945 0.9313
13.2585 -11.6049 -2.4966 0.9313
14.4669 -10.1367 -2.5029 0.9311
15.5131 -8.5431 -2.5093 0.9310
15.8234 -7.9870 -2.5114 0.9309
16.1138 -7.4197 -2.5136 0.9308
16.8607 -5.6570 -2.5199 0.9307
17.2516 -4.4390 -2.5240 0.9306
17.5539 -3.1938 -2.5280 0.9305
17.8367 -1.2895 -2.5339 0.9303
17.9108 0.6385 -2.5394 0.9302
17.8887 1.2824 -2.5411 0.9301
17.8430 1.9256 -2.5428 0.9301
4.1008 -14.4315 -2.4715 0.9410
5.1323 -14.1158 -2.4744 0.9409
6.1400 -13.7272 -2.4773 0.9409
7.1188 -13.2676 -2.4804 0.9408
7.5958 -13.0117 -2.4820 0.9407
8.0637 -12.7388 -2.4837 0.9407
8.5219 -12.4492 -2.4853 0.9407
9.4066 -11.8213 -2.4887 0.9406
9.8321 -11.4837 -2.4905 0.9406
11.7681 -9.5760 -2.4994 0.9403
12.1134 -9.1537 -2.5012 0.9403
12.4435 -8.7190 -2.5031 0.9403
13.3387 -7.3456 -2.5086 0.9401
13.6039 -6.8667 -2.5104 0.9401
14.0822 -5.8806 -2.5140 0.9400
14.2947 -5.3748 -2.5159 0.9400
14.4889 -4.8612 -2.5177 0.9399
15.0777 -2.7433 -2.5247 0.9398
15.2560 -1.6557 -2.5280 0.9397
15.3553 -0.5567 -2.5313 0.9396
15.3745 0.5481 -2.5344 0.9395
15.3133 1.6526 -2.5374 0.9395
15.2526 2.2029 -2.5388 0.9394
3.6000 -12.6689 -2.4755 0.9478
6.2466 -11.6420 -2.4833 0.9476
6.6646 -11.4166 -2.4847 0.9476
8.2507 -10.3687 -2.4906 0.9475
8.9850 -9.7615 -2.4937 0.9474
9.6749 -9.1025 -2.4968 0.9474
10.6184 -8.0240 -2.5016 0.9473
11.1814 -7.2501 -2.5048 0.9472
11.4420 -6.8481 -2.5064 0.9472
12.1357 -5.5879 -2.5112 0.9471
12.3364 -5.1516 -2.5128 0.9470
12.5214 -4.7080 -2.5144 0.9470
13.2015 -2.4019 -2.5221 0.9469
13.4549 0.4796 -2.5306 0.9467
13.4360 0.9632 -2.5319 0.9467
13.3995 1.4460 -2.5332 0.9466
3.2052 -11.2796 -2.4787 0.9532
4.4061 -10.8839 -2.4820 0.9531
5.1813 -10.5495 -2.4844 0.9531
5.9313 -10.1604 -2.4869 0.9530
6.2958 -9.9458 -2.4882 0.9530
7.0011 -9.4781 -2.4908 0.9530
7.3410 -9.2254 -2.4921 0.9529
7.6719 -8.9606 -2.4935 0.9529
7.9933 -8.6840 -2.4948 0.9529
9.4430 -7.1358 -2.5019 0.9528
9.9423 -6.4467 -2.5047 0.9527
10.5963 -5.3486 -2.5090 0.9526
10.9654 -4.5791 -2.5118 0.9526
11.1291 -4.1845 -2.5133 0.9526
11.4134 -3.3783 -2.5160 0.9525
11.5337 -2.9677 -2.5174 0.9525
11.6391 -2.5528 -2.5188 0.9525
11.7296 -2.1341 -2.5201 0.9524
11.8648 -1.2877 -2.5227 0.9524
11.9522 -0.0036 -2.5264 0.9523
11.9327 0.8555 -2.5288 0.9523
11.8996 1.2842 -2.5299 0.9522
11.8510 1.7116 -2.5310 0.9522
2.8857 -10.1552 -2.4812 0.9575
5.6661 -8.9511 -2.4898 0.9574
5.9868 -8.7458 -2.4909 0.9574
6.3001 -8.5292 -2.4921 0.9574
6.6057 -8.3014 -2.4933 0.9573
6.9030 -8.0626 -2.4945 0.9573
8.4938 -6.4185 -2.5021 0.9572
8.7234 -6.1123 -2.5034 0.9572
8.9419 -5.7980 -2.5047 0.9572
9.3448 -5.1462 -2.5072 0.9571
9.5285 -4.8096 -2.5085 0.9571
9.8593 -4.1171 -2.5111 0.9570
10.0058 -3.7622 -2.5123 0.9570
10.1396 -3.4020 -2.5136 0.9570
10.3679 -2.6677 -2.5161 0.9570
10.4621 -2.2946 -2.5173 0.9569
10.5428 -1.9182 -2.5185 0.9569
10.7028 -0.7738 -2.5220 0.9569
10.7284 -0.3889 -2.5231 0.9568
10.7379 0.3828 -2.5253 0.9568
10.6914 1.1538 -2.5273 0.9568
2.6216 -9.2258 -2.4833 0.9611
3.2797 -9.0203 -2.4851 0.9611
3.9219 -8.7682 -2.4870 0.9611
4.2361 -8.6251 -2.4880 0.9611
5.1459 -8.1293 -2.4911 0.9610
5.4369 -7.9426 -2.4921 0.9610
5.9985 -7.5382 -2.4943 0.9610
6.2682 -7.3211 -2.4954 0.9610
6.5301 -7.0944 -2.4965 0.9609
7.7105 -5.8266 -2.5023 0.9609
7.9185 -5.5484 -2.5035 0.9608
8.1166 -5.2628 -2.5046 0.9608
8.3043 -4.9701 -2.5058 0.9608
8.6477 -4.3650 -2.5081 0.9608
9.3098 -2.7556 -2.5138 0.9607
9.4069 -2.4204 -2.5150 0.9607
9.5648 -1.7402 -2.5171 0.9606
9.6252 -1.3961 -2.5182 0.9606
9.7418 -0.0029 -2.5223 0.9605
9.6560 1.3946 -2.5261 0.9605
3.2973 -8.1450 -2.4876 0.9641
3.5891 -8.0241 -2.4885 0.9641
4.9747 -7.2673 -2.4932 0.9641
5.2346 -7.0867 -2.4941 0.9640
5.4880 -6.8968 -2.4951 0.9640
6.2059 -6.2740 -2.4982 0.9640
6.4300 -6.0495 -2.4993 0.9640
6.6460 -5.8171 -2.5003 0.9639
7.5946 -4.5454 -2.5056 0.9639
8.6778 -1.9033 -2.5150 0.9637
8.7441 -1.5909 -2.5160 0.9637
8.7990 -1.2762 -2.5170 0.9637
8.8426 -0.9597 -2.5180 0.9637
8.8747 -0.6416 -2.5189 0.9637
8.8953 -0.3225 -2.5198 0.9637
8.9043 -0.0027 -2.5208 0.9637
8.9018 0.3173 -2.5216 0.9636
2.2097 -7.7765 -2.4866 0.9667
2.4884 -7.6944 -2.4873 0.9667
2.7641 -7.6024 -2.4881 0.9667
4.3354 -6.8488 -2.4931 0.9666
4.8195 -6.5246 -2.4949 0.9666
5.0526 -6.3496 -2.4959 0.9666
5.4996 -5.9749 -2.4977 0.9666
5.7129 -5.7756 -2.4987 0.9666
5.9190 -5.5688 -2.4997 0.9666
6.3085 -5.1334 -2.5016 0.9665
6.6660 -4.6708 -2.5036 0.9665
6.9897 -4.1833 -2.5055 0.9665
7.4079 -3.4110 -2.5085 0.9664
7.6396 -2.8725 -2.5104 0.9664
7.7408 -2.5972 -2.5113 0.9664
7.8321 -2.3183 -2.5123 0.9664
7.9133 -2.0361 -2.5132 0.9664
8.0449 -1.4637 -2.5151 0.9664
8.0953 -1.1742 -2.5160 0.9663
8.1351 -0.8829 -2.5169 0.9663
8.1912 -0.0025 -2.5194 0.9663
2.3038 -7.1233 -2.4886 0.9689
2.5589 -7.0379 -2.4893 0.9689
3.0595 -6.8401 -2.4908 0.9689
3.3043 -6.7278 -2.4915 0.9689
3.5450 -6.6069 -2.4923 0.9689
4.0129 -6.3394 -2.4939 0.9689
4.2394 -6.1932 -2.4948 0.9689
4.4607 -6.0389 -2.4956 0.9688
5.0898 -5.5297 -2.4982 0.9688
5.6613 -4.9552 -2.5009 0.9688
5.8378 -4.7503 -2.5018 0.9688
6.3218 -4.0991 -2.5045 0.9687
6.8537 -3.1558 -2.5081 0.9687
7.0677 -2.6574 -2.5099 0.9687
7.1611 -2.4026 -2.5108 0.9687
7.2454 -2.1446 -2.5117 0.9687
7.3857 -1.6199 -2.5134 0.9686
7.4417 -1.3539 -2.5143 0.9686
7.4879 -1.0861 -2.5151 0.9686
7.5686 -0.2744 -2.5175 0.9686
7.5759 -0.0023 -2.5183 0.9686
7.5610 0.5420 -2.5198 0.9686
2.3796 -6.5447 -2.4903 0.9709
2.6139 -6.4567 -2.4910 0.9708
3.0725 -6.2559 -2.4924 0.9708
3.2962 -6.1433 -2.4931 0.9708
4.1473 -5.6147 -2.4962 0.9708
4.7319 -5.1408 -2.4986 0.9708
4.9152 -4.9691 -2.4994 0.9707
5.2628 -4.6064 -2.5011 0.9707
5.5837 -4.2195 -2.5028 0.9707
5.8763 -3.8102 -2.5045 0.9707
6.2585 -3.1590 -2.5070 0.9707
6.5685 -2.4698 -2.5095 0.9706
6.8027 -1.7504 -2.5120 0.9706
6.8634 -1.5053 -2.5127 0.9706
6.9152 -1.2582 -2.5135 0.9706
7.0326 -0.2550 -2.5166 0.9705
7.0392 -0.0021 -2.5173 0.9705
1.9999 -6.1838 -2.4906 0.9725
2.4400 -6.0273 -2.4919 0.9725
2.6557 -5.9374 -2.4925 0.9725
3.4826 -5.5018 -2.4953 0.9725
4.0580 -5.0996 -2.4975 0.9725
4.4163 -4.7980 -2.4990 0.9725
4.5873 -4.6376 -2.4998 0.9724
5.2108 -3.9376 -2.5029 0.9724
5.4835 -3.5555 -2.5045 0.9724
5.6095 -3.3573 -2.5052 0.9724
5.7282 -3.1546 -2.5060 0.9724
5.9437 -2.7368 -2.5076 0.9724
6.0401 -2.5223 -2.5084 0.9724
6.3468 -1.6331 -2.5114 0.9723
6.4033 -1.4044 -2.5122 0.9723
6.4514 -1.1738 -2.5129 0.9723
6.5604 -0.2378 -2.5157 0.9723
6.5640 0.2340 -2.5170 0.9723
6.5055 0.9396 -2.5189 0.9722
1.8732 -5.7921 -2.4915 0.9740
2.0806 -5.7224 -2.4921 0.9740
2.2854 -5.6454 -2.4926 0.9740
2.6862 -5.4694 -2.4939 0.9740
2.8817 -5.3707 -2.4945 0.9740
3.0736 -5.2651 -2.4952 0.9740
3.2616 -5.1527 -2.4958 0.9740
3.6252 -4.9078 -2.4972 0.9740
4.2957 -4.3428 -2.5000 0.9739
4.8792 -3.6870 -2.5030 0.9739
5.2522 -3.1434 -2.5052 0.9739
5.5648 -2.5623 -2.5074 0.9739
5.8812 -1.7408 -2.5103 0.9738
5.9944 -1.3147 -2.5117 0.9738
6.0766 -0.8814 -2.5130 0.9738
6.1274 -0.4430 -2.5143 0.9738
6.1409 -0.2226 -2.5150 0.9738
6.0891 0.8794 -2.5179 0.9738
1.5627 -5.4996 -2.4917 0.9754
2.1468 -5.3030 -2.4933 0.9753
2.3365 -5.2237 -2.4939 0.9753
2.7068 -5.0448 -2.4951 0.9753
3.0636 -4.8398 -2.4963 0.9753
3.8843 -4.2199 -2.4996 0.9753
4.1796 -3.9323 -2.5010 0.9753
4.3193 -3.7806 -2.5016 0.9753
4.4536 -3.6240 -2.5023 0.9753
4.5821 -3.4626 -2.5030 0.9753
4.7049 -3.2966 -2.5037 0.9752
4.8216 -3.1264 -2.5044 0.9752
5.0364 -2.7736 -2.5058 0.9752
5.1343 -2.5916 -2.5065 0.9752
5.4585 -1.8314 -2.5092 0.9752
5.5222 -1.6345 -2.5099 0.9752
5.6282 -1.2344 -2.5112 0.9752
5.6704 -1.0317 -2.5118 0.9752
5.7053 -0.8275 -2.5125 0.9752
5.7328 -0.6221 -2.5131 0.9752
5.7654 -0.2090 -2.5143 0.9751
5.7705 -0.0017 -2.5149 0.9751
5.7682 0.2056 -2.5155 0.9751
5.7163 0.8256 -2.5171 0.9751
1.4718 -5.1795 -2.4924 0.9765
1.8407 -5.0625 -2.4934 0.9765
2.0218 -4.9942 -2.4940 0.9765
2.3762 -4.8382 -2.4951 0.9765
3.3611 -4.2238 -2.4986 0.9765
3.5115 -4.1014 -2.4992 0.9765
3.7989 -3.8406 -2.5005 0.9765
4.1933 -3.4122 -2.5024 0.9765
4.3143 -3.2602 -2.5031 0.9764
4.4298 -3.1039 -2.5037 0.9764
4.8338 -2.4399 -2.5063 0.9764
4.9196 -2.2652 -2.5070 0.9764
4.9991 -2.0875 -2.5076 0.9764
5.0721 -1.9071 -2.5083 0.9764
5.2518 -1.3513 -2.5102 0.9764
5.3964 -0.5857 -2.5126 0.9764
5.4152 -0.3915 -2.5131 0.9764
5.4270 -0.1967 -2.5137 0.9763
5.4038 0.5832 -2.5158 0.9763
5.3804 0.7771 -2.5163 0.9763
1.3892 -4.8889 -2.4931 0.9776
1.9083 -4.7139 -2.4945 0.9776
2.0769 -4.6432 -2.4951 0.9776
2.2428 -4.5666 -2.4956 0.9776
2.4059 -4.4840 -2.4961 0.9776
3.0261 -4.0968 -2.4983 0.9776
3.1721 -3.9863 -2.4989 0.9776
3.3141 -3.8707 -2.4995 0.9776
3.7139 -3.4942 -2.5013 0.9775
3.8380 -3.3593 -2.5019 0.9775
3.9572 -3.2200 -2.5025 0.9775
4.4744 -2.4641 -2.5056 0.9775
4.7170 -1.9698 -2.5074 0.9775
4.9051 -1.4519 -2.5092 0.9775
4.9552 -1.2750 -2.5098 0.9775
5.0363 -0.9163 -2.5110 0.9775
5.1200 -0.1856 -2.5132 0.9774
5.1245 -0.0015 -2.5137 0.9774
5.1223 0.1826 -2.5142 0.9774
5.0979 0.5502 -2.5152 0.9774
5.0758 0.7331 -2.5156 0.9774
1.4794 -4.5744 -2.4941 0.9786
1.9641 -4.3912 -2.4955 0.9786
2.4267 -4.1569 -2.4971 0.9785
2.7200 -3.9736 -2.4981 0.9785
2.8617 -3.8741 -2.4987 0.9785
2.9996 -3.7697 -2.4992 0.9785
3.2641 -3.5461 -2.5003 0.9785
3.6291 -3.1765 -2.5020 0.9785
3.9526 -2.7695 -2.5038 0.9785
4.1432 -2.4797 -2.5049 0.9785
4.3126 -2.1768 -2.5061 0.9785
4.3890 -2.0209 -2.5067 0.9785
4.5248 -1.7013 -2.5078 0.9785
4.5841 -1.5380 -2.5084 0.9784
4.7613 -0.8663 -2.5106 0.9784
4.8132 -0.5224 -2.5117 0.9784
4.8298 -0.3492 -2.5122 0.9784
4.8191 0.5201 -2.5146 0.9784
4.7982 0.6930 -2.5150 0.9784
1.7097 -4.2234 -2.4955 0.9794
2.0094 -4.0913 -2.4965 0.9794
2.2989 -3.9379 -2.4974 0.9794
2.4393 -3.8536 -2.4979 0.9794
2.5767 -3.7642 -2.4984 0.9794
2.9686 -3.4673 -2.5000 0.9794
3.2113 -3.2466 -2.5011 0.9794
3.3266 -3.1298 -2.5016 0.9794
3.4376 -3.0089 -2.5022 0.9794
3.8366 -2.4876 -2.5044 0.9794
3.9243 -2.3487 -2.5049 0.9794
4.0071 -2.2067 -2.5055 0.9794
4.0846 -2.0617 -2.5060 0.9793
4.2240 -1.7639 -2.5071 0.9793
4.3416 -1.4567 -2.5082 0.9793
4.4759 -0.9817 -2.5097 0.9793
4.5367 -0.6580 -2.5108 0.9793
4.5583 -0.4947 -2.5113 0.9793
4.5838 -0.1662 -2.5122 0.9793
4.5877 -0.0014 -2.5127 0.9793
4.5856 0.1634 -2.5131 0.9793
4.5776 0.3282 -2.5136 0.9793
1.1811 -4.1565 -2.4947 0.9802
1.4770 -4.0622 -2.4955 0.9802
1.7655 -3.9471 -2.4964 0.9802
1.9065 -3.8818 -2.4969 0.9802
2.0451 -3.8115 -2.4973 0.9802
2.1811 -3.7362 -2.4978 0.9802
2.3143 -3.6562 -2.4982 0.9802
2.5720 -3.4819 -2.4992 0.9802
2.6959 -3.3879 -2.4997 0.9802
2.9334 -3.1868 -2.5007 0.9802
3.0466 -3.0800 -2.5012 0.9802
3.3624 -2.7360 -2.5028 0.9802
3.4592 -2.6140 -2.5033 0.9802
3.8012 -2.0933 -2.5054 0.9802
3.8747 -1.9558 -2.5059 0.9802
3.9433 -1.8157 -2.5064 0.9801
4.0068 -1.6732 -2.5069 0.9801
4.1183 -1.3817 -2.5080 0.9801
4.1661 -1.2331 -2.5085 0.9801
4.2771 -0.7782 -2.5099 0.9801
4.3031 -0.6242 -2.5104 0.9801
4.3236 -0.4692 -2.5109 0.9801
4.3385 -0.3136 -2.5114 0.9801
4.3493 0.1550 -2.5127 0.9801
