ply
format ascii 1.0
element vertex 746
property float32 x
property float32 y
property float32 z
property float32 I
end_header
12.2366 14.1316 3.2961 0.9269
9.0800 14.1547 2.9652 0.9340
7.5738 15.1759 2.9907 0.9334
0.7974 24.1321 4.2575 0.9066
-0.5581 14.4453 2.5490 0.9430
-1.0782 14.4581 2.5564 0.9428
-2.1310 14.4841 2.5814 0.9423
-3.2103 14.5108 2.6205 0.9414
-3.7637 14.5245 2.6457 0.9409
-4.9067 14.5529 2.7080 0.9395
-5.5002 14.5676 2.7456 0.9387
-6.7422 14.5984 2.8354 0.9368
-13.8245 21.2883 4.4757 0.9020
-13.9266 19.8509 4.2757 0.9062
-13.9609 18.4566 4.0806 0.9103
-14.0210 16.0108 3.7526 0.9172
-14.0477 14.9270 3.6143 0.9201
9.1135 14.2069 2.5857 0.9340
7.6749 15.3787 2.6330 0.9328
7.7136 16.9497 2.8528 0.9274
7.8075 18.9263 3.1364 0.9205
7.7788 20.9559 3.4244 0.9135
7.8824 23.8171 3.8433 0.9035
8.0181 27.4912 4.3870 0.8906
8.0816 31.9212 5.0444 0.8752
0.9160 27.7209 4.2490 0.8938
-0.0403 14.4317 2.2109 0.9433
-1.6020 14.4703 2.2303 0.9428
-3.2101 14.5100 2.2766 0.9416
-4.3283 14.5377 2.3237 0.9405
-4.9064 14.5520 2.3526 0.9397
-5.4998 14.5667 2.3853 0.9389
-13.7465 27.1639 4.6639 0.8841
-13.7996 25.0036 4.3751 0.8909
-13.9322 21.4541 3.9189 0.9017
-13.9606 18.4563 3.5452 0.9106
-13.9494 17.1300 3.3843 0.9145
-14.9653 14.8021 3.2246 0.9183
11.3921 14.1503 2.3656 0.9293
9.1129 14.2060 2.1978 0.9342
8.4205 14.2230 2.1524 0.9355
7.7553 14.2393 2.1114 0.9367
7.7137 16.9501 2.4251 0.9276
7.7595 18.8100 2.6497 0.9212
7.8147 21.0527 2.9243 0.9134
7.8827 23.8180 3.2670 0.9038
8.0184 27.4923 3.7292 0.8909
8.0820 31.9227 4.2882 0.8756
2.2392 32.4698 4.2383 0.8770
-1.6019 14.4695 1.8957 0.9430
-2.1308 14.4825 1.9062 0.9427
-4.3280 14.5369 1.9751 0.9407
-13.7462 27.1633 3.9644 0.8844
-13.8898 23.1651 3.5173 0.8968
-13.9320 21.4538 3.3311 0.9020
-13.9917 17.1820 2.8855 0.9145
-14.9641 14.8009 2.7408 0.9186
12.2340 14.1286 2.0069 0.9276
11.3913 14.1493 1.9506 0.9295
9.1124 14.2051 1.8122 0.9344
8.4200 14.2221 1.7748 0.9357
7.7548 14.2384 1.7410 0.9369
7.6753 15.3794 1.8457 0.9332
7.7140 16.9506 1.9998 0.9278
7.7597 18.8105 2.1850 0.9214
7.8149 21.0534 2.4115 0.9136
8.0824 31.9242 3.5362 0.8759
8.1080 45.5069 4.9636 0.8303
1.9885 14.0602 1.5248 0.9445
0.9659 14.0057 1.5075 0.9451
0.4620 13.9822 1.5023 0.9453
-0.0403 14.4301 1.5495 0.9436
-0.5580 14.4429 1.5521 0.9435
-1.0780 14.4557 1.5566 0.9434
-2.1307 14.4817 1.5718 0.9428
-3.2097 14.5084 1.5956 0.9420
-4.3278 14.5360 1.6286 0.9408
-6.1101 14.5801 1.6976 0.9384
-13.8460 23.0920 2.8912 0.8973
-13.8880 21.3861 2.7382 0.9025
-13.9602 18.4557 2.4849 0.9111
-13.9915 17.1817 2.3794 0.9147
-14.9630 14.7997 2.2599 0.9188
11.3906 14.1483 1.5376 0.9297
9.1118 14.2042 1.4286 0.9345
8.4195 14.2212 1.3990 0.9358
7.7544 14.2376 1.3724 0.9370
7.6755 15.3798 1.4551 0.9333
7.7142 16.9510 1.5766 0.9280
7.8833 23.8196 2.1240 0.9042
8.0828 31.9257 2.7879 0.8762
8.3117 46.6502 4.0113 0.8268
1.4186 13.5028 1.1493 0.9470
0.9298 13.4832 1.1441 0.9472
-1.6116 14.5573 1.2398 0.9429
-2.1226 14.4267 1.2344 0.9431
-2.6660 14.4942 1.2476 0.9426
-3.2096 14.5076 1.2578 0.9421
-4.8872 14.4950 1.2949 0.9404
-5.4783 14.5097 1.3129 0.9396
-6.7406 14.5949 1.3609 0.9375
-13.7456 27.1621 2.5770 0.8850
-13.8878 21.3857 2.1586 0.9027
-13.9913 17.1814 1.8757 0.9149
-14.0202 16.0098 1.8015 0.9181
-14.0468 14.9261 1.7351 0.9210
12.2323 14.1267 1.1588 0.9278
10.5923 14.1670 1.0969 0.9316
9.0771 14.1502 1.0425 0.9348
7.7439 20.8621 1.3799 0.9147
7.9699 27.3259 1.7651 0.8922
8.0832 31.9272 2.0423 0.8763
1.8352 12.9764 0.8127 0.9488
1.3642 12.9853 0.8097 0.9490
0.8962 12.9959 0.8078 0.9491
0.4289 12.9815 0.8054 0.9493
-0.5579 14.4414 0.8962 0.9437
-1.0779 14.4542 0.8988 0.9436
-1.6115 14.5565 0.9082 0.9430
-3.7626 14.5204 0.9302 0.9417
-4.9356 14.6386 0.9580 0.9400
-6.1094 14.5784 0.9802 0.9386
-6.7402 14.5940 0.9968 0.9376
-13.7985 25.0015 1.7708 0.8919
-13.8455 23.0912 1.6696 0.8977
-13.8875 21.3853 1.5812 0.9029
-13.9597 18.4551 1.4349 0.9114
-13.9265 15.9029 1.3108 0.9188
12.2315 14.1257 0.7368 0.9279
11.3890 14.1464 0.7161 0.9299
10.5916 14.1660 0.6974 0.9316
9.8693 14.2360 0.6830 0.9330
8.4185 14.2195 0.6516 0.9360
7.6759 15.3806 0.6778 0.9335
7.7146 16.9519 0.7344 0.9282
9.6905 44.9920 1.8148 0.8317
8.3128 46.6566 1.8687 0.8272
0.8633 12.5186 0.4948 0.9510
-0.0403 14.4278 0.5689 0.9439
-0.5579 14.4406 0.5698 0.9438
-1.0779 14.4534 0.5715 0.9436
-2.1224 14.4252 0.5749 0.9433
-2.6657 14.4926 0.5810 0.9427
-3.7624 14.5196 0.5914 0.9417
-6.7398 14.5932 0.6338 0.9377
-13.7982 25.0010 1.1260 0.8920
-13.8888 23.1633 1.0650 0.8975
-13.9251 19.8488 0.9561 0.9075
-13.9445 17.1239 0.8708 0.9154
-14.9595 14.7962 0.8297 0.9192
9.8695 14.2363 0.2926 0.9330
8.4179 14.2186 0.2791 0.9360
7.8088 18.9295 0.3459 0.9213
7.7761 20.9488 0.3775 0.9145
7.8841 23.8222 0.4239 0.9045
8.0839 31.9301 0.5564 0.8765
5.2081 24.1806 0.4178 0.9058
2.0725 19.7271 0.3351 0.9237
-0.0403 14.4271 0.2437 0.9439
-1.6113 14.5550 0.2474 0.9431
-2.1222 14.4244 0.2463 0.9433
-2.6656 14.4918 0.2489 0.9428
-6.1087 14.5767 0.2670 0.9387
-13.3079 24.1127 0.4652 0.8957
-13.9307 21.4518 0.4321 0.9027
-13.9249 19.8485 0.4096 0.9076
-13.9592 18.4545 0.3909 0.9116
11.3875 14.1445 -0.1022 0.9299
10.5902 14.1642 -0.0996 0.9317
9.7956 14.1298 -0.0968 0.9335
9.0754 14.1475 -0.0946 0.9350
8.4174 14.2178 -0.0930 0.9360
7.7525 14.2342 -0.0913 0.9372
7.5752 15.1789 -0.0955 0.9344
7.6135 16.7297 -0.1035 0.9291
7.6899 18.6411 -0.1135 0.9225
7.8844 23.8230 -0.1413 0.9045
7.8979 27.0793 -0.1588 0.8933
3.2363 22.8832 -0.1301 0.9117
1.6558 24.0109 -0.1355 0.9082
-0.5578 14.4390 -0.0814 0.9438
-2.6654 14.4910 -0.0830 0.9428
-4.3266 14.5320 -0.0854 0.9412
-5.4770 14.5063 -0.0873 0.9399
-11.8810 23.4776 -0.1481 0.9001
-12.8482 23.2796 -0.1497 0.8991
-13.8225 21.2852 -0.1429 0.9035
-13.9246 19.8481 -0.1365 0.9076
-13.9590 18.4542 -0.1303 0.9116
-13.9259 15.9022 -0.1190 0.9189
-14.0460 14.9252 -0.1154 0.9213
12.2289 14.1228 -0.5260 0.9280
11.3868 14.1436 -0.5113 0.9299
10.5895 14.1633 -0.4980 0.9317
9.8318 14.1820 -0.4859 0.9333
8.4169 14.2169 -0.4652 0.9360
7.7521 14.2333 -0.4564 0.9372
7.6764 15.3817 -0.4841 0.9335
7.7152 16.9532 -0.5245 0.9282
7.8164 21.0574 -0.6325 0.9140
7.9711 27.3303 -0.8016 0.8923
8.0846 31.9331 -0.9275 0.8765
5.2068 24.1747 -0.6963 0.9058
-1.0777 14.4511 -0.4080 0.9437
-1.6013 14.4640 -0.4098 0.9434
-2.1300 14.4770 -0.4120 0.9431
-2.6653 14.4902 -0.4149 0.9427
-4.3263 14.5312 -0.4269 0.9411
-4.9041 14.5454 -0.4322 0.9404
-6.7386 14.5905 -0.4525 0.9377
-11.8807 23.4771 -0.7409 0.9001
-13.2256 22.0572 -0.7242 0.9022
-13.8865 21.3838 -0.7179 0.9030
-13.9902 17.1801 -0.6239 0.9152
-14.0458 14.9250 -0.5771 0.9213
-14.9560 14.7928 -0.5923 0.9193
12.2281 14.1218 -0.9474 0.9279
11.3860 14.1426 -0.9208 0.9299
10.5888 14.1623 -0.8968 0.9316
9.8312 14.1811 -0.8751 0.9332
9.1084 14.1989 -0.8555 0.9347
7.7516 14.2325 -0.8219 0.9372
7.7154 16.9537 -0.9446 0.9281
7.7613 18.8143 -1.0322 0.9217
7.8166 21.0581 -1.1391 0.9140
7.8849 23.8247 -1.2727 0.9044
8.0850 31.9346 -1.6706 0.8764
5.2062 24.1718 -1.2540 0.9057
1.9313 13.6552 -0.6994 0.9463
1.2689 18.4002 -0.9354 0.9288
0.6122 18.5268 -0.9401 0.9284
-0.5578 14.4375 -0.7327 0.9438
-1.6012 14.4632 -0.7380 0.9434
-2.1299 14.4763 -0.7421 0.9431
-2.6651 14.4894 -0.7471 0.9427
-3.2085 14.5028 -0.7533 0.9422
-3.7616 14.5164 -0.7605 0.9417
-4.3261 14.5303 -0.7689 0.9411
-4.9039 14.5446 -0.7784 0.9404
-6.1076 14.5742 -0.8014 0.9387
-11.9265 21.6098 -1.2518 0.9059
-12.7256 21.2234 -1.2550 0.9056
-13.7995 21.2498 -1.2850 0.9035
-13.9242 19.8475 -1.2295 0.9075
-13.9900 17.1798 -1.1236 0.9151
-14.0456 14.9248 -1.0394 0.9212
-14.9548 14.7917 -1.0667 0.9192
11.3852 14.1417 -1.3312 0.9298
10.5881 14.1614 -1.2965 0.9315
9.8305 14.1802 -1.2651 0.9331
9.1079 14.1981 -1.2368 0.9346
8.4159 14.2152 -1.2113 0.9359
7.8169 21.0587 -1.6470 0.9138
3.6363 20.4093 -1.5200 0.9202
1.8885 13.3525 -0.9888 0.9474
1.5129 14.4004 -1.0617 0.9436
0.4768 14.4280 -1.0585 0.9437
-0.0403 14.4240 -1.0576 0.9438
-0.5577 14.4367 -1.0593 0.9437
-3.2083 14.5020 -1.0890 0.9422
-3.7613 14.5156 -1.0995 0.9416
-4.3258 14.5295 -1.1116 0.9410
-4.9036 14.5437 -1.1254 0.9403
-5.4967 14.5583 -1.1410 0.9395
-6.1072 14.5733 -1.1586 0.9386
-6.7378 14.5888 -1.1783 0.9376
-11.8802 23.4761 -1.9292 0.8999
-11.9263 21.6093 -1.8097 0.9057
-12.2257 20.3897 -1.7432 0.9091
-13.2574 20.4150 -1.7848 0.9070
-13.9239 19.8471 -1.7776 0.9073
-13.9583 18.4533 -1.6965 0.9114
-13.9897 17.1795 -1.6245 0.9150
11.3845 14.1408 -1.7429 0.9296
10.5874 14.1605 -1.6974 0.9314
9.1072 14.1972 -1.6193 0.9345
8.4154 14.2143 -1.5859 0.9358
7.6770 15.3828 -1.6505 0.9332
7.8171 21.0594 -2.1566 0.9137
7.4495 22.5089 -2.2762 0.9091
5.8237 23.0027 -2.2780 0.9091
1.8473 13.0620 -1.2665 0.9484
1.4829 14.1155 -1.3626 0.9446
0.4673 14.1425 -1.3585 0.9447
-0.0403 14.4232 -1.3847 0.9437
-0.5577 14.4360 -1.3870 0.9436
-1.0775 14.4488 -1.3910 0.9434
-1.6010 14.4617 -1.3969 0.9432
-2.6649 14.4879 -1.4142 0.9425
-3.2081 14.5012 -1.4259 0.9421
-4.3256 14.5287 -1.4553 0.9409
-4.9033 14.5429 -1.4734 0.9402
-5.4963 14.5575 -1.4939 0.9394
-6.1069 14.5725 -1.5169 0.9385
-10.7249 21.1929 -2.2803 0.9090
-11.4737 20.7892 -2.2797 0.9090
-11.9668 19.9579 -2.2341 0.9107
-12.7154 19.5803 -2.2414 0.9105
-13.5878 19.3680 -2.2714 0.9093
-13.9895 17.1793 -2.1270 0.9148
-14.0184 16.0079 -2.0428 0.9180
-14.0452 14.9243 -1.9675 0.9209
-14.9525 14.7894 -2.0191 0.9190
12.2256 14.1189 -2.2185 0.9275
10.5867 14.1596 -2.1001 0.9313
9.8293 14.1783 -2.0493 0.9329
9.1067 14.1963 -2.0035 0.9343
8.4148 14.2134 -1.9621 0.9356
7.7502 14.2299 -1.9248 0.9368
7.6772 15.3832 -2.0422 0.9331
7.7160 16.9550 -2.2128 0.9277
7.2707 17.6249 -2.2647 0.9261
5.3440 18.3227 -2.2672 0.9260
0.9340 13.5436 -1.6126 0.9468
0.4479 13.5565 -1.6112 0.9468
-1.0774 14.4480 -1.7210 0.9433
-3.2080 14.5004 -1.7641 0.9419
-3.7610 14.5140 -1.7810 0.9414
-5.4960 14.5567 -1.8483 0.9392
-9.8210 16.3792 -2.2686 0.9260
-10.3984 16.0124 -2.2679 0.9260
-13.5447 13.3969 -2.2630 0.9261
9.5185 12.7308 -2.2523 0.9378
8.5901 13.3910 -2.2542 0.9377
8.1083 13.6956 -2.2551 0.9377
7.6155 13.9826 -2.2560 0.9377
6.0783 14.7344 -2.2584 0.9376
5.0110 15.1410 -2.2598 0.9376
4.4668 15.3150 -2.2604 0.9376
3.9164 15.4691 -2.2610 0.9376
3.3607 15.6032 -2.2615 0.9376
2.8003 15.7170 -2.2620 0.9375
1.3956 13.2838 -1.8925 0.9475
0.4398 13.3092 -1.8868 0.9476
-1.0774 14.4472 -2.0527 0.9432
-1.6008 14.4601 -2.0614 0.9429
-2.1294 14.4731 -2.0728 0.9426
-2.6646 14.4863 -2.0870 0.9422
-4.3251 14.5271 -2.1476 0.9406
-4.9028 14.5412 -2.1743 0.9399
-8.1638 10.7927 -1.9174 0.9468
-10.0680 12.3636 -2.2592 0.9376
8.9277 10.3102 -2.2468 0.9462
8.5561 10.6276 -2.2477 0.9462
8.1731 10.9314 -2.2485 0.9462
6.9610 11.7577 -2.2510 0.9461
6.5376 12.0035 -2.2517 0.9461
5.2171 12.6470 -2.2538 0.9460
4.3007 12.9948 -2.2550 0.9460
2.4030 13.4872 -2.2569 0.9460
1.3683 13.0246 -2.1575 0.9483
0.8991 13.0371 -2.1528 0.9484
0.4312 13.0495 -2.1509 0.9484
-0.0383 13.7086 -2.2584 0.9459
-0.5293 13.6995 -2.2585 0.9459
-1.0196 13.6726 -2.2587 0.9459
-1.9958 13.5653 -2.2588 0.9459
-2.4804 13.4851 -2.2588 0.9459
-3.4392 13.2723 -2.2587 0.9459
-3.9121 13.1398 -2.2585 0.9459
-4.3798 12.9903 -2.2584 0.9459
-5.2974 12.6409 -2.2579 0.9460
-5.7460 12.4414 -2.2576 0.9460
-6.1870 12.2258 -2.2573 0.9460
-7.4585 11.4853 -2.2560 0.9460
-7.6198 10.8613 -2.1857 0.9476
-9.6319 10.2347 -2.3153 0.9446
-10.2692 10.1572 -2.3795 0.9431
7.9122 9.8278 -2.3715 0.9499
7.5171 10.0539 -2.3595 0.9502
6.0925 10.2908 -2.2478 0.9525
5.7217 10.5055 -2.2485 0.9525
5.3433 10.7066 -2.2491 0.9525
4.9577 10.8940 -2.2497 0.9525
4.5655 11.0674 -2.2503 0.9524
4.1672 11.2264 -2.2508 0.9524
3.3543 11.5009 -2.2518 0.9524
1.6788 11.8701 -2.2533 0.9524
1.2527 11.9242 -2.2536 0.9524
0.8250 11.9628 -2.2539 0.9524
0.3961 11.9859 -2.2541 0.9524
-0.0335 11.9934 -2.2543 0.9524
-0.8921 11.9616 -2.2546 0.9524
-1.3199 11.9224 -2.2546 0.9524
-2.5911 11.7121 -2.2546 0.9524
-4.6347 11.0595 -2.2539 0.9524
-5.4132 10.6967 -2.2534 0.9524
-6.1631 10.2786 -2.2527 0.9524
-7.1620 10.2086 -2.3439 0.9505
-7.6331 10.0913 -2.3783 0.9498
-7.9879 9.8092 -2.3777 0.9498
-8.3321 9.5146 -2.3772 0.9498
-8.6654 9.2078 -2.3766 0.9498
-8.9872 8.8892 -2.3760 0.9499
7.3348 8.4707 -2.3685 0.9552
6.3897 9.2169 -2.3706 0.9552
5.7167 9.6559 -2.3720 0.9552
4.5895 10.0848 -2.3421 0.9557
1.8671 10.4791 -2.2500 0.9574
1.1124 10.5885 -2.2505 0.9574
-0.0297 10.6496 -2.2511 0.9574
-0.4112 10.6423 -2.2512 0.9574
-1.1720 10.5864 -2.2514 0.9574
-1.5504 10.5377 -2.2515 0.9574
-2.6716 10.3102 -2.2514 0.9574
-3.0390 10.2075 -2.2513 0.9574
-4.7028 10.1827 -2.3709 0.9552
-5.0778 10.0341 -2.3771 0.9551
-5.7815 9.6422 -2.3765 0.9551
-6.1221 9.4275 -2.3761 0.9551
-6.4548 9.2006 -2.3757 0.9551
-7.7364 8.2207 -2.3862 0.9549
-8.2938 8.2033 -2.4658 0.9534
6.6024 8.2009 -2.4744 0.9577
6.1407 8.2130 -2.4101 0.9587
5.7421 8.2828 -2.3687 0.9594
5.1371 8.6769 -2.3699 0.9594
4.8241 8.8574 -2.3704 0.9594
3.8487 9.3296 -2.3719 0.9594
2.8273 9.6938 -2.3732 0.9594
2.4787 9.7904 -2.3736 0.9594
1.0557 10.0490 -2.3747 0.9593
0.6952 10.0812 -2.3750 0.9593
-1.1122 10.0465 -2.3756 0.9593
-1.4713 10.0004 -2.3756 0.9593
-2.1834 9.8693 -2.3756 0.9593
-2.5354 9.7845 -2.3755 0.9593
-2.8841 9.6870 -2.3754 0.9593
-3.2290 9.5770 -2.3753 0.9593
-4.5619 9.0147 -2.3745 0.9593
-4.8813 8.8445 -2.3742 0.9593
-5.5004 8.4701 -2.3736 0.9594
-5.7994 8.2664 -2.3732 0.9594
-6.6771 8.1996 -2.4852 0.9575
-7.6374 7.5541 -2.5247 0.9568
5.8279 7.7946 -2.5199 0.9606
5.5463 8.0003 -2.5205 0.9606
4.8561 8.2022 -2.4680 0.9614
4.1038 8.2229 -2.3795 0.9627
3.4907 8.4618 -2.3700 0.9629
3.1859 8.5829 -2.3704 0.9629
2.8770 8.6929 -2.3708 0.9629
2.5642 8.7916 -2.3712 0.9629
1.9287 8.9550 -2.3718 0.9629
1.2831 9.0722 -2.3723 0.9628
0.6305 9.1424 -2.3728 0.9628
-0.0256 9.1653 -2.3731 0.9628
-0.6817 9.1407 -2.3733 0.9628
-1.3343 9.0688 -2.3734 0.9628
-1.6582 9.0152 -2.3734 0.9628
-2.6154 8.7847 -2.3732 0.9628
-2.9283 8.6850 -2.3731 0.9628
-3.2372 8.5741 -2.3729 0.9628
-3.5420 8.4520 -2.3728 0.9628
-4.1598 8.2202 -2.3854 0.9626
-4.5312 8.2102 -2.4280 0.9620
-5.3118 8.1796 -2.5252 0.9605
-6.6787 7.0967 -2.5232 0.9605
-6.9273 6.8517 -2.5227 0.9605
5.8210 6.7224 -2.5174 0.9637
5.3272 7.1251 -2.5185 0.9637
5.0697 7.3129 -2.5191 0.9637
4.2587 7.8192 -2.5206 0.9637
3.9766 7.9682 -2.5210 0.9637
3.6894 8.1069 -2.5215 0.9636
3.0441 8.2008 -2.4764 0.9643
2.3949 8.2111 -2.4214 0.9651
2.0799 8.2153 -2.3991 0.9654
1.7709 8.2223 -2.3810 0.9656
1.4687 8.2430 -2.3703 0.9658
1.1726 8.2911 -2.3705 0.9658
0.8750 8.3285 -2.3707 0.9658
0.2770 8.3824 -2.3743 0.9657
-0.3234 8.3702 -2.3713 0.9658
-1.2194 8.2878 -2.3715 0.9658
-2.4446 8.2107 -2.4252 0.9650
-2.7667 8.2057 -2.4515 0.9646
-3.0961 8.2002 -2.4814 0.9642
-4.3080 7.8057 -2.5239 0.9636
-5.1186 7.2960 -2.5231 0.9636
-5.6261 6.9089 -2.5223 0.9636
-6.1043 6.4864 -2.5215 0.9636
-6.3316 6.2625 -2.5211 0.9637
4.9009 6.5548 -2.5173 0.9663
4.6639 6.7275 -2.5178 0.9663
4.4208 6.8915 -2.5183 0.9663
4.1719 7.0467 -2.5188 0.9663
3.9176 7.1929 -2.5192 0.9663
3.6581 7.3298 -2.5197 0.9663
3.3937 7.4573 -2.5201 0.9663
3.1250 7.5753 -2.5205 0.9663
1.1485 8.1204 -2.5225 0.9663
0.5644 8.1830 -2.5229 0.9663
-0.6101 8.1813 -2.5234 0.9662
-1.1943 8.1169 -2.5234 0.9662
-1.7722 8.0105 -2.5234 0.9662
-2.6209 7.7735 -2.5232 0.9663
-3.9625 7.1797 -2.5223 0.9663
-4.4654 6.8762 -2.5218 0.9663
-4.7082 6.7111 -2.5215 0.9663
-5.3987 6.1649 -2.5205 0.9663
4.9534 5.7205 -2.5153 0.9686
4.7463 5.8954 -2.5158 0.9686
4.3137 6.2224 -2.5168 0.9686
3.8586 6.5175 -2.5177 0.9686
3.6233 6.6526 -2.5181 0.9686
2.8901 7.0060 -2.5192 0.9686
2.6377 7.1059 -2.5195 0.9686
2.1228 7.2783 -2.5201 0.9685
1.3303 7.4663 -2.5209 0.9685
1.0621 7.5097 -2.5211 0.9685
0.5219 7.5675 -2.5215 0.9685
0.2505 7.5818 -2.5216 0.9685
-0.0212 7.5863 -2.5217 0.9685
-0.2929 7.5809 -2.5218 0.9685
-0.5642 7.5658 -2.5219 0.9685
-0.8348 7.5409 -2.5219 0.9685
-1.3725 7.4618 -2.5220 0.9685
-2.1648 7.2712 -2.5218 0.9685
-2.6795 7.0970 -2.5216 0.9685
-3.4247 6.7673 -2.5211 0.9685
-3.6645 6.6398 -2.5209 0.9685
-4.3543 6.2066 -2.5202 0.9685
-4.5732 6.0459 -2.5199 0.9686
-4.9930 5.7016 -2.5192 0.9686
-5.1933 5.5183 -2.5189 0.9686
4.4103 5.4781 -2.5150 0.9706
4.2120 5.6335 -2.5154 0.9706
3.7992 5.9226 -2.5163 0.9706
3.3666 6.1813 -2.5171 0.9705
3.1435 6.2988 -2.5174 0.9705
1.9723 6.7623 -2.5190 0.9705
1.7290 6.8292 -2.5192 0.9705
1.2360 6.9367 -2.5197 0.9705
0.9868 6.9771 -2.5199 0.9705
0.4849 7.0307 -2.5202 0.9705
0.2328 7.0440 -2.5203 0.9705
-0.0197 7.0481 -2.5205 0.9705
-0.2721 7.0431 -2.5205 0.9705
-0.5241 7.0290 -2.5206 0.9705
-1.0260 6.9737 -2.5207 0.9705
-1.2751 6.9324 -2.5207 0.9705
-1.5226 6.8823 -2.5207 0.9705
-1.7680 6.8232 -2.5206 0.9705
-2.0113 6.7553 -2.5205 0.9705
-2.4895 6.5935 -2.5204 0.9705
-2.7239 6.4998 -2.5202 0.9705
-3.1817 6.2873 -2.5199 0.9705
-3.6231 6.0425 -2.5195 0.9705
-4.2490 5.6173 -2.5187 0.9705
-4.4469 5.4609 -2.5184 0.9705
4.1143 5.1104 -2.5142 0.9723
3.3445 5.6491 -2.5158 0.9723
3.1404 5.7661 -2.5162 0.9723
2.9324 5.8757 -2.5165 0.9723
2.7204 5.9777 -2.5168 0.9723
2.5048 6.0721 -2.5171 0.9723
2.0642 6.2372 -2.5177 0.9722
1.8397 6.3078 -2.5180 0.9722
1.6128 6.3702 -2.5182 0.9722
0.9204 6.5080 -2.5188 0.9722
0.6868 6.5372 -2.5190 0.9722
0.4523 6.5580 -2.5191 0.9722
0.2171 6.5703 -2.5192 0.9722
-0.0184 6.5741 -2.5193 0.9722
-0.2538 6.5695 -2.5194 0.9722
-0.4889 6.5563 -2.5195 0.9722
-1.1894 6.4662 -2.5195 0.9722
-1.6491 6.3643 -2.5195 0.9722
-1.8760 6.3010 -2.5194 0.9722
-2.1004 6.2296 -2.5193 0.9722
-2.3221 6.1501 -2.5192 0.9722
-2.5407 6.0627 -2.5191 0.9722
-2.7561 5.9675 -2.5190 0.9722
-3.1757 5.7541 -2.5186 0.9722
-3.3795 5.6363 -2.5184 0.9722
-3.5789 5.5112 -2.5182 0.9722
-3.7736 5.3789 -2.5180 0.9722
-3.9635 5.2398 -2.5177 0.9722
-4.3274 4.9415 -2.5172 0.9723
-4.5011 4.7828 -2.5169 0.9723
4.0196 4.6421 -2.5132 0.9738
3.8514 4.7838 -2.5136 0.9738
3.6781 4.9194 -2.5139 0.9738
3.5001 5.0488 -2.5143 0.9738
3.1306 5.2879 -2.5150 0.9738
2.9396 5.3973 -2.5154 0.9738
2.1398 5.7645 -2.5166 0.9738
1.5095 5.9624 -2.5173 0.9738
0.2032 6.1496 -2.5182 0.9738
-0.2375 6.1488 -2.5184 0.9738
-0.4576 6.1365 -2.5185 0.9738
-0.8957 6.0881 -2.5185 0.9738
-1.1132 6.0521 -2.5185 0.9738
-1.5435 5.9568 -2.5185 0.9738
-2.1734 5.7563 -2.5182 0.9738
-2.3780 5.6745 -2.5181 0.9738
-2.5796 5.5854 -2.5180 0.9738
-2.7778 5.4891 -2.5179 0.9738
-3.5321 5.0346 -2.5171 0.9738
-3.8827 4.7680 -2.5166 0.9738
-4.0505 4.6253 -2.5163 0.9738
-4.2131 4.4768 -2.5160 0.9738
3.6159 4.4914 -2.5130 0.9752
3.4533 4.6187 -2.5133 0.9752
3.1146 4.8554 -2.5140 0.9751
2.9391 4.9645 -2.5143 0.9751
2.5769 5.1634 -2.5150 0.9751
2.2011 5.3358 -2.5155 0.9751
1.8139 5.4807 -2.5160 0.9751
1.2158 5.6451 -2.5166 0.9751
0.6035 5.7440 -2.5171 0.9751
0.1908 5.7730 -2.5173 0.9751
-0.0162 5.7764 -2.5174 0.9751
-0.2230 5.7722 -2.5175 0.9751
-0.8409 5.7153 -2.5176 0.9751
-1.0450 5.6815 -2.5176 0.9751
-1.8455 5.4736 -2.5174 0.9751
-2.0403 5.4038 -2.5174 0.9751
-2.4217 5.2435 -2.5171 0.9751
-2.9695 4.9525 -2.5167 0.9751
-3.1448 4.8426 -2.5165 0.9751
-3.4828 4.6043 -2.5160 0.9751
-4.1029 4.0581 -2.5150 0.9751
3.5525 4.1026 -2.5121 0.9764
3.4038 4.2278 -2.5124 0.9764
3.2506 4.3476 -2.5128 0.9764
3.0932 4.4618 -2.5131 0.9764
2.9318 4.5704 -2.5134 0.9764
2.4256 4.8602 -2.5143 0.9763
2.0718 5.0224 -2.5148 0.9763
1.8908 5.0939 -2.5151 0.9763
1.3339 5.2686 -2.5157 0.9763
0.9535 5.3513 -2.5160 0.9763
0.7612 5.3823 -2.5162 0.9763
-0.0152 5.4368 -2.5166 0.9763
-0.4043 5.4220 -2.5168 0.9763
-0.5983 5.4042 -2.5168 0.9763
-0.7914 5.3793 -2.5168 0.9763
-0.9836 5.3475 -2.5168 0.9763
-1.7370 5.1519 -2.5166 0.9763
-2.1012 5.0140 -2.5165 0.9763
-2.4545 4.8502 -2.5162 0.9763
-2.6265 4.7589 -2.5161 0.9763
-2.7951 4.6615 -2.5159 0.9763
-3.1211 4.4488 -2.5155 0.9763
-3.2782 4.3338 -2.5153 0.9763
-3.4310 4.2133 -2.5151 0.9763
3.3517 3.8708 -2.5116 0.9774
3.2113 3.9888 -2.5119 0.9774
3.0668 4.1018 -2.5123 0.9774
2.9183 4.2096 -2.5126 0.9774
2.7660 4.3119 -2.5129 0.9774
2.6101 4.4087 -2.5132 0.9774
2.1229 4.6647 -2.5140 0.9774
1.6107 4.8668 -2.5146 0.9774
1.4355 4.9218 -2.5148 0.9774
-0.0143 5.1290 -2.5159 0.9774
-0.1980 5.1253 -2.5160 0.9774
-0.3815 5.1150 -2.5160 0.9774
-1.1080 5.0082 -2.5161 0.9774
-1.2866 4.9653 -2.5160 0.9774
-1.4636 4.9159 -2.5160 0.9774
-1.8116 4.7983 -2.5158 0.9774
-2.4778 4.4896 -2.5154 0.9774
-2.6369 4.3977 -2.5152 0.9774
-2.7924 4.3001 -2.5150 0.9774
-3.0927 4.0886 -2.5147 0.9774
-3.5124 3.7323 -2.5140 0.9774
-3.6435 3.6037 -2.5137 0.9774
3.1686 3.6593 -2.5112 0.9784
3.0359 3.7709 -2.5115 0.9784
2.8993 3.8777 -2.5118 0.9784
2.6148 4.0762 -2.5124 0.9784
2.4675 4.1677 -2.5126 0.9784
2.3169 4.2539 -2.5129 0.9784
2.1632 4.3346 -2.5132 0.9784
2.0068 4.4097 -2.5134 0.9784
1.5226 4.6006 -2.5140 0.9784
1.0206 4.7384 -2.5146 0.9784
0.6788 4.7999 -2.5149 0.9784
0.3336 4.8366 -2.5151 0.9784
0.1601 4.8456 -2.5152 0.9784
-0.0135 4.8484 -2.5152 0.9784
-0.1866 4.8306 -2.5079 0.9785
-0.3595 4.8209 -2.5079 0.9785
-0.7058 4.7970 -2.5154 0.9784
-0.8771 4.7687 -2.5154 0.9784
-1.0473 4.7342 -2.5154 0.9784
-1.3835 4.6469 -2.5153 0.9784
-1.8738 4.4713 -2.5151 0.9784
-2.0327 4.4012 -2.5150 0.9784
-2.4926 4.1571 -2.5146 0.9784
-2.7834 3.9675 -2.5143 0.9784
-2.9235 3.8650 -2.5141 0.9784
-3.0598 3.7575 -2.5139 0.9784
-3.3204 3.5282 -2.5134 0.9784
-3.4443 3.4067 -2.5132 0.9784
3.0008 3.4655 -2.5108 0.9793
2.7457 3.6723 -2.5114 0.9793
2.6127 3.7687 -2.5116 0.9793
2.4763 3.8603 -2.5119 0.9793
2.3367 3.9469 -2.5122 0.9793
2.1941 4.0284 -2.5124 0.9793
1.4419 4.3568 -2.5135 0.9793
1.2850 4.4059 -2.5137 0.9793
1.1265 4.4494 -2.5138 0.9793
0.9664 4.4872 -2.5140 0.9793
0.8052 4.5192 -2.5141 0.9793
0.3159 4.5800 -2.5145 0.9793
-0.0128 4.5912 -2.5146 0.9793
-0.1767 4.5744 -2.5073 0.9793
-0.8306 4.5157 -2.5148 0.9793
-1.4669 4.3506 -2.5146 0.9793
-1.6217 4.2952 -2.5146 0.9793
-1.7744 4.2342 -2.5145 0.9793
-2.0728 4.0960 -2.5143 0.9793
-2.2180 4.0189 -2.5141 0.9793
-2.6358 3.7571 -2.5137 0.9793
-2.8976 3.5583 -2.5133 0.9793
-3.1444 3.3412 -2.5129 0.9793
-3.2617 3.2261 -2.5127 0.9793
2.8463 3.2871 -2.5104 0.9801
2.7271 3.3873 -2.5107 0.9801
2.4781 3.5746 -2.5112 0.9801
2.3487 3.6614 -2.5115 0.9801
2.2163 3.7436 -2.5117 0.9801
2.0811 3.8209 -2.5120 0.9801
1.6596 4.0231 -2.5126 0.9801
1.5146 4.0803 -2.5128 0.9801
1.3676 4.1322 -2.5130 0.9801
0.9167 4.2559 -2.5135 0.9801
0.7637 4.2862 -2.5136 0.9801
0.2996 4.3439 -2.5139 0.9801
0.1438 4.3520 -2.5140 0.9801
-0.1676 4.3385 -2.5067 0.9801
-0.4778 4.3155 -2.5068 0.9801
-0.7878 4.2829 -2.5142 0.9801
-1.0923 4.2154 -2.5142 0.9801
-1.5380 4.0737 -2.5140 0.9801
-1.6829 4.0159 -2.5139 0.9801
-1.9659 3.8848 -2.5137 0.9801
-2.1037 3.8117 -2.5136 0.9801
-2.3709 3.6509 -2.5133 0.9801
-2.6258 3.4714 -2.5130 0.9801
-3.0937 3.0599 -2.5122 0.9801
