ply
format ascii 1.0
element vertex 459
property float32 x
property float32 y
property float32 z
property float32 I
end_header
6.3584 -17.2664 3.2444 0.9280
6.3577 -17.2647 2.8185 0.9283
15.0479 -30.2665 4.4016 0.8725
6.3565 -17.2613 1.9752 0.9287
15.0466 -30.2639 2.8611 0.8731
6.3542 -17.2551 0.3106 0.9291
15.0441 -30.2589 -0.1903 0.8736
-5.3100 -44.9695 -2.2964 0.8341
-3.6751 -45.0750 -2.2935 0.8343
-2.0396 -45.1226 -2.2907 0.8345
-0.4054 -45.1130 -2.2880 0.8347
1.2254 -45.0460 -2.2853 0.8349
2.8505 -44.9157 -2.2824 0.8351
4.4679 -44.7274 -2.2796 0.8352
6.0757 -44.4829 -2.2769 0.8354
7.6729 -44.1883 -2.2745 0.8356
10.8328 -43.4577 -2.2714 0.8358
6.3534 -17.2530 -0.9324 0.9290
16.9307 -41.3032 -2.2638 0.8363
22.6482 -41.6977 -2.4065 0.8269
25.5819 -39.9168 -2.4044 0.8271
28.3826 -37.9381 -2.4028 0.8272
34.7218 -32.1902 -2.4012 0.8273
35.8644 -30.9138 -2.4013 0.8273
39.0179 -26.8572 -2.4022 0.8272
40.8794 -23.9785 -2.4035 0.8271
41.1887 -20.3104 -2.3290 0.8320
41.3085 -16.7755 -2.2611 0.8365
-0.2826 -31.4496 -2.3060 0.8815
3.1203 -31.2365 -2.3017 0.8817
4.2458 -31.0856 -2.3004 0.8818
8.6680 -30.0899 -2.2960 0.8820
11.8637 -28.9420 -2.2935 0.8821
12.8990 -28.4854 -2.2928 0.8821
13.9175 -27.9928 -2.2922 0.8822
16.8248 -26.2527 -2.2863 0.8824
18.9098 -27.2806 -2.4338 0.8754
19.8801 -26.5731 -2.4333 0.8754
21.7428 -25.0585 -2.4326 0.8754
23.4941 -23.4173 -2.4322 0.8754
25.1256 -21.6573 -2.4322 0.8754
25.8940 -20.7353 -2.4323 0.8754
26.6296 -19.7869 -2.4325 0.8754
27.3316 -18.8131 -2.4329 0.8754
28.6310 -16.7940 -2.4338 0.8754
29.2268 -15.7511 -2.4344 0.8753
29.7858 -14.6876 -2.4350 0.8753
30.3072 -13.6048 -2.4358 0.8753
-3.7047 -23.9108 -2.3229 0.9073
-0.2169 -24.1414 -2.3178 0.9075
0.6562 -24.1213 -2.3166 0.9076
4.9748 -23.5585 -2.3116 0.9078
6.3265 -17.1797 -1.7576 0.9291
9.9149 -21.8953 -2.3075 0.9079
10.6983 -21.5180 -2.3071 0.9080
11.4678 -21.1133 -2.3067 0.9080
12.2222 -20.6816 -2.3063 0.9080
12.9609 -20.2235 -2.3061 0.9080
13.6828 -19.7397 -2.3059 0.9080
15.7257 -18.1239 -2.3037 0.9081
16.3539 -17.5247 -2.3012 0.9082
18.0665 -18.0075 -2.4489 0.9026
19.3211 -16.6541 -2.4489 0.9026
19.9118 -15.9449 -2.4490 0.9026
21.0161 -14.4660 -2.4494 0.9026
22.0134 -12.9123 -2.4501 0.9025
22.4703 -12.1098 -2.4506 0.9025
23.2977 -10.4582 -2.4517 0.9025
23.6672 -9.6112 -2.4524 0.9024
-2.2984 -19.4648 -2.3282 0.9241
-1.5920 -19.5263 -2.3271 0.9241
-0.8842 -19.5624 -2.3261 0.9242
-0.1759 -19.5733 -2.3251 0.9242
0.5321 -19.5589 -2.3242 0.9242
1.2388 -19.5192 -2.3233 0.9242
2.6449 -19.3646 -2.3216 0.9243
3.3426 -19.2499 -2.3208 0.9243
4.7228 -18.9463 -2.3194 0.9244
5.4036 -18.7580 -2.3188 0.9244
6.0771 -18.5454 -2.3182 0.9244
6.3066 -17.1259 -2.1679 0.9291
9.2895 -17.1029 -2.3119 0.9246
10.4978 -16.3804 -2.3110 0.9246
11.6514 -15.5741 -2.3104 0.9246
13.1924 -15.2044 -2.3912 0.9221
14.6641 -14.6163 -2.4594 0.9200
15.6825 -13.5177 -2.4594 0.9200
16.1618 -12.9420 -2.4595 0.9200
17.4730 -11.1177 -2.4601 0.9200
17.8660 -10.4796 -2.4604 0.9200
18.2362 -9.8280 -2.4608 0.9199
18.5830 -9.1634 -2.4612 0.9199
-1.3363 -16.3901 -2.3300 0.9357
-0.1476 -16.4299 -2.3280 0.9358
0.4466 -16.4179 -2.3271 0.9358
1.0398 -16.3847 -2.3262 0.9358
1.6312 -16.3303 -2.3253 0.9358
3.3873 -16.0409 -2.3229 0.9359
3.9642 -15.9030 -2.3222 0.9359
6.2393 -15.2209 -2.3308 0.9357
8.8624 -14.9963 -2.4681 0.9320
11.8774 -12.7278 -2.4667 0.9321
13.5889 -10.8816 -2.4666 0.9321
15.0209 -8.8108 -2.4674 0.9321
15.8940 -7.1347 -2.4685 0.9320
-2.3107 -14.9135 -2.4862 0.9407
-1.2254 -15.0300 -2.4842 0.9407
-0.6807 -15.0589 -2.4833 0.9407
-0.1354 -15.0683 -2.4824 0.9407
0.9538 -15.0284 -2.4807 0.9408
1.4963 -14.9793 -2.4800 0.9408
2.0366 -14.9107 -2.4792 0.9408
2.5739 -14.8229 -2.4785 0.9408
4.1613 -14.4453 -2.4765 0.9409
4.6799 -14.2819 -2.4759 0.9409
5.1924 -14.1001 -2.4753 0.9409
5.6979 -13.9002 -2.4748 0.9409
6.1958 -13.6823 -2.4743 0.9409
7.1664 -13.1941 -2.4735 0.9409
7.6379 -12.9244 -2.4732 0.9410
8.9902 -12.0168 -2.4723 0.9410
9.4183 -11.6829 -2.4721 0.9410
9.8341 -11.3338 -2.4720 0.9410
11.0032 -10.2009 -2.4718 0.9410
11.3651 -9.7963 -2.4718 0.9410
11.7124 -9.3790 -2.4719 0.9410
12.0445 -8.9496 -2.4720 0.9410
12.3611 -8.5085 -2.4721 0.9410
13.4645 -6.6394 -2.4731 0.9410
13.9134 -5.6502 -2.4739 0.9409
-1.5519 -13.1432 -2.4876 0.9476
-0.1188 -13.2211 -2.4851 0.9476
0.3594 -13.2127 -2.4844 0.9476
1.3130 -13.1446 -2.4830 0.9477
1.7872 -13.0850 -2.4823 0.9477
2.2588 -13.0084 -2.4817 0.9477
2.7272 -12.9150 -2.4810 0.9477
3.6522 -12.6782 -2.4799 0.9477
4.1076 -12.5352 -2.4794 0.9477
5.0012 -12.2008 -2.4785 0.9477
5.8684 -11.8034 -2.4777 0.9478
6.7047 -11.3452 -2.4770 0.9478
7.1099 -11.0940 -2.4767 0.9478
7.5059 -10.8285 -2.4765 0.9478
9.3292 -9.2988 -2.4758 0.9478
9.9771 -8.5999 -2.4758 0.9478
10.2819 -8.2335 -2.4759 0.9478
10.8512 -7.4693 -2.4761 0.9478
12.2129 -4.9597 -2.4776 0.9478
-1.3810 -11.6958 -2.4894 0.9530
0.3199 -11.7593 -2.4866 0.9530
0.7449 -11.7370 -2.4860 0.9531
1.1687 -11.6995 -2.4853 0.9531
1.5907 -11.6467 -2.4847 0.9531
2.4276 -11.4960 -2.4836 0.9531
2.8413 -11.3983 -2.4831 0.9531
3.2511 -11.2859 -2.4826 0.9531
4.0571 -11.0173 -2.4817 0.9531
4.8416 -10.6918 -2.4809 0.9531
6.3300 -9.8770 -2.4798 0.9532
6.6826 -9.6407 -2.4796 0.9532
7.3611 -9.1311 -2.4792 0.9532
7.6863 -8.8584 -2.4791 0.9532
8.0014 -8.5743 -2.4790 0.9532
8.3062 -8.2791 -2.4790 0.9532
8.6002 -7.9731 -2.4789 0.9532
8.8830 -7.6568 -2.4790 0.9532
9.1544 -7.3306 -2.4790 0.9532
9.4139 -6.9949 -2.4791 0.9532
9.8960 -6.2966 -2.4794 0.9532
10.1180 -5.9349 -2.4795 0.9532
10.3270 -5.5655 -2.4797 0.9532
10.7046 -4.8053 -2.4803 0.9532
-1.6233 -10.4766 -2.4916 0.9574
-0.8610 -10.5609 -2.4903 0.9574
-0.4783 -10.5823 -2.4896 0.9574
-0.0952 -10.5901 -2.4890 0.9574
1.0520 -10.5306 -2.4873 0.9574
2.9266 -10.1595 -2.4848 0.9575
4.3586 -9.6253 -2.4833 0.9575
4.7034 -9.4602 -2.4830 0.9575
5.3740 -9.0934 -2.4825 0.9575
6.0163 -8.6796 -2.4820 0.9575
6.3260 -8.4557 -2.4819 0.9575
6.9201 -7.9754 -2.4816 0.9575
7.2038 -7.7196 -2.4816 0.9575
7.4783 -7.4538 -2.4815 0.9575
7.7430 -7.1784 -2.4815 0.9575
8.4755 -6.2977 -2.4816 0.9575
8.6982 -5.9872 -2.4817 0.9575
9.1094 -5.3433 -2.4820 0.9575
-1.4741 -9.5143 -2.4928 0.9610
-1.1287 -9.5590 -2.4922 0.9610
-0.4344 -9.6110 -2.4910 0.9610
0.2615 -9.6129 -2.4899 0.9610
0.6090 -9.5952 -2.4894 0.9611
1.9849 -9.3998 -2.4874 0.9611
2.3233 -9.3202 -2.4870 0.9611
2.9901 -9.1250 -2.4862 0.9611
3.6411 -8.8825 -2.4855 0.9611
4.2727 -8.5939 -2.4850 0.9611
4.8820 -8.2609 -2.4845 0.9611
5.7470 -7.6818 -2.4840 0.9611
6.2868 -7.2455 -2.4837 0.9611
6.5446 -7.0131 -2.4837 0.9611
7.0344 -6.5215 -2.4836 0.9611
7.2657 -6.2628 -2.4836 0.9611
7.6998 -5.7213 -2.4837 0.9611
7.9021 -5.4392 -2.4838 0.9611
8.0940 -5.1501 -2.4839 0.9611
8.2755 -4.8542 -2.4841 0.9611
8.6062 -4.2438 -2.4845 0.9611
8.7548 -3.9300 -2.4847 0.9611
-1.3488 -8.7053 -2.4938 0.9640
-1.0327 -8.7464 -2.4932 0.9640
-0.7155 -8.7761 -2.4927 0.9641
0.5572 -8.7803 -2.4906 0.9641
1.1902 -8.7138 -2.4897 0.9641
2.1261 -8.5294 -2.4885 0.9641
2.7365 -8.3510 -2.4878 0.9641
3.0364 -8.2454 -2.4875 0.9641
3.3322 -8.1292 -2.4872 0.9641
3.6238 -8.0024 -2.4869 0.9641
3.9105 -7.8653 -2.4866 0.9641
5.0024 -7.2168 -2.4858 0.9642
5.5105 -6.8355 -2.4856 0.9642
6.2181 -6.1978 -2.4854 0.9642
6.4382 -5.9688 -2.4854 0.9642
6.8531 -5.4878 -2.4854 0.9642
7.0473 -5.2364 -2.4855 0.9642
7.2324 -4.9782 -2.4856 0.9642
7.4081 -4.7136 -2.4857 0.9642
7.5741 -4.4427 -2.4858 0.9642
7.7304 -4.1661 -2.4860 0.9642
8.0126 -3.5969 -2.4864 0.9641
8.1383 -3.3049 -2.4866 0.9641
-0.9509 -8.0530 -2.4941 0.9666
-0.3660 -8.0974 -2.4931 0.9666
-0.0728 -8.1038 -2.4927 0.9667
0.5131 -8.0849 -2.4917 0.9667
0.8051 -8.0597 -2.4913 0.9667
1.0959 -8.0239 -2.4909 0.9667
1.3853 -7.9778 -2.4905 0.9667
1.6727 -7.9212 -2.4901 0.9667
1.9579 -7.8544 -2.4898 0.9667
2.5200 -7.6903 -2.4891 0.9667
2.7962 -7.5932 -2.4888 0.9667
3.0687 -7.4862 -2.4885 0.9667
3.3371 -7.3695 -2.4883 0.9667
3.6012 -7.2433 -2.4880 0.9667
4.1148 -6.9628 -2.4876 0.9667
4.3637 -6.8089 -2.4875 0.9667
4.6069 -6.6462 -2.4873 0.9667
5.0749 -6.2952 -2.4871 0.9667
5.2991 -6.1072 -2.4870 0.9667
5.9293 -5.4970 -2.4869 0.9667
6.3114 -5.0540 -2.4869 0.9667
6.8224 -4.3409 -2.4872 0.9667
7.2538 -3.5769 -2.4876 0.9667
-0.0674 -7.5012 -2.4935 0.9689
0.4750 -7.4839 -2.4927 0.9689
0.7453 -7.4606 -2.4923 0.9689
1.0145 -7.4277 -2.4919 0.9689
1.2824 -7.3850 -2.4915 0.9689
1.5484 -7.3328 -2.4912 0.9689
2.3328 -7.1192 -2.4903 0.9689
2.8408 -6.9304 -2.4897 0.9689
3.5740 -6.5801 -2.4891 0.9689
4.2650 -6.1530 -2.4886 0.9689
4.9059 -5.6541 -2.4883 0.9689
5.1071 -5.4728 -2.4883 0.9689
5.3017 -5.2844 -2.4882 0.9689
5.6699 -4.8872 -2.4882 0.9689
5.8431 -4.6790 -2.4882 0.9689
6.0086 -4.4646 -2.4883 0.9689
6.4576 -3.7879 -2.4886 0.9689
6.5908 -3.5520 -2.4887 0.9689
6.7154 -3.3114 -2.4889 0.9689
6.9383 -2.8176 -2.4893 0.9689
-1.0687 -6.8975 -2.4960 0.9708
-0.8183 -6.9304 -2.4956 0.9708
-0.3150 -6.9690 -2.4947 0.9708
0.1896 -6.9713 -2.4939 0.9708
1.4399 -6.8186 -2.4921 0.9708
1.6854 -6.7612 -2.4918 0.9708
2.4071 -6.5366 -2.4910 0.9708
2.6418 -6.4447 -2.4908 0.9708
3.1003 -6.2357 -2.4903 0.9709
3.7568 -5.8620 -2.4898 0.9709
3.9662 -5.7220 -2.4897 0.9709
4.1704 -5.5745 -2.4896 0.9709
4.3692 -5.4198 -2.4895 0.9709
4.5623 -5.2580 -2.4894 0.9709
4.7494 -5.0895 -2.4894 0.9709
5.5877 -4.1519 -2.4894 0.9709
5.7344 -3.9471 -2.4895 0.9709
5.8736 -3.7373 -2.4896 0.9709
6.2449 -3.0794 -2.4900 0.9709
6.3527 -2.8517 -2.4901 0.9709
-0.9975 -6.4380 -2.4966 0.9725
-0.0585 -6.5104 -2.4950 0.9725
0.1770 -6.5073 -2.4946 0.9725
0.4122 -6.4957 -2.4943 0.9725
0.6469 -6.4756 -2.4939 0.9725
1.5733 -6.3115 -2.4927 0.9725
2.0250 -6.1799 -2.4921 0.9725
2.2471 -6.1020 -2.4919 0.9725
2.8942 -5.8212 -2.4913 0.9725
3.5071 -5.4724 -2.4908 0.9725
3.8933 -5.2040 -2.4906 0.9725
4.4338 -4.7512 -2.4904 0.9725
4.7656 -4.4182 -2.4904 0.9725
4.9224 -4.2429 -2.4904 0.9725
5.2164 -3.8760 -2.4904 0.9725
5.3533 -3.6848 -2.4905 0.9725
5.4833 -3.4889 -2.4906 0.9725
5.6062 -3.2884 -2.4907 0.9725
5.7217 -3.0836 -2.4908 0.9725
5.8298 -2.8747 -2.4909 0.9725
-0.4956 -6.0792 -2.4963 0.9740
-0.0548 -6.0974 -2.4956 0.9740
0.6058 -6.0650 -2.4946 0.9740
0.8247 -6.0383 -2.4943 0.9740
1.0425 -6.0038 -2.4940 0.9740
1.4736 -5.9114 -2.4934 0.9740
2.1047 -5.7154 -2.4927 0.9740
2.5120 -5.5473 -2.4923 0.9740
2.7108 -5.4524 -2.4921 0.9740
3.2850 -5.1257 -2.4917 0.9740
3.6467 -4.8744 -2.4915 0.9740
3.8205 -4.7392 -2.4914 0.9740
4.1530 -4.4504 -2.4913 0.9740
4.4638 -4.1384 -2.4913 0.9740
4.6106 -3.9742 -2.4913 0.9740
4.8861 -3.6305 -2.4913 0.9740
5.0143 -3.4515 -2.4914 0.9740
5.3593 -2.8883 -2.4917 0.9740
5.4605 -2.6926 -2.4918 0.9740
5.5547 -2.4935 -2.4919 0.9740
5.6416 -2.2911 -2.4921 0.9740
-0.6720 -5.6904 -2.4972 0.9753
-0.2586 -5.7224 -2.4965 0.9753
0.1557 -5.7246 -2.4958 0.9753
1.1825 -5.5999 -2.4944 0.9753
1.5840 -5.4987 -2.4939 0.9753
1.7817 -5.4373 -2.4936 0.9753
1.9771 -5.3688 -2.4934 0.9753
2.3597 -5.2110 -2.4930 0.9753
3.4257 -4.5790 -2.4923 0.9754
3.9013 -4.1807 -2.4921 0.9754
4.0500 -4.0368 -2.4921 0.9754
4.1934 -3.8876 -2.4921 0.9754
4.3312 -3.7334 -2.4921 0.9754
4.4635 -3.5743 -2.4921 0.9754
4.8248 -3.0699 -2.4923 0.9754
5.0345 -2.7132 -2.4925 0.9754
5.1296 -2.5294 -2.4926 0.9754
5.2180 -2.3423 -2.4927 0.9754
5.2997 -2.1522 -2.4929 0.9754
-0.8263 -5.3329 -2.4980 0.9765
-0.4384 -5.3772 -2.4973 0.9765
-0.2436 -5.3888 -2.4970 0.9765
-0.0485 -5.3934 -2.4966 0.9765
0.1467 -5.3910 -2.4963 0.9765
0.5359 -5.3650 -2.4957 0.9765
0.9222 -5.3111 -2.4952 0.9765
1.3036 -5.2295 -2.4947 0.9765
1.6779 -5.1206 -2.4943 0.9765
2.5710 -4.7335 -2.4934 0.9765
2.7404 -4.6372 -2.4933 0.9765
2.9062 -4.5348 -2.4932 0.9765
3.0683 -4.4265 -2.4931 0.9765
3.3801 -4.1928 -2.4929 0.9765
3.5295 -4.0677 -2.4929 0.9765
3.8143 -3.8018 -2.4928 0.9765
4.0792 -3.5161 -2.4928 0.9765
4.2037 -3.3663 -2.4928 0.9765
4.6457 -2.7250 -2.4931 0.9765
4.7414 -2.5553 -2.4932 0.9765
4.9911 -2.0269 -2.4935 0.9765
-0.4138 -5.0751 -2.4977 0.9776
-0.2299 -5.0861 -2.4974 0.9776
-0.0457 -5.0904 -2.4971 0.9776
0.5059 -5.0637 -2.4962 0.9776
0.6886 -5.0416 -2.4960 0.9776
0.8705 -5.0129 -2.4957 0.9776
1.0511 -4.9776 -2.4955 0.9776
1.5838 -4.8332 -2.4948 0.9776
1.7574 -4.7724 -2.4947 0.9776
2.4268 -4.4679 -2.4940 0.9776
2.5867 -4.3770 -2.4939 0.9776
2.7432 -4.2804 -2.4938 0.9776
3.0453 -4.0706 -2.4936 0.9776
3.1905 -3.9576 -2.4936 0.9776
3.3315 -3.8396 -2.4935 0.9776
3.4681 -3.7165 -2.4935 0.9776
3.7277 -3.4559 -2.4935 0.9776
3.9679 -3.1774 -2.4935 0.9776
4.1874 -2.8823 -2.4936 0.9776
4.4754 -2.4119 -2.4938 0.9776
4.6385 -2.0822 -2.4940 0.9776
-0.5647 -4.7826 -2.4984 0.9785
-0.3913 -4.7994 -2.4981 0.9785
0.1309 -4.8118 -2.4972 0.9785
0.9940 -4.7074 -2.4960 0.9786
1.3316 -4.6225 -2.4956 0.9786
1.8242 -4.4501 -2.4950 0.9786
1.9838 -4.3809 -2.4949 0.9786
2.2951 -4.2256 -2.4946 0.9786
2.4463 -4.1396 -2.4945 0.9786
2.5944 -4.0482 -2.4944 0.9786
2.8801 -3.8498 -2.4942 0.9786
3.4050 -3.3939 -2.4941 0.9786
3.5256 -3.2685 -2.4941 0.9786
3.8590 -2.8674 -2.4941 0.9786
4.2327 -2.2811 -2.4944 0.9786
-0.5350 -4.5306 -2.4987 0.9794
-0.3707 -4.5465 -2.4984 0.9794
0.2888 -4.5505 -2.4973 0.9794
0.4532 -4.5366 -2.4971 0.9794
0.6169 -4.5169 -2.4969 0.9794
0.7799 -4.4912 -2.4966 0.9794
1.1024 -4.4223 -2.4962 0.9794
1.8794 -4.1504 -2.4954 0.9794
2.3177 -3.9218 -2.4950 0.9794
2.4579 -3.8352 -2.4949 0.9794
2.5950 -3.7437 -2.4948 0.9794
2.8587 -3.5461 -2.4947 0.9794
3.2259 -3.2154 -2.4946 0.9794
3.3401 -3.0966 -2.4946 0.9794
3.4500 -2.9737 -2.4946 0.9794
3.6560 -2.7166 -2.4947 0.9794
3.7519 -2.5826 -2.4947 0.9794
3.8430 -2.4452 -2.4948 0.9794
3.9290 -2.3047 -2.4948 0.9794
4.0100 -2.1611 -2.4949 0.9794
4.1561 -1.8657 -2.4951 0.9794
4.2211 -1.7142 -2.4952 0.9794
-0.6628 -4.2778 -2.4993 0.9802
-0.0389 -4.3268 -2.4982 0.9802
0.4300 -4.3044 -2.4975 0.9802
0.8935 -4.2313 -2.4968 0.9802
1.0460 -4.1959 -2.4967 0.9802
1.4940 -4.0571 -2.4961 0.9802
1.6397 -4.0002 -2.4960 0.9802
1.7833 -3.9380 -2.4959 0.9802
2.0631 -3.7984 -2.4956 0.9802
2.4622 -3.5522 -2.4953 0.9802
2.7125 -3.3647 -2.4952 0.9802
2.9486 -3.1596 -2.4951 0.9802
3.0609 -3.0509 -2.4951 0.9802
3.1692 -2.9382 -2.4951 0.9802
3.2735 -2.8216 -2.4951 0.9802
3.3734 -2.7013 -2.4951 0.9802
3.4689 -2.5776 -2.4952 0.9802
3.6464 -2.3201 -2.4953 0.9802
3.7280 -2.1868 -2.4953 0.9802
3.8048 -2.0505 -2.4954 0.9802
3.8766 -1.9116 -2.4955 0.9802
