ply
format ascii 1.0
element vertex 508
property float32 x
property float32 y
property float32 z
property float32 I
end_header
-18.8755 14.8449 4.2343 0.9071
-20.4061 14.8831 4.4535 0.9025
-24.9496 9.8550 4.7301 0.8968
-26.9723 -18.5875 5.7759 0.8754
-18.8739 14.8436 3.6784 0.9074
-24.9473 9.8541 4.1091 0.8971
-25.0265 4.0003 3.8826 0.9025
-25.1740 -0.5767 3.8575 0.9031
-45.3927 12.4331 6.1288 0.8271
-18.8708 14.8412 2.5780 0.9079
-20.4008 14.8792 2.7114 0.9034
-45.4341 16.0668 5.1749 0.8238
-45.4059 14.2262 5.1095 0.8258
-45.3914 12.4327 5.0537 0.8275
-45.9016 10.7990 5.0636 0.8272
-26.8860 -18.5280 3.5062 0.8769
-18.8693 14.8400 2.0322 0.9081
-20.3990 14.8779 2.1373 0.9036
-22.0981 14.9201 2.2571 0.8985
-24.9405 9.8514 2.2700 0.8979
-45.4315 16.0659 4.0793 0.8241
-45.4048 14.2258 4.0279 0.8261
-45.8987 10.7983 3.9915 0.8276
-47.1583 -9.7711 4.0769 0.8242
-45.4109 19.8703 3.0737 0.8198
-24.9391 9.8508 1.6629 0.8981
-45.4036 14.2255 2.9505 0.8264
-45.3888 12.4320 2.9183 0.8281
-45.8957 10.7976 2.9237 0.8278
-20.3956 14.8754 0.9954 0.9039
-22.0111 14.8614 1.0473 0.8991
-45.4024 14.2251 1.8761 0.8266
-45.8927 10.7969 1.8590 0.8280
-18.8648 14.8364 0.4054 0.9085
-20.3938 14.8742 0.4264 0.9039
-24.8712 13.1075 0.4749 0.8936
-45.4074 19.8687 0.8372 0.8201
-45.4237 16.0632 0.8139 0.8247
-45.8897 10.7962 0.7963 0.8281
-19.0440 -15.2732 0.4124 0.9070
-18.8632 14.8352 -0.1351 0.9085
-45.4056 19.8680 -0.2790 0.8202
-24.9347 9.8491 -0.1510 0.8983
-45.4211 16.0622 -0.2712 0.8247
-45.4001 14.2244 -0.2679 0.8267
-45.3849 12.4310 -0.2649 0.8284
-45.8867 10.7955 -0.2654 0.8281
-21.0375 -15.6527 -0.1476 0.9004
-21.0617 -16.8914 -0.1520 0.8976
-18.8617 14.8340 -0.6757 0.9084
-22.0882 14.9134 -0.7504 0.8988
-23.4696 14.6355 -0.7788 0.8952
-25.1636 14.4514 -0.8171 0.8904
-45.4039 19.8672 -1.3955 0.8201
-24.9333 9.8485 -0.7549 0.8983
-45.3990 14.2240 -1.3396 0.8266
-45.8837 10.7948 -1.3273 0.8281
-21.0387 -15.6536 -0.7384 0.9004
-21.0610 -16.8908 -0.7602 0.8976
-23.4381 14.6159 -1.4008 0.8953
-39.9821 17.4948 -2.2133 0.8396
-24.9318 9.8480 -1.3595 0.8982
-43.5302 15.3936 -2.3416 0.8312
-44.9894 12.3226 -2.3656 0.8296
-24.4934 4.8321 -1.2661 0.9048
-47.9744 -13.6327 -2.5293 0.8189
-47.2577 -15.3022 -2.5191 0.8196
-45.1695 -16.4590 -2.4381 0.8249
-44.0816 -17.8993 -2.4128 0.8265
-43.6533 -21.5341 -2.4685 0.8229
-43.4395 -23.4248 -2.5029 0.8206
-40.4256 -27.8586 -2.4898 0.8215
-18.8587 14.8316 -1.7592 0.9083
-22.0843 14.9108 -1.9538 0.8986
-23.4075 14.5968 -2.0227 0.8953
-27.1120 14.2885 -2.2471 0.8843
-33.0640 10.3593 -2.5405 0.8703
-23.5424 5.5387 -1.7733 0.9076
-34.6543 2.9855 -2.5503 0.8698
-34.7019 1.7246 -2.5476 0.8699
-34.7028 0.4643 -2.5447 0.8701
-34.5685 -2.0483 -2.5391 0.8703
-34.4326 -3.2971 -2.5362 0.8705
-34.2511 -4.5387 -2.5333 0.8706
-34.0245 -5.7714 -2.5304 0.8707
-33.4378 -8.2036 -2.5244 0.8710
-33.0788 -9.3999 -2.5214 0.8712
-32.6769 -10.5809 -2.5184 0.8713
-32.2327 -11.7450 -2.5154 0.8715
-31.7470 -12.8908 -2.5123 0.8716
-30.6544 -15.1218 -2.5062 0.8719
-30.0493 -16.2041 -2.5032 0.8720
-28.7258 -18.2956 -2.4972 0.8723
-26.3048 -18.1275 -2.3424 0.8797
-21.0595 -16.8896 -1.9794 0.8974
-19.1736 13.9842 -2.2783 0.9090
-19.6598 13.2738 -2.2774 0.9091
-22.8972 10.0190 -2.3995 0.9044
-23.2525 9.1846 -2.4002 0.9044
-23.5344 8.3225 -2.3965 0.9046
-25.3484 7.9419 -2.5502 0.8988
-25.6027 7.0126 -2.5485 0.8988
-23.8717 5.6162 -2.3544 0.9062
-26.0071 5.1307 -2.5449 0.8990
-26.2713 3.2269 -2.5411 0.8991
-26.3932 1.3117 -2.5370 0.8993
-26.4018 0.3532 -2.5349 0.8993
-26.0864 -3.4568 -2.5263 0.8997
-25.9209 -4.3969 -2.5241 0.8997
-25.7215 -5.3294 -2.5218 0.8998
-25.4882 -6.2534 -2.5196 0.8999
-24.9224 -8.0700 -2.5150 0.9001
-24.2270 -9.8374 -2.5103 0.9003
-23.8322 -10.6998 -2.5080 0.9003
-22.9512 -12.3765 -2.5034 0.9005
-21.9529 -13.9820 -2.4988 0.9007
-21.4116 -14.7555 -2.4965 0.9008
-20.4308 -15.2013 -2.4448 0.9027
-15.0136 11.8076 -2.2689 0.9259
-15.8195 10.6809 -2.2673 0.9260
-16.4908 10.2836 -2.3085 0.9247
-17.4717 10.0340 -2.3933 0.9220
-19.9175 7.8673 -2.5438 0.9174
-20.1796 7.1361 -2.5425 0.9174
-20.4144 6.3961 -2.5412 0.9174
-20.6217 5.6483 -2.5398 0.9175
-20.9529 4.1337 -2.5369 0.9176
-21.0765 3.3689 -2.5354 0.9176
-21.2389 1.8297 -2.5322 0.9177
-21.2775 1.0575 -2.5306 0.9178
-21.2699 -0.4872 -2.5272 0.9179
-21.1495 -2.0252 -2.5238 0.9180
-21.0474 -2.7891 -2.5220 0.9180
-20.9175 -3.5481 -2.5202 0.9181
-20.7601 -4.3014 -2.5184 0.9181
-20.5754 -5.0480 -2.5166 0.9182
-20.1257 -6.5168 -2.5129 0.9183
-19.8613 -7.2371 -2.5110 0.9184
-19.2556 -8.6451 -2.5072 0.9185
-18.5503 -10.0033 -2.5035 0.9186
-18.1617 -10.6616 -2.5016 0.9187
-16.3803 -13.1370 -2.4942 0.9189
-13.0292 10.2470 -2.3486 0.9352
-13.9680 9.4308 -2.3880 0.9342
-14.2964 8.9152 -2.3872 0.9342
-15.5603 8.2005 -2.4922 0.9314
-16.1471 7.7750 -2.5393 0.9302
-16.4121 7.1814 -2.5383 0.9302
-16.6550 6.5787 -2.5373 0.9302
-16.8756 5.9677 -2.5362 0.9302
-17.2484 4.7243 -2.5339 0.9303
-17.5287 3.4581 -2.5315 0.9304
-17.6338 2.8186 -2.5302 0.9304
-17.7733 1.5312 -2.5276 0.9305
-17.8075 0.8850 -2.5262 0.9305
-17.8180 0.2384 -2.5249 0.9305
-17.8050 -0.4079 -2.5234 0.9306
-17.6247 -2.3355 -2.5191 0.9307
-17.3881 -3.6028 -2.5160 0.9308
-16.8627 -5.4602 -2.5114 0.9309
-15.2282 -8.9396 -2.5020 0.9311
-14.8846 -9.4801 -2.5004 0.9312
-14.5219 -10.0075 -2.4989 0.9312
-14.1406 -10.5212 -2.4973 0.9313
-13.7412 -11.0204 -2.4958 0.9313
-13.6135 7.1746 -2.5351 0.9395
-14.2981 5.6477 -2.5326 0.9396
-14.4883 5.1235 -2.5316 0.9396
-14.6591 4.5928 -2.5307 0.9396
-14.8102 4.0565 -2.5297 0.9396
-14.9416 3.5152 -2.5287 0.9397
-15.1443 2.4207 -2.5265 0.9397
-15.2662 1.3152 -2.5243 0.9398
-15.2968 0.7602 -2.5231 0.9398
-15.3071 0.2048 -2.5219 0.9398
-15.2971 -0.3504 -2.5207 0.9399
-15.2668 -0.9046 -2.5195 0.9399
-15.1458 -2.0070 -2.5169 0.9399
-14.9451 -3.0966 -2.5143 0.9400
-14.6658 -4.1676 -2.5117 0.9401
-14.4973 -4.6943 -2.5104 0.9401
-14.1037 -5.7268 -2.5077 0.9402
-12.8045 -8.1553 -2.5009 0.9403
-11.1691 7.5411 -2.5331 0.9466
-11.4327 7.1294 -2.5325 0.9466
-12.5140 4.9430 -2.5290 0.9467
-12.6810 4.4844 -2.5282 0.9467
-12.9640 3.5508 -2.5265 0.9468
-13.3215 1.6363 -2.5227 0.9468
-13.3668 1.1516 -2.5217 0.9469
-13.4041 0.1793 -2.5197 0.9469
-13.2661 -1.7579 -2.5153 0.9470
-12.9790 -3.1843 -2.5119 0.9471
-12.8490 -3.6513 -2.5107 0.9471
-12.7022 -4.1130 -2.5096 0.9471
-12.5388 -4.5689 -2.5084 0.9471
-12.3590 -5.0184 -2.5072 0.9472
-11.9513 -5.8956 -2.5048 0.9472
-11.4816 -6.7401 -2.5025 0.9473
-10.6664 -7.9363 -2.4989 0.9473
-10.3667 -8.3141 -2.4978 0.9474
-9.6713 7.0538 -2.5303 0.9522
-9.9189 6.6970 -2.5298 0.9522
-11.1152 4.3904 -2.5262 0.9523
-11.6194 2.7336 -2.5232 0.9524
-11.7071 2.3096 -2.5223 0.9524
-11.9042 -0.2727 -2.5170 0.9525
-11.7904 -1.5624 -2.5140 0.9525
-11.5370 -2.8305 -2.5110 0.9526
-10.8145 -4.8553 -2.5058 0.9527
-10.6268 -5.2422 -2.5047 0.9527
-10.4252 -5.6219 -2.5037 0.9527
-10.2102 -5.9938 -2.5026 0.9527
-9.4868 -7.0586 -2.4995 0.9528
-9.1934 -7.3731 -2.4911 0.9530
-8.4550 6.6495 -2.5280 0.9568
-8.6892 6.3374 -2.5276 0.9568
-8.9118 6.0170 -2.5272 0.9568
-9.1225 5.6887 -2.5267 0.9568
-9.3210 5.3530 -2.5262 0.9568
-9.6804 4.6612 -2.5251 0.9568
-9.8408 4.3060 -2.5245 0.9568
-10.2425 3.2091 -2.5226 0.9569
-10.3494 2.8347 -2.5219 0.9569
-10.4424 2.4567 -2.5212 0.9569
-10.6750 0.9196 -2.5182 0.9569
-10.7065 0.1432 -2.5165 0.9570
-10.6814 -0.6329 -2.5148 0.9570
-10.6477 -1.0196 -2.5139 0.9570
-10.5383 -1.7876 -2.5121 0.9570
-10.2705 -2.9185 -2.5094 0.9571
-10.1541 -3.2879 -2.5084 0.9571
-10.0244 -3.6527 -2.5075 0.9571
-9.7258 -4.3666 -2.5056 0.9571
-9.1835 -5.3911 -2.5028 0.9572
-8.9785 -5.7185 -2.5018 0.9572
-8.5339 -6.3496 -2.4999 0.9572
-8.2949 -6.6525 -2.4990 0.9572
-7.6679 6.0305 -2.5258 0.9605
-8.2737 5.1594 -2.5246 0.9605
-8.6228 4.5443 -2.5237 0.9605
-8.9258 3.9056 -2.5226 0.9605
-9.0596 3.5785 -2.5221 0.9606
-9.2908 2.9109 -2.5209 0.9606
-9.3880 2.5714 -2.5203 0.9606
-9.6508 1.1854 -2.5176 0.9606
-9.7057 0.4824 -2.5161 0.9606
-9.7139 0.1299 -2.5153 0.9607
-9.7093 -0.2224 -2.5146 0.9607
-9.6615 -0.9252 -2.5130 0.9607
-9.6185 -1.2746 -2.5122 0.9607
-9.5629 -1.6221 -2.5114 0.9607
-9.4139 -2.3096 -2.5097 0.9607
-8.8277 -3.9633 -2.5054 0.9608
-8.6752 -4.2795 -2.5046 0.9608
-8.5113 -4.5898 -2.5037 0.9608
-7.5085 -6.0218 -2.4921 0.9610
-7.5618 4.7155 -2.5228 0.9636
-7.7266 4.4374 -2.5224 0.9636
-7.8811 4.1535 -2.5220 0.9636
-8.0251 3.8642 -2.5215 0.9636
-8.1584 3.5698 -2.5210 0.9637
-8.4926 2.6608 -2.5194 0.9637
-8.7252 1.7213 -2.5177 0.9637
-8.8226 1.0837 -2.5164 0.9637
-8.8769 -0.2033 -2.5137 0.9638
-8.8612 -0.5251 -2.5129 0.9638
-8.8337 -0.8459 -2.5122 0.9638
-8.7947 -1.1654 -2.5115 0.9638
-8.5234 -2.4221 -2.5084 0.9638
-8.2022 -3.3305 -2.5061 0.9639
-7.7845 -4.1979 -2.5037 0.9639
-7.6247 -4.4760 -2.5030 0.9639
-7.4550 -4.7482 -2.5022 0.9639
-7.2756 -5.0139 -2.5014 0.9639
-6.4459 5.0694 -2.5223 0.9663
-7.1073 4.0817 -2.5209 0.9663
-7.2496 3.8206 -2.5205 0.9663
-7.3821 3.5546 -2.5201 0.9663
-7.5049 3.2839 -2.5196 0.9663
-7.8946 2.1623 -2.5177 0.9663
-7.9662 1.8742 -2.5171 0.9663
-8.0271 1.5836 -2.5166 0.9663
-8.1640 0.4057 -2.5142 0.9664
-8.1678 -0.1871 -2.5129 0.9664
-8.1534 -0.4831 -2.5122 0.9664
-7.9217 -1.9435 -2.5088 0.9664
-7.6571 -2.7901 -2.5067 0.9665
-7.5487 -3.0652 -2.5059 0.9665
-7.3024 -3.6023 -2.5045 0.9665
-7.1648 -3.8637 -2.5038 0.9665
-7.0179 -4.1198 -2.5030 0.9665
-6.8620 -4.3704 -2.5023 0.9665
-6.5233 -4.8536 -2.5009 0.9665
-5.9612 4.6882 -2.5209 0.9685
-6.1266 4.4684 -2.5206 0.9685
-6.4328 4.0115 -2.5200 0.9685
-6.7047 3.5335 -2.5193 0.9686
-6.8275 3.2875 -2.5189 0.9686
-6.9411 3.0372 -2.5185 0.9686
-7.0454 2.7829 -2.5180 0.9686
-7.1405 2.5251 -2.5176 0.9686
-7.3020 2.0000 -2.5166 0.9686
-7.3683 1.7335 -2.5161 0.9686
-7.4248 1.4648 -2.5156 0.9686
-7.4714 1.1942 -2.5151 0.9686
-7.5588 0.1011 -2.5128 0.9686
-7.5557 -0.1731 -2.5122 0.9686
-7.5426 -0.4469 -2.5116 0.9687
-7.5196 -0.7201 -2.5110 0.9687
-7.3912 -1.5315 -2.5091 0.9687
-7.3289 -1.7981 -2.5084 0.9687
-7.2570 -2.0622 -2.5078 0.9687
-7.0846 -2.5815 -2.5064 0.9687
-6.7569 -3.3332 -2.5044 0.9687
-6.6297 -3.5751 -2.5038 0.9687
-6.3497 -4.0442 -2.5024 0.9688
-6.1972 -4.2707 -2.5018 0.9688
-6.0366 -4.4915 -2.5011 0.9688
-5.8682 -4.7063 -2.5004 0.9688
-5.5384 4.3558 -2.5197 0.9705
-6.2296 3.2831 -2.5182 0.9705
-6.5463 2.5858 -2.5170 0.9705
-6.7850 1.8584 -2.5157 0.9706
-6.8467 1.6108 -2.5153 0.9706
-6.8992 1.3611 -2.5148 0.9706
-6.9427 1.1097 -2.5143 0.9706
-6.9770 0.8570 -2.5138 0.9706
-7.0020 0.6032 -2.5133 0.9706
-7.0243 0.0940 -2.5122 0.9706
-7.0095 -0.4154 -2.5111 0.9706
-6.9882 -0.6692 -2.5105 0.9706
-6.9578 -0.9220 -2.5099 0.9706
-6.8693 -1.4233 -2.5087 0.9706
-6.8116 -1.6712 -2.5081 0.9706
-6.7448 -1.9167 -2.5075 0.9707
-6.5849 -2.3995 -2.5063 0.9707
-6.0365 -3.5437 -2.5032 0.9707
-5.9025 -3.7594 -2.5025 0.9707
-5.1661 4.0629 -2.5187 0.9722
-5.3096 3.8725 -2.5184 0.9722
-5.4459 3.6770 -2.5181 0.9722
-5.5751 3.4766 -2.5179 0.9722
-5.6968 3.2717 -2.5176 0.9723
-5.8110 3.0625 -2.5172 0.9723
-5.9175 2.8493 -2.5169 0.9723
-6.1067 2.4121 -2.5162 0.9723
-6.1892 2.1887 -2.5158 0.9723
-6.3872 1.5026 -2.5145 0.9723
-6.4363 1.2698 -2.5141 0.9723
-6.5473 0.3254 -2.5121 0.9723
-6.5201 -0.6244 -2.5100 0.9723
-6.4918 -0.8603 -2.5095 0.9723
-6.4548 -1.0949 -2.5090 0.9723
-6.4095 -1.3280 -2.5084 0.9724
-6.2230 -2.0150 -2.5067 0.9724
-6.1444 -2.2389 -2.5061 0.9724
-5.9632 -2.6773 -2.5050 0.9724
-5.8608 -2.8912 -2.5044 0.9724
-5.7507 -3.1011 -2.5038 0.9724
-5.6332 -3.3069 -2.5032 0.9724
-5.5082 -3.5083 -2.5026 0.9724
-5.3761 -3.7049 -2.5021 0.9724
-5.2370 -3.8966 -2.5015 0.9724
-5.0911 -4.0830 -2.5009 0.9724
-4.9697 3.6246 -2.5175 0.9738
-5.0974 3.4416 -2.5172 0.9738
-5.2183 3.2541 -2.5170 0.9738
-5.6313 2.4640 -2.5157 0.9738
-5.7162 2.2578 -2.5154 0.9738
-5.7934 2.0487 -2.5150 0.9738
-5.9249 1.6228 -2.5142 0.9738
-6.0250 1.1886 -2.5134 0.9738
-6.1152 0.5268 -2.5121 0.9738
-6.1291 0.3046 -2.5116 0.9738
-6.1224 -0.3628 -2.5102 0.9738
-6.0776 -0.8054 -2.5091 0.9739
-6.0007 -1.2433 -2.5081 0.9739
-5.9504 -1.4599 -2.5076 0.9739
-5.8923 -1.6744 -2.5071 0.9739
-5.8264 -1.8866 -2.5065 0.9739
-5.7529 -2.0963 -2.5060 0.9739
-5.6719 -2.3031 -2.5054 0.9739
-5.5834 -2.5068 -2.5049 0.9739
-5.4876 -2.7070 -2.5043 0.9739
-4.7672 -3.8234 -2.5011 0.9739
-4.8989 3.0550 -2.5162 0.9751
-5.0060 2.8749 -2.5159 0.9751
-5.2000 2.5039 -2.5153 0.9751
-5.3665 2.1197 -2.5147 0.9751
-5.4392 1.9234 -2.5143 0.9751
-5.7416 0.4946 -2.5116 0.9752
-5.7548 0.2860 -2.5111 0.9752
-5.7604 0.0770 -2.5107 0.9752
-5.7487 -0.3406 -2.5098 0.9752
-5.7315 -0.5488 -2.5093 0.9752
-5.6347 -1.1675 -2.5079 0.9752
-5.5875 -1.3709 -2.5074 0.9752
-5.4023 -1.9685 -2.5059 0.9752
-5.2432 -2.3540 -2.5048 0.9752
-5.1534 -2.5422 -2.5043 0.9752
-4.8437 -3.0850 -2.5028 0.9753
-4.4772 -3.5908 -2.5013 0.9753
-4.5042 3.0412 -2.5157 0.9763
-4.6111 2.8755 -2.5154 0.9763
-4.8065 2.5331 -2.5149 0.9763
-4.9764 2.1775 -2.5144 0.9763
-5.1815 1.6234 -2.5134 0.9764
-5.2362 1.4342 -2.5130 0.9764
-5.2840 1.2431 -2.5127 0.9764
-5.3587 0.8565 -2.5119 0.9764
-5.4174 0.2692 -2.5107 0.9764
-5.4226 0.0725 -2.5103 0.9764
-5.3724 -0.7119 -2.5085 0.9764
-5.3421 -0.9062 -2.5081 0.9764
-5.2091 -1.4803 -2.5067 0.9764
-5.1510 -1.6679 -2.5062 0.9764
-5.0146 -2.0362 -2.5053 0.9764
-4.9365 -2.2163 -2.5048 0.9764
-4.8519 -2.3935 -2.5043 0.9764
-4.6638 -2.7379 -2.5033 0.9764
-4.2157 -3.3810 -2.5014 0.9765
-4.0308 3.1701 -2.5154 0.9774
-4.1428 3.0215 -2.5152 0.9774
-4.6177 2.2235 -2.5140 0.9774
-4.7657 1.8824 -2.5135 0.9774
-4.8884 1.5316 -2.5129 0.9774
-4.9853 1.1729 -2.5122 0.9774
-5.0996 0.4393 -2.5107 0.9775
-5.1062 -0.3026 -2.5091 0.9775
-5.0911 -0.4875 -2.5087 0.9775
-5.0406 -0.8550 -2.5079 0.9775
-5.0054 -1.0371 -2.5074 0.9775
-4.9636 -1.2178 -2.5070 0.9775
-4.8605 -1.5739 -2.5061 0.9775
-4.7320 -1.9214 -2.5052 0.9775
-4.4928 -2.4228 -2.5038 0.9775
-4.3037 -2.7411 -2.5029 0.9775
-4.2007 -2.8949 -2.5025 0.9775
-4.0922 -3.0448 -2.5020 0.9775
-3.9784 -3.1907 -2.5016 0.9775
-3.8103 2.9966 -2.5148 0.9784
-4.5052 1.7795 -2.5130 0.9784
-4.5663 1.6148 -2.5127 0.9784
-4.6213 1.4479 -2.5124 0.9784
-4.6702 1.2792 -2.5121 0.9784
-4.7129 1.1088 -2.5117 0.9784
-4.7494 0.9370 -2.5114 0.9784
-4.8036 0.5900 -2.5107 0.9784
-4.8323 0.2401 -2.5100 0.9784
-4.8371 0.0647 -2.5096 0.9784
-4.8355 -0.1108 -2.5092 0.9784
-4.7656 -0.8084 -2.5076 0.9785
-4.6473 -1.3206 -2.5064 0.9785
-4.5956 -1.4881 -2.5060 0.9785
-4.3291 -2.1356 -2.5043 0.9785
-4.2481 -2.2908 -2.5038 0.9785
-4.1615 -2.4430 -2.5034 0.9785
-4.0694 -2.5919 -2.5030 0.9785
-3.9721 -2.7373 -2.5025 0.9785
-3.8695 -2.8791 -2.5021 0.9785
-3.7619 -3.0170 -2.5017 0.9785
-3.6082 2.8377 -2.5142 0.9793
-3.7085 2.7048 -2.5140 0.9793
-3.8039 2.5683 -2.5139 0.9793
-4.1339 1.9905 -2.5130 0.9793
-4.3244 1.5292 -2.5122 0.9793
-4.4228 1.2114 -2.5116 0.9793
-4.4979 0.8874 -2.5110 0.9793
-4.5492 0.5588 -2.5104 0.9793
-4.5659 0.3933 -2.5100 0.9793
-4.5811 0.0613 -2.5093 0.9793
-4.5796 -0.1049 -2.5090 0.9793
-4.5721 -0.2709 -2.5086 0.9793
-4.5136 -0.7656 -2.5074 0.9793
-4.4448 -1.0905 -2.5067 0.9793
-4.1718 -1.8730 -2.5047 0.9794
-4.1004 -2.0228 -2.5042 0.9794
-4.0237 -2.1698 -2.5038 0.9794
-3.9417 -2.3140 -2.5034 0.9794
-3.7624 -2.5928 -2.5026 0.9794
-3.6653 -2.7271 -2.5022 0.9794
-3.5634 -2.8579 -2.5018 0.9794
-3.4222 2.6914 -2.5137 0.9801
-3.6936 2.3033 -2.5132 0.9801
-3.7744 2.1676 -2.5130 0.9801
-3.9209 1.8879 -2.5125 0.9801
-3.9865 1.7443 -2.5123 0.9801
-4.1016 1.4504 -2.5118 0.9801
-4.1510 1.3006 -2.5115 0.9801
-4.1950 1.1490 -2.5112 0.9801
-4.2335 0.9960 -2.5109 0.9801
-4.2663 0.8417 -2.5106 0.9801
-4.2935 0.6863 -2.5103 0.9801
-4.3150 0.5300 -2.5100 0.9801
-4.3410 0.2157 -2.5094 0.9801
-4.3454 0.0581 -2.5090 0.9801
-4.3440 -0.0995 -2.5087 0.9801
-4.3370 -0.2570 -2.5083 0.9801
-4.3241 -0.4141 -2.5080 0.9801
-4.2163 -1.0345 -2.5065 0.9801
-4.1754 -1.1865 -2.5061 0.9802
-4.0772 -1.4857 -2.5054 0.9802
-3.9575 -1.7768 -2.5046 0.9802
-3.8171 -2.0584 -2.5038 0.9802
-3.6567 -2.3290 -2.5031 0.9802
-3.5693 -2.4597 -2.5027 0.9802
-3.4772 -2.5872 -2.5023 0.9802
