ply
format ascii 1.0
element vertex 647
property float32 x
property float32 y
property float32 z
property float32 I
end_header
9.0541 10.4489 2.4379 0.9454
11.3323 14.0734 3.1860 0.9292
10.4967 14.0440 3.0916 0.9313
9.7374 14.0586 3.0155 0.9329
9.0502 14.1295 2.9587 0.9341
7.6918 14.1629 2.8418 0.9366
6.4302 14.1940 2.7476 0.9387
5.8287 14.2087 2.7080 0.9395
5.2436 14.2232 2.6729 0.9403
4.7611 14.5067 2.6922 0.9399
4.8851 19.5413 3.5517 0.9214
4.9410 23.3089 4.2013 0.9078
5.0288 28.8103 5.1568 0.8880
-1.0637 24.3423 4.2963 0.9058
-2.5671 16.7686 2.9912 0.9334
-3.2894 14.4336 2.6103 0.9416
-3.8455 14.4473 2.6361 0.9411
23.2921 12.6038 4.0571 0.8984
10.5331 14.0927 2.6953 0.9313
9.0501 14.1292 2.5705 0.9344
6.4301 14.1937 2.3871 0.9389
5.8286 14.2085 2.3527 0.9397
5.2435 14.2229 2.3222 0.9405
4.8147 16.6778 2.6593 0.9322
4.8852 19.5418 3.0858 0.9217
4.9409 23.3085 3.6501 0.9081
5.0497 28.9300 4.4989 0.8879
-3.2893 14.4333 2.2678 0.9419
9.0522 10.4467 1.8000 0.9458
9.7738 14.1111 2.2353 0.9331
9.0499 14.1289 2.1849 0.9346
7.6914 14.1623 2.0987 0.9371
5.8285 14.2082 1.9998 0.9399
5.2434 14.2226 1.9739 0.9407
4.8853 19.5423 2.6231 0.9220
-0.2500 32.9418 4.2898 0.8756
-1.4381 32.9095 4.2896 0.8756
-2.2770 28.4918 3.7220 0.8911
-2.6438 17.2696 2.2751 0.9320
-3.8454 14.4467 1.9468 0.9415
9.0512 10.4456 1.4842 0.9459
7.0499 14.1779 1.7003 0.9383
5.8284 14.2080 1.6491 0.9401
4.8854 19.5428 2.1631 0.9222
4.9832 23.5076 2.5804 0.9079
5.1772 29.6602 3.2331 0.8859
6.1918 45.0025 4.8780 0.8330
-1.1182 13.9926 1.5073 0.9451
-1.6268 13.9825 1.5116 0.9449
-2.1395 13.9758 1.5182 0.9447
-2.6580 13.9723 1.5273 0.9444
-3.8454 14.4465 1.6053 0.9416
9.0503 10.4445 1.1699 0.9460
11.3313 14.0721 1.5294 0.9300
10.5324 14.0918 1.4893 0.9318
9.0495 14.1283 1.4203 0.9349
7.0233 14.1242 1.3353 0.9386
6.4055 14.1395 1.3140 0.9396
5.8283 14.2077 1.3000 0.9402
-0.2719 35.8215 3.0325 0.8661
-1.0741 13.4408 1.1414 0.9473
-1.5665 13.4638 1.1474 0.9470
-2.5584 13.4488 1.1589 0.9465
-3.2891 14.4325 1.2531 0.9423
13.1195 13.0995 1.1496 0.9284
12.1163 13.0038 1.1021 0.9312
9.0493 10.4434 0.8569 0.9461
10.4972 14.0447 1.0873 0.9321
9.8339 14.1979 1.0710 0.9331
9.0494 14.1281 1.0404 0.9350
7.6910 14.1615 0.9993 0.9375
7.0231 14.1240 0.9781 0.9387
6.4695 14.2808 0.9722 0.9391
5.8282 14.2074 0.9523 0.9403
5.2431 14.2218 0.9399 0.9411
4.7881 16.5858 1.0705 0.9332
4.9834 23.5090 1.4902 0.9082
-0.3316 43.6877 2.7092 0.8394
-0.8619 19.7245 1.2243 0.9239
-1.0330 12.9259 0.8041 0.9494
-1.5062 12.9455 0.8082 0.9491
-1.9851 12.9672 0.8135 0.9488
-2.4663 12.9648 0.8184 0.9485
-3.8452 14.4460 0.9270 0.9418
13.3906 12.4386 0.7207 0.9294
12.4428 12.4238 0.6933 0.9320
9.0484 10.4423 0.5448 0.9462
11.3308 14.0715 0.7124 0.9302
9.0491 14.1278 0.6616 0.9350
8.3563 14.1448 0.6478 0.9363
5.8281 14.2072 0.6055 0.9404
5.2430 14.2216 0.5977 0.9411
4.7617 14.5083 0.6021 0.9407
4.8858 19.5442 0.7944 0.9225
5.1769 29.6586 1.1872 0.8865
6.1914 45.0002 1.7911 0.8337
-0.3316 43.6869 1.7227 0.8396
-0.9950 12.4504 0.4925 0.9512
-1.9113 12.4848 0.4980 0.9507
12.8133 11.9023 0.2954 0.9324
11.9420 11.9238 0.2851 0.9347
9.0475 10.4413 0.2334 0.9462
11.3306 14.0712 0.3052 0.9303
10.4974 14.0450 0.2962 0.9323
9.0490 14.1275 0.2834 0.9351
8.3562 14.1446 0.2775 0.9364
7.0229 14.1234 0.2664 0.9388
5.8279 14.2069 0.2594 0.9404
4.7617 14.5086 0.2579 0.9407
4.7879 16.5852 0.2916 0.9333
4.9404 23.3060 0.4024 0.9091
2.4413 24.1740 0.4104 0.9074
1.5639 24.1875 0.4094 0.9076
0.6752 23.6921 0.4004 0.9095
-0.9970 12.4754 0.2114 0.9512
-2.5324 21.7657 0.3701 0.9161
-2.5668 16.7666 0.2865 0.9344
-2.7429 14.4183 0.2479 0.9430
-3.2889 14.4317 0.2500 0.9425
-3.8451 14.4455 0.2525 0.9420
42.1360 17.2100 -0.2563 0.8335
42.1164 22.7901 -0.2696 0.8257
42.1170 24.7948 -0.2752 0.8224
11.3303 14.0709 -0.1017 0.9303
10.4919 14.0376 -0.0987 0.9323
9.0488 14.1272 -0.0945 0.9351
8.3560 14.1443 -0.0925 0.9364
7.0228 14.1232 -0.0888 0.9389
5.8278 14.2066 -0.0865 0.9404
5.2428 14.2211 -0.0853 0.9412
4.7618 14.5088 -0.0860 0.9407
4.7879 16.5849 -0.0972 0.9333
4.9084 23.1547 -0.1333 0.9097
1.5638 24.1856 -0.1365 0.9076
0.6518 22.8720 -0.1288 0.9125
-0.1737 22.8924 -0.1289 0.9125
-2.5324 21.7649 -0.1234 0.9161
-3.8450 14.4452 -0.0842 0.9420
42.1304 19.0087 -1.3015 0.8311
42.1214 20.8649 -1.3236 0.8285
11.3301 14.0706 -0.5087 0.9303
9.7724 14.1090 -0.4833 0.9336
9.0486 14.1269 -0.4724 0.9351
8.3558 14.1440 -0.4626 0.9364
7.6904 14.1604 -0.4537 0.9376
6.4291 14.1915 -0.4387 0.9396
5.8277 14.2064 -0.4324 0.9404
4.8155 16.6806 -0.4889 0.9329
4.8862 19.5456 -0.5673 0.9225
5.1289 29.3837 -0.8399 0.8875
1.5637 24.1836 -0.6824 0.9076
0.6284 22.0519 -0.6212 0.9155
-0.1675 22.0716 -0.6215 0.9155
-0.8352 19.1126 -0.5387 0.9263
-0.9970 12.4749 -0.3524 0.9512
-2.5322 21.7641 -0.6170 0.9161
-2.6516 13.9384 -0.3995 0.9448
-3.2888 14.4312 -0.4168 0.9425
42.1299 19.0085 -2.3440 0.8310
41.6483 20.6304 -2.3571 0.8301
40.9000 22.1318 -2.3584 0.8301
40.0975 23.6059 -2.3597 0.8300
39.8075 27.4821 -2.4532 0.8239
39.7951 29.6487 -2.5167 0.8197
38.7226 31.0834 -2.5182 0.8197
36.4190 33.8296 -2.5208 0.8195
13.0837 14.0420 -0.9733 0.9260
9.0446 10.4380 -0.7004 0.9462
11.3298 14.0703 -0.9161 0.9302
10.5310 14.0900 -0.8921 0.9320
9.7722 14.1087 -0.8704 0.9336
4.8156 16.6810 -0.8805 0.9328
4.8863 19.5462 -1.0218 0.9225
4.9842 23.5125 -1.2189 0.9082
0.6051 21.2319 -1.0772 0.9184
-0.1613 21.2508 -1.0777 0.9184
-0.7983 18.2685 -0.9274 0.9294
-0.9970 12.4747 -0.6347 0.9511
-3.2887 14.4310 -0.7506 0.9424
31.1626 14.0601 -2.5067 0.8719
30.6471 15.1810 -2.5077 0.8718
29.4957 17.3645 -2.5096 0.8717
28.8611 18.4242 -2.5106 0.8717
28.1884 19.4606 -2.5115 0.8716
25.9499 22.4166 -2.5143 0.8715
13.4661 13.4456 -1.3953 0.9265
11.3296 14.0700 -1.3245 0.9301
5.8275 14.2058 -1.1258 0.9403
5.2425 14.2203 -1.1113 0.9410
4.8157 16.6813 -1.2731 0.9327
4.8864 19.5466 -1.4773 0.9224
4.9843 23.5131 -1.7623 0.9081
5.1293 29.3859 -2.1872 0.8872
0.5817 20.4119 -1.4973 0.9214
-0.1551 20.4301 -1.4980 0.9213
-0.9969 12.4745 -0.9176 0.9510
-1.6762 14.4062 -1.0634 0.9435
-2.2076 14.4204 -1.0696 0.9432
-2.6364 13.8588 -1.0344 0.9450
-3.2887 14.4307 -1.0852 0.9424
-3.8448 14.4444 -1.0960 0.9418
23.3951 11.5887 -2.5065 0.9004
22.9687 12.4288 -2.5072 0.9004
22.5121 13.2531 -2.5080 0.9003
22.0257 14.0606 -2.5087 0.9003
20.3954 16.3717 -2.5109 0.9002
19.7970 17.1015 -2.5116 0.9002
13.1878 13.1677 -1.7892 0.9278
11.9376 12.8120 -1.6812 0.9321
9.0428 10.4358 -1.3257 0.9460
9.0481 14.1260 -1.6105 0.9348
6.4287 14.1907 -1.4957 0.9393
4.8158 16.6817 -1.6669 0.9326
4.0150 23.0022 -2.2417 0.9104
3.1831 23.1350 -2.2420 0.9104
2.3467 23.2375 -2.2423 0.9104
0.5583 19.5920 -1.8817 0.9243
-0.1488 19.6094 -1.8827 0.9242
-2.1448 14.0105 -1.3607 0.9446
-2.6345 13.8486 -1.3534 0.9449
-3.2886 14.4304 -1.4209 0.9423
-3.8447 14.4441 -1.4350 0.9417
19.2237 8.6734 -2.5052 0.9186
18.9029 9.3635 -2.5058 0.9185
18.5572 10.0416 -2.5064 0.9185
18.1872 10.7070 -2.5070 0.9185
17.3761 11.9960 -2.5081 0.9185
15.4704 12.4184 -2.3565 0.9232
11.8655 12.7346 -2.0676 0.9323
9.7716 14.1079 -2.0385 0.9332
9.0479 14.1257 -1.9926 0.9347
8.3552 14.1429 -1.9512 0.9360
7.6898 14.1593 -1.9140 0.9372
7.0486 14.1751 -1.8805 0.9382
6.4286 14.1905 -1.8505 0.9392
4.7623 14.5102 -1.8141 0.9403
4.8159 16.6821 -2.0625 0.9324
3.2403 18.5637 -2.2384 0.9269
1.2163 18.8104 -2.2391 0.9269
0.5356 18.7948 -2.2335 0.9271
-0.1427 18.8033 -2.2336 0.9271
-0.7981 18.2642 -2.1716 0.9290
-0.9969 12.4741 -1.4865 0.9508
-2.5794 13.5589 -1.6395 0.9459
-3.2885 14.4302 -1.7581 0.9421
-3.8447 14.4439 -1.7755 0.9416
16.3621 6.6829 -2.5043 0.9311
15.8442 7.8484 -2.5053 0.9311
15.5539 8.4165 -2.5058 0.9310
14.0044 8.9400 -2.3541 0.9351
13.6754 9.4412 -2.3546 0.9351
13.3286 9.9303 -2.3550 0.9351
11.9110 10.2892 -2.2301 0.9384
11.5342 10.7141 -2.2306 0.9384
10.7356 11.5219 -2.2314 0.9384
9.8803 12.2702 -2.2321 0.9383
9.4328 12.6207 -2.2325 0.9383
8.5011 13.2721 -2.2332 0.9383
8.0180 13.5722 -2.2335 0.9383
7.5243 13.8546 -2.2339 0.9383
7.0206 14.1190 -2.2342 0.9383
4.7624 14.5105 -2.1639 0.9402
4.3762 15.1589 -2.2356 0.9382
3.8269 15.3085 -2.2358 0.9382
2.7138 15.5476 -2.2362 0.9382
1.5861 15.7054 -2.2366 0.9382
1.0186 15.7535 -2.2368 0.9382
-0.6893 15.7741 -2.2372 0.9382
-0.9969 12.4738 -1.7730 0.9507
-1.5456 13.2843 -1.8949 0.9474
-2.0357 13.2974 -1.9060 0.9471
-2.5321 13.3106 -1.9198 0.9467
-3.8446 14.4436 -2.1178 0.9414
13.8575 6.2523 -2.5045 0.9402
13.6253 6.7492 -2.5049 0.9402
13.1078 7.7167 -2.5058 0.9402
11.1468 8.9477 -2.3547 0.9437
10.4761 9.7312 -2.3555 0.9437
8.8429 10.2051 -2.2245 0.9467
7.7135 11.1366 -2.2317 0.9466
5.5937 12.3475 -2.2331 0.9465
3.2892 13.1575 -2.2343 0.9465
2.8127 13.2687 -2.2344 0.9465
1.3631 13.4979 -2.2349 0.9465
0.3865 13.5627 -2.2352 0.9465
-0.1030 13.5684 -2.2353 0.9465
-1.5153 13.0240 -2.1600 0.9482
-2.4825 13.0497 -2.1884 0.9476
-3.0155 13.2319 -2.2357 0.9465
-3.4908 13.1146 -2.2357 0.9465
11.9407 5.9147 -2.5046 0.9472
11.7213 6.3426 -2.5050 0.9472
11.4866 6.7623 -2.5054 0.9472
11.2369 7.1733 -2.5058 0.9472
10.9724 7.5751 -2.5061 0.9472
10.6935 7.9671 -2.5065 0.9472
9.1793 8.5266 -2.3549 0.9503
8.8669 8.8534 -2.3552 0.9503
8.5430 9.1687 -2.3555 0.9503
8.2077 9.4721 -2.3558 0.9503
6.0383 10.2211 -2.2314 0.9528
5.2869 10.6322 -2.2319 0.9528
4.9004 10.8171 -2.2321 0.9528
4.5075 10.9879 -2.2323 0.9528
4.1086 11.1444 -2.2325 0.9528
3.2950 11.4135 -2.2329 0.9528
2.4639 11.6232 -2.2333 0.9528
1.6197 11.7722 -2.2336 0.9528
1.1941 11.8236 -2.2337 0.9528
0.7669 11.8597 -2.2338 0.9528
-0.0902 11.8852 -2.2340 0.9528
-0.5189 11.8747 -2.2341 0.9528
-1.3737 11.8071 -2.2342 0.9528
-2.6413 11.5901 -2.2343 0.9528
10.9654 4.4787 -2.5037 0.9527
10.6168 5.2590 -2.5044 0.9527
10.4216 5.6393 -2.5047 0.9527
9.9905 6.3777 -2.5054 0.9527
9.5072 7.0832 -2.5061 0.9527
9.2467 7.4225 -2.5064 0.9527
7.6566 8.2174 -2.3741 0.9551
7.2965 8.4205 -2.3552 0.9555
6.6719 8.9266 -2.3557 0.9555
6.0123 9.3864 -2.3562 0.9555
5.3209 9.7974 -2.3567 0.9554
4.9645 9.9839 -2.3569 0.9554
4.1265 10.0592 -2.2983 0.9565
2.5611 10.2447 -2.2322 0.9577
2.1900 10.3311 -2.2323 0.9577
1.8160 10.4040 -2.2325 0.9577
1.4396 10.4634 -2.2326 0.9577
1.0613 10.5090 -2.2327 0.9577
0.6816 10.5410 -2.2328 0.9577
0.3009 10.5592 -2.2329 0.9577
-0.8416 10.5310 -2.2331 0.9577
-1.5987 10.4434 -2.2332 0.9577
-2.3476 10.3012 -2.2333 0.9577
-2.7176 10.2098 -2.2333 0.9577
9.8618 4.0279 -2.5036 0.9572
8.7728 6.0565 -2.5054 0.9571
8.3153 6.6748 -2.5060 0.9571
7.5480 7.5365 -2.5068 0.9571
6.9865 8.0628 -2.5074 0.9571
5.7064 8.2387 -2.3554 0.9597
5.4061 8.4400 -2.3556 0.9597
5.0985 8.6303 -2.3558 0.9596
4.7843 8.8094 -2.3560 0.9596
4.4638 8.9770 -2.3562 0.9596
3.8056 9.2769 -2.3566 0.9596
2.7818 9.6358 -2.3571 0.9596
2.4325 9.7305 -2.3573 0.9596
0.6473 10.0116 -2.3579 0.9596
0.2858 10.0288 -2.3580 0.9596
-1.5184 9.9187 -2.3583 0.9596
-2.2296 9.7836 -2.3583 0.9596
8.5069 4.6032 -2.5044 0.9608
7.9624 5.4970 -2.5052 0.9608
7.7597 5.7813 -2.5054 0.9608
7.0920 6.5877 -2.5062 0.9608
6.8504 6.8399 -2.5065 0.9608
6.5998 7.0833 -2.5067 0.9608
6.3406 7.3174 -2.5069 0.9608
4.8446 8.2004 -2.4661 0.9614
3.7547 8.2881 -2.3559 0.9631
3.4536 8.4187 -2.3560 0.9631
2.8380 8.6469 -2.3563 0.9631
1.8876 8.9044 -2.3567 0.9631
1.5653 8.9672 -2.3569 0.9631
1.2408 9.0182 -2.3570 0.9631
0.9147 9.0575 -2.3571 0.9631
0.2594 9.1006 -2.3573 0.9631
-0.3974 9.0961 -2.3574 0.9631
-1.3778 9.0005 -2.3575 0.9631
-2.0232 8.8779 -2.3576 0.9631
-2.3421 8.7992 -2.3576 0.9631
8.1867 3.3438 -2.5035 0.9639
8.0616 3.6373 -2.5037 0.9639
7.9260 3.9261 -2.5040 0.9639
7.7800 4.2099 -2.5042 0.9639
7.6238 4.4882 -2.5045 0.9639
7.4577 4.7608 -2.5047 0.9639
7.2818 5.0272 -2.5050 0.9639
6.9018 5.5402 -2.5054 0.9639
6.6981 5.7861 -2.5057 0.9639
6.0354 6.4775 -2.5064 0.9639
5.7984 6.6916 -2.5066 0.9639
5.0428 7.2806 -2.5072 0.9639
4.2277 7.7845 -2.5078 0.9638
3.9445 7.9325 -2.5079 0.9638
3.6560 8.0702 -2.5081 0.9638
3.3609 8.1928 -2.5069 0.9639
0.8364 8.2820 -2.3565 0.9660
0.5370 8.3071 -2.3566 0.9660
-0.3633 8.3172 -2.3568 0.9660
-0.6632 8.2989 -2.3568 0.9660
-1.5639 8.2211 -2.3691 0.9658
7.5348 3.0775 -2.5034 0.9665
7.4196 3.3476 -2.5036 0.9665
7.2947 3.6134 -2.5039 0.9665
7.0165 4.1307 -2.5043 0.9665
6.3518 5.0987 -2.5052 0.9665
6.1642 5.3249 -2.5054 0.9665
5.9687 5.5443 -2.5057 0.9665
5.7653 5.7565 -2.5059 0.9665
5.5543 5.9612 -2.5061 0.9665
5.3361 6.1581 -2.5063 0.9665
4.8790 6.5278 -2.5067 0.9665
4.6407 6.7000 -2.5068 0.9665
4.3963 6.8636 -2.5070 0.9665
4.1462 7.0182 -2.5072 0.9665
3.8906 7.1636 -2.5074 0.9665
3.3644 7.4264 -2.5077 0.9665
3.0945 7.5434 -2.5078 0.9665
2.8205 7.6506 -2.5080 0.9665
1.6913 7.9783 -2.5085 0.9664
1.1117 8.0801 -2.5087 0.9664
0.8196 8.1153 -2.5088 0.9664
0.5263 8.1398 -2.5089 0.9664
0.2324 8.1537 -2.5089 0.9664
-0.3561 8.1497 -2.5091 0.9664
-0.6498 8.1317 -2.5091 0.9664
-0.9428 8.1031 -2.5091 0.9664
-1.8126 7.9541 -2.5092 0.9664
-2.0984 7.8835 -2.5092 0.9664
6.9719 2.8476 -2.5033 0.9688
6.3506 4.0540 -2.5044 0.9687
6.0428 4.5021 -2.5048 0.9687
5.5224 5.1297 -2.5054 0.9687
5.3342 5.3260 -2.5056 0.9687
5.1389 5.5154 -2.5058 0.9687
4.9371 5.6976 -2.5060 0.9687
4.0674 6.3501 -2.5067 0.9687
3.5995 6.6277 -2.5070 0.9687
1.0285 7.4753 -2.5082 0.9687
0.4870 7.5305 -2.5084 0.9687
0.2150 7.5433 -2.5085 0.9687
-0.3294 7.5395 -2.5086 0.9687
-0.8722 7.4964 -2.5087 0.9687
-1.1420 7.4602 -2.5087 0.9687
-1.4104 7.4142 -2.5087 0.9687
-1.6769 7.3585 -2.5087 0.9687
-1.9413 7.2933 -2.5087 0.9687
6.4805 2.6469 -2.5033 0.9707
6.3812 2.8791 -2.5035 0.9707
6.2738 3.1077 -2.5037 0.9707
6.0343 3.5525 -2.5041 0.9707
5.9027 3.7681 -2.5043 0.9707
5.6165 4.1845 -2.5047 0.9707
5.1328 4.7679 -2.5052 0.9707
4.7764 5.1262 -2.5056 0.9707
4.1955 5.6133 -2.5061 0.9707
3.9905 5.7614 -2.5063 0.9707
3.7804 5.9019 -2.5064 0.9707
3.1212 6.2769 -2.5068 0.9707
2.8929 6.3857 -2.5070 0.9707
2.6608 6.4862 -2.5071 0.9707
2.4252 6.5783 -2.5072 0.9707
2.1865 6.6618 -2.5073 0.9707
1.7006 6.8027 -2.5076 0.9707
0.4526 6.9986 -2.5080 0.9706
-0.3062 7.0071 -2.5082 0.9706
-0.8105 6.9670 -2.5082 0.9706
-1.3108 6.8905 -2.5083 0.9706
-1.8041 6.7781 -2.5083 0.9706
5.7463 3.1094 -2.5038 0.9724
5.6309 3.3149 -2.5040 0.9724
5.5080 3.5162 -2.5042 0.9724
5.3780 3.7128 -2.5044 0.9724
5.0971 4.0915 -2.5047 0.9724
4.9465 4.2729 -2.5049 0.9724
4.6262 4.6191 -2.5052 0.9724
4.4569 4.7833 -2.5054 0.9724
4.1009 5.0928 -2.5057 0.9724
3.9147 5.2377 -2.5059 0.9724
3.5274 5.5070 -2.5062 0.9724
3.1215 5.7476 -2.5064 0.9724
2.9123 5.8567 -2.5066 0.9724
2.6993 5.9583 -2.5067 0.9724
2.2629 6.1379 -2.5069 0.9724
2.0401 6.2158 -2.5070 0.9724
1.5867 6.3472 -2.5072 0.9724
0.6575 6.5103 -2.5076 0.9724
0.4222 6.5300 -2.5076 0.9724
0.1864 6.5411 -2.5077 0.9724
-0.5213 6.5234 -2.5078 0.9724
-0.7563 6.5004 -2.5079 0.9724
-1.2230 6.4291 -2.5079 0.9724
5.5755 2.5155 -2.5034 0.9739
5.4815 2.7152 -2.5036 0.9739
5.2722 3.1038 -2.5039 0.9739
5.0354 3.4763 -2.5043 0.9739
4.9070 3.6559 -2.5044 0.9739
4.3313 4.3247 -2.5051 0.9739
4.1728 4.4784 -2.5052 0.9739
4.0088 4.6263 -2.5054 0.9739
3.6652 4.9038 -2.5057 0.9739
3.3025 5.1559 -2.5059 0.9739
2.5271 5.5784 -2.5064 0.9739
2.1186 5.7465 -2.5067 0.9739
1.9100 5.8195 -2.5068 0.9739
1.6989 5.8848 -2.5069 0.9739
1.4856 5.9425 -2.5069 0.9739
1.2703 5.9924 -2.5070 0.9739
0.8350 6.0687 -2.5072 0.9739
0.6156 6.0951 -2.5073 0.9739
-0.0464 6.1263 -2.5074 0.9739
-0.9271 6.0563 -2.5076 0.9739
-1.1450 6.0189 -2.5076 0.9739
-1.3613 5.9737 -2.5076 0.9739
-1.5760 5.9208 -2.5076 0.9739
5.1475 2.5498 -2.5035 0.9752
5.0525 2.7340 -2.5037 0.9752
4.2109 3.9115 -2.5048 0.9752
3.7644 4.3443 -2.5052 0.9752
3.6054 4.4775 -2.5053 0.9752
3.4418 4.6049 -2.5055 0.9752
3.2736 4.7262 -2.5056 0.9752
3.1012 4.8415 -2.5057 0.9752
2.7443 5.0530 -2.5060 0.9752
2.1826 5.3205 -2.5063 0.9752
1.9894 5.3960 -2.5064 0.9752
1.5953 5.5258 -2.5066 0.9752
0.9891 5.6664 -2.5068 0.9752
0.7841 5.6985 -2.5069 0.9752
0.5780 5.7232 -2.5070 0.9752
-0.0437 5.7526 -2.5071 0.9752
-0.4583 5.7346 -2.5072 0.9752
-0.6649 5.7144 -2.5072 0.9752
-1.0751 5.6517 -2.5073 0.9752
-1.2783 5.6093 -2.5073 0.9752
-1.4798 5.5595 -2.5073 0.9752
5.0063 2.0447 -2.5032 0.9764
4.9296 2.2241 -2.5033 0.9764
4.8465 2.4007 -2.5035 0.9764
4.7570 2.5741 -2.5036 0.9764
4.5596 2.9107 -2.5039 0.9764
4.4519 3.0735 -2.5041 0.9764
4.3384 3.2322 -2.5042 0.9764
4.2192 3.3868 -2.5044 0.9764
4.0945 3.5370 -2.5045 0.9764
3.6891 3.9593 -2.5049 0.9764
3.3944 4.2154 -2.5052 0.9764
3.2403 4.3353 -2.5053 0.9764
2.7534 4.6606 -2.5057 0.9764
2.0548 5.0090 -2.5061 0.9764
1.8729 5.0801 -2.5062 0.9764
1.6885 5.1445 -2.5063 0.9764
1.5019 5.2022 -2.5064 0.9764
1.3133 5.2532 -2.5064 0.9764
0.9312 5.3345 -2.5066 0.9764
0.7381 5.3648 -2.5067 0.9764
0.5442 5.3880 -2.5067 0.9764
0.1543 5.4135 -2.5068 0.9764
-0.0411 5.4156 -2.5069 0.9764
-0.6259 5.3797 -2.5070 0.9764
-0.8195 5.3536 -2.5070 0.9764
-1.0121 5.3206 -2.5070 0.9764
4.7242 1.9295 -2.5031 0.9775
4.6518 2.0988 -2.5033 0.9775
4.3986 2.5895 -2.5037 0.9775
4.0938 3.0500 -2.5041 0.9775
3.8637 3.3376 -2.5044 0.9775
3.7410 3.4749 -2.5045 0.9775
3.2030 3.9776 -2.5050 0.9775
2.9081 4.1986 -2.5053 0.9775
2.5981 4.3977 -2.5055 0.9775
2.1080 4.6532 -2.5058 0.9775
1.9389 4.7264 -2.5059 0.9775
1.7672 4.7934 -2.5060 0.9775
1.5932 4.8542 -2.5061 0.9775
1.4171 4.9087 -2.5062 0.9775
1.2392 4.9568 -2.5062 0.9775
1.0596 4.9984 -2.5063 0.9775
0.5134 5.0840 -2.5065 0.9775
0.3297 5.0993 -2.5065 0.9775
0.1456 5.1079 -2.5066 0.9775
-0.4071 5.0940 -2.5067 0.9775
-0.5906 5.0761 -2.5067 0.9775
-0.7733 5.0515 -2.5067 0.9775
4.4668 1.8244 -2.5031 0.9785
4.3241 2.1419 -2.5034 0.9785
4.2443 2.2967 -2.5035 0.9785
4.1589 2.4484 -2.5037 0.9785
3.9720 2.7421 -2.5039 0.9785
3.8707 2.8838 -2.5041 0.9785
3.7644 3.0217 -2.5042 0.9785
3.5371 3.2855 -2.5044 0.9785
3.4164 3.4112 -2.5046 0.9785
3.2913 3.5324 -2.5047 0.9785
3.0283 3.7608 -2.5049 0.9785
2.8909 3.8678 -2.5050 0.9785
2.4564 4.1579 -2.5053 0.9785
2.3049 4.2440 -2.5054 0.9785
1.9931 4.3995 -2.5056 0.9785
1.6708 4.5320 -2.5058 0.9785
1.5063 4.5895 -2.5059 0.9785
1.3398 4.6410 -2.5060 0.9785
1.0018 4.7258 -2.5061 0.9785
0.6585 4.7859 -2.5062 0.9785
0.3118 4.8212 -2.5063 0.9785
0.1377 4.8293 -2.5064 0.9785
-0.3848 4.8162 -2.5065 0.9785
-0.9029 4.7465 -2.5065 0.9785
-1.0736 4.7109 -2.5066 0.9785
-1.2428 4.6691 -2.5066 0.9785
4.1660 1.8796 -2.5032 0.9794
4.0957 2.0288 -2.5033 0.9794
3.4600 2.9889 -2.5042 0.9794
2.9948 3.4561 -2.5047 0.9794
2.8683 3.5620 -2.5048 0.9794
2.4670 3.8515 -2.5051 0.9794
2.1831 4.0196 -2.5053 0.9794
2.0367 4.0959 -2.5054 0.9794
1.7362 4.2324 -2.5056 0.9794
1.4267 4.3468 -2.5057 0.9794
1.1096 4.4386 -2.5059 0.9794
0.9488 4.4759 -2.5059 0.9793
0.7868 4.5073 -2.5060 0.9793
0.6237 4.5328 -2.5060 0.9793
0.2953 4.5662 -2.5061 0.9793
0.1304 4.5739 -2.5062 0.9793
-0.0347 4.5758 -2.5062 0.9793
-0.1997 4.5716 -2.5063 0.9793
-0.3645 4.5614 -2.5063 0.9793
-0.6924 4.5234 -2.5063 0.9793
-1.1770 4.4221 -2.5064 0.9793
4.0136 1.6393 -2.5031 0.9802
3.8854 1.9246 -2.5033 0.9802
3.6552 2.3334 -2.5037 0.9802
3.5689 2.4638 -2.5038 0.9802
3.3822 2.7150 -2.5040 0.9802
2.8409 3.2785 -2.5046 0.9802
2.7209 3.3790 -2.5047 0.9802
2.5973 3.4751 -2.5048 0.9802
2.2070 3.7357 -2.5051 0.9802
2.0709 3.8130 -2.5052 0.9802
1.9320 3.8854 -2.5053 0.9802
1.7907 3.9527 -2.5053 0.9802
1.5011 4.0718 -2.5055 0.9802
1.3533 4.1234 -2.5056 0.9802
1.0526 4.2104 -2.5057 0.9802
0.5917 4.2998 -2.5059 0.9802
0.2801 4.3314 -2.5060 0.9802
-0.0329 4.3405 -2.5060 0.9802
-0.3458 4.3269 -2.5061 0.9802
-0.9645 4.2323 -2.5062 0.9802
-1.1165 4.1947 -2.5062 0.9802
