ply
format ascii 1.0
element vertex 159
property float32 x
property float32 y
property float32 z
property float32 I
end_header
47.9099 -10.1721 8.6361 0.8196
47.9546 -8.3375 8.5825 0.8206
47.9991 -6.5230 8.5413 0.8214
38.6719 -17.8124 5.5444 0.8422
46.6085 -15.4675 5.2733 0.8207
46.2426 -17.2738 4.1788 0.8202
47.0017 -13.6864 4.1441 0.8216
46.9545 -15.5824 3.0678 0.8201
47.0013 -13.6863 3.0356 0.8219
47.0471 -11.8270 3.0082 0.8233
46.9542 -15.5822 1.9507 0.8203
47.0009 -13.6862 1.9303 0.8220
47.0002 -13.6860 -0.2756 0.8222
41.5070 -7.2164 -0.2372 0.8449
41.5046 -5.6403 -0.2358 0.8457
46.5502 -17.3886 -1.3993 0.8197
46.9998 -13.6858 -1.3784 0.8221
41.5036 -5.6402 -1.1794 0.8457
44.7846 -13.0408 -2.3655 0.8296
45.6260 -9.6873 -2.3655 0.8296
41.5049 -7.2161 -2.1365 0.8447
41.5025 -5.6401 -2.1241 0.8456
29.9871 -16.6078 -2.5134 0.8715
32.1145 -11.9962 -2.5136 0.8715
32.5371 -10.7978 -2.5136 0.8715
33.9672 -4.6161 -2.5134 0.8715
22.3909 -13.5086 -2.5106 0.9003
22.8768 -12.6699 -2.5106 0.9002
23.3313 -11.8136 -2.5107 0.9002
24.4992 -9.1516 -2.5108 0.9002
25.1098 -7.3117 -2.5108 0.9002
25.7654 -4.4796 -2.5107 0.9002
25.9130 -3.5216 -2.5106 0.9002
18.0844 -10.9105 -2.5088 0.9184
18.4767 -10.2330 -2.5089 0.9184
19.1847 -8.8365 -2.5090 0.9184
19.4992 -8.1195 -2.5090 0.9184
20.0473 -6.6529 -2.5090 0.9184
20.6614 -4.3868 -2.5090 0.9184
20.9290 -2.8442 -2.5089 0.9184
16.7987 -5.5748 -2.5078 0.9310
17.3134 -3.6760 -2.5078 0.9310
17.4376 -3.0317 -2.5078 0.9310
13.0294 -7.8607 -2.5068 0.9402
13.3120 -7.3726 -2.5069 0.9402
13.5763 -6.8742 -2.5069 0.9402
13.8219 -6.3664 -2.5069 0.9402
14.2557 -5.3252 -2.5070 0.9402
14.6110 -4.2546 -2.5070 0.9402
14.7586 -3.7101 -2.5070 0.9402
14.9926 -2.6066 -2.5069 0.9402
11.4168 -6.8878 -2.5062 0.9472
11.6644 -6.4601 -2.5062 0.9472
12.3096 -5.1257 -2.5063 0.9472
12.4912 -4.6660 -2.5063 0.9472
12.6556 -4.1999 -2.5063 0.9472
12.9319 -3.2509 -2.5063 0.9472
13.1369 -2.2840 -2.5063 0.9472
10.1498 -6.1235 -2.5057 0.9527
10.5758 -5.3550 -2.5057 0.9527
10.7671 -4.9594 -2.5058 0.9527
10.9436 -4.5569 -2.5058 0.9527
11.1050 -4.1482 -2.5058 0.9527
11.2511 -3.7338 -2.5058 0.9527
11.4967 -2.8901 -2.5058 0.9527
11.7462 -1.5963 -2.5057 0.9527
9.1273 -5.5066 -2.5053 0.9571
9.5104 -4.8155 -2.5053 0.9571
9.6823 -4.4597 -2.5054 0.9571
9.8410 -4.0978 -2.5054 0.9571
9.9862 -3.7303 -2.5054 0.9571
10.1176 -3.3577 -2.5054 0.9571
10.2351 -2.9804 -2.5054 0.9571
10.3385 -2.5989 -2.5054 0.9571
10.4277 -2.2140 -2.5054 0.9571
10.5628 -1.4355 -2.5053 0.9571
8.4635 -4.6873 -2.5050 0.9608
8.7876 -4.0476 -2.5050 0.9608
8.9316 -3.7191 -2.5050 0.9608
9.1826 -3.0473 -2.5050 0.9608
9.4640 -2.0094 -2.5050 0.9608
9.5319 -1.6572 -2.5050 0.9608
7.5756 -4.5704 -2.5047 0.9639
7.8935 -3.9968 -2.5047 0.9639
8.0362 -3.7015 -2.5047 0.9639
8.1680 -3.4011 -2.5047 0.9639
8.3975 -2.7868 -2.5047 0.9639
8.6548 -1.8376 -2.5047 0.9639
8.7170 -1.5155 -2.5047 0.9639
8.7671 -1.1914 -2.5047 0.9639
7.7282 -2.5647 -2.5045 0.9665
7.8179 -2.2765 -2.5045 0.9665
7.9651 -1.6911 -2.5045 0.9665
8.0222 -1.3948 -2.5045 0.9665
8.0683 -1.0965 -2.5045 0.9665
6.4506 -3.8917 -2.5042 0.9687
6.5905 -3.6500 -2.5042 0.9687
6.9550 -2.8961 -2.5043 0.9687
7.0575 -2.6363 -2.5043 0.9687
7.4224 -1.2905 -2.5043 0.9687
6.3601 -2.9295 -2.5041 0.9707
6.4643 -2.6918 -2.5041 0.9707
6.7232 -1.9577 -2.5041 0.9707
6.7911 -1.7072 -2.5041 0.9707
6.8497 -1.4543 -2.5041 0.9707
6.8988 -1.1995 -2.5041 0.9707
6.9385 -0.9429 -2.5041 0.9707
5.8293 -2.9516 -2.5039 0.9724
6.0319 -2.5117 -2.5039 0.9724
6.3368 -1.5930 -2.5039 0.9724
6.3915 -1.3570 -2.5039 0.9724
6.4744 -0.8799 -2.5039 0.9724
5.3516 -2.9639 -2.5038 0.9739
5.5565 -2.5594 -2.5038 0.9739
5.6476 -2.3517 -2.5038 0.9739
5.8063 -1.9269 -2.5038 0.9739
5.8737 -1.7104 -2.5038 0.9739
5.9330 -1.4915 -2.5038 0.9739
5.9842 -1.2706 -2.5038 0.9739
6.0272 -1.0479 -2.5038 0.9739
5.3034 -2.2083 -2.5037 0.9752
5.3816 -2.0103 -2.5037 0.9752
5.4524 -1.8094 -2.5037 0.9752
5.5157 -1.6061 -2.5037 0.9752
5.6598 -0.9840 -2.5036 0.9752
4.7314 -2.6204 -2.5035 0.9764
4.9930 -2.0791 -2.5035 0.9764
5.0666 -1.8926 -2.5035 0.9764
5.2454 -1.3186 -2.5035 0.9764
5.3286 -0.9264 -2.5035 0.9764
5.3593 -0.7283 -2.5035 0.9764
4.3698 -2.6364 -2.5034 0.9775
4.4646 -2.4726 -2.5034 0.9775
4.5532 -2.3054 -2.5034 0.9775
4.6355 -2.1351 -2.5034 0.9775
4.7114 -1.9619 -2.5034 0.9775
4.7810 -1.7859 -2.5034 0.9775
4.8439 -1.6075 -2.5034 0.9775
4.9001 -1.4269 -2.5034 0.9775
4.9497 -1.2443 -2.5034 0.9775
5.0282 -0.8742 -2.5034 0.9775
4.3829 -2.0187 -2.5033 0.9785
4.4546 -1.8549 -2.5033 0.9785
4.5204 -1.6886 -2.5033 0.9785
4.6798 -1.1765 -2.5033 0.9785
4.7202 -1.0022 -2.5033 0.9785
4.7541 -0.8265 -2.5033 0.9785
3.9134 -2.3610 -2.5032 0.9794
3.9982 -2.2143 -2.5032 0.9794
4.2815 -1.5993 -2.5033 0.9794
4.3379 -1.4396 -2.5033 0.9794
4.4326 -1.1143 -2.5032 0.9794
4.5288 -0.6155 -2.5032 0.9794
3.7123 -2.2396 -2.5031 0.9802
3.8680 -1.9585 -2.5032 0.9802
4.0615 -1.5172 -2.5032 0.9802
4.1150 -1.3656 -2.5032 0.9802
4.2715 -0.7427 -2.5032 0.9802
4.2961 -0.5838 -2.5031 0.9802
