ply
format ascii 1.0
element vertex 565
property float32 x
property float32 y
property float32 z
property float32 I
end_header
46.6563 -14.0738 8.5929 0.8204
46.7434 -10.4883 8.4470 0.8232
46.7861 -8.7363 8.3922 0.8242
46.8705 -5.2886 8.3170 0.8257
45.6297 -3.4854 8.0692 0.8304
47.0385 1.5119 8.2984 0.8260
47.0809 3.2184 8.3210 0.8256
47.1672 6.6707 8.3996 0.8241
47.2112 8.4262 8.4561 0.8230
47.2560 10.2077 8.5247 0.8217
45.3016 -3.4603 6.9602 0.8321
47.6032 12.0972 7.5243 0.8197
47.2206 13.8337 7.5380 0.8195
45.5696 -3.4808 5.9514 0.8316
40.8175 18.6937 5.8462 0.8344
45.7017 -15.6076 5.1858 0.8234
45.8418 -13.8281 5.1416 0.8248
45.7041 -19.3953 4.2029 0.8193
45.2227 -17.2916 4.0985 0.8234
45.7967 -15.6400 4.0967 0.8234
45.8413 -13.8280 4.0533 0.8251
45.6281 -3.4853 3.8738 0.8322
45.7037 -19.3952 3.0787 0.8196
45.7506 -17.4935 3.0373 0.8218
45.8410 -13.8279 2.9691 0.8254
45.6277 -3.4852 2.8376 0.8324
45.7523 -19.4158 1.9598 0.8196
45.7502 -17.4933 1.9314 0.8220
45.7959 -15.6397 1.9082 0.8239
45.1644 -3.4498 1.7861 0.8342
45.7529 18.9863 1.9533 0.8201
45.7029 -19.3948 0.8386 0.8199
45.7498 -17.4931 0.8274 0.8221
45.7955 -15.6396 0.8174 0.8240
45.8402 -13.8276 0.8088 0.8257
45.8839 -12.0513 0.8014 0.8271
45.1640 -3.4498 0.7651 0.8343
45.7045 -19.3955 -0.2795 0.8199
45.7494 -17.4930 -0.2758 0.8221
45.7951 -15.6395 -0.2724 0.8240
45.8836 -12.0512 -0.2671 0.8272
40.3460 -4.5523 -0.2286 0.8501
40.3340 -1.6189 -0.2273 0.8509
40.3267 1.2962 -0.2272 0.8510
40.3209 2.7562 -0.2275 0.8507
40.3149 5.7017 -0.2292 0.8497
40.3006 10.2416 -0.2341 0.8468
40.2957 11.8050 -0.2364 0.8454
40.2896 15.0378 -0.2421 0.8420
40.2797 18.4474 -0.2494 0.8376
40.2653 22.0869 -0.2586 0.8322
40.2608 24.0155 -0.2639 0.8290
40.2497 28.1362 -0.2765 0.8217
45.7947 -15.6393 -1.3626 0.8240
45.8394 -13.8274 -1.3482 0.8256
40.3472 -6.0351 -1.1487 0.8494
40.3450 -4.5522 -1.1432 0.8500
40.3346 -1.6189 -1.1367 0.8508
40.3273 1.2962 -1.1361 0.8509
40.3202 2.7562 -1.1380 0.8507
40.3172 4.2234 -1.1415 0.8503
40.3143 5.7016 -1.1465 0.8497
40.3112 7.1947 -1.1530 0.8489
40.3014 10.2418 -1.1709 0.8467
40.2916 13.4017 -1.1956 0.8437
40.2886 15.0374 -1.2109 0.8419
40.2838 16.7168 -1.2281 0.8399
40.2608 24.0155 -1.3200 0.8290
40.2597 26.0308 -1.3499 0.8254
40.2506 28.1369 -1.3828 0.8216
37.9740 -31.3611 -2.4977 0.8210
37.9858 -29.1288 -2.4276 0.8255
39.0025 -25.6618 -2.3677 0.8295
39.9055 -24.2375 -2.3678 0.8294
40.7561 -22.7812 -2.3679 0.8294
41.5532 -21.2950 -2.3679 0.8294
42.2955 -19.7806 -2.3680 0.8294
43.4080 -16.5978 -2.3568 0.8302
43.4524 -14.8394 -2.3286 0.8320
44.3628 -13.3820 -2.3500 0.8306
45.5527 -10.2211 -2.3676 0.8295
40.3484 -7.5341 -2.0816 0.8484
40.3352 -1.6189 -2.0472 0.8507
40.3165 4.2233 -2.0558 0.8501
40.3070 8.7067 -2.0913 0.8478
40.2877 15.0371 -2.1808 0.8418
40.2828 16.7164 -2.2118 0.8397
40.2696 20.2329 -2.2855 0.8349
40.2653 22.0869 -2.3291 0.8320
39.0679 25.2603 -2.3594 0.8300
26.4458 -21.8405 -2.5148 0.8715
27.2188 -20.8723 -2.5150 0.8715
28.6566 -18.8546 -2.5152 0.8715
29.3197 -17.8080 -2.5152 0.8715
31.0751 -14.5330 -2.5154 0.8715
31.5796 -13.4013 -2.5154 0.8715
32.4639 -11.0867 -2.5153 0.8715
32.8424 -9.9069 -2.5152 0.8715
33.4696 -7.5099 -2.5151 0.8715
33.7176 -6.2960 -2.5150 0.8715
33.9213 -5.0740 -2.5149 0.8715
34.0805 -3.8454 -2.5147 0.8715
34.2645 -1.3752 -2.5144 0.8715
34.2689 1.1014 -2.5140 0.8715
34.0936 3.5715 -2.5135 0.8715
33.7397 6.0218 -2.5130 0.8716
32.8786 9.6321 -2.5120 0.8716
32.5050 10.8117 -2.5117 0.8716
31.1316 14.2577 -2.5106 0.8717
30.5917 15.3704 -2.5103 0.8717
30.0120 16.4626 -2.5099 0.8717
27.3106 20.5985 -2.5082 0.8718
20.1722 -16.6593 -2.5117 0.9002
20.7613 -15.9205 -2.5118 0.9002
21.8577 -14.3813 -2.5119 0.9002
22.3633 -13.5828 -2.5120 0.9002
24.0868 -10.2217 -2.5121 0.9002
24.4401 -9.3451 -2.5120 0.9002
25.0503 -7.5564 -2.5120 0.9002
25.3063 -6.6466 -2.5119 0.9002
25.5291 -5.7282 -2.5119 0.9002
25.8738 -3.8700 -2.5117 0.9002
25.9959 -2.9332 -2.5116 0.9002
26.1371 -1.0490 -2.5113 0.9002
26.1564 -0.1044 -2.5112 0.9002
26.1414 0.8402 -2.5110 0.9002
26.0922 1.7836 -2.5108 0.9002
25.8915 3.6618 -2.5104 0.9003
25.3369 6.4389 -2.5098 0.9003
25.0854 7.3490 -2.5095 0.9003
23.7557 10.8797 -2.5085 0.9003
23.3446 11.7291 -2.5082 0.9003
21.9310 14.1799 -2.5072 0.9004
21.4018 14.9607 -2.5069 0.9004
20.8448 15.7218 -2.5066 0.9004
16.7665 -12.8571 -2.5098 0.9184
17.2204 -12.2435 -2.5099 0.9184
17.6517 -11.6139 -2.5099 0.9184
18.8050 -9.6371 -2.5100 0.9184
19.7369 -7.5467 -2.5100 0.9184
19.9964 -6.8290 -2.5100 0.9184
20.2297 -6.1023 -2.5100 0.9184
20.6166 -4.6260 -2.5099 0.9184
20.9941 -2.3688 -2.5096 0.9184
21.1086 -0.8472 -2.5094 0.9184
21.1244 -0.0843 -2.5093 0.9184
21.1126 0.6786 -2.5092 0.9184
20.9116 2.9575 -2.5087 0.9184
19.7773 7.3817 -2.5076 0.9185
18.8578 9.4748 -2.5069 0.9185
18.5015 10.1487 -2.5066 0.9185
18.1212 10.8092 -2.5064 0.9185
17.7171 11.4554 -2.5061 0.9185
16.3690 13.3001 -2.5053 0.9186
13.6502 -11.2730 -2.5084 0.9310
14.4289 -10.2589 -2.5085 0.9310
14.7903 -9.7313 -2.5085 0.9310
15.1323 -9.1909 -2.5086 0.9310
15.4545 -8.6385 -2.5086 0.9310
15.7566 -8.0748 -2.5086 0.9310
16.2983 -6.9165 -2.5086 0.9310
16.5375 -6.3233 -2.5086 0.9310
16.7549 -5.7219 -2.5086 0.9310
17.1237 -4.4975 -2.5085 0.9310
17.5086 -2.6189 -2.5084 0.9310
17.6581 1.2071 -2.5078 0.9310
17.5231 2.4783 -2.5075 0.9310
17.4212 3.1093 -2.5074 0.9310
17.2965 3.7362 -2.5072 0.9310
17.1492 4.3581 -2.5071 0.9310
16.9796 4.9743 -2.5069 0.9310
16.5739 6.1861 -2.5066 0.9310
16.3385 6.7801 -2.5064 0.9310
16.0817 7.3652 -2.5062 0.9310
15.5057 8.5054 -2.5058 0.9310
15.1871 9.0590 -2.5056 0.9311
14.8488 9.6008 -2.5054 0.9311
14.4911 10.1299 -2.5052 0.9311
13.2546 9.9971 -2.3523 0.9351
11.7357 -9.6920 -2.5074 0.9402
13.2869 -7.4269 -2.5076 0.9402
13.7884 -6.4485 -2.5076 0.9402
14.0123 -5.9463 -2.5076 0.9402
14.4049 -4.9194 -2.5076 0.9402
14.5729 -4.3959 -2.5076 0.9402
14.8518 -3.3325 -2.5075 0.9402
14.9622 -2.7939 -2.5075 0.9402
15.1241 -1.7065 -2.5073 0.9402
15.1755 -1.1592 -2.5073 0.9402
15.2185 -0.0607 -2.5071 0.9402
15.2103 0.4889 -2.5070 0.9402
15.1820 1.0378 -2.5069 0.9402
15.1341 1.5854 -2.5068 0.9402
14.8716 3.2124 -2.5064 0.9402
14.7451 3.7472 -2.5063 0.9402
14.2509 5.3190 -2.5059 0.9402
14.0486 5.8298 -2.5057 0.9402
13.5893 6.8278 -2.5054 0.9402
13.3329 7.3135 -2.5052 0.9402
12.7684 8.2556 -2.5048 0.9402
12.4610 8.7107 -2.5046 0.9402
10.5830 -8.1154 -2.5067 0.9472
11.1415 -7.3306 -2.5068 0.9472
11.6418 -6.5073 -2.5068 0.9472
12.0812 -5.6501 -2.5069 0.9472
12.2775 -5.2101 -2.5069 0.9472
12.4576 -4.7633 -2.5069 0.9472
12.8993 -3.3880 -2.5068 0.9472
13.0131 -2.9199 -2.5068 0.9472
13.1895 -1.9729 -2.5067 0.9472
13.2968 -1.0157 -2.5066 0.9472
13.2608 1.3891 -2.5061 0.9472
13.2015 1.8671 -2.5060 0.9472
12.9203 3.2834 -2.5057 0.9472
12.7927 3.7477 -2.5056 0.9472
12.6484 4.2071 -2.5055 0.9472
12.1171 5.5494 -2.5050 0.9472
11.9081 5.9830 -2.5049 0.9472
11.6836 6.4088 -2.5047 0.9472
11.1891 7.2345 -2.5044 0.9472
10.6363 8.0222 -2.5041 0.9472
10.0961 8.2032 -2.4451 0.9484
9.1415 -7.5495 -2.5061 0.9527
9.4083 -7.2146 -2.5061 0.9527
9.9048 -6.5169 -2.5062 0.9527
10.9146 -4.6318 -2.5063 0.9527
11.0747 -4.2346 -2.5063 0.9527
11.2204 -3.8319 -2.5062 0.9527
11.3513 -3.4241 -2.5062 0.9527
11.4675 -3.0119 -2.5062 0.9527
11.6546 -2.1762 -2.5061 0.9527
11.7254 -1.7539 -2.5061 0.9527
11.7809 -1.3293 -2.5060 0.9527
11.8210 -0.9029 -2.5060 0.9527
11.8456 -0.4754 -2.5059 0.9527
11.8483 0.3808 -2.5058 0.9527
11.8265 0.8084 -2.5057 0.9527
11.7365 1.6599 -2.5055 0.9527
11.5852 2.5025 -2.5053 0.9527
11.4867 2.9191 -2.5052 0.9527
11.3733 3.3319 -2.5051 0.9527
11.1021 4.1438 -2.5049 0.9527
10.9447 4.5418 -2.5048 0.9527
10.5872 5.3194 -2.5045 0.9527
10.3876 5.6979 -2.5044 0.9527
9.9481 6.4321 -2.5041 0.9527
9.7087 6.7868 -2.5039 0.9527
9.4568 7.1326 -2.5038 0.9527
9.1925 7.4690 -2.5036 0.9527
9.4884 -4.8626 -2.5058 0.9571
9.8147 -4.1650 -2.5058 0.9571
10.0896 -3.4457 -2.5058 0.9571
10.2075 -3.0791 -2.5057 0.9571
10.3119 -2.7084 -2.5057 0.9571
10.4029 -2.3342 -2.5057 0.9571
10.5439 -1.5772 -2.5056 0.9571
10.5938 -1.1953 -2.5056 0.9571
10.6603 -0.0426 -2.5054 0.9571
10.6546 0.3424 -2.5054 0.9571
10.5541 1.4927 -2.5051 0.9571
10.4929 1.8728 -2.5050 0.9571
10.4181 2.2504 -2.5049 0.9572
10.3296 2.6251 -2.5049 0.9572
10.1124 3.3635 -2.5047 0.9572
9.6880 4.4369 -2.5043 0.9572
9.5210 4.7837 -2.5042 0.9572
9.1499 5.4579 -2.5040 0.9572
8.9464 5.7845 -2.5038 0.9572
8.7312 6.1035 -2.5037 0.9572
8.5046 6.4145 -2.5036 0.9572
8.2670 6.7170 -2.5034 0.9572
7.6783 -5.8879 -2.5053 0.9608
7.8860 -5.6069 -2.5053 0.9608
8.4464 -4.7212 -2.5054 0.9608
8.7652 -4.0993 -2.5054 0.9608
8.9075 -3.7800 -2.5054 0.9608
9.3587 -2.4580 -2.5053 0.9608
9.4413 -2.1184 -2.5053 0.9608
9.6474 -0.7369 -2.5052 0.9608
9.6675 -0.3880 -2.5051 0.9608
9.6699 0.3108 -2.5050 0.9608
9.5233 1.6997 -2.5047 0.9608
9.2827 2.7194 -2.5045 0.9608
9.1781 3.0528 -2.5044 0.9608
9.0615 3.3821 -2.5043 0.9608
8.9330 3.7070 -2.5042 0.9608
8.7930 4.0270 -2.5041 0.9608
8.6414 4.3418 -2.5039 0.9608
8.4786 4.6508 -2.5038 0.9608
7.9248 5.5397 -2.5035 0.9608
7.5035 6.0967 -2.5032 0.9608
6.8225 -5.6344 -2.5049 0.9639
7.2116 -5.1274 -2.5050 0.9639
7.3922 -4.8637 -2.5050 0.9639
7.7241 -4.3175 -2.5050 0.9639
8.1458 -3.4568 -2.5050 0.9639
8.3740 -2.8598 -2.5050 0.9639
8.4717 -2.5555 -2.5050 0.9639
8.6339 -1.9373 -2.5050 0.9639
8.7511 -1.3090 -2.5049 0.9639
8.7925 -0.9921 -2.5049 0.9639
8.7990 0.9218 -2.5046 0.9639
8.7091 1.5544 -2.5044 0.9639
8.5737 2.1788 -2.5043 0.9639
8.4891 2.4870 -2.5042 0.9639
8.3935 2.7918 -2.5041 0.9639
8.1695 3.3901 -2.5039 0.9639
8.0414 3.6828 -2.5038 0.9639
7.9028 3.9706 -2.5037 0.9639
7.7539 4.2533 -2.5036 0.9639
7.4261 4.8015 -2.5034 0.9639
7.2475 5.0663 -2.5033 0.9639
7.0595 5.3245 -2.5032 0.9639
6.8623 5.5757 -2.5031 0.9639
6.2788 -5.1853 -2.5046 0.9665
6.4620 -4.9553 -2.5047 0.9665
6.8030 -4.4760 -2.5047 0.9665
6.9602 -4.2274 -2.5047 0.9665
7.1084 -3.9733 -2.5047 0.9665
7.3767 -3.4499 -2.5048 0.9665
7.4964 -3.1812 -2.5048 0.9665
7.7065 -2.6318 -2.5047 0.9665
7.9458 -1.7829 -2.5047 0.9665
8.0049 -1.4947 -2.5047 0.9665
8.0535 -1.2046 -2.5046 0.9665
8.0916 -0.9130 -2.5046 0.9665
8.1426 -0.0325 -2.5045 0.9665
8.1233 0.5553 -2.5044 0.9665
8.0978 0.8483 -2.5043 0.9665
8.0150 1.4305 -2.5042 0.9665
7.9579 1.7190 -2.5041 0.9665
7.8904 2.0052 -2.5041 0.9665
7.7246 2.5694 -2.5039 0.9665
7.6266 2.8465 -2.5038 0.9665
7.5185 3.1200 -2.5037 0.9665
7.2731 3.6543 -2.5036 0.9665
7.1362 3.9144 -2.5035 0.9665
6.6702 4.6627 -2.5032 0.9665
6.4972 4.9004 -2.5031 0.9665
6.3157 5.1316 -2.5030 0.9665
5.8092 -4.7976 -2.5044 0.9687
6.1405 -4.3659 -2.5045 0.9687
6.2942 -4.1413 -2.5045 0.9687
6.5768 -3.6762 -2.5045 0.9687
6.9358 -2.9433 -2.5045 0.9687
7.0376 -2.6909 -2.5045 0.9687
7.1302 -2.4350 -2.5045 0.9687
7.2135 -2.1759 -2.5045 0.9687
7.4063 -1.3829 -2.5044 0.9687
7.4513 -1.1146 -2.5044 0.9687
7.4866 -0.8447 -2.5044 0.9687
7.5337 -0.0301 -2.5043 0.9687
7.5159 0.5138 -2.5042 0.9687
7.4923 0.7849 -2.5041 0.9687
7.4589 1.0549 -2.5041 0.9687
7.3630 1.5905 -2.5039 0.9687
7.3005 1.8553 -2.5039 0.9687
7.2286 2.1177 -2.5038 0.9687
5.8437 4.7481 -2.5028 0.9688
5.3994 -4.4591 -2.5042 0.9707
5.5570 -4.2613 -2.5042 0.9707
5.8502 -3.8491 -2.5043 0.9707
6.2322 -3.1938 -2.5043 0.9707
6.3435 -2.9667 -2.5043 0.9707
6.7731 -1.7789 -2.5043 0.9707
6.8838 -1.2854 -2.5042 0.9707
6.9256 -1.0359 -2.5042 0.9707
6.9584 -0.7851 -2.5042 0.9707
6.9821 -0.5333 -2.5041 0.9707
7.0022 -0.0279 -2.5041 0.9707
6.9986 0.2250 -2.5040 0.9707
6.9857 0.4775 -2.5040 0.9707
6.9328 0.9805 -2.5039 0.9707
6.8927 1.2302 -2.5038 0.9707
6.8436 1.4783 -2.5038 0.9707
6.7187 1.9683 -2.5036 0.9707
6.4658 2.6832 -2.5034 0.9707
6.2549 3.1427 -2.5033 0.9707
6.1372 3.3664 -2.5032 0.9707
6.0114 3.5858 -2.5031 0.9707
5.8778 3.8004 -2.5030 0.9707
5.5877 4.2144 -2.5028 0.9707
5.4317 4.4133 -2.5027 0.9707
5.0382 -4.1608 -2.5040 0.9724
5.3255 -3.7863 -2.5041 0.9724
5.4588 -3.5916 -2.5041 0.9724
5.5850 -3.3921 -2.5041 0.9724
5.7038 -3.1882 -2.5041 0.9724
6.0153 -2.5526 -2.5041 0.9724
6.3200 -1.6599 -2.5041 0.9724
6.3758 -1.4306 -2.5041 0.9724
6.4929 -0.7326 -2.5040 0.9724
6.5151 -0.4976 -2.5040 0.9724
6.5287 -0.2620 -2.5039 0.9724
6.5304 0.2099 -2.5038 0.9724
6.4980 0.6807 -2.5038 0.9724
6.4690 0.9149 -2.5037 0.9724
6.3317 1.6091 -2.5035 0.9724
6.2693 1.8367 -2.5035 0.9724
6.1988 2.0618 -2.5034 0.9724
5.9389 2.7199 -2.5032 0.9724
5.6094 3.3460 -2.5030 0.9724
5.4847 3.5462 -2.5029 0.9724
5.3529 3.7419 -2.5028 0.9724
5.2141 3.9326 -2.5027 0.9724
5.0685 4.1182 -2.5027 0.9724
4.7171 -3.8956 -2.5039 0.9739
4.8548 -3.7228 -2.5039 0.9739
4.9861 -3.5451 -2.5039 0.9739
5.1109 -3.3627 -2.5039 0.9739
5.2290 -3.1759 -2.5039 0.9739
5.3403 -2.9850 -2.5039 0.9739
5.6319 -2.3900 -2.5039 0.9739
5.7897 -1.9772 -2.5039 0.9739
5.9695 -1.3394 -2.5039 0.9739
6.0792 -0.6859 -2.5038 0.9739
6.0999 -0.4659 -2.5038 0.9739
6.1174 -0.0244 -2.5037 0.9739
6.1031 0.4172 -2.5037 0.9739
6.0839 0.6373 -2.5036 0.9739
6.0568 0.8566 -2.5036 0.9739
6.0219 1.0748 -2.5035 0.9739
5.9283 1.5066 -2.5034 0.9739
5.8038 1.9304 -2.5033 0.9739
5.7302 2.1387 -2.5032 0.9739
5.6490 2.3442 -2.5032 0.9739
5.5606 2.5466 -2.5031 0.9739
5.4648 2.7457 -2.5030 0.9739
5.2521 3.1328 -2.5029 0.9739
5.0119 3.5035 -2.5027 0.9739
4.8820 3.6821 -2.5027 0.9739
4.5588 -3.4959 -2.5037 0.9752
4.6822 -3.3290 -2.5037 0.9752
4.7994 -3.1577 -2.5038 0.9752
5.0148 -2.8031 -2.5038 0.9752
5.1128 -2.6201 -2.5038 0.9752
5.2041 -2.4338 -2.5038 0.9752
5.2886 -2.2443 -2.5038 0.9752
5.6056 -1.2578 -2.5037 0.9752
5.6473 -1.0545 -2.5037 0.9752
5.6817 -0.8499 -2.5037 0.9752
5.7401 -0.2304 -2.5036 0.9752
5.7416 0.1845 -2.5036 0.9752
5.7311 0.3918 -2.5035 0.9752
5.6548 1.0092 -2.5034 0.9752
5.6146 1.2128 -2.5033 0.9752
5.5670 1.4147 -2.5033 0.9752
5.5121 1.6148 -2.5032 0.9752
5.1318 2.5784 -2.5029 0.9753
5.0352 2.7620 -2.5029 0.9753
4.8224 3.1180 -2.5027 0.9753
4.7066 3.2901 -2.5027 0.9753
4.2921 -3.2913 -2.5036 0.9764
4.4081 -3.1341 -2.5036 0.9764
4.5185 -2.9729 -2.5036 0.9764
4.6229 -2.8078 -2.5036 0.9764
4.7213 -2.6390 -2.5036 0.9764
4.8135 -2.4668 -2.5037 0.9764
4.9790 -2.1129 -2.5037 0.9764
5.1186 -1.7480 -2.5036 0.9764
5.1783 -1.5620 -2.5036 0.9764
5.2313 -1.3740 -2.5036 0.9764
5.3168 -0.9928 -2.5036 0.9764
5.3492 -0.8001 -2.5036 0.9764
5.3745 -0.6064 -2.5036 0.9764
5.3928 -0.4119 -2.5035 0.9764
5.4041 -0.2169 -2.5035 0.9764
5.4056 0.1737 -2.5034 0.9764
5.3788 0.5635 -2.5034 0.9764
5.3548 0.7573 -2.5033 0.9764
5.3239 0.9502 -2.5033 0.9764
5.2412 1.3320 -2.5032 0.9764
4.9162 2.2515 -2.5029 0.9764
4.8315 2.4275 -2.5029 0.9764
4.7406 2.6004 -2.5028 0.9764
4.6435 2.7698 -2.5027 0.9764
4.5403 2.9356 -2.5027 0.9765
4.1958 3.4092 -2.5025 0.9765
4.0500 -3.1057 -2.5035 0.9775
4.1595 -2.9574 -2.5035 0.9775
4.2637 -2.8053 -2.5035 0.9775
4.3622 -2.6495 -2.5035 0.9775
4.4551 -2.4902 -2.5035 0.9775
4.5421 -2.3277 -2.5035 0.9775
4.6983 -1.9938 -2.5035 0.9775
4.8863 -1.4739 -2.5035 0.9775
4.9363 -1.2965 -2.5035 0.9775
5.0170 -0.9368 -2.5035 0.9775
5.0475 -0.7550 -2.5035 0.9775
5.1034 -0.0204 -2.5034 0.9775
4.9880 1.0774 -2.5031 0.9775
4.8970 1.4346 -2.5030 0.9775
4.4734 2.4538 -2.5027 0.9775
4.3817 2.6137 -2.5027 0.9775
4.0730 3.0720 -2.5025 0.9775
3.9593 3.2170 -2.5024 0.9775
3.9328 -2.7962 -2.5034 0.9785
4.0313 -2.6524 -2.5034 0.9785
4.1244 -2.5050 -2.5034 0.9785
4.2122 -2.3545 -2.5034 0.9785
4.2945 -2.2008 -2.5034 0.9785
4.3712 -2.0443 -2.5034 0.9785
4.5667 -1.5596 -2.5034 0.9785
4.6200 -1.3936 -2.5034 0.9785
4.7724 -0.7138 -2.5033 0.9785
4.8114 -0.3675 -2.5033 0.9785
4.8215 -0.1935 -2.5033 0.9785
4.8227 0.1550 -2.5032 0.9785
4.7989 0.5027 -2.5032 0.9785
4.7775 0.6757 -2.5031 0.9785
4.7499 0.8478 -2.5031 0.9785
4.7161 1.0187 -2.5030 0.9785
4.6301 1.3564 -2.5030 0.9785
4.5780 1.5227 -2.5029 0.9785
4.4560 1.8491 -2.5028 0.9785
4.3863 2.0088 -2.5028 0.9785
4.2296 2.3201 -2.5026 0.9785
4.1430 2.4713 -2.5026 0.9785
4.0509 2.6192 -2.5025 0.9785
3.6269 -2.7812 -2.5033 0.9794
3.7250 -2.6484 -2.5033 0.9794
3.8182 -2.5122 -2.5033 0.9794
3.9065 -2.3727 -2.5033 0.9794
3.9896 -2.2300 -2.5033 0.9794
4.0675 -2.0845 -2.5033 0.9794
4.3758 -1.3199 -2.5033 0.9794
4.4206 -1.1611 -2.5033 0.9794
4.4597 -1.0006 -2.5033 0.9794
4.4929 -0.8389 -2.5033 0.9794
4.5571 -0.3481 -2.5032 0.9794
4.5667 -0.1833 -2.5032 0.9794
4.5703 -0.0182 -2.5032 0.9794
4.5453 0.4762 -2.5031 0.9794
4.5251 0.6400 -2.5030 0.9794
4.4989 0.8029 -2.5030 0.9794
4.4291 1.1256 -2.5029 0.9794
4.3362 1.4423 -2.5028 0.9794
4.1545 1.9027 -2.5027 0.9794
4.0830 2.0514 -2.5026 0.9794
3.9241 2.3407 -2.5025 0.9794
3.8369 2.4808 -2.5025 0.9794
3.6477 2.7512 -2.5024 0.9794
3.5336 -2.5123 -2.5032 0.9802
3.7846 -2.1154 -2.5032 0.9802
3.8585 -1.9774 -2.5032 0.9802
3.9912 -1.6937 -2.5032 0.9802
4.1030 -1.4012 -2.5032 0.9802
4.1510 -1.2521 -2.5032 0.9802
4.1934 -1.1014 -2.5032 0.9802
4.2305 -0.9492 -2.5032 0.9802
4.2620 -0.7958 -2.5032 0.9802
4.2879 -0.6414 -2.5032 0.9802
4.3320 -0.1738 -2.5031 0.9802
4.3253 0.2957 -2.5030 0.9802
4.3117 0.4517 -2.5030 0.9802
4.2926 0.6071 -2.5030 0.9802
4.2678 0.7617 -2.5029 0.9802
4.2374 0.9153 -2.5029 0.9802
4.1134 1.3682 -2.5028 0.9802
4.0612 1.5158 -2.5027 0.9802
4.0037 1.6614 -2.5027 0.9802
3.9410 1.8049 -2.5026 0.9802
3.7225 2.2204 -2.5025 0.9802
3.5524 2.4832 -2.5024 0.9802
3.4603 2.6098 -2.5023 0.9802
