ply
format ascii 1.0
element vertex 633
property float32 x
property float32 y
property float32 z
property float32 I
end_header
-3.7217 24.2141 4.3197 0.9053
-4.5873 24.0927 4.3245 0.9052
-5.4888 24.1149 4.3609 0.9044
-5.7867 21.8016 3.9773 0.9125
-5.9427 15.4879 2.9251 0.9348
-6.1304 14.4184 2.7626 0.9383
-6.7540 14.4338 2.8099 0.9373
-7.4002 14.4497 2.8626 0.9362
-8.7727 14.4836 2.9858 0.9335
-9.5060 14.5017 3.0574 0.9320
-10.2765 14.5207 3.1367 0.9303
-11.9495 14.5619 3.3215 0.9263
-20.0402 21.1499 5.1375 0.8884
-20.1082 18.3991 4.8059 0.8952
-20.1390 17.1496 4.6641 0.8981
-13.9911 11.0789 3.1468 0.9301
-20.1957 14.8525 4.4204 0.9032
-23.5343 14.8475 4.9065 0.8931
-25.4302 14.8037 5.1885 0.8873
1.8080 29.4293 4.5169 0.8875
-5.7071 25.0739 3.9394 0.9012
-5.7853 19.0332 3.0475 0.9227
-5.9428 15.4882 2.5414 0.9351
-6.1304 14.4185 2.4002 0.9386
-6.7540 14.4339 2.4413 0.9375
-8.0720 14.4664 2.5378 0.9352
-8.7727 14.4836 2.5941 0.9338
-9.5061 14.5017 2.6563 0.9322
-10.2765 14.5207 2.7252 0.9305
-11.0891 14.5407 2.8014 0.9287
-11.9495 14.5619 2.8858 0.9266
-12.8645 14.5845 2.9792 0.9243
-20.0846 21.1967 4.4734 0.8885
-20.0104 19.6648 4.2980 0.8927
-25.4958 14.8419 4.5194 0.8875
1.8221 29.6572 3.8693 0.8870
-5.0408 32.7963 4.3209 0.8747
-5.6538 29.6937 3.9362 0.8852
-7.4002 14.4498 2.1141 0.9366
-8.0720 14.4664 2.1572 0.9354
-11.9495 14.5620 2.4530 0.9268
-20.0848 21.1970 3.8026 0.8889
-20.1086 18.3994 3.5493 0.8959
-21.6261 14.7465 3.4086 0.8998
-25.7527 14.9914 3.8804 0.8867
-4.0825 34.7747 3.7598 0.8686
-5.3455 34.7782 3.7784 0.8680
-5.4998 24.1634 2.6611 0.9051
-3.9670 14.9461 1.6605 0.9397
-4.2778 14.0737 1.5795 0.9425
-4.8354 14.0833 1.5989 0.9419
-5.4088 14.0967 1.6213 0.9411
-6.0009 14.1140 1.6469 0.9402
-6.7540 14.4339 1.7112 0.9379
-8.0720 14.4664 1.7789 0.9355
-8.7727 14.4837 1.8183 0.9341
-9.5061 14.5018 1.8620 0.9326
-10.2766 14.5208 1.9102 0.9309
-11.0891 14.5408 1.9637 0.9291
-20.0108 19.6652 3.0127 0.8933
-13.9844 11.0736 1.9155 0.9308
-20.1963 14.8529 2.6920 0.9041
-28.8760 8.2304 3.2242 0.8862
-3.6242 44.5244 3.7816 0.8358
-4.2086 35.8487 3.0555 0.8651
-4.0998 13.4881 1.1934 0.9450
-8.7727 14.4837 1.4335 0.9343
-10.2766 14.5208 1.5059 0.9311
-11.0892 14.5408 1.5480 0.9292
-11.9496 14.5621 1.5946 0.9272
-20.0761 19.7294 2.3828 0.8932
-20.1090 18.3998 2.3073 0.8964
-20.1398 17.1502 2.2393 0.8993
-20.1965 14.8531 2.1223 0.9043
-23.5346 14.8477 2.3556 0.8943
1.9181 31.2213 1.9397 0.8822
-3.7690 32.1049 2.0045 0.8785
-3.8821 25.2574 1.5846 0.9027
-4.5917 24.1155 1.5223 0.9063
-5.4933 24.1347 1.5349 0.9056
-3.9478 12.9879 0.8418 0.9471
-4.4556 12.9772 0.8508 0.9465
-7.3723 14.3952 1.0029 0.9372
-8.7727 14.4838 1.0500 0.9344
-9.5062 14.5018 1.0752 0.9329
-10.2766 14.5208 1.1031 0.9312
-11.1585 14.6317 1.1411 0.9289
-20.0413 21.1510 1.8069 0.8898
-20.1400 17.1504 1.6403 0.8994
-13.9800 11.0702 1.1058 0.9310
-20.1966 14.8532 1.5546 0.9044
-21.7084 14.8027 1.6293 0.9001
-23.5347 14.8477 1.7256 0.8945
-25.5930 14.8985 1.8363 0.8881
1.8221 29.6574 1.1716 0.8879
-3.6279 44.5705 1.7633 0.8361
-3.7230 31.7129 1.2591 0.8800
-3.8822 25.2585 1.0077 0.9028
-4.5917 24.1155 0.9680 0.9064
-5.4936 24.1361 0.9761 0.9057
-5.8533 19.2568 0.7936 0.9226
-4.2812 12.4694 0.5199 0.9486
-5.3247 12.5235 0.5366 0.9470
-7.3723 14.3952 0.6377 0.9373
-9.5062 14.5019 0.6837 0.9329
-10.2766 14.5209 0.7015 0.9313
-20.0856 21.1979 1.1515 0.8897
-20.0114 19.6658 1.1063 0.8938
-20.1093 18.4002 1.0748 0.8966
-23.5348 14.8478 1.0972 0.8946
1.8221 29.6575 0.5019 0.8879
-0.2399 24.1621 0.4082 0.9079
-1.1025 24.1754 0.4088 0.9077
-1.9341 23.7612 0.4027 0.9090
-3.6451 23.7154 0.4053 0.9085
-4.6134 24.2296 0.4166 0.9060
-4.2826 12.4733 0.2228 0.9486
-6.1304 14.4187 0.2647 0.9392
-5.8888 12.5848 0.2347 0.9459
-7.3723 14.3953 0.2732 0.9373
-8.1225 14.5569 0.2816 0.9355
-8.7728 14.4838 0.2860 0.9345
-9.5062 14.5019 0.2929 0.9330
-10.2767 14.5209 0.3005 0.9313
-11.1585 14.6318 0.3108 0.9290
-11.9496 14.5621 0.3182 0.9274
-20.0858 21.1981 0.4933 0.8897
-20.0116 19.6660 0.4739 0.8938
-20.0993 17.1157 0.4459 0.8998
-20.1970 14.8535 0.4235 0.9046
-21.6264 14.7468 0.4421 0.9006
-25.7532 14.9917 0.5034 0.8876
-29.3357 13.1091 0.5428 0.8794
1.9170 31.2029 -0.1760 0.8825
-0.2399 24.1606 -0.1360 0.9079
-1.9342 23.7629 -0.1342 0.9090
-2.6851 22.8715 -0.1297 0.9120
-3.5185 22.8920 -0.1304 0.9115
-5.7863 19.0363 -0.1120 0.9235
-6.1304 14.4187 -0.0882 0.9393
-5.8888 12.5850 -0.0782 0.9459
-8.7728 14.4838 -0.0953 0.9345
-9.5062 14.5019 -0.0976 0.9330
-11.0473 14.4859 -0.1026 0.9297
-11.9497 14.5622 -0.1061 0.9274
-20.0419 21.1517 -0.1641 0.8900
-20.0769 19.7302 -0.1585 0.8935
-20.1405 17.1509 -0.1489 0.8996
-13.9735 11.0650 -0.1004 0.9312
-21.7087 14.8029 -0.1479 0.9002
-25.5933 14.8986 -0.1667 0.8883
0.9734 37.8428 -1.0659 0.8594
-0.2399 24.1591 -0.6803 0.9078
-1.1024 24.1724 -0.6813 0.9077
-3.3287 21.6570 -0.6170 0.9161
-4.2298 13.9157 -0.4095 0.9435
-4.2826 12.4733 -0.3713 0.9486
-5.9437 15.4906 -0.4672 0.9358
-5.9070 13.8931 -0.4251 0.9414
-5.8890 12.5852 -0.3912 0.9459
-7.4003 14.4500 -0.4571 0.9371
-8.7728 14.4839 -0.4768 0.9345
-9.5062 14.5020 -0.4883 0.9330
-11.0893 14.5410 -0.5149 0.9294
-11.9497 14.5622 -0.5304 0.9274
-20.0421 21.1519 -0.8205 0.8899
-20.1099 18.4007 -0.7675 0.8967
-13.9713 11.0632 -0.5018 0.9312
-20.1974 14.8537 -0.7060 0.9045
-23.5350 14.8479 -0.7836 0.8946
0.9734 37.8429 -1.9198 0.8593
-1.1023 24.1708 -1.2271 0.9076
-2.4494 20.8639 -1.0654 0.9193
-3.2022 20.8337 -1.0690 0.9190
-3.9704 20.8526 -1.0765 0.9185
-4.1510 15.6393 -0.8206 0.9372
-4.2453 13.9665 -0.7403 0.9432
-5.8891 12.5854 -0.7047 0.9459
-7.4004 14.4501 -0.8233 0.9370
-8.0721 14.4666 -0.8401 0.9358
-10.2767 14.5210 -0.9022 0.9312
-20.1101 18.4009 -1.3824 0.8966
-28.7995 14.1214 -1.6267 0.8794
-46.7090 11.5306 -2.4399 0.8247
1.8752 30.5221 -2.2422 0.8846
-0.2398 24.1560 -1.7713 0.9077
-4.1228 15.5329 -1.1783 0.9376
-5.4552 14.2175 -1.1166 0.9408
-8.0722 14.4667 -1.2147 0.9357
-8.7729 14.4839 -1.2416 0.9343
-9.5063 14.5020 -1.2714 0.9328
-10.2768 14.5210 -1.3044 0.9311
-11.0893 14.5411 -1.3408 0.9293
-11.9498 14.5623 -1.3812 0.9272
-12.8648 14.5849 -1.4260 0.9250
-19.9508 19.6063 -2.0510 0.8939
-13.9669 11.0598 -1.3063 0.9310
-20.1977 14.8540 -1.8383 0.9043
-21.7089 14.8030 -1.9266 0.9000
-23.5352 14.8480 -2.0404 0.8944
-25.5936 14.8988 -2.1714 0.8880
-26.6200 14.2512 -2.2139 0.8859
-27.5658 12.3182 -2.2138 0.8859
-28.3721 10.3230 -2.2137 0.8860
-30.3346 9.8278 -2.3380 0.8800
-32.9780 8.1410 -2.4906 0.8726
-1.8770 23.0592 -2.2211 0.9112
-3.0124 19.5987 -1.9037 0.9234
-3.7351 19.6165 -1.9171 0.9229
-4.0655 17.8620 -1.7587 0.9290
-4.2826 12.4734 -1.2661 0.9484
-5.8893 12.5858 -1.3340 0.9457
-10.2768 14.5211 -1.7079 0.9310
-11.0894 14.5411 -1.7556 0.9292
-15.8845 16.7640 -2.2172 0.9114
-17.0361 15.5882 -2.2169 0.9114
-13.8818 10.9924 -1.7000 0.9313
-19.0746 13.0067 -2.2165 0.9114
-19.5252 12.3182 -2.2164 0.9114
-19.9511 11.6142 -2.2163 0.9114
-24.9725 7.1179 -2.4930 0.9009
0.4810 18.7018 -2.2222 0.9274
-0.1857 18.7053 -2.2220 0.9274
-2.1805 18.5734 -2.2214 0.9274
-2.8407 18.4822 -2.2212 0.9274
-4.2826 12.4734 -1.5666 0.9483
-5.1955 13.5406 -1.7228 0.9433
-5.7636 13.5557 -1.7497 0.9424
-5.8894 12.5860 -1.6506 0.9456
-7.4004 14.4501 -1.9285 0.9367
-8.7729 14.4840 -2.0115 0.9341
-9.5063 14.5021 -2.0598 0.9325
-10.2768 14.5211 -2.1132 0.9308
-11.0894 14.5411 -2.1723 0.9290
-11.8484 14.4387 -2.2187 0.9275
-13.3196 13.0896 -2.2183 0.9275
-15.0419 11.0623 -2.2179 0.9275
-15.4261 10.5188 -2.2179 0.9275
-16.2293 10.2389 -2.2794 0.9256
-18.3750 8.2111 -2.3907 0.9221
-19.7354 7.1806 -2.4946 0.9189
-19.9786 6.4727 -2.4946 0.9189
-20.1965 5.7566 -2.4946 0.9189
-20.3889 5.0332 -2.4946 0.9189
-0.1557 15.6836 -2.2223 0.9386
-0.7145 15.6668 -2.2221 0.9386
-1.2722 15.6302 -2.2220 0.9386
-2.3820 15.4975 -2.2216 0.9386
-4.1709 13.7220 -2.0321 0.9437
-5.0717 13.2179 -2.0060 0.9444
-5.5459 13.0438 -2.0083 0.9443
-5.8894 12.5862 -1.9689 0.9454
-9.0500 12.7876 -2.2197 0.9387
-11.1710 10.9781 -2.2192 0.9387
-11.9237 10.1537 -2.2190 0.9387
-13.6680 9.3201 -2.3440 0.9354
-13.9911 8.8268 -2.3439 0.9354
-14.2965 8.3224 -2.3439 0.9354
-15.3137 8.1983 -2.4612 0.9322
-15.8158 7.7551 -2.4958 0.9313
-16.0820 7.1865 -2.4958 0.9313
0.8274 13.4676 -2.2228 0.9468
-0.1339 13.4904 -2.2225 0.9468
-0.6146 13.4761 -2.2224 0.9468
-1.0944 13.4448 -2.2222 0.9468
-1.5727 13.3963 -2.2221 0.9468
-2.0490 13.3309 -2.2219 0.9468
-2.9929 13.1494 -2.2216 0.9468
-3.9214 12.9012 -2.2213 0.9468
-6.1447 11.9982 -2.2207 0.9468
-6.9830 11.5289 -2.2205 0.9468
-7.3890 11.2721 -2.2204 0.9468
-8.1724 10.7162 -2.2202 0.9468
-8.5488 10.4177 -2.2201 0.9468
-9.6357 10.1693 -2.3079 0.9448
-10.1530 9.9777 -2.3451 0.9439
-10.8372 9.2285 -2.3449 0.9439
-13.0980 7.6247 -2.4967 0.9404
-14.0478 5.6859 -2.4966 0.9404
-14.2413 5.1816 -2.4966 0.9404
-14.4169 4.6708 -2.4966 0.9404
-14.7129 3.6320 -2.4966 0.9404
0.7252 11.8043 -2.2229 0.9530
0.3041 11.8219 -2.2228 0.9530
-0.1174 11.8245 -2.2227 0.9530
-0.5387 11.8121 -2.2225 0.9530
-2.2112 11.6130 -2.2220 0.9530
-3.0324 11.4247 -2.2218 0.9530
-3.8380 11.1785 -2.2215 0.9530
-5.7576 10.3185 -2.2210 0.9530
-6.1214 10.1064 -2.2209 0.9530
-7.1787 10.1434 -2.3357 0.9507
-8.2555 9.3592 -2.3457 0.9505
-8.5834 9.0588 -2.3457 0.9505
-9.6453 8.2135 -2.3812 0.9497
-10.3491 8.1950 -2.4812 0.9477
-10.9777 7.4855 -2.4974 0.9474
-11.2372 7.0894 -2.4974 0.9474
-11.7133 6.2708 -2.4973 0.9474
-12.6389 4.0948 -2.4972 0.9474
-12.7768 3.6417 -2.4972 0.9474
-2.3330 10.2501 -2.2221 0.9579
-2.6967 10.1600 -2.2220 0.9579
-3.0569 10.0569 -2.2219 0.9579
-3.8786 10.1086 -2.2886 0.9567
-4.2998 10.1130 -2.3229 0.9561
-4.7054 10.0559 -2.3468 0.9556
-5.0606 9.8814 -2.3467 0.9556
-5.4093 9.6944 -2.3466 0.9556
-5.7511 9.4951 -2.3465 0.9556
-6.4124 9.0606 -2.3463 0.9556
-6.7310 8.8260 -2.3463 0.9556
-7.7809 8.2118 -2.3913 0.9548
-8.3409 8.1968 -2.4720 0.9533
-8.9975 7.6619 -2.4980 0.9528
-9.5200 7.0013 -2.4979 0.9528
-9.9941 6.3052 -2.4978 0.9528
-10.2123 5.9449 -2.4978 0.9528
-10.7881 4.8208 -2.4977 0.9528
-11.3634 3.2389 -2.4977 0.9528
-0.0992 9.9913 -2.3483 0.9598
-0.4552 9.9809 -2.3482 0.9598
-0.8105 9.9579 -2.3481 0.9598
-1.1648 9.9222 -2.3480 0.9598
-1.8685 9.8131 -2.3477 0.9598
-2.2169 9.7398 -2.3476 0.9598
-3.2433 9.4464 -2.3473 0.9598
-3.5777 9.3244 -2.3472 0.9598
-3.9076 9.1906 -2.3471 0.9598
-4.8656 8.7201 -2.3469 0.9598
-6.2578 8.2056 -2.4253 0.9585
-6.7235 8.1934 -2.4910 0.9574
-7.0327 7.9730 -2.4986 0.9573
-7.3122 7.7171 -2.4986 0.9573
-7.8429 7.1763 -2.4985 0.9573
-8.0935 6.8921 -2.4984 0.9573
-8.9901 5.6717 -2.4982 0.9573
-9.1863 5.3477 -2.4982 0.9573
-9.9884 3.6342 -2.4981 0.9573
-10.1116 3.2760 -2.4981 0.9573
-10.3193 2.5474 -2.4981 0.9573
0.5563 9.0537 -2.3486 0.9632
0.2332 9.0674 -2.3485 0.9632
-0.4132 9.0602 -2.3483 0.9632
-0.7358 9.0393 -2.3482 0.9632
-1.0574 9.0069 -2.3481 0.9632
-1.6961 8.9080 -2.3479 0.9632
-2.0124 8.8415 -2.3478 0.9632
-2.3261 8.7639 -2.3477 0.9632
-2.9442 8.5752 -2.3475 0.9632
-3.2478 8.4646 -2.3474 0.9632
-3.8500 8.2279 -2.3520 0.9632
-4.2059 8.2125 -2.3890 0.9626
-4.5779 8.2044 -2.4326 0.9619
-5.8529 7.6748 -2.4990 0.9609
-6.1226 7.4611 -2.4990 0.9609
-6.3844 7.2380 -2.4989 0.9609
-6.6381 7.0057 -2.4989 0.9609
-6.8834 6.7645 -2.4988 0.9609
-7.1199 6.5148 -2.4987 0.9609
-7.3475 6.2568 -2.4987 0.9609
-7.7741 5.7174 -2.4986 0.9609
-7.9729 5.4366 -2.4986 0.9609
-8.9445 3.6204 -2.4984 0.9609
-9.0678 3.2993 -2.4984 0.9609
-9.1796 2.9740 -2.4984 0.9609
-9.2797 2.6450 -2.4984 0.9609
-9.3681 2.3126 -2.4984 0.9609
0.5087 8.2807 -2.3486 0.9661
-0.0826 8.2953 -2.3484 0.9661
-0.3779 8.2867 -2.3484 0.9661
-0.6729 8.2677 -2.3483 0.9661
-0.9671 8.2381 -2.3482 0.9661
-1.5645 8.2166 -2.3679 0.9658
-1.8695 8.2135 -2.3846 0.9656
-4.0249 7.8590 -2.4996 0.9640
-4.3022 7.7104 -2.4995 0.9640
-4.8402 7.3839 -2.4994 0.9640
-5.1001 7.2065 -2.4993 0.9640
-5.8397 6.6205 -2.4991 0.9640
-6.0718 6.4081 -2.4991 0.9640
-6.5126 5.9591 -2.4990 0.9640
-7.1110 5.2297 -2.4989 0.9640
-7.2927 4.9729 -2.4988 0.9640
-7.4653 4.7097 -2.4988 0.9640
-7.7816 4.1659 -2.4987 0.9640
-7.9250 3.8860 -2.4987 0.9640
-8.1816 3.3116 -2.4987 0.9640
-8.2944 3.0179 -2.4987 0.9640
-8.4882 2.4194 -2.4987 0.9640
-8.5690 2.1154 -2.4987 0.9640
0.2091 8.1284 -2.5010 0.9665
-0.0807 8.1304 -2.5009 0.9665
-0.9479 8.0745 -2.5006 0.9665
-1.2350 8.0353 -2.5005 0.9666
-1.8041 7.9263 -2.5003 0.9666
-2.0854 7.8568 -2.5002 0.9666
-2.3640 7.7772 -2.5002 0.9666
-3.1802 7.4798 -2.4999 0.9666
-3.9600 7.0970 -2.4997 0.9666
-4.2103 6.9512 -2.4996 0.9666
-4.6945 6.6333 -2.4995 0.9666
-5.5889 5.8984 -2.4993 0.9666
-6.1862 5.2679 -2.4992 0.9666
-6.7128 4.5774 -2.4990 0.9666
-6.8715 4.3352 -2.4990 0.9666
-7.0216 4.0875 -2.4990 0.9666
-7.2948 3.5769 -2.4989 0.9666
-7.3956 3.3049 -2.4915 0.9667
-7.5310 3.0482 -2.4989 0.9666
-7.8132 2.2270 -2.4989 0.9666
-7.8876 1.9471 -2.4989 0.9666
0.4614 7.5101 -2.5011 0.9688
-0.0747 7.5233 -2.5009 0.9688
-0.3427 7.5156 -2.5008 0.9688
-1.1428 7.4354 -2.5006 0.9688
-2.4425 7.1139 -2.5002 0.9688
-2.9428 6.9215 -2.5000 0.9688
-3.4281 6.6939 -2.4999 0.9688
-3.6644 6.5673 -2.4998 0.9688
-4.1227 6.2893 -2.4997 0.9688
-4.9741 5.6392 -2.4995 0.9688
-5.1718 5.4582 -2.4995 0.9688
-5.3629 5.2704 -2.4994 0.9688
-5.5473 5.0758 -2.4994 0.9688
-5.7245 4.8748 -2.4993 0.9688
-5.8945 4.6676 -2.4993 0.9688
-6.0571 4.4546 -2.4993 0.9688
-6.1935 4.2233 -2.4918 0.9689
-6.3400 3.9998 -2.4918 0.9689
-6.7305 3.3002 -2.4917 0.9689
-6.9690 2.8208 -2.4991 0.9688
-7.0651 2.5706 -2.4991 0.9688
-7.1522 2.3172 -2.4991 0.9688
-7.2991 1.8019 -2.4991 0.9688
-0.0694 6.9933 -2.5010 0.9707
-0.3186 6.9861 -2.5009 0.9707
-0.5673 6.9701 -2.5008 0.9707
-0.8154 6.9453 -2.5007 0.9707
-1.0623 6.9116 -2.5007 0.9707
-1.3079 6.8691 -2.5006 0.9707
-1.5518 6.8179 -2.5005 0.9707
-2.0334 6.6897 -2.5004 0.9707
-2.9630 6.3322 -2.5001 0.9707
-3.1867 6.2224 -2.5000 0.9707
-3.4063 6.1048 -2.5000 0.9707
-3.6217 5.9794 -2.4999 0.9707
-4.2389 5.5583 -2.4998 0.9707
-4.4342 5.4036 -2.4997 0.9707
-4.8077 5.0739 -2.4996 0.9707
-5.3215 4.5315 -2.4995 0.9707
-5.4795 4.3390 -2.4995 0.9707
-5.6306 4.1409 -2.4994 0.9707
-5.7745 3.9376 -2.4994 0.9707
-5.9111 3.7292 -2.4994 0.9707
-6.1434 3.2889 -2.4919 0.9708
-6.2752 3.0770 -2.4993 0.9707
-6.5677 2.3896 -2.4993 0.9707
-6.6487 2.1540 -2.4993 0.9707
-6.7852 1.6750 -2.4993 0.9707
0.4002 6.5144 -2.5012 0.9724
-0.0648 6.5260 -2.5010 0.9724
-0.2973 6.5194 -2.5009 0.9724
-0.5294 6.5044 -2.5009 0.9724
-1.2205 6.4102 -2.5006 0.9724
-2.3373 6.0915 -2.5003 0.9724
-2.5528 6.0042 -2.5003 0.9724
-2.9739 5.8068 -2.5001 0.9724
-3.1788 5.6971 -2.5001 0.9724
-3.3798 5.5800 -2.5000 0.9724
-4.1380 5.0427 -2.4998 0.9724
-4.3150 4.8920 -2.4998 0.9724
-4.6524 4.5721 -2.4997 0.9724
-4.8123 4.4033 -2.4997 0.9724
-5.1136 4.0492 -2.4996 0.9724
-5.2546 3.8644 -2.4996 0.9724
-5.5001 3.4699 -2.4921 0.9725
-5.8562 2.8715 -2.4995 0.9724
-5.9548 2.6610 -2.4995 0.9724
-6.2047 2.0102 -2.4994 0.9724
0.1572 6.1091 -2.5011 0.9739
-0.0607 6.1106 -2.5010 0.9739
-0.4957 6.0904 -2.5009 0.9739
-0.9282 6.0393 -2.5008 0.9739
-1.1429 6.0023 -2.5007 0.9739
-1.3560 5.9576 -2.5006 0.9739
-1.7768 5.8456 -2.5005 0.9739
-2.1885 5.7039 -2.5004 0.9739
-2.5892 5.5333 -2.5003 0.9739
-3.1647 5.2250 -2.5001 0.9739
-3.3489 5.1088 -2.5001 0.9739
-3.5287 4.9861 -2.5000 0.9739
-4.0405 4.5808 -2.4999 0.9739
-4.2011 4.4338 -2.4999 0.9739
-4.3564 4.2812 -2.4998 0.9739
-4.5062 4.1232 -2.4998 0.9739
-4.6502 3.9599 -2.4998 0.9739
-5.3844 2.8826 -2.4996 0.9739
-5.4836 2.6888 -2.4996 0.9739
-5.5760 2.4917 -2.4996 0.9739
-5.7392 2.0882 -2.4996 0.9739
-5.8733 1.6741 -2.4996 0.9739
-5.9293 1.4637 -2.4996 0.9739
0.3519 5.7283 -2.5012 0.9753
-0.2614 5.7327 -2.5010 0.9753
-0.6691 5.6992 -2.5009 0.9753
-1.2734 5.5949 -2.5007 0.9753
-1.4720 5.5458 -2.5006 0.9753
-2.2448 5.2799 -2.5004 0.9753
-2.7954 5.0098 -2.5003 0.9753
-3.1450 4.7978 -2.5002 0.9753
-3.4786 4.5615 -2.5001 0.9753
-3.6389 4.4345 -2.5000 0.9753
-3.9454 4.1639 -2.5000 0.9753
-4.2319 3.8722 -2.4999 0.9753
-4.4969 3.5609 -2.4998 0.9753
-4.6209 3.3983 -2.4998 0.9753
-4.7250 3.2219 -2.4924 0.9754
-4.8511 3.0605 -2.4998 0.9753
-4.9570 2.8857 -2.4998 0.9753
-5.3166 2.1519 -2.4997 0.9753
-5.3900 1.9611 -2.4997 0.9753
-5.5685 1.3746 -2.4997 0.9753
-0.0536 5.4030 -2.5011 0.9765
-0.4383 5.3852 -2.5010 0.9765
-0.6299 5.3661 -2.5009 0.9765
-1.5711 5.1688 -2.5006 0.9765
-1.9352 5.0435 -2.5005 0.9765
-2.4623 4.8079 -2.5004 0.9765
-2.6320 4.7170 -2.5003 0.9765
-2.7984 4.6202 -2.5003 0.9765
-3.1203 4.4089 -2.5002 0.9765
-3.5728 4.0505 -2.5001 0.9765
-3.7149 3.9206 -2.5001 0.9765
-3.8521 3.7857 -2.5000 0.9765
-3.9846 3.6459 -2.5000 0.9765
-4.1119 3.5016 -2.5000 0.9765
-4.3508 3.1997 -2.4999 0.9765
-4.5676 2.8817 -2.4999 0.9765
-4.7612 2.5490 -2.4998 0.9765
-4.8490 2.3777 -2.4998 0.9765
-4.9306 2.2033 -2.4998 0.9765
-5.0750 1.8465 -2.4998 0.9765
-5.1376 1.6645 -2.4998 0.9765
-5.2431 1.2943 -2.4998 0.9765
0.1311 5.0973 -2.5012 0.9775
-0.2322 5.0935 -2.5011 0.9775
-0.5945 5.0638 -2.5010 0.9775
-0.7745 5.0393 -2.5009 0.9775
-0.9536 5.0084 -2.5009 0.9775
-1.1314 4.9711 -2.5008 0.9775
-1.4826 4.8777 -2.5007 0.9775
-1.9946 4.6913 -2.5005 0.9775
-2.6408 4.3600 -2.5004 0.9775
-3.2333 3.9402 -2.5002 0.9775
-3.3716 3.8224 -2.5002 0.9775
-3.7602 3.4406 -2.5001 0.9775
-3.9956 3.1640 -2.5000 0.9775
-4.1058 3.0196 -2.5000 0.9775
-4.2108 2.8713 -2.5000 0.9775
-4.3104 2.7194 -2.5000 0.9775
-4.4931 2.4054 -2.4999 0.9775
-4.5759 2.2438 -2.4999 0.9775
-4.7892 1.7425 -2.4999 0.9775
-4.9012 1.3970 -2.4999 0.9775
-4.9478 1.2214 -2.4999 0.9775
0.1240 4.8198 -2.5012 0.9785
-0.5621 4.7880 -2.5010 0.9785
-0.7323 4.7649 -2.5009 0.9785
-1.0698 4.7004 -2.5008 0.9785
-1.4019 4.6121 -2.5007 0.9785
-1.7268 4.5004 -2.5006 0.9785
-2.0429 4.3658 -2.5006 0.9785
-2.3486 4.2090 -2.5005 0.9785
-2.6423 4.0309 -2.5004 0.9785
-2.7842 3.9341 -2.5004 0.9785
-2.9226 3.8324 -2.5003 0.9785
-3.1881 3.6144 -2.5003 0.9785
-3.4374 3.3780 -2.5002 0.9785
-3.6692 3.1245 -2.5001 0.9785
-3.7782 2.9918 -2.5001 0.9785
-3.9816 2.7150 -2.5001 0.9785
-4.0758 2.5714 -2.5001 0.9785
-4.1648 2.4245 -2.5000 0.9785
-4.3269 2.1216 -2.5000 0.9785
-4.4670 1.8080 -2.5000 0.9785
-4.5285 1.6477 -2.5000 0.9785
-4.6785 1.1550 -2.5000 0.9785
0.2800 4.5583 -2.5013 0.9794
-0.0453 4.5664 -2.5012 0.9794
-0.3705 4.5514 -2.5011 0.9794
-0.8541 4.4856 -2.5009 0.9794
-1.1714 4.4132 -2.5008 0.9794
-1.3279 4.3686 -2.5008 0.9794
-1.6356 4.2628 -2.5007 0.9794
-1.9350 4.1353 -2.5006 0.9794
-2.5029 3.8182 -2.5005 0.9794
-2.7684 3.6301 -2.5004 0.9794
-2.8959 3.5291 -2.5004 0.9794
-3.0198 3.4236 -2.5003 0.9794
-3.2559 3.1997 -2.5003 0.9794
-3.4755 2.9596 -2.5002 0.9794
-3.5787 2.8339 -2.5002 0.9794
-3.7714 2.5717 -2.5002 0.9794
-4.0243 2.1545 -2.5001 0.9794
-4.3898 1.2512 -2.5001 0.9794
-4.4316 1.0940 -2.5001 0.9794
0.2657 4.3242 -2.5013 0.9802
-0.0430 4.3320 -2.5012 0.9802
-0.1974 4.3276 -2.5012 0.9802
-0.3514 4.3178 -2.5011 0.9802
-0.5051 4.3024 -2.5011 0.9802
-0.6581 4.2816 -2.5010 0.9802
-1.1112 4.1867 -2.5009 0.9802
-1.2597 4.1443 -2.5008 0.9802
-1.4066 4.0967 -2.5008 0.9802
-1.6948 3.9860 -2.5007 0.9802
-1.8357 3.9231 -2.5007 0.9802
-1.9743 3.8551 -2.5006 0.9802
-2.1104 3.7822 -2.5006 0.9802
-2.3743 3.6222 -2.5005 0.9802
-2.5019 3.5352 -2.5005 0.9802
-2.7473 3.3479 -2.5004 0.9802
-2.9787 3.1437 -2.5004 0.9802
-3.2971 2.8077 -2.5003 0.9802
-3.3951 2.6884 -2.5003 0.9802
-3.5779 2.4397 -2.5002 0.9802
-3.6625 2.3106 -2.5002 0.9802
-3.7426 2.1787 -2.5002 0.9802
-3.8882 1.9065 -2.5002 0.9802
-3.9536 1.7667 -2.5002 0.9802
-4.0694 1.4806 -2.5002 0.9802
-4.2042 1.0379 -2.5002 0.9802
