ply
format ascii 1.0
element vertex 573
property float32 x
property float32 y
property float32 z
property float32 I
end_header
44.4427 -18.1121 8.4622 0.8229
44.5284 -14.5568 8.2604 0.8267
44.5700 -12.8377 8.1784 0.8283
44.6914 -7.8511 8.0010 0.8317
44.7705 -4.6219 7.9362 0.8329
44.8099 -3.0228 7.9191 0.8333
38.9075 -1.2393 6.8639 0.8538
44.8887 0.1649 7.9151 0.8333
44.9283 1.7615 7.9281 0.8331
45.0085 4.9809 7.9847 0.8320
45.0493 6.6120 8.0285 0.8312
45.1329 9.9393 8.1488 0.8289
45.1760 11.6449 8.2261 0.8274
45.2200 13.3855 8.3155 0.8257
45.2652 15.1666 8.4176 0.8237
45.3116 16.9944 8.5331 0.8216
45.3596 18.8755 8.6630 0.8191
19.5734 12.5987 4.1045 0.9098
12.6935 12.6832 3.1640 0.9297
11.8177 12.6782 3.0561 0.9320
47.5637 12.2604 7.5247 0.8197
45.2314 18.8222 7.5052 0.8202
43.8770 -14.3438 6.0113 0.8301
43.5414 -21.4651 5.2128 0.8226
43.4801 -15.9441 4.9730 0.8300
43.1796 -12.4373 4.8252 0.8346
49.3953 -3.3321 5.3162 0.8194
37.2467 0.1368 3.9996 0.8608
43.4935 -23.3966 4.1808 0.8202
43.5871 -19.5958 4.0455 0.8254
43.6754 -16.0157 3.9380 0.8297
43.6623 -14.2737 3.8886 0.8316
43.7595 -12.6043 3.8550 0.8329
43.1338 -10.7812 3.7637 0.8365
37.3688 8.2295 3.2392 0.8576
43.5407 -21.4648 3.0102 0.8232
43.5868 -19.5957 2.9634 0.8257
43.8601 -17.8747 2.9370 0.8271
45.5395 -11.3825 2.9108 0.8285
43.8600 -17.8746 1.8675 0.8273
43.7238 -16.0335 1.8363 0.8299
43.7511 -14.3027 1.8150 0.8317
45.5783 -11.3922 1.8525 0.8286
43.0660 -2.9052 1.7020 0.8413
38.8421 -1.2372 1.5324 0.8559
43.6324 20.0028 1.8926 0.8252
43.4924 -23.3961 0.8342 0.8207
43.5401 -21.4645 0.8200 0.8235
43.5862 -19.5954 0.8072 0.8260
43.8599 -17.8746 0.8000 0.8274
43.6744 -16.0154 0.7858 0.8302
43.7169 -14.2915 0.7769 0.8319
43.7585 -12.6040 0.7692 0.8335
38.8332 -1.2369 0.6563 0.8560
44.1469 18.3709 0.8077 0.8259
43.4921 -23.3959 -0.2780 0.8207
42.0847 -20.7470 -0.2642 0.8289
43.7166 -14.2915 -0.2590 0.8320
43.8074 -12.6181 -0.2567 0.8333
45.5777 -11.3921 -0.2645 0.8287
38.2397 -8.1271 -0.2201 0.8552
38.2334 -3.9470 -0.2164 0.8575
38.2179 0.1404 -0.2152 0.8582
38.2089 2.8596 -0.2157 0.8579
38.2062 4.2281 -0.2164 0.8575
38.1945 8.4113 -0.2202 0.8552
38.1800 14.3197 -0.2296 0.8495
38.1755 15.8860 -0.2328 0.8476
38.1604 19.1622 -0.2404 0.8430
38.1563 20.8886 -0.2449 0.8403
38.1522 22.6830 -0.2499 0.8373
38.1536 24.5581 -0.2555 0.8340
38.1362 28.5686 -0.2683 0.8265
43.4918 -23.3957 -1.3906 0.8207
42.0844 -20.7469 -1.3211 0.8288
42.6287 -17.3728 -1.2962 0.8318
43.6850 -16.0193 -1.3102 0.8301
43.7579 -12.6038 -1.2822 0.8334
38.2346 -5.3251 -1.0870 0.8569
38.2254 -2.5786 -1.0788 0.8579
38.2220 -1.2174 -1.0768 0.8581
38.2185 0.1404 -1.0762 0.8582
38.2151 1.4983 -1.0769 0.8581
38.1954 8.4114 -1.1013 0.8551
38.1604 19.1622 -1.2024 0.8429
38.1564 20.8886 -1.2249 0.8402
38.1545 24.5587 -1.2777 0.8340
39.3592 -24.9270 -2.3627 0.8298
40.2225 -23.5156 -2.3629 0.8298
41.0349 -22.0740 -2.3630 0.8298
41.2057 -20.3137 -2.3299 0.8319
41.2501 -18.5451 -2.2937 0.8343
41.2933 -16.8286 -2.2614 0.8364
41.3355 -15.1577 -2.2328 0.8383
42.2408 -13.8090 -2.2538 0.8369
45.2165 -11.3018 -2.3637 0.8297
38.2379 -8.1267 -1.9825 0.8551
38.2357 -6.7170 -1.9688 0.8560
38.2226 -1.2175 -1.9394 0.8580
38.2191 0.1404 -1.9383 0.8581
38.2022 5.6071 -1.9582 0.8567
38.1994 7.0004 -1.9695 0.8560
38.1962 8.4117 -1.9835 0.8550
38.1873 11.3038 -2.0197 0.8526
38.1782 14.3190 -2.0679 0.8493
38.1604 19.1622 -2.1656 0.8428
38.1523 22.6831 -2.2510 0.8371
38.1553 24.5593 -2.3012 0.8338
38.1469 26.5155 -2.3560 0.8302
35.8483 31.0609 -2.4055 0.8270
35.0135 34.9853 -2.5102 0.8202
33.7430 36.1999 -2.5097 0.8202
32.4303 37.3682 -2.5093 0.8202
29.5722 -17.2890 -2.5117 0.8716
30.1689 -16.2288 -2.5118 0.8716
31.2470 -14.0479 -2.5120 0.8716
32.1671 -11.7956 -2.5121 0.8716
32.5663 -10.6462 -2.5122 0.8716
32.9242 -9.4834 -2.5122 0.8716
33.2406 -8.3084 -2.5122 0.8716
33.5147 -7.1229 -2.5123 0.8716
33.7465 -5.9284 -2.5123 0.8716
34.1845 -2.3060 -2.5122 0.8716
34.2440 -1.0907 -2.5121 0.8716
34.1625 2.5568 -2.5119 0.8716
34.0487 3.7680 -2.5118 0.8716
33.6921 6.1743 -2.5115 0.8716
32.0608 12.0246 -2.5107 0.8717
31.6111 13.1543 -2.5105 0.8717
31.1214 14.2672 -2.5102 0.8717
28.0980 19.5306 -2.5090 0.8718
26.6351 21.4706 -2.5084 0.8718
25.8529 22.4039 -2.5082 0.8718
22.0805 -13.9840 -2.5092 0.9003
22.5639 -13.1917 -2.5093 0.9003
23.0190 -12.3826 -2.5094 0.9003
24.8473 -8.1228 -2.5097 0.9003
25.3616 -6.3391 -2.5097 0.9003
26.0033 -2.6845 -2.5097 0.9003
26.1275 -0.8322 -2.5096 0.9003
26.1195 1.0241 -2.5095 0.9003
26.0659 1.9508 -2.5094 0.9003
25.7078 4.7112 -2.5092 0.9003
25.5232 5.6208 -2.5091 0.9003
25.0574 7.4172 -2.5088 0.9003
24.7769 8.3018 -2.5087 0.9003
23.7492 10.8875 -2.5082 0.9003
22.4518 13.3485 -2.5077 0.9004
20.8999 15.6565 -2.5071 0.9004
19.7326 17.0973 -2.5066 0.9004
19.1113 17.7855 -2.5064 0.9004
18.4660 18.4512 -2.5061 0.9004
17.7975 19.0934 -2.5059 0.9004
17.1066 19.7113 -2.5057 0.9004
18.5933 -10.0019 -2.5079 0.9185
18.9372 -9.3357 -2.5080 0.9185
19.8237 -7.2694 -2.5081 0.9185
20.2901 -5.8443 -2.5082 0.9185
21.0033 -2.1683 -2.5082 0.9185
21.0544 1.5758 -2.5079 0.9185
20.8882 3.0658 -2.5078 0.9185
20.6166 4.5402 -2.5076 0.9185
20.2408 5.9914 -2.5074 0.9185
18.5102 10.1333 -2.5067 0.9185
18.1376 10.7835 -2.5065 0.9185
17.3243 12.0420 -2.5062 0.9185
16.4238 13.2393 -2.5058 0.9185
14.9194 14.9074 -2.5053 0.9186
14.9466 -9.4660 -2.5068 0.9310
15.5815 -8.3818 -2.5069 0.9310
16.1378 -7.2551 -2.5070 0.9310
16.3854 -6.6777 -2.5070 0.9310
16.6124 -6.0917 -2.5071 0.9310
17.1665 -4.2907 -2.5071 0.9310
17.4277 -3.0616 -2.5071 0.9310
17.6009 -1.8170 -2.5071 0.9310
17.6542 -1.1909 -2.5071 0.9310
17.6439 1.3205 -2.5069 0.9310
17.5854 1.9461 -2.5069 0.9310
17.4021 3.1891 -2.5067 0.9310
16.3305 6.7956 -2.5062 0.9310
16.0782 7.3709 -2.5061 0.9310
15.5131 8.4926 -2.5059 0.9310
15.2010 9.0376 -2.5057 0.9310
14.5197 10.0925 -2.5055 0.9311
14.1514 10.6011 -2.5053 0.9311
13.7652 11.0962 -2.5052 0.9311
12.1531 11.3100 -2.3523 0.9351
11.7430 11.7336 -2.3521 0.9351
12.8516 -8.1392 -2.5060 0.9402
13.1329 -7.6779 -2.5061 0.9402
13.6452 -6.7268 -2.5062 0.9402
13.8756 -6.2382 -2.5062 0.9402
14.0886 -5.7416 -2.5063 0.9402
14.2837 -5.2378 -2.5063 0.9402
14.4608 -4.7274 -2.5063 0.9402
14.7600 -3.6892 -2.5064 0.9402
15.1336 -1.5623 -2.5063 0.9402
15.1794 -1.0240 -2.5063 0.9402
15.2135 0.0559 -2.5063 0.9402
15.2017 0.5960 -2.5062 0.9402
15.1707 1.1354 -2.5062 0.9402
15.1205 1.6733 -2.5061 0.9402
14.8558 3.2716 -2.5060 0.9402
14.5853 4.3174 -2.5058 0.9402
14.2412 5.3412 -2.5057 0.9402
14.0420 5.8433 -2.5056 0.9402
13.8252 6.3379 -2.5055 0.9402
12.4855 8.6785 -2.5049 0.9402
12.1689 9.1159 -2.5048 0.9402
11.8369 9.5418 -2.5047 0.9402
11.4900 9.9555 -2.5045 0.9402
10.4508 9.7258 -2.3518 0.9438
9.9632 9.9552 -2.3202 0.9445
8.8559 10.2044 -2.2259 0.9467
11.7396 -6.3151 -2.5056 0.9472
11.9567 -5.8944 -2.5056 0.9472
12.3452 -5.0311 -2.5057 0.9472
12.5162 -4.5896 -2.5057 0.9472
12.6713 -4.1424 -2.5057 0.9472
12.8105 -3.6899 -2.5058 0.9472
12.9335 -3.2327 -2.5058 0.9472
13.0401 -2.7714 -2.5058 0.9472
13.1304 -2.3066 -2.5058 0.9472
13.3244 -0.4244 -2.5057 0.9472
13.1888 1.9358 -2.5055 0.9472
12.9073 3.3271 -2.5054 0.9472
12.7807 3.7832 -2.5053 0.9472
12.3048 5.1204 -2.5051 0.9472
12.1148 5.5539 -2.5050 0.9472
11.9096 5.9804 -2.5049 0.9472
11.6893 6.3992 -2.5048 0.9472
11.2048 7.2121 -2.5046 0.9472
10.3730 8.3617 -2.5043 0.9472
10.0691 8.7243 -2.5042 0.9472
9.1584 8.5230 -2.3515 0.9504
8.8496 8.8424 -2.3514 0.9504
10.2311 -5.9815 -2.5051 0.9527
10.4372 -5.6145 -2.5052 0.9527
10.9754 -4.4729 -2.5053 0.9527
11.2654 -3.6828 -2.5053 0.9527
11.3892 -3.2805 -2.5053 0.9527
11.4985 -2.8740 -2.5053 0.9527
11.6735 -2.0507 -2.5053 0.9527
11.8460 -0.3773 -2.5053 0.9527
11.8427 0.4643 -2.5052 0.9527
11.8186 0.8845 -2.5052 0.9527
11.7795 1.3036 -2.5051 0.9527
11.6569 2.1362 -2.5051 0.9527
11.5735 2.5487 -2.5050 0.9527
11.4754 2.9580 -2.5050 0.9527
11.3629 3.3635 -2.5049 0.9527
11.0950 4.1613 -2.5048 0.9527
10.1839 6.0547 -2.5044 0.9527
9.9621 6.4122 -2.5043 0.9527
9.2227 7.4344 -2.5040 0.9527
8.6711 8.0695 -2.5038 0.9527
7.6586 8.2162 -2.3742 0.9551
9.3859 -5.0490 -2.5048 0.9572
9.7208 -4.3702 -2.5049 0.9572
10.1307 -3.3118 -2.5049 0.9572
10.5564 -1.4702 -2.5049 0.9572
10.6020 -1.0945 -2.5049 0.9572
10.6341 -0.7173 -2.5049 0.9572
10.6580 0.0392 -2.5049 0.9572
10.6498 0.4176 -2.5049 0.9572
10.5446 1.5477 -2.5048 0.9572
10.4828 1.9211 -2.5047 0.9572
10.3196 2.6601 -2.5046 0.9572
10.2185 3.0247 -2.5046 0.9572
9.9775 3.7421 -2.5045 0.9572
9.8381 4.0940 -2.5044 0.9572
9.6863 4.4406 -2.5043 0.9572
9.5222 4.7816 -2.5043 0.9572
8.7483 6.0808 -2.5039 0.9572
7.7981 7.2571 -2.5036 0.9572
7.2628 7.7916 -2.5034 0.9572
6.9813 8.0443 -2.5033 0.9572
8.1718 -5.1754 -2.5044 0.9608
8.8227 -3.9664 -2.5046 0.9608
8.9580 -3.6507 -2.5046 0.9608
9.0821 -3.3304 -2.5046 0.9608
9.2956 -2.6775 -2.5046 0.9608
9.4622 -2.0110 -2.5046 0.9608
9.5276 -1.6737 -2.5046 0.9608
9.5811 -1.3344 -2.5046 0.9608
9.6223 -0.9934 -2.5046 0.9608
9.6685 -0.3079 -2.5046 0.9608
9.6732 0.0355 -2.5046 0.9608
9.6143 1.0640 -2.5045 0.9608
9.5704 1.4047 -2.5045 0.9608
9.4462 2.0803 -2.5044 0.9608
9.3663 2.4143 -2.5043 0.9608
9.1709 3.0728 -2.5043 0.9608
8.7916 4.0304 -2.5041 0.9608
8.4829 4.6439 -2.5039 0.9608
8.3124 4.9421 -2.5039 0.9608
7.9402 5.5192 -2.5037 0.9608
7.3076 6.3317 -2.5035 0.9608
6.5921 7.0721 -2.5032 0.9608
7.4732 -4.7329 -2.5042 0.9639
7.7905 -4.1907 -2.5043 0.9639
8.0684 -3.6274 -2.5043 0.9639
8.4085 -2.7488 -2.5044 0.9639
8.5009 -2.4486 -2.5044 0.9639
8.6533 -1.8391 -2.5044 0.9639
8.7131 -1.5307 -2.5044 0.9639
8.7620 -1.2203 -2.5044 0.9639
8.7997 -0.9084 -2.5044 0.9639
8.8264 -0.5954 -2.5044 0.9639
8.8419 -0.2816 -2.5044 0.9639
8.8463 0.0325 -2.5043 0.9639
8.7522 1.2846 -2.5042 0.9639
8.7010 1.5945 -2.5042 0.9639
8.6388 1.9024 -2.5042 0.9639
8.4816 2.5106 -2.5041 0.9639
8.3870 2.8102 -2.5040 0.9639
8.2818 3.1061 -2.5040 0.9639
8.1661 3.3982 -2.5039 0.9639
8.0401 3.6859 -2.5039 0.9639
7.7579 4.2470 -2.5038 0.9639
7.4365 4.7866 -2.5036 0.9639
7.2617 5.0475 -2.5036 0.9639
6.6831 5.7906 -2.5033 0.9639
6.4731 6.0241 -2.5033 0.9639
6.8777 -4.3558 -2.5040 0.9665
7.0282 -4.1089 -2.5040 0.9665
7.8235 -2.2534 -2.5042 0.9665
7.8986 -1.9742 -2.5042 0.9665
7.9637 -1.6925 -2.5042 0.9665
8.0638 -1.1231 -2.5042 0.9665
8.1186 0.6076 -2.5041 0.9665
8.0918 0.8955 -2.5041 0.9665
7.9504 1.7509 -2.5040 0.9665
7.8831 2.0320 -2.5039 0.9665
7.8059 2.3106 -2.5039 0.9665
7.7188 2.5863 -2.5038 0.9665
7.5155 3.1274 -2.5037 0.9665
7.2743 3.6528 -2.5036 0.9665
7.1398 3.9086 -2.5036 0.9665
6.9964 4.1596 -2.5035 0.9665
6.8441 4.4053 -2.5035 0.9665
6.6832 4.6454 -2.5034 0.9665
6.3363 5.1077 -2.5033 0.9665
6.1508 5.3294 -2.5032 0.9665
5.5487 5.9527 -2.5030 0.9665
5.3337 6.1458 -2.5029 0.9665
6.5028 -3.8017 -2.5039 0.9687
6.6337 -3.5685 -2.5039 0.9687
6.8704 -3.0887 -2.5039 0.9687
6.9758 -2.8429 -2.5039 0.9687
7.3081 -1.8266 -2.5040 0.9687
7.3684 -1.5660 -2.5040 0.9687
7.4193 -1.3034 -2.5040 0.9687
7.4609 -1.0391 -2.5040 0.9687
7.4931 -0.7735 -2.5040 0.9687
7.5158 -0.5070 -2.5040 0.9687
7.5291 -0.2398 -2.5040 0.9687
7.5117 0.5622 -2.5039 0.9687
7.4869 0.8286 -2.5039 0.9687
7.4527 1.0938 -2.5038 0.9687
7.4091 1.3578 -2.5038 0.9687
7.3561 1.6200 -2.5038 0.9687
7.2224 2.1379 -2.5037 0.9687
7.1418 2.3929 -2.5037 0.9687
7.0522 2.6450 -2.5036 0.9688
6.8464 3.1387 -2.5035 0.9688
6.4735 3.8487 -2.5034 0.9688
6.3326 4.0760 -2.5033 0.9688
6.1837 4.2982 -2.5033 0.9688
5.8628 4.7260 -2.5031 0.9688
5.3266 5.3223 -2.5029 0.9688
6.0441 -3.5336 -2.5037 0.9707
6.1658 -3.3168 -2.5037 0.9707
6.4837 -2.6424 -2.5038 0.9707
6.5735 -2.4105 -2.5038 0.9707
6.9347 -0.9658 -2.5038 0.9707
6.9646 -0.7190 -2.5038 0.9707
7.0015 0.0257 -2.5038 0.9707
6.9961 0.2743 -2.5038 0.9707
6.9819 0.5225 -2.5037 0.9707
6.9271 1.0167 -2.5037 0.9707
6.8865 1.2620 -2.5037 0.9707
6.8373 1.5057 -2.5036 0.9707
6.7130 1.9871 -2.5036 0.9707
6.6381 2.2242 -2.5035 0.9707
6.5548 2.4584 -2.5035 0.9707
6.4633 2.6896 -2.5035 0.9707
6.1403 3.3615 -2.5033 0.9707
5.7477 3.9951 -2.5032 0.9707
5.6021 4.1966 -2.5031 0.9707
5.4494 4.3928 -2.5030 0.9707
4.7721 5.1195 -2.5028 0.9707
5.7534 -3.0950 -2.5036 0.9724
5.8598 -2.8887 -2.5036 0.9724
6.1338 -2.2493 -2.5036 0.9724
6.3383 -1.5842 -2.5037 0.9724
6.3906 -1.3582 -2.5037 0.9724
6.4348 -1.1304 -2.5037 0.9724
6.4709 -0.9012 -2.5037 0.9724
6.5185 -0.4397 -2.5037 0.9724
6.5299 -0.2080 -2.5036 0.9724
6.5331 0.0240 -2.5036 0.9724
6.4934 0.7186 -2.5036 0.9724
6.2640 1.8542 -2.5034 0.9724
6.0311 2.5097 -2.5033 0.9724
5.9381 2.7222 -2.5033 0.9724
5.8376 2.9313 -2.5032 0.9724
5.7297 3.1367 -2.5032 0.9724
5.6146 3.3381 -2.5032 0.9724
5.4924 3.5353 -2.5031 0.9724
5.3633 3.7280 -2.5031 0.9724
5.2275 3.9160 -2.5030 0.9724
4.9362 4.2769 -2.5029 0.9724
4.6200 4.6162 -2.5028 0.9724
4.4530 4.7772 -2.5027 0.9724
4.2805 4.9322 -2.5027 0.9724
5.2806 -3.0872 -2.5034 0.9739
5.3869 -2.8978 -2.5035 0.9739
5.5790 -2.5082 -2.5035 0.9739
5.7430 -2.1060 -2.5035 0.9739
5.8142 -1.9007 -2.5035 0.9739
5.9345 -1.4833 -2.5035 0.9739
6.0248 -1.0584 -2.5035 0.9739
6.0586 -0.8438 -2.5035 0.9739
6.0847 -0.6281 -2.5035 0.9739
6.0998 0.4565 -2.5035 0.9739
6.0797 0.6728 -2.5035 0.9739
6.0520 0.8883 -2.5034 0.9739
6.0165 1.1026 -2.5034 0.9739
5.9735 1.3155 -2.5034 0.9739
5.6469 2.3498 -2.5032 0.9739
5.4657 2.7446 -2.5031 0.9739
5.3647 2.9369 -2.5031 0.9739
5.2569 3.1254 -2.5031 0.9739
5.1425 3.3101 -2.5030 0.9739
5.0217 3.4905 -2.5030 0.9739
4.7611 3.8379 -2.5029 0.9739
4.6217 4.0045 -2.5028 0.9739
4.4765 4.1660 -2.5028 0.9739
4.0079 4.6181 -2.5026 0.9739
4.9587 -2.8990 -2.5033 0.9752
5.3194 -2.1679 -2.5034 0.9752
5.3930 -1.9776 -2.5034 0.9752
5.5198 -1.5899 -2.5034 0.9752
5.5728 -1.3929 -2.5034 0.9752
5.6188 -1.1941 -2.5034 0.9752
5.6576 -0.9939 -2.5034 0.9752
5.7312 -0.3866 -2.5034 0.9752
5.7413 -0.1829 -2.5034 0.9752
5.7442 0.0211 -2.5034 0.9752
5.7397 0.2250 -2.5034 0.9752
5.7281 0.4287 -2.5034 0.9752
5.6831 0.8341 -2.5033 0.9752
5.5621 1.4337 -2.5033 0.9752
5.5076 1.6303 -2.5032 0.9752
5.3028 2.2066 -2.5031 0.9753
5.0378 2.7579 -2.5030 0.9753
4.9366 2.9350 -2.5030 0.9753
4.7157 3.2778 -2.5029 0.9753
4.5963 3.4431 -2.5028 0.9753
4.4710 3.6041 -2.5028 0.9753
4.2038 3.9122 -2.5027 0.9753
4.7626 -2.5619 -2.5033 0.9764
4.9325 -2.2175 -2.5033 0.9764
5.2467 -1.3114 -2.5033 0.9764
5.3265 -0.9357 -2.5033 0.9764
5.3795 -0.5553 -2.5033 0.9764
5.3959 -0.3640 -2.5033 0.9764
5.4053 -0.1722 -2.5033 0.9764
5.4080 0.0199 -2.5033 0.9764
5.3929 0.4036 -2.5033 0.9764
5.3193 0.9748 -2.5032 0.9764
5.2366 1.3498 -2.5032 0.9764
5.1854 1.5349 -2.5031 0.9764
4.9925 2.0775 -2.5030 0.9764
4.9155 2.2535 -2.5030 0.9764
4.8323 2.4265 -2.5030 0.9764
4.7430 2.5966 -2.5029 0.9764
3.8245 3.8214 -2.5026 0.9765
4.3111 -2.7303 -2.5031 0.9775
4.4941 -2.4175 -2.5032 0.9775
4.5771 -2.2564 -2.5032 0.9775
4.6544 -2.0925 -2.5032 0.9775
4.7912 -1.7569 -2.5032 0.9775
4.8506 -1.5857 -2.5032 0.9775
4.9917 -1.0609 -2.5032 0.9775
5.0544 -0.7039 -2.5032 0.9775
5.1006 -0.1625 -2.5032 0.9775
5.1031 0.0187 -2.5032 0.9775
5.0489 0.7411 -2.5031 0.9775
5.0194 0.9198 -2.5031 0.9775
4.9835 1.0975 -2.5031 0.9775
4.9414 1.2737 -2.5031 0.9775
4.8930 1.4484 -2.5030 0.9775
4.8384 1.6212 -2.5030 0.9775
4.7778 1.7919 -2.5030 0.9775
4.7111 1.9604 -2.5030 0.9775
4.6384 2.1264 -2.5029 0.9775
4.5599 2.2898 -2.5029 0.9775
3.7348 3.4757 -2.5026 0.9775
3.6090 3.6061 -2.5025 0.9775
4.0762 -2.5815 -2.5030 0.9785
4.2492 -2.2858 -2.5031 0.9785
4.4682 -1.8210 -2.5031 0.9785
4.5862 -1.4993 -2.5031 0.9785
4.6366 -1.3355 -2.5031 0.9785
4.6811 -1.1700 -2.5031 0.9785
4.7523 -0.8349 -2.5031 0.9785
4.7996 -0.4955 -2.5031 0.9785
4.8213 0.1890 -2.5031 0.9785
4.7459 0.8697 -2.5030 0.9785
4.7119 1.0377 -2.5030 0.9785
4.6263 1.3694 -2.5030 0.9785
4.4543 1.8536 -2.5029 0.9785
4.3856 2.0105 -2.5029 0.9785
4.3114 2.1650 -2.5028 0.9785
4.1468 2.4654 -2.5028 0.9785
4.0566 2.6111 -2.5027 0.9785
3.8609 2.8923 -2.5026 0.9785
3.5313 3.2863 -2.5025 0.9785
3.2891 3.5285 -2.5024 0.9785
3.8608 -2.4451 -2.5030 0.9794
3.9452 -2.3065 -2.5030 0.9794
4.0247 -2.1650 -2.5030 0.9794
4.2907 -1.5734 -2.5030 0.9794
4.3439 -1.4200 -2.5031 0.9794
4.3916 -1.2649 -2.5031 0.9794
4.4338 -1.1082 -2.5031 0.9794
4.4703 -0.9501 -2.5031 0.9794
4.5597 -0.3076 -2.5031 0.9794
4.5678 -0.1455 -2.5030 0.9794
4.5701 0.0168 -2.5030 0.9794
4.5573 0.3411 -2.5030 0.9794
4.5423 0.5027 -2.5030 0.9794
4.5216 0.6637 -2.5030 0.9794
4.2787 1.6048 -2.5029 0.9794
4.2190 1.7556 -2.5028 0.9794
4.1539 1.9043 -2.5028 0.9794
4.0837 2.0506 -2.5028 0.9794
4.0082 2.1943 -2.5027 0.9794
3.8423 2.4731 -2.5027 0.9794
3.7520 2.6080 -2.5026 0.9794
3.6570 2.7395 -2.5026 0.9794
3.5573 2.8676 -2.5026 0.9794
3.3447 3.1127 -2.5025 0.9794
2.9946 3.4506 -2.5024 0.9794
3.6625 -2.3195 -2.5029 0.9802
3.7425 -2.1880 -2.5029 0.9802
3.8179 -2.0538 -2.5029 0.9802
4.0703 -1.4925 -2.5030 0.9802
4.1207 -1.3471 -2.5030 0.9802
4.1660 -1.1999 -2.5030 0.9802
4.2406 -0.9013 -2.5030 0.9802
4.2700 -0.7501 -2.5030 0.9802
4.2939 -0.5980 -2.5030 0.9802
4.3124 -0.4452 -2.5030 0.9802
4.3331 -0.1380 -2.5030 0.9802
4.3353 0.0159 -2.5030 0.9802
4.3320 0.1698 -2.5030 0.9802
4.3232 0.3236 -2.5029 0.9802
4.2642 0.7814 -2.5029 0.9802
4.2337 0.9324 -2.5029 0.9802
4.1979 1.0821 -2.5029 0.9802
4.0589 1.5223 -2.5028 0.9802
4.0023 1.6655 -2.5028 0.9802
3.8739 1.9453 -2.5027 0.9802
3.6449 2.3461 -2.5026 0.9802
3.5593 2.4740 -2.5026 0.9802
3.2759 2.8384 -2.5025 0.9802
3.1729 2.9528 -2.5024 0.9802
3.0660 3.0636 -2.5024 0.9802
2.9553 3.1705 -2.5024 0.9802
