ply
format ascii 1.0
element vertex 486
property float32 x
property float32 y
property float32 z
property float32 I
end_header
-21.2710 19.1875 5.0511 0.8902
-15.1989 10.9597 3.3041 0.9267
-22.1611 14.7848 4.6974 0.8974
-21.3041 17.8549 4.2583 0.8936
-21.3351 16.5974 4.1410 0.8964
-22.1611 14.7848 4.0811 0.8978
-21.3157 19.2278 3.7382 0.8907
-21.3043 17.8551 3.6198 0.8939
-15.1964 10.9579 2.4397 0.9272
-22.1612 14.7848 3.4691 0.8981
-24.0874 14.8323 3.6837 0.8922
-30.1597 3.4870 3.9536 0.8847
-30.1752 2.3798 3.9416 0.8851
-30.2233 0.1783 3.9358 0.8852
-21.2063 19.1291 3.0667 0.8915
-21.2104 17.7764 2.9717 0.8946
-21.3355 16.5976 2.9027 0.8970
-15.1951 10.9570 2.0116 0.9274
-30.0662 8.0213 3.3415 0.8823
-21.3046 17.8554 2.3531 0.8944
-21.3357 16.5978 2.2883 0.8972
-15.1939 10.9561 1.5857 0.9276
-22.1612 14.7848 2.2552 0.8986
-24.0875 14.8323 2.3946 0.8927
-26.2708 14.8862 2.5561 0.8858
-21.2719 19.1883 1.7764 0.8915
-21.3048 17.8555 1.7237 0.8946
-21.3358 16.5979 1.6762 0.8973
-21.3164 19.2285 1.1320 0.8914
-21.3360 16.5980 1.0659 0.8974
-22.1613 14.7849 1.0505 0.8988
-24.0876 14.8324 1.1154 0.8929
-22.1613 14.7849 0.4500 0.8989
-24.0876 14.8324 0.4778 0.8930
-30.5384 13.1397 0.5616 0.8755
-21.2725 19.1888 -0.1613 0.8917
-21.3054 17.8560 -0.1565 0.8948
-26.2710 14.8863 -0.1700 0.8862
-22.1614 14.7850 -0.7501 0.8989
-28.8075 14.9656 -0.9141 0.8782
-26.1515 -15.6808 -0.8586 0.8851
-21.2729 19.1892 -1.4529 0.8916
-21.3057 17.8563 -1.4098 0.8946
-21.3367 16.5986 -1.3709 0.8974
-15.1865 10.9508 -0.9495 0.9278
-22.1615 14.7850 -1.3511 0.8988
-26.2711 14.8863 -1.5313 0.8861
-28.6315 13.5746 -1.6070 0.8808
-39.1826 16.8590 -2.1632 0.8430
-40.9728 15.8882 -2.2287 0.8386
-42.6814 14.7875 -2.2908 0.8345
-44.3461 13.5779 -2.3520 0.8305
-29.0045 5.5153 -1.4973 0.8885
-29.0307 4.4324 -1.4893 0.8890
-48.7271 5.6337 -2.4876 0.8216
-49.0447 0.2893 -2.4873 0.8217
-48.9373 -3.2791 -2.4874 0.8217
-48.7882 -5.0582 -2.4875 0.8216
-47.9556 -10.3476 -2.4880 0.8216
-47.5512 -12.0870 -2.4882 0.8216
-47.0839 -13.8108 -2.4884 0.8216
-45.3121 -18.8660 -2.4892 0.8215
-26.1517 -15.6810 -1.5464 0.8850
-21.2730 19.1893 -2.1006 0.8915
-15.1853 10.9499 -1.3727 0.9277
-26.2711 14.8864 -2.2140 0.8859
-26.8104 13.9281 -2.2152 0.8859
-27.2983 12.9426 -2.2151 0.8859
-30.5188 9.3443 -2.3402 0.8798
-32.8378 8.7608 -2.4920 0.8726
-33.1314 7.5590 -2.4917 0.8726
-28.6107 5.4405 -2.1354 0.8898
-28.6649 4.3765 -2.1261 0.8902
-33.7584 3.9030 -2.4917 0.8726
-33.6553 -4.7328 -2.4920 0.8726
-33.4624 -5.9548 -2.4921 0.8726
-33.2251 -7.1691 -2.4922 0.8726
-32.9440 -8.3740 -2.4923 0.8726
-32.6194 -9.5680 -2.4925 0.8725
-32.2517 -10.7496 -2.4927 0.8725
-31.8414 -11.9171 -2.4928 0.8725
-31.3889 -13.0690 -2.4930 0.8725
-30.8950 -14.2038 -2.4932 0.8725
-30.3602 -15.3201 -2.4934 0.8725
-17.1549 15.4746 -2.2180 0.9113
-17.7057 14.8391 -2.2179 0.9113
-18.2330 14.1841 -2.2178 0.9114
-15.0589 10.8588 -1.7824 0.9281
-19.2145 12.8190 -2.2175 0.9114
-20.4946 10.6470 -2.2173 0.9114
-21.6909 10.2840 -2.3046 0.9080
-22.4103 9.6425 -2.3422 0.9066
-22.7458 8.8202 -2.3421 0.9066
-25.3263 5.7783 -2.4939 0.9009
-25.5196 4.8527 -2.4939 0.9009
-25.6793 3.9207 -2.4939 0.9009
-25.8051 2.9835 -2.4939 0.9009
-25.9542 1.0986 -2.4940 0.9009
-25.9208 -1.7368 -2.4941 0.9009
-25.8411 -2.6791 -2.4942 0.9009
-25.7273 -3.6179 -2.4943 0.9009
-25.3978 -5.4802 -2.4944 0.9009
-25.1827 -6.4012 -2.4945 0.9009
-24.9342 -7.3138 -2.4947 0.9008
-24.6527 -8.2168 -2.4948 0.9008
-24.3387 -9.1091 -2.4949 0.9008
-23.6144 -10.8566 -2.4952 0.9008
-23.2051 -11.7096 -2.4954 0.9008
-22.7651 -12.5472 -2.4955 0.9008
-14.9491 10.7796 -2.1893 0.9284
-15.5379 10.3661 -2.2187 0.9275
-17.1665 9.7273 -2.3438 0.9236
-17.8275 8.4523 -2.3436 0.9236
-20.0875 6.1504 -2.4955 0.9189
-20.2978 5.4152 -2.4954 0.9189
-20.9426 1.6517 -2.4954 0.9189
-20.9890 0.8884 -2.4954 0.9189
-21.0077 0.1239 -2.4955 0.9189
-20.6854 -3.6811 -2.4957 0.9188
-20.5384 -4.4316 -2.4958 0.9188
-20.1631 -5.9143 -2.4960 0.9188
-19.9353 -6.6445 -2.4961 0.9188
-19.4009 -8.0777 -2.4963 0.9188
-18.4078 -10.1457 -2.4967 0.9188
-18.0274 -10.8095 -2.4969 0.9188
-11.6335 10.4940 -2.2199 0.9387
-13.4234 9.6794 -2.3449 0.9353
-13.7663 9.1842 -2.3448 0.9353
-14.0910 8.6769 -2.3447 0.9353
-14.5011 8.2170 -2.3616 0.9349
-15.9215 7.5487 -2.4966 0.9313
-16.4278 6.3703 -2.4965 0.9313
-16.6485 5.7681 -2.4965 0.9313
-17.0237 4.5417 -2.4964 0.9313
-17.1776 3.9191 -2.4964 0.9313
-17.4171 2.6592 -2.4964 0.9313
-17.5023 2.0236 -2.4964 0.9313
-17.5645 1.3853 -2.4964 0.9313
-17.6034 0.7451 -2.4964 0.9313
-17.5804 -1.1780 -2.4965 0.9313
-17.4488 -2.4538 -2.4966 0.9313
-16.9100 -4.9601 -2.4969 0.9313
-16.7189 -5.5724 -2.4970 0.9313
-16.5056 -6.1774 -2.4971 0.9313
-15.7359 -7.9406 -2.4974 0.9313
-15.4372 -8.5084 -2.4975 0.9313
-10.5729 9.5373 -2.3457 0.9439
-10.9126 9.1459 -2.3456 0.9439
-11.2379 8.7424 -2.3455 0.9439
-12.2963 8.2035 -2.4351 0.9418
-12.9091 7.9491 -2.4975 0.9404
-13.4525 6.9887 -2.4974 0.9404
-14.4942 4.4379 -2.4972 0.9404
-14.8913 2.8317 -2.4971 0.9404
-15.1113 1.1918 -2.4972 0.9404
-15.1448 0.6410 -2.4972 0.9404
-15.1582 0.0894 -2.4972 0.9404
-15.1516 -0.4623 -2.4972 0.9404
-15.1249 -1.0134 -2.4973 0.9404
-15.0783 -1.5633 -2.4973 0.9404
-14.5479 -4.2672 -2.4976 0.9404
-14.3834 -4.7940 -2.4977 0.9404
-14.1998 -5.3145 -2.4977 0.9404
-13.9974 -5.8279 -2.4978 0.9404
-13.7766 -6.3337 -2.4979 0.9404
-13.2411 -7.2979 -2.4907 0.9405
-13.0057 -7.7984 -2.4982 0.9404
-10.7803 7.7735 -2.4981 0.9473
-11.0557 7.3759 -2.4981 0.9473
-11.7930 6.1266 -2.4979 0.9473
-12.0080 5.6932 -2.4979 0.9473
-12.3900 4.8045 -2.4978 0.9474
-12.5565 4.3504 -2.4978 0.9474
-12.7063 3.8905 -2.4977 0.9474
-13.2005 1.5262 -2.4977 0.9474
-13.2473 1.0448 -2.4977 0.9474
-13.2884 0.0784 -2.4978 0.9474
-13.2592 -0.8884 -2.4978 0.9474
-13.2183 -1.3704 -2.4978 0.9473
-12.9909 -2.8031 -2.4980 0.9473
-12.7531 -3.7408 -2.4981 0.9473
-12.0768 -5.5522 -2.4984 0.9473
-11.8671 -5.9883 -2.4985 0.9473
-11.6417 -6.4164 -2.4985 0.9473
-9.0596 7.5928 -2.4986 0.9528
-10.0644 6.1974 -2.4984 0.9528
-10.2831 5.8269 -2.4984 0.9528
-10.4882 5.4487 -2.4983 0.9528
-11.0191 4.2730 -2.4982 0.9528
-11.1672 3.8691 -2.4982 0.9528
-11.6102 2.2078 -2.4981 0.9528
-11.6829 1.7837 -2.4981 0.9528
-11.7400 1.3574 -2.4981 0.9528
-11.7817 0.9292 -2.4982 0.9528
-11.8182 0.0697 -2.4982 0.9528
-11.7922 -0.7901 -2.4982 0.9528
-11.7558 -1.2188 -2.4983 0.9528
-11.6364 -2.0708 -2.4983 0.9528
-11.5535 -2.4929 -2.4984 0.9528
-11.4553 -2.9118 -2.4984 0.9528
-10.9126 -4.5435 -2.4987 0.9528
-7.8954 7.1221 -2.4990 0.9572
-8.1492 6.8298 -2.4989 0.9573
-8.8444 5.9006 -2.4988 0.9573
-9.0531 5.5747 -2.4987 0.9573
-9.2499 5.2414 -2.4987 0.9573
-9.6064 4.5546 -2.4986 0.9573
-9.9120 3.8436 -2.4986 0.9573
-10.0452 3.4803 -2.4985 0.9573
-10.1651 3.1124 -2.4985 0.9573
-10.4437 1.9859 -2.4985 0.9573
-10.5090 1.6045 -2.4985 0.9573
-10.5605 1.2210 -2.4985 0.9573
-10.5980 0.8358 -2.4985 0.9573
-10.6308 0.0627 -2.4985 0.9573
-10.6261 -0.3242 -2.4986 0.9573
-10.5746 -1.0963 -2.4986 0.9573
-10.2023 -2.9926 -2.4988 0.9573
-10.0869 -3.3620 -2.4989 0.9573
-9.9580 -3.7269 -2.4989 0.9573
-9.1201 -5.4686 -2.4992 0.9572
-7.6184 5.9267 -2.4991 0.9609
-7.8289 5.6454 -2.4991 0.9609
-8.0291 5.3566 -2.4991 0.9609
-8.3972 4.7582 -2.4990 0.9609
-8.5646 4.4494 -2.4989 0.9609
-8.8654 3.8145 -2.4989 0.9609
-8.9983 3.4893 -2.4989 0.9609
-9.1032 3.1539 -2.4944 0.9610
-9.2281 2.8255 -2.4988 0.9609
-9.4091 2.1467 -2.4988 0.9609
-9.5403 1.4566 -2.4988 0.9609
-9.5870 1.1084 -2.4988 0.9609
-9.6423 0.4081 -2.4988 0.9609
-9.6296 -0.6452 -2.4989 0.9609
-9.5998 -0.9953 -2.4989 0.9609
-9.5573 -1.3440 -2.4989 0.9609
-9.5022 -1.6910 -2.4990 0.9609
-9.4345 -2.0357 -2.4990 0.9609
-9.3543 -2.3777 -2.4990 0.9609
-9.1569 -3.0520 -2.4991 0.9609
-9.0399 -3.3833 -2.4992 0.9609
-8.9110 -3.7102 -2.4992 0.9609
-8.4542 -4.6596 -2.4994 0.9609
-6.5559 5.9138 -2.4995 0.9640
-6.7667 5.6712 -2.4994 0.9640
-6.9684 5.4210 -2.4994 0.9640
-7.4952 4.6153 -2.4918 0.9641
-7.6581 4.3394 -2.4918 0.9641
-7.9768 3.7820 -2.4991 0.9640
-8.2063 3.1822 -2.4917 0.9641
-8.3413 2.8900 -2.4991 0.9640
-8.4409 2.5845 -2.4991 0.9640
-8.5293 2.2755 -2.4991 0.9640
-8.7264 1.3324 -2.4990 0.9640
-8.8197 0.3733 -2.4991 0.9640
-8.8275 0.0521 -2.4991 0.9640
-8.8236 -0.2692 -2.4991 0.9640
-8.7420 -1.2293 -2.4992 0.9640
-8.5563 -2.1749 -2.4993 0.9640
-8.1507 -3.3936 -2.4994 0.9640
-7.8826 -3.9777 -2.4995 0.9640
-6.2285 5.2201 -2.4996 0.9666
-6.4142 4.9899 -2.4995 0.9666
-6.7599 4.5099 -2.4995 0.9666
-6.9195 4.2608 -2.4994 0.9666
-7.0699 4.0061 -2.4994 0.9666
-7.3424 3.4812 -2.4993 0.9666
-7.4421 3.2021 -2.4919 0.9667
-7.5761 2.9378 -2.4993 0.9666
-7.6779 2.6601 -2.4993 0.9666
-8.0324 1.2264 -2.4992 0.9666
-8.0718 0.9333 -2.4992 0.9666
-8.0764 0.6370 -2.4919 0.9667
-8.0943 0.3426 -2.4919 0.9667
-8.1255 0.0480 -2.4993 0.9666
-7.8757 -2.0019 -2.4994 0.9666
-7.7978 -2.2873 -2.4995 0.9666
-7.7094 -2.5696 -2.4995 0.9666
-7.6110 -2.8485 -2.4996 0.9666
-7.5024 -3.1237 -2.4996 0.9666
-7.3839 -3.3947 -2.4997 0.9666
-5.9355 4.6175 -2.4997 0.9688
-6.0995 4.3983 -2.4997 0.9688
-6.6531 3.4563 -2.4921 0.9689
-6.7744 3.2119 -2.4921 0.9689
-6.9071 2.9720 -2.4995 0.9688
-7.0107 2.7186 -2.4995 0.9688
-7.1049 2.4616 -2.4995 0.9688
-7.1898 2.2014 -2.4995 0.9688
-7.2651 1.9383 -2.4994 0.9688
-7.3308 1.6726 -2.4994 0.9688
-7.4694 0.8636 -2.4994 0.9688
-7.5192 0.0444 -2.4995 0.9688
-7.4462 -1.0471 -2.4995 0.9688
-7.4033 -1.3174 -2.4996 0.9688
-7.3504 -1.5860 -2.4996 0.9688
-7.2880 -1.8525 -2.4996 0.9688
-7.1341 -2.3778 -2.4997 0.9688
-7.0430 -2.6359 -2.4997 0.9688
-6.9425 -2.8905 -2.4998 0.9688
-6.7140 -3.3880 -2.4999 0.9688
-6.5864 -3.6302 -2.4999 0.9688
-6.4501 -3.8676 -2.5000 0.9688
-5.3577 4.4903 -2.4999 0.9707
-5.5175 4.2923 -2.4998 0.9707
-5.8149 3.8795 -2.4998 0.9707
-5.9522 3.6652 -2.4997 0.9707
-6.1846 3.2129 -2.4923 0.9708
-6.4208 2.7627 -2.4997 0.9707
-6.5171 2.5272 -2.4996 0.9707
-6.8146 1.5548 -2.4996 0.9707
-6.8667 1.3057 -2.4996 0.9707
-6.9435 0.8028 -2.4996 0.9707
-6.9475 0.5479 -2.4922 0.9708
-6.9835 0.2956 -2.4996 0.9707
-6.9896 0.0412 -2.4996 0.9707
-6.9866 -0.2132 -2.4996 0.9707
-6.9742 -0.4673 -2.4996 0.9707
-6.9526 -0.7208 -2.4997 0.9707
-6.9219 -0.9734 -2.4997 0.9707
-6.8819 -1.2247 -2.4997 0.9707
-6.6317 -2.2104 -2.4998 0.9707
-6.5470 -2.4503 -2.4999 0.9707
-6.4536 -2.6870 -2.4999 0.9707
-6.2412 -3.1494 -2.5000 0.9707
-5.9958 -3.5952 -2.5001 0.9707
-4.9999 4.1904 -2.5000 0.9724
-5.1490 4.0056 -2.5000 0.9724
-5.2913 3.8155 -2.4999 0.9724
-5.5547 3.4204 -2.4999 0.9724
-5.8942 2.7946 -2.4998 0.9724
-6.0818 2.3584 -2.4998 0.9724
-6.2372 1.9097 -2.4997 0.9724
-6.3025 1.6815 -2.4997 0.9724
-6.4081 1.2186 -2.4997 0.9724
-6.4482 0.9845 -2.4997 0.9724
-6.4836 0.5113 -2.4923 0.9725
-6.5172 0.2758 -2.4997 0.9724
-6.5229 0.0385 -2.4997 0.9724
-6.5200 -0.1989 -2.4998 0.9724
-6.4883 -0.6727 -2.4998 0.9724
-6.4596 -0.9084 -2.4998 0.9724
-6.4223 -1.1429 -2.4998 0.9724
-6.3765 -1.3759 -2.4999 0.9724
-6.1888 -2.0628 -2.4999 0.9724
-5.8244 -2.9391 -2.5001 0.9724
-5.5954 -3.3551 -2.5002 0.9724
-4.5359 4.0917 -2.5001 0.9739
-4.8214 3.7508 -2.5001 0.9739
-4.9546 3.5728 -2.5000 0.9739
-5.0813 3.3900 -2.5000 0.9739
-5.4204 2.8159 -2.4999 0.9739
-5.6108 2.4142 -2.4999 0.9739
-5.7715 1.9996 -2.4999 0.9739
-5.8404 1.7882 -2.4999 0.9739
-5.9015 1.5745 -2.4999 0.9739
-6.1025 0.2583 -2.4999 0.9739
-6.0944 -0.4083 -2.4999 0.9739
-6.0486 -0.8506 -2.4999 0.9739
-5.9709 -1.2884 -2.5000 0.9739
-5.8614 -1.7193 -2.5000 0.9739
-5.7210 -2.1412 -2.5001 0.9739
-5.6393 -2.3480 -2.5001 0.9739
-5.5502 -2.5517 -2.5002 0.9739
-4.2598 3.8426 -2.5002 0.9753
-4.6530 3.3553 -2.5001 0.9753
-4.7721 3.1837 -2.5001 0.9753
-4.9909 2.8281 -2.5001 0.9753
-5.0905 2.6446 -2.5000 0.9753
-5.3483 2.0740 -2.5000 0.9753
-5.4202 1.8779 -2.5000 0.9753
-5.4849 1.6794 -2.5000 0.9753
-5.5424 1.4787 -2.5000 0.9753
-5.5925 1.2760 -2.5000 0.9753
-5.6353 1.0716 -2.5000 0.9753
-5.6705 0.8658 -2.5000 0.9753
-5.7185 0.4510 -2.5000 0.9753
-5.7336 -0.1749 -2.5000 0.9753
-5.7235 -0.3835 -2.5000 0.9753
-5.7058 -0.5915 -2.5000 0.9753
-5.6477 -1.0050 -2.5001 0.9753
-5.5597 -1.4132 -2.5001 0.9753
-5.4423 -1.8139 -2.5002 0.9753
-5.2961 -2.2051 -2.5002 0.9753
-5.2124 -2.3964 -2.5003 0.9753
-4.0109 3.6180 -2.5003 0.9765
-4.3811 3.1592 -2.5002 0.9765
-4.5993 2.8321 -2.5002 0.9765
-4.6992 2.6628 -2.5002 0.9765
-4.7930 2.4900 -2.5001 0.9765
-4.9613 2.1347 -2.5001 0.9765
-5.0357 1.9527 -2.5001 0.9765
-5.1035 1.7682 -2.5001 0.9765
-5.2185 1.3922 -2.5001 0.9765
-5.3059 1.0090 -2.5001 0.9765
-5.3843 0.4246 -2.5001 0.9765
-5.3962 0.2284 -2.5001 0.9765
-5.3985 -0.1647 -2.5001 0.9765
-5.3890 -0.3611 -2.5001 0.9765
-5.3723 -0.5570 -2.5001 0.9765
-5.3177 -0.9463 -2.5002 0.9765
-5.2348 -1.3306 -2.5002 0.9765
-5.1830 -1.5203 -2.5002 0.9765
-4.9865 -2.0762 -2.5003 0.9765
-4.9078 -2.2563 -2.5003 0.9765
-4.8225 -2.4335 -2.5004 0.9765
-4.7308 -2.6074 -2.5004 0.9765
-3.9067 3.2742 -2.5004 0.9775
-4.0232 3.1298 -2.5003 0.9775
-4.2402 2.8288 -2.5003 0.9775
-4.5231 2.3498 -2.5002 0.9775
-4.6056 2.1836 -2.5002 0.9775
-4.6820 2.0145 -2.5002 0.9775
-4.7522 1.8428 -2.5002 0.9775
-4.8736 1.4922 -2.5002 0.9775
-4.9246 1.3139 -2.5002 0.9775
-4.9692 1.1338 -2.5002 0.9775
-5.0071 0.9521 -2.5002 0.9775
-5.0631 0.5854 -2.5002 0.9775
-5.0811 0.4007 -2.5002 0.9775
-5.0968 0.0301 -2.5002 0.9775
-5.0946 -0.1554 -2.5002 0.9775
-5.0855 -0.3407 -2.5002 0.9775
-4.9824 -1.0751 -2.5003 0.9775
-4.8911 -1.4347 -2.5003 0.9775
-4.7739 -1.7867 -2.5004 0.9775
-4.7057 -1.9593 -2.5004 0.9775
-4.6314 -2.1293 -2.5004 0.9775
-4.5509 -2.2964 -2.5004 0.9775
-3.5789 3.2284 -2.5005 0.9785
-3.6940 3.0960 -2.5004 0.9785
-4.0093 2.6749 -2.5004 0.9785
-4.1040 2.5271 -2.5003 0.9785
-4.2769 2.2219 -2.5003 0.9785
-4.4934 1.7425 -2.5003 0.9785
-4.5539 1.5778 -2.5003 0.9785
-4.7346 0.9003 -2.5002 0.9785
-4.7642 0.7274 -2.5002 0.9785
-4.7875 0.5535 -2.5002 0.9785
-4.8045 0.3789 -2.5002 0.9785
-4.8194 0.0284 -2.5003 0.9785
-4.8087 -0.3222 -2.5003 0.9785
-4.7726 -0.6712 -2.5003 0.9785
-4.7112 -1.0165 -2.5003 0.9785
-4.6711 -1.1873 -2.5004 0.9785
-4.6248 -1.3566 -2.5004 0.9785
-4.5140 -1.6894 -2.5004 0.9785
-4.4496 -1.8526 -2.5004 0.9785
-4.3031 -2.1714 -2.5005 0.9785
-4.1338 -2.4787 -2.5006 0.9785
-3.3900 3.0580 -2.5005 0.9794
-3.4990 2.9325 -2.5005 0.9794
-3.7977 2.5337 -2.5004 0.9794
-3.8873 2.3937 -2.5004 0.9794
-4.0511 2.1046 -2.5004 0.9794
-4.1935 1.8043 -2.5004 0.9794
-4.3650 1.3365 -2.5003 0.9794
-4.4108 1.1768 -2.5003 0.9794
-4.4507 1.0155 -2.5003 0.9794
-4.4847 0.8528 -2.5003 0.9794
-4.5127 0.6890 -2.5003 0.9794
-4.5509 0.3589 -2.5003 0.9794
-4.5610 0.1930 -2.5003 0.9794
-4.5650 0.0269 -2.5003 0.9794
-4.5630 -0.1392 -2.5003 0.9794
-4.5549 -0.3052 -2.5003 0.9794
-4.5408 -0.4708 -2.5004 0.9794
-4.5207 -0.6357 -2.5004 0.9794
-4.4945 -0.7998 -2.5004 0.9794
-4.2757 -1.6003 -2.5005 0.9794
-3.9156 -2.3479 -2.5006 0.9794
-3.2160 2.9010 -2.5006 0.9802
-3.4184 2.6594 -2.5005 0.9802
-3.6878 2.2709 -2.5005 0.9802
-3.7680 2.1351 -2.5005 0.9802
-3.8432 1.9966 -2.5004 0.9802
-3.9133 1.8554 -2.5004 0.9802
-4.2223 0.9633 -2.5004 0.9802
-4.2812 0.6537 -2.5004 0.9802
-4.3021 0.4974 -2.5004 0.9802
-4.3269 0.1832 -2.5004 0.9802
-4.3307 0.0256 -2.5004 0.9802
-4.1975 -1.0670 -2.5005 0.9802
-4.0563 -1.5181 -2.5006 0.9802
-3.9352 -1.8092 -2.5006 0.9802
