ply
format ascii 1.0
element vertex 500
property float32 x
property float32 y
property float32 z
property float32 I
end_header
42.3979 -23.2290 8.5244 0.8217
32.6213 -17.8727 5.6983 0.8603
25.3695 -17.6850 4.0271 0.8827
41.6903 -20.9346 6.0750 0.8285
40.9283 -22.4239 5.0113 0.8288
41.6894 -19.0949 4.9239 0.8315
41.6849 -20.9319 3.9487 0.8292
41.7242 -17.3296 3.8246 0.8341
41.7664 -15.6164 3.7747 0.8361
41.7239 -17.3295 2.8016 0.8344
40.5735 -26.1740 1.9039 0.8242
41.7659 -15.6162 1.7582 0.8365
41.6352 -20.9070 0.7870 0.8300
41.6348 -20.9068 -0.2623 0.8300
41.6814 -19.0913 -0.2581 0.8324
-0.7296 -17.4133 -0.4907 0.9326
39.8254 -25.6914 -1.3345 0.8273
41.6346 -20.9067 -1.3118 0.8299
41.6911 -19.0957 -1.2912 0.8324
41.7228 -17.3290 -1.2721 0.8346
-8.5368 -45.5453 -2.3500 0.8306
-6.8996 -45.8281 -2.3503 0.8306
-5.2531 -46.0521 -2.3506 0.8306
-0.7294 -17.4098 -0.8837 0.9326
-0.2790 -46.3507 -2.3507 0.8306
9.6311 -45.3861 -2.3530 0.8304
21.9647 -44.3247 -2.5088 0.8203
26.6092 -41.7310 -2.5100 0.8202
28.0922 -40.7566 -2.5104 0.8202
29.5396 -39.7294 -2.5107 0.8201
30.9492 -38.6507 -2.5111 0.8201
33.9539 -34.1340 -2.4417 0.8246
33.9799 -31.7948 -2.3600 0.8300
35.0930 -30.5522 -2.3597 0.8300
38.1823 -26.6169 -2.3604 0.8299
39.3040 -19.7363 -2.2305 0.8385
39.5854 -18.1313 -2.2081 0.8400
39.6688 -14.8321 -2.1478 0.8440
-5.9015 -31.4856 -2.3488 0.8794
-2.4891 -31.9600 -2.3505 0.8794
-0.7293 -17.4063 -1.2774 0.9325
0.9570 -32.0662 -2.3522 0.8793
3.2535 -31.9313 -2.3534 0.8792
5.5357 -31.6322 -2.3546 0.8792
6.6678 -31.4214 -2.3552 0.8791
8.8914 -30.8271 -2.3525 0.8793
9.9920 -30.4924 -2.3527 0.8792
15.1341 -30.5405 -2.4992 0.8722
17.3386 -29.4717 -2.5072 0.8718
18.3859 -28.8344 -2.5074 0.8718
20.4087 -27.4487 -2.5080 0.8718
21.3818 -26.7024 -2.5082 0.8718
23.2443 -25.1067 -2.5087 0.8718
24.1315 -24.2595 -2.5089 0.8718
24.9877 -23.3809 -2.5091 0.8718
25.8120 -22.4721 -2.5093 0.8717
27.3598 -20.5681 -2.5097 0.8717
28.0816 -19.5756 -2.5099 0.8717
28.7671 -18.5577 -2.5101 0.8717
29.4156 -17.5156 -2.5102 0.8717
30.5984 -15.3649 -2.5105 0.8717
32.0753 -11.9929 -2.5108 0.8717
-4.5102 -24.0626 -2.3504 0.9063
-3.6454 -24.2132 -2.3508 0.9063
-2.7756 -24.3327 -2.3512 0.9063
-1.9019 -24.4211 -2.3516 0.9063
-0.1475 -24.5038 -2.3525 0.9062
2.4853 -24.3920 -2.3539 0.9062
3.3588 -24.2919 -2.3543 0.9062
5.9506 -23.8048 -2.3557 0.9061
8.4590 -22.9939 -2.3522 0.9062
13.2353 -22.4970 -2.5059 0.9004
14.0344 -22.0100 -2.5061 0.9004
14.8155 -21.4945 -2.5063 0.9004
15.5777 -20.9513 -2.5065 0.9004
16.3199 -20.3810 -2.5067 0.9004
17.0413 -19.7844 -2.5069 0.9004
17.7408 -19.1621 -2.5070 0.9004
18.4175 -18.5152 -2.5072 0.9004
19.0707 -17.8443 -2.5074 0.9004
19.6993 -17.1503 -2.5075 0.9004
20.3026 -16.4342 -2.5077 0.9004
20.8798 -15.6967 -2.5078 0.9004
21.4302 -14.9390 -2.5080 0.9003
21.9531 -14.1620 -2.5081 0.9003
22.4477 -13.3665 -2.5082 0.9003
22.9134 -12.5539 -2.5083 0.9003
23.3496 -11.7249 -2.5084 0.9003
24.1314 -10.0226 -2.5086 0.9003
24.4760 -9.1515 -2.5087 0.9003
-3.6467 -19.4559 -2.3513 0.9234
-2.9474 -19.5770 -2.3517 0.9233
-2.2441 -19.6729 -2.3520 0.9233
-0.7187 -17.1530 -2.0393 0.9332
0.5910 -19.8037 -2.3534 0.9233
2.0089 -19.7165 -2.3542 0.9233
3.4175 -19.5280 -2.3549 0.9232
4.1159 -19.3961 -2.3553 0.9232
4.8092 -19.2389 -2.3556 0.9232
5.4965 -19.0569 -2.3560 0.9232
6.8498 -18.6198 -2.3567 0.9232
7.5141 -18.3652 -2.3571 0.9232
8.1644 -18.0770 -2.3561 0.9232
9.4250 -17.4205 -2.3528 0.9233
11.3390 -17.7829 -2.5052 0.9186
11.9700 -17.3662 -2.5054 0.9185
13.1851 -16.4660 -2.5057 0.9185
14.3326 -15.4809 -2.5060 0.9185
14.8791 -14.9580 -2.5062 0.9185
15.4066 -14.4158 -2.5063 0.9185
15.9142 -13.8550 -2.5064 0.9185
16.4014 -13.2763 -2.5065 0.9185
18.5097 -10.1411 -2.5071 0.9185
18.8619 -9.4714 -2.5071 0.9185
19.1899 -8.7895 -2.5072 0.9185
19.4931 -8.0962 -2.5073 0.9185
-3.0540 -16.2936 -2.3488 0.9352
-2.4681 -16.3938 -2.3490 0.9352
-1.8791 -16.4729 -2.3492 0.9352
-0.6941 -16.5675 -2.3495 0.9352
-0.0998 -16.5829 -2.3497 0.9352
0.4947 -16.5770 -2.3498 0.9352
2.2719 -16.4315 -2.3503 0.9352
3.4438 -16.2287 -2.3506 0.9352
5.1671 -15.7683 -2.3511 0.9352
5.7294 -15.5740 -2.3512 0.9352
6.2843 -15.3595 -2.3514 0.9352
6.9178 -15.3168 -2.3813 0.9344
7.7103 -15.5593 -2.4604 0.9323
8.9631 -15.2352 -2.5045 0.9311
10.0327 -14.5555 -2.5048 0.9311
10.5486 -14.1873 -2.5049 0.9311
12.0125 -12.9749 -2.5053 0.9311
12.9123 -12.0820 -2.5056 0.9311
13.3378 -11.6119 -2.5057 0.9310
13.7459 -11.1268 -2.5058 0.9310
14.5089 -10.1141 -2.5060 0.9310
14.8627 -9.5879 -2.5060 0.9310
15.5124 -8.4989 -2.5062 0.9310
15.8074 -7.9377 -2.5063 0.9310
16.3363 -6.7850 -2.5064 0.9310
16.5694 -6.1953 -2.5064 0.9310
-2.2605 -15.0150 -2.5014 0.9403
-1.7210 -15.0872 -2.5016 0.9403
-0.0914 -15.1875 -2.5020 0.9403
0.9971 -15.1569 -2.5023 0.9403
1.5398 -15.1123 -2.5025 0.9403
3.6848 -14.7405 -2.5031 0.9403
4.2110 -14.5998 -2.5032 0.9403
6.2558 -13.8511 -2.5038 0.9402
8.1729 -12.8174 -2.5043 0.9402
8.6275 -12.5168 -2.5044 0.9402
9.0710 -12.2001 -2.5045 0.9402
9.5029 -11.8676 -2.5046 0.9402
10.3296 -11.1572 -2.5048 0.9402
11.1033 -10.3893 -2.5050 0.9402
11.4690 -9.9850 -2.5051 0.9402
12.4759 -8.6969 -2.5054 0.9402
12.7800 -8.2444 -2.5054 0.9402
13.0677 -7.7812 -2.5055 0.9402
13.5923 -6.8253 -2.5056 0.9402
13.8285 -6.3338 -2.5057 0.9402
14.0469 -5.8342 -2.5057 0.9402
-2.4517 -13.0800 -2.5013 0.9473
-1.5084 -13.2234 -2.5016 0.9473
1.3496 -13.2448 -2.5024 0.9473
1.8235 -13.1885 -2.5025 0.9473
2.2953 -13.1154 -2.5026 0.9473
2.7640 -13.0253 -2.5028 0.9472
4.1470 -12.6552 -2.5031 0.9472
5.0435 -12.3268 -2.5034 0.9472
5.4823 -12.1387 -2.5035 0.9472
8.3277 -10.3999 -2.5043 0.9472
8.6955 -10.0951 -2.5043 0.9472
9.0521 -9.7773 -2.5044 0.9472
9.3971 -9.4469 -2.5045 0.9472
10.3579 -8.3843 -2.5048 0.9472
10.6521 -8.0079 -2.5048 0.9472
11.4511 -6.8186 -2.5050 0.9472
11.6884 -6.4039 -2.5051 0.9472
11.9107 -5.9809 -2.5051 0.9472
12.1177 -5.5502 -2.5052 0.9472
12.3090 -5.1124 -2.5052 0.9472
-2.1800 -11.6310 -2.5014 0.9528
-1.7618 -11.7022 -2.5015 0.9528
-1.3412 -11.7584 -2.5016 0.9528
-0.9190 -11.7995 -2.5017 0.9528
-0.4954 -11.8254 -2.5018 0.9528
0.7771 -11.8119 -2.5022 0.9528
1.2000 -11.7770 -2.5023 0.9528
2.0409 -11.6618 -2.5025 0.9528
2.4577 -11.5817 -2.5027 0.9527
3.2814 -11.3769 -2.5029 0.9527
3.6873 -11.2524 -2.5030 0.9527
4.0885 -11.1135 -2.5031 0.9527
4.4844 -10.9603 -2.5032 0.9527
4.8746 -10.7929 -2.5033 0.9527
5.6358 -10.4168 -2.5035 0.9527
6.7222 -9.7527 -2.5038 0.9527
7.0678 -9.5058 -2.5039 0.9527
7.4042 -9.2467 -2.5040 0.9527
8.0482 -8.6930 -2.5041 0.9527
8.6509 -8.0946 -2.5043 0.9527
8.9358 -7.7798 -2.5044 0.9527
9.4706 -7.1197 -2.5045 0.9527
9.7200 -6.7758 -2.5046 0.9527
9.9568 -6.4232 -2.5046 0.9527
10.3919 -5.6935 -2.5047 0.9527
10.7735 -4.9346 -2.5048 0.9527
11.0997 -4.1501 -2.5049 0.9527
-1.9608 -10.4611 -2.5014 0.9572
-1.2063 -10.5756 -2.5016 0.9572
0.3176 -10.6412 -2.5020 0.9572
1.0793 -10.5920 -2.5023 0.9572
1.4583 -10.5469 -2.5024 0.9572
2.5824 -10.3307 -2.5027 0.9572
2.9512 -10.2319 -2.5028 0.9572
3.6770 -9.9949 -2.5030 0.9572
5.4012 -9.1808 -2.5034 0.9572
6.0455 -8.7709 -2.5036 0.9572
6.3562 -8.5488 -2.5037 0.9572
6.6588 -8.3157 -2.5037 0.9572
6.9528 -8.0719 -2.5038 0.9572
7.2379 -7.8178 -2.5039 0.9572
8.0360 -6.9961 -2.5041 0.9572
8.2818 -6.7037 -2.5042 0.9572
8.5170 -6.4027 -2.5042 0.9572
8.9542 -5.7763 -2.5043 0.9572
9.3454 -5.1202 -2.5044 0.9572
9.8415 -4.0875 -2.5045 0.9572
9.9818 -3.7321 -2.5046 0.9572
-1.7798 -9.4958 -2.5014 0.9609
-1.4383 -9.5538 -2.5015 0.9609
-1.0950 -9.5996 -2.5016 0.9609
-0.7502 -9.6331 -2.5017 0.9609
-0.4045 -9.6541 -2.5018 0.9609
-0.0581 -9.6628 -2.5019 0.9609
0.6343 -9.6429 -2.5021 0.9609
1.3237 -9.5734 -2.5023 0.9609
1.6661 -9.5201 -2.5024 0.9609
2.6787 -9.2873 -2.5027 0.9608
3.3375 -9.0721 -2.5028 0.9608
3.9791 -8.8103 -2.5030 0.9608
4.6004 -8.5031 -2.5032 0.9608
4.9024 -8.3330 -2.5033 0.9608
5.4872 -7.9609 -2.5034 0.9608
6.8197 -6.8558 -2.5038 0.9608
7.0612 -6.6071 -2.5038 0.9608
7.2937 -6.3499 -2.5039 0.9608
7.5168 -6.0845 -2.5039 0.9608
7.9337 -5.5306 -2.5040 0.9608
8.1270 -5.2428 -2.5041 0.9608
8.9323 -3.7099 -2.5043 0.9608
-1.6278 -8.6849 -2.5015 0.9639
-1.0015 -8.7799 -2.5016 0.9639
-0.6862 -8.8104 -2.5017 0.9639
-0.3699 -8.8297 -2.5018 0.9639
-0.0532 -8.8376 -2.5019 0.9639
1.2106 -8.7557 -2.5022 0.9639
1.5238 -8.7069 -2.5023 0.9639
1.8350 -8.6470 -2.5024 0.9639
2.4499 -8.4939 -2.5026 0.9639
2.7529 -8.4009 -2.5027 0.9639
4.2074 -7.7766 -2.5031 0.9639
4.7540 -7.4556 -2.5032 0.9639
5.0183 -7.2806 -2.5033 0.9639
5.5273 -6.9028 -2.5034 0.9639
6.2369 -6.2699 -2.5036 0.9639
6.6704 -5.8072 -2.5037 0.9639
6.8744 -5.5645 -2.5037 0.9639
7.0696 -5.3146 -2.5038 0.9639
7.2556 -5.0579 -2.5038 0.9639
8.0418 -3.6834 -2.5040 0.9639
-1.4983 -7.9936 -2.5015 0.9665
-0.9218 -8.0809 -2.5016 0.9665
-0.3404 -8.1267 -2.5018 0.9665
-0.0489 -8.1340 -2.5019 0.9665
0.2427 -8.1308 -2.5020 0.9665
0.8246 -8.0930 -2.5021 0.9665
1.1142 -8.0585 -2.5022 0.9665
1.6888 -7.9585 -2.5024 0.9665
1.9731 -7.8931 -2.5024 0.9665
3.0813 -7.5309 -2.5027 0.9665
3.6131 -7.2912 -2.5029 0.9665
3.8723 -7.1572 -2.5029 0.9665
4.3754 -6.8618 -2.5031 0.9665
4.6186 -6.7007 -2.5031 0.9665
5.3116 -6.1666 -2.5033 0.9665
5.5294 -5.9724 -2.5034 0.9665
5.7400 -5.7704 -2.5034 0.9665
5.9433 -5.5611 -2.5035 0.9665
6.1389 -5.3446 -2.5035 0.9665
6.3267 -5.1212 -2.5036 0.9665
7.1390 -3.9114 -2.5038 0.9665
7.5180 -3.1225 -2.5039 0.9665
-1.1204 -7.4418 -2.5016 0.9688
-0.3150 -7.5197 -2.5018 0.9688
0.7630 -7.4885 -2.5021 0.9688
1.2977 -7.4150 -2.5022 0.9688
2.5994 -7.0658 -2.5026 0.9688
2.8511 -6.9682 -2.5027 0.9688
3.0991 -6.8618 -2.5027 0.9688
3.8181 -6.4899 -2.5029 0.9688
4.0484 -6.3490 -2.5030 0.9688
4.4930 -6.0429 -2.5031 0.9688
5.1162 -5.5260 -2.5033 0.9688
5.3111 -5.3392 -2.5033 0.9688
5.4991 -5.1455 -2.5034 0.9688
5.6802 -4.9452 -2.5034 0.9688
5.8539 -4.7385 -2.5034 0.9688
6.1785 -4.3070 -2.5035 0.9688
6.6054 -3.6190 -2.5036 0.9688
6.8479 -3.1365 -2.5037 0.9687
-0.7928 -6.9504 -2.5017 0.9707
-0.5432 -6.9746 -2.5017 0.9707
0.2087 -6.9932 -2.5019 0.9707
0.4593 -6.9814 -2.5020 0.9707
0.9583 -6.9310 -2.5021 0.9707
1.2062 -6.8923 -2.5022 0.9707
1.4525 -6.8448 -2.5023 0.9707
1.6970 -6.7886 -2.5023 0.9707
3.3303 -6.1555 -2.5028 0.9707
3.5489 -6.0323 -2.5028 0.9707
3.7629 -5.9014 -2.5029 0.9707
3.9722 -5.7628 -2.5029 0.9707
4.3750 -5.4637 -2.5031 0.9707
4.7554 -5.1364 -2.5031 0.9707
4.9366 -4.9627 -2.5032 0.9707
5.1114 -4.7827 -2.5032 0.9707
5.4411 -4.4043 -2.5033 0.9707
5.5955 -4.2065 -2.5034 0.9707
5.7428 -4.0033 -2.5034 0.9707
5.8827 -3.7949 -2.5034 0.9707
6.1396 -3.3638 -2.5035 0.9707
6.5576 -2.4518 -2.5036 0.9707
-1.2026 -6.4160 -2.5015 0.9724
-0.7399 -6.4860 -2.5017 0.9724
-0.5069 -6.5085 -2.5017 0.9724
-0.0392 -6.5284 -2.5019 0.9724
0.1948 -6.5258 -2.5019 0.9724
0.8943 -6.4677 -2.5021 0.9724
2.6880 -5.9516 -2.5026 0.9724
2.8997 -5.8515 -2.5027 0.9724
3.1076 -5.7440 -2.5027 0.9724
3.5114 -5.5068 -2.5028 0.9724
3.7066 -5.3775 -2.5029 0.9724
4.0825 -5.0983 -2.5030 0.9724
4.2627 -4.9488 -2.5030 0.9724
4.4374 -4.7929 -2.5031 0.9724
4.7696 -4.4628 -2.5031 0.9724
5.2213 -3.9252 -2.5033 0.9724
5.8379 -2.9315 -2.5034 0.9724
-0.9100 -6.0442 -2.5016 0.9739
-0.0368 -6.1128 -2.5018 0.9739
0.6197 -6.0818 -2.5020 0.9739
0.8373 -6.0558 -2.5021 0.9739
1.2691 -5.9806 -2.5022 0.9739
1.4827 -5.9314 -2.5023 0.9739
1.6944 -5.8745 -2.5023 0.9739
1.9039 -5.8102 -2.5024 0.9739
2.1110 -5.7383 -2.5024 0.9739
2.3154 -5.6591 -2.5025 0.9739
2.9097 -5.3782 -2.5026 0.9739
3.1007 -5.2705 -2.5027 0.9739
3.2877 -5.1561 -2.5027 0.9739
3.6488 -4.9075 -2.5028 0.9739
3.8224 -4.7736 -2.5029 0.9739
3.9912 -4.6336 -2.5029 0.9739
4.3130 -4.3359 -2.5030 0.9739
4.7538 -3.8480 -2.5031 0.9739
5.0174 -3.4976 -2.5032 0.9739
5.1396 -3.3155 -2.5032 0.9739
5.4660 -2.7447 -2.5033 0.9739
-0.6506 -5.7032 -2.5017 0.9753
-0.2403 -5.7354 -2.5018 0.9753
0.1713 -5.7381 -2.5019 0.9753
0.3769 -5.7285 -2.5020 0.9753
0.5820 -5.7114 -2.5020 0.9753
0.7863 -5.6870 -2.5021 0.9753
1.1918 -5.6163 -2.5022 0.9753
1.5912 -5.5167 -2.5023 0.9753
1.7880 -5.4562 -2.5023 0.9753
1.9824 -5.3888 -2.5024 0.9753
2.1744 -5.3143 -2.5024 0.9753
2.7325 -5.0505 -2.5026 0.9753
2.9118 -4.9494 -2.5026 0.9753
3.2591 -4.7282 -2.5027 0.9753
3.4265 -4.6085 -2.5028 0.9753
3.9016 -4.2142 -2.5029 0.9753
4.0502 -4.0717 -2.5029 0.9753
4.3316 -3.7712 -2.5030 0.9753
4.5908 -3.4512 -2.5031 0.9753
4.7116 -3.2845 -2.5031 0.9753
4.8264 -3.1135 -2.5031 0.9753
5.0372 -2.7598 -2.5032 0.9752
5.2221 -2.3918 -2.5032 0.9752
5.3801 -2.0116 -2.5033 0.9752
-0.9956 -5.3118 -2.5016 0.9765
-0.6125 -5.3697 -2.5017 0.9765
0.1612 -5.4026 -2.5019 0.9765
0.3548 -5.3934 -2.5019 0.9765
0.9318 -5.3245 -2.5021 0.9765
1.1221 -5.2878 -2.5021 0.9765
1.4981 -5.1940 -2.5023 0.9765
2.2253 -4.9270 -2.5024 0.9765
2.4005 -4.8441 -2.5025 0.9765
3.0684 -4.4516 -2.5027 0.9765
3.6734 -3.9676 -2.5028 0.9764
4.2030 -3.4021 -2.5030 0.9764
4.4360 -3.0923 -2.5030 0.9764
4.9165 -2.2519 -2.5031 0.9764
-0.9395 -5.0125 -2.5016 0.9775
-0.5780 -5.0672 -2.5017 0.9775
-0.3960 -5.0847 -2.5017 0.9775
-0.0307 -5.1002 -2.5018 0.9775
0.5170 -5.0743 -2.5020 0.9775
0.8793 -5.0245 -2.5021 0.9775
1.0589 -4.9898 -2.5021 0.9775
1.4137 -4.9013 -2.5022 0.9775
1.5885 -4.8476 -2.5023 0.9775
1.7613 -4.7876 -2.5023 0.9775
1.9318 -4.7215 -2.5024 0.9775
2.4276 -4.4871 -2.5025 0.9775
2.7429 -4.3017 -2.5026 0.9775
3.0442 -4.0943 -2.5027 0.9775
3.3298 -3.8658 -2.5027 0.9775
3.5983 -3.6174 -2.5028 0.9775
3.7257 -3.4861 -2.5028 0.9775
3.9660 -3.2103 -2.5029 0.9775
4.2879 -2.7661 -2.5030 0.9775
4.3843 -2.6106 -2.5030 0.9775
4.4751 -2.4518 -2.5030 0.9775
4.5602 -2.2898 -2.5030 0.9775
4.7126 -1.9573 -2.5031 0.9775
4.7797 -1.7871 -2.5031 0.9775
-0.8883 -4.7395 -2.5016 0.9785
-0.7179 -4.7684 -2.5016 0.9785
-0.5465 -4.7912 -2.5017 0.9785
-0.3745 -4.8078 -2.5017 0.9785
-0.0290 -4.8224 -2.5018 0.9785
0.6606 -4.7774 -2.5020 0.9785
0.8314 -4.7508 -2.5021 0.9785
1.1697 -4.6792 -2.5021 0.9785
1.3367 -4.6343 -2.5022 0.9785
1.6653 -4.5268 -2.5023 0.9785
2.2954 -4.2426 -2.5025 0.9785
2.4460 -4.1576 -2.5025 0.9785
2.7377 -3.9719 -2.5026 0.9785
3.2774 -3.5400 -2.5027 0.9785
3.7499 -3.0354 -2.5028 0.9785
3.8564 -2.8990 -2.5029 0.9785
4.0542 -2.6154 -2.5029 0.9785
4.2313 -2.3182 -2.5029 0.9785
4.3865 -2.0091 -2.5030 0.9785
4.4557 -1.8506 -2.5030 0.9785
-0.8414 -4.4892 -2.5016 0.9794
-0.5177 -4.5381 -2.5017 0.9794
-0.3546 -4.5539 -2.5017 0.9794
-0.1912 -4.5637 -2.5018 0.9794
0.1363 -4.5659 -2.5019 0.9794
0.6257 -4.5251 -2.5020 0.9794
1.2661 -4.3895 -2.5022 0.9794
1.8806 -4.1638 -2.5023 0.9794
2.0287 -4.0938 -2.5024 0.9794
2.1741 -4.0185 -2.5024 0.9794
2.4565 -3.8525 -2.5025 0.9794
2.5931 -3.7620 -2.5025 0.9794
2.9821 -3.4621 -2.5026 0.9794
3.1043 -3.3530 -2.5027 0.9794
3.2225 -3.2396 -2.5027 0.9794
3.3366 -3.1220 -2.5027 0.9794
3.4464 -3.0004 -2.5027 0.9794
3.7487 -2.6132 -2.5028 0.9794
3.8400 -2.4772 -2.5028 0.9794
3.9264 -2.3380 -2.5029 0.9794
4.0077 -2.1957 -2.5029 0.9794
4.1547 -1.9030 -2.5029 0.9794
4.2203 -1.7528 -2.5029 0.9794
-0.3364 -4.3200 -2.5017 0.9802
0.1293 -4.3314 -2.5019 0.9802
0.4393 -4.3112 -2.5019 0.9802
0.5935 -4.2927 -2.5020 0.9802
0.7471 -4.2688 -2.5020 0.9802
1.2011 -4.1641 -2.5021 0.9802
1.3496 -4.1184 -2.5022 0.9802
1.6412 -4.0113 -2.5023 0.9802
1.9245 -3.8835 -2.5023 0.9802
2.0625 -3.8121 -2.5024 0.9802
2.3303 -3.6546 -2.5024 0.9802
2.4599 -3.5688 -2.5025 0.9802
2.5862 -3.4784 -2.5025 0.9802
2.8289 -3.2842 -2.5026 0.9802
2.9448 -3.1808 -2.5026 0.9802
3.0570 -3.0732 -2.5026 0.9802
3.3693 -2.7273 -2.5027 0.9802
3.4649 -2.6048 -2.5027 0.9802
3.5562 -2.4790 -2.5028 0.9802
3.8741 -1.9453 -2.5028 0.9802
3.9413 -1.8052 -2.5029 0.9802
4.0035 -1.6628 -2.5029 0.9802
