ply
format ascii 1.0
element vertex 676
property float32 x
property float32 y
property float32 z
property float32 I
end_header
5.2225 14.0622 2.6450 0.9409
4.6575 14.0761 2.6143 0.9416
3.0288 14.1163 2.5457 0.9430
2.5025 14.1293 2.5301 0.9434
1.9820 14.1421 2.5180 0.9436
0.9523 14.1675 2.5037 0.9440
0.4405 14.1801 2.5015 0.9440
-0.0710 14.1927 2.5026 0.9440
-0.5836 14.2054 2.5069 0.9439
-1.0987 14.2180 2.5145 0.9437
-8.6267 32.7677 5.9747 0.8714
-8.7231 28.8641 5.3169 0.8847
-8.8005 25.7311 4.7951 0.8954
-8.9222 23.3066 4.4004 0.9036
-9.0129 19.2582 3.7492 0.9173
-9.0024 17.5575 3.4791 0.9230
-8.9775 16.0553 3.2435 0.9280
-9.0674 14.9261 3.0794 0.9315
-10.2688 14.4441 3.1249 0.9305
-11.1592 14.5553 3.2340 0.9282
-11.9593 14.4858 3.3122 0.9265
-14.9409 14.5594 3.6785 0.9188
-16.0920 14.5877 3.8298 0.9156
5.2225 14.0622 2.2980 0.9411
4.6575 14.0761 2.2714 0.9418
2.6475 10.4811 1.6561 0.9572
2.5025 14.1292 2.1982 0.9436
1.9820 14.1421 2.1877 0.9439
0.9523 14.1675 2.1753 0.9442
-0.0710 14.1927 2.1743 0.9442
-0.5837 14.2054 2.1780 0.9441
-1.0987 14.2180 2.1846 0.9439
-8.5533 45.6286 7.1118 0.8287
-7.1772 27.2621 4.3187 0.8922
-8.1559 26.9872 4.3190 0.8922
-8.9223 23.3070 3.8232 0.9039
-9.0129 19.2582 3.2574 0.9176
-8.9109 17.3791 2.9919 0.9240
-9.4914 14.4250 2.6453 0.9325
-10.2689 14.4442 2.7150 0.9308
-11.9593 14.4858 2.8777 0.9268
-14.9409 14.5594 3.1959 0.9190
-16.0920 14.5877 3.3274 0.9159
-23.1909 19.5471 4.6464 0.8845
-23.2246 18.1847 4.5187 0.8875
5.2225 14.0622 1.9534 0.9413
4.6575 14.0761 1.9307 0.9419
3.0289 14.1163 1.8801 0.9434
2.5025 14.1293 1.8686 0.9438
1.9820 14.1421 1.8596 0.9440
1.4657 14.1548 1.8531 0.9442
-0.0710 14.1927 1.8482 0.9444
-1.0987 14.2181 1.8570 0.9441
-8.9225 23.3074 3.2499 0.9042
-8.9178 20.9950 2.9704 0.9121
-8.9633 19.1521 2.7536 0.9182
-9.0027 17.5580 2.5694 0.9235
-9.0676 14.9264 2.2743 0.9320
-11.0895 14.4644 2.3734 0.9291
-11.9593 14.4858 2.4462 0.9270
-13.8759 14.5331 2.6166 0.9221
-14.9409 14.5594 2.7166 0.9193
-23.2355 19.5847 3.9572 0.8846
6.9144 13.8241 1.6598 0.9397
5.6512 13.6833 1.5897 0.9422
5.2225 14.0622 1.6108 0.9414
4.6575 14.0761 1.5921 0.9421
1.9820 14.1421 1.5334 0.9442
0.9523 14.1675 1.5248 0.9445
0.4405 14.1801 1.5234 0.9445
-0.0710 14.1927 1.5241 0.9445
-7.8088 34.6976 3.8191 0.8667
-8.6273 32.7700 3.6388 0.8726
-8.8169 25.7789 2.9256 0.8962
-8.9179 20.9953 2.4495 0.9123
-8.7179 14.3508 1.8031 0.9347
-10.2689 14.4442 1.9031 0.9312
-11.0895 14.4644 1.9572 0.9293
-13.8759 14.5331 2.1577 0.9223
-16.0920 14.5878 2.3323 0.9163
-23.2357 19.5849 3.2632 0.8849
6.0061 13.1753 1.2257 0.9435
4.6575 14.0761 1.2551 0.9422
2.6462 10.4761 0.9147 0.9576
3.0288 14.1163 1.2222 0.9437
2.5025 14.1292 1.2147 0.9440
1.4657 14.1548 1.2047 0.9445
0.9523 14.1675 1.2020 0.9446
0.4433 14.2692 1.2085 0.9443
-0.5837 14.2054 1.2035 0.9445
-1.0987 14.2181 1.2072 0.9444
-6.7033 44.5807 3.8163 0.8345
-6.8914 30.6211 2.6570 0.8816
-8.6246 28.5382 2.5238 0.8872
-7.0107 18.3135 1.6600 0.9243
-7.6672 18.0507 1.6602 0.9243
-8.3138 17.7644 1.6603 0.9243
-7.0402 13.7305 1.3062 0.9399
-7.6653 13.7086 1.3296 0.9389
-8.3411 13.7305 1.3600 0.9375
-10.2689 14.4442 1.5003 0.9313
-12.8854 14.5087 1.6426 0.9251
-13.8759 14.5331 1.7010 0.9225
-16.0920 14.5878 1.8387 0.9165
-23.1915 19.5476 2.5676 0.8854
-23.2251 18.1851 2.4970 0.8883
4.6575 14.0761 0.9194 0.9423
4.1305 14.1783 0.9157 0.9425
2.6458 10.4744 0.6699 0.9576
3.0288 14.1163 0.8953 0.9438
1.4657 14.1548 0.8824 0.9446
0.9524 14.1675 0.8805 0.9447
0.4433 14.2692 0.8853 0.9444
-0.5836 14.2054 0.8816 0.9446
-1.0987 14.2181 0.8843 0.9445
-6.9635 26.4504 1.6961 0.8962
-8.2520 24.1274 1.5812 0.9029
-8.8649 23.1570 1.5376 0.9054
-9.0129 19.2582 1.3185 0.9183
-7.9862 13.1463 0.9538 0.9402
-8.6687 13.1747 0.9780 0.9388
-10.2689 14.4442 1.0990 0.9314
-11.1592 14.5553 1.1373 0.9291
-11.9593 14.4859 1.1648 0.9275
-12.8854 14.5087 1.2033 0.9252
-13.8759 14.5331 1.2460 0.9226
-23.1917 19.5478 1.8808 0.8855
4.6575 14.0761 0.5846 0.9424
3.0288 14.1163 0.5693 0.9438
1.9820 14.1421 0.5631 0.9444
1.4657 14.1548 0.5611 0.9446
-0.5837 14.2054 0.5606 0.9447
-6.7044 44.5880 1.7779 0.8349
-8.3591 44.5927 1.7890 0.8339
-6.9637 26.4510 1.0785 0.8963
-7.2854 24.1069 0.9930 0.9041
-8.8704 23.1716 0.9783 0.9055
-9.0129 19.2582 0.8384 0.9184
-7.6349 12.5681 0.5798 0.9428
-8.2970 12.6097 0.5952 0.9414
-11.9593 14.4859 0.7407 0.9276
-12.8854 14.5087 0.7651 0.9253
-13.8759 14.5331 0.7923 0.9227
-14.9409 14.5594 0.8226 0.9199
-23.2254 18.1854 1.1631 0.8886
4.6575 14.0761 0.2504 0.9424
4.1305 14.1783 0.2495 0.9426
2.6450 10.4711 0.1824 0.9577
1.9820 14.1421 0.2412 0.9445
0.4433 14.2692 0.2411 0.9445
-0.5836 14.2054 0.2402 0.9447
-1.6825 14.8013 0.2516 0.9421
-4.5328 24.1806 0.4156 0.9063
-5.3294 23.6804 0.4100 0.9075
-6.2402 23.7028 0.4140 0.9066
-7.3207 24.2236 0.4275 0.9037
-8.9185 20.9966 0.3853 0.9128
-8.9775 16.0554 0.3107 0.9291
-9.0682 14.9273 0.2950 0.9325
-11.1592 14.5553 0.3098 0.9293
-11.9594 14.4859 0.3173 0.9276
-12.8854 14.5087 0.3278 0.9253
-13.8759 14.5332 0.3394 0.9228
-14.9409 14.5594 0.3524 0.9199
-16.0920 14.5878 0.3669 0.9168
-23.2364 19.5855 0.5133 0.8855
5.5231 12.1156 -0.0750 0.9481
7.3892 17.8916 -0.1090 0.9255
5.2225 14.0622 -0.0845 0.9418
4.6575 14.0761 -0.0835 0.9424
3.0289 14.1163 -0.0813 0.9439
1.9820 14.1421 -0.0804 0.9445
0.9523 14.1675 -0.0799 0.9448
-0.0707 14.1387 -0.0796 0.9450
-0.5836 14.2054 -0.0800 0.9447
-1.6825 14.8013 -0.0839 0.9422
-3.6335 24.1651 -0.1376 0.9069
-4.5325 24.1790 -0.1385 0.9063
-5.1437 22.8555 -0.1319 0.9105
-6.0228 22.8772 -0.1332 0.9097
-6.9205 22.8994 -0.1347 0.9087
-7.1675 20.9565 -0.1247 0.9152
-8.8864 23.2132 -0.1399 0.9054
-7.2520 17.0731 -0.1044 0.9285
-8.9641 19.1537 -0.1191 0.9189
-8.9458 15.9987 -0.1032 0.9293
-9.4914 14.4250 -0.0972 0.9333
-10.2689 14.4442 -0.0998 0.9316
-11.0473 14.4094 -0.1022 0.9299
-11.9594 14.4859 -0.1058 0.9276
-13.8760 14.5331 -0.1131 0.9228
-14.9409 14.5594 -0.1175 0.9199
-16.0921 14.5878 -0.1223 0.9168
-23.1922 19.5482 -0.1708 0.8857
-23.2258 18.1857 -0.1661 0.8887
5.5963 13.5505 -0.4128 0.9430
5.2225 14.0622 -0.4224 0.9417
4.6575 14.0761 -0.4175 0.9424
3.0288 14.1163 -0.4065 0.9439
2.5026 14.1293 -0.4040 0.9442
1.4657 14.1549 -0.4007 0.9446
0.9523 14.1675 -0.3998 0.9448
0.4406 14.1801 -0.3995 0.9448
-0.5836 14.2054 -0.4003 0.9447
-1.0987 14.2181 -0.4015 0.9445
-3.6333 24.1635 -0.6880 0.9068
-4.5321 24.1774 -0.6926 0.9063
-5.0751 22.5505 -0.6509 0.9117
-5.6968 21.6388 -0.6301 0.9144
-6.5459 21.6598 -0.6371 0.9134
-7.1675 20.9565 -0.6237 0.9152
-8.8709 23.1728 -0.6987 0.9055
-8.9642 19.1540 -0.5955 0.9189
-7.3251 14.2862 -0.4521 0.9378
-9.4914 14.4250 -0.4862 0.9332
-11.0895 14.4644 -0.5132 0.9297
-23.2260 18.1858 -0.8306 0.8887
7.2343 14.4637 -0.8201 0.9373
5.5231 12.1156 -0.6753 0.9481
5.2225 14.0622 -0.7607 0.9417
4.1047 14.0898 -0.7443 0.9429
2.6437 10.4662 -0.5475 0.9577
3.0289 14.1163 -0.7322 0.9438
1.4657 14.1549 -0.7217 0.9446
0.9523 14.1675 -0.7201 0.9447
0.4405 14.1801 -0.7195 0.9448
-4.5319 24.1758 -1.2474 0.9062
-6.2961 20.8333 -1.1037 0.9165
-7.4165 15.8470 -0.8873 0.9323
-7.3252 14.2864 -0.8142 0.9377
-8.5476 15.2865 -0.8882 0.9323
-9.0096 13.6928 -0.8313 0.9365
-11.9594 14.4859 -0.9527 0.9275
-12.8854 14.5087 -0.9841 0.9252
-16.0921 14.5878 -1.1015 0.9167
-23.1926 19.5485 -1.5383 0.8856
-23.2262 18.1859 -1.4960 0.8886
6.8778 13.7511 -1.1273 0.9402
5.5231 12.1156 -0.9763 0.9480
5.5738 13.4959 -1.0706 0.9431
5.2225 14.0622 -1.0999 0.9416
2.6433 10.4645 -0.7914 0.9576
3.0288 14.1163 -1.0586 0.9437
2.5026 14.1293 -1.0521 0.9441
1.9820 14.1421 -1.0471 0.9443
1.4657 14.1548 -1.0434 0.9445
-0.0710 14.1927 -1.0407 0.9447
-3.6328 24.1604 -1.7914 0.9067
-4.5316 24.1742 -1.8034 0.9061
-5.2998 20.1309 -1.5263 0.9199
-7.1557 18.6922 -1.4675 0.9229
-7.1987 16.9477 -1.3501 0.9288
-7.2353 15.4599 -1.2516 0.9338
-7.2698 14.1784 -1.1683 0.9381
-7.3740 13.1876 -1.1078 0.9412
-8.5862 14.1340 -1.2126 0.9358
-9.0096 13.6928 -1.2018 0.9364
-10.2689 14.4442 -1.2995 0.9314
-12.8854 14.5087 -1.4228 0.9251
-13.8760 14.5332 -1.4733 0.9226
-14.9409 14.5594 -1.5296 0.9197
-23.2264 18.1861 -2.1629 0.8884
6.7293 13.4541 -1.4442 0.9413
5.5231 12.1156 -1.2783 0.9479
5.5693 13.4850 -1.4007 0.9431
5.2225 14.0622 -1.4401 0.9415
4.1047 14.0898 -1.4089 0.9427
0.9523 14.1675 -1.3632 0.9445
0.4405 14.1801 -1.3620 0.9446
-0.0710 14.1927 -1.3626 0.9446
-0.5836 14.2054 -1.3649 0.9445
-1.0987 14.2181 -1.3691 0.9443
-2.6149 23.0045 -2.2228 0.9112
-3.4422 22.8930 -2.2225 0.9112
-5.0754 22.5522 -2.2193 0.9113
-6.6943 19.5729 -1.9860 0.9202
-7.1988 16.9480 -1.7678 0.9287
-7.2696 14.1781 -1.5297 0.9380
-8.4004 13.8282 -1.5533 0.9371
-8.9344 13.5785 -1.5605 0.9368
-13.8760 14.5331 -1.9291 0.9224
-14.9409 14.5594 -2.0028 0.9196
-16.0921 14.5878 -2.0852 0.9164
-17.6715 14.8949 -2.2188 0.9113
4.6575 14.0761 -1.7612 0.9420
2.6424 10.4612 -1.2817 0.9575
3.0288 14.1163 -1.7150 0.9435
0.9523 14.1675 -1.6867 0.9444
0.4406 14.1801 -1.6852 0.9445
-0.0710 14.1928 -1.6859 0.9444
-0.5837 14.2054 -1.6888 0.9443
-1.0987 14.2181 -1.6939 0.9442
-3.4474 18.3908 -2.2226 0.9274
-4.7629 18.0917 -2.2223 0.9274
-5.4117 17.9069 -2.2221 0.9274
-7.2697 14.1783 -1.8927 0.9378
-7.3681 13.1772 -1.7933 0.9410
-8.7550 13.3058 -1.8920 0.9379
-9.0328 12.7055 -1.8518 0.9391
-11.9005 14.4146 -2.2204 0.9275
-12.9068 13.5181 -2.2201 0.9275
-14.2886 12.0436 -2.2198 0.9275
6.3468 12.6893 -2.0103 0.9443
5.5231 12.1156 -1.8866 0.9476
5.2226 14.0622 -2.1254 0.9412
3.0288 14.1163 -2.0457 0.9433
1.9820 14.1421 -2.0234 0.9439
1.4657 14.1549 -2.0163 0.9441
-0.0710 14.1928 -2.0110 0.9443
-0.5836 14.2054 -2.0144 0.9442
-1.0987 14.2181 -2.0206 0.9440
-3.4442 15.3042 -2.2227 0.9386
-3.9935 15.1690 -2.2225 0.9386
-4.5375 15.0142 -2.2224 0.9386
-5.0755 14.8399 -2.2222 0.9386
-6.1309 14.4338 -2.2220 0.9386
-6.6469 14.2025 -2.2218 0.9386
-8.5813 13.0418 -2.2120 0.9389
-9.0834 12.7767 -2.2212 0.9386
-9.5376 12.4402 -2.2211 0.9386
-9.9794 12.0876 -2.2210 0.9386
-10.4082 11.7194 -2.2208 0.9386
-11.2245 10.9379 -2.2206 0.9386
-12.0563 10.1620 -2.2341 0.9383
-12.9910 10.1719 -2.3378 0.9355
5.5231 12.1156 -2.1935 0.9475
4.7021 12.6608 -2.2249 0.9467
2.6053 10.3140 -1.7525 0.9578
2.3548 13.2949 -2.2243 0.9467
0.9054 13.4691 -2.2239 0.9467
0.4192 13.4921 -2.2238 0.9467
-0.0675 13.4977 -2.2236 0.9468
-1.0398 13.4561 -2.2234 0.9468
-1.5242 13.4091 -2.2232 0.9468
-2.0065 13.3446 -2.2231 0.9468
-2.4862 13.2629 -2.2230 0.9468
-2.9626 13.1638 -2.2228 0.9468
-3.4350 13.0478 -2.2227 0.9468
-4.3658 12.7649 -2.2225 0.9468
-4.8229 12.5985 -2.2223 0.9468
-6.1540 12.0022 -2.2220 0.9468
-8.5846 10.3983 -2.2214 0.9468
-8.9536 10.0816 -2.2213 0.9468
-9.6786 10.1370 -2.3089 0.9448
-10.8897 9.1787 -2.3462 0.9439
4.9103 10.7713 -2.2250 0.9530
3.7180 11.2368 -2.2247 0.9530
3.0072 10.3224 -2.0209 0.9572
2.5973 10.2825 -1.9934 0.9578
2.0638 11.6521 -2.2242 0.9530
0.7935 11.8050 -2.2239 0.9530
-0.0592 11.8303 -2.2236 0.9530
-0.4856 11.8198 -2.2235 0.9530
-0.9114 11.7940 -2.2234 0.9530
-1.3359 11.7529 -2.2233 0.9530
-3.0108 11.4365 -2.2229 0.9530
-3.4210 11.3200 -2.2227 0.9530
-3.8267 11.1887 -2.2226 0.9530
-4.2274 11.0429 -2.2225 0.9530
-4.6226 10.8828 -2.2224 0.9530
-5.0117 10.7086 -2.2223 0.9530
-5.3942 10.5205 -2.2222 0.9530
-5.7698 10.3187 -2.2221 0.9530
-7.9496 9.6291 -2.3470 0.9504
-8.6222 9.0306 -2.3468 0.9505
-8.9419 8.7136 -2.3468 0.9505
-9.2499 8.3853 -2.3467 0.9505
4.9743 9.9453 -2.3505 0.9556
4.5527 9.9869 -2.3200 0.9561
4.1264 9.9914 -2.2850 0.9568
3.3060 9.9914 -2.2246 0.9579
2.9435 10.1037 -2.2245 0.9579
0.7056 10.4971 -2.2239 0.9579
0.3267 10.5152 -2.2238 0.9579
-0.0526 10.5197 -2.2237 0.9579
-0.4318 10.5105 -2.2236 0.9579
-0.8104 10.4876 -2.2235 0.9579
-1.5639 10.4010 -2.2233 0.9579
-2.3091 10.2603 -2.2231 0.9579
-2.6774 10.1699 -2.2230 0.9579
-3.4445 10.0712 -2.2499 0.9574
-3.8571 10.0756 -2.2805 0.9569
-5.0676 9.8835 -2.3478 0.9556
-5.4204 9.6940 -2.3477 0.9556
-5.7662 9.4919 -2.3476 0.9556
-6.1044 9.2775 -2.3475 0.9556
-6.4347 9.0511 -2.3474 0.9556
-7.8392 8.2105 -2.3996 0.9546
-9.3087 7.2887 -2.4991 0.9528
4.1481 9.0994 -2.3503 0.9597
3.8172 9.2427 -2.3502 0.9597
3.4814 9.3740 -2.3501 0.9597
2.7967 9.5997 -2.3499 0.9597
2.0975 9.7754 -2.3497 0.9598
1.3875 9.9003 -2.3495 0.9598
1.0296 9.9435 -2.3494 0.9598
0.3104 9.9910 -2.3493 0.9598
-1.4859 9.8827 -2.3488 0.9598
-1.8412 9.8223 -2.3487 0.9598
-2.5440 9.6633 -2.3485 0.9598
-2.8906 9.5649 -2.3484 0.9598
-3.2335 9.4541 -2.3483 0.9598
-4.8755 8.7194 -2.3479 0.9598
-6.2905 8.2050 -2.4299 0.9584
-6.7636 8.1926 -2.4968 0.9573
-7.6169 7.4224 -2.4995 0.9572
-8.1315 6.8539 -2.4994 0.9572
-8.3731 6.5561 -2.4993 0.9572
4.1090 8.2153 -2.3783 0.9628
3.7652 8.2594 -2.3502 0.9632
3.4649 8.3894 -2.3501 0.9632
3.1600 8.5086 -2.3500 0.9632
2.5386 8.7135 -2.3499 0.9632
2.2227 8.7991 -2.3498 0.9632
0.9346 9.0258 -2.3494 0.9632
0.6086 9.0533 -2.3493 0.9632
-0.0454 9.0729 -2.3492 0.9632
-0.3724 9.0650 -2.3491 0.9632
-0.6990 9.0454 -2.3490 0.9632
-1.0246 9.0140 -2.3489 0.9632
-1.6713 8.9160 -2.3487 0.9632
-2.6239 8.6825 -2.3485 0.9632
-2.9352 8.5820 -2.3484 0.9632
-3.2425 8.4703 -2.3483 0.9632
-3.5456 8.3476 -2.3482 0.9632
-3.8510 8.2286 -2.3523 0.9632
-4.2109 8.2126 -2.3896 0.9626
-4.5876 8.2044 -2.4338 0.9619
-5.3077 8.0666 -2.5002 0.9609
-6.4113 7.2191 -2.4999 0.9609
-6.9145 6.7380 -2.4997 0.9609
-7.1528 6.4842 -2.4997 0.9609
-7.3817 6.2219 -2.4996 0.9609
-7.6010 5.9516 -2.4996 0.9609
3.9546 7.9066 -2.5027 0.9639
3.3745 8.1705 -2.5025 0.9639
2.7141 8.2027 -2.4459 0.9647
2.3911 8.2074 -2.4200 0.9651
1.4558 8.2194 -2.3631 0.9659
1.1534 8.2298 -2.3526 0.9660
0.8548 8.2550 -2.3494 0.9661
0.2578 8.2946 -2.3493 0.9661
-0.3406 8.2910 -2.3491 0.9661
-0.9371 8.2443 -2.3489 0.9661
-1.8485 8.2139 -2.3835 0.9656
-2.1614 8.2102 -2.4034 0.9653
-3.4534 8.1303 -2.5007 0.9639
-4.3106 7.7092 -2.5004 0.9639
-4.5857 7.5486 -2.5004 0.9639
-5.6225 6.8103 -2.5001 0.9640
-6.3244 6.1630 -2.4999 0.9640
-6.5424 5.9308 -2.4999 0.9640
-6.7518 5.6910 -2.4998 0.9640
2.8325 7.6268 -2.5024 0.9665
2.2754 7.8105 -2.5022 0.9665
1.9923 7.8873 -2.5021 0.9665
0.8378 8.0907 -2.5018 0.9665
0.5456 8.1154 -2.5017 0.9665
-0.3338 8.1261 -2.5015 0.9665
-0.6266 8.1085 -2.5014 0.9665
-0.9185 8.0804 -2.5013 0.9665
-1.7853 7.9332 -2.5011 0.9665
-2.3522 7.7835 -2.5010 0.9665
-2.6312 7.6934 -2.5009 0.9665
-3.4462 7.3637 -2.5007 0.9665
-4.2208 6.9480 -2.5005 0.9666
-4.7102 6.6254 -2.5003 0.9666
-5.1752 6.2685 -2.5002 0.9666
-5.6131 5.8790 -2.5001 0.9666
-6.2147 5.2383 -2.5000 0.9666
-6.3994 5.0107 -2.4999 0.9666
3.3678 6.7333 -2.5025 0.9688
2.6209 7.0570 -2.5023 0.9688
1.3127 7.4115 -2.5020 0.9688
1.0447 7.4538 -2.5019 0.9688
-1.1188 7.4412 -2.5013 0.9688
-1.9156 7.2763 -2.5011 0.9688
-2.1766 7.2023 -2.5010 0.9688
-2.4348 7.1189 -2.5010 0.9688
-2.6898 7.0263 -2.5009 0.9688
-2.9413 6.9246 -2.5008 0.9688
-3.1889 6.8139 -2.5008 0.9688
-3.6714 6.5661 -2.5006 0.9688
-4.1348 6.2841 -2.5005 0.9688
-4.7888 5.8006 -2.5003 0.9688
-4.9947 5.6240 -2.5003 0.9688
-5.3868 5.2493 -2.5002 0.9688
-5.5724 5.0516 -2.5001 0.9688
-5.7508 4.8473 -2.5001 0.9688
-5.9217 4.6367 -2.5000 0.9688
2.9027 6.3673 -2.5024 0.9707
2.6712 6.4676 -2.5024 0.9707
1.4679 6.8409 -2.5020 0.9707
1.2202 6.8892 -2.5019 0.9707
0.7206 6.9588 -2.5018 0.9707
-0.5389 6.9742 -2.5015 0.9707
-0.7900 6.9501 -2.5014 0.9707
-1.0400 6.9169 -2.5013 0.9707
-1.5356 6.8236 -2.5012 0.9707
-1.7806 6.7636 -2.5011 0.9707
-2.2632 6.6174 -2.5010 0.9707
-2.5003 6.5313 -2.5009 0.9707
-3.4128 6.1035 -2.5007 0.9707
-3.6305 5.9764 -2.5006 0.9707
-3.8436 5.8415 -2.5006 0.9707
-4.0516 5.6990 -2.5005 0.9707
-4.2543 5.5491 -2.5005 0.9707
-4.4515 5.3920 -2.5004 0.9707
-4.8283 5.0570 -2.5003 0.9707
-5.0074 4.8796 -2.5003 0.9707
-5.1800 4.6958 -2.5002 0.9707
-5.5047 4.3102 -2.5002 0.9707
2.9212 5.8403 -2.5024 0.9724
2.7086 5.9416 -2.5024 0.9724
2.4926 6.0353 -2.5023 0.9724
2.2733 6.1211 -2.5022 0.9724
2.0511 6.1989 -2.5022 0.9724
1.3697 6.3837 -2.5020 0.9724
0.2027 6.5249 -2.5017 0.9724
-0.0326 6.5278 -2.5016 0.9724
-0.7372 6.4857 -2.5014 0.9724
-1.2026 6.4154 -2.5013 0.9724
-2.3332 6.0950 -2.5010 0.9724
-2.9775 5.8070 -2.5008 0.9724
-3.5868 5.4513 -2.5007 0.9724
-4.3328 4.8787 -2.5005 0.9724
-4.5058 4.7192 -2.5004 0.9724
-5.1370 4.0223 -2.5003 0.9724
2.5361 5.5633 -2.5023 0.9739
1.7100 5.8695 -2.5021 0.9739
1.2825 5.9772 -2.5020 0.9739
1.0662 6.0194 -2.5019 0.9739
0.8484 6.0538 -2.5019 0.9739
0.6296 6.0803 -2.5018 0.9739
0.4100 6.0989 -2.5017 0.9739
-0.0305 6.1123 -2.5016 0.9739
-0.2509 6.1070 -2.5016 0.9739
-0.4709 6.0939 -2.5015 0.9739
-0.6902 6.0728 -2.5014 0.9739
-0.9087 6.0438 -2.5014 0.9739
-1.3418 5.9623 -2.5013 0.9739
-1.9776 5.7822 -2.5011 0.9739
-2.1847 5.7070 -2.5010 0.9739
-2.5901 5.5345 -2.5009 0.9739
-3.1724 5.2222 -2.5008 0.9739
-3.3585 5.1043 -2.5007 0.9739
-3.5403 4.9798 -2.5007 0.9739
-3.7175 4.8489 -2.5006 0.9739
-3.8898 4.7116 -2.5006 0.9739
-4.0571 4.5682 -2.5006 0.9739
-4.3755 4.2639 -2.5005 0.9739
-4.5264 4.1033 -2.5004 0.9739
-4.6713 3.9374 -2.5004 0.9739
2.5685 5.1352 -2.5023 0.9753
2.3817 5.2244 -2.5023 0.9753
2.1917 5.3067 -2.5022 0.9753
1.9989 5.3822 -2.5022 0.9753
1.2045 5.6131 -2.5020 0.9753
0.5913 5.7100 -2.5018 0.9753
0.1783 5.7375 -2.5017 0.9753
-0.0287 5.7400 -2.5016 0.9753
-0.2356 5.7351 -2.5016 0.9753
-0.4422 5.7228 -2.5015 0.9753
-1.4611 5.5501 -2.5012 0.9753
-1.6602 5.4937 -2.5012 0.9753
-2.0517 5.3596 -2.5011 0.9753
-2.2435 5.2820 -2.5010 0.9753
-2.8006 5.0086 -2.5009 0.9753
-3.1540 4.7936 -2.5008 0.9753
-3.4912 4.5537 -2.5007 0.9753
-3.6530 4.4248 -2.5007 0.9753
-3.9622 4.1499 -2.5006 0.9753
-4.5173 3.5371 -2.5004 0.9753
2.2423 4.9188 -2.5023 0.9765
1.8820 5.0674 -2.5022 0.9765
1.3238 5.2406 -2.5020 0.9765
0.9427 5.3222 -2.5019 0.9765
0.5567 5.3761 -2.5018 0.9765
0.3625 5.3925 -2.5017 0.9765
0.1679 5.4020 -2.5017 0.9765
-0.0270 5.4044 -2.5016 0.9765
-0.2218 5.3998 -2.5016 0.9765
-0.4163 5.3882 -2.5015 0.9765
-0.8035 5.3439 -2.5014 0.9765
-0.9956 5.3114 -2.5014 0.9765
-1.7486 5.1127 -2.5012 0.9765
-1.9317 5.0462 -2.5011 0.9765
-2.1124 4.9732 -2.5011 0.9765
-2.2903 4.8937 -2.5010 0.9765
-2.4651 4.8079 -2.5010 0.9765
-3.5874 4.0394 -2.5007 0.9765
-4.1305 3.4816 -2.5006 0.9765
-4.2533 3.3303 -2.5005 0.9765
2.2820 4.5624 -2.5023 0.9775
2.1160 4.6416 -2.5022 0.9775
1.4267 4.8972 -2.5020 0.9775
0.8896 5.0223 -2.5019 0.9775
0.3421 5.0887 -2.5017 0.9775
0.1584 5.0976 -2.5017 0.9775
-0.0255 5.0999 -2.5016 0.9775
-0.2093 5.0956 -2.5016 0.9775
-0.3929 5.0846 -2.5015 0.9775
-0.5760 5.0670 -2.5015 0.9775
-1.2982 4.9312 -2.5013 0.9775
-1.4751 4.8811 -2.5013 0.9775
-1.6501 4.8247 -2.5012 0.9775
-2.1612 4.6181 -2.5011 0.9775
-2.3263 4.5371 -2.5010 0.9775
-2.6471 4.3575 -2.5009 0.9775
-3.3853 3.8119 -2.5008 0.9775
-3.5205 3.6873 -2.5007 0.9775
-3.8979 3.2855 -2.5006 0.9775
-4.0138 3.1428 -2.5006 0.9775
2.0007 4.3888 -2.5022 0.9785
1.8412 4.4579 -2.5022 0.9785
1.6792 4.5213 -2.5021 0.9785
0.8411 4.7487 -2.5019 0.9785
0.6693 4.7759 -2.5018 0.9785
0.3235 4.8115 -2.5017 0.9785
0.1498 4.8200 -2.5017 0.9785
-0.1979 4.8180 -2.5016 0.9785
-0.3715 4.8077 -2.5016 0.9785
-0.7169 4.7682 -2.5015 0.9785
-0.8884 4.7392 -2.5014 0.9785
-1.2275 4.6627 -2.5013 0.9785
-2.7932 3.9290 -2.5009 0.9785
-3.2010 3.6043 -2.5008 0.9785
-3.4523 3.3642 -2.5007 0.9785
-3.5713 3.2375 -2.5007 0.9785
-3.7953 2.9717 -2.5007 0.9785
2.0437 4.0860 -2.5022 0.9794
1.4351 4.3370 -2.5021 0.9794
1.2778 4.3859 -2.5020 0.9794
0.9583 4.4664 -2.5019 0.9794
0.6340 4.5237 -2.5018 0.9794
0.4705 4.5435 -2.5018 0.9794
-0.1874 4.5636 -2.5016 0.9794
-0.5158 4.5381 -2.5015 0.9794
-0.6791 4.5164 -2.5015 0.9794
-1.1627 4.4165 -2.5013 0.9794
-1.3211 4.3716 -2.5013 0.9794
-1.4779 4.3211 -2.5013 0.9794
-2.0835 4.0635 -2.5011 0.9794
-2.3708 3.9027 -2.5010 0.9794
-2.5100 3.8146 -2.5010 0.9794
-2.7782 3.6237 -2.5009 0.9794
-2.9070 3.5212 -2.5009 0.9794
-3.1531 3.3025 -2.5008 0.9794
-3.2701 3.1866 -2.5008 0.9794
-3.4911 2.9426 -2.5007 0.9794
-3.5949 2.8148 -2.5007 0.9794
1.7977 3.9434 -2.5022 0.9802
1.3614 4.1143 -2.5020 0.9802
1.2121 4.1606 -2.5020 0.9802
1.0613 4.2016 -2.5020 0.9802
0.7558 4.2670 -2.5019 0.9802
0.6014 4.2914 -2.5018 0.9802
0.4464 4.3102 -2.5018 0.9802
-0.3338 4.3200 -2.5016 0.9802
-0.4893 4.3051 -2.5015 0.9802
-0.6442 4.2846 -2.5015 0.9802
-0.7982 4.2585 -2.5014 0.9802
-1.1030 4.1897 -2.5014 0.9802
-1.2533 4.1472 -2.5013 0.9802
-1.5488 4.0460 -2.5012 0.9802
-1.6936 3.9874 -2.5012 0.9802
-1.9765 3.8549 -2.5011 0.9802
-2.1142 3.7811 -2.5011 0.9802
-2.2491 3.7023 -2.5011 0.9802
-2.3811 3.6188 -2.5010 0.9802
-2.5099 3.5306 -2.5010 0.9802
-2.6356 3.4377 -2.5010 0.9802
-2.7578 3.3404 -2.5009 0.9802
-3.1022 3.0230 -2.5008 0.9802
-3.2091 2.9092 -2.5008 0.9802
-3.4104 2.6703 -2.5008 0.9802
