ply
format ascii 1.0
element vertex 458
property float32 x
property float32 y
property float32 z
property float32 I
end_header
-29.6072 -16.4654 -0.9539 0.8732
-48.2224 -9.1545 -2.4892 0.8215
-46.9809 -14.2375 -2.4896 0.8215
-45.8567 -17.5410 -2.4899 0.8215
-45.2077 -19.1611 -2.4901 0.8215
-44.5017 -20.7573 -2.4903 0.8215
-43.7394 -22.3276 -2.4905 0.8214
-29.5547 -16.4362 -1.7150 0.8733
-27.9468 -16.8695 -1.6555 0.8774
-41.1263 -26.8643 -2.4912 0.8214
-39.1227 -29.7243 -2.4918 0.8214
-33.6469 -31.7480 -2.3461 0.8309
-32.4987 -32.9252 -2.3462 0.8309
-30.0806 -35.1539 -2.3464 0.8308
-28.8137 -36.2026 -2.3465 0.8308
-27.5102 -37.2055 -2.3466 0.8308
-24.8004 -39.0698 -2.3469 0.8308
-14.4239 -44.0025 -2.3484 0.8307
-12.8525 -44.4924 -2.3487 0.8307
-8.0464 -45.6235 -2.3495 0.8306
-6.4204 -45.8843 -2.3497 0.8306
-3.1446 -46.2229 -2.3496 0.8306
-33.4051 -6.3416 -2.4931 0.8725
-31.7637 -12.1502 -2.4936 0.8725
-31.3134 -13.2721 -2.4937 0.8725
-30.8236 -14.3773 -2.4938 0.8725
-27.3495 -16.5089 -2.3423 0.8797
-26.1309 -18.4264 -2.3444 0.8796
-24.0348 -21.1151 -2.3458 0.8796
-22.4764 -22.7714 -2.3460 0.8796
-21.6540 -23.5570 -2.3461 0.8796
-20.8041 -24.3128 -2.3462 0.8796
-19.9277 -25.0379 -2.3463 0.8796
-19.0260 -25.7313 -2.3464 0.8795
-18.1001 -26.3921 -2.3465 0.8795
-17.1512 -27.0196 -2.3466 0.8795
-15.1894 -28.1713 -2.3467 0.8795
-14.1789 -28.6940 -2.3468 0.8795
-13.1504 -29.1803 -2.3468 0.8795
-12.1053 -29.6298 -2.3468 0.8795
-11.0447 -30.0417 -2.3469 0.8795
-8.8853 -30.7592 -2.3475 0.8795
-7.7882 -31.0622 -2.3480 0.8795
-5.5645 -31.5508 -2.3491 0.8794
-4.4406 -31.7358 -2.3496 0.8794
-3.3107 -31.8809 -2.3501 0.8794
-2.1761 -31.9858 -2.3507 0.8793
-25.1259 -6.6492 -2.4952 0.9008
-24.8745 -7.5381 -2.4953 0.9008
-24.5917 -8.4177 -2.4954 0.9008
-24.2778 -9.2867 -2.4955 0.9008
-23.9333 -10.1440 -2.4956 0.9008
-23.1543 -11.8195 -2.4958 0.9008
-22.7207 -12.6356 -2.4959 0.9008
-21.7680 -14.2192 -2.4962 0.9008
-21.2501 -14.9846 -2.4963 0.9008
-20.0159 -15.2075 -2.4133 0.9039
-16.5331 -17.9861 -2.3454 0.9065
-13.8236 -20.1565 -2.3465 0.9065
-12.3600 -21.0929 -2.3471 0.9064
-11.6041 -21.5218 -2.3474 0.9064
-10.0489 -22.2981 -2.3481 0.9064
-8.4421 -22.9625 -2.3488 0.9064
-7.6218 -23.2516 -2.3491 0.9064
-6.7917 -23.5116 -2.3495 0.9063
-5.1061 -23.9425 -2.3503 0.9063
-4.2527 -24.1129 -2.3507 0.9063
-3.3936 -24.2530 -2.3511 0.9063
-2.5299 -24.3626 -2.3515 0.9063
-20.6471 -3.9196 -2.4964 0.9188
-20.4951 -4.6510 -2.4964 0.9188
-19.6312 -7.5092 -2.4967 0.9188
-19.3525 -8.2025 -2.4968 0.9188
-18.3714 -10.2169 -2.4970 0.9188
-17.9975 -10.8638 -2.4971 0.9188
-16.7412 -12.7195 -2.4975 0.9188
-15.2946 -14.4314 -2.4979 0.9188
-13.0185 -15.2142 -2.3785 0.9225
-11.7440 -15.8830 -2.3464 0.9235
-10.5875 -16.6793 -2.3467 0.9235
-8.7617 -17.7307 -2.3493 0.9234
-5.4921 -19.0124 -2.3507 0.9234
-3.0238 -17.1454 -2.0681 0.9323
-2.7438 -19.6094 -2.3520 0.9233
-17.1881 -3.9006 -2.4973 0.9313
-17.0389 -4.5091 -2.4973 0.9313
-16.8683 -5.1119 -2.4974 0.9313
-16.6763 -5.7083 -2.4974 0.9313
-16.1815 -6.8584 -2.4902 0.9315
-15.0928 -9.1104 -2.4979 0.9313
-14.4086 -10.1603 -2.4981 0.9313
-14.0389 -10.6664 -2.4982 0.9312
-13.6515 -11.1591 -2.4983 0.9312
-12.3879 -12.5504 -2.4986 0.9312
-11.4662 -13.4001 -2.4989 0.9312
-10.4865 -14.1822 -2.4991 0.9312
-9.9763 -14.5467 -2.4993 0.9312
-9.4536 -14.8929 -2.4994 0.9312
-8.9026 -15.1927 -2.4950 0.9313
-8.1964 -15.2016 -2.4470 0.9326
-5.1621 -15.7479 -2.3481 0.9352
-4.0309 -16.0768 -2.3484 0.9352
-3.4572 -16.2110 -2.3486 0.9352
-2.8791 -16.3247 -2.3487 0.9352
-2.2972 -16.4177 -2.3489 0.9352
-1.7124 -16.4901 -2.3490 0.9352
-1.1253 -16.5416 -2.3492 0.9352
-14.5116 -4.3977 -2.4980 0.9404
-13.9620 -5.9177 -2.4982 0.9404
-12.6975 -8.2942 -2.4985 0.9404
-12.3951 -8.7405 -2.4986 0.9404
-11.3956 -10.0113 -2.4989 0.9404
-10.6565 -10.7963 -2.4991 0.9404
-10.2665 -11.1687 -2.4992 0.9404
-9.4480 -11.8708 -2.4994 0.9403
-8.1319 -12.8108 -2.4997 0.9403
-7.6719 -13.0924 -2.4998 0.9403
-5.7403 -14.0503 -2.5004 0.9403
-4.7282 -14.4241 -2.5006 0.9403
-4.2128 -14.5839 -2.5008 0.9403
-3.6920 -14.7252 -2.5009 0.9403
-2.6370 -14.9519 -2.5012 0.9403
-2.1041 -15.0370 -2.5013 0.9403
-1.5684 -15.1031 -2.5015 0.9403
-12.9625 -2.9416 -2.4984 0.9473
-12.8499 -3.4005 -2.4984 0.9473
-12.5763 -4.3048 -2.4985 0.9473
-12.2392 -5.1875 -2.4986 0.9473
-11.6183 -6.4612 -2.4988 0.9473
-11.3816 -6.8703 -2.4988 0.9473
-11.1306 -7.2706 -2.4989 0.9473
-10.5866 -8.0434 -2.4990 0.9473
-9.9892 -8.7757 -2.4992 0.9473
-9.6712 -9.1254 -2.4993 0.9473
-8.6460 -10.1042 -2.4996 0.9473
-8.2817 -10.4055 -2.4997 0.9473
-7.9070 -10.6937 -2.4998 0.9473
-7.5222 -10.9683 -2.4999 0.9473
-6.7247 -11.4760 -2.5001 0.9473
-6.3129 -11.7082 -2.5002 0.9473
-5.8930 -11.9257 -2.5003 0.9473
-5.4657 -12.1281 -2.5004 0.9473
-4.5908 -12.4869 -2.5006 0.9473
-3.6925 -12.7827 -2.5009 0.9473
-2.7754 -13.0140 -2.5011 0.9473
-1.8442 -13.1795 -2.5014 0.9473
-11.5281 -2.6161 -2.4988 0.9528
-11.4279 -3.0242 -2.4988 0.9528
-11.3134 -3.4285 -2.4988 0.9528
-11.1846 -3.8285 -2.4989 0.9528
-11.0416 -4.2236 -2.4989 0.9528
-9.8986 -6.4659 -2.4992 0.9528
-9.6628 -6.8138 -2.4993 0.9528
-8.6007 -8.1153 -2.4996 0.9528
-8.3071 -8.4161 -2.4996 0.9528
-7.3649 -9.2535 -2.4999 0.9528
-7.0316 -9.5097 -2.5000 0.9528
-6.6894 -9.7540 -2.5001 0.9528
-5.9801 -10.2053 -2.5003 0.9528
-4.4743 -10.9515 -2.5007 0.9528
-3.6853 -11.2426 -2.5009 0.9528
-3.2835 -11.3669 -2.5010 0.9528
-2.8776 -11.4769 -2.5011 0.9528
-2.0552 -11.6534 -2.5013 0.9528
-1.6399 -11.7196 -2.5014 0.9528
-0.8032 -11.8075 -2.5016 0.9528
-10.2795 -2.7203 -2.4991 0.9572
-10.1764 -3.0839 -2.4991 0.9572
-9.6373 -4.4952 -2.4993 0.9572
-9.1046 -5.4958 -2.4994 0.9572
-8.6916 -6.1290 -2.4995 0.9572
-8.4685 -6.4341 -2.4996 0.9572
-8.2347 -6.7312 -2.4997 0.9572
-7.7362 -7.2996 -2.4998 0.9572
-7.4721 -7.5701 -2.4999 0.9572
-6.3247 -8.5537 -2.5002 0.9572
-6.0169 -8.7733 -2.5002 0.9572
-5.7014 -8.9819 -2.5003 0.9572
-4.7135 -9.5387 -2.5006 0.9572
-2.9533 -10.2238 -2.5011 0.9572
-2.2198 -10.4085 -2.5013 0.9572
-1.8485 -10.4812 -2.5013 0.9572
-1.4749 -10.5407 -2.5014 0.9572
-1.0994 -10.5869 -2.5015 0.9572
-0.7225 -10.6197 -2.5016 0.9572
-9.4835 -1.8003 -2.4993 0.9609
-9.3318 -2.4695 -2.4993 0.9609
-9.2382 -2.7996 -2.4994 0.9609
-9.1330 -3.1262 -2.4994 0.9609
-8.8881 -3.7672 -2.4995 0.9609
-8.7487 -4.0807 -2.4995 0.9609
-8.4371 -4.6921 -2.4996 0.9609
-7.2536 -6.3725 -2.4999 0.9609
-7.0227 -6.6264 -2.5000 0.9609
-6.7830 -6.8720 -2.5000 0.9609
-6.5346 -7.1089 -2.5001 0.9609
-6.2780 -7.3368 -2.5002 0.9609
-5.1755 -8.1534 -2.5005 0.9609
-4.2787 -8.6588 -2.5007 0.9609
-3.9684 -8.8057 -2.5008 0.9609
-3.6530 -8.9415 -2.5009 0.9609
-3.3331 -9.0660 -2.5010 0.9609
-3.0088 -9.1790 -2.5010 0.9609
-2.6808 -9.2804 -2.5011 0.9609
-2.0150 -9.4481 -2.5013 0.9609
-8.6743 -1.6467 -2.4995 0.9640
-8.6104 -1.9540 -2.4995 0.9640
-8.5356 -2.2588 -2.4995 0.9640
-8.3537 -2.8595 -2.4996 0.9640
-8.2469 -3.1546 -2.4996 0.9640
-8.1297 -3.4457 -2.4997 0.9640
-8.0022 -3.7326 -2.4997 0.9640
-7.5598 -4.5633 -2.4998 0.9640
-7.3930 -4.8292 -2.4999 0.9640
-7.2169 -5.0890 -2.4999 0.9640
-7.0316 -5.3424 -2.5000 0.9640
-6.8374 -5.5890 -2.5000 0.9640
-6.4234 -6.0609 -2.5001 0.9640
-5.9769 -6.5022 -2.5002 0.9639
-5.7422 -6.7106 -2.5003 0.9639
-5.5002 -6.9107 -2.5004 0.9639
-4.4658 -7.6212 -2.5006 0.9639
-4.1923 -7.7754 -2.5007 0.9639
-3.6296 -8.0540 -2.5009 0.9639
-3.3412 -8.1781 -2.5009 0.9639
-2.7520 -8.3953 -2.5011 0.9639
-1.8429 -8.6414 -2.5013 0.9639
-1.5347 -8.7017 -2.5014 0.9639
-1.2245 -8.7511 -2.5015 0.9639
-0.9127 -8.7893 -2.5016 0.9639
-7.9255 -1.7986 -2.4997 0.9666
-7.8566 -2.0791 -2.4997 0.9666
-7.4830 -3.1716 -2.4998 0.9666
-7.3657 -3.4356 -2.4999 0.9666
-7.1032 -3.9503 -2.4999 0.9666
-6.6427 -4.6842 -2.5001 0.9666
-6.2934 -5.1444 -2.5001 0.9666
-5.7105 -5.7854 -2.5003 0.9666
-5.5014 -5.9849 -2.5004 0.9666
-5.2853 -6.1767 -2.5004 0.9666
-4.8334 -6.5369 -2.5005 0.9665
-4.3571 -6.8641 -2.5007 0.9665
-4.1105 -7.0148 -2.5007 0.9665
-3.8587 -7.1566 -2.5008 0.9665
-3.3408 -7.4130 -2.5009 0.9665
-3.0753 -7.5273 -2.5010 0.9665
-2.8059 -7.6321 -2.5011 0.9665
-1.6962 -7.9536 -2.5014 0.9665
-1.4125 -8.0091 -2.5014 0.9665
-7.2703 -1.9239 -2.4999 0.9688
-7.1974 -2.1811 -2.4999 0.9688
-7.0244 -2.6869 -2.4999 0.9688
-6.9245 -2.9349 -2.5000 0.9688
-6.6987 -3.4195 -2.5000 0.9688
-6.4391 -3.8868 -2.5001 0.9688
-6.2970 -4.1132 -2.5001 0.9688
-5.9891 -4.5503 -2.5002 0.9688
-5.6509 -4.9645 -2.5003 0.9688
-4.2549 -6.2041 -2.5007 0.9688
-3.8036 -6.4910 -2.5008 0.9688
-3.5706 -6.6223 -2.5009 0.9688
-3.3331 -6.7452 -2.5009 0.9688
-3.0913 -6.8595 -2.5010 0.9688
-2.8457 -6.9653 -2.5011 0.9688
-2.0882 -7.2292 -2.5013 0.9688
-1.8301 -7.2990 -2.5013 0.9688
-1.5696 -7.3596 -2.5014 0.9688
-1.3070 -7.4110 -2.5015 0.9688
-1.0429 -7.4529 -2.5015 0.9688
-0.5108 -7.5086 -2.5017 0.9688
-6.8175 -1.5471 -2.5000 0.9707
-6.5297 -2.4977 -2.5001 0.9707
-6.4368 -2.7282 -2.5001 0.9707
-6.2269 -3.1787 -2.5001 0.9707
-5.8535 -3.8236 -2.5003 0.9707
-5.7140 -4.0292 -2.5003 0.9707
-5.5672 -4.2298 -2.5003 0.9707
-5.4135 -4.4251 -2.5004 0.9707
-5.2529 -4.6148 -2.5004 0.9707
-4.9120 -4.9764 -2.5005 0.9707
-3.9551 -5.7671 -2.5008 0.9707
-3.5356 -6.0338 -2.5009 0.9707
-3.0982 -6.2699 -2.5010 0.9707
-2.8736 -6.3763 -2.5010 0.9707
-2.1787 -6.6464 -2.5012 0.9707
-1.7012 -6.7847 -2.5014 0.9707
-0.9694 -6.9278 -2.5016 0.9707
-0.4748 -6.9795 -2.5017 0.9707
-6.4095 -1.2168 -2.5001 0.9724
-6.0936 -2.3309 -2.5002 0.9724
-6.0070 -2.5460 -2.5002 0.9724
-5.9127 -2.7579 -2.5002 0.9724
-5.8110 -2.9663 -2.5003 0.9724
-5.7020 -3.1710 -2.5003 0.9724
-5.5858 -3.3717 -2.5003 0.9724
-5.1954 -3.9473 -2.5004 0.9724
-5.0519 -4.1295 -2.5005 0.9724
-4.9020 -4.3065 -2.5005 0.9724
-4.7459 -4.4781 -2.5005 0.9724
-4.2425 -4.9581 -2.5007 0.9724
-3.6909 -5.3818 -2.5008 0.9724
-3.4974 -5.5097 -2.5009 0.9724
-3.2994 -5.6306 -2.5009 0.9724
-2.8912 -5.8511 -2.5010 0.9724
-2.0331 -6.2023 -2.5013 0.9724
-1.8114 -6.2708 -2.5013 0.9724
-1.5874 -6.3313 -2.5014 0.9724
-1.3615 -6.3839 -2.5014 0.9724
-1.1338 -6.4284 -2.5015 0.9724
-0.9046 -6.4648 -2.5016 0.9724
-0.6743 -6.4930 -2.5016 0.9724
-0.4431 -6.5130 -2.5017 0.9724
-6.0017 -1.1393 -2.5002 0.9739
-5.9574 -1.3519 -2.5002 0.9739
-5.9056 -1.5628 -2.5002 0.9739
-5.8464 -1.7717 -2.5002 0.9739
-5.3392 -2.9693 -2.5004 0.9739
-5.2303 -3.1572 -2.5004 0.9739
-5.1149 -3.3411 -2.5004 0.9739
-4.9930 -3.5208 -2.5005 0.9739
-4.7304 -3.8667 -2.5005 0.9739
-4.4439 -4.1931 -2.5006 0.9739
-3.8052 -4.7809 -2.5008 0.9739
-3.0895 -5.2723 -2.5010 0.9739
-2.9002 -5.3788 -2.5010 0.9739
-2.7072 -5.4786 -2.5011 0.9739
-2.5108 -5.5715 -2.5011 0.9739
-2.1088 -5.7360 -2.5012 0.9739
-1.4864 -5.9283 -2.5014 0.9739
-1.2748 -5.9775 -2.5015 0.9739
-1.0616 -6.0192 -2.5015 0.9739
-0.8470 -6.0532 -2.5016 0.9739
-0.4149 -6.0984 -2.5017 0.9739
-5.6363 -1.0700 -2.5003 0.9753
-5.5948 -1.2696 -2.5003 0.9753
-5.4905 -1.6639 -2.5003 0.9753
-5.4280 -1.8580 -2.5003 0.9753
-5.3586 -2.0497 -2.5004 0.9753
-5.1101 -2.6085 -2.5004 0.9753
-4.9120 -2.9650 -2.5005 0.9753
-4.6890 -3.3065 -2.5006 0.9753
-4.5687 -3.4711 -2.5006 0.9753
-4.1734 -3.9379 -2.5007 0.9753
-3.4117 -4.6141 -2.5009 0.9753
-3.2456 -4.7325 -2.5009 0.9753
-3.0754 -4.8449 -2.5010 0.9753
-2.9013 -4.9513 -2.5010 0.9753
-2.5424 -5.1451 -2.5011 0.9753
-1.9804 -5.3868 -2.5013 0.9753
-1.7878 -5.4538 -2.5013 0.9753
-1.5928 -5.5140 -2.5014 0.9753
-1.1971 -5.6135 -2.5015 0.9753
-0.9969 -5.6526 -2.5015 0.9753
-5.3069 -1.0075 -2.5004 0.9765
-5.0454 -1.9299 -2.5004 0.9765
-4.9736 -2.1080 -2.5005 0.9765
-4.8956 -2.2835 -2.5005 0.9765
-4.8114 -2.4561 -2.5005 0.9765
-4.5228 -2.9543 -2.5006 0.9765
-4.0587 -3.5656 -2.5007 0.9765
-3.9295 -3.7077 -2.5008 0.9765
-3.7952 -3.8450 -2.5008 0.9765
-3.6563 -3.9776 -2.5008 0.9765
-3.0558 -4.4558 -2.5010 0.9765
-2.7317 -4.6618 -2.5011 0.9765
-2.5644 -4.7560 -2.5011 0.9765
-2.3937 -4.8443 -2.5012 0.9765
-2.0437 -5.0022 -2.5013 0.9765
-0.5582 -5.3756 -2.5016 0.9765
-0.3669 -5.3921 -2.5017 0.9765
-5.0080 -0.9507 -2.5005 0.9775
-4.8785 -1.4784 -2.5005 0.9775
-4.6935 -1.9893 -2.5005 0.9775
-4.6199 -2.1549 -2.5006 0.9775
-4.5404 -2.3178 -2.5006 0.9775
-4.3644 -2.6345 -2.5006 0.9775
-4.2680 -2.7879 -2.5007 0.9775
-4.0593 -3.0842 -2.5007 0.9775
-3.9472 -3.2265 -2.5007 0.9775
-3.7081 -3.4988 -2.5008 0.9775
-3.3148 -3.8738 -2.5009 0.9775
-3.1751 -3.9893 -2.5010 0.9775
-3.0313 -4.0996 -2.5010 0.9775
-2.8837 -4.2048 -2.5010 0.9775
-2.7325 -4.3047 -2.5011 0.9775
-2.4199 -4.4881 -2.5012 0.9775
-2.2589 -4.5714 -2.5012 0.9775
-1.9286 -4.7204 -2.5013 0.9775
-1.7596 -4.7861 -2.5013 0.9775
-1.5884 -4.8457 -2.5014 0.9775
-1.2402 -4.9465 -2.5015 0.9775
-0.7067 -5.0506 -2.5016 0.9775
-0.5268 -5.0727 -2.5017 0.9775
-0.3462 -5.0883 -2.5017 0.9775
-4.7354 -0.8990 -2.5005 0.9785
-4.7005 -1.0667 -2.5005 0.9785
-4.6129 -1.3979 -2.5006 0.9785
-4.5020 -1.7221 -2.5006 0.9785
-4.4380 -1.8810 -2.5006 0.9785
-4.2127 -2.3428 -2.5007 0.9785
-4.0357 -2.6362 -2.5007 0.9785
-3.9395 -2.7780 -2.5007 0.9785
-3.7323 -3.0509 -2.5008 0.9785
-3.6215 -3.1816 -2.5008 0.9785
-3.2625 -3.5491 -2.5009 0.9785
-3.1343 -3.6629 -2.5010 0.9785
-3.0021 -3.7720 -2.5010 0.9785
-2.8663 -3.8764 -2.5010 0.9785
-2.5837 -4.0704 -2.5011 0.9785
-2.2881 -4.2437 -2.5012 0.9785
-1.9810 -4.3957 -2.5013 0.9785
-1.8235 -4.4634 -2.5013 0.9785
-1.6638 -4.5255 -2.5014 0.9785
-1.5019 -4.5818 -2.5014 0.9785
-1.3381 -4.6324 -2.5014 0.9785
-1.0057 -4.7159 -2.5015 0.9785
-0.8375 -4.7487 -2.5016 0.9785
-0.4981 -4.7964 -2.5017 0.9785
-4.4855 -0.8515 -2.5006 0.9794
-4.4524 -1.0104 -2.5006 0.9794
-4.3694 -1.3241 -2.5006 0.9794
-4.3196 -1.4786 -2.5006 0.9794
-4.1378 -1.9300 -2.5007 0.9794
-4.0666 -2.0759 -2.5007 0.9794
-3.9089 -2.3596 -2.5007 0.9794
-3.8226 -2.4970 -2.5008 0.9794
-3.5353 -2.8898 -2.5008 0.9794
-3.4303 -3.0136 -2.5009 0.9794
-3.3211 -3.1337 -2.5009 0.9794
-3.0902 -3.3618 -2.5010 0.9794
-2.8436 -3.5729 -2.5010 0.9794
-2.7149 -3.6717 -2.5011 0.9794
-2.5828 -3.7660 -2.5011 0.9794
-2.4473 -3.8554 -2.5011 0.9794
-2.3088 -3.9400 -2.5012 0.9794
-2.0231 -4.0942 -2.5013 0.9794
-1.7272 -4.2277 -2.5013 0.9794
-1.2675 -4.3878 -2.5015 0.9794
-1.1107 -4.4301 -2.5015 0.9794
-0.9527 -4.4669 -2.5015 0.9794
-0.7933 -4.4980 -2.5016 0.9794
-4.0979 -1.4027 -2.5007 0.9802
-3.9880 -1.6903 -2.5007 0.9802
-3.7083 -2.2384 -2.5008 0.9802
-3.3538 -2.7415 -2.5009 0.9802
-3.2543 -2.8589 -2.5009 0.9802
-3.0430 -3.0829 -2.5010 0.9802
-2.8164 -3.2914 -2.5010 0.9802
-2.5756 -3.4833 -2.5011 0.9802
-2.4502 -3.5726 -2.5011 0.9802
-2.3217 -3.6575 -2.5012 0.9802
-2.0560 -3.8133 -2.5012 0.9802
-1.3496 -4.1171 -2.5014 0.9802
-1.2024 -4.1625 -2.5015 0.9802
-1.0537 -4.2026 -2.5015 0.9802
-0.9037 -4.2375 -2.5015 0.9802
-0.6004 -4.2911 -2.5016 0.9802
-0.2941 -4.3231 -2.5017 0.9802
