ply
format ascii 1.0
element vertex 563
property float32 x
property float32 y
property float32 z
property float32 I
end_header
42.6837 -8.1463 7.6621 0.8382
42.8906 -6.6027 7.6518 0.8384
44.7281 -5.2527 7.9410 0.8328
44.8077 -2.0274 7.9089 0.8334
44.8867 1.1883 7.9175 0.8333
42.7843 4.2129 7.5805 0.8398
42.7707 7.3347 7.6517 0.8384
42.8100 8.9314 7.7111 0.8373
42.8501 10.5552 7.7815 0.8359
40.7261 13.1897 7.5483 0.8404
40.7668 14.8370 7.6495 0.8384
40.9715 18.3326 7.9146 0.8333
39.7180 19.5090 7.8026 0.8355
33.0241 9.4020 5.2602 0.8703
42.5261 19.0282 7.1372 0.8282
39.0856 -3.1752 5.1065 0.8537
39.1576 -3.1810 4.2186 0.8538
32.9659 6.8776 3.6162 0.8733
39.6440 19.4726 4.7429 0.8372
7.0423 12.7418 1.5633 0.9431
5.1839 13.7083 1.5738 0.9427
4.6106 13.6520 1.5473 0.9437
4.0565 13.6009 1.5241 0.9445
5.5206 13.1534 1.2076 0.9443
39.0942 -3.1759 2.4322 0.8545
4.7683 12.6093 0.8359 0.9474
4.2577 12.6070 0.8251 0.9481
3.7513 12.5774 0.8139 0.9488
38.6939 -3.1434 1.5308 0.8561
39.2470 19.2776 1.7242 0.8394
34.5156 18.5174 1.5445 0.8549
5.0858 12.1175 0.5182 0.9488
4.5834 12.1203 0.5109 0.9495
3.6158 12.1233 0.4988 0.9506
34.4924 18.5050 0.6612 0.8551
5.3094 14.0401 0.2536 0.9417
33.8712 -6.4644 -0.1941 0.8712
33.8531 -0.3174 -0.1906 0.8733
33.8500 0.8961 -0.1906 0.8733
33.8396 4.5616 -0.1922 0.8723
33.8371 5.8027 -0.1933 0.8717
33.8288 8.3330 -0.1962 0.8699
33.8247 9.6299 -0.1980 0.8688
33.8207 10.9533 -0.2002 0.8674
33.8117 15.1290 -0.2086 0.8623
33.8030 18.1352 -0.2160 0.8577
33.7931 19.7210 -0.2203 0.8551
33.7892 21.3777 -0.2251 0.8522
33.7859 24.9344 -0.2364 0.8454
33.7688 28.8769 -0.2502 0.8372
33.7725 31.0429 -0.2583 0.8324
33.7624 33.3433 -0.2672 0.8271
5.2583 13.9049 -0.0837 0.9423
5.3759 15.9181 -0.0946 0.9350
33.8704 -6.4643 -0.9709 0.8711
33.8686 -5.2137 -0.9649 0.8719
33.8567 -1.5320 -0.9543 0.8732
33.8506 0.8961 -0.9535 0.8733
33.8391 4.5616 -0.9615 0.8723
33.8366 5.8026 -0.9667 0.8716
33.8256 9.6302 -0.9903 0.8687
33.8215 10.9536 -1.0010 0.8674
33.8173 12.3078 -1.0133 0.8659
33.8151 13.6983 -1.0273 0.8642
33.8066 16.6054 -1.0606 0.8601
33.8022 18.1347 -1.0801 0.8577
33.7893 21.3778 -1.1259 0.8521
33.7854 23.1110 -1.1526 0.8489
33.7868 24.9350 -1.1824 0.8453
33.7785 26.8506 -1.2150 0.8414
33.7707 31.0413 -1.2916 0.8323
5.3094 14.0401 -0.4227 0.9417
3.6131 12.1143 -0.3560 0.9507
33.8696 -6.4641 -1.7487 0.8710
33.8678 -5.2136 -1.7378 0.8718
33.8659 -3.9770 -1.7293 0.8723
33.8604 -2.7507 -1.7229 0.8728
33.8573 -1.5320 -1.7188 0.8731
33.8511 0.8962 -1.7173 0.8732
33.8481 2.1118 -1.7199 0.8730
33.8411 3.3323 -1.7245 0.8727
33.8263 9.6304 -1.7836 0.8686
33.8181 12.3080 -1.8251 0.8658
33.8143 13.6979 -1.8502 0.8641
33.8059 16.6051 -1.9101 0.8600
33.8015 18.1343 -1.9453 0.8576
33.7894 21.3778 -2.0278 0.8520
33.7690 31.0397 -2.3261 0.8322
33.0778 32.6672 -2.3577 0.8301
31.8818 33.8270 -2.3574 0.8301
31.4771 35.8919 -2.4210 0.8260
29.8752 39.4399 -2.5092 0.8202
26.9656 41.4658 -2.5085 0.8203
20.7509 44.8641 -2.5068 0.8204
5.3018 15.6986 -0.8403 0.9358
3.6131 12.1143 -0.6411 0.9506
31.5830 -6.0280 -2.3575 0.8790
32.0489 -2.6035 -2.3576 0.8790
32.1432 0.8509 -2.3576 0.8790
31.9990 3.1509 -2.3576 0.8790
31.8650 4.2954 -2.3575 0.8790
31.6899 5.4343 -2.3575 0.8790
31.4935 8.9662 -2.4009 0.8769
31.4881 10.1979 -2.4268 0.8757
31.4752 12.7505 -2.4900 0.8727
30.7210 15.0897 -2.5096 0.8717
30.1586 16.1799 -2.5094 0.8717
29.5576 17.2492 -2.5093 0.8717
27.5297 20.3172 -2.5087 0.8718
26.7819 21.2890 -2.5085 0.8718
25.9996 22.2333 -2.5083 0.8718
23.4572 24.8884 -2.5077 0.8718
22.5481 25.7106 -2.5074 0.8718
21.6102 26.4995 -2.5072 0.8718
18.6357 28.6567 -2.5064 0.8719
17.5949 29.3029 -2.5061 0.8719
7.0418 12.7409 -1.0674 0.9433
14.3437 31.0115 -2.5053 0.8719
5.3040 14.0257 -1.0995 0.9416
26.0430 -2.1156 -2.5085 0.9003
26.1021 -1.1810 -2.5085 0.9003
26.0778 1.6271 -2.5085 0.9003
26.0025 2.5604 -2.5084 0.9003
25.8937 3.4905 -2.5084 0.9003
25.3681 6.2489 -2.5083 0.9003
25.1272 7.1537 -2.5082 0.9003
24.8539 8.0493 -2.5081 0.9003
23.8439 10.6689 -2.5078 0.9004
23.4453 11.5160 -2.5077 0.9004
23.0165 12.3482 -2.5076 0.9004
22.5581 13.1644 -2.5075 0.9004
22.0707 13.9636 -2.5074 0.9004
21.0116 15.5068 -2.5071 0.9004
20.4411 16.2487 -2.5069 0.9004
19.2224 17.6688 -2.5066 0.9004
17.9051 18.9976 -2.5063 0.9004
15.7593 20.8047 -2.5057 0.9004
7.0418 12.7408 -1.3976 0.9432
11.7935 23.2710 -2.5047 0.9005
10.9511 23.6766 -2.5044 0.9005
5.0846 13.4456 -1.3801 0.9439
4.5458 13.4600 -1.3639 0.9445
20.7320 -3.9568 -2.5071 0.9185
20.8607 -3.2113 -2.5072 0.9185
20.9626 -2.4618 -2.5072 0.9185
21.0853 -0.9540 -2.5072 0.9185
21.1059 -0.1979 -2.5072 0.9185
21.0994 0.5586 -2.5072 0.9185
20.9171 2.8197 -2.5071 0.9185
20.8023 3.5674 -2.5071 0.9185
20.4927 5.0479 -2.5070 0.9185
20.0776 6.5024 -2.5069 0.9185
19.8311 7.2175 -2.5068 0.9185
19.5592 7.9233 -2.5067 0.9185
18.5940 9.9755 -2.5065 0.9185
18.2238 10.6350 -2.5064 0.9185
17.8303 11.2808 -2.5063 0.9185
16.9750 12.5277 -2.5061 0.9185
16.0325 13.7100 -2.5058 0.9185
15.5301 14.2749 -2.5057 0.9185
15.0078 14.8215 -2.5055 0.9185
14.4662 15.3488 -2.5054 0.9185
13.3281 16.3436 -2.5051 0.9186
12.7331 16.8097 -2.5049 0.9186
12.1218 17.2540 -2.5048 0.9186
7.0417 12.7407 -1.7292 0.9430
9.5296 18.8039 -2.5041 0.9186
5.2611 12.5351 -1.6148 0.9467
17.4826 -2.6913 -2.5063 0.9310
17.6881 -0.1658 -2.5063 0.9310
17.6826 0.4681 -2.5063 0.9310
17.6544 1.1015 -2.5063 0.9310
17.5299 2.3630 -2.5063 0.9310
17.1743 4.2305 -2.5062 0.9310
16.8266 5.4495 -2.5061 0.9310
16.6201 6.0489 -2.5060 0.9310
16.3923 6.6404 -2.5059 0.9310
16.1433 7.2233 -2.5059 0.9310
15.8737 7.7970 -2.5058 0.9310
15.5836 8.3605 -2.5057 0.9310
15.2735 8.9133 -2.5056 0.9310
14.9437 9.4545 -2.5055 0.9311
14.5948 9.9836 -2.5055 0.9311
11.6556 13.2904 -2.5047 0.9311
10.1604 14.4622 -2.5043 0.9311
9.0975 15.1511 -2.5040 0.9311
4.8855 12.9191 -1.9570 0.9457
15.0327 -2.3142 -2.5056 0.9402
15.1061 -1.7740 -2.5057 0.9402
15.1600 -1.2315 -2.5057 0.9402
15.1944 -0.6875 -2.5057 0.9402
15.2046 0.4025 -2.5057 0.9402
15.0733 2.0319 -2.5056 0.9402
14.7677 3.6377 -2.5055 0.9402
14.6276 4.1645 -2.5055 0.9402
13.6496 6.7045 -2.5052 0.9402
13.4002 7.1891 -2.5052 0.9402
13.1336 7.6645 -2.5051 0.9402
11.9022 9.4611 -2.5048 0.9402
9.6067 11.7803 -2.5042 0.9402
8.7375 12.4369 -2.5039 0.9402
7.7811 11.9652 -2.3513 0.9438
5.6827 12.2861 -2.2300 0.9466
5.2356 12.4743 -2.2287 0.9466
4.7821 12.6458 -2.2272 0.9467
13.2372 -1.5545 -2.5052 0.9472
13.2845 -1.0792 -2.5052 0.9472
13.3147 -0.6024 -2.5052 0.9472
13.3236 0.3527 -2.5052 0.9472
13.1362 2.2527 -2.5051 0.9472
12.9408 3.1877 -2.5051 0.9472
12.5234 4.5579 -2.5050 0.9472
12.3518 5.0036 -2.5049 0.9472
11.7427 6.2999 -2.5047 0.9472
11.2607 7.1244 -2.5046 0.9472
10.7210 7.9122 -2.5045 0.9472
10.4302 8.2910 -2.5044 0.9472
10.1261 8.6592 -2.5043 0.9472
9.8089 9.0162 -2.5042 0.9472
9.4792 9.3615 -2.5041 0.9472
8.0432 10.6183 -2.5038 0.9472
6.0960 10.1524 -2.2258 0.9529
4.5812 10.9152 -2.2250 0.9530
11.6395 -2.2214 -2.5048 0.9527
11.7117 -1.8029 -2.5048 0.9527
11.7689 -1.3821 -2.5048 0.9527
11.8109 -0.9595 -2.5048 0.9527
11.8493 -0.1111 -2.5048 0.9527
11.6790 2.0028 -2.5048 0.9527
11.5054 2.8341 -2.5047 0.9527
11.3963 3.2446 -2.5047 0.9527
10.9818 4.4486 -2.5046 0.9527
10.4403 5.6012 -2.5044 0.9527
9.7782 6.6888 -2.5042 0.9527
9.2736 7.3716 -2.5041 0.9527
8.4281 8.3235 -2.5039 0.9527
7.8098 8.9052 -2.5037 0.9527
7.1514 9.4410 -2.5035 0.9527
6.8003 9.6794 -2.5005 0.9528
5.7249 9.5344 -2.3508 0.9556
3.7719 9.9744 -2.2541 0.9573
10.4673 -1.9977 -2.5045 0.9572
10.6214 -0.8629 -2.5045 0.9572
10.6559 -0.0999 -2.5045 0.9572
10.6527 0.2820 -2.5045 0.9572
10.6051 1.0443 -2.5045 0.9572
10.5608 1.4236 -2.5045 0.9572
10.5029 1.8011 -2.5045 0.9572
10.4315 2.1763 -2.5044 0.9572
10.3468 2.5487 -2.5044 0.9572
10.2487 2.9178 -2.5044 0.9572
10.0131 3.6442 -2.5043 0.9572
9.5637 4.6976 -2.5042 0.9572
9.2023 5.3703 -2.5041 0.9572
9.0037 5.6965 -2.5040 0.9572
8.7937 6.0153 -2.5040 0.9572
8.5722 6.3264 -2.5039 0.9572
8.3398 6.6294 -2.5039 0.9572
8.0967 6.9238 -2.5038 0.9572
7.8432 7.2093 -2.5037 0.9572
7.5796 7.4855 -2.5037 0.9572
7.3063 7.7521 -2.5036 0.9572
7.0236 8.0087 -2.5035 0.9572
5.7254 8.8041 -2.4682 0.9578
4.5210 8.9208 -2.3505 0.9597
4.1983 9.0768 -2.3504 0.9597
3.8702 9.2211 -2.3503 0.9597
3.5371 9.3535 -2.3502 0.9597
3.1996 9.4738 -2.3501 0.9597
2.8579 9.5821 -2.3500 0.9597
9.6621 -0.4372 -2.5042 0.9608
9.6716 -0.0907 -2.5042 0.9608
9.6253 0.9478 -2.5042 0.9608
9.5327 1.6347 -2.5042 0.9608
9.4679 1.9753 -2.5042 0.9608
9.3019 2.6483 -2.5041 0.9608
9.2010 2.9799 -2.5041 0.9608
8.9637 3.6311 -2.5040 0.9608
8.8276 3.9499 -2.5040 0.9608
8.5218 4.5719 -2.5039 0.9608
7.9815 5.4597 -2.5038 0.9608
6.1103 7.4927 -2.5033 0.9608
5.5576 7.9106 -2.5031 0.9608
4.6089 8.3391 -2.4670 0.9614
3.8121 8.2419 -2.3512 0.9632
3.5129 8.3697 -2.3502 0.9632
8.7849 -1.0316 -2.5040 0.9639
8.8162 -0.7162 -2.5040 0.9639
8.8362 -0.3998 -2.5040 0.9639
8.8281 0.5508 -2.5040 0.9639
8.6587 1.8064 -2.5040 0.9639
8.5883 2.1156 -2.5040 0.9639
8.5069 2.4219 -2.5039 0.9639
8.3114 3.0249 -2.5039 0.9639
8.1975 3.3208 -2.5038 0.9639
6.5105 5.9843 -2.5034 0.9639
6.2918 6.2136 -2.5033 0.9639
6.0649 6.4350 -2.5033 0.9639
3.9964 7.8858 -2.5027 0.9639
3.7112 8.0237 -2.5027 0.9639
3.4212 8.1513 -2.5026 0.9639
3.0995 8.1963 -2.4807 0.9642
2.4476 8.2067 -2.4244 0.9650
7.9962 -1.5261 -2.5038 0.9665
8.0850 -0.9495 -2.5038 0.9665
8.1322 -0.3680 -2.5039 0.9665
8.1402 -0.0763 -2.5039 0.9665
8.1377 0.2154 -2.5038 0.9665
8.1247 0.5069 -2.5038 0.9665
8.1013 0.7977 -2.5038 0.9665
7.9688 1.6625 -2.5038 0.9665
7.9041 1.9470 -2.5038 0.9665
7.7442 2.5080 -2.5037 0.9665
7.6493 2.7839 -2.5037 0.9665
7.0300 4.1026 -2.5035 0.9665
6.5488 4.8331 -2.5034 0.9665
6.1856 5.2895 -2.5033 0.9665
5.9919 5.5076 -2.5033 0.9665
5.3659 6.1185 -2.5031 0.9665
5.1431 6.3067 -2.5030 0.9665
4.1888 6.9761 -2.5028 0.9665
3.4157 7.3848 -2.5026 0.9665
2.8778 7.6100 -2.5024 0.9665
2.3253 7.7962 -2.5023 0.9665
7.3985 -1.4120 -2.5037 0.9687
7.5244 -0.3404 -2.5037 0.9687
7.5317 -0.0706 -2.5037 0.9687
7.5294 0.1993 -2.5037 0.9687
7.4645 1.0062 -2.5037 0.9687
7.4236 1.2731 -2.5037 0.9688
7.3731 1.5383 -2.5036 0.9688
7.3133 1.8015 -2.5036 0.9688
6.9806 2.8278 -2.5035 0.9688
6.8747 3.0761 -2.5035 0.9688
6.7600 3.3204 -2.5035 0.9688
6.6365 3.5605 -2.5034 0.9688
6.5046 3.7960 -2.5034 0.9688
6.2158 4.2519 -2.5033 0.9688
6.0594 4.4719 -2.5033 0.9688
5.8951 4.6861 -2.5032 0.9688
5.7234 4.8942 -2.5032 0.9688
5.1647 5.4798 -2.5031 0.9688
4.7588 5.8354 -2.5029 0.9688
4.5465 6.0021 -2.5029 0.9688
4.3284 6.1610 -2.5028 0.9688
3.6420 6.5895 -2.5027 0.9688
3.4034 6.7156 -2.5026 0.9688
2.9135 6.9417 -2.5025 0.9688
2.6629 7.0415 -2.5024 0.9688
2.4087 7.1322 -2.5023 0.9688
6.8767 -1.3124 -2.5035 0.9707
6.9193 -1.0652 -2.5035 0.9707
6.9779 -0.5669 -2.5036 0.9707
7.0006 -0.0656 -2.5036 0.9707
6.9984 0.1853 -2.5036 0.9707
6.9873 0.4359 -2.5036 0.9707
6.9671 0.6860 -2.5035 0.9707
6.9000 1.1833 -2.5035 0.9707
6.8532 1.4298 -2.5035 0.9707
6.4883 2.6284 -2.5034 0.9707
6.3899 2.8591 -2.5034 0.9707
6.2832 3.0862 -2.5034 0.9707
6.1686 3.3094 -2.5033 0.9707
5.7775 3.9521 -2.5032 0.9707
5.6321 4.1565 -2.5032 0.9707
5.4795 4.3556 -2.5031 0.9707
4.9801 4.9183 -2.5030 0.9707
4.6149 5.2621 -2.5029 0.9707
4.4233 5.4240 -2.5029 0.9707
4.0232 5.7266 -2.5028 0.9707
3.6026 5.9998 -2.5026 0.9707
3.3852 6.1249 -2.5026 0.9707
3.1635 6.2422 -2.5025 0.9707
2.9377 6.3514 -2.5025 0.9707
2.4751 6.5451 -2.5024 0.9707
1.9999 6.7053 -2.5022 0.9707
6.4168 -1.2247 -2.5034 0.9724
6.4881 -0.7620 -2.5034 0.9724
6.5113 -0.5290 -2.5034 0.9724
6.5260 -0.2953 -2.5034 0.9724
6.5304 0.1729 -2.5034 0.9724
6.3429 1.5625 -2.5034 0.9724
6.2828 1.7887 -2.5034 0.9724
6.1385 2.2341 -2.5033 0.9724
6.0544 2.4526 -2.5033 0.9724
5.9626 2.6679 -2.5033 0.9724
5.8631 2.8799 -2.5032 0.9724
5.7561 3.0881 -2.5032 0.9724
5.5199 3.4923 -2.5032 0.9724
5.3912 3.6879 -2.5031 0.9724
5.2555 3.8786 -2.5031 0.9724
5.1131 4.0644 -2.5030 0.9724
4.3063 4.9103 -2.5028 0.9724
4.1275 5.0614 -2.5028 0.9724
3.9434 5.2059 -2.5027 0.9724
3.7543 5.3438 -2.5027 0.9724
3.1589 5.7155 -2.5025 0.9724
2.5271 6.0211 -2.5024 0.9724
2.0893 6.1863 -2.5023 0.9724
6.0748 -0.7134 -2.5033 0.9739
6.1103 -0.2765 -2.5033 0.9739
6.1163 -0.0573 -2.5033 0.9739
6.0870 0.5994 -2.5033 0.9739
6.0616 0.8171 -2.5033 0.9739
5.9875 1.2492 -2.5033 0.9739
5.9388 1.4629 -2.5033 0.9739
5.8187 1.8845 -2.5032 0.9739
5.6687 2.2964 -2.5032 0.9739
5.4896 2.6964 -2.5032 0.9739
5.3894 2.8914 -2.5031 0.9739
5.0478 3.4529 -2.5030 0.9739
4.3511 4.2971 -2.5028 0.9739
4.1943 4.4502 -2.5028 0.9739
4.0321 4.5976 -2.5028 0.9739
3.5152 5.0034 -2.5026 0.9739
3.1477 5.2421 -2.5025 0.9739
2.9577 5.3515 -2.5025 0.9739
2.7640 5.4539 -2.5024 0.9739
2.5667 5.5494 -2.5024 0.9739
2.3662 5.6376 -2.5023 0.9739
1.9562 5.7924 -2.5022 0.9739
1.7474 5.8587 -2.5022 0.9739
5.6419 -1.0768 -2.5032 0.9752
5.6769 -0.8739 -2.5032 0.9752
5.7326 0.3577 -2.5032 0.9752
5.6922 0.7673 -2.5032 0.9752
5.6226 1.1730 -2.5032 0.9752
5.5769 1.3738 -2.5032 0.9752
5.5241 1.5727 -2.5032 0.9752
5.3233 2.1564 -2.5031 0.9753
5.2426 2.3458 -2.5031 0.9753
5.1551 2.5321 -2.5031 0.9753
5.0610 2.7152 -2.5030 0.9753
4.9604 2.8948 -2.5030 0.9753
4.8534 3.0706 -2.5030 0.9753
4.6209 3.4103 -2.5029 0.9753
4.3646 3.7324 -2.5029 0.9753
4.2281 3.8863 -2.5028 0.9753
4.0860 4.0353 -2.5028 0.9753
3.9388 4.1790 -2.5027 0.9753
3.3010 4.6986 -2.5026 0.9753
2.9559 4.9228 -2.5025 0.9753
2.5956 5.1217 -2.5024 0.9753
2.4104 5.2113 -2.5023 0.9753
2.0309 5.3704 -2.5022 0.9753
1.6409 5.5018 -2.5021 0.9753
5.3447 -0.8228 -2.5031 0.9764
5.3708 -0.6307 -2.5031 0.9764
5.3900 -0.4379 -2.5031 0.9764
5.4075 -0.0507 -2.5031 0.9764
5.3972 0.3367 -2.5031 0.9764
5.3817 0.5299 -2.5031 0.9764
5.3299 0.9140 -2.5031 0.9764
5.2506 1.2934 -2.5031 0.9764
5.2009 1.4807 -2.5031 0.9764
5.1445 1.6661 -2.5031 0.9764
5.0814 1.8494 -2.5031 0.9764
5.0119 2.0303 -2.5030 0.9764
4.9359 2.2086 -2.5030 0.9764
4.4629 3.0529 -2.5029 0.9764
4.3506 3.2108 -2.5029 0.9764
3.8470 3.7992 -2.5027 0.9764
3.7084 3.9346 -2.5027 0.9765
3.5649 4.0649 -2.5026 0.9765
3.1079 4.4238 -2.5025 0.9765
2.7830 4.6349 -2.5024 0.9765
2.2694 4.9065 -2.5023 0.9765
2.0921 4.9846 -2.5023 0.9765
1.9121 5.0563 -2.5022 0.9765
1.5449 5.1800 -2.5021 0.9765
5.0123 -0.9566 -2.5031 0.9775
5.0434 -0.7764 -2.5031 0.9775
5.1011 0.1351 -2.5031 0.9775
5.0783 0.5001 -2.5031 0.9775
5.0571 0.6817 -2.5031 0.9775
4.9953 1.0422 -2.5030 0.9775
4.9077 1.3972 -2.5030 0.9775
4.7950 1.7451 -2.5030 0.9775
4.7293 1.9158 -2.5030 0.9775
4.6576 2.0840 -2.5029 0.9775
4.5799 2.2496 -2.5029 0.9775
4.2113 2.8808 -2.5028 0.9775
3.8777 3.3160 -2.5027 0.9775
3.6302 3.5851 -2.5027 0.9775
3.3640 3.8358 -2.5026 0.9775
2.9328 4.1745 -2.5025 0.9775
2.6262 4.3737 -2.5024 0.9775
2.4677 4.4649 -2.5024 0.9775
2.3061 4.5504 -2.5023 0.9775
1.9742 4.7037 -2.5022 0.9775
1.6321 4.8328 -2.5021 0.9775
1.4579 4.8881 -2.5021 0.9775
4.7392 -0.9045 -2.5030 0.9785
4.8089 -0.3907 -2.5030 0.9785
4.8016 0.4728 -2.5030 0.9785
4.6847 1.1540 -2.5030 0.9785
4.6403 1.3211 -2.5029 0.9785
4.5899 1.4865 -2.5029 0.9785
4.5337 1.6500 -2.5029 0.9785
4.4716 1.8114 -2.5029 0.9785
4.4038 1.9705 -2.5029 0.9785
4.0770 2.5794 -2.5028 0.9785
3.9818 2.7238 -2.5028 0.9785
3.5517 3.2646 -2.5026 0.9785
3.4323 3.3898 -2.5026 0.9785
3.3087 3.5105 -2.5026 0.9785
3.0487 3.7384 -2.5025 0.9785
2.9127 3.8452 -2.5025 0.9785
2.7730 3.9470 -2.5024 0.9785
2.1804 4.3025 -2.5023 0.9785
2.0249 4.3778 -2.5022 0.9785
1.7060 4.5114 -2.5022 0.9785
1.5433 4.5696 -2.5021 0.9785
4.4888 -0.8567 -2.5029 0.9794
4.5166 -0.6953 -2.5029 0.9794
4.5387 -0.5330 -2.5029 0.9794
4.5548 -0.3700 -2.5029 0.9794
4.5697 -0.0428 -2.5029 0.9794
4.5479 0.4478 -2.5029 0.9794
4.5041 0.7724 -2.5029 0.9794
4.4372 1.0930 -2.5029 0.9794
4.2942 1.5629 -2.5029 0.9794
4.1712 1.8664 -2.5028 0.9794
3.8616 2.4431 -2.5027 0.9794
3.5770 2.8433 -2.5027 0.9794
3.4727 2.9696 -2.5026 0.9794
3.3640 3.0922 -2.5026 0.9794
3.2511 3.2107 -2.5026 0.9794
3.1339 3.3251 -2.5025 0.9794
2.7588 3.6421 -2.5024 0.9794
2.6265 3.7385 -2.5024 0.9794
2.3519 3.9169 -2.5023 0.9794
2.2100 3.9986 -2.5023 0.9794
2.0653 4.0752 -2.5023 0.9794
1.9179 4.1465 -2.5022 0.9794
1.4618 4.3282 -2.5021 0.9794
1.3057 4.3777 -2.5021 0.9794
4.2583 -0.8127 -2.5029 0.9802
4.3209 -0.3510 -2.5029 0.9802
4.3349 -0.0406 -2.5029 0.9802
4.2727 0.7327 -2.5029 0.9802
4.2437 0.8854 -2.5028 0.9802
4.2092 1.0369 -2.5028 0.9802
4.0736 1.4826 -2.5028 0.9802
3.8199 2.0493 -2.5027 0.9802
3.7439 2.1849 -2.5027 0.9802
3.6632 2.3176 -2.5027 0.9802
3.4877 2.5740 -2.5026 0.9802
3.2944 2.8171 -2.5026 0.9802
3.1912 2.9333 -2.5026 0.9802
3.0841 3.0458 -2.5025 0.9802
2.9729 3.1543 -2.5025 0.9802
2.8579 3.2588 -2.5025 0.9802
2.7393 3.3590 -2.5024 0.9802
2.6171 3.4550 -2.5024 0.9802
2.4916 3.5465 -2.5024 0.9802
2.3629 3.6335 -2.5023 0.9802
2.2311 3.7158 -2.5023 0.9802
2.0965 3.7933 -2.5023 0.9802
1.9592 3.8659 -2.5022 0.9802
1.8194 3.9336 -2.5022 0.9802
1.5329 4.0537 -2.5021 0.9802
1.3867 4.1059 -2.5021 0.9802
