ply
format ascii 1.0
element vertex 532
property float32 x
property float32 y
property float32 z
property float32 I
end_header
37.8107 -29.8671 8.4961 0.8223
37.8602 -27.7698 8.2790 0.8264
37.9074 -25.7745 8.0828 0.8301
37.8389 -23.7979 7.8819 0.8340
42.3743 -15.3302 7.9457 0.8327
42.4561 -12.0112 7.7800 0.8359
42.7520 -7.2753 7.6467 0.8385
42.9270 -5.7364 7.6365 0.8387
37.0866 -3.6136 6.5703 0.8595
43.1205 -1.1085 7.6058 0.8393
37.6848 -25.6232 6.9812 0.8316
41.4001 -26.0376 7.4923 0.8204
30.6839 -17.8016 4.6193 0.8667
37.7596 -20.1400 5.5728 0.8415
37.3584 -15.0448 5.2445 0.8501
37.3957 -13.5290 5.1786 0.8518
37.0996 -3.6149 4.8540 0.8604
28.2123 -17.7434 3.5788 0.8745
37.2394 -19.8625 4.5321 0.8438
37.7806 -18.4497 4.5148 0.8444
37.3581 -15.0447 4.3247 0.8504
37.1715 -3.6219 4.0104 0.8605
37.1528 -23.3664 3.7154 0.8385
37.2392 -19.8624 3.5728 0.8442
37.3195 -16.6014 3.4577 0.8488
37.3579 -15.0446 3.4093 0.8507
37.4318 -12.0489 3.3288 0.8540
40.3317 -11.4101 3.5482 0.8451
37.1713 -3.6218 3.1616 0.8608
37.2798 -18.2051 2.5727 0.8468
37.3577 -15.0445 2.4974 0.8509
37.4315 -12.0488 2.4384 0.8542
36.9213 -3.5975 2.3004 0.8619
36.1427 -26.5101 1.7674 0.8357
37.1523 -23.3661 1.7306 0.8389
30.6834 -17.8013 1.3987 0.8676
37.2387 -19.8621 1.6642 0.8446
37.3948 -13.5287 1.5680 0.8528
37.4313 -12.0488 1.5505 0.8544
36.1425 -26.5099 0.7571 0.8358
30.6833 -17.8012 0.5992 0.8677
36.8295 -16.3835 0.6809 0.8511
36.8115 -14.8246 0.6703 0.8532
36.7990 -13.3132 0.6610 0.8551
36.7917 -11.8429 0.6529 0.8567
40.3317 -11.4101 0.7080 0.8456
37.1518 -23.3658 -0.2471 0.8390
30.6832 -17.8011 -0.1997 0.8677
37.2382 -19.8619 -0.2376 0.8447
37.2865 -16.5868 -0.2297 0.8494
37.3570 -15.0443 -0.2267 0.8512
37.3944 -13.5286 -0.2239 0.8529
37.4309 -12.0487 -0.2214 0.8545
40.3317 -11.4102 -0.2360 0.8456
31.8964 -6.6077 -0.1834 0.8778
31.8946 -5.4276 -0.1821 0.8786
36.9296 -31.3762 -1.3645 0.8237
35.9439 -28.3926 -1.2898 0.8325
35.3963 -25.9627 -1.2360 0.8389
37.1474 -25.2578 -1.2649 0.8355
37.1516 -23.3656 -1.2358 0.8389
37.2380 -19.8617 -1.1884 0.8446
35.6234 -17.3962 -1.1163 0.8533
37.2863 -16.5867 -1.1491 0.8493
37.4307 -12.0486 -1.1072 0.8544
31.8975 -7.8054 -0.9247 0.8769
31.8957 -6.6076 -0.9172 0.8778
31.8921 -4.2618 -0.9060 0.8792
31.8904 -3.1072 -0.9022 0.8797
31.8798 -0.8195 -0.8980 0.8802
7.4867 -48.7984 -2.5037 0.8206
12.6686 -47.7423 -2.5050 0.8205
16.0489 -46.7320 -2.5058 0.8205
17.7103 -46.1367 -2.5062 0.8204
20.9645 -44.7695 -2.5071 0.8204
22.5532 -43.9992 -2.5074 0.8203
27.1414 -41.3538 -2.5086 0.8203
29.5562 -35.9610 -2.3607 0.8299
30.7743 -34.8295 -2.3571 0.8302
32.0023 -33.7126 -2.3574 0.8301
34.3350 -31.3503 -2.3579 0.8301
35.4366 -30.1077 -2.3582 0.8301
35.7647 -28.2510 -2.3114 0.8332
35.4966 -24.1354 -2.1769 0.8420
35.6867 -22.4443 -2.1380 0.8446
35.8838 -14.4510 -1.9618 0.8565
35.9197 -12.9951 -1.9372 0.8581
35.9546 -11.5734 -1.9155 0.8596
31.8967 -7.8052 -1.6653 0.8768
31.8949 -6.6074 -1.6519 0.8777
31.8914 -4.2616 -1.6317 0.8791
4.8616 -31.6882 -2.3506 0.8793
13.3752 -31.4394 -2.5051 0.8719
14.4909 -30.9452 -2.5054 0.8719
15.5883 -30.4113 -2.5057 0.8719
16.6660 -29.8384 -2.5060 0.8719
17.7227 -29.2274 -2.5062 0.8719
18.7569 -28.5788 -2.5065 0.8719
20.7527 -27.1726 -2.5070 0.8719
23.5459 -24.8043 -2.5076 0.8718
24.4187 -23.9498 -2.5079 0.8718
25.2604 -23.0645 -2.5081 0.8718
29.5119 -17.1216 -2.5017 0.8721
29.5203 -15.7453 -2.4531 0.8744
29.5278 -14.4195 -2.4094 0.8765
30.2267 -10.9354 -2.3569 0.8790
30.5990 -9.8495 -2.3570 0.8790
30.9323 -8.7510 -2.3570 0.8790
31.2260 -7.6412 -2.3571 0.8790
31.6932 -5.3934 -2.3572 0.8790
31.8809 -0.8196 -2.3383 0.8799
3.7199 -24.2463 -2.3550 0.9061
5.4310 -23.8759 -2.3508 0.9063
6.6880 -25.2042 -2.5035 0.9005
8.4712 -24.6670 -2.5039 0.9005
10.2119 -24.0037 -2.5043 0.9005
13.5297 -22.3125 -2.5052 0.9005
15.8418 -20.7425 -2.5057 0.9004
17.2842 -19.5617 -2.5061 0.9004
18.6387 -18.2807 -2.5064 0.9004
19.2807 -17.6046 -2.5066 0.9004
19.8982 -16.9060 -2.5067 0.9004
21.0564 -15.4445 -2.5070 0.9004
22.1072 -13.9038 -2.5073 0.9004
22.5907 -13.1062 -2.5074 0.9004
23.0453 -12.2917 -2.5075 0.9004
23.4704 -11.4615 -2.5076 0.9004
23.8656 -10.6165 -2.5077 0.9004
24.2303 -9.7579 -2.5078 0.9004
24.5641 -8.8868 -2.5079 0.9004
25.3755 -6.2095 -2.5081 0.9003
25.5816 -5.2996 -2.5081 0.9003
25.7550 -4.3828 -2.5081 0.9003
26.0767 -1.6036 -2.5082 0.9003
3.7052 -19.4815 -2.3556 0.9232
4.3964 -19.3276 -2.3545 0.9233
5.0800 -19.1444 -2.3528 0.9233
5.7562 -18.9371 -2.3511 0.9234
6.8455 -19.9330 -2.5035 0.9186
8.9397 -19.0906 -2.5040 0.9186
10.2807 -18.4063 -2.5043 0.9186
10.9321 -18.0287 -2.5045 0.9186
12.7997 -16.7593 -2.5050 0.9186
13.3909 -16.2925 -2.5051 0.9186
13.9648 -15.8049 -2.5053 0.9186
17.0113 -12.4775 -2.5060 0.9185
17.4468 -11.8626 -2.5061 0.9185
17.8599 -11.2326 -2.5062 0.9185
19.2799 -8.5766 -2.5066 0.9185
19.8439 -7.1791 -2.5067 0.9185
20.3065 -5.7448 -2.5068 0.9185
20.9188 -2.7954 -2.5069 0.9185
21.0652 -1.2954 -2.5070 0.9185
21.0981 -0.5424 -2.5070 0.9185
2.5177 -16.4103 -2.3524 0.9351
3.6799 -16.1779 -2.3508 0.9352
4.2979 -16.1969 -2.3743 0.9345
5.1378 -16.9023 -2.5031 0.9311
6.3317 -16.4945 -2.5034 0.9311
8.0606 -15.7255 -2.5038 0.9311
8.6174 -15.4285 -2.5039 0.9311
9.6976 -14.7757 -2.5042 0.9311
10.2195 -14.4208 -2.5043 0.9311
10.7285 -14.0474 -2.5044 0.9311
11.2238 -13.6560 -2.5046 0.9311
11.7048 -13.2471 -2.5047 0.9311
12.1709 -12.8213 -2.5048 0.9311
13.4739 -11.4477 -2.5051 0.9311
14.2577 -10.4577 -2.5053 0.9311
14.9687 -9.4142 -2.5055 0.9311
15.2957 -8.8740 -2.5056 0.9311
15.8910 -7.7601 -2.5057 0.9310
16.6309 -6.0167 -2.5059 0.9310
17.1798 -4.2040 -2.5060 0.9310
17.3193 -3.5879 -2.5061 0.9310
17.4365 -2.9672 -2.5061 0.9310
17.6041 -1.7153 -2.5061 0.9310
17.6542 -1.0856 -2.5061 0.9310
17.6817 -0.4546 -2.5061 0.9310
2.3035 -15.0142 -2.5024 0.9403
3.3695 -14.8131 -2.5026 0.9403
4.4185 -14.5363 -2.5029 0.9403
4.9350 -14.3700 -2.5030 0.9403
6.4444 -13.7619 -2.5034 0.9403
6.9320 -13.5237 -2.5035 0.9403
7.4108 -13.2682 -2.5036 0.9403
8.7884 -12.4012 -2.5040 0.9402
9.6518 -11.7434 -2.5042 0.9402
10.4662 -11.0255 -2.5044 0.9402
11.5865 -9.8441 -2.5047 0.9402
12.2603 -8.9927 -2.5048 0.9402
13.4172 -7.1564 -2.5051 0.9402
14.1065 -5.6809 -2.5053 0.9402
14.9932 -2.5514 -2.5055 0.9402
15.1803 -0.9335 -2.5055 0.9402
2.9531 -12.9824 -2.5025 0.9473
3.4149 -12.8693 -2.5026 0.9473
4.3251 -12.5939 -2.5029 0.9472
4.7722 -12.4320 -2.5030 0.9472
5.2133 -12.2542 -2.5031 0.9472
6.0751 -11.8519 -2.5033 0.9472
6.4947 -11.6279 -2.5034 0.9472
7.3085 -11.1356 -2.5036 0.9472
8.4584 -10.2913 -2.5039 0.9472
8.8208 -9.9831 -2.5040 0.9472
9.1720 -9.6621 -2.5041 0.9472
9.5114 -9.3287 -2.5041 0.9472
9.8387 -8.9835 -2.5042 0.9472
10.4554 -8.2589 -2.5044 0.9472
10.7440 -7.8805 -2.5044 0.9472
11.0188 -7.4921 -2.5045 0.9472
11.2796 -7.0940 -2.5046 0.9472
11.5260 -6.6869 -2.5046 0.9472
11.9744 -5.8475 -2.5047 0.9472
12.1758 -5.4163 -2.5048 0.9472
12.9451 -3.1677 -2.5050 0.9472
13.1384 -2.2358 -2.5050 0.9472
13.2100 -1.7653 -2.5050 0.9472
1.7951 -11.7007 -2.5022 0.9528
2.2119 -11.6296 -2.5023 0.9528
2.6258 -11.5437 -2.5024 0.9528
3.0364 -11.4430 -2.5025 0.9528
3.4433 -11.3278 -2.5026 0.9527
4.6354 -10.8959 -2.5029 0.9527
5.4016 -10.5381 -2.5031 0.9527
5.7747 -10.3388 -2.5032 0.9527
6.1404 -10.1264 -2.5033 0.9527
6.8479 -9.6631 -2.5035 0.9527
7.1888 -9.4127 -2.5036 0.9527
7.8428 -8.8762 -2.5037 0.9527
9.5525 -7.0066 -2.5041 0.9527
9.7968 -6.6612 -2.5042 0.9527
10.0286 -6.3073 -2.5043 0.9527
10.6463 -5.1990 -2.5044 0.9527
10.9906 -4.4261 -2.5045 0.9527
11.2787 -3.6305 -2.5046 0.9527
11.6026 -2.4036 -2.5046 0.9527
11.6811 -1.9878 -2.5047 0.9527
11.8269 -0.7273 -2.5047 0.9527
1.6145 -10.5234 -2.5022 0.9572
1.9893 -10.4594 -2.5023 0.9572
2.7310 -10.2916 -2.5025 0.9572
3.0968 -10.1879 -2.5025 0.9572
3.4587 -10.0711 -2.5026 0.9572
3.8162 -9.9416 -2.5027 0.9572
5.5223 -9.1071 -2.5031 0.9572
6.1586 -8.6904 -2.5033 0.9572
6.4652 -8.4652 -2.5034 0.9572
7.3340 -7.7259 -2.5036 0.9572
7.6053 -7.4593 -2.5037 0.9572
7.8671 -7.1832 -2.5037 0.9572
8.1187 -6.8979 -2.5038 0.9572
9.0188 -5.6722 -2.5040 0.9572
9.2158 -5.3467 -2.5041 0.9572
9.4011 -5.0143 -2.5041 0.9572
9.5743 -4.6754 -2.5041 0.9572
9.7352 -4.3307 -2.5042 0.9572
9.8838 -3.9804 -2.5042 0.9572
10.1430 -3.2649 -2.5043 0.9572
10.2531 -2.9007 -2.5043 0.9572
10.3503 -2.5328 -2.5043 0.9572
10.4342 -2.1616 -2.5043 0.9572
10.6359 -0.6540 -2.5044 0.9572
10.6524 -0.2738 -2.5044 0.9572
1.4655 -9.5521 -2.5021 0.9609
2.1436 -9.4238 -2.5023 0.9609
2.4788 -9.3415 -2.5024 0.9609
3.1394 -9.1414 -2.5026 0.9609
3.4639 -9.0237 -2.5026 0.9608
3.7840 -8.8946 -2.5027 0.9608
4.0993 -8.7541 -2.5028 0.9608
4.4094 -8.6024 -2.5029 0.9608
4.7139 -8.4397 -2.5029 0.9608
5.3046 -8.0822 -2.5031 0.9608
6.1389 -7.4692 -2.5033 0.9608
7.5879 -5.9938 -2.5037 0.9608
7.7973 -5.7192 -2.5037 0.9608
8.6899 -4.2436 -2.5039 0.9608
8.9709 -3.6127 -2.5040 0.9608
9.3061 -2.6327 -2.5041 0.9608
9.3942 -2.2988 -2.5041 0.9608
9.5344 -1.6225 -2.5041 0.9608
9.5863 -1.2810 -2.5041 0.9608
9.6260 -0.9379 -2.5041 0.9608
9.6534 -0.5936 -2.5042 0.9608
1.6514 -8.6831 -2.5022 0.9639
1.9605 -8.6188 -2.5023 0.9639
2.5708 -8.4575 -2.5024 0.9639
2.8712 -8.3605 -2.5025 0.9639
3.1680 -8.2529 -2.5026 0.9639
3.7491 -8.0062 -2.5027 0.9639
4.3112 -7.7187 -2.5028 0.9639
4.8514 -7.3917 -2.5030 0.9639
5.3668 -7.0270 -2.5031 0.9639
5.6144 -6.8310 -2.5032 0.9639
5.8548 -6.6264 -2.5032 0.9639
6.3131 -6.1919 -2.5033 0.9639
6.5303 -5.9627 -2.5034 0.9639
6.7392 -5.7258 -2.5034 0.9639
6.9395 -5.4816 -2.5035 0.9639
7.8035 -4.1622 -2.5037 0.9639
7.9472 -3.8809 -2.5037 0.9639
8.0809 -3.5947 -2.5038 0.9639
8.5107 -2.4077 -2.5039 0.9639
8.6609 -1.7942 -2.5039 0.9639
8.7670 -1.1715 -2.5039 0.9639
8.8033 -0.8577 -2.5039 0.9639
8.8283 -0.5429 -2.5039 0.9639
8.8421 -0.2273 -2.5039 0.9639
1.5200 -7.9918 -2.5022 0.9665
2.0866 -7.8633 -2.5023 0.9665
2.6426 -7.6948 -2.5024 0.9665
3.1852 -7.4870 -2.5026 0.9665
3.9679 -7.1040 -2.5028 0.9665
4.7051 -6.6394 -2.5029 0.9665
4.9393 -6.4673 -2.5030 0.9665
5.1672 -6.2870 -2.5031 0.9665
5.3885 -6.0986 -2.5031 0.9665
6.0101 -5.4877 -2.5033 0.9665
6.2024 -5.2697 -2.5033 0.9665
6.7307 -4.5764 -2.5034 0.9665
7.0404 -4.0846 -2.5035 0.9665
7.1818 -3.8306 -2.5035 0.9665
7.5505 -3.0407 -2.5036 0.9665
7.6544 -2.7692 -2.5037 0.9665
7.7484 -2.4941 -2.5037 0.9665
7.8327 -2.2159 -2.5037 0.9665
7.9068 -1.9348 -2.5037 0.9665
7.9709 -1.6513 -2.5037 0.9665
8.0685 -1.0782 -2.5038 0.9665
8.1019 -0.7894 -2.5038 0.9665
1.9307 -7.2759 -2.5023 0.9688
2.4452 -7.1199 -2.5024 0.9688
2.9472 -6.9276 -2.5025 0.9688
3.1928 -6.8181 -2.5026 0.9688
3.6714 -6.5732 -2.5027 0.9688
3.9039 -6.4380 -2.5027 0.9688
4.1313 -6.2947 -2.5028 0.9688
4.5702 -5.9841 -2.5029 0.9688
4.7811 -5.8172 -2.5030 0.9688
4.9859 -5.6429 -2.5030 0.9688
5.3761 -5.2728 -2.5031 0.9688
5.7389 -4.8759 -2.5032 0.9688
5.9094 -4.6679 -2.5032 0.9688
6.0724 -4.4540 -2.5033 0.9688
6.2277 -4.2344 -2.5033 0.9688
6.7675 -3.3048 -2.5034 0.9688
7.0823 -2.5622 -2.5035 0.9688
7.2472 -2.0503 -2.5036 0.9688
7.3159 -1.7902 -2.5036 0.9688
7.3751 -1.5279 -2.5036 0.9688
7.4250 -1.2635 -2.5036 0.9688
7.5176 -0.4623 -2.5036 0.9688
1.0610 -6.9157 -2.5020 0.9707
1.5519 -6.8227 -2.5022 0.9707
2.2728 -6.6181 -2.5023 0.9707
2.5077 -6.5328 -2.5024 0.9707
2.7395 -6.4393 -2.5025 0.9707
3.1921 -6.2276 -2.5026 0.9707
3.4126 -6.1098 -2.5026 0.9707
3.8401 -5.8509 -2.5027 0.9707
4.4440 -5.4070 -2.5029 0.9707
4.8187 -5.0763 -2.5030 0.9707
5.1689 -4.7196 -2.5031 0.9707
5.3342 -4.5321 -2.5031 0.9707
5.4928 -4.3388 -2.5031 0.9707
5.9255 -3.7267 -2.5032 0.9707
6.2902 -3.0718 -2.5033 0.9707
6.4935 -2.6151 -2.5034 0.9707
6.5829 -2.3815 -2.5034 0.9707
6.6637 -2.1450 -2.5034 0.9707
6.7999 -1.6640 -2.5034 0.9707
6.8550 -1.4201 -2.5035 0.9707
6.9390 -0.9273 -2.5035 0.9707
6.9875 -0.4297 -2.5035 0.9707
0.9901 -6.4535 -2.5020 0.9724
1.8990 -6.2473 -2.5022 0.9724
2.1209 -6.1757 -2.5023 0.9724
2.3401 -6.0961 -2.5024 0.9724
2.7693 -5.9138 -2.5025 0.9724
2.9788 -5.8113 -2.5025 0.9724
3.5833 -5.4597 -2.5027 0.9724
3.9640 -5.1903 -2.5028 0.9724
4.3245 -4.8943 -2.5028 0.9724
4.4965 -4.7369 -2.5029 0.9724
4.6629 -4.5734 -2.5029 0.9724
4.9776 -4.2290 -2.5030 0.9724
5.5292 -3.4775 -2.5031 0.9724
5.6499 -3.2779 -2.5032 0.9724
5.9683 -2.6549 -2.5032 0.9724
6.0594 -2.4402 -2.5033 0.9724
6.1426 -2.2223 -2.5033 0.9724
6.3452 -1.5527 -2.5033 0.9724
6.4399 -1.0959 -2.5034 0.9724
6.5202 -0.4009 -2.5034 0.9724
6.5304 -0.1679 -2.5034 0.9724
1.1422 -6.0057 -2.5021 0.9739
2.3935 -5.6262 -2.5024 0.9739
2.5929 -5.5372 -2.5024 0.9739
2.7891 -5.4412 -2.5025 0.9739
2.9816 -5.3382 -2.5025 0.9739
3.1704 -5.2285 -2.5026 0.9739
3.5356 -4.9891 -2.5026 0.9739
4.0490 -4.5826 -2.5028 0.9739
4.5161 -4.1235 -2.5029 0.9739
4.6605 -3.9597 -2.5029 0.9739
4.9313 -3.6171 -2.5030 0.9739
5.0574 -3.4387 -2.5030 0.9739
5.4957 -2.6837 -2.5031 0.9739
5.6733 -2.2847 -2.5032 0.9739
5.7514 -2.0807 -2.5032 0.9739
5.9410 -1.4538 -2.5032 0.9739
5.9891 -1.2407 -2.5032 0.9739
6.0624 -0.8101 -2.5033 0.9739
6.0875 -0.5931 -2.5033 0.9739
1.2734 -5.5981 -2.5021 0.9753
1.6697 -5.4932 -2.5022 0.9753
2.4350 -5.1999 -2.5024 0.9753
2.8000 -5.0130 -2.5025 0.9753
3.6462 -4.4363 -2.5027 0.9753
4.3766 -3.7184 -2.5029 0.9753
4.6309 -3.3967 -2.5029 0.9753
5.0675 -2.7029 -2.5030 0.9753
5.1608 -2.5202 -2.5030 0.9753
5.2476 -2.3344 -2.5031 0.9753
5.4672 -1.7598 -2.5031 0.9753
5.5789 -1.3652 -2.5031 0.9753
5.6622 -0.9636 -2.5032 0.9752
5.6930 -0.7608 -2.5032 0.9752
5.7328 -0.3525 -2.5032 0.9752
5.7418 -0.1476 -2.5032 0.9752
1.0099 -5.3101 -2.5020 0.9765
1.3864 -5.2247 -2.5021 0.9765
1.5721 -5.1719 -2.5022 0.9765
1.7558 -5.1126 -2.5022 0.9765
1.9373 -5.0467 -2.5023 0.9765
2.4660 -4.8109 -2.5024 0.9765
2.6362 -4.7198 -2.5024 0.9765
3.4329 -4.1769 -2.5026 0.9765
3.5799 -4.0516 -2.5027 0.9765
3.7224 -3.9213 -2.5027 0.9765
3.8601 -3.7859 -2.5027 0.9764
4.1205 -3.5009 -2.5028 0.9764
4.2430 -3.3516 -2.5028 0.9764
4.3600 -3.1980 -2.5028 0.9764
4.4714 -3.0403 -2.5029 0.9764
4.5771 -2.8787 -2.5029 0.9764
4.6771 -2.7135 -2.5029 0.9764
4.7710 -2.5447 -2.5029 0.9764
4.8589 -2.3728 -2.5030 0.9764
4.9406 -2.1978 -2.5030 0.9764
5.2033 -1.4720 -2.5031 0.9764
5.2526 -1.2853 -2.5031 0.9764
5.2951 -1.0969 -2.5031 0.9764
5.3600 -0.7163 -2.5031 0.9764
5.3821 -0.5244 -2.5031 0.9764
1.3083 -4.9302 -2.5021 0.9775
1.4835 -4.8804 -2.5021 0.9775
1.8281 -4.7623 -2.5022 0.9775
2.1634 -4.6198 -2.5023 0.9775
2.4876 -4.4538 -2.5024 0.9775
2.7993 -4.2651 -2.5025 0.9775
3.0966 -4.0545 -2.5025 0.9775
3.2395 -3.9414 -2.5026 0.9775
3.3781 -3.8233 -2.5026 0.9775
3.6425 -3.5725 -2.5027 0.9775
3.7678 -3.4402 -2.5027 0.9775
3.8883 -3.3036 -2.5027 0.9775
4.3191 -2.7164 -2.5028 0.9775
4.4135 -2.5605 -2.5029 0.9775
4.5021 -2.4013 -2.5029 0.9775
4.7332 -1.9061 -2.5029 0.9775
4.9100 -1.3891 -2.5030 0.9775
5.0304 -0.8560 -2.5030 0.9775
5.0578 -0.6759 -2.5030 0.9775
5.1011 -0.1311 -2.5030 0.9775
0.9011 -4.7379 -2.5020 0.9785
2.5010 -4.1246 -2.5024 0.9785
2.6467 -4.0327 -2.5024 0.9785
2.7891 -3.9357 -2.5025 0.9785
2.9279 -3.8336 -2.5025 0.9785
3.1941 -3.6150 -2.5026 0.9785
3.8900 -2.8533 -2.5027 0.9785
4.0838 -2.5684 -2.5028 0.9785
4.4080 -1.9609 -2.5029 0.9785
4.6424 -1.3134 -2.5029 0.9785
4.6864 -1.1468 -2.5029 0.9785
4.7563 -0.8094 -2.5029 0.9785
4.8156 -0.2961 -2.5030 0.9785
4.8231 -0.1240 -2.5030 0.9785
0.6927 -4.5152 -2.5019 0.9794
0.8535 -4.4877 -2.5020 0.9794
1.0132 -4.4544 -2.5020 0.9794
1.1717 -4.4155 -2.5021 0.9794
1.3286 -4.3709 -2.5021 0.9794
1.6372 -4.2650 -2.5022 0.9794
1.7885 -4.2039 -2.5022 0.9794
1.9375 -4.1374 -2.5022 0.9794
2.2279 -3.9887 -2.5023 0.9794
2.7732 -3.6311 -2.5025 0.9794
3.3743 -3.0810 -2.5026 0.9794
3.4822 -2.9585 -2.5026 0.9794
3.5856 -2.8323 -2.5027 0.9794
3.6846 -2.7025 -2.5027 0.9794
3.8681 -2.4327 -2.5027 0.9794
4.1062 -2.0052 -2.5028 0.9794
4.2971 -1.5546 -2.5028 0.9794
4.3971 -1.2440 -2.5029 0.9794
4.4747 -0.9270 -2.5029 0.9794
4.5482 -0.4432 -2.5029 0.9794
4.5683 -0.1174 -2.5029 0.9794
0.6571 -4.2834 -2.5019 0.9802
0.8097 -4.2572 -2.5020 0.9802
1.2604 -4.1464 -2.5021 0.9802
1.6966 -3.9880 -2.5022 0.9802
1.9770 -3.8569 -2.5023 0.9802
2.2472 -3.7060 -2.5023 0.9802
2.3782 -3.6235 -2.5024 0.9802
2.6308 -3.4446 -2.5024 0.9802
2.8700 -3.2481 -2.5025 0.9802
3.0945 -3.0351 -2.5025 0.9802
3.2010 -2.9227 -2.5026 0.9802
3.3033 -2.8066 -2.5026 0.9802
3.4014 -2.6869 -2.5026 0.9802
3.4953 -2.5637 -2.5026 0.9802
3.7495 -2.1753 -2.5027 0.9802
3.8248 -2.0400 -2.5027 0.9802
3.8952 -1.9022 -2.5027 0.9802
4.1264 -1.3283 -2.5028 0.9802
4.1712 -1.1801 -2.5028 0.9802
4.2107 -1.0304 -2.5028 0.9802
4.2449 -0.8794 -2.5028 0.9802
