ply
format ascii 1.0
element vertex 506
property float32 x
property float32 y
property float32 z
property float32 I
end_header
-41.8646 -18.6418 5.9677 0.8312
-28.6847 -16.7181 4.3235 0.8747
-36.8271 0.5941 3.9551 0.8623
-36.8562 -0.7418 3.9585 0.8622
-36.6827 8.7308 3.1921 0.8595
-28.6720 -16.7107 1.3086 0.8756
-28.6691 -16.7090 0.5605 0.8757
-32.8309 -16.0695 -0.2058 0.8640
-36.8780 13.1458 -1.1024 0.8550
-31.5029 -16.8615 -1.0061 0.8668
-36.8782 13.1459 -1.9855 0.8549
-45.6206 12.6218 -2.4005 0.8273
-48.1749 9.6355 -2.4915 0.8214
-48.4692 7.8792 -2.4903 0.8215
-49.0308 2.5709 -2.4900 0.8215
-49.0833 -0.9879 -2.4897 0.8215
-49.0156 -2.7663 -2.4897 0.8215
-48.8838 -4.5413 -2.4898 0.8215
-48.6882 -6.3103 -2.4898 0.8215
-48.4286 -8.0712 -2.4899 0.8215
-48.1059 -9.8216 -2.4900 0.8215
-47.7201 -11.5593 -2.4901 0.8215
-47.2718 -13.2820 -2.4902 0.8215
-46.1905 -16.6736 -2.4905 0.8215
-44.8670 -19.9787 -2.4908 0.8214
-39.0075 -24.6708 -2.3407 0.8312
-33.9951 -31.3677 -2.3458 0.8309
-32.8369 -32.5804 -2.3459 0.8309
-26.4312 -37.9752 -2.3464 0.8308
-25.0392 -38.9112 -2.3466 0.8308
-22.1580 -40.6296 -2.3470 0.8308
-28.8661 10.2899 -2.2470 0.8843
-33.0850 7.8745 -2.4936 0.8725
-33.3479 6.6700 -2.4936 0.8725
-33.7422 4.2363 -2.4935 0.8725
-33.9597 1.7807 -2.4934 0.8725
-34.0019 0.5486 -2.4934 0.8725
-33.9995 -0.6843 -2.4934 0.8725
-33.9525 -1.9162 -2.4934 0.8725
-33.5454 -5.5907 -2.4935 0.8725
-33.3214 -6.8031 -2.4936 0.8725
-32.7429 -9.1998 -2.4937 0.8725
-31.9928 -11.5486 -2.4939 0.8725
-31.5545 -12.7012 -2.4940 0.8725
-30.5545 -14.9553 -2.4943 0.8725
-25.7174 -19.0065 -2.3447 0.8796
-24.2754 -20.8219 -2.3450 0.8796
-23.5059 -21.6892 -2.3451 0.8796
-21.8748 -23.3372 -2.3453 0.8796
-21.0153 -24.1156 -2.3454 0.8796
-15.3180 -28.0874 -2.3458 0.8796
-23.0724 8.2246 -2.3516 0.9063
-25.0533 6.9314 -2.4956 0.9008
-25.2875 6.0187 -2.4955 0.9008
-25.6563 4.1707 -2.4955 0.9008
-25.7902 3.2380 -2.4954 0.9008
-25.8904 2.3010 -2.4954 0.9008
-25.9889 0.4193 -2.4954 0.9008
-25.9870 -0.5230 -2.4954 0.9008
-25.8811 -2.4043 -2.4954 0.9008
-25.7773 -3.3409 -2.4954 0.9008
-25.4683 -5.1998 -2.4955 0.9008
-25.0258 -7.0315 -2.4956 0.9008
-24.7551 -7.9342 -2.4957 0.9008
-24.4520 -8.8265 -2.4958 0.9008
-24.1169 -9.7074 -2.4959 0.9008
-21.4591 -14.6874 -2.4965 0.9008
-19.1178 -15.2307 -2.3466 0.9064
-18.5388 -15.9014 -2.3448 0.9065
-14.6837 -19.5457 -2.3470 0.9064
-13.9672 -20.0675 -2.3473 0.9064
-13.2322 -20.5630 -2.3476 0.9064
-12.4797 -21.0318 -2.3479 0.9064
-19.7997 7.0580 -2.4969 0.9188
-20.0420 6.3355 -2.4968 0.9188
-20.2581 5.6048 -2.4968 0.9188
-20.4476 4.8667 -2.4967 0.9188
-20.6102 4.1223 -2.4967 0.9188
-20.7458 3.3725 -2.4967 0.9188
-20.8542 2.6182 -2.4966 0.9188
-20.9353 1.8606 -2.4966 0.9188
-21.0149 0.3390 -2.4966 0.9188
-21.0134 -0.4229 -2.4966 0.9188
-20.8437 -2.7015 -2.4967 0.9188
-20.7323 -3.4553 -2.4967 0.9188
-20.5938 -4.2045 -2.4967 0.9188
-20.4282 -4.9483 -2.4968 0.9188
-20.0168 -6.4155 -2.4969 0.9188
-19.5005 -7.8492 -2.4970 0.9188
-18.8817 -9.2419 -2.4971 0.9188
-18.5350 -9.9206 -2.4972 0.9188
-18.1639 -10.5863 -2.4973 0.9188
-17.3506 -11.8754 -2.4975 0.9188
-16.9095 -12.4970 -2.4976 0.9188
-15.9612 -13.6905 -2.4979 0.9188
-15.4553 -14.2608 -2.4980 0.9188
-14.9290 -14.8124 -2.4981 0.9188
-12.4285 -15.3523 -2.3463 0.9235
-11.8649 -15.7936 -2.3465 0.9235
-11.2853 -16.2143 -2.3466 0.9235
-16.9890 4.7003 -2.4976 0.9313
-17.1479 4.0814 -2.4975 0.9313
-17.2843 3.4571 -2.4975 0.9313
-17.3981 2.8283 -2.4975 0.9313
-17.4891 2.1958 -2.4975 0.9313
-17.6239 0.2843 -2.4974 0.9313
-17.6226 -0.3547 -2.4974 0.9313
-17.5982 -0.9932 -2.4974 0.9313
-17.5507 -1.6304 -2.4975 0.9313
-17.3868 -2.8977 -2.4975 0.9313
-17.1316 -4.1498 -2.4976 0.9313
-16.7865 -5.3802 -2.4977 0.9313
-16.1044 -7.1711 -2.4978 0.9313
-15.8343 -7.7503 -2.4979 0.9313
-13.7913 -10.9872 -2.4984 0.9312
-13.3845 -11.4804 -2.4985 0.9312
-12.0608 -12.8671 -2.4988 0.9312
-11.5871 -13.2965 -2.4989 0.9312
-11.0980 -13.7084 -2.4991 0.9312
-10.5943 -14.1023 -2.4992 0.9312
-10.0767 -14.4779 -2.4993 0.9312
-9.5458 -14.8343 -2.4994 0.9312
-14.2844 5.0920 -2.4982 0.9404
-14.6153 4.0436 -2.4982 0.9404
-14.7084 3.5008 -2.4907 0.9405
-14.8695 2.9741 -2.4981 0.9404
-14.9674 2.4331 -2.4981 0.9404
-15.0456 1.8890 -2.4981 0.9404
-15.0980 0.7917 -2.4907 0.9406
-15.1605 -0.3051 -2.4980 0.9404
-15.1395 -0.8544 -2.4980 0.9404
-15.0987 -1.4027 -2.4981 0.9404
-15.0381 -1.9490 -2.4981 0.9404
-14.9576 -2.4929 -2.4981 0.9404
-14.8576 -3.0334 -2.4981 0.9404
-14.2641 -5.1490 -2.4983 0.9404
-14.0684 -5.6627 -2.4983 0.9404
-13.6218 -6.6673 -2.4984 0.9404
-13.1036 -7.6371 -2.4986 0.9404
-12.8186 -8.1073 -2.4986 0.9404
-12.5166 -8.5668 -2.4987 0.9404
-11.5139 -9.8759 -2.4990 0.9404
-11.1487 -10.2871 -2.4990 0.9404
-9.9673 -11.4379 -2.4993 0.9403
-9.1133 -12.1310 -2.4995 0.9403
-8.6680 -12.4538 -2.4997 0.9403
-8.2113 -12.7604 -2.4998 0.9403
-7.2659 -13.3230 -2.5000 0.9403
-12.6752 4.0068 -2.4986 0.9473
-12.8119 3.5447 -2.4986 0.9473
-12.8936 3.0688 -2.4912 0.9475
-13.2405 1.1767 -2.4985 0.9473
-13.2351 0.6940 -2.4911 0.9475
-13.2909 0.2144 -2.4985 0.9473
-13.2357 -1.2296 -2.4985 0.9473
-13.1825 -1.7086 -2.4985 0.9473
-13.0243 -2.6591 -2.4986 0.9473
-12.9195 -3.1295 -2.4986 0.9473
-12.5040 -4.5136 -2.4987 0.9473
-12.1446 -5.4078 -2.4988 0.9473
-11.9408 -5.8446 -2.4988 0.9473
-11.2366 -7.1068 -2.4990 0.9473
-10.9719 -7.5096 -2.4991 0.9473
-10.0928 -8.6570 -2.4993 0.9473
-9.7727 -9.0174 -2.4994 0.9473
-8.7370 -10.0260 -2.4996 0.9473
-8.3682 -10.3364 -2.4997 0.9473
-7.9883 -10.6334 -2.4998 0.9473
-7.5979 -10.9163 -2.4999 0.9473
-7.1975 -11.1850 -2.5000 0.9473
-6.7876 -11.4390 -2.5001 0.9473
-6.3688 -11.6780 -2.5002 0.9473
-11.5007 2.7373 -2.4989 0.9528
-11.6686 1.8969 -2.4989 0.9528
-11.8054 0.6190 -2.4989 0.9528
-11.8201 0.1907 -2.4989 0.9528
-11.8193 -0.2379 -2.4989 0.9528
-11.8029 -0.6661 -2.4989 0.9528
-11.7237 -1.5195 -2.4989 0.9528
-11.5830 -2.3648 -2.4989 0.9528
-11.3814 -3.1979 -2.4990 0.9528
-11.2582 -3.6083 -2.4990 0.9528
-11.1202 -4.0141 -2.4990 0.9528
-10.9675 -4.4146 -2.4991 0.9528
-10.6193 -5.1977 -2.4992 0.9528
-10.4241 -5.5794 -2.4992 0.9528
-10.2152 -5.9537 -2.4993 0.9528
-9.7575 -6.6784 -2.4994 0.9528
-9.5093 -7.0278 -2.4994 0.9528
-8.9756 -7.6987 -2.4996 0.9528
-8.0875 -8.6282 -2.4998 0.9528
-6.4006 -9.9466 -2.5002 0.9528
-5.6636 -10.3849 -2.5004 0.9528
-10.0169 3.5707 -2.4993 0.9572
-10.3449 2.4622 -2.4992 0.9572
-10.4273 2.0856 -2.4992 0.9572
-10.4960 1.7062 -2.4992 0.9572
-10.5509 1.3247 -2.4992 0.9572
-10.5919 0.9413 -2.4992 0.9572
-10.6322 0.1715 -2.4992 0.9572
-10.6168 -0.5992 -2.4992 0.9572
-10.4891 -1.7481 -2.4992 0.9572
-10.1268 -3.2457 -2.4993 0.9572
-9.8653 -3.9709 -2.4993 0.9572
-9.5520 -4.6753 -2.4994 0.9572
-9.3763 -5.0186 -2.4995 0.9572
-9.1885 -5.3553 -2.4995 0.9572
-8.9885 -5.6849 -2.4996 0.9572
-8.5534 -6.3214 -2.4997 0.9572
-8.0733 -6.9248 -2.4998 0.9572
-6.9886 -8.0197 -2.5001 0.9572
-6.3896 -8.5054 -2.5002 0.9572
-6.0773 -8.7317 -2.5003 0.9572
-5.4291 -9.1496 -2.5004 0.9572
-9.0932 3.2415 -2.4995 0.9609
-9.3911 2.2352 -2.4995 0.9609
-9.4659 1.8933 -2.4994 0.9609
-9.5282 1.5489 -2.4994 0.9609
-9.6153 0.8546 -2.4994 0.9609
-9.6399 0.5055 -2.4994 0.9609
-9.6520 0.1557 -2.4994 0.9609
-9.6513 -0.1942 -2.4994 0.9609
-9.6119 -0.8929 -2.4994 0.9609
-9.5220 -1.5870 -2.4994 0.9609
-8.9556 -3.6048 -2.4996 0.9609
-8.1596 -5.1607 -2.4998 0.9609
-7.7646 -5.7385 -2.4999 0.9609
-7.5517 -6.0163 -2.4999 0.9609
-7.0963 -6.5479 -2.5000 0.9609
-6.0762 -7.5054 -2.5003 0.9609
-5.5168 -7.9263 -2.5004 0.9609
-4.6242 -8.4791 -2.5006 0.9609
-8.3174 2.9649 -2.4997 0.9640
-8.5898 2.0445 -2.4997 0.9640
-8.7608 1.0999 -2.4996 0.9640
-8.8175 0.4624 -2.4996 0.9640
-8.8155 -0.4975 -2.4996 0.9640
-8.7564 -1.1349 -2.4996 0.9640
-8.6512 -1.7663 -2.4996 0.9640
-8.5816 -2.0787 -2.4997 0.9640
-8.5007 -2.3884 -2.4997 0.9640
-8.4086 -2.6950 -2.4997 0.9640
-8.1915 -3.2972 -2.4998 0.9640
-8.0667 -3.5920 -2.4998 0.9640
-7.7854 -4.1671 -2.4999 0.9640
-7.4633 -4.7203 -2.4999 0.9640
-7.2874 -4.9878 -2.5000 0.9640
-6.7034 -5.7497 -2.5001 0.9640
-6.4907 -5.9890 -2.5002 0.9640
-6.0400 -6.4438 -2.5003 0.9639
-5.8026 -6.6587 -2.5004 0.9639
-5.5576 -6.8648 -2.5004 0.9639
-5.3052 -7.0619 -2.5005 0.9639
-4.5076 -7.5967 -2.5007 0.9639
-4.2295 -7.7553 -2.5007 0.9639
-7.7496 2.4497 -2.4999 0.9666
-7.8332 2.1672 -2.4998 0.9666
-7.9065 1.8818 -2.4998 0.9666
-8.0220 1.3041 -2.4998 0.9666
-8.1262 0.1311 -2.4998 0.9666
-8.1143 -0.4579 -2.4998 0.9666
-8.0924 -0.7518 -2.4998 0.9666
-8.0599 -1.0446 -2.4998 0.9666
-8.0167 -1.3361 -2.4998 0.9666
-7.8245 -2.1985 -2.4998 0.9666
-7.7398 -2.4807 -2.4999 0.9666
-7.6448 -2.7596 -2.4999 0.9666
-7.3003 -3.5733 -2.5000 0.9666
-7.0225 -4.0929 -2.5000 0.9666
-6.7077 -4.5910 -2.5001 0.9666
-6.5370 -4.8312 -2.5002 0.9666
-6.3577 -5.0651 -2.5002 0.9666
-6.1701 -5.2923 -2.5003 0.9666
-5.7706 -5.7256 -2.5004 0.9666
-5.3409 -6.1289 -2.5005 0.9666
-5.1154 -6.3186 -2.5005 0.9666
-4.8831 -6.5000 -2.5006 0.9665
-4.3996 -6.8370 -2.5007 0.9665
-4.1489 -6.9921 -2.5008 0.9665
-3.8929 -7.1381 -2.5008 0.9665
-7.0843 2.5254 -2.5000 0.9688
-7.1711 2.2669 -2.5000 0.9688
-7.2485 2.0055 -2.5000 0.9688
-7.3164 1.7414 -2.5000 0.9688
-7.3747 1.4750 -2.5000 0.9688
-7.4621 0.9369 -2.4999 0.9688
-7.4912 0.6658 -2.4999 0.9688
-7.5103 0.3938 -2.4999 0.9688
-7.5191 -0.1513 -2.4999 0.9688
-7.5087 -0.4238 -2.4999 0.9688
-7.4884 -0.6956 -2.4999 0.9688
-7.4583 -0.9667 -2.4999 0.9688
-7.4184 -1.2364 -2.4999 0.9688
-7.3688 -1.5045 -2.5000 0.9688
-7.3094 -1.7706 -2.5000 0.9688
-7.1621 -2.2955 -2.5000 0.9688
-6.9771 -2.8084 -2.5001 0.9688
-6.8708 -3.0595 -2.5001 0.9688
-6.7554 -3.3065 -2.5001 0.9688
-6.6312 -3.5493 -2.5001 0.9688
-6.2070 -4.2483 -2.5002 0.9688
-6.0491 -4.4706 -2.5003 0.9688
-5.5283 -5.1010 -2.5004 0.9688
-5.3399 -5.2982 -2.5005 0.9688
-5.1444 -5.4883 -2.5005 0.9688
-4.7335 -5.8469 -2.5006 0.9688
-4.5185 -6.0147 -2.5007 0.9688
-4.2977 -6.1747 -2.5007 0.9688
-3.8392 -6.4701 -2.5008 0.9688
-3.6022 -6.6052 -2.5009 0.9688
-6.5854 2.3475 -2.5001 0.9707
-6.7381 1.8642 -2.5001 0.9707
-6.9366 0.8709 -2.5001 0.9707
-6.9896 -0.1407 -2.5000 0.9707
-6.9799 -0.3939 -2.5001 0.9707
-6.9331 -0.8986 -2.5001 0.9707
-6.8960 -1.1493 -2.5001 0.9707
-6.8498 -1.3985 -2.5001 0.9707
-6.4857 -2.6106 -2.5002 0.9707
-6.1642 -3.2993 -2.5003 0.9707
-6.0406 -3.5206 -2.5003 0.9707
-5.7698 -3.9491 -2.5004 0.9707
-5.6230 -4.1557 -2.5004 0.9707
-5.1389 -4.7418 -2.5005 0.9707
-4.5941 -5.2718 -2.5006 0.9707
-4.4001 -5.4350 -2.5007 0.9707
-3.7843 -5.8809 -2.5008 0.9707
-3.5687 -6.0143 -2.5009 0.9707
-3.3485 -6.1398 -2.5010 0.9707
-6.2209 1.9665 -2.5002 0.9724
-6.2880 1.7397 -2.5002 0.9724
-6.3975 1.2796 -2.5002 0.9724
-6.5151 0.3416 -2.5002 0.9724
-6.5233 0.1053 -2.5002 0.9724
-6.5228 -0.1313 -2.5002 0.9724
-6.5137 -0.3676 -2.5002 0.9724
-6.4962 -0.6035 -2.5002 0.9724
-6.4700 -0.8386 -2.5002 0.9724
-6.4354 -1.0725 -2.5002 0.9724
-6.3409 -1.5359 -2.5002 0.9724
-6.2811 -1.7648 -2.5002 0.9724
-6.1368 -2.2152 -2.5003 0.9724
-6.0525 -2.4362 -2.5003 0.9724
-5.9603 -2.6540 -2.5003 0.9724
-5.8602 -2.8684 -2.5003 0.9724
-5.6371 -3.2854 -2.5004 0.9724
-5.3845 -3.6853 -2.5004 0.9724
-4.9528 -4.2482 -2.5006 0.9724
-4.6321 -4.5960 -2.5006 0.9724
-3.9196 -5.2175 -2.5008 0.9724
-3.7280 -5.3563 -2.5009 0.9724
-5.8879 1.6290 -2.5003 0.9739
-5.9430 1.4145 -2.5003 0.9739
-5.9904 1.1982 -2.5003 0.9739
-6.1078 -0.1229 -2.5003 0.9739
-6.0993 -0.3442 -2.5003 0.9739
-6.0828 -0.5651 -2.5003 0.9739
-6.0584 -0.7852 -2.5003 0.9739
-6.0259 -1.0043 -2.5003 0.9739
-5.9374 -1.4382 -2.5003 0.9739
-5.8814 -1.6525 -2.5003 0.9739
-5.8176 -1.8646 -2.5003 0.9739
-5.6674 -2.2812 -2.5004 0.9739
-5.4873 -2.6858 -2.5004 0.9739
-5.2784 -3.0764 -2.5005 0.9739
-4.6376 -3.9779 -2.5006 0.9739
-4.4904 -4.1434 -2.5007 0.9739
-4.3373 -4.3035 -2.5007 0.9739
-3.6702 -4.8854 -2.5009 0.9739
-3.4907 -5.0154 -2.5009 0.9739
-3.1184 -5.2553 -2.5010 0.9739
-5.4705 1.7293 -2.5004 0.9753
-5.5296 1.5299 -2.5004 0.9753
-5.5813 1.3284 -2.5004 0.9753
-5.6258 1.1252 -2.5004 0.9753
-5.6925 0.7147 -2.5004 0.9753
-5.7146 0.5079 -2.5004 0.9753
-5.7360 -0.1154 -2.5004 0.9753
-5.6896 -0.7374 -2.5004 0.9753
-5.6212 -1.1477 -2.5004 0.9753
-5.3965 -1.9480 -2.5004 0.9753
-5.3224 -2.1423 -2.5005 0.9753
-5.2413 -2.3339 -2.5005 0.9753
-5.1533 -2.5223 -2.5005 0.9753
-5.0585 -2.7075 -2.5005 0.9753
-4.9571 -2.8891 -2.5006 0.9753
-4.8492 -3.0669 -2.5006 0.9753
-4.6144 -3.4103 -2.5006 0.9753
-4.4878 -3.5753 -2.5007 0.9753
-4.0733 -4.0415 -2.5008 0.9753
-3.9242 -4.1866 -2.5008 0.9753
-3.6107 -4.4600 -2.5009 0.9753
-2.9285 -4.9353 -2.5011 0.9753
-5.0884 1.8139 -2.5005 0.9765
-5.2063 1.4404 -2.5005 0.9765
-5.2551 1.2508 -2.5005 0.9765
-5.3597 0.6729 -2.5004 0.9765
-5.3932 -0.3044 -2.5004 0.9765
-5.3787 -0.4997 -2.5004 0.9765
-5.3571 -0.6943 -2.5004 0.9765
-5.3284 -0.8880 -2.5005 0.9765
-5.2927 -1.0806 -2.5005 0.9765
-5.1442 -1.6487 -2.5005 0.9765
-5.0113 -2.0171 -2.5005 0.9765
-4.9350 -2.1975 -2.5006 0.9765
-4.7629 -2.5492 -2.5006 0.9765
-4.6673 -2.7202 -2.5006 0.9765
-4.4581 -3.0513 -2.5007 0.9765
-4.2254 -3.3663 -2.5007 0.9765
-4.1007 -3.5173 -2.5008 0.9765
-3.3996 -4.1993 -2.5009 0.9765
-3.2452 -4.3198 -2.5010 0.9765
-3.0866 -4.4347 -2.5010 0.9765
-2.9238 -4.5437 -2.5011 0.9765
-2.7573 -4.6468 -2.5011 0.9765
-4.8606 1.5365 -2.5006 0.9775
-5.0316 0.8179 -2.5005 0.9775
-5.0579 0.6350 -2.5005 0.9775
-5.0776 0.4513 -2.5005 0.9775
-5.0906 0.2669 -2.5005 0.9775
-5.0969 0.0822 -2.5005 0.9775
-5.0895 -0.2872 -2.5005 0.9775
-5.0554 -0.6552 -2.5005 0.9775
-5.0283 -0.8380 -2.5005 0.9775
-4.9946 -1.0197 -2.5005 0.9775
-4.9544 -1.2001 -2.5005 0.9775
-4.9077 -1.3789 -2.5006 0.9775
-4.8545 -1.5559 -2.5006 0.9775
-4.7291 -1.9035 -2.5006 0.9775
-4.6570 -2.0737 -2.5006 0.9775
-4.4045 -2.5671 -2.5007 0.9775
-4.2070 -2.8794 -2.5007 0.9775
-3.9875 -3.1767 -2.5008 0.9775
-3.7469 -3.4573 -2.5008 0.9775
-3.3496 -3.8438 -2.5009 0.9775
-2.7591 -4.2878 -2.5011 0.9775
-2.6020 -4.3850 -2.5011 0.9775
-2.4413 -4.4765 -2.5012 0.9775
-4.5404 1.6185 -2.5006 0.9785
-4.5960 1.4529 -2.5006 0.9785
-4.7265 0.9454 -2.5006 0.9785
-4.7577 0.7734 -2.5006 0.9785
-4.8012 0.4267 -2.5006 0.9785
-4.8135 0.2524 -2.5006 0.9785
-4.8191 -0.0970 -2.5006 0.9785
-4.8125 -0.2716 -2.5006 0.9785
-4.7994 -0.4459 -2.5006 0.9785
-4.6847 -1.1348 -2.5006 0.9785
-4.6405 -1.3038 -2.5006 0.9785
-4.4716 -1.7999 -2.5007 0.9785
-4.2499 -2.2747 -2.5007 0.9785
-4.1647 -2.4273 -2.5007 0.9785
-3.7704 -3.0038 -2.5008 0.9785
-3.5429 -3.2691 -2.5009 0.9785
-3.2968 -3.5173 -2.5010 0.9785
-3.0335 -3.7470 -2.5010 0.9785
-2.7541 -3.9570 -2.5011 0.9785
-2.6089 -4.0543 -2.5011 0.9785
-2.4603 -4.1462 -2.5012 0.9785
-2.3084 -4.2328 -2.5012 0.9785
-4.3007 1.5331 -2.5007 0.9794
-4.3534 1.3762 -2.5007 0.9794
-4.4004 1.2175 -2.5007 0.9794
-4.5650 0.0737 -2.5006 0.9794
-4.5648 -0.0919 -2.5006 0.9794
-4.5278 -0.5868 -2.5007 0.9794
-4.5036 -0.7506 -2.5007 0.9794
-4.4374 -1.0749 -2.5007 0.9794
-4.2356 -1.7049 -2.5007 0.9794
-4.1010 -2.0073 -2.5008 0.9794
-3.9448 -2.2991 -2.5008 0.9794
-3.8589 -2.4406 -2.5008 0.9794
-3.5713 -2.8452 -2.5009 0.9794
-3.2414 -3.2162 -2.5010 0.9794
-3.1228 -3.3316 -2.5010 0.9794
-2.8733 -3.5492 -2.5011 0.9794
-2.7428 -3.6510 -2.5011 0.9794
-2.6087 -3.7481 -2.5011 0.9794
-2.4711 -3.8402 -2.5012 0.9794
-2.3304 -3.9273 -2.5012 0.9794
-2.1865 -4.0093 -2.5012 0.9794
-4.1746 1.1550 -2.5007 0.9802
-4.2137 1.0029 -2.5007 0.9802
-4.2976 0.5396 -2.5007 0.9802
-4.3143 0.3835 -2.5007 0.9802
-4.3254 0.2268 -2.5007 0.9802
-4.3127 -0.4006 -2.5007 0.9802
-4.2724 -0.7120 -2.5007 0.9802
-4.2438 -0.8664 -2.5007 0.9802
-4.2096 -1.0197 -2.5007 0.9802
-4.1699 -1.1716 -2.5007 0.9802
-4.1247 -1.3220 -2.5008 0.9802
-3.9569 -1.7620 -2.5008 0.9802
-3.8905 -1.9043 -2.5008 0.9802
-3.6609 -2.3154 -2.5009 0.9802
-3.5745 -2.4466 -2.5009 0.9802
-3.4836 -2.5745 -2.5009 0.9802
-3.3880 -2.6991 -2.5009 0.9802
-3.2879 -2.8202 -2.5010 0.9802
-3.1836 -2.9376 -2.5010 0.9802
-3.0751 -3.0511 -2.5010 0.9802
-2.7258 -3.3670 -2.5011 0.9802
-2.4747 -3.5557 -2.5012 0.9802
-2.3443 -3.6431 -2.5012 0.9802
-2.2107 -3.7257 -2.5012 0.9802
-2.0743 -3.8034 -2.5013 0.9802
