ply
format ascii 1.0
element vertex 466
property float32 x
property float32 y
property float32 z
property float32 I
end_header
22.0239 -40.9373 8.1967 0.8279
34.4340 -34.9322 8.6489 0.8194
34.5408 -30.3814 8.1112 0.8296
34.4770 -28.2147 7.8554 0.8345
20.1221 -17.6990 4.1054 0.8972
35.8191 -33.8404 4.1714 0.8205
33.5739 -36.5755 3.0787 0.8196
33.6344 -34.1210 2.9710 0.8253
35.7461 -33.7714 3.0494 0.8211
33.6069 -36.6114 1.9596 0.8196
33.5734 -36.5749 0.8386 0.8199
35.7461 -33.7714 0.8307 0.8214
33.5731 -36.5746 -0.2795 0.8199
32.8418 -33.3169 -1.3173 0.8293
33.2068 -29.2081 -1.2453 0.8378
32.1351 -26.2982 -1.1692 0.8469
-17.8522 -42.7089 -2.3475 0.8308
-14.7730 -43.8777 -2.3480 0.8307
-13.2028 -44.3756 -2.3480 0.8307
-11.6158 -44.8165 -2.3479 0.8307
-10.0139 -45.2005 -2.3479 0.8308
-6.7747 -45.7970 -2.3478 0.8308
1.4378 -46.3106 -2.3497 0.8306
3.2848 -49.2372 -2.5026 0.8207
5.0351 -49.0971 -2.5030 0.8206
8.5159 -48.6308 -2.5038 0.8206
11.9559 -47.9177 -2.5046 0.8205
15.3375 -46.9612 -2.5054 0.8205
18.6433 -45.7660 -2.5062 0.8204
20.2626 -45.0807 -2.5066 0.8204
24.9610 -42.6840 -2.5077 0.8203
26.2725 -41.4675 -2.4895 0.8215
27.5888 -37.3739 -2.3559 0.8302
30.1842 -35.3269 -2.3565 0.8302
33.7880 -31.9215 -2.3573 0.8301
33.1797 -29.1843 -2.2410 0.8378
-6.9318 -31.2881 -2.3497 0.8794
-4.6916 -31.7152 -2.3507 0.8793
-3.5612 -31.8688 -2.3512 0.8793
-2.4259 -31.9824 -2.3517 0.8793
0.9944 -32.0297 -2.3496 0.8794
2.1334 -31.9777 -2.3499 0.8794
4.6882 -33.8120 -2.5029 0.8720
10.6036 -32.4667 -2.5043 0.8720
11.7531 -32.0725 -2.5045 0.8720
12.8879 -31.6375 -2.5048 0.8720
19.3097 -28.2057 -2.5063 0.8719
21.2701 -26.7663 -2.5068 0.8719
22.2108 -25.9951 -2.5070 0.8719
24.0069 -24.3541 -2.5074 0.8718
-10.2351 -22.2289 -2.3494 0.9063
-9.4392 -22.5821 -2.3498 0.9063
-7.8120 -23.2027 -2.3504 0.9063
-4.4447 -24.0910 -2.3519 0.9062
-3.5855 -24.2377 -2.3523 0.9062
-2.7215 -24.3540 -2.3527 0.9062
-0.9833 -24.4941 -2.3534 0.9062
-0.1114 -24.5178 -2.3539 0.9062
0.7595 -24.4616 -2.3496 0.9063
2.4972 -24.3499 -2.3500 0.9063
4.4968 -25.6792 -2.5028 0.9005
7.2088 -25.0603 -2.5035 0.9005
8.0964 -24.7900 -2.5037 0.9005
8.9738 -24.4883 -2.5039 0.9005
10.6940 -23.7922 -2.5043 0.9005
11.5345 -23.3986 -2.5045 0.9005
13.1709 -22.5227 -2.5049 0.9005
13.9649 -22.0416 -2.5051 0.9005
14.7412 -21.5324 -2.5052 0.9005
15.4989 -20.9959 -2.5054 0.9004
16.2370 -20.4327 -2.5056 0.9004
16.9547 -19.8435 -2.5058 0.9004
17.6510 -19.2291 -2.5059 0.9004
18.3250 -18.5901 -2.5061 0.9004
18.9759 -17.9276 -2.5062 0.9004
-8.2775 -17.9769 -2.3509 0.9234
-7.6334 -18.2619 -2.3511 0.9234
-6.9798 -18.5241 -2.3514 0.9234
-4.9684 -19.1695 -2.3523 0.9233
-4.2840 -19.3366 -2.3526 0.9233
-2.8990 -19.5973 -2.3532 0.9233
-1.4987 -19.7592 -2.3539 0.9233
-0.0901 -19.8212 -2.3545 0.9233
0.6152 -19.8146 -2.3548 0.9233
1.3168 -19.7370 -2.3497 0.9234
2.0197 -19.6938 -2.3516 0.9234
2.7171 -19.5962 -2.3500 0.9234
4.3704 -20.6116 -2.5028 0.9186
5.1011 -20.4445 -2.5030 0.9186
5.8255 -20.2515 -2.5031 0.9186
7.2516 -19.7887 -2.5035 0.9186
7.9515 -19.5195 -2.5036 0.9186
8.6414 -19.2255 -2.5038 0.9186
9.9878 -18.5648 -2.5041 0.9186
11.9109 -17.3982 -2.5046 0.9186
12.5230 -16.9645 -2.5047 0.9186
14.8058 -15.0199 -2.5053 0.9186
15.3314 -14.4845 -2.5054 0.9185
16.3240 -13.3590 -2.5056 0.9185
-7.0057 -15.2152 -2.3734 0.9346
-6.3905 -15.2887 -2.3479 0.9352
-5.8430 -15.5072 -2.3480 0.9352
-4.7262 -15.8852 -2.3483 0.9352
-4.1584 -16.0442 -2.3484 0.9352
-3.5852 -16.1829 -2.3485 0.9352
-3.0075 -16.3011 -2.3487 0.9352
-2.4259 -16.3987 -2.3488 0.9352
-1.8411 -16.4756 -2.3489 0.9352
-1.2555 -16.5529 -2.3521 0.9351
-0.6659 -16.5860 -2.3520 0.9351
0.5148 -16.5827 -2.3507 0.9352
1.7289 -16.8583 -2.4012 0.9338
3.6637 -17.2787 -2.5026 0.9311
4.8835 -16.9764 -2.5029 0.9311
6.0787 -16.5881 -2.5032 0.9311
6.6654 -16.3623 -2.5033 0.9311
7.8127 -15.8487 -2.5036 0.9311
9.9837 -14.5833 -2.5041 0.9311
11.4822 -13.4385 -2.5045 0.9311
-4.3289 -14.5498 -2.5008 0.9403
-3.8088 -14.6953 -2.5009 0.9403
-3.2838 -14.8222 -2.5010 0.9403
-2.7546 -14.9304 -2.5011 0.9403
-0.0690 -15.1860 -2.5018 0.9403
1.5495 -15.1093 -2.5021 0.9403
2.6202 -14.9623 -2.5024 0.9403
3.6777 -14.7396 -2.5026 0.9403
4.1999 -14.6002 -2.5028 0.9403
6.7189 -13.6298 -2.5034 0.9403
7.1998 -13.3827 -2.5035 0.9403
7.6717 -13.1187 -2.5036 0.9403
9.4564 -11.8999 -2.5040 0.9402
10.2794 -11.1984 -2.5042 0.9402
10.6716 -10.8260 -2.5043 0.9402
11.0503 -10.4399 -2.5044 0.9402
11.4151 -10.0405 -2.5045 0.9402
11.7655 -9.6284 -2.5045 0.9402
-5.1307 -12.2745 -2.5006 0.9473
-4.6910 -12.4498 -2.5007 0.9473
-4.2453 -12.6093 -2.5008 0.9473
-3.7943 -12.7529 -2.5009 0.9473
-3.3384 -12.8803 -2.5010 0.9473
-0.5339 -13.2987 -2.5017 0.9473
-0.0604 -13.3099 -2.5018 0.9473
1.3581 -13.2423 -2.5021 0.9473
1.8283 -13.1862 -2.5022 0.9473
3.6809 -12.7958 -2.5026 0.9473
4.5817 -12.5028 -2.5029 0.9472
5.0238 -12.3324 -2.5030 0.9472
5.4595 -12.1463 -2.5031 0.9472
5.8883 -11.9449 -2.5032 0.9472
6.7233 -11.4970 -2.5034 0.9472
8.6532 -10.1276 -2.5038 0.9472
9.3521 -9.4873 -2.5040 0.9472
10.3105 -8.4377 -2.5042 0.9472
-4.5625 -10.9152 -2.5007 0.9528
-4.1715 -11.0710 -2.5008 0.9528
-3.7751 -11.2128 -2.5009 0.9528
-3.3740 -11.3404 -2.5010 0.9528
-2.1469 -11.6366 -2.5013 0.9528
-1.7317 -11.7061 -2.5014 0.9528
0.3673 -11.8301 -2.5019 0.9528
0.7879 -11.8101 -2.5020 0.9528
1.2076 -11.7750 -2.5021 0.9528
1.6257 -11.7251 -2.5022 0.9528
2.0419 -11.6603 -2.5023 0.9528
2.8660 -11.4865 -2.5024 0.9528
4.4670 -10.9655 -2.5028 0.9527
4.8543 -10.8000 -2.5029 0.9527
5.2356 -10.6209 -2.5030 0.9527
5.6103 -10.4283 -2.5031 0.9527
6.3380 -10.0037 -2.5033 0.9527
6.6901 -9.7722 -2.5033 0.9527
7.3684 -9.2724 -2.5035 0.9527
8.0095 -8.7256 -2.5037 0.9527
8.6101 -8.1345 -2.5038 0.9527
8.8943 -7.8232 -2.5039 0.9527
9.1672 -7.5021 -2.5039 0.9527
-3.7520 -9.9576 -2.5009 0.9572
-3.0347 -10.1999 -2.5011 0.9572
-2.6700 -10.3017 -2.5011 0.9572
-2.3020 -10.3905 -2.5012 0.9572
-1.5575 -10.5287 -2.5014 0.9572
-1.1820 -10.5778 -2.5015 0.9572
-0.0484 -10.6446 -2.5018 0.9572
0.3303 -10.6400 -2.5019 0.9572
0.7087 -10.6219 -2.5019 0.9572
2.2084 -10.4154 -2.5023 0.9572
2.5776 -10.3306 -2.5024 0.9572
4.0174 -9.8619 -2.5027 0.9572
4.3658 -9.7131 -2.5028 0.9572
5.0457 -9.3787 -2.5030 0.9572
5.3763 -9.1936 -2.5030 0.9572
6.9194 -8.0982 -2.5034 0.9572
7.2032 -7.8472 -2.5035 0.9572
7.4780 -7.5862 -2.5035 0.9572
7.7434 -7.3155 -2.5036 0.9572
-3.7251 -8.9118 -2.5009 0.9609
-2.4237 -9.3512 -2.5012 0.9609
-1.7528 -9.5005 -2.5014 0.9609
-1.0729 -9.6017 -2.5015 0.9609
-0.3876 -9.6543 -2.5017 0.9609
-0.0439 -9.6623 -2.5018 0.9609
0.6433 -9.6416 -2.5019 0.9609
1.6670 -9.5191 -2.5022 0.9609
2.0046 -9.4540 -2.5022 0.9609
2.3397 -9.3771 -2.5023 0.9609
3.0007 -9.1876 -2.5025 0.9609
3.6465 -8.9515 -2.5026 0.9608
3.9628 -8.8164 -2.5027 0.9608
4.2740 -8.6701 -2.5028 0.9608
4.8799 -8.3447 -2.5029 0.9608
5.1738 -8.1661 -2.5030 0.9608
6.5381 -7.1226 -2.5033 0.9608
6.7875 -6.8856 -2.5034 0.9608
7.0283 -6.6400 -2.5034 0.9608
7.2602 -6.3859 -2.5035 0.9608
-2.5195 -8.4683 -2.5012 0.9639
-1.9112 -8.6265 -2.5013 0.9639
-1.2930 -8.7411 -2.5015 0.9639
-0.0402 -8.8372 -2.5018 0.9639
0.2743 -8.8332 -2.5018 0.9639
0.5884 -8.8182 -2.5019 0.9639
1.5245 -8.7061 -2.5021 0.9639
1.8334 -8.6466 -2.5022 0.9639
2.7443 -8.4028 -2.5024 0.9639
3.3350 -8.1868 -2.5026 0.9639
3.9088 -7.9294 -2.5027 0.9639
4.1886 -7.7855 -2.5028 0.9639
4.4630 -7.6318 -2.5028 0.9639
6.2075 -6.2973 -2.5032 0.9639
6.4277 -6.0726 -2.5033 0.9639
-2.8671 -7.6093 -2.5011 0.9665
-2.3190 -7.7943 -2.5012 0.9665
-2.0403 -7.8721 -2.5013 0.9665
-1.7590 -7.9399 -2.5014 0.9665
-1.4755 -7.9977 -2.5014 0.9665
-0.9032 -8.0828 -2.5016 0.9665
-0.6151 -8.1100 -2.5016 0.9665
-0.0369 -8.1337 -2.5018 0.9665
0.2524 -8.1300 -2.5018 0.9665
0.5415 -8.1161 -2.5019 0.9665
0.8298 -8.0920 -2.5020 0.9665
1.1172 -8.0575 -2.5020 0.9665
1.9695 -7.8933 -2.5022 0.9665
2.2491 -7.8184 -2.5023 0.9665
3.0695 -7.5349 -2.5025 0.9665
3.3357 -7.4211 -2.5026 0.9665
4.1076 -7.0240 -2.5027 0.9665
4.5968 -6.7145 -2.5028 0.9665
4.8328 -6.5469 -2.5029 0.9665
5.2863 -6.1870 -2.5030 0.9665
5.5032 -5.9951 -2.5031 0.9665
5.7131 -5.7957 -2.5031 0.9665
6.1109 -5.3750 -2.5032 0.9665
-3.1468 -6.8344 -2.5010 0.9688
-2.6531 -7.0411 -2.5011 0.9688
-2.1458 -7.2123 -2.5013 0.9688
-1.8879 -7.2842 -2.5013 0.9688
-1.3653 -7.4004 -2.5015 0.9688
-0.8358 -7.4791 -2.5016 0.9688
-0.5692 -7.5043 -2.5016 0.9688
-0.3019 -7.5200 -2.5017 0.9688
0.2336 -7.5228 -2.5018 0.9688
0.5010 -7.5099 -2.5019 0.9688
0.7679 -7.4875 -2.5020 0.9688
1.2984 -7.4143 -2.5021 0.9688
1.5613 -7.3637 -2.5021 0.9688
2.3371 -7.1559 -2.5023 0.9688
2.8402 -6.9720 -2.5024 0.9688
3.0864 -6.8667 -2.5025 0.9688
3.3288 -6.7527 -2.5026 0.9688
3.5670 -6.6302 -2.5026 0.9688
3.8007 -6.4992 -2.5027 0.9688
4.0296 -6.3600 -2.5027 0.9688
4.6845 -5.8949 -2.5029 0.9688
4.8913 -5.7246 -2.5029 0.9688
5.0919 -5.5471 -2.5030 0.9688
5.2862 -5.3626 -2.5030 0.9688
-2.9251 -6.3529 -2.5011 0.9707
-2.4661 -6.5450 -2.5012 0.9707
-2.2318 -6.6288 -2.5012 0.9707
-1.9946 -6.7041 -2.5013 0.9707
-1.5130 -6.8293 -2.5014 0.9707
-1.0237 -6.9199 -2.5015 0.9707
-0.2806 -6.9900 -2.5017 0.9707
0.2171 -6.9926 -2.5018 0.9707
0.4657 -6.9806 -2.5019 0.9707
0.7138 -6.9598 -2.5019 0.9707
0.9609 -6.9302 -2.5020 0.9707
1.2069 -6.8918 -2.5021 0.9707
1.6939 -6.7888 -2.5022 0.9707
2.4077 -6.5702 -2.5023 0.9707
3.3156 -6.1628 -2.5025 0.9707
3.7455 -5.9117 -2.5026 0.9707
3.9535 -5.7748 -2.5027 0.9707
4.1565 -5.6306 -2.5027 0.9707
4.7330 -5.1561 -2.5029 0.9707
4.9135 -4.9845 -2.5029 0.9707
5.0878 -4.8066 -2.5030 0.9707
5.4168 -4.4329 -2.5030 0.9707
-2.3013 -6.1077 -2.5012 0.9724
-2.0827 -6.1858 -2.5013 0.9724
-1.6376 -6.3185 -2.5014 0.9724
-0.9552 -6.4575 -2.5015 0.9724
-0.7249 -6.4875 -2.5016 0.9724
-0.4937 -6.5093 -2.5017 0.9724
-0.2619 -6.5229 -2.5017 0.9724
0.8967 -6.4670 -2.5020 0.9724
1.5807 -6.3351 -2.5021 0.9724
1.8051 -6.2750 -2.5022 0.9724
2.8873 -5.8571 -2.5024 0.9724
3.0939 -5.7508 -2.5025 0.9724
3.6892 -5.3888 -2.5026 0.9724
3.8786 -5.2542 -2.5027 0.9724
4.0631 -5.1130 -2.5027 0.9724
4.2425 -4.9653 -2.5028 0.9724
4.5850 -4.6512 -2.5028 0.9724
4.9042 -4.3136 -2.5029 0.9724
5.0546 -4.1365 -2.5030 0.9724
-2.3569 -5.6386 -2.5012 0.9739
-2.1549 -5.7189 -2.5013 0.9739
-0.8944 -6.0464 -2.5016 0.9739
-0.6788 -6.0745 -2.5016 0.9739
-0.0278 -6.1126 -2.5018 0.9739
0.1897 -6.1098 -2.5018 0.9739
0.4069 -6.0993 -2.5019 0.9739
0.6237 -6.0812 -2.5019 0.9739
0.8396 -6.0552 -2.5020 0.9739
1.0545 -6.0216 -2.5020 0.9739
1.2680 -5.9805 -2.5021 0.9739
1.4800 -5.9317 -2.5021 0.9739
1.8981 -5.8117 -2.5022 0.9739
2.1037 -5.7406 -2.5023 0.9739
2.3066 -5.6622 -2.5023 0.9739
2.8969 -5.3846 -2.5024 0.9739
3.4542 -5.0455 -2.5026 0.9739
3.6316 -4.9196 -2.5026 0.9739
3.9723 -4.6491 -2.5027 0.9739
4.1352 -4.5049 -2.5027 0.9739
4.2929 -4.3550 -2.5028 0.9739
4.4452 -4.1996 -2.5028 0.9739
4.7326 -3.8730 -2.5029 0.9739
-2.4003 -5.2130 -2.5012 0.9753
-2.0236 -5.3707 -2.5013 0.9753
-1.0413 -5.6446 -2.5015 0.9753
-0.8400 -5.6782 -2.5016 0.9753
-0.6374 -5.7046 -2.5016 0.9753
-0.4341 -5.7237 -2.5017 0.9753
-0.2302 -5.7357 -2.5017 0.9753
0.1781 -5.7378 -2.5018 0.9753
0.5857 -5.7108 -2.5019 0.9753
0.7885 -5.6864 -2.5020 0.9753
1.1908 -5.6162 -2.5020 0.9753
1.3899 -5.5704 -2.5021 0.9753
1.7825 -5.4577 -2.5022 0.9753
2.1661 -5.3173 -2.5023 0.9753
2.3539 -5.2370 -2.5023 0.9753
2.5387 -5.1500 -2.5024 0.9753
3.0731 -4.8505 -2.5025 0.9753
3.2438 -4.7382 -2.5025 0.9753
3.7303 -4.3658 -2.5026 0.9753
3.8833 -4.2304 -2.5027 0.9753
4.0314 -4.0897 -2.5027 0.9753
4.3121 -3.7928 -2.5028 0.9753
4.4443 -3.6371 -2.5028 0.9753
-2.2600 -4.9083 -2.5012 0.9765
-2.0840 -4.9856 -2.5013 0.9765
-1.7243 -5.1214 -2.5014 0.9765
-1.3558 -5.2312 -2.5015 0.9765
-0.7908 -5.3462 -2.5016 0.9765
-0.6002 -5.3710 -2.5016 0.9765
-0.4087 -5.3890 -2.5017 0.9765
-0.2168 -5.4003 -2.5017 0.9765
-0.0245 -5.4047 -2.5018 0.9765
0.3598 -5.3929 -2.5019 0.9765
0.7423 -5.3539 -2.5019 0.9765
0.9324 -5.3242 -2.5020 0.9765
1.4943 -5.1948 -2.5021 0.9765
2.2162 -4.9307 -2.5023 0.9765
2.3903 -4.8488 -2.5023 0.9765
2.5613 -4.7608 -2.5024 0.9765
2.7291 -4.6667 -2.5024 0.9765
3.0541 -4.4610 -2.5025 0.9765
3.5121 -4.1104 -2.5026 0.9765
3.7956 -3.8504 -2.5027 0.9765
4.0598 -3.5709 -2.5027 0.9764
-1.7980 -4.7719 -2.5013 0.9775
-1.4542 -4.8878 -2.5014 0.9775
-1.2795 -4.9365 -2.5015 0.9775
-0.9253 -5.0151 -2.5016 0.9775
0.5204 -5.0738 -2.5019 0.9775
1.0580 -4.9898 -2.5020 0.9775
1.2348 -4.9490 -2.5021 0.9775
1.4101 -4.9021 -2.5021 0.9775
2.0913 -4.6528 -2.5023 0.9775
2.4169 -4.4925 -2.5023 0.9775
2.5752 -4.4037 -2.5024 0.9775
2.8819 -4.2096 -2.5024 0.9775
3.4501 -3.7585 -2.5026 0.9775
3.8310 -3.3696 -2.5027 0.9775
3.9485 -3.2312 -2.5027 0.9775
-1.8595 -4.4486 -2.5013 0.9785
-1.7001 -4.5120 -2.5014 0.9785
-1.3750 -4.6216 -2.5014 0.9785
-1.2097 -4.6676 -2.5015 0.9785
-1.0430 -4.7078 -2.5015 0.9785
-0.8749 -4.7420 -2.5016 0.9785
-0.1934 -4.8184 -2.5017 0.9785
0.4920 -4.7975 -2.5019 0.9785
0.6624 -4.7770 -2.5019 0.9785
1.4974 -4.5847 -2.5021 0.9785
1.6596 -4.5287 -2.5022 0.9785
1.8196 -4.4668 -2.5022 0.9785
2.1327 -4.3263 -2.5023 0.9785
2.2852 -4.2477 -2.5023 0.9785
2.4350 -4.1638 -2.5023 0.9785
2.5816 -4.0746 -2.5024 0.9785
2.8648 -3.8809 -2.5024 0.9785
3.1336 -3.6675 -2.5025 0.9785
3.2621 -3.5537 -2.5025 0.9785
3.7333 -3.0552 -2.5026 0.9785
-1.9100 -4.1483 -2.5013 0.9794
-1.7613 -4.2137 -2.5014 0.9794
-1.6103 -4.2737 -2.5014 0.9794
-1.1459 -4.4212 -2.5015 0.9794
-0.6684 -4.5183 -2.5016 0.9794
-0.3454 -4.5545 -2.5017 0.9794
-0.0207 -4.5677 -2.5018 0.9794
0.1417 -4.5656 -2.5018 0.9794
0.3041 -4.5577 -2.5018 0.9794
0.4661 -4.5441 -2.5019 0.9794
0.6274 -4.5247 -2.5019 0.9794
0.7880 -4.4996 -2.5020 0.9794
0.9476 -4.4688 -2.5020 0.9794
1.2629 -4.3903 -2.5021 0.9794
1.4183 -4.3426 -2.5021 0.9794
1.5719 -4.2895 -2.5021 0.9794
1.7235 -4.2309 -2.5022 0.9794
2.0200 -4.0978 -2.5022 0.9794
2.4453 -3.8594 -2.5023 0.9794
2.5810 -3.7700 -2.5024 0.9794
2.8426 -3.5770 -2.5024 0.9794
2.9680 -3.4737 -2.5025 0.9794
3.0898 -3.3660 -2.5025 0.9794
3.3213 -3.1379 -2.5025 0.9794
3.4309 -3.0177 -2.5026 0.9794
-1.5276 -4.0543 -2.5014 0.9802
-1.3825 -4.1061 -2.5014 0.9802
-1.2355 -4.1528 -2.5015 0.9802
-1.0871 -4.1941 -2.5015 0.9802
-0.3277 -4.3206 -2.5017 0.9802
-0.1738 -4.3296 -2.5017 0.9802
0.1345 -4.3312 -2.5018 0.9802
0.4421 -4.3108 -2.5019 0.9802
0.7475 -4.2685 -2.5019 0.9802
0.8989 -4.2393 -2.5020 0.9802
1.1980 -4.1648 -2.5021 0.9802
1.4912 -4.0692 -2.5021 0.9802
1.6350 -4.0136 -2.5022 0.9802
1.7768 -3.9530 -2.5022 0.9802
2.0534 -3.8167 -2.5023 0.9802
2.5741 -3.4871 -2.5024 0.9802
2.8156 -3.2953 -2.5024 0.9802
3.0429 -3.0868 -2.5025 0.9802
3.3545 -2.7452 -2.5026 0.9802
