ply
format ascii 1.0
element vertex 607
property float32 x
property float32 y
property float32 z
property float32 I
end_header
36.8836 -24.1132 7.7701 0.8361
38.7101 -21.5400 7.8112 0.8353
39.0522 -19.9433 7.7319 0.8369
40.9555 -17.3600 7.8435 0.8347
43.9749 -13.3171 8.1017 0.8298
44.0170 -11.6357 8.0280 0.8312
43.9689 -8.3282 7.8907 0.8338
44.0085 -6.7221 7.8499 0.8346
44.1643 -0.4015 7.7877 0.8358
44.2421 2.7532 7.8162 0.8352
44.4905 7.5918 7.9583 0.8325
27.5359 9.9614 5.1633 0.8879
39.6347 15.9563 7.5337 0.8407
39.6763 17.6400 7.6563 0.8383
35.7718 19.0616 7.1472 0.8482
35.5092 24.1089 7.5680 0.8400
35.7864 30.3459 8.2734 0.8265
34.1349 -25.9635 6.5701 0.8407
27.1956 -17.7796 4.9776 0.8768
28.9453 -1.2951 4.4387 0.8894
48.6589 8.3031 7.5620 0.8189
46.6872 15.0320 7.5138 0.8200
37.9951 29.9595 7.4125 0.8222
35.7172 32.5434 7.4023 0.8224
23.4131 -17.8084 3.8306 0.8881
33.8291 -15.7832 4.8611 0.8602
33.8088 -14.3307 4.7818 0.8623
33.8985 -12.9649 4.7261 0.8638
45.5697 -3.6686 5.9533 0.8316
27.4578 6.7267 3.6813 0.8922
43.1513 19.1850 6.1495 0.8266
38.6587 18.8641 5.6015 0.8407
34.3005 -26.0894 4.6276 0.8408
25.3007 -17.8585 3.3255 0.8829
27.1955 -17.7795 3.4889 0.8775
33.7549 -18.7828 4.1480 0.8561
39.4327 -11.9417 4.4243 0.8473
42.5932 -3.4290 4.5885 0.8421
28.9396 -1.2948 3.1107 0.8900
42.4132 18.8569 4.9843 0.8297
33.7157 -20.3663 3.3344 0.8537
33.7923 -17.2572 3.2120 0.8587
33.8639 -14.3540 3.1136 0.8627
33.8982 -12.9648 3.0723 0.8644
33.9315 -11.6102 3.0359 0.8659
37.7537 -11.4332 3.3393 0.8535
28.9368 -1.2947 2.4520 0.8902
33.6323 -23.7393 2.5528 0.8479
27.1952 -17.7794 2.0148 0.8779
33.7921 -17.2571 2.3529 0.8589
33.7731 -15.7571 2.3110 0.8613
33.8975 -14.3683 2.2830 0.8628
33.2436 -2.6763 2.0681 0.8749
28.9340 -1.2946 1.7960 0.8904
33.1694 -25.2292 1.6432 0.8463
33.7153 -20.3661 1.5531 0.8541
33.7729 -15.7570 1.4695 0.8614
33.7910 -14.3231 1.4472 0.8634
33.8423 -12.9434 1.4287 0.8650
33.9312 -11.6100 1.4141 0.8663
37.7537 -11.4332 1.5554 0.8539
33.1901 -3.8658 1.3176 0.8748
33.2195 -2.6744 1.3141 0.8751
33.7681 19.5688 1.5389 0.8554
33.0060 -16.8556 0.6260 0.8622
32.9498 -12.6021 0.5959 0.8684
37.7537 -11.4332 0.6663 0.8540
33.1899 -3.8658 0.5644 0.8749
33.2193 -2.6744 0.5629 0.8752
28.9284 -1.2943 0.4891 0.8906
34.4662 18.3659 0.6597 0.8554
33.1845 -25.2406 -0.2347 0.8464
33.6317 -23.7389 -0.2318 0.8482
32.3012 -17.9738 -0.2081 0.8625
33.7916 -17.2568 -0.2136 0.8592
33.9308 -11.6099 -0.2019 0.8664
37.7537 -11.4332 -0.2221 0.8540
28.3869 -7.5039 -0.1653 0.8892
28.3852 -6.4314 -0.1639 0.8901
28.3720 -2.2841 -0.1603 0.8924
28.3695 -1.2693 -0.1599 0.8926
28.3669 -0.2579 -0.1597 0.8927
28.3643 0.7526 -0.1598 0.8927
28.3618 1.7649 -0.1600 0.8926
28.3572 2.7813 -0.1604 0.8923
28.3552 3.8049 -0.1611 0.8919
28.3466 8.0247 -0.1659 0.8888
28.3403 9.1249 -0.1676 0.8877
28.3369 10.2512 -0.1697 0.8864
28.3333 11.4066 -0.1720 0.8850
28.3295 13.8239 -0.1775 0.8815
28.3259 15.0940 -0.1807 0.8795
28.3011 22.3159 -0.2029 0.8657
28.2972 23.9955 -0.2089 0.8621
33.6315 -23.7387 -1.1591 0.8481
27.1948 -17.7791 -0.9149 0.8781
33.7913 -17.2567 -1.0684 0.8591
32.4099 -13.7377 -0.9912 0.8686
33.1769 -11.3519 -0.9874 0.8691
28.3862 -7.5038 -0.8268 0.8891
28.3830 -5.3761 -0.8134 0.8908
28.3814 -4.3351 -0.8084 0.8915
28.3700 -1.2693 -0.7996 0.8926
28.3649 0.7527 -0.7990 0.8927
28.3547 3.8048 -0.8056 0.8918
28.3484 6.9449 -0.8218 0.8898
28.3462 8.0246 -0.8295 0.8888
28.3375 10.2514 -0.8485 0.8864
28.3340 11.4069 -0.8601 0.8850
28.3303 12.5957 -0.8730 0.8833
28.3289 13.8236 -0.8876 0.8815
28.3252 15.0936 -0.9037 0.8795
28.3174 17.7866 -0.9416 0.8748
28.3083 19.2200 -0.9635 0.8720
28.2973 23.9956 -1.0447 0.8620
28.2971 25.7827 -1.0779 0.8580
32.1693 -22.7067 -1.9969 0.8541
27.1947 -17.7791 -1.6477 0.8780
31.8462 -19.2370 -1.8868 0.8616
32.1218 -17.8740 -1.8642 0.8631
32.1583 -16.4227 -1.8312 0.8653
32.1937 -15.0202 -1.8016 0.8674
32.3906 -13.7296 -1.7841 0.8686
32.4233 -12.4007 -1.7605 0.8702
33.0712 -11.3158 -1.7726 0.8694
37.7538 -11.4332 -2.0005 0.8539
28.3840 -6.4311 -1.4760 0.8900
28.3824 -5.3759 -1.4650 0.8907
28.3704 -1.2694 -1.4402 0.8925
28.3679 -0.2579 -1.4387 0.8926
28.3628 1.7650 -1.4412 0.8924
28.3564 2.7813 -1.4450 0.8922
28.3543 3.8048 -1.4509 0.8917
28.3522 4.8380 -1.4586 0.8912
28.3501 5.8837 -1.4684 0.8905
28.3347 11.4071 -1.5490 0.8849
28.3283 13.8232 -1.5986 0.8814
28.3168 17.7862 -1.6958 0.8747
28.3084 19.2200 -1.7353 0.8719
28.3050 20.7278 -1.7792 0.8689
28.2979 25.7835 -1.9415 0.8578
26.0214 -19.7923 -2.3971 0.8771
28.0770 -15.6233 -2.3559 0.8791
29.5875 -12.5414 -2.3563 0.8791
30.0167 -11.4803 -2.3564 0.8791
30.4076 -10.4044 -2.3565 0.8791
28.3849 -7.5034 -2.1527 0.8889
28.3833 -6.4310 -2.1339 0.8898
28.3786 -3.3054 -2.0949 0.8917
28.3710 -1.2694 -2.0823 0.8923
28.3684 -0.2579 -2.0801 0.8925
28.3659 0.7527 -2.0806 0.8924
28.3633 1.7650 -2.0837 0.8923
28.3389 10.2519 -2.2097 0.8862
28.3317 12.5963 -2.2734 0.8831
27.7993 16.1099 -2.3558 0.8791
26.5788 18.0456 -2.3555 0.8791
25.9830 22.0330 -2.4979 0.8723
25.2803 23.0339 -2.5076 0.8718
20.7810 -15.8064 -2.5066 0.9004
22.8193 -12.6977 -2.5071 0.9004
23.2580 -11.8775 -2.5072 0.9004
24.9983 -7.5704 -2.5076 0.9004
25.2526 -6.6754 -2.5076 0.9004
25.6647 -4.8612 -2.5077 0.9004
25.8220 -3.9442 -2.5078 0.9004
25.9463 -3.0221 -2.5078 0.9004
25.9940 -1.1631 -2.4980 0.9007
25.9940 -0.2363 -2.4956 0.9008
25.9922 1.6174 -2.5002 0.9006
25.9905 2.5492 -2.5072 0.9004
25.8895 3.4740 -2.5078 0.9004
25.5758 5.3079 -2.5077 0.9004
25.3700 6.2152 -2.5077 0.9004
24.8621 8.0049 -2.5076 0.9004
24.5605 8.8850 -2.5075 0.9004
24.2278 9.7537 -2.5074 0.9004
23.8643 10.6100 -2.5073 0.9004
23.0468 12.2809 -2.5071 0.9004
22.5938 13.0933 -2.5070 0.9004
21.6025 14.6670 -2.5068 0.9004
21.0654 15.4262 -2.5067 0.9004
20.5016 16.1657 -2.5065 0.9004
19.9118 16.8847 -2.5064 0.9004
19.2967 17.5821 -2.5062 0.9004
17.6572 -11.5437 -2.5059 0.9185
18.0578 -10.9079 -2.5060 0.9185
18.4354 -10.2583 -2.5061 0.9185
18.7897 -9.5956 -2.5061 0.9185
19.1200 -8.9206 -2.5062 0.9185
19.4262 -8.2343 -2.5063 0.9185
20.7331 -3.9271 -2.5066 0.9185
20.8601 -3.1863 -2.5066 0.9185
20.9606 -2.4414 -2.5066 0.9185
21.0343 -1.6934 -2.5067 0.9185
21.1017 -0.1919 -2.5067 0.9185
21.0015 2.0599 -2.5067 0.9185
20.8013 3.5495 -2.5066 0.9185
20.6613 4.2880 -2.5066 0.9185
20.4952 5.0210 -2.5065 0.9185
20.3031 5.7476 -2.5065 0.9185
19.5729 7.8797 -2.5063 0.9185
19.2793 8.5715 -2.5063 0.9185
18.6191 9.9215 -2.5061 0.9185
16.5637 13.0607 -2.5056 0.9185
16.0873 13.6400 -2.5055 0.9185
15.5906 14.2053 -2.5054 0.9185
14.7991 -9.6752 -2.5052 0.9311
15.1347 -9.1422 -2.5053 0.9311
15.4512 -8.5977 -2.5054 0.9311
16.5171 -6.3171 -2.5056 0.9311
16.7319 -5.7251 -2.5057 0.9310
16.9255 -5.1256 -2.5057 0.9310
17.0975 -4.5197 -2.5057 0.9310
17.2479 -3.9080 -2.5058 0.9310
17.3763 -3.2913 -2.5058 0.9310
17.6287 -1.4192 -2.5059 0.9310
17.6681 -0.7905 -2.5059 0.9310
17.6850 -0.1608 -2.5059 0.9310
17.6012 1.7264 -2.5059 0.9310
17.4334 2.9748 -2.5058 0.9310
17.3162 3.5937 -2.5058 0.9310
17.0160 4.8171 -2.5057 0.9310
15.6051 8.3154 -2.5054 0.9311
15.2986 8.8656 -2.5053 0.9311
14.9727 9.4046 -2.5052 0.9311
14.2644 10.4458 -2.5051 0.9311
13.0674 11.9063 -2.5048 0.9311
12.4212 -8.7675 -2.5047 0.9402
12.7260 -8.3198 -2.5047 0.9402
13.0145 -7.8615 -2.5048 0.9402
13.5418 -6.9155 -2.5049 0.9402
13.7798 -6.4290 -2.5050 0.9402
14.0003 -5.9344 -2.5050 0.9402
14.2030 -5.4321 -2.5051 0.9402
14.8313 -3.3604 -2.5052 0.9402
15.1586 -1.2204 -2.5053 0.9402
15.1925 -0.6797 -2.5053 0.9402
15.2024 0.4034 -2.5053 0.9402
15.1350 1.4845 -2.5053 0.9402
14.9907 2.5580 -2.5053 0.9402
14.6319 4.1421 -2.5052 0.9402
13.8945 6.1775 -2.5050 0.9402
13.4189 7.1505 -2.5049 0.9402
12.5787 8.5403 -2.5047 0.9402
11.5950 9.8323 -2.5045 0.9402
10.6043 -8.0658 -2.5042 0.9472
10.8851 -7.6832 -2.5043 0.9472
11.1521 -7.2909 -2.5044 0.9472
11.6433 -6.4789 -2.5045 0.9472
11.8669 -6.0602 -2.5045 0.9472
12.0754 -5.6339 -2.5046 0.9472
12.2686 -5.2004 -2.5046 0.9472
12.6081 -4.3140 -2.5047 0.9472
13.0935 -2.4801 -2.5048 0.9472
13.2370 -1.5418 -2.5048 0.9472
13.3132 -0.5957 -2.5049 0.9472
13.3260 -0.1212 -2.5049 0.9472
13.3008 0.8277 -2.5049 0.9472
13.2080 1.7723 -2.5048 0.9472
13.1365 2.2416 -2.5048 0.9472
12.8221 3.6298 -2.5047 0.9472
12.6845 4.0841 -2.5047 0.9472
12.5308 4.5331 -2.5047 0.9472
11.9752 5.8435 -2.5046 0.9472
11.7593 6.2661 -2.5045 0.9472
11.0231 7.4841 -2.5043 0.9472
10.7493 7.8717 -2.5043 0.9472
10.4619 8.2493 -2.5042 0.9472
10.1612 8.6164 -2.5041 0.9472
9.4284 -7.1714 -2.5040 0.9527
10.1402 -6.1253 -2.5041 0.9527
10.3521 -5.7604 -2.5042 0.9527
10.5509 -5.3881 -2.5042 0.9527
10.7363 -5.0091 -2.5043 0.9527
11.0659 -4.2323 -2.5043 0.9527
11.5553 -2.6182 -2.5045 0.9527
11.6412 -2.2050 -2.5045 0.9527
11.7125 -1.7890 -2.5045 0.9527
11.8366 -0.5296 -2.5045 0.9527
11.8480 -0.1077 -2.5045 0.9527
11.8443 0.3143 -2.5045 0.9527
11.8256 0.7359 -2.5045 0.9527
11.7431 1.5758 -2.5045 0.9527
11.6795 1.9930 -2.5045 0.9527
11.6010 2.4076 -2.5045 0.9527
11.5078 2.8192 -2.5044 0.9527
10.9903 4.4245 -2.5043 0.9527
10.2500 5.9399 -2.5041 0.9527
10.0317 6.3010 -2.5041 0.9527
9.8007 6.6542 -2.5040 0.9527
9.3018 7.3346 -2.5039 0.9527
8.7557 7.9777 -2.5038 0.9527
8.4792 -6.4494 -2.5037 0.9572
8.7037 -6.1435 -2.5038 0.9572
8.9171 -5.8297 -2.5038 0.9572
9.3098 -5.1804 -2.5039 0.9572
10.0810 -3.4494 -2.5041 0.9572
10.3012 -2.7231 -2.5042 0.9572
10.3917 -2.3545 -2.5042 0.9572
10.4690 -1.9830 -2.5042 0.9572
10.5331 -1.6089 -2.5042 0.9572
10.5837 -1.2328 -2.5042 0.9572
10.6210 -0.8551 -2.5042 0.9572
10.6549 -0.0969 -2.5042 0.9572
10.6516 0.2826 -2.5042 0.9572
10.6348 0.6618 -2.5042 0.9572
10.5033 1.7923 -2.5042 0.9572
10.1421 3.2655 -2.5041 0.9572
10.0192 3.6246 -2.5041 0.9572
9.7356 4.3284 -2.5040 0.9572
9.5751 4.6723 -2.5040 0.9572
9.4025 5.0103 -2.5040 0.9572
9.0217 5.6666 -2.5039 0.9572
8.1249 6.8897 -2.5037 0.9572
7.8742 7.1745 -2.5036 0.9572
7.6961 -5.8538 -2.5036 0.9608
8.0935 -5.2913 -2.5037 0.9608
8.2770 -4.9998 -2.5037 0.9608
8.4499 -4.7019 -2.5037 0.9608
8.6121 -4.3981 -2.5038 0.9608
8.7634 -4.0887 -2.5038 0.9608
8.9036 -3.7740 -2.5038 0.9608
9.4318 -2.1371 -2.5040 0.9608
9.5020 -1.7998 -2.5040 0.9608
9.6399 -0.7761 -2.5040 0.9608
9.6614 -0.4323 -2.5040 0.9608
9.6676 0.2567 -2.5040 0.9608
9.5851 1.2862 -2.5040 0.9608
9.5332 1.6267 -2.5040 0.9608
9.3931 2.3011 -2.5040 0.9608
9.0938 3.2898 -2.5039 0.9608
8.9708 3.6115 -2.5039 0.9608
8.6907 4.2408 -2.5038 0.9608
8.5341 4.5475 -2.5038 0.9608
7.8013 5.7129 -2.5036 0.9608
7.5927 5.9870 -2.5035 0.9608
7.1471 6.5120 -2.5034 0.9608
7.0384 -5.3536 -2.5034 0.9639
7.5697 -4.5725 -2.5035 0.9639
7.7278 -4.3001 -2.5036 0.9639
7.8762 -4.0222 -2.5036 0.9639
8.1427 -3.4515 -2.5037 0.9639
8.2605 -3.1593 -2.5037 0.9639
8.3679 -2.8632 -2.5037 0.9639
8.4646 -2.5634 -2.5037 0.9639
8.5506 -2.2604 -2.5038 0.9639
8.7851 -1.0233 -2.5038 0.9639
8.8357 -0.3953 -2.5038 0.9639
8.8442 -0.0804 -2.5038 0.9639
8.8415 0.2346 -2.5038 0.9639
8.8275 0.5493 -2.5038 0.9639
8.8023 0.8633 -2.5038 0.9639
8.7184 1.4877 -2.5038 0.9639
8.5903 2.1045 -2.5038 0.9639
8.2041 3.3029 -2.5037 0.9639
7.6516 4.4341 -2.5035 0.9639
7.4887 4.7037 -2.5035 0.9639
6.9440 5.4754 -2.5034 0.9639
6.7445 5.7191 -2.5033 0.9639
6.5363 5.9555 -2.5033 0.9639
6.6493 -4.6934 -2.5033 0.9665
6.9667 -4.2083 -2.5034 0.9665
7.2487 -3.7018 -2.5035 0.9665
7.7013 -2.6351 -2.5036 0.9665
7.8694 -2.0803 -2.5036 0.9665
8.0465 -1.2291 -2.5036 0.9665
8.1318 -0.3638 -2.5037 0.9665
8.1396 -0.0740 -2.5037 0.9665
8.1371 0.2159 -2.5037 0.9665
8.1010 0.7946 -2.5037 0.9665
8.0675 1.0826 -2.5036 0.9665
7.6541 2.7689 -2.5035 0.9665
7.3149 3.5694 -2.5035 0.9665
7.1830 3.8276 -2.5034 0.9665
6.7335 4.5717 -2.5033 0.9665
6.3908 5.0392 -2.5033 0.9665
6.2072 5.2635 -2.5032 0.9665
6.3032 -4.1208 -2.5032 0.9688
6.4461 -3.8938 -2.5033 0.9688
6.5807 -3.6618 -2.5033 0.9688
6.7070 -3.4252 -2.5033 0.9688
7.2080 -2.1829 -2.5034 0.9688
7.3452 -1.6643 -2.5035 0.9688
7.5072 -0.6044 -2.5035 0.9688
7.5240 -0.3366 -2.5035 0.9688
7.5312 -0.0685 -2.5035 0.9688
7.5170 0.4678 -2.5035 0.9688
7.4956 0.7352 -2.5035 0.9688
7.4646 1.0016 -2.5035 0.9688
7.4242 1.2668 -2.5035 0.9688
6.9862 2.8125 -2.5034 0.9688
6.8816 3.0595 -2.5034 0.9688
6.7682 3.3026 -2.5033 0.9688
6.5158 3.7759 -2.5033 0.9688
6.2303 4.2300 -2.5032 0.9688
6.0756 4.4491 -2.5032 0.9688
5.7434 4.8702 -2.5031 0.9688
5.5711 -4.2374 -2.5031 0.9707
5.7186 -4.0364 -2.5031 0.9707
5.8588 -3.8303 -2.5031 0.9707
5.9915 -3.6192 -2.5032 0.9707
6.6997 -2.0289 -2.5033 0.9707
6.7678 -1.7890 -2.5033 0.9707
6.8780 -1.3028 -2.5034 0.9707
6.9534 -0.8099 -2.5034 0.9707
6.9778 -0.5618 -2.5034 0.9707
6.9934 -0.3129 -2.5034 0.9707
7.0001 -0.0637 -2.5034 0.9707
6.9980 0.1857 -2.5034 0.9707
6.9670 0.6833 -2.5034 0.9707
6.9006 1.1775 -2.5034 0.9707
6.8543 1.4225 -2.5034 0.9707
6.7992 1.6657 -2.5033 0.9707
6.7355 1.9068 -2.5033 0.9707
6.6634 2.1454 -2.5033 0.9707
6.4936 2.6142 -2.5033 0.9707
6.1776 3.2918 -2.5032 0.9707
5.9274 3.7231 -2.5031 0.9707
5.7908 3.9320 -2.5031 0.9707
5.6473 4.1354 -2.5031 0.9707
5.4963 4.3339 -2.5030 0.9707
5.3384 4.5268 -2.5030 0.9707
5.1985 -3.9541 -2.5030 0.9724
5.3362 -3.7665 -2.5030 0.9724
5.7077 -3.1760 -2.5031 0.9724
6.0140 -2.5492 -2.5032 0.9724
6.1010 -2.3334 -2.5032 0.9724
6.1804 -2.1147 -2.5032 0.9724
6.2517 -1.8932 -2.5032 0.9724
6.3707 -1.4435 -2.5033 0.9724
6.4574 -0.9863 -2.5033 0.9724
6.5258 -0.2920 -2.5033 0.9724
6.5321 -0.0594 -2.5033 0.9724
6.5300 0.1733 -2.5033 0.9724
6.5197 0.4057 -2.5033 0.9724
6.4392 1.0987 -2.5033 0.9724
6.2851 1.7793 -2.5032 0.9724
5.9687 2.6536 -2.5032 0.9724
5.7645 3.0717 -2.5031 0.9724
5.6514 3.2750 -2.5031 0.9724
5.5311 3.4741 -2.5031 0.9724
5.2696 3.8589 -2.5030 0.9724
5.1288 4.0441 -2.5030 0.9724
4.9814 4.2241 -2.5029 0.9724
4.8675 -3.7023 -2.5029 0.9739
4.9963 -3.5266 -2.5029 0.9739
5.1188 -3.3465 -2.5030 0.9739
5.3441 -2.9737 -2.5030 0.9739
5.6309 -2.3868 -2.5031 0.9739
5.7124 -2.1848 -2.5031 0.9739
5.7866 -1.9800 -2.5031 0.9739
5.8535 -1.7727 -2.5031 0.9739
5.9649 -1.3515 -2.5032 0.9739
6.0751 -0.7076 -2.5032 0.9739
6.1159 -0.0556 -2.5032 0.9739
6.1140 0.1622 -2.5032 0.9739
6.1043 0.3799 -2.5032 0.9739
6.0870 0.5970 -2.5032 0.9739
5.9885 1.2428 -2.5032 0.9739
5.9404 1.4553 -2.5031 0.9739
5.8217 1.8744 -2.5031 0.9739
5.7512 2.0805 -2.5031 0.9739
5.6734 2.2840 -2.5031 0.9739
5.5884 2.4846 -2.5031 0.9739
5.4964 2.6820 -2.5030 0.9739
5.3973 2.8760 -2.5030 0.9739
5.2914 3.0664 -2.5030 0.9739
5.1788 3.2529 -2.5030 0.9739
4.9340 3.6131 -2.5029 0.9739
4.8021 3.7865 -2.5029 0.9739
4.6642 3.9551 -2.5029 0.9739
4.5203 4.1186 -2.5028 0.9739
4.5709 -3.4767 -2.5028 0.9753
5.0185 -2.7925 -2.5029 0.9753
5.1148 -2.6121 -2.5030 0.9753
5.4340 -1.8593 -2.5030 0.9753
5.4969 -1.6646 -2.5030 0.9753
5.6431 -1.0689 -2.5031 0.9753
5.6776 -0.8672 -2.5031 0.9753
5.7250 -0.4609 -2.5031 0.9753
5.7378 -0.2567 -2.5031 0.9753
5.7432 -0.0522 -2.5031 0.9753
5.7415 0.1523 -2.5031 0.9753
5.6236 1.1671 -2.5031 0.9753
5.5262 1.5644 -2.5031 0.9753
5.4008 1.9538 -2.5030 0.9753
5.3277 2.1449 -2.5030 0.9753
5.2479 2.3332 -2.5030 0.9753
5.1614 2.5186 -2.5030 0.9753
4.7513 3.2259 -2.5029 0.9753
4.6334 3.3930 -2.5028 0.9753
4.5096 3.5558 -2.5028 0.9753
4.3800 3.7141 -2.5028 0.9753
4.4174 -3.1180 -2.5028 0.9764
4.5257 -2.9587 -2.5028 0.9764
4.7249 -2.6292 -2.5029 0.9764
4.9785 -2.1102 -2.5029 0.9764
5.0505 -1.9316 -2.5029 0.9764
5.1161 -1.7505 -2.5030 0.9764
5.3129 -1.0063 -2.5030 0.9764
5.4020 -0.2417 -2.5030 0.9764
5.4072 -0.0492 -2.5030 0.9764
5.3971 0.3358 -2.5030 0.9764
5.2521 1.2867 -2.5030 0.9764
5.2029 1.4729 -2.5030 0.9764
5.1471 1.6572 -2.5030 0.9764
5.0161 2.0194 -2.5029 0.9764
4.8595 2.3712 -2.5029 0.9764
4.7719 2.5428 -2.5029 0.9764
4.3623 3.1945 -2.5028 0.9764
4.2457 3.3478 -2.5028 0.9764
4.0609 -3.0888 -2.5027 0.9775
4.3673 -2.6381 -2.5028 0.9775
4.4586 -2.4810 -2.5028 0.9775
4.6239 -2.1573 -2.5028 0.9775
4.6978 -1.9913 -2.5029 0.9775
4.7658 -1.8227 -2.5029 0.9775
4.8277 -1.6519 -2.5029 0.9775
4.9331 -1.3041 -2.5029 0.9775
5.0441 -0.7705 -2.5029 0.9775
5.0862 -0.4095 -2.5030 0.9775
5.1024 -0.0464 -2.5030 0.9775
5.1008 0.1353 -2.5030 0.9775
5.0928 0.3169 -2.5030 0.9775
5.0783 0.4981 -2.5029 0.9775
5.0299 0.8583 -2.5029 0.9775
4.9961 1.0369 -2.5029 0.9775
4.9560 1.2141 -2.5029 0.9775
4.8570 1.5638 -2.5029 0.9775
4.7982 1.7358 -2.5029 0.9775
4.7333 1.9055 -2.5029 0.9775
4.6624 2.0729 -2.5029 0.9775
4.5856 2.2376 -2.5028 0.9775
4.5029 2.3995 -2.5028 0.9775
4.4146 2.5583 -2.5028 0.9775
4.3206 2.7138 -2.5028 0.9775
4.2213 2.8660 -2.5027 0.9775
3.7713 3.4362 -2.5026 0.9775
3.8397 -2.9205 -2.5027 0.9785
3.9413 -2.7820 -2.5027 0.9785
4.1294 -2.4944 -2.5027 0.9785
4.2156 -2.3458 -2.5027 0.9785
4.4419 -1.8828 -2.5028 0.9785
4.6174 -1.3983 -2.5028 0.9785
4.6643 -1.2330 -2.5029 0.9785
4.7053 -1.0661 -2.5029 0.9785
4.7403 -0.8979 -2.5029 0.9785
4.7922 -0.5582 -2.5029 0.9785
4.8197 -0.2157 -2.5029 0.9785
4.8229 0.1279 -2.5029 0.9785
4.8153 0.2996 -2.5029 0.9785
4.8015 0.4709 -2.5029 0.9785
4.5367 1.6412 -2.5028 0.9785
4.3357 2.1157 -2.5028 0.9785
4.1740 2.4189 -2.5027 0.9785
4.0852 2.5660 -2.5027 0.9785
3.7881 2.9870 -2.5026 0.9785
3.6793 3.1200 -2.5026 0.9785
3.6368 -2.7662 -2.5026 0.9794
3.8246 -2.5004 -2.5027 0.9794
3.9929 -2.2218 -2.5027 0.9794
4.0695 -2.0782 -2.5027 0.9794
4.2072 -1.7833 -2.5027 0.9794
4.2680 -1.6324 -2.5028 0.9794
4.3235 -1.4793 -2.5028 0.9794
4.4567 -1.0098 -2.5028 0.9794
4.5173 -0.6900 -2.5028 0.9794
4.5550 -0.3667 -2.5028 0.9794
4.5695 -0.0416 -2.5028 0.9794
4.5681 0.1212 -2.5028 0.9794
4.5609 0.2838 -2.5028 0.9794
4.4743 0.9286 -2.5028 0.9794
4.4384 1.0873 -2.5028 0.9794
4.2971 1.5545 -2.5028 0.9794
4.1755 1.8564 -2.5027 0.9794
4.1067 2.0039 -2.5027 0.9794
4.0327 2.1488 -2.5027 0.9794
3.8694 2.4304 -2.5027 0.9794
3.7804 2.5667 -2.5026 0.9794
3.6865 2.6996 -2.5026 0.9794
3.5880 2.8292 -2.5026 0.9794
3.4850 2.9552 -2.5026 0.9794
3.4500 -2.6241 -2.5026 0.9802
3.7878 -2.1077 -2.5026 0.9802
3.8605 -1.9715 -2.5027 0.9802
3.9283 -1.8328 -2.5027 0.9802
4.0488 -1.5485 -2.5027 0.9802
4.1014 -1.4034 -2.5027 0.9802
4.2278 -0.9579 -2.5028 0.9802
4.2853 -0.6546 -2.5028 0.9802
4.3210 -0.3479 -2.5028 0.9802
4.3306 -0.1938 -2.5028 0.9802
4.3334 0.1150 -2.5028 0.9802
4.3266 0.2692 -2.5028 0.9802
4.3142 0.4231 -2.5028 0.9802
4.2964 0.5765 -2.5028 0.9802
4.2445 0.8809 -2.5028 0.9802
4.2104 1.0314 -2.5027 0.9802
4.1262 1.3285 -2.5027 0.9802
4.0763 1.4746 -2.5027 0.9802
3.9610 1.7610 -2.5027 0.9802
3.8957 1.9010 -2.5027 0.9802
3.8255 2.0385 -2.5027 0.9802
3.5862 2.4348 -2.5026 0.9802
3.3059 2.8034 -2.5025 0.9802
3.2040 2.9193 -2.5025 0.9802
