ply
format ascii 1.0
element vertex 494
property float32 x
property float32 y
property float32 z
property float32 I
end_header
-36.6900 -28.1602 -2.3456 0.8309
-33.4424 -31.9569 -2.3458 0.8309
-29.8047 -35.3826 -2.3462 0.8309
-25.8189 -38.3975 -2.3466 0.8308
-21.5311 -40.9666 -2.3471 0.8308
-20.0427 -41.7174 -2.3472 0.8308
-18.5272 -42.4123 -2.3472 0.8308
-16.9876 -43.0518 -2.3472 0.8308
-15.4259 -43.6353 -2.3471 0.8308
-13.8442 -44.1618 -2.3471 0.8308
-12.2445 -44.6309 -2.3471 0.8308
-5.7139 -45.9675 -2.3491 0.8307
1.0076 -49.3252 -2.5020 0.8207
6.3249 -48.9519 -2.5032 0.8206
11.5734 -48.0064 -2.5044 0.8205
16.6913 -46.4992 -2.5055 0.8205
18.3579 -45.8748 -2.5059 0.8205
20.0011 -45.1904 -2.5062 0.8204
21.6187 -44.4470 -2.5066 0.8204
-26.0409 -18.5357 -2.3437 0.8797
-25.3585 -19.4631 -2.3439 0.8797
-23.8959 -21.2418 -2.3443 0.8796
-22.3096 -22.9116 -2.3448 0.8796
-21.4724 -23.7030 -2.3450 0.8796
-18.7979 -25.8907 -2.3460 0.8796
-17.8558 -26.5548 -2.3463 0.8796
-12.8202 -29.3478 -2.3482 0.8795
-11.7570 -29.7958 -2.3486 0.8794
-9.5853 -30.5763 -2.3495 0.8794
-7.3623 -31.1992 -2.3504 0.8794
-6.2351 -31.4505 -2.3509 0.8793
-0.5115 -32.7917 -2.4047 0.8767
0.6969 -34.1154 -2.5019 0.8721
1.9254 -34.0720 -2.5022 0.8721
4.3740 -33.8523 -2.5028 0.8721
5.5909 -33.6764 -2.5030 0.8720
6.8009 -33.4568 -2.5033 0.8720
8.0023 -33.1937 -2.5036 0.8720
9.1936 -32.8875 -2.5038 0.8720
12.6911 -31.7138 -2.5046 0.8720
14.9440 -30.7241 -2.5051 0.8719
16.0424 -30.1689 -2.5053 0.8719
-21.1900 -15.0828 -2.4971 0.9008
-19.8175 -15.2103 -2.3984 0.9045
-18.2582 -16.2302 -2.3453 0.9065
-16.4203 -18.1261 -2.3481 0.9064
-15.7586 -18.7078 -2.3483 0.9064
-15.0761 -19.2651 -2.3486 0.9064
-14.3739 -19.7976 -2.3488 0.9064
-12.1589 -21.2398 -2.3496 0.9063
-11.3875 -21.6666 -2.3499 0.9063
-8.9877 -22.7775 -2.3508 0.9063
-8.1627 -23.0897 -2.3512 0.9063
-7.3268 -23.3721 -2.3515 0.9063
-5.6271 -23.8461 -2.3522 0.9062
-4.7654 -24.0370 -2.3526 0.9062
-3.8972 -24.1968 -2.3530 0.9062
-2.1416 -24.3726 -2.3489 0.9064
-1.2625 -24.4359 -2.3491 0.9064
0.5322 -26.0547 -2.5019 0.9006
1.4704 -26.0208 -2.5021 0.9006
2.4068 -25.9531 -2.5023 0.9006
4.2695 -25.7168 -2.5027 0.9005
6.1106 -25.3469 -2.5031 0.9005
7.0201 -25.1124 -2.5033 0.9005
7.9206 -24.8453 -2.5035 0.9005
8.8109 -24.5458 -2.5037 0.9005
10.5566 -23.8515 -2.5041 0.9005
12.2480 -23.0332 -2.5045 0.9005
-17.1323 -12.1946 -2.4980 0.9188
-15.7190 -13.9731 -2.4983 0.9188
-15.2063 -14.5308 -2.4984 0.9188
-13.7726 -15.2033 -2.4368 0.9207
-11.0246 -16.3957 -2.3469 0.9235
-10.4276 -16.7831 -2.3471 0.9235
-9.1978 -17.5002 -2.3484 0.9235
-8.5728 -17.8436 -2.3515 0.9234
-7.9258 -18.1438 -2.3519 0.9233
-7.2681 -18.4195 -2.3522 0.9233
-6.6007 -18.6715 -2.3524 0.9233
-4.5500 -19.2817 -2.3533 0.9233
-2.4440 -19.6616 -2.3535 0.9233
-1.7330 -19.7223 -2.3518 0.9233
-1.0204 -19.7500 -2.3492 0.9234
-0.3285 -21.0580 -2.5017 0.9187
1.1883 -21.0299 -2.5020 0.9187
3.4504 -20.7832 -2.5025 0.9186
4.1970 -20.6468 -2.5027 0.9186
4.9382 -20.4836 -2.5029 0.9186
6.4007 -20.0776 -2.5032 0.9186
-12.7511 -12.1847 -2.4989 0.9312
-12.3045 -12.6365 -2.4990 0.9312
-11.8418 -13.0720 -2.4991 0.9312
-10.3642 -14.2748 -2.4995 0.9312
-9.8438 -14.6395 -2.4996 0.9312
-6.0826 -15.4150 -2.3480 0.9352
-4.9601 -15.8223 -2.3494 0.9352
-4.3878 -15.9936 -2.3499 0.9352
-2.6364 -16.3690 -2.3492 0.9352
-2.0474 -16.4713 -2.3518 0.9351
-0.9110 -17.6318 -2.5016 0.9312
-0.2754 -17.6542 -2.5017 0.9312
0.3606 -17.6537 -2.5019 0.9312
1.6307 -17.5839 -2.5021 0.9311
2.2631 -17.5147 -2.5023 0.9311
4.7557 -17.0120 -2.5028 0.9311
5.9686 -16.6274 -2.5031 0.9311
7.1505 -16.1563 -2.5034 0.9311
7.7284 -15.8891 -2.5035 0.9311
-12.3586 -8.7967 -2.4990 0.9404
-11.3387 -10.0793 -2.4993 0.9404
-10.9687 -10.4814 -2.4993 0.9403
-10.5844 -10.8701 -2.4994 0.9403
-10.1864 -11.2446 -2.4995 0.9403
-9.7752 -11.6046 -2.4996 0.9403
-9.3513 -11.9496 -2.4997 0.9403
-8.9152 -12.2791 -2.4998 0.9403
-8.4675 -12.5927 -2.4999 0.9403
-7.5397 -13.1707 -2.5001 0.9403
-7.0608 -13.4343 -2.5002 0.9403
-5.0594 -14.3115 -2.5007 0.9403
-4.5409 -14.4851 -2.5008 0.9403
-3.4867 -14.7757 -2.5010 0.9403
-2.4143 -14.9898 -2.5012 0.9403
-1.8730 -15.0678 -2.5014 0.9403
-0.7835 -15.1650 -2.5016 0.9403
0.3102 -15.1835 -2.5018 0.9403
0.8569 -15.1633 -2.5020 0.9403
1.4025 -15.1233 -2.5021 0.9403
2.4877 -14.9846 -2.5023 0.9403
3.0259 -14.8859 -2.5024 0.9403
3.5603 -14.7680 -2.5026 0.9403
4.0900 -14.6309 -2.5027 0.9403
4.6145 -14.4748 -2.5028 0.9403
5.6450 -14.1063 -2.5030 0.9403
6.1497 -13.8945 -2.5031 0.9403
-10.8332 -7.7109 -2.4994 0.9473
-10.5487 -8.0963 -2.4994 0.9473
-8.9290 -9.8565 -2.4998 0.9473
-7.4221 -11.0380 -2.5001 0.9473
-7.0200 -11.2986 -2.5002 0.9473
-6.6087 -11.5445 -2.5003 0.9473
-6.1888 -11.7754 -2.5004 0.9473
-5.7610 -11.9911 -2.5005 0.9473
-5.3256 -12.1913 -2.5006 0.9473
-2.5878 -13.0530 -2.5012 0.9473
-1.6416 -13.2065 -2.5014 0.9473
-1.1649 -13.2576 -2.5015 0.9473
-0.6867 -13.2915 -2.5016 0.9473
-0.2075 -13.3082 -2.5017 0.9473
0.7510 -13.2898 -2.5019 0.9473
2.1803 -13.1329 -2.5023 0.9473
2.6520 -13.0464 -2.5024 0.9473
3.1203 -12.9430 -2.5025 0.9473
4.9473 -12.3628 -2.5029 0.9472
5.3895 -12.1771 -2.5030 0.9472
-9.3810 -7.2001 -2.4997 0.9528
-8.8388 -7.8571 -2.4998 0.9528
-8.5503 -8.1705 -2.4999 0.9528
-8.2507 -8.4733 -2.4999 0.9528
-7.9404 -8.7653 -2.5000 0.9528
-7.2893 -9.3146 -2.5002 0.9528
-6.9493 -9.5714 -2.5002 0.9528
-6.6003 -9.8158 -2.5003 0.9528
-4.7358 -10.8412 -2.5007 0.9528
-3.9434 -11.1548 -2.5009 0.9528
-3.1305 -11.4105 -2.5011 0.9528
-1.8817 -11.6829 -2.5014 0.9528
-0.6106 -11.8190 -2.5016 0.9528
-0.1846 -11.8338 -2.5017 0.9528
0.6678 -11.8173 -2.5019 0.9528
1.9387 -11.6776 -2.5022 0.9528
2.3581 -11.6007 -2.5023 0.9528
2.7745 -11.5087 -2.5024 0.9528
3.5960 -11.2799 -2.5026 0.9527
4.3990 -10.9926 -2.5028 0.9527
4.7922 -10.8274 -2.5028 0.9527
5.1792 -10.6481 -2.5029 0.9527
-8.6656 -6.1680 -2.4998 0.9572
-8.4380 -6.4763 -2.4999 0.9572
-7.9502 -7.0672 -2.5000 0.9572
-5.6150 -9.0372 -2.5005 0.9572
-5.2860 -9.2338 -2.5006 0.9572
-3.5468 -10.0329 -2.5010 0.9572
-3.1833 -10.1545 -2.5011 0.9572
-2.8156 -10.2629 -2.5011 0.9572
-2.0697 -10.4396 -2.5013 0.9572
-1.6924 -10.5078 -2.5014 0.9572
-0.5492 -10.6301 -2.5017 0.9572
0.6006 -10.6284 -2.5019 0.9572
0.9830 -10.6003 -2.5020 0.9572
1.3643 -10.5583 -2.5021 0.9572
1.7436 -10.5027 -2.5022 0.9572
2.1208 -10.4334 -2.5022 0.9572
2.8666 -10.2544 -2.5024 0.9572
3.2341 -10.1448 -2.5025 0.9572
3.5976 -10.0221 -2.5026 0.9572
4.3099 -9.7377 -2.5027 0.9572
4.6579 -9.5765 -2.5028 0.9572
5.0000 -9.4028 -2.5029 0.9572
-7.6598 -5.8790 -2.5001 0.9609
-7.4432 -6.1512 -2.5001 0.9609
-7.2170 -6.4154 -2.5002 0.9609
-6.7367 -6.9186 -2.5003 0.9609
-6.4834 -7.1569 -2.5003 0.9609
-5.9517 -7.6054 -2.5005 0.9609
-5.6740 -7.8150 -2.5005 0.9609
-5.3890 -8.0144 -2.5006 0.9609
-4.4935 -8.5496 -2.5008 0.9609
-4.1828 -8.7062 -2.5008 0.9609
-3.2196 -9.1073 -2.5011 0.9609
-1.8787 -9.4764 -2.5014 0.9609
-0.4985 -9.6491 -2.5017 0.9609
-0.1506 -9.6611 -2.5017 0.9609
0.1974 -9.6606 -2.5018 0.9609
0.5451 -9.6475 -2.5019 0.9609
1.9251 -9.4704 -2.5022 0.9609
2.2650 -9.3952 -2.5023 0.9609
2.9356 -9.2083 -2.5024 0.9609
3.9120 -8.8387 -2.5026 0.9608
-6.6011 -5.8679 -2.5003 0.9639
-6.1618 -6.3280 -2.5004 0.9639
-5.4436 -6.9562 -2.5006 0.9639
-4.9290 -7.3303 -2.5007 0.9639
-4.6619 -7.5033 -2.5007 0.9639
-4.3888 -7.6665 -2.5008 0.9639
-3.8257 -7.9629 -2.5009 0.9639
-2.9447 -8.3298 -2.5011 0.9639
-0.7735 -8.8028 -2.5016 0.9639
-0.4560 -8.8252 -2.5017 0.9639
0.4986 -8.8236 -2.5019 0.9639
1.1325 -8.7653 -2.5020 0.9639
1.4476 -8.7191 -2.5021 0.9639
1.7607 -8.6615 -2.5022 0.9639
2.3797 -8.5128 -2.5023 0.9639
2.9865 -8.3198 -2.5024 0.9639
3.5779 -8.0837 -2.5026 0.9639
3.8668 -7.9498 -2.5026 0.9639
4.1507 -7.8056 -2.5027 0.9639
-6.2663 -5.1786 -2.5004 0.9666
-5.8775 -5.6164 -2.5005 0.9666
-5.6715 -5.8246 -2.5005 0.9666
-5.4581 -6.0252 -2.5006 0.9665
-4.7768 -6.5791 -2.5007 0.9665
-4.5368 -6.7470 -2.5008 0.9665
-4.2909 -6.9062 -2.5008 0.9665
-4.0395 -7.0564 -2.5009 0.9665
-3.7828 -7.1975 -2.5009 0.9665
-3.5212 -7.3292 -2.5010 0.9665
-2.9846 -7.5640 -2.5011 0.9665
-2.4325 -7.7596 -2.5012 0.9665
-1.0032 -8.0709 -2.5016 0.9665
-0.7119 -8.1020 -2.5016 0.9665
0.4589 -8.1212 -2.5019 0.9665
0.7511 -8.0996 -2.5019 0.9665
1.0424 -8.0675 -2.5020 0.9665
1.6205 -7.9719 -2.5021 0.9665
2.4711 -7.7512 -2.5023 0.9665
2.7487 -7.6574 -2.5024 0.9665
3.0228 -7.5536 -2.5024 0.9665
3.2929 -7.4400 -2.5025 0.9665
3.5588 -7.3168 -2.5026 0.9665
-6.1282 -4.3620 -2.5004 0.9688
-5.9673 -4.5800 -2.5004 0.9688
-5.7986 -4.7920 -2.5005 0.9688
-5.4387 -5.1971 -2.5006 0.9688
-5.2481 -5.3897 -2.5006 0.9688
-4.6363 -5.9246 -2.5007 0.9688
-4.1980 -6.2433 -2.5008 0.9688
-3.9705 -6.3906 -2.5009 0.9688
-3.7379 -6.5296 -2.5009 0.9688
-3.5004 -6.6601 -2.5010 0.9688
-3.0120 -6.8951 -2.5011 0.9688
-2.7618 -6.9992 -2.5012 0.9688
-2.5080 -7.0943 -2.5012 0.9688
-2.2509 -7.1802 -2.5013 0.9688
-1.9908 -7.2568 -2.5013 0.9688
-1.7283 -7.3239 -2.5014 0.9688
-1.4634 -7.3816 -2.5014 0.9688
-0.9283 -7.4682 -2.5016 0.9688
-0.3883 -7.5160 -2.5017 0.9688
-0.1174 -7.5253 -2.5017 0.9688
0.4247 -7.5146 -2.5019 0.9688
0.9646 -7.4649 -2.5020 0.9688
1.4995 -7.3764 -2.5021 0.9688
1.7642 -7.3178 -2.5022 0.9688
2.0266 -7.2497 -2.5022 0.9688
2.5433 -7.0853 -2.5023 0.9688
-5.6966 -4.0548 -2.5005 0.9707
-5.5469 -4.2574 -2.5005 0.9707
-5.3901 -4.4544 -2.5006 0.9707
-5.2262 -4.6458 -2.5006 0.9707
-5.0556 -4.8310 -2.5006 0.9707
-4.5052 -5.3484 -2.5008 0.9707
-4.1087 -5.6590 -2.5009 0.9707
-3.6908 -5.9403 -2.5010 0.9707
-3.2538 -6.1909 -2.5010 0.9707
-3.0287 -6.3041 -2.5011 0.9707
-2.5672 -6.5061 -2.5012 0.9707
-2.3313 -6.5945 -2.5013 0.9707
-1.8506 -6.7455 -2.5014 0.9707
-1.6065 -6.8079 -2.5014 0.9707
-0.8629 -6.9419 -2.5016 0.9707
-0.1091 -6.9949 -2.5017 0.9707
0.1429 -6.9945 -2.5018 0.9707
0.3947 -6.9850 -2.5019 0.9707
0.6461 -6.9664 -2.5019 0.9707
1.1459 -6.9021 -2.5020 0.9707
1.3938 -6.8565 -2.5021 0.9707
1.8838 -6.7387 -2.5022 0.9707
2.5998 -6.4966 -2.5024 0.9707
3.0608 -6.2929 -2.5025 0.9707
-5.3161 -3.7839 -2.5006 0.9724
-4.7179 -4.5083 -2.5007 0.9724
-4.5525 -4.6754 -2.5008 0.9724
-4.2043 -4.9911 -2.5008 0.9724
-3.8342 -5.2810 -2.5009 0.9724
-3.2424 -5.6640 -2.5011 0.9724
-3.0364 -5.7772 -2.5011 0.9724
-2.8264 -5.8829 -2.5011 0.9724
-2.6127 -5.9810 -2.5012 0.9724
-2.3957 -6.0714 -2.5012 0.9724
-1.2694 -6.4029 -2.5015 0.9724
0.6029 -6.5008 -2.5019 0.9724
0.8366 -6.4750 -2.5020 0.9724
1.0693 -6.4408 -2.5020 0.9724
1.5303 -6.3474 -2.5021 0.9724
1.9832 -6.2210 -2.5022 0.9724
2.2061 -6.1457 -2.5023 0.9724
2.8562 -5.8722 -2.5024 0.9724
3.0659 -5.7656 -2.5025 0.9724
-4.7099 -3.8923 -2.5007 0.9739
-4.2628 -4.3778 -2.5008 0.9739
-4.1024 -4.5286 -2.5009 0.9739
-3.5902 -4.9448 -2.5010 0.9739
-3.0361 -5.3035 -2.5011 0.9739
-2.8431 -5.4095 -2.5011 0.9739
-2.6465 -5.5085 -2.5012 0.9739
-2.4464 -5.6003 -2.5012 0.9739
-2.2431 -5.6849 -2.5013 0.9739
-1.8282 -5.8318 -2.5014 0.9739
-1.4037 -5.9485 -2.5015 0.9739
-1.1886 -5.9954 -2.5015 0.9739
-0.9719 -6.0344 -2.5016 0.9739
-0.5350 -6.0889 -2.5017 0.9739
-0.0953 -6.1119 -2.5018 0.9739
0.5645 -6.0869 -2.5019 0.9739
0.7834 -6.0627 -2.5019 0.9739
1.0013 -6.0307 -2.5020 0.9739
1.6460 -5.8879 -2.5021 0.9739
1.8570 -5.8249 -2.5022 0.9739
2.0656 -5.7543 -2.5022 0.9739
2.2715 -5.6763 -2.5023 0.9739
2.4746 -5.5909 -2.5023 0.9739
2.6743 -5.4982 -2.5024 0.9739
-4.4232 -3.6554 -2.5008 0.9753
-4.1487 -3.9644 -2.5008 0.9753
-4.0033 -4.1113 -2.5009 0.9753
-3.8526 -4.2529 -2.5009 0.9753
-3.6970 -4.3889 -2.5010 0.9753
-3.5366 -4.5193 -2.5010 0.9753
-3.2022 -4.7623 -2.5011 0.9753
-2.6700 -5.0801 -2.5012 0.9753
-2.2975 -5.2593 -2.5013 0.9753
-2.1066 -5.3387 -2.5013 0.9753
-1.7169 -5.4767 -2.5014 0.9753
-1.5186 -5.5351 -2.5014 0.9753
-0.7080 -5.6962 -2.5016 0.9753
-0.2962 -5.7326 -2.5017 0.9753
-0.0895 -5.7397 -2.5018 0.9753
0.1172 -5.7393 -2.5018 0.9753
0.5301 -5.7162 -2.5019 0.9753
0.7356 -5.6935 -2.5019 0.9753
0.9402 -5.6634 -2.5020 0.9753
1.1436 -5.6259 -2.5020 0.9753
1.7438 -5.4701 -2.5022 0.9753
2.1332 -5.3305 -2.5022 0.9753
-4.4015 -3.1329 -2.5008 0.9765
-4.2858 -3.2894 -2.5008 0.9765
-4.0380 -3.5895 -2.5009 0.9765
-3.7692 -3.8710 -2.5009 0.9765
-3.6274 -4.0042 -2.5010 0.9765
-3.3298 -4.2551 -2.5010 0.9765
-3.0150 -4.4839 -2.5011 0.9765
-2.8516 -4.5896 -2.5011 0.9765
-2.6845 -4.6894 -2.5012 0.9765
-2.1631 -4.9519 -2.5013 0.9765
-1.9834 -5.0266 -2.5013 0.9765
-1.8012 -5.0949 -2.5014 0.9765
-1.4297 -5.2115 -2.5015 0.9765
-1.2411 -5.2597 -2.5015 0.9765
-1.0509 -5.3011 -2.5015 0.9765
-0.4730 -5.3837 -2.5017 0.9765
-0.0843 -5.4040 -2.5018 0.9765
0.1104 -5.4037 -2.5018 0.9765
0.3049 -5.3963 -2.5018 0.9765
0.4991 -5.3819 -2.5019 0.9765
0.6926 -5.3605 -2.5019 0.9765
0.8853 -5.3322 -2.5020 0.9765
1.2669 -5.2548 -2.5021 0.9765
1.8263 -5.0878 -2.5022 0.9765
2.3645 -4.8613 -2.5023 0.9765
-4.1536 -2.9564 -2.5008 0.9775
-4.0444 -3.1042 -2.5009 0.9775
-3.8105 -3.3873 -2.5009 0.9775
-3.6861 -3.5224 -2.5010 0.9775
-3.5570 -3.6529 -2.5010 0.9775
-3.4231 -3.7787 -2.5010 0.9775
-3.2848 -3.8996 -2.5010 0.9775
-2.8451 -4.2313 -2.5011 0.9775
-2.6910 -4.3311 -2.5012 0.9775
-2.5333 -4.4253 -2.5012 0.9775
-2.0413 -4.6729 -2.5013 0.9775
-1.6996 -4.8078 -2.5014 0.9775
-1.3492 -4.9179 -2.5015 0.9775
-1.1712 -4.9633 -2.5015 0.9775
-0.9917 -5.0024 -2.5016 0.9775
-0.8109 -5.0349 -2.5016 0.9775
-0.4464 -5.0804 -2.5017 0.9775
-0.0795 -5.0996 -2.5018 0.9775
0.4710 -5.0786 -2.5019 0.9775
1.1954 -4.9587 -2.5020 0.9775
1.3733 -4.9125 -2.5021 0.9775
1.5494 -4.8599 -2.5021 0.9775
1.7234 -4.8010 -2.5022 0.9775
1.8953 -4.7359 -2.5022 0.9775
2.2313 -4.5874 -2.5023 0.9775
-3.9274 -2.7955 -2.5009 0.9785
-3.7161 -3.0710 -2.5009 0.9785
-3.6031 -3.2029 -2.5010 0.9785
-3.4854 -3.3306 -2.5010 0.9785
-3.3632 -3.4540 -2.5010 0.9785
-3.2367 -3.5729 -2.5011 0.9785
-3.1060 -3.6872 -2.5011 0.9785
-2.8326 -3.9013 -2.5011 0.9785
-2.6902 -4.0009 -2.5012 0.9785
-2.5444 -4.0952 -2.5012 0.9785
-1.7698 -4.4851 -2.5014 0.9785
-1.6071 -4.5460 -2.5014 0.9785
-1.4424 -4.6010 -2.5015 0.9785
-0.9377 -4.7300 -2.5016 0.9785
-0.7668 -4.7607 -2.5016 0.9785
-0.5948 -4.7853 -2.5016 0.9785
-0.4221 -4.8037 -2.5017 0.9785
0.4454 -4.8020 -2.5019 0.9785
0.9607 -4.7262 -2.5020 0.9785
1.2985 -4.6449 -2.5021 0.9785
1.7920 -4.4779 -2.5022 0.9785
1.9521 -4.4106 -2.5022 0.9785
-3.7201 -2.6479 -2.5009 0.9794
-3.4129 -3.0338 -2.5010 0.9794
-3.3014 -3.1548 -2.5010 0.9794
-3.1857 -3.2716 -2.5011 0.9794
-3.0658 -3.3843 -2.5011 0.9794
-2.9420 -3.4926 -2.5011 0.9794
-2.8143 -3.5963 -2.5011 0.9794
-2.5482 -3.7896 -2.5012 0.9794
-2.2689 -3.9633 -2.5013 0.9794
-1.9777 -4.1165 -2.5013 0.9794
-1.8282 -4.1851 -2.5014 0.9794
-1.5223 -4.3060 -2.5014 0.9794
-1.3662 -4.3580 -2.5015 0.9794
-0.8882 -4.4802 -2.5016 0.9794
-0.7263 -4.5093 -2.5016 0.9794
-0.0712 -4.5671 -2.5018 0.9794
0.2577 -4.5606 -2.5018 0.9794
0.7481 -4.5064 -2.5019 0.9794
0.9100 -4.4766 -2.5020 0.9794
1.0706 -4.4409 -2.5020 0.9794
1.2299 -4.3996 -2.5020 0.9794
1.3876 -4.3525 -2.5021 0.9794
1.6973 -4.2414 -2.5021 0.9794
1.8490 -4.1776 -2.5022 0.9794
-2.7909 -3.3133 -2.5012 0.9802
-2.6698 -3.4117 -2.5012 0.9802
-2.4174 -3.5951 -2.5012 0.9802
-2.2863 -3.6799 -2.5013 0.9802
-2.0156 -3.8350 -2.5013 0.9802
-1.8762 -3.9052 -2.5014 0.9802
-1.5902 -4.0302 -2.5014 0.9802
-1.4441 -4.0849 -2.5015 0.9802
-1.2960 -4.1343 -2.5015 0.9802
-0.6890 -4.2778 -2.5016 0.9802
-0.3793 -4.3164 -2.5017 0.9802
-0.2236 -4.3273 -2.5017 0.9802
0.2445 -4.3264 -2.5018 0.9802
0.4002 -4.3148 -2.5019 0.9802
0.5553 -4.2977 -2.5019 0.9802
0.8632 -4.2467 -2.5020 0.9802
1.3163 -4.1290 -2.5021 0.9802
1.4642 -4.0789 -2.5021 0.9802
1.6102 -4.0236 -2.5021 0.9802
1.8957 -3.8974 -2.5022 0.9802
2.0348 -3.8266 -2.5022 0.9802
