ply
format ascii 1.0
element vertex 490
property float32 x
property float32 y
property float32 z
property float32 I
end_header
-13.0597 -17.3087 3.3217 0.9160
-13.0575 -17.3057 2.8231 0.9163
-13.0532 -17.3000 1.8346 0.9167
-13.0510 -17.2971 1.3437 0.9168
-13.0489 -17.2942 0.8543 0.9169
-13.0467 -17.2914 0.3659 0.9170
-36.4386 -16.3597 -0.2249 0.8523
-39.7435 -16.1562 -1.2080 0.8423
-48.8786 -4.8555 -2.4910 0.8214
-48.6738 -6.6062 -2.4911 0.8214
-48.0773 -10.0803 -2.4912 0.8214
-37.5131 -16.8421 -2.0854 0.8482
-41.4743 -20.4390 -2.3449 0.8309
-40.7178 -21.9159 -2.3451 0.8309
-39.0476 -24.7833 -2.3455 0.8309
-38.1341 -26.1689 -2.3455 0.8309
-37.1716 -27.5210 -2.3456 0.8309
-35.1045 -30.1178 -2.3457 0.8309
-34.0026 -31.3590 -2.3458 0.8309
-31.6690 -33.7196 -2.3460 0.8309
-30.4402 -34.8357 -2.3461 0.8309
-29.1722 -35.9073 -2.3462 0.8309
-13.0402 -17.2828 -1.0980 0.9169
-26.5250 -37.9110 -2.3465 0.8308
-25.1493 -38.8408 -2.3466 0.8308
-23.7411 -39.7206 -2.3468 0.8308
-22.3015 -40.5485 -2.3469 0.8308
-20.8325 -41.3229 -2.3469 0.8308
-17.8155 -42.7103 -2.3469 0.8308
-13.1225 -44.3755 -2.3468 0.8308
-9.9098 -45.2178 -2.3476 0.8308
-33.9508 -2.1461 -2.4943 0.8725
-33.7102 -4.5753 -2.4944 0.8725
-33.5250 -5.7820 -2.4944 0.8725
-33.2965 -6.9812 -2.4945 0.8725
-32.7119 -9.3515 -2.4946 0.8724
-32.3563 -10.5195 -2.4947 0.8724
-31.9592 -11.6740 -2.4948 0.8724
-31.0422 -13.9369 -2.4950 0.8724
-30.5236 -15.0424 -2.4951 0.8724
-26.9846 -17.1271 -2.3435 0.8797
-24.9968 -19.9344 -2.3443 0.8796
-24.2676 -20.8203 -2.3445 0.8796
-23.5072 -21.6796 -2.3447 0.8796
-22.7166 -22.5114 -2.3449 0.8796
-21.8967 -23.3146 -2.3452 0.8796
-21.0485 -24.0881 -2.3455 0.8796
-13.0107 -17.2437 -1.5839 0.9170
-15.4289 -28.0528 -2.3475 0.8795
-14.4148 -28.5930 -2.3479 0.8795
-13.3820 -29.0968 -2.3483 0.8795
-9.0885 -30.7342 -2.3500 0.8794
-6.8638 -31.3192 -2.3509 0.8793
-25.9897 -0.7081 -2.4961 0.9008
-25.8723 -2.5701 -2.4961 0.9008
-25.6219 -4.4189 -2.4961 0.9008
-25.0001 -7.1469 -2.4963 0.9008
-24.4245 -8.9217 -2.4964 0.9008
-23.3267 -11.4957 -2.4967 0.9008
-22.9001 -12.3257 -2.4967 0.9008
-22.4440 -13.1399 -2.4968 0.9008
-21.9590 -13.9373 -2.4970 0.9008
-21.4458 -14.7169 -2.4971 0.9008
-19.1005 -15.2323 -2.3455 0.9065
-18.5406 -15.9068 -2.3453 0.9065
-17.3540 -17.1973 -2.3456 0.9065
-16.0960 -18.4204 -2.3485 0.9064
-14.0279 -20.0495 -2.3492 0.9064
-13.3009 -20.5421 -2.3495 0.9063
-11.0206 -21.8603 -2.3503 0.9063
-10.2305 -22.2445 -2.3506 0.9063
-8.6113 -22.9271 -2.3513 0.9063
-6.9471 -23.4923 -2.3519 0.9062
-5.2460 -23.9372 -2.3526 0.9062
-20.9805 -1.3262 -2.4972 0.9188
-20.9195 -2.0781 -2.4972 0.9188
-20.8316 -2.8274 -2.4972 0.9188
-20.5757 -4.3141 -2.4973 0.9188
-20.2140 -5.7787 -2.4973 0.9188
-19.9941 -6.5004 -2.4974 0.9188
-19.7484 -7.2137 -2.4974 0.9188
-19.1812 -8.6117 -2.4976 0.9188
-18.5153 -9.9657 -2.4977 0.9188
-18.1464 -10.6239 -2.4978 0.9188
-17.7542 -11.2686 -2.4979 0.9188
-15.9621 -13.6946 -2.4983 0.9188
-15.4612 -14.2591 -2.4984 0.9188
-13.2910 -15.2103 -2.3994 0.9219
-11.8993 -15.7707 -2.3468 0.9235
-10.7389 -16.5852 -2.3470 0.9235
-9.5229 -17.3146 -2.3473 0.9235
-8.2735 -17.9893 -2.3520 0.9233
-7.6235 -18.2764 -2.3523 0.9233
-6.2946 -18.7802 -2.3528 0.9233
-5.6175 -18.9963 -2.3531 0.9233
-4.9329 -19.1880 -2.3534 0.9233
-4.2418 -19.3551 -2.3537 0.9233
-17.6229 -0.4802 -2.4979 0.9313
-17.5944 -1.1122 -2.4979 0.9313
-17.3733 -2.9963 -2.4980 0.9313
-17.1141 -4.2346 -2.4980 0.9313
-16.9514 -4.8460 -2.4981 0.9313
-16.5608 -6.0493 -2.4981 0.9312
-16.3334 -6.6397 -2.4982 0.9312
-15.8160 -7.7943 -2.4983 0.9312
-15.5265 -8.3570 -2.4984 0.9312
-14.8881 -9.4495 -2.4985 0.9312
-14.5399 -9.9778 -2.4986 0.9312
-13.3849 -11.4836 -2.4988 0.9312
-12.9648 -11.9568 -2.4989 0.9312
-12.0749 -12.8568 -2.4991 0.9312
-11.1228 -13.6908 -2.4993 0.9312
-10.6249 -14.0817 -2.4994 0.9312
-9.0515 -15.1439 -2.4998 0.9312
-8.3596 -15.1995 -2.4578 0.9323
-7.6668 -15.2078 -2.4131 0.9335
-6.9976 -15.2153 -2.3729 0.9346
-6.3796 -15.2941 -2.3480 0.9352
-5.8277 -15.5160 -2.3484 0.9352
-5.2683 -15.7182 -2.3489 0.9352
-4.7013 -15.8981 -2.3490 0.9352
-15.1358 -0.9568 -2.4984 0.9404
-15.0919 -1.4992 -2.4985 0.9404
-14.9457 -2.5777 -2.4985 0.9404
-14.8437 -3.1123 -2.4985 0.9404
-14.5827 -4.1688 -2.4986 0.9404
-14.0509 -5.7119 -2.4987 0.9404
-13.6057 -6.7051 -2.4988 0.9404
-13.0904 -7.6638 -2.4989 0.9404
-12.8073 -8.1288 -2.4990 0.9404
-12.5077 -8.5833 -2.4990 0.9404
-11.5140 -9.8785 -2.4992 0.9404
-10.7767 -10.6794 -2.4994 0.9403
-9.5678 -11.7768 -2.4997 0.9403
-8.6993 -12.4336 -2.4999 0.9403
-8.2479 -12.7382 -2.5000 0.9403
-5.8433 -14.0087 -2.5005 0.9403
-4.8241 -14.3929 -2.5007 0.9403
-4.3048 -14.5574 -2.5008 0.9403
-3.2501 -14.8300 -2.5011 0.9403
-13.2295 -1.3142 -2.4989 0.9473
-13.1738 -1.7880 -2.4989 0.9473
-13.0119 -2.7282 -2.4989 0.9473
-12.9058 -3.1933 -2.4989 0.9473
-12.7830 -3.6544 -2.4990 0.9473
-12.3169 -5.0070 -2.4991 0.9473
-11.7082 -6.3018 -2.4992 0.9473
-11.2266 -7.1255 -2.4993 0.9473
-10.9640 -7.5239 -2.4994 0.9473
-10.6872 -7.9126 -2.4994 0.9473
-10.3967 -8.2912 -2.4995 0.9473
-9.7759 -9.0159 -2.4996 0.9473
-9.4464 -9.3611 -2.4997 0.9473
-9.1047 -9.6943 -2.4998 0.9473
-8.7513 -10.0150 -2.4999 0.9473
-8.3866 -10.3229 -2.4999 0.9473
-8.0111 -10.6175 -2.5000 0.9473
-7.6252 -10.8985 -2.5001 0.9473
-7.2296 -11.1654 -2.5002 0.9473
-6.4107 -11.6560 -2.5004 0.9473
-5.9886 -11.8789 -2.5005 0.9473
-5.1217 -12.2787 -2.5007 0.9473
-4.6780 -12.4551 -2.5007 0.9473
-4.2284 -12.6154 -2.5008 0.9473
-3.7731 -12.7595 -2.5009 0.9473
-3.3130 -12.8872 -2.5010 0.9473
-11.7158 -1.5901 -2.4992 0.9528
-11.5718 -2.4262 -2.4992 0.9528
-11.2444 -3.6557 -2.4993 0.9528
-11.1061 -4.0568 -2.4993 0.9528
-10.7869 -4.8430 -2.4994 0.9528
-9.9838 -6.3367 -2.4996 0.9528
-9.5041 -7.0367 -2.4997 0.9528
-9.2457 -7.3733 -2.4997 0.9528
-8.9754 -7.7005 -2.4998 0.9528
-8.6936 -8.0178 -2.4999 0.9528
-8.0967 -8.6210 -2.5000 0.9528
-6.4290 -9.9291 -2.5004 0.9528
-6.0689 -10.1537 -2.5004 0.9528
-5.3254 -10.5635 -2.5006 0.9528
-4.9431 -10.7481 -2.5007 0.9528
-4.5545 -10.9189 -2.5008 0.9528
-3.7600 -11.2182 -2.5009 0.9528
-3.3552 -11.3463 -2.5010 0.9528
-2.5331 -11.5585 -2.5012 0.9528
-10.6309 -0.2897 -2.4994 0.9572
-10.5828 -1.0513 -2.4994 0.9572
-10.4802 -1.8075 -2.4995 0.9572
-10.2256 -2.9233 -2.4995 0.9572
-10.1142 -3.2883 -2.4996 0.9572
-9.9898 -3.6491 -2.4996 0.9572
-9.7027 -4.3562 -2.4996 0.9572
-9.3656 -5.0409 -2.4997 0.9572
-9.1788 -5.3738 -2.4998 0.9572
-8.0732 -6.9264 -2.5000 0.9572
-7.5560 -7.4878 -2.5001 0.9572
-6.0991 -8.7173 -2.5004 0.9572
-5.4586 -9.1327 -2.5006 0.9572
-5.1275 -9.3230 -2.5006 0.9572
-4.4461 -9.6673 -2.5008 0.9572
-2.6498 -10.3072 -2.5012 0.9572
-2.2784 -10.3960 -2.5013 0.9572
-9.6506 -0.2630 -2.4997 0.9609
-9.6070 -0.9544 -2.4997 0.9609
-9.5666 -1.2984 -2.4997 0.9609
-9.5138 -1.6408 -2.4997 0.9609
-9.3718 -2.3189 -2.4997 0.9609
-9.1815 -2.9851 -2.4998 0.9609
-8.5019 -4.5761 -2.4999 0.9609
-8.1521 -5.1741 -2.5000 0.9609
-7.5493 -6.0205 -2.5001 0.9609
-6.8592 -6.7972 -2.5003 0.9609
-6.6110 -7.0391 -2.5003 0.9609
-5.8167 -7.7093 -2.5005 0.9609
-5.5366 -7.9132 -2.5006 0.9609
-4.9551 -8.2903 -2.5007 0.9609
-4.3480 -8.6247 -2.5008 0.9609
-3.0699 -9.1590 -2.5011 0.9609
-2.7393 -9.2636 -2.5012 0.9609
-2.0681 -9.4367 -2.5013 0.9609
-8.8271 -0.2405 -2.4998 0.9640
-8.8128 -0.5571 -2.4998 0.9640
-8.7872 -0.8729 -2.4998 0.9640
-8.7503 -1.1877 -2.4999 0.9640
-8.5721 -2.1210 -2.4999 0.9640
-8.4905 -2.4272 -2.4999 0.9640
-8.3981 -2.7303 -2.4999 0.9640
-7.7764 -4.1855 -2.5001 0.9640
-7.6213 -4.4619 -2.5001 0.9640
-7.4564 -4.7326 -2.5001 0.9640
-7.2819 -4.9971 -2.5002 0.9640
-7.0980 -5.2553 -2.5002 0.9640
-6.9050 -5.5066 -2.5003 0.9639
-6.7031 -5.7510 -2.5003 0.9639
-6.2737 -6.2171 -2.5004 0.9639
-6.0467 -6.4383 -2.5004 0.9639
-5.8120 -6.6513 -2.5005 0.9639
-5.5697 -6.8556 -2.5006 0.9639
-5.3203 -7.0512 -2.5006 0.9639
-4.8011 -7.4149 -2.5007 0.9639
-4.2572 -7.7405 -2.5008 0.9639
-3.9769 -7.8885 -2.5009 0.9639
-3.6913 -8.0262 -2.5010 0.9639
-3.4010 -8.1537 -2.5010 0.9639
-3.1064 -8.2707 -2.5011 0.9639
-2.8078 -8.3771 -2.5012 0.9639
-2.5054 -8.4727 -2.5012 0.9639
-1.8915 -8.6310 -2.5014 0.9639
-8.1249 -0.2214 -2.5000 0.9666
-8.0541 -1.0931 -2.5000 0.9666
-8.0098 -1.3814 -2.5000 0.9666
-7.9551 -1.6679 -2.5000 0.9666
-7.8902 -1.9523 -2.5000 0.9666
-7.6349 -2.7889 -2.5001 0.9666
-7.5299 -3.0610 -2.5001 0.9666
-7.4154 -3.3293 -2.5001 0.9666
-7.1577 -3.8526 -2.5002 0.9666
-6.8632 -4.3561 -2.5003 0.9666
-6.7026 -4.5996 -2.5003 0.9666
-6.5333 -4.8371 -2.5003 0.9666
-6.1698 -5.2934 -2.5004 0.9666
-5.9760 -5.5114 -2.5005 0.9666
-5.5656 -5.9260 -2.5006 0.9665
-5.3495 -6.1220 -2.5006 0.9665
-5.1265 -6.3101 -2.5006 0.9665
-4.8969 -6.4901 -2.5007 0.9665
-4.4191 -6.8249 -2.5008 0.9665
-3.9184 -7.1245 -2.5009 0.9665
-2.8592 -7.6125 -2.5011 0.9665
-2.5843 -7.7104 -2.5012 0.9665
-2.0248 -7.8762 -2.5013 0.9665
-1.7410 -7.9440 -2.5014 0.9665
-7.4530 -1.0116 -2.5001 0.9688
-7.4119 -1.2783 -2.5001 0.9688
-7.3613 -1.5434 -2.5002 0.9688
-7.3012 -1.8066 -2.5002 0.9688
-7.2318 -2.0674 -2.5002 0.9688
-6.9679 -2.8325 -2.5002 0.9688
-6.8619 -3.0808 -2.5003 0.9688
-6.7470 -3.3250 -2.5003 0.9688
-6.6234 -3.5650 -2.5003 0.9688
-6.3508 -4.0309 -2.5004 0.9688
-6.2022 -4.2562 -2.5004 0.9688
-6.0456 -4.4761 -2.5004 0.9688
-5.8812 -4.6902 -2.5005 0.9688
-4.5313 -6.0056 -2.5008 0.9688
-4.3130 -6.1644 -2.5008 0.9688
-4.0891 -6.3153 -2.5009 0.9688
-3.3871 -6.7186 -2.5010 0.9688
-3.1439 -6.8359 -2.5011 0.9688
-2.8966 -6.9444 -2.5011 0.9688
-2.3913 -7.1346 -2.5012 0.9688
-2.1338 -7.2160 -2.5013 0.9688
-1.8736 -7.2880 -2.5014 0.9688
-1.6109 -7.3508 -2.5014 0.9688
-6.9889 -0.1904 -2.5002 0.9707
-6.9776 -0.4411 -2.5002 0.9707
-6.9573 -0.6911 -2.5002 0.9707
-6.9281 -0.9403 -2.5003 0.9707
-6.8899 -1.1883 -2.5003 0.9707
-6.8429 -1.4347 -2.5003 0.9707
-6.7224 -1.9218 -2.5003 0.9707
-6.5674 -2.3989 -2.5003 0.9707
-6.4771 -2.6330 -2.5004 0.9707
-6.2717 -3.0908 -2.5004 0.9707
-6.1569 -3.3139 -2.5004 0.9707
-5.7653 -3.9564 -2.5005 0.9707
-5.6198 -4.1608 -2.5005 0.9707
-5.3071 -4.5532 -2.5006 0.9707
-4.9670 -4.9222 -2.5007 0.9707
-4.6014 -5.2659 -2.5008 0.9707
-3.5880 -6.0031 -2.5010 0.9707
-3.3704 -6.1281 -2.5010 0.9707
-3.1485 -6.2452 -2.5011 0.9707
-2.6926 -6.4552 -2.5012 0.9707
-2.4593 -6.5478 -2.5012 0.9707
-1.9835 -6.7075 -2.5013 0.9707
-6.5221 -0.1777 -2.5003 0.9724
-6.4926 -0.6450 -2.5003 0.9724
-6.3337 -1.5672 -2.5004 0.9724
-6.2734 -1.7934 -2.5004 0.9724
-6.0445 -2.4572 -2.5004 0.9724
-5.9525 -2.6725 -2.5005 0.9724
-5.7456 -3.0925 -2.5005 0.9724
-5.6310 -3.2967 -2.5005 0.9724
-5.5092 -3.4967 -2.5006 0.9724
-5.3802 -3.6921 -2.5006 0.9724
-5.2443 -3.8828 -2.5006 0.9724
-4.9525 -4.2490 -2.5007 0.9724
-4.7970 -4.4240 -2.5007 0.9724
-4.6352 -4.5934 -2.5008 0.9724
-4.2940 -4.9141 -2.5008 0.9724
-3.9307 -5.2096 -2.5009 0.9724
-3.7413 -5.3473 -2.5010 0.9724
-3.5471 -5.4782 -2.5010 0.9724
-3.3483 -5.6020 -2.5010 0.9724
-2.9380 -5.8279 -2.5011 0.9724
-2.5127 -6.0239 -2.5012 0.9724
-2.2950 -6.1103 -2.5013 0.9724
-1.8509 -6.2593 -2.5014 0.9724
-1.3974 -6.3762 -2.5015 0.9724
-6.1071 -0.1664 -2.5004 0.9739
-6.0972 -0.3854 -2.5004 0.9739
-6.0795 -0.6039 -2.5004 0.9739
-6.0206 -1.0384 -2.5005 0.9739
-5.9794 -1.2537 -2.5005 0.9739
-5.8102 -1.8890 -2.5005 0.9739
-5.7387 -2.0962 -2.5005 0.9739
-5.6598 -2.3008 -2.5005 0.9739
-5.5737 -2.5024 -2.5005 0.9739
-5.4804 -2.7008 -2.5006 0.9739
-5.1586 -3.2741 -2.5006 0.9739
-5.0378 -3.4572 -2.5007 0.9739
-3.8531 -4.7427 -2.5009 0.9739
-3.1352 -5.2455 -2.5011 0.9739
-2.9450 -5.3547 -2.5011 0.9739
-2.7510 -5.4570 -2.5012 0.9739
-2.5535 -5.5523 -2.5012 0.9739
-1.9423 -5.7948 -2.5013 0.9739
-1.7331 -5.8609 -2.5014 0.9739
-1.5217 -5.9194 -2.5014 0.9739
-1.3084 -5.9703 -2.5015 0.9739
-5.7354 -0.1563 -2.5005 0.9753
-5.7261 -0.3620 -2.5005 0.9753
-5.7094 -0.5672 -2.5005 0.9753
-5.6854 -0.7717 -2.5005 0.9753
-5.5696 -1.3781 -2.5005 0.9753
-5.5166 -1.5771 -2.5006 0.9753
-5.4565 -1.7740 -2.5006 0.9753
-5.3894 -1.9686 -2.5006 0.9753
-5.3153 -2.1608 -2.5006 0.9753
-5.2344 -2.3501 -2.5006 0.9753
-5.0525 -2.7194 -2.5007 0.9753
-4.9517 -2.8990 -2.5007 0.9753
-4.7312 -3.2467 -2.5007 0.9753
-4.4862 -3.5777 -2.5008 0.9753
-4.3550 -3.7364 -2.5008 0.9753
-4.0760 -4.0392 -2.5009 0.9753
-3.9285 -4.1829 -2.5009 0.9753
-3.7759 -4.3212 -2.5009 0.9753
-3.6185 -4.4540 -2.5010 0.9753
-2.7657 -5.0287 -2.5012 0.9753
-2.3980 -5.2142 -2.5012 0.9753
-2.0180 -5.3729 -2.5013 0.9753
-1.8240 -5.4420 -2.5014 0.9753
-1.2287 -5.6067 -2.5015 0.9753
-5.3914 -0.3408 -2.5006 0.9765
-5.3757 -0.5340 -2.5006 0.9765
-5.3236 -0.9182 -2.5006 0.9765
-5.2872 -1.1086 -2.5006 0.9765
-5.1942 -1.4849 -2.5006 0.9765
-4.9284 -2.2127 -2.5007 0.9765
-4.6623 -2.7296 -2.5007 0.9765
-4.4546 -3.0569 -2.5008 0.9765
-4.2240 -3.3686 -2.5008 0.9765
-3.9716 -3.6629 -2.5009 0.9765
-3.6988 -3.9384 -2.5010 0.9765
-3.4070 -4.1936 -2.5010 0.9765
-3.0976 -4.4272 -2.5011 0.9765
-2.2578 -4.9094 -2.5013 0.9765
-2.0803 -4.9873 -2.5013 0.9765
-1.7173 -5.1238 -2.5014 0.9765
-1.5324 -5.1822 -2.5014 0.9765
-1.1569 -5.2789 -2.5015 0.9765
-5.0960 -0.1388 -2.5007 0.9775
-5.0878 -0.3216 -2.5007 0.9775
-5.0516 -0.6856 -2.5007 0.9775
-4.9895 -1.0461 -2.5007 0.9775
-4.9016 -1.4013 -2.5007 0.9775
-4.8482 -1.5762 -2.5007 0.9775
-4.2037 -2.8847 -2.5008 0.9775
-4.0975 -3.0337 -2.5009 0.9775
-3.9861 -3.1788 -2.5009 0.9775
-3.8695 -3.3198 -2.5009 0.9775
-3.6215 -3.5889 -2.5010 0.9775
-3.4905 -3.7165 -2.5010 0.9775
-3.3549 -3.8394 -2.5010 0.9775
-3.0710 -4.0702 -2.5011 0.9775
-2.7713 -4.2801 -2.5012 0.9775
-2.6160 -4.3768 -2.5012 0.9775
-2.2954 -4.5533 -2.5013 0.9775
-2.1306 -4.6328 -2.5013 0.9775
-1.9631 -4.7063 -2.5013 0.9775
-1.7930 -4.7738 -2.5014 0.9775
-1.6206 -4.8351 -2.5014 0.9775
-1.0917 -4.9815 -2.5015 0.9775
-4.8186 -0.1313 -2.5007 0.9785
-4.7968 -0.4765 -2.5007 0.9785
-4.7766 -0.6483 -2.5007 0.9785
-4.7178 -0.9892 -2.5007 0.9785
-4.6793 -1.1578 -2.5007 0.9785
-4.5842 -1.4904 -2.5008 0.9785
-4.5279 -1.6540 -2.5008 0.9785
-4.3976 -1.9744 -2.5008 0.9785
-4.2448 -2.2847 -2.5008 0.9785
-4.1601 -2.4356 -2.5009 0.9785
-4.0701 -2.5833 -2.5009 0.9785
-3.9748 -2.7277 -2.5009 0.9785
-3.8744 -2.8686 -2.5009 0.9785
-3.6588 -3.1391 -2.5010 0.9785
-3.4243 -3.3935 -2.5010 0.9785
-2.9038 -3.8486 -2.5011 0.9785
-2.3235 -4.2246 -2.5013 0.9785
-2.1704 -4.3054 -2.5013 0.9785
-2.0146 -4.3805 -2.5013 0.9785
-1.6954 -4.5138 -2.5014 0.9785
-1.0323 -4.7102 -2.5015 0.9785
-4.5568 -0.2880 -2.5008 0.9794
-4.4995 -0.7760 -2.5008 0.9794
-4.4688 -0.9370 -2.5008 0.9794
-4.4323 -1.0967 -2.5008 0.9794
-4.3422 -1.4117 -2.5008 0.9794
-4.2299 -1.7195 -2.5008 0.9794
-4.1655 -1.8702 -2.5009 0.9794
-4.0958 -2.0184 -2.5009 0.9794
-3.7650 -2.5837 -2.5009 0.9794
-3.6698 -2.7171 -2.5010 0.9794
-3.3567 -3.0958 -2.5010 0.9794
-3.2435 -3.2143 -2.5011 0.9794
-3.1262 -3.3286 -2.5011 0.9794
-3.0048 -3.4387 -2.5011 0.9794
-2.7505 -3.6454 -2.5012 0.9794
-2.4821 -3.8334 -2.5012 0.9794
-2.3430 -3.9200 -2.5013 0.9794
-2.0558 -4.0780 -2.5013 0.9794
-1.9083 -4.1492 -2.5014 0.9794
-1.6058 -4.2755 -2.5014 0.9794
-1.4514 -4.3304 -2.5015 0.9794
-1.2951 -4.3798 -2.5015 0.9794
-0.9777 -4.4615 -2.5016 0.9794
-4.3299 -0.1180 -2.5008 0.9802
-4.3103 -0.4282 -2.5008 0.9802
-4.2048 -1.0404 -2.5008 0.9802
-4.1648 -1.1906 -2.5009 0.9802
-4.1194 -1.3393 -2.5009 0.9802
-4.0687 -1.4862 -2.5009 0.9802
-3.9517 -1.7742 -2.5009 0.9802
-3.8854 -1.9148 -2.5009 0.9802
-3.8143 -2.0530 -2.5009 0.9802
-3.4815 -2.5776 -2.5010 0.9802
-3.2878 -2.8207 -2.5011 0.9802
-3.1844 -2.9369 -2.5011 0.9802
-3.0770 -3.0493 -2.5011 0.9802
-2.7317 -3.3624 -2.5012 0.9802
-2.4836 -3.5497 -2.5012 0.9802
-2.2227 -3.7187 -2.5013 0.9802
-1.8103 -3.9362 -2.5014 0.9802
-1.5234 -4.0560 -2.5014 0.9802
-1.3769 -4.1081 -2.5015 0.9802
-1.0788 -4.1963 -2.5015 0.9802
