ply
format ascii 1.0
element vertex 387
property float32 x
property float32 y
property float32 z
property float32 I
end_header
-40.3795 -16.7343 2.7104 0.8393
-44.4784 -16.5627 -0.2672 0.8271
-40.3074 -16.7044 -0.2457 0.8399
-40.3028 -16.7025 -1.2284 0.8398
-48.0504 -10.2830 -2.4920 0.8213
-47.6458 -12.0258 -2.4921 0.8213
-47.1782 -13.7528 -2.4922 0.8213
-45.8590 -15.2001 -2.4501 0.8241
-40.0916 -16.6150 -2.2009 0.8405
-42.0253 -19.2376 -2.3440 0.8310
-41.3006 -20.7565 -2.3442 0.8310
-37.8622 -26.5387 -2.3449 0.8310
-36.8734 -27.9011 -2.3450 0.8309
-35.8352 -29.2266 -2.3451 0.8309
-34.7494 -30.5133 -2.3453 0.8309
-33.6172 -31.7596 -2.3454 0.8309
-29.9577 -35.2390 -2.3456 0.8309
-28.6558 -36.3072 -2.3457 0.8309
-24.5281 -39.2165 -2.3458 0.8309
-23.0844 -40.0837 -2.3458 0.8309
-18.5766 -42.3606 -2.3458 0.8309
-15.4513 -43.6166 -2.3467 0.8308
-32.9942 -8.3277 -2.4951 0.8724
-32.3026 -10.7068 -2.4952 0.8724
-31.8925 -11.8760 -2.4953 0.8724
-31.4403 -13.0297 -2.4954 0.8724
-30.9464 -14.1661 -2.4955 0.8724
-30.2340 -15.1947 -2.4810 0.8731
-28.0188 -15.3837 -2.3437 0.8797
-26.8280 -17.3834 -2.3439 0.8797
-24.7931 -20.2208 -2.3458 0.8796
-24.0427 -21.1118 -2.3460 0.8796
-21.6044 -23.6142 -2.3467 0.8795
-19.8337 -25.1296 -2.3473 0.8795
-17.9576 -26.5131 -2.3479 0.8795
-16.9830 -27.1531 -2.3483 0.8795
-15.9856 -27.7575 -2.3486 0.8794
-14.9669 -28.3254 -2.3490 0.8794
-13.9281 -28.8562 -2.3494 0.8794
-12.8706 -29.3490 -2.3498 0.8794
-11.7957 -29.8032 -2.3502 0.8794
-10.7049 -30.2182 -2.3506 0.8793
-9.5995 -30.5934 -2.3510 0.8793
-8.4810 -30.9284 -2.3515 0.8793
-25.2147 -6.3642 -2.4967 0.9008
-24.6859 -8.1822 -2.4968 0.9008
-24.3723 -9.0757 -2.4968 0.9008
-23.2398 -11.6797 -2.4971 0.9008
-22.8000 -12.5184 -2.4971 0.9008
-22.3301 -13.3406 -2.4972 0.9008
-21.8305 -14.1452 -2.4973 0.9007
-21.3020 -14.9312 -2.4975 0.9007
-18.9329 -15.4414 -2.3455 0.9065
-18.3592 -16.1212 -2.3456 0.9065
-17.7611 -16.7797 -2.3458 0.9065
-17.1422 -17.4189 -2.3463 0.9065
-15.8537 -18.6486 -2.3499 0.9063
-15.1661 -19.2155 -2.3501 0.9063
-14.4579 -19.7568 -2.3504 0.9063
-12.9849 -20.7609 -2.3509 0.9063
-12.2220 -21.2222 -2.3512 0.9063
-11.4427 -21.6556 -2.3514 0.9063
-20.5605 -4.4000 -2.4976 0.9188
-20.3870 -5.1457 -2.4976 0.9188
-19.9593 -6.6156 -2.4977 0.9188
-19.7056 -7.3379 -2.4978 0.9188
-19.1204 -8.7527 -2.4979 0.9188
-18.7896 -9.4431 -2.4980 0.9188
-18.4339 -10.1212 -2.4980 0.9188
-18.0538 -10.7859 -2.4981 0.9188
-17.2224 -12.0717 -2.4983 0.9188
-16.7722 -12.6911 -2.4984 0.9188
-16.2996 -13.2937 -2.4985 0.9188
-15.8056 -13.8788 -2.4986 0.9188
-15.2905 -14.4456 -2.4987 0.9188
-14.7552 -14.9933 -2.4988 0.9188
-13.9075 -15.2013 -2.4474 0.9204
-12.9349 -15.2153 -2.3722 0.9227
-11.0809 -16.3599 -2.3471 0.9235
-10.4948 -16.7795 -2.3509 0.9234
-9.8799 -17.1555 -2.3516 0.9234
-9.2492 -17.5045 -2.3517 0.9233
-8.6043 -17.8263 -2.3513 0.9234
-7.9471 -18.1218 -2.3505 0.9234
-6.6054 -18.6460 -2.3498 0.9234
-5.5672 -20.3023 -2.5007 0.9187
-17.0961 -4.3151 -2.4983 0.9312
-16.9279 -4.9346 -2.4983 0.9312
-16.5246 -6.1534 -2.4984 0.9312
-16.2900 -6.7510 -2.4985 0.9312
-14.8003 -9.5899 -2.4988 0.9312
-14.4418 -10.1226 -2.4988 0.9312
-13.6678 -11.1473 -2.4990 0.9312
-13.2535 -11.6378 -2.4991 0.9312
-11.9070 -13.0147 -2.4994 0.9312
-9.3559 -14.9586 -2.4999 0.9312
-8.8055 -15.2899 -2.5000 0.9312
-7.6704 -15.8915 -2.5002 0.9312
-6.4945 -16.4090 -2.5005 0.9312
-5.8931 -16.6354 -2.5006 0.9312
-5.2839 -16.8397 -2.5007 0.9312
-14.3983 -4.7724 -2.4989 0.9404
-14.2152 -5.2934 -2.4989 0.9404
-14.0133 -5.8075 -2.4989 0.9404
-13.5542 -6.8119 -2.4990 0.9404
-13.0232 -7.7804 -2.4991 0.9404
-12.7316 -8.2495 -2.4992 0.9404
-11.7573 -9.5890 -2.4994 0.9403
-11.0291 -10.4197 -2.4995 0.9403
-10.6429 -10.8146 -2.4996 0.9403
-9.8284 -11.5611 -2.4998 0.9403
-9.4014 -11.9116 -2.4999 0.9403
-8.5104 -12.5650 -2.5001 0.9403
-8.0477 -12.8670 -2.5001 0.9403
-7.5742 -13.1519 -2.5002 0.9403
-6.0961 -13.9009 -2.5005 0.9403
-5.0689 -14.3088 -2.5008 0.9403
-4.5449 -14.4845 -2.5009 0.9403
-4.0147 -14.6409 -2.5010 0.9403
-12.0905 -5.5346 -2.4993 0.9473
-11.8812 -5.9712 -2.4994 0.9473
-11.6562 -6.3998 -2.4994 0.9473
-11.4157 -6.8200 -2.4995 0.9473
-10.3059 -8.4054 -2.4997 0.9473
-9.9934 -8.7752 -2.4997 0.9473
-9.3290 -9.4796 -2.4999 0.9473
-8.2407 -10.4410 -2.5001 0.9473
-7.8554 -10.7344 -2.5002 0.9473
-7.0540 -11.2782 -2.5003 0.9473
-6.6390 -11.5279 -2.5004 0.9473
-6.2151 -11.7624 -2.5005 0.9473
-5.7830 -11.9812 -2.5006 0.9473
-4.4429 -12.5416 -2.5009 0.9473
-3.5189 -12.8326 -2.5011 0.9473
-11.5625 -2.4745 -2.4994 0.9528
-11.4649 -2.8937 -2.4994 0.9528
-11.3521 -3.3092 -2.4995 0.9528
-11.2242 -3.7203 -2.4995 0.9528
-10.7521 -4.9219 -2.4996 0.9528
-10.5660 -5.3102 -2.4996 0.9528
-10.3659 -5.6914 -2.4997 0.9528
-9.9246 -6.4307 -2.4998 0.9528
-9.6841 -6.7879 -2.4998 0.9528
-9.1650 -7.4748 -2.4999 0.9528
-8.5972 -8.1222 -2.5000 0.9528
-8.2961 -8.4300 -2.5001 0.9528
-7.9839 -8.7266 -2.5002 0.9528
-7.6612 -9.0117 -2.5002 0.9528
-6.9855 -9.5458 -2.5004 0.9528
-5.1426 -10.6544 -2.5007 0.9528
-4.7515 -10.8349 -2.5008 0.9528
-4.3540 -11.0010 -2.5009 0.9528
-3.1291 -11.4112 -2.5011 0.9528
-10.3125 -2.6029 -2.4997 0.9572
-9.8260 -4.0721 -2.4998 0.9572
-9.6713 -4.4272 -2.4998 0.9572
-9.5038 -4.7764 -2.4998 0.9572
-9.1314 -5.4554 -2.4999 0.9572
-8.4827 -6.4187 -2.5001 0.9572
-8.2436 -6.7234 -2.5001 0.9572
-7.9936 -7.0191 -2.5002 0.9572
-7.7329 -7.3056 -2.5002 0.9572
-7.4620 -7.5825 -2.5003 0.9572
-5.9666 -8.8092 -2.5006 0.9572
-5.3101 -9.2205 -2.5007 0.9572
-4.6255 -9.5829 -2.5008 0.9572
-3.9162 -9.8947 -2.5010 0.9572
-3.5535 -10.0310 -2.5011 0.9572
-9.4413 -2.0205 -2.4999 0.9609
-9.2694 -2.7021 -2.4999 0.9609
-8.7794 -4.0189 -2.5000 0.9609
-8.4640 -4.6471 -2.5001 0.9609
-7.9073 -5.5424 -2.5002 0.9609
-7.7004 -5.8267 -2.5002 0.9609
-7.2563 -6.3718 -2.5003 0.9609
-7.0197 -6.6318 -2.5004 0.9609
-5.7036 -7.7940 -2.5006 0.9609
-5.4162 -7.9966 -2.5007 0.9609
-4.5125 -8.5400 -2.5009 0.9609
-3.8794 -8.8462 -2.5010 0.9609
-3.5549 -8.9818 -2.5011 0.9609
-3.2257 -9.1055 -2.5011 0.9609
-8.3828 -2.7785 -2.5001 0.9640
-8.1586 -3.3811 -2.5001 0.9640
-8.0302 -3.6759 -2.5001 0.9640
-7.8911 -3.9659 -2.5002 0.9640
-7.7416 -4.2506 -2.5002 0.9640
-7.5819 -4.5296 -2.5002 0.9640
-7.0431 -5.3294 -2.5003 0.9639
-6.8446 -5.5824 -2.5004 0.9639
-6.6370 -5.8279 -2.5004 0.9639
-6.4205 -6.0658 -2.5005 0.9639
-6.1956 -6.2956 -2.5005 0.9639
-5.9624 -6.5171 -2.5006 0.9639
-5.7213 -6.7300 -2.5006 0.9639
-5.4727 -6.9339 -2.5007 0.9639
-5.2167 -7.1287 -2.5007 0.9639
-4.9538 -7.3140 -2.5008 0.9639
-4.1273 -7.8110 -2.5009 0.9639
-3.8403 -7.9562 -2.5010 0.9639
-3.5482 -8.0910 -2.5011 0.9639
-7.9486 -1.7011 -2.5002 0.9666
-7.7159 -2.5575 -2.5002 0.9666
-7.5095 -3.1121 -2.5003 0.9666
-7.3913 -3.3835 -2.5003 0.9666
-7.1257 -3.9124 -2.5003 0.9666
-6.3000 -5.1382 -2.5005 0.9666
-6.1089 -5.3642 -2.5005 0.9665
-5.7026 -5.7946 -2.5006 0.9665
-5.4880 -5.9985 -2.5007 0.9665
-5.2661 -6.1944 -2.5007 0.9665
-5.0372 -6.3821 -2.5008 0.9665
-4.8016 -6.5614 -2.5008 0.9665
-4.0579 -7.0462 -2.5010 0.9665
-3.7988 -7.1894 -2.5010 0.9665
-3.2658 -7.4470 -2.5011 0.9665
-2.9926 -7.5612 -2.5012 0.9665
-2.1506 -7.8429 -2.5013 0.9665
-7.3552 -1.5741 -2.5003 0.9688
-7.2931 -1.8408 -2.5003 0.9688
-7.2213 -2.1051 -2.5003 0.9688
-7.1399 -2.3666 -2.5003 0.9688
-6.7211 -3.3779 -2.5004 0.9688
-6.5938 -3.6203 -2.5004 0.9688
-5.6528 -4.9637 -2.5006 0.9688
-5.4684 -5.1663 -2.5007 0.9688
-5.2769 -5.3621 -2.5007 0.9688
-5.0782 -5.5507 -2.5007 0.9688
-4.8729 -5.7320 -2.5008 0.9688
-4.6611 -5.9056 -2.5008 0.9688
-4.4431 -6.0715 -2.5009 0.9688
-4.2192 -6.2293 -2.5009 0.9688
-3.9897 -6.3789 -2.5010 0.9688
-3.0220 -6.8910 -2.5012 0.9688
-2.5127 -7.0929 -2.5013 0.9688
-1.9900 -7.2572 -2.5014 0.9688
-6.8372 -1.4632 -2.5004 0.9707
-6.7127 -1.9568 -2.5004 0.9707
-6.6370 -2.1999 -2.5004 0.9707
-6.5526 -2.4401 -2.5004 0.9707
-6.3578 -2.9104 -2.5005 0.9707
-6.1293 -3.3653 -2.5005 0.9707
-5.8683 -3.8024 -2.5006 0.9707
-5.7261 -4.0136 -2.5006 0.9707
-5.5763 -4.2194 -2.5006 0.9707
-5.0833 -4.8024 -2.5007 0.9707
-4.3327 -5.4896 -2.5009 0.9707
-3.9219 -5.7905 -2.5010 0.9707
-3.7086 -5.9295 -2.5010 0.9707
-3.2675 -6.1839 -2.5011 0.9707
-3.0403 -6.2988 -2.5012 0.9707
-2.8090 -6.4054 -2.5012 0.9707
-2.5740 -6.5036 -2.5013 0.9707
-2.3356 -6.5931 -2.5013 0.9707
-2.0941 -6.6739 -2.5014 0.9707
-1.8498 -6.7458 -2.5014 0.9707
-6.3266 -1.5968 -2.5005 0.9724
-6.1937 -2.0529 -2.5005 0.9724
-6.1149 -2.2771 -2.5005 0.9724
-5.9331 -2.7160 -2.5006 0.9724
-5.7199 -3.1405 -2.5006 0.9724
-5.2038 -3.9376 -2.5007 0.9724
-4.7436 -4.4815 -2.5008 0.9724
-4.5774 -4.6513 -2.5008 0.9724
-4.4051 -4.8150 -2.5009 0.9724
-3.8541 -5.2667 -2.5010 0.9724
-3.0492 -5.7707 -2.5012 0.9724
-2.8371 -5.8780 -2.5012 0.9724
-2.1796 -6.1526 -2.5013 0.9724
-1.9542 -6.2279 -2.5014 0.9724
-1.7262 -6.2951 -2.5014 0.9724
-5.9745 -1.2786 -2.5006 0.9739
-5.7996 -1.9223 -2.5006 0.9739
-5.7258 -2.1322 -2.5006 0.9739
-5.6444 -2.3392 -2.5006 0.9739
-5.5555 -2.5431 -2.5006 0.9739
-5.4593 -2.7437 -2.5007 0.9739
-5.3559 -2.9407 -2.5007 0.9739
-5.2453 -3.1337 -2.5007 0.9739
-5.1278 -3.3226 -2.5007 0.9739
-5.0035 -3.5071 -2.5008 0.9739
-4.4417 -4.1963 -2.5009 0.9739
-4.1248 -4.5085 -2.5009 0.9739
-3.7859 -4.7968 -2.5010 0.9739
-3.6088 -4.9315 -2.5010 0.9739
-3.4270 -5.0597 -2.5011 0.9739
-3.2406 -5.1812 -2.5011 0.9739
-3.0499 -5.2958 -2.5012 0.9739
-2.8551 -5.4034 -2.5012 0.9739
-2.6565 -5.5038 -2.5012 0.9739
-2.2491 -5.6827 -2.5013 0.9739
-1.8298 -5.8315 -2.5014 0.9739
-5.6108 -1.2007 -2.5006 0.9753
-5.5086 -1.6058 -2.5007 0.9753
-5.3772 -2.0024 -2.5007 0.9753
-5.1270 -2.5767 -2.5007 0.9753
-5.0298 -2.7616 -2.5008 0.9753
-4.6989 -3.2936 -2.5008 0.9753
-4.4469 -3.6268 -2.5009 0.9753
-4.1713 -3.9409 -2.5009 0.9753
-3.3891 -4.6312 -2.5011 0.9753
-3.2183 -4.7516 -2.5011 0.9753
-3.0432 -4.8657 -2.5012 0.9753
-2.4948 -5.1687 -2.5013 0.9753
-1.9165 -5.4101 -2.5014 0.9753
-1.7183 -5.4764 -2.5014 0.9753
-1.5179 -5.5354 -2.5015 0.9753
-5.2382 -1.3221 -2.5007 0.9765
-5.1866 -1.5120 -2.5007 0.9765
-5.0629 -1.8853 -2.5007 0.9765
-4.9909 -2.0684 -2.5008 0.9765
-4.9124 -2.2487 -2.5008 0.9765
-4.8273 -2.4261 -2.5008 0.9765
-4.6380 -2.7709 -2.5008 0.9765
-4.4242 -3.1011 -2.5009 0.9765
-4.1870 -3.4148 -2.5009 0.9765
-3.7899 -3.8510 -2.5010 0.9765
-3.4997 -4.1167 -2.5011 0.9765
-3.3476 -4.2414 -2.5011 0.9765
-3.1910 -4.3605 -2.5011 0.9765
-2.3489 -4.8665 -2.5013 0.9765
-2.1702 -4.9489 -2.5013 0.9765
-4.9853 -1.0669 -2.5008 0.9775
-4.9431 -1.2477 -2.5008 0.9775
-4.8945 -1.4268 -2.5008 0.9775
-4.7098 -1.9519 -2.5008 0.9775
-4.6357 -2.1221 -2.5008 0.9775
-4.3768 -2.6148 -2.5009 0.9775
-3.9511 -3.2225 -2.5010 0.9775
-3.7063 -3.5015 -2.5010 0.9775
-3.5764 -3.6341 -2.5011 0.9775
-2.7039 -4.3232 -2.5012 0.9775
-1.3486 -4.9181 -2.5015 0.9775
-4.5758 -1.5167 -2.5008 0.9785
-4.3074 -2.1648 -2.5009 0.9785
-4.1385 -2.4725 -2.5009 0.9785
-3.8444 -2.9090 -2.5010 0.9785
-3.7360 -3.0470 -2.5010 0.9785
-3.5044 -3.3108 -2.5011 0.9785
-3.3816 -3.4362 -2.5011 0.9785
-3.2543 -3.5571 -2.5011 0.9785
-3.1228 -3.6732 -2.5011 0.9785
-2.8473 -3.8908 -2.5012 0.9785
-2.7038 -3.9919 -2.5012 0.9785
-2.5567 -4.0878 -2.5013 0.9785
-2.2525 -4.2630 -2.5013 0.9785
-2.0959 -4.3423 -2.5014 0.9785
-1.9365 -4.4158 -2.5014 0.9785
-1.6101 -4.5451 -2.5015 0.9785
-1.4436 -4.6007 -2.5015 0.9785
-1.2752 -4.6503 -2.5015 0.9785
-4.4273 -1.1175 -2.5009 0.9794
-4.3343 -1.4366 -2.5009 0.9794
-4.2791 -1.5935 -2.5009 0.9794
-4.2183 -1.7482 -2.5009 0.9794
-4.0026 -2.1977 -2.5010 0.9794
-3.9200 -2.3420 -2.5010 0.9794
-3.4313 -3.0131 -2.5011 0.9794
-3.3194 -3.1360 -2.5011 0.9794
-3.2031 -3.2548 -2.5011 0.9794
-2.8293 -3.5847 -2.5012 0.9794
-2.5610 -3.7812 -2.5013 0.9794
-2.4217 -3.8719 -2.5013 0.9794
-2.2791 -3.9576 -2.5013 0.9794
-2.1336 -4.0380 -2.5013 0.9794
-1.8342 -4.1826 -2.5014 0.9794
-1.6808 -4.2467 -2.5014 0.9794
-1.5250 -4.3051 -2.5015 0.9794
-1.3673 -4.3578 -2.5015 0.9794
-1.2078 -4.4047 -2.5015 0.9794
-4.1587 -1.2123 -2.5009 0.9802
-4.1118 -1.3629 -2.5009 0.9802
-4.0018 -1.6584 -2.5010 0.9802
-3.8705 -1.9452 -2.5010 0.9802
-3.7972 -2.0849 -2.5010 0.9802
-3.7188 -2.2217 -2.5010 0.9802
-3.6355 -2.3556 -2.5010 0.9802
-3.5473 -2.4864 -2.5011 0.9802
-3.0387 -3.0877 -2.5012 0.9802
-2.8060 -3.3007 -2.5012 0.9802
-2.2974 -3.6731 -2.5013 0.9802
-2.1621 -3.7544 -2.5013 0.9802
-1.7400 -3.9679 -2.5014 0.9802
-1.5945 -4.0286 -2.5015 0.9802
-1.4468 -4.0840 -2.5015 0.9802
-1.2971 -4.1340 -2.5015 0.9802
-1.1458 -4.1786 -2.5015 0.9802
