ply
format ascii 1.0
element vertex 227
property float32 x
property float32 y
property float32 z
property float32 I
end_header
-6.1649 -48.9195 -2.5005 0.8208
-4.4358 -49.1134 -2.5009 0.8208
-0.9618 -49.3180 -2.5016 0.8207
2.5191 -49.2770 -2.5023 0.8207
4.2566 -49.1645 -2.5027 0.8207
7.7151 -48.7554 -2.5034 0.8206
9.4317 -48.4596 -2.5037 0.8206
12.8289 -47.6870 -2.5044 0.8205
-7.3384 -31.1694 -2.3479 0.8795
-5.4554 -33.6662 -2.5007 0.8722
-1.8681 -34.0641 -2.5014 0.8721
-0.6652 -34.1121 -2.5017 0.8721
0.5387 -34.1178 -2.5019 0.8721
2.9438 -34.0014 -2.5024 0.8721
4.1420 -33.8797 -2.5026 0.8721
5.3352 -33.7158 -2.5029 0.8721
7.7010 -33.2620 -2.5034 0.8720
8.8705 -32.9728 -2.5036 0.8720
-5.9690 -25.3531 -2.5006 0.9006
-5.0712 -25.5498 -2.5008 0.9006
-2.3436 -25.9483 -2.5013 0.9006
-1.4268 -26.0168 -2.5015 0.9006
-0.5080 -26.0529 -2.5017 0.9006
0.4114 -26.0565 -2.5019 0.9006
1.3306 -26.0278 -2.5021 0.9006
3.1631 -25.8730 -2.5024 0.9006
4.9804 -25.5893 -2.5028 0.9005
5.8806 -25.3995 -2.5030 0.9005
8.5333 -24.6413 -2.5035 0.9005
-4.8247 -20.4927 -2.5008 0.9187
-4.0989 -20.6514 -2.5009 0.9187
-3.3680 -20.7844 -2.5011 0.9187
-2.6328 -20.8915 -2.5012 0.9187
-1.8942 -20.9727 -2.5014 0.9187
-1.1532 -21.0277 -2.5015 0.9187
-0.4106 -21.0566 -2.5017 0.9187
1.8170 -20.9859 -2.5022 0.9187
4.0250 -20.6801 -2.5026 0.9186
4.7524 -20.5265 -2.5027 0.9186
6.1887 -20.1426 -2.5030 0.9186
-4.0451 -17.1813 -2.5010 0.9312
-1.5881 -17.5830 -2.5015 0.9312
-0.9668 -17.6290 -2.5016 0.9312
-0.3442 -17.6530 -2.5017 0.9312
0.2788 -17.6550 -2.5018 0.9312
0.9015 -17.6351 -2.5020 0.9311
1.5232 -17.5932 -2.5021 0.9311
2.1431 -17.5294 -2.5022 0.9311
2.7603 -17.4438 -2.5023 0.9311
3.3742 -17.3364 -2.5025 0.9311
4.5887 -17.0570 -2.5027 0.9311
5.1879 -16.8853 -2.5028 0.9311
5.7807 -16.6925 -2.5030 0.9311
-3.4792 -14.7780 -2.5011 0.9403
-2.9558 -14.8922 -2.5012 0.9403
-2.4287 -14.9878 -2.5013 0.9403
-1.8985 -15.0648 -2.5014 0.9403
0.2398 -15.1847 -2.5018 0.9403
0.7754 -15.1675 -2.5019 0.9403
1.8432 -15.0764 -2.5022 0.9403
2.3740 -15.0026 -2.5023 0.9403
3.4264 -14.7991 -2.5025 0.9403
3.9465 -14.6696 -2.5026 0.9403
4.4617 -14.5218 -2.5027 0.9403
4.9715 -14.3560 -2.5028 0.9403
-3.0495 -12.9527 -2.5012 0.9473
-2.5907 -13.0527 -2.5013 0.9473
-2.1287 -13.1365 -2.5013 0.9473
-0.7288 -13.2894 -2.5016 0.9473
-0.2595 -13.3073 -2.5017 0.9473
0.6796 -13.2935 -2.5019 0.9473
1.6154 -13.2135 -2.5021 0.9473
2.0807 -13.1488 -2.5022 0.9473
2.5434 -13.0677 -2.5023 0.9473
3.0029 -12.9703 -2.5024 0.9473
3.4588 -12.8568 -2.5025 0.9473
3.9103 -12.7272 -2.5026 0.9473
4.3571 -12.5818 -2.5027 0.9473
-2.7117 -11.5180 -2.5012 0.9528
-1.8929 -11.6813 -2.5014 0.9528
-1.4796 -11.7412 -2.5015 0.9528
-1.0645 -11.7865 -2.5016 0.9528
-0.6480 -11.8171 -2.5016 0.9528
-0.2307 -11.8330 -2.5017 0.9528
0.1869 -11.8342 -2.5018 0.9528
0.6043 -11.8206 -2.5019 0.9528
1.0210 -11.7923 -2.5020 0.9528
1.8501 -11.6918 -2.5022 0.9528
2.2615 -11.6196 -2.5022 0.9528
3.0755 -11.4320 -2.5024 0.9528
3.4770 -11.3167 -2.5025 0.9528
-2.0720 -10.4394 -2.5014 0.9572
-1.7025 -10.5063 -2.5014 0.9572
-0.5829 -10.6284 -2.5017 0.9572
-0.2075 -10.6426 -2.5017 0.9572
2.7660 -10.2817 -2.5023 0.9572
3.1271 -10.1780 -2.5024 0.9572
-1.5454 -9.5368 -2.5015 0.9609
-1.2080 -9.5857 -2.5015 0.9609
0.1526 -9.6614 -2.5018 0.9609
1.5104 -9.5449 -2.5021 0.9609
1.8463 -9.4859 -2.5022 0.9609
2.1798 -9.4151 -2.5022 0.9609
2.5107 -9.3326 -2.5023 0.9609
3.1627 -9.1328 -2.5024 0.9609
-1.4134 -8.7225 -2.5015 0.9639
-1.1048 -8.7672 -2.5016 0.9639
-0.1723 -8.8355 -2.5017 0.9639
0.1395 -8.8363 -2.5018 0.9639
0.4512 -8.8261 -2.5019 0.9639
0.7623 -8.8049 -2.5019 0.9639
1.3814 -8.7297 -2.5021 0.9639
1.6886 -8.6757 -2.5021 0.9639
1.9936 -8.6110 -2.5022 0.9639
2.2963 -8.5355 -2.5022 0.9639
2.5960 -8.4494 -2.5023 0.9639
-1.8637 -7.9161 -2.5014 0.9665
-1.5833 -7.9771 -2.5015 0.9665
-0.7315 -8.1003 -2.5016 0.9665
-0.4454 -8.1213 -2.5017 0.9665
0.1284 -8.1329 -2.5018 0.9665
0.4153 -8.1235 -2.5019 0.9665
0.9871 -8.0743 -2.5020 0.9665
2.1135 -7.8559 -2.5022 0.9665
-1.7246 -7.3250 -2.5014 0.9688
-1.4651 -7.3814 -2.5015 0.9688
-1.2038 -7.4287 -2.5015 0.9688
-0.6770 -7.4954 -2.5016 0.9688
-0.4121 -7.5147 -2.5017 0.9688
-0.1468 -7.5248 -2.5017 0.9688
0.1188 -7.5254 -2.5018 0.9688
0.6493 -7.4986 -2.5019 0.9688
0.9134 -7.4712 -2.5020 0.9688
1.6979 -7.3333 -2.5021 0.9688
1.9555 -7.2690 -2.5022 0.9688
-1.6030 -6.8088 -2.5015 0.9707
-1.3618 -6.8613 -2.5015 0.9707
-0.8746 -6.9405 -2.5016 0.9707
-0.3831 -6.9852 -2.5017 0.9707
0.8491 -6.9447 -2.5020 0.9707
1.0936 -6.9105 -2.5020 0.9707
1.3367 -6.8678 -2.5021 0.9707
1.5782 -6.8165 -2.5021 0.9707
1.8177 -6.7567 -2.5021 0.9707
2.0550 -6.6885 -2.5022 0.9707
2.2897 -6.6120 -2.5022 0.9707
-1.0441 -6.4437 -2.5016 0.9724
0.5632 -6.5043 -2.5019 0.9724
1.2473 -6.4088 -2.5020 0.9724
1.4727 -6.3609 -2.5021 0.9724
2.1367 -6.1700 -2.5022 0.9724
-0.9777 -6.0335 -2.5016 0.9739
-0.7642 -6.0644 -2.5016 0.9739
-0.5498 -6.0877 -2.5017 0.9739
-0.1192 -6.1115 -2.5018 0.9739
0.3121 -6.1049 -2.5018 0.9739
0.7419 -6.0679 -2.5019 0.9739
0.9555 -6.0380 -2.5020 0.9739
1.1679 -6.0007 -2.5020 0.9739
1.5882 -5.9036 -2.5021 0.9739
1.7955 -5.8440 -2.5021 0.9739
2.0006 -5.7771 -2.5022 0.9739
-1.3154 -5.5871 -2.5015 0.9753
-1.1175 -5.6301 -2.5016 0.9753
-0.5163 -5.7169 -2.5017 0.9753
-0.1119 -5.7393 -2.5018 0.9753
0.2931 -5.7331 -2.5018 0.9753
0.6967 -5.6983 -2.5019 0.9753
1.0968 -5.6352 -2.5020 0.9753
1.2949 -5.5931 -2.5020 0.9753
1.4915 -5.5440 -2.5021 0.9753
1.8788 -5.4252 -2.5022 0.9753
-1.2385 -5.2604 -2.5015 0.9765
-0.6757 -5.3621 -2.5016 0.9765
-0.4861 -5.3826 -2.5017 0.9765
-0.1054 -5.4037 -2.5018 0.9765
0.0853 -5.4041 -2.5018 0.9765
0.4663 -5.3848 -2.5019 0.9765
0.6559 -5.3651 -2.5019 0.9765
0.8448 -5.3387 -2.5020 0.9765
1.2192 -5.2660 -2.5020 0.9765
1.4043 -5.2198 -2.5021 0.9765
-1.1687 -4.9640 -2.5015 0.9775
-0.9929 -5.0022 -2.5016 0.9775
-0.8158 -5.0342 -2.5016 0.9775
-0.4587 -5.0794 -2.5017 0.9775
0.0805 -5.0996 -2.5018 0.9775
0.2604 -5.0937 -2.5018 0.9775
0.4400 -5.0814 -2.5019 0.9775
0.6190 -5.0628 -2.5019 0.9775
0.7972 -5.0379 -2.5019 0.9775
1.3251 -4.9256 -2.5020 0.9775
1.4981 -4.8759 -2.5021 0.9775
1.6692 -4.8201 -2.5021 0.9775
-1.1050 -4.6937 -2.5016 0.9785
-0.7713 -4.7601 -2.5016 0.9785
-0.2640 -4.8151 -2.5017 0.9785
0.0762 -4.8219 -2.5018 0.9785
0.2462 -4.8162 -2.5018 0.9785
0.5852 -4.7870 -2.5019 0.9785
0.7538 -4.7635 -2.5019 0.9785
0.9214 -4.7340 -2.5020 0.9785
1.0879 -4.6986 -2.5020 0.9785
1.5783 -4.5575 -2.5021 0.9785
-1.0467 -4.4458 -2.5016 0.9794
-0.8892 -4.4800 -2.5016 0.9794
-0.7306 -4.5087 -2.5016 0.9794
-0.5711 -4.5317 -2.5017 0.9794
-0.4109 -4.5491 -2.5017 0.9794
0.0721 -4.5672 -2.5018 0.9794
0.5544 -4.5342 -2.5019 0.9794
0.7139 -4.5119 -2.5019 0.9794
0.8728 -4.4840 -2.5020 0.9794
1.0304 -4.4504 -2.5020 0.9794
1.1868 -4.4113 -2.5020 0.9794
1.4949 -4.3168 -2.5021 0.9794
-0.9929 -4.2175 -2.5016 0.9802
-0.8435 -4.2500 -2.5016 0.9802
-0.6931 -4.2772 -2.5016 0.9802
-0.5418 -4.2990 -2.5017 0.9802
0.0684 -4.3327 -2.5018 0.9802
0.2212 -4.3277 -2.5018 0.9802
0.3738 -4.3172 -2.5019 0.9802
0.5259 -4.3014 -2.5019 0.9802
0.6773 -4.2802 -2.5019 0.9802
0.8279 -4.2537 -2.5019 0.9802
0.9775 -4.2219 -2.5020 0.9802
