ply
format ascii 1.0
element vertex 518
property float32 x
property float32 y
property float32 z
property float32 I
end_header
39.6796 15.4371 7.5074 0.8412
18.0549 10.2434 3.6602 0.9191
28.2870 18.8816 5.9968 0.8710
35.2677 25.4363 7.6673 0.8381
28.3536 31.7845 7.5103 0.8411
28.5472 34.4373 7.8873 0.8339
26.4972 40.1467 8.4818 0.8225
39.3042 18.6743 6.6662 0.8385
17.9404 9.3355 3.0982 0.9214
18.0548 10.2434 3.1800 0.9194
30.5599 18.8342 5.4993 0.8648
24.6162 19.1480 4.7776 0.8814
28.5570 40.0317 7.5331 0.8196
25.3642 41.6388 7.4691 0.8209
36.1011 18.7857 5.2995 0.8486
18.0548 10.2433 2.7032 0.9197
25.3235 41.5719 6.3388 0.8217
43.0179 18.5585 5.0309 0.8282
36.0379 18.7528 4.3624 0.8492
18.0548 10.2433 2.2290 0.9199
25.3563 41.6258 5.2339 0.8219
25.3485 41.6129 3.0215 0.8226
18.0546 10.2433 0.8185 0.9203
24.2164 18.8370 1.2097 0.8844
25.0622 41.1431 1.8996 0.8246
18.0546 10.2433 0.3506 0.9203
24.9977 41.0371 0.8117 0.8251
18.8099 8.1148 -0.1153 0.9213
18.8074 8.9358 -0.1172 0.9201
18.8047 9.7853 -0.1194 0.9187
18.0546 10.2432 -0.1169 0.9203
18.8261 13.5781 -0.1307 0.9113
18.7937 14.6189 -0.1341 0.9092
18.7905 15.7422 -0.1380 0.9066
18.7668 22.6391 -0.1656 0.8890
18.7628 24.3818 -0.1732 0.8842
18.7604 26.2988 -0.1819 0.8788
18.7335 36.4629 -0.2308 0.8488
18.7054 43.9864 -0.2691 0.8260
18.8188 5.0517 -0.5487 0.9250
18.8078 8.9360 -0.5863 0.9201
18.8052 9.7856 -0.5969 0.9187
18.7997 11.5863 -0.6218 0.9154
18.7900 15.7419 -0.6902 0.9066
18.7866 16.9351 -0.7122 0.9037
18.7740 19.5691 -0.7636 0.8972
18.7706 21.0420 -0.7940 0.8933
18.7669 22.6393 -0.8280 0.8890
18.7612 26.2998 -0.9097 0.8787
18.7318 36.4596 -1.1542 0.8487
18.8186 5.0517 -0.9882 0.9249
18.8171 5.7902 -0.9985 0.9242
18.8156 6.5453 -1.0103 0.9233
18.8108 8.1153 -1.0390 0.9212
18.8083 8.9363 -1.0560 0.9200
18.8057 9.7859 -1.0751 0.9186
18.8002 11.5867 -1.1200 0.9153
18.7972 12.5472 -1.1462 0.9135
18.8277 13.5792 -1.1773 0.9112
18.7928 14.6183 -1.2074 0.9090
18.7895 15.7414 -1.2431 0.9065
18.7861 16.9346 -1.2827 0.9037
18.7824 18.2080 -1.3266 0.9005
18.7741 19.5692 -1.3753 0.8971
18.7707 21.0421 -1.4300 0.8932
18.7630 24.3820 -1.5603 0.8841
18.7619 26.3008 -1.6384 0.8786
18.7398 33.4348 -1.9438 0.8577
18.7301 36.4563 -2.0786 0.8486
18.7177 39.9304 -2.2365 0.8381
16.5953 43.3215 -2.3527 0.8304
15.9857 46.7356 -2.5050 0.8205
14.2790 47.2779 -2.5046 0.8205
12.5541 47.7579 -2.5043 0.8206
10.8131 48.1748 -2.5039 0.8206
9.0584 48.5283 -2.5036 0.8206
7.2922 48.8179 -2.5032 0.8206
5.5169 49.0431 -2.5029 0.8206
3.7350 49.2039 -2.5025 0.8207
-1.6279 49.2974 -2.5014 0.8207
18.8183 5.0516 -1.4287 0.9248
18.8168 5.7902 -1.4435 0.9241
18.8113 8.1155 -1.5022 0.9211
18.8088 8.9365 -1.5269 0.9199
18.0545 10.2432 -1.5220 0.9201
18.7978 12.5476 -1.6571 0.9133
18.8284 13.5798 -1.7021 0.9111
18.7924 14.6179 -1.7457 0.9089
18.7891 15.7411 -1.7972 0.9064
18.7819 18.2075 -1.9180 0.9004
18.7708 21.0423 -2.0675 0.8931
18.7671 22.6395 -2.1562 0.8887
18.7631 24.3822 -2.2558 0.8839
18.6375 26.1264 -2.3531 0.8792
17.6767 26.7827 -2.3529 0.8792
16.6928 27.4036 -2.3527 0.8792
16.4514 29.3518 -2.4671 0.8738
13.3669 31.4327 -2.5045 0.8720
12.2175 31.8937 -2.5042 0.8720
11.0523 32.3125 -2.5040 0.8720
8.6805 33.0221 -2.5035 0.8720
7.4771 33.3119 -2.5033 0.8720
5.0428 33.7595 -2.5028 0.8721
2.5831 34.0294 -2.5023 0.8721
0.1108 34.1203 -2.5018 0.8721
18.8150 6.5451 -1.9125 0.9231
18.8067 9.7863 -2.0354 0.9183
18.0545 10.2432 -1.9929 0.9200
18.8012 11.5873 -2.1203 0.9151
18.8292 13.5804 -2.2288 0.9109
17.5969 17.0587 -2.3529 0.9062
16.9660 17.6845 -2.3528 0.9062
16.4734 18.4667 -2.3758 0.9053
16.4543 19.8493 -2.4753 0.9016
11.9199 23.2008 -2.5042 0.9005
9.3288 24.3526 -2.5036 0.9005
6.6285 25.2160 -2.5031 0.9005
2.9137 25.9016 -2.5024 0.9006
1.0293 26.0406 -2.5020 0.9006
0.0846 26.0588 -2.5018 0.9006
-0.8600 26.0428 -2.5016 0.9006
18.8178 5.0514 -2.3144 0.9245
18.8163 5.7900 -2.3385 0.9238
18.1886 7.8468 -2.3530 0.9233
17.8917 8.5007 -2.3530 0.9233
16.8616 10.3919 -2.3528 0.9233
16.4698 11.8787 -2.4121 0.9215
15.6631 14.1194 -2.5049 0.9186
15.1403 14.6773 -2.5048 0.9186
14.0358 15.7343 -2.5046 0.9186
13.4556 16.2320 -2.5045 0.9186
12.8578 16.7083 -2.5044 0.9186
11.6123 17.5942 -2.5041 0.9186
10.3059 18.3873 -2.5038 0.9186
9.6321 18.7478 -2.5037 0.9186
8.2475 19.3943 -2.5034 0.9186
7.5386 19.6794 -2.5033 0.9186
4.6142 20.5575 -2.5027 0.9186
3.8658 20.7100 -2.5025 0.9186
3.1122 20.8353 -2.5024 0.9186
1.5943 21.0034 -2.5021 0.9187
16.4725 4.4219 -2.4166 0.9334
16.4676 5.0672 -2.4412 0.9328
16.4557 6.4021 -2.5018 0.9312
16.2336 7.0033 -2.5050 0.9311
15.0495 9.2751 -2.5048 0.9311
14.7030 9.8143 -2.5047 0.9311
14.3371 10.3405 -2.5047 0.9311
12.2357 12.7538 -2.5042 0.9311
11.7649 13.1885 -2.5041 0.9311
10.2624 14.3860 -2.5038 0.9311
6.9136 16.2576 -2.5032 0.9311
6.3194 16.4967 -2.5030 0.9311
4.4905 17.0828 -2.5027 0.9311
3.8681 17.2335 -2.5025 0.9311
2.6091 17.4667 -2.5023 0.9311
1.9741 17.5489 -2.5022 0.9311
1.3366 17.6080 -2.5020 0.9311
0.0573 17.6568 -2.5018 0.9312
-0.5827 17.6463 -2.5017 0.9312
14.6843 3.9419 -2.5047 0.9402
14.3597 4.9953 -2.5047 0.9402
13.9596 6.0224 -2.5046 0.9402
13.7319 6.5243 -2.5045 0.9402
12.9416 7.9760 -2.5044 0.9402
11.9984 9.3331 -2.5042 0.9402
10.9133 10.5796 -2.5040 0.9402
10.1175 11.3417 -2.5038 0.9402
9.6993 11.7006 -2.5037 0.9402
9.2685 12.0441 -2.5036 0.9402
8.8255 12.3717 -2.5035 0.9403
7.9054 12.9777 -2.5034 0.9403
7.4294 13.2553 -2.5033 0.9403
6.9438 13.5153 -2.5032 0.9403
4.3923 14.5428 -2.5027 0.9403
3.8620 14.6919 -2.5025 0.9403
3.3268 14.8215 -2.5024 0.9403
2.7872 14.9318 -2.5023 0.9403
1.1496 15.1441 -2.5020 0.9403
0.5998 15.1752 -2.5019 0.9403
0.0493 15.1862 -2.5018 0.9403
12.7345 3.9185 -2.5043 0.9472
12.2333 5.2776 -2.5042 0.9472
12.0338 5.7175 -2.5042 0.9472
11.3413 6.9897 -2.5041 0.9472
11.0802 7.3961 -2.5040 0.9472
9.8941 8.9189 -2.5038 0.9472
9.2214 9.6118 -2.5036 0.9472
8.8666 9.9395 -2.5036 0.9472
8.5002 10.2541 -2.5035 0.9472
7.7345 10.8423 -2.5033 0.9472
6.9281 11.3735 -2.5032 0.9472
5.2109 12.2537 -2.5028 0.9472
4.7631 12.4341 -2.5027 0.9472
4.3091 12.5981 -2.5026 0.9473
3.3847 12.8762 -2.5025 0.9473
2.4428 13.0867 -2.5023 0.9473
1.4881 13.2282 -2.5021 0.9473
0.5257 13.3003 -2.5019 0.9473
11.4412 3.0713 -2.5041 0.9527
11.3223 3.4840 -2.5040 0.9527
10.6994 5.0835 -2.5039 0.9527
10.0838 6.2147 -2.5038 0.9527
9.8517 6.5760 -2.5038 0.9527
9.3490 7.2722 -2.5037 0.9527
7.8836 8.8376 -2.5034 0.9527
7.5579 9.1173 -2.5033 0.9527
7.2222 9.3851 -2.5032 0.9527
6.8771 9.6404 -2.5032 0.9527
6.5229 9.8831 -2.5031 0.9527
6.1602 10.1128 -2.5030 0.9527
5.7894 10.3291 -2.5029 0.9527
5.0254 10.7208 -2.5028 0.9527
4.2352 11.0560 -2.5026 0.9527
2.1721 11.6365 -2.5022 0.9528
1.7488 11.7072 -2.5021 0.9528
1.3232 11.7625 -2.5020 0.9528
0.8959 11.8023 -2.5020 0.9528
0.4675 11.8266 -2.5019 0.9528
0.0384 11.8354 -2.5018 0.9528
10.2893 2.7621 -2.5038 0.9572
10.1824 3.1332 -2.5038 0.9572
9.7817 4.2200 -2.5037 0.9572
9.6222 4.5717 -2.5037 0.9572
9.0686 5.5891 -2.5036 0.9572
8.6396 6.2312 -2.5035 0.9572
7.6477 7.4138 -2.5033 0.9572
7.0901 7.9480 -2.5032 0.9572
6.7972 8.1996 -2.5031 0.9572
5.5402 9.0950 -2.5029 0.9572
4.5197 9.6419 -2.5027 0.9572
3.4460 10.0747 -2.5025 0.9572
2.7069 10.2973 -2.5023 0.9572
1.1901 10.5791 -2.5020 0.9572
0.8057 10.6149 -2.5019 0.9572
9.1327 3.1770 -2.5036 0.9608
8.7336 4.1495 -2.5035 0.9608
8.2312 5.0729 -2.5034 0.9608
8.0417 5.3679 -2.5034 0.9608
7.6314 5.9362 -2.5033 0.9608
7.1810 6.4733 -2.5032 0.9608
6.1696 7.4425 -2.5030 0.9608
5.8956 7.6611 -2.5030 0.9608
5.3248 8.0678 -2.5028 0.9608
5.0287 8.2553 -2.5028 0.9608
4.4171 8.5975 -2.5027 0.9608
4.1025 8.7518 -2.5026 0.9608
3.4575 9.0255 -2.5025 0.9609
1.7732 9.4997 -2.5021 0.9609
1.0803 9.6027 -2.5020 0.9609
0.7314 9.6353 -2.5019 0.9609
0.0314 9.6624 -2.5018 0.9609
8.5410 2.2927 -2.5035 0.9639
8.4522 2.6008 -2.5035 0.9639
8.3523 2.9055 -2.5035 0.9639
8.2414 3.2063 -2.5034 0.9639
7.8444 4.0819 -2.5034 0.9639
6.9793 5.4290 -2.5032 0.9639
6.3484 6.1543 -2.5031 0.9639
6.1210 6.3802 -2.5030 0.9639
5.6425 6.8067 -2.5029 0.9639
5.3919 7.0066 -2.5029 0.9639
5.1343 7.1973 -2.5028 0.9639
4.3223 7.7117 -2.5026 0.9639
4.0398 7.8631 -2.5026 0.9639
3.4594 8.1347 -2.5025 0.9639
2.8607 8.3636 -2.5023 0.9639
2.5556 8.4616 -2.5023 0.9639
1.9357 8.6241 -2.5022 0.9639
1.3057 8.7412 -2.5020 0.9639
0.9880 8.7826 -2.5020 0.9639
0.0287 8.8373 -2.5018 0.9639
-0.2917 8.8323 -2.5017 0.9639
7.8606 2.1101 -2.5034 0.9665
7.7789 2.3937 -2.5033 0.9665
7.6869 2.6740 -2.5033 0.9665
7.5849 2.9509 -2.5033 0.9665
7.3511 3.4926 -2.5033 0.9665
7.2195 3.7568 -2.5032 0.9665
7.0785 4.0160 -2.5032 0.9665
6.7688 4.5182 -2.5031 0.9665
6.6005 4.7605 -2.5031 0.9665
6.2380 5.2261 -2.5030 0.9665
6.0444 5.4487 -2.5030 0.9665
5.6336 5.8721 -2.5029 0.9665
4.4821 6.7910 -2.5027 0.9665
4.2329 6.9488 -2.5026 0.9665
3.9781 7.0976 -2.5026 0.9665
3.4533 7.3668 -2.5025 0.9665
3.1839 7.4870 -2.5024 0.9665
2.9103 7.5973 -2.5024 0.9665
2.6329 7.6977 -2.5023 0.9665
2.3521 7.7879 -2.5022 0.9665
1.7816 7.9375 -2.5021 0.9665
1.4927 7.9966 -2.5021 0.9665
1.2018 8.0453 -2.5020 0.9665
0.6157 8.1108 -2.5019 0.9665
0.0264 8.1337 -2.5018 0.9665
7.2732 1.9524 -2.5032 0.9688
7.1976 2.2148 -2.5032 0.9688
7.0181 2.7304 -2.5032 0.9688
6.9145 2.9830 -2.5032 0.9688
6.8017 3.2316 -2.5031 0.9688
6.5495 3.7159 -2.5031 0.9688
5.9435 4.6232 -2.5030 0.9688
5.7719 4.8355 -2.5029 0.9688
5.5927 5.0415 -2.5029 0.9688
5.2126 5.4333 -2.5028 0.9688
4.3723 6.1292 -2.5027 0.9688
3.9166 6.4297 -2.5026 0.9688
3.6809 6.5673 -2.5025 0.9688
3.1953 6.8165 -2.5024 0.9688
2.9461 6.9277 -2.5024 0.9688
2.4363 7.1226 -2.5023 0.9688
0.8414 7.4796 -2.5019 0.9688
0.0244 7.5262 -2.5018 0.9688
-0.2484 7.5220 -2.5017 0.9688
6.7603 1.8147 -2.5031 0.9707
6.6901 2.0586 -2.5031 0.9707
6.6110 2.2998 -2.5031 0.9707
6.3221 3.0038 -2.5030 0.9707
5.6767 4.0942 -2.5029 0.9707
5.5244 4.2972 -2.5029 0.9707
5.3649 4.4946 -2.5029 0.9707
5.0251 4.8714 -2.5028 0.9707
4.8451 5.0503 -2.5027 0.9707
4.6588 5.2225 -2.5027 0.9707
4.4663 5.3879 -2.5027 0.9707
3.6405 5.9764 -2.5025 0.9707
3.4214 6.1044 -2.5025 0.9707
3.1979 6.2242 -2.5024 0.9707
2.9700 6.3360 -2.5024 0.9707
2.5031 6.5343 -2.5023 0.9707
2.0230 6.6982 -2.5022 0.9707
1.7788 6.7670 -2.5021 0.9707
1.5323 6.8269 -2.5021 0.9707
1.2838 6.8778 -2.5020 0.9707
0.7821 6.9525 -2.5019 0.9707
0.2763 6.9906 -2.5018 0.9707
0.0227 6.9959 -2.5018 0.9707
6.2428 1.9209 -2.5030 0.9724
6.1690 2.1460 -2.5030 0.9724
5.8994 2.8029 -2.5030 0.9724
5.6807 3.2229 -2.5029 0.9724
5.4322 3.6260 -2.5029 0.9724
5.1551 4.0099 -2.5028 0.9724
5.0062 4.1941 -2.5028 0.9724
4.5212 4.7126 -2.5027 0.9724
4.3473 4.8734 -2.5026 0.9724
3.7924 5.3163 -2.5025 0.9724
3.5972 5.4502 -2.5025 0.9724
3.3971 5.5769 -2.5025 0.9724
2.9840 5.8082 -2.5024 0.9724
2.7715 5.9124 -2.5023 0.9724
2.5553 6.0089 -2.5023 0.9724
2.1132 6.1780 -2.5022 0.9724
1.8878 6.2504 -2.5022 0.9724
1.6600 6.3147 -2.5021 0.9724
1.4299 6.3706 -2.5021 0.9724
1.1980 6.4181 -2.5020 0.9724
0.4942 6.5099 -2.5019 0.9724
0.0212 6.5283 -2.5018 0.9724
-0.2154 6.5247 -2.5017 0.9724
5.9065 1.5855 -2.5030 0.9739
5.7760 2.0093 -2.5029 0.9739
5.6993 2.2173 -2.5029 0.9739
5.4248 2.8229 -2.5029 0.9739
5.3189 3.0177 -2.5028 0.9739
5.2060 3.2085 -2.5028 0.9739
5.0862 3.3950 -2.5028 0.9739
4.9597 3.5771 -2.5028 0.9739
4.6874 3.9270 -2.5027 0.9739
4.5419 4.0943 -2.5027 0.9739
4.3904 4.2562 -2.5027 0.9739
3.9023 4.7075 -2.5026 0.9739
3.7290 4.8458 -2.5025 0.9739
2.9894 5.3335 -2.5024 0.9739
2.5950 5.5359 -2.5023 0.9739
2.3926 5.6263 -2.5023 0.9739
2.1870 5.7092 -2.5022 0.9739
1.9786 5.7846 -2.5022 0.9739
1.7676 5.8525 -2.5021 0.9739
1.5543 5.9126 -2.5021 0.9739
0.9031 6.0461 -2.5020 0.9739
0.6833 6.0747 -2.5019 0.9739
0.0198 6.1127 -2.5018 0.9739
5.4241 1.8869 -2.5029 0.9753
5.3521 2.0822 -2.5029 0.9753
5.2731 2.2749 -2.5028 0.9753
5.1871 2.4645 -2.5028 0.9753
5.0943 2.6509 -2.5028 0.9753
4.9948 2.8338 -2.5028 0.9753
4.5327 3.5258 -2.5027 0.9753
4.2652 3.8449 -2.5026 0.9753
4.1230 3.9969 -2.5026 0.9753
3.8225 4.2850 -2.5025 0.9753
3.3346 4.6745 -2.5024 0.9753
2.9871 4.9037 -2.5024 0.9753
2.8073 5.0086 -2.5023 0.9753
2.6238 5.1071 -2.5023 0.9753
2.4370 5.1987 -2.5023 0.9753
2.2469 5.2836 -2.5022 0.9753
2.0538 5.3614 -2.5022 0.9753
1.6599 5.4960 -2.5021 0.9753
1.4596 5.5525 -2.5021 0.9753
1.0534 5.6434 -2.5020 0.9753
0.8481 5.6778 -2.5019 0.9753
-0.1895 5.7372 -2.5017 0.9753
5.2221 1.4018 -2.5028 0.9764
5.1679 1.5902 -2.5028 0.9764
5.1068 1.7765 -2.5028 0.9764
4.8837 2.3203 -2.5028 0.9764
4.7963 2.4958 -2.5027 0.9764
4.4969 3.0017 -2.5027 0.9765
4.3851 3.1627 -2.5027 0.9765
4.1444 3.4720 -2.5026 0.9765
4.0157 3.6199 -2.5026 0.9765
3.5989 4.0344 -2.5025 0.9765
3.2970 4.2844 -2.5024 0.9765
2.9779 4.5119 -2.5024 0.9765
2.4704 4.8083 -2.5023 0.9765
2.2944 4.8947 -2.5022 0.9765
1.9337 5.0479 -2.5022 0.9765
1.7494 5.1146 -2.5021 0.9765
1.5628 5.1746 -2.5021 0.9765
1.3742 5.2277 -2.5021 0.9765
0.7985 5.3458 -2.5019 0.9765
0.6042 5.3711 -2.5019 0.9765
0.4091 5.3894 -2.5019 0.9765
0.2135 5.4006 -2.5018 0.9765
4.9278 1.3228 -2.5028 0.9775
4.8766 1.5006 -2.5028 0.9775
4.7550 1.8499 -2.5027 0.9775
4.6848 2.0211 -2.5027 0.9775
4.6084 2.1896 -2.5027 0.9775
4.5260 2.3552 -2.5027 0.9775
4.4376 2.5177 -2.5027 0.9775
4.3434 2.6768 -2.5026 0.9775
4.0270 3.1325 -2.5026 0.9775
3.7894 3.4159 -2.5025 0.9775
3.6630 3.5510 -2.5025 0.9775
3.1113 4.0429 -2.5024 0.9775
2.8101 4.2576 -2.5023 0.9775
2.3312 4.5374 -2.5022 0.9775
2.1651 4.6188 -2.5022 0.9775
1.8247 4.7634 -2.5021 0.9775
1.6509 4.8264 -2.5021 0.9775
1.4748 4.8830 -2.5021 0.9775
1.2968 4.9331 -2.5020 0.9775
0.7535 5.0446 -2.5019 0.9775
0.5702 5.0685 -2.5019 0.9775
0.3861 5.0857 -2.5019 0.9775
0.2014 5.0963 -2.5018 0.9775
0.0165 5.1002 -2.5018 0.9775
-0.1683 5.0974 -2.5017 0.9775
4.6109 1.4188 -2.5027 0.9785
4.5564 1.5850 -2.5027 0.9785
4.4959 1.7491 -2.5027 0.9785
4.2794 2.2268 -2.5026 0.9785
4.1958 2.3805 -2.5026 0.9785
4.1068 2.5310 -2.5026 0.9785
3.5829 3.2298 -2.5025 0.9785
3.4634 3.3575 -2.5025 0.9785
3.2110 3.5996 -2.5024 0.9785
3.0784 3.7136 -2.5024 0.9785
2.9417 3.8227 -2.5024 0.9785
2.6570 4.0257 -2.5023 0.9785
2.3583 4.2075 -2.5022 0.9785
2.0472 4.3672 -2.5022 0.9785
1.8875 4.4385 -2.5022 0.9785
1.3944 4.6170 -2.5021 0.9785
1.0562 4.7057 -2.5020 0.9785
0.7125 4.7698 -2.5019 0.9785
0.5391 4.7924 -2.5019 0.9785
0.3650 4.8087 -2.5018 0.9785
0.1905 4.8187 -2.5018 0.9785
0.0157 4.8224 -2.5018 0.9785
-0.1592 4.8197 -2.5017 0.9785
4.4131 1.1847 -2.5027 0.9794
4.2584 1.6567 -2.5026 0.9794
4.1955 1.8100 -2.5026 0.9794
4.1271 1.9609 -2.5026 0.9794
4.0533 2.1092 -2.5026 0.9794
3.8003 2.5367 -2.5025 0.9794
3.7058 2.6728 -2.5025 0.9794
3.1630 3.2970 -2.5024 0.9794
2.9158 3.5174 -2.5024 0.9794
2.6532 3.7194 -2.5023 0.9794
2.5166 3.8130 -2.5023 0.9794
2.2337 3.9853 -2.5022 0.9794
2.0878 4.0636 -2.5022 0.9794
1.7878 4.2041 -2.5021 0.9794
1.6342 4.2661 -2.5021 0.9794
1.0004 4.4572 -2.5020 0.9794
0.6749 4.5179 -2.5019 0.9794
0.1804 4.5643 -2.5018 0.9794
0.0148 4.5677 -2.5018 0.9794
4.1864 1.1238 -2.5026 0.9802
4.0396 1.5716 -2.5026 0.9802
3.9151 1.8602 -2.5026 0.9802
3.8451 2.0008 -2.5025 0.9802
3.6051 2.4064 -2.5025 0.9802
3.5155 2.5355 -2.5025 0.9802
3.4212 2.6612 -2.5025 0.9802
3.3225 2.7835 -2.5024 0.9802
3.2194 2.9021 -2.5024 0.9802
3.1120 3.0169 -2.5024 0.9802
3.0006 3.1276 -2.5024 0.9802
2.7660 3.3368 -2.5023 0.9802
2.6432 3.4348 -2.5023 0.9802
1.9805 3.8549 -2.5022 0.9802
1.4025 4.1005 -2.5021 0.9802
0.9491 4.2283 -2.5020 0.9802
0.6402 4.2859 -2.5019 0.9802
0.4844 4.3062 -2.5019 0.9802
0.1712 4.3299 -2.5018 0.9802
0.0141 4.3332 -2.5018 0.9802
-0.1430 4.3308 -2.5017 0.9802
