ply
format ascii 1.0
element vertex 590
property float32 x
property float32 y
property float32 z
property float32 I
end_header
23.0313 -3.6834 4.1127 0.9096
38.3979 -3.3511 6.7963 0.8551
40.6831 12.8704 7.5239 0.8409
16.8574 8.1320 3.3002 0.9268
35.6241 18.7840 7.1012 0.8491
32.5749 18.6946 6.6225 0.8585
34.2066 26.7720 7.6592 0.8383
29.3699 30.6761 7.4884 0.8416
29.5601 33.1723 7.8346 0.8349
25.3531 38.2941 8.0980 0.8298
25.4399 41.5829 8.5955 0.8204
23.0312 -3.6834 3.5731 0.9099
42.1481 18.5046 7.0517 0.8300
39.1849 18.9028 6.6649 0.8386
35.6052 18.7741 6.1663 0.8497
40.6908 27.3947 7.5147 0.8200
24.3231 19.0366 4.7317 0.8825
34.5363 33.5814 7.3795 0.8229
31.9854 35.8941 7.3652 0.8232
38.5680 18.6051 5.5762 0.8414
35.5915 18.7668 5.2396 0.8502
16.8353 10.4794 2.5823 0.9231
28.0825 18.9063 4.4085 0.8724
26.3351 -11.4136 3.0821 0.8909
23.0310 -3.6834 2.5045 0.9104
41.9891 18.4347 4.9243 0.8315
16.8352 10.4793 2.1294 0.9233
22.5689 -3.6095 1.9348 0.9123
22.5892 -2.7884 1.9267 0.9127
42.1079 18.4869 3.8930 0.8314
16.8351 10.4792 1.6787 0.9235
26.3351 -11.4137 1.7798 0.8913
16.8350 10.4792 1.2297 0.9236
23.4862 18.3816 1.8494 0.8873
23.1384 19.4830 1.8757 0.8858
41.5289 18.2327 1.7884 0.8340
22.5889 -2.7884 0.3845 0.9130
40.9908 -3.5774 0.6950 0.8482
41.5287 18.2326 0.7661 0.8341
16.8348 10.4790 0.3350 0.9237
23.4764 18.3739 0.5036 0.8876
23.1381 19.4828 0.5109 0.8860
17.7585 -6.9532 -0.1074 0.9266
17.7574 -6.2301 -0.1060 0.9275
17.7564 -5.5250 -0.1047 0.9283
17.7533 -3.4945 -0.1019 0.9302
17.7442 -2.1904 -0.1007 0.9310
17.7409 -0.9106 -0.1000 0.9314
17.7394 -0.2753 -0.0999 0.9315
17.7378 0.3592 -0.0999 0.9315
17.7345 1.6324 -0.1003 0.9312
17.7294 2.9217 -0.1012 0.9306
17.7268 4.2416 -0.1026 0.9297
17.7254 4.9176 -0.1036 0.9291
17.7240 5.6071 -0.1047 0.9283
17.7211 7.0356 -0.1073 0.9266
17.7196 7.7796 -0.1090 0.9255
16.8347 10.4790 -0.1116 0.9237
17.7041 11.9192 -0.1202 0.9182
17.7019 13.8546 -0.1266 0.9140
17.6989 14.9029 -0.1303 0.9116
17.6957 16.0160 -0.1344 0.9089
17.6922 17.2031 -0.1389 0.9060
17.6886 18.4753 -0.1440 0.9027
17.6793 19.8398 -0.1496 0.8992
17.6721 22.9431 -0.1630 0.8906
17.6733 24.7256 -0.1711 0.8855
17.6553 28.8588 -0.1905 0.8734
17.7593 -7.6968 -0.5450 0.9255
17.7581 -6.9531 -0.5370 0.9265
17.7560 -5.5249 -0.5236 0.9283
17.7549 -4.8354 -0.5182 0.9290
17.8472 -2.8543 -0.5089 0.9302
17.7429 -1.5485 -0.5015 0.9312
17.7413 -0.9107 -0.5002 0.9314
17.7365 0.9946 -0.5002 0.9314
17.7333 2.2743 -0.5034 0.9310
17.7292 2.9216 -0.5059 0.9306
17.7279 3.5769 -0.5092 0.9302
17.7265 4.2415 -0.5132 0.9297
17.7251 4.9176 -0.5180 0.9290
17.7237 5.6071 -0.5234 0.9283
17.7223 6.3122 -0.5297 0.9275
17.7208 7.0355 -0.5369 0.9265
17.7150 8.5457 -0.5538 0.9243
16.8346 10.4789 -0.5584 0.9237
17.7046 11.9195 -0.6010 0.9181
17.7015 13.8542 -0.6329 0.9140
17.6985 14.9025 -0.6515 0.9116
17.6952 16.0156 -0.6720 0.9089
17.6918 17.2027 -0.6948 0.9060
17.6881 18.4748 -0.7202 0.9027
17.6794 19.8399 -0.7483 0.8991
17.6759 21.3249 -0.7799 0.8951
17.6722 22.9432 -0.8155 0.8906
17.6739 24.7265 -0.8558 0.8855
17.6561 28.8600 -0.9527 0.8734
17.7546 -4.8353 -0.9332 0.9290
17.7525 -3.4944 -0.9176 0.9301
17.8502 -2.8547 -0.9168 0.9302
17.7432 -1.5485 -0.9033 0.9312
17.7416 -0.9107 -0.9009 0.9313
17.7400 -0.2753 -0.8998 0.9314
17.7384 0.3593 -0.8998 0.9314
17.7289 2.9216 -0.9112 0.9306
17.7276 3.5768 -0.9172 0.9301
17.7249 4.9175 -0.9329 0.9290
17.7235 5.6070 -0.9427 0.9283
17.7220 6.3121 -0.9541 0.9274
17.7191 7.7794 -0.9814 0.9254
17.7154 8.5460 -0.9975 0.9242
17.7130 9.3398 -1.0155 0.9229
17.7051 11.9198 -1.0824 0.9181
17.7022 12.8612 -1.1097 0.9161
17.7011 13.8539 -1.1400 0.9139
17.6980 14.9022 -1.1733 0.9115
17.6913 17.2022 -1.2514 0.9059
17.6876 18.4743 -1.2971 0.9026
17.6760 21.3250 -1.4047 0.8950
17.6723 22.9434 -1.4687 0.8905
17.6746 24.7274 -1.5414 0.8854
17.6662 26.6836 -1.6229 0.8797
17.6568 28.8612 -1.7159 0.8733
17.7584 -7.6965 -1.4191 0.9253
17.7562 -6.2296 -1.3797 0.9273
17.7552 -5.5246 -1.3634 0.9281
17.7542 -4.8351 -1.3492 0.9289
17.8531 -2.8552 -1.3257 0.9301
17.7452 -2.1905 -1.3110 0.9308
17.7388 0.3593 -1.3009 0.9313
17.7371 0.9947 -1.3026 0.9312
17.7339 2.2744 -1.3109 0.9308
17.7287 2.9216 -1.3174 0.9305
17.7260 4.2414 -1.3364 0.9295
17.7246 4.9174 -1.3487 0.9289
17.7232 5.6069 -1.3630 0.9282
17.7188 7.7792 -1.4189 0.9253
17.7159 8.5462 -1.4422 0.9241
16.8344 10.4788 -1.4539 0.9236
17.7056 11.9202 -1.5650 0.9180
17.7028 12.8616 -1.6044 0.9160
17.6909 17.2018 -1.8092 0.9058
17.6669 26.6847 -2.3465 0.8795
17.7580 -7.6963 -1.8581 0.9252
17.7569 -6.9526 -1.8308 0.9262
17.7548 -5.5245 -1.7852 0.9280
17.7537 -4.8350 -1.7665 0.9287
17.7455 -2.1905 -1.7166 0.9307
17.7423 -0.9107 -1.7056 0.9311
17.7407 -0.2753 -1.7034 0.9312
17.7391 0.3593 -1.7034 0.9312
17.7375 0.9947 -1.7056 0.9311
17.7285 2.9215 -1.7250 0.9303
17.7164 8.5464 -1.8884 0.9240
16.8343 10.4787 -1.9037 0.9234
17.7061 11.9205 -2.0492 0.9178
17.7033 12.8619 -2.1008 0.9158
17.7002 13.8532 -2.1579 0.9136
17.6971 14.9014 -2.2211 0.9112
17.6939 16.0143 -2.2911 0.9086
17.5707 17.0849 -2.3529 0.9062
16.9477 17.7014 -2.3527 0.9062
15.6374 18.8654 -2.3525 0.9062
15.3708 19.9553 -2.4182 0.9037
13.6139 22.2528 -2.5045 0.9005
17.7554 -6.2294 -2.2351 0.9270
17.7533 -4.8349 -2.1857 0.9286
17.7523 -4.1589 -2.1658 0.9292
17.7514 -3.4941 -2.1491 0.9297
17.8590 -2.8562 -2.1484 0.9297
17.7442 -1.5486 -2.1158 0.9308
17.7394 0.3593 -2.1076 0.9310
17.7378 0.9947 -2.1103 0.9309
17.7362 1.6326 -2.1157 0.9308
17.7282 2.9215 -2.1343 0.9302
17.7269 3.5767 -2.1481 0.9297
17.7241 4.9173 -2.1849 0.9286
17.7228 5.6068 -2.2081 0.9279
17.7199 7.0351 -2.2647 0.9261
17.7183 7.7790 -2.2986 0.9250
17.7169 8.5466 -2.3366 0.9238
16.4293 11.0609 -2.3526 0.9233
16.0227 11.6409 -2.3526 0.9233
15.5956 12.2060 -2.3525 0.9233
15.3655 13.9070 -2.4618 0.9199
14.5820 15.2305 -2.5047 0.9186
14.0273 15.7415 -2.5046 0.9186
12.2590 17.1509 -2.5042 0.9186
11.6373 17.5774 -2.5041 0.9186
15.3910 -6.6704 -2.3767 0.9345
15.6669 -5.4967 -2.3525 0.9351
15.8537 -4.9329 -2.3525 0.9351
16.2914 -3.2068 -2.3526 0.9351
16.3958 -2.6222 -2.3526 0.9351
16.5826 -0.8512 -2.3527 0.9351
16.6025 -0.2576 -2.3527 0.9351
16.5784 0.9297 -2.3527 0.9351
16.5345 1.5219 -2.3527 0.9351
16.4694 2.1122 -2.3526 0.9351
16.2760 3.2839 -2.3526 0.9351
15.4312 6.1264 -2.3524 0.9351
15.3683 8.1035 -2.4617 0.9322
15.0078 9.3418 -2.5048 0.9311
14.3009 10.3900 -2.5046 0.9311
13.5209 11.3849 -2.5045 0.9311
13.1047 11.8607 -2.5044 0.9311
12.6717 12.3214 -2.5043 0.9311
11.7578 13.1946 -2.5041 0.9311
11.2780 13.6061 -2.5040 0.9311
10.7838 14.0002 -2.5039 0.9311
10.2758 14.3762 -2.5038 0.9311
9.2213 15.0727 -2.5036 0.9311
13.9494 -6.0456 -2.5045 0.9402
14.1569 -5.5431 -2.5046 0.9402
14.3462 -5.0333 -2.5046 0.9402
14.8033 -3.4680 -2.5047 0.9402
15.0899 -1.8628 -2.5048 0.9402
15.1846 -0.7794 -2.5048 0.9402
15.2028 -0.2359 -2.5048 0.9402
15.2015 0.3079 -2.5048 0.9402
15.1807 0.8513 -2.5048 0.9402
15.1406 1.3937 -2.5048 0.9402
14.9039 3.0071 -2.5047 0.9402
14.6506 4.0646 -2.5047 0.9402
14.4957 4.5858 -2.5047 0.9402
13.9206 6.1116 -2.5045 0.9402
12.9059 8.0334 -2.5043 0.9402
12.6100 8.4896 -2.5043 0.9402
12.2980 8.9349 -2.5042 0.9402
11.9704 9.3687 -2.5042 0.9402
11.6274 9.7905 -2.5041 0.9402
10.8972 10.5959 -2.5039 0.9402
10.5110 10.9785 -2.5039 0.9402
9.2738 12.0399 -2.5036 0.9403
8.8371 12.3634 -2.5035 0.9403
7.9302 12.9624 -2.5033 0.9403
12.7219 -3.9585 -2.5043 0.9472
12.8555 -3.5011 -2.5043 0.9472
12.9726 -3.0391 -2.5044 0.9472
13.2237 -1.6323 -2.5044 0.9472
13.3033 0.7460 -2.5044 0.9472
13.1467 2.1665 -2.5044 0.9472
13.0607 2.6352 -2.5044 0.9472
12.7030 4.0187 -2.5043 0.9472
12.5510 4.4704 -2.5043 0.9472
11.7846 6.2139 -2.5041 0.9472
11.5547 6.6312 -2.5041 0.9472
11.3099 7.0400 -2.5040 0.9472
10.7774 7.8300 -2.5039 0.9472
9.5499 9.2858 -2.5037 0.9472
9.2114 9.6212 -2.5036 0.9472
8.8613 9.9441 -2.5035 0.9472
8.1274 10.5514 -2.5034 0.9472
7.3520 11.1047 -2.5032 0.9472
6.9499 11.3601 -2.5032 0.9472
11.4299 -3.1128 -2.5040 0.9527
11.6233 -2.2879 -2.5041 0.9527
11.6978 -1.8708 -2.5041 0.9527
11.7572 -1.4513 -2.5041 0.9527
11.8310 -0.6073 -2.5041 0.9527
11.8442 0.2399 -2.5041 0.9527
11.7503 1.5070 -2.5041 0.9527
11.4150 3.1669 -2.5040 0.9527
11.2944 3.5730 -2.5040 0.9527
11.1593 3.9746 -2.5040 0.9527
11.0098 4.3711 -2.5040 0.9527
10.6690 5.1467 -2.5039 0.9527
9.8254 6.6149 -2.5037 0.9527
9.3272 7.3000 -2.5036 0.9527
9.0600 7.6287 -2.5036 0.9527
8.7812 7.9476 -2.5035 0.9527
8.1903 8.5545 -2.5034 0.9527
7.8789 8.8417 -2.5033 0.9527
6.1796 10.1009 -2.5030 0.9527
10.0526 -3.5269 -2.5038 0.9572
10.2791 -2.7994 -2.5038 0.9572
10.3728 -2.4301 -2.5038 0.9572
10.4531 -2.0576 -2.5039 0.9572
10.5200 -1.6825 -2.5039 0.9572
10.5735 -1.3052 -2.5039 0.9572
10.6398 -0.5461 -2.5039 0.9572
10.6525 -0.1653 -2.5039 0.9572
10.6089 0.9765 -2.5039 0.9572
10.5119 1.7323 -2.5039 0.9572
10.0357 3.5745 -2.5038 0.9572
9.9014 3.9310 -2.5037 0.9572
9.4231 4.9686 -2.5036 0.9572
9.2392 5.3023 -2.5036 0.9572
9.0436 5.6293 -2.5036 0.9572
8.3883 6.5651 -2.5034 0.9572
8.1479 6.8607 -2.5034 0.9572
7.8972 7.1476 -2.5033 0.9572
7.6364 7.4253 -2.5033 0.9572
6.7968 8.1999 -2.5031 0.9572
6.4991 8.4375 -2.5031 0.9572
6.1930 8.6643 -2.5030 0.9572
5.5576 9.0843 -2.5029 0.9572
8.8719 -3.8451 -2.5035 0.9608
9.0038 -3.5254 -2.5036 0.9608
9.1242 -3.2012 -2.5036 0.9608
9.2329 -2.8729 -2.5036 0.9608
9.3298 -2.5409 -2.5036 0.9608
9.4148 -2.2056 -2.5036 0.9608
9.4877 -1.8676 -2.5037 0.9608
9.5970 -1.1847 -2.5037 0.9608
9.6332 -0.8407 -2.5037 0.9608
9.6687 -0.1500 -2.5037 0.9608
9.6679 0.1958 -2.5037 0.9608
9.6547 0.5414 -2.5037 0.9608
9.6291 0.8863 -2.5037 0.9608
9.5411 1.5723 -2.5037 0.9608
9.4787 1.9124 -2.5037 0.9608
9.4042 2.2502 -2.5036 0.9608
9.1089 3.2444 -2.5036 0.9608
8.9870 3.5679 -2.5036 0.9608
8.7088 4.2011 -2.5035 0.9608
8.5529 4.5098 -2.5035 0.9608
8.3860 4.8127 -2.5034 0.9608
8.0204 5.3996 -2.5034 0.9608
7.8220 5.6829 -2.5033 0.9608
7.6136 5.9589 -2.5033 0.9608
7.3955 6.2272 -2.5032 0.9608
6.6858 6.9831 -2.5031 0.9608
5.8990 7.6584 -2.5029 0.9608
8.1138 -3.5165 -2.5034 0.9639
8.3445 -2.9276 -2.5034 0.9639
8.5325 -2.3238 -2.5035 0.9639
8.6102 -2.0172 -2.5035 0.9639
8.6769 -1.7080 -2.5035 0.9639
8.7768 -1.0834 -2.5035 0.9639
8.8100 -0.7689 -2.5035 0.9639
8.8319 -0.4533 -2.5035 0.9639
8.8425 -0.1372 -2.5035 0.9639
8.8417 0.1791 -2.5035 0.9639
8.8062 0.8106 -2.5035 0.9639
8.7258 1.4379 -2.5035 0.9639
8.4314 2.6673 -2.5035 0.9639
7.9646 3.8421 -2.5034 0.9639
7.5070 4.6729 -2.5033 0.9639
7.3350 4.9382 -2.5032 0.9639
6.7637 5.6951 -2.5031 0.9639
5.1410 7.1925 -2.5028 0.9639
4.8804 7.3716 -2.5027 0.9639
7.4675 -3.2364 -2.5033 0.9665
7.5785 -2.9673 -2.5033 0.9665
7.7713 -2.4181 -2.5033 0.9665
7.8529 -2.1387 -2.5033 0.9665
7.9244 -1.8565 -2.5034 0.9665
7.9857 -1.5719 -2.5034 0.9665
8.1082 -0.7076 -2.5034 0.9665
8.1381 -0.1263 -2.5034 0.9665
8.1263 0.4557 -2.5034 0.9665
8.1048 0.7460 -2.5034 0.9665
8.0306 1.3234 -2.5034 0.9665
7.9782 1.6097 -2.5034 0.9665
7.8426 2.1758 -2.5033 0.9665
7.6670 2.7308 -2.5033 0.9665
7.5643 3.0032 -2.5033 0.9665
7.3302 3.5361 -2.5032 0.9665
7.1990 3.7959 -2.5032 0.9665
7.0586 4.0509 -2.5032 0.9665
6.9091 4.3006 -2.5031 0.9665
6.5839 4.7834 -2.5031 0.9665
5.8342 5.6729 -2.5029 0.9665
5.1929 6.2648 -2.5028 0.9665
4.9654 6.4464 -2.5028 0.9665
4.7316 6.6197 -2.5027 0.9665
4.4918 6.7845 -2.5027 0.9665
4.2462 6.9406 -2.5026 0.9665
7.0121 -2.7456 -2.5032 0.9688
7.1059 -2.4931 -2.5032 0.9688
7.1906 -2.2374 -2.5032 0.9688
7.3321 -1.7177 -2.5032 0.9688
7.3889 -1.4544 -2.5032 0.9688
7.4362 -1.1893 -2.5033 0.9688
7.5299 -0.1168 -2.5033 0.9688
7.4991 0.6903 -2.5033 0.9688
7.3819 1.4894 -2.5032 0.9688
7.1798 2.2714 -2.5032 0.9688
6.8952 3.0272 -2.5031 0.9688
6.7824 3.2718 -2.5031 0.9688
6.3928 3.9793 -2.5030 0.9688
5.9296 4.6409 -2.5030 0.9688
5.7598 4.8499 -2.5029 0.9688
5.3983 5.2490 -2.5028 0.9688
5.2071 5.4386 -2.5028 0.9688
5.0091 5.6212 -2.5028 0.9688
4.5944 5.9647 -2.5027 0.9688
4.1562 6.2776 -2.5026 0.9688
6.4222 -2.7834 -2.5031 0.9707
6.5177 -2.5520 -2.5031 0.9707
6.6049 -2.3173 -2.5031 0.9707
6.8679 -1.3519 -2.5031 0.9707
6.9470 -0.8576 -2.5032 0.9707
6.9732 -0.6086 -2.5032 0.9707
6.9906 -0.3588 -2.5032 0.9707
6.9703 0.6416 -2.5032 0.9707
6.7449 1.8713 -2.5031 0.9707
6.6736 2.1112 -2.5031 0.9707
6.5055 2.5828 -2.5031 0.9707
6.1914 3.2646 -2.5030 0.9707
6.0706 3.4839 -2.5030 0.9707
5.9421 3.6987 -2.5030 0.9707
5.6624 4.1138 -2.5029 0.9707
5.3537 4.5079 -2.5028 0.9707
5.0177 4.8789 -2.5028 0.9707
4.8399 5.0552 -2.5027 0.9707
4.4661 5.3880 -2.5027 0.9707
4.2705 5.5442 -2.5026 0.9707
4.0695 5.6933 -2.5026 0.9707
3.8632 5.8351 -2.5025 0.9707
5.9928 -2.5973 -2.5030 0.9724
6.1632 -2.1623 -2.5030 0.9724
6.2366 -1.9406 -2.5030 0.9724
6.3595 -1.4899 -2.5030 0.9724
6.5042 0.5987 -2.5031 0.9724
6.4787 0.8309 -2.5031 0.9724
6.4026 1.2918 -2.5030 0.9724
6.2939 1.7461 -2.5030 0.9724
6.0706 2.4101 -2.5030 0.9724
5.7774 3.0463 -2.5029 0.9724
5.4178 3.6475 -2.5029 0.9724
5.2838 3.8388 -2.5028 0.9724
5.1431 4.0253 -2.5028 0.9724
4.8421 4.3825 -2.5027 0.9724
4.6823 4.5528 -2.5027 0.9724
4.5164 4.7172 -2.5027 0.9724
4.1675 5.0278 -2.5026 0.9724
3.9850 5.1736 -2.5026 0.9724
3.6050 5.4450 -2.5025 0.9724
3.4079 5.5704 -2.5025 0.9724
5.6111 -2.4319 -2.5029 0.9739
5.6945 -2.2296 -2.5029 0.9739
5.8394 -1.8170 -2.5029 0.9739
5.9544 -1.3950 -2.5030 0.9739
6.0005 -1.1812 -2.5030 0.9739
6.0389 -0.9658 -2.5030 0.9739
6.0696 -0.7493 -2.5030 0.9739
6.0925 -0.5317 -2.5030 0.9739
6.1077 -0.3135 -2.5030 0.9739
6.1150 -0.0949 -2.5030 0.9739
6.1144 0.1238 -2.5030 0.9739
6.1061 0.3424 -2.5030 0.9739
6.0660 0.7780 -2.5030 0.9739
6.0343 0.9944 -2.5030 0.9739
5.9948 1.2095 -2.5030 0.9739
5.8307 1.8446 -2.5029 0.9739
5.7610 2.0519 -2.5029 0.9739
5.6839 2.2566 -2.5029 0.9739
5.3039 3.0439 -2.5028 0.9739
4.6776 3.9387 -2.5027 0.9739
4.5337 4.1034 -2.5027 0.9739
4.3841 4.2628 -2.5026 0.9739
4.2287 4.4168 -2.5026 0.9739
3.9021 4.7076 -2.5026 0.9739
3.5555 4.9744 -2.5025 0.9739
3.3754 5.0982 -2.5024 0.9739
5.2692 -2.2837 -2.5028 0.9753
5.4190 -1.9013 -2.5029 0.9753
5.6710 -0.9070 -2.5029 0.9753
5.7213 -0.4993 -2.5029 0.9753
5.7355 -0.2944 -2.5029 0.9753
5.6296 1.1358 -2.5029 0.9753
5.4100 1.9269 -2.5029 0.9753
5.2584 2.3086 -2.5028 0.9753
5.1724 2.4952 -2.5028 0.9753
5.0798 2.6785 -2.5028 0.9753
4.9807 2.8584 -2.5028 0.9753
4.8753 3.0347 -2.5027 0.9753
4.5221 3.5393 -2.5027 0.9753
4.3926 3.6987 -2.5026 0.9753
4.2575 3.8534 -2.5026 0.9753
4.1170 4.0031 -2.5026 0.9753
3.9711 4.1477 -2.5026 0.9753
3.6644 4.4208 -2.5025 0.9753
3.5039 4.5490 -2.5025 0.9753
3.3390 4.6713 -2.5024 0.9753
3.1697 4.7877 -2.5024 0.9753
2.9965 4.8979 -2.5024 0.9753
5.0348 -1.9713 -2.5028 0.9764
5.1021 -1.7900 -2.5028 0.9764
5.2170 -1.4208 -2.5028 0.9764
5.2645 -1.2333 -2.5028 0.9764
5.3052 -1.0443 -2.5028 0.9764
5.3392 -0.8539 -2.5028 0.9764
5.3663 -0.6624 -2.5028 0.9764
5.3866 -0.4701 -2.5028 0.9764
5.4064 -0.0839 -2.5029 0.9764
5.3843 0.4956 -2.5028 0.9764
5.2586 1.2582 -2.5028 0.9764
5.2102 1.4455 -2.5028 0.9764
5.1552 1.6309 -2.5028 0.9764
5.0935 1.8142 -2.5028 0.9764
4.9508 2.1736 -2.5028 0.9764
4.7827 2.5218 -2.5027 0.9764
4.4850 3.0195 -2.5027 0.9765
4.3741 3.1779 -2.5026 0.9765
4.2576 3.3322 -2.5026 0.9765
4.1357 3.4823 -2.5026 0.9765
2.9844 4.5076 -2.5024 0.9765
2.8212 4.6114 -2.5023 0.9765
4.7510 -1.8602 -2.5027 0.9775
4.8145 -1.6891 -2.5027 0.9775
4.8719 -1.5159 -2.5027 0.9775
4.9677 -1.1638 -2.5028 0.9775
5.0062 -0.9854 -2.5028 0.9775
5.0382 -0.8058 -2.5028 0.9775
5.0830 -0.4436 -2.5028 0.9775
5.0956 -0.2616 -2.5028 0.9775
5.0608 0.6491 -2.5028 0.9775
4.9622 1.1873 -2.5028 0.9775
4.8064 1.7119 -2.5027 0.9775
4.7421 1.8827 -2.5027 0.9775
4.6717 2.0510 -2.5027 0.9775
4.4251 2.5395 -2.5027 0.9775
4.3314 2.6961 -2.5026 0.9775
3.9026 3.2861 -2.5026 0.9775
3.7826 3.4235 -2.5025 0.9775
3.5281 3.6850 -2.5025 0.9775
3.3940 3.8088 -2.5025 0.9775
3.2556 3.9277 -2.5024 0.9775
3.1130 4.0415 -2.5024 0.9775
2.9665 4.1502 -2.5024 0.9775
2.8162 4.2536 -2.5023 0.9775
2.6622 4.3515 -2.5023 0.9775
4.5522 -1.5971 -2.5027 0.9785
4.7637 -0.7619 -2.5027 0.9785
4.8233 0.0977 -2.5027 0.9785
4.8167 0.2701 -2.5027 0.9785
4.8040 0.4422 -2.5027 0.9785
4.7601 0.7844 -2.5027 0.9785
4.7290 0.9541 -2.5027 0.9785
4.6486 1.2897 -2.5027 0.9785
4.4837 1.7801 -2.5027 0.9785
4.2672 2.2500 -2.5026 0.9785
4.1840 2.4012 -2.5026 0.9785
4.0954 2.5492 -2.5026 0.9785
3.5765 3.2370 -2.5025 0.9785
3.3359 3.4842 -2.5024 0.9785
3.2091 3.6013 -2.5024 0.9785
3.0783 3.7137 -2.5024 0.9785
2.9435 3.8213 -2.5024 0.9785
2.8049 3.9241 -2.5023 0.9785
2.6628 4.0219 -2.5023 0.9785
4.4088 -1.2007 -2.5027 0.9794
4.5121 -0.7216 -2.5027 0.9794
4.5350 -0.5598 -2.5027 0.9794
4.5685 0.0925 -2.5027 0.9794
4.5502 0.4188 -2.5027 0.9794
4.5086 0.7430 -2.5027 0.9794
4.4439 1.0633 -2.5027 0.9794
4.4030 1.2216 -2.5027 0.9794
4.3045 1.5331 -2.5026 0.9794
4.2469 1.6861 -2.5026 0.9794
4.1838 1.8368 -2.5026 0.9794
4.0418 2.1312 -2.5026 0.9794
3.9629 2.2743 -2.5026 0.9794
3.7902 2.5517 -2.5025 0.9794
3.5981 2.8161 -2.5025 0.9794
3.3876 3.0660 -2.5024 0.9794
3.2757 3.1851 -2.5024 0.9794
2.7880 3.6195 -2.5023 0.9794
2.6567 3.7169 -2.5023 0.9794
2.5221 3.8095 -2.5023 0.9794
3.9771 -1.7237 -2.5026 0.9802
4.0363 -1.5804 -2.5026 0.9802
4.0902 -1.4350 -2.5026 0.9802
4.1389 -1.2878 -2.5026 0.9802
4.1823 -1.1390 -2.5026 0.9802
4.2204 -0.9887 -2.5026 0.9802
4.2530 -0.8372 -2.5026 0.9802
4.3290 -0.2222 -2.5026 0.9802
4.3342 -0.0673 -2.5026 0.9802
4.3338 0.0878 -2.5026 0.9802
4.3165 0.3973 -2.5026 0.9802
4.2995 0.5514 -2.5026 0.9802
4.2770 0.7048 -2.5026 0.9802
4.2491 0.8573 -2.5026 0.9802
4.2157 1.0087 -2.5026 0.9802
3.9689 1.7425 -2.5026 0.9802
3.8342 2.0217 -2.5025 0.9802
3.7594 2.1575 -2.5025 0.9802
3.5955 2.4207 -2.5025 0.9802
3.5067 2.5477 -2.5025 0.9802
3.4133 2.6714 -2.5025 0.9802
3.3155 2.7917 -2.5024 0.9802
2.9974 3.1307 -2.5024 0.9802
2.8835 3.2359 -2.5023 0.9802
2.7659 3.3369 -2.5023 0.9802
2.6448 3.4336 -2.5023 0.9802
