ply
format ascii 1.0
element vertex 535
property float32 x
property float32 y
property float32 z
property float32 I
end_header
20.0709 -42.4780 8.2840 0.8263
22.2550 -43.0216 8.5407 0.8214
22.2174 -39.4070 7.9768 0.8321
24.4704 -39.9703 8.2637 0.8267
24.5955 -37.1074 7.8498 0.8346
26.5545 -37.0927 8.0437 0.8309
11.7838 -17.7784 3.2675 0.9173
20.0321 -25.9558 5.0228 0.8757
22.0016 -35.9379 5.4872 0.8437
19.5809 -41.4411 4.9218 0.8316
22.6960 -34.2417 4.4113 0.8477
19.2006 -44.7355 4.1210 0.8225
18.6593 -39.4905 3.6974 0.8392
19.4528 -34.5035 3.3530 0.8530
22.3977 -33.7917 3.4319 0.8498
19.7182 -23.7324 2.6120 0.8835
19.3097 -37.3282 2.6061 0.8450
19.4526 -34.5032 2.4562 0.8532
22.3977 -33.7917 2.5139 0.8500
19.4740 -25.2326 1.9765 0.8801
19.4524 -34.5029 1.5618 0.8534
20.7117 -33.8308 1.5641 0.8532
22.3977 -33.7917 1.5986 0.8502
18.7261 -26.1577 1.2685 0.8792
19.4773 -25.2369 1.2570 0.8802
19.2000 -44.7341 0.8223 0.8230
19.0954 -40.4135 0.7550 0.8363
19.0218 -33.7390 0.6543 0.8565
18.2529 -23.6505 0.5046 0.8873
18.1661 -21.8643 0.4802 0.8925
19.1468 -44.6102 -0.2733 0.8235
19.3791 -37.4624 -0.2375 0.8448
20.7117 -33.8308 -0.2233 0.8533
22.3977 -33.7917 -0.2283 0.8503
18.7259 -26.1573 -0.1811 0.8793
19.7177 -23.7318 -0.1737 0.8839
19.1996 -44.7331 -1.3707 0.8230
18.0149 -34.8252 -1.1040 0.8548
19.4520 -34.5021 -1.1153 0.8534
20.6615 -33.7489 -1.1142 0.8536
17.9788 -27.1248 -0.9163 0.8779
18.3118 -25.5790 -0.8858 0.8817
-32.5750 -32.8001 -2.3444 0.8310
-24.7966 -39.0229 -2.3448 0.8310
-21.9357 -40.7217 -2.3457 0.8309
-17.4328 -42.8772 -2.3473 0.8308
-14.3118 -44.0412 -2.3485 0.8307
-12.7101 -44.4992 -2.3470 0.8308
-10.0952 -48.2489 -2.4999 0.8208
-8.3540 -48.5871 -2.5002 0.8208
-3.0721 -49.2240 -2.5012 0.8208
-1.2995 -49.3092 -2.5015 0.8207
0.4752 -49.3309 -2.5019 0.8207
2.2498 -49.2883 -2.5022 0.8207
7.5498 -48.7787 -2.5032 0.8206
9.3009 -48.4819 -2.5036 0.8206
11.0404 -48.1223 -2.5039 0.8206
13.5937 -44.3399 -2.3520 0.8305
16.7509 -43.2587 -2.3526 0.8304
17.2558 -40.2043 -2.2188 0.8393
17.3998 -36.8250 -2.0655 0.8495
19.4907 -25.2542 -1.6178 0.8801
-22.5650 -22.7209 -2.3479 0.8795
-21.7353 -23.5204 -2.3482 0.8795
-17.1863 -27.0465 -2.3496 0.8794
-16.2045 -27.6512 -2.3499 0.8794
-13.1143 -29.1983 -2.3469 0.8795
-12.0564 -29.6537 -2.3471 0.8795
-11.3072 -30.9589 -2.4166 0.8762
-10.5367 -32.4243 -2.4998 0.8722
-9.3643 -32.7852 -2.5000 0.8722
-6.9840 -33.3797 -2.5005 0.8722
-4.5668 -33.8016 -2.5009 0.8721
-3.3482 -33.9472 -2.5012 0.8721
-2.1250 -34.0488 -2.5014 0.8721
-0.8988 -34.1064 -2.5016 0.8721
0.3287 -34.1198 -2.5019 0.8721
1.5560 -34.0891 -2.5021 0.8721
2.7816 -34.0142 -2.5023 0.8721
5.2210 -33.7323 -2.5028 0.8721
10.0088 -32.6465 -2.5037 0.8720
11.1777 -32.2683 -2.5039 0.8720
12.1009 -31.2504 -2.4571 0.8742
12.6506 -29.4745 -2.3518 0.8793
13.7039 -29.0028 -2.3520 0.8793
15.7563 -27.9470 -2.3524 0.8793
16.7528 -27.3643 -2.3526 0.8793
18.0863 -25.2639 -2.2782 0.8828
-15.9637 -18.5729 -2.3512 0.9063
-13.8741 -20.1908 -2.3519 0.9062
-13.1107 -20.6326 -2.3469 0.9064
-11.5946 -21.5245 -2.3472 0.9064
-11.3041 -22.9239 -2.4538 0.9024
-9.8074 -24.1221 -2.4999 0.9007
-8.0488 -24.7681 -2.5003 0.9006
-7.1530 -25.0433 -2.5004 0.9006
-3.4881 -25.8175 -2.5011 0.9006
-2.5572 -25.9281 -2.5013 0.9006
-1.6230 -26.0052 -2.5015 0.9006
2.1243 -25.9765 -2.5022 0.9006
3.0576 -25.8851 -2.5024 0.9006
7.6427 -24.9288 -2.5032 0.9005
8.5351 -24.6394 -2.5034 0.9005
9.4166 -24.3180 -2.5036 0.9005
11.1421 -23.5811 -2.5039 0.9005
11.9840 -23.1665 -2.5041 0.9005
12.1129 -21.4846 -2.3679 0.9056
12.7906 -20.8924 -2.3518 0.9063
13.5347 -20.4199 -2.3519 0.9062
14.2614 -19.9211 -2.3521 0.9062
14.9696 -19.3962 -2.3522 0.9062
-14.8246 -14.9270 -2.4990 0.9187
-14.2786 -15.4513 -2.4991 0.9187
-13.6065 -15.8304 -2.4796 0.9194
-13.0031 -16.2782 -2.4748 0.9195
-12.4648 -16.8105 -2.4859 0.9192
-9.3081 -18.8762 -2.5000 0.9187
-8.6235 -19.1999 -2.5002 0.9187
-6.5059 -20.0204 -2.5006 0.9187
-5.7818 -20.2426 -2.5007 0.9187
-3.5679 -20.7511 -2.5011 0.9187
-2.8193 -20.8672 -2.5013 0.9187
0.2029 -21.0607 -2.5018 0.9187
0.9605 -21.0409 -2.5020 0.9187
1.7168 -20.9940 -2.5021 0.9187
2.4711 -20.9198 -2.5023 0.9186
3.9693 -20.6903 -2.5025 0.9186
4.7113 -20.5353 -2.5027 0.9186
5.4473 -20.3537 -2.5028 0.9186
6.1763 -20.1456 -2.5030 0.9186
6.8974 -19.9115 -2.5031 0.9186
7.6096 -19.6516 -2.5032 0.9186
9.6840 -18.7203 -2.5036 0.9186
12.0922 -16.8911 -2.4676 0.9197
12.6525 -15.2281 -2.3518 0.9233
-11.4992 -13.3787 -2.4996 0.9312
-7.8044 -15.8268 -2.5003 0.9312
-6.6468 -16.3484 -2.5005 0.9312
-4.2340 -17.1358 -2.5010 0.9312
-2.9913 -17.3976 -2.5012 0.9312
-1.7328 -17.5693 -2.5015 0.9312
-1.0997 -17.6211 -2.5016 0.9312
0.8052 -17.6396 -2.5019 0.9311
2.7013 -17.4527 -2.5023 0.9311
3.3275 -17.3450 -2.5024 0.9311
3.9495 -17.2149 -2.5025 0.9311
5.1775 -16.8879 -2.5028 0.9311
5.7820 -16.6915 -2.5029 0.9311
9.2257 -15.0694 -2.5035 0.9311
9.7622 -14.7284 -2.5036 0.9311
10.2862 -14.3682 -2.5037 0.9311
-10.6926 -10.7666 -2.4998 0.9403
-10.2987 -11.1446 -2.4998 0.9403
-8.5949 -12.5081 -2.5002 0.9403
-8.1397 -12.8096 -2.5002 0.9403
-7.6739 -13.0946 -2.5003 0.9403
-6.7130 -13.6135 -2.5005 0.9403
-6.2191 -13.8467 -2.5006 0.9403
-5.7172 -14.0620 -2.5007 0.9403
-5.2079 -14.2591 -2.5008 0.9403
-4.1695 -14.5978 -2.5010 0.9403
-3.6418 -14.7389 -2.5011 0.9403
-2.5729 -14.9638 -2.5013 0.9403
-0.9458 -15.1558 -2.5016 0.9403
-0.4001 -15.1806 -2.5017 0.9403
0.6926 -15.1713 -2.5019 0.9403
1.2379 -15.1372 -2.5020 0.9403
2.8618 -14.9176 -2.5023 0.9403
3.9273 -14.6744 -2.5025 0.9403
4.9727 -14.3552 -2.5027 0.9403
5.9924 -13.9616 -2.5029 0.9403
9.2850 -12.0307 -2.5035 0.9403
-8.3019 -10.3930 -2.5002 0.9473
-7.9229 -10.6852 -2.5003 0.9473
-7.5337 -10.9637 -2.5004 0.9473
-6.7263 -11.4777 -2.5005 0.9473
-3.1920 -12.9184 -2.5012 0.9473
-2.2550 -13.1154 -2.5014 0.9473
-1.7819 -13.1885 -2.5014 0.9473
-1.3063 -13.2446 -2.5015 0.9473
-0.3507 -13.3052 -2.5017 0.9473
0.6070 -13.2969 -2.5019 0.9473
2.0362 -13.1555 -2.5022 0.9473
2.5083 -13.0743 -2.5023 0.9473
2.9770 -12.9760 -2.5023 0.9473
3.4420 -12.8610 -2.5024 0.9473
3.9026 -12.7293 -2.5025 0.9473
4.3581 -12.5811 -2.5026 0.9473
4.8080 -12.4166 -2.5027 0.9472
5.2518 -12.2360 -2.5028 0.9472
5.6887 -12.0396 -2.5029 0.9472
8.1372 -10.5434 -2.5033 0.9472
8.5115 -10.2442 -2.5034 0.9472
-8.3348 -8.3924 -2.5002 0.9528
-7.7102 -8.9704 -2.5003 0.9528
-7.3827 -9.2422 -2.5004 0.9528
-7.0456 -9.5020 -2.5005 0.9528
-6.6994 -9.7496 -2.5005 0.9528
-5.9814 -10.2066 -2.5007 0.9528
-4.0591 -11.1138 -2.5010 0.9528
-3.6568 -11.2530 -2.5011 0.9528
-2.4234 -11.5825 -2.5013 0.9528
-0.3118 -11.8311 -2.5017 0.9528
0.1141 -11.8350 -2.5018 0.9528
0.5397 -11.8237 -2.5019 0.9528
0.9647 -11.7970 -2.5020 0.9528
1.3886 -11.7550 -2.5020 0.9528
2.6471 -11.5381 -2.5023 0.9528
3.0605 -11.4358 -2.5024 0.9528
3.4701 -11.3186 -2.5024 0.9528
3.8751 -11.1868 -2.5025 0.9528
4.2752 -11.0405 -2.5026 0.9527
4.6697 -10.8799 -2.5027 0.9527
5.4402 -10.5166 -2.5028 0.9527
5.8152 -10.3144 -2.5029 0.9527
6.1826 -10.0988 -2.5030 0.9527
6.5421 -9.8701 -2.5030 0.9527
6.8931 -9.6286 -2.5031 0.9527
-7.4968 -7.5486 -2.5004 0.9572
-6.9349 -8.0685 -2.5005 0.9572
-6.6404 -8.3129 -2.5005 0.9572
-5.0463 -9.3681 -2.5008 0.9572
-4.7061 -9.5438 -2.5009 0.9572
-4.3599 -9.7072 -2.5010 0.9572
-3.2890 -10.1212 -2.5012 0.9572
-2.1796 -10.4175 -2.5014 0.9572
-1.8036 -10.4895 -2.5014 0.9572
-0.6630 -10.6237 -2.5017 0.9572
-0.2804 -10.6409 -2.5017 0.9572
0.8677 -10.6101 -2.5019 0.9572
1.2488 -10.5724 -2.5020 0.9572
2.3808 -10.3772 -2.5022 0.9572
2.7526 -10.2851 -2.5023 0.9572
4.1998 -9.7850 -2.5026 0.9572
4.5492 -9.6279 -2.5026 0.9572
5.8837 -8.8767 -2.5029 0.9572
6.5070 -8.4311 -2.5030 0.9572
6.8062 -8.1918 -2.5031 0.9572
-5.7526 -7.7582 -2.5007 0.9609
-4.8836 -8.3333 -2.5009 0.9609
-4.5808 -8.5038 -2.5009 0.9609
-3.6382 -8.9485 -2.5011 0.9609
-2.9855 -9.1874 -2.5012 0.9609
-2.6531 -9.2890 -2.5013 0.9609
-2.3174 -9.3787 -2.5013 0.9609
-1.9785 -9.4563 -2.5014 0.9609
-1.6371 -9.5215 -2.5015 0.9609
-0.6018 -9.6433 -2.5017 0.9609
-0.2546 -9.6589 -2.5017 0.9609
0.0931 -9.6621 -2.5018 0.9609
0.4406 -9.6527 -2.5019 0.9609
0.7876 -9.6309 -2.5019 0.9609
1.1336 -9.5966 -2.5020 0.9609
1.8207 -9.4907 -2.5021 0.9609
2.1611 -9.4193 -2.5022 0.9609
2.4986 -9.3357 -2.5023 0.9609
3.4900 -9.0129 -2.5024 0.9609
4.1293 -8.7391 -2.5026 0.9609
4.4411 -8.5851 -2.5026 0.9608
5.6270 -7.8600 -2.5028 0.9608
5.9062 -7.6527 -2.5029 0.9608
-6.2244 -6.2674 -2.5006 0.9639
-5.9950 -6.4874 -2.5006 0.9639
-4.7379 -7.4562 -2.5009 0.9639
-4.1897 -7.7779 -2.5010 0.9639
-3.9073 -7.9237 -2.5010 0.9639
-3.0311 -8.2991 -2.5012 0.9639
-2.7306 -8.4029 -2.5013 0.9639
-2.4266 -8.4959 -2.5013 0.9639
-2.1195 -8.5779 -2.5014 0.9639
-1.8096 -8.6488 -2.5014 0.9639
-1.4973 -8.7085 -2.5015 0.9639
-1.1831 -8.7570 -2.5016 0.9639
-0.8673 -8.7941 -2.5016 0.9639
-0.5504 -8.8198 -2.5017 0.9639
-0.2328 -8.8341 -2.5017 0.9639
1.0368 -8.7770 -2.5020 0.9639
1.6653 -8.6802 -2.5021 0.9639
1.9765 -8.6148 -2.5022 0.9639
2.2851 -8.5384 -2.5022 0.9639
2.5909 -8.4508 -2.5023 0.9639
3.4865 -8.1231 -2.5024 0.9639
3.7765 -7.9926 -2.5025 0.9639
4.0617 -7.8517 -2.5026 0.9639
4.3418 -7.7009 -2.5026 0.9639
4.6159 -7.5397 -2.5027 0.9639
4.8842 -7.3689 -2.5027 0.9639
5.6500 -6.8002 -2.5029 0.9639
-5.5180 -5.9712 -2.5007 0.9665
-5.2997 -6.1659 -2.5008 0.9665
-5.0745 -6.3527 -2.5008 0.9665
-4.8428 -6.5312 -2.5009 0.9665
-4.6048 -6.7014 -2.5009 0.9665
-4.1112 -7.0154 -2.5010 0.9665
-3.8563 -7.1589 -2.5011 0.9665
-3.5963 -7.2931 -2.5011 0.9665
-3.3317 -7.4179 -2.5012 0.9665
-3.0627 -7.5331 -2.5012 0.9665
-2.7898 -7.6386 -2.5013 0.9665
-2.5133 -7.7341 -2.5013 0.9665
-1.9508 -7.8952 -2.5014 0.9665
-1.3781 -8.0153 -2.5015 0.9665
-1.0889 -8.0599 -2.5016 0.9665
-0.7983 -8.0941 -2.5016 0.9665
0.0784 -8.1335 -2.5018 0.9665
0.9543 -8.0782 -2.5020 0.9665
2.1032 -7.8585 -2.5022 0.9665
2.3846 -7.7780 -2.5022 0.9665
2.6629 -7.6873 -2.5023 0.9665
3.2089 -7.4762 -2.5024 0.9665
3.4758 -7.3561 -2.5024 0.9665
3.9959 -7.0875 -2.5025 0.9665
4.2484 -6.9393 -2.5026 0.9665
4.9715 -6.4415 -2.5027 0.9665
5.2001 -6.2586 -2.5028 0.9665
-5.3014 -5.3380 -2.5008 0.9688
-5.1060 -5.5254 -2.5008 0.9688
-4.9040 -5.7056 -2.5009 0.9688
-4.6956 -5.8784 -2.5009 0.9688
-4.4812 -6.0436 -2.5009 0.9688
-4.0352 -6.3504 -2.5010 0.9688
-3.8042 -6.4916 -2.5011 0.9688
-3.5683 -6.6243 -2.5011 0.9688
-3.3278 -6.7485 -2.5012 0.9688
-3.0829 -6.8640 -2.5012 0.9688
-2.0667 -7.2358 -2.5014 0.9688
-1.8051 -7.3056 -2.5014 0.9688
-1.2752 -7.4168 -2.5015 0.9688
-1.0076 -7.4580 -2.5016 0.9688
0.0725 -7.5260 -2.5018 0.9688
0.6135 -7.5016 -2.5019 0.9688
1.1513 -7.4384 -2.5020 0.9688
1.4182 -7.3923 -2.5021 0.9688
2.4640 -7.1130 -2.5022 0.9688
2.7183 -7.0199 -2.5023 0.9688
3.4590 -6.6866 -2.5024 0.9688
3.6974 -6.5580 -2.5025 0.9688
4.1595 -6.2754 -2.5026 0.9688
4.3826 -6.1218 -2.5026 0.9688
4.8115 -5.7910 -2.5027 0.9688
-4.5585 -5.3036 -2.5009 0.9707
-2.3996 -6.5701 -2.5013 0.9707
-1.9211 -6.7259 -2.5014 0.9707
-1.6779 -6.7908 -2.5015 0.9707
-0.9366 -6.9324 -2.5016 0.9707
-0.6866 -6.9618 -2.5017 0.9707
0.0674 -6.9956 -2.5018 0.9707
0.3190 -6.9888 -2.5018 0.9707
1.3182 -6.8713 -2.5020 0.9707
1.5646 -6.8196 -2.5021 0.9707
2.0509 -6.6896 -2.5022 0.9707
2.2903 -6.6117 -2.5022 0.9707
2.5267 -6.5251 -2.5023 0.9707
3.2152 -6.2153 -2.5024 0.9707
3.8662 -5.8330 -2.5025 0.9707
4.2757 -5.5401 -2.5026 0.9707
-4.4292 -4.7930 -2.5009 0.9724
-4.0732 -5.0992 -2.5010 0.9724
-3.6962 -5.3790 -2.5011 0.9724
-3.5003 -5.5086 -2.5011 0.9724
-2.4583 -6.0465 -2.5013 0.9724
-1.5658 -6.3370 -2.5015 0.9724
-1.1061 -6.4334 -2.5016 0.9724
-0.8740 -6.4691 -2.5016 0.9724
-0.4066 -6.5155 -2.5017 0.9724
-0.1719 -6.5260 -2.5018 0.9724
0.2977 -6.5217 -2.5018 0.9724
0.5321 -6.5069 -2.5019 0.9724
0.9987 -6.4520 -2.5020 0.9724
1.2301 -6.4120 -2.5020 0.9724
1.4600 -6.3637 -2.5021 0.9724
2.1372 -6.1697 -2.5022 0.9724
3.2070 -5.6882 -2.5024 0.9724
3.6078 -5.4430 -2.5025 0.9724
4.1734 -5.0229 -2.5026 0.9724
-4.3060 -4.3358 -2.5010 0.9739
-3.9832 -4.6343 -2.5010 0.9739
-3.6398 -4.9088 -2.5011 0.9739
-3.4609 -5.0367 -2.5011 0.9739
-2.3018 -5.6616 -2.5013 0.9739
-2.0967 -5.7408 -2.5014 0.9739
-1.8889 -5.8126 -2.5014 0.9739
-1.6786 -5.8769 -2.5015 0.9739
-1.2517 -5.9826 -2.5015 0.9739
-1.0357 -6.0238 -2.5016 0.9739
-0.8184 -6.0573 -2.5016 0.9739
-0.6000 -6.0829 -2.5017 0.9739
0.2788 -6.1065 -2.5018 0.9739
1.1518 -6.0038 -2.5020 0.9739
1.3671 -5.9586 -2.5020 0.9739
1.7920 -5.8450 -2.5021 0.9739
2.4114 -5.6182 -2.5022 0.9739
2.6120 -5.5279 -2.5023 0.9739
3.3781 -5.0964 -2.5024 0.9739
3.5592 -4.9717 -2.5025 0.9739
3.9076 -4.7030 -2.5025 0.9739
-4.0439 -4.0718 -2.5010 0.9753
-3.4182 -4.6099 -2.5011 0.9753
-3.2502 -4.7300 -2.5012 0.9753
-2.7218 -5.0528 -2.5013 0.9753
-2.5383 -5.1475 -2.5013 0.9753
-2.3515 -5.2356 -2.5013 0.9753
-1.7738 -5.4587 -2.5014 0.9753
-1.5764 -5.5191 -2.5015 0.9753
-1.3768 -5.5723 -2.5015 0.9753
-1.1755 -5.6183 -2.5016 0.9753
-0.9726 -5.6570 -2.5016 0.9753
-0.3575 -5.7292 -2.5017 0.9753
0.4679 -5.7216 -2.5019 0.9753
1.0817 -5.6381 -2.5020 0.9753
1.4843 -5.5459 -2.5021 0.9753
2.0732 -5.3540 -2.5022 0.9753
2.4528 -5.1912 -2.5022 0.9753
2.6381 -5.0997 -2.5023 0.9753
2.9980 -4.8969 -2.5024 0.9753
3.1722 -4.7860 -2.5024 0.9753
3.5083 -4.5456 -2.5024 0.9753
3.6696 -4.4165 -2.5025 0.9753
-3.8074 -3.8338 -2.5011 0.9765
-3.0602 -4.4535 -2.5012 0.9765
-2.8980 -4.5607 -2.5012 0.9765
-2.7321 -4.6621 -2.5013 0.9765
-2.3899 -4.8466 -2.5013 0.9765
-1.8539 -5.0760 -2.5014 0.9765
-1.6701 -5.1395 -2.5015 0.9765
-1.4842 -5.1963 -2.5015 0.9765
-1.2963 -5.2464 -2.5015 0.9765
-1.1067 -5.2898 -2.5016 0.9765
-0.9157 -5.3262 -2.5016 0.9765
-0.7236 -5.3558 -2.5016 0.9765
-0.5304 -5.3785 -2.5017 0.9765
-0.3366 -5.3941 -2.5017 0.9765
-0.1423 -5.4028 -2.5018 0.9765
0.0521 -5.4046 -2.5018 0.9765
0.2465 -5.3992 -2.5018 0.9765
0.4406 -5.3870 -2.5019 0.9765
0.8268 -5.3415 -2.5019 0.9765
1.5844 -5.1680 -2.5021 0.9765
1.7694 -5.1078 -2.5021 0.9765
2.3095 -4.8876 -2.5022 0.9765
2.8227 -4.6105 -2.5023 0.9765
2.9867 -4.5061 -2.5023 0.9765
3.1469 -4.3957 -2.5024 0.9765
3.3031 -4.2797 -2.5024 0.9765
3.4549 -4.1582 -2.5024 0.9765
-3.5930 -3.6178 -2.5011 0.9775
-3.4605 -3.7448 -2.5011 0.9775
-3.3236 -3.8669 -2.5012 0.9775
-3.0370 -4.0959 -2.5012 0.9775
-2.8878 -4.2026 -2.5012 0.9775
-2.5782 -4.3995 -2.5013 0.9775
-2.4183 -4.4894 -2.5013 0.9775
-2.2553 -4.5735 -2.5014 0.9775
-1.9206 -4.7240 -2.5014 0.9775
-1.4005 -4.9036 -2.5015 0.9775
-1.2233 -4.9509 -2.5016 0.9775
-0.3176 -5.0902 -2.5017 0.9775
0.2326 -5.0950 -2.5018 0.9775
0.5983 -5.0653 -2.5019 0.9775
1.1405 -4.9715 -2.5020 0.9775
1.3188 -4.9274 -2.5020 0.9775
1.4952 -4.8768 -2.5021 0.9775
1.8419 -4.7568 -2.5021 0.9775
2.6636 -4.3507 -2.5023 0.9775
2.8184 -4.2521 -2.5023 0.9775
3.1169 -4.0386 -2.5024 0.9775
-3.3973 -3.4208 -2.5011 0.9785
-3.0091 -3.7670 -2.5012 0.9785
-2.8717 -3.8729 -2.5012 0.9785
-2.7305 -3.9737 -2.5013 0.9785
-2.1324 -4.3245 -2.5014 0.9785
-1.9755 -4.3984 -2.5014 0.9785
-1.6542 -4.5292 -2.5015 0.9785
-1.4902 -4.5858 -2.5015 0.9785
-1.1566 -4.6812 -2.5016 0.9785
-0.9875 -4.7199 -2.5016 0.9785
0.2199 -4.8175 -2.5018 0.9785
0.5657 -4.7893 -2.5019 0.9785
0.9088 -4.7365 -2.5020 0.9785
1.4137 -4.6112 -2.5021 0.9785
1.5787 -4.5574 -2.5021 0.9785
1.9023 -4.4321 -2.5021 0.9785
2.0606 -4.3609 -2.5022 0.9785
2.2161 -4.2840 -2.5022 0.9785
2.5185 -4.1137 -2.5023 0.9785
2.9471 -3.8185 -2.5023 0.9785
-3.2179 -3.2402 -2.5012 0.9794
-2.9767 -3.4633 -2.5012 0.9794
-2.8502 -3.5681 -2.5012 0.9794
-2.7201 -3.6684 -2.5013 0.9794
-2.5863 -3.7639 -2.5013 0.9794
-2.4493 -3.8546 -2.5013 0.9794
-2.0198 -4.0961 -2.5014 0.9794
-1.8712 -4.1662 -2.5014 0.9794
-1.7201 -4.2309 -2.5015 0.9794
-0.9354 -4.4706 -2.5016 0.9794
-0.7739 -4.5014 -2.5016 0.9794
-0.4483 -4.5456 -2.5017 0.9794
0.5359 -4.5364 -2.5019 0.9794
0.6989 -4.5144 -2.5019 0.9794
0.8606 -4.4863 -2.5019 0.9794
1.0215 -4.4524 -2.5020 0.9794
1.1811 -4.4129 -2.5020 0.9794
1.3391 -4.3676 -2.5020 0.9794
1.6497 -4.2602 -2.5021 0.9794
1.9517 -4.1306 -2.5022 0.9794
2.0991 -4.0577 -2.5022 0.9794
2.2437 -3.9796 -2.5022 0.9794
2.3854 -3.8964 -2.5022 0.9794
2.6595 -3.7149 -2.5023 0.9794
2.9197 -3.5141 -2.5023 0.9794
-3.0528 -3.0739 -2.5012 0.9802
-2.9402 -3.1817 -2.5012 0.9802
-2.8239 -3.2855 -2.5012 0.9802
-2.5804 -3.4801 -2.5013 0.9802
-2.3236 -3.6567 -2.5013 0.9802
-2.0546 -3.8144 -2.5014 0.9802
-1.7751 -3.9523 -2.5014 0.9802
-1.6318 -4.0136 -2.5015 0.9802
-1.4864 -4.0698 -2.5015 0.9802
-1.1899 -4.1662 -2.5016 0.9802
-1.0393 -4.2064 -2.5016 0.9802
-0.5801 -4.2940 -2.5017 0.9802
-0.4253 -4.3122 -2.5017 0.9802
-0.2699 -4.3247 -2.5017 0.9802
-0.1141 -4.3317 -2.5018 0.9802
0.0418 -4.3330 -2.5018 0.9802
0.1976 -4.3288 -2.5018 0.9802
0.9691 -4.2238 -2.5020 0.9802
1.1204 -4.1862 -2.5020 0.9802
1.7093 -3.9825 -2.5021 0.9802
1.8515 -3.9184 -2.5021 0.9802
2.1285 -3.7753 -2.5022 0.9802
2.3945 -3.6125 -2.5022 0.9802
2.5229 -3.5241 -2.5023 0.9802
