ply
format ascii 1.0
element vertex 470
property float32 x
property float32 y
property float32 z
property float32 I
end_header
-47.6724 -11.9821 -2.4929 0.8213
-47.2144 -13.6820 -2.4930 0.8213
-46.1876 -15.1972 -2.4659 0.8230
-39.8017 -23.4689 -2.3433 0.8311
-38.9384 -24.8808 -2.3434 0.8310
-33.8924 -31.4267 -2.3440 0.8310
-32.7464 -32.6213 -2.3441 0.8310
-31.5582 -33.7739 -2.3442 0.8310
-26.4169 -37.9395 -2.3445 0.8310
-25.0462 -38.8685 -2.3450 0.8309
-23.6430 -39.7484 -2.3455 0.8309
-19.2563 -42.0818 -2.3470 0.8308
-17.7413 -42.7543 -2.3475 0.8308
-16.2028 -43.3725 -2.3481 0.8307
-10.4806 -48.1656 -2.4998 0.8208
-8.7503 -48.5162 -2.5002 0.8208
-5.2568 -49.0308 -2.5008 0.8208
-3.4982 -49.1941 -2.5011 0.8208
-1.7346 -49.2943 -2.5015 0.8207
1.7984 -49.3051 -2.5021 0.8207
-33.0095 -8.2967 -2.4956 0.8724
-32.6921 -9.4737 -2.4957 0.8724
-32.3328 -10.6385 -2.4957 0.8724
-31.9320 -11.7898 -2.4958 0.8724
-28.1031 -15.2419 -2.3441 0.8797
-27.5405 -16.2392 -2.3442 0.8797
-26.9426 -17.2158 -2.3443 0.8796
-24.9756 -20.0336 -2.3476 0.8795
-24.2442 -20.9168 -2.3478 0.8795
-22.6890 -22.6023 -2.3482 0.8795
-21.0175 -24.1733 -2.3487 0.8794
-20.1407 -24.9132 -2.3490 0.8794
-18.3104 -26.2972 -2.3495 0.8794
-15.3911 -28.1208 -2.3505 0.8793
-14.3510 -28.6076 -2.3467 0.8795
-13.3185 -29.1055 -2.3469 0.8795
-11.9299 -31.9345 -2.4996 0.8722
-7.2508 -33.3223 -2.5004 0.8722
-4.8481 -33.7619 -2.5009 0.8721
-3.6364 -33.9169 -2.5011 0.8721
-1.1998 -34.0963 -2.5016 0.8721
0.0219 -34.1206 -2.5018 0.8721
1.2439 -34.1010 -2.5020 0.8721
-25.2252 -6.3402 -2.4971 0.9008
-24.9824 -7.2395 -2.4971 0.9008
-24.7077 -8.1296 -2.4972 0.9008
-24.4013 -9.0094 -2.4972 0.9008
-21.4080 -14.7849 -2.4978 0.9007
-19.0601 -15.2887 -2.3458 0.9065
-18.5014 -15.9621 -2.3459 0.9065
-17.9188 -16.6152 -2.3460 0.9065
-16.7170 -17.8906 -2.3507 0.9063
-14.7096 -19.5905 -2.3519 0.9062
-13.2414 -20.5490 -2.3469 0.9064
-12.4978 -21.0112 -2.3471 0.9064
-12.4010 -22.6577 -2.4797 0.9014
-10.8343 -23.6767 -2.4998 0.9007
-9.9802 -24.0511 -2.4999 0.9007
-9.1131 -24.3946 -2.5001 0.9006
-7.3448 -24.9876 -2.5004 0.9006
-2.7774 -25.9051 -2.5013 0.9006
-1.8481 -25.9898 -2.5014 0.9006
-0.9163 -26.0411 -2.5016 0.9006
0.0167 -26.0590 -2.5018 0.9006
-20.1984 -5.8532 -2.4980 0.9188
-19.9762 -6.5728 -2.4980 0.9188
-19.7284 -7.2841 -2.4981 0.9188
-19.4554 -7.9860 -2.4981 0.9188
-19.1573 -8.6777 -2.4982 0.9188
-18.8348 -9.3584 -2.4983 0.9188
-18.1176 -10.6830 -2.4984 0.9188
-17.3076 -11.9530 -2.4985 0.9188
-16.8691 -12.5655 -2.4986 0.9188
-16.4089 -13.1620 -2.4987 0.9188
-14.9044 -14.8475 -2.4990 0.9187
-13.2279 -16.3623 -2.4993 0.9187
-12.0240 -17.2686 -2.4995 0.9187
-10.7582 -18.0866 -2.4998 0.9187
-10.1041 -18.4612 -2.4999 0.9187
-8.0673 -19.4412 -2.5003 0.9187
-7.3663 -19.7187 -2.5004 0.9187
-6.6559 -19.9709 -2.5005 0.9187
-5.2100 -20.3983 -2.5008 0.9187
-4.4765 -20.5729 -2.5010 0.9187
-3.7372 -20.7211 -2.5011 0.9187
-2.9929 -20.8428 -2.5012 0.9187
-0.7406 -21.0471 -2.5016 0.9187
0.7678 -21.0485 -2.5019 0.9187
-17.1023 -4.2986 -2.4986 0.9312
-16.9376 -4.9082 -2.4986 0.9312
-16.7512 -5.5117 -2.4987 0.9312
-16.5433 -6.1081 -2.4987 0.9312
-16.3143 -6.6967 -2.4987 0.9312
-16.0644 -7.2767 -2.4988 0.9312
-15.7938 -7.8474 -2.4988 0.9312
-14.8622 -9.4966 -2.4990 0.9312
-14.1452 -10.5365 -2.4991 0.9312
-13.3556 -11.5226 -2.4993 0.9312
-12.4974 -12.4497 -2.4994 0.9312
-12.0440 -12.8897 -2.4995 0.9312
-10.0818 -14.4793 -2.4999 0.9312
-8.4719 -15.4789 -2.5002 0.9312
-7.9125 -15.7730 -2.5003 0.9312
-6.7639 -16.3003 -2.5005 0.9312
-6.1761 -16.5327 -2.5006 0.9312
-4.9775 -16.9339 -2.5009 0.9312
-3.1332 -17.3724 -2.5012 0.9312
-1.2523 -17.6107 -2.5016 0.9312
0.0113 -17.6569 -2.5018 0.9312
-14.7120 -3.6978 -2.4990 0.9404
-14.2311 -5.2544 -2.4991 0.9404
-14.0341 -5.7607 -2.4992 0.9404
-13.8190 -6.2596 -2.4992 0.9404
-13.5862 -6.7506 -2.4992 0.9404
-13.3361 -7.2329 -2.4993 0.9404
-12.1678 -9.0636 -2.4995 0.9403
-11.8357 -9.4938 -2.4996 0.9403
-11.4885 -9.9118 -2.4996 0.9403
-11.1265 -10.3171 -2.4997 0.9403
-10.7502 -10.7092 -2.4998 0.9403
-10.3602 -11.0876 -2.4998 0.9403
-8.6721 -12.4547 -2.5002 0.9403
-8.2208 -12.7577 -2.5002 0.9403
-7.2871 -13.3143 -2.5004 0.9403
-6.8060 -13.5672 -2.5005 0.9403
-5.8179 -14.0206 -2.5007 0.9403
-4.2813 -14.5653 -2.5010 0.9403
-3.7571 -14.7098 -2.5011 0.9403
-2.6949 -14.9422 -2.5013 0.9403
-2.1582 -15.0297 -2.5014 0.9403
-1.6187 -15.0980 -2.5015 0.9403
0.0098 -15.1864 -2.5018 0.9403
0.5536 -15.1769 -2.5019 0.9403
-12.7720 -3.7011 -2.4994 0.9473
-12.3018 -5.0496 -2.4995 0.9473
-12.1133 -5.4870 -2.4995 0.9473
-11.6899 -6.3401 -2.4996 0.9473
-11.4556 -6.7547 -2.4996 0.9473
-10.9431 -7.5576 -2.4997 0.9473
-10.6657 -7.9447 -2.4998 0.9473
-10.0702 -8.6881 -2.4999 0.9473
-9.0811 -9.7187 -2.5001 0.9473
-8.7275 -10.0379 -2.5002 0.9473
-7.9871 -10.6374 -2.5003 0.9473
-5.9655 -11.8918 -2.5007 0.9473
-5.0994 -12.2890 -2.5008 0.9473
-4.2071 -12.6233 -2.5010 0.9473
-2.8294 -13.0031 -2.5013 0.9473
-2.3620 -13.0965 -2.5013 0.9473
-1.8916 -13.1731 -2.5014 0.9473
-0.9440 -13.2757 -2.5016 0.9473
-11.4686 -2.8826 -2.4996 0.9528
-11.3581 -3.2914 -2.4997 0.9528
-11.0936 -4.0960 -2.4997 0.9528
-10.9400 -4.4906 -2.4997 0.9528
-10.7723 -4.8796 -2.4998 0.9528
-10.5908 -5.2622 -2.4998 0.9528
-10.1873 -6.0069 -2.4999 0.9528
-9.9659 -6.3680 -2.4999 0.9528
-9.7316 -6.7209 -2.5000 0.9528
-9.4849 -7.0652 -2.5000 0.9528
-9.2260 -7.4004 -2.5001 0.9528
-8.9552 -7.7262 -2.5001 0.9528
-8.6730 -8.0421 -2.5002 0.9528
-8.3797 -8.3477 -2.5002 0.9528
-7.7611 -8.9264 -2.5003 0.9528
-6.0477 -10.1674 -2.5007 0.9528
-4.9229 -10.7583 -2.5009 0.9528
-4.5346 -10.9280 -2.5009 0.9528
-3.3369 -11.3523 -2.5012 0.9528
-2.5160 -11.5627 -2.5013 0.9528
-1.2616 -11.7669 -2.5015 0.9528
-0.8394 -11.8050 -2.5016 0.9528
-0.4161 -11.8278 -2.5017 0.9528
0.0076 -11.8355 -2.5018 0.9528
0.4314 -11.8280 -2.5019 0.9528
-10.3157 -2.5928 -2.4999 0.9572
-10.2163 -2.9606 -2.4999 0.9572
-10.1039 -3.3245 -2.4999 0.9572
-9.9785 -3.6842 -2.4999 0.9572
-9.6894 -4.3890 -2.5000 0.9572
-9.5262 -4.7332 -2.5000 0.9572
-9.1632 -5.4030 -2.5001 0.9572
-8.9640 -5.7278 -2.5001 0.9572
-8.7533 -6.0452 -2.5001 0.9572
-8.5313 -6.3549 -2.5002 0.9572
-7.8011 -7.2335 -2.5003 0.9572
-7.5372 -7.5084 -2.5004 0.9572
-6.6889 -8.2739 -2.5005 0.9572
-6.0799 -8.7318 -2.5006 0.9572
-5.4396 -9.1450 -2.5008 0.9572
-5.1088 -9.3342 -2.5008 0.9572
-4.7713 -9.5114 -2.5009 0.9572
-4.0786 -9.8290 -2.5010 0.9572
-3.3648 -10.0962 -2.5012 0.9572
-2.6337 -10.3117 -2.5013 0.9572
-1.8891 -10.4744 -2.5014 0.9572
-1.5129 -10.5356 -2.5015 0.9572
-0.3744 -10.6380 -2.5017 0.9572
0.0069 -10.6448 -2.5018 0.9572
-9.2742 -2.6875 -2.5000 0.9609
-9.0582 -3.3444 -2.5001 0.9609
-8.6476 -4.2967 -2.5002 0.9609
-8.4883 -4.6037 -2.5002 0.9609
-8.3181 -4.9047 -2.5002 0.9609
-7.3119 -6.3084 -2.5004 0.9609
-6.3368 -7.2883 -2.5006 0.9609
-5.7992 -7.7235 -2.5007 0.9609
-4.9378 -8.3013 -2.5009 0.9609
-4.6375 -8.4730 -2.5009 0.9609
-4.3312 -8.6339 -2.5010 0.9609
-3.7023 -8.9221 -2.5011 0.9609
-2.7243 -9.2684 -2.5013 0.9609
-2.0541 -9.4401 -2.5014 0.9609
-1.0299 -9.6067 -2.5016 0.9609
-0.6853 -9.6376 -2.5017 0.9609
0.3522 -9.6563 -2.5019 0.9609
-8.4827 -2.4582 -2.5002 0.9640
-8.3893 -2.7604 -2.5002 0.9640
-8.1704 -3.3537 -2.5003 0.9639
-8.0451 -3.6442 -2.5003 0.9639
-7.9095 -3.9300 -2.5003 0.9639
-7.7638 -4.2107 -2.5003 0.9639
-7.4427 -4.7558 -2.5004 0.9639
-7.0834 -5.2764 -2.5005 0.9639
-6.8900 -5.5267 -2.5005 0.9639
-6.6878 -5.7700 -2.5005 0.9639
-6.4771 -6.0059 -2.5006 0.9639
-6.2579 -6.2341 -2.5006 0.9639
-6.0308 -6.4542 -2.5007 0.9639
-5.7959 -6.6662 -2.5007 0.9639
-5.5536 -6.8696 -2.5007 0.9639
-4.5162 -7.5927 -2.5009 0.9639
-3.9614 -7.8968 -2.5010 0.9639
-3.6762 -8.0337 -2.5011 0.9639
-3.3862 -8.1604 -2.5012 0.9639
-3.0919 -8.2766 -2.5012 0.9639
-2.4917 -8.4771 -2.5013 0.9639
-1.2560 -8.7468 -2.5015 0.9639
-0.9420 -8.7863 -2.5016 0.9639
-0.3108 -8.8317 -2.5017 0.9639
-7.8838 -1.9815 -2.5003 0.9666
-7.8078 -2.2626 -2.5003 0.9666
-7.7218 -2.5407 -2.5003 0.9666
-7.6259 -2.8156 -2.5004 0.9666
-7.5203 -3.0869 -2.5004 0.9666
-7.4050 -3.3543 -2.5004 0.9666
-7.0028 -4.1292 -2.5005 0.9666
-6.8505 -4.3773 -2.5005 0.9666
-6.6895 -4.6199 -2.5005 0.9665
-6.1557 -5.3109 -2.5006 0.9665
-5.5509 -5.9407 -2.5007 0.9665
-4.8820 -6.5020 -2.5009 0.9665
-4.4043 -6.8350 -2.5010 0.9665
-3.9040 -7.1329 -2.5011 0.9665
-3.6461 -7.2683 -2.5011 0.9665
-3.3836 -7.3944 -2.5012 0.9665
-3.1167 -7.5109 -2.5012 0.9665
-1.7291 -7.9468 -2.5015 0.9665
0.0053 -8.1338 -2.5018 0.9665
0.2965 -8.1286 -2.5018 0.9665
-7.1454 -2.3511 -2.5004 0.9688
-7.0567 -2.6054 -2.5005 0.9688
-6.9589 -2.8565 -2.5005 0.9688
-6.6126 -3.5864 -2.5005 0.9688
-5.5166 -5.1153 -2.5008 0.9688
-5.1365 -5.4971 -2.5008 0.9688
-4.5175 -6.0165 -2.5009 0.9688
-4.2992 -6.1746 -2.5010 0.9688
-3.8464 -6.4666 -2.5011 0.9688
-3.6125 -6.6004 -2.5011 0.9688
-3.3738 -6.7256 -2.5012 0.9688
-2.8839 -6.9501 -2.5012 0.9688
-2.6333 -7.0490 -2.5013 0.9688
-2.1221 -7.2197 -2.5014 0.9688
-1.8623 -7.2912 -2.5014 0.9688
-1.3357 -7.4061 -2.5015 0.9688
-1.0697 -7.4493 -2.5016 0.9688
0.0049 -7.5263 -2.5018 0.9688
0.2744 -7.5215 -2.5018 0.9688
-6.7814 -1.7045 -2.5005 0.9707
-6.7160 -1.9462 -2.5005 0.9707
-6.1468 -3.3338 -2.5006 0.9707
-5.7540 -3.9739 -2.5007 0.9707
-5.6081 -4.1774 -2.5007 0.9707
-5.4549 -4.3756 -2.5008 0.9707
-5.2948 -4.5682 -2.5008 0.9707
-4.7746 -5.1098 -2.5009 0.9707
-4.5886 -5.2776 -2.5009 0.9707
-4.3968 -5.4386 -2.5010 0.9707
-4.1993 -5.5927 -2.5010 0.9707
-3.9964 -5.7396 -2.5010 0.9707
-3.7883 -5.8791 -2.5011 0.9707
-2.6808 -6.4604 -2.5013 0.9707
-2.4478 -6.5523 -2.5013 0.9707
-2.2116 -6.6359 -2.5014 0.9707
-1.9726 -6.7110 -2.5014 0.9707
-1.2416 -6.8842 -2.5016 0.9707
-0.9943 -6.9244 -2.5016 0.9707
-0.7457 -6.9556 -2.5016 0.9707
-0.4962 -6.9780 -2.5017 0.9707
-0.2460 -6.9914 -2.5017 0.9707
-6.1984 -2.0395 -2.5006 0.9724
-5.9440 -2.6925 -2.5007 0.9724
-5.8439 -2.9037 -2.5007 0.9724
-5.7362 -3.1111 -2.5007 0.9724
-5.6212 -3.3145 -2.5007 0.9724
-5.4989 -3.5137 -2.5008 0.9724
-5.3696 -3.7084 -2.5008 0.9724
-4.7854 -4.4372 -2.5009 0.9724
-4.4556 -4.7685 -2.5010 0.9724
-4.2821 -4.9250 -2.5010 0.9724
-3.7294 -5.3561 -2.5011 0.9724
-2.9266 -5.8340 -2.5012 0.9724
-2.7158 -5.9352 -2.5013 0.9724
-2.0638 -6.1925 -2.5014 0.9724
-1.8408 -6.2625 -2.5014 0.9724
-1.6154 -6.3246 -2.5015 0.9724
-1.1586 -6.4241 -2.5016 0.9724
-0.4630 -6.5117 -2.5017 0.9724
-0.2295 -6.5242 -2.5017 0.9724
0.0042 -6.5284 -2.5018 0.9724
-5.8686 -1.7006 -2.5007 0.9739
-5.6524 -2.3202 -2.5007 0.9739
-5.3712 -2.9131 -2.5008 0.9739
-5.2634 -3.1036 -2.5008 0.9739
-5.0279 -3.4724 -2.5008 0.9739
-4.6266 -3.9917 -2.5009 0.9739
-4.4808 -4.1548 -2.5009 0.9739
-4.0095 -4.6116 -2.5010 0.9739
-3.8419 -4.7522 -2.5011 0.9739
-3.4920 -5.0152 -2.5011 0.9739
-2.7403 -5.4627 -2.5013 0.9739
-2.5430 -5.5574 -2.5013 0.9739
-2.3424 -5.6449 -2.5013 0.9739
-1.9324 -5.7983 -2.5014 0.9739
-1.5125 -5.9219 -2.5015 0.9739
-1.2995 -5.9724 -2.5015 0.9739
-1.0848 -6.0152 -2.5016 0.9739
-0.8688 -6.0503 -2.5016 0.9739
-0.4336 -6.0971 -2.5017 0.9739
0.0040 -6.1127 -2.5018 0.9739
0.2229 -6.1088 -2.5018 0.9739
-5.5649 -1.3987 -2.5007 0.9753
-5.4506 -1.7934 -2.5008 0.9753
-5.3083 -2.1790 -2.5008 0.9753
-5.2270 -2.3677 -2.5008 0.9753
-4.9430 -2.9146 -2.5009 0.9753
-4.7218 -3.2610 -2.5009 0.9753
-4.4763 -3.5906 -2.5009 0.9753
-4.2080 -3.9019 -2.5010 0.9753
-4.0656 -4.0501 -2.5010 0.9753
-3.9180 -4.1931 -2.5011 0.9753
-3.7654 -4.3308 -2.5011 0.9753
-3.6080 -4.4629 -2.5011 0.9753
-3.4459 -4.5893 -2.5011 0.9753
-2.7554 -5.0345 -2.5013 0.9753
-2.5734 -5.1300 -2.5013 0.9753
-2.0085 -5.3767 -2.5014 0.9753
-1.4204 -5.5613 -2.5015 0.9753
-0.4071 -5.7258 -2.5017 0.9753
-0.2019 -5.7368 -2.5017 0.9753
0.0038 -5.7404 -2.5018 0.9753
0.2093 -5.7367 -2.5018 0.9753
-5.1320 -1.6886 -2.5008 0.9765
-5.0682 -1.8713 -2.5008 0.9765
-4.9980 -2.0516 -2.5008 0.9765
-4.8384 -2.4041 -2.5009 0.9765
-4.6541 -2.7442 -2.5009 0.9765
-4.3330 -3.2276 -2.5010 0.9765
-4.2147 -3.3807 -2.5010 0.9765
-4.0910 -3.5295 -2.5010 0.9765
-3.9620 -3.6738 -2.5010 0.9765
-3.6889 -3.9480 -2.5011 0.9765
-3.3970 -4.2020 -2.5011 0.9765
-3.0876 -4.4345 -2.5012 0.9765
-2.0711 -4.9913 -2.5014 0.9765
-1.8911 -5.0623 -2.5014 0.9765
-1.5240 -5.1848 -2.5015 0.9765
-1.1490 -5.2807 -2.5016 0.9765
-0.5761 -5.3737 -2.5017 0.9765
-0.3833 -5.3910 -2.5017 0.9765
0.0035 -5.4048 -2.5018 0.9765
0.1971 -5.4012 -2.5018 0.9765
-4.9445 -1.2428 -2.5009 0.9775
-4.8969 -1.4190 -2.5009 0.9775
-4.8429 -1.5935 -2.5009 0.9775
-4.7165 -1.9361 -2.5009 0.9775
-4.6442 -2.1037 -2.5009 0.9775
-4.5659 -2.2687 -2.5009 0.9775
-4.2963 -2.7453 -2.5010 0.9775
-4.1954 -2.8974 -2.5010 0.9775
-4.0889 -3.0458 -2.5010 0.9775
-3.9773 -3.1903 -2.5010 0.9775
-3.8605 -3.3307 -2.5011 0.9775
-3.7388 -3.4668 -2.5011 0.9775
-3.3455 -3.8479 -2.5012 0.9775
-3.2057 -3.9653 -2.5012 0.9775
-3.0617 -4.0776 -2.5012 0.9775
-2.7620 -4.2863 -2.5013 0.9775
-2.6068 -4.3826 -2.5013 0.9775
-1.9544 -4.7101 -2.5014 0.9775
-0.9051 -5.0189 -2.5016 0.9775
-0.5437 -5.0710 -2.5017 0.9775
-0.3617 -5.0873 -2.5017 0.9775
0.0033 -5.1002 -2.5018 0.9775
0.1858 -5.0968 -2.5018 0.9775
-4.6753 -1.1751 -2.5009 0.9785
-4.6303 -1.3418 -2.5009 0.9785
-4.5793 -1.5067 -2.5009 0.9785
-4.5224 -1.6698 -2.5009 0.9785
-4.3173 -2.1451 -2.5010 0.9785
-3.6503 -3.1494 -2.5011 0.9785
-3.5352 -3.2781 -2.5011 0.9785
-3.4156 -3.4026 -2.5011 0.9785
-3.1633 -3.6384 -2.5012 0.9785
-3.0311 -3.7494 -2.5012 0.9785
-2.0063 -4.3845 -2.5014 0.9785
-1.8480 -4.4536 -2.5014 0.9785
-1.6874 -4.5169 -2.5015 0.9785
-0.8559 -4.7456 -2.5016 0.9785
-0.3420 -4.8102 -2.5017 0.9785
0.1758 -4.8193 -2.5018 0.9785
-4.0894 -2.0319 -2.5010 0.9794
-3.9335 -2.3194 -2.5010 0.9794
-3.7575 -2.5950 -2.5011 0.9794
-3.5621 -2.8573 -2.5011 0.9794
-3.3486 -3.1050 -2.5012 0.9794
-2.8711 -3.5514 -2.5012 0.9794
-2.6096 -3.7479 -2.5013 0.9794
-2.4737 -3.8389 -2.5013 0.9794
-2.3346 -3.9251 -2.5013 0.9794
-2.1927 -4.0062 -2.5014 0.9794
-2.0478 -4.0822 -2.5014 0.9794
-1.9004 -4.1530 -2.5014 0.9794
-1.5983 -4.2784 -2.5015 0.9794
-1.4440 -4.3330 -2.5015 0.9794
-1.1303 -4.4253 -2.5016 0.9794
-0.8106 -4.4950 -2.5016 0.9794
-0.6492 -4.5212 -2.5017 0.9794
-0.4869 -4.5416 -2.5017 0.9794
-0.3239 -4.5562 -2.5017 0.9794
-0.1606 -4.5649 -2.5018 0.9794
-4.2012 -1.0559 -2.5010 0.9802
-4.1607 -1.2057 -2.5010 0.9802
-4.1148 -1.3539 -2.5010 0.9802
-4.0074 -1.6450 -2.5010 0.9802
-3.8794 -1.9276 -2.5011 0.9802
-3.6504 -2.3325 -2.5011 0.9802
-3.5646 -2.4618 -2.5011 0.9802
-3.3792 -2.7106 -2.5012 0.9802
-3.2801 -2.8299 -2.5012 0.9802
-3.1767 -2.9456 -2.5012 0.9802
-2.8425 -3.2694 -2.5013 0.9802
-2.7236 -3.3691 -2.5013 0.9802
-2.6013 -3.4645 -2.5013 0.9802
-2.3467 -3.6418 -2.5013 0.9802
-2.2148 -3.7236 -2.5014 0.9802
-2.0801 -3.8005 -2.5014 0.9802
-1.9427 -3.8726 -2.5014 0.9802
-1.8028 -3.9397 -2.5014 0.9802
-1.5162 -4.0588 -2.5015 0.9802
-1.0722 -4.1981 -2.5016 0.9802
-0.9212 -4.2338 -2.5016 0.9802
-0.7690 -4.2642 -2.5016 0.9802
-0.4620 -4.3083 -2.5017 0.9802
-0.3074 -4.3221 -2.5017 0.9802
-0.1523 -4.3305 -2.5018 0.9802
0.0028 -4.3332 -2.5018 0.9802
0.1580 -4.3304 -2.5018 0.9802
