ply
format ascii 1.0
element vertex 534
property float32 x
property float32 y
property float32 z
property float32 I
end_header
12.2879 -41.2706 7.5928 0.8395
17.4799 -41.5712 7.9517 0.8326
21.8603 -39.3862 7.9428 0.8328
10.7535 -17.8217 3.6702 0.9189
16.8850 -25.8210 5.4400 0.8822
26.9537 -38.1291 8.2334 0.8272
17.1186 -22.4454 4.9774 0.8917
17.2354 -20.9775 4.7872 0.8956
17.4480 -18.3496 4.4647 0.9023
17.4178 -15.8448 4.1519 0.9088
9.8705 -17.7840 3.1159 0.9210
10.7534 -17.8216 3.1887 0.9192
16.5604 -23.4265 4.3950 0.8904
17.3377 -21.1020 4.1839 0.8954
16.9556 -17.8318 3.7695 0.9052
17.4178 -15.8447 3.6072 0.9091
12.2801 -41.2446 5.6039 0.8406
16.3351 -43.1597 6.0094 0.8302
16.3041 -35.1548 5.0463 0.8553
19.7946 -35.6645 5.3116 0.8483
17.0976 -24.1865 3.8571 0.8874
17.2507 -22.6187 3.7043 0.8916
17.3253 -19.5949 3.4060 0.8999
17.3889 -17.0092 3.1676 0.9065
16.7194 -44.1752 5.0720 0.8269
16.3993 -39.0014 4.5432 0.8435
16.8563 -36.3455 4.3021 0.8511
18.7531 -33.7879 4.1496 0.8560
17.2506 -22.6186 3.0546 0.8919
17.2894 -21.0432 2.9245 0.8962
17.3251 -19.5948 2.8086 0.9001
17.3628 -15.7947 2.5205 0.9099
16.7192 -44.1747 3.9984 0.8273
16.9094 -36.4599 3.4022 0.8510
17.1506 -33.7239 3.2028 0.8591
10.7533 -17.8213 1.7620 0.9198
17.3888 -17.0090 2.0591 0.9070
17.3627 -15.7946 1.9870 0.9101
12.2760 -41.2308 2.6677 0.8416
16.7190 -44.1742 2.9289 0.8275
17.1506 -33.7239 2.3461 0.8593
17.2983 -22.6811 1.7688 0.8920
17.3579 -18.2549 1.5620 0.9040
17.3626 -15.7945 1.4555 0.9102
12.2747 -41.2262 1.6961 0.8418
16.9251 -40.2519 1.7218 0.8396
16.8395 -36.3092 1.5782 0.8520
10.7531 -17.8212 0.8207 0.9201
16.4954 -25.2254 1.1885 0.8863
17.3886 -17.0089 0.9591 0.9072
17.4173 -15.8443 0.9284 0.9100
16.7187 -44.1732 0.7978 0.8278
16.2829 -35.1091 0.6537 0.8566
17.1506 -33.7239 0.6391 0.8595
18.7393 -33.7630 0.6523 0.8569
10.7531 -17.8211 0.3516 0.9201
15.6295 -23.9011 0.4824 0.8920
15.5275 -21.9654 0.4544 0.8980
15.4399 -20.2443 0.4301 0.9032
15.3989 -18.7422 0.4097 0.9075
15.7289 -16.5416 0.3856 0.9127
16.3131 -15.9569 0.3855 0.9128
15.9768 -14.5339 0.3648 0.9172
15.5058 -36.8766 -0.2252 0.8521
17.1506 -33.7239 -0.2130 0.8596
18.7636 -33.8070 -0.2177 0.8567
10.7530 -17.8210 -0.1172 0.9201
16.5008 -25.2335 -0.1697 0.8864
15.8235 -20.7474 -0.1469 0.9009
12.2706 -41.2127 -1.2108 0.8419
15.6447 -46.3388 -1.3772 0.8222
18.7393 -33.7631 -1.0873 0.8568
10.7530 -17.8209 -0.5861 0.9201
17.2888 -21.0425 -0.7668 0.8967
15.8918 -17.9736 -0.6756 0.9085
15.9766 -14.5337 -0.6082 0.9172
-22.4811 -40.4353 -2.3463 0.8309
-19.5042 -41.9747 -2.3473 0.8308
-16.4229 -43.2964 -2.3484 0.8307
-14.8336 -43.8308 -2.3467 0.8308
-13.7899 -46.1921 -2.4448 0.8244
-12.3796 -47.7067 -2.4995 0.8209
-7.1359 -48.7866 -2.5005 0.8208
-3.5872 -49.1877 -2.5011 0.8208
-1.8040 -49.2919 -2.5015 0.8207
-0.0180 -49.3312 -2.5018 0.8207
1.7686 -49.3060 -2.5021 0.8207
7.1077 -48.8425 -2.5031 0.8206
8.8728 -48.5593 -2.5034 0.8206
11.6137 -44.8900 -2.3515 0.8305
14.7328 -38.9263 -2.1108 0.8465
15.5892 -30.6536 -1.7441 0.8713
16.5061 -25.2416 -1.5295 0.8862
26.7971 -37.9076 -2.3543 0.8303
15.8233 -20.7471 -1.3233 0.9008
15.8917 -17.9735 -1.2167 0.9084
17.3881 -17.0085 -1.2335 0.9072
-15.5512 -27.9709 -2.3466 0.8795
-14.5293 -28.5180 -2.3467 0.8795
-10.9292 -32.2941 -2.4998 0.8722
-9.7535 -32.6715 -2.5000 0.8722
-7.3647 -33.2975 -2.5004 0.8722
-2.4814 -34.0241 -2.5013 0.8721
-1.2478 -34.0946 -2.5016 0.8721
-0.0124 -34.1205 -2.5018 0.8721
1.2232 -34.1017 -2.5020 0.8721
3.6887 -33.9299 -2.5025 0.8721
4.9154 -33.7771 -2.5027 0.8721
8.5514 -33.0536 -2.5034 0.8720
11.3521 -29.9939 -2.3515 0.8793
12.4318 -29.5657 -2.3517 0.8793
15.5684 -28.0500 -2.3522 0.8793
15.8103 -24.1776 -2.1181 0.8906
15.4938 -20.3151 -1.8733 0.9026
15.7693 -17.8351 -1.7456 0.9089
16.3794 -16.0217 -1.6800 0.9122
15.9764 -14.5336 -1.5836 0.9170
-10.9723 -23.6134 -2.4998 0.9007
-7.4504 -24.9565 -2.5004 0.9006
-6.5422 -25.2116 -2.5006 0.9006
-5.6254 -25.4336 -2.5008 0.9006
-3.7704 -25.7776 -2.5011 0.9006
-1.8952 -25.9864 -2.5014 0.9006
-0.0095 -26.0590 -2.5018 0.9006
1.8768 -25.9949 -2.5021 0.9006
2.8170 -25.9117 -2.5023 0.9006
5.6115 -25.4586 -2.5028 0.9005
6.5301 -25.2404 -2.5030 0.9005
7.4403 -24.9890 -2.5031 0.9005
11.1027 -21.8317 -2.3514 0.9063
11.8732 -21.3923 -2.3489 0.9064
13.4071 -20.5026 -2.3518 0.9063
-10.2266 -18.3939 -2.4999 0.9187
-9.5543 -18.7531 -2.5000 0.9187
-8.8694 -19.0877 -2.5002 0.9187
-8.1728 -19.3973 -2.5003 0.9187
-7.4655 -19.6816 -2.5004 0.9187
-6.0221 -20.1724 -2.5007 0.9187
-3.0475 -20.8350 -2.5012 0.9187
-0.0077 -21.0613 -2.5018 0.9187
0.7550 -21.0490 -2.5019 0.9187
1.5168 -21.0090 -2.5021 0.9187
2.2766 -20.9415 -2.5022 0.9186
3.0336 -20.8464 -2.5023 0.9186
6.0127 -20.1945 -2.5029 0.9186
7.4592 -19.7084 -2.5032 0.9186
8.8670 -19.1188 -2.5034 0.9186
10.2262 -16.9479 -2.3513 0.9234
10.8337 -16.5672 -2.3514 0.9234
12.0054 -15.7412 -2.3516 0.9234
12.5681 -15.2968 -2.3517 0.9233
13.1143 -14.8323 -2.3518 0.9233
14.1545 -13.8454 -2.3520 0.9233
14.6471 -13.3243 -2.3521 0.9233
-6.8526 -16.2634 -2.5005 0.9312
-6.2592 -16.5016 -2.5006 0.9312
-5.6579 -16.7181 -2.5008 0.9312
-5.0490 -16.9128 -2.5009 0.9312
-4.4335 -17.0853 -2.5010 0.9312
-3.8121 -17.2354 -2.5011 0.9312
-2.5550 -17.4678 -2.5013 0.9312
-1.2842 -17.6085 -2.5016 0.9312
-0.6458 -17.6442 -2.5017 0.9312
-0.0064 -17.6569 -2.5018 0.9312
0.6330 -17.6464 -2.5019 0.9311
1.2716 -17.6127 -2.5020 0.9311
1.9086 -17.5559 -2.5021 0.9311
2.5432 -17.4761 -2.5023 0.9311
3.1745 -17.3734 -2.5024 0.9311
3.8017 -17.2478 -2.5025 0.9311
4.4239 -17.0996 -2.5026 0.9311
5.6504 -16.7361 -2.5028 0.9311
6.2529 -16.5212 -2.5029 0.9311
6.8474 -16.2847 -2.5030 0.9311
7.4329 -16.0268 -2.5031 0.9311
9.5930 -14.6700 -2.4835 0.9316
9.6194 -13.6078 -2.3612 0.9349
10.5349 -12.8221 -2.3513 0.9352
11.4360 -12.0269 -2.3515 0.9352
11.8643 -11.6053 -2.3516 0.9351
12.2772 -11.1684 -2.3516 0.9351
-7.3754 -13.2658 -2.5004 0.9403
-5.8940 -13.9888 -2.5007 0.9403
-5.3838 -14.1936 -2.5008 0.9403
-3.2789 -14.8245 -2.5012 0.9403
-1.6521 -15.0944 -2.5015 0.9403
-0.5554 -15.1756 -2.5017 0.9403
0.5444 -15.1772 -2.5019 0.9403
2.1873 -15.0305 -2.5022 0.9403
3.8048 -14.7064 -2.5025 0.9403
4.3350 -14.5596 -2.5026 0.9403
4.8595 -14.3936 -2.5027 0.9403
6.8876 -13.5433 -2.5030 0.9403
7.3737 -13.2854 -2.5031 0.9403
7.8503 -13.0102 -2.5032 0.9403
8.3165 -12.7178 -2.5033 0.9403
9.2156 -12.0834 -2.5035 0.9403
9.5906 -11.6729 -2.4888 0.9406
10.5580 -9.6045 -2.3513 0.9438
-6.4647 -11.6276 -2.5006 0.9473
-6.0396 -11.8544 -2.5007 0.9473
-5.6065 -12.0658 -2.5008 0.9473
-5.1661 -12.2612 -2.5008 0.9473
-4.7189 -12.4407 -2.5009 0.9473
-3.8064 -12.7504 -2.5011 0.9473
-3.3423 -12.8803 -2.5012 0.9473
-2.8738 -12.9934 -2.5013 0.9473
-2.4015 -13.0894 -2.5013 0.9473
-1.9261 -13.1682 -2.5014 0.9473
-1.4480 -13.2297 -2.5015 0.9473
-0.0048 -13.3102 -2.5018 0.9473
0.9585 -13.2765 -2.5020 0.9473
1.4387 -13.2336 -2.5021 0.9473
2.8656 -13.0009 -2.5023 0.9473
3.3346 -12.8891 -2.5024 0.9473
5.6023 -12.0797 -2.5028 0.9472
6.4623 -11.6433 -2.5030 0.9472
7.2885 -11.1457 -2.5031 0.9472
7.6875 -10.8748 -2.5032 0.9472
8.8222 -9.9779 -2.5034 0.9472
9.1779 -9.6522 -2.5035 0.9472
9.5217 -9.3137 -2.5035 0.9472
9.5985 -8.7316 -2.4389 0.9486
-4.9856 -10.7295 -2.5009 0.9528
-4.5940 -10.9033 -2.5009 0.9528
-4.1963 -11.0628 -2.5010 0.9528
-3.3848 -11.3381 -2.5012 0.9528
-2.1355 -11.6394 -2.5014 0.9528
0.4243 -11.8283 -2.5019 0.9528
1.2793 -11.7673 -2.5020 0.9528
1.7046 -11.7136 -2.5021 0.9528
2.1277 -11.6446 -2.5022 0.9528
2.5480 -11.5602 -2.5023 0.9528
2.9651 -11.4607 -2.5023 0.9528
3.7870 -11.2168 -2.5025 0.9528
4.1908 -11.0726 -2.5026 0.9527
5.3673 -10.5538 -2.5028 0.9527
5.7461 -10.3528 -2.5028 0.9527
6.1173 -10.1382 -2.5029 0.9527
6.8354 -9.6694 -2.5030 0.9527
7.1812 -9.4158 -2.5031 0.9527
7.5176 -9.1498 -2.5032 0.9527
8.4661 -8.2812 -2.5033 0.9527
-5.1706 -9.3001 -2.5008 0.9572
-3.7742 -9.9502 -2.5011 0.9572
-3.4115 -10.0806 -2.5012 0.9572
-3.0444 -10.1978 -2.5012 0.9572
-1.9207 -10.4686 -2.5014 0.9572
-1.5404 -10.5316 -2.5015 0.9572
-0.7742 -10.6161 -2.5016 0.9572
-0.3893 -10.6375 -2.5017 0.9572
0.3816 -10.6383 -2.5019 0.9572
0.7666 -10.6179 -2.5019 0.9572
1.5331 -10.5351 -2.5021 0.9572
1.9137 -10.4730 -2.5021 0.9572
3.4059 -10.0881 -2.5024 0.9572
3.7691 -9.9584 -2.5025 0.9572
4.1273 -9.8157 -2.5025 0.9572
4.4801 -9.6600 -2.5026 0.9572
4.8271 -9.4917 -2.5027 0.9572
5.5017 -9.1179 -2.5028 0.9572
5.8284 -8.9129 -2.5029 0.9572
6.4584 -8.4681 -2.5030 0.9572
6.7610 -8.2289 -2.5030 0.9572
7.0547 -7.9788 -2.5031 0.9572
7.6139 -7.4477 -2.5032 0.9572
7.8788 -7.1672 -2.5032 0.9572
-4.6936 -8.4421 -2.5009 0.9609
-3.7507 -8.9020 -2.5011 0.9609
-3.4260 -9.0321 -2.5012 0.9609
-3.0968 -9.1505 -2.5012 0.9609
-2.0864 -9.4330 -2.5014 0.9609
-1.0512 -9.6044 -2.5016 0.9609
-0.3534 -9.6558 -2.5017 0.9609
-0.0035 -9.6625 -2.5018 0.9609
0.3464 -9.6565 -2.5018 0.9609
0.6958 -9.6379 -2.5019 0.9609
1.7370 -9.5063 -2.5021 0.9609
2.4206 -9.3562 -2.5022 0.9609
3.0915 -9.1569 -2.5024 0.9609
3.4212 -9.0392 -2.5024 0.9609
4.0666 -8.7683 -2.5025 0.9609
4.6907 -8.4513 -2.5026 0.9608
4.9938 -8.2761 -2.5027 0.9608
5.2903 -8.0901 -2.5028 0.9608
5.8621 -7.6863 -2.5029 0.9608
6.1368 -7.4691 -2.5029 0.9608
6.4033 -7.2421 -2.5030 0.9608
7.1513 -6.5054 -2.5031 0.9608
-4.2929 -7.7214 -2.5010 0.9639
-4.0106 -7.8720 -2.5011 0.9639
-3.7230 -8.0122 -2.5011 0.9639
-2.8324 -8.3692 -2.5013 0.9639
-2.5275 -8.4665 -2.5013 0.9639
-2.2193 -8.5527 -2.5014 0.9639
-1.9082 -8.6276 -2.5014 0.9639
-1.5946 -8.6912 -2.5015 0.9639
-0.3232 -8.8312 -2.5017 0.9639
0.3168 -8.8319 -2.5018 0.9639
0.6364 -8.8148 -2.5019 0.9639
0.9552 -8.7862 -2.5020 0.9639
2.2138 -8.5571 -2.5022 0.9639
2.5223 -8.4715 -2.5022 0.9639
3.1289 -8.2671 -2.5024 0.9639
3.4263 -8.1485 -2.5024 0.9639
4.0072 -7.8795 -2.5025 0.9639
4.2900 -7.7294 -2.5026 0.9639
4.5671 -7.5691 -2.5026 0.9639
4.8383 -7.3989 -2.5027 0.9639
5.1032 -7.2191 -2.5027 0.9639
5.3613 -7.0297 -2.5028 0.9639
5.6125 -6.8310 -2.5028 0.9639
5.8563 -6.6234 -2.5029 0.9639
-3.9513 -7.1069 -2.5011 0.9665
-3.6914 -7.2455 -2.5011 0.9665
-3.4267 -7.3745 -2.5012 0.9665
-2.8841 -7.6035 -2.5013 0.9665
-2.6069 -7.7031 -2.5013 0.9665
-1.4677 -7.9994 -2.5015 0.9665
-0.5916 -8.1119 -2.5017 0.9665
-0.2975 -8.1282 -2.5017 0.9665
0.5858 -8.1130 -2.5019 0.9665
0.8792 -8.0867 -2.5019 0.9665
1.1714 -8.0498 -2.5020 0.9665
1.7510 -7.9442 -2.5021 0.9665
2.3215 -7.7970 -2.5022 0.9665
2.8798 -7.6088 -2.5023 0.9665
3.1535 -7.4997 -2.5024 0.9665
3.4230 -7.3807 -2.5024 0.9665
4.6968 -6.6442 -2.5026 0.9665
5.8171 -5.6901 -2.5028 0.9665
-3.1708 -6.8239 -2.5012 0.9688
-2.6687 -7.0357 -2.5013 0.9688
-2.4123 -7.1279 -2.5013 0.9688
-2.1526 -7.2107 -2.5014 0.9688
-1.8902 -7.2840 -2.5014 0.9688
-1.6252 -7.3479 -2.5015 0.9688
-1.0892 -7.4465 -2.5016 0.9688
0.2698 -7.5216 -2.5018 0.9688
1.0839 -7.4485 -2.5020 0.9688
1.6202 -7.3508 -2.5021 0.9688
1.8854 -7.2874 -2.5021 0.9688
3.1673 -6.8293 -2.5024 0.9688
3.6534 -6.5824 -2.5025 0.9688
3.8894 -6.4460 -2.5025 0.9688
4.5657 -5.9864 -2.5026 0.9688
4.7796 -5.8173 -2.5027 0.9688
4.9872 -5.6405 -2.5027 0.9688
5.1882 -5.4563 -2.5027 0.9688
5.3825 -5.2649 -2.5028 0.9688
5.5696 -5.0666 -2.5028 0.9688
-3.3986 -6.1129 -2.5012 0.9707
-3.1751 -6.2321 -2.5012 0.9707
-2.9474 -6.3431 -2.5012 0.9707
-2.2423 -6.6256 -2.5014 0.9707
-1.5107 -6.8301 -2.5015 0.9707
-1.2624 -6.8804 -2.5016 0.9707
-1.0124 -6.9218 -2.5016 0.9707
-0.5088 -6.9771 -2.5017 0.9707
-0.2559 -6.9911 -2.5017 0.9707
1.0076 -6.9235 -2.5020 0.9707
1.2577 -6.8827 -2.5020 0.9707
1.5061 -6.8327 -2.5021 0.9707
2.2382 -6.6294 -2.5022 0.9707
2.7122 -6.4503 -2.5023 0.9707
3.1720 -6.2373 -2.5024 0.9707
3.6153 -5.9916 -2.5024 0.9707
4.0396 -5.7144 -2.5025 0.9707
4.6356 -5.2429 -2.5026 0.9707
4.8225 -5.0716 -2.5027 0.9707
5.0030 -4.8937 -2.5027 0.9707
5.1770 -4.7094 -2.5027 0.9707
-3.1715 -5.7045 -2.5012 0.9724
-2.9629 -5.8157 -2.5012 0.9724
-2.3149 -6.1030 -2.5014 0.9724
-2.0925 -6.1829 -2.5014 0.9724
-1.8672 -6.2547 -2.5014 0.9724
-1.6396 -6.3183 -2.5015 0.9724
-1.1780 -6.4206 -2.5016 0.9724
-0.9447 -6.4592 -2.5016 0.9724
-0.2387 -6.5239 -2.5017 0.9724
-0.0024 -6.5284 -2.5018 0.9724
0.4700 -6.5115 -2.5019 0.9724
1.8632 -6.2578 -2.5021 0.9724
2.3113 -6.1067 -2.5022 0.9724
2.5309 -6.0191 -2.5022 0.9724
3.3736 -5.5910 -2.5024 0.9724
4.1456 -5.0457 -2.5025 0.9724
4.3257 -4.8924 -2.5026 0.9724
-2.7744 -5.4455 -2.5013 0.9739
-2.5754 -5.5425 -2.5013 0.9739
-2.3730 -5.6322 -2.5014 0.9739
-2.1676 -5.7145 -2.5014 0.9739
-1.9592 -5.7893 -2.5014 0.9739
-1.3199 -5.9679 -2.5015 0.9739
-1.1030 -6.0119 -2.5016 0.9739
-0.8846 -6.0480 -2.5016 0.9739
-0.6650 -6.0762 -2.5017 0.9739
-0.2236 -6.1086 -2.5017 0.9739
-0.0025 -6.1125 -2.5018 0.9739
0.2192 -6.1090 -2.5018 0.9739
1.3159 -5.9700 -2.5020 0.9739
1.7446 -5.8593 -2.5021 0.9739
2.1641 -5.7179 -2.5022 0.9739
2.9671 -5.3459 -2.5023 0.9739
3.1587 -5.2350 -2.5024 0.9739
3.5295 -4.9928 -2.5024 0.9739
4.0502 -4.5808 -2.5025 0.9739
4.2134 -4.4312 -2.5026 0.9739
4.3712 -4.2758 -2.5026 0.9739
-2.6054 -5.1139 -2.5013 0.9753
-2.4186 -5.2050 -2.5013 0.9753
-2.2285 -5.2893 -2.5014 0.9753
-2.0355 -5.3665 -2.5014 0.9753
-1.6419 -5.4999 -2.5015 0.9753
-1.0358 -5.6458 -2.5016 0.9753
-0.2099 -5.7365 -2.5017 0.9753
-0.0021 -5.7405 -2.5018 0.9753
0.2058 -5.7369 -2.5018 0.9753
0.4134 -5.7257 -2.5019 0.9753
0.8267 -5.6810 -2.5019 0.9753
1.2357 -5.6064 -2.5020 0.9753
1.4380 -5.5581 -2.5020 0.9753
2.2254 -5.2926 -2.5022 0.9753
2.4156 -5.2086 -2.5022 0.9753
2.7864 -5.0202 -2.5023 0.9753
2.9664 -4.9161 -2.5023 0.9753
3.8035 -4.3017 -2.5025 0.9753
4.1049 -4.0153 -2.5025 0.9753
-1.7323 -5.1189 -2.5015 0.9765
-1.5459 -5.1783 -2.5015 0.9765
-1.3574 -5.2310 -2.5015 0.9765
-0.7822 -5.3475 -2.5016 0.9765
-0.5877 -5.3728 -2.5017 0.9765
-0.3931 -5.3903 -2.5017 0.9765
-0.0020 -5.4048 -2.5018 0.9765
0.1938 -5.4014 -2.5018 0.9765
0.3892 -5.3909 -2.5019 0.9765
0.5842 -5.3734 -2.5019 0.9765
0.9716 -5.3171 -2.5020 0.9765
1.1635 -5.2785 -2.5020 0.9765
1.3539 -5.2330 -2.5020 0.9765
1.7291 -5.1215 -2.5021 0.9765
1.9134 -5.0556 -2.5021 0.9765
2.4505 -4.8185 -2.5022 0.9765
2.7928 -4.6286 -2.5023 0.9765
2.9586 -4.5245 -2.5023 0.9765
3.4320 -4.1771 -2.5024 0.9765
3.7254 -3.9178 -2.5025 0.9765
3.8648 -3.7804 -2.5025 0.9765
3.9992 -3.6380 -2.5025 0.9765
-2.1488 -4.6246 -2.5014 0.9775
-1.8086 -4.7681 -2.5015 0.9775
-1.4588 -4.8866 -2.5015 0.9775
-1.2809 -4.9363 -2.5016 0.9775
-1.1013 -4.9795 -2.5016 0.9775
-0.7381 -5.0463 -2.5017 0.9775
-0.5549 -5.0698 -2.5017 0.9775
-0.3709 -5.0867 -2.5017 0.9775
-0.0018 -5.1003 -2.5018 0.9775
0.3673 -5.0872 -2.5019 0.9775
0.7345 -5.0474 -2.5019 0.9775
0.9169 -5.0175 -2.5020 0.9775
1.0979 -4.9811 -2.5020 0.9775
1.2776 -4.9381 -2.5020 0.9775
1.4556 -4.8887 -2.5021 0.9775
2.1462 -4.6276 -2.5022 0.9775
2.3124 -4.5469 -2.5022 0.9775
2.6354 -4.3677 -2.5023 0.9775
2.7919 -4.2695 -2.5023 0.9775
2.9447 -4.1656 -2.5023 0.9775
3.2386 -3.9417 -2.5024 0.9775
3.7738 -3.4330 -2.5025 0.9775
-2.3429 -4.2141 -2.5014 0.9785
-1.7101 -4.5084 -2.5015 0.9785
-1.5457 -4.5675 -2.5015 0.9785
-1.0413 -4.7083 -2.5016 0.9785
-0.8702 -4.7430 -2.5016 0.9785
-0.0018 -4.8225 -2.5018 0.9785
0.1729 -4.8194 -2.5018 0.9785
0.3473 -4.8101 -2.5018 0.9785
0.6945 -4.7724 -2.5019 0.9785
1.5428 -4.5696 -2.5021 0.9785
1.7073 -4.5108 -2.5021 0.9785
2.0293 -4.3755 -2.5022 0.9785
2.1864 -4.2992 -2.5022 0.9785
2.3407 -4.2173 -2.5022 0.9785
2.4919 -4.1298 -2.5022 0.9785
3.1951 -3.6137 -2.5024 0.9785
3.3239 -3.4956 -2.5024 0.9785
3.4483 -3.3730 -2.5024 0.9785
3.5682 -3.2460 -2.5024 0.9785
-2.0733 -4.0694 -2.5014 0.9794
-1.6198 -4.2704 -2.5015 0.9794
-1.3065 -4.3765 -2.5015 0.9794
-0.8242 -4.4925 -2.5016 0.9794
-0.4970 -4.5405 -2.5017 0.9794
-0.3322 -4.5556 -2.5017 0.9794
-0.1671 -4.5647 -2.5018 0.9794
0.3290 -4.5561 -2.5018 0.9794
0.4937 -4.5412 -2.5019 0.9794
0.6578 -4.5204 -2.5019 0.9794
0.8211 -4.4937 -2.5019 0.9794
1.1442 -4.4226 -2.5020 0.9794
1.4613 -4.3283 -2.5021 0.9794
1.6171 -4.2726 -2.5021 0.9794
2.0709 -4.0721 -2.5022 0.9794
2.2171 -3.9945 -2.5022 0.9794
2.3603 -3.9117 -2.5022 0.9794
2.6373 -3.7307 -2.5023 0.9794
2.7706 -3.6328 -2.5023 0.9794
2.9004 -3.5301 -2.5023 0.9794
3.0263 -3.4228 -2.5023 0.9794
3.1483 -3.3110 -2.5024 0.9794
3.2662 -3.1948 -2.5024 0.9794
3.3797 -3.0745 -2.5024 0.9794
-1.8257 -3.9292 -2.5015 0.9802
-1.2394 -4.1518 -2.5016 0.9802
-1.0883 -4.1940 -2.5016 0.9802
-0.4714 -4.3074 -2.5017 0.9802
-0.0015 -4.3332 -2.5018 0.9802
0.3121 -4.3221 -2.5018 0.9802
0.4684 -4.3080 -2.5019 0.9802
0.9328 -4.2320 -2.5020 0.9802
1.0854 -4.1954 -2.5020 0.9802
1.2367 -4.1535 -2.5020 0.9802
1.3862 -4.1060 -2.5020 0.9802
1.5340 -4.0531 -2.5021 0.9802
1.9646 -3.8630 -2.5021 0.9802
2.2390 -3.7108 -2.5022 0.9802
2.5018 -3.5391 -2.5022 0.9802
2.7514 -3.3488 -2.5023 0.9802
2.8709 -3.2470 -2.5023 0.9802
3.0984 -3.0307 -2.5024 0.9802
