ply
format ascii 1.0
element vertex 543
property float32 x
property float32 y
property float32 z
property float32 I
end_header
33.2730 18.3274 6.6981 0.8570
25.2651 19.1185 5.5866 0.8792
33.3867 29.2789 7.8300 0.8350
31.0691 29.2952 7.5296 0.8408
31.2463 31.6679 7.8444 0.8347
16.1348 18.9037 4.3823 0.9040
27.0378 34.0953 7.6728 0.8380
27.1009 36.8294 8.0627 0.8305
24.1498 35.4282 7.5602 0.8402
22.2852 35.3701 7.3714 0.8438
19.9167 37.3338 7.4611 0.8421
34.4685 18.9859 6.0284 0.8528
31.0698 18.6052 5.5478 0.8637
21.5309 18.8819 4.3871 0.8906
9.4187 10.2611 2.1338 0.9452
29.1871 39.6645 7.5442 0.8193
27.0450 39.6757 7.3559 0.8234
10.7827 18.5668 3.2892 0.9168
18.5227 41.7113 6.9916 0.8314
16.7189 41.6371 6.8736 0.8340
10.8239 38.5696 6.1369 0.8503
33.8249 18.6314 5.0287 0.8558
28.8040 18.6920 4.4714 0.8707
16.1804 18.9570 3.2455 0.9044
26.0425 41.3337 6.3618 0.8211
16.6922 41.5704 5.8334 0.8347
16.1776 18.9537 2.6759 0.9046
26.1380 41.4853 5.2652 0.8210
18.5037 41.6685 4.8958 0.8324
10.8359 38.6123 4.3064 0.8510
9.4187 10.2611 1.1791 0.9456
26.0401 41.3299 4.1352 0.8219
10.7789 18.5603 1.8169 0.9174
16.7117 41.6191 3.7966 0.8352
9.4187 10.2611 0.8637 0.9457
16.7094 41.6131 2.7807 0.8355
10.8327 38.6007 2.4861 0.8516
9.4186 10.2611 0.5492 0.9458
10.7765 18.5561 0.8461 0.9177
34.0621 18.7621 0.6569 0.8559
9.4187 10.2611 0.2353 0.9458
15.6653 19.7543 0.4259 0.9041
10.7752 18.5539 0.3624 0.9177
16.4774 41.0354 0.7470 0.8379
10.2497 3.0252 -0.0602 0.9582
10.2489 3.4314 -0.0609 0.9577
10.2480 3.8475 -0.0616 0.9572
10.2472 4.2750 -0.0625 0.9566
10.2444 5.6429 -0.0658 0.9543
10.2434 6.1340 -0.0672 0.9534
10.2356 8.3428 -0.0743 0.9486
10.2336 8.9746 -0.0766 0.9470
10.2315 9.6474 -0.0792 0.9453
10.2293 10.3674 -0.0820 0.9434
9.4186 10.2611 -0.0784 0.9458
10.2244 11.9789 -0.0887 0.9389
10.2215 12.8896 -0.0926 0.9363
10.2223 13.8919 -0.0971 0.9333
10.2117 17.5835 -0.1145 0.9219
10.2014 19.1226 -0.1220 0.9170
10.1973 20.8969 -0.1309 0.9112
10.1925 22.9527 -0.1414 0.9044
10.1909 25.3796 -0.1540 0.8964
10.1784 28.2557 -0.1691 0.8868
10.1609 36.2068 -0.2117 0.8603
10.2537 2.2375 -0.2955 0.9589
10.2495 3.0252 -0.3009 0.9581
10.2487 3.4314 -0.3043 0.9577
10.2479 3.8475 -0.3082 0.9571
10.2470 4.2750 -0.3126 0.9565
10.2461 4.7154 -0.3176 0.9559
10.2452 5.1707 -0.3231 0.9551
10.2442 5.6428 -0.3293 0.9543
10.2422 6.6466 -0.3438 0.9523
10.2411 7.1838 -0.3522 0.9512
10.2339 8.9749 -0.3833 0.9470
10.2319 9.6478 -0.3960 0.9453
10.2297 10.3677 -0.4101 0.9434
9.4186 10.2610 -0.3922 0.9458
10.2247 11.9794 -0.4435 0.9389
10.2220 13.8915 -0.4856 0.9333
10.2113 17.5829 -0.5725 0.9219
10.2015 19.1228 -0.6103 0.9169
10.1974 20.8971 -0.6547 0.9112
10.1927 22.9529 -0.7072 0.9044
10.1915 25.3811 -0.7701 0.8963
10.1750 31.8001 -0.9401 0.8749
10.1593 36.2014 -1.0587 0.8603
10.2538 2.2375 -0.5323 0.9588
10.2486 3.4313 -0.5481 0.9576
10.2478 3.8475 -0.5551 0.9571
10.2469 4.2749 -0.5631 0.9565
10.2460 4.7154 -0.5720 0.9558
10.2451 5.1706 -0.5820 0.9551
10.2431 6.1338 -0.6055 0.9533
10.2410 7.1837 -0.6344 0.9511
10.2398 7.7487 -0.6512 0.9499
10.2322 9.6481 -0.7132 0.9452
10.2300 10.3681 -0.7387 0.9433
9.4186 10.2610 -0.7064 0.9457
10.2251 11.9798 -0.7988 0.9389
10.2223 12.8906 -0.8343 0.9362
10.2217 13.8910 -0.8746 0.9333
10.2184 14.9908 -0.9201 0.9299
10.2109 17.5822 -1.0311 0.9218
10.2016 19.1229 -1.0992 0.9169
10.1738 31.7963 -1.6931 0.8748
10.1578 36.1959 -1.9066 0.8602
6.3628 48.9413 -2.5029 0.8206
4.5927 49.1328 -2.5026 0.8207
10.3030 2.6409 -0.7799 0.9582
10.2493 3.0251 -0.7835 0.9580
10.2484 3.4313 -0.7924 0.9576
10.2458 4.7153 -0.8270 0.9558
10.2440 5.6426 -0.8575 0.9542
10.2429 6.1337 -0.8754 0.9532
10.2419 6.6464 -0.8952 0.9522
10.2408 7.1836 -0.9172 0.9511
10.2325 9.6484 -1.0312 0.9452
10.2304 10.3684 -1.0680 0.9433
9.4186 10.2610 -1.0213 0.9457
10.2255 11.9803 -1.1549 0.9388
10.2214 13.8906 -1.2645 0.9332
10.2145 16.2122 -1.4050 0.9260
10.2105 17.5816 -1.4907 0.9217
10.2016 19.1231 -1.5892 0.9167
10.1929 22.9534 -1.8415 0.9042
10.1927 25.3841 -2.0057 0.8961
10.1804 28.2612 -2.2025 0.8865
8.6633 30.8704 -2.3509 0.8793
7.8783 32.5429 -2.4550 0.8743
3.1763 33.9799 -2.5023 0.8721
10.3047 2.6414 -1.0213 0.9582
10.2475 3.8473 -1.0509 0.9570
10.2466 4.2748 -1.0659 0.9564
10.2457 4.7152 -1.0828 0.9557
10.2438 5.6425 -1.1228 0.9541
10.2417 6.6463 -1.1722 0.9521
10.2369 8.3438 -1.2679 0.9483
10.2259 11.9807 -1.5122 0.9387
10.2231 12.8917 -1.5796 0.9360
10.2210 13.8902 -1.6556 0.9330
10.2142 16.2116 -1.8396 0.9259
10.2101 17.5809 -1.9518 0.9216
10.1977 20.8977 -2.2324 0.9108
9.1249 22.7248 -2.3510 0.9063
7.8771 24.6181 -2.4815 0.9013
5.2158 25.5414 -2.5027 0.9005
2.4257 25.9503 -2.5022 0.9006
10.2544 2.2376 -1.2467 0.9586
10.2490 3.0250 -1.2694 0.9579
10.2473 3.8473 -1.3002 0.9569
10.2464 4.2747 -1.3188 0.9563
10.2455 4.7152 -1.3397 0.9556
10.2427 6.1335 -1.4181 0.9530
10.2405 7.1834 -1.4859 0.9509
10.2393 7.7483 -1.5253 0.9496
10.2372 8.3441 -1.5688 0.9482
10.2332 9.6490 -1.6707 0.9449
10.2311 10.3692 -1.7303 0.9430
10.2262 11.9812 -1.8711 0.9385
10.2235 12.8922 -1.9545 0.9359
10.2207 13.8897 -2.0484 0.9329
10.2174 14.9893 -2.1548 0.9295
9.9403 17.1162 -2.3512 0.9234
9.3160 17.4627 -2.3510 0.9234
8.0320 18.0872 -2.3508 0.9234
7.8523 19.5555 -2.5032 0.9186
5.6930 20.2862 -2.5028 0.9186
4.2152 20.6416 -2.5025 0.9186
3.4678 20.7791 -2.5024 0.9186
2.7158 20.8896 -2.5023 0.9186
10.2547 2.2377 -1.4872 0.9585
10.3080 2.6422 -1.5078 0.9579
10.2488 3.0249 -1.5141 0.9577
10.2480 3.4312 -1.5313 0.9573
10.2472 3.8472 -1.5509 0.9567
10.2425 6.1334 -1.6916 0.9529
10.2391 7.7482 -1.8193 0.9494
10.2356 8.9763 -1.9290 0.9465
10.2314 10.3695 -2.0640 0.9428
10.2267 11.9816 -2.2320 0.9383
10.2239 12.8927 -2.3314 0.9357
9.8348 13.3651 -2.3511 0.9352
9.3459 13.7106 -2.3510 0.9352
8.8449 14.0384 -2.3510 0.9352
7.9008 14.8100 -2.3784 0.9344
7.7478 15.8771 -2.5032 0.9311
7.1698 16.1455 -2.5031 0.9311
4.7725 17.0059 -2.5026 0.9311
4.1558 17.1662 -2.5025 0.9311
1.6436 17.5822 -2.5021 0.9311
0.3716 17.6534 -2.5018 0.9312
10.3097 2.6427 -1.7533 0.9578
10.2487 3.0249 -1.7604 0.9576
10.2479 3.4311 -1.7803 0.9571
10.2462 4.2746 -1.8289 0.9560
10.2433 5.6422 -1.9265 0.9537
10.2423 6.1333 -1.9667 0.9528
10.2402 7.1831 -2.0606 0.9506
10.2390 7.7480 -2.1153 0.9493
10.2378 8.3446 -2.1758 0.9479
10.2359 8.9766 -2.2428 0.9463
9.4185 10.2609 -2.2945 0.9451
8.8672 11.1817 -2.3510 0.9438
8.4578 11.4939 -2.3509 0.9438
7.8907 12.5239 -2.4385 0.9418
7.6308 13.1395 -2.5031 0.9403
6.6632 13.6545 -2.5030 0.9403
6.1661 13.8855 -2.5029 0.9403
5.6611 14.0984 -2.5028 0.9403
5.1487 14.2929 -2.5027 0.9403
3.5741 14.7638 -2.5024 0.9403
3.0392 14.8825 -2.5023 0.9403
1.4136 15.1219 -2.5020 0.9403
0.8672 15.1625 -2.5019 0.9403
10.2551 2.2378 -1.9729 0.9582
10.3114 2.6431 -2.0008 0.9576
9.9748 7.5481 -2.3512 0.9504
9.6959 7.9028 -2.3511 0.9504
9.1005 8.5809 -2.3510 0.9504
8.4578 9.2142 -2.3509 0.9504
7.9009 9.9633 -2.3901 0.9496
7.5009 11.0039 -2.5031 0.9472
7.0988 11.2670 -2.5030 0.9472
6.6876 11.5154 -2.5030 0.9472
5.8396 11.9669 -2.5028 0.9472
4.0575 12.6807 -2.5025 0.9473
2.1913 13.1306 -2.5022 0.9473
1.7162 13.2007 -2.5021 0.9473
1.2389 13.2535 -2.5020 0.9473
0.7600 13.2892 -2.5019 0.9473
0.2802 13.3075 -2.5018 0.9473
10.2553 2.2378 -2.2188 0.9580
10.2476 3.4310 -2.2843 0.9568
9.9299 5.0116 -2.3512 0.9555
9.7426 5.3664 -2.3511 0.9555
9.5425 5.7142 -2.3511 0.9555
9.1054 6.3871 -2.3510 0.9555
8.8690 6.7113 -2.3510 0.9555
8.6209 7.0267 -2.3509 0.9555
7.9040 8.0106 -2.3788 0.9550
7.8876 8.5930 -2.4656 0.9534
6.6694 9.7842 -2.5030 0.9527
6.3120 10.0182 -2.5029 0.9527
5.5730 10.4466 -2.5028 0.9527
5.1924 10.6406 -2.5027 0.9527
4.8051 10.8206 -2.5026 0.9527
4.4116 10.9866 -2.5026 0.9527
3.1987 11.3979 -2.5024 0.9528
2.3685 11.5981 -2.5022 0.9528
1.9485 11.6757 -2.5021 0.9528
1.5261 11.7380 -2.5021 0.9528
0.2491 11.8331 -2.5018 0.9528
9.7739 2.1328 -2.3511 0.9597
9.6905 2.4839 -2.3511 0.9597
9.4861 3.1760 -2.3511 0.9597
9.0872 4.1820 -2.3510 0.9597
8.9304 4.5071 -2.3510 0.9597
8.5819 5.1390 -2.3509 0.9597
8.1889 5.7442 -2.3508 0.9597
7.9762 6.0357 -2.3508 0.9597
7.8883 6.9178 -2.4658 0.9578
7.7492 7.3068 -2.5032 0.9572
6.9141 8.1006 -2.5030 0.9572
6.6173 8.3446 -2.5030 0.9572
5.9982 8.7995 -2.5029 0.9572
5.6768 9.0099 -2.5028 0.9572
5.3480 9.2086 -2.5027 0.9572
4.3216 9.7317 -2.5026 0.9572
2.8768 10.2510 -2.5023 0.9572
2.5051 10.3479 -2.5022 0.9572
0.6078 10.6280 -2.5019 0.9572
8.8713 1.9358 -2.3510 0.9632
8.7956 2.2545 -2.3510 0.9632
8.6101 2.8827 -2.3509 0.9632
8.3797 3.4959 -2.3509 0.9632
8.2480 3.7959 -2.3509 0.9632
8.1057 4.0909 -2.3508 0.9632
7.9528 4.3805 -2.3508 0.9632
7.8946 5.1231 -2.4367 0.9619
7.4937 6.1079 -2.5031 0.9608
7.2685 6.3742 -2.5031 0.9608
6.7898 6.8814 -2.5030 0.9608
6.2757 7.3527 -2.5029 0.9608
6.0064 7.5742 -2.5029 0.9608
5.1527 8.1781 -2.5027 0.9608
4.5495 8.5280 -2.5026 0.9608
4.2388 8.6863 -2.5025 0.9609
3.6014 8.9689 -2.5024 0.9609
2.9453 9.2048 -2.5023 0.9609
2.2739 9.3927 -2.5022 0.9609
1.9336 9.4684 -2.5021 0.9609
1.2458 9.5827 -2.5020 0.9609
0.8994 9.6212 -2.5019 0.9609
8.0441 2.0619 -2.3508 0.9661
7.9644 2.3504 -2.3508 0.9661
7.8981 3.2950 -2.4226 0.9650
7.8911 3.6316 -2.4591 0.9645
7.4171 4.8133 -2.5031 0.9639
7.2386 5.0776 -2.5031 0.9639
7.0507 5.3353 -2.5030 0.9639
6.8535 5.5861 -2.5030 0.9639
6.4328 6.0655 -2.5029 0.9639
6.2097 6.2935 -2.5029 0.9639
5.7396 6.7246 -2.5028 0.9639
4.7125 7.4795 -2.5026 0.9639
4.4396 7.6445 -2.5026 0.9639
4.1609 7.7995 -2.5025 0.9639
3.8768 7.9444 -2.5025 0.9639
3.5876 8.0788 -2.5024 0.9639
2.9957 8.3161 -2.5023 0.9639
2.6937 8.4186 -2.5023 0.9639
2.3882 8.5101 -2.5022 0.9639
2.0797 8.5905 -2.5022 0.9639
1.1395 8.7643 -2.5020 0.9639
0.5046 8.8232 -2.5019 0.9639
0.1860 8.8355 -2.5018 0.9639
7.8876 1.7212 -2.4831 0.9668
7.7173 2.5838 -2.5032 0.9665
7.6190 2.8605 -2.5031 0.9665
7.5108 3.1335 -2.5031 0.9665
7.2652 3.6667 -2.5031 0.9665
6.9818 4.1808 -2.5030 0.9665
6.8264 4.4299 -2.5030 0.9665
6.4891 4.9104 -2.5029 0.9665
6.1181 5.3653 -2.5029 0.9665
5.7151 5.7922 -2.5028 0.9665
5.5025 5.9946 -2.5028 0.9665
5.0558 6.3754 -2.5027 0.9665
4.8224 6.5535 -2.5026 0.9665
4.5828 6.7231 -2.5026 0.9665
3.3019 7.4356 -2.5024 0.9665
3.0315 7.5497 -2.5023 0.9665
2.7572 7.6540 -2.5023 0.9665
1.9141 7.9065 -2.5021 0.9665
0.7571 8.0989 -2.5019 0.9665
7.3572 1.6054 -2.5031 0.9688
7.1406 2.3907 -2.5031 0.9688
7.0496 2.6467 -2.5030 0.9688
6.9496 2.8993 -2.5030 0.9688
6.8404 3.1480 -2.5030 0.9688
6.5955 3.6329 -2.5030 0.9688
6.4602 3.8685 -2.5029 0.9688
5.6609 4.9645 -2.5028 0.9688
5.0913 5.5467 -2.5027 0.9688
4.8879 5.7266 -2.5027 0.9688
4.6781 5.8991 -2.5026 0.9688
4.4621 6.0639 -2.5026 0.9688
4.0132 6.3696 -2.5025 0.9688
3.7808 6.5101 -2.5025 0.9688
3.5434 6.6422 -2.5024 0.9688
3.0553 6.8801 -2.5023 0.9688
2.8051 6.9857 -2.5023 0.9688
2.2941 7.1695 -2.5022 0.9688
1.5061 7.3749 -2.5021 0.9688
1.2391 7.4243 -2.5020 0.9688
0.9704 7.4640 -2.5020 0.9688
0.1584 7.5247 -2.5018 0.9688
6.8384 1.4922 -2.5030 0.9707
6.7801 1.7379 -2.5030 0.9707
6.7130 1.9813 -2.5030 0.9707
6.6371 2.2222 -2.5030 0.9707
6.4596 2.6949 -2.5029 0.9707
6.3581 2.9261 -2.5029 0.9707
6.2484 3.1535 -2.5029 0.9707
6.1305 3.3768 -2.5029 0.9707
5.2618 4.6144 -2.5027 0.9707
4.7324 5.1556 -2.5026 0.9707
4.5433 5.3229 -2.5026 0.9707
4.3483 5.4833 -2.5026 0.9707
4.1476 5.6365 -2.5025 0.9707
3.9415 5.7823 -2.5025 0.9707
3.7304 5.9206 -2.5024 0.9707
2.8399 6.3951 -2.5023 0.9707
1.6463 6.8003 -2.5021 0.9707
1.3999 6.8552 -2.5020 0.9707
0.3995 6.9847 -2.5019 0.9707
6.3812 1.3925 -2.5029 0.9724
6.2642 1.8489 -2.5029 0.9724
6.1145 2.2956 -2.5029 0.9724
6.0277 2.5147 -2.5029 0.9724
5.9330 2.7305 -2.5028 0.9724
5.6032 3.3553 -2.5028 0.9724
5.4785 3.5552 -2.5028 0.9724
5.3466 3.7505 -2.5027 0.9724
5.2079 3.9408 -2.5027 0.9724
4.7515 4.4802 -2.5026 0.9724
4.2396 4.9671 -2.5025 0.9724
4.0576 5.1167 -2.5025 0.9724
3.8703 5.2597 -2.5025 0.9724
3.6780 5.3958 -2.5024 0.9724
3.2794 5.6467 -2.5024 0.9724
3.0735 5.7613 -2.5023 0.9724
2.8637 5.8683 -2.5023 0.9724
2.6501 5.9677 -2.5023 0.9724
2.4331 6.0593 -2.5022 0.9724
2.2129 6.1430 -2.5022 0.9724
1.9898 6.2187 -2.5021 0.9724
1.7642 6.2863 -2.5021 0.9724
1.5363 6.3458 -2.5021 0.9724
0.8417 6.4743 -2.5019 0.9724
0.6077 6.5003 -2.5019 0.9724
0.3728 6.5179 -2.5019 0.9724
5.9238 1.5184 -2.5028 0.9739
5.7251 2.1494 -2.5028 0.9739
5.5552 2.5565 -2.5028 0.9739
5.3563 2.9504 -2.5027 0.9739
5.0062 3.5116 -2.5027 0.9739
4.7398 3.8633 -2.5026 0.9739
4.4489 4.1949 -2.5026 0.9739
4.2946 4.3526 -2.5026 0.9739
3.4438 5.0521 -2.5024 0.9739
1.6518 5.8861 -2.5021 0.9739
1.2231 5.9896 -2.5020 0.9739
0.5690 6.0864 -2.5019 0.9739
0.3491 6.1029 -2.5018 0.9739
0.1287 6.1114 -2.5018 0.9739
5.6108 1.2243 -2.5028 0.9753
5.5629 1.4259 -2.5028 0.9753
5.5079 1.6256 -2.5028 0.9753
5.4456 1.8232 -2.5028 0.9753
5.3763 2.0185 -2.5027 0.9753
5.3000 2.2111 -2.5027 0.9753
5.2167 2.4008 -2.5027 0.9753
5.0300 2.7706 -2.5027 0.9753
4.9267 2.9502 -2.5027 0.9753
4.8171 3.1260 -2.5026 0.9753
4.7011 3.2977 -2.5026 0.9753
4.5791 3.4651 -2.5026 0.9753
3.5678 4.4990 -2.5024 0.9753
3.2340 4.7444 -2.5024 0.9753
3.0607 4.8579 -2.5023 0.9753
2.8835 4.9651 -2.5023 0.9753
2.7025 5.0658 -2.5023 0.9753
2.5180 5.1599 -2.5022 0.9753
2.1394 5.3279 -2.5022 0.9753
1.9458 5.4015 -2.5021 0.9753
1.7496 5.4681 -2.5021 0.9753
1.5512 5.5276 -2.5021 0.9753
1.3509 5.5798 -2.5020 0.9753
0.9450 5.6626 -2.5020 0.9753
0.3278 5.7312 -2.5018 0.9753
0.1209 5.7393 -2.5018 0.9753
5.1270 1.7166 -2.5027 0.9765
4.9116 2.2604 -2.5027 0.9765
4.7357 2.6085 -2.5026 0.9765
4.5353 2.9431 -2.5026 0.9765
3.9335 3.7089 -2.5025 0.9765
3.6558 3.9828 -2.5024 0.9765
3.0449 4.4669 -2.5023 0.9765
2.8818 4.5738 -2.5023 0.9765
2.5444 4.7695 -2.5022 0.9765
2.1939 4.9404 -2.5022 0.9765
2.0143 5.0163 -2.5021 0.9765
1.8320 5.0856 -2.5021 0.9765
1.0815 5.2959 -2.5020 0.9765
0.5031 5.3815 -2.5019 0.9765
0.3086 5.3961 -2.5018 0.9765
0.1137 5.4036 -2.5018 0.9765
4.9423 1.2668 -2.5027 0.9775
4.8934 1.4443 -2.5027 0.9775
4.8380 1.6198 -2.5026 0.9775
4.7765 1.7933 -2.5026 0.9775
4.7086 1.9644 -2.5026 0.9775
4.5547 2.2987 -2.5026 0.9775
4.2797 2.7772 -2.5025 0.9775
4.1767 2.9298 -2.5025 0.9775
4.0683 3.0785 -2.5025 0.9775
3.9545 3.2232 -2.5025 0.9775
3.8356 3.3637 -2.5025 0.9775
3.5831 3.6314 -2.5024 0.9775
3.4498 3.7583 -2.5024 0.9775
3.3119 3.8803 -2.5024 0.9775
3.1697 3.9971 -2.5023 0.9775
2.5619 4.4112 -2.5022 0.9775
2.2371 4.5844 -2.5022 0.9775
1.3782 4.9110 -2.5020 0.9775
1.2001 4.9575 -2.5020 0.9775
1.0206 4.9975 -2.5020 0.9775
0.8396 5.0310 -2.5019 0.9775
0.4747 5.0783 -2.5019 0.9775
0.2912 5.0921 -2.5018 0.9775
4.7132 1.0285 -2.5026 0.9785
4.6267 1.3656 -2.5026 0.9785
4.5163 1.6956 -2.5026 0.9785
4.2254 2.3274 -2.5025 0.9785
4.0465 2.6259 -2.5025 0.9785
3.7391 3.0476 -2.5025 0.9785
3.6267 3.1805 -2.5024 0.9785
3.5096 3.3092 -2.5024 0.9785
3.3879 3.4336 -2.5024 0.9785
3.1315 3.6689 -2.5023 0.9785
2.7168 3.9855 -2.5023 0.9785
2.4223 4.1709 -2.5022 0.9785
2.2703 4.2556 -2.5022 0.9785
2.1153 4.3346 -2.5022 0.9785
1.7972 4.4757 -2.5021 0.9785
0.6218 4.7824 -2.5019 0.9785
0.4488 4.8017 -2.5019 0.9785
0.1015 4.8214 -2.5018 0.9785
4.4642 0.9742 -2.5026 0.9794
4.3823 1.2935 -2.5026 0.9794
4.2777 1.6060 -2.5025 0.9794
3.7405 2.6238 -2.5025 0.9794
3.6434 2.7570 -2.5024 0.9794
3.4351 3.0125 -2.5024 0.9794
3.3242 3.1344 -2.5024 0.9794
2.9661 3.4751 -2.5023 0.9794
2.7078 3.6798 -2.5023 0.9794
2.5733 3.7750 -2.5022 0.9794
2.4354 3.8654 -2.5022 0.9794
2.1503 4.0308 -2.5022 0.9794
2.0035 4.1057 -2.5021 0.9794
1.7023 4.2394 -2.5021 0.9794
1.5482 4.2979 -2.5021 0.9794
1.0749 4.4399 -2.5020 0.9794
0.9140 4.4757 -2.5019 0.9794
0.7520 4.5057 -2.5019 0.9794
0.5889 4.5298 -2.5019 0.9794
0.4252 4.5481 -2.5019 0.9794
4.2349 0.9241 -2.5025 0.9802
4.1572 1.2270 -2.5025 0.9802
4.0579 1.5235 -2.5025 0.9802
4.0003 1.6689 -2.5025 0.9802
3.8696 1.9529 -2.5025 0.9802
3.6359 2.3595 -2.5024 0.9802
3.3597 2.7384 -2.5024 0.9802
3.2587 2.8578 -2.5024 0.9802
2.9308 3.1930 -2.5023 0.9802
2.8138 3.2966 -2.5023 0.9802
2.5687 3.4908 -2.5022 0.9802
2.1765 3.7477 -2.5022 0.9802
2.0399 3.8238 -2.5021 0.9802
1.7589 3.9608 -2.5021 0.9802
1.6149 4.0216 -2.5021 0.9802
1.4688 4.0772 -2.5020 0.9802
1.3207 4.1275 -2.5020 0.9802
1.1709 4.1724 -2.5020 0.9802
0.8671 4.2459 -2.5019 0.9802
0.7134 4.2744 -2.5019 0.9802
0.4033 4.3146 -2.5019 0.9802
0.0912 4.3323 -2.5018 0.9802
