ply
format ascii 1.0
element vertex 598
property float32 x
property float32 y
property float32 z
property float32 I
end_header
14.4263 -3.3779 2.6125 0.9416
29.6248 -3.6447 5.2630 0.8858
32.7518 18.8889 6.6666 0.8576
27.6064 18.6790 5.8773 0.8734
22.3011 18.8776 5.1520 0.8881
32.1238 29.2328 7.6585 0.8383
30.0785 29.4109 7.4177 0.8429
16.8084 18.9763 4.4699 0.9022
14.0670 -3.8307 2.2335 0.9427
14.0755 -2.7675 2.1976 0.9436
29.7598 18.6164 5.3776 0.8676
25.7425 18.7978 4.8831 0.8790
23.9015 18.8037 4.6589 0.8842
22.2494 18.8338 4.4657 0.8887
21.0697 19.1736 4.3642 0.8911
32.3021 36.4685 7.4632 0.8211
8.4845 10.3004 2.0444 0.9474
13.9520 -3.7994 1.8830 0.9433
13.9650 -3.2699 1.8677 0.9438
13.9779 -2.7483 1.8551 0.9442
32.8583 -4.0425 4.3111 0.8750
32.3158 18.6375 4.8579 0.8603
27.7579 18.7815 4.3643 0.8735
8.4847 10.3007 1.7378 0.9476
13.9519 -3.7993 1.5527 0.9435
13.9649 -3.2699 1.5401 0.9439
13.9778 -2.7483 1.5297 0.9443
32.8582 -4.0425 3.5550 0.8753
13.9778 -2.7483 1.2059 0.9444
32.8580 -4.0425 2.8025 0.8756
8.4851 10.3012 1.1298 0.9478
14.5925 19.0700 2.0327 0.9081
13.9518 -3.7993 0.8967 0.9437
13.9777 -2.7483 0.8834 0.9445
8.4853 10.3015 0.8276 0.9479
14.5133 18.9665 1.4810 0.9087
13.9517 -3.7993 0.5702 0.9438
13.9648 -3.2698 0.5655 0.9442
13.9777 -2.7483 0.5617 0.9446
8.4855 10.3017 0.5263 0.9480
13.9517 -3.7993 0.2443 0.9438
13.9776 -2.7483 0.2406 0.9446
9.8125 -1.2072 0.1670 0.9612
32.9352 18.9947 0.6422 0.8589
8.4858 10.3020 0.2255 0.9480
14.5131 18.9663 0.4034 0.9089
9.1424 -4.3621 -0.0570 0.9603
9.1419 -3.9659 -0.0561 0.9609
9.1412 -3.5820 -0.0553 0.9615
9.1696 -2.8539 -0.0541 0.9623
9.1301 -1.4573 -0.0521 0.9637
9.1284 -0.7921 -0.0516 0.9640
9.1234 1.1801 -0.0518 0.9639
9.1226 1.5143 -0.0521 0.9637
9.1209 2.1955 -0.0528 0.9632
9.1200 2.5445 -0.0533 0.9628
9.1172 2.8999 -0.0539 0.9625
9.1165 3.2640 -0.0545 0.9620
9.1150 4.0219 -0.0561 0.9609
9.1133 4.8290 -0.0581 0.9596
9.1125 5.2555 -0.0592 0.9588
9.1075 7.7095 -0.0672 0.9534
9.1031 8.2839 -0.0693 0.9520
9.1012 8.8993 -0.0717 0.9504
9.0969 10.2703 -0.0772 0.9466
9.0919 11.8818 -0.0842 0.9419
9.0891 12.8045 -0.0884 0.9391
9.1422 -4.3620 -0.2852 0.9603
9.1416 -3.9659 -0.2806 0.9609
9.1410 -3.5819 -0.2764 0.9615
9.1311 -1.7954 -0.2620 0.9634
9.1302 -1.4573 -0.2603 0.9637
9.1294 -1.1232 -0.2590 0.9639
9.1286 -0.7921 -0.2580 0.9640
9.1269 -0.1353 -0.2570 0.9641
9.1261 0.1920 -0.2570 0.9641
9.1253 0.5198 -0.2574 0.9641
9.1228 1.5143 -0.2604 0.9637
9.1219 1.8525 -0.2621 0.9634
9.1210 2.1956 -0.2642 0.9632
9.1202 2.5446 -0.2666 0.9628
9.1164 3.2640 -0.2727 0.9620
9.1148 4.0218 -0.2805 0.9609
9.1140 4.4184 -0.2852 0.9603
9.1115 5.6997 -0.3026 0.9579
9.1095 6.6520 -0.3176 0.9559
9.1085 7.1658 -0.3263 0.9547
9.1074 7.7093 -0.3360 0.9534
9.1015 8.8996 -0.3584 0.9503
9.0994 9.5594 -0.3716 0.9486
9.0973 10.2707 -0.3863 0.9466
9.1420 -4.3619 -0.5137 0.9602
9.1414 -3.9658 -0.5053 0.9609
9.1409 -3.5818 -0.4979 0.9614
9.1403 -3.2085 -0.4913 0.9619
9.1712 -2.8544 -0.4871 0.9623
9.1321 -2.1383 -0.4757 0.9631
9.1312 -1.7954 -0.4720 0.9634
9.1296 -1.1232 -0.4665 0.9638
9.1271 -0.1353 -0.4629 0.9641
9.1246 0.8489 -0.4647 0.9640
9.1237 1.1801 -0.4666 0.9638
9.1212 2.1956 -0.4758 0.9631
9.1203 2.5446 -0.4802 0.9628
9.1170 2.8998 -0.4852 0.9624
9.1147 4.0217 -0.5052 0.9609
9.1122 5.2553 -0.5335 0.9587
9.1104 6.1643 -0.5578 0.9569
9.1083 7.1657 -0.5877 0.9546
9.0976 10.2710 -0.6958 0.9465
8.4864 10.3028 -0.6769 0.9479
9.0898 12.8056 -0.7964 0.9390
9.1418 -4.3618 -0.7427 0.9602
9.1412 -3.9657 -0.7306 0.9608
9.1406 -3.5817 -0.7198 0.9614
9.1720 -2.8546 -0.7043 0.9622
9.1332 -2.4871 -0.6941 0.9627
9.1323 -2.1383 -0.6877 0.9631
9.1315 -1.7954 -0.6824 0.9634
9.1306 -1.4574 -0.6779 0.9636
9.1297 -1.1233 -0.6745 0.9638
9.1289 -0.7921 -0.6719 0.9639
9.1281 -0.4631 -0.6702 0.9640
9.1256 0.5198 -0.6702 0.9640
9.1248 0.8489 -0.6719 0.9639
9.1214 2.1956 -0.6879 0.9631
9.1205 2.5446 -0.6943 0.9627
9.1154 3.6374 -0.7196 0.9614
9.1121 5.2552 -0.7713 0.9587
9.1112 5.6996 -0.7880 0.9578
9.1092 6.6518 -0.8270 0.9558
9.1082 7.1656 -0.8497 0.9546
9.0979 10.2714 -1.0061 0.9465
9.0930 11.8832 -1.0971 0.9418
9.1410 -3.9656 -0.9566 0.9608
9.1404 -3.5816 -0.9425 0.9613
9.1399 -3.2084 -0.9300 0.9618
9.1728 -2.8549 -0.9223 0.9621
9.1334 -2.4872 -0.9088 0.9627
9.1325 -2.1384 -0.9005 0.9630
9.1316 -1.7955 -0.8935 0.9633
9.1307 -1.4574 -0.8877 0.9635
9.1299 -1.1233 -0.8831 0.9637
9.1282 -0.4631 -0.8775 0.9639
9.1266 0.1921 -0.8764 0.9640
9.1258 0.5198 -0.8775 0.9639
9.1249 0.8489 -0.8798 0.9638
9.1233 1.5144 -0.8879 0.9635
9.1216 2.1957 -0.9007 0.9630
9.1160 3.2638 -0.9296 0.9618
9.1153 3.6373 -0.9422 0.9613
9.1145 4.0216 -0.9564 0.9608
9.1128 4.8288 -0.9901 0.9594
9.1120 5.2552 -1.0099 0.9586
9.1110 5.6995 -1.0318 0.9577
9.1091 6.6517 -1.0829 0.9557
9.1080 7.1654 -1.1126 0.9545
9.1043 8.2850 -1.1818 0.9517
9.1024 8.9004 -1.2222 0.9501
9.1004 9.5604 -1.2672 0.9483
9.0982 10.2718 -1.3174 0.9464
9.0934 11.8837 -1.4366 0.9416
9.1408 -3.9655 -1.1836 0.9607
9.1402 -3.5816 -1.1661 0.9612
9.1397 -3.2083 -1.1506 0.9617
9.1736 -2.8551 -1.1412 0.9620
9.1336 -2.4872 -1.1244 0.9626
9.1327 -2.1384 -1.1142 0.9629
9.1318 -1.7955 -1.1055 0.9632
9.1309 -1.4575 -1.0984 0.9634
9.1293 -0.7921 -1.0885 0.9638
9.1284 -0.4631 -1.0857 0.9639
9.1276 -0.1353 -1.0844 0.9639
9.1268 0.1920 -1.0844 0.9639
9.1259 0.5198 -1.0858 0.9638
9.1243 1.1802 -1.0929 0.9636
9.1226 1.8526 -1.1058 0.9632
9.1217 2.1957 -1.1145 0.9629
9.1209 2.5447 -1.1248 0.9626
9.1166 2.8997 -1.1364 0.9622
9.1159 3.2638 -1.1502 0.9617
9.1151 3.6373 -1.1658 0.9612
9.1127 4.8287 -1.2250 0.9593
9.1118 5.2551 -1.2495 0.9585
9.1109 5.6994 -1.2766 0.9576
9.1089 6.6516 -1.3398 0.9556
9.1068 7.7088 -1.4173 0.9531
9.1046 8.2852 -1.4623 0.9516
9.1027 8.9008 -1.5123 0.9500
9.1007 9.5608 -1.5679 0.9482
8.4870 10.3035 -1.5857 0.9476
9.0938 11.8841 -1.7775 0.9415
9.1412 -4.3615 -1.4351 0.9599
9.1400 -3.5815 -1.3909 0.9611
9.1395 -3.2082 -1.3724 0.9616
9.1744 -2.8554 -1.3614 0.9619
9.1320 -1.7955 -1.3187 0.9631
9.1303 -1.1233 -1.3034 0.9635
9.1286 -0.4631 -1.2951 0.9637
9.1270 0.1921 -1.2935 0.9638
9.1261 0.5199 -1.2952 0.9637
9.1237 1.5145 -1.3104 0.9633
9.1157 3.2637 -1.3719 0.9616
9.1142 4.0215 -1.4115 0.9606
9.1117 5.2550 -1.4904 0.9584
9.1098 6.1639 -1.5585 0.9565
9.1077 7.1652 -1.6420 0.9543
9.1066 7.7087 -1.6905 0.9529
9.1048 8.2855 -1.7443 0.9515
9.1030 8.9011 -1.8039 0.9499
9.0941 11.8846 -2.1204 0.9413
9.1409 -4.3614 -1.6685 0.9598
9.1398 -3.5814 -1.6172 0.9610
9.1339 -2.4874 -1.5595 0.9624
9.1331 -2.1385 -1.5453 0.9627
9.1322 -1.7956 -1.5332 0.9630
9.1296 -0.7922 -1.5097 0.9635
9.1288 -0.4631 -1.5058 0.9636
9.1271 0.1920 -1.5039 0.9637
9.1263 0.5199 -1.5059 0.9636
9.1238 1.5145 -1.5236 0.9632
9.1212 2.5449 -1.5600 0.9623
9.1164 2.8996 -1.5760 0.9620
9.1149 3.6372 -1.6167 0.9610
9.1124 4.8285 -1.6989 0.9591
9.1106 5.6992 -1.7703 0.9574
9.1096 6.1638 -1.8120 0.9564
9.1087 6.6514 -1.8580 0.9553
9.1064 7.7085 -1.9655 0.9528
8.4874 10.3041 -2.1991 0.9473
8.6722 11.3332 -2.3509 0.9438
8.2600 11.6365 -2.3508 0.9438
9.1407 -4.3613 -1.9036 0.9596
9.1396 -3.5813 -1.8451 0.9608
9.1341 -2.4874 -1.7794 0.9622
9.1332 -2.1386 -1.7631 0.9625
9.1315 -1.4575 -1.7381 0.9631
9.1306 -1.1234 -1.7291 0.9633
9.1298 -0.7922 -1.7225 0.9634
9.1290 -0.4631 -1.7181 0.9635
9.1273 0.1920 -1.7160 0.9635
9.1265 0.5199 -1.7182 0.9635
9.1256 0.8490 -1.7227 0.9634
9.1248 1.1802 -1.7294 0.9632
9.1240 1.5145 -1.7384 0.9631
9.1223 2.1959 -1.7636 0.9625
9.1214 2.5449 -1.7800 0.9622
9.1163 2.8996 -1.7981 0.9618
9.1155 3.2637 -1.8199 0.9614
9.1123 4.8285 -1.9384 0.9589
9.1114 5.2548 -1.9770 0.9581
9.1105 5.6991 -2.0199 0.9572
9.1085 6.6512 -2.1199 0.9551
9.1074 7.1650 -2.1781 0.9539
9.1063 7.7084 -2.2425 0.9526
8.6234 9.0593 -2.3509 0.9504
8.2929 9.3625 -2.3508 0.9504
7.6002 9.9322 -2.3507 0.9504
9.1405 -4.3612 -2.1408 0.9594
9.1399 -3.9651 -2.1060 0.9601
9.1769 -2.8562 -2.0316 0.9615
9.1334 -2.1386 -1.9828 0.9624
9.1325 -1.7957 -1.9674 0.9627
9.1317 -1.4576 -1.9547 0.9629
9.1308 -1.1234 -1.9446 0.9631
9.1267 0.5199 -1.9323 0.9633
9.1250 1.1803 -1.9449 0.9631
9.1242 1.5146 -1.9551 0.9629
9.1233 1.8528 -1.9679 0.9627
9.1225 2.1959 -1.9834 0.9624
9.1216 2.5450 -2.0018 0.9620
9.1161 2.8996 -2.0221 0.9616
9.1154 3.2636 -2.0466 0.9612
9.1146 3.6371 -2.0744 0.9607
9.1138 4.0213 -2.1057 0.9601
9.1130 4.4179 -2.1407 0.9594
9.1113 5.2547 -2.2233 0.9579
9.1094 6.1636 -2.3249 0.9560
7.9516 7.7751 -2.3508 0.9556
7.3736 8.3246 -2.3507 0.9556
7.0702 8.5835 -2.3506 0.9556
6.7542 9.5152 -2.4665 0.9534
9.0282 -4.3077 -2.3510 0.9597
9.1391 -3.5812 -2.3069 0.9605
9.1336 -2.1387 -2.2047 0.9622
9.1327 -1.7957 -2.1875 0.9625
9.1319 -1.4576 -2.1734 0.9627
9.1302 -0.7922 -2.1539 0.9630
9.1285 -0.1354 -2.1456 0.9632
9.1277 0.1921 -2.1457 0.9632
9.1268 0.5199 -2.1485 0.9631
9.1244 1.5146 -2.1738 0.9627
9.1218 2.5450 -2.2257 0.9618
9.1160 2.8995 -2.2482 0.9615
9.1137 4.0213 -2.3412 0.9599
9.0012 4.3637 -2.3510 0.9597
8.8388 4.6836 -2.3509 0.9597
8.4802 5.3048 -2.3509 0.9597
8.2844 5.6054 -2.3508 0.9597
8.0780 5.8987 -2.3508 0.9597
7.6342 6.4623 -2.3507 0.9597
7.3975 6.7317 -2.3507 0.9597
6.8958 7.2443 -2.3506 0.9597
6.7677 7.6406 -2.3988 0.9589
6.7496 8.1942 -2.4950 0.9573
6.4718 8.4576 -2.5029 0.9572
6.1643 8.6841 -2.5029 0.9572
8.1945 -3.9099 -2.3508 0.9632
8.3295 -3.6136 -2.3509 0.9632
8.6696 -2.6983 -2.3509 0.9632
8.8408 -2.0701 -2.3509 0.9632
8.9094 -1.7518 -2.3510 0.9632
9.0121 -1.1088 -2.3510 0.9632
9.0461 -0.7849 -2.3510 0.9632
9.0409 0.8411 -2.3510 0.9632
8.9574 1.4869 -2.3510 0.9632
8.8277 2.1250 -2.3509 0.9632
8.7458 2.4401 -2.3509 0.9632
8.6526 2.7521 -2.3509 0.9632
8.4330 3.3651 -2.3509 0.9632
8.3069 3.6653 -2.3509 0.9632
8.1700 3.9607 -2.3508 0.9632
8.0227 4.2511 -2.3508 0.9632
7.8650 4.5359 -2.3508 0.9632
7.3321 5.3541 -2.3507 0.9632
6.9390 5.8737 -2.3539 0.9631
6.7735 6.1638 -2.3712 0.9629
6.6651 7.0020 -2.5030 0.9608
6.4096 7.2363 -2.5029 0.9608
6.1459 7.4614 -2.5029 0.9608
7.4943 -3.5758 -2.3507 0.9661
7.7314 -3.0296 -2.3508 0.9661
8.0122 -2.1819 -2.3508 0.9661
8.1481 -1.6021 -2.3508 0.9661
8.2003 -1.3089 -2.3508 0.9661
8.2420 -1.0140 -2.3508 0.9661
8.3023 0.1747 -2.3509 0.9661
8.2685 0.7692 -2.3508 0.9661
7.9985 2.2316 -2.3508 0.9661
7.9133 2.5170 -2.3508 0.9661
7.7124 3.0776 -2.3507 0.9661
7.4719 3.6223 -2.3507 0.9661
7.3371 3.8878 -2.3507 0.9661
7.1929 4.1484 -2.3507 0.9661
6.8770 4.6531 -2.3506 0.9661
6.7735 4.9462 -2.3743 0.9657
6.7484 5.7124 -2.5030 0.9639
6.0957 6.4038 -2.5029 0.9639
5.8620 6.6181 -2.5028 0.9639
5.3725 7.0210 -2.5027 0.9639
7.0110 -3.0416 -2.3506 0.9685
7.1156 -2.7883 -2.3506 0.9685
7.2973 -2.2712 -2.3507 0.9685
7.3740 -2.0081 -2.3507 0.9685
7.5471 -1.2046 -2.3507 0.9685
7.5855 -0.9333 -2.3507 0.9685
7.6419 -0.1133 -2.3507 0.9685
7.6098 0.7080 -2.3507 0.9685
7.5796 0.9804 -2.3507 0.9685
7.4897 1.5210 -2.3507 0.9685
7.4304 1.7886 -2.3507 0.9685
7.2830 2.3165 -2.3507 0.9685
6.9920 3.0851 -2.3506 0.9685
6.7811 3.5932 -2.3604 0.9684
6.7686 3.9037 -2.4033 0.9678
6.7398 4.5603 -2.5030 0.9665
6.5719 4.7990 -2.5029 0.9665
6.2109 5.2575 -2.5029 0.9665
6.0183 5.4767 -2.5028 0.9665
5.8180 5.6889 -2.5028 0.9665
5.6102 5.8938 -2.5028 0.9665
5.3952 6.0911 -2.5027 0.9665
5.1732 6.2805 -2.5027 0.9665
6.7562 -3.2236 -2.4883 0.9689
6.7692 -2.6525 -2.4167 0.9698
6.7747 -2.3781 -2.3866 0.9702
6.8230 -1.8580 -2.3506 0.9706
6.8852 -1.6122 -2.3506 0.9706
7.0451 -0.6113 -2.3506 0.9706
7.0601 0.4022 -2.3506 0.9706
7.0131 0.9071 -2.3506 0.9706
6.9761 1.1580 -2.3506 0.9706
6.7658 2.6998 -2.4214 0.9698
6.6535 3.5256 -2.5030 0.9688
6.5227 3.7618 -2.5029 0.9688
6.3836 3.9932 -2.5029 0.9688
6.2362 4.2195 -2.5029 0.9688
6.0808 4.4404 -2.5029 0.9688
5.9177 4.6555 -2.5028 0.9688
5.7468 4.8646 -2.5028 0.9688
5.5687 5.0675 -2.5028 0.9688
5.3833 5.2638 -2.5027 0.9688
5.1910 5.4534 -2.5027 0.9688
4.9921 5.6360 -2.5027 0.9688
6.3168 -3.0139 -2.5029 0.9707
6.4209 -2.7855 -2.5029 0.9707
6.6830 -2.0800 -2.5030 0.9707
6.7599 -1.3291 -2.4637 0.9712
6.7625 -1.0794 -2.4489 0.9713
6.7645 -0.8323 -2.4373 0.9715
6.7660 -0.5871 -2.4287 0.9716
6.7670 -0.3433 -2.4230 0.9716
6.7672 0.1424 -2.4205 0.9717
6.7665 0.3855 -2.4237 0.9716
6.7652 0.6294 -2.4297 0.9715
6.7611 1.1223 -2.4509 0.9713
6.7417 1.8810 -2.5030 0.9707
6.5895 2.3593 -2.5029 0.9707
6.4035 2.8254 -2.5029 0.9707
6.2979 3.0532 -2.5029 0.9707
6.1844 3.2770 -2.5029 0.9707
6.0629 3.4966 -2.5029 0.9707
5.3417 4.5217 -2.5027 0.9707
5.1761 4.7103 -2.5027 0.9707
5.0038 4.8928 -2.5027 0.9707
4.6401 5.2387 -2.5026 0.9707
4.2527 5.5576 -2.5025 0.9707
4.0506 5.7064 -2.5025 0.9707
5.9916 -2.5994 -2.5028 0.9724
6.0810 -2.3828 -2.5029 0.9724
6.1625 -2.1633 -2.5029 0.9724
6.3018 -1.7161 -2.5029 0.9724
6.3593 -1.4890 -2.5029 0.9724
6.4825 -0.7975 -2.5029 0.9724
6.5069 -0.5646 -2.5029 0.9724
6.5306 -0.0968 -2.5029 0.9724
6.4774 0.8378 -2.5029 0.9724
6.4432 1.0696 -2.5029 0.9724
6.3499 1.5285 -2.5029 0.9724
6.2910 1.7552 -2.5029 0.9724
6.0661 2.4206 -2.5029 0.9724
5.9753 2.6365 -2.5028 0.9724
5.8769 2.8490 -2.5028 0.9724
5.7709 3.0579 -2.5028 0.9724
5.6575 3.2629 -2.5028 0.9724
5.5368 3.4636 -2.5028 0.9724
5.4090 3.6598 -2.5027 0.9724
4.9846 4.2194 -2.5027 0.9724
4.8301 4.3954 -2.5026 0.9724
4.6693 4.5657 -2.5026 0.9724
4.5025 4.7301 -2.5026 0.9724
4.1518 5.0405 -2.5025 0.9724
3.9684 5.1861 -2.5025 0.9724
5.6100 -2.4338 -2.5028 0.9739
5.6937 -2.2311 -2.5028 0.9739
5.7700 -2.0255 -2.5028 0.9739
5.9542 -1.3942 -2.5028 0.9739
6.0004 -1.1798 -2.5028 0.9739
6.0696 -0.7468 -2.5029 0.9739
6.0925 -0.5287 -2.5029 0.9739
6.1075 -0.3099 -2.5029 0.9739
6.1055 0.3478 -2.5029 0.9739
6.0328 1.0014 -2.5029 0.9739
5.9455 1.4312 -2.5028 0.9739
5.8903 1.6434 -2.5028 0.9739
5.8276 1.8536 -2.5028 0.9739
5.7573 2.0613 -2.5028 0.9739
5.6797 2.2664 -2.5028 0.9739
5.5947 2.4686 -2.5028 0.9739
5.4034 2.8631 -2.5027 0.9739
5.1842 3.2430 -2.5027 0.9739
5.0646 3.4267 -2.5027 0.9739
4.9384 3.6061 -2.5027 0.9739
4.6671 3.9507 -2.5026 0.9739
4.5224 4.1154 -2.5026 0.9739
4.3719 4.2749 -2.5026 0.9739
3.8875 4.7195 -2.5025 0.9739
3.7157 4.8558 -2.5024 0.9739
5.4185 -1.9021 -2.5027 0.9753
5.4832 -1.7066 -2.5028 0.9753
5.5915 -1.3093 -2.5028 0.9753
5.6349 -1.1079 -2.5028 0.9753
5.6710 -0.9052 -2.5028 0.9753
5.6998 -0.7012 -2.5028 0.9753
5.7335 0.3266 -2.5028 0.9753
5.7181 0.5320 -2.5028 0.9753
5.6652 0.9404 -2.5028 0.9753
5.6279 1.1429 -2.5028 0.9753
5.5832 1.3440 -2.5028 0.9753
5.5314 1.5433 -2.5028 0.9753
5.3336 2.1283 -2.5027 0.9753
5.1673 2.5051 -2.5027 0.9753
5.0742 2.6887 -2.5027 0.9753
4.9744 2.8689 -2.5027 0.9753
4.8684 3.0454 -2.5026 0.9753
4.7560 3.2180 -2.5026 0.9753
4.6375 3.3864 -2.5026 0.9753
4.5130 3.5505 -2.5026 0.9753
4.1056 4.0145 -2.5025 0.9753
3.9589 4.1591 -2.5025 0.9753
3.8072 4.2983 -2.5025 0.9753
3.6506 4.4320 -2.5024 0.9753
4.8796 -2.3283 -2.5026 0.9765
4.9600 -2.1518 -2.5027 0.9765
5.0340 -1.9726 -2.5027 0.9765
5.1625 -1.6068 -2.5027 0.9765
5.3052 -1.0431 -2.5027 0.9764
5.3866 -0.4674 -2.5027 0.9764
5.3622 0.6936 -2.5027 0.9764
5.2986 1.0761 -2.5027 0.9764
5.2566 1.2654 -2.5027 0.9765
5.1524 1.6388 -2.5027 0.9765
5.0903 1.8225 -2.5027 0.9765
4.9466 2.1826 -2.5027 0.9765
4.7773 2.5314 -2.5026 0.9765
4.4778 3.0297 -2.5026 0.9765
3.9985 3.6387 -2.5025 0.9765
3.7274 3.9158 -2.5024 0.9765
3.5845 4.0469 -2.5024 0.9765
3.2852 4.2933 -2.5024 0.9765
3.1292 4.4082 -2.5023 0.9765
4.6804 -2.0305 -2.5026 0.9775
4.8140 -1.6899 -2.5026 0.9775
4.8715 -1.5162 -2.5026 0.9775
4.9228 -1.3406 -2.5027 0.9775
4.9677 -1.1632 -2.5027 0.9775
5.0062 -0.9843 -2.5027 0.9775
5.0830 -0.4411 -2.5027 0.9775
5.1015 -0.0756 -2.5027 0.9775
5.0938 0.2902 -2.5027 0.9775
5.0801 0.4726 -2.5027 0.9775
5.0599 0.6545 -2.5027 0.9775
5.0332 0.8355 -2.5027 0.9775
4.8620 1.5464 -2.5026 0.9775
4.8034 1.7197 -2.5026 0.9775
4.7386 1.8909 -2.5026 0.9775
4.6677 2.0596 -2.5026 0.9775
4.2254 2.8590 -2.5025 0.9775
4.1202 3.0086 -2.5025 0.9775
4.0096 3.1544 -2.5025 0.9775
3.8939 3.2961 -2.5025 0.9775
3.5173 3.6951 -2.5024 0.9775
3.3825 3.8188 -2.5024 0.9775
3.2434 3.9376 -2.5024 0.9775
3.1001 4.0513 -2.5023 0.9775
2.9528 4.1598 -2.5023 0.9775
4.4254 -1.9199 -2.5026 0.9785
4.6546 -1.2675 -2.5026 0.9785
4.6970 -1.0998 -2.5026 0.9785
4.7638 -0.7604 -2.5026 0.9785
4.7880 -0.5891 -2.5026 0.9785
4.8060 -0.4170 -2.5026 0.9785
4.8179 -0.2445 -2.5026 0.9785
4.8230 0.1015 -2.5026 0.9785
4.8033 0.4469 -2.5026 0.9785
4.7842 0.6188 -2.5026 0.9785
4.7589 0.7899 -2.5026 0.9785
4.7276 0.9601 -2.5026 0.9785
4.6901 1.1289 -2.5026 0.9785
4.5971 1.4622 -2.5026 0.9785
4.4804 1.7879 -2.5026 0.9785
4.3407 2.1043 -2.5026 0.9785
4.2625 2.2586 -2.5025 0.9785
3.9952 2.7032 -2.5025 0.9785
3.8957 2.8447 -2.5025 0.9785
3.1982 3.6107 -2.5023 0.9785
2.7919 3.9332 -2.5023 0.9785
4.1237 -1.9676 -2.5025 0.9794
4.1917 -1.8185 -2.5025 0.9794
4.2542 -1.6670 -2.5025 0.9794
4.3628 -1.3579 -2.5026 0.9794
4.4834 -0.8815 -2.5026 0.9794
4.5121 -0.7202 -2.5026 0.9794
4.5688 -0.0678 -2.5026 0.9794
4.5682 0.0961 -2.5026 0.9794
4.5315 0.5861 -2.5026 0.9794
4.4423 1.0693 -2.5026 0.9794
4.3542 1.3849 -2.5026 0.9794
4.1114 1.9932 -2.5025 0.9794
4.0373 2.1393 -2.5025 0.9794
3.9579 2.2827 -2.5025 0.9794
3.5909 2.8250 -2.5024 0.9794
3.3791 3.0750 -2.5024 0.9794
3.1500 3.3092 -2.5023 0.9794
2.7764 3.6283 -2.5023 0.9794
2.6445 3.7254 -2.5023 0.9794
3.9764 -1.7251 -2.5025 0.9802
4.0898 -1.4357 -2.5025 0.9802
4.1387 -1.2881 -2.5025 0.9802
4.1822 -1.1389 -2.5025 0.9802
4.2204 -0.9882 -2.5025 0.9802
4.2531 -0.8363 -2.5025 0.9802
4.2804 -0.6832 -2.5025 0.9802
4.3336 0.0912 -2.5026 0.9802
4.3275 0.2465 -2.5025 0.9802
4.2760 0.7098 -2.5025 0.9802
4.1750 1.1648 -2.5025 0.9802
4.1306 1.3138 -2.5025 0.9802
4.0258 1.6064 -2.5025 0.9802
3.9656 1.7497 -2.5025 0.9802
3.7547 2.1654 -2.5024 0.9802
3.6746 2.2986 -2.5024 0.9802
3.5898 2.4289 -2.5024 0.9802
3.5004 2.5560 -2.5024 0.9802
3.3081 2.8003 -2.5024 0.9802
3.2056 2.9171 -2.5024 0.9802
2.9882 3.1393 -2.5023 0.9802
2.7555 3.3453 -2.5023 0.9802
