ply
format ascii 1.0
element vertex 521
property float32 x
property float32 y
property float32 z
property float32 I
end_header
22.9680 34.9470 7.3738 0.8438
22.9204 37.7664 7.7897 0.8357
9.4879 18.5147 3.6683 0.9190
16.3509 38.4968 7.3749 0.8438
15.9821 41.7387 7.8807 0.8340
25.1860 41.4994 7.4367 0.8216
9.4867 18.5123 3.1867 0.9193
19.4854 41.6485 7.0441 0.8302
17.7093 41.6952 6.9397 0.8325
-20.9020 28.0066 5.3536 0.8681
-21.1643 24.4712 4.9564 0.8773
-21.2054 22.8072 4.7708 0.8816
9.4854 18.5100 2.7084 0.9195
-20.9600 32.7561 5.0640 0.8548
-21.1200 26.2725 4.3896 0.8729
-21.2656 22.8721 4.0669 0.8816
17.6923 41.6551 4.8597 0.8335
-20.9601 32.7563 4.1759 0.8552
-21.2658 22.8722 3.3536 0.8819
-20.9497 30.2839 3.1172 0.8626
-21.1202 26.2729 2.8536 0.8734
-21.1647 24.4716 2.7389 0.8782
-21.2057 22.8076 2.6363 0.8825
9.4818 18.5029 1.2893 0.9201
-20.9604 32.7568 2.4115 0.8557
-21.0189 30.3840 2.2910 0.8624
-21.1204 26.2730 2.0903 0.8736
-21.1648 24.4718 2.0063 0.8784
15.7090 41.0255 1.7322 0.8387
-19.9219 33.7478 1.5453 0.8548
-20.9606 32.7570 1.5334 0.8558
-21.0191 30.3842 1.4568 0.8625
-21.1205 26.2732 1.3292 0.8738
-21.2079 22.8099 1.2281 0.8828
9.4795 18.4982 0.3511 0.9202
15.7068 41.0197 0.7420 0.8389
-19.7324 43.5538 0.8077 0.8259
-20.9607 32.7572 0.6569 0.8559
-20.9498 30.2839 0.6220 0.8630
-20.9911 28.1261 0.5928 0.8690
-21.1256 24.4265 0.5455 0.8788
-21.2187 22.8215 0.5264 0.8828
8.8149 14.5245 -0.0957 0.9343
8.8025 18.8147 -0.1169 0.9203
8.7840 25.6678 -0.1527 0.8972
8.7696 28.9883 -0.1705 0.8859
8.7463 38.7750 -0.2238 0.8530
8.7189 46.3613 -0.2656 0.8280
-20.8779 35.3672 -0.2312 0.8485
-20.9609 32.7575 -0.2190 0.8559
-19.4091 24.1443 -0.1744 0.8835
8.8147 13.4121 -0.4519 0.9378
8.8109 15.7698 -0.5086 0.9303
8.8068 17.1857 -0.5438 0.9256
8.7871 22.9483 -0.6919 0.9063
8.7846 25.6695 -0.7640 0.8971
8.7703 28.9905 -0.8528 0.8859
8.7631 33.2342 -0.9678 0.8715
8.7447 38.7679 -1.1190 0.8530
8.7188 46.3609 -1.3283 0.8280
-18.9440 46.1602 -1.4050 0.8190
-19.1535 35.2853 -1.1305 0.8516
-19.1488 32.4381 -1.0607 0.8601
-19.3106 25.8743 -0.9091 0.8788
-19.4257 22.4610 -0.8362 0.8880
8.8151 13.4127 -0.8140 0.9377
8.8142 14.5235 -0.8616 0.9342
8.8017 18.8130 -1.0533 0.9202
8.7923 20.7010 -1.1406 0.9139
8.7872 22.9486 -1.2462 0.9063
8.7852 25.6712 -1.3760 0.8970
8.7619 33.2295 -1.7428 0.8714
8.7431 38.7608 -2.0151 0.8529
8.5676 45.5565 -2.3509 0.8306
2.0746 49.2944 -2.5021 0.8207
-3.2436 49.2130 -2.5012 0.8208
-5.0100 49.0585 -2.5009 0.8208
-8.5201 48.5597 -2.5003 0.8208
-10.2591 48.2162 -2.5000 0.8208
-11.9252 47.5744 -2.4873 0.8217
-13.6938 47.3431 -2.4994 0.8209
-17.5654 42.8012 -2.3463 0.8309
-18.9317 41.7864 -2.3265 0.8322
-20.1934 40.6196 -2.3005 0.8339
-19.1534 35.2853 -2.0361 0.8515
-19.3108 25.8745 -1.6374 0.8787
-19.3551 24.0771 -1.5667 0.8836
-19.3958 22.4263 -1.5037 0.8880
-19.4333 20.9014 -1.4474 0.8920
8.8103 15.7686 -1.3244 0.9301
8.8061 17.1844 -1.4158 0.9255
8.7924 20.7012 -1.6491 0.9137
8.7872 22.9489 -1.8018 0.9061
6.3091 33.5472 -2.5029 0.8721
0.2083 34.1202 -2.5018 0.8721
-2.2436 34.0412 -2.5014 0.8721
-4.6830 33.7862 -2.5010 0.8721
-5.8941 33.5931 -2.5007 0.8722
-9.4743 32.7551 -2.5001 0.8722
-11.8015 31.9845 -2.4997 0.8722
-14.0670 31.0489 -2.4993 0.8722
-16.9290 28.6776 -2.4418 0.8750
-18.2044 26.3155 -2.3462 0.8796
-18.8994 25.3234 -2.3169 0.8810
-19.4335 20.9015 -2.0926 0.8918
8.8158 13.4139 -1.5410 0.9375
8.8136 14.5225 -1.6309 0.9340
8.8099 15.7680 -1.7341 0.9300
8.8057 17.1837 -1.8537 0.9253
8.7925 20.7014 -2.1593 0.9136
7.9282 23.1669 -2.3508 0.9063
7.0897 23.4354 -2.3506 0.9063
3.8936 25.7735 -2.5025 0.9006
-2.6470 25.9192 -2.5013 0.9006
-4.5019 25.6587 -2.5010 0.9006
-6.3332 25.2657 -2.5007 0.9006
-7.2370 25.0201 -2.5005 0.9006
-10.7459 23.7186 -2.4999 0.9007
-11.5910 23.3156 -2.4998 0.9007
-13.2348 22.4199 -2.4995 0.9007
-15.5692 20.8613 -2.4991 0.9007
-16.3083 20.2870 -2.4989 0.9007
-16.9340 18.2132 -2.3876 0.9049
8.8162 13.4145 -1.9068 0.9374
8.8133 14.5219 -2.0178 0.9339
8.8054 17.1829 -2.2935 0.9252
7.7364 18.2148 -2.3507 0.9234
6.4926 18.9719 -2.3819 0.9224
5.3719 20.3728 -2.5027 0.9186
3.8937 20.7040 -2.5025 0.9186
1.6417 20.9996 -2.5021 0.9187
0.8857 21.0439 -2.5019 0.9187
-0.6287 21.0509 -2.5017 0.9187
-2.1394 20.9492 -2.5014 0.9187
-2.8910 20.8576 -2.5013 0.9187
-4.3818 20.5938 -2.5010 0.9187
-7.9918 19.4734 -2.5004 0.9187
-9.3695 18.8470 -2.5001 0.9187
-10.0405 18.4971 -2.5000 0.9187
-10.6985 18.1233 -2.4999 0.9187
-11.3426 17.7262 -2.4998 0.9187
-12.5860 16.8639 -2.4996 0.9187
-13.1835 16.3999 -2.4995 0.9187
8.6083 14.1840 -2.3509 0.9352
8.0925 14.4838 -2.3508 0.9352
7.5663 14.7648 -2.3507 0.9352
6.5053 15.3161 -2.3578 0.9350
6.3167 16.4966 -2.5029 0.9311
4.5033 17.0786 -2.5026 0.9311
3.8862 17.2288 -2.5025 0.9311
3.2642 17.3566 -2.5024 0.9311
0.1078 17.6566 -2.5018 0.9312
-2.4237 17.4867 -2.5014 0.9312
-3.0507 17.3875 -2.5012 0.9312
-4.9044 16.9557 -2.5009 0.9312
-6.1095 16.5581 -2.5007 0.9312
-6.7006 16.3271 -2.5006 0.9312
-7.2829 16.0750 -2.5005 0.9312
-7.8558 15.8021 -2.5004 0.9312
-9.5104 14.8628 -2.5001 0.9312
-10.0382 14.5107 -2.5000 0.9312
-10.5530 14.1400 -2.4999 0.9312
-11.0541 13.7510 -2.4999 0.9312
-12.0128 12.9203 -2.4997 0.9312
7.8372 11.9247 -2.3507 0.9438
7.4032 12.1984 -2.3507 0.9438
6.4384 13.7615 -2.5029 0.9403
5.9392 13.9836 -2.5028 0.9403
5.4325 14.1876 -2.5027 0.9403
4.9188 14.3732 -2.5026 0.9403
3.8730 14.6884 -2.5025 0.9403
3.3424 14.8176 -2.5024 0.9403
0.6386 15.1736 -2.5019 0.9403
0.0927 15.1862 -2.5018 0.9403
-0.4533 15.1791 -2.5017 0.9403
-1.5427 15.1061 -2.5015 0.9403
-3.1597 14.8505 -2.5012 0.9403
-3.6914 14.7268 -2.5011 0.9403
-5.2550 14.2422 -2.5009 0.9403
-5.7634 14.0436 -2.5008 0.9403
-7.7158 13.0707 -2.5004 0.9403
-8.6345 12.4816 -2.5003 0.9403
-9.5085 11.8282 -2.5001 0.9403
-9.9272 11.4784 -2.5001 0.9403
6.5076 10.7227 -2.3576 0.9502
6.0728 11.8504 -2.5028 0.9472
5.6427 12.0607 -2.5028 0.9472
5.2053 12.2554 -2.5027 0.9472
4.3110 12.5969 -2.5025 0.9473
2.4605 13.0831 -2.5022 0.9473
0.0813 13.3100 -2.5018 0.9473
-0.3973 13.3038 -2.5017 0.9473
-0.8753 13.2805 -2.5016 0.9473
-1.3521 13.2400 -2.5015 0.9473
-1.8271 13.1824 -2.5015 0.9473
-3.2355 12.9078 -2.5012 0.9473
-5.0516 12.3092 -2.5009 0.9473
-5.4907 12.1193 -2.5008 0.9473
-6.3470 11.6927 -2.5007 0.9473
-6.7630 11.4566 -2.5006 0.9473
-7.5683 10.9404 -2.5005 0.9473
-7.9565 10.6610 -2.5004 0.9473
-8.3344 10.3678 -2.5003 0.9473
-8.7015 10.0612 -2.5003 0.9473
5.7752 10.3363 -2.5028 0.9527
4.6284 10.8971 -2.5026 0.9527
4.2335 11.0562 -2.5025 0.9528
3.8332 11.2009 -2.5025 0.9528
3.0183 11.4467 -2.5023 0.9528
2.6048 11.5475 -2.5022 0.9528
2.1879 11.6333 -2.5022 0.9528
1.3462 11.7598 -2.5020 0.9528
-0.3533 11.8299 -2.5017 0.9528
-0.7783 11.8092 -2.5016 0.9528
-2.8771 11.4780 -2.5013 0.9528
-3.2878 11.3668 -2.5012 0.9528
-3.6942 11.2410 -2.5011 0.9528
-4.4921 10.9459 -2.5010 0.9528
-4.8826 10.7770 -2.5009 0.9528
-5.2667 10.5942 -2.5009 0.9528
-7.0754 9.4804 -2.5005 0.9528
-7.7380 8.9471 -2.5004 0.9528
5.5250 9.1036 -2.5027 0.9572
5.1940 9.2961 -2.5027 0.9572
4.1626 9.8006 -2.5025 0.9572
3.4475 10.0738 -2.5024 0.9572
3.0830 10.1910 -2.5023 0.9572
2.7146 10.2950 -2.5023 0.9572
2.3427 10.3857 -2.5022 0.9572
1.2108 10.5767 -2.5020 0.9572
0.0650 10.6447 -2.5018 0.9572
-0.3177 10.6399 -2.5017 0.9572
-1.0813 10.5890 -2.5016 0.9572
-1.4613 10.5429 -2.5015 0.9572
-1.8393 10.4833 -2.5015 0.9572
-2.9571 10.2236 -2.5013 0.9572
-3.6840 9.9841 -2.5011 0.9572
-4.7371 9.5288 -2.5010 0.9572
-5.0764 9.3521 -2.5009 0.9572
-5.4093 9.1633 -2.5008 0.9572
-6.9599 8.0475 -2.5006 0.9572
5.3088 8.0777 -2.5027 0.9608
5.0149 8.2632 -2.5027 0.9608
4.7145 8.4379 -2.5026 0.9608
3.7784 8.8959 -2.5024 0.9609
3.4561 9.0257 -2.5024 0.9609
2.7985 9.2503 -2.5023 0.9609
1.0991 9.6005 -2.5020 0.9609
0.7532 9.6336 -2.5019 0.9609
0.4063 9.6542 -2.5019 0.9609
0.0590 9.6623 -2.5018 0.9609
-0.9816 9.6118 -2.5016 0.9609
-1.6696 9.5160 -2.5015 0.9609
-2.0105 9.4496 -2.5014 0.9609
-2.3489 9.3710 -2.5014 0.9609
-3.0161 9.1775 -2.5013 0.9609
-3.3440 9.0630 -2.5012 0.9609
-3.6675 8.9367 -2.5011 0.9609
-4.3000 8.6497 -2.5010 0.9609
-4.6081 8.4893 -2.5010 0.9609
-4.9102 8.3180 -2.5009 0.9609
-5.4950 7.9433 -2.5008 0.9609
-5.7769 7.7405 -2.5008 0.9609
-6.3179 7.3051 -2.5007 0.9609
4.8553 7.3876 -2.5026 0.9639
4.5865 7.5573 -2.5026 0.9639
4.0315 7.8670 -2.5025 0.9639
3.7460 8.0067 -2.5024 0.9639
3.4557 8.1360 -2.5024 0.9639
2.2536 8.5466 -2.5022 0.9639
1.9448 8.6219 -2.5021 0.9639
1.6336 8.6861 -2.5021 0.9639
1.3202 8.7390 -2.5020 0.9639
0.6888 8.8109 -2.5019 0.9639
0.3716 8.8297 -2.5018 0.9639
0.0540 8.8372 -2.5018 0.9639
-0.5811 8.8179 -2.5017 0.9639
-1.2131 8.7529 -2.5016 0.9639
-1.5270 8.7034 -2.5015 0.9639
-1.8389 8.6427 -2.5015 0.9639
-2.1483 8.5708 -2.5014 0.9639
-3.3545 8.1737 -2.5012 0.9639
-3.9329 7.9112 -2.5011 0.9639
-4.4910 7.6079 -2.5010 0.9639
-4.7615 7.4414 -2.5010 0.9639
-5.0259 7.2652 -2.5009 0.9639
-5.2837 7.0797 -2.5009 0.9639
-5.5347 6.8851 -2.5008 0.9639
-5.7786 6.6815 -2.5008 0.9639
4.4687 6.7994 -2.5026 0.9665
4.2213 6.9555 -2.5025 0.9665
3.7105 7.2406 -2.5024 0.9665
3.4477 7.3691 -2.5024 0.9665
3.1805 7.4882 -2.5023 0.9665
2.9092 7.5975 -2.5023 0.9665
2.3557 7.7866 -2.5022 0.9665
1.7900 7.9354 -2.5021 0.9665
1.2151 8.0432 -2.5020 0.9665
0.9251 8.0815 -2.5019 0.9665
0.3421 8.1268 -2.5018 0.9665
-0.5349 8.1159 -2.5017 0.9665
-0.8263 8.0912 -2.5016 0.9665
-1.6925 7.9548 -2.5015 0.9665
-1.9773 7.8886 -2.5014 0.9665
-2.2596 7.8123 -2.5014 0.9665
-2.8151 7.6294 -2.5013 0.9665
-3.0874 7.5232 -2.5012 0.9665
-3.3558 7.4071 -2.5012 0.9665
-4.1336 7.0024 -2.5011 0.9665
-4.6259 6.6871 -2.5010 0.9665
-5.3187 6.1498 -2.5009 0.9665
4.1349 6.2914 -2.5025 0.9688
3.4333 6.6996 -2.5024 0.9688
3.1902 6.8186 -2.5023 0.9688
2.6919 7.0300 -2.5023 0.9688
1.9192 7.2785 -2.5021 0.9688
1.6563 7.3427 -2.5021 0.9688
1.3912 7.3974 -2.5020 0.9688
1.1244 7.4424 -2.5020 0.9688
0.8561 7.4779 -2.5019 0.9688
0.5867 7.5037 -2.5019 0.9688
0.0460 7.5262 -2.5018 0.9688
-0.4949 7.5097 -2.5017 0.9688
-0.7646 7.4870 -2.5017 0.9688
-1.0332 7.4545 -2.5016 0.9688
-1.5661 7.3607 -2.5015 0.9688
-1.8297 7.2995 -2.5015 0.9688
-3.3496 6.7379 -2.5012 0.9688
-3.8249 6.4795 -2.5011 0.9688
-4.5001 6.0298 -2.5010 0.9688
-5.1229 5.5100 -2.5009 0.9688
3.6306 5.9822 -2.5024 0.9707
3.1913 6.2274 -2.5023 0.9707
2.9653 6.3380 -2.5023 0.9707
1.5396 6.8252 -2.5021 0.9707
1.2932 6.8760 -2.5020 0.9707
1.0451 6.9179 -2.5020 0.9707
0.7957 6.9509 -2.5019 0.9707
0.2942 6.9898 -2.5018 0.9707
-0.2088 6.9927 -2.5017 0.9707
-0.9604 6.9292 -2.5016 0.9707
-1.2089 6.8901 -2.5016 0.9707
-1.4557 6.8420 -2.5015 0.9707
-1.7008 6.7852 -2.5015 0.9707
-2.1839 6.6452 -2.5014 0.9707
-2.4212 6.5622 -2.5014 0.9707
-2.8865 6.3711 -2.5013 0.9707
-3.7696 5.8912 -2.5011 0.9707
-4.5749 5.2898 -2.5010 0.9707
-4.7620 5.1218 -2.5010 0.9707
3.5864 5.4570 -2.5024 0.9724
3.3879 5.5823 -2.5024 0.9724
3.1850 5.7004 -2.5023 0.9724
2.7671 5.9144 -2.5023 0.9724
2.3349 6.0977 -2.5022 0.9724
1.8907 6.2495 -2.5021 0.9724
1.2067 6.4164 -2.5020 0.9724
0.7426 6.4863 -2.5019 0.9724
0.5089 6.5087 -2.5019 0.9724
0.0399 6.5283 -2.5018 0.9724
-0.1948 6.5254 -2.5018 0.9724
-0.4293 6.5140 -2.5017 0.9724
-0.6632 6.4943 -2.5017 0.9724
-0.8962 6.4661 -2.5016 0.9724
-1.1281 6.4296 -2.5016 0.9724
-1.8137 6.2705 -2.5015 0.9724
-2.2595 6.1237 -2.5014 0.9724
-2.6936 5.9454 -2.5013 0.9724
-2.9055 5.8446 -2.5013 0.9724
-3.1137 5.7363 -2.5012 0.9724
-3.5178 5.4976 -2.5012 0.9724
-3.7131 5.3675 -2.5011 0.9724
-4.4438 4.7796 -2.5010 0.9724
3.3580 5.1095 -2.5024 0.9739
3.1722 5.2268 -2.5023 0.9739
2.9822 5.3374 -2.5023 0.9739
2.7883 5.4411 -2.5023 0.9739
2.5909 5.5377 -2.5022 0.9739
2.3901 5.6272 -2.5022 0.9739
2.1862 5.7094 -2.5022 0.9739
1.9795 5.7842 -2.5021 0.9739
1.7703 5.8516 -2.5021 0.9739
1.5587 5.9114 -2.5021 0.9739
1.3452 5.9635 -2.5020 0.9739
0.9132 6.0445 -2.5019 0.9739
0.2571 6.1074 -2.5018 0.9739
-0.1824 6.1099 -2.5018 0.9739
-0.4020 6.0993 -2.5017 0.9739
-0.6210 6.0808 -2.5017 0.9739
-0.8392 6.0545 -2.5016 0.9739
-1.6982 5.8713 -2.5015 0.9739
-2.1156 5.7339 -2.5014 0.9739
-2.7206 5.4726 -2.5013 0.9739
-2.9155 5.3712 -2.5013 0.9739
-3.2938 5.1477 -2.5012 0.9739
-3.4767 5.0259 -2.5012 0.9739
-3.6551 4.8976 -2.5011 0.9739
-3.8288 4.7629 -2.5011 0.9739
-4.1610 4.4754 -2.5011 0.9739
2.6185 5.1096 -2.5022 0.9753
2.2445 5.2845 -2.5022 0.9753
2.0531 5.3617 -2.5021 0.9753
1.8589 5.4319 -2.5021 0.9753
1.6625 5.4952 -2.5021 0.9753
1.4638 5.5513 -2.5020 0.9753
1.2633 5.6003 -2.5020 0.9753
0.4475 5.7232 -2.5019 0.9753
-0.1713 5.7378 -2.5018 0.9753
-0.3775 5.7279 -2.5017 0.9753
-0.5831 5.7105 -2.5017 0.9753
-0.7880 5.6858 -2.5016 0.9753
-1.3956 5.5676 -2.5015 0.9753
-1.5948 5.5138 -2.5015 0.9753
-1.9868 5.3848 -2.5014 0.9753
-2.1791 5.3098 -2.5014 0.9753
-2.3686 5.2280 -2.5014 0.9753
-2.9175 4.9424 -2.5013 0.9753
-3.0933 4.8342 -2.5012 0.9753
-3.2650 4.7199 -2.5012 0.9753
-3.4326 4.5994 -2.5012 0.9753
-3.5957 4.4729 -2.5012 0.9753
2.9691 4.5176 -2.5023 0.9765
2.6367 4.7191 -2.5022 0.9765
2.4654 4.8108 -2.5022 0.9765
2.2908 4.8963 -2.5022 0.9765
1.9330 5.0481 -2.5021 0.9765
1.7502 5.1142 -2.5021 0.9765
1.5652 5.1738 -2.5021 0.9765
1.3782 5.2266 -2.5020 0.9765
0.9991 5.3120 -2.5020 0.9765
0.8074 5.3444 -2.5019 0.9765
0.6148 5.3699 -2.5019 0.9765
-0.3554 5.3929 -2.5017 0.9765
-0.7420 5.3533 -2.5017 0.9765
-0.9339 5.3231 -2.5016 0.9765
-1.1246 5.2860 -2.5016 0.9765
-1.3140 5.2421 -2.5016 0.9765
-1.8706 5.0699 -2.5015 0.9765
-2.4055 4.8389 -2.5014 0.9765
-2.5779 4.7492 -2.5013 0.9765
-2.9125 4.5516 -2.5013 0.9765
-3.3854 4.2114 -2.5012 0.9765
2.6466 4.3609 -2.5022 0.9775
2.4881 4.4532 -2.5022 0.9775
1.8241 4.7636 -2.5021 0.9775
1.4770 4.8822 -2.5020 0.9775
1.3005 4.9321 -2.5020 0.9775
1.1224 4.9756 -2.5020 0.9775
0.9427 5.0127 -2.5019 0.9775
0.5801 5.0674 -2.5019 0.9775
0.3975 5.0848 -2.5019 0.9775
0.2145 5.0958 -2.5018 0.9775
-0.1522 5.0979 -2.5018 0.9775
-0.5181 5.0737 -2.5017 0.9775
-0.8813 5.0232 -2.5016 0.9775
-1.0613 4.9882 -2.5016 0.9775
-1.5921 4.8447 -2.5015 0.9775
-1.9361 4.7177 -2.5014 0.9775
-2.1044 4.6450 -2.5014 0.9775
-2.5922 4.3913 -2.5013 0.9775
-2.7484 4.2952 -2.5013 0.9775
-2.9010 4.1936 -2.5013 0.9775
-3.1947 3.9742 -2.5012 0.9775
-3.4720 3.7343 -2.5012 0.9775
2.6491 4.0307 -2.5022 0.9785
2.5025 4.1233 -2.5022 0.9785
1.8855 4.4393 -2.5021 0.9785
1.7247 4.5041 -2.5021 0.9785
1.2297 4.6635 -2.5020 0.9785
0.8914 4.7396 -2.5019 0.9785
0.3759 4.8079 -2.5019 0.9785
0.0295 4.8224 -2.5018 0.9785
-0.3171 4.8119 -2.5017 0.9785
-0.6620 4.7765 -2.5017 0.9785
-0.8333 4.7496 -2.5016 0.9785
-1.0035 4.7165 -2.5016 0.9785
-1.1724 4.6773 -2.5016 0.9785
-1.3398 4.6321 -2.5016 0.9785
-1.6691 4.5238 -2.5015 0.9785
-1.8307 4.4608 -2.5015 0.9785
-2.3002 4.2376 -2.5014 0.9785
-2.5987 4.0613 -2.5013 0.9785
-3.1539 3.6467 -2.5012 0.9785
-3.2829 3.5309 -2.5012 0.9785
1.7860 4.2048 -2.5021 0.9794
1.4792 4.3221 -2.5020 0.9794
1.1648 4.4172 -2.5020 0.9794
0.8443 4.4894 -2.5019 0.9794
0.5196 4.5383 -2.5019 0.9794
0.3561 4.5540 -2.5018 0.9794
0.1921 4.5638 -2.5018 0.9794
0.0279 4.5677 -2.5018 0.9794
-0.7893 4.4988 -2.5016 0.9794
-1.1105 4.4304 -2.5016 0.9794
-1.2690 4.3875 -2.5016 0.9794
-1.4260 4.3390 -2.5015 0.9794
-1.5810 4.2849 -2.5015 0.9794
-2.4615 3.8469 -2.5014 0.9794
-2.9873 3.4542 -2.5013 0.9794
-3.1096 3.3445 -2.5012 0.9794
2.3804 3.6218 -2.5022 0.9802
2.2486 3.7050 -2.5022 0.9802
2.1139 3.7834 -2.5022 0.9802
1.8366 3.9254 -2.5021 0.9802
1.5497 4.0471 -2.5021 0.9802
1.4032 4.1002 -2.5020 0.9802
0.9536 4.2273 -2.5020 0.9802
0.8010 4.2588 -2.5019 0.9802
0.3378 4.3201 -2.5018 0.9802
0.1822 4.3294 -2.5018 0.9802
0.0265 4.3331 -2.5018 0.9802
-0.1293 4.3312 -2.5018 0.9802
-0.5949 4.2920 -2.5017 0.9802
-0.7487 4.2678 -2.5017 0.9802
-1.4998 4.0649 -2.5015 0.9802
-1.9287 3.8797 -2.5014 0.9802
-2.0669 3.8078 -2.5014 0.9802
-2.2024 3.7310 -2.5014 0.9802
-2.3351 3.6494 -2.5014 0.9802
-2.4647 3.5630 -2.5014 0.9802
-2.5912 3.4721 -2.5013 0.9802
