ply
format ascii 1.0
element vertex 587
property float32 x
property float32 y
property float32 z
property float32 I
end_header
13.2895 -22.8571 4.6620 0.8982
13.3796 -21.2087 4.4216 0.9032
13.3701 -19.5869 4.1816 0.9082
13.4359 -16.9150 3.8090 0.9160
13.4647 -15.7471 3.6533 0.9193
13.4912 -14.6696 3.5142 0.9222
13.5159 -13.6698 3.3896 0.9249
13.5604 -11.8634 3.1769 0.9294
13.9596 -11.3486 3.1722 0.9295
15.0757 -11.3761 3.3302 0.9262
17.6877 -11.4405 3.7143 0.9180
13.2894 -22.8569 4.0504 0.8985
13.4044 -18.1885 3.4613 0.9126
13.4358 -16.9149 3.3093 0.9163
13.4646 -15.7470 3.1740 0.9196
13.4912 -14.6695 3.0532 0.9225
13.5387 -12.7373 2.8477 0.9275
13.5603 -11.8634 2.7601 0.9297
16.3104 -11.4066 3.0491 0.9226
19.2378 -11.4787 3.4319 0.9133
8.6600 -1.2227 1.3398 0.9652
13.2893 -22.8567 3.4429 0.8988
13.4043 -18.1884 2.9422 0.9129
13.4357 -16.9148 2.8130 0.9166
13.4432 -15.7220 2.6937 0.9199
13.5243 -14.7055 2.6017 0.9226
13.5871 -12.7828 2.4293 0.9275
13.9596 -11.3486 2.3427 0.9300
15.1862 -11.4596 2.4774 0.9261
12.8280 -3.7566 1.7406 0.9475
12.8522 -2.7739 1.7122 0.9483
8.6585 -1.2225 1.1387 0.9653
13.2612 -21.0209 2.6689 0.9048
13.3703 -19.5871 2.5466 0.9090
13.4043 -18.1883 2.4262 0.9131
13.4356 -16.9147 2.3196 0.9168
13.4432 -15.7220 2.2213 0.9201
13.5242 -14.7055 2.1454 0.9228
13.5156 -13.6696 2.0642 0.9256
13.9596 -11.3486 1.9319 0.9302
16.3104 -11.4066 2.1372 0.9231
13.3644 -21.1846 2.1204 0.9043
13.3703 -19.5871 2.0076 0.9092
13.4042 -18.1882 1.9126 0.9133
13.4356 -16.9146 1.8286 0.9169
13.4432 -15.7220 1.7511 0.9203
13.5241 -14.7054 1.6913 0.9229
13.5155 -13.6695 1.6273 0.9257
13.5601 -11.8632 1.5252 0.9302
15.1862 -11.4595 1.6105 0.9265
16.3105 -11.4066 1.6849 0.9232
19.2379 -11.4787 1.8964 0.9140
12.8279 -3.7566 1.1315 0.9478
12.8401 -3.2612 1.1215 0.9482
8.6554 -1.2220 0.7400 0.9655
13.3365 -22.9379 1.6453 0.8991
13.3643 -21.1844 1.5532 0.9045
13.3156 -19.5070 1.4646 0.9097
13.4355 -16.9145 1.3395 0.9171
13.4643 -15.7466 1.2847 0.9203
13.4909 -14.6692 1.2358 0.9232
13.5155 -13.6695 1.1920 0.9259
13.9596 -11.3486 1.1156 0.9304
15.0757 -11.3761 1.1711 0.9271
12.8154 -4.2616 0.8375 0.9473
12.8279 -3.7566 0.8289 0.9478
31.2614 -3.2662 1.9491 0.8816
13.2889 -22.8560 1.0425 0.8996
13.4040 -18.1879 0.8909 0.9135
13.4908 -14.6691 0.7858 0.9233
13.0561 -11.4222 0.6840 0.9329
16.3105 -11.4066 0.7848 0.9234
19.2379 -11.4788 0.8833 0.9142
12.8278 -3.7566 0.5271 0.9479
8.6522 -1.2216 0.3446 0.9656
11.4995 -19.7784 0.3865 0.9125
12.8904 -18.8842 0.3862 0.9126
13.4353 -16.9143 0.3649 0.9172
13.4907 -14.6690 0.3366 0.9234
19.2379 -11.4787 0.3784 0.9143
12.8277 -3.7565 0.2258 0.9479
12.8400 -3.2611 0.2238 0.9484
31.2612 -3.2661 0.5309 0.8818
13.3362 -22.9374 -0.1494 0.8993
13.4038 -18.1877 -0.1272 0.9136
13.4352 -16.9142 -0.1216 0.9172
13.4906 -14.6689 -0.1122 0.9234
8.0193 -5.6082 -0.0551 0.9616
8.0187 -5.1865 -0.0538 0.9625
8.0175 -4.3988 -0.0515 0.9641
8.0170 -4.0286 -0.0505 0.9647
8.0164 -3.6717 -0.0496 0.9653
8.0154 -2.9913 -0.0482 0.9664
8.0081 -2.6630 -0.0475 0.9668
8.0073 -2.3449 -0.0470 0.9672
8.0058 -1.7279 -0.0461 0.9678
8.0050 -1.4270 -0.0458 0.9680
8.0043 -1.1301 -0.0455 0.9682
8.0035 -0.8362 -0.0453 0.9683
8.0020 -0.2545 -0.0451 0.9685
8.0006 0.3244 -0.0451 0.9685
7.9991 0.9064 -0.0453 0.9683
7.9961 2.1053 -0.0466 0.9675
7.9953 2.4174 -0.0470 0.9671
13.3361 -22.9372 -0.7471 0.8993
13.3312 -21.1318 -0.7035 0.9049
13.4352 -16.9141 -0.6082 0.9172
8.0205 -6.5203 -0.2911 0.9595
8.0198 -6.0517 -0.2829 0.9606
8.0191 -5.6081 -0.2755 0.9616
8.0185 -5.1864 -0.2689 0.9625
8.0179 -4.7840 -0.2629 0.9633
8.0162 -3.6715 -0.2483 0.9653
8.0157 -3.3262 -0.2444 0.9659
8.0083 -2.6631 -0.2376 0.9668
8.0075 -2.3450 -0.2349 0.9672
8.0067 -2.0336 -0.2326 0.9675
8.0044 -1.1301 -0.2276 0.9682
8.0029 -0.5446 -0.2259 0.9684
8.0022 -0.2545 -0.2254 0.9685
8.0007 0.3244 -0.2255 0.9685
8.0000 0.6146 -0.2259 0.9684
7.9993 0.9064 -0.2267 0.9683
7.9985 1.2006 -0.2277 0.9682
7.9978 1.4979 -0.2291 0.9680
7.9970 1.7992 -0.2308 0.9677
7.9962 2.1054 -0.2328 0.9675
7.9954 2.4174 -0.2352 0.9671
13.2885 -22.8554 -1.3408 0.8995
13.3310 -21.1316 -1.2671 0.9048
11.8285 -17.3285 -1.0640 0.9194
13.4037 -18.1875 -1.1458 0.9135
8.0226 -8.1140 -0.5787 0.9553
8.0210 -7.0172 -0.5405 0.9582
8.0189 -5.6079 -0.4963 0.9616
8.0177 -4.7839 -0.4735 0.9633
8.0171 -4.3987 -0.4638 0.9640
8.0166 -4.0284 -0.4550 0.9647
8.0084 -2.6631 -0.4280 0.9668
8.0038 -0.8363 -0.4081 0.9683
8.0024 -0.2545 -0.4060 0.9684
8.0016 0.0349 -0.4058 0.9685
8.0001 0.6146 -0.4069 0.9684
7.9972 1.7992 -0.4157 0.9677
7.9964 2.1054 -0.4194 0.9674
7.9956 2.4175 -0.4236 0.9671
11.7051 -20.1320 -1.7075 0.9108
11.2653 -17.8570 -1.5481 0.9188
12.2036 -17.8780 -1.5871 0.9168
12.7897 -17.3544 -1.5807 0.9172
11.5265 -14.5112 -1.3588 0.9284
12.1027 -13.1597 -1.3109 0.9308
8.0216 -7.5467 -0.8075 0.9568
8.0208 -7.0170 -0.7814 0.9582
8.0201 -6.5200 -0.7579 0.9594
8.0194 -6.0514 -0.7366 0.9605
8.0175 -4.7838 -0.6846 0.9632
8.0169 -4.3985 -0.6705 0.9640
8.0159 -3.6714 -0.6465 0.9653
8.0154 -3.3261 -0.6363 0.9658
8.0148 -2.9911 -0.6273 0.9663
8.0070 -2.0337 -0.6057 0.9674
8.0062 -1.7280 -0.6006 0.9677
8.0040 -0.8363 -0.5901 0.9682
8.0018 0.0349 -0.5867 0.9684
8.0011 0.3244 -0.5871 0.9684
7.9996 0.9064 -0.5903 0.9682
7.9988 1.2006 -0.5931 0.9681
7.9958 2.4175 -0.6125 0.9671
11.2587 -19.3641 -2.1504 0.9139
11.5376 -16.9023 -1.9647 0.9211
11.5690 -15.6980 -1.8721 0.9246
11.5234 -14.5073 -1.7787 0.9283
12.0179 -14.0550 -1.7754 0.9284
12.0415 -13.0933 -1.7078 0.9310
8.0221 -8.1135 -1.0954 0.9552
8.0213 -7.5465 -1.0573 0.9567
8.0205 -7.0168 -1.0231 0.9581
8.0192 -6.0512 -0.9645 0.9604
8.0167 -4.3984 -0.8779 0.9639
8.0162 -4.0282 -0.8613 0.9646
8.0156 -3.6713 -0.8464 0.9652
8.0147 -2.9910 -0.8213 0.9662
8.0088 -2.6632 -0.8103 0.9667
8.0079 -2.3451 -0.8011 0.9670
8.0064 -1.7280 -0.7864 0.9676
8.0056 -1.4271 -0.7807 0.9679
8.0034 -0.5446 -0.7701 0.9683
8.0027 -0.2545 -0.7687 0.9683
8.0019 0.0349 -0.7682 0.9684
8.0012 0.3244 -0.7688 0.9683
8.0004 0.6146 -0.7703 0.9683
7.9990 1.2006 -0.7765 0.9680
7.9975 1.7993 -0.7870 0.9676
7.9960 2.4176 -0.8020 0.9670
11.0889 -16.2450 -2.3364 0.9238
11.1206 -15.0896 -2.2266 0.9273
11.4730 -14.4438 -2.1911 0.9284
12.0182 -14.0554 -2.1967 0.9282
8.0196 -6.5196 -1.2277 0.9592
8.0177 -5.1858 -1.1342 0.9623
8.0171 -4.7836 -1.1090 0.9631
8.0166 -4.3983 -1.0862 0.9638
8.0089 -2.6633 -1.0026 0.9666
8.0081 -2.3452 -0.9912 0.9669
8.0073 -2.0338 -0.9814 0.9673
8.0065 -1.7281 -0.9730 0.9675
8.0058 -1.4272 -0.9660 0.9678
8.0050 -1.1302 -0.9603 0.9680
8.0043 -0.8363 -0.9560 0.9681
8.0036 -0.5446 -0.9529 0.9682
8.0028 -0.2545 -0.9511 0.9683
8.0013 0.3244 -0.9512 0.9683
8.0006 0.6146 -0.9532 0.9682
7.9992 1.2007 -0.9608 0.9679
7.9976 1.7993 -0.9738 0.9675
7.9969 2.1056 -0.9823 0.9672
7.9961 2.4176 -0.9923 0.9669
8.3395 -14.3433 -2.3508 0.9352
8.8528 -14.0330 -2.3509 0.9352
9.3546 -13.7043 -2.3510 0.9352
10.3211 -12.9936 -2.3512 0.9352
10.7844 -12.6124 -2.3512 0.9352
8.0217 -8.1130 -1.6166 0.9550
8.0187 -6.0509 -1.4234 0.9602
8.0175 -5.1857 -1.3529 0.9622
8.0158 -4.0280 -1.2711 0.9644
8.0148 -3.3259 -1.2295 0.9656
8.0091 -2.6634 -1.1959 0.9665
8.0083 -2.3452 -1.1823 0.9669
8.0075 -2.0338 -1.1706 0.9672
8.0067 -1.7281 -1.1606 0.9675
8.0059 -1.4272 -1.1522 0.9677
8.0052 -1.1302 -1.1455 0.9679
8.0037 -0.5447 -1.1367 0.9681
8.0015 0.3244 -1.1347 0.9682
8.0000 0.9065 -1.1408 0.9680
7.9993 1.2007 -1.1461 0.9678
7.9986 1.4980 -1.1530 0.9677
7.9978 1.7994 -1.1615 0.9674
7.9971 2.1056 -1.1717 0.9671
7.9962 2.4177 -1.1836 0.9668
7.6135 -12.0684 -2.3507 0.9438
8.0450 -11.7857 -2.3508 0.9438
8.4660 -11.4875 -2.3508 0.9438
8.8760 -11.1744 -2.3509 0.9438
9.2744 -10.8465 -2.3510 0.9438
8.0206 -7.5458 -1.8142 0.9563
8.0199 -7.0162 -1.7554 0.9577
8.0192 -6.5192 -1.7026 0.9590
8.0185 -6.0507 -1.6549 0.9601
8.0179 -5.6072 -1.6118 0.9611
8.0161 -4.3981 -1.5063 0.9636
8.0141 -2.9908 -1.4092 0.9659
8.0069 -1.7281 -1.3494 0.9673
8.0061 -1.4272 -1.3397 0.9676
8.0053 -1.1303 -1.3319 0.9678
8.0046 -0.8363 -1.3258 0.9679
8.0031 -0.2545 -1.3191 0.9681
8.0017 0.3244 -1.3193 0.9681
7.9980 1.7994 -1.3505 0.9673
6.2856 -10.8106 -2.3505 0.9504
7.0506 -10.3289 -2.3506 0.9504
7.7788 -9.7930 -2.3507 0.9504
8.4664 -9.2059 -2.3508 0.9504
8.0212 -8.1125 -2.1443 0.9546
8.0204 -7.5456 -2.0698 0.9562
8.0196 -7.0160 -2.0028 0.9576
8.0149 -3.6710 -1.6570 0.9648
8.0139 -2.9907 -1.6078 0.9658
8.0094 -2.6635 -1.5865 0.9662
8.0086 -2.3453 -1.5685 0.9666
8.0063 -1.4273 -1.5286 0.9674
8.0055 -1.1303 -1.5196 0.9676
8.0047 -0.8363 -1.5128 0.9678
8.0025 0.0349 -1.5042 0.9680
7.9996 1.2007 -1.5205 0.9676
7.9989 1.4981 -1.5296 0.9674
7.9981 1.7994 -1.5409 0.9672
7.9974 2.1057 -1.5544 0.9669
6.2691 -9.1840 -2.3505 0.9556
6.9165 -8.7075 -2.3506 0.9556
7.2270 -8.4520 -2.3506 0.9556
7.5279 -8.1854 -2.3507 0.9556
7.8190 -7.9081 -2.3507 0.9556
8.0202 -7.5453 -2.3276 0.9560
8.0188 -6.5189 -2.1845 0.9586
8.0169 -5.1853 -2.0182 0.9617
8.0138 -2.9907 -1.8081 0.9656
8.0096 -2.6635 -1.7842 0.9661
8.0080 -2.0339 -1.7465 0.9668
8.0049 -0.8364 -1.7013 0.9676
8.0042 -0.5447 -1.6958 0.9677
8.0034 -0.2545 -1.6926 0.9678
8.0027 0.0349 -1.6916 0.9678
8.0005 0.9066 -1.7020 0.9676
7.9983 1.7995 -1.7329 0.9670
7.9967 2.4178 -1.7659 0.9664
5.3525 -9.2059 -2.5027 0.9572
5.6617 -8.2943 -2.3602 0.9596
5.9332 -8.0507 -2.3504 0.9597
6.2204 -7.8311 -2.3505 0.9597
6.4996 -7.6013 -2.3505 0.9597
7.0320 -7.1121 -2.3506 0.9597
7.2846 -6.8534 -2.3506 0.9597
7.5278 -6.5857 -2.3507 0.9597
7.7611 -6.3094 -2.3507 0.9597
8.0172 -5.6067 -2.2993 0.9606
8.0167 -5.1852 -2.2439 0.9615
8.0161 -4.7830 -2.1939 0.9624
8.0145 -3.6707 -2.0718 0.9644
8.0098 -2.6636 -1.9838 0.9659
8.0089 -2.3454 -1.9613 0.9663
8.0081 -2.0339 -1.9419 0.9666
8.0051 -0.8364 -1.8916 0.9675
8.0036 -0.2545 -1.8820 0.9676
8.0029 0.0349 -1.8809 0.9677
7.9969 2.4179 -1.9635 0.9663
4.8583 -8.3560 -2.5026 0.9608
5.1573 -8.1751 -2.5027 0.9608
5.6384 -7.6507 -2.4607 0.9615
5.8995 -6.8995 -2.3504 0.9632
6.3828 -6.4554 -2.3505 0.9632
6.6121 -6.2206 -2.3505 0.9632
7.6233 -4.9308 -2.3507 0.9632
7.7967 -4.6521 -2.3507 0.9632
8.0148 -4.0275 -2.3225 0.9636
8.0134 -2.9905 -2.2146 0.9653
8.0091 -2.3454 -2.1608 0.9661
8.0083 -2.0340 -2.1393 0.9664
8.0060 -1.1303 -2.0935 0.9671
8.0053 -0.8364 -2.0840 0.9673
8.0045 -0.5447 -2.0773 0.9674
8.0038 -0.2546 -2.0734 0.9675
8.0030 0.0349 -2.0721 0.9675
8.0015 0.6147 -2.0779 0.9674
8.0001 1.2008 -2.0946 0.9671
7.9971 2.4179 -2.1632 0.9661
4.4434 -7.6422 -2.5026 0.9639
4.9841 -7.3015 -2.5026 0.9639
5.2448 -7.1167 -2.5027 0.9639
5.4987 -6.9226 -2.5027 0.9639
5.6557 -6.1495 -2.3652 0.9659
6.2489 -5.4669 -2.3505 0.9661
6.4426 -5.2376 -2.3505 0.9661
6.9720 -4.5095 -2.3506 0.9661
7.1305 -4.2546 -2.3506 0.9661
7.2797 -3.9941 -2.3506 0.9661
7.8796 -2.6203 -2.3507 0.9661
7.9692 -2.3337 -2.3508 0.9661
8.0085 -2.0340 -2.3391 0.9662
8.0077 -1.7283 -2.3191 0.9665
8.0069 -1.4274 -2.3024 0.9668
8.0062 -1.1304 -2.2890 0.9669
8.0046 -0.5447 -2.2713 0.9672
8.0039 -0.2546 -2.2670 0.9673
8.0025 0.3244 -2.2673 0.9673
7.9485 2.4032 -2.3508 0.9661
4.0895 -7.0337 -2.5025 0.9665
4.8272 -6.5500 -2.5026 0.9665
5.2879 -6.1842 -2.5027 0.9665
5.5081 -5.9892 -2.5027 0.9665
5.9295 -4.8204 -2.3504 0.9685
6.0999 -4.6030 -2.3504 0.9685
6.2624 -4.3795 -2.3505 0.9685
6.4167 -4.1504 -2.3505 0.9685
6.5626 -3.9157 -2.3505 0.9685
6.6999 -3.6760 -2.3505 0.9685
6.8285 -3.4314 -2.3506 0.9685
6.9481 -3.1824 -2.3506 0.9685
7.4073 -1.8813 -2.3507 0.9685
7.4705 -1.6124 -2.3507 0.9685
7.5239 -1.3413 -2.3507 0.9685
7.6250 -0.5189 -2.3507 0.9685
7.6426 0.0334 -2.3507 0.9685
7.6364 0.3096 -2.3507 0.9685
7.5940 0.8605 -2.3507 0.9685
7.5579 1.1345 -2.3507 0.9685
7.3906 1.9459 -2.3507 0.9685
3.7840 -6.5082 -2.5024 0.9688
4.6827 -5.8953 -2.5026 0.9688
4.8928 -5.7222 -2.5026 0.9688
5.7945 -4.0523 -2.3504 0.9706
5.9372 -3.8402 -2.3504 0.9706
6.4289 -2.9446 -2.3505 0.9706
6.5312 -2.7103 -2.3505 0.9706
6.6249 -2.4724 -2.3505 0.9706
6.7864 -1.9873 -2.3506 0.9706
6.9617 -1.2410 -2.3506 0.9706
7.0020 -0.9886 -2.3506 0.9706
7.0552 -0.4801 -2.3506 0.9706
7.0715 0.0309 -2.3506 0.9706
7.0507 0.5417 -2.3506 0.9706
6.9506 1.3018 -2.3506 0.9706
3.5172 -6.0494 -2.5024 0.9707
4.7373 -5.1510 -2.5026 0.9707
5.2673 -4.6081 -2.5027 0.9707
5.5866 -4.2156 -2.5028 0.9707
5.6368 -3.9420 -2.4598 0.9712
5.9757 -2.7370 -2.3504 0.9725
6.0708 -2.5192 -2.3504 0.9725
6.2370 -2.0740 -2.3505 0.9725
6.3079 -1.8472 -2.3505 0.9725
6.4249 -1.3867 -2.3505 0.9725
6.4709 -1.1535 -2.3505 0.9725
6.5083 -0.9189 -2.3505 0.9725
6.5373 -0.6830 -2.3505 0.9725
6.5578 -0.4462 -2.3505 0.9725
6.5696 -0.2089 -2.3505 0.9725
6.5729 0.0287 -2.3505 0.9725
6.5675 0.2663 -2.3505 0.9725
6.5536 0.5035 -2.3505 0.9725
6.5001 0.9757 -2.3505 0.9725
3.2821 -5.6450 -2.5024 0.9724
3.4841 -5.5228 -2.5024 0.9724
3.6815 -5.3933 -2.5024 0.9724
3.8741 -5.2568 -2.5025 0.9724
4.2439 -4.9632 -2.5025 0.9724
4.4206 -4.8067 -2.5026 0.9724
4.5915 -4.6438 -2.5026 0.9724
5.0674 -4.1196 -2.5027 0.9724
5.4838 -3.5469 -2.5027 0.9724
5.6357 -3.0921 -2.4634 0.9728
5.6436 -2.8360 -2.4204 0.9733
5.6676 -2.3519 -2.3515 0.9741
5.8200 -1.9353 -2.3504 0.9741
5.9954 -1.2940 -2.3504 0.9741
6.0382 -1.0764 -2.3504 0.9741
6.1304 -0.1950 -2.3504 0.9741
6.1334 0.0268 -2.3504 0.9741
6.1284 0.2485 -2.3504 0.9741
6.0945 0.6906 -2.3504 0.9741
6.0286 1.1291 -2.3504 0.9741
5.9838 1.3462 -2.3504 0.9741
5.8708 1.7751 -2.3504 0.9741
3.0731 -5.2856 -2.5023 0.9739
3.4471 -5.0499 -2.5024 0.9739
3.6274 -4.9220 -2.5024 0.9739
3.9737 -4.6472 -2.5025 0.9739
4.2991 -4.3480 -2.5025 0.9739
4.8810 -3.6832 -2.5026 0.9739
5.0111 -3.5044 -2.5027 0.9739
5.1345 -3.3210 -2.5027 0.9739
5.4640 -2.7458 -2.5027 0.9739
5.6296 -2.3361 -2.4945 0.9740
5.6355 -2.1032 -2.4619 0.9743
5.6408 -1.8758 -2.4329 0.9746
5.6494 -1.4349 -2.3855 0.9751
5.6528 -1.2200 -2.3668 0.9753
5.6638 -1.0097 -2.3546 0.9754
5.6863 -0.8029 -2.3504 0.9755
5.7399 -0.1825 -2.3504 0.9755
5.7428 0.0251 -2.3504 0.9755
5.7381 0.2326 -2.3504 0.9755
5.7063 0.6466 -2.3504 0.9755
5.6792 0.8524 -2.3504 0.9755
5.6605 1.0601 -2.3570 0.9754
5.6509 1.2713 -2.3706 0.9753
3.4064 -4.6222 -2.5024 0.9753
3.8869 -4.2264 -2.5025 0.9753
4.1822 -3.9346 -2.5025 0.9753
4.4556 -3.6222 -2.5026 0.9753
4.5837 -3.4588 -2.5026 0.9753
4.7058 -3.2909 -2.5026 0.9753
4.8217 -3.1187 -2.5026 0.9753
4.9313 -2.9424 -2.5026 0.9753
5.3040 -2.2010 -2.5027 0.9753
5.4492 -1.8121 -2.5027 0.9753
5.5112 -1.6139 -2.5027 0.9753
5.6295 -1.0035 -2.4921 0.9754
5.6318 -0.7951 -2.4788 0.9755
5.6336 -0.5886 -2.4686 0.9756
5.6348 -0.3835 -2.4614 0.9757
5.6326 0.6382 -2.4705 0.9756
5.6305 0.8451 -2.4814 0.9755
5.6279 1.0539 -2.4953 0.9753
5.6027 1.2605 -2.5028 0.9753
5.5534 1.4622 -2.5027 0.9753
2.7171 -4.6733 -2.5023 0.9765
3.0478 -4.4649 -2.5023 0.9765
3.2072 -4.3519 -2.5023 0.9765
3.3625 -4.2331 -2.5024 0.9765
3.5133 -4.1088 -2.5024 0.9765
3.6596 -3.9792 -2.5024 0.9765
4.0690 -3.5597 -2.5025 0.9765
4.1950 -3.4104 -2.5025 0.9765
4.7400 -2.6006 -2.5026 0.9765
4.8309 -2.4276 -2.5026 0.9765
5.0654 -1.8904 -2.5027 0.9765
5.1305 -1.7061 -2.5027 0.9765
5.1888 -1.5195 -2.5027 0.9765
5.2851 -1.1407 -2.5027 0.9765
5.3229 -0.9489 -2.5027 0.9765
5.3537 -0.7559 -2.5027 0.9765
5.3775 -0.5619 -2.5027 0.9764
5.4068 0.0236 -2.5027 0.9764
5.3909 0.4142 -2.5027 0.9764
5.3144 0.9954 -2.5027 0.9765
5.2749 1.1868 -2.5027 0.9765
5.2285 1.3767 -2.5027 0.9765
2.8760 -4.2133 -2.5023 0.9775
3.3153 -3.8773 -2.5024 0.9775
3.4533 -3.7549 -2.5024 0.9775
3.7157 -3.4957 -2.5024 0.9775
3.8396 -3.3591 -2.5024 0.9775
3.9586 -3.2181 -2.5025 0.9775
4.0723 -3.0730 -2.5025 0.9775
4.1808 -2.9238 -2.5025 0.9775
4.3812 -2.6141 -2.5025 0.9775
4.4729 -2.4541 -2.5026 0.9775
4.5586 -2.2908 -2.5026 0.9775
4.6385 -2.1245 -2.5026 0.9775
4.7123 -1.9555 -2.5026 0.9775
4.8413 -1.6099 -2.5026 0.9775
4.8964 -1.4339 -2.5026 0.9775
5.0229 -0.8954 -2.5027 0.9775
5.1020 0.0223 -2.5027 0.9775
5.0870 0.3908 -2.5027 0.9775
5.0696 0.5745 -2.5027 0.9775
5.0148 0.9392 -2.5027 0.9775
4.9776 1.1199 -2.5026 0.9775
2.7194 -3.9837 -2.5023 0.9785
3.0001 -3.7769 -2.5023 0.9785
3.2652 -3.5504 -2.5024 0.9785
3.6304 -3.1761 -2.5024 0.9785
3.7429 -3.0428 -2.5024 0.9785
3.8505 -2.9056 -2.5025 0.9785
4.1425 -2.4717 -2.5025 0.9785
4.2291 -2.3204 -2.5025 0.9785
4.3103 -2.1660 -2.5025 0.9785
4.3858 -2.0088 -2.5025 0.9785
4.5775 -1.5222 -2.5026 0.9785
4.6296 -1.3557 -2.5026 0.9785
4.6756 -1.1875 -2.5026 0.9785
4.7155 -1.0177 -2.5026 0.9785
4.8129 -0.3275 -2.5026 0.9785
4.8217 -0.1533 -2.5026 0.9785
4.8201 0.1954 -2.5026 0.9785
4.7934 0.5431 -2.5026 0.9785
4.7706 0.7161 -2.5026 0.9785
4.7064 1.0589 -2.5026 0.9785
4.6175 1.3961 -2.5026 0.9785
2.4376 -3.8639 -2.5022 0.9794
2.5757 -3.7733 -2.5022 0.9794
2.9691 -3.4724 -2.5023 0.9794
3.0927 -3.3628 -2.5023 0.9794
3.3277 -3.1306 -2.5024 0.9794
3.7442 -2.6185 -2.5024 0.9794
3.9237 -2.3412 -2.5025 0.9794
4.0058 -2.1978 -2.5025 0.9794
4.0826 -2.0516 -2.5025 0.9794
4.1541 -1.9027 -2.5025 0.9794
4.2808 -1.5976 -2.5025 0.9794
4.3357 -1.4418 -2.5025 0.9794
4.4286 -1.1248 -2.5026 0.9794
4.4663 -0.9640 -2.5026 0.9794
4.4983 -0.8019 -2.5026 0.9794
4.5244 -0.6387 -2.5026 0.9794
4.5445 -0.4748 -2.5026 0.9794
4.5692 0.0199 -2.5026 0.9794
4.5558 0.3500 -2.5026 0.9794
4.5402 0.5145 -2.5026 0.9794
4.5186 0.6782 -2.5026 0.9794
4.4911 0.8411 -2.5026 0.9794
4.4578 1.0029 -2.5026 0.9794
4.4186 1.1634 -2.5025 0.9794
4.3736 1.3224 -2.5025 0.9794
2.3124 -3.6655 -2.5022 0.9802
3.1568 -2.9699 -2.5023 0.9802
3.5519 -2.4840 -2.5024 0.9802
3.7221 -2.2209 -2.5024 0.9802
3.8000 -2.0849 -2.5024 0.9802
3.8729 -1.9462 -2.5025 0.9802
3.9407 -1.8049 -2.5025 0.9802
4.0034 -1.6613 -2.5025 0.9802
4.0609 -1.5155 -2.5025 0.9802
4.2011 -1.0670 -2.5025 0.9802
4.2370 -0.9145 -2.5025 0.9802
4.2920 -0.6060 -2.5025 0.9802
4.3111 -0.4504 -2.5025 0.9802
4.3323 -0.1378 -2.5025 0.9802
4.3345 0.0189 -2.5025 0.9802
4.3218 0.3320 -2.5025 0.9802
4.2865 0.6434 -2.5025 0.9802
4.2604 0.7979 -2.5025 0.9802
4.1916 1.1036 -2.5025 0.9802
4.1490 1.2545 -2.5025 0.9802
