ply
format ascii 1.0
element vertex 557
property float32 x
property float32 y
property float32 z
property float32 I
end_header
30.5977 18.6656 6.3198 0.8645
28.1637 18.6173 5.9529 0.8719
26.1149 18.6606 5.6595 0.8778
21.1117 18.8715 4.9930 0.8914
30.7146 29.5314 7.5130 0.8411
30.9031 31.9527 7.8381 0.8348
17.0251 18.9337 4.4897 0.9017
15.8787 19.0043 4.3667 0.9043
17.5854 40.9782 7.8628 0.8343
28.3835 18.7626 5.2123 0.8714
22.4961 18.6842 4.4799 0.8884
21.2437 18.9895 4.3651 0.8911
13.6317 18.9589 3.5772 0.9098
6.8424 10.2850 1.8924 0.9512
25.4614 41.4630 7.4539 0.8213
21.5352 41.5642 7.1713 0.8274
19.6773 41.6129 7.0517 0.8300
17.8781 41.6603 6.9450 0.8324
31.0501 18.9416 4.7363 0.8635
23.3608 41.3386 6.1832 0.8257
17.8251 41.5368 5.8860 0.8333
13.6272 18.9527 2.5066 0.9104
6.8423 10.2850 1.3265 0.9515
21.5192 41.5333 5.0230 0.8285
16.1143 41.6650 4.7970 0.8355
14.3605 41.5584 4.7215 0.8379
14.2814 18.4127 1.9726 0.9107
6.8423 10.2850 1.0457 0.9516
14.3795 41.6133 3.7270 0.8380
14.2405 18.3599 1.4408 0.9111
13.2189 18.3849 1.4041 0.9132
31.5247 19.2311 1.4561 0.8626
14.2381 18.3569 0.9160 0.9112
14.1796 41.0349 1.7119 0.8405
31.8270 17.8626 0.6165 0.8642
13.2146 18.3789 0.3824 0.9134
7.7120 2.6396 -0.0459 0.9679
7.6993 3.6131 -0.0479 0.9666
7.6987 3.9602 -0.0487 0.9660
7.6979 4.3204 -0.0497 0.9653
7.6963 5.0876 -0.0519 0.9638
7.6955 5.4989 -0.0533 0.9629
7.6946 5.9321 -0.0547 0.9619
7.6937 6.3901 -0.0563 0.9608
7.6927 6.8765 -0.0581 0.9596
7.6858 8.5475 -0.0647 0.9551
7.6837 9.1963 -0.0675 0.9532
7.6816 9.9037 -0.0706 0.9511
7.6792 10.6803 -0.0741 0.9487
7.6736 12.4962 -0.0826 0.9430
7.6705 14.8046 -0.0939 0.9355
7.6664 16.2128 -0.1010 0.9308
7.6274 28.6677 -0.1670 0.8881
7.5982 40.0755 -0.2296 0.8495
7.7005 2.9523 -0.2322 0.9675
7.6999 3.2776 -0.2356 0.9671
7.6985 3.9601 -0.2438 0.9660
7.6962 5.0876 -0.2598 0.9638
7.6936 6.3900 -0.2816 0.9608
7.6926 6.8764 -0.2905 0.9596
7.6860 8.5478 -0.3237 0.9550
7.6840 9.1966 -0.3374 0.9532
7.6739 12.4968 -0.4129 0.9430
7.6737 13.5793 -0.4392 0.9395
7.6661 16.2122 -0.5050 0.9308
7.6613 17.8529 -0.5470 0.9252
7.6508 19.7820 -0.5972 0.9186
7.6454 22.1254 -0.6591 0.9106
7.6438 25.0317 -0.7370 0.9006
7.6281 28.6702 -0.8354 0.8881
7.6184 33.4857 -0.9670 0.8716
7.5965 40.0669 -1.1483 0.8494
7.7139 2.6402 -0.4135 0.9679
7.7005 2.9522 -0.4182 0.9675
7.6977 4.3203 -0.4477 0.9653
7.6969 4.6954 -0.4572 0.9645
7.6961 5.0875 -0.4679 0.9637
7.6953 5.4988 -0.4797 0.9628
7.6944 5.9319 -0.4927 0.9618
7.6935 6.3899 -0.5072 0.9607
7.6914 7.3952 -0.5411 0.9582
7.6822 9.9045 -0.6357 0.9510
6.8422 10.2848 -0.6265 0.9517
7.6743 12.4974 -0.7438 0.9430
7.6699 14.8034 -0.8455 0.9354
7.6455 22.1257 -1.1872 0.9105
7.6444 25.0336 -1.3274 0.9005
6.9741 45.8218 -2.3506 0.8306
5.3391 46.3408 -2.3657 0.8296
2.0736 49.2944 -2.5021 0.8207
-1.5103 49.3026 -2.5015 0.8207
-8.6302 48.5402 -2.5003 0.8208
7.7004 2.9522 -0.6047 0.9675
7.6997 3.2775 -0.6136 0.9670
7.6983 3.9600 -0.6348 0.9659
7.6976 4.3202 -0.6472 0.9652
7.6968 4.6954 -0.6611 0.9645
7.6933 6.3898 -0.7333 0.9607
7.6923 6.8762 -0.7565 0.9595
7.6801 10.6816 -0.9646 0.9486
6.8421 10.2847 -0.9057 0.9517
7.6606 17.8512 -1.4243 0.9250
7.6510 19.7825 -1.5552 0.9184
7.6294 28.6751 -2.1757 0.8878
5.9713 31.4948 -2.3504 0.8794
5.1358 33.7438 -2.5027 0.8721
2.6719 34.0219 -2.5022 0.8721
0.1948 34.1203 -2.5018 0.8721
-1.0447 34.1019 -2.5016 0.8721
-2.2825 34.0385 -2.5014 0.8721
7.6982 3.9599 -0.8311 0.9658
7.6967 4.6953 -0.8656 0.9644
7.6959 5.0873 -0.8857 0.9636
7.6942 5.9317 -0.9327 0.9617
7.6932 6.3897 -0.9601 0.9606
7.6922 6.8760 -0.9905 0.9594
7.6828 9.9053 -1.2035 0.9509
7.6804 10.6821 -1.2631 0.9485
7.6750 12.4986 -1.4081 0.9428
7.6651 16.2101 -1.7215 0.9305
7.6603 17.8504 -1.8649 0.9249
7.1507 23.4169 -2.3506 0.9063
5.4310 23.8712 -2.3503 0.9063
2.9832 25.8930 -2.5023 0.9006
1.0953 26.0378 -2.5020 0.9006
0.1488 26.0588 -2.5018 0.9006
-2.6863 25.9152 -2.5013 0.9006
-4.5602 25.6489 -2.5010 0.9006
7.7168 2.6412 -0.9688 0.9677
7.7001 2.9521 -0.9796 0.9673
7.6988 3.6129 -1.0102 0.9663
7.6973 4.3201 -1.0485 0.9651
7.6921 6.8759 -1.2255 0.9593
7.6910 7.3948 -1.2674 0.9579
7.6871 8.5490 -1.3657 0.9547
7.6808 10.6825 -1.5629 0.9484
6.8421 10.2847 -1.4673 0.9515
7.6754 12.4991 -1.7423 0.9426
7.6741 13.5798 -1.8528 0.9391
7.6690 14.8016 -1.9802 0.9351
7.6648 16.2093 -2.1299 0.9303
7.6599 17.8496 -2.3073 0.9247
6.4627 18.7026 -2.3505 0.9234
5.7787 18.9240 -2.3504 0.9234
5.3332 20.0447 -2.4639 0.9198
4.6739 20.5431 -2.5026 0.9186
3.9244 20.6983 -2.5025 0.9186
3.1697 20.8261 -2.5023 0.9186
1.6492 20.9990 -2.5021 0.9187
0.8853 21.0439 -2.5019 0.9187
0.1202 21.0611 -2.5018 0.9187
-0.6449 21.0504 -2.5017 0.9187
-1.4090 21.0121 -2.5015 0.9187
-2.1712 20.9459 -2.5014 0.9187
-2.9305 20.8521 -2.5013 0.9187
7.7177 2.6415 -1.1558 0.9676
7.6994 3.2773 -1.1856 0.9668
7.6987 3.6128 -1.2050 0.9662
7.6957 5.0872 -1.3071 0.9634
7.6948 5.4984 -1.3400 0.9625
7.6939 5.9315 -1.3765 0.9615
7.6920 6.8758 -1.4618 0.9592
7.6909 7.3947 -1.5117 0.9578
7.6875 8.5493 -1.6290 0.9546
5.1586 16.8930 -2.5027 0.9311
4.5413 17.0686 -2.5026 0.9311
3.9182 17.2215 -2.5025 0.9311
2.6573 17.4590 -2.5022 0.9311
-1.8203 17.5605 -2.5015 0.9312
7.7187 2.6418 -1.3440 0.9675
7.6999 2.9520 -1.3585 0.9671
7.6986 3.6128 -1.4010 0.9661
7.6979 3.9598 -1.4261 0.9655
7.6955 5.0871 -1.5197 0.9633
7.6947 5.4983 -1.5580 0.9624
7.6938 5.9314 -1.6004 0.9614
7.6918 6.8757 -1.6996 0.9590
7.6907 7.3945 -1.7576 0.9577
7.6877 8.5496 -1.8941 0.9545
7.6814 10.6834 -2.1677 0.9481
6.8421 10.2846 -2.0350 0.9512
7.4668 12.1595 -2.3507 0.9438
6.5639 12.6687 -2.3505 0.9438
6.0992 12.8983 -2.3504 0.9438
5.3407 13.8090 -2.4391 0.9417
4.9616 14.3585 -2.5026 0.9403
3.9058 14.6797 -2.5025 0.9403
2.8295 14.9234 -2.5023 0.9403
2.2854 15.0158 -2.5022 0.9403
1.1891 15.1410 -2.5020 0.9403
0.6383 15.1736 -2.5019 0.9403
-0.4650 15.1787 -2.5017 0.9403
-2.6579 14.9491 -2.5013 0.9403
7.6998 2.9520 -1.5500 0.9670
7.6978 3.9597 -1.6271 0.9654
7.6970 4.3199 -1.6590 0.9647
7.6962 4.6950 -1.6945 0.9640
7.6946 5.4982 -1.7776 0.9622
7.6906 7.3944 -2.0053 0.9575
7.6894 7.9506 -2.0790 0.9560
7.6861 9.1991 -2.2532 0.9524
7.6649 9.8822 -2.3507 0.9504
7.3007 10.1538 -2.3506 0.9504
6.5439 10.6565 -2.3505 0.9504
6.1523 10.8869 -2.3504 0.9504
5.2509 12.2359 -2.5027 0.9472
4.8029 12.4181 -2.5026 0.9473
3.8883 12.7333 -2.5025 0.9473
3.4231 12.8657 -2.5024 0.9473
2.4799 13.0794 -2.5022 0.9473
2.0030 13.1604 -2.5021 0.9473
1.5236 13.2241 -2.5020 0.9473
1.0422 13.2702 -2.5020 0.9473
0.5595 13.2989 -2.5019 0.9473
-0.8905 13.2795 -2.5016 0.9473
-1.8521 13.1789 -2.5015 0.9473
7.7206 2.6425 -1.7249 0.9672
7.6997 2.9520 -1.7431 0.9668
7.6969 4.3198 -1.8657 0.9646
7.6961 4.6949 -1.9056 0.9638
7.6953 5.0869 -1.9499 0.9630
7.6935 5.9312 -2.0534 0.9611
7.6925 6.3891 -2.1138 0.9599
7.6916 6.8754 -2.1807 0.9587
7.6893 7.9505 -2.3380 0.9558
7.4356 8.2692 -2.3507 0.9556
7.1302 8.5337 -2.3506 0.9556
6.4915 9.0284 -2.3505 0.9556
4.6690 10.8798 -2.5026 0.9527
3.4574 11.3222 -2.5024 0.9528
3.0438 11.4400 -2.5023 0.9528
2.6262 11.5427 -2.5022 0.9528
1.7811 11.7022 -2.5021 0.9528
1.3548 11.7588 -2.5020 0.9528
0.9267 11.7999 -2.5019 0.9528
0.0676 11.8354 -2.5018 0.9528
-0.7918 11.8083 -2.5016 0.9528
-1.2202 11.7714 -2.5016 0.9528
7.7216 2.6428 -1.9181 0.9670
7.6996 2.9519 -1.9380 0.9667
7.6989 3.2771 -1.9665 0.9662
7.6975 3.9596 -2.0344 0.9651
7.6968 4.3197 -2.0743 0.9644
7.6960 4.6948 -2.1187 0.9636
7.6943 5.4980 -2.2226 0.9619
7.6924 6.3890 -2.3502 0.9597
7.4570 6.6657 -2.3507 0.9597
6.6872 7.4369 -2.3505 0.9597
6.1294 7.9025 -2.3504 0.9597
5.8382 8.1197 -2.3504 0.9597
5.3499 8.7121 -2.4028 0.9589
4.8987 9.4547 -2.5026 0.9572
4.5519 9.6262 -2.5026 0.9572
3.4775 10.0635 -2.5024 0.9572
2.7375 10.2889 -2.5023 0.9572
2.3619 10.3813 -2.5022 0.9572
1.9832 10.4600 -2.5021 0.9572
0.0608 10.6447 -2.5018 0.9572
-0.3259 10.6396 -2.5017 0.9572
-0.7121 10.6205 -2.5017 0.9572
-1.0975 10.5873 -2.5016 0.9572
7.7226 2.6432 -2.1134 0.9668
7.6988 3.2771 -2.1664 0.9660
7.6974 3.9596 -2.2412 0.9649
7.6959 4.6948 -2.3341 0.9634
7.3868 5.2783 -2.3507 0.9632
6.0698 6.7503 -2.3504 0.9632
5.5635 7.1729 -2.3503 0.9632
5.3556 7.4486 -2.3753 0.9628
5.3335 8.0170 -2.4931 0.9610
4.7554 8.4149 -2.5026 0.9608
4.1317 8.7376 -2.5025 0.9609
3.8115 8.8817 -2.5024 0.9609
3.1565 9.1346 -2.5023 0.9609
2.4849 9.3392 -2.5022 0.9609
1.4541 9.5534 -2.5020 0.9609
0.7566 9.6333 -2.5019 0.9609
0.4062 9.6542 -2.5019 0.9609
0.0552 9.6623 -2.5018 0.9609
-0.2958 9.6578 -2.5017 0.9609
-0.9962 9.6103 -2.5016 0.9609
7.6994 2.9518 -2.3343 0.9663
7.6403 3.2522 -2.3507 0.9661
7.3839 3.7982 -2.3507 0.9661
7.0885 4.3242 -2.3506 0.9661
6.9267 4.5788 -2.3506 0.9661
6.7556 4.8273 -2.3506 0.9661
6.5758 5.0695 -2.3505 0.9661
6.3872 5.3049 -2.3505 0.9661
6.1902 5.5333 -2.3505 0.9661
5.7720 5.9680 -2.3504 0.9661
5.5512 6.1736 -2.3503 0.9661
5.3390 6.8835 -2.4661 0.9644
5.1609 7.1777 -2.5027 0.9639
4.6260 7.5332 -2.5026 0.9639
4.3492 7.6961 -2.5025 0.9639
3.7788 7.9913 -2.5024 0.9639
3.4860 8.1231 -2.5024 0.9639
3.1885 8.2442 -2.5023 0.9639
2.8869 8.3544 -2.5023 0.9639
1.9608 8.6183 -2.5021 0.9639
1.3299 8.7375 -2.5020 0.9639
1.0116 8.7799 -2.5020 0.9639
0.6920 8.8106 -2.5019 0.9639
0.3714 8.8298 -2.5018 0.9639
0.0505 8.8372 -2.5018 0.9639
-0.2706 8.8330 -2.5017 0.9639
-1.2298 8.7506 -2.5016 0.9639
7.2306 2.4748 -2.3506 0.9685
6.9184 3.2466 -2.3506 0.9685
6.7958 3.4957 -2.3506 0.9685
6.3750 4.2141 -2.3505 0.9685
6.2177 4.4429 -2.3505 0.9685
5.8785 4.8824 -2.3504 0.9685
5.6972 5.0926 -2.3504 0.9685
5.3574 5.5394 -2.3703 0.9683
5.3412 5.9400 -2.4570 0.9671
5.2171 6.2441 -2.5027 0.9665
4.9868 6.4294 -2.5026 0.9665
4.7499 6.6061 -2.5026 0.9665
4.0029 7.0833 -2.5025 0.9665
3.4779 7.3549 -2.5024 0.9665
2.9346 7.5877 -2.5023 0.9665
2.6570 7.6892 -2.5022 0.9665
2.3759 7.7805 -2.5022 0.9665
2.0917 7.8615 -2.5021 0.9665
1.8047 7.9321 -2.5021 0.9665
0.9310 8.0809 -2.5019 0.9665
0.0465 8.1337 -2.5018 0.9665
-0.5441 8.1153 -2.5017 0.9665
-0.8386 8.0900 -2.5016 0.9665
-1.4237 8.0074 -2.5015 0.9665
6.6027 2.5313 -2.3505 0.9706
6.5063 2.7695 -2.3505 0.9706
6.4014 3.0040 -2.3505 0.9706
6.2879 3.2345 -2.3505 0.9706
6.1663 3.4608 -2.3504 0.9706
5.3546 4.7864 -2.3873 0.9702
5.3405 5.1348 -2.4626 0.9693
5.0341 5.5985 -2.5027 0.9688
4.8274 5.7775 -2.5026 0.9688
4.6142 5.9490 -2.5026 0.9688
3.9395 6.4153 -2.5025 0.9688
3.7038 6.5541 -2.5024 0.9688
3.4632 6.6842 -2.5024 0.9688
3.2181 6.8055 -2.5023 0.9688
2.9687 6.9178 -2.5023 0.9688
2.7154 7.0209 -2.5023 0.9688
1.9354 7.2743 -2.5021 0.9688
1.6699 7.3396 -2.5021 0.9688
1.4022 7.3953 -2.5020 0.9688
1.1326 7.4412 -2.5020 0.9688
0.8615 7.4773 -2.5019 0.9688
-0.2304 7.5227 -2.5017 0.9688
-0.7760 7.4858 -2.5017 0.9688
-1.0474 7.4525 -2.5016 0.9688
6.0476 2.5742 -2.3504 0.9725
5.9501 2.7922 -2.3504 0.9725
5.7315 3.2168 -2.3504 0.9725
5.4828 3.6243 -2.3503 0.9725
5.3662 3.8344 -2.3585 0.9724
5.3497 4.1242 -2.4156 0.9717
5.2178 4.6641 -2.5027 0.9707
4.6792 5.2038 -2.5026 0.9707
4.4870 5.3703 -2.5026 0.9707
3.8761 5.8262 -2.5025 0.9707
3.6618 5.9631 -2.5024 0.9707
3.4427 6.0921 -2.5024 0.9707
3.2191 6.2130 -2.5023 0.9707
2.9913 6.3258 -2.5023 0.9707
2.7594 6.4302 -2.5023 0.9707
2.5240 6.5261 -2.5022 0.9707
1.5522 6.8223 -2.5021 0.9707
1.0527 6.9168 -2.5020 0.9707
0.8008 6.9503 -2.5019 0.9707
0.2941 6.9899 -2.5018 0.9707
-0.7213 6.9583 -2.5017 0.9707
-0.9735 6.9274 -2.5016 0.9707
-1.2246 6.8873 -2.5016 0.9707
5.8028 1.9861 -2.3504 0.9741
5.7268 2.1955 -2.3504 0.9741
5.6433 2.4021 -2.3504 0.9741
5.5522 2.6055 -2.3503 0.9741
5.4539 2.8055 -2.3503 0.9741
5.3667 3.0120 -2.3584 0.9740
5.3428 3.5318 -2.4544 0.9729
5.3137 3.7969 -2.5027 0.9724
4.8689 4.3522 -2.5026 0.9724
4.7075 4.5262 -2.5026 0.9724
4.1871 5.0113 -2.5025 0.9724
3.8121 5.3019 -2.5024 0.9724
3.6170 5.4368 -2.5024 0.9724
3.4171 5.5645 -2.5024 0.9724
3.0040 5.7978 -2.5023 0.9724
2.3553 6.0898 -2.5022 0.9724
1.9069 6.2446 -2.5021 0.9724
1.6788 6.3096 -2.5021 0.9724
1.4484 6.3663 -2.5020 0.9724
1.2162 6.4146 -2.5020 0.9724
0.9824 6.4545 -2.5020 0.9724
0.7473 6.4858 -2.5019 0.9724
0.5111 6.5085 -2.5019 0.9724
0.2744 6.5227 -2.5018 0.9724
0.0373 6.5283 -2.5018 0.9724
-0.1999 6.5252 -2.5018 0.9724
-0.4368 6.5135 -2.5017 0.9724
-0.6730 6.4933 -2.5017 0.9724
5.4333 1.8596 -2.3503 0.9755
5.3566 2.2801 -2.3827 0.9752
5.3325 2.9928 -2.5027 0.9739
5.2203 3.1845 -2.5027 0.9739
5.1011 3.3720 -2.5027 0.9739
4.7039 3.9068 -2.5026 0.9739
4.5588 4.0751 -2.5026 0.9739
4.4078 4.2379 -2.5025 0.9739
4.2509 4.3952 -2.5025 0.9739
3.9204 4.6921 -2.5025 0.9739
3.7474 4.8314 -2.5024 0.9739
3.0080 5.3229 -2.5023 0.9739
2.8127 5.4285 -2.5023 0.9739
2.6136 5.5271 -2.5022 0.9739
2.4111 5.6183 -2.5022 0.9739
2.2054 5.7021 -2.5022 0.9739
1.9967 5.7783 -2.5021 0.9739
1.7855 5.8470 -2.5021 0.9739
1.5719 5.9079 -2.5021 0.9739
1.3562 5.9610 -2.5020 0.9739
1.1388 6.0062 -2.5020 0.9739
0.9198 6.0435 -2.5019 0.9739
0.6997 6.0729 -2.5019 0.9739
0.2569 6.1074 -2.5018 0.9739
0.0349 6.1126 -2.5018 0.9739
-0.1871 6.1098 -2.5018 0.9739
-0.4089 6.0989 -2.5017 0.9739
-0.6302 6.0799 -2.5017 0.9739
-0.8507 6.0529 -2.5016 0.9739
5.1986 2.4395 -2.5027 0.9753
5.1065 2.6268 -2.5027 0.9753
4.9022 2.9905 -2.5026 0.9753
4.6721 3.3385 -2.5026 0.9753
4.5477 3.5060 -2.5026 0.9753
4.4173 3.6688 -2.5025 0.9753
4.2811 3.8268 -2.5025 0.9753
4.1392 3.9798 -2.5025 0.9753
3.8393 4.2697 -2.5024 0.9753
3.5191 4.5371 -2.5024 0.9753
3.0046 4.8928 -2.5023 0.9753
2.8248 4.9987 -2.5023 0.9753
2.0710 5.3547 -2.5021 0.9753
1.2737 5.5979 -2.5020 0.9753
0.4495 5.7230 -2.5019 0.9753
0.0328 5.7404 -2.5018 0.9753
5.0484 1.9355 -2.5027 0.9765
4.9747 2.1175 -2.5026 0.9765
4.8945 2.2969 -2.5026 0.9765
4.7147 2.6461 -2.5026 0.9765
4.6155 2.8156 -2.5026 0.9765
4.5102 2.9814 -2.5026 0.9765
4.2817 3.3009 -2.5025 0.9765
4.1590 3.4542 -2.5025 0.9765
4.0307 3.6030 -2.5025 0.9765
3.7584 3.8860 -2.5024 0.9765
3.3133 4.2717 -2.5024 0.9765
3.1558 4.3892 -2.5023 0.9765
2.8288 4.6066 -2.5023 0.9765
2.6596 4.7063 -2.5022 0.9765
2.3108 4.8868 -2.5022 0.9765
2.1318 4.9675 -2.5022 0.9765
1.7654 5.1090 -2.5021 0.9765
1.3898 5.2236 -2.5020 0.9765
1.1992 5.2705 -2.5020 0.9765
0.0309 5.4047 -2.5018 0.9765
-0.5572 5.3758 -2.5017 0.9765
-0.7521 5.3519 -2.5017 0.9765
-0.9460 5.3210 -2.5016 0.9765
4.8271 1.6521 -2.5026 0.9775
4.7638 1.8264 -2.5026 0.9775
4.1509 2.9661 -2.5025 0.9775
4.0404 3.1149 -2.5025 0.9775
3.6775 3.5358 -2.5024 0.9775
3.2709 3.9147 -2.5024 0.9775
3.1266 4.0310 -2.5023 0.9775
2.6694 4.3470 -2.5022 0.9775
2.5097 4.4410 -2.5022 0.9775
1.8400 4.7575 -2.5021 0.9775
1.6660 4.8211 -2.5021 0.9775
1.3115 4.9292 -2.5020 0.9775
0.9502 5.0113 -2.5019 0.9775
0.7675 5.0424 -2.5019 0.9775
0.5838 5.0669 -2.5019 0.9775
0.2144 5.0958 -2.5018 0.9775
-0.5258 5.0729 -2.5017 0.9775
-0.7097 5.0504 -2.5017 0.9775
-0.8927 5.0212 -2.5016 0.9775
4.5641 1.5621 -2.5026 0.9785
4.2066 2.3609 -2.5025 0.9785
4.1181 2.5121 -2.5025 0.9785
3.8203 2.9452 -2.5024 0.9785
3.7107 3.0820 -2.5024 0.9785
3.5963 3.2147 -2.5024 0.9785
3.4772 3.3432 -2.5024 0.9785
3.0928 3.7015 -2.5023 0.9785
2.8158 3.9162 -2.5023 0.9785
2.6717 4.0158 -2.5022 0.9785
2.2189 4.2825 -2.5022 0.9785
2.0618 4.3602 -2.5021 0.9785
1.9020 4.4322 -2.5021 0.9785
1.7398 4.4983 -2.5021 0.9785
1.5752 4.5585 -2.5021 0.9785
1.4086 4.6126 -2.5020 0.9785
1.2401 4.6607 -2.5020 0.9785
0.8984 4.7383 -2.5019 0.9785
0.7257 4.7678 -2.5019 0.9785
0.5521 4.7909 -2.5019 0.9785
0.2028 4.8182 -2.5018 0.9785
0.0276 4.8224 -2.5018 0.9785
-0.4972 4.7966 -2.5017 0.9785
-0.8441 4.7477 -2.5016 0.9785
4.2663 1.6356 -2.5025 0.9794
4.2041 1.7895 -2.5025 0.9794
3.9005 2.3794 -2.5025 0.9794
3.7174 2.6563 -2.5024 0.9794
3.5147 2.9192 -2.5024 0.9794
3.2935 3.1666 -2.5024 0.9794
2.9294 3.5060 -2.5023 0.9794
2.8000 3.6100 -2.5023 0.9794
2.5305 3.8037 -2.5022 0.9794
2.3907 3.8931 -2.5022 0.9794
2.2476 3.9773 -2.5022 0.9794
1.9529 4.1299 -2.5021 0.9794
1.6479 4.2607 -2.5021 0.9794
1.0134 4.4543 -2.5020 0.9794
0.5229 4.5379 -2.5019 0.9794
0.3577 4.5538 -2.5018 0.9794
0.1920 4.5638 -2.5018 0.9794
0.0261 4.5677 -2.5018 0.9794
-0.1398 4.5656 -2.5018 0.9794
-0.6357 4.5231 -2.5017 0.9794
-0.7995 4.4970 -2.5016 0.9794
4.0472 1.5516 -2.5025 0.9802
3.9882 1.6976 -2.5025 0.9802
3.9238 1.8413 -2.5025 0.9802
3.8543 1.9827 -2.5025 0.9802
3.7798 2.1213 -2.5024 0.9802
3.4326 2.6463 -2.5024 0.9802
2.8979 3.2228 -2.5023 0.9802
2.6562 3.4246 -2.5022 0.9802
1.9937 3.8480 -2.5021 0.9802
1.8526 3.9179 -2.5021 0.9802
1.7091 3.9825 -2.5021 0.9802
1.4154 4.0960 -2.5020 0.9802
0.6521 4.2841 -2.5019 0.9802
0.1822 4.3295 -2.5018 0.9802
-0.2899 4.3234 -2.5017 0.9802
-0.4467 4.3100 -2.5017 0.9802
-0.6030 4.2909 -2.5017 0.9802
-0.7585 4.2661 -2.5017 0.9802
