ply
format ascii 1.0
element vertex 465
property float32 x
property float32 y
property float32 z
property float32 I
end_header
12.7976 41.4322 6.6431 0.8391
-23.7079 24.1414 5.1835 0.8720
-23.7624 22.5215 5.0155 0.8759
-23.8002 20.9896 4.8614 0.8795
12.8580 41.6276 5.6735 0.8388
-23.6324 27.7962 4.7510 0.8631
-23.5437 27.6919 3.9031 0.8640
-23.6791 25.9083 3.7690 0.8683
-23.7223 24.1561 3.6356 0.8727
-23.8230 22.5789 3.5246 0.8763
-23.8004 20.9898 3.4076 0.8801
-23.8360 19.5475 3.3102 0.8834
12.8544 41.6160 3.6871 0.8396
-21.4711 29.2705 3.0730 0.8644
-23.5438 27.6921 3.0769 0.8642
-23.6792 25.9084 2.9712 0.8686
-23.7628 22.5218 2.7715 0.8768
-23.8006 20.9899 2.6864 0.8804
-21.4643 29.2614 2.2503 0.8646
-23.6328 27.7966 2.2625 0.8640
-23.7629 22.5220 2.0302 0.8770
-22.8861 33.6675 1.6052 0.8496
-23.5632 27.7149 1.4344 0.8645
-23.6795 25.9087 1.3840 0.8689
-23.7227 24.1564 1.3350 0.8733
-23.7640 22.5230 1.2910 0.8772
-22.0145 35.0237 0.6988 0.8475
-23.5826 29.8432 0.6425 0.8588
-23.7228 24.1566 0.5719 0.8733
-23.7754 22.5338 0.5533 0.8772
-22.0445 19.4412 0.4965 0.8891
6.2550 17.9421 -0.1070 0.9268
6.2288 26.8620 -0.1552 0.8956
6.2198 31.9972 -0.1835 0.8778
-21.7706 32.0264 -0.2180 0.8565
-23.3056 23.7317 -0.1872 0.8754
-23.7838 22.5418 -0.1845 0.8771
-22.0446 19.4413 -0.1655 0.8891
6.2547 17.9411 -0.5350 0.9268
6.2367 23.0983 -0.6737 0.9087
6.2295 26.8646 -0.7765 0.8955
6.2186 31.9912 -0.9177 0.8777
-21.6392 44.3922 -1.3906 0.8207
-23.3025 43.7482 -1.3957 0.8201
-21.7081 34.5363 -1.1486 0.8494
-21.4375 29.2247 -1.0206 0.8650
-21.9076 23.9700 -0.9144 0.8781
-22.0423 22.4453 -0.8858 0.8817
-22.0151 20.8654 -0.8541 0.8857
-22.0447 19.4414 -0.8277 0.8890
-22.0830 18.1099 -0.8042 0.8920
6.2543 17.9400 -0.9635 0.9267
6.2368 23.0987 -1.2134 0.9086
6.2174 31.9853 -1.6525 0.8777
5.5601 46.0098 -2.3503 0.8306
3.9325 46.4834 -2.3658 0.8296
0.6251 49.3290 -2.5019 0.8207
-1.1439 49.3137 -2.5016 0.8207
-2.9111 49.2351 -2.5013 0.8207
-6.4306 48.8883 -2.5007 0.8208
-8.1784 48.6204 -2.5004 0.8208
-11.6391 47.8979 -2.4998 0.8208
-13.3476 47.4444 -2.4995 0.8209
-16.7095 46.3552 -2.4989 0.8209
-19.4871 43.9082 -2.4362 0.8250
-21.7113 31.9392 -1.9586 0.8567
-21.3403 29.0922 -1.8298 0.8655
-21.8180 27.6101 -1.7846 0.8685
-21.8646 25.7170 -1.7119 0.8735
-21.9477 22.3490 -1.5886 0.8821
-22.0199 19.4195 -1.4890 0.8891
6.2306 26.8699 -2.0224 0.8953
3.9321 32.5382 -2.4031 0.8768
2.8769 34.0056 -2.5023 0.8721
1.6556 34.0840 -2.5021 0.8721
-2.0136 34.0562 -2.5014 0.8721
-3.2332 33.9594 -2.5012 0.8721
-5.6577 33.6348 -2.5008 0.8721
-6.8595 33.4075 -2.5006 0.8722
-9.2346 32.8247 -2.5002 0.8722
-10.4047 32.4699 -2.5000 0.8722
-11.5614 32.0735 -2.4998 0.8722
-17.0903 29.4860 -2.4989 0.8722
-18.1353 28.8521 -2.4987 0.8722
-19.1568 28.1814 -2.4985 0.8723
-19.4828 26.5599 -2.4152 0.8762
-19.8375 25.1040 -2.3460 0.8796
-20.7236 24.3750 -2.3459 0.8796
-21.4458 23.4647 -2.3308 0.8803
-22.0200 19.4196 -2.1527 0.8889
-22.0529 18.0851 -2.0912 0.8919
6.2536 17.9380 -1.8238 0.9265
6.2436 20.2138 -2.0311 0.9185
5.5301 23.8485 -2.3503 0.9063
4.6711 24.0300 -2.3502 0.9063
1.2644 26.0305 -2.5020 0.9006
-0.6043 26.0508 -2.5017 0.9006
-4.3213 25.6903 -2.5010 0.9006
-7.0538 25.0731 -2.5006 0.9006
-7.9478 24.8026 -2.5004 0.9006
-8.8315 24.5001 -2.5003 0.9006
-9.7037 24.1663 -2.5001 0.9006
-10.5634 23.8014 -2.5000 0.9006
-13.0560 22.5256 -2.4996 0.9007
-16.1389 20.4234 -2.4990 0.9007
-19.4772 15.9728 -2.4183 0.9037
6.2532 17.9371 -2.2564 0.9263
5.8395 18.9054 -2.3504 0.9234
5.1576 19.1017 -2.3503 0.9234
3.9299 20.2170 -2.4464 0.9204
3.2756 20.8097 -2.5023 0.9186
2.5272 20.9127 -2.5022 0.9186
1.0219 21.0379 -2.5020 0.9187
-0.4884 21.0549 -2.5017 0.9187
-1.2429 21.0228 -2.5016 0.9187
-1.9959 20.9636 -2.5014 0.9187
-3.4928 20.7646 -2.5012 0.9187
-4.2349 20.6249 -2.5011 0.9187
-4.9714 20.4588 -2.5009 0.9187
-5.7015 20.2664 -2.5008 0.9187
-7.1386 19.8037 -2.5006 0.9187
-7.8437 19.5341 -2.5005 0.9187
-9.2226 18.9200 -2.5002 0.9187
-9.8946 18.5763 -2.5001 0.9187
-11.1995 17.8178 -2.4999 0.9187
-11.8307 17.4040 -2.4998 0.9187
-12.4466 16.9679 -2.4997 0.9187
-14.7422 15.0119 -2.4993 0.9187
-15.7791 13.9157 -2.4991 0.9187
5.4606 15.6633 -2.3503 0.9352
4.8953 15.8483 -2.3502 0.9352
4.3237 16.0130 -2.3501 0.9352
3.9282 16.9404 -2.4639 0.9322
2.7461 17.4453 -2.5023 0.9311
1.4886 17.5958 -2.5020 0.9311
0.8567 17.6371 -2.5019 0.9311
0.2237 17.6557 -2.5018 0.9312
-0.4095 17.6516 -2.5017 0.9312
-1.6733 17.5754 -2.5015 0.9312
-2.3023 17.5033 -2.5014 0.9312
-3.5504 17.2918 -2.5012 0.9312
-4.1680 17.1527 -2.5011 0.9312
-5.9851 16.6042 -2.5008 0.9312
-8.8490 15.2671 -2.5003 0.9312
-9.9196 14.5926 -2.5001 0.9312
-12.3612 12.5873 -2.4997 0.9312
4.6963 13.4710 -2.3502 0.9438
3.9261 14.5408 -2.4812 0.9408
3.4312 14.7973 -2.5024 0.9403
2.8984 14.9103 -2.5023 0.9403
2.3618 15.0040 -2.5022 0.9403
1.8222 15.0785 -2.5021 0.9403
0.7368 15.1692 -2.5019 0.9403
0.1924 15.1853 -2.5018 0.9403
-0.3522 15.1819 -2.5017 0.9403
-1.4391 15.1165 -2.5015 0.9403
-1.9802 15.0546 -2.5014 0.9403
-2.5187 14.9734 -2.5014 0.9403
-3.0538 14.8729 -2.5013 0.9403
-3.5850 14.7533 -2.5012 0.9403
-4.1115 14.6147 -2.5011 0.9403
-5.1480 14.2815 -2.5009 0.9403
-6.1578 13.8749 -2.5007 0.9403
-8.0772 12.8503 -2.5004 0.9403
-8.5325 12.5521 -2.5003 0.9403
-8.9768 12.2377 -2.5003 0.9403
-10.2381 11.2020 -2.5000 0.9403
-11.0141 10.4389 -2.4999 0.9403
-11.7333 9.6222 -2.4998 0.9403
3.9237 12.7029 -2.4990 0.9473
3.0072 12.9688 -2.5023 0.9473
2.0700 13.1501 -2.5021 0.9473
1.5971 13.2154 -2.5021 0.9473
1.1222 13.2638 -2.5020 0.9473
0.1687 13.3092 -2.5018 0.9473
-0.3086 13.3063 -2.5017 0.9473
-0.7855 13.2862 -2.5017 0.9473
-2.2076 13.1238 -2.5014 0.9473
-2.6766 13.0358 -2.5013 0.9473
-3.6038 12.8096 -2.5012 0.9473
-5.3973 12.1614 -2.5009 0.9473
-7.0797 11.2635 -2.5006 0.9473
-7.4788 11.0021 -2.5005 0.9473
-7.8683 10.7266 -2.5004 0.9473
-8.2477 10.4373 -2.5004 0.9473
-9.6542 9.1501 -2.5001 0.9473
-10.2847 8.4343 -2.5000 0.9473
3.4938 11.3110 -2.5024 0.9528
3.0859 11.4287 -2.5023 0.9528
1.8406 11.6930 -2.5021 0.9528
0.1500 11.8347 -2.5018 0.9528
-1.1216 11.7813 -2.5016 0.9528
-1.5433 11.7332 -2.5015 0.9528
-2.3801 11.5917 -2.5014 0.9528
-2.7941 11.4986 -2.5013 0.9528
-3.2045 11.3907 -2.5012 0.9528
-3.6108 11.2682 -2.5012 0.9528
-5.9326 10.2357 -2.5008 0.9528
-6.6506 9.7837 -2.5007 0.9528
-7.3343 9.2815 -2.5005 0.9528
-7.6623 9.0123 -2.5005 0.9528
-8.2881 8.4397 -2.5004 0.9528
-8.8713 7.8237 -2.5003 0.9528
-9.1459 7.5004 -2.5002 0.9528
3.5051 10.0539 -2.5024 0.9572
3.1422 10.1729 -2.5023 0.9572
2.0315 10.4507 -2.5021 0.9572
1.6554 10.5166 -2.5021 0.9572
1.2772 10.5689 -2.5020 0.9572
0.5165 10.6327 -2.5019 0.9572
-0.2468 10.6418 -2.5017 0.9572
-1.0088 10.5962 -2.5016 0.9572
-1.3881 10.5529 -2.5015 0.9572
-2.5131 10.3421 -2.5014 0.9572
-3.2476 10.1349 -2.5012 0.9572
-3.9654 9.8756 -2.5011 0.9572
-5.0026 9.3920 -2.5009 0.9572
-5.9819 8.7999 -2.5008 0.9572
-6.2934 8.5796 -2.5007 0.9572
-7.1779 7.8537 -2.5006 0.9572
-7.7220 7.3188 -2.5005 0.9572
-8.2264 6.7463 -2.5004 0.9572
2.1830 9.4141 -2.5022 0.9609
1.1594 9.5934 -2.5020 0.9609
-0.2240 9.6597 -2.5017 0.9609
-0.5702 9.6453 -2.5017 0.9609
-0.9157 9.6184 -2.5016 0.9609
-1.2600 9.5791 -2.5016 0.9609
-2.6163 9.2997 -2.5013 0.9609
-3.2759 9.0879 -2.5012 0.9609
-3.5995 8.9644 -2.5012 0.9609
-3.9186 8.8294 -2.5011 0.9609
-4.2326 8.6830 -2.5011 0.9609
-5.1402 8.1778 -2.5009 0.9609
-5.4300 7.9881 -2.5009 0.9609
-5.7128 7.7881 -2.5008 0.9609
-5.9883 7.5781 -2.5008 0.9609
-6.7671 6.8909 -2.5006 0.9609
-7.2433 6.3879 -2.5006 0.9609
2.9098 8.3464 -2.5023 0.9639
2.6086 8.4452 -2.5022 0.9639
2.3040 8.5331 -2.5022 0.9639
1.6865 8.6760 -2.5021 0.9639
0.4288 8.8272 -2.5019 0.9639
0.1120 8.8367 -2.5018 0.9639
-1.1524 8.7612 -2.5016 0.9639
-2.0864 8.5862 -2.5014 0.9639
-2.3929 8.5057 -2.5014 0.9639
-2.6963 8.4143 -2.5013 0.9639
-5.4771 6.9312 -2.5009 0.9639
-5.7220 6.7302 -2.5008 0.9639
-5.9596 6.5206 -2.5008 0.9639
-6.4114 6.0766 -2.5007 0.9639
2.1206 7.8537 -2.5021 0.9665
1.8376 7.9246 -2.5021 0.9665
1.2649 8.0356 -2.5020 0.9665
0.9760 8.0756 -2.5020 0.9665
0.6857 8.1052 -2.5019 0.9665
-0.1886 8.1315 -2.5018 0.9665
-0.7708 8.0968 -2.5017 0.9665
-1.6357 7.9667 -2.5015 0.9665
-2.4816 7.7446 -2.5014 0.9665
-2.7577 7.6504 -2.5013 0.9665
-3.0302 7.5465 -2.5013 0.9665
-3.2988 7.4329 -2.5012 0.9665
-3.8228 7.1771 -2.5011 0.9665
-4.0777 7.0352 -2.5011 0.9665
-4.5712 6.7247 -2.5010 0.9665
-4.8093 6.5564 -2.5010 0.9665
-5.0412 6.3796 -2.5009 0.9665
-5.2667 6.1946 -2.5009 0.9665
-5.4853 6.0017 -2.5009 0.9665
-5.6969 5.8011 -2.5008 0.9665
-5.9011 5.5930 -2.5008 0.9665
-6.0978 5.3778 -2.5008 0.9665
2.2216 7.1922 -2.5022 0.9688
1.1704 7.4354 -2.5020 0.9688
0.9030 7.4724 -2.5019 0.9688
0.3652 7.5176 -2.5018 0.9688
0.0954 7.5258 -2.5018 0.9688
-0.4442 7.5130 -2.5017 0.9688
-0.7133 7.4921 -2.5017 0.9688
-0.9814 7.4615 -2.5016 0.9688
-2.0379 7.2440 -2.5014 0.9688
-2.5518 7.0791 -2.5014 0.9688
-2.8039 6.9830 -2.5013 0.9688
-3.2970 6.7638 -2.5012 0.9688
-3.5374 6.6411 -2.5012 0.9688
-3.7732 6.5099 -2.5011 0.9688
-4.0041 6.3704 -2.5011 0.9688
-4.6648 5.9033 -2.5010 0.9688
-5.0757 5.5536 -2.5009 0.9688
-5.2715 5.3680 -2.5009 0.9688
-5.4605 5.1754 -2.5009 0.9688
-5.6426 4.9762 -2.5008 0.9688
-5.8173 4.7707 -2.5008 0.9688
1.8239 6.7549 -2.5021 0.9707
1.5805 6.8158 -2.5021 0.9707
1.3351 6.8680 -2.5020 0.9707
1.0879 6.9113 -2.5020 0.9707
0.5898 6.9713 -2.5019 0.9707
0.3395 6.9878 -2.5018 0.9707
0.0887 6.9954 -2.5018 0.9707
-0.4129 6.9835 -2.5017 0.9707
-1.1604 6.8984 -2.5016 0.9707
-1.6517 6.7973 -2.5015 0.9707
-2.1345 6.6612 -2.5014 0.9707
-2.6064 6.4909 -2.5013 0.9707
-2.8374 6.3932 -2.5013 0.9707
-3.0647 6.2872 -2.5013 0.9707
-3.5073 6.0513 -2.5012 0.9707
-3.9319 5.7842 -2.5011 0.9707
-4.3362 5.4874 -2.5011 0.9707
2.1495 6.1654 -2.5022 0.9724
1.9270 6.2384 -2.5021 0.9724
1.7020 6.3034 -2.5021 0.9724
1.4749 6.3603 -2.5020 0.9724
1.2459 6.4090 -2.5020 0.9724
0.7833 6.4816 -2.5019 0.9724
0.3168 6.5208 -2.5018 0.9724
0.0828 6.5279 -2.5018 0.9724
-0.3853 6.5168 -2.5017 0.9724
-0.8513 6.4722 -2.5016 0.9724
-1.0828 6.4374 -2.5016 0.9724
-1.3129 6.3944 -2.5016 0.9724
-1.7677 6.2837 -2.5015 0.9724
-2.4322 6.0572 -2.5014 0.9724
-2.6477 5.9660 -2.5013 0.9724
-2.8599 5.8672 -2.5013 0.9724
-3.0684 5.7608 -2.5013 0.9724
-3.2729 5.6469 -2.5012 0.9724
-3.6692 5.3977 -2.5012 0.9724
-4.2274 4.9723 -2.5011 0.9724
-4.4029 4.8175 -2.5010 0.9724
-4.7367 4.4894 -2.5010 0.9724
-4.8946 4.3166 -2.5010 0.9724
2.0126 5.7728 -2.5021 0.9739
1.8042 5.8412 -2.5021 0.9739
0.2966 6.1056 -2.5018 0.9739
-0.1418 6.1110 -2.5018 0.9739
-0.7971 6.0602 -2.5017 0.9739
-1.0138 6.0276 -2.5016 0.9739
-1.2294 5.9873 -2.5016 0.9739
-1.4432 5.9393 -2.5015 0.9739
-1.8651 5.8204 -2.5015 0.9739
-2.8731 5.3941 -2.5013 0.9739
-3.0646 5.2875 -2.5013 0.9739
-3.4356 5.0541 -2.5012 0.9739
-3.6146 4.9277 -2.5012 0.9739
-3.9583 4.6558 -2.5011 0.9739
-4.1227 4.5108 -2.5011 0.9739
-4.4353 4.2037 -2.5010 0.9739
1.8900 5.4212 -2.5021 0.9753
0.8927 5.6710 -2.5019 0.9753
0.6887 5.6993 -2.5019 0.9753
-0.5440 5.7144 -2.5017 0.9753
-0.7486 5.6911 -2.5017 0.9753
-0.9521 5.6606 -2.5016 0.9753
-1.1545 5.6227 -2.5016 0.9753
-1.3553 5.5776 -2.5016 0.9753
-1.5544 5.5254 -2.5015 0.9753
-1.9463 5.3996 -2.5015 0.9753
-2.1387 5.3263 -2.5014 0.9753
-2.3283 5.2461 -2.5014 0.9753
-2.5148 5.1592 -2.5014 0.9753
-2.6982 5.0656 -2.5013 0.9753
-2.8780 4.9655 -2.5013 0.9753
-3.0542 4.8591 -2.5013 0.9753
-3.7173 4.3723 -2.5012 0.9753
-4.0211 4.0946 -2.5011 0.9753
-4.1652 3.9478 -2.5011 0.9753
-4.4374 3.6390 -2.5010 0.9753
1.7794 5.1041 -2.5021 0.9765
1.5953 5.1646 -2.5021 0.9765
1.2210 5.2655 -2.5020 0.9765
1.0314 5.3058 -2.5020 0.9765
0.8405 5.3393 -2.5019 0.9765
0.6485 5.3660 -2.5019 0.9765
-0.1253 5.4033 -2.5018 0.9765
-0.3189 5.3952 -2.5017 0.9765
-1.0870 5.2939 -2.5016 0.9765
-1.4635 5.2023 -2.5015 0.9765
-1.8325 5.0839 -2.5015 0.9765
-2.0136 5.0149 -2.5014 0.9765
-2.1921 4.9394 -2.5014 0.9765
-2.5404 4.7694 -2.5014 0.9765
-3.1961 4.3571 -2.5012 0.9765
-3.6453 3.9886 -2.5012 0.9765
-3.7860 3.8552 -2.5011 0.9765
-4.1779 3.4263 -2.5011 0.9765
1.5054 4.8736 -2.5020 0.9775
1.3297 4.9244 -2.5020 0.9775
0.9733 5.0069 -2.5020 0.9775
0.6120 5.0636 -2.5019 0.9775
0.4300 5.0822 -2.5019 0.9775
0.2475 5.0943 -2.5018 0.9775
0.0647 5.0998 -2.5018 0.9775
-0.1182 5.0988 -2.5018 0.9775
-0.3010 5.0912 -2.5017 0.9775
-0.6651 5.0564 -2.5017 0.9775
-1.0257 4.9957 -2.5016 0.9775
-1.2042 4.9556 -2.5016 0.9775
-1.7293 4.7975 -2.5015 0.9775
-1.9002 4.7323 -2.5015 0.9775
-2.2344 4.5839 -2.5014 0.9775
-2.5571 4.4119 -2.5014 0.9775
-3.3029 3.8848 -2.5012 0.9775
-3.4400 3.7639 -2.5012 0.9775
-3.5727 3.6380 -2.5012 0.9775
-3.7008 3.5076 -2.5012 0.9775
1.4234 4.6081 -2.5020 0.9785
1.0895 4.6981 -2.5020 0.9785
0.4065 4.8054 -2.5019 0.9785
0.2340 4.8169 -2.5018 0.9785
-0.2846 4.8139 -2.5017 0.9785
-0.4570 4.8006 -2.5017 0.9785
-0.6288 4.7811 -2.5017 0.9785
-0.7998 4.7554 -2.5017 0.9785
-1.1386 4.6857 -2.5016 0.9785
-1.3059 4.6418 -2.5016 0.9785
-1.9560 4.4073 -2.5015 0.9785
-2.1127 4.3342 -2.5014 0.9785
-2.2668 4.2556 -2.5014 0.9785
-2.4179 4.1716 -2.5014 0.9785
-2.9893 3.7829 -2.5013 0.9785
-3.1229 3.6733 -2.5013 0.9785
-3.3781 3.4399 -2.5012 0.9785
1.3482 4.3647 -2.5020 0.9794
1.1908 4.4102 -2.5020 0.9794
0.2217 4.5625 -2.5018 0.9794
0.0579 4.5674 -2.5018 0.9794
-0.1059 4.5665 -2.5018 0.9794
-1.0785 4.4383 -2.5016 0.9794
-1.2369 4.3967 -2.5016 0.9794
-1.3937 4.3495 -2.5016 0.9794
-1.7018 4.2383 -2.5015 0.9794
-1.8527 4.1745 -2.5015 0.9794
-2.1470 4.0309 -2.5014 0.9794
-2.4304 3.8666 -2.5014 0.9794
-2.5674 3.7770 -2.5014 0.9794
-2.8315 3.5832 -2.5013 0.9794
-2.9581 3.4793 -2.5013 0.9794
-3.0809 3.3710 -2.5013 0.9794
-3.5311 2.8958 -2.5012 0.9794
0.3654 4.3179 -2.5018 0.9802
0.2103 4.3282 -2.5018 0.9802
0.0550 4.3329 -2.5018 0.9802
-0.1005 4.3320 -2.5018 0.9802
-0.2557 4.3256 -2.5017 0.9802
-0.4106 4.3136 -2.5017 0.9802
-0.5651 4.2961 -2.5017 0.9802
-1.0231 4.2104 -2.5016 0.9802
-1.1734 4.1710 -2.5016 0.9802
-1.4693 4.0761 -2.5015 0.9802
-1.6144 4.0207 -2.5015 0.9802
-1.8984 3.8946 -2.5015 0.9802
-2.0368 3.8240 -2.5014 0.9802
-2.4356 3.5831 -2.5014 0.9802
-2.5625 3.4934 -2.5014 0.9802
-2.6861 3.3992 -2.5013 0.9802
-2.8062 3.3007 -2.5013 0.9802
-3.0355 3.0911 -2.5013 0.9802
-3.1444 2.9802 -2.5013 0.9802
-3.2492 2.8655 -2.5012 0.9802
-3.3498 2.7471 -2.5012 0.9802
