ply
format ascii 1.0
element vertex 576
property float32 x
property float32 y
property float32 z
property float32 I
end_header
26.3067 18.6000 5.6809 0.8773
24.4363 18.6358 5.4188 0.8827
22.8588 18.7754 5.2159 0.8868
21.2858 18.8100 5.0087 0.8910
17.1815 18.8632 4.4990 0.9016
16.0056 18.8996 4.3670 0.9043
26.2660 35.9878 7.8560 0.8345
23.9972 35.5026 7.5560 0.8403
22.1425 35.4523 7.3703 0.8439
19.5043 36.9131 7.3615 0.8440
19.2928 39.9394 7.8210 0.8351
5.8458 18.5290 3.4259 0.9241
11.5907 41.9596 7.6757 0.8379
26.7759 18.9317 5.0236 0.8757
22.7872 18.7166 4.5175 0.8875
21.3536 18.8699 4.3655 0.8911
28.4081 38.9228 7.3820 0.8228
25.8496 41.3879 7.4754 0.8208
11.0277 19.1627 3.3870 0.9144
20.0636 41.5351 7.0664 0.8297
4.5210 10.2919 1.7221 0.9555
14.7076 41.3530 6.7238 0.8373
11.4463 41.4373 6.5857 0.8403
28.3839 18.5695 4.4169 0.8721
21.9130 41.4720 6.1080 0.8276
20.0771 41.5626 6.0107 0.8301
11.5903 41.9583 5.6685 0.8390
11.0276 19.1624 2.3741 0.9149
11.4721 18.3679 1.8332 0.9167
10.5828 18.3896 1.7961 0.9184
10.5979 20.0572 1.9203 0.9130
4.5211 10.2921 0.9516 0.9559
29.1899 19.0968 2.1630 0.8695
10.5812 18.3868 1.3155 0.9185
10.5796 18.3840 0.8364 0.9186
10.5850 20.0327 0.8934 0.9133
5.8420 18.5169 0.7656 0.9252
11.3372 41.0422 1.6789 0.8433
29.5695 17.8555 0.5835 0.8709
11.4667 18.3594 0.3656 0.9170
10.5780 18.3812 0.3582 0.9187
10.5849 20.0326 0.3827 0.9133
5.8413 18.5149 0.3279 0.9253
11.3357 41.0366 0.7191 0.8434
5.1664 2.1773 -0.0316 0.9778
5.1658 2.4002 -0.0321 0.9775
5.1828 2.6396 -0.0327 0.9770
5.1628 2.8685 -0.0333 0.9767
5.1612 3.6492 -0.0356 0.9750
5.1600 4.2383 -0.0376 0.9736
5.1571 5.6620 -0.0431 0.9698
5.1544 7.0621 -0.0492 0.9656
5.1532 7.6239 -0.0518 0.9639
5.1487 8.2436 -0.0547 0.9619
5.1465 8.9430 -0.0581 0.9596
5.1440 9.7355 -0.0620 0.9569
4.5212 10.2924 -0.0634 0.9560
5.1342 12.9367 -0.0784 0.9458
5.1336 14.4340 -0.0863 0.9406
5.1217 18.5412 -0.1083 0.9259
5.1665 2.1774 -0.1579 0.9778
5.1627 2.8685 -0.1663 0.9766
5.1622 3.1172 -0.1698 0.9762
5.1617 3.3769 -0.1737 0.9756
5.1606 3.9356 -0.1827 0.9744
5.1599 4.2382 -0.1880 0.9736
5.1593 4.5592 -0.1939 0.9728
5.1579 5.2676 -0.2076 0.9709
5.1571 5.6618 -0.2156 0.9698
5.1553 6.5530 -0.2348 0.9672
5.1542 7.0620 -0.2462 0.9656
5.1531 7.6237 -0.2591 0.9638
5.1489 8.2439 -0.2737 0.9619
5.1468 8.9435 -0.2906 0.9595
5.1443 9.7360 -0.3101 0.9569
5.1415 10.6439 -0.3328 0.9538
5.1345 12.9376 -0.3919 0.9458
5.1333 14.4332 -0.4313 0.9405
5.1213 18.5399 -0.5416 0.9259
5.1088 21.4885 -0.6219 0.9154
5.1036 25.5284 -0.7330 0.9011
5.1666 2.1774 -0.2843 0.9778
5.1605 3.9355 -0.3291 0.9743
5.1578 5.2675 -0.3739 0.9709
5.1561 6.0884 -0.4046 0.9686
5.1541 7.0618 -0.4434 0.9656
5.1530 7.6236 -0.4667 0.9638
5.1491 8.2443 -0.4930 0.9618
5.1470 8.9439 -0.5233 0.9595
5.1348 12.9384 -0.7059 0.9458
5.1330 14.4324 -0.7768 0.9405
5.1276 16.2529 -0.8643 0.9340
5.1089 21.4889 -1.1202 0.9153
5.1042 25.5313 -1.3204 0.9010
5.0890 31.2918 -1.6078 0.8808
4.1199 46.1560 -2.3501 0.8306
0.8303 49.3265 -2.5019 0.8207
-0.9503 49.3185 -2.5016 0.8207
-4.5041 49.1098 -2.5010 0.8208
-9.7822 48.3181 -2.5001 0.8208
5.1667 2.1775 -0.4111 0.9778
5.1842 2.6403 -0.4266 0.9769
5.1626 2.8684 -0.4330 0.9766
5.1621 3.1171 -0.4421 0.9761
5.1616 3.3768 -0.4523 0.9756
5.1604 3.9355 -0.4758 0.9743
5.1598 4.2380 -0.4896 0.9736
5.1560 6.0883 -0.5850 0.9685
5.1540 7.0617 -0.6410 0.9655
5.1494 8.2447 -0.7127 0.9618
5.1352 12.9393 -1.0207 0.9457
5.1274 16.2519 -1.2495 0.9339
5.1206 18.5374 -1.4101 0.9258
5.1090 21.4893 -1.6196 0.9152
5.1047 25.5342 -1.9093 0.9008
0.5743 34.1169 -2.5019 0.8721
-0.6573 34.1126 -2.5017 0.8721
-1.8878 34.0638 -2.5015 0.8721
-4.3393 33.8333 -2.5011 0.8721
-5.5570 33.6519 -2.5008 0.8721
-6.7673 33.4267 -2.5006 0.8722
5.1668 2.1775 -0.5383 0.9777
5.1625 2.8684 -0.5670 0.9765
5.1620 3.1171 -0.5789 0.9761
5.1609 3.6490 -0.6068 0.9749
5.1597 4.2380 -0.6410 0.9735
5.1590 4.5590 -0.6610 0.9727
5.1576 5.2673 -0.7077 0.9708
5.1568 5.6615 -0.7352 0.9697
5.1559 6.0881 -0.7659 0.9684
5.1527 7.6232 -0.8834 0.9637
5.1475 8.9448 -0.9908 0.9594
5.1451 9.7375 -1.0573 0.9567
5.1324 14.4308 -1.4704 0.9403
5.1203 18.5362 -1.8462 0.9256
5.1091 21.4897 -2.1206 0.9151
3.9293 24.1610 -2.3500 0.9063
2.3172 25.9598 -2.5022 0.9006
1.3787 26.0248 -2.5020 0.9006
-0.5020 26.0532 -2.5017 0.9006
-3.3143 25.8414 -2.5012 0.9006
-4.2445 25.7034 -2.5011 0.9006
5.1669 2.1775 -0.6660 0.9777
5.1851 2.6407 -0.6912 0.9768
5.1619 3.1170 -0.7163 0.9760
5.1609 3.6489 -0.7508 0.9749
5.1602 3.9354 -0.7709 0.9742
5.1582 4.9010 -0.8452 0.9717
5.1575 5.2672 -0.8757 0.9707
5.1558 6.0880 -0.9477 0.9684
5.1498 8.2454 -1.1548 0.9616
5.1454 9.7380 -1.3083 0.9566
5.1427 10.6463 -1.4044 0.9535
4.5213 10.2927 -1.3353 0.9557
5.1321 14.4300 -1.8193 0.9402
5.1199 18.5349 -2.2841 0.9255
4.5763 19.2483 -2.3502 0.9234
3.8784 19.3999 -2.3500 0.9234
3.1756 19.5262 -2.3499 0.9234
2.6288 20.9003 -2.5022 0.9186
1.1143 21.0334 -2.5020 0.9187
0.3545 21.0588 -2.5018 0.9187
-0.4057 21.0568 -2.5017 0.9187
-1.1654 21.0273 -2.5016 0.9187
-1.9233 20.9705 -2.5015 0.9187
-3.4306 20.7751 -2.5012 0.9187
-4.1779 20.6367 -2.5011 0.9187
5.1670 2.1776 -0.7945 0.9776
5.1619 3.1170 -0.8544 0.9759
5.1608 3.6489 -0.8955 0.9748
5.1602 3.9353 -0.9195 0.9741
5.1589 4.5588 -0.9755 0.9726
5.1581 4.9009 -1.0081 0.9717
5.1566 5.6613 -1.0850 0.9695
5.1547 6.5523 -1.1812 0.9669
5.1537 7.0612 -1.2386 0.9653
5.1525 7.6229 -1.3037 0.9635
4.5214 10.2928 -1.5929 0.9556
5.1362 12.9419 -1.9729 0.9453
5.1319 14.4292 -2.1699 0.9400
4.4164 15.9877 -2.3501 0.9352
3.8364 16.1361 -2.3500 0.9352
3.2514 16.2633 -2.3499 0.9352
2.7957 17.1907 -2.4677 0.9321
2.2039 17.5214 -2.5022 0.9311
1.5700 17.5888 -2.5020 0.9311
-0.9770 17.6286 -2.5016 0.9312
-2.2458 17.5107 -2.5014 0.9312
-3.5028 17.3017 -2.5012 0.9312
5.1671 2.1776 -0.9237 0.9775
5.1666 2.4005 -0.9385 0.9772
5.1623 2.8682 -0.9729 0.9763
5.1618 3.1169 -0.9933 0.9759
5.1607 3.6488 -1.0412 0.9747
5.1588 4.5587 -1.1341 0.9725
5.1573 5.2670 -1.2144 0.9706
5.1565 5.6612 -1.2615 0.9694
5.1546 6.5522 -1.3734 0.9668
5.1536 7.0611 -1.4401 0.9652
5.1524 7.6227 -1.5157 0.9634
5.1503 8.2462 -1.6017 0.9614
5.1483 8.9461 -1.7004 0.9590
5.1459 9.7391 -1.8146 0.9563
5.1432 10.6475 -1.9480 0.9532
3.7982 13.7502 -2.3500 0.9438
3.2994 13.8778 -2.3499 0.9438
2.4382 14.9919 -2.5022 0.9403
1.8955 15.0696 -2.5021 0.9403
1.3503 15.1276 -2.5020 0.9403
0.8035 15.1659 -2.5019 0.9403
0.2556 15.1844 -2.5018 0.9403
-0.2925 15.1832 -2.5017 0.9403
-0.8402 15.1622 -2.5016 0.9403
-1.3868 15.1214 -2.5016 0.9403
-1.9316 15.0610 -2.5015 0.9403
-2.4738 14.9809 -2.5014 0.9403
5.1667 2.4006 -1.0708 0.9771
5.1865 2.6414 -1.0940 0.9766
5.1617 3.1169 -1.1334 0.9758
5.1594 4.2377 -1.2549 0.9732
5.1587 4.5587 -1.2940 0.9724
5.1580 4.9007 -1.3373 0.9715
5.1572 5.2669 -1.3855 0.9704
5.1564 5.6611 -1.4393 0.9693
5.1555 6.0876 -1.4994 0.9681
5.1545 6.5521 -1.5669 0.9666
5.1523 7.6225 -1.7293 0.9632
5.1505 8.2466 -1.8275 0.9612
5.1485 8.9466 -1.9402 0.9589
5.1436 10.6481 -2.2227 0.9530
4.6123 11.6217 -2.3502 0.9504
4.1897 11.7802 -2.3501 0.9504
3.7618 11.9234 -2.3500 0.9504
3.3289 12.0510 -2.3499 0.9504
0.7042 13.2921 -2.5019 0.9473
-0.7364 13.2891 -2.5017 0.9473
-1.2155 13.2534 -2.5016 0.9473
-2.6406 13.0432 -2.5013 0.9473
5.1668 2.4006 -1.2043 0.9770
5.1870 2.6417 -1.2304 0.9765
5.1616 3.1168 -1.2745 0.9756
5.1611 3.3765 -1.3037 0.9751
5.1599 3.9351 -1.3717 0.9738
5.1579 4.9006 -1.5039 0.9713
5.1571 5.2668 -1.5581 0.9703
5.1544 6.5519 -1.7621 0.9665
5.1521 7.6223 -1.9447 0.9631
5.1508 8.2470 -2.0553 0.9610
5.1488 8.9470 -2.1820 0.9587
5.1465 9.7401 -2.3286 0.9560
4.8361 10.0115 -2.3502 0.9556
4.4715 10.1793 -2.3501 0.9556
4.1012 10.3337 -2.3501 0.9556
3.3449 10.6020 -2.3499 0.9556
2.7381 11.5167 -2.5022 0.9528
2.3206 11.6077 -2.5022 0.9528
1.4772 11.7442 -2.5020 0.9528
1.0524 11.7895 -2.5020 0.9528
0.1993 11.8340 -2.5018 0.9528
-1.0809 11.7852 -2.5016 0.9528
-1.5054 11.7381 -2.5015 0.9528
-1.9280 11.6758 -2.5015 0.9528
-2.3481 11.5983 -2.5014 0.9528
5.1669 2.4007 -1.3390 0.9769
5.1874 2.6419 -1.3682 0.9764
5.1620 2.8681 -1.3879 0.9760
5.1615 3.1168 -1.4171 0.9755
5.1592 4.2376 -1.5691 0.9729
5.1578 4.9005 -1.6721 0.9712
5.1570 5.2667 -1.7324 0.9702
5.1553 6.0874 -1.8748 0.9678
5.1543 6.5518 -1.9592 0.9663
5.1532 7.0606 -2.0544 0.9647
5.1520 7.6221 -2.1622 0.9629
5.1511 8.2474 -2.2853 0.9608
3.6885 9.2939 -2.3500 0.9597
3.0083 9.5353 -2.3499 0.9597
2.0871 10.4398 -2.5021 0.9572
1.7090 10.5080 -2.5021 0.9572
1.3286 10.5626 -2.5020 0.9572
0.5632 10.6304 -2.5019 0.9572
0.1792 10.6435 -2.5018 0.9572
-0.2051 10.6427 -2.5018 0.9572
-1.3540 10.5574 -2.5016 0.9572
-2.1119 10.4317 -2.5014 0.9572
5.1676 2.1778 -1.4519 0.9771
5.1670 2.4007 -1.4752 0.9767
5.1879 2.6421 -1.5074 0.9762
5.1614 3.1167 -1.5611 0.9754
5.1609 3.3764 -1.5968 0.9748
5.1603 3.6486 -1.6363 0.9742
5.1597 3.9349 -1.6801 0.9735
5.1591 4.2375 -1.7286 0.9728
5.1584 4.5584 -1.7824 0.9720
5.1577 4.9004 -1.8421 0.9710
5.1569 5.2666 -1.9085 0.9700
5.1561 5.6607 -1.9825 0.9689
5.1552 6.0873 -2.0654 0.9676
5.1542 6.5516 -2.1583 0.9661
5.1531 7.0604 -2.2632 0.9645
4.2404 8.0252 -2.3501 0.9632
3.9479 8.1729 -2.3500 0.9632
3.6503 8.3098 -2.3500 0.9632
3.0413 8.5511 -2.3499 0.9632
2.5732 9.3153 -2.5022 0.9609
2.2353 9.4019 -2.5022 0.9609
1.8945 9.4762 -2.5021 0.9609
1.5513 9.5382 -2.5020 0.9609
1.2060 9.5877 -2.5020 0.9609
-0.8824 9.6215 -2.5016 0.9609
-1.9170 9.4691 -2.5015 0.9609
5.1677 2.1779 -1.5875 0.9770
5.1619 2.8680 -1.6717 0.9758
5.1596 3.9349 -1.8369 0.9734
5.1590 4.2374 -1.8900 0.9726
5.1576 4.9004 -2.0140 0.9709
5.1568 5.2665 -2.0866 0.9698
5.1551 6.0871 -2.2581 0.9674
5.1332 6.5249 -2.3502 0.9661
4.8943 6.7058 -2.3502 0.9661
4.6490 6.8779 -2.3502 0.9661
4.3977 7.0411 -2.3501 0.9661
4.1407 7.1951 -2.3501 0.9661
3.6107 7.4747 -2.3500 0.9661
3.0621 7.7154 -2.3499 0.9661
2.8165 7.9191 -2.3794 0.9657
2.6595 8.4294 -2.5022 0.9639
2.0444 8.5989 -2.5021 0.9639
1.7327 8.6669 -2.5021 0.9639
1.1030 8.7689 -2.5020 0.9639
0.7858 8.8028 -2.5019 0.9639
-0.1702 8.8356 -2.5018 0.9639
-0.4890 8.8235 -2.5017 0.9639
-1.4396 8.7184 -2.5015 0.9639
5.1678 2.1779 -1.7249 0.9768
5.1673 2.4008 -1.7525 0.9764
5.1618 2.8680 -1.8163 0.9756
5.1613 3.1166 -1.8545 0.9751
5.1607 3.3763 -1.8968 0.9745
5.1602 3.6484 -1.9438 0.9739
5.1595 3.9348 -1.9958 0.9732
5.1589 4.2373 -2.0534 0.9724
5.1582 4.5582 -2.1173 0.9716
5.1575 4.9002 -2.1882 0.9707
5.1567 5.2664 -2.2671 0.9696
4.2788 6.3302 -2.3501 0.9685
3.5694 6.7553 -2.3500 0.9685
2.8273 7.1238 -2.3574 0.9684
2.1660 7.8413 -2.5022 0.9665
1.8816 7.9143 -2.5021 0.9665
1.0152 8.0708 -2.5020 0.9665
0.7233 8.1020 -2.5019 0.9665
0.4304 8.1227 -2.5019 0.9665
-0.4500 8.1211 -2.5017 0.9665
-0.7428 8.0994 -2.5017 0.9665
-1.3251 8.0244 -2.5016 0.9665
-1.6137 7.9712 -2.5015 0.9665
5.1679 2.1780 -1.8642 0.9766
5.1674 2.4009 -1.8940 0.9763
5.1894 2.6429 -1.9358 0.9758
5.1617 2.8679 -1.9628 0.9754
5.1607 3.3762 -2.0499 0.9743
5.1601 3.6484 -2.1007 0.9737
5.1595 3.9348 -2.1568 0.9730
5.1588 4.2372 -2.2191 0.9723
5.1581 4.5582 -2.2881 0.9714
4.7610 5.2270 -2.3502 0.9706
4.5692 5.3953 -2.3502 0.9706
4.3715 5.5567 -2.3501 0.9706
3.9592 5.8573 -2.3501 0.9706
3.7451 5.9963 -2.3500 0.9706
3.5262 6.1274 -2.3500 0.9706
2.8432 6.4724 -2.3499 0.9706
2.7769 6.9968 -2.5023 0.9688
2.2648 7.1787 -2.5022 0.9688
1.2083 7.4293 -2.5020 0.9688
0.3982 7.5160 -2.5019 0.9688
0.1267 7.5253 -2.5018 0.9688
-0.1449 7.5248 -2.5018 0.9688
-0.4164 7.5146 -2.5017 0.9688
-0.6873 7.4945 -2.5017 0.9688
-1.2261 7.4251 -2.5016 0.9688
5.1681 2.1780 -2.0055 0.9765
5.1899 2.6432 -2.0828 0.9756
5.1616 2.8679 -2.1116 0.9752
5.1606 3.3762 -2.2053 0.9741
4.9248 4.3519 -2.3502 0.9725
4.4254 4.8585 -2.3501 0.9725
4.2471 5.0150 -2.3501 0.9725
4.0633 5.1649 -2.3501 0.9725
3.6801 5.4444 -2.3500 0.9725
3.0700 5.8100 -2.3499 0.9725
2.8582 5.9169 -2.3499 0.9725
2.7973 6.3678 -2.4872 0.9709
2.5811 6.5037 -2.5022 0.9707
2.3447 6.5925 -2.5022 0.9707
2.1052 6.6727 -2.5021 0.9707
1.3717 6.8608 -2.5020 0.9707
1.1231 6.9057 -2.5020 0.9707
0.8731 6.9416 -2.5019 0.9707
0.6221 6.9685 -2.5019 0.9707
-0.3871 6.9850 -2.5017 0.9707
-0.6389 6.9664 -2.5017 0.9707
-0.8899 6.9387 -2.5016 0.9707
-1.3880 6.8562 -2.5016 0.9707
5.1904 2.6434 -2.2321 0.9754
5.1610 3.1165 -2.3104 0.9745
5.1322 3.3576 -2.3503 0.9741
5.0076 3.5406 -2.3502 0.9741
4.8766 3.7190 -2.3502 0.9741
4.5955 4.0610 -2.3502 0.9741
4.4459 4.2241 -2.3501 0.9741
4.2905 4.3818 -2.3501 0.9741
4.1296 4.5337 -2.3501 0.9741
3.9632 4.6797 -2.3501 0.9741
3.7917 4.8197 -2.3500 0.9741
3.6152 4.9533 -2.3500 0.9741
3.2484 5.2010 -2.3499 0.9741
3.0586 5.3148 -2.3499 0.9741
1.9645 6.2267 -2.5021 0.9724
1.7385 6.2934 -2.5021 0.9724
1.5102 6.3520 -2.5020 0.9724
1.2800 6.4022 -2.5020 0.9724
1.0480 6.4442 -2.5020 0.9724
0.5805 6.5028 -2.5019 0.9724
0.3454 6.5194 -2.5018 0.9724
-0.3612 6.5182 -2.5017 0.9724
-0.5962 6.5008 -2.5017 0.9724
-0.8304 6.4750 -2.5016 0.9724
-1.0635 6.4407 -2.5016 0.9724
5.1171 2.6061 -2.3502 0.9755
5.0197 2.7890 -2.3502 0.9755
4.9157 2.9683 -2.3502 0.9755
4.3029 3.8024 -2.3501 0.9755
4.1628 3.9551 -2.3501 0.9755
4.0173 4.1027 -2.3501 0.9755
3.8666 4.2450 -2.3500 0.9755
3.5503 4.5127 -2.3500 0.9755
3.3850 4.6379 -2.3500 0.9755
3.2154 4.7569 -2.3499 0.9755
2.8036 5.3058 -2.4560 0.9744
2.4589 5.5975 -2.5022 0.9739
2.2552 5.6825 -2.5022 0.9739
1.8394 5.8302 -2.5021 0.9739
1.4141 5.9475 -2.5020 0.9739
0.9813 6.0338 -2.5020 0.9739
0.7629 6.0653 -2.5019 0.9739
0.1029 6.1119 -2.5018 0.9739
-0.1177 6.1116 -2.5018 0.9739
-0.5582 6.0870 -2.5017 0.9739
-0.9958 6.0307 -2.5016 0.9739
-1.2128 5.9907 -2.5016 0.9739
4.9695 2.0943 -2.3502 0.9767
4.6163 2.7875 -2.3502 0.9767
4.5126 2.9523 -2.3501 0.9767
4.4031 3.1132 -2.3501 0.9767
4.2879 3.2700 -2.3501 0.9767
3.9092 3.7142 -2.3500 0.9767
3.7726 3.8528 -2.3500 0.9767
3.1788 4.3554 -2.3499 0.9767
2.6823 5.0764 -2.5022 0.9753
2.4973 5.1698 -2.5022 0.9753
2.1179 5.3364 -2.5021 0.9753
1.9239 5.4093 -2.5021 0.9753
1.7274 5.4751 -2.5021 0.9753
1.3279 5.5853 -2.5020 0.9753
0.9216 5.6664 -2.5019 0.9753
0.5104 5.7179 -2.5019 0.9753
0.0967 5.7397 -2.5018 0.9753
-0.5242 5.7163 -2.5017 0.9753
-0.9352 5.6634 -2.5016 0.9753
4.6788 1.9718 -2.3502 0.9779
4.4381 2.4659 -2.3501 0.9779
4.2486 2.7796 -2.3501 0.9779
4.0371 3.0787 -2.3501 0.9779
3.8044 3.3619 -2.3500 0.9779
3.5519 3.6274 -2.3500 0.9779
3.2809 3.8741 -2.3499 0.9779
2.8429 4.2059 -2.3499 0.9779
2.6963 4.6853 -2.5022 0.9765
1.8114 5.0929 -2.5021 0.9765
1.4393 5.2102 -2.5020 0.9765
1.0597 5.3003 -2.5020 0.9765
0.2860 5.3973 -2.5018 0.9765
0.0910 5.4040 -2.5018 0.9765
-0.1041 5.4037 -2.5018 0.9765
-0.4936 5.3820 -2.5017 0.9765
-1.0723 5.2969 -2.5016 0.9765
4.2693 2.1743 -2.3501 0.9789
3.9119 2.7659 -2.3500 0.9789
3.8095 2.9052 -2.3500 0.9789
3.7021 3.0408 -2.3500 0.9789
3.3517 3.4230 -2.3500 0.9789
3.0960 3.6558 -2.3499 0.9789
2.9621 3.7651 -2.3499 0.9789
2.8308 3.8785 -2.3553 0.9788
2.8041 4.1484 -2.4561 0.9779
2.3831 4.5102 -2.5022 0.9775
2.2188 4.5932 -2.5022 0.9775
1.8817 4.7412 -2.5021 0.9775
1.1798 4.9623 -2.5020 0.9775
1.0000 5.0016 -2.5020 0.9775
0.8188 5.0344 -2.5019 0.9775
0.4535 5.0802 -2.5019 0.9775
0.2699 5.0932 -2.5018 0.9775
-0.6488 5.0586 -2.5017 0.9775
-0.8309 5.0318 -2.5016 0.9775
4.1745 1.7593 -2.3501 0.9798
4.1083 1.9088 -2.3501 0.9798
3.9598 2.2001 -2.3501 0.9798
3.7908 2.4800 -2.3500 0.9798
3.6020 2.7469 -2.3500 0.9798
3.5005 2.8751 -2.3500 0.9798
3.3944 2.9996 -2.3500 0.9798
3.2839 3.1201 -2.3499 0.9798
3.1691 3.2365 -2.3499 0.9798
2.8023 3.8396 -2.4660 0.9788
2.7011 3.9961 -2.5022 0.9785
2.2533 4.2645 -2.5022 0.9785
2.0979 4.3430 -2.5021 0.9785
1.9398 4.4158 -2.5021 0.9785
1.7792 4.4829 -2.5021 0.9785
1.4512 4.5995 -2.5020 0.9785
1.2842 4.6488 -2.5020 0.9785
1.1155 4.6920 -2.5020 0.9785
0.9454 4.7292 -2.5019 0.9785
0.7742 4.7602 -2.5019 0.9785
0.2552 4.8158 -2.5018 0.9785
0.0812 4.8218 -2.5018 0.9785
-0.0928 4.8215 -2.5018 0.9785
-0.2668 4.8150 -2.5017 0.9785
-0.4404 4.8021 -2.5017 0.9785
-0.7856 4.7578 -2.5017 0.9785
-0.9568 4.7262 -2.5016 0.9785
3.9540 1.6664 -2.3501 0.9806
3.7507 2.0839 -2.3500 0.9806
3.6730 2.2179 -2.3500 0.9806
3.3155 2.7232 -2.3499 0.9806
3.2151 2.8411 -2.3499 0.9806
2.5584 3.7850 -2.5022 0.9794
2.2787 3.9596 -2.5022 0.9794
2.1343 4.0392 -2.5021 0.9794
1.9871 4.1136 -2.5021 0.9794
1.8374 4.1826 -2.5021 0.9794
1.5309 4.3041 -2.5020 0.9794
1.2163 4.4032 -2.5020 0.9794
1.0566 4.4442 -2.5020 0.9794
0.7333 4.5088 -2.5019 0.9794
0.2417 4.5615 -2.5018 0.9794
-0.2527 4.5607 -2.5017 0.9794
-0.4171 4.5486 -2.5017 0.9794
-0.5810 4.5305 -2.5017 0.9794
-0.7442 4.5065 -2.5017 0.9794
-0.9063 4.4767 -2.5016 0.9794
3.6914 1.7151 -2.3500 0.9814
3.4844 2.1040 -2.3500 0.9814
3.3235 2.3498 -2.3499 0.9814
3.0500 2.6952 -2.3499 0.9814
2.9507 2.8035 -2.3499 0.9814
2.8476 2.9081 -2.3499 0.9814
2.5551 3.5007 -2.5022 0.9802
2.4270 3.5906 -2.5022 0.9802
2.1617 3.7563 -2.5022 0.9802
2.0247 3.8318 -2.5021 0.9802
1.7430 3.9678 -2.5021 0.9802
1.5987 4.0281 -2.5021 0.9802
1.4522 4.0831 -2.5020 0.9802
1.3039 4.1328 -2.5020 0.9802
1.0024 4.2160 -2.5020 0.9802
0.8496 4.2494 -2.5019 0.9802
0.5408 4.2995 -2.5019 0.9802
-0.0835 4.3324 -2.5018 0.9802
-0.3957 4.3150 -2.5017 0.9802
-0.5512 4.2979 -2.5017 0.9802
-0.7059 4.2751 -2.5017 0.9802
-0.8597 4.2468 -2.5016 0.9802
