ply
format ascii 1.0
element vertex 528
property float32 x
property float32 y
property float32 z
property float32 I
end_header
12.5673 -10.6574 2.9055 0.9353
14.3317 -11.2888 3.2169 0.9286
7.8719 -4.1621 1.5701 0.9645
7.8865 -3.4656 1.5189 0.9656
3.5639 -1.4147 0.6761 0.9845
19.1757 -3.8285 3.4479 0.9236
23.1308 -3.7542 4.1319 0.9092
27.3064 18.6219 5.8279 0.8744
11.6370 -11.4128 2.4970 0.9362
13.5124 -11.4588 2.7141 0.9308
7.8612 -4.1565 1.3623 0.9647
7.8688 -3.8030 1.3388 0.9653
7.8762 -3.4611 1.3179 0.9658
7.8584 -3.7980 1.1366 0.9654
7.8659 -3.4566 1.1188 0.9659
3.5684 -1.2692 0.4932 0.9848
8.1334 -2.5655 1.1106 0.9662
11.6379 -11.4137 1.7504 0.9365
12.5086 -11.4102 1.8181 0.9342
3.5463 -1.4077 0.4097 0.9848
3.5642 -1.2677 0.4062 0.9849
8.1381 -2.5670 0.9163 0.9663
27.3731 18.6674 3.5578 0.8752
11.6384 -11.4142 1.3800 0.9367
12.4889 -11.3922 1.4310 0.9344
13.5141 -11.4604 1.5000 0.9313
7.8298 -4.1398 0.7498 0.9651
7.8378 -3.7881 0.7369 0.9657
3.5405 -1.4054 0.3225 0.9848
3.5600 -1.2662 0.3199 0.9849
8.1429 -2.5685 0.7228 0.9663
27.3330 18.6401 2.8006 0.8756
11.6389 -11.4146 1.0109 0.9368
7.8195 -4.1344 0.5485 0.9652
7.8277 -3.7831 0.5391 0.9658
7.8356 -3.4433 0.5307 0.9663
3.5348 -1.4031 0.2358 0.9849
3.5558 -1.2647 0.2340 0.9850
8.1476 -2.5700 0.5298 0.9663
27.3998 18.6856 2.0566 0.8755
12.5382 -11.4372 0.6692 0.9343
7.8092 -4.1289 0.3483 0.9653
7.8176 -3.7782 0.3424 0.9658
27.3601 18.6585 1.3059 0.8758
11.6398 -11.4155 0.2754 0.9369
13.5159 -11.4618 0.2993 0.9316
7.7990 -4.1235 0.1490 0.9653
3.5234 -1.3986 0.0640 0.9849
26.8801 18.3312 0.5496 0.8780
11.6403 -11.4160 -0.0918 0.9369
12.5393 -11.4382 -0.0956 0.9344
13.5165 -11.4623 -0.0998 0.9316
7.7887 -4.1181 -0.0496 0.9654
7.7974 -3.7685 -0.0488 0.9660
7.8058 -3.4302 -0.0480 0.9665
3.5178 -1.3964 -0.0213 0.9850
3.5434 -1.2603 -0.0212 0.9851
8.1617 -2.5744 -0.0482 0.9663
26.2503 -3.2915 -0.1490 0.8996
26.7816 18.2641 -0.1825 0.8784
12.5398 -11.4387 -0.4779 0.9343
13.5171 -11.4628 -0.4990 0.9315
7.7874 -3.7637 -0.2435 0.9660
7.7960 -3.4259 -0.2398 0.9665
3.5393 -1.2588 -0.1058 0.9851
8.1663 -2.5759 -0.2411 0.9663
26.2194 -3.2877 -0.7441 0.8997
2.9704 -2.9131 -0.2110 0.9835
2.9637 -2.7034 -0.2034 0.9841
11.3858 -8.3194 -0.7151 0.9451
12.3277 -8.3411 -0.7549 0.9421
13.3819 -8.3654 -0.8003 0.9387
14.5955 -8.4060 -0.8542 0.9348
7.7684 -4.1074 -0.4456 0.9654
3.5065 -1.3919 -0.1913 0.9850
29.9179 14.5950 -1.6882 0.8752
26.7045 18.2115 -1.6392 0.8786
2.9590 -2.3308 -0.2762 0.9850
2.9590 -2.1621 -0.2687 0.9854
2.9589 -2.0020 -0.2620 0.9858
2.9589 -1.8497 -0.2559 0.9861
2.9588 -1.7040 -0.2504 0.9864
2.9585 -1.3001 -0.2369 0.9871
2.9584 -1.1743 -0.2334 0.9873
2.9582 -1.0521 -0.2302 0.9875
2.9571 -0.3708 -0.2185 0.9881
2.9569 -0.2626 -0.2177 0.9882
2.9566 -0.1551 -0.2171 0.9882
2.9564 -0.0480 -0.2168 0.9882
2.9561 0.0589 -0.2168 0.9882
2.9555 0.2734 -0.2176 0.9882
2.9552 0.3816 -0.2185 0.9881
2.9549 0.4907 -0.2196 0.9881
2.9546 0.6012 -0.2211 0.9880
2.9542 0.7132 -0.2228 0.9879
2.9520 1.3102 -0.2368 0.9871
2.9509 1.5741 -0.2452 0.9867
2.9503 1.7136 -0.2502 0.9864
2.9546 -2.5056 -0.3719 0.9846
2.9547 -2.3273 -0.3611 0.9850
2.9549 -1.7018 -0.3274 0.9864
2.9548 -1.4281 -0.3151 0.9869
2.9547 -1.2984 -0.3099 0.9871
2.9547 -1.1729 -0.3052 0.9873
2.9540 -0.5898 -0.2892 0.9880
2.9532 -0.1549 -0.2839 0.9882
2.9530 -0.0480 -0.2835 0.9882
2.9527 0.0588 -0.2835 0.9882
2.9514 0.4901 -0.2872 0.9880
2.9507 0.7124 -0.2914 0.9879
2.9503 0.8262 -0.2941 0.9878
2.9498 0.9424 -0.2973 0.9876
2.9470 1.5720 -0.3207 0.9867
2.9464 1.7113 -0.3271 0.9864
2.9456 1.8565 -0.3343 0.9861
2.9501 -2.5018 -0.4595 0.9845
2.9507 -1.9965 -0.4232 0.9858
2.9508 -1.8447 -0.4134 0.9861
2.9510 -1.4262 -0.3893 0.9869
2.9509 -1.0496 -0.3720 0.9875
2.9509 -0.9308 -0.3675 0.9876
2.9504 -0.4788 -0.3551 0.9880
2.9502 -0.3699 -0.3532 0.9881
2.9500 -0.2620 -0.3518 0.9881
2.9493 0.0587 -0.3504 0.9882
2.9490 0.1655 -0.3509 0.9882
2.9487 0.2728 -0.3518 0.9881
2.9484 0.3807 -0.3531 0.9881
2.9472 0.7115 -0.3601 0.9879
2.9467 0.8252 -0.3635 0.9877
2.9462 0.9412 -0.3674 0.9876
2.9457 1.0599 -0.3719 0.9875
2.9452 1.1816 -0.3769 0.9873
2.9439 1.4361 -0.3891 0.9869
2.9425 1.7090 -0.4042 0.9864
2.9452 -2.6866 -0.5648 0.9840
2.9465 -1.9937 -0.5041 0.9857
2.9468 -1.8421 -0.4924 0.9861
2.9470 -1.6972 -0.4819 0.9864
2.9471 -1.5582 -0.4723 0.9866
2.9472 -1.4244 -0.4638 0.9869
2.9473 -1.2952 -0.4561 0.9871
2.9473 -1.1699 -0.4493 0.9873
2.9473 -1.0483 -0.4432 0.9874
2.9473 -0.9297 -0.4379 0.9876
2.9472 -0.8137 -0.4332 0.9877
2.9471 -0.7001 -0.4292 0.9878
2.9468 -0.3695 -0.4208 0.9881
2.9466 -0.2617 -0.4191 0.9881
2.9464 -0.1546 -0.4180 0.9882
2.9453 0.2724 -0.4191 0.9881
2.9446 0.4890 -0.4229 0.9880
2.9441 0.5990 -0.4257 0.9879
2.9437 0.7107 -0.4291 0.9878
2.9432 0.8242 -0.4331 0.9877
2.9427 0.9401 -0.4377 0.9876
2.9421 1.0586 -0.4430 0.9874
2.9415 1.1801 -0.4491 0.9873
2.9408 1.3052 -0.4559 0.9871
2.9401 1.4343 -0.4635 0.9869
2.9393 1.5679 -0.4720 0.9866
2.9385 1.7067 -0.4815 0.9864
2.9376 1.8514 -0.4920 0.9861
2.9367 2.0027 -0.5036 0.9857
2.9406 -2.6823 -0.6557 0.9840
2.9416 -2.3170 -0.6169 0.9849
2.9420 -2.1497 -0.6003 0.9853
2.9424 -1.9909 -0.5853 0.9857
2.9430 -1.6950 -0.5595 0.9863
2.9434 -1.4226 -0.5386 0.9868
2.9435 -1.2935 -0.5297 0.9871
2.9436 -1.1685 -0.5217 0.9872
2.9437 -1.0470 -0.5147 0.9874
2.9437 -0.9285 -0.5085 0.9876
2.9437 -0.8128 -0.5031 0.9877
2.9437 -0.6993 -0.4984 0.9878
2.9433 -0.3690 -0.4887 0.9880
2.9427 -0.0478 -0.4848 0.9881
2.9421 0.1652 -0.4854 0.9881
2.9414 0.3798 -0.4886 0.9880
2.9401 0.7098 -0.4983 0.9878
2.9396 0.8232 -0.5029 0.9877
2.9385 1.0573 -0.5145 0.9874
2.9371 1.3035 -0.5294 0.9871
2.9363 1.4324 -0.5382 0.9868
2.9346 1.7045 -0.5591 0.9863
2.9336 1.8488 -0.5712 0.9860
2.9325 1.9999 -0.5847 0.9857
2.9366 -2.4903 -0.7237 0.9845
2.9372 -2.3136 -0.7028 0.9849
2.9378 -2.1466 -0.6839 0.9853
2.9390 -1.6927 -0.6375 0.9863
2.9395 -1.4207 -0.6137 0.9868
2.9397 -1.2918 -0.6036 0.9870
2.9401 -0.6984 -0.5680 0.9878
2.9400 -0.5870 -0.5635 0.9879
2.9398 -0.3686 -0.5569 0.9880
2.9397 -0.2611 -0.5547 0.9881
2.9395 -0.1542 -0.5533 0.9881
2.9390 0.0585 -0.5525 0.9881
2.9384 0.2718 -0.5547 0.9881
2.9380 0.3793 -0.5568 0.9880
2.9375 0.4878 -0.5597 0.9880
2.9371 0.5976 -0.5634 0.9879
2.9366 0.7090 -0.5678 0.9878
2.9360 0.8222 -0.5731 0.9877
2.9348 1.0560 -0.5862 0.9874
2.9316 1.5638 -0.6245 0.9866
2.9306 1.7021 -0.6370 0.9863
2.9295 1.8463 -0.6509 0.9860
2.9284 1.9971 -0.6662 0.9857
2.9356 -2.8790 -0.8692 0.9833
2.9321 -2.4864 -0.8126 0.9844
2.9335 -2.1434 -0.7680 0.9853
2.9340 -1.9852 -0.7488 0.9856
2.9346 -1.8345 -0.7315 0.9860
2.9354 -1.5520 -0.7019 0.9865
2.9357 -1.4188 -0.6892 0.9868
2.9360 -1.2902 -0.6779 0.9870
2.9361 -1.1655 -0.6678 0.9872
2.9364 -0.9262 -0.6508 0.9875
2.9365 -0.8108 -0.6439 0.9876
2.9365 -0.6976 -0.6380 0.9877
2.9365 -0.5863 -0.6330 0.9878
2.9340 0.4872 -0.6287 0.9879
2.9336 0.5969 -0.6328 0.9878
2.9330 0.7081 -0.6378 0.9877
2.9311 1.0546 -0.6585 0.9873
2.9303 1.1757 -0.6674 0.9872
2.9295 1.3002 -0.6775 0.9870
2.9286 1.4287 -0.6888 0.9868
2.9306 -2.8740 -0.9647 0.9833
2.9275 -2.4826 -0.9021 0.9844
2.9284 -2.3066 -0.8761 0.9848
2.9310 -1.6880 -0.7949 0.9862
2.9314 -1.5499 -0.7793 0.9865
2.9324 -1.1640 -0.7415 0.9871
2.9329 -0.4760 -0.6983 0.9879
2.9328 -0.3677 -0.6947 0.9879
2.9325 -0.1538 -0.6902 0.9880
2.9305 0.4867 -0.6982 0.9879
2.9288 0.8202 -0.7148 0.9876
2.9257 1.2985 -0.7523 0.9869
2.9248 1.4268 -0.7648 0.9867
2.9237 1.5596 -0.7788 0.9865
2.9226 1.6975 -0.7943 0.9862
2.9214 1.8411 -0.8116 0.9859
2.9200 1.9913 -0.8307 0.9856
2.9255 -2.8690 -1.0609 0.9832
2.9217 -2.6651 -1.0239 0.9838
2.9248 -2.1371 -0.9379 0.9851
2.9256 -1.9795 -0.9146 0.9855
2.9274 -1.5479 -0.8574 0.9864
2.9279 -1.4151 -0.8420 0.9867
2.9283 -1.2868 -0.8282 0.9869
2.9286 -1.1625 -0.8158 0.9871
2.9290 -0.9239 -0.7952 0.9874
2.9293 -0.6958 -0.7796 0.9876
2.9293 -0.4754 -0.7684 0.9878
2.9293 -0.3673 -0.7644 0.9879
2.9290 -0.1537 -0.7594 0.9880
2.9288 -0.0476 -0.7584 0.9880
2.9285 0.0583 -0.7584 0.9880
2.9282 0.1644 -0.7593 0.9880
2.9269 0.4861 -0.7682 0.9878
2.9264 0.5954 -0.7732 0.9877
2.9258 0.7064 -0.7793 0.9876
2.9252 0.8192 -0.7865 0.9875
2.9197 1.5575 -0.8568 0.9864
2.9158 1.9885 -0.9138 0.9855
2.9169 -2.6608 -1.1177 0.9837
2.9221 -1.8267 -0.9756 0.9858
2.9228 -1.6833 -0.9548 0.9861
2.9239 -1.4131 -0.9194 0.9866
2.9244 -1.2851 -0.9043 0.9868
2.9248 -1.1610 -0.8908 0.9870
2.9251 -1.0404 -0.8789 0.9872
2.9255 -0.8077 -0.8592 0.9875
2.9256 -0.6950 -0.8513 0.9876
2.9257 -0.4748 -0.8391 0.9878
2.9254 -0.1535 -0.8293 0.9879
2.9252 -0.0475 -0.8282 0.9879
2.9249 0.0583 -0.8282 0.9879
2.9238 0.3775 -0.8346 0.9878
2.9228 0.5947 -0.8444 0.9877
2.9215 0.8182 -0.8589 0.9875
2.9190 1.1711 -0.8904 0.9870
2.9180 1.2951 -0.9038 0.9868
2.9115 1.9855 -0.9976 0.9855
2.9152 -2.8589 -1.2559 0.9831
2.9121 -2.6564 -1.2124 0.9836
2.9135 -2.4707 -1.1750 0.9841
2.9148 -2.2959 -1.1413 0.9846
2.9160 -2.1306 -1.1108 0.9850
2.9170 -1.9737 -1.0833 0.9854
2.9179 -1.8240 -1.0584 0.9857
2.9187 -1.6809 -1.0360 0.9860
2.9193 -1.5436 -1.0157 0.9863
2.9209 -1.1595 -0.9666 0.9869
2.9219 -0.6941 -0.9237 0.9875
2.9220 -0.5834 -0.9165 0.9876
2.9220 -0.3664 -0.9058 0.9878
2.9219 -0.2595 -0.9023 0.9878
2.9218 -0.1533 -0.8999 0.9878
2.9213 0.0582 -0.8987 0.9878
2.9202 0.3770 -0.9056 0.9878
2.9185 0.7046 -0.9234 0.9875
2.9177 0.8171 -0.9320 0.9874
2.9170 0.9319 -0.9419 0.9873
2.9141 1.2933 -0.9806 0.9867
2.9129 1.4210 -0.9969 0.9865
2.9103 1.6904 -1.0352 0.9860
2.9115 -2.8553 -1.3556 0.9830
2.9072 -2.6519 -1.3080 0.9835
2.9088 -2.4667 -1.2678 0.9841
2.9102 -2.2923 -1.2314 0.9845
2.9115 -2.1273 -1.1986 0.9849
2.9126 -1.9707 -1.1690 0.9853
2.9136 -1.8214 -1.1422 0.9856
2.9145 -1.6785 -1.1180 0.9859
2.9159 -1.4093 -1.0765 0.9864
2.9165 -1.2816 -1.0589 0.9867
2.9170 -1.1579 -1.0432 0.9869
2.9174 -1.0376 -1.0293 0.9870
2.9183 -0.5827 -0.9892 0.9875
2.9183 -0.2591 -0.9739 0.9877
2.9182 -0.1531 -0.9713 0.9878
2.9179 -0.0474 -0.9701 0.9878
2.9177 0.0581 -0.9700 0.9878
2.9170 0.2698 -0.9738 0.9877
2.9165 0.3766 -0.9775 0.9877
2.9154 0.5932 -0.9889 0.9875
2.9122 1.0478 -1.0288 0.9870
2.9112 1.1680 -1.0427 0.9869
2.9101 1.2916 -1.0583 0.9867
2.9076 1.5510 -1.0954 0.9862
2.9061 1.6879 -1.1171 0.9859
2.9028 1.9796 -1.1679 0.9853
2.9022 -2.6474 -1.4048 0.9835
2.9040 -2.4627 -1.3616 0.9840
2.9055 -2.2887 -1.3227 0.9844
2.9069 -2.1240 -1.2875 0.9848
2.9081 -1.9677 -1.2557 0.9852
2.9093 -1.8187 -1.2269 0.9855
2.9103 -1.6761 -1.2010 0.9858
2.9111 -1.5392 -1.1776 0.9861
2.9118 -1.4073 -1.1565 0.9864
2.9125 -1.2799 -1.1377 0.9866
2.9139 -0.9191 -1.0926 0.9871
2.9144 -0.6923 -1.0712 0.9874
2.9146 -0.3655 -1.0505 0.9876
2.9145 -0.1529 -1.0437 0.9877
2.9143 -0.0473 -1.0423 0.9877
2.9140 0.0580 -1.0423 0.9877
2.9123 0.4837 -1.0557 0.9875
2.9102 0.8150 -1.0807 0.9872
2.9073 1.1664 -1.1202 0.9868
2.9049 1.4171 -1.1558 0.9864
2.9019 1.6855 -1.2001 0.9858
2.9003 1.8279 -1.2259 0.9855
2.9117 -2.8555 -1.5629 0.9827
2.8972 -2.6428 -1.5028 0.9833
2.9008 -2.2849 -1.4151 0.9843
2.9037 -1.9647 -1.3435 0.9851
2.9059 -1.6736 -1.2851 0.9857
2.9069 -1.5369 -1.2601 0.9860
2.9077 -1.4053 -1.2376 0.9863
2.9084 -1.2781 -1.2174 0.9865
2.9095 -1.0348 -1.1834 0.9869
2.9107 -0.5811 -1.1375 0.9874
2.9108 -0.4725 -1.1301 0.9874
2.9109 -0.3650 -1.1242 0.9875
2.9107 -0.1527 -1.1170 0.9876
2.9105 -0.0473 -1.1155 0.9876
2.9099 0.1634 -1.1169 0.9876
2.9078 0.5917 -1.1372 0.9874
2.9063 0.8139 -1.1566 0.9872
2.9054 0.9282 -1.1688 0.9870
2.9033 1.1648 -1.1988 0.9867
2.9021 1.2880 -1.2167 0.9865
2.9007 1.4151 -1.2368 0.9863
2.8992 1.5465 -1.2592 0.9860
2.8976 1.6830 -1.2841 0.9857
2.8959 1.8251 -1.3118 0.9854
2.8939 1.9736 -1.3423 0.9851
2.9004 -1.8131 -1.3999 0.9853
2.9026 -1.5347 -1.3438 0.9859
2.9035 -1.4033 -1.3198 0.9862
2.9049 -1.1531 -1.2792 0.9866
2.9055 -1.0334 -1.2621 0.9868
2.9064 -0.8024 -1.2340 0.9871
2.9069 -0.5804 -1.2132 0.9873
2.9070 -0.4718 -1.2053 0.9874
2.9067 -0.0472 -1.1898 0.9875
2.9065 0.0579 -1.1898 0.9875
2.9061 0.1631 -1.1913 0.9875
2.9057 0.2688 -1.1943 0.9875
2.9052 0.3751 -1.1989 0.9874
2.9040 0.5909 -1.2129 0.9873
2.9024 0.8128 -1.2336 0.9871
2.9004 1.0436 -1.2615 0.9868
2.8992 1.1632 -1.2785 0.9866
2.8979 1.2862 -1.2976 0.9864
2.8965 1.4130 -1.3190 0.9862
2.8933 1.6805 -1.3694 0.9856
2.8914 1.8223 -1.3988 0.9853
2.9119 -2.8557 -1.7775 0.9824
2.8929 -2.1138 -1.5615 0.9845
2.8945 -1.9585 -1.5231 0.9849
2.8959 -1.8103 -1.4884 0.9852
2.9001 -1.2744 -1.3806 0.9863
2.9014 -1.0319 -1.3421 0.9867
2.9032 -0.3640 -1.2752 0.9873
2.9019 0.2684 -1.2701 0.9874
2.8984 0.8117 -1.3118 0.9870
2.8963 1.0421 -1.3415 0.9867
2.8951 1.1615 -1.3595 0.9865
2.8937 1.2843 -1.3798 0.9863
2.8888 1.6779 -1.4560 0.9855
2.8848 1.9673 -1.5218 0.9849
2.8791 -2.8236 -1.8667 0.9824
2.8818 -2.6287 -1.8055 0.9830
2.8841 -2.4458 -1.7504 0.9835
2.8862 -2.2734 -1.7007 0.9839
2.8881 -2.1103 -1.6557 0.9844
2.8926 -1.6660 -1.5451 0.9854
2.8949 -1.3991 -1.4883 0.9859
2.8973 -1.0304 -1.4234 0.9865
2.8979 -0.9141 -1.4065 0.9867
2.8990 -0.5788 -1.3684 0.9871
2.8991 -0.4705 -1.3595 0.9871
2.8992 -0.3635 -1.3525 0.9872
2.8990 -0.0471 -1.3421 0.9873
2.8987 0.0577 -1.3420 0.9873
2.8984 0.1627 -1.3437 0.9873
2.8979 0.2681 -1.3471 0.9873
2.8974 0.3741 -1.3523 0.9872
2.8968 0.4811 -1.3592 0.9871
2.8953 0.6990 -1.3787 0.9870
2.8943 0.8106 -1.3913 0.9868
2.8933 0.9243 -1.4059 0.9867
2.8921 1.0406 -1.4228 0.9865
2.8909 1.1598 -1.4418 0.9864
2.8895 1.2824 -1.4633 0.9862
2.8844 1.6753 -1.5440 0.9854
2.8801 1.9641 -1.6137 0.9848
2.8736 -2.8183 -1.9743 0.9822
2.8764 -2.6238 -1.9098 0.9828
2.8789 -2.4414 -1.8516 0.9833
2.8812 -2.2694 -1.7991 0.9838
2.8915 -1.2706 -1.5492 0.9860
2.8923 -1.1481 -1.5264 0.9862
2.8930 -1.0290 -1.5062 0.9864
2.8937 -0.9128 -1.4884 0.9866
2.8942 -0.7991 -1.4728 0.9867
2.8952 -0.3630 -1.4313 0.9871
2.8952 -0.2571 -1.4258 0.9871
2.8950 -0.0470 -1.4202 0.9872
2.8944 0.1625 -1.4220 0.9872
2.8934 0.3736 -1.4311 0.9871
2.8928 0.4804 -1.4384 0.9870
2.8912 0.6980 -1.4589 0.9868
2.8902 0.8094 -1.4723 0.9867
2.8891 0.9230 -1.4877 0.9866
2.8879 1.0391 -1.5055 0.9864
2.8836 1.4067 -1.5738 0.9858
2.8818 1.5372 -1.6021 0.9856
2.8798 1.6727 -1.6336 0.9853
2.8680 -2.8128 -2.0840 0.9821
2.8761 -2.2654 -1.8993 0.9836
2.8782 -2.1030 -1.8493 0.9841
2.8801 -1.9487 -1.8040 0.9845
2.8847 -1.5253 -1.6929 0.9854
2.8860 -1.3948 -1.6629 0.9857
2.8870 -1.2687 -1.6360 0.9859
2.8887 -1.0274 -1.5906 0.9863
2.8900 -0.7979 -1.5553 0.9866
2.8907 -0.5771 -1.5293 0.9868
2.8911 -0.1517 -1.5019 0.9870
2.8909 -0.0470 -1.4999 0.9871
2.8907 0.0576 -1.4999 0.9871
2.8903 0.1623 -1.5018 0.9870
2.8898 0.2673 -1.5056 0.9870
2.8893 0.3730 -1.5113 0.9870
2.8887 0.4797 -1.5191 0.9869
2.8860 0.8082 -1.5548 0.9866
2.8849 0.9216 -1.5711 0.9864
2.8823 1.1564 -1.6111 0.9861
2.8752 1.6699 -1.7249 0.9851
2.8705 1.9576 -1.8025 0.9845
2.8623 -2.8071 -2.1958 0.9819
2.8683 -2.4324 -2.0598 0.9830
2.8708 -2.2613 -2.0016 0.9835
2.8770 -1.7985 -1.8583 0.9846
2.8814 -1.3926 -1.7528 0.9855
2.8844 -1.0259 -1.6767 0.9861
2.8851 -0.9100 -1.6569 0.9863
2.8856 -0.7967 -1.6396 0.9864
2.8869 -0.3620 -1.5936 0.9868
2.8865 0.0575 -1.5813 0.9869
2.8862 0.1620 -1.5832 0.9869
2.8857 0.2669 -1.5872 0.9869
2.8844 0.4790 -1.6015 0.9868
2.8837 0.5867 -1.6117 0.9867
2.8827 0.6960 -1.6242 0.9866
2.8792 1.0359 -1.6759 0.9861
2.8778 1.1546 -1.6983 0.9860
2.8704 1.6672 -1.8181 0.9850
2.8681 1.8076 -1.8568 0.9847
2.8565 -2.8014 -2.3099 0.9817
2.8598 -2.6087 -2.2349 0.9823
2.8655 -2.2571 -2.1060 0.9833
2.8701 -1.9420 -2.0007 0.9841
2.8721 -1.7954 -1.9555 0.9845
2.8753 -1.5203 -1.8778 0.9851
2.8789 -1.1428 -1.7883 0.9858
2.8818 -0.6846 -1.7101 0.9864
2.8822 -0.5754 -1.6969 0.9865
2.8827 -0.2560 -1.6709 0.9867
2.8827 -0.1512 -1.6666 0.9868
2.8814 0.2665 -1.6707 0.9867
2.8808 0.3720 -1.6771 0.9867
2.8773 0.8058 -1.7251 0.9863
2.8761 0.9188 -1.7432 0.9862
2.8748 1.0344 -1.7639 0.9860
2.8678 1.5298 -1.8766 0.9851
2.8656 1.6644 -1.9133 0.9848
2.8631 1.8045 -1.9540 0.9845
