ply
format ascii 1.0
element vertex 513
property float32 x
property float32 y
property float32 z
property float32 I
end_header
-25.3041 -30.3098 6.9621 0.8518
0.2635 -17.8318 3.1446 0.9301
1.5330 -17.8201 2.7400 0.9302
-25.3951 -30.4188 5.1601 0.8523
1.5384 -17.8829 2.3373 0.9302
1.5323 -17.8122 1.9198 0.9306
1.5282 -17.7634 1.1056 0.9310
-34.7685 -18.2975 -0.2212 0.8546
-34.6405 -21.5003 -0.2295 0.8495
-34.5658 -23.1939 -0.2344 0.8466
-34.4837 -24.9592 -0.2397 0.8434
-34.0625 -32.9371 -0.2668 0.8273
-33.9289 -35.2238 -0.2754 0.8223
-27.6410 -8.7579 -0.8164 0.8905
-27.4208 -10.8848 -0.8307 0.8886
-27.1459 -13.0768 -0.8484 0.8864
-26.7612 -15.3210 -0.8683 0.8839
-24.8304 -16.6613 -0.8420 0.8872
-24.6333 -17.8295 -0.8562 0.8854
-24.4080 -19.0231 -0.8714 0.8835
-24.1316 -20.2254 -0.8866 0.8816
-23.5621 -22.7836 -0.9229 0.8771
-23.2639 -25.9354 -0.9810 0.8699
-23.2517 -29.9525 -1.0677 0.8592
-23.0478 -31.9725 -1.1098 0.8541
-21.9831 -35.5712 -1.1774 0.8459
-20.7220 -39.5605 -1.2575 0.8364
-20.0037 -41.7311 -1.3031 0.8310
-22.0010 -6.9709 -1.1704 0.9117
-21.8819 -7.7985 -1.1781 0.9112
-21.7482 -8.6330 -1.1867 0.9105
-21.5996 -9.4752 -1.1962 0.9099
-21.0593 -12.0566 -1.2307 0.9074
-20.8457 -12.9383 -1.2443 0.9064
-20.6143 -13.8322 -1.2590 0.9054
-20.3641 -14.7395 -1.2749 0.9042
-20.0943 -15.6611 -1.2920 0.9030
-19.8038 -16.5983 -1.3105 0.9017
-19.4921 -17.5523 -1.3303 0.9003
-18.0030 -21.5644 -1.4246 0.8936
-17.0920 -23.7104 -1.4823 0.8895
-16.0496 -25.9702 -1.5483 0.8849
-15.4732 -27.1484 -1.5847 0.8824
-14.1956 -29.6145 -1.6655 0.8768
-13.4878 -30.9083 -1.7103 0.8737
-11.9145 -33.6358 -1.8097 0.8668
-10.0988 -36.5765 -1.9244 0.8590
-9.0857 -38.1390 -1.9883 0.8547
-4.1560 -45.1516 -2.2995 0.8339
-2.6549 -47.1355 -2.3942 0.8277
-18.0132 -7.1504 -1.4210 0.9252
-17.5255 -9.2231 -1.4521 0.9236
-17.1230 -10.6278 -1.4777 0.9224
-16.8972 -11.3381 -1.4920 0.9216
-16.3934 -12.7767 -1.5240 0.9200
-15.8160 -14.2420 -1.5605 0.9182
-15.1588 -15.7373 -1.6021 0.9161
-14.7981 -16.4974 -1.6250 0.9150
-14.4148 -17.2663 -1.6492 0.9137
-13.5758 -18.8327 -1.7022 0.9111
-13.1177 -19.6312 -1.7312 0.9096
-12.6322 -20.4405 -1.7619 0.9081
-10.9957 -22.9390 -1.8652 0.9030
-9.7374 -24.6691 -1.9446 0.8991
-9.0521 -25.5552 -1.9878 0.8970
-8.3264 -26.4563 -2.0336 0.8947
-6.7431 -28.3054 -2.1335 0.8899
-0.7111 -34.2757 -2.5137 0.8715
0.4910 -33.2240 -2.4363 0.8752
1.7238 -34.2435 -2.5140 0.8715
1.5264 -17.7433 -1.3058 0.9311
4.4317 -36.3439 -2.6846 0.8634
-15.6070 -4.9450 -1.5718 0.9363
-15.4929 -5.5216 -1.5790 0.9360
-15.0704 -7.2597 -1.6060 0.9350
-14.7188 -8.4267 -1.6283 0.9341
-14.0805 -10.1915 -1.6687 0.9325
-13.0051 -12.5755 -1.7368 0.9299
-12.3623 -13.7819 -1.7774 0.9283
-11.6431 -14.9986 -1.8229 0.9265
-10.8419 -16.2253 -1.8735 0.9246
-10.4087 -16.8424 -1.9008 0.9235
-9.9524 -17.4620 -1.9296 0.9224
-8.4370 -19.3342 -2.0252 0.9187
-7.2940 -20.5919 -2.0973 0.9160
-5.3572 -22.4879 -2.2194 0.9113
-4.6471 -23.1210 -2.2641 0.9096
-3.1213 -24.3856 -2.3602 0.9059
-2.3026 -25.0160 -2.4118 0.9040
-0.5450 -26.2690 -2.5225 0.8998
0.3736 -25.2804 -2.4273 0.9034
1.3017 -25.8591 -2.4857 0.9012
2.5750 -21.1174 -2.0424 0.9181
-13.6164 -4.3143 -1.6967 0.9441
-13.3892 -5.3149 -1.7112 0.9436
-13.2569 -5.8155 -1.7196 0.9434
-12.9540 -6.8173 -1.7388 0.9427
-12.5986 -7.8196 -1.7614 0.9420
-12.4007 -8.3209 -1.7739 0.9416
-12.1888 -8.8223 -1.7873 0.9412
-11.7223 -9.8248 -1.8168 0.9402
-11.1965 -10.8266 -1.8501 0.9392
-10.9105 -11.3270 -1.8682 0.9386
-10.6086 -11.8268 -1.8872 0.9380
-9.9553 -12.8243 -1.9285 0.9367
-8.4381 -14.8050 -2.0242 0.9337
-8.0119 -15.2957 -2.0511 0.9328
-7.5661 -15.7841 -2.0792 0.9319
-7.0997 -16.2697 -2.1086 0.9310
-6.6124 -16.7521 -2.1393 0.9300
-5.5723 -17.7055 -2.2049 0.9280
-4.4406 -18.6403 -2.2762 0.9257
-3.2119 -19.5513 -2.3536 0.9233
-2.5595 -19.9961 -2.3946 0.9220
-0.4414 -21.2772 -2.5280 0.9178
1.5295 -17.7784 -2.1196 0.9306
2.5595 -20.9901 -2.5118 0.9183
-12.0691 -3.8238 -1.7938 0.9501
-11.9682 -4.2654 -1.8002 0.9500
-11.8560 -4.7063 -1.8074 0.9498
-11.7322 -5.1467 -1.8153 0.9496
-11.4494 -6.0255 -1.8332 0.9491
-11.2901 -6.4637 -1.8433 0.9488
-10.9347 -7.3373 -1.8658 0.9482
-10.0718 -9.0695 -1.9204 0.9467
-9.8231 -9.4986 -1.9361 0.9463
-9.5607 -9.9256 -1.9527 0.9458
-9.2844 -10.3506 -1.9701 0.9454
-8.6890 -11.1930 -2.0077 0.9444
-8.3692 -11.6100 -2.0279 0.9438
-8.0345 -12.0239 -2.0490 0.9433
-6.9368 -13.2430 -2.1182 0.9414
-6.5386 -13.6407 -2.1433 0.9407
-5.2431 -14.8019 -2.2250 0.9385
-4.2918 -15.5444 -2.2849 0.9369
-2.7269 -16.5990 -2.3834 0.9343
-0.3706 -17.8643 -2.5317 0.9304
0.2522 -17.0636 -2.4180 0.9334
-10.7358 -3.8262 -1.8776 0.9548
-10.6309 -4.2199 -1.8843 0.9547
-10.2512 -5.3948 -1.9084 0.9541
-9.7722 -6.5572 -1.9387 0.9534
-9.5898 -6.9411 -1.9502 0.9531
-9.3960 -7.3231 -1.9625 0.9529
-9.1904 -7.7028 -1.9755 0.9525
-8.9731 -8.0801 -1.9892 0.9522
-8.7436 -8.4548 -2.0037 0.9519
-8.2483 -9.1955 -2.0350 0.9512
-7.9819 -9.5609 -2.0518 0.9508
-7.7029 -9.9228 -2.0694 0.9504
-7.1061 -10.6345 -2.1070 0.9495
-6.7879 -10.9837 -2.1271 0.9490
-6.4564 -11.3281 -2.1480 0.9485
-6.1113 -11.6672 -2.1698 0.9480
-5.3797 -12.3281 -2.2159 0.9469
-4.5917 -12.9629 -2.2655 0.9458
-4.1761 -13.2693 -2.2917 0.9452
-2.3671 -14.4092 -2.4056 0.9425
-1.8776 -14.6696 -2.4364 0.9418
-1.3732 -14.9190 -2.4681 0.9411
-0.8537 -15.1565 -2.5008 0.9403
-0.3191 -15.3813 -2.5345 0.9395
0.2167 -14.6595 -2.4153 0.9423
0.7473 -14.8450 -2.4486 0.9415
1.2919 -15.0162 -2.4829 0.9407
1.8501 -15.1724 -2.5180 0.9399
-9.8153 -3.1099 -1.9353 0.9590
-9.6285 -3.8221 -1.9472 0.9587
-9.5202 -4.1763 -1.9540 0.9586
-9.2734 -4.8803 -1.9697 0.9582
-9.1348 -5.2298 -1.9785 0.9581
-8.6571 -6.2659 -2.0087 0.9574
-7.8724 -7.6119 -2.0583 0.9564
-7.6491 -7.9407 -2.0724 0.9561
-7.4146 -8.2661 -2.0872 0.9558
-6.6446 -9.2175 -2.1358 0.9548
-6.3651 -9.5256 -2.1534 0.9544
-5.7715 -10.1263 -2.1908 0.9537
-5.4572 -10.4183 -2.2106 0.9533
-4.4429 -11.2558 -2.2745 0.9519
-2.9223 -12.2671 -2.3702 0.9500
-2.5119 -12.4978 -2.3961 0.9494
-2.0895 -12.7188 -2.4227 0.9489
-0.7500 -13.3165 -2.5070 0.9472
1.6116 -13.2167 -2.5026 0.9473
-8.9677 -2.8414 -1.9885 0.9623
-8.8847 -3.1664 -1.9938 0.9622
-8.6908 -3.8125 -2.0061 0.9619
-8.5800 -4.1332 -2.0131 0.9618
-8.4597 -4.4521 -2.0207 0.9617
-8.1908 -5.0838 -2.0378 0.9614
-7.3505 -6.6190 -2.0909 0.9604
-6.9459 -7.2111 -2.1164 0.9599
-6.5016 -7.7878 -2.1444 0.9594
-6.2644 -8.0696 -2.1594 0.9591
-6.0170 -8.3469 -2.1750 0.9588
-5.4917 -8.8862 -2.2081 0.9582
-4.3179 -9.8950 -2.2821 0.9568
-3.9987 -10.1305 -2.3022 0.9564
-2.9794 -10.7911 -2.3664 0.9553
-1.8684 -11.3732 -2.4363 0.9540
-1.0779 -11.7114 -2.4860 0.9531
-0.6682 -11.8640 -2.5118 0.9526
-0.2490 -12.0050 -2.5382 0.9521
0.5797 -11.5164 -2.4374 0.9540
0.9991 -11.6129 -2.4638 0.9535
-8.2486 -2.6135 -2.0336 0.9651
-8.0838 -3.2089 -2.0441 0.9649
-7.9883 -3.5043 -2.0501 0.9648
-7.8841 -3.7980 -2.0568 0.9647
-7.7712 -4.0897 -2.0639 0.9646
-7.6496 -4.3794 -2.0716 0.9644
-7.5190 -4.6669 -2.0799 0.9643
-7.3797 -4.9518 -2.0887 0.9641
-7.2315 -5.2342 -2.0981 0.9640
-6.7333 -6.0632 -2.1295 0.9635
-6.5493 -6.3329 -2.1411 0.9633
-6.3562 -6.5988 -2.1533 0.9631
-6.1540 -6.8608 -2.1661 0.9628
-5.7226 -7.3718 -2.1933 0.9624
-5.2546 -7.8637 -2.2228 0.9619
-5.0069 -8.1019 -2.2384 0.9616
-4.7502 -8.3344 -2.2546 0.9613
-4.4843 -8.5610 -2.2713 0.9611
-4.2093 -8.7813 -2.2887 0.9608
-3.9253 -8.9950 -2.3066 0.9605
-3.3301 -9.4013 -2.3440 0.9598
-2.6994 -9.7768 -2.3837 0.9592
-2.0337 -10.1185 -2.4256 0.9585
-1.3341 -10.4231 -2.4697 0.9577
-0.9720 -10.5604 -2.4924 0.9574
-0.2241 -10.8029 -2.5395 0.9566
0.1516 -10.2543 -2.4103 0.9587
0.5206 -10.3411 -2.4335 0.9583
1.2778 -10.4791 -2.4811 0.9575
-7.6303 -2.4176 -2.0724 0.9675
-7.5566 -2.6931 -2.0771 0.9674
-7.4749 -2.9672 -2.0823 0.9673
-7.1806 -3.7789 -2.1010 0.9670
-7.0662 -4.0455 -2.1082 0.9669
-6.8127 -4.5713 -2.1242 0.9667
-6.6735 -4.8303 -2.1330 0.9665
-6.5262 -5.0864 -2.1423 0.9664
-6.2066 -5.5889 -2.1625 0.9661
-6.0344 -5.8350 -2.1734 0.9659
-5.6651 -6.3156 -2.1967 0.9656
-5.4680 -6.5497 -2.2091 0.9654
-4.8271 -7.2239 -2.2495 0.9647
-4.5969 -7.4384 -2.2640 0.9645
-4.3586 -7.6474 -2.2791 0.9643
-4.1121 -7.8504 -2.2946 0.9640
-3.8574 -8.0474 -2.3106 0.9638
-3.3242 -8.4215 -2.3442 0.9633
-3.0456 -8.5981 -2.3617 0.9630
-2.1635 -9.0819 -2.4173 0.9622
-1.8544 -9.2266 -2.4367 0.9619
-1.5380 -9.3626 -2.4566 0.9616
-0.5471 -9.7134 -2.5190 0.9606
0.8116 -9.4337 -2.4516 0.9616
-7.0924 -2.2472 -2.1062 0.9695
-7.0228 -2.5029 -2.1106 0.9695
-6.8607 -3.0097 -2.1209 0.9693
-6.6680 -3.5091 -2.1331 0.9692
-6.5601 -3.7557 -2.1399 0.9691
-6.4445 -3.9999 -2.1472 0.9690
-6.1903 -4.4805 -2.1633 0.9687
-5.9054 -4.9495 -2.1813 0.9685
-5.7514 -5.1791 -2.1910 0.9683
-5.2435 -5.8457 -2.2231 0.9679
-4.8668 -6.2695 -2.2468 0.9675
-4.4599 -6.6744 -2.2725 0.9672
-4.0230 -7.0586 -2.3000 0.9668
-3.5567 -7.4200 -2.3294 0.9664
-3.0615 -7.7562 -2.3606 0.9659
-2.8033 -7.9141 -2.3768 0.9657
-2.5382 -8.0649 -2.3935 0.9655
-2.2663 -8.2082 -2.4106 0.9652
-1.1136 -8.7005 -2.4832 0.9642
-0.5009 -8.8936 -2.5217 0.9636
0.4311 -8.5640 -2.4275 0.9650
0.7409 -8.6119 -2.4470 0.9647
-6.4808 -2.5726 -2.1447 0.9712
-6.0072 -3.7285 -2.1747 0.9708
-5.8909 -3.9528 -2.1820 0.9707
-5.7674 -4.1744 -2.1898 0.9706
-5.6367 -4.3931 -2.1981 0.9705
-5.4987 -4.6087 -2.2068 0.9704
-5.2016 -5.0298 -2.2256 0.9702
-4.8760 -5.4360 -2.2461 0.9699
-4.5224 -5.8257 -2.2684 0.9696
-4.1409 -6.1970 -2.2924 0.9693
-3.7320 -6.5481 -2.3182 0.9690
-3.5175 -6.7154 -2.3317 0.9688
-3.2964 -6.8769 -2.3456 0.9686
-3.0687 -7.0323 -2.3600 0.9684
-2.8346 -7.1814 -2.3747 0.9682
-2.0950 -7.5881 -2.4213 0.9676
-1.0271 -8.0250 -2.4885 0.9667
-0.7468 -8.1135 -2.5061 0.9665
-0.4614 -8.1931 -2.5240 0.9662
-0.1714 -8.2637 -2.5423 0.9660
0.6808 -7.9136 -2.4430 0.9673
0.9685 -7.9428 -2.4611 0.9671
-5.9100 -2.8470 -2.1806 0.9727
-5.8203 -3.0631 -2.1863 0.9727
-5.6205 -3.4885 -2.1989 0.9725
-5.5105 -3.6976 -2.2059 0.9724
-5.1399 -4.3079 -2.2293 0.9721
-5.0030 -4.5051 -2.2379 0.9720
-4.8595 -4.6989 -2.2470 0.9719
-4.7093 -4.8891 -2.2565 0.9718
-4.5525 -5.0754 -2.2663 0.9717
-4.3892 -5.2576 -2.2766 0.9715
-4.2195 -5.4356 -2.2873 0.9714
-4.0434 -5.6091 -2.2984 0.9713
-3.8609 -5.7779 -2.3099 0.9711
-3.6720 -5.9419 -2.3218 0.9710
-3.2758 -6.2540 -2.3468 0.9707
-3.0687 -6.4018 -2.3598 0.9705
-2.8555 -6.5437 -2.3733 0.9704
-2.4119 -6.8092 -2.4012 0.9700
-2.1817 -6.9321 -2.4157 0.9698
-1.7050 -7.1572 -2.4457 0.9695
-1.4590 -7.2589 -2.4612 0.9693
-1.2079 -7.3530 -2.4770 0.9691
-0.9522 -7.4393 -2.4930 0.9689
-0.1587 -7.6485 -2.5429 0.9683
0.3665 -7.2806 -2.4232 0.9697
0.8945 -7.3353 -2.4563 0.9693
-5.7671 -2.0553 -2.1894 0.9743
-5.4653 -2.8762 -2.2085 0.9741
-5.3737 -3.0765 -2.2143 0.9740
-5.0608 -3.6630 -2.2341 0.9738
-4.4133 -4.5818 -2.2750 0.9733
-4.2653 -4.7551 -2.2843 0.9732
-3.6129 -5.4068 -2.3255 0.9728
-3.2515 -5.7049 -2.3482 0.9725
-3.0623 -5.8463 -2.3601 0.9724
-2.8676 -5.9823 -2.3724 0.9722
-2.0355 -6.4678 -2.4248 0.9716
-1.8149 -6.5734 -2.4387 0.9714
-0.3975 -7.0575 -2.5278 0.9704
0.1019 -6.8947 -2.4659 0.9711
0.5841 -6.7889 -2.4367 0.9715
-5.3019 -2.3258 -2.2187 0.9755
-4.8672 -3.2659 -2.2462 0.9752
-4.7622 -3.4469 -2.2528 0.9751
-4.6512 -3.6251 -2.2598 0.9751
-4.4115 -3.9725 -2.2750 0.9749
-4.0083 -4.4686 -2.3004 0.9746
-3.8624 -4.6265 -2.3096 0.9745
-3.7110 -4.7804 -2.3192 0.9744
-3.5539 -4.9302 -2.3291 0.9743
-3.2236 -5.2162 -2.3499 0.9741
-3.0504 -5.3521 -2.3608 0.9740
-2.8720 -5.4831 -2.3720 0.9738
-2.6885 -5.6088 -2.3836 0.9737
-1.9058 -6.0556 -2.4328 0.9732
-1.4871 -6.2425 -2.4592 0.9729
-1.2714 -6.3261 -2.4728 0.9727
-1.0518 -6.4028 -2.4866 0.9726
-0.1377 -6.6372 -2.5441 0.9720
0.7734 -6.3424 -2.4485 0.9730
-5.1846 -1.6427 -2.2259 0.9768
-5.0059 -2.1960 -2.2373 0.9767
-4.9347 -2.3771 -2.2418 0.9766
-4.6865 -2.9088 -2.2575 0.9764
-4.5923 -3.0814 -2.2634 0.9764
-4.4925 -3.2517 -2.2697 0.9763
-4.3870 -3.4191 -2.2764 0.9762
-4.2759 -3.5838 -2.2834 0.9762
-4.0372 -3.9038 -2.2985 0.9760
-3.7767 -4.2104 -2.3149 0.9759
-3.3462 -4.6421 -2.3420 0.9756
-3.0336 -4.9088 -2.3617 0.9754
-2.8699 -5.0353 -2.3721 0.9753
-2.5280 -5.2738 -2.3936 0.9750
-2.3500 -5.3853 -2.4048 0.9749
-2.1676 -5.4915 -2.4163 0.9748
-1.7898 -5.6869 -2.4401 0.9746
-1.5947 -5.7758 -2.4523 0.9744
-1.1928 -5.9350 -2.4776 0.9742
-0.5637 -6.1244 -2.5172 0.9738
-0.3477 -6.1737 -2.5308 0.9736
0.0906 -6.1303 -2.5093 0.9738
0.2971 -5.9018 -2.4185 0.9748
-4.7989 -1.9050 -2.2502 0.9777
-4.7365 -2.0778 -2.2542 0.9777
-4.5953 -2.4183 -2.2631 0.9776
-4.5164 -2.5857 -2.2681 0.9775
-4.3424 -2.9138 -2.2791 0.9774
-4.2474 -3.0743 -2.2851 0.9774
-4.0414 -3.3872 -2.2981 0.9773
-3.9304 -3.5393 -2.3051 0.9772
-3.8144 -3.6884 -2.3124 0.9771
-3.6931 -3.8341 -2.3201 0.9770
-3.4356 -4.1152 -2.3363 0.9769
-3.2993 -4.2502 -2.3449 0.9768
-3.0124 -4.5081 -2.3630 0.9766
-2.5470 -4.8626 -2.3923 0.9763
-2.3829 -4.9713 -2.4026 0.9762
-2.0422 -5.1737 -2.4241 0.9760
-1.8657 -5.2670 -2.4352 0.9759
-1.6852 -5.3548 -2.4466 0.9758
-1.3134 -5.5131 -2.4700 0.9756
-1.1222 -5.5833 -2.4820 0.9755
-0.9277 -5.6474 -2.4942 0.9753
-0.7302 -5.7050 -2.5066 0.9752
-0.3267 -5.8006 -2.5320 0.9750
0.0857 -5.7999 -2.5280 0.9750
0.6783 -5.5630 -2.4424 0.9758
-4.6039 -1.6408 -2.2624 0.9787
-4.2801 -2.4504 -2.2829 0.9785
-4.0236 -2.9123 -2.2991 0.9783
-3.9279 -3.0614 -2.3052 0.9783
-3.8272 -3.2078 -2.3115 0.9782
-3.6111 -3.4918 -2.3252 0.9781
-3.1212 -4.0207 -2.3561 0.9778
-2.9871 -4.1438 -2.3645 0.9777
-2.7055 -4.3779 -2.3822 0.9776
-2.4068 -4.5950 -2.4011 0.9774
-1.0582 -5.2652 -2.4859 0.9766
-0.3077 -5.4638 -2.5331 0.9762
-0.1140 -5.4976 -2.5453 0.9761
0.0813 -5.4979 -2.5452 0.9761
0.2625 -5.2133 -2.4162 0.9773
-4.4192 -1.4002 -2.2740 0.9796
-4.3724 -1.5583 -2.2769 0.9795
-4.2637 -1.8704 -2.2838 0.9795
-4.2018 -2.0241 -2.2878 0.9794
-4.0630 -2.3261 -2.2965 0.9794
-3.9862 -2.4742 -2.3014 0.9793
-3.8181 -2.7636 -2.3120 0.9792
-3.7269 -2.9047 -2.3178 0.9792
-3.5301 -3.1788 -2.3302 0.9791
-3.4247 -3.3116 -2.3368 0.9790
-3.2003 -3.5678 -2.3510 0.9789
-2.8304 -3.9265 -2.3743 0.9787
-2.5627 -4.1468 -2.3912 0.9785
-2.4227 -4.2508 -2.4000 0.9784
-2.2788 -4.3505 -2.4091 0.9784
-2.1310 -4.4458 -2.4184 0.9783
-1.8246 -4.6224 -2.4377 0.9781
-1.6660 -4.7035 -2.4476 0.9780
-1.3391 -4.8503 -2.4682 0.9778
-1.1711 -4.9158 -2.4788 0.9777
-1.0000 -4.9757 -2.4895 0.9776
-0.8263 -5.0301 -2.5005 0.9775
-0.4713 -5.1214 -2.5228 0.9773
-0.2905 -5.1580 -2.5341 0.9772
0.0771 -5.2127 -2.5572 0.9770
0.2476 -4.9175 -2.4152 0.9783
0.4240 -4.9281 -2.4263 0.9782
0.6015 -4.9325 -2.4374 0.9781
-4.2034 -1.3318 -2.2875 0.9803
-3.8628 -2.2114 -2.3091 0.9801
-3.7894 -2.3520 -2.3137 0.9801
-3.6287 -2.6265 -2.3239 0.9800
-3.0389 -3.3880 -2.3611 0.9797
-2.8080 -3.6173 -2.3757 0.9796
-2.4314 -3.9343 -2.3994 0.9794
-2.2982 -4.0323 -2.4078 0.9793
-1.8767 -4.3007 -2.4343 0.9791
-1.7294 -4.3813 -2.4436 0.9790
-1.5788 -4.4571 -2.4531 0.9789
-1.4251 -4.5282 -2.4627 0.9788
-1.2684 -4.5943 -2.4726 0.9788
-0.9468 -4.7109 -2.4928 0.9786
-0.2748 -4.8789 -2.5351 0.9782
-0.1018 -4.9065 -2.5460 0.9781
0.2340 -4.6479 -2.4143 0.9792
0.5682 -4.6598 -2.4353 0.9791
-4.0033 -1.2684 -2.3001 0.9810
-3.6772 -2.1052 -2.3207 0.9809
-3.6070 -2.2388 -2.3252 0.9808
-3.4533 -2.4995 -2.3349 0.9807
-3.3700 -2.6265 -2.3401 0.9807
-3.2823 -2.7510 -2.3457 0.9807
-3.1904 -2.8729 -2.3515 0.9806
-3.0943 -2.9921 -2.3575 0.9806
-2.6694 -3.4388 -2.3843 0.9803
-2.5534 -3.5422 -2.3916 0.9803
-2.4337 -3.6421 -2.3992 0.9802
-2.3103 -3.7384 -2.4069 0.9802
-2.1833 -3.8307 -2.4149 0.9801
-1.9190 -4.0034 -2.4316 0.9800
-1.7819 -4.0835 -2.4402 0.9799
-1.2034 -4.3587 -2.4766 0.9796
-0.7416 -4.5144 -2.5057 0.9794
-0.5831 -4.5559 -2.5156 0.9793
-0.4227 -4.5921 -2.5257 0.9792
0.3793 -4.4083 -2.4234 0.9800
-3.7759 -1.3457 -2.3144 0.9817
-3.7304 -1.4808 -2.3173 0.9816
-3.6805 -1.6146 -2.3204 0.9816
-3.5676 -1.8775 -2.3276 0.9816
-3.2903 -2.3816 -2.3451 0.9814
-3.2106 -2.5023 -2.3501 0.9814
-3.1267 -2.6206 -2.3554 0.9813
-2.9469 -2.8496 -2.3668 0.9812
-2.7515 -3.0675 -2.3791 0.9811
-2.4302 -3.3712 -2.3993 0.9810
-2.3158 -3.4657 -2.4065 0.9809
-2.0769 -3.6440 -2.4216 0.9808
-1.8249 -3.8070 -2.4375 0.9807
-1.5606 -3.9537 -2.4541 0.9806
-1.4242 -4.0207 -2.4627 0.9805
-1.2850 -4.0832 -2.4714 0.9804
-1.1433 -4.1412 -2.4804 0.9804
-0.4012 -4.3585 -2.5270 0.9800
0.0655 -4.4272 -2.5564 0.9798
0.3596 -4.1797 -2.4221 0.9808
0.5098 -4.1806 -2.4315 0.9807
