ply
format ascii 1.0
element vertex 549
property float32 x
property float32 y
property float32 z
property float32 I
end_header
-26.7803 27.3093 6.7443 0.8561
-26.8946 23.7886 6.3312 0.8643
-27.0396 19.2106 5.8486 0.8740
-27.0292 16.4502 5.5793 0.8794
-29.9669 14.1168 5.8409 0.8741
-41.6415 16.1157 7.8732 0.8341
-41.6886 14.4550 7.7802 0.8359
-26.9548 25.6031 5.6952 0.8603
-26.9487 23.8364 5.5116 0.8645
-27.0869 20.7289 5.2252 0.8711
-27.0772 16.4795 4.8559 0.8796
-27.2029 15.2602 4.7783 0.8814
-29.9645 14.1157 5.0742 0.8746
-24.7290 29.0849 4.9714 0.8573
-26.8942 29.4468 5.1932 0.8514
-27.0025 23.8841 4.6944 0.8647
-27.0512 22.2672 4.5625 0.8682
-27.0967 20.7365 4.4432 0.8714
-27.1398 19.2818 4.3353 0.8743
-27.2907 14.0604 3.9978 0.8835
-29.9621 14.1146 4.3130 0.8749
-33.1288 14.1926 4.6933 0.8647
-41.6832 16.1319 5.8204 0.8350
-30.0393 10.4158 4.1402 0.8796
-24.7650 29.1273 4.1054 0.8574
-26.8937 29.4463 4.2823 0.8518
-27.0059 25.6517 3.9996 0.8608
-25.1419 19.2405 3.3996 0.8804
-27.2669 16.5949 3.4276 0.8795
-27.3027 15.3162 3.3616 0.8817
-26.1315 13.4631 3.1566 0.8885
-29.9599 14.1135 3.5562 0.8753
-41.8454 16.1946 4.8182 0.8348
-30.0612 10.4234 3.4166 0.8799
-24.8010 29.1696 3.2412 0.8575
-26.9527 29.5109 3.3833 0.8518
-27.1586 22.3557 2.9778 0.8683
-27.3497 15.3426 2.6546 0.8817
-27.2715 14.0505 2.5970 0.8841
-26.3632 12.4192 2.4669 0.8896
-32.9935 14.1346 3.0385 0.8658
-41.9131 16.2208 3.8045 0.8349
-30.0831 10.4309 2.6954 0.8800
-26.9439 29.5012 2.4775 0.8520
-27.0661 27.6008 2.3971 0.8565
-27.1105 25.7510 2.3187 0.8608
-27.3269 17.9906 2.0288 0.8771
-27.3175 14.0742 1.9056 0.8841
-25.7006 12.1070 1.7617 0.8924
-33.0474 14.1577 2.2294 0.8658
-30.1048 10.4385 1.9758 0.8801
-24.8796 42.7402 1.9500 0.8204
-25.3026 29.7596 1.5403 0.8552
-27.0708 29.6402 1.5828 0.8516
-27.1232 27.6591 1.5275 0.8564
-25.6296 18.2089 1.2397 0.8817
-25.6737 15.6252 1.1851 0.8866
-27.3635 14.0979 1.2138 0.8841
-33.1177 14.1878 1.4207 0.8657
-30.1428 10.4517 1.2580 0.8801
-25.3566 27.7633 0.6351 0.8603
-25.4037 25.9056 0.6129 0.8649
-25.5275 21.0130 0.5585 0.8761
-25.5641 19.5636 0.5438 0.8792
-25.6319 16.8746 0.5184 0.8845
-25.6634 15.6190 0.5075 0.8868
-25.6937 14.4136 0.4976 0.8888
-25.7760 12.1426 0.4813 0.8923
-25.3107 32.0045 -0.2297 0.8494
-24.9283 29.3194 -0.2167 0.8573
-25.4121 27.8241 -0.2122 0.8601
-25.4574 25.9604 -0.2047 0.8646
-25.5767 21.0535 -0.1865 0.8759
-25.6121 19.6003 -0.1816 0.8790
-25.6457 18.2203 -0.1771 0.8818
-25.7083 15.6463 -0.1694 0.8866
-25.7378 14.4383 -0.1662 0.8887
-25.7696 13.2767 -0.1632 0.8905
-30.6388 13.1259 -0.1877 0.8752
-30.6802 11.8736 -0.1852 0.8767
2.6204 34.3112 -0.9689 0.8714
-17.7214 43.7091 -1.3281 0.8280
-18.5051 41.3622 -1.2759 0.8342
-19.2185 39.1661 -1.2285 0.8398
-21.5148 31.5734 -1.0758 0.8582
-22.4023 28.3270 -1.0169 0.8654
-23.1180 21.9588 -0.8978 0.8802
-23.1349 17.7046 -0.8203 0.8900
-23.3209 16.5686 -0.8055 0.8918
-23.5150 15.4810 -0.7927 0.8935
-23.8573 13.3834 -0.7703 0.8963
-24.0072 12.3687 -0.7604 0.8976
-24.5766 9.5114 -0.7420 0.8999
-25.4334 8.8187 -0.7580 0.8979
2.6717 18.0177 -0.9237 0.9296
2.6340 23.4792 -1.1982 0.9097
-1.4456 47.7667 -2.4236 0.8258
-3.0044 45.6304 -2.3191 0.8326
-4.4313 43.6200 -2.2235 0.8390
-5.7407 41.7220 -2.1358 0.8448
-6.9450 39.9253 -2.0552 0.8502
-9.0804 36.5962 -1.9122 0.8598
-11.7236 32.1474 -1.7354 0.8719
-13.1865 29.4744 -1.6375 0.8787
-13.8429 28.2109 -1.5937 0.8817
-14.4547 26.9912 -1.5528 0.8846
-15.0253 25.8117 -1.5147 0.8873
-17.3578 20.4153 -1.3590 0.8982
-18.0891 18.4466 -1.3103 0.9017
-18.7259 16.5634 -1.2679 0.9047
-19.2784 14.7533 -1.2311 0.9073
-19.5258 13.8724 -1.2147 0.9085
-19.7552 13.0058 -1.1995 0.9096
-19.9674 12.1524 -1.1854 0.9106
-20.5081 9.6610 -1.1497 0.9132
-20.6585 8.8502 -1.1398 0.9139
-20.7948 8.0478 -1.1308 0.9146
2.6004 23.1799 -1.7103 0.9107
2.5255 33.0673 -2.4316 0.8755
0.1813 34.5976 -2.5368 0.8704
-3.1853 31.3552 -2.3109 0.8813
-4.1728 30.3273 -2.2446 0.8845
-5.1009 29.3236 -2.1824 0.8875
-7.5678 26.4464 -2.0169 0.8955
-11.3534 21.2002 -1.7633 0.9081
-11.8641 20.3811 -1.7291 0.9098
-12.3455 19.5757 -1.6969 0.9114
-13.6295 17.2341 -1.6111 0.9156
-14.3654 15.7289 -1.5619 0.9181
-15.0156 14.2627 -1.5185 0.9203
-15.5877 12.8311 -1.4803 0.9222
-16.0880 11.4299 -1.4470 0.9239
-16.5220 10.0554 -1.4182 0.9254
-16.7155 9.3770 -1.4053 0.9260
-17.2082 7.3721 -1.3727 0.9277
2.6191 17.6623 -1.7142 0.9308
2.5676 22.8872 -2.2111 0.9116
1.9896 26.0504 -2.5083 0.9003
-3.2753 23.8045 -2.3069 0.9080
-4.0278 23.1548 -2.2564 0.9099
-6.0726 21.2213 -2.1191 0.9151
-7.2747 19.9480 -2.0385 0.9182
-9.7962 16.8287 -1.8694 0.9247
-10.2269 16.2163 -1.8406 0.9259
-10.6354 15.6077 -1.8132 0.9269
-11.3896 14.4017 -1.7628 0.9289
-11.7367 13.8041 -1.7395 0.9298
-12.3750 12.6195 -1.6969 0.9314
-12.6674 12.0322 -1.6773 0.9322
-12.9429 11.4482 -1.6589 0.9329
-13.4450 10.2892 -1.6254 0.9342
-13.6728 9.7140 -1.6102 0.9348
-13.8855 9.1415 -1.5960 0.9354
-14.2678 8.0039 -1.5706 0.9364
-14.4380 7.4386 -1.5593 0.9368
-14.5948 6.8754 -1.5489 0.9372
1.5918 20.8414 -2.4829 0.9193
-1.3482 20.4769 -2.4376 0.9207
-3.3252 19.1160 -2.3048 0.9248
-3.9309 18.6508 -2.2641 0.9261
-4.5112 18.1812 -2.2252 0.9273
-7.0615 15.7838 -2.0540 0.9327
-7.9314 14.8103 -1.9956 0.9346
-9.0918 13.3424 -1.9179 0.9370
-9.4424 12.8520 -1.8944 0.9378
-9.7759 12.3613 -1.8720 0.9385
-10.0927 11.8706 -1.8508 0.9392
-10.3933 11.3799 -1.8307 0.9398
-10.6783 10.8893 -1.8117 0.9404
-11.2027 9.9089 -1.7766 0.9415
-11.4429 9.4193 -1.7605 0.9420
-12.2658 7.4651 -1.7056 0.9438
-12.4385 6.9777 -1.6941 0.9442
-12.8817 5.5186 -1.6647 0.9451
-13.0051 5.0331 -1.6565 0.9454
2.5680 17.3179 -2.4806 0.9317
1.3254 17.3530 -2.4659 0.9321
-0.5323 17.5896 -2.4934 0.9314
-1.1373 17.2732 -2.4527 0.9325
-2.8291 16.2639 -2.3390 0.9355
-4.3440 15.1805 -2.2373 0.9382
-4.8115 14.8061 -2.2059 0.9390
-5.6926 14.0406 -2.1467 0.9406
-6.5047 13.2562 -2.0922 0.9421
-7.9340 11.6433 -1.9963 0.9447
-8.5571 10.8201 -1.9546 0.9458
-9.1226 9.9886 -1.9167 0.9468
-9.6333 9.1502 -1.8825 0.9477
-10.3010 7.8831 -1.8379 0.9489
-10.6836 7.0335 -1.8124 0.9496
-11.0182 6.1810 -1.7900 0.9502
-11.1680 5.7539 -1.7801 0.9505
-11.3064 5.3263 -1.7709 0.9508
-0.4588 15.1626 -2.4990 0.9404
-1.4906 14.6729 -2.4296 0.9420
-1.9829 14.4117 -2.3965 0.9427
-3.3673 13.5712 -2.3035 0.9449
-3.7984 13.2741 -2.2745 0.9456
-4.2147 12.9696 -2.2466 0.9462
-5.7345 11.6866 -2.1445 0.9486
-6.0793 11.3519 -2.1214 0.9491
-6.4104 11.0124 -2.0992 0.9497
-7.0327 10.3207 -2.0574 0.9506
-7.6030 9.6138 -2.0192 0.9515
-7.8693 9.2555 -2.0014 0.9519
-9.0189 7.4240 -1.9244 0.9537
-9.2139 7.0512 -1.9114 0.9541
-9.5701 6.3005 -1.8876 0.9546
-9.8826 5.5439 -1.8667 0.9551
-10.1523 4.7826 -1.8488 0.9555
-10.2714 4.4003 -1.8409 0.9557
-10.4788 3.6334 -1.8271 0.9560
1.9586 13.2078 -2.5097 0.9471
0.9904 12.9677 -2.4445 0.9484
0.0707 13.4875 -2.5352 0.9466
-0.4028 13.3121 -2.5033 0.9472
-1.3131 12.9260 -2.4421 0.9485
-1.7497 12.7165 -2.4127 0.9491
-2.1738 12.4969 -2.3842 0.9497
-2.5855 12.2678 -2.3565 0.9503
-5.1233 10.4411 -2.1861 0.9538
-5.7402 9.8610 -2.1446 0.9546
-6.5785 8.9540 -2.0884 0.9558
-6.8354 8.6430 -2.0712 0.9561
-7.0810 8.3283 -2.0547 0.9565
-7.9549 7.0363 -1.9962 0.9577
-8.3284 6.3735 -1.9712 0.9582
-8.4997 6.0387 -1.9598 0.9585
-8.6608 5.7018 -1.9490 0.9587
-8.9529 5.0224 -1.9295 0.9591
-9.0842 4.6802 -1.9208 0.9593
-9.4195 3.6454 -1.8985 0.9597
-9.5120 3.2982 -1.8923 0.9599
1.7312 11.6748 -2.4948 0.9529
1.3006 11.5926 -2.4658 0.9534
0.0629 11.9927 -2.5350 0.9522
-0.3587 11.8532 -2.5067 0.9527
-1.5641 11.3679 -2.4256 0.9542
-1.9457 11.1857 -2.3999 0.9546
-2.3171 10.9940 -2.3750 0.9551
-3.0288 10.5844 -2.3271 0.9560
-4.9145 9.1769 -2.2005 0.9583
-5.1926 8.9204 -2.1818 0.9587
-5.4605 8.6586 -2.1638 0.9590
-5.9660 8.1202 -2.1299 0.9596
-6.4313 7.5642 -2.0987 0.9602
-6.6490 7.2802 -2.0841 0.9605
-7.0553 6.7015 -2.0569 0.9610
-7.2440 6.4074 -2.0443 0.9612
-7.5926 5.8104 -2.0210 0.9617
-7.7527 5.5080 -2.0103 0.9619
-7.9034 5.2032 -2.0002 0.9621
-8.6153 3.3342 -1.9527 0.9629
-8.7023 3.0174 -1.9470 0.9630
1.5496 10.4502 -2.4829 0.9575
0.7879 10.3162 -2.4316 0.9584
0.0566 10.7858 -2.5350 0.9566
-0.3229 10.6724 -2.5094 0.9571
-0.6945 10.5481 -2.4844 0.9575
-1.0578 10.4133 -2.4600 0.9579
-1.7594 10.1143 -2.4128 0.9587
-2.4263 9.7788 -2.3679 0.9594
-2.7466 9.5985 -2.3464 0.9598
-3.6537 9.0119 -2.2855 0.9608
-4.7365 8.1368 -2.2127 0.9621
-4.9845 7.9037 -2.1961 0.9623
-5.2234 7.6655 -2.1801 0.9626
-5.4533 7.4224 -2.1646 0.9629
-6.2829 6.4071 -2.1090 0.9638
-6.4681 6.1438 -2.0966 0.9640
-6.6444 5.8771 -2.0848 0.9642
-6.9707 5.3346 -2.0630 0.9646
-7.1209 5.0591 -2.0529 0.9647
-7.2623 4.7811 -2.0435 0.9649
-7.6351 3.9337 -2.0186 0.9653
-7.8412 3.3593 -2.0049 0.9656
-7.9316 3.0696 -1.9989 0.9657
-8.0137 2.7787 -1.9934 0.9657
1.4011 9.4486 -2.4732 0.9613
1.0549 9.4029 -2.4499 0.9617
0.7138 9.3460 -2.4269 0.9620
0.3781 9.2782 -2.4043 0.9624
-0.2934 9.6962 -2.5117 0.9607
-0.9628 9.4779 -2.4666 0.9614
-1.6040 9.2216 -2.4235 0.9621
-2.2158 8.9304 -2.3824 0.9627
-2.5103 8.7726 -2.3626 0.9630
-3.0759 8.4346 -2.3245 0.9636
-3.3469 8.2549 -2.3063 0.9639
-4.1116 7.6776 -2.2550 0.9647
-4.3503 7.4733 -2.2390 0.9649
-4.5808 7.2637 -2.2235 0.9651
-5.2236 6.6051 -2.1803 0.9658
-5.4215 6.3765 -2.1671 0.9660
-5.9662 5.6671 -2.1306 0.9666
-6.4379 4.9268 -2.0990 0.9671
-6.5790 4.6741 -2.0896 0.9672
-6.9540 3.9011 -2.0645 0.9676
-7.1642 3.3750 -2.0505 0.9678
-7.2575 3.1092 -2.0443 0.9679
-7.4202 2.5729 -2.0335 0.9681
0.9625 8.5789 -2.4439 0.9647
0.3456 8.4789 -2.4023 0.9653
-0.2686 8.8749 -2.5136 0.9638
-0.8826 8.6883 -2.4723 0.9643
-1.1807 8.5813 -2.4522 0.9646
-2.0370 8.2098 -2.3946 0.9654
-2.5747 7.9231 -2.3585 0.9660
-3.5662 7.2678 -2.2918 0.9669
-3.7962 7.0886 -2.2764 0.9671
-4.0188 6.9038 -2.2614 0.9673
-4.4418 6.5185 -2.2330 0.9677
-5.3690 5.4751 -2.1709 0.9686
-5.6874 5.0306 -2.1495 0.9689
-5.8353 4.8034 -2.1396 0.9691
-6.4625 3.6253 -2.0977 0.9697
-6.5655 3.3826 -2.0908 0.9698
-6.6610 3.1379 -2.0845 0.9699
-6.7491 2.8914 -2.0786 0.9699
-6.9030 2.3936 -2.0684 0.9701
1.1723 7.9056 -2.4582 0.9671
0.5991 7.8437 -2.4196 0.9676
0.0432 8.2409 -2.5348 0.9661
-0.2473 8.1737 -2.5152 0.9664
-0.5331 8.0974 -2.4960 0.9666
-0.8139 8.0122 -2.4771 0.9669
-1.0895 7.9186 -2.4585 0.9671
-1.6243 7.7069 -2.4226 0.9676
-1.8831 7.5895 -2.4052 0.9678
-2.1360 7.4647 -2.3881 0.9680
-2.6236 7.1943 -2.3554 0.9685
-2.8580 7.0492 -2.3396 0.9687
-3.0860 6.8979 -2.3243 0.9689
-3.9324 6.2355 -2.2674 0.9696
-4.3153 5.8735 -2.2417 0.9700
-4.4965 5.6857 -2.2296 0.9701
-4.6708 5.4936 -2.2179 0.9703
-4.8382 5.2974 -2.2067 0.9704
-4.9986 5.0974 -2.1959 0.9706
-5.4382 4.4765 -2.1665 0.9710
-5.6962 4.0470 -2.1492 0.9712
-6.1281 3.1573 -2.1204 0.9716
-6.3020 2.6998 -2.1088 0.9717
-6.4479 2.2357 -2.0991 0.9718
1.0821 7.2975 -2.4523 0.9694
0.8165 7.2779 -2.4344 0.9696
0.5537 7.2491 -2.4167 0.9698
0.0400 7.6253 -2.5347 0.9684
-0.7544 7.4263 -2.4812 0.9690
-1.0104 7.3435 -2.4640 0.9692
-1.2616 7.2529 -2.4471 0.9694
-1.5079 7.1548 -2.4306 0.9696
-1.9851 6.9370 -2.3985 0.9700
-2.2156 6.8179 -2.3830 0.9702
-2.8733 6.4224 -2.3388 0.9708
-3.0809 6.2787 -2.3248 0.9709
-3.2825 6.1295 -2.3113 0.9711
-3.8507 5.6511 -2.2731 0.9716
-4.0277 5.4821 -2.2612 0.9717
-4.6719 4.7642 -2.2180 0.9723
-4.8168 4.5753 -2.2083 0.9724
-4.9552 4.3830 -2.1990 0.9725
-5.5490 3.3772 -2.1593 0.9730
-5.8262 2.7446 -2.1408 0.9732
-5.9779 2.3135 -2.1307 0.9733
-6.0438 2.0956 -2.1263 0.9734
1.0038 6.7691 -2.4471 0.9713
0.5141 6.7312 -2.4142 0.9717
0.0371 7.0878 -2.5347 0.9703
-0.9410 6.8393 -2.4688 0.9711
-1.4057 6.6698 -2.4376 0.9715
-2.4848 6.1288 -2.3650 0.9723
-3.4328 5.4433 -2.3013 0.9730
-3.6055 5.2912 -2.2897 0.9732
-3.9336 4.9739 -2.2677 0.9734
-4.5183 4.2917 -2.2285 0.9739
-5.0057 3.5564 -2.1959 0.9743
-5.1121 3.3656 -2.1888 0.9743
-5.2123 3.1723 -2.1821 0.9744
-5.3063 2.9767 -2.1758 0.9745
-5.4755 2.5794 -2.1645 0.9746
-5.5507 2.3780 -2.1595 0.9747
-5.6196 2.1749 -2.1549 0.9747
-5.6823 1.9703 -2.1507 0.9748
0.7062 6.2943 -2.4272 0.9732
0.0347 6.6140 -2.5346 0.9721
-0.4292 6.5185 -2.5034 0.9724
-0.6562 6.4595 -2.4881 0.9726
-0.8796 6.3932 -2.4731 0.9727
-1.0993 6.3200 -2.4583 0.9729
-1.9371 5.9610 -2.4020 0.9735
-2.5180 5.6283 -2.3629 0.9739
-2.7019 5.5065 -2.3506 0.9741
-3.0546 5.2476 -2.3269 0.9743
-3.3864 4.9696 -2.3046 0.9746
-3.8435 4.5206 -2.2739 0.9749
-4.1205 4.2020 -2.2553 0.9751
-4.3749 3.8697 -2.2383 0.9753
-4.6062 3.5250 -2.2228 0.9755
-4.7132 3.3486 -2.2156 0.9755
-4.9096 2.9880 -2.2025 0.9757
-4.9989 2.8043 -2.1965 0.9757
-5.1599 2.4307 -2.1858 0.9759
-5.2314 2.2412 -2.1810 0.9759
0.8740 5.8940 -2.4386 0.9746
0.2473 6.0667 -2.4850 0.9741
0.0325 6.1928 -2.5346 0.9736
-0.4021 6.1082 -2.5053 0.9739
-0.6151 6.0552 -2.4910 0.9740
-1.0313 5.9289 -2.4630 0.9743
-1.2342 5.8560 -2.4494 0.9745
-1.4333 5.7767 -2.4360 0.9746
-2.1896 5.4006 -2.3851 0.9751
-2.3679 5.2928 -2.3731 0.9753
-2.5417 5.1798 -2.3614 0.9754
-3.0346 4.8119 -2.3283 0.9757
-3.1892 4.6802 -2.3180 0.9758
-3.3387 4.5444 -2.3079 0.9759
-3.4832 4.4044 -2.2982 0.9760
-3.7566 4.1132 -2.2799 0.9762
-4.1271 3.6504 -2.2550 0.9765
-4.3469 3.3266 -2.2403 0.9766
-4.4487 3.1607 -2.2335 0.9767
-4.5450 2.9921 -2.2271 0.9768
-4.7207 2.6482 -2.2153 0.9769
-4.8740 2.2960 -2.2051 0.9770
-5.0047 1.9369 -2.1964 0.9771
0.6195 5.5218 -2.4216 0.9760
-0.9702 5.5774 -2.4672 0.9756
-1.1614 5.5105 -2.4543 0.9757
-1.3492 5.4377 -2.4417 0.9759
-1.5335 5.3591 -2.4293 0.9760
-2.2323 4.9897 -2.3823 0.9764
-2.3968 4.8846 -2.3713 0.9765
-2.5570 4.7747 -2.3605 0.9766
-2.8640 4.5413 -2.3399 0.9768
-3.0106 4.4181 -2.3301 0.9769
-3.1525 4.2909 -2.3205 0.9770
-3.2897 4.1598 -2.3113 0.9771
-3.4221 4.0249 -2.3024 0.9772
-3.5495 3.8864 -2.2939 0.9773
-3.6720 3.7446 -2.2857 0.9774
-3.7895 3.5995 -2.2778 0.9775
-4.2999 2.8308 -2.2436 0.9778
-4.3863 2.6696 -2.2378 0.9778
-4.5432 2.3407 -2.2274 0.9779
-4.6136 2.1734 -2.2227 0.9780
-4.7927 1.6618 -2.2107 0.9781
0.7706 5.1969 -2.4319 0.9771
0.5827 5.1937 -2.4192 0.9772
0.0287 5.4754 -2.5345 0.9762
-0.5449 5.3645 -2.4959 0.9765
-0.7313 5.3149 -2.4834 0.9766
-1.0955 5.1979 -2.4589 0.9769
-1.4473 5.0579 -2.4352 0.9771
-2.2652 4.6163 -2.3802 0.9776
-2.5650 4.4064 -2.3601 0.9778
-2.7086 4.2950 -2.3504 0.9779
-2.8480 4.1795 -2.3411 0.9780
-2.9829 4.0600 -2.3320 0.9780
-3.3606 3.6796 -2.3067 0.9783
-3.5891 3.4091 -2.2914 0.9784
-3.6962 3.2694 -2.2842 0.9785
-3.7984 3.1267 -2.2773 0.9785
-3.8959 2.9814 -2.2708 0.9786
-4.1582 2.5307 -2.2533 0.9788
-4.2356 2.3761 -2.2481 0.9788
-4.3753 2.0611 -2.2388 0.9789
-4.4945 1.7394 -2.2308 0.9790
0.5494 4.8968 -2.4170 0.9783
0.3735 4.8890 -2.4052 0.9784
-0.3361 5.1060 -2.5101 0.9775
-0.5147 5.0665 -2.4980 0.9776
-0.6908 5.0211 -2.4862 0.9777
-1.2037 4.8510 -2.4517 0.9780
-1.6895 4.6330 -2.4190 0.9783
-1.8449 4.5504 -2.4086 0.9784
-1.9967 4.4631 -2.3984 0.9785
-2.1449 4.3712 -2.3884 0.9785
-2.2893 4.2749 -2.3787 0.9786
-2.4299 4.1743 -2.3693 0.9787
-2.6991 3.9610 -2.3512 0.9789
-3.2985 3.3637 -2.3109 0.9792
-3.6050 2.9675 -2.2904 0.9794
-3.6979 2.8300 -2.2842 0.9795
-3.7863 2.6900 -2.2783 0.9795
-3.9486 2.4031 -2.2674 0.9796
-4.0226 2.2566 -2.2625 0.9797
-4.2155 1.8060 -2.2496 0.9798
-4.2700 1.6526 -2.2460 0.9798
0.6861 4.6264 -2.4263 0.9791
0.3529 4.6203 -2.4039 0.9793
-0.6539 4.7525 -2.4888 0.9786
-0.8185 4.7053 -2.4777 0.9787
-0.9806 4.6527 -2.4668 0.9788
-1.6015 4.3915 -2.4250 0.9792
-1.8935 4.2323 -2.4054 0.9793
-2.0344 4.1461 -2.3959 0.9794
-2.3057 3.9610 -2.3777 0.9796
-2.5621 3.7600 -2.3605 0.9797
-2.6846 3.6540 -2.3522 0.9798
-2.8030 3.5444 -2.3443 0.9798
-3.0278 3.3152 -2.3292 0.9800
-3.5155 2.6903 -2.2965 0.9802
-3.5998 2.5575 -2.2909 0.9803
-3.9535 1.8624 -2.2672 0.9805
-4.0104 1.7181 -2.2634 0.9805
-4.1101 1.4251 -2.2568 0.9806
0.3341 4.3741 -2.4027 0.9802
-0.3014 4.5775 -2.5126 0.9793
-0.4616 4.5443 -2.5018 0.9794
-0.7762 4.4621 -2.4806 0.9796
-1.0816 4.3593 -2.4600 0.9797
-1.2306 4.3006 -2.4500 0.9798
-1.5204 4.1691 -2.4305 0.9800
-1.7983 4.0196 -2.4118 0.9801
-2.0635 3.8532 -2.3940 0.9803
-2.3151 3.6711 -2.3771 0.9804
-2.5525 3.4742 -2.3612 0.9805
-2.6656 3.3705 -2.3536 0.9806
-2.7748 3.2636 -2.3463 0.9807
-2.8802 3.1536 -2.3392 0.9807
-2.9816 3.0405 -2.3324 0.9808
-3.0790 2.9246 -2.3259 0.9808
-3.1722 2.8059 -2.3196 0.9809
-3.2614 2.6846 -2.3136 0.9809
-3.4271 2.4348 -2.3025 0.9810
-3.7068 1.9098 -2.2838 0.9812
-3.7657 1.7739 -2.2799 0.9812
0.6153 4.1491 -2.4217 0.9808
0.4657 4.1510 -2.4116 0.9809
0.1796 4.4044 -2.5450 0.9798
-0.1322 4.3697 -2.5240 0.9800
-0.2860 4.3444 -2.5136 0.9801
-0.4382 4.3138 -2.5034 0.9802
-0.7371 4.2375 -2.4833 0.9803
-1.1694 4.0868 -2.4542 0.9806
-1.4453 3.9633 -2.4356 0.9807
-1.7102 3.8227 -2.4178 0.9808
-1.8382 3.7462 -2.4092 0.9809
-1.9631 3.6658 -2.4008 0.9810
-2.2033 3.4937 -2.3847 0.9811
-2.4299 3.3073 -2.3695 0.9812
-2.8401 2.8962 -2.3420 0.9814
-2.9332 2.7862 -2.3357 0.9815
-3.4087 2.0746 -2.3039 0.9817
-3.5343 1.8210 -2.2955 0.9818
-3.6430 1.5607 -2.2882 0.9819
-3.7346 1.2949 -2.2821 0.9819
