ply
format ascii 1.0
element vertex 613
property float32 x
property float32 y
property float32 z
property float32 I
end_header
0.4709 -17.8452 3.1477 0.9301
8.9702 -43.4030 7.8148 0.8353
11.1419 -45.6707 8.2891 0.8262
11.1024 -39.3839 7.2151 0.8469
8.2604 -25.7646 4.7708 0.8959
8.1738 -22.6921 4.2529 0.9067
8.4934 -21.1897 4.0253 0.9114
8.5488 -13.6769 2.8439 0.9366
8.5635 -12.6764 2.6974 0.9398
8.5770 -11.7733 2.5684 0.9426
8.8986 -11.3459 2.5425 0.9431
9.5817 -11.3624 2.6208 0.9414
11.0873 -11.3988 2.8039 0.9375
11.9225 -10.6329 2.8168 0.9372
1.7402 -17.8187 2.7427 0.9301
11.0762 -45.4014 7.1592 0.8277
8.3775 -23.2578 3.7870 0.9048
8.0169 -18.1120 3.0343 0.9230
8.5404 -12.6423 2.3372 0.9401
11.0878 -11.3993 2.4361 0.9377
12.8291 -11.4414 2.6334 0.9328
13.8455 -10.6862 2.6793 0.9317
7.7454 -37.4771 4.9834 0.8570
8.7185 -35.7373 4.7902 0.8621
10.1675 -36.0677 4.8798 0.8597
8.3783 -20.9025 2.9325 0.9132
8.4369 -17.3685 2.5145 0.9251
8.8993 -11.3468 1.8778 0.9435
9.5824 -11.3633 1.9356 0.9418
11.9251 -11.4201 2.1501 0.9356
7.5222 -44.2675 4.8217 0.8347
8.3078 -34.0538 3.7640 0.8685
9.6800 -34.3384 3.8310 0.8663
11.1070 -34.6436 3.9066 0.8638
8.3794 -18.9311 2.2231 0.9201
8.4086 -17.3102 2.0665 0.9255
8.3796 -15.7986 1.9203 0.9306
8.4900 -14.7200 1.8247 0.9339
8.5436 -12.6470 1.6389 0.9404
8.5118 -11.6837 1.5522 0.9435
8.8996 -11.3472 1.5485 0.9436
9.5636 -11.3411 1.5930 0.9421
10.3189 -11.3909 1.6504 0.9400
11.9256 -11.4205 1.7731 0.9357
12.8302 -11.4424 1.8460 0.9332
13.8139 -11.4662 1.9278 0.9303
7.7569 -45.6486 3.9197 0.8304
7.9736 -38.5810 3.3350 0.8537
9.3062 -33.0126 2.9035 0.8714
8.2172 -22.8126 2.0526 0.9073
8.2990 -18.7496 1.7357 0.9210
8.3806 -17.2526 1.6237 0.9259
8.3535 -15.7494 1.5092 0.9309
8.4651 -14.6770 1.4343 0.9342
8.4535 -13.5242 1.3501 0.9380
8.5212 -12.6138 1.2886 0.9407
8.4905 -11.6545 1.2206 0.9438
10.2961 -11.3657 1.2982 0.9403
11.9261 -11.4211 1.3979 0.9359
12.9238 -11.5259 1.4659 0.9328
13.8145 -11.4668 1.5198 0.9305
7.7689 -45.7193 2.8757 0.8304
7.9197 -38.3202 2.4265 0.8549
8.2273 -33.7240 2.1526 0.8701
7.2427 -25.6920 1.6553 0.8985
8.1016 -25.2694 1.6455 0.8991
8.2829 -22.9949 1.5156 0.9067
8.2993 -18.7502 1.2715 0.9211
8.3529 -17.1956 1.1855 0.9262
8.3381 -15.7203 1.1034 0.9312
8.4302 -13.4871 0.9863 0.9382
8.4694 -11.6255 0.8919 0.9440
8.9003 -11.3481 0.8943 0.9438
9.5415 -11.3148 0.9178 0.9424
11.9266 -11.4215 1.0240 0.9360
13.8152 -11.4673 1.1134 0.9306
1.7339 -17.7552 0.7034 0.9311
7.7161 -45.4087 1.8162 0.8316
7.8666 -38.0636 1.5326 0.8559
8.2276 -33.7251 1.3688 0.8703
7.2055 -25.5603 1.0471 0.8991
8.0913 -25.2374 1.0450 0.8993
8.1857 -20.4221 0.8676 0.9157
8.2904 -18.7300 0.8077 0.9213
8.3561 -15.7542 0.7032 0.9311
8.4288 -12.4771 0.5937 0.9415
8.9006 -11.3485 0.5687 0.9439
11.9271 -11.4220 0.6512 0.9360
1.7329 -17.7441 0.3012 0.9312
6.6087 -49.4578 0.8428 0.8190
7.8144 -37.8108 0.6522 0.8569
8.2278 -33.7261 0.5864 0.8703
7.1688 -25.4302 0.4463 0.8997
8.0927 -25.2417 0.4478 0.8994
8.2183 -20.5033 0.3731 0.9154
8.2983 -17.0832 0.3208 0.9268
8.3306 -15.7061 0.3003 0.9313
8.3843 -13.4137 0.2672 0.9387
9.5843 -11.3656 0.2511 0.9423
11.0905 -11.4022 0.2687 0.9383
11.9277 -11.4225 0.2790 0.9361
12.8326 -11.4445 0.2904 0.9335
13.8164 -11.4684 0.3033 0.9307
6.5458 -48.9873 -0.2783 0.8206
7.5873 -44.6506 -0.2550 0.8343
7.7629 -37.5615 -0.2160 0.8578
7.1325 -25.3014 -0.1480 0.9002
7.3849 -23.0341 -0.1362 0.9078
7.1345 -19.8068 -0.1185 0.9192
6.9439 -17.3239 -0.1051 0.9281
6.7943 -15.3499 -0.0945 0.9351
6.5302 -11.3222 -0.0736 0.9491
7.0855 -11.3357 -0.0753 0.9479
8.9013 -11.3494 -0.0812 0.9439
9.5847 -11.3660 -0.0837 0.9423
12.8331 -11.4450 -0.0968 0.9335
6.4841 -48.5254 -1.3785 0.8221
6.2658 -36.8737 -1.0532 0.8610
8.2283 -33.7281 -0.9776 0.8703
7.1115 -25.2267 -0.7380 0.9004
6.6695 -20.8027 -0.6151 0.9163
2.8384 -7.0811 -0.2148 0.9699
8.2445 -16.9724 -0.5313 0.9273
8.2799 -15.6107 -0.4976 0.9317
8.3390 -13.3411 -0.4430 0.9390
8.3098 -12.3010 -0.4180 0.9423
8.3864 -11.5116 -0.4010 0.9446
9.5850 -11.3664 -0.4187 0.9422
10.3128 -11.3842 -0.4325 0.9404
11.9287 -11.4235 -0.4651 0.9360
12.8337 -11.4455 -0.4842 0.9335
-11.3905 -33.4226 -1.7907 0.8681
-10.5266 -34.8964 -1.8485 0.8642
-9.5949 -36.4359 -1.9108 0.8599
-7.4993 -39.7389 -2.0509 0.8505
-5.0367 -43.3935 -2.2154 0.8395
-0.4525 -49.7194 -2.5216 0.8194
1.2922 -48.9699 -2.4843 0.8218
5.3035 -39.6907 -2.0308 0.8518
6.2236 -36.6257 -1.8842 0.8617
7.6618 -37.0724 -1.9198 0.8593
2.8258 -7.8449 -0.4229 0.9672
2.8269 -7.0525 -0.3853 0.9700
2.8277 -6.3885 -0.3543 0.9724
2.8285 -5.8227 -0.3283 0.9744
2.8296 -4.9058 -0.2872 0.9776
2.8300 -4.5274 -0.2708 0.9788
2.8303 -4.1896 -0.2564 0.9800
2.8306 -3.8853 -0.2438 0.9809
2.8312 -3.1253 -0.2139 0.9833
2.8313 -2.9108 -0.2059 0.9839
2.8246 -2.7050 -0.1983 0.9845
-8.6629 -25.4192 -1.9691 0.8979
-7.9446 -26.3366 -2.0170 0.8955
-5.5118 -29.2068 -2.1793 0.8876
-3.6247 -31.2288 -2.3051 0.8815
-1.4878 -33.3480 -2.4476 0.8747
2.1382 -34.5175 -2.5357 0.8705
1.7325 -17.7404 -1.3069 0.9310
2.8525 -21.3474 -1.5792 0.9172
6.3333 -30.6443 -2.2944 0.8821
6.2460 -25.6025 -1.9323 0.8997
2.8172 -6.3647 -0.5103 0.9725
2.8210 -4.8910 -0.4140 0.9776
2.8219 -4.5146 -0.3904 0.9789
2.8239 -3.6005 -0.3355 0.9818
2.8252 -2.9046 -0.2971 0.9839
2.8189 -2.6995 -0.2862 0.9845
2.8190 -2.5140 -0.2769 0.9850
2.8190 -2.3399 -0.2686 0.9854
2.8190 -2.0204 -0.2543 0.9862
2.8190 -1.8726 -0.2481 0.9865
-6.9848 -20.4952 -2.0788 0.9167
-6.3754 -21.1352 -2.1194 0.9151
-5.7349 -21.7781 -2.1621 0.9135
-2.8290 -24.3735 -2.3557 0.9061
-2.0081 -25.0262 -2.4104 0.9040
-1.1457 -25.6792 -2.4678 0.9019
-0.2396 -26.3318 -2.5281 0.8996
1.6087 -25.9680 -2.4978 0.9007
2.8209 -21.1112 -2.0448 0.9180
4.7198 -27.7754 -2.7048 0.8930
5.8624 -28.3655 -2.7808 0.8901
6.1195 -25.0843 -2.4788 0.9014
5.8388 -20.7124 -2.0660 0.9172
6.6401 -20.7110 -2.0880 0.9163
2.8041 -6.9956 -0.7236 0.9702
2.8139 -4.5017 -0.5097 0.9789
2.8151 -4.1670 -0.4828 0.9800
2.8161 -3.8655 -0.4591 0.9810
2.8170 -3.5917 -0.4382 0.9818
2.8185 -3.1112 -0.4030 0.9833
2.8191 -2.8982 -0.3882 0.9839
2.8131 -2.6940 -0.3739 0.9845
2.8136 -2.3354 -0.3510 0.9854
2.8141 -1.7287 -0.3171 0.9868
-5.8471 -17.1572 -2.1531 0.9296
-5.3202 -17.6368 -2.1883 0.9285
-4.7697 -18.1130 -2.2249 0.9273
-4.1951 -18.5851 -2.2632 0.9261
-2.9700 -19.5146 -2.3448 0.9236
-1.6385 -20.4197 -2.4334 0.9208
-0.9307 -20.8611 -2.4805 0.9193
0.5385 -20.4082 -2.4250 0.9211
2.8050 -20.9921 -2.5157 0.9182
3.7182 -21.8812 -2.6364 0.9145
4.5910 -22.2137 -2.6944 0.9127
5.4961 -22.5288 -2.7546 0.9108
6.4343 -22.8246 -2.8169 0.9089
2.7884 -7.7411 -0.9774 0.9674
2.7963 -6.3175 -0.8207 0.9726
2.7993 -5.7627 -0.7610 0.9745
2.8058 -4.4889 -0.6288 0.9789
2.8075 -4.1558 -0.5957 0.9800
2.8112 -3.3336 -0.5180 0.9826
2.8121 -3.1042 -0.4975 0.9833
2.8074 -2.6885 -0.4617 0.9845
2.8085 -2.1677 -0.4214 0.9858
2.8090 -1.8660 -0.4006 0.9865
-5.0245 -14.7431 -2.2069 0.9390
-4.5612 -15.1206 -2.2378 0.9382
-4.0795 -15.4918 -2.2699 0.9373
-3.5791 -15.8561 -2.3032 0.9364
-3.0596 -16.2129 -2.3377 0.9355
-1.9617 -16.9012 -2.4108 0.9336
-1.3826 -17.2311 -2.4493 0.9325
-0.1625 -17.8584 -2.5304 0.9304
0.4502 -17.0603 -2.4181 0.9334
1.7166 -17.5766 -2.5023 0.9311
3.0644 -18.0338 -2.5918 0.9288
5.7176 -17.8338 -2.6535 0.9271
2.7760 -7.7067 -1.1606 0.9674
2.7814 -6.9391 -1.0593 0.9702
2.7928 -5.2654 -0.8445 0.9762
2.7955 -4.8468 -0.7928 0.9776
2.7979 -4.4761 -0.7479 0.9789
2.8032 -3.5740 -0.6436 0.9818
2.8046 -3.3257 -0.6164 0.9826
2.8016 -2.6830 -0.5496 0.9845
2.8037 -2.0093 -0.4887 0.9862
2.8040 -1.8627 -0.4770 0.9865
2.8043 -1.7227 -0.4663 0.9868
-3.1183 -13.8146 -2.3331 0.9442
-2.6605 -14.0982 -2.3635 0.9435
-2.1874 -14.3726 -2.3950 0.9428
-1.6989 -14.6371 -2.4275 0.9420
-1.1948 -14.8909 -2.4610 0.9412
-0.6752 -15.1335 -2.4956 0.9404
0.3864 -14.6428 -2.4131 0.9423
0.9189 -14.8342 -2.4485 0.9415
1.4661 -15.0119 -2.4848 0.9407
2.0278 -15.1749 -2.5221 0.9398
2.6037 -15.3224 -2.5604 0.9389
3.1938 -15.4533 -2.5996 0.9380
3.7977 -15.5667 -2.6397 0.9371
4.4150 -15.6616 -2.6806 0.9362
2.7637 -7.6725 -1.3435 0.9675
2.7702 -6.9110 -1.2266 0.9703
2.7755 -6.2704 -1.1297 0.9726
2.7800 -5.7229 -1.0481 0.9745
2.7898 -4.4632 -0.8671 0.9789
2.7994 -3.0902 -0.6869 0.9832
2.8007 -2.8793 -0.6617 0.9838
2.7959 -2.6774 -0.6377 0.9844
2.7967 -2.4942 -0.6173 0.9849
2.7974 -2.3220 -0.5989 0.9854
2.7986 -2.0056 -0.5672 0.9861
2.7990 -1.8594 -0.5536 0.9865
2.7994 -1.7197 -0.5412 0.9868
-3.1566 -11.9871 -2.3299 0.9508
-2.3515 -12.4608 -2.3835 0.9497
-1.9304 -12.6837 -2.4115 0.9491
-1.0510 -13.0987 -2.4700 0.9479
-0.1225 -13.4686 -2.5317 0.9467
0.3386 -12.8300 -2.4124 0.9491
1.7645 -13.2046 -2.5040 0.9472
4.3455 -13.5539 -2.6753 0.9437
2.7589 -6.8829 -1.3938 0.9703
2.7785 -4.8173 -1.0453 0.9776
2.7818 -4.4503 -0.9865 0.9789
2.7913 -3.3100 -0.8138 0.9825
2.7930 -3.0831 -0.7819 0.9832
2.7911 -2.4891 -0.7029 0.9849
2.7919 -2.3174 -0.6820 0.9853
2.7927 -2.1554 -0.6631 0.9857
2.7934 -2.0020 -0.6460 0.9861
-3.1804 -10.5435 -2.3279 0.9560
-2.4738 -10.9594 -2.3749 0.9551
-2.1049 -11.1543 -2.3994 0.9547
-1.7259 -11.3399 -2.4246 0.9542
-0.5280 -11.8353 -2.5042 0.9527
-0.1090 -11.9783 -2.5321 0.9522
0.3098 -11.7389 -2.4822 0.9531
1.1319 -11.5899 -2.4615 0.9535
1.5601 -11.6758 -2.4900 0.9530
2.7391 -7.6042 -1.7085 0.9675
2.7700 -4.8026 -1.1719 0.9776
2.7737 -4.4375 -1.1062 0.9788
2.7799 -3.8157 -0.9979 0.9809
2.7824 -3.5475 -0.9530 0.9817
2.7846 -3.3021 -0.9131 0.9825
2.7854 -2.4841 -0.7889 0.9849
2.7865 -2.3129 -0.7655 0.9853
2.7874 -2.1513 -0.7443 0.9857
2.7896 -1.7136 -0.6920 0.9867
-2.8843 -9.5616 -2.3472 0.9598
-2.5661 -9.7449 -2.3684 0.9594
-2.2392 -9.9201 -2.3901 0.9591
-1.9035 -10.0866 -2.4124 0.9587
-1.2062 -10.3921 -2.4588 0.9579
-0.8450 -10.5302 -2.4828 0.9575
-0.4754 -10.6579 -2.5073 0.9571
-0.0980 -10.7748 -2.5324 0.9567
0.2872 -10.8803 -2.5580 0.9563
0.6388 -10.3129 -2.4284 0.9584
2.1794 -10.5449 -2.5307 0.9567
2.5788 -10.5705 -2.5572 0.9563
2.9832 -10.5823 -2.5840 0.9558
3.3919 -10.5796 -2.6111 0.9554
2.7268 -7.5700 -1.8910 0.9675
2.7363 -6.8266 -1.7285 0.9702
2.7442 -6.1998 -1.5935 0.9725
2.7566 -5.1970 -1.3826 0.9761
2.7656 -4.4246 -1.2263 0.9788
2.7693 -4.0993 -1.1627 0.9799
2.7725 -3.8057 -1.1066 0.9808
2.7779 -3.2941 -1.0127 0.9824
2.7802 -3.0689 -0.9732 0.9831
2.7822 -2.8603 -0.9378 0.9837
2.7797 -2.4791 -0.8754 0.9848
2.7810 -2.3083 -0.8494 0.9853
2.7821 -2.1472 -0.8259 0.9857
2.7846 -1.7106 -0.7681 0.9867
-2.6362 -8.7390 -2.3634 0.9630
-2.3436 -8.8997 -2.3829 0.9627
-2.0433 -9.0525 -2.4028 0.9624
-1.7355 -9.1969 -2.4233 0.9621
-1.4203 -9.3327 -2.4442 0.9617
-0.7684 -9.5767 -2.4876 0.9611
-0.4321 -9.6842 -2.5099 0.9607
0.9185 -9.4048 -2.4467 0.9617
1.2633 -9.4540 -2.4696 0.9614
1.6129 -9.4915 -2.4928 0.9610
1.9670 -9.5172 -2.5163 0.9606
2.6870 -9.5313 -2.5640 0.9599
3.0519 -9.5190 -2.5882 0.9595
2.7145 -7.5358 -2.0739 0.9674
2.7250 -6.7984 -1.8964 0.9702
2.7338 -6.1762 -1.7488 0.9725
2.7412 -5.6430 -1.6243 0.9744
2.7684 -3.5297 -1.1615 0.9816
2.7712 -3.2861 -1.1130 0.9824
2.7759 -2.8538 -1.0308 0.9837
2.7741 -2.4740 -0.9624 0.9848
2.7778 -1.9908 -0.8848 0.9860
2.7796 -1.7075 -0.8446 0.9866
-1.8772 -8.3166 -2.4136 0.9652
-1.0066 -8.6720 -2.4715 0.9644
-0.7039 -8.7731 -2.4916 0.9641
-0.3955 -8.8648 -2.5121 0.9638
-0.0814 -8.9470 -2.5329 0.9635
0.2380 -9.0191 -2.5541 0.9632
1.1518 -8.6198 -2.4619 0.9645
1.7904 -8.6630 -2.5043 0.9639
2.7137 -6.7700 -2.0648 0.9701
2.7233 -6.1524 -1.9047 0.9724
2.7383 -5.1626 -1.6543 0.9760
2.7442 -4.7579 -1.5549 0.9774
2.7494 -4.3985 -1.4684 0.9787
2.7538 -4.0764 -1.3927 0.9798
2.7578 -3.7854 -1.3259 0.9807
2.7671 -3.0545 -1.1668 0.9830
2.7766 -2.8545 -1.1273 0.9836
2.7666 -2.6494 -1.0844 0.9842
2.7683 -2.4689 -1.0501 0.9847
2.7699 -2.2991 -1.0191 0.9851
2.7725 -1.9870 -0.9656 0.9859
2.7746 -1.7044 -0.9218 0.9866
-2.2431 -7.4363 -2.3890 0.9680
-1.9918 -7.5637 -2.4058 0.9678
-1.7345 -7.6839 -2.4229 0.9676
-0.9282 -7.9977 -2.4764 0.9669
0.2190 -8.2962 -2.5526 0.9659
0.4867 -7.8554 -2.4208 0.9676
1.0573 -7.9126 -2.4554 0.9671
1.3479 -7.9320 -2.4747 0.9669
2.5345 -7.9052 -2.5534 0.9659
2.7023 -6.7416 -2.2340 0.9701
2.7127 -6.1286 -2.0614 0.9723
2.7215 -5.6026 -1.9158 0.9743
2.7290 -5.1452 -1.7914 0.9759
2.7355 -4.7428 -1.6840 0.9773
2.7411 -4.3853 -1.5907 0.9786
2.7460 -4.0648 -1.5088 0.9797
2.7503 -3.7752 -1.4367 0.9806
2.7542 -3.5116 -1.3727 0.9815
2.7766 -2.8546 -1.2249 0.9835
2.7658 -2.1347 -1.0746 0.9855
2.7671 -1.9832 -1.0471 0.9859
-2.3137 -6.7890 -2.3841 0.9702
-1.8501 -7.0256 -2.4150 0.9698
-1.3652 -7.2344 -2.4472 0.9694
-0.8604 -7.4133 -2.4808 0.9690
-0.3372 -7.5600 -2.5155 0.9686
-0.0693 -7.6208 -2.5333 0.9684
0.4492 -7.2508 -2.4148 0.9698
0.7112 -7.2824 -2.4322 0.9696
0.9761 -7.3050 -2.4498 0.9694
1.5134 -7.3224 -2.4854 0.9690
1.7850 -7.3168 -2.5035 0.9688
2.6080 -7.2401 -2.5580 0.9681
2.7116 -5.5822 -2.0629 0.9742
2.7198 -5.1276 -1.9294 0.9758
2.7382 -4.0532 -1.6259 0.9796
2.7470 -3.5024 -1.4796 0.9814
2.7539 -3.0399 -1.3635 0.9829
2.7546 -2.6379 -1.2678 0.9841
2.7567 -2.4585 -1.2278 0.9846
2.7586 -2.2897 -1.1917 0.9850
-2.1597 -6.3372 -2.3942 0.9720
-1.9450 -6.4480 -2.4085 0.9718
-1.7254 -6.5525 -2.4231 0.9716
-1.2721 -6.7411 -2.4532 0.9713
-1.0387 -6.8249 -2.4687 0.9711
-0.8010 -6.9013 -2.4845 0.9709
-0.0645 -7.0841 -2.5334 0.9704
0.1882 -7.1288 -2.5502 0.9702
0.6602 -6.7593 -2.4287 0.9716
1.4025 -6.7857 -2.4779 0.9710
1.9054 -6.7590 -2.5113 0.9706
2.4117 -6.6952 -2.5448 0.9702
2.7104 -5.1100 -2.0685 0.9757
2.7179 -4.7123 -1.9454 0.9772
2.7245 -4.3587 -1.8382 0.9784
2.7302 -4.0414 -1.7441 0.9795
2.7353 -3.7545 -1.6612 0.9805
2.7397 -3.4931 -1.5876 0.9813
2.7437 -3.2535 -1.5220 0.9821
2.7472 -3.0325 -1.4633 0.9828
2.7485 -2.6321 -1.3609 0.9840
2.7508 -2.4532 -1.3181 0.9845
2.7547 -2.1261 -1.2444 0.9853
2.7563 -1.9754 -1.2127 0.9857
2.7591 -1.6949 -1.1580 0.9863
-2.0229 -5.9358 -2.4032 0.9735
-1.6149 -6.1327 -2.4303 0.9732
-1.4044 -6.2218 -2.4443 0.9730
-1.1897 -6.3043 -2.4585 0.9729
-0.9709 -6.3800 -2.4731 0.9727
-0.7485 -6.4487 -2.4879 0.9726
-0.5223 -6.5103 -2.5029 0.9724
-0.0602 -6.6110 -2.5336 0.9721
0.1755 -6.6498 -2.5492 0.9719
0.6152 -6.2994 -2.4255 0.9733
0.8436 -6.3128 -2.4407 0.9731
1.0737 -6.3182 -2.4560 0.9729
1.3052 -6.3154 -2.4713 0.9728
1.7717 -6.2846 -2.5022 0.9724
2.0059 -6.2564 -2.5178 0.9722
2.2403 -6.2195 -2.5333 0.9721
2.7009 -5.0921 -2.2089 0.9756
2.7222 -4.0295 -1.8635 0.9794
2.7448 -2.4479 -1.4094 0.9844
2.7490 -2.1217 -1.3307 0.9852
2.7508 -1.9714 -1.2969 0.9856
2.7524 -1.8284 -1.2663 0.9859
2.7538 -1.6917 -1.2385 0.9863
-1.9004 -5.5763 -2.4112 0.9749
-1.7103 -5.6698 -2.4238 0.9747
-1.5161 -5.7574 -2.4367 0.9746
-1.3179 -5.8390 -2.4499 0.9745
-1.1161 -5.9143 -2.4633 0.9743
-0.7017 -6.0454 -2.4908 0.9740
-0.4895 -6.1008 -2.5049 0.9739
-0.0563 -6.1904 -2.5337 0.9736
0.1643 -6.2243 -2.5483 0.9734
0.3639 -5.8741 -2.4087 0.9749
0.5754 -5.8916 -2.4228 0.9747
1.2193 -5.8993 -2.4655 0.9743
1.8714 -5.8370 -2.5087 0.9739
2.5238 -5.7017 -2.5519 0.9734
2.7000 -4.6812 -2.2118 0.9769
2.7140 -4.0175 -1.9843 0.9793
2.7250 -3.4743 -1.8071 0.9811
2.7295 -3.2367 -1.7329 0.9819
2.7361 -2.6202 -1.5505 0.9838
2.7388 -2.4425 -1.5019 0.9843
2.7433 -2.1173 -1.4183 0.9851
2.7452 -1.9674 -1.3823 0.9855
2.7470 -1.8247 -1.3497 0.9858
2.7485 -1.6884 -1.3202 0.9862
-1.7900 -5.2524 -2.4184 0.9761
-1.4272 -5.4197 -2.4425 0.9758
-1.0499 -5.5637 -2.4676 0.9756
-0.2577 -5.7770 -2.5202 0.9751
-0.0529 -5.8137 -2.5338 0.9750
0.3415 -5.5127 -2.4071 0.9762
0.5398 -5.5272 -2.4203 0.9761
0.7396 -5.5347 -2.4335 0.9759
0.9406 -5.5351 -2.4469 0.9758
1.1426 -5.5284 -2.4603 0.9757
1.3453 -5.5143 -2.4737 0.9755
1.7518 -5.4639 -2.5007 0.9753
1.9550 -5.4274 -2.5141 0.9751
2.3599 -5.3314 -2.5410 0.9749
2.6988 -4.3177 -2.2191 0.9780
2.7120 -3.7225 -2.0072 0.9801
2.7174 -3.4647 -1.9190 0.9810
2.7223 -3.2281 -1.8404 0.9817
2.7265 -2.8031 -1.7042 0.9831
2.7326 -2.4370 -1.5957 0.9842
2.7352 -2.2703 -1.5492 0.9846
-1.1699 -5.1830 -2.4595 0.9769
-0.0498 -5.4739 -2.5339 0.9762
0.1452 -5.5002 -2.5468 0.9760
0.3230 -5.2141 -2.4181 0.9772
0.5078 -5.1991 -2.4181 0.9772
1.0738 -5.1952 -2.4556 0.9769
1.2638 -5.1803 -2.4682 0.9768
2.2133 -5.0002 -2.5311 0.9762
2.7098 -3.4550 -2.0325 0.9808
2.7195 -3.0020 -1.8750 0.9823
2.7199 -2.7963 -1.8057 0.9830
2.7233 -2.6080 -1.7454 0.9835
2.7264 -2.4314 -1.6909 0.9840
2.7291 -2.2653 -1.6417 0.9845
2.7316 -2.1083 -1.5972 0.9849
2.7338 -1.9592 -1.5568 0.9853
2.7358 -1.8173 -1.5203 0.9856
-1.5986 -4.6908 -2.4309 0.9782
-1.1058 -4.8992 -2.4637 0.9779
-0.9356 -4.9580 -2.4750 0.9778
-0.7627 -5.0113 -2.4865 0.9777
-0.5871 -5.0588 -2.4981 0.9776
-0.4092 -5.1004 -2.5099 0.9775
-0.2291 -5.1361 -2.5219 0.9774
0.3100 -5.0036 -2.4591 0.9779
0.6555 -4.9057 -2.4278 0.9782
1.0115 -4.8940 -2.4514 0.9780
1.1902 -4.8785 -2.4632 0.9779
1.3691 -4.8565 -2.4751 0.9778
2.2571 -4.6465 -2.5339 0.9772
2.6043 -4.5154 -2.5569 0.9770
2.6812 -4.2894 -2.4813 0.9777
2.6959 -3.7005 -2.2458 0.9798
2.7020 -3.4451 -2.1477 0.9807
2.7075 -3.2106 -2.0601 0.9815
2.7123 -2.9941 -1.9817 0.9822
2.7132 -2.7894 -1.9087 0.9828
2.7230 -2.2602 -1.7358 0.9844
2.7256 -2.1037 -1.6888 0.9848
2.7279 -1.9551 -1.6463 0.9852
2.7320 -1.6782 -1.5727 0.9858
-1.5149 -4.4453 -2.4364 0.9791
-1.3619 -4.5150 -2.4465 0.9790
-1.2060 -4.5798 -2.4569 0.9789
-0.8858 -4.6941 -2.4782 0.9787
-0.5556 -4.7871 -2.5001 0.9785
-0.2167 -4.8578 -2.5226 0.9783
-0.0444 -4.8844 -2.5341 0.9782
0.1295 -4.9052 -2.5456 0.9781
0.4524 -4.6316 -2.4142 0.9792
0.7868 -4.6300 -2.4364 0.9791
1.1233 -4.6044 -2.4587 0.9789
1.4601 -4.5541 -2.4810 0.9787
1.7953 -4.4788 -2.5032 0.9785
1.9617 -4.4317 -2.5142 0.9784
2.2906 -4.3186 -2.5360 0.9782
2.4527 -4.2525 -2.5468 0.9781
2.6877 -3.6892 -2.3680 0.9796
2.6941 -3.4351 -2.2648 0.9805
2.7051 -2.9860 -2.0902 0.9820
2.7102 -2.5954 -1.9467 0.9832
2.7167 -2.2550 -1.8316 0.9842
2.7263 -1.6747 -1.6598 0.9857
-1.4379 -4.2193 -2.4414 0.9799
-1.1442 -4.3451 -2.4609 0.9797
-0.9933 -4.4008 -2.4710 0.9796
-0.8400 -4.4515 -2.4811 0.9796
-0.5267 -4.5376 -2.5020 0.9794
-0.2053 -4.6025 -2.5233 0.9792
-0.0421 -4.6267 -2.5341 0.9791
0.2875 -4.6401 -2.5463 0.9790
0.4282 -4.3839 -2.4125 0.9801
0.7444 -4.3803 -2.4335 0.9799
1.0622 -4.3539 -2.4546 0.9798
1.2212 -4.3320 -2.4651 0.9797
1.3800 -4.3042 -2.4756 0.9796
1.6959 -4.2310 -2.4966 0.9794
2.1623 -4.0767 -2.5274 0.9792
2.4654 -3.9441 -2.5475 0.9790
2.6976 -2.9778 -2.2007 0.9818
2.6993 -2.7751 -2.1203 0.9825
2.7070 -2.4142 -1.9866 0.9836
2.7103 -2.2497 -1.9292 0.9841
2.7159 -1.9464 -1.8301 0.9849
2.7204 -1.6712 -1.7487 0.9855
-1.0871 -4.1282 -2.4646 0.9805
-0.6499 -4.2701 -2.4937 0.9802
-0.4999 -4.3075 -2.5037 0.9802
-0.3482 -4.3400 -2.5137 0.9801
-0.0399 -4.3892 -2.5342 0.9799
0.2737 -4.4169 -2.5550 0.9798
0.5554 -4.1561 -2.4209 0.9808
1.1565 -4.1022 -2.4607 0.9805
1.4561 -4.0422 -2.4806 0.9804
1.7528 -3.9600 -2.5002 0.9802
2.3305 -3.7284 -2.5385 0.9799
2.4703 -3.6566 -2.5477 0.9798
2.6077 -3.5794 -2.5568 0.9798
2.7069 -2.0892 -1.9742 0.9843
2.7097 -1.9420 -1.9247 0.9847
2.7145 -1.6675 -1.8393 0.9854
