ply
format ascii 1.0
element vertex 592
property float32 x
property float32 y
property float32 z
property float32 I
end_header
-26.8221 25.6985 6.5499 0.8600
-26.9604 20.7606 6.0000 0.8709
-27.0223 19.3025 5.8555 0.8738
-27.0650 17.9004 5.7216 0.8765
-27.2061 14.0442 5.3986 0.8831
-33.1289 14.1893 6.3548 0.8638
-41.6782 14.4063 7.7756 0.8360
-26.6871 31.7492 6.3538 0.8455
-26.6876 29.5275 6.0972 0.8512
-26.8453 27.6377 5.9025 0.8556
-26.8073 25.6843 5.6874 0.8605
-26.9285 24.0055 5.5265 0.8642
-27.0385 22.4133 5.3802 0.8675
-27.0697 19.3364 5.0963 0.8740
-27.1114 17.9311 4.9795 0.8767
-27.1509 16.5868 4.8741 0.8792
-27.0946 15.2435 4.7625 0.8818
-27.2242 14.0535 4.6935 0.8834
-26.7246 31.7938 5.4086 0.8457
-26.8442 27.6366 5.0171 0.8561
-26.8598 25.7346 4.8440 0.8607
-27.1171 19.3702 4.3396 0.8742
-27.2330 15.3214 4.0690 0.8816
-29.9223 14.1088 4.3079 0.8751
-33.1238 14.1871 4.6924 0.8647
-41.8054 14.4503 5.7600 0.8366
-26.8034 31.8875 4.4731 0.8457
-26.9256 27.7203 4.1497 0.8560
-26.9799 25.8497 4.0123 0.8604
-27.0779 22.4459 3.7768 0.8681
-26.2002 16.0059 3.2969 0.8838
-29.9202 14.1079 3.5521 0.8754
-30.0855 10.3993 3.4182 0.8798
-24.8743 29.5926 3.2725 0.8563
-26.0912 28.8677 3.2939 0.8554
-27.0814 24.1418 3.0712 0.8645
-27.1706 20.9225 2.9030 0.8714
-27.2481 18.0215 2.7655 0.8771
-27.3218 15.3714 2.6538 0.8818
-27.2436 14.0635 2.5954 0.8842
-26.7357 12.6063 2.5022 0.8881
-32.9851 14.1277 3.0376 0.8658
-41.7930 16.1491 3.7928 0.8354
-30.1060 10.4063 2.6965 0.8800
-47.5404 14.5429 4.2085 0.8191
-26.9195 32.0257 2.5943 0.8456
-27.0338 27.8317 2.4060 0.8560
-27.1323 24.1872 2.2540 0.8644
-27.1901 22.5389 2.1900 0.8680
-27.2189 20.9597 2.1303 0.8714
-27.1534 19.3962 2.0692 0.8748
-27.2467 18.0206 2.0257 0.8773
-27.3662 15.3963 1.9471 0.8818
-33.0175 14.1416 2.2273 0.8659
-25.2421 30.0302 1.5469 0.8547
-25.3330 28.0288 1.4897 0.8596
-27.1372 26.0004 1.4819 0.8603
-26.5978 23.7107 1.4050 0.8671
-25.4993 21.1373 1.3060 0.8758
-27.2004 19.4297 1.3180 0.8748
-27.3423 18.0838 1.2926 0.8770
-27.3772 16.7250 1.2650 0.8795
-27.3305 14.1084 1.2128 0.8842
-25.7004 12.1181 1.1204 0.8925
-33.1138 14.1828 1.4204 0.8657
-40.2441 15.5506 1.7012 0.8414
-30.1469 10.4205 1.2577 0.8801
-25.3181 28.0124 0.6378 0.8598
-25.3658 26.1145 0.6150 0.8645
-25.4909 21.1304 0.5593 0.8759
-25.5278 19.6575 0.5442 0.8791
-25.5627 18.2599 0.5307 0.8819
-25.5960 16.9288 0.5184 0.8845
-25.6277 15.6562 0.5073 0.8868
-25.6581 14.4354 0.4973 0.8889
-40.2747 15.5624 0.7293 0.8414
-30.1673 10.4275 0.5392 0.8801
-25.3213 30.1244 -0.2216 0.8544
-25.3708 28.0707 -0.2130 0.8595
-25.4997 22.7318 -0.1923 0.8723
-25.5731 19.6924 -0.1817 0.8789
-25.6070 18.2915 -0.1772 0.8817
-36.6594 5.6579 -0.2088 0.8621
-36.6969 2.9886 -0.2073 0.8631
-36.7095 1.6651 -0.2069 0.8633
-36.7184 0.3449 -0.2067 0.8634
-36.7234 -0.9749 -0.2068 0.8633
-36.7153 -4.9623 -0.2086 0.8623
-36.7047 -6.3111 -0.2097 0.8616
-36.6481 -10.4622 -0.2146 0.8586
-36.5511 -14.8488 -0.2221 0.8540
-34.2712 -16.8836 -0.2151 0.8583
-34.2690 -18.4411 -0.2191 0.8558
-34.2099 -20.0266 -0.2232 0.8534
-23.0916 25.5489 -0.9697 0.8713
-23.2250 22.2521 -0.9057 0.8792
-23.7942 19.7240 -0.8703 0.8837
-24.6902 15.0836 -0.8147 0.8907
-25.0172 11.7960 -0.7788 0.8952
-25.4472 9.8330 -0.7682 0.8966
-25.5580 8.8342 -0.7614 0.8974
-26.9482 8.2436 -0.7935 0.8934
-27.3877 7.3130 -0.7982 0.8928
-27.4678 6.2866 -0.7934 0.8934
-27.6940 1.2561 -0.7806 0.8950
-27.7057 0.2603 -0.7802 0.8951
-27.6750 -2.7323 -0.7831 0.8947
-27.5988 -4.7451 -0.7885 0.8940
-27.4767 -6.7865 -0.7969 0.8929
-27.3064 -8.8679 -0.8084 0.8915
-26.6471 -14.3396 -0.8521 0.8860
-17.8065 21.1841 -1.4035 0.8951
-18.2160 20.1544 -1.3777 0.8969
-18.5983 19.1473 -1.3537 0.8986
-19.2882 17.1945 -1.3104 0.9017
-19.5984 16.2458 -1.2910 0.9031
-19.8870 15.3138 -1.2729 0.9044
-21.2198 10.0055 -1.1898 0.9103
-21.3826 9.1583 -1.1797 0.9110
-21.5301 8.3194 -1.1706 0.9117
-21.7808 6.6629 -1.1551 0.9128
-21.8849 5.8437 -1.1488 0.9133
-22.0519 4.2196 -1.1386 0.9140
-22.1155 3.4133 -1.1349 0.9143
-22.1659 2.6097 -1.1319 0.9145
-22.2034 1.8083 -1.1298 0.9146
-22.2280 1.0082 -1.1284 0.9147
-22.2390 -0.5904 -1.1282 0.9148
-22.2254 -1.3903 -1.1294 0.9147
-22.1990 -2.1917 -1.1313 0.9145
-22.1597 -2.9951 -1.1340 0.9143
-22.1073 -3.8012 -1.1376 0.9141
-21.9629 -5.4246 -1.1473 0.9134
-21.6430 -7.8990 -1.1684 0.9119
-21.3569 -9.5839 -1.1872 0.9105
-14.2905 17.0013 -1.6285 0.9148
-14.6723 16.2336 -1.6044 0.9160
-15.6849 13.9824 -1.5407 0.9192
-16.2588 12.5200 -1.5046 0.9210
-17.1905 9.6715 -1.4462 0.9239
-18.1129 5.5409 -1.3888 0.9268
-18.2164 4.8641 -1.3825 0.9272
-18.4458 2.8469 -1.3685 0.9279
-18.4958 2.1776 -1.3655 0.9280
-18.5570 0.8417 -1.3620 0.9282
-18.4849 -2.4984 -1.3677 0.9279
-18.4316 -3.1692 -1.3713 0.9277
-18.2852 -4.5163 -1.3810 0.9272
-17.8280 -7.2426 -1.4109 0.9257
-17.6779 -7.9330 -1.4207 0.9252
-17.5127 -8.6276 -1.4314 0.9247
-17.3321 -9.3269 -1.4431 0.9241
-13.2091 11.7753 -1.6989 0.9314
-13.7432 10.5829 -1.6653 0.9327
-14.7996 7.6398 -1.5990 0.9353
-14.9663 7.0569 -1.5886 0.9357
-15.1189 6.4755 -1.5790 0.9360
-15.2578 5.8957 -1.5704 0.9364
-15.3830 5.3172 -1.5626 0.9367
-15.7528 3.0143 -1.5398 0.9376
-15.8131 2.4406 -1.5361 0.9377
-15.8963 1.2946 -1.5312 0.9379
-15.9298 0.1496 -1.5294 0.9380
-15.9137 -0.9955 -1.5308 0.9379
-15.7321 -3.2909 -1.5431 0.9375
-14.5573 -8.5219 -1.6194 0.9345
-10.2289 12.1692 -1.8884 0.9380
-10.5464 11.6687 -1.8683 0.9386
-11.1323 10.6660 -1.8314 0.9398
-11.4016 10.1641 -1.8144 0.9403
-11.6557 9.6619 -1.7984 0.9408
-11.8948 9.1595 -1.7833 0.9413
-12.1194 8.6571 -1.7692 0.9418
-12.3297 8.1547 -1.7560 0.9422
-12.5262 7.6523 -1.7436 0.9426
-12.7088 7.1500 -1.7322 0.9430
-12.8781 6.6479 -1.7215 0.9433
-13.1773 5.6439 -1.7028 0.9439
-13.5308 4.1391 -1.6808 0.9446
-13.8757 1.6337 -1.6596 0.9453
-13.9090 1.1328 -1.6577 0.9453
-13.9403 0.1309 -1.6560 0.9454
-13.9384 -0.3700 -1.6563 0.9454
-13.8621 -1.8736 -1.6616 0.9452
-13.4965 -4.3831 -1.6856 0.9444
-13.2646 -5.3887 -1.7007 0.9440
-12.9817 -6.3954 -1.7190 0.9434
-12.6462 -7.4031 -1.7407 0.9427
-8.9478 10.6450 -1.9704 0.9454
-9.5134 9.7942 -1.9346 0.9463
-9.7749 9.3655 -1.9181 0.9468
-10.2570 8.5025 -1.8877 0.9476
-10.4781 8.0685 -1.8738 0.9480
-10.6859 7.6332 -1.8607 0.9483
-10.8810 7.1966 -1.8484 0.9487
-11.0635 6.7588 -1.8370 0.9490
-11.5368 5.4398 -1.8073 0.9498
-12.0886 3.2279 -1.7728 0.9507
-12.1645 2.7841 -1.7681 0.9508
-12.2291 2.3400 -1.7642 0.9509
-12.2825 1.8957 -1.7609 0.9510
-12.3248 1.4511 -1.7584 0.9511
-12.3761 0.5613 -1.7554 0.9512
-12.3832 -0.3287 -1.7552 0.9512
-12.3703 -0.7738 -1.7562 0.9512
-12.3110 -1.6639 -1.7602 0.9511
-12.2648 -2.1088 -1.7633 0.9510
-12.2073 -2.5536 -1.7671 0.9509
-12.0588 -3.4422 -1.7768 0.9506
-11.8641 -4.3300 -1.7895 0.9503
-11.7494 -4.7732 -1.7969 0.9501
-11.6230 -5.2159 -1.8051 0.9498
-11.4847 -5.6579 -1.8140 0.9496
-11.1718 -6.5400 -1.8342 0.9490
-8.7066 8.3419 -1.9864 0.9523
-9.1519 7.5863 -1.9583 0.9530
-9.9001 6.0481 -1.9112 0.9541
-10.0583 5.6589 -1.9012 0.9543
-10.4661 4.4827 -1.8757 0.9549
-10.5800 4.0882 -1.8685 0.9551
-10.6831 3.6927 -1.8621 0.9552
-10.7755 3.2963 -1.8564 0.9553
-10.9889 2.1027 -1.8432 0.9557
-11.0786 1.3043 -1.8377 0.9558
-11.1078 0.9046 -1.8360 0.9558
-11.1267 0.5047 -1.8349 0.9559
-11.1209 -0.6957 -1.8356 0.9558
-11.0982 -1.0957 -1.8372 0.9558
-10.9029 -2.6929 -1.8501 0.9555
-10.6454 -3.8853 -1.8669 0.9551
-10.4198 -4.6759 -1.8815 0.9548
-10.2905 -5.0696 -1.8898 0.9546
-9.9985 -5.8532 -1.9086 0.9541
-7.1409 8.4954 -2.0860 0.9558
-8.2557 6.8435 -2.0156 0.9573
-8.4457 6.5036 -2.0036 0.9575
-8.6250 6.1610 -1.9923 0.9578
-9.0993 5.1194 -1.9624 0.9584
-9.2366 4.7681 -1.9538 0.9586
-9.3636 4.4151 -1.9458 0.9587
-9.4804 4.0605 -1.9385 0.9589
-9.5870 3.7045 -1.9318 0.9590
-9.6836 3.3472 -1.9258 0.9592
-9.9134 2.2689 -1.9115 0.9595
-10.1054 -0.2683 -1.9001 0.9597
-10.0938 -0.6314 -1.9009 0.9597
-10.0724 -0.9944 -1.9024 0.9596
-10.0002 -1.7195 -1.9072 0.9595
-9.9494 -2.0813 -1.9106 0.9595
-9.8888 -2.4425 -1.9146 0.9594
-9.7376 -3.1624 -1.9244 0.9592
-9.6471 -3.5209 -1.9303 0.9591
-9.5465 -3.8782 -1.9368 0.9589
-9.4357 -4.2343 -1.9439 0.9588
-9.1835 -4.9419 -1.9602 0.9584
-9.0419 -5.2932 -1.9693 0.9583
-7.1298 6.8312 -2.0872 0.9604
-7.6907 5.9222 -2.0518 0.9611
-7.8579 5.6131 -2.0413 0.9613
-8.0154 5.3012 -2.0313 0.9615
-8.4296 4.3515 -2.0053 0.9620
-8.5486 4.0308 -1.9978 0.9621
-8.6580 3.7083 -1.9909 0.9622
-9.0018 2.4037 -1.9695 0.9626
-9.1620 1.4140 -1.9596 0.9628
-9.1969 1.0828 -1.9575 0.9628
-9.2392 0.4191 -1.9550 0.9629
-9.2465 0.0868 -1.9546 0.9629
-9.2447 -0.2454 -1.9548 0.9629
-9.2337 -0.5777 -1.9557 0.9629
-9.2136 -0.9096 -1.9570 0.9629
-9.1842 -1.2413 -1.9590 0.9628
-8.9743 -2.5620 -1.9728 0.9626
-8.7191 -3.5421 -1.9893 0.9623
-8.6151 -3.8661 -1.9960 0.9621
-8.3788 -4.5089 -2.0113 0.9618
-5.9241 7.0479 -2.1638 0.9629
-6.3374 6.5245 -2.1377 0.9633
-6.5303 6.2567 -2.1255 0.9635
-6.7140 5.9852 -2.1139 0.9637
-6.8886 5.7102 -2.1029 0.9639
-7.0541 5.4319 -2.0925 0.9641
-7.2105 5.1506 -2.0826 0.9642
-7.4964 4.5796 -2.0646 0.9645
-7.6258 4.2904 -2.0564 0.9647
-7.9609 3.4097 -2.0354 0.9650
-8.0548 3.1125 -2.0295 0.9651
-8.1401 2.8137 -2.0242 0.9652
-8.5076 0.3859 -2.0015 0.9656
-8.5146 0.0800 -2.0012 0.9656
-8.5024 -0.5319 -2.0022 0.9656
-8.4833 -0.8375 -2.0035 0.9656
-8.4192 -1.4476 -2.0077 0.9655
-8.3741 -1.7518 -2.0107 0.9655
-8.2578 -2.3574 -2.0183 0.9653
-8.1865 -2.6586 -2.0229 0.9653
-8.1064 -2.9586 -2.0281 0.9652
-7.9198 -3.5540 -2.0402 0.9650
-7.5734 -4.4335 -2.0625 0.9646
-5.6496 6.2508 -2.1816 0.9658
-5.8384 6.0108 -2.1696 0.9660
-6.0188 5.7667 -2.1582 0.9661
-6.1908 5.5188 -2.1474 0.9663
-6.6563 4.7547 -2.1180 0.9668
-6.9248 4.2304 -2.1011 0.9670
-7.0465 3.9644 -2.0934 0.9671
-7.1599 3.6960 -2.0863 0.9673
-7.2650 3.4255 -2.0797 0.9674
-7.6027 2.3257 -2.0585 0.9677
-7.7221 1.7674 -2.0511 0.9678
-7.8087 1.2052 -2.0458 0.9679
-7.8397 0.9230 -2.0439 0.9679
-7.8626 0.6403 -2.0425 0.9679
-7.8772 0.3573 -2.0417 0.9679
-7.8821 -0.2092 -2.0415 0.9679
-7.8722 -0.4925 -2.0422 0.9679
-7.8542 -0.7754 -2.0435 0.9679
-7.8280 -1.0580 -2.0452 0.9679
-7.7936 -1.3401 -2.0475 0.9679
-7.7510 -1.6214 -2.0503 0.9678
-7.4984 -2.7367 -2.0667 0.9676
-7.3225 -3.2860 -2.0781 0.9674
-7.2222 -3.5580 -2.0846 0.9673
-7.1135 -3.8280 -2.0916 0.9672
-6.9965 -4.0958 -2.0991 0.9671
-5.0459 6.0031 -2.2200 0.9679
-5.4077 5.5672 -2.1972 0.9682
-5.5768 5.3432 -2.1865 0.9684
-5.7383 5.1155 -2.1763 0.9685
-5.8920 4.8841 -2.1666 0.9687
-6.1760 4.4117 -2.1486 0.9689
-6.3063 4.1709 -2.1404 0.9691
-6.4288 3.9274 -2.1327 0.9692
-6.6505 3.4331 -2.1188 0.9694
-6.7496 3.1825 -2.1125 0.9695
-7.0684 2.1623 -2.0926 0.9697
-7.1287 1.9035 -2.0888 0.9698
-7.2925 0.8586 -2.0787 0.9699
-7.3141 0.5957 -2.0774 0.9700
-7.3279 0.3324 -2.0766 0.9700
-7.3340 0.0689 -2.0763 0.9700
-7.3324 -0.1947 -2.0765 0.9700
-7.3060 -0.7213 -2.0783 0.9699
-7.2083 -1.5079 -2.0848 0.9698
-7.1603 -1.7685 -2.0879 0.9698
-7.1045 -2.0281 -2.0916 0.9698
-7.0408 -2.2866 -2.0957 0.9697
-6.9695 -2.5437 -2.1003 0.9696
-6.8904 -2.7992 -2.1054 0.9696
-6.6062 -3.5550 -2.1237 0.9693
-6.4958 -3.8027 -2.1308 0.9692
-4.6917 5.5816 -2.2427 0.9699
-4.8652 5.3829 -2.2317 0.9701
-5.0316 5.1801 -2.2212 0.9702
-5.1908 4.9734 -2.2111 0.9704
-5.3429 4.7629 -2.2015 0.9705
-5.7554 4.1112 -2.1755 0.9708
-6.1023 3.4332 -2.1536 0.9711
-6.3835 2.7341 -2.1360 0.9714
-6.5344 2.2586 -2.1265 0.9715
-6.6558 1.7772 -2.1189 0.9716
-6.7480 1.2912 -2.1132 0.9717
-6.8109 0.8019 -2.1094 0.9717
-6.8445 0.3104 -2.1074 0.9717
-6.8503 0.0643 -2.1071 0.9717
-6.8398 -0.4279 -2.1079 0.9717
-6.8237 -0.6737 -2.1090 0.9717
-6.7310 -1.4080 -2.1151 0.9716
-6.6855 -1.6513 -2.1181 0.9716
-6.6326 -1.8935 -2.1216 0.9715
-6.5724 -2.1344 -2.1255 0.9715
-6.3476 -2.8485 -2.1400 0.9713
-4.3798 5.2106 -2.2627 0.9717
-4.5433 5.0269 -2.2523 0.9718
-4.7002 4.8390 -2.2424 0.9720
-5.1306 4.2529 -2.2152 0.9723
-5.2605 4.0508 -2.2070 0.9724
-5.6093 3.4268 -2.1850 0.9727
-5.7119 3.2136 -2.1785 0.9728
-5.8076 2.9980 -2.1725 0.9728
-5.8963 2.7802 -2.1669 0.9729
-6.0531 2.3390 -2.1571 0.9730
-6.2364 1.6652 -2.1456 0.9732
-6.2836 1.4381 -2.1427 0.9732
-6.3239 1.2101 -2.1402 0.9732
-6.3572 0.9811 -2.1382 0.9733
-6.4153 0.2910 -2.1347 0.9733
-6.4208 0.0603 -2.1344 0.9733
-6.4193 -0.1704 -2.1346 0.9733
-6.4109 -0.4011 -2.1352 0.9733
-6.3731 -0.8614 -2.1377 0.9733
-6.3076 -1.3195 -2.1421 0.9732
-6.2141 -1.7740 -2.1481 0.9731
-6.1570 -1.9995 -2.1518 0.9731
-6.0929 -2.2237 -2.1560 0.9730
-5.7672 -3.1035 -2.1770 0.9728
-5.6684 -3.3183 -2.1833 0.9727
-4.1031 4.8813 -2.2804 0.9733
-4.5476 4.3571 -2.2523 0.9736
-4.6833 4.1750 -2.2437 0.9737
-4.8127 3.9895 -2.2355 0.9738
-5.0524 3.6090 -2.2204 0.9740
-5.2662 3.2172 -2.2069 0.9741
-5.3636 3.0175 -2.2008 0.9742
-5.4543 2.8156 -2.1950 0.9743
-5.5385 2.6115 -2.1898 0.9743
-5.6163 2.4055 -2.1849 0.9744
-5.6874 2.1976 -2.1804 0.9744
-5.8100 1.7773 -2.1727 0.9745
-5.8614 1.5651 -2.1695 0.9746
-5.9445 1.1375 -2.1644 0.9746
-5.9762 0.9223 -2.1624 0.9746
-6.0314 0.2736 -2.1591 0.9747
-6.0353 -0.1602 -2.1590 0.9747
-6.0272 -0.3771 -2.1596 0.9747
-6.0126 -0.5936 -2.1606 0.9747
-5.9913 -0.8098 -2.1620 0.9746
-5.9289 -1.2402 -2.1661 0.9746
-5.7249 -2.0894 -2.1794 0.9744
-5.6574 -2.2983 -2.1837 0.9744
-4.0016 4.4274 -2.2870 0.9748
-4.2764 4.0972 -2.2696 0.9749
-4.6443 3.5763 -2.2463 0.9752
-4.7550 3.3966 -2.2394 0.9753
-4.8596 3.2141 -2.2328 0.9754
-5.0505 2.8414 -2.2207 0.9755
-5.2168 2.4598 -2.2103 0.9756
-5.2907 2.2660 -2.2056 0.9756
-5.5239 1.4750 -2.1910 0.9758
-5.5666 1.2740 -2.1884 0.9758
-5.6030 1.0721 -2.1861 0.9759
-5.6331 0.8694 -2.1843 0.9759
-5.6570 0.6660 -2.1828 0.9759
-5.6745 0.4621 -2.1818 0.9759
-5.6857 0.2579 -2.1811 0.9759
-5.6893 -0.1510 -2.1810 0.9759
-5.6209 -0.9665 -2.1856 0.9759
-5.5488 -1.3705 -2.1903 0.9758
-5.5035 -1.5711 -2.1933 0.9758
-5.3296 -2.1652 -2.2045 0.9757
-5.2592 -2.3601 -2.2091 0.9756
-5.1826 -2.5532 -2.2140 0.9756
-5.0998 -2.7444 -2.2193 0.9755
-5.0108 -2.9333 -2.2251 0.9754
-4.1538 3.7030 -2.2775 0.9762
-4.3812 3.3737 -2.2631 0.9764
-4.7674 2.6822 -2.2388 0.9766
-4.8495 2.5034 -2.2336 0.9767
-4.9257 2.3225 -2.2288 0.9767
-5.1716 1.5820 -2.2134 0.9769
-5.2936 1.0129 -2.2058 0.9770
-5.3223 0.8214 -2.2041 0.9770
-5.3450 0.6293 -2.2027 0.9770
-5.3617 0.4366 -2.2017 0.9770
-5.3685 -0.3358 -2.2015 0.9770
-5.3552 -0.5287 -2.2024 0.9770
-5.3105 -0.9131 -2.2054 0.9770
-5.2792 -1.1043 -2.2074 0.9770
-5.0941 -1.8592 -2.2194 0.9768
-5.0330 -2.0446 -2.2234 0.9768
-4.9659 -2.2285 -2.2277 0.9767
-4.8929 -2.4105 -2.2324 0.9767
-4.8141 -2.5906 -2.2375 0.9766
-3.6883 3.7973 -2.3071 0.9772
-3.9258 3.4997 -2.2921 0.9773
-4.0366 3.3461 -2.2851 0.9774
-4.2422 3.0303 -2.2721 0.9775
-4.5881 2.3685 -2.2503 0.9777
-4.6607 2.1976 -2.2457 0.9778
-4.7278 2.0250 -2.2415 0.9778
-4.7893 1.8506 -2.2377 0.9778
-4.8451 1.6747 -2.2342 0.9779
-4.8952 1.4975 -2.2310 0.9779
-4.9397 1.3190 -2.2283 0.9779
-5.0116 0.9590 -2.2238 0.9780
-5.0913 0.0478 -2.2190 0.9780
-5.0901 -0.1351 -2.2191 0.9780
-5.0831 -0.3180 -2.2196 0.9780
-5.0277 -0.8645 -2.2233 0.9780
-4.9622 -1.2256 -2.2276 0.9779
-4.9209 -1.4048 -2.2303 0.9779
-4.8212 -1.7596 -2.2368 0.9779
-4.7629 -1.9349 -2.2405 0.9778
-4.6294 -2.2807 -2.2491 0.9777
-4.4735 -2.6188 -2.2591 0.9776
-3.2461 3.8618 -2.3352 0.9780
-3.3712 3.7300 -2.3273 0.9781
-3.4916 3.5947 -2.3197 0.9782
-3.7177 3.3142 -2.3054 0.9783
-3.8232 3.1692 -2.2987 0.9783
-4.0192 2.8710 -2.2863 0.9785
-4.1095 2.7179 -2.2806 0.9785
-4.1946 2.5625 -2.2753 0.9786
-4.2744 2.4048 -2.2702 0.9786
-4.4184 2.0834 -2.2612 0.9787
-4.4825 1.9199 -2.2572 0.9787
-4.5411 1.7547 -2.2535 0.9788
-4.6848 1.2509 -2.2445 0.9789
-4.8156 0.3922 -2.2364 0.9789
-4.8254 0.2189 -2.2359 0.9789
-4.8217 -0.3016 -2.2363 0.9789
-4.8095 -0.4748 -2.2371 0.9789
-4.7062 -1.1624 -2.2439 0.9789
-4.6667 -1.3322 -2.2465 0.9788
-4.6218 -1.5010 -2.2494 0.9788
-4.5715 -1.6685 -2.2526 0.9788
-4.5158 -1.8345 -2.2562 0.9787
-4.3883 -2.1619 -2.2644 0.9787
-4.3166 -2.3229 -2.2690 0.9786
-3.5268 3.1440 -2.3176 0.9792
-3.7233 2.8671 -2.3052 0.9793
-3.9006 2.5798 -2.2940 0.9794
-4.0582 2.2831 -2.2840 0.9795
-4.2568 1.8232 -2.2715 0.9796
-4.3129 1.6665 -2.2680 0.9796
-4.4096 1.3489 -2.2620 0.9797
-4.5159 0.8641 -2.2554 0.9797
-4.5607 0.5370 -2.2526 0.9797
-4.5846 0.2079 -2.2512 0.9798
-4.5875 -0.1218 -2.2511 0.9798
-4.5695 -0.4511 -2.2524 0.9798
-4.5526 -0.6153 -2.2535 0.9797
-4.4706 -1.1042 -2.2589 0.9797
-4.3418 -1.5846 -2.2672 0.9796
-4.0247 -2.3561 -2.2876 0.9794
-3.1452 3.2380 -2.3418 0.9799
-3.3509 2.9871 -2.3288 0.9800
-3.4470 2.8574 -2.3227 0.9800
-3.6256 2.5898 -2.3115 0.9801
-3.7080 2.4524 -2.3063 0.9802
-3.7856 2.3127 -2.3014 0.9802
-3.9266 2.0270 -2.2925 0.9803
-4.1947 1.2832 -2.2757 0.9804
-4.2336 1.1304 -2.2732 0.9804
-4.2675 0.9767 -2.2711 0.9805
-4.2964 0.8221 -2.2693 0.9805
-4.3393 0.5109 -2.2667 0.9805
-4.3532 0.3545 -2.2659 0.9805
-4.3622 0.1978 -2.2653 0.9805
-4.3661 0.0410 -2.2651 0.9805
-4.3650 -0.1159 -2.2653 0.9805
-4.3477 -0.4292 -2.2665 0.9805
-4.3315 -0.5854 -2.2675 0.9805
-4.3103 -0.7412 -2.2689 0.9805
-4.2169 -1.2038 -2.2750 0.9804
-4.1297 -1.5072 -2.2807 0.9804
-4.0230 -1.8053 -2.2876 0.9803
-3.9623 -1.9520 -2.2915 0.9803
-2.7785 3.3056 -2.3651 0.9805
-2.8871 3.1943 -2.3583 0.9806
-2.9916 3.0799 -2.3516 0.9806
-3.2799 2.7189 -2.3334 0.9808
-3.3675 2.5931 -2.3279 0.9808
-3.4507 2.4649 -2.3226 0.9808
-3.5295 2.3343 -2.3177 0.9809
-3.6037 2.2016 -2.3130 0.9809
-3.7387 1.9300 -2.3045 0.9810
-3.7993 1.7915 -2.3007 0.9810
-3.9067 1.5096 -2.2939 0.9811
-3.9534 1.3665 -2.2910 0.9811
-3.9953 1.2222 -2.2884 0.9811
-4.1472 0.3378 -2.2790 0.9812
-4.1595 0.0391 -2.2783 0.9812
-4.1526 -0.2598 -2.2788 0.9812
-4.1419 -0.4089 -2.2796 0.9812
-4.1061 -0.7060 -2.2819 0.9812
-4.0810 -0.8537 -2.2836 0.9812
-3.9772 -1.2916 -2.2903 0.9811
-3.9331 -1.4355 -2.2932 0.9811
-3.8843 -1.5780 -2.2963 0.9811
-3.8308 -1.7191 -2.2997 0.9810
-3.7727 -1.8586 -2.3035 0.9810
-2.6454 3.1471 -2.3737 0.9812
-2.7491 3.0417 -2.3671 0.9812
-3.1248 2.5902 -2.3433 0.9814
-3.2086 2.4707 -2.3380 0.9815
-3.2881 2.3488 -2.3330 0.9815
-3.3635 2.2246 -2.3283 0.9815
-3.5014 1.9699 -2.3196 0.9816
-3.7248 1.4393 -2.3055 0.9817
-3.8454 1.0268 -2.2980 0.9818
-3.9635 0.1798 -2.2907 0.9818
-3.9671 0.0373 -2.2905 0.9818
-3.9661 -0.1053 -2.2906 0.9818
-3.9159 -0.6733 -2.2940 0.9818
-3.8918 -0.8141 -2.2956 0.9818
-3.8632 -0.9542 -2.2975 0.9818
-3.7500 -1.3687 -2.3048 0.9817
-3.6521 -1.6389 -2.3111 0.9817
-3.5964 -1.7718 -2.3147 0.9817
-3.5363 -1.9030 -2.3185 0.9816
-3.4718 -2.0325 -2.3227 0.9816
