ply
format ascii 1.0
element vertex 495
property float32 x
property float32 y
property float32 z
property float32 I
end_header
-39.4552 0.8120 -0.2222 0.8540
-39.4595 -0.6138 -0.2222 0.8540
-39.4593 -2.0413 -0.2225 0.8538
-39.4547 -3.4737 -0.2230 0.8535
-39.4454 -4.9143 -0.2238 0.8530
-39.4130 -7.8339 -0.2263 0.8515
-39.3615 -10.8288 -0.2298 0.8493
-39.3279 -12.3641 -0.2321 0.8480
-36.8525 -16.1485 -0.2265 0.8513
-36.8435 -17.7577 -0.2303 0.8491
-36.7807 -19.3947 -0.2341 0.8468
-36.7104 -21.0865 -0.2384 0.8442
-36.6325 -22.8402 -0.2431 0.8414
-36.3473 -28.5550 -0.2602 0.8312
-36.1051 -32.8462 -0.2748 0.8226
-29.2732 0.6025 -0.8244 0.8894
-29.2670 -1.5140 -0.8252 0.8893
-29.1048 -5.7851 -0.8356 0.8880
-29.0322 -6.8694 -0.8401 0.8875
-28.8463 -9.0688 -0.8514 0.8860
-28.1235 -14.8297 -0.8952 0.8805
-26.7071 -15.3406 -0.8672 0.8840
-25.6629 -18.7025 -0.8941 0.8807
-25.4039 -19.9577 -0.9097 0.8787
-25.0678 -21.2018 -0.9245 0.8769
-24.0781 -25.3148 -0.9838 0.8695
-23.6918 -26.7829 -1.0069 0.8667
-23.2733 -28.3078 -1.0319 0.8636
-23.1700 -30.3542 -1.0753 0.8583
-23.1615 -32.7301 -1.1290 0.8518
-21.8900 -39.3694 -1.2684 0.8351
-21.1579 -41.5167 -1.3121 0.8299
-23.2647 -0.3619 -1.1800 0.9110
-23.2274 -2.0450 -1.1825 0.9108
-23.0647 -4.5845 -1.1926 0.9101
-22.8834 -6.2955 -1.2036 0.9093
-22.6412 -8.0277 -1.2183 0.9083
-22.3352 -9.7871 -1.2367 0.9070
-22.1571 -10.6791 -1.2474 0.9062
-21.5152 -13.4146 -1.2858 0.9034
-21.2632 -14.3494 -1.3009 0.9024
-20.9906 -15.2973 -1.3172 0.9012
-20.6966 -16.2596 -1.3348 0.9000
-20.3802 -17.2371 -1.3537 0.8986
-20.0402 -18.2313 -1.3740 0.8972
-19.6753 -19.2434 -1.3957 0.8956
-19.2843 -20.2747 -1.4190 0.8940
-17.9376 -23.4994 -1.4993 0.8883
-17.4248 -24.6235 -1.5298 0.8862
-16.8765 -25.7753 -1.5624 0.8839
-14.2750 -30.7045 -1.7172 0.8732
-12.6833 -33.3994 -1.8118 0.8667
-10.8534 -36.2825 -1.9206 0.8593
-19.2819 -0.9975 -1.4157 0.9255
-19.2559 -1.6953 -1.4173 0.9254
-19.1617 -3.0938 -1.4232 0.9251
-19.0933 -3.7951 -1.4273 0.9249
-18.9130 -5.2032 -1.4383 0.9243
-18.8007 -5.9107 -1.4450 0.9240
-18.5308 -7.3340 -1.4613 0.9232
-18.3724 -8.0506 -1.4708 0.9227
-18.0070 -9.4952 -1.4926 0.9216
-17.0691 -12.4395 -1.5486 0.9188
-16.7882 -13.1891 -1.5654 0.9179
-16.4875 -13.9448 -1.5833 0.9170
-15.4586 -16.2523 -1.6446 0.9140
-14.6573 -17.8280 -1.6923 0.9116
-14.2193 -18.6283 -1.7183 0.9103
-13.7548 -19.4373 -1.7459 0.9089
-13.2624 -20.2555 -1.7752 0.9075
-12.7407 -21.0832 -1.8062 0.9059
-12.1884 -21.9209 -1.8390 0.9043
-10.9850 -23.6279 -1.9105 0.9008
-8.1300 -27.1783 -2.0800 0.8925
-7.3101 -28.0966 -2.1287 0.8901
-16.4717 0.3392 -1.5817 0.9359
-16.4613 -0.8516 -1.5825 0.9359
-16.3979 -2.0429 -1.5864 0.9358
-16.3461 -2.6392 -1.5896 0.9356
-16.2806 -3.2360 -1.5936 0.9355
-16.1088 -4.4317 -1.6040 0.9351
-16.0020 -5.0308 -1.6104 0.9348
-15.8811 -5.6308 -1.6177 0.9345
-15.5961 -6.8341 -1.6347 0.9339
-15.4314 -7.4376 -1.6446 0.9335
-15.0564 -8.6485 -1.6670 0.9326
-14.8455 -9.2561 -1.6796 0.9321
-13.8360 -11.7022 -1.7397 0.9298
-13.5400 -12.3179 -1.7573 0.9291
-13.2256 -12.9352 -1.7761 0.9284
-12.8921 -13.5543 -1.7959 0.9276
-10.9168 -16.6731 -1.9133 0.9230
-10.4551 -17.3010 -1.9407 0.9220
-9.4585 -18.5598 -1.9999 0.9197
-8.9219 -19.1903 -2.0317 0.9185
-8.3582 -19.8211 -2.0652 0.9172
-7.1459 -21.0824 -2.1371 0.9144
-6.4949 -21.7122 -2.1757 0.9130
-5.8125 -22.3406 -2.2162 0.9114
-14.3624 0.2956 -1.7064 0.9438
-14.3290 -1.2616 -1.7087 0.9437
-14.2928 -1.7807 -1.7109 0.9436
-14.2439 -2.2998 -1.7139 0.9435
-14.1824 -2.8190 -1.7176 0.9434
-14.1081 -3.3381 -1.7221 0.9433
-14.0209 -3.8573 -1.7274 0.9431
-13.8075 -4.8956 -1.7402 0.9427
-13.5410 -5.9336 -1.7561 0.9422
-13.3874 -6.4524 -1.7653 0.9419
-13.2200 -6.9710 -1.7753 0.9416
-13.0386 -7.4894 -1.7861 0.9412
-12.8429 -8.0075 -1.7978 0.9409
-12.6327 -8.5252 -1.8103 0.9405
-12.4077 -9.0424 -1.8237 0.9400
-12.1675 -9.5590 -1.8380 0.9396
-11.6408 -10.5901 -1.8694 0.9386
-10.7292 -12.1290 -1.9236 0.9369
-10.3913 -12.6392 -1.9436 0.9362
-10.0359 -13.1477 -1.9648 0.9355
-8.8590 -14.6597 -2.0346 0.9333
-8.4282 -15.1583 -2.0602 0.9325
-6.4993 -17.1148 -2.1746 0.9289
-5.4035 -18.0635 -2.2396 0.9269
-4.8207 -18.5284 -2.2742 0.9258
-12.7245 0.2619 -1.8033 0.9499
-12.7257 -0.1979 -1.8033 0.9499
-12.4860 -2.9544 -1.8180 0.9495
-12.4043 -3.4128 -1.8229 0.9494
-12.3110 -3.8704 -1.8285 0.9492
-12.2052 -4.3275 -1.8348 0.9490
-12.0873 -4.7839 -1.8419 0.9488
-11.9570 -5.2395 -1.8497 0.9486
-11.6587 -6.1477 -1.8675 0.9481
-11.3092 -7.0512 -1.8883 0.9476
-10.6859 -8.3950 -1.9254 0.9466
-10.4510 -8.8393 -1.9394 0.9462
-9.9391 -9.7209 -1.9699 0.9454
-9.3696 -10.5921 -2.0037 0.9445
-8.7404 -11.4505 -2.0411 0.9435
-8.0495 -12.2939 -2.0821 0.9424
-7.6802 -12.7090 -2.1040 0.9418
-7.2945 -13.1193 -2.1269 0.9412
-6.0371 -14.3166 -2.2015 0.9392
-5.1119 -15.0817 -2.2563 0.9377
-4.1148 -15.8152 -2.3154 0.9361
-11.4144 0.2349 -1.8808 0.9548
-11.4154 -0.1776 -1.8808 0.9548
-11.4056 -0.5900 -1.8815 0.9548
-11.2561 -2.2373 -1.8906 0.9545
-10.9290 -3.8750 -1.9102 0.9541
-10.8190 -4.2819 -1.9168 0.9539
-10.4201 -5.4946 -1.9406 0.9534
-10.2638 -5.8956 -1.9500 0.9531
-10.0958 -6.2947 -1.9600 0.9529
-9.7237 -7.0863 -1.9821 0.9524
-9.5193 -7.4785 -1.9943 0.9521
-9.3027 -7.8680 -2.0072 0.9518
-9.0736 -8.2546 -2.0208 0.9515
-8.3099 -9.3940 -2.0662 0.9504
-8.0293 -9.7662 -2.0828 0.9500
-7.7355 -10.1340 -2.1003 0.9496
-6.4248 -11.5551 -2.1780 0.9478
-5.2951 -12.5571 -2.2450 0.9463
-4.0355 -13.4905 -2.3197 0.9445
-3.5862 -13.7838 -2.3463 0.9439
-10.3416 0.2128 -1.9442 0.9588
-10.3138 -0.9080 -1.9461 0.9587
-10.2438 -1.6539 -1.9504 0.9586
-10.1933 -2.0261 -1.9534 0.9586
-10.1324 -2.3974 -1.9571 0.9585
-10.0612 -2.7679 -1.9614 0.9584
-9.9795 -3.1374 -1.9663 0.9583
-9.7846 -3.8725 -1.9779 0.9581
-9.6713 -4.2379 -1.9847 0.9579
-9.5474 -4.6016 -1.9921 0.9578
-8.9437 -6.0357 -2.0281 0.9570
-8.3763 -7.0832 -2.0618 0.9563
-7.9406 -7.7663 -2.0877 0.9558
-6.9325 -9.0821 -2.1476 0.9546
-6.6512 -9.3991 -2.1643 0.9542
-6.3581 -9.7106 -2.1817 0.9539
-6.0530 -10.0164 -2.1998 0.9535
-5.7358 -10.3160 -2.2186 0.9531
-5.4066 -10.6090 -2.2381 0.9527
-4.7117 -11.1737 -2.2793 0.9518
-4.3460 -11.4444 -2.3010 0.9514
-3.1754 -12.2046 -2.3704 0.9500
-9.4464 0.1944 -1.9972 0.9621
-9.3921 -1.1701 -2.0007 0.9620
-9.3071 -1.8499 -2.0058 0.9619
-9.2500 -2.1887 -2.0092 0.9619
-9.1832 -2.5264 -2.0133 0.9618
-9.1066 -2.8630 -2.0178 0.9617
-9.0203 -3.1982 -2.0230 0.9616
-8.5765 -4.5225 -2.0495 0.9611
-8.1391 -5.4927 -2.0756 0.9607
-7.9731 -5.8106 -2.0854 0.9605
-7.7970 -6.1254 -2.0959 0.9603
-7.6106 -6.4369 -2.1070 0.9601
-6.9899 -7.3489 -2.1439 0.9594
-4.5629 -9.8146 -2.2878 0.9567
-3.9077 -10.2902 -2.3267 0.9560
-2.8465 -10.9404 -2.3896 0.9548
-8.6871 0.1788 -2.0421 0.9649
-8.6797 -0.4490 -2.0427 0.9649
-8.5560 -1.7006 -2.0502 0.9648
-8.5023 -2.0117 -2.0534 0.9647
-8.4396 -2.3218 -2.0572 0.9647
-8.3677 -2.6307 -2.0615 0.9646
-8.2867 -2.9381 -2.0664 0.9645
-8.1965 -3.2440 -2.0717 0.9644
-7.8706 -4.1502 -2.0912 0.9641
-7.7435 -4.4479 -2.0988 0.9640
-7.3063 -5.3246 -2.1248 0.9635
-6.9681 -5.8935 -2.1449 0.9632
-6.7849 -6.1725 -2.1558 0.9630
-6.5924 -6.4476 -2.1672 0.9628
-6.1789 -6.9850 -2.1918 0.9624
-5.7276 -7.5035 -2.2185 0.9620
-5.4878 -7.7549 -2.2328 0.9617
-5.2385 -8.0007 -2.2476 0.9615
-4.9799 -8.2406 -2.2629 0.9612
-2.9091 -9.7249 -2.3857 0.9591
-2.5770 -9.9047 -2.4053 0.9588
-8.0344 0.1654 -2.0807 0.9673
-8.0352 -0.1250 -2.0807 0.9673
-8.0274 -0.4152 -2.0812 0.9673
-7.9528 -1.2841 -2.0858 0.9673
-7.9109 -1.5724 -2.0883 0.9672
-7.4790 -3.2772 -2.1142 0.9668
-7.3769 -3.5554 -2.1203 0.9667
-7.1468 -4.1052 -2.1340 0.9665
-6.8822 -4.6445 -2.1497 0.9663
-6.7369 -4.9097 -2.1584 0.9661
-5.8806 -6.1826 -2.2093 0.9654
-5.6834 -6.4249 -2.2210 0.9652
-5.4776 -6.6624 -2.2332 0.9650
-5.2631 -6.8950 -2.2459 0.9648
-4.8086 -7.3441 -2.2729 0.9644
-4.5686 -7.5601 -2.2871 0.9642
-3.7983 -8.1699 -2.3328 0.9635
-3.5250 -8.3595 -2.3490 0.9632
-3.2436 -8.5415 -2.3656 0.9630
-2.6570 -8.8821 -2.4004 0.9624
-2.3519 -9.0398 -2.4185 0.9621
-7.4669 0.1537 -2.1143 0.9694
-7.4676 -0.1162 -2.1143 0.9694
-7.4603 -0.3859 -2.1148 0.9694
-7.4448 -0.6555 -2.1157 0.9694
-7.3024 -1.7278 -2.1244 0.9693
-7.2466 -1.9937 -2.1277 0.9692
-7.1108 -2.5212 -2.1358 0.9691
-6.9428 -3.0423 -2.1459 0.9690
-6.8466 -3.2999 -2.1516 0.9689
-6.5096 -4.0587 -2.1717 0.9686
-6.2446 -4.5509 -2.1874 0.9684
-6.1000 -4.7922 -2.1960 0.9683
-5.9473 -5.0302 -2.2051 0.9681
-5.6180 -5.4947 -2.2247 0.9679
-5.4414 -5.7209 -2.2351 0.9677
-5.2569 -5.9428 -2.2461 0.9676
-5.0644 -6.1599 -2.2575 0.9674
-4.8640 -6.3722 -2.2694 0.9672
-4.2164 -6.9771 -2.3078 0.9667
-3.9851 -7.1672 -2.3215 0.9665
-3.5001 -7.5284 -2.3503 0.9661
-3.2465 -7.6988 -2.3653 0.9659
-2.9856 -7.8621 -2.3808 0.9656
-2.4427 -8.1660 -2.4130 0.9652
-2.1610 -8.3060 -2.4296 0.9649
-6.9684 0.1434 -2.1438 0.9713
-6.9690 -0.1084 -2.1438 0.9713
-6.9620 -0.3602 -2.1442 0.9712
-6.9474 -0.6117 -2.1451 0.9712
-6.9252 -0.8628 -2.1465 0.9712
-6.8578 -1.3631 -2.1506 0.9712
-6.8127 -1.6120 -2.1533 0.9711
-6.5560 -2.5947 -2.1687 0.9709
-6.3819 -3.0759 -2.1790 0.9708
-6.1775 -3.5484 -2.1912 0.9706
-6.0639 -3.7809 -2.1980 0.9705
-5.9428 -4.0105 -2.2052 0.9704
-5.3833 -4.8974 -2.2384 0.9700
-4.8855 -5.5229 -2.2680 0.9696
-4.7050 -5.7227 -2.2787 0.9695
-4.5171 -5.9178 -2.2898 0.9693
-3.9109 -6.4718 -2.3258 0.9689
-3.4719 -6.8126 -2.3518 0.9685
-3.2422 -6.9737 -2.3655 0.9683
-2.7630 -7.2759 -2.3938 0.9680
-2.5138 -7.4164 -2.4086 0.9678
-1.9968 -7.6749 -2.4392 0.9674
-6.5265 0.1343 -2.1699 0.9729
-6.5205 -0.3373 -2.1703 0.9729
-6.4572 -1.0426 -2.1742 0.9728
-6.4217 -1.2764 -2.1764 0.9728
-6.3789 -1.5093 -2.1789 0.9727
-6.3289 -1.7412 -2.1819 0.9727
-6.2717 -1.9717 -2.1854 0.9727
-6.2073 -2.2008 -2.1892 0.9726
-5.8779 -3.0995 -2.2089 0.9724
-5.7777 -3.3187 -2.2148 0.9723
-5.6703 -3.5354 -2.2212 0.9722
-5.1704 -4.3729 -2.2509 0.9719
-5.0278 -4.5740 -2.2594 0.9718
-4.8784 -4.7713 -2.2683 0.9716
-4.7221 -4.9647 -2.2776 0.9715
-4.5590 -5.1538 -2.2872 0.9714
-4.3891 -5.3386 -2.2973 0.9713
-3.2318 -6.3416 -2.3659 0.9704
-3.0168 -6.4890 -2.3787 0.9703
-2.5688 -6.7645 -2.4052 0.9700
-2.0978 -7.0128 -2.4331 0.9696
-1.8540 -7.1260 -2.4476 0.9694
-6.1324 -0.0954 -2.1933 0.9743
-6.1129 -0.5382 -2.1945 0.9743
-5.9442 -1.6353 -2.2047 0.9742
-5.8288 -2.0666 -2.2116 0.9741
-5.6862 -2.4916 -2.2201 0.9740
-5.6047 -2.7013 -2.2249 0.9739
-5.0965 -3.7142 -2.2552 0.9736
-4.8467 -4.0993 -2.2700 0.9734
-4.7121 -4.2867 -2.2780 0.9733
-4.1091 -4.9980 -2.3138 0.9729
-3.9426 -5.1651 -2.3237 0.9728
-3.5914 -5.4850 -2.3445 0.9725
-3.4067 -5.6374 -2.3555 0.9724
-3.0199 -5.9257 -2.3784 0.9721
-2.6106 -6.1908 -2.4027 0.9719
-2.3977 -6.3141 -2.4153 0.9717
-1.9565 -6.5407 -2.4414 0.9714
-1.7285 -6.6437 -2.4549 0.9713
-5.7774 -0.0899 -2.2143 0.9756
-5.7713 -0.2986 -2.2146 0.9755
-5.7588 -0.5070 -2.2154 0.9755
-5.7397 -0.7151 -2.2166 0.9755
-5.5468 -1.7438 -2.2282 0.9754
-5.4887 -1.9461 -2.2317 0.9754
-5.4241 -2.1468 -2.2355 0.9753
-5.1920 -2.7378 -2.2494 0.9752
-5.1019 -2.9305 -2.2547 0.9751
-5.0054 -3.1208 -2.2605 0.9750
-4.9027 -3.3086 -2.2666 0.9750
-4.6783 -3.6754 -2.2799 0.9748
-4.5569 -3.8541 -2.2871 0.9748
-3.8589 -4.6937 -2.3286 0.9743
-3.3699 -5.1469 -2.3576 0.9740
-3.0162 -5.4246 -2.3785 0.9738
-2.6411 -5.6808 -2.4008 0.9735
-2.4459 -5.8003 -2.4123 0.9734
-2.0408 -6.0211 -2.4363 0.9731
-1.6173 -6.2161 -2.4614 0.9729
-5.4555 0.1122 -2.2333 0.9767
-5.4560 -0.0849 -2.2333 0.9767
-5.4202 -0.6753 -2.2355 0.9767
-5.3958 -0.8712 -2.2370 0.9767
-5.3285 -1.2608 -2.2410 0.9766
-5.2855 -1.4541 -2.2436 0.9766
-5.1197 -2.0263 -2.2535 0.9765
-5.0522 -2.2138 -2.2575 0.9764
-4.9786 -2.3995 -2.2619 0.9764
-4.8989 -2.5832 -2.2667 0.9763
-4.8132 -2.7647 -2.2718 0.9763
-4.6238 -3.1204 -2.2830 0.9762
-4.4108 -3.4652 -2.2957 0.9760
-4.2955 -3.6331 -2.3025 0.9760
-4.1745 -3.7977 -2.3097 0.9759
-3.9153 -4.1164 -2.3251 0.9757
-3.6338 -4.4199 -2.3418 0.9756
-3.4848 -4.5654 -2.3507 0.9755
-3.3306 -4.7066 -2.3598 0.9754
-3.1711 -4.8431 -2.3693 0.9753
-2.8367 -5.1018 -2.3891 0.9751
-2.6620 -5.2235 -2.3994 0.9750
-1.9166 -5.6546 -2.4436 0.9745
-1.5179 -5.8341 -2.4672 0.9743
-5.1579 -0.2668 -2.2509 0.9777
-5.0008 -1.3758 -2.2604 0.9776
-4.9540 -1.5575 -2.2632 0.9776
-4.9013 -1.7378 -2.2664 0.9776
-4.7785 -2.0939 -2.2737 0.9775
-4.7084 -2.2693 -2.2779 0.9775
-4.1680 -3.2745 -2.3100 0.9771
-3.9434 -3.5874 -2.3234 0.9770
-3.6972 -3.8871 -2.3380 0.9769
-3.4300 -4.1720 -2.3538 0.9767
-3.2887 -4.3085 -2.3622 0.9766
-2.8353 -4.6918 -2.3891 0.9764
-2.6746 -4.8102 -2.3986 0.9763
-2.5092 -4.9237 -2.4084 0.9762
-2.3395 -5.0321 -2.4185 0.9761
-2.1654 -5.1351 -2.4288 0.9760
-1.9871 -5.2326 -2.4394 0.9759
-1.8047 -5.3245 -2.4502 0.9758
-1.6185 -5.4105 -2.4612 0.9757
-4.8952 0.1007 -2.2664 0.9786
-4.8957 -0.0762 -2.2664 0.9786
-4.8904 -0.2530 -2.2667 0.9786
-4.8408 -0.7816 -2.2698 0.9786
-4.7795 -1.1309 -2.2735 0.9786
-4.6455 -1.6471 -2.2815 0.9785
-4.4614 -2.1503 -2.2925 0.9784
-4.3112 -2.4764 -2.3014 0.9783
-3.3738 -3.8141 -2.3571 0.9778
-3.2444 -3.9463 -2.3648 0.9777
-3.1102 -4.0746 -2.3727 0.9777
-2.6797 -4.4343 -2.3983 0.9774
-2.2097 -4.7528 -2.4261 0.9772
-1.7033 -5.0253 -2.4561 0.9769
-1.5271 -5.1051 -2.4666 0.9768
-1.3475 -5.1792 -2.4772 0.9767
-4.6445 -0.2403 -2.2813 0.9795
-4.6341 -0.4080 -2.2819 0.9795
-4.6183 -0.5754 -2.2829 0.9795
-4.5385 -1.0739 -2.2877 0.9794
-4.5011 -1.2383 -2.2899 0.9794
-4.4584 -1.4017 -2.2925 0.9794
-4.4104 -1.5638 -2.2954 0.9794
-4.2985 -1.8836 -2.3021 0.9793
-4.2346 -2.0410 -2.3059 0.9793
-4.1656 -2.1965 -2.3100 0.9792
-4.0913 -2.3501 -2.3144 0.9792
-3.9274 -2.6504 -2.3241 0.9791
-3.8379 -2.7970 -2.3295 0.9791
-3.4304 -3.3550 -2.3537 0.9788
-3.3164 -3.4867 -2.3604 0.9788
-3.0746 -3.7397 -2.3748 0.9787
-2.8147 -3.9776 -2.3902 0.9785
-2.3927 -4.3033 -2.4152 0.9783
-2.2438 -4.4029 -2.4240 0.9782
-1.7745 -4.6728 -2.4518 0.9780
-1.4439 -4.8270 -2.4714 0.9778
-1.2738 -4.8959 -2.4815 0.9777
-4.4217 0.0910 -2.2944 0.9803
-4.4222 -0.0688 -2.2944 0.9803
-4.4174 -0.2285 -2.2947 0.9803
-4.3923 -0.5472 -2.2963 0.9803
-4.3720 -0.7059 -2.2975 0.9802
-4.3466 -0.8639 -2.2990 0.9802
-4.3160 -1.0212 -2.3009 0.9802
-4.2802 -1.1775 -2.3030 0.9802
-4.1425 -1.6395 -2.3112 0.9801
-4.0864 -1.7907 -2.3146 0.9801
-4.0254 -1.9402 -2.3182 0.9801
-3.7320 -2.5185 -2.3357 0.9799
-3.5562 -2.7938 -2.3461 0.9798
-3.4612 -2.9275 -2.3518 0.9798
-3.3617 -3.0583 -2.3577 0.9797
-3.2575 -3.1860 -2.3639 0.9797
-3.1489 -3.3106 -2.3703 0.9796
-3.0358 -3.4319 -2.3770 0.9796
-2.9184 -3.5497 -2.3840 0.9795
-2.7967 -3.6639 -2.3912 0.9794
-2.6708 -3.7742 -2.3987 0.9794
-2.2692 -4.0811 -2.4225 0.9792
-1.8337 -4.3485 -2.4483 0.9790
-4.2110 0.0867 -2.3069 0.9810
-4.2114 -0.0655 -2.3069 0.9810
-4.1828 -0.5211 -2.3086 0.9810
-4.1633 -0.6722 -2.3098 0.9810
-4.0364 -1.2690 -2.3174 0.9809
-3.8900 -1.7046 -2.3262 0.9808
-3.8316 -1.8468 -2.3297 0.9808
-3.7685 -1.9872 -2.3334 0.9808
-3.6282 -2.2621 -2.3418 0.9807
-3.5510 -2.3964 -2.3464 0.9807
-3.4693 -2.5283 -2.3512 0.9806
-3.1972 -2.9087 -2.3674 0.9805
-3.0978 -3.0298 -2.3733 0.9804
-2.7741 -3.3742 -2.3925 0.9803
-2.6580 -3.4822 -2.3994 0.9802
-2.2865 -3.7838 -2.4214 0.9800
-2.1552 -3.8763 -2.4292 0.9800
-2.0204 -3.9646 -2.4372 0.9799
-1.5960 -4.2029 -2.4623 0.9797
-1.4483 -4.2729 -2.4711 0.9796
-1.2977 -4.3380 -2.4800 0.9796
-4.0152 -0.0624 -2.3185 0.9816
-4.0017 -0.3523 -2.3193 0.9816
-3.8850 -1.0688 -2.3264 0.9816
-3.7587 -1.4876 -2.3339 0.9815
-3.7074 -1.6246 -2.3370 0.9815
-3.6515 -1.7599 -2.3403 0.9815
-3.4567 -2.1552 -2.3519 0.9814
-3.1355 -2.6520 -2.3710 0.9812
-2.8504 -2.9969 -2.3879 0.9811
-2.6404 -3.2115 -2.4004 0.9810
-2.5296 -3.3138 -2.4069 0.9809
-2.2968 -3.5078 -2.4207 0.9808
-2.1750 -3.5992 -2.4280 0.9808
-1.9213 -3.7700 -2.4430 0.9806
-1.6547 -3.9241 -2.4588 0.9805
-1.5169 -3.9946 -2.4670 0.9805
-1.2329 -4.1216 -2.4838 0.9803
-1.0870 -4.1779 -2.4924 0.9803
