ply
format ascii 1.0
element vertex 312
property float32 x
property float32 y
property float32 z
property float32 I
end_header
-24.7089 -29.9548 -1.0934 0.8561
-24.2106 -31.5678 -1.1202 0.8528
-23.6722 -33.2441 -1.1492 0.8493
-23.1547 -41.1655 -1.3299 0.8278
-22.3691 -43.2941 -1.3722 0.8228
-21.7394 -17.1612 -1.4046 0.8950
-21.0268 -19.1680 -1.4429 0.8923
-20.6325 -20.1940 -1.4641 0.8908
-19.7615 -22.2966 -1.5110 0.8875
-19.2818 -23.3755 -1.5367 0.8857
-18.2255 -25.5950 -1.5935 0.8818
-14.1238 -32.8587 -1.8138 0.8665
-12.3699 -35.5313 -1.9080 0.8601
-11.4039 -36.9249 -1.9599 0.8566
-9.2700 -39.8412 -2.0745 0.8489
-8.0908 -41.3699 -2.1378 0.8447
-5.4756 -44.5874 -2.2782 0.8353
-2.4647 -48.0466 -2.4398 0.8247
0.9592 -48.7122 -2.4709 0.8227
-17.4799 -13.7987 -1.6329 0.9146
-16.8170 -15.3304 -1.6685 0.9128
-16.4532 -16.1036 -1.6881 0.9118
-16.0669 -16.8820 -1.7088 0.9108
-15.2232 -18.4553 -1.7541 0.9085
-14.7640 -19.2505 -1.7788 0.9073
-13.7652 -20.8592 -1.8325 0.9046
-13.2235 -21.6729 -1.8615 0.9032
-12.6519 -22.4932 -1.8922 0.9017
-12.0489 -23.3200 -1.9246 0.9001
-10.0372 -25.8409 -2.0326 0.8948
-9.2936 -26.6949 -2.0726 0.8928
-7.6854 -28.4231 -2.1589 0.8886
-2.8564 -32.8548 -2.4181 0.8761
-1.7317 -33.7578 -2.4784 0.8732
-0.5471 -34.6648 -2.5420 0.8702
-13.6743 -13.3837 -1.8370 0.9260
-13.3255 -14.0015 -1.8557 0.9253
-12.9572 -14.6195 -1.8755 0.9245
-10.8026 -17.7051 -1.9912 0.9200
-9.2353 -19.5446 -2.0753 0.9168
-8.6629 -20.1539 -2.1061 0.9156
-8.0639 -20.7606 -2.1382 0.9144
-7.4378 -21.3642 -2.1718 0.9131
-6.0999 -22.5597 -2.2436 0.9104
-5.3865 -23.1503 -2.2819 0.9089
-1.3337 -25.9998 -2.4994 0.9007
-11.9897 -10.9299 -1.9272 0.9367
-11.0445 -12.4613 -1.9779 0.9351
-10.6959 -12.9667 -1.9967 0.9345
-9.9464 -13.9682 -2.0369 0.9333
-9.5448 -14.4637 -2.0585 0.9326
-8.6859 -15.4422 -2.1046 0.9311
-8.2278 -15.9245 -2.1292 0.9303
-7.7501 -16.4014 -2.1548 0.9295
-6.7342 -17.3374 -2.2093 0.9278
-5.6349 -18.2457 -2.2683 0.9260
-1.0836 -21.1242 -2.5126 0.9183
-0.3391 -21.4856 -2.5525 0.9171
-10.9763 -8.6647 -1.9814 0.9451
-10.4750 -9.5490 -2.0083 0.9443
-10.2033 -9.9865 -2.0229 0.9440
-9.9175 -10.4206 -2.0383 0.9435
-9.6172 -10.8509 -2.0544 0.9431
-9.3022 -11.2772 -2.0713 0.9427
-8.9725 -11.6991 -2.0890 0.9422
-8.2677 -12.5286 -2.1269 0.9412
-7.8923 -12.9353 -2.1470 0.9406
-5.7766 -14.8719 -2.2606 0.9376
-5.3046 -15.2364 -2.2859 0.9369
-3.7864 -16.2735 -2.3674 0.9347
-2.1138 -17.2123 -2.4571 0.9323
-1.5214 -17.4999 -2.4889 0.9315
-0.9117 -17.7734 -2.5216 0.9306
0.3385 -17.1893 -2.4360 0.9329
-9.7529 -7.6990 -2.0470 0.9509
-9.5293 -8.0872 -2.0590 0.9506
-9.2934 -8.4719 -2.0717 0.9503
-9.0449 -8.8528 -2.0850 0.9500
-8.7840 -9.2296 -2.0990 0.9497
-8.5103 -9.6020 -2.1137 0.9493
-8.2238 -9.9698 -2.1291 0.9490
-7.9245 -10.3326 -2.1452 0.9486
-7.6121 -10.6901 -2.1619 0.9482
-5.4594 -12.7011 -2.2775 0.9455
-4.6338 -13.3101 -2.3218 0.9445
-4.2005 -13.6009 -2.3450 0.9439
-3.7535 -13.8819 -2.3690 0.9434
-2.8186 -14.4119 -2.4192 0.9422
-1.3143 -15.1178 -2.4999 0.9403
-0.7862 -15.3267 -2.5282 0.9397
-0.2449 -15.5212 -2.5573 0.9390
0.2908 -14.7680 -2.4333 0.9419
-8.5622 -7.2664 -2.1108 0.9553
-7.6261 -8.6044 -2.1611 0.9543
-6.8050 -9.5567 -2.2052 0.9534
-6.5085 -9.8627 -2.2211 0.9530
-6.2005 -10.1624 -2.2376 0.9527
-5.8809 -10.4554 -2.2548 0.9523
-5.2072 -11.0199 -2.2909 0.9516
-4.8530 -11.2905 -2.3099 0.9512
-4.4874 -11.5529 -2.3295 0.9508
-3.3218 -12.2854 -2.3921 0.9495
-2.4884 -12.7234 -2.4368 0.9486
-2.0550 -12.9258 -2.4601 0.9481
-1.6108 -13.1164 -2.4839 0.9476
-0.2148 -13.6117 -2.5588 0.9461
-7.9580 -6.2821 -2.1432 0.9594
-7.7672 -6.5918 -2.1534 0.9592
-7.5663 -6.8975 -2.1642 0.9590
-7.3552 -7.1990 -2.1755 0.9588
-7.1340 -7.4961 -2.1874 0.9586
-6.6612 -8.0755 -2.2128 0.9581
-6.1477 -8.6336 -2.2404 0.9576
-5.8757 -8.9038 -2.2550 0.9573
-5.3013 -9.4250 -2.2858 0.9568
-4.9990 -9.6753 -2.3020 0.9565
-4.6866 -9.9182 -2.3188 0.9561
-4.3642 -10.1533 -2.3361 0.9558
-2.6056 -11.1988 -2.4304 0.9541
-2.2254 -11.3789 -2.4508 0.9537
-1.4376 -11.7065 -2.4931 0.9529
-1.0305 -11.8530 -2.5149 0.9525
-0.1911 -12.1093 -2.5600 0.9517
-7.2790 -5.7461 -2.1795 0.9626
-7.1016 -6.0269 -2.1891 0.9625
-5.6015 -7.8664 -2.2696 0.9611
-5.3505 -8.1079 -2.2831 0.9609
-4.8216 -8.5721 -2.3115 0.9604
-4.2569 -9.0089 -2.3418 0.9599
-3.6572 -9.4156 -2.3740 0.9593
-3.0234 -9.7894 -2.4080 0.9588
-2.6939 -9.9631 -2.4257 0.9585
-2.3563 -10.1274 -2.4438 0.9582
-2.0109 -10.2820 -2.4623 0.9579
-1.2969 -10.5605 -2.5006 0.9572
-6.7011 -5.2899 -2.2105 0.9653
-6.3614 -5.7991 -2.2288 0.9651
-6.1788 -6.0475 -2.2386 0.9649
-5.9877 -6.2915 -2.2488 0.9647
-5.7883 -6.5309 -2.2595 0.9646
-5.5805 -6.7653 -2.2707 0.9644
-5.3643 -6.9945 -2.2823 0.9642
-4.1607 -8.0529 -2.3469 0.9632
-3.6234 -8.4298 -2.3757 0.9628
-3.3432 -8.6072 -2.3908 0.9626
-3.0555 -8.7766 -2.4062 0.9623
-1.8324 -9.3692 -2.4718 0.9613
-0.8446 -9.7147 -2.5248 0.9605
-0.5031 -9.8092 -2.5431 0.9602
-6.2029 -4.8966 -2.2372 0.9677
-5.8848 -5.3646 -2.2543 0.9674
-4.9535 -6.4588 -2.3043 0.9667
-3.8338 -7.4201 -2.3644 0.9659
-3.0760 -7.9192 -2.4051 0.9653
-2.2579 -8.3508 -2.4489 0.9647
-1.9726 -8.4783 -2.4643 0.9645
-1.6813 -8.5971 -2.4799 0.9642
-1.0816 -8.8074 -2.5121 0.9638
-0.7736 -8.8984 -2.5286 0.9635
-0.4606 -8.9795 -2.5454 0.9633
-0.1428 -9.0504 -2.5624 0.9631
0.1688 -8.5696 -2.4265 0.9650
-5.7685 -4.5537 -2.2605 0.9697
-5.6228 -4.7719 -2.2683 0.9696
-5.4698 -4.9863 -2.2765 0.9695
-5.3095 -5.1967 -2.2851 0.9694
-5.1421 -5.4029 -2.2941 0.9693
-4.9674 -5.6047 -2.3035 0.9691
-4.5970 -5.9940 -2.3234 0.9689
-4.1988 -6.3627 -2.3448 0.9686
-3.9896 -6.5388 -2.3560 0.9685
-3.5512 -6.8731 -2.3795 0.9681
-2.8456 -7.3261 -2.4174 0.9676
-2.5982 -7.4632 -2.4307 0.9675
-2.3450 -7.5929 -2.4442 0.9673
-2.0860 -7.7148 -2.4581 0.9671
-1.8216 -7.8289 -2.4723 0.9669
-1.5518 -7.9348 -2.4868 0.9667
-1.2770 -8.0321 -2.5015 0.9665
-0.7129 -8.2004 -2.5318 0.9661
-0.4243 -8.2709 -2.5473 0.9659
-0.1315 -8.3318 -2.5630 0.9657
0.1553 -7.8850 -2.4257 0.9675
-5.3861 -4.2518 -2.2810 0.9715
-5.1047 -4.6535 -2.2961 0.9713
-4.7963 -5.0397 -2.3127 0.9711
-4.2843 -5.5862 -2.3401 0.9708
-3.0900 -6.5395 -2.4042 0.9700
-2.6448 -6.8091 -2.4281 0.9697
-2.1778 -7.0514 -2.4532 0.9694
-1.9365 -7.1619 -2.4661 0.9692
-1.4393 -7.3598 -2.4928 0.9689
-0.9242 -7.5259 -2.5204 0.9685
-0.3928 -7.6581 -2.5489 0.9682
-0.1217 -7.7109 -2.5635 0.9680
-5.0464 -3.9837 -2.2992 0.9731
-4.9168 -4.1728 -2.3061 0.9730
-4.7809 -4.3582 -2.3134 0.9729
-4.1744 -5.0607 -2.3460 0.9725
-4.0076 -5.2255 -2.3550 0.9724
-3.8348 -5.3854 -2.3642 0.9723
-3.4718 -5.6902 -2.3837 0.9721
-3.0863 -5.9734 -2.4044 0.9718
-2.6792 -6.2332 -2.4262 0.9716
-2.4680 -6.3539 -2.4376 0.9715
-2.2518 -6.4680 -2.4492 0.9713
-1.5750 -6.7695 -2.4855 0.9709
-1.3408 -6.8556 -2.4981 0.9708
-0.3653 -7.1224 -2.5504 0.9702
-0.1131 -7.1687 -2.5639 0.9700
-4.7425 -3.7438 -2.3155 0.9744
-4.6199 -3.9208 -2.3221 0.9744
-4.4913 -4.0943 -2.3290 0.9743
-4.3567 -4.2641 -2.3362 0.9742
-3.9182 -4.7501 -2.3597 0.9740
-3.4293 -5.1966 -2.3860 0.9737
-3.2555 -5.3357 -2.3953 0.9736
-2.7034 -5.7212 -2.4249 0.9733
-2.5096 -5.8384 -2.4353 0.9731
-2.1079 -6.0547 -2.4569 0.9729
-1.6887 -6.2456 -2.4794 0.9727
-1.4730 -6.3309 -2.4909 0.9725
-1.2535 -6.4094 -2.5027 0.9724
-0.8037 -6.5446 -2.5268 0.9721
-0.3411 -6.6498 -2.5517 0.9719
0.1245 -6.3242 -2.4240 0.9733
-4.4688 -3.5277 -2.3301 0.9757
-4.3525 -3.6938 -2.3364 0.9756
-4.2305 -3.8566 -2.3429 0.9756
-4.1031 -4.0159 -2.3498 0.9755
-3.8317 -4.3232 -2.3643 0.9753
-3.0615 -5.0177 -2.4057 0.9749
-2.7187 -5.2620 -2.4241 0.9747
-2.3576 -5.4850 -2.4435 0.9745
-1.9792 -5.6851 -2.4638 0.9743
-1.7839 -5.7762 -2.4742 0.9742
-1.5847 -5.8611 -2.4849 0.9741
-1.3819 -5.9395 -2.4958 0.9740
-1.1756 -6.0113 -2.5069 0.9739
-0.7533 -6.1344 -2.5295 0.9736
-0.5378 -6.1854 -2.5411 0.9735
-0.0989 -6.2655 -2.5646 0.9733
0.1166 -5.9204 -2.4236 0.9747
-4.2205 -3.3317 -2.3434 0.9768
-3.3384 -4.3530 -2.3908 0.9763
-3.0416 -4.6092 -2.4067 0.9762
-2.2206 -5.1664 -2.4508 0.9758
-2.0439 -5.2622 -2.4603 0.9757
-1.3000 -5.5875 -2.5002 0.9753
-0.5053 -5.8126 -2.5428 0.9749
-0.0928 -5.8846 -2.5649 0.9746
0.1095 -5.5589 -2.4232 0.9760
-3.8893 -3.3007 -2.3612 0.9778
-3.5443 -3.7241 -2.3797 0.9776
-3.2901 -3.9887 -2.3934 0.9775
-3.1561 -4.1152 -2.4006 0.9774
-3.0175 -4.2376 -2.4080 0.9773
-2.2600 -4.7829 -2.4487 0.9770
-2.0965 -4.8775 -2.4574 0.9769
-1.4065 -5.2021 -2.4944 0.9765
-1.2260 -5.2691 -2.5041 0.9764
-0.6673 -5.4338 -2.5341 0.9762
-0.0875 -5.5411 -2.5652 0.9759
0.1031 -5.2331 -2.4228 0.9772
-3.5821 -3.2655 -2.3777 0.9786
-3.4727 -3.3989 -2.3836 0.9786
-3.3585 -3.5289 -2.3897 0.9785
-2.9893 -3.8978 -2.4095 0.9784
-2.7217 -4.1243 -2.4239 0.9782
-2.5817 -4.2313 -2.4314 0.9782
-2.4377 -4.3339 -2.4391 0.9781
-0.9849 -5.0360 -2.5171 0.9774
-0.8087 -5.0867 -2.5265 0.9773
-0.4495 -5.1704 -2.5458 0.9771
-0.2669 -5.2030 -2.5556 0.9771
-0.0826 -5.2294 -2.5655 0.9770
0.0973 -4.9376 -2.4225 0.9782
-3.5008 -2.9710 -2.3820 0.9795
-2.5814 -3.9118 -2.4314 0.9791
-2.0268 -4.2893 -2.4611 0.9788
-1.7288 -4.4509 -2.4771 0.9787
-0.9322 -4.7670 -2.5199 0.9783
-0.7654 -4.8141 -2.5288 0.9783
-0.4252 -4.8913 -2.5471 0.9781
-0.2524 -4.9211 -2.5563 0.9780
0.0920 -4.6680 -2.4222 0.9792
-3.3287 -2.8250 -2.3912 0.9803
-3.1338 -3.0672 -2.4017 0.9802
-3.0300 -3.1838 -2.4073 0.9802
-2.9223 -3.2971 -2.4131 0.9801
-2.6947 -3.5137 -2.4253 0.9800
-2.4520 -3.7157 -2.4383 0.9799
-2.1948 -3.9021 -2.4521 0.9798
-2.0611 -3.9892 -2.4593 0.9797
-1.7838 -4.1502 -2.4742 0.9796
-1.1941 -4.4165 -2.5058 0.9794
-1.0402 -4.4708 -2.5141 0.9793
-0.7255 -4.5637 -2.5309 0.9791
-0.5651 -4.6021 -2.5395 0.9791
-0.0739 -4.6842 -2.5659 0.9789
-3.2562 -2.5704 -2.3951 0.9810
-3.1691 -2.6895 -2.3998 0.9810
-3.0780 -2.8059 -2.4047 0.9809
-2.6742 -3.2420 -2.4264 0.9808
-2.4498 -3.4404 -2.4384 0.9807
-1.9596 -3.7927 -2.4647 0.9805
-1.8290 -3.8708 -2.4717 0.9804
-1.6955 -3.9446 -2.4789 0.9804
-1.4200 -4.0790 -2.4937 0.9802
-1.2784 -4.1394 -2.5013 0.9802
-0.8394 -4.2918 -2.5248 0.9800
-0.2270 -4.4242 -2.5577 0.9797
