ply
format ascii 1.0
element vertex 647
property float32 x
property float32 y
property float32 z
property float32 I
end_header
7.2800 -48.4483 8.6387 0.8196
8.5163 -45.3976 8.1445 0.8289
10.6810 -47.3799 8.5640 0.8210
10.6666 -40.4192 7.3710 0.8438
7.8073 -25.7574 4.7458 0.8964
8.1285 -17.2901 3.3688 0.9253
8.2078 -12.4024 2.6224 0.9414
8.2229 -11.4960 2.4922 0.9442
9.4449 -11.3627 2.6053 0.9418
11.8133 -11.4193 2.8971 0.9354
11.9212 -10.7147 2.8263 0.9370
7.4283 -3.5137 1.4489 0.9672
8.6043 -2.6303 1.5865 0.9641
23.3054 -3.5585 4.1570 0.9087
7.8087 -25.7622 4.1239 0.8968
8.0038 -23.3220 3.7773 0.9050
7.9899 -20.7918 3.4123 0.9138
7.7845 -18.2505 3.0396 0.9228
8.1061 -17.2425 2.9188 0.9258
8.7554 -11.3467 2.1956 0.9437
13.7276 -11.4658 2.7400 0.9302
7.4044 -4.1847 1.3029 0.9662
7.4114 -3.8408 1.2788 0.9668
7.4383 -2.5725 1.2057 0.9687
7.2734 -48.4041 6.3740 0.8208
7.9779 -35.3895 4.7241 0.8639
7.3776 -24.3401 3.3120 0.9025
7.9756 -23.2397 3.1995 0.9056
8.1104 -15.7415 2.3059 0.9311
8.1150 -14.4384 2.1568 0.9354
8.1542 -13.3498 2.0371 0.9388
8.1231 -12.2744 1.9167 0.9424
8.1896 -11.4494 1.8331 0.9448
8.7559 -11.3473 1.8664 0.9438
10.9679 -11.4003 2.0600 0.9382
11.8147 -11.4206 2.1398 0.9359
7.4085 -3.5044 1.0672 0.9675
3.1706 -1.2271 0.4427 0.9864
8.4329 -2.5779 1.1483 0.9651
24.1275 -3.6840 3.1783 0.9062
10.3809 -34.2483 3.8429 0.8659
7.9477 -23.1584 2.6292 0.9062
7.9925 -20.7984 2.3926 0.9143
7.9957 -18.7456 2.1884 0.9213
8.0899 -15.7017 1.8967 0.9314
8.1474 -14.4962 1.7856 0.9353
8.0815 -13.2308 1.6648 0.9395
8.1235 -12.2750 1.5806 0.9425
8.7563 -11.3478 1.5391 0.9440
13.7293 -11.4672 1.9209 0.9306
7.3841 -4.1732 0.9108 0.9665
3.1683 -1.2261 0.3648 0.9864
7.4195 -2.5660 0.8430 0.9689
8.4383 -2.5796 0.9475 0.9651
6.8892 -45.8477 3.9247 0.8302
8.9047 -33.7429 2.9542 0.8693
7.9012 -23.0230 2.0605 0.9069
7.9960 -18.7464 1.7253 0.9214
8.0404 -17.1028 1.5998 0.9269
8.0696 -15.6624 1.4915 0.9317
8.1283 -14.4621 1.4044 0.9356
8.0636 -13.2015 1.3095 0.9398
8.1568 -11.4036 1.1869 0.9453
9.5152 -11.4473 1.2601 0.9420
10.9691 -11.4016 1.3393 0.9385
11.8160 -11.4219 1.3912 0.9362
12.6871 -11.4032 1.4441 0.9338
7.3891 -3.4952 0.6920 0.9677
3.0774 -1.3213 0.2835 0.9866
7.4102 -2.5628 0.6637 0.9690
8.4437 -2.5812 0.7474 0.9652
7.6610 -33.9837 2.1602 0.8697
6.8928 -26.1188 1.6751 0.8974
7.6466 -25.2272 1.6346 0.8997
7.8727 -20.4867 1.3609 0.9158
7.9836 -18.7173 1.2619 0.9217
8.0190 -17.0572 1.1688 0.9272
8.0056 -14.2438 1.0132 0.9366
8.0458 -13.1724 0.9571 0.9400
8.1214 -12.2719 0.9125 0.9427
10.1825 -11.3832 0.9471 0.9406
11.8167 -11.4226 1.0191 0.9363
7.3720 -3.8203 0.5149 0.9673
7.3795 -3.4906 0.5062 0.9678
3.0738 -1.3197 0.2074 0.9867
7.4009 -2.5596 0.4856 0.9691
26.3642 -4.0255 1.6538 0.8986
7.6235 -33.8174 1.3669 0.8704
6.8633 -26.0072 1.0606 0.8979
7.6480 -25.2317 1.0396 0.8998
7.8131 -22.7663 0.9491 0.9081
7.9608 -18.6637 0.8001 0.9220
7.9977 -17.0119 0.7412 0.9275
8.0296 -15.5848 0.6913 0.9322
8.0576 -14.3363 0.6485 0.9363
8.7576 -11.3495 0.5653 0.9442
9.4477 -11.3661 0.5828 0.9426
10.9703 -11.4028 0.6239 0.9386
11.8174 -11.4232 0.6481 0.9363
13.7318 -11.4693 0.7055 0.9309
7.3622 -3.8153 0.3270 0.9674
3.1611 -1.2234 0.1337 0.9865
7.4014 -2.5597 0.3088 0.9691
8.4544 -2.5845 0.3486 0.9652
7.1968 -47.8944 0.8181 0.8239
7.4455 -39.6898 0.6821 0.8508
7.6006 -33.7154 0.5838 0.8709
7.8929 -20.5394 0.3717 0.9157
7.9766 -16.9669 0.3167 0.9277
7.9362 -15.4034 0.2927 0.9330
8.1086 -11.3363 0.2354 0.9458
9.4482 -11.3667 0.2497 0.9426
10.1836 -11.3844 0.2580 0.9407
10.9709 -11.4034 0.2673 0.9387
12.7347 -11.4459 0.2892 0.9338
7.3526 -3.8103 0.1399 0.9674
3.1588 -1.2225 0.0572 0.9865
25.8115 -3.9411 0.4411 0.9008
5.9679 -39.7164 -0.2261 0.8516
7.4034 -39.4654 -0.2261 0.8516
7.6008 -33.7167 -0.1946 0.8709
7.8686 -20.4760 -0.1235 0.9160
7.9155 -18.5576 -0.1136 0.9225
7.9555 -16.9222 -0.1053 0.9279
7.8660 -12.8779 -0.0850 0.9414
8.7584 -11.3506 -0.0807 0.9443
10.1841 -11.3850 -0.0860 0.9407
10.9714 -11.4040 -0.0891 0.9387
11.8187 -11.4245 -0.0925 0.9364
13.7334 -11.4707 -0.1007 0.9309
7.3346 -4.1453 -0.0474 0.9669
7.3429 -3.8053 -0.0466 0.9675
3.1564 -1.2215 -0.0191 0.9866
7.4097 -2.5626 -0.0441 0.9691
6.3013 -23.8777 -0.6954 0.9059
2.5242 -6.5685 -0.1981 0.9722
2.5238 -5.9168 -0.1811 0.9746
7.9706 -15.4701 -0.4900 0.9327
8.0546 -12.1709 -0.4110 0.9433
11.8193 -11.4251 -0.4629 0.9363
13.7343 -11.4714 -0.5039 0.9309
3.0835 -1.4586 -0.0960 0.9864
3.0596 -1.3136 -0.0938 0.9868
3.1541 -1.2207 -0.0952 0.9866
7.4138 -2.5640 -0.2209 0.9691
8.4704 -2.5894 -0.2494 0.9652
25.7502 -3.9318 -0.7335 0.9010
5.9886 -39.8538 -2.0438 0.8509
7.3046 -38.9385 -2.0092 0.8533
5.9646 -26.4587 -1.3755 0.8971
6.3015 -23.8786 -1.2524 0.9058
2.5158 -6.5466 -0.3557 0.9723
2.5161 -5.8988 -0.3252 0.9746
2.5163 -5.3524 -0.2999 0.9766
2.5165 -4.8843 -0.2787 0.9782
2.5169 -3.8031 -0.2313 0.9819
2.5170 -3.2619 -0.2089 0.9836
9.2057 -8.2741 -0.6277 0.9516
9.9257 -8.2903 -0.6559 0.9495
12.5518 -8.3496 -0.7645 0.9414
13.6580 -8.3871 -0.8128 0.9378
3.0560 -1.3121 -0.1687 0.9868
3.1517 -1.2197 -0.1714 0.9866
8.4758 -2.5910 -0.4495 0.9651
6.3195 -33.6872 -2.5131 0.8716
6.2729 -23.7704 -1.8026 0.9061
2.5045 -8.2625 -0.6330 0.9660
2.5061 -7.3023 -0.5661 0.9695
2.5074 -6.5248 -0.5125 0.9724
2.5100 -4.8715 -0.4018 0.9783
2.5111 -4.1109 -0.3532 0.9809
2.5118 -3.5115 -0.3166 0.9828
2.5060 -2.8015 -0.2756 0.9850
2.5059 -2.4223 -0.2555 0.9861
2.5058 -2.2522 -0.2470 0.9866
2.5057 -2.0929 -0.2394 0.9870
2.5054 -1.6666 -0.2206 0.9880
2.5053 -1.5384 -0.2156 0.9883
2.5048 -1.1848 -0.2032 0.9889
2.5046 -1.0754 -0.1999 0.9891
2.5043 -0.8661 -0.1943 0.9894
2.5041 -0.7655 -0.1920 0.9896
2.5040 -0.6671 -0.1900 0.9897
2.5031 -0.2897 -0.1848 0.9899
2.5026 -0.1068 -0.1837 0.9900
2.5023 -0.0159 -0.1835 0.9900
2.5020 0.0749 -0.1835 0.9900
2.5018 0.1659 -0.1838 0.9900
4.0571 -27.0003 -2.6213 0.8961
5.1429 -27.4156 -2.6779 0.8940
5.6880 -25.2313 -2.4831 0.9013
5.4651 -20.7094 -2.0563 0.9175
2.4942 -8.2285 -0.8255 0.9660
2.4990 -6.5030 -0.6688 0.9724
2.5008 -5.8629 -0.6119 0.9747
2.5034 -4.8588 -0.5247 0.9783
2.5044 -4.4558 -0.4907 0.9797
2.5053 -4.1015 -0.4614 0.9809
2.5060 -3.7866 -0.4359 0.9819
2.5071 -3.2491 -0.3940 0.9836
2.5016 -2.7966 -0.3602 0.9850
2.5018 -2.4184 -0.3341 0.9861
2.5019 -2.2487 -0.3230 0.9866
2.5019 -2.0897 -0.3130 0.9870
2.5019 -1.9401 -0.3039 0.9874
2.5019 -1.6643 -0.2885 0.9880
2.5017 -1.2965 -0.2705 0.9887
2.5016 -1.1833 -0.2657 0.9889
2.5015 -1.0740 -0.2614 0.9891
2.5014 -0.9681 -0.2575 0.9893
2.5009 -0.6663 -0.2485 0.9897
2.5008 -0.5700 -0.2462 0.9897
2.5006 -0.4753 -0.2444 0.9898
2.4991 0.0748 -0.2400 0.9900
2.4988 0.1657 -0.2404 0.9900
4.0734 -21.7140 -2.6243 0.9149
5.4999 -20.8409 -2.5604 0.9168
2.4877 -7.2487 -0.9103 0.9696
2.4932 -5.8450 -0.7548 0.9747
2.4969 -4.8461 -0.6476 0.9783
2.5005 -3.7784 -0.5382 0.9819
2.5014 -3.4971 -0.5107 0.9828
2.5029 -3.0111 -0.4651 0.9844
2.4972 -2.7917 -0.4449 0.9850
2.4975 -2.5960 -0.4279 0.9856
2.4982 -1.9372 -0.3755 0.9873
2.4984 -1.6620 -0.3564 0.9880
2.4984 -1.4121 -0.3409 0.9885
2.4984 -1.2948 -0.3343 0.9887
2.4984 -1.1818 -0.3283 0.9889
2.4983 -1.0727 -0.3230 0.9891
2.4983 -0.9669 -0.3182 0.9893
2.4982 -0.8640 -0.3140 0.9894
2.4979 -0.6655 -0.3071 0.9896
2.4978 -0.5693 -0.3043 0.9897
2.4976 -0.4747 -0.3020 0.9898
2.4972 -0.2890 -0.2986 0.9899
2.4968 -0.1066 -0.2968 0.9900
2.4962 0.0747 -0.2967 0.9900
2.6773 -17.8170 -2.5528 0.9298
4.0757 -18.0793 -2.6259 0.9279
4.7969 -18.1770 -2.6637 0.9269
2.4737 -8.1610 -1.2083 0.9661
2.4881 -5.2925 -0.8286 0.9767
2.4903 -4.8334 -0.7704 0.9783
2.4922 -4.4340 -0.7207 0.9797
2.4937 -4.0826 -0.6778 0.9809
2.4963 -3.4898 -0.6080 0.9828
2.4973 -3.2363 -0.5792 0.9836
2.4982 -3.0054 -0.5537 0.9843
2.4929 -2.7868 -0.5298 0.9850
2.4933 -2.5916 -0.5096 0.9856
2.4937 -2.4105 -0.4914 0.9861
2.4946 -1.9343 -0.4473 0.9873
2.4947 -1.7934 -0.4353 0.9877
2.4949 -1.6596 -0.4246 0.9880
2.4951 -1.4102 -0.4061 0.9885
2.4951 -1.2931 -0.3982 0.9887
2.4952 -1.1803 -0.3911 0.9889
2.4952 -1.0713 -0.3847 0.9891
2.4951 -0.8629 -0.3741 0.9894
2.4948 -0.5686 -0.3625 0.9897
2.4946 -0.4741 -0.3598 0.9898
2.4945 -0.3809 -0.3575 0.9899
2.4941 -0.1973 -0.3545 0.9899
2.4939 -0.1064 -0.3537 0.9900
2.4936 -0.0159 -0.3533 0.9900
2.4933 0.0746 -0.3534 0.9900
2.8696 -15.2968 -2.5639 0.9389
4.0684 -15.4165 -2.6267 0.9374
2.4779 -5.8093 -1.0404 0.9747
2.4811 -5.2774 -0.9607 0.9766
2.4837 -4.8207 -0.8934 0.9783
2.4860 -4.4231 -0.8359 0.9796
2.4911 -3.4826 -0.7054 0.9828
2.4923 -3.2299 -0.6721 0.9836
2.4934 -2.9997 -0.6426 0.9843
2.4905 -2.0802 -0.5346 0.9869
2.4914 -1.6573 -0.4929 0.9879
2.4920 -0.9644 -0.4402 0.9892
2.4917 -0.4736 -0.4178 0.9898
2.4912 -0.1971 -0.4117 0.9899
2.4907 -0.0159 -0.4103 0.9900
2.4904 0.0745 -0.4104 0.9900
3.0093 -13.3490 -2.5721 0.9458
3.5286 -13.3708 -2.5992 0.9453
2.4533 -8.0938 -1.5897 0.9662
2.4658 -6.4164 -1.2920 0.9724
2.4740 -5.2624 -1.0930 0.9766
2.4772 -4.8079 -1.0166 0.9782
2.4874 -3.2235 -0.7653 0.9836
2.4887 -2.9940 -0.7318 0.9843
2.4841 -2.7770 -0.7003 0.9849
2.4862 -2.2346 -0.6283 0.9865
2.4867 -2.0770 -0.6090 0.9869
2.4871 -1.9286 -0.5916 0.9873
2.4881 -1.5279 -0.5488 0.9882
2.4888 -1.0686 -0.5091 0.9890
2.4889 -0.8608 -0.4950 0.9893
2.4889 -0.7609 -0.4892 0.9895
2.4884 -0.2880 -0.4708 0.9899
2.4880 -0.1062 -0.4681 0.9899
2.4877 -0.0158 -0.4676 0.9899
2.4871 0.1649 -0.4685 0.9899
1.7627 -11.7306 -2.5075 0.9527
2.2074 -11.7672 -2.5307 0.9522
2.6574 -11.7880 -2.5543 0.9518
3.1121 -11.7927 -2.5781 0.9514
2.4510 -7.1419 -1.5961 0.9696
2.4574 -6.3947 -1.4481 0.9724
2.4626 -5.7734 -1.3268 0.9747
2.4706 -4.7951 -1.1402 0.9782
2.4763 -4.0541 -1.0042 0.9808
2.4839 -2.9882 -0.8214 0.9842
2.4797 -2.7721 -0.7862 0.9849
2.4822 -2.2310 -0.7055 0.9864
2.4834 -1.9256 -0.6643 0.9872
2.4838 -1.7856 -0.6466 0.9876
2.4846 -1.5258 -0.6163 0.9882
2.4852 -1.2879 -0.5917 0.9886
2.4857 -0.8597 -0.5560 0.9893
2.4858 -0.6623 -0.5438 0.9895
2.4857 -0.5666 -0.5389 0.9896
2.4852 -0.1966 -0.5270 0.9899
2.4850 -0.1061 -0.5258 0.9899
2.4842 0.1647 -0.5263 0.9899
1.9763 -10.5349 -2.5191 0.9569
2.7807 -10.5371 -2.5613 0.9562
2.4598 -5.2323 -1.3588 0.9765
2.4640 -4.7822 -1.2644 0.9781
2.4705 -4.0445 -1.1139 0.9807
2.4754 -3.4606 -1.0000 0.9827
2.4774 -3.2105 -0.9531 0.9835
2.4792 -2.9824 -0.9115 0.9842
2.4763 -2.5740 -0.8394 0.9854
2.4773 -2.3947 -0.8098 0.9859
2.4789 -2.0705 -0.7591 0.9868
2.4802 -1.7829 -0.7179 0.9875
2.4818 -1.2862 -0.6570 0.9886
2.4823 -1.0658 -0.6349 0.9890
2.4825 -0.9607 -0.6256 0.9891
2.4827 -0.7589 -0.6101 0.9894
2.4827 -0.5659 -0.5984 0.9896
2.4826 -0.4719 -0.5939 0.9897
2.4825 -0.3791 -0.5902 0.9897
2.4818 -0.0158 -0.5833 0.9899
2.4815 0.0743 -0.5835 0.9899
2.1476 -9.5267 -2.5285 0.9605
2.4407 -6.3512 -1.7617 0.9723
2.4472 -5.7374 -1.6150 0.9746
2.4527 -5.2171 -1.4926 0.9765
2.4612 -4.3790 -1.3006 0.9795
2.4646 -4.0349 -1.2242 0.9807
2.4675 -3.7285 -1.1576 0.9817
2.4723 -3.2040 -1.0478 0.9834
2.4742 -2.2238 -0.8613 0.9863
2.4758 -1.9198 -0.8112 0.9871
2.4765 -1.7803 -0.7897 0.9875
2.4780 -1.4005 -0.7370 0.9883
2.4791 -1.0644 -0.6985 0.9889
2.4795 -0.7580 -0.6713 0.9893
2.4796 -0.5652 -0.6585 0.9895
2.4796 -0.4713 -0.6535 0.9896
2.4792 -0.1961 -0.6439 0.9898
2.4785 0.0742 -0.6420 0.9898
2.4782 0.1643 -0.6431 0.9898
1.9568 -8.6799 -2.5189 0.9637
2.2859 -8.6621 -2.5361 0.9634
2.4124 -7.9588 -2.3543 0.9660
2.4323 -6.3293 -1.9195 0.9722
2.4395 -5.7192 -1.7602 0.9745
2.4455 -5.2018 -1.6272 0.9764
2.4550 -4.3679 -1.4184 0.9794
2.4647 -3.4458 -1.1994 0.9825
2.4672 -3.1974 -1.1433 0.9834
2.4662 -2.7570 -1.0472 0.9847
2.4728 -1.7776 -0.8621 0.9874
2.4741 -1.5193 -0.8219 0.9880
2.4754 -1.1709 -0.7752 0.9887
2.4757 -1.0629 -0.7627 0.9889
2.4760 -0.9582 -0.7516 0.9890
2.4762 -0.8564 -0.7417 0.9892
2.4764 -0.7570 -0.7331 0.9893
2.4764 -0.6598 -0.7255 0.9894
2.4762 -0.1959 -0.7032 0.9897
2.4760 -0.1057 -0.7016 0.9898
2.4755 0.0741 -0.7011 0.9898
2.4751 0.1641 -0.7022 0.9897
1.1979 -7.9717 -2.4794 0.9668
1.4956 -7.9728 -2.4950 0.9666
1.7952 -7.9630 -2.5107 0.9664
2.3976 -7.9101 -2.5423 0.9660
2.4238 -6.3072 -2.0783 0.9721
2.4317 -5.7009 -1.9063 0.9744
2.4383 -5.1864 -1.7627 0.9763
2.4486 -4.3566 -1.5372 0.9793
2.4527 -4.0154 -1.4473 0.9805
2.4621 -3.1907 -1.2396 0.9833
2.4617 -2.7519 -1.1357 0.9847
2.4633 -2.5604 -1.0928 0.9852
2.4660 -2.2164 -1.0198 0.9862
2.4681 -1.9138 -0.9606 0.9870
2.4698 -1.6429 -0.9124 0.9877
2.4711 -1.3966 -0.8730 0.9882
2.4716 -1.2809 -0.8562 0.9884
2.4720 -1.1693 -0.8411 0.9886
2.4724 -1.0615 -0.8276 0.9888
2.4732 -0.6590 -0.7873 0.9893
2.4733 -0.5637 -0.7802 0.9894
2.4734 -0.4701 -0.7744 0.9895
2.4731 -0.1956 -0.7630 0.9897
2.4729 -0.1055 -0.7613 0.9897
2.4727 -0.0158 -0.7606 0.9897
2.4721 0.1639 -0.7620 0.9897
1.1064 -7.3628 -2.4749 0.9691
1.3808 -7.3603 -2.4893 0.9689
1.9331 -7.3249 -2.5182 0.9686
2.4048 -7.0070 -2.4625 0.9693
2.4238 -5.6825 -2.0536 0.9743
2.4371 -4.7301 -1.7687 0.9778
2.4467 -4.0056 -1.5602 0.9804
2.4506 -3.7029 -1.4760 0.9815
2.4540 -3.4307 -1.4021 0.9824
2.4588 -2.5558 -1.1789 0.9852
2.4604 -2.3784 -1.1375 0.9857
2.4631 -2.0573 -1.0668 0.9866
2.4668 -1.5148 -0.9622 0.9879
2.4675 -1.3946 -0.9421 0.9881
2.4681 -1.2790 -0.9240 0.9884
2.4697 -0.8541 -0.8686 0.9890
2.4699 -0.7550 -0.8585 0.9892
2.4700 -0.6581 -0.8497 0.9893
2.4701 -0.5630 -0.8421 0.9894
2.4702 -0.4695 -0.8358 0.9895
2.4701 -0.2859 -0.8266 0.9896
2.4698 -0.1054 -0.8217 0.9896
2.4696 -0.0157 -0.8209 0.9896
2.4693 0.0739 -0.8212 0.9896
2.4690 0.1637 -0.8225 0.9896
1.0268 -6.8330 -2.4710 0.9711
2.0477 -6.7558 -2.5244 0.9705
2.4237 -5.1553 -2.0372 0.9761
2.4358 -4.3338 -1.7778 0.9791
2.4406 -3.9956 -1.6744 0.9803
2.4517 -3.1772 -1.4352 0.9831
2.4546 -2.9529 -1.3732 0.9838
2.4524 -2.7416 -1.3154 0.9845
2.4591 -2.0539 -1.1458 0.9865
2.4613 -1.7694 -1.0840 0.9872
2.4639 -1.3925 -1.0121 0.9880
2.4646 -1.2772 -0.9927 0.9883
2.4651 -1.1661 -0.9752 0.9885
2.4656 -1.0586 -0.9595 0.9887
2.4660 -0.9544 -0.9456 0.9888
2.4664 -0.8530 -0.9332 0.9890
2.4666 -0.7540 -0.9224 0.9891
2.4668 -0.6573 -0.9129 0.9892
2.4670 -0.4689 -0.8980 0.9894
2.4670 -0.3767 -0.8924 0.9895
2.4670 -0.2855 -0.8881 0.9895
2.4665 -0.0157 -0.8820 0.9896
2.4659 0.1635 -0.8837 0.9896
1.1931 -6.3602 -2.4799 0.9727
1.6678 -6.3197 -2.5047 0.9724
2.1428 -6.2436 -2.5296 0.9721
2.4162 -5.1395 -2.1764 0.9760
2.4345 -3.9855 -1.7897 0.9802
2.4390 -3.6854 -1.6936 0.9812
2.4429 -3.4153 -1.6092 0.9822
2.4464 -3.1704 -1.5346 0.9830
2.4477 -2.7363 -1.4069 0.9844
2.4534 -2.2051 -1.2641 0.9860
2.4574 -1.7666 -1.1598 0.9871
2.4595 -1.5103 -1.1060 0.9877
2.4603 -1.3905 -1.0830 0.9880
2.4622 -1.0571 -1.0268 0.9886
2.4638 -0.3762 -0.9551 0.9894
2.4637 -0.1949 -0.9471 0.9895
2.4633 -0.0157 -0.9440 0.9895
2.4630 0.0737 -0.9443 0.9895
2.4626 0.1633 -0.9458 0.9895
1.1154 -5.9459 -2.4760 0.9742
1.3367 -5.9292 -2.4876 0.9741
1.7795 -5.8709 -2.5108 0.9738
2.2209 -5.7792 -2.5339 0.9736
2.3998 -5.6262 -2.5034 0.9739
2.4227 -4.3104 -2.0237 0.9789
2.4330 -3.6764 -1.8044 0.9811
2.4410 -3.1634 -1.6354 0.9829
2.4452 -2.5416 -1.4435 0.9849
2.4491 -2.2013 -1.3477 0.9859
2.4508 -2.0470 -1.3069 0.9863
2.4522 -1.9015 -1.2700 0.9867
2.4557 -1.5080 -1.1794 0.9876
2.4566 -1.3884 -1.1549 0.9879
2.4574 -1.2735 -1.1328 0.9881
2.4581 -1.1627 -1.1129 0.9883
2.4587 -1.0556 -1.0951 0.9885
2.4596 -0.8506 -1.0651 0.9888
2.4599 -0.7520 -1.0528 0.9889
2.4604 -0.5608 -1.0328 0.9892
2.4605 -0.2848 -1.0137 0.9894
2.4604 -0.1946 -1.0101 0.9894
2.4603 -0.1050 -1.0078 0.9894
2.4600 -0.0157 -1.0068 0.9894
2.4598 0.0736 -1.0072 0.9894
2.4594 0.1631 -1.0088 0.9894
0.8393 -5.5857 -2.4617 0.9757
1.0460 -5.5760 -2.4725 0.9755
1.2531 -5.5586 -2.4833 0.9754
1.4604 -5.5336 -2.4942 0.9753
1.6673 -5.5008 -2.5050 0.9752
2.0797 -5.4117 -2.5267 0.9750
2.4011 -5.1073 -2.4596 0.9757
2.4219 -3.9651 -2.0249 0.9799
2.4271 -3.6674 -1.9166 0.9810
2.4405 -2.5368 -1.5341 0.9848
2.4448 -2.1973 -1.4326 0.9858
2.4465 -2.0434 -1.3892 0.9862
2.4481 -1.8983 -1.3501 0.9866
2.4518 -1.5056 -1.2539 0.9875
2.4537 -1.2716 -1.2044 0.9880
2.4544 -1.1610 -1.1833 0.9882
2.4568 -0.6546 -1.1080 0.9890
2.4570 -0.5600 -1.0983 0.9891
2.4571 -0.4670 -1.0900 0.9891
2.4572 -0.3752 -1.0833 0.9892
2.4570 -0.1049 -1.0718 0.9893
2.4565 0.0735 -1.0710 0.9893
0.7895 -5.2537 -2.4592 0.9769
0.9836 -5.2432 -2.4694 0.9768
1.5667 -5.1685 -2.4999 0.9765
1.9530 -5.0822 -2.5202 0.9763
2.1446 -5.0279 -2.5302 0.9762
2.4020 -4.6619 -2.4275 0.9771
2.4092 -4.2865 -2.2761 0.9786
2.4155 -3.9546 -2.1450 0.9798
2.4301 -3.1492 -1.8413 0.9826
2.4358 -2.5319 -1.6263 0.9846
2.4382 -2.3569 -1.5697 0.9852
2.4422 -2.0398 -1.4729 0.9861
2.4439 -1.8950 -1.4315 0.9865
2.4454 -1.7579 -1.3941 0.9868
2.4467 -1.6276 -1.3602 0.9871
2.4490 -1.3841 -1.3021 0.9877
2.4499 -1.2696 -1.2773 0.9879
2.4515 -1.0525 -1.2349 0.9883
2.4521 -0.9490 -1.2170 0.9885
2.4526 -0.8482 -1.2012 0.9886
2.4530 -0.7499 -1.1873 0.9888
2.4533 -0.6537 -1.1752 0.9889
2.4537 -0.4663 -1.1561 0.9891
2.4538 -0.3747 -1.1490 0.9891
2.4538 -0.1941 -1.1394 0.9892
2.4528 0.1626 -1.1378 0.9892
0.7443 -4.9532 -2.4569 0.9779
1.1101 -4.9243 -2.4761 0.9778
1.6576 -4.8299 -2.5048 0.9775
1.8387 -4.7847 -2.5143 0.9774
2.4090 -3.9439 -2.2670 0.9796
2.4244 -3.1419 -1.9467 0.9825
2.4284 -2.9215 -1.8635 0.9832
2.4335 -2.3523 -1.6602 0.9850
2.4358 -2.1893 -1.6065 0.9855
2.4378 -2.0362 -1.5580 0.9859
2.4396 -1.8917 -1.5143 0.9863
2.4427 -1.6249 -1.4391 0.9870
2.4478 -1.0509 -1.3067 0.9882
2.4495 -0.7488 -1.2564 0.9887
2.4498 -0.6528 -1.2436 0.9888
2.4503 -0.4657 -1.2234 0.9889
2.4504 -0.2836 -1.2100 0.9891
2.4498 0.0733 -1.2022 0.9891
2.4494 0.1624 -1.2041 0.9891
0.8757 -4.6681 -2.4639 0.9788
1.3929 -4.5953 -2.4911 0.9786
1.5643 -4.5581 -2.5000 0.9785
1.7348 -4.5145 -2.5090 0.9784
1.9042 -4.4643 -2.5179 0.9784
2.0722 -4.4077 -2.5267 0.9783
2.3954 -4.2618 -2.5363 0.9782
2.4024 -3.9331 -2.3910 0.9794
2.4086 -3.6394 -2.2641 0.9805
2.4261 -2.5217 -1.8153 0.9844
2.4288 -2.3478 -1.7524 0.9849
2.4312 -2.1852 -1.6958 0.9854
2.4353 -1.8884 -1.5987 0.9862
2.4370 -1.7519 -1.5570 0.9866
2.4386 -1.6222 -1.5194 0.9869
2.4412 -1.3797 -1.4547 0.9874
2.4432 -1.1557 -1.4021 0.9879
2.4440 -1.0493 -1.3798 0.9881
2.4453 -0.8457 -1.3423 0.9884
2.4458 -0.7477 -1.3268 0.9885
2.4469 -0.1936 -1.2734 0.9890
2.4468 -0.1044 -1.2705 0.9890
2.4459 0.1622 -1.2717 0.9890
0.6655 -4.4290 -2.4530 0.9798
0.8286 -4.4173 -2.4616 0.9797
0.9918 -4.3996 -2.4701 0.9796
1.1547 -4.3758 -2.4787 0.9796
1.6401 -4.2678 -2.5041 0.9794
1.7998 -4.2196 -2.5125 0.9793
1.9582 -4.1652 -2.5208 0.9792
2.2697 -4.0383 -2.5372 0.9791
2.3957 -3.9221 -2.5172 0.9793
2.4022 -3.6298 -2.3840 0.9803
2.4129 -3.1270 -2.1633 0.9821
2.4174 -2.9081 -2.0713 0.9829
2.4179 -2.7030 -1.9863 0.9836
2.4239 -2.3431 -1.8464 0.9847
2.4288 -2.0286 -1.7332 0.9857
2.4309 -1.8849 -1.6847 0.9861
2.4327 -1.7488 -1.6409 0.9864
2.4344 -1.6194 -1.6013 0.9868
2.4358 -1.4958 -1.5655 0.9870
2.4371 -1.3774 -1.5332 0.9873
2.4383 -1.2636 -1.5041 0.9876
2.4409 -0.9447 -1.4335 0.9881
2.4421 -0.7466 -1.3987 0.9884
2.4429 -0.5568 -1.3723 0.9886
2.4434 -0.2828 -1.3472 0.9888
2.4428 0.0731 -1.3385 0.9889
2.4424 0.1620 -1.3406 0.9889
0.6309 -4.1987 -2.4513 0.9806
1.4009 -4.0821 -2.4917 0.9803
1.8537 -3.9429 -2.5154 0.9801
2.0017 -3.8850 -2.5232 0.9800
2.1478 -3.8214 -2.5309 0.9800
2.2919 -3.7522 -2.5385 0.9799
2.3957 -3.6199 -2.5062 0.9801
2.4070 -3.1193 -2.2748 0.9820
2.4117 -2.9013 -2.1782 0.9827
2.4126 -2.6970 -2.0892 0.9834
2.4283 -1.7457 -1.7266 0.9863
2.4300 -1.6165 -1.6850 0.9866
2.4316 -1.4932 -1.6474 0.9869
2.4330 -1.3751 -1.6135 0.9872
2.4353 -1.1520 -1.5554 0.9876
2.4362 -1.0460 -1.5307 0.9878
2.4384 -0.7454 -1.4721 0.9883
2.4388 -0.6498 -1.4572 0.9884
2.4395 -0.4636 -1.4336 0.9886
2.4396 -0.3725 -1.4249 0.9887
2.4398 -0.2824 -1.4180 0.9887
2.4397 -0.1930 -1.4130 0.9888
2.4388 0.1617 -1.4111 0.9888
