ply
format ascii 1.0
element vertex 494
property float32 x
property float32 y
property float32 z
property float32 I
end_header
24.8500 18.3688 5.4489 0.8820
23.7914 18.9323 5.3612 0.8838
26.0316 22.2735 6.0410 0.8701
20.4413 18.7909 4.8959 0.8933
25.9015 25.5700 6.4177 0.8626
17.7813 18.8498 4.5692 0.9001
21.6967 30.7918 6.6419 0.8581
10.5422 18.9797 3.8282 0.9156
9.7575 19.1419 3.7884 0.9164
8.8292 18.9602 3.6879 0.9186
12.5031 36.6220 6.8234 0.8546
9.3644 41.4494 7.4928 0.8415
26.9945 18.5054 5.0138 0.8760
25.2823 18.6885 4.8164 0.8805
21.8035 18.6557 4.3960 0.8904
20.4395 18.7892 4.2532 0.8937
19.0620 18.8180 4.1034 0.8973
16.7573 19.0816 3.8904 0.9023
14.3372 18.8820 3.6320 0.9085
13.5046 19.1655 3.5917 0.9095
21.9869 33.6897 6.1629 0.8498
19.8451 35.7280 6.2610 0.8476
12.5929 41.6821 6.6705 0.8384
11.0006 41.7224 6.6101 0.8398
17.6281 18.6875 3.3454 0.9016
26.2130 37.2012 5.9262 0.8323
23.9104 39.6530 6.0297 0.8296
23.0041 41.4155 6.1693 0.8260
21.1346 41.4612 6.0601 0.8288
8.8277 18.9569 2.7231 0.9191
15.7531 41.2742 5.7529 0.8368
9.3929 41.5754 5.5504 0.8420
26.9162 18.4517 3.5042 0.8770
25.6079 18.9291 3.4195 0.8798
22.1960 18.9916 3.1368 0.8891
26.7524 40.9917 5.2562 0.8213
24.8384 41.1919 5.1652 0.8241
15.8387 41.4985 4.7697 0.8364
12.5554 41.5578 4.6618 0.8398
9.4050 41.6289 4.5828 0.8422
22.9391 41.2986 3.9991 0.8273
21.1248 41.4421 3.9377 0.8297
10.9789 41.6398 3.6454 0.8412
26.9867 18.5000 2.0289 0.8771
26.9509 41.2958 3.0579 0.8207
8.5594 18.3807 1.2573 0.9220
7.9593 18.8146 1.2668 0.9214
8.5578 18.3773 0.7993 0.9221
7.9336 18.7538 0.8029 0.9217
9.2700 41.0313 0.7106 0.8451
26.3456 19.4745 -0.1845 0.8772
26.8661 41.1660 -0.2768 0.8215
9.2683 41.0242 -0.2368 0.8452
26.8062 41.0741 -1.3811 0.8218
8.5530 18.3670 -0.5705 0.9221
7.8575 18.5740 -0.5679 0.9225
2.4791 7.2615 -0.2161 0.9698
2.4722 8.1832 -0.2407 0.9664
2.4665 9.3547 -0.2724 0.9620
2.4589 10.8837 -0.3142 0.9563
29.4564 18.6877 -1.7691 0.8696
29.7496 27.3478 -2.0493 0.8506
29.8490 31.6428 -2.2061 0.8401
2.6684 3.0385 -0.2051 0.9839
2.4905 3.0483 -0.1996 0.9844
2.4895 3.2786 -0.2088 0.9836
2.4870 3.8107 -0.2308 0.9819
2.4855 4.1219 -0.2441 0.9809
2.4838 4.4718 -0.2594 0.9797
2.4819 4.8689 -0.2772 0.9783
2.4702 7.2352 -0.3877 0.9698
2.4626 8.1513 -0.4318 0.9665
2.4556 9.3134 -0.4885 0.9622
2.4464 10.8284 -0.5630 0.9565
2.5014 0.2573 -0.1844 0.9900
2.5007 0.4388 -0.1862 0.9899
2.5000 0.6248 -0.1889 0.9897
2.4993 0.8174 -0.1928 0.9895
2.4988 0.9170 -0.1952 0.9894
2.4984 1.0191 -0.1978 0.9892
2.4974 1.2328 -0.2042 0.9889
2.4963 1.4617 -0.2121 0.9885
2.4944 1.8438 -0.2274 0.9876
2.4915 2.6413 -0.2662 0.9855
2.4832 3.5241 -0.3161 0.9829
2.4816 3.8025 -0.3329 0.9820
2.4754 4.8563 -0.3997 0.9784
2.4696 5.8378 -0.4648 0.9749
2.4612 7.2090 -0.5585 0.9699
2.4340 10.7735 -0.8098 0.9567
2.4985 0.2570 -0.2411 0.9900
2.4981 0.3472 -0.2421 0.9899
2.4978 0.4383 -0.2435 0.9899
2.4971 0.6241 -0.2471 0.9897
2.4957 0.9159 -0.2552 0.9894
2.4953 1.0179 -0.2587 0.9892
2.4948 1.1229 -0.2626 0.9891
2.4936 1.3433 -0.2719 0.9887
2.4900 1.9814 -0.3055 0.9873
2.4881 2.2872 -0.3245 0.9865
2.4870 2.4551 -0.3355 0.9861
2.4917 2.6414 -0.3486 0.9855
2.4812 3.0370 -0.3765 0.9844
2.4797 3.2658 -0.3937 0.9837
2.4742 4.1031 -0.4600 0.9809
2.4718 4.4501 -0.4887 0.9798
2.4659 5.2953 -0.5608 0.9768
2.4340 9.2317 -0.9166 0.9624
2.4216 10.7189 -1.0550 0.9568
2.4955 0.2567 -0.2980 0.9899
2.4945 0.5299 -0.3029 0.9898
2.4936 0.7184 -0.3083 0.9896
2.4932 0.8155 -0.3116 0.9895
2.4921 1.0166 -0.3197 0.9892
2.4910 1.2296 -0.3300 0.9889
2.4896 1.4578 -0.3427 0.9884
2.4881 1.7056 -0.3583 0.9879
2.4872 1.8385 -0.3674 0.9876
2.4842 2.2836 -0.4008 0.9865
2.4918 2.6415 -0.4313 0.9855
2.4781 2.8218 -0.4461 0.9850
2.4749 3.2594 -0.4861 0.9836
2.4709 3.7861 -0.5370 0.9820
2.4685 4.0937 -0.5678 0.9809
2.4658 4.4393 -0.6032 0.9798
2.4627 4.8312 -0.6441 0.9784
2.4590 5.2805 -0.6919 0.9768
2.4496 6.4182 -0.8160 0.9727
2.4434 7.1570 -0.8983 0.9700
2.4358 8.0624 -1.0005 0.9666
2.4233 9.1910 -1.1291 0.9624
2.4094 10.6647 -1.2987 0.9569
2.4926 0.2564 -0.3550 0.9899
2.4922 0.3464 -0.3565 0.9899
2.4919 0.4373 -0.3585 0.9898
2.4915 0.5293 -0.3609 0.9898
2.4911 0.6226 -0.3638 0.9897
2.4901 0.8145 -0.3712 0.9895
2.4890 1.0153 -0.3809 0.9892
2.4884 1.1200 -0.3866 0.9890
2.4870 1.3398 -0.4003 0.9887
2.4863 1.4559 -0.4082 0.9884
2.4855 1.5768 -0.4171 0.9882
2.4826 1.9755 -0.4495 0.9873
2.4789 2.4472 -0.4936 0.9860
2.4919 2.6416 -0.5145 0.9854
2.4736 2.8167 -0.5312 0.9850
2.4719 3.0256 -0.5536 0.9843
2.4700 3.2530 -0.5787 0.9836
2.4562 4.8186 -0.7663 0.9784
2.4521 5.2658 -0.8230 0.9768
2.4473 5.7851 -0.8900 0.9749
2.4415 6.3970 -0.9702 0.9727
2.4346 7.1310 -1.0676 0.9700
2.4897 0.2561 -0.4123 0.9899
2.4880 0.6219 -0.4225 0.9897
2.4865 0.9125 -0.4363 0.9893
2.4852 1.1186 -0.4490 0.9890
2.4845 1.2264 -0.4564 0.9888
2.4837 1.3380 -0.4648 0.9886
2.4829 1.4539 -0.4740 0.9884
2.4800 1.8332 -0.5081 0.9876
2.4789 1.9726 -0.5219 0.9872
2.4763 2.2764 -0.5541 0.9865
2.4749 2.4432 -0.5729 0.9860
2.4692 2.8116 -0.6164 0.9849
2.4652 3.2466 -0.6715 0.9836
2.4601 3.7696 -0.7416 0.9819
2.4537 4.4176 -0.8325 0.9797
2.4399 5.7675 -1.0317 0.9749
2.4335 6.3759 -1.1243 0.9727
2.4257 7.1051 -1.2368 0.9700
2.4162 7.9974 -1.3763 0.9667
2.4020 9.1102 -1.5521 0.9625
2.4863 0.3456 -0.4718 0.9898
2.4859 0.4362 -0.4744 0.9898
2.4855 0.5280 -0.4776 0.9897
2.4845 0.7158 -0.4860 0.9895
2.4840 0.8125 -0.4912 0.9894
2.4820 1.1171 -0.5116 0.9890
2.4795 1.4519 -0.5401 0.9884
2.4786 1.5724 -0.5517 0.9881
2.4776 1.6984 -0.5646 0.9878
2.4752 1.9696 -0.5946 0.9872
2.4738 2.1167 -0.6120 0.9868
2.4724 2.2728 -0.6312 0.9864
2.4708 2.4392 -0.6526 0.9860
2.4547 3.7613 -0.8442 0.9819
2.4477 4.4067 -0.9475 0.9797
2.4324 5.7500 -1.1735 0.9749
2.4254 6.3547 -1.2785 0.9727
2.4169 7.0791 -1.4060 0.9700
2.3914 9.0699 -1.7630 0.9625
2.3729 10.5033 -2.0240 0.9571
2.4837 0.2555 -0.5278 0.9898
2.4834 0.3452 -0.5300 0.9898
2.4829 0.4357 -0.5329 0.9897
2.4825 0.5273 -0.5365 0.9897
2.4809 0.8114 -0.5517 0.9894
2.4795 1.0115 -0.5661 0.9891
2.4779 1.2231 -0.5841 0.9888
2.4771 1.3344 -0.5947 0.9886
2.4761 1.4499 -0.6065 0.9883
2.4740 1.6960 -0.6340 0.9878
2.4728 1.8278 -0.6500 0.9875
2.4700 2.1134 -0.6871 0.9868
2.4684 2.2691 -0.7087 0.9864
2.4601 2.8014 -0.7881 0.9849
2.4553 3.2337 -0.8582 0.9835
2.4494 3.7530 -0.9473 0.9818
2.4458 4.0560 -1.0012 0.9808
2.4369 4.7807 -1.1343 0.9783
2.4314 5.2214 -1.2175 0.9767
2.4080 7.0532 -1.5754 0.9700
2.3965 7.9324 -1.7516 0.9667
2.3807 9.0296 -1.9739 0.9625
2.3608 10.4498 -2.2646 0.9571
2.4799 0.4351 -0.5917 0.9897
2.4789 0.6196 -0.6005 0.9896
2.4784 0.7140 -0.6062 0.9895
2.4777 0.8104 -0.6127 0.9893
2.4771 0.9090 -0.6201 0.9892
2.4763 1.0102 -0.6286 0.9891
2.4755 1.1142 -0.6380 0.9889
2.4737 1.3326 -0.6604 0.9885
2.4727 1.4479 -0.6734 0.9883
2.4661 2.1100 -0.7628 0.9868
2.4555 2.7962 -0.8746 0.9848
2.4473 3.4733 -0.9986 0.9827
2.4439 3.7447 -1.0509 0.9818
2.4356 4.3849 -1.1789 0.9796
2.4245 5.2065 -1.3498 0.9767
2.3867 7.8999 -1.9395 0.9667
2.3701 8.9893 -2.1849 0.9625
2.4777 0.2548 -0.6449 0.9898
2.4758 0.6188 -0.6608 0.9895
2.4752 0.7131 -0.6670 0.9894
2.4746 0.8094 -0.6741 0.9893
2.4739 0.9079 -0.6823 0.9892
2.4723 1.1127 -0.7020 0.9889
2.4713 1.2199 -0.7136 0.9887
2.4703 1.3308 -0.7265 0.9885
2.4681 1.5658 -0.7568 0.9880
2.4668 1.6910 -0.7744 0.9877
2.4654 1.8224 -0.7938 0.9874
2.4622 2.1067 -0.8390 0.9867
2.4584 2.4269 -0.8944 0.9858
2.4510 2.7910 -0.9617 0.9848
2.4454 3.2206 -1.0470 0.9834
2.4421 3.4659 -1.0978 0.9826
2.4384 3.7363 -1.1552 0.9817
2.4295 4.3738 -1.2954 0.9795
2.4100 5.6969 -1.6016 0.9748
2.4010 6.2909 -1.7434 0.9726
2.3902 7.0010 -1.9154 0.9699
2.3595 8.9489 -2.3962 0.9625
2.1596 9.5586 -2.5373 0.9603
2.4747 0.2546 -0.7043 0.9897
2.4743 0.3439 -0.7072 0.9897
2.4733 0.5254 -0.7158 0.9895
2.4727 0.6180 -0.7215 0.9895
2.4714 0.8083 -0.7361 0.9892
2.4699 1.0075 -0.7551 0.9890
2.4680 1.2182 -0.7791 0.9886
2.4669 1.3289 -0.7933 0.9884
2.4658 1.4438 -0.8089 0.9882
2.4564 2.2580 -0.9445 0.9862
2.4542 2.4228 -0.9763 0.9858
2.4519 2.5992 -1.0115 0.9853
2.4464 2.7857 -1.0495 0.9847
2.4329 3.7279 -1.2602 0.9817
2.4233 4.3628 -1.4128 0.9795
2.3813 6.9748 -2.0864 0.9698
1.9670 8.7063 -2.5268 0.9636
2.4716 0.2542 -0.7642 0.9897
2.4712 0.3434 -0.7674 0.9896
2.4674 0.9054 -0.8084 0.9891
2.4665 1.0062 -0.8193 0.9889
2.4656 1.1097 -0.8316 0.9887
2.4646 1.2165 -0.8454 0.9886
2.4609 1.5612 -0.8964 0.9879
2.4579 1.8168 -0.9401 0.9873
2.4562 1.9545 -0.9655 0.9869
2.4543 2.1000 -0.9935 0.9866
2.4417 2.7804 -1.1381 0.9846
2.4387 2.9849 -1.1856 0.9840
2.4353 3.2074 -1.2387 0.9833
2.4316 3.4509 -1.2985 0.9825
2.4273 3.7193 -1.3661 0.9816
2.4226 4.0176 -1.4430 0.9806
2.4171 4.3516 -1.5311 0.9794
2.4034 5.1613 -1.7512 0.9765
2.3948 5.6611 -1.8906 0.9746
2.3722 6.9485 -2.2583 0.9697
2.1000 7.9646 -2.5335 0.9661
2.4681 0.3430 -0.8283 0.9896
2.4670 0.5240 -0.8383 0.9894
2.4664 0.6164 -0.8451 0.9893
2.4657 0.7104 -0.8530 0.9892
2.4649 0.8062 -0.8621 0.9891
2.4641 0.9043 -0.8725 0.9890
2.4632 1.0048 -0.8843 0.9888
2.4622 1.1082 -0.8975 0.9887
2.4611 1.2148 -0.9123 0.9885
2.4600 1.3252 -0.9288 0.9883
2.4573 1.5589 -0.9673 0.9878
2.4558 1.6835 -0.9897 0.9875
2.4523 1.9514 -1.0418 0.9869
2.4503 2.0965 -1.0719 0.9865
2.4481 2.2504 -1.1054 0.9861
2.4457 2.4144 -1.1424 0.9856
2.4431 2.5899 -1.1835 0.9851
2.4370 2.7751 -1.2276 0.9846
2.4338 2.9789 -1.2787 0.9839
2.4217 3.7108 -1.4729 0.9815
2.3963 5.1460 -1.8869 0.9764
2.3872 5.6430 -2.0367 0.9745
2.3632 6.9219 -2.4313 0.9696
2.2090 7.3115 -2.5389 0.9683
1.9364 7.3440 -2.5246 0.9685
2.4638 0.5234 -0.9007 0.9894
2.4625 0.7095 -0.9164 0.9892
2.4617 0.8052 -0.9262 0.9891
2.4588 1.1067 -0.9642 0.9886
2.4551 1.4376 -1.0174 0.9880
2.4520 1.6809 -1.0631 0.9875
2.4463 2.0931 -1.1513 0.9864
2.4414 2.4102 -1.2268 0.9855
2.4386 2.5852 -1.2709 0.9850
2.4289 2.9729 -1.3728 0.9838
2.4251 3.1938 -1.4341 0.9831
2.4208 3.4356 -1.5030 0.9823
2.4161 3.7021 -1.5809 0.9814
2.4107 3.9979 -1.6695 0.9804
2.4045 4.3289 -1.7708 0.9792
2.2979 6.7305 -2.5433 0.9702
2.0462 6.7728 -2.5301 0.9704
2.4622 0.2533 -0.9485 0.9895
2.4606 0.5227 -0.9640 0.9893
2.4599 0.6148 -0.9717 0.9892
2.4574 0.9018 -1.0031 0.9888
2.4515 1.4355 -1.0886 0.9879
2.4499 1.5542 -1.1118 0.9876
2.4464 1.8083 -1.1658 0.9871
2.4422 2.0895 -1.2317 0.9863
2.4341 2.5804 -1.3594 0.9849
2.4274 2.7641 -1.4097 0.9844
2.4238 2.9667 -1.4681 0.9837
2.4198 3.1870 -1.5335 0.9830
2.4154 3.4279 -1.6070 0.9822
2.4046 3.9878 -1.7845 0.9803
2.3819 5.1150 -2.1623 0.9761
2.3595 6.1822 -2.5358 0.9721
1.9037 6.3010 -2.5225 0.9722
1.6700 6.3340 -2.5103 0.9723
1.4365 6.3583 -2.4980 0.9725
2.4589 0.2529 -1.0117 0.9894
2.4579 0.4313 -1.0213 0.9893
2.4573 0.5220 -1.0281 0.9892
2.4558 0.7075 -1.0460 0.9890
2.4550 0.8030 -1.0571 0.9889
2.4530 1.0006 -1.0843 0.9886
2.4506 1.2096 -1.1185 0.9883
2.4477 1.4333 -1.1609 0.9878
2.4461 1.5518 -1.1856 0.9876
2.4444 1.6757 -1.2129 0.9873
2.4424 1.8054 -1.2431 0.9870
2.4354 2.2387 -1.3539 0.9858
2.4295 2.5755 -1.4491 0.9848
2.4226 2.7586 -1.5026 0.9843
2.4146 3.1800 -1.6342 0.9829
2.3837 4.6763 -2.1482 0.9776
2.3638 5.5877 -2.4831 0.9741
1.9950 5.8433 -2.5270 0.9737
1.7777 5.8840 -2.5157 0.9738
2.4552 0.3412 -1.0803 0.9892
2.4546 0.4307 -1.0861 0.9892
2.4539 0.5213 -1.0933 0.9891
2.4524 0.7066 -1.1123 0.9889
2.4515 0.8019 -1.1241 0.9888
2.4483 1.1019 -1.1701 0.9884
2.4470 1.2079 -1.1893 0.9882
2.4455 1.3174 -1.2106 0.9880
2.4440 1.4311 -1.2343 0.9877
2.4423 1.5494 -1.2605 0.9875
2.4404 1.6729 -1.2895 0.9872
2.4337 2.0824 -1.3959 0.9861
2.4281 2.3970 -1.4870 0.9852
2.4249 2.5706 -1.5401 0.9847
2.4176 2.7529 -1.5968 0.9841
2.4136 2.9542 -1.6626 0.9835
2.4042 3.4121 -1.8191 0.9820
2.3986 3.6754 -1.9127 0.9810
2.3768 4.6627 -2.2809 0.9774
1.4619 5.5446 -2.4990 0.9753
2.4512 0.4301 -1.1520 0.9891
2.4505 0.5205 -1.1596 0.9890
2.4490 0.7056 -1.1797 0.9888
2.4418 1.3154 -1.2838 0.9878
2.4384 1.5469 -1.3367 0.9874
2.4364 1.6702 -1.3673 0.9871
2.4320 1.9353 -1.4387 0.9864
2.4294 2.0787 -1.4800 0.9860
2.4266 2.2307 -1.5257 0.9856
2.4126 2.7472 -1.6924 0.9840
2.3860 3.9570 -2.1388 0.9798
2.3784 4.2820 -2.2673 0.9786
2.3198 4.9816 -2.5437 0.9761
1.9444 5.0945 -2.5241 0.9763
1.7550 5.1402 -2.5142 0.9763
1.5646 5.1788 -2.5042 0.9764
1.1827 5.2350 -2.4843 0.9766
2.4489 0.2519 -1.2076 0.9891
2.4478 0.4295 -1.2190 0.9890
2.4471 0.5198 -1.2271 0.9889
2.4463 0.6114 -1.2369 0.9888
2.4454 0.7046 -1.2483 0.9887
2.4434 0.8967 -1.2767 0.9885
2.4395 1.2042 -1.3345 0.9880
2.4380 1.3133 -1.3584 0.9877
2.4344 1.5444 -1.4142 0.9872
2.4324 1.6674 -1.4466 0.9869
2.4277 1.9318 -1.5219 0.9863
2.4250 2.0749 -1.5655 0.9859
2.4221 2.2265 -1.6138 0.9854
2.4189 2.3879 -1.6673 0.9850
2.4075 2.7414 -1.7896 0.9839
2.3866 3.6569 -2.1420 0.9807
2.3567 4.6232 -2.5454 0.9771
2.0073 4.7450 -2.5272 0.9773
1.6524 4.8400 -2.5087 0.9775
1.4736 4.8775 -2.4993 0.9776
1.2942 4.9084 -2.4900 0.9776
1.1144 4.9327 -2.4806 0.9777
2.4449 0.3398 -1.2805 0.9889
2.4443 0.4289 -1.2874 0.9889
2.4397 0.8953 -1.3482 0.9884
2.4304 1.5418 -1.4931 0.9871
2.4282 1.6646 -1.5273 0.9868
2.4234 1.9284 -1.6067 0.9861
2.4175 2.2223 -1.7036 0.9853
2.4104 2.5553 -1.8224 0.9843
2.4022 2.7355 -1.8886 0.9837
2.3977 2.9347 -1.9660 0.9831
2.3926 3.1510 -2.0525 0.9823
2.3869 3.3874 -2.1498 0.9815
2.3804 3.6475 -2.2595 0.9806
2.3731 3.9356 -2.3842 0.9795
2.2221 4.3591 -2.5383 0.9782
1.0523 4.6577 -2.4772 0.9787
2.4413 0.3393 -1.3500 0.9888
2.4407 0.4283 -1.3572 0.9888
2.4382 0.7025 -1.3897 0.9885
2.4360 0.8939 -1.4212 0.9882
2.4347 0.9932 -1.4402 0.9881
2.4318 1.2004 -1.4853 0.9877
2.4301 1.3091 -1.5118 0.9875
2.4262 1.5392 -1.5737 0.9870
2.4240 1.6617 -1.6097 0.9867
2.4160 2.0672 -1.7416 0.9856
2.4129 2.2180 -1.7951 0.9852
2.4055 2.5500 -1.9200 0.9841
2.3809 3.3789 -2.2639 0.9813
2.3742 3.6378 -2.3792 0.9804
2.2516 4.0536 -2.5397 0.9791
2.0993 4.1183 -2.5317 0.9791
1.7895 4.2300 -2.5156 0.9793
1.6325 4.2771 -2.5074 0.9793
1.4743 4.3182 -2.4991 0.9794
1.3153 4.3534 -2.4908 0.9795
1.1556 4.3828 -2.4825 0.9795
2.4363 0.5175 -1.4380 0.9886
2.4354 0.6087 -1.4493 0.9885
2.4345 0.7014 -1.4627 0.9884
2.4322 0.8925 -1.4958 0.9881
2.4294 1.0934 -1.5381 0.9878
2.4278 1.1984 -1.5632 0.9876
2.4261 1.3069 -1.5910 0.9874
2.4241 1.4195 -1.6219 0.9871
2.4220 1.5366 -1.6560 0.9868
2.4172 1.7868 -1.7355 0.9862
2.4144 1.9213 -1.7815 0.9858
2.4114 2.0632 -1.8323 0.9854
2.4081 2.2136 -1.8885 0.9850
2.4044 2.3736 -1.9507 0.9845
2.3866 2.9211 -2.1778 0.9827
2.3677 3.6280 -2.5012 0.9802
2.2724 3.7684 -2.5406 0.9799
1.9868 3.8976 -2.5258 0.9800
1.8412 3.9539 -2.5182 0.9801
1.6942 4.0047 -2.5105 0.9801
1.5457 4.0499 -2.5028 0.9802
1.3963 4.0896 -2.4950 0.9802
1.0948 4.1522 -2.4792 0.9804
