ply
format ascii 1.0
element vertex 602
property float32 x
property float32 y
property float32 z
property float32 I
end_header
-27.0213 25.5012 6.5513 0.8599
-27.2430 23.9189 6.3924 0.8631
-27.3666 16.4340 5.6287 0.8784
-27.0563 31.7018 6.3848 0.8448
-27.1203 29.5564 6.1452 0.8502
-27.0912 27.4736 5.9109 0.8554
-27.1986 25.6685 5.7291 0.8596
-27.3932 22.3599 5.4170 0.8667
-27.4203 19.2744 5.1346 0.8732
-27.4603 17.8635 5.0185 0.8758
-27.4043 16.4566 4.8970 0.8787
-27.5343 15.2160 4.8193 0.8805
-42.0593 15.8829 6.8874 0.8337
-42.7343 14.4055 6.9086 0.8332
-27.1044 31.7582 5.4370 0.8450
-27.2101 25.6793 4.8721 0.8599
-27.5358 16.5356 4.1826 0.8785
-27.5713 15.2364 4.1021 0.8807
-27.7160 14.0408 4.0459 0.8822
-30.5240 14.1086 4.3789 0.8732
-33.8404 14.1887 4.7784 0.8624
-42.1124 15.9030 5.8619 0.8340
-27.3698 24.0303 3.9111 0.8637
-27.4154 22.3779 3.8001 0.8673
-27.4986 19.3294 3.6094 0.8735
-27.5733 16.5582 3.4537 0.8786
-27.6081 15.2568 3.3872 0.8808
-27.7134 14.0394 3.3360 0.8825
-30.5208 14.1071 3.6105 0.8735
-33.8365 14.1871 3.9399 0.8628
-42.1653 15.9229 4.8399 0.8342
-34.4457 -17.3089 4.1396 0.8563
-27.4563 22.4114 3.0002 0.8674
-27.5112 19.3383 2.8467 0.8737
-27.5751 17.9382 2.7848 0.8763
-27.5165 16.5240 2.7171 0.8791
-27.5504 15.2249 2.6646 0.8813
-25.8390 13.0899 2.4520 0.8902
-30.5177 14.1057 2.8460 0.8738
-33.8327 14.1855 3.1056 0.8631
-41.3964 15.6326 3.7459 0.8373
-34.4638 -17.3180 3.2651 0.8566
-27.1553 31.8178 2.5939 0.8457
-27.3056 29.7582 2.5044 0.8506
-27.2888 27.6741 2.4101 0.8558
-27.4079 25.8660 2.3369 0.8598
-27.5050 22.4511 2.2016 0.8674
-27.6816 15.2974 1.9612 0.8810
-27.6693 14.0171 1.9234 0.8831
-42.2707 15.9627 2.8019 0.8344
-42.3490 12.6000 2.7398 0.8377
-27.2031 31.8738 1.6524 0.8456
-27.3334 27.7193 1.5350 0.8557
-27.4961 24.1412 1.4428 0.8637
-25.8229 19.5750 1.2777 0.8783
-25.8917 16.8431 1.2180 0.8837
-25.9976 14.3668 1.1712 0.8879
-30.5115 14.1028 1.3254 0.8741
-33.8252 14.1824 1.4463 0.8634
-42.3234 15.9827 1.7839 0.8343
-34.5137 -17.3430 1.5231 0.8567
-25.6488 30.0527 0.6674 0.8538
-27.4481 27.8356 0.6604 0.8552
-25.9193 18.2193 0.5352 0.8810
-25.9520 16.8824 0.5230 0.8835
-25.9888 14.3619 0.5016 0.8880
-30.5084 14.1014 0.5677 0.8742
-33.8214 14.1808 0.6195 0.8635
-40.5716 15.3211 0.7326 0.8407
-25.6192 30.0180 -0.2222 0.8540
-25.7553 24.3064 -0.1994 0.8679
-25.8673 19.6087 -0.1827 0.8782
-25.9327 16.8698 -0.1742 0.8836
-26.0812 13.2126 -0.1646 0.8896
-26.1706 12.0964 -0.1623 0.8911
-39.5348 14.9296 -0.2379 0.8445
-30.5397 10.2948 -0.1815 0.8790
-39.6033 11.7831 -0.2326 0.8477
-39.6288 10.2559 -0.2305 0.8490
-41.8197 9.2332 -0.2411 0.8426
-44.4729 8.1550 -0.2546 0.8346
-44.4881 4.8895 -0.2520 0.8361
-44.3591 3.2672 -0.2504 0.8370
-44.4688 0.0726 -0.2504 0.8370
-44.4511 -1.5258 -0.2504 0.8370
-44.3989 -4.7330 -0.2514 0.8364
-44.3234 -7.9780 -0.2536 0.8351
-44.2767 -9.6241 -0.2551 0.8342
-44.2236 -11.2911 -0.2570 0.8331
-44.1637 -12.9831 -0.2592 0.8318
-41.4119 -15.4841 -0.2489 0.8379
-24.9895 31.5063 -1.1323 0.8514
-25.3565 27.6341 -1.0560 0.8606
-25.4781 25.8378 -1.0218 0.8648
-25.9049 19.6371 -0.9153 0.8780
-25.9375 18.2321 -0.8927 0.8809
-25.9686 16.8932 -0.8723 0.8834
-25.9985 15.6125 -0.8539 0.8857
-26.0271 14.3831 -0.8373 0.8878
-27.8029 11.6573 -0.8489 0.8864
-27.9421 10.5519 -0.8410 0.8873
-31.5779 8.1724 -0.9185 0.8776
-31.7859 7.0179 -0.9166 0.8779
-31.8601 5.8421 -0.9121 0.8784
-31.9190 4.6743 -0.9084 0.8789
-31.9629 3.5129 -0.9054 0.8793
-32.0068 0.0523 -0.9012 0.8798
-31.9923 -1.0981 -0.9014 0.8798
-31.8618 -4.5597 -0.9063 0.8792
-31.7886 -5.7218 -0.9095 0.8788
-31.7004 -6.8905 -0.9135 0.8783
-31.3412 -10.4511 -0.9303 0.8762
-31.0186 -12.8867 -0.9458 0.8742
-30.8305 -14.1284 -0.9549 0.8731
-30.2842 -15.2177 -0.9543 0.8732
-19.8358 23.2417 -1.5496 0.8848
-21.1855 19.9937 -1.4773 0.8899
-21.9443 17.9121 -1.4366 0.8927
-22.2852 16.8932 -1.4182 0.8940
-22.6021 15.8876 -1.4011 0.8953
-23.1675 13.9124 -1.3705 0.8974
-23.3677 12.9134 -1.3540 0.8986
-23.4552 11.8823 -1.3334 0.9000
-24.2195 9.1461 -1.3129 0.9015
-24.3732 8.2161 -1.3044 0.9021
-24.5090 7.2921 -1.2968 0.9027
-24.7290 5.4598 -1.2843 0.9035
-24.8138 4.5501 -1.2794 0.9039
-24.8820 3.6438 -1.2753 0.9042
-24.9340 2.7404 -1.2721 0.9044
-24.9699 1.8391 -1.2698 0.9046
-24.9937 0.0411 -1.2675 0.9047
-24.9816 -0.8578 -1.2677 0.9047
-24.9537 -1.7561 -1.2686 0.9047
-24.9098 -2.6555 -1.2704 0.9045
-24.7737 -4.4592 -1.2766 0.9041
-24.6811 -5.3648 -1.2809 0.9038
-24.4457 -7.1865 -1.2922 0.9030
-24.3024 -8.1039 -1.2992 0.9025
-24.1414 -9.0266 -1.3071 0.9019
-23.7650 -10.8905 -1.3257 0.9006
-16.4822 16.7149 -1.7212 0.9101
-16.8680 15.9191 -1.7006 0.9112
-17.5709 14.3423 -1.6630 0.9130
-17.8894 13.5610 -1.6460 0.9139
-18.4643 12.0115 -1.6151 0.9154
-18.7219 11.2428 -1.6012 0.9161
-19.3813 8.9583 -1.5655 0.9179
-20.0125 5.9543 -1.5309 0.9197
-20.1283 5.2092 -1.5245 0.9200
-20.2279 4.4660 -1.5189 0.9203
-20.3789 2.9844 -1.5102 0.9207
-20.4878 0.7702 -1.5033 0.9211
-20.4828 -0.7031 -1.5027 0.9211
-20.4571 -1.4396 -1.5037 0.9210
-20.4159 -2.1764 -1.5054 0.9210
-20.2867 -3.6515 -1.5114 0.9207
-20.1984 -4.3904 -1.5156 0.9204
-20.0942 -5.1304 -1.5206 0.9202
-19.9738 -5.8719 -1.5265 0.9199
-19.8370 -6.6149 -1.5332 0.9196
-19.6837 -7.3598 -1.5408 0.9192
-19.3258 -8.8562 -1.5587 0.9183
-19.1206 -9.6081 -1.5690 0.9178
-12.8983 15.1130 -1.9075 0.9233
-13.6561 13.8489 -1.8672 0.9248
-14.6429 11.9524 -1.8147 0.9269
-14.9339 11.3207 -1.7991 0.9275
-15.2068 10.6892 -1.7845 0.9280
-15.4618 10.0582 -1.7709 0.9286
-15.6994 9.4277 -1.7581 0.9291
-15.9199 8.7976 -1.7462 0.9295
-16.1237 8.1682 -1.7353 0.9299
-16.6375 6.2829 -1.7074 0.9310
-16.7772 5.6555 -1.6997 0.9313
-17.0104 4.4023 -1.6869 0.9318
-17.1043 3.7764 -1.6816 0.9320
-17.2473 2.5258 -1.6735 0.9324
-17.2967 1.9010 -1.6706 0.9325
-17.3516 0.6523 -1.6670 0.9326
-17.3572 0.0284 -1.6664 0.9326
-17.3483 -0.5955 -1.6665 0.9326
-17.2869 -1.8428 -1.6690 0.9325
-17.1671 -3.0900 -1.6746 0.9323
-16.9882 -4.3374 -1.6833 0.9320
-16.7493 -5.5853 -1.6951 0.9315
-16.0860 -8.0832 -1.7283 0.9302
-10.9687 12.8521 -2.0071 0.9342
-11.6498 11.8143 -1.9709 0.9353
-11.9645 11.2915 -1.9542 0.9359
-12.2624 10.7662 -1.9383 0.9364
-12.5437 10.2388 -1.9234 0.9369
-12.8087 9.7096 -1.9092 0.9373
-13.2911 8.6462 -1.8835 0.9381
-13.5090 8.1123 -1.8718 0.9385
-13.8993 7.0413 -1.8508 0.9392
-14.7203 3.8096 -1.8062 0.9406
-14.8077 3.2693 -1.8013 0.9407
-14.9413 2.1881 -1.7937 0.9410
-14.9876 1.6472 -1.7910 0.9411
-15.0203 1.1063 -1.7890 0.9411
-15.0394 0.5654 -1.7877 0.9412
-15.0451 0.0246 -1.7871 0.9412
-15.0372 -0.5161 -1.7873 0.9412
-15.0158 -1.0567 -1.7881 0.9412
-14.8705 -2.6766 -1.7948 0.9410
-14.7053 -3.7546 -1.8028 0.9407
-14.4849 -4.8302 -1.8138 0.9403
-14.2083 -5.9029 -1.8276 0.9399
-9.2038 11.6040 -2.0986 0.9419
-9.5346 11.1718 -2.0810 0.9424
-10.1506 10.2940 -2.0484 0.9433
-11.4333 8.0368 -1.9802 0.9451
-11.8472 7.1144 -1.9580 0.9457
-12.0335 6.6500 -1.9481 0.9460
-12.7645 4.3029 -1.9086 0.9470
-12.8714 3.8296 -1.9028 0.9472
-13.1709 1.9288 -1.8861 0.9476
-13.2140 1.4523 -1.8836 0.9477
-13.2415 -0.9318 -1.8808 0.9478
-13.1648 -1.8840 -1.8843 0.9477
-13.0377 -2.8339 -1.8904 0.9475
-12.9551 -3.3077 -1.8945 0.9474
-12.8598 -3.7805 -1.8992 0.9473
-12.7517 -4.2522 -1.9046 0.9471
-12.4968 -5.1918 -1.9174 0.9468
-12.3498 -5.6594 -1.9248 0.9466
-8.4260 9.8727 -2.1382 0.9487
-8.7129 9.4956 -2.1230 0.9491
-8.9868 9.1136 -2.1085 0.9494
-9.2474 8.7272 -2.0947 0.9498
-9.4951 8.3365 -2.0816 0.9501
-10.5421 6.3307 -2.0258 0.9514
-10.7139 5.9207 -2.0166 0.9516
-11.0207 5.0939 -2.0001 0.9520
-11.5765 2.9960 -1.9699 0.9527
-11.6519 2.5726 -1.9658 0.9528
-11.7156 2.1483 -1.9622 0.9529
-11.7675 1.7233 -1.9593 0.9529
-11.8364 0.8718 -1.9552 0.9530
-11.8533 0.4456 -1.9541 0.9531
-11.8342 -0.8328 -1.9544 0.9530
-11.8046 -1.2584 -1.9557 0.9530
-11.6457 -2.5313 -1.9633 0.9528
-11.5693 -2.9539 -1.9671 0.9527
-11.4811 -3.3752 -1.9714 0.9526
-11.2694 -4.2137 -1.9820 0.9524
-11.1455 -4.6305 -1.9883 0.9523
-11.0099 -5.0454 -1.9951 0.9521
-8.0561 8.1699 -2.1566 0.9544
-8.2954 7.8288 -2.1439 0.9546
-8.5231 7.4832 -2.1319 0.9549
-8.7392 7.1334 -2.1204 0.9551
-8.9438 6.7798 -2.1095 0.9553
-9.1369 6.4226 -2.0992 0.9556
-9.4890 5.6983 -2.0804 0.9560
-9.6480 5.3317 -2.0719 0.9561
-9.7958 4.9625 -2.0640 0.9563
-10.1721 3.8413 -2.0437 0.9567
-10.2754 3.4638 -2.0381 0.9568
-10.3676 3.0846 -2.0331 0.9569
-10.4488 2.7041 -2.0287 0.9570
-10.6645 1.1721 -2.0166 0.9573
-10.6912 0.7874 -2.0150 0.9573
-10.7070 0.4025 -2.0139 0.9573
-10.5747 -1.9034 -2.0196 0.9572
-10.5147 -2.2855 -2.0225 0.9572
-10.4438 -2.6665 -2.0260 0.9571
-10.2692 -3.4244 -2.0347 0.9569
-10.1655 -3.8009 -2.0399 0.9568
-9.9250 -4.5482 -2.0521 0.9565
-9.7882 -4.9185 -2.0590 0.9564
-6.5687 8.2817 -2.2344 0.9577
-6.8211 7.9923 -2.2210 0.9580
-7.0629 7.6974 -2.2082 0.9582
-7.2943 7.3973 -2.1960 0.9584
-7.5152 7.0924 -2.1843 0.9586
-7.9254 6.4692 -2.1625 0.9590
-8.2938 5.8299 -2.1429 0.9594
-8.4623 5.5049 -2.1340 0.9596
-8.6204 5.1767 -2.1255 0.9597
-8.9057 4.5115 -2.1103 0.9600
-9.2561 3.4954 -2.0914 0.9604
-9.4383 2.8082 -2.0815 0.9605
-9.5141 2.4623 -2.0774 0.9606
-9.7407 0.7175 -2.0646 0.9609
-9.7556 0.3668 -2.0636 0.9609
-9.7604 0.0159 -2.0632 0.9609
-9.7551 -0.3348 -2.0632 0.9609
-9.7397 -0.6854 -2.0639 0.9609
-9.6785 -1.3851 -2.0667 0.9608
-9.6327 -1.7338 -2.0689 0.9608
-9.5107 -2.4283 -2.0749 0.9607
-9.1449 -3.7993 -2.0932 0.9603
-9.0279 -4.1371 -2.0992 0.9602
-8.9007 -4.4726 -2.1056 0.9601
-7.0587 6.1975 -2.2076 0.9621
-7.2444 5.9133 -2.1978 0.9623
-7.5870 5.3331 -2.1796 0.9626
-7.7439 5.0376 -2.1712 0.9628
-8.2760 3.8253 -2.1428 0.9632
-8.3851 3.5157 -2.1369 0.9633
-8.4846 3.2041 -2.1315 0.9634
-8.5746 2.8905 -2.1267 0.9635
-8.6551 2.5751 -2.1223 0.9636
-8.7261 2.2583 -2.1184 0.9636
-8.8395 1.6209 -2.1121 0.9637
-8.9150 0.9798 -2.1078 0.9638
-8.9378 -0.6290 -2.1058 0.9639
-8.9139 -0.9502 -2.1068 0.9638
-8.8806 -1.2709 -2.1084 0.9638
-8.8378 -1.5908 -2.1105 0.9638
-8.7855 -1.9097 -2.1130 0.9637
-8.7238 -2.2274 -2.1161 0.9637
-8.6526 -2.5437 -2.1196 0.9636
-8.4817 -3.1714 -2.1282 0.9635
-8.3821 -3.4824 -2.1332 0.9634
-8.2729 -3.7912 -2.1388 0.9633
-8.1543 -4.0975 -2.1448 0.9632
-5.7122 6.6929 -2.2782 0.9643
-5.9203 6.4521 -2.2672 0.9645
-6.3104 5.9554 -2.2466 0.9648
-6.4923 5.7002 -2.2370 0.9649
-6.6655 5.4408 -2.2278 0.9651
-6.8299 5.1774 -2.2190 0.9652
-7.1320 4.6396 -2.2030 0.9655
-7.3987 4.0887 -2.1887 0.9657
-7.6299 3.5267 -2.1763 0.9659
-7.9099 2.6664 -2.1613 0.9661
-8.0521 2.0839 -2.1535 0.9662
-8.1098 1.7905 -2.1503 0.9663
-8.1586 1.4961 -2.1476 0.9663
-8.2516 0.6078 -2.1423 0.9664
-8.2648 0.3107 -2.1414 0.9664
-8.2692 0.0135 -2.1410 0.9664
-8.2646 -0.2837 -2.1411 0.9664
-8.1976 -1.1732 -2.1441 0.9664
-8.0507 -2.0555 -2.1513 0.9663
-7.7305 -3.2116 -2.1674 0.9660
-5.2759 6.1818 -2.3007 0.9668
-5.4702 5.9615 -2.2905 0.9669
-5.6564 5.7363 -2.2806 0.9671
-5.8347 5.5065 -2.2712 0.9672
-6.0049 5.2722 -2.2622 0.9673
-6.1669 5.0338 -2.2536 0.9674
-6.3209 4.7915 -2.2454 0.9676
-6.6041 4.2961 -2.2304 0.9678
-6.7333 4.0435 -2.2235 0.9679
-6.8544 3.7879 -2.2170 0.9680
-6.9670 3.5295 -2.2110 0.9681
-7.2553 2.7398 -2.1955 0.9683
-7.3347 2.4725 -2.1912 0.9683
-7.4684 1.9328 -2.1839 0.9684
-7.5227 1.6609 -2.1809 0.9685
-7.5687 1.3879 -2.1784 0.9685
-7.6689 0.2883 -2.1725 0.9686
-7.6730 0.0125 -2.1722 0.9686
-7.6687 -0.2632 -2.1723 0.9686
-7.6352 -0.8139 -2.1737 0.9686
-7.6058 -1.0885 -2.1751 0.9686
-7.5681 -1.3622 -2.1769 0.9685
-7.4677 -1.9066 -2.1819 0.9685
-7.4049 -2.1769 -2.1850 0.9684
-7.1668 -2.9774 -2.1970 0.9683
-7.0708 -3.2402 -2.2019 0.9682
-5.2537 5.3279 -2.3014 0.9692
-5.4208 5.1159 -2.2926 0.9693
-6.0141 4.2275 -2.2611 0.9697
-6.1435 3.9965 -2.2542 0.9698
-6.3789 3.5251 -2.2417 0.9700
-6.7566 2.5515 -2.2214 0.9702
-6.8985 2.0525 -2.2137 0.9703
-6.9576 1.8006 -2.2105 0.9704
-7.1154 0.7820 -2.2017 0.9705
-7.1469 0.2687 -2.1998 0.9705
-7.1508 0.0117 -2.1995 0.9705
-7.1350 -0.5021 -2.2000 0.9705
-7.1152 -0.7585 -2.2009 0.9705
-7.0520 -1.2693 -2.2039 0.9705
-7.0086 -1.5234 -2.2060 0.9704
-6.9574 -1.7763 -2.2086 0.9704
-6.8982 -2.0279 -2.2115 0.9704
-6.7564 -2.5263 -2.2187 0.9703
-6.6739 -2.7727 -2.2228 0.9702
-6.5835 -3.0170 -2.2274 0.9701
-4.3873 5.5314 -2.3468 0.9707
-4.5649 5.3487 -2.3374 0.9708
-4.7358 5.1612 -2.3284 0.9709
-4.8999 4.9691 -2.3197 0.9710
-5.2074 4.5720 -2.3035 0.9712
-5.4868 4.1592 -2.2886 0.9714
-5.6158 3.9475 -2.2818 0.9715
-5.7377 3.7325 -2.2753 0.9716
-5.8524 3.5145 -2.2692 0.9716
-6.1528 2.8439 -2.2531 0.9718
-6.2383 2.6156 -2.2485 0.9719
-6.5064 1.6839 -2.2340 0.9721
-6.5959 1.2095 -2.2291 0.9721
-6.6295 0.9709 -2.2272 0.9722
-6.6557 0.7315 -2.2257 0.9722
-6.6743 0.4916 -2.2246 0.9722
-6.6855 -0.2295 -2.2236 0.9722
-6.6743 -0.4697 -2.2241 0.9722
-6.6557 -0.7095 -2.2249 0.9722
-6.6295 -0.9487 -2.2262 0.9722
-6.5065 -1.6612 -2.2322 0.9721
-6.3874 -2.1300 -2.2382 0.9720
-6.3168 -2.3619 -2.2417 0.9720
-6.1535 -2.8199 -2.2500 0.9719
-6.0608 -3.0456 -2.2547 0.9718
-4.1035 5.1736 -2.3614 0.9723
-4.5864 4.6511 -2.3359 0.9726
-4.7346 4.4683 -2.3281 0.9727
-4.8764 4.2814 -2.3206 0.9728
-5.1401 3.8965 -2.3066 0.9730
-5.2620 3.6988 -2.3001 0.9730
-5.5871 3.0876 -2.2828 0.9732
-5.7697 2.6668 -2.2730 0.9734
-6.0515 1.8005 -2.2578 0.9735
-6.1045 1.5799 -2.2550 0.9736
-6.1505 1.3579 -2.2524 0.9736
-6.1894 1.1349 -2.2503 0.9736
-6.2637 0.4613 -2.2460 0.9737
-6.2744 0.2359 -2.2454 0.9737
-6.2780 0.0103 -2.2450 0.9737
-6.2744 -0.2154 -2.2451 0.9737
-6.2638 -0.4408 -2.2455 0.9737
-6.1508 -1.3370 -2.2509 0.9736
-6.0521 -1.7792 -2.2559 0.9736
-5.9922 -1.9982 -2.2589 0.9735
-5.9254 -2.2155 -2.2622 0.9735
-5.7709 -2.6446 -2.2701 0.9734
-4.0082 4.6965 -2.3661 0.9739
-4.1603 4.5340 -2.3581 0.9740
-4.7084 3.8433 -2.3291 0.9743
-5.1571 3.0969 -2.3053 0.9746
-5.3431 2.7068 -2.2953 0.9747
-5.5732 2.1046 -2.2830 0.9748
-5.8246 1.0680 -2.2693 0.9750
-5.8783 0.6461 -2.2663 0.9750
-5.8952 0.4342 -2.2653 0.9750
-5.9053 0.2220 -2.2646 0.9750
-5.9054 -0.2027 -2.2644 0.9750
-5.8954 -0.4149 -2.2648 0.9750
-5.8786 -0.6267 -2.2656 0.9750
-5.8551 -0.8379 -2.2667 0.9750
-5.8250 -1.0485 -2.2681 0.9750
-5.7882 -1.2581 -2.2699 0.9749
-5.6377 -1.8800 -2.2774 0.9749
-5.5044 -2.2868 -2.2842 0.9748
-3.6231 4.5679 -2.3862 0.9751
-3.7724 4.4201 -2.3783 0.9752
-3.9162 4.2680 -2.3707 0.9753
-4.3142 3.7878 -2.3497 0.9755
-4.4354 3.6204 -2.3433 0.9756
-4.5507 3.4496 -2.3371 0.9756
-4.6601 3.2757 -2.3313 0.9757
-4.9523 2.7368 -2.3158 0.9758
-5.0375 2.5520 -2.3112 0.9759
-5.2562 1.9849 -2.2995 0.9760
-5.3706 1.5979 -2.2933 0.9761
-5.5462 0.6096 -2.2836 0.9762
-5.5622 0.4097 -2.2826 0.9762
-5.5718 0.2095 -2.2820 0.9762
-5.5751 0.0091 -2.2818 0.9762
-5.5719 -0.1913 -2.2818 0.9762
-5.4956 -0.9892 -2.2854 0.9762
-5.4606 -1.1870 -2.2871 0.9761
-5.3716 -1.5791 -2.2915 0.9761
-5.2575 -1.9658 -2.2973 0.9760
-5.1184 -2.3456 -2.3043 0.9760
-3.4175 4.3087 -2.3968 0.9763
-3.5590 4.1701 -2.3893 0.9764
-3.6954 4.0274 -2.3821 0.9764
-3.9525 3.7301 -2.3685 0.9766
-4.4997 2.9272 -2.3395 0.9768
-4.5923 2.7578 -2.3346 0.9769
-5.0257 1.6941 -2.3114 0.9771
-5.0771 1.5106 -2.3086 0.9772
-5.2230 0.7649 -2.3006 0.9772
-5.2443 0.5764 -2.2993 0.9772
-5.2596 0.3874 -2.2984 0.9773
-5.2688 0.1981 -2.2979 0.9773
-5.2719 0.0086 -2.2976 0.9773
-5.2689 -0.1809 -2.2976 0.9773
-5.1963 -0.9353 -2.3010 0.9772
-5.1630 -1.1222 -2.3027 0.9772
-5.1237 -1.3082 -2.3046 0.9772
-5.0270 -1.6763 -2.3095 0.9771
-4.9065 -2.0384 -2.3156 0.9771
-4.7625 -2.3931 -2.3229 0.9770
-3.4945 3.8084 -2.3925 0.9775
-3.9627 3.2346 -2.3677 0.9777
-4.0668 3.0829 -2.3622 0.9778
-4.2593 2.7707 -2.3520 0.9779
-4.4300 2.4481 -2.3429 0.9779
-4.5072 2.2833 -2.3388 0.9780
-4.5789 2.1164 -2.3349 0.9780
-4.6449 1.9475 -2.3314 0.9780
-4.7053 1.7769 -2.3281 0.9781
-4.7601 1.6046 -2.3252 0.9781
-4.9221 0.9026 -2.3163 0.9782
-4.9482 0.7246 -2.3149 0.9782
-4.9686 0.5461 -2.3137 0.9782
-4.9831 0.3670 -2.3129 0.9782
-4.9919 0.1877 -2.3123 0.9782
-4.9921 -0.1713 -2.3121 0.9782
-4.9834 -0.3507 -2.3125 0.9782
-4.8911 -1.0631 -2.3169 0.9782
-4.8537 -1.2392 -2.3188 0.9782
-4.8104 -1.4142 -2.3209 0.9781
-4.7615 -1.5878 -2.3234 0.9781
-4.7070 -1.7600 -2.3261 0.9781
-4.6468 -1.9305 -2.3292 0.9781
-4.5810 -2.0993 -2.3325 0.9780
-3.1875 3.7348 -2.4085 0.9784
-3.3107 3.6080 -2.4020 0.9784
-3.4292 3.4776 -2.3957 0.9785
-3.5431 3.3438 -2.3897 0.9785
-3.8555 2.9226 -2.3732 0.9787
-4.0388 2.6273 -2.3634 0.9788
-4.2016 2.3219 -2.3548 0.9788
-4.2752 2.1658 -2.3508 0.9789
-4.3435 2.0076 -2.3472 0.9789
-4.4064 1.8476 -2.3438 0.9789
-4.4641 1.6858 -2.3407 0.9790
-4.5164 1.5224 -2.3379 0.9790
-4.5632 1.3577 -2.3353 0.9790
-4.6046 1.1917 -2.3331 0.9790
-4.6710 0.8565 -2.3294 0.9791
-4.6959 0.6877 -2.3280 0.9791
-4.7154 0.5183 -2.3269 0.9791
-4.7293 0.3483 -2.3261 0.9791
-4.7377 0.1781 -2.3256 0.9791
-4.7378 -0.1626 -2.3254 0.9791
-4.7296 -0.3328 -2.3257 0.9791
-4.6718 -0.8409 -2.3285 0.9791
-4.5646 -1.3419 -2.3338 0.9790
-4.4659 -1.6698 -2.3388 0.9790
-4.4085 -1.8315 -2.3417 0.9790
-4.3457 -1.9915 -2.3449 0.9789
-4.2777 -2.1495 -2.3483 0.9789
-2.9028 3.6598 -2.4233 0.9792
-3.2546 3.3006 -2.4047 0.9793
-3.4670 3.0440 -2.3935 0.9794
-3.5663 2.9111 -2.3883 0.9795
-3.8358 2.4953 -2.3740 0.9796
-3.9912 2.2056 -2.3657 0.9797
-4.2418 1.6019 -2.3523 0.9798
-4.3365 1.2902 -2.3471 0.9798
-4.4104 0.9737 -2.3431 0.9799
-4.4819 0.4926 -2.3391 0.9799
-4.5032 0.1693 -2.3378 0.9799
-4.5059 0.0074 -2.3376 0.9799
-4.5034 -0.1546 -2.3376 0.9799
-4.4955 -0.3163 -2.3380 0.9799
-4.4824 -0.4778 -2.3386 0.9799
-4.3379 -1.2753 -2.3457 0.9798
-4.2934 -1.4317 -2.3479 0.9798
-4.0640 -2.0422 -2.3596 0.9797
-2.7579 3.4772 -2.4308 0.9800
-2.9857 3.2539 -2.4188 0.9801
-3.0935 3.1371 -2.4131 0.9801
-3.1969 3.0171 -2.4076 0.9802
-3.3909 2.7678 -2.3973 0.9802
-3.5669 2.5073 -2.3880 0.9803
-3.7965 2.0981 -2.3758 0.9804
-3.8637 1.9573 -2.3722 0.9804
-3.9835 1.6702 -2.3658 0.9805
-4.0361 1.5242 -2.3630 0.9805
-4.0838 1.3766 -2.3604 0.9805
-4.1266 1.2278 -2.3581 0.9806
-4.1644 1.0777 -2.3560 0.9806
-4.2657 0.4688 -2.3504 0.9806
-4.2887 0.0070 -2.3489 0.9806
-4.2862 -0.1471 -2.3490 0.9806
-4.2260 -0.7607 -2.3518 0.9806
-4.1984 -0.9126 -2.3532 0.9806
-4.1657 -1.0636 -2.3548 0.9806
-4.1281 -1.2136 -2.3567 0.9806
-4.0855 -1.3624 -2.3588 0.9806
-4.0380 -1.5098 -2.3612 0.9805
-3.9856 -1.6558 -2.3639 0.9805
-3.9284 -1.8002 -2.3668 0.9805
-3.8663 -1.9429 -2.3699 0.9805
-2.9440 2.9856 -2.4208 0.9808
-3.2280 2.6349 -2.4058 0.9809
-3.3143 2.5124 -2.4012 0.9810
-3.5471 2.1301 -2.3888 0.9811
-3.9315 1.1697 -2.3682 0.9812
-3.9992 0.8830 -2.3645 0.9813
-4.0477 0.5928 -2.3619 0.9813
-4.0647 0.4467 -2.3609 0.9813
-4.0768 0.3003 -2.3602 0.9813
-4.0867 0.0067 -2.3595 0.9813
-4.0773 -0.2869 -2.3598 0.9813
-4.0484 -0.5794 -2.3612 0.9813
-4.0268 -0.7248 -2.3622 0.9813
-3.9691 -1.0134 -2.3651 0.9813
-3.9331 -1.1563 -2.3669 0.9812
-3.7968 -1.5774 -2.3738 0.9812
-3.7421 -1.7148 -2.3766 0.9812
