ply
format ascii 1.0
element vertex 574
property float32 x
property float32 y
property float32 z
property float32 I
end_header
-27.0062 25.9351 6.6022 0.8589
-27.3263 21.0580 6.0831 0.8693
-27.3705 19.5550 5.9314 0.8723
-27.4517 16.7538 5.6707 0.8775
-27.4892 15.4399 5.5593 0.8798
-27.5250 14.1747 5.4592 0.8818
-29.9937 14.0969 5.8437 0.8741
-33.2354 14.1754 6.3711 0.8635
-27.3668 21.0892 5.2929 0.8695
-27.4100 19.5833 5.1607 0.8726
-27.3827 18.1035 5.0287 0.8756
-27.5264 15.4608 4.8365 0.8801
-33.1572 14.1421 5.5222 0.8643
-34.4760 -17.3253 5.9109 0.8554
-27.2633 26.1818 4.9222 0.8586
-27.2859 24.3678 4.7638 0.8628
-27.4894 18.1741 4.2913 0.8755
-27.5635 15.4816 4.1168 0.8803
-29.9900 14.0951 4.3152 0.8749
-33.0967 14.1163 4.6855 0.8649
-34.4279 -17.3011 5.0175 0.8561
-27.3069 26.2238 4.0654 0.8587
-27.3568 24.4311 3.9385 0.8628
-27.4887 19.6394 3.6277 0.8729
-27.5278 18.1995 3.5436 0.8757
-27.6343 14.2310 3.3378 0.8825
-29.9882 14.0943 3.5581 0.8752
-33.2288 14.1726 3.8792 0.8647
-42.1568 16.2035 4.8497 0.8339
-34.4453 -17.3099 4.1396 0.8563
-26.0308 23.2469 2.9544 0.8693
-27.4446 22.7789 3.0193 0.8666
-27.5428 15.4700 2.6742 0.8809
-27.6705 14.2496 2.6347 0.8825
-29.9022 14.0539 2.7969 0.8758
-33.0924 14.1145 3.0455 0.8655
-41.4041 15.9142 3.7550 0.8369
-30.3603 10.4247 2.7174 0.8791
-34.4626 -17.3186 3.2650 0.8566
-27.4935 22.8194 2.2156 0.8666
-27.5275 21.2130 2.1550 0.8700
-27.5670 19.6954 2.1009 0.8730
-27.6650 18.2902 2.0565 0.8755
-27.6741 15.5437 1.9682 0.8806
-42.2624 16.2441 2.8076 0.8341
-27.4985 24.5577 1.4537 0.8628
-27.5470 22.8638 1.4116 0.8665
-27.5830 16.8339 1.2742 0.8787
-27.7108 15.5644 1.2532 0.8805
-27.7429 14.2869 1.2305 0.8826
-26.0007 12.2202 1.1328 0.8914
-33.2223 14.1699 1.4242 0.8654
-42.3151 16.2644 1.7875 0.8340
-34.5141 -17.3445 1.5231 0.8567
-26.5315 23.6941 0.6009 0.8674
-25.8802 19.9436 0.5519 0.8775
-25.9513 15.8381 0.5136 0.8855
-27.7791 14.3056 0.5278 0.8825
-29.9810 14.0909 0.5596 0.8759
-42.3344 12.8433 0.7473 0.8378
-25.7432 24.7221 -0.2009 0.8670
-25.8580 19.9265 -0.1838 0.8776
-25.9248 17.1397 -0.1750 0.8831
-26.0670 13.4239 -0.1651 0.8893
-33.2179 14.1680 -0.2033 0.8655
-39.4938 11.9815 -0.2324 0.8478
-39.5397 10.4486 -0.2303 0.8491
-41.7467 9.4296 -0.2410 0.8427
-44.4495 6.7064 -0.2531 0.8354
-44.4758 5.0718 -0.2520 0.8361
-44.5108 1.8324 -0.2508 0.8368
-44.5197 0.2200 -0.2507 0.8369
-44.4983 -6.2646 -0.2530 0.8355
-44.4783 -7.9129 -0.2544 0.8347
-44.4524 -9.5800 -0.2560 0.8337
-41.6578 -15.5408 -0.2503 0.8371
-41.5675 -19.0372 -0.2574 0.8329
-41.2132 -26.6657 -0.2764 0.8217
-26.1409 21.6968 -0.9566 0.8729
-25.9290 18.5251 -0.8973 0.8803
-26.0204 14.6149 -0.8403 0.8874
-26.0517 13.4160 -0.8251 0.8894
-26.1084 12.2708 -0.8123 0.8910
-27.8485 10.7039 -0.8401 0.8875
-29.0425 9.9722 -0.8646 0.8844
-30.9712 8.1843 -0.9020 0.8797
-31.8243 5.9869 -0.9118 0.8785
-31.8962 4.8124 -0.9083 0.8789
-31.9529 3.6438 -0.9056 0.8792
-32.0215 1.3182 -0.9024 0.8796
-32.0336 0.1583 -0.9020 0.8797
-32.0136 -2.1629 -0.9035 0.8795
-31.9344 -4.4958 -0.9081 0.8789
-31.5915 -9.2441 -0.9269 0.8766
-31.4655 -10.4577 -0.9337 0.8757
-31.1617 -12.9285 -0.9500 0.8737
-30.2805 -15.2170 -0.9542 0.8732
-28.0706 -19.6390 -0.9646 0.8719
-20.9774 20.1453 -1.4750 0.8900
-21.3838 19.0970 -1.4540 0.8915
-22.1176 17.0441 -1.4161 0.8942
-22.7533 15.0429 -1.3833 0.8965
-23.4212 12.0614 -1.3360 0.8999
-23.9623 10.2203 -1.3212 0.9009
-24.1446 9.2803 -1.3118 0.9016
-24.3086 8.3467 -1.3034 0.9022
-24.6938 5.5778 -1.2839 0.9036
-24.8650 3.7515 -1.2753 0.9042
-24.9258 2.8425 -1.2723 0.9044
-25.0103 0.1241 -1.2684 0.9047
-24.9856 -1.6881 -1.2700 0.9046
-24.9490 -2.5955 -1.2721 0.9044
-24.8266 -4.4168 -1.2788 0.9039
-24.7405 -5.3319 -1.2835 0.9036
-24.0492 -9.9776 -1.3204 0.9010
-23.8561 -10.9256 -1.3307 0.9002
-23.4110 -12.8465 -1.3543 0.8986
-23.1576 -13.8209 -1.3677 0.8976
-16.7078 16.0451 -1.6985 0.9113
-17.0811 15.2544 -1.6792 0.9122
-17.4316 14.4681 -1.6610 0.9131
-17.7603 13.6863 -1.6440 0.9140
-19.0972 9.8346 -1.5750 0.9175
-19.8304 6.8091 -1.5373 0.9193
-20.2004 4.5628 -1.5185 0.9203
-20.2910 3.8172 -1.5139 0.9205
-20.3654 3.0727 -1.5101 0.9207
-20.4238 2.3291 -1.5072 0.9209
-20.4664 1.5862 -1.5051 0.9210
-20.4795 -1.3836 -1.5050 0.9210
-20.2397 -4.3619 -1.5181 0.9203
-20.1396 -5.1096 -1.5235 0.9200
-19.8896 -6.6104 -1.5368 0.9194
-19.7393 -7.3640 -1.5448 0.9190
-19.5718 -8.1200 -1.5537 0.9185
-18.9620 -10.4052 -1.5859 0.9169
-18.1820 -12.7206 -1.6270 0.9148
-13.8746 13.3243 -1.8468 0.9256
-14.5300 12.0598 -1.8128 0.9269
-15.1100 10.7954 -1.7828 0.9281
-15.3727 10.1634 -1.7692 0.9286
-15.6178 9.5316 -1.7566 0.9291
-16.0567 8.2688 -1.7339 0.9300
-16.8673 5.1172 -1.6922 0.9316
-16.9823 4.4877 -1.6864 0.9318
-17.0820 3.8584 -1.6813 0.9320
-17.1665 3.2294 -1.6770 0.9322
-17.2906 1.9718 -1.6707 0.9325
-17.3303 1.3431 -1.6688 0.9325
-17.3610 -0.5429 -1.6676 0.9326
-17.2585 -2.4297 -1.6733 0.9324
-17.1158 -3.6887 -1.6809 0.9321
-17.0218 -4.3186 -1.6860 0.9319
-16.4913 -6.8420 -1.7141 0.9308
-16.1306 -8.1062 -1.7332 0.9300
-15.2073 -10.6395 -1.7818 0.9281
-12.7207 9.8027 -1.9077 0.9374
-13.4406 8.2028 -1.8704 0.9385
-13.6494 7.6665 -1.8596 0.9389
-13.8431 7.1289 -1.8496 0.9392
-14.1857 6.0505 -1.8319 0.9398
-14.3350 5.5099 -1.8243 0.9400
-14.6967 3.8837 -1.8057 0.9406
-14.9317 2.2528 -1.7937 0.9410
-15.0189 1.1639 -1.7894 0.9411
-15.0420 0.6192 -1.7883 0.9412
-15.0470 -0.4705 -1.7882 0.9412
-15.0289 -1.0154 -1.7893 0.9411
-14.9971 -1.5602 -1.7911 0.9411
-14.8920 -2.6494 -1.7967 0.9409
-14.6300 -4.2810 -1.8107 0.9404
-14.0814 -6.4490 -1.8397 0.9395
-13.9077 -6.9891 -1.8489 0.9392
-13.7190 -7.5281 -1.8589 0.9389
-13.5151 -8.0661 -1.8696 0.9386
-13.2959 -8.6027 -1.8811 0.9382
-13.0610 -9.1379 -1.8935 0.9378
-10.6193 9.4837 -2.0173 0.9441
-11.1297 8.5767 -1.9909 0.9448
-11.3633 8.1187 -1.9788 0.9451
-11.5829 7.6578 -1.9674 0.9454
-11.7883 7.1945 -1.9568 0.9457
-11.9800 6.7288 -1.9469 0.9460
-12.3224 5.7915 -1.9292 0.9465
-12.4734 5.3201 -1.9214 0.9467
-12.6111 4.8472 -1.9143 0.9469
-12.8468 3.8974 -1.9022 0.9472
-12.9452 3.4208 -1.8972 0.9473
-13.1029 2.4650 -1.8891 0.9476
-13.1624 1.9859 -1.8861 0.9476
-13.2645 0.5461 -1.8810 0.9478
-13.2731 0.0656 -1.8807 0.9478
-13.2689 -0.4149 -1.8810 0.9478
-13.2225 -1.3756 -1.8836 0.9477
-13.1801 -1.8555 -1.8859 0.9476
-13.1249 -2.3350 -1.8889 0.9476
-13.0567 -2.8141 -1.8925 0.9475
-12.9760 -3.2921 -1.8968 0.9474
-12.8821 -3.7695 -1.9018 0.9472
-12.7752 -4.2458 -1.9075 0.9471
-12.6552 -4.7212 -1.9138 0.9469
-11.8544 -7.0749 -1.9560 0.9458
-11.6533 -7.5399 -1.9666 0.9455
-11.4381 -8.0025 -1.9779 0.9452
-9.1650 8.8015 -2.0933 0.9498
-9.4181 8.4110 -2.0802 0.9501
-9.6582 8.0163 -2.0677 0.9504
-9.8854 7.6179 -2.0560 0.9507
-10.0998 7.2159 -2.0449 0.9509
-10.3015 6.8106 -2.0344 0.9512
-10.4905 6.4024 -2.0246 0.9514
-10.9829 5.1619 -1.9992 0.9520
-11.1223 4.7439 -1.9920 0.9522
-11.2496 4.3239 -1.9854 0.9523
-11.5587 3.0545 -1.9695 0.9527
-11.7049 2.2019 -1.9621 0.9529
-11.7601 1.7743 -1.9593 0.9529
-11.8035 1.3460 -1.9571 0.9530
-11.8350 0.9172 -1.9555 0.9530
-11.8547 0.4880 -1.9546 0.9530
-11.8586 -0.3708 -1.9545 0.9530
-11.8429 -0.8001 -1.9554 0.9530
-11.7760 -1.6579 -1.9591 0.9529
-11.5865 -2.9396 -1.9692 0.9527
-11.1659 -4.6325 -1.9915 0.9522
-11.0304 -5.0517 -1.9986 0.9520
-10.8825 -5.4689 -2.0064 0.9518
-10.7224 -5.8837 -2.0149 0.9516
-10.1668 -7.1130 -2.0441 0.9509
-8.2221 7.8960 -2.1427 0.9547
-9.2685 6.1277 -2.0884 0.9558
-9.6064 5.3956 -2.0709 0.9561
-9.7582 5.0253 -2.0631 0.9563
-10.3485 3.1395 -2.0327 0.9569
-10.7117 -0.3349 -2.0144 0.9573
-10.5869 -1.8835 -2.0212 0.9572
-10.5281 -2.2689 -2.0243 0.9571
-10.4582 -2.6534 -2.0280 0.9570
-10.3773 -3.0365 -2.0323 0.9569
-9.8048 -4.9273 -2.0625 0.9563
-9.6565 -5.2989 -2.0704 0.9562
-9.4968 -5.6679 -2.0788 0.9560
-9.1429 -6.3967 -2.0974 0.9556
-7.6640 6.8444 -2.1720 0.9589
-8.0617 6.2125 -2.1514 0.9592
-8.7308 4.9039 -2.1167 0.9599
-9.1228 3.8910 -2.0965 0.9603
-9.2326 3.5487 -2.0908 0.9604
-9.3321 3.2043 -2.0857 0.9605
-9.5000 2.5104 -2.0770 0.9606
-9.5684 2.1613 -2.0735 0.9607
-9.6266 1.8110 -2.0706 0.9607
-9.7121 1.1075 -2.0662 0.9608
-9.7393 0.7548 -2.0649 0.9608
-9.7564 0.4017 -2.0641 0.9609
-9.7597 -0.3052 -2.0640 0.9609
-9.7460 -0.6585 -2.0648 0.9609
-9.7220 -1.0114 -2.0661 0.9608
-9.6877 -1.3638 -2.0680 0.9608
-9.6431 -1.7156 -2.0704 0.9607
-9.5882 -2.0664 -2.0733 0.9607
-9.1589 -3.7999 -2.0960 0.9603
-9.0419 -4.1410 -2.1022 0.9602
-8.4694 -5.4799 -2.1323 0.9596
-6.8036 6.5338 -2.2169 0.9620
-7.5425 5.3888 -2.1786 0.9626
-7.8539 4.7933 -2.1625 0.9629
-7.9952 4.4907 -2.1552 0.9630
-8.1267 4.1851 -2.1484 0.9631
-8.3608 3.5661 -2.1363 0.9633
-8.7773 1.9826 -2.1148 0.9637
-8.9116 1.0163 -2.1080 0.9638
-8.9531 0.3686 -2.1060 0.9639
-8.9561 -0.2800 -2.1059 0.9639
-8.7955 -1.8955 -2.1146 0.9637
-8.7345 -2.2160 -2.1179 0.9636
-8.3941 -3.4826 -2.1359 0.9633
-7.8989 -4.7142 -2.1619 0.9629
-7.7509 -5.0150 -2.1697 0.9628
-7.5932 -5.3125 -2.1780 0.9626
-6.4412 5.7524 -2.2360 0.9649
-6.9447 4.9617 -2.2099 0.9653
-7.0946 4.6905 -2.2021 0.9655
-7.3678 4.1383 -2.1880 0.9657
-7.4908 3.8576 -2.1816 0.9658
-7.7101 3.2885 -2.1703 0.9660
-7.8061 3.0004 -2.1653 0.9660
-7.8932 2.7103 -2.1608 0.9661
-7.9713 2.4183 -2.1568 0.9662
-8.0403 2.1247 -2.1533 0.9662
-8.1514 1.5335 -2.1476 0.9663
-8.2264 0.9381 -2.1438 0.9664
-8.2712 0.0409 -2.1416 0.9664
-8.2682 -0.2585 -2.1418 0.9664
-8.1655 -1.4527 -2.1474 0.9663
-8.0601 -2.0449 -2.1530 0.9662
-7.9185 -2.6317 -2.1605 0.9661
-7.8342 -2.9226 -2.1650 0.9660
-7.7408 -3.2115 -2.1699 0.9660
-7.6385 -3.4983 -2.1753 0.9659
-7.5271 -3.7826 -2.1812 0.9658
-7.1389 -4.6190 -2.2016 0.9655
-5.9578 5.3206 -2.2613 0.9673
-6.1231 5.0822 -2.2527 0.9675
-6.4291 4.5934 -2.2368 0.9677
-6.5697 4.3435 -2.2296 0.9678
-6.8258 3.8339 -2.2163 0.9680
-6.9413 3.5746 -2.2103 0.9681
-7.3193 2.5132 -2.1908 0.9683
-7.3927 2.2428 -2.1870 0.9684
-7.5141 1.6973 -2.1808 0.9685
-7.6327 0.8704 -2.1748 0.9686
-7.6552 0.5933 -2.1736 0.9686
-7.6405 -0.7949 -2.1747 0.9686
-7.5752 -1.3477 -2.1782 0.9685
-7.5298 -1.6228 -2.1806 0.9685
-7.4760 -1.8967 -2.1835 0.9684
-7.4137 -2.1694 -2.1868 0.9684
-7.2635 -2.7097 -2.1947 0.9683
-7.1758 -2.9771 -2.1993 0.9682
-7.0796 -3.2423 -2.2044 0.9681
-6.9750 -3.5052 -2.2099 0.9681
-6.8620 -3.7655 -2.2158 0.9680
-6.7405 -4.0229 -2.2222 0.9679
-6.4726 -4.5285 -2.2363 0.9677
-5.3741 5.1610 -2.2918 0.9693
-5.5369 4.9448 -2.2833 0.9694
-6.2360 3.8059 -2.2471 0.9699
-6.4612 3.3274 -2.2354 0.9700
-6.5621 3.0842 -2.2302 0.9701
-6.6551 2.8385 -2.2254 0.9702
-6.9477 1.8360 -2.2103 0.9704
-7.0009 1.5813 -2.2076 0.9704
-7.0462 1.3255 -2.2053 0.9704
-7.0834 1.0687 -2.2034 0.9705
-7.1127 0.8111 -2.2019 0.9705
-7.1472 0.2942 -2.2002 0.9705
-7.1496 -0.2236 -2.2002 0.9705
-7.1388 -0.4823 -2.2008 0.9705
-7.0932 -0.9986 -2.2033 0.9705
-7.0584 -1.2558 -2.2051 0.9704
-7.0156 -1.5120 -2.2074 0.9704
-6.9060 -2.0208 -2.2132 0.9703
-6.8392 -2.2730 -2.2168 0.9703
-6.5912 -3.0187 -2.2298 0.9701
-6.4927 -3.2628 -2.2350 0.9700
-6.0201 -4.2119 -2.2598 0.9697
-5.4518 4.2013 -2.2879 0.9714
-5.5836 3.9892 -2.2811 0.9715
-5.8254 3.5553 -2.2685 0.9716
-5.9353 3.3337 -2.2628 0.9717
-6.0379 3.1094 -2.2575 0.9718
-6.1330 2.8825 -2.2526 0.9718
-6.2208 2.6533 -2.2481 0.9719
-6.5902 1.2398 -2.2291 0.9721
-6.6255 0.9996 -2.2273 0.9722
-6.6531 0.7587 -2.2259 0.9722
-6.6732 0.5172 -2.2249 0.9722
-6.6907 0.0331 -2.2241 0.9722
-6.6880 -0.2091 -2.2242 0.9722
-6.6778 -0.4512 -2.2248 0.9722
-6.6600 -0.6929 -2.2258 0.9722
-6.5612 -1.4140 -2.2311 0.9721
-6.5132 -1.6525 -2.2336 0.9721
-6.3946 -2.1253 -2.2399 0.9720
-6.3239 -2.3592 -2.2436 0.9719
-6.1603 -2.8213 -2.2523 0.9718
-5.7440 -3.7165 -2.2742 0.9716
-5.6216 -3.9330 -2.2806 0.9715
-4.8385 4.3211 -2.3199 0.9728
-5.1075 3.9359 -2.3059 0.9730
-5.2320 3.7380 -2.2995 0.9731
-5.4604 3.3325 -2.2876 0.9732
-5.6612 2.9154 -2.2772 0.9733
-5.7513 2.7031 -2.2726 0.9734
-5.9104 2.2717 -2.2643 0.9735
-5.9793 2.0531 -2.2608 0.9735
-6.0959 1.6109 -2.2548 0.9736
-6.1841 1.1634 -2.2503 0.9736
-6.2437 0.7120 -2.2473 0.9737
-6.2792 0.0310 -2.2455 0.9737
-6.2767 -0.1963 -2.2457 0.9737
-6.2261 -0.8765 -2.2485 0.9736
-6.1949 -1.1021 -2.2501 0.9736
-6.1565 -1.3268 -2.2522 0.9736
-6.0584 -1.7728 -2.2574 0.9735
-5.9987 -1.9937 -2.2605 0.9735
-5.9318 -2.2129 -2.2641 0.9735
-5.8579 -2.4304 -2.2680 0.9734
-5.7769 -2.6457 -2.2722 0.9734
-5.5940 -3.0696 -2.2819 0.9733
-5.4921 -3.2778 -2.2872 0.9732
-5.3833 -3.4831 -2.2929 0.9731
-4.4085 4.2337 -2.3423 0.9742
-4.6754 3.8806 -2.3285 0.9743
-5.1335 3.1330 -2.3047 0.9746
-5.2320 2.9387 -2.2996 0.9746
-5.4092 2.5423 -2.2904 0.9747
-5.6840 1.7244 -2.2763 0.9749
-5.8196 1.0948 -2.2693 0.9750
-5.8941 0.4568 -2.2655 0.9750
-5.9054 0.2431 -2.2650 0.9750
-5.9099 0.0292 -2.2648 0.9750
-5.9075 -0.1847 -2.2650 0.9750
-5.8822 -0.6119 -2.2664 0.9750
-5.8298 -1.0371 -2.2692 0.9750
-5.6436 -1.8757 -2.2790 0.9748
-5.5801 -2.0818 -2.2824 0.9748
-5.5100 -2.2860 -2.2861 0.9748
-5.4333 -2.4884 -2.2901 0.9747
-5.3499 -2.6885 -2.2945 0.9747
-5.2599 -2.8863 -2.2993 0.9746
-5.0603 -3.2741 -2.3097 0.9745
-4.1515 3.9869 -2.3558 0.9754
-4.5220 3.4847 -2.3365 0.9756
-4.6337 3.3106 -2.3307 0.9757
-4.7393 3.1333 -2.3253 0.9757
-4.8388 2.9531 -2.3201 0.9758
-5.2436 2.0155 -2.2992 0.9760
-5.3057 1.8218 -2.2960 0.9760
-5.3615 1.6266 -2.2931 0.9761
-5.4109 1.4298 -2.2906 0.9761
-5.4904 1.0329 -2.2865 0.9761
-5.5204 0.8329 -2.2850 0.9762
-5.5612 0.4310 -2.2829 0.9762
-5.5719 0.2294 -2.2824 0.9762
-5.5651 -0.3760 -2.2829 0.9762
-5.5498 -0.5774 -2.2837 0.9762
-5.4654 -1.1778 -2.2882 0.9761
-5.3230 -1.7691 -2.2957 0.9760
-5.2627 -1.9633 -2.2989 0.9760
-5.1232 -2.3464 -2.3063 0.9759
-5.0441 -2.5348 -2.3104 0.9759
-4.8671 -2.9047 -2.3197 0.9758
-4.7692 -3.0858 -2.3249 0.9757
-4.1589 3.4519 -2.3555 0.9767
-4.2705 3.2909 -2.3497 0.9767
-4.5715 2.7900 -2.3341 0.9769
-4.6603 2.6176 -2.3295 0.9769
-4.8202 2.2655 -2.3212 0.9770
-4.8913 2.0863 -2.3175 0.9771
-5.0155 1.7222 -2.3111 0.9771
-5.1564 1.1647 -2.3039 0.9772
-5.1912 0.9766 -2.3021 0.9772
-5.2198 0.7875 -2.3006 0.9772
-5.2423 0.5978 -2.2995 0.9772
-5.2587 0.4075 -2.2987 0.9772
-5.2688 0.2169 -2.2982 0.9773
-5.2706 -0.1648 -2.2982 0.9773
-5.2623 -0.3555 -2.2986 0.9772
-5.2478 -0.5460 -2.2994 0.9772
-5.2271 -0.7359 -2.3006 0.9772
-5.2003 -0.9252 -2.3020 0.9772
-5.1674 -1.1136 -2.3037 0.9772
-5.0831 -1.4874 -2.3082 0.9772
-4.9745 -1.8558 -2.3139 0.9771
-4.6853 -2.5710 -2.3292 0.9770
-4.5053 -2.9150 -2.3386 0.9769
-3.7070 3.5600 -2.3790 0.9776
-3.9351 3.2661 -2.3672 0.9777
-4.1422 2.9594 -2.3565 0.9778
-4.4122 2.4782 -2.3425 0.9779
-4.7505 1.6312 -2.3250 0.9781
-4.8010 1.4565 -2.3224 0.9781
-4.8458 1.2805 -2.3201 0.9781
-4.9179 0.9252 -2.3164 0.9782
-4.9452 0.7461 -2.3150 0.9782
-4.9666 0.5664 -2.3139 0.9782
-4.9822 0.3861 -2.3131 0.9782
-4.9919 0.2055 -2.3126 0.9782
-4.9957 0.0247 -2.3125 0.9782
-4.9936 -0.1562 -2.3126 0.9782
-4.9719 -0.5172 -2.3138 0.9782
-4.9521 -0.6972 -2.3149 0.9782
-4.9266 -0.8765 -2.3163 0.9782
-4.8951 -1.0550 -2.3179 0.9782
-4.8579 -1.2325 -2.3199 0.9782
-4.7113 -1.7576 -2.3277 0.9781
-4.6510 -1.9296 -2.3308 0.9780
-4.5850 -2.0998 -2.3343 0.9780
-4.5132 -2.2681 -2.3381 0.9780
-4.3529 -2.5979 -2.3465 0.9779
-4.2645 -2.7593 -2.3512 0.9779
-3.5131 3.3737 -2.3892 0.9785
-3.9274 2.8060 -2.3677 0.9787
-4.2600 2.1938 -2.3505 0.9789
-4.3299 2.0350 -2.3468 0.9789
-4.3945 1.8743 -2.3435 0.9789
-4.4536 1.7118 -2.3404 0.9790
-4.5073 1.5477 -2.3377 0.9790
-4.5982 1.2151 -2.3330 0.9790
-4.7135 0.5375 -2.3271 0.9791
-4.7284 0.3665 -2.3264 0.9791
-4.7377 0.1950 -2.3259 0.9791
-4.7413 0.0234 -2.3258 0.9791
-4.7393 -0.1482 -2.3259 0.9791
-4.7317 -0.3197 -2.3263 0.9791
-4.7185 -0.4909 -2.3270 0.9791
-4.6997 -0.6616 -2.3281 0.9791
-4.6453 -1.0011 -2.3310 0.9791
-4.5221 -1.5029 -2.3375 0.9790
-4.4699 -1.6676 -2.3402 0.9790
-4.2810 -2.1513 -2.3502 0.9789
-4.2072 -2.3087 -2.3541 0.9788
-4.1282 -2.4638 -2.3582 0.9788
-3.9544 -2.7666 -2.3673 0.9787
-3.5417 2.9396 -2.3878 0.9795
-3.8165 2.5232 -2.3735 0.9796
-3.8983 2.3792 -2.3693 0.9796
-4.0470 2.0841 -2.3616 0.9797
-4.1137 1.9335 -2.3581 0.9797
-4.1754 1.7809 -2.3549 0.9798
-4.2319 1.6266 -2.3520 0.9798
-4.2832 1.4707 -2.3494 0.9798
-4.3292 1.3134 -2.3470 0.9798
-4.3700 1.1548 -2.3449 0.9798
-4.4055 0.9951 -2.3431 0.9799
-4.4357 0.8345 -2.3415 0.9799
-4.4606 0.6730 -2.3403 0.9799
-4.5066 0.0223 -2.3380 0.9799
-4.4975 -0.3039 -2.3385 0.9799
-4.4848 -0.4666 -2.3392 0.9799
-4.4436 -0.7905 -2.3414 0.9799
-4.4149 -0.9515 -2.3430 0.9799
-4.3810 -1.1115 -2.3448 0.9798
-4.2972 -1.4282 -2.3492 0.9798
-4.1323 -1.8925 -2.3579 0.9797
-4.0670 -2.0438 -2.3613 0.9797
-3.2709 2.9211 -2.4019 0.9802
-3.4595 2.6659 -2.3921 0.9803
-3.5470 2.5342 -2.3876 0.9803
-3.6298 2.3998 -2.3833 0.9804
-3.7814 2.1239 -2.3754 0.9804
-3.9727 1.6945 -2.3655 0.9805
-4.0267 1.5477 -2.3627 0.9805
-4.1197 1.2498 -2.3579 0.9806
-4.1587 1.0990 -2.3559 0.9806
-4.1927 0.9470 -2.3542 0.9806
-4.2215 0.7942 -2.3527 0.9806
-4.2640 0.4862 -2.3506 0.9806
-4.2776 0.3315 -2.3499 0.9806
-4.2893 0.0212 -2.3493 0.9806
-4.2875 -0.1340 -2.3495 0.9806
-4.2806 -0.2892 -2.3498 0.9806
-4.2685 -0.4441 -2.3505 0.9806
-4.2290 -0.7524 -2.3526 0.9806
-4.2016 -0.9055 -2.3541 0.9806
-4.1691 -1.0578 -2.3558 0.9806
-3.9889 -1.6550 -2.3653 0.9805
-3.9314 -1.8005 -2.3683 0.9805
-3.8690 -1.9443 -2.3716 0.9804
-3.7297 -2.2260 -2.3789 0.9804
-3.6529 -2.3635 -2.3830 0.9804
-3.0171 2.8975 -2.4152 0.9809
-3.1135 2.7806 -2.4101 0.9809
-3.2058 2.6608 -2.4054 0.9809
-3.2937 2.5382 -2.4008 0.9810
-3.5312 2.1551 -2.3885 0.9811
-3.6670 1.8885 -2.3814 0.9811
-3.7281 1.7522 -2.3783 0.9812
-3.8829 1.3333 -2.3703 0.9812
-3.9948 0.9023 -2.3645 0.9813
-4.0224 0.7567 -2.3631 0.9813
-4.0452 0.6103 -2.3620 0.9813
-4.0842 0.1681 -2.3600 0.9813
-4.0873 0.0202 -2.3599 0.9813
-4.0296 -0.7169 -2.3630 0.9813
-3.9722 -1.0078 -2.3661 0.9812
-3.9363 -1.1518 -2.3680 0.9812
-3.8956 -1.2947 -2.3701 0.9812
-3.8501 -1.4363 -2.3725 0.9812
-3.7448 -1.7151 -2.3781 0.9812
-3.6852 -1.8519 -2.3812 0.9811
-3.4005 -2.3792 -2.3961 0.9810
