ply
format ascii 1.0
element vertex 517
property float32 x
property float32 y
property float32 z
property float32 I
end_header
27.2316 18.5162 5.8065 0.8748
25.0177 18.3584 5.4716 0.8816
23.9084 18.9020 5.3741 0.8836
20.5369 18.7829 4.9073 0.8931
23.6007 26.7884 6.2952 0.8650
15.4755 18.8925 4.3062 0.9056
21.4937 28.2511 6.2592 0.8657
21.6920 30.7433 6.6344 0.8583
10.5319 18.9749 3.8266 0.9156
8.8073 18.9597 3.6862 0.9186
14.8541 39.1033 7.3757 0.8437
12.5082 36.8643 6.8641 0.8538
12.8245 42.7892 7.8765 0.8341
10.5491 40.4228 7.3663 0.8439
9.2397 41.4441 7.4871 0.8416
27.1371 18.4520 5.0272 0.8756
25.4544 18.6788 4.8367 0.8801
19.1397 18.8110 4.1111 0.8971
16.8107 19.0812 3.8957 0.9022
14.3615 18.8765 3.6336 0.9085
13.5683 19.2298 3.6054 0.9092
19.9194 35.8883 6.2879 0.8470
8.8058 18.9564 3.2021 0.9189
14.1272 41.6360 6.7355 0.8370
10.8871 41.7180 6.6050 0.8399
1.9032 10.2588 1.5984 0.9587
23.5706 18.6348 3.9128 0.8859
17.6886 18.6801 3.3501 0.9014
22.9837 41.4089 6.1672 0.8261
21.0988 41.4550 6.0573 0.8289
8.8043 18.9532 2.7214 0.9192
17.3794 41.2267 5.8261 0.8349
14.2002 41.8512 5.7551 0.8367
10.8747 41.6703 5.6081 0.8405
9.2682 41.5717 5.5464 0.8421
1.9057 10.2723 1.3605 0.9587
27.1227 18.4421 3.5220 0.8764
25.6820 18.8459 3.4206 0.8797
22.3316 18.9975 3.1483 0.8887
26.7669 40.9850 5.2565 0.8212
24.9765 41.4202 5.1938 0.8232
15.7612 41.4914 4.7660 0.8365
9.2803 41.6261 4.5796 0.8423
27.1155 18.4372 2.7757 0.8767
21.0899 41.4375 3.9360 0.8297
8.7310 18.7953 1.7544 0.9202
17.5010 41.5154 3.8139 0.8346
12.4672 41.5972 3.6761 0.8400
9.2652 41.5586 3.6044 0.8429
27.0328 41.3920 3.0656 0.8203
24.8907 41.2777 2.9890 0.8243
8.5373 18.3782 1.2566 0.9220
7.9598 18.8818 1.2706 0.9212
9.2774 41.6130 2.6438 0.8429
7.9340 18.8207 0.8054 0.9215
26.3819 17.9385 0.5389 0.8802
9.1477 41.0316 0.7101 0.8452
26.3062 17.8870 -0.1791 0.8805
26.8631 41.1322 -0.2766 0.8216
8.5330 18.3691 -0.1140 0.9222
9.1463 41.0252 -0.2367 0.8452
2.4035 31.6986 -0.1790 0.8806
26.2987 17.8819 -0.8955 0.8805
26.8033 41.0407 -1.3803 0.8219
2.7544 6.5339 -0.1997 0.9720
2.4813 6.5322 -0.1968 0.9724
2.4055 21.4662 -0.6082 0.9172
29.4140 13.0492 -1.6319 0.8791
29.4486 14.3516 -1.6614 0.8770
29.5139 17.1072 -1.7300 0.8723
29.5486 18.5761 -1.7701 0.8695
26.2918 17.8771 -1.6124 0.8804
26.2629 19.2721 -1.6520 0.8777
29.7013 25.2670 -1.9776 0.8554
2.4890 3.2715 -0.2085 0.9837
2.4850 4.1210 -0.2441 0.9809
2.4833 4.4740 -0.2595 0.9797
2.4693 7.2777 -0.3897 0.9697
2.4616 8.2133 -0.4348 0.9662
2.4448 10.9661 -0.5698 0.9560
2.4316 13.1071 -0.6761 0.9480
2.4156 16.2561 -0.8335 0.9363
2.3337 30.7782 -1.5654 0.8837
1.9628 49.3376 -2.5041 0.8206
0.1827 47.5589 -2.4119 0.8266
-4.7237 45.2936 -2.3095 0.8333
-6.1451 43.6593 -2.2360 0.8381
2.4981 1.0025 -0.1974 0.9893
2.4976 1.1080 -0.2003 0.9891
2.4954 1.5687 -0.2161 0.9882
2.4948 1.6963 -0.2212 0.9880
2.4933 1.9712 -0.2330 0.9873
2.4907 2.4479 -0.2561 0.9861
2.4866 2.8225 -0.2758 0.9850
2.4855 3.0343 -0.2876 0.9844
2.4828 3.5187 -0.3158 0.9829
2.4793 4.1116 -0.3520 0.9809
2.4773 4.4632 -0.3743 0.9797
2.4749 4.8627 -0.4001 0.9784
2.4689 5.8567 -0.4660 0.9748
2.4604 7.2513 -0.5615 0.9698
2.4520 8.1812 -0.6262 0.9663
2.4323 10.9100 -0.8196 0.9562
2.4169 13.0276 -0.9715 0.9482
1.5436 10.3880 -0.7700 0.9588
-1.0948 34.1197 -2.5030 0.8720
-2.2632 33.2337 -2.4424 0.8749
-3.3737 32.3498 -2.3848 0.8777
2.4950 1.0012 -0.2581 0.9893
2.4945 1.1066 -0.2620 0.9891
2.4927 1.4448 -0.2766 0.9885
2.4905 1.8276 -0.2966 0.9877
2.4867 2.4440 -0.3347 0.9861
2.4998 2.6399 -0.3490 0.9855
2.4822 2.8174 -0.3605 0.9850
2.4808 3.0286 -0.3759 0.9844
2.4794 3.2588 -0.3931 0.9837
2.4758 3.7909 -0.4347 0.9820
2.4737 4.1023 -0.4599 0.9809
2.4685 4.8501 -0.5225 0.9784
2.4515 7.2250 -0.7325 0.9698
2.4424 8.1492 -0.8167 0.9664
2.4199 10.8542 -1.0676 0.9563
2.4023 12.9488 -1.2644 0.9485
0.0967 25.1648 -2.4160 0.9038
-1.7495 25.6900 -2.4721 0.9017
2.4919 1.0000 -0.3189 0.9892
2.4913 1.1052 -0.3237 0.9891
2.4901 1.3262 -0.3351 0.9887
2.4894 1.4429 -0.3418 0.9885
2.4887 1.5645 -0.3492 0.9882
2.4999 2.6401 -0.4319 0.9855
2.4745 3.2525 -0.4855 0.9837
2.4653 4.4416 -0.6034 0.9797
2.4584 5.2923 -0.6932 0.9768
2.4329 8.1174 -1.0066 0.9664
2.4075 10.7988 -1.3142 0.9564
1.5345 10.3269 -1.2402 0.9588
0.8217 20.6553 -2.4555 0.9201
-0.6829 21.2827 -2.5294 0.9178
-1.4247 20.9207 -2.4908 0.9190
-2.1425 20.5437 -2.4535 0.9202
-2.8366 20.1530 -2.4175 0.9213
2.4888 0.9987 -0.3800 0.9892
2.4882 1.1038 -0.3857 0.9891
2.4843 1.6892 -0.4257 0.9879
2.4834 1.8223 -0.4364 0.9876
2.4823 1.9625 -0.4484 0.9873
2.4697 3.2461 -0.5779 0.9837
2.4675 3.4971 -0.6064 0.9829
2.4652 3.7746 -0.6388 0.9820
2.4337 7.1726 -1.0732 0.9699
2.4316 8.1131 -1.2001 0.9664
2.4112 9.2394 -1.3530 0.9622
1.9784 17.6535 -2.5170 0.9307
1.3249 17.4738 -2.4830 0.9317
0.6873 17.2761 -2.4498 0.9325
0.0656 17.0613 -2.4174 0.9334
-1.2006 17.6301 -2.5038 0.9311
-2.4015 17.0621 -2.4414 0.9328
2.4862 0.8954 -0.4353 0.9893
2.4856 0.9975 -0.4412 0.9892
2.4787 1.9596 -0.5205 0.9873
2.4730 2.6116 -0.5925 0.9855
2.4688 2.8023 -0.6153 0.9850
2.4669 3.0116 -0.6413 0.9843
2.4624 3.4899 -0.7036 0.9828
2.4568 4.0742 -0.7838 0.9809
2.4533 4.4200 -0.8328 0.9797
2.4327 6.4041 -1.1286 0.9726
2.4248 7.1465 -1.2432 0.9699
2.4005 9.1984 -1.5661 0.9622
2.3830 10.6887 -1.8041 0.9566
2.3590 12.7157 -2.1305 0.9489
0.5901 14.8337 -2.4456 0.9416
0.0564 14.6768 -2.4179 0.9422
-0.4947 15.4191 -2.5414 0.9394
-1.0365 15.2207 -2.5133 0.9400
-1.5652 15.0077 -2.4858 0.9407
-2.0804 14.7807 -2.4590 0.9413
2.4784 1.5580 -0.5502 0.9882
2.4773 1.6844 -0.5631 0.9879
2.4722 2.2610 -0.6297 0.9865
2.4688 2.6072 -0.6749 0.9855
2.4644 2.7972 -0.7007 0.9849
2.4599 3.2333 -0.7636 0.9836
2.4573 3.4827 -0.8012 0.9828
2.4544 3.7581 -0.8437 0.9819
2.4511 4.0648 -0.8922 0.9809
2.4473 4.4092 -0.9478 0.9797
2.4378 5.2479 -1.0876 0.9767
2.4318 5.7686 -1.1767 0.9748
2.4159 7.1203 -1.4133 0.9699
2.3708 10.6340 -2.0478 0.9566
2.3448 12.6388 -2.4161 0.9490
1.4769 13.1783 -2.4925 0.9475
0.9925 13.0890 -2.4673 0.9480
0.5166 12.9845 -2.4425 0.9485
-0.4343 13.5347 -2.5453 0.9464
2.4786 1.0996 -0.5732 0.9890
2.4778 1.2075 -0.5826 0.9888
2.4759 1.4351 -0.6049 0.9884
2.4749 1.5559 -0.6179 0.9881
2.4738 1.6820 -0.6323 0.9878
2.4698 2.1010 -0.6854 0.9868
2.4682 2.2574 -0.7070 0.9864
2.4599 2.7921 -0.7866 0.9849
2.4576 3.0002 -0.8198 0.9843
2.4550 3.2269 -0.8571 0.9836
2.4522 3.4754 -0.8991 0.9828
2.4454 4.0553 -1.0010 0.9808
2.4364 4.7871 -1.1354 0.9783
2.4244 5.7510 -1.3192 0.9748
2.4071 7.0942 -1.5835 0.9698
2.3953 7.9920 -1.7636 0.9665
2.3791 9.1165 -1.9916 0.9622
1.5276 10.2802 -2.1969 0.9584
1.3089 11.6798 -2.4843 0.9531
0.8807 11.6140 -2.4620 0.9535
0.4589 11.5343 -2.4400 0.9539
-1.2290 11.7845 -2.5045 0.9527
2.4754 1.0981 -0.6364 0.9889
2.4745 1.2059 -0.6469 0.9888
2.4736 1.3174 -0.6587 0.9886
2.4702 1.6796 -0.7021 0.9878
2.4689 1.8117 -0.7197 0.9875
2.4675 1.9508 -0.7393 0.9872
2.4642 2.2537 -0.7849 0.9864
2.4553 2.7870 -0.8729 0.9849
2.4529 2.9945 -0.9097 0.9842
2.4436 3.7416 -1.0503 0.9818
2.4397 4.0458 -1.1104 0.9808
2.4240 5.2182 -1.3522 0.9766
2.4169 5.7332 -1.4623 0.9748
2.3855 7.9591 -1.9528 0.9664
2.3684 9.0756 -2.2044 0.9622
1.9547 10.5360 -2.5184 0.9569
1.1741 10.4770 -2.4778 0.9576
0.4124 10.3655 -2.4381 0.9583
0.0396 10.2910 -2.4186 0.9586
-0.3481 10.8479 -2.5508 0.9564
-0.7317 10.7437 -2.5309 0.9567
-1.1083 10.6275 -2.5113 0.9570
-1.4778 10.4998 -2.4920 0.9574
2.4737 0.8910 -0.6808 0.9892
2.4729 0.9924 -0.6899 0.9891
2.4721 1.0967 -0.7002 0.9889
2.4712 1.2043 -0.7118 0.9887
2.4702 1.3156 -0.7246 0.9885
2.4679 1.5515 -0.7548 0.9880
2.4666 1.6772 -0.7723 0.9878
2.4653 1.8090 -0.7917 0.9874
2.4637 1.9478 -0.8132 0.9871
2.4621 2.0945 -0.8369 0.9867
2.4582 2.4160 -0.8924 0.9859
2.4508 2.7818 -0.9599 0.9848
2.4482 2.9887 -1.0003 0.9842
2.4419 3.4608 -1.0966 0.9827
2.4339 4.0363 -1.2204 0.9807
2.4291 4.3764 -1.2960 0.9795
2.4235 4.7617 -1.3834 0.9782
2.4170 5.2032 -1.4854 0.9766
2.4094 5.7154 -1.6059 0.9747
2.4003 6.3187 -1.7501 0.9725
2.3756 7.9262 -2.1424 0.9664
2.3577 9.0346 -2.4176 0.9622
1.7677 9.5280 -2.5091 0.9608
1.4139 9.5149 -2.4906 0.9610
1.0635 9.4894 -2.4724 0.9613
0.7167 9.4519 -2.4543 0.9616
0.3741 9.4026 -2.4364 0.9619
0.0360 9.3550 -2.4222 0.9621
-0.6651 9.7670 -2.5347 0.9604
2.4705 0.8898 -0.7434 0.9891
2.4688 1.0952 -0.7646 0.9888
2.4678 1.2027 -0.7772 0.9887
2.4644 1.5492 -0.8241 0.9880
2.4599 1.9448 -0.8877 0.9870
2.4562 2.2464 -0.9423 0.9863
2.4541 2.4119 -0.9741 0.9858
2.4517 2.5892 -1.0094 0.9853
2.4462 2.7766 -1.0476 0.9847
2.4366 3.4534 -1.1965 0.9826
2.4229 4.3653 -1.4134 0.9795
2.4100 5.1881 -1.6194 0.9765
2.4018 5.6975 -1.7504 0.9746
2.3921 6.2971 -1.9070 0.9724
2.3656 7.8931 -2.3327 0.9663
2.2613 8.6650 -2.5352 0.9635
1.6117 8.6872 -2.5013 0.9639
0.6547 8.6344 -2.4514 0.9646
0.3419 8.5948 -2.4351 0.9649
0.0330 8.5693 -2.4259 0.9650
-1.2335 8.7638 -2.5054 0.9639
2.4673 0.8886 -0.8066 0.9891
2.4664 0.9898 -0.8174 0.9889
2.4655 1.0938 -0.8296 0.9888
2.4621 1.4271 -0.8753 0.9882
2.4542 2.0878 -0.9911 0.9866
2.4521 2.2427 -1.0221 0.9862
2.4474 2.5846 -1.0948 0.9852
2.4416 2.7713 -1.1360 0.9847
2.4385 2.9770 -1.1836 0.9840
2.4352 3.2007 -1.2370 0.9833
2.4271 3.7163 -1.3652 0.9816
2.4223 4.0170 -1.4428 0.9806
2.4030 5.1729 -1.7544 0.9764
2.3943 5.6795 -1.8958 0.9745
2.3838 6.2755 -2.0648 0.9723
2.3712 6.9886 -2.2699 0.9696
2.3557 7.8599 -2.5238 0.9662
2.0735 7.9452 -2.5256 0.9662
1.7758 7.9653 -2.5101 0.9664
0.8922 7.9611 -2.4640 0.9670
-0.8517 8.1669 -2.5256 0.9662
-1.1377 8.0831 -2.5107 0.9664
2.4640 0.8875 -0.8706 0.9890
2.4631 0.9884 -0.8822 0.9889
2.4586 1.4251 -0.9446 0.9881
2.4572 1.5447 -0.9648 0.9878
2.4540 1.8008 -1.0118 0.9873
2.4522 1.9387 -1.0391 0.9869
2.4456 2.4036 -1.1398 0.9856
2.4430 2.5799 -1.1811 0.9851
2.4369 2.7660 -1.2254 0.9846
2.4215 3.7078 -1.4720 0.9815
2.4164 4.0072 -1.5554 0.9805
2.4105 4.3429 -1.6511 0.9793
2.3756 6.2536 -2.2237 0.9722
2.3622 6.9619 -2.4438 0.9695
2.1867 7.2959 -2.5318 0.9684
1.9124 7.3280 -2.5175 0.9686
1.6387 7.3500 -2.5032 0.9688
1.3659 7.3620 -2.4889 0.9689
0.8245 7.3567 -2.4607 0.9693
0.2910 7.3133 -2.4329 0.9696
-0.2467 7.6894 -2.5573 0.9681
-0.5198 7.6329 -2.5431 0.9683
-0.7892 7.5673 -2.5291 0.9684
-1.0546 7.4929 -2.5152 0.9686
2.4587 1.0908 -0.9619 0.9886
2.4564 1.3082 -0.9952 0.9882
2.4550 1.4230 -1.0147 0.9880
2.4519 1.6672 -1.0603 0.9875
2.4439 2.2351 -1.1843 0.9860
2.4385 2.5752 -1.2683 0.9850
2.4249 3.1873 -1.4322 0.9831
2.4207 3.4307 -1.5015 0.9823
2.4159 3.6991 -1.5800 0.9814
2.3970 4.7096 -1.8898 0.9778
2.3789 5.6431 -2.1900 0.9743
2.3672 6.2316 -2.3838 0.9721
2.2794 6.7177 -2.5368 0.9703
2.0261 6.7598 -2.5236 0.9705
1.7727 6.7924 -2.5104 0.9706
1.5195 6.8156 -2.4972 0.9708
1.2671 6.8296 -2.4840 0.9709
1.0156 6.8344 -2.4709 0.9711
0.7654 6.8302 -2.4578 0.9712
0.5170 6.8172 -2.4449 0.9714
0.2704 6.7954 -2.4320 0.9715
-0.4836 7.1008 -2.5452 0.9702
-0.7344 7.0425 -2.5321 0.9704
-0.9819 6.9759 -2.5192 0.9705
2.4574 0.8851 -1.0009 0.9889
2.4514 1.4209 -1.0858 0.9879
2.4482 1.6646 -1.1345 0.9874
2.4443 1.9324 -1.1941 0.9867
2.4421 2.0775 -1.2287 0.9864
2.4370 2.3951 -1.3094 0.9855
2.4340 2.5705 -1.3566 0.9850
2.4273 2.7552 -1.4071 0.9844
2.4197 3.1804 -1.5315 0.9830
2.4153 3.4230 -1.6054 0.9822
2.4102 3.6904 -1.6891 0.9813
2.4044 3.9873 -1.7843 0.9803
2.3815 5.1266 -2.1662 0.9761
2.3546 6.1984 -2.5410 0.9720
1.8853 6.2901 -2.5164 0.9723
1.6501 6.3228 -2.5042 0.9724
0.7136 6.3672 -2.4553 0.9729
0.0245 6.3738 -2.4426 0.9731
-0.4516 6.6311 -2.5470 0.9719
-0.6861 6.5789 -2.5348 0.9721
-0.9175 6.5188 -2.5228 0.9722
2.4518 1.0877 -1.0978 0.9885
2.4492 1.3044 -1.1357 0.9881
2.4403 1.9292 -1.2732 0.9866
2.4326 2.3908 -1.3959 0.9854
2.4295 2.5657 -1.4461 0.9848
2.4225 2.7497 -1.4998 0.9843
2.4145 3.1735 -1.6320 0.9829
2.4044 3.6815 -1.7996 0.9812
2.3914 4.3084 -2.0167 0.9789
1.5417 5.9072 -2.4987 0.9740
1.3224 5.9315 -2.4872 0.9741
1.1035 5.9477 -2.4758 0.9742
0.6675 5.9564 -2.4531 0.9744
-0.2006 6.2524 -2.5603 0.9733
-0.8602 6.1114 -2.5259 0.9737
2.4505 0.8826 -1.1351 0.9887
2.4483 1.0861 -1.1673 0.9884
2.4470 1.1925 -1.1863 0.9882
2.4440 1.4166 -1.2311 0.9877
2.4404 1.6594 -1.2861 0.9872
2.4384 1.7893 -1.3181 0.9869
2.4362 1.9260 -1.3535 0.9865
2.4281 2.3864 -1.4837 0.9853
2.4176 2.7441 -1.5938 0.9842
2.4041 3.4073 -1.8174 0.9820
2.3985 3.6725 -1.9117 0.9810
2.0580 5.4178 -2.5258 0.9750
1.6498 5.5046 -2.5045 0.9752
1.2398 5.5610 -2.4831 0.9754
0.8303 5.5871 -2.4617 0.9757
0.4234 5.5837 -2.4405 0.9759
0.0217 5.6390 -2.4576 0.9757
-0.6043 5.7953 -2.5394 0.9749
-0.8087 5.7457 -2.5287 0.9750
2.4470 0.8813 -1.2039 0.9886
2.4459 0.9815 -1.2199 0.9885
2.4446 1.0845 -1.2379 0.9883
2.4433 1.1907 -1.2581 0.9881
2.4384 1.5329 -1.3332 0.9874
2.4365 1.6566 -1.3638 0.9871
2.4295 2.0667 -1.4764 0.9860
2.4236 2.3819 -1.5729 0.9851
2.4084 2.9401 -1.7592 0.9834
2.3859 3.9566 -2.1387 0.9798
2.3782 4.2847 -2.2683 0.9786
2.3694 4.6554 -2.4180 0.9772
2.1226 5.0351 -2.5293 0.9762
1.9328 5.0880 -2.5194 0.9763
1.5503 5.1723 -2.4994 0.9765
1.1655 5.2279 -2.4793 0.9767
0.3985 5.2546 -2.4393 0.9770
-0.1775 5.5314 -2.5617 0.9759
-0.3745 5.4994 -2.5515 0.9760
2.4434 0.8800 -1.2739 0.9885
2.4409 1.0829 -1.3099 0.9882
2.4396 1.1889 -1.3312 0.9880
2.4363 1.4121 -1.3813 0.9875
2.4344 1.5304 -1.4105 0.9873
2.4031 2.9337 -1.8602 0.9832
2.3795 3.9460 -2.2603 0.9797
2.3714 4.2726 -2.3970 0.9785
2.3500 4.6172 -2.5413 0.9772
2.1748 4.6817 -2.5322 0.9773
1.4602 4.8719 -2.4948 0.9776
1.2795 4.9026 -2.4854 0.9777
1.0984 4.9265 -2.4759 0.9778
0.9172 4.9438 -2.4665 0.9778
0.3759 4.9564 -2.4382 0.9781
-0.1675 5.2211 -2.5624 0.9770
-0.3536 5.1920 -2.5527 0.9771
2.4397 0.8787 -1.3453 0.9884
2.4386 0.9786 -1.3631 0.9882
2.4372 1.0812 -1.3832 0.9881
2.4324 1.4099 -1.4585 0.9874
2.4260 1.7802 -1.5611 0.9865
2.4235 1.9160 -1.6027 0.9862
2.4176 2.2111 -1.6996 0.9853
2.4023 2.7267 -1.8853 0.9838
2.3977 2.9271 -1.9629 0.9831
2.3646 4.2603 -2.5277 0.9783
2.2160 4.3539 -2.5344 0.9782
2.0512 4.4156 -2.5258 0.9783
1.8847 4.4709 -2.5171 0.9784
1.7170 4.5199 -2.5083 0.9784
1.5481 4.5626 -2.4995 0.9785
1.3784 4.5988 -2.4906 0.9786
1.0373 4.6524 -2.4728 0.9787
0.6956 4.6808 -2.4550 0.9789
0.5252 4.6858 -2.4461 0.9790
0.1866 4.6887 -2.4343 0.9791
0.0184 4.7715 -2.4754 0.9787
-0.3344 4.9113 -2.5538 0.9781
2.4348 0.9771 -1.4369 0.9881
2.4302 1.2943 -1.5080 0.9875
2.4283 1.4075 -1.5373 0.9873
2.4190 1.9125 -1.6890 0.9860
2.4161 2.0554 -1.7374 0.9856
2.4129 2.2068 -1.7910 0.9852
2.4094 2.3680 -1.8503 0.9847
2.4055 2.5403 -1.9162 0.9842
2.3922 2.9204 -2.0676 0.9829
2.3741 3.6351 -2.3780 0.9804
1.9384 4.1728 -2.5200 0.9792
1.7815 4.2259 -2.5118 0.9793
1.4639 4.3142 -2.4952 0.9794
1.3036 4.3493 -2.4868 0.9795
0.4971 4.4358 -2.4447 0.9798
0.3364 4.4356 -2.4364 0.9799
0.1763 4.4296 -2.4280 0.9800
0.0174 4.5286 -2.4804 0.9796
-0.3169 4.6538 -2.5548 0.9790
-0.4822 4.6238 -2.5462 0.9790
-0.6457 4.5881 -2.5377 0.9791
2.4323 0.8760 -1.4926 0.9881
2.4295 1.0778 -1.5345 0.9878
2.4221 1.5227 -1.6518 0.9869
2.4198 1.6454 -1.6895 0.9866
2.4173 1.7738 -1.7311 0.9862
2.4146 1.9089 -1.7771 0.9859
2.4115 2.0515 -1.8279 0.9855
2.3866 2.9136 -2.1745 0.9828
2.3748 3.3657 -2.3782 0.9812
2.2696 3.7637 -2.5374 0.9799
2.1267 3.8314 -2.5300 0.9800
1.9817 3.8936 -2.5224 0.9800
1.6868 4.0012 -2.5070 0.9801
1.3865 4.0862 -2.4913 0.9803
0.6241 4.1999 -2.4515 0.9806
0.4714 4.2059 -2.4435 0.9806
0.3190 4.2064 -2.4355 0.9807
0.1672 4.2014 -2.4276 0.9808
-0.1424 4.4387 -2.5640 0.9797
