ply
format ascii 1.0
element vertex 555
property float32 x
property float32 y
property float32 z
property float32 I
end_header
12.7650 35.6681 6.6799 0.8574
9.9182 41.4247 7.5107 0.8411
3.4836 38.5595 6.8268 0.8545
-24.9568 29.2209 6.7759 0.8555
-27.0178 25.4369 6.5431 0.8601
-27.2401 23.8453 6.3835 0.8633
16.5990 41.5703 6.8573 0.8343
14.7498 41.2143 6.7059 0.8377
11.5953 41.6976 6.6302 0.8393
9.9933 41.7384 6.5748 0.8406
1.6915 10.3144 1.6012 0.9586
3.4779 38.4953 5.9213 0.8552
-27.0502 31.6720 6.3808 0.8449
-27.1152 29.5131 6.1398 0.8503
-27.0868 27.4190 5.9044 0.8556
-27.2656 25.6701 5.7369 0.8594
-27.2824 23.8823 5.5546 0.8635
-27.3908 22.2778 5.4088 0.8669
-27.4594 17.7615 5.0099 0.8760
16.4697 41.2465 5.7835 0.8360
14.8314 41.4424 5.7318 0.8373
9.9814 41.6889 5.5822 0.8412
1.6897 10.3034 1.3596 0.9588
-27.0983 31.7283 5.4335 0.8451
-27.0940 29.4901 5.2149 0.8508
-27.2612 27.5955 5.0513 0.8552
-27.3246 23.9193 4.7289 0.8637
-27.3271 20.6276 4.4586 0.8710
-27.4581 19.2060 4.3635 0.8736
-27.4977 17.7863 4.2646 0.8763
-27.3667 23.9561 3.9055 0.8639
-27.4128 22.2956 3.7943 0.8675
-27.5359 17.8110 3.5215 0.8764
1.6862 10.2817 0.8820 0.9590
-27.3093 27.6442 3.2895 0.8556
-25.3586 23.8747 2.9484 0.8695
-27.4536 22.3289 2.9957 0.8676
-27.5360 19.2605 2.8446 0.8738
-27.5740 17.8356 2.7800 0.8765
7.9927 20.0167 1.3365 0.9172
-27.0277 34.0710 2.6968 0.8401
-27.3001 29.7144 2.5022 0.8507
-27.3644 25.7631 2.3306 0.8602
-27.4506 24.0296 2.2623 0.8640
-27.5026 22.3687 2.1983 0.8676
-25.7780 19.4583 2.0028 0.8786
-27.5749 19.2877 2.0867 0.8738
7.9655 19.9486 0.8470 0.9176
1.6828 10.2612 0.4100 0.9592
-26.0747 35.4334 1.7347 0.8385
-27.1966 31.8435 1.6513 0.8457
-27.3286 27.6637 1.5333 0.8558
-27.4075 25.8038 1.4843 0.8601
-25.7830 20.9701 1.3105 0.8754
-25.8207 19.4905 1.2756 0.8785
-25.8905 16.7467 1.2158 0.8839
7.9386 19.8811 0.3616 0.9179
8.4992 42.1929 0.7270 0.8418
1.6823 10.2580 0.1756 0.9593
-27.3378 32.0088 0.7111 0.8450
-25.7505 28.0277 0.6429 0.8588
-25.7211 26.0365 0.6183 0.8638
-27.1156 23.7363 0.6087 0.8657
-27.5795 22.4313 0.6005 0.8674
-25.8929 18.1112 0.5338 0.8813
7.9118 19.8141 -0.1201 0.9182
8.4418 41.9079 -0.2407 0.8428
2.3540 43.6517 -0.2461 0.8396
-25.5593 32.2200 -0.2315 0.8483
-25.6130 29.9892 -0.2220 0.8541
-25.6625 27.9319 -0.2136 0.8592
-25.7914 22.5771 -0.1930 0.8719
-25.8292 21.0077 -0.1874 0.8753
-25.8650 19.5239 -0.1825 0.8784
-25.8989 18.1154 -0.1779 0.8812
2.4832 6.2189 -0.1886 0.9736
2.4771 7.8016 -0.2305 0.9678
2.4690 8.8789 -0.2595 0.9638
2.4621 10.2836 -0.2977 0.9586
2.4528 12.1768 -0.3498 0.9515
1.6812 10.2516 -0.2925 0.9593
2.4189 19.0463 -0.5406 0.9260
2.3071 42.7810 -1.2064 0.8425
-22.7515 42.7059 -1.3625 0.8240
-23.3967 37.1569 -1.2364 0.8389
-23.5043 34.4909 -1.1753 0.8462
-24.6560 31.0812 -1.1171 0.8532
-25.1106 29.4009 -1.0887 0.8567
-25.3498 27.5916 -1.0550 0.8608
-25.3431 25.6539 -1.0154 0.8656
-25.5398 24.0454 -0.9877 0.8690
-25.9355 18.1410 -0.8912 0.8810
-25.9671 16.7962 -0.8708 0.8836
2.4754 6.1993 -0.3385 0.9736
2.4719 6.9070 -0.3720 0.9710
2.4676 7.7715 -0.4135 0.9679
2.4014 18.9086 -0.9666 0.9265
2.2619 41.9436 -2.1302 0.8452
0.8484 48.0610 -2.4378 0.8249
-0.9148 49.2428 -2.4977 0.8210
-4.1756 45.7464 -2.3296 0.8320
-5.6408 44.0887 -2.2541 0.8369
-7.0079 42.4858 -2.1837 0.8416
-10.5961 37.9688 -1.9991 0.8540
-11.6425 36.5498 -1.9454 0.8576
-13.5426 33.8251 -1.8478 0.8642
-14.4052 32.5145 -1.8035 0.8672
-15.2149 31.2356 -1.7620 0.8701
-15.9752 29.9863 -1.7231 0.8728
-16.6891 28.7647 -1.6865 0.8753
-17.3595 27.5691 -1.6522 0.8777
-17.9892 26.3979 -1.6201 0.8799
-19.1358 24.1224 -1.5615 0.8840
-19.6568 23.0154 -1.5350 0.8858
-20.1456 21.9271 -1.5101 0.8876
-20.6037 20.8563 -1.4868 0.8892
-21.0328 19.8021 -1.4650 0.8907
-21.8093 17.7381 -1.4257 0.8935
-22.1591 16.7266 -1.4080 0.8948
-22.4849 15.7274 -1.3916 0.8959
-22.7876 14.7396 -1.3763 0.8970
2.4633 6.8831 -0.5360 0.9711
2.4484 8.8047 -0.6701 0.9640
2.4385 10.1851 -0.7679 0.9589
2.4253 12.0400 -0.9005 0.9519
1.6802 10.2453 -0.7612 0.9592
2.3331 25.8248 -1.9012 0.9012
-1.8365 33.4800 -2.4585 0.8742
-2.9749 32.5919 -2.3997 0.8770
-5.0844 30.8240 -2.2906 0.8822
-6.0609 29.9454 -2.2402 0.8847
-6.9888 29.0710 -2.1923 0.8870
-8.7077 27.3365 -2.1036 0.8913
-12.3025 23.0926 -1.9185 0.9004
-12.9153 22.2604 -1.8870 0.9019
-13.4962 21.4337 -1.8572 0.9034
-14.0467 20.6125 -1.8289 0.9048
-14.5679 19.7967 -1.8022 0.9061
-15.5275 18.1806 -1.7531 0.9086
-16.7751 15.7935 -1.6893 0.9117
-17.1434 15.0069 -1.6706 0.9127
-18.1171 12.6723 -1.6211 0.9151
2.3061 25.5250 -2.4605 0.9021
0.4467 25.3030 -2.4296 0.9033
-0.4900 26.3768 -2.5327 0.8994
-1.4175 25.8417 -2.4847 0.9012
-3.1648 24.7362 -2.3942 0.9046
-3.9865 24.1682 -2.3516 0.9063
-4.7749 23.5915 -2.3108 0.9078
-6.2557 22.4157 -2.2343 0.9107
-7.6148 21.2158 -2.1640 0.9134
-9.9968 18.7645 -2.0412 0.9181
-10.5271 18.1441 -2.0139 0.9192
-11.5147 16.8971 -1.9631 0.9211
-11.9736 16.2712 -1.9395 0.9220
-12.8246 15.0158 -1.8958 0.9237
-13.2179 14.3868 -1.8756 0.9245
-14.5899 11.8664 -1.8055 0.9272
-14.8851 11.2359 -1.7905 0.9278
2.4279 8.7312 -1.0765 0.9642
2.3982 11.9054 -1.4426 0.9523
2.3377 18.4072 -2.2041 0.9280
1.8996 21.0260 -2.5078 0.9185
0.3608 20.4356 -2.4278 0.9210
-0.3972 21.3825 -2.5404 0.9175
-3.2760 19.8611 -2.3911 0.9221
-3.9361 19.4472 -2.3569 0.9232
-4.5729 19.0220 -2.3239 0.9242
-6.3479 17.6862 -2.2321 0.9271
-9.7497 14.3071 -2.0566 0.9326
-10.1570 13.8025 -2.0356 0.9333
-11.9218 11.2242 -1.9450 0.9362
-12.2229 10.6996 -1.9296 0.9367
-12.5074 10.1727 -1.9151 0.9371
-13.2642 8.5797 -1.8765 0.9383
2.4443 6.1214 -0.9339 0.9737
2.4298 7.6526 -1.1376 0.9681
2.4178 8.6947 -1.2787 0.9642
2.4037 10.0396 -1.4627 0.9592
2.3847 11.8387 -1.7111 0.9524
0.9347 17.3334 -2.4595 0.9323
0.3023 17.1239 -2.4267 0.9331
-0.3337 17.9631 -2.5456 0.9300
-1.5912 17.4329 -2.4803 0.9317
-2.1936 17.1451 -2.4491 0.9326
-3.8947 16.2008 -2.3609 0.9349
-4.4266 15.8618 -2.3333 0.9356
-6.3815 14.4038 -2.2322 0.9383
-6.8277 14.0170 -2.2091 0.9390
-7.2573 13.6223 -2.1870 0.9395
-9.1618 11.5494 -2.0888 0.9422
-9.4955 11.1179 -2.0716 0.9426
-10.4053 9.7964 -2.0249 0.9439
-10.9378 8.8961 -1.9977 0.9446
-11.1824 8.4409 -1.9852 0.9450
2.4076 8.6582 -1.4805 0.9642
2.3922 9.9914 -1.6925 0.9592
0.8021 14.8746 -2.4540 0.9414
0.2599 14.7227 -2.4258 0.9421
-3.3889 14.0967 -2.3884 0.9429
-5.1796 12.9370 -2.2957 0.9451
-5.9910 12.2992 -2.2537 0.9460
-7.1037 11.2816 -2.1963 0.9474
-7.7768 10.5681 -2.1616 0.9482
-8.0931 10.2021 -2.1453 0.9486
-8.3958 9.8304 -2.1297 0.9489
-9.2243 8.6846 -2.0871 0.9499
-9.9354 7.4997 -2.0507 0.9508
2.4288 6.0825 -1.2311 0.9737
2.3975 8.6218 -1.6821 0.9642
2.3807 9.9434 -1.9218 0.9592
0.7018 13.0146 -2.4498 0.9483
0.2277 12.9004 -2.4251 0.9488
-1.6734 13.0796 -2.4785 0.9477
-2.1257 12.8871 -2.4550 0.9482
-2.9968 12.4657 -2.4098 0.9492
-3.4152 12.2378 -2.3881 0.9496
-3.8222 11.9991 -2.3670 0.9500
-4.6010 11.4918 -2.3267 0.9509
-4.9727 11.2240 -2.3075 0.9513
-5.6806 10.6627 -2.2709 0.9520
-6.3408 10.0700 -2.2368 0.9527
-7.2420 9.1292 -2.1903 0.9537
-8.0365 8.1351 -2.1494 0.9545
-8.5076 7.4473 -2.1252 0.9550
-9.1269 6.3839 -2.0935 0.9557
2.4123 6.7406 -1.5133 0.9712
2.4017 7.5639 -1.6775 0.9681
2.3874 8.5854 -1.8836 0.9642
2.3692 9.8954 -2.1508 0.9593
1.4850 11.6924 -2.4914 0.9530
0.2024 11.4687 -2.4246 0.9542
-0.2245 12.0833 -2.5546 0.9518
-0.6561 11.9613 -2.5322 0.9522
-2.2964 11.3461 -2.4470 0.9538
-2.6836 11.1631 -2.4269 0.9541
-4.1351 10.3282 -2.3516 0.9555
-4.8005 9.8553 -2.3172 0.9562
-5.1178 9.6064 -2.3008 0.9565
-5.4247 9.3499 -2.2849 0.9568
-6.5476 8.2538 -2.2270 0.9578
-6.8019 7.9641 -2.2139 0.9581
-7.0457 7.6688 -2.2013 0.9583
-7.2790 7.3682 -2.1893 0.9585
-8.1063 6.1190 -2.1469 0.9593
-8.2868 5.7963 -2.1377 0.9595
-8.4568 5.4701 -2.1290 0.9597
2.4038 6.7168 -1.6766 0.9711
2.3923 7.5343 -1.8578 0.9680
2.1218 10.5331 -2.5253 0.9568
1.3317 10.4852 -2.4841 0.9575
0.9433 10.4409 -2.4638 0.9578
0.5600 10.3834 -2.4439 0.9582
0.1821 10.3131 -2.4242 0.9585
-0.2020 10.8756 -2.5565 0.9563
-0.9733 10.6625 -2.5164 0.9570
-1.3482 10.5380 -2.4969 0.9573
-2.0756 10.2553 -2.4591 0.9579
-3.1066 9.7528 -2.4056 0.9588
-3.4335 9.5660 -2.3887 0.9591
-4.6525 8.7330 -2.3256 0.9602
-4.9346 8.5051 -2.3110 0.9604
-5.2074 8.2700 -2.2969 0.9606
-5.4709 8.0282 -2.2833 0.9609
-6.8529 6.4519 -2.2121 0.9621
-7.0497 6.1711 -2.2020 0.9622
-7.2369 5.8860 -2.1924 0.9624
-7.5823 5.3036 -2.1747 0.9627
-7.7405 5.0068 -2.1666 0.9628
2.4053 6.0239 -1.6794 0.9736
2.3829 7.5046 -2.0387 0.9680
2.3671 8.5123 -2.2876 0.9642
1.9183 9.5230 -2.5152 0.9607
1.2058 9.4946 -2.4781 0.9612
0.8548 9.4617 -2.4598 0.9615
0.5079 9.4167 -2.4417 0.9618
0.1653 9.3601 -2.4239 0.9621
-0.5372 9.7937 -2.5396 0.9603
-1.5628 9.4746 -2.4863 0.9611
-1.8918 9.3471 -2.4692 0.9614
-2.2140 9.2096 -2.4525 0.9616
-2.8370 8.9062 -2.4201 0.9621
-3.7150 8.3853 -2.3746 0.9628
-3.9920 8.1955 -2.3603 0.9630
-4.5217 7.7935 -2.3329 0.9635
-5.2537 7.1394 -2.2951 0.9640
-5.4807 6.9090 -2.2834 0.9642
-5.9088 6.4314 -2.2613 0.9646
-6.1098 6.1848 -2.2510 0.9647
-6.3020 5.9333 -2.2411 0.9649
-6.4854 5.6772 -2.2317 0.9650
-6.6600 5.4167 -2.2227 0.9652
-6.8256 5.1522 -2.2142 0.9653
-7.1301 4.6120 -2.1987 0.9655
2.3975 6.0042 -1.8302 0.9735
2.3866 6.6689 -2.0052 0.9710
2.0760 8.6704 -2.5239 0.9636
1.7487 8.6808 -2.5068 0.9639
1.4234 8.6793 -2.4899 0.9641
1.1006 8.6662 -2.4730 0.9643
0.7807 8.6417 -2.4564 0.9646
0.1511 8.5597 -2.4236 0.9650
-0.1679 9.0388 -2.5593 0.9631
-0.8110 8.8853 -2.5258 0.9636
-1.1249 8.7929 -2.5095 0.9638
-1.4335 8.6905 -2.4935 0.9640
-2.0331 8.4570 -2.4623 0.9645
-2.8855 8.0395 -2.4181 0.9651
-3.1564 7.8837 -2.4041 0.9653
-3.4203 7.7201 -2.3904 0.9655
-3.6771 7.5489 -2.3771 0.9657
-3.9266 7.3705 -2.3642 0.9659
-4.1688 7.1852 -2.3517 0.9661
-4.4035 6.9932 -2.3395 0.9662
-4.6305 6.7949 -2.3278 0.9664
-5.0614 6.3804 -2.3056 0.9667
-5.4608 5.9437 -2.2850 0.9670
-5.6485 5.7178 -2.2753 0.9671
-6.1629 5.0125 -2.2489 0.9675
-6.3179 4.7690 -2.2409 0.9676
2.3895 5.9843 -1.9820 0.9734
2.3780 6.6447 -2.1707 0.9709
2.3639 7.4448 -2.4025 0.9678
2.2046 7.9281 -2.5310 0.9661
1.6049 7.9671 -2.4997 0.9666
1.3071 7.9702 -2.4842 0.9668
1.0113 7.9625 -2.4688 0.9670
0.1391 7.8775 -2.4233 0.9676
-0.1546 8.3228 -2.5604 0.9658
-1.3226 8.0184 -2.4996 0.9666
-1.6028 7.9189 -2.4851 0.9668
-2.6686 7.4352 -2.4298 0.9675
-2.9204 7.2943 -2.4167 0.9677
-3.1659 7.1459 -2.4040 0.9678
-3.6376 6.8279 -2.3796 0.9681
-3.8634 6.6588 -2.3679 0.9683
-4.0824 6.4834 -2.3566 0.9684
-4.4995 6.1144 -2.3350 0.9687
-4.6974 5.9214 -2.3248 0.9689
-4.8880 5.7231 -2.3150 0.9690
-5.2471 5.3115 -2.2965 0.9692
-5.7297 4.6602 -2.2717 0.9696
-5.8754 4.4350 -2.2642 0.9697
-6.1435 3.9738 -2.2505 0.9698
0.9344 7.3569 -2.4651 0.9692
0.3948 7.3207 -2.4370 0.9696
0.1287 7.2885 -2.4231 0.9697
-0.1431 7.7041 -2.5613 0.9680
-0.4196 7.6506 -2.5469 0.9682
-0.9616 7.5160 -2.5187 0.9686
-1.2264 7.4354 -2.5050 0.9687
-1.7426 7.2487 -2.4782 0.9691
-2.2392 7.0296 -2.4524 0.9694
-2.4797 6.9086 -2.4399 0.9695
-3.1673 6.5025 -2.4043 0.9700
-3.5962 6.1984 -2.3821 0.9702
-3.8014 6.0371 -2.3715 0.9704
-4.1924 5.6971 -2.3513 0.9706
-4.5570 5.3357 -2.3324 0.9709
-4.7293 5.1475 -2.3236 0.9710
-5.0529 4.7572 -2.3069 0.9712
-5.2043 4.5557 -2.2991 0.9713
-5.3486 4.3502 -2.2917 0.9714
2.3735 5.9442 -2.2889 0.9732
2.1396 6.7386 -2.5283 0.9704
1.6289 6.8032 -2.5016 0.9707
1.3740 6.8213 -2.4883 0.9709
1.1201 6.8300 -2.4751 0.9710
0.6162 6.8200 -2.4488 0.9713
0.1196 6.7743 -2.4229 0.9716
-0.1331 7.1635 -2.5622 0.9700
-0.6445 7.0609 -2.5355 0.9703
-1.3852 6.8438 -2.4970 0.9708
-2.0883 6.5559 -2.4605 0.9712
-2.7483 6.2032 -2.4263 0.9716
-3.5531 5.6428 -2.3846 0.9721
-3.7399 5.4881 -2.3750 0.9722
-3.9208 5.3280 -2.3656 0.9723
-4.4262 4.8176 -2.3396 0.9726
-4.5820 4.6382 -2.3315 0.9727
-5.0103 4.0750 -2.3095 0.9729
-5.2625 3.6809 -2.2966 0.9731
1.7537 6.3064 -2.5084 0.9724
1.5166 6.3344 -2.4960 0.9725
1.2799 6.3535 -2.4837 0.9726
0.5745 6.3592 -2.4469 0.9730
-0.1242 6.6866 -2.5629 0.9718
-0.6020 6.5954 -2.5380 0.9720
-0.8364 6.5378 -2.5258 0.9722
-1.0676 6.4722 -2.5138 0.9723
-1.5189 6.3185 -2.4903 0.9725
-1.7388 6.2306 -2.4789 0.9727
-1.9545 6.1357 -2.4677 0.9728
-2.1657 6.0340 -2.4568 0.9729
-2.3724 5.9256 -2.4461 0.9730
-2.5744 5.8108 -2.4356 0.9731
-2.7715 5.6898 -2.4254 0.9733
-3.1504 5.4300 -2.4058 0.9735
-3.3319 5.2916 -2.3964 0.9736
-3.5080 5.1478 -2.3873 0.9737
-3.8434 4.8450 -2.3699 0.9739
-4.0024 4.6863 -2.3617 0.9739
-4.1556 4.5231 -2.3538 0.9740
-4.3028 4.3555 -2.3463 0.9741
-4.4439 4.1839 -2.3390 0.9742
-4.7076 3.8289 -2.3254 0.9743
-4.8302 3.6460 -2.3191 0.9744
-4.9463 3.4598 -2.3132 0.9745
2.0794 5.8103 -2.5257 0.9737
1.6383 5.8912 -2.5026 0.9739
0.9760 5.9508 -2.4681 0.9743
0.7562 5.9545 -2.4566 0.9744
0.5376 5.9502 -2.4452 0.9745
-1.6319 5.8476 -2.4847 0.9741
-1.8348 5.7601 -2.4742 0.9742
-2.0337 5.6661 -2.4639 0.9743
-2.4187 5.4595 -2.4439 0.9745
-2.6046 5.3471 -2.4343 0.9746
-2.7857 5.2290 -2.4249 0.9747
-2.9621 5.1054 -2.4158 0.9748
-3.6169 4.5594 -2.3819 0.9752
-3.7673 4.4110 -2.3742 0.9752
-3.9123 4.2582 -2.3667 0.9753
-4.0516 4.1013 -2.3595 0.9754
-4.1852 3.9403 -2.3526 0.9755
-4.3131 3.7756 -2.3460 0.9755
-4.4351 3.6072 -2.3398 0.9756
-4.6614 3.2604 -2.3282 0.9757
-4.7654 3.0824 -2.3228 0.9758
1.9476 5.4420 -2.5190 0.9751
1.7418 5.4854 -2.5083 0.9752
1.5353 5.5211 -2.4975 0.9753
1.3286 5.5490 -2.4867 0.9754
1.1219 5.5691 -2.4759 0.9755
0.9154 5.5817 -2.4651 0.9756
0.7096 5.5868 -2.4544 0.9757
0.5045 5.5844 -2.4437 0.9758
0.0981 5.5577 -2.4225 0.9760
-0.1092 5.8824 -2.5641 0.9747
-0.3208 5.8494 -2.5531 0.9748
-0.5302 5.8090 -2.5422 0.9749
-1.3409 5.5775 -2.5000 0.9753
-1.7271 5.4220 -2.4800 0.9755
-2.0986 5.2417 -2.4607 0.9757
-2.2784 5.1427 -2.4514 0.9758
-2.6253 4.9279 -2.4334 0.9759
-2.7921 4.8124 -2.4248 0.9760
-2.9543 4.6919 -2.4164 0.9761
-3.2644 4.4361 -2.4004 0.9763
-3.4120 4.3012 -2.3927 0.9763
-3.6921 4.0186 -2.3783 0.9765
-3.8241 3.8711 -2.3715 0.9765
-3.9509 3.7198 -2.3650 0.9766
-4.1881 3.4063 -2.3528 0.9767
-4.2984 3.2446 -2.3471 0.9768
-4.5019 2.9119 -2.3367 0.9769
2.0213 5.0621 -2.5231 0.9763
1.0548 5.2365 -2.4726 0.9767
0.8610 5.2497 -2.4625 0.9768
0.4748 5.2549 -2.4423 0.9770
0.0924 5.2324 -2.4224 0.9772
-0.3022 5.5098 -2.5543 0.9760
-0.4996 5.4731 -2.5440 0.9761
-0.8874 5.3796 -2.5238 0.9763
-1.0774 5.3230 -2.5139 0.9763
-1.2645 5.2601 -2.5042 0.9764
-1.6296 5.1158 -2.4853 0.9766
-1.9809 4.9478 -2.4670 0.9768
-2.1511 4.8554 -2.4582 0.9769
-2.4796 4.6545 -2.4412 0.9770
-2.6377 4.5463 -2.4330 0.9771
-3.7376 3.5189 -2.3762 0.9776
-3.9631 3.2233 -2.3646 0.9777
-4.1674 2.9150 -2.3541 0.9778
1.9029 4.7655 -2.5171 0.9774
1.7226 4.8132 -2.5076 0.9775
0.9942 4.9354 -2.4696 0.9778
0.2670 4.9501 -2.4317 0.9782
0.0872 4.9374 -2.4223 0.9782
-0.0971 5.2284 -2.5651 0.9770
-0.2853 5.2015 -2.5553 0.9771
-0.6561 5.1282 -2.5360 0.9772
-1.0180 5.0297 -2.5172 0.9774
-1.3694 4.9069 -2.4989 0.9776
-1.5407 4.8368 -2.4900 0.9776
-1.7089 4.7611 -2.4813 0.9777
-2.0350 4.5934 -2.4644 0.9779
-2.1928 4.5017 -2.4562 0.9779
-2.3468 4.4050 -2.4482 0.9780
-2.7846 4.0862 -2.4256 0.9782
-3.0554 3.8516 -2.4116 0.9783
-3.3082 3.6007 -2.3986 0.9785
-3.4276 3.4696 -2.3924 0.9785
-3.5423 3.3350 -2.3865 0.9786
-3.6521 3.1969 -2.3808 0.9786
-3.7569 3.0556 -2.3755 0.9787
-3.8568 2.9112 -2.3703 0.9787
-3.9516 2.7640 -2.3655 0.9787
-4.0412 2.6140 -2.3609 0.9788
1.7954 4.4962 -2.5116 0.9784
1.4548 4.5816 -2.4938 0.9786
1.2832 4.6147 -2.4848 0.9786
0.7667 4.6753 -2.4579 0.9789
0.5948 4.6829 -2.4489 0.9790
0.0824 4.6683 -2.4222 0.9792
-0.0918 4.9445 -2.5655 0.9780
-0.6209 4.8527 -2.5380 0.9782
-0.9637 4.7613 -2.5202 0.9783
-1.1315 4.7070 -2.5115 0.9784
-1.6189 4.5105 -2.4861 0.9786
-1.7754 4.4344 -2.4780 0.9787
-1.9287 4.3532 -2.4701 0.9788
-2.3674 4.0804 -2.4474 0.9790
-2.6412 3.8758 -2.4332 0.9791
-2.8989 3.6543 -2.4199 0.9792
-3.0214 3.5377 -2.4135 0.9793
-3.2534 3.2933 -2.4016 0.9794
-3.5673 2.9013 -2.3854 0.9795
1.5370 4.2946 -2.4983 0.9794
1.3758 4.3328 -2.4898 0.9795
1.2138 4.3648 -2.4814 0.9796
1.0513 4.3909 -2.4729 0.9796
0.8885 4.4108 -2.4644 0.9797
0.0781 4.4216 -2.4221 0.9800
-0.0870 4.6841 -2.5659 0.9789
-0.9138 4.5148 -2.5229 0.9792
-1.0731 4.4640 -2.5146 0.9793
-1.3845 4.3465 -2.4985 0.9794
-1.8307 4.1321 -2.4753 0.9796
-2.3804 3.7804 -2.4468 0.9798
-2.5089 3.6817 -2.4402 0.9799
-3.0925 3.1304 -2.4101 0.9801
-3.1966 3.0096 -2.4047 0.9802
-3.4828 2.6289 -2.3900 0.9803
-3.5691 2.4964 -2.3856 0.9803
1.3032 4.1042 -2.4862 0.9803
1.1500 4.1354 -2.4782 0.9804
0.9962 4.1608 -2.4701 0.9804
0.2267 4.2027 -2.4300 0.9807
-0.4014 4.3979 -2.5497 0.9798
-0.5586 4.3664 -2.5415 0.9799
-0.8677 4.2873 -2.5255 0.9800
-1.0192 4.2397 -2.5176 0.9801
-1.3154 4.1295 -2.5022 0.9802
-1.8758 3.8510 -2.4731 0.9804
-2.1378 3.6848 -2.4595 0.9805
-2.2639 3.5954 -2.4530 0.9806
-2.5054 3.4046 -2.4405 0.9807
-2.6206 3.3036 -2.4346 0.9807
-2.7321 3.1989 -2.4288 0.9808
-2.9432 2.9793 -2.4179 0.9808
-3.0427 2.8647 -2.4128 0.9809
-3.1381 2.7470 -2.4079 0.9809
-3.3985 2.3771 -2.3945 0.9810
-3.4766 2.2487 -2.3905 0.9811
