ply
format ascii 1.0
element vertex 627
property float32 x
property float32 y
property float32 z
property float32 I
end_header
-27.2242 24.2478 6.4283 0.8624
-27.3215 21.0132 6.0776 0.8694
-27.3658 19.5206 5.9272 0.8724
-27.4850 15.4311 5.5579 0.8798
-27.5209 14.1732 5.4584 0.8818
-29.9920 14.1037 5.8439 0.8741
-30.2665 10.4190 5.6442 0.8781
-27.0308 32.1492 6.4346 0.8437
-27.2142 26.0554 5.7718 0.8586
-27.3759 22.6693 5.4451 0.8660
-27.3620 21.0443 5.2881 0.8696
-27.4053 19.5488 5.1570 0.8726
-27.3781 18.0785 5.0261 0.8757
-27.5222 15.4520 4.8353 0.8801
-27.5575 14.1920 4.7486 0.8821
-29.8698 14.0462 5.0566 0.8750
-42.0455 16.1893 6.9021 0.8333
-27.2029 27.9899 5.0827 0.8543
-27.4848 18.1490 4.2890 0.8756
-27.5592 15.4728 4.1157 0.8803
-27.5939 14.2108 4.0418 0.8823
-29.9900 14.1027 4.3156 0.8749
-42.0986 16.2098 5.8745 0.8336
-30.3003 10.4307 4.1730 0.8787
-27.1275 32.2643 4.5265 0.8440
-27.1902 30.0708 4.3533 0.8495
-27.2479 28.0362 4.1982 0.8545
-27.5232 18.1743 3.5417 0.8757
-27.5605 16.8063 3.4663 0.8782
-27.6302 14.2295 3.3373 0.8825
-29.9890 14.1023 3.5586 0.8752
-33.2118 14.1811 3.8778 0.8648
-42.1515 16.2301 4.8502 0.8338
-25.3442 24.2649 2.9702 0.8686
-27.4929 18.1543 2.7890 0.8761
-27.5038 16.7717 2.7270 0.8787
-27.5386 15.4612 2.6735 0.8809
-41.5848 16.0119 3.7722 0.8362
-30.3407 10.4446 2.7163 0.8791
-27.2831 30.1737 2.5225 0.8496
-27.3283 28.1189 2.4315 0.8546
-27.3887 26.2223 2.3513 0.8590
-27.3965 24.4013 2.2750 0.8633
-27.5621 19.6606 2.0994 0.8731
-27.6603 18.2649 2.0554 0.8756
-27.6355 16.8521 2.0072 0.8783
-27.6698 15.5349 1.9677 0.8806
-33.3220 14.2282 2.2468 0.8648
-42.2571 16.2708 2.8079 0.8340
-30.3711 10.4550 1.9918 0.8792
-41.3013 12.5739 2.6772 0.8411
-25.6670 35.4179 1.7247 0.8394
-27.2723 32.4365 1.6710 0.8440
-27.3297 30.2251 1.6068 0.8495
-27.4322 26.2640 1.4975 0.8590
-27.4387 24.4389 1.4488 0.8632
-25.7702 21.3397 1.3193 0.8746
-25.8085 19.8495 1.2838 0.8778
-25.8791 17.0887 1.2228 0.8833
-27.7066 15.5555 1.2529 0.8806
-27.7388 14.2854 1.2303 0.8826
-33.2083 14.1796 1.4238 0.8654
-47.7414 14.5346 1.9678 0.8189
-25.5666 35.2794 0.7360 0.8400
-27.3206 32.4940 0.7171 0.8438
-25.6803 28.4011 0.6468 0.8580
-25.7516 24.6550 0.6023 0.8671
-25.8814 18.4617 0.5370 0.8806
-25.9150 17.1124 0.5246 0.8832
-25.9778 14.5849 0.5032 0.8876
-27.7750 14.3040 0.5277 0.8825
-40.5587 15.6168 0.7341 0.8404
-30.4318 10.4759 0.5437 0.8792
-42.3298 12.8870 0.7474 0.8378
-25.5426 32.7006 -0.2336 0.8471
-25.5972 30.4443 -0.2239 0.8529
-25.6476 28.3649 -0.2153 0.8582
-25.6943 26.4376 -0.2076 0.8629
-25.8169 21.3784 -0.1887 0.8745
-25.8876 18.4662 -0.1790 0.8806
-25.9204 17.1160 -0.1749 0.8832
-25.9517 15.8253 -0.1711 0.8855
-26.0832 13.4328 -0.1652 0.8893
-29.9841 14.1000 -0.1865 0.8759
-33.2059 14.1786 -0.2033 0.8655
-39.2556 15.1151 -0.2368 0.8451
-30.3600 10.4513 -0.1808 0.8795
-39.4518 10.4748 -0.2298 0.8494
-44.3940 6.7772 -0.2528 0.8356
-44.4346 5.1544 -0.2519 0.8362
-44.4982 1.9353 -0.2508 0.8368
-44.5509 -2.8803 -0.2514 0.8365
-44.5572 -4.4964 -0.2521 0.8360
-44.5423 -9.4287 -0.2563 0.8335
-44.5255 -11.1138 -0.2584 0.8323
-44.5026 -12.8267 -0.2608 0.8309
-41.8282 -15.3938 -0.2510 0.8367
-41.7618 -17.1003 -0.2541 0.8348
-23.3636 40.8928 -1.3261 0.8282
-23.3885 37.7158 -1.2496 0.8373
-25.0212 29.7592 -1.0948 0.8559
-25.3468 28.0322 -1.0642 0.8597
-25.3404 26.0734 -1.0238 0.8646
-25.7429 22.9284 -0.9707 0.8711
-25.9244 18.4924 -0.8967 0.8804
-25.9870 15.8468 -0.8571 0.8853
-26.0164 14.6066 -0.8401 0.8875
-26.1047 12.2757 -0.8123 0.8910
-27.7830 10.6977 -0.8383 0.8877
-28.9953 9.9814 -0.8635 0.8845
-29.5889 9.0082 -0.8709 0.8836
-30.8672 8.1955 -0.8993 0.8800
-31.6911 7.2037 -0.9151 0.8781
-31.7859 6.0307 -0.9110 0.8786
-31.9298 3.7038 -0.9051 0.8793
-31.9793 2.5469 -0.9033 0.8795
-32.0141 1.3923 -0.9023 0.8797
-32.0400 -0.9151 -0.9026 0.8796
-31.9160 -5.5637 -0.9122 0.8784
-31.7634 -7.9284 -0.9218 0.8772
-31.5474 -10.3365 -0.9348 0.8756
-31.4143 -11.5611 -0.9426 0.8746
-31.2639 -12.8017 -0.9513 0.8736
-16.5364 28.9434 -1.6905 0.8750
-17.8444 26.5881 -1.6239 0.8796
-18.4399 25.4452 -1.5937 0.8817
-19.5246 23.2218 -1.5386 0.8856
-20.0178 22.1386 -1.5137 0.8873
-20.4803 21.0728 -1.4903 0.8890
-22.0543 16.9621 -1.4110 0.8946
-22.3849 15.9676 -1.3945 0.8957
-22.6925 14.9845 -1.3791 0.8968
-22.9779 14.0119 -1.3649 0.8978
-23.2421 13.0490 -1.3518 0.8987
-24.2670 8.3538 -1.3016 0.9023
-24.4168 7.4335 -1.2944 0.9028
-24.5490 6.5179 -1.2881 0.9033
-24.6644 5.6064 -1.2827 0.9037
-24.7628 4.6983 -1.2782 0.9040
-24.9104 2.8897 -1.2718 0.9044
-24.9933 1.0867 -1.2687 0.9047
-25.0106 0.1862 -1.2684 0.9047
-24.9974 -1.6160 -1.2704 0.9045
-24.2875 -8.9382 -1.3125 0.9015
-24.1205 -9.8767 -1.3218 0.9009
-13.3734 21.5657 -1.8606 0.9032
-14.4501 19.9398 -1.8056 0.9060
-14.9461 19.1346 -1.7803 0.9072
-15.4154 18.3344 -1.7563 0.9084
-16.2776 16.7485 -1.7125 0.9106
-16.6725 15.9626 -1.6924 0.9116
-17.0443 15.1809 -1.6736 0.9125
-17.3939 14.4035 -1.6559 0.9134
-18.3162 12.0947 -1.6094 0.9157
-18.5835 11.3322 -1.5959 0.9164
-18.8317 10.5729 -1.5835 0.9170
-19.2728 9.0630 -1.5616 0.9181
-19.4664 8.3120 -1.5520 0.9186
-20.0701 5.3288 -1.5226 0.9201
-20.1797 4.5870 -1.5174 0.9204
-20.2732 3.8464 -1.5130 0.9206
-20.3509 3.1068 -1.5095 0.9207
-20.5046 0.1529 -1.5035 0.9211
-20.5041 -0.5856 -1.5040 0.9210
-20.4881 -1.3246 -1.5054 0.9210
-20.4565 -2.0643 -1.5075 0.9208
-20.0605 -5.7819 -1.5308 0.9197
-19.6260 -8.0363 -1.5550 0.9185
-10.9288 17.6235 -1.9909 0.9200
-11.4122 17.0042 -1.9661 0.9210
-11.8728 16.3833 -1.9425 0.9219
-12.7277 15.1379 -1.8987 0.9236
-14.1893 12.6381 -1.8242 0.9265
-14.5061 12.0121 -1.8082 0.9271
-14.8042 11.3861 -1.7930 0.9277
-15.8199 8.8819 -1.7418 0.9297
-16.2263 7.6304 -1.7215 0.9305
-16.4053 7.0049 -1.7126 0.9308
-16.7158 5.7543 -1.6972 0.9314
-16.8478 5.1292 -1.6908 0.9317
-17.1530 3.2545 -1.6762 0.9322
-17.2821 2.0047 -1.6703 0.9325
-17.3246 1.3797 -1.6685 0.9325
-17.3656 0.1295 -1.6672 0.9326
-17.3643 -0.4960 -1.6677 0.9326
-17.3483 -1.1216 -1.6690 0.9325
-17.3177 -1.7476 -1.6710 0.9324
-17.2724 -2.3739 -1.6738 0.9323
-17.1374 -3.6276 -1.6817 0.9320
-16.9425 -4.8832 -1.6928 0.9316
-16.6863 -6.1409 -1.7070 0.9310
-8.7872 15.3802 -2.1041 0.9311
-9.2335 14.8898 -2.0812 0.9319
-9.6607 14.3944 -2.0592 0.9326
-10.0690 13.8944 -2.0383 0.9332
-10.4592 13.3902 -2.0183 0.9338
-10.8312 12.8822 -1.9992 0.9345
-11.1856 12.3707 -1.9811 0.9350
-11.5227 11.8560 -1.9639 0.9356
-11.8427 11.3384 -1.9475 0.9361
-12.1460 10.8181 -1.9321 0.9366
-12.7037 9.7705 -1.9037 0.9375
-13.6305 7.6527 -1.8568 0.9390
-13.8243 7.1195 -1.8471 0.9393
-14.0033 6.5850 -1.8381 0.9396
-14.3178 5.5130 -1.8225 0.9401
-14.5753 4.4374 -1.8098 0.9405
-14.9228 2.2781 -1.7932 0.9410
-15.0143 1.1957 -1.7891 0.9411
-15.0343 -0.9720 -1.7896 0.9411
-15.0054 -1.5142 -1.7915 0.9411
-14.9628 -2.0564 -1.7941 0.9410
-14.9065 -2.5986 -1.7974 0.9409
-14.8365 -3.1406 -1.8014 0.9407
-14.2764 -5.8458 -1.8325 0.9397
-7.5905 13.2855 -2.1680 0.9401
-8.3693 12.4701 -2.1279 0.9411
-8.7349 12.0534 -2.1091 0.9416
-9.4200 11.2038 -2.0740 0.9426
-9.7397 10.7716 -2.0576 0.9430
-10.3345 9.8944 -2.0272 0.9438
-10.6099 9.4500 -2.0132 0.9442
-11.1177 8.5508 -1.9873 0.9449
-11.3504 8.0965 -1.9755 0.9452
-11.5692 7.6395 -1.9644 0.9455
-11.7742 7.1799 -1.9540 0.9458
-12.1435 6.2539 -1.9354 0.9463
-12.3080 5.7878 -1.9271 0.9465
-12.4593 5.3200 -1.9195 0.9467
-12.5974 4.8506 -1.9127 0.9469
-12.8346 3.9074 -1.9010 0.9472
-13.1552 2.0083 -1.8855 0.9477
-13.2393 1.0544 -1.8818 0.9478
-13.2566 -0.8571 -1.8822 0.9477
-8.6185 9.5317 -2.1170 0.9492
-8.8960 9.1534 -2.1028 0.9496
-9.1604 8.7704 -2.0892 0.9499
-9.8768 7.5963 -2.0527 0.9507
-10.0902 7.1976 -2.0418 0.9510
-10.4796 6.3904 -2.0221 0.9515
-10.8196 5.5721 -2.0049 0.9519
-11.1109 4.7442 -1.9903 0.9522
-11.3540 3.9085 -1.9782 0.9525
-11.4577 3.4882 -1.9731 0.9526
-11.5494 3.0665 -1.9686 0.9527
-11.6294 2.6435 -1.9647 0.9528
-11.7987 1.3686 -1.9567 0.9530
-11.8317 0.9423 -1.9553 0.9530
-11.8530 0.5155 -1.9545 0.9530
-11.8626 0.0884 -1.9543 0.9530
-11.8606 -0.3388 -1.9547 0.9530
-11.7353 -2.0457 -1.9624 0.9529
-11.6746 -2.4713 -1.9659 0.9528
-11.6020 -2.8959 -1.9700 0.9527
-11.4214 -3.7422 -1.9800 0.9524
-6.2769 10.1221 -2.2387 0.9527
-6.5896 9.8185 -2.2226 0.9530
-7.4571 8.8692 -2.1780 0.9539
-7.7229 8.5411 -2.1644 0.9542
-8.4507 7.5268 -2.1271 0.9550
-9.0751 6.4735 -2.0953 0.9556
-9.4345 5.7531 -2.0770 0.9560
-9.5973 5.3883 -2.0688 0.9562
-9.7489 5.0206 -2.0611 0.9564
-10.4252 2.7680 -2.0274 0.9570
-10.5626 2.0040 -2.0208 0.9572
-10.7066 0.4657 -2.0143 0.9573
-10.7133 -0.3060 -2.0145 0.9573
-10.4719 -2.6139 -2.0287 0.9570
-10.3037 -3.3760 -2.0380 0.9568
-10.0912 -4.1321 -2.0496 0.9566
-5.3665 9.3929 -2.2867 0.9567
-6.2251 8.5901 -2.2425 0.9576
-6.7457 8.0230 -2.2157 0.9581
-6.9903 7.7309 -2.2031 0.9583
-7.2245 7.4335 -2.1911 0.9585
-7.4482 7.1311 -2.1797 0.9587
-8.0571 6.1968 -2.1486 0.9593
-8.2392 5.8772 -2.1393 0.9595
-8.4109 5.5540 -2.1305 0.9596
-8.5724 5.2274 -2.1224 0.9598
-8.8642 4.5650 -2.1076 0.9601
-9.1148 3.8920 -2.0950 0.9603
-9.2247 3.5519 -2.0895 0.9604
-9.3244 3.2099 -2.0845 0.9605
-9.5622 2.1736 -2.0728 0.9607
-9.7084 1.1262 -2.0659 0.9608
-9.7551 0.4243 -2.0640 0.9609
-9.7632 0.0728 -2.0638 0.9609
-9.7490 -0.6303 -2.0650 0.9608
-9.7266 -0.9815 -2.0665 0.9608
-9.6940 -1.3323 -2.0684 0.9608
-9.6513 -1.6825 -2.0709 0.9607
-9.5352 -2.3801 -2.0774 0.9606
-9.4619 -2.7271 -2.0815 0.9605
-9.2844 -3.4168 -2.0912 0.9604
-4.8813 8.5437 -2.3126 0.9604
-5.4178 8.0726 -2.2849 0.9608
-5.9173 7.5756 -2.2592 0.9613
-6.1530 7.3182 -2.2471 0.9615
-6.8036 6.5139 -2.2137 0.9620
-7.3688 5.6674 -2.1848 0.9625
-7.6980 5.0832 -2.1681 0.9628
-7.8483 4.7859 -2.1604 0.9629
-7.9890 4.4854 -2.1533 0.9631
-8.2419 3.8758 -2.1405 0.9633
-8.6333 2.6284 -2.1210 0.9636
-8.7073 2.3119 -2.1173 0.9637
-8.8724 1.3545 -2.1094 0.9638
-8.9084 1.0334 -2.1077 0.9638
-8.9349 0.7116 -2.1066 0.9638
-8.9520 0.3893 -2.1059 0.9639
-8.9459 -0.5784 -2.1069 0.9638
-8.9249 -0.9006 -2.1082 0.9638
-8.8543 -1.5435 -2.1123 0.9637
-8.8046 -1.8638 -2.1152 0.9637
-8.7454 -2.1829 -2.1185 0.9636
-8.6768 -2.5009 -2.1223 0.9636
-8.5985 -2.8173 -2.1266 0.9635
-8.4132 -3.4450 -2.1367 0.9633
-4.4726 7.8284 -2.3344 0.9634
-4.7250 7.6195 -2.3214 0.9636
-5.4323 6.9547 -2.2849 0.9642
-5.6513 6.7214 -2.2737 0.9644
-5.8616 6.4826 -2.2629 0.9645
-6.0633 6.2387 -2.2525 0.9647
-6.2564 5.9900 -2.2426 0.9648
-6.4407 5.7366 -2.2332 0.9650
-6.7832 5.2171 -2.2157 0.9653
-7.2310 4.4095 -2.1929 0.9656
-7.5992 3.5735 -2.1743 0.9659
-8.0956 1.8402 -2.1496 0.9663
-8.1471 1.5458 -2.1471 0.9663
-8.1898 1.2503 -2.1451 0.9663
-8.2235 0.9539 -2.1435 0.9664
-8.2484 0.6569 -2.1424 0.9664
-8.2712 0.0617 -2.1416 0.9664
-8.2386 -0.8314 -2.1440 0.9664
-8.1722 -1.4246 -2.1478 0.9663
-8.1255 -1.7200 -2.1505 0.9663
-8.0055 -2.3074 -2.1571 0.9662
-7.7583 -3.1768 -2.1706 0.9660
-4.1233 7.2170 -2.3530 0.9660
-4.3579 7.0275 -2.3409 0.9662
-4.5851 6.8317 -2.3292 0.9664
-4.8046 6.6299 -2.3179 0.9665
-5.0164 6.4223 -2.3070 0.9667
-5.2206 6.2091 -2.2965 0.9668
-5.4168 5.9907 -2.2864 0.9670
-5.7855 5.5392 -2.2675 0.9673
-6.1222 5.0697 -2.2503 0.9675
-6.2784 4.8288 -2.2423 0.9676
-6.5664 4.3360 -2.2276 0.9678
-6.6980 4.0845 -2.2209 0.9679
-7.0435 3.3122 -2.2034 0.9682
-7.1420 3.0496 -2.1985 0.9682
-7.3877 2.2492 -2.1862 0.9684
-7.5098 1.7071 -2.1802 0.9685
-7.5583 1.4340 -2.1779 0.9685
-7.6301 0.8851 -2.1745 0.9686
-7.6683 0.3335 -2.1729 0.9686
-7.6748 0.0572 -2.1728 0.9686
-7.6729 -0.2192 -2.1730 0.9686
-7.6626 -0.4954 -2.1738 0.9686
-7.6439 -0.7714 -2.1749 0.9686
-7.6168 -1.0468 -2.1765 0.9685
-7.5813 -1.3216 -2.1786 0.9685
-7.5374 -1.5955 -2.1811 0.9685
-7.4850 -1.8683 -2.1840 0.9684
-7.3552 -2.4099 -2.1911 0.9683
-3.8211 6.6880 -2.3692 0.9683
-4.0400 6.5149 -2.3579 0.9684
-4.2522 6.3357 -2.3469 0.9686
-4.4573 6.1507 -2.3364 0.9687
-5.2067 5.3573 -2.2978 0.9692
-5.3758 5.1469 -2.2891 0.9693
-5.6917 4.7132 -2.2730 0.9695
-5.8384 4.4904 -2.2655 0.9696
-6.1089 4.0339 -2.2517 0.9698
-6.2327 3.8007 -2.2454 0.9699
-6.5578 3.0838 -2.2289 0.9701
-6.6505 2.8397 -2.2242 0.9702
-6.7356 2.5935 -2.2200 0.9702
-6.8820 2.0952 -2.2127 0.9703
-6.9970 1.5905 -2.2070 0.9704
-7.0805 1.0809 -2.2030 0.9705
-7.1323 0.5680 -2.2007 0.9705
-7.1524 0.0533 -2.2000 0.9705
-7.1409 -0.4617 -2.2010 0.9705
-7.0975 -0.9755 -2.2036 0.9705
-7.0640 -1.2314 -2.2055 0.9704
-7.0225 -1.4865 -2.2078 0.9704
-6.9731 -1.7406 -2.2106 0.9704
-6.9159 -1.9933 -2.2138 0.9703
-6.7775 -2.4942 -2.2213 0.9702
-3.5568 6.2253 -2.3833 0.9702
-4.1529 5.7307 -2.3525 0.9706
-4.3388 5.5547 -2.3429 0.9707
-4.5181 5.3737 -2.3337 0.9708
-4.8566 4.9971 -2.3163 0.9711
-5.1677 4.6028 -2.3004 0.9713
-5.3129 4.3995 -2.2929 0.9713
-5.4510 4.1924 -2.2859 0.9714
-5.5820 3.9818 -2.2792 0.9715
-6.0343 3.1077 -2.2562 0.9718
-6.1292 2.8822 -2.2514 0.9719
-6.2168 2.6545 -2.2470 0.9719
-6.4353 1.9592 -2.2361 0.9720
-6.4934 1.7240 -2.2332 0.9721
-6.5439 1.4875 -2.2307 0.9721
-6.5871 1.2498 -2.2287 0.9721
-6.6717 0.5313 -2.2247 0.9722
-6.6849 0.2907 -2.2242 0.9722
-6.6906 0.0499 -2.2241 0.9722
-6.6889 -0.1910 -2.2243 0.9722
-6.6796 -0.4319 -2.2250 0.9722
-6.6386 -0.9124 -2.2275 0.9721
-6.6069 -1.1518 -2.2293 0.9721
-6.5209 -1.6277 -2.2341 0.9721
-6.4051 -2.0986 -2.2405 0.9720
-6.3360 -2.3318 -2.2442 0.9719
-6.2595 -2.5631 -2.2484 0.9719
-3.3234 5.8169 -2.3957 0.9719
-3.8837 5.3592 -2.3668 0.9723
-4.0586 5.1960 -2.3578 0.9724
-4.6962 4.4963 -2.3250 0.9728
-4.8397 4.3106 -2.3177 0.9728
-4.9767 4.1211 -2.3107 0.9729
-5.1070 3.9279 -2.3040 0.9730
-5.4580 3.3283 -2.2861 0.9732
-5.5615 3.1224 -2.2809 0.9733
-5.6581 2.9139 -2.2760 0.9733
-5.7479 2.7029 -2.2714 0.9734
-5.9066 2.2743 -2.2634 0.9735
-5.9756 2.0571 -2.2600 0.9735
-6.0375 1.8381 -2.2569 0.9735
-6.0924 1.6176 -2.2542 0.9736
-6.1404 1.3958 -2.2519 0.9736
-6.1812 1.1728 -2.2499 0.9736
-6.2150 0.9488 -2.2483 0.9736
-6.2417 0.7240 -2.2470 0.9737
-6.2613 0.4987 -2.2462 0.9737
-6.2738 0.2729 -2.2457 0.9737
-6.2792 0.0468 -2.2456 0.9737
-6.2775 -0.1793 -2.2458 0.9737
-6.2687 -0.4053 -2.2464 0.9737
-6.2528 -0.6310 -2.2474 0.9737
-6.2297 -0.8562 -2.2488 0.9736
-3.1156 5.4533 -2.4068 0.9735
-3.2970 5.3168 -2.3975 0.9736
-4.4108 4.2230 -2.3401 0.9742
-4.5464 4.0494 -2.3332 0.9743
-4.7993 3.6912 -2.3202 0.9744
-5.0271 3.3195 -2.3086 0.9745
-5.2295 2.9361 -2.2983 0.9746
-5.3210 2.7404 -2.2937 0.9747
-5.4061 2.5422 -2.2894 0.9747
-5.4846 2.3419 -2.2854 0.9748
-5.5566 2.1395 -2.2818 0.9748
-5.6219 1.9354 -2.2785 0.9749
-5.8929 0.4693 -2.2654 0.9750
-5.9047 0.2568 -2.2649 0.9750
-5.9098 0.0441 -2.2648 0.9750
-5.9082 -0.1688 -2.2651 0.9750
-5.8846 -0.5938 -2.2666 0.9750
-5.8628 -0.8058 -2.2679 0.9750
-5.8342 -1.0171 -2.2695 0.9750
-5.7989 -1.2275 -2.2715 0.9749
-5.7569 -1.4370 -2.2738 0.9749
-5.7081 -1.6452 -2.2765 0.9749
-5.5907 -2.0575 -2.2829 0.9748
-5.5219 -2.2611 -2.2867 0.9748
-2.9293 5.1271 -2.4168 0.9748
-3.5841 4.5886 -2.3830 0.9751
-3.7348 4.4420 -2.3752 0.9752
-4.0198 4.1361 -2.3606 0.9754
-4.1539 3.9771 -2.3537 0.9755
-4.4051 3.6478 -2.3408 0.9756
-4.5220 3.4779 -2.3348 0.9756
-4.6330 3.3048 -2.3292 0.9757
-4.7381 3.1287 -2.3238 0.9758
-4.8371 2.9496 -2.3188 0.9758
-5.1722 2.2085 -2.3018 0.9760
-5.3026 1.8254 -2.2953 0.9761
-5.4079 1.4359 -2.2900 0.9761
-5.5183 0.8424 -2.2847 0.9762
-5.5424 0.6429 -2.2836 0.9762
-5.5712 0.2423 -2.2823 0.9762
-5.5745 -0.1592 -2.2825 0.9762
-5.5665 -0.3599 -2.2830 0.9762
-5.5521 -0.5603 -2.2839 0.9762
-5.5041 -0.9595 -2.2867 0.9761
-5.4705 -1.1580 -2.2886 0.9761
-5.4305 -1.3555 -2.2908 0.9761
-5.3842 -1.5519 -2.2933 0.9761
-5.2726 -1.9404 -2.2994 0.9760
-5.2073 -2.1322 -2.3030 0.9760
-2.7611 4.8328 -2.4257 0.9760
-2.9232 4.7139 -2.4174 0.9761
-3.0806 4.5901 -2.4092 0.9762
-3.2333 4.4616 -2.4014 0.9762
-3.5238 4.1911 -2.3864 0.9764
-3.7940 3.9038 -2.3725 0.9765
-3.9213 3.7544 -2.3660 0.9766
-4.2707 3.2846 -2.3481 0.9768
-4.4759 2.9556 -2.3376 0.9769
-4.7410 2.4416 -2.3241 0.9770
-4.8178 2.2655 -2.3202 0.9770
-4.9536 1.9074 -2.3134 0.9771
-5.0127 1.7256 -2.3105 0.9771
-5.1129 1.3575 -2.3055 0.9772
-5.1889 0.9845 -2.3018 0.9772
-5.2179 0.7966 -2.3004 0.9772
-5.2575 0.4187 -2.2986 0.9772
-5.2728 0.0393 -2.2981 0.9773
-5.2713 -0.1505 -2.2983 0.9773
-5.2500 -0.5298 -2.2996 0.9772
-5.2301 -0.7188 -2.3008 0.9772
-5.1722 -1.0949 -2.3041 0.9772
-5.1341 -1.2815 -2.3062 0.9772
-4.9216 -2.0153 -2.3178 0.9771
-2.6084 4.5655 -2.4339 0.9771
-3.1963 4.0921 -2.4036 0.9774
-3.4627 3.8296 -2.3898 0.9775
-3.8253 3.4071 -2.3712 0.9777
-3.9361 3.2594 -2.3655 0.9777
-4.1419 2.9545 -2.3550 0.9778
-4.4891 2.3119 -2.3374 0.9780
-4.6298 1.9769 -2.3302 0.9781
-4.6917 1.8065 -2.3271 0.9781
-4.7479 1.6345 -2.3243 0.9781
-4.7984 1.4609 -2.3218 0.9781
-4.8433 1.2859 -2.3196 0.9782
-4.8824 1.1098 -2.3177 0.9782
-4.9158 0.9327 -2.3161 0.9782
-4.9652 0.5759 -2.3137 0.9782
-4.9812 0.3967 -2.3130 0.9782
-4.9957 0.0372 -2.3125 0.9782
-4.9942 -0.1427 -2.3127 0.9782
-4.9549 -0.6810 -2.3151 0.9782
-2.4689 4.3214 -2.4413 0.9781
-2.8942 3.9938 -2.4194 0.9783
-3.0275 3.8760 -2.4125 0.9783
-3.4005 3.4989 -2.3933 0.9785
-3.6258 3.2295 -2.3817 0.9786
-3.7312 3.0898 -2.3763 0.9786
-3.9273 2.8014 -2.3663 0.9787
-4.0177 2.6530 -2.3617 0.9788
-4.1031 2.5021 -2.3574 0.9788
-4.2582 2.1930 -2.3495 0.9789
-4.3279 2.0352 -2.3460 0.9789
-4.4513 1.7139 -2.3397 0.9790
-4.6332 1.0532 -2.3307 0.9791
-4.6651 0.8851 -2.3292 0.9791
-4.6914 0.7162 -2.3279 0.9791
-4.7413 0.0354 -2.3258 0.9791
-4.7329 -0.3060 -2.3265 0.9791
-4.7023 -0.6463 -2.3283 0.9791
-4.6787 -0.8156 -2.3296 0.9791
-4.5748 -1.3186 -2.3354 0.9790
-4.5292 -1.4840 -2.3379 0.9790
-4.4781 -1.6480 -2.3407 0.9790
-4.4216 -1.8106 -2.3437 0.9789
-2.7455 3.7886 -2.4273 0.9791
-2.9950 3.5622 -2.4144 0.9792
-3.2275 3.3210 -2.4025 0.9793
-3.5428 2.9337 -2.3863 0.9795
-3.9739 2.2311 -2.3643 0.9797
-4.1119 1.9336 -2.3573 0.9797
-4.1734 1.7820 -2.3542 0.9798
-4.2297 1.6287 -2.3514 0.9798
-4.3270 1.3173 -2.3465 0.9798
-4.4339 0.8412 -2.3413 0.9799
-4.4590 0.6807 -2.3401 0.9799
-4.4789 0.5196 -2.3391 0.9799
-4.4934 0.3579 -2.3385 0.9799
-4.5027 0.1958 -2.3381 0.9799
-4.5066 0.0336 -2.3380 0.9799
-4.5053 -0.1287 -2.3382 0.9799
-4.4986 -0.2908 -2.3387 0.9799
-4.4866 -0.4528 -2.3394 0.9799
-4.4694 -0.6143 -2.3404 0.9799
-4.4468 -0.7752 -2.3417 0.9799
-4.4189 -0.9354 -2.3433 0.9799
-4.2551 -1.5660 -2.3522 0.9798
-2.4836 3.7006 -2.4410 0.9799
-2.8462 3.3851 -2.4223 0.9800
-2.9591 3.2726 -2.4165 0.9801
-3.0678 3.1566 -2.4109 0.9801
-3.1724 3.0374 -2.4055 0.9802
-3.4601 2.6612 -2.3908 0.9803
-3.7802 2.1224 -2.3745 0.9804
-3.8486 1.9820 -2.3710 0.9805
-3.9121 1.8397 -2.3678 0.9805
-3.9708 1.6955 -2.3648 0.9805
-4.1176 1.2536 -2.3575 0.9806
-4.2198 0.8006 -2.3524 0.9806
-4.2438 0.6479 -2.3513 0.9806
-4.2767 0.3406 -2.3498 0.9806
-4.2880 -0.1225 -2.3495 0.9806
-4.2816 -0.2768 -2.3500 0.9806
-4.2536 -0.5846 -2.3516 0.9806
-4.2321 -0.7377 -2.3529 0.9806
-4.1737 -1.0418 -2.3561 0.9806
-4.1370 -1.1924 -2.3581 0.9806
-4.0954 -1.3419 -2.3604 0.9805
-4.0488 -1.4900 -2.3630 0.9805
-3.9972 -1.6368 -2.3657 0.9805
-2.1139 3.7000 -2.4603 0.9805
-2.4813 3.4239 -2.4413 0.9807
-2.5966 3.3243 -2.4354 0.9807
-2.9197 3.0043 -2.4187 0.9808
-3.2070 2.6557 -2.4040 0.9810
-3.2944 2.5338 -2.3995 0.9810
-3.8341 1.4763 -2.3721 0.9812
-3.8810 1.3360 -2.3698 0.9812
-3.9231 1.1944 -2.3677 0.9812
-3.9604 1.0515 -2.3658 0.9813
-4.0438 0.6173 -2.3618 0.9813
-4.0619 0.4712 -2.3609 0.9813
-4.0861 -0.1167 -2.3601 0.9813
-4.0690 -0.4106 -2.3612 0.9813
-4.0531 -0.5571 -2.3621 0.9813
-4.0325 -0.7030 -2.3633 0.9813
-3.9415 -1.1361 -2.3683 0.9812
-3.9017 -1.2784 -2.3705 0.9812
-3.8077 -1.5592 -2.3756 0.9812
