ply
format ascii 1.0
element vertex 597
property float32 x
property float32 y
property float32 z
property float32 I
end_header
7.7763 -22.8230 4.2515 0.9067
8.1073 -21.2836 4.0159 0.9116
7.4424 -17.6270 3.3738 0.9252
8.0983 -17.4239 3.3879 0.9249
8.1429 -16.0049 3.1664 0.9297
8.1640 -14.7260 2.9689 0.9339
8.1828 -13.5962 2.7981 0.9376
8.2152 -11.6818 2.5182 0.9436
8.6016 -11.3510 2.5112 0.9438
9.2684 -11.3673 2.5862 0.9422
11.5454 -11.4229 2.8638 0.9362
12.4422 -10.6715 2.8903 0.9356
3.1155 -1.2764 0.5937 0.9864
7.4427 -2.7446 1.3987 0.9683
19.8789 -3.5244 3.5598 0.9213
26.4381 -3.7231 4.7077 0.8972
7.7698 -25.7714 4.1236 0.8968
7.9929 -23.4589 3.7966 0.9046
7.7011 -18.2395 3.0331 0.9230
8.0966 -17.4201 2.9428 0.9252
8.1442 -14.6904 2.5732 0.9343
8.1641 -13.5652 2.4254 0.9379
8.1983 -11.6578 2.1833 0.9440
8.6017 -11.3511 2.1818 0.9440
9.9771 -11.3847 2.3190 0.9406
10.7337 -11.4033 2.3991 0.9386
11.5455 -11.4231 2.4881 0.9364
7.4062 -4.0033 1.2897 0.9665
3.0922 -1.3973 0.5198 0.9864
3.1117 -1.2749 0.5152 0.9865
7.4332 -2.7411 1.2137 0.9684
7.8110 -2.5687 1.2596 0.9673
21.3592 -3.7868 3.3231 0.9160
7.3301 -24.3131 3.3068 0.9026
7.9647 -23.3759 3.2159 0.9052
8.0743 -17.3723 2.4946 0.9256
8.1011 -15.9228 2.3264 0.9305
9.2318 -11.3224 1.9024 0.9428
9.9857 -11.3946 1.9730 0.9407
13.3708 -11.4680 2.2939 0.9314
3.1080 -1.2734 0.4374 0.9865
7.4237 -2.7376 1.0303 0.9686
7.8149 -2.5700 1.0713 0.9674
10.3520 -34.3365 3.8510 0.8656
7.9819 -20.9544 2.4078 0.9137
8.1384 -14.6799 1.8024 0.9347
8.1954 -12.5818 1.6124 0.9414
8.1651 -11.6105 1.5242 0.9445
9.2280 -11.3179 1.5681 0.9429
9.9680 -11.3744 1.6240 0.9410
13.3710 -11.4681 1.8916 0.9316
7.3935 -3.6629 0.8860 0.9674
3.1042 -1.2719 0.3602 0.9866
26.4329 -3.7224 2.8664 0.8982
9.9651 -33.0531 2.9224 0.8706
7.9891 -20.9733 1.8999 0.9138
7.9429 -18.8123 1.7287 0.9213
8.0306 -17.2782 1.6129 0.9264
8.1192 -14.6452 1.4175 0.9350
8.1093 -13.4740 1.3313 0.9388
8.6021 -11.3515 1.2057 0.9444
9.2282 -11.3180 1.2362 0.9431
10.7342 -11.4037 1.3257 0.9391
11.5460 -11.4236 1.3749 0.9369
7.3763 -3.9871 0.7098 0.9669
3.0763 -1.3902 0.2858 0.9865
7.4049 -2.7307 0.6681 0.9688
7.8226 -2.5726 0.6971 0.9675
26.4012 -3.7179 2.2570 0.8985
7.6075 -25.2332 1.6343 0.8998
7.8466 -23.0296 1.5087 0.9071
7.9640 -20.9073 1.3873 0.9142
8.0585 -12.3717 0.9156 0.9425
9.2282 -11.3181 0.9056 0.9432
9.9339 -11.3354 0.9346 0.9414
10.7343 -11.4039 0.9712 0.9392
11.5462 -11.4238 1.0072 0.9370
7.3665 -3.9818 0.5193 0.9670
7.3741 -3.6533 0.5103 0.9676
3.0969 -1.2688 0.2075 0.9867
7.6087 -25.2370 1.0394 0.8999
7.8022 -22.8992 0.9539 0.9077
7.9068 -20.7572 0.8759 0.9149
8.0484 -14.5174 0.6545 0.9357
8.0960 -12.4291 0.5849 0.9423
8.1163 -11.5411 0.5563 0.9451
9.9778 -11.3855 0.5969 0.9412
10.7344 -11.4040 0.6175 0.9392
11.5463 -11.4239 0.6405 0.9370
12.3823 -11.4089 0.6639 0.9348
7.3645 -3.6486 0.3241 0.9676
3.0660 -1.3855 0.1327 0.9866
3.0933 -1.2674 0.1318 0.9867
7.8303 -2.5751 0.3250 0.9675
26.3383 -3.7090 1.0488 0.8990
7.9277 -18.7762 0.3443 0.9217
7.8695 -13.0757 0.2578 0.9408
7.7721 -11.9319 0.2405 0.9446
7.9942 -11.3676 0.2347 0.9459
8.6023 -11.3519 0.2406 0.9446
9.9779 -11.3856 0.2557 0.9412
10.7346 -11.4042 0.2646 0.9393
12.4221 -11.4455 0.2853 0.9347
7.3470 -3.9713 0.1411 0.9671
3.0608 -1.3831 0.0567 0.9867
3.0897 -1.2659 0.0564 0.9867
7.8341 -2.5764 0.1393 0.9675
25.7943 -4.5731 0.4425 0.9005
25.8172 -3.6356 0.4404 0.9010
7.9051 -18.7226 -0.1144 0.9219
7.8966 -16.9898 -0.1055 0.9278
7.7477 -15.2282 -0.0962 0.9339
7.9943 -11.3677 -0.0782 0.9459
9.2693 -11.3684 -0.0826 0.9430
11.5466 -11.4243 -0.0915 0.9371
7.3373 -3.9661 -0.0470 0.9672
7.3454 -3.6391 -0.0462 0.9677
3.0557 -1.3808 -0.0189 0.9867
7.3681 -2.7171 -0.0442 0.9691
25.7636 -4.5677 -0.1473 0.9006
25.7867 -3.6313 -0.1466 0.9011
2.5219 -7.4016 -0.2202 0.9692
2.5216 -6.6200 -0.1995 0.9721
2.8241 -6.6886 -0.2044 0.9714
7.9245 -17.0498 -0.5294 0.9275
7.9607 -15.6468 -0.4943 0.9322
7.9668 -13.2374 -0.4350 0.9400
7.9987 -12.2798 -0.4127 0.9430
10.7349 -11.4045 -0.4410 0.9393
7.3277 -3.9609 -0.2345 0.9672
3.0506 -1.3785 -0.0943 0.9867
7.3590 -2.7137 -0.2209 0.9691
25.7330 -4.5622 -0.7359 0.9007
7.6132 -25.2520 -1.3376 0.8998
2.5137 -5.9537 -0.3277 0.9744
2.5150 -4.1789 -0.2474 0.9807
2.5152 -3.8614 -0.2337 0.9817
2.5154 -3.5768 -0.2218 0.9826
2.5156 -3.0853 -0.2019 0.9842
2.5157 -2.8706 -0.1936 0.9848
2.5089 -2.6654 -0.1856 0.9854
8.9795 -8.2736 -0.6192 0.9523
9.6647 -8.2893 -0.6457 0.9503
10.4121 -8.3064 -0.6755 0.9481
11.2328 -8.3252 -0.7091 0.9455
13.1529 -8.3691 -0.7906 0.9395
3.0455 -1.3762 -0.1695 0.9867
3.0789 -1.2615 -0.1687 0.9868
25.7257 -3.6228 -1.3175 0.9012
2.5061 -5.9354 -0.4724 0.9745
2.5071 -5.3941 -0.4361 0.9764
2.5079 -4.9293 -0.4055 0.9781
2.5086 -4.5250 -0.3794 0.9795
2.5092 -4.1692 -0.3568 0.9807
2.5097 -3.8530 -0.3372 0.9817
2.5102 -3.5694 -0.3200 0.9827
2.5108 -3.0795 -0.2913 0.9842
2.5111 -2.8654 -0.2794 0.9848
2.5046 -2.6609 -0.2679 0.9855
2.5046 -2.3077 -0.2497 0.9864
2.5046 -2.1481 -0.2419 0.9869
2.5046 -1.9980 -0.2349 0.9872
2.5043 -1.5935 -0.2176 0.9882
2.5039 -1.1315 -0.2015 0.9890
2.5038 -1.0258 -0.1984 0.9892
2.5035 -0.8233 -0.1932 0.9895
2.5032 -0.6301 -0.1893 0.9897
2.5031 -0.5362 -0.1877 0.9898
2.5027 -0.3525 -0.1853 0.9899
2.5025 -0.2621 -0.1845 0.9900
2.5022 -0.1724 -0.1839 0.9900
2.5021 -0.0831 -0.1836 0.9900
2.5013 0.1841 -0.1839 0.9900
2.4965 -6.5538 -0.6733 0.9722
2.4984 -5.9173 -0.6167 0.9745
2.5043 -3.8446 -0.4405 0.9817
2.5056 -3.3064 -0.3983 0.9835
2.5004 -2.6564 -0.3502 0.9854
2.5007 -2.3041 -0.3265 0.9864
2.5009 -1.9951 -0.3071 0.9872
2.5009 -1.8535 -0.2989 0.9876
2.5009 -1.7192 -0.2914 0.9879
2.5009 -1.3518 -0.2729 0.9886
2.5008 -1.1301 -0.2635 0.9890
2.5004 -0.7248 -0.2499 0.9896
2.5002 -0.6294 -0.2475 0.9897
2.5001 -0.5356 -0.2455 0.9898
2.4998 -0.3520 -0.2424 0.9899
2.4996 -0.2618 -0.2413 0.9900
2.4994 -0.1722 -0.2405 0.9900
2.4991 -0.0830 -0.2401 0.9900
2.4987 0.0948 -0.2401 0.9900
2.4984 0.1839 -0.2405 0.9900
2.4849 -7.2931 -0.9152 0.9694
2.4881 -6.5319 -0.8303 0.9722
2.4907 -5.8992 -0.7606 0.9745
2.4976 -4.1500 -0.5754 0.9807
2.4997 -3.5546 -0.5162 0.9826
2.5006 -3.2999 -0.4918 0.9835
2.5014 -3.0678 -0.4702 0.9842
2.4962 -2.6519 -0.4326 0.9854
2.4973 -1.8509 -0.3692 0.9876
2.4975 -1.5892 -0.3516 0.9881
2.4975 -1.4671 -0.3441 0.9884
2.4976 -1.3500 -0.3372 0.9886
2.4975 -0.9210 -0.3162 0.9893
2.4974 -0.7240 -0.3089 0.9896
2.4970 -0.4427 -0.3012 0.9898
2.4968 -0.3516 -0.2995 0.9899
2.4965 -0.1720 -0.2972 0.9900
2.4960 0.0059 -0.2965 0.9900
2.4958 0.0947 -0.2967 0.9900
2.4955 0.1837 -0.2972 0.9900
2.4707 -8.1950 -1.2128 0.9660
2.4798 -6.5101 -0.9871 0.9722
2.4881 -4.8905 -0.7775 0.9781
2.4902 -4.4916 -0.7277 0.9795
2.4918 -4.1403 -0.6847 0.9807
2.4933 -3.8277 -0.6473 0.9817
2.4966 -3.0620 -0.5598 0.9842
2.5018 -2.8548 -0.5379 0.9848
2.4924 -2.4660 -0.4968 0.9859
2.4928 -2.2968 -0.4803 0.9864
2.4931 -2.1383 -0.4654 0.9868
2.4937 -1.8482 -0.4398 0.9875
2.4939 -1.7144 -0.4288 0.9878
2.4942 -1.4651 -0.4099 0.9884
2.4944 -0.9198 -0.3767 0.9893
2.4943 -0.7231 -0.3680 0.9896
2.4943 -0.6279 -0.3644 0.9897
2.4942 -0.5343 -0.3614 0.9897
2.4941 -0.4422 -0.3589 0.9898
2.4939 -0.3512 -0.3568 0.9899
2.4936 -0.1718 -0.3541 0.9900
2.4934 -0.0829 -0.3535 0.9900
2.4931 0.0058 -0.3533 0.9900
2.4929 0.0946 -0.3535 0.9900
2.4714 -6.4882 -1.1438 0.9722
2.4754 -5.8630 -1.0484 0.9745
2.4816 -4.8776 -0.9016 0.9781
2.4878 -3.8193 -0.7509 0.9817
2.4893 -3.5397 -0.7129 0.9826
2.4907 -3.2868 -0.6794 0.9834
2.5019 -2.8549 -0.6254 0.9847
2.4884 -2.4620 -0.5767 0.9859
2.4893 -2.1350 -0.5403 0.9868
2.4897 -1.9862 -0.5247 0.9872
2.4900 -1.8455 -0.5106 0.9875
2.4904 -1.7120 -0.4978 0.9878
2.4908 -1.4631 -0.4759 0.9884
2.4912 -1.1257 -0.4504 0.9890
2.4913 -0.9187 -0.4374 0.9893
2.4913 -0.6271 -0.4232 0.9896
2.4912 -0.5337 -0.4197 0.9897
2.4910 -0.3508 -0.4144 0.9899
2.4905 -0.0827 -0.4105 0.9899
2.4900 0.0945 -0.4105 0.9899
2.4897 0.1833 -0.4113 0.9899
2.4631 -6.4663 -1.3006 0.9722
2.4678 -5.8448 -1.1925 0.9745
2.4717 -5.3180 -1.1023 0.9764
2.4750 -4.8646 -1.0259 0.9780
2.4778 -4.4694 -0.9605 0.9794
2.4841 -3.5323 -0.8117 0.9826
2.4871 -3.0503 -0.7398 0.9841
2.5019 -2.8549 -0.7135 0.9847
2.4835 -2.6384 -0.6810 0.9854
2.4849 -2.2895 -0.6351 0.9863
2.4860 -1.9832 -0.5977 0.9871
2.4871 -1.5825 -0.5541 0.9881
2.4874 -1.4611 -0.5422 0.9883
2.4877 -1.3447 -0.5315 0.9886
2.4878 -1.2325 -0.5219 0.9888
2.4880 -1.1243 -0.5132 0.9889
2.4882 -0.8183 -0.4923 0.9894
2.4882 -0.7213 -0.4869 0.9895
2.4882 -0.6263 -0.4823 0.9896
2.4880 -0.3504 -0.4723 0.9898
2.4877 -0.1713 -0.4687 0.9899
2.4870 0.0943 -0.4678 0.9899
2.4401 -8.0937 -1.7869 0.9660
2.4646 -5.3027 -1.2360 0.9764
2.4716 -4.4581 -1.0775 0.9794
2.4743 -4.1112 -1.0143 0.9806
2.4806 -3.2735 -0.8682 0.9833
2.5019 -2.8549 -0.8024 0.9846
2.4801 -2.4538 -0.7375 0.9858
2.4816 -2.1284 -0.6911 0.9867
2.4828 -1.8401 -0.6532 0.9874
2.4840 -1.4591 -0.6090 0.9883
2.4846 -1.2309 -0.5861 0.9887
2.4851 -0.8173 -0.5530 0.9894
2.4851 -0.4406 -0.5335 0.9897
2.4850 -0.3500 -0.5305 0.9898
2.4849 -0.2602 -0.5281 0.9898
2.4848 -0.1712 -0.5265 0.9899
2.4846 -0.0825 -0.5255 0.9899
2.4841 0.0942 -0.5255 0.9899
2.4391 -7.1585 -1.7774 0.9694
2.4464 -6.4224 -1.6152 0.9722
2.4524 -5.8084 -1.4818 0.9744
2.4574 -5.2874 -1.3703 0.9763
2.4653 -4.4469 -1.1950 0.9793
2.4756 -3.2669 -0.9634 0.9833
2.4791 -1.8373 -0.7252 0.9874
2.4809 -1.3410 -0.6628 0.9885
2.4815 -1.1213 -0.6400 0.9889
2.4817 -1.0168 -0.6303 0.9890
2.4819 -0.9152 -0.6217 0.9892
2.4820 -0.8162 -0.6141 0.9893
2.4821 -0.7195 -0.6074 0.9894
2.4821 -0.6248 -0.6016 0.9895
2.4821 -0.4401 -0.5924 0.9897
2.4820 -0.3496 -0.5891 0.9898
2.4819 -0.2599 -0.5865 0.9898
2.4818 -0.1710 -0.5847 0.9898
2.4812 0.0941 -0.5835 0.9898
2.4380 -6.4004 -1.7733 0.9721
2.4447 -5.7901 -1.6273 0.9744
2.4503 -5.2719 -1.5052 0.9763
2.4550 -4.8254 -1.4018 0.9779
2.4682 -3.5097 -1.1110 0.9824
2.4726 -3.0325 -1.0131 0.9840
2.4746 -1.9741 -0.8196 0.9870
2.4754 -1.8346 -0.7977 0.9873
2.4775 -1.3392 -0.7292 0.9884
2.4779 -1.2276 -0.7160 0.9886
2.4782 -1.1199 -0.7041 0.9888
2.4787 -0.9141 -0.6840 0.9891
2.4789 -0.8152 -0.6756 0.9893
2.4790 -0.7187 -0.6683 0.9894
2.4790 -0.6240 -0.6619 0.9895
2.4788 -0.1708 -0.6433 0.9898
2.4786 -0.0823 -0.6421 0.9898
2.4784 0.0058 -0.6417 0.9898
2.4094 -7.9920 -2.3631 0.9659
2.4206 -7.1043 -2.1247 0.9693
2.4296 -6.3782 -1.9322 0.9720
2.4483 -4.8121 -1.5285 0.9778
2.4677 -3.0265 -1.1055 0.9839
2.4646 -2.8124 -1.0586 0.9846
2.4708 -1.9710 -0.8948 0.9869
2.4716 -1.8318 -0.8709 0.9873
2.4736 -1.4530 -0.8121 0.9881
2.4755 -0.9129 -0.7469 0.9891
2.4758 -0.7177 -0.7297 0.9893
2.4759 -0.6232 -0.7228 0.9894
2.4759 -0.3487 -0.7078 0.9897
2.4759 -0.2593 -0.7047 0.9897
2.4748 0.1822 -0.7025 0.9897
2.3953 -7.9448 -2.5523 0.9659
2.4358 -5.2408 -1.7776 0.9761
2.4415 -4.7988 -1.6561 0.9777
2.4542 -3.7678 -1.3831 0.9814
2.4574 -3.4944 -1.3140 0.9823
2.4627 -3.0204 -1.1987 0.9838
2.4617 -2.6153 -1.1047 0.9851
2.4646 -2.2709 -1.0308 0.9861
2.4658 -2.1149 -0.9992 0.9865
2.4687 -1.6971 -0.9214 0.9875
2.4706 -1.3354 -0.8638 0.9883
2.4716 -1.1169 -0.8342 0.9887
2.4719 -1.0128 -0.8217 0.9889
2.4722 -0.9117 -0.8105 0.9890
2.4725 -0.8131 -0.8005 0.9892
2.4727 -0.7168 -0.7918 0.9893
2.4728 -0.6225 -0.7843 0.9894
2.4727 -0.1703 -0.7623 0.9897
2.4723 0.0058 -0.7604 0.9897
2.4721 0.0938 -0.7609 0.9897
2.2074 -7.3216 -2.5420 0.9683
2.4125 -6.3334 -2.2529 0.9718
2.4400 -4.4012 -1.6728 0.9790
2.4551 -3.2397 -1.3512 0.9830
2.4578 -3.0143 -1.2929 0.9837
2.4554 -2.8018 -1.2384 0.9844
2.4590 -2.4329 -1.1498 0.9855
2.4604 -2.2670 -1.1121 0.9860
2.4618 -2.1114 -1.0781 0.9864
2.4629 -1.9648 -1.0473 0.9868
2.4640 -1.8262 -1.0195 0.9872
2.4657 -1.5689 -0.9715 0.9878
2.4665 -1.4488 -0.9509 0.9880
2.4671 -1.3336 -0.9322 0.9882
2.4689 -0.9104 -0.8747 0.9890
2.4696 -0.6217 -0.8465 0.9893
2.4697 -0.5291 -0.8396 0.9894
2.4697 -0.4379 -0.8338 0.9895
2.4694 -0.0820 -0.8213 0.9896
2.4692 0.0058 -0.8208 0.9896
2.4690 0.0937 -0.8213 0.9896
2.0446 -6.7817 -2.5330 0.9704
2.2962 -6.7393 -2.5461 0.9702
2.4039 -6.3108 -2.4150 0.9717
2.4133 -5.7157 -2.2187 0.9740
2.4278 -4.7718 -1.9146 0.9775
2.4335 -4.3895 -1.7948 0.9789
2.4384 -4.0516 -1.6911 0.9801
2.4464 -3.4788 -1.5209 0.9821
2.4527 -3.0081 -1.3880 0.9836
2.4546 -2.4286 -1.2348 0.9854
2.4562 -2.2631 -1.1944 0.9859
2.4589 -1.9616 -1.1249 0.9867
2.4601 -1.8233 -1.0950 0.9871
2.4611 -1.6919 -1.0680 0.9874
2.4621 -1.5666 -1.0436 0.9877
2.4629 -1.4467 -1.0214 0.9879
2.4636 -1.3317 -1.0015 0.9882
2.4647 -1.1138 -0.9672 0.9886
2.4656 -0.9092 -0.9398 0.9889
2.4659 -0.8110 -0.9283 0.9890
2.4665 -0.5284 -0.9021 0.9893
2.4666 -0.4373 -0.8958 0.9894
2.4666 -0.3474 -0.8908 0.9895
2.4661 0.0058 -0.8819 0.9896
2.4658 0.0935 -0.8824 0.9896
2.4655 0.1815 -0.8841 0.9896
2.4137 -5.1931 -2.1946 0.9758
2.4269 -4.3777 -1.9182 0.9788
2.4322 -4.0413 -1.8076 0.9800
2.4368 -3.7411 -1.7110 0.9811
2.4409 -3.4709 -1.6261 0.9820
2.4482 -2.6009 -1.3688 0.9848
2.4535 -2.1043 -1.2387 0.9862
2.4562 -1.8204 -1.1716 0.9870
2.4600 -1.3297 -1.0716 0.9881
2.4607 -1.2191 -1.0524 0.9883
2.4626 -0.8099 -0.9934 0.9890
2.4629 -0.7140 -0.9827 0.9891
2.4633 -0.4367 -0.9587 0.9893
2.4634 -0.3469 -0.9533 0.9894
2.4634 -0.2580 -0.9492 0.9894
2.4629 0.0058 -0.9438 0.9895
2.4627 0.0934 -0.9444 0.9895
2.4623 0.1812 -0.9462 0.9895
1.7761 -5.8910 -2.5182 0.9738
2.2099 -5.8013 -2.5408 0.9735
2.3971 -5.6775 -2.5223 0.9737
2.4138 -4.7443 -2.1786 0.9773
2.4203 -4.3657 -2.0430 0.9787
2.4260 -4.0309 -1.9255 0.9799
2.4352 -3.4628 -1.7326 0.9819
2.4412 -2.7856 -1.5159 0.9841
2.4436 -2.5960 -1.4591 0.9847
2.4508 -1.9552 -1.2832 0.9865
2.4522 -1.8174 -1.2492 0.9869
2.4534 -1.6866 -1.2185 0.9872
2.4545 -1.5618 -1.1907 0.9875
2.4555 -1.4424 -1.1655 0.9878
2.4571 -1.2173 -1.1223 0.9882
2.4578 -1.1106 -1.1038 0.9884
2.4598 -0.6192 -1.0381 0.9891
2.4601 -0.4362 -1.0226 0.9893
2.4602 -0.3464 -1.0168 0.9893
2.4602 -0.2576 -1.0124 0.9894
2.4601 -0.1695 -1.0092 0.9894
2.4599 -0.0817 -1.0073 0.9894
2.4597 0.0058 -1.0067 0.9894
2.4595 0.0933 -1.0073 0.9894
2.4591 0.1810 -1.0092 0.9894
2.0690 -5.4316 -2.5331 0.9750
2.2702 -5.3767 -2.5436 0.9749
2.4066 -4.7303 -2.3130 0.9771
2.4136 -4.3536 -2.1695 0.9785
2.4196 -4.0204 -2.0450 0.9797
2.4249 -3.7227 -1.9363 0.9808
2.4388 -2.5910 -1.5508 0.9846
2.4412 -2.4153 -1.4966 0.9851
2.4432 -2.2511 -1.4479 0.9856
2.4467 -1.9519 -1.3641 0.9864
2.4535 -1.2155 -1.1933 0.9881
2.4557 -0.8076 -1.1267 0.9888
2.4564 -0.6183 -1.1039 0.9890
2.4566 -0.5263 -1.0949 0.9891
2.4568 -0.4356 -1.0874 0.9892
2.4568 -0.1692 -1.0732 0.9893
2.4565 0.0058 -1.0706 0.9893
1.5631 -5.1845 -2.5065 0.9764
2.1311 -5.0472 -2.5360 0.9761
2.3180 -4.9873 -2.5457 0.9761
2.3994 -4.7160 -2.4493 0.9769
2.4132 -4.0097 -2.1663 0.9796
2.4188 -3.7134 -2.0514 0.9807
2.4237 -3.4464 -1.9503 0.9816
2.4318 -2.9825 -1.7814 0.9832
2.4341 -2.5859 -1.6438 0.9845
2.4366 -2.4107 -1.5866 0.9850
2.4407 -2.0934 -1.4884 0.9859
2.4425 -1.9485 -1.4463 0.9863
2.4441 -1.8114 -1.4082 0.9867
2.4455 -1.6811 -1.3736 0.9870
2.4467 -1.5568 -1.3424 0.9873
2.4489 -1.3237 -1.2885 0.9878
2.4498 -1.2137 -1.2655 0.9880
2.4505 -1.1073 -1.2448 0.9882
2.4512 -1.0043 -1.2262 0.9884
2.4523 -0.8065 -1.1949 0.9887
2.4527 -0.7110 -1.1820 0.9888
2.4532 -0.5255 -1.1613 0.9890
2.4535 -0.3455 -1.1469 0.9891
2.4535 -0.2569 -1.1419 0.9892
2.4534 -0.0815 -1.1362 0.9892
1.8288 -4.8009 -2.5200 0.9774
2.0056 -4.7501 -2.5292 0.9773
2.1810 -4.6926 -2.5383 0.9772
2.4264 -2.9759 -1.8835 0.9830
2.4263 -2.7686 -1.8058 0.9837
2.4292 -2.5808 -1.7385 0.9843
2.4382 -1.9451 -1.5299 0.9862
2.4399 -1.8083 -1.4897 0.9866
2.4428 -1.5543 -1.4202 0.9872
2.4439 -1.4356 -1.3904 0.9875
2.4460 -1.2118 -1.3390 0.9879
2.4468 -1.1057 -1.3171 0.9881
2.4475 -1.0028 -1.2974 0.9883
2.4482 -0.9028 -1.2799 0.9884
2.4487 -0.8053 -1.2644 0.9886
2.4495 -0.6166 -1.2390 0.9888
2.4497 -0.5248 -1.2289 0.9889
2.4501 -0.3450 -1.2137 0.9890
2.4501 -0.1688 -1.2047 0.9891
2.4499 -0.0814 -1.2024 0.9891
2.4491 0.1803 -1.2046 0.9891
1.3893 -4.6082 -2.4969 0.9785
1.5578 -4.5719 -2.5057 0.9785
1.7253 -4.5293 -2.5144 0.9784
1.8917 -4.4804 -2.5230 0.9783
2.2203 -4.3639 -2.5401 0.9782
2.3819 -4.2963 -2.5484 0.9781
2.4000 -3.9878 -2.4146 0.9792
2.4063 -3.6942 -2.2872 0.9803
2.4117 -3.4295 -2.1751 0.9813
2.4209 -2.9691 -1.9875 0.9829
2.4212 -2.7628 -1.9058 0.9836
2.4243 -2.5755 -1.8349 0.9842
2.4271 -2.4013 -1.7713 0.9847
2.4373 -1.6754 -1.5343 0.9868
2.4400 -1.4333 -1.4681 0.9873
2.4421 -1.2099 -1.4139 0.9878
2.4431 -1.1040 -1.3908 0.9880
2.4438 -1.0013 -1.3701 0.9882
2.4445 -0.9014 -1.3516 0.9883
2.4451 -0.8041 -1.3353 0.9885
2.4456 -0.7090 -1.3209 0.9886
2.4460 -0.6157 -1.3085 0.9887
2.4463 -0.5240 -1.2979 0.9888
2.4465 -0.4337 -1.2890 0.9889
2.4466 -0.3445 -1.2818 0.9889
2.4466 -0.2562 -1.2762 0.9890
2.4466 -0.1685 -1.2723 0.9890
2.4465 -0.0813 -1.2699 0.9890
1.3138 -4.3576 -2.4928 0.9795
1.4728 -4.3224 -2.5011 0.9794
2.3933 -3.9765 -2.5420 0.9791
2.3999 -3.6843 -2.4083 0.9801
2.4056 -3.4207 -2.2905 0.9811
2.4160 -2.7568 -2.0077 0.9834
2.4192 -2.5702 -1.9332 0.9840
2.4248 -2.2342 -1.8059 0.9851
2.4272 -2.0818 -1.7514 0.9855
2.4294 -1.9381 -1.7021 0.9859
2.4330 -1.6725 -1.6171 0.9866
2.4346 -1.5491 -1.5805 0.9869
2.4359 -1.4309 -1.5473 0.9872
2.4371 -1.3174 -1.5174 0.9874
2.4392 -1.1022 -1.4660 0.9879
2.4423 -0.6148 -1.3794 0.9886
2.4430 -0.3440 -1.3513 0.9888
2.4431 -0.2558 -1.3454 0.9889
2.4430 -0.0812 -1.3388 0.9889
2.4428 0.0057 -1.3379 0.9889
2.4421 0.1798 -1.3412 0.9889
1.2444 -4.1275 -2.4890 0.9803
1.3947 -4.0935 -2.4968 0.9802
1.5442 -4.0538 -2.5045 0.9802
1.6926 -4.0087 -2.5122 0.9801
1.9851 -3.9016 -2.5274 0.9800
2.1288 -3.8399 -2.5349 0.9799
2.2706 -3.7726 -2.5422 0.9799
2.4096 -2.9552 -2.2015 0.9825
2.4106 -2.7507 -2.1117 0.9832
2.4173 -2.3916 -1.9632 0.9844
2.4200 -2.2298 -1.8999 0.9849
2.4248 -1.9344 -1.7909 0.9858
2.4269 -1.7987 -1.7440 0.9861
2.4287 -1.6696 -1.7016 0.9865
2.4318 -1.4285 -1.6283 0.9871
2.4331 -1.3152 -1.5968 0.9873
2.4342 -1.2060 -1.5684 0.9875
2.4353 -1.1004 -1.5429 0.9877
2.4362 -0.9982 -1.5200 0.9879
2.4376 -0.8017 -1.4815 0.9882
2.4381 -0.7068 -1.4656 0.9883
2.4386 -0.6138 -1.4519 0.9885
2.4395 -0.2554 -1.4161 0.9887
2.4395 -0.1680 -1.4118 0.9888
2.4389 0.0925 -1.4091 0.9888
