ply
format ascii 1.0
element vertex 585
property float32 x
property float32 y
property float32 z
property float32 I
end_header
-26.9951 25.9393 6.6013 0.8589
-27.2181 24.3419 6.4386 0.8622
-27.3157 21.1168 6.0879 0.8692
-29.7378 14.1233 5.8049 0.8748
-27.1517 28.0259 5.9779 0.8539
-27.2082 26.1441 5.7805 0.8584
-27.2569 24.3765 5.6019 0.8625
-27.3700 22.7688 5.4541 0.8658
-27.3562 21.1481 5.2971 0.8694
-27.5010 18.2756 5.0584 0.8749
-27.4798 16.8762 4.9402 0.8777
-27.5169 15.5715 4.8436 0.8799
-42.0379 16.3930 6.9123 0.8331
-46.9048 14.5221 7.5221 0.8198
-27.1374 30.0949 5.2770 0.8492
-27.2520 26.1862 4.9216 0.8586
-27.4793 18.2612 4.2965 0.8754
-27.5175 16.8994 4.2051 0.8779
-27.5887 14.3340 4.0486 0.8821
-29.6853 14.0983 4.2795 0.8758
-32.6977 14.1184 4.6379 0.8662
-42.0911 16.4137 5.8831 0.8334
-30.2317 10.5594 4.1700 0.8788
-46.9035 14.5217 6.3939 0.8203
-27.1213 32.3316 4.5316 0.8439
-27.3457 24.4560 3.9394 0.8628
-27.3927 22.7876 3.8262 0.8665
-27.4368 21.2104 3.7239 0.8698
-27.4783 19.7133 3.6315 0.8728
-27.5909 15.6134 3.4042 0.8803
-32.8297 14.1754 3.8399 0.8660
-42.1441 16.4344 4.8574 0.8336
-30.2718 10.5733 3.4432 0.8790
-46.9022 14.5213 5.2723 0.8208
-27.2870 28.1655 3.3197 0.8543
-25.3387 24.3477 2.9747 0.8684
-26.2922 23.5138 2.9860 0.8680
-27.4338 22.8219 3.0209 0.8665
-27.4769 21.2414 2.9400 0.8699
-27.4876 18.2666 2.7938 0.8759
-27.4986 16.8877 2.7318 0.8785
-27.5334 15.5808 2.6781 0.8807
-32.6964 14.1179 3.0148 0.8668
-30.3118 10.5873 2.7180 0.8791
-27.2429 28.1201 2.4279 0.8548
-27.3828 26.3119 2.3549 0.8588
-27.4373 24.5378 2.2825 0.8628
-27.4829 22.8627 2.2168 0.8665
-27.6550 18.3779 2.0590 0.8754
-27.6304 16.9686 2.0107 0.8781
-42.2498 16.4756 2.8121 0.8338
-40.5125 12.5430 2.6298 0.8437
-25.6405 35.4329 1.7246 0.8394
-27.2724 28.1506 1.5455 0.8548
-27.4264 26.3538 1.4998 0.8588
-27.4897 24.5847 1.4542 0.8627
-25.8034 19.9477 1.2860 0.8776
-25.8397 18.5377 1.2540 0.8805
-25.9317 15.9255 1.1999 0.8853
-27.7338 14.4095 1.2324 0.8824
-32.8278 14.1746 1.4099 0.8666
-25.5724 32.8005 0.7026 0.8467
-27.3147 32.5621 0.7179 0.8436
-27.3704 30.3532 0.6904 0.8492
-27.3173 28.1969 0.6632 0.8547
-27.4701 26.3957 0.6435 0.8586
-26.5136 23.7118 0.6008 0.8674
-27.5972 21.3345 0.5892 0.8698
-25.8764 18.5640 0.5380 0.8804
-25.9101 17.2184 0.5255 0.8830
-25.9423 15.9320 0.5143 0.8853
-25.9732 14.6979 0.5041 0.8875
-27.7701 14.4283 0.5286 0.8823
-27.6846 13.1482 0.5177 0.8846
-32.8272 14.1743 0.6040 0.8667
-40.5519 15.8135 0.7352 0.8402
-30.4317 10.6292 0.5445 0.8790
-25.5311 35.2817 -0.2451 0.8401
-25.6422 28.4367 -0.2156 0.8580
-25.6890 26.5161 -0.2079 0.8627
-25.7734 23.0498 -0.1947 0.8708
-25.8827 18.5686 -0.1793 0.8804
-25.9156 17.2220 -0.1752 0.8830
-25.9470 15.9348 -0.1714 0.8853
-25.9772 14.7002 -0.1680 0.8875
-26.0093 13.5134 -0.1650 0.8894
-39.1804 15.2787 -0.2368 0.8452
-30.3547 10.6023 -0.1810 0.8793
-39.3326 12.1777 -0.2318 0.8481
-41.6196 9.6870 -0.2406 0.8429
-21.5797 44.9616 -1.4043 0.8191
-23.3816 37.7252 -1.2497 0.8373
-24.9237 29.7119 -1.0920 0.8563
-25.9509 21.5883 -0.9505 0.8736
-26.2180 20.2683 -0.9331 0.8758
-25.9196 18.5950 -0.8982 0.8802
-25.9516 17.2460 -0.8774 0.8828
-26.0432 13.5311 -0.8264 0.8892
-26.1003 12.3957 -0.8136 0.8908
-27.5694 11.9041 -0.8456 0.8868
-27.7319 10.8142 -0.8381 0.8877
-28.5770 9.9813 -0.8523 0.8859
-30.3089 8.2079 -0.8842 0.8819
-4.0879 45.4849 -2.3160 0.8328
-12.4368 35.1437 -1.8906 0.8613
-15.0152 31.2845 -1.7598 0.8702
-18.9378 24.2906 -1.5620 0.8839
-19.4617 23.2006 -1.5358 0.8858
-19.9540 22.1286 -1.5111 0.8875
-20.4162 21.0753 -1.4880 0.8891
-21.6367 17.9994 -1.4273 0.8934
-21.9925 17.0017 -1.4097 0.8946
-22.3244 16.0158 -1.3934 0.8958
-22.6337 15.0411 -1.3782 0.8969
-22.9211 14.0766 -1.3641 0.8979
-23.6382 11.2264 -1.3271 0.9005
-23.8673 10.3056 -1.3184 0.9011
-24.0562 9.3809 -1.3095 0.9018
-24.2271 8.4621 -1.3014 0.9023
-24.3804 7.5484 -1.2943 0.9028
-24.6356 5.7339 -1.2828 0.9037
-24.7383 4.8319 -1.2783 0.9040
-4.9973 30.7307 -2.2828 0.8826
-7.7506 28.1628 -2.1417 0.8894
-8.5799 27.3154 -2.0993 0.8915
-9.3683 26.4727 -2.0590 0.8935
-10.8300 24.8023 -1.9844 0.8971
-11.5069 23.9748 -1.9499 0.8988
-12.1498 23.1524 -1.9171 0.9004
-12.7603 22.3351 -1.8861 0.9020
-13.3397 21.5231 -1.8566 0.9034
-16.2317 16.7543 -1.7104 0.9107
-16.6259 15.9757 -1.6906 0.9117
-16.9974 15.2013 -1.6720 0.9126
-17.9832 12.9014 -1.6228 0.9151
-18.2711 12.1419 -1.6085 0.9158
-19.2336 9.1346 -1.5612 0.9181
-19.7696 6.9051 -1.5354 0.9194
-20.1561 4.6914 -1.5174 0.9203
0.4466 25.1978 -2.4195 0.9037
-1.3880 25.7517 -2.4759 0.9016
-2.2663 25.2158 -2.4306 0.9033
-3.1103 24.6691 -2.3871 0.9049
-3.9211 24.1128 -2.3454 0.9065
-4.6996 23.5479 -2.3053 0.9080
-6.1636 22.3960 -2.2301 0.9109
-6.8508 21.8105 -2.1948 0.9122
-7.5093 21.2198 -2.1610 0.9135
-8.1401 20.6244 -2.1287 0.9148
-9.3217 19.4218 -2.0682 0.9171
-9.8739 18.8156 -2.0400 0.9182
-10.4016 18.2067 -2.0131 0.9192
-11.8441 16.3675 -1.9396 0.9220
-13.0892 14.5157 -1.8765 0.9245
-14.7671 11.4160 -1.7920 0.9277
-15.5561 9.5535 -1.7526 0.9293
-15.7851 8.9326 -1.7413 0.9297
-16.5394 6.4496 -1.7043 0.9311
-16.8230 5.2086 -1.6907 0.9317
-17.0463 3.9675 -1.6803 0.9321
-17.1358 3.3470 -1.6762 0.9322
-2.5492 20.2183 -2.4207 0.9212
-3.2238 19.8250 -2.3859 0.9223
-4.5050 19.0028 -2.3198 0.9243
-5.1122 18.5758 -2.2886 0.9253
-7.8285 16.3108 -2.1491 0.9297
-8.7730 15.3559 -2.1008 0.9312
-9.6408 14.3794 -2.0565 0.9326
-10.4350 13.3845 -2.0160 0.9339
-10.8054 12.8812 -1.9972 0.9345
-11.4941 11.8643 -1.9622 0.9356
-12.4023 10.3174 -1.9164 0.9371
-12.6729 9.7970 -1.9027 0.9375
-12.9278 9.2746 -1.8900 0.9379
-13.1673 8.7503 -1.8780 0.9383
-13.6011 7.6967 -1.8564 0.9390
-13.7957 7.1677 -1.8467 0.9393
-13.9758 6.6375 -1.8378 0.9396
-14.6635 3.9710 -1.8046 0.9406
-14.7593 3.4352 -1.8001 0.9408
-14.8416 2.8989 -1.7963 0.9409
0.3027 17.0757 -2.4198 0.9333
-0.3237 17.9163 -2.5390 0.9302
-1.5635 17.3962 -2.4748 0.9319
-2.1578 17.1141 -2.4441 0.9327
-2.7349 16.8182 -2.4143 0.9335
-3.2949 16.5095 -2.3854 0.9342
-3.8379 16.1887 -2.3573 0.9350
-4.8729 15.5137 -2.3040 0.9364
-6.2999 14.4277 -2.2306 0.9384
-7.1692 13.6616 -2.1860 0.9396
-7.5798 13.2674 -2.1650 0.9401
-10.3098 9.9066 -2.0259 0.9439
-10.5845 9.4660 -2.0120 0.9442
-10.8450 9.0219 -1.9988 0.9446
-11.0915 8.5745 -1.9864 0.9449
-11.3241 8.1240 -1.9747 0.9453
-12.5757 4.9040 -1.9125 0.9469
-12.7022 4.4366 -1.9064 0.9471
-12.8158 3.9679 -1.9009 0.9472
-13.0809 2.5550 -1.8885 0.9476
-1.3519 15.0426 -2.4881 0.9406
-1.8689 14.8235 -2.4613 0.9412
-3.3401 14.0889 -2.3853 0.9430
-3.8035 13.8205 -2.3614 0.9435
-4.2533 13.5412 -2.3382 0.9441
-4.6896 13.2518 -2.3158 0.9446
-5.1122 12.9527 -2.2940 0.9451
-5.5212 12.6445 -2.2730 0.9456
-5.9167 12.3277 -2.2527 0.9461
-6.6672 11.6700 -2.2141 0.9470
-7.3641 10.9835 -2.1785 0.9478
-8.0079 10.2714 -2.1456 0.9486
-8.3101 9.9066 -2.1302 0.9489
-8.5993 9.5365 -2.1154 0.9493
-9.3900 8.3978 -2.0753 0.9502
-9.8540 7.6178 -2.0519 0.9508
-10.2681 6.8236 -2.0310 0.9512
-10.4568 6.4219 -2.0216 0.9515
-10.9501 5.2005 -1.9970 0.9520
-11.0906 4.7887 -1.9901 0.9522
-11.2191 4.3750 -1.9838 0.9524
-11.4408 3.5422 -1.9730 0.9526
-11.5341 3.1235 -1.9686 0.9527
-11.6157 2.7036 -1.9647 0.9528
-11.6857 2.2825 -1.9615 0.9529
-0.2448 13.5500 -2.5473 0.9463
-0.7223 13.4010 -2.5225 0.9468
-2.0934 12.8736 -2.4515 0.9483
-2.9541 12.4607 -2.4070 0.9492
-3.3678 12.2374 -2.3857 0.9497
-3.7704 12.0037 -2.3649 0.9501
-4.1616 11.7599 -2.3447 0.9505
-5.6122 10.6945 -2.2701 0.9520
-5.9460 10.4077 -2.2530 0.9524
-6.2683 10.1136 -2.2365 0.9527
-6.5789 9.8125 -2.2205 0.9531
-7.4417 8.8714 -2.1765 0.9540
-7.7063 8.5462 -2.1630 0.9542
-8.2012 7.8804 -2.1378 0.9548
-8.8583 6.8480 -2.1045 0.9555
-9.0547 6.4960 -2.0946 0.9557
-9.2401 6.1404 -2.0853 0.9558
-9.5773 5.4197 -2.0684 0.9562
-9.7293 5.0550 -2.0608 0.9564
-10.2276 3.5723 -2.0363 0.9569
-10.3249 3.1967 -2.0316 0.9570
-10.4113 2.8195 -2.0274 0.9570
-10.4870 2.4409 -2.0238 0.9571
-10.5519 2.0610 -2.0208 0.9572
-0.2179 12.0622 -2.5501 0.9519
-0.6437 11.9423 -2.5280 0.9523
-1.4706 11.6645 -2.4852 0.9531
-1.8713 11.5076 -2.4644 0.9535
-2.2630 11.3392 -2.4442 0.9538
-3.0190 10.9701 -2.4051 0.9545
-3.7373 10.5609 -2.3680 0.9552
-4.7415 9.8791 -2.3163 0.9562
-5.0563 9.6353 -2.3001 0.9565
-5.9402 8.8598 -2.2548 0.9573
-6.4785 8.3096 -2.2272 0.9578
-6.7322 8.0255 -2.2143 0.9581
-7.8469 6.5278 -2.1576 0.9591
-8.0390 6.2147 -2.1479 0.9593
-8.2210 5.8978 -2.1387 0.9595
-8.3926 5.5773 -2.1300 0.9596
-8.8465 4.5963 -2.1073 0.9601
-9.2090 3.5911 -2.0894 0.9604
-9.3096 3.2517 -2.0845 0.9605
-9.5510 2.2230 -2.0729 0.9607
0.1827 10.3081 -2.4230 0.9585
-0.9571 10.6494 -2.5129 0.9570
-1.6903 10.3941 -2.4749 0.9577
-2.0457 10.2502 -2.4565 0.9580
-2.3935 10.0960 -2.4386 0.9583
-2.7333 9.9318 -2.4210 0.9586
-3.0651 9.7581 -2.4039 0.9588
-3.7036 9.3836 -2.3709 0.9594
-4.3078 8.9754 -2.3398 0.9599
-4.5968 8.7595 -2.3249 0.9602
-5.1479 8.3060 -2.2966 0.9606
-5.4100 8.0690 -2.2832 0.9609
-5.6629 7.8256 -2.2702 0.9611
-5.9066 7.5762 -2.2578 0.9613
-6.1411 7.3209 -2.2458 0.9615
-6.3663 7.0602 -2.2343 0.9617
-6.5823 6.7943 -2.2233 0.9619
-6.7889 6.5234 -2.2128 0.9621
-7.6814 5.1046 -2.1676 0.9628
-7.8317 4.8097 -2.1600 0.9629
-8.3390 3.6006 -2.1347 0.9634
-8.4423 3.2921 -2.1297 0.9635
-8.8179 1.7223 -2.1116 0.9638
0.1657 9.3457 -2.4201 0.9621
-0.1782 9.8637 -2.5543 0.9601
-0.5272 9.7812 -2.5362 0.9603
-0.8706 9.6875 -2.5184 0.9606
-1.5396 9.4682 -2.4837 0.9611
-1.8647 9.3433 -2.4669 0.9614
-3.0965 8.7499 -2.4032 0.9624
-3.6686 8.4017 -2.3737 0.9628
-3.9432 8.2158 -2.3595 0.9630
-4.2100 8.0225 -2.3458 0.9633
-4.9623 7.4013 -2.3072 0.9639
-5.1967 7.1814 -2.2952 0.9640
-5.4228 6.9556 -2.2836 0.9642
-5.6406 6.7242 -2.2725 0.9644
-5.8499 6.4875 -2.2618 0.9645
-6.0507 6.2456 -2.2515 0.9647
-6.4268 5.7477 -2.2324 0.9650
-6.7684 5.2325 -2.2151 0.9653
-6.9262 4.9690 -2.2071 0.9654
-7.2159 4.4315 -2.1925 0.9656
-7.3476 4.1579 -2.1859 0.9657
-7.4706 3.8814 -2.1798 0.9658
-7.6903 3.3206 -2.1688 0.9660
-7.7870 3.0366 -2.1641 0.9661
-7.8749 2.7506 -2.1598 0.9661
-8.0245 2.1731 -2.1525 0.9662
-8.0861 1.8820 -2.1496 0.9663
-8.1389 1.5897 -2.1471 0.9663
-0.4828 8.9568 -2.5393 0.9634
-1.1077 8.7858 -2.5069 0.9639
-1.4124 8.6854 -2.4911 0.9641
-1.7115 8.5756 -2.4756 0.9643
-2.5733 8.1927 -2.4310 0.9649
-2.8481 8.0481 -2.4168 0.9651
-3.3777 7.7354 -2.3895 0.9655
-4.1202 7.2117 -2.3513 0.9661
-4.3532 7.0237 -2.3393 0.9662
-4.5789 6.8295 -2.3277 0.9664
-5.0078 6.4234 -2.3058 0.9667
-5.5937 5.7739 -2.2758 0.9671
-5.7734 5.5476 -2.2667 0.9673
-6.4127 4.6005 -2.2342 0.9677
-6.6841 4.1049 -2.2206 0.9679
-6.9230 3.5969 -2.2086 0.9681
-7.3026 2.5507 -2.1898 0.9684
-7.5010 1.7459 -2.1802 0.9685
-7.5506 1.4748 -2.1779 0.9685
0.1394 7.8673 -2.4202 0.9676
-0.1502 8.3129 -2.5573 0.9658
-1.0216 8.1029 -2.5120 0.9664
-1.5800 7.9169 -2.4831 0.9668
-2.1181 7.6963 -2.4552 0.9671
-3.1266 7.1603 -2.4032 0.9678
-3.3635 7.0081 -2.3909 0.9680
-4.2467 6.3339 -2.3455 0.9686
-4.4506 6.1504 -2.3351 0.9687
-4.6476 5.9613 -2.3250 0.9689
-4.8376 5.7670 -2.3153 0.9690
-5.0205 5.5677 -2.3059 0.9691
-5.1962 5.3636 -2.2969 0.9692
-5.5258 4.9419 -2.2802 0.9695
-5.6795 4.7248 -2.2724 0.9696
-5.9647 4.2792 -2.2579 0.9697
-6.2198 3.8198 -2.2451 0.9699
-6.5455 3.1086 -2.2288 0.9701
-6.8720 2.1277 -2.2127 0.9703
-6.9343 1.8779 -2.2097 0.9704
0.1290 7.2798 -2.4202 0.9698
-0.4120 7.6430 -2.5443 0.9683
-0.6814 7.5815 -2.5303 0.9684
-1.2085 7.4321 -2.5029 0.9688
-2.4476 6.9165 -2.4388 0.9695
-2.6803 6.7909 -2.4268 0.9697
-2.9074 6.6583 -2.4151 0.9698
-3.1288 6.5191 -2.4037 0.9700
-3.3446 6.3734 -2.3925 0.9701
-3.9556 5.8998 -2.3611 0.9705
-4.1469 5.7306 -2.3513 0.9706
-4.5101 5.3765 -2.3327 0.9709
-4.6819 5.1921 -2.3239 0.9710
-4.8470 5.0031 -2.3155 0.9711
-5.0053 4.8096 -2.3074 0.9712
-5.1569 4.6120 -2.2997 0.9713
-5.5702 3.9961 -2.2788 0.9715
-5.6939 3.7839 -2.2725 0.9716
-5.9202 3.3501 -2.2611 0.9717
-6.0225 3.1291 -2.2560 0.9718
-6.3598 2.2214 -2.2393 0.9720
-6.4260 1.9896 -2.2361 0.9720
-6.4848 1.7561 -2.2332 0.9721
-6.5804 1.2853 -2.2287 0.9721
0.1200 6.7668 -2.4202 0.9717
-0.1293 7.1561 -2.5595 0.9701
-0.8816 6.9926 -2.5204 0.9705
-1.1255 6.9216 -2.5077 0.9706
-2.0609 6.5611 -2.4593 0.9712
-2.2835 6.4528 -2.4478 0.9713
-2.5014 6.3377 -2.4366 0.9715
-2.7142 6.2160 -2.4256 0.9716
-2.9219 6.0879 -2.4149 0.9717
-3.3212 5.8135 -2.3943 0.9720
-3.8782 5.3593 -2.3657 0.9723
-4.6867 4.5034 -2.3244 0.9728
-4.9662 4.1313 -2.3101 0.9729
-5.6471 2.9341 -2.2758 0.9733
-5.9662 2.0839 -2.2600 0.9735
-6.1331 1.4275 -2.2519 0.9736
-0.1207 6.6802 -2.5604 0.9718
-0.3579 6.6394 -2.5481 0.9719
-0.5923 6.5907 -2.5359 0.9721
-1.2770 6.3984 -2.5004 0.9724
-1.4982 6.3195 -2.4889 0.9726
-1.9288 6.1408 -2.4666 0.9728
-2.3425 5.9352 -2.4452 0.9730
-2.5426 5.8229 -2.4349 0.9731
-2.7379 5.7045 -2.4248 0.9733
-2.9284 5.5802 -2.4150 0.9734
-3.1137 5.4503 -2.4055 0.9735
-3.2941 5.3148 -2.3962 0.9736
-3.8027 4.8775 -2.3701 0.9739
-3.9611 4.7222 -2.3620 0.9739
-4.2608 4.3981 -2.3467 0.9741
-4.4019 4.2298 -2.3395 0.9742
-4.5371 4.0576 -2.3326 0.9743
-4.9060 3.5197 -2.3139 0.9745
-5.0167 3.3338 -2.3083 0.9745
-5.1210 3.1450 -2.3030 0.9746
-5.2191 2.9534 -2.2981 0.9746
-5.3108 2.7593 -2.2935 0.9747
-5.4749 2.3640 -2.2853 0.9748
-5.5472 2.1632 -2.2817 0.9748
-5.6131 1.9605 -2.2785 0.9749
-5.6724 1.7562 -2.2756 0.9749
-5.8110 1.1350 -2.2690 0.9750
0.1048 5.9126 -2.4203 0.9748
-0.1130 6.2569 -2.5612 0.9733
-0.7723 6.1257 -2.5269 0.9737
-0.9866 6.0673 -2.5158 0.9738
-1.6101 5.8506 -2.4835 0.9741
-1.8108 5.7650 -2.4731 0.9742
-2.2003 5.5750 -2.4530 0.9744
-2.3889 5.4709 -2.4433 0.9745
-2.9277 5.1245 -2.4155 0.9748
-3.0979 4.9983 -2.4067 0.9749
-3.8729 4.2951 -2.3670 0.9753
-4.1456 3.9836 -2.3531 0.9755
-4.3960 3.6570 -2.3403 0.9756
-4.7282 3.1421 -2.3235 0.9758
-4.9203 2.7843 -2.3138 0.9759
-5.0073 2.6016 -2.3095 0.9759
-5.0882 2.4166 -2.3054 0.9759
-5.1631 2.2294 -2.3017 0.9760
-5.3507 1.6566 -2.2925 0.9761
-5.4008 1.4626 -2.2900 0.9761
-5.4822 1.0708 -2.2862 0.9761
-0.1062 5.8775 -2.5619 0.9747
-0.3150 5.8450 -2.5511 0.9748
-0.5217 5.8054 -2.5403 0.9749
-0.7261 5.7589 -2.5297 0.9750
-1.1267 5.6455 -2.5089 0.9752
-1.3226 5.5789 -2.4988 0.9753
-1.8903 5.3415 -2.4694 0.9756
-2.0722 5.2504 -2.4600 0.9757
-2.2503 5.1536 -2.4508 0.9758
-2.5942 4.9434 -2.4331 0.9759
-2.7596 4.8305 -2.4245 0.9760
-3.2289 4.4621 -2.4004 0.9763
-3.5179 4.1938 -2.3856 0.9764
-3.9135 3.7605 -2.3654 0.9766
-4.4667 2.9683 -2.3373 0.9769
-4.5607 2.8009 -2.3326 0.9769
-4.6491 2.6309 -2.3281 0.9770
-5.0584 1.5661 -2.3078 0.9772
-5.1061 1.3828 -2.3055 0.9772
-5.1478 1.1982 -2.3035 0.9772
-5.1836 1.0125 -2.3018 0.9772
0.0927 5.2279 -2.4203 0.9772
-0.2968 5.5060 -2.5523 0.9760
-0.6843 5.4275 -2.5322 0.9762
-0.8746 5.3785 -2.5223 0.9763
-1.2473 5.2615 -2.5030 0.9764
-1.4294 5.1939 -2.4936 0.9765
-1.7839 5.0410 -2.4752 0.9767
-1.9561 4.9561 -2.4663 0.9768
-2.2894 4.7700 -2.4491 0.9769
-2.6071 4.5634 -2.4328 0.9771
-2.7597 4.4528 -2.4249 0.9772
-2.9081 4.3375 -2.4173 0.9772
-3.1915 4.0937 -2.4027 0.9774
-3.3264 3.9654 -2.3958 0.9774
-4.2281 2.8098 -2.3499 0.9779
-4.4018 2.4909 -2.3412 0.9780
-4.4805 2.3279 -2.3372 0.9780
-4.7915 1.4835 -2.3218 0.9781
-4.8369 1.3099 -2.3196 0.9782
-4.9108 0.9592 -2.3161 0.9782
-0.0944 5.2245 -2.5632 0.9770
-0.4642 5.1653 -2.5439 0.9772
-0.6463 5.1263 -2.5345 0.9772
-0.8262 5.0811 -2.5251 0.9773
-1.0038 5.0299 -2.5159 0.9774
-1.3512 4.9098 -2.4979 0.9776
-1.5206 4.8413 -2.4891 0.9776
-1.6870 4.7672 -2.4805 0.9777
-1.8502 4.6878 -2.4721 0.9778
-2.1663 4.5135 -2.4558 0.9779
-2.6127 4.2156 -2.4328 0.9781
-2.7537 4.1071 -2.4255 0.9782
-2.8904 3.9944 -2.4185 0.9783
-3.0230 3.8775 -2.4117 0.9783
-3.5087 3.3715 -2.3869 0.9786
-3.6185 3.2362 -2.3813 0.9786
-3.8239 2.9561 -2.3708 0.9787
-3.9192 2.8117 -2.3660 0.9787
-4.0095 2.6645 -2.3614 0.9788
-4.4979 1.5710 -2.3370 0.9790
-4.5466 1.4076 -2.3346 0.9790
-4.6278 1.0771 -2.3307 0.9791
-4.6603 0.9103 -2.3292 0.9791
0.0827 4.6647 -2.4203 0.9792
-0.2650 4.9170 -2.5546 0.9781
-0.4392 4.8870 -2.5455 0.9781
-0.6116 4.8511 -2.5365 0.9782
-0.7820 4.8092 -2.5277 0.9783
-1.4404 4.5857 -2.4936 0.9786
-1.5982 4.5164 -2.4854 0.9786
-2.1984 4.1894 -2.4544 0.9789
-2.3399 4.0958 -2.4471 0.9790
-2.6119 3.8956 -2.4331 0.9791
-3.4354 3.0724 -2.3910 0.9794
-3.5356 2.9412 -2.3859 0.9795
-3.7220 2.6703 -2.3764 0.9796
-3.8082 2.5307 -2.3721 0.9796
-3.8896 2.3887 -2.3680 0.9796
-4.0377 2.0978 -2.3605 0.9797
-4.1043 1.9493 -2.3572 0.9797
-4.1660 1.7988 -2.3541 0.9798
-4.3207 1.3378 -2.3465 0.9798
-4.4293 0.8652 -2.3413 0.9799
0.0783 4.4184 -2.4203 0.9800
-0.2511 4.6591 -2.5555 0.9789
-0.4162 4.6315 -2.5469 0.9790
-0.5797 4.5983 -2.5385 0.9791
-0.9011 4.5152 -2.5218 0.9792
-1.0586 4.4656 -2.5136 0.9793
-1.5166 4.2856 -2.4899 0.9795
-1.6638 4.2157 -2.4823 0.9795
-1.9494 4.0616 -2.4675 0.9797
-2.2221 3.8896 -2.4535 0.9798
-2.6050 3.5999 -2.4338 0.9799
-2.7253 3.4955 -2.4276 0.9800
-2.8415 3.3875 -2.4217 0.9800
-3.0621 3.1608 -2.4104 0.9801
-3.1663 3.0425 -2.4051 0.9802
-3.2662 2.9211 -2.4000 0.9802
-3.3618 2.7967 -2.3951 0.9803
-3.4530 2.6694 -2.3905 0.9803
-3.7728 2.1350 -2.3743 0.9804
-3.8412 1.9957 -2.3709 0.9805
-3.9638 1.7115 -2.3647 0.9805
-4.0672 1.4206 -2.3596 0.9805
-4.1117 1.2730 -2.3575 0.9806
-4.1512 1.1242 -2.3555 0.9806
-4.1858 0.9742 -2.3539 0.9806
-0.0802 4.4414 -2.5647 0.9797
-0.2383 4.4214 -2.5564 0.9798
-0.5503 4.3652 -2.5402 0.9799
-0.7039 4.3291 -2.5322 0.9799
-1.0055 4.2413 -2.5166 0.9801
-1.1530 4.1899 -2.5089 0.9801
-1.2983 4.1335 -2.5014 0.9802
-1.5813 4.0065 -2.4868 0.9803
-1.7187 3.9361 -2.4797 0.9804
-1.8532 3.8612 -2.4727 0.9804
-1.9847 3.7820 -2.4660 0.9805
-2.1131 3.6987 -2.4594 0.9805
-2.2381 3.6112 -2.4529 0.9806
-2.3599 3.5198 -2.4467 0.9806
-2.4781 3.4246 -2.4406 0.9807
-2.5928 3.3257 -2.4347 0.9807
-2.7038 3.2233 -2.4290 0.9808
-2.8110 3.1174 -2.4235 0.9808
-2.9144 3.0083 -2.4182 0.9808
-3.0138 2.8960 -2.4131 0.9809
-3.2877 2.5416 -2.3992 0.9810
-3.3706 2.4181 -2.3950 0.9810
-3.5235 2.1639 -2.3873 0.9811
-3.7196 1.7666 -2.3774 0.9812
-3.7760 1.6304 -2.3746 0.9812
-3.8749 1.3535 -2.3697 0.9812
-3.9174 1.2129 -2.3676 0.9812
-3.9883 0.9283 -2.3642 0.9813
