ply
format ascii 1.0
element vertex 516
property float32 x
property float32 y
property float32 z
property float32 I
end_header
7.4122 -4.1978 1.5020 0.9660
7.4192 -3.8569 1.4744 0.9666
7.4458 -2.5991 1.3906 0.9685
19.1429 -3.7272 3.4388 0.9238
22.8935 -3.6103 4.0866 0.9102
20.5261 18.7721 4.9046 0.8932
25.9068 25.4592 6.4046 0.8628
17.8361 18.8328 4.5736 0.9000
15.4731 18.8840 4.3048 0.9056
7.4020 -4.1920 1.3032 0.9662
7.4091 -3.8517 1.2792 0.9668
3.1658 -1.2342 0.5205 0.9863
24.3339 -3.8374 3.7739 0.9051
25.4334 18.6661 4.8330 0.8801
23.5327 18.6063 4.5958 0.8857
21.9071 18.6367 4.4062 0.8901
17.6873 18.6757 3.9405 0.9011
16.8350 19.1045 3.9009 0.9021
7.4063 -3.5186 1.0678 0.9675
3.0823 -1.3310 0.4372 0.9865
3.1632 -1.2332 0.4421 0.9864
8.3509 -2.5829 1.1383 0.9654
27.1920 18.4932 4.2823 0.8758
23.5651 18.6319 3.9119 0.8859
7.3818 -4.1805 0.9110 0.9664
3.0787 -1.3294 0.3601 0.9866
3.1607 -1.2323 0.3643 0.9864
7.4175 -2.5892 0.8436 0.9689
8.3554 -2.5843 0.9391 0.9654
26.4221 -4.1667 2.8723 0.8980
25.7091 18.8685 3.4244 0.8796
22.3783 19.0375 3.1549 0.8885
7.3719 -4.1749 0.7172 0.9666
7.3795 -3.8362 0.7041 0.9672
7.3869 -3.5094 0.6923 0.9677
3.0750 -1.3278 0.2835 0.9866
3.1582 -1.2313 0.2870 0.9865
26.3903 -4.1617 2.2616 0.8983
27.0916 18.4249 2.7735 0.8768
3.0714 -1.3263 0.2075 0.9867
27.1719 18.4795 2.0377 0.8766
7.3521 -4.1637 0.3332 0.9667
7.3678 -3.5003 0.3216 0.9679
3.0678 -1.3247 0.1318 0.9867
8.3685 -2.5883 0.3454 0.9655
26.3274 -4.1518 1.0509 0.8988
7.3423 -4.1581 0.1425 0.9668
3.0642 -1.3232 0.0564 0.9867
3.1508 -1.2284 0.0571 0.9866
8.3728 -2.5897 0.1480 0.9655
25.8064 -4.0696 0.4413 0.9008
25.8295 -3.1281 0.4395 0.9011
26.3846 17.9441 0.5390 0.8802
7.3488 -3.4913 -0.0458 0.9680
3.0606 -1.3216 -0.0188 0.9868
3.1483 -1.2274 -0.0190 0.9866
7.3715 -2.5732 -0.0440 0.9693
26.3140 17.8961 -0.1792 0.8805
7.3228 -4.1471 -0.2370 0.9669
7.3312 -3.8112 -0.2327 0.9675
7.3394 -3.4868 -0.2288 0.9680
3.0571 -1.3201 -0.0938 0.9868
3.1459 -1.2265 -0.0951 0.9866
25.7453 -4.0599 -0.7339 0.9010
25.7686 -3.1208 -0.7309 0.9013
26.3101 19.3096 -0.9190 0.8776
7.3217 -3.8062 -0.4185 0.9675
3.0786 -1.4626 -0.1729 0.9864
7.3580 -2.5685 -0.3952 0.9693
25.7148 -4.0552 -1.3202 0.9010
25.7382 -3.1171 -1.3148 0.9014
29.4199 13.0606 -1.6324 0.8790
29.4876 15.7125 -1.6945 0.8747
29.5213 17.1179 -1.7306 0.8723
29.5566 18.5865 -1.7707 0.8695
26.2715 17.8672 -1.6113 0.8805
29.6614 23.4522 -1.9176 0.8595
29.7188 29.2055 -2.1131 0.8463
2.8716 3.0321 -0.2118 0.9834
2.4913 3.0405 -0.1993 0.9844
2.5041 -1.4182 -0.2110 0.9885
2.5039 -1.1896 -0.2033 0.9889
2.5038 -1.0812 -0.2000 0.9891
2.5037 -0.9761 -0.1970 0.9893
2.5034 -0.7743 -0.1921 0.9895
2.5033 -0.6769 -0.1901 0.9897
2.5029 -0.4873 -0.1870 0.9898
2.5025 -0.3031 -0.1848 0.9899
2.5021 -0.1221 -0.1837 0.9900
2.5014 0.1475 -0.1837 0.9900
2.5009 0.3287 -0.1849 0.9899
2.5006 0.4204 -0.1859 0.9899
2.5003 0.5133 -0.1871 0.9898
2.4989 0.9009 -0.1948 0.9894
2.4980 1.1090 -0.2004 0.9891
2.4976 1.2179 -0.2037 0.9889
2.4960 1.5696 -0.2162 0.9882
2.4954 1.6971 -0.2213 0.9880
2.4948 1.8310 -0.2269 0.9877
2.4925 2.2795 -0.2477 0.9865
2.4917 2.4486 -0.2561 0.9861
2.4991 2.6387 -0.2665 0.9855
2.4866 3.0348 -0.2877 0.9844
2.5008 -1.4163 -0.2759 0.9885
2.5007 -1.1881 -0.2658 0.9889
2.5007 -1.0798 -0.2615 0.9891
2.5003 -0.6761 -0.2487 0.9896
2.5001 -0.5806 -0.2464 0.9897
2.5000 -0.4868 -0.2445 0.9898
2.4998 -0.3942 -0.2430 0.9899
2.4994 -0.2121 -0.2408 0.9900
2.4990 -0.0321 -0.2399 0.9900
2.4985 0.1474 -0.2403 0.9900
2.4982 0.2376 -0.2409 0.9900
2.4980 0.3283 -0.2419 0.9899
2.4973 0.5126 -0.2448 0.9898
2.4970 0.6067 -0.2467 0.9897
2.4966 0.7024 -0.2490 0.9896
2.4949 1.1076 -0.2621 0.9891
2.4932 1.4457 -0.2767 0.9885
2.4912 1.8283 -0.2967 0.9877
2.4904 1.9691 -0.3048 0.9873
2.4886 2.2760 -0.3238 0.9865
2.4876 2.4447 -0.3348 0.9861
2.4974 -0.7724 -0.3105 0.9895
2.4973 -0.6752 -0.3073 0.9896
2.4970 -0.4862 -0.3022 0.9898
2.4969 -0.3938 -0.3003 0.9899
2.4967 -0.3024 -0.2987 0.9899
2.4965 -0.2118 -0.2976 0.9900
2.4963 -0.1218 -0.2969 0.9900
2.4961 -0.0321 -0.2965 0.9900
2.4956 0.1472 -0.2970 0.9900
2.4953 0.2373 -0.2978 0.9900
2.4947 0.4195 -0.3005 0.9899
2.4944 0.5120 -0.3025 0.9898
2.4932 0.7990 -0.3110 0.9895
2.4927 0.8987 -0.3148 0.9894
2.4922 1.0010 -0.3190 0.9892
2.4905 1.3271 -0.3352 0.9887
2.4892 1.5653 -0.3493 0.9882
2.4884 1.6924 -0.3575 0.9880
2.4836 2.4407 -0.4136 0.9861
2.4995 2.6392 -0.4318 0.9855
2.4788 2.8130 -0.4454 0.9850
2.4774 3.0235 -0.4643 0.9844
2.4943 -1.2967 -0.3983 0.9887
2.4944 -0.8707 -0.3743 0.9894
2.4943 -0.7715 -0.3699 0.9895
2.4943 -0.6744 -0.3661 0.9896
2.4942 -0.5793 -0.3628 0.9897
2.4941 -0.4856 -0.3600 0.9898
2.4934 -0.1216 -0.3537 0.9900
2.4932 -0.0321 -0.3533 0.9900
2.4927 0.1470 -0.3538 0.9900
2.4924 0.2370 -0.3547 0.9899
2.4921 0.3276 -0.3561 0.9899
2.4914 0.5114 -0.3604 0.9898
2.4910 0.6053 -0.3632 0.9897
2.4897 0.8976 -0.3750 0.9894
2.4880 1.2131 -0.3922 0.9889
2.4873 1.3254 -0.3993 0.9887
2.4858 1.5632 -0.4161 0.9882
2.4841 1.8231 -0.4366 0.9876
2.4831 1.9633 -0.4485 0.9873
2.4820 2.1115 -0.4617 0.9869
2.4808 2.2689 -0.4763 0.9865
2.4796 2.4367 -0.4926 0.9861
2.4744 2.8080 -0.5303 0.9850
2.4908 -1.4106 -0.4716 0.9885
2.4910 -1.2950 -0.4625 0.9887
2.4912 -1.0757 -0.4470 0.9891
2.4913 -0.8696 -0.4347 0.9894
2.4913 -0.7705 -0.4296 0.9895
2.4911 -0.4850 -0.4181 0.9898
2.4909 -0.3017 -0.4133 0.9899
2.4892 0.3272 -0.4136 0.9899
2.4888 0.4185 -0.4158 0.9898
2.4880 0.6045 -0.4218 0.9897
2.4876 0.6998 -0.4257 0.9896
2.4871 0.7971 -0.4303 0.9895
2.4860 0.9985 -0.4413 0.9892
2.4854 1.1034 -0.4480 0.9890
2.4847 1.2116 -0.4554 0.9889
2.4832 1.4399 -0.4729 0.9884
2.4805 1.8205 -0.5069 0.9876
2.4794 1.9604 -0.5207 0.9873
2.4770 2.2653 -0.5530 0.9865
2.4740 2.6122 -0.5927 0.9855
2.4681 3.0122 -0.6415 0.9843
2.4874 -1.4087 -0.5373 0.9884
2.4877 -1.2932 -0.5270 0.9887
2.4880 -1.0744 -0.5094 0.9890
2.4881 -0.9700 -0.5020 0.9892
2.4882 -0.7696 -0.4895 0.9895
2.4882 -0.6728 -0.4845 0.9896
2.4882 -0.5779 -0.4801 0.9897
2.4876 -0.1213 -0.4681 0.9899
2.4871 0.0573 -0.4676 0.9899
2.4862 0.3268 -0.4713 0.9898
2.4846 0.6990 -0.4851 0.9896
2.4835 0.8954 -0.4962 0.9893
2.4807 1.3218 -0.5283 0.9886
2.4799 1.4379 -0.5388 0.9884
2.4757 1.9574 -0.5932 0.9872
2.4698 2.6078 -0.6751 0.9855
2.4840 -1.4068 -0.6034 0.9884
2.4843 -1.2915 -0.5919 0.9886
2.4846 -1.1804 -0.5814 0.9888
2.4850 -0.8675 -0.5564 0.9893
2.4851 -0.4839 -0.5352 0.9897
2.4848 -0.2108 -0.5271 0.9899
2.4846 -0.1212 -0.5258 0.9899
2.4844 -0.0319 -0.5252 0.9899
2.4842 0.0572 -0.5252 0.9899
2.4833 0.3264 -0.5294 0.9898
2.4825 0.5096 -0.5357 0.9897
2.4790 1.1005 -0.5733 0.9890
2.4765 1.4360 -0.6051 0.9884
2.4720 1.9545 -0.6661 0.9872
2.4706 2.1018 -0.6856 0.9868
2.4674 2.4248 -0.7313 0.9860
2.4609 2.7927 -0.7868 0.9849
2.4588 3.0008 -0.8200 0.9843
2.4813 -1.1788 -0.6456 0.9888
2.4819 -0.8664 -0.6178 0.9893
2.4821 -0.4833 -0.5943 0.9897
2.4809 0.1463 -0.5841 0.9898
2.4790 0.6023 -0.5996 0.9896
2.4772 0.8931 -0.6189 0.9892
2.4765 0.9946 -0.6272 0.9891
2.4730 1.4340 -0.6719 0.9883
2.4683 1.9515 -0.7395 0.9872
2.4633 2.4208 -0.8117 0.9859
2.4541 2.9950 -0.9100 0.9842
2.4772 -1.4029 -0.7371 0.9883
2.4780 -1.1772 -0.7103 0.9887
2.4788 -0.7667 -0.6718 0.9893
2.4790 -0.6703 -0.6649 0.9894
2.4789 -0.3002 -0.6465 0.9897
2.4788 -0.2103 -0.6441 0.9898
2.4787 -0.1209 -0.6425 0.9898
2.4785 -0.0319 -0.6418 0.9898
2.4779 0.1462 -0.6427 0.9898
2.4776 0.2356 -0.6444 0.9898
2.4772 0.3256 -0.6469 0.9897
2.4764 0.5083 -0.6546 0.9896
2.4759 0.6016 -0.6597 0.9895
2.4753 0.6964 -0.6658 0.9894
2.4747 0.7931 -0.6728 0.9893
2.4733 0.9934 -0.6901 0.9890
2.4707 1.3165 -0.7249 0.9885
2.4685 1.5523 -0.7550 0.9880
2.4673 1.6780 -0.7726 0.9877
2.4660 1.8098 -0.7920 0.9874
2.4629 2.0952 -0.8372 0.9867
2.4611 2.2508 -0.8635 0.9863
2.4592 2.4167 -0.8927 0.9859
2.4571 2.5944 -0.9252 0.9853
2.4518 2.7824 -0.9602 0.9848
2.4493 2.9892 -1.0006 0.9842
2.4742 -1.2862 -0.7894 0.9885
2.4746 -1.1757 -0.7756 0.9887
2.4750 -1.0688 -0.7632 0.9889
2.4759 -0.5750 -0.7196 0.9895
2.4759 -0.3905 -0.7096 0.9896
2.4758 -0.2101 -0.7034 0.9897
2.4752 0.0570 -0.7009 0.9898
2.4738 0.4160 -0.7101 0.9896
2.4733 0.5077 -0.7148 0.9896
2.4728 0.6008 -0.7204 0.9895
2.4715 0.7921 -0.7347 0.9893
2.4708 0.8908 -0.7436 0.9891
2.4701 0.9921 -0.7535 0.9890
2.4692 1.0962 -0.7648 0.9888
2.4683 1.2036 -0.7774 0.9886
2.4650 1.5501 -0.8243 0.9880
2.4606 1.9455 -0.8880 0.9870
2.4589 2.0919 -0.9139 0.9867
2.4527 2.5898 -1.0098 0.9853
2.4703 -1.3990 -0.8732 0.9882
2.4720 -0.9638 -0.8161 0.9890
2.4723 -0.8630 -0.8054 0.9891
2.4725 -0.7647 -0.7960 0.9892
2.4727 -0.6686 -0.7879 0.9893
2.4728 -0.5743 -0.7808 0.9894
2.4729 -0.4815 -0.7749 0.9895
2.4727 -0.2098 -0.7633 0.9897
2.4726 -0.1206 -0.7614 0.9897
2.4722 0.0569 -0.7606 0.9897
2.4719 0.1458 -0.7616 0.9897
2.4715 0.2350 -0.7636 0.9897
2.4707 0.4154 -0.7706 0.9896
2.4702 0.5071 -0.7756 0.9895
2.4696 0.6001 -0.7817 0.9894
2.4690 0.6946 -0.7889 0.9893
2.4668 0.9907 -0.8176 0.9889
2.4649 1.2019 -0.8435 0.9886
2.4627 1.4279 -0.8756 0.9882
2.4614 1.5478 -0.8943 0.9879
2.4508 2.4085 -1.0569 0.9857
2.4484 2.5852 -1.0952 0.9852
2.4426 2.7719 -1.1364 0.9847
2.4397 2.9775 -1.1840 0.9840
2.4667 -1.3970 -0.9423 0.9881
2.4673 -1.2827 -0.9244 0.9883
2.4678 -1.1725 -0.9082 0.9885
2.4683 -1.0659 -0.8937 0.9887
2.4687 -0.9625 -0.8808 0.9889
2.4693 -0.7637 -0.8592 0.9892
2.4696 -0.5735 -0.8428 0.9894
2.4697 -0.4809 -0.8364 0.9895
2.4697 -0.2991 -0.8269 0.9896
2.4696 -0.2095 -0.8239 0.9896
2.4695 -0.1205 -0.8219 0.9896
2.4693 -0.0318 -0.8209 0.9896
2.4691 0.0569 -0.8210 0.9896
2.4688 0.1456 -0.8221 0.9896
2.4685 0.2347 -0.8242 0.9896
2.4680 0.3244 -0.8274 0.9896
2.4676 0.4149 -0.8318 0.9895
2.4643 0.8885 -0.8708 0.9890
2.4615 1.2003 -0.9103 0.9885
2.4489 2.2396 -1.1031 0.9861
2.4348 2.9715 -1.2770 0.9839
2.4649 -1.0644 -0.9601 0.9887
2.4653 -0.9612 -0.9463 0.9888
2.4657 -0.8607 -0.9339 0.9890
2.4660 -0.7627 -0.9231 0.9891
2.4664 -0.5728 -0.9055 0.9893
2.4665 -0.4803 -0.8986 0.9894
2.4666 -0.3890 -0.8930 0.9894
2.4666 -0.2987 -0.8885 0.9895
2.4665 -0.2093 -0.8852 0.9895
2.4663 -0.1203 -0.8830 0.9896
2.4662 -0.0317 -0.8820 0.9896
2.4660 0.0568 -0.8821 0.9896
2.4656 0.1454 -0.8833 0.9896
2.4653 0.2344 -0.8856 0.9895
2.4649 0.3240 -0.8890 0.9895
2.4633 0.5985 -0.9065 0.9893
2.4626 0.6928 -0.9148 0.9892
2.4618 0.7890 -0.9245 0.9891
2.4601 0.9880 -0.9481 0.9888
2.4580 1.1986 -0.9779 0.9885
2.4555 1.4238 -1.0151 0.9880
2.4541 1.5432 -1.0367 0.9878
2.4509 1.7987 -1.0872 0.9872
2.4490 1.9363 -1.1165 0.9868
2.4447 2.2358 -1.1847 0.9860
2.4395 2.5759 -1.2687 0.9850
2.4615 -1.0629 -1.0275 0.9886
2.4632 -0.5720 -0.9691 0.9892
2.4633 -0.2984 -0.9509 0.9894
2.4633 -0.2090 -0.9474 0.9895
2.4632 -0.1202 -0.9451 0.9895
2.4630 -0.0317 -0.9440 0.9895
2.4625 0.1453 -0.9453 0.9895
2.4621 0.2341 -0.9478 0.9895
2.4606 0.5051 -0.9626 0.9893
2.4577 0.8861 -1.0012 0.9889
2.4567 0.9867 -1.0146 0.9887
2.4557 1.0902 -1.0296 0.9886
2.4545 1.1969 -1.0465 0.9884
2.4533 1.3072 -1.0653 0.9882
2.4405 2.2320 -1.2674 0.9859
2.4379 2.3958 -1.3099 0.9855
2.4284 2.7558 -1.4076 0.9844
2.4558 -1.3908 -1.1551 0.9879
2.4573 -1.1674 -1.1135 0.9883
2.4600 -0.4790 -1.0257 0.9892
2.4601 -0.3880 -1.0193 0.9893
2.4601 -0.2979 -1.0142 0.9893
2.4600 -0.1200 -1.0080 0.9894
2.4596 0.0566 -1.0069 0.9894
2.4593 0.1451 -1.0083 0.9894
2.4589 0.2338 -1.0109 0.9894
2.4579 0.4133 -1.0201 0.9893
2.4560 0.6910 -1.0442 0.9890
2.4552 0.7868 -1.0552 0.9889
2.4543 0.8848 -1.0678 0.9888
2.4533 0.9853 -1.0820 0.9886
2.4522 1.0886 -1.0981 0.9885
2.4497 1.3053 -1.1360 0.9881
2.4482 1.4196 -1.1583 0.9878
2.4467 1.5386 -1.1829 0.9876
2.4410 1.9300 -1.2736 0.9866
2.4387 2.0747 -1.3104 0.9863
2.4335 2.3915 -1.3964 0.9854
2.4521 -1.3887 -1.2281 0.9878
2.4529 -1.2752 -1.2049 0.9880
2.4538 -1.1657 -1.1839 0.9882
2.4544 -1.0599 -1.1651 0.9884
2.4568 -0.2976 -1.0786 0.9893
2.4568 -0.2084 -1.0746 0.9893
2.4566 -0.0316 -1.0707 0.9893
2.4563 0.0566 -1.0708 0.9893
2.4552 0.3227 -1.0792 0.9893
2.4546 0.4127 -1.0848 0.9892
2.4526 0.6900 -1.1104 0.9889
2.4517 0.7857 -1.1221 0.9888
2.4508 0.8836 -1.1354 0.9887
2.4474 1.1934 -1.1867 0.9882
2.4411 1.6601 -1.2866 0.9872
2.4391 1.7901 -1.3186 0.9869
2.4147 2.9470 -1.6604 0.9835
2.4501 -1.1640 -1.2556 0.9881
2.4508 -1.0583 -1.2357 0.9883
2.4524 -0.7586 -1.1883 0.9887
2.4531 -0.5697 -1.1657 0.9890
2.4535 -0.2971 -1.1440 0.9892
2.4535 -0.2081 -1.1398 0.9892
2.4534 -0.1197 -1.1370 0.9892
2.4532 -0.0315 -1.1357 0.9892
2.4530 0.0565 -1.1358 0.9892
2.4513 0.4122 -1.1506 0.9891
2.4507 0.5031 -1.1580 0.9890
2.4500 0.5953 -1.1671 0.9889
2.4492 0.6890 -1.1777 0.9888
2.4483 0.7846 -1.1901 0.9887
2.4462 0.9825 -1.2202 0.9884
2.4450 1.0854 -1.2383 0.9883
2.4390 1.5337 -1.3336 0.9874
2.4350 1.7871 -1.3981 0.9868
2.4327 1.9235 -1.4355 0.9864
2.4211 2.5564 -1.6298 0.9846
2.4136 2.7390 -1.6899 0.9840
2.4095 2.9407 -1.7598 0.9834
2.4444 -1.3843 -1.3780 0.9876
2.4454 -1.2713 -1.3519 0.9878
2.4471 -1.0567 -1.3075 0.9882
2.4478 -0.9543 -1.2887 0.9884
2.4484 -0.8547 -1.2721 0.9885
2.4500 -0.3864 -1.2166 0.9890
2.4501 -0.2967 -1.2106 0.9891
2.4500 -0.1195 -1.2032 0.9891
2.4493 0.1445 -1.2035 0.9891
2.4489 0.2329 -1.2067 0.9891
2.4479 0.4116 -1.2176 0.9890
2.4465 0.5945 -1.2350 0.9888
2.4413 1.0838 -1.3102 0.9882
2.4400 1.1898 -1.3316 0.9880
2.4368 1.4130 -1.3817 0.9875
2.4350 1.5312 -1.4110 0.9873
2.4330 1.6547 -1.4433 0.9870
2.4198 2.3780 -1.6642 0.9850
2.4163 2.5514 -1.7237 0.9845
2.4042 2.9342 -1.8607 0.9832
2.4425 -1.1604 -1.4029 0.9879
2.4434 -1.0551 -1.3807 0.9881
2.4441 -0.9529 -1.3609 0.9882
2.4457 -0.6613 -1.3144 0.9886
2.4461 -0.5681 -1.3028 0.9887
2.4463 -0.4763 -1.2929 0.9888
2.4466 -0.2963 -1.2785 0.9890
2.4466 -0.2076 -1.2738 0.9890
2.4462 0.0563 -1.2694 0.9890
2.4458 0.1442 -1.2711 0.9890
2.4450 0.3214 -1.2793 0.9889
2.4444 0.4110 -1.2859 0.9889
2.4437 0.5017 -1.2942 0.9888
2.4421 0.6871 -1.3161 0.9886
2.4411 0.7823 -1.3299 0.9885
2.4401 0.8797 -1.3456 0.9884
2.4389 0.9796 -1.3635 0.9882
2.4376 1.0821 -1.3836 0.9881
2.4362 1.1879 -1.4061 0.9879
2.4267 1.7810 -1.5616 0.9865
2.4214 2.0600 -1.6493 0.9858
2.4184 2.2118 -1.7002 0.9853
2.4151 2.3734 -1.7567 0.9849
2.4115 2.5462 -1.8193 0.9843
2.4033 2.7273 -1.8858 0.9838
2.3988 2.9276 -1.9635 0.9831
2.4364 -1.3798 -1.5336 0.9873
2.4376 -1.2672 -1.5047 0.9875
2.4386 -1.1586 -1.4787 0.9878
2.4425 -0.5672 -1.3734 0.9886
2.4428 -0.4756 -1.3630 0.9887
2.4429 -0.3853 -1.3546 0.9888
2.4430 -0.2959 -1.3479 0.9888
2.4431 -0.2073 -1.3429 0.9889
2.4430 -0.1192 -1.3396 0.9889
2.4429 -0.0314 -1.3381 0.9889
2.4426 0.0562 -1.3382 0.9889
2.4423 0.1441 -1.3400 0.9889
2.4419 0.2322 -1.3435 0.9889
2.4364 0.8784 -1.4185 0.9883
2.4338 1.0804 -1.4584 0.9879
2.4269 1.5261 -1.5702 0.9870
2.4247 1.6491 -1.6061 0.9867
2.4224 1.7778 -1.6457 0.9864
2.4169 2.0561 -1.7380 0.9856
2.4103 2.3687 -1.8509 0.9847
2.3980 2.7213 -1.9866 0.9836
2.4323 -1.3775 -1.6139 0.9872
2.4356 -1.0518 -1.5317 0.9878
2.4384 -0.6593 -1.4584 0.9884
2.4388 -0.5664 -1.4455 0.9885
2.4393 -0.3847 -1.4257 0.9887
2.4394 -0.1190 -1.4101 0.9888
2.4393 -0.0314 -1.4084 0.9888
2.4390 0.0562 -1.4086 0.9888
2.4383 0.2319 -1.4141 0.9888
2.4378 0.3204 -1.4196 0.9887
2.4364 0.5002 -1.4360 0.9886
2.4337 0.7799 -1.4755 0.9883
2.4299 1.0787 -1.5349 0.9878
2.4283 1.1841 -1.5598 0.9876
2.4180 1.7746 -1.7317 0.9862
2.4153 1.9096 -1.7777 0.9859
2.4123 2.0521 -1.8285 0.9855
2.4090 2.2032 -1.8848 0.9850
2.4054 2.3639 -1.9471 0.9845
2.3927 2.7152 -2.0894 0.9834
2.3877 2.9141 -2.1751 0.9827
