ply
format ascii 1.0
element vertex 578
property float32 x
property float32 y
property float32 z
property float32 I
end_header
-26.9724 26.6374 6.6843 0.8573
-27.1971 24.9953 6.5132 0.8607
-27.4463 18.7605 5.8621 0.8737
-27.3332 17.2769 5.7017 0.8769
-21.8483 12.7358 4.4592 0.9024
-31.6864 14.1514 6.1191 0.8685
-27.0642 30.8686 6.2891 0.8469
-27.1274 28.7865 6.0595 0.8521
-27.0975 26.7610 5.8343 0.8572
-27.3000 25.0899 5.6802 0.8607
-27.2909 23.3307 5.5003 0.8648
-27.4245 20.2276 5.2204 0.8712
-27.4854 18.7872 5.1003 0.8740
-23.6965 12.6959 4.1184 0.8969
-28.7057 14.0774 4.8979 0.8786
-42.0210 16.9846 6.9433 0.8324
-42.0678 15.2704 6.8560 0.8343
-44.8347 14.4753 7.2175 0.8264
-27.1116 30.9226 5.3553 0.8471
-27.2329 28.8984 5.1708 0.8520
-27.1417 26.8046 4.9675 0.8574
-27.3431 25.1295 4.8360 0.8609
-27.3327 23.3664 4.6826 0.8650
-27.5032 17.3843 4.2370 0.8770
-27.5404 16.0538 4.1512 0.8793
-23.8486 12.7774 3.5232 0.8966
-28.7049 14.0770 4.1633 0.8790
-42.0744 17.0062 5.9096 0.8327
-42.1206 15.2896 5.8352 0.8346
-27.0661 30.8707 4.4086 0.8478
-27.2188 28.8835 4.2617 0.8524
-27.3261 25.1138 3.9853 0.8613
-27.4197 21.7865 3.7606 0.8686
-27.4624 20.2555 3.6643 0.8717
-27.5028 18.7991 3.5773 0.8746
-27.5411 17.4083 3.4987 0.8772
-31.6831 14.1499 3.7261 0.8697
-27.2061 31.0304 3.4935 0.8473
-27.2644 28.9319 3.3653 0.8525
-25.3195 25.0050 3.0124 0.8669
-27.1623 23.2207 3.0251 0.8664
-27.5790 17.4322 2.7619 0.8772
-26.7639 13.1251 2.5234 0.8872
-31.6821 14.1494 2.9373 0.8700
-40.9619 16.5566 3.7401 0.8375
-42.2256 15.3278 3.8027 0.8350
-44.8285 14.4733 3.9877 0.8277
-27.3699 29.0439 2.4747 0.8522
-27.4575 23.4731 2.2400 0.8652
-27.4610 21.8193 2.1750 0.8689
-27.6168 17.4561 2.0259 0.8773
-27.6518 16.1188 1.9848 0.8796
-23.9477 12.8305 1.6847 0.8968
-28.7021 14.0756 1.9823 0.8798
-42.2338 17.0706 2.8248 0.8331
-42.2781 15.3468 2.7891 0.8351
-27.4156 29.0923 1.5762 0.8521
-25.7885 20.4904 1.2988 0.8765
-25.8610 17.6769 1.2352 0.8821
-27.6889 16.1404 1.2638 0.8796
-28.7012 14.0752 1.2605 0.8799
-31.6800 14.1485 1.3681 0.8703
-40.6079 14.7405 1.7034 0.8412
-44.8245 14.4719 1.8573 0.8282
-27.3478 31.1920 0.7007 0.8471
-27.4508 27.1099 0.6517 0.8570
-25.7419 23.6579 0.5906 0.8695
-27.5407 23.5442 0.6120 0.8651
-27.5848 21.9177 0.5951 0.8685
-40.5782 14.7297 0.7292 0.8414
-44.8223 14.4713 0.7956 0.8283
-25.7572 23.6720 -0.1970 0.8694
-25.7967 22.0533 -0.1911 0.8731
-25.8340 20.5266 -0.1858 0.8764
-25.9030 17.7056 -0.1767 0.8821
-25.9658 15.1360 -0.1692 0.8867
-27.4773 13.4750 -0.1723 0.8848
-31.6778 14.1475 -0.1953 0.8704
-39.2205 15.8527 -0.2382 0.8443
-39.2958 14.2642 -0.2354 0.8460
-39.3642 12.7090 -0.2329 0.8475
-39.4262 11.1829 -0.2307 0.8488
-41.2522 10.1156 -0.2391 0.8437
-44.4565 4.3178 -0.2515 0.8364
-44.4884 2.7131 -0.2509 0.8367
-44.5147 1.1129 -0.2507 0.8368
-44.5598 -3.6953 -0.2517 0.8362
-44.5637 -5.3125 -0.2527 0.8357
-44.5619 -6.9430 -0.2539 0.8349
-44.5545 -8.5907 -0.2555 0.8340
-44.4964 -13.6772 -0.2621 0.8301
-43.7910 -15.2016 -0.2610 0.8308
-41.7787 -17.9574 -0.2560 0.8337
-41.6633 -21.5725 -0.2641 0.8289
-41.5936 -23.4673 -0.2689 0.8261
-25.2674 28.8192 -1.0792 0.8578
-25.3381 26.8878 -1.0403 0.8626
-25.3323 25.0177 -1.0025 0.8672
-26.1803 20.8017 -0.9416 0.8748
-25.9393 17.7304 -0.8847 0.8819
-26.0007 15.1563 -0.8474 0.8865
-26.0619 12.7808 -0.8173 0.8903
-29.6548 8.4113 -0.8680 0.8840
-31.8307 5.4196 -0.9092 0.8788
-31.9022 4.2595 -0.9063 0.8792
-32.0009 1.9516 -0.9028 0.8796
-32.0237 -2.6557 -0.9048 0.8793
-31.8112 -7.3273 -0.9192 0.8775
-31.7199 -8.5163 -0.9248 0.8768
-31.4887 -10.9309 -0.9386 0.8751
-31.0125 -14.6706 -0.9660 0.8717
-28.5760 -17.5042 -0.9436 0.8745
-20.2848 21.5254 -1.5000 0.8883
-21.1463 19.4344 -1.4565 0.8913
-21.5364 18.4112 -1.4369 0.8927
-22.2412 16.4046 -1.4016 0.8952
-22.5581 15.4193 -1.3857 0.8963
-22.8527 14.4448 -1.3711 0.8974
-23.1256 13.4804 -1.3575 0.8983
-23.3663 12.5190 -1.3444 0.8993
-23.5331 11.5407 -1.3293 0.9003
-23.8226 10.6394 -1.3232 0.9008
-24.0165 9.7073 -1.3137 0.9015
-24.4897 6.9463 -1.2910 0.9031
-24.7190 5.1282 -1.2803 0.9038
-24.9392 2.4221 -1.2707 0.9045
-24.9803 1.5234 -1.2692 0.9046
-25.0055 0.6248 -1.2685 0.9047
-25.0082 -1.1719 -1.2697 0.9046
-24.8922 -3.8784 -1.2776 0.9040
-24.7334 -5.6970 -1.2872 0.9033
-23.8421 -11.2786 -1.3376 0.8998
-23.6286 -12.2345 -1.3494 0.8989
-15.6726 17.8757 -1.7431 0.9091
-17.2437 14.7414 -1.6634 0.9130
-17.8958 13.1995 -1.6305 0.9147
-18.4662 11.6722 -1.6018 0.9161
-18.7224 10.9136 -1.5890 0.9168
-19.1788 9.4054 -1.5662 0.9179
-19.5638 7.9076 -1.5472 0.9189
-19.7304 7.1621 -1.5390 0.9193
-20.0135 5.6766 -1.5253 0.9200
-20.1305 4.9363 -1.5197 0.9202
-20.2314 4.1972 -1.5150 0.9205
-20.3857 2.7219 -1.5080 0.9208
-20.4394 1.9852 -1.5057 0.9209
-20.5001 0.5126 -1.5036 0.9210
-20.4990 -0.9606 -1.5047 0.9210
-20.4752 -1.6980 -1.5064 0.9209
-20.3809 -3.1755 -1.5124 0.9206
-20.2235 -4.6582 -1.5217 0.9201
-20.1207 -5.4021 -1.5275 0.9198
-19.8659 -6.8962 -1.5419 0.9191
-19.7134 -7.6469 -1.5504 0.9187
-18.9278 -10.6792 -1.5935 0.9165
-12.9572 14.7786 -1.8869 0.9241
-13.3400 14.1558 -1.8674 0.9248
-14.0458 12.9087 -1.8315 0.9262
-14.3699 12.2847 -1.8150 0.9268
-15.7194 9.1631 -1.7468 0.9295
-15.9377 8.5390 -1.7359 0.9299
-16.1397 7.9149 -1.7258 0.9303
-16.4954 6.6673 -1.7081 0.9310
-17.0206 4.1737 -1.6825 0.9320
-17.1142 3.5505 -1.6780 0.9322
-17.1930 2.9273 -1.6744 0.9323
-17.2570 2.3041 -1.6715 0.9324
-17.3065 1.6809 -1.6693 0.9325
-17.3617 0.4341 -1.6673 0.9326
-17.3675 -0.1896 -1.6675 0.9326
-17.3588 -0.8134 -1.6684 0.9326
-17.3355 -1.4376 -1.6700 0.9325
-17.1780 -3.3121 -1.6795 0.9321
-17.0959 -3.9378 -1.6843 0.9319
-16.9988 -4.5639 -1.6898 0.9317
-16.6162 -6.4455 -1.7111 0.9309
-15.6604 -9.5928 -1.7631 0.9289
-11.0367 12.5881 -1.9886 0.9348
-11.3802 12.0762 -1.9711 0.9353
-11.7066 11.5612 -1.9544 0.9359
-12.0163 11.0436 -1.9386 0.9364
-12.8479 9.4762 -1.8964 0.9377
-13.0934 8.9498 -1.8839 0.9381
-13.7384 7.3607 -1.8514 0.9391
-14.2506 5.7600 -1.8258 0.9400
-14.3926 5.2245 -1.8188 0.9402
-14.7344 3.6131 -1.8021 0.9407
-14.8933 2.5358 -1.7946 0.9410
-14.9977 1.4567 -1.7899 0.9411
-15.0295 0.9166 -1.7886 0.9411
-15.0479 0.3762 -1.7880 0.9412
-15.0528 -0.1643 -1.7882 0.9412
-15.0220 -1.2458 -1.7905 0.9411
-14.9863 -1.7865 -1.7928 0.9410
-14.8741 -2.8679 -1.7994 0.9408
-14.7975 -3.4084 -1.8038 0.9407
-14.3516 -5.5671 -1.8285 0.9399
-13.8672 -7.1802 -1.8549 0.9390
-13.6762 -7.7162 -1.8653 0.9387
-13.4703 -8.2512 -1.8764 0.9384
-10.4922 9.6428 -2.0191 0.9441
-10.7587 9.1975 -2.0055 0.9444
-11.0111 8.7489 -1.9927 0.9448
-11.2493 8.2972 -1.9806 0.9451
-11.6842 7.3854 -1.9585 0.9457
-11.8812 6.9258 -1.9486 0.9460
-12.0647 6.4639 -1.9393 0.9462
-12.3918 5.5343 -1.9229 0.9466
-12.6663 4.5979 -1.9093 0.9470
-12.7842 4.1275 -1.9035 0.9472
-12.8892 3.6559 -1.8983 0.9473
-13.2240 1.2844 -1.8825 0.9477
-13.2532 0.8083 -1.8813 0.9478
-13.2699 0.3318 -1.8808 0.9478
-13.2741 -0.1449 -1.8809 0.9478
-13.1072 -2.5268 -1.8913 0.9475
-12.7449 -4.4242 -1.9115 0.9470
-12.4863 -5.3669 -1.9257 0.9466
-12.3373 -5.8362 -1.9338 0.9464
-11.9991 -6.7700 -1.9521 0.9459
-11.8097 -7.2340 -1.9623 0.9456
-8.7787 9.3156 -2.1087 0.9494
-9.0480 8.9356 -2.0949 0.9498
-9.3045 8.5512 -2.0818 0.9501
-9.7790 7.7700 -2.0576 0.9506
-9.9974 7.3739 -2.0465 0.9509
-10.2033 6.9744 -2.0361 0.9511
-10.3969 6.5717 -2.0262 0.9514
-10.5781 6.1662 -2.0171 0.9516
-11.1812 4.5194 -1.9868 0.9523
-11.3021 4.1026 -1.9808 0.9524
-11.4110 3.6841 -1.9754 0.9526
-11.5080 3.2642 -1.9706 0.9527
-11.6669 2.4204 -1.9629 0.9528
-11.7288 1.9970 -1.9600 0.9529
-11.8634 -0.1295 -1.9545 0.9530
-11.8554 -0.5555 -1.9552 0.9530
-11.7070 -2.2573 -1.9641 0.9528
-11.4726 -3.5264 -1.9773 0.9525
-11.1312 -4.7844 -1.9960 0.9521
-10.6810 -6.0262 -2.0203 0.9515
-7.6112 8.6811 -2.1700 0.9541
-8.1165 8.0157 -2.1442 0.9546
-8.5759 7.3314 -2.1207 0.9551
-9.3581 5.9151 -2.0809 0.9559
-9.6817 5.1872 -2.0645 0.9563
-9.8268 4.8191 -2.0572 0.9564
-9.9608 4.4486 -2.0505 0.9566
-10.1957 3.7010 -2.0388 0.9568
-10.4659 2.5664 -2.0255 0.9571
-10.5342 2.1854 -2.0222 0.9572
-10.5915 1.8034 -2.0195 0.9572
-10.6381 1.4204 -2.0173 0.9573
-10.6738 1.0367 -2.0157 0.9573
-10.6987 0.6525 -2.0147 0.9573
-10.7128 0.2679 -2.0142 0.9573
-10.7160 -0.1170 -2.0143 0.9573
-10.6608 -1.2709 -2.0180 0.9572
-10.6207 -1.6548 -2.0204 0.9572
-10.5079 -2.4203 -2.0268 0.9571
-10.3513 -3.1818 -2.0355 0.9569
-10.1509 -3.9375 -2.0465 0.9567
-9.9060 -4.6861 -2.0598 0.9564
-9.6166 -5.4257 -2.0754 0.9561
-9.4550 -5.7917 -2.0841 0.9559
-6.8875 7.8556 -2.2084 0.9582
-7.1254 7.5612 -2.1962 0.9584
-7.3531 7.2618 -2.1845 0.9586
-7.5703 6.9575 -2.1734 0.9588
-7.7772 6.6487 -2.1628 0.9590
-7.9738 6.3357 -2.1528 0.9592
-8.1600 6.0186 -2.1433 0.9594
-8.6568 5.0462 -2.1181 0.9599
-9.0611 4.0468 -2.0977 0.9602
-9.1755 3.7087 -2.0920 0.9603
-9.4574 2.6825 -2.0780 0.9606
-9.5947 1.9905 -2.0713 0.9607
-9.6481 1.6427 -2.0688 0.9608
-9.7246 0.9445 -2.0653 0.9608
-9.7637 -0.1066 -2.0640 0.9609
-9.7118 -1.1578 -2.0674 0.9608
-9.6743 -1.5073 -2.0696 0.9608
-9.4226 -2.8963 -2.0837 0.9605
-9.2356 -3.5825 -2.0940 0.9603
-9.0076 -4.2611 -2.1063 0.9601
-8.7384 -4.9303 -2.1208 0.9598
-6.2842 7.1676 -2.2403 0.9616
-6.7154 6.6320 -2.2182 0.9620
-7.2914 5.7935 -2.1888 0.9625
-7.4645 5.5057 -2.1799 0.9626
-7.6281 5.2141 -2.1716 0.9627
-7.7823 4.9191 -2.1638 0.9629
-7.9269 4.6208 -2.1564 0.9630
-8.0621 4.3195 -2.1496 0.9631
-8.1878 4.0153 -2.1433 0.9632
-8.3039 3.7086 -2.1374 0.9633
-8.5079 3.0884 -2.1272 0.9635
-8.5956 2.7752 -2.1229 0.9636
-8.6739 2.4603 -2.1190 0.9636
-8.8520 1.5072 -2.1104 0.9638
-8.9572 0.2239 -2.1058 0.9639
-8.9530 -0.4195 -2.1065 0.9638
-8.8757 -1.3829 -2.1112 0.9638
-8.7132 -2.3394 -2.1203 0.9636
-8.6400 -2.6558 -2.1244 0.9635
-8.4651 -3.2836 -2.1339 0.9634
-8.1312 -4.2102 -2.1520 0.9631
-5.7731 6.5847 -2.2674 0.9645
-5.9780 6.3436 -2.2569 0.9646
-6.3619 5.8469 -2.2372 0.9649
-6.5408 5.5917 -2.2280 0.9651
-6.8726 5.0691 -2.2111 0.9653
-7.7571 3.1354 -2.1663 0.9660
-8.0038 2.2702 -2.1541 0.9662
-8.1239 1.6854 -2.1482 0.9663
-8.2087 1.0960 -2.1442 0.9664
-8.2691 0.2067 -2.1417 0.9664
-8.2651 -0.3873 -2.1423 0.9664
-8.2497 -0.6841 -2.1433 0.9664
-8.2255 -0.9806 -2.1448 0.9664
-8.0397 -2.1585 -2.1553 0.9662
-7.8933 -2.7401 -2.1634 0.9661
-7.7115 -3.3146 -2.1733 0.9659
-7.6072 -3.5986 -2.1789 0.9658
-7.4940 -3.8802 -2.1850 0.9657
-7.3719 -4.1593 -2.1916 0.9656
-7.2410 -4.4354 -2.1986 0.9655
-5.5255 5.8634 -2.2808 0.9671
-5.7088 5.6379 -2.2714 0.9672
-6.0516 5.1734 -2.2539 0.9674
-6.2109 4.9349 -2.2457 0.9676
-6.3621 4.6926 -2.2380 0.9677
-6.5052 4.4466 -2.2307 0.9678
-6.6402 4.1972 -2.2238 0.9679
-6.8856 3.6891 -2.2114 0.9680
-6.9959 3.4308 -2.2058 0.9681
-7.1918 2.9069 -2.1960 0.9683
-7.2774 2.6417 -2.1917 0.9683
-7.5804 1.2907 -2.1769 0.9685
-7.6728 0.1919 -2.1728 0.9686
-7.6315 -0.9098 -2.1757 0.9686
-7.5608 -1.4578 -2.1798 0.9685
-7.5128 -1.7305 -2.1825 0.9685
-7.4565 -2.0020 -2.1856 0.9684
-7.3919 -2.2721 -2.1892 0.9684
-7.1478 -3.0723 -2.2025 0.9682
-5.1320 5.4459 -2.3016 0.9692
-5.3039 5.2380 -2.2928 0.9693
-5.9170 4.3643 -2.2614 0.9697
-6.0515 4.1364 -2.2546 0.9698
-6.4091 3.4338 -2.2364 0.9700
-6.5130 3.1940 -2.2312 0.9701
-6.6091 2.9517 -2.2263 0.9702
-6.6974 2.7071 -2.2219 0.9702
-6.8508 2.2119 -2.2143 0.9703
-6.9729 1.7099 -2.2082 0.9704
-7.1406 0.4355 -2.2004 0.9705
-7.1505 0.1788 -2.2001 0.9705
-7.1114 -0.8478 -2.2028 0.9705
-7.0446 -1.3583 -2.2067 0.9704
-6.8852 -2.1163 -2.2155 0.9703
-6.6551 -2.8605 -2.2280 0.9701
-6.4626 -3.3462 -2.2384 0.9700
-6.3547 -3.5854 -2.2442 0.9699
-6.2390 -3.8218 -2.2504 0.9698
-4.6181 5.2673 -2.3285 0.9709
-5.1027 4.6896 -2.3037 0.9712
-5.8837 3.4298 -2.2638 0.9717
-5.9890 3.2088 -2.2585 0.9718
-6.2610 2.5307 -2.2448 0.9719
-6.3371 2.3004 -2.2410 0.9720
-6.4058 2.0682 -2.2376 0.9720
-6.4672 1.8344 -2.2345 0.9721
-6.5211 1.5991 -2.2319 0.9721
-6.6068 1.1249 -2.2278 0.9721
-6.6385 0.8864 -2.2263 0.9722
-6.6628 0.6471 -2.2252 0.9722
-6.6853 -0.3133 -2.2247 0.9722
-6.6518 -0.7930 -2.2268 0.9722
-6.4954 -1.7439 -2.2356 0.9720
-6.4377 -1.9788 -2.2388 0.9720
-6.0386 -3.1267 -2.2604 0.9717
-5.9368 -3.3496 -2.2659 0.9717
-4.7783 4.3915 -2.3208 0.9728
-4.9177 4.2042 -2.3137 0.9729
-5.1770 3.8184 -2.3004 0.9730
-5.4096 3.4193 -2.2886 0.9732
-5.5158 3.2153 -2.2832 0.9732
-5.7080 2.7992 -2.2734 0.9734
-5.7937 2.5875 -2.2691 0.9734
-5.9446 2.1579 -2.2616 0.9735
-6.0096 1.9403 -2.2583 0.9735
-6.1628 1.2786 -2.2508 0.9736
-6.1998 1.0556 -2.2490 0.9736
-6.2528 0.6073 -2.2466 0.9737
-6.2740 -0.2940 -2.2461 0.9737
-6.2617 -0.5192 -2.2469 0.9737
-6.2422 -0.7441 -2.2481 0.9736
-6.0940 -1.6361 -2.2564 0.9736
-5.8335 -2.5073 -2.2706 0.9734
-5.7510 -2.7205 -2.2751 0.9733
-5.5652 -3.1399 -2.2851 0.9732
-5.4621 -3.3458 -2.2906 0.9732
-4.2067 4.4640 -2.3506 0.9741
-4.6202 3.9498 -2.3294 0.9743
-4.7459 3.7709 -2.3229 0.9744
-4.8654 3.5887 -2.3168 0.9744
-5.0857 3.2146 -2.3056 0.9746
-5.1862 3.0232 -2.3005 0.9746
-5.2805 2.8292 -2.2957 0.9747
-5.4495 2.4338 -2.2872 0.9748
-5.5243 2.2329 -2.2834 0.9748
-5.6542 1.8255 -2.2769 0.9749
-5.7093 1.6194 -2.2742 0.9749
-5.8346 0.9934 -2.2681 0.9750
-5.8630 0.7828 -2.2668 0.9750
-5.8848 0.5716 -2.2658 0.9750
-5.8999 0.3598 -2.2652 0.9750
-5.9099 -0.0645 -2.2649 0.9750
-5.9049 -0.2767 -2.2653 0.9750
-5.8931 -0.4887 -2.2661 0.9750
-5.8495 -0.9114 -2.2687 0.9750
-5.7339 -1.5395 -2.2752 0.9749
-5.4085 -2.5585 -2.2928 0.9747
-5.3237 -2.7565 -2.2974 0.9746
-5.2324 -2.9522 -2.3023 0.9746
-3.8189 4.3558 -2.3709 0.9753
-3.9607 4.2029 -2.3636 0.9753
-4.0968 4.0460 -2.3566 0.9754
-4.2274 3.8852 -2.3499 0.9755
-4.4714 3.5529 -2.3374 0.9756
-4.5847 3.3816 -2.3316 0.9757
-4.6921 3.2073 -2.3261 0.9757
-4.7936 3.0300 -2.3210 0.9758
-4.9785 2.6673 -2.3116 0.9759
-5.2100 2.1058 -2.2999 0.9760
-5.2747 1.9147 -2.2967 0.9760
-5.5667 0.3395 -2.2826 0.9762
-5.5713 -0.2611 -2.2827 0.9762
-5.5426 -0.6607 -2.2845 0.9762
-5.4517 -1.2557 -2.2897 0.9761
-5.4087 -1.4522 -2.2921 0.9761
-5.3038 -1.8412 -2.2978 0.9760
-5.2420 -2.0334 -2.3012 0.9760
-5.0995 -2.4123 -2.3089 0.9759
-4.9323 -2.7829 -2.3178 0.9758
-4.8396 -2.9645 -2.3228 0.9758
-3.6036 4.1102 -2.3823 0.9764
-4.3303 3.1939 -2.3450 0.9768
-4.4323 3.0296 -2.3398 0.9768
-4.5287 2.8625 -2.3349 0.9769
-4.7044 2.5205 -2.3260 0.9770
-4.7836 2.3459 -2.3220 0.9770
-4.9245 1.9905 -2.3149 0.9771
-4.9861 1.8100 -2.3118 0.9771
-5.0916 1.4442 -2.3066 0.9772
-5.1354 1.2593 -2.3044 0.9772
-5.2049 0.8862 -2.3010 0.9772
-5.2639 0.3210 -2.2984 0.9773
-5.2729 -0.0575 -2.2982 0.9773
-5.2409 -0.6248 -2.3002 0.9772
-5.2180 -0.8130 -2.3015 0.9772
-5.1133 -1.3728 -2.3074 0.9772
-5.0135 -1.7404 -2.3129 0.9771
-4.6601 -2.6293 -2.3319 0.9769
-4.5719 -2.8005 -2.3366 0.9769
-3.4076 3.8867 -2.3927 0.9775
-3.5353 3.7515 -2.3861 0.9775
-3.7757 3.4701 -2.3737 0.9776
-3.8884 3.3242 -2.3680 0.9777
-3.9960 3.1751 -2.3625 0.9778
-4.3734 2.5494 -2.3432 0.9779
-4.5297 2.2214 -2.3353 0.9780
-4.5996 2.0542 -2.3318 0.9780
-4.6639 1.8852 -2.3285 0.9781
-4.7226 1.7143 -2.3256 0.9781
-4.7757 1.5419 -2.3230 0.9781
-4.8647 1.1929 -2.3186 0.9782
-4.9008 1.0167 -2.3168 0.9782
-4.9555 0.6617 -2.3142 0.9782
-4.9958 -0.0545 -2.3126 0.9782
-4.9812 -0.4131 -2.3136 0.9782
-4.9651 -0.5919 -2.3146 0.9782
-4.9434 -0.7702 -2.3158 0.9782
-4.9159 -0.9478 -2.3174 0.9782
-4.8826 -1.1246 -2.3193 0.9782
-4.7988 -1.4750 -2.3239 0.9781
-4.7484 -1.6483 -2.3266 0.9781
-4.4903 -2.3250 -2.3406 0.9780
-3.3498 3.5547 -2.3959 0.9785
-3.4665 3.4236 -2.3899 0.9785
-3.5786 3.2889 -2.3842 0.9786
-3.6859 3.1511 -2.3787 0.9786
-3.8857 2.8661 -2.3684 0.9787
-3.9782 2.7193 -2.3637 0.9788
-4.0656 2.5698 -2.3593 0.9788
-4.1479 2.4179 -2.3551 0.9788
-4.2968 2.1072 -2.3475 0.9789
-4.4808 1.6265 -2.3383 0.9790
-4.6164 1.1320 -2.3316 0.9790
-4.6796 0.7968 -2.3285 0.9791
-4.7029 0.6279 -2.3274 0.9791
-4.7208 0.4585 -2.3266 0.9791
-4.7400 0.1185 -2.3258 0.9791
-4.7413 -0.0517 -2.3259 0.9791
-4.7371 -0.2220 -2.3262 0.9791
-4.6913 -0.7309 -2.3290 0.9791
-4.6650 -0.8995 -2.3305 0.9791
-4.6332 -1.0672 -2.3322 0.9790
-4.5533 -1.3996 -2.3366 0.9790
-4.5051 -1.5639 -2.3393 0.9790
-4.1841 -2.3607 -2.3566 0.9788
-4.1041 -2.5140 -2.3608 0.9788
-3.0637 3.4944 -2.4109 0.9793
-3.2905 3.2497 -2.3992 0.9794
-3.3973 3.1223 -2.3937 0.9794
-3.4995 2.9917 -2.3885 0.9795
-3.6901 2.7217 -2.3787 0.9795
-3.7783 2.5826 -2.3742 0.9796
-3.8616 2.4409 -2.3700 0.9796
-3.9401 2.2968 -2.3660 0.9797
-4.0137 2.1504 -2.3623 0.9797
-4.0823 2.0020 -2.3588 0.9797
-4.2045 1.6994 -2.3526 0.9798
-4.2579 1.5456 -2.3500 0.9798
-4.3063 1.3903 -2.3475 0.9798
-4.3874 1.0759 -2.3435 0.9798
-4.4478 0.7573 -2.3406 0.9799
-4.4989 0.2744 -2.3383 0.9799
-4.5054 0.1127 -2.3381 0.9799
-4.5026 -0.2110 -2.3384 0.9799
-4.4787 -0.5339 -2.3399 0.9799
-4.4337 -0.8549 -2.3425 0.9799
-4.3269 -1.3300 -2.3484 0.9798
-4.2298 -1.6408 -2.3537 0.9798
-4.1736 -1.7939 -2.3567 0.9797
-4.1122 -1.9453 -2.3600 0.9797
-4.0458 -2.0949 -2.3636 0.9797
-3.9745 -2.2424 -2.3674 0.9796
-2.9115 3.3209 -2.4189 0.9801
-3.1279 3.0891 -2.4078 0.9802
-3.3273 2.8445 -2.3976 0.9802
-3.4205 2.7178 -2.3928 0.9803
-3.5092 2.5883 -2.3883 0.9803
-3.5934 2.4562 -2.3840 0.9803
-3.8838 1.9047 -2.3692 0.9805
-4.2330 0.7207 -2.3518 0.9806
-4.2820 0.2612 -2.3496 0.9806
-4.2881 0.1072 -2.3494 0.9806
-4.2894 -0.0468 -2.3494 0.9806
-4.2626 -0.5081 -2.3512 0.9806
-4.2435 -0.6612 -2.3523 0.9806
-4.2195 -0.8136 -2.3536 0.9806
-4.1174 -1.2656 -2.3593 0.9805
-4.0734 -1.4141 -2.3617 0.9805
-4.0246 -1.5612 -2.3643 0.9805
-3.8487 -1.9928 -2.3738 0.9804
-2.8758 3.0517 -2.4210 0.9808
-2.9771 2.9402 -2.4158 0.9809
-3.2566 2.5876 -2.4014 0.9810
-3.3413 2.4645 -2.3971 0.9810
-3.8111 1.5404 -2.3733 0.9812
-3.8599 1.4011 -2.3708 0.9812
-3.9041 1.2605 -2.3686 0.9812
-3.9783 0.9755 -2.3649 0.9813
-4.0083 0.8316 -2.3635 0.9813
-4.0539 0.5413 -2.3613 0.9813
-4.0803 0.2488 -2.3601 0.9813
-4.0751 -0.3379 -2.3608 0.9813
-3.9601 -1.0632 -2.3673 0.9812
-3.9227 -1.2058 -2.3694 0.9812
-3.8806 -1.3471 -2.3717 0.9812
-3.8339 -1.4872 -2.3742 0.9812
-3.7824 -1.6258 -2.3770 0.9812
-3.7263 -1.7628 -2.3800 0.9811
-3.6657 -1.8980 -2.3833 0.9811
-3.6004 -2.0314 -2.3868 0.9811
-3.5307 -2.1627 -2.3905 0.9811
