ply
format ascii 1.0
element vertex 584
property float32 x
property float32 y
property float32 z
property float32 I
end_header
0.2487 -17.7679 3.1333 0.9304
1.5204 -17.7655 3.1440 0.9301
8.5187 -43.7183 7.8537 0.8345
7.9453 -22.8088 4.2588 0.9066
8.1118 -20.8594 3.9464 0.9131
7.4460 -17.2935 3.3199 0.9264
8.1223 -17.1521 3.3463 0.9258
-25.5118 -30.3023 6.0683 0.8519
1.5191 -17.7495 2.7291 0.9304
7.6796 -48.5894 7.5360 0.8195
10.7435 -46.2734 7.2774 0.8251
12.6342 -46.7729 7.4221 0.8220
7.3134 -23.6835 3.7972 0.9046
7.9844 -20.5317 3.3748 0.9147
8.1471 -14.4413 2.5401 0.9351
-25.5414 -30.3375 5.1643 0.8522
1.5186 -17.7440 2.3191 0.9307
7.6840 -48.6168 6.4095 0.8199
7.3247 -37.5910 4.9872 0.8569
8.2487 -35.5280 4.7495 0.8632
9.6728 -35.8099 4.8303 0.8610
8.0129 -20.6048 2.8789 0.9147
8.0480 -18.6919 2.6501 0.9212
8.0783 -17.0590 2.4579 0.9267
7.5494 -38.7438 4.2386 0.8532
7.8637 -33.8701 3.7338 0.8695
9.2141 -34.1117 3.7943 0.8675
10.6138 -34.3716 3.8628 0.8653
8.0566 -17.0133 2.0214 0.9271
8.0843 -15.6064 1.8873 0.9317
8.1418 -14.4319 1.7793 0.9355
-25.6349 -30.4485 3.3694 0.8523
1.5177 -17.7331 1.5066 0.9310
7.2334 -45.7664 3.9223 0.8303
7.8301 -33.7254 2.9309 0.8702
9.1183 -33.7571 2.9600 0.8690
10.2062 -33.0514 2.9283 0.8703
7.9635 -22.8612 2.0493 0.9074
8.0352 -16.9681 1.5893 0.9274
8.1228 -14.3983 1.3994 0.9358
7.9366 -22.7839 1.4961 0.9078
7.9790 -18.5315 1.2511 0.9223
7.3249 -46.3454 1.8501 0.8288
7.8303 -33.7264 1.3652 0.8706
7.7945 -25.2414 1.0417 0.8996
7.9564 -18.4791 0.7933 0.9226
8.0246 -15.4911 0.6879 0.9325
1.5185 -17.7430 0.3008 0.9312
6.8365 -25.3094 0.4428 0.9004
7.7957 -25.2453 0.4463 0.8997
7.8370 -22.4980 0.4024 0.9091
7.8896 -20.2880 0.3677 0.9166
7.9720 -16.8346 0.3146 0.9282
7.9294 -14.0556 0.2726 0.9375
1.5190 -17.7488 -0.1003 0.9312
7.4205 -38.0828 -0.2184 0.8562
7.8306 -33.7274 -0.1949 0.8707
6.8138 -25.2253 -0.1471 0.9008
7.7963 -15.0504 -0.0954 0.9344
7.6699 -13.5956 -0.0879 0.9395
-27.8071 -21.4428 -0.9887 0.8689
-27.4931 -22.8103 -1.0059 0.8668
-26.7852 -25.6603 -1.0445 0.8621
-26.3874 -27.1500 -1.0661 0.8594
-25.9575 -28.6883 -1.0894 0.8566
-25.4519 -30.2312 -1.1128 0.8537
-24.9518 -31.8800 -1.1399 0.8504
-23.8254 -35.3761 -1.2010 0.8431
-23.3519 -37.4945 -1.2438 0.8380
-23.3407 -40.6395 -1.3196 0.8290
7.1768 -45.4087 -1.2945 0.8320
7.3804 -37.8764 -1.0866 0.8569
7.8307 -33.7279 -0.9750 0.8706
6.8148 -25.2291 -0.7359 0.9007
2.5211 -7.2373 -0.2158 0.9698
2.5209 -6.4825 -0.1958 0.9726
2.9280 -6.8005 -0.2085 0.9708
7.9660 -15.3781 -0.4877 0.9330
7.9972 -14.1756 -0.4583 0.9369
-22.8570 -15.1558 -1.3908 0.8960
-22.5603 -16.1468 -1.4070 0.8948
-22.2405 -17.1502 -1.4243 0.8936
-21.5277 -19.1982 -1.4628 0.8909
-21.1323 -20.2448 -1.4841 0.8894
-20.2572 -22.3883 -1.5312 0.8861
-19.7743 -23.4875 -1.5571 0.8843
-19.2591 -24.6068 -1.5847 0.8824
-18.7097 -25.7472 -1.6141 0.8803
-18.1240 -26.9106 -1.6454 0.8781
-17.4998 -28.0980 -1.6787 0.8758
-16.1257 -30.5523 -1.7520 0.8708
-15.3222 -31.7228 -1.7866 0.8684
-12.7910 -35.8298 -1.9294 0.8587
-11.8138 -37.2387 -1.9813 0.8552
-10.7704 -38.6884 -2.0367 0.8514
-9.6555 -40.1816 -2.0958 0.8475
-8.4633 -41.7217 -2.1590 0.8432
-7.1873 -43.3117 -2.2266 0.8388
-4.3550 -46.6576 -2.3765 0.8289
-2.7815 -48.4215 -2.4597 0.8234
1.5223 -17.7879 -0.9054 0.9310
2.5931 -21.3142 -1.0889 0.9176
6.8159 -25.2330 -1.3255 0.9006
2.5126 -6.4612 -0.3516 0.9726
2.5132 -5.8371 -0.3223 0.9749
2.5140 -4.8533 -0.2772 0.9783
2.5144 -4.4570 -0.2595 0.9797
-16.8100 -16.1040 -1.7069 0.9109
-15.5732 -18.4975 -1.7729 0.9076
-15.1105 -19.3062 -1.7976 0.9064
-14.1036 -20.9410 -1.8512 0.9037
-13.5569 -21.7670 -1.8803 0.9023
-12.9797 -22.5996 -1.9109 0.9008
-11.0515 -25.1335 -2.0131 0.8957
-9.5865 -26.8536 -2.0907 0.8919
-7.9612 -28.5976 -2.1766 0.8878
-7.0835 -29.4782 -2.2229 0.8855
-6.1594 -30.3642 -2.2717 0.8831
-4.1626 -32.1506 -2.3770 0.8781
-3.0849 -33.0500 -2.4338 0.8754
-1.9503 -33.9527 -2.4936 0.8725
0.4710 -33.6438 -2.4671 0.8738
5.8219 -36.8361 -2.7344 0.8611
6.2604 -23.1767 -1.7603 0.9082
2.5009 -8.0990 -0.6215 0.9666
2.5056 -5.8195 -0.4646 0.9749
2.5076 -4.8408 -0.3997 0.9784
2.5083 -4.4462 -0.3743 0.9797
-15.1583 -10.8490 -1.7896 0.9278
-13.2275 -14.6191 -1.8928 0.9238
-12.8370 -15.2474 -1.9135 0.9230
-12.4251 -15.8753 -1.9354 0.9222
-11.5361 -17.1287 -1.9826 0.9204
-11.0573 -17.7538 -2.0080 0.9194
-10.0280 -18.9993 -2.0625 0.9173
-9.4759 -19.6188 -2.0917 0.9162
-8.2932 -20.8495 -2.1542 0.9138
-7.6609 -21.4596 -2.1876 0.9125
-7.0001 -22.0654 -2.2224 0.9112
-6.3100 -22.6663 -2.2588 0.9098
-5.5896 -23.2614 -2.2968 0.9083
-4.0543 -24.4316 -2.3776 0.9053
-2.3865 -25.5684 -2.4654 0.9020
0.3581 -25.5786 -2.4559 0.9023
1.2960 -26.0617 -2.5051 0.9005
2.2705 -26.5296 -2.5563 0.8985
2.5684 -21.1115 -2.0418 0.9181
4.3325 -27.4125 -2.6644 0.8945
2.4909 -8.0664 -0.8105 0.9666
2.4981 -5.8020 -0.6065 0.9749
-13.2464 -8.7832 -1.8880 0.9380
-12.2102 -10.8890 -1.9434 0.9362
-11.2619 -12.4466 -1.9939 0.9346
-10.5434 -13.4709 -2.0320 0.9334
-8.8873 -15.4741 -2.1197 0.9306
-6.3749 -17.8572 -2.2523 0.9265
-5.8095 -18.3123 -2.2821 0.9255
-4.6126 -19.1957 -2.3451 0.9236
-3.9804 -19.6224 -2.3783 0.9225
-3.3252 -20.0380 -2.4128 0.9214
-2.6466 -20.4416 -2.4484 0.9203
0.2886 -20.6152 -2.4490 0.9203
1.0405 -20.9232 -2.4885 0.9191
2.5538 -20.9918 -2.5119 0.9183
4.2798 -21.9641 -2.6581 0.9138
5.6064 -20.7555 -2.5538 0.9170
2.4808 -8.0340 -0.9988 0.9667
2.4880 -6.3979 -0.8154 0.9727
2.4928 -5.2640 -0.6919 0.9768
-11.3890 -8.1513 -1.9844 0.9450
-11.1594 -8.6054 -1.9967 0.9447
-10.0994 -10.3912 -2.0531 0.9431
-8.0631 -12.9463 -2.1610 0.9402
-7.6692 -13.3531 -2.1818 0.9397
-7.2591 -13.7534 -2.2035 0.9391
-6.8328 -14.1466 -2.2260 0.9385
-6.3900 -14.5322 -2.2493 0.9379
-5.4545 -15.2786 -2.2986 0.9366
-4.9611 -15.6381 -2.3246 0.9359
-4.4508 -15.9877 -2.3514 0.9352
-3.3783 -16.6543 -2.4078 0.9337
-2.2363 -17.2726 -2.4678 0.9321
-0.3925 -18.0950 -2.5645 0.9295
0.8683 -17.4619 -2.4772 0.9318
2.1695 -17.8327 -2.5453 0.9300
2.8433 -17.9896 -2.5806 0.9291
4.2351 -18.2412 -2.6533 0.9271
4.9523 -18.3337 -2.6908 0.9261
2.4709 -8.0017 -1.1866 0.9667
2.4900 -4.4138 -0.7181 0.9797
-10.3177 -6.8414 -2.0394 0.9511
-9.2006 -8.8142 -2.0990 0.9497
-8.9390 -9.1973 -2.1129 0.9493
-8.6645 -9.5760 -2.1275 0.9490
-8.3769 -9.9499 -2.1427 0.9486
-8.0761 -10.3186 -2.1586 0.9483
-7.7621 -10.6818 -2.1752 0.9479
-7.4347 -11.0391 -2.1926 0.9475
-6.7395 -11.7345 -2.2293 0.9466
-5.9898 -12.4013 -2.2688 0.9457
-5.5944 -12.7229 -2.2896 0.9452
-4.3254 -13.6343 -2.3564 0.9437
-2.9320 -14.4540 -2.4296 0.9420
-2.4401 -14.7040 -2.4555 0.9414
-0.8832 -15.3754 -2.5371 0.9395
-0.3378 -15.5705 -2.5657 0.9388
0.2074 -14.8160 -2.4410 0.9417
0.7444 -14.9696 -2.4691 0.9410
1.2929 -15.1071 -2.4978 0.9404
1.8526 -15.2277 -2.5271 0.9397
2.4230 -15.3307 -2.5569 0.9390
3.0037 -15.4152 -2.5873 0.9383
3.5942 -15.4806 -2.6181 0.9376
4.1938 -15.5260 -2.6494 0.9369
2.4609 -7.9694 -1.3740 0.9668
2.4669 -7.0817 -1.2354 0.9701
2.4816 -4.7906 -0.8888 0.9784
-9.2809 -6.1538 -2.0931 0.9557
-8.6975 -7.2161 -2.1242 0.9550
-8.4803 -7.5627 -2.1357 0.9548
-8.0117 -8.2432 -2.1606 0.9543
-7.7601 -8.5765 -2.1740 0.9540
-7.4969 -8.9046 -2.1879 0.9537
-7.2221 -9.2274 -2.2025 0.9534
-6.9356 -9.5444 -2.2176 0.9531
-6.6374 -9.8553 -2.2334 0.9528
-6.3276 -10.1598 -2.2497 0.9525
-4.9709 -11.3049 -2.3212 0.9510
-4.6025 -11.5710 -2.3406 0.9506
-4.2225 -11.8280 -2.3606 0.9502
-2.5876 -12.7562 -2.4465 0.9484
-2.1508 -12.9607 -2.4694 0.9479
-1.2445 -13.3327 -2.5169 0.9470
-0.7754 -13.4992 -2.5415 0.9465
0.6508 -13.0877 -2.4630 0.9481
2.6104 -13.3967 -2.5654 0.9460
3.1187 -13.4326 -2.5920 0.9454
3.6332 -13.4507 -2.6188 0.9449
2.4509 -7.9371 -1.5614 0.9668
2.4579 -7.0559 -1.4044 0.9700
2.4634 -6.3347 -1.2776 0.9727
-8.4268 -5.5875 -2.1372 0.9595
-8.2569 -5.9096 -2.1463 0.9593
-8.0768 -6.2282 -2.1559 0.9592
-7.6855 -6.8539 -2.1767 0.9588
-7.4744 -7.1604 -2.1879 0.9586
-7.2529 -7.4625 -2.1997 0.9583
-6.7787 -8.0517 -2.2248 0.9579
-6.2630 -8.6189 -2.2521 0.9574
-4.7933 -9.9239 -2.3296 0.9559
-4.1340 -10.3930 -2.3643 0.9553
-3.7893 -10.6146 -2.3824 0.9550
-3.4349 -10.8271 -2.4010 0.9546
-3.0706 -11.0299 -2.4202 0.9543
-2.3135 -11.4051 -2.4599 0.9535
-1.1093 -11.8843 -2.5230 0.9524
-0.6905 -12.0199 -2.5450 0.9520
-0.2634 -12.1426 -2.5673 0.9516
0.1613 -11.5253 -2.4365 0.9540
0.5776 -11.6151 -2.4582 0.9536
1.8652 -11.8012 -2.5255 0.9523
3.2016 -11.8529 -2.5952 0.9510
2.4410 -7.9048 -1.7488 0.9667
2.4552 -6.3136 -1.4319 0.9727
2.4648 -5.2051 -1.2174 0.9767
2.4686 -4.7655 -1.1345 0.9783
2.4717 -4.3813 -1.0633 0.9796
-7.7104 -5.1125 -2.1743 0.9627
-7.5523 -5.4053 -2.1827 0.9626
-7.2077 -5.9800 -2.2011 0.9622
-6.8253 -6.5386 -2.2214 0.9619
-6.4052 -7.0789 -2.2437 0.9615
-6.1810 -7.3416 -2.2555 0.9613
-5.9474 -7.5988 -2.2679 0.9611
-5.1912 -8.3351 -2.3078 0.9605
-4.9207 -8.5676 -2.3221 0.9602
-4.6411 -8.7932 -2.3368 0.9600
-4.3525 -9.0114 -2.3520 0.9597
-4.0550 -9.2219 -2.3676 0.9595
-3.7487 -9.4245 -2.3838 0.9592
-2.7783 -9.9800 -2.4347 0.9583
-2.4382 -10.1467 -2.4526 0.9580
-2.0900 -10.3033 -2.4708 0.9577
-1.7341 -10.4497 -2.4895 0.9574
-0.6217 -10.8227 -2.5478 0.9564
0.1450 -10.3590 -2.4348 0.9583
0.5187 -10.4303 -2.4544 0.9580
0.8977 -10.4891 -2.4742 0.9577
1.6703 -10.5679 -2.5145 0.9570
2.0629 -10.5872 -2.5350 0.9566
2.4593 -10.5925 -2.5557 0.9563
2.4399 -7.0042 -1.7432 0.9700
2.4470 -6.2925 -1.5868 0.9726
2.4529 -5.6970 -1.4578 0.9748
2.4620 -4.7528 -1.2580 0.9782
2.4655 -4.3704 -1.1793 0.9796
-6.6310 -5.5015 -2.2309 0.9650
-6.2745 -6.0110 -2.2498 0.9647
-6.0833 -6.2591 -2.2599 0.9646
-5.8835 -6.5025 -2.2705 0.9644
-5.6752 -6.7408 -2.2815 0.9642
-5.4583 -6.9739 -2.2930 0.9641
-4.9994 -7.4231 -2.3172 0.9637
-3.7081 -8.4330 -2.3852 0.9627
-2.5345 -9.1042 -2.4469 0.9617
-2.2228 -9.2502 -2.4632 0.9615
-0.9089 -9.7371 -2.5321 0.9604
0.4702 -9.4555 -2.4512 0.9616
0.8132 -9.5016 -2.4691 0.9614
1.1601 -9.5360 -2.4873 0.9611
2.4388 -6.2712 -1.7422 0.9726
2.4453 -5.6793 -1.6010 0.9748
2.4594 -4.3595 -1.2960 0.9795
-6.2891 -4.8497 -2.2483 0.9675
-6.1344 -5.0895 -2.2565 0.9674
-5.9717 -5.3255 -2.2651 0.9673
-5.8010 -5.5573 -2.2742 0.9672
-5.4357 -6.0075 -2.2935 0.9669
-5.2413 -6.2254 -2.3038 0.9667
-5.0391 -6.4382 -2.3145 0.9666
-4.8292 -6.6456 -2.3256 0.9664
-4.1539 -7.2327 -2.3612 0.9659
-3.9141 -7.4157 -2.3738 0.9657
-3.6670 -7.5920 -2.3868 0.9656
-3.1516 -7.9231 -2.4139 0.9652
-2.8836 -8.0774 -2.4280 0.9650
-1.7470 -8.6119 -2.4876 0.9641
-1.4476 -8.7234 -2.5033 0.9639
-0.5170 -9.0000 -2.5520 0.9632
-0.1968 -9.0719 -2.5688 0.9630
0.4296 -8.6387 -2.4486 0.9647
0.7424 -8.6754 -2.4649 0.9645
1.0586 -8.7012 -2.4814 0.9642
2.0225 -8.7113 -2.5317 0.9635
2.3477 -8.6913 -2.5486 0.9633
2.4304 -6.2499 -1.8984 0.9725
2.4377 -5.6616 -1.7450 0.9747
2.4437 -5.1604 -1.6164 0.9765
2.4488 -4.7273 -1.5072 0.9781
2.4531 -4.3484 -1.4134 0.9795
-5.9850 -4.2835 -2.2637 0.9697
-5.7019 -4.7307 -2.2788 0.9695
-5.2214 -5.3723 -2.3043 0.9691
-4.8645 -5.7780 -2.3232 0.9689
-4.2757 -6.3486 -2.3543 0.9685
-3.8485 -6.7008 -2.3768 0.9682
-3.3946 -7.0281 -2.4007 0.9679
-3.1580 -7.1818 -2.4131 0.9677
-2.9150 -7.3285 -2.4259 0.9675
-2.1502 -7.7238 -2.4660 0.9670
-1.3352 -8.0464 -2.5087 0.9664
-0.7670 -8.2174 -2.5385 0.9661
-0.1811 -8.3508 -2.5691 0.9656
0.1106 -7.9043 -2.4314 0.9675
2.1517 -7.9659 -2.5379 0.9661
2.4009 -7.7749 -2.5028 0.9665
2.4299 -5.6437 -1.8900 0.9746
2.4365 -5.1453 -1.7511 0.9765
2.4421 -4.7144 -1.6331 0.9780
2.4469 -4.3373 -1.5317 0.9794
-5.7109 -3.7867 -2.2777 0.9715
-5.5881 -3.9995 -2.2843 0.9714
-5.3215 -4.4151 -2.2984 0.9713
-5.1777 -4.6174 -2.3061 0.9712
-5.0270 -4.8159 -2.3141 0.9711
-4.7051 -5.2001 -2.3311 0.9709
-4.5341 -5.3855 -2.3401 0.9708
-3.7847 -6.0768 -2.3797 0.9703
-3.5815 -6.2359 -2.3904 0.9701
-2.7089 -6.8102 -2.4363 0.9696
-2.2387 -7.0569 -2.4610 0.9693
-1.7479 -7.2739 -2.4867 0.9690
-1.4951 -7.3707 -2.4999 0.9688
-0.7104 -7.6113 -2.5410 0.9683
-0.4408 -7.6742 -2.5551 0.9681
-0.1677 -7.7279 -2.5694 0.9679
0.3652 -7.3445 -2.4444 0.9695
0.6306 -7.3683 -2.4582 0.9693
0.8982 -7.3828 -2.4722 0.9691
1.4386 -7.3832 -2.5004 0.9688
1.7108 -7.3687 -2.5146 0.9686
2.2572 -7.3098 -2.5430 0.9683
2.4034 -6.8996 -2.4287 0.9697
2.4137 -6.2068 -2.2137 0.9723
2.4222 -5.6256 -2.0360 0.9745
2.4353 -4.7014 -1.7600 0.9779
-5.2357 -3.7473 -2.3025 0.9730
-4.9840 -4.1351 -2.3159 0.9729
-4.8483 -4.3237 -2.3231 0.9728
-4.7062 -4.5085 -2.3306 0.9727
-4.4027 -4.8659 -2.3467 0.9725
-4.2416 -5.0381 -2.3552 0.9724
-4.0745 -5.2057 -2.3640 0.9723
-3.9011 -5.3685 -2.3731 0.9722
-3.7218 -5.5262 -2.3826 0.9721
-3.1493 -5.9668 -2.4128 0.9717
-2.9473 -6.1021 -2.4234 0.9716
-2.3098 -6.4704 -2.4569 0.9712
-2.0874 -6.5797 -2.4685 0.9711
-1.8603 -6.6822 -2.4805 0.9710
-1.6286 -6.7773 -2.4926 0.9708
-1.1524 -6.9450 -2.5175 0.9705
-0.4099 -7.1368 -2.5564 0.9701
0.0951 -6.7942 -2.4299 0.9715
1.5859 -6.8307 -2.5077 0.9707
2.4144 -5.6075 -2.1833 0.9744
2.4220 -5.1147 -2.0238 0.9762
-4.8044 -3.7048 -2.3249 0.9743
-4.4195 -4.2338 -2.3454 0.9741
-2.9511 -5.5913 -2.4228 0.9733
-2.5661 -5.8359 -2.4431 0.9731
-1.9532 -6.1568 -2.4753 0.9727
-1.7401 -6.2506 -2.4864 0.9726
-1.3018 -6.4175 -2.5094 0.9723
-1.0770 -6.4902 -2.5212 0.9722
-0.8487 -6.5554 -2.5331 0.9721
-0.3828 -6.6628 -2.5575 0.9718
-0.1454 -6.7046 -2.5699 0.9717
0.5458 -6.3781 -2.4531 0.9730
0.7769 -6.3858 -2.4652 0.9728
1.0092 -6.3853 -2.4773 0.9727
1.2424 -6.3763 -2.4895 0.9726
1.9449 -6.2983 -2.5261 0.9722
2.1788 -6.2549 -2.5382 0.9720
2.3967 -6.1630 -2.5341 0.9721
2.4217 -4.6750 -2.0177 0.9777
-4.7405 -3.1433 -2.3279 0.9757
-4.6363 -3.3183 -2.3335 0.9757
-4.5263 -3.4904 -2.3393 0.9756
-3.5970 -4.5957 -2.3885 0.9751
-3.4424 -4.7372 -2.3967 0.9750
-3.1179 -5.0061 -2.4138 0.9748
-2.7736 -5.2549 -2.4319 0.9746
-2.2223 -5.5870 -2.4609 0.9743
-2.0298 -5.6860 -2.4710 0.9742
-1.8333 -5.7788 -2.4813 0.9741
-1.6328 -5.8653 -2.4918 0.9740
-1.2209 -6.0184 -2.5134 0.9738
-0.1362 -6.2782 -2.5701 0.9732
0.7266 -5.9723 -2.4623 0.9743
0.9435 -5.9698 -2.4736 0.9742
1.3795 -5.9414 -2.4963 0.9740
1.5978 -5.9152 -2.5077 0.9739
2.0338 -5.8386 -2.5304 0.9736
2.2508 -5.7880 -2.5417 0.9735
2.3985 -5.5706 -2.4823 0.9741
2.4072 -5.0835 -2.3021 0.9760
-4.4777 -2.9691 -2.3415 0.9768
-4.3788 -3.1340 -2.3468 0.9768
-4.2743 -3.2960 -2.3523 0.9767
-4.0488 -3.6107 -2.3643 0.9766
-3.8020 -3.9118 -2.3774 0.9765
-3.5342 -4.1978 -2.3915 0.9763
-3.2463 -4.4674 -2.4067 0.9762
-2.0925 -5.2607 -2.4674 0.9756
-0.9493 -5.7209 -2.5273 0.9750
-0.5435 -5.8225 -2.5486 0.9748
-0.1279 -5.8963 -2.5703 0.9746
0.2779 -5.5887 -2.4387 0.9759
0.4792 -5.5992 -2.4492 0.9758
0.8849 -5.5988 -2.4703 0.9756
1.4972 -5.5428 -2.5022 0.9753
1.9047 -5.4679 -2.5234 0.9751
2.1073 -5.4190 -2.5340 0.9749
2.3997 -5.0676 -2.4437 0.9758
2.4077 -4.6479 -2.2813 0.9774
-4.0446 -3.1189 -2.3642 0.9777
-3.8302 -3.4158 -2.3756 0.9776
-3.7154 -3.5594 -2.3817 0.9776
-3.5956 -3.6995 -2.3880 0.9775
-3.4709 -3.8360 -2.3946 0.9775
-3.3413 -3.9687 -2.4014 0.9774
-3.2070 -4.0975 -2.4085 0.9773
-3.0681 -4.2221 -2.4158 0.9773
-2.6245 -4.5695 -2.4392 0.9770
-2.4680 -4.6760 -2.4474 0.9770
-2.1431 -4.8739 -2.4645 0.9768
-1.8030 -5.0506 -2.4824 0.9766
-1.6277 -5.1307 -2.4916 0.9766
-1.2672 -5.2734 -2.5105 0.9764
-0.8948 -5.3919 -2.5300 0.9762
-0.5119 -5.4851 -2.5500 0.9760
-0.3172 -5.5218 -2.5602 0.9759
0.6411 -5.2700 -2.4574 0.9769
1.0236 -5.2532 -2.4773 0.9767
1.2153 -5.2343 -2.4873 0.9766
1.4068 -5.2084 -2.4973 0.9765
1.5981 -5.1754 -2.5072 0.9764
2.1673 -5.0338 -2.5368 0.9761
2.3545 -4.9722 -2.5466 0.9760
2.4005 -4.6342 -2.4158 0.9773
2.4078 -4.2680 -2.2683 0.9786
-4.0187 -2.6647 -2.3652 0.9787
-3.6302 -3.2373 -2.3859 0.9786
-3.4068 -3.5053 -2.3977 0.9785
-3.2881 -3.6340 -2.4040 0.9784
-3.1649 -3.7593 -2.4105 0.9783
-3.0373 -3.8806 -2.4172 0.9783
-2.7689 -4.1112 -2.4314 0.9782
-2.6284 -4.2202 -2.4388 0.9781
-2.4839 -4.3248 -2.4464 0.9780
-2.3354 -4.4247 -2.4542 0.9780
-2.1831 -4.5199 -2.4622 0.9779
-1.8677 -4.6955 -2.4788 0.9777
-1.5387 -4.8503 -2.4960 0.9776
-1.1974 -4.9831 -2.5139 0.9774
-0.8452 -5.0929 -2.5324 0.9773
-0.6653 -5.1389 -2.5418 0.9772
-0.4833 -5.1787 -2.5513 0.9771
-0.2994 -5.2122 -2.5609 0.9770
0.2467 -4.9612 -2.4366 0.9781
0.4252 -4.9682 -2.4459 0.9780
1.5051 -4.8740 -2.5022 0.9775
1.6842 -4.8351 -2.5115 0.9774
1.8626 -4.7896 -2.5208 0.9774
2.0397 -4.7373 -2.5300 0.9773
2.4009 -4.2559 -2.3969 0.9785
-3.6407 -2.8074 -2.3851 0.9795
-3.5457 -2.9418 -2.3901 0.9795
-3.4461 -3.0732 -2.3954 0.9794
-3.3419 -3.2015 -2.4009 0.9794
-3.2333 -3.3267 -2.4066 0.9793
-2.8813 -3.6814 -2.4252 0.9792
-2.7556 -3.7922 -2.4319 0.9791
-2.2138 -4.1943 -2.4604 0.9789
-2.0691 -4.2838 -2.4680 0.9788
-1.6149 -4.5237 -2.4918 0.9786
-0.9679 -4.7714 -2.5257 0.9783
-0.2832 -4.9296 -2.5616 0.9780
0.0655 -4.6778 -2.4270 0.9791
0.2332 -4.6894 -2.4357 0.9791
0.7409 -4.6880 -2.4622 0.9788
1.7571 -4.5185 -2.5151 0.9784
1.9239 -4.4683 -2.5238 0.9783
2.0891 -4.4117 -2.5324 0.9782
2.3940 -4.2436 -2.5277 0.9783
-3.6298 -2.4068 -2.3854 0.9803
-3.4618 -2.6695 -2.3943 0.9803
-3.3711 -2.7969 -2.3991 0.9802
-3.0730 -3.1618 -2.4149 0.9801
-2.9652 -3.2772 -2.4206 0.9800
-2.7375 -3.4976 -2.4326 0.9799
-2.4942 -3.7033 -2.4454 0.9798
-2.3669 -3.8004 -2.4521 0.9798
-2.2360 -3.8933 -2.4590 0.9797
-2.1017 -3.9820 -2.4661 0.9797
-1.8232 -4.1462 -2.4807 0.9796
-1.6792 -4.2214 -2.4883 0.9795
-1.3824 -4.3575 -2.5039 0.9794
-0.9177 -4.5239 -2.5282 0.9792
-0.2683 -4.6704 -2.5622 0.9789
-0.1018 -4.6928 -2.5709 0.9788
0.0620 -4.4301 -2.4266 0.9800
0.3804 -4.4446 -2.4433 0.9799
0.5406 -4.4434 -2.4516 0.9798
0.7012 -4.4364 -2.4600 0.9797
0.8620 -4.4236 -2.4684 0.9797
1.1832 -4.3803 -2.4851 0.9795
1.3432 -4.3498 -2.4934 0.9795
1.8182 -4.2228 -2.5181 0.9793
1.9740 -4.1686 -2.5262 0.9792
2.2806 -4.0425 -2.5421 0.9791
-3.4564 -2.2918 -2.3943 0.9810
-3.3782 -2.4179 -2.3985 0.9810
-3.2958 -2.5415 -2.4029 0.9810
-3.2092 -2.6625 -2.4075 0.9809
-3.0234 -2.8964 -2.4173 0.9808
-2.9244 -3.0090 -2.4225 0.9808
-2.7148 -3.2245 -2.4336 0.9807
-2.4900 -3.4266 -2.4455 0.9806
-2.3721 -3.5221 -2.4517 0.9806
-1.8669 -3.8652 -2.4783 0.9804
-1.5956 -4.0115 -2.4925 0.9803
-0.8714 -4.2954 -2.5305 0.9800
-0.5663 -4.3740 -2.5464 0.9798
-0.2545 -4.4315 -2.5627 0.9797
-0.0966 -4.4520 -2.5710 0.9796
0.2094 -4.2109 -2.4342 0.9807
0.3607 -4.2144 -2.4421 0.9807
0.6646 -4.2051 -2.4579 0.9805
0.8168 -4.1921 -2.4659 0.9805
1.1209 -4.1497 -2.4817 0.9803
1.8684 -3.9457 -2.5205 0.9800
2.1579 -3.8250 -2.5356 0.9799
