ply
format ascii 1.0
element vertex 635
property float32 x
property float32 y
property float32 z
property float32 I
end_header
-27.1896 25.2066 6.5375 0.8602
-27.2919 21.8478 6.1643 0.8676
-27.2494 20.2378 5.9850 0.8712
-27.4421 18.8770 5.8731 0.8735
-27.4233 17.4344 5.7299 0.8763
-21.8256 12.7890 4.4605 0.9024
-23.7788 12.7990 4.7616 0.8961
-28.5908 14.0772 5.6193 0.8786
-31.5808 14.1512 6.1020 0.8689
-27.1177 29.0673 6.0899 0.8514
-23.6249 12.7162 4.1102 0.8971
-31.5794 14.1506 5.3013 0.8693
-42.0192 17.0278 6.9456 0.8324
-42.0665 15.2963 6.8572 0.8343
-44.8102 14.4777 7.2141 0.8265
-27.0321 33.5515 5.6108 0.8405
-25.2151 29.0728 5.0114 0.8562
-27.2233 29.1805 5.1968 0.8513
-27.2631 27.1776 5.0129 0.8562
-27.3359 25.3423 4.8541 0.8604
-27.3289 20.2968 4.4329 0.8717
-28.5885 14.0761 4.1496 0.8794
-31.5780 14.1500 4.5061 0.8697
-42.0726 17.0494 5.9115 0.8327
-44.8076 14.4769 6.1319 0.8270
-25.1900 29.0438 4.1284 0.8567
-27.2096 29.1657 4.2832 0.8517
-27.2663 27.1807 4.1342 0.8565
-27.4143 21.9458 3.7709 0.8683
-27.3105 27.2249 3.2644 0.8566
-25.3692 23.5190 2.9285 0.8703
-27.4549 21.9783 2.9771 0.8683
-27.4973 20.4219 2.8995 0.8715
-27.5375 18.9426 2.8294 0.8744
-23.9269 12.8787 2.3003 0.8967
-26.6659 13.1294 2.5161 0.8875
-31.5754 14.1488 2.9290 0.8703
-25.4271 34.0128 2.6334 0.8435
-25.2088 29.0655 2.3858 0.8571
-25.6554 23.7844 2.1694 0.8692
-27.4516 23.6583 2.2472 0.8648
-27.5369 20.4513 2.1270 0.8716
-28.5852 14.0745 1.9758 0.8801
-42.2320 17.1140 2.8257 0.8331
-42.2768 15.3728 2.7895 0.8350
-44.6189 14.4159 2.9076 0.8287
-26.5188 35.4732 1.7464 0.8375
-25.2216 29.0803 1.5179 0.8572
-27.4070 29.3773 1.5842 0.8514
-25.6956 23.8216 1.3816 0.8691
-27.4816 23.6842 1.4305 0.8648
-25.7837 20.6405 1.3023 0.8762
-25.8216 19.1773 1.2683 0.8792
-25.8575 17.7870 1.2375 0.8819
-27.6513 17.5793 1.2920 0.8771
-27.6862 16.2231 1.2653 0.8795
-31.5727 14.1476 1.3642 0.8707
-42.2850 17.1355 1.7990 0.8331
-25.4859 34.0915 0.7190 0.8434
-25.5672 31.7333 0.6884 0.8496
-25.6850 27.5315 0.6360 0.8602
-25.7359 23.8589 0.5928 0.8690
-25.8985 19.2344 0.5449 0.8789
-25.9271 16.4832 0.5190 0.8843
-31.5714 14.1470 0.5844 0.8707
-25.2770 29.1442 -0.2172 0.8570
-25.7513 23.8732 -0.1977 0.8690
-25.7915 22.2276 -0.1917 0.8727
-25.9633 15.2136 -0.1694 0.8866
-39.2557 15.9079 -0.2385 0.8441
-39.3280 14.3005 -0.2356 0.8459
-41.3494 10.1185 -0.2397 0.8434
-41.7172 8.6188 -0.2398 0.8433
-44.4333 5.8644 -0.2523 0.8359
-44.4671 4.2356 -0.2515 0.8364
-44.4949 2.6154 -0.2509 0.8367
-22.0618 44.4543 -1.3974 0.8199
-23.3758 39.6068 -1.2950 0.8319
-23.3843 36.5282 -1.2213 0.8407
-23.6313 34.1236 -1.1688 0.8470
-24.2202 32.3985 -1.1390 0.8506
-25.1101 28.9517 -1.0791 0.8578
-25.3378 27.1594 -1.0459 0.8619
-25.6061 23.7387 -0.9832 0.8696
-25.9087 22.3286 -0.9631 0.8721
-26.1858 20.9623 -0.9445 0.8744
-25.9027 19.2375 -0.9085 0.8789
-25.9678 16.5090 -0.8665 0.8841
-25.9983 15.2341 -0.8485 0.8864
-29.5438 9.5453 -0.8742 0.8832
-31.6563 7.7465 -0.9177 0.8777
-31.9115 4.2117 -0.9064 0.8791
-31.9660 3.0449 -0.9042 0.8794
-32.0055 1.8813 -0.9028 0.8796
-4.4701 45.4164 -2.3144 0.8330
-7.2665 42.1746 -2.1704 0.8425
-8.5276 40.6310 -2.1055 0.8468
-9.7068 39.1342 -2.0448 0.8509
-11.8440 36.2689 -1.9349 0.8583
-12.8128 34.8949 -1.8852 0.8617
-14.5736 32.2515 -1.7948 0.8678
-17.4925 27.3247 -1.6454 0.8781
-18.6987 25.0126 -1.5838 0.8824
-19.2471 23.8888 -1.5558 0.8844
-19.7616 22.7849 -1.5296 0.8862
-21.5159 18.5428 -1.4405 0.8925
-23.1258 13.5509 -1.3593 0.8982
-23.3641 12.5758 -1.3456 0.8992
-23.5222 11.5816 -1.3297 0.9003
-24.2007 8.7999 -1.3059 0.9020
-24.3588 7.8700 -1.2982 0.9026
-24.6220 6.0252 -1.2855 0.9035
-24.8165 4.1956 -1.2764 0.9041
-24.8887 3.2848 -1.2732 0.9043
-24.9444 2.3761 -1.2708 0.9045
-25.0138 -0.3454 -1.2687 0.9047
-3.1907 32.4179 -2.3884 0.8775
-4.2625 31.5321 -2.3330 0.8802
-5.2808 30.6497 -2.2804 0.8827
-6.2484 29.7712 -2.2305 0.8851
-7.1676 28.8971 -2.1830 0.8874
-8.8704 27.1631 -2.0952 0.8917
-9.6583 26.3038 -2.0546 0.8937
-10.4064 25.4499 -2.0160 0.8956
-11.1167 24.6014 -1.9794 0.8974
-11.7909 23.7586 -1.9448 0.8991
-12.4305 22.9213 -1.9119 0.9007
-13.0371 22.0895 -1.8807 0.9022
-13.6121 21.2633 -1.8512 0.9037
-14.6727 19.6271 -1.7968 0.9064
-15.1606 18.8169 -1.7718 0.9076
-15.6218 18.0118 -1.7482 0.9088
-16.0573 17.2117 -1.7259 0.9099
-16.8549 15.6257 -1.6852 0.9119
-17.2188 14.8395 -1.6667 0.9129
-17.5604 14.0575 -1.6493 0.9137
-17.8804 13.2795 -1.6331 0.9145
-18.1796 12.5054 -1.6179 0.9153
-18.4585 11.7350 -1.6038 0.9160
-18.7178 10.9679 -1.5907 0.9167
-18.9578 10.2041 -1.5786 0.9173
-19.1792 9.4432 -1.5675 0.9178
-19.3823 8.6851 -1.5573 0.9183
-19.5676 7.9295 -1.5481 0.9188
-20.1371 4.9277 -1.5201 0.9202
-20.3225 3.4358 -1.5112 0.9207
-20.3910 2.6912 -1.5081 0.9208
-20.4803 1.2038 -1.5043 0.9210
-20.5013 0.4604 -1.5036 0.9210
-3.3288 24.6250 -2.3856 0.9050
-4.9271 23.4759 -2.3029 0.9081
-5.6775 22.8896 -2.2641 0.9096
-6.3967 22.2965 -2.2269 0.9110
-7.0856 21.6976 -2.1913 0.9124
-8.3762 20.4848 -2.1247 0.9149
-8.9797 19.8722 -2.0936 0.9161
-10.1073 18.6373 -2.0355 0.9183
-12.0661 16.1404 -1.9347 0.9222
-12.4983 15.5125 -1.9125 0.9231
-12.9087 14.8836 -1.8915 0.9239
-13.6667 13.6238 -1.8526 0.9254
-14.3445 12.3623 -1.8180 0.9267
-14.6545 11.7312 -1.8022 0.9273
-14.9460 11.1002 -1.7873 0.9279
-15.7128 9.2071 -1.7484 0.9294
-15.9337 8.5764 -1.7372 0.9299
-16.1379 7.9458 -1.7269 0.9303
-16.3257 7.3154 -1.7175 0.9306
-17.0256 4.1663 -1.6828 0.9320
-17.1192 3.5369 -1.6782 0.9322
-17.2613 2.2782 -1.6715 0.9324
-17.3099 1.6488 -1.6694 0.9325
-17.3627 0.3899 -1.6673 0.9326
-2.0251 20.5756 -2.4559 0.9201
-4.0640 19.3636 -2.3502 0.9234
-4.6968 18.9358 -2.3175 0.9244
-5.3069 18.4977 -2.2859 0.9254
-6.4600 17.5933 -2.2263 0.9273
-9.4131 14.7040 -2.0739 0.9321
-10.9915 12.6730 -1.9927 0.9347
-11.3407 12.1560 -1.9748 0.9352
-11.6725 11.6358 -1.9578 0.9358
-12.2848 10.5873 -1.9264 0.9368
-12.5661 10.0594 -1.9120 0.9372
-12.8311 9.5294 -1.8985 0.9376
-13.3133 8.4639 -1.8740 0.9384
-13.9209 6.8542 -1.8432 0.9394
-14.5234 4.6923 -1.8130 0.9404
-14.6380 4.1498 -1.8073 0.9406
-14.8249 3.0628 -1.7982 0.9408
-14.9559 1.9739 -1.7920 0.9410
-15.0316 0.8835 -1.7886 0.9411
-15.0487 0.3380 -1.7880 0.9412
-15.0522 -0.2078 -1.7882 0.9412
-2.3098 17.0866 -2.4430 0.9327
-3.4555 16.4641 -2.3836 0.9343
-4.5308 15.7926 -2.3279 0.9358
-5.0422 15.4403 -2.3014 0.9365
-5.5364 15.0780 -2.2759 0.9372
-7.3431 13.5404 -2.1825 0.9397
-8.1471 12.7263 -2.1410 0.9408
-8.5247 12.3097 -2.1216 0.9413
-8.8866 11.8872 -2.1029 0.9418
-9.2328 11.4594 -2.0851 0.9423
-9.5634 11.0266 -2.0681 0.9427
-10.7352 9.2518 -2.0080 0.9444
-11.2330 8.3426 -1.9825 0.9450
-11.4605 7.8835 -1.9709 0.9454
-11.6740 7.4217 -1.9601 0.9456
-12.3902 5.5520 -1.9238 0.9466
-12.6675 4.6062 -1.9098 0.9470
-12.9848 3.1774 -1.8941 0.9474
-13.0645 2.6991 -1.8902 0.9475
-13.2707 0.2980 -1.8808 0.9478
-1.4790 15.0270 -2.4875 0.9406
-2.0007 14.8006 -2.4604 0.9413
-2.5088 14.5607 -2.4341 0.9419
-3.0029 14.3079 -2.4084 0.9425
-3.4832 14.0430 -2.3835 0.9430
-4.4018 13.4791 -2.3359 0.9441
-4.8400 13.1814 -2.3133 0.9447
-5.2641 12.8740 -2.2913 0.9452
-5.6743 12.5573 -2.2701 0.9457
-7.1757 11.2090 -2.1925 0.9475
-7.5166 10.8538 -2.1750 0.9479
-7.8438 10.4923 -2.1581 0.9483
-8.1574 10.1247 -2.1420 0.9487
-8.4576 9.7515 -2.1265 0.9490
-8.7444 9.3731 -2.1118 0.9494
-9.0180 8.9897 -2.0977 0.9497
-9.2785 8.6018 -2.0843 0.9500
-9.5258 8.2096 -2.0717 0.9503
-9.9819 7.4134 -2.0483 0.9508
-10.5705 6.1939 -2.0183 0.9515
-10.7416 5.7817 -2.0096 0.9518
-10.9003 5.3670 -2.0016 0.9519
-11.0467 4.9500 -1.9942 0.9521
-11.3028 4.1099 -1.9813 0.9524
-11.4126 3.6873 -1.9758 0.9525
-11.5104 3.2631 -1.9709 0.9527
-11.5961 2.8376 -1.9667 0.9528
-11.7318 1.9834 -1.9601 0.9529
-11.7817 1.5549 -1.9577 0.9530
-11.8198 1.1259 -1.9560 0.9530
-11.8460 0.6963 -1.9549 0.9530
-11.8604 0.2664 -1.9544 0.9530
-1.3017 13.2249 -2.4978 0.9474
-1.7631 13.0427 -2.4738 0.9478
-2.6529 12.6402 -2.4276 0.9488
-3.0809 12.4211 -2.4054 0.9492
-3.4974 12.1908 -2.3838 0.9497
-3.9024 11.9499 -2.3629 0.9501
-4.6771 11.4382 -2.3227 0.9509
-5.4045 10.8900 -2.2851 0.9517
-7.3007 9.0614 -2.1872 0.9537
-7.5752 8.7341 -2.1731 0.9540
-8.0885 8.0632 -2.1467 0.9546
-8.5550 7.3728 -2.1228 0.9551
-8.7707 7.0211 -2.1117 0.9553
-8.9748 6.6654 -2.1013 0.9555
-9.1674 6.3061 -2.0914 0.9557
-9.3484 5.9433 -2.0822 0.9559
-9.5181 5.5772 -2.0735 0.9561
-9.8232 4.8366 -2.0580 0.9564
-9.9587 4.4625 -2.0512 0.9566
-10.1961 3.7075 -2.0392 0.9568
-10.2980 3.3271 -2.0341 0.9569
-10.4683 2.5616 -2.0257 0.9571
-10.5368 2.1769 -2.0223 0.9572
-10.5942 1.7911 -2.0196 0.9572
-10.6758 1.0169 -2.0157 0.9573
-10.7001 0.6289 -2.0147 0.9573
-10.7134 0.2406 -2.0142 0.9573
-10.7156 -0.1479 -2.0143 0.9573
-2.3739 11.3106 -2.4429 0.9538
-2.7595 11.1252 -2.4229 0.9542
-3.1355 10.9292 -2.4034 0.9546
-3.5017 10.7230 -2.3844 0.9549
-3.8580 10.5071 -2.3660 0.9553
-4.2042 10.2818 -2.3480 0.9556
-5.7810 9.0305 -2.2665 0.9571
-6.0651 8.7580 -2.2518 0.9574
-6.6015 8.1936 -2.2242 0.9579
-7.5475 6.9971 -2.1755 0.9588
-8.1460 6.0499 -2.1448 0.9594
-8.3244 5.7262 -2.1357 0.9595
-8.6496 5.0684 -2.1191 0.9598
-8.7965 4.7347 -2.1117 0.9600
-8.9330 4.3983 -2.1047 0.9601
-9.1746 3.7179 -2.0925 0.9603
-9.4591 2.6816 -2.0783 0.9606
-9.5970 1.9827 -2.0715 0.9607
-9.6936 1.2794 -2.0668 0.9608
-9.7265 0.9265 -2.0653 0.9608
-9.7490 0.5730 -2.0643 0.9609
-9.7613 0.2192 -2.0639 0.9609
-9.7633 -0.1348 -2.0640 0.9609
-1.4211 10.5121 -2.4931 0.9573
-1.7874 10.3739 -2.4740 0.9577
-2.4965 10.0652 -2.4372 0.9583
-3.1729 9.7160 -2.4022 0.9589
-3.4982 9.5272 -2.3853 0.9592
-3.8148 9.3296 -2.3689 0.9594
-4.9914 8.4572 -2.3080 0.9605
-5.2626 8.2206 -2.2940 0.9607
-5.5244 7.9771 -2.2805 0.9609
-5.7767 7.7272 -2.2675 0.9611
-6.0195 7.4713 -2.2549 0.9613
-6.6909 6.6699 -2.2204 0.9619
-6.8955 6.3925 -2.2099 0.9621
-7.0904 6.1106 -2.1999 0.9623
-7.7735 4.9420 -2.1649 0.9629
-7.9200 4.6409 -2.1574 0.9630
-8.0570 4.3367 -2.1504 0.9631
-8.3017 3.7199 -2.1380 0.9633
-8.6754 2.4594 -2.1193 0.9636
-8.8542 1.4969 -2.1105 0.9638
-8.8945 1.1739 -2.1085 0.9638
-8.9595 -0.1237 -2.1059 0.9639
-1.9562 9.3205 -2.4658 0.9614
-3.1970 8.7066 -2.4015 0.9624
-3.4884 8.5310 -2.3864 0.9626
-3.7719 8.3473 -2.3717 0.9629
-4.0475 8.1557 -2.3574 0.9631
-4.3151 7.9567 -2.3436 0.9633
-5.0677 7.3177 -2.3047 0.9639
-5.3017 7.0919 -2.2926 0.9641
-5.5271 6.8601 -2.2810 0.9643
-6.1512 6.1319 -2.2488 0.9647
-6.3417 5.8792 -2.2390 0.9649
-6.5233 5.6219 -2.2297 0.9650
-6.6961 5.3604 -2.2208 0.9652
-6.8600 5.0948 -2.2125 0.9653
-7.0149 4.8255 -2.2045 0.9654
-7.4260 3.9971 -2.1836 0.9658
-7.5450 3.7149 -2.1775 0.9658
-7.8481 2.8537 -2.1622 0.9661
-7.9311 2.5624 -2.1580 0.9661
-8.0050 2.2694 -2.1543 0.9662
-8.1727 1.3817 -2.1461 0.9663
-0.8728 8.8679 -2.5226 0.9636
-1.4936 8.6691 -2.4903 0.9641
-1.7955 8.5551 -2.4746 0.9643
-2.3810 8.2993 -2.4443 0.9647
-2.6642 8.1582 -2.4296 0.9650
-2.9406 8.0087 -2.4152 0.9652
-3.2104 7.8512 -2.4013 0.9654
-4.2177 7.1462 -2.3491 0.9661
-5.1046 6.3357 -2.3033 0.9667
-5.5010 5.8964 -2.2829 0.9670
-5.6871 5.6693 -2.2733 0.9672
-6.3502 4.7162 -2.2393 0.9677
-6.4954 4.4680 -2.2318 0.9678
-6.6322 4.2164 -2.2248 0.9679
-6.8808 3.7036 -2.2122 0.9680
-6.9925 3.4429 -2.2065 0.9681
-7.0958 3.1796 -2.2012 0.9682
-7.1907 2.9139 -2.1964 0.9683
-7.3551 2.3763 -2.1882 0.9684
-7.4246 2.1048 -2.1847 0.9684
-7.5822 1.2819 -2.1769 0.9685
-7.6178 1.0054 -2.1752 0.9686
-7.6633 0.4504 -2.1732 0.9686
-7.6733 0.1723 -2.1728 0.9686
-1.0938 8.0918 -2.5115 0.9664
-1.6576 7.8981 -2.4822 0.9668
-1.9317 7.7879 -2.4680 0.9670
-2.7198 7.4074 -2.4271 0.9675
-2.9706 7.2648 -2.4141 0.9677
-3.2150 7.1148 -2.4014 0.9679
-3.6843 6.7937 -2.3771 0.9682
-4.1268 6.4463 -2.3542 0.9685
-4.3375 6.2634 -2.3434 0.9686
-4.5413 6.0747 -2.3328 0.9688
-4.7378 5.8804 -2.3227 0.9689
-4.9270 5.6808 -2.3129 0.9690
-5.1089 5.4762 -2.3036 0.9691
-5.6098 4.8346 -2.2778 0.9695
-5.7615 4.6122 -2.2700 0.9696
-6.2915 3.6866 -2.2429 0.9699
-6.4046 3.4473 -2.2371 0.9700
-6.5097 3.2052 -2.2318 0.9701
-6.6070 2.9605 -2.2269 0.9702
-6.7778 2.4645 -2.2182 0.9703
-7.0237 1.4511 -2.2060 0.9704
-7.0652 1.1944 -2.2039 0.9705
-7.0987 0.9369 -2.2023 0.9705
-7.1242 0.6786 -2.2012 0.9705
-7.1416 0.4198 -2.2004 0.9705
-0.7455 7.5745 -2.5300 0.9684
-1.0139 7.5008 -2.5160 0.9686
-1.2781 7.4184 -2.5023 0.9688
-1.5379 7.3275 -2.4888 0.9689
-2.0429 7.1210 -2.4625 0.9693
-2.5274 6.8833 -2.4374 0.9696
-3.2122 6.4726 -2.4019 0.9700
-3.4287 6.3223 -2.3907 0.9701
-3.6390 6.1657 -2.3798 0.9703
-3.8429 6.0030 -2.3693 0.9704
-4.4160 5.4810 -2.3397 0.9708
-4.7646 5.1072 -2.3217 0.9710
-4.9286 4.9132 -2.3133 0.9711
-5.0856 4.7147 -2.3052 0.9712
-5.3786 4.3056 -2.2902 0.9714
-5.5143 4.0954 -2.2832 0.9715
-5.7640 3.6645 -2.2704 0.9716
-5.8779 3.4443 -2.2646 0.9717
-5.9845 3.2212 -2.2592 0.9718
-6.0838 2.9954 -2.2541 0.9718
-6.1756 2.7672 -2.2495 0.9719
-6.3367 2.3042 -2.2413 0.9720
-6.6400 0.8763 -2.2263 0.9722
-6.6894 0.1502 -2.2241 0.9722
-6.6906 -0.0923 -2.2242 0.9722
-0.9439 6.9831 -2.5199 0.9705
-1.1904 6.9090 -2.5071 0.9707
-1.4328 6.8269 -2.4945 0.9708
-1.6710 6.7369 -2.4822 0.9709
-2.3581 6.4221 -2.4465 0.9714
-2.7913 6.1771 -2.4241 0.9716
-3.2030 5.9062 -2.4027 0.9719
-3.5922 5.6113 -2.3826 0.9721
-3.7779 5.4553 -2.3730 0.9722
-3.9576 5.2940 -2.3637 0.9723
-4.1312 5.1275 -2.3548 0.9724
-4.2986 4.9562 -2.3461 0.9725
-4.4596 4.7802 -2.3378 0.9726
-4.6141 4.5996 -2.3299 0.9727
-4.7622 4.4149 -2.3222 0.9728
-4.9037 4.2261 -2.3150 0.9729
-5.0386 4.0334 -2.3081 0.9730
-5.1667 3.8372 -2.3015 0.9730
-5.2881 3.6376 -2.2953 0.9731
-5.5103 3.2288 -2.2839 0.9732
-5.7049 2.8089 -2.2740 0.9733
-5.7917 2.5952 -2.2696 0.9734
-5.8715 2.3793 -2.2655 0.9734
-6.0099 1.9417 -2.2586 0.9735
-6.0684 1.7204 -2.2556 0.9736
-6.1198 1.4975 -2.2531 0.9736
-6.1641 1.2735 -2.2509 0.9736
-6.2013 1.0484 -2.2491 0.9736
-6.2312 0.8224 -2.2477 0.9737
-6.2540 0.5957 -2.2466 0.9737
-6.2779 0.1410 -2.2456 0.9737
-0.8821 6.5254 -2.5234 0.9722
-1.1127 6.4584 -2.5114 0.9723
-1.3398 6.3836 -2.4996 0.9724
-1.5630 6.3015 -2.4880 0.9726
-1.9972 6.1158 -2.4655 0.9728
-2.2077 6.0127 -2.4546 0.9729
-2.8111 5.6643 -2.4233 0.9733
-3.5439 5.1173 -2.3854 0.9737
-3.8771 4.8122 -2.3682 0.9739
-4.1871 4.4881 -2.3522 0.9740
-4.6068 3.9703 -2.3306 0.9743
-4.7344 3.7900 -2.3240 0.9744
-4.8557 3.6062 -2.3178 0.9744
-4.9705 3.4191 -2.3119 0.9745
-5.0790 3.2289 -2.3064 0.9745
-5.1810 3.0358 -2.3012 0.9746
-5.2764 2.8400 -2.2963 0.9747
-5.3653 2.6417 -2.2918 0.9747
-5.4475 2.4410 -2.2876 0.9748
-5.5232 2.2382 -2.2838 0.9748
-5.7587 1.4092 -2.2720 0.9749
-5.8007 1.1984 -2.2699 0.9749
-5.8359 0.9866 -2.2682 0.9750
-5.8643 0.7739 -2.2668 0.9750
-5.9007 0.3468 -2.2652 0.9750
-5.9086 0.1327 -2.2649 0.9750
-5.9097 -0.0816 -2.2649 0.9750
-0.8270 6.1175 -2.5265 0.9737
-1.2568 5.9881 -2.5042 0.9739
-1.6727 5.8306 -2.4826 0.9741
-2.9978 5.0793 -2.4139 0.9748
-3.4939 4.6737 -2.3883 0.9751
-3.7982 4.3793 -2.3725 0.9753
-3.9421 4.2255 -2.3651 0.9753
-4.0803 4.0675 -2.3580 0.9754
-4.2129 3.9056 -2.3512 0.9755
-4.3396 3.7399 -2.3447 0.9755
-4.5754 3.3981 -2.3326 0.9757
-5.0589 2.4908 -2.3079 0.9759
-5.1371 2.3019 -2.3039 0.9760
-5.2089 2.1108 -2.3002 0.9760
-5.2744 1.9179 -2.2969 0.9760
-5.4326 1.3294 -2.2890 0.9761
-5.4725 1.1306 -2.2871 0.9761
-5.5060 0.9308 -2.2854 0.9762
-5.5329 0.7302 -2.2841 0.9762
-0.5709 5.8003 -2.5401 0.9749
-1.3799 5.5632 -2.4980 0.9753
-1.5742 5.4872 -2.4879 0.9754
-2.3144 5.1218 -2.4495 0.9758
-2.6599 4.9046 -2.4316 0.9759
-2.9872 4.6663 -2.4147 0.9761
-3.1438 4.5397 -2.4066 0.9762
-3.4423 4.2724 -2.3912 0.9763
-3.5839 4.1322 -2.3839 0.9764
-3.7203 3.9878 -2.3768 0.9765
-3.9772 3.6871 -2.3636 0.9766
-4.4248 3.0438 -2.3406 0.9768
-4.6145 2.7039 -2.3309 0.9769
-4.7006 2.5301 -2.3265 0.9770
-4.7808 2.3539 -2.3224 0.9770
-4.8551 2.1755 -2.3187 0.9771
-4.9234 1.9951 -2.3152 0.9771
-4.9857 1.8129 -2.3121 0.9771
-5.0420 1.6290 -2.3092 0.9771
-5.1363 1.2568 -2.3045 0.9772
-5.2512 0.5002 -2.2989 0.9772
-5.2646 0.3094 -2.2984 0.9773
-5.2727 -0.0728 -2.2981 0.9773
-0.5379 5.4652 -2.5420 0.9761
-1.4851 5.1764 -2.4927 0.9765
-2.0157 4.9295 -2.4652 0.9768
-2.1852 4.8359 -2.4564 0.9769
-2.3508 4.7369 -2.4478 0.9770
-2.6697 4.5234 -2.4313 0.9771
-2.8227 4.4093 -2.4234 0.9772
-3.1152 4.1671 -2.4083 0.9773
-3.2544 4.0393 -2.4011 0.9774
-3.5184 3.7714 -2.3875 0.9775
-3.7625 3.4881 -2.3749 0.9776
-4.0898 3.0374 -2.3581 0.9778
-4.1882 2.8810 -2.3530 0.9778
-4.2812 2.7218 -2.3483 0.9779
-4.4507 2.3956 -2.3396 0.9780
-4.5271 2.2290 -2.3357 0.9780
-4.6628 1.8896 -2.3289 0.9781
-4.7222 1.7171 -2.3259 0.9781
-4.7758 1.5430 -2.3232 0.9781
-4.8236 1.3674 -2.3208 0.9781
-4.8656 1.1906 -2.3187 0.9782
-4.9018 1.0127 -2.3169 0.9782
-4.9321 0.8338 -2.3154 0.9782
-4.9566 0.6542 -2.3142 0.9782
-4.9752 0.4739 -2.3134 0.9782
-4.9956 -0.0690 -2.3126 0.9782
-0.5079 5.1607 -2.5437 0.9772
-0.6921 5.1196 -2.5341 0.9772
-0.8739 5.0721 -2.5247 0.9773
-1.0533 5.0185 -2.5154 0.9774
-1.5746 4.8221 -2.4883 0.9777
-1.7423 4.7452 -2.4796 0.9777
-1.9066 4.6628 -2.4710 0.9778
-2.0674 4.5751 -2.4627 0.9779
-2.6724 4.1745 -2.4314 0.9782
-2.8135 4.0627 -2.4241 0.9782
-3.0827 3.8261 -2.4102 0.9783
-3.2105 3.7017 -2.4036 0.9784
-3.3338 3.5734 -2.3972 0.9785
-3.4523 3.4414 -2.3911 0.9785
-3.5660 3.3059 -2.3853 0.9786
-3.9714 2.7318 -2.3644 0.9788
-4.0600 2.5811 -2.3599 0.9788
-4.1434 2.4279 -2.3556 0.9788
-4.2215 2.2722 -2.3517 0.9789
-4.2943 2.1144 -2.3479 0.9789
-4.3617 1.9545 -2.3445 0.9789
-4.4804 1.6291 -2.3385 0.9790
-4.5315 1.4640 -2.3359 0.9790
-4.6172 1.1298 -2.3317 0.9790
-4.6517 0.9610 -2.3300 0.9791
-4.6807 0.7913 -2.3285 0.9791
-4.7040 0.6208 -2.3274 0.9791
-4.7217 0.4497 -2.3266 0.9791
-4.7403 0.1064 -2.3258 0.9791
-4.7412 -0.0654 -2.3259 0.9791
-0.4806 4.8827 -2.5453 0.9781
-0.6549 4.8447 -2.5362 0.9782
-1.8067 4.4184 -2.4764 0.9787
-2.1086 4.2488 -2.4607 0.9789
-2.2543 4.1568 -2.4532 0.9789
-2.3963 4.0602 -2.4458 0.9790
-2.6687 3.8536 -2.4318 0.9791
-2.7989 3.7439 -2.4250 0.9792
-3.0466 3.5127 -2.4122 0.9793
-3.1640 3.3914 -2.4062 0.9793
-3.2769 3.2666 -2.4004 0.9794
-3.3853 3.1383 -2.3948 0.9794
-3.6823 2.7348 -2.3795 0.9795
-3.7717 2.5945 -2.3749 0.9796
-3.9358 2.3062 -2.3665 0.9797
-4.0104 2.1586 -2.3627 0.9797
-4.2035 1.7034 -2.3529 0.9798
-4.2575 1.5481 -2.3502 0.9798
-4.3063 1.3913 -2.3477 0.9798
-4.3881 1.0738 -2.3436 0.9798
-4.4710 0.5901 -2.3396 0.9799
-4.5065 -0.0622 -2.3381 0.9799
-0.7842 4.5516 -2.5296 0.9792
-0.9455 4.5052 -2.5213 0.9792
-1.1046 4.4533 -2.5130 0.9793
-1.4152 4.3336 -2.4969 0.9794
-2.0018 4.0338 -2.4664 0.9797
-2.1405 3.9470 -2.4592 0.9797
-2.2757 3.8558 -2.4523 0.9798
-2.5351 3.6607 -2.4388 0.9799
-2.7792 3.4495 -2.4262 0.9800
-2.8953 3.3382 -2.4202 0.9800
-3.0071 3.2234 -2.4145 0.9801
-3.2182 2.9835 -2.4036 0.9802
-3.3172 2.8588 -2.3985 0.9802
-3.5017 2.6007 -2.3890 0.9803
-3.7438 2.1937 -2.3766 0.9804
-3.8150 2.0534 -2.3730 0.9804
-3.8814 1.9111 -2.3696 0.9805
-3.9430 1.7668 -2.3665 0.9805
-4.0512 1.4731 -2.3610 0.9805
-4.1394 1.1735 -2.3566 0.9806
-4.2076 0.8693 -2.3532 0.9806
-4.2714 0.4068 -2.3501 0.9806
-0.4323 4.3922 -2.5481 0.9798
-0.8979 4.2782 -2.5239 0.9800
-1.3446 4.1173 -2.5007 0.9802
-1.4884 4.0537 -2.4932 0.9803
-1.6296 3.9853 -2.4859 0.9803
-2.5297 3.3838 -2.4393 0.9807
-2.6443 3.2820 -2.4334 0.9807
-2.8618 3.0676 -2.4221 0.9808
-2.9646 2.9553 -2.4168 0.9809
-3.1579 2.7215 -2.4069 0.9809
-3.2482 2.6002 -2.4022 0.9810
-3.3342 2.4762 -2.3978 0.9810
-3.5655 2.0893 -2.3860 0.9811
-3.6337 1.9558 -2.3825 0.9811
-3.7560 1.6830 -2.3763 0.9812
-3.8101 1.5440 -2.3735 0.9812
-3.8595 1.4034 -2.3710 0.9812
-3.9439 1.1180 -2.3668 0.9812
-3.9790 0.9737 -2.3650 0.9813
-4.0091 0.8283 -2.3635 0.9813
-4.0548 0.5351 -2.3613 0.9813
