ply
format ascii 1.0
element vertex 610
property float32 x
property float32 y
property float32 z
property float32 I
end_header
2.2093 -41.2818 7.2895 0.8454
8.4157 -42.4298 7.6273 0.8389
10.8264 -39.5846 7.2362 0.8465
12.9037 -41.3400 7.6362 0.8387
8.0183 -22.8024 4.2620 0.9065
8.0109 -20.4283 3.8691 0.9147
8.1227 -17.0371 3.3281 0.9262
8.1460 -15.6290 3.1077 0.9309
8.1667 -14.3947 2.9182 0.9350
8.1851 -13.3013 2.7539 0.9385
8.2018 -12.3235 2.6102 0.9416
8.2170 -11.4419 2.4839 0.9444
8.7836 -11.3552 2.5313 0.9434
10.1838 -11.3897 2.6940 0.9398
10.9555 -11.4087 2.7890 0.9378
12.7229 -10.6925 2.9304 0.9347
14.6678 -11.4620 3.2823 0.9272
7.4105 -4.2526 1.5065 0.9659
7.4175 -3.9126 1.4787 0.9665
7.4243 -3.5846 1.4537 0.9671
12.6395 -46.2142 7.3398 0.8238
8.1006 -16.9908 2.8836 0.9267
8.1843 -12.2973 2.2630 0.9420
8.7837 -11.3555 2.1993 0.9436
9.4621 -11.3722 2.2663 0.9419
10.1840 -11.3899 2.3406 0.9400
11.7852 -11.4294 2.5150 0.9357
12.6811 -11.4514 2.6175 0.9332
7.4003 -4.2468 1.3071 0.9661
7.4074 -3.9073 1.2830 0.9667
7.4144 -3.5798 1.2613 0.9672
7.8573 -48.6208 6.4136 0.8198
8.3751 -35.5472 4.7557 0.8630
9.7995 -35.8303 4.8372 0.8608
8.0141 -20.4364 2.8586 0.9153
8.1182 -14.3094 2.1424 0.9358
9.5308 -11.4548 1.9405 0.9417
10.1842 -11.3902 1.9897 0.9402
12.6814 -11.4517 2.2251 0.9334
13.6547 -11.4757 2.3227 0.9306
7.3901 -4.2409 1.1095 0.9662
7.3974 -3.9021 1.0891 0.9668
7.4045 -3.5751 1.0707 0.9674
7.9838 -33.8863 3.7384 0.8693
9.3342 -34.1289 3.7994 0.8673
10.7342 -34.3897 3.8685 0.8651
7.9458 -22.5962 2.5721 0.9081
8.0258 -18.5011 2.1656 0.9221
8.0573 -16.9000 2.0105 0.9274
8.0965 -13.1573 1.6589 0.9397
8.1499 -12.2456 1.5796 0.9425
8.1676 -11.3730 1.5036 0.9452
9.5310 -11.4550 1.6002 0.9418
10.1845 -11.3904 1.6407 0.9404
10.9563 -11.4095 1.6986 0.9383
11.7857 -11.4299 1.7630 0.9361
13.6551 -11.4760 1.9154 0.9308
7.3950 -45.7602 3.9240 0.8302
9.2333 -33.7602 2.9628 0.8689
8.0030 -18.4484 1.7023 0.9224
8.1232 -14.3181 1.3935 0.9361
8.1330 -12.2202 1.2426 0.9428
8.1514 -11.3505 1.1830 0.9454
12.6795 -11.4500 1.4462 0.9337
7.3700 -4.2294 0.7193 0.9665
7.3851 -3.5657 0.6942 0.9676
7.9467 -33.7290 2.1488 0.8703
7.8783 -25.2397 1.6396 0.8995
7.9390 -22.5771 1.4840 0.9085
8.0149 -16.8110 1.1549 0.9281
8.1044 -14.2850 1.0185 0.9363
8.0408 -13.0667 0.9514 0.9404
8.7845 -11.3564 0.8903 0.9441
7.3679 -3.8865 0.5166 0.9672
7.3755 -3.5611 0.5079 0.9677
1.5866 -17.7700 0.7035 0.9311
7.9468 -33.7295 1.3664 0.8705
6.8976 -25.2198 1.0310 0.9006
7.8795 -25.2437 1.0427 0.8995
7.9158 -20.1857 0.8550 0.9169
7.9579 -18.3444 0.7885 0.9231
8.0775 -13.1264 0.6077 0.9402
8.7847 -11.3566 0.5661 0.9441
10.1851 -11.3912 0.6025 0.9407
10.9571 -11.4102 0.6238 0.9386
11.7866 -11.4307 0.6474 0.9364
12.6270 -11.4026 0.6709 0.9342
1.5887 -17.7935 0.3018 0.9310
7.2944 -45.1381 0.7724 0.8328
7.9469 -33.7301 0.5854 0.8705
6.8987 -25.2237 0.4417 0.9007
7.8807 -25.2477 0.4468 0.8996
7.8918 -20.1244 0.3651 0.9172
7.9356 -18.2930 0.3368 0.9233
7.8030 -12.6804 0.2515 0.9422
8.1446 -11.3411 0.2359 0.9457
10.1853 -11.3914 0.2581 0.9407
11.7868 -11.4310 0.2774 0.9364
7.3486 -3.8763 0.1403 0.9673
7.3565 -3.5519 0.1380 0.9678
1.5929 -17.8412 -0.1008 0.9309
5.9710 -36.9485 -0.2107 0.8610
7.4325 -37.4730 -0.2151 0.8583
6.8997 -25.2277 -0.1473 0.9007
6.4655 -20.7140 -0.1222 0.9169
7.8139 -22.2213 -0.1326 0.9101
7.8679 -20.0636 -0.1213 0.9174
7.9134 -18.2420 -0.1120 0.9235
7.8147 -14.9935 -0.0952 0.9346
7.6873 -13.5498 -0.0877 0.9396
7.5807 -12.3191 -0.0814 0.9438
7.5588 -11.3574 -0.0768 0.9469
8.1448 -11.3413 -0.0786 0.9457
9.4635 -11.3739 -0.0833 0.9425
10.1856 -11.3917 -0.0860 0.9407
10.9576 -11.4108 -0.0891 0.9387
11.7871 -11.4312 -0.0924 0.9364
7.3306 -4.2068 -0.0476 0.9668
7.3389 -3.8712 -0.0467 0.9674
7.3470 -3.5473 -0.0459 0.9679
7.3899 -37.2583 -1.0696 0.8590
6.9008 -25.2316 -0.7366 0.9006
2.5203 -6.4270 -0.1944 0.9728
3.5332 -8.1449 -0.2500 0.9651
7.9319 -16.6369 -0.5190 0.9289
7.9979 -14.0974 -0.4564 0.9372
8.0729 -13.1190 -0.4337 0.9402
8.7852 -11.3573 -0.4043 0.9442
9.4222 -11.3242 -0.4148 0.9428
10.1858 -11.3920 -0.4303 0.9407
11.7874 -11.4315 -0.4624 0.9364
13.6572 -11.4777 -0.5023 0.9311
7.3208 -4.2012 -0.2377 0.9668
7.3375 -3.5427 -0.2294 0.9679
-9.4948 -40.3322 -2.1013 0.8471
-5.6419 -45.0996 -2.3050 0.8336
5.9171 -36.6155 -1.8810 0.8620
7.3535 -37.0750 -1.9169 0.8595
6.0249 -25.5720 -1.3324 0.9001
6.9019 -25.2355 -1.3268 0.9005
2.5104 -8.0427 -0.4273 0.9668
2.5127 -5.7923 -0.3202 0.9750
2.5137 -4.8227 -0.2758 0.9785
2.5140 -4.4312 -0.2584 0.9798
2.5143 -4.0858 -0.2433 0.9810
2.5145 -3.7782 -0.2302 0.9820
2.5147 -3.5016 -0.2186 0.9829
2.5150 -3.0227 -0.1994 0.9844
2.7719 -2.6883 -0.1958 0.9847
9.8700 -8.2949 -0.6538 0.9497
10.6376 -8.3126 -0.6847 0.9474
11.4822 -8.3321 -0.7195 0.9448
-6.0338 -30.4504 -2.2761 0.8829
-4.0318 -32.2291 -2.3815 0.8779
-1.8146 -34.0231 -2.4982 0.8723
-0.6183 -34.9241 -2.5611 0.8693
1.8490 -34.5507 -2.5370 0.8704
2.6579 -21.2154 -1.5677 0.9178
5.8464 -36.1777 -2.6870 0.8633
6.0121 -25.5179 -1.9223 0.9002
2.5063 -5.2569 -0.4270 0.9769
2.5072 -4.8103 -0.3977 0.9785
2.5096 -3.4945 -0.3155 0.9829
2.5104 -3.0171 -0.2878 0.9844
2.5042 -2.6077 -0.2651 0.9856
2.5042 -2.1046 -0.2398 0.9870
2.5042 -1.9569 -0.2330 0.9873
2.5041 -1.8171 -0.2269 0.9877
2.5041 -1.6845 -0.2213 0.9880
2.5040 -1.5580 -0.2162 0.9882
2.5040 -1.4370 -0.2117 0.9885
2.5039 -1.3208 -0.2076 0.9887
2.5038 -1.2089 -0.2039 0.9889
-3.1344 -25.0553 -2.4242 0.9035
-2.2824 -25.6153 -2.4689 0.9018
0.4581 -25.6117 -2.4592 0.9022
1.3963 -26.0910 -2.5085 0.9003
4.4328 -27.4300 -2.6676 0.8944
5.5214 -27.8374 -2.7246 0.8922
5.8430 -24.8002 -2.4461 0.9027
6.2023 -22.6777 -2.2571 0.9099
2.4934 -7.0908 -0.7216 0.9702
2.4978 -5.7578 -0.6026 0.9751
2.4993 -5.2424 -0.5576 0.9769
2.5029 -4.0673 -0.4585 0.9810
2.5051 -3.2385 -0.3931 0.9837
2.4998 -2.7958 -0.3601 0.9850
2.5002 -2.4247 -0.3344 0.9861
2.5003 -2.2579 -0.3234 0.9866
2.5006 -1.8146 -0.2966 0.9877
2.5006 -1.6821 -0.2893 0.9880
2.5006 -1.4350 -0.2768 0.9885
2.5006 -1.3191 -0.2714 0.9887
2.5006 -1.2074 -0.2666 0.9889
-4.5296 -19.2411 -2.3480 0.9235
-3.8967 -19.6646 -2.3813 0.9224
-3.2408 -20.0771 -2.4157 0.9213
-2.5617 -20.4774 -2.4514 0.9202
-1.1327 -21.2379 -2.5264 0.9179
0.3691 -20.6365 -2.4517 0.9202
1.8954 -21.2284 -2.5317 0.9177
4.3575 -21.9694 -2.6605 0.9137
5.2237 -22.1716 -2.7058 0.9123
5.6124 -20.5210 -2.5271 0.9179
2.4845 -7.0654 -0.8897 0.9703
2.4877 -6.3437 -0.8094 0.9729
2.4903 -5.7406 -0.7433 0.9751
2.4958 -4.3992 -0.6008 0.9798
2.4993 -3.4802 -0.5090 0.9829
2.4954 -2.7909 -0.4447 0.9850
2.4958 -2.5990 -0.4280 0.9856
2.4964 -2.2543 -0.3996 0.9865
2.4968 -1.9511 -0.3764 0.9873
2.4970 -1.8120 -0.3665 0.9876
2.4971 -1.6798 -0.3575 0.9880
2.4972 -1.5537 -0.3494 0.9882
-1.5670 -17.5858 -2.5016 0.9312
-0.9524 -17.8574 -2.5338 0.9303
-0.3206 -18.1135 -2.5669 0.9294
1.5773 -17.6658 -2.5130 0.9309
2.2350 -17.8394 -2.5474 0.9299
2.9079 -17.9937 -2.5826 0.9290
3.5955 -18.1276 -2.6185 0.9281
4.2975 -18.2402 -2.6552 0.9271
5.0133 -18.3302 -2.6926 0.9261
2.4707 -7.9154 -1.1749 0.9671
2.4756 -7.0401 -1.0574 0.9703
2.4796 -6.3230 -0.9623 0.9729
2.4828 -5.7234 -0.8840 0.9751
2.4855 -5.2133 -0.8183 0.9769
2.4898 -4.3885 -0.7149 0.9798
2.4929 -3.7457 -0.6375 0.9820
2.4942 -3.4731 -0.6059 0.9829
2.4953 -3.2259 -0.5779 0.9837
2.4963 -3.0002 -0.5530 0.9844
2.4911 -2.7861 -0.5295 0.9850
2.4916 -2.5946 -0.5097 0.9856
2.4928 -2.0950 -0.4614 0.9869
2.4932 -1.9482 -0.4483 0.9873
2.4934 -1.8094 -0.4365 0.9876
2.4936 -1.6774 -0.4258 0.9879
2.4940 -1.3156 -0.3995 0.9887
-2.8693 -14.4804 -2.4319 0.9419
-2.3773 -14.7280 -2.4577 0.9413
-1.8719 -14.9628 -2.4842 0.9407
-0.8209 -15.3918 -2.5392 0.9394
-0.2758 -15.5844 -2.5678 0.9388
0.8016 -14.9780 -2.4710 0.9410
3.6468 -15.4781 -2.6197 0.9376
2.4667 -7.0148 -1.2250 0.9703
2.4754 -5.7061 -1.0247 0.9751
2.4786 -5.1988 -0.9488 0.9769
2.4813 -4.7608 -0.8844 0.9785
2.4837 -4.3779 -0.8292 0.9798
2.4857 -4.0395 -0.7814 0.9810
2.4875 -3.7376 -0.7396 0.9820
2.4890 -3.4659 -0.7030 0.9829
2.4904 -3.2195 -0.6705 0.9836
2.4916 -2.9945 -0.6418 0.9843
2.4874 -2.5903 -0.5916 0.9855
2.4890 -2.0918 -0.5356 0.9869
2.4895 -1.9454 -0.5205 0.9873
2.4898 -1.8068 -0.5068 0.9876
2.4901 -1.6751 -0.4944 0.9879
2.4904 -1.5495 -0.4832 0.9882
2.4906 -1.4293 -0.4731 0.9884
2.4908 -1.3139 -0.4639 0.9886
2.4909 -1.2027 -0.4557 0.9888
-2.5320 -12.7781 -2.4485 0.9484
-2.0952 -12.9803 -2.4714 0.9479
-1.6476 -13.1705 -2.4948 0.9474
-0.7207 -13.5122 -2.5434 0.9464
-0.2418 -13.6626 -2.5684 0.9459
0.7007 -13.0938 -2.4646 0.9480
1.1779 -13.1928 -2.4896 0.9475
2.1565 -13.3441 -2.5407 0.9465
3.1640 -13.4293 -2.5933 0.9454
2.4509 -7.8521 -1.5461 0.9671
2.4633 -6.2816 -1.2682 0.9729
2.4679 -5.6889 -1.1656 0.9751
2.4717 -5.1843 -1.0795 0.9769
2.4749 -4.7483 -1.0065 0.9784
2.4777 -4.3671 -0.9438 0.9798
2.4800 -4.0302 -0.8895 0.9809
2.4821 -3.7294 -0.8420 0.9819
2.4839 -2.4090 -0.6504 0.9860
2.4857 -1.9424 -0.5930 0.9872
2.4862 -1.8041 -0.5774 0.9876
2.4869 -1.5473 -0.5505 0.9881
2.4872 -1.4273 -0.5390 0.9884
2.4877 -1.2011 -0.5192 0.9888
-2.6468 -11.2434 -2.4416 0.9539
-2.2636 -11.4237 -2.4617 0.9535
-1.8713 -11.5930 -2.4823 0.9531
-1.4700 -11.7509 -2.5033 0.9527
-0.2151 -12.1513 -2.5689 0.9515
0.2062 -11.5317 -2.4380 0.9539
1.4727 -11.7547 -2.5041 0.9527
2.3468 -11.8320 -2.5498 0.9519
3.2403 -11.8479 -2.5964 0.9510
2.4488 -6.9641 -1.5604 0.9703
2.4604 -5.6716 -1.3068 0.9750
2.4647 -5.1696 -1.2106 0.9769
2.4814 -2.0854 -0.6851 0.9868
2.4825 -1.8015 -0.6484 0.9875
2.4830 -1.6703 -0.6326 0.9878
2.4834 -1.5452 -0.6183 0.9881
-2.0448 -10.3194 -2.4725 0.9577
-1.6890 -10.4640 -2.4911 0.9574
-1.3258 -10.5977 -2.5101 0.9571
-0.9552 -10.7204 -2.5295 0.9567
-0.5777 -10.8315 -2.5493 0.9564
-0.1935 -10.9307 -2.5694 0.9561
0.5584 -10.4338 -2.4557 0.9580
0.9368 -10.4911 -2.4754 0.9576
1.3200 -10.5356 -2.4955 0.9573
1.7077 -10.5670 -2.5157 0.9570
2.4948 -10.5888 -2.5568 0.9563
2.8932 -10.5786 -2.5775 0.9559
2.4312 -7.7889 -1.9177 0.9670
2.4399 -6.9387 -1.7286 0.9702
2.4470 -6.2400 -1.5753 0.9728
2.4528 -5.6543 -1.4485 0.9750
2.4577 -5.1550 -1.3422 0.9768
2.4774 -2.9774 -0.9103 0.9842
2.4747 -2.5770 -0.8397 0.9854
2.4775 -2.0821 -0.7606 0.9868
2.4782 -1.9366 -0.7392 0.9872
2.4795 -1.6679 -0.7023 0.9878
2.4808 -1.3086 -0.6592 0.9885
-1.2061 -9.6415 -2.5158 0.9606
-0.1757 -9.9233 -2.5697 0.9598
0.1682 -9.4020 -2.4347 0.9619
0.5062 -9.4582 -2.4524 0.9616
2.2529 -9.5620 -2.5435 0.9602
2.4310 -6.9132 -1.8974 0.9702
2.4388 -6.2191 -1.7296 0.9728
2.4507 -5.1403 -1.4744 0.9767
2.4553 -4.7108 -1.3754 0.9783
2.4592 -4.3347 -1.2904 0.9796
2.4656 -3.7047 -1.1522 0.9818
2.4682 -3.4369 -1.0956 0.9827
2.4705 -3.1938 -1.0455 0.9835
2.4690 -2.7614 -0.9591 0.9848
2.4727 -2.2329 -0.8626 0.9863
2.4736 -2.0789 -0.8366 0.9867
2.4759 -1.6655 -0.7726 0.9877
2.4774 -1.3068 -0.7252 0.9885
2.4778 -1.1964 -0.7124 0.9887
-1.7090 -8.6245 -2.4890 0.9641
-1.4098 -8.7344 -2.5047 0.9639
-0.4804 -9.0064 -2.5533 0.9632
-0.1607 -9.0769 -2.5700 0.9630
0.1537 -8.5948 -2.4335 0.9649
0.7747 -8.6762 -2.4659 0.9644
2.3758 -8.6867 -2.5495 0.9633
2.4219 -6.8876 -2.0669 0.9701
2.4306 -6.1981 -1.8847 0.9727
2.4487 -4.6981 -1.4998 0.9782
2.4601 -3.6963 -1.2570 0.9817
2.4655 -3.1873 -1.1408 0.9834
2.4661 -2.5681 -1.0079 0.9853
2.4686 -2.2293 -0.9416 0.9863
2.4697 -2.0756 -0.9133 0.9867
2.4706 -1.9307 -0.8876 0.9870
2.4715 -1.7934 -0.8645 0.9874
2.4722 -1.6630 -0.8435 0.9877
2.4740 -1.3050 -0.7918 0.9884
-1.8486 -7.8524 -2.4813 0.9668
-1.5771 -7.9586 -2.4955 0.9666
-1.3004 -8.0562 -2.5100 0.9664
-1.0189 -8.1448 -2.5247 0.9662
-0.7328 -8.2244 -2.5397 0.9660
-0.4424 -8.2946 -2.5549 0.9658
-0.1479 -8.3551 -2.5703 0.9656
0.1415 -7.9072 -2.4325 0.9674
0.7120 -7.9736 -2.4623 0.9671
1.5863 -7.9978 -2.5079 0.9665
1.8813 -7.9850 -2.5233 0.9663
2.4013 -7.6933 -2.4789 0.9668
2.4223 -6.1769 -2.0408 0.9726
2.4300 -5.6017 -1.8781 0.9748
2.4365 -5.1105 -1.7414 0.9766
2.4628 -2.9600 -1.1844 0.9840
2.4600 -2.7513 -1.1352 0.9847
2.4617 -2.5635 -1.0932 0.9852
2.4657 -2.0722 -0.9907 0.9866
2.4668 -1.9276 -0.9629 0.9870
2.4705 -1.3032 -0.8591 0.9884
2.4711 -1.1931 -0.8440 0.9886
-1.7151 -7.2854 -2.4879 0.9689
-1.4626 -7.3808 -2.5011 0.9688
-0.9441 -7.5471 -2.5283 0.9684
0.6579 -7.3686 -2.4591 0.9693
1.1936 -7.3861 -2.4870 0.9690
1.4639 -7.3806 -2.5011 0.9688
1.7353 -7.3653 -2.5153 0.9686
2.0075 -7.3400 -2.5295 0.9684
2.2801 -7.3047 -2.5437 0.9683
2.4038 -6.8359 -2.4087 0.9699
2.4139 -6.1556 -2.1979 0.9725
2.4293 -5.0955 -1.8765 0.9765
2.4522 -3.4146 -1.3974 0.9824
2.4579 -2.9540 -1.2774 0.9839
2.4554 -2.7462 -1.2245 0.9846
2.4589 -2.3847 -1.1386 0.9857
2.4617 -2.0689 -1.0689 0.9865
2.4639 -1.7879 -1.0119 0.9872
2.4657 -1.5341 -0.9653 0.9878
2.4664 -1.4154 -0.9453 0.9881
2.4670 -1.3014 -0.9272 0.9883
-1.5979 -6.7878 -2.4937 0.9708
-1.1223 -6.9530 -2.5186 0.9705
-0.1272 -7.1874 -2.5707 0.9699
0.3652 -6.8232 -2.4435 0.9714
0.8584 -6.8514 -2.4693 0.9711
1.1074 -6.8523 -2.4822 0.9709
1.6086 -6.8274 -2.5084 0.9706
1.8601 -6.8012 -2.5215 0.9705
2.1118 -6.7657 -2.5346 0.9703
2.3633 -6.7208 -2.5477 0.9702
2.4055 -6.1342 -2.3563 0.9724
2.4341 -4.2904 -1.7640 0.9793
2.4389 -3.9634 -1.6642 0.9804
2.4431 -3.6709 -1.5769 0.9814
2.4468 -3.4070 -1.5000 0.9823
2.4501 -3.1673 -1.4320 0.9831
2.4508 -2.7410 -1.3149 0.9845
2.4528 -2.5543 -1.2664 0.9851
2.4546 -2.3805 -1.2228 0.9856
2.4562 -2.2181 -1.1835 0.9860
2.4601 -1.7852 -1.0870 0.9872
2.4620 -1.5318 -1.0369 0.9878
2.4628 -1.4134 -1.0154 0.9880
2.4635 -1.2995 -0.9960 0.9882
-1.0488 -6.4975 -2.5222 0.9722
-0.3556 -6.6668 -2.5584 0.9718
0.1134 -6.3403 -2.4301 0.9732
0.5695 -6.3781 -2.4539 0.9729
1.0316 -6.3835 -2.4780 0.9727
1.4975 -6.3556 -2.5023 0.9724
1.7310 -6.3290 -2.5145 0.9723
1.9645 -6.2937 -2.5266 0.9722
2.1977 -6.2497 -2.5387 0.9720
2.3970 -6.1126 -2.5161 0.9723
2.4067 -5.5479 -2.3175 0.9744
2.4328 -3.9535 -1.7789 0.9803
2.4412 -3.3994 -1.6038 0.9822
2.4479 -2.9420 -1.4667 0.9837
2.4483 -2.5496 -1.3546 0.9850
2.4520 -2.2142 -1.2661 0.9859
2.4562 -1.7824 -1.1630 0.9871
2.4573 -1.6530 -1.1349 0.9874
2.4583 -1.5295 -1.1095 0.9877
2.4592 -1.4112 -1.0866 0.9879
-1.4017 -5.9541 -2.5035 0.9739
-0.9832 -6.0915 -2.5254 0.9737
-0.3330 -6.2446 -2.5594 0.9733
0.1062 -5.9352 -2.4295 0.9747
0.7481 -5.9713 -2.4630 0.9743
0.9645 -5.9681 -2.4743 0.9742
1.1816 -5.9571 -2.4856 0.9741
1.8343 -5.8766 -2.5196 0.9737
2.3988 -5.5296 -2.4669 0.9743
2.4074 -5.0495 -2.2895 0.9761
2.4148 -4.6331 -2.1383 0.9777
2.4212 -4.2676 -2.0082 0.9790
2.4315 -3.6534 -1.7961 0.9812
2.4357 -3.3916 -1.7090 0.9821
2.4395 -3.1536 -1.6318 0.9829
2.4428 -2.9358 -1.5631 0.9836
2.4437 -2.5448 -1.4440 0.9849
2.4477 -2.2104 -1.3498 0.9858
2.4494 -2.0585 -1.3095 0.9863
2.4535 -1.6504 -1.2102 0.9873
2.4545 -1.5272 -1.1831 0.9876
2.4555 -1.4091 -1.1587 0.9878
2.4563 -1.2957 -1.1366 0.9881
2.4571 -1.1863 -1.1167 0.9883
-1.3184 -5.6007 -2.5076 0.9752
-1.1230 -5.6671 -2.5178 0.9751
-0.7230 -5.7803 -2.5388 0.9749
-0.5191 -5.8267 -2.5494 0.9748
0.2992 -5.5892 -2.4394 0.9759
0.5000 -5.5990 -2.4498 0.9758
0.7018 -5.6016 -2.4604 0.9757
0.9046 -5.5971 -2.4709 0.9756
1.1078 -5.5852 -2.4815 0.9755
1.3114 -5.5659 -2.4921 0.9754
1.9211 -5.4632 -2.5239 0.9750
2.1230 -5.4138 -2.5344 0.9749
2.4146 -4.2560 -2.1326 0.9789
2.4255 -3.6445 -1.9080 0.9811
2.4300 -3.3837 -1.8156 0.9820
2.4340 -3.1466 -1.7338 0.9828
2.4376 -2.9296 -1.6610 0.9835
2.4391 -2.5400 -1.5347 0.9848
2.4433 -2.2064 -1.4348 0.9857
2.4451 -2.0550 -1.3920 0.9862
2.4468 -1.9120 -1.3533 0.9865
2.4482 -1.7766 -1.3183 0.9869
2.4495 -1.6478 -1.2866 0.9872
2.4517 -1.4070 -1.2319 0.9877
2.4527 -1.2938 -1.2085 0.9880
-1.0586 -5.3424 -2.5210 0.9763
-0.8712 -5.3976 -2.5308 0.9762
-0.6813 -5.4465 -2.5408 0.9761
-0.4890 -5.4889 -2.5508 0.9760
-0.0983 -5.5539 -2.5712 0.9758
0.0939 -5.2455 -2.4285 0.9771
0.4704 -5.2679 -2.4481 0.9770
0.8506 -5.2633 -2.4679 0.9768
1.0415 -5.2508 -2.4779 0.9767
1.4236 -5.2049 -2.4978 0.9765
1.9934 -5.0833 -2.5274 0.9762
2.3679 -4.9666 -2.5469 0.9760
2.4079 -4.2442 -2.2587 0.9787
2.4141 -3.9230 -2.1322 0.9799
2.4195 -3.6354 -2.0214 0.9809
2.4243 -3.3758 -1.9238 0.9818
2.4285 -3.1395 -1.8373 0.9827
2.4343 -2.5350 -1.6268 0.9846
2.4409 -2.0513 -1.4758 0.9860
2.4426 -1.9087 -1.4349 0.9864
2.4442 -1.7736 -1.3978 0.9868
2.4489 -1.2918 -1.2816 0.9879
2.4498 -1.1829 -1.2592 0.9881
-1.1748 -4.9903 -2.5148 0.9774
-0.2781 -5.2149 -2.5616 0.9770
-0.0928 -5.2412 -2.5713 0.9769
0.0885 -4.9490 -2.4280 0.9782
0.4436 -4.9678 -2.4465 0.9780
1.1613 -4.9289 -2.4839 0.9777
1.3410 -4.9029 -2.4933 0.9776
1.5202 -4.8702 -2.5026 0.9775
1.6988 -4.8309 -2.5119 0.9774
2.2280 -4.6730 -2.5394 0.9772
2.4077 -3.9126 -2.2535 0.9797
2.4185 -3.3676 -2.0338 0.9817
2.4230 -3.1323 -1.9425 0.9825
2.4269 -2.9168 -1.8613 0.9832
2.4296 -2.5300 -1.7206 0.9845
2.4321 -2.3587 -1.6619 0.9850
2.4344 -2.1984 -1.6090 0.9855
2.4365 -2.0477 -1.5612 0.9859
2.4384 -1.9054 -1.5179 0.9863
2.4415 -1.6424 -1.4434 0.9870
2.4428 -1.5199 -1.4113 0.9873
2.4451 -1.2898 -1.3560 0.9878
-1.1121 -4.7243 -2.5179 0.9784
-0.9466 -4.7773 -2.5265 0.9783
-0.6087 -4.8663 -2.5442 0.9781
-0.2630 -4.9320 -2.5623 0.9780
0.0837 -4.6787 -2.4276 0.9791
0.2510 -4.6895 -2.4363 0.9791
0.4192 -4.6945 -2.4451 0.9790
0.9269 -4.6732 -2.4716 0.9788
1.2658 -4.6282 -2.4892 0.9786
1.4348 -4.5964 -2.4980 0.9785
1.7703 -4.5141 -2.5155 0.9784
1.9363 -4.4635 -2.5241 0.9783
2.3942 -4.2200 -2.5171 0.9784
2.4011 -3.9020 -2.3768 0.9796
2.4072 -3.6169 -2.2540 0.9806
2.4173 -3.1250 -2.0496 0.9824
2.4215 -2.9103 -1.9641 0.9831
2.4247 -2.5249 -1.8160 0.9843
2.4298 -2.1942 -1.6984 0.9854
2.4321 -2.0439 -1.6481 0.9858
2.4340 -1.9021 -1.6025 0.9862
2.4358 -1.7675 -1.5613 0.9865
2.4374 -1.6396 -1.5239 0.9869
2.4401 -1.4003 -1.4595 0.9874
2.4412 -1.2877 -1.4318 0.9876
2.4422 -1.1792 -1.4069 0.9879
-1.0546 -4.4799 -2.5207 0.9792
-0.7382 -4.5734 -2.5373 0.9791
-0.4139 -4.6451 -2.5542 0.9790
-0.2492 -4.6726 -2.5628 0.9789
0.0793 -4.4309 -2.4272 0.9800
0.2377 -4.4404 -2.4355 0.9799
0.5566 -4.4424 -2.4521 0.9798
0.7167 -4.4348 -2.4605 0.9797
1.0373 -4.4023 -2.4772 0.9796
1.5154 -4.3096 -2.5020 0.9794
1.6733 -4.2669 -2.5103 0.9793
1.8299 -4.2183 -2.5184 0.9792
1.9852 -4.1638 -2.5265 0.9792
2.1388 -4.1034 -2.5344 0.9791
2.2905 -4.0373 -2.5423 0.9791
2.4009 -3.6074 -2.3734 0.9804
2.4115 -3.1175 -2.1587 0.9822
2.4160 -2.9036 -2.0689 0.9829
2.4226 -2.3494 -1.8483 0.9847
2.4252 -2.1900 -1.7897 0.9852
2.4347 -1.5148 -1.5705 0.9870
2.4361 -1.3980 -1.5383 0.9873
-1.0015 -4.2543 -2.5234 0.9800
-0.7008 -4.3416 -2.5391 0.9799
-0.5476 -4.3776 -2.5471 0.9798
0.5277 -4.2114 -2.4505 0.9806
0.6793 -4.2035 -2.4584 0.9805
1.2850 -4.1168 -2.4899 0.9803
1.4352 -4.0812 -2.4977 0.9802
1.5844 -4.0401 -2.5055 0.9802
1.8790 -3.9411 -2.5208 0.9800
2.4103 -2.8968 -2.1757 0.9827
2.4177 -2.3446 -1.9444 0.9846
2.4229 -2.0362 -1.8272 0.9855
2.4305 -1.5122 -1.6527 0.9869
