ply
format ascii 1.0
element vertex 497
property float32 x
property float32 y
property float32 z
property float32 I
end_header
-34.3346 -17.2926 6.7786 0.8554
-34.3521 -17.3014 5.8923 0.8559
-25.7246 -30.2697 5.1729 0.8519
-34.3984 -17.3247 4.1358 0.8565
-34.4334 -17.3423 3.2637 0.8566
-25.7112 -30.2538 3.3610 0.8527
-34.4683 -17.3600 2.3932 0.8567
-25.7215 -30.2660 2.4630 0.8528
-34.5033 -17.3776 1.5233 0.8567
-25.7359 -30.2829 1.5671 0.8529
-34.5382 -17.3951 0.6532 0.8567
-25.7654 -30.3176 0.6721 0.8529
-44.4772 -9.5790 -0.2562 0.8336
-44.4128 -13.0034 -0.2605 0.8310
-44.3706 -14.7616 -0.2633 0.8294
-41.6081 -19.0932 -0.2577 0.8327
-41.4550 -22.8039 -0.2664 0.8276
-41.2653 -26.7774 -0.2770 0.8214
-25.7949 -30.3524 -0.2243 0.8527
-31.9899 -3.3094 -0.9056 0.8792
-31.8073 -6.8503 -0.9162 0.8779
-31.6069 -9.2540 -0.9273 0.8765
-31.3396 -11.7076 -0.9420 0.8747
-31.1795 -12.9577 -0.9507 0.8736
-30.1782 -15.1993 -0.9514 0.8735
-28.3562 -18.4006 -0.9518 0.8735
-27.7936 -21.0545 -0.9818 0.8698
-27.1302 -23.8431 -1.0170 0.8654
-26.3529 -26.7939 -1.0582 0.8604
-25.4025 -29.8907 -1.1045 0.8547
-24.3438 -33.2686 -1.1608 0.8479
-23.3532 -37.3307 -1.2399 0.8384
-24.9026 -3.4949 -1.2753 0.9042
-24.8340 -4.4109 -1.2791 0.9039
-24.5261 -7.1809 -1.2960 0.9027
-24.2327 -9.0527 -1.3119 0.9016
-23.8651 -10.9513 -1.3316 0.9002
-23.6521 -11.9124 -1.3430 0.8994
-23.4188 -12.8825 -1.3555 0.8985
-22.5900 -15.8544 -1.3996 0.8954
-22.2678 -16.8685 -1.4167 0.8941
-21.9211 -17.8960 -1.4351 0.8928
-20.7215 -21.0683 -1.4987 0.8884
-19.7753 -23.2692 -1.5487 0.8849
-18.1021 -26.7248 -1.6370 0.8787
-16.0721 -30.4011 -1.7440 0.8713
-14.4841 -32.9976 -1.8276 0.8656
-13.6097 -34.3457 -1.8736 0.8625
-12.6763 -35.7300 -1.9227 0.8591
-11.6795 -37.1531 -1.9751 0.8556
-10.6143 -38.6178 -2.0311 0.8518
-9.4751 -40.1268 -2.0910 0.8478
-8.2561 -41.6836 -2.1550 0.8435
-6.9503 -43.2915 -2.2236 0.8389
-5.5501 -44.9544 -2.2971 0.8341
-4.0472 -46.6766 -2.3760 0.8289
-20.4474 -2.1153 -1.5073 0.9209
-20.3962 -2.8625 -1.5102 0.9207
-20.1454 -5.1113 -1.5239 0.9200
-20.0288 -5.8641 -1.5302 0.9197
-19.8955 -6.6190 -1.5374 0.9193
-19.7450 -7.3762 -1.5455 0.9189
-19.5771 -8.1359 -1.5545 0.9185
-19.1875 -9.6638 -1.5752 0.9174
-18.9650 -10.4325 -1.5871 0.9168
-17.8793 -13.5441 -1.6446 0.9140
-17.5560 -14.3324 -1.6617 0.9131
-17.2106 -15.1253 -1.6800 0.9122
-16.4504 -16.7256 -1.7201 0.9102
-14.6273 -19.9898 -1.8162 0.9054
-13.5477 -21.6562 -1.8730 0.9026
-12.9616 -22.4986 -1.9038 0.9011
-12.3428 -23.3470 -1.9364 0.8995
-11.6898 -24.2015 -1.9707 0.8978
-9.5088 -26.8022 -2.0852 0.8922
-8.7018 -27.6811 -2.1276 0.8901
-6.0116 -30.3516 -2.2687 0.8833
-17.3105 -1.7908 -1.6708 0.9325
-17.2620 -2.4226 -1.6735 0.9324
-17.0259 -4.3198 -1.6864 0.9318
-16.9166 -4.9529 -1.6923 0.9316
-16.7917 -5.5864 -1.6990 0.9314
-16.4945 -6.8548 -1.7149 0.9307
-15.7030 -9.3971 -1.7569 0.9291
-15.4625 -10.0338 -1.7696 0.9286
-15.2041 -10.6708 -1.7833 0.9281
-14.3185 -12.5837 -1.8301 0.9263
-12.8619 -15.1344 -1.9068 0.9233
-12.4450 -15.7712 -1.9287 0.9224
-12.0058 -16.4072 -1.9518 0.9216
-11.5435 -17.0422 -1.9761 0.9206
-9.4506 -19.5658 -2.0861 0.9164
-8.8626 -20.1907 -2.1169 0.9152
-6.9294 -22.0428 -2.2183 0.9113
-6.2256 -22.6505 -2.2552 0.9099
-5.4905 -23.2522 -2.2937 0.9085
-4.7233 -23.8471 -2.3339 0.9069
-2.2180 -25.5809 -2.4651 0.9020
-14.9995 -1.5517 -1.7912 0.9411
-14.8950 -2.6455 -1.7970 0.9409
-14.6330 -4.2843 -1.8112 0.9404
-14.3870 -5.3746 -1.8243 0.9400
-14.2421 -5.9188 -1.8321 0.9398
-13.9081 -7.0048 -1.8498 0.9392
-13.2931 -8.6261 -1.8824 0.9382
-13.0569 -9.1638 -1.8948 0.9378
-12.8046 -9.6999 -1.9082 0.9373
-11.2930 -12.3493 -1.9878 0.9348
-10.9384 -12.8711 -2.0065 0.9342
-10.1744 -13.9045 -2.0466 0.9330
-9.3346 -14.9215 -2.0907 0.9316
-8.4158 -15.9190 -2.1389 0.9300
-7.4150 -16.8928 -2.1914 0.9284
-6.3287 -17.8386 -2.2484 0.9266
-5.1537 -18.7508 -2.3099 0.9247
-1.8072 -20.8427 -2.4851 0.9192
-13.1823 -1.8500 -1.8861 0.9476
-12.8844 -3.7723 -1.9022 0.9472
-12.7773 -4.2508 -1.9080 0.9471
-12.5230 -5.2044 -1.9215 0.9467
-12.2150 -6.1521 -1.9379 0.9462
-12.0405 -6.6234 -1.9471 0.9460
-11.6498 -7.5597 -1.9678 0.9454
-11.4335 -8.0244 -1.9792 0.9451
-11.2028 -8.4865 -1.9913 0.9448
-10.4233 -9.8544 -2.0324 0.9437
-9.8289 -10.7483 -2.0637 0.9429
-9.1730 -11.6248 -2.0982 0.9419
-8.8215 -12.0556 -2.1166 0.9414
-8.4540 -12.4810 -2.1359 0.9409
-7.6700 -13.3136 -2.1771 0.9398
-7.2533 -13.7200 -2.1989 0.9392
-4.3933 -15.9841 -2.3488 0.9352
-3.8552 -16.3267 -2.3769 0.9345
-3.2993 -16.6574 -2.4060 0.9337
-2.1334 -17.2803 -2.4670 0.9321
-11.8170 -1.2225 -1.9571 0.9530
-11.7267 -2.0828 -1.9621 0.9529
-11.6636 -2.5120 -1.9655 0.9528
-11.2903 -4.2178 -1.9855 0.9523
-11.1664 -4.6406 -1.9921 0.9522
-10.8817 -5.4806 -2.0072 0.9518
-10.1619 -7.1320 -2.0452 0.9509
-9.9501 -7.5375 -2.0564 0.9507
-9.7253 -7.9396 -2.0682 0.9504
-9.2364 -8.7323 -2.0940 0.9498
-8.9722 -9.1224 -2.1079 0.9495
-8.6946 -9.5078 -2.1225 0.9491
-7.1021 -11.3529 -2.2061 0.9472
-6.3680 -12.0454 -2.2446 0.9463
-5.5774 -12.7064 -2.2860 0.9453
-4.2847 -13.6300 -2.3537 0.9437
-3.8253 -13.9174 -2.3778 0.9432
-2.8636 -14.4581 -2.4281 0.9420
-2.3616 -14.7100 -2.4544 0.9414
-1.3156 -15.1735 -2.5090 0.9401
-10.6727 -1.1041 -2.0168 0.9573
-10.6362 -1.4927 -2.0188 0.9572
-10.5298 -2.2678 -2.0246 0.9571
-10.3787 -3.0387 -2.0327 0.9569
-10.2863 -3.4222 -2.0376 0.9568
-9.8037 -4.9377 -2.0633 0.9563
-9.6546 -5.3110 -2.0711 0.9561
-8.7355 -7.1316 -2.1196 0.9551
-8.5166 -7.4848 -2.1312 0.9549
-8.2860 -7.8337 -2.1433 0.9547
-8.0434 -8.1780 -2.1560 0.9544
-6.9536 -9.5028 -2.2133 0.9532
-6.0096 -10.4314 -2.2628 0.9522
-5.3197 -11.0136 -2.2990 0.9514
-4.9566 -11.2922 -2.3180 0.9510
-4.5815 -11.5621 -2.3376 0.9506
-4.1944 -11.8226 -2.3579 0.9502
-2.9617 -12.5429 -2.4224 0.9489
-2.0817 -12.9666 -2.4684 0.9480
-9.7232 -1.0059 -2.0663 0.9608
-9.6890 -1.3598 -2.0682 0.9608
-9.5897 -2.0653 -2.0736 0.9607
-9.4487 -2.7664 -2.0811 0.9605
-9.3625 -3.1149 -2.0857 0.9605
-9.1589 -3.8063 -2.0965 0.9603
-9.0413 -4.1489 -2.1028 0.9601
-8.9132 -4.4892 -2.1096 0.9600
-8.7746 -4.8268 -2.1169 0.9599
-8.6254 -5.1617 -2.1248 0.9597
-8.2952 -5.8219 -2.1422 0.9594
-8.1141 -6.1467 -2.1517 0.9592
-7.7200 -6.7846 -2.1725 0.9589
-7.5069 -7.0971 -2.1837 0.9586
-6.8032 -8.0052 -2.2207 0.9580
-6.2804 -8.5830 -2.2481 0.9575
-5.7149 -9.1354 -2.2778 0.9569
-5.1067 -9.6597 -2.3097 0.9563
-3.7646 -10.6111 -2.3799 0.9550
-3.4033 -10.8262 -2.3989 0.9547
-2.6508 -11.2261 -2.4382 0.9539
-1.4497 -11.7427 -2.5010 0.9528
-1.0310 -11.8908 -2.5229 0.9524
-8.9219 -0.9230 -2.1080 0.9638
-8.8899 -1.2477 -2.1098 0.9638
-8.8482 -1.5716 -2.1121 0.9637
-8.4939 -3.1731 -2.1310 0.9634
-8.3939 -3.4884 -2.1363 0.9633
-8.1646 -4.1121 -2.1485 0.9631
-8.0352 -4.4201 -2.1553 0.9630
-7.5885 -5.3259 -2.1789 0.9626
-7.4201 -5.6210 -2.1878 0.9625
-7.2419 -5.9122 -2.1972 0.9623
-6.6485 -6.7598 -2.2284 0.9618
-6.4313 -7.0328 -2.2398 0.9616
-5.9676 -7.5627 -2.2641 0.9612
-5.4654 -8.0689 -2.2905 0.9607
-4.3472 -9.0002 -2.3491 0.9598
-4.0444 -9.2140 -2.3649 0.9595
-3.7325 -9.4195 -2.3813 0.9592
-3.4116 -9.6162 -2.3981 0.9589
-2.7436 -9.9820 -2.4330 0.9584
-2.3968 -10.1503 -2.4512 0.9581
-1.3076 -10.5913 -2.5081 0.9571
-0.9291 -10.7156 -2.5279 0.9568
-8.2058 -1.1516 -2.1455 0.9663
-8.1666 -1.4505 -2.1476 0.9663
-7.9945 -2.3407 -2.1568 0.9662
-7.9190 -2.6346 -2.1609 0.9661
-7.8343 -2.9267 -2.1654 0.9660
-7.6377 -3.5048 -2.1758 0.9659
-7.4046 -4.0732 -2.1881 0.9657
-7.2745 -4.3532 -2.1950 0.9656
-7.1353 -4.6302 -2.2023 0.9655
-6.1105 -6.2128 -2.2563 0.9646
-5.9083 -6.4610 -2.2669 0.9645
-5.0119 -7.3993 -2.3139 0.9637
-4.7660 -7.6187 -2.3268 0.9635
-4.5118 -7.8315 -2.3401 0.9633
-4.2490 -8.0373 -2.3539 0.9631
-3.6988 -8.4266 -2.3827 0.9627
-2.8134 -8.9498 -2.4291 0.9620
-2.1851 -9.2540 -2.4619 0.9615
-1.5283 -9.5192 -2.4963 0.9609
-1.1896 -9.6363 -2.5140 0.9607
-0.8447 -9.7425 -2.5320 0.9604
-7.4768 -1.8970 -2.1837 0.9684
-7.4143 -2.1708 -2.1871 0.9684
-7.0787 -3.2483 -2.2049 0.9681
-6.9736 -3.5123 -2.2104 0.9681
-6.6072 -4.2875 -2.2298 0.9678
-6.3208 -4.7882 -2.2449 0.9676
-6.1651 -5.0331 -2.2531 0.9675
-6.0010 -5.2740 -2.2617 0.9673
-5.4592 -5.9699 -2.2902 0.9669
-5.0574 -6.4092 -2.3113 0.9666
-4.8445 -6.6206 -2.3224 0.9665
-3.6632 -7.5841 -2.3843 0.9656
-3.4044 -7.7560 -2.3979 0.9654
-2.5855 -8.2248 -2.4407 0.9648
-1.7066 -8.6166 -2.4867 0.9641
-1.4013 -8.7286 -2.5026 0.9639
-1.0902 -8.8307 -2.5189 0.9637
-0.7736 -8.9227 -2.5354 0.9635
-7.1209 -0.7367 -2.2019 0.9705
-7.0941 -0.9956 -2.2034 0.9705
-7.0593 -1.2538 -2.2053 0.9704
-7.0164 -1.5111 -2.2076 0.9704
-6.9655 -1.7673 -2.2103 0.9704
-6.7644 -2.5270 -2.2211 0.9702
-6.3843 -3.5119 -2.2412 0.9700
-6.2694 -3.7518 -2.2472 0.9699
-6.0159 -4.2221 -2.2606 0.9697
-5.8774 -4.4523 -2.2679 0.9696
-5.4153 -5.1198 -2.2922 0.9693
-5.2460 -5.3338 -2.3011 0.9692
-4.8847 -5.7477 -2.3201 0.9689
-4.6929 -5.9471 -2.3301 0.9688
-4.2873 -6.3295 -2.3514 0.9685
-3.8531 -6.6883 -2.3741 0.9682
-3.6257 -6.8582 -2.3861 0.9681
-3.3914 -7.0213 -2.3983 0.9679
-2.6494 -7.4677 -2.4372 0.9674
-2.1237 -7.7266 -2.4647 0.9670
-1.8521 -7.8436 -2.4789 0.9668
-1.5750 -7.9519 -2.4934 0.9666
-6.6608 -0.6891 -2.2259 0.9722
-6.6025 -1.1727 -2.2291 0.9721
-6.3947 -2.1275 -2.2402 0.9720
-6.3238 -2.3624 -2.2440 0.9719
-6.0659 -3.0551 -2.2576 0.9718
-5.8565 -3.5047 -2.2687 0.9716
-5.4870 -4.1566 -2.2882 0.9714
-5.3492 -4.3670 -2.2954 0.9713
-5.2042 -4.5737 -2.3030 0.9712
-4.8928 -4.9747 -2.3194 0.9710
-4.7265 -5.1686 -2.3281 0.9709
-4.5533 -5.3578 -2.3372 0.9708
-4.3732 -5.5420 -2.3467 0.9707
-4.1863 -5.7211 -2.3565 0.9706
-2.9290 -6.6728 -2.4223 0.9697
-2.6979 -6.8086 -2.4344 0.9696
-2.4612 -6.9373 -2.4468 0.9694
-2.2189 -7.0585 -2.4595 0.9693
-1.7184 -7.2777 -2.4857 0.9690
-1.4607 -7.3751 -2.4991 0.9688
-1.1983 -7.4640 -2.5129 0.9686
-0.9314 -7.5443 -2.5268 0.9685
-0.6603 -7.6156 -2.5410 0.9683
-6.2508 -0.6466 -2.2473 0.9737
-6.2268 -0.8739 -2.2486 0.9736
-6.1116 -1.5506 -2.2548 0.9736
-6.0588 -1.7739 -2.2576 0.9735
-5.9988 -1.9957 -2.2608 0.9735
-5.9316 -2.2159 -2.2644 0.9735
-5.8574 -2.4342 -2.2683 0.9734
-5.7760 -2.6505 -2.2726 0.9734
-5.6875 -2.8646 -2.2773 0.9733
-5.5921 -3.0762 -2.2824 0.9733
-5.2637 -3.6942 -2.2997 0.9731
-5.0103 -4.0904 -2.3130 0.9729
-4.2599 -5.0126 -2.3524 0.9724
-3.7325 -5.5105 -2.3801 0.9721
-3.5444 -5.6658 -2.3899 0.9720
-2.5173 -6.3529 -2.4437 0.9714
-2.0690 -6.5816 -2.4672 0.9711
-1.8374 -6.6851 -2.4793 0.9710
-1.6012 -6.7810 -2.4916 0.9708
-1.3605 -6.8692 -2.5042 0.9707
-1.1157 -6.9495 -2.5170 0.9705
-0.6143 -7.0851 -2.5432 0.9702
-5.8304 -1.0356 -2.2693 0.9750
-5.7940 -1.2479 -2.2713 0.9749
-5.7507 -1.4591 -2.2736 0.9749
-5.7005 -1.6690 -2.2763 0.9749
-5.6436 -1.8776 -2.2793 0.9748
-5.5800 -2.0846 -2.2827 0.9748
-5.5095 -2.2897 -2.2864 0.9748
-5.4324 -2.4928 -2.2905 0.9747
-5.3485 -2.6938 -2.2950 0.9747
-4.9470 -3.4720 -2.3161 0.9744
-4.8304 -3.6592 -2.3223 0.9744
-4.4422 -4.1997 -2.3427 0.9742
-4.3003 -4.3722 -2.3501 0.9741
-4.1522 -4.5406 -2.3579 0.9740
-3.9981 -4.7046 -2.3660 0.9739
-3.6722 -5.0185 -2.3831 0.9737
-3.5006 -5.1681 -2.3921 0.9736
-3.3233 -5.3125 -2.4014 0.9735
-2.9524 -5.5846 -2.4208 0.9733
-2.7590 -5.7120 -2.4309 0.9732
-2.3570 -5.9483 -2.4520 0.9730
-1.4973 -6.3412 -2.4969 0.9725
-1.2719 -6.4217 -2.5087 0.9723
-0.5737 -6.6168 -2.5452 0.9720
-5.5287 -0.7759 -2.2850 0.9762
-5.4659 -1.1772 -2.2884 0.9761
-5.3771 -1.5743 -2.2931 0.9761
-5.2625 -1.9659 -2.2992 0.9760
-5.1956 -2.1592 -2.3028 0.9760
-5.1223 -2.3506 -2.3066 0.9759
-5.0427 -2.5398 -2.3109 0.9759
-4.6617 -3.2718 -2.3309 0.9757
-4.4344 -3.6202 -2.3429 0.9756
-4.3118 -3.7894 -2.3494 0.9755
-3.6115 -4.5768 -2.3861 0.9751
-3.4546 -4.7212 -2.3943 0.9750
-3.1250 -4.9954 -2.4116 0.9749
-2.7748 -5.2488 -2.4300 0.9747
-2.5924 -5.3672 -2.4395 0.9746
-2.2136 -5.5864 -2.4593 0.9744
-2.0175 -5.6868 -2.4696 0.9743
-1.8172 -5.7807 -2.4801 0.9741
-1.6129 -5.8681 -2.4907 0.9740
-1.4046 -5.9488 -2.5016 0.9739
-0.9775 -6.0889 -2.5240 0.9737
-0.7590 -6.1481 -2.5354 0.9736
-5.2483 -0.5429 -2.2995 0.9772
-5.2009 -0.9237 -2.3021 0.9772
-5.1679 -1.1130 -2.3039 0.9772
-5.0833 -1.4883 -2.3084 0.9772
-5.0318 -1.6740 -2.3112 0.9771
-4.9743 -1.8583 -2.3142 0.9771
-4.9106 -2.0408 -2.3176 0.9771
-4.8409 -2.2214 -2.3213 0.9770
-4.5024 -2.9216 -2.3392 0.9769
-4.4031 -3.0902 -2.3444 0.9768
-4.0707 -3.5775 -2.3619 0.9766
-3.4066 -4.3171 -2.3967 0.9763
-3.2580 -4.4525 -2.4045 0.9762
-2.7827 -4.8302 -2.4294 0.9760
-2.6147 -4.9459 -2.4382 0.9759
-2.0844 -5.2603 -2.4660 0.9756
-1.8993 -5.3536 -2.4757 0.9755
-1.5176 -5.5215 -2.4956 0.9753
-1.3214 -5.5959 -2.5059 0.9752
-0.7134 -5.7788 -2.5376 0.9749
-4.9723 -0.5144 -2.3139 0.9782
-4.8582 -1.2326 -2.3201 0.9781
-4.8150 -1.4098 -2.3224 0.9781
-4.7660 -1.5856 -2.3250 0.9781
-4.7111 -1.7599 -2.3279 0.9781
-4.6504 -1.9327 -2.3311 0.9780
-4.5840 -2.1036 -2.3346 0.9780
-4.3507 -2.6036 -2.3470 0.9779
-4.0672 -3.0811 -2.3619 0.9778
-3.6140 -3.6746 -2.3857 0.9775
-3.4878 -3.8140 -2.3923 0.9775
-3.2203 -4.0811 -2.4064 0.9773
-3.0793 -4.2083 -2.4138 0.9773
-2.9336 -4.3311 -2.4214 0.9772
-2.3060 -4.7743 -2.4543 0.9769
-1.6135 -5.1327 -2.4905 0.9766
-1.0575 -5.3394 -2.5196 0.9763
-0.8662 -5.3956 -2.5296 0.9762
-0.4759 -5.4882 -2.5499 0.9760
-4.7189 -0.4882 -2.3271 0.9791
-4.5220 -1.5044 -2.3377 0.9790
-4.4696 -1.6697 -2.3405 0.9790
-4.4118 -1.8335 -2.3436 0.9789
-4.3485 -1.9954 -2.3469 0.9789
-4.2056 -2.3134 -2.3545 0.9788
-4.1260 -2.4691 -2.3586 0.9788
-4.0412 -2.6224 -2.3631 0.9788
-3.9511 -2.7731 -2.3679 0.9787
-3.7556 -3.0660 -2.3781 0.9786
-3.6501 -3.2079 -2.3837 0.9786
-3.4245 -3.4818 -2.3955 0.9785
-3.3043 -3.6134 -2.4018 0.9784
-3.0500 -3.8652 -2.4152 0.9783
-2.7775 -4.1006 -2.4295 0.9782
-2.4878 -4.3184 -2.4446 0.9780
-2.0230 -4.6089 -2.4690 0.9778
-1.6946 -4.7766 -2.4862 0.9777
-1.1774 -4.9864 -2.5132 0.9774
-4.4853 -0.4640 -2.3393 0.9799
-4.4440 -0.7893 -2.3416 0.9799
-4.4153 -0.9509 -2.3431 0.9799
-4.3812 -1.1116 -2.3449 0.9798
-4.3418 -1.2712 -2.3470 0.9798
-4.2471 -1.5866 -2.3521 0.9798
-4.0657 -2.0477 -2.3617 0.9797
-3.9950 -2.1976 -2.3654 0.9797
-3.8381 -2.4906 -2.3737 0.9796
-3.6614 -2.7736 -2.3830 0.9795
-3.4652 -3.0454 -2.3933 0.9794
-3.3600 -3.1766 -2.3988 0.9794
-3.2502 -3.3046 -2.4046 0.9793
-3.0168 -3.5499 -2.4168 0.9792
-2.7660 -3.7801 -2.4300 0.9791
-2.6343 -3.8891 -2.4369 0.9791
-2.3587 -4.0943 -2.4513 0.9789
-1.7628 -4.4487 -2.4825 0.9787
-1.4446 -4.5956 -2.4991 0.9785
-1.1147 -4.7208 -2.5164 0.9784
-0.9457 -4.7749 -2.5252 0.9783
-0.6006 -4.8654 -2.5432 0.9782
-4.2517 -0.5967 -2.3515 0.9806
-4.1694 -1.0579 -2.3560 0.9806
-4.1317 -1.2097 -2.3580 0.9806
-3.9305 -1.8037 -2.3686 0.9805
-3.8002 -2.0904 -2.3755 0.9804
-3.6504 -2.3688 -2.3834 0.9803
-3.5684 -2.5044 -2.3877 0.9803
-3.3903 -2.7678 -2.3971 0.9802
-3.2944 -2.8953 -2.4022 0.9802
-3.1940 -3.0197 -2.4074 0.9802
-2.9801 -3.2588 -2.4187 0.9801
-2.8667 -3.3732 -2.4246 0.9800
-2.6277 -3.5910 -2.4371 0.9799
-2.3728 -3.7931 -2.4505 0.9798
-2.2398 -3.8878 -2.4575 0.9797
-2.1031 -3.9782 -2.4646 0.9797
-1.9630 -4.0640 -2.4719 0.9796
-1.8195 -4.1452 -2.4795 0.9796
-1.2150 -4.4208 -2.5111 0.9793
-1.0571 -4.4767 -2.5193 0.9792
-0.7340 -4.5721 -2.5362 0.9791
-0.4027 -4.6448 -2.5535 0.9790
-4.0678 -0.4208 -2.3611 0.9813
-4.0513 -0.5686 -2.3620 0.9813
-4.0299 -0.7158 -2.3631 0.9813
-4.0037 -0.8623 -2.3645 0.9813
-3.8955 -1.2960 -2.3703 0.9812
-3.8498 -1.4382 -2.3727 0.9812
-3.7993 -1.5789 -2.3754 0.9812
-3.7440 -1.7181 -2.3783 0.9812
-3.6840 -1.8554 -2.3815 0.9811
-3.4761 -2.2557 -2.3925 0.9810
-3.3148 -2.5111 -2.4010 0.9810
-3.1359 -2.7560 -2.4104 0.9809
-2.6154 -3.3145 -2.4377 0.9807
-2.3798 -3.5134 -2.4500 0.9806
-2.2565 -3.6071 -2.4565 0.9805
-1.9995 -3.7821 -2.4700 0.9804
-1.8659 -3.8631 -2.4769 0.9804
-1.7293 -3.9397 -2.4841 0.9803
-1.5896 -4.0118 -2.4914 0.9803
-1.4471 -4.0790 -2.4989 0.9802
-1.0038 -4.2514 -2.5220 0.9800
-0.6968 -4.3405 -2.5381 0.9799
-0.3821 -4.4080 -2.5545 0.9798
