ply
format ascii 1.0
element vertex 599
property float32 x
property float32 y
property float32 z
property float32 I
end_header
12.8529 42.9106 7.8984 0.8337
10.5777 40.5654 7.3920 0.8434
9.2298 41.4444 7.4868 0.8416
-26.9623 26.8549 6.7101 0.8568
-27.2403 23.4852 6.3419 0.8641
-27.2894 21.8682 6.1662 0.8676
-27.4088 18.8992 5.8704 0.8735
-27.4204 17.4875 5.7345 0.8763
-27.4595 16.1544 5.6176 0.8786
-23.7938 12.8698 4.7699 0.8959
14.1196 41.6332 6.7348 0.8370
12.4830 41.6755 6.6647 0.8386
9.2732 41.6391 6.5352 0.8415
1.9004 10.2581 1.5982 0.9587
-26.8146 33.1895 6.5365 0.8414
-27.1166 29.0233 6.0849 0.8515
-27.2823 23.5215 5.5184 0.8644
-27.4073 18.8982 5.1000 0.8740
-27.4586 17.5119 4.9892 0.8765
-27.4970 16.1764 4.8873 0.8789
14.1685 41.7771 5.7446 0.8370
10.8654 41.6690 5.6076 0.8405
9.2581 41.5713 5.5461 0.8421
1.9015 10.2640 1.3594 0.9588
-27.0269 31.0961 5.3650 0.8469
-27.2222 29.1363 5.1925 0.8514
-27.2615 27.1529 5.0105 0.8562
-27.3339 25.3345 4.8532 0.8604
-27.3032 21.8792 4.5562 0.8684
-27.4968 17.5362 4.2469 0.8767
-23.9084 12.9319 3.5396 0.8962
12.4471 41.5557 4.6582 0.8399
1.9042 10.2786 1.1225 0.9588
-27.0813 33.5197 4.6273 0.8408
-27.2083 29.1215 4.2796 0.8519
-27.2647 27.1560 4.1322 0.8566
-27.4119 21.9663 3.7720 0.8682
-27.4551 20.4250 3.6745 0.8714
-27.5717 16.2204 3.4350 0.8792
12.4587 41.5944 3.6756 0.8400
9.2551 41.5576 3.6041 0.8429
-27.2541 29.1705 3.3794 0.8519
-27.3089 27.2001 3.2628 0.8566
-27.4525 21.9989 2.9780 0.8683
-27.4947 20.4545 2.9009 0.8715
-27.5727 17.5846 2.7684 0.8770
1.9096 10.3077 0.6501 0.9589
-27.3597 29.2836 2.4851 0.8516
-27.3531 27.2441 2.3940 0.8567
-25.6536 23.7771 2.1690 0.8692
-27.4494 23.6655 2.2474 0.8648
-27.4999 22.0369 2.1853 0.8683
-27.5343 20.4839 2.1281 0.8715
-27.5049 18.9655 2.0717 0.8747
-27.6106 17.6088 2.0307 0.8770
-27.6460 16.2641 1.9890 0.8794
-25.9609 14.0420 1.8302 0.8884
9.2656 41.6049 1.6807 0.8431
-27.1190 33.5664 1.7015 0.8414
-25.2597 29.0629 1.5183 0.8571
-27.3974 27.2882 1.5248 0.8566
-25.6937 23.8143 1.3814 0.8691
-27.4752 23.6878 1.4304 0.8648
-25.7815 20.6598 1.3027 0.8761
-25.8192 19.2079 1.2689 0.8791
-25.8549 17.8278 1.2384 0.8819
-25.8889 16.5108 1.2108 0.8843
-27.6832 16.2860 1.2665 0.8793
-25.9593 14.0412 1.1637 0.8886
-25.4859 33.9738 0.7174 0.8437
-27.2173 33.6880 0.7316 0.8409
-25.2688 29.0734 0.6507 0.8572
-27.4417 27.3323 0.6542 0.8565
-27.5778 22.0993 0.5970 0.8682
-25.9813 14.0531 0.4989 0.8885
9.1360 41.0230 -0.2366 0.8453
-25.5587 31.6351 -0.2290 0.8499
-25.6610 27.4654 -0.2116 0.8604
-25.7894 22.2344 -0.1917 0.8727
-25.9905 14.0580 -0.1664 0.8885
2.4825 7.3199 -0.2176 0.9695
2.4759 8.2663 -0.2430 0.9661
2.4706 9.4749 -0.2757 0.9616
2.4636 11.0621 -0.3191 0.9557
2.4436 16.4765 -0.4690 0.9355
2.4173 21.6318 -0.6129 0.9166
2.3840 31.5848 -0.8919 0.8810
-22.3248 44.6250 -1.4050 0.8190
-23.3764 39.3750 -1.2894 0.8326
-23.3847 36.3463 -1.2170 0.8412
-24.4023 32.5292 -1.1450 0.8498
-24.9366 30.8651 -1.1173 0.8532
-25.1121 28.8931 -1.0779 0.8580
-25.3353 27.1167 -1.0450 0.8620
-25.7303 23.8482 -0.9878 0.8690
-26.2933 21.0699 -0.9487 0.8739
-25.9003 19.2683 -0.9090 0.8788
-25.9651 16.5594 -0.8671 0.8841
-26.0248 14.0766 -0.8331 0.8883
2.4596 9.4327 -0.4944 0.9617
2.4509 11.0052 -0.5718 0.9558
2.4389 13.1647 -0.6790 0.9478
2.3929 21.4138 -1.0927 0.9173
1.9557 49.6214 -2.5185 0.8196
-3.2373 47.2209 -2.4004 0.8273
-4.7686 45.5107 -2.3207 0.8325
-6.1961 43.8587 -2.2463 0.8374
-7.5285 42.2612 -2.1770 0.8420
-8.7732 40.7141 -2.1122 0.8464
-9.9373 39.2142 -2.0516 0.8504
-13.0035 34.9675 -1.8920 0.8612
-14.7416 32.3205 -1.8016 0.8674
-16.2725 29.7996 -1.7219 0.8729
-17.6221 27.3897 -1.6517 0.8777
-18.2358 26.2220 -1.6198 0.8799
-19.3527 23.9537 -1.5617 0.8840
-20.3356 21.7656 -1.5106 0.8875
-20.7812 20.6984 -1.4875 0.8892
-21.5882 18.6123 -1.4456 0.8921
-21.9523 17.5913 -1.4266 0.8934
-22.2916 16.5837 -1.4090 0.8947
-22.9003 14.6047 -1.3774 0.8969
-23.3620 12.6363 -1.3470 0.8991
2.4645 7.2668 -0.5626 0.9697
2.4566 8.2015 -0.6277 0.9662
2.4383 10.9487 -0.8224 0.9560
2.4056 16.2204 -1.2023 0.9363
2.3149 30.6693 -2.2551 0.8839
1.3360 33.8982 -2.4874 0.8728
-2.2864 33.3512 -2.4511 0.8745
-4.4463 31.4727 -2.3306 0.8803
-5.4666 30.6870 -2.2855 0.8825
-7.3314 28.9310 -2.1883 0.8872
-8.1946 28.0604 -2.1434 0.8894
-9.0146 27.1950 -2.1007 0.8914
-9.7933 26.3351 -2.0601 0.8934
-11.9013 23.7894 -1.9504 0.8988
-14.2397 20.4759 -1.8287 0.9048
-14.7494 19.6616 -1.8022 0.9061
-15.2315 18.8527 -1.7771 0.9074
-16.9052 15.6685 -1.6901 0.9117
-17.6017 14.1050 -1.6539 0.9135
-17.9176 13.3297 -1.6374 0.9143
-18.4881 11.7909 -1.6078 0.9158
-18.7439 11.0270 -1.5945 0.9165
-18.9807 10.2665 -1.5822 0.9171
2.4555 7.2404 -0.7340 0.9697
2.4258 10.8925 -1.0714 0.9561
1.5394 10.3801 -1.0074 0.9587
1.9768 26.1895 -2.5215 0.8998
1.0137 25.7212 -2.4713 0.9017
-1.7660 25.7600 -2.4789 0.9014
-5.0622 23.4923 -2.3071 0.9079
-5.8043 22.9048 -2.2685 0.9094
-7.1969 21.7115 -2.1959 0.9122
-7.8492 21.1072 -2.1620 0.9135
-8.4733 20.4985 -2.1295 0.9147
-9.6406 19.2706 -2.0687 0.9171
-10.1854 18.6524 -2.0403 0.9181
-10.7053 18.0319 -2.0133 0.9192
-11.6732 16.7854 -1.9629 0.9211
-12.1227 16.1601 -1.9395 0.9220
-12.5501 15.5338 -1.9172 0.9229
-12.9560 14.9067 -1.8961 0.9237
-13.3409 14.2790 -1.8761 0.9245
-13.7055 13.6509 -1.8571 0.9252
-14.3757 12.3941 -1.8223 0.9266
-14.9705 11.1372 -1.7913 0.9278
-15.7286 9.2531 -1.7520 0.9293
-15.9471 8.6256 -1.7406 0.9297
2.4270 9.3076 -1.1426 0.9620
2.4134 10.8368 -1.3188 0.9563
2.3223 20.7817 -2.4839 0.9192
1.5851 20.9988 -2.5015 0.9187
0.8161 20.7050 -2.4614 0.9199
-1.4374 20.9669 -2.4964 0.9188
-3.5252 19.7886 -2.3876 0.9222
-4.8001 18.9422 -2.3212 0.9243
-5.4036 18.5033 -2.2897 0.9253
-6.5444 17.5985 -2.2303 0.9272
-8.5724 15.6986 -2.1247 0.9305
-9.0289 15.2083 -2.1009 0.9312
-10.2835 13.7083 -2.0356 0.9333
-10.6645 13.2000 -2.0158 0.9339
-11.3732 12.1729 -1.9789 0.9351
-11.7015 11.6549 -1.9618 0.9356
-12.0128 11.1341 -1.9456 0.9362
-12.3074 10.6109 -1.9303 0.9366
-12.8480 9.5582 -1.9022 0.9375
-13.7413 7.4326 -1.8558 0.9390
2.4302 8.1135 -1.2000 0.9664
2.4010 10.7812 -1.5650 0.9564
2.3802 12.8479 -1.8514 0.9486
1.3217 17.5098 -2.4880 0.9315
0.0589 17.0949 -2.4222 0.9333
-0.5828 17.9258 -2.5412 0.9301
-1.8215 17.3845 -2.4767 0.9318
-2.4146 17.0918 -2.4458 0.9326
-4.0889 16.1356 -2.3585 0.9350
-4.6122 15.7935 -2.3312 0.9357
-5.1183 15.4409 -2.3049 0.9364
-6.0793 14.7068 -2.2548 0.9377
-7.3951 13.5425 -2.1863 0.9396
-8.5644 12.3151 -2.1254 0.9412
-8.9225 11.8940 -2.1067 0.9417
-9.2651 11.4678 -2.0889 0.9422
-10.4843 9.7174 -2.0255 0.9439
-10.7522 9.2701 -2.0115 0.9443
-11.0058 8.8194 -1.9983 0.9446
-11.4705 7.9093 -1.9742 0.9453
-12.0637 6.5252 -1.9433 0.9461
2.4054 9.2250 -1.5705 0.9621
2.3657 12.7700 -2.1395 0.9487
1.1324 15.0013 -2.4783 0.9408
0.5857 14.8594 -2.4498 0.9415
-0.5022 15.4444 -2.5457 0.9393
-1.0451 15.2450 -2.5173 0.9399
-3.0830 14.3076 -2.4111 0.9424
-3.5584 14.0418 -2.3864 0.9430
-4.0198 13.7647 -2.3623 0.9435
-4.9010 13.1792 -2.3164 0.9446
-5.3208 12.8719 -2.2945 0.9451
-8.7654 9.3817 -2.1151 0.9493
-9.0363 9.0002 -2.1010 0.9496
-9.2941 8.6143 -2.0876 0.9499
-9.5391 8.2242 -2.0749 0.9502
-10.1977 7.0317 -2.0406 0.9510
-10.3921 6.6276 -2.0305 0.9513
2.4198 7.1352 -1.4162 0.9698
2.3947 9.1839 -1.7839 0.9621
1.5275 10.2997 -1.9571 0.9585
0.0444 12.8843 -2.4218 0.9489
-0.4407 13.5542 -2.5490 0.9463
-0.9184 13.3974 -2.5241 0.9468
-1.3859 13.2268 -2.4997 0.9473
-2.2885 12.8467 -2.4527 0.9483
-2.7233 12.6383 -2.4300 0.9487
-3.1469 12.4184 -2.4079 0.9492
-3.9599 11.9462 -2.3656 0.9501
-5.0924 11.1650 -2.3066 0.9513
-6.1193 10.3073 -2.2531 0.9524
-6.7449 9.6988 -2.2205 0.9531
-7.0400 9.3847 -2.2051 0.9534
-8.3403 7.7302 -2.1374 0.9548
-8.5655 7.3848 -2.1257 0.9550
-8.9814 6.6817 -2.1041 0.9555
-9.5200 5.6006 -2.0761 0.9560
2.4110 7.1090 -1.5868 0.9698
2.3996 8.0115 -1.7678 0.9664
2.1832 11.7846 -2.5334 0.9522
1.3071 11.6961 -2.4877 0.9530
0.4552 11.5498 -2.4433 0.9538
-0.3922 12.0651 -2.5517 0.9518
-0.8184 11.9383 -2.5294 0.9523
-1.6454 11.6467 -2.4863 0.9530
-2.4366 11.3077 -2.4451 0.9538
-3.1905 10.9250 -2.4058 0.9545
-3.5529 10.7185 -2.3869 0.9549
-3.9055 10.5024 -2.3685 0.9552
-4.9033 9.8011 -2.3166 0.9562
-5.5174 9.2934 -2.2846 0.9568
-6.6212 8.1954 -2.2271 0.9578
-7.3395 7.3103 -2.1897 0.9585
-7.5580 7.0052 -2.1783 0.9587
-7.7661 6.6956 -2.1675 0.9589
-8.1510 6.0639 -2.1475 0.9593
-8.4943 5.4173 -2.1296 0.9596
-8.6504 5.0890 -2.1215 0.9598
-8.7962 4.7578 -2.1139 0.9599
2.4020 7.0826 -1.7577 0.9697
2.3897 7.9784 -1.9574 0.9664
2.3514 10.5585 -2.5423 0.9565
1.9544 10.5496 -2.5216 0.9569
1.5242 10.2771 -2.4418 0.9582
1.1723 10.4902 -2.4808 0.9576
-0.7374 10.7557 -2.5338 0.9567
-1.4848 10.5107 -2.4948 0.9573
-1.8475 10.3714 -2.4759 0.9576
-2.2025 10.2213 -2.4574 0.9579
-2.8884 9.8907 -2.4216 0.9585
-3.2189 9.7109 -2.4044 0.9588
-3.5410 9.5221 -2.3876 0.9591
-3.8544 9.3244 -2.3713 0.9594
-4.1590 9.1184 -2.3554 0.9597
-4.7414 8.6828 -2.3251 0.9602
-5.0190 8.4539 -2.3106 0.9604
-5.2873 8.2180 -2.2966 0.9606
-5.7963 7.7268 -2.2701 0.9611
-6.2678 7.2116 -2.2456 0.9615
-7.0974 6.1190 -2.2024 0.9622
-7.4550 5.5462 -2.1838 0.9625
-7.6196 5.2540 -2.1752 0.9627
-7.9200 4.6594 -2.1596 0.9629
-8.0559 4.3574 -2.1526 0.9631
2.3799 7.9453 -2.1475 0.9663
2.3625 9.0603 -2.4243 0.9621
1.7672 9.5392 -2.5119 0.9607
1.4128 9.5259 -2.4934 0.9610
0.3711 9.4130 -2.4391 0.9618
0.0324 9.3974 -2.4332 0.9619
-0.3207 9.8650 -2.5556 0.9600
-1.0140 9.6776 -2.5194 0.9606
-2.0076 9.3167 -2.4676 0.9614
-2.3254 9.1765 -2.4511 0.9616
-2.6362 9.0269 -2.4349 0.9619
-3.2357 8.7012 -2.4036 0.9624
-3.5241 8.5256 -2.3886 0.9626
-3.8048 8.3420 -2.3740 0.9628
-4.0776 8.1508 -2.3598 0.9630
-4.5990 7.7466 -2.3326 0.9635
-4.8474 7.5343 -2.3196 0.9637
-5.0875 7.3156 -2.3071 0.9639
-5.5424 6.8601 -2.2835 0.9642
-5.9631 6.3824 -2.2616 0.9646
-6.3492 5.8848 -2.2415 0.9649
-6.5292 5.6292 -2.2321 0.9650
-6.7004 5.3694 -2.2232 0.9651
-6.8629 5.1056 -2.2147 0.9653
-7.2973 4.2930 -2.1921 0.9656
-7.4244 4.0158 -2.1855 0.9657
2.3841 7.0297 -2.1014 0.9696
2.2619 8.6744 -2.5378 0.9634
1.9356 8.6914 -2.5208 0.9637
1.6111 8.6965 -2.5038 0.9639
1.2888 8.6901 -2.4870 0.9641
0.9691 8.6723 -2.4703 0.9644
0.6524 8.6433 -2.4538 0.9646
0.3391 8.6035 -2.4375 0.9648
0.0297 8.6049 -2.4360 0.9649
-0.2935 9.0278 -2.5571 0.9631
-0.6137 8.9526 -2.5404 0.9634
-0.9290 8.8670 -2.5239 0.9636
-1.2391 8.7713 -2.5078 0.9638
-1.5437 8.6659 -2.4919 0.9641
-1.8426 8.5510 -2.4763 0.9643
-2.7025 8.1528 -2.4315 0.9649
-2.9761 8.0031 -2.4172 0.9651
-3.2431 7.8456 -2.4033 0.9653
-4.0017 7.3284 -2.3638 0.9659
-4.2401 7.1421 -2.3514 0.9661
-4.4711 6.9493 -2.3393 0.9662
-4.9103 6.5456 -2.3165 0.9666
-5.1182 6.3351 -2.3056 0.9667
-5.5108 5.8983 -2.2852 0.9670
-5.8716 5.4422 -2.2664 0.9673
-6.0400 5.2074 -2.2576 0.9674
-6.2003 4.9685 -2.2493 0.9675
-6.4963 4.4794 -2.2339 0.9677
-6.6321 4.2296 -2.2268 0.9678
-6.7596 3.9767 -2.2202 0.9679
-6.8789 3.7208 -2.2140 0.9680
1.7757 7.9732 -2.5125 0.9664
1.4788 7.9823 -2.4970 0.9666
1.1837 7.9808 -2.4816 0.9668
0.5999 7.9465 -2.4511 0.9672
0.0274 7.9479 -2.4446 0.9673
-0.8564 8.1735 -2.5278 0.9662
-1.4244 7.9961 -2.4982 0.9666
-1.9723 7.7831 -2.4696 0.9670
-2.2381 7.6640 -2.4557 0.9671
-2.4983 7.5367 -2.4422 0.9673
-3.4781 6.9525 -2.3911 0.9680
-4.1451 6.4427 -2.3564 0.9684
-4.3538 6.2606 -2.3455 0.9686
-5.1177 5.4776 -2.3057 0.9691
-5.7644 4.6193 -2.2721 0.9696
-5.9073 4.3947 -2.2646 0.9697
-6.1702 3.9351 -2.2509 0.9698
-6.4024 3.4630 -2.2389 0.9700
2.3659 6.9762 -2.4486 0.9694
2.1874 7.3026 -2.5340 0.9684
1.3652 7.3688 -2.4911 0.9689
1.0932 7.3708 -2.4769 0.9691
0.8229 7.3632 -2.4628 0.9693
0.2885 7.3195 -2.4350 0.9696
0.0255 7.3818 -2.4538 0.9694
-0.2502 7.6956 -2.5594 0.9681
-0.5237 7.6389 -2.5452 0.9682
-0.7934 7.5730 -2.5311 0.9684
-1.0593 7.4983 -2.5172 0.9686
-1.5780 7.3233 -2.4902 0.9689
-1.8305 7.2235 -2.4770 0.9691
-2.3205 7.0004 -2.4515 0.9694
-2.5576 6.8777 -2.4391 0.9695
-2.7892 6.7477 -2.4271 0.9697
-3.0152 6.6109 -2.4153 0.9698
-3.2354 6.4674 -2.4038 0.9700
-3.4497 6.3174 -2.3927 0.9701
-3.6579 6.1613 -2.3818 0.9702
-4.6033 5.2963 -2.3326 0.9709
-5.0906 4.7182 -2.3072 0.9712
-5.2392 4.5170 -2.2995 0.9713
-5.5155 4.1032 -2.2851 0.9714
-5.6429 3.8910 -2.2785 0.9715
-5.9823 3.2358 -2.2608 0.9717
2.2803 6.7235 -2.5389 0.9703
1.5192 6.8215 -2.4992 0.9707
1.2664 6.8354 -2.4860 0.9709
1.0145 6.8402 -2.4729 0.9711
0.2680 6.8008 -2.4339 0.9715
0.0237 6.8841 -2.4619 0.9712
-0.7384 7.0474 -2.5340 0.9703
-0.9861 6.9806 -2.5211 0.9705
-1.2302 6.9056 -2.5084 0.9706
-1.4702 6.8227 -2.4959 0.9708
-2.1642 6.5288 -2.4597 0.9712
-2.3861 6.4165 -2.4481 0.9713
-2.6031 6.2974 -2.4368 0.9715
-2.8149 6.1717 -2.4258 0.9716
-3.0214 6.0396 -2.4150 0.9717
-3.2225 5.9014 -2.4045 0.9718
-3.4180 5.7573 -2.3944 0.9720
-3.6078 5.6075 -2.3845 0.9721
-3.7916 5.4522 -2.3749 0.9722
-3.9696 5.2917 -2.3656 0.9723
-4.1415 5.1261 -2.3567 0.9724
-4.3072 4.9558 -2.3480 0.9725
-4.6198 4.6014 -2.3318 0.9727
-4.7665 4.4179 -2.3241 0.9728
-4.9068 4.2304 -2.3168 0.9729
-5.0405 4.0392 -2.3099 0.9729
-5.2879 3.6462 -2.2970 0.9731
-5.6087 3.0337 -2.2803 0.9733
1.6501 6.3279 -2.5060 0.9724
1.4146 6.3518 -2.4938 0.9725
0.4802 6.3622 -2.4450 0.9730
0.0222 6.4427 -2.4690 0.9728
-0.4549 6.6356 -2.5488 0.9719
-0.9215 6.5229 -2.5245 0.9722
-1.1498 6.4549 -2.5126 0.9723
-1.5957 6.2969 -2.4894 0.9726
-1.8127 6.2071 -2.4780 0.9727
-2.0255 6.1105 -2.4670 0.9728
-2.2339 6.0072 -2.4561 0.9729
-2.4377 5.8974 -2.4455 0.9730
-2.6369 5.7813 -2.4351 0.9731
-3.5566 5.1142 -2.3872 0.9737
-3.7244 4.9648 -2.3784 0.9738
-3.8866 4.8106 -2.3700 0.9739
-4.0429 4.6517 -2.3618 0.9739
-4.1936 4.4885 -2.3540 0.9740
-4.4770 4.1495 -2.3392 0.9742
-4.6095 3.9741 -2.3323 0.9743
-4.8562 3.6128 -2.3195 0.9744
-4.9702 3.4271 -2.3136 0.9745
-5.1791 3.0469 -2.3027 0.9746
-5.2739 2.8526 -2.2978 0.9746
1.3220 5.9360 -2.4890 0.9741
1.1027 5.9522 -2.4775 0.9742
0.8840 5.9604 -2.4661 0.9743
0.6662 5.9607 -2.4548 0.9744
0.2340 5.9381 -2.4322 0.9746
-1.2894 5.9841 -2.5054 0.9739
-1.4971 5.9082 -2.4945 0.9740
-1.9015 5.7365 -2.4735 0.9742
-2.2898 5.5394 -2.4532 0.9744
-2.4775 5.4318 -2.4434 0.9745
-2.8392 5.1994 -2.4246 0.9747
-3.5041 4.6712 -2.3899 0.9751
-3.8055 4.3785 -2.3743 0.9752
-3.9480 4.2256 -2.3668 0.9753
-4.0850 4.0687 -2.3597 0.9754
-4.2163 3.9079 -2.3529 0.9755
-4.5758 3.4041 -2.3342 0.9757
-4.6838 3.2297 -2.3285 0.9757
-4.8821 2.8721 -2.3182 0.9758
-4.9721 2.6893 -2.3135 0.9759
1.8548 5.4689 -2.5168 0.9751
1.6500 5.5086 -2.5061 0.9752
1.4447 5.5405 -2.4954 0.9753
1.2394 5.5649 -2.4847 0.9754
1.0341 5.5817 -2.4740 0.9755
0.8292 5.5910 -2.4633 0.9756
0.4218 5.5874 -2.4420 0.9758
0.2197 5.5749 -2.4315 0.9759
0.0196 5.6930 -2.4811 0.9755
-0.1911 5.8770 -2.5627 0.9747
-0.4005 5.8413 -2.5517 0.9748
-0.6075 5.7985 -2.5409 0.9749
-0.8121 5.7487 -2.5303 0.9750
-1.0140 5.6920 -2.5198 0.9751
-1.2129 5.6287 -2.5094 0.9752
-1.4086 5.5587 -2.4992 0.9753
-1.6010 5.4824 -2.4891 0.9754
-2.1565 5.2169 -2.4602 0.9757
-2.3338 5.1167 -2.4510 0.9758
-2.5069 5.0110 -2.4419 0.9758
-3.1548 4.5365 -2.4082 0.9762
-3.4504 4.2707 -2.3928 0.9763
-3.8556 3.8403 -2.3717 0.9765
-3.9803 3.6892 -2.3652 0.9766
-4.6125 2.7136 -2.3323 0.9769
1.5503 5.1757 -2.5009 0.9765
1.3578 5.2071 -2.4909 0.9766
0.7799 5.2586 -2.4608 0.9768
0.3969 5.2580 -2.4408 0.9770
0.2069 5.2474 -2.4309 0.9771
-0.3772 5.5024 -2.5530 0.9760
-0.7654 5.4178 -2.5327 0.9762
-0.9559 5.3657 -2.5228 0.9763
-1.8640 5.0125 -2.4755 0.9767
-2.0356 4.9244 -2.4665 0.9768
-2.9815 4.2873 -2.4172 0.9772
-3.2619 4.0375 -2.4026 0.9774
-3.3951 3.9063 -2.3957 0.9774
-3.6469 3.6324 -2.3826 0.9776
-4.0898 3.0426 -2.3595 0.9778
-4.3667 2.5689 -2.3451 0.9779
-4.4482 2.4060 -2.3409 0.9780
1.4602 4.8750 -2.4963 0.9776
1.0979 4.9297 -2.4774 0.9777
0.7353 4.9577 -2.4584 0.9779
0.1954 4.9571 -2.4335 0.9781
-0.1698 5.2239 -2.5638 0.9770
-0.3561 5.1947 -2.5541 0.9771
-1.0806 5.0148 -2.5163 0.9774
-1.2555 4.9547 -2.5072 0.9775
-1.5968 4.8172 -2.4894 0.9776
-1.7627 4.7402 -2.4808 0.9777
-1.9254 4.6579 -2.4723 0.9778
-2.3918 4.3801 -2.4480 0.9780
-2.5396 4.2778 -2.4403 0.9781
-2.6835 4.1709 -2.4328 0.9781
-2.8231 4.0596 -2.4255 0.9782
-3.2163 3.7006 -2.4050 0.9784
-3.4558 3.4421 -2.3926 0.9785
-3.5685 3.3075 -2.3867 0.9786
-3.8775 2.8846 -2.3706 0.9787
-3.9705 2.7378 -2.3658 0.9787
-4.0585 2.5883 -2.3612 0.9788
-4.1413 2.4363 -2.3569 0.9788
1.5483 4.5653 -2.5009 0.9785
1.2078 4.6316 -2.4831 0.9787
0.5239 4.6885 -2.4474 0.9790
0.3538 4.6872 -2.4386 0.9790
-0.1606 4.9404 -2.5643 0.9780
-0.5114 4.8810 -2.5460 0.9781
-0.8546 4.7977 -2.5281 0.9783
-1.3520 4.6298 -2.5022 0.9785
-1.5125 4.5630 -2.4938 0.9786
-1.6700 4.4908 -2.4856 0.9786
-1.8244 4.4136 -2.4776 0.9787
-1.9755 4.3313 -2.4697 0.9788
-2.1232 4.2442 -2.4620 0.9788
-2.4081 4.0562 -2.4472 0.9790
-2.5449 3.9555 -2.4400 0.9790
-2.6778 3.8505 -2.4331 0.9791
-3.0520 3.5115 -2.4136 0.9793
-3.1682 3.3911 -2.4076 0.9793
-3.3875 3.1397 -2.3962 0.9794
-3.4904 3.0092 -2.3908 0.9794
-3.5886 2.8757 -2.3857 0.9795
-3.6821 2.7393 -2.3808 0.9795
-3.7708 2.6001 -2.3762 0.9796
-3.9338 2.3142 -2.3677 0.9796
1.4640 4.3167 -2.4965 0.9794
1.3035 4.3518 -2.4881 0.9795
1.1424 4.3810 -2.4797 0.9796
0.6574 4.4328 -2.4544 0.9798
0.4960 4.4383 -2.4460 0.9798
0.3350 4.4379 -2.4376 0.9799
0.1747 4.4319 -2.4293 0.9800
0.0158 4.5634 -2.4994 0.9794
-0.1521 4.6803 -2.5648 0.9789
-0.8103 4.5485 -2.5305 0.9791
-0.9700 4.5016 -2.5221 0.9792
-1.4349 4.3290 -2.4979 0.9794
-1.8752 4.1113 -2.4750 0.9796
-2.0157 4.0293 -2.4676 0.9797
-2.1530 3.9428 -2.4605 0.9797
-2.2868 3.8519 -2.4535 0.9798
-2.6665 3.5545 -2.4337 0.9799
-2.7854 3.4476 -2.4275 0.9800
-3.0112 3.2229 -2.4158 0.9801
-3.1179 3.1054 -2.4102 0.9801
-3.2203 2.9848 -2.4049 0.9802
-3.5861 2.4728 -2.3859 0.9803
-3.7418 2.2013 -2.3778 0.9804
-3.8126 2.0622 -2.3741 0.9804
1.2348 4.1224 -2.4846 0.9803
1.0824 4.1508 -2.4766 0.9804
0.7764 4.1906 -2.4607 0.9805
0.4703 4.2081 -2.4447 0.9806
0.3177 4.2086 -2.4367 0.9807
0.1657 4.2035 -2.4288 0.9808
0.0150 4.3354 -2.5031 0.9802
-0.1444 4.4407 -2.5652 0.9797
-0.3029 4.4184 -2.5569 0.9798
-0.4600 4.3905 -2.5488 0.9798
-0.6155 4.3572 -2.5406 0.9799
-1.0708 4.2258 -2.5169 0.9801
-1.2183 4.1718 -2.5092 0.9801
-1.3634 4.1129 -2.5017 0.9802
-1.7824 3.9079 -2.4798 0.9804
-2.0470 3.7488 -2.4660 0.9805
-2.2987 3.5729 -2.4529 0.9806
-2.9674 2.9556 -2.4181 0.9808
-3.1590 2.7236 -2.4081 0.9809
-3.3338 2.4802 -2.3990 0.9810
