ply
format ascii 1.0
element vertex 602
property float32 x
property float32 y
property float32 z
property float32 I
end_header
-28.4268 14.0797 5.5935 0.8791
-34.2524 -17.4444 6.7778 0.8555
-42.0133 17.1847 6.9538 0.8322
-42.0603 15.4707 6.8655 0.8341
-34.3071 -17.4722 5.8980 0.8557
-31.3430 14.1503 4.4782 0.8705
-42.0667 17.2066 5.9185 0.8325
-34.3614 -17.4999 5.0215 0.8559
-28.4210 14.0768 3.4057 0.8802
-31.3407 14.1493 3.6925 0.8708
-42.1200 17.2284 4.8866 0.8327
-26.5380 13.1442 2.5070 0.8879
-31.3384 14.1482 2.9107 0.8711
-34.7994 14.2340 3.1828 0.8599
-25.7808 -30.2446 3.3642 0.8525
-26.7910 12.0953 1.8228 0.8889
-42.2708 15.5482 2.7929 0.8348
-44.4354 14.5608 2.8996 0.8291
-28.4152 14.0739 1.2503 0.8808
-31.3339 14.1462 1.3556 0.8714
-40.5765 14.9249 1.7048 0.8411
-44.1368 14.4629 1.8314 0.8303
-34.7910 14.2306 0.6349 0.8604
-40.5713 14.9231 0.7302 0.8412
-25.7979 -30.2647 0.6718 0.8529
-27.2006 13.4724 -0.1709 0.8857
-34.7883 14.2295 -0.2116 0.8604
-39.4462 14.5092 -0.2366 0.8453
-40.4409 10.1132 -0.2347 0.8464
-41.7842 8.8729 -0.2405 0.8429
-44.4501 7.7876 -0.2541 0.8348
-44.4953 4.5466 -0.2518 0.8362
-44.5094 2.9429 -0.2511 0.8366
-44.5179 -1.8437 -0.2509 0.8368
-44.4760 -6.6676 -0.2532 0.8354
-44.4505 -8.3006 -0.2546 0.8345
-44.3374 -13.3288 -0.2607 0.8309
-44.2867 -15.0620 -0.2634 0.8293
-41.5708 -17.5484 -0.2540 0.8349
-41.5047 -19.2991 -0.2577 0.8327
-34.4887 -17.5647 -0.2179 0.8566
-41.2375 -24.8684 -0.2711 0.8248
-25.8195 -30.2901 -0.2241 0.8528
-26.0568 12.9058 -0.8188 0.8902
-27.6238 12.4712 -0.8534 0.8858
-27.7821 11.3637 -0.8452 0.8868
-29.5875 9.6954 -0.8767 0.8829
-31.6887 7.9246 -0.9198 0.8775
-31.7828 6.7491 -0.9149 0.8781
-31.8617 5.5821 -0.9108 0.8786
-31.9255 4.4220 -0.9075 0.8790
-31.9745 3.2672 -0.9050 0.8793
-32.0088 2.1164 -0.9033 0.8795
-32.0286 0.9681 -0.9023 0.8797
-32.0341 -0.1790 -0.9020 0.8797
-32.0251 -1.3263 -0.9025 0.8796
-32.0017 -2.4753 -0.9038 0.8795
-31.9637 -3.6274 -0.9058 0.8792
-31.7611 -7.1163 -0.9165 0.8779
-31.5492 -9.4844 -0.9276 0.8765
-31.4191 -10.6857 -0.9345 0.8756
-31.1078 -13.1317 -0.9508 0.8736
-30.9255 -14.3799 -0.9603 0.8724
-29.8498 -15.2022 -0.9432 0.8746
-28.6943 -15.9322 -0.9242 0.8769
-28.2757 -18.4634 -0.9509 0.8736
-27.3938 -22.4201 -0.9968 0.8679
-26.6787 -25.2298 -1.0339 0.8634
-26.2779 -26.6963 -1.0548 0.8608
-25.8454 -28.2093 -1.0773 0.8580
-25.3369 -29.7239 -1.0998 0.8553
-24.2933 -33.0211 -1.1543 0.8487
-23.7078 -34.7673 -1.1849 0.8450
-23.3537 -37.0296 -1.2327 0.8393
-23.3426 -40.1274 -1.3072 0.8305
-23.8448 10.7651 -1.3268 0.9005
-24.5155 7.0722 -1.2940 0.9029
-24.6347 6.1605 -1.2878 0.9033
-24.9458 2.5490 -1.2717 0.9044
-25.0105 -0.1398 -1.2684 0.9047
-24.9745 -1.9318 -1.2704 0.9045
-24.9327 -2.8295 -1.2726 0.9044
-24.8008 -4.6313 -1.2795 0.9039
-24.6034 -6.4456 -1.2899 0.9032
-24.0029 -10.1324 -1.3213 0.9009
-23.8076 -11.0702 -1.3315 0.9002
-23.5931 -12.0157 -1.3427 0.8994
-23.3590 -12.9698 -1.3550 0.8985
-22.8288 -14.9068 -1.3827 0.8966
-22.5312 -15.8912 -1.3983 0.8955
-22.2108 -16.8874 -1.4150 0.8943
-21.4975 -18.9190 -1.4523 0.8916
-20.6798 -21.0091 -1.4950 0.8886
-20.2285 -22.0786 -1.5186 0.8870
-19.7470 -23.1662 -1.5438 0.8852
-18.6863 -25.3997 -1.5992 0.8814
-16.8213 -28.9168 -1.6966 0.8746
-19.2014 9.5104 -1.5711 0.9176
-19.4007 8.7587 -1.5608 0.9182
-20.1410 5.0367 -1.5223 0.9201
-20.2398 4.2980 -1.5171 0.9204
-20.3902 2.8243 -1.5093 0.9208
-20.4419 2.0888 -1.5067 0.9209
-20.4990 0.6196 -1.5037 0.9210
-20.3725 -3.0541 -1.5105 0.9207
-20.3006 -3.7909 -1.5142 0.9205
-19.3449 -8.9951 -1.5643 0.9180
-19.1404 -9.7480 -1.5749 0.9175
-18.1374 -12.7922 -1.6274 0.9148
-17.5175 -14.3370 -1.6598 0.9132
-16.8120 -15.8989 -1.6966 0.9114
-16.4253 -16.6869 -1.7168 0.9104
-16.0150 -17.4797 -1.7383 0.9093
-14.6323 -19.8892 -1.8105 0.9057
-14.1175 -20.7031 -1.8373 0.9044
-13.5738 -21.5228 -1.8657 0.9030
-16.3354 7.3749 -1.7207 0.9305
-16.5042 6.7508 -1.7119 0.9309
-16.7951 5.5035 -1.6968 0.9314
-17.0251 4.2576 -1.6848 0.9319
-17.1176 3.6350 -1.6800 0.9321
-17.1953 3.0126 -1.6760 0.9323
-17.3409 1.1466 -1.6685 0.9325
-17.3656 -0.0970 -1.6672 0.9326
-17.2943 -1.9626 -1.6710 0.9324
-17.2415 -2.5847 -1.6738 0.9323
-17.0920 -3.8296 -1.6816 0.9320
-16.9951 -4.4524 -1.6867 0.9318
-16.7563 -5.6989 -1.6992 0.9313
-15.6650 -9.4469 -1.7562 0.9291
-15.4258 -10.0728 -1.7687 0.9286
-14.8954 -11.3254 -1.7964 0.9276
-14.6034 -11.9520 -1.8117 0.9270
-13.9637 -13.2053 -1.8451 0.9257
-13.6151 -13.8319 -1.8633 0.9250
-12.4479 -15.7094 -1.9243 0.9226
-12.0166 -16.3338 -1.9468 0.9217
-11.5632 -16.9573 -1.9705 0.9208
-11.0869 -17.5794 -1.9953 0.9199
-14.2539 5.8303 -1.8293 0.9399
-14.3953 5.2949 -1.8220 0.9401
-14.7355 3.6850 -1.8043 0.9406
-14.8213 3.1473 -1.7998 0.9408
-14.8934 2.6093 -1.7961 0.9409
-14.9520 2.0710 -1.7930 0.9410
-14.9970 1.5324 -1.7907 0.9411
-15.0285 0.9937 -1.7891 0.9411
-15.0467 0.4548 -1.7882 0.9412
-15.0514 -0.0841 -1.7879 0.9412
-14.9360 -2.2391 -1.7940 0.9410
-14.8734 -2.7774 -1.7973 0.9409
-14.7075 -3.8530 -1.8060 0.9406
-14.4863 -4.9268 -1.8176 0.9402
-14.0491 -6.5326 -1.8404 0.9395
-13.6855 -7.5987 -1.8594 0.9389
-13.4816 -8.1301 -1.8701 0.9386
-13.2625 -8.6602 -1.8815 0.9382
-13.0282 -9.1888 -1.8938 0.9378
-12.2312 -10.7641 -1.9354 0.9365
-11.9331 -11.2851 -1.9510 0.9360
-11.6186 -11.8036 -1.9674 0.9355
-10.1876 -13.8477 -2.0421 0.9331
-9.3638 -14.8474 -2.0851 0.9317
-8.9236 -15.3403 -2.1081 0.9310
-12.5355 5.1275 -1.9190 0.9468
-12.6661 4.6589 -1.9122 0.9469
-12.8885 3.7181 -1.9006 0.9473
-12.9805 3.2461 -1.8958 0.9474
-13.0599 2.7733 -1.8917 0.9475
-13.1267 2.2998 -1.8883 0.9476
-13.2687 0.4011 -1.8809 0.9478
-13.2731 -0.0741 -1.8807 0.9478
-13.2445 -1.0245 -1.8822 0.9477
-12.9543 -3.3938 -1.8974 0.9473
-12.7497 -4.3363 -1.9081 0.9470
-12.6283 -4.8058 -1.9145 0.9469
-11.8246 -7.1309 -1.9565 0.9457
-11.6237 -7.5901 -1.9670 0.9455
-10.9385 -8.9525 -2.0028 0.9445
-10.6819 -9.4007 -2.0162 0.9441
-10.4111 -9.8457 -2.0303 0.9438
-9.5108 -11.1576 -2.0773 0.9425
-9.1808 -11.5862 -2.0946 0.9420
-8.8356 -12.0099 -2.1126 0.9415
-8.4749 -12.4283 -2.1314 0.9410
-8.0985 -12.8410 -2.1511 0.9405
-11.0466 4.9872 -1.9967 0.9521
-11.2999 4.1564 -1.9835 0.9524
-11.4088 3.7385 -1.9778 0.9525
-11.5059 3.3192 -1.9728 0.9526
-11.5912 2.8987 -1.9683 0.9527
-11.7267 2.0545 -1.9613 0.9529
-11.7771 1.6312 -1.9587 0.9529
-11.8586 0.3584 -1.9545 0.9530
-11.8626 -0.0662 -1.9543 0.9530
-11.8360 -0.9155 -1.9557 0.9530
-11.8054 -1.3397 -1.9573 0.9530
-11.7093 -2.1866 -1.9623 0.9529
-11.6438 -2.6089 -1.9658 0.9528
-11.4779 -3.4505 -1.9745 0.9526
-11.3772 -3.8695 -1.9797 0.9525
-11.2651 -4.2866 -1.9856 0.9523
-11.1406 -4.7027 -1.9921 0.9522
-10.6955 -5.9386 -2.0154 0.9516
-10.3381 -6.7506 -2.0340 0.9512
-10.1409 -7.1523 -2.0443 0.9509
-9.4743 -8.3379 -2.0791 0.9501
-9.2268 -8.7256 -2.0921 0.9498
-8.9664 -9.1092 -2.1057 0.9495
-8.6930 -9.4882 -2.1199 0.9492
-8.4067 -9.8623 -2.1349 0.9488
-7.7945 -10.5948 -2.1668 0.9481
-9.9574 4.4955 -2.0535 0.9565
-10.2935 3.3730 -2.0360 0.9569
-10.3837 2.9955 -2.0313 0.9570
-10.5314 2.2364 -2.0236 0.9571
-10.6719 1.0905 -2.0164 0.9573
-10.7084 -0.4435 -2.0145 0.9573
-10.6906 -0.8269 -2.0154 0.9573
-10.6229 -1.5925 -2.0190 0.9572
-10.5119 -2.3553 -2.0248 0.9571
-10.2641 -3.4909 -2.0378 0.9568
-10.1597 -3.8664 -2.0432 0.9567
-10.0443 -4.2400 -2.0493 0.9566
-9.9179 -4.6117 -2.0559 0.9565
-9.7806 -4.9811 -2.0631 0.9563
-9.6321 -5.3481 -2.0708 0.9562
-9.4724 -5.7124 -2.0792 0.9560
-9.3016 -6.0738 -2.0881 0.9558
-8.7215 -7.1380 -2.1184 0.9552
-8.2780 -7.8284 -2.1415 0.9547
-8.0390 -8.1671 -2.1540 0.9544
-7.5264 -8.8297 -2.1808 0.9539
-6.9674 -9.4706 -2.2099 0.9533
-6.0413 -10.3853 -2.2583 0.9523
-8.9321 4.4241 -2.1070 0.9601
-9.1713 3.7514 -2.0945 0.9603
-9.4538 2.7272 -2.0798 0.9606
-9.5277 2.3827 -2.0760 0.9606
-9.5915 2.0368 -2.0727 0.9607
-9.6453 1.6899 -2.0699 0.9608
-9.6890 1.3420 -2.0676 0.9608
-9.7462 0.6444 -2.0647 0.9609
-9.7597 0.2950 -2.0640 0.9609
-9.7632 -0.0545 -2.0638 0.9609
-9.7401 -0.7534 -2.0650 0.9608
-9.7135 -1.1023 -2.0664 0.9608
-9.6768 -1.4507 -2.0683 0.9608
-9.6300 -1.7983 -2.0708 0.9607
-9.5732 -2.1449 -2.0738 0.9607
-9.0200 -4.1942 -2.1027 0.9601
-8.8922 -4.5287 -2.1094 0.9600
-8.7542 -4.8607 -2.1166 0.9599
-8.6060 -5.1899 -2.1243 0.9597
-8.4475 -5.5160 -2.1326 0.9596
-8.0996 -6.1583 -2.1508 0.9593
-7.9102 -6.4740 -2.1607 0.9591
-7.7104 -6.7856 -2.1711 0.9589
-7.5002 -7.0929 -2.1821 0.9587
-7.2797 -7.3957 -2.1936 0.9585
-6.5559 -8.2736 -2.2314 0.9578
-6.2939 -8.5551 -2.2451 0.9575
-6.0215 -8.8305 -2.2593 0.9572
-5.7388 -9.0995 -2.2740 0.9570
-8.1827 4.0529 -2.1461 0.9632
-8.4059 3.4383 -2.1345 0.9634
-8.5034 3.1278 -2.1294 0.9635
-8.5913 2.8153 -2.1248 0.9635
-8.7987 1.8685 -2.1140 0.9637
-8.8490 1.5504 -2.1114 0.9638
-8.9214 0.9116 -2.1077 0.9638
-8.9562 0.2707 -2.1059 0.9639
-8.9594 -0.0500 -2.1057 0.9639
-8.9533 -0.3708 -2.1061 0.9638
-8.9378 -0.6913 -2.1069 0.9638
-8.8785 -1.3310 -2.1100 0.9638
-8.8348 -1.6498 -2.1123 0.9637
-8.7190 -2.2842 -2.1183 0.9636
-8.6470 -2.5995 -2.1221 0.9636
-8.5655 -2.9132 -2.1264 0.9635
-8.4747 -3.2251 -2.1311 0.9634
-8.3743 -3.5351 -2.1364 0.9633
-8.0166 -4.4512 -2.1550 0.9630
-7.8784 -4.7511 -2.1623 0.9629
-7.4071 -5.6318 -2.1869 0.9625
-7.2310 -5.9181 -2.1961 0.9623
-6.8504 -6.4784 -2.2160 0.9620
-6.4321 -7.0205 -2.2378 0.9616
-6.2089 -7.2840 -2.2494 0.9614
-5.7343 -7.7945 -2.2742 0.9610
-5.4830 -8.0408 -2.2873 0.9608
-4.9529 -8.5143 -2.3150 0.9603
-7.5431 3.7361 -2.1795 0.9658
-7.8434 2.8850 -2.1638 0.9661
-7.9259 2.5972 -2.1595 0.9661
-7.9996 2.3078 -2.1557 0.9662
-8.0644 2.0167 -2.1523 0.9662
-8.2060 1.1366 -2.1450 0.9663
-8.2356 0.8416 -2.1435 0.9664
-8.2682 0.2499 -2.1418 0.9664
-8.2713 -0.0462 -2.1416 0.9664
-8.2275 -0.9337 -2.1439 0.9664
-8.1542 -1.5227 -2.1478 0.9663
-7.9780 -2.3984 -2.1570 0.9662
-7.9017 -2.6874 -2.1610 0.9661
-7.8165 -2.9746 -2.1654 0.9660
-7.7225 -3.2599 -2.1704 0.9660
-7.6196 -3.5430 -2.1757 0.9659
-7.3876 -4.1019 -2.1879 0.9657
-7.1203 -4.6494 -2.2018 0.9655
-6.9735 -4.9184 -2.2095 0.9654
-6.8179 -5.1839 -2.2176 0.9652
-6.1086 -6.2059 -2.2546 0.9647
-5.4860 -6.9234 -2.2871 0.9642
-5.2615 -7.1518 -2.2989 0.9640
-4.7873 -7.5908 -2.3236 0.9636
-4.5378 -7.8008 -2.3366 0.9634
-7.2724 2.6750 -2.1936 0.9683
-7.3499 2.4085 -2.1896 0.9684
-7.5329 1.5996 -2.1801 0.9685
-7.5773 1.3275 -2.1778 0.9685
-7.6134 1.0546 -2.1759 0.9686
-7.6607 0.5065 -2.1734 0.9686
-7.6719 0.2319 -2.1729 0.9686
-7.6556 -0.5921 -2.1738 0.9686
-7.5646 -1.4126 -2.1785 0.9685
-7.5177 -1.6844 -2.1810 0.9685
-7.4624 -1.9550 -2.1839 0.9684
-7.3271 -2.4920 -2.1910 0.9683
-7.2471 -2.7579 -2.1951 0.9683
-7.1587 -3.0219 -2.1998 0.9682
-6.8442 -3.8002 -2.2162 0.9680
-6.4559 -4.5533 -2.2365 0.9677
-6.3102 -4.7978 -2.2441 0.9676
-6.1563 -5.0386 -2.2521 0.9675
-5.8245 -5.5082 -2.2694 0.9672
-5.6466 -5.7365 -2.2787 0.9671
-5.4608 -5.9603 -2.2884 0.9670
-5.2671 -6.1791 -2.2985 0.9668
-4.8563 -6.6011 -2.3200 0.9665
-4.6395 -6.8038 -2.3313 0.9663
-4.1831 -7.1910 -2.3551 0.9660
-6.6035 2.9813 -2.2285 0.9701
-6.6921 2.7373 -2.2239 0.9702
-6.8461 2.2434 -2.2159 0.9703
-6.9114 1.9938 -2.2125 0.9703
-6.9688 1.7428 -2.2095 0.9704
-7.0945 0.9827 -2.2030 0.9705
-7.1208 0.7276 -2.2016 0.9705
-7.1391 0.4721 -2.2007 0.9705
-7.1497 0.2161 -2.2001 0.9705
-7.1524 -0.0399 -2.2000 0.9705
-7.0849 -1.0621 -2.2035 0.9705
-7.0042 -1.5693 -2.2078 0.9704
-6.9521 -1.8213 -2.2105 0.9704
-6.6658 -2.8138 -2.2255 0.9702
-6.5748 -3.0572 -2.2302 0.9701
-6.4761 -3.2982 -2.2354 0.9700
-5.8675 -4.4612 -2.2672 0.9696
-5.7230 -4.6840 -2.2747 0.9695
-5.4116 -5.1178 -2.2910 0.9693
-5.2448 -5.3284 -2.2997 0.9692
-5.0707 -5.5345 -2.3088 0.9691
-4.8893 -5.7359 -2.3182 0.9690
-4.7007 -5.9323 -2.3281 0.9688
-4.5050 -6.1236 -2.3383 0.9687
-4.3023 -6.3094 -2.3489 0.9685
-3.8762 -6.6635 -2.3711 0.9683
-6.4011 2.0976 -2.2391 0.9720
-6.5171 1.6298 -2.2331 0.9721
-6.5641 1.3939 -2.2306 0.9721
-6.6607 0.6806 -2.2256 0.9722
-6.6781 0.4416 -2.2247 0.9722
-6.6907 -0.0373 -2.2241 0.9722
-6.6736 -0.5162 -2.2250 0.9722
-6.5505 -1.4677 -2.2314 0.9721
-6.5012 -1.7032 -2.2340 0.9721
-6.4447 -1.9374 -2.2370 0.9720
-6.3807 -2.1701 -2.2403 0.9720
-6.3094 -2.4011 -2.2440 0.9719
-6.2308 -2.6303 -2.2481 0.9719
-6.1449 -2.8573 -2.2526 0.9718
-6.0517 -3.0821 -2.2575 0.9718
-5.8437 -3.5241 -2.2684 0.9716
-5.7289 -3.7409 -2.2744 0.9716
-5.6070 -3.9546 -2.2807 0.9715
-4.7282 -5.1608 -2.3266 0.9709
-4.5579 -5.3471 -2.3355 0.9708
-4.3808 -5.5286 -2.3447 0.9707
-4.1972 -5.7051 -2.3543 0.9706
-3.8106 -6.0421 -2.3745 0.9703
-5.7021 2.8243 -2.2755 0.9733
-5.8673 2.3999 -2.2669 0.9734
-6.1148 1.5292 -2.2541 0.9736
-6.1593 1.3079 -2.2517 0.9736
-6.1968 1.0857 -2.2498 0.9736
-6.2792 -0.0351 -2.2455 0.9737
-6.2630 -0.4844 -2.2464 0.9737
-6.2443 -0.7086 -2.2474 0.9737
-6.2187 -0.9323 -2.2487 0.9736
-6.1464 -1.3771 -2.2525 0.9736
-6.0997 -1.5980 -2.2549 0.9736
-6.0461 -1.8176 -2.2578 0.9735
-5.8437 -2.4668 -2.2683 0.9734
-5.6743 -2.8899 -2.2772 0.9733
-5.5793 -3.0979 -2.2821 0.9733
-5.4775 -3.3033 -2.2875 0.9732
-5.2538 -3.7055 -2.2991 0.9731
-5.1320 -3.9021 -2.3055 0.9730
-5.0036 -4.0951 -2.3122 0.9729
-4.7271 -4.4704 -2.3266 0.9727
-4.4249 -4.8296 -2.3424 0.9726
-3.5614 -5.6470 -2.3875 0.9720
-3.3709 -5.7949 -2.3974 0.9719
-5.3625 2.6561 -2.2933 0.9747
-5.5190 2.2575 -2.2851 0.9748
-5.7050 1.6458 -2.2754 0.9749
-5.7961 1.2308 -2.2707 0.9749
-5.8606 0.8118 -2.2673 0.9750
-5.8829 0.6012 -2.2662 0.9750
-5.8985 0.3900 -2.2654 0.9750
-5.9075 0.1786 -2.2649 0.9750
-5.8944 -0.4559 -2.2656 0.9750
-5.8524 -0.8774 -2.2678 0.9750
-5.8214 -1.0871 -2.2695 0.9750
-5.7838 -1.2959 -2.2714 0.9749
-5.7395 -1.5036 -2.2737 0.9749
-5.5672 -2.1187 -2.2827 0.9748
-5.3361 -2.7176 -2.2948 0.9747
-5.2461 -2.9129 -2.2995 0.9746
-4.7010 -3.8475 -2.3280 0.9743
-4.5733 -4.0248 -2.3347 0.9742
-4.4396 -4.1985 -2.3416 0.9742
-4.1541 -4.5340 -2.3565 0.9740
-4.0025 -4.6956 -2.3645 0.9739
-3.6821 -5.0051 -2.3812 0.9737
-3.3395 -5.2952 -2.3991 0.9735
-3.1601 -5.4324 -2.4084 0.9734
-5.0560 2.5043 -2.3093 0.9759
-5.1335 2.3176 -2.3052 0.9760
-5.2048 2.1289 -2.3015 0.9760
-5.3814 1.5525 -2.2923 0.9761
-5.4279 1.3574 -2.2899 0.9761
-5.5018 0.9639 -2.2861 0.9761
-5.5293 0.7659 -2.2846 0.9762
-5.5505 0.5672 -2.2835 0.9762
-5.5654 0.3680 -2.2828 0.9762
-5.5739 0.1685 -2.2823 0.9762
-5.5720 -0.2308 -2.2824 0.9762
-5.5446 -0.6292 -2.2839 0.9762
-5.4142 -1.4184 -2.2907 0.9761
-5.3113 -1.8064 -2.2961 0.9760
-5.2504 -1.9981 -2.2993 0.9760
-5.1835 -2.1881 -2.3028 0.9760
-5.1103 -2.3762 -2.3066 0.9759
-4.7566 -3.1060 -2.3251 0.9757
-4.4286 -3.6246 -2.3422 0.9756
-4.1809 -3.9538 -2.3551 0.9754
-4.0485 -4.1130 -2.3620 0.9754
-3.6183 -4.5663 -2.3845 0.9751
-3.4641 -4.7088 -2.3925 0.9751
-3.3049 -4.8465 -2.4009 0.9750
-2.9710 -5.1074 -2.4183 0.9748
-4.7780 2.3665 -2.3238 0.9770
-4.9194 2.0122 -2.3164 0.9771
-4.9813 1.8323 -2.3132 0.9771
-5.0374 1.6507 -2.3103 0.9771
-5.0875 1.4677 -2.3077 0.9772
-5.2020 0.9114 -2.3017 0.9772
-5.2282 0.7242 -2.3003 0.9772
-5.2484 0.5363 -2.2993 0.9772
-5.2625 0.3480 -2.2986 0.9773
-5.2728 -0.0294 -2.2980 0.9773
-5.2688 -0.2182 -2.2982 0.9773
-5.2589 -0.4068 -2.2988 0.9772
-5.1928 -0.9697 -2.3022 0.9772
-5.1587 -1.1558 -2.3040 0.9772
-5.1187 -1.3410 -2.3061 0.9772
-5.0727 -1.5250 -2.3085 0.9772
-5.0207 -1.7076 -2.3112 0.9771
-4.9629 -1.8887 -2.3143 0.9771
-4.8991 -2.0681 -2.3176 0.9771
-4.6729 -2.5946 -2.3294 0.9769
-4.4933 -2.9340 -2.3388 0.9769
-4.3950 -3.0998 -2.3439 0.9768
-4.2911 -3.2627 -2.3494 0.9768
-4.0669 -3.5791 -2.3611 0.9766
-3.9466 -3.7323 -2.3673 0.9766
-3.5542 -4.1697 -2.3878 0.9764
-3.4132 -4.3075 -2.3952 0.9763
-3.2672 -4.4410 -2.4028 0.9762
-4.7179 1.7354 -2.3269 0.9781
-4.8191 1.3902 -2.3217 0.9781
-4.8976 1.0400 -2.3176 0.9782
-4.9859 0.3297 -2.3130 0.9782
-4.9937 0.1510 -2.3126 0.9782
-4.9957 -0.0279 -2.3125 0.9782
-4.9919 -0.2067 -2.3127 0.9782
-4.8488 -1.2703 -2.3202 0.9781
-4.7554 -1.6173 -2.3251 0.9781
-4.7003 -1.7887 -2.3280 0.9781
-4.6396 -1.9585 -2.3311 0.9780
-4.5015 -2.2925 -2.3383 0.9780
-4.4241 -2.4564 -2.3424 0.9779
-4.1597 -2.9338 -2.3562 0.9778
-3.9568 -3.2384 -2.3668 0.9777
-3.8476 -3.3861 -2.3725 0.9777
-3.7333 -3.5305 -2.3785 0.9776
-3.6139 -3.6715 -2.3847 0.9775
-2.7973 -4.4354 -2.4273 0.9772
-4.4199 1.8079 -2.3425 0.9789
-4.4762 1.6465 -2.3395 0.9790
-4.5727 1.3191 -2.3345 0.9790
-4.6476 0.9870 -2.3306 0.9791
-4.6769 0.8194 -2.3291 0.9791
-4.7191 0.4822 -2.3269 0.9791
-4.7320 0.3129 -2.3262 0.9791
-4.7393 0.1433 -2.3259 0.9791
-4.7140 -0.5350 -2.3272 0.9791
-4.6940 -0.7037 -2.3283 0.9791
-4.6685 -0.8718 -2.3296 0.9791
-4.6375 -1.0390 -2.3312 0.9790
-4.6010 -1.2054 -2.3331 0.9790
-4.5120 -1.5346 -2.3378 0.9790
-4.4015 -1.8580 -2.3435 0.9789
-4.3383 -2.0172 -2.3469 0.9789
-4.2698 -2.1746 -2.3504 0.9789
-4.1961 -2.3298 -2.3543 0.9788
-4.0332 -2.6336 -2.3628 0.9788
-3.9440 -2.7817 -2.3674 0.9787
-3.6468 -3.2094 -2.3830 0.9786
-3.5380 -3.3459 -2.3886 0.9785
-3.4245 -3.4790 -2.3946 0.9785
-3.3062 -3.6086 -2.4007 0.9784
-3.1834 -3.7346 -2.4072 0.9784
-3.0561 -3.8568 -2.4138 0.9783
-2.9244 -3.9750 -2.4207 0.9783
-4.1409 1.8695 -2.3570 0.9797
-4.1997 1.7178 -2.3540 0.9798
-4.2534 1.5645 -2.3512 0.9798
-4.3021 1.4097 -2.3486 0.9798
-4.3456 1.2536 -2.3464 0.9798
-4.3839 1.0963 -2.3444 0.9798
-4.4171 0.9380 -2.3426 0.9799
-4.4854 0.4584 -2.3391 0.9799
-4.4977 0.2974 -2.3385 0.9799
-4.5048 0.1362 -2.3381 0.9799
-4.5066 -0.0252 -2.3380 0.9799
-4.4945 -0.3476 -2.3386 0.9799
-4.4614 -0.6688 -2.3404 0.9799
-4.4370 -0.8286 -2.3417 0.9799
-4.4074 -0.9875 -2.3432 0.9799
-4.1821 -1.7654 -2.3550 0.9798
-4.0563 -2.0659 -2.3616 0.9797
-3.9860 -2.2132 -2.3652 0.9797
-3.7455 -2.6417 -2.3778 0.9796
-3.6557 -2.7796 -2.3825 0.9795
-3.5612 -2.9147 -2.3874 0.9795
-3.4621 -3.0469 -2.3926 0.9794
-3.2502 -3.3020 -2.4037 0.9793
-3.0206 -3.5437 -2.4156 0.9792
-2.8994 -3.6591 -2.4220 0.9792
-2.5112 -3.9819 -2.4422 0.9790
-4.0472 1.4887 -2.3619 0.9805
-4.1353 1.1930 -2.3573 0.9806
-4.1720 1.0433 -2.3554 0.9806
-4.2305 0.7412 -2.3524 0.9806
-4.2808 0.2831 -2.3498 0.9806
-4.2228 -0.7885 -2.3528 0.9806
-4.1945 -0.9398 -2.3543 0.9806
-4.1612 -1.0901 -2.3561 0.9806
-4.0799 -1.3876 -2.3603 0.9805
-3.9790 -1.6797 -2.3656 0.9805
-3.9213 -1.8234 -2.3686 0.9805
-3.7916 -2.1053 -2.3754 0.9804
-3.7197 -2.2432 -2.3791 0.9804
-3.6431 -2.3789 -2.3831 0.9804
-3.2915 -2.8967 -2.4015 0.9802
-3.1925 -3.0192 -2.4067 0.9802
-2.7548 -3.4766 -2.4295 0.9800
-2.5120 -3.6839 -2.4422 0.9799
-3.8065 1.5571 -2.3745 0.9812
-3.9001 1.2780 -2.3696 0.9812
-3.9399 1.1366 -2.3675 0.9812
-4.0054 0.8506 -2.3641 0.9813
-4.0857 0.1235 -2.3600 0.9813
-4.0236 -0.7513 -2.3632 0.9813
-3.9966 -0.8954 -2.3646 0.9813
-3.8869 -1.3220 -2.3704 0.9812
-3.8410 -1.4617 -2.3728 0.9812
-3.7904 -1.6001 -2.3754 0.9812
-3.6112 -2.0051 -2.3848 0.9811
-3.5424 -2.1363 -2.3884 0.9811
-3.3917 -2.3921 -2.3962 0.9810
-3.3097 -2.5165 -2.4005 0.9810
-3.2235 -2.6383 -2.4050 0.9809
-3.1332 -2.7574 -2.4097 0.9809
-2.8376 -3.0971 -2.4252 0.9808
-2.7311 -3.2040 -2.4307 0.9807
-2.6209 -3.3076 -2.4365 0.9807
-2.3893 -3.5039 -2.4486 0.9806
-2.1436 -3.6851 -2.4614 0.9805
