ply
format ascii 1.0
element vertex 1285
property float32 x
property float32 y
property float32 z
property float32 I
end_header
25.5102 18.3354 5.5395 0.8802
24.0440 18.6206 5.3623 0.8838
20.8783 18.7024 4.9424 0.8924
25.7607 24.7921 6.3042 0.8648
18.2094 18.8243 4.6181 0.8991
23.5995 26.2101 6.2189 0.8665
15.8144 18.8798 4.3426 0.9048
14.9281 19.1746 4.2848 0.9060
21.6868 30.0109 6.5288 0.8604
19.4591 31.4392 6.5195 0.8606
9.9726 19.0296 3.7883 0.9164
16.8978 35.2554 6.8936 0.8532
14.8322 37.6336 7.1326 0.8485
12.6034 35.6668 6.6701 0.8576
12.7873 40.7727 7.5346 0.8407
10.3622 37.7131 6.8963 0.8531
9.6155 48.2707 8.6786 0.8188
1.6863 10.3923 1.8564 0.9581
3.4606 38.6315 6.8391 0.8542
-27.2119 24.3703 6.4411 0.8621
-27.3550 19.6565 5.9396 0.8721
-27.4575 18.2780 5.8161 0.8746
-29.7339 14.1539 5.8066 0.8748
25.9576 18.6569 4.8971 0.8787
24.0166 18.5994 4.6535 0.8843
19.5293 18.7950 4.1522 0.8961
18.0526 18.6622 3.9777 0.9003
13.7324 19.0033 3.5918 0.9095
23.9774 35.8115 6.6023 0.8400
21.6826 35.0317 6.3114 0.8464
21.9111 38.4045 6.7735 0.8362
19.6046 37.4090 6.4701 0.8429
16.8393 38.6183 6.4541 0.8433
16.3853 41.5742 6.8457 0.8346
12.9255 41.2134 6.6169 0.8396
3.4507 38.5204 5.9247 0.8551
-27.0831 30.0720 6.1998 0.8489
-27.2015 26.1727 5.7828 0.8583
-27.3641 22.7971 5.4562 0.8658
-27.3945 19.6850 5.1678 0.8724
-27.5127 15.5996 4.8451 0.8799
-46.7908 14.5375 7.5061 0.8201
24.0362 18.6145 3.9589 0.8846
18.0480 18.6575 3.3803 0.9006
23.6111 41.3844 6.2045 0.8251
21.7128 41.4320 6.0913 0.8280
19.8803 41.4779 5.9897 0.8307
9.8670 41.6926 5.5792 0.8413
1.6762 10.3300 1.3628 0.9587
-27.0649 32.3032 5.4879 0.8437
-27.1298 30.1239 5.2791 0.8491
-27.1897 28.1014 5.0919 0.8541
-27.4056 22.8317 4.6450 0.8660
-27.3910 21.2076 4.5110 0.8696
-27.4339 19.7133 4.3991 0.8726
-27.4745 18.2893 4.2980 0.8753
-27.5131 16.9275 4.2066 0.8778
-27.5849 14.3624 4.0498 0.8821
-29.6403 14.1093 4.2748 0.8760
-32.6426 14.1300 4.6319 0.8663
-42.0865 16.4574 5.8846 0.8334
-30.2380 10.5943 4.1723 0.8788
25.9268 18.6349 3.4286 0.8795
22.4475 18.7055 3.1376 0.8891
25.3822 41.0089 5.1789 0.8236
18.1266 41.5705 4.8698 0.8332
14.6642 41.4991 4.7263 0.8377
-27.1132 32.3609 4.5334 0.8438
-27.1764 30.1757 4.3607 0.8493
-27.3395 24.4845 3.9410 0.8627
-27.3868 22.8160 3.8277 0.8664
-27.4312 21.2387 3.7253 0.8697
-27.4732 19.7415 3.6328 0.8728
-27.5130 18.3149 3.5491 0.8755
-27.5868 15.6416 3.4054 0.8802
-29.6382 14.1083 3.5248 0.8763
-32.7725 14.1862 3.8347 0.8662
-42.1395 16.4782 4.8587 0.8336
-30.2784 10.6084 3.4451 0.8789
-46.7811 14.5345 5.2603 0.8211
27.6170 41.2474 4.2021 0.8193
21.6484 41.3090 3.9480 0.8293
-27.1615 32.4186 3.5802 0.8439
-27.2230 30.2274 3.4436 0.8493
-27.2798 28.1944 3.3210 0.8543
-25.9163 23.2099 2.9451 0.8697
-27.5124 19.7697 2.8679 0.8728
-27.5513 18.3404 2.8018 0.8756
-27.5293 15.6090 2.6790 0.8807
-27.6575 14.4002 2.6396 0.8823
-27.6206 13.1479 2.5895 0.8844
-41.1235 16.0809 3.7379 0.8376
-30.3187 10.6225 2.7195 0.8790
-46.7763 14.5330 4.1465 0.8215
27.5107 41.0887 3.0663 0.8202
-27.4767 22.8909 2.2176 0.8665
-27.5115 21.3008 2.1576 0.8698
-27.5515 19.7978 2.1038 0.8729
-27.6502 18.4063 2.0598 0.8754
-27.6259 16.9969 2.0114 0.8781
-29.8317 14.2004 2.0488 0.8760
-32.9861 14.2787 2.2289 0.8658
-42.2452 16.5195 2.8128 0.8338
-40.4623 12.5713 2.6274 0.8438
8.8030 18.3664 0.8031 0.9217
1.6684 10.2823 0.4107 0.9592
-25.5810 35.3911 1.7219 0.8396
-27.2581 32.5339 1.6736 0.8437
-27.2783 30.2888 1.6073 0.8494
-27.5302 22.9355 1.4129 0.8664
-25.7982 19.9743 1.2865 0.8776
-25.8697 17.2210 1.2254 0.8830
-25.9594 14.7189 1.1767 0.8874
-27.7299 14.4379 1.2328 0.8824
-29.6321 14.1054 1.2941 0.8769
-32.7651 14.1830 1.4078 0.8668
-30.3993 10.6508 1.2701 0.8790
26.4361 19.0009 0.5499 0.8779
8.0155 18.3823 0.3387 0.9229
1.6667 10.2714 0.1758 0.9592
-25.5075 35.2896 0.7355 0.8401
-25.5482 32.8080 0.7024 0.8467
-27.3628 30.3825 0.6907 0.8491
-25.7077 26.5696 0.6245 0.8625
-26.5076 23.7395 0.6010 0.8673
-25.8226 21.5129 0.5677 0.8742
-27.5917 21.3629 0.5894 0.8697
-25.8962 18.6082 0.5386 0.8802
-27.7662 14.4568 0.5288 0.8823
-27.6810 13.1767 0.5179 0.8846
-40.6626 12.6335 0.7193 0.8434
27.1327 40.5241 -0.2746 0.8228
9.7053 41.0089 -0.2373 0.8449
2.3750 44.2830 -0.2497 0.8375
-25.5066 35.2883 -0.2452 0.8402
-25.5289 32.7831 -0.2339 0.8469
-25.5841 30.5358 -0.2243 0.8527
-25.6350 28.4641 -0.2157 0.8579
-25.6823 26.5433 -0.2079 0.8627
-25.7263 24.7532 -0.2010 0.8669
-25.7676 23.0767 -0.1947 0.8708
-25.8064 21.4994 -0.1891 0.8743
-25.8779 18.5951 -0.1794 0.8803
-26.0056 13.5401 -0.1651 0.8893
-32.7602 14.1809 -0.2010 0.8669
-39.4131 15.4121 -0.2383 0.8443
-30.3528 10.6345 -0.1811 0.8793
-39.5177 12.2778 -0.2330 0.8474
-39.5605 10.7563 -0.2308 0.8488
-44.5052 3.8670 -0.2515 0.8364
-44.3956 0.6727 -0.2500 0.8373
-44.5204 -2.5123 -0.2511 0.8366
-44.5102 -4.1124 -0.2517 0.8363
-44.4944 -5.7217 -0.2526 0.8357
-44.4728 -7.3438 -0.2538 0.8350
-44.4120 -10.6414 -0.2571 0.8330
-42.6467 -15.2036 -0.2549 0.8343
-41.5911 -16.5260 -0.2520 0.8361
-41.5586 -18.2594 -0.2556 0.8340
-41.4006 -21.8437 -0.2635 0.8292
-41.3088 -23.7209 -0.2682 0.8265
-41.2077 -25.6644 -0.2733 0.8235
-41.0965 -27.6821 -0.2790 0.8202
8.0128 18.3760 -0.5645 0.9229
2.4862 6.3083 -0.1909 0.9732
2.4809 7.9105 -0.2334 0.9674
2.4585 12.3422 -0.3544 0.9509
1.6647 10.2593 -0.2927 0.9593
2.4009 26.8015 -0.7577 0.8979
-23.3700 40.9506 -1.3276 0.8281
-23.5484 35.1619 -1.1916 0.8442
-24.6847 31.6992 -1.1313 0.8515
-25.1960 30.0727 -1.1047 0.8547
-25.8806 23.1779 -0.9783 0.8702
-26.1607 21.7945 -0.9588 0.8726
-25.9781 15.9832 -0.8588 0.8851
-26.0396 13.5578 -0.8267 0.8892
-26.0969 12.4226 -0.8138 0.8908
-27.6938 11.9878 -0.8497 0.8863
-28.5067 9.9877 -0.8505 0.8861
-29.6404 9.2090 -0.8740 0.8832
-30.2241 8.2178 -0.8819 0.8822
-31.7316 7.4202 -0.9176 0.8777
-31.9494 3.9313 -0.9064 0.8791
-31.9924 2.7798 -0.9042 0.8794
-32.0209 1.6317 -0.9028 0.8796
-32.0349 0.4854 -0.9021 0.8797
-31.9906 -2.9557 -0.9046 0.8794
-31.8151 -6.4298 -0.9140 0.8782
-31.7266 -7.6019 -0.9186 0.8776
-31.6225 -8.7836 -0.9241 0.8769
-31.5024 -9.9763 -0.9305 0.8761
-31.3659 -11.1819 -0.9376 0.8752
-31.2123 -12.4020 -0.9457 0.8742
-31.0413 -13.6385 -0.9547 0.8731
-28.8570 -15.2254 -0.9187 0.8776
-28.4089 -17.6932 -0.9424 0.8747
-28.1762 -18.9792 -0.9566 0.8729
26.2662 18.8788 -1.6404 0.8785
29.6549 22.9660 -1.9022 0.8605
29.7056 24.7538 -1.9610 0.8565
29.7496 26.6493 -2.0255 0.8522
29.8490 30.8571 -2.1772 0.8420
2.7264 3.0280 -0.2066 0.9838
2.4893 3.7179 -0.2269 0.9822
2.4880 4.0198 -0.2398 0.9812
2.4866 4.3584 -0.2545 0.9801
2.4850 4.7418 -0.2715 0.9788
2.4831 5.1807 -0.2914 0.9773
2.4751 7.0045 -0.3768 0.9707
2.4712 7.8797 -0.4188 0.9675
2.4627 8.9630 -0.4714 0.9635
2.4549 10.3733 -0.5406 0.9582
2.4051 19.1245 -0.9775 0.9257
2.3722 26.4805 -1.3483 0.8990
2.2808 42.5261 -2.1598 0.8432
-0.8927 49.7600 -2.5239 0.8193
-2.5783 47.9670 -2.4361 0.8250
-4.1476 46.2383 -2.3544 0.8303
-5.6104 44.5695 -2.2781 0.8353
-9.4433 39.8812 -2.0785 0.8486
-11.6045 36.9862 -1.9659 0.8562
-14.3647 32.9327 -1.8221 0.8660
-15.1738 31.6489 -1.7800 0.8689
-16.6469 29.1699 -1.7033 0.8741
-17.3171 27.9712 -1.6684 0.8766
-17.9465 26.7973 -1.6356 0.8788
-18.5376 25.6467 -1.6048 0.8810
-19.0926 24.5180 -1.5760 0.8830
-20.9899 20.1960 -1.4772 0.8899
-21.3916 19.1578 -1.4563 0.8914
-21.7670 18.1342 -1.4368 0.8927
-22.1174 17.1244 -1.4186 0.8940
-22.7470 15.1424 -1.3858 0.8963
-23.0284 14.1683 -1.3712 0.8974
-23.3972 12.1820 -1.3378 0.8997
-23.9483 10.3665 -1.3234 0.9008
-24.1302 9.4359 -1.3140 0.9014
-24.4401 7.5934 -1.2979 0.9026
-24.5690 6.6802 -1.2912 0.9031
-24.7762 4.8667 -1.2805 0.9038
-24.9955 1.2733 -1.2693 0.9046
-25.0105 0.3787 -1.2685 0.9047
-24.9932 -1.4104 -1.2695 0.9046
-24.9126 -3.2036 -1.2738 0.9043
-24.4266 -7.7356 -1.2994 0.9025
-24.2787 -8.6554 -1.3072 0.9019
-23.9290 -10.5136 -1.3255 0.9006
-23.7264 -11.4534 -1.3361 0.8999
-23.2626 -13.3582 -1.3604 0.8981
-23.0001 -14.3246 -1.3742 0.8972
2.4954 1.7936 -0.2253 0.9878
2.4933 2.2335 -0.2454 0.9867
2.4925 2.3988 -0.2536 0.9862
2.4916 2.5757 -0.2628 0.9857
2.4877 2.9699 -0.2841 0.9846
2.4866 3.1940 -0.2968 0.9839
2.4763 5.1666 -0.4201 0.9773
2.4736 5.6729 -0.4538 0.9755
2.4704 6.2681 -0.4940 0.9733
2.4664 6.9799 -0.5428 0.9707
2.3881 18.9897 -1.4033 0.9261
2.3441 26.1664 -1.9263 0.9000
0.5954 33.4063 -2.4498 0.8746
-0.6212 34.6211 -2.5389 0.8703
-2.9459 32.8422 -2.4177 0.8761
-4.0227 31.9566 -2.3616 0.8788
-5.0461 31.0743 -2.3083 0.8814
-6.0187 30.1961 -2.2576 0.8838
-6.9430 29.3223 -2.2094 0.8862
-7.8215 28.4534 -2.1637 0.8884
-8.6562 27.5895 -2.1202 0.8905
-9.4493 26.7311 -2.0788 0.8925
-10.9180 25.0309 -2.0023 0.8963
-11.5973 24.1893 -1.9669 0.8980
-12.2421 23.3535 -1.9333 0.8996
-12.8538 22.5235 -1.9015 0.9012
-13.9838 20.8804 -1.8426 0.9041
-15.4641 18.4572 -1.7655 0.9079
-15.9047 17.6600 -1.7426 0.9091
-17.0817 15.2979 -1.6813 0.9121
-17.7540 13.7461 -1.6463 0.9139
-18.0586 12.9764 -1.6305 0.9147
-18.6078 11.4486 -1.6019 0.9161
-18.8537 10.6900 -1.5891 0.9167
-19.0809 9.9347 -1.5773 0.9173
-19.2900 9.1824 -1.5665 0.9179
-19.6556 7.6861 -1.5475 0.9188
-19.9534 6.1994 -1.5320 0.9196
-20.1855 4.7203 -1.5200 0.9202
-20.2776 3.9830 -1.5152 0.9205
-20.4147 2.5120 -1.5081 0.9208
-20.4599 1.7778 -1.5058 0.9209
-20.5042 0.3107 -1.5036 0.9210
-20.5033 -0.4226 -1.5037 0.9210
-20.4871 -1.1561 -1.5046 0.9210
-20.4556 -1.8899 -1.5062 0.9209
-20.3461 -3.3597 -1.5120 0.9206
-20.1740 -4.8338 -1.5211 0.9202
-19.9381 -6.3141 -1.5335 0.9195
-19.6363 -7.8024 -1.5493 0.9187
-19.2664 -9.3005 -1.5687 0.9178
-18.8256 -10.8103 -1.5917 0.9166
-18.5774 -11.5701 -1.6047 0.9160
2.4919 1.7910 -0.2946 0.9877
2.4911 1.9292 -0.3025 0.9874
2.4894 2.2300 -0.3209 0.9867
2.4885 2.3950 -0.3316 0.9862
2.4874 2.5715 -0.3435 0.9857
2.4831 2.9645 -0.3713 0.9846
2.4818 3.1878 -0.3879 0.9839
2.4804 3.4325 -0.4066 0.9831
2.4769 4.0019 -0.4518 0.9813
2.4748 4.3377 -0.4795 0.9801
2.4724 4.7178 -0.5114 0.9788
2.4696 5.1526 -0.5486 0.9773
2.4664 5.6562 -0.5924 0.9755
2.4625 6.2481 -0.6447 0.9734
2.4520 7.8184 -0.7867 0.9676
2.4419 8.8872 -0.8848 0.9636
2.4312 10.2729 -1.0135 0.9585
2.4168 12.1325 -1.1877 0.9515
2.3665 18.8183 -1.8209 0.9266
-0.4758 26.5246 -2.5469 0.8989
-1.3970 25.9911 -2.4989 0.9007
-2.2825 25.4458 -2.4527 0.9024
-4.7338 23.7498 -2.3250 0.9073
-5.4859 23.1681 -2.2858 0.9088
-6.2069 22.5797 -2.2482 0.9102
-9.3793 19.5631 -2.0829 0.9165
-9.9332 18.9491 -2.0540 0.9176
-11.9060 16.4719 -1.9512 0.9216
-12.3420 15.8491 -1.9285 0.9225
-12.7563 15.2253 -1.9069 0.9233
-14.2094 12.7256 -1.8313 0.9262
-14.5242 12.1002 -1.8149 0.9268
-15.6028 9.5997 -1.7588 0.9290
-15.8293 8.9752 -1.7470 0.9295
-16.0392 8.3510 -1.7361 0.9299
-16.2329 7.7271 -1.7260 0.9303
-16.4105 7.1037 -1.7168 0.9307
-17.3237 1.5054 -1.6694 0.9325
-17.3516 0.8842 -1.6680 0.9326
-17.3651 0.2631 -1.6673 0.9326
-17.3642 -0.3579 -1.6674 0.9326
-17.3489 -0.9790 -1.6682 0.9326
-17.3192 -1.6001 -1.6698 0.9325
-17.2751 -2.2215 -1.6722 0.9324
-17.2164 -2.8429 -1.6752 0.9323
-17.1431 -3.4646 -1.6791 0.9321
-16.9523 -4.7087 -1.6891 0.9317
-16.7014 -5.9541 -1.7023 0.9312
-16.5531 -6.5773 -1.7100 0.9309
-16.2095 -7.8248 -1.7280 0.9302
-16.0137 -8.4491 -1.7383 0.9298
-15.8016 -9.0738 -1.7494 0.9294
-15.5729 -9.6989 -1.7613 0.9289
2.4883 1.7885 -0.3640 0.9877
2.4875 1.9264 -0.3737 0.9874
2.4866 2.0721 -0.3845 0.9870
2.4834 2.5672 -0.4243 0.9857
2.4754 3.4255 -0.5020 0.9831
2.4735 3.6943 -0.5281 0.9823
2.4713 3.9929 -0.5578 0.9813
2.4689 4.3274 -0.5918 0.9801
2.4591 5.6396 -0.7308 0.9755
2.4546 6.2281 -0.7952 0.9734
2.4315 8.8496 -1.0902 0.9637
2.4194 10.2231 -1.2479 0.9586
2.3453 18.6490 -2.2327 0.9271
1.8914 21.1137 -2.5181 0.9182
0.3658 20.5254 -2.4385 0.9206
-0.3854 21.4796 -2.5519 0.9171
-1.8614 20.7519 -2.4749 0.9195
-3.8980 19.5567 -2.3688 0.9228
-6.8405 17.3506 -2.2154 0.9276
-7.3646 16.8842 -2.1881 0.9285
-7.8681 16.4109 -2.1618 0.9293
-8.3513 15.9313 -2.1367 0.9301
-8.8148 15.4460 -2.1125 0.9309
-9.6839 14.4598 -2.0672 0.9323
-10.4784 13.4560 -2.0259 0.9336
-11.2011 12.4373 -1.9882 0.9348
-12.1565 10.8870 -1.9385 0.9364
-13.2026 8.7888 -1.8840 0.9381
-13.4253 8.2600 -1.8724 0.9385
-13.6329 7.7299 -1.8616 0.9388
-13.8258 7.1985 -1.8516 0.9391
-14.0038 6.6661 -1.8423 0.9394
-14.1675 6.1327 -1.8338 0.9397
-14.6806 3.9916 -1.8072 0.9406
-14.7741 3.4548 -1.8023 0.9407
-14.9204 2.3802 -1.7947 0.9410
-14.9731 1.8424 -1.7920 0.9410
-14.9671 -1.9246 -1.7925 0.9410
-14.4353 -5.1462 -1.8204 0.9401
-14.2983 -5.6813 -1.8276 0.9399
-13.8013 -7.2818 -1.8536 0.9391
2.4838 1.9236 -0.4451 0.9874
2.4828 2.0690 -0.4579 0.9870
2.4817 2.2231 -0.4721 0.9866
2.4805 2.3873 -0.4878 0.9862
2.4755 2.7493 -0.5242 0.9852
2.4739 2.9535 -0.5459 0.9846
2.4723 3.1756 -0.5702 0.9839
2.4704 3.4186 -0.5976 0.9831
2.4682 3.6864 -0.6286 0.9822
2.4599 4.6939 -0.7509 0.9788
2.4468 6.2081 -0.9455 0.9734
2.4405 6.9067 -1.0379 0.9708
2.4076 10.1735 -1.4813 0.9586
1.6620 10.2427 -1.4703 0.9589
2.2334 17.7589 -2.5361 0.9302
1.5754 17.5862 -2.5018 0.9312
0.9329 17.3952 -2.4683 0.9320
-0.3235 18.0316 -2.5553 0.9297
-0.9555 17.7762 -2.5223 0.9306
-1.5702 17.5054 -2.4903 0.9315
-2.7477 16.9208 -2.4289 0.9331
-3.3104 16.6087 -2.3996 0.9339
-3.8559 16.2845 -2.3711 0.9346
-4.3841 15.9488 -2.3436 0.9354
-4.8953 15.6024 -2.3170 0.9361
-5.8666 14.8803 -2.2663 0.9374
-6.3272 14.5058 -2.2423 0.9381
-6.7712 14.1230 -2.2192 0.9387
-7.1988 13.7326 -2.1969 0.9393
-7.6101 13.3351 -2.1755 0.9399
-8.0055 12.9308 -2.1549 0.9404
-8.3850 12.5204 -2.1351 0.9409
-9.0974 11.6825 -2.0980 0.9419
-10.6146 9.5062 -2.0190 0.9441
-11.1199 8.6097 -1.9926 0.9448
-11.3516 8.1570 -1.9806 0.9451
-11.7735 7.2437 -1.9586 0.9457
-11.9640 6.7836 -1.9487 0.9460
-12.1412 6.3215 -1.9395 0.9462
-12.4559 5.3918 -1.9231 0.9466
-12.5937 4.9246 -1.9160 0.9468
-12.7184 4.4561 -1.9095 0.9470
-12.9297 3.5155 -1.8985 0.9473
-13.0162 3.0438 -1.8940 0.9474
-13.0902 2.5712 -1.8902 0.9475
-13.1516 2.0981 -1.8870 0.9476
-13.2005 1.6243 -1.8845 0.9477
-13.2370 1.1502 -1.8826 0.9477
-13.2610 0.6758 -1.8814 0.9478
-13.2726 0.2011 -1.8808 0.9478
-13.2717 -0.2736 -1.8809 0.9478
-13.2585 -0.7482 -1.8816 0.9478
-13.1948 -1.6967 -1.8850 0.9477
-13.1442 -2.1705 -1.8876 0.9476
-13.0811 -2.6437 -1.8909 0.9475
-13.0055 -3.1162 -1.8949 0.9474
-12.7026 -4.5285 -1.9108 0.9470
-12.5760 -4.9970 -1.9174 0.9468
-12.4365 -5.4642 -1.9247 0.9466
-12.2839 -5.9298 -1.9327 0.9464
-11.5406 -7.7736 -1.9716 0.9453
2.4812 1.7834 -0.5034 0.9877
2.4802 1.9208 -0.5168 0.9874
2.4791 2.0658 -0.5316 0.9870
2.4779 2.2196 -0.5480 0.9866
2.4751 2.5587 -0.5865 0.9857
2.4711 2.7445 -0.6084 0.9851
2.4675 3.1694 -0.6617 0.9838
2.4629 3.6786 -0.7293 0.9822
2.4571 4.3068 -0.8168 0.9801
2.4536 4.6819 -0.8708 0.9788
2.4495 5.1106 -0.9336 0.9773
2.4446 5.6064 -1.0076 0.9755
2.4389 6.1882 -1.0958 0.9734
2.4319 6.8823 -1.2025 0.9708
2.4234 7.7272 -1.3341 0.9677
2.3960 10.1241 -1.7139 0.9587
1.9081 15.1728 -2.5192 0.9399
0.8002 14.9201 -2.4615 0.9412
-0.8241 15.3314 -2.5293 0.9397
-2.3820 14.6683 -2.4481 0.9415
-3.3532 14.1615 -2.3975 0.9427
-4.7075 13.3170 -2.3269 0.9443
-5.1314 13.0154 -2.3048 0.9449
-5.5415 12.7047 -2.2834 0.9454
-5.9380 12.3854 -2.2627 0.9458
-6.3208 12.0579 -2.2428 0.9463
-6.6900 11.7227 -2.2235 0.9468
-7.0456 11.3804 -2.2050 0.9472
-7.3878 11.0313 -2.1872 0.9476
-8.3343 9.9474 -2.1379 0.9488
-8.6234 9.5751 -2.1228 0.9491
-8.8995 9.1979 -2.1084 0.9494
-9.8758 7.6464 -2.0576 0.9506
-10.4762 6.4455 -2.0263 0.9514
-10.8151 5.6310 -2.0087 0.9518
-10.9663 5.2202 -2.0008 0.9520
-11.4521 3.5581 -1.9756 0.9525
-11.5441 3.1388 -1.9708 0.9527
-11.6929 2.2968 -1.9631 0.9528
-11.7498 1.8744 -1.9601 0.9529
-11.7952 1.4514 -1.9578 0.9530
-11.8290 1.0278 -1.9560 0.9530
-11.8513 0.6039 -1.9549 0.9530
-11.8489 -0.6686 -1.9551 0.9530
-11.6843 -2.3614 -1.9638 0.9528
-11.5323 -3.2032 -1.9717 0.9526
-11.4388 -3.6225 -1.9766 0.9525
-11.2163 -4.4567 -1.9883 0.9522
-11.0873 -4.8714 -1.9950 0.9521
-10.6283 -6.1031 -2.0190 0.9515
-10.2616 -6.9121 -2.0382 0.9511
2.4776 1.7808 -0.5735 0.9877
2.4765 1.9179 -0.5888 0.9873
2.4753 2.0627 -0.6056 0.9870
2.4739 2.2162 -0.6243 0.9866
2.4725 2.3796 -0.6450 0.9861
2.4709 2.5544 -0.6680 0.9856
2.4666 2.7395 -0.6929 0.9851
2.4626 3.1632 -0.7535 0.9838
2.4576 3.6706 -0.8303 0.9822
2.4546 3.9659 -0.8767 0.9812
2.4310 6.1683 -1.2462 0.9734
2.4139 7.6969 -1.5162 0.9677
1.6640 13.2316 -2.5066 0.9472
1.1778 13.1482 -2.4812 0.9477
-0.7238 13.4656 -2.5346 0.9466
-1.1931 13.3014 -2.5102 0.9471
-2.1003 12.9338 -2.4629 0.9481
-2.5376 12.7314 -2.4401 0.9485
-2.9639 12.5175 -2.4179 0.9490
-3.3791 12.2925 -2.3962 0.9494
-4.1753 11.8114 -2.3547 0.9503
-4.5561 11.5563 -2.3349 0.9507
-7.4605 8.9045 -2.1835 0.9538
-7.9780 8.2455 -2.1565 0.9544
-8.2195 7.9086 -2.1440 0.9546
-8.4495 7.5672 -2.1320 0.9549
-9.5918 5.4385 -2.0725 0.9561
-9.7429 5.0728 -2.0646 0.9563
-9.8831 4.7045 -2.0574 0.9564
-10.0122 4.3340 -2.0506 0.9566
-10.3337 3.2106 -2.0339 0.9569
-10.4191 2.8329 -2.0295 0.9570
-10.4937 2.4539 -2.0256 0.9571
-10.5575 2.0738 -2.0223 0.9572
-10.7048 0.5455 -2.0147 0.9573
-10.7027 -0.6039 -2.0149 0.9573
-10.6805 -0.9868 -2.0161 0.9573
-10.6475 -1.3692 -2.0178 0.9572
-10.6038 -1.7510 -2.0201 0.9572
-10.5494 -2.1320 -2.0230 0.9571
-10.4841 -2.5121 -2.0264 0.9571
-10.4080 -2.8909 -2.0304 0.9570
-10.3211 -3.2686 -2.0349 0.9569
-10.2233 -3.6446 -2.0400 0.9568
-10.1146 -4.0190 -2.0457 0.9567
-9.8643 -4.7617 -2.0588 0.9564
-9.7226 -5.1298 -2.0662 0.9562
-9.5698 -5.4953 -2.0742 0.9561
-9.2312 -6.2175 -2.0919 0.9557
2.4740 1.7782 -0.6440 0.9876
2.4728 1.9150 -0.6611 0.9873
2.4700 2.2126 -0.7010 0.9865
2.4685 2.3757 -0.7242 0.9861
2.4552 3.3977 -0.8861 0.9830
2.4523 3.6627 -0.9317 0.9821
2.4453 4.2860 -1.0430 0.9800
2.4410 4.6579 -1.1116 0.9787
2.4360 5.0824 -1.1913 0.9772
2.4301 5.5731 -1.2852 0.9754
2.4231 6.1482 -1.3969 0.9733
2.4044 7.6666 -1.6984 0.9677
2.3726 10.0256 -2.1777 0.9588
2.3489 11.7916 -2.5415 0.9520
1.6629 10.2484 -2.1946 0.9584
1.4739 11.7194 -2.4968 0.9529
1.0444 11.6591 -2.4744 0.9533
-1.4745 11.7137 -2.4956 0.9529
-2.6533 11.2056 -2.4341 0.9540
-5.0697 9.6713 -2.3082 0.9563
-5.3750 9.4185 -2.2923 0.9566
-6.7471 8.0531 -2.2208 0.9580
-7.4465 7.1648 -2.1843 0.9586
-8.0527 6.2348 -2.1528 0.9592
-8.9877 4.2783 -2.1041 0.9601
-9.2177 3.6045 -2.0921 0.9603
-9.3175 3.2645 -2.0869 0.9604
-9.4869 2.5794 -2.0781 0.9606
-9.5564 2.2347 -2.0745 0.9607
-9.6158 1.8888 -2.0714 0.9607
-9.7047 1.1942 -2.0668 0.9608
-9.7534 0.4970 -2.0643 0.9609
-9.7627 0.1479 -2.0639 0.9609
-9.7513 -0.5503 -2.0645 0.9609
-9.6998 -1.2473 -2.0672 0.9608
-9.6590 -1.5950 -2.0694 0.9608
-9.4764 -2.6322 -2.0790 0.9606
-8.8383 -4.6632 -2.1123 0.9600
-8.6964 -4.9938 -2.1198 0.9598
-8.3818 -5.6459 -2.1362 0.9595
2.4704 1.7756 -0.7150 0.9876
2.4691 1.9122 -0.7340 0.9872
2.4677 2.0563 -0.7549 0.9869
2.4661 2.2091 -0.7781 0.9865
2.4644 2.3718 -0.8039 0.9860
2.4625 2.5457 -0.8324 0.9856
2.4554 2.9314 -0.8987 0.9844
2.4529 3.1508 -0.9385 0.9837
2.4470 3.6547 -1.0337 0.9821
2.4346 4.6457 -1.2327 0.9787
2.4228 5.5563 -1.4246 0.9754
2.3801 8.6625 -2.1113 0.9638
1.6635 10.2518 -2.4409 0.9582
1.3214 10.5072 -2.4889 0.9574
0.9373 10.4628 -2.4688 0.9578
0.5581 10.4056 -2.4491 0.9581
0.1844 10.3477 -2.4323 0.9584
-1.3302 10.5674 -2.5032 0.9572
-2.0507 10.2885 -2.4656 0.9578
-3.0727 9.7935 -2.4123 0.9587
-3.3969 9.6096 -2.3954 0.9590
-3.7126 9.4168 -2.3790 0.9593
-4.0197 9.2156 -2.3630 0.9595
-4.8879 8.5650 -2.3177 0.9603
-5.1593 8.3336 -2.3036 0.9605
-6.5942 6.8154 -2.2288 0.9618
-6.8007 6.5435 -2.2180 0.9620
-6.9978 6.2670 -2.2078 0.9621
-7.1854 5.9862 -2.1980 0.9623
-7.6917 5.1203 -2.1716 0.9627
-8.2346 3.9198 -2.1434 0.9632
-8.3466 3.6130 -2.1376 0.9633
-8.4493 3.3040 -2.1322 0.9634
-8.5426 2.9930 -2.1274 0.9635
-8.6264 2.6802 -2.1230 0.9636
-8.7659 2.0499 -2.1158 0.9637
-8.8677 1.4147 -2.1105 0.9638
-8.9046 1.0957 -2.1086 0.9638
-8.9583 -0.1846 -2.1059 0.9639
-8.9482 -0.5049 -2.1064 0.9638
-8.9288 -0.8249 -2.1074 0.9638
-8.9000 -1.1445 -2.1089 0.9638
-8.8143 -1.7813 -2.1134 0.9637
-8.7573 -2.0983 -2.1164 0.9637
-8.6909 -2.4140 -2.1199 0.9636
-8.4354 -3.3517 -2.1333 0.9634
-8.0950 -4.2711 -2.1511 0.9631
-7.9626 -4.5724 -2.1580 0.9630
-7.6696 -5.1662 -2.1733 0.9627
2.4668 1.7730 -0.7865 0.9875
2.4653 1.9093 -0.8074 0.9872
2.4621 2.2056 -0.8559 0.9864
2.4603 2.3678 -0.8841 0.9860
2.4532 2.7246 -0.9493 0.9850
2.4508 2.9258 -0.9882 0.9844
2.4450 3.3835 -1.0808 0.9829
2.4416 3.6467 -1.1363 0.9820
2.4155 5.5396 -1.5647 0.9753
2.4072 6.1080 -1.6999 0.9732
2.3853 7.6057 -2.0638 0.9676
2.3698 8.6250 -2.3159 0.9637
1.9008 9.5421 -2.5191 0.9606
1.1963 9.5127 -2.4824 0.9612
0.1672 9.3788 -2.4287 0.9620
-0.1776 9.8986 -2.5633 0.9599
-0.5276 9.8155 -2.5451 0.9602
-1.2105 9.6163 -2.5095 0.9607
-1.5428 9.5008 -2.4921 0.9610
-1.8687 9.3752 -2.4751 0.9613
-2.1878 9.2398 -2.4585 0.9615
-3.3936 8.6077 -2.3956 0.9625
-3.6764 8.4287 -2.3809 0.9627
-3.9515 8.2419 -2.3666 0.9629
-4.7289 7.6384 -2.3260 0.9636
-5.2064 7.2030 -2.3012 0.9639
-5.4326 6.9764 -2.2894 0.9641
-5.6504 6.7441 -2.2780 0.9643
-5.8597 6.5064 -2.2671 0.9645
-6.0605 6.2637 -2.2567 0.9646
-6.2527 6.0162 -2.2466 0.9648
-6.4363 5.7642 -2.2371 0.9649
-6.9350 4.9834 -2.2111 0.9653
-7.2239 4.4446 -2.1961 0.9656
-7.4778 3.8934 -2.1829 0.9658
-7.8802 2.7609 -2.1619 0.9661
-8.0286 2.1829 -2.1542 0.9662
-8.2198 1.0115 -2.1443 0.9664
-8.2456 0.7165 -2.1430 0.9664
-8.2707 0.1253 -2.1417 0.9664
-8.2701 -0.1704 -2.1417 0.9664
-8.2607 -0.4661 -2.1423 0.9664
-8.2425 -0.7615 -2.1432 0.9664
-8.2154 -1.0564 -2.1446 0.9664
-8.1349 -1.6440 -2.1489 0.9663
-8.0815 -1.9364 -2.1517 0.9662
-7.8683 -2.8050 -2.1628 0.9661
-7.6822 -3.3753 -2.1726 0.9659
-7.5759 -3.6571 -2.1781 0.9658
-7.4609 -3.9365 -2.1842 0.9657
-7.3370 -4.2132 -2.1906 0.9656
-7.2045 -4.4870 -2.1976 0.9655
-7.0631 -4.7576 -2.2049 0.9654
2.4630 1.7703 -0.8587 0.9875
2.4581 2.2020 -0.9343 0.9864
2.4562 2.3638 -0.9650 0.9859
2.4460 2.9202 -1.0784 0.9843
2.4399 3.3764 -1.1793 0.9828
2.4362 3.6386 -1.2396 0.9820
2.4320 3.9294 -1.3082 0.9810
2.4155 5.0397 -1.5821 0.9770
2.4081 5.5227 -1.7056 0.9753
2.3993 6.0878 -1.8524 0.9732
2.3887 6.7600 -2.0297 0.9706
2.3757 7.5751 -2.2474 0.9675
2.0560 8.6875 -2.5273 0.9636
1.4109 8.6948 -2.4936 0.9640
1.0918 8.6814 -2.4770 0.9643
0.7755 8.6568 -2.4605 0.9645
0.4624 8.6214 -2.4442 0.9647
0.1528 8.5754 -2.4280 0.9650
-0.1625 9.0562 -2.5642 0.9630
-0.4830 8.9857 -2.5474 0.9633
-1.7146 8.6025 -2.4832 0.9642
-2.0086 8.4830 -2.4679 0.9644
-2.2966 8.3547 -2.4529 0.9646
-2.5783 8.2178 -2.4382 0.9648
-3.1222 7.9193 -2.4098 0.9652
-3.6390 7.5901 -2.3829 0.9656
-3.8869 7.4148 -2.3700 0.9658
-4.1275 7.2326 -2.3574 0.9660
-4.8051 6.6479 -2.3221 0.9665
-5.2190 6.2291 -2.3006 0.9668
-5.6018 5.7896 -2.2806 0.9671
-5.9530 5.3314 -2.2623 0.9673
-6.2723 4.8564 -2.2457 0.9676
-6.4199 4.6132 -2.2380 0.9677
-6.5594 4.3665 -2.2307 0.9678
-6.6908 4.1165 -2.2239 0.9679
-6.9290 3.6077 -2.2115 0.9680
-7.0358 3.3492 -2.2059 0.9681
-7.1345 3.0883 -2.2008 0.9682
-7.2248 2.8252 -2.1961 0.9683
-7.3808 2.2932 -2.1880 0.9684
-7.4465 2.0247 -2.1846 0.9684
-7.5530 1.4836 -2.1791 0.9685
-7.5938 1.2114 -2.1769 0.9685
-7.6263 0.9384 -2.1753 0.9686
-7.6506 0.6648 -2.1740 0.9686
-7.6743 0.1163 -2.1728 0.9686
-7.6737 -0.1582 -2.1729 0.9686
-7.6649 -0.4325 -2.1733 0.9686
-7.6477 -0.7066 -2.1742 0.9686
-7.6222 -0.9802 -2.1756 0.9686
-7.5465 -1.5251 -2.1796 0.9685
-7.4962 -1.7961 -2.1822 0.9685
-7.3708 -2.3342 -2.1888 0.9684
-7.2957 -2.6009 -2.1927 0.9683
-6.9130 -3.6474 -2.2127 0.9680
-6.7968 -3.9029 -2.2188 0.9679
2.4594 1.7677 -0.9316 0.9874
2.4520 2.3598 -1.0467 0.9859
2.4440 2.7145 -1.1235 0.9848
2.4412 2.9145 -1.1694 0.9842
2.4154 4.6090 -1.6005 0.9785
2.4007 5.5056 -1.8474 0.9752
2.3661 7.5444 -2.4319 0.9675
1.8857 7.9679 -2.5184 0.9663
1.2954 7.9835 -2.4877 0.9667
1.0030 7.9755 -2.4724 0.9669
0.4253 7.9289 -2.4423 0.9673
0.1406 7.8908 -2.4274 0.9675
-0.1496 8.3376 -2.5649 0.9657
-0.4449 8.2769 -2.5495 0.9659
-0.7361 8.2065 -2.5343 0.9661
-1.3052 8.0377 -2.5046 0.9665
-1.8548 7.8332 -2.4760 0.9669
-2.1217 7.7183 -2.4620 0.9671
-3.1318 7.1801 -2.4094 0.9677
-3.8245 6.7015 -2.3733 0.9682
-4.0422 6.5291 -2.3619 0.9684
-4.2531 6.3507 -2.3509 0.9685
-4.4572 6.1666 -2.3403 0.9687
-4.8444 5.7820 -2.3201 0.9689
-5.0273 5.5821 -2.3106 0.9691
-5.2029 5.3774 -2.3014 0.9692
-5.3713 5.1682 -2.2927 0.9693
-5.5323 4.9546 -2.2843 0.9694
-5.6860 4.7370 -2.2763 0.9695
-5.8321 4.5155 -2.2687 0.9696
-5.9707 4.2904 -2.2614 0.9697
-6.1019 4.0619 -2.2546 0.9698
-6.2254 3.8302 -2.2482 0.9699
-6.5501 3.1180 -2.2313 0.9701
-6.6430 2.8756 -2.2265 0.9702
-6.7281 2.6310 -2.2220 0.9702
-6.8055 2.3844 -2.2180 0.9703
-6.8752 2.1361 -2.2144 0.9703
-6.9912 1.6349 -2.2084 0.9704
-7.0375 1.3823 -2.2060 0.9704
-7.1447 0.3641 -2.2004 0.9705
-7.1268 -0.6585 -2.2014 0.9705
-7.0314 -1.4210 -2.2064 0.9704
-6.9839 -1.6734 -2.2089 0.9704
-6.9287 -1.9245 -2.2118 0.9704
-6.7949 -2.4224 -2.2188 0.9703
-6.7164 -2.6687 -2.2229 0.9702
-6.6301 -2.9130 -2.2274 0.9701
-6.5361 -3.1552 -2.2323 0.9701
-6.2080 -3.8664 -2.2495 0.9699
2.4556 1.7650 -1.0052 0.9873
2.4394 2.7093 -1.2118 0.9848
2.4364 2.9087 -1.2613 0.9841
2.4331 3.1253 -1.3166 0.9834
2.4252 3.6222 -1.4490 0.9818
2.4205 3.9107 -1.5288 0.9808
2.3932 5.4885 -1.9903 0.9751
2.3711 6.7103 -2.3657 0.9704
2.0127 7.3250 -2.5251 0.9685
1.7396 7.3505 -2.5109 0.9687
1.4673 7.3661 -2.4966 0.9688
0.6589 7.3546 -2.4545 0.9694
0.1302 7.2999 -2.4269 0.9697
-0.1384 7.7167 -2.5655 0.9680
-0.6819 7.6022 -2.5371 0.9683
-1.2101 7.4522 -2.5096 0.9687
-1.9695 7.1649 -2.4700 0.9692
-2.2130 7.0535 -2.4573 0.9693
-2.9117 6.6755 -2.4209 0.9698
-3.7633 6.0787 -2.3765 0.9703
-4.1524 5.7448 -2.3562 0.9706
-4.3373 5.5698 -2.3466 0.9707
-4.5157 5.3897 -2.3373 0.9708
-4.6875 5.2048 -2.3283 0.9709
-4.8526 5.0153 -2.3197 0.9710
-5.0109 4.8214 -2.3115 0.9711
-5.1624 4.6234 -2.3036 0.9712
-5.6988 3.7936 -2.2757 0.9716
-5.9246 3.3592 -2.2639 0.9717
-6.2897 2.4596 -2.2449 0.9719
-6.3628 2.2293 -2.2411 0.9720
-6.4286 1.9973 -2.2377 0.9720
-6.5382 1.5289 -2.2320 0.9721
-6.6475 0.8180 -2.2263 0.9722
-6.6691 0.5795 -2.2252 0.9722
-6.6834 0.3406 -2.2245 0.9722
-6.6902 0.1014 -2.2241 0.9722
-6.6897 -0.1379 -2.2242 0.9722
-6.6818 -0.3770 -2.2246 0.9722
-6.6665 -0.6159 -2.2254 0.9722
-6.6136 -1.0921 -2.2282 0.9721
-6.4791 -1.7997 -2.2352 0.9721
-6.3527 -2.2647 -2.2419 0.9720
-6.1083 -2.9487 -2.2546 0.9718
-5.9091 -3.3932 -2.2651 0.9717
2.4518 1.7622 -1.0797 0.9873
2.4436 2.3517 -1.2128 0.9857
2.4316 2.9029 -1.3542 0.9840
2.4280 3.1188 -1.4134 0.9833
2.4196 3.6139 -1.5553 0.9817
2.4146 3.9012 -1.6407 0.9807
2.4023 4.5840 -1.8507 0.9783
2.3946 4.9961 -1.9813 0.9767
2.3857 5.4712 -2.1344 0.9750
2.3750 6.0262 -2.3163 0.9729
1.6128 6.8146 -2.5043 0.9707
1.1099 6.8400 -2.4780 0.9710
0.1209 6.7842 -2.4265 0.9716
-0.3831 7.1281 -2.5527 0.9701
-0.8824 7.0103 -2.5267 0.9704
-1.1268 6.9391 -2.5140 0.9706
-1.3674 6.8600 -2.5014 0.9707
-1.8359 6.6788 -2.4770 0.9710
-2.0636 6.5773 -2.4651 0.9711
-2.5047 6.3532 -2.4421 0.9714
-2.9258 6.1026 -2.4202 0.9717
-3.1284 5.9679 -2.4096 0.9718
-3.3255 5.8273 -2.3993 0.9719
-3.5171 5.6809 -2.3894 0.9720
-4.0568 5.2096 -2.3612 0.9723
-4.2248 5.0425 -2.3525 0.9724
-4.3865 4.8707 -2.3440 0.9725
-4.8343 4.3295 -2.3207 0.9728
-4.9707 4.1412 -2.3136 0.9729
-5.1006 3.9492 -2.3068 0.9730
-5.2239 3.7538 -2.3004 0.9730
-5.4508 3.3536 -2.2886 0.9732
-5.6507 2.9421 -2.2782 0.9733
-5.7404 2.7326 -2.2735 0.9734
-5.8234 2.5208 -2.2692 0.9734
-6.0863 1.6549 -2.2556 0.9736
-6.1763 1.2132 -2.2509 0.9736
-6.2107 0.9908 -2.2491 0.9736
-6.2383 0.7676 -2.2477 0.9737
-6.2788 0.0952 -2.2456 0.9737
-6.2783 -0.1294 -2.2456 0.9737
-6.2347 -0.8017 -2.2479 0.9736
-5.9591 -2.1244 -2.2624 0.9735
-5.8889 -2.3399 -2.2661 0.9734
-5.8118 -2.5535 -2.2701 0.9734
-5.5395 -3.1809 -2.2843 0.9732
-5.4351 -3.3850 -2.2898 0.9732
-5.3241 -3.5862 -2.2956 0.9731
2.4460 1.8943 -1.1856 0.9868
2.4440 2.0366 -1.2191 0.9865
2.4417 2.1873 -1.2562 0.9861
2.4392 2.3475 -1.2973 0.9856
2.4365 2.5188 -1.3429 0.9851
2.4266 2.8970 -1.4482 0.9839
2.4187 3.3472 -1.5825 0.9825
2.3668 6.0054 -2.4736 0.9727
1.7359 6.3175 -2.5107 0.9723
1.5015 6.3445 -2.4985 0.9725
1.2675 6.3629 -2.4863 0.9726
1.0341 6.3728 -2.4741 0.9727
0.8016 6.3743 -2.4620 0.9729
0.3407 6.3527 -2.4379 0.9731
0.1128 6.3297 -2.4261 0.9732
-0.1201 6.6962 -2.5665 0.9717
-0.5926 6.6064 -2.5419 0.9720
-0.8244 6.5497 -2.5298 0.9721
-1.4998 6.3343 -2.4945 0.9725
-1.7175 6.2481 -2.4832 0.9726
-1.9311 6.1550 -2.4721 0.9727
-2.3453 5.9488 -2.4505 0.9730
-2.9318 5.5928 -2.4199 0.9733
-3.4728 5.1856 -2.3917 0.9736
-3.9651 4.7326 -2.3660 0.9739
-4.1179 4.5724 -2.3581 0.9740
-4.5410 4.0668 -2.3360 0.9742
-4.9096 3.5279 -2.3168 0.9744
-5.0201 3.3418 -2.3111 0.9745
-5.1243 3.1528 -2.3057 0.9746
-5.3988 2.5700 -2.2914 0.9747
-5.4774 2.3711 -2.2873 0.9748
-5.5496 2.1701 -2.2835 0.9748
-5.8710 0.7224 -2.2668 0.9750
-5.8904 0.5118 -2.2658 0.9750
-5.9094 0.0896 -2.2649 0.9750
-5.9090 -0.1218 -2.2649 0.9750
-5.9018 -0.3330 -2.2653 0.9750
-5.8880 -0.5440 -2.2660 0.9750
-5.8405 -0.9644 -2.2685 0.9750
-5.7665 -1.3817 -2.2724 0.9749
-5.7196 -1.5887 -2.2749 0.9749
-5.6662 -1.7944 -2.2777 0.9749
-5.6061 -1.9986 -2.2808 0.9748
-5.5395 -2.2011 -2.2843 0.9748
-5.1095 -3.1822 -2.3068 0.9745
-5.0043 -3.3709 -2.3123 0.9745
2.4440 1.7566 -1.2318 0.9871
2.4420 1.8912 -1.2641 0.9867
2.4348 2.3433 -1.3831 0.9855
2.4252 2.6935 -1.4834 0.9845
2.4177 3.1055 -1.6108 0.9831
2.4083 3.5970 -1.7716 0.9815
2.4027 3.8820 -1.8685 0.9805
2.3963 4.2001 -1.9791 0.9793
2.3889 4.5584 -2.1063 0.9780
2.2746 5.7712 -2.5388 0.9735
2.0576 5.8228 -2.5275 0.9737
1.8397 5.8661 -2.5162 0.9738
1.6215 5.9013 -2.5048 0.9739
1.4030 5.9284 -2.4934 0.9740
0.9669 5.9587 -2.4706 0.9742
0.7498 5.9620 -2.4593 0.9744
0.3189 5.9454 -2.4368 0.9746
-0.3351 6.2345 -2.5553 0.9734
-0.5553 6.1906 -2.5438 0.9735
-0.7728 6.1393 -2.5325 0.9736
-0.9874 6.0807 -2.5213 0.9737
-1.1989 6.0151 -2.5103 0.9738
-1.8127 5.7776 -2.4783 0.9742
-2.0097 5.6854 -2.4680 0.9743
-2.2027 5.5870 -2.4579 0.9744
-2.5758 5.3725 -2.4385 0.9746
-2.9307 5.1354 -2.4200 0.9748
-3.4267 4.7409 -2.3941 0.9750
-3.5819 4.5998 -2.3860 0.9751
-3.7318 4.4541 -2.3782 0.9752
-3.8764 4.3042 -2.3707 0.9753
-4.0154 4.1501 -2.3634 0.9754
-4.1490 3.9921 -2.3565 0.9754
-4.3992 3.6650 -2.3435 0.9756
-4.8300 2.9717 -2.3210 0.9758
-5.0097 2.6084 -2.3117 0.9759
-5.0906 2.4232 -2.3075 0.9759
-5.1652 2.2359 -2.3036 0.9760
-5.2337 2.0466 -2.3000 0.9760
-5.4022 1.4688 -2.2913 0.9761
-5.4458 1.2735 -2.2890 0.9761
-5.4832 1.0771 -2.2870 0.9761
-5.5577 0.4829 -2.2832 0.9762
-5.5757 0.0845 -2.2823 0.9762
-5.5685 -0.3142 -2.2827 0.9762
-5.5554 -0.5132 -2.2834 0.9762
-5.5360 -0.7119 -2.2844 0.9762
-5.4782 -1.1071 -2.2874 0.9761
-5.3953 -1.4986 -2.2918 0.9761
-5.2241 -2.0758 -2.3007 0.9760
-5.1547 -2.2648 -2.3044 0.9760
-5.0791 -2.4518 -2.3083 0.9759
-4.9975 -2.6367 -2.3126 0.9759
-4.7162 -3.1768 -2.3273 0.9757
2.4380 1.8881 -1.3439 0.9866
2.4357 2.0297 -1.3818 0.9863
2.4332 2.1796 -1.4237 0.9858
2.4304 2.3391 -1.4701 0.9854
2.4124 3.0987 -1.7115 0.9830
2.4078 3.3320 -1.7916 0.9822
2.3966 3.8721 -1.9846 0.9803
2.3821 4.5454 -2.2365 0.9779
2.3731 4.9512 -2.3928 0.9763
2.1297 5.4037 -2.5313 0.9750
1.5195 5.5302 -2.4995 0.9753
1.1109 5.5767 -2.4782 0.9755
0.5009 5.5909 -2.4463 0.9758
0.2994 5.5811 -2.4358 0.9759
-0.1056 5.8898 -2.5673 0.9746
-0.3148 5.8573 -2.5564 0.9747
-0.7264 5.7709 -2.5349 0.9749
-0.9284 5.7174 -2.5244 0.9750
-1.5166 5.5173 -2.4937 0.9753
-1.8920 5.3524 -2.4741 0.9755
-2.0742 5.2611 -2.4646 0.9756
-2.4266 5.0614 -2.4463 0.9758
-2.5966 4.9534 -2.4374 0.9759
-2.9233 4.7220 -2.4204 0.9761
-3.0799 4.5989 -2.4122 0.9761
-4.1538 3.4606 -2.3563 0.9767
-4.2645 3.3018 -2.3505 0.9767
-4.7340 2.4648 -2.3261 0.9770
-4.9470 1.9345 -2.3150 0.9771
-5.0063 1.7540 -2.3119 0.9771
-5.0597 1.5721 -2.3091 0.9771
-5.1072 1.3887 -2.3066 0.9772
-5.2724 0.0799 -2.2981 0.9773
-5.2530 -0.4853 -2.2991 0.9772
-5.2346 -0.6731 -2.3001 0.9772
-5.1431 -1.2323 -2.3049 0.9772
-5.0523 -1.6000 -2.3097 0.9771
-4.9980 -1.7818 -2.3125 0.9771
-4.7999 -2.3170 -2.3229 0.9770
-4.6388 -2.6637 -2.3313 0.9769
2.4314 2.0261 -1.4650 0.9861
2.4259 2.3347 -1.5585 0.9853
2.4114 2.8789 -1.7383 0.9836
2.4071 3.0918 -1.8137 0.9829
2.3967 3.5796 -1.9940 0.9812
2.3904 3.8621 -2.1024 0.9802
2.3833 4.1774 -2.2262 0.9790
2.3657 4.9358 -2.5336 0.9762
2.1884 5.0188 -2.5344 0.9762
1.8100 5.1221 -2.5146 0.9763
1.6193 5.1631 -2.5047 0.9764
1.4279 5.1969 -2.4947 0.9765
1.0445 5.2433 -2.4747 0.9767
0.8529 5.2559 -2.4647 0.9768
0.6617 5.2617 -2.4547 0.9769
0.4713 5.2606 -2.4448 0.9770
0.0934 5.2383 -2.4251 0.9772
-0.0995 5.5461 -2.5676 0.9758
-0.2965 5.5169 -2.5574 0.9759
-0.4916 5.4809 -2.5472 0.9760
-0.6846 5.4382 -2.5371 0.9761
-0.8751 5.3891 -2.5272 0.9762
-1.0630 5.3336 -2.5174 0.9763
-1.2483 5.2718 -2.5077 0.9764
-1.4305 5.2040 -2.4982 0.9765
-1.9578 4.9657 -2.4707 0.9767
-2.2913 4.7792 -2.4533 0.9769
-2.6093 4.5722 -2.4368 0.9771
-2.9104 4.3459 -2.4211 0.9772
-3.0544 4.2259 -2.4136 0.9773
-3.3288 3.9731 -2.3993 0.9774
-3.4589 3.8407 -2.3925 0.9775
-3.5842 3.7044 -2.3860 0.9775
-3.7046 3.5645 -2.3797 0.9776
-3.8200 3.4211 -2.3737 0.9777
-3.9303 3.2744 -2.3679 0.9777
-4.1355 2.9717 -2.3572 0.9778
-4.2303 2.8160 -2.3523 0.9778
-4.3196 2.6577 -2.3477 0.9779
-4.4037 2.4969 -2.3433 0.9779
-4.7417 1.6613 -2.3257 0.9781
-4.7926 1.4890 -2.3230 0.9781
-4.8379 1.3154 -2.3207 0.9781
-4.8775 1.1406 -2.3186 0.9782
-4.9114 0.9647 -2.3169 0.9782
-4.9900 0.2543 -2.3128 0.9782
-4.9954 0.0757 -2.3125 0.9782
-4.9949 -0.1029 -2.3126 0.9782
-4.8316 -1.3420 -2.3212 0.9781
-4.6764 -1.8581 -2.3293 0.9781
-4.3916 -2.5218 -2.3442 0.9779
-4.3068 -2.6823 -2.3486 0.9779
-4.2166 -2.8403 -2.3533 0.9778
2.4319 1.7479 -1.4691 0.9867
2.4296 1.8816 -1.5074 0.9864
2.4271 2.0225 -1.5497 0.9860
2.4213 2.3303 -1.6484 0.9851
2.3907 3.5706 -2.1078 0.9810
2.3842 3.8520 -2.2221 0.9800
2.0597 4.7236 -2.5277 0.9773
1.8826 4.7766 -2.5184 0.9774
1.7043 4.8230 -2.5091 0.9775
1.3452 4.8956 -2.4904 0.9776
1.1648 4.9219 -2.4810 0.9777
0.9844 4.9416 -2.4716 0.9778
0.4445 4.9614 -2.4434 0.9781
0.0881 4.9426 -2.4248 0.9782
-0.2799 5.2078 -2.5582 0.9770
-0.6465 5.1358 -2.5391 0.9772
-0.8266 5.0905 -2.5297 0.9773
-1.0044 5.0392 -2.5205 0.9774
-1.5217 4.8502 -2.4935 0.9776
-1.6883 4.7760 -2.4848 0.9777
-1.8516 4.6964 -2.4763 0.9778
-2.1679 4.5218 -2.4598 0.9779
-2.3207 4.4270 -2.4518 0.9780
-2.4696 4.3275 -2.4441 0.9780
-2.6146 4.2233 -2.4365 0.9781
-2.7556 4.1147 -2.4292 0.9782
-3.1533 3.7636 -2.4084 0.9784
-3.5107 3.3780 -2.3898 0.9785
-3.8258 2.9622 -2.3734 0.9787
-4.1766 2.3681 -2.3551 0.9788
-4.2515 2.2136 -2.3512 0.9789
-4.3213 2.0571 -2.3476 0.9789
-4.4989 1.5762 -2.3384 0.9790
-4.6608 0.9155 -2.3299 0.9791
-4.6878 0.7479 -2.3286 0.9791
-4.7093 0.5795 -2.3274 0.9791
-4.7253 0.4106 -2.3266 0.9791
-4.7358 0.2413 -2.3261 0.9791
-4.7410 0.0719 -2.3258 0.9791
-4.7405 -0.0977 -2.3258 0.9791
-4.7346 -0.2671 -2.3262 0.9791
-4.7233 -0.4364 -2.3268 0.9791
-4.6841 -0.7735 -2.3288 0.9791
-4.6564 -0.9410 -2.3303 0.9791
-4.5846 -1.2734 -2.3340 0.9790
-4.5407 -1.4379 -2.3363 0.9790
-4.4366 -1.7629 -2.3418 0.9790
-4.3113 -2.0812 -2.3483 0.9789
-4.2408 -2.2375 -2.3520 0.9789
2.4253 1.8783 -1.5914 0.9863
2.4166 2.3258 -1.7400 0.9850
2.4052 2.6713 -1.8648 0.9839
2.2716 4.3346 -2.5388 0.9782
2.1080 4.3982 -2.5302 0.9783
1.9428 4.4555 -2.5216 0.9783
1.7761 4.5065 -2.5129 0.9784
1.6082 4.5512 -2.5041 0.9785
1.2699 4.6217 -2.4865 0.9786
0.9297 4.6671 -2.4687 0.9788
0.7595 4.6804 -2.4599 0.9789
0.4200 4.6887 -2.4422 0.9790
0.2512 4.6838 -2.4334 0.9791
0.0833 4.6729 -2.4246 0.9792
-0.4391 4.8957 -2.5499 0.9781
-0.6117 4.8596 -2.5409 0.9782
-0.7823 4.8177 -2.5320 0.9782
-0.9507 4.7700 -2.5233 0.9783
-1.2804 4.6579 -2.5061 0.9785
-1.9062 4.3702 -2.4735 0.9787
-2.0548 4.2858 -2.4657 0.9788
-2.1999 4.1967 -2.4581 0.9789
-2.4794 4.0049 -2.4436 0.9790
-2.6135 3.9025 -2.4366 0.9791
-2.7437 3.7959 -2.4298 0.9791
-2.8698 3.6854 -2.4232 0.9792
-2.9919 3.5710 -2.4169 0.9792
-3.1097 3.4530 -2.4107 0.9793
-3.3325 3.2064 -2.3991 0.9794
-3.4371 3.0782 -2.3937 0.9794
-3.5372 2.9469 -2.3884 0.9795
-3.7236 2.6757 -2.3787 0.9795
-3.8097 2.5361 -2.3743 0.9796
-4.1055 1.9543 -2.3589 0.9797
-4.2751 1.4979 -2.3500 0.9798
-4.4914 0.3903 -2.3388 0.9799
-4.5014 0.2294 -2.3383 0.9799
-4.5060 -0.0929 -2.3381 0.9799
-4.5003 -0.2539 -2.3384 0.9799
-4.4894 -0.4148 -2.3390 0.9799
-4.4733 -0.5752 -2.3398 0.9799
-4.4255 -0.8944 -2.3423 0.9799
-4.2156 -1.6750 -2.3533 0.9798
-4.0287 -2.1256 -2.3631 0.9797
-3.8793 -2.4160 -2.3709 0.9796
-3.7973 -2.5578 -2.3752 0.9796
2.4234 1.7418 -1.6346 0.9865
2.4209 1.8749 -1.6771 0.9861
2.3999 2.6655 -1.9644 0.9838
2.3904 3.0704 -2.1312 0.9824
2.3848 3.3002 -2.2300 0.9816
2.3713 3.8312 -2.4678 0.9797
2.2983 4.0284 -2.5402 0.9791
1.9920 4.1560 -2.5242 0.9792
1.8362 4.2109 -2.5161 0.9793
1.6789 4.2600 -2.5078 0.9793
0.7188 4.4295 -2.4578 0.9797
0.2379 4.4352 -2.4327 0.9799
0.0789 4.4258 -2.4244 0.9800
-0.5798 4.6060 -2.5426 0.9791
-0.7416 4.5671 -2.5342 0.9791
-0.9015 4.5228 -2.5258 0.9792
-1.0591 4.4730 -2.5176 0.9793
-1.2144 4.4180 -2.5095 0.9793
-1.5175 4.2928 -2.4937 0.9794
-1.6648 4.2227 -2.4860 0.9795
-1.9506 4.0684 -2.4711 0.9796
-2.0887 3.9845 -2.4640 0.9797
-2.2234 3.8961 -2.4569 0.9797
-2.4825 3.7068 -2.4434 0.9799
-2.7267 3.5016 -2.4307 0.9800
-2.8430 3.3933 -2.4246 0.9800
-3.4544 2.6746 -2.3928 0.9803
-3.5411 2.5446 -2.3883 0.9803
-3.9059 1.8593 -2.3693 0.9805
-3.9647 1.7162 -2.3662 0.9805
-4.0187 1.5715 -2.3634 0.9805
-4.0680 1.4253 -2.3608 0.9805
-4.2158 0.8281 -2.3532 0.9806
-4.2404 0.6765 -2.3519 0.9806
-4.2601 0.5242 -2.3509 0.9806
-4.2747 0.3714 -2.3501 0.9806
-4.2844 0.2183 -2.3496 0.9806
-4.2890 0.0650 -2.3494 0.9806
-4.2729 -0.3947 -2.3503 0.9806
-4.2371 -0.6997 -2.3521 0.9806
-4.2118 -0.8512 -2.3535 0.9806
-4.1815 -1.0019 -2.3551 0.9806
-4.1061 -1.3003 -2.3590 0.9805
-4.0610 -1.4478 -2.3614 0.9805
-3.9563 -1.7383 -2.3668 0.9805
-3.8967 -1.8811 -2.3699 0.9805
-3.8325 -2.0221 -2.3733 0.9804
-3.7634 -2.1611 -2.3769 0.9804
-3.6897 -2.2980 -2.3808 0.9804
2.4191 1.7387 -1.7200 0.9863
2.4070 2.3165 -1.9287 0.9847
2.3946 2.6596 -2.0662 0.9836
2.3899 2.8532 -2.1488 0.9830
2.3721 3.5430 -2.4617 0.9805
2.1748 3.8118 -2.5337 0.9799
2.0311 3.8757 -2.5262 0.9800
1.7383 3.9866 -2.5110 0.9801
0.8337 4.1852 -2.4638 0.9805
0.2256 4.2064 -2.4320 0.9807
0.0748 4.1982 -2.4242 0.9808
-0.0798 4.4484 -2.5687 0.9797
-0.2380 4.4285 -2.5605 0.9797
-0.5503 4.3721 -2.5442 0.9799
-0.8560 4.2946 -2.5282 0.9800
-1.0058 4.2480 -2.5204 0.9800
-1.5821 4.0129 -2.4904 0.9803
-1.8542 3.8674 -2.4762 0.9804
-1.9857 3.7881 -2.4693 0.9804
-2.2393 3.6171 -2.4561 0.9805
-2.4794 3.4302 -2.4436 0.9806
-2.7051 3.2287 -2.4318 0.9807
-2.8123 3.1227 -2.4263 0.9808
-3.0151 2.9010 -2.4157 0.9809
-3.2017 2.6674 -2.4060 0.9809
-3.2888 2.5464 -2.4014 0.9810
-3.4503 2.2968 -2.3930 0.9810
-3.5245 2.1685 -2.3892 0.9811
-3.5943 2.0380 -2.3855 0.9811
-3.7767 1.6349 -2.3760 0.9812
-3.8284 1.4971 -2.3733 0.9812
-3.8755 1.3579 -2.3709 0.9812
-3.9557 1.0755 -2.3667 0.9812
-4.0405 0.6446 -2.3623 0.9813
-4.0593 0.4995 -2.3613 0.9813
-4.0733 0.3539 -2.3606 0.9813
-4.0870 0.0620 -2.3599 0.9813
-4.0815 -0.2303 -2.3602 0.9813
-4.0374 -0.6667 -2.3626 0.9813
-4.0131 -0.8110 -2.3638 0.9813
-3.9504 -1.0973 -2.3671 0.9812
-3.8688 -1.3792 -2.3714 0.9812
-3.8211 -1.5183 -2.3739 0.9812
-3.7687 -1.6558 -2.3766 0.9812
-3.6502 -1.9259 -2.3828 0.9811
-3.4389 -2.3163 -2.3939 0.9810
