ply
format ascii 1.0
element vertex 591
property float32 x
property float32 y
property float32 z
property float32 I
end_header
-24.9365 29.2289 6.7746 0.8555
-27.0027 25.4889 6.5475 0.8600
-27.2256 23.9074 6.3888 0.8632
-27.2758 22.2662 6.2085 0.8667
-27.3228 20.7129 6.0456 0.8700
-27.4090 17.8290 5.7655 0.8756
-27.4866 15.1866 5.5372 0.8802
-27.7719 14.0652 5.4891 0.8812
-30.5935 14.1356 5.9424 0.8721
-33.9278 14.2188 6.4865 0.8612
-34.3351 -17.2880 6.7783 0.8554
-27.2147 25.6889 5.7332 0.8595
-27.2679 23.9445 5.5592 0.8634
-27.3770 22.3488 5.4140 0.8667
-27.4045 20.7748 5.2682 0.8701
-27.4064 19.2645 5.1320 0.8732
-27.5236 15.2071 4.8172 0.8805
-27.7701 14.0643 4.7687 0.8816
-33.9252 14.2178 5.6351 0.8617
-27.0809 31.7424 5.4334 0.8451
-27.0774 29.5188 5.2162 0.8508
-27.3101 23.9816 4.7329 0.8636
-27.4455 19.2920 4.3686 0.8734
-27.5605 15.2275 4.1003 0.8807
-27.7683 14.0633 4.0533 0.8820
-30.5892 14.1336 4.3880 0.8729
-33.9226 14.2167 4.7897 0.8621
-42.1015 15.8897 5.8600 0.8340
-42.8660 14.4395 5.8902 0.8332
-27.2487 27.6406 4.1679 0.8554
-27.3022 25.7716 4.0316 0.8598
-27.3521 24.0185 3.9088 0.8638
-27.5972 15.2478 3.3857 0.8809
-27.7665 14.0625 3.3422 0.8823
-30.5871 14.1326 3.6181 0.8732
-42.1543 15.9096 4.8383 0.8342
-42.8620 14.4381 4.8567 0.8336
-34.3999 -17.3206 4.1357 0.8565
-27.1766 31.8546 3.5446 0.8453
-27.2933 27.6858 3.2911 0.8555
-25.3445 23.9236 2.9503 0.8694
-27.4398 22.4002 2.9986 0.8675
-27.4828 20.8342 2.9194 0.8707
-27.5235 19.3468 2.8480 0.8737
-27.5045 16.5147 2.7158 0.8792
-27.5395 15.2159 2.6635 0.8813
-25.8757 13.1049 2.4554 0.8901
-27.4361 24.0922 2.2642 0.8639
-27.4524 20.8112 2.1362 0.8710
-27.6001 17.9533 2.0417 0.8764
-27.6361 16.5937 1.9989 0.8788
-26.1301 12.0733 1.7849 0.8910
-42.2595 15.9493 2.8010 0.8344
-27.3295 29.7936 1.5942 0.8506
-27.3126 27.7054 1.5341 0.8558
-27.4780 24.1291 1.4419 0.8638
-25.7701 21.0371 1.3117 0.8753
-27.5789 16.5594 1.2684 0.8792
-27.7072 15.3085 1.2482 0.8810
-27.7223 14.0401 1.2253 0.8830
-30.5808 14.1298 1.3283 0.8738
-42.8502 14.4342 1.7829 0.8344
-42.2724 12.5660 1.7389 0.8382
-27.3201 32.0229 0.7110 0.8450
-25.7244 28.0438 0.6429 0.8588
-27.6023 20.9248 0.5851 0.8706
-25.9174 18.2178 0.5351 0.8810
-25.9473 15.5797 0.5112 0.8860
-26.0115 13.1736 0.4925 0.8899
-30.5788 14.1288 0.5690 0.8739
-40.5607 15.3082 0.7323 0.8408
-34.5400 -17.3911 0.6532 0.8567
-25.5964 30.0024 -0.2220 0.8541
-25.6934 26.0629 -0.2060 0.8638
-25.7778 22.6361 -0.1931 0.8718
-25.8163 21.0748 -0.1876 0.8752
-25.8527 19.5985 -0.1826 0.8783
-25.8873 18.1967 -0.1782 0.8811
-25.9202 16.8606 -0.1741 0.8837
-27.7521 12.8228 -0.1721 0.8849
-33.9074 14.2103 -0.2070 0.8632
-39.4343 14.8830 -0.2373 0.8448
-39.5373 11.7529 -0.2322 0.8479
-39.5796 10.2317 -0.2302 0.8491
-41.7849 9.2124 -0.2409 0.8427
-44.4539 8.1366 -0.2544 0.8346
-44.4825 6.4982 -0.2531 0.8354
-44.5053 4.8743 -0.2521 0.8360
-44.3939 3.2517 -0.2506 0.8369
-44.5333 1.6550 -0.2509 0.8367
-44.5388 0.0523 -0.2508 0.8368
-44.4816 -8.0337 -0.2545 0.8346
-44.3759 -13.0779 -0.2605 0.8311
-44.3277 -14.8160 -0.2631 0.8295
-41.6468 -15.6064 -0.2504 0.8370
-41.5878 -17.3144 -0.2536 0.8351
-25.9239 18.2224 -0.8923 0.8809
-25.9560 16.8838 -0.8719 0.8835
-27.7455 11.6279 -0.8471 0.8866
-27.8933 10.5273 -0.8395 0.8875
-29.6831 8.8237 -0.8720 0.8835
-31.8516 5.8299 -0.9118 0.8785
-31.9727 3.5017 -0.9057 0.8792
-32.0110 2.3447 -0.9038 0.8795
-32.0438 0.0376 -0.9023 0.8797
-32.0383 -1.1153 -0.9027 0.8796
-32.0183 -2.2696 -0.9038 0.8795
-31.9836 -3.4269 -0.9057 0.8792
-31.9341 -4.5885 -0.9084 0.8789
-31.8696 -5.7559 -0.9119 0.8785
-31.6947 -8.1141 -0.9212 0.8773
-31.4561 -10.5138 -0.9339 0.8757
-31.3117 -11.7336 -0.9415 0.8748
-31.1499 -12.9688 -0.9501 0.8737
-30.1793 -15.1955 -0.9514 0.8735
-28.7405 -15.7915 -0.9234 0.8770
-19.7344 23.1314 -1.5420 0.8853
-21.0966 19.9139 -1.4713 0.8903
-21.8647 17.8490 -1.4314 0.8931
-22.2105 16.8374 -1.4135 0.8944
-22.5324 15.8385 -1.3968 0.8956
-22.8313 14.8513 -1.3813 0.8967
-23.1082 13.8750 -1.3669 0.8977
-23.4505 11.8766 -1.3331 0.9001
-23.7453 10.9714 -1.3266 0.9005
-24.0100 10.0624 -1.3203 0.9010
-24.1874 9.1287 -1.3111 0.9016
-24.3465 8.2012 -1.3029 0.9022
-24.4879 7.2793 -1.2956 0.9027
-24.6120 6.3625 -1.2892 0.9032
-24.8094 4.5410 -1.2791 0.9039
-24.8832 3.6350 -1.2753 0.9042
-25.0166 0.0295 -1.2687 0.9047
-24.9874 -1.7712 -1.2704 0.9045
-24.9487 -2.6732 -1.2725 0.9044
-24.5093 -7.2231 -1.2958 0.9027
-24.2141 -9.0738 -1.3114 0.9016
-24.0395 -10.0085 -1.3206 0.9010
-23.4012 -12.8578 -1.3541 0.8986
-15.5738 18.2547 -1.7594 0.9082
-16.0108 17.4545 -1.7367 0.9094
-16.4231 16.6593 -1.7153 0.9104
-16.8115 15.8690 -1.6951 0.9114
-17.1768 15.0834 -1.6761 0.9124
-17.5199 14.3022 -1.6583 0.9133
-17.8415 13.5253 -1.6416 0.9141
-18.4227 11.9836 -1.6114 0.9156
-19.1484 9.6978 -1.5738 0.9175
-19.7103 7.4389 -1.5447 0.9190
-20.1185 5.2009 -1.5236 0.9200
-20.3802 2.9772 -1.5102 0.9207
-20.4358 2.2382 -1.5074 0.9209
-20.5000 0.7618 -1.5041 0.9210
-20.4799 -1.4518 -1.5054 0.9210
-20.3886 -2.9296 -1.5103 0.9207
-20.3194 -3.6698 -1.5140 0.9205
-20.2343 -4.4113 -1.5185 0.9203
-20.1332 -5.1542 -1.5238 0.9200
-20.0158 -5.8988 -1.5300 0.9197
-19.8819 -6.6453 -1.5371 0.9194
-19.7312 -7.3939 -1.5450 0.9190
-19.5635 -8.1450 -1.5538 0.9185
-18.9546 -10.4146 -1.5858 0.9169
-13.6154 13.8112 -1.8619 0.9250
-14.2961 12.5537 -1.8265 0.9264
-14.6076 11.9248 -1.8104 0.9270
-15.1756 10.6673 -1.7809 0.9282
-15.4329 10.0387 -1.7675 0.9287
-16.6232 6.2738 -1.7058 0.9311
-16.7654 5.6475 -1.6984 0.9314
-17.0038 4.3957 -1.6861 0.9319
-17.1003 3.7701 -1.6811 0.9321
-17.1818 3.1449 -1.6769 0.9322
-17.3606 0.6451 -1.6679 0.9326
-17.3687 0.0204 -1.6675 0.9326
-17.3623 -0.6044 -1.6679 0.9326
-17.3413 -1.2293 -1.6690 0.9325
-17.3057 -1.8542 -1.6709 0.9325
-17.1905 -3.1047 -1.6771 0.9322
-17.0158 -4.3562 -1.6863 0.9319
-16.7809 -5.6088 -1.6987 0.9314
-16.6403 -6.2357 -1.7060 0.9311
-16.4842 -6.8629 -1.7142 0.9308
-16.1240 -8.1186 -1.7331 0.9300
-10.9370 12.8196 -2.0017 0.9344
-11.9360 11.2669 -1.9497 0.9360
-12.2351 10.7440 -1.9342 0.9365
-12.5178 10.2188 -1.9195 0.9370
-13.0349 9.1625 -1.8926 0.9378
-13.4894 8.0996 -1.8690 0.9386
-13.8833 7.0313 -1.8486 0.9392
-14.2180 5.9587 -1.8312 0.9398
-14.3637 5.4211 -1.8237 0.9400
-14.7156 3.8042 -1.8055 0.9406
-14.8806 2.7237 -1.7970 0.9409
-14.9425 2.1829 -1.7938 0.9410
-14.9907 1.6418 -1.7913 0.9411
-15.0539 0.0177 -1.7882 0.9412
-15.0478 -0.5238 -1.7886 0.9412
-15.0282 -1.0653 -1.7896 0.9411
-14.9951 -1.6067 -1.7914 0.9411
-14.8138 -3.2296 -1.8010 0.9408
-14.5082 -4.8492 -1.8171 0.9402
-14.3783 -5.3880 -1.8239 0.9400
-14.2340 -5.9261 -1.8315 0.9398
-14.0754 -6.4634 -1.8398 0.9395
-13.9021 -6.9998 -1.8489 0.9392
-9.8267 10.7128 -2.0598 0.9430
-10.1280 10.2737 -2.0441 0.9434
-10.4145 9.8307 -2.0292 0.9438
-11.4159 8.0245 -1.9771 0.9452
-11.6310 7.5658 -1.9660 0.9455
-11.8324 7.1046 -1.9555 0.9458
-12.5025 5.2397 -1.9207 0.9467
-12.6369 4.7693 -1.9138 0.9469
-12.7581 4.2976 -1.9075 0.9471
-12.9620 3.3508 -1.8970 0.9473
-13.0447 2.8760 -1.8927 0.9475
-13.1147 2.4004 -1.8891 0.9476
-13.2682 0.4931 -1.8813 0.9478
-13.2751 0.0156 -1.8809 0.9478
-13.2694 -0.4619 -1.8813 0.9478
-13.2513 -0.9393 -1.8823 0.9477
-13.2205 -1.4165 -1.8839 0.9477
-13.1211 -2.3697 -1.8892 0.9476
-12.9709 -3.3206 -1.8971 0.9473
-12.7695 -4.2681 -1.9077 0.9471
-12.5163 -5.2110 -1.9210 0.9467
-12.3700 -5.6803 -1.9287 0.9465
-12.2104 -6.1481 -1.9370 0.9463
-8.4070 9.8541 -2.1339 0.9488
-8.6945 9.4785 -2.1189 0.9492
-9.2303 8.7129 -2.0910 0.9498
-9.9373 7.5333 -2.0543 0.9507
-10.1475 7.1329 -2.0434 0.9510
-10.3452 6.7294 -2.0331 0.9512
-10.7033 5.9137 -2.0145 0.9516
-11.0123 5.0882 -1.9985 0.9520
-11.3851 3.8351 -1.9791 0.9525
-11.5739 2.9920 -1.9694 0.9527
-11.6506 2.5686 -1.9654 0.9528
-11.7686 1.7192 -1.9593 0.9529
-11.8100 1.2935 -1.9572 0.9530
-11.8398 0.8672 -1.9557 0.9530
-11.8578 0.4406 -1.9548 0.9530
-11.8420 -0.8394 -1.9557 0.9530
-11.8134 -1.2658 -1.9573 0.9530
-11.7211 -2.1169 -1.9622 0.9529
-11.6574 -2.5414 -1.9655 0.9528
-11.3952 -3.8087 -1.9793 0.9525
-11.2840 -4.2285 -1.9852 0.9523
-11.1608 -4.6466 -1.9916 0.9522
-11.0256 -5.0630 -1.9987 0.9520
-10.7187 -5.8894 -2.0148 0.9516
-7.5271 8.8228 -2.1798 0.9539
-8.0418 8.1575 -2.1531 0.9544
-8.2817 7.8174 -2.1406 0.9547
-8.5100 7.4728 -2.1287 0.9550
-9.1260 6.4148 -2.0967 0.9556
-9.4796 5.6920 -2.0783 0.9560
-9.6395 5.3260 -2.0700 0.9562
-9.9257 4.5861 -2.0552 0.9565
-10.0520 4.2127 -2.0486 0.9566
-10.1673 3.8373 -2.0426 0.9567
-10.4469 2.7006 -2.0282 0.9570
-10.5182 2.3190 -2.0245 0.9571
-10.5785 1.9362 -2.0214 0.9572
-10.6664 1.1682 -2.0169 0.9573
-10.7108 0.3981 -2.0146 0.9573
-10.7119 -0.3729 -2.0146 0.9573
-10.6960 -0.7582 -2.0155 0.9573
-10.6694 -1.1432 -2.0169 0.9573
-10.5835 -1.9115 -2.0215 0.9572
-10.5242 -2.2944 -2.0246 0.9571
-10.1772 -3.8138 -2.0428 0.9567
-9.9375 -4.5633 -2.0554 0.9565
-6.8085 7.9804 -2.2174 0.9580
-7.0507 7.6864 -2.2048 0.9583
-7.5039 7.0832 -2.1812 0.9587
-7.7148 6.7745 -2.1703 0.9589
-7.9152 6.4615 -2.1598 0.9591
-8.4540 5.4992 -2.1318 0.9596
-8.6129 5.1715 -2.1236 0.9598
-8.7613 4.8408 -2.1159 0.9599
-8.8995 4.5072 -2.1087 0.9600
-9.0274 4.1711 -2.1020 0.9602
-9.1449 3.8326 -2.0959 0.9603
-9.3493 3.1493 -2.0854 0.9605
-9.4361 2.8050 -2.0809 0.9606
-9.5791 2.1119 -2.0735 0.9607
-9.6354 1.7636 -2.0706 0.9607
-9.6815 1.4143 -2.0682 0.9608
-9.7432 0.7137 -2.0650 0.9608
-9.7644 0.0115 -2.0640 0.9609
-9.7598 -0.3397 -2.0643 0.9609
-9.7201 -1.0415 -2.0664 0.9608
-9.6851 -1.3916 -2.0683 0.9608
-9.5846 -2.0895 -2.0736 0.9607
-9.4432 -2.7830 -2.0810 0.9606
-9.3573 -3.1276 -2.0855 0.9605
-9.1547 -3.8114 -2.0961 0.9603
-9.0380 -4.1503 -2.1023 0.9602
-6.4341 7.0142 -2.2370 0.9616
-6.6488 6.7445 -2.2258 0.9618
-6.8540 6.4698 -2.2152 0.9620
-7.0497 6.1906 -2.2050 0.9622
-7.4125 5.6193 -2.1861 0.9625
-7.8850 4.7345 -2.1616 0.9629
-8.4815 3.2011 -2.1306 0.9634
-8.5722 2.8876 -2.1259 0.9635
-8.6533 2.5723 -2.1217 0.9636
-8.7250 2.2555 -2.1180 0.9636
-8.8397 1.6180 -2.1121 0.9637
-8.9553 0.3328 -2.1062 0.9638
-8.9423 -0.6339 -2.1069 0.9638
-8.9190 -0.9556 -2.1082 0.9638
-8.8862 -1.2768 -2.1099 0.9638
-8.8439 -1.5973 -2.1121 0.9637
-8.5795 -2.8676 -2.1260 0.9635
-8.3902 -3.4931 -2.1360 0.9633
-8.2812 -3.8028 -2.1417 0.9632
-8.1628 -4.1100 -2.1479 0.9631
-8.0346 -4.4147 -2.1546 0.9630
-5.7031 6.6849 -2.2752 0.9643
-6.1113 6.1992 -2.2539 0.9647
-6.3024 5.9491 -2.2440 0.9648
-6.4847 5.6944 -2.2345 0.9650
-6.9791 4.9058 -2.2088 0.9654
-7.1262 4.6355 -2.2011 0.9655
-7.2646 4.3619 -2.1939 0.9656
-7.9840 2.3734 -2.1566 0.9662
-8.0512 2.0813 -2.1531 0.9662
-8.1095 1.7879 -2.1501 0.9663
-8.2673 0.3072 -2.1420 0.9664
-8.2721 0.0097 -2.1418 0.9664
-8.2681 -0.2878 -2.1421 0.9664
-8.2551 -0.5852 -2.1428 0.9664
-8.1140 -1.7689 -2.1502 0.9663
-8.0565 -2.0625 -2.1532 0.9662
-7.8304 -2.9343 -2.1651 0.9660
-7.7372 -3.2213 -2.1700 0.9660
-7.5242 -3.7885 -2.1812 0.9658
-5.4627 5.9553 -2.2878 0.9670
-5.6493 5.7305 -2.2780 0.9671
-5.8278 5.5012 -2.2688 0.9672
-5.9984 5.2673 -2.2599 0.9674
-6.8503 3.7849 -2.2156 0.9680
-6.9634 3.5267 -2.2097 0.9681
-7.2531 2.7374 -2.1947 0.9683
-7.4678 1.9305 -2.1836 0.9684
-7.5691 1.3854 -2.1783 0.9685
-7.6071 1.1113 -2.1764 0.9685
-7.6368 0.8364 -2.1749 0.9686
-7.6581 0.5609 -2.1738 0.9686
-7.6711 0.2851 -2.1731 0.9686
-7.6756 0.0090 -2.1729 0.9686
-7.6717 -0.2671 -2.1731 0.9686
-7.5725 -1.3676 -2.1784 0.9685
-7.4101 -2.1838 -2.1870 0.9684
-7.0766 -3.2496 -2.2045 0.9681
-6.9723 -3.5106 -2.2099 0.9681
-5.0726 5.5300 -2.3081 0.9691
-5.2475 5.3229 -2.2990 0.9692
-6.4820 3.2829 -2.2349 0.9701
-6.7548 2.5494 -2.2207 0.9702
-6.8301 2.3007 -2.2168 0.9703
-7.0088 1.5453 -2.2075 0.9704
-7.0526 1.2909 -2.2053 0.9704
-7.0885 1.0355 -2.2034 0.9705
-7.1165 0.7794 -2.2020 0.9705
-7.1367 0.5228 -2.2010 0.9705
-7.1488 0.2657 -2.2004 0.9705
-7.1379 -0.5060 -2.2010 0.9705
-7.1185 -0.7627 -2.2020 0.9705
-7.0911 -1.0189 -2.2035 0.9705
-6.9616 -1.7822 -2.2103 0.9704
-4.7301 5.1567 -2.3260 0.9709
-4.8945 4.9649 -2.3175 0.9710
-5.2025 4.5684 -2.3015 0.9712
-5.3460 4.3642 -2.2940 0.9713
-5.4825 4.1562 -2.2869 0.9714
-5.6119 3.9447 -2.2802 0.9715
-5.7341 3.7299 -2.2738 0.9716
-5.8491 3.5120 -2.2678 0.9717
-5.9569 3.2912 -2.2622 0.9717
-6.0573 3.0678 -2.2570 0.9718
-6.1506 2.8419 -2.2522 0.9718
-6.3149 2.3834 -2.2436 0.9719
-6.3860 2.1512 -2.2400 0.9720
-6.5060 1.6819 -2.2337 0.9721
-6.5963 1.2074 -2.2291 0.9721
-6.6303 0.9686 -2.2273 0.9722
-6.6585 -0.7134 -2.2260 0.9722
-6.6327 -0.9530 -2.2274 0.9722
-6.5585 -1.4298 -2.2313 0.9721
-6.5102 -1.6666 -2.2338 0.9721
-6.3914 -2.1363 -2.2401 0.9720
-6.3209 -2.3687 -2.2438 0.9719
-6.2429 -2.5991 -2.2479 0.9719
-6.1577 -2.8276 -2.2523 0.9718
-4.2655 4.9999 -2.3503 0.9725
-4.5816 4.6476 -2.3338 0.9727
-4.7301 4.4650 -2.3261 0.9727
-4.8721 4.2783 -2.3187 0.9728
-5.0075 4.0879 -2.3117 0.9729
-5.1364 3.8938 -2.3050 0.9730
-5.2585 3.6964 -2.2986 0.9731
-5.3740 3.4957 -2.2926 0.9731
-5.4828 3.2920 -2.2870 0.9732
-5.5846 3.0856 -2.2817 0.9733
-5.6796 2.8765 -2.2767 0.9733
-5.8490 2.4513 -2.2679 0.9734
-5.9233 2.2356 -2.2641 0.9735
-5.9906 2.0180 -2.2606 0.9735
-6.1506 1.3560 -2.2523 0.9736
-6.1898 1.1329 -2.2503 0.9736
-6.2219 0.9089 -2.2486 0.9736
-6.2470 0.6842 -2.2473 0.9737
-6.2650 0.4589 -2.2464 0.9737
-6.2759 0.2332 -2.2459 0.9737
-6.2797 0.0074 -2.2457 0.9737
-6.2765 -0.2185 -2.2459 0.9737
-6.2662 -0.4442 -2.2465 0.9737
-6.2242 -0.8943 -2.2487 0.9736
-6.1926 -1.1184 -2.2503 0.9736
-6.1082 -1.5637 -2.2548 0.9736
-6.0554 -1.7846 -2.2576 0.9735
-5.9289 -2.2218 -2.2642 0.9735
-5.7744 -2.6516 -2.2723 0.9734
-5.6868 -2.8633 -2.2769 0.9733
-5.5922 -3.0727 -2.2818 0.9733
-4.0037 4.6929 -2.3640 0.9739
-4.1559 4.5306 -2.3560 0.9740
-4.8267 3.6591 -2.3211 0.9744
-4.9424 3.4741 -2.3151 0.9745
-5.5018 2.3058 -2.2861 0.9748
-5.5722 2.1030 -2.2824 0.9748
-5.6932 1.6924 -2.2761 0.9749
-5.8249 1.0662 -2.2693 0.9750
-5.8792 0.6439 -2.2665 0.9750
-5.8963 0.4319 -2.2657 0.9750
-5.9067 0.2195 -2.2651 0.9750
-5.8974 -0.4180 -2.2657 0.9750
-5.8809 -0.6301 -2.2666 0.9750
-5.8576 -0.8417 -2.2678 0.9750
-5.7909 -1.2625 -2.2713 0.9749
-5.7475 -1.4714 -2.2736 0.9749
-5.6974 -1.6791 -2.2762 0.9749
-5.4309 -2.4939 -2.2902 0.9747
-4.1836 3.9492 -2.3546 0.9754
-4.3108 3.7855 -2.3480 0.9755
-4.5478 3.4476 -2.3357 0.9756
-4.6574 3.2738 -2.3300 0.9757
-5.1152 2.3635 -2.3062 0.9759
-5.1883 2.1744 -2.3024 0.9760
-5.2552 1.9834 -2.2989 0.9760
-5.3159 1.7907 -2.2958 0.9760
-5.4600 1.2038 -2.2883 0.9761
-5.4954 1.0058 -2.2865 0.9761
-5.5471 0.6075 -2.2838 0.9762
-5.5633 0.4075 -2.2830 0.9762
-5.5766 0.0066 -2.2824 0.9762
-5.5736 -0.1940 -2.2825 0.9762
-5.5643 -0.3944 -2.2830 0.9762
-5.5485 -0.5945 -2.2839 0.9762
-5.5264 -0.7941 -2.2851 0.9762
-5.4979 -0.9929 -2.2866 0.9761
-5.4630 -1.1910 -2.2884 0.9761
-5.3203 -1.7783 -2.2959 0.9760
-5.1937 -2.1623 -2.3025 0.9760
-4.9571 -2.7237 -2.3149 0.9759
-3.5554 4.1674 -2.3874 0.9764
-3.6919 4.0248 -2.3803 0.9765
-3.8232 3.8782 -2.3734 0.9765
-4.0700 3.5740 -2.3606 0.9766
-4.3991 3.0922 -2.3435 0.9768
-4.4976 2.9256 -2.3384 0.9769
-4.5904 2.7563 -2.3335 0.9769
-4.7588 2.4101 -2.3248 0.9770
-4.9674 1.8748 -2.3140 0.9771
-5.0251 1.6927 -2.3110 0.9771
-5.0769 1.5092 -2.3083 0.9772
-5.2236 0.7631 -2.3007 0.9772
-5.2704 -0.1835 -2.2983 0.9773
-5.2254 -0.7508 -2.3007 0.9772
-5.0293 -1.6810 -2.3111 0.9771
-4.9721 -1.8632 -2.3141 0.9771
-4.7647 -2.3991 -2.3249 0.9770
-4.6838 -2.5735 -2.3292 0.9770
-3.3616 3.9403 -2.3975 0.9774
-3.6161 3.6681 -2.3843 0.9776
-3.9601 3.2329 -2.3664 0.9777
-4.0645 3.0812 -2.3609 0.9778
-4.2573 2.7693 -2.3509 0.9779
-4.4285 2.4468 -2.3420 0.9779
-4.5059 2.2821 -2.3380 0.9780
-4.5778 2.1152 -2.3343 0.9780
-4.7046 1.7756 -2.3277 0.9781
-4.7596 1.6033 -2.3248 0.9781
-4.9488 0.7229 -2.3150 0.9782
-4.9693 0.5443 -2.3140 0.9782
-4.9840 0.3651 -2.3132 0.9782
-4.9961 0.0059 -2.3126 0.9782
-4.9934 -0.1738 -2.3128 0.9782
-4.9849 -0.3533 -2.3132 0.9782
-4.9706 -0.5326 -2.3140 0.9782
-4.9505 -0.7113 -2.3151 0.9782
-4.8556 -1.2430 -2.3201 0.9781
-4.8125 -1.4183 -2.3223 0.9781
-4.7636 -1.5922 -2.3249 0.9781
-4.7090 -1.7646 -2.3278 0.9781
-4.5830 -2.1045 -2.3344 0.9780
-3.1845 3.7326 -2.4068 0.9784
-3.3078 3.6061 -2.4003 0.9784
-3.6497 3.2049 -2.3825 0.9786
-3.7540 3.0646 -2.3771 0.9786
-3.9478 2.7750 -2.3670 0.9787
-4.2003 2.3207 -2.3539 0.9788
-4.2741 2.1646 -2.3501 0.9789
-4.4636 1.6846 -2.3402 0.9790
-4.5160 1.5212 -2.3375 0.9790
-4.5630 1.3564 -2.3351 0.9790
-4.6407 1.0232 -2.3311 0.9791
-4.6714 0.8550 -2.3295 0.9791
-4.7301 0.3465 -2.3265 0.9791
-4.7387 0.1761 -2.3260 0.9791
-4.7390 -0.1650 -2.3261 0.9791
-4.7310 -0.3354 -2.3265 0.9791
-4.6981 -0.6751 -2.3282 0.9791
-4.6735 -0.8441 -2.3295 0.9791
-4.6433 -1.0123 -2.3311 0.9790
-4.6075 -1.1796 -2.3330 0.9790
-4.3475 -1.9963 -2.3466 0.9789
-3.2522 3.2990 -2.4033 0.9793
-3.5643 2.9097 -2.3870 0.9795
-3.6591 2.7739 -2.3821 0.9795
-3.7491 2.6354 -2.3774 0.9796
-3.8343 2.4942 -2.3730 0.9796
-3.9146 2.3505 -2.3688 0.9796
-3.9900 2.2046 -2.3649 0.9797
-4.2914 1.4456 -2.3492 0.9798
-4.3363 1.2890 -2.3469 0.9798
-4.4398 0.8127 -2.3416 0.9799
-4.4638 0.6521 -2.3403 0.9799
-4.4960 0.3293 -2.3387 0.9799
-4.5070 0.0053 -2.3381 0.9799
-4.4968 -0.3187 -2.3387 0.9799
-4.4654 -0.6416 -2.3404 0.9799
-4.4418 -0.8022 -2.3416 0.9799
-4.2950 -1.4355 -2.3493 0.9798
-4.1305 -1.8967 -2.3579 0.9797
-3.9954 -2.1953 -2.3650 0.9797
-2.9834 3.2524 -2.4173 0.9801
-3.0912 3.1357 -2.4117 0.9801
-3.1949 3.0158 -2.4063 0.9802
-3.4795 2.6378 -2.3915 0.9803
-3.5654 2.5062 -2.3870 0.9803
-3.8628 1.9564 -2.3715 0.9804
-3.9829 1.6692 -2.3653 0.9805
-4.0836 1.3756 -2.3601 0.9805
-4.1975 0.9254 -2.3542 0.9806
-4.2254 0.7734 -2.3527 0.9806
-4.2869 0.1593 -2.3496 0.9806
-4.2799 -0.3034 -2.3500 0.9806
-4.2674 -0.4572 -2.3507 0.9806
-4.2499 -0.6106 -2.3516 0.9806
-4.2273 -0.7635 -2.3528 0.9806
-4.1997 -0.9156 -2.3542 0.9806
-4.1295 -1.2170 -2.3579 0.9806
-3.9297 -1.8045 -2.3684 0.9805
-2.8390 3.0950 -2.4248 0.9808
-2.9420 2.9843 -2.4195 0.9808
-3.2264 2.6339 -2.4047 0.9809
-3.3129 2.5114 -2.4002 0.9810
-3.3950 2.3864 -2.3959 0.9810
-3.5461 2.1292 -2.3880 0.9811
-3.7390 1.7276 -2.3780 0.9812
-3.8446 1.4510 -2.3725 0.9812
-3.8904 1.3105 -2.3702 0.9812
-3.9994 0.8818 -2.3645 0.9813
-4.0262 0.7370 -2.3631 0.9813
-4.0481 0.5914 -2.3620 0.9813
-4.0776 0.2987 -2.3605 0.9813
-4.0783 -0.2891 -2.3605 0.9813
-4.0496 -0.5819 -2.3620 0.9813
-4.0280 -0.7275 -2.3632 0.9813
-4.0016 -0.8724 -2.3646 0.9813
-3.9343 -1.1595 -2.3681 0.9812
-3.7980 -1.5812 -2.3753 0.9812
-3.6838 -1.8548 -2.3812 0.9811
-3.6198 -1.9889 -2.3846 0.9811
