ply
format ascii 1.0
element vertex 585
property float32 x
property float32 y
property float32 z
property float32 I
end_header
26.3523 18.6305 5.6906 0.8771
25.7817 22.7938 6.0679 0.8696
25.9447 26.5191 6.5417 0.8601
15.9654 18.8754 4.3591 0.9045
14.9787 19.0673 4.2754 0.9062
21.5556 29.5834 6.4542 0.8619
21.7645 32.2611 6.8620 0.8538
10.8854 18.9626 3.8553 0.9150
16.8926 35.0835 6.8659 0.8537
8.5069 19.4370 3.7411 0.9174
14.8298 37.5253 7.1147 0.8488
12.7881 40.7656 7.5335 0.8407
10.3654 37.7780 6.9075 0.8529
9.5543 48.2707 8.6765 0.8188
26.3748 18.6464 4.9482 0.8775
22.6670 18.6233 4.4941 0.8881
21.0980 18.6529 4.3141 0.8923
19.7620 18.7887 4.1773 0.8955
18.2484 18.6524 3.9975 0.8998
25.8976 30.6179 6.1433 0.8502
13.8029 18.9434 3.5907 0.9095
21.6755 34.7807 6.2782 0.8472
19.8207 41.1648 6.9991 0.8312
16.8354 38.4667 6.4325 0.8437
16.4288 41.5716 6.8478 0.8345
12.9360 41.2372 6.6208 0.8395
11.4418 41.7011 6.6245 0.8395
1.6707 10.4047 1.6144 0.9583
3.3644 38.6487 5.9432 0.8547
18.2438 18.6477 3.3972 0.9001
26.0942 38.6789 6.0758 0.8284
25.7564 41.3290 6.3415 0.8217
23.7536 41.3792 6.2131 0.8249
21.8277 41.4275 6.0977 0.8279
19.9697 41.4742 5.9942 0.8305
18.1716 41.5198 5.9019 0.8329
1.6657 10.3735 1.3682 0.9585
3.3611 38.6109 5.0470 0.8553
26.3442 18.6248 3.4644 0.8783
25.5533 41.0030 5.1880 0.8234
19.9622 41.4586 4.9411 0.8310
8.5027 19.4274 2.2772 0.9182
13.0285 41.5321 4.6741 0.8394
1.6608 10.3428 1.1249 0.9587
26.8877 19.0090 2.7875 0.8762
13.0429 41.5781 3.6888 0.8395
11.4195 41.6201 3.6535 0.8409
3.3538 38.5265 3.2737 0.8562
27.7155 41.0823 3.0730 0.8199
23.7057 41.2959 2.9527 0.8263
8.8442 18.3681 1.2642 0.9215
27.7509 41.1348 1.9566 0.8198
8.8427 18.3649 0.8037 0.9216
8.0462 18.3843 0.7913 0.9228
1.6535 10.2977 0.4113 0.9591
27.4571 17.9578 0.5542 0.8770
26.4235 18.6809 0.5466 0.8786
8.8411 18.3617 0.3442 0.9217
8.0447 18.3811 0.3389 0.9229
8.8396 18.3585 -0.1147 0.9217
8.0434 18.3780 -0.1129 0.9229
9.6711 41.0093 -0.2372 0.8449
2.3644 46.6506 -0.2630 0.8296
27.2814 17.8429 -0.9179 0.8777
26.2979 18.5920 -0.9069 0.8791
8.8381 18.3553 -0.5736 0.9217
2.4864 6.2916 -0.1905 0.9733
2.4811 7.9093 -0.2334 0.9674
2.4733 9.0145 -0.2632 0.9633
2.4263 19.6229 -0.5567 0.9239
2.3178 45.7312 -1.2893 0.8326
29.5079 16.3828 -1.7116 0.8736
27.2739 17.8380 -1.6527 0.8776
29.6470 22.6121 -1.8909 0.8613
29.6050 24.3237 -1.9431 0.8577
29.7421 26.2954 -2.0133 0.8530
29.8415 30.5022 -2.1641 0.8429
2.4924 2.9467 -0.1957 0.9847
2.4915 3.1717 -0.2045 0.9840
2.4894 3.6901 -0.2257 0.9823
2.4882 3.9926 -0.2386 0.9813
2.4833 5.1575 -0.2903 0.9773
2.4785 6.2716 -0.3420 0.9734
2.4753 6.9940 -0.3763 0.9707
2.4714 7.8784 -0.4187 0.9675
2.4550 10.4103 -0.5424 0.9581
1.6476 10.2607 -0.5270 0.9592
2.3680 27.2023 -1.3848 0.8964
2.2694 44.7756 -2.2737 0.8356
0.6979 48.2870 -2.4491 0.8241
-4.3356 45.9291 -2.3396 0.8313
2.5006 0.4579 -0.1864 0.9899
2.5003 0.5520 -0.1877 0.9898
2.5000 0.6477 -0.1894 0.9897
2.4996 0.7451 -0.1912 0.9896
2.4989 0.9465 -0.1959 0.9893
2.4986 1.0512 -0.1988 0.9892
2.4972 1.3864 -0.2094 0.9886
2.4967 1.5068 -0.2138 0.9884
2.4949 1.9029 -0.2301 0.9875
2.4942 2.0493 -0.2367 0.9871
2.4888 2.7353 -0.2712 0.9853
2.4827 3.9837 -0.3442 0.9813
2.4789 4.7048 -0.3899 0.9789
2.4766 5.1435 -0.4186 0.9774
2.4706 6.2516 -0.4929 0.9734
2.4667 6.9695 -0.5421 0.9708
2.4524 8.9381 -0.6796 0.9635
2.4430 10.3596 -0.7804 0.9582
2.3822 19.2662 -1.4234 0.9251
0.4809 33.2772 -2.4402 0.8750
2.4970 0.6469 -0.2476 0.9897
2.4967 0.7442 -0.2501 0.9896
2.4959 0.9453 -0.2562 0.9893
2.4949 1.1577 -0.2641 0.9890
2.4944 1.2691 -0.2687 0.9888
2.4939 1.3846 -0.2739 0.9886
2.4933 1.5048 -0.2796 0.9884
2.4920 1.7618 -0.2930 0.9878
2.4913 1.9001 -0.3008 0.9875
2.4896 2.2011 -0.3190 0.9867
2.4877 2.5427 -0.3415 0.9858
2.4833 2.9360 -0.3692 0.9847
2.4821 3.1596 -0.3857 0.9840
2.4806 3.4044 -0.4044 0.9832
2.4790 3.6746 -0.4255 0.9823
2.4771 3.9749 -0.4496 0.9814
2.4751 4.3116 -0.4773 0.9802
2.4727 4.6930 -0.5093 0.9789
2.4699 5.1296 -0.5466 0.9774
2.4666 5.6359 -0.5906 0.9756
2.4627 6.2317 -0.6433 0.9734
2.4312 10.3092 -1.0169 0.9583
1.6465 10.2541 -0.9970 0.9591
1.3101 25.8473 -2.4847 0.9012
0.3666 25.3662 -2.4355 0.9031
-0.5748 26.4391 -2.5389 0.8992
-1.5020 25.8991 -2.4906 0.9010
-2.3927 25.3471 -2.4443 0.9028
2.4947 0.4568 -0.3013 0.9898
2.4940 0.6461 -0.3060 0.9897
2.4936 0.7433 -0.3091 0.9896
2.4912 1.2674 -0.3320 0.9888
2.4900 1.5028 -0.3455 0.9884
2.4877 1.8973 -0.3716 0.9875
2.4868 2.0431 -0.3823 0.9871
2.4858 2.1977 -0.3941 0.9867
2.4801 2.7257 -0.4377 0.9853
2.4773 3.1535 -0.4764 0.9840
2.4756 3.3976 -0.4994 0.9832
2.4737 3.6668 -0.5254 0.9823
2.4692 4.3014 -0.5891 0.9802
2.4664 4.6811 -0.6285 0.9789
2.4594 5.6194 -0.7286 0.9756
2.4494 6.9208 -0.8721 0.9709
2.4427 7.7867 -0.9694 0.9677
2.4193 10.2591 -1.2521 0.9584
1.8345 21.0741 -2.5128 0.9183
1.0535 20.7847 -2.4721 0.9196
-1.2215 21.0617 -2.5060 0.9185
2.4918 0.4563 -0.3589 0.9898
2.4914 0.5501 -0.3615 0.9897
2.4902 0.8415 -0.3724 0.9894
2.4897 0.9429 -0.3772 0.9893
2.4886 1.1547 -0.3887 0.9890
2.4873 1.3809 -0.4031 0.9886
2.4866 1.5007 -0.4115 0.9883
2.4850 1.7568 -0.4312 0.9878
2.4841 1.8946 -0.4427 0.9875
2.4820 2.1943 -0.4694 0.9867
2.4808 2.3586 -0.4850 0.9863
2.4795 2.5343 -0.5024 0.9858
2.4757 2.7209 -0.5212 0.9852
2.4742 2.9252 -0.5428 0.9846
2.4725 3.1474 -0.5671 0.9840
2.4661 3.9571 -0.6606 0.9813
2.4634 4.2912 -0.7011 0.9802
2.4602 4.6692 -0.7478 0.9789
2.4470 6.1920 -0.9434 0.9735
2.4408 6.8965 -1.0365 0.9709
2.4331 7.7563 -1.1518 0.9677
2.4076 10.2092 -1.4862 0.9585
2.1929 17.7351 -2.5320 0.9303
0.8802 17.3652 -2.4636 0.9322
-1.0283 17.7319 -2.5166 0.9308
-1.6479 17.4564 -2.4844 0.9316
2.4884 0.5494 -0.4198 0.9897
2.4876 0.7414 -0.4276 0.9895
2.4860 1.0459 -0.4443 0.9891
2.4847 1.2641 -0.4593 0.9888
2.4840 1.3791 -0.4680 0.9885
2.4824 1.6235 -0.4886 0.9880
2.4814 1.7543 -0.5006 0.9878
2.4781 2.1909 -0.5449 0.9867
2.4768 2.3548 -0.5630 0.9862
2.4633 3.6513 -0.7256 0.9823
2.4575 4.2810 -0.8132 0.9802
2.4539 4.6574 -0.8672 0.9789
2.4498 5.0879 -0.9303 0.9774
2.4392 6.1722 -1.0933 0.9735
2.4322 6.8722 -1.2009 0.9709
2.4110 8.7874 -1.5011 0.9637
2.3958 10.1595 -1.7196 0.9586
2.3753 12.0010 -2.0154 0.9516
1.6449 10.2440 -1.7092 0.9588
0.2131 14.7445 -2.4293 0.9420
-0.3368 15.4939 -2.5531 0.9391
-0.8871 15.2979 -2.5244 0.9398
-1.4241 15.0868 -2.4964 0.9404
2.4854 0.5487 -0.4784 0.9897
2.4850 0.6438 -0.4825 0.9896
2.4846 0.7405 -0.4873 0.9895
2.4828 1.0446 -0.5063 0.9891
2.4798 1.4966 -0.5444 0.9883
2.4789 1.6212 -0.5567 0.9880
2.4779 1.7518 -0.5704 0.9877
2.4728 2.3510 -0.6413 0.9862
2.4670 2.7112 -0.6890 0.9852
2.4651 2.9144 -0.7175 0.9846
2.4630 3.1353 -0.7494 0.9839
2.4606 3.3770 -0.7854 0.9831
2.4580 3.6434 -0.8261 0.9823
2.4476 4.6455 -0.9870 0.9789
2.4377 5.5699 -1.1428 0.9756
2.4313 6.1523 -1.2434 0.9734
2.4236 6.8479 -1.3654 0.9709
2.4141 7.6957 -1.5160 0.9677
2.4007 8.7499 -1.7054 0.9637
1.1434 13.1341 -2.4780 0.9478
0.6606 13.0332 -2.4529 0.9483
0.1867 12.9172 -2.4282 0.9488
2.4829 0.4546 -0.5335 0.9897
2.4824 0.5481 -0.5374 0.9897
2.4820 0.6430 -0.5420 0.9896
2.4809 0.8383 -0.5535 0.9894
2.4789 1.1502 -0.5777 0.9889
2.4764 1.4946 -0.6114 0.9882
2.4754 1.6189 -0.6252 0.9880
2.4743 1.7493 -0.6405 0.9877
2.4731 1.8862 -0.6575 0.9874
2.4718 2.0308 -0.6762 0.9870
2.4704 2.1840 -0.6970 0.9866
2.4688 2.3472 -0.7201 0.9862
2.4671 2.5217 -0.7457 0.9857
2.4625 2.7064 -0.7734 0.9852
2.4605 2.9089 -0.8053 0.9845
2.4582 3.1292 -0.8411 0.9839
2.4457 4.2604 -1.0384 0.9801
2.4414 4.6336 -1.1071 0.9788
2.4363 5.0600 -1.1871 0.9773
2.4305 5.5533 -1.2814 0.9755
2.4235 6.1324 -1.3938 0.9734
2.4150 6.8236 -1.5300 0.9708
2.4046 7.6654 -1.6982 0.9677
2.3904 8.7124 -1.9097 0.9637
2.3725 10.0603 -2.1849 0.9586
2.3334 11.7890 -2.5403 0.9521
1.6449 10.2438 -2.1931 0.9585
0.5865 11.5721 -2.4492 0.9537
0.1660 11.4821 -2.4273 0.9541
-1.1172 11.8358 -2.5130 0.9526
2.4794 0.5474 -0.5967 0.9896
2.4778 0.8373 -0.6147 0.9893
2.4748 1.2591 -0.6526 0.9887
2.4739 1.3735 -0.6650 0.9884
2.4719 1.6167 -0.6942 0.9879
2.4707 1.7467 -0.7111 0.9876
2.4680 2.0277 -0.7507 0.9870
2.4665 2.1806 -0.7737 0.9866
2.4647 2.3434 -0.7993 0.9861
2.4581 2.7015 -0.8584 0.9851
2.4474 3.6278 -1.0285 0.9822
2.4438 3.9214 -1.0859 0.9812
2.4397 4.2501 -1.1517 0.9801
2.4351 4.6216 -1.2277 0.9788
2.4232 5.5367 -1.4204 0.9755
2.4156 6.1124 -1.5447 0.9734
2.4064 6.7992 -1.6951 0.9708
2.0883 10.5505 -2.5277 0.9568
1.6454 10.2472 -2.4392 0.9583
1.2983 10.5000 -2.4865 0.9575
0.5270 10.3955 -2.4463 0.9581
0.1492 10.3240 -2.4266 0.9585
-0.2367 10.8859 -2.5590 0.9562
2.4768 0.4535 -0.6519 0.9896
2.4763 0.5467 -0.6566 0.9896
2.4758 0.6414 -0.6622 0.9895
2.4753 0.7378 -0.6687 0.9894
2.4746 0.8362 -0.6763 0.9893
2.4715 1.2574 -0.7180 0.9886
2.4695 1.4904 -0.7468 0.9882
2.4670 1.7441 -0.7823 0.9876
2.4642 2.0246 -0.8257 0.9869
2.4625 2.1771 -0.8510 0.9865
2.4607 2.3395 -0.8791 0.9861
2.4587 2.5131 -0.9103 0.9856
2.4485 3.1168 -1.0262 0.9838
2.4421 3.6198 -1.1306 0.9821
2.4338 4.2397 -1.2657 0.9800
2.4287 4.6095 -1.3490 0.9787
2.3978 6.7748 -1.8607 0.9707
2.3855 7.6046 -2.0636 0.9676
1.8879 9.5379 -2.5174 0.9606
1.1755 9.5071 -2.4803 0.9612
0.1354 9.3691 -2.4261 0.9620
-0.2149 9.8862 -2.5603 0.9600
-0.5683 9.8010 -2.5419 0.9602
-0.9160 9.7044 -2.5238 0.9605
2.4733 0.5461 -0.7170 0.9895
2.4727 0.6406 -0.7231 0.9894
2.4715 0.8352 -0.7385 0.9892
2.4707 0.9358 -0.7479 0.9891
2.4691 1.1457 -0.7706 0.9887
2.4681 1.2557 -0.7839 0.9886
2.4671 1.3697 -0.7988 0.9883
2.4660 1.4883 -0.8154 0.9881
2.4619 1.8777 -0.8765 0.9872
2.4603 2.0214 -0.9014 0.9868
2.4566 2.3356 -0.9596 0.9860
2.4465 2.8924 -1.0724 0.9844
2.4436 3.1106 -1.1198 0.9837
2.4366 3.6118 -1.2334 0.9821
2.4278 4.2292 -1.3805 0.9799
2.4223 4.5974 -1.4711 0.9786
2.4160 5.0176 -1.5765 0.9771
2.3891 6.7502 -2.0271 0.9707
2.3760 7.5740 -2.2472 0.9675
2.3595 8.5996 -2.5245 0.9636
1.0729 8.6769 -2.4751 0.9643
0.7531 8.6514 -2.4584 0.9645
0.4367 8.6147 -2.4419 0.9648
0.1238 8.5673 -2.4256 0.9650
-0.5204 8.9733 -2.5446 0.9633
2.4706 0.4524 -0.7725 0.9895
2.4701 0.5454 -0.7781 0.9895
2.4682 0.8340 -0.8013 0.9892
2.4675 0.9346 -0.8116 0.9890
2.4667 1.0378 -0.8231 0.9889
2.4647 1.2539 -0.8506 0.9885
2.4637 1.3678 -0.8667 0.9883
2.4624 1.4862 -0.8846 0.9880
2.4581 1.8748 -0.9509 0.9871
2.4564 2.0182 -0.9778 0.9868
2.4417 2.8868 -1.1629 0.9843
2.4268 3.8940 -1.4113 0.9810
2.4012 5.4863 -1.8420 0.9752
2.3917 6.0520 -2.0015 0.9731
2.3663 7.5433 -2.4316 0.9675
2.1790 7.9413 -2.5329 0.9661
1.8785 7.9654 -2.5172 0.9663
1.5792 7.9784 -2.5016 0.9665
0.9857 7.9719 -2.4706 0.9669
0.6923 7.9528 -2.4553 0.9671
-0.1811 8.3287 -2.5623 0.9657
-0.4794 8.2663 -2.5468 0.9659
2.4675 0.4518 -0.8338 0.9895
2.4670 0.5447 -0.8398 0.9894
2.4657 0.7349 -0.8552 0.9892
2.4642 0.9333 -0.8759 0.9890
2.4613 1.2522 -0.9179 0.9884
2.4601 1.3658 -0.9353 0.9882
2.4543 1.8719 -1.0260 0.9871
2.4505 2.1664 -1.0872 0.9863
2.4482 2.3276 -1.1229 0.9859
2.4458 2.4999 -1.1625 0.9854
2.4369 2.8811 -1.2543 0.9842
2.4299 3.3349 -1.3716 0.9828
2.4257 3.5956 -1.4418 0.9819
2.4156 4.2080 -1.6129 0.9798
2.4094 4.5729 -1.7181 0.9784
2.4022 4.9889 -1.8406 0.9769
2.3937 5.4693 -1.9845 0.9751
2.3837 6.0316 -2.1558 0.9730
2.3715 6.7007 -2.3627 0.9705
2.0092 7.3229 -2.5241 0.9685
1.4576 7.3641 -2.4953 0.9689
1.1834 7.3695 -2.4810 0.9690
0.9107 7.3650 -2.4668 0.9692
0.6400 7.3509 -2.4527 0.9694
0.3714 7.3271 -2.4387 0.9695
-0.4439 7.6547 -2.5488 0.9682
-0.7165 7.5911 -2.5345 0.9684
2.4638 0.5440 -0.9023 0.9893
2.4625 0.7340 -0.9189 0.9891
2.4599 1.0350 -0.9544 0.9887
2.4589 1.1410 -0.9694 0.9886
2.4578 1.2504 -0.9861 0.9884
2.4566 1.3639 -1.0048 0.9881
2.4553 1.4818 -1.0255 0.9879
2.4538 1.6048 -1.0485 0.9876
2.4485 2.0116 -1.1332 0.9866
2.4463 2.1628 -1.1677 0.9862
2.4440 2.3236 -1.2060 0.9858
2.4352 2.6764 -1.2940 0.9847
2.4321 2.8754 -1.3467 0.9841
2.4285 3.0915 -1.4059 0.9834
2.4246 3.3276 -1.4724 0.9827
2.4028 4.5604 -1.8433 0.9783
2.3862 5.4521 -2.1283 0.9750
2.3755 6.0110 -2.3113 0.9729
2.1175 6.7501 -2.5299 0.9704
1.6067 6.8130 -2.5032 0.9707
1.0980 6.8381 -2.4767 0.9710
0.8454 6.8368 -2.4635 0.9712
0.3450 6.8072 -2.4374 0.9715
0.0980 6.7792 -2.4245 0.9716
-0.4129 7.1201 -2.5505 0.9702
2.4611 0.4507 -0.9588 0.9893
2.4605 0.5432 -0.9656 0.9893
2.4599 0.6373 -0.9738 0.9892
2.4575 0.9308 -1.0070 0.9888
2.4543 1.2486 -1.0552 0.9883
2.4483 1.7309 -1.1490 0.9872
2.4444 2.0083 -1.2124 0.9865
2.4422 2.1591 -1.2492 0.9861
2.4397 2.3195 -1.2900 0.9857
2.4146 3.5791 -1.6545 0.9817
2.3962 4.5479 -1.9699 0.9782
1.4959 6.3432 -2.4975 0.9725
0.7879 6.3723 -2.4606 0.9729
0.3219 6.3493 -2.4363 0.9731
-0.1454 6.6904 -2.5645 0.9717
-0.6228 6.5977 -2.5396 0.9720
2.4573 0.5425 -1.0299 0.9892
2.4558 0.7320 -1.0488 0.9890
2.4550 0.8296 -1.0606 0.9889
2.4541 0.9295 -1.0740 0.9887
2.4530 1.0321 -1.0892 0.9886
2.4494 1.3598 -1.1466 0.9880
2.4445 1.7282 -1.2252 0.9871
2.4425 1.8629 -1.2572 0.9868
2.4379 2.1554 -1.3318 0.9860
2.4354 2.3154 -1.3753 0.9856
2.4325 2.4863 -1.4236 0.9851
2.4257 2.6659 -1.4752 0.9845
2.4222 2.8637 -1.5351 0.9839
2.4183 3.0784 -1.6022 0.9832
2.3969 4.1754 -1.9704 0.9794
2.3809 4.9449 -2.2462 0.9766
2.2796 5.7683 -2.5385 0.9735
2.0601 5.8206 -2.5270 0.9737
1.1770 5.9464 -2.4809 0.9741
0.9566 5.9574 -2.4694 0.9743
0.0856 5.9221 -2.4240 0.9747
2.4532 0.6355 -1.1044 0.9890
2.4524 0.7310 -1.1153 0.9889
2.4516 0.8284 -1.1278 0.9888
2.4484 1.1361 -1.1763 0.9883
2.4456 1.3578 -1.2191 0.9879
2.4441 1.4751 -1.2441 0.9876
2.4424 1.5974 -1.2719 0.9873
2.4337 2.1516 -1.4157 0.9859
2.4310 2.3112 -1.4618 0.9855
2.4279 2.4817 -1.5131 0.9850
2.4209 2.6606 -1.5677 0.9844
2.4172 2.8578 -1.6312 0.9838
2.4130 3.0717 -1.7024 0.9831
2.4031 3.5622 -1.8727 0.9814
2.3972 3.8466 -1.9753 0.9804
2.3904 4.1643 -2.0926 0.9793
2.3827 4.5222 -2.2277 0.9779
1.9295 5.4515 -2.5203 0.9751
1.5171 5.5291 -2.4987 0.9753
1.3104 5.5563 -2.4880 0.9754
1.1037 5.5758 -2.4772 0.9755
0.2828 5.5786 -2.4344 0.9759
-0.1279 5.8853 -2.5655 0.9746
-0.3393 5.8516 -2.5545 0.9747
-0.5485 5.8106 -2.5436 0.9749
2.4512 0.4488 -1.1535 0.9891
2.4498 0.6346 -1.1714 0.9889
2.4490 0.7299 -1.1829 0.9888
2.4471 0.9268 -1.2112 0.9885
2.4459 1.0291 -1.2283 0.9884
2.4447 1.1344 -1.2475 0.9882
2.4434 1.2431 -1.2689 0.9880
2.4419 1.3557 -1.2928 0.9878
2.4365 1.7225 -1.3812 0.9869
2.4320 1.9981 -1.4569 0.9862
2.4293 2.1478 -1.5010 0.9858
2.4265 2.3069 -1.5498 0.9854
2.4233 2.4769 -1.6040 0.9848
2.4160 2.6552 -1.6617 0.9843
2.4121 2.8517 -1.7289 0.9837
2.4077 3.0649 -1.8041 0.9830
2.3973 3.5535 -1.9842 0.9813
2.3911 3.8368 -2.0926 0.9803
2.3663 4.9146 -2.5248 0.9762
2.1951 5.0155 -2.5342 0.9762
1.6193 5.1618 -2.5041 0.9764
1.4257 5.1960 -2.4940 0.9765
1.2317 5.2229 -2.4839 0.9766
1.0377 5.2426 -2.4738 0.9767
0.8438 5.2552 -2.4637 0.9768
0.6505 5.2606 -2.4536 0.9769
0.2662 5.2506 -2.4336 0.9771
-0.1205 5.5421 -2.5660 0.9759
2.4477 0.4482 -1.2206 0.9890
2.4455 0.7289 -1.2517 0.9887
2.4435 0.9255 -1.2817 0.9884
2.4345 1.5922 -1.4269 0.9871
2.4324 1.7196 -1.4612 0.9868
2.4301 1.8535 -1.4992 0.9865
2.4249 2.1439 -1.5877 0.9857
2.4109 2.6497 -1.7572 0.9842
2.3971 3.2899 -1.9967 0.9820
2.3848 3.8267 -2.2118 0.9801
2.0659 4.7204 -2.5275 0.9773
1.8868 4.7743 -2.5181 0.9774
1.7064 4.8213 -2.5087 0.9775
0.0714 4.9400 -2.4235 0.9782
-0.3017 5.2032 -2.5566 0.9770
2.4442 0.4476 -1.2891 0.9889
2.4428 0.6328 -1.3091 0.9887
2.4398 0.9241 -1.3535 0.9883
2.4373 1.1309 -1.3939 0.9880
2.4358 1.2392 -1.4178 0.9878
2.4323 1.4680 -1.4739 0.9873
2.4259 1.8502 -1.5828 0.9863
2.4233 1.9910 -1.6270 0.9860
2.4173 2.2982 -1.7303 0.9851
2.4138 2.4672 -1.7906 0.9846
2.4058 2.6441 -1.8545 0.9840
2.4015 2.8393 -1.9292 0.9834
2.3914 3.2820 -2.1067 0.9819
2.3707 4.1298 -2.4704 0.9788
2.2812 4.3296 -2.5388 0.9782
2.1159 4.3943 -2.5302 0.9783
1.7801 4.5044 -2.5126 0.9784
1.2679 4.6211 -2.4859 0.9786
1.0959 4.6471 -2.4769 0.9787
0.7515 4.6800 -2.4590 0.9789
0.5796 4.6869 -2.4500 0.9789
0.2374 4.6822 -2.4322 0.9791
0.0675 4.6706 -2.4233 0.9792
-0.1075 4.9464 -2.5667 0.9780
-0.2854 4.9215 -2.5575 0.9780
2.4382 0.7268 -1.3935 0.9885
2.4372 0.8236 -1.4090 0.9883
2.4361 0.9227 -1.4267 0.9882
2.4348 1.0244 -1.4468 0.9880
2.4334 1.1291 -1.4693 0.9878
2.4301 1.3492 -1.5224 0.9874
2.4283 1.4655 -1.5534 0.9871
2.4263 1.5868 -1.5878 0.9869
2.4240 1.7137 -1.6259 0.9866
2.4215 1.8469 -1.6680 0.9862
2.4188 1.9873 -1.7146 0.9858
2.4125 2.2937 -1.8232 0.9849
2.4052 2.6434 -1.9574 0.9838
2.3911 3.0438 -2.1200 0.9825
2.3721 3.8062 -2.4563 0.9798
2.3091 4.0224 -2.5403 0.9791
1.6827 4.2579 -2.5076 0.9793
1.0368 4.3962 -2.4739 0.9796
0.5486 4.4366 -2.4484 0.9798
0.3863 4.4381 -2.4400 0.9799
0.2248 4.4338 -2.4315 0.9800
-0.1018 4.6859 -2.5671 0.9789
-0.4374 4.6344 -2.5496 0.9790
2.4370 0.4463 -1.4304 0.9886
2.4363 0.5379 -1.4405 0.9885
2.4354 0.6309 -1.4525 0.9884
2.4334 0.8223 -1.4830 0.9882
2.4295 1.1273 -1.5463 0.9877
2.4279 1.2352 -1.5727 0.9875
2.4241 1.4630 -1.6347 0.9870
2.4220 1.5840 -1.6709 0.9867
2.4196 1.7106 -1.7108 0.9864
2.4111 2.1317 -1.8581 0.9852
2.4077 2.2891 -1.9180 0.9848
2.4039 2.4571 -1.9846 0.9842
2.3907 2.8264 -2.1373 0.9830
2.3729 3.5174 -2.4497 0.9806
2.0397 3.8712 -2.5263 0.9800
1.8925 3.9304 -2.5186 0.9801
1.5934 4.0318 -2.5030 0.9802
1.4419 4.0740 -2.4951 0.9802
1.2894 4.1103 -2.4871 0.9803
1.1362 4.1409 -2.4791 0.9804
0.9824 4.1658 -2.4711 0.9804
0.5201 4.2063 -2.4470 0.9806
0.2132 4.2052 -2.4310 0.9807
-0.2566 4.4249 -2.5590 0.9797
-0.4152 4.3985 -2.5508 0.9798
