ply
format ascii 1.0
element vertex 653
property float32 x
property float32 y
property float32 z
property float32 I
end_header
0.4150 -17.7544 3.1314 0.9304
8.4288 -41.2710 7.4274 0.8427
11.0658 -39.5684 7.2447 0.8463
8.0321 -22.4257 4.2002 0.9078
8.0679 -20.2261 3.8397 0.9154
8.1247 -16.7858 3.2883 0.9271
8.1681 -14.1993 2.8884 0.9356
8.1864 -13.1263 2.7277 0.9391
8.2487 -11.3401 2.4726 0.9446
8.8954 -11.3560 2.5436 0.9431
10.3120 -11.3909 2.7093 0.9395
11.0939 -11.4102 2.8061 0.9374
12.0140 -10.7130 2.8383 0.9367
13.0036 -10.7893 2.9794 0.9337
3.0885 -1.3338 0.5932 0.9864
3.1638 -1.2346 0.5988 0.9863
7.4448 -2.6036 1.3907 0.9685
8.3090 -2.5776 1.5340 0.9653
8.1341 -48.5967 7.5483 0.8192
8.0046 -22.3490 3.6367 0.9084
8.0427 -20.1628 3.3255 0.9159
8.0293 -18.2157 3.0496 0.9226
8.1029 -16.7408 2.8492 0.9275
9.5818 -11.3733 2.2782 0.9416
10.3124 -11.3913 2.3540 0.9397
11.9353 -11.4314 2.5318 0.9353
13.9794 -10.7820 2.7045 0.9311
7.4151 -3.5205 1.2575 0.9673
3.0848 -1.3321 0.5148 0.9865
7.4353 -2.6002 1.2067 0.9686
8.5889 -35.5473 4.7622 0.8628
10.0213 -35.8337 4.8453 0.8606
8.0520 -18.2673 2.5996 0.9226
8.1071 -15.3319 2.2585 0.9324
8.1630 -14.1905 2.1318 0.9361
8.1984 -13.1456 2.0175 0.9394
8.1685 -12.1144 1.9027 0.9428
8.2493 -11.3409 1.8262 0.9450
8.8961 -11.3569 1.8786 0.9435
9.6515 -11.4562 1.9507 0.9414
10.3128 -11.3918 2.0010 0.9399
11.0948 -11.4111 2.0725 0.9378
11.9358 -11.4318 2.1522 0.9355
12.8453 -11.4543 2.2412 0.9329
3.0812 -1.3306 0.4370 0.9866
7.4259 -2.5969 1.0244 0.9688
8.3190 -2.5806 1.1342 0.9655
6.9353 -41.4353 4.5113 0.8445
7.6104 -37.2643 4.0841 0.8581
9.5448 -34.1299 3.8055 0.8671
10.9532 -34.3935 3.8760 0.8648
7.9508 -22.1987 2.5320 0.9095
7.9932 -20.0387 2.3167 0.9169
8.0292 -18.2156 2.1376 0.9230
8.0138 -16.5568 1.9752 0.9287
8.0872 -15.2942 1.8578 0.9328
8.0400 -13.9766 1.7314 0.9372
8.1805 -13.1169 1.6600 0.9397
8.1516 -12.0893 1.5657 0.9430
8.2496 -11.3413 1.5059 0.9451
8.8964 -11.3573 1.5492 0.9436
10.3132 -11.3922 1.6501 0.9401
11.9363 -11.4323 1.7748 0.9357
12.7895 -11.4045 1.8401 0.9334
7.3808 -4.1723 0.9104 0.9665
7.3883 -3.8360 0.8939 0.9671
7.4166 -2.5936 0.8437 0.9689
8.3239 -2.5822 0.9358 0.9655
7.4621 -44.5825 3.8265 0.8341
7.6121 -37.2726 3.2204 0.8584
8.1501 -33.7313 2.9376 0.8700
10.5268 -33.0545 2.9366 0.8700
7.9689 -19.9777 1.8207 0.9173
8.0066 -18.1644 1.6804 0.9234
8.0674 -15.2568 1.4610 0.9331
8.0215 -13.9445 1.3618 0.9375
8.1628 -13.0884 1.3058 0.9400
8.2498 -11.3417 1.1872 0.9453
11.9368 -11.4328 1.3992 0.9358
12.8464 -11.4553 1.4570 0.9332
13.8357 -11.4797 1.5219 0.9304
7.3785 -3.8309 0.7038 0.9672
7.3860 -3.5067 0.6921 0.9677
3.1541 -1.2308 0.2866 0.9865
8.3289 -2.5837 0.7382 0.9656
7.5715 -37.0737 2.3464 0.8593
7.0526 -25.2182 1.6238 0.9004
7.8982 -22.0517 1.4525 0.9104
8.0032 -13.9126 0.9953 0.9377
8.1182 -12.0397 0.9004 0.9435
8.2501 -11.3421 0.8697 0.9453
8.8971 -11.3581 0.8947 0.9438
9.6526 -11.4575 0.9290 0.9417
12.8470 -11.4557 1.0674 0.9333
7.3610 -4.1611 0.5243 0.9667
7.3764 -3.5022 0.5063 0.9678
3.0703 -1.3259 0.2074 0.9867
7.3981 -2.5872 0.4860 0.9691
8.3338 -2.5853 0.5411 0.9656
2.7798 -21.2255 0.8441 0.9179
7.3285 -43.7845 1.7505 0.8372
7.5622 -37.0280 1.4902 0.8596
8.1506 -33.7332 1.3684 0.8703
7.0538 -25.2224 1.0327 0.9005
7.9209 -19.8574 0.8430 0.9180
7.9621 -18.0634 0.7784 0.9240
8.0556 -14.0037 0.6370 0.9374
8.0798 -12.9554 0.6021 0.9407
8.1016 -12.0151 0.5714 0.9436
8.2504 -11.3425 0.5530 0.9454
12.8475 -11.4563 0.6787 0.9334
7.3511 -4.1555 0.3330 0.9668
7.3669 -3.4977 0.3216 0.9679
3.1493 -1.2289 0.1333 0.9866
7.3889 -2.5840 0.3087 0.9692
8.3387 -2.5868 0.3443 0.9657
7.3224 -43.7480 0.7493 0.8374
7.4919 -36.6837 0.6324 0.8609
8.1509 -33.7342 0.5862 0.8704
7.0549 -25.2266 0.4425 0.9005
8.0416 -25.2508 0.4476 0.8994
7.8465 -21.9075 0.3931 0.9111
7.9770 -16.4806 0.3093 0.9294
7.9346 -15.0056 0.2867 0.9343
7.8194 -13.5930 0.2649 0.9392
7.7232 -12.3836 0.2465 0.9433
8.2507 -11.3429 0.2369 0.9454
8.8977 -11.3589 0.2437 0.9439
9.5839 -11.3759 0.2513 0.9422
10.3148 -11.3940 0.2596 0.9404
11.0970 -11.4134 0.2689 0.9383
11.9383 -11.4342 0.2792 0.9360
12.8481 -11.4568 0.2908 0.9335
13.8376 -11.4812 0.3037 0.9306
7.3495 -3.8158 0.1399 0.9674
7.3574 -3.4932 0.1376 0.9679
3.0632 -1.3228 0.0564 0.9867
3.1470 -1.2279 0.0571 0.9866
7.3798 -2.5808 0.1321 0.9692
2.7769 -21.2033 -0.1204 0.9180
7.2772 -43.4776 -0.2482 0.8383
7.0561 -25.2309 -0.1475 0.9005
7.8210 -21.8363 -0.1306 0.9114
7.9182 -17.9639 -0.1105 0.9245
9.5843 -11.3763 -0.0838 0.9422
10.3152 -11.3945 -0.0865 0.9404
12.8486 -11.4572 -0.0969 0.9335
7.3316 -4.1444 -0.0474 0.9669
7.3399 -3.8109 -0.0466 0.9675
7.2324 -43.2104 -1.2336 0.8392
2.5195 -7.9112 -0.2338 0.9673
3.5903 -8.1453 -0.2506 0.9650
7.9362 -16.3964 -0.5129 0.9297
8.0758 -12.9489 -0.4297 0.9408
8.2513 -11.3437 -0.3950 0.9454
8.8984 -11.3597 -0.4063 0.9439
9.5426 -11.3269 -0.4170 0.9425
7.3385 -3.4842 -0.2287 0.9680
7.3616 -2.5744 -0.2196 0.9693
-6.7558 -43.3159 -2.2233 0.8390
-3.9007 -46.6146 -2.3723 0.8292
1.1440 -48.9422 -2.4827 0.8220
2.7786 -21.2165 -1.0852 0.9179
6.8158 -33.3737 -1.7275 0.8725
2.5096 -7.8803 -0.4194 0.9674
2.5115 -6.2962 -0.3438 0.9732
2.5127 -5.1912 -0.2925 0.9772
2.5131 -4.7527 -0.2727 0.9787
2.5135 -4.3694 -0.2556 0.9800
2.5138 -4.0307 -0.2409 0.9812
2.5141 -3.7285 -0.2281 0.9822
2.5143 -3.4566 -0.2168 0.9830
2.5145 -3.2100 -0.2068 0.9838
2.5080 -2.5794 -0.1825 0.9857
9.2869 -8.2812 -0.6310 0.9514
10.7819 -8.3159 -0.6905 0.9469
12.5986 -8.3580 -0.7667 0.9412
13.6901 -8.3959 -0.8144 0.9377
7.3121 -4.1335 -0.4260 0.9669
3.0525 -1.3182 -0.1686 0.9868
8.3584 -2.5929 -0.4438 0.9656
-3.8476 -32.1524 -2.3743 0.8782
-1.6251 -33.9241 -2.4902 0.8727
3.3456 -35.2578 -2.5968 0.8676
6.5122 -31.8867 -2.3863 0.8776
6.2737 -22.4333 -1.7080 0.9108
2.4998 -7.8495 -0.6040 0.9675
2.5058 -5.1770 -0.4217 0.9772
2.5068 -4.7406 -0.3932 0.9787
2.5075 -4.3590 -0.3687 0.9800
2.5100 -2.9793 -0.2856 0.9845
2.5037 -2.7657 -0.2735 0.9851
2.5039 -2.3981 -0.2542 0.9862
2.5039 -2.0775 -0.2386 0.9870
2.5039 -1.9312 -0.2319 0.9874
2.5039 -1.7927 -0.2258 0.9877
2.5038 -1.6611 -0.2203 0.9880
2.5038 -1.5355 -0.2154 0.9883
2.5035 -1.0811 -0.1999 0.9891
2.5034 -0.9769 -0.1970 0.9893
2.5033 -0.8754 -0.1944 0.9894
2.5032 -0.7765 -0.1922 0.9895
-3.8134 -24.4499 -2.3757 0.9053
-2.9932 -25.0126 -2.4185 0.9037
0.5971 -25.5440 -2.4530 0.9024
1.5364 -26.0160 -2.5020 0.9006
4.5747 -27.3314 -2.6604 0.8946
5.6634 -27.7305 -2.7172 0.8925
5.8550 -24.2320 -2.3933 0.9047
2.4901 -7.8189 -0.7878 0.9676
2.4973 -5.6657 -0.5944 0.9754
2.4990 -5.1629 -0.5507 0.9772
2.5015 -4.3486 -0.4816 0.9800
2.5025 -4.0126 -0.4540 0.9812
2.5034 -3.7126 -0.4299 0.9822
2.5041 -3.4426 -0.4087 0.9830
2.5048 -3.1976 -0.3900 0.9838
2.4995 -2.7609 -0.3575 0.9851
2.4999 -2.3943 -0.3323 0.9862
2.5002 -2.0744 -0.3119 0.9870
2.5003 -1.7902 -0.2952 0.9877
2.5004 -1.5335 -0.2816 0.9883
2.5004 -1.4135 -0.2758 0.9885
2.5003 -0.9756 -0.2577 0.9893
2.5002 -0.7756 -0.2513 0.9895
-3.1280 -20.0561 -2.4112 0.9215
-2.4474 -20.4515 -2.4467 0.9204
-1.7433 -20.8337 -2.4834 0.9192
-1.0156 -21.2017 -2.5214 0.9181
-0.2640 -21.5543 -2.5605 0.9168
2.0091 -21.1734 -2.5264 0.9179
4.4722 -21.8976 -2.6548 0.9139
5.3384 -22.0940 -2.7000 0.9125
5.6237 -20.1091 -2.4803 0.9193
2.4804 -7.7883 -0.9709 0.9676
2.4842 -6.9360 -0.8752 0.9708
2.4874 -6.2358 -0.7975 0.9733
2.4921 -5.1488 -0.6795 0.9772
2.4955 -4.3382 -0.5945 0.9800
2.4969 -4.0035 -0.5605 0.9812
2.4990 -3.4356 -0.5047 0.9830
2.5007 -2.9683 -0.4610 0.9845
2.4962 -2.2258 -0.3973 0.9866
2.4968 -1.7876 -0.3648 0.9877
2.4969 -1.6564 -0.3559 0.9880
2.4972 -1.2965 -0.3342 0.9887
2.4972 -0.8733 -0.3142 0.9894
2.4971 -0.7746 -0.3106 0.9895
-2.6494 -16.9870 -2.4360 0.9329
-0.8542 -17.8326 -2.5296 0.9304
-0.2215 -18.0846 -2.5626 0.9295
0.4028 -17.2335 -2.4425 0.9327
2.3306 -17.7956 -2.5430 0.9301
3.0037 -17.9456 -2.5781 0.9291
5.1092 -18.2689 -2.6878 0.9262
2.4706 -7.7579 -1.1536 0.9676
2.4794 -6.2157 -0.9482 0.9733
2.4853 -5.1347 -0.8083 0.9772
2.4876 -4.7044 -0.7540 0.9787
2.4896 -4.3278 -0.7074 0.9800
2.4913 -3.9945 -0.6670 0.9812
2.4927 -3.6968 -0.6318 0.9821
2.4951 -3.1852 -0.5733 0.9838
2.4961 -2.9627 -0.5489 0.9845
2.4908 -2.7514 -0.5259 0.9851
2.4914 -2.5624 -0.5064 0.9857
2.4919 -2.3866 -0.4889 0.9862
2.4926 -2.0681 -0.4589 0.9870
2.4932 -1.7850 -0.4345 0.9877
2.4934 -1.6541 -0.4240 0.9880
2.4936 -1.5293 -0.4145 0.9883
2.4938 -1.4097 -0.4059 0.9885
2.4939 -1.2948 -0.3981 0.9887
2.4941 -1.0771 -0.3849 0.9891
2.4941 -0.8722 -0.3744 0.9894
-2.2958 -14.7200 -2.4543 0.9414
-1.2694 -15.1699 -2.5078 0.9402
-0.1906 -15.5632 -2.5641 0.9389
0.3460 -14.8035 -2.4394 0.9417
1.4313 -15.0832 -2.4960 0.9404
1.9905 -15.1982 -2.5251 0.9398
2.5602 -15.2955 -2.5548 0.9391
3.7292 -15.4340 -2.6158 0.9377
4.3274 -15.4738 -2.6469 0.9369
2.4610 -7.7274 -1.3360 0.9677
2.4753 -5.6155 -1.0110 0.9754
2.4785 -5.1206 -0.9372 0.9772
2.4812 -4.6924 -0.8744 0.9787
2.4836 -4.3173 -0.8205 0.9800
2.4873 -3.6888 -0.7329 0.9821
2.4914 -2.9572 -0.6370 0.9844
2.4884 -2.2189 -0.5492 0.9866
2.4888 -2.0650 -0.5328 0.9870
2.4893 -1.9199 -0.5179 0.9873
2.4899 -1.6518 -0.4922 0.9880
2.4904 -1.4078 -0.4713 0.9885
2.4908 -1.1826 -0.4542 0.9889
2.4909 -1.0757 -0.4470 0.9891
2.4910 -0.8711 -0.4347 0.9894
2.4911 -0.7728 -0.4297 0.9895
-2.0237 -12.9755 -2.4684 0.9480
-1.5752 -13.1629 -2.4918 0.9475
-1.1161 -13.3376 -2.5157 0.9470
-0.6466 -13.4989 -2.5402 0.9465
-0.1671 -13.6464 -2.5652 0.9460
0.3030 -12.9621 -2.4370 0.9486
1.7353 -13.2498 -2.5117 0.9471
3.7495 -13.4071 -2.6167 0.9449
2.4716 -5.1064 -1.0663 0.9772
2.4776 -4.3069 -0.9339 0.9800
2.4799 -3.9763 -0.8808 0.9811
2.4837 -3.4146 -0.7936 0.9830
2.4853 -3.1727 -0.7575 0.9837
2.4867 -2.9516 -0.7254 0.9844
2.4821 -2.7418 -0.6952 0.9851
2.4838 -2.3789 -0.6464 0.9861
2.4851 -2.0618 -0.6069 0.9869
2.4856 -1.9171 -0.5900 0.9873
2.4861 -1.7799 -0.5747 0.9876
2.4864 -1.6495 -0.5608 0.9879
2.4868 -1.5251 -0.5483 0.9882
2.4871 -1.4059 -0.5370 0.9884
2.4873 -1.2914 -0.5268 0.9887
2.4878 -0.9708 -0.5019 0.9892
2.4880 -0.7718 -0.4896 0.9895
-1.8077 -11.5902 -2.4796 0.9532
-0.9949 -11.8893 -2.5219 0.9524
-0.5758 -12.0204 -2.5438 0.9520
0.2693 -11.5174 -2.4352 0.9540
1.1078 -11.6749 -2.4789 0.9532
2.4492 -6.8381 -1.5354 0.9707
2.4742 -3.9672 -0.9883 0.9811
2.4786 -3.4075 -0.8907 0.9829
2.4804 -3.1665 -0.8502 0.9837
2.4797 -2.3750 -0.7258 0.9861
2.4813 -2.0587 -0.6815 0.9869
2.4829 -1.6471 -0.6298 0.9879
2.4840 -1.2897 -0.5916 0.9886
2.4843 -1.1795 -0.5813 0.9888
2.4847 -0.9695 -0.5638 0.9892
2.4848 -0.8690 -0.5564 0.9893
2.4849 -0.7708 -0.5499 0.9894
-1.6318 -10.4626 -2.4887 0.9574
-1.2678 -10.5942 -2.5077 0.9571
0.6154 -10.4199 -2.4532 0.9580
0.9940 -10.4750 -2.4729 0.9577
1.3775 -10.5173 -2.4929 0.9574
1.7653 -10.5464 -2.5131 0.9570
2.1571 -10.5620 -2.5336 0.9567
2.5525 -10.5637 -2.5542 0.9563
2.4319 -7.6362 -1.8835 0.9676
2.4473 -6.1353 -1.5524 0.9732
2.4579 -5.0780 -1.3259 0.9771
2.4620 -4.6559 -1.2378 0.9786
2.4655 -4.2859 -1.1621 0.9799
2.4685 -3.9580 -1.0963 0.9810
2.4734 -3.4004 -0.9882 0.9829
2.4773 -2.9404 -0.9036 0.9843
2.4734 -2.7321 -0.8662 0.9850
2.4756 -2.3711 -0.8056 0.9860
2.4766 -2.2084 -0.7798 0.9865
2.4774 -2.0555 -0.7566 0.9869
2.4781 -1.9113 -0.7355 0.9872
2.4793 -1.6448 -0.6993 0.9878
2.4813 -1.0715 -0.6352 0.9890
2.4818 -0.7699 -0.6107 0.9894
-1.4857 -9.5259 -2.4962 0.9609
-1.1535 -9.6392 -2.5136 0.9607
-0.8152 -9.7420 -2.5312 0.9604
-0.4711 -9.8341 -2.5491 0.9601
-0.1214 -9.9150 -2.5674 0.9599
0.2196 -9.3923 -2.4325 0.9619
0.5579 -9.4466 -2.4502 0.9617
0.9005 -9.4894 -2.4680 0.9614
1.2469 -9.5204 -2.4861 0.9611
1.9496 -9.5462 -2.5227 0.9605
2.3052 -9.5403 -2.5412 0.9603
2.4510 -5.0636 -1.4566 0.9770
2.4555 -4.6437 -1.3601 0.9785
2.4594 -4.2753 -1.2770 0.9798
2.4682 -3.3932 -1.0864 0.9828
2.4705 -3.1538 -1.0373 0.9836
2.4725 -2.9348 -0.9936 0.9843
2.4690 -2.7272 -0.9525 0.9849
2.4715 -2.3671 -0.8861 0.9860
2.4726 -2.2048 -0.8577 0.9864
2.4735 -2.0523 -0.8322 0.9868
2.4744 -1.9084 -0.8091 0.9872
2.4758 -1.6424 -0.7692 0.9878
2.4763 -1.5187 -0.7521 0.9881
2.4769 -1.4001 -0.7367 0.9883
2.4777 -1.1763 -0.7101 0.9887
2.4787 -0.7689 -0.6719 0.9893
-1.3623 -8.7347 -2.5026 0.9639
-1.0571 -8.8335 -2.5185 0.9637
-0.4312 -9.0015 -2.5512 0.9632
0.8222 -8.6645 -2.4639 0.9645
1.4561 -8.6991 -2.4969 0.9640
1.7768 -8.6996 -2.5136 0.9638
2.4124 -7.5749 -2.2505 0.9675
2.4227 -6.7642 -2.0340 0.9706
2.4381 -5.5312 -1.7112 0.9752
2.4440 -5.0493 -1.5881 0.9769
2.4490 -4.6313 -1.4831 0.9785
2.4532 -4.2646 -1.3928 0.9798
2.4602 -3.6485 -1.2458 0.9819
2.4630 -3.3861 -1.1853 0.9827
2.4655 -3.1474 -1.1319 0.9835
2.4645 -2.7223 -1.0396 0.9848
2.4660 -2.5363 -1.0014 0.9854
2.4674 -2.3631 -0.9672 0.9859
2.4696 -2.0490 -0.9084 0.9867
2.4721 -1.6400 -0.8398 0.9877
2.4728 -1.5165 -0.8212 0.9880
2.4734 -1.3982 -0.8043 0.9883
2.4750 -0.9658 -0.7521 0.9890
2.4753 -0.8656 -0.7423 0.9892
2.4755 -0.7679 -0.7337 0.9893
-0.9745 -8.1440 -2.5228 0.9663
-0.1022 -8.3494 -2.5683 0.9657
0.1847 -7.9002 -2.4306 0.9675
0.4688 -7.9367 -2.4454 0.9673
1.0452 -7.9801 -2.4755 0.9669
1.6303 -7.9826 -2.5060 0.9665
2.2214 -7.9428 -2.5368 0.9661
2.4026 -7.5441 -2.4353 0.9674
2.4230 -6.0743 -2.0115 0.9730
2.4306 -5.5141 -1.8535 0.9751
2.4471 -4.2538 -1.5094 0.9797
2.4511 -3.9301 -1.4247 0.9808
2.4546 -3.6403 -1.3505 0.9818
2.4604 -3.1410 -1.2272 0.9834
2.4629 -2.9233 -1.1757 0.9841
2.4600 -2.7174 -1.1274 0.9848
2.4632 -2.3591 -1.0490 0.9858
2.4685 -1.6376 -0.9111 0.9877
2.4693 -1.5143 -0.8909 0.9880
2.4699 -1.3962 -0.8727 0.9882
2.4704 -1.2827 -0.8562 0.9884
2.4710 -1.1732 -0.8413 0.9886
2.4714 -1.0672 -0.8280 0.9888
2.4723 -0.7669 -0.7962 0.9892
-1.1649 -7.4693 -2.5129 0.9686
-0.3677 -7.6759 -2.5544 0.9681
0.6984 -7.3596 -2.4574 0.9693
1.2343 -7.3741 -2.4853 0.9690
1.5046 -7.3670 -2.4994 0.9688
1.7760 -7.3501 -2.5135 0.9686
2.4147 -6.0537 -2.1665 0.9729
2.4358 -4.6063 -1.7321 0.9783
2.4408 -4.2430 -1.6271 0.9796
2.4452 -3.9206 -1.5359 0.9807
2.4490 -3.6320 -1.4561 0.9817
2.4524 -3.3714 -1.3858 0.9826
2.4554 -3.1345 -1.3235 0.9834
2.4589 -2.3551 -1.1318 0.9858
2.4629 -1.8996 -1.0339 0.9870
2.4639 -1.7640 -1.0073 0.9873
2.4676 -1.1715 -0.9080 0.9886
2.4691 -0.7659 -0.8593 0.9892
-1.0846 -6.9544 -2.5170 0.9705
-0.8405 -7.0239 -2.5297 0.9704
-0.5929 -7.0854 -2.5427 0.9702
-0.0879 -7.1832 -2.5690 0.9699
0.1588 -6.7911 -2.4292 0.9716
0.4026 -6.8166 -2.4419 0.9714
0.6485 -6.8336 -2.4547 0.9713
0.8961 -6.8420 -2.4676 0.9711
1.1452 -6.8415 -2.4806 0.9710
1.3954 -6.8321 -2.4937 0.9708
2.1494 -6.7491 -2.5330 0.9704
2.4065 -6.0329 -2.3227 0.9728
2.4153 -5.4795 -2.1414 0.9749
2.4227 -5.0054 -1.9886 0.9767
2.4291 -4.5937 -1.8583 0.9782
2.4345 -4.2321 -1.7460 0.9795
2.4392 -3.9111 -1.6484 0.9806
2.4434 -3.6236 -1.5629 0.9816
2.4470 -3.3640 -1.4876 0.9825
2.4502 -3.1279 -1.4209 0.9833
2.4509 -2.7073 -1.3059 0.9846
2.4562 -2.1902 -1.1768 0.9861
2.4577 -2.0391 -1.1420 0.9865
2.4589 -1.8965 -1.1105 0.9869
2.4641 -1.1699 -0.9754 0.9885
2.4651 -0.9619 -0.9463 0.9888
2.4655 -0.8622 -0.9340 0.9890
2.4658 -0.7649 -0.9232 0.9891
-1.0136 -6.4991 -2.5207 0.9722
-0.5537 -6.6171 -2.5447 0.9720
-0.0821 -6.7039 -2.5693 0.9717
0.1481 -6.3357 -2.4286 0.9732
0.3755 -6.3573 -2.4405 0.9731
0.8351 -6.3764 -2.4644 0.9728
1.0669 -6.3737 -2.4765 0.9727
1.7662 -6.3152 -2.5130 0.9723
2.4076 -5.4619 -2.2874 0.9748
2.4415 -3.3565 -1.5906 0.9824
2.4449 -3.1212 -1.5194 0.9832
2.4462 -2.7021 -1.3968 0.9845
2.4484 -2.5181 -1.3459 0.9851
2.4536 -2.0357 -1.2217 0.9864
2.4550 -1.8934 -1.1881 0.9868
2.4573 -1.6302 -1.1300 0.9874
2.4591 -1.3901 -1.0825 0.9880
2.4606 -1.1682 -1.0438 0.9884
2.4612 -1.0628 -1.0274 0.9886
2.4625 -0.7639 -0.9880 0.9890
-0.9503 -6.0932 -2.5240 0.9737
-0.2990 -6.2427 -2.5579 0.9733
0.7811 -5.9636 -2.4616 0.9743
0.9975 -5.9592 -2.4729 0.9742
1.4321 -5.9269 -2.4955 0.9740
1.8671 -5.8627 -2.5182 0.9738
2.0840 -5.8185 -2.5295 0.9736
2.3001 -5.7661 -2.5408 0.9735
2.3997 -5.4441 -2.4350 0.9746
2.4154 -4.5680 -2.1149 0.9779
2.4217 -4.2098 -1.9877 0.9792
2.4318 -3.6065 -1.7803 0.9814
2.4360 -3.3489 -1.6949 0.9823
2.4429 -2.8997 -1.5518 0.9837
2.4415 -2.6969 -1.4889 0.9844
2.4438 -2.5135 -1.4348 0.9850
2.4494 -2.0323 -1.3026 0.9863
2.4545 -1.5053 -1.1784 0.9876
2.4555 -1.3880 -1.1544 0.9879
2.4563 -1.2753 -1.1327 0.9881
2.4570 -1.1666 -1.1132 0.9883
2.4577 -1.0613 -1.0956 0.9885
2.4583 -0.9592 -1.0800 0.9887
2.4587 -0.8598 -1.0660 0.9888
-0.6918 -5.7810 -2.5374 0.9749
-0.0722 -5.8959 -2.5697 0.9746
0.1302 -5.5688 -2.4277 0.9760
0.7328 -5.5946 -2.4591 0.9757
0.9355 -5.5889 -2.4696 0.9756
1.1388 -5.5759 -2.4802 0.9755
1.3424 -5.5555 -2.4908 0.9754
1.5459 -5.5275 -2.5014 0.9753
1.7491 -5.4921 -2.5120 0.9752
1.9518 -5.4492 -2.5226 0.9751
2.1535 -5.3987 -2.5331 0.9750
2.3541 -5.3405 -2.5436 0.9749
2.4209 -3.8817 -1.9938 0.9802
2.4260 -3.5978 -1.8912 0.9812
2.4343 -3.1076 -1.7204 0.9829
2.4434 -2.1788 -1.4268 0.9858
2.4468 -1.8872 -1.3467 0.9866
2.4483 -1.7529 -1.3123 0.9869
2.4517 -1.3859 -1.2274 0.9878
2.4548 -0.9579 -1.1484 0.9886
2.4557 -0.7618 -1.1205 0.9888
-0.8421 -5.3995 -2.5296 0.9762
0.4994 -5.2625 -2.4469 0.9770
0.8798 -5.2558 -2.4667 0.9768
1.0707 -5.2422 -2.4767 0.9767
1.2617 -5.2217 -2.4866 0.9766
1.6432 -5.1596 -2.5065 0.9764
2.0221 -5.0692 -2.5262 0.9762
2.2098 -5.0133 -2.5360 0.9761
2.3933 -4.9446 -2.5428 0.9761
2.4085 -4.1869 -2.2359 0.9789
2.4200 -3.5889 -2.0037 0.9811
2.4326 -2.8874 -1.7476 0.9835
2.4318 -2.6862 -1.6773 0.9842
2.4410 -2.0253 -1.4681 0.9861
2.4442 -1.7500 -1.3915 0.9868
2.4468 -1.5006 -1.3286 0.9874
2.4498 -1.1631 -1.2553 0.9881
2.4505 -1.0582 -1.2356 0.9883
2.4523 -0.7607 -1.1885 0.9887
-0.4336 -5.1821 -2.5509 0.9771
0.1157 -4.9461 -2.4269 0.9782
0.2929 -4.9577 -2.4361 0.9781
0.4710 -4.9629 -2.4454 0.9780
0.8293 -4.9544 -2.4641 0.9779
1.0090 -4.9404 -2.4734 0.9778
1.1888 -4.9199 -2.4828 0.9777
1.5475 -4.8592 -2.5015 0.9775
1.7260 -4.8188 -2.5108 0.9775
2.0798 -4.7181 -2.5292 0.9773
2.3944 -4.5281 -2.5126 0.9774
2.4083 -3.8615 -2.2323 0.9799
2.4139 -3.5800 -2.1180 0.9809
2.4273 -2.8811 -1.8479 0.9834
2.4269 -2.6808 -1.7738 0.9840
2.4323 -2.3296 -1.6520 0.9851
2.4346 -2.1709 -1.6000 0.9856
2.4429 -1.4982 -1.4057 0.9873
2.4441 -1.3816 -1.3772 0.9876
2.4451 -1.2695 -1.3514 0.9878
2.4469 -1.0567 -1.3074 0.9882
2.4482 -0.8562 -1.2722 0.9885
2.4487 -0.7596 -1.2576 0.9886
-0.5824 -4.8673 -2.5431 0.9782
-0.4102 -4.9022 -2.5521 0.9781
-0.0606 -4.9541 -2.5703 0.9779
0.2768 -4.6860 -2.4353 0.9791
0.6140 -4.6880 -2.4528 0.9789
0.7834 -4.6800 -2.4617 0.9788
1.1225 -4.6455 -2.4793 0.9787
1.4606 -4.5862 -2.4970 0.9785
1.6287 -4.5471 -2.5057 0.9785
2.1261 -4.3925 -2.5316 0.9782
2.2888 -4.3284 -2.5401 0.9782
2.3950 -4.1633 -2.4917 0.9786
2.4018 -3.8511 -2.3546 0.9798
2.4131 -3.3173 -2.1281 0.9817
2.4177 -3.0864 -2.0340 0.9825
2.4219 -2.8746 -1.9500 0.9832
2.4219 -2.6752 -1.8721 0.9839
2.4249 -2.4940 -1.8046 0.9844
2.4300 -2.1668 -1.6890 0.9854
2.4341 -1.8774 -1.5947 0.9862
2.4401 -1.3794 -1.4541 0.9874
2.4413 -1.2675 -1.4270 0.9877
2.4431 -1.0550 -1.3806 0.9881
2.4451 -0.7585 -1.3281 0.9885
-0.7136 -4.5754 -2.5362 0.9791
-0.3887 -4.6454 -2.5532 0.9790
-0.0574 -4.6928 -2.5704 0.9788
0.1036 -4.4285 -2.4262 0.9800
0.4214 -4.4401 -2.4428 0.9799
0.9016 -4.4146 -2.4678 0.9797
1.6975 -4.2554 -2.5093 0.9793
2.3952 -3.8405 -2.4790 0.9796
2.4167 -2.6696 -1.9723 0.9837
2.4199 -2.4889 -1.9013 0.9843
2.4228 -2.3205 -1.8374 0.9848
2.4277 -2.0142 -1.7277 0.9857
2.4297 -1.8740 -1.6806 0.9861
2.4414 -0.7574 -1.4000 0.9884
-0.5239 -4.3787 -2.5461 0.9798
0.3996 -4.2101 -2.4416 0.9807
0.8545 -4.1837 -2.4653 0.9805
1.3082 -4.1078 -2.4890 0.9803
1.4583 -4.0713 -2.4968 0.9802
1.6073 -4.0293 -2.5046 0.9802
1.9016 -3.9286 -2.5199 0.9800
2.0464 -3.8699 -2.5274 0.9800
2.1893 -3.8058 -2.5349 0.9799
2.3951 -3.5520 -2.4735 0.9804
2.4061 -3.0716 -2.2528 0.9821
2.4115 -2.6637 -2.0745 0.9835
2.4148 -2.4837 -2.0000 0.9841
2.4179 -2.3158 -1.9329 0.9847
2.4206 -2.1584 -1.8724 0.9851
2.4272 -1.7378 -1.7235 0.9863
2.4333 -1.2634 -1.5829 0.9874
2.4354 -1.0517 -1.5316 0.9878
2.4370 -0.8522 -1.4906 0.9881
2.4377 -0.7562 -1.4735 0.9883
