ply
format ascii 1.0
element vertex 550
property float32 x
property float32 y
property float32 z
property float32 I
end_header
-27.0064 25.3575 6.5321 0.8603
-27.2285 23.8045 6.3772 0.8634
-27.7002 14.0646 5.4778 0.8815
-30.4708 14.1339 5.9227 0.8725
-26.8021 33.4965 6.5720 0.8406
-25.0191 29.0878 5.8777 0.8562
-27.1044 29.3375 6.1188 0.8508
-27.2789 25.6133 5.7324 0.8595
-27.2707 23.8414 5.5491 0.8637
-27.3789 22.2716 5.4068 0.8669
-27.4057 20.7210 5.2634 0.8702
-27.4071 19.2318 5.1292 0.8733
-27.5229 15.2270 4.8186 0.8805
-30.4685 14.1328 5.1453 0.8729
-33.7329 14.2143 5.6077 0.8623
-42.0453 15.9840 6.8908 0.8336
-25.0387 29.1105 5.0001 0.8565
-27.4200 22.3051 4.6028 0.8671
-27.4462 19.2592 4.3662 0.8735
-27.5237 16.5302 4.1809 0.8785
-30.4662 14.1317 4.3734 0.8733
-42.0982 16.0041 5.8648 0.8339
-42.4370 14.4303 5.8369 0.8346
-27.2530 27.4737 4.1555 0.8558
-27.4442 20.7500 3.6945 0.8707
-27.5241 17.8900 3.5250 0.8763
-27.5611 16.5527 3.4523 0.8787
-27.5964 15.2677 3.3866 0.8808
-33.7274 14.2120 3.9301 0.8631
-42.1510 16.0242 4.8423 0.8341
-42.4328 14.4289 4.8127 0.8350
-25.0938 29.1747 3.2576 0.8569
-27.2424 29.4869 3.3984 0.8512
-25.3475 23.7998 2.9433 0.8697
-26.3892 23.0708 2.9673 0.8687
-25.7295 19.4537 2.7306 0.8785
-27.5240 19.3138 2.8464 0.8737
-27.5387 15.2358 2.6642 0.8813
-41.4030 15.7398 3.7496 0.8371
-41.4780 14.1042 3.7087 0.8387
-27.2473 29.4922 2.4899 0.8514
-27.3419 27.5633 2.4075 0.8559
-25.7667 19.4818 2.0031 0.8786
-27.5629 19.3411 2.0880 0.8738
-27.6002 17.9395 2.0413 0.8764
-27.6697 15.3083 1.9609 0.8810
-27.6520 14.0401 1.9231 0.8831
-26.0293 12.0737 1.7793 0.8914
-26.3479 35.4384 1.7413 0.8380
-27.2782 31.7143 1.6495 0.8458
-27.2663 29.5128 1.5843 0.8514
-25.7715 20.9641 1.3100 0.8755
-27.7064 15.3285 1.2485 0.8810
-30.4573 14.1276 1.3239 0.8742
-42.3089 16.0842 1.7848 0.8343
-25.6112 29.7762 0.6635 0.8546
-27.4308 27.6529 0.6579 0.8557
-27.2812 23.8506 0.6122 0.8650
-27.5676 22.4251 0.6003 0.8675
-27.6032 20.8703 0.5845 0.8707
-27.5903 19.3603 0.5693 0.8739
-25.9150 16.8442 0.5221 0.8837
-25.9775 14.3720 0.5015 0.8880
-26.1279 12.1194 0.4865 0.8912
-33.7167 14.2075 0.6180 0.8638
-40.5577 15.4184 0.7329 0.8406
-42.3287 12.7358 0.7467 0.8379
-25.5813 34.4073 -0.2414 0.8424
-25.6016 29.7649 -0.2210 0.8547
-25.6509 27.7642 -0.2128 0.8597
-25.8176 21.0016 -0.1874 0.8754
-30.3901 10.3339 -0.1807 0.8795
-41.8186 9.4059 -0.2413 0.8424
-44.5143 6.7375 -0.2535 0.8352
-44.5352 5.1308 -0.2524 0.8358
-44.5504 3.5354 -0.2516 0.8363
-25.0991 29.1808 -1.0838 0.8573
-25.3874 25.5930 -1.0151 0.8657
-25.7089 24.1392 -0.9930 0.8684
-26.2733 21.3723 -0.9537 0.8733
-25.9242 18.1912 -0.8918 0.8810
-26.0157 14.3932 -0.8372 0.8878
-26.0474 13.2254 -0.8226 0.8897
-26.1240 12.1176 -0.8109 0.8912
-27.7608 11.6978 -0.8482 0.8864
-29.6942 8.9344 -0.8732 0.8833
-31.8613 5.9865 -0.9128 0.8783
-31.9829 3.6847 -0.9065 0.8791
-32.0465 1.4007 -0.9032 0.8795
-32.0569 0.2619 -0.9027 0.8796
-12.9999 35.0440 -1.8956 0.8610
-13.8882 33.7165 -1.8493 0.8641
-14.7223 32.4219 -1.8058 0.8671
-15.5056 31.1582 -1.7650 0.8699
-16.9328 28.7162 -1.6907 0.8750
-17.5825 27.5344 -1.6568 0.8774
-18.1929 26.3766 -1.6250 0.8796
-18.7664 25.2413 -1.5951 0.8816
-19.3051 24.1270 -1.5671 0.8836
-20.7302 20.8981 -1.4928 0.8888
-21.5370 18.8287 -1.4508 0.8917
-21.9015 17.8159 -1.4318 0.8931
-22.2415 16.8164 -1.4141 0.8943
-22.5582 15.8293 -1.3976 0.8955
-22.8526 14.8537 -1.3823 0.8966
-23.3565 12.9220 -1.3537 0.8986
-23.4448 11.9040 -1.3335 0.9000
-24.0158 10.1198 -1.3217 0.9009
-24.1914 9.1966 -1.3125 0.9015
-24.4897 7.3685 -1.2970 0.9026
-24.7201 5.5601 -1.2850 0.9035
-24.8851 3.7665 -1.2764 0.9041
-6.4538 29.8149 -2.2367 0.8848
-8.2045 28.0875 -2.1455 0.8893
-9.0155 27.2314 -2.1032 0.8913
-10.5184 25.5355 -2.0249 0.8951
-11.2140 24.6959 -1.9887 0.8969
-11.8746 23.8619 -1.9543 0.8986
-13.0969 22.2109 -1.8906 0.9018
-14.7033 19.7762 -1.8069 0.9059
-15.1831 18.9755 -1.7819 0.9071
-16.0658 17.3895 -1.7359 0.9094
-16.4705 16.6040 -1.7148 0.9105
-17.5485 14.2751 -1.6587 0.9133
-18.1611 12.7438 -1.6267 0.9149
-18.4374 11.9839 -1.6123 0.9156
-18.6946 11.2277 -1.5989 0.9163
-18.9332 10.4748 -1.5865 0.9169
-19.7097 7.4929 -1.5461 0.9189
-19.8614 6.7537 -1.5382 0.9193
-20.2191 4.5477 -1.5195 0.9202
-20.3067 3.8155 -1.5150 0.9205
-6.5222 22.3282 -2.2332 0.9108
-7.1959 21.7355 -2.1981 0.9121
-8.4591 20.5361 -2.1323 0.9146
-9.6155 19.3222 -2.0720 0.9169
-10.1556 18.7110 -2.0439 0.9180
-10.6714 18.0975 -2.0170 0.9190
-12.5044 15.6277 -1.9215 0.9227
-12.9084 15.0077 -1.9005 0.9235
-13.2919 14.3870 -1.8805 0.9243
-13.6554 13.7660 -1.8615 0.9250
-14.6311 11.9018 -1.8107 0.9270
-14.9195 11.2804 -1.7957 0.9276
-15.1903 10.6592 -1.7816 0.9281
-15.4438 10.0382 -1.7684 0.9287
-15.6804 9.4174 -1.7560 0.9291
-15.9004 8.7969 -1.7446 0.9296
-16.1042 8.1768 -1.7340 0.9300
-16.2919 7.5570 -1.7242 0.9304
-16.6205 6.3185 -1.7071 0.9310
-16.7617 5.6997 -1.6997 0.9313
-16.9993 4.4631 -1.6873 0.9318
-17.0960 3.8453 -1.6823 0.9320
-17.1780 3.2276 -1.6780 0.9322
-17.2455 2.6102 -1.6745 0.9323
-17.3622 0.7589 -1.6684 0.9325
-17.3725 0.1419 -1.6679 0.9326
-4.1936 19.3733 -2.3546 0.9233
-4.8120 18.9492 -2.3223 0.9243
-5.4084 18.5153 -2.2913 0.9252
-5.9831 18.0723 -2.2613 0.9262
-6.5365 17.6207 -2.2325 0.9271
-7.0691 17.1617 -2.2047 0.9280
-7.5811 16.6954 -2.1781 0.9288
-8.0729 16.2225 -2.1524 0.9296
-8.5451 15.7437 -2.1278 0.9304
-9.8465 14.2758 -2.0600 0.9325
-10.2433 13.7775 -2.0393 0.9332
-11.6547 11.7491 -1.9658 0.9355
-11.9652 11.2347 -1.9496 0.9360
-12.2594 10.7178 -1.9343 0.9365
-12.5375 10.1988 -1.9198 0.9370
-13.2785 8.6307 -1.8812 0.9382
-13.6969 7.5778 -1.8594 0.9389
-14.3600 5.4591 -1.8249 0.9400
-14.7104 3.8622 -1.8066 0.9406
-14.7999 3.3288 -1.8020 0.9407
-15.0242 1.1923 -1.7903 0.9411
-15.0470 0.6577 -1.7891 0.9411
-15.0567 0.1230 -1.7886 0.9412
-4.0988 16.1406 -2.3595 0.9349
-4.6159 15.8023 -2.3326 0.9357
-6.9517 13.9695 -2.2109 0.9389
-8.1589 12.7769 -2.1480 0.9406
-9.8623 10.6749 -2.0592 0.9430
-10.1584 10.2407 -2.0438 0.9434
-10.9608 8.9162 -2.0020 0.9445
-11.4259 8.0177 -1.9778 0.9452
-12.3532 5.7300 -1.9294 0.9465
-12.4993 5.2670 -1.9218 0.9467
-12.6326 4.8024 -1.9149 0.9469
-12.8611 3.8697 -1.9030 0.9472
-13.1679 1.9930 -1.8870 0.9476
-13.2137 1.5223 -1.8846 0.9477
-13.2471 1.0513 -1.8829 0.9477
-13.2684 0.5800 -1.8818 0.9478
-13.2773 0.1085 -1.8813 0.9478
-4.0227 13.7715 -2.3635 0.9435
-4.4651 13.4871 -2.3405 0.9440
-4.8940 13.1929 -2.3181 0.9446
-5.3093 12.8894 -2.2965 0.9451
-6.0993 12.2564 -2.2553 0.9460
-6.4740 11.9279 -2.2358 0.9465
-6.8354 11.5921 -2.2169 0.9469
-7.5181 10.9000 -2.1814 0.9477
-9.2530 8.6881 -2.0910 0.9498
-9.4975 8.3032 -2.0782 0.9501
-9.7294 7.9145 -2.0662 0.9504
-9.9489 7.5222 -2.0547 0.9507
-10.3510 6.7279 -2.0338 0.9512
-11.1451 4.6963 -1.9924 0.9522
-11.4800 3.4541 -1.9750 0.9526
-11.5684 3.0372 -1.9704 0.9527
-11.6452 2.6193 -1.9664 0.9528
-11.8577 0.5183 -1.9553 0.9530
-2.7358 12.6386 -2.4306 0.9487
-3.5616 12.1928 -2.3875 0.9496
-3.9577 11.9544 -2.3669 0.9500
-4.7160 11.4491 -2.3274 0.9509
-5.0780 11.1830 -2.3085 0.9512
-6.0952 10.3368 -2.2555 0.9523
-6.4112 10.0400 -2.2391 0.9527
-7.0086 9.4268 -2.2079 0.9533
-7.2902 9.1111 -2.1933 0.9536
-7.8189 8.4631 -2.1657 0.9542
-8.7402 7.1098 -2.1177 0.9552
-8.9424 6.7612 -2.1072 0.9554
-9.3134 6.0535 -2.0878 0.9558
-9.4823 5.6949 -2.0790 0.9560
-9.6402 5.3335 -2.0708 0.9561
-9.9232 4.6029 -2.0561 0.9565
-10.1628 3.8635 -2.0436 0.9567
-10.2664 3.4910 -2.0382 0.9568
-10.4413 2.7414 -2.0291 0.9570
-10.6237 1.6080 -2.0196 0.9572
-10.6632 1.2285 -2.0175 0.9573
-10.7105 0.4681 -2.0151 0.9573
-2.8247 11.1237 -2.4260 0.9542
-3.1925 10.9294 -2.4068 0.9545
-3.8995 10.5119 -2.3699 0.9552
-6.0630 8.7903 -2.2572 0.9573
-6.3317 8.5164 -2.2432 0.9575
-6.5903 8.2364 -2.2297 0.9578
-6.8387 7.9508 -2.2168 0.9580
-7.0768 7.6599 -2.2044 0.9583
-7.3047 7.3639 -2.1925 0.9585
-7.5224 7.0632 -2.1812 0.9587
-7.9273 6.4486 -2.1601 0.9591
-8.1144 6.1352 -2.1503 0.9593
-8.6151 5.1741 -2.1242 0.9597
-9.1413 3.8519 -2.0968 0.9603
-9.2478 3.5156 -2.0913 0.9604
-9.3442 3.1774 -2.0863 0.9605
-9.4307 2.8375 -2.0818 0.9605
-9.5739 2.1534 -2.0743 0.9607
-9.6774 1.4647 -2.0689 0.9608
-9.7583 0.4265 -2.0647 0.9609
-9.7655 0.0798 -2.0643 0.9609
-2.5553 10.0626 -2.4400 0.9582
-2.8902 9.8942 -2.4225 0.9585
-3.8452 9.3350 -2.3728 0.9594
-4.1465 9.1318 -2.3571 0.9596
-4.9982 8.4765 -2.3127 0.9604
-5.2642 8.2439 -2.2988 0.9606
-5.5213 8.0049 -2.2854 0.9608
-5.7692 7.7597 -2.2725 0.9610
-6.0080 7.5087 -2.2601 0.9613
-6.4580 6.9901 -2.2366 0.9617
-6.6691 6.7232 -2.2256 0.9618
-6.8710 6.4515 -2.2151 0.9620
-7.0636 6.1754 -2.2051 0.9622
-7.4208 5.6108 -2.1865 0.9625
-7.8868 4.7367 -2.1622 0.9629
-8.0235 4.4390 -2.1551 0.9630
-8.1509 4.1386 -2.1484 0.9631
-8.2689 3.8355 -2.1423 0.9632
-8.4771 3.2227 -2.1314 0.9634
-8.5673 2.9132 -2.1267 0.9635
-8.6482 2.6021 -2.1225 0.9636
-8.9134 1.0269 -2.1087 0.9638
-8.9547 0.3914 -2.1066 0.9638
-8.9614 0.0732 -2.1062 0.9638
-2.0166 9.3165 -2.4681 0.9614
-2.3306 9.1778 -2.4517 0.9616
-2.6377 9.0299 -2.4357 0.9619
-2.9377 8.8733 -2.4201 0.9621
-3.2303 8.7081 -2.4048 0.9624
-3.5156 8.5349 -2.3900 0.9626
-3.7933 8.3538 -2.3755 0.9628
-4.0633 8.1652 -2.3614 0.9630
-4.5797 7.7667 -2.3345 0.9634
-4.8259 7.5575 -2.3217 0.9636
-5.2939 7.1204 -2.2973 0.9640
-6.1301 6.1797 -2.2537 0.9647
-6.4975 5.6805 -2.2346 0.9650
-6.8307 5.1646 -2.2172 0.9652
-6.9844 4.9011 -2.2092 0.9654
-7.1296 4.6341 -2.2017 0.9655
-7.2661 4.3639 -2.1945 0.9656
-7.6237 3.5362 -2.1759 0.9659
-7.9032 2.6874 -2.1614 0.9661
-7.9790 2.4008 -2.1574 0.9662
-8.2279 0.9479 -2.1444 0.9664
-1.8509 8.5507 -2.4767 0.9643
-2.1402 8.4280 -2.4616 0.9645
-2.4235 8.2967 -2.4469 0.9647
-2.7005 8.1570 -2.4324 0.9649
-2.9711 8.0093 -2.4183 0.9651
-3.9859 7.3438 -2.3655 0.9659
-4.2221 7.1602 -2.3532 0.9660
-4.4510 6.9703 -2.3412 0.9662
-5.2919 6.1526 -2.2974 0.9668
-5.6667 5.7126 -2.2779 0.9671
-5.8423 5.4857 -2.2687 0.9672
-6.3221 4.7801 -2.2437 0.9676
-6.6021 4.2912 -2.2291 0.9678
-7.0658 3.2775 -2.2050 0.9681
-7.1615 3.0177 -2.2000 0.9682
-7.3285 2.4920 -2.1913 0.9683
-7.3997 2.2264 -2.1876 0.9684
-7.4629 1.9594 -2.1843 0.9684
-7.6034 1.1508 -2.1770 0.9685
-7.6562 0.6076 -2.1742 0.9686
-7.6703 0.3353 -2.1735 0.9686
-7.6763 0.0627 -2.1732 0.9686
-1.7087 7.8936 -2.4841 0.9668
-1.9766 7.7839 -2.4702 0.9669
-2.2393 7.6661 -2.4565 0.9671
-2.4964 7.5405 -2.4431 0.9673
-2.7477 7.4072 -2.4300 0.9675
-2.9931 7.2665 -2.4172 0.9676
-3.2325 7.1187 -2.4047 0.9678
-3.4656 6.9641 -2.3926 0.9680
-3.9126 6.6354 -2.3693 0.9683
-4.1262 6.4618 -2.3582 0.9684
-4.5332 6.0973 -2.3369 0.9687
-4.7264 5.9070 -2.3269 0.9688
-4.9126 5.7115 -2.3172 0.9690
-5.0917 5.5112 -2.3079 0.9691
-5.2637 5.3063 -2.2989 0.9692
-5.4284 5.0970 -2.2903 0.9693
-6.0141 4.2201 -2.2598 0.9697
-6.1420 3.9921 -2.2531 0.9698
-6.2623 3.7611 -2.2469 0.9699
-6.5782 3.0513 -2.2304 0.9701
-6.8257 2.3211 -2.2175 0.9703
-6.8929 2.0739 -2.2140 0.9703
-7.0849 1.0724 -2.2040 0.9705
-7.1137 0.8196 -2.2025 0.9705
-7.1348 0.5662 -2.2014 0.9705
-7.1481 0.3124 -2.2007 0.9705
-1.5851 7.3230 -2.4906 0.9689
-1.8345 7.2242 -2.4776 0.9691
-2.3187 7.0037 -2.4523 0.9694
-2.5531 6.8826 -2.4401 0.9695
-3.0057 6.6194 -2.4165 0.9698
-3.2236 6.4779 -2.4052 0.9700
-3.8420 6.0167 -2.3730 0.9704
-4.0360 5.8515 -2.3629 0.9705
-4.5797 5.3245 -2.3345 0.9708
-4.7480 5.1392 -2.3258 0.9709
-5.6160 3.9408 -2.2805 0.9715
-6.1481 2.8518 -2.2528 0.9718
-6.2332 2.6265 -2.2484 0.9719
-6.5015 1.7070 -2.2344 0.9721
-6.5506 1.4734 -2.2319 0.9721
-6.6540 0.7666 -2.2265 0.9722
-6.6739 0.5296 -2.2254 0.9722
-6.6865 0.2923 -2.2248 0.9722
-1.7097 6.7327 -2.4841 0.9709
-1.9383 6.6358 -2.4722 0.9711
-2.1624 6.5318 -2.4605 0.9712
-2.5964 6.3034 -2.4379 0.9715
-3.0103 6.0493 -2.4163 0.9717
-3.2094 5.9130 -2.4059 0.9718
-3.4029 5.7711 -2.3959 0.9719
-3.7733 5.4706 -2.3766 0.9722
-3.9497 5.3126 -2.3674 0.9723
-4.2850 4.9818 -2.3499 0.9725
-5.0150 4.0796 -2.3119 0.9729
-5.2624 3.6927 -2.2990 0.9731
-5.3762 3.4945 -2.2930 0.9731
-5.4835 3.2933 -2.2874 0.9732
-5.5842 3.0895 -2.2822 0.9733
-5.7654 2.6743 -2.2728 0.9734
-5.9196 2.2504 -2.2647 0.9735
-6.2186 0.9412 -2.2492 0.9736
-6.2632 0.4971 -2.2468 0.9737
-6.2752 0.2743 -2.2462 0.9737
-1.5991 6.2973 -2.4898 0.9726
-2.0238 6.1131 -2.4677 0.9728
-2.2299 6.0112 -2.4570 0.9729
-3.0079 5.5420 -2.4164 0.9734
-3.1902 5.4103 -2.4069 0.9735
-3.7056 4.9842 -2.3801 0.9737
-4.0219 4.6760 -2.3636 0.9739
-4.1716 4.5153 -2.3558 0.9740
-4.5857 4.0091 -2.3342 0.9742
-4.8319 3.6534 -2.3214 0.9744
-4.9459 3.4706 -2.3155 0.9744
-5.0537 3.2848 -2.3098 0.9745
-5.1553 3.0962 -2.3045 0.9746
-5.2507 2.9049 -2.2996 0.9746
-5.3397 2.7112 -2.2949 0.9747
-5.4224 2.5152 -2.2906 0.9747
-5.4987 2.3171 -2.2867 0.9748
-5.5686 2.1170 -2.2830 0.9748
-5.6321 1.9152 -2.2797 0.9748
-5.6892 1.7118 -2.2767 0.9749
-5.7837 1.3009 -2.2718 0.9749
-5.8212 1.0938 -2.2699 0.9749
-5.8767 0.6771 -2.2670 0.9750
-5.9060 0.2581 -2.2654 0.9750
-5.9108 0.0483 -2.2652 0.9750
-1.7021 5.8269 -2.4845 0.9741
-1.8999 5.7389 -2.4742 0.9742
-2.0939 5.6447 -2.4641 0.9743
-3.1667 4.9591 -2.4082 0.9749
-3.4863 4.6893 -2.3915 0.9751
-3.9271 4.2507 -2.3685 0.9753
-4.0634 4.0963 -2.3614 0.9754
-4.3193 3.7762 -2.3481 0.9755
-4.4388 3.6108 -2.3419 0.9756
-4.7630 3.0959 -2.3250 0.9757
-4.8594 2.9185 -2.3200 0.9758
-4.9499 2.7385 -2.3153 0.9758
-5.1129 2.3716 -2.3068 0.9759
-5.1854 2.1850 -2.3030 0.9760
-5.2518 1.9966 -2.2995 0.9760
-5.3121 1.8063 -2.2964 0.9760
-5.3663 1.6146 -2.2936 0.9761
-5.4919 1.0319 -2.2870 0.9761
-5.5616 0.4413 -2.2834 0.9762
-5.5769 0.0455 -2.2826 0.9762
-1.6018 5.4836 -2.4897 0.9754
-2.1508 5.2215 -2.4611 0.9757
-2.4974 5.0186 -2.4430 0.9758
-2.8273 4.7947 -2.4259 0.9760
-2.9855 4.6754 -2.4176 0.9761
-3.1392 4.5513 -2.4096 0.9762
-3.4323 4.2897 -2.3943 0.9763
-3.9592 3.7175 -2.3669 0.9766
-4.0779 3.5652 -2.3607 0.9766
-4.1914 3.4096 -2.3548 0.9767
-4.2995 3.2509 -2.3491 0.9768
-4.4022 3.0891 -2.3438 0.9768
-4.6770 2.5876 -2.3295 0.9769
-4.7573 2.4155 -2.3253 0.9770
-4.8321 2.2413 -2.3214 0.9770
-5.0215 1.7075 -2.3115 0.9771
-5.0730 1.5264 -2.3088 0.9771
-5.1188 1.3439 -2.3065 0.9772
-5.1925 0.9757 -2.3026 0.9772
-5.2206 0.7902 -2.3012 0.9772
-5.2590 0.4173 -2.2992 0.9772
-1.3313 5.2428 -2.5038 0.9764
-1.6874 5.0970 -2.4853 0.9766
-1.8605 5.0156 -2.4762 0.9767
-2.1962 4.8365 -2.4587 0.9769
-2.9666 4.3012 -2.4186 0.9772
-3.1080 4.1804 -2.4112 0.9773
-3.2448 4.0553 -2.4041 0.9774
-3.3771 3.9263 -2.3972 0.9774
-3.5046 3.7934 -2.3906 0.9775
-4.2589 2.7683 -2.3513 0.9779
-4.5045 2.2871 -2.3385 0.9780
-4.5756 2.1224 -2.3348 0.9780
-4.7015 1.7873 -2.3282 0.9781
-4.8053 1.4458 -2.3228 0.9781
-4.8868 1.0992 -2.3186 0.9782
-4.9670 0.5722 -2.3144 0.9782
-4.9923 0.2182 -2.3131 0.9782
-1.4283 4.8897 -2.4988 0.9776
-1.5954 4.8191 -2.4901 0.9776
-2.0776 4.5755 -2.4649 0.9779
-2.5280 4.2874 -2.4415 0.9781
-2.6706 4.1822 -2.4340 0.9781
-2.8090 4.0726 -2.4268 0.9782
-2.9433 3.9589 -2.4198 0.9783
-3.5493 3.3327 -2.3882 0.9785
-3.6568 3.1971 -2.3826 0.9786
-3.7596 3.0583 -2.3773 0.9786
-3.9505 2.7721 -2.3673 0.9787
-4.0386 2.6250 -2.3627 0.9788
-4.1217 2.4754 -2.3584 0.9788
-4.1997 2.3235 -2.3544 0.9788
-4.2727 2.1694 -2.3506 0.9789
-4.3405 2.0134 -2.3470 0.9789
-4.4031 1.8554 -2.3438 0.9789
-4.5126 1.5345 -2.3380 0.9790
-4.5595 1.3719 -2.3356 0.9790
-4.6011 1.2080 -2.3334 0.9790
-4.6937 0.7104 -2.3286 0.9791
-4.7286 0.3753 -2.3268 0.9791
-4.7379 0.2071 -2.3263 0.9791
-1.0275 4.7469 -2.5196 0.9784
-1.1914 4.6915 -2.5111 0.9784
-1.3526 4.6307 -2.5027 0.9785
-1.9690 4.3362 -2.4706 0.9788
-2.5326 3.9661 -2.4412 0.9790
-2.9159 3.6442 -2.4212 0.9792
-3.0356 3.5293 -2.4150 0.9792
-3.2623 3.2888 -2.4032 0.9793
-3.5696 2.9038 -2.3872 0.9795
-3.6630 2.7696 -2.3823 0.9795
-3.9895 2.2072 -2.3653 0.9797
-4.1238 1.9128 -2.3583 0.9797
-4.2882 1.4582 -2.3497 0.9798
-4.3726 1.1480 -2.3453 0.9798
-4.4073 0.9913 -2.3435 0.9798
-4.4368 0.8337 -2.3420 0.9799
-4.4804 0.5162 -2.3397 0.9799
-1.4337 4.3306 -2.4985 0.9794
-1.7267 4.1921 -2.4832 0.9795
-1.8689 4.1159 -2.4758 0.9796
-2.2763 3.8604 -2.4546 0.9798
-2.5308 3.6692 -2.4413 0.9799
-2.6525 3.5678 -2.4350 0.9799
-2.9948 3.2415 -2.4171 0.9801
-3.1009 3.1260 -2.4116 0.9801
-3.2028 3.0073 -2.4063 0.9802
-3.3940 2.7610 -2.3963 0.9802
-3.7238 2.2365 -2.3791 0.9804
-3.9805 1.6773 -2.3658 0.9805
-4.0329 1.5331 -2.3631 0.9805
-4.1232 1.2406 -2.3583 0.9806
-4.1612 1.0925 -2.3564 0.9806
-4.2458 0.6427 -2.3520 0.9806
-4.2777 0.3395 -2.3503 0.9806
-4.2863 0.1874 -2.3499 0.9806
-4.2899 0.0351 -2.3497 0.9806
-1.0731 4.2259 -2.5173 0.9801
-1.2188 4.1725 -2.5097 0.9801
-1.6410 3.9840 -2.4877 0.9803
-2.1646 3.6709 -2.4604 0.9805
-2.5233 3.3939 -2.4417 0.9807
-2.7447 3.1912 -2.4302 0.9807
-2.8498 3.0847 -2.4247 0.9808
-2.9512 2.9751 -2.4194 0.9808
-3.3163 2.5075 -2.4004 0.9810
-3.4740 2.2580 -2.3922 0.9810
-3.5463 2.1299 -2.3884 0.9811
-3.7371 1.7335 -2.3785 0.9812
-3.7918 1.5978 -2.3756 0.9812
-3.8419 1.4605 -2.3730 0.9812
-3.8874 1.3219 -2.3706 0.9812
-3.9647 1.0409 -2.3666 0.9812
-4.0234 0.7560 -2.3636 0.9813
-4.0844 0.1785 -2.3604 0.9813
