ply
format ascii 1.0
element vertex 488
property float32 x
property float32 y
property float32 z
property float32 I
end_header
-44.5630 -1.2188 -0.2510 0.8367
-44.5433 -4.4395 -0.2520 0.8361
-44.5250 -6.0629 -0.2530 0.8355
-44.4706 -9.3546 -0.2558 0.8338
-44.4341 -11.0307 -0.2578 0.8327
-44.3913 -12.7325 -0.2600 0.8313
-44.3417 -14.4646 -0.2626 0.8298
-41.5988 -16.9692 -0.2529 0.8355
-41.5614 -18.7258 -0.2567 0.8333
-34.6839 -17.1545 -0.2179 0.8566
-41.3948 -22.3628 -0.2649 0.8284
-41.2983 -24.2701 -0.2697 0.8256
-41.0752 -28.3008 -0.2808 0.8191
-32.0348 -2.0319 -0.9039 0.8795
-32.0020 -3.1896 -0.9056 0.8792
-31.9542 -4.3512 -0.9081 0.8789
-31.8914 -5.5182 -0.9113 0.8785
-31.8136 -6.6921 -0.9154 0.8780
-31.0054 -13.9696 -0.9576 0.8728
-30.7062 -15.1872 -0.9646 0.8719
-28.1036 -19.3634 -0.9610 0.8723
-27.8148 -20.6791 -0.9759 0.8705
-27.5018 -22.0266 -0.9922 0.8685
-27.1632 -23.4089 -1.0097 0.8663
-25.9754 -27.7985 -1.0713 0.8588
-25.4726 -29.3073 -1.0934 0.8561
-24.9775 -30.9183 -1.1192 0.8530
-24.4426 -32.5892 -1.1471 0.8496
-23.3616 -36.3257 -1.2161 0.8413
-23.2063 -42.5269 -1.3642 0.8238
-24.9642 -2.4881 -1.2723 0.9044
-24.8432 -4.2986 -1.2786 0.9040
-24.7581 -5.2080 -1.2831 0.9036
-24.6563 -6.1209 -1.2884 0.9033
-24.2476 -8.8874 -1.3097 0.9017
-23.1965 -13.6321 -1.3645 0.8978
-22.3173 -16.5920 -1.4103 0.8946
-20.3601 -21.7891 -1.5124 0.8874
-19.8838 -22.8772 -1.5372 0.8857
-19.3757 -23.9842 -1.5637 0.8838
-16.9866 -28.6280 -1.6882 0.8752
-16.2888 -29.8503 -1.7246 0.8727
-13.9097 -33.6922 -1.8486 0.8642
-12.0503 -36.4196 -1.9455 0.8576
-11.0263 -37.8402 -1.9988 0.8540
-9.9326 -39.3023 -2.0558 0.8501
-8.7639 -40.8085 -2.1168 0.8461
-7.5139 -42.3624 -2.1819 0.8417
-20.5101 -0.5610 -1.5044 0.9210
-20.0424 -5.7487 -1.5288 0.9198
-19.7634 -7.2438 -1.5434 0.9190
-18.9981 -10.2634 -1.5833 0.9170
-18.7615 -11.0257 -1.5956 0.9164
-18.5058 -11.7914 -1.6089 0.9158
-18.2306 -12.5609 -1.6233 0.9150
-17.6191 -14.1114 -1.6551 0.9134
-17.2816 -14.8931 -1.6727 0.9126
-16.9220 -15.6791 -1.6915 0.9116
-16.5397 -16.4699 -1.7114 0.9106
-16.1331 -17.2655 -1.7326 0.9096
-15.7022 -18.0661 -1.7551 0.9085
-14.7627 -19.6831 -1.8040 0.9060
-14.2520 -20.4997 -1.8306 0.9047
-11.2398 -24.6684 -1.9876 0.8970
-9.0127 -27.2390 -2.1037 0.8913
-7.3241 -28.9805 -2.1917 0.8870
-6.4124 -29.8589 -2.2392 0.8847
-5.4528 -30.7419 -2.2892 0.8823
-17.2697 -2.3516 -1.6733 0.9324
-17.2073 -2.9774 -1.6765 0.9322
-17.1301 -3.6034 -1.6806 0.9321
-16.9306 -4.8561 -1.6910 0.9317
-16.8082 -5.4829 -1.6974 0.9314
-16.5168 -6.7376 -1.7125 0.9308
-16.3474 -7.3654 -1.7214 0.9305
-16.1620 -7.9936 -1.7310 0.9301
-15.9602 -8.6222 -1.7416 0.9297
-15.7418 -9.2511 -1.7529 0.9293
-15.2537 -10.5098 -1.7784 0.9283
-13.3520 -14.2891 -1.8775 0.9244
-12.5598 -15.5471 -1.9188 0.9228
-12.1316 -16.1750 -1.9411 0.9220
-11.6812 -16.8019 -1.9646 0.9211
-11.2079 -17.4275 -1.9893 0.9201
-10.7110 -18.0516 -2.0152 0.9191
-9.6438 -19.2935 -2.0708 0.9170
-9.0719 -19.9106 -2.1006 0.9158
-7.1934 -21.7405 -2.1985 0.9121
-5.7967 -22.9368 -2.2713 0.9093
-4.2759 -24.1072 -2.3505 0.9063
-15.0532 -0.4117 -1.7888 0.9411
-15.0361 -0.9537 -1.7897 0.9411
-15.0055 -1.4955 -1.7913 0.9411
-14.9612 -2.0372 -1.7936 0.9410
-14.8316 -3.1199 -1.8003 0.9408
-14.6467 -4.2011 -1.8100 0.9405
-14.5333 -4.7409 -1.8159 0.9403
-14.4058 -5.2801 -1.8225 0.9401
-14.2641 -5.8187 -1.8299 0.9398
-14.1079 -6.3564 -1.8381 0.9396
-13.9372 -6.8933 -1.8470 0.9393
-13.7517 -7.4291 -1.8566 0.9390
-13.1047 -9.0291 -1.8904 0.9379
-12.8581 -9.5594 -1.9032 0.9375
-12.5956 -10.0880 -1.9169 0.9371
-12.3170 -10.6146 -1.9314 0.9366
-11.7102 -11.6610 -1.9630 0.9356
-11.0353 -12.6966 -1.9982 0.9345
-10.6715 -13.2097 -2.0172 0.9339
-10.2897 -13.7193 -2.0371 0.9333
-9.8895 -14.2248 -2.0579 0.9326
-9.4706 -14.7262 -2.0798 0.9319
-9.0325 -15.2227 -2.1026 0.9312
-8.0975 -16.2000 -2.1513 0.9296
-5.9809 -18.0760 -2.2617 0.9262
-3.5142 -19.8127 -2.3902 0.9221
-13.2582 -0.8409 -1.8823 0.9477
-13.1350 -2.2727 -1.8887 0.9476
-13.0686 -2.7491 -1.8922 0.9475
-12.8975 -3.6994 -1.9011 0.9472
-12.5441 -5.1171 -1.9196 0.9467
-12.2428 -6.0553 -1.9353 0.9463
-11.8881 -6.9864 -1.9538 0.9458
-11.6903 -7.4488 -1.9641 0.9455
-11.4788 -7.9088 -1.9751 0.9452
-11.2533 -8.3663 -1.9868 0.9449
-10.7598 -9.2726 -2.0126 0.9442
-10.4915 -9.7210 -2.0265 0.9439
-9.9109 -10.6065 -2.0568 0.9430
-9.2703 -11.4752 -2.0902 0.9421
-6.9734 -13.9511 -2.2099 0.9389
-6.0775 -14.7211 -2.2566 0.9377
-5.6044 -15.0935 -2.2813 0.9370
-5.1142 -15.4566 -2.3068 0.9363
-4.6068 -15.8098 -2.3332 0.9356
-4.0821 -16.1524 -2.3606 0.9349
-2.9804 -16.8032 -2.4180 0.9334
-11.8218 -1.1782 -1.9572 0.9530
-11.7837 -1.6046 -1.9592 0.9529
-11.7339 -2.0303 -1.9618 0.9529
-11.5989 -2.8794 -1.9688 0.9527
-11.5137 -3.3024 -1.9732 0.9526
-11.4167 -3.7241 -1.9783 0.9525
-11.3076 -4.1445 -1.9840 0.9524
-11.0535 -4.9802 -1.9972 0.9520
-10.2045 -7.0309 -2.0415 0.9510
-9.5453 -8.2260 -2.0758 0.9502
-9.3000 -8.6170 -2.0886 0.9499
-9.0417 -9.0037 -2.1021 0.9496
-8.7704 -9.3860 -2.1162 0.9493
-8.4860 -9.7635 -2.1311 0.9489
-8.1883 -10.1359 -2.1466 0.9485
-7.2147 -11.2184 -2.1973 0.9474
-6.8630 -11.5665 -2.2156 0.9469
-6.1186 -12.2409 -2.2544 0.9460
-4.4633 -13.4894 -2.3407 0.9440
-4.0146 -13.7775 -2.3641 0.9435
-2.5853 -14.5752 -2.4386 0.9418
-10.7017 -0.6787 -2.0155 0.9573
-10.6771 -1.0641 -2.0168 0.9573
-10.5380 -2.2167 -2.0241 0.9571
-10.3905 -2.9803 -2.0318 0.9570
-10.3003 -3.3601 -2.0365 0.9569
-10.1991 -3.7383 -2.0418 0.9568
-10.0868 -4.1146 -2.0476 0.9566
-9.9634 -4.4891 -2.0540 0.9565
-9.6831 -5.2311 -2.0686 0.9562
-9.3578 -5.9626 -2.0856 0.9558
-9.1785 -6.3234 -2.0950 0.9556
-8.9871 -6.6816 -2.1049 0.9554
-8.7847 -7.0358 -2.1155 0.9552
-8.5707 -7.3861 -2.1266 0.9550
-8.1081 -8.0740 -2.1507 0.9545
-7.5989 -8.7429 -2.1773 0.9539
-7.3268 -9.0694 -2.1915 0.9537
-7.0429 -9.3902 -2.2063 0.9533
-6.7471 -9.7049 -2.2217 0.9530
-5.0912 -11.1738 -2.3080 0.9513
-3.5543 -12.1978 -2.3881 0.9496
-3.1411 -12.4289 -2.4096 0.9492
-9.6509 -1.6699 -2.0703 0.9607
-9.5974 -2.0188 -2.0731 0.9607
-9.1770 -3.7435 -2.0950 0.9603
-9.0621 -4.0830 -2.1010 0.9602
-8.8015 -4.7548 -2.1146 0.9599
-8.4994 -5.4156 -2.1303 0.9596
-8.1559 -6.0636 -2.1482 0.9593
-7.7706 -6.6965 -2.1683 0.9589
-7.5622 -7.0068 -2.1792 0.9587
-6.8742 -7.9091 -2.2150 0.9581
-6.3631 -8.4839 -2.2417 0.9576
-6.0918 -8.7623 -2.2558 0.9573
-5.8101 -9.0343 -2.2705 0.9570
-5.5179 -9.2995 -2.2857 0.9568
-5.2154 -9.5576 -2.3015 0.9565
-4.2461 -10.2849 -2.3520 0.9555
-3.9026 -10.5104 -2.3699 0.9552
-2.8129 -11.1303 -2.4267 0.9541
-2.0384 -11.4919 -2.4671 0.9534
-8.9590 -0.2450 -2.1064 0.9638
-8.8040 -1.8520 -2.1144 0.9637
-8.7445 -2.1708 -2.1175 0.9637
-8.6754 -2.4883 -2.1211 0.9636
-8.5968 -2.8043 -2.1252 0.9635
-8.5087 -3.1187 -2.1298 0.9634
-8.3038 -3.7413 -2.1405 0.9633
-8.1870 -4.0492 -2.1466 0.9632
-8.0606 -4.3546 -2.1532 0.9631
-7.6240 -5.2529 -2.1759 0.9627
-6.9078 -6.4005 -2.2133 0.9620
-6.2705 -7.2144 -2.2465 0.9615
-6.0390 -7.4754 -2.2586 0.9613
-5.7981 -7.7306 -2.2711 0.9611
-5.5478 -7.9798 -2.2842 0.9609
-4.4538 -8.9104 -2.3412 0.9599
-2.8841 -9.8979 -2.4230 0.9585
-2.5445 -10.0683 -2.4407 0.9582
-8.2707 -0.2262 -2.1422 0.9664
-8.2393 -0.8212 -2.1439 0.9664
-8.2102 -1.1180 -2.1454 0.9663
-8.1722 -1.4140 -2.1474 0.9663
-7.8483 -2.8766 -2.1643 0.9661
-7.6562 -3.4496 -2.1743 0.9659
-7.4286 -4.0131 -2.1861 0.9657
-7.1654 -4.5656 -2.1998 0.9655
-7.0204 -4.8371 -2.2074 0.9654
-6.8666 -5.1051 -2.2154 0.9653
-5.9657 -6.3844 -2.2624 0.9645
-5.0886 -7.3193 -2.3081 0.9638
-4.8480 -7.5384 -2.3206 0.9636
-4.0767 -8.1559 -2.3608 0.9630
-3.8033 -8.3474 -2.3751 0.9628
-2.9363 -8.8744 -2.4203 0.9621
-2.6321 -9.0331 -2.4361 0.9619
-7.6635 -0.4861 -2.1739 0.9686
-7.6446 -0.7619 -2.1749 0.9686
-7.5814 -1.3118 -2.1781 0.9685
-7.4847 -1.8581 -2.1832 0.9684
-7.4238 -2.1293 -2.1864 0.9684
-7.3545 -2.3991 -2.1900 0.9684
-6.9937 -3.4590 -2.2088 0.9681
-6.8827 -3.7182 -2.2146 0.9680
-6.6357 -4.2281 -2.2274 0.9678
-6.4998 -4.4784 -2.2345 0.9677
-6.3558 -4.7252 -2.2420 0.9676
-6.2034 -4.9684 -2.2500 0.9675
-6.0430 -5.2078 -2.2583 0.9674
-5.8744 -5.4430 -2.2671 0.9673
-5.6978 -5.6738 -2.2763 0.9671
-5.1199 -6.3376 -2.3065 0.9667
-4.2402 -7.1460 -2.3523 0.9660
-3.7550 -7.5124 -2.3776 0.9657
-3.5016 -7.6851 -2.3908 0.9655
-2.9735 -8.0082 -2.4183 0.9651
-2.6993 -8.1580 -2.4326 0.9649
-2.1311 -8.4324 -2.4622 0.9645
-1.8376 -8.5565 -2.4775 0.9643
-7.1417 -0.4530 -2.2011 0.9705
-7.0979 -0.9665 -2.2033 0.9705
-7.0642 -1.2223 -2.2051 0.9704
-7.0226 -1.4772 -2.2073 0.9704
-6.5103 -3.2200 -2.2340 0.9701
-6.4058 -3.4606 -2.2394 0.9700
-6.2935 -3.6986 -2.2453 0.9699
-5.7672 -4.6191 -2.2727 0.9696
-5.6166 -4.8403 -2.2806 0.9694
-5.4584 -5.0576 -2.2888 0.9693
-5.2928 -5.2705 -2.2974 0.9692
-4.9392 -5.6828 -2.3159 0.9690
-4.7515 -5.8817 -2.3256 0.9689
-4.5566 -6.0753 -2.3358 0.9687
-4.1454 -6.4459 -2.3572 0.9684
-3.4772 -6.9564 -2.3921 0.9680
-2.9987 -7.2635 -2.4170 0.9676
-1.6963 -7.8987 -2.4849 0.9668
-1.4191 -8.0009 -2.4993 0.9666
-6.6635 -0.6641 -2.2260 0.9722
-6.6391 -0.9040 -2.2273 0.9722
-6.5679 -1.3816 -2.2310 0.9721
-6.5210 -1.6188 -2.2334 0.9721
-6.4667 -1.8548 -2.2362 0.9720
-6.3358 -2.3222 -2.2431 0.9720
-6.2592 -2.5533 -2.2471 0.9719
-6.1753 -2.7823 -2.2514 0.9719
-5.7662 -3.6741 -2.2728 0.9716
-5.6458 -3.8899 -2.2790 0.9715
-5.3834 -4.3117 -2.2927 0.9713
-5.0928 -4.7188 -2.3079 0.9712
-4.9370 -4.9162 -2.3160 0.9711
-4.6047 -5.2980 -2.3333 0.9708
-4.4285 -5.4818 -2.3425 0.9707
-4.2455 -5.6605 -2.3520 0.9706
-4.0560 -5.8340 -2.3619 0.9705
-3.8600 -6.0021 -2.3721 0.9704
-3.4491 -6.3207 -2.3935 0.9701
-2.5552 -6.8816 -2.4401 0.9695
-2.3176 -7.0045 -2.4525 0.9694
-2.0747 -7.1200 -2.4651 0.9692
-1.8266 -7.2277 -2.4781 0.9691
-1.5736 -7.3275 -2.4913 0.9689
-1.3160 -7.4192 -2.5047 0.9687
-6.2784 -0.1717 -2.2460 0.9737
-6.2534 -0.6233 -2.2473 0.9737
-6.2303 -0.8484 -2.2486 0.9736
-6.2000 -1.0728 -2.2501 0.9736
-6.1627 -1.2963 -2.2521 0.9736
-6.0085 -1.9600 -2.2601 0.9735
-5.8706 -2.3947 -2.2673 0.9734
-5.7048 -2.8215 -2.2760 0.9733
-5.5113 -3.2389 -2.2860 0.9732
-5.2905 -3.6452 -2.2975 0.9731
-5.1700 -3.8437 -2.3038 0.9730
-5.0428 -4.0389 -2.3105 0.9729
-4.7686 -4.4183 -2.3247 0.9728
-4.4682 -4.7819 -2.3404 0.9726
-4.1425 -5.1279 -2.3574 0.9724
-3.9704 -5.2937 -2.3663 0.9723
-3.6079 -5.6100 -2.3852 0.9721
-3.4178 -5.7600 -2.3951 0.9719
-3.2219 -5.9044 -2.4054 0.9718
-3.0204 -6.0428 -2.4159 0.9717
-1.9342 -6.6378 -2.4725 0.9711
-1.7023 -6.7359 -2.4845 0.9709
-5.9005 -0.3742 -2.2657 0.9750
-5.8346 -1.0096 -2.2692 0.9750
-5.7992 -1.2199 -2.2710 0.9749
-5.7084 -1.6373 -2.2758 0.9749
-5.6529 -1.8440 -2.2786 0.9749
-5.5908 -2.0492 -2.2819 0.9748
-5.5221 -2.2526 -2.2855 0.9748
-5.2765 -2.8505 -2.2983 0.9746
-5.1817 -3.0451 -2.3032 0.9746
-4.9726 -3.4261 -2.3141 0.9745
-4.8585 -3.6121 -2.3201 0.9744
-4.7381 -3.7948 -2.3263 0.9743
-4.4788 -4.1498 -2.3398 0.9742
-4.0442 -4.6530 -2.3625 0.9739
-3.8875 -4.8121 -2.3707 0.9738
-3.7250 -4.9666 -2.3791 0.9738
-3.5569 -5.1162 -2.3879 0.9737
-3.0197 -5.5339 -2.4159 0.9734
-2.8302 -5.6621 -2.4258 0.9732
-2.6355 -5.7843 -2.4359 0.9731
-2.4360 -5.9005 -2.4463 0.9730
-1.8097 -6.2105 -2.4790 0.9727
-1.5922 -6.3003 -2.4903 0.9725
-1.3707 -6.3829 -2.5018 0.9724
-1.1455 -6.4583 -2.5136 0.9723
-5.5753 -0.1525 -2.2827 0.9762
-5.5672 -0.3531 -2.2831 0.9762
-5.5046 -0.9524 -2.2864 0.9761
-5.4309 -1.3482 -2.2902 0.9761
-5.3845 -1.5444 -2.2926 0.9761
-5.1361 -2.3141 -2.3056 0.9759
-4.9744 -2.6873 -2.3140 0.9759
-4.5779 -3.4035 -2.3347 0.9756
-4.0864 -4.0693 -2.3603 0.9754
-3.8065 -4.3796 -2.3749 0.9752
-3.1818 -4.9474 -2.4074 0.9749
-3.0126 -5.0772 -2.4163 0.9748
-1.8991 -5.7395 -2.4743 0.9742
-1.4939 -5.9112 -2.4954 0.9740
-1.2858 -5.9871 -2.5062 0.9739
-1.0742 -6.0561 -2.5173 0.9738
-5.2643 -0.3339 -2.2989 0.9772
-5.2307 -0.7123 -2.3006 0.9772
-5.1727 -1.0881 -2.3037 0.9772
-5.1346 -1.2746 -2.3057 0.9772
-5.0403 -1.6442 -2.3106 0.9771
-4.9220 -2.0078 -2.3167 0.9771
-4.8540 -2.1870 -2.3203 0.9770
-4.7801 -2.3642 -2.3241 0.9770
-4.6147 -2.7120 -2.3328 0.9769
-4.5233 -2.8821 -2.3375 0.9769
-4.1012 -3.5344 -2.3595 0.9767
-3.9818 -3.6894 -2.3657 0.9766
-3.7269 -3.9885 -2.3790 0.9765
-3.3055 -4.4073 -2.4010 0.9762
-2.9997 -4.6644 -2.4169 0.9761
-2.8397 -4.7858 -2.4253 0.9760
-2.6750 -4.9022 -2.4338 0.9759
-2.5059 -5.0134 -2.4427 0.9758
-2.1548 -5.2195 -2.4610 0.9757
-1.4055 -5.5615 -2.5000 0.9753
-1.0101 -5.6948 -2.5206 0.9751
-4.9307 -0.8532 -2.3163 0.9782
-4.9002 -1.0308 -2.3179 0.9782
-4.8218 -1.3830 -2.3220 0.9781
-4.7740 -1.5573 -2.3244 0.9781
-4.5966 -2.0710 -2.3337 0.9780
-4.2818 -2.7282 -2.3501 0.9779
-4.1894 -2.8865 -2.3549 0.9778
-4.0916 -3.0420 -2.3600 0.9778
-3.7667 -3.4901 -2.3769 0.9776
-3.6481 -3.6328 -2.3831 0.9776
-3.5246 -3.7719 -2.3896 0.9775
-2.9817 -4.2888 -2.4179 0.9772
-2.6826 -4.5212 -2.4334 0.9771
-2.3664 -4.7343 -2.4499 0.9769
-1.8621 -5.0150 -2.4762 0.9767
-1.5077 -5.1742 -2.4947 0.9765
-1.3255 -5.2450 -2.5042 0.9764
-4.7405 -0.1296 -2.3262 0.9791
-4.7334 -0.3002 -2.3266 0.9791
-4.6792 -0.8096 -2.3294 0.9791
-4.5753 -1.3123 -2.3348 0.9790
-4.4787 -1.6416 -2.3398 0.9790
-4.4223 -1.8039 -2.3428 0.9789
-4.3605 -1.9646 -2.3460 0.9789
-4.2209 -2.2803 -2.3533 0.9789
-4.1432 -2.4349 -2.3573 0.9788
-3.9723 -2.7369 -2.3662 0.9787
-3.8792 -2.8840 -2.3711 0.9787
-3.7810 -3.0283 -2.3762 0.9786
-3.5698 -3.3076 -2.3872 0.9786
-3.4570 -3.4424 -2.3931 0.9785
-3.2171 -3.7014 -2.4056 0.9784
-3.0903 -3.8253 -2.4122 0.9783
-2.8233 -4.0610 -2.4261 0.9782
-2.6833 -4.1725 -2.4334 0.9781
-2.3911 -4.3819 -2.4486 0.9780
-1.9238 -4.6600 -2.4730 0.9778
-1.7609 -4.7424 -2.4815 0.9777
-1.5947 -4.8196 -2.4901 0.9776
-1.4252 -4.8911 -2.4990 0.9776
-4.5058 -0.1232 -2.3384 0.9799
-4.3480 -1.2471 -2.3466 0.9798
-4.3045 -1.4042 -2.3489 0.9798
-4.2019 -1.7140 -2.3543 0.9798
-4.1429 -1.8666 -2.3573 0.9797
-4.0097 -2.1662 -2.3643 0.9797
-3.9355 -2.3128 -2.3681 0.9796
-3.8564 -2.4572 -2.3723 0.9796
-3.4917 -3.0091 -2.3913 0.9794
-3.1691 -3.3916 -2.4081 0.9793
-3.0527 -3.5123 -2.4142 0.9792
-2.8070 -3.7425 -2.4270 0.9791
-2.6779 -3.8518 -2.4337 0.9791
-2.4077 -4.0578 -2.4478 0.9790
-2.2669 -4.1542 -2.4551 0.9789
-1.8229 -4.4156 -2.4782 0.9787
-1.6683 -4.4929 -2.4863 0.9786
-1.5104 -4.5651 -2.4945 0.9786
-1.3497 -4.6320 -2.5029 0.9785
-4.2886 -0.1173 -2.3497 0.9806
-4.2821 -0.2716 -2.3501 0.9806
-4.2707 -0.4256 -2.3507 0.9806
-4.2326 -0.7324 -2.3527 0.9806
-4.1743 -1.0363 -2.3557 0.9806
-4.1377 -1.1868 -2.3576 0.9806
-3.9980 -1.6309 -2.3649 0.9805
-3.9416 -1.7759 -2.3678 0.9805
-3.8804 -1.9192 -2.3710 0.9805
-3.7435 -2.1999 -2.3782 0.9804
-3.5877 -2.4719 -2.3863 0.9803
-3.4136 -2.7340 -2.3953 0.9803
-3.2215 -2.9848 -2.4054 0.9802
-3.1188 -3.1057 -2.4107 0.9801
-2.9010 -3.3377 -2.4221 0.9800
-2.5437 -3.6588 -2.4407 0.9799
-2.4170 -3.7582 -2.4473 0.9798
-1.8740 -4.1131 -2.4756 0.9796
-1.5829 -4.2632 -2.4908 0.9795
-1.4330 -4.3310 -2.4986 0.9794
-1.2803 -4.3937 -2.5065 0.9793
-1.1249 -4.4512 -2.5146 0.9793
-0.8071 -4.5504 -2.5312 0.9791
-4.0804 -0.2588 -2.3606 0.9813
-4.0695 -0.4056 -2.3612 0.9813
-4.0537 -0.5520 -2.3620 0.9813
-4.0330 -0.6978 -2.3631 0.9813
-4.0075 -0.8430 -2.3644 0.9813
-3.9772 -0.9873 -2.3660 0.9813
-3.8578 -1.4140 -2.3722 0.9812
-3.8085 -1.5536 -2.3748 0.9812
-3.6960 -1.8280 -2.3806 0.9811
-3.5651 -2.0951 -2.3874 0.9811
-3.4929 -2.2256 -2.3912 0.9811
-3.4162 -2.3538 -2.3952 0.9810
-2.9683 -2.9559 -2.4186 0.9808
-2.8663 -3.0675 -2.4239 0.9808
-2.6505 -3.2809 -2.4351 0.9807
-2.4195 -3.4802 -2.4472 0.9806
-2.2986 -3.5742 -2.4535 0.9806
-2.0464 -3.7502 -2.4666 0.9805
-1.7813 -3.9095 -2.4804 0.9804
-1.2161 -4.1736 -2.5099 0.9801
-0.9184 -4.2766 -2.5254 0.9800
