ply
format ascii 1.0
element vertex 535
property float32 x
property float32 y
property float32 z
property float32 I
end_header
-25.5774 -30.2499 6.9850 0.8514
0.2225 -17.7802 3.1354 0.9303
1.4964 -17.7814 3.1464 0.9301
8.5052 -43.9585 7.8948 0.8337
10.6684 -46.2208 8.3642 0.8248
10.6978 -39.8034 7.2675 0.8459
7.9222 -25.7668 4.7533 0.8963
8.1061 -20.9167 3.9555 0.9129
8.1177 -17.1912 3.3522 0.9257
8.1416 -15.7583 3.1275 0.9305
10.7316 -46.4945 7.3100 0.8244
7.3066 -23.7649 3.8089 0.9043
8.0956 -17.1442 2.9045 0.9261
8.1209 -15.7181 2.7103 0.9309
8.1432 -14.4695 2.5436 0.9350
1.4934 -17.7462 2.3191 0.9307
7.6155 -48.6106 6.4073 0.8200
7.2795 -37.6235 4.9902 0.8568
8.1858 -35.4651 4.7397 0.8634
9.6072 -35.7457 4.8200 0.8613
7.9647 -22.9529 3.1638 0.9066
8.0072 -20.6613 2.8855 0.9145
8.1004 -15.6784 2.2981 0.9313
7.5029 -38.7787 4.2413 0.8531
9.1527 -34.0546 3.7866 0.8677
10.5498 -34.3135 3.8549 0.8655
7.9820 -20.5964 2.3720 0.9150
8.0520 -17.0520 2.0250 0.9269
8.0801 -15.6392 1.8903 0.9316
8.1379 -14.4601 1.7818 0.9354
-25.6373 -30.3207 3.3613 0.8527
7.1765 -45.8088 3.9251 0.8302
7.5733 -39.1426 3.3750 0.8521
7.7835 -33.7220 2.9297 0.8703
9.0719 -33.7539 2.9588 0.8691
7.9151 -20.4239 1.8542 0.9158
8.1189 -14.4264 1.4013 0.9357
1.4921 -17.7306 1.1034 0.9312
7.7837 -33.7230 2.1462 0.8705
6.8860 -25.6204 1.6451 0.8991
7.9739 -18.5775 1.2536 0.9222
8.0094 -16.9617 1.1632 0.9276
8.0401 -15.5618 1.0862 0.9322
1.4920 -17.7288 0.7015 0.9313
7.5125 -47.9529 1.9139 0.8234
7.7600 -25.2395 1.0412 0.8997
7.8041 -22.4902 0.9387 0.9091
7.9081 -20.4057 0.8629 0.9161
8.0486 -14.3013 0.6471 0.9364
1.4925 -17.7349 0.3006 0.9313
7.4481 -38.4951 0.6623 0.8548
6.8287 -25.4074 0.4444 0.9001
7.7614 -25.2438 0.4461 0.8997
7.8305 -22.5661 0.4035 0.9089
7.8839 -20.3432 0.3685 0.9164
7.8408 -13.9321 0.2700 0.9380
1.4930 -17.7410 -0.1002 0.9313
7.2124 -46.0382 -0.2624 0.8299
7.4073 -38.2846 -0.2195 0.8556
6.8004 -25.3023 -0.1475 0.9005
7.8043 -22.4907 -0.1340 0.9092
7.9066 -18.4207 -0.1129 0.9229
7.9466 -16.8287 -0.1048 0.9283
7.9812 -15.4479 -0.0979 0.9328
-25.8008 -28.3920 -1.0802 0.8577
-24.2370 -33.2097 -1.1577 0.8483
-23.3451 -40.4633 -1.3154 0.8295
2.5194 -8.1944 -0.2414 0.9663
2.5195 -7.2606 -0.2164 0.9697
2.5195 -6.5011 -0.1963 0.9725
2.6918 -6.2712 -0.1922 0.9731
7.9259 -16.7849 -0.5227 0.9284
7.9618 -15.4103 -0.4884 0.9329
-19.6949 -23.2927 -1.5469 0.8850
-19.1785 -24.3985 -1.5739 0.8831
-18.0422 -26.6724 -1.6331 0.8790
-17.4183 -27.8434 -1.6656 0.8767
-16.7539 -29.0391 -1.7002 0.8743
-15.2458 -31.4123 -1.7708 0.8695
-14.4917 -32.7909 -1.8181 0.8662
-11.7562 -36.8309 -1.9607 0.8565
-10.7205 -38.2521 -2.0147 0.8529
-9.6150 -39.7148 -2.0723 0.8490
-7.1708 -42.7771 -2.1997 0.8405
-4.3710 -46.0442 -2.3456 0.8309
-2.8178 -47.7642 -2.4265 0.8256
-1.1500 -49.5480 -2.5135 0.8200
6.2233 -39.7243 -2.0392 0.8513
6.7817 -25.2326 -1.3251 0.9006
2.5112 -6.4797 -0.3524 0.9726
2.5119 -5.8522 -0.3230 0.9748
2.5129 -4.8638 -0.2776 0.9783
2.5133 -4.4659 -0.2599 0.9797
-16.7709 -15.9954 -1.6993 0.9112
-15.0696 -19.1713 -1.7880 0.9068
-14.0634 -20.7905 -1.8404 0.9042
-13.5177 -21.6082 -1.8688 0.9028
-12.3347 -23.2609 -1.9305 0.8998
-11.0205 -24.9365 -1.9990 0.8964
-9.5625 -26.6348 -2.0750 0.8927
-8.7754 -27.4924 -2.1160 0.8907
-7.9469 -28.3553 -2.1592 0.8886
-7.0750 -29.2234 -2.2046 0.8864
-5.1922 -30.9737 -2.3027 0.8816
-3.1080 -32.7401 -2.4114 0.8764
-1.9838 -33.6278 -2.4699 0.8736
-0.8011 -34.5176 -2.5316 0.8707
1.4968 -17.7861 -1.3087 0.9309
5.7415 -36.6487 -2.7199 0.8618
6.4452 -33.3119 -2.4878 0.8728
2.4991 -8.1283 -0.6235 0.9665
2.5030 -6.4584 -0.5079 0.9726
2.5043 -5.8346 -0.4655 0.9749
2.5064 -4.8512 -0.4004 0.9783
-13.9259 -13.2820 -1.8475 0.9256
-13.5755 -13.9070 -1.8658 0.9249
-13.2054 -14.5316 -1.8851 0.9241
-12.8149 -15.1559 -1.9055 0.9233
-11.5155 -17.0238 -1.9732 0.9207
-11.0378 -17.6441 -1.9981 0.9198
-10.5366 -18.2627 -2.0242 0.9188
-10.0112 -18.8793 -2.0516 0.9177
-8.8852 -20.1049 -2.1103 0.9155
-8.2829 -20.7129 -2.1416 0.9143
-6.9958 -21.9170 -2.2087 0.9117
-6.3091 -22.5117 -2.2445 0.9103
-4.8454 -23.6831 -2.3208 0.9074
-4.0664 -24.2581 -2.3614 0.9059
-3.2548 -24.8247 -2.4037 0.9043
0.3177 -25.3848 -2.4373 0.9030
1.2485 -25.8619 -2.4858 0.9012
2.5384 -21.1089 -2.0412 0.9181
4.2605 -27.1953 -2.6427 0.8953
5.3403 -27.6013 -2.6990 0.8932
5.7924 -25.0957 -2.4727 0.9017
2.4968 -5.8170 -0.6077 0.9749
2.5000 -4.8387 -0.5229 0.9784
-11.8987 -11.3485 -1.9532 0.9359
-11.5827 -11.8654 -1.9697 0.9354
-9.3204 -14.8989 -2.0876 0.9317
-8.8792 -15.3900 -2.1106 0.9309
-7.4378 -16.8298 -2.1857 0.9286
-5.8120 -18.2083 -2.2704 0.9259
-5.2272 -18.6513 -2.3009 0.9249
-4.6204 -19.0848 -2.3325 0.9240
-3.9912 -19.5081 -2.3653 0.9229
-1.2437 -21.0810 -2.5085 0.9185
-0.4976 -21.4392 -2.5474 0.9172
1.0038 -20.7947 -2.4730 0.9196
1.7742 -21.0824 -2.5131 0.9183
2.5241 -20.9897 -2.5112 0.9184
3.3838 -21.5996 -2.5970 0.9157
2.4790 -8.0630 -1.0020 0.9666
2.4832 -7.1561 -0.8998 0.9699
2.4951 -4.4335 -0.6043 0.9797
-10.3796 -9.8997 -2.0323 0.9437
-9.7919 -10.7753 -2.0630 0.9429
-9.4759 -11.2069 -2.0794 0.9424
-9.1449 -11.6339 -2.0967 0.9420
-8.7986 -12.0560 -2.1147 0.9415
-8.4370 -12.4727 -2.1336 0.9410
-7.2577 -13.6867 -2.1950 0.9393
-6.3911 -14.4614 -2.2402 0.9381
-5.4584 -15.2036 -2.2888 0.9368
-4.9670 -15.5611 -2.3144 0.9361
-4.4585 -15.9086 -2.3409 0.9354
-1.6587 -17.4728 -2.4868 0.9315
0.2148 -17.1620 -2.4319 0.9330
0.8386 -17.3726 -2.4644 0.9321
1.4783 -17.5660 -2.4977 0.9313
2.1335 -17.7412 -2.5319 0.9304
3.4891 -18.0332 -2.6025 0.9285
4.9023 -18.2402 -2.6761 0.9265
2.4690 -8.0304 -1.1904 0.9666
2.4742 -7.1301 -1.0694 0.9700
2.4817 -5.7819 -0.8915 0.9749
2.4870 -4.8136 -0.7677 0.9783
2.4890 -4.4227 -0.7191 0.9797
-9.1978 -8.7726 -2.0939 0.9498
-8.9364 -9.1546 -2.1075 0.9495
-8.6621 -9.5321 -2.1218 0.9491
-8.3749 -9.9048 -2.1368 0.9488
-8.0745 -10.2723 -2.1525 0.9484
-7.4342 -10.9902 -2.1858 0.9476
-7.0940 -11.3400 -2.2036 0.9472
-6.7404 -11.6830 -2.2220 0.9468
-6.3733 -12.0189 -2.2411 0.9463
-5.5982 -12.6674 -2.2815 0.9454
-5.1902 -12.9791 -2.3028 0.9449
-4.7685 -13.2818 -2.3248 0.9444
-4.3330 -13.5748 -2.3475 0.9439
-3.8837 -13.8577 -2.3709 0.9433
-2.4541 -14.6397 -2.4454 0.9416
-1.4333 -15.0990 -2.4986 0.9404
-0.9031 -15.3080 -2.5262 0.9397
-0.3598 -15.5023 -2.5545 0.9391
0.1846 -14.7512 -2.4303 0.9419
2.9697 -15.3487 -2.5754 0.9386
3.5578 -15.4141 -2.6061 0.9379
4.1550 -15.4597 -2.6372 0.9372
2.4776 -5.2469 -0.9559 0.9768
2.4829 -4.4118 -0.8340 0.9797
-8.0115 -8.2071 -2.1557 0.9544
-7.7602 -8.5395 -2.1688 0.9541
-7.4973 -8.8669 -2.1825 0.9538
-7.2229 -9.1888 -2.1968 0.9535
-6.9369 -9.5050 -2.2118 0.9532
-6.6392 -9.8150 -2.2273 0.9529
-6.3299 -10.1186 -2.2434 0.9526
-4.2298 -11.7814 -2.3528 0.9503
-3.8393 -12.0281 -2.3732 0.9499
-3.0241 -12.4911 -2.4157 0.9490
-2.5996 -12.7065 -2.4378 0.9486
-0.3156 -13.5993 -2.5568 0.9461
1.1057 -13.1387 -2.4783 0.9478
1.5903 -13.2242 -2.5035 0.9472
2.0827 -13.2938 -2.5292 0.9467
3.6019 -13.4016 -2.6084 0.9451
2.4562 -7.0782 -1.4083 0.9700
2.4619 -6.3527 -1.2806 0.9727
2.4667 -5.7468 -1.1755 0.9749
2.4706 -5.2321 -1.0876 0.9767
2.4740 -4.7884 -1.0131 0.9783
2.4768 -4.4010 -0.9492 0.9797
-7.4756 -7.1300 -2.1837 0.9586
-7.2543 -7.4314 -2.1952 0.9584
-7.0226 -7.7280 -2.2073 0.9582
-6.2658 -8.5855 -2.2467 0.9575
-4.4749 -10.1256 -2.3401 0.9557
-4.1410 -10.3554 -2.3575 0.9554
-3.7972 -10.5765 -2.3754 0.9551
-3.0803 -10.9908 -2.4127 0.9544
-2.3252 -11.3650 -2.4521 0.9537
-1.9338 -11.5359 -2.4725 0.9533
-1.5334 -11.6955 -2.4933 0.9529
-1.1243 -11.8432 -2.5147 0.9525
-0.2809 -12.1011 -2.5586 0.9517
0.1438 -11.4862 -2.4281 0.9541
0.9806 -11.6522 -2.4718 0.9533
1.8427 -11.7625 -2.5167 0.9525
2.7267 -11.8133 -2.5627 0.9516
2.4674 -4.7757 -1.1363 0.9783
-6.6224 -6.7841 -2.2281 0.9618
-6.4079 -7.0514 -2.2393 0.9616
-6.1840 -7.3137 -2.2510 0.9614
-5.9508 -7.5706 -2.2631 0.9612
-5.1958 -8.3055 -2.3025 0.9605
-4.9258 -8.5377 -2.3166 0.9603
-4.3587 -8.9806 -2.3461 0.9598
-3.4418 -9.5866 -2.3939 0.9590
-3.1190 -9.7717 -2.4107 0.9587
-2.7879 -9.9475 -2.4280 0.9584
-2.1012 -10.2703 -2.4638 0.9578
-1.3835 -10.5519 -2.5012 0.9572
-1.0135 -10.6762 -2.5204 0.9569
-0.2527 -10.8900 -2.5601 0.9562
0.1293 -10.3275 -2.4274 0.9584
1.2632 -10.5041 -2.4865 0.9575
1.6508 -10.5371 -2.5067 0.9571
2.0425 -10.5568 -2.5271 0.9568
2.4380 -10.5625 -2.5477 0.9564
2.4290 -7.9005 -1.9426 0.9666
2.4455 -6.3102 -1.5905 0.9726
2.4566 -5.2024 -1.3522 0.9766
-5.6789 -6.7164 -2.2773 0.9643
-5.4624 -6.9492 -2.2886 0.9641
-5.2374 -7.1764 -2.3003 0.9640
-5.0041 -7.3978 -2.3125 0.9638
-4.2548 -8.0238 -2.3515 0.9632
-3.9889 -8.2188 -2.3654 0.9630
-3.4336 -8.5863 -2.3943 0.9625
-2.8478 -8.9219 -2.4248 0.9620
-2.5438 -9.0768 -2.4407 0.9618
-0.9217 -9.7094 -2.5252 0.9605
-0.5784 -9.8051 -2.5431 0.9602
0.1173 -9.3720 -2.4268 0.9620
1.1437 -9.5108 -2.4802 0.9612
1.8466 -9.5438 -2.5169 0.9606
2.2023 -9.5415 -2.5354 0.9603
2.4190 -7.8679 -2.1313 0.9666
2.4583 -4.3682 -1.2978 0.9795
-5.8045 -5.5361 -2.2708 0.9672
-5.4397 -5.9860 -2.2898 0.9669
-5.2455 -6.2037 -2.2999 0.9668
-5.0435 -6.4163 -2.3104 0.9666
-4.8339 -6.6236 -2.3213 0.9665
-4.6167 -6.8251 -2.3327 0.9663
-3.9203 -7.3930 -2.3689 0.9658
-3.6736 -7.5691 -2.3818 0.9656
-3.1591 -7.9000 -2.4086 0.9652
-2.8916 -8.0541 -2.4226 0.9651
-2.6175 -8.2003 -2.4368 0.9648
-2.0500 -8.4678 -2.4664 0.9644
-1.4584 -8.6999 -2.4972 0.9640
-1.1541 -8.8020 -2.5131 0.9638
-0.8444 -8.8944 -2.5292 0.9635
-0.2100 -9.0487 -2.5623 0.9631
0.4160 -8.6173 -2.4423 0.9648
0.7283 -8.6542 -2.4586 0.9645
1.0438 -8.6803 -2.4750 0.9643
2.3307 -8.6720 -2.5421 0.9634
2.4200 -6.9740 -2.0898 0.9698
2.4289 -6.2675 -1.9029 0.9724
2.4476 -4.7374 -1.5096 0.9781
2.4521 -4.3571 -1.4154 0.9794
-5.3928 -5.1435 -2.2922 0.9693
-5.2255 -5.3531 -2.3009 0.9692
-5.0509 -5.5582 -2.3100 0.9691
-4.8691 -5.7586 -2.3195 0.9689
-4.4840 -6.1441 -2.3396 0.9687
-4.2810 -6.3289 -2.3501 0.9685
-4.0712 -6.5079 -2.3611 0.9684
-3.8545 -6.6809 -2.3724 0.9682
-2.4193 -7.5795 -2.4472 0.9673
-2.1590 -7.7035 -2.4607 0.9671
-1.6219 -7.9272 -2.4887 0.9667
-1.3454 -8.0262 -2.5031 0.9665
-0.7782 -8.1975 -2.5327 0.9661
-0.4878 -8.2691 -2.5478 0.9659
-0.1933 -8.3312 -2.5632 0.9657
0.3826 -7.9256 -2.4406 0.9673
0.6695 -7.9553 -2.4555 0.9671
0.9590 -7.9750 -2.4706 0.9669
1.2509 -7.9846 -2.4858 0.9667
2.1367 -7.9499 -2.5320 0.9661
2.3988 -7.8024 -2.5107 0.9664
2.4206 -6.2459 -2.0603 0.9724
2.4286 -5.6580 -1.8938 0.9746
-4.1775 -5.7241 -2.3555 0.9706
-3.7904 -6.0591 -2.3757 0.9703
-3.1635 -6.5182 -2.4084 0.9699
-2.7162 -6.7925 -2.4317 0.9696
-2.4842 -6.9194 -2.4438 0.9695
-2.0043 -7.1515 -2.4688 0.9692
-1.7567 -7.2563 -2.4817 0.9690
-0.9863 -7.5223 -2.5218 0.9685
-0.7209 -7.5941 -2.5357 0.9684
-0.4517 -7.6572 -2.5497 0.9682
-0.1789 -7.7112 -2.5639 0.9680
0.6188 -7.3532 -2.4529 0.9694
1.6977 -7.3550 -2.5091 0.9687
1.9703 -7.3309 -2.5233 0.9685
2.4016 -6.9212 -2.4352 0.9696
2.4122 -6.2242 -2.2189 0.9723
2.4208 -5.6400 -2.0402 0.9745
2.4280 -5.1420 -1.8902 0.9763
2.4395 -4.3347 -1.6534 0.9793
-4.7104 -4.4926 -2.3278 0.9727
-4.0795 -5.1898 -2.3606 0.9723
-3.7273 -5.5103 -2.3790 0.9721
-3.5425 -5.6627 -2.3886 0.9720
-3.3518 -5.8097 -2.3986 0.9719
-2.9539 -6.0863 -2.4193 0.9717
-2.7469 -6.2155 -2.4301 0.9715
-2.5346 -6.3384 -2.4412 0.9714
-0.1664 -7.1696 -2.5646 0.9700
0.5747 -6.8286 -2.4506 0.9713
0.8225 -6.8396 -2.4635 0.9712
1.5739 -6.8191 -2.5027 0.9707
1.8260 -6.7940 -2.5158 0.9706
2.0782 -6.7596 -2.5289 0.9704
2.4037 -6.2023 -2.3787 0.9721
2.4129 -5.6217 -2.1877 0.9743
2.4208 -5.1266 -2.0274 0.9762
2.4274 -4.6983 -1.8911 0.9778
2.4331 -4.3233 -1.7741 0.9791
-3.1421 -5.4461 -2.4095 0.9734
-2.3734 -5.9351 -2.4496 0.9730
-2.1693 -6.0422 -2.4602 0.9729
-1.7479 -6.2368 -2.4822 0.9726
-1.5310 -6.3240 -2.4935 0.9725
-1.3102 -6.4040 -2.5050 0.9724
-1.0857 -6.4768 -2.5167 0.9723
-0.8577 -6.5422 -2.5285 0.9721
-0.6265 -6.6000 -2.5406 0.9720
-0.3923 -6.6499 -2.5528 0.9719
0.3066 -6.3509 -2.4366 0.9731
0.7666 -6.3749 -2.4606 0.9729
0.9987 -6.3747 -2.4727 0.9727
1.4655 -6.3490 -2.4970 0.9725
1.6995 -6.3233 -2.5092 0.9723
2.1674 -6.2460 -2.5336 0.9721
2.3951 -6.1803 -2.5400 0.9720
2.4134 -5.1110 -2.1660 0.9761
2.4205 -4.6850 -2.0208 0.9777
2.4266 -4.3118 -1.8961 0.9790
-4.0331 -4.1316 -2.3631 0.9754
-3.7511 -4.4364 -2.3778 0.9752
-3.4476 -4.7240 -2.3936 0.9750
-2.9541 -5.1202 -2.4193 0.9748
-2.7797 -5.2420 -2.4284 0.9747
-2.4171 -5.4693 -2.4473 0.9745
-2.2291 -5.5743 -2.4571 0.9744
-1.4364 -5.9330 -2.4984 0.9740
-1.2289 -6.0064 -2.5092 0.9739
-1.0180 -6.0730 -2.5202 0.9737
-0.8040 -6.1325 -2.5313 0.9736
-0.3675 -6.2297 -2.5541 0.9734
-0.1455 -6.2671 -2.5657 0.9733
0.5013 -5.9572 -2.4468 0.9745
0.7171 -5.9628 -2.4580 0.9744
0.9338 -5.9606 -2.4693 0.9743
1.3694 -5.9328 -2.4920 0.9740
2.0234 -5.8310 -2.5261 0.9737
2.4201 -4.3002 -2.0195 0.9789
-3.9324 -3.7506 -2.3683 0.9766
-3.8064 -3.8994 -2.3749 0.9765
-3.6753 -4.0444 -2.3817 0.9764
-3.2515 -4.4553 -2.4038 0.9762
-2.9447 -4.7071 -2.4198 0.9761
-2.7843 -4.8259 -2.4281 0.9760
-2.4501 -5.0483 -2.4456 0.9758
-1.7324 -5.4275 -2.4830 0.9754
-1.1558 -5.6492 -2.5130 0.9752
-0.7558 -5.7647 -2.5339 0.9750
-0.5518 -5.8123 -2.5445 0.9748
-0.1366 -5.8865 -2.5661 0.9746
0.0696 -5.5621 -2.4243 0.9760
0.2694 -5.5800 -2.4347 0.9759
1.2837 -5.5615 -2.4875 0.9754
1.6917 -5.5023 -2.5088 0.9752
2.0977 -5.4128 -2.5299 0.9750
2.2992 -5.3566 -2.5404 0.9749
2.4135 -4.2884 -2.1446 0.9788
-3.7197 -3.5478 -2.3794 0.9776
-3.6001 -3.6880 -2.3856 0.9775
-3.3461 -3.9574 -2.3989 0.9774
-3.2120 -4.0863 -2.4058 0.9774
-2.9299 -4.3314 -2.4206 0.9772
-2.7822 -4.4474 -2.4282 0.9771
-1.8096 -5.0404 -2.4789 0.9767
-1.6344 -5.1206 -2.4881 0.9766
-1.4559 -5.1951 -2.4974 0.9765
-1.2743 -5.2636 -2.5068 0.9764
-1.0897 -5.3261 -2.5165 0.9763
-0.9023 -5.3825 -2.5262 0.9762
-0.7122 -5.4325 -2.5361 0.9761
-0.5199 -5.4760 -2.5461 0.9760
0.6329 -5.2628 -2.4536 0.9769
0.8237 -5.2581 -2.4636 0.9768
1.0151 -5.2464 -2.4735 0.9767
1.2067 -5.2279 -2.4835 0.9766
1.3982 -5.2022 -2.4935 0.9765
1.5894 -5.1696 -2.5035 0.9764
1.7800 -5.1298 -2.5134 0.9764
2.3457 -4.9676 -2.5429 0.9761
2.3994 -4.6441 -2.4196 0.9772
2.4067 -4.2765 -2.2715 0.9786
-3.4112 -3.4946 -2.3955 0.9785
-3.2928 -3.6235 -2.4016 0.9784
-2.9103 -3.9877 -2.4216 0.9782
-2.7741 -4.1011 -2.4287 0.9782
-2.4894 -4.3148 -2.4435 0.9781
-1.8739 -4.6861 -2.4756 0.9778
-1.7112 -4.7662 -2.4841 0.9777
-1.3762 -4.9105 -2.5015 0.9775
-1.2043 -4.9743 -2.5105 0.9775
-0.8523 -5.0844 -2.5288 0.9773
-0.6727 -5.1306 -2.5382 0.9772
-0.3070 -5.2042 -2.5572 0.9770
-0.1214 -5.2316 -2.5669 0.9770
0.0619 -4.9410 -2.4239 0.9782
0.4176 -4.9616 -2.4424 0.9781
0.9567 -4.9447 -2.4705 0.9778
1.6762 -4.8303 -2.5080 0.9775
2.2073 -4.6744 -2.5357 0.9772
2.3812 -4.6090 -2.5447 0.9772
2.3999 -4.2643 -2.4003 0.9784
-3.1247 -3.4386 -2.4104 0.9793
-3.0075 -3.5570 -2.4165 0.9792
-2.7606 -3.7826 -2.4294 0.9791
-2.3603 -4.0910 -2.4502 0.9789
-2.0748 -4.2749 -2.4651 0.9788
-1.7755 -4.4400 -2.4807 0.9787
-1.6211 -4.5152 -2.4888 0.9786
-1.1402 -4.7096 -2.5138 0.9784
-0.6365 -4.8547 -2.5401 0.9782
-0.4643 -4.8916 -2.5490 0.9781
-0.2904 -4.9225 -2.5581 0.9780
-0.1148 -4.9473 -2.5673 0.9779
0.2261 -4.6833 -2.4324 0.9791
0.3946 -4.6891 -2.4412 0.9790
0.5639 -4.6889 -2.4500 0.9789
0.7336 -4.6826 -2.4589 0.9789
0.9036 -4.6702 -2.4677 0.9788
1.0737 -4.6516 -2.4766 0.9787
1.2435 -4.6267 -2.4854 0.9786
1.4130 -4.5957 -2.4943 0.9786
1.9163 -4.4646 -2.5205 0.9783
2.0817 -4.4084 -2.5291 0.9783
2.2453 -4.3458 -2.5376 0.9782
-3.1808 -3.0337 -2.4075 0.9802
-3.0773 -3.1525 -2.4129 0.9801
-2.8579 -3.3800 -2.4243 0.9800
-2.7422 -3.4886 -2.4303 0.9800
-2.6226 -3.5935 -2.4366 0.9799
-2.3720 -3.7917 -2.4496 0.9798
-2.1071 -3.9736 -2.4634 0.9797
-1.9696 -4.0581 -2.4706 0.9796
-1.8288 -4.1381 -2.4779 0.9796
-1.5381 -4.2841 -2.4931 0.9795
-1.3885 -4.3499 -2.5009 0.9794
-1.2361 -4.4107 -2.5088 0.9793
-0.7647 -4.5619 -2.5334 0.9791
-0.6033 -4.6015 -2.5418 0.9791
-0.2751 -4.6640 -2.5589 0.9789
-0.1088 -4.6866 -2.5676 0.9788
0.0554 -4.4245 -2.4235 0.9800
0.8550 -4.4190 -2.4652 0.9797
1.0157 -4.4005 -2.4736 0.9796
1.1762 -4.3762 -2.4819 0.9795
1.3362 -4.3460 -2.4903 0.9795
1.9671 -4.1657 -2.5231 0.9792
2.1213 -4.1058 -2.5312 0.9791
2.2737 -4.0401 -2.5391 0.9791
-2.9286 -3.0002 -2.4206 0.9808
-2.8259 -3.1097 -2.4260 0.9808
-2.7192 -3.2160 -2.4315 0.9807
-2.3770 -3.5140 -2.4494 0.9806
-2.2558 -3.6059 -2.4557 0.9805
-2.1312 -3.6939 -2.4622 0.9805
-1.6012 -4.0042 -2.4898 0.9803
-1.4614 -4.0707 -2.4971 0.9802
-1.1742 -4.1896 -2.5120 0.9801
-0.4176 -4.3995 -2.5515 0.9798
-0.2611 -4.4257 -2.5596 0.9797
-0.1032 -4.4465 -2.5679 0.9797
0.2031 -4.2061 -2.4312 0.9807
0.3543 -4.2098 -2.4391 0.9807
0.6581 -4.2008 -2.4549 0.9806
0.8103 -4.1882 -2.4629 0.9805
1.1144 -4.1461 -2.4787 0.9804
1.4164 -4.0817 -2.4944 0.9802
1.7147 -3.9950 -2.5100 0.9801
1.8620 -3.9432 -2.5177 0.9801
