ply
format ascii 1.0
element vertex 553
property float32 x
property float32 y
property float32 z
property float32 I
end_header
-27.2147 24.2545 6.4279 0.8624
-27.2655 22.5948 6.2439 0.8660
-27.3132 21.0252 6.0777 0.8694
-27.3580 19.5349 5.9275 0.8724
-27.3323 18.0693 5.7773 0.8754
-27.4406 16.7555 5.6692 0.8776
-29.9704 14.1213 5.8418 0.8741
-30.2461 10.4435 5.6422 0.8781
-27.0185 32.1402 6.4323 0.8437
-27.1469 27.9434 5.9683 0.8541
-27.2040 26.0589 5.7710 0.8586
-27.2572 24.2924 5.5933 0.8626
-27.3669 22.6788 5.4449 0.8660
-27.3535 21.0563 5.2882 0.8696
-27.3975 19.5630 5.1573 0.8726
-27.4784 16.7786 4.9322 0.8778
-29.8471 14.0633 5.0546 0.8750
-33.1469 14.1854 5.5234 0.8642
-27.1319 30.0150 5.2688 0.8494
-27.1920 27.9897 5.0817 0.8544
-27.2996 24.3302 4.7619 0.8629
-27.4082 22.7130 4.6354 0.8662
-27.5529 15.4927 4.1163 0.8803
-27.5880 14.2323 4.0424 0.8823
-29.9659 14.1193 4.3137 0.8749
-30.2783 10.4546 4.1713 0.8788
-27.1150 32.2551 4.5248 0.8441
-27.2369 28.0360 4.1973 0.8545
-27.3419 24.3679 3.9328 0.8630
-27.3892 22.6974 3.8197 0.8667
-27.4759 19.6190 3.6254 0.8730
-27.5157 18.1906 3.5420 0.8757
-27.5897 15.5135 3.3989 0.8804
-27.6243 14.2511 3.3378 0.8825
-29.9637 14.1182 3.5568 0.8752
-42.1445 16.2697 4.8511 0.8338
-30.3009 10.4624 3.4423 0.8790
-27.1631 32.3123 3.5734 0.8441
-27.2818 28.0822 3.3143 0.8546
-25.9766 23.1511 2.9456 0.8696
-27.4303 22.7314 3.0158 0.8667
-27.4739 21.1489 2.9350 0.8701
-27.5150 19.6469 2.8621 0.8731
-27.4968 16.7898 2.7273 0.8787
-27.5321 15.4811 2.6739 0.8809
-25.6364 13.2255 2.4420 0.8907
-33.0403 14.1398 3.0423 0.8657
-41.2072 15.9079 3.7392 0.8375
-30.3311 10.4728 2.7164 0.8791
-27.2113 32.3696 2.6223 0.8441
-27.2712 30.1692 2.5218 0.8496
-27.3266 28.1283 2.4318 0.8546
-27.3872 24.4083 2.2748 0.8633
-27.4789 22.7717 2.2130 0.8667
-27.5138 21.1797 2.1531 0.8701
-27.5540 19.6748 2.0995 0.8731
-27.6633 15.5548 1.9680 0.8806
-27.6966 14.2884 1.9325 0.8826
-25.6996 12.1091 1.7617 0.8924
-42.2499 16.3104 2.8084 0.8340
-25.6499 35.3924 1.7235 0.8395
-27.3309 28.1327 1.5466 0.8547
-27.4288 24.4454 1.4487 0.8632
-27.5323 22.8159 1.4100 0.8666
-25.8371 18.4489 1.2518 0.8807
-29.9572 14.1152 1.3058 0.8758
-25.7416 24.6580 0.6021 0.8671
-27.5573 22.8367 0.6046 0.8666
-27.5938 21.2413 0.5882 0.8700
-27.6322 19.7306 0.5735 0.8730
-25.9078 17.1276 0.5246 0.8832
-25.9404 15.8395 0.5134 0.8855
-27.7689 14.3257 0.5278 0.8825
-27.7805 13.0895 0.5187 0.8844
-33.1664 14.1938 0.6094 0.8656
-40.5517 15.6548 0.7343 0.8404
-42.3238 12.9308 0.7476 0.8377
-25.5297 32.6860 -0.2335 0.8471
-25.5851 30.4351 -0.2239 0.8530
-25.6362 28.3604 -0.2152 0.8582
-25.7278 24.6448 -0.2006 0.8672
-25.8799 18.4794 -0.1790 0.8806
-25.9756 14.6058 -0.1678 0.8876
-27.7847 13.0915 -0.1729 0.8844
-30.3565 10.4816 -0.1808 0.8794
-39.5713 12.0899 -0.2330 0.8475
-39.6125 10.5616 -0.2308 0.8488
-41.8184 9.5539 -0.2415 0.8423
-22.8322 43.5035 -1.3834 0.8215
-23.3688 40.8834 -1.3260 0.8283
-23.5854 35.1360 -1.1916 0.8442
-24.1835 33.3691 -1.1604 0.8480
-24.7370 31.6712 -1.1316 0.8515
-25.3350 28.0272 -1.0638 0.8597
-25.3294 26.0725 -1.0236 0.8646
-25.6235 24.5448 -0.9991 0.8676
-25.9166 18.5056 -0.8967 0.8804
-25.9802 15.8637 -0.8571 0.8853
-26.0101 14.6252 -0.8402 0.8874
-26.0420 13.4348 -0.8251 0.8894
-27.7382 11.8707 -0.8496 0.8863
-28.9440 9.9939 -0.8622 0.8847
-29.6820 9.0685 -0.8739 0.8832
-30.7980 8.2114 -0.8975 0.8803
-31.7712 7.2585 -0.9177 0.8777
-8.2232 41.4824 -2.1447 0.8442
-9.4254 39.9579 -2.0820 0.8484
-10.5500 38.4788 -2.0234 0.8523
-11.6029 37.0423 -1.9686 0.8560
-13.5141 34.2860 -1.8690 0.8628
-14.3814 32.9614 -1.8238 0.8659
-15.1953 31.6692 -1.7814 0.8688
-15.9591 30.4077 -1.7416 0.8715
-16.6762 29.1747 -1.7042 0.8741
-17.3494 27.9686 -1.6691 0.8765
-17.9815 26.7876 -1.6362 0.8788
-18.5750 25.6303 -1.6053 0.8809
-19.1320 24.4950 -1.5763 0.8830
-20.6039 21.2083 -1.4996 0.8883
-21.0339 20.1485 -1.4772 0.8899
-21.8117 18.0753 -1.4366 0.8927
-22.7913 15.0672 -1.3856 0.8963
-23.9878 10.2657 -1.3232 0.9008
-24.1683 9.3301 -1.3138 0.9014
-24.3305 8.4009 -1.3054 0.9020
-24.4749 7.4776 -1.2979 0.9026
-24.6019 6.5594 -1.2912 0.9031
-24.7117 5.6457 -1.2855 0.9035
-2.8979 32.9075 -2.4222 0.8759
-5.0153 31.1286 -2.3119 0.8812
-6.9268 29.3657 -2.2122 0.8860
-7.7892 28.4092 -2.1599 0.8886
-8.6522 27.6220 -2.1223 0.8904
-9.4505 26.7582 -2.0807 0.8924
-11.6117 24.2007 -1.9681 0.8979
-14.0102 20.8715 -1.8432 0.9041
-14.5333 20.0534 -1.8159 0.9054
-16.3551 16.8349 -1.7210 0.9102
-17.4649 14.4731 -1.6631 0.9130
-18.0952 12.9208 -1.6303 0.9147
-18.6439 11.3841 -1.6017 0.9161
-19.5143 8.3513 -1.5564 0.9184
-19.8430 6.8515 -1.5392 0.9193
-19.9821 6.1049 -1.5320 0.9196
-20.1045 5.3603 -1.5256 0.9199
-3.1016 24.9271 -2.4116 0.9040
-3.9245 24.3586 -2.3687 0.9056
-4.7143 23.7813 -2.3275 0.9072
-5.4716 23.1964 -2.2881 0.9087
-6.8934 22.0069 -2.2140 0.9115
-7.5595 21.4040 -2.1793 0.9128
-8.1971 20.7965 -2.1461 0.9141
-9.3900 19.5701 -2.0839 0.9165
-10.9856 17.7096 -2.0008 0.9197
-11.4689 17.0855 -1.9756 0.9206
-12.3667 15.8333 -1.9288 0.9224
-13.1773 14.5776 -1.8866 0.9241
-13.5514 13.9489 -1.8671 0.9248
-14.5548 12.0615 -1.8148 0.9269
-14.8514 11.4324 -1.7993 0.9275
-15.3904 10.1745 -1.7712 0.9285
-15.6335 9.5460 -1.7586 0.9290
-16.4385 7.0350 -1.7166 0.9307
-16.5994 6.4081 -1.7082 0.9310
-16.7445 5.7816 -1.7007 0.9313
-16.8742 5.1554 -1.6939 0.9316
-2.5373 20.3922 -2.4410 0.9206
-3.8812 19.5790 -2.3710 0.9227
-5.7246 18.2757 -2.2749 0.9258
-6.2945 17.8224 -2.2452 0.9267
-6.8429 17.3608 -2.2166 0.9276
-7.3700 16.8917 -2.1892 0.9285
-9.2745 14.9511 -2.0899 0.9316
-11.5609 11.9000 -1.9708 0.9354
-12.4683 10.3324 -1.9235 0.9369
-12.9915 9.2765 -1.8962 0.9377
-13.6593 7.6805 -1.8614 0.9388
-14.0291 6.6102 -1.8422 0.9394
-14.5945 4.4589 -1.8127 0.9404
-14.7004 3.9194 -1.8072 0.9406
-0.9242 17.7970 -2.5250 0.9305
-3.2957 16.6254 -2.4015 0.9338
-4.8909 15.6141 -2.3184 0.9360
-5.3881 15.2558 -2.2924 0.9367
-6.3314 14.5113 -2.2433 0.9380
-8.0188 12.9268 -2.1554 0.9404
-8.4001 12.5138 -2.1355 0.9409
-8.7656 12.0949 -2.1165 0.9414
-9.7691 10.8072 -2.0642 0.9428
-10.0733 10.3688 -2.0483 0.9433
-10.6374 9.4804 -2.0189 0.9441
-10.8976 9.0308 -2.0054 0.9444
-11.1435 8.5781 -1.9925 0.9448
-11.5930 7.6641 -1.9691 0.9454
-11.9874 6.7404 -1.9486 0.9460
-12.1641 6.2753 -1.9394 0.9462
-12.3275 5.8084 -1.9309 0.9464
-12.4776 5.3398 -1.9230 0.9466
-12.6145 4.8697 -1.9159 0.9468
-12.7383 4.3983 -1.9094 0.9470
-12.8492 3.9257 -1.9037 0.9472
-12.9472 3.4520 -1.8986 0.9473
-0.7970 15.3471 -2.5317 0.9396
-1.3332 15.1396 -2.5037 0.9402
-1.8562 14.9177 -2.4765 0.9409
-3.3433 14.1734 -2.3990 0.9427
-4.2657 13.6182 -2.3509 0.9438
-4.7061 13.3247 -2.3280 0.9443
-5.9438 12.3877 -2.2635 0.9458
-7.0571 11.3766 -2.2055 0.9472
-8.0479 10.3038 -2.1539 0.9484
-8.3513 9.9344 -2.1380 0.9487
-8.6415 9.5597 -2.1229 0.9491
-9.1824 8.7958 -2.0947 0.9498
-9.6715 8.0147 -2.0693 0.9504
-9.8968 7.6184 -2.0575 0.9506
-10.1095 7.2186 -2.0464 0.9509
-10.4973 6.4097 -2.0262 0.9514
-10.6726 6.0011 -2.0171 0.9516
-10.8356 5.5900 -2.0086 0.9518
-10.9864 5.1765 -2.0007 0.9520
-11.2516 4.3436 -1.9869 0.9523
-11.4689 3.5040 -1.9756 0.9525
-11.5597 3.0821 -1.9709 0.9527
-11.6387 2.6590 -1.9667 0.9528
-0.6999 13.4779 -2.5367 0.9466
-1.1724 13.3136 -2.5121 0.9471
-2.0856 12.9450 -2.4645 0.9480
-3.3727 12.3011 -2.3975 0.9494
-3.7790 12.0645 -2.3763 0.9498
-4.1738 11.8177 -2.3557 0.9503
-5.2881 11.0211 -2.2977 0.9515
-5.9721 10.4481 -2.2620 0.9522
-6.2964 10.1503 -2.2451 0.9525
-6.6089 9.8455 -2.2288 0.9529
-8.8944 6.8467 -2.1097 0.9553
-9.6107 5.4040 -2.0724 0.9561
-9.9012 4.6652 -2.0573 0.9564
-10.0297 4.2923 -2.0506 0.9566
-10.1472 3.9173 -2.0445 0.9567
-10.2536 3.5404 -2.0389 0.9568
-10.5067 2.4004 -2.0257 0.9571
-1.0453 11.8698 -2.5187 0.9525
-1.4587 11.7234 -2.4972 0.9528
-1.8633 11.5649 -2.4761 0.9532
-3.0219 11.0217 -2.4157 0.9544
-3.3891 10.8196 -2.3966 0.9547
-3.7464 10.6077 -2.3780 0.9550
-5.0758 9.6711 -2.3087 0.9563
-5.6791 9.1551 -2.2773 0.9569
-5.9652 8.8864 -2.2624 0.9572
-6.2409 8.6112 -2.2480 0.9575
-7.0052 7.7496 -2.2082 0.9582
-7.2391 7.4515 -2.1960 0.9584
-7.6754 6.8405 -2.1733 0.9588
-8.0700 6.2121 -2.1527 0.9592
-8.2516 5.8920 -2.1432 0.9594
-8.8744 4.5782 -2.1108 0.9600
-9.4997 2.5328 -2.0782 0.9606
-0.9421 10.6985 -2.5241 0.9568
-2.0410 10.2959 -2.4669 0.9578
-2.3919 10.1401 -2.4486 0.9581
-2.7348 9.9743 -2.4307 0.9584
-3.0693 9.7988 -2.4133 0.9587
-3.7131 9.4202 -2.3797 0.9592
-4.3218 9.0074 -2.3480 0.9598
-4.6128 8.7891 -2.3328 0.9600
-4.8948 8.5633 -2.3182 0.9603
-5.1675 8.3304 -2.3039 0.9605
-5.4311 8.0908 -2.2902 0.9608
-5.9302 7.5925 -2.2642 0.9612
-6.1657 7.3345 -2.2519 0.9614
-6.8154 6.5285 -2.2181 0.9620
-7.0129 6.2501 -2.2078 0.9621
-7.2009 5.9674 -2.1980 0.9623
-7.3795 5.6806 -2.1887 0.9625
-7.5484 5.3899 -2.1799 0.9626
-7.7078 5.0956 -2.1716 0.9627
-7.9979 4.4971 -2.1565 0.9630
-8.1286 4.1934 -2.1497 0.9631
-8.2498 3.8871 -2.1433 0.9632
-8.3614 3.5783 -2.1375 0.9633
-8.5561 2.9543 -2.1274 0.9635
-8.6392 2.6394 -2.1230 0.9636
-8.7127 2.3230 -2.1192 0.9636
-8.7767 2.0051 -2.1159 0.9637
-0.8567 9.7283 -2.5286 0.9605
-2.4951 9.1003 -2.4432 0.9618
-3.3939 8.6106 -2.3964 0.9625
-3.9549 8.2427 -2.3671 0.9629
-4.4840 7.8448 -2.3396 0.9634
-4.7363 7.6354 -2.3264 0.9636
-5.2160 7.1972 -2.3014 0.9639
-5.4432 6.9690 -2.2896 0.9641
-5.6619 6.7352 -2.2782 0.9643
-5.8720 6.4960 -2.2672 0.9645
-6.0734 6.2516 -2.2567 0.9646
-6.4502 5.7487 -2.2371 0.9649
-6.6256 5.4906 -2.2280 0.9651
-6.7921 5.2284 -2.2193 0.9652
-7.0987 4.6929 -2.2033 0.9654
-7.3699 4.1440 -2.1892 0.9657
-7.7102 3.2996 -2.1715 0.9659
-7.8059 3.0134 -2.1665 0.9660
-7.8927 2.7252 -2.1619 0.9661
-7.9706 2.4352 -2.1579 0.9661
-8.0395 2.1435 -2.1543 0.9662
-0.4669 8.9916 -2.5489 0.9633
-0.7847 8.9107 -2.5323 0.9635
-1.0974 8.8196 -2.5160 0.9637
-1.4047 8.7186 -2.5000 0.9640
-2.0022 8.4881 -2.4689 0.9644
-2.2919 8.3592 -2.4538 0.9646
-2.5753 8.2217 -2.4390 0.9648
-3.1224 7.9217 -2.4105 0.9652
-3.3858 7.7600 -2.3968 0.9654
-3.6421 7.5907 -2.3834 0.9656
-3.8913 7.4143 -2.3704 0.9658
-4.1332 7.2309 -2.3578 0.9660
-4.5946 6.8448 -2.3338 0.9663
-5.0257 6.4345 -2.3113 0.9666
-5.4257 6.0022 -2.2905 0.9669
-5.6137 5.7784 -2.2807 0.9671
-5.7939 5.5500 -2.2713 0.9672
-5.9660 5.3171 -2.2623 0.9673
-6.2859 4.8388 -2.2457 0.9676
-6.4336 4.5939 -2.2380 0.9677
-7.0489 3.3212 -2.2059 0.9681
-7.2370 2.7938 -2.1961 0.9683
-7.3186 2.5270 -2.1919 0.9683
-7.3918 2.2583 -2.1880 0.9684
-0.4301 8.2820 -2.5508 0.9659
-0.7232 8.2117 -2.5355 0.9661
-1.5749 7.9446 -2.4912 0.9667
-1.8488 7.8377 -2.4769 0.9669
-2.3802 7.5987 -2.4492 0.9672
-2.6373 7.4672 -2.4358 0.9674
-2.8884 7.3280 -2.4227 0.9676
-3.3720 7.0277 -2.3975 0.9679
-3.6041 6.8671 -2.3854 0.9681
-3.8297 6.6999 -2.3737 0.9682
-4.2604 6.3469 -2.3512 0.9685
-5.0378 5.5731 -2.3107 0.9690
-5.9835 4.2725 -2.2614 0.9697
-6.1147 4.0424 -2.2546 0.9698
-6.2382 3.8091 -2.2482 0.9699
-6.5623 3.0920 -2.2313 0.9701
-6.6548 2.8480 -2.2264 0.9702
-6.7396 2.6017 -2.2220 0.9702
-6.8854 2.1036 -2.2144 0.9703
-6.9465 1.8521 -2.2112 0.9704
-6.9998 1.5992 -2.2085 0.9704
-0.6699 7.6067 -2.5383 0.9683
-1.7155 7.2727 -2.4838 0.9690
-1.9655 7.1685 -2.4708 0.9692
-2.9131 6.6767 -2.4214 0.9698
-3.3532 6.3890 -2.3985 0.9700
-3.5643 6.2356 -2.3875 0.9702
-3.9678 5.9109 -2.3665 0.9704
-4.1600 5.7401 -2.3564 0.9706
-4.3458 5.5639 -2.3468 0.9707
-4.5249 5.3826 -2.3374 0.9708
-4.8629 5.0056 -2.3198 0.9710
-5.1736 4.6109 -2.3036 0.9712
-5.5872 3.9895 -2.2821 0.9715
-5.9364 3.3380 -2.2639 0.9717
-6.2204 2.6620 -2.2491 0.9719
-6.3004 2.4322 -2.2449 0.9719
-6.3730 2.2004 -2.2411 0.9720
-6.4382 1.9670 -2.2377 0.9720
-0.3704 7.1321 -2.5539 0.9701
-0.6233 7.0774 -2.5407 0.9703
-0.8728 7.0144 -2.5277 0.9704
-1.1187 6.9431 -2.5149 0.9706
-1.3606 6.8638 -2.5023 0.9707
-2.0611 6.5800 -2.4658 0.9711
-2.2854 6.4709 -2.4541 0.9713
-2.7191 6.2321 -2.4315 0.9715
-2.9282 6.1028 -2.4206 0.9717
-3.3300 5.8259 -2.3997 0.9719
-3.7092 5.5257 -2.3799 0.9721
-3.8899 5.3674 -2.3705 0.9722
-4.3957 4.8628 -2.3442 0.9725
-4.5518 4.6854 -2.3360 0.9726
-4.7016 4.5036 -2.3282 0.9727
-4.8448 4.3178 -2.3208 0.9728
-5.1117 3.9349 -2.3069 0.9730
-5.2352 3.7381 -2.3004 0.9730
-5.3520 3.5382 -2.2943 0.9731
-5.4620 3.3351 -2.2886 0.9732
-5.5653 3.1293 -2.2832 0.9732
-5.6617 2.9208 -2.2782 0.9733
-5.7512 2.7098 -2.2735 0.9734
-6.0399 1.8453 -2.2585 0.9735
-6.0947 1.6250 -2.2556 0.9736
-6.1424 1.4033 -2.2532 0.9736
-0.5821 6.6100 -2.5429 0.9720
-2.1393 6.0572 -2.4617 0.9729
-2.9350 5.5922 -2.4203 0.9733
-3.1215 5.4611 -2.4106 0.9734
-3.4788 5.1824 -2.3919 0.9736
-3.8140 4.8832 -2.3745 0.9738
-3.9732 4.7263 -2.3662 0.9739
-4.4154 4.2296 -2.3431 0.9741
-4.5509 4.0559 -2.3361 0.9742
-4.6802 3.8784 -2.3293 0.9743
-4.8033 3.6975 -2.3229 0.9744
-4.9202 3.5132 -2.3168 0.9744
-5.3241 2.7466 -2.2958 0.9747
-0.3239 6.2376 -2.5563 0.9734
-0.7643 6.1426 -2.5334 0.9736
-1.1930 6.0182 -2.5111 0.9738
-1.6083 5.8660 -2.4894 0.9741
-1.8104 5.7798 -2.4789 0.9742
-2.0086 5.6872 -2.4686 0.9743
-2.9346 5.1341 -2.4203 0.9748
-3.1058 5.0068 -2.4114 0.9749
-3.5888 4.5949 -2.3862 0.9751
-3.7394 4.4482 -2.3784 0.9752
-3.8845 4.2972 -2.3708 0.9753
-4.0240 4.1421 -2.3635 0.9753
-4.2863 3.8201 -2.3499 0.9755
-4.6363 3.3105 -2.3316 0.9757
-4.7412 3.1344 -2.3262 0.9757
-4.8401 2.9554 -2.3210 0.9758
-4.9329 2.7737 -2.3162 0.9758
-5.2426 2.0239 -2.3000 0.9760
-5.3602 1.6377 -2.2939 0.9761
-5.4095 1.4423 -2.2913 0.9761
-5.4526 1.2457 -2.2891 0.9761
-0.3043 5.8601 -2.5574 0.9747
-0.5126 5.8205 -2.5465 0.9748
-0.7184 5.7739 -2.5358 0.9749
-0.9216 5.7204 -2.5252 0.9750
-1.5134 5.5197 -2.4944 0.9753
-2.4286 5.0615 -2.4467 0.9758
-2.5994 4.9528 -2.4378 0.9759
-2.9279 4.7199 -2.4207 0.9761
-3.0851 4.5960 -2.4125 0.9761
-3.5279 4.1967 -2.3894 0.9764
-3.7978 3.9092 -2.3753 0.9765
-4.0467 3.6065 -2.3624 0.9766
-4.1630 3.4498 -2.3563 0.9767
-4.2738 3.2899 -2.3505 0.9767
-4.3790 3.1268 -2.3450 0.9768
-4.6608 2.6207 -2.3304 0.9769
-4.8906 2.0929 -2.3184 0.9771
-4.9554 1.9130 -2.3150 0.9771
-5.0143 1.7313 -2.3119 0.9771
-5.1552 1.1778 -2.3046 0.9772
-0.4829 5.4835 -2.5481 0.9760
-0.6770 5.4409 -2.5379 0.9761
-1.4274 5.2062 -2.4988 0.9765
-1.6076 5.1322 -2.4895 0.9766
-2.1274 4.8757 -2.4624 0.9768
-2.4550 4.6776 -2.4453 0.9770
-2.6127 4.5709 -2.4371 0.9771
-3.0600 4.2223 -2.4138 0.9773
-3.2002 4.0972 -2.4065 0.9773
-3.4662 3.8345 -2.3926 0.9775
-3.9389 3.2642 -2.3680 0.9777
-4.2392 2.8025 -2.3523 0.9778
-4.4126 2.4812 -2.3433 0.9779
-4.6314 1.9820 -2.3319 0.9780
-4.6932 1.8118 -2.3287 0.9781
-4.7997 1.4664 -2.3231 0.9781
-4.8445 1.2916 -2.3208 0.9781
-4.8836 1.1157 -2.3187 0.9782
-0.4560 5.1774 -2.5495 0.9771
-1.3492 4.9209 -2.5029 0.9775
-1.8516 4.6974 -2.4767 0.9778
-2.0123 4.6122 -2.4684 0.9778
-2.1696 4.5218 -2.4602 0.9779
-2.3232 4.4264 -2.4522 0.9780
-2.4729 4.3263 -2.4444 0.9780
-2.6186 4.2214 -2.4368 0.9781
-2.7603 4.1121 -2.4294 0.9782
-3.1596 3.7586 -2.4086 0.9784
-3.2838 3.6328 -2.4021 0.9784
-3.5184 3.3702 -2.3899 0.9785
-3.6285 3.2338 -2.3841 0.9786
-4.1050 2.5066 -2.3593 0.9788
-4.1851 2.3532 -2.3551 0.9788
-4.3295 2.0399 -2.3476 0.9789
-4.3937 1.8803 -2.3443 0.9789
-4.4526 1.7189 -2.3412 0.9790
-4.5061 1.5559 -2.3384 0.9790
-4.5970 1.2256 -2.3337 0.9790
-4.6342 1.0587 -2.3317 0.9790
-0.4313 4.8979 -2.5507 0.9781
-0.6049 4.8619 -2.5417 0.9782
-0.7766 4.8200 -2.5328 0.9782
-0.9460 4.7722 -2.5239 0.9783
-1.1131 4.7188 -2.5152 0.9784
-1.7543 4.4507 -2.4818 0.9787
-2.0563 4.2858 -2.4661 0.9788
-2.2023 4.1961 -2.4585 0.9789
-2.3446 4.1018 -2.4510 0.9789
-2.4832 4.0031 -2.4438 0.9790
-2.6179 3.9000 -2.4368 0.9791
-2.7487 3.7927 -2.4300 0.9791
-2.9979 3.5663 -2.4170 0.9792
-3.2302 3.3250 -2.4049 0.9793
-3.4446 3.0700 -2.3937 0.9794
-3.5450 2.9377 -2.3885 0.9795
-3.8991 2.3808 -2.3700 0.9796
-4.0469 2.0877 -2.3623 0.9797
-4.2308 1.6333 -2.3528 0.9798
-4.2820 1.4785 -2.3501 0.9798
-4.3687 1.1648 -2.3456 0.9798
-4.4043 1.0062 -2.3437 0.9798
-0.4087 4.6413 -2.5519 0.9790
-0.5734 4.6081 -2.5433 0.9790
-0.7362 4.5692 -2.5349 0.9791
-0.8970 4.5248 -2.5265 0.9792
-1.0555 4.4749 -2.5182 0.9792
-1.2118 4.4198 -2.5101 0.9793
-1.3655 4.3594 -2.5021 0.9794
-1.6647 4.2235 -2.4865 0.9795
-2.0909 3.9839 -2.4643 0.9797
-2.2264 3.8950 -2.4572 0.9797
-2.3583 3.8018 -2.4503 0.9798
-2.4867 3.7044 -2.4436 0.9799
-2.6112 3.6030 -2.4372 0.9799
-2.8488 3.3888 -2.4248 0.9800
-2.9615 3.2762 -2.4189 0.9801
-3.0702 3.1603 -2.4132 0.9801
-3.2748 2.9186 -2.4026 0.9802
-3.5487 2.5339 -2.3883 0.9803
-3.6310 2.4004 -2.3840 0.9803
-3.7816 2.1263 -2.3762 0.9804
-3.9719 1.6998 -2.3663 0.9805
-4.0256 1.5541 -2.3635 0.9805
-4.1185 1.2583 -2.3586 0.9806
-4.1574 1.1084 -2.3566 0.9806
-0.2301 4.4302 -2.5612 0.9797
-0.3879 4.4049 -2.5530 0.9798
-0.8517 4.2964 -2.5288 0.9800
-1.1510 4.1981 -2.5132 0.9801
-1.5820 4.0136 -2.4908 0.9803
-1.7203 3.9427 -2.4836 0.9803
-1.9879 3.7876 -2.4696 0.9804
-2.1169 3.7035 -2.4629 0.9805
-2.7105 3.2243 -2.4320 0.9807
-2.8182 3.1176 -2.4264 0.9808
-2.9219 3.0076 -2.4210 0.9808
-3.2960 2.5372 -2.4015 0.9810
-3.3790 2.4128 -2.3971 0.9810
-3.6015 2.0251 -2.3856 0.9811
-3.6668 1.8917 -2.3822 0.9811
-3.7836 1.6192 -2.3761 0.9812
-3.8817 1.3403 -2.3710 0.9812
-3.9237 1.1988 -2.3688 0.9812
