ply
format ascii 1.0
element vertex 530
property float32 x
property float32 y
property float32 z
property float32 I
end_header
25.1072 18.3448 5.4829 0.8814
20.6509 18.7716 4.9208 0.8928
25.9080 25.2911 6.3841 0.8632
17.9653 18.8315 4.5892 0.8997
15.6075 18.8840 4.3198 0.9053
21.5633 28.0666 6.2408 0.8661
21.7022 30.4301 6.5904 0.8592
19.7680 29.9151 6.3225 0.8645
10.6792 18.9687 3.8383 0.9154
8.9472 18.9269 3.6914 0.9185
14.6923 34.1771 6.5596 0.8598
12.5015 35.9308 6.7081 0.8568
9.6176 41.4349 7.5003 0.8413
9.4091 48.2760 8.6725 0.8189
27.2161 18.4371 5.0360 0.8754
23.6495 18.6056 4.6098 0.8854
20.5868 18.7133 4.2620 0.8935
19.2590 18.8004 4.1231 0.8968
16.8404 18.9594 3.8848 0.9025
23.9954 36.3124 6.6677 0.8385
21.9310 38.9546 6.8484 0.8345
19.7628 38.2241 6.5921 0.8402
19.4644 41.1751 6.9771 0.8317
16.1474 41.5802 6.8333 0.8348
12.7467 41.3169 6.6239 0.8395
11.2586 41.7072 6.6180 0.8396
9.6902 41.7479 6.5656 0.8408
23.6697 18.6215 3.9218 0.8856
17.8090 18.6677 3.3597 0.9012
23.3029 41.3916 6.1855 0.8256
21.4248 41.4388 6.0748 0.8285
19.6106 41.4844 5.9753 0.8310
17.8529 41.5293 5.8865 0.8333
16.0214 41.2558 5.7632 0.8365
14.4549 41.5452 5.7282 0.8374
9.6471 41.5620 5.5561 0.8419
23.6760 18.6265 3.2348 0.8859
19.6028 41.4678 4.9253 0.8315
12.8156 41.5403 4.6681 0.8396
3.3171 38.5986 4.1601 0.8557
23.2383 41.2769 4.0099 0.8268
21.3604 41.3141 3.9371 0.8297
8.9012 18.8296 1.7631 0.9198
12.8292 41.5845 3.6840 0.8397
11.2366 41.6257 3.6498 0.8411
1.6411 10.3733 0.8891 0.9587
3.3126 38.5460 3.2750 0.8562
27.2726 18.4754 2.0427 0.8763
23.3743 41.5184 2.9545 0.8262
7.9625 18.5222 1.2502 0.9224
8.6835 18.3692 0.8012 0.9219
7.9372 18.4633 0.7924 0.9227
1.6326 10.3198 0.4120 0.9590
3.3102 38.5175 1.5244 0.8566
8.6820 18.3659 0.3432 0.9219
9.5212 41.0200 0.7113 0.8450
3.3114 38.5319 0.6533 0.8567
26.3792 17.8702 -0.1794 0.8803
26.8801 40.6779 -0.2745 0.8228
8.6804 18.3627 -0.1144 0.9220
1.6292 10.2981 -0.0587 0.9592
26.3718 17.8652 -0.8969 0.8803
26.3134 19.2261 -0.9176 0.8777
26.8207 40.5882 -1.3699 0.8231
8.6789 18.3594 -0.5718 0.9220
7.9007 18.3785 -0.5633 0.9231
2.4861 6.4019 -0.1934 0.9729
2.4665 10.6265 -0.3072 0.9573
1.6275 10.2873 -0.2933 0.9592
2.4257 19.8971 -0.5644 0.9229
2.3170 46.1690 -1.3017 0.8311
29.5250 17.0720 -1.7296 0.8723
26.2745 19.1977 -1.6503 0.8778
29.6651 23.3383 -1.9142 0.8597
29.7158 25.1403 -1.9740 0.8556
2.4912 3.2426 -0.2074 0.9838
2.4892 3.7669 -0.2290 0.9821
2.4879 4.0730 -0.2420 0.9811
2.4865 4.4166 -0.2570 0.9799
2.4829 5.2525 -0.2946 0.9770
2.4807 5.7707 -0.3186 0.9752
2.4710 8.0094 -0.4251 0.9670
2.4622 9.1212 -0.4791 0.9629
2.4543 10.5739 -0.5505 0.9575
-1.0443 49.6555 -2.5188 0.8196
-9.5188 39.8372 -2.0772 0.8487
-10.6264 38.3766 -2.0195 0.8526
2.4969 1.4438 -0.2115 0.9885
2.4953 1.8231 -0.2266 0.9877
2.4939 2.1098 -0.2395 0.9870
2.4923 2.4329 -0.2554 0.9861
2.4885 2.8017 -0.2748 0.9851
2.4852 3.4847 -0.3138 0.9830
2.4838 3.7588 -0.3303 0.9821
2.4823 4.0638 -0.3492 0.9811
2.4805 4.4060 -0.3707 0.9799
2.4785 4.7938 -0.3957 0.9786
2.4761 5.2380 -0.4248 0.9770
2.4734 5.7536 -0.4592 0.9752
2.4701 6.3606 -0.5003 0.9730
2.4612 7.9778 -0.6122 0.9671
2.4422 10.5216 -0.7920 0.9576
2.3810 19.5308 -1.4426 0.9241
-0.7271 34.5703 -2.5353 0.8705
-1.9090 33.6838 -2.4737 0.8734
-5.1165 31.0394 -2.3066 0.8815
-6.0821 30.1651 -2.2563 0.8839
2.4936 1.4418 -0.2765 0.9885
2.4917 1.8205 -0.2963 0.9877
2.4910 1.9596 -0.3043 0.9873
2.4884 2.4290 -0.3338 0.9861
2.4873 2.6072 -0.3459 0.9856
2.4802 3.4776 -0.4101 0.9830
2.4746 4.3954 -0.4843 0.9799
2.4694 5.2237 -0.5547 0.9770
2.4621 6.3401 -0.6530 0.9730
2.3592 19.3519 -1.8716 0.9247
1.2991 25.8860 -2.4883 0.9011
-0.5572 26.4947 -2.5442 0.8990
-2.3503 25.4188 -2.4507 0.9025
-3.1947 24.8645 -2.4067 0.9042
-4.0058 24.3007 -2.3645 0.9058
-6.2476 22.5628 -2.2477 0.9102
2.4896 1.5603 -0.3490 0.9882
2.4889 1.6861 -0.3571 0.9880
2.4843 2.4251 -0.4124 0.9861
2.4832 2.6028 -0.4273 0.9856
2.4797 2.7917 -0.4435 0.9851
2.4751 3.4706 -0.5064 0.9830
2.4732 3.7428 -0.5329 0.9821
2.4658 4.7693 -0.6378 0.9786
2.4587 5.7195 -0.7395 0.9752
2.4013 12.3209 -1.4911 0.9507
2.3377 19.1754 -2.2946 0.9251
1.8129 21.0955 -2.5151 0.9182
-0.4513 21.4599 -2.5497 0.9172
-1.9171 20.7332 -2.4733 0.9195
-3.9400 19.5410 -2.3679 0.9228
-4.5686 19.1202 -2.3351 0.9239
-5.1750 18.6892 -2.3035 0.9249
2.4854 1.6837 -0.4254 0.9879
2.4836 1.9539 -0.4478 0.9873
2.4815 2.2557 -0.4752 0.9865
2.4803 2.4212 -0.4911 0.9861
2.4753 2.7867 -0.5281 0.9851
2.4679 3.7347 -0.6343 0.9821
2.4655 4.0363 -0.6702 0.9811
2.4627 4.3744 -0.7113 0.9799
2.4558 5.1950 -0.8142 0.9771
2.4514 5.7025 -0.8795 0.9752
2.4322 7.8836 -1.1690 0.9672
2.4201 8.9653 -1.3158 0.9632
2.3874 12.2497 -1.7683 0.9508
1.6222 10.2542 -1.4710 0.9589
1.5104 17.5747 -2.4993 0.9312
0.2500 17.1741 -2.4336 0.9330
-0.3789 18.0177 -2.5535 0.9298
-1.6173 17.4916 -2.4889 0.9315
-2.2108 17.2064 -2.4580 0.9323
-2.7871 16.9078 -2.4280 0.9331
-3.3462 16.5963 -2.3988 0.9339
-3.8883 16.2729 -2.3706 0.9346
2.4828 1.5560 -0.4827 0.9882
2.4810 1.8127 -0.5062 0.9876
2.4800 1.9510 -0.5198 0.9873
2.4788 2.0971 -0.5349 0.9869
2.4776 2.2521 -0.5516 0.9865
2.4748 2.5941 -0.5906 0.9856
2.4626 3.7267 -0.7359 0.9821
2.4567 4.3638 -0.8250 0.9799
2.4532 4.7448 -0.8799 0.9786
2.4490 5.1806 -0.9440 0.9770
2.4225 7.8523 -1.3537 0.9672
2.4097 8.9266 -1.5232 0.9632
2.3943 10.3155 -1.7445 0.9580
2.3736 12.1788 -2.0441 0.9509
1.6217 10.2508 -1.7097 0.9588
1.8490 15.1662 -2.5170 0.9399
1.2931 15.0472 -2.4880 0.9406
0.7483 14.9116 -2.4596 0.9413
-0.8683 15.3207 -2.5280 0.9397
-1.3974 15.1134 -2.5004 0.9403
-3.3815 14.1519 -2.3970 0.9427
-3.8438 13.8817 -2.3729 0.9433
2.4802 1.4341 -0.5385 0.9884
2.4794 1.5538 -0.5500 0.9882
2.4751 2.0939 -0.6094 0.9869
2.4706 2.5897 -0.6728 0.9855
2.4644 2.9818 -0.7271 0.9844
2.4573 3.7186 -0.8378 0.9820
2.4543 4.0179 -0.8849 0.9810
2.4468 4.7325 -1.0014 0.9785
2.4367 5.6684 -1.1597 0.9752
2.4129 7.8211 -1.5384 0.9672
2.3825 10.2644 -1.9806 0.9580
2.3598 12.1082 -2.3187 0.9510
1.6211 10.2474 -1.9501 0.9587
1.6126 13.2274 -2.5046 0.9472
1.1295 13.1430 -2.4795 0.9477
0.1882 12.9291 -2.4304 0.9487
-1.6851 13.1152 -2.4854 0.9476
-2.1306 12.9251 -2.4622 0.9481
-2.5653 12.7229 -2.4395 0.9485
-2.9890 12.5094 -2.4175 0.9490
-3.4016 12.2848 -2.3960 0.9494
2.4749 1.6766 -0.6319 0.9879
2.4726 1.9452 -0.6650 0.9872
2.4713 2.0907 -0.6842 0.9869
2.4698 2.2450 -0.7055 0.9864
2.4682 2.4094 -0.7291 0.9860
2.4664 2.5853 -0.7553 0.9855
2.4549 3.4421 -0.8937 0.9829
2.4486 4.0086 -0.9929 0.9810
2.4448 4.3426 -1.0534 0.9798
2.4354 5.1518 -1.2045 0.9770
2.4294 5.6513 -1.3003 0.9752
2.4223 6.2376 -1.4144 0.9730
1.6206 10.2440 -2.1923 0.9585
1.0017 11.6554 -2.4728 0.9533
0.5812 11.5802 -2.4509 0.9537
0.1673 11.4915 -2.4293 0.9541
-0.6794 11.9867 -2.5378 0.9521
-1.0959 11.8527 -2.5161 0.9525
-1.9036 11.5483 -2.4740 0.9533
-2.2943 11.3788 -2.4537 0.9537
-2.6758 11.1985 -2.4338 0.9540
-3.0480 11.0078 -2.4144 0.9544
2.4735 1.4302 -0.6715 0.9883
2.4701 1.8048 -0.7190 0.9875
2.4688 1.9422 -0.7383 0.9872
2.4658 2.2414 -0.7832 0.9864
2.4641 2.4054 -0.8093 0.9860
2.4574 2.7666 -0.8697 0.9849
2.4465 3.7024 -1.0430 0.9819
2.4429 3.9993 -1.1014 0.9809
2.4388 4.3319 -1.1683 0.9798
2.4285 5.1373 -1.3355 0.9769
2.4220 5.6341 -1.4413 0.9751
2.4143 6.2170 -1.5675 0.9730
2.3936 7.7585 -1.9082 0.9672
2.3588 10.1625 -2.4519 0.9580
2.0576 10.5571 -2.5278 0.9568
1.6201 10.2408 -2.4368 0.9583
0.8990 10.4602 -2.4675 0.9578
0.1504 10.3317 -2.4285 0.9584
-0.6119 10.7958 -2.5413 0.9565
-1.7188 10.4270 -2.4837 0.9575
-2.0731 10.2822 -2.4652 0.9578
-2.4198 10.1271 -2.4471 0.9581
2.4678 1.6717 -0.7718 0.9878
2.4665 1.8021 -0.7909 0.9875
2.4651 1.9393 -0.8121 0.9871
2.4635 2.0841 -0.8355 0.9868
2.4600 2.4014 -0.8901 0.9859
2.4504 2.9648 -0.9959 0.9842
2.4476 3.1858 -1.0402 0.9835
2.4446 3.4277 -1.0901 0.9828
2.4372 3.9900 -1.2106 0.9809
2.4276 4.6953 -1.3686 0.9784
2.4216 5.1227 -1.4671 0.9769
2.4063 6.1963 -1.7211 0.9729
1.5083 9.5339 -2.4992 0.9609
0.8146 9.4779 -2.4631 0.9615
-0.2081 9.8943 -2.5624 0.9599
-0.8984 9.7161 -2.5264 0.9605
-1.5652 9.4952 -2.4917 0.9610
-2.2064 9.2343 -2.4582 0.9615
2.4666 1.4262 -0.8066 0.9882
2.4654 1.5451 -0.8237 0.9880
2.4641 1.6693 -0.8426 0.9877
2.4628 1.7994 -0.8635 0.9874
2.4612 1.9363 -0.8865 0.9871
2.4558 2.3973 -0.9716 0.9858
2.4536 2.5719 -1.0063 0.9853
2.4483 2.7563 -1.0437 0.9848
2.4427 3.1794 -1.1350 0.9835
2.4394 3.4204 -1.1893 0.9827
2.4356 3.6859 -1.2507 0.9818
2.4267 4.3103 -1.4003 0.9796
2.4072 5.5996 -1.7255 0.9750
2.3982 6.1756 -1.8755 0.9728
1.3757 8.6957 -2.4923 0.9641
1.0584 8.6811 -2.4758 0.9643
0.1248 8.5727 -2.4271 0.9650
-0.1904 9.0526 -2.5633 0.9631
-0.5090 8.9815 -2.5467 0.9633
-0.8229 8.9002 -2.5303 0.9635
-1.7335 8.5975 -2.4829 0.9642
-2.3121 8.3499 -2.4527 0.9646
2.4630 1.4242 -0.8751 0.9882
2.4618 1.5429 -0.8936 0.9879
2.4605 1.6668 -0.9141 0.9876
2.4493 2.5674 -1.0914 0.9853
2.4437 2.7511 -1.1318 0.9847
2.4377 3.1729 -1.2307 0.9834
2.4301 3.6776 -1.3558 0.9817
2.4256 3.9711 -1.4313 0.9807
2.4205 4.2994 -1.5176 0.9796
2.4077 5.0933 -1.7328 0.9767
2.3997 5.5821 -1.8689 0.9749
2.3644 7.6640 -2.4669 0.9670
1.2632 7.9846 -2.4864 0.9667
0.6838 7.9564 -2.4562 0.9671
0.1149 7.8885 -2.4266 0.9675
-0.4689 8.2733 -2.5488 0.9659
-0.7585 8.2026 -2.5337 0.9661
-1.0436 8.1225 -2.5188 0.9663
-1.3242 8.0333 -2.5042 0.9665
-1.6000 7.9353 -2.4898 0.9667
-2.1360 7.7139 -2.4619 0.9671
2.4582 1.5406 -0.9643 0.9878
2.4568 1.6643 -0.9864 0.9876
2.4552 1.7939 -1.0108 0.9873
2.4474 2.3891 -1.1369 0.9857
2.4449 2.5628 -1.1774 0.9852
2.4390 2.7459 -1.2208 0.9846
2.4360 2.9473 -1.2710 0.9840
2.4288 3.4056 -1.3905 0.9825
2.4143 4.2884 -1.6359 0.9795
2.4007 5.0785 -1.8672 0.9766
1.4362 7.3686 -2.4955 0.9689
1.1665 7.3733 -2.4814 0.9690
-0.1622 7.7141 -2.5648 0.9680
-0.4342 7.6608 -2.5506 0.9682
-0.9672 7.5277 -2.5228 0.9685
-1.4840 7.3604 -2.4959 0.9688
-1.7358 7.2646 -2.4828 0.9690
2.4560 1.4200 -1.0145 0.9880
2.4496 1.9271 -1.1146 0.9868
2.4311 2.9414 -1.3646 0.9839
2.4275 3.1596 -1.4249 0.9832
2.4235 3.3982 -1.4926 0.9824
2.4014 4.6446 -1.8698 0.9780
2.3936 5.0635 -2.0029 0.9765
2.3845 5.5469 -2.1591 0.9747
2.3737 6.1124 -2.3449 0.9725
2.0851 6.7584 -2.5293 0.9704
1.5826 6.8183 -2.5031 0.9707
1.3320 6.8344 -2.4900 0.9709
1.0824 6.8415 -2.4770 0.9710
0.3418 6.8102 -2.4384 0.9714
-0.1508 7.1721 -2.5654 0.9700
-0.4038 7.1254 -2.5522 0.9701
-0.6537 7.0702 -2.5392 0.9703
-1.6175 6.7694 -2.4889 0.9709
2.4523 1.4179 -1.0856 0.9879
2.4509 1.5360 -1.1084 0.9877
2.4476 1.7883 -1.1616 0.9871
2.4457 1.9240 -1.1925 0.9868
2.4436 2.0673 -1.2266 0.9864
2.4413 2.2191 -1.2643 0.9860
2.4388 2.3807 -1.3061 0.9855
2.4360 2.5534 -1.3524 0.9850
2.4295 2.7352 -1.4020 0.9845
2.4261 2.9354 -1.4594 0.9838
2.4223 3.1529 -1.5237 0.9831
2.4018 4.2661 -1.8761 0.9792
2.3947 4.6316 -1.9981 0.9779
2.3864 5.0483 -2.1399 0.9764
2.3768 5.5289 -2.3063 0.9745
2.1728 6.2448 -2.5338 0.9721
1.9399 6.2879 -2.5217 0.9722
1.7067 6.3223 -2.5096 0.9723
1.4735 6.3481 -2.4974 0.9725
1.2407 6.3655 -2.4853 0.9726
1.0085 6.3744 -2.4732 0.9727
0.7772 6.3750 -2.4611 0.9729
0.5472 6.3675 -2.4491 0.9730
0.3188 6.3519 -2.4372 0.9731
-0.1408 6.6941 -2.5659 0.9717
-0.3770 6.6528 -2.5536 0.9719
-1.0685 6.4820 -2.5175 0.9723
-1.2924 6.4100 -2.5059 0.9724
-1.7291 6.2446 -2.4831 0.9726
2.4487 1.4158 -1.1576 0.9878
2.4436 1.7854 -1.2386 0.9870
2.4416 1.9208 -1.2715 0.9867
2.4371 2.2152 -1.3479 0.9859
2.4344 2.3764 -1.3923 0.9854
2.4171 3.1461 -1.6237 0.9830
2.4018 3.9321 -1.8858 0.9803
2.3954 4.2547 -1.9983 0.9791
2.3879 4.6185 -2.1279 0.9778
2.3792 5.0330 -2.2784 0.9762
2.3690 5.5108 -2.4550 0.9744
2.0284 5.8299 -2.5263 0.9737
1.5943 5.9060 -2.5037 0.9739
1.3769 5.9320 -2.4924 0.9740
1.1597 5.9501 -2.4810 0.9741
0.7269 5.9628 -2.4585 0.9744
0.2984 5.9449 -2.4362 0.9746
0.0863 5.9247 -2.4251 0.9747
-0.5721 6.1880 -2.5434 0.9735
-0.7884 6.1364 -2.5321 0.9736
-1.4192 5.9394 -2.4993 0.9740
-1.6227 5.8602 -2.4887 0.9741
2.4396 1.7825 -1.3168 0.9869
2.4376 1.9176 -1.3517 0.9866
2.4352 2.0602 -1.3902 0.9862
2.4327 2.2113 -1.4328 0.9858
2.4197 2.7242 -1.5880 0.9842
2.4117 3.1391 -1.7252 0.9829
2.3810 4.6052 -2.2594 0.9776
2.1016 5.4117 -2.5301 0.9750
1.8998 5.4603 -2.5196 0.9751
1.4941 5.5347 -2.4985 0.9753
0.4805 5.5910 -2.4457 0.9758
0.0810 5.5633 -2.4248 0.9760
-0.1238 5.8883 -2.5668 0.9746
-0.5377 5.8153 -2.5452 0.9748
-0.7411 5.7683 -2.5346 0.9749
-0.9420 5.7146 -2.5241 0.9750
-1.1400 5.6543 -2.5138 0.9751
-1.5269 5.5143 -2.4937 0.9753
2.4411 1.4115 -1.3052 0.9876
2.4395 1.5288 -1.3326 0.9874
2.4376 1.6513 -1.3629 0.9871
2.4356 1.7796 -1.3963 0.9868
2.4334 1.9144 -1.4332 0.9864
2.4283 2.2073 -1.5190 0.9856
2.4254 2.3676 -1.5689 0.9852
2.4221 2.5389 -1.6242 0.9847
2.4147 2.7186 -1.6831 0.9841
2.4108 2.9169 -1.7516 0.9835
2.4014 3.3672 -1.9144 0.9819
2.3958 3.6256 -2.0116 0.9810
2.3895 3.9119 -2.1218 0.9800
2.3740 4.5917 -2.3927 0.9775
2.3479 4.9667 -2.5430 0.9761
2.1614 5.0278 -2.5332 0.9762
1.7845 5.1287 -2.5136 0.9763
1.5946 5.1685 -2.5037 0.9764
1.2132 5.2270 -2.4838 0.9766
0.8318 5.2577 -2.4640 0.9768
0.6416 5.2627 -2.4541 0.9769
0.2636 5.2525 -2.4344 0.9771
0.0763 5.2374 -2.4246 0.9772
-0.1166 5.5447 -2.5671 0.9759
-0.3125 5.5150 -2.5569 0.9759
-0.5066 5.4787 -2.5468 0.9760
-0.6984 5.4358 -2.5368 0.9761
-1.2590 5.2690 -2.5076 0.9764
-1.4402 5.2013 -2.4982 0.9765
2.4315 1.7765 -1.4771 0.9867
2.4266 2.0529 -1.5591 0.9859
2.4238 2.2032 -1.6067 0.9855
2.4174 2.5339 -1.7178 0.9845
2.4055 2.9105 -1.8522 0.9833
2.3898 3.6165 -2.1263 0.9809
2.3832 3.9015 -2.2426 0.9798
2.3756 4.2196 -2.3753 0.9787
2.3669 4.5780 -2.5280 0.9773
2.0343 4.7321 -2.5266 0.9773
1.8579 4.7840 -2.5174 0.9774
1.3227 4.8999 -2.4895 0.9776
1.1432 4.9253 -2.4802 0.9777
0.9636 4.9441 -2.4708 0.9778
0.6050 4.9623 -2.4521 0.9780
0.4264 4.9618 -2.4428 0.9781
0.0720 4.9419 -2.4244 0.9782
-0.2950 5.2062 -2.5578 0.9770
-0.4783 5.1730 -2.5483 0.9771
-0.8387 5.0881 -2.5295 0.9773
-1.0155 5.0366 -2.5203 0.9774
-1.1897 4.9793 -2.5112 0.9774
2.4333 1.4070 -1.4582 0.9874
2.4315 1.5238 -1.4886 0.9872
2.4295 1.6458 -1.5223 0.9869
2.4272 1.7735 -1.5595 0.9865
2.4248 1.9077 -1.6006 0.9862
2.4222 2.0492 -1.6459 0.9858
2.4193 2.1991 -1.6961 0.9854
2.4001 2.9040 -1.9545 0.9832
2.3953 3.1177 -2.0396 0.9824
2.3899 3.3510 -2.1352 0.9816
2.3688 4.2076 -2.5050 0.9785
2.0836 4.4076 -2.5292 0.9783
1.9189 4.4637 -2.5206 0.9783
1.7529 4.5137 -2.5120 0.9784
1.5856 4.5573 -2.5032 0.9785
1.4175 4.5947 -2.4945 0.9786
1.2487 4.6258 -2.4857 0.9786
1.0795 4.6508 -2.4769 0.9787
0.9101 4.6695 -2.4680 0.9788
0.7407 4.6821 -2.4592 0.9789
0.0681 4.6723 -2.4242 0.9792
-0.2791 4.9242 -2.5587 0.9780
-0.6241 4.8575 -2.5407 0.9782
-0.7938 4.8154 -2.5319 0.9782
-0.9613 4.7677 -2.5231 0.9783
-1.2891 4.6555 -2.5060 0.9785
2.4293 1.4046 -1.5369 0.9873
2.4274 1.5213 -1.5690 0.9870
2.4230 1.7703 -1.6436 0.9864
2.3993 2.7012 -1.9788 0.9837
2.3839 3.3426 -2.2487 0.9814
2.3775 3.5979 -2.3619 0.9805
2.3702 3.8803 -2.4904 0.9795
2.2744 4.0397 -2.5391 0.9791
1.9689 4.1650 -2.5232 0.9792
1.4992 4.3088 -2.4987 0.9794
1.1811 4.3753 -2.4822 0.9795
1.0213 4.3998 -2.4738 0.9796
0.7010 4.4312 -2.4571 0.9797
0.5411 4.4382 -2.4488 0.9798
-0.0986 4.6878 -2.5681 0.9788
-0.2644 4.6655 -2.5594 0.9789
-0.5915 4.6040 -2.5424 0.9791
2.4252 1.4023 -1.6174 0.9871
2.4232 1.5186 -1.6511 0.9869
2.4210 1.6400 -1.6883 0.9866
2.4160 1.9006 -1.7748 0.9859
2.4131 2.0414 -1.8249 0.9855
2.4099 2.1906 -1.8803 0.9851
2.3891 2.8906 -2.1652 0.9828
2.3712 3.5883 -2.4831 0.9803
2.2934 3.7546 -2.5401 0.9799
2.0088 3.8854 -2.5253 0.9800
1.8637 3.9425 -2.5177 0.9801
1.7171 3.9942 -2.5101 0.9801
1.5690 4.0403 -2.5024 0.9802
1.2698 4.1158 -2.4868 0.9803
0.9677 4.1691 -2.4710 0.9804
0.8162 4.1875 -2.4631 0.9805
0.0611 4.1977 -2.4238 0.9808
-0.0935 4.4475 -2.5683 0.9797
-0.5615 4.3703 -2.5440 0.9799
-0.7144 4.3339 -2.5360 0.9799
-0.8655 4.2924 -2.5281 0.9800
-1.1614 4.1943 -2.5127 0.9801
