ply
format ascii 1.0
element vertex 483
property float32 x
property float32 y
property float32 z
property float32 I
end_header
-34.4000 -17.2747 5.8970 0.8558
-34.4177 -17.2836 5.0153 0.8561
-34.4352 -17.2924 4.1378 0.8564
-34.4528 -17.3012 3.2636 0.8566
-34.4850 -17.3174 2.3929 0.8567
-34.5200 -17.3349 1.5231 0.8567
-34.5550 -17.3525 0.6532 0.8567
-44.5403 -4.7602 -0.2522 0.8360
-44.5206 -6.3812 -0.2532 0.8353
-44.4951 -8.0165 -0.2545 0.8346
-44.4636 -9.6699 -0.2562 0.8336
-41.5864 -17.2696 -0.2535 0.8352
-41.5472 -19.0289 -0.2573 0.8329
-41.3778 -22.6733 -0.2656 0.8280
-41.1721 -26.5680 -0.2759 0.8220
-26.0342 -30.2517 -0.2247 0.8524
-31.8776 -5.7432 -0.9121 0.8784
-31.7969 -6.9151 -0.9163 0.8779
-31.7008 -8.0957 -0.9213 0.8773
-31.1529 -12.9368 -0.9498 0.8737
-28.7420 -15.7494 -0.9229 0.8771
-28.3274 -18.2793 -0.9493 0.8738
-28.0590 -19.5671 -0.9632 0.8721
-27.7672 -20.8835 -0.9783 0.8702
-27.4512 -22.2320 -0.9947 0.8682
-27.1095 -23.6154 -1.0124 0.8660
-26.7404 -25.0372 -1.0315 0.8637
-25.9119 -28.0105 -1.0744 0.8584
-24.9069 -31.1352 -1.1227 0.8525
-24.3681 -32.8094 -1.1508 0.8491
-23.3583 -36.6804 -1.2245 0.8403
-24.9552 -2.6671 -1.2728 0.9044
-24.8998 -3.5689 -1.2757 0.9042
-24.8281 -4.4732 -1.2794 0.9039
-24.5137 -7.2066 -1.2958 0.9027
-23.8502 -10.9235 -1.3304 0.9003
-23.6379 -11.8703 -1.3414 0.8995
-23.4058 -12.8254 -1.3535 0.8986
-22.8798 -14.7641 -1.3809 0.8967
-22.5843 -15.7493 -1.3963 0.8956
-22.2661 -16.7462 -1.4129 0.8944
-21.9239 -17.7556 -1.4308 0.8932
-21.5570 -18.7785 -1.4499 0.8918
-18.7600 -25.2585 -1.5956 0.8816
-18.1797 -26.4066 -1.6259 0.8795
-15.4072 -31.1470 -1.7623 0.8701
-12.9096 -35.1809 -1.9005 0.8606
-8.6482 -40.9502 -2.1226 0.8457
-7.3940 -42.5039 -2.1879 0.8413
-20.3234 -3.6616 -1.5142 0.9205
-20.0195 -5.8854 -1.5300 0.9197
-19.7352 -7.3768 -1.5448 0.9190
-19.5677 -8.1259 -1.5535 0.9185
-19.3829 -8.8775 -1.5632 0.9180
-18.7208 -11.1498 -1.5977 0.9163
-17.5691 -14.2287 -1.6577 0.9133
-17.2293 -15.0087 -1.6754 0.9124
-16.4825 -16.5821 -1.7143 0.9105
-15.1824 -18.9790 -1.7821 0.9071
-14.6972 -19.7884 -1.8073 0.9059
-13.0710 -22.2498 -1.8921 0.9017
-12.4678 -23.0817 -1.9235 0.9001
-8.9289 -27.3273 -2.1079 0.8911
-8.1044 -28.1932 -2.1509 0.8890
-4.3500 -31.7062 -2.3465 0.8795
-17.3091 -1.8499 -1.6712 0.9324
-17.2587 -2.4737 -1.6739 0.9323
-17.1936 -3.0977 -1.6773 0.9322
-17.1138 -3.7219 -1.6814 0.9320
-17.0190 -4.3463 -1.6864 0.9318
-16.9092 -4.9710 -1.6921 0.9316
-16.3165 -7.4731 -1.7230 0.9304
-16.1289 -8.0995 -1.7327 0.9300
-15.9250 -8.7262 -1.7434 0.9296
-14.9399 -11.2363 -1.7947 0.9276
-14.6496 -11.8643 -1.8098 0.9270
-14.0131 -13.1206 -1.8430 0.9258
-12.9119 -15.0036 -1.9004 0.9235
-12.5036 -15.6303 -1.9217 0.9227
-12.0738 -16.2562 -1.9441 0.9219
-11.1470 -17.5046 -1.9923 0.9200
-10.1262 -18.7465 -2.0455 0.9179
-9.5787 -19.3642 -2.0741 0.9168
-9.0055 -19.9791 -2.1039 0.9157
-7.7788 -21.1986 -2.1679 0.9133
-6.4393 -22.4007 -2.2377 0.9106
-4.9798 -23.5800 -2.3137 0.9077
-4.2027 -24.1591 -2.3542 0.9062
-3.3929 -24.7298 -2.3964 0.9046
-14.9510 -2.1429 -1.7941 0.9410
-14.8905 -2.6827 -1.7973 0.9409
-14.8164 -3.2223 -1.8011 0.9408
-14.5113 -4.8382 -1.8170 0.9402
-14.3816 -5.3757 -1.8238 0.9400
-14.2378 -5.9125 -1.8313 0.9398
-14.0796 -6.4485 -1.8395 0.9395
-13.5170 -8.0505 -1.8688 0.9386
-13.2996 -8.5821 -1.8802 0.9382
-13.0668 -9.1122 -1.8923 0.9378
-12.8185 -9.6408 -1.9052 0.9374
-12.5544 -10.1674 -1.9190 0.9370
-12.2741 -10.6921 -1.9336 0.9365
-11.9775 -11.2146 -1.9491 0.9360
-11.6643 -11.7346 -1.9654 0.9355
-11.3341 -12.2520 -1.9826 0.9350
-10.9866 -12.7664 -2.0007 0.9344
-10.6214 -13.2775 -2.0197 0.9338
-10.2383 -13.7850 -2.0397 0.9332
-9.4169 -14.7878 -2.0825 0.9318
-7.5422 -16.7327 -2.1802 0.9287
-7.0230 -17.2034 -2.2073 0.9279
-6.4828 -17.6669 -2.2354 0.9270
-5.9212 -18.1223 -2.2647 0.9261
-5.3378 -18.5691 -2.2951 0.9251
-4.7322 -19.0064 -2.3266 0.9241
-2.7787 -20.2540 -2.4284 0.9209
-12.9733 -3.3131 -1.8972 0.9473
-12.5198 -5.1991 -1.9208 0.9467
-12.3740 -5.6674 -1.9284 0.9465
-12.0425 -6.5988 -1.9457 0.9460
-11.4442 -7.9807 -1.9769 0.9452
-11.2172 -8.4364 -1.9887 0.9449
-10.9761 -8.8893 -2.0013 0.9445
-10.7209 -9.3391 -2.0146 0.9442
-10.1670 -10.2284 -2.0434 0.9434
-9.5542 -11.1021 -2.0753 0.9425
-9.2253 -11.5322 -2.0925 0.9421
-8.8810 -11.9575 -2.1104 0.9416
-8.5212 -12.3774 -2.1292 0.9411
-8.1458 -12.7917 -2.1487 0.9406
-5.5527 -15.1322 -2.2839 0.9370
-3.4876 -16.5142 -2.3915 0.9341
-2.3510 -17.1359 -2.4507 0.9325
-11.7750 -1.6877 -1.9596 0.9529
-11.7229 -2.1121 -1.9623 0.9529
-11.3978 -3.8001 -1.9793 0.9525
-11.2869 -4.2190 -1.9851 0.9523
-11.0294 -5.0515 -1.9985 0.9520
-10.7235 -5.8760 -2.0144 0.9516
-10.5522 -6.2848 -2.0233 0.9514
-10.3687 -6.6909 -2.0329 0.9512
-9.9644 -7.4942 -2.0540 0.9507
-9.5097 -8.2840 -2.0777 0.9502
-9.2632 -8.6732 -2.0905 0.9499
-9.0038 -9.0582 -2.1040 0.9495
-8.7315 -9.4387 -2.1182 0.9492
-8.4461 -9.8144 -2.1331 0.9489
-7.8356 -10.5499 -2.1649 0.9481
-7.5104 -10.9090 -2.1819 0.9477
-6.0738 -12.2786 -2.2567 0.9460
-5.2732 -12.9171 -2.2984 0.9450
-4.4172 -13.5194 -2.3430 0.9440
-3.5060 -14.0811 -2.3905 0.9429
-3.0295 -14.3453 -2.4154 0.9423
-2.5394 -14.5975 -2.4409 0.9417
-2.0356 -14.8371 -2.4672 0.9411
-10.6710 -1.1404 -2.0172 0.9573
-10.6335 -1.5241 -2.0191 0.9572
-10.5259 -2.2892 -2.0247 0.9571
-10.4558 -2.6702 -2.0284 0.9570
-10.2829 -3.4284 -2.0374 0.9568
-10.0660 -4.1801 -2.0487 0.9566
-9.9411 -4.5531 -2.0552 0.9565
-9.4994 -5.6577 -2.0782 0.9560
-9.3298 -6.0204 -2.0870 0.9558
-9.1491 -6.3798 -2.0965 0.9556
-8.7530 -7.0888 -2.1171 0.9552
-8.3114 -7.7820 -2.1401 0.9547
-8.0734 -8.1221 -2.1525 0.9545
-7.8237 -8.4573 -2.1655 0.9542
-7.5624 -8.7876 -2.1791 0.9539
-7.2895 -9.1124 -2.1934 0.9536
-7.0048 -9.4314 -2.2082 0.9533
-6.7085 -9.7444 -2.2236 0.9530
-5.7489 -10.6429 -2.2736 0.9520
-5.4055 -10.9277 -2.2915 0.9516
-5.0504 -11.2044 -2.3100 0.9512
-4.6835 -11.4726 -2.3292 0.9508
-3.9148 -11.9815 -2.3692 0.9500
-3.5131 -12.2213 -2.3902 0.9496
-2.6755 -12.6690 -2.4338 0.9487
-9.7215 -1.0390 -2.0666 0.9608
-9.6865 -1.3884 -2.0685 0.9608
-9.6414 -1.7371 -2.0708 0.9607
-9.5861 -2.0848 -2.0737 0.9607
-9.4452 -2.7767 -2.0810 0.9605
-9.2637 -3.4627 -2.0905 0.9604
-9.0413 -4.1410 -2.1021 0.9602
-8.7780 -4.8100 -2.1158 0.9599
-8.4735 -5.4679 -2.1317 0.9596
-8.3057 -5.7921 -2.1404 0.9594
-8.1277 -6.1128 -2.1497 0.9593
-7.9391 -6.4297 -2.1595 0.9591
-7.0812 -7.6547 -2.2042 0.9583
-6.8407 -7.9488 -2.2168 0.9580
-6.5896 -8.2375 -2.2298 0.9578
-6.0564 -8.7972 -2.2576 0.9573
-5.1788 -9.5875 -2.3034 0.9564
-4.8656 -9.8363 -2.3197 0.9561
-4.5423 -10.0772 -2.3365 0.9558
-4.2088 -10.3099 -2.3539 0.9555
-3.8653 -10.5337 -2.3718 0.9552
-3.5119 -10.7485 -2.3902 0.9548
-3.1487 -10.9536 -2.4091 0.9545
-2.0018 -11.5072 -2.4689 0.9534
-1.6010 -11.6695 -2.4898 0.9530
-8.9202 -0.9533 -2.1084 0.9638
-8.8874 -1.2738 -2.1101 0.9638
-8.5816 -2.8612 -2.1260 0.9635
-8.4920 -3.1743 -2.1307 0.9634
-8.3929 -3.4854 -2.1359 0.9633
-8.1663 -4.1009 -2.1477 0.9631
-7.4331 -5.5904 -2.1859 0.9625
-6.6752 -6.7155 -2.2254 0.9618
-6.4621 -6.9854 -2.2365 0.9617
-6.0074 -7.5096 -2.2602 0.9613
-5.7660 -7.7633 -2.2728 0.9610
-4.9859 -8.4872 -2.3134 0.9604
-4.7075 -8.7149 -2.3279 0.9601
-4.1235 -9.1481 -2.3583 0.9596
-2.8502 -9.9154 -2.4247 0.9585
-1.4447 -10.5299 -2.4979 0.9573
-8.2035 -1.1758 -2.1457 0.9663
-8.1638 -1.4709 -2.1478 0.9663
-8.1154 -1.7649 -2.1503 0.9663
-8.0580 -2.0579 -2.1533 0.9662
-7.9166 -2.6395 -2.1607 0.9661
-7.7398 -3.2141 -2.1699 0.9660
-7.1428 -4.6092 -2.2010 0.9655
-6.9969 -4.8793 -2.2086 0.9654
-6.5064 -5.6678 -2.2342 0.9650
-6.3254 -5.9225 -2.2436 0.9648
-6.1357 -6.1728 -2.2535 0.9647
-5.9374 -6.4183 -2.2638 0.9645
-5.2909 -7.1237 -2.2975 0.9640
-3.4907 -8.5508 -2.3913 0.9626
-2.6011 -9.0485 -2.4377 0.9618
-1.6465 -9.4649 -2.4874 0.9611
-7.6398 -0.8165 -2.1751 0.9686
-7.6109 -1.0909 -2.1766 0.9685
-7.5736 -1.3645 -2.1786 0.9685
-7.5280 -1.6372 -2.1809 0.9685
-7.4117 -2.1789 -2.1870 0.9684
-7.3411 -2.4476 -2.1907 0.9683
-7.2621 -2.7145 -2.1948 0.9683
-7.1749 -2.9795 -2.1993 0.9682
-7.0793 -3.2424 -2.2043 0.9681
-6.9755 -3.5029 -2.2097 0.9681
-6.7431 -4.0161 -2.2218 0.9679
-6.4777 -4.5173 -2.2357 0.9677
-6.3328 -4.7629 -2.2432 0.9676
-5.8492 -5.4767 -2.2684 0.9672
-5.6720 -5.7062 -2.2777 0.9671
-5.2935 -6.1511 -2.2974 0.9668
-5.0925 -6.3660 -2.3078 0.9667
-4.6672 -6.7793 -2.3300 0.9664
-4.4431 -6.9772 -2.3417 0.9662
-3.7261 -7.5326 -2.3791 0.9657
-3.4725 -7.7040 -2.3923 0.9655
-3.2120 -7.8681 -2.4058 0.9653
-2.9446 -8.0245 -2.4198 0.9651
-2.6704 -8.1729 -2.4341 0.9649
-2.3897 -8.3132 -2.4487 0.9647
-2.1026 -8.4448 -2.4637 0.9645
-1.8094 -8.5677 -2.4789 0.9643
-1.5102 -8.6813 -2.4945 0.9640
-7.0568 -1.2714 -2.2055 0.9704
-7.0138 -1.5254 -2.2077 0.9704
-6.9629 -1.7782 -2.2104 0.9704
-6.9041 -2.0297 -2.2134 0.9703
-6.8376 -2.2797 -2.2169 0.9703
-6.5910 -3.0187 -2.2298 0.9701
-6.3877 -3.5002 -2.2404 0.9700
-6.2745 -3.7370 -2.2463 0.9699
-5.7450 -4.6527 -2.2738 0.9695
-5.5936 -4.8727 -2.2817 0.9694
-5.4349 -5.0887 -2.2900 0.9693
-4.9140 -5.7102 -2.3171 0.9690
-4.7259 -5.9077 -2.3270 0.9688
-4.5306 -6.1001 -2.3371 0.9687
-4.3282 -6.2869 -2.3477 0.9686
-3.9027 -6.6433 -2.3699 0.9683
-2.4685 -7.5548 -2.4446 0.9673
-2.2079 -7.6810 -2.4582 0.9671
-1.1116 -8.1019 -2.5153 0.9664
-6.6593 -0.7117 -2.2262 0.9722
-6.6335 -0.9508 -2.2275 0.9721
-6.6003 -1.1891 -2.2293 0.9721
-6.5596 -1.4266 -2.2314 0.9721
-6.5115 -1.6629 -2.2339 0.9721
-6.3930 -2.1315 -2.2401 0.9720
-6.0679 -3.0471 -2.2570 0.9718
-5.9683 -3.2704 -2.2622 0.9717
-5.8615 -3.4910 -2.2678 0.9717
-5.6262 -3.9235 -2.2800 0.9715
-5.2200 -4.5472 -2.3012 0.9712
-5.0706 -4.7477 -2.3090 0.9711
-4.7510 -5.1359 -2.3256 0.9709
-4.5811 -5.3232 -2.3345 0.9708
-4.0313 -5.8557 -2.3631 0.9705
-3.8352 -6.0225 -2.3734 0.9704
-3.6327 -6.1837 -2.3839 0.9702
-3.4239 -6.3388 -2.3948 0.9701
-3.2093 -6.4878 -2.4060 0.9700
-2.7621 -6.7661 -2.4293 0.9697
-2.5301 -6.8950 -2.4414 0.9695
-2.0499 -7.1311 -2.4664 0.9692
-1.5493 -7.3365 -2.4925 0.9689
-1.2920 -7.4271 -2.5059 0.9687
-6.2494 -0.6679 -2.2476 0.9737
-6.2249 -0.8922 -2.2488 0.9736
-6.1549 -1.3386 -2.2525 0.9736
-6.1093 -1.5602 -2.2549 0.9736
-6.0568 -1.7806 -2.2576 0.9735
-5.9972 -1.9995 -2.2607 0.9735
-5.9306 -2.2168 -2.2642 0.9735
-5.8572 -2.4323 -2.2680 0.9734
-5.7768 -2.6458 -2.2722 0.9734
-5.6895 -2.8571 -2.2767 0.9733
-5.5953 -3.0660 -2.2816 0.9733
-5.3866 -3.4759 -2.2925 0.9731
-5.1509 -3.8739 -2.3048 0.9730
-4.8886 -4.2585 -2.3185 0.9728
-4.7476 -4.4453 -2.3258 0.9727
-4.6002 -4.6280 -2.3335 0.9727
-4.4464 -4.8065 -2.3415 0.9726
-4.2863 -4.9807 -2.3499 0.9725
-4.1199 -5.1502 -2.3585 0.9724
-3.9474 -5.3149 -2.3675 0.9723
-3.5845 -5.6289 -2.3864 0.9720
-3.1983 -5.9210 -2.4066 0.9718
-1.9110 -6.6480 -2.4736 0.9710
-1.4434 -6.8346 -2.4980 0.9708
-5.8583 -0.8397 -2.2679 0.9750
-5.6987 -1.6753 -2.2763 0.9749
-5.6422 -1.8812 -2.2792 0.9748
-5.2613 -2.8830 -2.2991 0.9746
-4.8404 -3.6404 -2.3210 0.9744
-4.7194 -3.8221 -2.3273 0.9743
-4.3196 -4.3457 -2.3481 0.9741
-4.1743 -4.5124 -2.3557 0.9740
-3.8662 -4.8329 -2.3718 0.9738
-3.3612 -5.2784 -2.3981 0.9736
-3.1820 -5.4166 -2.4074 0.9734
-2.9975 -5.5493 -2.4170 0.9733
-2.6133 -5.7977 -2.4370 0.9731
-2.4138 -5.9128 -2.4474 0.9730
-1.5707 -6.3086 -2.4914 0.9725
-1.3495 -6.3903 -2.5029 0.9724
-1.1246 -6.4648 -2.5146 0.9723
-5.4638 -1.1883 -2.2885 0.9761
-5.4228 -1.3849 -2.2906 0.9761
-5.3754 -1.5803 -2.2931 0.9761
-5.3217 -1.7743 -2.2959 0.9760
-5.1955 -2.1576 -2.3025 0.9760
-5.1232 -2.3465 -2.3063 0.9759
-5.0446 -2.5333 -2.3103 0.9759
-4.7723 -3.0795 -2.3245 0.9758
-4.4460 -3.6007 -2.3415 0.9756
-4.3255 -3.7680 -2.3478 0.9755
-3.9297 -4.2480 -2.3684 0.9753
-3.6381 -4.5479 -2.3836 0.9751
-3.4842 -4.6912 -2.3917 0.9751
-2.9917 -5.0926 -2.4173 0.9748
-2.8176 -5.2162 -2.4264 0.9747
-2.6387 -5.3343 -2.4357 0.9746
-2.4552 -5.4469 -2.4453 0.9745
-2.2671 -5.5537 -2.4551 0.9744
-1.8784 -5.7490 -2.4753 0.9742
-1.2658 -5.9939 -2.5073 0.9739
-1.0545 -6.0620 -2.5183 0.9738
-5.2471 -0.5608 -2.2998 0.9772
-5.1990 -0.9367 -2.3023 0.9772
-5.1659 -1.1235 -2.3040 0.9772
-5.1268 -1.3093 -2.3061 0.9772
-5.0306 -1.6773 -2.3111 0.9771
-4.5082 -2.9091 -2.3383 0.9769
-3.8388 -3.8620 -2.3732 0.9765
-3.7084 -4.0087 -2.3800 0.9765
-3.5727 -4.1515 -2.3870 0.9764
-2.8199 -4.8002 -2.4263 0.9760
-2.1351 -5.2300 -2.4620 0.9757
-4.9712 -0.5313 -2.3142 0.9782
-4.9511 -0.7096 -2.3152 0.9782
-4.8565 -1.2403 -2.3201 0.9781
-4.7648 -1.5886 -2.3249 0.9781
-4.6505 -1.9312 -2.3309 0.9780
-4.5138 -2.2667 -2.3380 0.9780
-4.1744 -2.9110 -2.3557 0.9778
-3.9725 -3.2172 -2.3662 0.9777
-3.8637 -3.3657 -2.3719 0.9777
-3.6308 -3.6528 -2.3840 0.9776
-3.3780 -3.9254 -2.3972 0.9774
-3.1061 -4.1821 -2.4114 0.9773
-2.9632 -4.3041 -2.4188 0.9772
-2.5078 -4.6428 -2.4425 0.9770
-1.8436 -5.0240 -2.4772 0.9767
-1.4895 -5.1816 -2.4956 0.9765
-0.7442 -5.4245 -2.5344 0.9762
-4.7178 -0.5042 -2.3274 0.9791
-4.6987 -0.6735 -2.3284 0.9791
-4.6084 -1.1769 -2.3331 0.9790
-4.5209 -1.5073 -2.3376 0.9790
-4.3493 -1.9921 -2.3466 0.9789
-4.0466 -2.6112 -2.3624 0.9788
-3.9580 -2.7602 -2.3670 0.9787
-3.3226 -3.5917 -2.4001 0.9784
-3.2001 -3.7185 -2.4065 0.9784
-3.0730 -3.8415 -2.4131 0.9783
-2.9415 -3.9605 -2.4199 0.9783
-2.8057 -4.0754 -2.4270 0.9782
-2.6657 -4.1860 -2.4343 0.9781
-2.5215 -4.2922 -2.4418 0.9781
-2.3733 -4.3937 -2.4495 0.9780
-2.2213 -4.4905 -2.4575 0.9779
-1.9061 -4.6693 -2.4739 0.9778
-1.5772 -4.8272 -2.4910 0.9776
-1.4079 -4.8980 -2.4999 0.9776
-1.0607 -5.0224 -2.5180 0.9774
-0.8830 -5.0759 -2.5272 0.9773
-0.7029 -5.1232 -2.5366 0.9772
-4.4842 -0.4793 -2.3395 0.9799
-4.4659 -0.6401 -2.3405 0.9799
-4.4424 -0.8004 -2.3417 0.9799
-4.3796 -1.1185 -2.3450 0.9798
-4.2961 -1.4324 -2.3494 0.9798
-4.2466 -1.5873 -2.3519 0.9798
-4.1920 -1.7408 -2.3548 0.9798
-3.7588 -2.6213 -2.3773 0.9796
-3.6695 -2.7598 -2.3820 0.9795
-3.5755 -2.8957 -2.3869 0.9795
-3.4767 -3.0286 -2.3920 0.9794
-3.3734 -3.1586 -2.3974 0.9794
-3.1532 -3.4086 -2.4089 0.9793
-3.0365 -3.5284 -2.4150 0.9792
-2.7904 -3.7570 -2.4278 0.9791
-2.5279 -3.9697 -2.4415 0.9790
-1.9575 -4.3428 -2.4712 0.9788
-1.8061 -4.4243 -2.4791 0.9787
-1.6516 -4.5008 -2.4872 0.9786
-1.1700 -4.6992 -2.5123 0.9784
-1.0040 -4.7545 -2.5209 0.9783
-4.2678 -0.4561 -2.3508 0.9806
-4.2504 -0.6092 -2.3517 0.9806
-4.1679 -1.0644 -2.3560 0.9806
-4.0407 -1.5104 -2.3627 0.9805
-3.9314 -1.8006 -2.3684 0.9805
-3.8695 -1.9432 -2.3716 0.9804
-3.8029 -2.0838 -2.3751 0.9804
-3.7315 -2.2224 -2.3788 0.9804
-3.6554 -2.3588 -2.3827 0.9804
-3.1039 -3.1227 -2.4115 0.9801
-2.9968 -3.2395 -2.4171 0.9801
-2.8855 -3.3530 -2.4229 0.9800
-2.7702 -3.4629 -2.4289 0.9800
-2.5278 -3.6717 -2.4415 0.9799
-2.4009 -3.7702 -2.4481 0.9798
-2.1362 -3.9549 -2.4619 0.9797
-1.5671 -4.2707 -2.4916 0.9795
-1.2647 -4.3997 -2.5073 0.9793
-1.1096 -4.4566 -2.5154 0.9793
-0.7923 -4.5545 -2.5319 0.9791
-4.0667 -0.4346 -2.3613 0.9813
-3.8946 -1.2985 -2.3703 0.9812
-3.7448 -1.7152 -2.3781 0.9812
-3.6857 -1.8508 -2.3812 0.9811
-3.6219 -1.9847 -2.3845 0.9811
-3.4809 -2.2462 -2.3918 0.9810
-3.4038 -2.3737 -2.3958 0.9810
-3.3223 -2.4987 -2.4001 0.9810
-3.2365 -2.6212 -2.4046 0.9809
-2.7456 -3.1904 -2.4301 0.9807
-2.6355 -3.2946 -2.4359 0.9807
-2.5218 -3.3953 -2.4418 0.9807
-2.4043 -3.4924 -2.4479 0.9806
-2.2833 -3.5856 -2.4542 0.9806
-2.1588 -3.6749 -2.4607 0.9805
-2.0311 -3.7602 -2.4674 0.9805
-1.9001 -3.8412 -2.4742 0.9804
-1.7660 -3.9179 -2.4812 0.9803
-1.4890 -4.0580 -2.4956 0.9802
-0.9041 -4.2810 -2.5261 0.9800
-0.7522 -4.3241 -2.5340 0.9799
