ply
format ascii 1.0
element vertex 653
property float32 x
property float32 y
property float32 z
property float32 I
end_header
0.7359 -17.7902 3.1396 0.9302
8.4795 -45.7808 8.2097 0.8277
10.6301 -40.9394 7.4581 0.8421
8.0666 -21.4055 4.0335 0.9113
7.9853 -17.3525 3.3681 0.9253
8.1351 -16.1454 3.1878 0.9292
8.1762 -13.7133 2.8152 0.9372
8.2094 -11.7825 2.5321 0.9433
8.5185 -11.3465 2.5018 0.9440
9.1780 -11.3628 2.5755 0.9424
9.8785 -11.3801 2.6572 0.9406
11.4270 -11.4182 2.8484 0.9365
7.4137 -4.0637 1.4907 0.9662
3.1057 -1.2950 0.5933 0.9864
3.2232 -1.2118 0.6072 0.9861
7.2102 -48.4628 7.5059 0.8201
7.6745 -25.7653 4.1185 0.8969
7.9287 -23.5357 3.8046 0.9044
8.1574 -13.6818 2.4402 0.9376
10.6263 -11.3989 2.3873 0.9389
11.4275 -11.4187 2.4748 0.9367
12.2907 -11.4399 2.5723 0.9343
13.2259 -11.4630 2.6812 0.9316
14.3448 -10.7521 2.7463 0.9300
3.1035 -1.4253 0.5232 0.9863
3.1019 -1.2935 0.5149 0.9865
7.6273 -2.5629 1.2326 0.9680
3.1775 -41.2965 5.3936 0.8461
7.2022 -48.4095 6.3733 0.8208
7.8645 -35.4030 4.7226 0.8639
7.2653 -24.3917 3.3142 0.9024
7.9526 -23.6066 3.2438 0.9044
7.9968 -21.2202 2.9530 0.9126
8.2247 -17.8728 2.5620 0.9237
8.0931 -16.0620 2.3421 0.9300
8.0462 -14.6522 2.1768 0.9348
8.1757 -11.7342 1.8624 0.9439
8.5191 -11.3474 1.8478 0.9444
9.1788 -11.3637 1.9022 0.9428
10.6268 -11.3994 2.0294 0.9391
11.4280 -11.4192 2.1038 0.9369
12.2912 -11.4404 2.1866 0.9345
13.2265 -11.4635 2.2792 0.9318
3.2181 -1.2099 0.4477 0.9862
7.4996 -33.7604 3.7136 0.8701
7.6955 -25.8358 2.8947 0.8972
7.9711 -21.1520 2.4273 0.9131
7.9565 -19.0393 2.2158 0.9203
8.0435 -17.4791 2.0661 0.9255
8.1890 -12.6896 1.6217 0.9411
8.1591 -11.7104 1.5326 0.9442
8.5195 -11.3478 1.5237 0.9445
9.9513 -11.4639 1.6301 0.9408
10.6272 -11.3999 1.6735 0.9392
12.3808 -11.5238 1.8163 0.9342
13.2271 -11.4640 1.8796 0.9320
7.3909 -3.7169 0.8883 0.9673
3.0927 -1.4204 0.3654 0.9864
3.2156 -1.2090 0.3689 0.9863
1.3735 -17.8500 1.5155 0.9307
7.3604 -39.7390 3.4212 0.8502
8.7622 -33.7462 2.9514 0.8694
7.6968 -25.8402 2.2824 0.8974
7.9781 -21.1706 1.9152 0.9132
8.0340 -19.2248 1.7638 0.9198
8.0217 -17.4316 1.6244 0.9259
8.1117 -14.7714 1.4266 0.9346
8.1716 -12.6627 1.2758 0.9413
8.1427 -11.6867 1.2058 0.9444
11.4290 -11.4201 1.3677 0.9372
12.3814 -11.5244 1.4319 0.9344
7.3736 -4.0418 0.7118 0.9668
7.3812 -3.7120 0.6994 0.9674
3.0874 -1.4179 0.2876 0.9865
3.2131 -1.2080 0.2906 0.9863
7.6399 -2.5672 0.6823 0.9682
1.3697 -17.8011 1.1071 0.9309
7.5148 -25.2293 1.6324 0.8999
7.8694 -23.3595 1.5285 0.9059
8.0106 -19.1688 1.2883 0.9201
8.0925 -14.7365 1.0425 0.9348
8.0843 -13.5592 0.9789 0.9387
8.1263 -11.6634 0.8815 0.9446
8.5201 -11.3487 0.8800 0.9447
9.9270 -11.4358 0.9390 0.9411
10.6281 -11.4008 0.9665 0.9394
11.4295 -11.4206 1.0019 0.9373
12.3819 -11.5249 1.0489 0.9345
7.3715 -3.7071 0.5117 0.9675
7.6441 -2.5686 0.5000 0.9682
1.3683 -17.7822 0.7032 0.9311
6.8383 -26.3364 1.0729 0.8968
7.8422 -23.2788 0.9686 0.9063
7.9404 -19.0008 0.8120 0.9209
8.0117 -15.9004 0.7021 0.9312
8.0407 -14.6422 0.6587 0.9353
8.0894 -12.5352 0.5883 0.9420
8.1101 -11.6401 0.5594 0.9448
9.1802 -11.3654 0.5761 0.9432
9.8809 -11.3828 0.5943 0.9414
10.6285 -11.4013 0.6146 0.9395
11.4299 -11.4211 0.6371 0.9374
12.2934 -11.4425 0.6622 0.9350
13.2290 -11.4656 0.6903 0.9323
7.3540 -4.0310 0.3307 0.9670
7.3619 -3.7023 0.3249 0.9676
3.0837 -1.2859 0.1317 0.9867
3.2082 -1.2062 0.1351 0.9864
7.6483 -2.5700 0.3181 0.9682
7.1261 -47.8976 0.8180 0.8239
7.4551 -40.2504 0.6915 0.8489
7.5556 -34.0127 0.5885 0.8699
7.9175 -18.9460 0.3469 0.9211
7.9917 -15.8607 0.3000 0.9314
7.8731 -14.3369 0.2763 0.9367
7.7681 -13.0288 0.2562 0.9411
7.6800 -11.9008 0.2392 0.9449
7.9186 -11.3652 0.2340 0.9461
8.5207 -11.3495 0.2397 0.9448
10.6289 -11.4017 0.2633 0.9395
12.2940 -11.4430 0.2837 0.9350
13.2296 -11.4661 0.2957 0.9324
3.0716 -1.4106 0.0571 0.9866
3.0802 -1.2844 0.0564 0.9867
7.6525 -2.5714 0.1364 0.9682
1.3655 -17.7466 -0.1002 0.9313
7.5186 -25.2421 -0.1483 0.9000
7.7885 -23.1195 -0.1374 0.9070
7.8948 -18.8916 -0.1153 0.9214
7.9361 -17.2456 -0.1069 0.9269
7.8055 -13.0915 -0.0858 0.9409
8.5211 -11.3499 -0.0799 0.9448
9.1809 -11.3663 -0.0823 0.9432
11.4309 -11.4221 -0.0910 0.9374
12.2945 -11.4435 -0.0946 0.9350
13.2302 -11.4667 -0.0986 0.9324
3.0766 -1.2829 -0.0188 0.9868
7.3659 -2.7693 -0.0443 0.9690
7.4905 -33.7197 -0.9726 0.8709
7.5199 -25.2464 -0.7418 0.9000
2.5195 -6.6856 -0.2012 0.9718
3.7500 -8.1491 -0.2526 0.9647
7.9521 -15.7821 -0.4976 0.9317
7.9846 -14.5400 -0.4671 0.9358
8.0133 -13.4401 -0.4406 0.9393
8.0865 -12.5308 -0.4199 0.9421
9.8387 -11.3342 -0.4226 0.9417
12.2950 -11.4440 -0.4730 0.9350
13.2308 -11.4672 -0.4930 0.9323
7.3249 -4.0151 -0.2352 0.9671
7.3333 -3.6879 -0.2311 0.9677
3.0613 -1.4059 -0.0949 0.9866
7.3567 -2.7659 -0.2213 0.9690
-4.6131 -45.7677 -2.3328 0.8317
-3.0898 -47.4644 -2.4122 0.8265
0.2830 -48.0206 -2.4354 0.8250
2.0603 -49.8050 -2.5280 0.8190
5.4884 -36.8900 -1.8914 0.8612
7.2868 -39.3417 -2.0291 0.8519
5.9398 -26.7390 -1.3891 0.8961
6.6296 -25.5327 -1.3378 0.8997
2.5101 -7.4509 -0.3987 0.9690
2.5139 -3.8954 -0.2351 0.9816
2.5144 -3.3491 -0.2124 0.9834
2.5146 -3.1131 -0.2029 0.9841
9.5621 -8.2875 -0.6417 0.9506
11.1044 -8.3234 -0.7038 0.9459
11.9955 -8.3440 -0.7410 0.9432
7.3153 -4.0098 -0.4231 0.9671
7.3238 -3.6831 -0.4157 0.9677
3.0561 -1.4035 -0.1705 0.9866
7.3476 -2.7624 -0.3981 0.9690
7.6651 -2.5756 -0.4101 0.9681
-2.1791 -33.4752 -2.4597 0.8741
-1.0158 -34.3578 -2.5203 0.8712
4.0176 -35.6431 -2.6300 0.8660
6.2071 -23.9055 -1.8109 0.9057
6.1849 -20.7645 -1.5886 0.9168
2.5025 -6.6407 -0.5203 0.9719
2.5040 -5.9919 -0.4762 0.9743
2.5062 -4.9739 -0.4084 0.9779
2.5071 -4.5653 -0.3819 0.9793
2.5084 -3.8869 -0.3392 0.9816
2.5089 -3.6009 -0.3218 0.9826
2.5094 -3.3424 -0.3065 0.9834
2.5097 -3.1072 -0.2929 0.9841
2.5101 -2.8916 -0.2808 0.9848
2.5038 -2.5019 -0.2595 0.9859
2.5039 -2.1701 -0.2429 0.9868
2.5039 -2.0193 -0.2358 0.9872
2.5038 -1.7417 -0.2236 0.9878
2.5037 -1.4902 -0.2136 0.9884
2.5035 -1.1497 -0.2020 0.9890
2.5033 -0.9412 -0.1961 0.9893
2.5032 -0.8412 -0.1936 0.9895
1.3641 -17.7281 -1.7070 0.9310
4.0324 -27.1039 -2.6307 0.8957
6.1675 -23.7531 -2.3560 0.9061
2.4941 -6.6183 -0.6790 0.9720
2.4962 -5.9734 -0.6215 0.9743
2.4996 -4.9607 -0.5333 0.9779
2.5008 -4.5540 -0.4988 0.9793
2.5019 -4.1962 -0.4690 0.9806
2.5055 -2.8863 -0.3669 0.9848
2.4995 -2.6812 -0.3519 0.9854
2.4997 -2.4978 -0.3393 0.9859
2.4999 -2.3269 -0.3279 0.9864
2.5002 -2.0163 -0.3084 0.9872
2.5003 -1.7392 -0.2924 0.9878
2.5004 -1.6108 -0.2855 0.9881
2.5004 -1.3706 -0.2737 0.9886
2.5004 -1.2575 -0.2687 0.9888
2.5003 -1.0426 -0.2601 0.9892
2.5002 -0.8401 -0.2532 0.9895
-0.6319 -21.3761 -2.5403 0.9175
1.3646 -17.7343 -2.1128 0.9309
5.7560 -22.1680 -2.7206 0.9119
2.4822 -7.3681 -0.9236 0.9692
2.4857 -6.5961 -0.8373 0.9720
2.4886 -5.9550 -0.7667 0.9743
2.4910 -5.4130 -0.7078 0.9763
2.4929 -4.9476 -0.6581 0.9779
2.4961 -4.1865 -0.5790 0.9806
2.4985 -3.5859 -0.5192 0.9825
2.4953 -2.6767 -0.4347 0.9854
2.4962 -2.1635 -0.3924 0.9868
2.4964 -2.0133 -0.3810 0.9872
2.4968 -1.7368 -0.3613 0.9878
2.4971 -0.8391 -0.3129 0.9894
-0.5309 -17.9579 -2.5456 0.9300
0.1010 -17.1208 -2.4259 0.9332
0.7170 -17.3329 -2.4580 0.9323
1.3487 -17.5282 -2.4909 0.9314
2.6579 -17.8649 -2.5591 0.9296
4.0259 -18.1229 -2.6304 0.9277
4.7308 -18.2197 -2.6671 0.9268
2.4675 -8.2842 -1.2247 0.9657
2.4730 -7.3408 -1.0975 0.9692
2.4809 -5.9366 -0.9116 0.9743
2.4838 -5.3975 -0.8419 0.9763
2.4903 -4.1767 -0.6890 0.9805
2.4919 -3.8613 -0.6511 0.9816
2.4932 -3.5784 -0.6180 0.9825
2.4944 -3.3225 -0.5887 0.9834
2.4955 -3.0895 -0.5627 0.9841
2.4964 -2.8758 -0.5396 0.9847
2.4910 -2.6721 -0.5176 0.9853
2.4920 -2.3195 -0.4824 0.9863
2.4924 -2.1602 -0.4673 0.9868
2.4927 -2.0103 -0.4537 0.9871
2.4933 -1.7343 -0.4303 0.9878
2.4935 -1.6064 -0.4203 0.9881
2.4937 -1.4842 -0.4112 0.9883
2.4938 -1.3670 -0.4029 0.9886
2.4939 -1.2542 -0.3955 0.9888
2.4940 -1.1454 -0.3889 0.9890
2.4941 -0.9377 -0.3775 0.9893
-1.5183 -15.0634 -2.4941 0.9405
-0.9942 -15.2731 -2.5214 0.9398
-0.4573 -15.4686 -2.5494 0.9392
0.0868 -14.7208 -2.4251 0.9421
0.6154 -14.8755 -2.4527 0.9414
1.1553 -15.0147 -2.4808 0.9408
2.8396 -15.3311 -2.5686 0.9387
3.4211 -15.4004 -2.5989 0.9380
4.0117 -15.4503 -2.6297 0.9373
2.4572 -8.2497 -1.4181 0.9657
2.4637 -7.3134 -1.2713 0.9692
2.4689 -6.5515 -1.1534 0.9720
2.4732 -5.9182 -1.0567 0.9743
2.4797 -4.9213 -0.9078 0.9779
2.4863 -3.8528 -0.7554 0.9816
2.4880 -3.5708 -0.7170 0.9825
2.4894 -3.3158 -0.6831 0.9833
2.4907 -3.0836 -0.6530 0.9841
2.4918 -2.8705 -0.6262 0.9847
2.4874 -2.4855 -0.5793 0.9858
2.4885 -2.1568 -0.5425 0.9867
2.4889 -2.0072 -0.5268 0.9871
2.4897 -1.7318 -0.4996 0.9878
2.4900 -1.6042 -0.4880 0.9881
2.4903 -1.4822 -0.4774 0.9883
2.4905 -1.3651 -0.4679 0.9886
2.4908 -1.1439 -0.4515 0.9890
2.4910 -0.9365 -0.4384 0.9893
2.4910 -0.8371 -0.4329 0.9894
0.0760 -12.8992 -2.4246 0.9489
0.5385 -13.0164 -2.4487 0.9484
1.9757 -13.2799 -2.5236 0.9468
2.9714 -13.3760 -2.5755 0.9458
2.4545 -7.2860 -1.4451 0.9692
2.4655 -5.8997 -1.2019 0.9743
2.4731 -4.9081 -1.0330 0.9779
2.4760 -4.5088 -0.9669 0.9793
2.4786 -4.1571 -0.9097 0.9805
2.4827 -3.5633 -0.8163 0.9825
2.4844 -3.3091 -0.7778 0.9833
2.4840 -2.3121 -0.6378 0.9863
2.4857 -1.8632 -0.5839 0.9874
2.4871 -1.3633 -0.5331 0.9885
2.4877 -1.0374 -0.5066 0.9891
2.4878 -0.9354 -0.4996 0.9892
-1.1914 -11.8199 -2.5111 0.9526
-0.7783 -11.9563 -2.5327 0.9522
0.4782 -11.5595 -2.4455 0.9538
0.8955 -11.6379 -2.4673 0.9534
1.3191 -11.7026 -2.4894 0.9530
1.7486 -11.7532 -2.5117 0.9526
2.6236 -11.8104 -2.5573 0.9517
2.4367 -8.1808 -1.8044 0.9657
2.4453 -7.2586 -1.6190 0.9692
2.4624 -5.3510 -1.2451 0.9762
2.4664 -4.8949 -1.1586 0.9778
2.4698 -4.4975 -1.0846 0.9792
2.4727 -4.1472 -1.0206 0.9805
2.4794 -3.3024 -0.8729 0.9833
2.4782 -2.6584 -0.7682 0.9853
2.4808 -2.1501 -0.6939 0.9867
2.4814 -2.0012 -0.6738 0.9871
2.4821 -1.8604 -0.6557 0.9874
2.4826 -1.7269 -0.6392 0.9877
2.4830 -1.5997 -0.6243 0.9880
2.4841 -1.2493 -0.5877 0.9887
2.4843 -1.1409 -0.5779 0.9889
2.4847 -0.9342 -0.5611 0.9892
2.4848 -0.8350 -0.5541 0.9893
-1.0741 -10.6567 -2.5172 0.9569
-0.7011 -10.7706 -2.5367 0.9566
-0.3214 -10.8728 -2.5565 0.9563
0.4296 -10.3859 -2.4430 0.9582
0.8038 -10.4468 -2.4625 0.9579
1.5668 -10.5310 -2.5023 0.9572
1.9547 -10.5534 -2.5225 0.9569
2.3463 -10.5623 -2.5429 0.9565
2.7413 -10.5572 -2.5635 0.9562
2.4264 -8.1463 -1.9977 0.9657
2.4437 -6.4846 -1.6287 0.9719
2.4500 -5.8627 -1.4934 0.9742
2.4597 -4.8817 -1.2847 0.9778
2.4635 -4.4861 -1.2029 0.9792
2.4721 -3.5481 -1.0163 0.9824
2.4743 -3.2957 -0.9686 0.9832
2.4779 -2.8546 -0.8884 0.9846
2.4750 -2.4731 -0.8223 0.9857
2.4760 -2.3046 -0.7950 0.9862
2.4769 -2.1467 -0.7703 0.9866
2.4790 -1.7244 -0.7097 0.9877
2.4800 -1.4761 -0.6783 0.9882
2.4804 -1.3596 -0.6648 0.9884
2.4813 -1.0347 -0.6318 0.9890
2.4815 -0.9330 -0.6231 0.9892
-0.2919 -9.8753 -2.5580 0.9600
0.0552 -9.3599 -2.4235 0.9621
0.7285 -9.4676 -2.4586 0.9615
1.0713 -9.5044 -2.4764 0.9613
1.4178 -9.5295 -2.4945 0.9610
1.7675 -9.5424 -2.5127 0.9607
2.1199 -9.5430 -2.5311 0.9604
2.4268 -7.2035 -1.9681 0.9691
2.4423 -5.8441 -1.6400 0.9742
2.4481 -5.3198 -1.5162 0.9761
2.4572 -4.4746 -1.3218 0.9791
2.4640 -3.8182 -1.1766 0.9814
2.4692 -3.2889 -1.0648 0.9832
2.4773 -2.8539 -0.9785 0.9845
2.4695 -2.6491 -0.9377 0.9851
2.4729 -2.1433 -0.8473 0.9866
2.4738 -1.9950 -0.8228 0.9870
2.4753 -1.7218 -0.7807 0.9876
2.4759 -1.5951 -0.7626 0.9879
2.4770 -1.3578 -0.7314 0.9884
2.4778 -1.1379 -0.7059 0.9888
2.4783 -0.9318 -0.6855 0.9891
2.4785 -0.8329 -0.6770 0.9893
-0.2671 -9.0366 -2.5593 0.9631
0.9779 -8.6757 -2.4716 0.9644
1.2933 -8.6930 -2.4880 0.9641
1.9313 -8.6942 -2.5213 0.9637
2.2531 -8.6776 -2.5380 0.9634
2.4268 -6.4396 -1.9482 0.9718
2.4344 -5.8254 -1.7874 0.9741
2.4462 -4.8549 -1.5390 0.9777
2.4509 -4.4630 -1.4414 0.9791
2.4549 -4.1173 -1.3571 0.9803
2.4583 -3.8094 -1.2835 0.9813
2.4641 -3.2821 -1.1618 0.9831
2.4664 -3.0535 -1.1112 0.9838
2.4774 -2.8540 -1.0699 0.9844
2.4665 -2.4646 -0.9871 0.9856
2.4700 -1.9919 -0.8983 0.9869
2.4709 -1.8520 -0.8742 0.9872
2.4716 -1.7193 -0.8523 0.9876
2.4724 -1.5928 -0.8326 0.9878
2.4735 -1.3559 -0.7985 0.9883
2.4745 -1.1364 -0.7708 0.9887
2.4748 -1.0320 -0.7591 0.9889
2.4751 -0.9306 -0.7486 0.9891
2.4753 -0.8318 -0.7392 0.9892
-0.5375 -8.2575 -2.5452 0.9660
0.0465 -7.8917 -2.4273 0.9675
0.3276 -7.9186 -2.4377 0.9674
0.6117 -7.9501 -2.4525 0.9672
0.8986 -7.9717 -2.4674 0.9670
1.1878 -7.9833 -2.4825 0.9668
1.4789 -7.9846 -2.4977 0.9666
2.0658 -7.9561 -2.5283 0.9662
2.3608 -7.9258 -2.5436 0.9660
2.4182 -6.4169 -2.1092 0.9717
2.4266 -5.8066 -1.9357 0.9740
2.4335 -5.2882 -1.7905 0.9759
2.4445 -4.4514 -1.5620 0.9790
2.4488 -4.1072 -1.4708 0.9802
2.4775 -2.8541 -1.1625 0.9843
2.4607 -2.6396 -1.1099 0.9850
2.4622 -2.4604 -1.0706 0.9855
2.4671 -1.8492 -0.9483 0.9872
2.4688 -1.5905 -0.9033 0.9878
2.4706 -1.2425 -0.8506 0.9885
2.4711 -1.1348 -0.8364 0.9887
2.4719 -0.9293 -0.8122 0.9890
2.4721 -0.8307 -0.8021 0.9891
-0.7643 -7.5830 -2.5334 0.9684
-0.4978 -7.6470 -2.5473 0.9682
0.0431 -7.3109 -2.4302 0.9697
0.5655 -7.3490 -2.4501 0.9694
0.8303 -7.3656 -2.4639 0.9692
1.0969 -7.3729 -2.4778 0.9691
1.6347 -7.3590 -2.5058 0.9687
2.1762 -7.3061 -2.5340 0.9684
2.3987 -7.1201 -2.4975 0.9688
2.4262 -5.2722 -1.9292 0.9758
2.4326 -4.8278 -1.7970 0.9775
2.4380 -4.4397 -1.6837 0.9789
2.4428 -4.0970 -1.5856 0.9801
2.4469 -3.7916 -1.5000 0.9812
2.4504 -3.5170 -1.4249 0.9821
2.4776 -2.8542 -1.2563 0.9842
2.4562 -2.6348 -1.1973 0.9849
2.4579 -2.4561 -1.1550 0.9855
2.4595 -2.2893 -1.1169 0.9859
2.4609 -2.1329 -1.0825 0.9864
2.4621 -1.9856 -1.0514 0.9868
2.4659 -1.4677 -0.9539 0.9880
2.4672 -1.2408 -0.9180 0.9884
2.4682 -1.0292 -0.8889 0.9888
2.4685 -0.9281 -0.8766 0.9889
2.4689 -0.8296 -0.8658 0.9891
-0.2117 -7.1617 -2.5622 0.9700
0.0401 -6.8028 -2.4328 0.9715
0.2815 -6.8041 -2.4353 0.9715
0.5252 -6.8253 -2.4480 0.9713
1.0179 -6.8420 -2.4737 0.9710
1.5158 -6.8235 -2.4996 0.9707
1.7659 -6.8007 -2.5126 0.9706
2.0162 -6.7688 -2.5257 0.9704
2.4009 -6.3711 -2.4348 0.9715
2.4107 -5.7685 -2.2358 0.9738
2.4256 -4.8140 -1.9277 0.9774
2.4366 -4.0867 -1.7015 0.9800
2.4449 -3.5091 -1.5294 0.9820
2.4483 -3.2612 -1.4583 0.9828
2.4514 -3.0349 -1.3951 0.9836
2.4495 -2.8219 -1.3363 0.9843
2.4568 -2.1293 -1.1626 0.9863
2.4593 -1.8434 -1.0991 0.9870
2.4614 -1.5857 -1.0471 0.9876
2.4623 -1.4655 -1.0247 0.9879
2.4630 -1.3501 -1.0044 0.9881
2.4637 -1.2390 -0.9862 0.9884
2.4643 -1.1317 -0.9697 0.9885
2.4652 -0.9269 -0.9418 0.9889
2.4656 -0.8285 -0.9301 0.9890
0.0374 -6.3541 -2.4350 0.9731
0.4897 -6.3643 -2.4461 0.9730
1.4114 -6.3536 -2.4942 0.9725
1.6436 -6.3302 -2.5063 0.9724
1.8760 -6.2982 -2.5184 0.9722
2.1081 -6.2577 -2.5305 0.9721
2.3397 -6.2085 -2.5425 0.9720
2.4113 -5.2398 -2.2104 0.9756
2.4186 -4.8001 -2.0598 0.9772
2.4249 -4.4158 -1.9306 0.9787
2.4351 -3.7735 -1.7210 0.9809
2.4393 -3.5010 -1.6352 0.9819
2.4430 -3.2540 -1.5593 0.9827
2.4448 -2.8164 -1.4292 0.9842
2.4491 -2.4472 -1.3268 0.9853
2.4510 -2.2813 -1.2832 0.9858
2.4566 -1.7088 -1.1468 0.9873
2.4594 -1.3481 -1.0748 0.9881
2.4608 -1.1301 -1.0377 0.9885
2.4614 -1.0264 -1.0219 0.9886
-0.1851 -6.2610 -2.5636 0.9733
0.0351 -5.9545 -2.4371 0.9746
0.2458 -5.9406 -2.4334 0.9746
0.4582 -5.9551 -2.4445 0.9745
0.8870 -5.9617 -2.4668 0.9743
1.3190 -5.9376 -2.4893 0.9741
1.5356 -5.9138 -2.5006 0.9739
1.7520 -5.8821 -2.5119 0.9738
1.9682 -5.8424 -2.5232 0.9737
2.1837 -5.7946 -2.5344 0.9736
2.4037 -5.2233 -2.3533 0.9755
2.4411 -3.0221 -1.5900 0.9833
2.4400 -2.8108 -1.5234 0.9840
2.4424 -2.6200 -1.4660 0.9846
2.4446 -2.4428 -1.4144 0.9852
2.4484 -2.1221 -1.3261 0.9861
2.4514 -1.8375 -1.2539 0.9868
2.4527 -1.7061 -1.2228 0.9872
2.4549 -1.4611 -1.1692 0.9877
2.4573 -1.1285 -1.1067 0.9884
2.4579 -1.0249 -1.0899 0.9886
2.4584 -0.9243 -1.0749 0.9887
2.4588 -0.8263 -1.0616 0.9889
-0.5851 -5.8050 -2.5427 0.9749
-0.3806 -5.8465 -2.5534 0.9748
-0.1738 -5.8810 -2.5642 0.9747
0.2307 -5.5770 -2.4326 0.9759
0.4301 -5.5891 -2.4430 0.9758
0.6306 -5.5942 -2.4535 0.9757
1.0340 -5.5829 -2.4745 0.9755
1.2365 -5.5664 -2.4850 0.9754
1.6416 -5.5112 -2.5062 0.9752
2.3960 -5.2067 -2.4979 0.9753
2.4115 -4.3914 -2.1835 0.9784
2.4178 -4.0551 -2.0576 0.9796
2.4232 -3.7549 -1.9476 0.9807
2.4321 -3.2395 -1.7654 0.9825
2.4358 -3.0156 -1.6894 0.9832
2.4377 -2.6150 -1.5580 0.9845
2.4401 -2.4382 -1.5033 0.9851
2.4422 -2.2732 -1.4541 0.9855
2.4441 -2.1184 -1.4096 0.9860
2.4459 -1.9725 -1.3694 0.9864
2.4474 -1.8345 -1.3330 0.9867
2.4500 -1.5784 -1.2701 0.9874
2.4529 -1.2336 -1.1966 0.9881
2.4537 -1.1269 -1.1767 0.9883
2.4544 -1.0235 -1.1589 0.9885
2.4549 -0.9230 -1.1430 0.9886
2.4554 -0.8251 -1.1289 0.9888
0.7825 -5.2596 -2.4614 0.9768
0.9724 -5.2496 -2.4713 0.9767
1.1624 -5.2327 -2.4812 0.9767
1.3526 -5.2090 -2.4911 0.9766
1.5424 -5.1782 -2.5010 0.9765
1.7318 -5.1405 -2.5109 0.9764
2.1079 -5.0440 -2.5305 0.9762
2.4047 -4.3790 -2.3125 0.9782
2.4170 -3.7454 -2.0633 0.9805
2.4221 -3.4762 -1.9612 0.9815
2.4305 -3.0090 -1.7904 0.9831
2.4301 -2.7995 -1.7159 0.9838
2.4329 -2.6098 -1.6515 0.9844
2.4355 -2.4336 -1.5937 0.9849
2.4378 -2.2690 -1.5415 0.9854
2.4398 -2.1146 -1.4945 0.9859
2.4416 -1.9691 -1.4519 0.9863
2.4433 -1.8314 -1.4134 0.9866
2.4447 -1.7006 -1.3785 0.9870
2.4483 -1.3420 -1.2924 0.9878
2.4492 -1.2318 -1.2690 0.9880
2.4514 -0.9216 -1.2122 0.9885
-0.5205 -5.1644 -2.5461 0.9771
-0.3384 -5.1989 -2.5556 0.9771
0.0295 -5.0085 -2.4568 0.9779
0.5594 -4.9628 -2.4498 0.9780
1.0954 -4.9309 -2.4777 0.9777
1.2743 -4.9074 -2.4870 0.9777
1.8079 -4.7975 -2.5148 0.9774
2.1588 -4.6912 -2.5331 0.9773
2.3321 -4.6282 -2.5421 0.9772
2.3978 -4.3663 -2.4435 0.9781
2.4047 -4.0332 -2.3034 0.9793
2.4161 -3.4677 -2.0732 0.9813
2.4208 -3.2245 -1.9779 0.9822
2.4250 -3.0022 -1.8931 0.9830
2.4281 -2.6046 -1.7467 0.9843
2.4373 -1.9656 -1.5359 0.9861
2.4406 -1.6977 -1.4583 0.9868
2.4445 -1.3399 -1.3674 0.9877
2.4454 -1.2298 -1.3427 0.9879
2.4463 -1.1235 -1.3205 0.9881
2.4484 -0.8227 -1.2670 0.9886
-0.3201 -4.9176 -2.5565 0.9780
-0.1461 -4.9433 -2.5656 0.9780
0.1943 -4.6961 -2.4383 0.9790
0.3608 -4.6884 -2.4394 0.9790
0.6970 -4.6845 -2.4569 0.9789
1.2030 -4.6332 -2.4833 0.9787
1.3713 -4.6038 -2.4921 0.9786
1.7059 -4.5266 -2.5095 0.9784
1.8717 -4.4786 -2.5181 0.9784
2.0361 -4.4245 -2.5267 0.9783
2.1990 -4.3642 -2.5352 0.9782
2.3601 -4.2977 -2.5436 0.9781
2.3980 -4.0221 -2.4293 0.9791
2.4044 -3.7259 -2.3005 0.9802
2.4101 -3.4591 -2.1871 0.9812
2.4151 -3.2168 -2.0868 0.9820
2.4195 -2.9954 -1.9976 0.9828
2.4199 -2.7877 -1.9151 0.9835
2.4286 -2.2604 -1.7212 0.9852
2.4309 -2.1069 -1.6688 0.9856
2.4329 -1.9621 -1.6214 0.9860
2.4348 -1.8250 -1.5786 0.9864
2.4365 -1.6948 -1.5397 0.9867
2.4380 -1.5707 -1.5045 0.9870
2.4416 -1.2279 -1.4178 0.9878
2.4426 -1.1218 -1.3944 0.9880
2.4434 -1.0189 -1.3734 0.9881
-0.3033 -4.6595 -2.5574 0.9789
-0.1384 -4.6830 -2.5660 0.9789
0.0266 -4.5069 -2.4685 0.9797
0.3416 -4.4390 -2.4384 0.9799
0.9786 -4.4053 -2.4716 0.9796
1.6127 -4.2792 -2.5047 0.9794
1.9241 -4.1812 -2.5209 0.9792
2.2295 -4.0598 -2.5368 0.9791
2.3792 -3.9905 -2.5446 0.9790
2.4039 -3.4502 -2.3032 0.9810
2.4139 -2.9884 -2.1040 0.9826
2.4147 -2.7817 -2.0175 0.9833
2.4263 -2.1029 -1.7585 0.9855
2.4285 -1.9585 -1.7087 0.9859
2.4304 -1.8218 -1.6636 0.9862
2.4323 -1.6919 -1.6227 0.9866
2.4338 -1.5680 -1.5857 0.9869
2.4353 -1.4494 -1.5522 0.9872
2.4387 -1.1200 -1.4698 0.9878
2.4403 -0.9175 -1.4279 0.9882
2.4410 -0.8203 -1.4104 0.9883
-0.2878 -4.4216 -2.5582 0.9797
-0.1313 -4.4432 -2.5664 0.9797
0.0252 -4.2845 -2.4737 0.9804
0.1739 -4.2048 -2.4297 0.9808
0.3239 -4.2094 -2.4375 0.9807
0.4745 -4.2088 -2.4453 0.9806
0.9274 -4.1746 -2.4689 0.9804
1.3782 -4.0911 -2.4924 0.9803
1.6749 -4.0079 -2.5079 0.9801
1.9664 -3.9027 -2.5231 0.9800
2.1097 -3.8419 -2.5306 0.9800
2.2512 -3.7757 -2.5379 0.9799
2.4032 -3.2010 -2.3110 0.9817
2.4093 -2.7755 -2.1219 0.9832
2.4190 -2.2515 -1.9079 0.9849
2.4239 -1.9548 -1.7978 0.9857
2.4311 -1.4470 -1.6334 0.9870
2.4325 -1.3334 -1.6015 0.9873
2.4337 -1.2239 -1.5728 0.9875
2.4348 -1.1182 -1.5468 0.9877
