ply
format ascii 1.0
element vertex 600
property float32 x
property float32 y
property float32 z
property float32 I
end_header
12.9038 -41.0377 7.5853 0.8397
8.0650 -20.3908 3.8665 0.9148
7.5376 -17.2181 3.3142 0.9265
8.1229 -16.8746 3.3022 0.9268
8.1671 -14.2434 2.8951 0.9355
8.8977 -11.3559 2.5438 0.9431
11.9750 -11.4316 2.9192 0.9350
12.0588 -10.7093 2.8438 0.9366
7.4119 -4.1479 1.4976 0.9661
7.4189 -3.8080 1.4704 0.9667
7.4259 -3.4797 1.4460 0.9672
3.0959 -1.3170 0.5932 0.9864
3.1913 -1.2239 0.6027 0.9862
12.6386 -45.9074 7.2944 0.8247
8.0396 -20.3266 3.3486 0.9153
7.9776 -18.2233 3.0475 0.9227
8.1479 -14.2098 2.5093 0.9359
8.1852 -12.1557 2.2450 0.9424
8.2444 -11.3402 2.1478 0.9448
10.3310 -11.3917 2.3559 0.9397
11.1230 -11.4112 2.4412 0.9376
12.8985 -11.4549 2.6427 0.9326
13.9036 -11.4797 2.7621 0.9296
7.4160 -3.4751 1.2546 0.9674
3.0922 -1.3154 0.5148 0.9865
7.4659 -2.5591 1.2091 0.9686
8.5274 -2.5840 1.3650 0.9646
24.3507 -3.6862 3.7729 0.9051
9.8546 -35.7955 4.8347 0.8609
7.6431 -24.3076 3.3181 0.9023
8.1057 -15.3952 2.2657 0.9322
8.1873 -13.1574 2.0180 0.9394
8.1680 -12.1303 1.9043 0.9427
13.9042 -11.4802 2.3480 0.9298
7.3916 -4.1366 1.1030 0.9664
7.3990 -3.7977 1.0830 0.9670
3.1120 -1.4583 0.4475 0.9862
3.0885 -1.3139 0.4371 0.9866
3.1863 -1.2221 0.4444 0.9863
7.4700 -2.5605 1.0283 0.9686
8.5327 -2.5856 1.1610 0.9647
8.0209 -33.8516 3.7357 0.8694
9.3871 -34.0971 3.7976 0.8674
10.8044 -34.3614 3.8679 0.8651
8.1511 -12.1051 1.5671 0.9430
8.2450 -11.3411 1.5056 0.9452
9.6619 -11.4567 1.6093 0.9415
10.3319 -11.3926 1.6515 0.9400
13.9049 -11.4808 1.9363 0.9300
7.3892 -3.7927 0.8919 0.9671
3.1839 -1.2211 0.3662 0.9864
26.4247 -4.0001 2.8699 0.8981
7.9914 -33.7271 2.9341 0.8701
10.3948 -33.0586 2.9336 0.8701
7.9653 -20.1388 1.8333 0.9167
8.1244 -14.1688 1.3826 0.9365
8.1620 -13.1167 1.3078 0.9399
8.1343 -12.0801 1.2328 0.9432
10.3323 -11.3930 1.3020 0.9401
11.1244 -11.4126 1.3491 0.9380
13.9055 -11.4813 1.5265 0.9302
3.0812 -1.3108 0.2835 0.9866
3.1814 -1.2202 0.2884 0.9864
8.5432 -2.5887 0.7557 0.9648
26.3930 -3.9953 2.2597 0.8984
6.9419 -25.2153 1.6218 0.9005
7.9362 -25.2395 1.6407 0.8994
7.9815 -18.2321 1.2342 0.9233
7.9699 -16.5566 1.1394 0.9290
8.0421 -12.9241 0.9439 0.9408
8.1176 -12.0554 0.9012 0.9434
8.2456 -11.3419 0.8695 0.9454
8.8994 -11.3581 0.8948 0.9438
11.1248 -11.4131 0.9883 0.9381
11.9776 -11.4342 1.0268 0.9358
12.9008 -11.4570 1.0699 0.9332
7.3619 -4.1199 0.5231 0.9668
3.0958 -1.4507 0.2120 0.9864
3.1790 -1.2192 0.2111 0.9864
26.3616 -3.9906 1.6533 0.8987
6.9431 -25.2196 1.0314 0.9006
7.8523 -22.1529 0.9268 0.9102
8.0268 -15.2452 0.6794 0.9334
8.0545 -14.0469 0.6385 0.9372
8.0790 -12.9833 0.6030 0.9406
8.8997 -11.3585 0.5690 0.9439
9.5935 -11.3757 0.5868 0.9422
10.3331 -11.3940 0.6065 0.9403
11.9781 -11.4347 0.6530 0.9359
7.3520 -4.1144 0.3322 0.9668
3.1766 -1.2183 0.1342 0.9865
26.3302 -3.9858 1.0501 0.8989
6.9443 -25.2239 0.4419 0.9006
7.9390 -25.2482 0.4471 0.8995
7.8412 -22.1213 0.3965 0.9104
7.9371 -18.1307 0.3343 0.9239
7.8161 -13.6312 0.2654 0.9391
7.7191 -12.4049 0.2468 0.9432
8.2462 -11.3427 0.2369 0.9454
8.9001 -11.3589 0.2438 0.9439
9.5939 -11.3761 0.2514 0.9422
11.1258 -11.4140 0.2692 0.9382
11.9787 -11.4352 0.2797 0.9359
12.9020 -11.4580 0.2915 0.9333
7.3423 -4.1089 0.1421 0.9669
3.0704 -1.3062 0.0564 0.9867
7.4902 -2.5674 0.1337 0.9688
8.5588 -2.5935 0.1511 0.9649
25.8092 -3.9070 0.4409 0.9008
27.0384 -3.1023 0.4597 0.8968
6.9455 -25.2281 -0.1473 0.9006
7.9403 -25.2525 -0.1490 0.8995
7.8154 -22.0488 -0.1317 0.9107
7.9882 -15.1719 -0.0965 0.9337
7.7419 -12.4416 -0.0825 0.9431
7.6486 -11.3589 -0.0771 0.9467
8.9004 -11.3593 -0.0812 0.9439
9.5943 -11.3765 -0.0838 0.9422
11.1262 -11.4145 -0.0897 0.9382
11.9792 -11.4356 -0.0932 0.9359
12.9026 -11.4586 -0.0972 0.9333
3.0800 -1.4433 -0.0192 0.9865
7.9926 -33.7322 -0.9761 0.8705
2.5194 -8.0125 -0.2365 0.9669
2.5194 -7.1079 -0.2123 0.9703
2.5195 -6.3700 -0.1929 0.9730
2.8557 -6.5234 -0.2005 0.9719
7.9725 -13.9039 -0.4513 0.9379
8.0519 -11.9578 -0.4059 0.9439
8.9007 -11.3598 -0.4064 0.9439
9.5526 -11.3271 -0.4172 0.9424
10.3344 -11.3953 -0.4332 0.9403
11.9797 -11.4362 -0.4664 0.9359
12.9032 -11.4591 -0.4859 0.9333
3.0747 -1.4408 -0.0956 0.9865
8.5691 -2.5966 -0.2521 0.9648
25.7483 -3.8978 -0.7333 0.9010
6.0592 -25.5728 -1.3328 0.9001
2.5094 -7.9807 -0.4243 0.9670
2.5105 -7.0826 -0.3811 0.9704
2.5113 -6.3494 -0.3463 0.9730
2.5120 -5.7382 -0.3177 0.9752
2.5126 -5.2196 -0.2938 0.9771
2.5134 -4.3834 -0.2563 0.9800
2.5140 -3.7335 -0.2283 0.9821
2.5143 -3.4584 -0.2168 0.9830
2.5145 -3.2091 -0.2068 0.9838
2.5146 -2.9817 -0.1978 0.9845
2.7698 -2.6441 -0.1942 0.9848
9.3258 -8.2821 -0.6325 0.9513
12.6995 -8.3604 -0.7711 0.9409
13.8161 -8.3988 -0.8200 0.9373
7.3218 -3.7581 -0.4174 0.9676
3.1670 -1.2146 -0.1720 0.9865
7.5023 -2.5716 -0.4022 0.9687
8.5744 -2.5982 -0.4544 0.9648
25.7178 -3.8931 -1.3191 0.9011
6.9490 -25.2409 -1.9196 0.9003
2.4995 -7.9492 -0.6110 0.9671
2.5016 -7.0574 -0.5490 0.9704
2.5032 -6.3289 -0.4990 0.9731
2.5046 -5.7212 -0.4579 0.9753
2.5057 -5.2053 -0.4236 0.9771
2.5074 -4.3729 -0.3696 0.9800
2.5092 -3.4514 -0.3129 0.9830
2.5100 -2.9762 -0.2855 0.9845
2.5038 -2.5687 -0.2630 0.9857
2.5038 -2.3902 -0.2538 0.9862
2.5038 -2.0674 -0.2381 0.9871
2.5039 -1.9201 -0.2314 0.9874
2.5038 -1.7807 -0.2253 0.9878
2.5038 -1.6483 -0.2198 0.9880
2.5036 -1.1732 -0.2027 0.9890
2.5035 -1.0650 -0.1995 0.9891
2.5032 -0.8581 -0.1940 0.9894
2.5029 -0.5656 -0.1881 0.9898
2.5026 -0.3788 -0.1856 0.9899
2.5024 -0.2871 -0.1847 0.9899
2.5022 -0.1962 -0.1840 0.9900
5.8530 -24.7023 -2.4372 0.9030
2.4897 -7.9178 -0.7968 0.9672
2.4927 -7.0324 -0.7163 0.9705
2.4952 -6.3085 -0.6513 0.9731
2.5003 -4.7487 -0.5152 0.9787
2.5033 -3.7176 -0.4303 0.9822
2.5041 -3.4444 -0.4088 0.9830
2.5048 -3.1967 -0.3899 0.9838
2.5001 -2.0643 -0.3113 0.9871
2.5002 -1.9173 -0.3025 0.9874
2.5003 -1.7782 -0.2946 0.9877
2.5004 -1.3993 -0.2751 0.9886
2.5004 -1.2834 -0.2698 0.9888
2.5004 -1.1717 -0.2651 0.9890
2.5003 -1.0637 -0.2609 0.9891
2.5002 -0.8570 -0.2537 0.9894
2.5001 -0.7576 -0.2508 0.9896
2.4993 -0.1960 -0.2407 0.9900
2.4991 -0.1057 -0.2401 0.9900
5.2271 -22.0602 -2.6930 0.9127
2.4798 -7.8865 -0.9820 0.9672
2.4838 -7.0074 -0.8831 0.9705
2.4898 -5.6873 -0.7375 0.9753
2.4920 -5.1768 -0.6825 0.9771
2.4980 -3.7097 -0.5313 0.9821
2.4990 -3.4374 -0.5048 0.9830
2.5007 -2.9652 -0.4608 0.9845
2.4951 -2.7513 -0.4412 0.9852
2.4958 -2.3826 -0.4099 0.9862
2.4961 -2.2168 -0.3965 0.9866
2.4964 -2.0612 -0.3845 0.9870
2.4968 -1.7757 -0.3639 0.9877
2.4971 -1.3975 -0.3399 0.9885
2.4972 -1.1702 -0.3276 0.9890
2.4972 -0.9577 -0.3177 0.9893
2.4971 -0.8560 -0.3136 0.9894
2.4971 -0.7567 -0.3099 0.9895
2.4967 -0.3780 -0.3000 0.9899
2.4964 -0.1958 -0.2974 0.9900
2.4962 -0.1055 -0.2968 0.9900
2.4700 -7.8554 -1.1667 0.9673
2.4750 -6.9825 -1.0497 0.9705
2.4824 -5.6704 -0.8771 0.9753
2.4851 -5.1625 -0.8118 0.9771
2.4874 -4.7244 -0.7565 0.9787
2.4912 -4.0034 -0.6681 0.9811
2.4950 -3.1843 -0.5732 0.9838
2.4908 -2.7465 -0.5253 0.9851
2.4918 -2.3788 -0.4881 0.9862
2.4926 -2.0580 -0.4580 0.9870
2.4934 -1.6415 -0.4230 0.9880
2.4936 -1.5159 -0.4135 0.9883
2.4939 -1.2801 -0.3972 0.9887
2.4940 -1.1687 -0.3902 0.9889
2.4940 -1.0610 -0.3840 0.9891
2.4941 -0.9565 -0.3785 0.9893
2.4941 -0.8549 -0.3736 0.9894
2.4940 -0.7558 -0.3692 0.9895
2.4940 -0.6588 -0.3655 0.9896
2.4933 -0.1054 -0.3536 0.9900
3.6543 -15.4225 -2.6110 0.9378
2.4602 -7.8242 -1.3512 0.9673
2.4662 -6.9576 -1.2161 0.9705
2.4783 -5.1483 -0.9413 0.9771
2.4810 -4.7122 -0.8773 0.9786
2.4855 -3.9943 -0.7750 0.9811
2.4873 -3.6938 -0.7336 0.9821
2.4902 -3.1781 -0.6651 0.9838
2.4914 -2.9541 -0.6366 0.9845
2.4865 -2.7418 -0.6097 0.9851
2.4878 -2.3750 -0.5666 0.9862
2.4888 -2.0549 -0.5317 0.9870
2.4892 -1.9089 -0.5168 0.9874
2.4899 -1.6392 -0.4911 0.9880
2.4906 -1.2784 -0.4612 0.9887
2.4909 -0.9554 -0.4395 0.9892
2.4910 -0.8539 -0.4338 0.9894
2.4910 -0.7548 -0.4288 0.9895
2.4910 -0.6580 -0.4244 0.9896
2.4909 -0.4694 -0.4176 0.9898
2.4908 -0.3771 -0.4150 0.9898
2.4907 -0.2858 -0.4130 0.9899
3.1720 -13.3871 -2.5859 0.9455
3.6898 -13.4027 -2.6129 0.9450
2.4504 -7.7931 -1.5355 0.9673
2.4774 -4.3205 -0.9361 0.9799
2.4830 -2.5474 -0.6686 0.9856
2.4845 -2.2064 -0.6245 0.9866
2.4850 -2.0518 -0.6057 0.9870
2.4864 -1.6369 -0.5595 0.9880
2.4868 -1.5117 -0.5470 0.9882
2.4871 -1.3919 -0.5357 0.9885
2.4875 -1.1656 -0.5163 0.9889
2.4877 -1.0583 -0.5081 0.9891
2.4879 -0.8528 -0.4943 0.9894
2.4880 -0.7539 -0.4886 0.9895
2.4879 -0.3766 -0.4729 0.9898
2.4878 -0.2855 -0.4707 0.9899
3.2524 -11.8138 -2.5901 0.9511
2.4406 -7.7620 -1.7199 0.9673
2.4485 -6.9077 -1.5492 0.9705
2.4549 -6.2066 -1.4109 0.9731
2.4645 -5.1197 -1.2011 0.9770
2.4682 -4.6878 -1.1199 0.9786
2.4713 -4.3100 -1.0502 0.9799
2.4786 -3.4093 -0.8910 0.9829
2.4820 -2.9430 -0.8138 0.9844
2.4797 -2.3672 -0.7247 0.9861
2.4805 -2.2029 -0.7012 0.9865
2.4812 -2.0487 -0.6802 0.9869
2.4819 -1.9032 -0.6611 0.9873
2.4824 -1.7655 -0.6439 0.9876
2.4829 -1.6346 -0.6284 0.9879
2.4833 -1.5096 -0.6143 0.9882
2.4837 -1.3900 -0.6016 0.9884
2.4840 -1.2750 -0.5902 0.9886
2.4845 -1.0570 -0.5707 0.9890
2.4848 -0.8517 -0.5552 0.9893
2.4849 -0.6564 -0.5433 0.9895
2.4849 -0.4682 -0.5345 0.9897
2.4849 -0.3762 -0.5312 0.9898
2.4848 -0.2851 -0.5287 0.9898
2.4847 -0.1948 -0.5268 0.9899
2.4845 -0.1050 -0.5256 0.9899
2.4843 -0.0156 -0.5251 0.9899
2.5026 -10.5619 -2.5510 0.9564
2.4308 -7.7308 -1.9046 0.9672
2.4468 -6.1861 -1.5635 0.9730
2.4526 -5.6025 -1.4374 0.9752
2.4576 -5.1053 -1.3316 0.9770
2.4617 -4.6755 -1.2419 0.9785
2.4684 -3.9668 -1.0980 0.9810
2.4754 -3.1593 -0.9433 0.9836
2.4773 -2.9374 -0.9031 0.9843
2.4746 -2.5387 -0.8332 0.9855
2.4781 -1.9004 -0.7340 0.9872
2.4788 -1.7629 -0.7149 0.9876
2.4803 -1.3881 -0.6680 0.9884
2.4813 -1.0556 -0.6337 0.9890
2.4819 -0.6555 -0.6033 0.9895
2.4819 -0.3757 -0.5899 0.9897
2.4818 -0.2848 -0.5871 0.9898
2.4817 -0.1946 -0.5850 0.9898
2.4816 -0.1049 -0.5837 0.9898
2.2604 -9.5398 -2.5384 0.9603
2.6215 -9.5223 -2.5572 0.9600
2.4386 -6.1656 -1.7167 0.9730
2.4451 -5.5854 -1.5787 0.9751
2.4506 -5.0908 -1.4629 0.9769
2.4552 -4.6631 -1.3645 0.9785
2.4592 -4.2887 -1.2800 0.9798
2.4626 -3.9575 -1.2069 0.9809
2.4682 -3.3950 -1.0868 0.9828
2.4705 -3.1530 -1.0371 0.9836
2.4725 -2.9318 -0.9930 0.9843
2.4690 -2.7224 -0.9516 0.9849
2.4703 -2.5343 -0.9163 0.9855
2.4715 -2.3594 -0.8847 0.9860
2.4726 -2.1959 -0.8562 0.9864
2.4758 -1.6299 -0.7675 0.9878
2.4764 -1.5054 -0.7503 0.9881
2.4773 -1.2716 -0.7210 0.9886
2.4777 -1.1611 -0.7085 0.9888
2.4783 -0.9505 -0.6872 0.9891
2.4787 -0.6547 -0.6638 0.9895
2.4789 -0.4671 -0.6531 0.9896
2.4788 -0.3753 -0.6491 0.9897
2.4787 -0.1944 -0.6437 0.9898
2.4784 -0.0155 -0.6417 0.9898
2.0588 -8.6890 -2.5279 0.9636
2.3862 -8.6674 -2.5450 0.9633
2.4218 -6.8324 -2.0521 0.9703
2.4376 -5.5682 -1.7208 0.9750
2.4487 -4.6507 -1.4879 0.9784
2.4530 -4.2780 -1.3961 0.9797
2.4568 -3.9481 -1.3164 0.9809
2.4601 -3.6534 -1.2469 0.9819
2.4629 -3.3878 -1.1857 0.9827
2.4655 -3.1466 -1.1317 0.9835
2.4677 -2.9261 -1.0836 0.9842
2.4645 -2.7175 -1.0386 0.9849
2.4674 -2.3554 -0.9657 0.9859
2.4686 -2.1923 -0.9346 0.9864
2.4706 -1.8946 -0.8814 0.9871
2.4714 -1.7577 -0.8585 0.9875
2.4734 -1.3842 -0.8024 0.9883
2.4744 -1.1595 -0.7736 0.9887
2.4753 -0.8485 -0.7408 0.9892
2.4755 -0.7502 -0.7323 0.9893
2.4757 -0.6539 -0.7249 0.9894
2.4758 -0.5595 -0.7185 0.9895
2.4758 -0.4665 -0.7132 0.9896
2.4758 -0.2841 -0.7055 0.9897
2.4756 -0.1047 -0.7014 0.9898
2.4128 -6.8070 -2.2213 0.9702
2.4223 -6.1241 -2.0257 0.9728
2.4300 -5.5509 -1.8638 0.9750
2.4468 -4.2672 -1.5130 0.9796
2.4604 -3.1402 -1.2270 0.9834
2.4629 -2.9203 -1.1750 0.9841
2.4617 -2.5255 -1.0847 0.9853
2.4632 -2.3514 -1.0474 0.9858
2.4657 -2.0359 -0.9835 0.9867
2.4668 -1.8916 -0.9561 0.9871
2.4677 -1.7550 -0.9314 0.9874
2.4721 -0.8474 -0.8038 0.9891
2.4726 -0.5587 -0.7797 0.9894
2.4727 -0.4659 -0.7739 0.9895
2.4727 -0.2837 -0.7655 0.9896
2.4723 -0.0155 -0.7604 0.9897
1.7419 -7.3516 -2.5114 0.9687
2.0168 -7.3257 -2.5257 0.9685
2.2921 -7.2896 -2.5401 0.9683
2.4038 -6.7815 -2.3916 0.9701
2.4224 -5.5334 -2.0079 0.9749
2.4553 -3.1337 -1.3233 0.9834
2.4573 -2.5210 -1.1702 0.9853
2.4604 -2.1851 -1.0938 0.9862
2.4617 -2.0326 -1.0612 0.9866
2.4629 -1.8887 -1.0317 0.9870
2.4639 -1.7524 -1.0050 0.9873
2.4648 -1.6227 -0.9809 0.9876
2.4664 -1.3803 -0.9395 0.9882
2.4671 -1.2663 -0.9218 0.9884
2.4676 -1.1563 -0.9058 0.9886
2.4688 -0.8463 -0.8675 0.9891
2.4691 -0.7482 -0.8576 0.9892
2.4693 -0.6522 -0.8490 0.9893
2.4695 -0.5580 -0.8416 0.9894
2.4696 -0.4654 -0.8353 0.9895
1.6149 -6.8155 -2.5048 0.9707
1.8690 -6.7887 -2.5180 0.9705
2.1232 -6.7524 -2.5313 0.9704
2.4056 -6.0821 -2.3390 0.9726
2.4147 -5.5158 -2.1532 0.9747
2.4223 -5.0320 -1.9971 0.9766
2.4390 -3.9197 -1.6509 0.9806
2.4432 -3.6284 -1.5643 0.9816
2.4509 -2.7025 -1.3047 0.9846
2.4529 -2.5164 -1.2567 0.9852
2.4547 -2.3433 -1.2136 0.9857
2.4563 -2.1814 -1.1748 0.9861
2.4612 -1.6202 -1.0537 0.9876
2.4651 -0.9454 -0.9442 0.9888
2.4658 -0.7472 -0.9214 0.9891
2.4661 -0.6514 -0.9121 0.9892
2.4664 -0.4647 -0.8975 0.9894
2.4664 -0.2830 -0.8878 0.9895
2.4663 -0.1043 -0.8827 0.9896
2.4661 -0.0154 -0.8819 0.9896
2.3972 -6.0608 -2.4977 0.9725
2.4069 -5.4980 -2.3000 0.9746
2.4150 -5.0169 -2.1338 0.9764
2.4449 -3.1204 -1.5192 0.9832
2.4480 -2.9028 -1.4552 0.9839
2.4462 -2.6974 -1.3954 0.9845
2.4484 -2.5119 -1.3442 0.9851
2.4521 -2.1776 -1.2567 0.9861
2.4537 -2.0259 -1.2194 0.9865
2.4550 -1.8826 -1.1856 0.9868
2.4584 -1.4944 -1.1025 0.9878
2.4600 -1.2627 -1.0596 0.9882
2.4612 -1.0471 -1.0250 0.9886
2.4618 -0.9442 -1.0104 0.9888
2.4622 -0.8440 -0.9974 0.9889
2.4632 -0.3729 -0.9547 0.9894
2.4632 -0.1931 -0.9468 0.9895
1.4049 -5.9291 -2.4938 0.9740
1.6248 -5.9017 -2.5053 0.9739
1.8446 -5.8661 -2.5167 0.9738
2.0638 -5.8222 -2.5282 0.9737
2.4077 -5.0017 -2.2719 0.9763
2.4151 -4.5869 -2.1216 0.9778
2.4214 -4.2229 -1.9923 0.9792
2.4269 -3.9001 -1.8801 0.9803
2.4396 -3.1137 -1.6189 0.9830
2.4430 -2.8968 -1.5509 0.9838
2.4478 -2.1739 -1.3399 0.9860
2.4495 -2.0225 -1.3001 0.9864
2.4523 -1.7441 -1.2316 0.9871
2.4546 -1.4921 -1.1757 0.9877
2.4555 -1.3742 -1.1517 0.9879
2.4564 -1.2608 -1.1300 0.9881
2.4571 -1.1514 -1.1106 0.9883
2.4578 -1.0456 -1.0931 0.9885
2.4588 -0.8428 -1.0638 0.9888
2.4595 -0.6496 -1.0411 0.9891
2.4597 -0.5558 -1.0321 0.9892
2.4599 -0.4635 -1.0245 0.9892
2.4600 -0.3724 -1.0183 0.9893
2.4600 -0.2823 -1.0134 0.9894
1.3169 -5.5578 -2.4892 0.9754
1.7280 -5.4955 -2.5107 0.9752
1.9329 -5.4529 -2.5213 0.9751
2.4081 -4.5737 -2.2527 0.9777
2.4303 -3.3429 -1.8012 0.9821
2.4392 -2.5025 -1.5230 0.9849
2.4415 -2.3307 -1.4710 0.9854
2.4453 -2.0190 -1.3820 0.9863
2.4469 -1.8764 -1.3439 0.9866
2.4483 -1.7413 -1.3094 0.9870
2.4508 -1.4898 -1.2500 0.9876
2.4536 -1.1497 -1.1809 0.9882
2.4542 -1.0441 -1.1623 0.9884
2.4553 -0.8416 -1.1312 0.9887
2.4558 -0.7442 -1.1183 0.9889
2.4561 -0.6488 -1.1071 0.9890
2.4566 -0.4629 -1.0894 0.9892
2.4567 -0.3719 -1.0829 0.9892
2.4565 -0.0154 -1.0706 0.9893
1.2378 -5.2241 -2.4851 0.9766
1.4308 -5.1971 -2.4952 0.9765
1.6234 -5.1630 -2.5052 0.9764
2.0064 -5.0729 -2.5252 0.9762
2.3846 -4.9538 -2.5449 0.9761
2.4011 -4.5604 -2.3856 0.9775
2.4082 -4.1999 -2.2410 0.9789
2.4247 -3.3351 -1.9086 0.9820
2.4288 -3.0998 -1.8229 0.9828
2.4326 -2.8845 -1.7466 0.9835
2.4346 -2.4977 -1.6145 0.9847
2.4428 -1.8732 -1.4249 0.9865
2.4443 -1.7384 -1.3884 0.9869
2.4457 -1.6101 -1.3554 0.9872
2.4481 -1.3700 -1.2985 0.9877
2.4518 -0.8404 -1.1997 0.9886
2.4527 -0.6479 -1.1742 0.9889
2.4530 -0.5543 -1.1641 0.9890
2.4533 -0.3714 -1.1485 0.9891
2.4534 -0.2815 -1.1431 0.9892
2.4533 -0.1037 -1.1366 0.9892
2.4532 -0.0153 -1.1355 0.9892
1.1663 -4.9224 -2.4814 0.9777
1.5290 -4.8625 -2.5003 0.9775
1.7094 -4.8224 -2.5097 0.9775
1.8888 -4.7755 -2.5190 0.9774
2.0670 -4.7217 -2.5283 0.9773
2.4015 -4.1882 -2.3682 0.9787
2.4081 -3.8699 -2.2358 0.9799
2.4138 -3.5847 -2.1199 0.9809
2.4233 -3.0928 -1.9273 0.9826
2.4273 -2.8782 -1.8469 0.9834
2.4269 -2.6761 -1.7721 0.9840
2.4324 -2.3220 -1.6495 0.9851
2.4346 -2.1622 -1.5972 0.9856
2.4367 -2.0119 -1.5500 0.9860
2.4386 -1.8700 -1.5074 0.9864
2.4402 -1.7355 -1.4688 0.9867
2.4417 -1.6074 -1.4339 0.9871
2.4430 -1.4851 -1.4024 0.9873
2.4442 -1.3679 -1.3739 0.9876
2.4452 -1.2551 -1.3482 0.9878
2.4462 -1.1463 -1.3251 0.9880
2.4482 -0.8392 -1.2695 0.9885
2.4488 -0.7420 -1.2551 0.9887
2.4495 -0.5535 -1.2318 0.9889
2.4497 -0.4616 -1.2228 0.9890
2.4500 -0.1921 -1.2055 0.9891
2.4499 -0.1036 -1.2028 0.9891
2.4498 -0.0153 -1.2017 0.9891
1.4431 -4.5894 -2.4958 0.9786
2.2805 -4.3314 -2.5395 0.9782
2.4177 -3.0856 -2.0336 0.9825
2.4219 -2.6705 -1.8703 0.9839
2.4250 -2.4878 -1.8023 0.9845
2.4323 -2.0083 -1.6363 0.9859
2.4343 -1.8667 -1.5914 0.9863
2.4376 -1.6047 -1.5140 0.9869
2.4414 -1.2531 -1.4236 0.9877
2.4424 -1.1445 -1.3992 0.9879
2.4432 -1.0394 -1.3774 0.9881
2.4452 -0.7410 -1.3255 0.9886
2.4460 -0.5527 -1.3009 0.9888
2.4464 -0.3703 -1.2836 0.9889
2.4465 -0.2807 -1.2775 0.9890
2.4465 -0.1918 -1.2731 0.9890
2.4465 -0.1034 -1.2703 0.9890
2.4463 -0.0153 -1.2691 0.9890
1.5250 -4.3024 -2.5001 0.9794
2.3950 -3.8488 -2.4828 0.9795
2.4120 -3.0783 -2.1419 0.9823
2.4164 -2.8652 -2.0529 0.9831
2.4168 -2.6649 -1.9704 0.9837
2.4200 -2.4827 -1.8989 0.9843
2.4229 -2.3130 -1.8346 0.9848
2.4317 -1.7295 -1.6343 0.9865
2.4334 -1.6020 -1.5957 0.9868
2.4349 -1.4802 -1.5607 0.9871
2.4362 -1.3634 -1.5291 0.9873
2.4374 -1.2511 -1.5006 0.9876
2.4402 -0.9359 -1.4314 0.9882
2.4409 -0.8367 -1.4132 0.9883
2.4415 -0.7398 -1.3973 0.9884
2.4424 -0.5519 -1.3714 0.9886
2.4427 -0.4603 -1.3614 0.9887
2.4429 -0.3698 -1.3532 0.9888
2.4430 -0.2803 -1.3468 0.9888
2.4429 -0.1033 -1.3392 0.9889
2.4428 -0.0153 -1.3380 0.9889
1.1402 -4.1415 -2.4800 0.9804
1.4443 -4.0746 -2.4959 0.9802
1.5950 -4.0326 -2.5037 0.9802
1.7445 -3.9850 -2.5115 0.9801
1.8926 -3.9317 -2.5192 0.9800
2.0390 -3.8727 -2.5269 0.9800
2.1836 -3.8081 -2.5344 0.9799
2.4009 -3.3024 -2.3573 0.9813
2.4061 -3.0708 -2.2524 0.9821
2.4108 -2.8586 -2.1590 0.9829
2.4150 -2.4775 -1.9975 0.9841
2.4274 -1.7263 -1.7197 0.9863
2.4291 -1.5992 -1.6791 0.9867
2.4307 -1.4777 -1.6423 0.9869
2.4321 -1.3612 -1.6091 0.9872
2.4364 -0.9344 -1.5065 0.9880
2.4371 -0.8354 -1.4874 0.9882
2.4377 -0.7387 -1.4706 0.9883
2.4390 -0.4596 -1.4329 0.9886
2.4392 -0.3693 -1.4243 0.9887
2.4394 -0.1913 -1.4127 0.9888
2.4392 -0.0153 -1.4083 0.9888
