ply
format ascii 1.0
element vertex 497
property float32 x
property float32 y
property float32 z
property float32 I
end_header
24.5049 18.3599 5.3991 0.8831
20.1130 18.7835 4.8525 0.8942
25.9302 26.0293 6.4784 0.8614
23.7240 25.5982 6.1540 0.8678
16.2628 18.8693 4.3924 0.9038
15.0728 18.8207 4.2517 0.9067
11.1321 18.9572 3.8764 0.9146
12.9569 35.4296 6.6518 0.8579
10.5502 36.9043 6.7679 0.8556
26.8407 18.6373 5.0059 0.8761
23.0647 18.6166 4.5408 0.8870
20.1113 18.7820 4.2156 0.8946
25.8796 30.0274 6.0727 0.8518
14.0332 18.8798 3.6037 0.9092
23.9442 34.7659 6.4669 0.8430
21.7146 34.0990 6.1930 0.8491
21.8740 37.2499 6.6176 0.8396
19.5692 36.2598 6.3121 0.8464
19.8208 40.1244 6.8559 0.8344
8.5393 18.9816 3.1886 0.9192
14.7442 40.3167 6.5763 0.8405
10.3176 41.7316 6.5855 0.8403
27.0653 18.7932 4.2908 0.8755
26.3044 41.3066 6.3770 0.8207
22.3011 41.3218 6.1146 0.8274
20.4817 41.4625 6.0221 0.8298
8.5288 18.9581 2.7071 0.9196
13.6950 42.0964 5.7646 0.8365
10.3054 41.6822 5.5913 0.8410
26.8097 18.6157 3.5048 0.8769
23.0952 18.6412 3.1870 0.8875
26.1026 40.9898 5.2183 0.8224
15.1743 41.4930 4.7442 0.8372
13.5085 41.5230 4.6888 0.8389
24.2294 41.2611 4.0506 0.8252
16.9923 41.7325 3.8144 0.8345
26.9456 18.7101 2.0342 0.8768
24.2420 41.2827 2.9687 0.8254
9.0710 18.3630 1.2701 0.9212
9.0694 18.3598 0.8075 0.9213
7.9667 19.5658 0.8330 0.9189
8.2669 18.3760 0.3404 0.9226
7.9402 19.5008 0.3557 0.9192
8.5894 41.0428 0.7083 0.8456
9.0662 18.3532 -0.1153 0.9214
8.2654 18.3728 -0.1134 0.9226
7.9139 19.4362 -0.1182 0.9195
8.5880 41.0360 -0.2360 0.8456
8.2640 18.3696 -0.5672 0.9226
2.6056 6.3992 -0.1946 0.9727
2.4750 8.6577 -0.2535 0.9646
2.4616 11.7623 -0.3384 0.9531
29.4315 13.3757 -1.6395 0.8786
29.4671 14.6965 -1.6699 0.8764
29.5353 17.4958 -1.7409 0.8715
29.4742 18.9279 -1.7764 0.8691
26.2520 18.2285 -1.6208 0.8798
29.7317 25.8232 -1.9971 0.8541
29.7779 27.8097 -2.0663 0.8494
2.5336 2.9396 -0.1968 0.9846
2.4908 3.3511 -0.2118 0.9834
2.4886 3.9079 -0.2350 0.9816
2.4872 4.2356 -0.2491 0.9805
2.4857 4.6057 -0.2654 0.9793
2.4839 5.0283 -0.2844 0.9778
2.4818 5.5167 -0.3068 0.9761
2.4794 6.0892 -0.3334 0.9740
2.4764 6.7715 -0.3657 0.9715
2.4728 7.6010 -0.4054 0.9685
2.4577 9.9409 -0.5193 0.9598
2.4481 11.6981 -0.6061 0.9533
2.5016 0.0744 -0.1835 0.9900
2.5009 0.3472 -0.1851 0.9899
2.5006 0.4396 -0.1862 0.9899
2.5003 0.5332 -0.1874 0.9898
2.4990 0.9247 -0.1954 0.9894
2.4986 1.0284 -0.1981 0.9892
2.4982 1.1353 -0.2012 0.9891
2.4956 1.7329 -0.2228 0.9879
2.4936 2.1658 -0.2422 0.9868
2.4929 2.3280 -0.2501 0.9864
2.4871 3.1055 -0.2917 0.9842
2.4859 3.3445 -0.3055 0.9834
2.4846 3.6075 -0.3212 0.9826
2.4815 4.2258 -0.3593 0.9805
2.4795 4.5944 -0.3828 0.9793
2.4773 5.0150 -0.4101 0.9778
2.4717 6.0703 -0.4806 0.9741
2.4680 6.7485 -0.5269 0.9716
2.4635 7.5723 -0.5839 0.9686
2.4349 11.6345 -0.8716 0.9534
2.4987 0.0744 -0.2400 0.9900
2.4985 0.1647 -0.2404 0.9900
2.4982 0.2554 -0.2411 0.9900
2.4977 0.4391 -0.2435 0.9899
2.4973 0.5326 -0.2451 0.9898
2.4970 0.6274 -0.2472 0.9897
2.4967 0.7240 -0.2496 0.9896
2.4955 1.0272 -0.2591 0.9892
2.4945 1.2441 -0.2676 0.9889
2.4907 2.0103 -0.3073 0.9872
2.4889 2.3244 -0.3269 0.9864
2.4879 2.4974 -0.3384 0.9859
2.4847 2.6811 -0.3509 0.9854
2.4810 3.3379 -0.3993 0.9834
2.4794 3.6000 -0.4197 0.9826
2.4777 3.8908 -0.4428 0.9816
2.4596 6.7256 -0.6875 0.9716
2.4958 0.0743 -0.2966 0.9900
2.4953 0.2551 -0.2980 0.9899
2.4950 0.3464 -0.2992 0.9899
2.4947 0.4386 -0.3009 0.9898
2.4944 0.5319 -0.3030 0.9898
2.4928 0.9224 -0.3157 0.9894
2.4923 1.0259 -0.3202 0.9892
2.4919 1.1324 -0.3251 0.9890
2.4907 1.3565 -0.3369 0.9886
2.4901 1.4750 -0.3438 0.9884
2.4894 1.5986 -0.3514 0.9882
2.4887 1.7280 -0.3599 0.9879
2.4870 2.0073 -0.3796 0.9872
2.4860 2.1592 -0.3911 0.9868
2.4850 2.3207 -0.4039 0.9864
2.4839 2.4933 -0.4181 0.9859
2.4804 2.6764 -0.4335 0.9854
2.4777 3.0938 -0.4708 0.9842
2.4722 3.8823 -0.5467 0.9816
2.4673 4.5716 -0.6171 0.9793
2.4642 4.9885 -0.6609 0.9778
2.4606 5.4696 -0.7124 0.9761
2.4563 6.0327 -0.7737 0.9741
2.4449 7.5154 -0.9388 0.9687
2.4348 8.5171 -1.0522 0.9649
2.4929 0.0741 -0.3534 0.9900
2.4927 0.1643 -0.3539 0.9900
2.4915 0.5313 -0.3609 0.9898
2.4907 0.7223 -0.3674 0.9896
2.4902 0.8206 -0.3715 0.9895
2.4892 1.0246 -0.3814 0.9892
2.4881 1.2409 -0.3939 0.9888
2.4874 1.3547 -0.4013 0.9886
2.4867 1.4730 -0.4095 0.9884
2.4860 1.5964 -0.4186 0.9881
2.4822 2.1559 -0.4658 0.9868
2.4811 2.3171 -0.4810 0.9864
2.4761 2.6717 -0.5161 0.9854
2.4746 2.8713 -0.5371 0.9848
2.4730 3.0879 -0.5605 0.9841
2.4612 4.5603 -0.7342 0.9793
2.4535 5.4539 -0.8474 0.9761
2.4487 6.0139 -0.9200 0.9741
2.4357 7.4870 -1.1156 0.9687
2.4123 9.7570 -1.4241 0.9602
2.4895 0.2545 -0.4123 0.9899
2.4885 0.5307 -0.4192 0.9897
2.4866 0.9201 -0.4368 0.9893
2.4861 1.0233 -0.4429 0.9892
2.4855 1.1296 -0.4498 0.9890
2.4841 1.3529 -0.4660 0.9886
2.4833 1.4710 -0.4755 0.9884
2.4817 1.7231 -0.4977 0.9878
2.4772 2.3134 -0.5584 0.9864
2.4718 2.6671 -0.5990 0.9854
2.4662 3.3180 -0.6811 0.9834
2.4640 3.5776 -0.7156 0.9825
2.4613 3.8651 -0.7549 0.9816
2.4465 5.4382 -0.9824 0.9761
2.4265 7.4587 -1.2921 0.9687
2.4150 8.4475 -1.4474 0.9650
2.4871 0.0740 -0.4677 0.9899
2.4868 0.1639 -0.4684 0.9899
2.4862 0.3452 -0.4718 0.9898
2.4841 0.8186 -0.4916 0.9894
2.4835 0.9190 -0.4977 0.9893
2.4823 1.1281 -0.5125 0.9890
2.4770 1.8558 -0.5818 0.9875
2.4746 2.1492 -0.6161 0.9867
2.4732 2.3096 -0.6361 0.9863
2.4674 2.6624 -0.6823 0.9853
2.4636 3.0761 -0.7408 0.9841
2.4526 4.1767 -0.9104 0.9805
2.4488 4.5375 -0.9692 0.9792
2.4394 5.4225 -1.1176 0.9761
2.4050 8.4128 -1.6446 0.9650
2.3898 9.6660 -1.8715 0.9603
2.3695 11.3224 -2.1743 0.9540
2.4839 0.1637 -0.5262 0.9899
2.4832 0.3448 -0.5299 0.9898
2.4825 0.5294 -0.5365 0.9897
2.4820 0.6237 -0.5410 0.9896
2.4816 0.7196 -0.5462 0.9895
2.4810 0.8176 -0.5522 0.9894
2.4804 0.9178 -0.5590 0.9892
2.4798 1.0207 -0.5668 0.9891
2.4783 1.2360 -0.5854 0.9887
2.4766 1.4670 -0.6084 0.9883
2.4756 1.5898 -0.6219 0.9880
2.4745 1.7182 -0.6368 0.9878
2.4734 1.8531 -0.6533 0.9874
2.4610 2.8555 -0.7968 0.9847
2.4588 3.0702 -0.8315 0.9840
2.4563 3.3047 -0.8704 0.9833
2.4468 4.1668 -1.0214 0.9804
2.4427 4.5261 -1.0872 0.9792
2.4323 5.4067 -1.2532 0.9761
2.4178 6.6112 -1.4880 0.9716
2.4080 7.4020 -1.6453 0.9687
2.3786 9.6206 -2.0948 0.9603
2.3566 11.2606 -2.4318 0.9541
2.4806 0.2536 -0.5860 0.9898
2.4803 0.3444 -0.5885 0.9898
2.4799 0.4360 -0.5918 0.9897
2.4785 0.7187 -0.6065 0.9895
2.4779 0.8166 -0.6132 0.9893
2.4772 0.9166 -0.6208 0.9892
2.4758 1.1251 -0.6391 0.9889
2.4741 1.3475 -0.6621 0.9885
2.4721 1.5875 -0.6905 0.9880
2.4710 1.7157 -0.7070 0.9877
2.4697 1.8503 -0.7253 0.9874
2.4668 2.1425 -0.7679 0.9867
2.4586 2.6528 -0.8501 0.9852
2.4514 3.2979 -0.9658 0.9833
2.4410 4.1568 -1.1329 0.9804
2.4180 5.9386 -1.5070 0.9740
2.4094 6.5882 -1.6487 0.9716
2.2102 10.5607 -2.5358 0.9566
2.4781 0.0737 -0.6419 0.9898
2.4779 0.1633 -0.6430 0.9898
2.4776 0.2533 -0.6448 0.9898
2.4759 0.6221 -0.6610 0.9895
2.4747 0.8155 -0.6746 0.9893
2.4741 0.9155 -0.6830 0.9892
2.4726 1.1237 -0.7032 0.9888
2.4707 1.3456 -0.7284 0.9884
2.4697 1.4629 -0.7432 0.9882
2.4686 1.5853 -0.7596 0.9880
2.4674 1.7132 -0.7777 0.9877
2.4660 1.8476 -0.7978 0.9873
2.4645 1.9892 -0.8200 0.9870
2.4592 2.4686 -0.9022 0.9857
2.4542 2.6480 -0.9348 0.9852
2.4463 3.2912 -1.0618 0.9832
2.4393 3.8305 -1.1758 0.9814
2.4351 4.1468 -1.2451 0.9803
2.4180 5.3750 -1.5260 0.9759
2.4010 6.5652 -1.8100 0.9715
2.3895 7.3451 -1.9999 0.9686
2.4752 0.0737 -0.7010 0.9898
2.4749 0.1631 -0.7021 0.9897
2.4746 0.2530 -0.7042 0.9897
2.4742 0.3435 -0.7071 0.9897
2.4673 1.3437 -0.7954 0.9884
2.4662 1.4609 -0.8115 0.9882
2.4650 1.5830 -0.8293 0.9879
2.4637 1.7107 -0.8491 0.9876
2.4623 1.8448 -0.8710 0.9873
2.4590 2.1357 -0.9220 0.9866
2.4550 2.4643 -0.9847 0.9856
2.4497 2.6432 -1.0202 0.9851
2.4472 2.8394 -1.0612 0.9845
2.4444 3.0522 -1.1070 0.9839
2.4412 3.2844 -1.1585 0.9831
2.4377 3.5395 -1.2167 0.9823
2.4337 3.8218 -1.2827 0.9813
2.4292 4.1367 -1.3581 0.9803
2.4240 4.4914 -1.4448 0.9790
2.4179 4.8948 -1.5455 0.9776
2.4025 5.9005 -1.8036 0.9739
2.3802 7.3165 -2.1781 0.9685
2.1471 8.6843 -2.5325 0.9635
2.4718 0.1629 -0.7619 0.9897
2.4715 0.2527 -0.7641 0.9897
2.4707 0.4344 -0.7716 0.9896
2.4702 0.5268 -0.7769 0.9895
2.4684 0.8134 -0.7994 0.9892
2.4676 0.9131 -0.8093 0.9890
2.4649 1.2293 -0.8472 0.9885
2.4639 1.3419 -0.8629 0.9883
2.4627 1.4588 -0.8804 0.9881
2.4585 1.8420 -0.9449 0.9872
2.4568 1.9830 -0.9711 0.9869
2.4508 2.4601 -1.0681 0.9856
2.4485 2.6419 -1.1079 0.9850
2.4395 3.0461 -1.2003 0.9838
2.4232 4.1266 -1.4719 0.9802
2.4176 4.4797 -1.5657 0.9789
2.4112 4.8811 -1.6745 0.9775
2.3947 5.8813 -1.9532 0.9738
2.3840 6.5188 -2.1349 0.9714
2.2689 7.9364 -2.5388 0.9660
1.9689 7.9637 -2.5232 0.9663
2.4690 0.0734 -0.8211 0.9896
2.4688 0.1627 -0.8224 0.9896
2.4680 0.3427 -0.8282 0.9896
2.4652 0.8123 -0.8628 0.9891
2.4643 0.9119 -0.8734 0.9890
2.4625 1.1191 -0.8991 0.9887
2.4563 1.7055 -0.9940 0.9875
2.4547 1.8391 -1.0196 0.9872
2.4529 1.9798 -1.0478 0.9868
2.4378 2.8285 -1.2412 0.9844
2.4345 3.0399 -1.2946 0.9837
2.4310 3.2705 -1.3546 0.9830
2.4270 3.5238 -1.4223 0.9821
2.4224 3.8040 -1.4991 0.9812
2.4172 4.1164 -1.5868 0.9801
2.3963 5.3267 -1.9416 0.9757
2.3868 5.8620 -2.1039 0.9737
2.3754 6.4954 -2.2989 0.9713
2.4656 0.1625 -0.8836 0.9896
2.4653 0.2521 -0.8862 0.9895
2.4649 0.3422 -0.8899 0.9895
2.4644 0.4333 -0.8948 0.9894
2.4639 0.5254 -0.9009 0.9894
2.4633 0.6190 -0.9083 0.9893
2.4626 0.7141 -0.9169 0.9892
2.4591 1.1176 -0.9660 0.9886
2.4569 1.3380 -1.0004 0.9882
2.4541 1.5760 -1.0430 0.9877
2.4446 2.2830 -1.1962 0.9859
2.4421 2.4514 -1.2374 0.9854
2.4258 3.2635 -1.4541 0.9829
2.4111 4.1060 -1.7028 0.9800
2.3890 5.3103 -2.0823 0.9756
2.3668 6.4718 -2.4643 0.9712
2.1929 6.7407 -2.5349 0.9703
1.4292 6.8292 -2.4951 0.9708
2.4624 0.1623 -0.9457 0.9895
2.4617 0.3418 -0.9524 0.9894
2.4612 0.4327 -0.9576 0.9894
2.4600 0.6181 -0.9720 0.9892
2.4593 0.7132 -0.9813 0.9891
2.4586 0.8102 -0.9920 0.9890
2.4577 0.9094 -1.0042 0.9888
2.4519 1.4524 -1.0921 0.9879
2.4504 1.5736 -1.1160 0.9876
2.4488 1.7003 -1.1424 0.9873
2.4404 2.2790 -1.2796 0.9858
2.4377 2.4470 -1.3236 0.9853
2.4489 2.6424 -1.3806 0.9847
2.4205 3.2564 -1.5549 0.9828
2.4160 3.5079 -1.6323 0.9819
2.4108 3.7858 -1.7200 0.9810
2.3906 4.8394 -2.0685 0.9771
2.3815 5.2938 -2.2245 0.9754
2.3709 5.8228 -2.4093 0.9734
2.2758 6.2229 -2.5392 0.9720
1.3310 6.3597 -2.4900 0.9726
2.4595 0.0732 -1.0071 0.9894
2.4592 0.1621 -1.0087 0.9894
2.4574 0.5241 -1.0283 0.9892
2.4567 0.6173 -1.0367 0.9891
2.4552 0.8091 -1.0580 0.9889
2.4543 0.9082 -1.0710 0.9888
2.4533 1.0098 -1.0858 0.9886
2.4522 1.1144 -1.1024 0.9884
2.4510 1.2223 -1.1210 0.9882
2.4482 1.4502 -1.1646 0.9878
2.4466 1.5711 -1.1900 0.9875
2.4430 1.8303 -1.2493 0.9869
2.4409 1.9701 -1.2838 0.9865
2.4491 2.6426 -1.4746 0.9845
2.4232 2.8115 -1.5191 0.9841
2.4104 3.4997 -1.7392 0.9818
2.4049 3.7765 -1.8324 0.9808
2.3917 4.4316 -2.0611 0.9785
2.3740 5.2771 -2.3683 0.9753
2.3429 5.7540 -2.5427 0.9735
1.2440 5.9440 -2.4854 0.9741
2.4551 0.3409 -1.0802 0.9892
2.4534 0.6165 -1.1024 0.9890
2.4526 0.7113 -1.1129 0.9889
2.4508 0.9069 -1.1389 0.9887
2.4486 1.1128 -1.1722 0.9883
2.4474 1.2205 -1.1919 0.9881
2.4460 1.3321 -1.2138 0.9879
2.4444 1.4480 -1.2382 0.9877
2.4428 1.5687 -1.2652 0.9874
2.4368 1.9668 -1.3647 0.9864
2.4343 2.1143 -1.4052 0.9860
2.4288 2.4380 -1.4998 0.9851
2.4493 2.6427 -1.5703 0.9844
2.4182 2.8058 -1.6143 0.9840
2.4142 3.0145 -1.6832 0.9833
2.4097 3.2420 -1.7605 0.9825
2.4047 3.4915 -1.8476 0.9817
2.3925 4.0742 -2.0591 0.9796
2.3851 4.4193 -2.1886 0.9783
2.3764 4.8108 -2.3385 0.9769
2.1935 5.3870 -2.5349 0.9749
1.9894 5.4397 -2.5243 0.9750
1.7843 5.4846 -2.5136 0.9751
1.5786 5.5217 -2.5029 0.9753
1.3725 5.5511 -2.4921 0.9754
2.4529 0.0730 -1.1359 0.9892
2.4522 0.2507 -1.1410 0.9892
2.4518 0.3404 -1.1458 0.9891
2.4499 0.6156 -1.1693 0.9889
2.4491 0.7103 -1.1804 0.9888
2.4473 0.9056 -1.2079 0.9886
2.4462 1.0069 -1.2245 0.9884
2.4450 1.1111 -1.2431 0.9882
2.4437 1.2187 -1.2640 0.9880
2.4422 1.3301 -1.2872 0.9878
2.4370 1.6921 -1.3733 0.9870
2.4326 1.9634 -1.4470 0.9863
2.4272 2.2668 -1.5373 0.9855
2.3989 3.4831 -1.9577 0.9815
2.3783 4.4067 -2.3179 0.9782
2.3692 4.7962 -2.4762 0.9767
2.2494 5.0000 -2.5378 0.9761
1.6762 5.1523 -2.5080 0.9764
1.4833 5.1885 -2.4979 0.9765
1.0965 5.2393 -2.4778 0.9767
2.4496 0.0729 -1.2021 0.9891
2.4493 0.1614 -1.2040 0.9891
2.4447 0.8056 -1.2626 0.9886
2.4437 0.9042 -1.2781 0.9885
2.4426 1.0054 -1.2957 0.9883
2.4399 1.2169 -1.3374 0.9879
2.4368 1.4434 -1.3892 0.9875
2.4349 1.5636 -1.4195 0.9872
2.4329 1.6893 -1.4529 0.9869
2.4227 2.2625 -1.6260 0.9853
2.4036 3.0012 -1.8861 0.9830
2.3930 3.4746 -2.0695 0.9814
2.3714 4.3940 -2.4492 0.9780
1.9386 4.7612 -2.5216 0.9774
1.7591 4.8101 -2.5123 0.9774
1.2154 4.9158 -2.4839 0.9777
2.4461 0.0728 -1.2695 0.9890
2.4454 0.2500 -1.2752 0.9890
2.4449 0.3395 -1.2805 0.9889
2.4444 0.4297 -1.2875 0.9889
2.4437 0.5211 -1.2962 0.9888
2.4429 0.6138 -1.3067 0.9887
2.4421 0.7082 -1.3191 0.9886
2.4411 0.8044 -1.3334 0.9885
2.4389 1.0039 -1.3682 0.9882
2.4376 1.1077 -1.3890 0.9880
2.4328 1.4411 -1.4669 0.9873
2.4309 1.5611 -1.4987 0.9871
2.4265 1.8179 -1.5729 0.9864
2.4240 1.9564 -1.6160 0.9861
2.4212 2.1028 -1.6637 0.9857
2.4181 2.2582 -1.7164 0.9852
2.4147 2.4239 -1.7750 0.9847
2.4110 2.6014 -1.8400 0.9841
2.4028 2.7879 -1.9093 0.9836
2.3871 3.4660 -2.1833 0.9812
2.3805 3.7382 -2.2991 0.9802
2.3730 4.0411 -2.4312 0.9791
2.3271 4.3118 -2.5419 0.9782
1.4898 4.5794 -2.4982 0.9785
1.3189 4.6136 -2.4893 0.9786
0.9759 4.6630 -2.4715 0.9788
2.4426 0.0726 -1.3384 0.9889
2.4423 0.1610 -1.3405 0.9889
2.4419 0.2496 -1.3444 0.9889
2.4401 0.5204 -1.3665 0.9887
2.4384 0.7071 -1.3906 0.9885
2.4351 1.0023 -1.4423 0.9881
2.4322 1.2130 -1.4886 0.9877
2.4267 1.5584 -1.5796 0.9869
2.4245 1.6835 -1.6167 0.9866
2.4221 1.8147 -1.6577 0.9863
2.4098 2.4191 -1.8702 0.9845
2.4060 2.5960 -1.9386 0.9840
2.3974 2.7817 -2.0113 0.9834
2.3926 2.9875 -2.0963 0.9827
2.3871 3.2116 -2.1917 0.9819
2.3741 3.7282 -2.4208 0.9800
1.8869 4.1942 -2.5189 0.9792
1.5692 4.2909 -2.5024 0.9794
0.9233 4.4118 -2.4687 0.9797
2.4371 0.4285 -1.4287 0.9886
2.4347 0.7061 -1.4636 0.9884
2.4312 1.0007 -1.5179 0.9879
2.4298 1.1042 -1.5409 0.9877
2.4282 1.2110 -1.5666 0.9875
2.4178 1.8114 -1.7442 0.9861
2.4150 1.9492 -1.7918 0.9858
2.4120 2.0948 -1.8444 0.9854
2.4086 2.2494 -1.9027 0.9849
2.4049 2.4141 -1.9673 0.9844
2.4009 2.5904 -2.0392 0.9838
2.3920 2.7753 -2.1153 0.9832
2.3869 2.9804 -2.2045 0.9825
2.3812 3.2036 -2.3046 0.9817
2.3748 3.4482 -2.4173 0.9808
2.2247 3.7885 -2.5365 0.9799
1.7862 3.9705 -2.5137 0.9801
1.6368 4.0199 -2.5059 0.9802
1.3343 4.1015 -2.4901 0.9803
1.0286 4.1602 -2.4742 0.9804
0.8750 4.1810 -2.4662 0.9805
