ply
format ascii 1.0
element vertex 521
property float32 x
property float32 y
property float32 z
property float32 I
end_header
1.9326 10.2692 1.8425 0.9584
-26.9702 26.5257 6.6702 0.8576
-27.2546 19.9531 5.9559 0.8718
-27.4472 18.6032 5.8466 0.8740
-21.9804 12.6754 4.4740 0.9021
11.0336 41.7130 6.6100 0.8398
-27.0601 30.7824 6.2787 0.8472
-27.1835 26.7355 5.8410 0.8570
-27.2984 24.9661 5.6672 0.8610
-27.2221 23.1398 5.4733 0.8654
-27.3380 21.5800 5.3356 0.8685
-27.4247 20.0775 5.2069 0.8715
-27.4861 18.6296 5.0868 0.8743
-27.4663 17.1960 4.9643 0.8771
-27.4107 15.8069 4.8474 0.8798
1.9381 10.2987 1.3646 0.9586
-27.1023 28.6629 5.1369 0.8529
-27.3413 25.0054 4.8249 0.8612
-27.2636 23.1751 4.6596 0.8656
-27.3786 21.6121 4.5422 0.8687
-27.3337 20.0109 4.4113 0.8723
-27.5042 17.2197 4.2257 0.8773
-27.5419 15.8825 4.1401 0.8796
12.6194 41.5480 4.6627 0.8397
1.9409 10.3133 1.1269 0.9587
-27.0884 33.1676 4.5985 0.8417
-27.2717 26.8223 4.1075 0.8574
-27.3241 24.9896 3.9762 0.8616
-27.4623 20.1051 3.6547 0.8720
12.6321 41.5896 3.6795 0.8399
11.0120 41.6314 3.6454 0.8412
-27.3157 26.8655 3.2433 0.8574
-25.4293 23.2567 2.9172 0.8708
-27.4593 21.6758 2.9615 0.8690
-27.4855 17.2080 2.7451 0.8779
-27.6160 15.9252 2.6986 0.8799
-27.2487 30.9969 2.5592 0.8476
-27.4997 21.7077 2.1725 0.8690
-27.6407 18.7344 2.0706 0.8747
-27.6529 15.9465 1.9795 0.8799
-27.2351 33.3472 1.6977 0.8417
-27.2957 31.0504 1.6302 0.8475
-27.4117 28.9901 1.5732 0.8524
-27.4036 26.9520 1.5156 0.8574
-27.4710 25.1240 1.4679 0.8615
-25.7874 20.3560 1.2954 0.8768
-25.8252 18.9066 1.2620 0.8797
-27.6899 15.9679 1.2604 0.8799
-27.2841 33.4072 0.7286 0.8415
-27.3972 28.9747 0.6736 0.8525
-27.4476 26.9952 0.6503 0.8573
-27.5804 21.7714 0.5936 0.8689
-25.9304 16.2344 0.5168 0.8848
-25.9623 14.9717 0.5062 0.8870
2.6841 34.7186 -0.1961 0.8700
-25.5638 31.3007 -0.2275 0.8507
-25.6662 27.1441 -0.2103 0.8612
-25.7119 25.2881 -0.2030 0.8657
-25.9352 16.2374 -0.1723 0.8848
2.4653 10.9067 -0.3149 0.9562
2.4560 13.0506 -0.3739 0.9482
2.4463 16.2158 -0.4618 0.9365
2.4208 21.2481 -0.6022 0.9180
-22.4457 44.5031 -1.4035 0.8192
-23.3741 39.0202 -1.2808 0.8336
-24.5175 32.3476 -1.1429 0.8501
-25.3373 28.8226 -1.0806 0.8576
-25.5032 25.0829 -1.0072 0.8666
-25.9056 18.9654 -0.9040 0.8794
-25.9389 17.5809 -0.8823 0.8822
2.4612 9.3048 -0.4881 0.9622
2.4412 12.9720 -0.6694 0.9485
1.5657 10.3785 -0.5323 0.9588
2.3566 30.4824 -1.5505 0.8847
0.2200 47.9558 -2.4321 0.8252
-3.2219 47.3190 -2.4053 0.8270
-4.7708 45.5879 -2.3246 0.8323
-6.2138 43.9168 -2.2494 0.8372
-9.9904 39.2203 -2.0526 0.8504
-11.0886 37.7500 -1.9953 0.8542
-13.0793 34.9309 -1.8916 0.8612
-13.9815 33.5774 -1.8446 0.8644
-14.8274 32.2583 -1.8005 0.8675
-15.6208 30.9713 -1.7592 0.8703
-17.0635 28.4852 -1.6840 0.8755
-17.7188 27.2827 -1.6498 0.8778
-18.3337 26.1048 -1.6178 0.8801
-19.9588 22.7043 -1.5331 0.8860
-20.4339 21.6103 -1.5083 0.8877
-21.2945 19.4752 -1.4635 0.8909
-22.0451 17.4020 -1.4244 0.8936
-22.3823 16.3861 -1.4068 0.8948
-22.6955 15.3827 -1.3905 0.8960
-22.9858 14.3909 -1.3753 0.8971
-23.2540 13.4099 -1.3614 0.8981
2.4644 8.1139 -0.6218 0.9666
2.4504 9.2640 -0.7026 0.9623
2.4404 10.7963 -0.8116 0.9566
2.4266 12.8941 -0.9620 0.9487
1.5611 10.3480 -0.7673 0.9589
2.3154 29.9487 -2.2025 0.8865
1.3894 33.9724 -2.4930 0.8725
-3.4012 32.4998 -2.3960 0.8772
-4.4574 31.5028 -2.3329 0.8802
-6.4531 29.8178 -2.2369 0.8848
-7.3697 28.9327 -2.1891 0.8871
-8.2401 28.0527 -2.1438 0.8893
-9.0665 27.1781 -2.1007 0.8914
-10.5955 25.4459 -2.0210 0.8953
-13.2097 22.0520 -1.8848 0.9020
-14.3203 20.3901 -1.8269 0.9049
-16.6060 16.3324 -1.7078 0.9108
-17.6819 13.9578 -1.6517 0.9136
-18.8163 10.8508 -1.5926 0.9166
2.4397 9.2234 -0.9159 0.9624
2.4280 10.7417 -1.0573 0.9567
2.4121 12.8169 -1.2521 0.9489
1.5571 10.3217 -1.0021 0.9589
1.0537 25.7638 -2.4755 0.9016
-0.8351 26.3364 -2.5297 0.8995
-3.4896 24.6630 -2.3914 0.9048
-4.3042 24.0849 -2.3489 0.9064
-5.0854 23.4984 -2.3082 0.9079
-5.8343 22.9046 -2.2692 0.9094
-6.5516 22.3043 -2.2318 0.9108
-7.2384 21.6982 -2.1960 0.9122
-7.8957 21.0871 -2.1617 0.9135
-8.5244 20.4718 -2.1290 0.9147
-10.7694 17.9782 -2.0120 0.9192
-11.2674 17.3490 -1.9860 0.9202
-11.7414 16.7182 -1.9613 0.9212
-12.1923 16.0862 -1.9378 0.9221
-13.0274 14.8194 -1.8943 0.9238
-14.1218 12.9154 -1.8373 0.9260
-14.7524 11.6453 -1.8044 0.9273
-15.7926 9.1071 -1.7502 0.9294
2.4158 10.6875 -1.3016 0.9568
2.3976 12.7404 -1.5399 0.9491
1.5555 10.3107 -1.2386 0.9589
2.3274 20.4277 -2.4422 0.9205
0.0937 20.4187 -2.4255 0.9210
-0.6771 21.3548 -2.5379 0.9175
-2.1562 20.6041 -2.4608 0.9199
-3.5379 19.7968 -2.3888 0.9222
-6.5833 17.5823 -2.2301 0.9272
-7.1255 17.1123 -2.2019 0.9281
-7.6461 16.6350 -2.1747 0.9289
-8.6250 15.6605 -2.1237 0.9305
-9.0840 15.1646 -2.0998 0.9313
-9.9431 14.1575 -2.0550 0.9327
-10.7261 13.1333 -2.0142 0.9340
-11.4361 12.0947 -1.9772 0.9351
-11.7646 11.5707 -1.9601 0.9357
-12.6479 9.9840 -1.9141 0.9372
-12.9092 9.4509 -1.9005 0.9376
-13.1546 8.9159 -1.8877 0.9380
-13.5979 7.8415 -1.8646 0.9387
2.4311 8.0041 -1.1853 0.9668
2.4036 10.6335 -1.5447 0.9569
1.5538 10.2997 -1.4759 0.9588
2.0179 17.7115 -2.5258 0.9305
0.0785 17.1126 -2.4247 0.9332
-0.5689 17.9427 -2.5436 0.9300
-3.0008 16.7912 -2.4168 0.9334
-3.5641 16.4688 -2.3875 0.9342
-4.6376 15.7882 -2.3315 0.9357
-5.1479 15.4315 -2.3049 0.9364
-7.4409 13.5106 -2.1854 0.9396
-8.2407 12.6888 -2.1438 0.9407
-9.3195 11.4111 -2.0875 0.9422
-10.2580 10.0890 -2.0386 0.9435
-10.5406 9.6401 -2.0239 0.9439
-11.3001 8.2728 -1.9843 0.9450
-11.5245 7.8111 -1.9726 0.9453
2.4213 7.9719 -1.3725 0.9668
2.4077 9.1027 -1.5511 0.9625
2.3914 10.5797 -1.7869 0.9570
2.3691 12.5886 -2.1102 0.9494
1.5521 10.2886 -1.7141 0.9587
1.7251 15.1413 -2.5105 0.9401
1.1610 15.0160 -2.4811 0.9408
-1.0388 15.2560 -2.5191 0.9399
-1.5740 15.0399 -2.4912 0.9405
-3.5763 14.0402 -2.3868 0.9430
-4.4932 13.4688 -2.3391 0.9441
-7.2572 11.1744 -2.1950 0.9474
-8.2330 10.0807 -2.1442 0.9486
-8.5310 9.7045 -2.1286 0.9490
-8.8156 9.3232 -2.1138 0.9493
-9.3449 8.5465 -2.0862 0.9500
-10.2466 6.9450 -2.0392 0.9511
-10.4400 6.5362 -2.0291 0.9513
-10.6207 6.1246 -2.0197 0.9515
2.3971 9.0626 -1.7620 0.9626
2.3793 10.5261 -2.0284 0.9570
1.0144 13.1203 -2.4735 0.9478
0.5323 13.0149 -2.4483 0.9484
0.0592 12.8945 -2.4237 0.9489
-0.4301 13.5641 -2.5508 0.9463
-1.3849 13.2339 -2.5010 0.9473
-1.8462 13.0483 -2.4770 0.9478
-2.7354 12.6392 -2.4307 0.9487
-3.1628 12.4168 -2.4084 0.9492
-3.5787 12.1832 -2.3867 0.9496
-3.9828 11.9391 -2.3657 0.9501
-5.4807 10.8667 -2.2876 0.9517
-6.1578 10.2796 -2.2523 0.9524
-7.0831 9.3453 -2.2041 0.9534
-7.9007 8.3557 -2.1615 0.9543
-8.1495 8.0152 -2.1485 0.9545
-8.3864 7.6700 -2.1362 0.9548
-9.3956 5.8824 -2.0836 0.9559
-9.5627 5.5145 -2.0749 0.9561
2.4018 7.9076 -1.7469 0.9668
2.2191 11.7915 -2.5363 0.9521
0.4727 11.5583 -2.4452 0.9538
0.0526 11.4643 -2.4233 0.9542
-0.3828 12.0729 -2.5533 0.9518
-2.0525 11.4854 -2.4662 0.9534
-2.8325 11.1200 -2.4256 0.9542
-3.5735 10.7120 -2.3870 0.9549
-4.2744 10.2652 -2.3505 0.9556
-5.2484 9.5297 -2.2997 0.9565
-6.1281 8.7256 -2.2539 0.9573
-8.1927 5.9978 -2.1463 0.9593
2.3759 8.9824 -2.1837 0.9625
2.3551 10.4190 -2.5105 0.9571
1.5480 10.2610 -2.4389 0.9583
1.1959 10.4967 -2.4829 0.9575
0.4247 10.3849 -2.4427 0.9582
-0.3446 10.8669 -2.5553 0.9563
-0.7327 10.7614 -2.5350 0.9566
-1.1139 10.6437 -2.5152 0.9570
-1.4876 10.5142 -2.4957 0.9573
-1.8538 10.3734 -2.4766 0.9576
-2.5623 10.0594 -2.4397 0.9582
-2.9042 9.8871 -2.4219 0.9585
-3.8781 9.3137 -2.3711 0.9594
-4.1851 9.1050 -2.3551 0.9597
-4.4829 8.8882 -2.3396 0.9599
-5.0508 8.4317 -2.3100 0.9604
-5.3208 8.1927 -2.2959 0.9607
-5.8323 7.6950 -2.2693 0.9611
-6.0738 7.4369 -2.2567 0.9613
-6.5278 6.9037 -2.2330 0.9617
-6.7404 6.6293 -2.2219 0.9619
-7.6576 5.1902 -2.1741 0.9627
-7.8119 4.8908 -2.1661 0.9628
-7.9563 4.5882 -2.1586 0.9630
2.3822 7.8431 -2.1223 0.9667
0.7320 9.4680 -2.4588 0.9615
-0.3130 9.8704 -2.5569 0.9600
-1.0132 9.6815 -2.5204 0.9606
-2.3370 9.1750 -2.4514 0.9616
-2.9567 8.8630 -2.4191 0.9621
-4.6284 7.7265 -2.3320 0.9635
-4.8782 7.5113 -2.3190 0.9637
-5.1196 7.2897 -2.3064 0.9639
-6.3853 5.8398 -2.2404 0.9649
-6.5654 5.5809 -2.2311 0.9650
-6.7365 5.3177 -2.2221 0.9652
-7.3311 4.2276 -2.1912 0.9656
2.3723 7.8107 -2.3109 0.9666
2.2946 8.6746 -2.5402 0.9634
1.9650 8.6930 -2.5230 0.9636
1.6372 8.6992 -2.5059 0.9639
0.9886 8.6764 -2.4721 0.9643
0.0394 8.5797 -2.4289 0.9650
-0.2864 9.0323 -2.5583 0.9631
-0.9283 8.8703 -2.5248 0.9636
-1.8506 8.5510 -2.4768 0.9643
-4.0274 7.3125 -2.3633 0.9659
-4.2673 7.1237 -2.3508 0.9661
-4.7243 6.7267 -2.3270 0.9664
-5.3509 6.0870 -2.2944 0.9669
-5.9053 5.4008 -2.2655 0.9673
-6.2338 4.9209 -2.2483 0.9675
-6.5292 4.4254 -2.2330 0.9677
-6.6644 4.1724 -2.2259 0.9678
-6.7912 3.9162 -2.2193 0.9679
2.3624 7.7781 -2.5003 0.9666
2.1036 7.9528 -2.5302 0.9662
1.8025 7.9741 -2.5145 0.9664
0.9083 7.9722 -2.4679 0.9670
0.6147 7.9503 -2.4526 0.9672
0.3238 7.9181 -2.4375 0.9674
0.0363 7.9064 -2.4319 0.9675
-0.5619 8.2517 -2.5439 0.9660
-0.8556 8.1764 -2.5286 0.9662
-1.7083 7.8938 -2.4842 0.9668
-1.9821 7.7817 -2.4699 0.9670
-2.7691 7.3954 -2.4289 0.9675
-3.0193 7.2510 -2.4159 0.9677
-3.2631 7.0991 -2.4032 0.9678
-3.5004 6.9402 -2.3908 0.9680
-3.7310 6.7744 -2.3788 0.9682
-3.9548 6.6021 -2.3671 0.9683
-4.1717 6.4234 -2.3558 0.9685
-4.3815 6.2387 -2.3449 0.9686
-4.5842 6.0483 -2.3343 0.9687
-4.7797 5.8524 -2.3241 0.9689
-4.9678 5.6512 -2.3143 0.9690
-5.4874 5.0186 -2.2872 0.9694
-5.6454 4.7989 -2.2790 0.9695
-5.7958 4.5751 -2.2712 0.9696
-5.9385 4.3476 -2.2637 0.9697
-6.2005 3.8820 -2.2501 0.9698
2.2174 7.3004 -2.5362 0.9684
1.9399 7.3340 -2.5217 0.9685
1.3871 7.3702 -2.4929 0.9689
1.1123 7.3730 -2.4786 0.9691
0.8393 7.3660 -2.4643 0.9692
0.0336 7.3237 -2.4345 0.9696
-0.5203 7.6419 -2.5461 0.9682
-0.7928 7.5755 -2.5319 0.9684
-1.0612 7.5001 -2.5179 0.9686
-1.3253 7.4159 -2.5041 0.9687
-1.5848 7.3231 -2.4906 0.9689
-1.8396 7.2221 -2.4773 0.9691
-2.5730 6.8719 -2.4391 0.9695
-3.0343 6.6015 -2.4151 0.9698
-3.2561 6.4560 -2.4035 0.9700
-4.4549 5.4547 -2.3411 0.9707
-4.8014 5.0779 -2.3230 0.9710
-4.9642 4.8824 -2.3145 0.9711
-5.1201 4.6826 -2.3064 0.9712
-5.2688 4.4787 -2.2986 0.9713
-5.6719 3.8443 -2.2776 0.9715
-5.7917 3.6260 -2.2714 0.9716
1.2866 6.8364 -2.4877 0.9709
1.0322 6.8419 -2.4744 0.9710
0.7791 6.8382 -2.4612 0.9712
0.5277 6.8254 -2.4481 0.9713
-0.4840 7.1086 -2.5480 0.9702
-0.7377 7.0496 -2.5348 0.9703
-1.4765 6.8225 -2.4963 0.9708
-1.7145 6.7309 -2.4839 0.9709
-2.1767 6.5249 -2.4598 0.9712
-2.8327 6.1629 -2.4256 0.9716
-3.0408 6.0290 -2.4147 0.9717
-3.6310 5.5909 -2.3840 0.9721
-4.1674 5.1027 -2.3560 0.9724
-4.3338 4.9300 -2.3474 0.9725
-4.4938 4.7526 -2.3390 0.9726
-4.6473 4.5707 -2.3310 0.9727
-4.7943 4.3847 -2.3234 0.9728
-5.4284 3.3986 -2.2903 0.9732
1.9113 6.2926 -2.5202 0.9722
1.6735 6.3265 -2.5078 0.9724
1.1984 6.3677 -2.4831 0.9726
0.7263 6.3740 -2.4585 0.9729
0.2596 6.3465 -2.4341 0.9732
-0.2119 6.6826 -2.5622 0.9718
-0.9231 6.5242 -2.5251 0.9722
-1.1537 6.4556 -2.5131 0.9723
-1.3806 6.3793 -2.5013 0.9724
-1.6036 6.2956 -2.4896 0.9726
-2.0372 6.1068 -2.4670 0.9728
-2.2474 6.0022 -2.4561 0.9729
-2.4529 5.8909 -2.4454 0.9730
-2.6536 5.7732 -2.4349 0.9731
-2.8493 5.6494 -2.4247 0.9733
-3.2252 5.3841 -2.4051 0.9735
-3.4051 5.2430 -2.3958 0.9736
-3.5794 5.0966 -2.3867 0.9737
-3.7481 4.9451 -2.3779 0.9738
-4.0680 4.6277 -2.3612 0.9740
-4.2191 4.4621 -2.3533 0.9740
-4.3642 4.2922 -2.3458 0.9741
-4.5030 4.1184 -2.3385 0.9742
-4.6358 3.9406 -2.3316 0.9743
-4.9959 3.3862 -2.3129 0.9745
-5.1031 3.1949 -2.3073 0.9745
1.7849 5.8766 -2.5136 0.9738
1.3417 5.9355 -2.4905 0.9740
1.1203 5.9525 -2.4790 0.9742
0.8994 5.9614 -2.4675 0.9743
0.6793 5.9623 -2.4560 0.9744
0.4604 5.9552 -2.4446 0.9745
0.2430 5.9404 -2.4333 0.9746
0.0275 5.9885 -2.4510 0.9744
-0.4234 6.2189 -2.5511 0.9734
-1.2950 5.9838 -2.5057 0.9739
-1.7105 5.8234 -2.4841 0.9741
-1.9125 5.7331 -2.4735 0.9742
-2.3040 5.5333 -2.4531 0.9744
-2.4932 5.4242 -2.4433 0.9745
-2.6777 5.3092 -2.4337 0.9746
-2.8575 5.1885 -2.4243 0.9747
-3.0325 5.0623 -2.4152 0.9748
-3.2023 4.9308 -2.4063 0.9749
-3.5265 4.6528 -2.3894 0.9751
-3.6806 4.5066 -2.3814 0.9752
-3.8292 4.3559 -2.3737 0.9752
-3.9721 4.2009 -2.3662 0.9753
-4.2410 3.8787 -2.3522 0.9755
-4.3667 3.7119 -2.3456 0.9755
-4.4865 3.5416 -2.3394 0.9756
-4.9054 2.8288 -2.3176 0.9758
1.6723 5.5058 -2.5078 0.9752
1.0505 5.5818 -2.4754 0.9755
0.8436 5.5918 -2.4646 0.9756
0.6374 5.5942 -2.4538 0.9757
0.4322 5.5892 -2.4431 0.9758
0.2281 5.5768 -2.4325 0.9759
-0.1864 5.8791 -2.5635 0.9747
-0.3979 5.8432 -2.5525 0.9748
-0.8135 5.7498 -2.5308 0.9750
-1.0173 5.6925 -2.5202 0.9751
-1.2180 5.6284 -2.5097 0.9752
-1.4156 5.5576 -2.4994 0.9753
-1.9871 5.3069 -2.4697 0.9756
-2.5230 5.0024 -2.4417 0.9759
-2.8585 4.7719 -2.4242 0.9760
-3.0192 4.6489 -2.4159 0.9761
-3.3262 4.3885 -2.3999 0.9763
-3.4722 4.2514 -2.3923 0.9763
-3.6130 4.1100 -2.3849 0.9764
-3.7486 3.9645 -2.3779 0.9765
-3.8788 3.8149 -2.3711 0.9765
-4.2368 3.3444 -2.3524 0.9767
-4.3449 3.1809 -2.3468 0.9768
-4.4473 3.0143 -2.3414 0.9768
-4.5439 2.8448 -2.3364 0.9769
1.5712 5.1729 -2.5025 0.9765
1.1823 5.2305 -2.4822 0.9766
0.7935 5.2592 -2.4620 0.9768
0.5996 5.2628 -2.4519 0.9769
0.4067 5.2595 -2.4418 0.9770
0.2147 5.2492 -2.4318 0.9771
-1.1485 5.3069 -2.5134 0.9764
-1.5185 5.1697 -2.4941 0.9765
-1.6987 5.0920 -2.4847 0.9766
-1.8753 5.0084 -2.4755 0.9767
-2.0482 4.9191 -2.4665 0.9768
-2.2174 4.8242 -2.4577 0.9769
-2.5437 4.6185 -2.4407 0.9770
-2.8529 4.3928 -2.4245 0.9772
-3.5451 3.7493 -2.3885 0.9775
-3.6689 3.6084 -2.3820 0.9776
-4.3878 2.5303 -2.3446 0.9779
1.2972 4.9039 -2.4882 0.9777
0.9310 4.9468 -2.4691 0.9778
0.7480 4.9581 -2.4596 0.9779
0.3836 4.9607 -2.4406 0.9781
-0.1657 5.2256 -2.5646 0.9770
-0.3538 5.1962 -2.5548 0.9771
-0.9059 5.0693 -2.5260 0.9773
-1.2617 4.9536 -2.5075 0.9775
-1.4354 4.8869 -2.4984 0.9776
-2.0978 4.5639 -2.4639 0.9779
-2.9776 3.9286 -2.4180 0.9783
-3.1093 3.8071 -2.4112 0.9783
-3.2364 3.6817 -2.4046 0.9784
-3.3589 3.5524 -2.3982 0.9785
-3.4767 3.4194 -2.3920 0.9785
-3.5896 3.2829 -2.3861 0.9786
-4.0790 2.5538 -2.3606 0.9788
1.3969 4.5988 -2.4934 0.9786
1.0521 4.6542 -2.4754 0.9787
0.8793 4.6723 -2.4664 0.9788
0.3625 4.6884 -2.4395 0.9790
0.0219 4.7724 -2.4758 0.9787
-0.3346 4.9151 -2.5558 0.9780
-0.5109 4.8821 -2.5466 0.9781
-1.0273 4.7470 -2.5197 0.9784
-1.1947 4.6903 -2.5110 0.9784
-1.6801 4.4871 -2.4857 0.9786
-1.9881 4.3254 -2.4696 0.9788
-2.4238 4.0462 -2.4469 0.9790
-2.5614 3.9440 -2.4397 0.9790
-2.8247 3.7269 -2.4260 0.9791
-2.9501 3.6121 -2.4195 0.9792
-3.0712 3.4936 -2.4132 0.9793
-3.6087 2.8487 -2.3852 0.9795
-3.7021 2.7103 -2.3803 0.9795
-3.7906 2.5693 -2.3757 0.9796
-3.8743 2.4256 -2.3713 0.9796
1.1584 4.3792 -2.4810 0.9796
0.8321 4.4211 -2.4640 0.9797
0.3432 4.4390 -2.4385 0.9799
0.1813 4.4331 -2.4301 0.9800
-0.3171 4.6572 -2.5567 0.9789
-0.6495 4.5906 -2.5394 0.9791
-0.8129 4.5487 -2.5309 0.9791
-1.1331 4.4483 -2.5142 0.9793
-1.4433 4.3265 -2.4980 0.9794
-1.8871 4.1057 -2.4749 0.9796
-2.1671 3.9347 -2.4603 0.9797
-2.3018 3.8425 -2.4533 0.9798
-2.9186 3.3200 -2.4211 0.9800
-3.0298 3.2043 -2.4153 0.9801
-3.2394 2.9627 -2.4044 0.9802
-3.3377 2.8372 -2.3993 0.9802
-3.4314 2.7087 -2.3944 0.9803
-3.6051 2.4435 -2.3853 0.9803
-3.6849 2.3071 -2.3812 0.9804
-3.7600 2.1683 -2.3773 0.9804
1.0975 4.1490 -2.4778 0.9804
0.6340 4.2023 -2.4536 0.9806
0.4795 4.2087 -2.4456 0.9806
0.3255 4.2094 -2.4376 0.9807
0.1720 4.2046 -2.4296 0.9808
-0.1408 4.4420 -2.5659 0.9797
-0.3009 4.4196 -2.5575 0.9797
-0.4596 4.3914 -2.5493 0.9798
-0.6166 4.3579 -2.5411 0.9799
-0.7718 4.3188 -2.5330 0.9799
-1.0761 4.2249 -2.5171 0.9801
-1.2249 4.1702 -2.5094 0.9801
-2.3138 3.5627 -2.4526 0.9806
-2.4352 3.4674 -2.4463 0.9806
-2.5530 3.3683 -2.4402 0.9807
-2.6670 3.2655 -2.4342 0.9807
-2.8833 3.0493 -2.4230 0.9808
-2.9854 2.9362 -2.4176 0.9808
-3.0835 2.8200 -2.4125 0.9809
-3.1773 2.7008 -2.4076 0.9809
-3.2669 2.5788 -2.4030 0.9810
-3.4328 2.3267 -2.3943 0.9810
-3.5810 2.0650 -2.3866 0.9811
