ply
format ascii 1.0
element vertex 554
property float32 x
property float32 y
property float32 z
property float32 I
end_header
12.5278 -11.4453 2.9921 0.9334
12.5546 -10.6657 2.9047 0.9353
7.4163 -3.9363 1.4805 0.9665
3.0829 -1.3615 0.5942 0.9864
3.1272 -1.2484 0.5937 0.9864
8.0938 -2.5724 1.4975 0.9661
19.1417 -3.8722 3.4436 0.9237
22.8914 -3.7776 4.0910 0.9101
27.4270 18.4989 5.8333 0.8743
12.5284 -11.4458 2.5996 0.9336
13.5011 -11.4697 2.7139 0.9308
14.6465 -10.7270 2.7812 0.9292
7.4134 -3.5985 1.2624 0.9672
3.0775 -1.3591 0.5154 0.9865
3.1248 -1.2474 0.5154 0.9865
7.4339 -2.6612 1.2096 0.9686
8.0986 -2.5739 1.3018 0.9662
21.6412 -3.5713 3.3601 0.9151
25.6275 18.6633 4.8567 0.8796
12.5290 -11.4463 2.2099 0.9338
7.4036 -3.5937 1.0717 0.9673
7.4245 -2.6579 1.0269 0.9687
12.6203 -11.5297 1.8356 0.9335
7.3863 -3.9204 0.8980 0.9669
7.3938 -3.5890 0.8825 0.9675
3.0670 -1.3544 0.3600 0.9866
3.1200 -1.2455 0.3607 0.9866
27.3158 18.4240 3.5380 0.8759
25.6984 18.7149 3.4137 0.8799
7.3687 -4.2582 0.7204 0.9664
7.3765 -3.9152 0.7069 0.9670
7.3841 -3.5843 0.6948 0.9676
3.0627 -1.3525 0.2834 0.9866
3.1177 -1.2446 0.2842 0.9866
7.4059 -2.6512 0.6659 0.9689
8.1128 -2.5785 0.7206 0.9664
7.3588 -4.2525 0.5270 0.9665
7.3668 -3.9100 0.5172 0.9671
3.0591 -1.3510 0.2074 0.9867
3.1153 -1.2437 0.2080 0.9866
7.3966 -2.6479 0.4872 0.9690
12.5038 -11.4234 0.6678 0.9344
7.3489 -4.2468 0.3347 0.9666
7.3571 -3.9049 0.3284 0.9672
7.3650 -3.5751 0.3228 0.9678
3.0555 -1.3494 0.1317 0.9867
7.3874 -2.6446 0.3094 0.9691
8.1222 -2.5814 0.3360 0.9665
7.3390 -4.2411 0.1432 0.9667
7.3474 -3.8997 0.1405 0.9673
7.3555 -3.5704 0.1381 0.9678
3.0520 -1.3478 0.0564 0.9867
3.1107 -1.2418 0.0566 0.9867
7.3783 -2.6413 0.1324 0.9691
26.4463 19.2596 0.5526 0.8773
13.5056 -11.4735 -0.0998 0.9316
7.3293 -4.2354 -0.0477 0.9667
7.3378 -3.8946 -0.0468 0.9673
7.3460 -3.5658 -0.0460 0.9679
3.1083 -1.2409 -0.0188 0.9867
8.1316 -2.5844 -0.0480 0.9664
25.7700 -4.2527 -0.1471 0.9008
25.7936 -3.3068 -0.1464 0.9012
26.4907 17.8675 -0.1799 0.8800
12.5329 -11.4499 -0.4780 0.9343
13.5062 -11.4740 -0.4990 0.9315
7.3365 -3.5612 -0.2296 0.9679
3.0449 -1.3447 -0.0937 0.9868
7.3601 -2.6348 -0.2201 0.9692
8.1363 -2.5859 -0.2404 0.9664
25.7395 -4.2477 -0.7346 0.9009
26.4834 17.8625 -0.8995 0.8800
26.3119 19.1617 -0.9165 0.8779
9.0586 -8.2759 -0.6223 0.9520
9.7608 -8.2921 -0.6495 0.9500
11.3731 -8.3296 -0.7149 0.9451
7.3097 -4.2241 -0.4282 0.9668
7.3186 -3.8844 -0.4202 0.9674
8.1410 -2.5874 -0.4332 0.9664
25.7328 -3.2990 -1.3157 0.9013
29.4194 12.8975 -1.6291 0.8793
29.4879 15.5494 -1.6906 0.8750
26.4759 17.8575 -1.6196 0.8799
26.2730 19.1334 -1.6483 0.8779
2.5038 -2.2875 -0.2487 0.9865
2.5039 -2.1271 -0.2409 0.9869
2.5039 -1.9763 -0.2339 0.9873
2.5039 -1.8338 -0.2276 0.9876
2.5038 -1.5699 -0.2167 0.9882
2.5037 -1.4469 -0.2120 0.9885
2.5037 -1.3289 -0.2078 0.9887
2.5036 -1.2153 -0.2041 0.9889
2.5034 -0.9994 -0.1976 0.9892
2.5032 -0.7956 -0.1926 0.9895
2.5031 -0.6973 -0.1905 0.9896
2.5029 -0.6010 -0.1887 0.9897
2.5028 -0.5063 -0.1872 0.9898
2.5027 -0.4130 -0.1860 0.9899
2.5025 -0.3208 -0.1850 0.9899
2.5019 -0.0485 -0.1835 0.9900
2.5010 0.3137 -0.1848 0.9899
2.5007 0.4057 -0.1858 0.9899
2.4998 0.6891 -0.1901 0.9897
2.4995 0.7870 -0.1921 0.9895
2.4984 1.0953 -0.2000 0.9891
2.4975 1.3169 -0.2070 0.9887
2.4965 1.5559 -0.2157 0.9883
2.4959 1.6834 -0.2207 0.9880
2.5003 -1.8312 -0.2975 0.9876
2.5004 -1.5678 -0.2833 0.9882
2.5004 -1.4450 -0.2772 0.9885
2.5004 -1.3271 -0.2718 0.9887
2.5004 -1.1042 -0.2624 0.9891
2.5003 -0.9981 -0.2585 0.9892
2.5002 -0.7946 -0.2519 0.9895
2.5000 -0.6003 -0.2468 0.9897
2.4998 -0.5057 -0.2449 0.9898
2.4997 -0.4125 -0.2432 0.9899
2.4996 -0.3204 -0.2419 0.9899
2.4994 -0.2293 -0.2410 0.9900
2.4990 -0.0484 -0.2400 0.9900
2.4988 0.0417 -0.2399 0.9900
2.4986 0.1318 -0.2402 0.9900
2.4981 0.3134 -0.2417 0.9899
2.4978 0.4053 -0.2429 0.9899
2.4975 0.4982 -0.2445 0.9898
2.4972 0.5924 -0.2464 0.9897
2.4968 0.6883 -0.2486 0.9896
2.4965 0.7860 -0.2513 0.9895
2.4961 0.8860 -0.2543 0.9894
2.4952 1.0939 -0.2616 0.9891
2.4942 1.3152 -0.2707 0.9887
2.4924 1.6811 -0.2886 0.9880
2.4960 -2.2804 -0.4016 0.9865
2.4963 -2.1207 -0.3891 0.9869
2.4967 -1.8286 -0.3676 0.9876
2.4969 -1.6939 -0.3584 0.9879
2.4970 -1.5656 -0.3501 0.9882
2.4971 -1.4430 -0.3426 0.9884
2.4972 -1.2122 -0.3297 0.9889
2.4972 -0.8940 -0.3151 0.9894
2.4971 -0.7937 -0.3112 0.9895
2.4971 -0.6956 -0.3079 0.9896
2.4969 -0.5051 -0.3026 0.9898
2.4968 -0.4120 -0.3006 0.9899
2.4967 -0.3201 -0.2990 0.9899
2.4965 -0.2290 -0.2978 0.9900
2.4959 0.0416 -0.2965 0.9900
2.4957 0.1317 -0.2969 0.9900
2.4949 0.4048 -0.3002 0.9899
2.4946 0.4976 -0.3022 0.9898
2.4934 0.7851 -0.3105 0.9895
2.4930 0.8849 -0.3142 0.9894
2.4915 1.2011 -0.3286 0.9889
2.4897 1.5517 -0.3485 0.9883
2.4928 -1.9676 -0.4500 0.9873
2.4931 -1.8259 -0.4379 0.9876
2.4935 -1.5635 -0.4170 0.9882
2.4937 -1.4411 -0.4081 0.9884
2.4940 -1.2106 -0.3928 0.9889
2.4940 -1.1014 -0.3863 0.9890
2.4941 -0.8929 -0.3753 0.9894
2.4941 -0.7927 -0.3708 0.9895
2.4939 -0.5045 -0.3605 0.9898
2.4937 -0.3197 -0.3562 0.9899
2.4936 -0.2287 -0.3548 0.9899
2.4934 -0.1383 -0.3538 0.9900
2.4932 -0.0483 -0.3533 0.9900
2.4930 0.0415 -0.3533 0.9900
2.4928 0.1315 -0.3537 0.9900
2.4925 0.2218 -0.3546 0.9899
2.4916 0.4970 -0.3600 0.9898
2.4912 0.5910 -0.3628 0.9897
2.4899 0.8838 -0.3744 0.9894
2.4894 0.9860 -0.3794 0.9892
2.4889 1.0911 -0.3850 0.9891
2.4883 1.1996 -0.3914 0.9889
2.4863 1.5496 -0.4151 0.9882
2.4855 1.6764 -0.4248 0.9880
2.4846 1.8094 -0.4355 0.9877
2.4891 -1.9646 -0.5224 0.9872
2.4901 -1.5613 -0.4842 0.9882
2.4907 -1.2090 -0.4561 0.9888
2.4908 -1.1000 -0.4486 0.9890
2.4909 -0.9944 -0.4418 0.9892
2.4910 -0.8918 -0.4359 0.9893
2.4910 -0.7917 -0.4306 0.9895
2.4910 -0.6940 -0.4260 0.9896
2.4910 -0.5039 -0.4187 0.9898
2.4909 -0.4111 -0.4159 0.9898
2.4908 -0.3193 -0.4137 0.9899
2.4905 -0.1382 -0.4109 0.9899
2.4899 0.1314 -0.4107 0.9899
2.4896 0.2215 -0.4118 0.9899
2.4893 0.3123 -0.4133 0.9899
2.4890 0.4038 -0.4154 0.9898
2.4886 0.4964 -0.4180 0.9898
2.4878 0.6858 -0.4251 0.9896
2.4869 0.8827 -0.4347 0.9894
2.4863 0.9848 -0.4405 0.9892
2.4857 1.0897 -0.4471 0.9891
2.4851 1.1980 -0.4545 0.9889
2.4829 1.5475 -0.4820 0.9882
2.4820 1.6740 -0.4932 0.9879
2.4811 1.8068 -0.5056 0.9876
2.4842 -2.2696 -0.6325 0.9864
2.4848 -2.1110 -0.6128 0.9868
2.4854 -1.9617 -0.5951 0.9872
2.4863 -1.6867 -0.5647 0.9878
2.4872 -1.3202 -0.5293 0.9886
2.4878 -0.9931 -0.5035 0.9892
2.4879 -0.8906 -0.4967 0.9893
2.4880 -0.6931 -0.4854 0.9895
2.4880 -0.5974 -0.4809 0.9896
2.4878 -0.3189 -0.4714 0.9898
2.4877 -0.2282 -0.4696 0.9899
2.4876 -0.1380 -0.4683 0.9899
2.4864 0.3119 -0.4710 0.9899
2.4856 0.4958 -0.4764 0.9897
2.4852 0.5896 -0.4801 0.9897
2.4848 0.6850 -0.4845 0.9896
2.4811 1.3083 -0.5272 0.9886
2.4794 1.5453 -0.5491 0.9882
2.4802 -2.2659 -0.7101 0.9864
2.4810 -2.1077 -0.6881 0.9868
2.4816 -1.9588 -0.6683 0.9872
2.4822 -1.8180 -0.6504 0.9875
2.4828 -1.6843 -0.6342 0.9878
2.4832 -1.5570 -0.6195 0.9881
2.4839 -1.3184 -0.5944 0.9886
2.4842 -1.2059 -0.5837 0.9888
2.4844 -1.0972 -0.5741 0.9890
2.4849 -0.7898 -0.5511 0.9894
2.4849 -0.6923 -0.5453 0.9895
2.4850 -0.5966 -0.5402 0.9896
2.4850 -0.5027 -0.5359 0.9897
2.4847 -0.2279 -0.5274 0.9899
2.4846 -0.1378 -0.5260 0.9899
2.4844 -0.0482 -0.5253 0.9899
2.4842 0.0414 -0.5252 0.9899
2.4837 0.2210 -0.5271 0.9899
2.4834 0.3115 -0.5290 0.9898
2.4830 0.4029 -0.5317 0.9898
2.4822 0.5889 -0.5393 0.9896
2.4817 0.6841 -0.5442 0.9895
2.4800 0.9823 -0.5638 0.9892
2.4794 1.0869 -0.5722 0.9890
2.4739 1.8016 -0.6469 0.9876
2.4762 -2.2623 -0.7883 0.9863
2.4786 -1.8153 -0.7220 0.9875
2.4802 -1.4333 -0.6732 0.9883
2.4812 -1.0958 -0.6375 0.9889
2.4814 -0.9906 -0.6279 0.9891
2.4816 -0.8884 -0.6195 0.9892
2.4818 -0.7888 -0.6120 0.9894
2.4819 -0.6914 -0.6055 0.9895
2.4819 -0.4096 -0.5912 0.9897
2.4819 -0.3182 -0.5881 0.9898
2.4818 -0.2276 -0.5857 0.9898
2.4816 -0.1377 -0.5841 0.9898
2.4815 -0.0481 -0.5833 0.9899
2.4813 0.0413 -0.5832 0.9899
2.4807 0.2207 -0.5853 0.9898
2.4804 0.3112 -0.5875 0.9898
2.4800 0.4024 -0.5905 0.9897
2.4792 0.5882 -0.5988 0.9896
2.4787 0.6833 -0.6043 0.9895
2.4769 0.9810 -0.6261 0.9891
2.4754 1.1933 -0.6458 0.9888
2.4745 1.3048 -0.6575 0.9886
2.4736 1.4205 -0.6704 0.9883
2.4702 1.7989 -0.7182 0.9875
2.4732 -2.1011 -0.8402 0.9867
2.4741 -1.9528 -0.8161 0.9871
2.4749 -1.8126 -0.7943 0.9874
2.4755 -1.6795 -0.7745 0.9877
2.4767 -1.4313 -0.7406 0.9883
2.4776 -1.2027 -0.7131 0.9887
2.4779 -1.0943 -0.7013 0.9889
2.4784 -0.8873 -0.6816 0.9892
2.4788 -0.6905 -0.6662 0.9894
2.4788 -0.5952 -0.6601 0.9895
2.4789 -0.4091 -0.6505 0.9897
2.4789 -0.3178 -0.6471 0.9897
2.4787 -0.1375 -0.6427 0.9898
2.4785 -0.0480 -0.6418 0.9898
2.4783 0.0413 -0.6418 0.9898
2.4780 0.1307 -0.6425 0.9898
2.4770 0.4019 -0.6497 0.9897
2.4766 0.4940 -0.6539 0.9896
2.4744 0.8782 -0.6798 0.9892
2.4729 1.0841 -0.6991 0.9889
2.4711 1.3030 -0.7233 0.9885
2.4701 1.4186 -0.7375 0.9883
2.4690 1.5388 -0.7533 0.9881
2.4712 -1.8098 -0.8671 0.9873
2.4719 -1.6770 -0.8456 0.9877
2.4746 -1.0928 -0.7658 0.9888
2.4754 -0.7868 -0.7353 0.9893
2.4758 -0.4086 -0.7104 0.9896
2.4758 -0.3174 -0.7066 0.9897
2.4757 -0.2271 -0.7038 0.9897
2.4755 -0.0479 -0.7009 0.9898
2.4744 0.3104 -0.7060 0.9897
2.4740 0.4014 -0.7095 0.9896
2.4735 0.4934 -0.7140 0.9896
2.4730 0.5867 -0.7195 0.9895
2.4724 0.6816 -0.7260 0.9894
2.4712 0.8771 -0.7423 0.9892
2.4704 0.9785 -0.7522 0.9890
2.4687 1.1901 -0.7758 0.9887
2.4678 1.3012 -0.7898 0.9885
2.4666 1.4166 -0.8052 0.9882
2.4655 1.5366 -0.8224 0.9880
2.4628 1.7935 -0.8625 0.9874
2.4664 -1.9467 -0.9664 0.9869
2.4674 -1.8071 -0.9407 0.9873
2.4690 -1.5481 -0.8963 0.9879
2.4697 -1.4272 -0.8773 0.9881
2.4708 -1.1994 -0.8448 0.9886
2.4713 -1.0914 -0.8309 0.9888
2.4727 -0.3170 -0.7668 0.9896
2.4727 -0.2268 -0.7637 0.9897
2.4724 -0.0479 -0.7606 0.9897
2.4720 0.1304 -0.7614 0.9897
2.4717 0.2200 -0.7632 0.9897
2.4713 0.3100 -0.7661 0.9896
2.4709 0.4009 -0.7699 0.9896
2.4693 0.6807 -0.7878 0.9893
2.4687 0.7773 -0.7960 0.9892
2.4671 0.9772 -0.8162 0.9890
2.4663 1.0812 -0.8283 0.9888
2.4654 1.1885 -0.8418 0.9886
2.4643 1.2994 -0.8569 0.9884
2.4632 1.4146 -0.8737 0.9882
2.4619 1.5344 -0.8923 0.9879
2.4591 1.7908 -0.9357 0.9873
2.4625 -1.9436 -1.0428 0.9869
2.4636 -1.8043 -1.0150 0.9872
2.4645 -1.6720 -0.9899 0.9875
2.4662 -1.4252 -0.9468 0.9881
2.4674 -1.1977 -0.9117 0.9885
2.4684 -0.9854 -0.8834 0.9889
2.4687 -0.8838 -0.8716 0.9890
2.4690 -0.7847 -0.8612 0.9891
2.4693 -0.6879 -0.8520 0.9893
2.4694 -0.5929 -0.8442 0.9894
2.4696 -0.3166 -0.8276 0.9896
2.4696 -0.2265 -0.8243 0.9896
2.4693 -0.0479 -0.8210 0.9896
2.4691 0.0412 -0.8209 0.9896
2.4689 0.1303 -0.8218 0.9896
2.4686 0.2197 -0.8238 0.9896
2.4682 0.3096 -0.8269 0.9896
2.4629 1.0797 -0.8939 0.9887
2.4583 1.5322 -0.9629 0.9879
2.4569 1.6571 -0.9851 0.9876
2.4553 1.7881 -1.0097 0.9873
2.4597 -1.8015 -1.0903 0.9871
2.4617 -1.5435 -1.0391 0.9877
2.4626 -1.4231 -1.0171 0.9880
2.4633 -1.3074 -0.9973 0.9882
2.4654 -0.8826 -0.9364 0.9889
2.4664 -0.4070 -0.8939 0.9894
2.4660 0.0411 -0.8820 0.9896
2.4641 0.4915 -0.8985 0.9894
2.4635 0.5845 -0.9054 0.9893
2.4629 0.6789 -0.9136 0.9892
2.4621 0.7752 -0.9231 0.9891
2.4614 0.8737 -0.9340 0.9890
2.4596 1.0783 -0.9604 0.9887
2.4547 1.5299 -1.0343 0.9878
2.4515 1.7853 -1.0845 0.9872
2.4545 -1.9373 -1.1983 0.9867
2.4558 -1.7986 -1.1665 0.9870
2.4570 -1.6668 -1.1378 0.9874
2.4597 -1.3055 -1.0671 0.9881
2.4604 -1.1943 -1.0481 0.9884
2.4616 -0.9827 -1.0157 0.9887
2.4630 -0.5914 -0.9707 0.9892
2.4631 -0.4983 -0.9630 0.9893
2.4632 -0.1367 -0.9454 0.9895
2.4626 0.1299 -0.9450 0.9895
2.4614 0.3994 -0.9556 0.9894
2.4596 0.6780 -0.9777 0.9891
2.4538 1.2939 -1.0631 0.9882
2.4510 1.5276 -1.1068 0.9877
2.4477 1.7825 -1.1603 0.9871
2.4471 -2.2357 -1.3566 0.9858
2.4489 -2.0804 -1.3151 0.9862
2.4504 -1.9341 -1.2777 0.9866
2.4542 -1.5388 -1.1856 0.9876
2.4561 -1.3036 -1.1380 0.9881
2.4569 -1.1926 -1.1177 0.9883
2.4575 -1.0853 -1.0995 0.9885
2.4587 -0.8802 -1.0688 0.9888
2.4600 -0.4060 -1.0204 0.9893
2.4600 -0.3154 -1.0151 0.9893
2.4600 -0.2256 -1.0110 0.9894
2.4600 -0.1365 -1.0083 0.9894
2.4594 0.1298 -1.0079 0.9894
2.4590 0.2188 -1.0104 0.9894
2.4563 0.6771 -1.0428 0.9890
2.4555 0.7731 -1.0536 0.9889
2.4546 0.8712 -1.0660 0.9888
2.4537 0.9718 -1.0801 0.9887
2.4514 1.1818 -1.1138 0.9883
2.4502 1.2920 -1.1337 0.9881
2.4488 1.4063 -1.1557 0.9879
2.4472 1.5253 -1.1802 0.9876
2.4456 1.6495 -1.2073 0.9873
2.4446 -2.0768 -1.3980 0.9861
2.4463 -1.9309 -1.3582 0.9865
2.4524 -1.3017 -1.2100 0.9880
2.4532 -1.1909 -1.1885 0.9882
2.4540 -1.0838 -1.1691 0.9884
2.4546 -0.9799 -1.1518 0.9885
2.4552 -0.8789 -1.1365 0.9887
2.4556 -0.7805 -1.1229 0.9888
2.4560 -0.6842 -1.1111 0.9889
2.4565 -0.4969 -1.0923 0.9891
2.4567 -0.4054 -1.0851 0.9892
2.4567 -0.1363 -1.0723 0.9893
2.4566 -0.0476 -1.0708 0.9893
2.4564 0.0409 -1.0707 0.9893
2.4561 0.1296 -1.0719 0.9893
2.4537 0.5821 -1.0990 0.9891
2.4529 0.6762 -1.1089 0.9890
2.4521 0.7721 -1.1204 0.9888
2.4502 0.9704 -1.1485 0.9886
2.4491 1.0737 -1.1654 0.9884
2.4479 1.1801 -1.1843 0.9882
2.4435 1.5229 -1.2548 0.9875
2.4417 1.6468 -1.2835 0.9872
2.4397 1.7767 -1.3154 0.9869
2.4421 -1.9276 -1.4401 0.9864
2.4487 -1.2997 -1.2832 0.9879
2.4510 -0.9785 -1.2216 0.9884
2.4529 -0.5889 -1.1677 0.9889
2.4531 -0.4963 -1.1585 0.9890
2.4533 -0.4049 -1.1509 0.9891
2.4534 -0.2250 -1.1404 0.9892
2.4534 -0.1361 -1.1374 0.9892
2.4520 0.3076 -1.1439 0.9892
2.4515 0.3977 -1.1496 0.9891
2.4502 0.5813 -1.1656 0.9890
2.4486 0.7710 -1.1883 0.9887
2.4477 0.8688 -1.2022 0.9886
2.4466 0.9690 -1.2181 0.9885
2.4442 1.1783 -1.2560 0.9881
2.4428 1.2881 -1.2783 0.9879
2.4413 1.4020 -1.3031 0.9877
2.4396 1.5205 -1.3306 0.9874
2.4377 1.6442 -1.3611 0.9871
2.4338 -2.2235 -1.6170 0.9854
2.4359 -2.0694 -1.5678 0.9859
2.4412 -1.6561 -1.4470 0.9869
2.4425 -1.5315 -1.4141 0.9872
2.4437 -1.4122 -1.3845 0.9875
2.4449 -1.2977 -1.3577 0.9877
2.4458 -1.1872 -1.3336 0.9880
2.4467 -1.0805 -1.3120 0.9882
2.4481 -0.8764 -1.2755 0.9885
2.4486 -0.7782 -1.2603 0.9886
2.4494 -0.5881 -1.2356 0.9888
2.4500 -0.3141 -1.2116 0.9891
2.4494 0.1292 -1.2031 0.9891
2.4490 0.2179 -1.2060 0.9891
2.4481 0.3972 -1.2165 0.9890
2.4468 0.5805 -1.2335 0.9889
2.4451 0.7698 -1.2574 0.9886
2.4441 0.8675 -1.2722 0.9885
2.4430 0.9676 -1.2889 0.9884
2.4418 1.0705 -1.3078 0.9882
2.4390 1.2861 -1.3525 0.9878
2.4374 1.3998 -1.3787 0.9876
2.4356 1.5180 -1.4078 0.9873
2.4337 1.6415 -1.4399 0.9870
2.4316 1.7708 -1.4755 0.9867
2.4315 -2.0656 -1.6551 0.9857
2.4354 -1.7836 -1.5660 0.9865
2.4370 -1.6533 -1.5277 0.9868
2.4385 -1.5290 -1.4931 0.9871
2.4398 -1.4099 -1.4619 0.9874
2.4410 -1.2956 -1.4336 0.9876
2.4420 -1.1854 -1.4082 0.9878
2.4429 -1.0789 -1.3854 0.9880
2.4444 -0.8751 -1.3469 0.9884
2.4450 -0.7771 -1.3309 0.9885
2.4455 -0.6812 -1.3170 0.9886
2.4459 -0.5873 -1.3049 0.9887
2.4462 -0.4949 -1.2947 0.9888
2.4464 -0.4037 -1.2863 0.9889
2.4465 -0.1357 -1.2711 0.9890
2.4459 0.1291 -1.2707 0.9890
2.4446 0.3966 -1.2848 0.9889
2.4432 0.5796 -1.3027 0.9887
2.4415 0.7687 -1.3279 0.9885
2.4393 0.9661 -1.3611 0.9882
2.4381 1.0688 -1.3810 0.9881
2.4351 1.2841 -1.4282 0.9877
2.4335 1.3975 -1.4558 0.9874
2.4316 1.5155 -1.4864 0.9872
2.4296 1.6387 -1.5203 0.9869
2.4245 -2.2150 -1.7986 0.9851
2.4269 -2.0618 -1.7441 0.9856
2.4291 -1.9173 -1.6949 0.9860
2.4311 -1.7805 -1.6504 0.9864
2.4328 -1.6504 -1.6101 0.9867
2.4370 -1.2935 -1.5111 0.9875
2.4381 -1.1835 -1.4844 0.9877
2.4391 -1.0772 -1.4604 0.9879
2.4400 -0.9740 -1.4389 0.9881
2.4407 -0.8737 -1.4198 0.9882
2.4423 -0.5864 -1.3756 0.9886
2.4426 -0.4941 -1.3649 0.9887
2.4428 -0.4031 -1.3560 0.9888
2.4430 -0.3132 -1.3490 0.9888
2.4429 -0.0473 -1.3382 0.9889
2.4427 0.0407 -1.3380 0.9889
2.4424 0.1288 -1.3396 0.9889
2.4415 0.3063 -1.3477 0.9888
2.4410 0.3961 -1.3544 0.9888
2.4396 0.5788 -1.3733 0.9886
2.4388 0.6723 -1.3855 0.9885
2.4356 0.9646 -1.4348 0.9881
2.4343 1.0672 -1.4557 0.9880
2.4328 1.1728 -1.4792 0.9878
2.4254 1.6359 -1.6023 0.9867
2.4231 1.7646 -1.6418 0.9864
2.4197 -2.2106 -1.8922 0.9850
2.4266 -1.7772 -1.7366 0.9862
2.4285 -1.6475 -1.6943 0.9865
2.4330 -1.2913 -1.5903 0.9874
2.4352 -1.0754 -1.5369 0.9878
2.4369 -0.8724 -1.4944 0.9881
2.4375 -0.7747 -1.4767 0.9883
2.4381 -0.6792 -1.4612 0.9884
2.4389 -0.4934 -1.4366 0.9886
2.4392 -0.4025 -1.4273 0.9886
2.4393 -0.3127 -1.4199 0.9887
2.4394 -0.1353 -1.4105 0.9888
2.4393 -0.0473 -1.4086 0.9888
2.4388 0.1287 -1.4100 0.9888
2.4379 0.3058 -1.4186 0.9887
2.4367 0.4861 -1.4345 0.9886
2.4350 0.6712 -1.4583 0.9884
2.4341 0.7664 -1.4733 0.9883
2.4330 0.8636 -1.4905 0.9881
2.4272 1.2799 -1.5842 0.9874
2.4254 1.3928 -1.6148 0.9872
2.4234 1.5104 -1.6486 0.9869
2.4211 1.6330 -1.6861 0.9866
2.4188 1.7614 -1.7275 0.9863
