ply
format ascii 1.0
element vertex 576
property float32 x
property float32 y
property float32 z
property float32 I
end_header
9.7112 41.4325 7.5037 0.8413
-26.9988 25.6031 6.5608 0.8597
-27.2219 24.0171 6.4011 0.8629
-27.2723 22.3714 6.2198 0.8665
-27.3195 20.8142 6.0560 0.8698
-27.4838 15.2766 5.5444 0.8801
-30.3755 14.1314 5.9073 0.8728
-27.0942 29.6700 6.1553 0.8499
-27.1440 25.7408 5.7307 0.8595
-27.2643 24.0546 5.5699 0.8632
-27.3735 22.4545 5.4239 0.8665
-27.4836 16.5962 4.9184 0.8782
-30.3732 14.1304 5.1319 0.8732
-42.0449 15.9975 6.8915 0.8336
9.7728 41.6949 5.5767 0.8414
1.6603 10.3967 1.3710 0.9584
3.3503 38.6424 5.0509 0.8552
-27.1364 27.6519 5.0451 0.8553
-27.2551 25.8462 4.8913 0.8594
-27.3065 24.0918 4.7420 0.8634
-27.3107 20.8076 4.4710 0.8707
-27.5927 14.0640 4.0330 0.8826
-30.3710 14.1294 4.3620 0.8736
-42.4581 14.4308 5.8396 0.8345
1.6554 10.3658 1.1272 0.9586
3.3429 38.5565 4.1558 0.8558
-27.0316 31.8262 4.4839 0.8454
-27.2985 25.8873 4.0398 0.8595
-30.3687 14.1283 3.5967 0.8739
-33.6566 14.2102 3.9230 0.8633
1.6505 10.3352 0.8860 0.9589
-27.2331 29.8220 3.4188 0.8503
-26.1949 23.1110 2.9571 0.8692
-27.4365 22.5062 3.0040 0.8672
-27.5017 16.6072 2.7196 0.8790
-30.3665 14.1273 2.8352 0.8742
-41.4969 14.1041 3.7102 0.8387
1.6476 10.3171 0.6479 0.9590
-27.2200 32.0480 2.6074 0.8449
-27.4851 22.5461 2.2044 0.8672
-27.5195 20.9666 2.1453 0.8705
-27.6334 16.6867 2.0017 0.8786
-27.5891 14.0622 1.9202 0.8833
-33.6512 14.2080 2.2651 0.8638
-42.4456 14.4266 2.7799 0.8355
-25.9411 35.4118 1.7309 0.8388
-27.2680 32.1044 1.6609 0.8448
-27.3787 27.8988 1.5413 0.8552
-27.5383 22.5898 1.4045 0.8671
-27.5762 16.6521 1.2702 0.8790
-27.6099 15.3467 1.2456 0.8812
-27.6250 14.0805 1.2226 0.8833
-26.0480 12.1182 1.1328 0.8914
-33.6485 14.2068 1.4402 0.8640
-42.3085 16.0978 1.7849 0.8343
1.6441 10.2954 0.1761 0.9591
-25.5452 32.3646 0.6965 0.8479
-27.3160 32.1610 0.7128 0.8447
-25.7091 26.1975 0.6200 0.8634
-27.4716 26.0515 0.6395 0.8595
-27.5318 19.4533 0.5694 0.8738
-25.9124 16.9470 0.5230 0.8835
-25.9758 14.4384 0.5020 0.8879
-26.0462 12.1173 0.4852 0.8914
-41.5204 14.1121 0.7408 0.8391
9.6125 41.0110 -0.2372 0.8449
-25.6431 28.0809 -0.2141 0.8589
-25.6900 26.1780 -0.2065 0.8635
-25.7337 24.4034 -0.1997 0.8677
-25.7747 22.7404 -0.1935 0.8715
-25.8499 19.6945 -0.1830 0.8781
-25.9796 14.4405 -0.1673 0.8879
-33.6432 14.2045 -0.2056 0.8641
2.4670 10.5253 -0.3044 0.9577
2.4584 12.4935 -0.3585 0.9503
1.6406 10.2737 -0.2929 0.9592
2.4263 19.7206 -0.5595 0.9236
2.3184 45.8272 -1.2921 0.8323
-25.3167 29.8071 -1.1012 0.8551
-25.6657 24.3389 -0.9960 0.8680
-25.9673 22.9103 -0.9751 0.8706
-25.9212 18.3153 -0.8937 0.8807
-25.9844 15.6909 -0.8547 0.8856
-26.0958 12.1404 -0.8104 0.8912
-27.7567 11.7192 -0.8484 0.8864
-27.9043 10.6172 -0.8407 0.8874
2.4548 10.4736 -0.5456 0.9578
2.4442 12.4213 -0.6420 0.9506
1.6390 10.2634 -0.5271 0.9592
2.4040 19.5392 -0.9984 0.9242
2.2699 44.8683 -2.2784 0.8353
0.7081 48.4526 -2.4575 0.8236
-1.0587 49.6400 -2.5180 0.8197
-2.7425 47.8424 -2.4303 0.8254
-5.7703 44.4363 -2.2725 0.8357
-7.1330 42.8189 -2.2015 0.8404
-8.4057 41.2535 -2.1351 0.8448
-10.7087 38.2643 -2.0151 0.8529
-13.6432 34.0901 -1.8622 0.8632
-14.5020 32.7708 -1.8174 0.8663
-16.0644 30.2271 -1.7360 0.8719
-16.7746 28.9986 -1.6990 0.8744
-18.0675 26.6197 -1.6316 0.8791
-18.6553 25.4661 -1.6010 0.8812
-21.0904 20.0002 -1.4740 0.8901
-21.4886 18.9588 -1.4533 0.8916
-21.8604 17.9321 -1.4339 0.8929
-22.2071 16.9192 -1.4158 0.8942
-22.8295 14.9307 -1.3834 0.8965
-23.1071 13.9535 -1.3689 0.8975
-23.4360 11.9454 -1.3340 0.9000
-24.1893 9.2037 -1.3125 0.9015
2.3820 19.3606 -1.4303 0.9247
0.4875 33.3561 -2.4460 0.8748
-4.1403 31.8839 -2.3574 0.8790
-8.7714 27.4946 -2.1161 0.8907
-9.5633 26.6320 -2.0748 0.8927
-10.3154 25.7749 -2.0356 0.8946
-12.3501 23.2382 -1.9296 0.8998
-12.9600 22.4042 -1.8978 0.9014
-13.5382 21.5762 -1.8676 0.9029
-14.0860 20.7535 -1.8391 0.9043
-14.6046 19.9366 -1.8121 0.9056
-15.5594 18.3191 -1.7623 0.9081
-16.4108 16.7226 -1.7179 0.9103
-16.8002 15.9317 -1.6976 0.9113
-17.8330 13.5866 -1.6438 0.9140
-18.1346 12.8135 -1.6281 0.9148
-18.4159 12.0442 -1.6134 0.9155
-18.6775 11.2786 -1.5998 0.9162
-18.9200 10.5165 -1.5872 0.9168
-19.1439 9.7577 -1.5755 0.9174
-19.5374 8.2490 -1.5550 0.9185
-19.8614 6.7506 -1.5381 0.9193
2.3604 19.1847 -1.8557 0.9253
2.2850 26.3548 -2.5397 0.8992
0.3714 25.4122 -2.4400 0.9029
-1.4877 25.9526 -2.4957 0.9008
-3.2260 24.8430 -2.4051 0.9042
-4.8280 23.6950 -2.3216 0.9074
-5.5804 23.1092 -2.2824 0.9089
-6.3015 22.5169 -2.2448 0.9103
-6.9925 21.9186 -2.2088 0.9117
-8.8928 20.0955 -2.1097 0.9155
-9.4717 19.4804 -2.0796 0.9166
-10.5524 18.2422 -2.0232 0.9188
-11.0558 17.6198 -1.9970 0.9198
-11.9921 16.3703 -1.9482 0.9217
-12.4265 15.7438 -1.9256 0.9226
-12.8391 15.1164 -1.9041 0.9234
-14.2840 12.6024 -1.8288 0.9263
-14.8903 11.3447 -1.7972 0.9275
-15.6647 9.4593 -1.7568 0.9291
-15.8883 8.8314 -1.7452 0.9296
-16.2858 7.5766 -1.7244 0.9304
-16.7619 5.6971 -1.6996 0.9313
2.4190 10.3206 -1.2592 0.9582
1.6374 10.2534 -1.2334 0.9590
2.3438 19.0496 -2.2799 0.9256
1.8295 21.1013 -2.5159 0.9182
-0.4576 21.4569 -2.5494 0.9172
-2.6404 20.3334 -2.4356 0.9207
-4.6101 19.0911 -2.3329 0.9239
-5.2208 18.6551 -2.3011 0.9249
-6.3757 17.7552 -2.2409 0.9268
-7.9476 16.3458 -2.1590 0.9294
-9.7605 14.3806 -2.0645 0.9324
-10.1658 13.8772 -2.0434 0.9331
-10.9215 12.8586 -2.0040 0.9343
-11.2725 12.3442 -1.9857 0.9349
-11.6062 11.8267 -1.9683 0.9354
-12.2227 10.7838 -1.9362 0.9365
-12.5061 10.2588 -1.9214 0.9369
-13.0247 9.2030 -1.8944 0.9378
-13.2604 8.6725 -1.8821 0.9382
-13.6858 7.6071 -1.8599 0.9389
-14.0514 6.5371 -1.8409 0.9395
-14.2121 6.0005 -1.8325 0.9397
2.3886 12.1384 -1.7529 0.9512
1.5241 17.5785 -2.5000 0.9312
0.8796 17.3851 -2.4664 0.9321
-0.3842 18.0155 -2.5532 0.9298
-1.0179 17.7573 -2.5202 0.9307
-2.2329 17.1952 -2.4568 0.9323
-2.8141 16.8930 -2.4265 0.9332
-3.9241 16.2504 -2.3687 0.9347
-5.4591 15.2025 -2.2887 0.9368
-5.9365 14.8335 -2.2638 0.9375
-6.8409 14.0697 -2.2167 0.9388
-8.4528 12.4540 -2.1327 0.9410
-8.8160 12.0346 -2.1137 0.9415
-9.1635 11.6097 -2.0956 0.9420
-10.4016 9.8639 -2.0311 0.9437
-10.6741 9.4175 -2.0169 0.9441
-10.9322 8.9677 -2.0035 0.9445
-11.1760 8.5148 -1.9908 0.9448
-11.4057 8.0590 -1.9788 0.9451
-12.6313 4.8060 -1.9149 0.9469
2.3954 10.2199 -1.7292 0.9583
0.7545 14.9131 -2.4599 0.9413
0.2157 14.7602 -2.4318 0.9419
-1.9327 14.8835 -2.4725 0.9410
-2.9333 14.3961 -2.4203 0.9422
-4.3309 13.5756 -2.3475 0.9439
-4.7690 13.2808 -2.3247 0.9444
-5.1932 12.9763 -2.3026 0.9449
-6.3827 12.0099 -2.2406 0.9464
-6.7517 11.6718 -2.2213 0.9468
-7.1070 11.3265 -2.2028 0.9472
-7.4486 10.9744 -2.1850 0.9477
-7.7767 10.6159 -2.1679 0.9481
-8.0914 10.2515 -2.1515 0.9484
-8.6810 9.5063 -2.1208 0.9492
-9.2179 8.7414 -2.0928 0.9498
-9.4670 8.3525 -2.0798 0.9501
-9.9267 7.5629 -2.0559 0.9507
-10.8564 5.5336 -2.0074 0.9518
-11.2673 4.2871 -1.9860 0.9523
2.3612 11.9995 -2.2987 0.9514
1.6278 13.2298 -2.5054 0.9472
1.1397 13.1449 -2.4800 0.9477
0.1890 12.9292 -2.4304 0.9487
-0.2902 13.6066 -2.5581 0.9461
-1.7021 13.1081 -2.4845 0.9476
-2.1515 12.9156 -2.4611 0.9481
-3.4330 12.2669 -2.3943 0.9495
-3.8374 12.0288 -2.3732 0.9499
-4.2303 11.7806 -2.3527 0.9503
-4.6115 11.5229 -2.3329 0.9507
-5.3389 10.9806 -2.2950 0.9515
-5.6850 10.6970 -2.2769 0.9519
-6.0192 10.4056 -2.2595 0.9523
-7.2383 9.1707 -2.1960 0.9536
-8.0294 8.1820 -2.1547 0.9544
-8.4987 7.4982 -2.1303 0.9549
-9.9189 4.6146 -2.0563 0.9565
-10.1618 3.8664 -2.0436 0.9567
-10.2666 3.4895 -2.0381 0.9568
2.3215 11.7975 -2.5416 0.9520
1.6355 10.2414 -2.1923 0.9585
1.4419 11.7185 -2.4957 0.9529
1.0107 11.6569 -2.4733 0.9533
-1.1074 11.8487 -2.5155 0.9525
-3.4419 10.7890 -2.3938 0.9548
-3.7977 10.5758 -2.3753 0.9551
-4.1435 10.3534 -2.3573 0.9554
-5.1204 9.6347 -2.3063 0.9564
-5.4256 9.3794 -2.2904 0.9567
-5.7205 9.1168 -2.2751 0.9570
-6.0049 8.8474 -2.2602 0.9572
-6.5426 8.2893 -2.2322 0.9577
-7.4926 7.1054 -2.1827 0.9587
-7.9050 6.4845 -2.1612 0.9591
-8.0955 6.1678 -2.1513 0.9592
-8.2756 5.8473 -2.1419 0.9594
-8.7537 4.8657 -2.1170 0.9599
-8.8924 4.5325 -2.1098 0.9600
2.0775 10.5576 -2.5289 0.9568
1.2927 10.5068 -2.4880 0.9574
0.9070 10.4613 -2.4679 0.9578
0.5263 10.4028 -2.4480 0.9581
-1.3708 10.5561 -2.5018 0.9572
-2.4428 10.1163 -2.4459 0.9581
-3.4423 9.5861 -2.3938 0.9590
-4.6539 8.7569 -2.3307 0.9601
-4.9344 8.5302 -2.3160 0.9603
-5.2057 8.2964 -2.3019 0.9606
-5.4678 8.0559 -2.2882 0.9608
-5.9640 7.5561 -2.2624 0.9612
-6.1980 7.2974 -2.2502 0.9614
-6.8434 6.4896 -2.2166 0.9620
-7.2261 5.9276 -2.1966 0.9623
-7.4032 5.6404 -2.1874 0.9625
-7.5707 5.3493 -2.1786 0.9626
-7.7287 5.0547 -2.1704 0.9628
-7.8771 4.7567 -2.1627 0.9629
-8.1454 4.1517 -2.1487 0.9631
-8.2652 3.8452 -2.1425 0.9632
-8.3755 3.5362 -2.1367 0.9633
-8.4763 3.2251 -2.1315 0.9634
-8.5675 2.9120 -2.1267 0.9635
2.2362 9.5404 -2.5371 0.9603
1.5226 9.5346 -2.5000 0.9609
0.8219 9.4788 -2.4634 0.9615
0.4773 9.4329 -2.4455 0.9617
0.1370 9.3755 -2.4277 0.9620
-0.2110 9.8936 -2.5622 0.9599
-0.5623 9.8090 -2.5439 0.9602
-0.9078 9.7132 -2.5259 0.9605
-1.9075 9.3620 -2.4738 0.9613
-2.5406 9.0781 -2.4408 0.9618
-3.7188 8.4037 -2.3794 0.9627
-3.9941 8.2148 -2.3650 0.9630
-4.7717 7.6047 -2.3245 0.9636
-5.2487 7.1650 -2.2997 0.9640
-5.9007 6.4617 -2.2657 0.9645
-6.1008 6.2168 -2.2553 0.9647
-6.8142 5.1917 -2.2181 0.9652
-7.1183 4.6554 -2.2022 0.9655
-7.6201 3.5451 -2.1761 0.9659
-7.7235 3.2609 -2.1707 0.9660
-7.8179 2.9746 -2.1658 0.9660
2.0369 8.6900 -2.5268 0.9636
1.7118 8.6988 -2.5098 0.9638
0.7505 8.6562 -2.4597 0.9645
0.4361 8.6198 -2.4433 0.9648
-0.8316 8.8977 -2.5299 0.9635
-3.4233 7.7358 -2.3948 0.9654
-3.6785 7.5655 -2.3815 0.9656
-4.4005 7.0132 -2.3439 0.9662
-4.6263 6.8162 -2.3321 0.9663
-5.2576 6.1902 -2.2992 0.9668
-5.4524 5.9708 -2.2890 0.9669
-6.4532 4.5597 -2.2369 0.9677
-6.5915 4.3110 -2.2297 0.9678
-6.7217 4.0589 -2.2229 0.9679
-7.3287 2.4909 -2.1913 0.9683
1.8682 7.9704 -2.5180 0.9663
0.9814 7.9760 -2.4717 0.9669
0.6899 7.9569 -2.4566 0.9671
0.4011 7.9277 -2.4415 0.9673
-0.1777 8.3340 -2.5639 0.9657
-0.7664 8.2004 -2.5333 0.9661
-1.0543 8.1192 -2.5183 0.9663
-2.1562 7.7046 -2.4608 0.9671
-2.4181 7.5799 -2.4472 0.9673
-2.9243 7.3070 -2.4208 0.9676
-3.4058 7.0048 -2.3957 0.9679
-3.6369 6.8433 -2.3837 0.9681
-3.8614 6.6753 -2.3720 0.9682
-4.4939 6.1346 -2.3390 0.9687
-4.6908 5.9430 -2.3287 0.9688
-5.0629 5.5443 -2.3093 0.9691
-5.2380 5.3376 -2.3002 0.9692
-5.5662 4.9109 -2.2831 0.9694
-5.7190 4.6913 -2.2752 0.9695
-6.0019 4.2408 -2.2604 0.9697
-6.1320 4.0104 -2.2536 0.9698
-6.2543 3.7768 -2.2473 0.9699
-6.4760 3.3008 -2.2357 0.9700
-6.5752 3.0589 -2.2305 0.9701
-6.8259 2.3200 -2.2175 0.9703
1.4499 7.3681 -2.4962 0.9688
0.9066 7.3687 -2.4678 0.9692
0.6377 7.3545 -2.4538 0.9694
0.3709 7.3308 -2.4399 0.9695
0.1067 7.2980 -2.4262 0.9697
-0.1645 7.7136 -2.5646 0.9680
-0.4391 7.6597 -2.5503 0.9682
-0.7100 7.5967 -2.5362 0.9684
-1.2401 7.4441 -2.5086 0.9687
-1.4986 7.3550 -2.4951 0.9689
-2.9457 6.6566 -2.4197 0.9698
-4.1867 5.7153 -2.3550 0.9706
-4.5495 5.3565 -2.3361 0.9708
-4.8855 4.9784 -2.3186 0.9710
-5.0433 4.7826 -2.3104 0.9711
-5.3380 4.3788 -2.2950 0.9713
-5.7271 3.7456 -2.2747 0.9716
-5.9506 3.3076 -2.2631 0.9717
-6.0516 3.0845 -2.2578 0.9718
-6.2315 2.6310 -2.2484 0.9719
-6.3104 2.4010 -2.2443 0.9719
-6.3820 2.1691 -2.2406 0.9720
1.5979 6.8170 -2.5039 0.9707
1.0926 6.8414 -2.4775 0.9710
0.8416 6.8399 -2.4645 0.9711
0.3446 6.8104 -2.4386 0.9714
0.0991 6.7826 -2.4258 0.9716
-0.4083 7.1244 -2.5519 0.9701
-0.6606 7.0685 -2.5388 0.9703
-0.9095 7.0043 -2.5258 0.9704
-1.6332 6.7632 -2.4881 0.9709
-3.1607 5.9473 -2.4085 0.9718
-3.7353 5.5033 -2.3785 0.9721
-3.9151 5.3444 -2.3692 0.9722
-4.5731 4.6600 -2.3349 0.9726
-4.7219 4.4778 -2.3271 0.9727
-4.9999 4.1014 -2.3126 0.9729
-5.1290 3.9077 -2.3059 0.9730
-5.2516 3.7106 -2.2995 0.9731
-5.5787 3.1008 -2.2825 0.9733
-5.6741 2.8921 -2.2775 0.9733
-5.8443 2.4675 -2.2686 0.9734
-5.9867 2.0348 -2.2612 0.9735
1.2525 6.3648 -2.4859 0.9726
0.7844 6.3751 -2.4615 0.9729
0.5521 6.3677 -2.4494 0.9730
0.0925 6.3284 -2.4254 0.9733
-0.3813 6.6520 -2.5533 0.9719
-0.6170 6.6020 -2.5410 0.9720
-1.0792 6.4787 -2.5170 0.9723
-1.9598 6.1431 -2.4711 0.9728
-2.1696 6.0419 -2.4601 0.9729
-2.7713 5.6998 -2.4288 0.9732
-3.3283 5.3044 -2.3997 0.9735
-3.9951 4.7037 -2.3650 0.9739
-4.2940 4.3757 -2.3494 0.9741
-4.4346 4.2054 -2.3421 0.9742
-4.6976 3.8534 -2.3284 0.9743
-4.8197 3.6721 -2.3220 0.9744
-4.9357 3.4875 -2.3160 0.9744
-5.0453 3.2997 -2.3103 0.9745
-5.2454 2.9156 -2.2998 0.9746
-5.6323 1.9143 -2.2797 0.9748
0.9518 5.9600 -2.4702 0.9743
0.7337 5.9628 -2.4588 0.9744
0.5166 5.9578 -2.4475 0.9745
0.3008 5.9451 -2.4363 0.9746
0.0866 5.9247 -2.4251 0.9747
-0.1336 6.2688 -2.5662 0.9733
-0.5782 6.1866 -2.5431 0.9735
-1.2241 6.0079 -2.5094 0.9738
-1.4329 5.9342 -2.4985 0.9740
-1.8397 5.7666 -2.4773 0.9742
-2.0371 5.6731 -2.4670 0.9743
-2.6042 5.3561 -2.4375 0.9746
-2.9594 5.1161 -2.4190 0.9748
-3.2952 4.8549 -2.4015 0.9750
-3.4554 4.7170 -2.3931 0.9750
-3.7601 4.4271 -2.3772 0.9752
-4.0430 4.1199 -2.3625 0.9754
-4.1762 3.9603 -2.3556 0.9754
-4.3036 3.7970 -2.3489 0.9755
-4.4253 3.6301 -2.3426 0.9756
-4.6510 3.2863 -2.3308 0.9757
-4.9450 2.7486 -2.3155 0.9758
-5.1839 2.1887 -2.3030 0.9760
-5.2513 1.9980 -2.2995 0.9760
1.3030 5.5593 -2.4885 0.9754
1.0978 5.5785 -2.4778 0.9755
0.8928 5.5901 -2.4671 0.9756
0.6883 5.5943 -2.4565 0.9757
0.4848 5.5912 -2.4459 0.9758
-0.1256 5.8879 -2.5667 0.9746
-0.3356 5.8546 -2.5557 0.9747
-1.1513 5.6505 -2.5132 0.9752
-1.3481 5.5827 -2.5030 0.9753
-1.5415 5.5083 -2.4929 0.9754
-2.1004 5.2484 -2.4637 0.9756
-2.4535 5.0461 -2.4453 0.9758
-2.6236 4.9367 -2.4365 0.9759
-2.9506 4.7024 -2.4194 0.9761
-3.4057 4.3149 -2.3957 0.9763
-3.5475 4.1768 -2.3883 0.9764
-3.6843 4.0346 -2.3812 0.9764
-3.8159 3.8884 -2.3743 0.9765
-3.9421 3.7384 -2.3678 0.9766
-4.1786 3.4277 -2.3554 0.9767
-4.3930 3.1040 -2.3443 0.9768
-4.4918 2.9377 -2.3391 0.9769
-4.7539 2.4231 -2.3254 0.9770
-4.8297 2.2469 -2.3215 0.9770
-4.8996 2.0687 -2.3179 0.9771
-4.9636 1.8886 -2.3145 0.9771
0.8396 5.2573 -2.4644 0.9768
0.6476 5.2626 -2.4543 0.9769
0.0766 5.2374 -2.4246 0.9772
-0.1182 5.5445 -2.5670 0.9759
-0.5119 5.4775 -2.5465 0.9760
-0.7056 5.4340 -2.5364 0.9761
-0.8969 5.3839 -2.5265 0.9762
-1.0855 5.3274 -2.5166 0.9763
-1.4540 5.1957 -2.4974 0.9765
-1.6337 5.1208 -2.4881 0.9766
-1.8099 5.0402 -2.4789 0.9767
-1.9825 4.9538 -2.4699 0.9768
-2.1515 4.8620 -2.4611 0.9768
-2.4779 4.6625 -2.4441 0.9770
-2.6350 4.5552 -2.4359 0.9771
-3.0802 4.2047 -2.4127 0.9773
-3.3542 3.9492 -2.3984 0.9774
-3.4841 3.8153 -2.3916 0.9775
-3.6090 3.6776 -2.3851 0.9775
-3.9538 3.2433 -2.3671 0.9777
-4.1577 2.9378 -2.3565 0.9778
-4.4235 2.4588 -2.3427 0.9779
-4.5013 2.2943 -2.3386 0.9780
-4.5734 2.1277 -2.3349 0.9780
-4.7010 1.7887 -2.3282 0.9781
-4.7563 1.6166 -2.3253 0.9781
0.9728 4.9433 -2.4713 0.9778
0.6106 4.9622 -2.4524 0.9780
0.4302 4.9618 -2.4430 0.9781
0.2507 4.9550 -2.4337 0.9781
0.0722 4.9419 -2.4244 0.9782
-0.2983 5.2056 -2.5577 0.9770
-0.4834 5.1719 -2.5480 0.9771
-0.6664 5.1319 -2.5385 0.9772
-1.0256 5.0334 -2.5198 0.9774
-1.3744 4.9111 -2.5016 0.9775
-1.5445 4.8413 -2.4927 0.9776
-2.0353 4.5994 -2.4671 0.9778
-2.1920 4.5083 -2.4590 0.9779
-2.3449 4.4123 -2.4510 0.9780
-2.9169 3.9818 -2.4212 0.9782
-3.0494 3.8634 -2.4143 0.9783
-3.1774 3.7410 -2.4076 0.9784
-3.3009 3.6147 -2.4012 0.9784
-3.4198 3.4847 -2.3950 0.9785
-3.5340 3.3513 -2.3890 0.9785
-3.6434 3.2145 -2.3833 0.9786
-3.9422 2.7854 -2.3678 0.9787
-4.0317 2.6368 -2.3631 0.9788
-4.1955 2.3320 -2.3546 0.9788
-4.2696 2.1762 -2.3507 0.9789
-4.5128 1.5338 -2.3380 0.9790
1.0898 4.6494 -2.4774 0.9787
0.9187 4.6687 -2.4685 0.9788
0.5769 4.6886 -2.4507 0.9789
0.4066 4.6892 -2.4418 0.9790
0.2370 4.6837 -2.4330 0.9791
0.0683 4.6723 -2.4242 0.9792
-0.4573 4.8928 -2.5494 0.9781
-0.6305 4.8560 -2.5403 0.9782
-1.1374 4.7104 -2.5139 0.9784
-1.7766 4.4393 -2.4806 0.9787
-2.2229 4.1828 -2.4574 0.9789
-2.3647 4.0879 -2.4500 0.9789
-2.6368 3.8849 -2.4358 0.9791
-2.7669 3.7771 -2.4290 0.9791
-3.0149 3.5496 -2.4161 0.9792
-3.2458 3.3074 -2.4040 0.9793
-3.4588 3.0516 -2.3929 0.9794
-3.5585 2.9190 -2.3877 0.9795
-3.6535 2.7836 -2.3828 0.9795
-3.9097 2.3609 -2.3694 0.9796
-3.9854 2.2153 -2.3655 0.9797
-4.1218 1.9176 -2.3584 0.9797
-4.2379 1.6125 -2.3523 0.9798
0.8693 4.4175 -2.4659 0.9797
0.7076 4.4307 -2.4575 0.9797
0.5461 4.4380 -2.4491 0.9798
0.3849 4.4395 -2.4407 0.9799
0.0647 4.4252 -2.4240 0.9800
-0.0999 4.6876 -2.5680 0.9788
-0.4333 4.6367 -2.5506 0.9790
-0.5977 4.6026 -2.5421 0.9791
-0.9205 4.5177 -2.5252 0.9792
-1.0787 4.4671 -2.5170 0.9793
-1.3878 4.3501 -2.5009 0.9794
-1.8307 4.1370 -2.4778 0.9796
-1.9723 4.0564 -2.4704 0.9796
-2.1105 3.9713 -2.4632 0.9797
-2.5046 3.6901 -2.4427 0.9799
-2.6286 3.5882 -2.4362 0.9799
-3.0850 3.1437 -2.4124 0.9801
-3.5603 2.5156 -2.3877 0.9803
-3.7911 2.1072 -2.3756 0.9804
-3.8586 1.9668 -2.3721 0.9804
-4.0806 1.3869 -2.3605 0.9805
0.9770 4.1678 -2.4715 0.9804
0.8239 4.1867 -2.4635 0.9805
0.6707 4.1999 -2.4556 0.9805
0.3650 4.2097 -2.4396 0.9807
-0.0948 4.4473 -2.5683 0.9797
-0.4113 4.4006 -2.5518 0.9798
-0.7216 4.3321 -2.5356 0.9799
-0.8741 4.2898 -2.5277 0.9800
-1.0245 4.2425 -2.5198 0.9800
-1.3184 4.1327 -2.5045 0.9802
-1.4617 4.0705 -2.4970 0.9802
-1.7400 3.9321 -2.4825 0.9803
-2.0066 3.7757 -2.4686 0.9804
-2.1351 3.6911 -2.4619 0.9805
-2.3822 3.5098 -2.4491 0.9806
-2.5004 3.4133 -2.4429 0.9806
-2.6151 3.3132 -2.4369 0.9807
-2.7259 3.2094 -2.4311 0.9807
-3.0352 2.8783 -2.4150 0.9809
-3.1302 2.7617 -2.4101 0.9809
-3.2210 2.6423 -2.4053 0.9809
-3.4680 2.2681 -2.3925 0.9810
-3.5416 2.1386 -2.3886 0.9811
-3.6107 2.0070 -2.3850 0.9811
-3.6752 1.8733 -2.3817 0.9811
