ply
format ascii 1.0
element vertex 599
property float32 x
property float32 y
property float32 z
property float32 I
end_header
-26.9622 26.7841 6.7012 0.8570
-27.1874 25.1393 6.5292 0.8604
-27.2888 21.8277 6.1617 0.8677
-27.4195 17.4687 5.7326 0.8763
-21.8112 12.8217 4.4612 0.9023
-31.3601 14.1561 6.0669 0.8696
-27.2168 27.0370 5.8771 0.8562
-27.2904 25.2345 5.6941 0.8604
-27.3038 21.8397 5.3564 0.8681
-27.4163 20.3640 5.2319 0.8709
-27.4502 18.9029 5.1059 0.8738
-27.4961 16.1636 4.8862 0.8789
-42.0123 17.1817 6.9535 0.8322
-42.0595 15.4678 6.8652 0.8341
-44.1827 14.4752 7.1225 0.8285
-27.2612 27.0811 5.0039 0.8564
-27.3335 25.2744 4.8478 0.8606
-27.3255 20.2966 4.4325 0.8717
-27.5334 16.1855 4.1590 0.8791
-23.8881 12.9150 3.5363 0.8962
-31.3553 14.1539 4.4798 0.8704
-42.0657 17.2036 5.9182 0.8325
-42.1123 15.4872 5.8430 0.8344
-44.3592 14.5330 6.0786 0.8284
-27.0817 33.4010 4.6175 0.8411
-27.0548 31.0278 4.4205 0.8474
-27.2081 29.0362 4.2729 0.8521
-27.2643 27.0841 4.1267 0.8568
-27.3165 25.2586 3.9951 0.8610
-27.5338 17.5415 3.5057 0.8769
-27.5706 16.2074 3.4342 0.8793
-27.6059 14.9250 3.3699 0.8814
-28.4311 14.0800 3.4069 0.8802
-42.1649 15.5066 4.8242 0.8347
-44.1736 14.4722 4.9915 0.8294
-27.1308 33.4615 3.6467 0.8412
-27.2537 29.0849 3.3741 0.8521
-27.3084 27.1280 3.2585 0.8568
-25.3573 23.4471 2.9236 0.8705
-26.7277 22.9951 2.9847 0.8680
-27.4516 21.9579 2.9758 0.8684
-27.4938 20.4216 2.8992 0.8715
-27.5337 18.9604 2.8300 0.8744
-27.5716 17.5656 2.7674 0.8770
-27.6078 16.2293 2.7110 0.8794
-25.9811 14.0466 2.5002 0.8882
-31.3506 14.1517 2.9118 0.8710
-44.1691 14.4708 3.9346 0.8298
-25.3494 29.0721 2.3918 0.8568
-27.3593 29.1976 2.4812 0.8518
-27.3525 27.1718 2.3908 0.8568
-27.4931 21.9911 2.1832 0.8684
-27.5038 18.9399 2.0708 0.8747
-27.6095 17.5897 2.0300 0.8770
-27.6449 16.2511 1.9885 0.8794
-28.4271 14.0781 1.9671 0.8806
-26.8098 12.1021 1.8240 0.8888
-34.8113 14.2368 2.3322 0.8601
-42.2698 15.5451 2.7928 0.8349
-44.4591 14.5658 2.9011 0.8290
-25.3222 29.0408 1.5193 0.8571
-27.4050 29.2464 1.5804 0.8518
-27.4901 23.6510 1.4299 0.8649
-25.7805 20.6212 1.3017 0.8762
-25.8181 19.1770 1.2681 0.8792
-25.8539 17.8037 1.2378 0.8819
-25.8879 16.4929 1.2103 0.8844
-28.4252 14.0771 1.2508 0.8808
-31.3459 14.1496 1.3561 0.8714
-40.5754 14.9220 1.7047 0.8411
-27.1679 33.5074 0.7286 0.8415
-25.6719 27.3968 0.6343 0.8605
-25.7190 25.5490 0.6124 0.8650
-25.7331 23.7945 0.5921 0.8692
-27.5317 23.6869 0.6135 0.8648
-27.5768 22.0580 0.5965 0.8683
-25.9802 14.0461 0.4989 0.8886
-28.4232 14.0761 0.5358 0.8808
-31.3435 14.1486 0.5809 0.8715
-34.8056 14.2344 0.6352 0.8603
-25.5583 31.5222 -0.2285 0.8502
-25.7058 25.5360 -0.2040 0.8651
-25.7484 23.8087 -0.1974 0.8691
-25.8261 20.6577 -0.1862 0.8761
-25.8959 17.8326 -0.1770 0.8818
-25.9594 15.2603 -0.1695 0.8865
-25.9893 14.0510 -0.1663 0.8885
-39.4950 14.5247 -0.2369 0.8451
-41.8321 8.8805 -0.2408 0.8428
-44.5001 7.7935 -0.2544 0.8347
-44.5247 6.1642 -0.2531 0.8354
-44.5435 4.5487 -0.2521 0.8360
-44.5567 2.9431 -0.2514 0.8364
-44.5661 -0.2520 -0.2509 0.8367
-44.5381 -5.0577 -0.2524 0.8359
-44.4910 -8.3116 -0.2548 0.8344
-44.4198 -11.6408 -0.2585 0.8322
-23.3738 39.1646 -1.2843 0.8332
-23.3857 36.1757 -1.2129 0.8417
-23.8992 34.2177 -1.1752 0.8462
-25.3322 27.0343 -1.0432 0.8622
-25.4585 25.2903 -1.0104 0.8662
-25.7766 23.8348 -0.9886 0.8689
-25.8643 20.6882 -0.9326 0.8759
-25.9322 17.8576 -0.8866 0.8816
-25.9943 15.2808 -0.8490 0.8863
-26.0236 14.0695 -0.8330 0.8884
-27.6493 12.4810 -0.8542 0.8857
-31.8095 6.7528 -0.9156 0.8780
-31.9513 4.4235 -0.9083 0.8789
-31.9998 3.2677 -0.9057 0.8792
-32.0337 2.1160 -0.9040 0.8794
-32.0532 0.9668 -0.9030 0.8796
-32.0485 -1.3295 -0.9032 0.8795
-32.0245 -2.4794 -0.9044 0.8794
-31.9329 -4.7896 -0.9092 0.8788
-31.8648 -5.9528 -0.9128 0.8783
-31.7816 -7.1234 -0.9171 0.8778
-16.3427 29.7548 -1.7216 0.8729
-18.8639 25.0480 -1.5902 0.8820
-19.4010 23.9280 -1.5623 0.8839
-19.9048 22.8280 -1.5360 0.8858
-20.3773 21.7452 -1.5114 0.8875
-20.8201 20.6825 -1.4883 0.8891
-21.9837 17.5842 -1.4277 0.8934
-22.3209 16.5794 -1.4101 0.8946
-22.6347 15.5868 -1.3937 0.8958
-22.9258 14.6058 -1.3786 0.8968
-23.3614 12.6303 -1.3468 0.8991
-23.8459 10.7641 -1.3268 0.9005
-24.2426 8.9155 -1.3100 0.9017
-24.6514 6.1631 -1.2887 0.9032
-24.8391 4.3502 -1.2789 0.9039
-24.9616 2.5490 -1.2725 0.9044
-25.0200 0.7551 -1.2694 0.9046
-25.0254 -0.1415 -1.2692 0.9046
-25.0150 -1.0378 -1.2697 0.9046
-24.9887 -1.9347 -1.2711 0.9045
-24.9465 -2.8329 -1.2733 0.9043
-24.8139 -4.6356 -1.2802 0.9038
-24.7231 -5.5413 -1.2849 0.9035
-11.9602 23.7535 -1.9500 0.8988
-12.5881 22.9190 -1.9173 0.9004
-13.7482 21.2672 -1.8568 0.9034
-15.2686 18.8314 -1.7776 0.9073
-15.7214 18.0301 -1.7540 0.9085
-16.1489 17.2340 -1.7317 0.9096
-16.5523 16.4429 -1.7107 0.9107
-16.9321 15.6566 -1.6909 0.9117
-18.5061 11.7900 -1.6089 0.9158
-18.7604 11.0284 -1.5956 0.9164
-19.4124 8.7628 -1.5617 0.9181
-19.5941 8.0134 -1.5522 0.9186
-19.7586 7.2664 -1.5436 0.9190
-19.9063 6.5218 -1.5359 0.9194
-20.0375 5.7791 -1.5291 0.9198
-20.1523 5.0383 -1.5231 0.9201
-20.2509 4.2989 -1.5180 0.9203
-20.3340 3.5612 -1.5136 0.9205
-20.4528 2.0886 -1.5074 0.9209
-20.4889 1.3534 -1.5056 0.9209
-20.5148 -0.1160 -1.5042 0.9210
-20.4792 -1.5855 -1.5061 0.9209
-20.3817 -3.0571 -1.5111 0.9207
-20.3096 -3.7941 -1.5149 0.9205
-11.2392 17.3861 -1.9876 0.9202
-11.7086 16.7638 -1.9631 0.9211
-12.9836 14.8902 -1.8967 0.9237
-13.3662 14.2646 -1.8767 0.9245
-13.7288 13.6380 -1.8578 0.9252
-14.3952 12.3848 -1.8231 0.9265
-14.7001 11.7582 -1.8072 0.9271
-15.2554 10.5053 -1.7783 0.9283
-15.9583 8.6278 -1.7416 0.9297
-16.5127 6.7532 -1.7128 0.9308
-16.6659 6.1290 -1.7048 0.9311
-16.8036 5.5052 -1.6976 0.9314
-17.0334 4.2585 -1.6856 0.9319
-17.1258 3.6356 -1.6808 0.9321
-17.2035 3.0129 -1.6768 0.9322
-17.2665 2.3905 -1.6735 0.9324
-17.3487 1.1460 -1.6692 0.9325
-17.3730 -0.0982 -1.6679 0.9326
-17.3396 -1.3425 -1.6697 0.9325
-17.2482 -2.5871 -1.6744 0.9323
-17.0982 -3.8323 -1.6822 0.9320
-9.0639 15.1874 -2.1009 0.9312
-9.4983 14.6931 -2.0783 0.9320
-11.3943 12.1599 -1.9795 0.9351
-11.7207 11.6433 -1.9625 0.9356
-12.0303 11.1241 -1.9463 0.9361
-12.3234 10.6024 -1.9311 0.9366
-13.3360 8.4962 -1.8783 0.9383
-13.7499 7.4338 -1.8567 0.9390
-14.8276 3.1477 -1.8006 0.9408
-15.0031 1.5321 -1.7914 0.9411
-15.0525 0.4540 -1.7888 0.9411
-15.0260 -1.1634 -1.7902 0.9411
-14.9903 -1.7023 -1.7921 0.9410
-14.9411 -2.2410 -1.7947 0.9410
-14.8021 -3.3177 -1.8019 0.9407
-14.7120 -3.8555 -1.8066 0.9406
-7.0083 13.9187 -2.2080 0.9390
-7.4278 13.5237 -2.1862 0.9396
-9.2868 11.4538 -2.0893 0.9422
-9.6122 11.0237 -2.0723 0.9426
-9.9226 10.5893 -2.0562 0.9431
-10.2182 10.1507 -2.0408 0.9435
-10.7657 9.2622 -2.0122 0.9442
-11.4802 7.9056 -1.9750 0.9452
-11.6906 7.4479 -1.9640 0.9455
-12.0706 6.5259 -1.9442 0.9461
-12.3971 5.5961 -1.9272 0.9465
-12.5407 5.1287 -1.9197 0.9467
-12.6712 4.6600 -1.9129 0.9469
-12.7888 4.1899 -1.9068 0.9471
-12.8936 3.7187 -1.9013 0.9472
-13.0649 2.7735 -1.8924 0.9475
-13.1317 2.2998 -1.8889 0.9476
-13.2275 1.3508 -1.8839 0.9477
-13.2567 0.8757 -1.8824 0.9477
-13.2734 0.4003 -1.8816 0.9478
-13.2777 -0.0751 -1.8813 0.9478
-13.2488 -1.0257 -1.8828 0.9477
-13.2157 -1.5008 -1.8846 0.9477
-13.1701 -1.9754 -1.8869 0.9476
-13.1120 -2.4495 -1.8900 0.9475
-13.0412 -2.9230 -1.8937 0.9474
-12.9579 -3.3958 -1.8980 0.9473
-6.5258 11.8816 -2.2332 0.9465
-8.2032 10.1174 -2.1458 0.9486
-8.7811 9.3711 -2.1156 0.9493
-9.0505 8.9907 -2.1016 0.9496
-9.3070 8.6059 -2.0882 0.9499
-9.7817 7.8241 -2.0635 0.9505
-10.0000 7.4277 -2.0521 0.9508
-10.5805 6.2197 -2.0219 0.9515
-11.0508 4.9883 -1.9974 0.9520
-11.1834 4.5737 -1.9905 0.9522
-11.4130 3.7391 -1.9785 0.9525
-11.5953 2.8990 -1.9690 0.9527
-11.7308 2.0545 -1.9619 0.9529
-11.8197 1.2070 -1.9573 0.9530
-11.8468 0.7825 -1.9559 0.9530
-11.8624 0.3577 -1.9551 0.9530
-11.8088 -1.3410 -1.9579 0.9530
-11.7664 -1.7648 -1.9601 0.9529
-11.5696 -3.0320 -1.9703 0.9527
-5.4743 10.8721 -2.2880 0.9517
-6.1431 10.2933 -2.2531 0.9524
-6.4600 9.9930 -2.2366 0.9527
-6.7652 9.6860 -2.2207 0.9531
-7.0586 9.3726 -2.2054 0.9534
-7.3404 9.0533 -2.1907 0.9537
-8.9895 6.6771 -2.1048 0.9554
-9.3580 5.9619 -2.0856 0.9558
-9.5255 5.5996 -2.0769 0.9560
-9.8268 4.8666 -2.0612 0.9563
-10.1959 3.7496 -2.0419 0.9567
-10.2970 3.3735 -2.0367 0.9569
-10.3871 2.9958 -2.0320 0.9570
-10.5348 2.2364 -2.0243 0.9571
-10.5924 1.8551 -2.0213 0.9572
-10.6392 1.4729 -2.0188 0.9572
-10.6752 1.0901 -2.0169 0.9573
-10.7148 0.3231 -2.0149 0.9573
-10.7114 -0.4444 -2.0151 0.9573
-10.6649 -1.2111 -2.0175 0.9573
-10.6256 -1.5937 -2.0195 0.9572
-10.5754 -1.9756 -2.0221 0.9572
-5.2387 9.5380 -2.3002 0.9565
-5.8287 9.0166 -2.2695 0.9571
-6.8850 7.8960 -2.2145 0.9581
-7.1230 7.6017 -2.2020 0.9583
-7.5681 6.9980 -2.1789 0.9587
-7.7751 6.6893 -2.1681 0.9589
-8.3340 5.7390 -2.1389 0.9595
-8.4997 5.4151 -2.1303 0.9596
-8.8002 4.7578 -2.1147 0.9599
-9.1742 3.7520 -2.0952 0.9603
-9.3727 3.0707 -2.0848 0.9605
-9.5306 2.3828 -2.0766 0.9606
-9.6481 1.6897 -2.0705 0.9607
-9.7489 0.6439 -2.0652 0.9608
-9.7624 0.2944 -2.0645 0.9609
-9.7658 -0.0553 -2.0643 0.9609
-9.7425 -0.7543 -2.0655 0.9608
-9.7159 -1.1033 -2.0669 0.9608
-9.6323 -1.7994 -2.0713 0.9607
-9.5084 -2.4918 -2.0778 0.9606
-4.4775 8.8924 -2.3399 0.9599
-4.7625 8.6710 -2.3251 0.9602
-5.0385 8.4425 -2.3107 0.9604
-5.5631 7.9649 -2.2833 0.9609
-5.8115 7.7167 -2.2704 0.9611
-6.0506 7.4625 -2.2579 0.9613
-6.5008 6.9376 -2.2345 0.9617
-6.7118 6.6675 -2.2235 0.9619
-6.9134 6.3926 -2.2130 0.9620
-7.2882 5.8296 -2.1934 0.9624
-7.6251 5.2508 -2.1759 0.9627
-7.9241 4.6582 -2.1603 0.9629
-8.1852 4.0536 -2.1467 0.9632
-8.3016 3.7474 -2.1406 0.9633
-8.4085 3.4388 -2.1351 0.9634
-8.5059 3.1281 -2.1300 0.9634
-8.5939 2.8155 -2.1254 0.9635
-8.7415 2.1855 -2.1177 0.9637
-8.8012 1.8684 -2.1146 0.9637
-8.8924 1.2311 -2.1098 0.9638
-8.9238 0.9112 -2.1082 0.9638
-8.9458 0.5909 -2.1071 0.9638
-8.9585 0.2702 -2.1064 0.9638
-8.9555 -0.3715 -2.1066 0.9638
-8.9399 -0.6922 -2.1074 0.9638
-8.9149 -1.0124 -2.1087 0.9638
-8.7834 -1.9687 -2.1155 0.9637
-4.3618 7.9415 -2.3459 0.9633
-4.6170 7.7362 -2.3326 0.9635
-4.8640 7.5242 -2.3198 0.9637
-5.5551 6.8513 -2.2838 0.9642
-5.7685 6.6157 -2.2726 0.9644
-5.9735 6.3748 -2.2620 0.9645
-6.1698 6.1290 -2.2517 0.9647
-6.3575 5.8786 -2.2419 0.9649
-6.5366 5.6237 -2.2326 0.9650
-6.7069 5.3647 -2.2237 0.9651
-7.0215 4.8352 -2.2073 0.9654
-7.1656 4.5651 -2.1998 0.9655
-7.3009 4.2919 -2.1928 0.9656
-7.4275 4.0156 -2.1862 0.9657
-7.6542 3.4551 -2.1744 0.9659
-8.0018 2.3078 -2.1563 0.9662
-8.2732 -0.0468 -2.1421 0.9664
-8.2527 -0.6389 -2.1432 0.9664
-8.2293 -0.9345 -2.1444 0.9664
-8.1970 -1.2295 -2.1461 0.9663
-8.1558 -1.5236 -2.1482 0.9663
-8.1059 -1.8168 -2.1508 0.9663
-8.0471 -2.1089 -2.1539 0.9662
-3.7753 7.4979 -2.3765 0.9657
-4.0196 7.3185 -2.3638 0.9659
-4.2567 7.1325 -2.3514 0.9661
-4.4864 6.9400 -2.3394 0.9662
-4.9230 6.5370 -2.3167 0.9666
-5.1299 6.3270 -2.3059 0.9667
-5.3290 6.1117 -2.2955 0.9669
-5.5204 5.8913 -2.2856 0.9670
-6.0467 5.2023 -2.2581 0.9674
-6.5008 4.4766 -2.2345 0.9677
-6.6359 4.2276 -2.2274 0.9678
-6.8816 3.7205 -2.2146 0.9680
-7.0945 3.2025 -2.2035 0.9682
-7.1885 2.9399 -2.1986 0.9682
-7.2743 2.6752 -2.1942 0.9683
-7.4212 2.1404 -2.1865 0.9684
-7.5348 1.5996 -2.1806 0.9685
-7.5792 1.3274 -2.1783 0.9685
-7.6153 1.0543 -2.1764 0.9685
-7.6430 0.7805 -2.1750 0.9686
-7.6625 0.5061 -2.1739 0.9686
-7.6737 0.2314 -2.1734 0.9686
-7.6765 -0.0434 -2.1732 0.9686
-7.6711 -0.3182 -2.1735 0.9686
-7.6572 -0.5929 -2.1742 0.9686
-7.5661 -1.4135 -2.1790 0.9685
-7.4638 -1.9560 -2.1843 0.9684
-3.9449 6.6100 -2.3677 0.9683
-4.1593 6.4341 -2.3565 0.9684
-4.3668 6.2522 -2.3457 0.9686
-4.9474 5.6739 -2.3154 0.9690
-5.2984 5.2634 -2.2971 0.9692
-5.4630 5.0514 -2.2886 0.9693
-5.6201 4.8353 -2.2804 0.9694
-5.9120 4.3913 -2.2652 0.9697
-6.1737 3.9332 -2.2515 0.9698
-6.2931 3.6994 -2.2453 0.9699
-6.4049 3.4627 -2.2395 0.9700
-6.9131 1.9938 -2.2130 0.9703
-7.0202 1.4903 -2.2074 0.9704
-7.0621 1.2368 -2.2052 0.9704
-7.1223 0.7273 -2.2021 0.9705
-7.1407 0.4717 -2.2011 0.9705
-7.1512 0.2157 -2.2006 0.9705
-7.1539 -0.0405 -2.2004 0.9705
-7.1487 -0.2966 -2.2007 0.9705
-7.0497 -1.3170 -2.2059 0.9704
-3.2521 6.4588 -2.4038 0.9700
-4.0675 5.8237 -2.3613 0.9705
-4.6123 5.2897 -2.3329 0.9709
-5.0971 4.7131 -2.3076 0.9712
-5.3859 4.3080 -2.2926 0.9713
-5.5198 4.1000 -2.2856 0.9714
-5.6467 3.8885 -2.2790 0.9715
-5.9844 3.2354 -2.2614 0.9717
-6.0826 3.0123 -2.2563 0.9718
-6.1736 2.7868 -2.2515 0.9719
-6.3336 2.3292 -2.2432 0.9720
-6.5656 1.3938 -2.2311 0.9721
-6.6895 0.2017 -2.2246 0.9722
-6.6920 -0.0379 -2.2245 0.9722
-6.6748 -0.5168 -2.2254 0.9722
-6.6280 -0.9941 -2.2278 0.9721
-6.5935 -1.2318 -2.2296 0.9721
-3.0370 6.0317 -2.4150 0.9717
-3.8030 5.4449 -2.3751 0.9722
-4.3157 4.9495 -2.3483 0.9725
-4.6266 4.5961 -2.3321 0.9727
-4.7726 4.4131 -2.3245 0.9728
-5.0451 4.0355 -2.3103 0.9729
-5.1715 3.8413 -2.3037 0.9730
-5.2913 3.6438 -2.2975 0.9731
-5.5109 3.2396 -2.2861 0.9732
-5.7035 2.8246 -2.2760 0.9733
-5.7896 2.6134 -2.2715 0.9734
-5.8687 2.4001 -2.2674 0.9734
-5.9409 2.1848 -2.2636 0.9735
-6.0647 1.7492 -2.2572 0.9735
-6.1162 1.5291 -2.2545 0.9736
-6.1607 1.3078 -2.2522 0.9736
-6.1982 1.0855 -2.2502 0.9736
-6.2286 0.8623 -2.2487 0.9736
-6.2521 0.6384 -2.2474 0.9737
-6.2780 0.1894 -2.2461 0.9737
-6.2804 -0.0355 -2.2460 0.9737
-6.2641 -0.4850 -2.2468 0.9737
-6.2454 -0.7092 -2.2478 0.9737
-6.2197 -0.9329 -2.2491 0.9736
-6.1007 -1.5988 -2.2553 0.9736
-3.0339 5.5239 -2.4151 0.9734
-3.2170 5.3903 -2.4056 0.9735
-3.3947 5.2514 -2.3963 0.9736
-3.7341 4.9582 -2.3786 0.9738
-3.8954 4.8043 -2.3702 0.9739
-4.0510 4.6458 -2.3621 0.9739
-4.2007 4.4830 -2.3543 0.9740
-4.6145 3.9701 -2.3328 0.9743
-5.0805 3.2367 -2.3085 0.9745
-5.2757 2.8523 -2.2983 0.9746
-5.3637 2.6563 -2.2937 0.9747
-5.5888 2.0554 -2.2820 0.9748
-5.7063 1.6458 -2.2759 0.9749
-5.7551 1.4388 -2.2733 0.9749
-5.8841 0.6009 -2.2666 0.9750
-5.9086 0.1782 -2.2653 0.9750
-5.8954 -0.4565 -2.2660 0.9750
-5.8223 -1.0877 -2.2698 0.9749
-5.7846 -1.2966 -2.2718 0.9749
-5.7403 -1.5044 -2.2741 0.9749
-3.1926 4.9387 -2.4069 0.9749
-3.6657 4.5212 -2.3822 0.9752
-3.8129 4.3729 -2.3745 0.9752
-4.0909 4.0639 -2.3600 0.9754
-4.2216 3.9036 -2.3532 0.9755
-4.4658 3.5721 -2.3405 0.9756
-4.7884 3.0506 -2.3237 0.9758
-4.8840 2.8711 -2.3187 0.9758
-5.1346 2.3178 -2.3057 0.9759
-5.2059 2.1290 -2.3019 0.9760
-5.2710 1.9385 -2.2986 0.9760
-5.3299 1.7462 -2.2955 0.9761
-5.3825 1.5524 -2.2927 0.9761
-5.4289 1.3573 -2.2903 0.9761
-5.4691 1.1610 -2.2882 0.9761
-5.5304 0.7656 -2.2850 0.9762
-5.5515 0.5669 -2.2839 0.9762
-5.5664 0.3677 -2.2832 0.9762
-5.5749 0.1681 -2.2827 0.9762
-5.5771 -0.0315 -2.2826 0.9762
-5.5729 -0.2312 -2.2828 0.9762
-5.5624 -0.4306 -2.2834 0.9762
-5.5456 -0.6298 -2.2842 0.9762
-5.5224 -0.8283 -2.2855 0.9762
-5.4929 -1.0262 -2.2870 0.9761
-5.4571 -1.2231 -2.2889 0.9761
-5.4150 -1.4191 -2.2911 0.9761
-2.8511 4.7773 -2.4247 0.9760
-3.1642 4.5304 -2.4083 0.9762
-3.3136 4.3999 -2.4006 0.9763
-3.4581 4.2651 -2.3930 0.9763
-3.8612 3.8358 -2.3720 0.9765
-4.2171 3.3731 -2.3535 0.9767
-4.4269 3.0485 -2.3425 0.9768
-4.5235 2.8819 -2.3375 0.9769
-4.6996 2.5408 -2.3283 0.9770
-4.7790 2.3667 -2.3242 0.9770
-4.9824 1.8323 -2.3136 0.9771
-5.0384 1.6507 -2.3107 0.9771
-5.2292 0.7239 -2.3007 0.9772
-5.2737 -0.0298 -2.2984 0.9773
-5.2697 -0.2186 -2.2986 0.9772
-5.2437 -0.5955 -2.3000 0.9772
-5.2216 -0.7832 -2.3011 0.9772
-5.1935 -0.9702 -2.3026 0.9772
-5.1594 -1.1564 -2.3044 0.9772
-5.1194 -1.3416 -2.3065 0.9772
-2.8441 4.3996 -2.4250 0.9772
-3.1322 4.1590 -2.4100 0.9773
-3.2693 4.0322 -2.4029 0.9774
-3.4018 3.9013 -2.3960 0.9774
-3.7700 3.4860 -2.3768 0.9776
-3.8828 3.3405 -2.3709 0.9777
-4.0928 3.0400 -2.3599 0.9778
-4.1900 2.8854 -2.3549 0.9778
-4.3685 2.5680 -2.3456 0.9779
-4.4495 2.4056 -2.3414 0.9780
-4.5251 2.2410 -2.3374 0.9780
-4.7723 1.5635 -2.3245 0.9781
-4.8200 1.3902 -2.3221 0.9781
-4.8985 1.0399 -2.3180 0.9782
-4.9292 0.8633 -2.3164 0.9782
-4.9541 0.6858 -2.3151 0.9782
-4.9733 0.5079 -2.3141 0.9782
-4.9965 -0.0283 -2.3129 0.9782
-4.9679 -0.5642 -2.3144 0.9782
-4.9469 -0.7420 -2.3154 0.9782
-4.9201 -0.9192 -2.3168 0.9782
-4.8876 -1.0955 -2.3185 0.9782
-2.5496 4.2720 -2.4404 0.9781
-2.6926 4.1653 -2.4329 0.9781
-2.8316 4.0541 -2.4257 0.9782
-3.3440 3.5687 -2.3990 0.9784
-3.9729 2.7359 -2.3662 0.9787
-4.0605 2.5869 -2.3616 0.9788
-4.1429 2.4354 -2.3573 0.9788
-4.2202 2.2816 -2.3533 0.9789
-4.4771 1.6465 -2.3399 0.9790
-4.5736 1.3191 -2.3349 0.9790
-4.7016 0.6509 -2.3282 0.9791
-4.7328 0.3126 -2.3266 0.9791
-4.7402 0.1429 -2.3262 0.9791
-4.7420 -0.0268 -2.3261 0.9791
-4.7293 -0.3662 -2.3268 0.9791
-4.6691 -0.8723 -2.3299 0.9791
-4.6381 -1.0396 -2.3315 0.9790
-2.1343 4.2388 -2.4620 0.9788
-2.2777 4.1470 -2.4545 0.9789
-2.4175 4.0507 -2.4472 0.9790
-2.8139 3.7364 -2.4266 0.9791
-2.9380 3.6236 -2.4201 0.9792
-3.0579 3.5070 -2.4139 0.9793
-3.1736 3.3868 -2.4079 0.9793
-3.3917 3.1362 -2.3965 0.9794
-3.8566 2.4570 -2.3723 0.9796
-3.9353 2.3133 -2.3682 0.9796
-4.0090 2.1674 -2.3643 0.9797
-4.0779 2.0195 -2.3607 0.9797
-4.2543 1.5645 -2.3515 0.9798
-4.4179 0.9379 -2.3430 0.9799
-4.4459 0.7786 -2.3416 0.9799
-4.4687 0.6187 -2.3404 0.9799
-4.4862 0.4581 -2.3395 0.9799
-4.4985 0.2971 -2.3388 0.9799
-4.5055 0.1359 -2.3384 0.9799
-4.5073 -0.0255 -2.3384 0.9799
-4.4952 -0.3480 -2.3390 0.9799
-4.4812 -0.5089 -2.3397 0.9799
-4.4621 -0.6693 -2.3407 0.9799
-4.4376 -0.8290 -2.3420 0.9799
-4.4080 -0.9880 -2.3435 0.9798
-2.2957 3.8468 -2.4536 0.9798
-2.4254 3.7518 -2.4468 0.9798
-2.5512 3.6527 -2.4403 0.9799
-2.6734 3.5498 -2.4339 0.9799
-2.9060 3.3327 -2.4218 0.9800
-3.1224 3.1017 -2.4105 0.9801
-3.2243 2.9814 -2.4052 0.9802
-3.5040 2.6026 -2.3906 0.9803
-3.6681 2.3369 -2.3821 0.9804
-3.8137 2.0618 -2.3745 0.9804
-3.8794 1.9212 -2.3711 0.9805
-3.9404 1.7787 -2.3679 0.9805
-3.9966 1.6345 -2.3650 0.9805
-4.2530 0.5888 -2.3516 0.9806
-4.2697 0.4360 -2.3507 0.9806
-4.2815 0.2828 -2.3501 0.9806
-4.2883 0.1293 -2.3498 0.9806
-4.2899 -0.0243 -2.3497 0.9806
-4.2650 -0.4843 -2.3510 0.9806
-4.2466 -0.6370 -2.3519 0.9806
-4.2233 -0.7890 -2.3531 0.9806
-2.3066 3.5681 -2.4530 0.9806
-2.4267 3.4744 -2.4468 0.9806
-2.8703 3.0632 -2.4237 0.9808
-3.0690 2.8378 -2.4133 0.9809
-3.1622 2.7206 -2.4084 0.9809
-3.2513 2.6006 -2.4038 0.9810
-3.4168 2.3529 -2.3952 0.9810
-3.5649 2.0956 -2.3875 0.9811
-3.7535 1.6943 -2.3776 0.9812
-3.8564 1.4182 -2.3723 0.9812
-3.9407 1.1365 -2.3679 0.9812
-3.9757 0.9940 -2.3661 0.9812
-4.0061 0.8504 -2.3645 0.9813
-4.0317 0.7061 -2.3631 0.9813
-4.0686 0.4155 -2.3612 0.9813
-4.0862 0.1232 -2.3603 0.9813
-4.0768 -0.3157 -2.3608 0.9813
-3.9970 -0.8959 -2.3649 0.9813
