ply
format ascii 1.0
element vertex 643
property float32 x
property float32 y
property float32 z
property float32 I
end_header
0.8119 -17.8659 3.1535 0.9299
8.4991 -44.4021 7.9714 0.8323
10.6623 -46.5748 8.4248 0.8236
10.6473 -39.8673 7.2761 0.8457
8.1052 -20.9745 3.9649 0.9127
8.1174 -17.2151 3.3560 0.9256
8.1414 -15.7714 3.1296 0.9304
8.1627 -14.5089 2.9354 0.9346
8.1817 -13.3930 2.7673 0.9382
8.2144 -11.5002 2.4920 0.9442
8.7409 -11.3520 2.5263 0.9435
10.9268 -11.4058 2.7851 0.9379
12.6813 -10.6610 2.9212 0.9349
1.4514 -17.8042 2.7366 0.9303
7.5009 -48.5792 7.5302 0.8196
10.6548 -46.5420 7.3144 0.8243
12.7380 -47.6958 7.5628 0.8189
7.9911 -23.1164 3.7469 0.9058
7.8141 -18.2435 3.0404 0.9228
8.1207 -15.7312 2.7121 0.9309
8.1432 -14.4742 2.5442 0.9350
8.1813 -12.3704 2.2720 0.9417
8.1977 -11.4769 2.1606 0.9445
8.7413 -11.3524 2.1949 0.9437
9.4236 -11.3692 2.2622 0.9420
10.1502 -11.3871 2.3369 0.9401
10.9273 -11.4063 2.4198 0.9381
11.7628 -11.4269 2.5123 0.9358
12.6658 -11.4492 2.6156 0.9332
7.5053 -48.6079 6.4048 0.8200
7.2027 -37.6297 4.9891 0.8568
8.1157 -35.4513 4.7359 0.8636
9.5429 -35.7325 4.8162 0.8614
7.4427 -24.3270 3.3128 0.9025
8.0062 -20.7181 2.8924 0.9143
8.0423 -18.7762 2.6599 0.9209
8.0732 -17.1216 2.4650 0.9265
8.1214 -12.2799 1.9172 0.9423
8.1812 -11.4538 1.8329 0.9448
8.7416 -11.3529 1.8659 0.9438
10.9277 -11.4068 2.0570 0.9383
11.7633 -11.4274 2.1356 0.9360
13.6482 -11.4739 2.3219 0.9306
6.8595 -44.4255 4.8270 0.8346
7.7382 -33.8020 3.7236 0.8698
9.0918 -34.0433 3.7837 0.8678
10.4948 -34.3029 3.8520 0.8656
7.9357 -22.9562 2.6082 0.9069
7.9810 -20.6529 2.3776 0.9148
8.7419 -11.3533 1.5387 0.9440
9.4927 -11.4525 1.5973 0.9419
10.1510 -11.3881 1.6382 0.9405
10.9282 -11.4073 1.6963 0.9384
7.0741 -45.8159 3.9244 0.8302
10.1161 -33.0651 2.9271 0.8704
7.8922 -20.4232 1.8535 0.9159
8.0598 -15.6132 1.4874 0.9319
8.1189 -14.4310 1.4017 0.9357
8.0547 -13.1851 1.3079 0.9399
8.1220 -12.2807 1.2464 0.9426
8.7422 -11.3537 1.2130 0.9441
10.9287 -11.4078 1.3373 0.9386
11.7643 -11.4284 1.3884 0.9363
13.6496 -11.4749 1.5095 0.9309
7.5229 -39.3026 2.4814 0.8518
7.7197 -33.7214 2.1452 0.8705
6.8827 -25.7713 1.6541 0.8986
7.7204 -25.2342 1.6364 0.8996
7.8925 -20.4239 1.3578 0.9160
7.9731 -18.6147 1.2557 0.9220
8.1000 -14.3975 1.0244 0.9359
8.1130 -12.2671 0.9120 0.9428
8.1325 -11.3857 0.8676 0.9455
8.7426 -11.3541 0.8886 0.9442
9.3838 -11.3211 0.9118 0.9428
10.9291 -11.4082 0.9797 0.9386
11.7648 -11.4289 1.0171 0.9364
12.6579 -11.4421 1.0581 0.9339
1.4459 -17.7369 0.7017 0.9312
7.4029 -47.9448 1.9129 0.8235
7.4530 -38.9374 1.5632 0.8533
7.7199 -33.7224 1.3641 0.8707
7.7217 -25.2386 1.0407 0.8997
7.8023 -22.5704 0.9416 0.9088
7.9069 -20.4612 0.8649 0.9159
7.9878 -16.9403 0.7385 0.9278
8.0485 -14.3059 0.6472 0.9364
8.0962 -12.2418 0.5787 0.9429
8.7429 -11.3546 0.5651 0.9442
9.4255 -11.3715 0.5824 0.9426
10.1522 -11.3895 0.6016 0.9408
11.7653 -11.4294 0.6468 0.9364
13.6508 -11.4760 0.7032 0.9311
1.4455 -17.7318 0.3005 0.9313
7.3967 -47.9042 0.8188 0.8237
7.7202 -33.7234 0.5844 0.8707
7.8286 -22.6463 0.4047 0.9086
7.8826 -20.3984 0.3694 0.9162
7.9280 -18.5094 0.3401 0.9226
7.8410 -13.9372 0.2701 0.9380
7.7401 -12.6701 0.2508 0.9423
8.7432 -11.3550 0.2421 0.9443
9.4258 -11.3719 0.2495 0.9426
10.1526 -11.3899 0.2577 0.9408
10.9300 -11.4092 0.2669 0.9387
11.7658 -11.4298 0.2771 0.9365
12.6692 -11.4522 0.2885 0.9340
13.6514 -11.4766 0.3013 0.9311
7.3982 -38.6511 -0.2216 0.8544
7.7204 -33.7244 -0.1948 0.8708
7.8585 -20.3361 -0.1228 0.9165
7.9057 -18.4573 -0.1131 0.9228
7.8985 -14.0392 -0.0907 0.9376
7.7680 -12.7158 -0.0839 0.9421
7.6580 -11.5791 -0.0782 0.9460
8.0995 -11.3394 -0.0785 0.9458
8.7436 -11.3554 -0.0807 0.9443
9.4262 -11.3723 -0.0832 0.9426
11.7663 -11.4304 -0.0924 0.9365
-23.3471 -39.9003 -1.3017 0.8311
7.3664 -38.4853 -1.1033 0.8549
6.7687 -25.3442 -0.7387 0.9004
2.5195 -7.2882 -0.2171 0.9696
8.0998 -11.3399 -0.3924 0.9458
10.9309 -11.4101 -0.4449 0.9387
-16.1657 -30.0546 -1.7307 0.8722
-12.8593 -35.2521 -1.9030 0.8605
-11.8918 -36.6369 -1.9534 0.8570
-9.7567 -39.5264 -2.0647 0.8495
-8.5784 -41.0366 -2.1261 0.8454
-7.3182 -42.5947 -2.1918 0.8411
-5.9690 -44.2042 -2.2621 0.8364
-2.9721 -47.5924 -2.4183 0.8261
-1.3059 -49.3802 -2.5052 0.8205
0.4573 -48.1980 -2.4444 0.8244
1.4461 -17.7395 -0.9026 0.9312
7.2889 -38.0803 -1.9663 0.8562
5.9873 -26.1538 -1.3607 0.8981
6.7407 -25.2395 -1.3249 0.9007
2.5092 -8.2014 -0.4350 0.9662
2.5103 -7.2617 -0.3897 0.9697
2.5112 -6.4983 -0.3533 0.9725
2.5130 -4.8680 -0.2778 0.9783
2.5134 -4.4674 -0.2600 0.9797
2.5137 -4.1148 -0.2445 0.9809
2.5140 -3.8012 -0.2311 0.9819
2.5142 -3.5199 -0.2194 0.9828
2.5144 -3.2655 -0.2090 0.9836
2.5146 -3.0337 -0.1998 0.9843
-14.1593 -20.6403 -1.8353 0.9045
-13.6158 -21.4618 -1.8636 0.9031
-11.7987 -23.9607 -1.9583 0.8984
-11.1260 -24.8052 -1.9934 0.8967
-9.6710 -26.5116 -2.0692 0.8930
-7.1862 -29.1128 -2.1987 0.8867
-5.3041 -30.8720 -2.2968 0.8819
-4.2884 -31.7581 -2.3497 0.8794
-3.2194 -32.6478 -2.4054 0.8767
-2.0945 -33.5404 -2.4641 0.8739
-0.9107 -34.4352 -2.5257 0.8710
0.3153 -33.2358 -2.4370 0.8752
1.5487 -34.0788 -2.5013 0.8721
5.9313 -25.9093 -1.9489 0.8989
6.3907 -23.9292 -1.8160 0.9054
2.4990 -8.1682 -0.6263 0.9663
2.5012 -7.2354 -0.5613 0.9698
2.5043 -5.8468 -0.4664 0.9748
2.5064 -4.8554 -0.4006 0.9783
2.5079 -4.1054 -0.3527 0.9809
2.5091 -3.5127 -0.3165 0.9828
2.5095 -3.2591 -0.3016 0.9836
2.5099 -3.0281 -0.2884 0.9843
2.5037 -2.8088 -0.2759 0.9850
-11.1236 -17.5335 -1.9935 0.9199
-10.0994 -18.7764 -2.0469 0.9179
-8.3735 -20.6220 -2.1368 0.9144
-7.7444 -21.2303 -2.1696 0.9132
-5.6838 -23.0262 -2.2770 0.9091
-4.9361 -23.6129 -2.3160 0.9076
-4.1564 -24.1921 -2.3566 0.9061
-1.6159 -25.8753 -2.4890 0.9011
-0.6986 -26.4144 -2.5368 0.8993
1.1736 -25.8237 -2.4818 0.9013
1.4476 -17.7569 -1.7104 0.9309
4.1950 -27.1686 -2.6392 0.8954
2.4921 -7.2091 -0.7323 0.9698
2.4947 -6.4556 -0.6644 0.9726
2.4985 -5.2987 -0.5624 0.9767
2.5000 -4.8428 -0.5232 0.9783
2.5032 -3.7848 -0.4356 0.9819
2.4994 -2.8040 -0.3606 0.9850
2.5000 -2.2598 -0.3235 0.9865
-9.3962 -14.8108 -2.0835 0.9318
-8.4958 -15.7951 -2.1304 0.9303
-7.5159 -16.7566 -2.1815 0.9287
-6.4533 -17.6909 -2.2369 0.9270
-5.8900 -18.1463 -2.2662 0.9260
-5.3048 -18.5931 -2.2967 0.9251
-4.6974 -19.0304 -2.3284 0.9241
-2.7380 -20.2772 -2.4305 0.9209
-0.5661 -21.4067 -2.5437 0.9174
0.9440 -20.7705 -2.4698 0.9197
1.4495 -17.7808 -2.1191 0.9307
4.1754 -21.8137 -2.6382 0.9144
5.0410 -22.0199 -2.6833 0.9130
5.9292 -22.2011 -2.7296 0.9116
2.4788 -8.1022 -1.0065 0.9664
2.4831 -7.1829 -0.9028 0.9699
2.4864 -6.4343 -0.8194 0.9726
2.4951 -4.4349 -0.6045 0.9797
2.4965 -4.0866 -0.5689 0.9809
2.4978 -3.7766 -0.5379 0.9819
2.4997 -3.2464 -0.4867 0.9836
2.5005 -3.0168 -0.4655 0.9843
2.4950 -2.7991 -0.4454 0.9850
2.4954 -2.6048 -0.4285 0.9856
2.4958 -2.4245 -0.4133 0.9861
-8.5040 -12.3964 -2.1300 0.9411
-8.1274 -12.8108 -2.1496 0.9405
-7.3263 -13.6207 -2.1914 0.9394
-6.4599 -14.4023 -2.2365 0.9382
-6.0019 -14.7812 -2.2604 0.9376
-4.5260 -15.8631 -2.3373 0.9355
-3.4561 -16.5324 -2.3931 0.9340
-1.1065 -17.7194 -2.5155 0.9308
-0.4754 -17.9797 -2.5484 0.9299
0.1627 -17.1429 -2.4291 0.9331
1.4309 -17.5519 -2.4952 0.9313
2.0887 -17.7295 -2.5295 0.9304
3.4503 -18.0257 -2.6004 0.9285
4.1532 -18.1422 -2.6371 0.9276
4.8703 -18.2361 -2.6744 0.9266
2.4740 -7.1568 -1.0729 0.9699
2.4783 -6.4131 -0.9742 0.9726
2.4845 -5.2692 -0.8254 0.9767
2.4870 -4.8177 -0.7682 0.9783
2.4908 -4.0772 -0.6770 0.9809
2.4923 -3.7684 -0.6402 0.9819
2.4937 -3.4911 -0.6079 0.9828
2.4958 -3.0111 -0.5542 0.9843
2.4921 -2.2528 -0.4760 0.9865
2.4925 -2.0954 -0.4614 0.9869
-7.4947 -10.9252 -2.1826 0.9477
-6.4348 -11.9634 -2.2378 0.9464
-6.0541 -12.2948 -2.2577 0.9460
-5.2514 -12.9330 -2.2995 0.9450
-4.8292 -13.2387 -2.3215 0.9445
-3.9432 -13.8208 -2.3677 0.9434
-3.4795 -14.0960 -2.3919 0.9428
-2.5104 -14.6116 -2.4424 0.9417
-0.9547 -15.2881 -2.5235 0.9398
-0.4095 -15.4849 -2.5519 0.9391
0.1398 -14.7371 -2.4279 0.9420
1.2254 -15.0313 -2.4845 0.9407
1.7852 -15.1535 -2.5136 0.9400
2.9371 -15.3441 -2.5737 0.9386
3.5280 -15.4110 -2.6045 0.9379
2.4587 -8.0365 -1.3845 0.9665
2.4741 -5.7763 -1.0352 0.9748
2.4850 -4.0679 -0.7853 0.9809
2.4869 -3.7602 -0.7427 0.9819
2.4885 -3.4839 -0.7053 0.9828
2.4899 -3.2336 -0.6723 0.9836
2.4911 -3.0054 -0.6431 0.9843
2.4863 -2.7893 -0.6156 0.9850
2.4877 -2.4166 -0.5714 0.9860
2.4887 -2.0922 -0.5356 0.9869
-6.6943 -9.7584 -2.2243 0.9530
-6.0647 -10.3646 -2.2571 0.9523
-4.6639 -11.4861 -2.3301 0.9508
-4.2844 -11.7451 -2.3499 0.9504
-3.4905 -12.2341 -2.3913 0.9495
-3.0763 -12.4630 -2.4129 0.9491
-1.7664 -13.0816 -2.4811 0.9477
-1.3079 -13.2631 -2.5050 0.9472
-0.3593 -13.5857 -2.5545 0.9462
0.5921 -13.0289 -2.4515 0.9483
1.0705 -13.1315 -2.4764 0.9478
2.0520 -13.2897 -2.5275 0.9467
3.0634 -13.3814 -2.5803 0.9457
2.4487 -8.0038 -1.5732 0.9665
2.4618 -6.3706 -1.2837 0.9726
2.4666 -5.7587 -1.1775 0.9748
2.4706 -5.2395 -1.0888 0.9767
2.4739 -4.7924 -1.0137 0.9783
2.4793 -4.0584 -0.8939 0.9808
2.4814 -3.7520 -0.8455 0.9819
2.4864 -2.9997 -0.7323 0.9843
2.4819 -2.7844 -0.7011 0.9849
2.4843 -2.2457 -0.6295 0.9865
-6.0434 -8.8096 -2.2582 0.9573
-5.1635 -9.5997 -2.3041 0.9564
-4.8495 -9.8484 -2.3205 0.9561
-4.5254 -10.0892 -2.3374 0.9558
-3.4924 -10.7597 -2.3912 0.9548
-2.7546 -11.1593 -2.4296 0.9541
-1.9787 -11.5168 -2.4701 0.9533
-1.5770 -11.6785 -2.4910 0.9530
-0.3197 -12.0903 -2.5565 0.9518
0.1089 -11.4777 -2.4263 0.9542
0.5258 -11.5691 -2.4480 0.9538
1.3796 -11.7106 -2.4925 0.9529
2.4470 -7.0784 -1.5831 0.9698
2.4536 -6.3493 -1.4389 0.9726
2.4636 -5.2247 -1.2210 0.9767
2.4707 -4.3915 -1.0651 0.9796
2.4760 -3.7437 -0.9488 0.9818
2.4816 -2.9940 -0.8220 0.9842
2.4786 -2.5872 -0.7573 0.9855
-5.5032 -8.0222 -2.2864 0.9608
-5.2425 -8.2635 -2.3000 0.9606
-4.9725 -8.4981 -2.3141 0.9604
-4.6934 -8.7258 -2.3286 0.9601
-4.1080 -9.1587 -2.3591 0.9596
-3.4871 -9.5593 -2.3915 0.9591
-3.1636 -9.7466 -2.4083 0.9588
-2.8316 -9.9247 -2.4256 0.9585
-2.4914 -10.0933 -2.4434 0.9582
-2.1431 -10.2519 -2.4615 0.9579
0.0979 -10.3207 -2.4257 0.9585
0.4724 -10.3934 -2.4452 0.9582
0.8522 -10.4537 -2.4650 0.9578
1.2372 -10.5011 -2.4851 0.9575
1.6267 -10.5353 -2.5054 0.9571
2.0205 -10.5558 -2.5259 0.9568
2.8188 -10.5546 -2.5675 0.9561
2.4287 -7.9382 -1.9510 0.9665
2.4453 -6.3279 -1.5944 0.9725
2.4566 -5.2097 -1.3537 0.9766
2.4677 -4.0394 -1.1125 0.9807
2.4750 -3.2143 -0.9534 0.9835
2.4769 -2.9882 -0.9122 0.9842
2.4743 -2.5828 -0.8406 0.9854
2.4754 -2.4047 -0.8111 0.9859
2.4772 -2.0825 -0.7606 0.9868
-5.0472 -7.3575 -2.3102 0.9638
-4.8058 -7.5751 -2.3227 0.9636
-3.7577 -8.3777 -2.3774 0.9628
-3.1860 -8.7340 -2.4072 0.9623
-2.8887 -8.8997 -2.4227 0.9621
-2.5840 -9.0568 -2.4385 0.9618
-1.6274 -9.4720 -2.4884 0.9611
-0.6118 -9.7961 -2.5413 0.9603
0.4284 -9.4254 -2.4429 0.9618
1.4719 -9.5322 -2.4973 0.9609
1.8267 -9.5433 -2.5158 0.9606
2.1844 -9.5417 -2.5344 0.9604
2.5444 -9.5271 -2.5532 0.9601
2.4371 -6.3065 -1.7506 0.9725
2.4542 -4.7543 -1.3853 0.9781
2.4584 -4.3696 -1.2981 0.9795
2.4619 -4.0299 -1.2227 0.9807
2.4700 -3.2078 -1.0483 0.9834
2.4721 -2.9824 -1.0030 0.9841
2.4686 -2.7695 -0.9606 0.9848
-4.6569 -6.7885 -2.3305 0.9664
-4.4322 -6.9863 -2.3422 0.9662
-4.2000 -7.1779 -2.3543 0.9660
-3.7134 -7.5412 -2.3797 0.9657
-3.4593 -7.7125 -2.3929 0.9655
-2.6553 -8.1806 -2.4348 0.9649
-2.0862 -8.4519 -2.4645 0.9645
-1.4926 -8.6875 -2.4954 0.9640
-0.8762 -8.8852 -2.5275 0.9636
-0.5601 -8.9690 -2.5440 0.9633
-0.2391 -9.0424 -2.5607 0.9631
0.0813 -8.5651 -2.4248 0.9650
0.3915 -8.6137 -2.4410 0.9648
0.7053 -8.6517 -2.4574 0.9646
1.0225 -8.6787 -2.4739 0.9643
1.3426 -8.6946 -2.4906 0.9641
1.6651 -8.6991 -2.5074 0.9638
2.4197 -6.9996 -2.0966 0.9697
2.4287 -6.2849 -1.9075 0.9724
2.4423 -5.1796 -1.6212 0.9765
2.4521 -4.3585 -1.4157 0.9794
2.4641 -2.7644 -1.0484 0.9847
2.4657 -2.5738 -1.0090 0.9853
2.4683 -2.2312 -0.9419 0.9863
-4.1087 -6.4764 -2.3591 0.9684
-3.8920 -6.6515 -2.3704 0.9683
-3.6685 -6.8204 -2.3820 0.9681
-2.9588 -7.2868 -2.4190 0.9676
-2.7096 -7.4281 -2.4320 0.9675
-1.9266 -7.8053 -2.4728 0.9669
-1.6545 -7.9146 -2.4870 0.9667
-1.3770 -8.0152 -2.5014 0.9665
-1.0946 -8.1069 -2.5162 0.9663
-0.8075 -8.1895 -2.5311 0.9661
-0.2201 -8.3258 -2.5617 0.9657
0.0748 -7.8822 -2.4245 0.9676
0.3601 -7.9227 -2.4394 0.9674
0.6484 -7.9533 -2.4544 0.9672
0.9394 -7.9739 -2.4696 0.9670
1.8252 -7.9729 -2.5157 0.9664
2.1235 -7.9510 -2.5313 0.9661
2.3984 -7.8391 -2.5215 0.9663
2.4105 -6.9731 -2.2693 0.9696
2.4204 -6.2633 -2.0653 0.9723
2.4409 -4.7285 -1.6367 0.9780
2.4458 -4.3473 -1.5343 0.9793
2.4537 -3.7101 -1.3682 0.9816
2.4598 -3.1946 -1.2401 0.9833
2.4623 -2.9707 -1.1868 0.9840
2.4596 -2.7593 -1.1369 0.9846
2.4629 -2.3925 -1.0561 0.9857
2.4642 -2.2275 -1.0217 0.9862
-4.0223 -5.8634 -2.3636 0.9705
-2.7501 -6.7729 -2.4299 0.9697
-2.5176 -6.9016 -2.4420 0.9695
-1.5347 -7.3418 -2.4932 0.9689
-0.7481 -7.5871 -2.5342 0.9684
-0.2038 -7.7065 -2.5626 0.9680
1.9582 -7.3321 -2.5227 0.9685
2.2329 -7.2982 -2.5370 0.9683
2.4013 -6.9464 -2.4431 0.9695
2.4119 -6.2414 -2.2242 0.9722
2.4207 -5.6514 -2.0437 0.9744
2.4395 -4.3361 -1.6538 0.9792
2.4516 -3.4322 -1.4021 0.9824
2.4574 -2.9647 -1.2800 0.9839
2.4550 -2.7542 -1.2264 0.9846
2.4569 -2.5646 -1.1806 0.9851
2.4586 -2.3884 -1.1394 0.9857
-3.7604 -5.4817 -2.3772 0.9722
-2.3486 -6.4383 -2.4508 0.9713
-1.8983 -6.6534 -2.4743 0.9710
-1.6662 -6.7502 -2.4864 0.9709
-1.4297 -6.8394 -2.4987 0.9708
-0.1894 -7.1655 -2.5633 0.9700
0.3094 -6.8069 -2.4367 0.9715
0.5566 -6.8273 -2.4496 0.9713
0.8057 -6.8390 -2.4626 0.9712
1.0564 -6.8417 -2.4757 0.9710
1.3084 -6.8354 -2.4888 0.9709
2.0685 -6.7610 -2.5284 0.9704
2.3221 -6.7172 -2.5416 0.9703
2.4034 -6.2195 -2.3844 0.9721
2.4207 -5.1337 -2.0297 0.9762
2.4274 -4.7022 -1.8924 0.9778
2.4331 -4.3247 -1.7745 0.9791
2.4380 -3.9909 -1.6724 0.9803
2.4423 -3.6929 -1.5833 0.9814
2.4461 -3.4246 -1.5050 0.9823
2.4495 -3.1811 -1.4358 0.9831
2.4524 -2.9587 -1.3743 0.9838
2.4504 -2.7490 -1.3169 0.9845
2.4524 -2.5599 -1.2677 0.9851
2.4559 -2.2200 -1.1839 0.9860
-3.5271 -5.1415 -2.3894 0.9736
-2.9882 -5.5556 -2.4175 0.9733
-2.7982 -5.6826 -2.4274 0.9732
-2.6031 -5.8036 -2.4375 0.9731
-1.7760 -6.2248 -2.4806 0.9727
-1.1114 -6.4688 -2.5153 0.9723
-0.8825 -6.5354 -2.5272 0.9721
-0.4150 -6.6453 -2.5516 0.9719
0.0600 -6.3244 -2.4237 0.9733
0.2886 -6.3492 -2.4356 0.9731
0.5190 -6.3659 -2.4476 0.9730
0.7510 -6.3746 -2.4597 0.9729
0.9843 -6.3748 -2.4719 0.9727
1.2187 -6.3666 -2.4841 0.9726
1.9246 -6.2904 -2.5209 0.9722
2.1597 -6.2475 -2.5332 0.9721
2.4049 -5.6146 -2.3407 0.9742
2.4133 -5.1181 -2.1685 0.9761
2.4205 -4.6889 -2.0222 0.9776
2.4319 -3.9809 -1.7877 0.9802
2.4366 -3.6841 -1.6927 0.9813
2.4457 -2.7437 -1.4085 0.9844
2.4479 -2.5552 -1.3560 0.9850
2.4533 -2.0624 -1.2282 0.9864
-3.1530 -4.9699 -2.4089 0.9749
-2.9834 -5.0986 -2.4177 0.9748
-2.6295 -5.3401 -2.4362 0.9746
-2.4456 -5.4524 -2.4457 0.9745
-2.0645 -5.6595 -2.4656 0.9743
-1.8676 -5.7539 -2.4759 0.9742
-1.4621 -5.9232 -2.4970 0.9740
-1.2538 -5.9979 -2.5079 0.9739
-1.0421 -6.0656 -2.5189 0.9738
-0.6094 -6.1796 -2.5414 0.9735
0.0562 -5.9212 -2.4235 0.9747
0.2701 -5.9426 -2.4347 0.9746
0.4856 -5.9564 -2.4459 0.9745
0.7025 -5.9626 -2.4572 0.9744
1.3585 -5.9338 -2.4914 0.9740
1.5779 -5.9082 -2.5028 0.9739
2.3969 -5.5960 -2.4916 0.9740
2.4059 -5.1023 -2.3088 0.9759
2.4135 -4.6754 -2.1535 0.9775
2.4257 -3.9708 -1.9044 0.9801
2.4388 -3.1673 -1.6361 0.9829
2.4409 -2.7384 -1.5014 0.9843
2.4433 -2.5504 -1.4455 0.9849
2.4455 -2.3756 -1.3954 0.9854
2.4474 -2.2123 -1.3502 0.9858
-2.9725 -4.6854 -2.4183 0.9761
-2.4774 -5.0312 -2.4441 0.9758
-2.3036 -5.1359 -2.4531 0.9757
-1.7579 -5.4160 -2.4816 0.9755
-1.1793 -5.6413 -2.5117 0.9752
-0.7776 -5.7591 -2.5327 0.9750
-0.5727 -5.8077 -2.5434 0.9749
-0.3652 -5.8492 -2.5542 0.9748
-0.1556 -5.8837 -2.5651 0.9746
0.0528 -5.5602 -2.4234 0.9760
0.2536 -5.5787 -2.4338 0.9759
0.4557 -5.5901 -2.4444 0.9758
0.6591 -5.5943 -2.4549 0.9757
1.2735 -5.5626 -2.4870 0.9754
1.4788 -5.5369 -2.4977 0.9753
1.6839 -5.5037 -2.5084 0.9752
1.8884 -5.4628 -2.5190 0.9751
2.2949 -5.3578 -2.5402 0.9749
2.3983 -5.0864 -2.4508 0.9758
2.4247 -3.6662 -1.9157 0.9810
2.4361 -2.7330 -1.5956 0.9842
2.4387 -2.5456 -1.5363 0.9847
2.4449 -2.0554 -1.3920 0.9862
-2.9564 -4.3096 -2.4191 0.9772
-2.8086 -4.4271 -2.4268 0.9772
-2.0064 -4.9413 -2.4686 0.9768
-1.8343 -5.0284 -2.4776 0.9767
-1.4795 -5.1855 -2.4961 0.9765
0.2387 -5.2508 -2.4330 0.9771
1.0044 -5.2472 -2.4729 0.9767
1.1971 -5.2289 -2.4830 0.9766
1.3897 -5.2035 -2.4930 0.9765
1.5821 -5.1709 -2.5030 0.9764
1.7738 -5.1311 -2.5130 0.9764
2.3993 -4.6479 -2.4212 0.9772
2.4067 -4.2778 -2.2720 0.9786
2.4131 -3.9501 -2.1427 0.9798
2.4187 -3.6571 -2.0296 0.9809
2.4236 -3.3930 -1.9301 0.9818
2.4279 -3.1531 -1.8421 0.9826
2.4312 -2.7275 -1.6913 0.9840
2.4364 -2.3669 -1.5723 0.9851
2.4386 -2.2044 -1.5216 0.9856
2.4406 -2.0518 -1.4759 0.9860
-2.7993 -4.0805 -2.4273 0.9782
-2.2135 -4.4952 -2.4578 0.9779
-1.8977 -4.6736 -2.4743 0.9778
-1.7346 -4.7551 -2.4828 0.9777
-1.5681 -4.8311 -2.4915 0.9776
-1.0505 -5.0256 -2.5185 0.9774
-0.5095 -5.1666 -2.5467 0.9771
-0.3248 -5.2012 -2.5563 0.9770
-0.1382 -5.2293 -2.5660 0.9770
0.2252 -4.9535 -2.4323 0.9781
0.4045 -4.9612 -2.4417 0.9781
0.7655 -4.9573 -2.4605 0.9779
1.1279 -4.9271 -2.4794 0.9777
1.6703 -4.8316 -2.5076 0.9775
2.2046 -4.6753 -2.5355 0.9772
2.3796 -4.6096 -2.5446 0.9772
2.3999 -4.2657 -2.4009 0.9784
2.4067 -3.9395 -2.2645 0.9796
2.4126 -3.6479 -2.1453 0.9807
2.4178 -3.3848 -2.0404 0.9816
2.4262 -2.7219 -1.7886 0.9839
2.4318 -2.3623 -1.6630 0.9850
2.4362 -2.0481 -1.5612 0.9859
-2.6550 -3.8702 -2.4348 0.9791
-2.5214 -3.9744 -2.4418 0.9790
-2.3840 -4.0744 -2.4490 0.9790
-2.0981 -4.2608 -2.4639 0.9788
-1.9497 -4.3470 -2.4716 0.9788
-1.4853 -4.5759 -2.4958 0.9786
-1.3244 -4.6418 -2.5042 0.9785
-1.1607 -4.7024 -2.5127 0.9784
-0.9945 -4.7574 -2.5214 0.9783
-0.3072 -4.9197 -2.5572 0.9780
-0.1308 -4.9452 -2.5664 0.9780
0.0445 -4.6804 -2.4283 0.9791
0.3823 -4.6888 -2.4405 0.9790
0.5524 -4.6890 -2.4494 0.9789
0.7231 -4.6831 -2.4583 0.9789
1.0652 -4.6526 -2.4761 0.9787
1.2360 -4.6279 -2.4850 0.9786
1.4064 -4.5969 -2.4939 0.9786
1.5762 -4.5595 -2.5027 0.9785
1.7451 -4.5158 -2.5115 0.9784
1.9128 -4.4657 -2.5203 0.9783
2.3929 -4.2533 -2.5318 0.9782
2.4209 -2.9207 -1.9681 0.9831
2.4243 -2.5305 -1.8180 0.9843
2.4296 -2.1962 -1.6990 0.9854
2.4318 -2.0444 -1.6481 0.9858
-2.2639 -3.8691 -2.4552 0.9798
-2.1295 -3.9591 -2.4622 0.9797
-1.8506 -4.1260 -2.4768 0.9796
-1.7064 -4.2025 -2.4843 0.9795
-1.5591 -4.2743 -2.4919 0.9795
-1.4090 -4.3411 -2.4998 0.9794
-1.2562 -4.4029 -2.5077 0.9793
-1.1008 -4.4596 -2.5158 0.9793
-0.9429 -4.5109 -2.5241 0.9792
-0.7829 -4.5569 -2.5324 0.9791
-0.2911 -4.6614 -2.5580 0.9789
0.0421 -4.4370 -2.4303 0.9800
0.3619 -4.4392 -2.4395 0.9799
0.6844 -4.4321 -2.4563 0.9798
0.8460 -4.4198 -2.4647 0.9797
1.1691 -4.3773 -2.4815 0.9795
1.4903 -4.3110 -2.4983 0.9794
1.8079 -4.2207 -2.5148 0.9793
1.9647 -4.1665 -2.5230 0.9792
2.1198 -4.1064 -2.5311 0.9791
2.4057 -3.3681 -2.2670 0.9813
2.4154 -2.9140 -2.0730 0.9829
2.4160 -2.7104 -1.9886 0.9836
2.4193 -2.5253 -1.9154 0.9842
2.4222 -2.3531 -1.8496 0.9847
2.4249 -2.1919 -1.7903 0.9852
-2.1527 -3.6790 -2.4610 0.9805
-2.0246 -3.7642 -2.4677 0.9805
-1.7590 -3.9217 -2.4815 0.9803
-1.6217 -3.9938 -2.4887 0.9803
-1.3387 -4.1243 -2.5034 0.9802
-1.1933 -4.1823 -2.5110 0.9801
-1.0454 -4.2354 -2.5187 0.9801
-0.8954 -4.2835 -2.5265 0.9800
-0.7433 -4.3264 -2.5345 0.9799
-0.4335 -4.3964 -2.5506 0.9798
-0.2762 -4.4234 -2.5588 0.9797
-0.1175 -4.4447 -2.5671 0.9797
0.0400 -4.2123 -2.4321 0.9807
0.1915 -4.2140 -2.4355 0.9807
0.4958 -4.2082 -2.4464 0.9806
0.8019 -4.1889 -2.4624 0.9805
0.9549 -4.1709 -2.4704 0.9804
1.1076 -4.1472 -2.4783 0.9804
1.4114 -4.0829 -2.4942 0.9802
1.7116 -3.9960 -2.5098 0.9801
1.8597 -3.9440 -2.5175 0.9801
2.0062 -3.8864 -2.5252 0.9800
2.1510 -3.8232 -2.5327 0.9799
2.4049 -3.1233 -2.2759 0.9820
2.4107 -2.7045 -2.0917 0.9834
2.4142 -2.5200 -2.0148 0.9840
