ply
format ascii 1.0
element vertex 1307
property float32 x
property float32 y
property float32 z
property float32 I
end_header
-21.0790 -6.1675 3.8726 0.9147
-21.6878 -7.1973 4.0292 0.9114
-20.1087 -9.1679 3.8968 0.9141
-28.6721 -21.4566 6.3145 0.8646
-26.6315 -21.4576 6.0304 0.8703
-19.9388 -21.4261 5.1608 0.8879
-18.5535 -21.4258 4.9975 0.8913
-17.2496 -21.4230 4.8498 0.8943
-4.1744 -7.0471 1.4442 0.9673
-4.1374 -7.5915 1.5245 0.9655
-4.0206 -8.0498 1.5866 0.9641
-3.2730 -7.9249 1.5119 0.9658
-2.6070 -8.9206 1.6387 0.9630
-2.2812 -8.9885 1.6352 0.9630
-4.6280 -21.4225 3.8645 0.9148
-3.8315 -21.4220 3.8372 0.9154
-2.2660 -21.4147 3.7971 0.9163
0.8077 -21.4176 3.7792 0.9166
1.5746 -21.3919 3.7822 0.9166
2.3467 -21.3933 3.7948 0.9163
3.1519 -21.5797 3.8454 0.9152
4.0797 -22.3163 4.0002 0.9120
45.2617 -18.5072 8.6223 0.8199
45.9068 -11.4793 8.3438 0.8251
46.8724 -6.4951 8.3438 0.8251
47.1573 -3.1232 8.3333 0.8253
47.1825 -1.4326 8.3234 0.8255
47.2330 1.9474 8.3355 0.8253
47.1801 3.6394 8.3438 0.8251
-21.0107 -6.1475 3.3537 0.9152
-21.4730 -7.1260 3.4660 0.9125
-21.0740 -7.8411 3.4446 0.9130
-20.0837 -9.1565 3.3814 0.9146
-33.4045 -21.4528 6.0818 0.8516
-28.6705 -21.4555 5.4858 0.8651
-24.7376 -21.4353 5.0144 0.8759
-21.4235 -21.4304 4.6421 0.8846
-17.2504 -21.4239 4.2137 0.8947
-5.3000 -7.0871 1.3557 0.9648
-5.1300 -7.3974 1.3791 0.9642
-4.9801 -7.7602 1.4126 0.9634
-4.0201 -8.0488 1.3783 0.9642
-3.6518 -8.0166 1.3495 0.9650
-2.6629 -8.0327 1.2964 0.9663
-2.5990 -8.8935 1.4194 0.9632
-2.2743 -8.9612 1.4163 0.9633
-4.6280 -21.4226 3.3575 0.9151
-3.0451 -21.4217 3.3147 0.9162
-2.2661 -21.4152 3.2990 0.9165
0.0410 -21.4113 3.2801 0.9170
0.8078 -21.4176 3.2834 0.9169
1.5746 -21.3919 3.2860 0.9169
4.0797 -22.3163 3.4754 0.9123
32.0128 -27.5253 6.4677 0.8430
32.0010 -25.5823 6.2763 0.8472
47.1775 -10.0187 7.3885 0.8227
47.2285 -6.5444 7.3043 0.8245
47.2537 -4.8325 7.2768 0.8251
47.2790 -3.1313 7.2587 0.8255
47.3042 -1.4363 7.2501 0.8257
47.3549 1.9524 7.2607 0.8255
47.4065 5.3686 7.3088 0.8244
-21.0106 -7.8175 2.9193 0.9135
-42.9414 -21.4651 6.2516 0.8239
-39.3071 -21.4390 5.8305 0.8348
-36.1906 -21.4535 5.4786 0.8439
-26.6289 -21.4555 4.4532 0.8711
-21.4243 -21.4311 3.9461 0.8849
-5.2725 -7.0503 1.1464 0.9651
-5.1029 -7.3584 1.1661 0.9645
-4.0035 -7.3459 1.0894 0.9668
-3.9866 -7.9817 1.1618 0.9647
-3.2733 -7.9258 1.1167 0.9660
-2.5786 -8.8235 1.1971 0.9636
-2.2647 -8.9237 1.1989 0.9635
-3.0452 -21.4218 2.8176 0.9164
-0.7254 -21.4131 2.7900 0.9172
0.0410 -21.4118 2.7883 0.9173
1.5746 -21.3919 2.7932 0.9171
3.1520 -21.5797 2.8399 0.9158
4.0797 -22.3163 2.9542 0.9126
32.0532 -34.1807 6.1020 0.8278
32.0388 -31.8044 5.8787 0.8335
32.0254 -29.5932 5.6783 0.8387
32.0010 -25.5823 5.3351 0.8477
33.1715 -24.6260 5.3799 0.8465
39.8423 -25.3722 6.1510 0.8265
-21.2251 -7.8973 2.4318 0.9129
-19.8119 -8.1897 2.3020 0.9174
-19.6708 -8.9683 2.3215 0.9167
-42.9387 -21.4637 5.1548 0.8244
-33.4019 -21.4511 4.2627 0.8524
-28.6676 -21.4532 3.8449 0.8658
-24.7389 -21.4364 3.5151 0.8766
-23.0165 -21.4326 3.3772 0.8812
-19.9414 -21.4289 3.1433 0.8889
-17.2519 -21.4258 2.9539 0.8952
-16.0210 -21.4230 2.8726 0.8980
-3.9403 -7.2299 0.8842 0.9674
-3.5892 -7.8792 0.9297 0.9658
-3.1738 -8.5385 0.9782 0.9640
-2.8630 -8.6364 0.9770 0.9641
-3.8315 -21.4224 2.3369 0.9162
-3.0452 -21.4220 2.3235 0.9166
-1.4938 -21.4150 2.3052 0.9173
0.0410 -21.4124 2.2993 0.9175
0.8078 -21.4176 2.3015 0.9174
1.5746 -21.3919 2.3033 0.9173
2.3467 -21.3933 2.3110 0.9171
32.0532 -34.1807 5.0318 0.8282
32.0388 -31.8044 4.8477 0.8339
32.0010 -25.5823 4.3994 0.8480
39.8423 -25.3722 5.0722 0.8269
-21.2874 -7.0645 1.8987 0.9139
-21.0241 -7.8225 1.8990 0.9139
-19.5722 -8.9233 1.8209 0.9173
-39.3130 -21.4422 3.7908 0.8355
-36.1902 -21.4532 3.5614 0.8446
-33.4006 -21.4503 3.3603 0.8527
-30.9037 -21.4460 3.1843 0.8598
-28.6661 -21.4521 3.0309 0.8661
-26.6263 -21.4534 2.8946 0.8717
-23.0174 -21.4334 2.6624 0.8814
-21.4258 -21.4327 2.5654 0.8855
-19.9422 -21.4298 2.4781 0.8891
-5.0395 -7.2670 0.7486 0.9651
-4.8036 -7.4851 0.7529 0.9649
-4.5239 -7.6371 0.7514 0.9650
-3.8269 -7.6620 0.7250 0.9662
-3.1423 -8.4537 0.7635 0.9644
-2.5273 -8.6480 0.7627 0.9645
-5.4390 -21.4309 1.8717 0.9151
-3.8316 -21.4225 1.8423 0.9163
-1.4939 -21.4156 1.8173 0.9174
-0.7255 -21.4142 1.8138 0.9176
0.0410 -21.4129 1.8127 0.9176
3.1520 -21.5797 1.8462 0.9162
4.0797 -22.3163 1.9204 0.9130
32.0532 -34.1807 3.9667 0.8285
32.0254 -29.5932 3.6913 0.8394
32.0128 -27.5253 3.5740 0.8441
36.2838 -24.9741 3.7288 0.8379
39.8423 -25.3722 3.9986 0.8273
45.6710 -3.0248 3.8747 0.8322
-20.9998 -6.9690 1.3720 0.9151
-21.3467 -7.9426 1.4124 0.9128
-19.4750 -8.8790 1.3272 0.9178
-39.3159 -21.4438 2.7771 0.8357
-36.1900 -21.4531 2.6088 0.8448
-26.6249 -21.4523 2.1202 0.8719
-24.7401 -21.4375 2.0300 0.8770
-23.0182 -21.4342 1.9504 0.8816
-21.4266 -21.4335 1.8793 0.8856
-16.0224 -21.4249 1.6590 0.8983
-4.9718 -7.1693 0.5410 0.9656
-4.7742 -7.4393 0.5481 0.9652
-4.0043 -7.3474 0.5189 0.9670
-3.9210 -7.8504 0.5441 0.9654
-3.5200 -7.7273 0.5265 0.9665
-3.0630 -7.4165 0.4976 0.9684
-3.1115 -8.3708 0.5538 0.9648
-2.8068 -8.4670 0.5531 0.9649
-0.7255 -21.4148 1.3287 0.9177
0.8078 -21.4176 1.3291 0.9177
1.5746 -21.3919 1.3301 0.9176
2.3467 -21.3933 1.3346 0.9174
3.1519 -21.5797 1.3524 0.9163
32.0688 -36.7479 3.0244 0.8225
32.0388 -31.8045 2.7994 0.8345
32.0010 -25.5823 2.5405 0.8486
33.1715 -24.6260 2.5619 0.8474
36.2838 -24.9741 2.7314 0.8382
45.4818 -20.5257 3.0942 0.8187
-21.1057 -7.8529 0.8880 0.9138
-20.3538 -8.4138 0.8684 0.9156
-39.3188 -21.4454 1.7660 0.8359
-33.3980 -21.4487 1.5651 0.8531
-30.9043 -21.4464 1.4833 0.8602
-26.6237 -21.4513 1.3481 0.8721
-23.0191 -21.4350 1.2403 0.8817
-21.4273 -21.4342 1.1951 0.8857
-14.8565 -21.4231 1.0280 0.9009
-4.7103 -7.3396 0.3439 0.9657
-4.4206 -7.4628 0.3420 0.9659
-4.2687 -7.8325 0.3517 0.9649
-3.8835 -7.7753 0.3427 0.9658
-3.3844 -8.1946 0.3496 0.9651
-3.0814 -8.2899 0.3487 0.9652
-4.6281 -21.4232 0.8642 0.9160
-3.8316 -21.4227 0.8581 0.9166
-3.0452 -21.4223 0.8532 0.9170
-2.2664 -21.4180 0.8492 0.9174
-1.4940 -21.4167 0.8465 0.9176
0.0410 -21.4140 0.8444 0.9178
2.3467 -21.3933 0.8486 0.9175
4.0797 -22.3163 0.8945 0.9132
32.0532 -34.1807 1.8477 0.8290
32.0388 -31.8045 1.7801 0.8347
32.0254 -29.5932 1.7194 0.8398
32.0010 -25.5823 1.6155 0.8487
36.2838 -24.9741 1.7369 0.8383
-21.8555 -7.2530 0.3890 0.9120
-20.9950 -7.8117 0.3784 0.9143
-20.0500 -8.2882 0.3665 0.9169
-42.9280 -21.4584 0.8107 0.8253
-39.3217 -21.4470 0.7566 0.8359
-24.7413 -21.4385 0.5530 0.8772
-23.0199 -21.4358 0.5313 0.8818
-16.0238 -21.4267 0.4519 0.8985
-4.4489 -7.5105 0.1475 0.9657
-4.2156 -7.7350 0.1488 0.9654
-3.3519 -8.1160 0.1483 0.9655
-7.1040 -21.4295 0.3814 0.9136
-4.6282 -21.4233 0.3702 0.9161
-3.8316 -21.4229 0.3676 0.9166
-3.0452 -21.4224 0.3655 0.9171
-2.2664 -21.4186 0.3638 0.9174
0.0410 -21.4145 0.3617 0.9179
32.0688 -36.7479 0.8239 0.8227
32.0388 -31.8044 0.7626 0.8348
32.0254 -29.5932 0.7366 0.8399
33.1715 -24.6260 0.6979 0.8477
36.2838 -24.9741 0.7441 0.8384
45.0212 -20.3179 0.8343 0.8207
45.2800 -2.9989 0.7665 0.8340
-39.3246 -21.4485 -0.2522 0.8360
-36.1894 -21.4527 -0.2369 0.8451
-30.9048 -21.4468 -0.2118 0.8603
-23.0208 -21.4366 -0.1771 0.8818
-19.9457 -21.4335 -0.1648 0.8895
-17.2556 -21.4305 -0.1549 0.8958
-13.7541 -21.4320 -0.1434 0.9032
-4.3901 -7.4112 -0.0485 0.9661
-3.9191 -7.8467 -0.0494 0.9655
-3.3844 -7.4296 -0.0460 0.9679
-3.0230 -8.1328 -0.0489 0.9659
-4.6282 -21.4234 -0.1234 0.9161
-3.0453 -21.4225 -0.1218 0.9171
-1.4940 -21.4178 -0.1209 0.9177
0.8078 -21.4176 -0.1207 0.9178
3.1519 -21.5797 -0.1228 0.9165
4.0797 -22.3163 -0.1277 0.9132
32.0532 -34.1807 -0.2638 0.8291
32.0388 -31.8045 -0.2542 0.8348
32.0010 -25.5823 -0.2307 0.8488
33.1715 -24.6260 -0.2326 0.8477
45.0212 -20.3179 -0.2781 0.8207
-42.9226 -21.4557 -1.3512 0.8253
-39.3275 -21.4501 -1.2614 0.8359
-33.3942 -21.4462 -1.1175 0.8532
-28.6588 -21.4467 -1.0079 0.8665
-26.6198 -21.4481 -0.9626 0.8721
-21.4296 -21.4365 -0.8535 0.8858
-17.2564 -21.4314 -0.7748 0.8957
-16.0251 -21.4285 -0.7534 0.8985
-14.8584 -21.4257 -0.7342 0.9009
-12.6946 -21.4307 -0.7014 0.9051
-4.1313 -7.5803 -0.2431 0.9660
-3.8277 -8.4029 -0.2600 0.9637
-3.2888 -7.9634 -0.2426 0.9661
-6.2623 -21.4287 -0.6286 0.9145
-5.4385 -21.4287 -0.6225 0.9153
-4.6282 -21.4235 -0.6172 0.9160
-3.0453 -21.4227 -0.6093 0.9171
-0.7256 -21.4170 -0.6034 0.9178
2.3467 -21.3933 -0.6060 0.9175
4.0797 -22.3163 -0.6388 0.9132
19.4652 -42.3008 -1.3112 0.8300
32.0688 -36.7479 -1.3733 0.8227
32.0128 -27.5253 -1.1888 0.8446
32.0010 -25.5823 -1.1536 0.8488
38.3604 -18.9917 -1.2053 0.8426
38.4153 -15.7078 -1.1686 0.8470
38.4288 -14.1310 -1.1529 0.8489
38.4420 -12.5940 -1.1391 0.8505
38.4923 -6.7452 -1.1004 0.8552
38.5044 -5.3355 -1.0946 0.8559
38.5402 -1.1702 -1.0857 0.8570
38.5758 2.9756 -1.0894 0.8566
-47.0337 -13.7616 -2.4853 0.8218
-20.9422 -7.7921 -1.1332 0.9144
-43.2229 -19.7061 -2.4091 0.8267
-41.1463 -20.5678 -2.3329 0.8317
-39.3303 -21.4517 -2.2720 0.8357
-36.1889 -21.4525 -2.1335 0.8449
-33.3929 -21.4454 -2.0127 0.8530
-21.4304 -21.4373 -1.5373 0.8857
-19.9474 -21.4353 -1.4850 0.8893
-18.5612 -21.4347 -1.4380 0.8926
-16.0258 -21.4294 -1.3571 0.8984
-14.8590 -21.4266 -1.3224 0.9008
-13.7538 -21.4316 -1.2915 0.9030
-12.6945 -21.4305 -1.2632 0.9051
-9.7620 -21.4302 -1.1943 0.9100
-8.8504 -21.4296 -1.1758 0.9113
-7.9650 -21.4280 -1.1594 0.9125
-7.1035 -21.4281 -1.1449 0.9136
-4.6283 -21.4237 -1.1115 0.9160
-3.8317 -21.4232 -1.1037 0.9165
-3.0453 -21.4228 -1.0974 0.9170
-2.2666 -21.4202 -1.0924 0.9173
-1.4941 -21.4188 -1.0889 0.9176
0.0410 -21.4162 -1.0861 0.9178
0.8078 -21.4176 -1.0870 0.9177
1.5746 -21.3919 -1.0878 0.9177
2.3467 -21.3933 -1.0915 0.9174
12.2369 -47.4533 -2.4853 0.8218
15.5519 -46.3185 -2.4779 0.8223
17.6936 -42.3809 -2.3291 0.8320
19.4652 -42.3008 -2.3615 0.8299
25.1372 -42.0677 -2.4853 0.8218
28.0806 -40.1626 -2.4853 0.8218
29.4993 -39.1324 -2.4853 0.8218
30.3346 -37.3797 -2.4414 0.8246
30.3357 -34.7618 -2.3398 0.8313
32.0128 -27.5253 -2.1411 0.8444
32.0010 -25.5823 -2.0777 0.8487
33.1715 -24.6260 -2.0952 0.8475
36.2838 -24.9741 -2.2339 0.8383
38.8012 -24.7090 -2.3329 0.8317
38.4153 -15.7078 -2.1048 0.8469
38.4288 -14.1310 -2.0765 0.8488
38.4420 -12.5940 -2.0515 0.8504
38.4676 -9.6191 -2.0109 0.8532
38.5044 -5.3355 -1.9714 0.8558
38.5164 -3.9390 -1.9635 0.8564
38.5521 0.2092 -1.9552 0.8569
38.5758 2.9756 -1.9622 0.8564
38.5878 4.3699 -1.9695 0.8560
-32.1702 -10.6760 -2.4853 0.8729
-20.9017 -7.7770 -1.6352 0.9144
-30.3186 -15.1553 -2.4853 0.8729
-29.1574 -17.2843 -2.4853 0.8729
-28.5204 -18.3162 -2.4853 0.8729
-27.8470 -19.3248 -2.4853 0.8729
-24.0456 -20.8357 -2.3329 0.8802
-23.0233 -21.4390 -2.3067 0.8815
-21.4312 -21.4381 -2.2226 0.8855
-19.9482 -21.4363 -2.1470 0.8892
-18.5620 -21.4356 -2.0791 0.8925
-17.2579 -21.4333 -2.0177 0.8955
-13.7537 -21.4314 -1.8672 0.9029
-11.6791 -21.4294 -1.7895 0.9068
-3.9154 -7.8393 -0.6425 0.9655
-7.9648 -21.4276 -1.6761 0.9124
-7.1034 -21.4277 -1.6552 0.9134
-5.4382 -21.4278 -1.6209 0.9152
-3.0453 -21.4229 -1.5866 0.9169
-2.2667 -21.4207 -1.5794 0.9172
-1.4941 -21.4194 -1.5743 0.9175
-0.7256 -21.4181 -1.5713 0.9176
0.0410 -21.4167 -1.5703 0.9177
0.8077 -21.4176 -1.5715 0.9176
3.1519 -21.5797 -1.5991 0.9162
4.0797 -22.3163 -1.6634 0.9130
6.8377 -31.0736 -2.3329 0.8802
10.7889 -32.1326 -2.4853 0.8729
13.0587 -31.2790 -2.4853 0.8729
17.3865 -29.0966 -2.4853 0.8729
18.4163 -28.4560 -2.4853 0.8729
19.4224 -27.7790 -2.4853 0.8729
20.4037 -27.0665 -2.4853 0.8729
21.3588 -26.3193 -2.4853 0.8729
24.0556 -23.8796 -2.4853 0.8729
24.8944 -23.0038 -2.4853 0.8729
26.4754 -21.1650 -2.4853 0.8729
27.9209 -19.2179 -2.4853 0.8729
29.2235 -17.1724 -2.4853 0.8729
29.8191 -16.1160 -2.4853 0.8729
30.8666 -7.7184 -2.3329 0.8802
31.3394 -5.4917 -2.3329 0.8802
31.5158 -4.3671 -2.3329 0.8802
31.6519 -3.2370 -2.3329 0.8802
31.7474 -2.1026 -2.3329 0.8802
31.8023 -0.9656 -2.3329 0.8802
31.8165 0.1726 -2.3329 0.8802
31.7900 1.3107 -2.3329 0.8802
31.7228 2.4470 -2.3329 0.8802
31.6149 3.5802 -2.3329 0.8802
-23.3218 -6.8238 -2.3329 0.9070
-23.0628 -7.6536 -2.3329 0.9070
-20.8608 -7.7618 -2.1369 0.9144
-23.9236 -9.8894 -2.4853 0.9012
-23.1553 -11.5746 -2.4853 0.9012
-22.7264 -12.3955 -2.4853 0.9012
-22.2684 -13.2006 -2.4853 0.9012
-21.7820 -13.9887 -2.4853 0.9012
-21.2677 -14.7590 -2.4853 0.9012
-20.7261 -15.5103 -2.4853 0.9012
-20.1580 -16.2418 -2.4853 0.9012
-18.3019 -18.3079 -2.4853 0.9012
-17.6353 -18.9508 -2.4853 0.9012
-13.8474 -19.9680 -2.3329 0.9070
-13.1243 -20.4506 -2.3329 0.9070
-3.9113 -7.8309 -0.8404 0.9654
-9.7612 -21.4285 -2.2606 0.9097
-7.1032 -21.4272 -2.1672 0.9133
-6.2620 -21.4273 -2.1432 0.9142
-4.6283 -21.4239 -2.1043 0.9157
-3.0453 -21.4230 -2.0774 0.9167
-2.2667 -21.4213 -2.0680 0.9171
-1.4942 -21.4199 -2.0614 0.9173
0.0410 -21.4173 -2.0562 0.9175
0.8077 -21.4176 -2.0577 0.9175
2.3467 -21.3933 -2.0662 0.9172
4.0797 -22.3163 -2.1780 0.9129
6.0678 -23.5299 -2.3329 0.9070
7.3567 -24.8197 -2.4853 0.9012
8.2398 -24.5406 -2.4853 0.9012
9.1124 -24.2302 -2.4853 0.9012
9.9733 -23.8887 -2.4853 0.9012
12.4752 -22.6828 -2.4853 0.9012
13.2787 -22.2220 -2.4853 0.9012
16.3124 -20.1009 -2.4853 0.9012
17.0210 -19.5045 -2.4853 0.9012
19.0127 -17.5687 -2.4853 0.9012
19.6289 -16.8773 -2.4853 0.9012
20.7854 -15.4307 -2.4853 0.9012
21.3241 -14.6773 -2.4853 0.9012
22.7738 -12.3083 -2.4853 0.9012
24.6005 -8.0594 -2.4853 0.9012
24.8731 -7.1742 -2.4853 0.9012
25.3224 -5.3775 -2.4853 0.9012
25.4986 -4.4682 -2.4853 0.9012
25.6420 -3.5532 -2.4853 0.9012
25.7528 -2.6337 -2.4853 0.9012
25.8651 1.0664 -2.4853 0.9012
-18.1498 -7.5027 -2.3329 0.9239
-17.8698 -8.1472 -2.3329 0.9239
-18.3679 -10.0183 -2.4853 0.9192
-17.9978 -10.6690 -2.4853 0.9192
-17.6046 -11.3059 -2.4853 0.9192
-17.1889 -11.9285 -2.4853 0.9192
-15.3118 -14.2582 -2.4853 0.9192
-14.2532 -15.3164 -2.4853 0.9192
-13.6962 -15.8165 -2.4853 0.9192
-12.5303 -16.7553 -2.4853 0.9192
-11.9229 -17.1928 -2.4853 0.9192
-11.3002 -17.6083 -2.4853 0.9192
-10.6631 -18.0012 -2.4853 0.9192
-3.9055 -7.8195 -1.0383 0.9654
-7.9866 -19.3381 -2.4853 0.9192
-7.2896 -19.6114 -2.4853 0.9192
-5.7573 -19.7007 -2.4380 0.9206
-5.0009 -19.7050 -2.4149 0.9214
-4.2577 -19.7087 -2.3951 0.9220
-3.5255 -19.7117 -2.3786 0.9225
-0.6681 -19.7215 -2.3440 0.9236
0.0378 -19.7227 -2.3428 0.9236
1.4514 -19.7173 -2.3485 0.9235
2.1627 -19.7159 -2.3560 0.9232
2.8862 -19.7602 -2.3721 0.9227
3.6448 -19.9375 -2.4075 0.9216
4.4681 -20.3052 -2.4697 0.9197
5.2244 -20.2596 -2.4853 0.9192
6.6596 -19.8342 -2.4853 0.9192
7.3648 -19.5833 -2.4853 0.9192
8.0606 -19.3073 -2.4853 0.9192
9.4205 -18.6816 -2.4853 0.9192
10.0827 -18.3327 -2.4853 0.9192
11.3677 -17.5648 -2.4853 0.9192
13.1840 -16.2459 -2.4853 0.9192
14.3118 -15.2617 -2.4853 0.9192
15.8645 -13.6406 -2.4853 0.9192
16.7992 -12.4714 -2.4853 0.9192
18.7503 -9.2830 -2.4853 0.9192
19.6369 -7.2208 -2.4853 0.9192
19.8826 -6.5138 -2.4853 0.9192
20.1029 -5.7984 -2.4853 0.9192
20.4661 -4.3462 -2.4853 0.9192
20.7244 -2.8718 -2.4853 0.9192
20.8139 -2.1286 -2.4853 0.9192
20.9221 0.1135 -2.4853 0.9192
-16.8346 -4.9256 -2.4853 0.9316
-15.5164 -5.7733 -2.3458 0.9353
-15.2160 -6.2899 -2.3329 0.9356
-14.9812 -6.8302 -2.3329 0.9356
-13.8539 -8.8972 -2.3329 0.9356
-14.4104 -10.0003 -2.4853 0.9316
-14.0435 -10.5094 -2.4853 0.9316
-13.2561 -11.4866 -2.4853 0.9316
-11.9492 -12.8406 -2.4853 0.9316
-11.4822 -13.2598 -2.4853 0.9316
-11.0006 -13.6621 -2.4853 0.9316
-9.9956 -14.4136 -2.4853 0.9316
-9.4736 -14.7620 -2.4853 0.9316
-8.3939 -15.4016 -2.4853 0.9316
-3.8997 -7.8077 -1.2366 0.9654
-6.1113 -16.4413 -2.4853 0.9316
-4.9201 -16.8362 -2.4853 0.9316
-3.0881 -17.2664 -2.4853 0.9316
-2.4685 -17.3658 -2.4853 0.9316
-1.2205 -17.4979 -2.4853 0.9316
-0.5938 -17.5303 -2.4853 0.9316
0.6611 -17.5279 -2.4853 0.9316
3.1543 -17.2544 -2.4853 0.9316
5.5831 -16.6281 -2.4853 0.9316
6.1743 -16.4178 -2.4853 0.9316
7.3324 -15.9343 -2.4853 0.9316
8.4529 -15.3693 -2.4853 0.9316
8.9973 -15.0570 -2.4853 0.9316
9.5301 -14.7256 -2.4853 0.9316
10.0508 -14.3752 -2.4853 0.9316
10.5586 -14.0065 -2.4853 0.9316
11.0529 -13.6198 -2.4853 0.9316
11.5330 -13.2157 -2.4853 0.9316
14.7952 -9.4217 -2.4853 0.9316
15.7194 -7.7825 -2.4853 0.9316
15.9877 -7.2152 -2.4853 0.9316
16.2356 -6.6386 -2.4853 0.9316
16.6687 -5.4608 -2.4853 0.9316
17.0165 -4.2551 -2.4853 0.9316
17.1578 -3.6436 -2.4853 0.9316
17.2772 -3.0275 -2.4853 0.9316
17.5324 -0.5323 -2.4853 0.9316
17.5402 0.0952 -2.4853 0.9316
17.4885 1.3490 -2.4853 0.9316
17.4290 1.9737 -2.4853 0.9316
-14.4791 -4.2365 -2.4853 0.9407
-14.3183 -4.7517 -2.4853 0.9407
-13.9121 -5.7509 -2.4800 0.9408
-12.8851 -5.8745 -2.3329 0.9442
-12.6667 -6.3317 -2.3329 0.9442
-12.4321 -6.7808 -2.3329 0.9442
-12.1816 -7.2212 -2.3329 0.9442
-11.0271 -8.8848 -2.3329 0.9442
-10.2773 -11.0440 -2.4853 0.9407
-9.8756 -11.4046 -2.4853 0.9407
-9.4613 -11.7505 -2.4853 0.9407
-8.1481 -12.6965 -2.4853 0.9407
-7.2194 -13.2466 -2.4853 0.9407
-6.2538 -13.7289 -2.4853 0.9407
-5.2562 -14.1409 -2.4853 0.9407
-4.2317 -14.4805 -2.4853 0.9407
-1.5875 -15.0024 -2.4853 0.9407
-0.5107 -15.0775 -2.4853 0.9407
0.0290 -15.0862 -2.4853 0.9407
0.5686 -15.0755 -2.4853 0.9407
1.1075 -15.0455 -2.4853 0.9407
1.6450 -14.9962 -2.4853 0.9407
3.2421 -14.7337 -2.4853 0.9407
3.7671 -14.6083 -2.4853 0.9407
4.2873 -14.4642 -2.4853 0.9407
4.8019 -14.3016 -2.4853 0.9407
5.3104 -14.1206 -2.4853 0.9407
7.2702 -13.2188 -2.4853 0.9407
7.7384 -12.9503 -2.4853 0.9407
9.9194 -11.3666 -2.4853 0.9407
10.7067 -10.6283 -2.4853 0.9407
11.4392 -9.8356 -2.4853 0.9407
11.7837 -9.4201 -2.4853 0.9407
12.7251 -8.1035 -2.4853 0.9407
13.0068 -7.6431 -2.4853 0.9407
13.5200 -6.6936 -2.4853 0.9407
13.9640 -5.7098 -2.4853 0.9407
14.1593 -5.2066 -2.4853 0.9407
14.3365 -4.6968 -2.4853 0.9407
14.4953 -4.1809 -2.4853 0.9407
14.9434 -2.0707 -2.4853 0.9407
15.0532 -0.9970 -2.4853 0.9407
15.0860 0.0819 -2.4853 0.9407
15.0734 0.6215 -2.4853 0.9407
-12.6903 -3.7131 -2.4853 0.9476
-12.3923 -4.6109 -2.4853 0.9476
-10.8962 -5.9430 -2.3329 0.9507
-9.6647 -7.7871 -2.3329 0.9507
-9.0832 -8.4582 -2.3329 0.9507
-8.7748 -8.7777 -2.3329 0.9507
-8.4553 -9.0860 -2.3329 0.9507
-8.6555 -9.9956 -2.4853 0.9476
-8.2925 -10.2988 -2.4853 0.9476
-7.5349 -10.8654 -2.4853 0.9476
-7.1414 -11.1279 -2.4853 0.9476
-6.3275 -11.6101 -2.4853 0.9476
-5.0473 -12.2211 -2.4853 0.9476
-4.6069 -12.3939 -2.4853 0.9476
-4.1605 -12.5507 -2.4853 0.9476
-3.2526 -12.8161 -2.4853 0.9476
-2.3279 -13.0158 -2.4853 0.9476
-1.8608 -13.0908 -2.4853 0.9476
-1.3913 -13.1490 -2.4853 0.9476
-0.9201 -13.1903 -2.4853 0.9476
1.9110 -13.0835 -2.4853 0.9476
3.7576 -12.6772 -2.4853 0.9476
4.2087 -12.5347 -2.4853 0.9476
4.6544 -12.3761 -2.4853 0.9476
5.9535 -11.8062 -2.4853 0.9476
6.3720 -11.5857 -2.4853 0.9476
7.1840 -11.1005 -2.4853 0.9476
7.5765 -10.8364 -2.4853 0.9476
8.3319 -10.2670 -2.4853 0.9476
8.6939 -9.9623 -2.4853 0.9476
9.0447 -9.6450 -2.4853 0.9476
9.3839 -9.3152 -2.4853 0.9476
10.0259 -8.6205 -2.4853 0.9476
10.3279 -8.2563 -2.4853 0.9476
11.6322 -6.2867 -2.4853 0.9476
11.8496 -5.8666 -2.4853 0.9476
12.0520 -5.4390 -2.4853 0.9476
12.5653 -4.1165 -2.4853 0.9476
12.9339 -2.7467 -2.4853 0.9476
13.0973 -1.8149 -2.4853 0.9476
13.1538 -1.3452 -2.4853 0.9476
13.1935 -0.8738 -2.4853 0.9476
13.2163 -0.4013 -2.4853 0.9476
13.2222 0.0717 -2.4853 0.9476
13.2112 0.5447 -2.4853 0.9476
13.1832 1.0169 -2.4853 0.9476
13.1384 1.4879 -2.4853 0.9476
-11.2843 -3.3017 -2.4853 0.9531
-11.1590 -3.7032 -2.4853 0.9531
-10.5170 -5.2570 -2.4853 0.9531
-10.3220 -5.6298 -2.4853 0.9531
-9.7266 -5.7659 -2.3901 0.9548
-9.0670 -6.2922 -2.3329 0.9559
-8.8362 -6.6125 -2.3329 0.9559
-8.3408 -7.2274 -2.3329 0.9559
-8.0769 -7.5211 -2.3329 0.9559
-7.8027 -7.8052 -2.3329 0.9559
-7.2246 -8.3431 -2.3329 0.9559
-6.9216 -8.5962 -2.3329 0.9559
-6.6096 -8.8383 -2.3329 0.9559
-6.3502 -9.8951 -2.4853 0.9531
-5.6265 -10.3238 -2.4853 0.9531
-3.8820 -7.7722 -1.8364 0.9651
-4.8739 -10.6996 -2.4853 0.9531
-4.4880 -10.8671 -2.4853 0.9531
-4.0964 -11.0207 -2.4853 0.9531
-2.8921 -11.3962 -2.4853 0.9531
-2.4827 -11.4923 -2.4853 0.9531
-2.0700 -11.5738 -2.4853 0.9531
-1.6546 -11.6404 -2.4853 0.9531
-0.3980 -11.7507 -2.4853 0.9531
0.0226 -11.7574 -2.4853 0.9531
2.1144 -11.5658 -2.4853 0.9531
2.5268 -11.4827 -2.4853 0.9531
3.3413 -11.2727 -2.4853 0.9531
3.7424 -11.1459 -2.4853 0.9531
4.1387 -11.0049 -2.4853 0.9531
4.5297 -10.8498 -2.4853 0.9531
4.9150 -10.6809 -2.4853 0.9531
5.6660 -10.3021 -2.4853 0.9531
6.0310 -10.0928 -2.4853 0.9531
6.3881 -9.8706 -2.4853 0.9531
7.0775 -9.3886 -2.4853 0.9531
7.4088 -9.1295 -2.4853 0.9531
8.3443 -8.2832 -2.4853 0.9531
8.6352 -7.9794 -2.4853 0.9531
8.9151 -7.6654 -2.4853 0.9531
9.4404 -7.0084 -2.4853 0.9531
9.6850 -6.6662 -2.4853 0.9531
9.9173 -6.3155 -2.4853 0.9531
10.1369 -5.9567 -2.4853 0.9531
10.3434 -5.5902 -2.4853 0.9531
10.5368 -5.2166 -2.4853 0.9531
10.7167 -4.8364 -2.4853 0.9531
10.8828 -4.4499 -2.4853 0.9531
11.1731 -3.6604 -2.4853 0.9531
11.2969 -3.2584 -2.4853 0.9531
11.5010 -2.4424 -2.4853 0.9531
4.6317 -0.4737 -0.9842 0.9811
4.5702 -0.3027 -0.9682 0.9814
4.5715 -0.1388 -0.9668 0.9815
4.5742 0.1886 -0.9677 0.9815
4.6758 0.3607 -0.9913 0.9810
-10.0364 -3.3307 -2.4853 0.9575
-9.9108 -3.6876 -2.4853 0.9575
-9.6218 -4.3868 -2.4853 0.9575
-9.4587 -4.7281 -2.4853 0.9575
-9.2835 -5.0635 -2.4853 0.9575
-9.0964 -5.3923 -2.4853 0.9575
-8.8977 -5.7143 -2.4853 0.9575
-8.3115 -5.7679 -2.3777 0.9593
-7.9472 -5.9473 -2.3329 0.9600
-7.7294 -6.2278 -2.3329 0.9600
-7.2644 -6.7645 -2.3329 0.9600
-7.0177 -7.0200 -2.3329 0.9600
-6.2253 -7.7315 -2.3329 0.9600
-5.6565 -8.1568 -2.3329 0.9600
-5.3612 -8.3539 -2.3329 0.9600
-4.7501 -8.7158 -2.3329 0.9600
-3.8760 -7.7603 -2.0387 0.9650
-4.1148 -9.0331 -2.3329 0.9600
-3.7891 -9.1746 -2.3329 0.9600
-3.6844 -9.9120 -2.4853 0.9575
-1.4882 -10.4694 -2.4853 0.9575
-0.7358 -10.5490 -2.4853 0.9575
-0.3580 -10.5686 -2.4853 0.9575
0.3986 -10.5671 -2.4853 0.9575
0.7763 -10.5461 -2.4853 0.9575
1.1530 -10.5116 -2.4853 0.9575
1.9017 -10.4023 -2.4853 0.9575
2.2726 -10.3276 -2.4853 0.9575
2.6405 -10.2397 -2.4853 0.9575
3.3659 -10.0247 -2.4853 0.9575
4.0740 -9.7584 -2.4853 0.9575
6.3655 -8.4442 -2.4853 0.9575
6.9530 -7.9674 -2.4853 0.9575
7.5048 -7.4499 -2.4853 0.9575
8.2598 -6.6030 -2.4853 0.9575
9.3029 -5.0278 -2.4853 0.9575
9.4768 -4.6918 -2.4853 0.9575
9.6386 -4.3498 -2.4853 0.9575
9.9250 -3.6496 -2.4853 0.9575
10.1605 -2.9306 -2.4853 0.9575
10.3440 -2.1967 -2.4853 0.9575
10.4160 -1.8252 -2.4853 0.9575
4.2373 -0.4333 -1.0011 0.9827
4.2163 0.0229 -0.9909 0.9828
4.2165 0.1738 -0.9918 0.9828
10.5075 1.1899 -2.4853 0.9575
-9.2125 -2.6955 -2.4853 0.9611
-9.1102 -3.0233 -2.4853 0.9611
-8.9962 -3.3473 -2.4853 0.9611
-8.8707 -3.6669 -2.4853 0.9611
-8.7338 -3.9819 -2.4853 0.9611
-8.5858 -4.2918 -2.4853 0.9611
-8.4268 -4.5962 -2.4853 0.9611
-8.2570 -4.8947 -2.4853 0.9611
-8.0766 -5.1869 -2.4853 0.9611
-7.8859 -5.4725 -2.4853 0.9611
-7.1582 -5.7675 -2.3801 0.9627
-6.5940 -6.1402 -2.3329 0.9635
-5.8982 -6.8113 -2.3329 0.9635
-4.8664 -7.5829 -2.3329 0.9635
-4.5920 -7.7522 -2.3329 0.9635
-4.3118 -7.9115 -2.3329 0.9635
-3.8700 -7.7482 -2.2425 0.9648
-3.4393 -8.3279 -2.3329 0.9635
-3.1392 -8.4456 -2.3329 0.9635
-2.8351 -8.5525 -2.3329 0.9635
-2.5274 -8.6484 -2.3329 0.9635
-1.5863 -8.8694 -2.3329 0.9635
-1.2680 -8.9205 -2.3329 0.9635
-0.6679 -9.5755 -2.4853 0.9611
-0.3250 -9.5932 -2.4853 0.9611
0.0184 -9.5987 -2.4853 0.9611
0.3618 -9.5919 -2.4853 0.9611
0.7046 -9.5729 -2.4853 0.9611
1.0466 -9.5415 -2.4853 0.9611
1.3873 -9.4980 -2.4853 0.9611
2.0629 -9.3745 -2.4853 0.9611
2.7278 -9.2030 -2.4853 0.9611
3.6981 -8.8578 -2.4853 0.9611
4.0126 -8.7198 -2.4853 0.9611
4.3219 -8.5707 -2.4853 0.9611
5.2153 -8.0584 -2.4853 0.9611
5.7780 -7.6649 -2.4853 0.9611
6.0486 -7.4533 -2.4853 0.9611
6.3113 -7.2321 -2.4853 0.9611
6.5660 -7.0017 -2.4853 0.9611
7.0498 -6.5144 -2.4853 0.9611
7.2783 -6.2580 -2.4853 0.9611
7.9069 -5.4423 -2.4853 0.9611
8.0965 -5.1559 -2.4853 0.9611
8.4444 -4.5638 -2.4853 0.9611
8.6022 -4.2588 -2.4853 0.9611
8.7491 -3.9484 -2.4853 0.9611
8.8847 -3.6329 -2.4853 0.9611
9.0090 -3.3128 -2.4853 0.9611
4.0515 -0.5614 -1.0590 0.9832
3.9618 -0.4052 -1.0311 0.9837
3.9657 -0.2627 -1.0290 0.9837
3.9664 -0.1204 -1.0275 0.9837
3.9685 0.0215 -1.0275 0.9837
3.9953 0.3082 -1.0375 0.9836
4.0952 0.4638 -1.0671 0.9831
-8.3322 -2.7651 -2.4853 0.9642
-8.2279 -3.0614 -2.4853 0.9642
-8.1132 -3.3538 -2.4853 0.9642
-7.7073 -4.2037 -2.4853 0.9642
-7.5518 -4.4767 -2.4853 0.9642
-7.0289 -5.2600 -2.4853 0.9642
-6.6347 -5.7491 -2.4853 0.9642
-5.1682 -6.4186 -2.3329 0.9663
-4.9353 -6.5994 -2.3329 0.9663
-4.6961 -6.7717 -2.3329 0.9663
-4.1999 -7.0902 -2.3329 0.9663
-3.9435 -7.2359 -2.3329 0.9663
-3.6822 -7.3723 -2.3329 0.9663
-3.1457 -7.6167 -2.3329 0.9663
-2.8712 -7.7244 -2.3329 0.9663
-2.5930 -7.8221 -2.3329 0.9663
-2.3115 -7.9099 -2.3329 0.9663
-2.0271 -7.9875 -2.3329 0.9663
-1.4508 -8.1120 -2.3329 0.9663
-1.1597 -8.1587 -2.3329 0.9663
-0.5734 -8.2207 -2.3329 0.9663
-0.2790 -8.2360 -2.3329 0.9663
0.0169 -8.7790 -2.4853 0.9642
0.3309 -8.7728 -2.4853 0.9642
0.6445 -8.7554 -2.4853 0.9642
0.9573 -8.7267 -2.4853 0.9642
1.5788 -8.6359 -2.4853 0.9642
3.0903 -8.2172 -2.4853 0.9642
3.3823 -8.1014 -2.4853 0.9642
3.6699 -7.9752 -2.4853 0.9642
4.5032 -7.5361 -2.4853 0.9642
4.7699 -7.3702 -2.4853 0.9642
5.0305 -7.1949 -2.4853 0.9642
5.2846 -7.0103 -2.4853 0.9642
5.7723 -6.6145 -2.4853 0.9642
6.0053 -6.4038 -2.4853 0.9642
6.2305 -6.1849 -2.4853 0.9642
6.4478 -5.9581 -2.4853 0.9642
6.6567 -5.7236 -2.4853 0.9642
6.8572 -5.4818 -2.4853 0.9642
7.0490 -5.2330 -2.4853 0.9642
7.4051 -4.7156 -2.4853 0.9642
7.5690 -4.4477 -2.4853 0.9642
7.8677 -3.8952 -2.4853 0.9642
8.1260 -3.3227 -2.4853 0.9642
8.2396 -3.0299 -2.4853 0.9642
8.3428 -2.7332 -2.4853 0.9642
8.5876 -1.8237 -2.4853 0.9642
8.6473 -1.5153 -2.4853 0.9642
3.7904 -0.1151 -1.0735 0.9844
3.8668 0.4379 -1.1017 0.9840
-7.7550 -2.2690 -2.4853 0.9668
-7.4673 -3.0868 -2.4853 0.9668
-7.2274 -3.6128 -2.4853 0.9668
-7.0936 -3.8690 -2.4853 0.9668
-6.7988 -4.3663 -2.4853 0.9668
-6.6383 -4.6067 -2.4853 0.9668
-6.1064 -5.2914 -2.4853 0.9668
-5.3609 -5.7608 -2.4204 0.9676
-4.9988 -5.7728 -2.3488 0.9685
-4.7569 -5.9077 -2.3329 0.9688
-4.5424 -6.0740 -2.3329 0.9688
-4.3222 -6.2326 -2.3329 0.9688
-4.0965 -6.3833 -2.3329 0.9688
-3.6296 -6.6598 -2.3329 0.9688
-3.3890 -6.7854 -2.3329 0.9688
-2.8952 -7.0103 -2.3329 0.9688
-2.6426 -7.1094 -2.3329 0.9688
-2.3866 -7.1994 -2.3329 0.9688
-0.7981 -7.5426 -2.3329 0.9688
-0.5278 -7.5663 -2.3329 0.9688
-0.2567 -7.5803 -2.3329 0.9688
0.8811 -8.0320 -2.4853 0.9668
1.1678 -7.9953 -2.4853 0.9668
1.4531 -7.9484 -2.4853 0.9668
1.7365 -7.8914 -2.4853 0.9668
2.0177 -7.8242 -2.4853 0.9668
2.8443 -7.5630 -2.4853 0.9668
3.6382 -7.2148 -2.4853 0.9668
3.8940 -7.0800 -2.4853 0.9668
4.3902 -6.7835 -2.4853 0.9668
4.8640 -6.4522 -2.4853 0.9668
5.3128 -6.0880 -2.4853 0.9668
5.9345 -5.4838 -2.4853 0.9668
6.3113 -5.0454 -2.4853 0.9668
6.4878 -4.8164 -2.4853 0.9668
6.6560 -4.5813 -2.4853 0.9668
6.9665 -4.0936 -2.4853 0.9668
7.2413 -3.5851 -2.4853 0.9668
7.3649 -3.3237 -2.4853 0.9668
7.5837 -2.7887 -2.4853 0.9668
7.7637 -2.2393 -2.4853 0.9668
3.6487 -0.5056 -1.1330 0.9847
3.6233 -0.3705 -1.1203 0.9849
3.6291 -0.2404 -1.1187 0.9849
3.6329 0.0197 -1.1174 0.9849
3.6309 0.1497 -1.1177 0.9849
3.6267 0.2798 -1.1188 0.9849
-7.1758 -2.0996 -2.4853 0.9690
-6.9096 -2.8563 -2.4853 0.9690
-6.6877 -3.3430 -2.4853 0.9690
-6.5638 -3.5801 -2.4853 0.9690
-6.4315 -3.8126 -2.4853 0.9690
-6.1425 -4.2627 -2.4853 0.9690
-5.9861 -4.4797 -2.4853 0.9690
-5.8220 -4.6909 -2.4853 0.9690
-5.4717 -5.0952 -2.4853 0.9690
-5.2861 -5.2877 -2.4853 0.9690
-5.0933 -5.4734 -2.4853 0.9690
-4.3116 -5.7654 -2.3931 0.9701
-3.1359 -6.2786 -2.3329 0.9709
-2.6790 -6.4868 -2.3329 0.9709
-2.2083 -6.6617 -2.3329 0.9709
-1.9686 -6.7364 -2.3329 0.9709
-1.4820 -6.8599 -2.3329 0.9709
-1.2356 -6.9086 -2.3329 0.9709
-0.4883 -7.0012 -2.3329 0.9709
-0.2376 -7.0142 -2.3329 0.9709
0.0144 -7.4767 -2.4853 0.9690
0.5489 -7.4565 -2.4853 0.9690
1.0806 -7.3982 -2.4853 0.9690
1.3446 -7.3548 -2.4853 0.9690
2.1248 -7.1684 -2.4853 0.9690
2.3798 -7.0878 -2.4853 0.9690
2.8805 -6.8995 -2.4853 0.9690
3.6031 -6.5512 -2.4853 0.9690
4.2842 -6.1275 -2.4853 0.9690
4.5007 -5.9703 -2.4853 0.9690
4.9160 -5.6333 -2.4853 0.9690
6.3065 -4.0161 -2.4853 0.9690
6.5775 -3.5549 -2.4853 0.9690
6.7005 -3.3173 -2.4853 0.9690
6.9205 -2.8297 -2.4853 0.9690
7.1051 -2.3277 -2.4853 0.9690
7.1838 -2.0721 -2.4853 0.9690
7.3136 -1.5531 -2.4853 0.9690
3.4935 -0.3573 -1.1673 0.9853
3.4934 -0.1061 -1.1618 0.9854
3.4907 0.1439 -1.1613 0.9854
-6.6701 -1.9516 -2.4853 0.9709
-6.5960 -2.1890 -2.4853 0.9709
-6.5135 -2.4235 -2.4853 0.9709
-6.3235 -2.8830 -2.4853 0.9709
-5.9783 -3.5439 -2.4853 0.9709
-5.7096 -3.9623 -2.4853 0.9709
-5.2522 -4.5511 -2.4853 0.9709
-4.9134 -4.9150 -2.4853 0.9709
-4.7345 -5.0876 -2.4853 0.9709
-4.3585 -5.4131 -2.4853 0.9709
-3.9603 -5.7109 -2.4853 0.9709
-3.6943 -5.7566 -2.4460 0.9714
-3.1460 -5.7724 -2.3509 0.9725
-2.9146 -5.8361 -2.3329 0.9727
-2.7043 -5.9367 -2.3329 0.9727
-2.4902 -6.0296 -2.3329 0.9727
-2.0527 -6.1922 -2.3329 0.9727
-1.8299 -6.2617 -2.3329 0.9727
-1.6047 -6.3231 -2.3329 0.9727
-1.3775 -6.3765 -2.3329 0.9727
-0.9181 -6.4587 -2.3329 0.9727
-0.2296 -6.7802 -2.4260 0.9716
0.0134 -6.9498 -2.4853 0.9709
1.0045 -6.8768 -2.4853 0.9709
1.2498 -6.8365 -2.4853 0.9709
1.7354 -6.7296 -2.4853 0.9709
1.9750 -6.6632 -2.4853 0.9709
2.4464 -6.5050 -2.4853 0.9709
2.9052 -6.3134 -2.4853 0.9709
3.5649 -5.9658 -2.4853 0.9709
3.9823 -5.6957 -2.4853 0.9709
4.3793 -5.3964 -2.4853 0.9709
4.5696 -5.2363 -2.4853 0.9709
4.9323 -4.8962 -2.4853 0.9709
5.1043 -4.7166 -2.4853 0.9709
5.4284 -4.3396 -2.4853 0.9709
5.8621 -3.7330 -2.4853 0.9709
6.3346 -2.8588 -2.4853 0.9709
6.4328 -2.6303 -2.4853 0.9709
6.6044 -2.1637 -2.4853 0.9709
6.7422 -1.6859 -2.4853 0.9709
6.7982 -1.4437 -2.4853 0.9709
3.3914 -0.5943 -1.2313 0.9855
3.3839 -0.4689 -1.2217 0.9856
3.3863 -0.3463 -1.2173 0.9856
3.3914 -0.2246 -1.2155 0.9857
3.3950 -0.1031 -1.2146 0.9857
-6.2243 -1.8212 -2.4853 0.9726
-6.0782 -2.2616 -2.4853 0.9726
-5.9010 -2.6903 -2.4853 0.9726
-5.3280 -3.6975 -2.4853 0.9726
-5.1924 -3.8857 -2.4853 0.9726
-4.9012 -4.2470 -2.4853 0.9726
-4.7462 -4.4196 -2.4853 0.9726
-4.5850 -4.5866 -2.4853 0.9726
-3.8840 -5.1936 -2.4853 0.9726
-3.5027 -5.4580 -2.4853 0.9726
-3.3052 -5.5798 -2.4853 0.9726
-3.1034 -5.6945 -2.4853 0.9726
-2.3812 -5.7658 -2.3906 0.9736
-2.1451 -5.7710 -2.3594 0.9740
-1.9160 -5.7798 -2.3335 0.9743
-1.4975 -5.9006 -2.3329 0.9743
-1.0761 -6.0166 -2.3422 0.9742
-0.4512 -6.4692 -2.4851 0.9726
0.0125 -6.4853 -2.4853 0.9726
0.2444 -6.4807 -2.4853 0.9726
0.4761 -6.4678 -2.4853 0.9726
0.7071 -6.4466 -2.4853 0.9726
0.9373 -6.4172 -2.4853 0.9726
1.8430 -6.2179 -2.4853 0.9726
2.0643 -6.1480 -2.4853 0.9726
2.4986 -5.9847 -2.4853 0.9726
2.7111 -5.8915 -2.4853 0.9726
2.9201 -5.7907 -2.4853 0.9726
3.1254 -5.6826 -2.4853 0.9726
3.3267 -5.5671 -2.4853 0.9726
3.7161 -5.3150 -2.4853 0.9726
4.4362 -4.7307 -2.4853 0.9726
5.2073 -3.8658 -2.4853 0.9726
5.7054 -3.0835 -2.4853 0.9726
5.8121 -2.8775 -2.4853 0.9726
6.0869 -2.2382 -2.4853 0.9726
6.2313 -1.7973 -2.4853 0.9726
6.2916 -1.5733 -2.4853 0.9726
3.3526 -0.5875 -1.3043 0.9855
3.3498 -0.4642 -1.2960 0.9856
3.3457 -0.2216 -1.2849 0.9857
3.3445 -0.1015 -1.2822 0.9858
3.3478 0.1380 -1.2840 0.9857
-5.6912 -2.1176 -2.4853 0.9741
-5.1095 -3.2814 -2.4853 0.9741
-4.8618 -3.6383 -2.4853 0.9741
-4.4440 -4.1382 -2.4853 0.9741
-4.1368 -4.4454 -2.4853 0.9741
-3.8083 -4.7298 -2.4853 0.9741
-3.6367 -4.8630 -2.4853 0.9741
-3.2797 -5.1105 -2.4853 0.9741
-2.7133 -5.4325 -2.4853 0.9741
-2.5172 -5.5261 -2.4853 0.9741
-2.3179 -5.6126 -2.4853 0.9741
-2.1157 -5.6919 -2.4853 0.9741
-1.4799 -5.8312 -2.4622 0.9743
-1.2745 -5.8998 -2.4704 0.9742
-1.0691 -5.9776 -2.4853 0.9741
-0.8546 -6.0120 -2.4853 0.9741
-0.6390 -6.0387 -2.4853 0.9741
0.0117 -6.0724 -2.4853 0.9741
0.4458 -6.0560 -2.4853 0.9741
0.8777 -6.0087 -2.4853 0.9741
1.0921 -5.9734 -2.4853 0.9741
1.3050 -5.9305 -2.4853 0.9741
1.5163 -5.8801 -2.4853 0.9741
2.5385 -5.5163 -2.4853 0.9741
2.7342 -5.4221 -2.4853 0.9741
3.4796 -4.9766 -2.4853 0.9741
3.6554 -4.8490 -2.4853 0.9741
3.8265 -4.7151 -2.4853 0.9741
3.9927 -4.5752 -2.4853 0.9741
4.1538 -4.4295 -2.4853 0.9741
4.4599 -4.1212 -2.4853 0.9741
4.8757 -3.6196 -2.4853 0.9741
5.1220 -3.2618 -2.4853 0.9741
5.4420 -2.6943 -2.4853 0.9741
5.5349 -2.4979 -2.4853 0.9741
5.8911 -1.4731 -2.4853 0.9741
3.3722 -0.7161 -1.4109 0.9852
3.3202 -0.4601 -1.3718 0.9856
3.3206 -0.3396 -1.3661 0.9857
3.3203 -0.1008 -1.3595 0.9857
3.3208 0.0180 -1.3591 0.9857
3.3211 0.1369 -1.3604 0.9857
3.3233 0.2563 -1.3642 0.9857
-5.4731 -1.6014 -2.4853 0.9754
-5.3446 -1.9886 -2.4853 0.9754
-5.2700 -2.1785 -2.4853 0.9754
-5.1008 -2.5497 -2.4853 0.9754
-5.0063 -2.7306 -2.4853 0.9754
-4.7983 -3.0815 -2.4853 0.9754
-4.3097 -3.7344 -2.4853 0.9754
-4.1733 -3.8862 -2.4853 0.9754
-3.8848 -4.1746 -2.4853 0.9754
-3.5764 -4.4417 -2.4853 0.9754
-3.4152 -4.5668 -2.4853 0.9754
-3.2497 -4.6860 -2.4853 0.9754
-2.1768 -5.2708 -2.4853 0.9754
-1.9868 -5.3453 -2.4853 0.9754
-1.5996 -5.4736 -2.4853 0.9754
-1.4027 -5.5274 -2.4853 0.9754
-1.2041 -5.5740 -2.4853 0.9754
-1.0040 -5.6135 -2.4853 0.9754
-0.8025 -5.6458 -2.4853 0.9754
-0.1930 -5.6993 -2.4853 0.9754
0.8242 -5.6427 -2.4853 0.9754
1.0255 -5.6096 -2.4853 0.9754
2.0074 -5.3376 -2.4853 0.9754
3.0984 -4.7875 -2.4853 0.9754
3.5935 -4.4280 -2.4853 0.9754
4.0471 -4.0175 -2.4853 0.9754
4.3240 -3.7179 -2.4853 0.9754
4.4543 -3.5608 -2.4853 0.9754
5.0168 -2.7114 -2.4853 0.9754
5.2784 -2.1583 -2.4853 0.9754
5.4192 -1.7754 -2.4853 0.9754
5.4793 -1.5804 -2.4853 0.9754
3.3402 -0.7093 -1.4882 0.9852
3.2928 -0.5770 -1.4569 0.9855
3.2943 -0.4565 -1.4494 0.9856
3.2950 -0.3370 -1.4435 0.9857
3.2951 -0.1000 -1.4367 0.9857
3.2955 0.0179 -1.4363 0.9857
3.2956 0.1359 -1.4375 0.9857
3.2968 0.2543 -1.4411 0.9857
-5.0958 -1.6911 -2.4853 0.9766
-5.0321 -1.8723 -2.4853 0.9766
-4.8853 -2.2273 -2.4853 0.9766
-4.2987 -3.2169 -2.4853 0.9766
-4.1809 -3.3686 -2.4853 0.9766
-4.0577 -3.5160 -2.4853 0.9766
-3.9293 -3.6589 -2.4853 0.9766
-3.6576 -3.9305 -2.4853 0.9766
-3.5147 -4.0588 -2.4853 0.9766
-3.2155 -4.2998 -2.4853 0.9766
-3.0596 -4.4120 -2.4853 0.9766
-2.2257 -4.8861 -2.4853 0.9766
-2.0495 -4.9626 -2.4853 0.9766
-1.8707 -5.0327 -2.4853 0.9766
-1.6895 -5.0964 -2.4853 0.9766
-1.5060 -5.1536 -2.4853 0.9766
-1.3208 -5.2041 -2.4853 0.9766
-1.1337 -5.2481 -2.4853 0.9766
-0.9453 -5.2853 -2.4853 0.9766
-0.7556 -5.3157 -2.4853 0.9766
-0.5649 -5.3393 -2.4853 0.9766
-0.3736 -5.3561 -2.4853 0.9766
0.3942 -5.3546 -2.4853 0.9766
0.5854 -5.3371 -2.4853 0.9766
0.9656 -5.2816 -2.4853 0.9766
1.1539 -5.2437 -2.4853 0.9766
1.5258 -5.1478 -2.4853 0.9766
1.7090 -5.0899 -2.4853 0.9766
1.8900 -5.0255 -2.4853 0.9766
2.0686 -4.9547 -2.4853 0.9766
2.4175 -4.7940 -2.4853 0.9766
2.5874 -4.7046 -2.4853 0.9766
2.7541 -4.6091 -2.4853 0.9766
3.0766 -4.4003 -2.4853 0.9766
3.2320 -4.2874 -2.4853 0.9766
3.3833 -4.1690 -2.4853 0.9766
3.5303 -4.0453 -2.4853 0.9766
3.6728 -3.9165 -2.4853 0.9766
3.8105 -3.7826 -2.4853 0.9766
4.1938 -3.3526 -2.4853 0.9766
4.4228 -3.0442 -2.4853 0.9766
4.7235 -2.5528 -2.4853 0.9766
4.9697 -2.0321 -2.4853 0.9766
5.0393 -1.8530 -2.4853 0.9766
5.1588 -1.4880 -2.4853 0.9766
5.2088 -1.3025 -2.4853 0.9766
3.3101 -0.7029 -1.5664 0.9852
3.2711 -0.5732 -1.5372 0.9855
3.2709 -0.4533 -1.5285 0.9856
3.2712 -0.3345 -1.5221 0.9856
3.2712 0.1349 -1.5155 0.9857
-4.8627 -1.4228 -2.4853 0.9777
-4.7485 -1.7668 -2.4853 0.9777
-4.6823 -1.9356 -2.4853 0.9777
-4.2631 -2.7379 -2.4853 0.9777
-4.1625 -2.8886 -2.4853 0.9777
-4.0565 -3.0357 -2.4853 0.9777
-3.9453 -3.1788 -2.4853 0.9777
-3.5820 -3.5832 -2.4853 0.9777
-3.0343 -4.0575 -2.4853 0.9777
-2.8872 -4.1634 -2.4853 0.9777
-2.7364 -4.2640 -2.4853 0.9777
-2.2639 -4.5327 -2.4853 0.9777
-1.7653 -4.7491 -2.4853 0.9777
-1.5942 -4.8092 -2.4853 0.9777
-1.4212 -4.8632 -2.4853 0.9777
-1.0698 -4.9524 -2.4853 0.9777
-0.8920 -4.9875 -2.4853 0.9777
-0.5331 -5.0385 -2.4853 0.9777
-0.3526 -5.0543 -2.4853 0.9777
-0.1715 -5.0637 -2.4853 0.9777
0.1910 -5.0630 -2.4853 0.9777
0.9112 -4.9840 -2.4853 0.9777
1.0888 -4.9482 -2.4853 0.9777
1.2652 -4.9061 -2.4853 0.9777
1.4399 -4.8577 -2.4853 0.9777
1.7835 -4.7423 -2.4853 0.9777
2.1180 -4.6027 -2.4853 0.9777
2.7529 -4.2536 -2.4853 0.9777
3.1927 -3.9341 -2.4853 0.9777
3.3314 -3.8174 -2.4853 0.9777
3.4658 -3.6958 -2.4853 0.9777
3.5958 -3.5694 -2.4853 0.9777
3.7212 -3.4385 -2.4853 0.9777
3.8418 -3.3032 -2.4853 0.9777
3.9575 -3.1637 -2.4853 0.9777
4.0681 -3.0201 -2.4853 0.9777
4.4573 -2.4090 -2.4853 0.9777
4.6181 -2.0841 -2.4853 0.9777
4.7553 -1.7486 -2.4853 0.9777
3.2800 -0.6966 -1.6448 0.9852
3.2491 -0.5694 -1.6181 0.9854
3.2414 -0.0984 -1.5907 0.9857
3.2438 0.0176 -1.5912 0.9857
3.2473 0.1339 -1.5942 0.9856
3.2500 0.2507 -1.5990 0.9856
3.2512 0.3682 -1.6050 0.9855
-4.5468 -1.5089 -2.4853 0.9786
-4.4273 -1.8301 -2.4853 0.9786
-4.2851 -2.1420 -2.4853 0.9786
-4.2057 -2.2939 -2.4853 0.9786
-4.0309 -2.5887 -2.4853 0.9786
-3.9357 -2.7313 -2.4853 0.9786
-3.8355 -2.8703 -2.4853 0.9786
-3.6205 -3.1372 -2.4853 0.9786
-3.5060 -3.2647 -2.4853 0.9786
-3.0045 -3.7314 -2.4853 0.9786
-2.8691 -3.8365 -2.4853 0.9786
-2.1406 -4.2858 -2.4853 0.9786
-1.9859 -4.3596 -2.4853 0.9786
-1.8287 -4.4279 -2.4853 0.9786
-1.5074 -4.5473 -2.4853 0.9786
-1.3438 -4.5983 -2.4853 0.9786
-1.1784 -4.6434 -2.4853 0.9786
-0.8434 -4.7158 -2.4853 0.9786
-0.6742 -4.7430 -2.4853 0.9786
-0.5041 -4.7640 -2.4853 0.9786
0.3517 -4.7777 -2.4853 0.9786
0.6924 -4.7403 -2.4853 0.9786
1.0296 -4.6787 -2.4853 0.9786
1.3614 -4.5931 -2.4853 0.9786
1.6864 -4.4840 -2.4853 0.9786
2.1570 -4.2776 -2.4853 0.9786
2.6029 -4.0219 -2.4853 0.9786
2.8838 -3.8255 -2.4853 0.9786
3.0188 -3.7199 -2.4853 0.9786
3.5185 -3.2513 -2.4853 0.9786
3.9462 -2.7162 -2.4853 0.9786
4.1303 -2.4271 -2.4853 0.9786
4.2145 -2.2778 -2.4853 0.9786
4.2933 -2.1256 -2.4853 0.9786
4.3666 -1.9706 -2.4853 0.9786
4.4963 -1.6534 -2.4853 0.9786
4.5526 -1.4915 -2.4853 0.9786
3.2265 -0.5654 -1.6993 0.9853
3.2250 -0.3298 -1.6818 0.9855
3.2226 -0.2134 -1.6755 0.9856
3.2196 -0.0978 -1.6710 0.9856
3.2277 0.2490 -1.6794 0.9855
3.2288 0.3656 -1.6857 0.9855
-4.3550 -1.2742 -2.4853 0.9795
-4.3067 -1.4292 -2.4853 0.9795
-4.1288 -1.8824 -2.4853 0.9795
-3.9836 -2.1728 -2.4853 0.9795
-3.5334 -2.8470 -2.4853 0.9795
-3.4293 -2.9715 -2.4853 0.9795
-3.3208 -3.0923 -2.4853 0.9795
-3.2081 -3.2091 -2.4853 0.9795
-2.5858 -3.7288 -2.4853 0.9795
-2.4507 -3.8189 -2.4853 0.9795
-2.3126 -3.9041 -2.4853 0.9795
-2.0275 -4.0595 -2.4853 0.9795
-1.8810 -4.1294 -2.4853 0.9795
-1.7321 -4.1940 -2.4853 0.9795
-1.2728 -4.3555 -2.4853 0.9795
-1.1162 -4.3982 -2.4853 0.9795
-0.7989 -4.4668 -2.4853 0.9795
-0.4775 -4.5125 -2.4853 0.9795
-0.3157 -4.5266 -2.4853 0.9795
0.6558 -4.4900 -2.4853 0.9795
0.8161 -4.4637 -2.4853 0.9795
0.9752 -4.4316 -2.4853 0.9795
1.1331 -4.3939 -2.4853 0.9795
1.4443 -4.3016 -2.4853 0.9795
1.7482 -4.1874 -2.4853 0.9795
1.8969 -4.1222 -2.4853 0.9795
2.0431 -4.0517 -2.4853 0.9795
2.1868 -3.9760 -2.4853 0.9795
2.4654 -3.8094 -2.4853 0.9795
2.7315 -3.6234 -2.4853 0.9795
2.8594 -3.5234 -2.4853 0.9795
3.1040 -3.3100 -2.4853 0.9795
3.2204 -3.1968 -2.4853 0.9795
3.3327 -3.0796 -2.4853 0.9795
3.4407 -2.9584 -2.4853 0.9795
3.9122 -2.2989 -2.4853 0.9795
3.9920 -2.1575 -2.4853 0.9795
4.2589 -1.5661 -2.4853 0.9795
3.3763 -0.8443 -1.9061 0.9843
3.2233 -0.6845 -1.8048 0.9851
3.2024 -0.3275 -1.7631 0.9854
3.1975 -0.0971 -1.7521 0.9855
-4.1314 -1.2088 -2.4853 0.9803
-3.8504 -1.9247 -2.4853 0.9803
-3.7791 -2.0612 -2.4853 0.9803
-3.7029 -2.1951 -2.4853 0.9803
-3.4464 -2.5791 -2.4853 0.9803
-3.3520 -2.7008 -2.4853 0.9803
-3.2532 -2.8190 -2.4853 0.9803
-2.8179 -3.2541 -2.4853 0.9803
-2.4530 -3.5373 -2.4853 0.9803
-2.3249 -3.6228 -2.4853 0.9803
-2.1938 -3.7036 -2.4853 0.9803
-2.0600 -3.7797 -2.4853 0.9803
-1.7844 -3.9174 -2.4853 0.9803
-1.0588 -4.1724 -2.4853 0.9803
-0.7579 -4.2374 -2.4853 0.9803
-0.6058 -4.2618 -2.4853 0.9803
-0.4529 -4.2807 -2.4853 0.9803
0.0083 -4.3046 -2.4853 0.9803
0.3161 -4.2930 -2.4853 0.9803
0.4694 -4.2790 -2.4853 0.9803
0.9251 -4.2041 -2.4853 0.9803
1.0749 -4.1683 -2.4853 0.9803
1.7994 -3.9105 -2.4853 0.9803
2.0745 -3.7718 -2.4853 0.9803
2.3388 -3.6138 -2.4853 0.9803
2.4666 -3.5278 -2.4853 0.9803
2.5912 -3.4374 -2.4853 0.9803
2.7126 -3.3425 -2.4853 0.9803
2.8304 -3.2433 -2.4853 0.9803
3.1615 -2.9214 -2.4853 0.9803
3.2640 -2.8065 -2.4853 0.9803
3.3624 -2.6879 -2.4853 0.9803
3.4563 -2.5659 -2.4853 0.9803
3.5459 -2.4406 -2.4853 0.9803
3.6310 -2.3122 -2.4853 0.9803
3.7870 -2.0467 -2.4853 0.9803
3.8578 -1.9099 -2.4853 0.9803
3.9844 -1.6292 -2.4853 0.9803
4.1361 -1.1930 -2.4853 0.9803
3.2068 -0.6810 -1.8927 0.9850
3.1806 -0.4407 -1.8539 0.9853
3.1795 -0.3252 -1.8453 0.9853
3.1752 -0.0964 -1.8341 0.9854
3.1802 0.1311 -1.8376 0.9854
3.1823 0.2455 -1.8427 0.9854
3.1897 0.3612 -1.8533 0.9853
