ply
format ascii 1.0
element vertex 312
property float32 x
property float32 y
property float32 z
property float32 I
end_header
47.1486 10.5772 8.5202 0.8218
45.2548 15.4449 8.4316 0.8235
47.4327 7.0982 7.3473 0.8236
47.5149 12.4750 7.5257 0.8197
45.6932 15.5945 7.3964 0.8225
45.5570 15.5480 -0.2710 0.8249
38.5471 18.0109 -0.2395 0.8435
38.5999 5.7763 -1.0990 0.8554
38.6375 10.1442 -1.1248 0.8523
38.6504 11.6527 -1.1367 0.8508
38.6637 13.1954 -1.1503 0.8492
38.6913 16.4054 -1.1833 0.8452
38.7207 19.8234 -1.2249 0.8402
38.7362 21.6287 -1.2492 0.8373
38.7870 27.5412 -1.3395 0.8267
38.5855 7.2055 -1.9907 0.8545
38.6247 8.6650 -2.0075 0.8534
38.6504 11.6527 -2.0473 0.8507
38.6913 16.4054 -2.1313 0.8451
38.7207 19.8234 -2.2061 0.8401
37.4420 26.5861 -2.3288 0.8320
32.2570 24.7014 -2.0604 0.8498
35.4283 29.2156 -2.3288 0.8320
33.2305 31.6931 -2.3288 0.8320
30.8597 34.0058 -2.3288 0.8320
29.6297 37.8019 -2.4358 0.8250
28.7740 39.5701 -2.4812 0.8220
30.9915 6.9525 -2.3288 0.8804
30.4097 9.1682 -2.3288 0.8804
29.8938 11.4217 -2.3464 0.8795
29.8571 13.9505 -2.4164 0.8762
29.8370 15.2753 -2.4577 0.8742
28.9323 17.5523 -2.4812 0.8731
26.1081 21.5297 -2.4812 0.8731
25.3147 22.4572 -2.4812 0.8731
24.4885 23.3554 -2.4812 0.8731
20.8759 26.6337 -2.4812 0.8731
19.9020 27.3692 -2.4812 0.8731
18.9020 28.0691 -2.4812 0.8731
25.5603 3.8250 -2.4812 0.9014
24.4596 8.3477 -2.4812 0.9014
24.1427 9.2244 -2.4812 0.9014
23.7944 10.0890 -2.4812 0.9014
23.0053 11.7777 -2.4812 0.9014
22.5656 12.5997 -2.4812 0.9014
22.0966 13.4053 -2.4812 0.9014
21.0729 14.9630 -2.4812 0.9014
19.9396 16.4430 -2.4812 0.9014
19.3337 17.1513 -2.4812 0.9014
15.9437 20.3411 -2.4812 0.9014
20.6583 3.0914 -2.4812 0.9193
20.2036 5.3044 -2.4812 0.9193
19.9992 6.0295 -2.4812 0.9193
19.5126 7.4553 -2.4812 0.9193
19.2311 8.1541 -2.4812 0.9193
18.9245 8.8423 -2.4812 0.9193
18.5933 9.5190 -2.4812 0.9193
17.4565 11.4714 -2.4812 0.9193
16.5843 12.6997 -2.4812 0.9193
16.1156 13.2895 -2.4812 0.9193
15.1158 14.4165 -2.4812 0.9193
14.0374 15.4685 -2.4812 0.9193
13.4704 15.9647 -2.4812 0.9193
12.2848 16.8940 -2.4812 0.9193
11.6675 17.3262 -2.4812 0.9193
17.3190 2.5917 -2.4812 0.9317
17.0871 3.8333 -2.4812 0.9317
16.7664 5.0549 -2.4812 0.9317
16.5732 5.6562 -2.4812 0.9317
16.1225 6.8360 -2.4812 0.9317
15.5878 7.9803 -2.4812 0.9317
15.2899 8.5372 -2.4812 0.9317
14.6348 9.6171 -2.4812 0.9317
13.9036 10.6469 -2.4812 0.9317
13.1000 11.6213 -2.4812 0.9317
12.6724 12.0860 -2.4812 0.9317
10.2990 14.1632 -2.4812 0.9317
9.7815 14.5254 -2.4812 0.9317
14.8057 2.7648 -2.4812 0.9408
14.4205 4.3476 -2.4812 0.9408
14.2544 4.8648 -2.4812 0.9408
13.4068 6.8637 -2.4812 0.9408
12.8772 7.8122 -2.4812 0.9408
11.9582 9.1572 -2.4812 0.9408
11.2671 9.9953 -2.4812 0.9408
9.7129 11.5114 -2.4812 0.9408
8.8580 12.1815 -2.4812 0.9408
8.4129 12.4930 -2.4812 0.9408
13.0555 1.9537 -2.4812 0.9477
12.9765 2.4232 -2.4812 0.9477
12.8807 2.8896 -2.4812 0.9477
12.7681 3.3522 -2.4812 0.9477
12.3314 4.7115 -2.4812 0.9477
12.1535 5.1532 -2.4812 0.9477
11.9598 5.5881 -2.4812 0.9477
11.5259 6.4356 -2.4812 0.9477
10.7634 7.6427 -2.4812 0.9477
10.4808 8.0259 -2.4812 0.9477
9.8751 8.7604 -2.4812 0.9477
8.8713 9.7756 -2.4812 0.9477
8.1436 10.3896 -2.4812 0.9477
7.7636 10.6765 -2.4812 0.9477
7.3736 10.9496 -2.4812 0.9477
11.6090 1.7373 -2.4812 0.9531
11.5388 2.1548 -2.4812 0.9531
11.4536 2.5695 -2.4812 0.9531
11.3536 2.9808 -2.4812 0.9531
11.2387 3.3883 -2.4812 0.9531
11.1092 3.7914 -2.4812 0.9531
10.9652 4.1895 -2.4812 0.9531
10.4486 5.3492 -2.4812 0.9531
10.2489 5.7226 -2.4812 0.9531
10.0359 6.0884 -2.4812 0.9531
9.3196 7.1367 -2.4812 0.9531
9.0562 7.4681 -2.4812 0.9531
8.1967 8.4025 -2.4812 0.9531
7.8884 8.6926 -2.4812 0.9531
7.5698 8.9714 -2.4812 0.9531
7.2413 9.2385 -2.4812 0.9531
10.4412 1.5625 -2.4812 0.9575
10.2114 2.6810 -2.4812 0.9575
10.1080 3.0475 -2.4812 0.9575
9.7198 4.1213 -2.4812 0.9575
9.5649 4.4691 -2.4812 0.9575
9.3975 4.8111 -2.4812 0.9575
9.0263 5.4759 -2.4812 0.9575
8.8229 5.7979 -2.4812 0.9575
8.1452 6.7168 -2.4812 0.9575
7.8977 7.0062 -2.4812 0.9575
7.6399 7.2864 -2.4812 0.9575
7.3721 7.5572 -2.4812 0.9575
7.0948 7.8181 -2.4812 0.9575
6.8083 8.0689 -2.4812 0.9575
6.1129 7.7988 -2.3288 0.9601
9.4776 1.4183 -2.4812 0.9612
9.4203 1.7591 -2.4812 0.9612
9.1752 2.7662 -2.4812 0.9612
9.0695 3.0953 -2.4812 0.9612
8.9514 3.4206 -2.4812 0.9612
8.8228 3.7409 -2.4812 0.9612
8.6822 4.0567 -2.4812 0.9612
8.3672 4.6719 -2.4812 0.9612
8.1933 4.9706 -2.4812 0.9612
7.6086 5.8264 -2.4812 0.9612
7.3935 6.0969 -2.4812 0.9612
6.9348 6.6140 -2.4812 0.9612
6.6918 6.8598 -2.4812 0.9612
6.1800 7.3242 -2.4812 0.9612
5.5487 7.0791 -2.3288 0.9635
8.4775 2.2257 -2.4812 0.9642
8.2950 2.8310 -2.4812 0.9642
7.9407 3.7102 -2.4812 0.9642
7.8018 3.9942 -2.4812 0.9642
7.6527 4.2729 -2.4812 0.9642
7.4936 4.5461 -2.4812 0.9642
6.9588 5.3288 -2.4812 0.9642
6.3426 6.0492 -2.4812 0.9642
6.1204 6.2740 -2.4812 0.9642
5.0749 6.4746 -2.3288 0.9664
4.5950 6.8235 -2.3288 0.9664
7.9782 1.1939 -2.4812 0.9668
7.9300 1.4808 -2.4812 0.9668
7.8026 2.0485 -2.4812 0.9668
7.5357 2.8792 -2.4812 0.9668
7.3086 3.4149 -2.4812 0.9668
6.7416 4.4302 -2.4812 0.9668
6.5775 4.6704 -2.4812 0.9668
6.4048 4.9046 -2.4812 0.9668
6.2238 5.1324 -2.4812 0.9668
6.0347 5.3535 -2.4812 0.9668
5.4212 5.9739 -2.4812 0.9668
4.6709 5.9591 -2.3288 0.9688
4.4529 6.1237 -2.3288 0.9688
4.2292 6.2803 -2.3288 0.9688
7.3377 1.3702 -2.4812 0.9690
7.2835 1.6340 -2.4812 0.9690
7.0644 2.4110 -2.4812 0.9690
6.8723 2.9139 -2.4812 0.9690
6.5174 3.6390 -2.4812 0.9690
6.3819 3.8717 -2.4812 0.9690
6.2381 4.0993 -2.4812 0.9690
6.0863 4.3216 -2.4812 0.9690
5.9265 4.5383 -2.4812 0.9690
5.7590 4.7490 -2.4812 0.9690
5.5839 4.9536 -2.4812 0.9690
5.4017 5.1518 -2.4812 0.9690
5.2124 5.3432 -2.4812 0.9690
4.8137 5.7050 -2.4812 0.9690
4.3220 5.5140 -2.3288 0.9709
4.1203 5.6663 -2.3288 0.9709
3.9133 5.8112 -2.3288 0.9709
6.7702 1.5188 -2.4812 0.9710
6.5666 2.2411 -2.4812 0.9710
6.2861 2.9371 -2.4812 0.9710
6.1761 3.1619 -2.4812 0.9710
6.0581 3.3826 -2.4812 0.9710
5.9321 3.5988 -2.4812 0.9710
5.6573 4.0170 -2.4812 0.9710
5.1904 4.6045 -2.4812 0.9710
4.8451 4.9667 -2.4812 0.9710
4.1765 5.3284 -2.4211 0.9716
3.8300 5.2670 -2.3288 0.9727
3.3810 0.5060 -1.3101 0.9855
6.3178 1.4173 -2.4812 0.9726
5.9610 2.5275 -2.4812 0.9726
5.8660 2.7408 -2.4812 0.9726
5.7634 2.9506 -2.4812 0.9726
5.6532 3.1565 -2.4812 0.9726
5.5357 3.3583 -2.4812 0.9726
5.4110 3.5558 -2.4812 0.9726
5.1406 3.9365 -2.4812 0.9726
4.9954 4.1193 -2.4812 0.9726
4.8436 4.2968 -2.4812 0.9726
4.5213 4.6347 -2.4812 0.9726
3.9943 5.0959 -2.4812 0.9726
5.9595 1.1129 -2.4812 0.9741
5.8638 1.5395 -2.4812 0.9741
5.7376 1.9582 -2.4812 0.9741
5.1833 3.1445 -2.4812 0.9741
5.0665 3.3294 -2.4812 0.9741
4.9431 3.5099 -2.4812 0.9741
4.8134 3.6859 -2.4812 0.9741
4.3871 4.1842 -2.4812 0.9741
4.2334 4.3397 -2.4812 0.9741
4.0741 4.4895 -2.4812 0.9741
3.5655 4.9032 -2.4812 0.9741
3.3188 4.9284 -2.4318 0.9746
3.3138 0.4959 -1.4603 0.9855
5.5067 1.4458 -2.4812 0.9755
5.3882 1.8389 -2.4812 0.9755
5.3183 2.0320 -2.4812 0.9755
5.1581 2.4101 -2.4812 0.9755
4.9710 2.7756 -2.4812 0.9755
4.8676 2.9530 -2.4812 0.9755
4.7579 3.1266 -2.4812 0.9755
4.5202 3.4614 -2.4812 0.9755
4.3925 3.6222 -2.4812 0.9755
4.2590 3.7782 -2.4812 0.9755
4.1200 3.9293 -2.4812 0.9755
3.9756 4.0754 -2.4812 0.9755
3.8260 4.2161 -2.4812 0.9755
3.6715 4.3513 -2.4812 0.9755
3.5122 4.4809 -2.4812 0.9755
3.3483 4.6046 -2.4812 0.9755
3.3675 0.6288 -1.5857 0.9850
5.1322 1.5473 -2.4812 0.9766
4.8564 2.2691 -2.4812 0.9766
4.7714 2.4428 -2.4812 0.9766
4.6802 2.6133 -2.4812 0.9766
4.4797 2.9438 -2.4812 0.9766
4.2559 3.2590 -2.4812 0.9766
4.1356 3.4104 -2.4812 0.9766
4.0099 3.5573 -2.4812 0.9766
3.6023 3.9695 -2.4812 0.9766
3.3068 4.2188 -2.4812 0.9766
3.2532 0.4868 -1.6136 0.9855
4.8430 1.4601 -2.4812 0.9777
4.7872 1.6338 -2.4812 0.9777
4.5828 2.1413 -2.4812 0.9777
4.5026 2.3051 -2.4812 0.9777
4.4166 2.4660 -2.4812 0.9777
4.3247 2.6237 -2.4812 0.9777
4.2273 2.7779 -2.4812 0.9777
4.1244 2.9286 -2.4812 0.9777
4.0161 3.0754 -2.4812 0.9777
3.3993 3.7459 -2.4812 0.9777
3.2621 3.8660 -2.4812 0.9777
4.6669 1.0469 -2.4812 0.9787
4.6261 1.2146 -2.4812 0.9787
4.5793 1.3806 -2.4812 0.9787
4.4679 1.7071 -2.4812 0.9787
4.3332 2.0246 -2.4812 0.9787
4.2574 2.1796 -2.4812 0.9787
4.0892 2.4808 -2.4812 0.9787
3.7974 2.9079 -2.4812 0.9787
3.6900 3.0429 -2.4812 0.9787
3.5779 3.1740 -2.4812 0.9787
3.4611 3.3010 -2.4812 0.9787
3.3398 3.4236 -2.4812 0.9787
3.2142 3.5419 -2.4812 0.9787
2.9505 3.7643 -2.4812 0.9787
2.6716 3.9672 -2.4812 0.9787
3.2926 0.6149 -1.8345 0.9848
4.4204 0.9917 -2.4812 0.9796
4.3374 1.3077 -2.4812 0.9796
4.2875 1.4632 -2.4812 0.9796
4.2319 1.6169 -2.4812 0.9796
3.8733 2.3498 -2.4812 0.9796
3.7860 2.4879 -2.4812 0.9796
3.6938 2.6228 -2.4812 0.9796
3.5968 2.7543 -2.4812 0.9796
3.4952 2.8822 -2.4812 0.9796
3.0444 3.3548 -2.4812 0.9796
2.5305 3.7577 -2.4812 0.9796
3.2043 0.4795 -1.8706 0.9851
4.1934 0.9407 -2.4812 0.9803
4.1568 1.0913 -2.4812 0.9803
4.1147 1.2405 -2.4812 0.9803
4.0673 1.3881 -2.4812 0.9803
4.0146 1.5339 -2.4812 0.9803
3.8255 1.9585 -2.4812 0.9803
3.7524 2.0951 -2.4812 0.9803
3.6743 2.2291 -2.4812 0.9803
3.5916 2.3602 -2.4812 0.9803
3.5041 2.4881 -2.4812 0.9803
3.4122 2.6129 -2.4812 0.9803
3.3157 2.7342 -2.4812 0.9803
3.2149 2.8520 -2.4812 0.9803
3.1100 2.9661 -2.4812 0.9803
2.8881 3.1825 -2.4812 0.9803
2.5275 3.4758 -2.4812 0.9803
2.4005 3.5647 -2.4812 0.9803
