ply
format ascii 1.0
element vertex 533
property float32 x
property float32 y
property float32 z
property float32 I
end_header
-5.2571 -7.2589 1.5804 0.9643
-4.1973 -6.7751 1.4053 0.9681
-4.1618 -7.2930 1.4806 0.9665
-3.6411 -7.6071 1.4871 0.9663
-3.1641 -8.0559 1.5261 0.9655
-2.5411 -8.1543 1.5060 0.9659
-5.0146 -21.4227 3.8795 0.9145
-4.2057 -21.4222 3.8494 0.9151
-2.6200 -21.4214 3.8053 0.9161
-0.2882 -21.4113 3.7757 0.9167
0.4843 -21.4099 3.7761 0.9167
2.0327 -21.3826 3.7873 0.9165
3.6945 -21.9255 3.9205 0.9136
-5.2294 -7.2205 1.3658 0.9646
-5.0554 -7.5385 1.3905 0.9639
-4.2707 -6.8935 1.2423 0.9677
-3.8221 -7.9854 1.3562 0.9648
-2.7614 -8.8612 1.4219 0.9631
-2.4330 -8.9295 1.4178 0.9632
-5.0146 -21.4228 3.3706 0.9148
-4.2058 -21.4224 3.3444 0.9154
-1.8380 -21.4145 3.2926 0.9167
-1.0617 -21.4132 3.2844 0.9169
-0.2883 -21.4118 3.2805 0.9170
1.2581 -21.4090 3.2854 0.9169
3.6945 -21.9255 3.4062 0.9140
-4.7948 -7.7397 1.1856 0.9639
-4.0309 -7.0636 1.0591 0.9677
-3.9861 -7.6102 1.1187 0.9659
-3.8112 -7.9627 1.1496 0.9650
-3.4543 -7.9404 1.1276 0.9657
-3.1106 -7.9198 1.1080 0.9663
-2.7901 -7.9336 1.0951 0.9666
-2.7357 -8.7787 1.1974 0.9636
-4.2058 -21.4225 2.8429 0.9157
-3.4083 -21.4220 2.8247 0.9162
0.4843 -21.4110 2.7889 0.9172
1.2581 -21.4090 2.7927 0.9171
2.8271 -21.4813 2.8214 0.9163
3.6945 -21.9255 2.8954 0.9142
-5.1752 -7.1457 0.9474 0.9651
-5.0021 -7.4590 0.9644 0.9645
-4.1233 -7.2255 0.8933 0.9671
-3.4250 -7.8732 0.9220 0.9660
-2.7082 -8.6903 0.9774 0.9640
-4.2058 -21.4226 2.3443 0.9159
-2.6200 -21.4217 2.3174 0.9168
-1.0618 -21.4143 2.3023 0.9174
-0.2883 -21.4129 2.2996 0.9175
0.4843 -21.4116 2.2998 0.9174
2.8271 -21.4813 2.3266 0.9165
-5.1487 -7.1092 0.7431 0.9654
-4.9568 -7.3914 0.7534 0.9649
-4.0857 -7.1596 0.6978 0.9675
-2.6813 -8.6041 0.7629 0.9645
-5.8394 -21.4309 1.8803 0.9147
-5.0147 -21.4232 1.8626 0.9155
-1.8381 -21.4162 1.8196 0.9173
-1.0618 -21.4148 1.8151 0.9175
-0.2883 -21.4135 1.8129 0.9176
0.4844 -21.4121 1.8131 0.9176
-4.8898 -7.2916 0.5444 0.9654
-4.6278 -7.4700 0.5449 0.9654
-4.3494 -7.6217 0.5442 0.9654
-3.9689 -7.5775 0.5304 0.9663
-3.3410 -7.6801 0.5194 0.9670
-2.9622 -8.4228 0.5537 0.9649
-2.6551 -8.5199 0.5534 0.9649
-5.8393 -21.4305 1.3774 0.9148
-5.0147 -21.4233 1.3644 0.9156
-4.2059 -21.4228 1.3538 0.9162
-2.6200 -21.4219 1.3383 0.9171
-1.8382 -21.4167 1.3329 0.9175
-1.0618 -21.4154 1.3296 0.9177
-0.2883 -21.4140 1.3280 0.9178
0.4844 -21.4127 1.3281 0.9177
1.2581 -21.4090 1.3299 0.9176
2.8271 -21.4813 1.3435 0.9168
3.6945 -21.9255 1.3788 0.9147
-15.5164 -21.4246 1.0431 0.8995
-4.8247 -7.1945 0.3416 0.9659
-4.6250 -7.4654 0.3463 0.9655
-3.9319 -7.5069 0.3341 0.9666
-3.8572 -8.0587 0.3523 0.9649
-3.2843 -7.5497 0.3246 0.9676
-3.2384 -8.2453 0.3493 0.9652
-5.8392 -21.4300 0.8758 0.9149
-5.0148 -21.4234 0.8676 0.9157
-3.4084 -21.4225 0.8553 0.9168
-0.2883 -21.4146 0.8445 0.9178
1.2581 -21.4090 0.8456 0.9177
2.8271 -21.4813 0.8543 0.9169
3.6945 -21.9255 0.8767 0.9148
-15.5171 -21.4255 0.4469 0.8996
-4.3599 -7.6401 0.1486 0.9654
-3.2074 -8.1663 0.1482 0.9655
-2.9055 -8.2616 0.1479 0.9656
-6.6782 -21.4295 0.3792 0.9141
-5.8391 -21.4296 0.3752 0.9150
-5.0148 -21.4235 0.3717 0.9157
-3.4084 -21.4226 0.3664 0.9169
-1.8383 -21.4178 0.3631 0.9176
1.2581 -21.4090 0.3623 0.9178
2.0327 -21.3826 0.3628 0.9177
3.6945 -21.9255 0.3756 0.9149
-15.5177 -21.4264 -0.1489 0.8996
-13.2772 -21.4315 -0.1419 0.9041
-4.0937 -7.8157 -0.0497 0.9653
-3.4776 -7.9940 -0.0491 0.9657
-3.1770 -8.0889 -0.0489 0.9658
-7.5363 -21.4290 -0.1279 0.9131
-6.6781 -21.4291 -0.1264 0.9141
-4.2059 -21.4232 -0.1229 0.9164
-1.0619 -21.4170 -0.1207 0.9178
0.4844 -21.4143 -0.1206 0.9179
1.2581 -21.4090 -0.1207 0.9178
2.8271 -21.4813 -0.1220 0.9170
-13.2771 -21.4313 -0.7099 0.9040
-4.2454 -7.4394 -0.2412 0.9663
-3.6240 -7.5715 -0.2364 0.9670
-9.3229 -21.4307 -0.6581 0.9107
-3.1471 -8.0129 -0.2424 0.9661
-7.5361 -21.4285 -0.6396 0.9131
-6.6779 -21.4286 -0.6320 0.9141
-4.2059 -21.4233 -0.6147 0.9163
-3.4084 -21.4229 -0.6108 0.9169
-1.8384 -21.4189 -0.6053 0.9176
-1.0619 -21.4175 -0.6038 0.9178
17.6919 -43.8602 -1.3317 0.8276
18.8642 -42.3001 -1.3042 0.8308
-15.5190 -21.4282 -1.3418 0.8995
-14.3726 -21.4322 -1.3087 0.9018
-13.2770 -21.4311 -1.2785 0.9040
-9.3226 -21.4299 -1.1852 0.9106
-8.4162 -21.4280 -1.1675 0.9119
-7.5360 -21.4281 -1.1520 0.9130
-6.6778 -21.4282 -1.1383 0.9140
-4.2060 -21.4234 -1.1072 0.9163
-3.4085 -21.4230 -1.1001 0.9168
-2.6201 -21.4225 -1.0945 0.9172
-1.0620 -21.4181 -1.0875 0.9177
1.2581 -21.4090 -1.0876 0.9177
2.0327 -21.3826 -1.0893 0.9176
9.9234 -48.2068 -2.4960 0.8211
11.6559 -47.8175 -2.4960 0.8211
16.7532 -46.2786 -2.4960 0.8211
21.6544 -44.1980 -2.4960 0.8211
24.7845 -42.5217 -2.4960 0.8211
27.7857 -40.6243 -2.4960 0.8211
-3.7850 -7.9078 -0.6428 0.9654
-9.3222 -21.4291 -1.7135 0.9105
-8.4160 -21.4275 -1.6880 0.9118
-6.6776 -21.4277 -1.6456 0.9139
-5.0149 -21.4240 -1.6133 0.9155
-4.2060 -21.4235 -1.6008 0.9162
-1.8385 -21.4200 -1.5763 0.9174
-1.0620 -21.4186 -1.5724 0.9176
-0.2883 -21.4173 -1.5705 0.9177
2.8271 -21.4813 -1.5886 0.9168
8.0620 -33.0736 -2.4960 0.8724
10.4254 -32.4064 -2.4960 0.8724
19.2184 -28.0983 -2.4960 0.8724
-13.5964 -20.2747 -2.3436 0.9066
-12.8562 -20.7520 -2.3436 0.9066
-12.0993 -21.2022 -2.3436 0.9066
-11.2243 -21.4294 -2.3224 0.9074
-6.6775 -21.4273 -2.1547 0.9138
-5.8384 -21.4274 -2.1321 0.9146
-4.2060 -21.4237 -2.0960 0.9160
-1.8385 -21.4205 -2.0640 0.9172
-1.0620 -21.4192 -2.0589 0.9174
4.9220 -23.9103 -2.3436 0.9066
5.7812 -23.7172 -2.3436 0.9066
7.9622 -24.7498 -2.4960 0.9008
8.8498 -24.4464 -2.4960 0.9008
9.7259 -24.1113 -2.4960 0.9008
11.4389 -23.3474 -2.4960 0.9008
13.0923 -22.4620 -2.4960 0.9008
13.8940 -21.9751 -2.4960 0.9008
14.6777 -21.4596 -2.4960 0.9008
-12.3253 -17.0185 -2.4960 0.9188
-11.0663 -17.8628 -2.4960 0.9188
-10.4147 -18.2503 -2.4960 0.9188
-6.1392 -19.7003 -2.4511 0.9202
-5.3690 -19.7049 -2.4260 0.9210
-3.8699 -19.7123 -2.3862 0.9223
-3.1366 -19.7151 -2.3713 0.9227
-2.4114 -19.7172 -2.3596 0.9231
-1.6929 -19.7246 -2.3516 0.9234
-0.9782 -19.7297 -2.3465 0.9235
0.4464 -19.7318 -2.3445 0.9236
1.8749 -19.7229 -2.3534 0.9233
2.5968 -19.7314 -2.3640 0.9230
3.3453 -19.8530 -2.3915 0.9221
5.7095 -20.2224 -2.4960 0.9188
7.1526 -19.7581 -2.4960 0.9188
7.8606 -19.4872 -2.4960 0.9188
8.5584 -19.1910 -2.4960 0.9188
9.9198 -18.5241 -2.4960 0.9188
-10.3330 -14.2675 -2.4960 0.9313
-9.2775 -14.9753 -2.4960 0.9313
-8.7312 -15.3002 -2.4960 0.9313
-8.1737 -15.6052 -2.4960 0.9313
-7.0273 -16.1539 -2.4960 0.9313
-4.6311 -16.9966 -2.4960 0.9313
-4.0150 -17.1526 -2.4960 0.9313
-3.3936 -17.2863 -2.4960 0.9313
-2.7679 -17.3974 -2.4960 0.9313
-1.5064 -17.5517 -2.4960 0.9313
-0.8723 -17.5946 -2.4960 0.9313
1.0335 -17.5859 -2.4960 0.9313
1.6671 -17.5372 -2.4960 0.9313
2.2987 -17.4656 -2.4960 0.9313
4.1720 -17.1151 -2.4960 0.9313
7.7507 -15.8196 -2.4960 0.9313
8.8711 -15.2196 -2.4960 0.9313
9.9452 -14.5405 -2.4960 0.9313
-8.8872 -12.2712 -2.4960 0.9404
-8.4388 -12.5838 -2.4960 0.9404
-7.9794 -12.8800 -2.4960 0.9404
-7.0300 -13.4218 -2.4960 0.9404
-3.7651 -7.8662 -1.4367 0.9653
-6.0441 -13.8937 -2.4960 0.9404
-4.5079 -14.4653 -2.4960 0.9404
-3.9831 -14.6185 -2.4960 0.9404
-3.4532 -14.7527 -2.4960 0.9404
-2.9188 -14.8676 -2.4960 0.9404
-1.2957 -15.0959 -2.4960 0.9404
0.3427 -15.1476 -2.4960 0.9404
0.8889 -15.1253 -2.4960 0.9404
1.4339 -15.0834 -2.4960 0.9404
1.9770 -15.0219 -2.4960 0.9404
3.5882 -14.7204 -2.4960 0.9404
4.1169 -14.5814 -2.4960 0.9404
5.1574 -14.2467 -2.4960 0.9404
6.1711 -13.8378 -2.4960 0.9404
7.1527 -13.3568 -2.4960 0.9404
8.0971 -12.8064 -2.4960 0.9404
8.5537 -12.5060 -2.4960 0.9404
-7.7892 -10.7552 -2.4960 0.9474
-7.3962 -11.0291 -2.4960 0.9474
-4.8546 -12.3604 -2.4960 0.9474
-4.4057 -12.5274 -2.4960 0.9474
-3.4910 -12.8125 -2.4960 0.9474
-2.5582 -13.0308 -2.4960 0.9474
-0.1787 -13.2783 -2.4960 0.9474
1.7328 -13.1660 -2.4960 0.9474
2.6775 -13.0068 -2.4960 0.9474
3.6083 -12.7800 -2.4960 0.9474
4.0669 -12.6415 -2.4960 0.9474
4.5203 -12.4866 -2.4960 0.9474
4.9677 -12.3154 -2.4960 0.9474
6.2690 -11.7067 -2.4960 0.9474
6.6872 -11.4729 -2.4960 0.9474
7.0967 -11.2242 -2.4960 0.9474
7.4969 -10.9609 -2.4960 0.9474
-6.5034 -8.9797 -2.3436 0.9557
-6.1752 -9.2084 -2.3436 0.9557
-6.2188 -10.0381 -2.4960 0.9529
-4.3168 -10.9909 -2.4960 0.9529
-3.9176 -11.1395 -2.4960 0.9529
-3.1042 -11.3930 -2.4960 0.9529
-1.0097 -11.7650 -2.4960 0.9529
-0.5847 -11.7938 -2.4960 0.9529
2.3808 -11.5658 -2.4960 0.9529
3.2085 -11.3640 -2.4960 0.9529
4.0194 -11.1032 -2.4960 0.9529
4.4173 -10.9509 -2.4960 0.9529
5.1954 -10.6040 -2.4960 0.9529
5.5745 -10.4097 -2.4960 0.9529
5.9463 -10.2018 -2.4960 0.9529
6.6664 -9.7466 -2.4960 0.9529
-5.8491 -8.0763 -2.3436 0.9599
-5.5540 -8.2821 -2.3436 0.9599
-5.2516 -8.4770 -2.3436 0.9599
-4.9424 -8.6609 -2.3436 0.9599
-4.0226 -7.6800 -2.0376 0.9650
-3.8825 -9.8853 -2.4960 0.9573
-3.1598 -10.1394 -2.4960 0.9573
-2.7919 -10.2468 -2.4960 0.9573
-2.4205 -10.3409 -2.4960 0.9573
-2.0459 -10.4215 -2.4960 0.9573
-0.5259 -10.6074 -2.4960 0.9573
0.2402 -10.6177 -2.4960 0.9573
2.8857 -10.2208 -2.4960 0.9573
4.3256 -9.6996 -2.4960 0.9573
5.6757 -8.9766 -2.4960 0.9573
-5.0414 -7.5177 -2.3436 0.9633
-4.0164 -7.6681 -2.2413 0.9649
-3.7426 -7.8193 -2.2445 0.9648
-3.3090 -8.4251 -2.3436 0.9633
-3.0030 -8.5390 -2.3436 0.9633
-2.6930 -8.6418 -2.3436 0.9633
-2.3795 -8.7333 -2.3436 0.9633
-2.0630 -8.8134 -2.3436 0.9633
-1.4222 -8.9392 -2.3436 0.9633
0.5656 -9.6237 -2.4960 0.9610
0.9123 -9.5970 -2.4960 0.9610
1.6019 -9.5062 -2.4960 0.9610
1.9437 -9.4422 -2.4960 0.9610
3.6063 -8.9403 -2.4960 0.9610
4.2415 -8.6571 -2.4960 0.9610
4.5510 -8.4984 -2.4960 0.9610
4.8546 -8.3287 -2.4960 0.9610
5.1518 -8.1482 -2.4960 0.9610
-4.6109 -6.8757 -2.3436 0.9662
-4.3599 -7.0376 -2.3436 0.9662
-4.1032 -7.1903 -2.3436 0.9662
-3.8412 -7.3336 -2.3436 0.9662
-3.5741 -7.4674 -2.3436 0.9662
-3.3025 -7.5915 -2.3436 0.9662
-2.1764 -7.9875 -2.3436 0.9662
-1.8868 -8.0608 -2.3436 0.9662
-0.7079 -8.2484 -2.3436 0.9662
-0.4099 -8.2685 -2.3436 0.9662
0.1995 -8.8148 -2.4960 0.9640
0.5172 -8.8018 -2.4960 0.9640
1.1505 -8.7416 -2.4960 0.9640
1.4651 -8.6945 -2.4960 0.9640
1.7778 -8.6359 -2.4960 0.9640
2.3957 -8.4853 -2.4960 0.9640
3.2983 -8.1768 -2.4960 0.9640
3.5912 -8.0526 -2.4960 0.9640
4.1624 -7.7727 -2.4960 0.9640
4.4400 -7.6175 -2.4960 0.9640
4.9777 -7.2776 -2.4960 0.9640
-4.2439 -6.3284 -2.3436 0.9686
-4.0128 -6.4773 -2.3436 0.9686
-3.7765 -6.6179 -2.3436 0.9686
-3.5354 -6.7498 -2.3436 0.9686
-3.0396 -6.9871 -2.3436 0.9686
-2.7855 -7.0922 -2.3436 0.9686
-2.5279 -7.1881 -2.3436 0.9686
-2.2670 -7.2746 -2.3436 0.9686
-1.7366 -7.4191 -2.3436 0.9686
-1.4678 -7.4769 -2.3436 0.9686
-1.1972 -7.5250 -2.3436 0.9686
-0.9250 -7.5633 -2.3436 0.9686
-0.3773 -7.6103 -2.3436 0.9686
-0.1026 -7.6189 -2.3436 0.9686
0.4761 -8.1011 -2.4960 0.9666
1.3485 -8.0023 -2.4960 0.9666
1.9219 -7.8843 -2.4960 0.9666
2.4853 -7.7252 -2.4960 0.9666
2.7623 -7.6305 -2.4960 0.9666
3.0358 -7.5259 -2.4960 0.9666
3.5704 -7.2875 -2.4960 0.9666
4.5814 -6.6982 -2.4960 0.9666
-3.9269 -5.8557 -2.3436 0.9707
-3.7131 -5.9936 -2.3436 0.9707
-3.4945 -6.1236 -2.3436 0.9707
-2.5775 -6.5625 -2.3436 0.9707
-2.3391 -6.6512 -2.3436 0.9707
-1.8535 -6.8025 -2.3436 0.9707
-0.8559 -6.9984 -2.3436 0.9707
-0.6029 -7.0247 -2.3436 0.9707
-0.0955 -7.0951 -2.3587 0.9705
0.1698 -7.5071 -2.4960 0.9688
0.4405 -7.4961 -2.4960 0.9688
1.2477 -7.4046 -2.4960 0.9688
1.7783 -7.2954 -2.4960 0.9688
2.8090 -6.9638 -2.4960 0.9688
3.0584 -6.8580 -2.4960 0.9688
3.7813 -6.4874 -2.4960 0.9688
-4.0940 -5.6530 -2.4960 0.9708
-3.8581 -5.7532 -2.4772 0.9710
-3.5697 -5.7620 -2.4239 0.9716
-3.2928 -5.7701 -2.3758 0.9722
-2.8293 -5.9114 -2.3436 0.9725
-2.6143 -6.0096 -2.3436 0.9725
-2.3958 -6.1000 -2.3436 0.9725
-1.9498 -6.2569 -2.3436 0.9725
-1.7229 -6.3231 -2.3436 0.9725
-1.4937 -6.3812 -2.3436 0.9725
-1.2625 -6.4309 -2.3436 0.9725
-1.0297 -6.4723 -2.3436 0.9725
-0.7956 -6.5052 -2.3436 0.9725
0.1579 -6.9780 -2.4960 0.9708
0.4095 -6.9678 -2.4960 0.9708
1.4073 -6.8365 -2.4960 0.9708
1.8965 -6.7172 -2.4960 0.9708
2.1376 -6.6444 -2.4960 0.9708
3.2950 -6.1531 -2.4960 0.9708
-3.8205 -5.2752 -2.4960 0.9725
-3.6277 -5.4096 -2.4960 0.9725
-3.2282 -5.6570 -2.4960 0.9725
-2.5077 -5.7645 -2.4090 0.9734
-2.0309 -5.7750 -2.3460 0.9741
-1.6077 -5.9006 -2.3436 0.9741
-1.3938 -5.9547 -2.3436 0.9741
-1.1781 -6.0011 -2.3436 0.9741
-0.5476 -6.3802 -2.4540 0.9729
-0.0876 -6.5128 -2.4960 0.9725
0.1473 -6.5117 -2.4960 0.9725
1.0823 -6.4228 -2.4960 0.9725
1.7698 -6.2683 -2.4960 0.9725
1.9947 -6.2004 -2.4960 0.9725
2.2171 -6.1244 -2.4960 0.9725
2.4366 -6.0404 -2.4960 0.9725
2.6529 -5.9487 -2.4960 0.9725
3.2800 -5.6272 -2.4960 0.9725
3.4808 -5.5053 -2.4960 0.9725
-3.5772 -4.9393 -2.4960 0.9740
-3.3967 -5.0652 -2.4960 0.9740
-3.0227 -5.2969 -2.4960 0.9740
-2.6329 -5.5010 -2.4960 0.9740
-0.9582 -6.0229 -2.4960 0.9740
-0.7403 -6.0536 -2.4960 0.9740
-0.0821 -6.0981 -2.4960 0.9740
0.5772 -6.0713 -2.4960 0.9740
0.7958 -6.0465 -2.4960 0.9740
1.0134 -6.0139 -2.4960 0.9740
1.2296 -5.9734 -2.4960 0.9740
1.6571 -5.8692 -2.4960 0.9740
1.8678 -5.8056 -2.4960 0.9740
2.0760 -5.7345 -2.4960 0.9740
2.2814 -5.6559 -2.4960 0.9740
2.4840 -5.5699 -2.4960 0.9740
2.6833 -5.4766 -2.4960 0.9740
2.8791 -5.3763 -2.4960 0.9740
-3.1899 -4.7567 -2.4960 0.9753
-2.8386 -4.9743 -2.4960 0.9753
-2.6573 -5.0735 -2.4960 0.9753
-2.2846 -5.2518 -2.4960 0.9753
-2.0937 -5.3308 -2.4960 0.9753
-1.5056 -5.5258 -2.4960 0.9753
-1.3053 -5.5765 -2.4960 0.9753
-0.8998 -5.6561 -2.4960 0.9753
-0.2836 -5.7202 -2.4960 0.9753
-0.0771 -5.7267 -2.4960 0.9753
0.5420 -5.7016 -2.4960 0.9753
0.7473 -5.6783 -2.4960 0.9753
1.1548 -5.6096 -2.4960 0.9753
1.5562 -5.5118 -2.4960 0.9753
1.9495 -5.3853 -2.4960 0.9753
2.1425 -5.3114 -2.4960 0.9753
2.3327 -5.2307 -2.4960 0.9753
2.5199 -5.1431 -2.4960 0.9753
2.7038 -5.0489 -2.4960 0.9753
2.8841 -4.9481 -2.4960 0.9753
3.0607 -4.8408 -2.4960 0.9753
-3.1629 -4.3673 -2.4960 0.9765
-3.0033 -4.4785 -2.4960 0.9765
-2.8398 -4.5840 -2.4960 0.9765
-2.3280 -4.8639 -2.4960 0.9765
-1.6043 -5.1482 -2.4960 0.9765
-1.2290 -5.2504 -2.4960 0.9765
-0.8473 -5.3254 -2.4960 0.9765
-0.6546 -5.3525 -2.4960 0.9765
-0.4611 -5.3726 -2.4960 0.9765
-0.2670 -5.3857 -2.4960 0.9765
0.1220 -5.3910 -2.4960 0.9765
0.3164 -5.3831 -2.4960 0.9765
0.7037 -5.3462 -2.4960 0.9765
1.0872 -5.2816 -2.4960 0.9765
1.6514 -5.1333 -2.4960 0.9765
1.8355 -5.0703 -2.4960 0.9765
2.0172 -5.0008 -2.4960 0.9765
2.1963 -4.9247 -2.4960 0.9765
2.8817 -4.5578 -2.4960 0.9765
-2.8341 -4.2262 -2.4960 0.9776
-2.3610 -4.5076 -2.4960 0.9776
-2.1968 -4.5899 -2.4960 0.9776
-1.8602 -4.7363 -2.4960 0.9776
-0.9802 -4.9932 -2.4960 0.9776
-0.7995 -5.0253 -2.4960 0.9776
-0.0685 -5.0881 -2.4960 0.9776
0.2985 -5.0798 -2.4960 0.9776
0.6640 -5.0450 -2.4960 0.9776
0.8455 -5.0178 -2.4960 0.9776
1.0260 -4.9840 -2.4960 0.9776
1.5584 -4.8440 -2.4960 0.9776
1.7321 -4.7847 -2.4960 0.9776
2.2388 -4.5695 -2.4960 0.9776
2.4022 -4.4858 -2.4960 0.9776
-2.8221 -3.8967 -2.4960 0.9786
-2.3847 -4.1788 -2.4960 0.9786
-2.2324 -4.2621 -2.4960 0.9786
-2.0772 -4.3399 -2.4960 0.9786
-1.9193 -4.4120 -2.4960 0.9786
-1.7589 -4.4783 -2.4960 0.9786
-1.2648 -4.6421 -2.4960 0.9786
-1.0966 -4.6847 -2.4960 0.9786
-0.7560 -4.7516 -2.4960 0.9786
-0.2382 -4.8055 -2.4960 0.9786
0.1088 -4.8101 -2.4960 0.9786
0.4554 -4.7898 -2.4960 0.9786
0.7995 -4.7445 -2.4960 0.9786
0.9701 -4.7126 -2.4960 0.9786
1.4735 -4.5802 -2.4960 0.9786
1.9597 -4.3942 -2.4960 0.9786
2.5713 -4.0667 -2.4960 0.9786
-2.6731 -3.6910 -2.4960 0.9794
-2.2587 -3.9581 -2.4960 0.9794
-1.9675 -4.1107 -2.4960 0.9794
-1.6660 -4.2418 -2.4960 0.9794
-1.5119 -4.2992 -2.4960 0.9794
-1.3559 -4.3509 -2.4960 0.9794
-0.8779 -4.4719 -2.4960 0.9794
-0.3897 -4.5406 -2.4960 0.9794
-0.2256 -4.5517 -2.4960 0.9794
-0.0613 -4.5569 -2.4960 0.9794
0.2674 -4.5494 -2.4960 0.9794
0.4313 -4.5368 -2.4960 0.9794
0.7572 -4.4939 -2.4960 0.9794
0.9188 -4.4637 -2.4960 0.9794
1.2383 -4.3858 -2.4960 0.9794
1.3957 -4.3383 -2.4960 0.9794
1.5513 -4.2851 -2.4960 0.9794
1.8562 -4.1621 -2.4960 0.9794
2.4354 -3.8519 -2.4960 0.9794
2.5728 -3.7616 -2.4960 0.9794
-2.5358 -3.5014 -2.4960 0.9802
-2.1428 -3.7549 -2.4960 0.9802
-2.0059 -3.8297 -2.4960 0.9802
-1.5804 -4.0240 -2.4960 0.9802
-1.4343 -4.0784 -2.4960 0.9802
-1.2862 -4.1275 -2.4960 0.9802
-0.8329 -4.2423 -2.4960 0.9802
-0.6793 -4.2696 -2.4960 0.9802
-0.3697 -4.3074 -2.4960 0.9802
-0.0582 -4.3229 -2.4960 0.9802
0.0978 -4.3222 -2.4960 0.9802
0.4091 -4.3039 -2.4960 0.9802
0.5641 -4.2863 -2.4960 0.9802
0.8717 -4.2345 -2.4960 0.9802
1.0239 -4.2003 -2.4960 0.9802
1.1747 -4.1606 -2.4960 0.9802
1.6173 -4.0094 -2.4960 0.9802
1.7609 -3.9484 -2.4960 0.9802
2.0409 -3.8112 -2.4960 0.9802
2.1771 -3.7351 -2.4960 0.9802
2.4407 -3.5684 -2.4960 0.9802
