ply
format ascii 1.0
element vertex 462
property float32 x
property float32 y
property float32 z
property float32 I
end_header
44.7379 18.3080 8.5235 0.8217
3.8566 32.6865 5.8035 0.8749
0.3406 31.0996 5.4840 0.8813
3.2810 7.7296 1.2864 0.9666
-0.8327 33.9169 5.1974 0.8717
-0.7051 28.7214 3.7413 0.8906
3.8590 32.7077 3.5366 0.8759
3.2798 7.7269 0.7106 0.9669
0.3845 35.1026 2.9717 0.8686
-0.7797 31.7589 2.6893 0.8803
-1.9341 32.1732 2.7285 0.8786
3.2795 7.7261 0.5205 0.9669
3.8583 32.7014 2.0419 0.8764
3.8579 32.6982 1.2983 0.8765
0.7668 6.4994 0.1105 0.9742
0.5338 6.4997 0.1102 0.9742
38.5419 17.3939 -0.2381 0.8444
38.5869 22.6308 -0.2519 0.8362
3.2784 7.7235 -0.0472 0.9670
0.3060 6.5837 -0.0371 0.9740
0.0721 6.5840 -0.0371 0.9740
38.6863 15.8316 -1.1770 0.8460
38.6155 17.4272 -1.1930 0.8441
38.7149 19.1539 -1.2162 0.8413
38.7300 20.9040 -1.2393 0.8385
38.6606 22.6741 -1.2621 0.8358
38.7620 24.6229 -1.2930 0.8321
38.7969 28.7005 -1.3589 0.8244
38.8159 30.9049 -1.3971 0.8199
3.2780 7.7226 -0.2362 0.9670
0.7668 6.4992 -0.1843 0.9742
0.5338 6.4995 -0.1836 0.9742
0.3060 6.5836 -0.1856 0.9740
0.0721 6.5839 -0.1854 0.9740
-0.1616 6.5842 -0.1854 0.9740
-0.3958 6.5845 -0.1857 0.9739
38.7149 19.1539 -2.1906 0.8411
38.7620 24.6229 -2.3289 0.8320
38.1277 26.1641 -2.3451 0.8309
37.1751 27.5008 -2.3451 0.8309
35.1307 30.0685 -2.3451 0.8309
30.5221 34.7373 -2.3451 0.8309
29.6581 36.2733 -2.3762 0.8289
28.3893 40.2402 -2.4975 0.8210
26.9433 41.2224 -2.4975 0.8210
25.4633 42.1527 -2.4975 0.8210
3.2776 7.7217 -0.4254 0.9670
17.6067 45.9487 -2.4955 0.8211
15.9509 46.5038 -2.4933 0.8213
14.2783 47.0007 -2.4912 0.8214
10.8909 47.8183 -2.4872 0.8217
7.4605 48.3990 -2.4835 0.8219
0.7668 6.4991 -0.3319 0.9741
0.3060 6.5835 -0.3342 0.9739
-0.3958 6.5844 -0.3345 0.9739
29.8852 12.2299 -2.3676 0.8785
29.8670 13.4790 -2.4026 0.8768
29.8477 14.7669 -2.4417 0.8750
28.7516 18.2640 -2.4975 0.8723
26.6475 21.2165 -2.4975 0.8723
25.8777 22.1488 -2.4975 0.8723
21.5607 26.3698 -2.4975 0.8723
19.6358 27.8327 -2.4975 0.8723
16.5662 29.7622 -2.4975 0.8723
15.4996 30.3313 -2.4975 0.8723
11.0514 32.2195 -2.4975 0.8723
9.9009 32.5914 -2.4975 0.8723
8.7380 32.9222 -2.4975 0.8723
0.5338 6.4993 -0.4781 0.9742
-0.1616 6.5840 -0.4829 0.9739
24.0763 9.8527 -2.4975 0.9007
23.3168 11.5357 -2.4975 0.9007
21.9586 13.9488 -2.4975 0.9007
21.4497 14.7193 -2.4975 0.9007
20.3515 16.2037 -2.4975 0.9007
19.1509 17.6066 -2.4975 0.9007
17.8537 18.9206 -2.4975 0.9007
16.4666 20.1394 -2.4975 0.9007
14.2327 21.7756 -2.4975 0.9007
13.4509 22.2670 -2.4975 0.9007
3.2769 7.7200 -0.8052 0.9669
8.4403 24.6070 -2.4975 0.9007
7.5617 24.8911 -2.4975 0.9007
5.4245 23.8170 -2.3451 0.9065
4.5758 23.9945 -2.3451 0.9065
0.0721 6.5836 -0.6321 0.9739
19.1641 8.6487 -2.4975 0.9188
17.7473 11.2737 -2.4975 0.9188
15.4781 14.2299 -2.4975 0.9188
14.4297 15.2920 -2.4975 0.9188
13.8779 15.7945 -2.4975 0.9188
13.3086 16.2771 -2.4975 0.9188
12.1205 17.1801 -2.4975 0.9188
11.5031 17.5994 -2.4975 0.9188
3.2765 7.7191 -0.9961 0.9668
7.5231 19.6333 -2.4975 0.9188
5.0646 19.0816 -2.3451 0.9236
3.7047 19.4266 -2.3492 0.9234
3.0172 19.5740 -2.3526 0.9233
0.7668 6.4988 -0.7773 0.9740
-0.1616 6.5838 -0.7823 0.9738
16.0663 7.2507 -2.4975 0.9313
15.7989 7.8163 -2.4975 0.9313
15.5115 8.3721 -2.4975 0.9313
14.8786 9.4513 -2.4975 0.9313
13.7897 10.9792 -2.4975 0.9313
12.9761 11.9297 -2.4975 0.9313
12.5446 12.3829 -2.4975 0.9313
11.6001 13.2021 -2.4901 0.9315
11.1573 13.6460 -2.4975 0.9313
10.6660 14.0333 -2.4975 0.9313
10.1613 14.4030 -2.4975 0.9313
9.6437 14.7546 -2.4975 0.9313
9.1140 15.0875 -2.4975 0.9313
8.5728 15.4015 -2.4975 0.9313
8.0208 15.6960 -2.4975 0.9313
5.3700 15.6557 -2.3451 0.9353
4.8110 15.8364 -2.3451 0.9353
4.2459 15.9972 -2.3451 0.9353
3.6825 16.1688 -2.3496 0.9352
2.5277 16.3979 -2.3508 0.9352
0.7668 6.4987 -0.9272 0.9739
0.5337 6.4991 -0.9239 0.9740
13.8184 6.2362 -2.4975 0.9404
13.3412 7.2007 -2.4975 0.9404
13.0772 7.6696 -2.4975 0.9404
12.5002 8.5779 -2.4975 0.9404
11.8603 9.4430 -2.4975 0.9404
11.5177 9.8580 -2.4975 0.9404
11.1605 10.2606 -2.4975 0.9404
9.1737 12.0698 -2.4975 0.9404
8.7396 12.3878 -2.4975 0.9404
8.2944 12.6901 -2.4975 0.9404
7.8388 12.9765 -2.4975 0.9404
7.3733 13.2465 -2.4975 0.9404
6.8986 13.4999 -2.4975 0.9404
2.6713 14.0078 -2.3492 0.9438
2.1729 14.0960 -2.3496 0.9438
0.7668 6.4987 -1.0780 0.9738
0.5337 6.4990 -1.0742 0.9739
0.0721 6.5833 -1.0846 0.9737
-0.1616 6.5836 -1.0849 0.9737
12.2975 5.0325 -2.4975 0.9474
12.1112 5.4658 -2.4975 0.9474
11.6930 6.3111 -2.4975 0.9474
10.9559 7.5182 -2.4975 0.9474
10.6822 7.9023 -2.4975 0.9474
10.3950 8.2764 -2.4975 0.9474
8.7704 9.9817 -2.4975 0.9474
8.4107 10.2866 -2.4975 0.9474
6.0681 10.9016 -2.3451 0.9505
5.2795 11.3045 -2.3451 0.9505
3.2672 7.6971 -1.5717 0.9665
4.4643 11.6505 -2.3451 0.9505
3.6300 11.9489 -2.3473 0.9504
3.2041 12.0720 -2.3476 0.9504
2.7740 12.1799 -2.3480 0.9504
1.9036 12.3492 -2.3486 0.9504
0.5337 6.4989 -1.2256 0.9738
0.3060 6.5829 -1.2387 0.9735
10.9351 4.4749 -2.4975 0.9528
10.7694 4.8602 -2.4975 0.9528
10.3975 5.6119 -2.4975 0.9528
10.1918 5.9773 -2.4975 0.9528
9.9732 6.3353 -2.4975 0.9528
8.9763 7.6829 -2.4975 0.9528
8.6980 7.9966 -2.4975 0.9528
8.4087 8.3002 -2.4975 0.9528
8.1089 8.5934 -2.4975 0.9528
7.7988 8.8758 -2.4975 0.9528
6.0698 9.2866 -2.3451 0.9557
5.7364 9.4961 -2.3451 0.9557
5.3958 9.6937 -2.3451 0.9557
3.5990 7.7062 -1.7978 0.9658
3.2446 7.6440 -1.7553 0.9666
3.6014 10.4997 -2.3464 0.9556
3.2270 10.6224 -2.3467 0.9556
2.4660 10.8274 -2.3473 0.9556
2.0805 10.9095 -2.3476 0.9556
0.5337 6.4988 -1.3783 0.9737
0.0721 6.5831 -1.3916 0.9734
-0.1616 6.5834 -1.3920 0.9734
9.8350 4.0248 -2.4975 0.9573
9.3515 5.0473 -2.4975 0.9573
8.7620 6.0127 -2.4975 0.9573
8.3135 6.6191 -2.4975 0.9573
8.0733 6.9100 -2.4975 0.9573
7.8230 7.1921 -2.4975 0.9573
6.0379 7.9441 -2.3451 0.9598
5.7522 8.1534 -2.3451 0.9598
5.1593 8.5408 -2.3451 0.9598
4.8529 8.7186 -2.3451 0.9598
4.5405 8.8853 -2.3451 0.9598
3.5711 9.3196 -2.3456 0.9598
3.2385 9.4417 -2.3459 0.9598
2.9018 9.5518 -2.3462 0.9598
2.5612 9.6500 -2.3465 0.9598
1.5213 9.8692 -2.3469 0.9598
0.7667 6.4984 -1.5378 0.9735
0.5337 6.4987 -1.5325 0.9736
0.3060 6.5827 -1.5487 0.9733
0.0721 6.5830 -1.5472 0.9733
-0.3958 6.5836 -1.5501 0.9733
8.9274 3.6533 -2.4975 0.9609
8.7921 3.9679 -2.4975 0.9609
8.3205 4.8799 -2.4975 0.9609
8.1421 5.1721 -2.4975 0.9609
7.9534 5.4578 -2.4975 0.9609
7.3283 6.2723 -2.4975 0.9609
7.1010 6.5284 -2.4975 0.9609
6.8649 6.7763 -2.4975 0.9609
6.6201 7.0157 -2.4975 0.9609
6.3669 7.2462 -2.4975 0.9609
5.7332 7.0119 -2.3451 0.9633
4.4051 7.9140 -2.3451 0.9633
4.1214 8.0653 -2.3451 0.9633
3.5257 7.5494 -2.1573 0.9662
2.9392 8.5690 -2.3455 0.9633
2.3245 8.7578 -2.3461 0.9633
2.0124 8.8357 -2.3463 0.9632
1.3806 8.9560 -2.3463 0.9632
0.5337 6.4986 -1.6882 0.9734
0.3060 6.5826 -1.7062 0.9731
0.0721 6.5829 -1.7045 0.9732
8.1650 3.3413 -2.4975 0.9640
7.9074 3.9121 -2.4975 0.9640
7.4468 4.7304 -2.4975 0.9640
7.2742 4.9917 -2.4975 0.9640
7.0925 5.2467 -2.4975 0.9640
6.2786 6.1976 -2.4975 0.9640
6.0547 6.4165 -2.4975 0.9640
5.8232 6.6274 -2.4975 0.9640
4.7754 6.7689 -2.3451 0.9661
4.0289 7.2381 -2.3451 0.9661
3.4397 7.3652 -2.3012 0.9668
2.9567 7.7161 -2.3392 0.9662
2.6878 7.8362 -2.3452 0.9661
2.4083 7.9274 -2.3455 0.9661
2.1257 8.0087 -2.3457 0.9661
0.7667 6.4982 -1.8523 0.9732
0.5337 6.4985 -1.8458 0.9733
0.3060 6.5825 -1.8655 0.9730
-0.1616 6.5831 -1.8642 0.9730
-0.3957 6.5834 -1.8671 0.9730
7.5150 3.0754 -2.4975 0.9666
7.4011 3.3401 -2.4975 0.9666
7.2779 3.6007 -2.4975 0.9666
7.0042 4.1079 -2.4975 0.9666
6.8541 4.3538 -2.4975 0.9666
6.6951 4.5944 -2.4975 0.9666
6.5279 4.8291 -2.4975 0.9666
6.1689 5.2800 -2.4975 0.9666
5.9776 5.4956 -2.4975 0.9666
5.5727 5.9057 -2.4975 0.9666
5.3596 6.0998 -2.4975 0.9666
4.6136 6.0701 -2.3451 0.9686
4.3953 6.2300 -2.3451 0.9686
4.1714 6.3821 -2.3451 0.9686
3.4694 6.7893 -2.3451 0.9686
3.2262 6.9082 -2.3451 0.9686
2.9791 7.0183 -2.3451 0.9686
2.7281 7.1196 -2.3451 0.9686
2.4737 7.2120 -2.3451 0.9686
1.9562 7.3702 -2.3454 0.9686
1.6934 7.4350 -2.3454 0.9686
1.4285 7.4905 -2.3454 0.9686
0.7667 6.4981 -2.0125 0.9730
0.5337 6.4984 -2.0055 0.9731
0.3060 6.5824 -2.0268 0.9728
6.9537 2.8457 -2.4975 0.9688
6.7343 3.3317 -2.4975 0.9688
6.6119 3.5686 -2.4975 0.9688
6.3421 4.0287 -2.4975 0.9688
6.1951 4.2512 -2.4975 0.9688
5.8779 4.6799 -2.4975 0.9688
5.7081 4.8856 -2.4975 0.9688
4.9593 5.6442 -2.4975 0.9688
4.0670 5.7647 -2.3451 0.9707
3.2103 6.2822 -2.3451 0.9707
2.9853 6.3922 -2.3451 0.9707
2.5244 6.5879 -2.3451 0.9707
1.8098 6.8188 -2.3451 0.9707
0.5337 6.4983 -2.1673 0.9729
0.3060 6.5823 -2.1903 0.9726
0.0721 6.5826 -2.1882 0.9726
-0.1616 6.5829 -2.1888 0.9726
-0.3957 6.5832 -2.1922 0.9726
6.2597 3.0969 -2.4975 0.9708
5.8951 3.7448 -2.4975 0.9708
5.7585 3.9516 -2.4975 0.9708
5.6146 4.1535 -2.4975 0.9708
5.4637 4.3501 -2.4975 0.9708
4.9704 4.9062 -2.4975 0.9708
4.7931 5.0795 -2.4975 0.9708
4.6098 5.2464 -2.4975 0.9708
4.4207 5.4067 -2.4975 0.9708
3.7804 5.3585 -2.3451 0.9725
3.5878 5.4893 -2.3451 0.9725
3.3908 5.6131 -2.3451 0.9725
3.1894 5.7299 -2.3451 0.9725
2.9841 5.8395 -2.3451 0.9725
2.5623 6.0365 -2.3451 0.9725
2.1277 6.2030 -2.3451 0.9725
1.9062 6.2746 -2.3451 0.9725
1.6823 6.3383 -2.3451 0.9725
1.4563 6.3940 -2.3451 0.9725
1.2285 6.4417 -2.3451 0.9725
0.7684 6.5126 -2.3451 0.9725
0.3045 6.5507 -2.3451 0.9725
-0.3935 6.5460 -2.3451 0.9725
6.0317 2.4683 -2.4975 0.9725
5.8414 2.8900 -2.4975 0.9725
5.3737 3.6875 -2.4975 0.9725
5.2394 3.8759 -2.4975 0.9725
4.7977 4.4108 -2.4975 0.9725
4.6382 4.5783 -2.4975 0.9725
4.1253 5.0454 -2.4975 0.9725
3.3481 5.1224 -2.3451 0.9741
3.1642 5.2380 -2.3451 0.9741
2.9763 5.3470 -2.3451 0.9741
2.7846 5.4492 -2.3451 0.9741
2.5895 5.5446 -2.3451 0.9741
2.3911 5.6330 -2.3451 0.9741
1.7788 5.8553 -2.3451 0.9741
0.9323 6.0481 -2.3451 0.9741
0.7171 6.0774 -2.3451 0.9741
0.2842 6.1129 -2.3451 0.9741
-0.1502 6.1177 -2.3451 0.9741
-0.3672 6.1085 -2.3451 0.9741
5.6477 2.3112 -2.4975 0.9740
5.4695 2.7060 -2.4975 0.9740
4.7740 3.8010 -2.4975 0.9740
4.6360 3.9680 -2.4975 0.9740
4.1880 4.4383 -2.4975 0.9740
4.0279 4.5841 -2.4975 0.9740
3.8626 4.7242 -2.4975 0.9740
3.6925 4.8583 -2.4975 0.9740
3.2029 4.9003 -2.3959 0.9750
2.9627 4.9045 -2.3451 0.9755
2.0503 5.3505 -2.3451 0.9755
1.6656 5.4825 -2.3451 0.9755
0.4690 5.7107 -2.3451 0.9755
0.2661 5.7237 -2.3451 0.9755
0.0628 5.7296 -2.3451 0.9755
-0.3438 5.7196 -2.3451 0.9755
5.3038 2.1704 -2.4975 0.9753
4.9432 2.8991 -2.4975 0.9753
4.8372 3.0727 -2.4975 0.9753
4.7251 3.2425 -2.4975 0.9753
4.6071 3.4081 -2.4975 0.9753
4.4832 3.5695 -2.4975 0.9753
4.3537 3.7263 -2.4975 0.9753
3.6274 4.4365 -2.4975 0.9753
3.4677 4.5624 -2.4975 0.9753
3.3036 4.6826 -2.4975 0.9753
3.1353 4.7969 -2.4975 0.9753
2.9053 4.8095 -2.4488 0.9758
2.2770 4.8755 -2.3451 0.9768
1.9254 5.0247 -2.3451 0.9768
1.7459 5.0899 -2.3451 0.9768
1.5641 5.1486 -2.3451 0.9768
1.1950 5.2466 -2.3451 0.9768
1.0080 5.2857 -2.3451 0.9768
0.4405 5.3629 -2.3451 0.9768
0.2499 5.3751 -2.3451 0.9768
0.0590 5.3806 -2.3451 0.9768
-0.3229 5.3712 -2.3451 0.9768
4.8361 2.3926 -2.4975 0.9765
4.6542 2.7296 -2.4975 0.9765
4.5543 2.8931 -2.4975 0.9765
4.4488 3.0529 -2.4975 0.9765
4.3377 3.2088 -2.4975 0.9765
4.2211 3.3607 -2.4975 0.9765
3.7030 3.9243 -2.4975 0.9765
2.9520 4.5164 -2.4975 0.9765
2.6241 4.7144 -2.4975 0.9765
1.6438 4.7922 -2.3451 0.9779
1.4727 4.8475 -2.3451 0.9779
1.1251 4.9398 -2.3451 0.9779
0.9491 4.9766 -2.3451 0.9779
0.7719 5.0071 -2.3451 0.9779
0.5937 5.0314 -2.3451 0.9779
0.4147 5.0493 -2.3451 0.9779
0.2353 5.0608 -2.3451 0.9779
0.0555 5.0660 -2.3451 0.9779
-0.1243 5.0648 -2.3451 0.9779
-0.3040 5.0572 -2.3451 0.9779
4.7122 1.9284 -2.4975 0.9776
4.6408 2.0944 -2.4975 0.9776
4.5636 2.2578 -2.4975 0.9776
4.4806 2.4183 -2.4975 0.9776
4.3919 2.5758 -2.4975 0.9776
4.2977 2.7301 -2.4975 0.9776
4.0933 3.0280 -2.4975 0.9776
3.6236 3.5768 -2.4975 0.9776
3.3607 3.8248 -2.4975 0.9776
3.2228 3.9417 -2.4975 0.9776
3.0809 4.0536 -2.4975 0.9776
2.7856 4.2619 -2.4975 0.9776
2.6326 4.3581 -2.4975 0.9776
2.3169 4.5339 -2.4975 0.9776
1.2505 4.7116 -2.3912 0.9785
1.0739 4.7152 -2.3721 0.9787
0.9002 4.7205 -2.3572 0.9788
0.3914 4.7648 -2.3451 0.9789
-0.1173 4.7794 -2.3451 0.9789
-0.2869 4.7722 -2.3451 0.9789
4.3881 1.9803 -2.4975 0.9785
4.3150 2.1348 -2.4975 0.9785
4.2365 2.2866 -2.4975 0.9785
4.1527 2.4355 -2.4975 0.9785
3.3040 3.5014 -2.4975 0.9785
3.1776 3.6165 -2.4975 0.9785
3.0473 3.7270 -2.4975 0.9785
2.9132 3.8328 -2.4975 0.9785
2.7753 3.9338 -2.4975 0.9785
2.4892 4.1207 -2.4975 0.9785
2.1907 4.2869 -2.4975 0.9785
1.8811 4.4315 -2.4975 0.9785
1.2350 4.6531 -2.4975 0.9785
1.0687 4.6921 -2.4965 0.9785
0.2186 4.7022 -2.4420 0.9790
-0.1154 4.7025 -2.4403 0.9790
-0.2826 4.7019 -2.4437 0.9790
4.0871 2.0221 -2.4975 0.9794
3.9334 2.3069 -2.4975 0.9794
3.7598 2.5801 -2.4975 0.9794
3.6659 2.7119 -2.4975 0.9794
3.5674 2.8403 -2.4975 0.9794
3.2453 3.2034 -2.4975 0.9794
3.0098 3.4255 -2.4975 0.9794
2.8864 3.5302 -2.4975 0.9794
2.7593 3.6304 -2.4975 0.9794
2.6287 3.7260 -2.4975 0.9794
2.3578 3.9031 -2.4975 0.9794
2.0750 4.0605 -2.4975 0.9794
1.9296 4.1316 -2.4975 0.9794
1.7817 4.1975 -2.4975 0.9794
1.4795 4.3133 -2.4975 0.9794
1.1698 4.4074 -2.4975 0.9794
1.0127 4.4461 -2.4975 0.9794
0.8542 4.4792 -2.4975 0.9794
0.3733 4.5447 -2.4975 0.9794
0.2118 4.5550 -2.4975 0.9794
-0.2736 4.5517 -2.4975 0.9794
4.0036 1.6384 -2.4975 0.9802
3.8772 1.9182 -2.4975 0.9802
3.8067 2.0546 -2.4975 0.9802
3.7314 2.1884 -2.4975 0.9802
3.5668 2.4476 -2.4975 0.9802
3.3842 2.6945 -2.4975 0.9802
3.1845 2.9277 -2.4975 0.9802
3.0786 3.0389 -2.4975 0.9802
2.7382 3.3489 -2.4975 0.9802
2.2367 3.7027 -2.4975 0.9802
1.8305 3.9194 -2.4975 0.9802
1.2574 4.1390 -2.4975 0.9802
0.9606 4.2178 -2.4975 0.9802
0.8104 4.2492 -2.4975 0.9802
0.6591 4.2753 -2.4975 0.9802
0.5069 4.2960 -2.4975 0.9802
0.0474 4.3255 -2.4975 0.9802
