ply
format ascii 1.0
element vertex 486
property float32 x
property float32 y
property float32 z
property float32 I
end_header
44.1464 -21.2803 8.6414 0.8195
47.1951 -0.5915 8.3224 0.8255
46.8122 6.2637 8.3278 0.8254
47.1882 -9.2940 7.3679 0.8231
47.2400 -5.7774 7.2908 0.8248
47.2656 -4.0419 7.2673 0.8253
47.3428 1.1295 7.2547 0.8256
47.3687 2.8570 7.2698 0.8253
47.4484 8.1156 7.3744 0.8230
47.5038 11.7346 7.4961 0.8204
45.6826 14.8831 7.3604 0.8233
47.2451 -2.3131 6.1597 0.8263
46.0124 14.9905 6.3017 0.8227
45.9398 14.9669 4.0901 0.8237
38.6677 -18.6393 -0.2417 0.8422
45.3141 -19.8454 -0.2785 0.8205
45.2916 -2.2175 -0.2553 0.8341
38.5494 12.5591 -0.2283 0.8503
38.5882 22.7794 -0.2523 0.8359
38.4057 -16.8198 -1.1806 0.8455
38.4068 -13.5866 -1.1471 0.8496
38.4726 -9.0428 -1.1128 0.8537
38.4851 -7.5799 -1.1045 0.8547
38.5097 -4.7097 -1.0924 0.8562
38.5462 -0.4831 -1.0855 0.8571
38.5436 2.3247 -1.0873 0.8568
38.5824 3.7398 -1.0915 0.8563
38.6453 11.0525 -1.1318 0.8514
38.6721 14.1750 -1.1598 0.8480
38.6861 15.7992 -1.1767 0.8460
38.6156 17.4354 -1.1931 0.8440
38.7308 21.0023 -1.2406 0.8384
38.6619 22.8229 -1.2641 0.8356
38.7813 26.8773 -1.3286 0.8279
38.7998 29.0351 -1.3645 0.8237
33.1307 -13.0948 -1.8067 0.8670
38.4068 -13.5866 -2.0661 0.8495
38.4467 -12.0460 -2.0433 0.8510
38.4851 -7.5799 -1.9892 0.8546
38.5097 -4.7097 -1.9675 0.8561
38.4374 -3.2870 -1.9564 0.8568
38.5341 -1.8866 -1.9566 0.8568
38.5462 -0.4831 -1.9550 0.8569
38.5582 0.9199 -1.9560 0.8569
38.5436 2.3247 -1.9583 0.8567
38.5824 3.7398 -1.9658 0.8562
38.5946 5.1642 -1.9747 0.8556
38.6196 8.0616 -2.0008 0.8538
38.6453 11.0525 -2.0384 0.8513
38.6318 12.5860 -2.0605 0.8498
38.6619 22.8229 -2.2769 0.8354
38.0679 26.3828 -2.3489 0.8307
32.6735 24.4506 -2.0696 0.8492
32.6660 32.8351 -2.3489 0.8307
30.1921 35.1233 -2.3489 0.8307
30.1164 -13.1895 -2.4107 0.8765
30.1111 -11.9014 -2.3740 0.8782
31.4316 -6.1907 -2.3489 0.8794
31.6360 -5.0431 -2.3489 0.8794
32.0329 -0.4015 -2.3489 0.8794
31.9773 1.9287 -2.3489 0.8794
31.7524 4.2486 -2.3489 0.8794
31.3595 6.5461 -2.3489 0.8794
31.1006 7.6826 -2.3489 0.8794
30.8005 8.8089 -2.3489 0.8794
30.4597 9.9236 -2.3489 0.8794
29.8863 12.2054 -2.3670 0.8786
29.8676 13.4856 -2.4028 0.8768
29.8478 14.8065 -2.4430 0.8749
29.8267 16.1739 -2.4878 0.8728
28.7269 18.3991 -2.5013 0.8721
27.3130 20.4391 -2.5013 0.8721
26.5514 21.4192 -2.5013 0.8721
25.7546 22.3710 -2.5013 0.8721
24.0599 24.1843 -2.5013 0.8721
23.1641 25.0436 -2.5013 0.8721
23.4695 -11.3132 -2.5013 0.9006
24.5623 -8.6890 -2.5013 0.9006
24.8621 -7.7897 -2.5013 0.9006
25.1291 -6.8801 -2.5013 0.9006
25.3628 -5.9614 -2.5013 0.9006
25.5628 -5.0348 -2.5013 0.9006
25.7287 -4.1013 -2.5013 0.9006
25.9592 -2.2199 -2.5013 0.9006
26.0519 -0.3265 -2.5013 0.9006
26.0465 0.6214 -2.5013 0.9006
26.0067 1.5686 -2.5013 0.9006
25.9324 2.5136 -2.5013 0.9006
25.5042 5.3238 -2.5013 0.9006
25.2936 6.2481 -2.5013 0.9006
24.7724 8.0707 -2.5013 0.9006
24.1200 9.8505 -2.5013 0.9006
23.7457 10.7214 -2.5013 0.9006
23.3399 11.5782 -2.5013 0.9006
22.9033 12.4196 -2.5013 0.9006
22.4363 13.2446 -2.5013 0.9006
21.9396 14.0520 -2.5013 0.9006
20.8598 15.6100 -2.5013 0.9006
19.6696 17.0854 -2.5013 0.9006
18.3753 18.4704 -2.5013 0.9006
17.6912 19.1266 -2.5013 0.9006
16.9837 19.7576 -2.5013 0.9006
18.9685 -9.1435 -2.5013 0.9187
19.5831 -7.7402 -2.5013 0.9187
19.8517 -7.0226 -2.5013 0.9187
20.4987 -4.8181 -2.5013 0.9187
20.6604 -4.0692 -2.5013 0.9187
21.0321 -1.0297 -2.5013 0.9187
21.0556 -0.2639 -2.5013 0.9187
20.9591 2.0316 -2.5013 0.9187
20.7559 3.5501 -2.5013 0.9187
20.4428 5.0499 -2.5013 0.9187
20.0215 6.5229 -2.5013 0.9187
19.1917 8.6653 -2.5013 0.9187
18.8638 9.3577 -2.5013 0.9187
18.5108 10.0378 -2.5013 0.9187
17.7320 11.3571 -2.5013 0.9187
15.8974 13.8088 -2.5013 0.9187
15.3845 14.3780 -2.5013 0.9187
14.8512 14.9281 -2.5013 0.9187
16.1707 -7.0820 -2.5013 0.9312
16.4176 -6.4890 -2.5013 0.9312
16.6428 -5.8875 -2.5013 0.9312
16.8459 -5.2781 -2.5013 0.9312
17.0268 -4.6618 -2.5013 0.9312
17.1851 -4.0393 -2.5013 0.9312
17.6485 0.4211 -2.5013 0.9312
17.6214 1.0628 -2.5013 0.9312
17.5711 1.7032 -2.5013 0.9312
17.4008 2.9762 -2.5013 0.9312
16.9729 4.8542 -2.5013 0.9312
16.5751 6.0755 -2.5013 0.9312
16.0895 7.2646 -2.5013 0.9312
15.8146 7.8451 -2.5013 0.9312
15.2022 8.9742 -2.5013 0.9312
14.8657 9.5213 -2.5013 0.9312
14.5095 10.0558 -2.5013 0.9312
14.1341 10.5770 -2.5013 0.9312
12.8977 12.0538 -2.5013 0.9312
11.9809 12.9530 -2.5000 0.9312
11.4736 13.3476 -2.4939 0.9314
13.9081 -6.0911 -2.5013 0.9403
14.1205 -5.5811 -2.5013 0.9403
14.8973 -2.9341 -2.5013 0.9403
14.9941 -2.3902 -2.5013 0.9403
15.0712 -1.8432 -2.5013 0.9403
15.1282 -1.2937 -2.5013 0.9403
15.1822 -0.1903 -2.5013 0.9403
15.1791 0.3622 -2.5013 0.9403
15.0493 2.0137 -2.5013 0.9403
14.9661 2.5598 -2.5013 0.9403
14.8631 3.1026 -2.5013 0.9403
14.7404 3.6412 -2.5013 0.9403
14.5981 4.1750 -2.5013 0.9403
14.4366 4.7033 -2.5013 0.9403
14.2559 5.2254 -2.5013 0.9403
14.0564 5.7406 -2.5013 0.9403
13.8382 6.2481 -2.5013 0.9403
13.3473 7.2378 -2.5013 0.9403
13.0752 7.7185 -2.5013 0.9403
12.4794 8.6488 -2.5013 0.9403
11.8175 9.5333 -2.5013 0.9403
11.4629 9.9569 -2.5013 0.9403
11.0931 10.3673 -2.5013 0.9403
10.7086 10.7640 -2.5013 0.9403
9.8976 11.5141 -2.5013 0.9403
11.9876 -5.7785 -2.5013 0.9473
12.5457 -4.4381 -2.5013 0.9473
13.1417 -2.0949 -2.5013 0.9473
13.2092 -1.6155 -2.5013 0.9473
13.2592 -1.1339 -2.5013 0.9473
13.2917 -0.6507 -2.5013 0.9473
13.3038 0.3174 -2.5013 0.9473
13.2455 1.2839 -2.5013 0.9473
13.1171 2.2436 -2.5013 0.9473
12.9193 3.1914 -2.5013 0.9473
12.6530 4.1223 -2.5013 0.9473
12.1286 5.4762 -2.5013 0.9473
11.2062 7.1774 -2.5013 0.9473
10.3575 8.3555 -2.5013 0.9473
10.0467 8.7268 -2.5013 0.9473
9.7225 9.0865 -2.5013 0.9473
9.0362 9.7693 -2.5013 0.9473
8.6748 10.0916 -2.5013 0.9473
11.1558 -3.9464 -2.5013 0.9528
4.5788 -0.3916 -0.9714 0.9814
4.5764 -0.2241 -0.9685 0.9814
4.5763 -0.0574 -0.9674 0.9815
4.5793 0.1093 -0.9682 0.9814
11.7780 1.1416 -2.5013 0.9528
11.5836 2.4180 -2.5013 0.9528
11.3771 3.2538 -2.5013 0.9528
11.1104 4.0724 -2.5013 0.9528
10.9549 4.4739 -2.5013 0.9528
10.7849 4.8695 -2.5013 0.9528
10.6006 5.2586 -2.5013 0.9528
10.4023 5.6408 -2.5013 0.9528
9.7258 6.7405 -2.5013 0.9528
8.9336 7.7599 -2.5013 0.9528
8.6454 8.0798 -2.5013 0.9528
8.3458 8.3889 -2.5013 0.9528
8.0350 8.6870 -2.5013 0.9528
7.7137 8.9735 -2.5013 0.9528
9.5871 -4.6214 -2.5013 0.9572
9.7489 -4.2695 -2.5013 0.9572
10.2651 -2.8105 -2.5013 0.9572
10.4422 -2.0567 -2.5013 0.9572
10.5101 -1.6754 -2.5013 0.9572
4.3081 -0.5269 -1.0200 0.9823
4.2148 -0.3604 -0.9942 0.9828
4.2203 0.1007 -0.9921 0.9828
4.2309 0.2552 -0.9962 0.9827
4.3510 0.4217 -1.0274 0.9822
10.5488 1.4115 -2.5013 0.9572
10.4905 1.7943 -2.5013 0.9572
10.4183 2.1747 -2.5013 0.9572
10.2326 2.9265 -2.5013 0.9572
10.1193 3.2968 -2.5013 0.9572
9.8528 4.0238 -2.5013 0.9572
9.5342 4.7296 -2.5013 0.9572
9.1651 5.4103 -2.5013 0.9572
8.9621 5.7401 -2.5013 0.9572
8.5211 6.3766 -2.5013 0.9572
8.2835 6.6823 -2.5013 0.9572
8.0349 6.9793 -2.5013 0.9572
7.5062 7.5450 -2.5013 0.9572
8.8492 -3.8755 -2.5013 0.9609
9.2187 -2.8884 -2.5013 0.9609
3.9675 -0.3393 -1.0310 0.9837
3.9698 -0.1944 -1.0291 0.9837
3.9701 -0.0498 -1.0280 0.9837
3.9726 0.0948 -1.0289 0.9837
3.9717 0.2395 -1.0302 0.9837
4.0534 0.3929 -1.0544 0.9833
9.5753 1.2812 -2.5013 0.9609
9.5223 1.6287 -2.5013 0.9609
9.3787 2.3168 -2.5013 0.9609
9.2882 2.6564 -2.5013 0.9609
8.6543 4.2931 -2.5013 0.9609
8.4924 4.6051 -2.5013 0.9609
8.3193 4.9110 -2.5013 0.9609
8.1351 5.2104 -2.5013 0.9609
7.7347 5.7881 -2.5013 0.9609
7.2934 6.3352 -2.5013 0.9609
7.0581 6.5963 -2.5013 0.9609
7.9592 -3.8366 -2.5013 0.9639
8.0935 -3.5445 -2.5013 0.9639
8.2171 -3.2478 -2.5013 0.9639
8.3298 -2.9467 -2.5013 0.9639
8.6013 -2.0217 -2.5013 0.9639
3.8720 -0.6172 -1.1100 0.9838
3.7880 -0.3239 -1.0763 0.9843
3.7915 -0.1856 -1.0746 0.9843
3.7935 -0.0475 -1.0740 0.9844
3.7911 0.2287 -1.0752 0.9843
8.7092 1.4896 -2.5013 0.9639
8.6492 1.8055 -2.5013 0.9639
8.4951 2.4296 -2.5013 0.9639
8.4010 2.7370 -2.5013 0.9639
8.2959 3.0408 -2.5013 0.9639
8.1798 3.3406 -2.5013 0.9639
8.0529 3.6360 -2.5013 0.9639
7.9153 3.9265 -2.5013 0.9639
7.6088 4.4916 -2.5013 0.9639
7.0742 5.2938 -2.5013 0.9639
6.4554 6.0330 -2.5013 0.9639
5.9996 6.4864 -2.5013 0.9639
5.7597 6.7004 -2.5013 0.9639
7.3256 -3.5312 -2.5013 0.9665
7.5630 -2.9892 -2.5013 0.9665
3.6836 -0.5872 -1.1473 0.9845
3.6257 -0.4434 -1.1235 0.9848
3.6287 -0.3103 -1.1202 0.9849
3.6334 -0.1779 -1.1189 0.9849
3.6354 -0.0456 -1.1183 0.9849
3.6345 0.0867 -1.1182 0.9849
3.7355 0.4998 -1.1592 0.9844
7.9607 1.6617 -2.5013 0.9665
7.8188 2.2362 -2.5013 0.9665
7.7323 2.5191 -2.5013 0.9665
7.6355 2.7987 -2.5013 0.9665
7.5286 3.0747 -2.5013 0.9665
7.2852 3.6139 -2.5013 0.9665
6.8481 4.3861 -2.5013 0.9665
6.5110 4.8724 -2.5013 0.9665
6.3295 5.1060 -2.5013 0.9665
6.1395 5.3329 -2.5013 0.9665
5.9415 5.5527 -2.5013 0.9665
5.7355 5.7652 -2.5013 0.9665
5.3012 6.1670 -2.5013 0.9665
6.7785 -3.2675 -2.5013 0.9688
7.1807 -2.2498 -2.5013 0.9688
3.4935 -0.1710 -1.1626 0.9854
3.5003 0.2111 -1.1656 0.9853
3.5078 0.3400 -1.1715 0.9853
3.5495 0.4749 -1.1904 0.9850
7.4171 1.2686 -2.5013 0.9688
7.3661 1.5376 -2.5013 0.9688
7.2348 2.0691 -2.5013 0.9688
7.0652 2.5897 -2.5013 0.9688
6.8582 3.0966 -2.5013 0.9688
6.7410 3.3440 -2.5013 0.9688
6.3366 4.0585 -2.5013 0.9688
6.1848 4.2863 -2.5013 0.9688
6.0247 4.5085 -2.5013 0.9688
5.8567 4.7247 -2.5013 0.9688
5.6810 4.9346 -2.5013 0.9688
5.4977 5.1380 -2.5013 0.9688
5.1096 5.5241 -2.5013 0.9688
4.9052 5.7064 -2.5013 0.9688
6.5049 -2.5710 -2.5013 0.9707
6.5941 -2.3327 -2.5013 0.9707
6.6746 -2.0913 -2.5013 0.9707
6.7463 -1.8471 -2.5013 0.9707
6.8090 -1.6004 -2.5013 0.9707
3.5654 -0.7022 -1.2995 0.9847
3.3829 -0.5393 -1.2250 0.9856
3.3878 -0.4143 -1.2205 0.9856
3.3969 -0.0426 -1.2148 0.9857
3.3923 0.3288 -1.2188 0.9856
6.7904 1.6774 -2.5013 0.9707
6.7249 1.9233 -2.5013 0.9707
6.6505 2.1667 -2.5013 0.9707
6.1487 3.3342 -2.5013 0.9707
5.8901 3.7725 -2.5013 0.9707
5.7489 3.9842 -2.5013 0.9707
5.6001 4.1907 -2.5013 0.9707
5.2806 4.5868 -2.5013 0.9707
4.9331 4.9587 -2.5013 0.9707
5.8797 -2.8342 -2.5013 0.9724
5.9789 -2.6184 -2.5013 0.9724
6.2286 -1.9515 -2.5013 0.9724
6.3540 -1.4935 -2.5013 0.9724
3.3804 -0.6658 -1.3203 0.9853
3.3488 -0.5338 -1.2995 0.9856
3.3471 -0.2862 -1.2874 0.9857
3.3450 -0.0419 -1.2819 0.9858
3.3522 0.3249 -1.2907 0.9857
3.7260 0.6373 -1.4486 0.9839
6.3894 1.3337 -2.5013 0.9724
6.3367 1.5653 -2.5013 0.9724
6.1284 2.2463 -2.5013 0.9724
6.0426 2.4678 -2.5013 0.9724
5.8472 2.9006 -2.5013 0.9724
5.7378 3.1114 -2.5013 0.9724
5.4964 3.5204 -2.5013 0.9724
5.3647 3.7180 -2.5013 0.9724
4.7687 4.4567 -2.5013 0.9724
4.6034 4.6273 -2.5013 0.9724
4.4321 4.7917 -2.5013 0.9724
5.5982 -2.4517 -2.5013 0.9739
5.8946 -1.6139 -2.5013 0.9739
5.9494 -1.3984 -2.5013 0.9739
3.3219 -0.4063 -1.3697 0.9856
3.3208 -0.0416 -1.3592 0.9857
3.3213 0.0792 -1.3597 0.9857
3.3225 0.2004 -1.3623 0.9857
3.3225 0.3220 -1.3662 0.9857
3.3216 0.4445 -1.3716 0.9856
3.3837 0.5787 -1.4050 0.9853
5.8760 1.6805 -2.5013 0.9739
5.8110 1.8932 -2.5013 0.9739
5.7382 2.1033 -2.5013 0.9739
5.6579 2.3107 -2.5013 0.9739
5.5701 2.5150 -2.5013 0.9739
5.4750 2.7159 -2.5013 0.9739
5.2630 3.1068 -2.5013 0.9739
5.1465 3.2962 -2.5013 0.9739
5.0231 3.4813 -2.5013 0.9739
4.7567 3.8373 -2.5013 0.9739
4.3104 4.3327 -2.5013 0.9739
4.1499 4.4866 -2.5013 0.9739
3.9839 4.6346 -2.5013 0.9739
5.1701 -2.4922 -2.5013 0.9753
5.4108 -1.9141 -2.5013 0.9753
5.5871 -1.3132 -2.5013 0.9753
3.3113 -0.6522 -1.4708 0.9854
3.2934 -0.5250 -1.4534 0.9856
3.2956 -0.4030 -1.4470 0.9856
3.2962 0.3195 -1.4433 0.9857
3.2954 0.4409 -1.4490 0.9856
3.3546 0.5738 -1.4832 0.9853
5.5181 1.5782 -2.5013 0.9753
5.4571 1.7779 -2.5013 0.9753
5.3134 2.1699 -2.5013 0.9753
4.7172 3.2693 -2.5013 0.9753
4.5952 3.4387 -2.5013 0.9753
4.3330 3.7637 -2.5013 0.9753
4.0479 4.0688 -2.5013 0.9753
3.8972 4.2134 -2.5013 0.9753
4.8677 -2.3464 -2.5013 0.9765
4.9499 -2.1678 -2.5013 0.9765
5.0255 -1.9863 -2.5013 0.9765
5.1565 -1.6156 -2.5013 0.9765
5.2119 -1.4270 -2.5013 0.9765
3.2767 -0.6454 -1.5459 0.9854
3.2712 -0.5215 -1.5333 0.9855
3.2722 -0.4002 -1.5260 0.9856
3.2703 -0.2797 -1.5193 0.9856
3.2698 0.0780 -1.5140 0.9857
3.2729 0.3172 -1.5221 0.9856
3.3254 0.5688 -1.5616 0.9852
5.2897 1.1042 -2.5013 0.9765
5.2461 1.2959 -2.5013 0.9765
5.1380 1.6739 -2.5013 0.9765
4.6534 2.7470 -2.5013 0.9765
4.4414 3.0781 -2.5013 0.9765
4.2058 3.3928 -2.5013 0.9765
3.9480 3.6897 -2.5013 0.9765
3.6693 3.9670 -2.5013 0.9765
4.5935 -2.2142 -2.5013 0.9775
4.8661 -1.5246 -2.5013 0.9775
4.9182 -1.3466 -2.5013 0.9775
3.3448 -0.7862 -1.6854 0.9848
3.2493 -0.5180 -1.6140 0.9854
3.2487 -0.3973 -1.6054 0.9855
3.2460 0.0774 -1.5927 0.9856
3.2493 0.1960 -1.5968 0.9856
3.2962 0.5638 -1.6403 0.9852
4.9917 1.0420 -2.5013 0.9775
4.9505 1.2229 -2.5013 0.9775
4.9027 1.4022 -2.5013 0.9775
4.7208 1.9279 -2.5013 0.9775
4.4826 2.4308 -2.5013 0.9775
4.2941 2.7503 -2.5013 0.9775
3.8498 3.3440 -2.5013 0.9775
3.7255 3.4818 -2.5013 0.9775
3.5964 3.6150 -2.5013 0.9775
4.4166 -1.9342 -2.5013 0.9785
4.4840 -1.7723 -2.5013 0.9785
4.6010 -1.4416 -2.5013 0.9785
3.2340 -0.6370 -1.7100 0.9853
3.2243 -0.2757 -1.6788 0.9855
3.2215 -0.1577 -1.6732 0.9856
3.2204 -0.0404 -1.6708 0.9856
3.2240 0.0769 -1.6730 0.9856
3.2297 0.4322 -1.6904 0.9854
3.5810 0.7475 -1.8978 0.9837
4.6357 1.3258 -2.5013 0.9785
4.4637 1.8229 -2.5013 0.9785
4.3193 2.1427 -2.5013 0.9785
4.1521 2.4510 -2.5013 0.9785
4.0602 2.6004 -2.5013 0.9785
3.1430 3.6563 -2.5013 0.9785
4.1139 -1.9831 -2.5013 0.9794
4.3580 -1.3654 -2.5013 0.9794
4.4048 -1.2060 -2.5013 0.9794
3.3008 -0.7758 -1.8571 0.9847
3.2040 -0.5108 -1.7770 0.9853
3.2035 -0.3918 -1.7677 0.9854
3.2020 -0.2738 -1.7601 0.9855
3.2020 0.0764 -1.7542 0.9855
3.2061 0.3108 -1.7642 0.9854
3.2138 0.4300 -1.7759 0.9853
3.5028 0.7312 -1.9599 0.9838
4.3423 1.4147 -2.5013 0.9794
4.2879 1.5717 -2.5013 0.9794
4.0146 2.1770 -2.5013 0.9794
3.9328 2.3216 -2.5013 0.9794
3.7536 2.6014 -2.5013 0.9794
3.6565 2.7362 -2.5013 0.9794
3.4478 2.9949 -2.5013 0.9794
3.1011 3.3526 -2.5013 0.9794
2.9770 3.4632 -2.5013 0.9794
3.9685 -1.7380 -2.5013 0.9802
4.0291 -1.5925 -2.5013 0.9802
4.1342 -1.2953 -2.5013 0.9802
3.2757 -0.7700 -1.9428 0.9846
3.2015 -0.6306 -1.8839 0.9850
3.1877 -0.5082 -1.8636 0.9852
3.1771 -0.1555 -1.8365 0.9854
3.1762 -0.0398 -1.8339 0.9854
3.1793 0.0759 -1.8361 0.9854
3.1817 0.1919 -1.8403 0.9854
3.1836 0.3086 -1.8467 0.9853
3.2116 0.5493 -1.8812 0.9851
3.4519 0.7206 -2.0359 0.9838
4.1193 1.3420 -2.5013 0.9802
3.9486 1.7828 -2.5013 0.9802
3.8811 1.9253 -2.5013 0.9802
3.5609 2.4678 -2.5013 0.9802
3.4687 2.5957 -2.5013 0.9802
3.3720 2.7202 -2.5013 0.9802
3.1653 2.9582 -2.5013 0.9802
3.0556 3.0714 -2.5013 0.9802
2.9418 3.1805 -2.5013 0.9802
