ply
format ascii 1.0
element vertex 539
property float32 x
property float32 y
property float32 z
property float32 I
end_header
-14.6935 22.7460 4.7748 0.8958
-40.9643 18.6837 7.9389 0.8329
-37.1127 15.3565 7.0820 0.8495
-41.7031 12.2441 7.6638 0.8382
-41.5725 10.6149 7.5655 0.8401
-37.3300 -6.6778 6.6868 0.8572
-14.0000 21.6726 3.9526 0.9009
-40.5842 20.2844 6.9506 0.8323
-37.3870 15.4700 6.1984 0.8490
-37.2749 13.8920 6.0940 0.8513
-39.0472 12.9902 6.3042 0.8466
-43.7181 12.8358 6.9801 0.8316
-38.2681 -8.2605 5.9975 0.8535
-37.0647 -9.3924 5.8576 0.8566
-13.5789 21.0207 3.2588 0.9040
-14.9113 21.3746 3.3938 0.9002
-41.5327 18.9429 5.9444 0.8318
-42.9988 12.6246 5.8357 0.8346
-42.6643 10.8937 5.7340 0.8373
-36.9491 -9.3631 4.9636 0.8575
-36.3372 29.2045 5.0060 0.8290
-41.4580 17.1545 4.8179 0.8349
-43.0878 12.6507 4.8221 0.8347
-37.8760 -8.1759 4.1609 0.8557
-13.7970 21.3583 2.1525 0.9030
-14.8596 21.3005 2.1986 0.9010
-16.0848 21.3924 2.2657 0.8981
-35.3724 30.5627 3.9573 0.8289
-35.2787 28.3537 3.8314 0.8339
-35.2096 26.2926 3.7199 0.8383
-35.3702 24.5020 3.6424 0.8414
-38.4785 24.6769 3.8696 0.8324
-42.1298 24.9492 4.1449 0.8216
-38.5397 -6.8941 3.3143 0.8546
-13.7970 21.3583 1.5767 0.9031
-14.8874 21.3403 1.6135 0.9010
-34.6796 25.8968 2.6839 0.8408
-34.9042 24.1792 2.6330 0.8435
-38.0913 -6.8139 2.3995 0.8563
-37.6912 -8.1359 2.3911 0.8568
-13.7970 21.3583 1.0026 0.9032
-19.8434 22.8137 1.1922 0.8860
-21.1024 22.5855 1.2188 0.8836
-29.9270 24.0526 1.5139 0.8575
-36.7147 23.5458 1.7198 0.8398
-40.7801 24.1499 1.8688 0.8272
-37.7549 -8.1497 1.5230 0.8567
-18.4201 22.7647 0.4947 0.8895
-19.8190 22.7856 0.5101 0.8862
-28.4240 26.3825 0.6551 0.8563
-28.4097 22.8331 0.6157 0.8643
-30.7694 22.9769 0.6487 0.8576
-33.0867 22.9203 0.6799 0.8513
-35.8035 22.9614 0.7185 0.8435
-42.1045 22.9515 0.8100 0.8254
-39.2795 -7.0265 0.6740 0.8525
-37.8119 -8.1620 0.6534 0.8566
-4.2567 6.5896 -0.0442 0.9691
-4.5346 6.5002 -0.0446 0.9688
-4.8922 6.5066 -0.0458 0.9680
-5.3282 6.5850 -0.0477 0.9667
-5.7280 6.5855 -0.0491 0.9657
-7.6246 6.5880 -0.0567 0.9605
-11.1539 6.6054 -0.0730 0.9495
-12.1197 6.6066 -0.0777 0.9463
-14.4917 6.6097 -0.0897 0.9383
-17.7373 6.6106 -0.1066 0.9271
-19.8789 6.6134 -0.1180 0.9196
-36.2126 6.5457 -0.2072 0.8631
-46.0871 6.6472 -0.2622 0.8301
-38.0154 -8.2059 -0.2190 0.8559
-4.2566 6.5895 -0.2209 0.9691
-4.5345 6.5001 -0.2232 0.9688
-4.8921 6.5065 -0.2292 0.9679
-5.3281 6.5849 -0.2385 0.9667
-6.1534 6.5859 -0.2538 0.9646
-7.0968 6.5871 -0.2726 0.9620
-10.1465 6.5072 -0.3394 0.9529
-22.5391 6.6176 -0.6614 0.9103
-25.5905 6.5342 -0.7437 0.8997
-30.4197 6.6242 -0.8766 0.8829
-46.0824 6.6465 -1.3110 0.8300
-4.8921 6.5064 -0.4128 0.9679
-5.3280 6.5847 -0.4296 0.9666
-5.7278 6.5853 -0.4426 0.9656
-6.6080 6.5864 -0.4732 0.9633
-7.6243 6.5877 -0.5110 0.9604
-8.8238 6.5892 -0.5585 0.9569
-10.1463 6.5071 -0.6113 0.9529
-11.1533 6.6050 -0.6574 0.9494
-12.1190 6.6062 -0.7000 0.9462
-15.9693 6.6078 -0.8765 0.9331
-17.7359 6.6101 -0.9599 0.9270
-22.5379 6.6173 -1.1912 0.9102
-30.4177 6.6237 -1.5788 0.8828
-36.2068 6.5447 -1.8660 0.8630
-45.8441 6.6121 -2.3490 0.8307
-49.2907 1.7995 -2.5014 0.8207
-49.3236 0.0447 -2.5014 0.8207
-49.2939 -1.7100 -2.5014 0.8207
-49.2019 -3.4627 -2.5014 0.8207
-49.0475 -5.2109 -2.5014 0.8207
-45.8561 -6.5289 -2.3490 0.8307
-48.2131 -10.4072 -2.5014 0.8207
-47.8123 -12.1159 -2.5014 0.8207
-4.5344 6.4998 -0.5811 0.9687
-4.8920 6.5063 -0.5969 0.9679
-5.3279 6.5846 -0.6210 0.9666
-6.6079 6.5862 -0.6841 0.9633
-7.0965 6.5869 -0.7099 0.9619
-7.6241 6.5875 -0.7388 0.9604
-8.1972 6.5882 -0.7711 0.9587
-8.8236 6.5890 -0.8074 0.9568
-9.5128 6.5899 -0.8485 0.9546
-10.1460 6.5069 -0.8838 0.9528
-12.1187 6.6060 -1.0120 0.9461
-13.2197 6.6074 -1.0836 0.9424
-15.9687 6.6076 -1.2671 0.9330
-22.5368 6.6169 -1.7222 0.9101
-25.5875 6.5335 -1.9363 0.8995
-31.5260 5.6985 -2.3490 0.8794
-32.6382 4.7074 -2.4179 0.8761
-33.9178 3.6657 -2.5014 0.8721
-34.0267 2.4567 -2.5014 0.8721
-33.7747 -4.8088 -2.5014 0.8721
-32.2370 -5.7667 -2.4012 0.8769
-4.8919 6.5062 -0.7815 0.9678
-5.7276 6.5850 -0.8379 0.9655
-6.1530 6.5855 -0.8653 0.9644
-6.6078 6.5861 -0.8957 0.9632
-9.5125 6.5897 -1.1110 0.9546
-10.1457 6.5067 -1.1571 0.9527
-14.4897 6.6088 -1.5289 0.9380
-15.9681 6.6073 -1.6591 0.9329
-19.8753 6.6122 -2.0109 0.9193
-22.5356 6.6166 -2.2549 0.9099
-23.7070 6.0532 -2.3490 0.9064
-23.9073 5.2060 -2.3490 0.9064
-25.9041 2.7996 -2.5014 0.9006
-26.0393 -0.9033 -2.5014 0.9006
-25.9907 -1.8291 -2.5014 0.9006
-25.7948 -3.6726 -2.5014 0.9006
-25.6478 -4.5880 -2.5014 0.9006
-25.4684 -5.4976 -2.5014 0.9006
-23.7179 -6.0102 -2.3490 0.9064
-4.8918 6.5060 -0.9669 0.9677
-6.1529 6.5854 -1.0706 0.9643
-7.6238 6.5872 -1.1968 0.9602
-8.1968 6.5879 -1.2492 0.9585
-8.8231 6.5887 -1.3080 0.9566
-11.1523 6.6044 -1.5396 0.9491
-12.1179 6.6056 -1.6394 0.9459
-13.2188 6.6070 -1.7554 0.9422
-14.4892 6.6085 -1.8917 0.9379
-15.9675 6.6071 -2.0527 0.9328
-17.7336 6.6092 -2.2480 0.9266
-18.7640 6.2424 -2.3490 0.9234
-18.9742 5.5709 -2.3490 0.9234
-19.1604 4.8923 -2.3490 0.9234
-20.7223 3.7457 -2.5014 0.9187
-20.9362 2.2627 -2.5014 0.9187
-21.0441 0.7683 -2.5014 0.9187
-21.0455 -0.7301 -2.5014 0.9187
-21.0062 -1.4783 -2.5014 0.9187
-20.5840 -4.4432 -2.5014 0.9187
-20.4129 -5.1727 -2.5014 0.9187
-4.8917 6.5059 -1.1533 0.9677
-8.8229 6.5885 -1.5602 0.9565
-9.5120 6.5894 -1.6396 0.9543
-10.1452 6.5064 -1.7077 0.9525
-11.1520 6.6043 -1.8364 0.9490
-12.1176 6.6054 -1.9554 0.9458
-13.2184 6.6068 -2.0938 0.9420
-15.3190 6.3387 -2.3490 0.9352
-15.7309 5.2333 -2.3490 0.9352
-17.1054 4.3676 -2.5014 0.9312
-17.3726 3.1402 -2.5014 0.9312
-17.5520 1.8970 -2.5014 0.9312
-17.6424 0.6441 -2.5014 0.9312
-17.6542 0.0160 -2.5014 0.9312
-17.5554 -1.8651 -2.5014 0.9312
-17.4779 -2.4885 -2.5014 0.9312
-17.1133 -4.3366 -2.5014 0.9312
-4.5340 6.4994 -1.3055 0.9684
-4.8916 6.5058 -1.3409 0.9675
-5.3275 6.5841 -1.3953 0.9662
-7.0958 6.5863 -1.5949 0.9615
-11.1517 6.6041 -2.1351 0.9488
-12.1172 6.6052 -2.2735 0.9456
-12.9733 5.9171 -2.3490 0.9438
-14.8364 3.2307 -2.5014 0.9403
-14.9419 2.7009 -2.5014 0.9403
-15.0961 1.6315 -2.5014 0.9403
-15.1446 1.0934 -2.5014 0.9403
-15.1840 0.0138 -2.5014 0.9403
-15.1749 -0.5264 -2.5014 0.9403
-15.0324 -2.1403 -2.5014 0.9403
-14.9468 -2.6737 -2.5014 0.9403
-14.8422 -3.2038 -2.5014 0.9403
-14.7188 -3.7298 -2.5014 0.9403
-4.2561 6.5887 -1.4743 0.9686
-4.5339 6.4993 -1.4895 0.9683
-4.8915 6.5057 -1.5299 0.9674
-5.3274 6.5840 -1.5919 0.9661
-5.7271 6.5845 -1.6403 0.9651
-6.1525 6.5850 -1.6939 0.9640
-6.6072 6.5856 -1.7534 0.9627
-7.6232 6.5868 -1.8936 0.9598
-10.1446 6.5060 -2.2652 0.9521
-10.7532 6.3680 -2.3490 0.9504
-10.9729 5.9814 -2.3490 0.9504
-11.1788 5.5873 -2.3490 0.9504
-11.3705 5.1860 -2.3490 0.9504
-11.5478 4.7782 -2.3490 0.9504
-12.7691 3.7491 -2.5014 0.9473
-12.8944 3.2924 -2.5014 0.9473
-13.2311 1.4300 -2.5014 0.9473
-13.3081 0.0121 -2.5014 0.9473
-13.2753 -0.9343 -2.5014 0.9473
-13.1002 -2.3434 -2.5014 0.9473
-12.9005 -3.2690 -2.5014 0.9473
-4.5339 6.4991 -1.6750 0.9681
-4.8914 6.5056 -1.7205 0.9673
-5.3273 6.5839 -1.7902 0.9660
-6.1524 6.5849 -1.9049 0.9638
-6.6071 6.5854 -1.9719 0.9626
-7.6231 6.5866 -2.1295 0.9596
-8.1961 6.5873 -2.2227 0.9579
-8.9041 6.6491 -2.3490 0.9556
-9.5619 5.6625 -2.3490 0.9556
-9.7572 5.3188 -2.3490 0.9556
-10.3285 4.7108 -2.3996 0.9546
-10.9346 4.5245 -2.5014 0.9528
-11.0886 4.1326 -2.5014 0.9528
-11.2286 3.7355 -2.5014 0.9528
-11.3544 3.3337 -2.5014 0.9528
-11.4658 2.9276 -2.5014 0.9528
-11.5627 2.5179 -2.5014 0.9528
-11.7125 1.6893 -2.5014 0.9528
-11.7652 1.2715 -2.5014 0.9528
-11.8030 0.8522 -2.5014 0.9528
-11.8337 0.0107 -2.5014 0.9528
-11.8266 -0.4103 -2.5014 0.9528
-11.8045 -0.8308 -2.5014 0.9528
-11.5672 -2.4969 -2.5014 0.9528
-4.2559 6.5885 -1.8434 0.9683
-4.5338 6.4990 -1.8623 0.9680
-4.8913 6.5054 -1.9129 0.9671
-5.3272 6.5838 -1.9904 0.9658
-5.7269 6.5842 -2.0509 0.9648
-6.1522 6.5847 -2.1179 0.9636
-7.0954 6.5859 -2.2752 0.9610
-7.7905 6.2613 -2.3490 0.9598
-8.2160 5.6915 -2.3490 0.9598
-8.4133 5.3956 -2.3490 0.9598
-9.3992 4.6978 -2.4696 0.9577
-9.6836 4.4167 -2.5014 0.9572
-9.8346 4.0694 -2.5014 0.9572
-9.9731 3.7169 -2.5014 0.9572
-10.2121 2.9983 -2.5014 0.9572
-10.3124 2.6331 -2.5014 0.9572
-10.3995 2.2646 -2.5014 0.9572
-10.5342 1.5194 -2.5014 0.9572
-10.5816 1.1436 -2.5014 0.9572
-10.6156 0.7665 -2.5014 0.9572
-10.6362 0.3883 -2.5014 0.9572
-10.6432 0.0097 -2.5014 0.9572
-10.6170 -0.7472 -2.5014 0.9572
-10.5837 -1.1244 -2.5014 0.9572
-10.4769 -1.8742 -2.5014 0.9572
-4.2559 6.5883 -2.0308 0.9681
-5.3271 6.5836 -2.1927 0.9656
-5.7268 6.5841 -2.2594 0.9646
-6.1938 6.6291 -2.3490 0.9632
-6.8648 5.9315 -2.3490 0.9632
-7.2693 5.4283 -2.3490 0.9632
-7.4578 5.1663 -2.3490 0.9632
-7.6369 4.8977 -2.3490 0.9632
-7.9564 4.7118 -2.3942 0.9625
-8.4826 4.6239 -2.5014 0.9609
-8.6417 4.3192 -2.5014 0.9609
-8.9270 3.6938 -2.5014 0.9609
-9.1670 3.0497 -2.5014 0.9609
-9.2697 2.7216 -2.5014 0.9609
-9.4397 2.0556 -2.5014 0.9609
-9.5070 1.7185 -2.5014 0.9609
-9.5621 1.3791 -2.5014 0.9609
-9.6610 0.0088 -2.5014 0.9609
-9.6552 -0.3349 -2.5014 0.9609
-9.5646 -1.3618 -2.5014 0.9609
-9.3650 -2.3731 -2.5014 0.9609
-4.2558 6.5882 -2.2203 0.9679
-5.2194 6.4505 -2.3490 0.9661
-6.0816 5.6449 -2.3490 0.9661
-6.2786 5.4249 -2.3490 0.9661
-6.4676 5.1981 -2.3490 0.9661
-8.0393 3.6667 -2.5014 0.9639
-8.2796 3.0858 -2.5014 0.9639
-8.5613 2.1860 -2.5014 0.9639
-8.6951 1.5717 -2.5014 0.9639
-8.7455 1.2614 -2.5014 0.9639
-8.8301 0.3224 -2.5014 0.9639
-8.7865 -0.9335 -2.5014 0.9639
-8.7478 -1.2455 -2.5014 0.9639
-8.6371 -1.8644 -2.5014 0.9639
-4.1440 6.4150 -2.3490 0.9685
-5.4091 5.3913 -2.3490 0.9685
-5.5975 5.1955 -2.3490 0.9685
-5.7788 4.9931 -2.3490 0.9685
-5.9528 4.7843 -2.3490 0.9685
-6.3034 4.7071 -2.4197 0.9676
-6.6852 4.6311 -2.5014 0.9665
-7.1406 3.8924 -2.5014 0.9665
-7.2746 3.6359 -2.5014 0.9665
-7.5147 3.1094 -2.5014 0.9665
-7.6205 2.8401 -2.5014 0.9665
-7.8032 2.2910 -2.5014 0.9665
-7.9463 1.7304 -2.5014 0.9665
-8.0029 1.4466 -2.5014 0.9665
-8.0493 1.1610 -2.5014 0.9665
-8.0855 0.8739 -2.5014 0.9665
-8.1114 0.5857 -2.5014 0.9665
-8.1272 0.2967 -2.5014 0.9665
-8.1326 0.0074 -2.5014 0.9665
-8.1277 -0.2820 -2.5014 0.9665
-8.1125 -0.5709 -2.5014 0.9665
-8.0871 -0.8592 -2.5014 0.9665
-8.0513 -1.1463 -2.5014 0.9665
-8.0055 -1.4321 -2.5014 0.9665
-4.0432 5.7957 -2.3490 0.9707
-4.2468 5.6482 -2.3490 0.9707
-4.8245 5.1636 -2.3490 0.9707
-5.0051 4.9887 -2.3490 0.9707
-5.8403 4.6939 -2.4907 0.9689
-6.0295 4.5025 -2.5014 0.9688
-6.1859 4.2852 -2.5014 0.9688
-6.3344 4.0624 -2.5014 0.9688
-6.4749 3.8345 -2.5014 0.9688
-6.6073 3.6017 -2.5014 0.9688
-6.8466 3.1227 -2.5014 0.9688
-7.0514 2.6280 -2.5014 0.9688
-7.2204 2.1199 -2.5014 0.9688
-7.3528 1.6011 -2.5014 0.9688
-7.4816 0.8086 -2.5014 0.9688
-7.5201 0.2745 -2.5014 0.9688
-7.5251 0.0068 -2.5014 0.9688
-7.5066 -0.5283 -2.5014 0.9688
-7.4831 -0.7950 -2.5014 0.9688
-7.4076 -1.3251 -2.5014 0.9688
-7.3557 -1.5878 -2.5014 0.9688
-3.5642 5.5176 -2.3490 0.9725
-3.9476 5.2502 -2.3490 0.9725
-4.3109 4.9562 -2.3490 0.9725
-5.2928 4.5732 -2.5014 0.9707
-5.4521 4.3820 -2.5014 0.9707
-5.6046 4.1852 -2.5014 0.9707
-5.7499 3.9832 -2.5014 0.9707
-6.0186 3.5642 -2.5014 0.9707
-6.1416 3.3479 -2.5014 0.9707
-6.2569 3.1272 -2.5014 0.9707
-6.4634 2.6744 -2.5014 0.9707
-6.5544 2.4428 -2.5014 0.9707
-6.6372 2.2081 -2.5014 0.9707
-6.7116 1.9705 -2.5014 0.9707
-6.8346 1.4883 -2.5014 0.9707
-6.9232 0.9985 -2.5014 0.9707
-6.9543 0.7516 -2.5014 0.9707
-6.9767 0.5037 -2.5014 0.9707
-6.9902 0.2552 -2.5014 0.9707
-6.9948 0.0063 -2.5014 0.9707
-6.9906 -0.2425 -2.5014 0.9707
-6.9776 -0.4911 -2.5014 0.9707
-6.9557 -0.7390 -2.5014 0.9707
-6.8855 -1.2317 -2.5014 0.9707
-6.8374 -1.4759 -2.5014 0.9707
-6.7805 -1.7182 -2.5014 0.9707
-3.3260 5.1488 -2.3490 0.9741
-3.8557 4.7652 -2.3490 0.9741
-4.0985 4.7120 -2.3932 0.9736
-4.9391 4.2675 -2.5014 0.9724
-5.0878 4.0891 -2.5014 0.9724
-5.2301 3.9055 -2.5014 0.9724
-5.4945 3.5237 -2.5014 0.9724
-5.6164 3.3260 -2.5014 0.9724
-5.8387 2.9182 -2.5014 0.9724
-5.9388 2.7087 -2.5014 0.9724
-6.0314 2.4957 -2.5014 0.9724
-6.1936 2.0605 -2.5014 0.9724
-6.2630 1.8388 -2.5014 0.9724
-6.3245 1.6149 -2.5014 0.9724
-6.3779 1.3888 -2.5014 0.9724
-6.4233 1.1611 -2.5014 0.9724
-6.4605 0.9318 -2.5014 0.9724
-6.4896 0.7014 -2.5014 0.9724
-6.5104 0.4701 -2.5014 0.9724
-6.5230 0.2381 -2.5014 0.9724
-6.5235 -0.2263 -2.5014 0.9724
-6.5113 -0.4582 -2.5014 0.9724
-6.4622 -0.9201 -2.5014 0.9724
-6.3804 -1.3773 -2.5014 0.9724
-6.3274 -1.6034 -2.5014 0.9724
-3.5404 4.7087 -2.4111 0.9749
-4.0111 4.6115 -2.5014 0.9739
-4.6246 3.9958 -2.5014 0.9739
-4.7639 3.8288 -2.5014 0.9739
-4.8971 3.6569 -2.5014 0.9739
-5.0240 3.4803 -2.5014 0.9739
-5.3663 2.9252 -2.5014 0.9739
-5.6474 2.3368 -2.5014 0.9739
-5.7993 1.9293 -2.5014 0.9739
-5.8643 1.7218 -2.5014 0.9739
-5.9218 1.5121 -2.5014 0.9739
-5.9719 1.3004 -2.5014 0.9739
-6.0143 1.0871 -2.5014 0.9739
-6.0959 0.4401 -2.5014 0.9739
-6.0967 -0.4291 -2.5014 0.9739
-6.0508 -0.8615 -2.5014 0.9739
-5.9742 -1.2896 -2.5014 0.9739
-5.9245 -1.5013 -2.5014 0.9739
-3.0382 4.7033 -2.4402 0.9759
-3.2741 4.6933 -2.4940 0.9753
-3.4493 4.5875 -2.5014 0.9753
-3.7668 4.3306 -2.5014 0.9753
-4.2068 3.9046 -2.5014 0.9753
-4.3430 3.7525 -2.5014 0.9753
-4.8314 3.0985 -2.5014 0.9753
-4.9386 2.9246 -2.5014 0.9753
-5.0395 2.7471 -2.5014 0.9753
-5.3782 2.0044 -2.5014 0.9753
-5.4461 1.8118 -2.5014 0.9753
-5.6808 0.8193 -2.5014 0.9753
-5.7063 0.6167 -2.5014 0.9753
-5.7247 0.4133 -2.5014 0.9753
-5.7357 0.2094 -2.5014 0.9753
-5.7361 -0.1990 -2.5014 0.9753
-5.6104 -1.2110 -2.5014 0.9753
-5.5637 -1.4099 -2.5014 0.9753
-3.0919 4.4320 -2.5014 0.9765
-3.2476 4.3192 -2.5014 0.9765
-3.5465 4.0774 -2.5014 0.9765
-4.0890 3.5331 -2.5014 0.9765
-4.4422 3.0773 -2.5014 0.9765
-4.6497 2.7536 -2.5014 0.9765
-4.7448 2.5864 -2.5014 0.9765
-4.8338 2.4160 -2.5014 0.9765
-5.0637 1.8872 -2.5014 0.9765
-5.1276 1.7059 -2.5014 0.9765
-5.1851 1.5224 -2.5014 0.9765
-5.2359 1.3369 -2.5014 0.9765
-5.2802 1.1498 -2.5014 0.9765
-5.3178 0.9612 -2.5014 0.9765
-5.3486 0.7714 -2.5014 0.9765
-5.3727 0.5807 -2.5014 0.9765
-5.3899 0.3892 -2.5014 0.9765
-5.3906 -0.3794 -2.5014 0.9765
-5.2823 -1.1402 -2.5014 0.9765
-3.0646 4.0759 -2.5014 0.9775
-3.2077 3.9643 -2.5014 0.9775
-3.3467 3.8476 -2.5014 0.9775
-3.4814 3.7261 -2.5014 0.9775
-3.6118 3.5999 -2.5014 0.9775
-3.8586 3.3340 -2.5014 0.9775
-3.9748 3.1946 -2.5014 0.9775
-4.1919 2.9039 -2.5014 0.9775
-4.2925 2.7529 -2.5014 0.9775
-4.5614 2.2799 -2.5014 0.9775
-4.6396 2.1161 -2.5014 0.9775
-4.7120 1.9497 -2.5014 0.9775
-4.9409 1.2616 -2.5014 0.9775
-4.9827 1.0850 -2.5014 0.9775
-5.0960 0.1860 -2.5014 0.9775
-5.0995 0.0046 -2.5014 0.9775
-5.0964 -0.1768 -2.5014 0.9775
-5.0869 -0.3580 -2.5014 0.9775
-5.0709 -0.5387 -2.5014 0.9775
-4.9846 -1.0760 -2.5014 0.9775
-2.6163 4.0502 -2.5014 0.9785
-2.8977 3.8539 -2.5014 0.9785
-3.0329 3.7483 -2.5014 0.9785
-3.1644 3.6381 -2.5014 0.9785
-3.2918 3.5232 -2.5014 0.9785
-3.4151 3.4039 -2.5014 0.9785
-3.5340 3.2802 -2.5014 0.9785
-3.6485 3.1524 -2.5014 0.9785
-3.9636 2.7457 -2.5014 0.9785
-4.2335 2.3078 -2.5014 0.9785
-4.3869 2.0009 -2.5014 0.9785
-4.4554 1.8435 -2.5014 0.9785
-4.6718 1.1929 -2.5014 0.9785
-4.7448 0.8577 -2.5014 0.9785
-4.7723 0.6883 -2.5014 0.9785
-4.8092 0.3472 -2.5014 0.9785
-4.8217 0.0044 -2.5014 0.9785
-4.8098 -0.3385 -2.5014 0.9785
-4.7947 -0.5094 -2.5014 0.9785
-4.7736 -0.6797 -2.5014 0.9785
-4.7131 -1.0174 -2.5014 0.9785
-4.6739 -1.1844 -2.5014 0.9785
-2.4781 3.8363 -2.5014 0.9794
-2.6131 3.7457 -2.5014 0.9794
-3.3474 3.1070 -2.5014 0.9794
-3.6594 2.7326 -2.5014 0.9794
-3.7543 2.6007 -2.5014 0.9794
-3.9297 2.3272 -2.5014 0.9794
-4.0852 2.0418 -2.5014 0.9794
-4.3336 1.4417 -2.5014 0.9794
-4.3821 1.2866 -2.5014 0.9794
-4.4251 1.1299 -2.5014 0.9794
-4.4625 0.9717 -2.5014 0.9794
-4.5203 0.6520 -2.5014 0.9794
-4.5406 0.4907 -2.5014 0.9794
-4.5552 0.3289 -2.5014 0.9794
-4.5640 0.1666 -2.5014 0.9794
-4.5415 -0.4825 -2.5014 0.9794
-4.4642 -0.9636 -2.5014 0.9794
-4.4271 -1.1219 -2.5014 0.9794
-2.3509 3.6393 -2.5014 0.9802
-2.6037 3.4629 -2.5014 0.9802
-2.7253 3.3681 -2.5014 0.9802
-2.8434 3.2690 -2.5014 0.9802
-2.9579 3.1658 -2.5014 0.9802
-3.1755 2.9474 -2.5014 0.9802
-3.3770 2.7142 -2.5014 0.9802
-3.4715 2.5923 -2.5014 0.9802
-3.6470 2.3389 -2.5014 0.9802
-3.7279 2.2077 -2.5014 0.9802
-3.8041 2.0736 -2.5014 0.9802
-3.9418 1.7979 -2.5014 0.9802
-4.0034 1.6565 -2.5014 0.9802
-4.1979 1.0719 -2.5014 0.9802
-4.2882 0.6185 -2.5014 0.9802
-4.3213 0.3120 -2.5014 0.9802
-4.3297 0.1581 -2.5014 0.9802
-4.3299 -0.1502 -2.5014 0.9802
-4.3219 -0.3042 -2.5014 0.9802
-4.3083 -0.4577 -2.5014 0.9802
-4.2893 -0.6107 -2.5014 0.9802
-4.2350 -0.9142 -2.5014 0.9802
-4.1998 -1.0643 -2.5014 0.9802
