ply
format ascii 1.0
element vertex 545
property float32 x
property float32 y
property float32 z
property float32 I
end_header
3.4435 7.6933 1.4862 0.9663
0.8819 32.3929 5.7139 0.8767
-1.2717 28.6560 5.0578 0.8900
-5.3137 28.0086 5.0268 0.8907
-5.7512 25.3288 4.5798 0.8999
-8.7801 25.5812 4.7689 0.8960
-14.6409 22.2924 4.7027 0.8973
-15.1621 21.3780 4.6213 0.8990
-1.2032 27.1108 4.1573 0.8960
-4.3320 28.3362 4.3914 0.8905
-4.9718 26.2063 4.0863 0.8977
-7.5528 24.8700 3.9818 0.9002
-13.0101 25.3752 4.3685 0.8910
-14.2550 25.5116 4.4770 0.8885
-14.1646 23.3470 4.1834 0.8954
-15.1622 21.3781 4.0151 0.8994
0.9304 34.1757 4.4520 0.8712
-0.2879 33.6018 4.3758 0.8732
-2.2796 28.3865 3.7084 0.8915
-3.2298 27.7372 3.6364 0.8935
-4.2471 27.7809 3.6597 0.8928
-5.5025 24.2336 3.2360 0.9046
-8.3656 24.3736 3.3557 0.9013
-9.3751 24.4308 3.4076 0.8998
-10.4234 24.5036 3.4676 0.8982
-15.1624 21.3783 3.4130 0.8997
-16.1456 21.1205 3.4619 0.8983
3.4420 7.6902 0.9047 0.9667
-0.2841 33.1613 3.5610 0.8751
-2.2523 28.0461 3.0213 0.8930
-3.2342 27.7754 3.0027 0.8936
-4.3179 28.2440 3.0681 0.8914
-5.1360 27.0722 2.9589 0.8951
-9.1683 23.8920 2.7480 0.9022
-11.2407 24.0026 2.8461 0.8989
-14.0294 21.3613 2.7443 0.9023
-16.3561 21.3958 2.8919 0.8973
-0.2695 31.4532 2.6627 0.8814
-1.4266 32.1459 2.7239 0.8788
-3.2387 27.8135 2.3704 0.8937
-6.5254 34.3955 2.9636 0.8689
-5.4202 23.8713 2.0722 0.9064
-7.1872 23.6662 2.0938 0.9055
-12.1720 23.7407 2.2585 0.8984
-12.7773 22.8670 2.2174 0.9002
-13.0125 21.4479 2.1237 0.9042
-14.0070 21.3272 2.1600 0.9026
-15.1627 21.3788 2.2187 0.9001
-35.3472 29.9788 3.9235 0.8302
3.4411 7.6881 0.5223 0.9668
-2.5767 32.0855 1.9960 0.8790
-4.5679 29.8793 1.8744 0.8859
-6.5402 34.4734 2.1758 0.8688
-6.0817 22.9489 1.4722 0.9092
-7.0176 23.1076 1.4975 0.9078
-7.9981 23.3030 1.5278 0.9060
-10.0663 23.6642 1.5947 0.9021
-11.1106 23.7248 1.6245 0.9003
-12.1720 23.7407 1.6544 0.8986
-14.0070 21.3272 1.5822 0.9028
-15.1381 21.3441 1.6226 0.9004
3.4406 7.6870 0.3321 0.9668
-5.4202 23.8713 0.9652 0.9067
-6.0360 22.7765 0.9291 0.9100
-7.1323 20.7802 0.8663 0.9158
-7.9986 20.8437 0.8803 0.9145
-10.8076 21.0794 0.9341 0.9095
-14.0070 21.3272 1.0061 0.9029
-15.1381 21.3441 1.0318 0.9005
-16.3564 21.3964 1.0620 0.8978
-18.2827 22.2210 1.1346 0.8912
-30.0981 29.4770 1.6612 0.8448
-30.0288 27.3743 1.6022 0.8499
-29.9678 25.4164 1.5494 0.8544
3.4402 7.6860 0.1422 0.9669
0.8799 6.4993 0.1108 0.9741
0.6442 6.4996 0.1103 0.9742
-6.1702 20.3172 0.3587 0.9186
-7.8150 20.3654 0.3685 0.9164
-8.6685 20.3781 0.3741 0.9152
-11.4095 20.4191 0.3951 0.9107
-4.3359 6.6020 0.1334 0.9689
-4.6103 6.5004 0.1346 0.9686
-18.7339 22.7694 0.4981 0.8887
-21.6849 22.8135 0.5317 0.8817
-28.4320 27.8452 0.6722 0.8528
3.4397 7.6850 -0.0474 0.9669
0.8799 6.4992 -0.0369 0.9741
0.6442 6.4995 -0.0368 0.9742
0.1793 6.5839 -0.0371 0.9740
-0.5288 6.5848 -0.0372 0.9739
-0.7668 6.5851 -0.0373 0.9738
-1.2494 6.5857 -0.0377 0.9735
-1.4954 6.5860 -0.0380 0.9733
-2.2608 6.5870 -0.0392 0.9725
-2.8022 6.5877 -0.0403 0.9718
-3.3779 6.5885 -0.0417 0.9708
-4.3278 6.5897 -0.0444 0.9690
-7.2261 6.5874 -0.0551 0.9616
3.4392 7.6839 -0.2370 0.9669
0.4153 6.5835 -0.1857 0.9739
0.1793 6.5838 -0.1855 0.9740
-0.0564 6.5841 -0.1854 0.9740
-0.2922 6.5844 -0.1856 0.9740
-0.7667 6.5850 -0.1867 0.9738
-1.0067 6.5853 -0.1876 0.9737
-1.2494 6.5856 -0.1887 0.9735
-1.4954 6.5859 -0.1902 0.9733
-1.7454 6.5863 -0.1919 0.9731
-2.2608 6.5869 -0.1961 0.9725
-2.5277 6.5873 -0.1987 0.9722
-3.0852 6.5880 -0.2048 0.9713
-3.9976 6.5892 -0.2170 0.9696
-4.3278 6.5896 -0.2220 0.9689
-5.0335 6.5845 -0.2334 0.9674
-6.7254 6.5867 -0.2651 0.9630
-7.2260 6.5873 -0.2753 0.9616
16.8602 46.2924 -2.4985 0.8209
11.7733 47.7120 -2.4923 0.8213
10.0510 48.0653 -2.4903 0.8215
8.3188 48.3582 -2.4885 0.8216
0.4153 6.5834 -0.3345 0.9739
-0.2922 6.5843 -0.3342 0.9739
-0.5288 6.5846 -0.3350 0.9739
-0.7667 6.5849 -0.3362 0.9738
-1.0067 6.5852 -0.3378 0.9737
-1.2494 6.5855 -0.3399 0.9735
-2.8021 6.5875 -0.3630 0.9717
-3.0851 6.5879 -0.3689 0.9713
-3.3778 6.5883 -0.3755 0.9708
-3.6814 6.5886 -0.3828 0.9702
-4.6100 6.5000 -0.4041 0.9686
-5.0334 6.5844 -0.4203 0.9674
-5.4177 6.5849 -0.4324 0.9664
-6.2600 6.5859 -0.4608 0.9643
-7.2258 6.5872 -0.4959 0.9616
-7.7675 6.5878 -0.5165 0.9600
12.8158 31.6210 -2.5017 0.8721
11.6764 32.0593 -2.5017 0.8721
9.3540 32.8122 -2.5017 0.8721
6.9837 33.3971 -2.5017 0.8721
0.8799 6.4989 -0.4809 0.9740
0.6442 6.4992 -0.4789 0.9741
0.4153 6.5833 -0.4837 0.9739
0.1793 6.5836 -0.4829 0.9739
-0.0564 6.5839 -0.4828 0.9739
-0.2922 6.5842 -0.4832 0.9739
-1.2493 6.5854 -0.4915 0.9735
-1.4953 6.5857 -0.4952 0.9733
-2.5277 6.5871 -0.5173 0.9721
-2.8021 6.5874 -0.5249 0.9717
-3.3777 6.5881 -0.5428 0.9707
-3.9975 6.5889 -0.5651 0.9696
-4.6100 6.4999 -0.5843 0.9685
-5.0333 6.5843 -0.6077 0.9673
-5.4176 6.5847 -0.6252 0.9664
-5.8254 6.5853 -0.6447 0.9654
8.9176 24.4847 -2.5017 0.9006
5.0088 23.9526 -2.3493 0.9063
4.1490 24.1184 -2.3495 0.9063
-0.0564 6.5838 -0.6321 0.9739
-0.2922 6.5841 -0.6327 0.9739
-1.0067 6.5850 -0.6395 0.9736
-1.7453 6.5860 -0.6541 0.9730
-2.8021 6.5873 -0.6872 0.9716
-3.0850 6.5877 -0.6984 0.9712
-3.3777 6.5880 -0.7108 0.9707
-4.3275 6.5892 -0.7568 0.9688
-5.4175 6.5846 -0.8186 0.9663
-6.7249 6.5863 -0.9037 0.9629
3.4374 7.6798 -0.9995 0.9667
5.4222 19.0199 -2.3493 0.9234
0.8799 6.4987 -0.7790 0.9739
0.6441 6.4990 -0.7758 0.9740
0.4153 6.5831 -0.7835 0.9738
-0.0564 6.5837 -0.7821 0.9738
-0.2922 6.5840 -0.7828 0.9738
-0.7667 6.5846 -0.7874 0.9737
-1.0067 6.5849 -0.7913 0.9735
-2.0001 6.5862 -0.8176 0.9727
-2.5276 6.5869 -0.8380 0.9720
-2.8020 6.5872 -0.8503 0.9716
-3.6813 6.5883 -0.8965 0.9701
-4.6098 6.4997 -0.9465 0.9684
-6.2596 6.5855 -1.0793 0.9641
-7.2254 6.5867 -1.1614 0.9614
3.4369 7.6787 -1.1920 0.9666
6.2280 15.3666 -2.3493 0.9352
5.1133 15.7726 -2.3493 0.9352
0.6441 6.4989 -0.9253 0.9740
0.4153 6.5830 -0.9346 0.9737
0.1793 6.5833 -0.9331 0.9737
-0.0564 6.5836 -0.9328 0.9738
-0.2922 6.5839 -0.9338 0.9737
-0.7667 6.5845 -0.9392 0.9736
-1.0067 6.5848 -0.9438 0.9734
-1.4953 6.5854 -0.9568 0.9731
-1.7453 6.5858 -0.9653 0.9729
-2.0001 6.5861 -0.9753 0.9726
-2.5276 6.5868 -0.9996 0.9719
-2.8020 6.5871 -1.0142 0.9715
-3.0849 6.5875 -1.0306 0.9710
-3.3776 6.5878 -1.0489 0.9705
-3.9973 6.5886 -1.0919 0.9693
-5.0330 6.5839 -1.1742 0.9671
-5.8251 6.5849 -1.2457 0.9651
-6.2595 6.5854 -1.2873 0.9640
-6.7247 6.5860 -1.3337 0.9627
-7.2252 6.5866 -1.3853 0.9613
3.4364 7.6776 -1.3857 0.9665
5.3566 13.2165 -2.3493 0.9438
3.4217 13.8663 -2.3528 0.9437
2.4221 14.0802 -2.3536 0.9437
0.6441 6.4988 -1.0758 0.9739
0.1793 6.5832 -1.0849 0.9737
-0.0564 6.5835 -1.0846 0.9737
-0.2922 6.5838 -1.0857 0.9736
-1.0066 6.5847 -1.0974 0.9734
-1.2493 6.5850 -1.1042 0.9732
-2.5275 6.5867 -1.1622 0.9718
-3.6811 6.5881 -1.2432 0.9699
-5.0329 6.5838 -1.3652 0.9670
-6.2594 6.5853 -1.4967 0.9638
-6.7245 6.5858 -1.5506 0.9626
-7.7666 6.5871 -1.6777 0.9596
3.4103 7.6192 -1.5690 0.9666
3.1625 7.8029 -1.5825 0.9663
3.8578 11.8998 -2.3513 0.9504
3.4301 12.0321 -2.3517 0.9504
2.5617 12.2502 -2.3524 0.9503
0.8798 6.4984 -1.2326 0.9737
0.6441 6.4987 -1.2275 0.9738
-0.2922 6.5837 -1.2387 0.9735
-0.5287 6.5840 -1.2415 0.9735
-2.0000 6.5859 -1.2937 0.9724
-3.6811 6.5880 -1.4185 0.9698
-3.9971 6.5884 -1.4484 0.9691
-4.3272 6.5888 -1.4816 0.9684
-5.0328 6.5836 -1.5576 0.9668
-5.8248 6.5846 -1.6524 0.9649
-6.2593 6.5851 -1.7077 0.9637
-6.7244 6.5857 -1.7691 0.9624
-7.2249 6.5863 -1.8376 0.9610
3.0492 10.6962 -2.3510 0.9555
2.2772 10.8898 -2.3517 0.9555
1.8863 10.9653 -2.3519 0.9555
0.6441 6.4986 -1.3804 0.9737
0.4153 6.5827 -1.3942 0.9734
0.1792 6.5830 -1.3920 0.9734
-0.0564 6.5833 -1.3916 0.9734
-0.2922 6.5836 -1.3930 0.9734
-1.0066 6.5845 -1.4080 0.9731
-1.2492 6.5848 -1.4167 0.9730
-1.4952 6.5851 -1.4274 0.9728
-2.5274 6.5864 -1.4912 0.9716
-2.8019 6.5868 -1.5130 0.9712
-3.0848 6.5871 -1.5375 0.9707
-3.3774 6.5875 -1.5648 0.9702
-3.6810 6.5879 -1.5952 0.9696
-3.9971 6.5883 -1.6289 0.9690
-4.3271 6.5887 -1.6662 0.9683
-5.0327 6.5835 -1.7517 0.9667
-5.4170 6.5840 -1.8022 0.9657
-6.2591 6.5850 -1.9204 0.9635
-6.7243 6.5856 -1.9895 0.9623
-7.2247 6.5862 -2.0665 0.9608
-7.7662 6.5868 -2.1525 0.9592
3.4219 9.3952 -2.3500 0.9597
3.0839 9.5128 -2.3503 0.9597
2.7419 9.6182 -2.3506 0.9597
2.3964 9.7113 -2.3508 0.9597
0.6441 6.4985 -1.5348 0.9735
0.4153 6.5826 -1.5501 0.9733
-0.0564 6.5832 -1.5472 0.9733
-0.2922 6.5835 -1.5488 0.9733
-1.7452 6.5854 -1.6011 0.9724
-2.0000 6.5857 -1.6176 0.9721
-2.5274 6.5863 -1.6580 0.9714
-3.0847 6.5870 -1.7094 0.9706
-3.6810 6.5878 -1.7736 0.9695
-4.3271 6.5885 -1.8525 0.9681
-5.4169 6.5839 -2.0038 0.9656
-6.2590 6.5849 -2.1352 0.9634
-6.7241 6.5854 -2.2120 0.9621
-7.2246 6.5860 -2.2976 0.9606
-7.6235 6.4656 -2.3493 0.9598
3.3516 7.4882 -2.1242 0.9667
3.1159 7.6880 -2.1478 0.9663
3.1056 8.5268 -2.3496 0.9632
2.7989 8.6334 -2.3499 0.9632
1.8583 8.8862 -2.3506 0.9632
1.5391 8.9468 -2.3505 0.9632
0.8798 6.4981 -1.6978 0.9733
0.6441 6.4984 -1.6908 0.9734
0.4153 6.5825 -1.7077 0.9731
0.1792 6.5828 -1.7050 0.9732
-0.0564 6.5831 -1.7045 0.9732
-0.2922 6.5834 -1.7062 0.9731
-0.7666 6.5840 -1.7162 0.9730
-1.0066 6.5843 -1.7246 0.9729
-2.0000 6.5856 -1.7820 0.9720
-2.2604 6.5859 -1.8028 0.9716
-2.5273 6.5862 -1.8265 0.9713
-3.3773 6.5873 -1.9166 0.9699
-3.6809 6.5876 -1.9538 0.9693
-3.9969 6.5880 -1.9951 0.9687
-4.3270 6.5884 -2.0408 0.9680
-4.6093 6.4990 -2.0629 0.9676
-5.8245 6.5842 -2.2761 0.9643
-6.2512 6.5766 -2.3493 0.9632
0.8798 6.4980 -1.8563 0.9731
-0.5287 6.5836 -1.8698 0.9729
-0.7666 6.5839 -1.8764 0.9728
-1.0066 6.5842 -1.8856 0.9727
-1.2492 6.5845 -1.8973 0.9725
-1.4951 6.5848 -1.9116 0.9723
-1.9999 6.5855 -1.9484 0.9718
-2.2604 6.5858 -1.9711 0.9715
-2.5273 6.5861 -1.9970 0.9711
-3.6808 6.5875 -2.1362 0.9691
-3.9969 6.5879 -2.1814 0.9685
-4.6092 6.4989 -2.2555 0.9674
-5.0400 6.5930 -2.3493 0.9661
-5.2726 6.4084 -2.3493 0.9661
-5.4985 6.2157 -2.3493 0.9661
-5.7174 6.0150 -2.3493 0.9661
-6.1329 5.5908 -2.3493 0.9661
-6.3290 5.3678 -2.3493 0.9661
2.6139 7.1769 -2.3493 0.9685
0.8798 6.4979 -2.0168 0.9729
0.6440 6.4982 -2.0085 0.9730
0.4153 6.5823 -2.0286 0.9728
-0.0564 6.5829 -2.0248 0.9728
-0.5287 6.5835 -2.0314 0.9727
-1.4951 6.5847 -2.0769 0.9721
-1.9999 6.5854 -2.1168 0.9716
-2.2603 6.5857 -2.1416 0.9713
-2.5273 6.5860 -2.1697 0.9709
-3.3772 6.5870 -2.2768 0.9695
-3.7257 6.6678 -2.3493 0.9685
-4.4187 6.2302 -2.3493 0.9685
-4.6388 6.0681 -2.3493 0.9685
-4.8529 5.8983 -2.3493 0.9685
-5.2622 5.5362 -2.3493 0.9685
-5.4569 5.3443 -2.3493 0.9685
-5.8251 4.9404 -2.3493 0.9685
2.8874 6.4509 -2.3493 0.9706
2.6547 6.5501 -2.3493 0.9706
2.4187 6.6409 -2.3493 0.9706
1.9376 6.7967 -2.3493 0.9706
0.8797 6.4978 -2.1796 0.9727
0.1792 6.5825 -2.1888 0.9726
-0.0564 6.5828 -2.1882 0.9726
-0.5287 6.5834 -2.1954 0.9725
-0.7666 6.5837 -2.2032 0.9724
-1.0065 6.5840 -2.2140 0.9723
-1.2491 6.5843 -2.2277 0.9721
-1.4951 6.5846 -2.2445 0.9719
-2.2944 6.6848 -2.3493 0.9706
-2.7665 6.5036 -2.3493 0.9706
-2.9974 6.4005 -2.3493 0.9706
-3.6660 6.0425 -2.3493 0.9706
-5.0494 4.9452 -2.3493 0.9706
-5.2230 4.7614 -2.3493 0.9706
-5.5502 4.7072 -2.4191 0.9698
2.6839 5.9963 -2.3493 0.9725
2.0260 6.2493 -2.3493 0.9725
1.8011 6.3178 -2.3493 0.9725
1.1137 6.4744 -2.3493 0.9725
0.6480 6.5375 -2.3493 0.9725
0.1788 6.5671 -2.3493 0.9725
-0.0562 6.5693 -2.3493 0.9725
-0.2912 6.5631 -2.3493 0.9725
-0.5258 6.5484 -2.3493 0.9725
-0.7598 6.5254 -2.3493 0.9725
-1.2245 6.4544 -2.3493 0.9725
-2.3536 6.1334 -2.3493 0.9725
-2.5715 6.0453 -2.3493 0.9725
-3.4076 5.6166 -2.3493 0.9725
-3.9898 5.2192 -2.3493 0.9725
-4.1740 5.0731 -2.3493 0.9725
-4.5260 4.7617 -2.3493 0.9725
2.5045 5.5956 -2.3493 0.9741
2.0980 5.7603 -2.3493 0.9741
0.1668 6.1282 -2.3493 0.9741
-0.0525 6.1303 -2.3493 0.9741
-0.2718 6.1245 -2.3493 0.9741
-0.7090 6.0893 -2.3493 0.9741
-0.9264 6.0601 -2.3493 0.9741
-1.7814 5.8659 -2.3493 0.9741
-1.9901 5.7985 -2.3493 0.9741
-2.1963 5.7235 -2.3493 0.9741
-2.3997 5.6413 -2.3493 0.9741
-3.1799 5.2413 -2.3493 0.9741
-3.5465 5.0005 -2.3493 0.9741
-3.7231 4.8704 -2.3493 0.9741
-3.8950 4.7341 -2.3493 0.9741
-4.4632 4.6955 -2.4826 0.9726
-4.6640 4.5677 -2.5017 0.9724
2.1561 5.3199 -2.3493 0.9755
1.9644 5.3936 -2.3493 0.9755
1.7702 5.4604 -2.3493 0.9755
1.5737 5.5202 -2.3493 0.9755
1.3752 5.5730 -2.3493 0.9755
1.1750 5.6186 -2.3493 0.9755
0.9732 5.6571 -2.3493 0.9755
0.7702 5.6883 -2.3493 0.9755
0.5661 5.7122 -2.3493 0.9755
0.3614 5.7288 -2.3493 0.9755
-0.2545 5.7345 -2.3493 0.9755
-0.4595 5.7218 -2.3493 0.9755
-1.2710 5.5977 -2.3493 0.9755
-2.7999 5.0110 -2.3493 0.9755
-3.1511 4.7979 -2.3493 0.9755
-3.3454 4.7169 -2.3668 0.9753
-3.5977 4.7062 -2.4245 0.9747
-3.8624 4.6945 -2.4881 0.9741
-4.0500 4.5783 -2.5017 0.9739
2.2023 4.9202 -2.3493 0.9768
1.8448 5.0651 -2.3493 0.9768
1.4779 5.1841 -2.3493 0.9768
1.2915 5.2336 -2.3493 0.9768
0.7232 5.3419 -2.3493 0.9768
0.3394 5.3799 -2.3493 0.9768
-0.2390 5.3853 -2.3493 0.9768
-1.1936 5.2568 -2.3493 0.9768
-1.7500 5.0986 -2.3493 0.9768
-2.2862 4.8818 -2.3493 0.9768
-3.3208 4.6822 -2.5017 0.9753
-3.4862 4.5604 -2.5017 0.9753
-3.6471 4.4328 -2.5017 0.9753
-3.8034 4.2994 -2.5017 0.9753
-3.9547 4.1606 -2.5017 0.9753
-4.3778 3.7129 -2.5017 0.9753
1.9142 4.7230 -2.3589 0.9778
1.0389 4.9679 -2.3493 0.9779
0.8605 5.0019 -2.3493 0.9779
0.6810 5.0295 -2.3493 0.9779
0.5006 5.0506 -2.3493 0.9779
0.3196 5.0653 -2.3493 0.9779
0.1382 5.0735 -2.3493 0.9779
-0.0435 5.0752 -2.3493 0.9779
-0.4063 5.0591 -2.3493 0.9779
-0.7670 5.0171 -2.3493 0.9779
-0.9460 4.9864 -2.3493 0.9779
-1.6476 4.8005 -2.3493 0.9779
-1.8183 4.7385 -2.3493 0.9779
-2.0059 4.7159 -2.3722 0.9777
-2.2054 4.7095 -2.4071 0.9773
-2.6230 4.6943 -2.4891 0.9766
-2.9669 4.5174 -2.5017 0.9765
-3.2823 4.2937 -2.5017 0.9765
-3.9941 3.6410 -2.5017 0.9765
-4.1218 3.4958 -2.5017 0.9765
2.0836 4.6551 -2.5017 0.9775
1.5256 4.7059 -2.4266 0.9782
1.3429 4.7103 -2.4026 0.9784
1.1633 4.7142 -2.3818 0.9786
0.9865 4.7174 -2.3641 0.9788
0.6426 4.7461 -2.3493 0.9789
0.4724 4.7660 -2.3493 0.9789
0.1304 4.7876 -2.3493 0.9789
-0.0410 4.7892 -2.3493 0.9789
-0.5539 4.7573 -2.3493 0.9789
-1.0707 4.7159 -2.3722 0.9787
-1.4298 4.7083 -2.4137 0.9783
-1.6143 4.7035 -2.4393 0.9781
-1.8028 4.6981 -2.4684 0.9778
-1.9959 4.6921 -2.5011 0.9775
-2.4877 4.4522 -2.5017 0.9775
-2.6454 4.3603 -2.5017 0.9775
-3.2404 3.9384 -2.5017 0.9775
-3.5137 3.6966 -2.5017 0.9775
-3.6437 3.5685 -2.5017 0.9775
-3.8895 3.2988 -2.5017 0.9775
1.8114 4.4692 -2.5017 0.9785
1.3221 4.6375 -2.5017 0.9785
1.1554 4.6819 -2.5017 0.9785
0.6363 4.6996 -2.4603 0.9789
0.4660 4.7014 -2.4509 0.9789
0.2967 4.7026 -2.4444 0.9790
0.1281 4.7032 -2.4408 0.9790
-0.0402 4.7034 -2.4401 0.9790
-0.2087 4.7030 -2.4422 0.9790
-0.5473 4.7006 -2.4550 0.9789
-0.7183 4.6986 -2.4658 0.9788
-0.8909 4.6960 -2.4797 0.9787
-1.4013 4.6142 -2.5017 0.9785
-1.5655 4.5611 -2.5017 0.9785
-1.7276 4.5022 -2.5017 0.9785
-1.8876 4.4375 -2.5017 0.9785
-2.2001 4.2912 -2.5017 0.9785
-2.3522 4.2097 -2.5017 0.9785
-2.6472 4.0307 -2.5017 0.9785
-3.0638 3.7239 -2.5017 0.9785
-3.1951 3.6119 -2.5017 0.9785
-3.4452 3.3741 -2.5017 0.9785
-3.5637 3.2487 -2.5017 0.9785
-3.6777 3.1191 -2.5017 0.9785
1.8661 4.1691 -2.5017 0.9794
1.7157 4.2332 -2.5017 0.9794
1.5632 4.2918 -2.5017 0.9794
1.4086 4.3450 -2.5017 0.9794
1.2523 4.3926 -2.5017 0.9794
0.9349 4.4709 -2.5017 0.9794
0.6128 4.5263 -2.5017 0.9794
0.4505 4.5454 -2.5017 0.9794
0.2876 4.5586 -2.5017 0.9794
0.1243 4.5659 -2.5017 0.9794
-0.0391 4.5675 -2.5017 0.9794
-0.2025 4.5631 -2.5017 0.9794
-0.3656 4.5530 -2.5017 0.9794
-0.6903 4.5152 -2.5017 0.9794
-0.8513 4.4876 -2.5017 0.9794
-1.4828 4.3203 -2.5017 0.9794
-1.6364 4.2644 -2.5017 0.9794
-1.7879 4.2032 -2.5017 0.9794
-1.9372 4.1365 -2.5017 0.9794
-2.2280 3.9874 -2.5017 0.9794
-2.3692 3.9051 -2.5017 0.9794
-2.5074 3.8179 -2.5017 0.9794
-2.7740 3.6288 -2.5017 0.9794
-2.9021 3.5272 -2.5017 0.9794
-3.2633 3.1960 -2.5017 0.9794
1.6276 4.0158 -2.5017 0.9802
1.4829 4.0715 -2.5017 0.9802
1.3363 4.1219 -2.5017 0.9802
1.0381 4.2069 -2.5017 0.9802
0.8869 4.2414 -2.5017 0.9802
0.5814 4.2939 -2.5017 0.9802
0.1179 4.3315 -2.5017 0.9802
-0.5012 4.3040 -2.5017 0.9802
-1.1100 4.1885 -2.5017 0.9802
-1.2591 4.1461 -2.5017 0.9802
-1.4067 4.0984 -2.5017 0.9802
-1.5524 4.0455 -2.5017 0.9802
-1.8377 3.9241 -2.5017 0.9802
-1.9769 3.8558 -2.5017 0.9802
-2.1136 3.7826 -2.5017 0.9802
-2.3787 3.6218 -2.5017 0.9802
-2.5067 3.5344 -2.5017 0.9802
-2.7530 3.3461 -2.5017 0.9802
-2.8710 3.2455 -2.5017 0.9802
-3.2022 2.9192 -2.5017 0.9802
-3.3046 2.8027 -2.5017 0.9802
