ply
format ascii 1.0
element vertex 481
property float32 x
property float32 y
property float32 z
property float32 I
end_header
44.1844 -18.7371 8.4625 0.8229
45.1988 -13.6912 8.3274 0.8255
46.7322 -8.8504 8.3866 0.8243
47.1977 -0.4206 8.3226 0.8255
47.2100 1.2627 8.3274 0.8255
46.8055 6.2952 8.3274 0.8255
47.6639 8.1498 8.5264 0.8217
45.9013 13.0155 8.4127 0.8238
44.7338 18.0364 8.5048 0.8221
47.1420 -12.4637 7.4700 0.8209
47.1679 -10.6874 7.4090 0.8222
47.1935 -8.9378 7.3583 0.8234
47.2188 -7.2098 7.3175 0.8242
47.3195 -0.4217 7.2494 0.8257
47.3448 1.2663 7.2556 0.8256
47.5026 11.6574 7.4931 0.8204
45.7547 14.7550 7.3648 0.8232
46.3286 14.9401 6.3389 0.8217
42.4600 -25.6650 5.3276 0.8191
46.3286 14.9401 3.0185 0.8228
42.4600 -25.6650 1.9563 0.8199
42.4600 -25.6650 0.8381 0.8200
42.4600 -25.6650 -0.2793 0.8200
38.5073 -8.7251 -0.2223 0.8539
42.4600 -25.6650 -1.3970 0.8199
38.4103 -16.2885 -1.1748 0.8462
38.4239 -14.7014 -1.1584 0.8482
38.4372 -13.1561 -1.1439 0.8500
38.4501 -11.6469 -1.1313 0.8515
38.4876 -7.2890 -1.1030 0.8549
38.4997 -5.8785 -1.0966 0.8557
38.5117 -4.4823 -1.0917 0.8563
38.4970 -3.0947 -1.0875 0.8568
38.5473 -0.3435 -1.0855 0.8571
38.5592 1.0313 -1.0861 0.8570
38.5829 3.7950 -1.0916 0.8563
38.6070 6.6012 -1.1029 0.8549
38.6193 8.0297 -1.1107 0.8540
38.6843 15.5973 -1.1745 0.8463
38.6984 17.2309 -1.1928 0.8441
38.7279 20.6675 -1.2361 0.8389
38.7770 26.3677 -1.3204 0.8289
39.6454 -23.9637 -2.3493 0.8307
38.4103 -16.2885 -2.1159 0.8461
38.4372 -13.1561 -2.0603 0.8498
38.4501 -11.6469 -2.0375 0.8514
38.3909 -8.6987 -1.9964 0.8541
38.4876 -7.2890 -1.9866 0.8548
38.4997 -5.8785 -1.9751 0.8556
38.5117 -4.4823 -1.9663 0.8562
38.5473 -0.3435 -1.9550 0.8569
38.5949 5.1909 -1.9749 0.8556
38.6843 15.5973 -2.1153 0.8462
38.7279 20.6675 -2.2262 0.8388
38.7436 22.4857 -2.2718 0.8358
38.7599 24.3823 -2.3223 0.8324
37.3550 27.3975 -2.3493 0.8307
35.3082 29.9892 -2.3493 0.8307
34.2168 31.2286 -2.3493 0.8307
33.0819 32.4284 -2.3493 0.8307
31.9050 33.5870 -2.3493 0.8307
29.8107 -16.5980 -2.5017 0.8721
30.1197 -14.0596 -2.4372 0.8752
30.1148 -12.7706 -2.3984 0.8770
30.1101 -11.5205 -2.3638 0.8787
30.3149 -10.3760 -2.3493 0.8794
31.8266 -3.7042 -2.3493 0.8794
31.9384 -2.5674 -2.3493 0.8794
32.0096 -1.4274 -2.3493 0.8794
32.0402 -0.2855 -2.3493 0.8794
32.0300 0.8567 -2.3493 0.8794
31.9791 1.9978 -2.3493 0.8794
31.7555 4.2710 -2.3493 0.8794
31.5830 5.4002 -2.3493 0.8794
31.1181 7.6366 -2.3493 0.8794
29.8898 12.0514 -2.3630 0.8787
29.8705 13.3002 -2.3975 0.8771
29.5100 17.1268 -2.5017 0.8721
28.2149 19.1856 -2.5017 0.8721
26.7763 21.1470 -2.5017 0.8721
23.4991 24.7379 -2.5017 0.8721
22.6023 25.5598 -2.5017 0.8721
22.3011 -13.4799 -2.5017 0.9006
23.2048 -11.8568 -2.5017 0.9006
24.6543 -8.4385 -2.5017 0.9006
25.4143 -5.7584 -2.5017 0.9006
25.6034 -4.8489 -2.5017 0.9006
25.7600 -3.9332 -2.5017 0.9006
25.8838 -3.0125 -2.5017 0.9006
26.0326 -1.1609 -2.5017 0.9006
26.0575 -0.2322 -2.5017 0.9006
26.0492 0.6967 -2.5017 0.9006
26.0078 1.6248 -2.5017 0.9006
25.9333 2.5508 -2.5017 0.9006
25.8259 3.4735 -2.5017 0.9006
25.6857 4.3918 -2.5017 0.9006
25.5129 5.3046 -2.5017 0.9006
25.0701 7.1087 -2.5017 0.9006
24.1680 9.7444 -2.5017 0.9006
22.9897 12.2686 -2.5017 0.9006
22.0572 13.8753 -2.5017 0.9006
21.5486 14.6527 -2.5017 0.9006
20.4500 16.1506 -2.5017 0.9006
19.2474 17.5665 -2.5017 0.9006
17.9470 18.8931 -2.5017 0.9006
18.0241 -10.8947 -2.5017 0.9187
19.3896 -8.2224 -2.5017 0.9187
19.6704 -7.5261 -2.5017 0.9187
20.8197 -3.1789 -2.5017 0.9187
20.9198 -2.4348 -2.5017 0.9187
20.9933 -1.6876 -2.5017 0.9187
21.0602 -0.1877 -2.5017 0.9187
21.0200 1.3132 -2.5017 0.9187
20.9598 2.0616 -2.5017 0.9187
20.8730 2.8074 -2.5017 0.9187
20.7597 3.5496 -2.5017 0.9187
20.4540 5.0195 -2.5017 0.9187
20.0445 6.4640 -2.5017 0.9187
18.5807 9.9157 -2.5017 0.9187
17.8271 11.2143 -2.5017 0.9187
17.4160 11.8426 -2.5017 0.9187
16.9828 12.4558 -2.5017 0.9187
16.5281 13.0533 -2.5017 0.9187
15.5561 14.1976 -2.5017 0.9187
15.0402 14.7430 -2.5017 0.9187
14.5051 15.2698 -2.5017 0.9187
15.1106 -9.1336 -2.5017 0.9312
15.4266 -8.5892 -2.5017 0.9312
15.7229 -8.0339 -2.5017 0.9312
15.9993 -7.4683 -2.5017 0.9312
16.2553 -6.8933 -2.5017 0.9312
17.2201 -3.9018 -2.5017 0.9312
17.6390 -0.7866 -2.5017 0.9312
17.2869 3.5943 -2.5017 0.9312
17.1478 4.2082 -2.5017 0.9312
16.8044 5.4191 -2.5017 0.9312
16.3756 6.6025 -2.5017 0.9312
15.5772 8.3129 -2.5017 0.9312
14.9454 9.4015 -2.5017 0.9312
13.4575 11.4302 -2.5017 0.9312
13.0415 11.9026 -2.5017 0.9312
11.6618 13.1876 -2.4943 0.9313
12.9964 -7.8557 -2.5017 0.9403
13.5230 -6.9098 -2.5017 0.9403
14.1834 -5.4267 -2.5017 0.9403
14.5339 -4.4025 -2.5017 0.9403
14.8107 -3.3558 -2.5017 0.9403
15.0121 -2.2922 -2.5017 0.9403
15.1373 -1.2168 -2.5017 0.9403
15.1710 -0.6765 -2.5017 0.9403
15.1855 -0.1353 -2.5017 0.9403
15.1807 0.4060 -2.5017 0.9403
15.1566 0.9469 -2.5017 0.9403
15.1132 1.4865 -2.5017 0.9403
15.0506 2.0243 -2.5017 0.9403
14.6101 4.1428 -2.5017 0.9403
14.4532 4.6609 -2.5017 0.9403
14.0844 5.6787 -2.5017 0.9403
12.8543 8.0861 -2.5017 0.9403
11.5746 9.8309 -2.5017 0.9403
11.2168 10.2372 -2.5017 0.9403
10.8448 10.6305 -2.5017 0.9403
11.3908 -6.8851 -2.5017 0.9473
12.0607 -5.6298 -2.5017 0.9473
12.4311 -4.7563 -2.5017 0.9473
12.9809 -2.9412 -2.5017 0.9473
13.2207 -1.5387 -2.5017 0.9473
13.2671 -1.0665 -2.5017 0.9473
13.2967 -0.5929 -2.5017 0.9473
13.3052 0.3559 -2.5017 0.9473
13.2460 1.3029 -2.5017 0.9473
13.1912 1.7742 -2.5017 0.9473
13.1195 2.2432 -2.5017 0.9473
12.6675 4.0851 -2.5017 0.9473
12.3443 4.9771 -2.5017 0.9473
11.2662 7.0871 -2.5017 0.9473
11.0065 7.4842 -2.5017 0.9473
10.7326 7.8717 -2.5017 0.9473
9.8311 8.9725 -2.5017 0.9473
9.5050 9.3172 -2.5017 0.9473
8.8170 9.9707 -2.5017 0.9473
10.1288 -6.1223 -2.5017 0.9528
10.5392 -5.3852 -2.5017 0.9528
10.7244 -5.0061 -2.5017 0.9528
11.1976 -3.8326 -2.5017 0.9528
11.6997 -1.7864 -2.5017 0.9528
4.7093 -0.5481 -1.0022 0.9808
4.5784 -0.2042 -0.9687 0.9814
4.5812 0.1225 -0.9687 0.9814
4.6227 0.2888 -0.9790 0.9812
11.7785 1.1585 -2.5017 0.9528
11.7297 1.5776 -2.5017 0.9528
11.6660 1.9947 -2.5017 0.9528
11.5875 2.4093 -2.5017 0.9528
11.3864 3.2287 -2.5017 0.9528
11.2641 3.6325 -2.5017 0.9528
10.9767 4.4257 -2.5017 0.9528
10.8120 4.8142 -2.5017 0.9528
10.6335 5.1965 -2.5017 0.9528
9.5436 6.9996 -2.5017 0.9528
9.2880 7.3353 -2.5017 0.9528
9.0207 7.6617 -2.5017 0.9528
8.7418 7.9784 -2.5017 0.9528
8.1512 8.5809 -2.5017 0.9528
7.8402 8.8660 -2.5017 0.9528
9.3003 -5.1782 -2.5017 0.9572
9.4790 -4.8434 -2.5017 0.9572
9.6456 -4.5025 -2.5017 0.9572
9.7999 -4.1558 -2.5017 0.9572
9.9419 -3.8039 -2.5017 0.9572
10.0711 -3.4471 -2.5017 0.9572
10.1876 -3.0859 -2.5017 0.9572
10.2911 -2.7208 -2.5017 0.9572
10.5227 -1.6067 -2.5017 0.9572
4.2898 -0.4993 -1.0150 0.9824
4.3567 0.4285 -1.0289 0.9822
10.5497 1.4189 -2.5017 0.9572
9.8724 3.9805 -2.5017 0.9572
9.5638 4.6737 -2.5017 0.9572
9.2065 5.3432 -2.5017 0.9572
9.0102 5.6680 -2.5017 0.9572
8.8025 5.9855 -2.5017 0.9572
8.5835 6.2955 -2.5017 0.9572
8.1132 6.8910 -2.5017 0.9572
7.8624 7.1758 -2.5017 0.9572
7.6016 7.4515 -2.5017 0.9572
8.4420 -4.7003 -2.5017 0.9609
8.7554 -4.0869 -2.5017 0.9609
8.8955 -3.7723 -2.5017 0.9609
9.1417 -3.1290 -2.5017 0.9609
9.2474 -2.8011 -2.5017 0.9609
9.4235 -2.1352 -2.5017 0.9609
9.5516 -1.4584 -2.5017 0.9609
3.9955 -0.4650 -1.0415 0.9835
3.9692 -0.3191 -1.0310 0.9837
3.9718 -0.0354 -1.0284 0.9837
3.9739 0.1063 -1.0293 0.9837
3.9728 0.2482 -1.0306 0.9837
4.0587 0.3992 -1.0560 0.9833
9.5761 1.2880 -2.5017 0.9609
9.3839 2.3029 -2.5017 0.9609
9.2958 2.6359 -2.5017 0.9609
8.9614 3.6131 -2.5017 0.9609
8.8269 3.9303 -2.5017 0.9609
8.5244 4.5491 -2.5017 0.9609
8.1787 5.1449 -2.5017 0.9609
7.7914 5.7145 -2.5017 0.9609
7.5827 5.9886 -2.5017 0.9609
7.3645 6.2550 -2.5017 0.9609
7.1369 6.5136 -2.5017 0.9609
6.4007 7.2382 -2.5017 0.9609
8.0077 -3.7379 -2.5017 0.9639
8.1359 -3.4501 -2.5017 0.9639
8.2537 -3.1579 -2.5017 0.9639
8.4577 -2.5619 -2.5017 0.9639
8.6188 -1.9529 -2.5017 0.9639
3.7894 -0.3046 -1.0762 0.9843
3.7928 -0.1691 -1.0748 0.9843
3.7944 -0.0338 -1.0742 0.9843
3.7935 0.1015 -1.0743 0.9843
3.7919 0.2369 -1.0756 0.9843
8.7583 1.1780 -2.5017 0.9639
8.4107 2.7123 -2.5017 0.9639
8.0731 3.5946 -2.5017 0.9639
7.3078 4.9692 -2.5017 0.9639
7.1260 5.2265 -2.5017 0.9639
6.9352 5.4772 -2.5017 0.9639
6.7355 5.7209 -2.5017 0.9639
6.5273 5.9573 -2.5017 0.9639
6.3109 6.1862 -2.5017 0.9639
6.0864 6.4072 -2.5017 0.9639
5.8541 6.6201 -2.5017 0.9639
6.9609 -4.2075 -2.5017 0.9665
7.8635 -2.0790 -2.5017 0.9665
3.6304 -0.2918 -1.1202 0.9849
3.6363 -0.0324 -1.1185 0.9849
3.6352 0.0972 -1.1185 0.9849
3.6317 0.2269 -1.1192 0.9849
3.6634 0.3603 -1.1322 0.9847
3.7800 0.5084 -1.1731 0.9842
8.0173 1.3708 -2.5017 0.9665
7.9634 1.6557 -2.5017 0.9665
7.8993 1.9385 -2.5017 0.9665
7.7411 2.4964 -2.5017 0.9665
7.6472 2.7707 -2.5017 0.9665
7.5436 3.0415 -2.5017 0.9665
7.4304 3.3085 -2.5017 0.9665
7.3078 3.5712 -2.5017 0.9665
7.1758 3.8294 -2.5017 0.9665
6.7260 4.5736 -2.5017 0.9665
6.5587 4.8104 -2.5017 0.9665
6.1994 5.2654 -2.5017 0.9665
5.8085 5.6937 -2.5017 0.9665
5.6018 5.8971 -2.5017 0.9665
6.4410 -3.8932 -2.5017 0.9688
6.5757 -3.6612 -2.5017 0.9688
6.7020 -3.4245 -2.5017 0.9688
6.8198 -3.1834 -2.5017 0.9688
6.9289 -2.9383 -2.5017 0.9688
7.3402 -1.6631 -2.5017 0.9688
3.9280 -0.7439 -1.3289 0.9833
3.4904 -0.2806 -1.1640 0.9853
3.4944 -0.1558 -1.1627 0.9854
3.4959 -0.0312 -1.1621 0.9854
3.5102 0.3453 -1.1724 0.9852
7.3686 1.5321 -2.5017 0.9688
7.0761 2.5638 -2.5017 0.9688
6.6399 3.5434 -2.5017 0.9688
6.2237 4.2320 -2.5017 0.9688
6.0689 4.4511 -2.5017 0.9688
5.1835 5.4567 -2.5017 0.9688
4.9856 5.6380 -2.5017 0.9688
5.9871 -3.6189 -2.5017 0.9707
6.6188 -2.2655 -2.5017 0.9707
6.7634 -1.7882 -2.5017 0.9707
6.8229 -1.5459 -2.5017 0.9707
3.4041 -0.6447 -1.2390 0.9854
3.3843 -0.5167 -1.2243 0.9856
3.3891 -0.3945 -1.2202 0.9856
3.3955 0.0908 -1.2147 0.9857
6.8957 1.1791 -2.5017 0.9707
6.8493 1.4241 -2.5017 0.9707
6.7942 1.6673 -2.5017 0.9707
6.6582 2.1471 -2.5017 0.9707
6.4883 2.6160 -2.5017 0.9707
6.3909 2.8456 -2.5017 0.9707
6.0506 3.5116 -2.5017 0.9707
5.9216 3.7250 -2.5017 0.9707
5.7851 3.9337 -2.5017 0.9707
5.6412 4.1374 -2.5017 0.9707
4.8182 5.0721 -2.5017 0.9707
5.5869 -3.3770 -2.5017 0.9724
5.7038 -3.1757 -2.5017 0.9724
6.0102 -2.5487 -2.5017 0.9724
6.2479 -1.8926 -2.5017 0.9724
6.3114 -1.6686 -2.5017 0.9724
3.3672 -0.6377 -1.3133 0.9854
3.3495 -0.5114 -1.2985 0.9856
3.3489 -0.3898 -1.2920 0.9857
3.3470 -0.2691 -1.2868 0.9857
3.3450 -0.1492 -1.2831 0.9858
3.3523 0.3297 -1.2909 0.9857
6.3916 1.3289 -2.5017 0.9724
6.3402 1.5559 -2.5017 0.9724
6.2806 1.7809 -2.5017 0.9724
6.0546 2.4412 -2.5017 0.9724
5.8654 2.8663 -2.5017 0.9724
5.7595 3.0736 -2.5017 0.9724
5.6462 3.2769 -2.5017 0.9724
5.5259 3.4761 -2.5017 0.9724
4.4962 4.7332 -2.5017 0.9724
5.2313 -3.1620 -2.5017 0.9739
5.3407 -2.9735 -2.5017 0.9739
5.4432 -2.7813 -2.5017 0.9739
5.6276 -2.3864 -2.5017 0.9739
5.7833 -1.9795 -2.5017 0.9739
5.8502 -1.7721 -2.5017 0.9739
3.3196 -0.5069 -1.3744 0.9856
3.3219 -0.3866 -1.3687 0.9856
3.3207 -0.2669 -1.3635 0.9857
3.3215 0.0888 -1.3599 0.9857
3.3228 0.2076 -1.3626 0.9857
3.3226 0.3268 -1.3664 0.9857
5.8808 1.6675 -2.5017 0.9739
5.6692 2.2858 -2.5017 0.9739
5.5841 2.4864 -2.5017 0.9739
5.2868 3.0683 -2.5017 0.9739
5.1741 3.2548 -2.5017 0.9739
5.0548 3.4371 -2.5017 0.9739
4.7971 3.7885 -2.5017 0.9739
4.6590 3.9571 -2.5017 0.9739
4.2099 4.4318 -2.5017 0.9739
4.9127 -2.9694 -2.5017 0.9753
5.0154 -2.7925 -2.5017 0.9753
5.4311 -1.8589 -2.5017 0.9753
5.5497 -1.4673 -2.5017 0.9753
3.2939 -0.5029 -1.4522 0.9856
3.2951 -0.2649 -1.4407 0.9857
3.2959 -0.0294 -1.4365 0.9857
3.2973 0.2060 -1.4398 0.9857
5.5226 1.5660 -2.5017 0.9753
5.4633 1.7618 -2.5017 0.9753
5.1575 2.5204 -2.5017 0.9753
4.9648 2.8814 -2.5017 0.9753
4.6288 3.3950 -2.5017 0.9753
4.3752 3.7161 -2.5017 0.9753
4.0994 4.0184 -2.5017 0.9753
4.6254 -2.7958 -2.5017 0.9765
4.9758 -2.1100 -2.5017 0.9765
5.1135 -1.7502 -2.5017 0.9765
5.1726 -1.5668 -2.5017 0.9765
5.2251 -1.3815 -2.5017 0.9765
3.2712 -0.4995 -1.5317 0.9855
3.2726 -0.3809 -1.5251 0.9856
3.2682 -0.1457 -1.5143 0.9857
3.2686 -0.0291 -1.5130 0.9857
3.2739 0.4403 -1.5291 0.9855
3.3254 0.5686 -1.5616 0.9852
4.9374 2.1984 -2.5017 0.9765
4.8559 2.3730 -2.5017 0.9765
4.6745 2.7129 -2.5017 0.9765
4.5748 2.8778 -2.5017 0.9765
4.4694 3.0391 -2.5017 0.9765
4.2415 3.3497 -2.5017 0.9765
4.1194 3.4988 -2.5017 0.9765
3.8596 3.7834 -2.5017 0.9765
3.7224 3.9185 -2.5017 0.9765
4.4560 -2.4810 -2.5017 0.9775
4.5417 -2.3206 -2.5017 0.9775
4.6215 -2.1573 -2.5017 0.9775
4.8254 -1.6516 -2.5017 0.9775
4.8812 -1.4785 -2.5017 0.9775
4.9308 -1.3036 -2.5017 0.9775
3.3177 -0.7517 -1.6687 0.9850
3.2461 -0.2609 -1.5974 0.9856
3.2427 -0.0289 -1.5907 0.9857
3.2464 0.0868 -1.5930 0.9856
3.2496 0.2030 -1.5971 0.9856
3.2962 0.5636 -1.6403 0.9852
4.9934 1.0382 -2.5017 0.9775
4.9532 1.2155 -2.5017 0.9775
4.9068 1.3913 -2.5017 0.9775
4.7302 1.9072 -2.5017 0.9775
4.4995 2.4012 -2.5017 0.9775
4.1126 3.0163 -2.5017 0.9775
3.6421 3.5702 -2.5017 0.9775
3.5126 3.6977 -2.5017 0.9775
3.3786 3.8206 -2.5017 0.9775
4.2133 -2.3459 -2.5017 0.9785
4.4397 -1.8827 -2.5017 0.9785
4.5625 -1.5616 -2.5017 0.9785
4.6622 -1.2326 -2.5017 0.9785
3.2869 -0.7447 -1.7484 0.9849
3.2213 -0.1436 -1.6728 0.9856
3.2209 -0.0287 -1.6710 0.9856
3.2244 0.0862 -1.6734 0.9856
3.2273 0.2016 -1.6775 0.9855
3.2288 0.3176 -1.6831 0.9855
3.2301 0.4344 -1.6908 0.9854
3.2670 0.5586 -1.7195 0.9852
3.5817 0.7447 -1.8978 0.9837
4.6395 1.3155 -2.5017 0.9785
4.3327 2.1173 -2.5017 0.9785
4.1708 2.4206 -2.5017 0.9785
3.9878 2.7116 -2.5017 0.9785
3.6755 3.1218 -2.5017 0.9785
3.5619 3.2508 -2.5017 0.9785
3.4438 3.3758 -2.5017 0.9785
3.3213 3.4964 -2.5017 0.9785
3.1945 3.6125 -2.5017 0.9785
3.9091 -2.3628 -2.5017 0.9794
3.9908 -2.2220 -2.5017 0.9794
4.0675 -2.0783 -2.5017 0.9794
4.2661 -1.6323 -2.5017 0.9794
4.3216 -1.4792 -2.5017 0.9794
4.3716 -1.3242 -2.5017 0.9794
3.2597 -0.7386 -1.8306 0.9849
3.2034 -0.3728 -1.7664 0.9854
3.2018 -0.2574 -1.7593 0.9855
3.2023 0.0857 -1.7546 0.9855
3.2047 0.2002 -1.7587 0.9855
3.2142 0.4323 -1.7763 0.9853
4.4361 1.0886 -2.5017 0.9794
4.0298 2.1505 -2.5017 0.9794
3.9506 2.2928 -2.5017 0.9794
3.8664 2.4322 -2.5017 0.9794
3.5846 2.8310 -2.5017 0.9794
3.4814 2.9570 -2.5017 0.9794
4.0471 -1.5484 -2.5017 0.9802
3.1988 -0.6058 -1.8797 0.9851
3.1769 -0.1417 -1.8360 0.9854
3.1796 0.0850 -1.8364 0.9854
3.1819 0.1988 -1.8407 0.9854
3.1980 0.4301 -1.8630 0.9852
3.5833 2.4365 -2.5017 0.9802
3.4941 2.5627 -2.5017 0.9802
3.4006 2.6856 -2.5017 0.9802
3.3027 2.8051 -2.5017 0.9802
3.2006 2.9211 -2.5017 0.9802
3.0945 3.0333 -2.5017 0.9802
2.8705 3.2460 -2.5017 0.9802
