ply
format ascii 1.0
element vertex 531
property float32 x
property float32 y
property float32 z
property float32 I
end_header
-44.0719 21.9459 8.6812 0.8188
-41.2909 18.7301 7.9947 0.8318
-41.7729 10.4471 7.5925 0.8395
-37.8433 -7.2320 6.7935 0.8551
-30.1588 -6.9021 5.4553 0.8819
-21.2027 -6.4961 3.9101 0.9139
-21.6123 -7.4863 4.0330 0.9113
-20.7085 -8.0228 3.9159 0.9137
-19.4735 -8.3660 3.7372 0.9175
-19.9308 -9.4300 3.8878 0.9143
-36.7606 16.6750 6.1838 0.8493
-36.8197 15.1218 6.0977 0.8512
-37.3194 13.7725 6.0940 0.8513
-42.0122 8.9067 6.5791 0.8405
-37.7983 -7.2234 5.8953 0.8558
-21.1336 -6.4749 3.3861 0.9144
-21.3864 -7.4081 3.4673 0.9125
-19.6415 -8.4382 3.2749 0.9171
-41.5860 22.6198 6.1646 0.8262
-42.4899 21.1581 6.1811 0.8257
-41.8852 18.9996 5.9892 0.8307
-45.2485 16.6987 6.2807 0.8232
-43.7572 14.3736 5.9977 0.8305
-42.9797 12.4160 5.8257 0.8349
-45.5905 9.6652 6.0688 0.8286
-21.1778 -7.3358 2.9185 0.9136
-21.3297 -8.2635 2.9787 0.9119
-20.2941 -8.7186 2.8763 0.9148
-19.2665 -9.1157 2.7756 0.9176
-37.9734 -21.4529 5.6795 0.8387
-34.9629 -21.4552 5.3418 0.8475
-32.2683 -21.4450 5.0453 0.8553
-36.2168 27.1228 4.8587 0.8336
-39.9218 25.6159 5.0935 0.8263
-45.1320 20.4724 5.3216 0.8192
-41.4417 17.0201 4.8108 0.8351
-43.0685 12.4416 4.8139 0.8350
-21.1108 -7.3126 2.3991 0.9140
-19.1707 -9.0704 2.2774 0.9182
-41.3802 -21.4424 5.0046 0.8290
-37.9732 -21.4528 4.6833 0.8391
-34.9615 -21.4544 4.4047 0.8479
-35.2125 26.3708 3.7241 0.8381
-35.3444 24.5266 3.6418 0.8414
-42.1674 24.9523 4.1477 0.8214
-38.4114 -7.3405 3.3105 0.8547
-37.6413 -8.6145 3.2688 0.8564
-21.4772 -6.5802 1.9015 0.9138
-20.8841 -7.2341 1.8710 0.9151
-21.2263 -8.2235 1.9270 0.9127
-20.2277 -8.6901 1.8637 0.9154
-37.9730 -21.4526 3.6920 0.8394
-34.9601 -21.4535 3.4723 0.8482
-32.2689 -21.4455 3.2799 0.8560
-37.5621 24.1018 2.7675 0.8362
-37.9292 -8.6804 2.4128 0.8556
-20.5867 -7.9757 1.3690 0.9153
-37.9728 -21.4525 2.7045 0.8396
-34.9587 -21.4527 2.5434 0.8484
-40.8122 24.1504 1.8699 0.8271
-20.9816 -7.2679 0.8756 0.9149
-21.0293 -8.1472 0.8893 0.9137
-41.3897 -21.4474 1.8381 0.8298
-37.9725 -21.4524 1.7197 0.8398
-34.9573 -21.4518 1.6172 0.8486
-32.2695 -21.4459 1.5278 0.8563
-28.4106 22.9256 0.6167 0.8641
-33.0804 22.9556 0.6801 0.8512
-38.0433 22.5119 0.7467 0.8379
-37.9577 -7.2538 0.6528 0.8568
-21.5058 -7.4494 0.3844 0.9130
-20.8072 -8.0611 0.3769 0.9146
-21.1561 -9.0889 0.3889 0.9120
-41.3929 -21.4490 0.7875 0.8299
-37.9723 -21.4522 0.7367 0.8399
-32.2698 -21.4461 0.6545 0.8564
-8.1649 6.5887 -0.0591 0.9589
-8.7987 6.5895 -0.0619 0.9570
-14.5713 6.6098 -0.0901 0.9380
-17.9132 6.6108 -0.1075 0.9265
-22.9104 6.6184 -0.1343 0.9090
-30.8430 6.5388 -0.1775 0.8815
-38.0468 6.6389 -0.2174 0.8569
-38.4337 -7.3448 -0.2203 0.8551
-21.3969 -7.4117 -0.1275 0.9134
-34.9546 -21.4501 -0.2309 0.8487
-8.7985 6.5893 -0.3095 0.9570
-10.1412 6.5072 -0.3393 0.9529
-12.1457 6.6065 -0.3893 0.9462
-13.2699 6.6079 -0.4174 0.9424
-20.0664 6.5916 -0.5947 0.9190
-22.9092 6.6181 -0.6714 0.9090
-38.0436 6.6383 -1.0874 0.8568
-48.4059 6.6534 -1.3758 0.8224
-37.9719 -21.4520 -1.2280 0.8399
-34.9532 -21.4493 -1.1547 0.8487
-9.4965 6.5900 -0.5862 0.9548
-10.1410 6.5071 -0.6111 0.9529
-12.1454 6.6063 -0.7012 0.9461
-13.2695 6.6077 -0.7518 0.9424
-16.0894 6.6080 -0.8821 0.9327
-20.0664 6.5916 -1.0711 0.9189
-22.9080 6.6177 -1.2093 0.9089
-30.8387 6.5379 -1.5987 0.8814
-38.0404 6.6377 -1.9583 0.8567
-45.8936 6.3080 -2.3493 0.8307
-46.7751 4.7137 -2.3842 0.8284
-49.3107 1.3870 -2.5017 0.8207
-49.3286 -0.3965 -2.5017 0.8207
-49.2820 -2.1795 -2.5017 0.8207
-49.1710 -3.9596 -2.5017 0.8207
-45.5017 -8.6955 -2.3493 0.8307
-47.6577 -12.7362 -2.5017 0.8207
-47.1661 -14.4507 -2.5017 0.8207
-46.6129 -16.1463 -2.5017 0.8207
-45.9987 -17.8208 -2.5017 0.8207
-41.8745 -19.8125 -2.3493 0.8307
-8.1643 6.5882 -0.7692 0.9588
-8.7981 6.5890 -0.8059 0.9569
-11.1615 6.6048 -0.9509 0.9493
-12.1450 6.6061 -1.0137 0.9461
-13.2691 6.6075 -1.0869 0.9423
-16.0888 6.6077 -1.2753 0.9326
-17.9110 6.6100 -1.3998 0.9263
-26.4633 6.6183 -2.0001 0.8964
-31.3447 6.6451 -2.3493 0.8794
-34.1064 0.9593 -2.5017 0.8721
-33.8886 -3.9663 -2.5017 0.8721
-33.7230 -5.1888 -2.5017 0.8721
-31.4719 -6.0144 -2.3493 0.8794
-31.2339 -7.1481 -2.3493 0.8794
-32.6231 -9.9951 -2.5017 0.8721
-31.8157 -12.3260 -2.5017 0.8721
-31.3493 -13.4681 -2.5017 0.8721
-8.1641 6.5880 -1.0072 0.9587
-9.4961 6.5897 -1.1097 0.9546
-11.1612 6.6046 -1.2451 0.9492
-12.1446 6.6059 -1.3273 0.9460
-13.2687 6.6073 -1.4230 0.9422
-14.5693 6.6089 -1.5359 0.9377
-16.0882 6.6075 -1.6697 0.9325
-17.9102 6.6097 -1.8328 0.9262
-20.0664 6.5916 -2.0277 0.9186
-23.9390 5.0751 -2.3493 0.9063
-26.0046 1.6738 -2.5017 0.9006
-26.0482 0.7327 -2.5017 0.9006
-26.0576 -0.2094 -2.5017 0.9006
-26.0330 -1.1513 -2.5017 0.9006
-25.5953 -4.8913 -2.5017 0.9006
-23.6414 -6.3180 -2.3493 0.9063
-23.1231 -8.0097 -2.3493 0.9063
-22.8185 -8.8403 -2.3493 0.9063
-23.9424 -10.2860 -2.5017 0.9006
-23.1367 -11.9890 -2.5017 0.9006
-22.6882 -12.8176 -2.5017 0.9006
-10.1402 6.5065 -1.4312 0.9526
-12.1443 6.6057 -1.6422 0.9458
-13.2682 6.6070 -1.7607 0.9420
-14.5688 6.6086 -1.9003 0.9376
-16.0876 6.6072 -2.0659 0.9323
-20.6030 4.3679 -2.5017 0.9187
-20.8648 2.8678 -2.5017 0.9187
-20.9548 2.1117 -2.5017 0.9187
-21.0602 -0.1693 -2.5017 0.9187
-20.9930 -1.6905 -2.5017 0.9187
-20.6866 -3.9533 -2.5017 0.9187
-20.5302 -4.6985 -2.5017 0.9187
-20.3469 -5.4376 -2.5017 0.9187
-18.4423 -7.1449 -2.3493 0.9234
-18.1720 -7.8069 -2.3493 0.9234
-18.3370 -10.3594 -2.5017 0.9187
-10.1399 6.5064 -1.7070 0.9525
-11.1606 6.6043 -1.8374 0.9490
-13.2678 6.6068 -2.1001 0.9419
-14.5683 6.6084 -2.2666 0.9374
-15.3378 6.2992 -2.3493 0.9352
-15.5554 5.7407 -2.3493 0.9352
-15.7528 5.1746 -2.3493 0.9352
-17.1290 4.2838 -2.5017 0.9312
-17.4921 2.4043 -2.5017 0.9312
-17.5676 1.7704 -2.5017 0.9312
-17.6495 0.4964 -2.5017 0.9312
-17.6393 -0.7801 -2.5017 0.9312
-17.5996 -1.4172 -2.5017 0.9312
-17.5368 -2.0525 -2.5017 0.9312
-17.4512 -2.6851 -2.5017 0.9312
-17.2115 -3.9390 -2.5017 0.9312
-16.8819 -5.1723 -2.5017 0.9312
-15.2345 -6.5450 -2.3493 0.9352
-14.9880 -7.0914 -2.3493 0.9352
-14.7218 -7.6286 -2.3493 0.9352
-14.4364 -8.1558 -2.3493 0.9352
-14.1321 -8.6723 -2.3493 0.9352
-13.8094 -9.1776 -2.3493 0.9352
-9.4953 6.5892 -1.9040 0.9542
-10.1396 6.5062 -1.9847 0.9523
-13.1917 5.4179 -2.3493 0.9438
-13.3790 4.9374 -2.3493 0.9438
-14.7323 3.6845 -2.5017 0.9403
-14.8559 3.1495 -2.5017 0.9403
-15.1096 1.5227 -2.5017 0.9403
-15.1712 -0.6709 -2.5017 0.9403
-15.0095 -2.3094 -2.5017 0.9403
-14.9161 -2.8505 -2.5017 0.9403
-14.8034 -3.3879 -2.5017 0.9403
-14.6712 -3.9208 -2.5017 0.9403
-14.3496 -4.9706 -2.5017 0.9403
-14.1605 -5.4861 -2.5017 0.9403
-13.4212 -5.7659 -2.4064 0.9425
-12.8909 -6.0992 -2.3493 0.9438
-12.6620 -6.5612 -2.3493 0.9438
-12.4165 -7.0147 -2.3493 0.9438
-12.1548 -7.4589 -2.3493 0.9438
-11.8772 -7.8935 -2.3493 0.9438
-8.7970 6.5882 -2.0658 0.9563
-9.4951 6.5890 -2.1723 0.9541
-10.1393 6.5060 -2.2644 0.9522
-10.7569 6.3653 -2.3493 0.9504
-10.9799 5.9723 -2.3493 0.9504
-11.5620 4.7485 -2.3493 0.9504
-12.4867 4.6082 -2.5017 0.9473
-12.6451 4.1538 -2.5017 0.9473
-12.7871 3.6939 -2.5017 0.9473
-13.1118 2.2879 -2.5017 0.9473
-13.1859 1.8124 -2.5017 0.9473
-13.2429 1.3345 -2.5017 0.9473
-13.2824 0.8549 -2.5017 0.9473
-13.3095 -0.1070 -2.5017 0.9473
-13.2969 -0.5880 -2.5017 0.9473
-13.2670 -1.0683 -2.5017 0.9473
-13.0733 -2.4984 -2.5017 0.9473
-12.9745 -2.9693 -2.5017 0.9473
-12.8586 -3.4364 -2.5017 0.9473
-12.5767 -4.3565 -2.5017 0.9473
-12.2291 -5.2538 -2.5017 0.9473
-12.0313 -5.6924 -2.5017 0.9473
-10.8825 -6.1480 -2.3493 0.9504
-10.4098 -6.9183 -2.3493 0.9504
-8.1632 6.5873 -2.2173 0.9580
-9.1312 6.3364 -2.3493 0.9556
-9.3542 6.0022 -2.3493 0.9556
-9.5651 5.6601 -2.3493 0.9556
-11.2441 3.6936 -2.5017 0.9528
-11.3704 3.2847 -2.5017 0.9528
-11.6591 2.0344 -2.5017 0.9528
-11.7250 1.6116 -2.5017 0.9528
-11.8109 0.7602 -2.5017 0.9528
-11.8306 0.3328 -2.5017 0.9528
-11.8237 -0.5229 -2.5017 0.9528
-11.7971 -0.9500 -2.5017 0.9528
-11.7551 -1.3758 -2.5017 0.9528
-11.4340 -3.0557 -2.5017 0.9528
-11.3161 -3.4670 -2.5017 0.9528
-11.0360 -4.2756 -2.5017 0.9528
-10.5083 -5.4452 -2.5017 0.9528
-10.1864 -5.7548 -2.4731 0.9533
-9.4728 -5.8131 -2.3493 0.9556
-8.2126 5.6990 -2.3493 0.9598
-8.4132 5.3984 -2.3493 0.9598
-8.7812 4.7764 -2.3493 0.9598
-9.4319 4.6967 -2.4763 0.9576
-9.6939 4.3973 -2.5017 0.9572
-10.3266 2.5826 -2.5017 0.9572
-10.4132 2.2076 -2.5017 0.9572
-10.4862 1.8298 -2.5017 0.9572
-10.5910 1.0673 -2.5017 0.9572
-10.6227 0.6837 -2.5017 0.9572
-10.6404 0.2993 -2.5017 0.9572
-10.6443 -0.0856 -2.5017 0.9572
-10.6103 -0.8544 -2.5017 0.9572
-10.5725 -1.2374 -2.5017 0.9572
-10.5208 -1.6188 -2.5017 0.9572
-10.4555 -1.9981 -2.5017 0.9572
-10.2838 -2.7483 -2.5017 0.9572
-10.1777 -3.1182 -2.5017 0.9572
-9.6220 -4.5526 -2.5017 0.9572
-9.4511 -4.8974 -2.5017 0.9572
-8.6661 -5.7594 -2.4455 0.9581
-7.2628 5.4391 -2.3493 0.9632
-7.4546 5.1730 -2.3493 0.9632
-7.6368 4.9002 -2.3493 0.9632
-8.6493 4.3070 -2.5017 0.9609
-8.7993 3.9915 -2.5017 0.9609
-8.9379 3.6708 -2.5017 0.9609
-9.1797 3.0154 -2.5017 0.9609
-9.2828 2.6816 -2.5017 0.9609
-9.5185 1.6609 -2.5017 0.9609
-9.5723 1.3157 -2.5017 0.9609
-9.6136 0.9688 -2.5017 0.9609
-9.6424 0.6206 -2.5017 0.9609
-9.6620 -0.0777 -2.5017 0.9609
-9.6311 -0.7756 -2.5017 0.9609
-9.5968 -1.1232 -2.5017 0.9609
-9.4905 -1.8137 -2.5017 0.9609
-9.4187 -2.1556 -2.5017 0.9609
-9.1301 -3.1626 -2.5017 0.9609
-8.8777 -3.8140 -2.5017 0.9609
-8.7340 -4.1324 -2.5017 0.9609
-8.5789 -4.4454 -2.5017 0.9609
-8.4126 -4.7527 -2.5017 0.9609
-8.0472 -5.3481 -2.5017 0.9609
-6.6425 4.9747 -2.3493 0.9661
-6.8193 4.7322 -2.3498 0.9661
-7.3233 4.6991 -2.4633 0.9645
-7.6053 4.5005 -2.5017 0.9639
-7.7631 4.2226 -2.5017 0.9639
-8.1746 3.3573 -2.5017 0.9639
-8.3958 2.7579 -2.5017 0.9639
-8.5731 2.1441 -2.5017 0.9639
-8.6450 1.8328 -2.5017 0.9639
-8.7056 1.5191 -2.5017 0.9639
-8.7926 0.8861 -2.5017 0.9639
-8.8189 0.5676 -2.5017 0.9639
-8.8369 -0.0710 -2.5017 0.9639
-8.8086 -0.7093 -2.5017 0.9639
-8.7772 -1.0273 -2.5017 0.9639
-8.6145 -1.9715 -2.5017 0.9639
-8.2404 -3.1925 -2.5017 0.9639
-8.1196 -3.4883 -2.5017 0.9639
-7.5320 -4.6221 -2.5017 0.9639
-6.2863 4.7079 -2.4157 0.9677
-6.6823 4.6371 -2.5017 0.9665
-6.8456 4.3925 -2.5017 0.9665
-7.1451 3.8864 -2.5017 0.9665
-7.5238 3.0900 -2.5017 0.9665
-7.6306 2.8160 -2.5017 0.9665
-7.7274 2.5384 -2.5017 0.9665
-7.8141 2.2574 -2.5017 0.9665
-7.8906 1.9734 -2.5017 0.9665
-8.0126 1.3981 -2.5017 0.9665
-8.0579 1.1076 -2.5017 0.9665
-8.0927 0.8155 -2.5017 0.9665
-8.1169 0.5225 -2.5017 0.9665
-8.1304 0.2287 -2.5017 0.9665
-8.1334 -0.0654 -2.5017 0.9665
-8.1074 -0.6529 -2.5017 0.9665
-7.9891 -1.5267 -2.5017 0.9665
-7.9287 -1.8145 -2.5017 0.9665
-7.7768 -2.3827 -2.5017 0.9665
-7.6856 -2.6622 -2.5017 0.9665
-7.3522 -3.4786 -2.5017 0.9665
-7.2217 -3.7422 -2.5017 0.9665
-7.0817 -4.0008 -2.5017 0.9665
-6.3343 4.0644 -2.5017 0.9688
-6.4771 3.8328 -2.5017 0.9688
-7.0607 2.6057 -2.5017 0.9688
-7.2305 2.0888 -2.5017 0.9688
-7.3625 1.5609 -2.5017 0.9688
-7.4141 1.2937 -2.5017 0.9688
-7.5106 0.4834 -2.5017 0.9688
-7.5232 0.2116 -2.5017 0.9688
-7.5259 -0.0605 -2.5017 0.9688
-7.5188 -0.3325 -2.5017 0.9688
-7.5019 -0.6041 -2.5017 0.9688
-7.4386 -1.1446 -2.5017 0.9688
-7.3924 -1.4127 -2.5017 0.9688
-7.1960 -2.2047 -2.5017 0.9688
-6.9150 -2.9708 -2.5017 0.9688
-6.4147 -3.9364 -2.5017 0.9688
-5.4443 4.3932 -2.5017 0.9707
-5.5996 4.1935 -2.5017 0.9707
-5.8879 3.7780 -2.5017 0.9707
-6.0206 3.5627 -2.5017 0.9707
-6.3709 2.8900 -2.5017 0.9707
-6.4713 2.6578 -2.5017 0.9707
-6.5631 2.4221 -2.5017 0.9707
-6.6464 2.1832 -2.5017 0.9707
-6.7209 1.9416 -2.5017 0.9707
-6.8916 1.2025 -2.5017 0.9707
-6.9813 0.4494 -2.5017 0.9707
-6.9955 -0.0562 -2.5017 0.9707
-6.9483 -0.8132 -2.5017 0.9707
-6.9144 -1.0639 -2.5017 0.9707
-6.8714 -1.3132 -2.5017 0.9707
-6.7586 -1.8062 -2.5017 0.9707
-6.6888 -2.0493 -2.5017 0.9707
-6.6104 -2.2898 -2.5017 0.9707
-6.2114 -3.2186 -2.5017 0.9707
-6.0909 -3.4411 -2.5017 0.9707
-5.8264 -3.8722 -2.5017 0.9707
-5.3634 3.7218 -2.5017 0.9724
-5.4944 3.5255 -2.5017 0.9724
-5.7348 3.1193 -2.5017 0.9724
-5.8438 2.9100 -2.5017 0.9724
-5.9452 2.6968 -2.5017 0.9724
-6.1245 2.2602 -2.5017 0.9724
-6.2021 2.0373 -2.5017 0.9724
-6.3863 1.3539 -2.5017 0.9724
-6.4311 1.1222 -2.5017 0.9724
-6.4674 0.8889 -2.5017 0.9724
-6.4954 0.6546 -2.5017 0.9724
-6.5257 0.1836 -2.5017 0.9724
-6.5280 -0.0525 -2.5017 0.9724
-6.5218 -0.2884 -2.5017 0.9724
-6.4840 -0.7589 -2.5017 0.9724
-6.4523 -0.9928 -2.5017 0.9724
-6.3637 -1.4564 -2.5017 0.9724
-6.2419 -1.9124 -2.5017 0.9724
-6.1686 -2.1368 -2.5017 0.9724
-6.0873 -2.3584 -2.5017 0.9724
-5.9011 -2.7920 -2.5017 0.9724
-5.7962 -3.0035 -2.5017 0.9724
-5.6839 -3.2111 -2.5017 0.9724
-5.5641 -3.4145 -2.5017 0.9724
-5.4370 -3.6134 -2.5017 0.9724
-4.7570 3.8386 -2.5017 0.9739
-4.8927 3.6641 -2.5017 0.9739
-5.2606 3.1129 -2.5017 0.9739
-5.4717 2.7247 -2.5017 0.9739
-5.6543 2.3222 -2.5017 0.9739
-5.9797 1.2677 -2.5017 0.9739
-6.0216 1.0507 -2.5017 0.9739
-6.0557 0.8324 -2.5017 0.9739
-6.0818 0.6129 -2.5017 0.9739
-6.1124 -0.0491 -2.5017 0.9739
-6.1067 -0.2701 -2.5017 0.9739
-6.0711 -0.7106 -2.5017 0.9739
-5.9053 -1.5782 -2.5017 0.9739
-5.8445 -1.7906 -2.5017 0.9739
-5.7759 -2.0007 -2.5017 0.9739
-5.6998 -2.2082 -2.5017 0.9739
-5.4272 -2.8123 -2.5017 0.9739
-5.2099 -3.1971 -2.5017 0.9739
-5.0909 -3.3833 -2.5017 0.9739
-4.4673 3.6048 -2.5017 0.9753
-4.5947 3.4410 -2.5017 0.9753
-4.8313 3.1000 -2.5017 0.9753
-4.9402 2.9234 -2.5017 0.9753
-5.2277 2.3713 -2.5017 0.9753
-5.3100 2.1808 -2.5017 0.9753
-5.4536 1.7915 -2.5017 0.9753
-5.5688 1.3927 -2.5017 0.9753
-5.6549 0.9867 -2.5017 0.9753
-5.6869 0.7817 -2.5017 0.9753
-5.7285 0.3687 -2.5017 0.9753
-5.7381 0.1614 -2.5017 0.9753
-5.7347 -0.2536 -2.5017 0.9753
-5.7218 -0.4608 -2.5017 0.9753
-5.7014 -0.6673 -2.5017 0.9753
-5.6736 -0.8730 -2.5017 0.9753
-5.6383 -1.0775 -2.5017 0.9753
-5.5457 -1.4821 -2.5017 0.9753
-5.4885 -1.6816 -2.5017 0.9753
-5.4241 -1.8789 -2.5017 0.9753
-5.3527 -2.0737 -2.5017 0.9753
-5.0967 -2.6410 -2.5017 0.9753
-4.7808 -3.1773 -2.5017 0.9753
-4.3260 3.2398 -2.5017 0.9765
-4.7478 2.5825 -2.5017 0.9765
-5.1923 1.5000 -2.5017 0.9765
-5.2432 1.3113 -2.5017 0.9765
-5.2871 1.1209 -2.5017 0.9765
-5.3242 0.9290 -2.5017 0.9765
-5.3543 0.7360 -2.5017 0.9765
-5.4025 0.1520 -2.5017 0.9765
-5.3994 -0.2388 -2.5017 0.9765
-5.3418 -0.8219 -2.5017 0.9765
-5.2684 -1.2057 -2.5017 0.9765
-5.1070 -1.7690 -2.5017 0.9765
-4.9658 -2.1334 -2.5017 0.9765
-4.7987 -2.4866 -2.5017 0.9765
-4.7056 -2.6584 -2.5017 0.9765
-4.6065 -2.8268 -2.5017 0.9765
-4.5013 -2.9915 -2.5017 0.9765
-4.0822 3.0572 -2.5017 0.9775
-4.1901 2.9077 -2.5017 0.9775
-4.4803 2.4369 -2.5017 0.9775
-4.7847 1.7658 -2.5017 0.9775
-4.8454 1.5917 -2.5017 0.9775
-4.9478 1.2374 -2.5017 0.9775
-5.0242 0.8767 -2.5017 0.9775
-5.0744 0.5114 -2.5017 0.9775
-5.0951 -0.2253 -2.5017 0.9775
-5.0095 -0.9573 -2.5017 0.9775
-4.9272 -1.3168 -2.5017 0.9775
-4.8764 -1.4940 -2.5017 0.9775
-4.8192 -1.6693 -2.5017 0.9775
-4.7557 -1.8425 -2.5017 0.9775
-4.6860 -2.0132 -2.5017 0.9775
-4.4405 -2.5087 -2.5017 0.9775
-4.3469 -2.6675 -2.5017 0.9775
-3.7529 3.0284 -2.5017 0.9785
-3.9619 2.7493 -2.5017 0.9785
-4.0587 2.6043 -2.5017 0.9785
-4.3916 1.9921 -2.5017 0.9785
-4.5241 1.6696 -2.5017 0.9785
-4.7175 1.0001 -2.5017 0.9785
-4.7774 0.6567 -2.5017 0.9785
-4.7980 0.4835 -2.5017 0.9785
-4.8222 -0.0388 -2.5017 0.9785
-4.7662 -0.7334 -2.5017 0.9785
-4.7366 -0.9052 -2.5017 0.9785
-4.7008 -1.0758 -2.5017 0.9785
-4.6108 -1.4127 -2.5017 0.9785
-4.5567 -1.5784 -2.5017 0.9785
-4.4307 -1.9035 -2.5017 0.9785
-4.2817 -2.2187 -2.5017 0.9785
-4.1102 -2.5222 -2.5017 0.9785
-3.5546 2.8684 -2.5017 0.9794
-3.6561 2.7381 -2.5017 0.9794
-3.9310 2.3262 -2.5017 0.9794
-4.1597 1.8869 -2.5017 0.9794
-4.2852 1.5814 -2.5017 0.9794
-4.3396 1.4255 -2.5017 0.9794
-4.3883 1.2677 -2.5017 0.9794
-4.4997 0.7852 -2.5017 0.9794
-4.5251 0.6220 -2.5017 0.9794
-4.5582 0.2934 -2.5017 0.9794
-4.5632 -0.2018 -2.5017 0.9794
-4.5367 -0.5310 -2.5017 0.9794
-4.5145 -0.6946 -2.5017 0.9794
-4.4865 -0.8574 -2.5017 0.9794
-4.3673 -1.3381 -2.5017 0.9794
-4.1289 -1.9535 -2.5017 0.9794
-4.0555 -2.1015 -2.5017 0.9794
-3.8042 -2.5282 -2.5017 0.9794
-3.3722 2.7211 -2.5017 0.9802
-3.5599 2.4704 -2.5017 0.9802
-3.7291 2.2067 -2.5017 0.9802
-3.8065 2.0705 -2.5017 0.9802
-3.8789 1.9315 -2.5017 0.9802
-3.9461 1.7900 -2.5017 0.9802
-4.1167 1.3523 -2.5017 0.9802
-4.2389 0.8987 -2.5017 0.9802
-4.3314 0.1218 -2.5017 0.9802
-4.3330 -0.0348 -2.5017 0.9802
-4.2827 -0.6590 -2.5017 0.9802
-4.0405 -1.5654 -2.5017 0.9802
-3.9168 -1.8532 -2.5017 0.9802
-3.7727 -2.1314 -2.5017 0.9802
-3.6088 -2.3984 -2.5017 0.9802
