ply
format ascii 1.0
element vertex 487
property float32 x
property float32 y
property float32 z
property float32 I
end_header
44.2388 -16.5321 8.3274 0.8255
46.7385 -13.6899 8.5875 0.8205
47.1824 -1.4392 8.3234 0.8255
47.0812 3.7060 8.3274 0.8255
32.0165 -28.1442 6.5304 0.8416
32.3839 -24.5379 6.2244 0.8484
47.1225 -13.8024 7.5222 0.8198
47.1755 -10.1655 7.3929 0.8226
47.2273 -6.6332 7.3060 0.8245
47.2530 -4.8934 7.2776 0.8251
47.3300 0.2772 7.2508 0.8257
47.3558 1.9998 7.2611 0.8255
47.3819 3.7297 7.2811 0.8250
47.4082 5.4714 7.3109 0.8244
47.5179 12.6559 7.5333 0.8196
32.0749 -37.7515 6.4508 0.8189
32.0586 -35.0657 6.1870 0.8256
32.0436 -32.5877 5.9515 0.8316
32.0296 -30.2886 5.7405 0.8371
32.0043 -26.1342 5.3806 0.8465
38.9329 -25.2704 6.0442 0.8293
45.4149 -3.0402 5.9272 0.8323
32.0749 -37.7515 5.3194 0.8193
32.0296 -30.2886 4.7337 0.8375
38.9330 -25.2704 4.9842 0.8297
32.0296 -30.2886 3.7317 0.8378
32.0165 -28.1442 3.6086 0.8427
32.0043 -26.1342 3.4978 0.8472
32.3839 -24.5379 3.4395 0.8495
32.0749 -37.7515 3.0718 0.8199
32.0586 -35.0657 2.9462 0.8266
32.0165 -28.1442 2.6434 0.8430
38.9329 -25.2704 2.8782 0.8303
32.0749 -37.7515 1.9533 0.8201
32.0436 -32.5877 1.8021 0.8328
32.0586 -35.0657 0.8026 0.8269
32.0296 -30.2886 0.7446 0.8383
32.0165 -28.1442 0.7200 0.8432
32.0043 -26.1342 0.6980 0.8476
32.3839 -24.5379 0.6863 0.8500
35.4408 -24.8798 0.7314 0.8409
38.9330 -25.2704 0.7840 0.8305
32.0749 -37.7515 -0.2789 0.8202
32.0586 -35.0657 -0.2675 0.8269
32.0296 -30.2886 -0.2482 0.8383
32.3839 -24.5379 -0.2288 0.8500
38.9329 -25.2704 -0.2613 0.8306
45.0161 -20.6633 -0.2789 0.8203
45.5602 15.7581 -0.2714 0.8246
32.0749 -37.7515 -1.3949 0.8202
32.0436 -32.5877 -1.2869 0.8329
32.0296 -30.2886 -1.2413 0.8383
32.0043 -26.1342 -1.1635 0.8476
32.3839 -24.5379 -1.1441 0.8499
38.3988 -17.6258 -1.1897 0.8444
38.4130 -15.9689 -1.1714 0.8467
38.3945 -8.2734 -1.1059 0.8546
38.5160 -3.9887 -1.0903 0.8565
38.5402 -1.1756 -1.0857 0.8570
38.5522 0.2258 -1.0856 0.8570
38.5643 1.6286 -1.0869 0.8569
38.5763 3.0365 -1.0896 0.8565
38.6008 5.8833 -1.0995 0.8553
38.6259 8.7978 -1.1155 0.8534
38.6387 10.2910 -1.1259 0.8521
38.6790 14.9729 -1.1679 0.8471
30.3341 -35.7025 -2.3759 0.8289
31.2582 -34.1901 -2.3494 0.8307
32.0296 -30.2886 -2.2356 0.8382
32.3839 -24.5379 -2.0605 0.8498
38.8576 -25.2215 -2.3494 0.8307
39.7485 -23.7927 -2.3494 0.8307
40.5868 -22.3324 -2.3494 0.8307
38.4268 -14.3602 -2.0804 0.8485
38.4403 -12.7935 -2.0546 0.8502
38.4663 -9.7642 -2.0127 0.8530
38.4914 -6.8409 -1.9827 0.8551
38.5037 -5.4079 -1.9719 0.8558
38.5402 -1.1756 -1.9554 0.8569
38.5763 3.0365 -1.9624 0.8564
38.5885 4.4535 -1.9700 0.8559
38.6008 5.8833 -1.9802 0.8552
38.6259 8.7978 -2.0091 0.8533
38.6790 14.9729 -2.1034 0.8469
25.6264 -22.5269 -2.5018 0.8721
27.9258 -19.6042 -2.5018 0.8721
28.6198 -18.5764 -2.5018 0.8721
29.2760 -17.5240 -2.5018 0.8721
30.1235 -15.1760 -2.4732 0.8735
30.1189 -13.8251 -2.4299 0.8755
30.1138 -12.5188 -2.3912 0.8774
30.4020 -10.1182 -2.3494 0.8794
31.8711 -3.3005 -2.3494 0.8794
32.0266 -0.9769 -2.3494 0.8794
32.0130 1.3519 -2.3494 0.8794
31.8303 3.6735 -2.3494 0.8794
31.6757 4.8279 -2.3494 0.8794
31.4793 5.9758 -2.3494 0.8794
30.6420 9.3662 -2.3494 0.8794
29.9060 11.5768 -2.3513 0.8793
16.8726 -19.8586 -2.5018 0.9006
17.5831 -19.2323 -2.5018 0.9006
20.1841 -16.4819 -2.5018 0.9006
21.8579 -14.1874 -2.5018 0.9006
22.3590 -13.3837 -2.5018 0.9006
22.8306 -12.5623 -2.5018 0.9006
23.2721 -11.7243 -2.5018 0.9006
24.0622 -10.0030 -2.5018 0.9006
25.0079 -7.3249 -2.5018 0.9006
25.2575 -6.4113 -2.5018 0.9006
25.4738 -5.4892 -2.5018 0.9006
25.6566 -4.5598 -2.5018 0.9006
25.8053 -3.6244 -2.5018 0.9006
26.0004 -1.7405 -2.5018 0.9006
25.7611 3.9264 -2.5018 0.9006
24.9204 7.6173 -2.5018 0.9006
24.3013 9.4072 -2.5018 0.9006
14.2110 -15.5439 -2.5018 0.9187
15.3025 -14.4707 -2.5018 0.9187
15.8182 -13.9050 -2.5018 0.9187
16.7865 -12.7194 -2.5018 0.9187
18.0710 -10.8169 -2.5018 0.9187
18.4521 -10.1531 -2.5018 0.9187
19.4475 -8.0846 -2.5018 0.9187
20.5885 -4.4364 -2.5018 0.9187
20.7361 -3.6853 -2.5018 0.9187
20.8563 -2.9293 -2.5018 0.9187
21.0512 -0.6421 -2.5018 0.9187
21.0607 0.1233 -2.5018 0.9187
21.0423 0.8886 -2.5018 0.9187
20.9222 2.4146 -2.5018 0.9187
20.8206 3.1734 -2.5018 0.9187
20.6915 3.9279 -2.5018 0.9187
20.5351 4.6773 -2.5018 0.9187
20.3516 5.4204 -2.5018 0.9187
20.1412 6.1564 -2.5018 0.9187
19.9041 6.8843 -2.5018 0.9187
19.6408 7.6031 -2.5018 0.9187
11.4324 -13.4557 -2.5018 0.9312
12.3796 -12.5898 -2.5018 0.9312
13.2613 -11.6573 -2.5018 0.9312
15.7686 -7.9441 -2.5018 0.9312
16.0469 -7.3658 -2.5018 0.9312
16.5395 -6.1808 -2.5018 0.9312
16.7531 -5.5757 -2.5018 0.9312
16.9447 -4.9632 -2.5018 0.9312
17.2604 -3.7193 -2.5018 0.9312
17.3842 -3.0896 -2.5018 0.9312
17.6172 -1.1793 -2.5018 0.9312
17.6484 -0.5383 -2.5018 0.9312
17.6563 0.1034 -2.5018 0.9312
17.6409 0.7450 -2.5018 0.9312
17.6022 1.3856 -2.5018 0.9312
17.5402 2.0243 -2.5018 0.9312
17.3468 3.2930 -2.5018 0.9312
17.0618 4.5442 -2.5018 0.9312
16.8854 5.1613 -2.5018 0.9312
9.8328 -11.5730 -2.5018 0.9403
11.0339 -10.4341 -2.5018 0.9403
11.4058 -10.0263 -2.5018 0.9403
11.7627 -9.6052 -2.5018 0.9403
13.0302 -7.7996 -2.5018 0.9403
14.0227 -5.8295 -2.5018 0.9403
14.2253 -5.3160 -2.5018 0.9403
14.4091 -4.7955 -2.5018 0.9403
14.7194 -3.7363 -2.5018 0.9403
14.8454 -3.1989 -2.5018 0.9403
15.0385 -2.1122 -2.5018 0.9403
15.1522 -1.0143 -2.5018 0.9403
15.1791 -0.4630 -2.5018 0.9403
15.1859 0.0889 -2.5018 0.9403
15.1393 1.1917 -2.5018 0.9403
15.0128 2.2882 -2.5018 0.9403
14.9197 2.8322 -2.5018 0.9403
14.8070 3.3726 -2.5018 0.9403
14.5228 4.4391 -2.5018 0.9403
14.1621 5.4822 -2.5018 0.9403
8.6181 -10.1432 -2.5018 0.9473
10.6086 -8.0383 -2.5018 0.9473
10.8937 -7.6474 -2.5018 0.9473
11.1644 -7.2465 -2.5018 0.9473
12.0965 -5.5525 -2.5018 0.9473
12.2903 -5.1092 -2.5018 0.9473
12.9009 -3.2747 -2.5018 0.9473
13.1046 -2.3290 -2.5018 0.9473
13.1806 -1.8512 -2.5018 0.9473
13.2392 -1.3710 -2.5018 0.9473
13.3097 0.0779 -2.5018 0.9473
13.2981 0.5616 -2.5018 0.9473
13.2222 1.5260 -2.5018 0.9473
13.1580 2.0055 -2.5018 0.9473
13.0765 2.4823 -2.5018 0.9473
12.8616 3.4256 -2.5018 0.9473
12.7286 3.8907 -2.5018 0.9473
7.6632 -9.0194 -2.5018 0.9528
8.2981 -8.4390 -2.5018 0.9528
8.5993 -8.1319 -2.5018 0.9528
8.8892 -7.8140 -2.5018 0.9528
9.1672 -7.4858 -2.5018 0.9528
10.1551 -6.0786 -2.5018 0.9528
10.3693 -5.7056 -2.5018 0.9528
10.5698 -5.3250 -2.5018 0.9528
10.7563 -4.9373 -2.5018 0.9528
11.3582 -3.3268 -2.5018 0.9528
11.4716 -2.9119 -2.5018 0.9528
11.5698 -2.4931 -2.5018 0.9528
11.6528 -2.0710 -2.5018 0.9528
11.7203 -1.6461 -2.5018 0.9528
4.5771 -0.3064 -0.9697 0.9814
4.5784 -0.1397 -0.9682 0.9814
4.5804 0.0268 -0.9682 0.9814
4.5809 0.1935 -0.9692 0.9814
4.6952 0.3696 -0.9955 0.9809
11.5398 2.6284 -2.5018 0.9528
11.1852 3.8687 -2.5018 0.9528
11.0372 4.2726 -2.5018 0.9528
6.8923 -8.1121 -2.5018 0.9572
7.4633 -7.5900 -2.5018 0.9572
7.9949 -7.0279 -2.5018 0.9572
8.2450 -6.7327 -2.5018 0.9572
8.4843 -6.4287 -2.5018 0.9572
8.7123 -6.1161 -2.5018 0.9572
9.1335 -5.4671 -2.5018 0.9572
9.5065 -4.7893 -2.5018 0.9572
9.8292 -4.0862 -2.5018 0.9572
10.1000 -3.3614 -2.5018 0.9572
10.2155 -2.9922 -2.5018 0.9572
10.3175 -2.6190 -2.5018 0.9572
10.4805 -1.8626 -2.5018 0.9572
10.5413 -1.4805 -2.5018 0.9572
4.2465 -0.4398 -1.0034 0.9826
4.2196 -0.1287 -0.9922 0.9828
10.4580 1.9853 -2.5018 0.9572
10.3789 2.3640 -2.5018 0.9572
10.2861 2.7396 -2.5018 0.9572
6.2563 -7.3634 -2.5018 0.9609
6.5197 -7.1312 -2.5018 0.9609
6.7746 -6.8896 -2.5018 0.9609
7.7013 -5.8354 -2.5018 0.9609
8.1047 -5.2606 -2.5018 0.9609
8.4655 -4.6580 -2.5018 0.9609
8.6291 -4.3473 -2.5018 0.9609
8.9221 -3.7091 -2.5018 0.9609
9.0511 -3.3824 -2.5018 0.9609
9.1679 -3.0512 -2.5018 0.9609
9.2728 -2.7160 -2.5018 0.9609
9.4455 -2.0353 -2.5018 0.9609
9.5133 -1.6907 -2.5018 0.9609
4.0618 -0.5705 -1.0620 0.9832
3.9704 -0.2658 -1.0303 0.9837
3.9711 -0.1211 -1.0287 0.9837
3.9738 0.1678 -1.0298 0.9837
4.5976 0.5306 -1.1983 0.9811
9.4928 1.8020 -2.5018 0.9609
9.3369 2.4868 -2.5018 0.9609
9.2403 2.8244 -2.5018 0.9609
9.0108 3.4881 -2.5018 0.9609
5.7220 -6.7346 -2.5018 0.9639
5.9629 -6.5222 -2.5018 0.9639
6.1961 -6.3012 -2.5018 0.9639
6.4209 -6.0719 -2.5018 0.9639
6.8450 -5.5895 -2.5018 0.9639
7.0436 -5.3370 -2.5018 0.9639
7.4127 -4.8114 -2.5018 0.9639
8.0316 -3.6866 -2.5018 0.9639
8.2781 -3.0935 -2.5018 0.9639
8.3850 -2.7907 -2.5018 0.9639
8.5656 -2.1742 -2.5018 0.9639
8.6390 -1.8615 -2.5018 0.9639
3.7866 -0.3921 -1.0777 0.9843
3.7938 -0.1157 -1.0745 0.9843
3.8034 0.2994 -1.0801 0.9843
8.6166 1.9626 -2.5018 0.9639
8.4513 2.5832 -2.5018 0.9639
5.9098 -5.5885 -2.5018 0.9665
6.1090 -5.3701 -2.5018 0.9665
6.3001 -5.1445 -2.5018 0.9665
6.9790 -4.1775 -2.5018 0.9665
7.2639 -3.6595 -2.5018 0.9665
7.8058 -2.2863 -2.5018 0.9665
8.0082 -1.4233 -2.5018 0.9665
3.6323 -0.2432 -1.1197 0.9849
3.6356 -0.1109 -1.1188 0.9849
3.6361 0.0213 -1.1184 0.9849
3.6340 0.1535 -1.1187 0.9849
3.6311 0.2858 -1.1203 0.9849
3.6906 0.4259 -1.1427 0.9846
8.0409 1.2255 -2.5018 0.9665
7.9910 1.5169 -2.5018 0.9665
7.9306 1.8063 -2.5018 0.9665
7.8597 2.0934 -2.5018 0.9665
7.7785 2.3776 -2.5018 0.9665
7.6869 2.6587 -2.5018 0.9665
7.5852 2.9363 -2.5018 0.9665
4.8732 -5.7355 -2.5018 0.9688
5.8295 -4.7603 -2.5018 0.9688
6.1599 -4.3243 -2.5018 0.9688
6.3130 -4.0976 -2.5018 0.9688
6.7214 -3.3862 -2.5018 0.9688
6.8401 -3.1397 -2.5018 0.9688
6.9496 -2.8891 -2.5018 0.9688
7.1411 -2.3767 -2.5018 0.9688
3.5008 -0.4917 -1.1751 0.9852
3.4956 -0.1066 -1.1625 0.9854
3.4954 0.0205 -1.1619 0.9854
3.4928 0.1475 -1.1620 0.9854
3.5064 0.2760 -1.1691 0.9853
3.5297 0.4074 -1.1811 0.9851
7.4403 1.1340 -2.5018 0.9688
7.3942 1.4036 -2.5018 0.9688
7.1975 2.2000 -2.5018 0.9688
7.1128 2.4601 -2.5018 0.9688
4.5297 -5.3313 -2.5018 0.9707
4.7205 -5.1632 -2.5018 0.9707
5.2544 -4.6188 -2.5018 0.9707
5.5759 -4.2250 -2.5018 0.9707
5.7258 -4.0195 -2.5018 0.9707
5.8681 -3.8088 -2.5018 0.9707
6.0026 -3.5930 -2.5018 0.9707
6.1293 -3.3725 -2.5018 0.9707
6.3580 -2.9184 -2.5018 0.9707
6.6379 -2.2092 -2.5018 0.9707
6.8389 -1.4736 -2.5018 0.9707
3.3861 -0.4756 -1.2228 0.9856
3.3935 -0.2272 -1.2163 0.9857
3.5374 0.5392 -1.2796 0.9849
6.8731 1.3047 -2.5018 0.9707
6.7602 1.8005 -2.5018 0.9707
6.6115 2.2868 -2.5018 0.9707
4.5772 -4.6549 -2.5018 0.9724
4.7433 -4.4855 -2.5018 0.9724
4.9032 -4.3101 -2.5018 0.9724
5.0566 -4.1291 -2.5018 0.9724
5.3431 -3.7509 -2.5018 0.9724
5.6015 -3.3529 -2.5018 0.9724
6.0281 -2.5060 -2.5018 0.9724
6.1942 -2.0615 -2.5018 0.9724
6.2651 -1.8351 -2.5018 0.9724
6.3276 -1.6062 -2.5018 0.9724
6.3818 -1.3752 -2.5018 0.9724
3.3554 -0.5963 -1.3060 0.9855
3.3481 -0.3467 -1.2899 0.9857
3.3449 -0.1020 -1.2824 0.9858
3.3458 0.0196 -1.2822 0.9858
3.3484 0.1414 -1.2843 0.9857
3.3510 0.2638 -1.2881 0.9857
3.3512 0.3868 -1.2928 0.9857
3.3846 0.5159 -1.3120 0.9854
6.4137 1.2175 -2.5018 0.9724
6.1697 2.1339 -2.5018 0.9724
6.0880 2.3567 -2.5018 0.9724
3.9579 -4.6583 -2.5018 0.9739
4.1246 -4.5114 -2.5018 0.9739
4.4413 -4.1999 -2.5018 0.9739
4.7347 -3.8662 -2.5018 0.9739
4.8720 -3.6916 -2.5018 0.9739
5.0030 -3.5121 -2.5018 0.9739
5.2449 -3.1395 -2.5018 0.9739
5.3555 -2.9468 -2.5018 0.9739
5.4590 -2.7502 -2.5018 0.9739
5.5554 -2.5500 -2.5018 0.9739
5.9248 -1.5039 -2.5018 0.9739
3.3206 -0.4664 -1.3724 0.9856
3.3208 -0.2223 -1.3622 0.9857
3.3207 -0.1013 -1.3597 0.9857
3.3238 0.2616 -1.3645 0.9857
3.3214 0.3833 -1.3684 0.9857
5.9067 1.5732 -2.5018 0.9739
3.8734 -4.2366 -2.5018 0.9753
4.0248 -4.0931 -2.5018 0.9753
4.4463 -3.6308 -2.5018 0.9753
4.5753 -3.4668 -2.5018 0.9753
4.8150 -3.1253 -2.5018 0.9753
5.0293 -2.7673 -2.5018 0.9753
5.1265 -2.5827 -2.5018 0.9753
5.2170 -2.3947 -2.5018 0.9753
5.3006 -2.2035 -2.5018 0.9753
5.3772 -2.0095 -2.5018 0.9753
5.4467 -1.8127 -2.5018 0.9753
5.5639 -1.4123 -2.5018 0.9753
3.3491 -0.7217 -1.4931 0.9852
3.2947 -0.4627 -1.4500 0.9856
3.2956 -0.3413 -1.4440 0.9856
3.2956 -0.1005 -1.4370 0.9857
3.2961 0.0193 -1.4365 0.9857
3.2954 0.3803 -1.4458 0.9856
3.3172 0.5056 -1.4624 0.9855
5.5470 1.4774 -2.5018 0.9753
5.4896 1.6780 -2.5018 0.9753
5.3533 2.0723 -2.5018 0.9753
4.0593 -3.5683 -2.5018 0.9765
4.1863 -3.4184 -2.5018 0.9765
4.4235 -3.1054 -2.5018 0.9765
4.5335 -2.9425 -2.5018 0.9765
4.9120 -2.2547 -2.5018 0.9765
4.9906 -2.0747 -2.5018 0.9765
5.0628 -1.8919 -2.5018 0.9765
5.1282 -1.7067 -2.5018 0.9765
5.1868 -1.5192 -2.5018 0.9765
3.2715 -0.5814 -1.5381 0.9855
3.2683 -0.0997 -1.5136 0.9857
3.2687 0.0191 -1.5131 0.9857
3.2717 0.1382 -1.5158 0.9857
3.2739 0.2577 -1.5201 0.9856
3.2734 0.3778 -1.5253 0.9856
5.1687 1.5799 -2.5018 0.9765
5.1078 1.7667 -2.5018 0.9765
3.3023 -3.8867 -2.5018 0.9775
3.5759 -3.6366 -2.5018 0.9775
4.4684 -2.4587 -2.5018 0.9775
4.5548 -2.2947 -2.5018 0.9775
4.7775 -1.7853 -2.5018 0.9775
4.8946 -1.4336 -2.5018 0.9775
4.9434 -1.2548 -2.5018 0.9775
3.2886 -0.7086 -1.6502 0.9851
3.2492 -0.4564 -1.6094 0.9855
3.2450 -0.2172 -1.5953 0.9856
3.2418 -0.0989 -1.5909 0.9857
3.2443 0.0190 -1.5914 0.9856
3.2479 0.1372 -1.5946 0.9856
3.2504 0.2559 -1.5994 0.9856
3.2517 0.3753 -1.6056 0.9855
3.2528 0.4958 -1.6140 0.9854
3.3476 0.6355 -1.6714 0.9849
4.8774 1.4909 -2.5018 0.9775
4.8200 1.6671 -2.5018 0.9775
4.7563 1.8412 -2.5018 0.9775
3.1224 -3.6750 -2.5018 0.9785
3.3811 -3.4385 -2.5018 0.9785
3.5039 -3.3134 -2.5018 0.9785
3.7352 -3.0502 -2.5018 0.9785
3.8437 -2.9124 -2.5018 0.9785
4.0450 -2.6255 -2.5018 0.9785
4.1378 -2.4768 -2.5018 0.9785
4.2251 -2.3248 -2.5018 0.9785
4.3068 -2.1697 -2.5018 0.9785
4.3828 -2.0118 -2.5018 0.9785
4.4529 -1.8512 -2.5018 0.9785
4.5173 -1.6881 -2.5018 0.9785
4.5757 -1.5228 -2.5018 0.9785
4.6280 -1.3555 -2.5018 0.9785
3.2267 -0.4532 -1.6904 0.9854
3.2255 -0.3340 -1.6823 0.9855
3.2231 -0.2158 -1.6758 0.9855
3.2200 -0.0982 -1.6713 0.9856
3.2224 0.0189 -1.6718 0.9856
3.2282 0.2541 -1.6799 0.9855
3.2370 0.4934 -1.6987 0.9854
3.3270 0.6316 -1.7568 0.9849
4.7020 1.0710 -2.5018 0.9785
4.6118 1.4097 -2.5018 0.9785
4.5575 1.5763 -2.5018 0.9785
3.0821 -3.3712 -2.5018 0.9794
3.2026 -3.2569 -2.5018 0.9794
3.3188 -3.1384 -2.5018 0.9794
3.4307 -3.0157 -2.5018 0.9794
3.6407 -2.7586 -2.5018 0.9794
3.7385 -2.6245 -2.5018 0.9794
3.9193 -2.3460 -2.5018 0.9794
4.0020 -2.2020 -2.5018 0.9794
4.0793 -2.0551 -2.5018 0.9794
4.2178 -1.7534 -2.5018 0.9794
3.4945 -0.8870 -1.9746 0.9837
3.2040 -0.4500 -1.7721 0.9854
3.2029 -0.3317 -1.7636 0.9854
3.2004 0.0187 -1.7529 0.9855
3.2035 0.1353 -1.7561 0.9855
3.2210 0.4909 -1.7845 0.9853
3.3062 0.6276 -1.8432 0.9848
2.9238 -3.1981 -2.5018 0.9802
3.2545 -2.8609 -2.5018 0.9802
3.3563 -2.7407 -2.5018 0.9802
3.4537 -2.6169 -2.5018 0.9802
3.6346 -2.3592 -2.5018 0.9802
3.7180 -2.2255 -2.5018 0.9802
3.8698 -1.9496 -2.5018 0.9802
3.9381 -1.8077 -2.5018 0.9802
4.0012 -1.6634 -2.5018 0.9802
4.0590 -1.5169 -2.5018 0.9802
4.1585 -1.2180 -2.5018 0.9802
3.4440 -0.8742 -2.0515 0.9837
3.2083 -0.6913 -1.8948 0.9850
3.1800 -0.3293 -1.8458 0.9853
3.1783 -0.2128 -1.8391 0.9854
3.1828 0.2505 -1.8433 0.9854
3.2048 0.4885 -1.8716 0.9851
4.1439 1.2666 -2.5018 0.9802
