ply
format ascii 1.0
element vertex 491
property float32 x
property float32 y
property float32 z
property float32 I
end_header
3.6913 32.6703 5.7973 0.8750
0.1133 31.3004 5.5191 0.8806
-1.9813 28.6806 5.0692 0.8898
3.6954 32.7068 5.0424 0.8753
0.1210 33.4186 5.1196 0.8735
-1.0912 33.3813 5.1166 0.8736
-1.9286 27.9173 4.2870 0.8929
-2.9331 27.7599 4.2763 0.8932
3.2878 7.7144 1.0920 0.9667
3.6951 32.7038 4.2858 0.8757
-0.9362 28.6418 3.7317 0.8908
29.7029 35.7515 4.9912 0.8295
0.1218 33.6458 3.6130 0.8734
-1.9582 28.3461 3.0511 0.8920
29.7029 35.7515 3.9347 0.8298
3.2871 7.7126 0.7097 0.9669
3.6944 32.6979 2.7856 0.8763
29.7029 35.7515 2.8823 0.8300
-1.0448 31.9642 1.9832 0.8797
-2.2351 32.3549 2.0111 0.8781
29.7029 35.7515 1.8328 0.8302
3.2863 7.7109 0.3305 0.9670
3.6938 32.6921 1.2973 0.8766
29.7029 35.7515 0.7851 0.8303
3.2860 7.7100 0.1416 0.9670
0.7344 6.4995 0.1105 0.9742
38.6311 27.7820 -0.2679 0.8267
0.7343 6.4994 -0.0368 0.9742
0.4963 6.4997 -0.0367 0.9743
0.2629 6.5838 -0.0371 0.9740
0.0238 6.5841 -0.0371 0.9740
-0.2152 6.5844 -0.0371 0.9740
38.6931 16.6194 -1.1858 0.8449
38.7229 20.0752 -1.2282 0.8398
38.7550 23.8077 -1.2807 0.8336
38.8090 30.1053 -1.3830 0.8216
0.0238 6.5840 -0.1854 0.9740
-0.2152 6.5843 -0.1855 0.9740
-0.4549 6.5846 -0.1858 0.9739
38.6931 16.6194 -2.1356 0.8448
38.7229 20.0752 -2.2120 0.8397
38.7386 21.9024 -2.2569 0.8367
38.7550 23.8077 -2.3067 0.8335
35.5487 29.7038 -2.3494 0.8307
34.4474 30.9743 -2.3494 0.8307
33.3007 32.2039 -2.3494 0.8307
30.8773 34.5344 -2.3494 0.8307
29.6758 35.7188 -2.3551 0.8303
29.6233 38.4102 -2.4600 0.8234
28.6891 40.1300 -2.5018 0.8207
24.1581 43.0101 -2.5018 0.8207
20.9750 44.6490 -2.5018 0.8207
12.5288 47.5379 -2.4932 0.8213
9.0337 48.2456 -2.4893 0.8215
7.2718 48.5060 -2.4874 0.8216
0.7343 6.4992 -0.3317 0.9741
0.0238 6.5839 -0.3339 0.9740
-0.2152 6.5842 -0.3341 0.9740
-0.6957 6.5848 -0.3358 0.9738
29.8773 12.8328 -2.3842 0.8777
29.8378 15.4689 -2.4643 0.8739
27.7006 19.9212 -2.5018 0.8721
26.9594 20.9133 -2.5018 0.8721
25.3716 22.8135 -2.5018 0.8721
24.5270 23.7193 -2.5018 0.8721
22.7421 25.4356 -2.5018 0.8721
21.8041 26.2442 -2.5018 0.8721
20.8374 27.0181 -2.5018 0.8721
17.7778 29.1226 -2.5018 0.8721
16.7093 29.7485 -2.5018 0.8721
15.6187 30.3353 -2.5018 0.8721
14.5076 30.8821 -2.5018 0.8721
12.2296 31.8530 -2.5018 0.8721
5.8972 31.4941 -2.3494 0.8794
4.7504 31.6874 -2.3494 0.8794
-0.2152 6.5841 -0.4830 0.9739
-0.4548 6.5844 -0.4839 0.9739
-0.6957 6.5847 -0.4855 0.9738
23.9434 10.2841 -2.5018 0.9006
23.5544 11.1462 -2.5018 0.9006
23.1344 11.9936 -2.5018 0.9006
22.2036 13.6400 -2.5018 0.9006
21.6940 14.4367 -2.5018 0.9006
20.5898 15.9721 -2.5018 0.9006
19.9966 16.7088 -2.5018 0.9006
19.3771 17.4234 -2.5018 0.9006
18.0624 18.7829 -2.5018 0.9006
16.6525 20.0435 -2.5018 0.9006
15.1549 21.1985 -2.5018 0.9006
14.3757 21.7345 -2.5018 0.9006
13.5775 22.2418 -2.5018 0.9006
12.7614 22.7199 -2.5018 0.9006
11.0800 23.5856 -2.5018 0.9006
7.5511 24.9405 -2.5018 0.9006
5.3737 23.8738 -2.3494 0.9063
4.5039 24.0531 -2.3494 0.9063
3.6347 24.2448 -2.3536 0.9062
0.2629 6.5834 -0.6325 0.9739
0.0238 6.5837 -0.6321 0.9739
-0.2152 6.5840 -0.6324 0.9739
-0.4548 6.5843 -0.6336 0.9738
-0.6957 6.5846 -0.6357 0.9737
19.0371 9.0086 -2.5018 0.9187
18.3336 10.3656 -2.5018 0.9187
17.9454 11.0241 -2.5018 0.9187
17.5335 11.6680 -2.5018 0.9187
17.0985 12.2966 -2.5018 0.9187
14.0379 15.7005 -2.5018 0.9187
12.8622 16.6773 -2.5018 0.9187
12.2485 17.1330 -2.5018 0.9187
11.6187 17.5664 -2.5018 0.9187
10.9736 17.9763 -2.5018 0.9187
9.6409 18.7248 -2.5018 0.9187
7.5489 19.6617 -2.5018 0.9187
6.8304 19.9226 -2.5018 0.9187
5.0405 19.1250 -2.3494 0.9234
3.6471 19.4778 -2.3539 0.9233
0.7343 6.4989 -0.7769 0.9740
0.0238 6.5836 -0.7820 0.9738
-0.6957 6.5845 -0.7865 0.9737
16.2234 6.9683 -2.5018 0.9312
15.9599 7.5524 -2.5018 0.9312
15.6753 8.1266 -2.5018 0.9312
15.3701 8.6901 -2.5018 0.9312
15.0446 9.2421 -2.5018 0.9312
13.9511 10.8223 -2.5018 0.9312
13.5492 11.3214 -2.5018 0.9312
12.6924 12.2743 -2.5018 0.9312
12.2386 12.7268 -2.5018 0.9312
11.2833 13.5810 -2.5018 0.9312
10.2686 14.3636 -2.5018 0.9312
9.7406 14.7267 -2.5018 0.9312
9.1998 15.0705 -2.5018 0.9312
7.5075 15.9810 -2.5018 0.9312
3.2834 7.7039 -1.1866 0.9667
5.9431 15.4793 -2.3494 0.9352
5.3775 15.6848 -2.3494 0.9352
4.8048 15.8696 -2.3494 0.9352
3.6485 16.2092 -2.3541 0.9351
3.0587 16.3349 -2.3547 0.9351
0.7343 6.4988 -0.9267 0.9739
0.4963 6.4991 -0.9235 0.9740
0.2629 6.5832 -0.9335 0.9737
0.0238 6.5835 -0.9328 0.9738
-0.2152 6.5838 -0.9333 0.9737
-0.4548 6.5841 -0.9351 0.9737
-0.6957 6.5844 -0.9381 0.9736
12.3290 8.8665 -2.5018 0.9403
11.6534 9.7374 -2.5018 0.9403
11.2924 10.1538 -2.5018 0.9403
10.9165 10.5569 -2.5018 0.9403
9.2743 12.0252 -2.5018 0.9403
8.8319 12.3539 -2.5018 0.9403
8.3777 12.6662 -2.5018 0.9403
7.9125 12.9619 -2.5018 0.9403
6.0637 12.9077 -2.3494 0.9438
3.2830 7.7031 -1.3794 0.9666
5.1116 13.3135 -2.3494 0.9438
4.6251 13.4902 -2.3494 0.9438
4.1344 13.6554 -2.3504 0.9438
3.6396 13.8098 -2.3527 0.9437
0.0238 6.5834 -1.0845 0.9737
-0.6957 6.5843 -1.0907 0.9735
12.2296 5.2528 -2.5018 0.9473
12.0310 5.6932 -2.5018 0.9473
11.8164 6.1260 -2.5018 0.9473
11.3410 6.9669 -2.5018 0.9473
10.8058 7.7711 -2.5018 0.9473
9.8973 8.8994 -2.5018 0.9473
9.5678 9.2527 -2.5018 0.9473
8.8715 9.9223 -2.5018 0.9473
6.9350 11.3605 -2.5018 0.9473
6.1211 10.8978 -2.3494 0.9504
5.7216 11.1127 -2.3494 0.9504
3.2766 7.6880 -1.5708 0.9666
3.1889 12.0995 -2.3519 0.9503
2.3036 12.3026 -2.3526 0.9503
0.4963 6.4989 -1.2251 0.9738
0.0238 6.5833 -1.2374 0.9736
10.6980 5.0624 -2.5018 0.9528
9.8530 6.5569 -2.5018 0.9528
8.8007 7.9134 -2.5018 0.9528
8.5078 8.2276 -2.5018 0.9528
7.8886 8.8230 -2.5018 0.9528
7.2279 9.3719 -2.5018 0.9528
6.8831 9.6280 -2.5018 0.9528
6.1315 9.2701 -2.3494 0.9556
5.7910 9.4865 -2.3494 0.9556
5.4430 9.6904 -2.3494 0.9556
5.0877 9.8815 -2.3494 0.9556
3.6435 7.7559 -1.8113 0.9656
3.2546 7.6363 -1.7547 0.9666
3.9853 10.3800 -2.3503 0.9556
2.4430 10.8534 -2.3516 0.9555
2.0478 10.9363 -2.3519 0.9555
1.6496 11.0034 -2.3519 0.9555
0.7342 6.4985 -1.3824 0.9736
0.4963 6.4988 -1.3777 0.9737
0.2629 6.5829 -1.3926 0.9734
0.0238 6.5832 -1.3916 0.9734
-0.4548 6.5838 -1.3950 0.9734
9.0700 5.5718 -2.5018 0.9572
8.1685 6.8254 -2.5018 0.9572
7.6519 7.3999 -2.5018 0.9572
7.3784 7.6727 -2.5018 0.9572
7.0950 7.9354 -2.5018 0.9572
4.8954 8.7155 -2.3494 0.9598
3.6060 7.6760 -1.9932 0.9658
3.2443 7.6122 -1.9448 0.9666
3.5838 9.3341 -2.3499 0.9597
2.8981 9.5719 -2.3505 0.9597
2.1967 9.7593 -2.3510 0.9597
1.4831 9.8933 -2.3511 0.9597
0.7342 6.4984 -1.5370 0.9735
0.4963 6.4987 -1.5318 0.9736
0.0238 6.5831 -1.5472 0.9733
-0.4548 6.5837 -1.5510 0.9732
-0.6956 6.5840 -1.5560 0.9732
8.8781 3.8133 -2.5018 0.9609
8.7338 4.1329 -2.5018 0.9609
8.5781 4.4472 -2.5018 0.9609
7.1849 6.4605 -2.5018 0.9609
6.9458 6.7170 -2.5018 0.9609
6.6974 6.9646 -2.5018 0.9609
6.4403 7.2030 -2.5018 0.9609
5.2770 7.3815 -2.3494 0.9632
5.0057 7.5681 -2.3494 0.9632
4.4436 7.9112 -2.3494 0.9632
4.1536 8.0672 -2.3494 0.9632
3.5688 7.5969 -2.1732 0.9659
3.2339 7.5880 -2.1357 0.9665
2.9433 8.5849 -2.3498 0.9632
2.6302 8.6871 -2.3501 0.9632
2.3135 8.7778 -2.3503 0.9632
1.6709 8.9234 -2.3506 0.9632
0.4963 6.4986 -1.6875 0.9734
0.2629 6.5827 -1.7057 0.9731
0.0238 6.5830 -1.7044 0.9732
-0.4548 6.5836 -1.7087 0.9731
-0.6956 6.5839 -1.7142 0.9730
7.9880 3.7800 -2.5018 0.9639
7.6928 4.3494 -2.5018 0.9639
7.3571 4.8959 -2.5018 0.9639
7.1746 5.1597 -2.5018 0.9639
6.7815 5.6664 -2.5018 0.9639
6.3526 6.1434 -2.5018 0.9639
6.1255 6.3698 -2.5018 0.9639
5.8903 6.5879 -2.5018 0.9639
4.5782 6.9218 -2.3494 0.9661
4.3241 7.0834 -2.3494 0.9661
4.0641 7.2356 -2.3494 0.9661
3.7989 7.3783 -2.3494 0.9661
3.4654 7.3767 -2.3072 0.9667
2.9610 7.7123 -2.3387 0.9662
2.4052 7.9441 -2.3497 0.9661
1.8230 8.0988 -2.3501 0.9661
1.2308 8.2096 -2.3500 0.9661
0.2629 6.5826 -1.8650 0.9730
0.0238 6.5829 -1.8636 0.9730
-0.2152 6.5832 -1.8646 0.9730
-0.4548 6.5835 -1.8682 0.9729
-0.6956 6.5838 -1.8742 0.9729
7.4735 3.2100 -2.5018 0.9665
7.2210 3.7436 -2.5018 0.9665
6.9305 4.2575 -2.5018 0.9665
6.7714 4.5062 -2.5018 0.9665
6.4268 4.9854 -2.5018 0.9665
6.2416 5.2153 -2.5018 0.9665
3.4965 6.7910 -2.3494 0.9685
3.2477 6.9134 -2.3494 0.9685
2.9947 7.0267 -2.3494 0.9685
2.7378 7.1307 -2.3494 0.9685
2.4772 7.2254 -2.3494 0.9685
2.2135 7.3108 -2.3495 0.9685
1.9469 7.3870 -2.3497 0.9685
0.0238 6.5828 -2.0247 0.9728
-0.2152 6.5831 -2.0259 0.9728
-0.4548 6.5834 -2.0297 0.9728
-0.6956 6.5837 -2.0363 0.9727
6.9153 2.9702 -2.5018 0.9688
6.8029 3.2192 -2.5018 0.9688
6.5516 3.7042 -2.5018 0.9688
5.7754 4.8258 -2.5018 0.9688
5.5965 5.0322 -2.5018 0.9688
5.2168 5.4249 -2.5018 0.9688
5.0165 5.6106 -2.5018 0.9688
4.7945 5.7708 -2.4939 0.9689
4.3163 5.5966 -2.3494 0.9706
3.6826 6.0325 -2.3494 0.9706
3.4612 6.1622 -2.3494 0.9706
3.2354 6.2838 -2.3494 0.9706
2.5333 6.5981 -2.3494 0.9706
1.8012 6.8343 -2.3493 0.9706
1.5521 6.8952 -2.3494 0.9706
1.0479 6.9898 -2.3494 0.9706
0.0238 6.5827 -2.1881 0.9726
-0.2152 6.5830 -2.1894 0.9726
-0.6956 6.5836 -2.2006 0.9725
6.3236 2.9924 -2.5018 0.9707
6.0899 3.4431 -2.5018 0.9707
5.9609 3.6619 -2.5018 0.9707
5.8241 3.8758 -2.5018 0.9707
5.6796 4.0845 -2.5018 0.9707
5.5277 4.2880 -2.5018 0.9707
5.3684 4.4857 -2.5018 0.9707
5.0289 4.8633 -2.5018 0.9707
4.8491 5.0426 -2.5018 0.9707
4.6629 5.2152 -2.5018 0.9707
4.4706 5.3810 -2.5018 0.9707
4.0725 5.2804 -2.3847 0.9721
3.8207 5.3444 -2.3494 0.9725
3.6243 5.4795 -2.3494 0.9725
3.2173 5.7279 -2.3494 0.9725
3.0073 5.8409 -2.3494 0.9725
2.1306 6.2145 -2.3494 0.9725
1.4427 6.4093 -2.3494 0.9725
0.9740 6.4970 -2.3494 0.9725
0.7376 6.5281 -2.3494 0.9725
0.5002 6.5506 -2.3494 0.9725
0.2622 6.5644 -2.3494 0.9725
0.0238 6.5696 -2.3494 0.9725
-0.2146 6.5661 -2.3494 0.9725
-0.4527 6.5540 -2.3494 0.9725
5.9984 2.5764 -2.5018 0.9724
5.7957 3.0047 -2.5018 0.9724
5.6829 3.2130 -2.5018 0.9724
5.5625 3.4171 -2.5018 0.9724
5.3001 3.8116 -2.5018 0.9724
5.1582 4.0014 -2.5018 0.9724
5.0096 4.1859 -2.5018 0.9724
4.8545 4.3650 -2.5018 0.9724
4.6928 4.5383 -2.5018 0.9724
4.1719 5.0214 -2.5018 0.9724
3.9869 5.1694 -2.5018 0.9724
3.6127 5.0533 -2.3805 0.9737
3.3821 5.1133 -2.3494 0.9741
3.1943 5.2327 -2.3494 0.9741
3.0023 5.3451 -2.3494 0.9741
2.8063 5.4506 -2.3494 0.9741
2.6067 5.5488 -2.3494 0.9741
2.1974 5.7233 -2.3494 0.9741
1.9883 5.7992 -2.3494 0.9741
1.5624 5.9282 -2.3494 0.9741
1.3463 5.9809 -2.3494 0.9741
0.9089 6.0628 -2.3494 0.9741
0.6883 6.0918 -2.3494 0.9741
0.4668 6.1128 -2.3494 0.9741
0.2446 6.1257 -2.3494 0.9741
0.0222 6.1305 -2.3494 0.9741
-0.2003 6.1273 -2.3494 0.9741
-0.4225 6.1160 -2.3494 0.9741
5.6165 2.4124 -2.5018 0.9739
5.5253 2.6146 -2.5018 0.9739
5.3211 3.0085 -2.5018 0.9739
5.2084 3.1996 -2.5018 0.9739
5.0888 3.3865 -2.5018 0.9739
4.8298 3.7466 -2.5018 0.9739
4.6907 3.9194 -2.5018 0.9739
4.2370 4.4060 -2.5018 0.9739
2.9909 4.8995 -2.3494 0.9755
2.6277 5.1035 -2.3494 0.9755
2.4407 5.1955 -2.3494 0.9755
2.0575 5.3589 -2.3494 0.9755
1.8617 5.4300 -2.3494 0.9755
1.4629 5.5507 -2.3494 0.9755
1.0565 5.6422 -2.3494 0.9755
0.8511 5.6768 -2.3494 0.9755
0.4371 5.7236 -2.3494 0.9755
0.2291 5.7357 -2.3494 0.9755
-0.1875 5.7372 -2.3494 0.9755
-0.3956 5.7266 -2.3494 0.9755
-0.6031 5.7085 -2.3494 0.9755
5.1887 2.4554 -2.5018 0.9753
5.0962 2.6420 -2.5018 0.9753
4.9970 2.8252 -2.5018 0.9753
4.4050 3.6807 -2.5018 0.9753
4.2686 3.8382 -2.5018 0.9753
4.1265 3.9905 -2.5018 0.9753
3.8262 4.2793 -2.5018 0.9753
2.9408 4.8175 -2.4598 0.9757
2.6839 4.7782 -2.3884 0.9764
2.4677 4.7927 -2.3494 0.9768
2.1135 4.9591 -2.3494 0.9768
1.7483 5.0993 -2.3494 0.9768
1.3738 5.2127 -2.3494 0.9768
0.7992 5.3311 -2.3494 0.9768
0.6053 5.3566 -2.3494 0.9768
0.2152 5.3864 -2.3494 0.9768
-0.3715 5.3779 -2.3494 0.9768
-0.5664 5.3608 -2.3494 0.9768
4.9660 2.1330 -2.5018 0.9765
4.8854 2.3118 -2.5018 0.9765
4.7983 2.4876 -2.5018 0.9765
4.7048 2.6600 -2.5018 0.9765
4.6052 2.8290 -2.5018 0.9765
4.4995 2.9943 -2.5018 0.9765
4.1475 3.4655 -2.5018 0.9765
3.8851 3.7572 -2.5018 0.9765
3.3007 4.2797 -2.5018 0.9765
2.4356 4.7305 -2.4629 0.9768
1.4708 4.8577 -2.3494 0.9779
0.7525 5.0194 -2.3494 0.9779
0.0184 5.0754 -2.3494 0.9779
-0.1658 5.0727 -2.3494 0.9779
4.6862 2.0128 -2.5018 0.9775
4.6101 2.1815 -2.5018 0.9775
4.5279 2.3474 -2.5018 0.9775
4.3457 2.6696 -2.5018 0.9775
4.0298 3.1261 -2.5018 0.9775
3.9137 3.2702 -2.5018 0.9775
3.3995 3.8021 -2.5018 0.9775
2.9661 4.1490 -2.5018 0.9775
2.8136 4.2539 -2.5018 0.9775
2.6574 4.3532 -2.5018 0.9775
2.4977 4.4467 -2.5018 0.9775
2.1686 4.6162 -2.5018 0.9775
1.9996 4.6918 -2.5018 0.9775
1.8038 4.6981 -2.4685 0.9778
1.0615 4.7161 -2.3712 0.9787
0.7101 4.7365 -2.3494 0.9789
0.3647 4.7756 -2.3494 0.9789
0.1912 4.7857 -2.3494 0.9789
0.0174 4.7894 -2.3494 0.9789
-0.1564 4.7869 -2.3494 0.9789
4.4310 1.9032 -2.5018 0.9785
4.3590 2.0627 -2.5018 0.9785
4.2813 2.2196 -2.5018 0.9785
4.1090 2.5242 -2.5018 0.9785
3.9151 2.8156 -2.5018 0.9785
3.8103 2.9558 -2.5018 0.9785
3.7006 3.0921 -2.5018 0.9785
3.5859 3.2244 -2.5018 0.9785
3.4666 3.3524 -2.5018 0.9785
3.3426 3.4760 -2.5018 0.9785
3.0817 3.7092 -2.5018 0.9785
2.9451 3.8186 -2.5018 0.9785
2.8046 3.9230 -2.5018 0.9785
2.6604 4.0222 -2.5018 0.9785
2.5127 4.1161 -2.5018 0.9785
2.3617 4.2045 -2.5018 0.9785
1.8907 4.4363 -2.5018 0.9785
1.7285 4.5020 -2.5018 0.9785
1.0564 4.6931 -2.4956 0.9786
0.7044 4.6988 -2.4649 0.9788
0.3591 4.7022 -2.4465 0.9790
0.0170 4.7034 -2.4400 0.9790
-0.1537 4.7032 -2.4412 0.9790
-0.3248 4.7024 -2.4453 0.9790
3.9762 2.2481 -2.5018 0.9794
3.8920 2.3909 -2.5018 0.9794
3.8027 2.5306 -2.5018 0.9794
3.6092 2.7997 -2.5018 0.9794
3.5052 2.9288 -2.5018 0.9794
3.3966 3.0541 -2.5018 0.9794
3.2835 3.1753 -2.5018 0.9794
3.1661 3.2924 -2.5018 0.9794
3.0446 3.4051 -2.5018 0.9794
2.9190 3.5134 -2.5018 0.9794
2.7896 3.6170 -2.5018 0.9794
2.6564 3.7158 -2.5018 0.9794
2.5199 3.8098 -2.5018 0.9794
2.2369 3.9825 -2.5018 0.9794
2.0909 4.0610 -2.5018 0.9794
1.7909 4.2020 -2.5018 0.9794
1.3237 4.3717 -2.5018 0.9794
0.8407 4.4897 -2.5018 0.9794
0.6772 4.5172 -2.5018 0.9794
0.5129 4.5388 -2.5018 0.9794
0.3478 4.5545 -2.5018 0.9794
-0.1492 4.5653 -2.5018 0.9794
3.9168 1.8535 -2.5018 0.9802
3.7721 2.1327 -2.5018 0.9802
3.6922 2.2681 -2.5018 0.9802
3.6074 2.4006 -2.5018 0.9802
3.5179 2.5299 -2.5018 0.9802
3.4238 2.6559 -2.5018 0.9802
3.1149 3.0123 -2.5018 0.9802
3.0035 3.1233 -2.5018 0.9802
2.3905 3.6141 -2.5018 0.9802
2.1221 3.7780 -2.5018 0.9802
1.8425 3.9220 -2.5018 0.9802
1.6989 3.9862 -2.5018 0.9802
1.4053 4.0990 -2.5018 0.9802
0.9515 4.2274 -2.5018 0.9802
0.7975 4.2591 -2.5018 0.9802
0.6424 4.2853 -2.5018 0.9802
0.4865 4.3058 -2.5018 0.9802
0.3299 4.3206 -2.5018 0.9802
0.1729 4.3297 -2.5018 0.9802
-0.1415 4.3308 -2.5018 0.9802
-0.2986 4.3229 -2.5018 0.9802
