ply
format ascii 1.0
element vertex 603
property float32 x
property float32 y
property float32 z
property float32 I
end_header
-8.1429 25.5201 4.7234 0.8969
-9.1933 25.6221 4.7999 0.8953
-11.4157 25.8572 4.9839 0.8915
-36.9360 14.3773 6.9888 0.8513
-41.8774 12.9517 7.7292 0.8369
-41.5722 11.2515 7.5940 0.8395
-7.9428 24.8930 4.0029 0.8997
-8.9608 24.9742 4.0647 0.8982
-11.1162 25.1790 4.2165 0.8946
-13.4636 25.4243 4.4073 0.8901
-14.3144 24.8482 4.3931 0.8904
-14.4274 21.3670 3.9496 0.9009
-40.4178 20.9439 6.9737 0.8318
-37.6273 16.2125 6.2766 0.8472
-36.3272 14.1403 5.9719 0.8541
-42.0623 9.7904 6.6159 0.8397
-7.7668 24.3415 3.3272 0.9021
-8.7530 24.3951 3.3750 0.9007
-9.7709 24.4544 3.4292 0.8992
-10.8340 24.5398 3.4932 0.8974
-13.6078 23.6216 3.5499 0.8959
-13.4370 21.5150 3.3032 0.9027
-14.4275 21.3672 3.3573 0.9012
-15.5761 21.3843 3.4451 0.8988
-41.3686 21.4366 6.0674 0.8287
-40.6248 19.2477 5.8539 0.8342
-41.1228 17.7186 5.8310 0.8348
-42.2423 16.4428 5.9029 0.8329
-42.8358 13.2481 5.8388 0.8345
-42.8294 11.5918 5.7779 0.8361
-11.6467 24.0258 2.8671 0.8982
-12.9714 22.5169 2.7904 0.9007
-14.4276 21.3674 2.7685 0.9015
-36.2620 27.9250 4.9147 0.8318
-42.2661 25.8757 5.3216 0.8192
-45.0195 17.5238 5.1876 0.8234
-41.8894 12.9554 4.7084 0.8383
-7.5531 23.6717 2.1034 0.9051
-13.3345 21.3509 2.1309 0.9039
-16.7880 21.4023 2.3026 0.8966
-35.3138 29.2566 3.8821 0.8319
-35.2376 27.1362 3.7650 0.8365
-35.1735 25.1429 3.6600 0.8407
-7.3969 23.1822 1.5089 0.9071
-8.3902 23.3839 1.5406 0.9052
-9.4228 23.5832 1.5748 0.9032
-10.4700 23.7152 1.6075 0.9013
-11.5037 23.7307 1.6353 0.8997
-13.3345 21.3509 1.5610 0.9040
-14.4045 21.3331 1.5962 0.9020
-15.5513 21.3502 1.6379 0.8996
-34.6377 28.6965 2.7893 0.8350
-34.6676 26.6972 2.7133 0.8392
-39.4137 24.1295 2.8657 0.8309
-6.6193 20.7450 0.8586 0.9165
-7.4646 20.8041 0.8715 0.9153
-9.2608 20.9764 0.9041 0.9123
-10.1917 21.0242 0.9213 0.9107
-11.1810 21.1140 0.9421 0.9088
-12.2204 21.2133 0.9653 0.9066
-30.0742 28.7634 1.6409 0.8465
-30.0080 26.7196 1.5843 0.8514
-35.6921 23.6391 1.6881 0.8425
-38.6884 23.6854 1.7887 0.8339
-6.4918 20.3456 0.3607 0.9181
-8.1390 20.3702 0.3705 0.9160
-4.3355 6.9419 0.1383 0.9678
-19.2151 22.7766 0.5034 0.8876
-20.6675 22.7983 0.5198 0.8842
-22.2473 22.8496 0.5387 0.8802
-28.4286 27.1895 0.6645 0.8544
-28.4127 23.5392 0.6233 0.8628
-32.1726 22.9978 0.6680 0.8537
-35.7924 23.7055 0.7252 0.8422
-43.1330 24.3379 0.8366 0.8203
-2.3634 6.5872 -0.0394 0.9724
-2.6320 6.5875 -0.0399 0.9720
-3.1937 6.5882 -0.0412 0.9711
-4.3888 6.5000 -0.0442 0.9691
-5.1650 6.5848 -0.0471 0.9671
-5.5555 6.5853 -0.0485 0.9661
-5.9702 6.5858 -0.0500 0.9651
-6.4127 6.5864 -0.0518 0.9639
-6.8871 6.5870 -0.0537 0.9626
-7.3983 6.5877 -0.0558 0.9611
-9.8246 6.5070 -0.0663 0.9540
-10.7885 6.6049 -0.0712 0.9507
-11.7076 6.6061 -0.0757 0.9476
-12.7510 6.6074 -0.0809 0.9442
-13.9490 6.6090 -0.0869 0.9401
-15.1400 6.5235 -0.0928 0.9362
-16.9803 6.6096 -0.1026 0.9297
-18.9586 6.6122 -0.1130 0.9228
-21.3931 6.6165 -0.1261 0.9143
-24.4610 6.6204 -0.1427 0.9036
-28.4500 6.6221 -0.1645 0.8897
-33.8962 6.6265 -0.1945 0.8710
-2.1016 6.5867 -0.1947 0.9727
-2.9084 6.5878 -0.2028 0.9716
-4.1152 6.5893 -0.2187 0.9694
-4.3888 6.4999 -0.2208 0.9691
-4.7347 6.5003 -0.2264 0.9683
-5.1649 6.5847 -0.2356 0.9671
-5.5554 6.5852 -0.2426 0.9661
-5.9701 6.5857 -0.2503 0.9651
-7.9521 6.5882 -0.2908 0.9595
-8.5560 6.5890 -0.3041 0.9577
-9.2187 6.5898 -0.3191 0.9557
-10.7882 6.6047 -0.3562 0.9506
-11.7072 6.6059 -0.3785 0.9476
-12.7506 6.6072 -0.4044 0.9442
-13.9486 6.6088 -0.4346 0.9401
-15.1395 6.5232 -0.4642 0.9362
-18.9578 6.6119 -0.5653 0.9228
-21.3921 6.6161 -0.6305 0.9143
-24.4596 6.6201 -0.7135 0.9036
-2.1016 6.5866 -0.3506 0.9727
-2.3634 6.5870 -0.3549 0.9724
-2.6319 6.5873 -0.3597 0.9720
-2.9083 6.5877 -0.3652 0.9716
-3.4889 6.5884 -0.3781 0.9706
-4.7346 6.5002 -0.4078 0.9683
-5.9700 6.5856 -0.4508 0.9650
-6.4125 6.5861 -0.4662 0.9639
-6.8868 6.5867 -0.4833 0.9626
-7.3980 6.5874 -0.5024 0.9611
-9.2185 6.5897 -0.5747 0.9556
-9.8241 6.5067 -0.5976 0.9539
-10.7879 6.6045 -0.6415 0.9506
-11.7069 6.6057 -0.6817 0.9476
-12.7502 6.6070 -0.7283 0.9441
-18.9570 6.6116 -1.0182 0.9227
-33.8911 6.6256 -1.7513 0.8708
-41.2992 6.5560 -2.1207 0.8458
-45.9818 5.6285 -2.3493 0.8307
-49.1470 4.2456 -2.5017 0.8207
-49.2670 2.4922 -2.5017 0.8207
-2.1016 6.5865 -0.5069 0.9727
-2.6319 6.5872 -0.5201 0.9720
-2.9083 6.5875 -0.5280 0.9715
-3.1935 6.5879 -0.5368 0.9711
-4.7345 6.5001 -0.5896 0.9683
-6.4123 6.5860 -0.6740 0.9638
-6.8867 6.5866 -0.6987 0.9625
-7.3979 6.5872 -0.7263 0.9611
-7.9518 6.5879 -0.7571 0.9594
-9.8238 6.5065 -0.8640 0.9538
-10.7877 6.6044 -0.9274 0.9505
-12.7498 6.6068 -1.0529 0.9440
-13.9476 6.6083 -1.1316 0.9400
-16.9783 6.6088 -1.3359 0.9295
-31.4460 6.1475 -2.3493 0.8794
-31.6451 5.0235 -2.3493 0.8794
-33.8670 4.1455 -2.5017 0.8721
-33.9932 2.9365 -2.5017 0.8721
-34.0762 1.7238 -2.5017 0.8721
-34.1125 -0.7068 -2.5017 0.8721
-33.9756 -3.1337 -2.5017 0.8721
-2.3633 6.5868 -0.6718 0.9723
-2.6319 6.5871 -0.6810 0.9719
-3.7954 6.5886 -0.7300 0.9699
-5.5551 6.5848 -0.8271 0.9660
-5.9697 6.5853 -0.8533 0.9649
-7.3977 6.5871 -0.9510 0.9610
-7.9516 6.5878 -0.9913 0.9594
-9.2180 6.5894 -1.0878 0.9555
-9.8236 6.5063 -1.1312 0.9538
-13.9472 6.6081 -1.4817 0.9399
-16.9776 6.6086 -1.7491 0.9294
-18.9553 6.6110 -1.9273 0.9225
-24.1443 4.7201 -2.3619 0.9059
-25.7361 4.0854 -2.5017 0.9006
-26.0251 1.3165 -2.5017 0.9006
-26.0528 -0.5398 -2.5017 0.9006
-2.1015 6.5863 -0.8212 0.9725
-2.3633 6.5866 -0.8312 0.9722
-2.9082 6.5873 -0.8553 0.9714
-4.3885 6.4994 -0.9315 0.9689
-4.7344 6.4999 -0.9552 0.9681
-5.1646 6.5842 -0.9940 0.9669
-5.5550 6.5847 -1.0233 0.9659
-5.9696 6.5852 -1.0558 0.9648
-6.4121 6.5857 -1.0918 0.9637
-6.8864 6.5863 -1.1319 0.9623
-7.3975 6.5869 -1.1766 0.9609
-7.9514 6.5876 -1.2266 0.9593
-9.2178 6.5892 -1.3459 0.9554
-16.9770 6.6083 -2.1640 0.9292
-18.6747 6.5131 -2.3493 0.9234
-19.0910 5.1670 -2.3493 0.9234
-20.1892 4.6993 -2.4623 0.9199
-20.8005 3.3019 -2.5017 0.9187
-21.0586 0.3141 -2.5017 0.9187
-21.0274 -1.1860 -2.5017 0.9187
-2.1015 6.5862 -0.9795 0.9725
-2.3632 6.5865 -0.9915 0.9721
-2.6318 6.5869 -1.0050 0.9718
-2.9081 6.5872 -1.0202 0.9713
-3.1934 6.5876 -1.0373 0.9709
-3.7953 6.5883 -1.0773 0.9697
-4.1149 6.5887 -1.1007 0.9691
-4.3884 6.4993 -1.1111 0.9688
-4.7343 6.4997 -1.1393 0.9680
-5.1645 6.5841 -1.1856 0.9668
-5.9695 6.5851 -1.2593 0.9647
-7.3973 6.5868 -1.4034 0.9608
-7.9512 6.5875 -1.4630 0.9591
-15.2276 6.5611 -2.3493 0.9352
-15.4516 6.0145 -2.3493 0.9352
-15.6560 5.4603 -2.3493 0.9352
-17.0433 4.6128 -2.5017 0.9312
-17.1967 4.0027 -2.5017 0.9312
-17.6545 0.2633 -2.5017 0.9312
-17.5818 -1.6216 -2.5017 0.9312
-2.1014 6.5861 -1.1389 0.9724
-2.3632 6.5864 -1.1528 0.9720
-3.4886 6.5879 -1.2280 0.9702
-3.7953 6.5882 -1.2525 0.9696
-4.1148 6.5886 -1.2797 0.9690
-5.9694 6.5849 -1.4642 0.9646
-6.4118 6.5855 -1.5142 0.9634
-9.2173 6.5889 -1.8665 0.9551
-12.6619 6.5612 -2.3493 0.9438
-12.8876 6.1060 -2.3493 0.9438
-13.0969 5.6431 -2.3493 0.9438
-13.5348 4.7205 -2.3614 0.9435
-14.6586 3.9674 -2.5017 0.9403
-14.7906 3.4427 -2.5017 0.9403
-14.9039 2.9136 -2.5017 0.9403
-14.9982 2.3809 -2.5017 0.9403
-15.1297 1.3070 -2.5017 0.9403
-15.1828 -0.3146 -2.5017 0.9403
-15.1619 -0.8552 -2.5017 0.9403
-2.1014 6.5860 -1.2994 0.9723
-3.7952 6.5881 -1.4291 0.9695
-4.7341 6.4995 -1.5114 0.9678
-5.5546 6.5843 -1.6191 0.9655
-6.8859 6.5859 -1.7910 0.9620
-7.9508 6.5872 -1.9407 0.9588
-10.6600 6.5262 -2.3493 0.9504
-11.0976 5.7506 -2.3493 0.9504
-11.2954 5.3517 -2.3493 0.9504
-12.5674 4.3831 -2.5017 0.9473
-12.7156 3.9326 -2.5017 0.9473
-12.8476 3.4772 -2.5017 0.9473
-13.0626 2.5537 -2.5017 0.9473
-13.2604 1.1455 -2.5017 0.9473
-13.3084 0.1985 -2.5017 0.9473
-13.3070 -0.2757 -2.5017 0.9473
-13.2887 -0.7495 -2.5017 0.9473
-13.2536 -1.2224 -2.5017 0.9473
-2.1014 6.5859 -1.4613 0.9721
-2.6317 6.5866 -1.4993 0.9714
-2.9080 6.5869 -1.5220 0.9710
-3.1932 6.5873 -1.5474 0.9705
-4.1147 6.5884 -1.6419 0.9687
-6.8858 6.5858 -2.0141 0.9618
-7.3969 6.5864 -2.0935 0.9603
-7.9507 6.5870 -2.1825 0.9587
-8.5544 6.5877 -2.2823 0.9568
-9.2662 6.1371 -2.3493 0.9556
-10.0440 4.7588 -2.3493 0.9556
-10.8692 4.6832 -2.5017 0.9528
-11.1751 3.8975 -2.5017 0.9528
-11.3069 3.4969 -2.5017 0.9528
-11.6154 2.2707 -2.5017 0.9528
-11.6889 1.8555 -2.5017 0.9528
-11.8201 0.5979 -2.5017 0.9528
-11.8327 -0.2452 -2.5017 0.9528
-2.1013 6.5858 -1.6247 0.9720
-2.3631 6.5861 -1.6445 0.9717
-2.9079 6.5868 -1.6922 0.9708
-3.1931 6.5872 -1.7204 0.9704
-3.4884 6.5875 -1.7519 0.9698
-4.1146 6.5883 -1.8255 0.9686
-4.3881 6.4988 -1.8429 0.9683
-5.5544 6.5840 -2.0245 0.9652
-5.9690 6.5845 -2.0887 0.9641
-6.4114 6.5850 -2.1600 0.9629
-6.8856 6.5856 -2.2393 0.9616
-7.4656 6.6475 -2.3493 0.9598
-7.6976 6.3773 -2.3493 0.9598
-7.9199 6.0991 -2.3493 0.9598
-8.3341 5.5197 -2.3493 0.9598
-8.5254 5.2193 -2.3493 0.9598
-8.7059 4.9123 -2.3493 0.9598
-9.0888 4.7097 -2.4058 0.9588
-9.7758 4.2121 -2.5017 0.9572
-9.9196 3.8612 -2.5017 0.9572
-10.3675 2.4131 -2.5017 0.9572
-10.4469 2.0423 -2.5017 0.9572
-10.5130 1.6689 -2.5017 0.9572
-10.5658 1.2933 -2.5017 0.9572
-10.6051 0.9161 -2.5017 0.9572
-10.6310 0.5378 -2.5017 0.9572
-10.6434 0.1587 -2.5017 0.9572
-10.6277 -0.5995 -2.5017 0.9572
-10.5996 -0.9776 -2.5017 0.9572
-3.1931 6.5870 -1.8953 0.9702
-3.4884 6.5874 -1.9300 0.9697
-3.7950 6.5878 -1.9685 0.9691
-4.1145 6.5882 -2.0111 0.9684
-4.7338 6.4991 -2.0818 0.9673
-6.0939 6.7223 -2.3493 0.9632
-6.3298 6.5012 -2.3493 0.9632
-6.5573 6.2716 -2.3493 0.9632
-7.1890 5.5362 -2.3493 0.9632
-7.3816 5.2766 -2.3493 0.9632
-7.5649 5.0103 -2.3493 0.9632
-7.7386 4.7377 -2.3493 0.9632
-8.3242 4.6970 -2.4747 0.9613
-8.7318 4.1371 -2.5017 0.9609
-8.8736 3.8234 -2.5017 0.9609
-9.1233 3.1819 -2.5017 0.9609
-9.3267 2.5243 -2.5017 0.9609
-9.4828 1.8538 -2.5017 0.9609
-9.5907 1.1740 -2.5017 0.9609
-9.6499 0.4882 -2.5017 0.9609
-9.6214 -0.8874 -2.5017 0.9609
-2.1013 6.5856 -1.9569 0.9717
-2.3630 6.5859 -1.9808 0.9713
-2.9079 6.5866 -2.0382 0.9705
-3.1930 6.5869 -2.0722 0.9700
-3.4883 6.5873 -2.1101 0.9695
-4.3879 6.4986 -2.2198 0.9679
-5.3512 6.3431 -2.3493 0.9661
-5.7892 5.9460 -2.3493 0.9661
-5.9974 5.7360 -2.3493 0.9661
-6.5751 5.0634 -2.3493 0.9661
-7.5369 4.6142 -2.5017 0.9639
-7.9861 3.7838 -2.5017 0.9639
-8.1158 3.4969 -2.5017 0.9639
-8.4426 2.6111 -2.5017 0.9639
-8.6071 2.0034 -2.5017 0.9639
-8.6730 1.6955 -2.5017 0.9639
-8.7279 1.3855 -2.5017 0.9639
-8.8044 0.7606 -2.5017 0.9639
-8.8258 0.4465 -2.5017 0.9639
-8.8353 -0.1831 -2.5017 0.9639
-2.1012 6.5855 -2.1261 0.9715
-2.6315 6.5861 -2.1814 0.9708
-3.8128 6.6185 -2.3493 0.9685
-4.2743 6.3303 -2.3493 0.9685
-4.4970 6.1740 -2.3493 0.9685
-4.7141 6.0099 -2.3493 0.9685
-4.9252 5.8381 -2.3493 0.9685
-5.1300 5.6590 -2.3493 0.9685
-5.3284 5.4726 -2.3493 0.9685
-5.5199 5.2794 -2.3493 0.9685
-5.8916 4.8811 -2.3533 0.9685
-6.5685 4.6953 -2.4834 0.9668
-6.7812 4.4913 -2.5017 0.9665
-6.9369 4.2468 -2.5017 0.9665
-7.0838 3.9970 -2.5017 0.9665
-7.2216 3.7422 -2.5017 0.9665
-7.3504 3.4826 -2.5017 0.9665
-7.7705 2.4032 -2.5017 0.9665
-7.8511 2.1249 -2.5017 0.9665
-7.9219 1.8439 -2.5017 0.9665
-8.0734 0.9882 -2.5017 0.9665
-8.1233 0.4109 -2.5017 0.9665
-8.1207 -0.4580 -2.5017 0.9665
-8.0992 -0.7470 -2.5017 0.9665
-2.1012 6.5854 -2.2977 0.9713
-2.6223 6.5632 -2.3493 0.9706
-2.8545 6.4656 -2.3493 0.9706
-3.0830 6.3598 -2.3493 0.9706
-3.5279 6.1242 -2.3493 0.9706
-3.9550 5.8575 -2.3493 0.9706
-4.1612 5.7129 -2.3493 0.9706
-4.7469 5.2363 -2.3493 0.9706
-6.1227 4.3767 -2.5017 0.9688
-6.2747 4.1558 -2.5017 0.9688
-6.5547 3.6985 -2.5017 0.9688
-6.6823 3.4627 -2.5017 0.9688
-6.9118 2.9781 -2.5017 0.9688
-7.0135 2.7300 -2.5017 0.9688
-7.1063 2.4785 -2.5017 0.9688
-7.3863 1.4440 -2.5017 0.9688
-7.4330 1.1800 -2.5017 0.9688
-7.4704 0.9144 -2.5017 0.9688
-7.5165 0.3802 -2.5017 0.9688
-7.5245 -0.1559 -2.5017 0.9688
-7.5142 -0.4238 -2.5017 0.9688
-7.4943 -0.6912 -2.5017 0.9688
-1.9970 6.2587 -2.3493 0.9725
-2.8657 5.9116 -2.3493 0.9725
-3.2793 5.6926 -2.3493 0.9725
-3.6763 5.4447 -2.3493 0.9725
-3.8679 5.3103 -2.3493 0.9725
-4.0546 5.1691 -2.3493 0.9725
-4.4124 4.8673 -2.3493 0.9725
-4.5995 4.7241 -2.3578 0.9724
-5.3871 4.4631 -2.5017 0.9707
-5.5427 4.2684 -2.5017 0.9707
-6.2113 3.2186 -2.5017 0.9707
-6.3221 2.9953 -2.5017 0.9707
-6.5193 2.5376 -2.5017 0.9707
-6.6834 2.0670 -2.5017 0.9707
-6.7528 1.8277 -2.5017 0.9707
-6.9093 1.0968 -2.5017 0.9707
-6.9439 0.8500 -2.5017 0.9707
-6.9698 0.6021 -2.5017 0.9707
-6.9868 0.3534 -2.5017 0.9707
-6.9846 -0.3940 -2.5017 0.9707
-6.9662 -0.6425 -2.5017 0.9707
-1.8635 5.8404 -2.3493 0.9741
-2.0704 5.7704 -2.3493 0.9741
-2.2746 5.6929 -2.3493 0.9741
-2.4760 5.6083 -2.3493 0.9741
-3.0602 5.3122 -2.3493 0.9741
-3.4306 5.0808 -2.3493 0.9741
-3.6094 4.9554 -2.3493 0.9741
-3.9796 4.7173 -2.3651 0.9739
-4.2649 4.7046 -2.4334 0.9732
-4.5541 4.6774 -2.5017 0.9724
-4.7178 4.5122 -2.5017 0.9724
-4.8755 4.3413 -2.5017 0.9724
-5.1723 3.9831 -2.5017 0.9724
-5.3109 3.7964 -2.5017 0.9724
-5.4427 3.6048 -2.5017 0.9724
-5.5677 3.4086 -2.5017 0.9724
-5.8995 2.7952 -2.5017 0.9724
-5.9954 2.5832 -2.5017 0.9724
-6.0836 2.3680 -2.5017 0.9724
-6.1641 2.1498 -2.5017 0.9724
-6.2367 1.9289 -2.5017 0.9724
-6.4069 1.2525 -2.5017 0.9724
-6.4474 1.0235 -2.5017 0.9724
-6.4798 0.7932 -2.5017 0.9724
-6.5040 0.5619 -2.5017 0.9724
-6.5199 0.3298 -2.5017 0.9724
-6.5275 0.0974 -2.5017 0.9724
-6.5268 -0.1352 -2.5017 0.9724
-6.5179 -0.3676 -2.5017 0.9724
-6.5006 -0.5996 -2.5017 0.9724
-1.9386 5.4030 -2.3493 0.9755
-2.1298 5.3305 -2.3493 0.9755
-2.3183 5.2512 -2.3493 0.9755
-2.5039 5.1653 -2.3493 0.9755
-2.6863 5.0729 -2.3493 0.9755
-3.0406 4.8687 -2.3493 0.9755
-3.4331 4.7133 -2.3865 0.9751
-3.6885 4.7023 -2.4460 0.9745
-3.9415 4.6721 -2.5017 0.9739
-4.2642 4.3796 -2.5017 0.9739
-4.4175 4.2249 -2.5017 0.9739
-4.7070 3.8997 -2.5017 0.9739
-4.8430 3.7295 -2.5017 0.9739
-4.9728 3.5547 -2.5017 0.9739
-5.0962 3.3753 -2.5017 0.9739
-5.2132 3.1916 -2.5017 0.9739
-5.3236 3.0039 -2.5017 0.9739
-5.4272 2.8123 -2.5017 0.9739
-5.5239 2.6172 -2.5017 0.9739
-5.6137 2.4188 -2.5017 0.9739
-5.7716 2.0130 -2.5017 0.9739
-5.8397 1.8061 -2.5017 0.9739
-5.9534 1.3857 -2.5017 0.9739
-5.9990 1.1728 -2.5017 0.9739
-6.0673 0.7427 -2.5017 0.9739
-6.0899 0.5261 -2.5017 0.9739
-6.1048 0.3088 -2.5017 0.9739
-6.1113 -0.1266 -2.5017 0.9739
-6.0867 -0.5614 -2.5017 0.9739
-2.3514 4.8508 -2.3493 0.9768
-2.5227 4.7639 -2.3493 0.9768
-2.7168 4.7160 -2.3719 0.9765
-2.9399 4.7073 -2.4188 0.9761
-3.1720 4.6978 -2.4704 0.9756
-3.3796 4.6400 -2.5017 0.9753
-3.7015 4.3875 -2.5017 0.9753
-4.0045 4.1129 -2.5017 0.9753
-4.2871 3.8173 -2.5017 0.9753
-4.4204 3.6622 -2.5017 0.9753
-4.5480 3.5024 -2.5017 0.9753
-4.6699 3.3382 -2.5017 0.9753
-4.7858 3.1697 -2.5017 0.9753
-4.9994 2.8209 -2.5017 0.9753
-5.2718 2.2715 -2.5017 0.9753
-5.3493 2.0822 -2.5017 0.9753
-5.4201 1.8904 -2.5017 0.9753
-5.4840 1.6961 -2.5017 0.9753
-5.5410 1.4997 -2.5017 0.9753
-5.5909 1.3013 -2.5017 0.9753
-5.6337 1.1014 -2.5017 0.9753
-5.6694 0.9000 -2.5017 0.9753
-5.6978 0.6974 -2.5017 0.9753
-5.7160 -0.5272 -2.5017 0.9753
-1.5428 4.8352 -2.3493 0.9779
-1.7141 4.7772 -2.3493 0.9779
-1.8883 4.7261 -2.3558 0.9778
-2.0810 4.7136 -2.3850 0.9775
-2.4886 4.6994 -2.4615 0.9768
-3.3356 4.2525 -2.5017 0.9765
-3.4850 4.1310 -2.5017 0.9765
-3.6299 4.0042 -2.5017 0.9765
-4.0364 3.5941 -2.5017 0.9765
-4.2821 3.2976 -2.5017 0.9765
-4.3968 3.1430 -2.5017 0.9765
-4.5060 2.9844 -2.5017 0.9765
-4.6094 2.8220 -2.5017 0.9765
-4.7070 2.6560 -2.5017 0.9765
-4.7986 2.4866 -2.5017 0.9765
-4.8842 2.3141 -2.5017 0.9765
-5.0365 1.9605 -2.5017 0.9765
-5.2169 1.4120 -2.5017 0.9765
-5.2639 1.2252 -2.5017 0.9765
-5.3042 1.0370 -2.5017 0.9765
-5.3846 0.4652 -2.5017 0.9765
-5.3977 0.2731 -2.5017 0.9765
-5.4035 -0.1120 -2.5017 0.9765
-5.3818 -0.4964 -2.5017 0.9765
-1.5017 4.7065 -2.4233 0.9782
-2.5458 4.4193 -2.5017 0.9775
-2.7016 4.3258 -2.5017 0.9775
-3.2886 3.8982 -2.5017 0.9775
-4.0408 3.1118 -2.5017 0.9775
-4.1491 2.9659 -2.5017 0.9775
-4.3497 2.6630 -2.5017 0.9775
-4.5283 2.3465 -2.5017 0.9775
-4.6090 2.1837 -2.5017 0.9775
-4.8156 1.6795 -2.5017 0.9775
-4.8724 1.5069 -2.5017 0.9775
-5.0054 0.9785 -2.5017 0.9775
-5.0370 0.7996 -2.5017 0.9775
-5.0623 0.6197 -2.5017 0.9775
-5.0995 0.0761 -2.5017 0.9775
-5.0920 -0.2872 -2.5017 0.9775
-1.4659 4.5942 -2.5017 0.9785
-1.6286 4.5390 -2.5017 0.9785
-1.7893 4.4781 -2.5017 0.9785
-1.9476 4.4116 -2.5017 0.9785
-2.1035 4.3394 -2.5017 0.9785
-2.4071 4.1786 -2.5017 0.9785
-2.5545 4.0902 -2.5017 0.9785
-2.9762 3.7943 -2.5017 0.9785
-3.2388 3.5728 -2.5017 0.9785
-3.4850 3.3331 -2.5017 0.9785
-3.6015 3.2069 -2.5017 0.9785
-3.7135 3.0765 -2.5017 0.9785
-3.9231 2.8043 -2.5017 0.9785
-4.1128 2.5179 -2.5017 0.9785
-4.1999 2.3698 -2.5017 0.9785
-4.2816 2.2187 -2.5017 0.9785
-4.4288 1.9082 -2.5017 0.9785
-4.5533 1.5881 -2.5017 0.9785
-4.6549 1.2598 -2.5017 0.9785
-4.7328 0.9252 -2.5017 0.9785
-4.7627 0.7560 -2.5017 0.9785
-4.7866 0.5859 -2.5017 0.9785
-4.8162 0.2436 -2.5017 0.9785
-4.8218 0.0719 -2.5017 0.9785
-4.8213 -0.0999 -2.5017 0.9785
-4.8147 -0.2716 -2.5017 0.9785
-4.8020 -0.4429 -2.5017 0.9785
-1.3885 4.3515 -2.5017 0.9794
-1.6947 4.2416 -2.5017 0.9794
-2.1376 4.0366 -2.5017 0.9794
-2.2800 3.9579 -2.5017 0.9794
-2.4196 3.8742 -2.5017 0.9794
-2.5560 3.7855 -2.5017 0.9794
-2.8191 3.5939 -2.5017 0.9794
-2.9453 3.4912 -2.5017 0.9794
-3.0678 3.3841 -2.5017 0.9794
-3.3009 3.1571 -2.5017 0.9794
-3.4113 3.0375 -2.5017 0.9794
-3.7159 2.6562 -2.5017 0.9794
-3.8082 2.5222 -2.5017 0.9794
-3.8956 2.3849 -2.5017 0.9794
-4.0556 2.1015 -2.5017 0.9794
-4.1278 1.9557 -2.5017 0.9794
-4.2565 1.6569 -2.5017 0.9794
-4.3129 1.5042 -2.5017 0.9794
-4.3637 1.3496 -2.5017 0.9794
-4.5112 0.7161 -2.5017 0.9794
-4.5338 0.5550 -2.5017 0.9794
-4.5507 0.3931 -2.5017 0.9794
-4.5671 0.0681 -2.5017 0.9794
-4.5667 -0.0946 -2.5017 0.9794
-4.5604 -0.2572 -2.5017 0.9794
-4.5484 -0.4195 -2.5017 0.9794
-1.4634 4.0786 -2.5017 0.9802
-1.6077 4.0238 -2.5017 0.9802
-1.7501 3.9640 -2.5017 0.9802
-1.8901 3.8992 -2.5017 0.9802
-2.0278 3.8293 -2.5017 0.9802
-2.2953 3.6753 -2.5017 0.9802
-2.4248 3.5912 -2.5017 0.9802
-2.6743 3.4094 -2.5017 0.9802
-2.9103 3.2103 -2.5017 0.9802
-3.0228 3.1046 -2.5017 0.9802
-3.2361 2.8815 -2.5017 0.9802
-3.3368 2.7644 -2.5017 0.9802
-3.6126 2.3927 -2.5017 0.9802
-3.7738 2.1294 -2.5017 0.9802
-3.9158 1.8553 -2.5017 0.9802
-3.9794 1.7146 -2.5017 0.9802
-4.0380 1.5718 -2.5017 0.9802
-4.0914 1.4270 -2.5017 0.9802
-4.1826 1.1320 -2.5017 0.9802
-4.2526 0.8314 -2.5017 0.9802
-4.3276 0.2189 -2.5017 0.9802
