ply
format ascii 1.0
element vertex 586
property float32 x
property float32 y
property float32 z
property float32 I
end_header
3.2701 7.7530 1.4837 0.9664
0.0052 31.3951 5.5358 0.8803
-1.2105 33.5116 5.9129 0.8727
-1.9942 27.5048 4.8626 0.8940
-3.0717 28.1612 4.9950 0.8913
-4.3239 29.6277 5.2795 0.8855
-5.5946 25.3204 4.5723 0.9000
-6.5816 25.3802 4.6232 0.8990
-7.6006 25.4699 4.6867 0.8977
-9.7397 25.6775 4.8424 0.8945
-10.8708 25.7973 4.9361 0.8925
-14.6474 22.3486 4.7116 0.8971
3.2697 7.7521 1.2889 0.9665
0.0055 33.4808 5.1291 0.8733
-1.0440 28.9034 4.4307 0.8896
-2.0274 27.9628 4.2950 0.8927
-3.0245 27.7286 4.2731 0.8933
-5.4708 24.7599 3.8846 0.9025
-6.4332 24.8081 3.9262 0.9015
-7.4192 24.8623 3.9747 0.9003
-8.4346 24.9275 4.0314 0.8990
-9.4913 25.0227 4.0998 0.8974
-11.7318 25.2412 4.2641 0.8935
-14.1737 23.4376 4.1960 0.8951
-13.9818 21.3330 3.9075 0.9019
-15.1472 21.3779 4.0137 0.8994
27.1930 35.5458 5.8280 0.8348
3.2693 7.7512 1.0955 0.9666
1.3089 35.9058 4.6788 0.8651
0.0056 33.8429 4.4071 0.8724
-3.0749 28.1901 3.6927 0.8919
-5.2969 28.9133 3.8278 0.8882
-5.3531 24.2273 3.2310 0.9048
-13.6949 24.6203 3.6687 0.8926
-13.5019 22.3268 3.3977 0.9001
-15.1473 21.3781 3.4118 0.8997
3.2689 7.7503 0.9032 0.9667
1.2838 35.2179 3.7843 0.8678
-1.0347 28.6439 3.0778 0.8911
-2.0250 27.9302 3.0071 0.8935
-3.0263 27.7451 2.9970 0.8938
-4.1316 28.3100 3.0722 0.8913
-4.9668 27.1116 2.9597 0.8950
-7.1007 23.7949 2.6665 0.9049
-8.0661 23.8385 2.7024 0.9037
-11.1539 23.9978 2.8417 0.8990
-12.2693 24.0730 2.9014 0.8970
-12.8998 21.3312 2.6768 0.9046
-3.0890 28.3198 2.4116 0.8919
-6.1330 23.6504 2.0683 0.9066
-7.0618 23.6643 2.0905 0.9056
-8.9870 23.6931 2.1451 0.9033
-11.0264 23.7235 2.2146 0.9003
-12.9860 21.4737 2.1244 0.9042
-13.9777 21.3267 2.1586 0.9027
-15.1476 21.3785 2.2180 0.9002
-16.3572 21.3963 2.2799 0.8975
3.2682 7.7486 0.5215 0.9669
-1.1570 32.0315 1.9876 0.8795
-2.3398 32.2723 2.0065 0.8784
-4.3156 29.5711 1.8531 0.8871
-6.3592 34.7123 2.1883 0.8681
-5.3182 24.0694 1.5285 0.9059
-5.9479 22.9367 1.4694 0.9094
-6.8882 23.0826 1.4937 0.9080
-7.8765 23.2783 1.5239 0.9062
-8.9113 23.4935 1.5581 0.9042
-11.0264 23.7235 1.6222 0.9005
-12.0994 23.7396 1.6523 0.8987
-12.7758 22.9679 1.6298 0.9000
-15.1230 21.3438 1.6221 0.9005
-16.3572 21.3964 1.6701 0.8977
3.2679 7.7477 0.3316 0.9669
-6.1820 20.7162 0.8525 0.9171
-7.9035 20.8366 0.8787 0.9147
-9.7541 20.9861 0.9125 0.9115
-11.7758 21.1702 0.9552 0.9076
-12.9860 21.4737 0.9895 0.9044
-13.9777 21.3267 1.0055 0.9030
3.2675 7.7468 0.1420 0.9669
0.7111 6.4995 0.1104 0.9742
-5.3318 24.1306 0.4174 0.9059
-6.0290 23.2492 0.4057 0.9084
-6.0648 20.3235 0.3583 0.9187
-8.5867 20.3769 0.3735 0.9153
-10.3993 20.4040 0.3868 0.9125
-12.3423 20.4094 0.4029 0.9090
-4.3359 6.6157 0.1336 0.9689
-16.3572 21.3964 0.4549 0.8979
3.2671 7.7459 -0.0473 0.9669
0.7111 6.4994 -0.0368 0.9742
0.4734 6.4997 -0.0367 0.9743
-0.2378 6.5844 -0.0371 0.9740
-0.4774 6.5847 -0.0372 0.9739
-0.7182 6.5850 -0.0373 0.9739
-0.9611 6.5853 -0.0375 0.9737
-1.4552 6.5860 -0.0380 0.9734
-2.2288 6.5870 -0.0392 0.9726
-3.0620 6.5881 -0.0409 0.9714
-3.6650 6.5888 -0.0424 0.9703
-3.9847 6.5892 -0.0434 0.9697
-4.3189 6.5897 -0.0444 0.9690
-5.0338 6.5846 -0.0467 0.9674
3.2667 7.7451 -0.2367 0.9669
0.7111 6.4993 -0.1841 0.9742
0.4734 6.4996 -0.1835 0.9743
0.2400 6.5837 -0.1855 0.9740
0.0011 6.5840 -0.1854 0.9740
-0.2378 6.5843 -0.1855 0.9740
-1.2064 6.5856 -0.1885 0.9736
-1.4551 6.5859 -0.1899 0.9734
-1.7079 6.5862 -0.1916 0.9731
-1.9655 6.5865 -0.1935 0.9729
-2.2287 6.5869 -0.1958 0.9726
-2.7759 6.5876 -0.2013 0.9718
-3.0620 6.5880 -0.2046 0.9713
-3.3578 6.5883 -0.2082 0.9708
29.6182 38.7160 -2.4721 0.8226
27.0545 41.2491 -2.5017 0.8207
23.9937 43.1015 -2.5017 0.8207
22.4149 43.9432 -2.5017 0.8207
20.8067 44.7271 -2.5017 0.8207
15.7976 46.6371 -2.4972 0.8210
12.3549 47.5788 -2.4929 0.8213
10.6130 47.9572 -2.4910 0.8214
0.7111 6.4992 -0.3316 0.9742
0.4734 6.4995 -0.3305 0.9742
-0.2378 6.5842 -0.3341 0.9740
-0.9610 6.5852 -0.3375 0.9737
-1.2064 6.5855 -0.3395 0.9735
-1.4551 6.5858 -0.3420 0.9733
-1.7079 6.5861 -0.3451 0.9731
-1.9654 6.5864 -0.3486 0.9728
-2.7759 6.5875 -0.3625 0.9718
-3.0619 6.5878 -0.3684 0.9713
-3.9846 6.5890 -0.3905 0.9696
-4.3187 6.5895 -0.3996 0.9689
19.7349 27.8332 -2.5017 0.8721
17.6657 29.1903 -2.5017 0.8721
15.5036 30.3939 -2.5017 0.8721
14.3912 30.9361 -2.5017 0.8721
12.1112 31.8978 -2.5017 0.8721
10.9466 32.3160 -2.5017 0.8721
9.7675 32.6917 -2.5017 0.8721
8.5755 33.0244 -2.5017 0.8721
7.3723 33.3137 -2.5017 0.8721
5.7842 31.5147 -2.3493 0.8794
4.6376 31.7038 -2.3493 0.8794
0.7111 6.4991 -0.4794 0.9741
0.0011 6.5838 -0.4827 0.9739
-0.2378 6.5841 -0.4831 0.9739
-0.4774 6.5844 -0.4840 0.9739
-0.7182 6.5847 -0.4857 0.9738
-1.4551 6.5857 -0.4945 0.9733
-2.2287 6.5867 -0.5098 0.9725
-2.7759 6.5874 -0.5241 0.9717
-3.0619 6.5877 -0.5326 0.9713
-3.3577 6.5881 -0.5422 0.9708
-3.6648 6.5885 -0.5528 0.9702
-3.9845 6.5889 -0.5646 0.9696
-4.3187 6.5893 -0.5777 0.9689
15.0722 21.2571 -2.5017 0.9006
14.2914 21.7897 -2.5017 0.9006
13.4919 22.2936 -2.5017 0.9006
12.6746 22.7682 -2.5017 0.9006
11.8406 23.2128 -2.5017 0.9006
10.9910 23.6269 -2.5017 0.9006
9.2497 24.3614 -2.5017 0.9006
8.3602 24.6808 -2.5017 0.9006
6.1505 23.6853 -2.3493 0.9063
4.4176 24.0688 -2.3493 0.9063
0.7111 6.4990 -0.6277 0.9741
0.4734 6.4993 -0.6256 0.9742
0.2400 6.5834 -0.6325 0.9739
0.0011 6.5837 -0.6321 0.9739
-2.2286 6.5866 -0.6676 0.9724
-2.4984 6.5869 -0.6763 0.9721
-2.7758 6.5873 -0.6863 0.9717
-3.6647 6.5884 -0.7238 0.9702
-4.3186 6.5892 -0.7564 0.9688
-4.6054 6.4998 -0.7648 0.9685
-5.0334 6.5841 -0.7957 0.9672
12.7966 16.7274 -2.5017 0.9187
12.1816 17.1804 -2.5017 0.9187
9.5698 18.7610 -2.5017 0.9187
8.8832 19.0957 -2.5017 0.9187
3.2653 7.7416 -0.9980 0.9667
7.4758 19.6893 -2.5017 0.9187
6.3453 18.7323 -2.3493 0.9234
4.9709 19.1429 -2.3493 0.9234
4.2735 19.3106 -2.3493 0.9234
2.8719 19.6329 -2.3569 0.9232
0.7111 6.4989 -0.7766 0.9740
0.2400 6.5833 -0.7825 0.9738
-0.4774 6.5842 -0.7842 0.9738
-1.2064 6.5852 -0.7952 0.9734
-1.7078 6.5858 -0.8082 0.9730
-1.9654 6.5861 -0.8164 0.9727
-2.2286 6.5865 -0.8259 0.9724
-2.4984 6.5868 -0.8368 0.9720
-2.7758 6.5872 -0.8491 0.9716
-3.0618 6.5875 -0.8629 0.9712
-3.9844 6.5887 -0.9146 0.9695
-4.6053 6.4997 -0.9462 0.9684
10.7281 14.0235 -2.5017 0.9312
10.2126 14.4033 -2.5017 0.9312
8.0229 15.7284 -2.5017 0.9312
7.4472 16.0090 -2.5017 0.9312
3.2649 7.7407 -1.1903 0.9666
5.8856 15.5011 -2.3493 0.9352
5.3196 15.7043 -2.3493 0.9352
4.7466 15.8869 -2.3493 0.9352
3.5902 16.2232 -2.3543 0.9351
2.4059 16.4471 -2.3552 0.9351
0.7110 6.4988 -0.9263 0.9739
0.2400 6.5832 -0.9334 0.9737
0.0011 6.5835 -0.9328 0.9738
-0.2378 6.5838 -0.9335 0.9737
-0.7182 6.5845 -0.9385 0.9736
-0.9610 6.5848 -0.9429 0.9735
-1.2063 6.5851 -0.9486 0.9733
-1.4550 6.5854 -0.9556 0.9731
-1.7078 6.5857 -0.9640 0.9729
-1.9653 6.5860 -0.9738 0.9726
-2.2286 6.5864 -0.9852 0.9723
-2.4983 6.5867 -0.9981 0.9719
-3.0617 6.5874 -1.0292 0.9711
-3.3576 6.5878 -1.0477 0.9706
-3.6646 6.5882 -1.0682 0.9700
-3.9843 6.5886 -1.0909 0.9694
-5.0332 6.5839 -1.1742 0.9671
9.2271 12.0613 -2.5017 0.9403
8.7837 12.3880 -2.5017 0.9403
8.3286 12.6984 -2.5017 0.9403
7.8627 12.9920 -2.5017 0.9403
7.3864 13.2686 -2.5017 0.9403
4.5753 13.5070 -2.3493 0.9438
3.5895 13.8231 -2.3527 0.9437
3.0864 13.9465 -2.3531 0.9437
2.0681 14.1383 -2.3539 0.9437
0.2400 6.5831 -1.0852 0.9736
0.0011 6.5834 -1.0845 0.9737
-0.2378 6.5837 -1.0853 0.9736
-0.7182 6.5844 -1.0911 0.9735
-0.9609 6.5847 -1.0962 0.9734
-1.2063 6.5850 -1.1028 0.9732
-1.4550 6.5853 -1.1110 0.9730
-2.2285 6.5863 -1.1454 0.9722
-2.4983 6.5866 -1.1605 0.9718
-2.7757 6.5870 -1.1775 0.9714
-3.0617 6.5873 -1.1967 0.9710
-3.3575 6.5877 -1.2181 0.9705
-4.3183 6.5889 -1.2978 0.9686
-5.0331 6.5838 -1.3652 0.9670
8.0871 10.5712 -2.5017 0.9473
7.6985 10.8575 -2.5017 0.9473
7.2997 11.1295 -2.5017 0.9473
6.0795 10.9209 -2.3493 0.9504
5.2719 11.3328 -2.3493 0.9504
4.0132 11.8476 -2.3512 0.9504
3.5815 11.9872 -2.3515 0.9504
2.7041 12.2190 -2.3523 0.9503
2.2596 12.3109 -2.3526 0.9503
1.8118 12.3857 -2.3528 0.9503
0.0011 6.5833 -1.2374 0.9736
-0.2378 6.5836 -1.2383 0.9735
-0.4773 6.5840 -1.2408 0.9735
-0.9609 6.5846 -1.2507 0.9733
-1.2063 6.5849 -1.2583 0.9731
-1.4550 6.5852 -1.2676 0.9729
-1.7077 6.5855 -1.2787 0.9727
-1.9653 6.5858 -1.2918 0.9724
-2.2285 6.5862 -1.3069 0.9721
-2.7756 6.5869 -1.3435 0.9713
-3.3575 6.5876 -1.3897 0.9704
-3.6645 6.5880 -1.4169 0.9698
7.1911 9.4000 -2.5017 0.9528
5.7545 9.5085 -2.3493 0.9556
5.4059 9.7110 -2.3493 0.9556
5.0502 9.9006 -2.3493 0.9556
3.2298 7.6574 -1.7567 0.9666
3.9468 10.3947 -2.3503 0.9556
2.4038 10.8621 -2.3516 0.9555
2.0086 10.9436 -2.3519 0.9555
1.6104 11.0090 -2.3519 0.9555
0.7110 6.4985 -1.3818 0.9736
0.4734 6.4988 -1.3773 0.9737
0.2400 6.5829 -1.3924 0.9734
0.0011 6.5832 -1.3915 0.9734
-0.7181 6.5842 -1.4000 0.9733
-1.2063 6.5848 -1.4150 0.9730
-1.4550 6.5851 -1.4255 0.9728
-1.7077 6.5854 -1.4381 0.9726
-1.9652 6.5857 -1.4527 0.9723
-2.2285 6.5861 -1.4697 0.9720
-2.4982 6.5864 -1.4890 0.9716
-2.7756 6.5868 -1.5109 0.9712
-3.0616 6.5871 -1.5354 0.9707
-3.3574 6.5875 -1.5629 0.9702
-3.6644 6.5878 -1.5935 0.9697
-3.9841 6.5882 -1.6274 0.9690
-5.0330 6.5835 -1.7517 0.9667
5.4823 8.3587 -2.3493 0.9598
5.1756 8.5520 -2.3493 0.9598
4.5421 8.9046 -2.3493 0.9598
3.5346 7.5982 -1.9695 0.9662
1.8060 9.8396 -2.3512 0.9597
1.4479 9.8984 -2.3511 0.9597
0.7110 6.4984 -1.5364 0.9735
0.4733 6.4987 -1.5314 0.9736
0.0011 6.5831 -1.5472 0.9733
-0.2378 6.5834 -1.5483 0.9733
-0.7181 6.5841 -1.5566 0.9732
-1.2063 6.5847 -1.5733 0.9729
-1.9652 6.5856 -1.6152 0.9722
-2.4982 6.5863 -1.6555 0.9715
-2.7755 6.5866 -1.6798 0.9711
-3.0615 6.5870 -1.7071 0.9706
-3.6644 6.5877 -1.7717 0.9695
-3.9840 6.5881 -1.8094 0.9689
-4.3181 6.5885 -1.8514 0.9681
5.5132 7.2067 -2.3493 0.9632
4.9764 7.5873 -2.3493 0.9632
4.6980 7.7628 -2.3493 0.9632
4.1230 8.0828 -2.3493 0.9632
3.2211 8.4835 -2.3495 0.9632
2.5984 8.6966 -2.3501 0.9632
1.9616 8.8641 -2.3506 0.9632
1.6389 8.9292 -2.3505 0.9632
1.3140 8.9825 -2.3505 0.9632
0.2400 6.5827 -1.7055 0.9731
0.0011 6.5830 -1.7044 0.9732
-0.2378 6.5833 -1.7056 0.9731
-0.4773 6.5837 -1.7091 0.9731
-0.7181 6.5840 -1.7148 0.9730
-1.2062 6.5846 -1.7332 0.9727
-1.9652 6.5855 -1.7794 0.9720
-2.2284 6.5859 -1.8001 0.9717
-2.4982 6.5862 -1.8238 0.9713
-3.3573 6.5872 -1.9143 0.9699
-3.6643 6.5876 -1.9517 0.9693
-3.9840 6.5880 -1.9934 0.9687
-5.0328 6.5833 -2.1455 0.9663
5.0424 6.5912 -2.3493 0.9661
4.5514 6.9394 -2.3493 0.9661
4.2968 7.0998 -2.3493 0.9661
3.4278 7.3687 -2.3007 0.9668
2.6627 7.8606 -2.3495 0.9661
2.0864 8.0346 -2.3500 0.9661
1.4986 8.1648 -2.3500 0.9661
0.7110 6.4982 -1.8506 0.9732
0.4733 6.4985 -1.8445 0.9733
-0.2378 6.5832 -1.8649 0.9730
-1.7076 6.5851 -1.9258 0.9721
-1.9651 6.5854 -1.9455 0.9718
-2.2283 6.5858 -1.9682 0.9715
-3.6642 6.5875 -2.1339 0.9691
-4.6047 6.4989 -2.2548 0.9674
3.9547 6.5346 -2.3493 0.9685
3.7152 6.6737 -2.3493 0.9685
2.9684 7.0377 -2.3493 0.9685
2.7113 7.1407 -2.3493 0.9685
1.9200 7.3939 -2.3496 0.9685
1.6506 7.4587 -2.3496 0.9685
1.3791 7.5137 -2.3497 0.9685
1.1057 7.5588 -2.3497 0.9685
0.4733 6.4984 -2.0041 0.9731
0.0011 6.5828 -2.0247 0.9728
-0.4773 6.5835 -2.0302 0.9728
-0.9609 6.5841 -2.0465 0.9725
-1.2062 6.5844 -2.0589 0.9724
-1.4549 6.5847 -2.0741 0.9722
-1.7076 6.5850 -2.0924 0.9719
-1.9651 6.5853 -2.1137 0.9716
-2.2283 6.5856 -2.1384 0.9713
-2.7754 6.5863 -2.1983 0.9705
-3.3572 6.5870 -2.2740 0.9695
-3.9525 6.5359 -2.3493 0.9685
4.2944 5.6134 -2.3493 0.9706
4.0880 5.7655 -2.3493 0.9706
3.8762 5.9099 -2.3493 0.9706
3.2115 6.2959 -2.3493 0.9706
2.7467 6.5121 -2.3493 0.9706
1.7764 6.8407 -2.3493 0.9706
1.5271 6.9007 -2.3493 0.9706
1.0230 6.9934 -2.3494 0.9706
0.7109 6.4980 -2.1728 0.9728
0.2400 6.5824 -2.1895 0.9726
0.0011 6.5827 -2.1881 0.9726
-0.2378 6.5830 -2.1896 0.9726
-0.4773 6.5833 -2.1941 0.9726
-0.7181 6.5837 -2.2014 0.9725
-1.4548 6.5846 -2.2415 0.9720
-1.7076 6.5849 -2.2612 0.9717
-1.9651 6.5852 -2.2843 0.9714
-2.9789 6.4092 -2.3493 0.9706
-3.4356 6.1764 -2.3493 0.9706
-3.8742 5.9112 -2.3493 0.9706
-4.0860 5.7668 -2.3493 0.9706
-4.2924 5.6148 -2.3493 0.9706
4.0204 5.2554 -2.3662 0.9723
3.7999 5.3591 -2.3493 0.9725
3.6030 5.4934 -2.3493 0.9725
3.1954 5.7401 -2.3493 0.9725
2.5532 6.0532 -2.3493 0.9725
2.3320 6.1418 -2.3493 0.9725
1.8807 6.2946 -2.3493 0.9725
1.1860 6.4616 -2.3493 0.9725
0.2393 6.5652 -2.3493 0.9725
-0.2371 6.5653 -2.3493 0.9725
-0.9487 6.5007 -2.3493 0.9725
-1.6490 6.3592 -2.3493 0.9725
-1.8786 6.2953 -2.3493 0.9725
-2.1056 6.2230 -2.3493 0.9725
-2.5511 6.0540 -2.3493 0.9725
-2.7689 5.9575 -2.3493 0.9725
-2.9832 5.8532 -2.3493 0.9725
-3.1935 5.7412 -2.3493 0.9725
-3.3996 5.6216 -2.3493 0.9725
-3.9899 5.2191 -2.3493 0.9725
3.9666 5.1850 -2.5017 0.9724
3.1741 5.2448 -2.3493 0.9741
2.7856 5.4611 -2.3493 0.9741
2.5858 5.5585 -2.3493 0.9741
2.3825 5.6486 -2.3493 0.9741
2.1761 5.7313 -2.3493 0.9741
1.9669 5.8064 -2.3493 0.9741
1.5408 5.9337 -2.3493 0.9741
1.3247 5.9857 -2.3493 0.9741
1.1067 6.0298 -2.3493 0.9741
0.2233 6.1265 -2.3493 0.9741
-0.2212 6.1265 -2.3493 0.9741
-0.4433 6.1145 -2.3493 0.9741
-0.6647 6.0944 -2.3493 0.9741
-1.3226 5.9861 -2.3493 0.9741
-1.5388 5.9342 -2.3493 0.9741
-1.7530 5.8745 -2.3493 0.9741
-1.9649 5.8071 -2.3493 0.9741
-2.1742 5.7320 -2.3493 0.9741
-2.5839 5.5594 -2.3493 0.9741
-2.7838 5.4620 -2.3493 0.9741
-2.9801 5.3575 -2.3493 0.9741
-3.5442 5.0022 -2.3493 0.9741
-3.7233 4.8703 -2.3493 0.9741
3.7140 4.8549 -2.5017 0.9739
3.5355 4.9864 -2.5017 0.9739
3.2170 4.9048 -2.4007 0.9750
2.7920 5.0155 -2.3493 0.9755
2.4212 5.2046 -2.3493 0.9755
2.2308 5.2890 -2.3493 0.9755
1.6433 5.5000 -2.3493 0.9755
1.2403 5.6046 -2.3493 0.9755
1.0363 5.6459 -2.3493 0.9755
0.8309 5.6798 -2.3493 0.9755
0.2091 5.7364 -2.3493 0.9755
0.0010 5.7402 -2.3493 0.9755
-0.2072 5.7365 -2.3493 0.9755
-1.0344 5.6463 -2.3493 0.9755
-1.2384 5.6050 -2.3493 0.9755
-1.8398 5.4374 -2.3493 0.9755
-2.0358 5.3671 -2.3493 0.9755
-2.2290 5.2897 -2.3493 0.9755
-2.7903 5.0164 -2.3493 0.9755
-2.9704 4.9119 -2.3493 0.9755
-3.1466 4.8009 -2.3493 0.9755
3.3202 4.6827 -2.5017 0.9753
3.1482 4.8000 -2.5017 0.9753
2.4494 4.8020 -2.3493 0.9768
1.9135 5.0396 -2.3493 0.9768
1.3549 5.2176 -2.3493 0.9768
1.1648 5.2633 -2.3493 0.9768
0.9732 5.3021 -2.3493 0.9768
0.7803 5.3339 -2.3493 0.9768
0.1964 5.3871 -2.3493 0.9768
-0.3898 5.3765 -2.3493 0.9768
-0.5845 5.3588 -2.3493 0.9768
-0.7784 5.3341 -2.3493 0.9768
-0.9714 5.3024 -2.3493 0.9768
-1.9118 5.0402 -2.3493 0.9768
-2.0933 4.9676 -2.3493 0.9768
-2.2721 4.8884 -2.3493 0.9768
-2.4478 4.8028 -2.3493 0.9768
-3.0814 4.7015 -2.4499 0.9758
-3.3186 4.6838 -2.5017 0.9753
-3.4863 4.5604 -2.5017 0.9753
3.2839 4.2926 -2.5017 0.9765
2.7983 4.6238 -2.5017 0.9765
2.4121 4.7287 -2.4572 0.9769
1.9900 4.7181 -2.3702 0.9777
1.8016 4.7449 -2.3493 0.9779
1.2757 4.9125 -2.3493 0.9779
0.7346 5.0220 -2.3493 0.9779
0.5521 5.0453 -2.3493 0.9779
0.3687 5.0620 -2.3493 0.9779
-0.1832 5.0721 -2.3493 0.9779
-0.9145 4.9923 -2.3493 0.9779
-1.0950 4.9559 -2.3493 0.9779
-1.4518 4.8635 -2.3493 0.9779
-1.9875 4.7165 -2.3691 0.9777
-2.7967 4.6247 -2.5017 0.9765
3.0989 4.0507 -2.5017 0.9775
2.9499 4.1604 -2.5017 0.9775
2.7971 4.2647 -2.5017 0.9775
2.3175 4.5432 -2.5017 0.9775
2.1512 4.6243 -2.5017 0.9775
1.7841 4.6987 -2.4654 0.9779
1.2238 4.7129 -2.3885 0.9785
1.0438 4.7164 -2.3695 0.9787
0.8673 4.7253 -2.3566 0.9788
0.5209 4.7610 -2.3493 0.9789
0.1745 4.7862 -2.3493 0.9789
-0.1729 4.7863 -2.3493 0.9789
-0.6916 4.7392 -2.3493 0.9789
-0.8657 4.7254 -2.3565 0.9788
-1.0421 4.7165 -2.3693 0.9787
-1.2221 4.7130 -2.3883 0.9785
-1.5917 4.7041 -2.4360 0.9781
-1.7822 4.6987 -2.4651 0.9779
-1.9775 4.6927 -2.4979 0.9776
-2.1496 4.6250 -2.5017 0.9775
-2.4792 4.4570 -2.5017 0.9775
-2.7957 4.2656 -2.5017 0.9775
-2.9485 4.1614 -2.5017 0.9775
-3.0975 4.0517 -2.5017 0.9775
2.6448 4.0324 -2.5017 0.9785
2.3455 4.2135 -2.5017 0.9785
2.0340 4.3724 -2.5017 0.9785
1.8741 4.4433 -2.5017 0.9785
1.7118 4.5083 -2.5017 0.9785
1.3805 4.6205 -2.5017 0.9785
0.8620 4.6965 -2.4771 0.9787
0.5144 4.7009 -2.4533 0.9789
0.1715 4.7031 -2.4415 0.9790
0.0008 4.7034 -2.4400 0.9790
-0.1698 4.7031 -2.4415 0.9790
-0.3409 4.7023 -2.4459 0.9790
-0.5127 4.7009 -2.4532 0.9789
-0.6857 4.6990 -2.4636 0.9788
-0.8604 4.6965 -2.4770 0.9787
-1.0370 4.6935 -2.4936 0.9786
-1.2104 4.6679 -2.5017 0.9785
-1.8726 4.4439 -2.5017 0.9785
-2.6434 4.0333 -2.5017 0.9785
-2.7879 3.9348 -2.5017 0.9785
-2.9288 3.8311 -2.5017 0.9785
2.7753 3.6278 -2.5017 0.9794
2.6420 3.7261 -2.5017 0.9794
2.5051 3.8194 -2.5017 0.9794
2.3650 3.9078 -2.5017 0.9794
2.0755 4.0689 -2.5017 0.9794
1.9266 4.1415 -2.5017 0.9794
1.7752 4.2086 -2.5017 0.9794
1.6214 4.2702 -2.5017 0.9794
1.3076 4.3765 -2.5017 0.9794
0.9870 4.4598 -2.5017 0.9794
0.8246 4.4926 -2.5017 0.9794
0.6612 4.5196 -2.5017 0.9794
0.4968 4.5406 -2.5017 0.9794
0.3318 4.5556 -2.5017 0.9794
0.0008 4.5677 -2.5017 0.9794
-0.1649 4.5647 -2.5017 0.9794
-0.3303 4.5557 -2.5017 0.9794
-0.6596 4.5198 -2.5017 0.9794
-1.1465 4.4214 -2.5017 0.9794
-1.6199 4.2708 -2.5017 0.9794
-1.7737 4.2092 -2.5017 0.9794
-1.9252 4.1421 -2.5017 0.9794
-2.2203 3.9917 -2.5017 0.9794
-2.5038 3.8203 -2.5017 0.9794
-2.7741 3.6287 -2.5017 0.9794
2.6329 3.4415 -2.5017 0.9802
2.3765 3.6233 -2.5017 0.9802
2.2435 3.7071 -2.5017 0.9802
1.9689 3.8600 -2.5017 0.9802
1.6840 3.9925 -2.5017 0.9802
1.5381 4.0509 -2.5017 0.9802
1.0891 4.1940 -2.5017 0.9802
0.6272 4.2875 -2.5017 0.9802
0.4713 4.3074 -2.5017 0.9802
0.1579 4.3302 -2.5017 0.9802
-0.1564 4.3303 -2.5017 0.9802
-0.4698 4.3076 -2.5017 0.9802
-0.6257 4.2877 -2.5017 0.9802
-1.5367 4.0515 -2.5017 0.9802
-1.6826 3.9931 -2.5017 0.9802
-1.8263 3.9294 -2.5017 0.9802
