ply
format ascii 1.0
element vertex 492
property float32 x
property float32 y
property float32 z
property float32 I
end_header
48.6209 3.2961 8.5929 0.8204
46.4930 8.2938 8.3274 0.8255
45.3170 13.2951 8.3274 0.8255
46.3025 15.4292 8.6057 0.8202
47.2712 -3.6678 7.2635 0.8254
47.3481 1.4876 7.2571 0.8256
47.4268 6.6956 7.3376 0.8238
47.4538 8.4652 7.3844 0.8228
47.4812 10.2599 7.4417 0.8215
47.5092 12.0852 7.5099 0.8201
32.4790 24.5976 6.2415 0.8480
3.3796 7.6774 1.2850 0.9666
32.4778 24.5967 5.3053 0.8485
45.9313 15.3055 5.1988 0.8230
3.3791 7.6760 0.9006 0.9668
32.4714 24.5918 3.4481 0.8492
46.0175 15.3342 3.0078 0.8233
32.4682 24.5894 2.5256 0.8494
3.3785 7.6747 0.5200 0.9670
32.4650 24.5870 1.6058 0.8496
3.3782 7.6740 0.3306 0.9670
45.2723 -3.5127 0.7670 0.8339
45.5515 15.1789 0.8110 0.8252
45.5515 15.1789 -0.2703 0.8253
38.5445 17.7005 -0.2388 0.8440
32.4587 24.5821 -0.2292 0.8497
3.3776 7.6727 -0.0472 0.9670
38.4979 -2.9871 -1.0873 0.8568
38.5848 4.0261 -1.0924 0.8562
38.6094 6.8874 -1.1043 0.8548
38.6610 12.8828 -1.1475 0.8495
38.6746 14.4661 -1.1627 0.8477
38.6763 17.7610 -1.1984 0.8434
38.7335 21.3143 -1.2449 0.8379
38.7665 25.1566 -1.3013 0.8312
38.7843 27.2169 -1.3341 0.8273
3.3773 7.6721 -0.2360 0.9670
38.4979 -2.9871 -1.9583 0.8567
38.5607 1.2115 -1.9565 0.8568
38.5727 2.6149 -1.9607 0.8565
38.5848 4.0261 -1.9674 0.8561
38.6477 11.3385 -2.0426 0.8510
38.6610 12.8828 -2.0667 0.8494
38.6886 16.0941 -2.1251 0.8455
38.6763 17.7610 -2.1584 0.8433
38.7180 19.5107 -2.1988 0.8406
38.7335 21.3143 -2.2421 0.8377
38.7229 23.1769 -2.2887 0.8346
38.7665 25.1566 -2.3437 0.8310
37.9196 26.6101 -2.3493 0.8307
35.8907 29.2892 -2.3493 0.8307
33.6729 31.8141 -2.3493 0.8307
31.2778 34.1716 -2.3493 0.8307
29.1569 39.7910 -2.5017 0.8207
26.1954 41.8001 -2.5017 0.8207
23.0960 43.5892 -2.5017 0.8207
18.2146 45.8156 -2.5004 0.8208
31.8343 -3.6358 -2.3493 0.8794
32.0409 -0.1562 -2.3493 0.8794
32.0255 1.0062 -2.3493 0.8794
31.9679 2.1672 -2.3493 0.8794
31.3185 6.7674 -2.3493 0.8794
31.0523 7.8989 -2.3493 0.8794
30.3980 10.1294 -2.3493 0.8794
30.0106 11.2253 -2.3493 0.8794
29.8831 12.4311 -2.3731 0.8783
29.8643 13.7143 -2.4096 0.8765
29.8444 15.0391 -2.4504 0.8746
29.2764 17.5228 -2.5017 0.8721
28.6215 18.5732 -2.5017 0.8721
27.1997 20.5994 -2.5017 0.8721
22.1089 25.9875 -2.5017 0.8721
21.1518 26.7724 -2.5017 0.8721
20.1668 27.5220 -2.5017 0.8721
18.1184 28.9116 -2.5017 0.8721
15.9747 30.1491 -2.5017 0.8721
3.3767 7.6708 -0.6145 0.9669
25.9803 -2.0158 -2.5017 0.9006
26.0363 -1.0721 -2.5017 0.9006
26.0580 -0.1270 -2.5017 0.9006
25.9987 1.7625 -2.5017 0.9006
25.6534 4.5762 -2.5017 0.9006
25.4705 5.5038 -2.5017 0.9006
25.2541 6.4240 -2.5017 0.9006
25.0045 7.3358 -2.5017 0.9006
24.7219 8.2380 -2.5017 0.9006
24.4069 9.1293 -2.5017 0.9006
23.6808 10.8747 -2.5017 0.9006
23.2708 11.7265 -2.5017 0.9006
22.8301 12.5629 -2.5017 0.9006
22.3594 13.3828 -2.5017 0.9006
20.7733 15.7324 -2.5017 0.9006
19.5781 17.1970 -2.5017 0.9006
14.6295 21.5643 -2.5017 0.9006
13.8376 22.0808 -2.5017 0.9006
13.0276 22.5681 -2.5017 0.9006
12.2004 23.0258 -2.5017 0.9006
3.3764 7.6701 -0.8046 0.9669
9.6269 24.2149 -2.5017 0.9006
20.9248 -2.3898 -2.5017 0.9187
20.9471 2.1857 -2.5017 0.9187
20.8541 2.9441 -2.5017 0.9187
20.7336 3.6986 -2.5017 0.9187
20.4109 5.1920 -2.5017 0.9187
20.2091 5.9290 -2.5017 0.9187
19.7261 7.3785 -2.5017 0.9187
19.1393 8.7891 -2.5017 0.9187
18.8079 9.4776 -2.5017 0.9187
18.4517 10.1536 -2.5017 0.9187
18.0713 10.8162 -2.5017 0.9187
17.6670 11.4646 -2.5017 0.9187
15.3088 14.4638 -2.5017 0.9187
14.2199 15.5356 -2.5017 0.9187
11.8238 17.4287 -2.5017 0.9187
9.1791 18.9554 -2.5017 0.9187
3.3762 7.6694 -0.9954 0.9668
7.7807 19.5709 -2.5017 0.9187
17.6415 -0.7264 -2.5017 0.9312
17.6563 -0.0861 -2.5017 0.9312
17.6478 0.5544 -2.5017 0.9312
17.6161 1.1942 -2.5017 0.9312
17.5612 1.8324 -2.5017 0.9312
17.2582 3.7292 -2.5017 0.9312
17.1116 4.3527 -2.5017 0.9312
16.3022 6.7816 -2.5017 0.9312
15.4691 8.5123 -2.5017 0.9312
15.1501 9.0678 -2.5017 0.9312
14.8112 9.6114 -2.5017 0.9312
14.4529 10.1423 -2.5017 0.9312
14.0755 10.6599 -2.5017 0.9312
13.2656 11.6523 -2.5017 0.9312
12.8342 12.1258 -2.5017 0.9312
12.3859 12.5833 -2.5017 0.9312
10.9457 13.8543 -2.5017 0.9312
10.4360 14.2422 -2.5017 0.9312
9.3760 14.9613 -2.5017 0.9312
8.2667 15.6017 -2.5017 0.9312
7.6953 15.8913 -2.5017 0.9312
6.1256 15.4079 -2.3493 0.9352
15.0880 -1.7232 -2.5017 0.9403
15.1040 1.5760 -2.5017 0.9403
15.0369 2.1229 -2.5017 0.9403
14.9501 2.6669 -2.5017 0.9403
14.7174 3.7437 -2.5017 0.9403
14.2236 5.3203 -2.5017 0.9403
14.0213 5.8327 -2.5017 0.9403
13.0304 7.7991 -2.5017 0.9403
12.7389 8.2666 -2.5017 0.9403
12.1061 9.1684 -2.5017 0.9403
11.4095 10.0219 -2.5017 0.9403
10.6529 10.8227 -2.5017 0.9403
10.2534 11.2020 -2.5017 0.9403
9.8403 11.5665 -2.5017 0.9403
8.5256 12.5670 -2.5017 0.9403
7.5921 13.1520 -2.5017 0.9403
7.1100 13.4188 -2.5017 0.9403
6.2154 12.8352 -2.3493 0.9438
3.3756 7.6681 -1.3802 0.9666
13.2987 -0.5476 -2.5017 0.9473
13.3097 -0.0649 -2.5017 0.9473
13.3033 0.4180 -2.5017 0.9473
13.2794 0.9002 -2.5017 0.9473
13.1030 2.3374 -2.5017 0.9473
13.0096 2.8112 -2.5017 0.9473
12.7716 3.7469 -2.5017 0.9473
12.4664 4.6630 -2.5017 0.9473
12.2890 5.1121 -2.5017 0.9473
12.0955 5.5545 -2.5017 0.9473
10.3120 8.4152 -2.5017 0.9473
9.9999 8.7838 -2.5017 0.9473
9.6748 9.1407 -2.5017 0.9473
9.3368 9.4856 -2.5017 0.9473
8.9866 9.8180 -2.5017 0.9473
8.6246 10.1376 -2.5017 0.9473
7.8669 10.7361 -2.5017 0.9473
7.4723 11.0144 -2.5017 0.9473
6.2488 10.8250 -2.3493 0.9504
4.5759 -0.3550 -0.9702 0.9814
4.5784 -0.1885 -0.9686 0.9814
4.5792 -0.0223 -0.9680 0.9815
4.6402 0.3146 -0.9831 0.9812
11.7713 1.2283 -2.5017 0.9528
11.6513 2.0785 -2.5017 0.9528
10.9275 4.5457 -2.5017 0.9528
10.7554 4.9391 -2.5017 0.9528
10.5692 5.3260 -2.5017 0.9528
10.1553 6.0782 -2.5017 0.9528
9.9281 6.4426 -2.5017 0.9528
9.6878 6.7984 -2.5017 0.9528
9.4349 7.1454 -2.5017 0.9528
8.8920 7.8106 -2.5017 0.9528
8.3024 8.4347 -2.5017 0.9528
6.9953 9.5467 -2.5017 0.9528
5.5564 9.6256 -2.3493 0.9556
4.8440 10.0031 -2.3493 0.9556
3.0987 7.7941 -1.7729 0.9663
4.2823 -0.4891 -1.0130 0.9824
4.2195 -0.1737 -0.9925 0.9828
4.2215 0.1326 -0.9926 0.9828
4.2547 0.2884 -1.0022 0.9826
4.3733 0.4563 -1.0334 0.9821
10.4045 2.2482 -2.5017 0.9572
10.2142 2.9966 -2.5017 0.9572
9.9700 3.7292 -2.5017 0.9572
9.8282 4.0884 -2.5017 0.9572
9.6734 4.4422 -2.5017 0.9572
9.5059 4.7902 -2.5017 0.9572
9.3259 5.1319 -2.5017 0.9572
8.9293 5.7945 -2.5017 0.9572
8.4857 6.4266 -2.5017 0.9572
7.1871 7.8520 -2.5017 0.9572
6.8975 8.1076 -2.5017 0.9572
5.6120 8.2722 -2.3493 0.9598
4.3567 8.9968 -2.3493 0.9598
3.3220 7.5463 -1.9378 0.9667
3.0826 7.7539 -1.9611 0.9663
3.9712 -0.1635 -1.0291 0.9837
3.9722 -0.0194 -1.0285 0.9837
4.0753 0.4252 -1.0609 0.9832
9.5674 1.3507 -2.5017 0.9609
9.5121 1.6968 -2.5017 0.9609
9.4443 2.0408 -2.5017 0.9609
9.2715 2.7201 -2.5017 0.9609
8.9212 3.7111 -2.5017 0.9609
8.7807 4.0323 -2.5017 0.9609
8.6287 4.3481 -2.5017 0.9609
8.4653 4.6582 -2.5017 0.9609
8.1053 5.2597 -2.5017 0.9609
7.7026 5.8335 -2.5017 0.9609
7.2594 6.3765 -2.5017 0.9609
7.0234 6.6357 -2.5017 0.9609
6.7781 6.8861 -2.5017 0.9609
6.2610 7.3593 -2.5017 0.9609
5.6250 7.1197 -2.3493 0.9632
5.3631 7.3191 -2.3493 0.9632
4.8184 7.6886 -2.3493 0.9632
4.5363 7.8584 -2.3493 0.9632
3.3114 7.5223 -2.1280 0.9666
3.0714 7.7256 -2.1526 0.9662
3.7879 -0.4326 -1.0793 0.9843
3.7897 -0.2940 -1.0761 0.9843
3.7930 -0.1562 -1.0747 0.9843
3.7944 -0.0185 -1.0742 0.9843
3.7934 0.1192 -1.0744 0.9843
8.6379 1.8665 -2.5017 0.9639
8.5644 2.1786 -2.5017 0.9639
8.3839 2.7937 -2.5017 0.9639
8.2771 3.0960 -2.5017 0.9639
8.1593 3.3942 -2.5017 0.9639
7.4131 4.8105 -2.5017 0.9639
7.2337 5.0763 -2.5017 0.9639
7.0448 5.3353 -2.5017 0.9639
6.6395 5.8320 -2.5017 0.9639
6.4236 6.0690 -2.5017 0.9639
5.1447 6.5117 -2.3493 0.9661
4.4069 7.0321 -2.3493 0.9661
4.1489 7.1873 -2.3493 0.9661
3.8855 7.3330 -2.3493 0.9661
3.6169 7.4691 -2.3493 0.9661
3.0396 7.6456 -2.3292 0.9664
3.6242 -0.4139 -1.1220 0.9849
3.6308 -0.2817 -1.1201 0.9849
3.6349 -0.1497 -1.1190 0.9849
3.6349 0.1142 -1.1186 0.9849
3.6309 0.2461 -1.1194 0.9849
8.0538 1.1370 -2.5017 0.9665
8.0072 1.4284 -2.5017 0.9665
7.8047 2.2897 -2.5017 0.9665
7.7165 2.5713 -2.5017 0.9665
7.6182 2.8495 -2.5017 0.9665
7.5098 3.1240 -2.5017 0.9665
7.3916 3.3943 -2.5017 0.9665
6.9791 4.1772 -2.5017 0.9665
6.8230 4.4276 -2.5017 0.9665
6.6579 4.6722 -2.5017 0.9665
5.9123 5.5859 -2.5017 0.9665
5.7057 5.7966 -2.5017 0.9665
5.4917 5.9998 -2.5017 0.9665
5.2705 6.1950 -2.5017 0.9665
4.7351 5.9934 -2.3493 0.9685
4.2882 6.3209 -2.3493 0.9685
4.0561 6.4722 -2.3493 0.9685
3.0774 6.9908 -2.3493 0.9685
2.8218 7.0978 -2.3493 0.9685
3.5016 -0.3999 -1.1715 0.9853
3.4947 -0.1439 -1.1627 0.9854
3.4958 -0.0170 -1.1620 0.9854
3.4937 0.1098 -1.1619 0.9854
3.5171 0.3670 -1.1754 0.9852
3.5584 0.5024 -1.1946 0.9850
7.4092 1.3217 -2.5017 0.9688
7.3564 1.5896 -2.5017 0.9688
7.2939 1.8554 -2.5017 0.9688
6.8395 3.1408 -2.5017 0.9688
6.7211 3.3868 -2.5017 0.9688
6.4578 3.8652 -2.5017 0.9688
6.3134 4.0969 -2.5017 0.9688
5.6545 4.9668 -2.5017 0.9688
5.2796 5.3637 -2.5017 0.9688
5.0815 5.5517 -2.5017 0.9688
4.3814 5.5457 -2.3493 0.9706
4.1775 5.7010 -2.3493 0.9706
3.9679 5.8488 -2.3493 0.9706
2.6111 6.5677 -2.3493 0.9706
3.3893 -0.3871 -1.2199 0.9856
3.3921 -0.2632 -1.2167 0.9857
3.3963 -0.1398 -1.2155 0.9857
3.3951 0.1067 -1.2147 0.9857
3.4104 0.4815 -1.2317 0.9855
6.8380 1.4776 -2.5017 0.9707
6.7799 1.7246 -2.5017 0.9707
6.4592 2.6870 -2.5017 0.9707
6.3575 2.9195 -2.5017 0.9707
6.2474 3.1482 -2.5017 0.9707
6.1291 3.3727 -2.5017 0.9707
6.0027 3.5928 -2.5017 0.9707
5.8685 3.8082 -2.5017 0.9707
5.7265 4.0185 -2.5017 0.9707
5.5769 4.2236 -2.5017 0.9707
5.2561 4.6168 -2.5017 0.9707
4.9075 4.9857 -2.5017 0.9707
4.5332 5.3284 -2.5017 0.9707
3.6882 5.4366 -2.3493 0.9725
3.0759 5.8051 -2.3493 0.9725
2.6469 6.0128 -2.3493 0.9725
3.3488 -0.3825 -1.2917 0.9857
3.3450 -0.1377 -1.2830 0.9858
3.3453 -0.0163 -1.2820 0.9858
3.3477 0.1052 -1.2835 0.9858
3.3519 0.3498 -1.2915 0.9857
6.1935 2.0638 -2.5017 0.9724
6.0275 2.5074 -2.5017 0.9724
5.8299 2.9378 -2.5017 0.9724
5.7195 3.1473 -2.5017 0.9724
5.4763 3.5537 -2.5017 0.9724
5.2042 3.9413 -2.5017 0.9724
5.0578 4.1275 -2.5017 0.9724
4.9048 4.3083 -2.5017 0.9724
4.7453 4.4833 -2.5017 0.9724
4.4077 4.8156 -2.5017 0.9724
4.2302 4.9723 -2.5017 0.9724
3.4418 5.0733 -2.3493 0.9741
3.0649 5.3094 -2.3493 0.9741
2.4700 5.6109 -2.3493 0.9741
3.3218 -0.3794 -1.3683 0.9857
3.3207 -0.2577 -1.3632 0.9857
3.3211 -0.0162 -1.3592 0.9857
3.3215 0.1044 -1.3601 0.9857
3.3232 0.2253 -1.3632 0.9857
3.4551 0.6164 -1.4364 0.9849
5.9747 1.2910 -2.5017 0.9739
5.9240 1.5069 -2.5017 0.9739
5.7252 2.1415 -2.5017 0.9739
5.5549 2.5509 -2.5017 0.9739
5.4587 2.7507 -2.5017 0.9739
5.3554 2.9469 -2.5017 0.9739
5.1276 3.3274 -2.5017 0.9739
5.0036 3.5112 -2.5017 0.9739
4.8729 3.6904 -2.5017 0.9739
4.1272 4.5090 -2.5017 0.9739
3.7894 4.7963 -2.5017 0.9739
3.6129 4.9306 -2.5017 0.9739
3.3521 4.9410 -2.4437 0.9745
2.8698 4.9714 -2.3493 0.9755
2.3127 5.2537 -2.3493 0.9755
3.2962 -0.3765 -1.4459 0.9856
3.2952 -0.2557 -1.4404 0.9857
3.2956 -0.1357 -1.4375 0.9857
3.2959 -0.0161 -1.4364 0.9857
3.2976 0.2235 -1.4404 0.9857
3.2985 0.4657 -1.4518 0.9856
3.3741 0.6019 -1.4937 0.9852
5.5632 1.4151 -2.5017 0.9753
5.4460 1.8147 -2.5017 0.9753
5.3765 2.0111 -2.5017 0.9753
5.3001 2.2048 -2.5017 0.9753
5.2166 2.3956 -2.5017 0.9753
5.0292 2.7675 -2.5017 0.9753
4.9255 2.9481 -2.5017 0.9753
4.6988 3.2974 -2.5017 0.9753
4.5761 3.4657 -2.5017 0.9753
4.4474 3.6293 -2.5017 0.9753
4.3129 3.7883 -2.5017 0.9753
4.0268 4.0910 -2.5017 0.9753
3.7196 4.3722 -2.5017 0.9753
3.5586 4.5042 -2.5017 0.9753
3.0305 4.8357 -2.4871 0.9754
2.7651 4.7899 -2.4104 0.9762
2.5282 4.7714 -2.3533 0.9767
2.3494 4.8517 -2.3493 0.9768
1.9915 5.0093 -2.3493 0.9768
3.2698 -0.2537 -1.5181 0.9856
3.2686 -0.0159 -1.5130 0.9857
3.2707 0.1028 -1.5147 0.9857
3.2730 0.3415 -1.5233 0.9856
3.3445 0.5966 -1.5726 0.9851
5.2828 1.1415 -2.5017 0.9765
5.1861 1.5215 -2.5017 0.9765
5.1275 1.7086 -2.5017 0.9765
4.9115 2.2555 -2.5017 0.9765
4.7351 2.6056 -2.5017 0.9765
4.5337 2.9420 -2.5017 0.9765
4.3086 3.2630 -2.5017 0.9765
4.1873 3.4171 -2.5017 0.9765
4.0606 3.5668 -2.5017 0.9765
3.9286 3.7117 -2.5017 0.9765
3.7914 3.8518 -2.5017 0.9765
3.6491 3.9867 -2.5017 0.9765
3.3505 4.2408 -2.5017 0.9765
3.1945 4.3596 -2.5017 0.9765
2.7020 4.6808 -2.5017 0.9765
2.0772 4.7186 -2.3864 0.9775
3.2484 -0.3710 -1.6038 0.9855
3.2459 -0.2518 -1.5970 0.9856
3.2431 -0.0158 -1.5909 0.9857
3.2469 0.1020 -1.5935 0.9856
3.2514 0.3393 -1.6035 0.9855
3.3151 0.5914 -1.6518 0.9851
4.9428 1.2573 -2.5017 0.9775
4.8386 1.6123 -2.5017 0.9775
4.7769 1.7868 -2.5017 0.9775
4.3762 2.6193 -2.5017 0.9775
4.0658 3.0791 -2.5017 0.9775
3.9514 3.2246 -2.5017 0.9775
3.8318 3.3658 -2.5017 0.9775
3.3048 3.8845 -2.5017 0.9775
3.0145 4.1139 -2.5017 0.9775
2.7083 4.3216 -2.5017 0.9775
2.2228 4.5903 -2.5017 0.9775
3.2260 -0.3684 -1.6845 0.9855
3.2213 -0.0157 -1.6712 0.9856
4.7136 1.0185 -2.5017 0.9785
4.6735 1.1888 -2.5017 0.9785
4.6274 1.3576 -2.5017 0.9785
4.1378 2.4766 -2.5017 0.9785
4.0453 2.6251 -2.5017 0.9785
3.9474 2.7701 -2.5017 0.9785
3.7362 3.0490 -2.5017 0.9785
3.5053 3.3118 -2.5017 0.9785
3.2560 3.5572 -2.5017 0.9785
2.9895 3.7839 -2.5017 0.9785
2.8503 3.8898 -2.5017 0.9785
2.7073 3.9907 -2.5017 0.9785
2.1017 4.3402 -2.5017 0.9785
1.9429 4.4136 -2.5017 0.9785
1.7816 4.4812 -2.5017 0.9785
3.2034 -0.3658 -1.7659 0.9854
3.2016 -0.2484 -1.7588 0.9855
3.1989 -0.1317 -1.7535 0.9855
3.2050 0.2173 -1.7594 0.9855
3.2064 0.3346 -1.7657 0.9854
3.2167 0.4541 -1.7793 0.9853
4.4647 0.9647 -2.5017 0.9794
4.4267 1.1260 -2.5017 0.9794
4.3335 1.4440 -2.5017 0.9794
4.2174 1.7544 -2.5017 0.9794
4.1509 1.9062 -2.5017 0.9794
4.0791 2.0555 -2.5017 0.9794
3.8316 2.4864 -2.5017 0.9794
3.7389 2.6238 -2.5017 0.9794
3.5389 2.8879 -2.5017 0.9794
3.4318 3.0144 -2.5017 0.9794
3.3202 3.1369 -2.5017 0.9794
3.2042 3.2553 -2.5017 0.9794
3.0841 3.3694 -2.5017 0.9794
2.8316 3.5841 -2.5017 0.9794
2.6998 3.6844 -2.5017 0.9794
2.5644 3.7799 -2.5017 0.9794
2.2836 3.9559 -2.5017 0.9794
3.1804 -0.3632 -1.8482 0.9853
3.1788 -0.2466 -1.8408 0.9854
3.1766 -0.1308 -1.8355 0.9854
3.1770 -0.0155 -1.8343 0.9854
3.2006 0.4518 -1.8662 0.9852
3.2337 0.5768 -1.8964 0.9849
4.1579 1.2198 -2.5017 0.9802
4.0585 1.5181 -2.5017 0.9802
4.0008 1.6643 -2.5017 0.9802
3.9378 1.8083 -2.5017 0.9802
3.8696 1.9500 -2.5017 0.9802
3.7963 2.0890 -2.5017 0.9802
3.7181 2.2254 -2.5017 0.9802
3.4543 2.6161 -2.5017 0.9802
3.3571 2.7396 -2.5017 0.9802
3.2556 2.8596 -2.5017 0.9802
3.1497 2.9758 -2.5017 0.9802
3.0397 3.0881 -2.5017 0.9802
2.6862 3.4000 -2.5017 0.9802
2.5612 3.4952 -2.5017 0.9802
2.3010 3.6717 -2.5017 0.9802
2.1663 3.7528 -2.5017 0.9802
1.7458 3.9659 -2.5017 0.9802
