ply
format ascii 1.0
element vertex 626
property float32 x
property float32 y
property float32 z
property float32 I
end_header
-43.9179 21.9865 8.6601 0.8192
-37.3237 13.8930 7.0223 0.8506
-40.0502 13.2902 7.4406 0.8425
-41.7255 12.2004 7.6654 0.8381
-37.4453 -6.9187 6.7144 0.8567
-37.7003 -8.3768 6.8097 0.8548
-30.1542 -7.8469 5.4941 0.8811
-21.1374 -6.3195 3.8901 0.9143
-21.0423 -7.9778 3.9680 0.9126
-20.5774 -8.6594 3.9365 0.9133
-19.9764 -9.2648 3.8828 0.9144
-30.4274 -21.4454 6.5638 0.8597
-22.6518 -21.4300 5.4983 0.8810
-40.4913 20.2710 6.9369 0.8326
-41.0968 18.7590 6.9207 0.8329
-37.3856 15.4671 6.1981 0.8490
-43.5394 12.7308 6.9493 0.8323
-41.5904 10.5547 6.5734 0.8406
-41.7335 9.0085 6.5406 0.8413
-37.6594 -8.3677 5.9099 0.8555
-30.1517 -7.8462 4.7729 0.8815
-21.0686 -6.2990 3.3687 0.9149
-21.4365 -7.2577 3.4671 0.9125
-19.5484 -8.2264 3.2491 0.9178
-19.9515 -9.2533 3.3692 0.9148
-35.6229 -21.4538 6.3705 0.8451
-30.4277 -21.4456 5.7028 0.8602
-28.2307 -21.4557 5.4321 0.8663
-24.3533 -21.4351 4.9701 0.8770
-41.3092 22.5719 6.1300 0.8271
-41.0996 20.5756 5.9852 0.8308
-41.4813 18.9345 5.9379 0.8320
-41.8590 17.3179 5.8990 0.8330
-45.2220 16.8330 6.2836 0.8231
-43.6662 14.4901 5.9912 0.8306
-42.9939 12.5713 5.8331 0.8347
-45.2962 9.7775 6.0344 0.8295
-38.9530 -7.1972 5.1584 0.8523
-37.3456 -8.2980 4.9818 0.8570
-30.1493 -7.8456 4.0568 0.8819
-35.6227 -21.4537 5.4151 0.8456
-32.8839 -21.4509 5.1127 0.8535
-30.4279 -21.4458 4.8476 0.8606
-28.2292 -21.4546 4.6172 0.8667
-26.1958 -21.4367 4.4078 0.8724
-22.6535 -21.4316 4.0609 0.8818
-39.7660 25.5987 5.0784 0.8267
-41.4578 17.1519 4.8178 0.8349
-43.2441 14.3500 4.8926 0.8325
-38.8724 -7.1823 4.2448 0.8530
-37.6759 -8.3714 4.1444 0.8562
-21.5214 -6.4344 2.4121 0.9136
-19.2635 -8.1064 2.2442 0.9194
-19.4408 -9.0164 2.3012 0.9174
-42.2315 -21.4627 5.0869 0.8265
-38.6799 -21.4400 4.7489 0.8370
-32.8826 -21.4501 4.2158 0.8539
-26.1965 -21.4372 3.6349 0.8727
-22.6544 -21.4324 3.3488 0.8821
-41.9813 24.9383 4.1336 0.8220
-37.0957 -8.2425 3.2168 0.8585
-21.5013 -6.4284 1.8998 0.9139
-20.8397 -7.0556 1.8625 0.9155
-20.8902 -7.9201 1.8912 0.9142
-20.4114 -8.5896 1.8746 0.9149
-19.3440 -8.9715 1.8051 0.9180
-42.2288 -21.4613 4.0100 0.8268
-32.8813 -21.4492 3.3234 0.8542
-30.4285 -21.4462 3.1514 0.8612
-28.2263 -21.4524 3.0012 0.8673
-26.1972 -21.4378 2.8656 0.8729
-34.8401 24.2414 2.6320 0.8436
-38.1476 -7.0484 2.4056 0.8560
-37.4840 -8.3288 2.3811 0.8574
-30.1420 -7.8437 1.9314 0.8827
-20.7397 -8.7277 1.3953 0.9138
-38.6855 -21.4432 2.7428 0.8376
-35.6221 -21.4533 2.5786 0.8465
-32.8801 -21.4484 2.4344 0.8544
-30.4288 -21.4464 2.3085 0.8614
-28.2249 -21.4513 2.1984 0.8676
-26.1978 -21.4383 2.0991 0.8731
-36.5374 23.5204 1.7134 0.8403
-20.8179 -7.0482 0.8666 0.9158
-20.1543 -8.4813 0.8622 0.9162
-42.2237 -21.4587 1.8676 0.8273
-38.6884 -21.4447 1.7442 0.8377
-35.6218 -21.4532 1.6396 0.8467
-32.8788 -21.4476 1.5479 0.8546
-30.4291 -21.4466 1.4679 0.8615
-28.2235 -21.4503 1.3978 0.8677
-26.1985 -21.4389 1.3348 0.8733
-33.0715 23.0109 0.6806 0.8511
-35.8022 23.0471 0.7192 0.8434
-37.8928 22.5096 0.7445 0.8383
-42.1037 23.0060 0.8105 0.8254
-37.3607 -8.3014 0.6465 0.8580
-21.0936 -7.9973 0.3811 0.9137
-38.6912 -21.4463 0.7472 0.8378
-32.8776 -21.4468 0.6631 0.8547
-28.2221 -21.4492 0.5988 0.8678
-24.3569 -21.4383 0.5481 0.8783
-22.6577 -21.4356 0.5269 0.8827
-9.4716 6.5903 -0.0650 0.9549
-11.1193 6.6053 -0.0728 0.9496
-13.1994 6.6080 -0.0831 0.9427
-14.4802 6.6097 -0.0896 0.9383
-15.9729 6.6083 -0.0973 0.9332
-22.6335 6.6181 -0.1328 0.9100
-37.1819 6.6377 -0.2127 0.8598
-46.3627 6.5677 -0.2636 0.8292
-30.1348 -7.8418 -0.1753 0.8829
-21.4969 -7.2781 -0.1278 0.9132
-21.0229 -7.9705 -0.1266 0.9140
-42.2185 -21.4560 -0.2666 0.8274
-38.6940 -21.4479 -0.2491 0.8378
-35.6215 -21.4529 -0.2342 0.8468
-32.8763 -21.4460 -0.2210 0.8547
-30.4296 -21.4470 -0.2096 0.8616
-26.1998 -21.4400 -0.1906 0.8734
-22.6586 -21.4364 -0.1756 0.8827
-12.0904 6.6064 -0.3879 0.9464
-14.4797 6.6094 -0.4482 0.9383
-17.7586 6.6104 -0.5336 0.9270
-22.6324 6.6177 -0.6640 0.9100
-30.5536 6.5953 -0.8801 0.8824
-37.1788 6.6372 -1.0634 0.8597
-30.1324 -7.8412 -0.8767 0.8829
-42.2158 -21.4547 -1.3334 0.8274
-38.6968 -21.4494 -1.2458 0.8377
-35.6213 -21.4528 -1.1709 0.8467
-28.2193 -21.4470 -0.9980 0.8678
-24.3581 -21.4393 -0.9137 0.8782
-11.1187 6.6050 -0.6559 0.9495
-15.9717 6.6078 -0.8766 0.9331
-17.7579 6.6101 -0.9609 0.9269
-19.9277 6.6128 -1.0648 0.9193
-22.6312 6.6174 -1.1958 0.9099
-30.5536 6.5953 -1.5852 0.8823
-37.1758 6.6367 -1.9151 0.8596
-49.2135 3.3937 -2.5018 0.8207
-49.2930 -1.9215 -2.5018 0.8207
-48.1560 -10.7000 -2.5018 0.8207
-46.7251 -15.8195 -2.5018 0.8207
-45.4684 -19.1340 -2.5018 0.8207
-41.2980 -20.9883 -2.3494 0.8307
-35.6211 -21.4527 -2.1088 0.8466
-32.8738 -21.4444 -1.9905 0.8545
-30.4302 -21.4474 -1.8880 0.8615
-26.2012 -21.4411 -1.7170 0.8732
-11.1184 6.6048 -0.9482 0.9495
-13.1981 6.6074 -1.0822 0.9425
-14.4787 6.6090 -1.1670 0.9382
-19.9268 6.6125 -1.5394 0.9192
-25.7453 6.5337 -1.9475 0.8989
-31.3193 6.7605 -2.3493 0.8794
-31.5429 5.6310 -2.3494 0.8794
-34.0392 2.3473 -2.5018 0.8721
-34.1016 1.1228 -2.5018 0.8721
-34.0942 -1.3290 -2.5018 0.8721
-33.9107 -3.7739 -2.5018 0.8721
-33.7532 -4.9898 -2.5018 0.8721
-31.5079 -5.8217 -2.3494 0.8794
-31.2787 -6.9500 -2.3494 0.8794
-32.3180 -10.9418 -2.5018 0.8721
-30.9530 -14.3557 -2.5018 0.8721
-30.4173 -15.4585 -2.5018 0.8721
-29.8422 -16.5414 -2.5018 0.8721
-29.2287 -17.6029 -2.5018 0.8721
-24.0519 -21.1699 -2.3494 0.8794
-9.4706 6.5897 -1.1077 0.9547
-10.1076 6.5067 -1.1541 0.9528
-12.0893 6.6058 -1.3226 0.9461
-14.4782 6.6088 -1.5279 0.9380
-15.9704 6.6073 -1.6593 0.9329
-17.7564 6.6095 -1.8190 0.9267
-19.9259 6.6122 -2.0156 0.9191
-23.9203 5.1634 -2.3494 0.9063
-25.6530 4.5796 -2.5018 0.9006
-25.8010 3.6549 -2.5018 0.9006
-26.0585 -0.0788 -2.5018 0.9006
-25.8987 -2.8823 -2.5018 0.9006
-25.7784 -3.8109 -2.5018 0.9006
-25.6248 -4.7346 -2.5018 0.9006
-25.4382 -5.6523 -2.5018 0.9006
-23.1788 -7.8475 -2.3494 0.9063
-23.2307 -11.8062 -2.5018 0.9006
-22.7915 -12.6332 -2.5018 0.9006
-21.8254 -14.2373 -2.5018 0.9006
-21.2998 -15.0123 -2.5018 0.9006
-18.9296 -17.9086 -2.5018 0.9006
-10.1073 6.5065 -1.4279 0.9527
-11.1178 6.6044 -1.5361 0.9492
-12.0889 6.6056 -1.6364 0.9460
-14.4777 6.6085 -1.8904 0.9379
-17.7557 6.6093 -2.2505 0.9265
-20.5869 4.4438 -2.5018 0.9187
-20.7332 3.7013 -2.5018 0.9187
-20.8529 2.9540 -2.5018 0.9187
-20.9455 2.2029 -2.5018 0.9187
-21.0111 1.4489 -2.5018 0.9187
-21.0496 0.6930 -2.5018 0.9187
-21.0609 -0.0637 -2.5018 0.9187
-21.0451 -0.8203 -2.5018 0.9187
-21.0020 -1.5759 -2.5018 0.9187
-20.9318 -2.3295 -2.5018 0.9187
-20.8346 -3.0801 -2.5018 0.9187
-20.7105 -3.8266 -2.5018 0.9187
-20.3824 -5.3040 -2.5018 0.9187
-19.2935 -5.7683 -2.3920 0.9221
-18.7335 -6.3425 -2.3494 0.9234
-18.4935 -7.0115 -2.3494 0.9234
-17.9422 -8.3214 -2.3494 0.9234
-18.4205 -10.2104 -2.5018 0.9187
-18.0418 -10.8656 -2.5018 0.9187
-17.6397 -11.5068 -2.5018 0.9187
-16.2992 -13.3381 -2.5018 0.9187
-15.2993 -14.4741 -2.5018 0.9187
-12.0885 6.6054 -1.9518 0.9459
-13.1968 6.6067 -2.0911 0.9421
-14.4771 6.6083 -2.2548 0.9377
-15.7372 5.2222 -2.3494 0.9352
-16.1233 4.7145 -2.3802 0.9344
-17.1141 4.3432 -2.5018 0.9312
-17.2591 3.7255 -2.5018 0.9312
-17.3818 3.1030 -2.5018 0.9312
-17.5598 1.8468 -2.5018 0.9312
-17.6148 1.2147 -2.5018 0.9312
-17.6471 0.5810 -2.5018 0.9312
-17.6565 -0.0534 -2.5018 0.9312
-17.6071 -1.3212 -2.5018 0.9312
-17.5483 -1.9529 -2.5018 0.9312
-17.2363 -3.8298 -2.5018 0.9312
-17.0875 -4.4466 -2.5018 0.9312
-15.2829 -6.4314 -2.3494 0.9352
-15.0420 -6.9763 -2.3494 0.9352
-13.8875 -9.0592 -2.3494 0.9352
-14.4322 -10.1719 -2.5018 0.9312
-12.0882 6.6052 -2.2693 0.9457
-12.7522 6.3841 -2.3494 0.9438
-12.9734 5.9218 -2.3494 0.9438
-14.1634 4.7000 -2.4584 0.9413
-14.9498 2.6688 -2.5018 0.9403
-15.0360 2.1300 -2.5018 0.9403
-15.1501 1.0447 -2.5018 0.9403
-15.1436 -1.1363 -2.5018 0.9403
-14.8246 -3.2940 -2.5018 0.9403
-14.6967 -3.8245 -2.5018 0.9403
-14.5498 -4.3500 -2.5018 0.9403
-14.3841 -4.8700 -2.5018 0.9403
-14.1998 -5.3836 -2.5018 0.9403
-13.6858 -5.7593 -2.4461 0.9416
-12.7134 -6.4612 -2.3494 0.9438
-12.4731 -6.9138 -2.3494 0.9438
-12.2166 -7.3574 -2.3494 0.9438
-11.9444 -7.7916 -2.3494 0.9438
-11.6567 -8.2157 -2.3494 0.9438
-11.0366 -9.0316 -2.3494 0.9438
-11.3994 -10.0335 -2.5018 0.9403
-10.1065 6.5060 -2.2592 0.9523
-10.7461 6.3836 -2.3494 0.9504
-11.3706 5.1902 -2.3494 0.9504
-11.5497 4.7784 -2.3494 0.9504
-12.4738 4.6431 -2.5018 0.9473
-12.7750 3.7354 -2.5018 0.9473
-13.2370 1.3921 -2.5018 0.9473
-13.2784 0.9157 -2.5018 0.9473
-13.2999 -0.5184 -2.5018 0.9473
-13.1669 -1.9465 -2.5018 0.9473
-13.0884 -2.4183 -2.5018 0.9473
-12.8810 -3.3520 -2.5018 0.9473
-12.6070 -4.2683 -2.5018 0.9473
-12.2679 -5.1626 -2.5018 0.9473
-12.0746 -5.6000 -2.5018 0.9473
-11.3497 -5.7681 -2.3930 0.9495
-10.9321 -6.0596 -2.3494 0.9504
-10.7073 -6.4485 -2.3494 0.9504
-10.4687 -6.8290 -2.3494 0.9504
-9.6731 -7.9158 -2.3494 0.9504
-9.3825 -8.2582 -2.3494 0.9504
-9.0797 -8.5900 -2.3494 0.9504
-9.1232 6.3479 -2.3494 0.9556
-9.3454 6.0160 -2.3494 0.9556
-9.5555 5.6763 -2.3494 0.9556
-9.7533 5.3294 -2.3494 0.9556
-9.9385 4.9755 -2.3494 0.9556
-10.3210 4.7111 -2.3982 0.9547
-10.9363 4.5246 -2.5018 0.9528
-11.0918 4.1287 -2.5018 0.9528
-11.4717 2.9113 -2.5018 0.9528
-11.6511 2.0800 -2.5018 0.9528
-11.7704 1.2379 -2.5018 0.9528
-11.8073 0.8142 -2.5018 0.9528
-11.8289 0.3895 -2.5018 0.9528
-11.8353 -0.0358 -2.5018 0.9528
-11.8264 -0.4610 -2.5018 0.9528
-11.7627 -1.3091 -2.5018 0.9528
-11.7081 -1.7308 -2.5018 0.9528
-11.6383 -2.1504 -2.5018 0.9528
-11.4539 -2.9806 -2.5018 0.9528
-11.3394 -3.3902 -2.5018 0.9528
-11.0666 -4.1957 -2.5018 0.9528
-10.5510 -5.3622 -2.5018 0.9528
-9.5854 -5.7728 -2.3652 0.9553
-9.3088 -6.0724 -2.3494 0.9556
-9.0847 -6.4029 -2.3494 0.9556
-8.6014 -7.0388 -2.3494 0.9556
-8.0737 -7.6383 -2.3494 0.9556
-8.5943 5.1053 -2.3494 0.9598
-9.3851 4.6984 -2.4667 0.9578
-10.3177 2.6184 -2.5018 0.9572
-10.5863 1.1134 -2.5018 0.9572
-10.6195 0.7323 -2.5018 0.9572
-10.6446 -0.0322 -2.5018 0.9572
-10.6366 -0.4146 -2.5018 0.9572
-10.4675 -1.9341 -2.5018 0.9572
-10.3016 -2.6808 -2.5018 0.9572
-10.1987 -3.0491 -2.5018 0.9572
-10.0825 -3.4136 -2.5018 0.9572
-9.3101 -5.1606 -2.5018 0.9572
-8.8212 -5.7544 -2.4753 0.9576
-8.1928 -5.7744 -2.3557 0.9597
-7.9586 -6.0487 -2.3494 0.9598
-7.5037 -6.6046 -2.3494 0.9598
-7.4482 5.1824 -2.3494 0.9632
-7.6296 4.9114 -2.3494 0.9632
-7.9334 4.7128 -2.3892 0.9626
-8.6401 4.3255 -2.5018 0.9609
-8.9284 3.6939 -2.5018 0.9609
-9.0553 3.3707 -2.5018 0.9609
-9.1706 3.0432 -2.5018 0.9609
-9.2740 2.7117 -2.5018 0.9609
-9.3655 2.3768 -2.5018 0.9609
-9.4448 2.0387 -2.5018 0.9609
-9.5668 1.3552 -2.5018 0.9609
-9.6093 1.0106 -2.5018 0.9609
-9.6571 0.3180 -2.5018 0.9609
-9.6623 -0.0292 -2.5018 0.9609
-9.6550 -0.3764 -2.5018 0.9609
-9.6353 -0.7230 -2.5018 0.9609
-9.6030 -1.0687 -2.5018 0.9609
-9.5585 -1.4131 -2.5018 0.9609
-9.5015 -1.7556 -2.5018 0.9609
-9.4323 -2.0958 -2.5018 0.9609
-9.1520 -3.0986 -2.5018 0.9609
-9.0348 -3.4254 -2.5018 0.9609
-8.9059 -3.7478 -2.5018 0.9609
-8.6137 -4.3777 -2.5018 0.9609
-8.4509 -4.6843 -2.5018 0.9609
-8.2771 -4.9849 -2.5018 0.9609
-8.0929 -5.2791 -2.5018 0.9609
-7.8978 -5.5664 -2.5018 0.9609
-7.5741 -5.7564 -2.4632 0.9615
-6.8112 -5.9950 -2.3494 0.9632
-6.5914 -6.2359 -2.3494 0.9632
-7.3012 4.7000 -2.4581 0.9645
-7.5977 4.5134 -2.5018 0.9639
-8.1659 3.3784 -2.5018 0.9639
-8.2821 3.0828 -2.5018 0.9639
-8.3874 2.7833 -2.5018 0.9639
-8.6382 1.8646 -2.5018 0.9639
-8.6996 1.5531 -2.5018 0.9639
-8.7887 0.9243 -2.5018 0.9639
-8.8163 0.6080 -2.5018 0.9639
-8.8324 0.2908 -2.5018 0.9639
-8.8372 -0.0267 -2.5018 0.9639
-8.8305 -0.3442 -2.5018 0.9639
-8.8124 -0.6613 -2.5018 0.9639
-8.7830 -0.9775 -2.5018 0.9639
-8.7422 -1.2924 -2.5018 0.9639
-8.6901 -1.6057 -2.5018 0.9639
-8.6269 -1.9168 -2.5018 0.9639
-8.3705 -2.8340 -2.5018 0.9639
-8.2633 -3.1329 -2.5018 0.9639
-8.1454 -3.4277 -2.5018 0.9639
-8.0170 -3.7182 -2.5018 0.9639
-7.7293 -4.2843 -2.5018 0.9639
-7.4016 -4.8283 -2.5018 0.9639
-6.8391 -5.5967 -2.5018 0.9639
-6.5396 -5.7559 -2.4663 0.9644
-6.0998 -5.7708 -2.3771 0.9657
-6.6765 4.6455 -2.5018 0.9665
-6.8392 4.4026 -2.5018 0.9665
-7.1377 3.9001 -2.5018 0.9665
-7.3993 3.3775 -2.5018 0.9665
-7.5159 3.1095 -2.5018 0.9665
-7.8838 2.0007 -2.5018 0.9665
-7.9506 1.7162 -2.5018 0.9665
-8.0071 1.4294 -2.5018 0.9665
-8.1144 0.5596 -2.5018 0.9665
-8.1293 0.2677 -2.5018 0.9665
-8.1109 -0.6086 -2.5018 0.9665
-8.0838 -0.8996 -2.5018 0.9665
-8.0462 -1.1895 -2.5018 0.9665
-7.9983 -1.4778 -2.5018 0.9665
-7.7042 -2.6084 -2.5018 0.9665
-7.2510 -3.6851 -2.5018 0.9665
-6.8123 -4.4439 -2.5018 0.9665
-6.4757 -4.9216 -2.5018 0.9665
-6.2946 -5.1511 -2.5018 0.9665
-6.1779 4.2985 -2.5018 0.9688
-6.6046 3.6088 -2.5018 0.9688
-6.7299 3.3692 -2.5018 0.9688
-6.8466 3.1252 -2.5018 0.9688
-6.9545 2.8772 -2.5018 0.9688
-7.0534 2.6255 -2.5018 0.9688
-7.2237 2.1122 -2.5018 0.9688
-7.2949 1.8513 -2.5018 0.9688
-7.3568 1.5880 -2.5018 0.9688
-7.4849 0.7872 -2.5018 0.9688
-7.5262 -0.0228 -2.5018 0.9688
-7.4009 -1.3675 -2.5018 0.9688
-7.3470 -1.6325 -2.5018 0.9688
-7.2836 -1.8954 -2.5018 0.9688
-7.2108 -2.1559 -2.5018 0.9688
-7.1287 -2.4135 -2.5018 0.9688
-6.8276 -3.1666 -2.5018 0.9688
-6.7095 -3.4098 -2.5018 0.9688
-6.3036 -4.1120 -2.5018 0.9688
-5.9920 -4.5540 -2.5018 0.9688
-5.7425 3.9956 -2.5018 0.9707
-5.8824 3.7867 -2.5018 0.9707
-6.0146 3.5729 -2.5018 0.9707
-6.1391 3.3545 -2.5018 0.9707
-6.2556 3.1318 -2.5018 0.9707
-6.4644 2.6745 -2.5018 0.9707
-6.6398 2.2033 -2.5018 0.9707
-6.7146 1.9634 -2.5018 0.9707
-6.9266 0.9812 -2.5018 0.9707
-6.9920 0.2302 -2.5018 0.9707
-6.9905 -0.2725 -2.5018 0.9707
-6.9206 -1.0231 -2.5018 0.9707
-6.8292 -1.5174 -2.5018 0.9707
-6.7703 -1.7618 -2.5018 0.9707
-6.7027 -2.0039 -2.5018 0.9707
-6.5414 -2.4801 -2.5018 0.9707
-6.2366 -3.1695 -2.5018 0.9707
-6.1187 -3.3916 -2.5018 0.9707
-5.9929 -3.6092 -2.5018 0.9707
-5.7182 -4.0303 -2.5018 0.9707
-5.5697 -4.2331 -2.5018 0.9707
-5.2514 -4.6222 -2.5018 0.9707
-5.0819 -4.8078 -2.5018 0.9707
-5.3587 3.7286 -2.5018 0.9724
-5.4892 3.5336 -2.5018 0.9724
-5.8376 2.9225 -2.5018 0.9724
-6.0324 2.4957 -2.5018 0.9724
-6.1960 2.0561 -2.5018 0.9724
-6.2659 1.8321 -2.5018 0.9724
-6.3277 1.6058 -2.5018 0.9724
-6.3813 1.3774 -2.5018 0.9724
-6.4267 1.1473 -2.5018 0.9724
-6.4925 0.6828 -2.5018 0.9724
-6.5247 0.2148 -2.5018 0.9724
-6.5282 -0.0197 -2.5018 0.9724
-6.5233 -0.2543 -2.5018 0.9724
-6.5100 -0.4885 -2.5018 0.9724
-6.4196 -1.1861 -2.5018 0.9724
-6.3728 -1.4160 -2.5018 0.9724
-6.3179 -1.6441 -2.5018 0.9724
-6.2547 -1.8700 -2.5018 0.9724
-6.1043 -2.3143 -2.5018 0.9724
-5.9223 -2.7467 -2.5018 0.9724
-5.8198 -2.9577 -2.5018 0.9724
-5.7098 -3.1649 -2.5018 0.9724
-5.4678 -3.5668 -2.5018 0.9724
-5.3361 -3.7609 -2.5018 0.9724
-4.9004 -4.3132 -2.5018 0.9724
-4.7423 -4.4865 -2.5018 0.9724
-5.1397 3.3087 -2.5018 0.9739
-5.2553 3.1219 -2.5018 0.9739
-5.3641 2.9310 -2.5018 0.9739
-5.4659 2.7364 -2.5018 0.9739
-5.5607 2.5383 -2.5018 0.9739
-5.6483 2.3368 -2.5018 0.9739
-5.8670 1.7155 -2.5018 0.9739
-5.9248 1.5036 -2.5018 0.9739
-5.9750 1.2898 -2.5018 0.9739
-6.0791 0.6393 -2.5018 0.9739
-6.0981 0.4205 -2.5018 0.9739
-6.1080 -0.2381 -2.5018 0.9739
-6.0751 -0.6761 -2.5018 0.9739
-6.0109 -1.1106 -2.5018 0.9739
-5.9671 -1.3259 -2.5018 0.9739
-5.7898 -1.9602 -2.5018 0.9739
-5.7156 -2.1670 -2.5018 0.9739
-5.3463 -2.9634 -2.5018 0.9739
-5.2363 -3.1536 -2.5018 0.9739
-4.8666 -3.6987 -2.5018 0.9739
-4.5884 -4.0386 -2.5018 0.9739
-4.8267 3.1072 -2.5018 0.9753
-4.9353 2.9317 -2.5018 0.9753
-5.3043 2.1945 -2.5018 0.9753
-5.3797 2.0025 -2.5018 0.9753
-5.4482 1.8079 -2.5018 0.9753
-5.5096 1.6110 -2.5018 0.9753
-5.7268 0.3949 -2.5018 0.9753
-5.7372 0.1889 -2.5018 0.9753
-5.7403 -0.0174 -2.5018 0.9753
-5.6448 -1.0430 -2.5018 0.9753
-5.6037 -1.2451 -2.5018 0.9753
-5.5554 -1.4456 -2.5018 0.9753
-5.4372 -1.8409 -2.5018 0.9753
-5.3676 -2.0350 -2.5018 0.9753
-5.2910 -2.2266 -2.5018 0.9753
-5.2075 -2.4152 -2.5018 0.9753
-5.1174 -2.6008 -2.5018 0.9753
-5.0206 -2.7829 -2.5018 0.9753
-4.8078 -3.1363 -2.5018 0.9753
-4.5702 -3.4735 -2.5018 0.9753
-4.1699 -3.9450 -2.5018 0.9753
-4.4364 3.0869 -2.5018 0.9765
-4.5445 2.9255 -2.5018 0.9765
-4.7428 2.5916 -2.5018 0.9765
-4.8329 2.4195 -2.5018 0.9765
-4.9167 2.2443 -2.5018 0.9765
-5.1296 1.7022 -2.5018 0.9765
-5.2386 1.3295 -2.5018 0.9765
-5.3206 0.9498 -2.5018 0.9765
-5.3512 0.7581 -2.5018 0.9765
-5.3750 0.5653 -2.5018 0.9765
-5.3895 -0.4044 -2.5018 0.9765
-5.3715 -0.5978 -2.5018 0.9765
-5.3147 -0.9820 -2.5018 0.9765
-5.2760 -1.1723 -2.5018 0.9765
-5.2305 -1.3611 -2.5018 0.9765
-5.0537 -1.9160 -2.5018 0.9765
-4.7271 -2.6202 -2.5018 0.9765
-4.5267 -2.9529 -2.5018 0.9765
-4.1827 -3.4228 -2.5018 0.9765
-4.0570 -3.5709 -2.5018 0.9765
-3.9261 -3.7144 -2.5018 0.9765
-4.1865 2.9129 -2.5018 0.9775
-4.2884 2.7606 -2.5018 0.9775
-4.6396 2.1178 -2.5018 0.9775
-4.7128 1.9498 -2.5018 0.9775
-4.7798 1.7792 -2.5018 0.9775
-4.8406 1.6063 -2.5018 0.9775
-4.9435 1.2545 -2.5018 0.9775
-4.9853 1.0761 -2.5018 0.9775
-5.0497 0.7153 -2.5018 0.9775
-5.0722 0.5334 -2.5018 0.9775
-5.0881 0.3509 -2.5018 0.9775
-5.0974 0.1678 -2.5018 0.9775
-5.1001 -0.0154 -2.5018 0.9775
-5.0963 -0.1987 -2.5018 0.9775
-5.0689 -0.5641 -2.5018 0.9775
-5.0453 -0.7459 -2.5018 0.9775
-5.0152 -0.9267 -2.5018 0.9775
-4.8864 -1.4609 -2.5018 0.9775
-4.7689 -1.8080 -2.5018 0.9775
-4.7009 -1.9782 -2.5018 0.9775
-4.6268 -2.1459 -2.5018 0.9775
-4.4607 -2.4726 -2.5018 0.9775
-4.3690 -2.6312 -2.5018 0.9775
-4.2716 -2.7865 -2.5018 0.9775
-4.1688 -2.9382 -2.5018 0.9775
-3.9470 -3.2300 -2.5018 0.9775
-3.8284 -3.3697 -2.5018 0.9775
-4.3122 2.1588 -2.5018 0.9785
-4.3869 2.0025 -2.5018 0.9785
-4.5194 1.6823 -2.5018 0.9785
-4.5769 1.5188 -2.5018 0.9785
-4.6286 1.3534 -2.5018 0.9785
-4.6742 1.1862 -2.5018 0.9785
-4.7138 1.0175 -2.5018 0.9785
-4.7473 0.8475 -2.5018 0.9785
-4.8109 0.3318 -2.5018 0.9785
-4.8089 -0.3608 -2.5018 0.9785
-4.7928 -0.5334 -2.5018 0.9785
-4.7705 -0.7052 -2.5018 0.9785
-4.6669 -1.2145 -2.5018 0.9785
-4.6203 -1.3814 -2.5018 0.9785
-4.5677 -1.5465 -2.5018 0.9785
-4.5091 -1.7096 -2.5018 0.9785
-4.4448 -1.8705 -2.5018 0.9785
-4.0390 -2.6347 -2.5018 0.9785
-3.7494 2.6088 -2.5018 0.9794
-3.8407 2.4724 -2.5018 0.9794
-3.9270 2.3328 -2.5018 0.9794
-4.0083 2.1902 -2.5018 0.9794
-4.0844 2.0448 -2.5018 0.9794
-4.1553 1.8967 -2.5018 0.9794
-4.2207 1.7462 -2.5018 0.9794
-4.3841 1.2819 -2.5018 0.9794
-4.4274 1.1236 -2.5018 0.9794
-4.4966 0.8027 -2.5018 0.9794
-4.5652 0.1503 -2.5018 0.9794
-4.5642 -0.1779 -2.5018 0.9794
-4.5186 -0.6680 -2.5018 0.9794
-4.4917 -0.8299 -2.5018 0.9794
-4.4590 -0.9908 -2.5018 0.9794
-4.4205 -1.1503 -2.5018 0.9794
-4.3265 -1.4648 -2.5018 0.9794
-4.2711 -1.6193 -2.5018 0.9794
-4.2101 -1.7717 -2.5018 0.9794
-4.0720 -2.0695 -2.5018 0.9794
-3.9129 -2.3565 -2.5018 0.9794
-3.8257 -2.4956 -2.5018 0.9794
-3.4287 -3.0179 -2.5018 0.9794
-3.5569 2.4749 -2.5018 0.9802
-3.6435 2.3455 -2.5018 0.9802
-3.7254 2.2130 -2.5018 0.9802
-3.8025 2.0778 -2.5018 0.9802
-4.1126 1.3647 -2.5018 0.9802
-4.1590 1.2161 -2.5018 0.9802
-4.2356 0.9143 -2.5018 0.9802
-4.3308 0.1426 -2.5018 0.9802
-4.3331 -0.0131 -2.5018 0.9802
-4.3299 -0.1688 -2.5018 0.9802
-4.3210 -0.3242 -2.5018 0.9802
-4.3066 -0.4793 -2.5018 0.9802
-4.2866 -0.6337 -2.5018 0.9802
-4.2610 -0.7873 -2.5018 0.9802
-4.2300 -0.9399 -2.5018 0.9802
-4.1043 -1.3896 -2.5018 0.9802
-3.9939 -1.6807 -2.5018 0.9802
-3.8629 -1.9632 -2.5018 0.9802
-3.7899 -2.1007 -2.5018 0.9802
-3.7120 -2.2355 -2.5018 0.9802
-3.6292 -2.3674 -2.5018 0.9802
-3.5418 -2.4963 -2.5018 0.9802
-3.4499 -2.6220 -2.5018 0.9802
-3.3534 -2.7442 -2.5018 0.9802
-3.2527 -2.8629 -2.5018 0.9802
-3.1477 -2.9779 -2.5018 0.9802
