ply
format ascii 1.0
element vertex 551
property float32 x
property float32 y
property float32 z
property float32 I
end_header
-21.1485 -6.3496 3.8935 0.9142
-21.7120 -7.3791 4.0435 0.9111
-21.0219 -7.9981 3.9659 0.9127
-19.9004 -8.4018 3.8089 0.9160
-33.4262 -21.8609 7.0425 0.8502
-30.3514 -21.4454 6.5529 0.8599
-26.1312 -21.4355 5.9595 0.8717
-16.9079 -21.4222 4.8121 0.8951
-5.2836 -7.2128 1.5765 0.9643
-5.1109 -7.5304 1.6047 0.9637
-4.3215 -6.8875 1.4337 0.9675
-4.1698 -7.2088 1.4684 0.9667
-37.4448 -6.9633 5.8347 0.8572
-37.5862 -8.3971 5.8999 0.8557
-21.0796 -6.3289 3.3717 0.9148
-21.0179 -7.9966 3.4450 0.9130
-35.5284 -21.4538 6.3581 0.8454
-32.8004 -21.4515 6.0040 0.8533
-30.3517 -21.4456 5.6933 0.8604
-26.1319 -21.4361 5.1778 0.8722
-22.5988 -21.4308 4.7712 0.8816
-21.0304 -21.4302 4.5997 0.8856
-19.5663 -21.4269 4.4452 0.8892
-18.1981 -21.4266 4.3066 0.8925
-16.9087 -21.4231 4.1810 0.8954
-5.2558 -7.1748 1.3625 0.9646
-4.2823 -6.8251 1.2343 0.9679
-4.1035 -7.0942 1.2555 0.9674
-37.3093 -6.9381 4.9417 0.8581
-37.2099 -8.3130 4.9649 0.8574
-21.2191 -7.2116 2.9184 0.9136
-21.5965 -8.2167 3.0090 0.9110
-19.4971 -9.0702 2.8002 0.9169
-38.5700 -21.4384 5.7463 0.8369
-35.5282 -21.4537 5.4046 0.8458
-32.7991 -21.4507 5.1035 0.8538
-28.1601 -21.4546 4.6101 0.8669
-26.1325 -21.4366 4.4015 0.8725
-22.5997 -21.4316 4.0558 0.8819
-5.2284 -7.1374 1.1521 0.9649
-4.8422 -7.7175 1.1864 0.9639
-37.6379 -8.4086 4.1413 0.8563
-21.0726 -7.1618 2.3899 0.9144
-20.8922 -7.9488 2.4003 0.9140
-35.5280 -21.4536 4.4566 0.8462
-32.7979 -21.4499 4.2082 0.8541
-26.1332 -21.4372 3.6296 0.8729
-24.2963 -21.4361 3.4793 0.8778
-16.9101 -21.4250 2.9309 0.8960
-5.2014 -7.1007 0.9452 0.9652
-5.0299 -7.4110 0.9618 0.9646
-4.1365 -7.1512 0.8871 0.9673
-3.9316 -7.3983 0.8997 0.9669
-20.8470 -7.0851 1.8639 0.9154
-20.8070 -7.9163 1.8845 0.9145
-20.3825 -8.6054 1.8729 0.9150
-19.3028 -8.9799 1.8022 0.9181
-30.3525 -21.4462 3.1461 0.8614
-24.2969 -21.4367 2.7429 0.8780
-21.0326 -21.4325 2.5420 0.8864
-19.5689 -21.4297 2.4566 0.8900
-18.2004 -21.4293 2.3800 0.8933
-16.9109 -21.4259 2.3106 0.8962
-5.1749 -7.0644 0.7413 0.9655
-4.9896 -7.3517 0.7521 0.9650
-4.7281 -7.5357 0.7531 0.9649
-4.4472 -7.6885 0.7519 0.9650
-4.0214 -7.5673 0.7254 0.9662
-38.3018 -8.5569 2.4337 0.8545
-20.9175 -7.9584 1.3878 0.9142
-32.7953 -21.4483 2.4300 0.8547
-30.3527 -21.4464 2.3046 0.8616
-28.1558 -21.4514 2.1949 0.8677
-24.2975 -21.4372 2.0093 0.8782
-19.5697 -21.4306 1.7996 0.8902
-18.2012 -21.4302 1.7435 0.8934
-16.9116 -21.4269 1.6927 0.8964
-4.6735 -7.4485 0.5453 0.9654
-4.3959 -7.5997 0.5444 0.9654
-3.8552 -7.2545 0.5094 0.9676
-20.8449 -7.0844 0.8681 0.9156
-20.1161 -8.4929 0.8610 0.9163
-42.1012 -21.4585 1.8633 0.8277
-38.5813 -21.4446 1.7405 0.8380
-35.5273 -21.4532 1.6365 0.8469
-30.3530 -21.4466 1.4655 0.8618
-24.2981 -21.4377 1.2777 0.8783
-19.5705 -21.4315 1.1444 0.8903
-18.2019 -21.4310 1.1087 0.8935
-16.9123 -21.4278 1.0764 0.8965
-15.6945 -21.4250 1.0472 0.8991
-14.5394 -21.4223 1.0209 0.9015
-4.4398 -7.6756 0.3496 0.9651
-37.7928 -7.0280 0.6493 0.8575
-37.2756 -8.3277 0.6452 0.8583
-21.7596 -7.3953 0.3882 0.9122
-21.0930 -8.0252 0.3812 0.9137
-19.8187 -8.3673 0.3634 0.9175
-42.0986 -21.4572 0.7982 0.8278
-38.5841 -21.4462 0.7456 0.8381
-35.5272 -21.4531 0.7011 0.8470
-28.1530 -21.4492 0.5978 0.8680
-26.1359 -21.4394 0.5710 0.8735
-22.6038 -21.4356 0.5262 0.8828
-18.2027 -21.4319 0.4750 0.8936
-16.9131 -21.4287 0.4611 0.8965
-14.5399 -21.4232 0.4373 0.9016
-4.3950 -7.5981 0.1483 0.9655
-4.1544 -7.8174 0.1495 0.9652
-37.4286 6.6381 -0.2140 0.8589
-46.7198 6.5642 -0.2656 0.8280
-21.4803 -7.3003 -0.1277 0.9132
-38.5869 -21.4478 -0.2486 0.8381
-35.5270 -21.4530 -0.2337 0.8470
-28.1516 -21.4481 -0.1993 0.8680
-26.1366 -21.4399 -0.1903 0.8735
-24.2993 -21.4388 -0.1824 0.8784
-21.0356 -21.4355 -0.1691 0.8868
-19.5722 -21.4333 -0.1634 0.8904
-16.9138 -21.4297 -0.1537 0.8965
-15.6958 -21.4268 -0.1495 0.8992
-13.4470 -21.4317 -0.1424 0.9037
-4.1303 -7.7721 -0.0496 0.9654
-37.4255 6.6375 -1.0703 0.8589
-46.7149 6.5635 -1.3283 0.8280
-42.0934 -21.4546 -1.3303 0.8277
-38.5897 -21.4493 -1.2432 0.8381
-35.5268 -21.4528 -1.1686 0.8470
-32.7904 -21.4450 -1.1033 0.8549
-26.1372 -21.4405 -0.9519 0.8735
-24.2999 -21.4393 -0.9125 0.8784
-22.6055 -21.4371 -0.8772 0.8828
-21.0364 -21.4363 -0.8457 0.8868
-15.6964 -21.4277 -0.7479 0.8992
-13.4469 -21.4315 -0.7124 0.9037
-4.2798 -7.3990 -0.2407 0.9664
-37.4224 6.6370 -1.9275 0.8588
-49.2179 3.3376 -2.5018 0.8207
-49.3305 -0.2056 -2.5018 0.8207
-49.2912 -1.9779 -2.5018 0.8207
-49.1884 -3.7477 -2.5018 0.8207
-49.0219 -5.5127 -2.5018 0.8207
-45.8200 -6.8277 -2.3494 0.8307
-45.5450 -8.4696 -2.3494 0.8307
-48.1441 -10.7558 -2.5018 0.8207
-47.2473 -14.1855 -2.5018 0.8207
-42.3814 -19.7163 -2.3705 0.8293
-41.2739 -21.0369 -2.3494 0.8307
-32.7892 -21.4442 -1.9869 0.8548
-30.3542 -21.4474 -1.8849 0.8617
-26.1379 -21.4410 -1.7145 0.8734
-24.3005 -21.4398 -1.6435 0.8783
-21.0371 -21.4371 -1.5232 0.8867
-18.2049 -21.4346 -1.4262 0.8935
-16.9153 -21.4315 -1.3846 0.8964
-13.4467 -21.4313 -1.2831 0.9036
-33.9067 -3.8129 -2.5018 0.8721
-30.6886 -9.2139 -2.3494 0.8794
-31.4338 -13.2711 -2.5018 0.8721
-30.9366 -14.3920 -2.5018 0.8721
-30.3995 -15.4943 -2.5018 0.8721
-29.8231 -16.5766 -2.5018 0.8721
-29.2083 -17.6375 -2.5018 0.8721
-28.5557 -18.6756 -2.5018 0.8721
-27.8662 -19.6895 -2.5018 0.8721
-25.8749 -19.7136 -2.3851 0.8777
-22.6072 -21.4387 -2.2844 0.8825
-25.6585 4.5506 -2.5018 0.9006
-25.9190 2.6961 -2.5018 0.9006
-25.9991 1.7631 -2.5018 0.9006
-26.0457 0.8278 -2.5018 0.9006
-25.7743 -3.8406 -2.5018 0.9006
-25.6196 -4.7643 -2.5018 0.9006
-25.4319 -5.6817 -2.5018 0.9006
-23.6756 -6.1903 -2.3494 0.9063
-23.4379 -7.0370 -2.3494 0.9063
-23.1699 -7.8746 -2.3494 0.9063
-24.0070 -10.1356 -2.5018 0.9006
-23.6273 -10.9917 -2.5018 0.9006
-23.2171 -11.8335 -2.5018 0.9006
-22.7769 -12.6601 -2.5018 0.9006
-22.3076 -13.4703 -2.5018 0.9006
-20.1474 -16.5271 -2.5018 0.9006
-18.9085 -17.9313 -2.5018 0.9006
-16.7281 -19.6958 -2.4809 0.9014
-15.5556 -19.7089 -2.4105 0.9040
-13.0061 -20.7290 -2.3494 0.9063
-11.3882 -21.4295 -2.3298 0.9071
-20.7376 3.6779 -2.5018 0.9187
-20.9482 2.1791 -2.5018 0.9187
-21.0130 1.4250 -2.5018 0.9187
-21.0443 -0.8445 -2.5018 0.9187
-21.0004 -1.6001 -2.5018 0.9187
-20.8313 -3.1041 -2.5018 0.9187
-20.7063 -3.8506 -2.5018 0.9187
-20.3762 -5.3277 -2.5018 0.9187
-18.4855 -7.0331 -2.3494 0.9234
-17.9327 -8.3425 -2.3494 0.9234
-17.6214 -8.9814 -2.3494 0.9234
-18.4087 -10.2321 -2.5018 0.9187
-16.7530 -12.7638 -2.5018 0.9187
-15.2822 -14.4924 -2.5018 0.9187
-13.6340 -16.0528 -2.5018 0.9187
-13.0484 -16.5323 -2.5018 0.9187
-11.8275 -17.4266 -2.5018 0.9187
-11.1937 -17.8404 -2.5018 0.9187
-9.8835 -18.5982 -2.5018 0.9187
-17.5620 1.8268 -2.5018 0.9312
-17.6163 1.1946 -2.5018 0.9312
-17.6566 -0.0736 -2.5018 0.9312
-17.6426 -0.7080 -2.5018 0.9312
-17.4640 -2.6023 -2.5018 0.9312
-17.3592 -3.2281 -2.5018 0.9312
-17.2320 -3.8498 -2.5018 0.9312
-16.7177 -5.6817 -2.5018 0.9312
-15.2756 -6.4493 -2.3494 0.9352
-14.7730 -7.5296 -2.3494 0.9352
-14.1941 -8.5711 -2.3494 0.9352
-13.8770 -9.0756 -2.3494 0.9352
-14.4204 -10.1890 -2.5018 0.9312
-13.2402 -11.6816 -2.5018 0.9312
-11.4301 -13.4579 -2.5018 0.9312
-10.9392 -13.8599 -2.5018 0.9312
-10.4341 -14.2440 -2.5018 0.9312
-9.9156 -14.6097 -2.5018 0.9312
-9.3842 -14.9566 -2.5018 0.9312
-8.8408 -15.2841 -2.5018 0.9312
-15.0386 2.1129 -2.5018 0.9403
-15.1048 1.5712 -2.5018 0.9403
-15.1515 1.0275 -2.5018 0.9403
-15.1786 0.4824 -2.5018 0.9403
-15.1862 -0.0633 -2.5018 0.9403
-15.1741 -0.6089 -2.5018 0.9403
-14.6924 -3.8415 -2.5018 0.9403
-14.5448 -4.3669 -2.5018 0.9403
-14.3785 -4.8867 -2.5018 0.9403
-12.9305 -6.0154 -2.3494 0.9438
-12.2081 -7.3719 -2.3494 0.9438
-11.9353 -7.8058 -2.3494 0.9438
-11.6471 -8.2296 -2.3494 0.9438
-11.3877 -10.0471 -2.5018 0.9403
-11.0193 -10.4498 -2.5018 0.9403
-10.6367 -10.8390 -2.5018 0.9403
-9.4086 -11.9207 -2.5018 0.9403
-8.9742 -12.2510 -2.5018 0.9403
-8.0712 -12.8639 -2.5018 0.9403
-7.6038 -13.1456 -2.5018 0.9403
-13.2387 1.3771 -2.5018 0.9473
-13.3034 0.4228 -2.5018 0.9473
-13.2716 -1.0112 -2.5018 0.9473
-13.2267 -1.4874 -2.5018 0.9473
-12.6022 -4.2830 -2.5018 0.9473
-12.2621 -5.1770 -2.5018 0.9473
-12.0682 -5.6142 -2.5018 0.9473
-10.9251 -6.0725 -2.3494 0.9504
-10.6998 -6.4611 -2.3494 0.9504
-9.3728 -8.2694 -2.3494 0.9504
-9.0696 -8.6009 -2.3494 0.9504
-8.6163 -10.1449 -2.5018 0.9473
-8.2462 -10.4479 -2.5018 0.9473
-7.4746 -11.0131 -2.5018 0.9473
-6.6644 -11.5215 -2.5018 0.9473
-6.2461 -11.7535 -2.5018 0.9473
-11.6536 2.0668 -2.5018 0.9528
-11.8083 0.8008 -2.5018 0.9528
-11.8295 0.3760 -2.5018 0.9528
-11.8353 -0.0493 -2.5018 0.9528
-11.7613 -1.3226 -2.5018 0.9528
-11.7062 -1.7443 -2.5018 0.9528
-11.6360 -2.1638 -2.5018 0.9528
-11.5507 -2.5805 -2.5018 0.9528
-10.9035 -4.6034 -2.5018 0.9528
-10.5448 -5.3746 -2.5018 0.9528
-10.3448 -5.7500 -2.5018 0.9528
-9.5611 -5.7735 -2.3609 0.9554
-9.3018 -6.0834 -2.3494 0.9556
-9.0772 -6.4137 -2.3494 0.9556
-8.8409 -6.7357 -2.3494 0.9556
-8.5932 -7.0491 -2.3494 0.9556
-8.0648 -7.6480 -2.3494 0.9556
-7.7847 -7.9328 -2.3494 0.9556
-7.4947 -8.2074 -2.3494 0.9556
-7.1950 -8.4714 -2.3494 0.9556
-6.8859 -8.7244 -2.3494 0.9556
-6.5680 -8.9662 -2.3494 0.9556
-6.2416 -9.1964 -2.3494 0.9556
-5.9260 -10.2450 -2.5018 0.9528
-5.5541 -10.4513 -2.5018 0.9528
-10.4813 1.8589 -2.5018 0.9572
-10.5413 1.4811 -2.5018 0.9572
-10.6394 0.3382 -2.5018 0.9572
-10.6447 -0.0444 -2.5018 0.9572
-10.5286 -1.5689 -2.5018 0.9572
-10.4654 -1.9462 -2.5018 0.9572
-10.2986 -2.6927 -2.5018 0.9572
-9.9493 -3.7852 -2.5018 0.9572
-9.6515 -4.4900 -2.5018 0.9572
-9.4840 -4.8339 -2.5018 0.9572
-9.3041 -5.1715 -2.5018 0.9572
-8.1732 -5.7750 -2.3520 0.9597
-7.9515 -6.0581 -2.3494 0.9598
-7.7287 -6.3399 -2.3494 0.9598
-7.2535 -6.8786 -2.3494 0.9598
-6.7407 -7.3817 -2.3494 0.9598
-6.4711 -7.6192 -2.3494 0.9598
-5.6137 -8.2713 -2.3494 0.9598
-4.6911 -8.8273 -2.3494 0.9598
-9.5685 1.3444 -2.5018 0.9609
-9.6403 0.6537 -2.5018 0.9609
-9.6624 -0.0403 -2.5018 0.9609
-9.6547 -0.3874 -2.5018 0.9609
-9.4300 -2.1067 -2.5018 0.9609
-9.2543 -2.7785 -2.5018 0.9609
-9.0309 -3.4359 -2.5018 0.9609
-8.9016 -3.7582 -2.5018 0.9609
-8.4455 -4.6943 -2.5018 0.9609
-8.2714 -4.9947 -2.5018 0.9609
-8.0870 -5.2887 -2.5018 0.9609
-6.8041 -6.0032 -2.3494 0.9632
-6.5841 -6.2438 -2.3494 0.9632
-5.6217 -7.1226 -2.3494 0.9632
-5.0956 -7.5079 -2.3494 0.9632
-8.7015 1.5432 -2.5018 0.9639
-8.7514 1.2296 -2.5018 0.9639
-8.8171 0.5979 -2.5018 0.9639
-8.8329 0.2807 -2.5018 0.9639
-8.8372 -0.0368 -2.5018 0.9639
-8.8117 -0.6714 -2.5018 0.9639
-8.7408 -1.3025 -2.5018 0.9639
-8.5499 -2.2355 -2.5018 0.9639
-8.4641 -2.5412 -2.5018 0.9639
-8.1415 -3.4373 -2.5018 0.9639
-7.8736 -4.0131 -2.5018 0.9639
-7.2174 -5.0997 -2.5018 0.9639
-6.8326 -5.6048 -2.5018 0.9639
-6.0858 -5.7713 -2.3743 0.9657
-5.5961 -6.1283 -2.3494 0.9661
-5.3723 -6.3254 -2.3494 0.9661
-4.4107 -7.0298 -2.3494 0.9661
-3.8945 -7.3284 -2.3494 0.9661
-8.0088 1.4204 -2.5018 0.9665
-8.1337 -0.0339 -2.5018 0.9665
-8.1272 -0.3261 -2.5018 0.9665
-8.0829 -0.9089 -2.5018 0.9665
-7.9967 -1.4871 -2.5018 0.9665
-7.7903 -2.3389 -2.5018 0.9665
-7.4933 -3.1636 -2.5018 0.9665
-7.3748 -3.4308 -2.5018 0.9665
-7.1094 -3.9516 -2.5018 0.9665
-6.9628 -4.2045 -2.5018 0.9665
-6.2886 -5.1586 -2.5018 0.9665
-6.0993 -5.3813 -2.5018 0.9665
-5.6463 -5.7537 -2.4795 0.9668
-4.5138 -6.1619 -2.3494 0.9685
-3.5845 -6.7450 -2.3494 0.9685
-7.4106 1.3143 -2.5018 0.9688
-7.5090 0.5092 -2.5018 0.9688
-7.5225 0.2391 -2.5018 0.9688
-7.5262 -0.0314 -2.5018 0.9688
-7.5202 -0.3018 -2.5018 0.9688
-7.5045 -0.5718 -2.5018 0.9688
-7.3994 -1.3760 -2.5018 0.9688
-7.3452 -1.6410 -2.5018 0.9688
-7.2815 -1.9038 -2.5018 0.9688
-7.1260 -2.4219 -2.5018 0.9688
-7.0344 -2.6763 -2.5018 0.9688
-6.7055 -3.4177 -2.5018 0.9688
-5.8190 -4.7733 -2.5018 0.9688
-4.5466 -5.7604 -2.4394 0.9695
-3.9690 -5.8481 -2.3494 0.9706
-3.5388 -6.1180 -2.3494 0.9706
-3.3167 -6.2413 -2.3494 0.9706
-6.9278 0.9734 -2.5018 0.9707
-6.9583 0.7238 -2.5018 0.9707
-6.9521 -0.7818 -2.5018 0.9707
-6.9195 -1.0311 -2.5018 0.9707
-6.8276 -1.5253 -2.5018 0.9707
-6.7684 -1.7697 -2.5018 0.9707
-6.7004 -2.0117 -2.5018 0.9707
-6.5386 -2.4877 -2.5018 0.9707
-6.4450 -2.7211 -2.5018 0.9707
-6.3431 -2.9509 -2.5018 0.9707
-6.2329 -3.1769 -2.5018 0.9707
-6.1148 -3.3988 -2.5018 0.9707
-5.9887 -3.6163 -2.5018 0.9707
-5.8549 -3.8291 -2.5018 0.9707
-5.7136 -4.0370 -2.5018 0.9707
-5.5648 -4.2397 -2.5018 0.9707
-5.4089 -4.4369 -2.5018 0.9707
-5.2459 -4.6284 -2.5018 0.9707
-5.0762 -4.8139 -2.5018 0.9707
-4.7174 -5.1661 -2.5018 0.9707
-4.3343 -5.4915 -2.5018 0.9707
-4.1341 -5.6437 -2.5018 0.9707
-3.9043 -5.7526 -2.4862 0.9709
-3.6151 -5.7616 -2.4324 0.9715
-3.3373 -5.7697 -2.3836 0.9721
-6.4280 1.1400 -2.5018 0.9724
-6.4649 0.9083 -2.5018 0.9724
-6.5134 0.4417 -2.5018 0.9724
-6.5250 0.2074 -2.5018 0.9724
-6.4571 -0.9622 -2.5018 0.9724
-6.4183 -1.1936 -2.5018 0.9724
-6.3160 -1.6514 -2.5018 0.9724
-6.2526 -1.8773 -2.5018 0.9724
-5.4636 -3.5732 -2.5018 0.9724
-5.3317 -3.7672 -2.5018 0.9724
-5.1929 -3.9564 -2.5018 0.9724
-4.8954 -4.3191 -2.5018 0.9724
-4.7370 -4.4922 -2.5018 0.9724
-4.5725 -4.6595 -2.5018 0.9724
-4.0446 -5.1245 -2.5018 0.9724
-3.4696 -5.5300 -2.5018 0.9724
-3.2688 -5.6511 -2.5018 0.9724
-3.0562 -5.7510 -2.4958 0.9725
-6.0188 1.0674 -2.5018 0.9739
-6.0799 0.6324 -2.5018 0.9739
-6.1126 -0.0255 -2.5018 0.9739
-6.1078 -0.2451 -2.5018 0.9739
-6.0950 -0.4644 -2.5018 0.9739
-5.9139 -1.5463 -2.5018 0.9739
-5.7132 -2.1737 -2.5018 0.9739
-5.6314 -2.3775 -2.5018 0.9739
-5.5423 -2.5783 -2.5018 0.9739
-5.2326 -3.1598 -2.5018 0.9739
-5.1158 -3.3457 -2.5018 0.9739
-4.8623 -3.7045 -2.5018 0.9739
-4.4354 -4.2062 -2.5018 0.9739
-4.1219 -4.5139 -2.5018 0.9739
-3.9571 -4.6591 -2.5018 0.9739
-3.7871 -4.7982 -2.5018 0.9739
-3.4327 -5.0578 -2.5018 0.9739
-3.0606 -5.2913 -2.5018 0.9739
-2.8685 -5.3978 -2.5018 0.9739
-5.6522 1.0024 -2.5018 0.9753
-5.6846 0.7987 -2.5018 0.9753
-5.7096 0.5939 -2.5018 0.9753
-5.7273 0.3884 -2.5018 0.9753
-5.7404 -0.0239 -2.5018 0.9753
-5.6777 -0.8460 -2.5018 0.9753
-5.6023 -1.2516 -2.5018 0.9753
-5.5537 -1.4521 -2.5018 0.9753
-5.4980 -1.6507 -2.5018 0.9753
-5.2884 -2.2327 -2.5018 0.9753
-5.2048 -2.4213 -2.5018 0.9753
-5.1144 -2.6068 -2.5018 0.9753
-4.9140 -2.9673 -2.5018 0.9753
-4.5662 -3.4789 -2.5018 0.9753
-4.1653 -3.9500 -2.5018 0.9753
-3.8709 -4.2390 -2.5018 0.9753
-3.5564 -4.5060 -2.5018 0.9753
-3.2237 -4.7498 -2.5018 0.9753
-5.3522 0.7520 -2.5018 0.9765
-5.3457 -0.7966 -2.5018 0.9765
-5.3137 -0.9881 -2.5018 0.9765
-5.2747 -1.1784 -2.5018 0.9765
-5.2289 -1.3672 -2.5018 0.9765
-5.1765 -1.5542 -2.5018 0.9765
-5.1173 -1.7392 -2.5018 0.9765
-4.9792 -2.1022 -2.5018 0.9765
-4.9004 -2.2797 -2.5018 0.9765
-4.8153 -2.4543 -2.5018 0.9765
-4.6266 -2.7938 -2.5018 0.9765
-4.1787 -3.4278 -2.5018 0.9765
-4.0528 -3.5757 -2.5018 0.9765
-3.6446 -3.9911 -2.5018 0.9765
-3.4987 -4.1195 -2.5018 0.9765
-3.0352 -4.4720 -2.5018 0.9765
-2.8725 -4.5782 -2.5018 0.9765
-2.5363 -4.7727 -2.5018 0.9765
-5.0219 0.8906 -2.5018 0.9775
-5.0976 0.1620 -2.5018 0.9775
-5.1002 -0.0213 -2.5018 0.9775
-5.0855 -0.3875 -2.5018 0.9775
-5.0445 -0.7517 -2.5018 0.9775
-5.0142 -0.9325 -2.5018 0.9775
-4.8289 -1.6412 -2.5018 0.9775
-4.7669 -1.8136 -2.5018 0.9775
-4.6986 -1.9837 -2.5018 0.9775
-4.5440 -2.3160 -2.5018 0.9775
-4.4579 -2.4778 -2.5018 0.9775
-4.3659 -2.6364 -2.5018 0.9775
-4.2684 -2.7916 -2.5018 0.9775
-4.1653 -2.9431 -2.5018 0.9775
-3.5723 -3.6402 -2.5018 0.9775
-3.4391 -3.7662 -2.5018 0.9775
-3.3016 -3.8874 -2.5018 0.9775
-2.7106 -4.3203 -2.5018 0.9775
-4.7755 0.6710 -2.5018 0.9785
-4.7966 0.4989 -2.5018 0.9785
-4.8200 0.1532 -2.5018 0.9785
-4.8185 -0.1934 -2.5018 0.9785
-4.7697 -0.7107 -2.5018 0.9785
-4.5659 -1.5518 -2.5018 0.9785
-4.5072 -1.7148 -2.5018 0.9785
-4.4427 -1.8757 -2.5018 0.9785
-4.3724 -2.0341 -2.5018 0.9785
-4.1282 -2.4928 -2.5018 0.9785
-4.0359 -2.6395 -2.5018 0.9785
-3.9385 -2.7828 -2.5018 0.9785
-3.7285 -3.0585 -2.5018 0.9785
-3.4992 -3.3184 -2.5018 0.9785
-2.8497 -3.8903 -2.5018 0.9785
-2.7081 -3.9902 -2.5018 0.9785
-2.4146 -4.1744 -2.5018 0.9785
-2.2630 -4.2585 -2.5018 0.9785
-4.4976 0.7977 -2.5018 0.9794
-4.5233 0.6355 -2.5018 0.9794
-4.5573 0.3090 -2.5018 0.9794
-4.5654 0.1451 -2.5018 0.9794
-4.5677 -0.0190 -2.5018 0.9794
-4.5179 -0.6732 -2.5018 0.9794
-4.4579 -0.9959 -2.5018 0.9794
-4.3248 -1.4698 -2.5018 0.9794
-4.2692 -1.6243 -2.5018 0.9794
-4.0696 -2.0743 -2.5018 0.9794
-3.9102 -2.3612 -2.5018 0.9794
-3.7305 -2.6359 -2.5018 0.9794
-3.5316 -2.8970 -2.5018 0.9794
-3.4252 -3.0220 -2.5018 0.9794
-3.3144 -3.1431 -2.5018 0.9794
-3.1993 -3.2602 -2.5018 0.9794
-3.0801 -3.3730 -2.5018 0.9794
-2.9569 -3.4815 -2.5018 0.9794
-2.8299 -3.5855 -2.5018 0.9794
-2.6993 -3.6849 -2.5018 0.9794
-2.5651 -3.7795 -2.5018 0.9794
-2.4277 -3.8692 -2.5018 0.9794
-2.2871 -3.9540 -2.5018 0.9794
-2.1435 -4.0336 -2.5018 0.9794
-4.2666 0.7567 -2.5018 0.9802
-4.3099 0.4483 -2.5018 0.9802
-4.3297 -0.1737 -2.5018 0.9802
-4.3207 -0.3292 -2.5018 0.9802
-4.2859 -0.6386 -2.5018 0.9802
-4.2602 -0.7922 -2.5018 0.9802
-4.1502 -1.2460 -2.5018 0.9802
-4.1027 -1.3944 -2.5018 0.9802
-4.0500 -1.5409 -2.5018 0.9802
-3.9920 -1.6854 -2.5018 0.9802
-3.9289 -1.8278 -2.5018 0.9802
-3.8607 -1.9677 -2.5018 0.9802
-3.7094 -2.2399 -2.5018 0.9802
-3.4468 -2.6261 -2.5018 0.9802
-3.3502 -2.7482 -2.5018 0.9802
-3.2493 -2.8668 -2.5018 0.9802
-3.0350 -3.0928 -2.5018 0.9802
-2.5607 -3.4957 -2.5018 0.9802
-2.4334 -3.5854 -2.5018 0.9802
-2.3030 -3.6705 -2.5018 0.9802
-2.0334 -3.8265 -2.5018 0.9802
