ply
format ascii 1.0
element vertex 550
property float32 x
property float32 y
property float32 z
property float32 I
end_header
-3.7706 -7.7556 1.5206 0.9656
-3.5513 -8.0218 1.5469 0.9650
-3.2296 -8.0622 1.5314 0.9653
-2.1856 -9.0109 1.6349 0.9630
-4.3915 -21.4223 3.8559 0.9150
-2.0384 -21.4143 3.7930 0.9163
-0.5006 -21.4116 3.7765 0.9167
0.2653 -21.4103 3.7755 0.9167
1.0320 -21.4147 3.7804 0.9166
1.7984 -21.3798 3.7831 0.9165
2.5740 -21.4047 3.8014 0.9162
4.4073 -22.7684 4.0892 0.9101
-3.2018 -7.9930 1.3191 0.9658
-2.6083 -7.2524 1.1807 0.9693
-2.5032 -8.9157 1.4186 0.9632
-2.1789 -8.9835 1.4161 0.9633
-4.3915 -21.4225 3.3500 0.9153
-2.8151 -21.4216 3.3099 0.9163
-2.0384 -21.4148 3.2955 0.9166
0.2653 -21.4109 3.2803 0.9170
3.4024 -21.7118 3.3667 0.9149
-2.8638 -7.9628 1.1019 0.9664
-2.8012 -8.7606 1.1977 0.9636
-2.4876 -8.8602 1.1984 0.9636
-5.1962 -21.4230 2.8706 0.9149
-4.3915 -21.4226 2.8477 0.9156
-2.8151 -21.4217 2.8135 0.9165
-2.0385 -21.4154 2.8013 0.9169
0.2653 -21.4114 2.7884 0.9172
1.0320 -21.4147 2.7919 0.9172
1.7984 -21.3798 2.7939 0.9171
2.5740 -21.4047 2.8074 0.9167
4.4073 -22.7684 3.0200 0.9107
32.0349 -31.1636 5.8199 0.8350
32.0217 -28.9958 5.6254 0.8401
-4.0069 -8.2415 0.9840 0.9638
-2.4626 -8.7709 0.9783 0.9640
-4.3915 -21.4227 2.3482 0.9158
-3.5986 -21.4223 2.3326 0.9163
-2.0385 -21.4159 2.3101 0.9171
-1.2679 -21.4146 2.3036 0.9173
1.0320 -21.4147 2.3022 0.9174
2.5740 -21.4047 2.3150 0.9169
3.4024 -21.7118 2.3599 0.9154
4.4073 -22.7684 2.4903 0.9109
-3.8957 -8.0128 0.7542 0.9649
-2.9855 -7.4528 0.6796 0.9683
-3.0531 -8.4893 0.7637 0.9644
-6.0171 -21.4309 1.8843 0.9145
-5.1963 -21.4233 1.8661 0.9153
-4.3916 -21.4228 1.8512 0.9160
-1.2679 -21.4152 1.8160 0.9175
-0.5006 -21.4138 1.8132 0.9176
0.2653 -21.4125 1.8128 0.9176
3.4025 -21.7118 1.8604 0.9156
4.4073 -22.7684 1.9632 0.9111
32.0643 -35.9986 4.0809 0.8241
32.0490 -33.4896 3.9240 0.8302
32.0349 -31.1635 3.7833 0.8358
-4.0074 -8.2426 0.5683 0.9639
-3.0232 -8.4061 0.5540 0.9648
-2.7187 -8.5024 0.5535 0.9649
-4.3916 -21.4229 1.3561 0.9161
-2.0386 -21.4170 1.3341 0.9174
-1.2679 -21.4157 1.3303 0.9176
-0.5006 -21.4144 1.3283 0.9177
1.7984 -21.3798 1.3305 0.9176
2.5740 -21.4047 1.3369 0.9172
32.0643 -35.9986 2.9894 0.8243
-3.3968 -7.6728 0.3309 0.9670
-3.2966 -8.2296 0.3496 0.9651
-2.9940 -8.3249 0.3488 0.9652
-2.6924 -8.4202 0.3486 0.9652
-6.0168 -21.4300 0.8777 0.9148
-4.3916 -21.4231 0.8623 0.9162
-2.8152 -21.4222 0.8520 0.9171
-2.0387 -21.4176 0.8483 0.9175
-1.2680 -21.4163 0.8459 0.9177
-0.5006 -21.4149 0.8446 0.9178
0.2653 -21.4136 0.8444 0.9178
4.4073 -22.7684 0.9144 0.9113
32.0349 -31.1635 1.7622 0.8362
32.0217 -28.9958 1.7034 0.8412
-3.9779 -8.1820 0.1537 0.9643
-3.2650 -8.1507 0.1483 0.9655
-2.9654 -8.2453 0.1480 0.9656
-6.8522 -21.4295 0.3800 0.9139
-6.0167 -21.4296 0.3760 0.9148
-5.1963 -21.4236 0.3724 0.9156
-3.5987 -21.4227 0.3669 0.9168
-2.0387 -21.4181 0.3634 0.9175
1.7984 -21.3798 0.3624 0.9177
2.5740 -21.4047 0.3642 0.9174
4.4073 -22.7684 0.3917 0.9114
32.0490 -33.4896 0.7830 0.8307
-3.8362 -7.8904 -0.0494 0.9655
-3.5324 -7.9792 -0.0491 0.9657
-6.8521 -21.4291 -0.1267 0.9139
-6.0166 -21.4291 -0.1253 0.9148
-3.5987 -21.4228 -0.1223 0.9168
-2.0388 -21.4187 -0.1211 0.9175
-1.2680 -21.4173 -0.1208 0.9178
1.0320 -21.4147 -0.1207 0.9178
2.5740 -21.4047 -0.1214 0.9174
32.0643 -35.9986 -0.2714 0.8246
32.0490 -33.4896 -0.2610 0.8308
32.0349 -31.1635 -0.2516 0.8363
-3.7395 -7.6915 -0.2408 0.9664
-3.8340 -8.6603 -0.2667 0.9628
-6.8520 -21.4286 -0.6335 0.9139
-6.0164 -21.4287 -0.6267 0.9148
-4.3917 -21.4234 -0.6158 0.9162
-3.5987 -21.4230 -0.6117 0.9167
-2.8153 -21.4225 -0.6084 0.9172
-2.0388 -21.4192 -0.6058 0.9175
-1.2681 -21.4179 -0.6041 0.9177
0.2654 -21.4152 -0.6030 0.9179
1.7984 -21.3798 -0.6041 0.9177
2.5740 -21.4047 -0.6071 0.9173
17.6900 -45.6054 -1.3774 0.8222
18.1732 -42.2994 -1.2963 0.8317
32.0643 -35.9986 -1.3574 0.8246
32.0349 -31.1635 -1.2585 0.8362
-8.5842 -21.4295 -1.1707 0.9117
-6.0163 -21.4282 -1.1287 0.9147
-5.1964 -21.4240 -1.1180 0.9155
-4.3917 -21.4235 -1.1091 0.9161
-0.5007 -21.4171 -1.0864 0.9178
0.2653 -21.4158 -1.0862 0.9178
3.4024 -21.7118 -1.1145 0.9157
4.4073 -22.7684 -1.1761 0.9113
11.1009 -48.0657 -2.5018 0.8207
12.8124 -47.6381 -2.5018 0.8207
14.5076 -47.1493 -2.5018 0.8207
18.1732 -42.2994 -2.3348 0.8316
21.0812 -44.5996 -2.5018 0.8207
27.2243 -41.1386 -2.5018 0.8207
30.3361 -36.6144 -2.4114 0.8266
-3.8326 -7.8830 -0.6427 0.9655
-6.8517 -21.4277 -1.6495 0.9137
-5.1965 -21.4241 -1.6164 0.9154
-4.3917 -21.4236 -1.6035 0.9160
-2.8153 -21.4228 -1.5843 0.9170
-2.0389 -21.4203 -1.5777 0.9173
-0.5007 -21.4176 -1.5708 0.9177
0.2654 -21.4163 -1.5704 0.9177
1.0320 -21.4147 -1.5720 0.9176
4.4073 -22.7684 -1.7004 0.9112
7.6781 -33.2453 -2.5018 0.8721
8.8619 -32.9495 -2.5018 0.8721
13.4688 -31.3496 -2.5018 0.8721
14.5812 -30.8479 -2.5018 0.8721
15.6748 -30.3069 -2.5018 0.8721
16.7484 -29.7269 -2.5018 0.8721
19.8354 -27.7626 -2.5018 0.8721
21.7688 -26.2740 -2.5018 0.8721
23.5908 -24.6511 -2.5018 0.8721
-3.8289 -7.8754 -0.8407 0.9654
-9.4865 -21.4284 -2.2498 0.9101
-7.7063 -21.4272 -2.1861 0.9126
-6.0161 -21.4273 -2.1367 0.9144
-5.1965 -21.4242 -2.1165 0.9152
0.2654 -21.4169 -2.0563 0.9175
1.0320 -21.4147 -2.0583 0.9175
1.7984 -21.3798 -2.0598 0.9174
2.5740 -21.4047 -2.0698 0.9170
3.4024 -21.7118 -2.1099 0.9155
6.3559 -23.6317 -2.3494 0.9063
7.6636 -24.9066 -2.5018 0.9006
9.4239 -24.2951 -2.5018 0.9006
10.2866 -23.9427 -2.5018 0.9006
11.9714 -23.1463 -2.5018 0.9006
12.7914 -22.7035 -2.5018 0.9006
14.3811 -21.7313 -2.5018 0.9006
15.1490 -21.2032 -2.5018 0.9006
15.8974 -20.6480 -2.5018 0.9006
16.6255 -20.0663 -2.5018 0.9006
19.3165 -17.4911 -2.5018 0.9006
-3.8234 -7.8642 -1.0387 0.9654
-7.0832 -19.6949 -2.4862 0.9191
-5.5324 -19.7050 -2.4312 0.9209
-4.7804 -19.7091 -2.4090 0.9216
-2.5913 -19.7195 -2.3625 0.9230
-1.8778 -19.7280 -2.3540 0.9233
-1.1689 -19.7437 -2.3494 0.9234
0.2451 -19.7768 -2.3494 0.9234
0.9521 -19.7554 -2.3494 0.9234
1.6596 -19.7301 -2.3519 0.9233
3.8762 -20.0244 -2.4228 0.9211
5.4701 -20.3385 -2.5018 0.9187
7.6166 -19.6358 -2.5018 0.9187
9.6755 -18.7073 -2.5018 0.9187
10.9877 -17.9680 -2.5018 0.9187
12.2437 -17.1368 -2.5018 0.9187
13.4371 -16.2180 -2.5018 0.9187
14.5618 -15.2162 -2.5018 0.9187
15.6120 -14.1367 -2.5018 0.9187
-7.1476 -16.1454 -2.5018 0.9312
-6.5658 -16.3907 -2.5018 0.9312
-5.9755 -16.6150 -2.5018 0.9312
-5.3776 -16.8180 -2.5018 0.9312
-2.9250 -17.4129 -2.5018 0.9312
-2.3005 -17.5063 -2.5018 0.9312
-1.6731 -17.5774 -2.5018 0.9312
-1.0435 -17.6260 -2.5018 0.9312
-0.4126 -17.6520 -2.5018 0.9312
0.2188 -17.6555 -2.5018 0.9312
2.1082 -17.5305 -2.5018 0.9312
2.7337 -17.4439 -2.5018 0.9312
3.3556 -17.3350 -2.5018 0.9312
3.9733 -17.2040 -2.5018 0.9312
6.9699 -16.2229 -2.5018 0.9312
7.5456 -15.9634 -2.5018 0.9312
12.2079 -12.7566 -2.5018 0.9312
-6.1476 -13.8864 -2.5018 0.9403
-5.1394 -14.2902 -2.5018 0.9403
-3.5796 -14.7584 -2.5018 0.9403
-3.0496 -14.8770 -2.5018 0.9403
-2.5157 -14.9765 -2.5018 0.9403
0.1882 -15.1852 -2.5018 0.9403
0.7310 -15.1687 -2.5018 0.9403
1.8132 -15.0777 -2.5018 0.9403
2.3512 -15.0032 -2.5018 0.9403
2.8861 -14.9096 -2.5018 0.9403
4.9822 -14.3458 -2.5018 0.9403
6.9766 -13.4890 -2.5018 0.9403
7.9228 -12.9559 -2.5018 0.9403
8.3809 -12.6643 -2.5018 0.9403
9.2646 -12.0330 -2.5018 0.9403
9.6889 -11.6941 -2.5018 0.9403
10.1008 -11.3401 -2.5018 0.9403
11.2571 -10.1933 -2.5018 0.9403
-3.8069 -7.8301 -1.6365 0.9652
-5.3880 -12.1708 -2.5018 0.9473
-4.0538 -12.6778 -2.5018 0.9473
-3.1373 -12.9351 -2.5018 0.9473
-2.2049 -13.1262 -2.5018 0.9473
-1.7342 -13.1967 -2.5018 0.9473
-1.2612 -13.2503 -2.5018 0.9473
-0.3110 -13.3065 -2.5018 0.9473
0.1649 -13.3091 -2.5018 0.9473
2.0607 -13.1497 -2.5018 0.9473
2.5296 -13.0676 -2.5018 0.9473
2.9952 -12.9688 -2.5018 0.9473
3.4570 -12.8534 -2.5018 0.9473
4.3667 -12.5735 -2.5018 0.9473
5.2541 -12.2292 -2.5018 0.9473
5.6880 -12.0336 -2.5018 0.9473
6.5335 -11.5963 -2.5018 0.9473
7.3455 -11.0997 -2.5018 0.9473
8.4919 -10.2493 -2.5018 0.9473
9.5406 -9.2810 -2.5018 0.9473
9.8663 -8.9340 -2.5018 0.9473
-3.8011 -7.8182 -1.8376 0.9651
-4.7911 -10.8224 -2.5018 0.9528
-4.4010 -10.9868 -2.5018 0.9528
-4.0054 -11.1371 -2.5018 0.9528
-3.6046 -11.2732 -2.5018 0.9528
-3.1992 -11.3949 -2.5018 0.9528
-2.3767 -11.5944 -2.5018 0.9528
-1.9606 -11.6720 -2.5018 0.9528
-1.5420 -11.7346 -2.5018 0.9528
-0.6995 -11.8148 -2.5018 0.9528
0.9921 -11.7938 -2.5018 0.9528
2.6633 -11.5319 -2.5018 0.9528
3.0740 -11.4293 -2.5018 0.9528
3.4807 -11.3121 -2.5018 0.9528
3.8829 -11.1804 -2.5018 0.9528
4.6720 -10.8743 -2.5018 0.9528
5.4372 -10.5127 -2.5018 0.9528
5.8096 -10.3115 -2.5018 0.9528
6.1746 -10.0972 -2.5018 0.9528
6.5317 -9.8700 -2.5018 0.9528
6.8804 -9.6301 -2.5018 0.9528
7.2203 -9.3779 -2.5018 0.9528
7.5510 -9.1138 -2.5018 0.9528
8.4836 -8.2528 -2.5018 0.9528
8.7732 -7.9442 -2.5018 0.9528
-3.7952 -7.8061 -2.0400 0.9650
-3.9583 -9.8815 -2.5018 0.9572
-3.6025 -10.0167 -2.5018 0.9572
-2.5091 -10.3449 -2.5018 0.9572
-2.1376 -10.4280 -2.5018 0.9572
-1.7634 -10.4978 -2.5018 0.9572
-1.3869 -10.5541 -2.5018 0.9572
0.1319 -10.6440 -2.5018 0.9572
1.2710 -10.5687 -2.5018 0.9572
2.0230 -10.4509 -2.5018 0.9572
3.1305 -10.1741 -2.5018 0.9572
3.8496 -9.9244 -2.5018 0.9572
4.2020 -9.7804 -2.5018 0.9572
4.5490 -9.6239 -2.5018 0.9572
5.2252 -9.2742 -2.5018 0.9572
5.8746 -8.8771 -2.5018 0.9572
6.1883 -8.6613 -2.5018 0.9572
6.7914 -8.1969 -2.5018 0.9572
7.0802 -7.9489 -2.5018 0.9572
7.8906 -7.1450 -2.5018 0.9572
-3.7893 -7.7940 -2.2439 0.9648
-3.6732 -8.2972 -2.3494 0.9632
-3.3741 -8.4232 -2.3494 0.9632
-2.7635 -8.6428 -2.3494 0.9632
-2.4528 -8.7361 -2.3494 0.9632
-2.1388 -8.8182 -2.3494 0.9632
-1.8221 -8.8890 -2.3494 0.9632
-1.5031 -8.9485 -2.3494 0.9632
-0.5710 -9.6456 -2.5018 0.9609
-0.2258 -9.6598 -2.5018 0.9609
0.8099 -9.6285 -2.5018 0.9609
2.1744 -9.4146 -2.5018 0.9609
3.1700 -9.1277 -2.5018 0.9609
3.4943 -9.0085 -2.5018 0.9609
3.8142 -8.8778 -2.5018 0.9609
4.1292 -8.7357 -2.5018 0.9609
4.7429 -8.4183 -2.5018 0.9609
5.0409 -8.2433 -2.5018 0.9609
6.1646 -7.4405 -2.5018 0.9609
6.6806 -6.9809 -2.5018 0.9609
6.9260 -6.7375 -2.5018 0.9609
7.1624 -6.4856 -2.5018 0.9609
-3.6287 -7.4636 -2.3494 0.9661
-3.3595 -7.5886 -2.3494 0.9661
-2.8086 -7.8093 -2.3494 0.9661
-1.9562 -8.0651 -2.3494 0.9661
-1.6665 -8.1299 -2.3494 0.9661
-0.7863 -8.2616 -2.3494 0.9661
-0.2065 -8.8349 -2.5018 0.9639
0.7408 -8.8062 -2.5018 0.9639
1.0552 -8.7741 -2.5018 0.9639
1.3682 -8.7308 -2.5018 0.9639
2.2953 -8.5340 -2.5018 0.9639
2.8993 -8.3482 -2.5018 0.9639
3.4885 -8.1197 -2.5018 0.9639
4.0599 -7.8496 -2.5018 0.9639
4.3379 -7.6994 -2.5018 0.9639
4.6104 -7.5394 -2.5018 0.9639
5.1375 -7.1906 -2.5018 0.9639
5.3913 -7.0023 -2.5018 0.9639
-3.3398 -6.8695 -2.3494 0.9685
-2.3263 -7.2754 -2.3494 0.9685
-1.8004 -7.4231 -2.3494 0.9685
-1.5338 -7.4827 -2.3494 0.9685
-0.9952 -7.5732 -2.3494 0.9685
-0.4514 -7.6250 -2.3494 0.9685
1.2593 -8.0357 -2.5018 0.9665
2.3921 -7.7741 -2.5018 0.9665
3.2108 -7.4733 -2.5018 0.9665
3.4760 -7.3537 -2.5018 0.9665
3.7366 -7.2247 -2.5018 0.9665
3.9926 -7.0865 -2.5018 0.9665
4.2434 -6.9392 -2.5018 0.9665
4.4888 -6.7830 -2.5018 0.9665
4.7285 -6.6182 -2.5018 0.9665
4.9621 -6.4449 -2.5018 0.9665
5.4100 -6.0738 -2.5018 0.9665
5.6237 -5.8765 -2.5018 0.9665
6.0293 -5.4595 -2.5018 0.9665
-2.8611 -6.4628 -2.3494 0.9706
-2.6282 -6.5610 -2.3494 0.9706
-2.1525 -6.7320 -2.3494 0.9706
-1.9105 -6.8047 -2.3494 0.9706
-1.6659 -6.8687 -2.3494 0.9706
-1.4193 -6.9238 -2.3494 0.9706
-1.1708 -6.9702 -2.3494 0.9706
-0.9208 -7.0076 -2.3494 0.9706
-0.6697 -7.0360 -2.3494 0.9706
0.0933 -7.5257 -2.5018 0.9688
0.3623 -7.5176 -2.5018 0.9688
0.8987 -7.4725 -2.5018 0.9688
1.4304 -7.3891 -2.5018 0.9688
2.2134 -7.1935 -2.5018 0.9688
3.2163 -6.8045 -2.5018 0.9688
3.4576 -6.6851 -2.5018 0.9688
4.1536 -6.2764 -2.5018 0.9688
4.5915 -5.9635 -2.5018 0.9688
4.8018 -5.7955 -2.5018 0.9688
-2.8725 -5.9084 -2.3494 0.9725
-2.4429 -6.0986 -2.3494 0.9725
-1.7758 -6.3252 -2.3494 0.9725
-1.3193 -6.4359 -2.3494 0.9725
-0.8560 -6.5137 -2.3494 0.9725
-0.6225 -6.5402 -2.3494 0.9725
0.3367 -6.9878 -2.5018 0.9707
0.5864 -6.9713 -2.5018 0.9707
1.0831 -6.9115 -2.5018 0.9707
1.5743 -6.8165 -2.5018 0.9707
2.5300 -6.5224 -2.5018 0.9707
2.7616 -6.4278 -2.5018 0.9707
3.2139 -6.2140 -2.5018 0.9707
3.8608 -5.8341 -2.5018 0.9707
4.2679 -5.5433 -2.5018 0.9707
4.6532 -5.2241 -2.5018 0.9707
4.8370 -5.0544 -2.5018 0.9707
5.0146 -4.8782 -2.5018 0.9707
-1.2311 -6.0058 -2.3494 0.9741
-0.6028 -6.3327 -2.4378 0.9731
-0.3858 -6.5169 -2.5018 0.9724
0.5472 -6.5054 -2.5018 0.9724
0.7795 -6.4817 -2.5018 0.9724
1.0108 -6.4496 -2.5018 0.9724
1.4691 -6.3609 -2.5018 0.9724
2.7899 -5.9022 -2.5018 0.9724
3.4059 -5.5695 -2.5018 0.9724
3.9827 -5.1728 -2.5018 0.9724
4.1651 -5.0271 -2.5018 0.9724
4.5137 -4.7166 -2.5018 0.9724
4.6795 -4.5522 -2.5018 0.9724
-2.0680 -5.7501 -2.5010 0.9739
-1.8426 -5.7627 -2.4762 0.9742
-1.6272 -5.7958 -2.4638 0.9743
-1.4194 -5.8520 -2.4645 0.9743
-1.0121 -6.0255 -2.5007 0.9739
-0.5792 -6.0852 -2.5018 0.9739
0.0758 -6.1123 -2.5018 0.9739
0.5124 -6.0912 -2.5018 0.9739
0.7298 -6.0690 -2.5018 0.9739
0.9464 -6.0390 -2.5018 0.9739
1.1617 -6.0013 -2.5018 0.9739
1.7977 -5.8424 -2.5018 0.9739
2.0054 -5.7744 -2.5018 0.9739
2.2106 -5.6990 -2.5018 0.9739
2.4130 -5.6163 -2.5018 0.9739
3.5535 -4.9737 -2.5018 0.9739
3.8999 -4.7070 -2.5018 0.9739
4.0657 -4.5646 -2.5018 0.9739
4.5312 -4.1030 -2.5018 0.9739
-2.5100 -5.1626 -2.5018 0.9753
-2.3238 -5.2491 -2.5018 0.9753
-1.7483 -5.4677 -2.5018 0.9753
-1.3531 -5.5787 -2.5018 0.9753
-1.1528 -5.6235 -2.5018 0.9753
-0.9509 -5.6611 -2.5018 0.9753
-0.7479 -5.6915 -2.5018 0.9753
-0.5439 -5.7146 -2.5018 0.9753
0.0712 -5.7400 -2.5018 0.9753
0.2764 -5.7338 -2.5018 0.9753
0.4812 -5.7202 -2.5018 0.9753
1.0910 -5.6358 -2.5018 0.9753
1.2918 -5.5932 -2.5018 0.9753
1.4910 -5.5435 -2.5018 0.9753
1.6882 -5.4866 -2.5018 0.9753
1.8833 -5.4227 -2.5018 0.9753
2.0760 -5.3519 -2.5018 0.9753
2.2660 -5.2743 -2.5018 0.9753
2.6372 -5.0988 -2.5018 0.9753
2.8178 -5.0013 -2.5018 0.9753
3.3372 -4.6708 -2.5018 0.9753
3.6624 -4.4204 -2.5018 0.9753
3.9689 -4.1473 -2.5018 0.9753
4.2552 -3.8531 -2.5018 0.9753
-2.0098 -5.0172 -2.5018 0.9765
-1.2739 -5.2525 -2.5018 0.9765
-1.0853 -5.2947 -2.5018 0.9765
-0.5121 -5.3804 -2.5018 0.9765
-0.1263 -5.4033 -2.5018 0.9765
0.8368 -5.3396 -2.5018 0.9765
1.0272 -5.3063 -2.5018 0.9765
1.4038 -5.2193 -2.5018 0.9765
1.5895 -5.1658 -2.5018 0.9765
1.9546 -5.0390 -2.5018 0.9765
2.3097 -4.8864 -2.5018 0.9765
2.6530 -4.7088 -2.5018 0.9765
2.8197 -4.6110 -2.5018 0.9765
2.9827 -4.5072 -2.5018 0.9765
3.1420 -4.3977 -2.5018 0.9765
3.2972 -4.2825 -2.5018 0.9765
3.4483 -4.1619 -2.5018 0.9765
3.8741 -3.7687 -2.5018 0.9765
4.0064 -3.6278 -2.5018 0.9765
-1.5534 -4.8579 -2.5018 0.9775
-1.2022 -4.9565 -2.5018 0.9775
-1.0242 -4.9963 -2.5018 0.9775
-0.8449 -5.0298 -2.5018 0.9775
-0.6645 -5.0568 -2.5018 0.9775
-0.4833 -5.0773 -2.5018 0.9775
-0.3014 -5.0913 -2.5018 0.9775
0.0632 -5.0998 -2.5018 0.9775
0.2455 -5.0943 -2.5018 0.9775
0.9693 -5.0073 -2.5018 0.9775
1.4999 -4.8747 -2.5018 0.9775
1.6733 -4.8180 -2.5018 0.9775
1.8445 -4.7550 -2.5018 0.9775
2.1796 -4.6111 -2.5018 0.9775
2.3431 -4.5302 -2.5018 0.9775
3.1114 -4.0412 -2.5018 0.9775
3.2540 -3.9274 -2.5018 0.9775
3.5263 -3.6848 -2.5018 0.9775
3.6558 -3.5563 -2.5018 0.9775
3.7806 -3.4234 -2.5018 0.9775
-1.6320 -4.5379 -2.5018 0.9785
-1.3035 -4.6429 -2.5018 0.9785
-1.1367 -4.6866 -2.5018 0.9785
-0.9684 -4.7242 -2.5018 0.9785
-0.7988 -4.7558 -2.5018 0.9785
-0.6283 -4.7813 -2.5018 0.9785
-0.4570 -4.8007 -2.5018 0.9785
-0.2850 -4.8140 -2.5018 0.9785
-0.1127 -4.8211 -2.5018 0.9785
0.2321 -4.8169 -2.5018 0.9785
0.4043 -4.8055 -2.5018 0.9785
0.5758 -4.7879 -2.5018 0.9785
0.7466 -4.7643 -2.5018 0.9785
0.9165 -4.7346 -2.5018 0.9785
1.0852 -4.6988 -2.5018 0.9785
1.2525 -4.6570 -2.5018 0.9785
1.4182 -4.6092 -2.5018 0.9785
1.7440 -4.4961 -2.5018 0.9785
1.9036 -4.4308 -2.5018 0.9785
2.0609 -4.3599 -2.5018 0.9785
2.2154 -4.2834 -2.5018 0.9785
2.5159 -4.1142 -2.5018 0.9785
2.6614 -4.0216 -2.5018 0.9785
2.8035 -3.9239 -2.5018 0.9785
3.0767 -3.7135 -2.5018 0.9785
3.2075 -3.6011 -2.5018 0.9785
3.3343 -3.4841 -2.5018 0.9785
-1.9972 -4.1080 -2.5018 0.9794
-1.6985 -4.2402 -2.5018 0.9794
-1.5458 -4.2982 -2.5018 0.9794
-1.3911 -4.3508 -2.5018 0.9794
-1.2347 -4.3977 -2.5018 0.9794
-0.4328 -4.5472 -2.5018 0.9794
0.2199 -4.5625 -2.5018 0.9794
0.3829 -4.5517 -2.5018 0.9794
0.5454 -4.5351 -2.5018 0.9794
0.7072 -4.5127 -2.5018 0.9794
1.3434 -4.3658 -2.5018 0.9794
1.4986 -4.3150 -2.5018 0.9794
1.6519 -4.2586 -2.5018 0.9794
1.8031 -4.1968 -2.5018 0.9794
2.0985 -4.0572 -2.5018 0.9794
2.5209 -3.8092 -2.5018 0.9794
2.7866 -3.6193 -2.5018 0.9794
2.9143 -3.5174 -2.5018 0.9794
3.2742 -3.1851 -2.5018 0.9794
3.3859 -3.0660 -2.5018 0.9794
-0.8702 -4.2449 -2.5018 0.9802
-0.5646 -4.2963 -2.5018 0.9802
0.5174 -4.3022 -2.5018 0.9802
0.6709 -4.2810 -2.5018 0.9802
1.4216 -4.0934 -2.5018 0.9802
1.5671 -4.0399 -2.5018 0.9802
1.8518 -3.9176 -2.5018 0.9802
1.9907 -3.8489 -2.5018 0.9802
2.1270 -3.7752 -2.5018 0.9802
2.5191 -3.5258 -2.5018 0.9802
2.7646 -3.3367 -2.5018 0.9802
2.8821 -3.2358 -2.5018 0.9802
2.9960 -3.1306 -2.5018 0.9802
3.1060 -3.0215 -2.5018 0.9802
