ply
format ascii 1.0
element vertex 491
property float32 x
property float32 y
property float32 z
property float32 I
end_header
3.2573 7.7785 1.4870 0.9663
1.1800 32.7658 5.7812 0.8753
-0.0018 31.4012 5.5369 0.8803
-2.9663 27.3003 4.8421 0.8945
-5.5662 25.3189 4.5710 0.9001
3.2569 7.7776 1.2917 0.9665
-0.0019 33.4848 5.1297 0.8733
-2.0217 27.9640 4.2951 0.8927
-3.0132 27.7325 4.2735 0.8933
-4.2489 29.2429 4.5269 0.8873
-5.1855 28.4411 4.4288 0.8896
-5.4430 24.7586 3.8834 0.9025
-6.3991 24.8063 3.9246 0.9015
-7.3784 24.8599 3.9726 0.9004
-8.3860 24.9232 4.0284 0.8991
26.9855 35.5737 5.8145 0.8352
-0.0020 33.8416 4.4069 0.8724
-1.0350 28.6452 3.7326 0.8908
-5.3264 24.2278 3.2303 0.9048
-7.2161 24.3133 3.3026 0.9028
3.2562 7.7758 0.9052 0.9667
1.2683 35.2170 3.7841 0.8678
-0.0020 33.6244 3.6106 0.8735
-3.0503 28.0738 3.0324 0.8926
-4.9471 27.1336 2.9617 0.8950
-7.0618 23.7932 2.6651 0.9050
26.9144 35.4799 3.7699 0.8363
3.2558 7.7749 0.7135 0.9667
-0.0019 33.4110 2.8283 0.8745
-3.0803 28.3494 2.4140 0.8918
-5.2386 28.7322 2.4724 0.8894
-6.1008 23.6500 2.0676 0.9066
3.2554 7.7741 0.5226 0.9668
-1.1574 32.0317 1.9876 0.8795
-2.3336 32.2772 2.0067 0.8784
-3.2671 30.0691 1.8756 0.8858
-5.3026 24.1200 1.5314 0.9058
-6.8486 23.0750 1.4926 0.9080
-7.8293 23.2687 1.5224 0.9063
3.2551 7.7732 0.3323 0.9668
-5.3301 24.2446 0.9788 0.9054
-6.0259 23.3597 0.9512 0.9079
-6.1479 20.7140 0.8520 0.9171
-6.9886 20.7702 0.8641 0.9160
-5.3301 24.2446 0.4193 0.9055
-6.0259 23.3597 0.4075 0.9080
-6.0483 20.3785 0.3591 0.9185
0.4692 6.4997 -0.0367 0.9743
-0.2379 6.5844 -0.0371 0.9740
-0.4761 6.5847 -0.0372 0.9739
-0.9568 6.5853 -0.0375 0.9737
-1.4479 6.5860 -0.0380 0.9734
-1.9548 6.5866 -0.0387 0.9729
-2.2163 6.5870 -0.0391 0.9726
3.2540 7.7705 -0.2372 0.9669
0.7054 6.4993 -0.1841 0.9742
-0.2379 6.5843 -0.1855 0.9740
-0.4760 6.5846 -0.1859 0.9739
-0.9568 6.5852 -0.1874 0.9737
-1.2007 6.5856 -0.1885 0.9736
-1.6990 6.5862 -0.1915 0.9731
-1.9548 6.5865 -0.1935 0.9729
35.2670 30.0370 -2.3493 0.8307
34.1613 31.2888 -2.3493 0.8307
33.0111 32.5000 -2.3493 0.8307
31.8181 33.6689 -2.3493 0.8307
29.6585 36.3012 -2.3773 0.8288
29.6128 39.0371 -2.4849 0.8218
28.3771 40.3506 -2.5017 0.8207
26.9041 41.3473 -2.5017 0.8207
25.3961 42.2903 -2.5017 0.8207
20.6819 44.7849 -2.5017 0.8207
3.2536 7.7697 -0.4272 0.9668
17.3842 46.1132 -2.4993 0.8209
15.6966 46.6685 -2.4970 0.8210
13.9921 47.1636 -2.4949 0.8212
12.2726 47.5981 -2.4928 0.8213
10.5404 47.9715 -2.4909 0.8214
0.2371 6.5836 -0.3341 0.9740
-0.0004 6.5839 -0.3339 0.9740
-0.4760 6.5845 -0.3348 0.9739
-0.7154 6.5848 -0.3359 0.9738
-0.9568 6.5851 -0.3375 0.9737
-1.2007 6.5855 -0.3395 0.9735
-1.4478 6.5858 -0.3420 0.9734
-1.6989 6.5861 -0.3449 0.9731
-2.2162 6.5868 -0.3524 0.9725
25.9753 22.1232 -2.5017 0.8721
25.1609 23.0452 -2.5017 0.8721
19.6275 27.9090 -2.5017 0.8721
18.6086 28.5984 -2.5017 0.8721
16.4997 29.8649 -2.5017 0.8721
15.4123 30.4403 -2.5017 0.8721
12.0359 31.9263 -2.5017 0.8721
10.8772 32.3394 -2.5017 0.8721
8.5188 33.0391 -2.5017 0.8721
5.7435 31.5222 -2.3493 0.8794
4.6034 31.7087 -2.3493 0.8794
0.7054 6.4991 -0.4793 0.9741
0.2371 6.5835 -0.4830 0.9739
-0.0004 6.5838 -0.4827 0.9739
-0.2379 6.5841 -0.4831 0.9739
-0.4760 6.5844 -0.4840 0.9739
-0.7154 6.5847 -0.4856 0.9738
-1.2007 6.5854 -0.4908 0.9735
-1.4478 6.5857 -0.4944 0.9733
-1.9547 6.5863 -0.5037 0.9728
-2.2162 6.5867 -0.5095 0.9725
19.8381 16.8962 -2.5017 0.9006
19.2162 17.6004 -2.5017 0.9006
18.5692 18.2817 -2.5017 0.9006
17.8981 18.9392 -2.5017 0.9006
14.2120 21.8416 -2.5017 0.9006
13.4154 22.3397 -2.5017 0.9006
12.6013 22.8088 -2.5017 0.9006
3.2529 7.7679 -0.8085 0.9667
9.1922 24.3832 -2.5017 0.9006
8.3072 24.6987 -2.5017 0.9006
7.4115 24.9821 -2.5017 0.9006
6.1097 23.6959 -2.3493 0.9063
5.2516 23.9007 -2.3493 0.9063
4.3865 24.0745 -2.3493 0.9063
0.7054 6.4990 -0.6276 0.9741
0.4691 6.4993 -0.6256 0.9742
0.2371 6.5834 -0.6324 0.9739
-0.2379 6.5840 -0.6325 0.9739
-0.4760 6.5843 -0.6338 0.9738
-0.7154 6.5846 -0.6359 0.9737
-0.9567 6.5850 -0.6388 0.9736
-1.2006 6.5853 -0.6426 0.9735
-1.6989 6.5859 -0.6530 0.9730
16.0336 13.6558 -2.5017 0.9187
13.9044 15.8185 -2.5017 0.9187
12.1153 17.2272 -2.5017 0.9187
10.1846 18.4345 -2.5017 0.9187
3.2525 7.7670 -1.0002 0.9666
7.4293 19.7069 -2.5017 0.9187
6.3051 18.7459 -2.3493 0.9234
4.9380 19.1515 -2.3493 0.9234
3.5533 19.5013 -2.3546 0.9233
2.8508 19.6361 -2.3569 0.9232
-0.2379 6.5839 -0.7826 0.9738
-0.9567 6.5849 -0.7904 0.9736
-1.4477 6.5855 -0.8009 0.9732
-1.6989 6.5858 -0.8079 0.9730
-1.9547 6.5861 -0.8161 0.9727
-2.2161 6.5865 -0.8255 0.9724
13.4418 11.4484 -2.5017 0.9312
12.5820 12.3872 -2.5017 0.9312
12.1273 12.8327 -2.5017 0.9312
11.6223 13.2223 -2.4943 0.9314
10.1569 14.4425 -2.5017 0.9312
7.9757 15.7524 -2.5017 0.9312
5.8490 15.5149 -2.3493 0.9352
3.5658 16.2287 -2.3543 0.9351
0.7054 6.4988 -0.9262 0.9739
-0.2379 6.5838 -0.9335 0.9737
-0.7154 6.5845 -0.9384 0.9736
11.5611 9.8466 -2.5017 0.9403
10.0258 11.4060 -2.5017 0.9403
9.6081 11.7600 -2.5017 0.9403
9.1779 12.0988 -2.5017 0.9403
3.2517 7.7653 -1.3869 0.9664
5.0306 13.3441 -2.3493 0.9438
2.5610 14.0550 -2.3535 0.9437
2.0529 14.1405 -2.3539 0.9437
0.2371 6.5831 -1.0852 0.9736
-0.2379 6.5837 -1.0853 0.9736
-0.7154 6.5844 -1.0911 0.9735
-1.4477 6.5853 -1.1107 0.9730
10.1328 8.6301 -2.5017 0.9473
9.4846 9.3378 -2.5017 0.9473
8.7872 9.9969 -2.5017 0.9473
6.4348 10.7154 -2.3493 0.9504
5.6460 11.1512 -2.3493 0.9504
3.6056 7.8076 -1.6164 0.9656
3.2386 7.7338 -1.5760 0.9665
4.4091 11.6955 -2.3493 0.9504
3.9878 11.8563 -2.3512 0.9504
0.7054 6.4986 -1.2286 0.9737
-1.2006 6.5849 -1.2581 0.9731
-1.4477 6.5852 -1.2673 0.9729
-1.6988 6.5855 -1.2783 0.9727
-1.9546 6.5858 -1.2912 0.9724
-2.2160 6.5862 -1.3061 0.9721
8.4338 8.3032 -2.5017 0.9528
7.8137 8.8893 -2.5017 0.9528
6.3935 9.0912 -2.3493 0.9556
6.0616 9.3157 -2.3493 0.9556
5.3747 9.7283 -2.3493 0.9556
5.0204 9.9157 -2.3493 0.9556
3.5183 7.6187 -1.7739 0.9663
3.2127 7.6719 -1.7581 0.9666
3.9222 10.4041 -2.3503 0.9556
3.1633 10.6627 -2.3510 0.9555
0.4691 6.4989 -1.3773 0.9737
0.2371 6.5829 -1.3924 0.9734
-0.2379 6.5835 -1.3925 0.9734
-0.4760 6.5839 -1.3953 0.9734
-0.7154 6.5842 -1.3999 0.9733
-0.9567 6.5845 -1.4064 0.9732
-1.2005 6.5848 -1.4148 0.9730
-1.4477 6.5851 -1.4252 0.9728
-1.6988 6.5854 -1.4376 0.9726
-2.2160 6.5861 -1.4688 0.9720
8.1038 6.9020 -2.5017 0.9572
7.8497 7.1896 -2.5017 0.9572
7.3112 7.7365 -2.5017 0.9572
7.0276 7.9951 -2.5017 0.9572
6.0413 7.9640 -2.3493 0.9598
5.4519 8.3786 -2.3493 0.9598
5.1462 8.5697 -2.3493 0.9598
4.8340 8.7496 -2.3493 0.9598
3.4828 7.5418 -1.9524 0.9664
3.5271 9.3558 -2.3499 0.9597
2.4973 9.6855 -2.3508 0.9597
2.1468 9.7704 -2.3511 0.9597
1.4373 9.8999 -2.3511 0.9597
0.4691 6.4988 -1.5313 0.9736
0.2371 6.5828 -1.5481 0.9733
-0.0004 6.5831 -1.5472 0.9733
-0.2379 6.5834 -1.5483 0.9733
-0.7154 6.5841 -1.5565 0.9732
-0.9567 6.5844 -1.5637 0.9730
-1.4476 6.5850 -1.5846 0.9727
-1.9546 6.5856 -1.6145 0.9722
-2.2160 6.5860 -1.6331 0.9719
7.3559 6.2650 -2.5017 0.9609
6.8853 6.7787 -2.5017 0.9609
6.6365 7.0225 -2.5017 0.9609
4.9487 7.6054 -2.3493 0.9632
4.6713 7.7788 -2.3493 0.9632
4.3879 7.9421 -2.3493 0.9632
3.1923 7.6233 -2.1399 0.9664
3.2011 8.4911 -2.3495 0.9632
2.8932 8.6020 -2.3498 0.9632
2.5816 8.7017 -2.3501 0.9632
2.2665 8.7901 -2.3503 0.9632
1.6273 8.9313 -2.3505 0.9632
1.3043 8.9839 -2.3505 0.9632
0.7053 6.4983 -1.6924 0.9734
-0.2379 6.5833 -1.7056 0.9731
-0.4760 6.5837 -1.7091 0.9731
-0.7154 6.5840 -1.7147 0.9730
-0.9567 6.5843 -1.7227 0.9729
-1.4476 6.5849 -1.7456 0.9725
-1.6987 6.5852 -1.7608 0.9723
-1.9545 6.5855 -1.7786 0.9720
-2.2159 6.5858 -1.7991 0.9717
6.5168 5.9688 -2.5017 0.9639
6.0698 6.4228 -2.5017 0.9639
5.8343 6.6375 -2.5017 0.9639
5.0155 6.6117 -2.3493 0.9661
4.5261 6.9559 -2.3493 0.9661
4.2724 7.1145 -2.3493 0.9661
3.7487 7.4039 -2.3493 0.9661
3.4032 7.3694 -2.2979 0.9668
3.1599 7.5458 -2.3159 0.9666
2.0726 8.0382 -2.3500 0.9661
1.4880 8.1667 -2.3500 0.9661
1.1927 8.2151 -2.3500 0.9661
0.7053 6.4982 -1.8504 0.9732
0.2371 6.5826 -1.8647 0.9730
-0.0004 6.5829 -1.8636 0.9730
-0.2378 6.5832 -1.8649 0.9730
-0.7153 6.5839 -1.8748 0.9728
-1.2005 6.5845 -1.8947 0.9726
-1.4476 6.5848 -1.9086 0.9724
-1.6987 6.5851 -1.9252 0.9721
-1.9545 6.5854 -1.9446 0.9718
5.7960 5.7063 -2.5017 0.9665
5.5866 5.9115 -2.5017 0.9665
5.3698 6.1091 -2.5017 0.9665
4.8327 5.9150 -2.3493 0.9685
4.6163 6.0853 -2.3493 0.9685
3.9323 6.5482 -2.3493 0.9685
2.9503 7.0453 -2.3493 0.9685
2.6944 7.1471 -2.3493 0.9685
2.4350 7.2396 -2.3493 0.9685
2.1726 7.3231 -2.3495 0.9685
1.9073 7.3972 -2.3496 0.9685
1.3694 7.5155 -2.3497 0.9685
0.4691 6.4985 -2.0040 0.9731
-0.9566 6.5841 -2.0464 0.9725
-1.2005 6.5844 -2.0586 0.9724
-1.4476 6.5847 -2.0736 0.9722
-1.6987 6.5850 -2.0917 0.9719
-2.2158 6.5856 -2.1372 0.9713
5.5500 5.0833 -2.5017 0.9688
5.3631 5.2801 -2.5017 0.9688
5.1693 5.4700 -2.5017 0.9688
4.2715 5.6308 -2.3493 0.9706
4.0657 5.7812 -2.3493 0.9706
3.8546 5.9240 -2.3493 0.9706
3.1926 6.3055 -2.3493 0.9706
2.9632 6.4165 -2.3493 0.9706
2.7300 6.5191 -2.3493 0.9706
2.4932 6.6133 -2.3493 0.9706
2.2531 6.6989 -2.3493 0.9706
1.5167 6.9030 -2.3493 0.9706
1.2669 6.9533 -2.3494 0.9706
1.0155 6.9945 -2.3494 0.9706
0.7053 6.4980 -2.1726 0.9728
0.4691 6.4984 -2.1657 0.9729
0.2371 6.5824 -2.1894 0.9726
-0.0004 6.5827 -2.1881 0.9726
-0.2378 6.5830 -2.1896 0.9726
-0.4760 6.5833 -2.1940 0.9726
-0.7153 6.5836 -2.2013 0.9725
-1.2004 6.5843 -2.2247 0.9722
-1.6986 6.5849 -2.2605 0.9717
-1.9544 6.5852 -2.2833 0.9715
-2.2539 6.6986 -2.3493 0.9706
4.9852 4.9080 -2.5017 0.9707
4.6186 5.2544 -2.5017 0.9707
3.5830 5.5065 -2.3493 0.9725
3.1769 5.7503 -2.3493 0.9725
2.9676 5.8611 -2.3493 0.9725
1.8686 6.2982 -2.3493 0.9725
1.6402 6.3615 -2.3493 0.9725
1.4099 6.4165 -2.3493 0.9725
0.9439 6.5014 -2.3493 0.9725
0.2365 6.5653 -2.3493 0.9725
-0.7096 6.5311 -2.3493 0.9725
-1.1784 6.4630 -2.3493 0.9725
-1.4106 6.4163 -2.3493 0.9725
-1.6409 6.3613 -2.3493 0.9725
-1.8692 6.2980 -2.3493 0.9725
4.9699 4.2329 -2.5017 0.9724
4.8141 4.4093 -2.5017 0.9724
4.3099 4.9033 -2.5017 0.9724
3.9276 5.1775 -2.4904 0.9725
3.5403 5.0341 -2.3584 0.9740
3.3436 5.1385 -2.3493 0.9741
3.1561 5.2557 -2.3493 0.9741
2.7693 5.4694 -2.3493 0.9741
2.5703 5.5657 -2.3493 0.9741
2.3680 5.6547 -2.3493 0.9741
1.9544 5.8107 -2.3493 0.9741
1.0989 6.0312 -2.3493 0.9741
0.8808 6.0669 -2.3493 0.9741
0.4414 6.1146 -2.3493 0.9741
0.2207 6.1265 -2.3493 0.9741
-0.0003 6.1305 -2.3493 0.9741
-0.2213 6.1265 -2.3493 0.9741
-0.4421 6.1146 -2.3493 0.9741
-0.6622 6.0947 -2.3493 0.9741
-1.0996 6.0311 -2.3493 0.9741
-1.5313 5.9362 -2.3493 0.9741
-1.9550 5.8104 -2.3493 0.9741
4.6535 3.9634 -2.5017 0.9739
4.3559 4.2884 -2.5017 0.9739
4.1984 4.4426 -2.5017 0.9739
3.8674 4.7336 -2.5017 0.9739
3.6943 4.8699 -2.5017 0.9739
3.5082 4.9884 -2.4959 0.9740
2.9552 4.9211 -2.3493 0.9755
2.7759 5.0244 -2.3493 0.9755
2.5930 5.1212 -2.3493 0.9755
2.4067 5.2113 -2.3493 0.9755
1.4332 5.5584 -2.3493 0.9755
1.2319 5.6065 -2.3493 0.9755
0.8247 5.6807 -2.3493 0.9755
0.6194 5.7067 -2.3493 0.9755
-0.4139 5.7253 -2.3493 0.9755
-0.8254 5.6806 -2.3493 0.9755
-1.0296 5.6471 -2.3493 0.9755
-1.6332 5.5030 -2.3493 0.9755
-1.8306 5.4405 -2.3493 0.9755
4.0906 4.0272 -2.5017 0.9753
3.9428 4.1721 -2.5017 0.9753
3.6319 4.4453 -2.5017 0.9753
3.3021 4.6954 -2.5017 0.9753
2.8870 4.8074 -2.4439 0.9758
2.6361 4.7713 -2.3757 0.9765
2.4350 4.8093 -2.3493 0.9768
2.2601 4.8940 -2.3493 0.9768
2.0822 4.9723 -2.3493 0.9768
1.7185 5.1094 -2.3493 0.9768
1.5332 5.1680 -2.3493 0.9768
0.7745 5.3347 -2.3493 0.9768
0.3881 5.3766 -2.3493 0.9768
0.1940 5.3871 -2.3493 0.9768
-0.0003 5.3906 -2.3493 0.9768
-0.1946 5.3871 -2.3493 0.9768
-0.3887 5.3766 -2.3493 0.9768
-0.5822 5.3591 -2.3493 0.9768
-0.7751 5.3346 -2.3493 0.9768
-0.9669 5.3032 -2.3493 0.9768
-1.1574 5.2649 -2.3493 0.9768
-1.7191 5.1092 -2.3493 0.9768
3.9856 3.6504 -2.5017 0.9765
3.7122 3.9281 -2.5017 0.9765
3.5682 4.0594 -2.5017 0.9765
3.4195 4.1854 -2.5017 0.9765
2.3935 4.7273 -2.4527 0.9769
2.1793 4.7191 -2.4061 0.9773
1.9757 4.7180 -2.3676 0.9777
1.4436 4.8658 -2.3493 0.9779
1.2672 4.9147 -2.3493 0.9779
1.0892 4.9571 -2.3493 0.9779
0.7292 5.0227 -2.3493 0.9779
0.5477 5.0458 -2.3493 0.9779
0.1827 5.0721 -2.3493 0.9779
-0.0003 5.0754 -2.3493 0.9779
-0.1832 5.0721 -2.3493 0.9779
-0.3660 5.0622 -2.3493 0.9779
-0.9103 4.9931 -2.3493 0.9779
-1.0897 4.9570 -2.3493 0.9779
-1.4444 4.8656 -2.3493 0.9779
3.8828 3.3069 -2.5017 0.9775
3.7610 3.4447 -2.5017 0.9775
3.6344 3.5781 -2.5017 0.9775
3.5030 3.7068 -2.5017 0.9775
3.3671 3.8306 -2.5017 0.9775
3.2269 3.9495 -2.5017 0.9775
3.0824 4.0633 -2.5017 0.9775
2.7816 4.2748 -2.5017 0.9775
2.4663 4.4641 -2.5017 0.9775
2.3038 4.5501 -2.5017 0.9775
2.1383 4.6302 -2.5017 0.9775
1.9653 4.6931 -2.4957 0.9776
1.7715 4.6991 -2.4633 0.9779
1.5823 4.7044 -2.4346 0.9781
0.8611 4.7257 -2.3562 0.9788
0.6881 4.7397 -2.3493 0.9789
-0.1729 4.7863 -2.3493 0.9789
-0.3454 4.7770 -2.3493 0.9789
-0.5173 4.7614 -2.3493 0.9789
-0.6886 4.7397 -2.3493 0.9789
-1.2158 4.7131 -2.3876 0.9785
-1.3976 4.7090 -2.4095 0.9784
-1.5829 4.7044 -2.4347 0.9781
3.6712 3.1268 -2.5017 0.9785
3.4364 3.3832 -2.5017 0.9785
3.0511 3.7344 -2.5017 0.9785
2.9145 3.8420 -2.5017 0.9785
2.7741 3.9445 -2.5017 0.9785
2.3320 4.2210 -2.5017 0.9785
2.1783 4.3023 -2.5017 0.9785
1.8627 4.4481 -2.5017 0.9785
1.7011 4.5123 -2.5017 0.9785
1.0313 4.6936 -2.4930 0.9786
0.1694 4.7031 -2.4415 0.9790
-0.1699 4.7031 -2.4415 0.9790
-0.6828 4.6991 -2.4634 0.9788
-0.8563 4.6966 -2.4767 0.9787
-1.2045 4.6695 -2.5017 0.9785
3.4774 2.9617 -2.5017 0.9794
3.1373 3.3198 -2.5017 0.9794
3.0156 3.4307 -2.5017 0.9794
2.8900 3.5372 -2.5017 0.9794
2.6276 3.7362 -2.5017 0.9794
2.4912 3.8285 -2.5017 0.9794
2.3516 3.9158 -2.5017 0.9794
2.2089 3.9981 -2.5017 0.9794
1.9150 4.1468 -2.5017 0.9794
1.7643 4.2132 -2.5017 0.9794
1.4562 4.3293 -2.5017 0.9794
1.2991 4.3790 -2.5017 0.9794
0.6563 4.5203 -2.5017 0.9794
0.4929 4.5410 -2.5017 0.9794
0.1644 4.5647 -2.5017 0.9794
-0.0003 4.5677 -2.5017 0.9794
-0.1649 4.5647 -2.5017 0.9794
-0.3293 4.5558 -2.5017 0.9794
-0.6567 4.5202 -2.5017 0.9794
-0.9807 4.4611 -2.5017 0.9794
-1.1409 4.4229 -2.5017 0.9794
-1.2996 4.3789 -2.5017 0.9794
-1.4566 4.3292 -2.5017 0.9794
3.1954 2.9267 -2.5017 0.9802
2.9762 3.1493 -2.5017 0.9802
2.8607 3.2546 -2.5017 0.9802
2.7416 3.3556 -2.5017 0.9802
2.4927 3.5444 -2.5017 0.9802
2.3633 3.6319 -2.5017 0.9802
2.2308 3.7148 -2.5017 0.9802
1.9573 3.8658 -2.5017 0.9802
1.6737 3.9968 -2.5017 0.9802
0.9299 4.2322 -2.5017 0.9802
0.7767 4.2629 -2.5017 0.9802
0.6226 4.2882 -2.5017 0.9802
0.3120 4.3219 -2.5017 0.9802
0.1560 4.3303 -2.5017 0.9802
-0.3124 4.3218 -2.5017 0.9802
-0.7772 4.2628 -2.5017 0.9802
-0.9304 4.2321 -2.5017 0.9802
-1.0823 4.1958 -2.5017 0.9802
-1.2329 4.1540 -2.5017 0.9802
-1.3819 4.1069 -2.5017 0.9802
