ply
format ascii 1.0
element vertex 535
property float32 x
property float32 y
property float32 z
property float32 I
end_header
-15.1468 21.3776 4.6197 0.8991
-37.7093 16.5421 7.2608 0.8460
-37.8285 13.4353 7.0784 0.8495
-42.3407 10.0512 7.6733 0.8380
-37.9516 -7.6813 6.8276 0.8545
-13.9872 21.3318 3.9078 0.9019
-15.1470 21.3778 4.0137 0.8994
-40.5751 19.5730 6.9013 0.8334
-36.6513 16.0780 6.1313 0.8505
-36.9938 14.6615 6.0961 0.8513
-37.4931 13.3162 6.0952 0.8513
-41.5692 11.4661 6.6060 0.8399
-42.0239 8.3879 6.5648 0.8408
-37.8995 -7.6707 5.9237 0.8552
-37.7230 -9.0622 5.9434 0.8547
-14.0061 21.3606 3.3262 0.9021
-16.1481 21.1321 3.4633 0.8983
-41.5519 21.9250 6.1180 0.8274
-42.6170 11.7551 5.7569 0.8367
-44.2661 10.5083 5.9246 0.8323
-38.9869 -6.4372 5.1456 0.8527
-37.7192 -7.6343 5.0114 0.8562
-37.6422 -9.0428 5.0413 0.8554
-14.0062 21.3608 2.7429 0.9023
-16.3495 21.3956 2.8915 0.8973
-36.4646 30.8330 5.1278 0.8252
-36.2975 28.5122 4.9564 0.8305
-36.1835 26.3699 4.8078 0.8352
-37.6110 25.3856 4.8726 0.8331
-41.3085 25.7635 5.2278 0.8221
-43.1824 13.6045 4.8617 0.8335
-47.0985 12.9912 5.2464 0.8216
-38.3219 -7.7562 4.1985 0.8545
-37.3555 -8.9740 4.1254 0.8568
-13.9838 21.3267 2.1588 0.9027
-15.1474 21.3784 2.2180 0.9002
-16.3499 21.3961 2.2795 0.8975
-35.2579 27.6957 3.7954 0.8353
-39.7045 24.7631 3.9612 0.8287
-16.3499 21.3961 1.6698 0.8977
-34.6356 29.2864 2.8127 0.8338
-34.6954 25.2853 2.6622 0.8419
-38.6139 -6.3756 2.4269 0.8548
-38.1908 -7.7297 2.4162 0.8554
-36.9776 -8.8832 2.3582 0.8586
-20.2013 22.8188 1.2017 0.8851
-29.9639 25.3363 1.5473 0.8546
-31.5434 22.9882 1.5390 0.8553
-37.9389 23.6620 1.7631 0.8361
-42.3296 24.3257 1.9251 0.8225
-46.4935 -7.6766 1.8581 0.8281
-36.7246 -8.8224 1.4893 0.8597
-4.6057 6.5004 0.1346 0.9686
-20.1765 22.7908 0.5142 0.8854
-21.7129 22.8133 0.5320 0.8816
-31.5434 22.9882 0.6593 0.8554
-33.2532 22.4444 0.6777 0.8517
-39.1932 22.5233 0.7636 0.8346
-46.4902 -7.6761 0.7959 0.8282
-38.1347 -7.7184 0.6572 0.8559
-4.3208 6.5897 -0.0444 0.9690
-4.6056 6.5002 -0.0448 0.9686
-5.8301 6.5856 -0.0495 0.9654
-6.2684 6.5862 -0.0512 0.9643
-8.3879 6.5889 -0.0601 0.9582
-9.6593 6.5196 -0.0656 0.9545
-10.5896 6.6046 -0.0703 0.9513
-11.4947 6.6058 -0.0746 0.9484
-12.5216 6.6071 -0.0797 0.9449
-13.6996 6.6086 -0.0856 0.9410
-14.8698 6.5231 -0.0914 0.9371
-16.6761 6.6092 -0.1010 0.9308
-18.6157 6.6117 -0.1112 0.9240
-40.9141 6.6424 -0.2334 0.8472
-46.4869 -7.6755 -0.2653 0.8282
-38.1547 -7.7224 -0.2192 0.8558
-4.3207 6.5895 -0.2219 0.9690
-5.8300 6.5855 -0.2477 0.9654
-6.2683 6.5860 -0.2560 0.9643
-6.7379 6.5866 -0.2653 0.9630
-7.2436 6.5873 -0.2757 0.9616
-7.7912 6.5880 -0.2873 0.9600
-8.3877 6.5888 -0.3003 0.9582
-10.5893 6.6044 -0.3514 0.9513
-11.4944 6.6056 -0.3733 0.9483
-12.5212 6.6069 -0.3986 0.9449
-13.6992 6.6084 -0.4283 0.9410
-16.6755 6.6089 -0.5051 0.9307
-18.6149 6.6114 -0.5562 0.9240
-20.9985 6.6156 -0.6199 0.9157
-23.9978 6.6194 -0.7010 0.9052
-33.1916 6.6251 -0.9530 0.8733
-46.4836 -7.6750 -1.3266 0.8282
-4.6054 6.5000 -0.4040 0.9686
-4.9719 6.5065 -0.4153 0.9677
-5.4187 6.5848 -0.4325 0.9664
-5.8299 6.5854 -0.4460 0.9654
-6.2682 6.5859 -0.4611 0.9642
-6.7378 6.5865 -0.4778 0.9630
-7.7910 6.5878 -0.5174 0.9600
-8.3875 6.5886 -0.5409 0.9582
-10.5890 6.6043 -0.6329 0.9512
-11.4941 6.6054 -0.6723 0.9483
-12.5208 6.6067 -0.7180 0.9449
-14.8687 6.5226 -0.8234 0.9370
-16.6748 6.6087 -0.9096 0.9307
-18.6141 6.6111 -1.0018 0.9239
-20.9975 6.6153 -1.1165 0.9156
-23.9964 6.6190 -1.2624 0.9051
-33.1891 6.6246 -1.7164 0.8732
-48.9809 4.3618 -2.4939 0.8212
-49.1059 2.5928 -2.4938 0.8212
-48.9691 -4.4935 -2.4939 0.8212
-45.8044 -5.8752 -2.3420 0.8311
-45.5634 -7.5231 -2.3420 0.8311
-47.8179 -11.4874 -2.4940 0.8212
-4.3205 6.5893 -0.5777 0.9689
-4.6054 6.4999 -0.5841 0.9686
-4.9718 6.5064 -0.6004 0.9677
-5.4186 6.5847 -0.6253 0.9664
-7.2433 6.5870 -0.7179 0.9615
-7.7908 6.5877 -0.7481 0.9599
-8.3873 6.5884 -0.7820 0.9581
-10.5887 6.6041 -0.9150 0.9512
-11.4937 6.6052 -0.9720 0.9482
-14.8682 6.5224 -1.1905 0.9370
-18.6133 6.6108 -1.4483 0.9238
-27.8867 6.6200 -2.1015 0.8914
-31.3538 6.2582 -2.3443 0.8796
-31.5587 5.1235 -2.3442 0.8797
-31.3369 -6.3425 -2.3443 0.8796
-31.0884 -7.4684 -2.3443 0.8796
-4.6053 6.4998 -0.7648 0.9685
-5.4185 6.5846 -0.8187 0.9663
-5.8296 6.5851 -0.8443 0.9653
-7.2431 6.5869 -0.9399 0.9614
-7.7907 6.5876 -0.9795 0.9598
-9.0411 6.5891 -1.0740 0.9560
-9.6583 6.5190 -1.1187 0.9543
-10.5884 6.6039 -1.1980 0.9511
-11.4934 6.6050 -1.2726 0.9481
-12.5200 6.6063 -1.3590 0.9447
-18.6125 6.6105 -1.8962 0.9237
-23.5518 6.4963 -2.3455 0.9065
-25.6790 4.1690 -2.4976 0.9007
-25.8123 3.2403 -2.4976 0.9007
-25.9785 1.3717 -2.4975 0.9007
-26.0110 0.4341 -2.4975 0.9007
-26.0097 -0.5041 -2.4975 0.9007
-25.9747 -1.4416 -2.4975 0.9007
-25.9060 -2.3772 -2.4976 0.9007
-25.8036 -3.3098 -2.4976 0.9007
-25.6677 -4.2380 -2.4976 0.9007
-24.0229 -5.7711 -2.3719 0.9055
-4.3204 6.5891 -0.9359 0.9688
-4.6052 6.4997 -0.9462 0.9684
-5.8295 6.5850 -1.0447 0.9652
-6.2678 6.5855 -1.0799 0.9640
-6.7373 6.5861 -1.1192 0.9628
-7.2429 6.5867 -1.1629 0.9613
-9.0409 6.5889 -1.3289 0.9559
-11.4931 6.6048 -1.5746 0.9480
-12.5196 6.6061 -1.6815 0.9446
-14.8671 6.5219 -1.9285 0.9367
-16.6729 6.6079 -2.1304 0.9303
-18.6134 6.6108 -2.3463 0.9235
-18.8394 5.9353 -2.3463 0.9235
-19.0408 5.2521 -2.3463 0.9235
-19.8255 4.7064 -2.4204 0.9212
-20.6259 4.1169 -2.4984 0.9188
-20.7607 3.3705 -2.4984 0.9188
-20.8686 2.6197 -2.4984 0.9188
-21.0029 1.1090 -2.4983 0.9188
-21.0293 0.3510 -2.4983 0.9188
-20.9999 -1.1655 -2.4983 0.9188
-20.9443 -1.9219 -2.4983 0.9188
-20.8615 -2.6759 -2.4984 0.9188
-20.4512 -4.9130 -2.4984 0.9188
-4.3203 6.5890 -1.1164 0.9687
-5.4183 6.5843 -1.2082 0.9661
-6.2677 6.5854 -1.2881 0.9639
-6.7372 6.5860 -1.3349 0.9627
-7.2428 6.5866 -1.3871 0.9612
-7.7903 6.5873 -1.4455 0.9596
-8.3867 6.5880 -1.5111 0.9578
-9.0407 6.5888 -1.5851 0.9558
-9.6578 6.5186 -1.6509 0.9540
-12.5193 6.6059 -2.0056 0.9444
-13.6969 6.6073 -2.1547 0.9404
-15.3980 6.1026 -2.3468 0.9353
-15.6078 5.5433 -2.3468 0.9353
-15.7973 4.9769 -2.3468 0.9353
-17.1599 4.0736 -2.4990 0.9312
-17.2955 3.4522 -2.4989 0.9312
-17.4991 2.1967 -2.4989 0.9312
-17.6338 0.2943 -2.4989 0.9312
-17.6092 -0.9773 -2.4989 0.9312
-17.4010 -2.8731 -2.4989 0.9312
-17.2862 -3.4987 -2.4989 0.9312
-4.6050 6.4994 -1.3122 0.9682
-5.4182 6.5842 -1.4047 0.9660
-5.8293 6.5847 -1.4488 0.9650
-6.2675 6.5853 -1.4977 0.9638
-9.0405 6.5886 -1.8429 0.9557
-11.4924 6.6044 -2.1836 0.9477
-12.6017 6.6494 -2.3473 0.9439
-13.2455 5.2495 -2.3472 0.9439
-14.6254 4.0342 -2.4994 0.9403
-14.7612 3.5042 -2.4993 0.9403
-14.8779 2.9696 -2.4993 0.9403
-14.9752 2.4312 -2.4993 0.9404
-15.1113 1.3457 -2.4993 0.9404
-15.1500 0.7999 -2.4993 0.9404
-15.1478 -0.8407 -2.4993 0.9404
-15.0479 -1.9302 -2.4993 0.9404
-14.8698 -3.0096 -2.4993 0.9403
-14.7518 -3.5438 -2.4993 0.9403
-4.3202 6.5887 -1.4809 0.9684
-5.8292 6.5846 -1.6529 0.9648
-6.2674 6.5851 -1.7087 0.9637
-7.2425 6.5863 -1.8400 0.9609
-7.7900 6.5870 -1.9175 0.9593
-8.3863 6.5877 -2.0045 0.9575
-9.0402 6.5884 -2.1026 0.9555
-10.5976 6.6096 -2.3476 0.9504
-10.8288 6.2231 -2.3476 0.9504
-11.0460 5.8285 -2.3475 0.9504
-11.8840 4.7099 -2.4028 0.9493
-12.8200 3.5362 -2.4996 0.9473
-13.0413 2.6030 -2.4996 0.9473
-13.1266 2.1311 -2.4996 0.9473
-13.1949 1.6564 -2.4996 0.9473
-13.2460 1.1796 -2.4996 0.9473
-13.2799 0.7012 -2.4996 0.9473
-13.2965 0.2219 -2.4996 0.9473
-13.2958 -0.2577 -2.4996 0.9473
-13.2779 -0.7369 -2.4996 0.9473
-13.1904 -1.6919 -2.4996 0.9473
-13.1208 -2.1664 -2.4996 0.9473
-13.0343 -2.6381 -2.4996 0.9473
-4.3201 6.5886 -1.6654 0.9683
-4.6049 6.4992 -1.6837 0.9680
-4.9712 6.5056 -1.7307 0.9671
-5.4180 6.5840 -1.8024 0.9657
-6.2673 6.5850 -1.9216 0.9635
-6.7368 6.5855 -1.9914 0.9622
-8.3861 6.5875 -2.2542 0.9573
-9.2063 6.2139 -2.3478 0.9556
-9.4242 5.8778 -2.3478 0.9556
-9.6299 5.5341 -2.3478 0.9556
-10.0034 4.8256 -2.3477 0.9556
-10.7076 4.6972 -2.4716 0.9533
-10.9947 4.3575 -2.4999 0.9528
-11.2800 3.5537 -2.4999 0.9528
-11.5065 2.7315 -2.4999 0.9528
-11.5975 2.3149 -2.4998 0.9528
-11.6734 1.8952 -2.4998 0.9528
-11.7341 1.4730 -2.4998 0.9528
-11.7795 1.0490 -2.4998 0.9528
-11.8245 0.1973 -2.4998 0.9528
-11.8239 -0.2291 -2.4998 0.9528
-11.7767 -1.0807 -2.4998 0.9528
-11.6682 -1.9266 -2.4998 0.9528
-11.5912 -2.3460 -2.4998 0.9528
-4.6048 6.4991 -1.8720 0.9678
-4.9711 6.5055 -1.9242 0.9669
-6.2672 6.5849 -2.1365 0.9633
-6.7366 6.5854 -2.2141 0.9620
-7.6291 6.4509 -2.3481 0.9598
-8.2807 5.5891 -2.3480 0.9598
-8.6617 4.9777 -2.3479 0.9598
-8.9361 4.7152 -2.3746 0.9593
-9.5814 4.6220 -2.5002 0.9572
-9.7417 4.2735 -2.5001 0.9572
-10.0242 3.5602 -2.5001 0.9572
-10.2545 2.8285 -2.5001 0.9572
-10.3498 2.4569 -2.5000 0.9572
-10.5544 1.3250 -2.5000 0.9572
-10.6224 0.5609 -2.5000 0.9572
-10.6357 0.1775 -2.5000 0.9572
-10.6352 -0.2061 -2.5000 0.9572
-10.6209 -0.5894 -2.5000 0.9572
-10.5928 -0.9720 -2.5000 0.9572
-10.5508 -1.3533 -2.5000 0.9572
-10.4952 -1.7329 -2.5000 0.9572
-10.4259 -2.1102 -2.5000 0.9572
-4.3199 6.5884 -2.0398 0.9680
-4.6047 6.4990 -2.0622 0.9676
-5.4178 6.5837 -2.2076 0.9654
-5.8288 6.5842 -2.2768 0.9643
-6.2528 6.5697 -2.3483 0.9632
-6.7098 6.1018 -2.3482 0.9632
-7.1319 5.6022 -2.3482 0.9632
-7.3291 5.3414 -2.3481 0.9632
-8.1828 4.7024 -2.4436 0.9618
-8.5408 4.5066 -2.5003 0.9609
-8.6976 4.1957 -2.5003 0.9609
-9.0996 3.2319 -2.5002 0.9609
-9.4695 1.8901 -2.5002 0.9609
-9.6181 0.8565 -2.5002 0.9609
-9.6427 0.5091 -2.5002 0.9609
-9.6548 0.1611 -2.5002 0.9609
-9.6544 -0.1871 -2.5002 0.9609
-9.6413 -0.5351 -2.5002 0.9609
-9.6158 -0.8824 -2.5002 0.9609
-9.5273 -1.5731 -2.5002 0.9609
-9.4644 -1.9156 -2.5002 0.9609
-9.3892 -2.2556 -2.5002 0.9609
-5.4987 6.2113 -2.3484 0.9661
-5.7191 6.0089 -2.3484 0.9661
-6.3342 5.3560 -2.3483 0.9661
-6.5231 5.1240 -2.3483 0.9661
-6.7035 4.8854 -2.3482 0.9661
-6.9832 4.7133 -2.3851 0.9656
-7.8118 4.1219 -2.5005 0.9639
-8.3230 2.9560 -2.5004 0.9639
-8.5142 2.3485 -2.5003 0.9639
-8.5933 2.0400 -2.5003 0.9639
-8.6613 1.7288 -2.5003 0.9639
-8.7179 1.4154 -2.5003 0.9639
-8.8197 0.4657 -2.5003 0.9639
-8.8184 -0.4894 -2.5003 0.9639
-8.7603 -1.1237 -2.5003 0.9639
-8.7141 -1.4388 -2.5003 0.9639
-8.5878 -2.0631 -2.5003 0.9639
-4.6361 6.0670 -2.3486 0.9686
-4.8518 5.8959 -2.3485 0.9686
-5.2639 5.5307 -2.3485 0.9686
-5.8301 4.9298 -2.3484 0.9686
-6.0179 4.7272 -2.3538 0.9685
-6.4497 4.7004 -2.4547 0.9672
-6.7387 4.5483 -2.5006 0.9665
-7.0488 4.0508 -2.5006 0.9665
-7.3223 3.5322 -2.5005 0.9665
-7.4448 3.2659 -2.5005 0.9666
-7.8368 2.1616 -2.5004 0.9666
-7.9096 1.8777 -2.5004 0.9666
-7.9721 1.5912 -2.5004 0.9666
-8.1180 0.4286 -2.5004 0.9666
-8.1282 0.1357 -2.5004 0.9666
-8.1168 -0.4505 -2.5004 0.9666
-8.0632 -1.0343 -2.5004 0.9666
-8.0207 -1.3243 -2.5004 0.9666
-7.9678 -1.6127 -2.5004 0.9666
-4.0848 5.7651 -2.3486 0.9707
-4.6832 5.2901 -2.3486 0.9707
-5.0522 4.9388 -2.3485 0.9707
-6.2355 4.2087 -2.5007 0.9688
-6.3832 3.9811 -2.5007 0.9688
-6.6534 3.5107 -2.5006 0.9688
-6.8890 3.0220 -2.5006 0.9688
-6.9935 2.7717 -2.5006 0.9688
-7.1749 2.2604 -2.5006 0.9688
-7.3191 1.7375 -2.5005 0.9688
-7.3770 1.4724 -2.5005 0.9688
-7.4252 1.2055 -2.5005 0.9688
-7.4638 0.9370 -2.5005 0.9688
-7.5119 0.3966 -2.5005 0.9688
-7.5210 -0.1458 -2.5005 0.9688
-7.5109 -0.4168 -2.5005 0.9688
-7.4909 -0.6874 -2.5005 0.9688
-7.4613 -0.9570 -2.5005 0.9688
-7.4220 -1.2255 -2.5005 0.9688
-7.3729 -1.4923 -2.5005 0.9688
-4.1732 5.0713 -2.3486 0.9725
-4.5277 4.7572 -2.3486 0.9725
-5.3401 4.5154 -2.5008 0.9707
-5.4994 4.3199 -2.5008 0.9707
-5.6515 4.1187 -2.5008 0.9707
-5.7963 3.9123 -2.5008 0.9707
-6.0631 3.4843 -2.5007 0.9707
-6.2983 3.0383 -2.5007 0.9707
-6.5008 2.5764 -2.5007 0.9707
-6.6695 2.1012 -2.5006 0.9707
-6.8035 1.6151 -2.5006 0.9707
-6.8573 1.3687 -2.5006 0.9707
-6.9022 1.1206 -2.5006 0.9707
-6.9381 0.8710 -2.5006 0.9707
-6.9649 0.6202 -2.5006 0.9707
-6.9828 0.3687 -2.5006 0.9707
-6.9916 0.1167 -2.5006 0.9707
-6.9912 -0.1355 -2.5006 0.9707
-6.9818 -0.3875 -2.5006 0.9707
-6.8536 -1.3872 -2.5006 0.9707
-3.3607 5.1255 -2.3488 0.9741
-3.5433 5.0009 -2.3487 0.9741
-3.7213 4.8698 -2.3487 0.9741
-4.1686 4.7088 -2.4100 0.9734
-4.4686 4.6951 -2.4839 0.9726
-4.6668 4.5620 -2.5010 0.9724
-4.8282 4.3907 -2.5009 0.9724
-5.1320 4.0313 -2.5009 0.9724
-5.2739 3.8436 -2.5009 0.9724
-5.4090 3.6509 -2.5008 0.9724
-5.7715 3.0454 -2.5008 0.9724
-6.0665 2.4043 -2.5007 0.9724
-6.1493 2.1840 -2.5007 0.9724
-6.2239 1.9608 -2.5007 0.9724
-6.2906 1.7351 -2.5007 0.9724
-6.3490 1.5072 -2.5007 0.9724
-6.4411 1.0457 -2.5007 0.9724
-6.5163 0.3441 -2.5007 0.9724
-6.5245 0.1089 -2.5007 0.9724
-6.4981 -0.5963 -2.5007 0.9724
-6.3957 -1.2945 -2.5007 0.9724
-3.5962 4.7062 -2.4241 0.9747
-4.0506 4.5755 -2.5011 0.9739
-4.2129 4.4265 -2.5010 0.9739
-4.3698 4.2716 -2.5010 0.9739
-4.9383 3.5989 -2.5009 0.9739
-5.1847 3.2337 -2.5009 0.9739
-5.5035 2.6548 -2.5008 0.9739
-5.5956 2.4547 -2.5008 0.9739
-5.6804 2.2513 -2.5008 0.9739
-5.7579 2.0450 -2.5008 0.9739
-5.8902 1.6247 -2.5008 0.9739
-5.9919 1.1960 -2.5007 0.9739
-6.0312 0.9792 -2.5007 0.9739
-6.0860 0.5420 -2.5007 0.9739
-6.1016 0.3222 -2.5007 0.9739
-6.1090 -0.1184 -2.5007 0.9739
-6.1007 -0.3386 -2.5007 0.9739
-6.0285 -0.9954 -2.5007 0.9739
-5.9887 -1.2121 -2.5007 0.9739
-5.9411 -1.4273 -2.5008 0.9739
-3.4845 4.5600 -2.5011 0.9753
-3.6466 4.4314 -2.5011 0.9753
-3.8040 4.2970 -2.5011 0.9753
-3.9564 4.1570 -2.5011 0.9753
-4.1037 4.0116 -2.5010 0.9753
-4.2456 3.8610 -2.5010 0.9753
-4.3821 3.7053 -2.5010 0.9753
-4.5128 3.5449 -2.5010 0.9753
-4.7564 3.2104 -2.5009 0.9753
-5.3346 2.1142 -2.5008 0.9753
-5.4730 1.7243 -2.5008 0.9753
-5.5316 1.5258 -2.5008 0.9753
-5.7370 -0.1112 -2.5008 0.9753
-5.7141 -0.5243 -2.5008 0.9753
-2.9629 4.5188 -2.5012 0.9765
-3.1239 4.4090 -2.5012 0.9765
-3.2808 4.2934 -2.5012 0.9765
-3.4334 4.1723 -2.5012 0.9765
-3.5816 4.0457 -2.5011 0.9765
-3.7251 3.9139 -2.5011 0.9765
-3.8638 3.7770 -2.5011 0.9765
-4.1259 3.4887 -2.5010 0.9765
-4.2489 3.3376 -2.5010 0.9765
-4.3665 3.1822 -2.5010 0.9765
-4.6845 2.6921 -2.5010 0.9765
-4.8663 2.3475 -2.5009 0.9765
-5.0228 1.9906 -2.5009 0.9765
-5.0912 1.8082 -2.5009 0.9765
-5.2083 1.4366 -2.5009 0.9765
-5.2982 1.0575 -2.5009 0.9765
-5.3329 0.8658 -2.5008 0.9765
-5.3952 0.2849 -2.5008 0.9765
-5.4019 0.0902 -2.5008 0.9765
-5.4017 -0.1047 -2.5008 0.9765
-5.3588 -0.6874 -2.5008 0.9765
-5.3305 -0.8801 -2.5008 0.9765
-5.2533 -1.2620 -2.5009 0.9765
-2.7960 4.2642 -2.5013 0.9775
-2.9479 4.1606 -2.5012 0.9775
-3.0960 4.0516 -2.5012 0.9775
-3.2400 3.9373 -2.5012 0.9775
-3.6462 3.5643 -2.5011 0.9775
-3.8935 3.2922 -2.5011 0.9775
-4.1205 3.0030 -2.5010 0.9775
-4.2261 2.8524 -2.5010 0.9775
-4.4206 2.5404 -2.5010 0.9775
-4.5921 2.2152 -2.5010 0.9775
-4.6690 2.0482 -2.5010 0.9775
-4.8045 1.7064 -2.5009 0.9775
-4.8629 1.5320 -2.5009 0.9775
-4.9605 1.1776 -2.5009 0.9775
-5.0587 0.6350 -2.5009 0.9775
-5.0783 0.4522 -2.5009 0.9775
-5.0977 0.0851 -2.5009 0.9775
-5.0905 -0.2825 -2.5009 0.9775
-5.0570 -0.6486 -2.5009 0.9775
-5.0303 -0.8306 -2.5009 0.9775
-4.9971 -1.0114 -2.5009 0.9775
-4.9574 -1.1909 -2.5009 0.9775
-2.7874 3.9340 -2.5013 0.9785
-2.9274 3.8309 -2.5012 0.9785
-3.0636 3.7228 -2.5012 0.9785
-3.3238 3.4923 -2.5012 0.9785
-3.4476 3.3702 -2.5012 0.9785
-3.6815 3.1129 -2.5011 0.9785
-3.7912 2.9781 -2.5011 0.9785
-4.0906 2.5513 -2.5010 0.9785
-4.1799 2.4021 -2.5010 0.9785
-4.2638 2.2498 -2.5010 0.9785
-4.5429 1.6135 -2.5010 0.9785
-4.6472 1.2819 -2.5010 0.9785
-4.6905 1.1135 -2.5010 0.9785
-4.8018 0.4276 -2.5009 0.9785
-4.8141 0.2542 -2.5009 0.9785
-4.8134 -0.2671 -2.5009 0.9785
-4.7564 -0.7853 -2.5009 0.9785
-2.5041 3.8191 -2.5013 0.9794
-2.7728 3.6286 -2.5013 0.9794
-2.9019 3.5263 -2.5012 0.9794
-3.1484 3.3079 -2.5012 0.9794
-3.2655 3.1922 -2.5012 0.9794
-3.3785 3.0724 -2.5012 0.9794
-3.7850 2.5547 -2.5011 0.9794
-3.8746 2.4166 -2.5011 0.9794
-3.9592 2.2753 -2.5011 0.9794
-4.1129 1.9840 -2.5010 0.9794
-4.2451 1.6824 -2.5010 0.9794
-4.3553 1.3721 -2.5010 0.9794
-4.4019 1.2142 -2.5010 0.9794
-4.4779 0.8938 -2.5010 0.9794
-4.5593 -0.2530 -2.5010 0.9794
-4.5053 -0.7439 -2.5010 0.9794
-4.4400 -1.0666 -2.5010 0.9794
-2.6304 3.4423 -2.5013 0.9802
-2.7529 3.3452 -2.5013 0.9802
-3.0979 3.0284 -2.5012 0.9802
-3.4067 2.6761 -2.5012 0.9802
-3.9017 1.8822 -2.5011 0.9802
-4.0272 1.5961 -2.5011 0.9802
-4.0821 1.4498 -2.5010 0.9802
-4.1317 1.3017 -2.5010 0.9802
-4.1759 1.1519 -2.5010 0.9802
-4.2759 0.6942 -2.5010 0.9802
-4.3312 0.0723 -2.5010 0.9802
-4.3252 -0.2400 -2.5010 0.9802
-4.3137 -0.3958 -2.5010 0.9802
-4.2966 -0.5511 -2.5010 0.9802
-4.2740 -0.7057 -2.5010 0.9802
-4.2458 -0.8593 -2.5010 0.9802
-4.2121 -1.0119 -2.5010 0.9802
