ply
format ascii 1.0
element vertex 650
property float32 x
property float32 y
property float32 z
property float32 I
end_header
-21.6121 -6.8678 3.9986 0.9120
-32.3496 -21.8723 6.8855 0.8533
-25.3414 -21.4351 5.8525 0.8739
-23.5718 -21.4342 5.6177 0.8786
-18.9936 -21.4259 5.0487 0.8902
-17.6631 -21.4256 4.8962 0.8933
-5.2257 -7.3552 1.5909 0.9640
-4.3754 -6.6511 1.4038 0.9682
-4.2088 -6.9266 1.4291 0.9676
-4.1726 -7.4568 1.5067 0.9659
-3.3946 -7.9711 1.5277 0.9654
-3.0929 -8.0519 1.5209 0.9656
-2.4697 -8.1265 1.4976 0.9661
-2.3795 -8.9742 1.6371 0.9630
-4.8655 -21.4226 3.8736 0.9146
-4.0638 -21.4222 3.8447 0.9152
-2.4910 -21.4213 3.8026 0.9161
-1.7148 -21.4137 3.7879 0.9164
-0.9439 -21.4124 3.7792 0.9166
-0.1755 -21.4110 3.7755 0.9167
-21.1629 -7.5705 3.4432 0.9131
-20.6413 -8.2299 3.4042 0.9140
-37.2260 -21.4534 6.5820 0.8404
-34.3227 -21.4548 6.2008 0.8489
-31.7178 -21.4452 5.8654 0.8565
-29.4031 -21.4552 5.5761 0.8630
-27.2933 -21.4563 5.3185 0.8689
-23.5723 -21.4347 4.8809 0.8790
-21.9338 -21.4306 4.6978 0.8833
-20.4124 -21.4272 4.5336 0.8871
-18.9944 -21.4268 4.3865 0.8906
-5.1980 -7.3161 1.3749 0.9643
-4.2716 -7.0299 1.2602 0.9673
-4.1051 -7.3360 1.2878 0.9666
-4.1070 -7.9997 1.3776 0.9643
-3.4090 -8.0049 1.3329 0.9654
-2.9443 -7.6651 1.2579 0.9673
-2.7747 -8.0774 1.3084 0.9660
-4.8655 -21.4227 3.3654 0.9149
-4.0639 -21.4223 3.3403 0.9155
-2.4910 -21.4214 3.3038 0.9164
-1.7148 -21.4143 3.2910 0.9167
-0.1755 -21.4116 3.2802 0.9170
-21.1859 -6.7323 2.8948 0.9142
-20.5017 -9.0388 2.9177 0.9136
-44.3160 -21.4673 6.4123 0.8199
-40.4924 -21.4401 5.9665 0.8313
-37.2258 -21.4532 5.5949 0.8409
-34.3213 -21.4539 5.2707 0.8494
-31.7181 -21.4454 4.9859 0.8569
-25.3427 -21.4362 4.3224 0.8747
-20.4133 -21.4281 3.8539 0.8875
-18.9952 -21.4278 3.7289 0.8909
-17.6645 -21.4274 3.6162 0.8940
-16.4073 -21.4230 3.5139 0.8969
-5.1708 -7.2778 1.1626 0.9646
-4.9964 -7.5951 1.1839 0.9640
-4.2329 -6.9662 1.0615 0.9677
-4.0400 -7.2198 1.0773 0.9672
-3.7315 -7.9582 1.1446 0.9652
-2.9093 -7.5737 1.0565 0.9678
-2.9909 -8.7068 1.1988 0.9635
-2.6763 -8.8063 1.1986 0.9636
-2.3615 -8.9066 1.1999 0.9635
-4.8655 -21.4228 2.8607 0.9152
-4.0639 -21.4224 2.8394 0.9158
-3.2731 -21.4220 2.8220 0.9163
-2.4910 -21.4215 2.8083 0.9167
-1.7149 -21.4148 2.7976 0.9170
-21.1720 -7.5737 2.4146 0.9135
-31.7184 -21.4456 4.1114 0.8572
-21.9354 -21.4322 3.2931 0.8839
-18.9960 -21.4287 3.0750 0.8912
-17.6653 -21.4283 2.9821 0.8943
-4.9604 -7.5403 0.9692 0.9643
-4.6755 -7.6946 0.9668 0.9644
-4.1224 -7.3670 0.9065 0.9666
-3.9287 -7.6523 0.9237 0.9660
-2.8315 -7.3715 0.8479 0.9687
-4.0639 -21.4225 2.3414 0.9160
-0.9440 -21.4140 2.3017 0.9174
-0.1755 -21.4127 2.2994 0.9175
-20.8922 -8.3299 1.9040 0.9137
-44.3103 -21.4645 4.1679 0.8207
-25.3440 -21.4373 2.8100 0.8752
-21.9363 -21.4330 2.5962 0.8842
-20.4151 -21.4300 2.5055 0.8880
-4.0844 -7.2992 0.7081 0.9670
-3.7236 -7.9412 0.7425 0.9654
-3.2406 -8.4363 0.7650 0.9644
-2.9315 -8.5336 0.7638 0.9644
-5.6824 -21.4310 1.8769 0.9148
-4.8656 -21.4231 1.8597 0.9156
-2.4910 -21.4218 1.8256 0.9171
-0.1755 -21.4132 1.8128 0.9176
-21.2883 -6.7649 1.3851 0.9144
-20.7437 -7.4205 1.3662 0.9155
-19.9080 -8.7771 1.3492 0.9165
-40.5016 -21.4450 2.8419 0.8322
-37.2251 -21.4529 2.6642 0.8418
-34.3172 -21.4514 2.5096 0.8503
-31.7190 -21.4460 2.3743 0.8577
-29.3970 -21.4507 2.2566 0.8643
-27.2879 -21.4520 2.1524 0.8701
-20.4159 -21.4309 1.8354 0.8881
-18.9976 -21.4305 1.7759 0.8916
-17.6667 -21.4300 1.7222 0.8947
-5.0487 -7.1060 0.5405 0.9657
-4.2905 -7.6674 0.5448 0.9654
-3.2302 -7.5850 0.5112 0.9675
-2.9028 -8.4501 0.5541 0.9648
-2.5974 -8.5468 0.5539 0.9648
-3.2732 -21.4223 1.3438 0.9168
-2.4910 -21.4219 1.3373 0.9172
-22.2833 -7.0811 0.9220 0.9106
-21.0052 -7.5140 0.8797 0.9146
-20.9451 -8.3510 0.8891 0.9137
-19.6145 -8.6477 0.8453 0.9178
-44.3046 -21.4618 1.9411 0.8211
-40.5047 -21.4466 1.8072 0.8324
-21.9379 -21.4345 1.2094 0.8845
-20.4168 -21.4319 1.1672 0.8883
-18.9984 -21.4314 1.1293 0.8917
-16.4101 -21.4266 1.0642 0.8976
-4.7871 -7.2768 0.3435 0.9657
-4.5153 -7.4308 0.3429 0.9658
-3.9285 -7.6520 0.3392 0.9662
-3.7891 -8.0810 0.3519 0.9649
-2.8747 -8.3685 0.3489 0.9652
-6.5127 -21.4300 0.8832 0.9142
-0.1756 -21.4143 0.8444 0.9178
-20.8349 -7.4531 0.3738 0.9153
-44.3017 -21.4604 0.8315 0.8212
-40.5077 -21.4482 0.7742 0.8325
-37.2247 -21.4526 0.7257 0.8421
-34.3145 -21.4497 0.6836 0.8505
-31.7196 -21.4464 0.6468 0.8580
-27.2852 -21.4499 0.5863 0.8704
-21.9387 -21.4353 0.5181 0.8845
-18.9992 -21.4323 0.4838 0.8917
-17.6681 -21.4318 0.4692 0.8948
-14.0994 -21.4325 0.4334 0.9025
-4.0835 -7.9539 0.1510 0.9649
-3.6680 -7.8227 0.1459 0.9660
-3.4489 -8.0986 0.1487 0.9654
-2.8473 -8.2885 0.1480 0.9655
-4.8657 -21.4234 0.3711 0.9159
-4.0640 -21.4230 0.3683 0.9165
-1.7151 -21.4175 0.3629 0.9176
-0.9441 -21.4162 0.3621 0.9178
-21.2656 -7.6072 -0.1272 0.9136
-20.1739 -8.0435 -0.1223 0.9168
-44.2989 -21.4590 -0.2771 0.8213
-40.5108 -21.4499 -0.2581 0.8325
-37.2245 -21.4525 -0.2419 0.8421
-31.7199 -21.4466 -0.2156 0.8580
-29.3924 -21.4474 -0.2049 0.8646
-25.3465 -21.4395 -0.1869 0.8756
-21.9394 -21.4361 -0.1727 0.8845
-19.0000 -21.4332 -0.1613 0.8917
-15.2226 -21.4257 -0.1480 0.9002
-14.0992 -21.4323 -0.1444 0.9025
-4.0548 -7.8980 -0.0500 0.9651
-3.4161 -8.0217 -0.0491 0.9657
-3.1175 -8.1160 -0.0489 0.9658
-7.3614 -21.4290 -0.1276 0.9134
-6.5125 -21.4291 -0.1261 0.9143
-4.0640 -21.4231 -0.1228 0.9165
-3.2732 -21.4227 -0.1220 0.9170
-2.4911 -21.4222 -0.1214 0.9173
-1.7151 -21.4181 -0.1210 0.9176
-0.1756 -21.4154 -0.1206 0.9179
-44.2961 -21.4577 -1.3859 0.8212
-37.2242 -21.4524 -1.2098 0.8420
-29.3909 -21.4462 -1.0245 0.8645
-27.2825 -21.4478 -0.9772 0.8703
-23.5769 -21.4389 -0.8973 0.8803
-21.9402 -21.4368 -0.8637 0.8845
-17.6696 -21.4335 -0.7822 0.8948
-16.4122 -21.4294 -0.7600 0.8976
-15.2232 -21.4265 -0.7401 0.9002
-13.0223 -21.4311 -0.7061 0.9045
-4.2076 -7.5193 -0.2426 0.9661
-4.0005 -7.7922 -0.2466 0.9656
-10.0490 -21.4312 -0.6665 0.9096
-9.1265 -21.4306 -0.6559 0.9110
-6.5123 -21.4287 -0.6306 0.9143
-5.6818 -21.4287 -0.6242 0.9151
-4.8657 -21.4237 -0.6186 0.9158
-3.2732 -21.4228 -0.6102 0.9169
-1.7152 -21.4186 -0.6050 0.9176
-0.9441 -21.4173 -0.6037 0.9178
-47.1766 -13.1494 -2.4837 0.8219
-46.6786 -14.8333 -2.4839 0.8219
-46.1206 -16.4984 -2.4841 0.8219
-45.5039 -18.1428 -2.4844 0.8218
-44.6688 -19.6937 -2.4757 0.8224
-41.4102 -20.0597 -2.3335 0.8317
-40.5169 -21.4531 -2.3250 0.8323
-37.2240 -21.4522 -2.1788 0.8419
-29.3894 -21.4451 -1.8451 0.8644
-27.2812 -21.4467 -1.7599 0.8702
-23.5775 -21.4394 -1.6161 0.8802
-20.4204 -21.4356 -1.5014 0.8882
-19.0016 -21.4349 -1.4527 0.8916
-17.6703 -21.4344 -1.4087 0.8947
-15.2239 -21.4274 -1.3330 0.9001
-14.0989 -21.4319 -1.3010 0.9024
-8.2311 -21.4280 -1.1641 0.9122
-6.5122 -21.4282 -1.1358 0.9142
-4.8657 -21.4238 -1.1142 0.9158
-2.4911 -21.4225 -1.0937 0.9172
-0.1756 -21.4165 -1.0862 0.9178
-30.7103 -8.5598 -2.3376 0.8800
-32.3564 -10.2820 -2.4894 0.8727
-30.0152 -15.8926 -2.4902 0.8727
-29.4288 -16.9599 -2.4905 0.8726
-28.8047 -18.0056 -2.4907 0.8726
-28.1435 -19.0285 -2.4910 0.8726
-26.9972 -19.6996 -2.4505 0.8746
-25.0997 -19.7315 -2.3409 0.8798
-23.5781 -21.4399 -2.3366 0.8800
-21.9418 -21.4384 -2.2493 0.8842
-20.4212 -21.4365 -2.1708 0.8880
-19.0024 -21.4359 -2.1004 0.8915
-17.6710 -21.4352 -2.0369 0.8946
-16.4136 -21.4312 -1.9793 0.8974
-15.2245 -21.4283 -1.9274 0.8999
-13.0221 -21.4307 -1.8387 0.9043
-10.0482 -21.4295 -1.7354 0.9094
-9.1258 -21.4290 -1.7078 0.9108
-5.6816 -21.4278 -1.6254 0.9149
-4.8658 -21.4239 -1.6109 0.9157
-4.0641 -21.4235 -1.5988 0.9163
-2.4911 -21.4226 -1.5813 0.9171
-1.7153 -21.4197 -1.5756 0.9174
-23.4820 -6.5451 -2.3403 0.9067
-23.2332 -7.3829 -2.3404 0.9067
-22.9546 -8.2114 -2.3405 0.9067
-22.6467 -9.0294 -2.3406 0.9067
-23.3676 -11.3196 -2.4928 0.9009
-22.4995 -12.9665 -2.4931 0.9009
-22.0218 -13.7657 -2.4933 0.9009
-21.5159 -14.5474 -2.4935 0.9009
-19.8348 -16.7775 -2.4941 0.9009
-17.9243 -18.8154 -2.4948 0.9008
-17.2401 -19.4479 -2.4951 0.9008
-14.1402 -19.9023 -2.3439 0.9066
-12.6809 -20.8692 -2.3444 0.9065
-10.0478 -21.4287 -2.2722 0.9093
-7.3607 -21.4272 -2.1751 0.9130
-6.5119 -21.4273 -2.1500 0.9139
-5.6814 -21.4274 -2.1282 0.9148
-4.8658 -21.4240 -2.1092 0.9155
-4.0641 -21.4236 -2.0934 0.9161
-3.2733 -21.4231 -2.0806 0.9166
-2.4911 -21.4227 -2.0705 0.9170
-1.7153 -21.4203 -2.0630 0.9173
-20.2244 -5.6371 -2.4940 0.9189
-18.5656 -6.6413 -2.3422 0.9236
-17.7476 -8.5972 -2.3425 0.9236
-18.1964 -10.4866 -2.4947 0.9189
-17.8098 -11.1328 -2.4949 0.9189
-16.5150 -12.9830 -2.4954 0.9189
-16.0401 -13.5677 -2.4956 0.9189
-15.5446 -14.1350 -2.4957 0.9189
-15.0291 -14.6844 -2.4959 0.9188
-14.4942 -15.2149 -2.4961 0.9188
-13.9407 -15.7260 -2.4963 0.9188
-12.7804 -16.6874 -2.4968 0.9188
-12.1751 -17.1364 -2.4970 0.9188
-10.9181 -17.9681 -2.4975 0.9188
-9.6046 -18.7079 -2.4980 0.9188
-7.5430 -19.6371 -2.4988 0.9188
-6.7662 -19.6967 -2.4739 0.9195
-5.2250 -19.7064 -2.4217 0.9212
-0.8708 -19.7552 -2.3489 0.9234
-16.9637 -4.7283 -2.4952 0.9313
-16.7837 -5.3335 -2.4953 0.9313
-16.1074 -5.7620 -2.4239 0.9332
-15.3629 -6.1253 -2.3434 0.9354
-14.8857 -7.2109 -2.3436 0.9354
-14.6183 -7.7402 -2.3437 0.9354
-14.5940 -9.8673 -2.4961 0.9313
-14.2316 -10.3847 -2.4962 0.9313
-13.8510 -10.8888 -2.4964 0.9313
-13.4526 -11.3790 -2.4965 0.9313
-13.0369 -11.8547 -2.4967 0.9313
-11.6912 -13.1885 -2.4972 0.9313
-11.2118 -13.6001 -2.4974 0.9313
-10.7179 -13.9943 -2.4976 0.9313
-9.1557 -15.0677 -2.4982 0.9312
-3.9894 -7.7706 -1.2376 0.9653
-7.4870 -15.9676 -2.4988 0.9312
-6.9104 -16.2271 -2.4990 0.9312
-6.3249 -16.4659 -2.4992 0.9312
-5.7311 -16.6835 -2.4995 0.9312
-5.1298 -16.8798 -2.4997 0.9312
-4.5218 -17.0544 -2.4999 0.9312
-3.9079 -17.2072 -2.5002 0.9312
-3.2889 -17.3378 -2.5004 0.9312
-2.0386 -17.5322 -2.5009 0.9312
-1.4090 -17.5957 -2.5011 0.9312
-0.1447 -17.6549 -2.5016 0.9312
-14.5954 -4.0682 -2.4961 0.9404
-11.7910 -7.9722 -2.3448 0.9439
-11.1906 -8.7973 -2.3450 0.9439
-10.8686 -9.1933 -2.3451 0.9439
-10.4575 -10.9775 -2.4977 0.9404
-9.6453 -11.7000 -2.4980 0.9404
-9.2203 -12.0390 -2.4981 0.9404
-8.3352 -12.6704 -2.4985 0.9404
-7.4070 -13.2369 -2.4988 0.9404
-3.9834 -7.7589 -1.4368 0.9653
-5.9444 -13.9587 -2.4994 0.9403
-4.9298 -14.3510 -2.4998 0.9403
-4.4126 -14.5196 -2.5000 0.9403
-2.2927 -15.0060 -2.5008 0.9403
-1.7534 -15.0798 -2.5010 0.9403
-0.1244 -15.1847 -2.5016 0.9403
-12.6599 -4.0230 -2.4968 0.9474
-12.5079 -4.4743 -2.4969 0.9474
-11.8758 -5.7528 -2.4803 0.9477
-11.0263 -5.8381 -2.3451 0.9505
-10.0799 -7.3553 -2.3454 0.9505
-9.5279 -8.0593 -2.3456 0.9505
-9.2333 -8.3960 -2.3457 0.9505
-8.9268 -8.7221 -2.3459 0.9505
-8.6089 -9.0369 -2.3460 0.9505
-8.8170 -9.9462 -2.4983 0.9473
-8.4552 -10.2564 -2.4984 0.9473
-8.0826 -10.5535 -2.4986 0.9473
-7.6995 -10.8371 -2.4987 0.9473
-7.3066 -11.1068 -2.4989 0.9473
-3.9774 -7.7472 -1.6369 0.9652
-5.6455 -12.0401 -2.4995 0.9473
-4.7689 -12.4153 -2.4998 0.9473
-4.3212 -12.5791 -2.5000 0.9473
-2.4795 -13.0713 -2.5007 0.9473
-2.0096 -13.1527 -2.5009 0.9473
-1.5369 -13.2172 -2.5011 0.9473
-1.0622 -13.2648 -2.5012 0.9473
-0.5860 -13.2953 -2.5014 0.9473
-11.2596 -3.5781 -2.4974 0.9528
-10.6337 -5.1511 -2.4976 0.9528
-10.4425 -5.5292 -2.4977 0.9528
-9.1931 -6.2157 -2.3457 0.9556
-8.9648 -6.5415 -2.3458 0.9556
-8.7248 -6.8590 -2.3459 0.9556
-8.2117 -7.4671 -2.3461 0.9556
-7.9391 -7.7570 -2.3462 0.9556
-7.6562 -8.0370 -2.3463 0.9556
-7.0614 -8.5657 -2.3466 0.9556
-6.7502 -8.8138 -2.3467 0.9556
-6.4302 -9.0505 -2.3468 0.9556
-6.4978 -9.8775 -2.4992 0.9528
-3.8427 -11.1863 -2.5002 0.9528
-3.0317 -11.4343 -2.5005 0.9528
-2.2049 -11.6236 -2.5008 0.9528
-1.7869 -11.6959 -2.5010 0.9528
-1.3666 -11.7532 -2.5011 0.9528
-0.5211 -11.8224 -2.5014 0.9528
-0.0970 -11.8342 -2.5016 0.9528
-10.2374 -2.8535 -2.4978 0.9573
-10.1287 -3.2187 -2.4978 0.9573
-10.0070 -3.5797 -2.4978 0.9573
-9.8724 -3.9362 -2.4979 0.9573
-9.7252 -4.2877 -2.4979 0.9573
-9.5655 -4.6337 -2.4980 0.9573
-9.3935 -4.9737 -2.4981 0.9573
-9.2092 -5.3074 -2.4981 0.9573
-9.0136 -5.6343 -2.4982 0.9573
-8.5241 -5.7634 -2.4183 0.9586
-7.8482 -6.1698 -2.3463 0.9598
-7.6223 -6.4474 -2.3463 0.9598
-6.8869 -7.2293 -2.3466 0.9598
-6.3518 -7.7049 -2.3468 0.9598
-6.0718 -7.9280 -2.3469 0.9598
-5.7839 -8.1409 -2.3470 0.9598
-5.4887 -8.3434 -2.3472 0.9598
-5.1863 -8.5352 -2.3473 0.9598
-4.8773 -8.7161 -2.3474 0.9598
-3.9652 -7.7235 -2.0404 0.9650
-3.9139 -9.1908 -2.3478 0.9598
-3.8146 -9.9306 -2.5002 0.9572
-3.4563 -10.0615 -2.5003 0.9572
-1.6072 -10.5196 -2.5010 0.9572
-0.0872 -10.6437 -2.5016 0.9572
-9.2940 -2.5905 -2.4981 0.9609
-9.1953 -2.9220 -2.4981 0.9609
-9.0848 -3.2498 -2.4982 0.9609
-8.8289 -3.8925 -2.4983 0.9609
-8.6839 -4.2066 -2.4983 0.9609
-8.3606 -4.8182 -2.4985 0.9609
-8.1827 -5.1150 -2.4985 0.9609
-7.7957 -5.6884 -2.4987 0.9609
-6.4829 -6.3343 -2.3468 0.9632
-5.7662 -6.9945 -2.3471 0.9632
-5.5119 -7.1970 -2.3471 0.9632
-4.9825 -7.5740 -2.3473 0.9632
-4.7080 -7.7481 -2.3475 0.9632
-4.4275 -7.9123 -2.3476 0.9632
-3.9591 -7.7115 -2.2444 0.9648
-3.6862 -7.8616 -2.2482 0.9648
-3.5529 -8.3431 -2.3479 0.9632
-3.2517 -8.4655 -2.3480 0.9632
-1.6905 -8.9119 -2.3486 0.9632
-1.3700 -8.9672 -2.3487 0.9632
-1.1157 -9.5956 -2.5012 0.9609
-0.7711 -9.6300 -2.5013 0.9609
-0.4254 -9.6519 -2.5015 0.9609
-0.0792 -9.6615 -2.5016 0.9609
-8.5013 -2.3696 -2.4984 0.9640
-8.0759 -3.5605 -2.4986 0.9640
-7.9432 -3.8478 -2.4986 0.9640
-7.8004 -4.1302 -2.4987 0.9640
-7.4847 -4.6787 -2.4988 0.9640
-7.3124 -4.9441 -2.4989 0.9640
-6.3371 -5.7624 -2.4248 0.9650
-5.9303 -5.7939 -2.3470 0.9661
-5.4999 -6.2043 -2.3472 0.9661
-4.8026 -6.7596 -2.3474 0.9661
-4.3063 -7.0869 -2.3476 0.9661
-4.0496 -7.2370 -2.3477 0.9661
-3.7878 -7.3779 -2.3478 0.9661
-3.5210 -7.5092 -2.3479 0.9661
-3.2497 -7.6310 -2.3480 0.9661
-2.9742 -7.7429 -2.3481 0.9661
-2.1261 -8.0185 -2.3484 0.9661
-1.8373 -8.0900 -2.3485 0.9661
-0.3654 -8.2899 -2.3491 0.9661
-7.6492 -2.7363 -2.4987 0.9666
-7.5463 -3.0088 -2.4988 0.9666
-7.4337 -3.2774 -2.4988 0.9666
-7.1801 -3.8018 -2.4989 0.9666
-6.7309 -4.5509 -2.4991 0.9666
-6.3878 -5.0217 -2.4992 0.9666
-6.0120 -5.4668 -2.4994 0.9666
-5.4861 -5.7589 -2.4464 0.9673
-5.1160 -5.7713 -2.3722 0.9682
-4.1948 -6.3766 -2.3476 0.9686
-3.4864 -6.7909 -2.3479 0.9686
-3.2408 -6.9118 -2.3480 0.9686
-2.9911 -7.0238 -2.3481 0.9686
-2.7375 -7.1268 -2.3482 0.9686
-1.4231 -7.5023 -2.3487 0.9685
-0.6096 -7.6127 -2.3490 0.9685
-0.3363 -7.6300 -2.3491 0.9685
-7.2415 -2.0184 -2.4989 0.9688
-6.9832 -2.7843 -2.4990 0.9688
-6.8791 -3.0329 -2.4990 0.9688
-6.3754 -3.9853 -2.4992 0.9688
-6.2286 -4.2113 -2.4993 0.9688
-6.0738 -4.4320 -2.4993 0.9688
-5.9112 -4.6470 -2.4994 0.9688
-5.5633 -5.0589 -2.4995 0.9688
-5.1869 -5.4448 -2.4997 0.9688
-4.9885 -5.6274 -2.4997 0.9688
-4.4147 -5.7644 -2.4135 0.9699
-4.1025 -5.7743 -2.3545 0.9706
-3.4492 -6.1640 -2.3479 0.9707
-3.2261 -6.2839 -2.3480 0.9707
-2.9989 -6.3958 -2.3481 0.9707
-2.7678 -6.4994 -2.3482 0.9707
-2.5331 -6.5947 -2.3483 0.9707
-1.8107 -6.8293 -2.3486 0.9707
-0.8161 -7.0192 -2.3489 0.9707
-0.3112 -7.0602 -2.3491 0.9707
-0.0596 -7.2742 -2.4181 0.9698
-6.7317 -1.8763 -2.4991 0.9707
-6.6602 -2.1164 -2.4991 0.9707
-6.5801 -2.3539 -2.4991 0.9707
-6.4916 -2.5883 -2.4992 0.9707
-5.7901 -3.9148 -2.4994 0.9707
-5.6461 -4.1199 -2.4995 0.9707
-5.3367 -4.5141 -2.4996 0.9707
-5.1716 -4.7026 -2.4997 0.9707
-4.9997 -4.8851 -2.4997 0.9707
-4.8216 -5.0613 -2.4998 0.9707
-4.4468 -5.3941 -2.5000 0.9707
-4.0492 -5.6992 -2.5001 0.9707
-3.7866 -5.7561 -2.4639 0.9712
-3.5027 -5.7647 -2.4122 0.9718
-3.2301 -5.7725 -2.3655 0.9723
-2.9990 -5.8413 -2.3481 0.9725
-1.9096 -6.2835 -2.3485 0.9725
-1.6831 -6.3482 -2.3486 0.9725
-0.9920 -6.4929 -2.3489 0.9725
-0.5243 -6.5478 -2.3490 0.9725
-0.0573 -6.9952 -2.5016 0.9707
-6.2822 -1.7510 -2.4993 0.9724
-6.2155 -1.9751 -2.4993 0.9724
-6.1408 -2.1967 -2.4993 0.9724
-5.8697 -2.8434 -2.4994 0.9724
-5.5308 -3.4573 -2.4995 0.9724
-5.2691 -3.8448 -2.4996 0.9724
-4.9803 -4.2126 -2.4997 0.9724
-4.8262 -4.3886 -2.4998 0.9724
-4.6659 -4.5589 -2.4999 0.9724
-4.4996 -4.7233 -2.4999 0.9724
-4.3275 -4.8817 -2.5000 0.9724
-4.1498 -5.0338 -2.5001 0.9724
-3.9668 -5.1795 -2.5001 0.9724
-3.7787 -5.3185 -2.5002 0.9724
-3.3881 -5.5759 -2.5004 0.9724
-2.9538 -5.7537 -2.4785 0.9727
-2.4556 -5.7665 -2.4019 0.9735
-2.2171 -5.7719 -2.3695 0.9739
-1.7820 -5.8637 -2.3486 0.9741
-0.9335 -6.1101 -2.3687 0.9739
-0.5147 -6.4288 -2.4715 0.9728
-0.2874 -6.5214 -2.5015 0.9724
-5.8826 -1.6397 -2.4994 0.9740
-5.5881 -2.4637 -2.4995 0.9739
-5.4963 -2.6625 -2.4996 0.9739
-5.3974 -2.8579 -2.4996 0.9739
-4.9338 -3.6002 -2.4998 0.9739
-4.6634 -3.9446 -2.4999 0.9739
-4.5191 -4.1094 -2.4999 0.9739
-4.2133 -4.4228 -2.5000 0.9739
-3.8857 -4.7135 -2.5002 0.9739
-3.3576 -5.1039 -2.5004 0.9739
-3.1725 -5.2211 -2.5004 0.9739
-2.9834 -5.3316 -2.5005 0.9739
-2.7904 -5.4353 -2.5006 0.9739
-2.5939 -5.5320 -2.5007 0.9739
-2.1910 -5.7040 -2.5008 0.9739
-1.7557 -5.7774 -2.4713 0.9742
-1.3371 -5.8877 -2.4711 0.9742
-1.1331 -5.9733 -2.4883 0.9741
-0.9230 -6.0414 -2.5013 0.9739
-0.4878 -6.0924 -2.5015 0.9739
-5.4660 -1.7370 -2.4996 0.9753
-5.4003 -1.9318 -2.4996 0.9753
-5.0689 -2.6840 -2.4997 0.9753
-4.6336 -3.3811 -2.4999 0.9753
-4.5095 -3.5451 -2.4999 0.9753
-4.3796 -3.7046 -2.5000 0.9753
-4.2441 -3.8593 -2.5000 0.9753
-4.1031 -4.0090 -2.5001 0.9753
-3.8055 -4.2929 -2.5002 0.9753
-2.8018 -5.0071 -2.5006 0.9753
-2.6206 -5.1044 -2.5006 0.9753
-2.2482 -5.2794 -2.5008 0.9753
-2.0576 -5.3567 -2.5009 0.9753
-1.8643 -5.4272 -2.5009 0.9753
-1.2710 -5.5965 -2.5012 0.9753
-0.8668 -5.6735 -2.5013 0.9753
-0.6629 -5.7011 -2.5014 0.9753
-0.2528 -5.7343 -2.5015 0.9753
-5.1466 -1.6355 -2.4997 0.9765
-5.0847 -1.8189 -2.4997 0.9765
-5.0163 -2.0000 -2.4997 0.9765
-4.9414 -2.1786 -2.4998 0.9765
-4.8602 -2.3544 -2.4998 0.9765
-4.7727 -2.5271 -2.4998 0.9765
-4.6791 -2.6966 -2.4999 0.9765
-4.5795 -2.8627 -2.4999 0.9765
-4.4740 -3.0250 -2.4999 0.9765
-4.3628 -3.1835 -2.5000 0.9765
-3.8633 -3.7747 -2.5002 0.9765
-3.7256 -3.9109 -2.5002 0.9765
-3.4359 -4.1679 -2.5003 0.9765
-2.8052 -4.6167 -2.5006 0.9765
-1.9373 -5.0436 -2.5009 0.9765
-1.5711 -5.1697 -2.5010 0.9765
-1.1967 -5.2693 -2.5012 0.9765
-0.8161 -5.3418 -2.5013 0.9765
-4.8568 -1.5434 -2.4998 0.9776
-4.7338 -1.8874 -2.4998 0.9776
-4.3217 -2.7015 -2.5000 0.9775
-4.2221 -2.8547 -2.5000 0.9775
-4.1171 -3.0043 -2.5001 0.9775
-4.0069 -3.1500 -2.5001 0.9775
-3.7710 -3.4291 -2.5002 0.9775
-3.5158 -3.6906 -2.5003 0.9775
-3.0995 -4.0470 -2.5005 0.9775
-2.8016 -4.2588 -2.5006 0.9775
-2.6472 -4.3567 -2.5006 0.9775
-1.9976 -4.6908 -2.5009 0.9775
-1.6564 -4.8221 -2.5010 0.9775
-1.3068 -4.9286 -2.5011 0.9775
-1.1293 -4.9724 -2.5012 0.9775
-0.9503 -5.0099 -2.5013 0.9775
-0.4070 -5.0834 -2.5015 0.9775
-0.0418 -5.0997 -2.5016 0.9775
-4.5372 -1.6231 -2.4999 0.9785
-4.4762 -1.7847 -2.4999 0.9785
-4.4094 -1.9440 -2.5000 0.9785
-3.9923 -2.6993 -2.5001 0.9785
-3.8930 -2.8407 -2.5002 0.9785
-3.7887 -2.9785 -2.5002 0.9785
-3.6796 -3.1125 -2.5002 0.9785
-3.5657 -3.2424 -2.5003 0.9785
-3.4473 -3.3682 -2.5003 0.9785
-3.1972 -3.6067 -2.5004 0.9785
-3.0659 -3.7191 -2.5005 0.9785
-2.9307 -3.8267 -2.5005 0.9785
-2.3539 -4.2066 -2.5007 0.9785
-2.2016 -4.2884 -2.5008 0.9785
-1.8888 -4.4353 -2.5009 0.9785
-0.8986 -4.7370 -2.5013 0.9785
-0.7282 -4.7663 -2.5014 0.9785
-0.5569 -4.7895 -2.5014 0.9785
-0.2123 -4.8173 -2.5016 0.9785
-0.0395 -4.8220 -2.5016 0.9785
-4.3968 -1.2255 -2.5000 0.9794
-4.3501 -1.3824 -2.5000 0.9794
-4.2399 -1.6905 -2.5000 0.9794
-4.1080 -1.9900 -2.5001 0.9794
-3.9550 -2.2793 -2.5001 0.9794
-3.5887 -2.8213 -2.5003 0.9794
-3.3775 -3.0713 -2.5004 0.9794
-3.2653 -3.1904 -2.5004 0.9794
-3.1489 -3.3055 -2.5004 0.9794
-3.0285 -3.4163 -2.5005 0.9794
-2.9041 -3.5228 -2.5005 0.9794
-2.7760 -3.6247 -2.5006 0.9794
-2.6443 -3.7219 -2.5006 0.9794
-2.5093 -3.8144 -2.5007 0.9794
-1.9385 -4.1342 -2.5009 0.9794
-1.7891 -4.2012 -2.5010 0.9794
-1.4835 -4.3188 -2.5011 0.9794
-1.1703 -4.4142 -2.5012 0.9794
-0.6898 -4.5146 -2.5014 0.9794
-0.0374 -4.5673 -2.5016 0.9794
-4.1712 -1.1626 -2.5001 0.9802
-4.1269 -1.3114 -2.5001 0.9802
-4.0223 -1.6038 -2.5001 0.9802
-3.8971 -1.8879 -2.5002 0.9802
-3.5875 -2.4256 -2.5003 0.9802
-3.4983 -2.5527 -2.5003 0.9802
-3.4046 -2.6765 -2.5003 0.9802
-3.3065 -2.7969 -2.5004 0.9802
-2.9873 -3.1358 -2.5005 0.9802
-2.8730 -3.2410 -2.5005 0.9802
-2.6335 -3.4386 -2.5006 0.9802
-2.5086 -3.5309 -2.5007 0.9802
-2.1152 -3.7800 -2.5008 0.9802
-1.9783 -3.8535 -2.5009 0.9802
-1.8389 -3.9220 -2.5009 0.9802
-1.6972 -3.9855 -2.5010 0.9802
-1.5533 -4.0439 -2.5010 0.9802
-1.4074 -4.0970 -2.5011 0.9802
-1.2596 -4.1450 -2.5012 0.9802
-1.1103 -4.1875 -2.5012 0.9802
-0.6543 -4.2828 -2.5014 0.9802
-0.5004 -4.3036 -2.5014 0.9802
-0.3458 -4.3189 -2.5015 0.9802
-0.1908 -4.3286 -2.5016 0.9802
