ply
format ascii 1.0
element vertex 536
property float32 x
property float32 y
property float32 z
property float32 I
end_header
0.5923 -21.4097 3.7765 0.9167
2.1192 -21.3868 3.7895 0.9164
3.7758 -22.0122 3.9380 0.9133
44.3138 -20.9132 8.6402 0.8195
44.1467 -18.9460 8.4708 0.8227
46.3686 -16.1045 8.6551 0.8192
1.3546 -21.4017 3.2852 0.9169
2.9077 -21.5172 3.3263 0.9159
32.0113 -24.5517 6.1802 0.8494
34.8588 -24.8186 6.5554 0.8410
0.5923 -21.4108 2.7892 0.9172
2.9078 -21.5173 2.8275 0.9161
31.9693 -26.3761 5.3971 0.8460
34.8589 -24.8187 5.5724 0.8415
38.1852 -25.1907 5.9571 0.8315
0.5923 -21.4113 2.3001 0.9174
1.3546 -21.4017 2.3027 0.9173
2.9078 -21.5174 2.3316 0.9164
32.0387 -37.7919 5.3202 0.8193
32.0225 -35.1587 5.1066 0.8259
31.9938 -30.4656 4.7440 0.8372
31.9687 -26.3756 4.4504 0.8464
32.0103 -24.5508 4.3319 0.8502
0.5923 -21.4119 1.8133 0.9176
1.3546 -21.4017 1.8153 0.9175
2.1192 -21.3869 1.8193 0.9173
3.7759 -22.0133 1.8907 0.9142
32.0379 -37.7910 4.1940 0.8196
32.0070 -32.7251 3.8750 0.8321
31.9802 -28.3548 3.6181 0.8423
34.8591 -24.8189 3.6225 0.8422
42.0103 -25.6187 4.1654 0.8208
1.3546 -21.4016 1.3298 0.9176
2.1192 -21.3869 1.3327 0.9175
2.9078 -21.5176 1.3464 0.9167
3.7760 -22.0136 1.3850 0.9144
32.0212 -35.1572 2.9488 0.8265
31.9925 -30.4644 2.7394 0.8377
32.0092 -24.5500 2.5015 0.8507
38.1856 -25.1910 2.8367 0.8325
42.0105 -25.6188 3.0513 0.8210
1.3546 -21.4016 0.8456 0.9177
31.9919 -30.4638 1.7419 0.8379
32.0087 -24.5496 1.5906 0.8509
38.1857 -25.1911 1.8038 0.8327
0.5924 -21.4135 0.3619 0.9179
1.3546 -21.4016 0.3622 0.9178
2.1192 -21.3869 0.3630 0.9176
3.7761 -22.0141 0.3773 0.9145
32.0359 -37.7885 0.8368 0.8202
32.0198 -35.1557 0.8032 0.8268
32.0050 -32.7231 0.7732 0.8327
31.9784 -28.3532 0.7219 0.8428
31.9663 -26.3737 0.7000 0.8472
32.0081 -24.5492 0.6814 0.8510
34.8595 -24.8191 0.7228 0.8427
44.9684 -21.2221 0.8399 0.8196
0.5924 -21.4140 -0.1206 0.9179
1.3546 -21.4016 -0.1207 0.9178
2.1192 -21.3869 -0.1210 0.9176
3.7761 -22.0144 -0.1258 0.9145
32.0352 -37.7877 -0.2789 0.8202
32.0044 -32.7224 -0.2577 0.8327
31.9906 -30.4626 -0.2487 0.8380
31.9658 -26.3732 -0.2333 0.8472
32.0076 -24.5488 -0.2271 0.8510
34.8596 -24.8192 -0.2409 0.8427
38.1860 -25.1913 -0.2576 0.8328
42.0109 -25.6191 -0.2770 0.8213
44.9677 -21.2218 -0.2800 0.8196
0.5924 -21.4146 -0.6032 0.9178
2.1192 -21.3869 -0.6052 0.9176
18.8271 -42.3001 -1.3037 0.8309
32.0345 -37.7868 -1.3949 0.8202
32.0185 -35.1542 -1.3389 0.8267
32.0037 -32.7217 -1.2888 0.8326
31.9900 -30.4620 -1.2438 0.8380
31.9652 -26.3727 -1.1669 0.8472
38.3540 -18.1006 -1.1942 0.8439
38.3681 -16.4661 -1.1757 0.8461
38.3107 -13.3059 -1.1420 0.8502
38.4207 -10.3513 -1.1204 0.8528
2.9079 -21.5180 -1.1012 0.9167
3.7762 -22.0149 -1.1328 0.9144
10.0876 -48.4116 -2.5079 0.8203
13.5133 -47.6133 -2.5100 0.8202
17.6507 -43.7839 -2.3941 0.8277
23.3444 -43.7802 -2.5162 0.8198
29.3580 -40.0892 -2.5200 0.8195
30.3021 -38.4339 -2.4821 0.8220
31.9894 -30.4614 -2.2402 0.8378
31.9766 -28.3515 -2.1673 0.8427
32.0066 -24.5480 -2.0456 0.8508
41.6184 -21.4821 -2.3752 0.8290
38.3812 -14.8794 -2.0876 0.8480
38.3101 -13.3057 -2.0566 0.8501
38.4074 -11.8272 -2.0381 0.8513
38.4201 -10.3512 -2.0179 0.8527
0.5924 -21.4157 -1.5708 0.9177
1.3546 -21.4015 -1.5723 0.9176
2.1192 -21.3869 -1.5758 0.9174
3.7762 -22.0151 -1.6378 0.9143
6.5471 -31.4201 -2.3533 0.8792
8.1591 -33.1993 -2.5067 0.8719
9.3369 -32.8980 -2.5074 0.8718
11.6574 -32.1701 -2.5089 0.8718
12.7972 -31.7444 -2.5096 0.8717
17.1863 -29.6424 -2.5123 0.8716
18.2339 -29.0204 -2.5130 0.8716
21.2357 -26.9343 -2.5149 0.8715
23.1065 -25.3693 -2.5160 0.8714
25.6925 -22.7798 -2.5177 0.8713
26.4912 -21.8564 -2.5182 0.8713
27.2567 -20.9049 -2.5186 0.8713
29.9646 -16.8418 -2.5203 0.8712
30.0871 -15.5300 -2.4826 0.8730
30.0827 -14.1970 -2.4390 0.8751
30.1125 -11.6739 -2.3680 0.8785
30.8720 -9.5067 -2.3685 0.8785
31.1931 -8.4040 -2.3687 0.8785
0.5926 -21.4199 -2.0572 0.9175
2.1192 -21.3869 -2.0633 0.9173
2.9079 -21.5182 -2.0846 0.9164
4.9981 -23.9867 -2.3523 0.9062
8.0168 -24.8477 -2.5066 0.9004
8.8970 -24.5525 -2.5071 0.9004
10.6235 -23.8685 -2.5082 0.9003
13.1125 -22.6159 -2.5098 0.9003
14.6919 -21.6357 -2.5108 0.9002
15.4546 -21.1037 -2.5112 0.9002
16.1980 -20.5448 -2.5117 0.9002
18.3028 -18.7134 -2.5130 0.9002
20.7833 -15.9401 -2.5146 0.9001
22.8445 -12.8399 -2.5159 0.9001
23.7041 -11.1868 -2.5164 0.9000
24.4435 -9.4761 -2.5169 0.9000
25.0588 -7.7166 -2.5173 0.9000
25.3190 -6.8214 -2.5174 0.9000
0.5470 -19.7718 -2.3495 0.9234
1.2497 -19.7436 -2.3500 0.9234
2.6679 -19.7419 -2.3664 0.9229
6.4769 -20.0746 -2.5056 0.9185
7.1877 -19.8352 -2.5061 0.9185
8.5817 -19.2811 -2.5069 0.9185
9.2633 -18.9671 -2.5074 0.9185
10.5910 -18.2671 -2.5082 0.9185
13.0814 -16.5918 -2.5098 0.9184
14.7797 -15.1112 -2.5108 0.9184
16.3107 -13.4570 -2.5118 0.9184
16.7807 -12.8702 -2.5121 0.9183
17.2295 -12.2670 -2.5124 0.9183
17.6566 -11.6480 -2.5126 0.9183
18.0613 -11.0141 -2.5129 0.9183
18.4431 -10.3661 -2.5131 0.9183
19.1363 -9.0311 -2.5135 0.9183
19.4468 -8.3458 -2.5137 0.9183
19.7326 -7.6498 -2.5139 0.9183
19.9933 -6.9440 -2.5141 0.9183
20.4384 -5.5065 -2.5144 0.9183
0.4883 -17.6507 -2.5019 0.9311
4.8263 -17.0050 -2.5046 0.9311
6.6121 -16.4019 -2.5057 0.9310
7.1921 -16.1588 -2.5061 0.9310
8.8752 -15.3077 -2.5071 0.9310
9.4151 -14.9846 -2.5075 0.9310
9.9430 -14.6424 -2.5078 0.9310
11.4497 -13.5057 -2.5087 0.9310
11.9240 -13.0917 -2.5090 0.9310
12.3832 -12.6610 -2.5093 0.9310
12.8270 -12.2142 -2.5096 0.9309
13.2544 -11.7518 -2.5099 0.9309
14.0587 -10.7825 -2.5104 0.9309
15.1307 -9.2270 -2.5110 0.9309
15.4504 -8.6840 -2.5112 0.9309
16.7479 -5.8168 -2.5120 0.9309
17.1205 -4.6126 -2.5123 0.9309
1.4979 -15.1167 -2.5025 0.9403
2.5689 -14.9761 -2.5032 0.9403
3.1000 -14.8773 -2.5035 0.9403
4.1503 -14.6233 -2.5042 0.9402
6.1842 -13.8944 -2.5054 0.9402
6.6750 -13.6675 -2.5057 0.9402
7.1575 -13.4232 -2.5060 0.9402
7.6311 -13.1618 -2.5063 0.9402
8.0951 -12.8838 -2.5066 0.9402
8.9920 -12.2788 -2.5072 0.9402
10.6460 -10.8848 -2.5082 0.9401
11.7475 -9.6922 -2.5089 0.9401
12.0856 -9.2693 -2.5091 0.9401
12.7157 -8.3885 -2.5095 0.9401
13.0068 -7.9318 -2.5097 0.9401
13.7799 -6.5032 -2.5102 0.9401
14.0032 -6.0096 -2.5103 0.9401
14.3962 -5.0000 -2.5106 0.9401
14.5654 -4.4853 -2.5107 0.9401
14.7162 -3.9648 -2.5108 0.9401
0.3681 -13.3051 -2.5018 0.9473
1.3128 -13.2485 -2.5024 0.9473
3.1789 -12.9347 -2.5036 0.9472
3.6371 -12.8150 -2.5038 0.9472
4.0908 -12.6790 -2.5041 0.9472
4.5394 -12.5270 -2.5044 0.9472
5.4192 -12.1755 -2.5050 0.9472
5.8492 -11.9765 -2.5052 0.9472
6.2718 -11.7622 -2.5055 0.9472
6.6867 -11.5330 -2.5058 0.9472
7.0931 -11.2892 -2.5060 0.9472
8.6250 -10.1737 -2.5070 0.9472
8.9820 -9.8616 -2.5072 0.9472
9.3277 -9.5369 -2.5074 0.9472
9.6616 -9.2001 -2.5076 0.9471
10.2924 -8.4917 -2.5080 0.9471
10.5886 -8.1211 -2.5082 0.9471
11.1404 -7.3493 -2.5085 0.9471
12.0724 -5.6973 -2.5091 0.9471
12.2678 -5.2649 -2.5092 0.9471
12.7602 -3.9294 -2.5096 0.9471
12.8923 -3.4734 -2.5096 0.9471
0.3273 -11.8309 -2.5018 0.9528
0.7478 -11.8130 -2.5020 0.9528
1.1673 -11.7802 -2.5023 0.9528
2.0018 -11.6700 -2.5028 0.9527
2.4156 -11.5926 -2.5031 0.9527
3.2338 -11.3940 -2.5036 0.9527
3.6371 -11.2730 -2.5038 0.9527
4.8180 -10.8249 -2.5046 0.9527
5.5760 -10.4572 -2.5051 0.9527
7.6676 -9.0444 -2.5064 0.9527
7.9849 -8.7668 -2.5066 0.9527
8.8748 -7.8687 -2.5071 0.9527
9.1495 -7.5487 -2.5073 0.9527
9.4127 -7.2192 -2.5075 0.9527
9.6640 -6.8805 -2.5076 0.9527
9.9030 -6.5330 -2.5078 0.9527
10.1296 -6.1772 -2.5079 0.9527
10.3433 -5.8135 -2.5080 0.9526
10.5439 -5.4424 -2.5082 0.9526
10.9050 -4.6800 -2.5084 0.9526
11.0649 -4.2895 -2.5085 0.9526
11.2108 -3.8937 -2.5086 0.9526
11.4598 -3.0875 -2.5087 0.9526
0.2944 -10.6406 -2.5017 0.9572
0.6725 -10.6244 -2.5020 0.9572
2.9082 -10.2470 -2.5034 0.9572
3.2710 -10.1380 -2.5036 0.9572
3.6296 -10.0163 -2.5038 0.9572
4.6765 -9.5754 -2.5045 0.9572
5.6708 -9.0254 -2.5051 0.9571
5.9885 -8.8188 -2.5053 0.9571
6.6009 -8.3723 -2.5057 0.9571
7.4564 -7.6236 -2.5062 0.9571
7.9802 -7.0755 -2.5066 0.9571
8.2272 -6.7878 -2.5067 0.9571
9.1082 -5.5544 -2.5073 0.9571
9.4807 -4.8936 -2.5075 0.9571
9.6491 -4.5537 -2.5076 0.9571
9.8053 -4.2080 -2.5077 0.9571
10.0801 -3.5010 -2.5079 0.9571
10.3040 -2.7761 -2.5080 0.9571
0.2672 -9.6586 -2.5017 0.9609
0.9530 -9.6168 -2.5022 0.9609
1.9719 -9.4631 -2.5028 0.9608
2.9689 -9.2017 -2.5034 0.9608
3.2943 -9.0911 -2.5036 0.9608
3.6157 -8.9690 -2.5038 0.9608
3.9326 -8.8355 -2.5040 0.9608
4.8520 -8.3685 -2.5046 0.9608
5.4351 -8.0038 -2.5050 0.9608
7.2424 -6.4213 -2.5061 0.9608
7.4665 -6.1602 -2.5062 0.9608
8.7567 -4.1325 -2.5070 0.9608
9.0287 -3.5002 -2.5072 0.9608
9.2552 -2.8500 -2.5074 0.9608
9.3508 -2.5193 -2.5074 0.9608
0.2444 -8.8337 -2.5017 0.9639
0.8716 -8.7954 -2.5021 0.9639
1.8034 -8.6546 -2.5027 0.9639
2.4141 -8.5059 -2.5031 0.9639
3.3067 -8.2024 -2.5036 0.9639
4.4372 -7.6531 -2.5043 0.9639
4.9704 -7.3195 -2.5047 0.9639
5.2278 -7.1386 -2.5048 0.9639
5.4785 -6.9487 -2.5050 0.9639
5.7225 -6.7500 -2.5051 0.9639
5.9591 -6.5427 -2.5053 0.9639
6.6229 -5.8721 -2.5057 0.9639
7.0241 -5.3872 -2.5060 0.9639
7.3897 -4.8750 -2.5062 0.9639
7.5587 -4.6094 -2.5063 0.9639
7.8677 -4.0610 -2.5065 0.9639
8.0073 -3.7789 -2.5066 0.9639
8.1369 -3.4920 -2.5067 0.9639
8.3649 -2.9052 -2.5068 0.9639
8.4631 -2.6061 -2.5069 0.9639
0.2250 -8.1304 -2.5017 0.9665
0.8021 -8.0951 -2.5021 0.9665
1.3755 -8.0188 -2.5024 0.9665
1.9420 -7.9019 -2.5028 0.9665
2.2218 -7.8284 -2.5030 0.9665
2.7728 -7.6519 -2.5033 0.9665
4.0836 -7.0432 -2.5041 0.9665
4.5742 -6.7361 -2.5044 0.9665
4.8111 -6.5697 -2.5046 0.9665
5.0419 -6.3949 -2.5047 0.9665
5.2663 -6.2119 -2.5049 0.9665
5.4841 -6.0211 -2.5050 0.9665
5.8986 -5.6169 -2.5053 0.9665
6.0949 -5.4039 -2.5054 0.9665
6.4640 -4.9577 -2.5056 0.9665
6.6365 -4.7250 -2.5057 0.9665
6.8005 -4.4862 -2.5058 0.9665
7.2403 -3.7372 -2.5061 0.9665
7.3687 -3.4776 -2.5062 0.9665
7.4879 -3.2135 -2.5063 0.9665
7.5976 -2.9454 -2.5063 0.9665
7.6978 -2.6735 -2.5064 0.9665
7.8686 -2.1199 -2.5065 0.9665
0.2082 -7.5232 -2.5017 0.9688
0.4755 -7.5115 -2.5019 0.9688
1.0081 -7.4597 -2.5022 0.9688
1.5358 -7.3702 -2.5025 0.9688
2.0558 -7.2434 -2.5029 0.9688
2.3121 -7.1663 -2.5030 0.9688
2.5656 -7.0800 -2.5032 0.9688
2.8158 -6.9847 -2.5033 0.9688
3.5441 -6.6465 -2.5038 0.9687
4.0078 -6.3786 -2.5041 0.9687
4.2322 -6.2325 -2.5042 0.9687
4.6649 -5.9167 -2.5045 0.9687
4.8725 -5.7474 -2.5046 0.9687
5.0739 -5.5708 -2.5047 0.9687
5.2690 -5.3872 -2.5049 0.9687
5.6390 -4.9997 -2.5051 0.9687
5.8134 -4.7963 -2.5052 0.9687
6.6986 -3.4576 -2.5058 0.9687
6.8174 -3.2174 -2.5058 0.9687
6.9277 -2.9731 -2.5059 0.9687
7.0292 -2.7250 -2.5060 0.9687
7.1218 -2.4735 -2.5060 0.9687
7.2054 -2.2188 -2.5061 0.9687
0.1935 -6.9930 -2.5017 0.9707
0.4420 -6.9821 -2.5018 0.9707
0.6899 -6.9624 -2.5020 0.9707
0.9371 -6.9339 -2.5022 0.9707
1.6702 -6.7960 -2.5026 0.9707
1.9109 -6.7327 -2.5028 0.9707
3.9337 -5.7928 -2.5040 0.9707
4.1373 -5.6496 -2.5042 0.9707
4.3358 -5.4993 -2.5043 0.9707
4.7160 -5.1778 -2.5045 0.9707
4.8973 -5.0071 -2.5046 0.9707
5.0724 -4.8301 -2.5047 0.9707
5.2411 -4.6469 -2.5048 0.9707
5.4032 -4.4578 -2.5049 0.9707
5.5584 -4.2631 -2.5050 0.9707
5.7067 -4.0630 -2.5051 0.9707
5.8477 -3.8577 -2.5052 0.9707
6.1074 -3.4327 -2.5054 0.9707
6.2258 -3.2135 -2.5055 0.9707
6.3362 -2.9903 -2.5055 0.9707
6.4387 -2.7632 -2.5056 0.9707
6.6190 -2.2989 -2.5057 0.9707
0.1805 -6.5256 -2.5017 0.9724
1.1039 -6.4356 -2.5023 0.9724
1.7831 -6.2826 -2.5027 0.9724
2.0054 -6.2156 -2.5028 0.9724
2.4422 -6.0580 -2.5031 0.9724
2.6562 -5.9677 -2.5032 0.9724
3.4759 -5.5321 -2.5037 0.9724
4.0457 -5.1314 -2.5041 0.9724
4.4004 -4.8314 -2.5043 0.9724
4.5696 -4.6721 -2.5044 0.9724
5.0416 -4.1595 -2.5047 0.9724
5.3248 -3.7911 -2.5049 0.9724
5.4564 -3.5995 -2.5050 0.9724
5.5811 -3.4034 -2.5051 0.9724
5.6987 -3.2030 -2.5051 0.9724
5.9121 -2.7901 -2.5053 0.9724
6.0077 -2.5783 -2.5053 0.9724
6.2485 -1.9241 -2.5055 0.9724
6.3130 -1.7008 -2.5055 0.9724
0.1691 -6.1101 -2.5017 0.9739
0.3862 -6.1006 -2.5018 0.9739
1.2472 -5.9855 -2.5023 0.9739
1.6696 -5.8824 -2.5026 0.9739
1.8777 -5.8197 -2.5027 0.9739
2.0835 -5.7495 -2.5029 0.9739
2.4870 -5.5875 -2.5031 0.9739
2.6841 -5.4959 -2.5032 0.9739
2.8779 -5.3972 -2.5034 0.9739
3.0681 -5.2918 -2.5035 0.9739
3.2545 -5.1796 -2.5036 0.9739
3.4367 -5.0609 -2.5037 0.9739
3.9564 -4.6669 -2.5040 0.9739
4.1200 -4.5235 -2.5041 0.9739
4.2784 -4.3743 -2.5042 0.9739
4.4313 -4.2196 -2.5043 0.9739
4.5787 -4.0596 -2.5044 0.9739
4.7203 -3.8944 -2.5045 0.9739
4.9854 -3.5494 -2.5047 0.9739
5.1085 -3.3701 -2.5048 0.9739
5.2253 -3.1865 -2.5048 0.9739
5.4388 -2.8073 -2.5050 0.9739
5.5352 -2.6123 -2.5050 0.9739
5.6248 -2.4139 -2.5051 0.9739
5.9105 -1.5924 -2.5053 0.9739
0.1588 -5.7380 -2.5017 0.9753
0.3626 -5.7290 -2.5018 0.9753
0.7688 -5.6893 -2.5020 0.9753
0.9707 -5.6587 -2.5022 0.9753
1.1713 -5.6209 -2.5023 0.9753
1.5678 -5.5240 -2.5025 0.9753
1.7633 -5.4651 -2.5027 0.9753
1.9565 -5.3992 -2.5028 0.9753
2.1473 -5.3265 -2.5029 0.9753
2.3354 -5.2471 -2.5030 0.9753
2.7025 -5.0683 -2.5033 0.9752
2.8812 -4.9693 -2.5034 0.9752
3.0561 -4.8639 -2.5035 0.9752
3.3942 -4.6349 -2.5037 0.9752
3.5570 -4.5115 -2.5038 0.9752
3.7153 -4.3824 -2.5039 0.9752
4.0175 -4.1077 -2.5041 0.9752
4.1612 -3.9624 -2.5042 0.9752
4.2996 -3.8121 -2.5043 0.9752
4.4325 -3.6570 -2.5043 0.9752
4.6814 -3.3330 -2.5045 0.9752
4.7971 -3.1646 -2.5046 0.9752
4.9067 -2.9922 -2.5046 0.9752
5.0100 -2.8159 -2.5047 0.9752
5.1977 -2.4530 -2.5048 0.9752
5.2817 -2.2667 -2.5049 0.9752
5.4296 -1.8858 -2.5050 0.9752
5.4933 -1.6916 -2.5050 0.9752
0.7239 -5.3566 -2.5020 0.9765
0.9139 -5.3277 -2.5021 0.9765
1.2902 -5.2498 -2.5024 0.9765
1.4761 -5.2009 -2.5025 0.9765
1.6601 -5.1454 -2.5026 0.9765
1.8421 -5.0833 -2.5027 0.9764
2.0217 -5.0149 -2.5028 0.9764
2.3731 -4.8590 -2.5030 0.9764
2.7126 -4.6784 -2.5033 0.9764
2.8773 -4.5793 -2.5034 0.9764
3.4979 -4.1259 -2.5038 0.9764
4.1730 -3.4429 -2.5042 0.9764
4.2929 -3.2925 -2.5043 0.9764
4.4073 -3.1379 -2.5043 0.9764
4.6194 -2.8170 -2.5045 0.9764
4.7167 -2.6511 -2.5045 0.9764
4.8081 -2.4818 -2.5046 0.9764
4.9725 -2.1340 -2.5047 0.9764
5.2251 -1.4077 -2.5048 0.9764
0.1411 -5.0980 -2.5017 0.9775
1.2175 -4.9539 -2.5023 0.9775
1.3929 -4.9077 -2.5024 0.9775
1.7383 -4.7968 -2.5027 0.9775
1.9077 -4.7322 -2.5028 0.9775
2.5596 -4.4147 -2.5032 0.9775
3.1600 -4.0080 -2.5035 0.9775
3.4370 -3.7736 -2.5037 0.9775
3.5691 -3.6491 -2.5038 0.9775
3.8196 -3.3865 -2.5040 0.9775
3.9377 -3.2487 -2.5040 0.9775
4.2615 -2.8113 -2.5042 0.9775
4.3588 -2.6581 -2.5043 0.9775
4.5369 -2.3418 -2.5044 0.9775
4.6173 -2.1791 -2.5045 0.9775
4.8799 -1.5027 -2.5046 0.9775
4.9303 -1.3283 -2.5046 0.9775
0.1334 -4.8203 -2.5016 0.9785
0.4756 -4.7991 -2.5019 0.9785
0.6459 -4.7794 -2.5020 0.9785
1.1512 -4.6840 -2.5023 0.9785
1.4812 -4.5908 -2.5025 0.9785
1.8037 -4.4743 -2.5027 0.9785
1.9618 -4.4075 -2.5028 0.9785
2.2701 -4.2573 -2.5030 0.9785
2.4201 -4.1741 -2.5031 0.9785
3.1207 -3.6810 -2.5035 0.9785
3.2496 -3.5679 -2.5036 0.9785
3.3746 -3.4502 -2.5037 0.9785
3.4952 -3.3282 -2.5038 0.9785
3.6113 -3.2019 -2.5038 0.9785
3.8299 -2.9374 -2.5040 0.9785
3.9320 -2.7995 -2.5040 0.9785
4.0292 -2.6580 -2.5041 0.9785
4.1212 -2.5132 -2.5041 0.9785
4.2080 -2.3651 -2.5042 0.9785
4.2895 -2.2141 -2.5042 0.9785
4.3656 -2.0603 -2.5043 0.9785
4.5011 -1.7449 -2.5044 0.9785
4.5604 -1.5839 -2.5044 0.9785
4.6138 -1.4208 -2.5045 0.9785
4.6614 -1.2559 -2.5045 0.9785
0.2886 -4.5586 -2.5017 0.9794
0.4504 -4.5456 -2.5018 0.9794
0.9319 -4.4724 -2.5021 0.9794
1.0904 -4.4366 -2.5022 0.9794
1.4030 -4.3483 -2.5024 0.9794
1.5567 -4.2958 -2.5025 0.9794
1.8581 -4.1747 -2.5027 0.9794
2.2923 -3.9536 -2.5030 0.9794
2.4314 -3.8697 -2.5031 0.9794
2.5675 -3.7810 -2.5032 0.9794
2.7004 -3.6874 -2.5033 0.9794
3.0779 -3.3793 -2.5035 0.9794
3.3104 -3.1523 -2.5036 0.9794
3.7242 -2.6514 -2.5039 0.9794
3.8162 -2.5175 -2.5040 0.9794
3.9033 -2.3803 -2.5040 0.9794
4.2016 -1.8032 -2.5042 0.9794
4.2631 -1.6527 -2.5042 0.9794
4.3192 -1.5001 -2.5043 0.9794
4.4150 -1.1895 -2.5043 0.9794
0.1199 -4.3313 -2.5016 0.9802
0.2738 -4.3245 -2.5017 0.9802
0.5803 -4.2944 -2.5019 0.9802
1.0344 -4.2087 -2.5022 0.9802
1.1834 -4.1694 -2.5023 0.9802
1.9024 -3.8952 -2.5028 0.9802
2.1745 -3.7504 -2.5029 0.9802
2.3065 -3.6709 -2.5030 0.9802
2.5616 -3.4980 -2.5032 0.9802
2.6845 -3.4048 -2.5032 0.9802
2.8039 -3.3073 -2.5033 0.9802
3.0320 -3.0999 -2.5035 0.9802
3.2447 -2.8768 -2.5036 0.9802
3.3450 -2.7597 -2.5037 0.9802
3.5328 -2.5152 -2.5038 0.9802
3.7027 -2.2580 -2.5039 0.9802
3.8539 -1.9892 -2.5040 0.9802
3.9223 -1.8510 -2.5040 0.9802
4.0972 -1.4230 -2.5041 0.9802
4.1453 -1.2765 -2.5042 0.9802
4.1880 -1.1283 -2.5042 0.9802
