ply
format ascii 1.0
element vertex 549
property float32 x
property float32 y
property float32 z
property float32 I
end_header
-36.7491 14.9742 6.9971 0.8511
-40.3300 13.1696 7.4808 0.8417
-41.9252 12.0549 7.6921 0.8376
-41.9428 10.4568 7.6220 0.8390
-41.8256 8.8571 7.5385 0.8406
-37.7570 -8.4084 6.8207 0.8546
-21.8319 -7.3823 4.0637 0.9106
-21.1376 -7.9978 3.9850 0.9123
-41.1103 18.4861 6.9053 0.8333
-43.0142 12.3680 6.8565 0.8343
-42.0911 8.9133 6.5911 0.8402
-30.2982 -7.8906 4.7963 0.8810
-21.5489 -7.2866 3.4848 0.9121
-21.1173 -7.9902 3.4589 0.9127
-19.5545 -8.2070 3.2488 0.9178
-41.5396 22.3642 6.1435 0.8267
-42.1769 18.9657 6.0220 0.8298
-45.3821 16.6316 6.2940 0.8229
-43.1046 12.3940 5.8405 0.8345
-37.4077 -6.9413 4.9544 0.8577
-21.3394 -7.2158 2.9334 0.9131
-36.4121 28.9741 4.9968 0.8293
-36.8981 25.2884 4.8034 0.8353
-41.5398 16.9263 4.8167 0.8349
-45.2951 16.5997 5.1802 0.8236
-39.0394 -7.2441 4.2637 0.8524
-37.9816 -8.4584 4.1784 0.8551
-35.4532 30.3364 3.9500 0.8292
-35.3619 28.1384 3.8256 0.8341
-35.6475 24.4312 3.6584 0.8407
-42.6146 24.9417 4.1799 0.8202
-36.5586 -8.1415 3.1706 0.8604
-20.9700 -7.0908 1.8739 0.9150
-41.2708 24.1552 2.9653 0.8256
-36.9589 -6.8581 2.3310 0.8602
-38.3705 -8.5450 2.4376 0.8542
-21.3392 -7.2157 1.3969 0.9137
-21.0263 -7.9558 1.3941 0.9138
-20.6494 -8.6666 1.3887 0.9142
-20.0265 22.8144 1.1970 0.8856
-30.1038 27.6775 1.6125 0.8490
-29.9879 23.8622 1.5111 0.8578
-35.1351 24.0801 1.6796 0.8432
-37.0375 23.4888 1.7294 0.8390
-41.2707 24.1552 1.8856 0.8258
-38.4738 -7.1391 1.5430 0.8550
-30.3241 -7.8974 1.2356 0.8821
-20.9645 -7.0890 0.8726 0.9152
-20.2266 -8.4891 0.8650 0.9159
-20.0020 22.7864 0.5122 0.8858
-28.4781 22.6608 0.6148 0.8645
-33.2968 22.8202 0.6819 0.8509
-38.4704 22.5162 0.7530 0.8367
-37.8979 -7.0323 0.6511 0.8571
-30.3135 -7.8946 0.5291 0.8822
-21.8716 -7.3957 0.3900 0.9118
-21.2029 -8.0226 0.3829 0.9133
-19.9274 -8.3635 0.3651 0.9172
-6.6702 6.5865 -0.0528 0.9632
-7.1645 6.5872 -0.0548 0.9618
-8.9155 6.5894 -0.0624 0.9566
-10.2607 6.5074 -0.0684 0.9526
-11.2855 6.6053 -0.0736 0.9490
-12.2711 6.6066 -0.0785 0.9458
-13.3969 6.6080 -0.0841 0.9420
-23.0173 6.6183 -0.1348 0.9086
-26.5503 6.6194 -0.1541 0.8963
-30.8766 6.5386 -0.1777 0.8814
-37.9821 6.6385 -0.2171 0.8571
-38.1319 -8.4919 -0.2199 0.8553
-30.3030 -7.8919 -0.1763 0.8823
-6.2103 6.5858 -0.2549 0.9644
-7.1644 6.5870 -0.2740 0.9618
-7.6987 6.5877 -0.2853 0.9603
-8.9153 6.5893 -0.3122 0.9566
-10.2605 6.5072 -0.3421 0.9525
-11.2852 6.6051 -0.3682 0.9490
-12.2707 6.6064 -0.3924 0.9458
-13.3965 6.6078 -0.4206 0.9420
-14.6984 6.6095 -0.4538 0.9375
-18.0376 6.6105 -0.5409 0.9260
-23.0161 6.6180 -0.6743 0.9086
-26.5488 6.6190 -0.7704 0.8963
-30.8745 6.5381 -0.8886 0.8814
-37.9788 6.6379 -1.0856 0.8570
-6.2101 6.5857 -0.4591 0.9644
-6.6699 6.5863 -0.4754 0.9632
-10.2602 6.5070 -0.6162 0.9525
-11.2849 6.6050 -0.6631 0.9490
-12.2703 6.6062 -0.7067 0.9457
-13.3961 6.6076 -0.7575 0.9419
-14.6979 6.6093 -0.8173 0.9375
-16.2167 6.6079 -0.8881 0.9323
-20.1988 6.5959 -1.0776 0.9184
-23.0149 6.6176 -1.2145 0.9085
-30.8723 6.5377 -1.6004 0.8813
-37.9756 6.6373 -1.9551 0.8569
-46.1255 4.7086 -2.3514 0.8305
-48.0775 1.4634 -2.4393 0.8248
-48.0986 -0.2512 -2.4393 0.8248
-30.2826 -7.8866 -1.5870 0.8822
-6.6698 6.5861 -0.6873 0.9631
-7.6984 6.5874 -0.7429 0.9602
-8.2793 6.5881 -0.7758 0.9585
-9.6150 6.5898 -0.8547 0.9543
-10.2599 6.5068 -0.8908 0.9524
-12.2700 6.6060 -1.0218 0.9456
-13.3956 6.6074 -1.0952 0.9419
-14.6974 6.6090 -1.1816 0.9374
-16.2161 6.6077 -1.2839 0.9322
-20.1995 6.5961 -1.5580 0.9183
-26.5456 6.6182 -2.0060 0.8961
-30.8108 6.5246 -2.3092 0.8813
-31.0201 5.4216 -2.3089 0.8814
-33.4529 2.2138 -2.4582 0.8742
-33.5096 1.0200 -2.4581 0.8742
-31.1145 -5.7736 -2.3203 0.8808
-30.1858 -9.0217 -2.3100 0.8813
-31.7873 -10.7486 -2.4604 0.8741
-30.9544 -12.9915 -2.4614 0.8740
-5.7801 6.5849 -0.8412 0.9654
-6.2099 6.5854 -0.8690 0.9643
-7.6982 6.5873 -0.9727 0.9601
-8.2791 6.5880 -1.0158 0.9584
-8.9146 6.5888 -1.0642 0.9564
-10.2596 6.5067 -1.1664 0.9524
-11.2843 6.6046 -1.2553 0.9488
-13.3952 6.6072 -1.4339 0.9417
-14.6969 6.6088 -1.5471 0.9373
-18.0353 6.6096 -1.8441 0.9257
-20.2001 6.5963 -2.0401 0.9182
-23.2145 6.6749 -2.3190 0.9075
-23.4348 5.8426 -2.3187 0.9075
-23.6256 5.0030 -2.3185 0.9075
-25.3301 4.4271 -2.4687 0.9018
-25.4700 3.5212 -2.4685 0.9018
-25.5779 2.6110 -2.4684 0.9018
-25.6537 1.6976 -2.4683 0.9018
-25.6973 0.7822 -2.4682 0.9018
-25.6878 -1.0505 -2.4682 0.9018
-25.6348 -1.9654 -2.4683 0.9018
-25.2832 -4.6915 -2.4687 0.9018
-25.1022 -5.5902 -2.4690 0.9018
-23.3734 -6.0872 -2.3188 0.9075
-22.8865 -7.7389 -2.3194 0.9075
-23.7304 -9.9596 -2.4708 0.9018
-5.7800 6.5847 -1.0408 0.9653
-6.2097 6.5853 -1.0752 0.9642
-7.6980 6.5871 -1.2035 0.9600
-8.2789 6.5878 -1.2568 0.9583
-8.9144 6.5886 -1.3167 0.9563
-9.6145 6.5895 -1.3846 0.9541
-10.2594 6.5065 -1.4431 0.9522
-11.2839 6.6044 -1.5531 0.9487
-13.3947 6.6070 -1.7741 0.9416
-14.6963 6.6086 -1.9141 0.9372
-16.2149 6.6071 -2.0799 0.9319
-18.3791 6.7356 -2.3252 0.9242
-18.9873 4.7337 -2.3245 0.9242
-20.3842 4.3166 -2.4751 0.9195
-20.5236 3.5871 -2.4749 0.9195
-20.6373 2.8531 -2.4747 0.9195
-20.7865 1.3755 -2.4745 0.9195
-20.8219 0.6338 -2.4745 0.9195
-20.8142 -0.8512 -2.4745 0.9195
-20.7711 -1.5925 -2.4746 0.9195
-20.7019 -2.3320 -2.4747 0.9195
-20.3386 -4.5294 -2.4751 0.9195
-19.2868 -5.7643 -2.3911 0.9221
-18.5420 -6.2698 -2.3250 0.9242
-18.3090 -6.9276 -2.3253 0.9242
-6.6694 6.5857 -1.3280 0.9628
-7.1636 6.5863 -1.3788 0.9614
-8.2787 6.5877 -1.4991 0.9582
-8.9142 6.5885 -1.5706 0.9562
-11.2836 6.6042 -1.8525 0.9486
-13.3943 6.6068 -2.1161 0.9414
-15.2243 6.2034 -2.3293 0.9357
-15.4339 5.6562 -2.3290 0.9357
-16.3616 4.7045 -2.4122 0.9335
-16.9795 4.2332 -2.4795 0.9317
-17.2356 3.0124 -2.4791 0.9318
-17.4567 1.1552 -2.4788 0.9318
-17.4865 0.5323 -2.4788 0.9318
-17.4943 -0.0914 -2.4788 0.9318
-17.4800 -0.7148 -2.4788 0.9318
-17.4438 -1.3374 -2.4789 0.9318
-17.3856 -1.9584 -2.4789 0.9318
-16.7682 -5.0116 -2.4797 0.9317
-16.5805 -5.6066 -2.4800 0.9317
-15.3746 -5.8173 -2.3291 0.9357
-5.7798 6.5845 -1.4433 0.9651
-6.2095 6.5850 -1.4910 0.9640
-7.1634 6.5862 -1.6031 0.9613
-7.6977 6.5868 -1.6690 0.9598
-8.9140 6.5883 -1.8260 0.9561
-9.6140 6.5891 -1.9201 0.9538
-11.2833 6.6040 -2.1538 0.9484
-12.4688 6.7130 -2.3329 0.9442
-13.1094 5.3417 -2.3320 0.9442
-14.3270 4.6784 -2.4829 0.9407
-14.7414 3.1217 -2.4823 0.9407
-14.9249 2.0634 -2.4821 0.9407
-14.9885 1.5301 -2.4820 0.9408
-15.0331 0.9948 -2.4820 0.9408
-15.0588 0.4584 -2.4819 0.9408
-15.0655 -0.0787 -2.4819 0.9408
-15.0532 -0.6156 -2.4819 0.9408
-14.9718 -1.6865 -2.4820 0.9407
-14.8148 -2.7490 -2.4822 0.9407
-14.7082 -3.2755 -2.4824 0.9407
-14.5831 -3.7979 -2.4825 0.9407
-14.4396 -4.3156 -2.4827 0.9407
-14.2777 -4.8279 -2.4829 0.9407
-14.0979 -5.3343 -2.4832 0.9407
-13.7137 -5.7556 -2.4501 0.9415
-5.7797 6.5844 -1.6468 0.9650
-6.6691 6.5854 -1.7617 0.9626
-7.1633 6.5860 -1.8290 0.9612
-8.2783 6.5874 -1.9885 0.9579
-8.9137 6.5881 -2.0834 0.9559
-9.6138 6.5890 -2.1907 0.9537
-10.2585 6.5059 -2.2833 0.9518
-10.9375 5.8886 -2.3348 0.9507
-12.4151 4.5499 -2.4853 0.9476
-12.7058 3.6533 -2.4850 0.9476
-12.8272 3.1980 -2.4848 0.9476
-13.0211 2.2758 -2.4846 0.9476
-13.1493 1.3423 -2.4844 0.9476
-13.1885 0.8728 -2.4843 0.9476
-13.2170 -0.0690 -2.4843 0.9476
-13.2062 -0.5401 -2.4843 0.9476
-13.1787 -1.0104 -2.4844 0.9476
-13.1346 -1.4795 -2.4844 0.9476
-12.9968 -2.4117 -2.4846 0.9476
-12.9032 -2.8735 -2.4847 0.9476
-12.6672 -3.7859 -2.4850 0.9476
-12.5252 -4.2353 -2.4852 0.9476
-12.1937 -5.1177 -2.4856 0.9476
-6.2092 6.5847 -1.9131 0.9637
-6.6689 6.5853 -1.9811 0.9624
-7.1631 6.5859 -2.0568 0.9610
-7.6973 6.5865 -2.1414 0.9594
-8.8929 6.5727 -2.3375 0.9558
-9.1204 6.2507 -2.3372 0.9558
-9.3363 5.9210 -2.3369 0.9558
-9.7322 5.2397 -2.3364 0.9558
-9.9118 4.8890 -2.3362 0.9558
-10.8970 4.4402 -2.4873 0.9530
-11.1840 3.6521 -2.4869 0.9530
-11.3063 3.2509 -2.4868 0.9530
-11.4144 2.8457 -2.4866 0.9530
-11.5080 2.4370 -2.4865 0.9530
-11.5871 2.0252 -2.4864 0.9530
-11.6515 1.6108 -2.4863 0.9530
-11.7361 0.7766 -2.4862 0.9531
-11.7563 0.3578 -2.4862 0.9531
-11.7615 -0.0614 -2.4862 0.9531
-11.7519 -0.4806 -2.4862 0.9531
-11.7275 -0.8992 -2.4862 0.9531
-11.5654 -2.1461 -2.4864 0.9530
-11.3842 -2.9648 -2.4867 0.9530
-11.2720 -3.3689 -2.4868 0.9530
-11.1455 -3.7688 -2.4870 0.9530
-11.0049 -4.1639 -2.4872 0.9530
-10.8504 -4.5539 -2.4874 0.9530
-7.5624 6.4710 -2.3392 0.9599
-8.2070 5.6247 -2.3384 0.9599
-8.4014 5.3281 -2.3381 0.9599
-9.4983 4.6850 -2.4891 0.9574
-9.6584 4.3431 -2.4889 0.9574
-9.8063 3.9958 -2.4887 0.9574
-9.9418 3.6435 -2.4885 0.9574
-10.1749 2.9256 -2.4882 0.9574
-10.2722 2.5610 -2.4881 0.9574
-10.3565 2.1931 -2.4880 0.9574
-10.4857 1.4497 -2.4878 0.9574
-10.5619 0.6989 -2.4877 0.9574
-10.5761 -0.4325 -2.4877 0.9574
-10.5187 -1.1849 -2.4878 0.9574
-10.4082 -1.9313 -2.4879 0.9574
-10.1440 -3.0318 -2.4883 0.9574
-6.2029 6.5779 -2.3410 0.9633
-6.4326 6.3518 -2.3407 0.9633
-6.6541 6.1178 -2.3404 0.9633
-7.0714 5.6269 -2.3398 0.9633
-7.2667 5.3707 -2.3396 0.9634
-7.4527 5.1078 -2.3393 0.9634
-8.0413 4.7065 -2.4124 0.9622
-8.6256 4.2546 -2.4902 0.9610
-8.7711 3.9441 -2.4900 0.9610
-9.0286 3.3088 -2.4897 0.9610
-9.2404 2.6569 -2.4894 0.9611
-9.3288 2.3258 -2.4893 0.9611
-9.4053 1.9917 -2.4892 0.9611
-9.5228 1.3165 -2.4891 0.9611
-9.6049 -0.3928 -2.4890 0.9611
-9.5849 -0.7349 -2.4890 0.9611
-9.5528 -1.0761 -2.4890 0.9611
-9.5085 -1.4159 -2.4891 0.9611
-9.2122 -2.7533 -2.4895 0.9611
-9.1087 -3.0801 -2.4896 0.9610
-8.8673 -3.7216 -2.4899 0.9610
-5.4574 6.2171 -2.3419 0.9662
-5.6748 6.0179 -2.3416 0.9662
-5.8850 5.8112 -2.3414 0.9662
-6.2827 5.3760 -2.3409 0.9662
-6.4696 5.1481 -2.3406 0.9662
-6.6484 4.9138 -2.3404 0.9662
-6.8812 4.7162 -2.3617 0.9659
-7.5958 4.4457 -2.4916 0.9641
-7.7488 4.1718 -2.4914 0.9641
-8.2609 3.0274 -2.4907 0.9641
-8.3630 2.7309 -2.4906 0.9641
-8.5356 2.1280 -2.4903 0.9641
-8.6650 1.5144 -2.4902 0.9641
-8.7132 1.2046 -2.4901 0.9641
-8.7504 0.8933 -2.4901 0.9641
-8.7766 0.5808 -2.4900 0.9641
-8.7916 0.2676 -2.4900 0.9641
-8.7956 -0.0459 -2.4900 0.9641
-8.7884 -0.3594 -2.4900 0.9641
-8.7407 -0.9846 -2.4901 0.9641
-8.7002 -1.2955 -2.4901 0.9641
-8.6487 -1.6049 -2.4902 0.9641
-8.5130 -2.2171 -2.4904 0.9641
-8.2289 -3.1136 -2.4907 0.9641
-8.1132 -3.4051 -2.4909 0.9641
-5.0241 5.7236 -2.3425 0.9686
-5.4179 5.3499 -2.3420 0.9686
-6.3631 4.7029 -2.4337 0.9674
-6.8435 4.3401 -2.4925 0.9667
-6.9933 4.0931 -2.4923 0.9667
-7.5020 3.0569 -2.4917 0.9667
-7.9235 1.6779 -2.4911 0.9667
-8.0947 0.2464 -2.4909 0.9667
-8.0917 -0.3309 -2.4909 0.9667
-8.0748 -0.6191 -2.4909 0.9667
-8.0478 -0.9065 -2.4910 0.9667
-7.9631 -1.4776 -2.4911 0.9667
-7.6734 -2.5947 -2.4915 0.9667
-7.4698 -3.1351 -2.4917 0.9667
-5.5021 4.7081 -2.4071 0.9699
-5.8704 4.6713 -2.4938 0.9689
-6.7253 3.3172 -2.4927 0.9689
-6.8388 3.0752 -2.4925 0.9689
-6.9437 2.8294 -2.4924 0.9689
-7.2741 1.8135 -2.4920 0.9689
-7.3339 1.5530 -2.4919 0.9689
-7.4255 1.0266 -2.4918 0.9689
-7.4573 0.7613 -2.4917 0.9689
-7.4796 0.4950 -2.4917 0.9689
-7.4896 -0.3063 -2.4917 0.9689
-7.4741 -0.5730 -2.4917 0.9689
-7.4145 -1.1041 -2.4918 0.9689
-7.3706 -1.3677 -2.4918 0.9689
-7.3173 -1.6296 -2.4919 0.9689
-7.2549 -1.8894 -2.4920 0.9689
-7.1832 -2.1469 -2.4921 0.9689
-7.0126 -2.6534 -2.4923 0.9689
-4.4953 4.7671 -2.3432 0.9725
-4.7699 4.7101 -2.3972 0.9719
-5.1061 4.6946 -2.4805 0.9710
-5.3001 4.5352 -2.4945 0.9708
-5.4579 4.3430 -2.4943 0.9708
-5.6088 4.1454 -2.4941 0.9708
-5.7525 3.9426 -2.4939 0.9708
-6.0180 3.5223 -2.4936 0.9708
-6.1393 3.3053 -2.4934 0.9708
-6.2528 3.0842 -2.4933 0.9708
-6.4560 2.6306 -2.4930 0.9708
-6.6264 2.1638 -2.4928 0.9708
-6.8188 1.4440 -2.4926 0.9708
-6.8658 1.2000 -2.4925 0.9708
-6.9544 0.4602 -2.4924 0.9708
-6.9663 0.2120 -2.4924 0.9708
-6.9638 -0.2848 -2.4924 0.9708
-6.9492 -0.5328 -2.4924 0.9708
-6.8938 -1.0265 -2.4925 0.9708
-6.8530 -1.2716 -2.4925 0.9708
-6.7454 -1.7567 -2.4927 0.9708
-6.6787 -1.9961 -2.4927 0.9708
-6.6036 -2.2329 -2.4928 0.9708
-6.5200 -2.4670 -2.4929 0.9708
-4.1339 4.7095 -2.4014 0.9735
-4.4283 4.6960 -2.4735 0.9727
-4.6334 4.5752 -2.4954 0.9725
-4.7931 4.4068 -2.4952 0.9725
-4.9468 4.2328 -2.4950 0.9725
-5.3691 3.6798 -2.4944 0.9725
-5.4965 3.4859 -2.4943 0.9725
-5.7302 3.0851 -2.4940 0.9725
-5.8362 2.8787 -2.4938 0.9725
-6.1093 2.2389 -2.4935 0.9725
-6.2528 1.7979 -2.4933 0.9725
-6.3127 1.5738 -2.4932 0.9725
-6.4442 0.8909 -2.4930 0.9725
-6.4718 0.6607 -2.4930 0.9725
-6.4912 0.4296 -2.4930 0.9725
-6.5023 0.1979 -2.4930 0.9725
-6.5052 -0.0340 -2.4930 0.9725
-6.4999 -0.2658 -2.4930 0.9725
-6.4863 -0.4973 -2.4930 0.9725
-6.4646 -0.7282 -2.4930 0.9725
-6.4346 -0.9582 -2.4931 0.9725
-6.3965 -1.1869 -2.4931 0.9725
-6.3503 -1.4142 -2.4932 0.9725
-6.2960 -1.6397 -2.4932 0.9725
-4.0235 4.5836 -2.4962 0.9740
-4.1839 4.4369 -2.4960 0.9740
-4.9025 3.6234 -2.4950 0.9740
-5.1475 3.2645 -2.4947 0.9740
-5.2603 3.0788 -2.4946 0.9740
-5.4657 2.6959 -2.4943 0.9740
-5.5580 2.4993 -2.4942 0.9740
-5.6434 2.2995 -2.4941 0.9740
-5.7215 2.0968 -2.4940 0.9740
-5.7923 1.8915 -2.4939 0.9740
-5.8559 1.6838 -2.4938 0.9740
-5.9121 1.4739 -2.4937 0.9740
-6.0017 1.0490 -2.4936 0.9740
-6.0352 0.8344 -2.4936 0.9740
-6.0611 0.6187 -2.4935 0.9740
-6.0792 0.4023 -2.4935 0.9740
-6.0747 -0.4658 -2.4935 0.9740
-6.0543 -0.6820 -2.4935 0.9740
-5.8381 -1.7449 -2.4938 0.9740
-5.6993 -2.1565 -2.4940 0.9740
-5.6191 -2.3583 -2.4941 0.9740
-3.9296 4.1672 -2.4963 0.9753
-4.2159 3.8761 -2.4959 0.9753
-4.4807 3.5654 -2.4956 0.9753
-4.6046 3.4033 -2.4954 0.9753
-4.7227 3.2368 -2.4953 0.9753
-4.8348 3.0662 -2.4951 0.9753
-5.0404 2.7137 -2.4949 0.9753
-5.1337 2.5322 -2.4947 0.9753
-5.2204 2.3475 -2.4946 0.9753
-5.3740 1.9695 -2.4944 0.9753
-5.4406 1.7766 -2.4943 0.9753
-5.5003 1.5815 -2.4943 0.9753
-5.5987 1.1856 -2.4941 0.9753
-5.6373 0.9853 -2.4941 0.9753
-5.6687 0.7837 -2.4940 0.9753
-5.6930 0.5812 -2.4940 0.9753
-5.7224 -0.0299 -2.4940 0.9753
-5.7058 -0.4375 -2.4940 0.9753
-5.4835 -1.6389 -2.4943 0.9753
-5.2778 -2.2151 -2.4945 0.9753
-3.5583 4.0537 -2.4968 0.9765
-3.7003 3.9240 -2.4966 0.9765
-3.8375 3.7894 -2.4964 0.9765
-4.2193 3.3574 -2.4959 0.9765
-4.3360 3.2047 -2.4958 0.9765
-4.4472 3.0479 -2.4956 0.9765
-4.6525 2.7231 -2.4954 0.9765
-4.8343 2.3845 -2.4951 0.9765
-5.0606 1.8546 -2.4948 0.9765
-5.1233 1.6730 -2.4947 0.9765
-5.1795 1.4893 -2.4947 0.9765
-5.2291 1.3037 -2.4946 0.9765
-5.3086 0.9278 -2.4945 0.9765
-5.3382 0.7380 -2.4945 0.9765
-5.3610 0.5473 -2.4944 0.9765
-5.3771 0.3558 -2.4944 0.9765
-5.3863 0.1640 -2.4944 0.9765
-5.3731 -0.4120 -2.4944 0.9765
-5.3302 -0.7937 -2.4945 0.9765
-5.2153 -1.3582 -2.4946 0.9765
-5.1056 -1.7264 -2.4948 0.9765
-5.0410 -1.9074 -2.4949 0.9765
-4.9700 -2.0859 -2.4949 0.9765
-3.4921 3.7033 -2.4969 0.9776
-3.6217 3.5762 -2.4967 0.9776
-3.7466 3.4447 -2.4965 0.9776
-3.8668 3.3087 -2.4964 0.9776
-4.4796 2.4117 -2.4956 0.9776
-4.5625 2.2505 -2.4955 0.9776
-4.7109 1.9196 -2.4953 0.9776
-4.7761 1.7504 -2.4952 0.9776
-4.8354 1.5790 -2.4951 0.9776
-4.8884 1.4056 -2.4951 0.9776
-4.9353 1.2304 -2.4950 0.9776
-4.9759 1.0537 -2.4949 0.9776
-5.0102 0.8757 -2.4949 0.9776
-5.0597 0.5165 -2.4948 0.9776
-5.0749 0.3358 -2.4948 0.9776
-5.0817 -0.2078 -2.4948 0.9776
-5.0711 -0.3888 -2.4948 0.9776
-5.0306 -0.7491 -2.4949 0.9776
-4.8735 -1.4566 -2.4951 0.9776
-4.7576 -1.8002 -2.4952 0.9776
-3.1756 3.6177 -2.4973 0.9785
-3.6566 3.1289 -2.4966 0.9785
-4.0633 2.5769 -2.4961 0.9786
-4.2361 2.2807 -2.4959 0.9786
-4.3875 1.9729 -2.4957 0.9786
-4.4549 1.8152 -2.4956 0.9786
-4.6228 1.3292 -2.4954 0.9786
-4.7380 0.8281 -2.4952 0.9786
-4.7848 0.4884 -2.4952 0.9786
-4.8074 0.1463 -2.4952 0.9786
-4.7956 -0.3677 -2.4952 0.9786
-4.7291 -0.8775 -2.4953 0.9786
-4.6949 -1.0456 -2.4953 0.9786
-4.6547 -1.2122 -2.4954 0.9786
-4.6087 -1.3774 -2.4954 0.9786
-4.5568 -1.5409 -2.4955 0.9786
-4.4357 -1.8617 -2.4956 0.9786
-3.1281 3.3173 -2.4973 0.9794
-3.2442 3.2035 -2.4972 0.9794
-3.4638 2.9639 -2.4969 0.9794
-3.5671 2.8384 -2.4968 0.9794
-3.7598 2.5768 -2.4965 0.9794
-4.0129 2.1605 -2.4962 0.9794
-4.3792 1.2592 -2.4957 0.9794
-4.4212 1.1023 -2.4957 0.9794
-4.4884 0.7845 -2.4956 0.9794
-4.5134 0.6240 -2.4955 0.9794
-4.5541 0.1386 -2.4955 0.9794
-4.5524 -0.1862 -2.4955 0.9794
-4.5277 -0.5100 -2.4955 0.9794
-4.5067 -0.6711 -2.4955 0.9794
-4.4799 -0.8313 -2.4956 0.9794
-4.4095 -1.1484 -2.4957 0.9794
-4.3167 -1.4597 -2.4958 0.9794
-4.2020 -1.7636 -2.4959 0.9794
-2.9678 3.1472 -2.4975 0.9802
-3.1841 2.9275 -2.4972 0.9802
-3.2862 2.8120 -2.4971 0.9802
-3.3842 2.6929 -2.4970 0.9802
-3.5671 2.4448 -2.4968 0.9802
-3.6518 2.3160 -2.4966 0.9802
-3.7319 2.1842 -2.4965 0.9802
-3.8072 2.0498 -2.4964 0.9802
-3.8777 1.9127 -2.4964 0.9802
-3.9433 1.7732 -2.4963 0.9802
-4.0039 1.6315 -2.4962 0.9802
-4.0594 1.4877 -2.4961 0.9802
-4.1097 1.3420 -2.4961 0.9802
-4.1548 1.1947 -2.4960 0.9802
-4.2584 0.7443 -2.4959 0.9802
-4.2821 0.5920 -2.4958 0.9802
-4.3208 0.1315 -2.4958 0.9802
-4.3192 -0.1766 -2.4958 0.9802
-4.3102 -0.3305 -2.4958 0.9802
-4.2957 -0.4839 -2.4958 0.9802
-4.2758 -0.6367 -2.4958 0.9802
-4.0955 -1.3849 -2.4961 0.9802
