ply
format ascii 1.0
element vertex 652
property float32 x
property float32 y
property float32 z
property float32 I
end_header
-33.6074 -21.8610 7.0693 0.8497
-30.5123 -21.4455 6.5761 0.8594
-26.2660 -21.4356 5.9779 0.8714
-24.4191 -21.4346 5.7292 0.8764
-21.1379 -21.4295 5.3075 0.8849
-19.6673 -21.4261 5.1283 0.8886
-4.5339 -6.6424 1.4181 0.9679
-4.3676 -6.9200 1.4429 0.9673
-4.3315 -7.4422 1.5183 0.9656
-4.2971 -8.0336 1.6065 0.9637
-3.6056 -7.3652 1.4459 0.9672
-2.9091 -8.0323 1.5063 0.9659
-2.6176 -8.1280 1.5057 0.9659
-2.5381 -8.9739 1.6444 0.9628
-5.2360 -21.4227 3.8886 0.9143
-4.4271 -21.4223 3.8571 0.9150
-3.6302 -21.4218 3.8311 0.9155
-2.8429 -21.4214 3.8103 0.9160
-2.0625 -21.4140 3.7933 0.9163
-1.2884 -21.4127 3.7825 0.9166
0.2515 -21.4100 3.7754 0.9167
1.7914 -21.3802 3.7831 0.9165
3.4244 -21.8528 3.9003 0.9141
4.5108 -23.2836 4.1819 0.9082
-20.0813 -9.2833 3.3891 0.9144
-32.9782 -21.4517 6.0269 0.8528
-30.5126 -21.4457 5.7134 0.8599
-28.3084 -21.4558 5.4416 0.8661
-21.1387 -21.4303 4.6114 0.8853
-5.3692 -7.2894 1.3869 0.9640
-4.2633 -7.3251 1.2984 0.9663
-3.5692 -8.0070 1.3430 0.9651
-3.0845 -7.6469 1.2632 0.9672
-2.9262 -8.0795 1.3164 0.9658
-2.5304 -8.9467 1.4244 0.9631
-5.2360 -21.4228 3.3785 0.9146
-4.4271 -21.4224 3.3511 0.9153
-2.0626 -21.4146 3.2958 0.9166
-0.5177 -21.4119 3.2811 0.9170
0.2515 -21.4106 3.2802 0.9170
4.5117 -23.2882 3.6340 0.9085
-19.6334 -9.0762 2.8166 0.9164
-42.3655 -21.4641 6.1845 0.8257
-38.7931 -21.4386 5.7718 0.8363
-32.9769 -21.4508 5.1228 0.8533
-28.3069 -21.4547 4.6253 0.8665
-26.2674 -21.4367 4.4151 0.8722
-24.4203 -21.4357 4.2314 0.8772
-22.7155 -21.4317 4.0668 0.8816
-19.6690 -21.4279 3.7877 0.8893
-4.3909 -6.9568 1.0713 0.9674
-4.1522 -7.7627 1.1464 0.9651
-3.0487 -7.5581 1.0613 0.9677
-3.1530 -8.7058 1.2057 0.9633
-2.8359 -8.8060 1.2047 0.9634
-2.5191 -8.9067 1.2053 0.9634
-4.4271 -21.4225 2.8486 0.9155
-3.6302 -21.4221 2.8294 0.9161
0.2515 -21.4111 2.7884 0.9173
1.0215 -21.4124 2.7915 0.9172
1.7914 -21.3802 2.7939 0.9171
-19.5348 -9.0306 2.3110 0.9171
-32.9757 -21.4500 4.2242 0.8536
-26.2681 -21.4373 3.6408 0.8725
-22.7164 -21.4325 3.3537 0.8819
-19.6699 -21.4289 3.1235 0.8896
-18.2958 -21.4284 3.0256 0.8928
-5.3142 -7.2146 0.9622 0.9646
-3.1213 -8.6182 0.9843 0.9638
-6.0615 -21.4314 2.3916 0.9143
-5.2360 -21.4231 2.3682 0.9151
-4.4272 -21.4226 2.3490 0.9158
-3.6303 -21.4222 2.3331 0.9163
-2.8430 -21.4218 2.3205 0.9167
-1.2885 -21.4144 2.3037 0.9173
-0.5178 -21.4130 2.3000 0.9174
1.0215 -21.4124 2.3019 0.9174
1.7914 -21.3802 2.3039 0.9173
2.5769 -21.4579 2.3207 0.9167
-19.4377 -8.9857 1.8128 0.9176
-38.7988 -21.4418 3.7526 0.8370
-35.7259 -21.4535 3.5277 0.8460
-32.9744 -21.4492 3.3300 0.8539
-30.5134 -21.4463 3.1572 0.8610
-26.2687 -21.4378 2.8702 0.8727
-22.7172 -21.4333 2.6439 0.8822
-19.6707 -21.4298 2.4625 0.8898
-18.2966 -21.4293 2.3853 0.8930
-17.0019 -21.4258 2.3154 0.8960
-5.2873 -7.1781 0.7547 0.9648
-4.2420 -7.2885 0.7139 0.9667
-4.0225 -7.5203 0.7220 0.9663
-3.8896 -7.9453 0.7489 0.9651
-3.0904 -8.5328 0.7682 0.9642
-2.7796 -8.6311 0.7676 0.9643
-3.6303 -21.4223 1.8393 0.9165
-2.0628 -21.4163 1.8213 0.9173
-1.2885 -21.4149 1.8161 0.9175
1.0215 -21.4123 1.8147 0.9175
-38.8016 -21.4433 2.7491 0.8372
-35.7257 -21.4534 2.5841 0.8462
-28.3026 -21.4514 2.2022 0.8673
-26.2694 -21.4384 2.1026 0.8729
-22.7181 -21.4341 1.9368 0.8823
-21.1417 -21.4333 1.8669 0.8863
-17.0027 -21.4268 1.6962 0.8962
-15.7805 -21.4240 1.6500 0.8989
-5.0211 -7.3560 0.5523 0.9649
-4.7385 -7.5077 0.5505 0.9650
-4.4585 -7.6604 0.5496 0.9651
-4.1238 -7.7097 0.5422 0.9656
-3.3765 -7.5748 0.5143 0.9673
-3.3689 -8.3520 0.5585 0.9646
-3.0601 -8.4493 0.5573 0.9646
-2.7524 -8.5467 0.5568 0.9647
-6.0613 -21.4305 1.3810 0.9146
-3.6303 -21.4224 1.3474 0.9166
-2.0628 -21.4168 1.3342 0.9174
0.2515 -21.4128 1.3279 0.9178
1.0215 -21.4123 1.3293 0.9177
3.4249 -21.8559 1.3718 0.9152
-38.8045 -21.4449 1.7482 0.8374
-28.3012 -21.4504 1.4003 0.8675
-26.2701 -21.4389 1.3370 0.8731
-19.6724 -21.4316 1.1471 0.8901
-17.0034 -21.4277 1.0786 0.8963
-15.7812 -21.4249 1.0492 0.8990
-4.9546 -7.2587 0.3465 0.9654
-4.7381 -7.5070 0.3500 0.9651
-4.5311 -7.7852 0.3552 0.9646
-4.0861 -7.6391 0.3416 0.9659
-3.9541 -8.0772 0.3546 0.9646
-3.3362 -8.2711 0.3517 0.9649
-3.0306 -8.3677 0.3509 0.9650
-6.9014 -21.4300 0.8877 0.9138
-6.0612 -21.4300 0.8782 0.9147
-4.4272 -21.4230 0.8626 0.9162
-3.6303 -21.4225 0.8568 0.9167
-2.0629 -21.4173 0.8484 0.9175
-1.2886 -21.4160 0.8460 0.9177
2.5769 -21.4586 0.8522 0.9171
3.4250 -21.8565 0.8723 0.9152
-38.8073 -21.4465 0.7489 0.8375
-32.9706 -21.4467 0.6644 0.8544
-24.4233 -21.4383 0.5489 0.8781
-22.7198 -21.4356 0.5276 0.8825
-15.7818 -21.4258 0.4495 0.8990
-4.6908 -7.4320 0.1485 0.9655
-4.4579 -7.6594 0.1497 0.9652
-4.2470 -7.9399 0.1521 0.9646
-3.8331 -7.8300 0.1473 0.9657
-3.3043 -8.1919 0.1492 0.9653
-3.0016 -8.2878 0.1489 0.9654
-6.0610 -21.4296 0.3762 0.9148
-2.8431 -21.4222 0.3650 0.9172
1.7914 -21.3803 0.3624 0.9177
2.5770 -21.4588 0.3651 0.9172
3.4251 -21.8571 0.3737 0.9153
4.5170 -23.3156 0.4012 0.9094
-38.8101 -21.4480 -0.2497 0.8375
-35.7251 -21.4531 -0.2346 0.8465
-28.2983 -21.4482 -0.1999 0.8676
-26.2714 -21.4400 -0.1909 0.8732
-24.4239 -21.4388 -0.1830 0.8781
-22.7206 -21.4364 -0.1759 0.8825
-19.6741 -21.4334 -0.1638 0.8901
-17.0049 -21.4295 -0.1540 0.8963
-4.6297 -7.3352 -0.0488 0.9659
-4.4267 -7.6058 -0.0495 0.9654
-3.2730 -8.1143 -0.0493 0.9656
-5.2362 -21.4237 -0.1242 0.9156
-2.8431 -21.4223 -0.1217 0.9172
-0.5178 -21.4157 -0.1206 0.9179
2.5770 -21.4591 -0.1217 0.9172
3.4252 -21.8577 -0.1246 0.9153
4.5179 -23.3201 -0.1337 0.9094
-42.3471 -21.4547 -1.3367 0.8270
-38.8129 -21.4496 -1.2487 0.8374
-28.2969 -21.4471 -0.9998 0.8676
-26.2721 -21.4406 -0.9548 0.8731
-24.4245 -21.4394 -0.9151 0.8781
-21.1447 -21.4364 -0.8478 0.8865
-19.6749 -21.4343 -0.8193 0.8901
-15.7832 -21.4276 -0.7494 0.8990
-14.6240 -21.4248 -0.7304 0.9014
-13.5265 -21.4314 -0.7136 0.9036
-4.3689 -7.5065 -0.2446 0.9658
-9.5530 -21.4308 -0.6607 0.9104
-3.2423 -8.0382 -0.2441 0.9659
-4.4273 -21.4233 -0.6160 0.9162
-3.6304 -21.4229 -0.6118 0.9167
-2.8431 -21.4225 -0.6085 0.9172
-2.0630 -21.4190 -0.6059 0.9175
-0.5179 -21.4163 -0.6032 0.9178
0.2516 -21.4149 -0.6030 0.9179
1.0215 -21.4122 -0.6036 0.9178
1.7914 -21.3804 -0.6041 0.9177
2.5770 -21.4593 -0.6086 0.9171
-40.2666 -20.4006 -2.2892 0.8346
-30.5151 -21.4475 -1.8916 0.8612
-28.2955 -21.4460 -1.8006 0.8674
-26.2728 -21.4411 -1.7198 0.8730
-22.7223 -21.4380 -1.5843 0.8824
-21.1455 -21.4371 -1.5271 0.8864
-19.6757 -21.4352 -1.4756 0.8900
-17.0063 -21.4314 -1.3875 0.8962
-13.5264 -21.4312 -1.2852 0.9035
-4.3126 -7.4097 -0.4348 0.9662
-11.4633 -21.4311 -1.2326 0.9072
-8.6438 -21.4294 -1.1719 0.9116
-7.7607 -21.4281 -1.1558 0.9128
-6.9009 -21.4282 -1.1417 0.9138
-6.0606 -21.4283 -1.1293 0.9147
-5.2363 -21.4239 -1.1185 0.9155
-3.6304 -21.4230 -1.1019 0.9167
-2.0630 -21.4195 -1.0913 0.9174
-0.5179 -21.4168 -1.0865 0.9178
3.4254 -21.8589 -1.1221 0.9152
11.1874 -48.3715 -2.5179 0.8197
-29.8920 -15.1445 -2.4570 0.8742
-27.4556 -19.2972 -2.4606 0.8741
-25.9986 -19.7052 -2.3919 0.8774
-21.1462 -21.4379 -2.2079 0.8862
-18.3019 -21.4355 -2.0666 0.8931
-17.0071 -21.4323 -2.0061 0.8961
-14.6252 -21.4265 -1.9021 0.9012
-12.4725 -21.4300 -1.8181 0.9053
-8.6435 -21.4286 -1.6942 0.9115
-7.7605 -21.4276 -1.6710 0.9126
-6.9007 -21.4277 -1.6506 0.9137
-6.0605 -21.4278 -1.6328 0.9146
-2.0631 -21.4201 -1.5778 0.9173
-0.5179 -21.4174 -1.5708 0.9177
1.0215 -21.4121 -1.5718 0.9176
1.7914 -21.3804 -1.5732 0.9175
2.5771 -21.4597 -1.5848 0.9170
3.4255 -21.8595 -1.6223 0.9151
7.7221 -33.3884 -2.5127 0.8716
-22.9254 -11.6149 -2.4673 0.9019
-22.0441 -13.2376 -2.4686 0.9018
-20.5113 -15.5462 -2.4709 0.9017
-19.9465 -16.2783 -2.4717 0.9017
-16.7495 -19.6174 -2.4765 0.9015
-15.6354 -19.7037 -2.4149 0.9039
-14.5223 -19.7159 -2.3509 0.9063
-13.6742 -20.0333 -2.3286 0.9071
-12.9519 -20.5209 -2.3297 0.9071
-12.2122 -20.9827 -2.3308 0.9071
-9.5519 -21.4283 -2.2524 0.9100
-8.6431 -21.4278 -2.2182 0.9113
-7.7604 -21.4272 -2.1879 0.9125
-6.9005 -21.4273 -2.1612 0.9135
-6.0604 -21.4274 -2.1378 0.9144
-4.4274 -21.4237 -2.1002 0.9158
-2.8431 -21.4228 -2.0747 0.9168
-2.0632 -21.4206 -2.0660 0.9172
-1.2888 -21.4193 -2.0601 0.9174
-0.5179 -21.4179 -2.0568 0.9175
1.0215 -21.4120 -2.0580 0.9175
4.5214 -23.3383 -2.2823 0.9089
-17.4452 -8.8384 -2.3230 0.9242
-17.8612 -10.7258 -2.4748 0.9195
-17.0535 -11.9860 -2.4760 0.9195
-15.1784 -14.3206 -2.4788 0.9194
-14.1202 -15.3829 -2.4804 0.9193
-13.5631 -15.8854 -2.4812 0.9193
-11.7882 -17.2703 -2.4838 0.9192
-9.2079 -18.8094 -2.4876 0.9191
-8.5299 -19.1356 -2.4886 0.9191
-7.8403 -19.4376 -2.4897 0.9190
-6.3436 -19.6982 -2.4582 0.9200
-5.5726 -19.7032 -2.4323 0.9208
-4.8167 -19.7076 -2.4099 0.9215
-1.8997 -19.7248 -2.3539 0.9233
-1.1872 -19.7317 -2.3481 0.9235
-0.4778 -19.7624 -2.3482 0.9235
0.2324 -19.7756 -2.3492 0.9234
4.7583 -20.5734 -2.5083 0.9185
-14.6514 -7.4230 -2.3272 0.9358
-14.3778 -7.9458 -2.3276 0.9358
-14.0858 -8.4586 -2.3280 0.9358
-14.3203 -10.0650 -2.4801 0.9317
-13.9526 -10.5751 -2.4806 0.9317
-13.1637 -11.5549 -2.4818 0.9317
-12.3066 -12.4764 -2.4830 0.9316
-11.8537 -12.9138 -2.4837 0.9316
-11.3855 -13.3349 -2.4844 0.9316
-10.9023 -13.7392 -2.4851 0.9316
-8.8334 -15.1775 -2.4882 0.9315
-7.7263 -15.7828 -2.4898 0.9315
-5.9900 -16.5394 -2.4924 0.9314
-5.3941 -16.7498 -2.4933 0.9314
-4.1809 -17.1061 -2.4951 0.9313
-2.9443 -17.3748 -2.4969 0.9313
-1.6907 -17.5544 -2.4988 0.9312
-1.0596 -17.6104 -2.4997 0.9312
1.4753 -17.6071 -2.5035 0.9311
3.9873 -17.2399 -2.5072 0.9310
-12.8373 -5.9345 -2.3299 0.9443
-12.3818 -6.8427 -2.3305 0.9443
-11.3342 -9.9490 -2.4845 0.9407
-10.9720 -10.3519 -2.4850 0.9407
-10.5955 -10.7417 -2.4856 0.9407
-9.8017 -11.4800 -2.4868 0.9406
-9.3854 -11.8275 -2.4874 0.9406
-8.9568 -12.1601 -2.4880 0.9406
-7.6031 -13.0634 -2.4900 0.9406
-4.1476 -7.7542 -1.4487 0.9650
-6.6495 -13.5832 -2.4914 0.9405
-6.1592 -13.8173 -2.4922 0.9405
-5.6606 -14.0338 -2.4929 0.9405
-5.1545 -14.2323 -2.4936 0.9405
-4.6414 -14.4126 -2.4944 0.9405
-2.5329 -14.9474 -2.4975 0.9404
-0.9114 -15.1477 -2.4999 0.9403
0.1785 -15.1839 -2.5016 0.9403
0.7238 -15.1726 -2.5024 0.9403
2.3539 -15.0212 -2.5048 0.9402
2.8928 -14.9317 -2.5056 0.9402
3.4283 -14.8229 -2.5064 0.9402
-10.6415 -6.3903 -2.3331 0.9507
-10.4066 -6.7693 -2.3335 0.9507
-9.8971 -7.5013 -2.3342 0.9507
-9.6230 -7.8533 -2.3346 0.9507
-9.3364 -8.1953 -2.3350 0.9507
-9.0378 -8.5270 -2.3355 0.9507
-8.4057 -9.1574 -2.3364 0.9507
-8.5969 -10.0689 -2.4885 0.9475
-8.2315 -10.3734 -2.4891 0.9475
-7.8554 -10.6647 -2.4896 0.9475
-7.4690 -10.9425 -2.4902 0.9475
-7.0729 -11.2063 -2.4908 0.9475
-4.1414 -7.7425 -1.6504 0.9649
-5.8308 -11.9109 -2.4926 0.9475
-5.4007 -12.1157 -2.4933 0.9474
-4.9633 -12.3050 -2.4939 0.9474
-4.5194 -12.4787 -2.4946 0.9474
-4.0694 -12.6363 -2.4953 0.9474
-3.6139 -12.7777 -2.4959 0.9474
-3.1536 -12.9028 -2.4966 0.9474
-2.2204 -13.1032 -2.4980 0.9473
-1.2748 -13.2362 -2.4994 0.9473
-0.7988 -13.2772 -2.5001 0.9473
-0.3216 -13.3011 -2.5008 0.9473
1.5882 -13.2250 -2.5036 0.9472
2.0627 -13.1631 -2.5043 0.9472
2.5349 -13.0842 -2.5050 0.9472
3.0040 -12.9883 -2.5057 0.9472
-10.6730 -4.9340 -2.4855 0.9531
-9.6080 -5.7697 -2.3690 0.9552
-8.8067 -6.6749 -2.3358 0.9558
-8.5626 -6.9879 -2.3362 0.9558
-8.0415 -7.5871 -2.3370 0.9558
-7.1827 -8.4126 -2.3382 0.9558
-6.2921 -9.9694 -2.4920 0.9529
-5.1868 -10.5953 -2.4936 0.9529
-4.8040 -10.7772 -2.4942 0.9529
-4.4149 -10.9453 -2.4947 0.9529
-2.8047 -11.4757 -2.4971 0.9528
-2.3913 -11.5718 -2.4977 0.9528
-1.5553 -11.7195 -2.4990 0.9528
-0.7104 -11.8068 -2.5002 0.9528
-0.2859 -11.8277 -2.5009 0.9528
0.1391 -11.8333 -2.5015 0.9528
0.5641 -11.8236 -2.5021 0.9528
0.9887 -11.7987 -2.5027 0.9527
1.8339 -11.7032 -2.5040 0.9527
2.2537 -11.6326 -2.5046 0.9527
2.6707 -11.5470 -2.5052 0.9527
-9.2638 -5.1195 -2.4876 0.9574
-8.2119 -5.7717 -2.3590 0.9596
-7.7054 -6.2884 -2.3375 0.9600
-6.9875 -7.0839 -2.3385 0.9599
-6.7296 -7.3315 -2.3389 0.9599
-6.4631 -7.5697 -2.3393 0.9599
-6.1881 -7.7983 -2.3397 0.9599
-5.9051 -8.0170 -2.3401 0.9599
-5.3163 -8.4233 -2.3410 0.9599
-5.0114 -8.6105 -2.3415 0.9599
-4.3821 -8.9516 -2.3424 0.9599
-3.9718 -9.8468 -2.4954 0.9573
-3.2561 -10.1108 -2.4965 0.9573
-2.5230 -10.3230 -2.4975 0.9573
-2.1511 -10.4092 -2.4981 0.9573
-1.7763 -10.4821 -2.4987 0.9573
-1.3989 -10.5415 -2.4992 0.9572
-0.6389 -10.6195 -2.5003 0.9572
-0.2572 -10.6380 -2.5009 0.9572
0.1251 -10.6428 -2.5015 0.9572
0.8891 -10.6111 -2.5026 0.9572
2.0267 -10.4610 -2.5043 0.9572
-8.7234 -4.0328 -2.4884 0.9611
-8.4131 -4.6494 -2.4888 0.9611
-8.0592 -5.2425 -2.4893 0.9611
-7.8668 -5.5292 -2.4896 0.9610
-6.3452 -6.4328 -2.3395 0.9634
-5.8688 -6.8737 -2.3402 0.9633
-5.6191 -7.0812 -2.3406 0.9633
-4.8272 -7.6483 -2.3417 0.9633
-4.1225 -7.7072 -2.2631 0.9645
-3.8472 -7.8588 -2.2655 0.9645
-3.6849 -8.2667 -2.3434 0.9633
-3.3863 -8.3953 -2.3439 0.9633
-3.0832 -8.5132 -2.3443 0.9633
-2.4651 -8.7159 -2.3452 0.9633
-1.5142 -8.9359 -2.3466 0.9632
-0.2335 -9.6564 -2.5009 0.9609
1.4970 -9.5525 -2.5035 0.9608
1.8394 -9.4945 -2.5040 0.9608
2.1797 -9.4242 -2.5045 0.9608
-7.8450 -3.9746 -2.4897 0.9641
-7.6977 -4.2542 -2.4899 0.9641
-7.3741 -4.7967 -2.4904 0.9641
-6.8177 -5.5639 -2.4912 0.9641
-6.5549 -5.7538 -2.4691 0.9644
-5.8051 -5.8854 -2.3403 0.9662
-5.1408 -6.4784 -2.3413 0.9662
-4.1627 -7.1522 -2.3427 0.9662
-3.9038 -7.2983 -2.3431 0.9662
-3.6397 -7.4351 -2.3435 0.9662
-3.3709 -7.5623 -2.3439 0.9662
-1.6774 -8.1169 -2.3464 0.9661
-0.7950 -8.2549 -2.3477 0.9661
-0.4982 -8.2796 -2.3481 0.9661
0.1038 -8.8355 -2.5014 0.9639
0.4212 -8.8277 -2.5019 0.9639
0.7381 -8.8086 -2.5024 0.9639
1.0542 -8.7780 -2.5028 0.9639
1.6822 -8.6829 -2.5038 0.9639
-6.9430 -4.1693 -2.4910 0.9667
-6.4562 -4.8934 -2.4917 0.9667
-6.2769 -5.1226 -2.4920 0.9667
-6.0896 -5.3453 -2.4923 0.9667
-5.6731 -5.7514 -2.4848 0.9668
-5.2912 -5.7645 -2.4067 0.9678
-4.9432 -5.7896 -2.3416 0.9686
-4.7327 -5.9642 -2.3419 0.9686
-4.2936 -6.2903 -2.3425 0.9686
-4.0655 -6.4414 -2.3429 0.9686
-3.8321 -6.5842 -2.3432 0.9686
-3.5937 -6.7186 -2.3436 0.9686
-3.1031 -6.9614 -2.3443 0.9686
-2.8515 -7.0695 -2.3447 0.9686
-2.5962 -7.1685 -2.3450 0.9686
-2.3375 -7.2583 -2.3454 0.9686
-1.8110 -7.4099 -2.3462 0.9686
-1.5440 -7.4714 -2.3466 0.9686
-1.0040 -7.5655 -2.3474 0.9686
-0.4585 -7.6207 -2.3482 0.9686
0.3876 -8.1248 -2.5019 0.9665
0.6794 -8.1070 -2.5023 0.9665
1.8345 -7.9317 -2.5040 0.9665
-6.8027 -3.1448 -2.4912 0.9689
-6.2842 -4.0878 -2.4920 0.9689
-6.1339 -4.3112 -2.4922 0.9689
-5.9757 -4.5292 -2.4924 0.9689
-5.8097 -4.7413 -2.4927 0.9689
-5.4556 -5.1472 -2.4932 0.9689
-5.2677 -5.3404 -2.4935 0.9689
-4.8720 -5.7061 -2.4941 0.9689
-3.9737 -5.8217 -2.3430 0.9707
-3.7626 -5.9615 -2.3433 0.9707
-3.3258 -6.2179 -2.3440 0.9707
-3.1008 -6.3342 -2.3443 0.9707
-2.8718 -6.4424 -2.3446 0.9707
-2.6389 -6.5424 -2.3450 0.9707
-1.9207 -6.7913 -2.3460 0.9707
-1.4287 -6.9139 -2.3468 0.9707
-0.9291 -7.0008 -2.3475 0.9707
-0.6771 -7.0308 -2.3479 0.9707
-0.1817 -7.5147 -2.4986 0.9688
0.3587 -7.5178 -2.5018 0.9688
1.4324 -7.3937 -2.5034 0.9688
-6.3251 -2.9240 -2.4919 0.9708
-5.9751 -3.5881 -2.4924 0.9708
-5.8429 -3.8007 -2.4926 0.9708
-5.4016 -4.4083 -2.4933 0.9708
-4.3365 -5.4650 -2.4949 0.9708
-4.1380 -5.6179 -2.4952 0.9708
-3.6354 -5.7600 -2.4358 0.9715
-3.3573 -5.7683 -2.3867 0.9720
-2.8826 -5.8886 -2.3446 0.9725
-2.6697 -5.9892 -2.3449 0.9725
-2.4532 -6.0820 -2.3452 0.9725
-2.2335 -6.1671 -2.3456 0.9725
-1.5579 -6.3743 -2.3466 0.9725
-1.0966 -6.4715 -2.3473 0.9725
-0.4083 -6.7861 -2.4312 0.9715
-0.1690 -6.9918 -2.5010 0.9707
0.0822 -6.9944 -2.5014 0.9707
0.5843 -6.9725 -2.5021 0.9707
1.0836 -6.9146 -2.5029 0.9707
1.3314 -6.8722 -2.5033 0.9707
1.5776 -6.8210 -2.5036 0.9707
-5.9039 -2.7293 -2.4925 0.9725
-5.6934 -3.1464 -2.4928 0.9725
-5.5771 -3.3491 -2.4930 0.9725
-5.3231 -3.7414 -2.4934 0.9725
-5.1858 -3.9305 -2.4936 0.9725
-5.0417 -4.1145 -2.4938 0.9725
-4.7342 -4.4666 -2.4943 0.9725
-4.4022 -4.7959 -2.4948 0.9725
-4.2275 -4.9514 -2.4950 0.9725
-3.8621 -5.2433 -2.4956 0.9725
-3.4764 -5.5082 -2.4961 0.9725
-3.2768 -5.6302 -2.4964 0.9725
-3.0729 -5.7450 -2.4967 0.9725
-2.8181 -5.7568 -2.4563 0.9729
-2.0928 -5.7785 -2.3552 0.9740
-1.2446 -6.0230 -2.3569 0.9740
-0.8345 -6.2881 -2.4308 0.9732
-0.6240 -6.4791 -2.4944 0.9725
-0.3919 -6.5138 -2.5007 0.9724
0.0767 -6.5269 -2.5014 0.9724
0.5452 -6.5064 -2.5021 0.9724
1.0111 -6.4522 -2.5028 0.9724
1.2424 -6.4126 -2.5031 0.9724
1.4721 -6.3647 -2.5035 0.9724
-5.5292 -2.5561 -2.4931 0.9740
-5.4342 -2.7532 -2.4932 0.9740
-5.3321 -2.9467 -2.4934 0.9740
-4.9852 -3.5039 -2.4939 0.9740
-4.7216 -3.8533 -2.4943 0.9740
-4.2809 -4.3399 -2.4949 0.9740
-3.9590 -4.6369 -2.4954 0.9740
-3.7904 -4.7766 -2.4957 0.9740
-3.6167 -4.9102 -2.4959 0.9740
-3.4384 -5.0374 -2.4962 0.9740
-2.4845 -5.5738 -2.4976 0.9740
-1.8622 -5.7827 -2.4864 0.9741
-1.4429 -5.9039 -2.4874 0.9741
-1.2359 -5.9806 -2.4995 0.9740
-0.3669 -6.0991 -2.5007 0.9739
-0.1477 -6.1092 -2.5011 0.9739
0.0718 -6.1113 -2.5014 0.9739
0.2913 -6.1056 -2.5017 0.9739
0.9467 -6.0412 -2.5027 0.9739
1.3783 -5.9592 -2.5033 0.9739
-4.9060 -2.9461 -2.4940 0.9753
-4.5616 -3.4574 -2.4945 0.9753
-4.4348 -3.6193 -2.4947 0.9753
-4.3023 -3.7765 -2.4949 0.9753
-3.7185 -4.3552 -2.4958 0.9753
-3.5600 -4.4863 -2.4960 0.9753
-3.3969 -4.6117 -2.4962 0.9753
-3.2294 -4.7312 -2.4965 0.9753
-3.0577 -4.8447 -2.4968 0.9753
-2.8820 -4.9519 -2.4970 0.9753
-2.5197 -5.1471 -2.4975 0.9753
-2.3334 -5.2348 -2.4978 0.9753
-2.1442 -5.3159 -2.4981 0.9753
-1.3615 -5.5707 -2.4993 0.9753
-0.9583 -5.6554 -2.4999 0.9753
-0.7547 -5.6869 -2.5002 0.9753
-0.5500 -5.7110 -2.5005 0.9753
-0.3446 -5.7278 -2.5008 0.9753
0.2736 -5.7337 -2.5017 0.9753
0.4794 -5.7209 -2.5020 0.9753
0.8890 -5.6731 -2.5026 0.9753
1.2943 -5.5960 -2.5032 0.9752
-4.8907 -2.2609 -2.4940 0.9765
-4.7162 -2.6064 -2.4943 0.9765
-3.5015 -4.1010 -2.4961 0.9765
-3.3522 -4.2245 -2.4963 0.9765
-3.1986 -4.3426 -2.4965 0.9765
-2.7137 -4.6628 -2.4973 0.9765
-2.3725 -4.8465 -2.4978 0.9765
-2.1971 -4.9291 -2.4980 0.9765
-1.8381 -5.0752 -2.4986 0.9765
-1.4693 -5.1952 -2.4991 0.9765
-1.0929 -5.2884 -2.4997 0.9765
-0.9023 -5.3249 -2.4999 0.9765
-0.7106 -5.3545 -2.5002 0.9765
-0.5179 -5.3771 -2.5005 0.9765
0.0635 -5.4035 -2.5014 0.9765
0.4513 -5.3863 -2.5020 0.9765
0.8370 -5.3412 -2.5025 0.9765
1.0284 -5.3083 -2.5028 0.9764
-4.6159 -2.1339 -2.4944 0.9776
-4.2636 -2.7734 -2.4950 0.9776
-3.9413 -3.2166 -2.4954 0.9776
-3.8236 -3.3563 -2.4956 0.9776
-3.7008 -3.4917 -2.4958 0.9776
-2.7172 -4.3052 -2.4973 0.9776
-2.5611 -4.4004 -2.4975 0.9776
-2.2390 -4.5738 -2.4980 0.9776
-1.7346 -4.7895 -2.4987 0.9776
-1.5616 -4.8492 -2.4990 0.9776
-1.3866 -4.9027 -2.4992 0.9776
-1.2097 -4.9499 -2.4995 0.9776
-1.0313 -4.9906 -2.4998 0.9776
-0.8515 -5.0250 -2.5000 0.9775
-0.6705 -5.0529 -2.5003 0.9775
-0.4887 -5.0743 -2.5006 0.9775
-0.1232 -5.0973 -2.5011 0.9775
0.0599 -5.0990 -2.5014 0.9775
0.4259 -5.0827 -2.5019 0.9775
0.7898 -5.0401 -2.5025 0.9775
0.9704 -5.0090 -2.5027 0.9775
-4.2900 -2.1735 -2.4949 0.9786
-3.9354 -2.7660 -2.4955 0.9786
-3.6157 -3.1739 -2.4959 0.9786
-3.4997 -3.3019 -2.4961 0.9786
-3.3791 -3.4257 -2.4963 0.9786
-2.9917 -3.7701 -2.4968 0.9785
-2.8546 -3.8755 -2.4971 0.9785
-2.5695 -4.0711 -2.4975 0.9785
-2.2710 -4.2458 -2.4979 0.9785
-2.1172 -4.3250 -2.4981 0.9785
-1.8017 -4.4667 -2.4986 0.9785
-1.3112 -4.6359 -2.4993 0.9785
-0.9752 -4.7190 -2.4998 0.9785
-0.8051 -4.7514 -2.5001 0.9785
-0.6341 -4.7778 -2.5003 0.9785
0.0567 -4.8213 -2.5014 0.9785
0.2298 -4.8167 -2.5016 0.9785
0.5751 -4.7887 -2.5021 0.9785
0.7468 -4.7655 -2.5024 0.9785
0.9175 -4.7360 -2.5026 0.9785
-4.1352 -1.9116 -2.4952 0.9794
-3.8195 -2.4846 -2.4956 0.9794
-3.7280 -2.6202 -2.4958 0.9794
-3.6317 -2.7526 -2.4959 0.9794
-3.3152 -3.1279 -2.4964 0.9794
-3.2009 -3.2451 -2.4965 0.9794
-2.9602 -3.4670 -2.4969 0.9794
-2.5707 -3.7662 -2.4975 0.9794
-2.1512 -4.0218 -2.4981 0.9794
-2.0055 -4.0969 -2.4983 0.9794
-1.8573 -4.1666 -2.4985 0.9794
-1.5537 -4.2900 -2.4990 0.9794
-1.3987 -4.3434 -2.4992 0.9794
-1.0835 -4.4334 -2.4997 0.9794
-0.7626 -4.5006 -2.5002 0.9794
-0.6005 -4.5256 -2.5004 0.9794
-0.1104 -4.5652 -2.5011 0.9794
0.7073 -4.5137 -2.5023 0.9794
-3.9233 -1.8137 -2.4955 0.9802
-3.7833 -2.0908 -2.4957 0.9802
-3.6238 -2.3572 -2.4959 0.9802
-3.5370 -2.4860 -2.4960 0.9802
-3.4456 -2.6116 -2.4962 0.9802
-3.1453 -2.9675 -2.4966 0.9802
-3.0369 -3.0788 -2.4968 0.9802
-2.1764 -3.7395 -2.4981 0.9802
-1.4739 -4.0699 -2.4991 0.9802
-0.7235 -4.2696 -2.5002 0.9802
-0.5697 -4.2932 -2.5004 0.9802
-0.2601 -4.3239 -2.5009 0.9802
0.2065 -4.3280 -2.5016 0.9802
0.5168 -4.3028 -2.5020 0.9802
0.6710 -4.2818 -2.5023 0.9802
