ply
format ascii 1.0
element vertex 497
property float32 x
property float32 y
property float32 z
property float32 I
end_header
47.1586 3.3142 8.3358 0.8253
46.1804 15.4273 8.5852 0.8206
44.5097 20.4409 8.6363 0.8196
3.0993 7.6807 1.4604 0.9669
47.0625 -0.0898 7.2097 0.8266
47.1395 5.0250 7.2624 0.8254
47.1925 8.5033 7.3461 0.8236
47.2475 12.0814 7.4709 0.8209
47.2760 13.9213 7.5499 0.8192
45.4247 15.1748 7.3368 0.8238
3.0990 7.6799 1.2687 0.9670
49.0477 -5.4178 6.4259 0.8195
49.2495 -1.8694 6.4179 0.8197
49.2845 -0.0942 6.4179 0.8197
49.2070 5.2454 6.4441 0.8190
47.3029 13.9295 6.4213 0.8196
45.7527 15.2844 6.2816 0.8232
45.6645 15.2549 5.1699 0.8239
3.0984 7.6784 0.8891 0.9672
3.0981 7.6776 0.7009 0.9673
45.7469 15.2825 2.9909 0.8242
45.7450 15.2818 1.9018 0.8244
3.0975 7.6761 0.3264 0.9674
45.0012 -3.3353 0.7622 0.8348
3.0972 7.6754 0.1398 0.9674
44.9995 -3.3351 -0.2540 0.8349
45.2751 15.1249 -0.2688 0.8262
3.0969 7.6746 -0.0466 0.9674
38.2609 -1.4525 -1.0781 0.8579
38.2727 -0.0730 -1.0777 0.8580
38.2846 1.3070 -1.0786 0.8579
38.3204 5.4875 -1.0900 0.8565
38.3450 8.3457 -1.1050 0.8547
38.3576 9.8082 -1.1148 0.8535
38.3968 14.3846 -1.1546 0.8487
38.4106 15.9904 -1.1715 0.8466
38.3399 17.6074 -1.1880 0.8447
38.4871 24.9228 -1.2911 0.8324
38.5420 31.3441 -1.3988 0.8197
38.2355 -4.2235 -1.9509 0.8572
38.2831 1.3070 -1.9426 0.8578
38.3069 4.0835 -1.9537 0.8570
38.3311 6.9066 -1.9752 0.8556
38.3435 8.3453 -1.9901 0.8546
38.3560 9.8078 -2.0078 0.8534
38.3952 14.3840 -2.0793 0.8486
38.4089 15.9898 -2.1099 0.8465
38.3382 17.6067 -2.1396 0.8445
38.4378 19.3586 -2.1826 0.8417
38.4853 24.9216 -2.3252 0.8322
32.3945 24.4596 -2.0586 0.8500
32.1086 34.8911 -2.4047 0.8270
29.4560 37.0413 -2.4001 0.8273
16.9690 46.8500 -2.5270 0.8191
32.7891 -1.2447 -2.4059 0.8767
32.8132 -0.0626 -2.4059 0.8767
32.6239 3.4777 -2.4056 0.8767
32.4739 4.6503 -2.4053 0.8767
32.2808 5.8164 -2.4050 0.8767
30.2365 12.5875 -2.4014 0.8769
29.5799 14.8974 -2.4284 0.8756
29.5588 16.2475 -2.4731 0.8735
27.7496 20.9525 -2.5495 0.8698
26.1400 22.8711 -2.5467 0.8700
25.2842 23.7841 -2.5452 0.8700
24.3961 24.6646 -2.5437 0.8701
23.4768 25.5114 -2.5421 0.8702
22.5278 26.3235 -2.5404 0.8703
21.5503 27.0998 -2.5387 0.8703
20.5458 27.8394 -2.5370 0.8704
19.5157 28.5414 -2.5352 0.8705
17.3843 29.8288 -2.5314 0.8707
16.2860 30.4128 -2.5295 0.8708
15.1681 30.9559 -2.5276 0.8709
26.3707 -2.9129 -2.5471 0.8989
26.4602 -1.9611 -2.5473 0.8989
26.5146 -1.0065 -2.5474 0.8989
26.5340 -0.0506 -2.5474 0.8989
26.4675 1.8601 -2.5473 0.8989
26.3818 2.8123 -2.5471 0.8989
25.6921 6.5696 -2.5459 0.8989
25.4343 7.4896 -2.5455 0.8989
25.1429 8.3994 -2.5450 0.8990
24.4614 10.1833 -2.5438 0.8990
24.0722 11.0550 -2.5431 0.8990
22.7177 13.5752 -2.5407 0.8991
22.2061 14.3798 -2.5399 0.8991
21.0969 15.9294 -2.5379 0.8992
20.5010 16.6722 -2.5369 0.8993
19.2304 18.0894 -2.5347 0.8993
18.5576 18.7618 -2.5335 0.8994
17.8610 19.4089 -2.5323 0.8994
17.1417 20.0299 -2.5310 0.8995
14.8571 21.7282 -2.5270 0.8996
14.0568 22.2371 -2.5256 0.8997
13.2391 22.7163 -2.5242 0.8997
12.4049 23.1652 -2.5228 0.8998
10.6920 23.9698 -2.5198 0.8999
21.2384 -2.3460 -2.5382 0.9175
21.3102 -1.5794 -2.5383 0.9175
21.3695 -0.0408 -2.5384 0.9175
21.3162 1.4981 -2.5383 0.9175
21.2473 2.2649 -2.5382 0.9175
21.1506 3.0288 -2.5380 0.9175
20.6938 5.2915 -2.5372 0.9176
20.2529 6.7658 -2.5364 0.9176
19.7057 8.2036 -2.5355 0.9176
19.3932 8.9062 -2.5350 0.9176
19.0553 9.5969 -2.5344 0.9176
18.6925 10.2746 -2.5337 0.9177
18.3053 10.9385 -2.5331 0.9177
17.4600 12.2211 -2.5316 0.9177
16.5240 13.4380 -2.5299 0.9178
16.0236 14.0198 -2.5291 0.9178
15.5025 14.5827 -2.5282 0.9178
14.4012 15.6493 -2.5262 0.9179
13.8225 16.1515 -2.5252 0.9179
13.2262 16.6322 -2.5242 0.9180
11.9839 17.5264 -2.5220 0.9180
10.6812 18.3273 -2.5198 0.9181
9.3250 19.0310 -2.5174 0.9182
17.7629 -1.9621 -2.5321 0.9303
17.8228 -1.3209 -2.5322 0.9303
17.8722 -0.0341 -2.5323 0.9303
17.8277 1.2529 -2.5322 0.9303
17.7703 1.8943 -2.5321 0.9303
17.4584 3.7998 -2.5316 0.9304
17.1357 5.0459 -2.5310 0.9304
16.9405 5.6592 -2.5307 0.9304
15.6380 8.5957 -2.5284 0.9304
14.6089 10.2255 -2.5266 0.9305
14.2273 10.7424 -2.5259 0.9305
13.4093 11.7324 -2.5245 0.9305
12.9740 12.2042 -2.5238 0.9306
12.5220 12.6597 -2.5230 0.9306
8.9439 15.3463 -2.5167 0.9308
7.8094 15.9380 -2.5148 0.9308
7.2272 16.2024 -2.5137 0.9308
3.0950 7.6701 -1.1719 0.9671
15.3337 -0.5821 -2.5279 0.9397
15.3448 -0.0293 -2.5279 0.9397
15.3358 0.5236 -2.5279 0.9397
15.3067 1.0757 -2.5278 0.9397
15.2575 1.6264 -2.5277 0.9397
15.1883 2.1750 -2.5276 0.9397
14.9902 3.2626 -2.5273 0.9397
14.8616 3.8002 -2.5271 0.9397
14.7135 4.3327 -2.5268 0.9397
14.5462 4.8594 -2.5265 0.9397
14.3598 5.3796 -2.5262 0.9397
14.1547 5.8926 -2.5258 0.9397
13.9311 6.3978 -2.5254 0.9397
13.4295 7.3818 -2.5246 0.9398
10.7568 10.8751 -2.5199 0.9399
9.5124 11.9620 -2.5177 0.9399
8.6210 12.6081 -2.5162 0.9400
7.6858 13.1876 -2.5145 0.9400
7.2033 13.4514 -2.5137 0.9400
6.7117 13.6976 -2.5128 0.9400
13.3943 -0.9927 -2.5245 0.9468
13.4216 -0.5095 -2.5245 0.9468
13.4235 0.4583 -2.5245 0.9468
13.3550 1.4236 -2.5244 0.9468
13.1213 2.8558 -2.5240 0.9468
12.7332 4.2537 -2.5233 0.9468
12.5702 4.7092 -2.5231 0.9468
12.3909 5.1583 -2.5227 0.9468
12.1953 5.6006 -2.5224 0.9468
11.9839 6.0355 -2.5220 0.9469
11.7568 6.4623 -2.5216 0.9469
11.5144 6.8805 -2.5212 0.9469
10.9850 7.6890 -2.5203 0.9469
10.6988 8.0782 -2.5198 0.9469
9.4191 9.5228 -2.5176 0.9469
9.0677 9.8535 -2.5170 0.9470
8.7046 10.1713 -2.5163 0.9470
7.1456 11.3039 -2.5136 0.9470
5.9250 11.0644 -2.3591 0.9502
4.7710 -0.5270 -1.0146 0.9806
4.6454 -0.3443 -0.9846 0.9811
4.6478 -0.1764 -0.9832 0.9812
4.6492 -0.0089 -0.9828 0.9812
11.8631 1.2646 -2.5218 0.9524
11.8095 1.6911 -2.5217 0.9524
11.7402 2.1154 -2.5216 0.9524
11.6557 2.5368 -2.5215 0.9524
11.5560 2.9549 -2.5213 0.9524
11.4411 3.3691 -2.5211 0.9524
10.8340 4.9755 -2.5200 0.9524
10.6463 5.3619 -2.5197 0.9524
10.4448 5.7411 -2.5194 0.9524
10.2296 6.1128 -2.5190 0.9524
9.5056 7.1772 -2.5177 0.9525
9.2391 7.5137 -2.5173 0.9525
8.9607 7.8401 -2.5168 0.9525
8.6707 8.1562 -2.5163 0.9525
8.3694 8.4616 -2.5157 0.9525
8.0574 8.7557 -2.5152 0.9525
7.0608 9.5673 -2.5135 0.9525
5.9635 9.4339 -2.3591 0.9554
5.6183 9.6401 -2.3585 0.9554
2.8243 7.7976 -1.7530 0.9667
4.2330 -0.4676 -1.0009 0.9827
4.1751 -0.3094 -0.9839 0.9829
4.1802 0.1427 -0.9830 0.9830
4.2284 0.2972 -0.9962 0.9827
10.6608 1.1364 -2.5197 0.9569
10.6126 1.5197 -2.5197 0.9569
10.3851 2.6555 -2.5193 0.9569
10.1653 3.3959 -2.5189 0.9569
10.0355 3.7596 -2.5186 0.9569
9.7367 4.4715 -2.5181 0.9569
9.5682 4.8189 -2.5178 0.9569
9.1939 5.4939 -2.5172 0.9569
8.5437 6.4509 -2.5160 0.9570
8.0542 7.0470 -2.5152 0.9570
7.7937 7.3313 -2.5147 0.9570
6.6545 8.3681 -2.5128 0.9570
5.6645 8.2843 -2.3586 0.9596
5.3612 8.4811 -2.3581 0.9596
4.7344 8.8410 -2.3570 0.9596
3.8872 -0.0074 -1.0065 0.9841
3.9054 0.2745 -1.0137 0.9840
3.9954 0.4259 -1.0403 0.9835
5.2673 0.7543 -1.3777 0.9783
9.5704 1.7244 -2.5178 0.9606
9.5015 2.0680 -2.5177 0.9606
9.3269 2.7465 -2.5174 0.9606
9.2212 3.0805 -2.5172 0.9606
9.1035 3.4104 -2.5170 0.9606
8.8326 4.0563 -2.5165 0.9606
8.5157 4.6808 -2.5160 0.9606
8.1545 5.2805 -2.5154 0.9607
7.7509 5.8524 -2.5147 0.9607
7.5339 6.1269 -2.5143 0.9607
7.0709 6.6514 -2.5135 0.9607
6.3086 7.3716 -2.5121 0.9607
6.0378 7.5926 -2.5117 0.9607
5.1398 7.5168 -2.3577 0.9631
4.8646 7.6955 -2.3572 0.9631
4.5832 7.8642 -2.3567 0.9631
4.0033 8.1703 -2.3557 0.9631
3.0363 7.5247 -2.1009 0.9670
3.6607 -0.4044 -1.0426 0.9848
3.6651 -0.2716 -1.0404 0.9848
3.6694 0.1253 -1.0394 0.9849
3.6674 0.2577 -1.0408 0.9848
3.7480 0.3995 -1.0670 0.9845
8.7995 1.2601 -2.5165 0.9637
8.7481 1.5763 -2.5164 0.9637
8.6853 1.8903 -2.5163 0.9637
8.6111 2.2019 -2.5162 0.9637
8.4291 2.8159 -2.5158 0.9637
8.3215 3.1175 -2.5157 0.9637
8.0741 3.7080 -2.5152 0.9637
7.7846 4.2789 -2.5147 0.9637
6.8874 5.6012 -2.5132 0.9638
6.0078 6.5284 -2.5116 0.9638
5.7678 6.7395 -2.5112 0.9638
5.1839 6.5188 -2.3578 0.9660
4.9448 6.7001 -2.3574 0.9660
4.6993 6.8727 -2.3569 0.9660
4.4479 7.0362 -2.3565 0.9660
3.9281 7.3354 -2.3556 0.9660
3.6606 7.4707 -2.3551 0.9660
3.0238 7.4936 -2.2876 0.9670
2.7720 7.6533 -2.3043 0.9667
3.5047 -0.3871 -1.0845 0.9854
3.5126 -0.1333 -1.0812 0.9854
7.9900 1.7390 -2.5151 0.9664
7.9218 2.0256 -2.5150 0.9664
7.8432 2.3096 -2.5148 0.9664
7.4280 3.4113 -2.5141 0.9664
7.1618 3.9366 -2.5136 0.9664
7.0146 4.1916 -2.5134 0.9664
6.8582 4.4411 -2.5131 0.9664
6.5191 4.9223 -2.5125 0.9664
6.3368 5.1533 -2.5122 0.9664
6.1462 5.3776 -2.5119 0.9664
5.9476 5.5947 -2.5115 0.9664
5.7413 5.8045 -2.5112 0.9664
5.3069 6.2010 -2.5104 0.9664
4.0927 6.4744 -2.3559 0.9685
3.6146 6.7499 -2.3551 0.9685
2.8636 7.0965 -2.3537 0.9685
3.3599 -0.3711 -1.1237 0.9859
3.3708 -0.0064 -1.1205 0.9859
3.3693 0.1150 -1.1206 0.9859
3.3654 0.2365 -1.1214 0.9859
3.3967 0.3621 -1.1355 0.9857
3.4471 0.4936 -1.1575 0.9854
7.4436 1.3412 -2.5141 0.9686
7.3901 1.6084 -2.5140 0.9686
7.3271 1.8736 -2.5139 0.9686
7.1724 2.3961 -2.5137 0.9686
7.0810 2.6527 -2.5135 0.9686
6.8705 3.1553 -2.5131 0.9686
6.6244 3.6412 -2.5127 0.9686
6.1910 4.3334 -2.5119 0.9686
6.0302 4.5531 -2.5117 0.9687
5.6853 4.9743 -2.5111 0.9687
5.1134 5.5565 -2.5101 0.9687
4.9092 5.7363 -2.5097 0.9687
3.7861 5.9894 -2.3554 0.9706
3.3439 6.2445 -2.3546 0.9706
2.8846 6.4669 -2.3538 0.9706
3.2367 -0.3575 -1.1645 0.9863
3.2342 -0.2397 -1.1598 0.9863
3.2366 -0.1229 -1.1583 0.9863
3.2449 0.2280 -1.1633 0.9863
3.2552 0.3470 -1.1707 0.9862
6.8669 1.4945 -2.5131 0.9706
6.8083 1.7409 -2.5130 0.9706
6.7408 1.9850 -2.5129 0.9706
6.6646 2.2264 -2.5128 0.9706
6.5796 2.4649 -2.5126 0.9706
6.4862 2.7002 -2.5125 0.9706
6.2740 3.1598 -2.5121 0.9706
6.1556 3.3835 -2.5119 0.9706
5.7529 4.0268 -2.5112 0.9706
5.2832 4.6225 -2.5104 0.9706
5.1126 4.8092 -2.5101 0.9706
4.7518 5.1636 -2.5094 0.9706
4.5621 5.3308 -2.5091 0.9706
4.3665 5.4909 -2.5088 0.9706
3.9798 5.3926 -2.3968 0.9719
3.7174 5.4367 -2.3552 0.9724
3.3153 5.6885 -2.3545 0.9724
2.8962 5.9107 -2.3538 0.9724
2.4622 6.1019 -2.3530 0.9724
3.1384 -0.3467 -1.2100 0.9866
3.1420 -0.2329 -1.2074 0.9866
3.1462 -0.0060 -1.2057 0.9866
3.1441 0.1073 -1.2056 0.9866
3.1469 0.2212 -1.2089 0.9866
3.1441 0.3352 -1.2117 0.9865
3.1629 0.4529 -1.2244 0.9864
6.4059 1.3942 -2.5123 0.9723
6.2883 1.8517 -2.5121 0.9723
5.9558 2.7352 -2.5115 0.9723
5.7425 3.1565 -2.5112 0.9723
5.6246 3.3610 -2.5110 0.9723
5.4994 3.5612 -2.5107 0.9723
5.3670 3.7566 -2.5105 0.9723
5.2277 3.9472 -2.5103 0.9723
5.0816 4.1325 -2.5100 0.9723
4.7698 4.4868 -2.5095 0.9723
4.6045 4.6552 -2.5092 0.9723
4.4333 4.8175 -2.5089 0.9723
4.2563 4.9734 -2.5086 0.9723
3.8862 5.2657 -2.5079 0.9724
3.2829 5.1933 -2.3545 0.9740
3.0932 5.3075 -2.3541 0.9740
2.5014 5.6078 -2.3531 0.9740
2.2974 5.6934 -2.3528 0.9740
2.0905 5.7716 -2.3524 0.9740
3.0774 -0.0059 -1.2595 0.9868
3.0799 0.1051 -1.2612 0.9868
3.0844 0.3288 -1.2695 0.9867
3.0931 0.4429 -1.2788 0.9866
3.4169 0.6157 -1.4210 0.9851
5.8863 1.7334 -2.5114 0.9738
5.8198 1.9442 -2.5113 0.9738
5.7457 2.1525 -2.5112 0.9738
5.6641 2.3580 -2.5110 0.9738
5.5751 2.5604 -2.5109 0.9738
5.3756 2.9548 -2.5105 0.9738
5.1480 3.3336 -2.5101 0.9738
4.8937 3.6950 -2.5097 0.9738
4.7570 3.8686 -2.5094 0.9738
4.6141 4.0370 -2.5092 0.9739
4.4652 4.2002 -2.5089 0.9739
3.8138 4.7959 -2.5078 0.9739
3.6381 4.9296 -2.5075 0.9739
2.7146 5.0693 -2.3535 0.9755
1.9572 5.4036 -2.3522 0.9755
3.0547 -0.3374 -1.3394 0.9867
3.0536 -0.1159 -1.3318 0.9868
3.0540 -0.0058 -1.3310 0.9868
3.0574 0.3259 -1.3400 0.9867
3.1082 0.5601 -1.3764 0.9863
5.6297 1.2253 -2.5110 0.9752
5.3945 2.0209 -2.5106 0.9752
5.3179 2.2138 -2.5104 0.9752
5.1440 2.5907 -2.5101 0.9752
5.0470 2.7742 -2.5100 0.9752
4.8334 3.1299 -2.5096 0.9752
4.7171 3.3018 -2.5094 0.9752
3.8968 4.2345 -2.5079 0.9752
3.7413 4.3716 -2.5077 0.9752
3.5810 4.5031 -2.5074 0.9752
3.4160 4.6286 -2.5071 0.9752
3.2466 4.7481 -2.5068 0.9752
3.0731 4.8614 -2.5065 0.9752
2.8353 4.8649 -2.4540 0.9757
2.3755 4.8481 -2.3529 0.9767
2.0197 5.0053 -2.3523 0.9767
1.8379 5.0741 -2.3520 0.9767
3.0301 -0.3347 -1.4111 0.9867
3.0307 -0.2246 -1.4067 0.9867
3.0313 -0.0058 -1.4032 0.9867
3.0316 0.1035 -1.4041 0.9867
3.0299 0.3230 -1.4105 0.9867
3.0279 0.4336 -1.4159 0.9866
5.2993 1.1534 -2.5104 0.9764
5.2541 1.3435 -2.5103 0.9764
5.0779 1.9023 -2.5100 0.9764
5.0058 2.0839 -2.5099 0.9764
4.9272 2.2628 -2.5097 0.9764
4.8422 2.4387 -2.5096 0.9764
4.6534 2.7807 -2.5093 0.9764
4.4404 3.1081 -2.5089 0.9764
4.2044 3.4192 -2.5085 0.9764
3.8099 3.8518 -2.5078 0.9764
3.6683 3.9862 -2.5075 0.9764
3.2158 4.3574 -2.5068 0.9764
2.7260 4.6773 -2.5059 0.9764
2.3297 4.7545 -2.4508 0.9769
2.1132 4.7374 -2.4011 0.9774
1.9096 4.7323 -2.3621 0.9778
1.7302 4.7770 -2.3518 0.9779
3.0059 -0.1141 -1.4755 0.9867
3.0063 -0.0057 -1.4747 0.9867
3.0092 0.2115 -1.4797 0.9866
3.0081 0.3207 -1.4839 0.9866
4.9997 1.0882 -2.5099 0.9775
4.9571 1.2675 -2.5098 0.9775
4.8526 1.6211 -2.5096 0.9775
4.7229 1.9661 -2.5094 0.9775
4.6487 2.1349 -2.5093 0.9775
4.4824 2.4638 -2.5090 0.9775
4.3904 2.6235 -2.5088 0.9775
4.0809 3.0812 -2.5083 0.9775
3.9669 3.2260 -2.5081 0.9775
3.8478 3.3666 -2.5079 0.9775
3.7237 3.5027 -2.5076 0.9775
3.4611 3.7611 -2.5072 0.9775
3.3231 3.8829 -2.5069 0.9775
3.1807 3.9997 -2.5067 0.9775
2.9802 -0.1131 -1.5472 0.9867
2.9806 -0.0057 -1.5463 0.9867
2.9839 0.1019 -1.5489 0.9866
2.9868 0.2099 -1.5533 0.9866
2.9872 0.4278 -1.5655 0.9865
3.0195 0.5441 -1.5917 0.9863
4.7265 1.0287 -2.5094 0.9784
4.5874 1.5325 -2.5092 0.9784
4.5291 1.6967 -2.5090 0.9784
4.3189 2.1752 -2.5087 0.9784
4.1506 2.4802 -2.5084 0.9784
4.0583 2.6280 -2.5082 0.9784
3.9607 2.7723 -2.5081 0.9785
3.6376 3.1827 -2.5075 0.9785
3.5204 3.3115 -2.5073 0.9785
2.8686 3.8869 -2.5062 0.9785
2.7264 3.9874 -2.5059 0.9785
2.2796 4.2569 -2.5051 0.9785
1.9667 4.4091 -2.5046 0.9785
2.9601 -0.2194 -1.6257 0.9866
2.9575 -0.1123 -1.6210 0.9866
2.9588 -0.0056 -1.6205 0.9866
2.9619 0.1011 -1.6232 0.9866
2.9658 0.3162 -1.6336 0.9865
2.9664 0.4248 -1.6413 0.9864
2.9920 0.5391 -1.6651 0.9862
3.1078 0.6764 -1.7420 0.9856
4.3941 1.2939 -2.5088 0.9793
4.1620 1.9114 -2.5084 0.9793
4.0902 2.0600 -2.5083 0.9793
3.9308 2.3489 -2.5080 0.9793
3.8434 2.4888 -2.5079 0.9793
3.4451 3.0143 -2.5072 0.9793
3.3340 3.1362 -2.5070 0.9793
3.2186 3.2540 -2.5068 0.9793
2.9754 3.4767 -2.5063 0.9793
2.8480 3.5813 -2.5061 0.9793
2.5822 3.7764 -2.5057 0.9794
1.8627 4.1759 -2.5044 0.9794
1.7109 4.2399 -2.5041 0.9794
2.9393 -0.2178 -1.7017 0.9865
2.9368 -0.1115 -1.6967 0.9865
2.9381 -0.0056 -1.6963 0.9865
2.9411 0.1004 -1.6990 0.9865
2.9434 0.2069 -1.7036 0.9865
2.9446 0.3139 -1.7097 0.9864
2.9643 0.5341 -1.7390 0.9862
3.0869 0.6719 -1.8240 0.9855
4.0106 1.6696 -2.5081 0.9801
3.9477 1.8129 -2.5080 0.9801
3.8065 2.0923 -2.5078 0.9801
3.7284 2.2280 -2.5077 0.9801
3.6456 2.3607 -2.5075 0.9801
2.9395 3.1943 -2.5063 0.9801
2.7015 3.3971 -2.5059 0.9802
2.5771 3.4919 -2.5056 0.9802
2.4494 3.5822 -2.5054 0.9802
2.1847 3.7486 -2.5050 0.9802
