ply
format ascii 1.0
element vertex 636
property float32 x
property float32 y
property float32 z
property float32 I
end_header
-4.8537 31.0444 5.5405 0.8802
-5.6110 29.0861 5.2232 0.8866
-6.7886 25.3637 4.6297 0.8988
-7.7873 25.4447 4.6920 0.8976
-9.8868 25.6465 4.8466 0.8944
-10.9964 25.7627 4.9391 0.8925
-15.4898 23.6011 4.9777 0.8917
-15.2534 21.5350 4.6532 0.8984
-37.7745 15.3907 7.1923 0.8473
-1.6379 33.6286 5.1578 0.8726
-3.3440 27.8222 4.2929 0.8928
-4.3018 27.5140 4.2662 0.8934
-5.4769 28.3906 4.4295 0.8896
-7.6046 24.8475 3.9808 0.9002
-9.6342 24.9911 4.1031 0.8973
-11.8310 25.2026 4.2651 0.8935
-13.0032 25.3236 4.3610 0.8912
-14.7725 22.5082 4.1244 0.8968
-16.2769 21.3334 4.1108 0.8971
-41.1192 20.2625 7.0225 0.8307
-39.7153 12.9829 6.4010 0.8444
-0.4469 33.8796 4.4122 0.8723
-3.2640 27.1570 3.5619 0.8955
-4.3557 27.8586 3.6718 0.8925
-5.9717 25.9667 3.4697 0.8981
-6.4919 24.2551 3.2697 0.9037
-8.4077 24.3496 3.3545 0.9013
-10.4429 24.4658 3.4640 0.8983
-11.5270 24.5548 3.5323 0.8964
-12.6617 24.6585 3.6096 0.8942
-14.2827 23.5418 3.5857 0.8949
-14.1226 21.5179 3.3517 0.9014
-15.1349 21.3678 3.4098 0.8998
-41.9898 22.5767 6.2082 0.8251
-41.7663 20.5815 6.0633 0.8288
-42.5215 17.3248 5.9792 0.8309
-44.3310 14.4918 6.0734 0.8285
-0.4440 33.6629 3.6151 0.8733
-8.2249 23.8204 2.7061 0.9036
-10.2087 23.9171 2.7924 0.9007
-12.3410 24.0340 2.9012 0.8970
-13.4908 24.1266 2.9683 0.8948
-13.7918 21.0138 2.6991 0.9038
-15.1350 21.3679 2.8118 0.9000
-16.3166 21.3855 2.8885 0.8974
-17.3027 21.0831 2.9287 0.8961
-36.9948 29.3519 5.0710 0.8270
-36.8701 27.1791 4.9186 0.8317
-36.9466 25.2633 4.8062 0.8352
-40.4187 25.5821 5.1365 0.8249
-45.7409 16.7706 5.2315 0.8220
3.0563 32.6847 2.7789 0.8765
-0.4629 35.0925 2.9709 0.8686
-3.4623 28.8067 2.4561 0.8901
-5.9739 25.9763 2.2564 0.8985
-7.2402 23.6569 2.0943 0.9055
-8.1733 23.6709 2.1199 0.9044
-9.1307 23.6852 2.1488 0.9031
-10.1159 23.6999 2.1814 0.9017
-11.1327 23.7151 2.2177 0.9002
-13.4574 22.1814 2.1963 0.9011
-14.0130 21.3510 2.1619 0.9026
-16.3170 21.3859 2.2771 0.8976
-35.8581 26.4331 3.7711 0.8362
-46.6790 17.1146 4.2087 0.8191
-2.7397 32.4841 2.0215 0.8775
-3.6315 30.2143 1.8871 0.8852
-7.0800 36.7008 2.3178 0.8609
-7.9943 23.1525 1.5189 0.9065
-11.1212 23.6905 1.6229 0.9004
-12.1854 23.7308 1.6542 0.8986
-13.2215 23.6451 1.6799 0.8971
-13.4585 22.1832 1.6090 0.9012
-14.0130 21.3509 1.5837 0.9027
-17.5914 21.4348 1.7195 0.8948
-35.3166 28.0204 2.7956 0.8347
-35.3461 26.0557 2.7230 0.8386
-35.4854 24.2642 2.6657 0.8417
3.0557 32.6776 1.2941 0.8769
-5.2369 33.4950 1.3368 0.8731
-6.3281 23.6433 0.9651 0.9067
-8.8904 20.8286 0.8930 0.9133
-11.7776 21.0629 0.9516 0.9079
-14.0130 21.3509 1.0070 0.9028
-15.1107 21.3335 1.0308 0.9006
-17.5848 21.4268 1.0930 0.8950
-20.1133 22.8076 1.1991 0.8854
-30.5883 26.0892 1.5853 0.8513
-36.9622 23.3944 1.7249 0.8394
-41.3270 24.1478 1.8874 0.8256
0.1449 6.4993 0.1098 0.9743
-0.0857 6.4996 0.1098 0.9743
-5.2350 33.4831 0.5725 0.8732
-5.9772 25.9905 0.4505 0.8988
-6.3282 23.6435 0.4134 0.9067
-7.0244 20.3435 0.3635 0.9175
-7.8472 20.3557 0.3685 0.9164
-8.6939 20.3684 0.3741 0.9152
-11.4120 20.4090 0.3950 0.9107
-15.1353 21.3683 0.4423 0.9005
-20.0886 22.7795 0.5130 0.8856
-23.0103 22.6331 0.5452 0.8789
-29.0005 23.0092 0.6253 0.8623
-38.0758 24.0992 0.7612 0.8350
-42.7764 22.9996 0.8204 0.8234
3.0550 32.6706 -0.1847 0.8770
0.1449 6.4993 -0.0366 0.9743
-0.5553 6.5839 -0.0372 0.9739
-0.7913 6.5842 -0.0373 0.9738
-1.2703 6.5849 -0.0378 0.9735
-1.5144 6.5852 -0.0380 0.9733
-1.7626 6.5855 -0.0384 0.9731
-2.0155 6.5858 -0.0388 0.9728
-2.5391 6.5865 -0.0397 0.9722
-2.8114 6.5868 -0.0403 0.9718
-3.0922 6.5872 -0.0410 0.9713
-3.3826 6.5876 -0.0417 0.9708
-3.9971 6.5884 -0.0434 0.9696
-4.3243 6.5888 -0.0444 0.9690
-4.6671 6.5892 -0.0455 0.9682
-5.3347 6.5003 -0.0473 0.9669
-5.8068 6.5847 -0.0494 0.9655
-6.2362 6.5853 -0.0511 0.9644
-7.1893 6.5865 -0.0549 0.9617
-8.9379 6.5887 -0.0625 0.9566
-9.6369 6.5896 -0.0657 0.9544
-10.3005 6.5196 -0.0686 0.9524
-16.0193 6.5269 -0.0974 0.9331
-18.0282 6.6100 -0.1081 0.9261
0.1449 6.4992 -0.1830 0.9743
-0.0857 6.4995 -0.1830 0.9743
-0.7913 6.5842 -0.1867 0.9738
-1.0294 6.5845 -0.1877 0.9737
-1.2702 6.5848 -0.1888 0.9735
-1.5144 6.5851 -0.1903 0.9733
-1.7625 6.5854 -0.1920 0.9731
-2.5390 6.5864 -0.1988 0.9721
-2.8114 6.5867 -0.2017 0.9717
-3.6836 6.5879 -0.2125 0.9702
-6.2360 6.5851 -0.2554 0.9644
-6.6954 6.5857 -0.2644 0.9631
-7.1891 6.5863 -0.2745 0.9617
-8.3030 6.5878 -0.2984 0.9585
-8.9377 6.5886 -0.3127 0.9565
-10.3003 6.5194 -0.3432 0.9524
-12.2856 6.6057 -0.3928 0.9457
-13.4078 6.6071 -0.4209 0.9419
-14.7048 6.6088 -0.4539 0.9375
-16.0187 6.5266 -0.4871 0.9331
-18.0275 6.6097 -0.5407 0.9260
2.8489 49.2648 -2.5026 0.8207
-0.0857 6.4994 -0.3296 0.9743
-0.3206 6.5835 -0.3343 0.9739
-1.2702 6.5847 -0.3401 0.9735
-2.0155 6.5856 -0.3493 0.9728
-2.5390 6.5863 -0.3580 0.9721
-2.8114 6.5866 -0.3632 0.9717
-3.3824 6.5874 -0.3755 0.9708
-3.6836 6.5877 -0.3828 0.9702
-4.6670 6.5890 -0.4095 0.9682
-6.2359 6.5850 -0.4599 0.9643
-6.6952 6.5856 -0.4763 0.9631
-9.6364 6.5893 -0.5920 0.9543
-10.3000 6.5192 -0.6182 0.9524
-11.3025 6.6043 -0.6639 0.9489
-14.7043 6.6085 -0.8176 0.9375
-16.0181 6.5264 -0.8772 0.9331
-18.0267 6.6094 -0.9737 0.9260
-20.2269 6.6122 -1.0792 0.9183
4.1256 31.8750 -2.3566 0.8791
-0.7913 6.5840 -0.4862 0.9738
-1.0294 6.5843 -0.4886 0.9736
-1.2702 6.5846 -0.4917 0.9735
-2.0155 6.5855 -0.5050 0.9728
-2.2740 6.5859 -0.5109 0.9724
-2.8113 6.5865 -0.5251 0.9717
-3.0921 6.5869 -0.5335 0.9712
-3.3824 6.5873 -0.5429 0.9707
-3.9969 6.5880 -0.5650 0.9696
-4.6669 6.5889 -0.5920 0.9681
-5.0111 6.5679 -0.6057 0.9674
-5.8064 6.5843 -0.6437 0.9654
-7.7225 6.5867 -0.7442 0.9601
-9.6362 6.5891 -0.8559 0.9543
-11.3022 6.6041 -0.9598 0.9489
-12.2849 6.6053 -1.0227 0.9456
-18.0260 6.6092 -1.4077 0.9259
-20.2259 6.6119 -1.5602 0.9182
3.1520 24.3526 -2.3575 0.9060
1.4208 24.5692 -2.3627 0.9058
0.1449 6.4989 -0.6241 0.9742
-0.0857 6.4992 -0.6240 0.9742
-1.0294 6.5842 -0.6398 0.9736
-1.5143 6.5848 -0.6487 0.9732
-1.7625 6.5851 -0.6544 0.9730
-2.0154 6.5854 -0.6612 0.9727
-2.2740 6.5858 -0.6689 0.9724
-2.8113 6.5864 -0.6875 0.9716
-3.3823 6.5872 -0.7109 0.9707
-4.3240 6.5883 -0.7566 0.9688
-4.6668 6.5888 -0.7751 0.9681
-5.3343 6.4998 -0.8072 0.9668
-5.8063 6.5842 -0.8428 0.9653
-6.2357 6.5847 -0.8706 0.9642
-6.6949 6.5853 -0.9016 0.9630
-7.1887 6.5859 -0.9360 0.9616
-7.7223 6.5866 -0.9744 0.9600
-8.3024 6.5873 -1.0175 0.9583
-8.9370 6.5881 -1.0659 0.9564
-11.3019 6.6039 -1.2567 0.9488
-13.4065 6.6065 -1.4349 0.9417
-14.7032 6.6081 -1.5476 0.9373
-18.0252 6.6089 -1.8432 0.9258
2.5514 19.7119 -2.3610 0.9231
1.1466 19.8271 -2.3591 0.9231
0.1449 6.4988 -0.7721 0.9742
-0.0857 6.4991 -0.7721 0.9742
-1.0294 6.5841 -0.7916 0.9735
-1.7624 6.5850 -0.8097 0.9729
-2.5389 6.5860 -0.8384 0.9720
-2.8112 6.5863 -0.8506 0.9716
-3.0920 6.5867 -0.8643 0.9711
-3.3823 6.5870 -0.8796 0.9706
-3.6834 6.5874 -0.8965 0.9701
-3.9967 6.5878 -0.9153 0.9694
-4.3239 6.5882 -0.9361 0.9688
-5.0118 6.5689 -0.9815 0.9673
-5.3342 6.4997 -0.9988 0.9667
-5.8062 6.5841 -1.0428 0.9653
-7.1885 6.5858 -1.1581 0.9615
-7.7222 6.5864 -1.2056 0.9599
-11.3015 6.6037 -1.5548 0.9486
-12.2841 6.6049 -1.6567 0.9454
-13.4061 6.6063 -1.7753 0.9416
2.1366 16.5074 -2.3584 0.9350
1.5493 16.5678 -2.3577 0.9350
0.1449 6.4987 -0.9210 0.9741
-0.0857 6.4990 -0.9209 0.9741
-0.3206 6.5831 -0.9338 0.9737
-0.7913 6.5837 -0.9395 0.9736
-1.0294 6.5840 -0.9442 0.9734
-1.2701 6.5843 -0.9501 0.9733
-1.5143 6.5846 -0.9573 0.9731
-2.0154 6.5852 -0.9758 0.9726
-2.8112 6.5862 -1.0146 0.9715
-3.9967 6.5877 -1.0917 0.9694
-4.3238 6.5881 -1.1165 0.9687
-4.6666 6.5885 -1.1440 0.9679
-5.3341 6.4996 -1.1913 0.9666
-5.8061 6.5839 -1.2438 0.9652
-6.2354 6.5845 -1.2849 0.9640
-6.6947 6.5850 -1.3305 0.9628
-7.1884 6.5856 -1.3813 0.9614
-8.9366 6.5878 -1.5731 0.9561
-15.3673 5.6343 -2.3191 0.9360
-15.5551 5.0849 -2.3188 0.9360
1.3315 14.2390 -2.3560 0.9437
0.1449 6.4986 -1.0708 0.9740
-0.0857 6.4989 -1.0707 0.9740
-0.5552 6.5833 -1.0884 0.9736
-1.0293 6.5839 -1.0978 0.9733
-1.2701 6.5842 -1.1047 0.9732
-1.5143 6.5845 -1.1130 0.9730
-1.7624 6.5848 -1.1229 0.9727
-2.0153 6.5851 -1.1345 0.9725
-2.2738 6.5854 -1.1477 0.9722
-2.5388 6.5858 -1.1627 0.9718
-3.9966 6.5876 -1.2693 0.9692
-4.6665 6.5884 -1.3300 0.9678
-5.0126 6.5698 -1.3613 0.9671
-5.8060 6.5838 -1.4461 0.9650
-6.6945 6.5849 -1.5469 0.9626
-7.7218 6.5861 -1.6719 0.9597
-8.3018 6.5868 -1.7458 0.9579
-9.6352 6.5884 -1.9229 0.9538
-10.2986 6.5183 -2.0079 0.9518
-11.3009 6.6033 -2.1562 0.9483
-12.6560 6.2366 -2.3243 0.9444
-13.0619 5.3219 -2.3236 0.9444
-13.2402 4.8545 -2.3232 0.9444
-14.2722 4.6656 -2.4736 0.9409
1.6084 12.4263 -2.3551 0.9503
0.1449 6.4985 -1.2218 0.9739
-0.3206 6.5829 -1.2388 0.9735
-1.5142 6.5844 -1.2699 0.9729
-2.0153 6.5850 -1.2944 0.9724
-2.5388 6.5857 -1.3266 0.9717
-3.0918 6.5864 -1.3676 0.9708
-3.3821 6.5867 -1.3917 0.9703
-4.3237 6.5879 -1.4811 0.9684
-4.6665 6.5883 -1.5175 0.9677
-5.0129 6.5703 -1.5533 0.9669
-5.3339 6.4993 -1.5803 0.9664
-6.6944 6.5848 -1.7650 0.9625
-7.1881 6.5853 -1.8323 0.9611
-7.7216 6.5860 -1.9076 0.9595
-8.3016 6.5867 -1.9919 0.9578
-9.6349 6.5883 -2.1939 0.9536
-10.4679 6.6255 -2.3286 0.9508
-12.3743 4.5370 -2.4773 0.9478
1.4295 11.0443 -2.3540 0.9555
1.0366 11.0847 -2.3533 0.9555
0.6425 11.1104 -2.3524 0.9555
0.1449 6.4984 -1.3740 0.9738
-0.0857 6.4987 -1.3738 0.9738
-0.3206 6.5828 -1.3931 0.9734
-0.7912 6.5834 -1.4016 0.9733
-1.2701 6.5840 -1.4174 0.9730
-2.0153 6.5849 -1.4556 0.9722
-2.2738 6.5852 -1.4726 0.9719
-3.0918 6.5862 -1.5380 0.9707
-3.6831 6.5870 -1.5952 0.9696
-3.9965 6.5874 -1.6286 0.9690
-5.3338 6.4992 -1.7772 0.9662
-6.2350 6.5841 -1.9167 0.9636
-8.8787 6.5451 -2.3316 0.9559
-9.1036 6.2249 -2.3312 0.9559
-9.3170 5.8970 -2.3308 0.9559
-9.9043 4.8806 -2.3340 0.9559
-10.8660 4.4272 -2.4802 0.9532
-11.0149 4.0386 -2.4799 0.9532
-11.1501 3.6450 -2.4796 0.9532
1.2852 9.9295 -2.3531 0.9597
0.9319 9.9656 -2.3524 0.9597
0.1449 6.4983 -1.5276 0.9736
-0.5552 6.5830 -1.5526 0.9732
-0.7912 6.5833 -1.5583 0.9731
-1.2701 6.5839 -1.5759 0.9728
-1.5142 6.5842 -1.5878 0.9726
-1.7623 6.5845 -1.6020 0.9724
-2.0152 6.5848 -1.6184 0.9721
-2.2738 6.5851 -1.6373 0.9718
-2.8110 6.5858 -1.6829 0.9710
-3.3820 6.5865 -1.7401 0.9700
-3.9964 6.5872 -1.8108 0.9688
-5.3337 6.4991 -1.9759 0.9660
-5.8057 6.5834 -2.0629 0.9646
-6.2349 6.5839 -2.1311 0.9634
-6.6941 6.5845 -2.2068 0.9622
-7.3244 6.7102 -2.3346 0.9600
-7.9914 5.8910 -2.3333 0.9600
-8.1939 5.6029 -2.3329 0.9600
-8.3862 5.3079 -2.3326 0.9600
-8.5679 5.0063 -2.3322 0.9600
-9.4762 4.6697 -2.4829 0.9575
-9.6347 4.3301 -2.4826 0.9575
-9.7811 3.9852 -2.4823 0.9575
-10.0371 3.2811 -2.4818 0.9575
1.1662 9.0099 -2.3523 0.9632
0.8456 9.0429 -2.3516 0.9632
0.5242 9.0644 -2.3509 0.9632
-0.0857 6.4985 -1.6827 0.9735
-1.0293 6.5835 -1.7253 0.9728
-1.5142 6.5841 -1.7492 0.9725
-1.7623 6.5844 -1.7648 0.9722
-2.2737 6.5850 -1.8037 0.9716
-2.5387 6.5854 -1.8274 0.9713
-2.8110 6.5857 -1.8540 0.9708
-3.0917 6.5860 -1.8838 0.9704
-3.3820 6.5864 -1.9170 0.9699
-4.3234 6.5875 -2.0401 0.9680
-5.3336 6.4989 -2.1768 0.9659
-5.8055 6.5833 -2.2726 0.9644
-6.2057 6.5530 -2.3368 0.9634
-6.6521 6.0943 -2.3359 0.9634
-6.8629 5.8535 -2.3355 0.9634
-7.2583 5.3505 -2.3347 0.9634
-7.4423 5.0890 -2.3344 0.9634
-7.6171 4.8211 -2.3340 0.9634
-8.4526 4.5447 -2.4848 0.9611
-8.6075 4.2416 -2.4845 0.9611
-8.8846 3.6199 -2.4840 0.9611
-9.0066 3.3022 -2.4838 0.9611
-9.1172 2.9804 -2.4836 0.9611
1.0663 8.2379 -2.3516 0.9661
0.1449 6.4981 -1.8400 0.9733
-0.3206 6.5825 -1.8656 0.9730
-0.7912 6.5831 -1.8770 0.9728
-1.2700 6.5837 -1.8981 0.9725
-1.7622 6.5843 -1.9296 0.9721
-2.0152 6.5846 -1.9494 0.9718
-2.2737 6.5849 -1.9721 0.9715
-2.5386 6.5852 -1.9979 0.9711
-3.6829 6.5866 -2.1363 0.9691
-4.3234 6.5874 -2.2306 0.9678
-4.6661 6.5878 -2.2854 0.9670
-5.4629 6.1947 -2.3382 0.9662
-5.8863 5.7898 -2.3374 0.9663
-6.0869 5.5765 -2.3370 0.9663
-6.8950 4.7147 -2.3646 0.9659
-7.5836 4.4312 -2.4865 0.9641
-7.7351 4.1590 -2.4862 0.9641
-8.0088 3.5994 -2.4857 0.9642
-8.1306 3.3127 -2.4855 0.9642
-8.3437 2.7276 -2.4850 0.9642
0.7114 7.6086 -2.3504 0.9685
0.4411 7.6274 -2.3499 0.9685
-0.0857 6.4983 -1.9989 0.9732
-0.3206 6.5824 -2.0270 0.9728
-0.5552 6.5827 -2.0319 0.9727
-0.7912 6.5830 -2.0393 0.9726
-1.2700 6.5836 -2.0623 0.9723
-1.5141 6.5839 -2.0779 0.9721
-2.0151 6.5845 -2.1179 0.9716
-2.2736 6.5848 -2.1427 0.9713
-2.5386 6.5851 -2.1707 0.9709
-2.8109 6.5855 -2.2023 0.9705
-3.0916 6.5858 -2.2377 0.9700
-3.7154 6.6446 -2.3416 0.9686
-4.1756 6.3621 -2.3407 0.9687
-4.3978 6.2089 -2.3402 0.9687
-4.6144 6.0479 -2.3398 0.9687
-5.0298 5.7036 -2.3390 0.9687
-5.2281 5.5207 -2.3386 0.9687
-5.6046 5.1346 -2.3379 0.9687
-6.3779 4.7015 -2.4371 0.9674
-6.8348 4.3260 -2.4879 0.9667
-7.2534 3.5743 -2.4871 0.9667
-7.3749 3.3145 -2.4869 0.9667
-7.6834 2.5117 -2.4863 0.9667
0.6582 7.0391 -2.3501 0.9706
0.4081 7.0566 -2.3496 0.9706
0.1449 6.4979 -2.1604 0.9730
-0.5552 6.5826 -2.1958 0.9725
-1.0292 6.5832 -2.2148 0.9723
-1.2700 6.5835 -2.2287 0.9721
-1.7622 6.5841 -2.2656 0.9717
-2.5363 6.5791 -2.3438 0.9707
-2.9952 6.3804 -2.3429 0.9707
-3.2190 6.2690 -2.3425 0.9707
-3.4387 6.1497 -2.3421 0.9707
-3.6540 6.0228 -2.3417 0.9707
-4.0704 5.7467 -2.3409 0.9708
-4.8392 5.1100 -2.3394 0.9708
-5.0166 4.9344 -2.3390 0.9708
-5.5183 4.7067 -2.4109 0.9699
-5.8677 4.6555 -2.4898 0.9689
-6.0284 4.4439 -2.4895 0.9689
-6.3268 4.0044 -2.4889 0.9689
-6.4642 3.7771 -2.4887 0.9689
-6.8269 3.0682 -2.4880 0.9689
-6.9309 2.8239 -2.4878 0.9689
-7.1127 2.3251 -2.4874 0.9689
0.8437 6.5180 -2.3503 0.9725
0.6118 6.5426 -2.3499 0.9725
0.3793 6.5589 -2.3494 0.9725
-0.0866 6.5668 -2.3485 0.9725
-1.6957 6.3357 -2.3454 0.9725
-2.1398 6.1973 -2.3446 0.9725
-2.5729 6.0278 -2.3438 0.9725
-3.1970 5.7175 -2.3425 0.9726
-3.5931 5.4747 -2.3418 0.9726
-5.4559 4.3288 -2.4906 0.9708
-5.7478 3.9302 -2.4900 0.9709
-6.0107 3.5122 -2.4895 0.9709
-6.1309 3.2965 -2.4893 0.9709
-6.4449 2.6259 -2.4887 0.9709
-6.6140 2.1621 -2.4884 0.9709
0.1366 6.1281 -2.3490 0.9741
-0.0808 6.1280 -2.3485 0.9741
-0.2981 6.1201 -2.3481 0.9741
-0.9460 6.0506 -2.3469 0.9741
-1.1598 6.0122 -2.3465 0.9741
-1.3721 5.9663 -2.3461 0.9741
-1.7909 5.8520 -2.3453 0.9741
-2.9838 5.3363 -2.3430 0.9742
-3.1708 5.2263 -2.3426 0.9742
-3.3536 5.1098 -2.3422 0.9742
-3.7064 4.8578 -2.3416 0.9742
-3.8812 4.7293 -2.3445 0.9741
-4.7946 4.3925 -2.4919 0.9725
-4.9468 4.2192 -2.4916 0.9725
-5.0928 4.0406 -2.4913 0.9725
-5.2323 3.8570 -2.4910 0.9725
-5.3653 3.6687 -2.4908 0.9725
-5.4914 3.4757 -2.4905 0.9725
-5.7230 3.0771 -2.4901 0.9725
-5.8281 2.8720 -2.4899 0.9726
-6.1740 2.0183 -2.4892 0.9726
-0.0757 5.7378 -2.3486 0.9755
-0.4821 5.7161 -2.3478 0.9755
-0.8858 5.6657 -2.3470 0.9755
-1.2848 5.5868 -2.3462 0.9755
-1.4819 5.5368 -2.3459 0.9755
-2.0607 5.3455 -2.3447 0.9755
-2.7943 4.9974 -2.3433 0.9756
-2.9694 4.8944 -2.3430 0.9756
-3.5900 4.7053 -2.4223 0.9747
-4.0294 4.5692 -2.4933 0.9740
-4.9004 3.6124 -2.4917 0.9740
-5.0250 3.4360 -2.4914 0.9740
-5.1432 3.2553 -2.4912 0.9740
-5.2550 3.0706 -2.4910 0.9740
-5.5502 2.4944 -2.4904 0.9740
-5.6348 2.2958 -2.4903 0.9740
-5.7827 1.8904 -2.4900 0.9740
0.5020 5.3680 -2.3497 0.9767
0.3112 5.3816 -2.3493 0.9768
-0.2621 5.3817 -2.3482 0.9768
-0.6427 5.3479 -2.3475 0.9768
-1.0199 5.2872 -2.3467 0.9768
-1.5751 5.1466 -2.3457 0.9768
-1.7564 5.0867 -2.3453 0.9768
-1.9354 5.0205 -2.3450 0.9768
-2.1120 4.9480 -2.3446 0.9768
-2.4567 4.7845 -2.3440 0.9768
-2.8572 4.7095 -2.4007 0.9763
-3.0849 4.7003 -2.4502 0.9758
-3.4718 4.5503 -2.4944 0.9753
-3.6306 4.4238 -2.4941 0.9753
-3.7847 4.2917 -2.4938 0.9753
-3.9341 4.1543 -2.4935 0.9753
-4.2178 3.8641 -2.4930 0.9753
-4.6030 3.3932 -2.4922 0.9754
-4.8312 3.0578 -2.4918 0.9754
-4.9362 2.8843 -2.4916 0.9754
-5.1275 2.5267 -2.4912 0.9754
-5.2930 2.1566 -2.4909 0.9754
-5.3659 1.9674 -2.4908 0.9754
-5.4320 1.7757 -2.4906 0.9754
0.6517 5.0348 -2.3500 0.9779
0.1131 5.0733 -2.3489 0.9779
-0.0669 5.0733 -2.3486 0.9779
-0.6052 5.0353 -2.3475 0.9779
-0.7833 5.0099 -2.3472 0.9779
-1.3105 4.8963 -2.3462 0.9779
-1.6538 4.7897 -2.3455 0.9779
-1.8237 4.7309 -2.3469 0.9779
-2.2103 4.7085 -2.4077 0.9773
-2.6243 4.6932 -2.4890 0.9766
-2.7966 4.6096 -2.4957 0.9765
-2.9580 4.5070 -2.4954 0.9765
-3.1156 4.3987 -2.4951 0.9765
-3.2693 4.2849 -2.4948 0.9765
-3.4188 4.1658 -2.4945 0.9765
-3.5640 4.0414 -2.4942 0.9765
-4.7416 2.5494 -2.4920 0.9765
-4.8287 2.3795 -2.4918 0.9766
-4.9098 2.2066 -2.4917 0.9766
-4.9847 2.0310 -2.4915 0.9766
0.2765 4.7813 -2.3492 0.9789
0.1067 4.7874 -2.3489 0.9789
-0.4023 4.7696 -2.3479 0.9789
-1.0844 4.7152 -2.3733 0.9787
-1.2610 4.7116 -2.3925 0.9785
-1.4407 4.7074 -2.4148 0.9783
-1.6237 4.7026 -2.4404 0.9781
-1.8108 4.6972 -2.4694 0.9778
-2.1631 4.6079 -2.4969 0.9776
-2.4837 4.4419 -2.4963 0.9776
-2.6394 4.3504 -2.4960 0.9776
-2.7917 4.2536 -2.4957 0.9776
-3.0855 4.0441 -2.4952 0.9776
-3.2267 3.9317 -2.4949 0.9776
-3.7487 3.4344 -2.4939 0.9776
-3.8678 3.2990 -2.4937 0.9776
-3.9821 3.1594 -2.4934 0.9776
-4.0913 3.0160 -2.4932 0.9776
-4.2941 2.7179 -2.4928 0.9776
-4.3875 2.5637 -2.4927 0.9776
-4.5576 2.2459 -2.4923 0.9776
-4.6342 2.0827 -2.4922 0.9776
-4.7696 1.7488 -2.4919 0.9776
0.6084 4.7000 -2.4586 0.9789
0.4397 4.7016 -2.4497 0.9789
0.1049 4.7032 -2.4405 0.9790
-0.0620 4.7032 -2.4401 0.9790
-0.3965 4.7017 -2.4478 0.9790
-0.5649 4.7001 -2.4559 0.9789
-0.9058 4.6954 -2.4808 0.9787
-1.2453 4.6527 -2.4987 0.9785
-1.4093 4.6051 -2.4984 0.9785
-1.7318 4.4924 -2.4978 0.9785
-1.8898 4.4277 -2.4975 0.9785
-2.1984 4.2815 -2.4969 0.9785
-2.3487 4.2004 -2.4966 0.9785
-2.4959 4.1139 -2.4963 0.9786
-2.6399 4.0224 -2.4960 0.9786
-2.7807 3.9258 -2.4958 0.9786
-3.1810 3.6071 -2.4950 0.9786
-3.4280 3.3719 -2.4945 0.9786
-3.6578 3.1198 -2.4941 0.9786
-3.7658 2.9878 -2.4939 0.9786
-4.1493 2.4245 -2.4931 0.9786
-4.2324 2.2757 -2.4930 0.9786
-4.3102 2.1240 -2.4928 0.9786
-4.3825 1.9697 -2.4927 0.9786
-4.5107 1.6538 -2.4924 0.9786
-4.5663 1.4928 -2.4923 0.9786
0.5864 4.5308 -2.5022 0.9794
0.4253 4.5482 -2.5019 0.9794
0.1018 4.5658 -2.5013 0.9794
-0.0602 4.5659 -2.5010 0.9794
-0.2221 4.5603 -2.5007 0.9794
-0.3836 4.5490 -2.5004 0.9794
-0.5447 4.5320 -2.5001 0.9794
-0.7050 4.5093 -2.4997 0.9794
-1.0226 4.4469 -2.4991 0.9794
-1.1796 4.4073 -2.4988 0.9794
-1.4887 4.3115 -2.4982 0.9794
-1.9376 4.1275 -2.4974 0.9794
-2.2249 3.9789 -2.4968 0.9794
-2.6341 3.7189 -2.4960 0.9794
-2.8905 3.5221 -2.4955 0.9794
-3.1324 3.3077 -2.4951 0.9794
-3.3584 3.0768 -2.4946 0.9794
-3.4651 2.9555 -2.4944 0.9794
-3.5675 2.8305 -2.4942 0.9794
-3.8472 2.4350 -2.4937 0.9794
-4.0096 2.1559 -2.4934 0.9795
-4.0833 2.0122 -2.4932 0.9795
-4.1519 1.8660 -2.4931 0.9795
-4.3260 1.4142 -2.4928 0.9795
0.4035 4.3146 -2.5019 0.9802
-0.0571 4.3315 -2.5010 0.9802
-0.5167 4.2994 -2.5001 0.9802
-0.6688 4.2778 -2.4998 0.9802
-0.8200 4.2509 -2.4995 0.9802
-1.5564 4.0372 -2.4981 0.9802
-1.6984 3.9791 -2.4978 0.9802
-2.1108 3.7749 -2.4970 0.9802
-2.2431 3.6973 -2.4968 0.9802
-2.3726 3.6151 -2.4965 0.9802
-2.4991 3.5283 -2.4963 0.9802
-2.6224 3.4371 -2.4961 0.9802
-2.7424 3.3416 -2.4958 0.9802
-2.9719 3.1382 -2.4954 0.9802
-3.0811 3.0306 -2.4952 0.9802
-3.2876 2.8041 -2.4948 0.9802
-3.5662 2.4385 -2.4942 0.9802
-3.6502 2.3103 -2.4941 0.9802
-3.7296 2.1792 -2.4939 0.9802
-3.8043 2.0455 -2.4938 0.9802
-3.8743 1.9092 -2.4936 0.9802
-3.9393 1.7704 -2.4935 0.9802
-4.0546 1.4866 -2.4933 0.9803
