ply
format ascii 1.0
element vertex 206
property float32 x
property float32 y
property float32 z
property float32 I
end_header
31.5136 -29.6996 5.6390 0.8397
31.4922 -27.5767 5.4510 0.8446
32.6172 -24.5946 5.3196 0.8481
33.4306 -23.3412 5.3095 0.8483
31.5602 -37.0666 5.2276 0.8221
31.5097 -31.9500 4.8186 0.8348
31.4875 -29.6750 4.6461 0.8402
31.4670 -27.5546 4.4914 0.8451
35.7144 -24.9358 4.6774 0.8393
39.2565 -25.3261 5.0166 0.8287
31.5058 -34.3735 3.9472 0.8293
31.4616 -29.6505 3.6597 0.8407
31.4236 -25.5488 3.4284 0.8500
32.6171 -24.5945 3.4581 0.8488
39.2565 -25.3260 3.9547 0.8290
31.5019 -36.9981 3.0133 0.8230
31.4560 -31.8955 2.7779 0.8357
31.4170 -27.5108 2.5895 0.8459
31.3995 -25.5292 2.5094 0.8503
32.6170 -24.5945 2.5331 0.8490
39.2564 -25.3260 2.8969 0.8293
44.8196 -20.3764 3.0530 0.8209
31.4729 -36.9641 1.9143 0.8234
31.4502 -34.3128 1.8353 0.8300
31.4294 -31.8685 1.7649 0.8360
31.3754 -25.5096 1.5945 0.8505
32.6170 -24.5945 1.6108 0.8491
35.7142 -24.9357 1.7175 0.8400
31.4226 -34.2827 0.7855 0.8302
31.4028 -31.8415 0.7554 0.8362
31.3674 -27.4674 0.7043 0.8464
31.3514 -25.4901 0.6825 0.8507
35.7142 -24.9357 0.7358 0.8401
39.2562 -25.3259 0.7891 0.8295
31.4153 -36.8964 -0.2728 0.8238
31.3950 -34.2526 -0.2616 0.8304
31.3763 -31.8147 -0.2516 0.8363
31.3589 -29.5538 -0.2426 0.8417
31.3275 -25.4707 -0.2273 0.8509
32.6169 -24.5944 -0.2300 0.8492
35.7141 -24.9356 -0.2452 0.8401
44.3438 -20.1601 -0.2743 0.8230
31.3865 -36.8627 -1.3632 0.8239
31.3334 -29.5298 -1.2124 0.8417
31.3037 -25.4513 -1.1360 0.8509
32.6168 -24.5944 -1.1503 0.8492
44.3153 -20.1471 -1.3707 0.8230
31.3578 -36.8289 -2.4531 0.8239
31.3399 -34.1925 -2.3522 0.8305
31.3079 -29.5057 -2.1818 0.8417
31.2934 -27.4027 -2.1095 0.8465
31.2798 -25.4319 -2.0445 0.8509
32.6168 -24.5943 -2.0717 0.8491
37.6296 -18.7966 -2.1332 0.8450
29.5691 -34.7281 -3.3443 0.8328
31.2224 -31.6586 -3.2602 0.8367
31.2824 -29.4817 -3.1518 0.8416
31.2688 -27.3811 -3.0475 0.8465
35.7139 -24.9355 -3.1937 0.8397
39.2560 -25.3257 -3.4253 0.8291
40.9505 -24.3465 -3.4932 0.8261
37.6443 -17.1143 -3.0320 0.8472
24.3056 -22.9065 -3.2064 0.8744
29.0421 -18.7363 -3.3181 0.8703
29.3808 -17.4678 -3.2816 0.8717
29.5013 -14.7362 -3.1660 0.8759
30.1536 -13.7087 -3.1800 0.8754
16.2975 -19.1408 -2.9862 0.9037
17.0970 -18.6531 -3.0057 0.9031
17.8793 -18.1291 -3.0246 0.9025
18.6422 -17.5691 -3.0429 0.9020
19.3838 -16.9737 -3.0605 0.9014
20.7946 -15.6799 -3.0936 0.9004
21.4599 -14.9833 -3.1090 0.8999
22.7005 -13.4962 -3.1371 0.8991
23.2721 -12.7083 -3.1497 0.8987
24.3091 -11.0517 -3.1720 0.8980
13.2511 -15.5630 -2.8961 0.9207
13.8843 -15.1480 -2.9115 0.9203
15.6875 -13.7370 -2.9545 0.9192
16.2515 -13.2132 -2.9677 0.9189
17.3155 -12.0896 -2.9922 0.9182
19.5380 -8.8825 -3.0410 0.9169
11.1530 -13.0989 -2.8341 0.9326
11.6762 -12.7389 -2.8468 0.9323
12.1861 -12.3563 -2.8590 0.9321
12.6816 -11.9516 -2.8707 0.9318
13.6251 -11.0778 -2.8929 0.9313
14.4977 -10.1223 -2.9129 0.9308
14.9047 -9.6157 -2.9220 0.9306
15.2910 -9.0910 -2.9306 0.9304
15.6555 -8.5490 -2.9385 0.9302
9.6187 -11.2969 -2.7888 0.9414
10.9177 -10.2892 -2.8198 0.9408
11.3247 -9.9167 -2.8293 0.9406
12.0946 -9.1198 -2.8471 0.9402
13.1260 -7.8038 -2.8703 0.9397
13.4337 -7.3358 -2.8769 0.9396
13.9904 -6.3605 -2.8887 0.9394
8.4468 -9.9205 -2.7542 0.9481
8.8335 -9.6375 -2.7634 0.9480
9.2097 -9.3383 -2.7724 0.9478
9.5746 -9.0234 -2.7810 0.9476
9.9274 -8.6931 -2.7893 0.9475
10.5940 -7.9883 -2.8046 0.9472
11.2039 -7.2281 -2.8184 0.9469
11.4859 -6.8287 -2.8246 0.9468
12.2326 -5.5613 -2.8404 0.9465
7.5217 -8.8339 -2.7268 0.9534
7.8631 -8.5787 -2.7350 0.9533
8.5167 -8.0265 -2.7505 0.9531
9.4148 -7.0991 -2.7712 0.9527
9.6897 -6.7653 -2.7774 0.9526
9.9514 -6.4200 -2.7833 0.9525
10.1993 -6.0638 -2.7887 0.9524
10.6519 -5.3208 -2.7984 0.9523
10.8555 -4.9352 -2.8026 0.9522
6.7720 -7.9535 -2.7047 0.9578
7.3740 -7.4769 -2.7190 0.9575
8.4628 -6.3812 -2.7443 0.9572
8.7079 -6.0798 -2.7498 0.9571
9.1621 -5.4471 -2.7598 0.9569
9.5653 -4.7780 -2.7684 0.9568
6.4275 -7.0125 -2.6929 0.9612
6.9546 -6.5543 -2.7053 0.9611
7.2051 -6.3092 -2.7112 0.9610
7.4461 -6.0540 -2.7167 0.9609
7.8982 -5.5145 -2.7270 0.9607
8.1083 -5.2310 -2.7316 0.9607
8.4949 -4.6388 -2.7400 0.9606
8.8337 -4.0161 -2.7471 0.9605
5.8806 -6.4158 -2.6769 0.9642
6.5882 -5.7691 -2.6935 0.9640
7.4094 -4.7801 -2.7121 0.9638
7.5902 -4.5126 -2.7160 0.9637
7.9200 -3.9561 -2.7230 0.9636
6.0620 -5.3083 -2.6784 0.9666
6.4552 -4.8675 -2.6874 0.9665
6.9793 -4.1494 -2.6990 0.9664
7.2810 -3.6370 -2.7054 0.9663
7.4166 -3.3718 -2.7081 0.9662
5.0097 -5.4656 -2.6513 0.9690
5.2157 -5.2885 -2.6562 0.9689
5.4150 -5.1033 -2.6609 0.9689
5.7923 -4.7094 -2.6696 0.9688
5.9696 -4.5013 -2.6736 0.9687
6.1388 -4.2861 -2.6774 0.9687
6.2998 -4.0642 -2.6810 0.9687
6.4521 -3.8360 -2.6843 0.9686
6.5955 -3.6017 -2.6874 0.9686
6.7298 -3.3617 -2.6902 0.9685
4.6566 -5.0804 -2.6410 0.9709
4.8475 -4.9152 -2.6455 0.9709
5.0321 -4.7424 -2.6498 0.9708
5.5456 -4.1816 -2.6616 0.9707
5.7023 -3.9813 -2.6651 0.9706
5.8512 -3.7748 -2.6684 0.9706
6.1249 -3.3446 -2.6743 0.9705
6.2491 -3.1215 -2.6769 0.9705
6.3646 -2.8935 -2.6793 0.9705
4.3451 -4.7405 -2.6319 0.9726
4.5226 -4.5858 -2.6361 0.9725
4.6944 -4.4242 -2.6401 0.9725
5.0193 -4.0809 -2.6476 0.9724
5.1719 -3.8998 -2.6510 0.9724
5.3175 -3.7127 -2.6543 0.9724
5.4559 -3.5198 -2.6573 0.9723
5.8257 -2.9100 -2.6652 0.9722
3.8969 -4.5767 -2.6197 0.9741
4.2337 -4.2928 -2.6277 0.9740
4.3940 -4.1411 -2.6314 0.9740
4.8397 -3.6493 -2.6416 0.9739
5.4496 -2.7222 -2.6549 0.9738
3.6591 -4.2975 -2.6126 0.9754
3.8194 -4.1670 -2.6165 0.9754
4.1248 -3.8874 -2.6236 0.9753
4.4088 -3.5845 -2.6302 0.9753
4.9046 -2.9159 -2.6412 0.9752
5.0122 -2.7370 -2.6435 0.9751
5.1130 -2.5540 -2.6456 0.9751
3.7410 -3.7932 -2.6133 0.9765
3.8821 -3.6586 -2.6166 0.9765
4.0180 -3.5184 -2.6198 0.9765
4.3932 -3.0673 -2.6283 0.9764
4.5067 -2.9074 -2.6307 0.9764
4.6141 -2.7432 -2.6331 0.9764
4.8097 -2.4025 -2.6372 0.9763
4.8976 -2.2266 -2.6390 0.9763
3.2498 -3.8167 -2.6005 0.9777
3.5289 -3.5782 -2.6071 0.9776
3.6617 -3.4509 -2.6102 0.9776
4.1428 -2.8925 -2.6212 0.9775
4.2496 -2.7416 -2.6235 0.9775
4.5346 -2.2651 -2.6296 0.9774
4.6173 -2.0992 -2.6313 0.9774
3.4606 -3.2614 -2.6044 0.9785
3.5813 -3.1360 -2.6072 0.9785
3.6974 -3.0061 -2.6099 0.9785
4.2000 -2.2935 -2.6209 0.9784
4.2838 -2.1398 -2.6227 0.9784
2.9088 -3.4163 -2.5905 0.9795
3.0353 -3.3115 -2.5935 0.9795
3.2762 -3.0876 -2.5991 0.9794
3.3903 -2.9687 -2.6018 0.9794
3.6049 -2.7182 -2.6066 0.9794
4.1277 -1.8766 -2.6178 0.9793
