ply
format ascii 1.0
element vertex 235
property float32 x
property float32 y
property float32 z
property float32 I
end_header
44.9077 -18.4666 7.4386 0.8216
43.8010 -16.1595 7.1522 0.8278
46.8770 -15.3652 7.5572 0.8190
45.1769 -11.2160 7.1309 0.8283
48.1661 -10.0978 7.5392 0.8194
48.4844 -8.3205 7.5361 0.8195
47.7910 -6.4066 7.3868 0.8227
46.2740 -4.4823 7.1221 0.8285
49.1023 -2.9431 7.5357 0.8195
49.1955 -1.1401 7.5385 0.8194
49.2321 0.6660 7.5428 0.8193
46.5854 -15.2696 6.3840 0.8206
46.6515 -9.7803 6.2071 0.8251
46.6734 -8.0097 6.1667 0.8261
46.6954 -6.2597 6.1351 0.8269
46.8080 2.3528 6.1031 0.8277
46.8316 4.0808 6.1216 0.8273
46.8555 5.8217 6.1485 0.8266
46.8801 7.5805 6.1841 0.8257
46.4072 -17.1210 5.3116 0.8196
46.5411 -15.2547 5.2593 0.8212
48.7358 -6.5332 5.2801 0.8205
48.7593 -4.7230 5.2604 0.8211
44.8416 -2.6878 4.8238 0.8347
48.8471 0.6607 5.2458 0.8216
48.8541 2.4556 5.2527 0.8214
45.1439 -2.7059 3.8284 0.8340
45.0911 -2.7027 1.7812 0.8346
32.5202 -13.3727 0.5940 0.8688
45.0648 -2.7012 0.7626 0.8348
32.4659 -13.3503 -0.9884 0.8689
44.5492 -2.6703 -1.2567 0.8365
37.7253 -9.3661 -1.9713 0.8558
37.7560 -5.0614 -1.9319 0.8585
37.7756 -2.2642 -1.9192 0.8594
37.7853 -0.8757 -1.9168 0.8595
37.8138 3.2950 -1.9250 0.8590
37.8328 6.1175 -1.9436 0.8577
37.6806 -12.3509 -2.9074 0.8530
37.7027 -9.3604 -2.8484 0.8557
37.7437 -3.6560 -2.7804 0.8589
37.7536 -2.2629 -2.7731 0.8593
37.7633 -0.8752 -2.7696 0.8594
37.7556 1.8978 -2.7718 0.8593
37.7917 3.2931 -2.7815 0.8589
37.8104 6.1139 -2.8084 0.8576
30.6130 -12.5884 -3.1778 0.8755
32.0967 -9.2311 -3.2063 0.8744
32.8036 -6.8771 -3.2178 0.8740
33.0684 -5.6749 -3.2211 0.8739
33.2725 -4.4603 -3.2229 0.8738
33.5156 -0.7767 -3.2185 0.8740
33.4732 0.4528 -3.2139 0.8741
33.3694 1.6773 -3.2077 0.8744
32.9808 4.0978 -3.1907 0.8750
32.6979 5.2872 -3.1799 0.8754
24.6837 -10.1502 -3.1703 0.8981
25.1050 -9.2620 -3.1786 0.8978
26.8504 -2.6008 -3.2044 0.8970
26.9157 0.3641 -3.1975 0.8972
26.8449 1.3493 -3.1928 0.8974
26.3604 4.2625 -3.1719 0.8980
26.1105 5.2116 -3.1627 0.8983
19.8411 -8.1589 -3.0397 0.9170
20.1694 -7.4411 -3.0461 0.9168
20.4659 -6.7082 -3.0516 0.9167
20.7298 -5.9619 -3.0562 0.9165
21.5934 -1.2943 -3.0650 0.9163
21.6139 -0.5009 -3.0633 0.9164
21.5988 0.2922 -3.0606 0.9164
21.1867 3.4259 -3.0409 0.9169
20.9978 4.1911 -3.0338 0.9171
16.8379 -6.2120 -2.9566 0.9298
17.0803 -5.5985 -2.9611 0.9297
17.2962 -4.9744 -2.9649 0.9296
17.4849 -4.3410 -2.9679 0.9296
17.6461 -3.6994 -2.9702 0.9295
17.8842 -2.3974 -2.9726 0.9295
18.0170 0.2437 -2.9684 0.9296
17.9112 1.5607 -2.9618 0.9297
14.2092 -5.8430 -2.8878 0.9394
14.8227 -4.2630 -2.8990 0.9392
15.1187 -3.1696 -2.9035 0.9391
15.3209 -2.0538 -2.9055 0.9390
15.3862 -1.4904 -2.9055 0.9390
15.4276 -0.9247 -2.9050 0.9390
15.4379 0.2088 -2.9020 0.9391
15.4069 0.7744 -2.8995 0.9391
15.3520 1.3377 -2.8965 0.9392
15.2733 1.8977 -2.8928 0.9393
15.1711 2.4532 -2.8886 0.9394
12.7968 -4.1945 -2.8466 0.9464
12.9544 -3.7257 -2.8493 0.9464
13.0924 -3.2504 -2.8515 0.9463
13.2105 -2.7695 -2.8531 0.9463
13.3860 -1.7944 -2.8548 0.9463
13.4902 0.1825 -2.8518 0.9463
13.4184 1.1693 -2.8471 0.9464
13.3518 1.6589 -2.8440 0.9465
13.2649 2.1449 -2.8403 0.9465
11.0260 -4.5340 -2.8019 0.9522
11.1980 -4.1312 -2.8052 0.9521
11.3535 -3.7214 -2.8080 0.9521
11.6134 -2.8833 -2.8123 0.9520
11.7174 -2.4565 -2.8137 0.9520
11.8038 -2.0257 -2.8147 0.9520
11.9699 -0.2774 -2.8139 0.9520
11.9662 0.1619 -2.8126 0.9520
11.9444 0.6004 -2.8108 0.9520
11.9046 1.0373 -2.8085 0.9521
11.8470 1.4720 -2.8057 0.9521
9.9000 -4.0710 -2.7715 0.9567
10.0532 -3.7089 -2.7744 0.9567
10.1917 -3.3406 -2.7769 0.9567
10.5933 -1.8179 -2.7829 0.9566
4.2422 -0.0983 -1.0987 0.9826
4.2427 0.0574 -1.0986 0.9826
4.2354 0.2129 -1.0980 0.9826
4.4127 0.3845 -1.1469 0.9819
10.6356 1.3215 -2.7749 0.9567
8.9728 -3.6897 -2.7465 0.9605
9.1108 -3.3612 -2.7491 0.9604
9.2355 -3.0272 -2.7514 0.9604
9.4444 -2.3447 -2.7548 0.9604
9.5280 -1.9975 -2.7559 0.9603
3.8549 -0.5168 -1.1011 0.9840
3.7718 -0.2261 -1.0697 0.9844
3.7703 -0.0874 -1.0676 0.9844
3.7704 0.0510 -1.0675 0.9844
3.7663 0.1893 -1.0676 0.9844
3.8411 0.3347 -1.0915 0.9841
9.5792 1.5489 -2.7470 0.9605
9.5059 1.8973 -2.7441 0.9605
8.1955 -3.3701 -2.7255 0.9636
8.6239 -2.1410 -2.7330 0.9635
8.7000 -1.8239 -2.7341 0.9635
4.8320 -0.8292 -1.5079 0.9797
3.5215 -0.4721 -1.0928 0.9852
3.4852 -0.0808 -1.0722 0.9855
3.4818 0.1750 -1.0723 0.9855
8.6830 1.7331 -2.7234 0.9636
7.5337 -3.0979 -2.7077 0.9662
7.6484 -2.8217 -2.7099 0.9662
7.9955 -1.6762 -2.7155 0.9662
3.3576 -0.5762 -1.1324 0.9857
3.2751 -0.3172 -1.0937 0.9862
3.2753 0.1646 -1.0901 0.9863
3.2882 0.2865 -1.0972 0.9862
7.2492 -2.0849 -2.6974 0.9685
7.3240 -1.8183 -2.6986 0.9685
7.3881 -1.5489 -2.6995 0.9684
3.1145 -0.4175 -1.1237 0.9867
3.1199 -0.3022 -1.1209 0.9868
3.1229 -0.1872 -1.1187 0.9868
3.1204 0.1568 -1.1173 0.9868
7.4332 1.2019 -2.6927 0.9685
7.3781 1.4726 -2.6905 0.9685
6.4652 -2.6586 -2.6789 0.9705
6.6512 -2.1801 -2.6823 0.9705
6.7993 -1.6880 -2.6847 0.9704
2.9781 -0.3992 -1.1515 0.9872
2.9844 -0.2891 -1.1490 0.9872
2.9887 -0.1791 -1.1474 0.9873
2.9889 0.0404 -1.1455 0.9873
2.9850 0.1500 -1.1454 0.9873
6.8510 1.3674 -2.6772 0.9705
6.0269 -2.4783 -2.6670 0.9722
6.1177 -2.2570 -2.6687 0.9722
6.1997 -2.0321 -2.6702 0.9722
6.3374 -1.5734 -2.6724 0.9722
2.8978 -0.6075 -1.2118 0.9873
2.8593 -0.2770 -1.1757 0.9877
2.8635 -0.1716 -1.1741 0.9877
2.8651 -0.0664 -1.1729 0.9877
2.8603 0.1438 -1.1721 0.9877
2.8589 0.2491 -1.1745 0.9877
2.8775 0.3575 -1.1867 0.9875
2.9147 0.4713 -1.2084 0.9873
6.3868 1.2748 -2.6655 0.9722
5.8672 -1.6874 -2.6606 0.9737
2.7593 -0.3699 -1.2133 0.9879
2.7631 -0.0640 -1.2045 0.9880
2.7579 0.1386 -1.2034 0.9880
2.7657 0.2410 -1.2099 0.9880
2.7891 0.4510 -1.2313 0.9877
5.4400 -1.7831 -2.6499 0.9751
5.5040 -1.5830 -2.6510 0.9751
2.6802 -0.1606 -1.2429 0.9882
2.6803 0.0363 -1.2408 0.9883
2.6768 0.1345 -1.2406 0.9883
2.6696 0.3317 -1.2452 0.9882
3.0862 0.6160 -1.4567 0.9862
4.9751 -2.0458 -2.6387 0.9763
5.1168 -1.6771 -2.6413 0.9763
2.6331 -0.5520 -1.3197 0.9881
2.6344 -0.3531 -1.3038 0.9882
2.6336 -0.2551 -1.2979 0.9883
2.6322 -0.1578 -1.2935 0.9883
2.6319 -0.0610 -1.2913 0.9883
2.6346 0.1324 -1.2940 0.9883
2.6366 0.3276 -1.3033 0.9882
2.6395 0.4268 -1.3115 0.9882
4.8803 -1.4036 -2.6344 0.9774
2.6224 -0.6511 -1.4017 0.9879
2.6046 -0.5460 -1.3806 0.9881
2.6083 -0.4476 -1.3729 0.9881
2.6077 -0.2526 -1.3591 0.9883
2.6080 -0.1563 -1.3554 0.9883
2.6081 -0.0604 -1.3534 0.9883
2.6083 0.0353 -1.3533 0.9883
2.6088 0.1311 -1.3551 0.9883
2.6097 0.2274 -1.3590 0.9883
2.6084 0.3241 -1.3636 0.9882
4.4310 -1.8220 -2.6240 0.9784
4.5566 -1.4935 -2.6263 0.9784
2.6509 -0.7624 -1.5108 0.9875
2.5891 -0.6428 -1.4611 0.9879
2.5805 -0.4428 -1.4340 0.9881
2.5837 -0.2503 -1.4217 0.9882
2.5841 -0.1549 -1.4179 0.9883
2.5842 -0.0599 -1.4158 0.9883
2.5841 0.1299 -1.4171 0.9883
2.5831 0.2251 -1.4201 0.9882
2.6103 0.5210 -1.4578 0.9879
2.6192 -0.7533 -1.5735 0.9875
2.5544 -0.5355 -1.5068 0.9880
2.5571 -0.4388 -1.4979 0.9881
2.5576 -0.2477 -1.4835 0.9882
2.5586 -0.0593 -1.4776 0.9882
2.5587 0.0346 -1.4774 0.9883
2.5584 0.1286 -1.4789 0.9882
2.5597 0.2230 -1.4835 0.9882
2.5574 0.3178 -1.4879 0.9882
2.5557 0.4132 -1.4947 0.9881
2.5774 0.5144 -1.5174 0.9879
