ply
format ascii 1.0
element vertex 540
property float32 x
property float32 y
property float32 z
property float32 I
end_header
-15.5367 21.3333 4.6535 0.8984
-38.0352 16.2898 7.2958 0.8453
-37.8116 14.6165 7.1480 0.8482
-42.2029 11.2961 7.7035 0.8374
-42.8419 9.8393 7.7509 0.8365
-42.8369 8.2371 7.6917 0.8376
-30.8085 -7.5192 5.5918 0.8791
-15.5376 21.3346 4.0432 0.8987
-16.5512 21.0970 4.1078 0.8972
-42.0788 21.7042 7.2532 0.8256
-41.3006 17.6883 6.8829 0.8338
-43.4920 11.6411 6.8973 0.8334
-43.5096 8.3665 6.7875 0.8359
-38.7224 -7.9948 6.0572 0.8521
-22.2833 -6.2911 3.5471 0.9106
-16.7508 21.3515 3.5339 0.8963
-37.3747 26.6440 5.9771 0.8310
-44.1363 20.8015 6.3538 0.8213
-41.5009 17.7741 5.8791 0.8335
-43.4122 16.7815 6.0609 0.8288
-45.1148 15.6088 6.2166 0.8248
-39.4807 -6.6887 5.2145 0.8508
-37.8424 -9.2359 5.0725 0.8546
-15.5393 21.3370 2.8344 0.8993
-16.7518 21.3527 2.9143 0.8966
-36.4467 28.0016 4.9354 0.8312
-45.7777 17.6959 5.2702 0.8208
-38.9530 -6.5993 4.2424 0.8530
-38.7725 -8.0051 4.2513 0.8528
-37.7975 -9.2249 4.1779 0.8551
-14.3906 21.3227 2.1776 0.9019
-16.7258 21.3196 2.2939 0.8969
-35.5296 29.3766 3.9026 0.8311
-39.6518 24.1890 3.9319 0.8299
-38.8468 -6.5813 3.3353 0.8537
-37.2353 -9.0877 3.2446 0.8574
-15.5157 21.3046 1.6343 0.8998
-19.6847 23.3224 1.8925 0.8849
-35.3740 29.2479 2.8462 0.8320
-35.4025 27.1993 2.7684 0.8362
-35.4295 25.2573 2.6981 0.8400
-36.3563 24.0041 2.7015 0.8398
-15.5165 21.3056 1.0393 0.8999
-16.7275 21.3217 1.0686 0.8972
-19.2049 22.7539 1.1741 0.8876
-20.6606 22.7733 1.2125 0.8842
-29.9656 28.6205 1.6339 0.8471
-29.9058 26.5840 1.5778 0.8520
-32.1599 22.9265 1.5573 0.8538
-39.5060 22.2011 1.7869 0.8341
-38.0702 -7.8601 1.5328 0.8559
-4.4374 6.5751 0.1340 0.9688
-4.7884 6.5750 0.1374 0.9680
-6.4021 6.5686 0.1549 0.9640
-6.8770 6.5684 0.1606 0.9627
-7.9437 6.5681 0.1741 0.9596
-9.9469 6.5675 0.2013 0.9534
-10.6279 6.4835 0.2103 0.9514
-11.7084 6.5798 0.2269 0.9477
-13.9594 6.5792 0.2607 0.9401
-19.0020 6.5744 0.3397 0.9227
-21.1816 6.4899 0.3742 0.9152
-28.6027 6.5692 0.4957 0.8892
-41.7827 6.4942 0.7143 0.8444
-38.5923 -7.9679 0.6656 0.8542
-4.4376 6.5753 -0.0447 0.9688
-4.7886 6.5752 -0.0458 0.9680
-5.0879 6.4854 -0.0464 0.9676
-5.4737 6.4853 -0.0478 0.9666
-5.9595 6.5689 -0.0499 0.9651
-6.4024 6.5688 -0.0516 0.9640
-7.3892 6.5685 -0.0557 0.9612
-7.9440 6.5684 -0.0580 0.9596
-8.5490 6.5682 -0.0607 0.9578
-12.7567 6.5799 -0.0808 0.9442
-13.9604 6.5796 -0.0869 0.9401
-15.3617 6.5792 -0.0941 0.9353
-21.1837 6.4906 -0.1247 0.9152
-24.5628 6.5746 -0.1432 0.9033
-28.6064 6.5700 -0.1652 0.8892
-41.7970 6.4964 -0.2381 0.8443
-4.4378 6.5756 -0.2234 0.9688
-4.7887 6.5755 -0.2290 0.9680
-5.4739 6.4855 -0.2390 0.9666
-5.9597 6.5692 -0.2498 0.9651
-6.4026 6.5691 -0.2583 0.9640
-7.3895 6.5688 -0.2784 0.9612
-8.5495 6.5685 -0.3036 0.9578
-9.2136 6.5684 -0.3186 0.9557
-9.9479 6.5682 -0.3357 0.9534
-10.6291 6.4842 -0.3506 0.9514
-12.7574 6.5803 -0.4042 0.9442
-21.1858 6.4912 -0.6239 0.9152
-28.6100 6.5708 -0.8266 0.8892
-34.1506 6.5669 -0.9792 0.8701
-4.4379 6.5758 -0.4023 0.9687
-5.0909 6.4892 -0.4183 0.9675
-6.4029 6.5693 -0.4652 0.9639
-6.8779 6.5692 -0.4823 0.9626
-7.3898 6.5691 -0.5014 0.9612
-7.9447 6.5690 -0.5228 0.9596
-8.5498 6.5688 -0.5468 0.9577
-9.2140 6.5687 -0.5739 0.9557
-9.9484 6.5685 -0.6046 0.9534
-11.7105 6.5810 -0.6812 0.9476
-12.7582 6.5808 -0.7280 0.9441
-15.3639 6.5802 -0.8476 0.9353
-17.0127 6.5765 -0.9250 0.9296
-21.1878 6.4918 -1.1238 0.9151
-24.5682 6.5760 -1.2898 0.9032
-28.6137 6.5717 -1.4889 0.8891
-37.9979 1.7816 -1.9292 0.8587
-38.0674 0.4216 -1.9307 0.8586
-37.9694 -5.0430 -1.9425 0.8578
-35.5454 -6.0220 -1.8283 0.8655
-35.3973 -7.3083 -1.8330 0.8652
-37.2606 -10.5195 -1.9635 0.8564
-5.4743 6.4860 -0.6223 0.9665
-5.9602 6.5697 -0.6504 0.9650
-6.4031 6.5696 -0.6726 0.9639
-7.3902 6.5694 -0.7250 0.9611
-7.9451 6.5693 -0.7559 0.9595
-9.9489 6.5689 -0.8741 0.9533
-10.6303 6.4849 -0.9130 0.9513
-11.7112 6.5814 -0.9850 0.9475
-12.7591 6.5812 -1.0526 0.9440
-13.9632 6.5809 -1.1318 0.9400
-15.3651 6.5806 -1.2256 0.9352
-19.0086 6.5767 -1.4748 0.9225
-24.5709 6.5767 -1.8650 0.9030
-26.1064 5.0200 -1.9493 0.8989
-27.9644 4.3464 -2.0750 0.8927
-28.1001 3.3431 -2.0749 0.8927
-28.2060 2.3361 -2.0752 0.8927
-28.3280 0.3137 -2.0772 0.8926
-28.3298 -1.7156 -2.0810 0.8924
-28.2855 -2.7313 -2.0836 0.8923
-28.1058 -4.7616 -2.0901 0.8920
-27.9702 -5.7748 -2.0941 0.8918
-26.1113 -6.3728 -1.9707 0.8978
-25.9266 -7.3197 -1.9753 0.8976
-4.4382 6.5762 -0.7617 0.9686
-5.0965 6.4964 -0.7927 0.9674
-5.4745 6.4862 -0.8149 0.9665
-5.9604 6.5699 -0.8516 0.9650
-6.4034 6.5699 -0.8808 0.9638
-6.8784 6.5698 -0.9132 0.9625
-7.9454 6.5696 -0.9898 0.9594
-8.5506 6.5694 -1.0352 0.9576
-12.7598 6.5816 -1.3784 0.9439
-15.3662 6.5811 -1.6048 0.9350
-17.0154 6.5776 -1.7514 0.9293
-20.2645 6.2089 -2.0348 0.9184
-22.1242 4.2543 -2.1629 0.9134
-22.2571 3.4593 -2.1625 0.9135
-22.3654 2.6608 -2.1623 0.9135
-22.5507 -0.5572 -2.1656 0.9133
-22.5347 -1.3647 -2.1674 0.9133
-22.4937 -2.1721 -2.1696 0.9132
-22.4276 -2.9788 -2.1721 0.9131
-22.3364 -3.7842 -2.1750 0.9130
-22.2201 -4.5877 -2.1782 0.9129
-4.4384 6.5765 -0.9424 0.9685
-5.0994 6.5000 -0.9813 0.9673
-6.4037 6.5701 -1.0898 0.9637
-7.9458 6.5699 -1.2247 0.9593
-8.5510 6.5698 -1.2809 0.9575
-9.2154 6.5696 -1.3443 0.9554
-9.9500 6.5695 -1.4163 0.9531
-15.3673 6.5816 -1.9858 0.9349
-16.6294 5.7535 -2.0902 0.9316
-16.8118 5.1510 -2.0886 0.9316
-18.3599 3.5304 -2.2209 0.9275
-18.4711 2.8709 -2.2204 0.9275
-18.6300 1.5430 -2.2206 0.9275
-18.6779 0.8758 -2.2211 0.9274
-18.7045 0.2071 -2.2220 0.9274
-18.6569 -1.8016 -2.2265 0.9273
-18.5985 -2.4702 -2.2286 0.9272
-18.5186 -3.1374 -2.2311 0.9271
-18.2949 -4.4651 -2.2370 0.9269
-18.1511 -5.1245 -2.2404 0.9268
-5.9608 6.5705 -1.2570 0.9648
-6.4039 6.5704 -1.3000 0.9636
-8.5514 6.5701 -1.5280 0.9574
-9.9505 6.5699 -1.6895 0.9530
-10.6320 6.4860 -1.7646 0.9509
-12.7615 6.5824 -2.0345 0.9436
-13.6246 6.4213 -2.1341 0.9410
-13.8314 5.9238 -2.1319 0.9410
-14.0219 5.4204 -2.1300 0.9411
-14.1959 4.9115 -2.1284 0.9411
-15.2333 4.6674 -2.2574 0.9377
-15.4332 4.1309 -2.2637 0.9375
-15.5647 3.5747 -2.2628 0.9375
-15.6782 3.0148 -2.2621 0.9375
-15.8504 1.8857 -2.2617 0.9375
-15.9091 1.3176 -2.2619 0.9375
-15.9494 0.7478 -2.2623 0.9375
-15.9712 0.1769 -2.2631 0.9375
-15.8030 -2.6773 -2.2710 0.9373
-15.7138 -3.2443 -2.2734 0.9372
-15.4800 -4.3704 -2.2791 0.9371
-4.4387 6.5769 -1.3071 0.9683
-4.7898 6.5769 -1.3403 0.9676
-5.1051 6.5073 -1.3625 0.9670
-5.4751 6.4870 -1.3984 0.9662
-6.8793 6.5706 -1.5672 0.9622
-7.9465 6.5705 -1.6986 0.9591
-9.9510 6.5702 -1.9644 0.9528
-10.6326 6.4864 -2.0518 0.9508
-11.4648 6.4429 -2.1665 0.9481
-11.6752 6.0221 -2.1642 0.9481
-12.2207 4.7241 -2.1584 0.9483
-13.3228 4.0820 -2.2955 0.9451
-13.4540 3.6011 -2.2944 0.9451
-13.8704 1.1488 -2.2928 0.9451
-13.9236 0.1542 -2.2939 0.9451
-13.9257 -0.3441 -2.2948 0.9451
-13.9115 -0.8425 -2.2960 0.9451
-13.8809 -1.3404 -2.2974 0.9450
-13.7707 -2.3330 -2.3009 0.9450
-13.6911 -2.8267 -2.3030 0.9449
-13.4830 -3.8066 -2.3080 0.9448
-5.1080 6.5110 -1.5555 0.9669
-5.4753 6.4872 -1.5956 0.9660
-5.9613 6.5710 -1.6676 0.9645
-6.4044 6.5709 -1.7247 0.9633
-6.8796 6.5709 -1.7881 0.9620
-7.9469 6.5708 -1.9382 0.9589
-9.2168 6.5706 -2.1275 0.9550
-9.7345 6.4272 -2.1925 0.9536
-9.9468 6.0679 -2.1900 0.9537
-10.3343 5.3304 -2.1856 0.9538
-10.5091 4.9530 -2.1837 0.9538
-10.9492 4.6894 -2.2388 0.9527
-11.6668 4.0365 -2.3205 0.9510
-11.7978 3.6148 -2.3193 0.9510
-11.9147 3.1891 -2.3183 0.9510
-12.0174 2.7600 -2.3176 0.9511
-12.2844 1.0174 -2.3169 0.9511
-12.3149 0.5774 -2.3173 0.9511
-12.3189 -0.7460 -2.3197 0.9510
-12.2909 -1.1868 -2.3210 0.9510
-12.2484 -1.6268 -2.3224 0.9510
-12.1912 -2.0654 -2.3241 0.9509
-11.9323 -3.3688 -2.3305 0.9508
-4.4390 6.5774 -1.6773 0.9681
-4.7901 6.5774 -1.7199 0.9673
-5.9615 6.5712 -1.8755 0.9644
-6.8799 6.5711 -2.0110 0.9619
-8.7211 5.7581 -2.2090 0.9582
-9.2614 4.7771 -2.2028 0.9583
-10.4589 3.6186 -2.3394 0.9558
-10.5769 3.2407 -2.3383 0.9558
-10.6821 2.8592 -2.3375 0.9558
-10.7745 2.4746 -2.3368 0.9558
-11.0142 0.9122 -2.3362 0.9558
-11.0554 0.1224 -2.3370 0.9558
-11.0181 -1.0639 -2.3399 0.9558
-10.9793 -1.4582 -2.3412 0.9557
-10.8620 -2.2426 -2.3444 0.9557
-10.7836 -2.6319 -2.3463 0.9556
-5.4757 6.4877 -1.9953 0.9657
-5.9618 6.5715 -2.0853 0.9642
-6.4050 6.5715 -2.1567 0.9630
-6.8775 6.5688 -2.2352 0.9617
-8.0655 4.9203 -2.2205 0.9619
-8.9264 4.6042 -2.3606 0.9596
-9.0790 4.2789 -2.3589 0.9596
-9.2203 3.9489 -2.3574 0.9596
-9.3504 3.6145 -2.3561 0.9596
-9.4691 3.2762 -2.3549 0.9597
-9.5764 2.9341 -2.3539 0.9597
-9.6720 2.5888 -2.3532 0.9597
-9.7559 2.2406 -2.3526 0.9597
-9.8883 1.5369 -2.3519 0.9597
-9.9732 0.8260 -2.3520 0.9597
-9.9977 0.4688 -2.3523 0.9597
-10.0106 -0.2474 -2.3534 0.9597
-9.9989 -0.6055 -2.3543 0.9597
-9.9395 -1.3201 -2.3565 0.9596
-9.8918 -1.6758 -2.3579 0.9596
-9.8320 -2.0300 -2.3595 0.9596
-9.7603 -2.3821 -2.3612 0.9596
-4.7904 6.5778 -2.1069 0.9669
-5.4759 6.4880 -2.1982 0.9655
-6.2713 5.9898 -2.2454 0.9648
-6.4740 5.7550 -2.2428 0.9648
-6.6685 5.5136 -2.2403 0.9649
-7.0314 5.0127 -2.2358 0.9649
-7.1997 4.7536 -2.2338 0.9650
-7.9957 4.4934 -2.3747 0.9628
-8.1455 4.2014 -2.3730 0.9628
-8.4147 3.6039 -2.3701 0.9629
-8.9711 1.7251 -2.3653 0.9630
-9.0704 1.0791 -2.3651 0.9630
-9.1371 0.1012 -2.3659 0.9629
-9.1372 -0.2258 -2.3665 0.9629
-9.1044 -0.8791 -2.3683 0.9629
-9.0714 -1.2048 -2.3694 0.9629
-9.0273 -1.5294 -2.3706 0.9629
-8.9723 -1.8525 -2.3721 0.9629
-8.8294 -2.4927 -2.3754 0.9628
-5.1536 6.1060 -2.2620 0.9673
-5.7578 5.4994 -2.2540 0.9674
-6.1236 5.0631 -2.2494 0.9675
-6.2948 4.8362 -2.2472 0.9675
-6.5910 4.6987 -2.2915 0.9669
-7.0417 4.6493 -2.3888 0.9655
-7.7312 3.3112 -2.3810 0.9656
-7.9412 2.7475 -2.3789 0.9657
-8.0317 2.4608 -2.3780 0.9657
-8.1123 2.1714 -2.3774 0.9657
-8.2438 1.5852 -2.3765 0.9657
-8.3860 0.3932 -2.3766 0.9657
-8.3961 -0.2075 -2.3776 0.9657
-8.1107 -2.2899 -2.3859 0.9656
-4.1415 6.1366 -2.2771 0.9695
-4.5583 5.8103 -2.2715 0.9696
-4.7577 5.6369 -2.2688 0.9696
-5.4898 4.8800 -2.2592 0.9697
-6.1007 4.6871 -2.3663 0.9683
-6.5049 4.2948 -2.3975 0.9679
-6.9138 3.5661 -2.3928 0.9680
-7.0330 3.3147 -2.3914 0.9680
-7.1436 3.0595 -2.3903 0.9680
-7.3381 2.5388 -2.3883 0.9680
-7.5620 1.7367 -2.3865 0.9681
-7.7027 0.9164 -2.3859 0.9681
-7.7309 0.6403 -2.3860 0.9681
-7.7589 0.0859 -2.3866 0.9680
-7.7587 -0.1917 -2.3872 0.9680
-7.7014 -1.0229 -2.3896 0.9680
-7.6160 -1.5724 -2.3919 0.9680
-3.8412 5.6916 -2.2825 0.9715
-4.0376 5.5440 -2.2798 0.9715
-4.5933 5.0630 -2.2724 0.9716
-4.9410 4.7192 -2.2712 0.9716
-5.2804 4.6939 -2.3485 0.9707
-5.7461 4.4147 -2.4087 0.9699
-5.8958 4.2031 -2.4068 0.9699
-6.0380 3.9866 -2.4051 0.9700
-6.1727 3.7656 -2.4035 0.9700
-6.2996 3.5402 -2.4020 0.9700
-6.4186 3.3107 -2.4007 0.9700
-6.5296 3.0774 -2.3994 0.9700
-6.8134 2.3573 -2.3965 0.9701
-6.8913 2.1115 -2.3958 0.9701
-7.1176 1.1063 -2.3943 0.9701
-7.1525 0.8509 -2.3943 0.9701
-7.1786 0.5946 -2.3944 0.9701
-7.2045 0.0798 -2.3950 0.9701
-7.2043 -0.1780 -2.3955 0.9701
-7.1951 -0.4357 -2.3961 0.9701
-7.1772 -0.6931 -2.3969 0.9701
-7.1149 -1.2054 -2.3988 0.9700
-7.0706 -1.4598 -2.3999 0.9700
-7.0176 -1.7127 -2.4012 0.9700
-3.7611 5.1643 -2.2847 0.9732
-3.9392 5.0212 -2.2823 0.9733
-4.5785 4.6975 -2.3458 0.9725
-5.0555 4.4940 -2.4189 0.9717
-5.3554 4.1146 -2.4151 0.9717
-5.6281 3.7160 -2.4118 0.9718
-5.8724 3.3001 -2.4089 0.9718
-5.9835 3.0863 -2.4076 0.9718
-6.2717 2.4244 -2.4046 0.9718
-6.3523 2.1978 -2.4038 0.9718
-6.4252 1.9686 -2.4031 0.9719
-6.4900 1.7371 -2.4026 0.9719
-6.5957 1.2683 -2.4019 0.9719
-6.6689 0.7934 -2.4017 0.9719
-6.7173 0.0744 -2.4023 0.9719
-6.7169 -0.1660 -2.4028 0.9719
-6.7084 -0.4062 -2.4034 0.9719
-6.6664 -0.8854 -2.4049 0.9718
-6.6331 -1.1238 -2.4058 0.9718
-6.5916 -1.3609 -2.4069 0.9718
-6.5419 -1.5966 -2.4081 0.9718
-6.4841 -1.8306 -2.4094 0.9718
-3.6987 4.7146 -2.2964 0.9747
-4.2499 4.6846 -2.4239 0.9733
-4.4229 4.5378 -2.4283 0.9732
-5.1404 3.6645 -2.4192 0.9733
-5.2649 3.4761 -2.4177 0.9733
-5.3827 3.2837 -2.4163 0.9734
-5.5980 2.8874 -2.4138 0.9734
-5.6951 2.6841 -2.4127 0.9734
-5.9436 2.0564 -2.4102 0.9734
-6.0118 1.8420 -2.4096 0.9734
-6.2629 0.5187 -2.4083 0.9734
-6.2853 0.0696 -2.4088 0.9734
-6.2849 -0.1553 -2.4092 0.9734
-6.2767 -0.3801 -2.4098 0.9734
-6.2609 -0.6046 -2.4105 0.9734
-6.2059 -1.0514 -2.4121 0.9734
-6.0660 -1.7126 -2.4155 0.9734
-3.1770 4.7075 -2.3244 0.9758
-3.4204 4.6966 -2.3779 0.9752
-3.6752 4.6847 -2.4370 0.9746
-3.9975 4.4063 -2.4350 0.9746
-4.4362 3.9434 -2.4293 0.9747
-5.1556 2.8973 -2.4204 0.9748
-5.2535 2.7098 -2.4193 0.9748
-5.4295 2.3254 -2.4174 0.9748
-5.6425 1.7288 -2.4153 0.9748
-5.7497 1.3205 -2.4145 0.9748
-5.8285 0.9059 -2.4141 0.9748
-5.8571 0.6968 -2.4141 0.9748
-5.8784 0.4869 -2.4141 0.9748
-5.8925 0.2763 -2.4143 0.9748
-5.8993 0.0653 -2.4146 0.9748
-5.8989 -0.1458 -2.4150 0.9748
-5.8912 -0.3568 -2.4155 0.9748
-5.7436 -1.4018 -2.4197 0.9748
-5.6925 -1.6071 -2.4209 0.9748
-3.1414 4.6547 -2.4474 0.9758
-3.4600 4.4104 -2.4430 0.9758
-4.0410 3.8596 -2.4354 0.9759
-4.1735 3.7100 -2.4336 0.9759
-4.3007 3.5559 -2.4320 0.9759
-4.4223 3.3977 -2.4305 0.9760
-4.5384 3.2354 -2.4291 0.9760
-4.6487 3.0693 -2.4277 0.9760
-4.9437 2.5500 -2.4243 0.9760
-5.0297 2.3705 -2.4233 0.9760
-5.1095 2.1883 -2.4225 0.9760
-5.1829 2.0035 -2.4217 0.9760
-5.2498 1.8164 -2.4211 0.9761
-5.3640 1.4358 -2.4201 0.9761
-5.4113 1.2428 -2.4197 0.9761
-5.4517 1.0483 -2.4195 0.9761
-5.5123 0.6558 -2.4193 0.9761
-5.5324 0.4582 -2.4194 0.9761
-5.5456 0.2600 -2.4196 0.9761
-5.5516 -0.1372 -2.4202 0.9761
-5.5090 -0.7317 -2.4220 0.9760
-5.4048 -1.3191 -2.4247 0.9760
-2.9616 4.3882 -2.4506 0.9769
-3.1140 4.2759 -2.4485 0.9770
-3.2623 4.1583 -2.4465 0.9770
-3.5458 3.9084 -2.4427 0.9770
-3.6806 3.7763 -2.4409 0.9770
-3.9359 3.4987 -2.4376 0.9771
-4.0559 3.3536 -2.4361 0.9771
-4.2804 3.0515 -2.4333 0.9771
-4.3845 2.8949 -2.4320 0.9771
-4.5761 2.5716 -2.4298 0.9771
-4.6632 2.4053 -2.4288 0.9771
-4.9524 1.7134 -2.4257 0.9772
-5.0094 1.5349 -2.4252 0.9772
-5.0603 1.3544 -2.4248 0.9772
-5.1430 0.9890 -2.4242 0.9772
-5.2002 0.6187 -2.4241 0.9772
-5.2316 0.2453 -2.4243 0.9772
-5.2376 0.0580 -2.4246 0.9772
-5.2301 -0.3167 -2.4254 0.9772
-5.2166 -0.5037 -2.4259 0.9772
-5.1374 -1.0607 -2.4282 0.9771
-5.0981 -1.2443 -2.4291 0.9771
-2.7980 4.1459 -2.4535 0.9780
-3.0824 3.9291 -2.4496 0.9780
-3.6012 3.4396 -2.4428 0.9781
-3.7196 3.3065 -2.4412 0.9781
-4.3254 2.4307 -2.4338 0.9781
-4.6217 1.7866 -2.4306 0.9782
-4.8257 1.1083 -2.4288 0.9782
-4.8920 0.7603 -2.4284 0.9782
-4.9159 0.5849 -2.4284 0.9782
-4.9339 0.4086 -2.4285 0.9782
-4.9508 -0.1223 -2.4292 0.9782
-4.8873 -0.8280 -2.4315 0.9782
-4.8562 -1.0026 -2.4323 0.9782
-4.8189 -1.1761 -2.4332 0.9781
-4.7757 -1.3483 -2.4342 0.9781
-2.9179 3.7194 -2.4525 0.9789
-3.1720 3.4964 -2.4491 0.9790
-3.4096 3.2565 -2.4460 0.9790
-3.6295 3.0009 -2.4432 0.9790
-3.7325 2.8677 -2.4419 0.9790
-4.0960 2.3018 -2.4375 0.9791
-4.1742 2.1530 -2.4366 0.9791
-4.3769 1.6920 -2.4344 0.9791
-4.4336 1.5340 -2.4339 0.9791
-4.5304 1.2126 -2.4330 0.9791
-4.5703 1.0497 -2.4327 0.9791
-4.6046 0.8854 -2.4325 0.9791
-4.6331 0.7201 -2.4324 0.9791
-4.6558 0.5539 -2.4324 0.9791
-4.6839 0.2196 -2.4326 0.9791
-4.6823 -0.2836 -2.4336 0.9791
-4.6701 -0.4510 -2.4341 0.9791
-4.6283 -0.7841 -2.4353 0.9791
-4.5224 -1.2768 -2.4378 0.9790
-2.5112 3.7208 -2.4586 0.9797
-2.8893 3.4232 -2.4535 0.9798
-3.0079 3.3156 -2.4519 0.9798
-3.1227 3.2039 -2.4504 0.9798
-3.3399 2.9690 -2.4476 0.9798
-3.6333 2.5902 -2.4439 0.9799
-3.7220 2.4574 -2.4428 0.9799
-3.8059 2.3218 -2.4418 0.9799
-3.8851 2.1833 -2.4409 0.9799
-4.0286 1.8987 -2.4393 0.9799
-4.0928 1.7529 -2.4386 0.9799
-4.1518 1.6049 -2.4380 0.9799
-4.2056 1.4551 -2.4374 0.9799
-4.2542 1.3035 -2.4370 0.9799
-4.2975 1.1503 -2.4366 0.9799
-4.3354 0.9957 -2.4364 0.9799
-4.4165 0.5254 -2.4360 0.9799
-4.4326 0.3671 -2.4361 0.9799
-4.4476 -0.1099 -2.4368 0.9799
-4.4416 -0.2690 -2.4371 0.9799
-4.4300 -0.4278 -2.4376 0.9799
-4.3902 -0.7438 -2.4388 0.9799
-4.3285 -1.0564 -2.4403 0.9799
-2.3844 3.5330 -2.4609 0.9805
-2.5075 3.4431 -2.4592 0.9805
-2.6273 3.3490 -2.4576 0.9805
-2.7437 3.2508 -2.4560 0.9805
-2.8565 3.1486 -2.4545 0.9806
-2.9656 3.0426 -2.4531 0.9806
-3.1721 2.8197 -2.4504 0.9806
-3.4509 2.4602 -2.4469 0.9806
-3.6151 2.2053 -2.4449 0.9806
-3.6903 2.0739 -2.4440 0.9806
-3.7609 1.9399 -2.4432 0.9806
-3.8267 1.8036 -2.4425 0.9807
-3.8877 1.6651 -2.4418 0.9807
-4.1184 0.9459 -2.4397 0.9807
-4.1493 0.7979 -2.4395 0.9807
-4.1750 0.6489 -2.4394 0.9807
-4.2108 0.3487 -2.4394 0.9807
-4.2256 0.0468 -2.4398 0.9807
-4.2250 -0.1044 -2.4401 0.9807
-4.1703 -0.7065 -2.4421 0.9807
-4.1435 -0.8555 -2.4427 0.9806
-4.1115 -1.0035 -2.4435 0.9806
