ply
format ascii 1.0
element vertex 486
property float32 x
property float32 y
property float32 z
property float32 I
end_header
0.7836 -21.4116 3.7780 0.9167
1.5543 -21.3995 3.7832 0.9165
32.5899 -13.1906 6.1993 0.8669
43.6507 -14.1144 8.0892 0.8300
44.6730 -12.6919 8.1888 0.8281
1.5542 -21.3988 3.2868 0.9168
31.3864 -24.9682 6.1441 0.8502
46.5237 -13.2177 7.4092 0.8222
0.7835 -21.4091 2.7898 0.9172
2.3453 -21.5445 2.8221 0.9163
3.2098 -22.0806 2.9056 0.9139
31.3909 -26.8682 5.3806 0.8465
33.4271 -24.6845 5.4111 0.8457
36.5770 -25.0315 5.7717 0.8363
32.5630 -13.1797 4.5745 0.8679
46.4744 -15.0275 6.3604 0.8212
46.4968 -13.2100 6.2945 0.8229
1.5541 -21.3974 2.3037 0.9173
2.3454 -21.5457 2.3273 0.9165
3.2111 -22.0892 2.3969 0.9141
31.4579 -35.9273 5.1278 0.8252
31.4355 -33.4008 4.9253 0.8315
31.4149 -31.0635 4.7441 0.8372
31.3957 -28.8895 4.5814 0.8423
31.3779 -26.8571 4.4351 0.8469
36.5764 -25.0311 4.7593 0.8367
45.1133 -20.1743 5.3067 0.8197
32.5517 -13.1751 3.7709 0.8683
2.3455 -21.5469 1.8348 0.9167
31.3825 -28.8773 3.6102 0.8427
31.3651 -26.8461 3.4949 0.8473
31.3510 -24.9400 3.3913 0.8514
36.5759 -25.0308 3.7519 0.8370
32.5405 -13.1706 2.9717 0.8686
0.7833 -21.4053 1.3282 0.9177
2.3457 -21.5480 1.3441 0.9168
31.4070 -33.3706 2.8417 0.8322
31.3875 -31.0364 2.7372 0.8379
31.3523 -26.8352 2.5591 0.8476
31.3395 -24.9309 2.4833 0.8517
36.5754 -25.0304 2.7483 0.8373
0.7833 -21.4041 0.8446 0.9178
3.2148 -22.1148 0.8812 0.9144
31.3561 -28.8531 1.6802 0.8432
31.3396 -26.8243 1.6266 0.8478
31.3280 -24.9218 1.5785 0.8519
33.4253 -24.6831 1.6384 0.8468
36.5749 -25.0300 1.7476 0.8374
40.1790 -25.4271 1.8749 0.8267
32.5182 -13.1616 1.3833 0.8690
3.2160 -22.1232 0.3776 0.9144
31.3787 -33.3405 0.7734 0.8326
31.3430 -28.8410 0.7195 0.8433
31.3166 -24.9127 0.6760 0.8521
33.4248 -24.6828 0.7019 0.8469
1.5539 -21.3941 -0.1208 0.9178
3.2172 -22.1317 -0.1259 0.9144
31.3841 -35.8429 -0.2682 0.8265
31.3647 -33.3256 -0.2577 0.8327
31.3142 -26.8026 -0.2321 0.8480
36.5738 -25.0293 -0.2495 0.8375
2.3462 -21.5526 -0.6105 0.9169
17.0107 -45.2049 -1.3600 0.8243
31.3899 -38.5606 -1.4001 0.8196
31.3694 -35.8262 -1.3408 0.8265
31.3506 -33.3106 -1.2880 0.8327
31.3168 -28.8169 -1.1983 0.8434
31.2938 -24.8945 -1.1260 0.8521
36.5732 -25.0289 -1.2479 0.8375
2.3463 -21.5538 -1.0995 0.9168
16.9959 -45.1656 -2.4473 0.8243
17.6654 -42.2724 -2.3235 0.8324
31.3365 -33.2956 -2.3188 0.8327
31.3195 -30.9692 -2.2337 0.8383
31.3037 -28.8048 -2.1574 0.8433
40.1765 -25.4255 -2.4113 0.8266
37.6571 -18.4906 -2.1276 0.8453
37.6689 -16.8452 -2.0927 0.8477
32.4738 -13.1436 -1.7767 0.8691
37.6070 -13.6708 -2.0294 0.8519
0.7831 -21.3980 -1.5700 0.9177
2.3464 -21.5550 -1.5898 0.9167
6.0986 -33.4604 -2.4938 0.8725
9.1577 -35.5478 -2.6915 0.8631
10.4983 -35.4310 -2.7095 0.8622
15.8701 -34.4436 -2.7807 0.8589
17.2042 -34.0634 -2.7981 0.8581
18.5298 -33.6290 -2.8153 0.8573
19.8447 -33.1404 -2.8323 0.8565
21.1461 -32.5971 -2.8489 0.8557
27.3586 -29.0690 -2.9269 0.8521
28.5232 -28.2041 -2.9412 0.8514
29.8754 -23.7662 -2.7991 0.8580
30.8325 -22.7684 -2.8103 0.8575
31.7496 -21.7278 -2.8209 0.8570
33.4529 -19.5241 -2.8400 0.8561
34.9681 -17.1702 -2.8564 0.8554
35.6501 -15.9424 -2.8634 0.8550
32.2941 -13.0709 -2.5545 0.8696
36.8531 -13.3967 -2.8751 0.8545
37.3710 -12.0839 -2.8798 0.8543
5.5216 -25.1391 -2.4710 0.9017
9.8461 -26.1654 -2.6840 0.8937
12.7836 -25.3108 -2.7223 0.8923
13.7469 -24.9487 -2.7347 0.8918
14.6995 -24.5479 -2.7469 0.8914
16.5654 -23.6313 -2.7706 0.8905
17.4752 -23.1159 -2.7820 0.8901
18.3673 -22.5631 -2.7931 0.8897
20.0911 -21.3471 -2.8144 0.8889
24.6554 -16.8729 -2.8683 0.8869
25.3102 -16.0174 -2.8756 0.8866
25.9306 -15.1338 -2.8824 0.8863
26.5152 -14.2236 -2.8887 0.8861
27.5719 -12.3299 -2.8997 0.8857
29.2023 -8.2966 -2.9145 0.8852
0.7380 -20.1666 -2.3971 0.9219
1.4680 -20.2110 -2.4071 0.9216
3.7018 -20.3101 -2.4523 0.9202
5.4945 -21.3280 -2.6162 0.9151
6.2821 -21.2014 -2.6267 0.9148
7.8491 -20.8584 -2.6473 0.9141
8.6262 -20.6419 -2.6575 0.9138
12.3972 -19.1106 -2.7059 0.9123
13.1196 -18.7157 -2.7150 0.9120
14.5221 -17.8396 -2.7324 0.9115
15.1998 -17.3592 -2.7408 0.9112
16.5012 -16.3167 -2.7566 0.9108
17.1227 -15.7558 -2.7640 0.9105
17.7229 -15.1694 -2.7711 0.9103
18.8551 -13.9236 -2.7842 0.9099
19.8887 -12.5864 -2.7958 0.9095
20.8153 -11.1660 -2.8058 0.9092
21.2360 -10.4273 -2.8102 0.9091
22.6154 -7.3127 -2.8233 0.9087
1.3055 -17.9730 -2.5533 0.9298
1.9569 -17.9766 -2.5621 0.9296
2.6103 -17.9564 -2.5710 0.9293
5.8741 -17.4919 -2.6144 0.9282
7.7956 -16.9191 -2.6395 0.9275
10.8505 -15.4787 -2.6784 0.9265
12.5503 -14.3333 -2.6994 0.9259
15.0752 -11.9924 -2.7294 0.9251
15.5255 -11.4649 -2.7346 0.9250
16.7516 -9.7767 -2.7482 0.9246
17.4572 -8.5719 -2.7556 0.9244
17.7743 -7.9485 -2.7588 0.9244
18.0668 -7.3124 -2.7616 0.9243
18.5757 -6.0064 -2.7661 0.9242
0.5636 -15.3994 -2.5386 0.9394
2.2366 -15.3857 -2.5613 0.9389
2.7960 -15.3402 -2.5688 0.9387
3.3549 -15.2742 -2.5762 0.9386
4.4682 -15.0799 -2.5910 0.9382
8.2320 -13.7472 -2.6397 0.9371
9.7317 -12.8729 -2.6585 0.9367
10.2104 -12.5429 -2.6644 0.9365
11.1311 -11.8270 -2.6756 0.9363
11.9977 -11.0399 -2.6859 0.9360
12.4087 -10.6209 -2.6908 0.9359
12.8040 -10.1857 -2.6953 0.9358
13.1827 -9.7348 -2.6997 0.9357
13.5442 -9.2690 -2.7037 0.9356
13.8879 -8.7889 -2.7075 0.9355
15.0720 -6.7401 -2.7199 0.9353
15.3177 -6.1997 -2.7223 0.9352
15.5422 -5.6498 -2.7243 0.9352
0.4931 -13.4733 -2.5341 0.9466
0.9793 -13.4820 -2.5408 0.9465
1.4667 -13.4730 -2.5474 0.9463
2.4426 -13.4016 -2.5605 0.9461
3.4156 -13.2584 -2.5734 0.9458
3.8993 -13.1598 -2.5798 0.9457
4.3801 -13.0431 -2.5861 0.9455
4.8575 -12.9084 -2.5924 0.9454
6.2613 -12.3971 -2.6105 0.9450
6.7175 -12.1913 -2.6163 0.9449
9.2816 -10.6002 -2.6483 0.9443
9.6736 -10.2784 -2.6530 0.9442
10.4215 -9.5895 -2.6619 0.9440
10.7759 -9.2234 -2.6661 0.9439
11.7546 -8.0442 -2.6772 0.9437
12.3306 -7.1965 -2.6835 0.9435
13.6498 -4.4137 -2.6964 0.9433
13.8059 -3.9223 -2.6976 0.9433
0.4379 -11.9642 -2.5307 0.9522
0.8693 -11.9684 -2.5365 0.9521
1.3017 -11.9570 -2.5424 0.9520
1.7342 -11.9298 -2.5482 0.9519
2.1665 -11.8867 -2.5540 0.9518
2.5979 -11.8278 -2.5598 0.9517
3.0278 -11.7530 -2.5655 0.9516
3.4556 -11.6622 -2.5711 0.9515
3.8806 -11.5556 -2.5767 0.9514
4.7201 -11.2949 -2.5876 0.9512
5.1333 -11.1410 -2.5929 0.9511
6.3393 -10.5865 -2.6083 0.9508
7.1092 -10.1415 -2.6180 0.9506
8.2006 -9.3657 -2.6314 0.9504
8.5452 -9.0794 -2.6355 0.9503
8.8793 -8.7799 -2.6395 0.9502
9.2022 -8.4676 -2.6433 0.9502
9.5135 -8.1428 -2.6470 0.9501
9.8126 -7.8060 -2.6504 0.9500
10.3724 -7.0983 -2.6568 0.9499
10.8777 -6.3485 -2.6623 0.9498
11.3251 -5.5609 -2.6669 0.9497
11.5262 -5.1544 -2.6689 0.9497
11.7117 -4.7402 -2.6707 0.9497
11.8812 -4.3190 -2.6722 0.9496
12.0346 -3.8914 -2.6735 0.9496
0.3934 -10.7487 -2.5279 0.9568
0.7808 -10.7500 -2.5331 0.9567
1.1689 -10.7372 -2.5384 0.9566
1.5570 -10.7102 -2.5436 0.9565
2.7164 -10.5442 -2.5591 0.9562
3.0995 -10.4605 -2.5641 0.9562
4.2309 -10.1243 -2.5789 0.9559
4.6003 -9.9842 -2.5836 0.9558
4.9649 -9.8303 -2.5883 0.9558
5.3242 -9.6626 -2.5929 0.9557
6.0246 -9.2870 -2.6017 0.9555
6.6972 -8.8589 -2.6100 0.9554
7.3379 -8.3803 -2.6179 0.9553
7.9425 -7.8536 -2.6251 0.9551
8.2301 -7.5731 -2.6285 0.9551
8.5073 -7.2815 -2.6318 0.9550
9.2717 -6.3451 -2.6405 0.9549
9.9269 -5.3251 -2.6475 0.9548
10.2981 -4.6052 -2.6513 0.9547
10.4630 -4.2349 -2.6528 0.9547
10.6139 -3.8583 -2.6542 0.9547
10.7504 -3.4761 -2.6554 0.9546
0.7080 -9.7471 -2.5304 0.9604
1.0596 -9.7336 -2.5351 0.9604
2.1122 -9.6163 -2.5492 0.9601
2.4606 -9.5515 -2.5538 0.9601
3.8298 -9.1644 -2.5717 0.9598
4.8169 -8.7420 -2.5843 0.9596
5.4488 -8.3994 -2.5923 0.9595
6.0553 -8.0098 -2.5998 0.9594
6.9093 -7.3412 -2.6102 0.9592
7.1772 -7.0969 -2.6134 0.9592
8.1548 -6.0219 -2.6247 0.9590
9.4454 -3.8229 -2.6383 0.9588
9.7038 -3.1377 -2.6406 0.9587
9.8134 -2.7880 -2.6414 0.9587
0.3260 -8.9086 -2.5237 0.9636
0.6469 -8.9065 -2.5280 0.9636
0.9681 -8.8927 -2.5323 0.9635
1.6094 -8.8302 -2.5409 0.9634
2.2466 -8.7207 -2.5494 0.9633
3.1870 -8.4692 -2.5617 0.9631
4.6836 -7.8215 -2.5808 0.9628
5.2473 -7.4855 -2.5879 0.9627
5.5200 -7.3017 -2.5913 0.9627
5.7860 -7.1077 -2.5945 0.9626
6.0448 -6.9036 -2.5977 0.9626
6.5397 -6.4666 -2.6036 0.9625
7.0017 -5.9928 -2.6090 0.9624
7.6263 -5.2191 -2.6161 0.9623
7.8150 -4.9457 -2.6182 0.9623
7.9935 -4.6652 -2.6201 0.9623
8.4644 -3.7852 -2.6249 0.9622
8.5991 -3.4804 -2.6262 0.9622
8.8337 -2.8564 -2.6282 0.9621
0.5950 -8.1910 -2.5260 0.9662
0.8902 -8.1772 -2.5300 0.9662
1.1852 -8.1527 -2.5340 0.9661
1.4795 -8.1175 -2.5379 0.9661
2.3548 -7.9473 -2.5495 0.9659
2.9279 -7.7805 -2.5569 0.9658
3.7636 -7.4516 -2.5677 0.9657
4.0342 -7.3214 -2.5711 0.9656
4.3002 -7.1812 -2.5745 0.9656
4.5611 -7.0310 -2.5778 0.9655
4.8166 -6.8711 -2.5809 0.9655
6.2153 -5.7191 -2.5979 0.9653
6.9941 -4.7864 -2.6067 0.9652
7.3299 -4.2779 -2.6104 0.9651
7.4834 -4.0143 -2.6120 0.9651
7.7606 -3.4704 -2.6148 0.9650
7.8837 -3.1909 -2.6159 0.9650
7.9964 -2.9068 -2.6170 0.9650
0.8231 -7.5604 -2.5280 0.9685
1.0956 -7.5369 -2.5316 0.9684
1.6386 -7.4600 -2.5389 0.9683
1.9081 -7.4067 -2.5424 0.9683
2.4416 -7.2706 -2.5494 0.9682
2.9652 -7.0954 -2.5562 0.9681
3.2222 -6.9934 -2.5595 0.9681
3.9705 -6.6307 -2.5690 0.9679
4.2110 -6.4914 -2.5720 0.9679
4.9011 -6.0206 -2.5806 0.9678
5.1194 -5.8467 -2.5832 0.9678
5.3314 -5.6647 -2.5858 0.9677
5.5366 -5.4747 -2.5882 0.9677
5.9258 -5.0720 -2.5928 0.9677
6.1091 -4.8598 -2.5949 0.9676
6.6106 -4.1835 -2.6005 0.9676
6.7608 -3.9458 -2.6021 0.9675
7.0342 -3.4540 -2.6049 0.9675
7.2704 -2.9427 -2.6072 0.9675
7.5517 -2.1455 -2.6096 0.9674
0.7645 -7.0227 -2.5262 0.9704
1.2701 -6.9683 -2.5330 0.9704
1.7717 -6.8772 -2.5396 0.9703
2.0202 -6.8178 -2.5429 0.9702
2.7521 -6.5855 -2.5524 0.9701
2.9904 -6.4902 -2.5555 0.9701
3.2254 -6.3861 -2.5585 0.9701
3.9067 -6.0223 -2.5671 0.9700
4.7479 -5.4225 -2.5774 0.9698
4.9442 -5.2532 -2.5798 0.9698
5.1342 -5.0767 -2.5820 0.9698
5.3176 -4.8931 -2.5842 0.9698
5.4943 -4.7027 -2.5862 0.9697
5.6640 -4.5057 -2.5882 0.9697
6.1280 -3.8780 -2.5933 0.9697
6.3976 -3.4319 -2.5962 0.9696
6.5198 -3.2014 -2.5974 0.9696
6.6335 -2.9664 -2.5986 0.9696
6.7384 -2.7273 -2.5996 0.9696
6.9986 -1.9883 -2.6018 0.9696
0.2404 -6.5670 -2.5183 0.9722
0.4767 -6.5625 -2.5215 0.9722
0.7130 -6.5494 -2.5247 0.9722
0.9489 -6.5277 -2.5278 0.9721
1.4187 -6.4587 -2.5341 0.9721
2.7867 -6.0480 -2.5519 0.9719
3.2207 -5.8450 -2.5574 0.9718
3.6395 -5.6102 -2.5627 0.9718
3.8423 -5.4813 -2.5652 0.9717
4.2339 -5.2010 -2.5700 0.9717
4.4219 -5.0501 -2.5723 0.9717
4.6044 -4.8922 -2.5745 0.9716
4.9516 -4.5562 -2.5786 0.9716
5.1158 -4.3787 -2.5805 0.9716
5.2735 -4.1951 -2.5823 0.9715
5.7047 -3.6102 -2.5871 0.9715
5.9553 -3.1946 -2.5898 0.9715
6.1745 -2.7611 -2.5920 0.9714
6.2719 -2.5385 -2.5929 0.9714
6.3609 -2.3123 -2.5937 0.9714
0.4461 -6.1418 -2.5203 0.9737
0.6672 -6.1290 -2.5233 0.9737
0.8879 -6.1083 -2.5262 0.9737
1.1081 -6.0795 -2.5292 0.9736
1.7616 -5.9453 -2.5378 0.9736
2.1887 -5.8161 -2.5434 0.9735
2.6061 -5.6560 -2.5487 0.9734
2.8104 -5.5644 -2.5514 0.9734
3.2089 -5.3589 -2.5564 0.9734
3.4026 -5.2451 -2.5588 0.9733
3.5921 -5.1242 -2.5612 0.9733
3.7771 -4.9963 -2.5635 0.9733
3.9576 -4.8616 -2.5657 0.9733
4.1331 -4.7203 -2.5678 0.9732
4.9278 -3.9201 -2.5771 0.9732
5.0685 -3.7429 -2.5787 0.9731
5.3301 -3.3731 -2.5816 0.9731
5.5639 -2.9846 -2.5841 0.9731
5.6698 -2.7840 -2.5852 0.9731
5.7683 -2.5795 -2.5861 0.9731
5.9423 -2.1601 -2.5877 0.9730
6.0176 -1.9458 -2.5884 0.9730
0.8334 -5.7331 -2.5248 0.9750
1.0399 -5.7056 -2.5276 0.9750
1.4500 -5.6283 -2.5330 0.9750
1.8542 -5.5212 -2.5383 0.9749
3.0096 -5.0260 -2.5531 0.9748
3.1910 -4.9190 -2.5554 0.9747
3.3686 -4.8054 -2.5576 0.9747
3.7109 -4.5586 -2.5618 0.9747
3.8753 -4.4258 -2.5638 0.9747
4.0348 -4.2870 -2.5657 0.9746
4.3382 -3.9918 -2.5693 0.9746
4.4817 -3.8359 -2.5709 0.9746
4.6194 -3.6747 -2.5725 0.9746
4.9960 -3.1617 -2.5767 0.9745
5.1087 -2.9816 -2.5779 0.9745
5.3139 -2.6093 -2.5800 0.9745
5.4061 -2.4176 -2.5809 0.9745
5.6394 -1.8235 -2.5830 0.9745
0.3941 -5.4262 -2.5183 0.9763
0.5894 -5.4142 -2.5209 0.9763
1.1720 -5.3357 -2.5287 0.9762
1.3643 -5.2955 -2.5312 0.9762
1.5551 -5.2483 -2.5337 0.9762
1.9316 -5.1330 -2.5386 0.9761
2.6564 -4.8210 -2.5479 0.9760
3.0008 -4.6257 -2.5522 0.9760
3.1675 -4.5186 -2.5543 0.9760
3.3304 -4.4054 -2.5563 0.9760
3.6435 -4.1611 -2.5601 0.9759
3.9382 -3.8942 -2.5637 0.9759
4.0782 -3.7526 -2.5653 0.9759
4.4659 -3.2979 -2.5697 0.9758
4.8016 -2.8023 -2.5734 0.9758
4.9012 -2.6291 -2.5744 0.9758
5.0808 -2.2721 -2.5762 0.9758
5.1606 -2.0887 -2.5770 0.9758
5.3588 -1.5225 -2.5787 0.9757
0.3718 -5.1187 -2.5175 0.9774
0.5560 -5.1071 -2.5199 0.9774
0.7398 -5.0888 -2.5224 0.9774
0.9230 -5.0638 -2.5248 0.9773
1.1053 -5.0322 -2.5273 0.9773
1.2865 -4.9940 -2.5296 0.9773
1.9957 -4.7757 -2.5389 0.9772
2.6680 -4.4555 -2.5474 0.9771
2.9857 -4.2591 -2.5514 0.9771
3.4338 -3.9216 -2.5569 0.9770
4.0916 -3.2549 -2.5646 0.9770
4.3190 -2.9557 -2.5671 0.9770
4.4243 -2.7999 -2.5683 0.9769
4.5239 -2.6403 -2.5693 0.9769
4.7866 -2.1405 -2.5720 0.9769
4.9305 -1.7923 -2.5733 0.9769
4.9927 -1.6144 -2.5739 0.9769
5.0483 -1.4342 -2.5743 0.9769
0.5255 -4.8271 -2.5190 0.9784
0.8723 -4.7857 -2.5236 0.9783
1.0446 -4.7556 -2.5259 0.9783
1.7209 -4.5730 -2.5348 0.9782
1.8856 -4.5120 -2.5369 0.9782
2.0481 -4.4450 -2.5390 0.9782
2.3657 -4.2933 -2.5430 0.9782
2.5203 -4.2088 -2.5450 0.9781
2.9648 -3.9218 -2.5505 0.9781
3.1059 -3.8153 -2.5522 0.9781
3.2430 -3.7037 -2.5539 0.9781
3.3760 -3.5871 -2.5555 0.9780
3.6291 -3.3394 -2.5585 0.9780
4.0780 -2.7908 -2.5636 0.9780
4.4423 -2.1813 -2.5674 0.9779
4.5192 -2.0209 -2.5682 0.9779
4.5900 -1.8578 -2.5688 0.9779
4.6548 -1.6921 -2.5694 0.9779
2.6725 -0.7593 -1.4413 0.9876
0.1679 -4.5865 -2.5137 0.9793
1.3118 -4.4271 -2.5290 0.9792
1.4712 -4.3808 -2.5310 0.9791
1.7847 -4.2707 -2.5351 0.9791
2.2389 -4.0632 -2.5409 0.9791
2.6686 -3.8068 -2.5463 0.9790
2.9388 -3.6101 -2.5496 0.9790
3.0685 -3.5044 -2.5511 0.9790
3.1942 -3.3939 -2.5527 0.9790
3.3160 -3.2788 -2.5541 0.9790
3.4335 -3.1593 -2.5555 0.9789
3.5466 -3.0355 -2.5568 0.9789
3.6550 -2.9076 -2.5580 0.9789
3.7588 -2.7757 -2.5592 0.9789
3.9517 -2.5008 -2.5613 0.9789
4.0404 -2.3581 -2.5623 0.9789
4.1239 -2.2122 -2.5631 0.9789
4.2020 -2.0633 -2.5639 0.9789
4.2746 -1.9116 -2.5646 0.9789
4.3416 -1.7572 -2.5653 0.9789
4.4583 -1.4416 -2.5663 0.9789
0.1592 -4.3500 -2.5132 0.9801
0.3157 -4.3452 -2.5153 0.9801
0.4719 -4.3347 -2.5174 0.9801
0.6278 -4.3185 -2.5195 0.9800
1.0914 -4.2362 -2.5256 0.9800
1.2438 -4.1976 -2.5276 0.9800
1.5443 -4.1038 -2.5315 0.9800
1.6920 -4.0488 -2.5334 0.9799
2.1223 -3.8516 -2.5389 0.9799
2.2608 -3.7754 -2.5407 0.9799
2.3965 -3.6943 -2.5424 0.9799
2.5293 -3.6081 -2.5440 0.9799
2.7853 -3.4215 -2.5472 0.9798
2.9081 -3.3211 -2.5486 0.9798
3.0271 -3.2164 -2.5501 0.9798
3.1424 -3.1072 -2.5514 0.9798
3.2537 -2.9939 -2.5527 0.9798
3.3607 -2.8765 -2.5540 0.9798
3.4635 -2.7552 -2.5552 0.9798
3.5617 -2.6302 -2.5563 0.9798
3.6554 -2.5016 -2.5573 0.9797
3.8283 -2.2343 -2.5592 0.9797
3.9813 -1.9549 -2.5607 0.9797
4.0500 -1.8111 -2.5614 0.9797
4.1134 -1.6649 -2.5620 0.9797
