ply
format ascii 1.0
element vertex 487
property float32 x
property float32 y
property float32 z
property float32 I
end_header
45.1953 -11.1025 8.2061 0.8278
43.7078 -9.0843 7.8716 0.8342
45.8603 -7.8232 8.2032 0.8278
46.1100 -6.1690 8.2029 0.8278
46.5252 -1.1685 8.2062 0.8278
46.5517 0.5052 8.2088 0.8277
43.8957 3.6419 7.7666 0.8362
46.0967 7.1887 8.2263 0.8274
43.9403 8.4809 7.8909 0.8338
45.5330 10.4994 8.2394 0.8271
45.1676 12.1409 8.2470 0.8270
44.0102 13.5442 8.1194 0.8294
45.0439 15.6562 8.4086 0.8239
31.8455 24.6226 7.0979 0.8492
46.5610 -9.6773 7.2853 0.8249
46.5828 -7.9465 7.2393 0.8259
46.6045 -6.2351 7.2032 0.8267
46.6263 -4.5387 7.1767 0.8273
44.7748 -2.7380 6.8721 0.8340
46.6702 -1.1722 7.1519 0.8279
46.6924 0.5067 7.1534 0.8278
46.7608 5.5786 7.2143 0.8265
46.8586 12.5954 7.4333 0.8217
46.5132 -11.4263 6.2371 0.8243
46.5353 -9.6720 6.1894 0.8255
46.4627 -6.2162 6.1043 0.8277
46.5288 -1.1686 6.0609 0.8288
46.5732 2.1819 6.0715 0.8286
46.6415 7.2737 6.1471 0.8266
46.7825 9.0295 6.2045 0.8251
46.8070 10.7932 6.2552 0.8239
46.8579 14.4206 6.3843 0.8206
44.9907 -2.7512 4.8402 0.8342
44.6773 -2.7320 0.7561 0.8360
44.9427 15.6210 0.8037 0.8267
44.5473 -2.7241 -0.2513 0.8365
44.7889 15.5676 -0.2670 0.8272
37.7342 -9.2697 -1.0941 0.8560
37.7440 -7.8448 -1.0855 0.8570
37.7538 -6.4404 -1.0784 0.8579
37.7729 -3.6769 -1.0686 0.8591
37.7824 -2.3104 -1.0659 0.8594
37.7918 -0.9492 -1.0645 0.8596
37.8011 0.4102 -1.0645 0.8596
37.8292 4.5130 -1.0727 0.8586
37.8215 7.2999 -1.0846 0.8572
37.8579 8.7296 -1.0940 0.8560
37.8778 11.6569 -1.1159 0.8533
37.8354 17.9234 -1.1788 0.8458
37.9436 21.4402 -1.2272 0.8400
37.9292 23.2698 -1.2530 0.8369
37.9688 25.2167 -1.2834 0.8333
37.9823 27.2432 -1.3162 0.8294
37.9965 29.3785 -1.3524 0.8251
38.0115 31.6378 -1.3926 0.8205
37.7229 -9.2669 -1.9700 0.8559
37.7427 -6.4385 -1.9417 0.8578
37.7523 -5.0508 -1.9316 0.8585
37.7619 -3.6758 -1.9241 0.8590
37.7714 -2.3097 -1.9191 0.8594
37.7808 -0.9489 -1.9166 0.8595
37.7901 0.4101 -1.9166 0.8595
37.8087 3.1368 -1.9240 0.8590
37.8180 4.5117 -1.9315 0.8585
37.8275 5.8991 -1.9416 0.8578
37.8466 8.7270 -1.9697 0.8559
37.8563 10.1756 -1.9880 0.8547
37.8866 14.7156 -2.0612 0.8498
37.8232 17.9176 -2.1224 0.8457
37.9308 21.4330 -2.2095 0.8399
37.9162 23.2618 -2.2559 0.8368
37.9555 25.2079 -2.3107 0.8332
31.8269 24.6082 -2.0403 0.8512
37.9970 31.6257 -2.5071 0.8204
37.7116 -9.2641 -2.8473 0.8558
37.7603 -2.3090 -2.7738 0.8592
37.7697 -0.9486 -2.7702 0.8594
37.7791 0.4100 -2.7702 0.8594
37.7884 1.7703 -2.7738 0.8592
37.7976 3.1359 -2.7809 0.8589
37.4682 8.6397 -2.8193 0.8571
36.5340 11.2434 -2.8027 0.8579
35.3880 13.7451 -2.7836 0.8588
34.7398 14.9521 -2.7731 0.8593
32.5160 18.3733 -2.7384 0.8609
31.6886 19.4411 -2.7259 0.8615
28.9483 24.0942 -2.7616 0.8598
26.5288 27.4262 -2.7978 0.8581
25.3777 28.1980 -2.7816 0.8589
21.7970 30.2165 -2.7318 0.8612
20.5687 30.7894 -2.7150 0.8620
19.3270 31.3124 -2.6980 0.8628
18.0741 31.7856 -2.6810 0.8636
29.2688 -7.1901 -2.8935 0.8859
29.2723 -6.0840 -2.8703 0.8868
29.2347 -1.7877 -2.8119 0.8890
29.2237 -0.7340 -2.8065 0.8892
29.2120 0.3170 -2.8047 0.8892
29.1866 2.4215 -2.8117 0.8890
29.1424 5.6247 -2.8494 0.8876
28.7807 7.7361 -2.8612 0.8871
25.4518 14.3816 -2.8066 0.8892
24.1852 16.0624 -2.7873 0.8899
23.5061 16.8599 -2.7772 0.8903
22.0636 18.3640 -2.7559 0.8911
21.3033 19.0687 -2.7449 0.8915
20.5192 19.7407 -2.7336 0.8919
16.2953 22.5896 -2.6741 0.8941
13.5758 23.8747 -2.6367 0.8955
23.1656 -4.8148 -2.8106 0.9091
23.4589 -3.1385 -2.8114 0.9091
23.5546 -2.2928 -2.8112 0.9091
23.6160 -1.4441 -2.8105 0.9091
23.0903 4.4566 -2.7934 0.9096
22.8813 5.2761 -2.7893 0.9097
22.3670 6.8834 -2.7799 0.9100
22.0629 7.6686 -2.7746 0.9102
21.7285 8.4396 -2.7689 0.9104
20.9716 9.9346 -2.7565 0.9108
20.1031 11.3593 -2.7428 0.9112
19.6292 12.0426 -2.7355 0.9114
19.1303 12.7052 -2.7279 0.9116
18.6073 13.3462 -2.7200 0.9119
16.9045 15.1313 -2.6950 0.9127
16.2961 15.6779 -2.6861 0.9129
15.0249 16.6947 -2.6680 0.9135
14.3645 17.1638 -2.6586 0.9138
12.9998 18.0212 -2.6395 0.9144
12.2979 18.4088 -2.6298 0.9147
10.8610 19.1004 -2.6100 0.9153
19.0429 -3.9579 -2.7558 0.9244
19.1766 -3.2713 -2.7564 0.9244
19.2830 -2.5798 -2.7565 0.9244
19.4132 -1.1871 -2.7558 0.9244
19.4369 -0.4882 -2.7549 0.9245
19.4014 0.9089 -2.7520 0.9245
19.1421 2.9852 -2.7450 0.9247
19.0016 3.6675 -2.7420 0.9248
18.8345 4.3430 -2.7387 0.9249
18.1779 6.3182 -2.7268 0.9252
16.5966 9.3780 -2.7010 0.9259
16.2129 9.9467 -2.6951 0.9260
15.8085 10.4990 -2.6889 0.9262
15.3840 11.0343 -2.6825 0.9264
14.9403 11.5516 -2.6758 0.9265
13.9986 12.5302 -2.6620 0.9269
13.4589 12.9483 -2.6462 0.9273
11.3690 14.6224 -2.6244 0.9279
9.6392 15.6169 -2.6003 0.9285
9.0429 15.9031 -2.5921 0.9288
16.4204 -1.5984 -2.7179 0.9353
16.4831 0.1789 -2.7156 0.9354
16.4578 0.7710 -2.7142 0.9354
16.3381 1.9492 -2.7106 0.9355
16.2441 2.5332 -2.7084 0.9355
16.1276 3.1128 -2.7059 0.9356
15.9887 3.6868 -2.7031 0.9356
15.6453 4.8148 -2.6967 0.9358
15.2167 5.9103 -2.6892 0.9360
14.4218 7.4782 -2.6762 0.9363
14.1183 7.9776 -2.6715 0.9364
13.4568 8.9372 -2.6612 0.9366
13.1001 9.3962 -2.6558 0.9367
11.9340 10.6821 -2.6385 0.9371
11.5155 11.0786 -2.6324 0.9373
11.0834 11.4583 -2.6262 0.9374
10.1510 12.1292 -2.6056 0.9379
8.7440 13.0890 -2.5932 0.9382
7.7392 13.6103 -2.5793 0.9385
13.8898 -3.4121 -2.6884 0.9434
14.1044 -2.4060 -2.6894 0.9434
14.1825 -1.8974 -2.6895 0.9434
14.2408 -1.3862 -2.6894 0.9434
14.2793 -0.8732 -2.6890 0.9434
14.2758 0.6688 -2.6862 0.9435
14.2350 1.1810 -2.6848 0.9435
14.1745 1.6910 -2.6831 0.9436
13.9950 2.7012 -2.6791 0.9436
13.8764 3.1997 -2.6767 0.9437
13.7388 3.6929 -2.6740 0.9437
13.4080 4.6603 -2.6681 0.9439
13.2153 5.1330 -2.6648 0.9439
13.0050 5.5974 -2.6612 0.9440
12.7774 6.0529 -2.6575 0.9441
12.2721 6.9344 -2.6494 0.9442
11.7030 7.7724 -2.6406 0.9444
11.3957 8.1737 -2.6360 0.9445
11.0742 8.5624 -2.6311 0.9446
9.2706 10.3009 -2.6048 0.9452
8.8750 10.6045 -2.5992 0.9453
8.4693 10.8927 -2.5934 0.9454
8.0540 11.1650 -2.5876 0.9455
7.6298 11.4211 -2.5817 0.9456
6.7576 11.8841 -2.5696 0.9459
12.4392 -2.1220 -2.6674 0.9497
12.5595 -1.2226 -2.6674 0.9497
12.6105 -0.3167 -2.6664 0.9497
12.5921 0.5899 -2.6646 0.9498
12.5568 1.0418 -2.6634 0.9498
12.3483 2.3833 -2.6584 0.9499
12.1250 3.2591 -2.6539 0.9500
11.9886 3.6895 -2.6514 0.9500
11.8361 4.1139 -2.6487 0.9501
11.6677 4.5319 -2.6458 0.9501
11.4838 4.9427 -2.6427 0.9502
11.2846 5.3457 -2.6395 0.9502
9.7917 7.5709 -2.6163 0.9507
9.4973 7.9048 -2.6119 0.9507
8.2066 9.1186 -2.5931 0.9511
7.8583 9.3897 -2.5882 0.9512
7.5009 9.6473 -2.5831 0.9513
7.1350 9.8910 -2.5780 0.9514
6.7610 10.1205 -2.5727 0.9515
6.3796 10.3358 -2.5674 0.9516
5.6265 9.8948 -2.4061 0.9545
11.0379 -2.2941 -2.6496 0.9547
11.1145 -1.8960 -2.6499 0.9547
11.1758 -1.4952 -2.6500 0.9547
11.2219 -1.0924 -2.6499 0.9547
11.2679 -0.2830 -2.6491 0.9547
11.2678 0.1223 -2.6483 0.9548
11.1752 1.3332 -2.6450 0.9548
10.9457 2.5240 -2.6400 0.9549
10.8395 2.9136 -2.6379 0.9549
10.7187 3.2987 -2.6357 0.9550
10.4341 4.0527 -2.6307 0.9550
9.9040 5.1356 -2.6220 0.9552
9.4855 5.8194 -2.6154 0.9553
9.0179 6.4682 -2.6082 0.9554
8.7668 6.7784 -2.6045 0.9555
8.5047 7.0786 -2.6005 0.9556
8.2319 7.3684 -2.5965 0.9556
7.3544 8.1717 -2.5838 0.9558
6.3980 8.8693 -2.5702 0.9561
6.0639 9.0770 -2.5656 0.9561
5.0485 8.8784 -2.4004 0.9589
9.8828 -2.4278 -2.6349 0.9588
9.9654 -2.0712 -2.6354 0.9588
10.0344 -1.7118 -2.6356 0.9588
4.0560 -0.5427 -1.0595 0.9832
3.9214 -0.3817 -1.0201 0.9839
3.9261 -0.2401 -1.0184 0.9839
3.9238 -0.0986 -1.0163 0.9839
3.9227 0.1838 -1.0168 0.9839
4.0138 0.3330 -1.0428 0.9835
10.0910 1.2039 -2.6313 0.9589
9.9676 1.9238 -2.6284 0.9589
9.8857 2.2795 -2.6267 0.9589
9.6821 2.9797 -2.6229 0.9590
9.4268 3.6615 -2.6184 0.9591
9.2803 3.9943 -2.6159 0.9591
9.1215 4.3210 -2.6133 0.9592
8.5746 5.2605 -2.6046 0.9593
7.9281 6.1299 -2.5948 0.9594
6.9280 7.1623 -2.5800 0.9597
6.3757 7.6182 -2.5721 0.9598
5.1572 7.7199 -2.4038 0.9624
4.5737 8.0433 -2.3957 0.9625
9.0734 -1.8858 -2.6235 0.9622
9.1362 -1.5585 -2.6238 0.9622
3.6142 -0.3518 -1.0280 0.9850
3.6167 -0.0908 -1.0242 0.9851
3.6652 0.3041 -1.0411 0.9848
3.7469 0.4470 -1.0682 0.9844
9.0035 2.0761 -2.6157 0.9623
8.5880 3.3357 -2.6081 0.9624
8.4553 3.6392 -2.6059 0.9625
8.3113 3.9372 -2.6035 0.9625
7.9911 4.5154 -2.5984 0.9626
7.8153 4.7947 -2.5956 0.9626
7.6294 5.0670 -2.5928 0.9626
7.4337 5.3319 -2.5898 0.9627
7.2285 5.5890 -2.5867 0.9627
6.7910 6.0787 -2.5802 0.9628
6.3198 6.5335 -2.5733 0.9629
6.0724 6.7472 -2.5697 0.9630
5.8176 6.9513 -2.5661 0.9630
5.5558 7.1456 -2.5624 0.9631
4.7078 7.0470 -2.3992 0.9654
4.4445 7.2007 -2.3955 0.9654
4.1762 7.3444 -2.3918 0.9655
3.4796 -0.5936 -1.0857 0.9853
3.3856 -0.3296 -1.0463 0.9859
3.3887 -0.0851 -1.0426 0.9859
3.3876 0.1587 -1.0431 0.9859
3.4068 0.2827 -1.0515 0.9858
3.4749 0.4146 -1.0764 0.9855
4.7967 0.7480 -1.4932 0.9799
8.3247 1.6067 -2.6078 0.9651
8.1786 2.1984 -2.6048 0.9652
8.0891 2.4894 -2.6032 0.9652
7.9888 2.7767 -2.6014 0.9652
7.6253 3.6122 -2.5952 0.9653
7.1720 4.4001 -2.5880 0.9654
7.0020 4.6503 -2.5854 0.9654
6.8231 4.8939 -2.5826 0.9655
6.0232 5.7947 -2.5707 0.9656
5.8037 6.0000 -2.5676 0.9657
5.1039 6.5644 -2.5575 0.9658
4.0845 6.6174 -2.3919 0.9680
7.6726 -1.5947 -2.6049 0.9675
3.1972 -0.4277 -1.0722 0.9865
3.2048 0.0348 -1.0654 0.9866
3.2016 0.2656 -1.0679 0.9865
3.2688 0.3900 -1.0943 0.9862
7.6790 1.4821 -2.5996 0.9676
7.5448 2.0280 -2.5970 0.9676
7.1573 3.0805 -2.5901 0.9677
6.6196 4.0611 -2.5815 0.9678
6.4632 4.2925 -2.5790 0.9678
5.9453 4.9484 -2.5712 0.9679
5.7573 5.1534 -2.5684 0.9680
5.5621 5.3511 -2.5656 0.9680
5.1512 5.7236 -2.5596 0.9681
4.7150 6.0642 -2.5534 0.9681
4.4883 6.2220 -2.5502 0.9682
3.5475 6.2387 -2.3856 0.9702
7.0529 -1.7326 -2.5972 0.9696
3.0989 -0.5286 -1.1242 0.9867
3.0696 -0.1877 -1.0997 0.9870
3.0714 -0.0771 -1.0987 0.9870
3.0684 0.1437 -1.0985 0.9870
3.7938 0.5916 -1.3731 0.9838
7.1185 1.3739 -2.5926 0.9697
7.0612 1.6282 -2.5914 0.9697
6.9947 1.8801 -2.5901 0.9697
6.9187 2.1292 -2.5887 0.9697
6.7396 2.6177 -2.5855 0.9698
6.6366 2.8564 -2.5838 0.9698
6.5249 3.0910 -2.5819 0.9698
6.4047 3.3211 -2.5800 0.9698
6.2762 3.5464 -2.5779 0.9698
5.9949 3.9815 -2.5735 0.9699
5.6828 4.3938 -2.5688 0.9699
5.5157 4.5909 -2.5663 0.9700
5.3417 4.7814 -2.5637 0.9700
5.1610 4.9652 -2.5611 0.9700
4.5813 5.4741 -2.5527 0.9701
4.3766 5.6289 -2.5498 0.9702
3.5045 5.6777 -2.3860 0.9721
6.5651 -1.6128 -2.5907 0.9715
2.9948 -0.6224 -1.1722 0.9870
2.9559 -0.5042 -1.1491 0.9872
2.9348 -0.3926 -1.1347 0.9874
2.9465 0.0320 -1.1292 0.9875
2.9386 0.2438 -1.1300 0.9874
6.6269 1.2791 -2.5864 0.9715
6.5120 1.7504 -2.5841 0.9715
6.3627 2.2115 -2.5814 0.9716
6.2754 2.4374 -2.5799 0.9716
6.1798 2.6598 -2.5782 0.9716
6.0761 2.8783 -2.5765 0.9716
5.9645 3.0928 -2.5747 0.9716
5.8451 3.3028 -2.5728 0.9717
5.5837 3.7084 -2.5687 0.9717
5.2937 4.0930 -2.5643 0.9717
5.1385 4.2768 -2.5620 0.9718
4.9767 4.4546 -2.5596 0.9718
4.8087 4.6262 -2.5571 0.9718
4.6346 4.7914 -2.5546 0.9718
4.4548 4.9499 -2.5520 0.9719
4.2695 5.1015 -2.5493 0.9719
3.8835 5.3836 -2.5438 0.9720
3.0711 5.4008 -2.3809 0.9737
2.8194 -0.3772 -1.1642 0.9878
2.8289 -0.1730 -1.1600 0.9878
2.8308 -0.0711 -1.1589 0.9878
2.8388 0.3387 -1.1701 0.9877
2.8711 0.4477 -1.1893 0.9875
6.1425 1.4164 -2.5799 0.9731
6.0193 1.8524 -2.5776 0.9731
5.5746 2.8906 -2.5700 0.9732
5.3448 3.2791 -2.5664 0.9733
5.2196 3.4665 -2.5644 0.9733
5.0875 3.6491 -2.5624 0.9733
4.8041 3.9985 -2.5581 0.9733
4.4963 4.3257 -2.5536 0.9734
4.3339 4.4805 -2.5512 0.9734
4.1660 4.6290 -2.5488 0.9734
3.9930 4.7711 -2.5463 0.9735
3.6325 5.0356 -2.5412 0.9735
3.4455 5.1576 -2.5386 0.9735
3.2271 5.2284 -2.5146 0.9738
2.7303 -0.2658 -1.1955 0.9881
2.7341 -0.1672 -1.1938 0.9881
2.7348 0.0297 -1.1919 0.9881
3.1712 0.6121 -1.4076 0.9860
5.6425 1.7365 -2.5729 0.9746
5.4976 2.1353 -2.5703 0.9746
5.4143 2.3303 -2.5689 0.9746
5.1224 2.8944 -2.5642 0.9747
4.8944 3.2505 -2.5606 0.9747
4.7708 3.4219 -2.5587 0.9747
4.3642 3.9064 -2.5526 0.9748
4.2173 4.0573 -2.5505 0.9748
3.9079 4.3422 -2.5460 0.9748
3.2329 4.8393 -2.5364 0.9749
3.0538 4.9476 -2.5339 0.9749
2.8705 5.0481 -2.5309 0.9750
2.6481 -0.3543 -1.2367 0.9883
2.6580 0.0288 -1.2304 0.9884
2.6507 0.4134 -1.2418 0.9882
5.4118 1.2479 -2.5708 0.9758
5.3614 1.4411 -2.5698 0.9758
5.2394 1.8211 -2.5676 0.9758
5.0051 2.3710 -2.5636 0.9759
4.8160 2.7213 -2.5605 0.9759
4.7120 2.8908 -2.5589 0.9759
4.6020 3.0564 -2.5572 0.9759
4.3643 3.3744 -2.5535 0.9760
4.2369 3.5265 -2.5516 0.9760
4.1042 3.6737 -2.5497 0.9760
3.8234 3.9527 -2.5456 0.9761
3.5235 4.2101 -2.5412 0.9761
3.3669 4.3303 -2.5390 0.9761
3.2061 4.4446 -2.5367 0.9761
3.0415 4.5528 -2.5344 0.9762
2.8732 4.6549 -2.5321 0.9762
2.6120 -0.5429 -1.3086 0.9882
2.6117 -0.2542 -1.2872 0.9884
2.6103 -0.1596 -1.2828 0.9884
2.6098 -0.0655 -1.2806 0.9884
2.6112 0.0283 -1.2810 0.9884
2.6443 0.5104 -1.3210 0.9881
5.0991 1.1758 -2.5669 0.9770
4.7166 2.2344 -2.5601 0.9770
4.5388 2.5646 -2.5572 0.9770
4.1137 3.1806 -2.5507 0.9771
3.9938 3.3241 -2.5489 0.9771
3.7391 3.5972 -2.5451 0.9771
3.6046 3.7265 -2.5431 0.9772
3.1746 4.0830 -2.5370 0.9772
3.0232 4.1910 -2.5348 0.9772
2.8681 4.2932 -2.5326 0.9773
2.7095 4.3897 -2.5304 0.9773
2.5883 -0.0650 -1.3432 0.9884
2.5892 0.1213 -1.3447 0.9884
2.5902 0.2149 -1.3484 0.9884
2.5867 0.4034 -1.3582 0.9883
4.7191 1.4523 -2.5615 0.9780
4.6620 1.6204 -2.5605 0.9780
4.5294 1.9495 -2.5582 0.9780
4.3732 2.2677 -2.5556 0.9780
4.2865 2.4221 -2.5542 0.9781
4.0966 2.7207 -2.5512 0.9781
3.9937 2.8645 -2.5497 0.9781
3.8856 3.0043 -2.5480 0.9781
3.7726 3.1400 -2.5463 0.9781
3.1387 3.7504 -2.5371 0.9782
2.4076 4.2340 -2.5268 0.9783
2.5678 -0.6308 -1.4482 0.9880
2.5654 -0.3432 -1.4176 0.9883
2.5666 -0.1569 -1.4084 0.9883
2.5670 0.0279 -1.4060 0.9884
2.5614 0.3994 -1.4199 0.9882
2.6442 0.6097 -1.4862 0.9877
4.4104 1.5330 -2.5574 0.9789
4.1377 2.1455 -2.5528 0.9790
3.9686 2.4348 -2.5501 0.9790
3.8763 2.5744 -2.5486 0.9790
3.7790 2.7105 -2.5472 0.9790
3.6769 2.8429 -2.5456 0.9790
3.4587 3.0959 -2.5423 0.9791
3.2229 3.3319 -2.5389 0.9791
3.0988 3.4431 -2.5371 0.9791
2.9708 3.5498 -2.5353 0.9791
2.5655 3.8403 -2.5295 0.9792
2.2793 4.0084 -2.5255 0.9792
2.5389 -0.6237 -1.5094 0.9880
2.5396 -0.5278 -1.4976 0.9881
2.5431 -0.3402 -1.4813 0.9882
2.5434 -0.0639 -1.4689 0.9883
2.5436 0.0276 -1.4686 0.9883
2.5431 0.1191 -1.4699 0.9883
2.5447 0.2111 -1.4743 0.9883
2.6163 0.6033 -1.5502 0.9877
4.2304 1.3019 -2.5554 0.9798
4.1228 1.6013 -2.5535 0.9798
3.7612 2.3075 -2.5476 0.9798
3.6738 2.4399 -2.5463 0.9798
3.4851 2.6946 -2.5434 0.9799
3.3839 2.8165 -2.5419 0.9799
2.9376 3.2641 -2.5353 0.9799
2.6917 3.4619 -2.5318 0.9799
2.5637 3.5539 -2.5300 0.9800
2.4324 3.6411 -2.5281 0.9800
2.1612 3.8008 -2.5244 0.9800
