ply
format ascii 1.0
element vertex 628
property float32 x
property float32 y
property float32 z
property float32 I
end_header
-27.1824 -21.5147 6.1126 0.8687
-25.2224 -21.4886 5.8426 0.8741
-23.4437 -21.4809 5.6066 0.8788
-20.2795 -21.4713 5.2077 0.8870
-5.9628 -7.3039 1.6625 0.9624
-5.0754 -6.6964 1.4816 0.9664
-4.9121 -6.9916 1.5067 0.9659
-3.4408 -7.4641 1.4492 0.9672
-6.3449 -21.4543 3.9449 0.9131
-5.5082 -21.4428 3.9037 0.9140
-4.6899 -21.4410 3.8700 0.9147
-1.5224 -21.4260 3.7875 0.9165
0.8004 -21.4078 3.7774 0.9167
1.5750 -21.3987 3.7834 0.9165
2.3711 -21.5528 3.8233 0.9157
-37.1545 -21.5269 6.5782 0.8405
-34.2336 -21.5213 6.1946 0.8491
-31.6207 -21.5092 5.8586 0.8566
-29.2966 -21.5149 5.5683 0.8632
-27.1795 -21.5124 5.3102 0.8691
-18.8581 -21.4685 4.3775 0.8908
-5.9335 -7.2680 1.4373 0.9627
-4.8054 -7.3934 1.3508 0.9649
-4.8093 -8.0185 1.4324 0.9629
-4.4456 -8.0579 1.4098 0.9634
-3.3877 -7.3490 1.2397 0.9678
-3.3485 -8.9031 1.4572 0.9622
-3.0099 -8.9731 1.4499 0.9624
-2.3024 -21.4284 3.3016 0.9165
-0.7466 -21.4233 3.2839 0.9169
0.0272 -21.4297 3.2829 0.9169
0.8003 -21.4068 3.2817 0.9170
2.3712 -21.5538 3.3218 0.9160
-37.1517 -21.5254 5.5913 0.8410
-27.1767 -21.5102 4.5133 0.8695
-25.2211 -21.4874 4.3146 0.8749
-23.4431 -21.4804 4.1405 0.8796
-21.8042 -21.4769 3.9854 0.8839
-18.8580 -21.4684 3.7210 0.8911
-5.7264 -7.5555 1.2345 0.9625
-4.9301 -7.0172 1.1168 0.9660
-4.3988 -7.9731 1.1858 0.9639
-3.6504 -8.7351 1.2328 0.9625
-2.9993 -8.9414 1.2281 0.9627
-3.0887 -21.4308 2.8196 0.9164
-2.3024 -21.4282 2.8065 0.9167
-1.5224 -21.4256 2.7971 0.9170
0.0272 -21.4289 2.7905 0.9172
1.5749 -21.3976 2.7940 0.9171
3.2481 -22.1392 2.9138 0.9137
-37.1490 -21.5238 4.6103 0.8414
-23.4428 -21.4801 3.4143 0.8799
-20.2793 -21.4711 3.1714 0.8880
-18.8580 -21.4683 3.0684 0.8914
-5.6986 -7.5187 1.0131 0.9628
-5.4045 -7.6924 1.0095 0.9629
-4.6253 -7.7119 0.9656 0.9645
-4.3593 -7.9015 0.9690 0.9643
-3.9833 -7.8797 0.9481 0.9651
-3.9391 -8.5451 1.0104 0.9629
-3.2908 -8.7496 1.0038 0.9631
-7.1959 -21.4520 2.4297 0.9130
-6.3438 -21.4507 2.4020 0.9139
-5.5077 -21.4409 2.3771 0.9148
-3.8841 -21.4374 2.3395 0.9161
-2.3024 -21.4280 2.3142 0.9170
-1.5224 -21.4255 2.3065 0.9172
-0.7466 -21.4229 2.3018 0.9174
1.5749 -21.3971 2.3039 0.9173
2.3714 -21.5558 2.3287 0.9165
-37.1463 -21.5222 3.6342 0.8417
-29.2870 -21.5079 3.0760 0.8643
-23.4426 -21.4798 2.6916 0.8802
-20.2792 -21.4711 2.5001 0.8882
-18.8579 -21.4683 2.4189 0.8916
-5.8486 -7.1639 0.7829 0.9636
-5.6443 -7.4471 0.7910 0.9632
-5.3414 -7.6026 0.7865 0.9634
-4.7242 -7.2683 0.7338 0.9658
-4.5602 -7.6033 0.7505 0.9650
-4.3207 -7.8315 0.7572 0.9647
-3.8519 -7.6199 0.7228 0.9663
-3.2583 -8.6632 0.7835 0.9635
-7.1955 -21.4508 1.9153 0.9132
-6.3435 -21.4495 1.8935 0.9141
-3.8840 -21.4368 1.8442 0.9163
-3.0886 -21.4305 1.8329 0.9168
-2.3024 -21.4279 1.8244 0.9171
-1.5224 -21.4253 1.8183 0.9174
-0.7465 -21.4227 1.8146 0.9175
1.5749 -21.3966 1.8162 0.9175
2.3715 -21.5568 1.8358 0.9166
3.2502 -22.1535 1.8954 0.9140
-34.2194 -21.5124 2.5064 0.8505
-29.2838 -21.5056 2.2530 0.8645
-27.1513 -21.4900 2.1472 0.8704
-23.4423 -21.4796 1.9716 0.8804
-21.8035 -21.4762 1.8978 0.8846
-18.8579 -21.4682 1.7719 0.8918
-5.5710 -7.3503 0.5719 0.9637
-3.8617 -8.3772 0.5720 0.9637
-3.5430 -8.4782 0.5698 0.9638
-7.1951 -21.4495 1.4029 0.9133
-4.6892 -21.4379 1.3608 0.9158
-3.8839 -21.4362 1.3509 0.9164
-2.3024 -21.4277 1.3364 0.9173
-0.7465 -21.4225 1.3292 0.9177
0.0272 -21.4265 1.3287 0.9177
0.8002 -21.4027 1.3281 0.9177
1.5748 -21.3960 1.3304 0.9176
3.2512 -22.1606 1.3889 0.9141
-34.2158 -21.5102 1.5936 0.8506
-31.6129 -21.5038 1.5076 0.8581
-29.2807 -21.5033 1.4325 0.8647
-23.4420 -21.4793 1.2537 0.8805
-21.8032 -21.4759 1.2067 0.8847
-18.8578 -21.4682 1.1267 0.8919
-5.4996 -7.2561 0.3590 0.9642
-4.4652 -8.0936 0.3645 0.9637
-4.1428 -8.1953 0.3621 0.9639
-3.8243 -8.2961 0.3602 0.9641
-3.5089 -8.3964 0.3588 0.9642
-6.3428 -21.4471 0.8819 0.9144
-4.6891 -21.4373 0.8653 0.9159
-3.8838 -21.4355 0.8590 0.9165
-3.0886 -21.4301 0.8537 0.9170
-2.3023 -21.4275 0.8498 0.9173
-1.5223 -21.4249 0.8469 0.9176
-0.7466 -21.4224 0.8452 0.9178
0.0272 -21.4257 0.8448 0.9178
0.8002 -21.4017 0.8445 0.9178
1.5748 -21.3955 0.8459 0.9177
2.3717 -21.5587 0.8552 0.9168
-37.1383 -21.5176 0.7250 0.8422
-34.2123 -21.5080 0.6826 0.8507
-23.4417 -21.4791 0.5371 0.8806
-17.5219 -21.4626 0.4680 0.8951
-16.2633 -21.4577 0.4548 0.8979
-5.2266 -7.4392 0.1536 0.9643
-4.2256 -7.6593 0.1478 0.9656
-3.7877 -8.2167 0.1528 0.9645
-8.9640 -21.4498 0.3927 0.9112
-8.0671 -21.4484 0.3871 0.9124
-3.8837 -21.4349 0.3680 0.9165
0.0272 -21.4249 0.3619 0.9179
1.5747 -21.3950 0.3624 0.9178
2.3719 -21.5597 0.3664 0.9169
-31.6097 -21.5017 -0.2152 0.8582
-23.4414 -21.4788 -0.1790 0.8806
-21.8027 -21.4754 -0.1723 0.8848
-20.2790 -21.4708 -0.1663 0.8886
-18.8577 -21.4680 -0.1609 0.8920
-5.1607 -7.3455 -0.0505 0.9647
-8.0666 -21.4472 -0.1290 0.9124
-7.1938 -21.4459 -0.1274 0.9135
-6.3421 -21.4447 -0.1259 0.9144
-5.5070 -21.4378 -0.1246 0.9153
-4.6888 -21.4360 -0.1235 0.9160
-3.8836 -21.4343 -0.1226 0.9166
-3.0886 -21.4298 -0.1219 0.9170
-2.3023 -21.4272 -0.1213 0.9174
-1.5223 -21.4246 -0.1209 0.9177
-0.7465 -21.4220 -0.1207 0.9178
1.5747 -21.3944 -0.1208 0.9178
-37.1330 -21.5145 -1.2084 0.8422
-34.2053 -21.5036 -1.1377 0.8507
-31.6081 -21.5006 -1.0764 0.8582
-27.1483 -21.4876 -0.9749 0.8706
-25.2163 -21.4834 -0.9328 0.8758
-21.8024 -21.4752 -0.8617 0.8847
-15.0777 -21.4606 -0.7385 0.9004
-12.8681 -21.4551 -0.7045 0.9047
-8.9630 -21.4473 -0.6545 0.9112
-8.0662 -21.4460 -0.6452 0.9124
-6.3417 -21.4435 -0.6296 0.9144
-5.5068 -21.4372 -0.6232 0.9152
-1.5223 -21.4244 -0.6048 0.9176
-0.7465 -21.4218 -0.6036 0.9178
0.8001 -21.3987 -0.6030 0.9179
1.5747 -21.3939 -0.6040 0.9177
2.3721 -21.5616 -0.6108 0.9169
-31.6065 -21.4996 -1.9386 0.8580
-23.4409 -21.4783 -1.6124 0.8804
-21.8022 -21.4749 -1.5519 0.8846
-20.2789 -21.4707 -1.4978 0.8884
-18.8576 -21.4679 -1.4491 0.8919
-12.8674 -21.4540 -1.2687 0.9047
-10.8439 -21.4512 -1.2190 0.9082
-9.8877 -21.4492 -1.1978 0.9097
-7.1930 -21.4435 -1.1470 0.9134
-4.6885 -21.4348 -1.1128 0.9159
-3.8834 -21.4331 -1.1047 0.9165
-3.0885 -21.4294 -1.0980 0.9169
0.0272 -21.4226 -1.0864 0.9178
1.5746 -21.3934 -1.0879 0.9177
-26.3044 -15.2406 -2.2290 0.8852
-24.1563 -19.1196 -2.2589 0.8838
-23.1675 -19.7379 -2.2316 0.8851
-21.5663 -19.7607 -2.1447 0.8893
-20.1763 -21.3621 -2.1545 0.8888
-18.8576 -21.4679 -2.0951 0.8917
-17.5219 -21.4626 -2.0315 0.8948
-16.2633 -21.4577 -1.9742 0.8976
-15.0762 -21.4584 -1.9229 0.9002
-13.9454 -21.4556 -1.8763 0.9025
-12.8668 -21.4530 -1.8342 0.9045
-11.8349 -21.4516 -1.7964 0.9064
-9.8869 -21.4475 -1.7316 0.9096
-8.9619 -21.4448 -1.7042 0.9110
-7.1926 -21.4423 -1.6583 0.9133
-6.3410 -21.4411 -1.6394 0.9142
-5.5065 -21.4359 -1.6228 0.9151
-4.6884 -21.4342 -1.6088 0.9158
-3.8833 -21.4325 -1.5971 0.9163
-3.0885 -21.4292 -1.5875 0.9168
-2.3022 -21.4266 -1.5801 0.9172
-1.5223 -21.4240 -1.5748 0.9175
-0.7465 -21.4215 -1.5716 0.9176
0.0272 -21.4218 -1.5707 0.9177
0.8000 -21.3967 -1.5700 0.9177
1.5746 -21.3929 -1.5728 0.9176
2.3723 -21.5636 -1.5906 0.9167
3.2575 -22.2032 -1.6454 0.9139
6.0825 -33.0925 -2.4671 0.8738
7.7878 -35.1768 -2.6417 0.8655
-19.8052 -13.4720 -2.2996 0.9082
-19.3574 -14.2158 -2.3057 0.9080
-18.8840 -14.9466 -2.3121 0.9078
-17.8608 -16.3655 -2.3257 0.9072
-17.3117 -17.0519 -2.3329 0.9070
-16.7381 -17.7219 -2.3403 0.9067
-14.8739 -19.6245 -2.3640 0.9058
-12.8290 -19.7380 -2.2600 0.9097
-4.6892 -7.8184 -0.8753 0.9640
-11.3352 -20.5460 -2.2528 0.9100
-8.0648 -21.4423 -2.1994 0.9121
-7.1922 -21.4411 -2.1712 0.9131
-5.5063 -21.4353 -2.1247 0.9149
-3.8831 -21.4319 -2.0911 0.9162
-0.7465 -21.4213 -2.0578 0.9175
1.5746 -21.3923 -2.0593 0.9174
2.3724 -21.5646 -2.0828 0.9165
3.2586 -22.2104 -2.1551 0.9137
-15.9143 -9.2207 -2.1848 0.9286
-15.8850 -11.6657 -2.3411 0.9237
-13.6987 -14.5038 -2.3698 0.9228
-12.6854 -15.5384 -2.3827 0.9224
-12.1505 -16.0314 -2.3895 0.9222
-11.0267 -16.9650 -2.4035 0.9217
-4.6826 -7.8074 -1.0814 0.9640
-8.5761 -18.6043 -2.4334 0.9208
-7.9246 -18.9627 -2.4413 0.9205
-7.2586 -19.2992 -2.4493 0.9203
-6.5790 -19.6133 -2.4574 0.9200
-5.0637 -19.7127 -2.4176 0.9213
-4.3126 -19.7169 -2.3975 0.9219
-3.5729 -19.7204 -2.3806 0.9224
-2.8425 -19.7233 -2.3671 0.9229
-0.6953 -19.9538 -2.3717 0.9227
0.0254 -20.0351 -2.3799 0.9225
0.7512 -20.0905 -2.3881 0.9222
2.9486 -20.0976 -2.4129 0.9214
3.7366 -20.3290 -2.4552 0.9201
-13.4956 -7.8193 -2.2100 0.9389
-13.2270 -8.3154 -2.2137 0.9388
-12.9412 -8.8029 -2.2176 0.9387
-13.4578 -9.8833 -2.3658 0.9348
-12.3846 -11.3478 -2.3800 0.9344
-11.9925 -11.8126 -2.3851 0.9343
-11.5839 -12.2647 -2.3904 0.9341
-9.7901 -13.9347 -2.4130 0.9335
-4.6760 -7.7964 -1.2881 0.9639
-8.2895 -15.0254 -2.4314 0.9330
-7.7622 -15.3552 -2.4379 0.9329
-6.6701 -15.9609 -2.4510 0.9325
-4.9468 -16.7272 -2.4715 0.9320
-4.3522 -16.9427 -2.4785 0.9318
-3.7485 -17.1376 -2.4856 0.9316
-1.2577 -17.7017 -2.5145 0.9308
-0.6198 -17.7871 -2.5218 0.9306
1.3179 -17.9045 -2.5437 0.9300
1.9689 -17.8966 -2.5511 0.9298
2.6210 -17.8648 -2.5584 0.9297
3.2734 -17.8090 -2.5656 0.9295
3.9251 -17.7290 -2.5728 0.9293
-11.7053 -6.7819 -2.2286 0.9466
-11.4697 -7.2106 -2.2319 0.9466
-11.2192 -7.6316 -2.2353 0.9465
-10.9539 -8.0444 -2.2389 0.9464
-10.6742 -8.4486 -2.2426 0.9463
-10.3803 -8.8437 -2.2465 0.9462
-10.0723 -9.2291 -2.2505 0.9461
-10.0262 -10.6154 -2.4055 0.9425
-8.8733 -11.7074 -2.4200 0.9422
-8.0399 -12.3697 -2.4304 0.9419
-4.6695 -7.7854 -1.4956 0.9639
-7.1582 -12.9749 -2.4412 0.9417
-6.7005 -13.2549 -2.4467 0.9416
-5.2653 -13.9994 -2.4640 0.9412
-4.7680 -14.2144 -2.4699 0.9410
-3.7483 -14.5920 -2.4819 0.9408
-3.2271 -14.7539 -2.4880 0.9406
-2.6991 -14.8975 -2.4942 0.9405
-2.1650 -15.0225 -2.5004 0.9403
-1.6254 -15.1284 -2.5066 0.9402
-1.0811 -15.2151 -2.5128 0.9400
-0.5325 -15.2822 -2.5191 0.9399
1.1309 -15.3643 -2.5379 0.9395
1.6889 -15.3512 -2.5442 0.9393
-10.3253 -5.9824 -2.2430 0.9526
-9.8929 -6.7295 -2.2489 0.9525
-9.4088 -7.4470 -2.2554 0.9523
-8.5892 -8.4604 -2.2661 0.9521
-8.2922 -8.7796 -2.2699 0.9520
-8.1610 -9.9964 -2.4256 0.9488
-7.0719 -10.8804 -2.4391 0.9486
-4.6628 -7.7743 -1.7040 0.9638
-6.2930 -11.4066 -2.4486 0.9484
-5.4758 -11.8786 -2.4585 0.9482
-5.0538 -12.0934 -2.4636 0.9481
-4.6237 -12.2935 -2.4687 0.9479
-4.1857 -12.4785 -2.4739 0.9478
-3.2886 -12.8024 -2.4845 0.9476
-2.8305 -12.9406 -2.4898 0.9475
-1.4244 -13.2569 -2.5061 0.9472
-0.9470 -13.3287 -2.5116 0.9471
0.5026 -13.4406 -2.5281 0.9467
0.9895 -13.4428 -2.5336 0.9466
1.9651 -13.3938 -2.5445 0.9464
2.4524 -13.3425 -2.5499 0.9463
2.9386 -13.2731 -2.5552 0.9462
-9.2022 -5.7851 -2.2976 0.9565
-8.8392 -6.0127 -2.2597 0.9572
-8.6273 -6.3358 -2.2626 0.9572
-8.4040 -6.6518 -2.2656 0.9571
-7.6681 -7.5531 -2.2752 0.9569
-7.1249 -8.1112 -2.2821 0.9568
-6.8383 -8.3763 -2.2857 0.9568
-5.9221 -9.1115 -2.2971 0.9565
-4.1176 -10.9480 -2.4725 0.9533
-3.3296 -11.2588 -2.4818 0.9531
-2.9266 -11.3933 -2.4865 0.9530
-2.1052 -11.6193 -2.4961 0.9529
-1.6877 -11.7103 -2.5009 0.9528
-0.8417 -11.8474 -2.5106 0.9526
-0.4144 -11.8932 -2.5155 0.9525
0.0152 -11.9234 -2.5204 0.9524
0.8787 -11.9372 -2.5301 0.9522
1.3114 -11.9205 -2.5350 0.9522
2.1762 -11.8396 -2.5446 0.9520
-8.8744 -5.1417 -2.4105 0.9587
-8.6921 -5.4644 -2.4130 0.9587
-8.4772 -5.7665 -2.4096 0.9587
-6.4269 -7.3166 -2.2888 0.9608
-6.1674 -7.5546 -2.2920 0.9607
-4.6494 -7.7520 -2.1245 0.9635
-2.2660 -10.3601 -2.4924 0.9574
-1.8939 -10.4533 -2.4968 0.9573
-1.5180 -10.5331 -2.5011 0.9572
-1.1388 -10.5995 -2.5055 0.9571
-0.7568 -10.6523 -2.5098 0.9571
-0.3725 -10.6913 -2.5142 0.9570
0.0136 -10.7164 -2.5186 0.9569
0.4011 -10.7275 -2.5230 0.9568
0.7894 -10.7246 -2.5273 0.9568
1.5664 -10.6762 -2.5360 0.9566
1.9540 -10.6307 -2.5403 0.9566
2.3404 -10.5710 -2.5446 0.9565
-8.0829 -4.6832 -2.4187 0.9621
-7.5519 -5.5460 -2.4259 0.9620
-7.2867 -5.7675 -2.4062 0.9623
-6.7887 -5.7839 -2.3092 0.9638
-6.5093 -5.9643 -2.2859 0.9642
-6.2973 -6.2028 -2.2886 0.9641
-5.8480 -6.6575 -2.2943 0.9640
-5.3665 -7.0806 -2.3004 0.9640
-5.1144 -7.2796 -2.3035 0.9639
-4.5888 -7.6509 -2.3099 0.9638
-4.0365 -7.9851 -2.3166 0.9637
-2.8626 -8.5342 -2.3307 0.9635
-1.9324 -8.8348 -2.3416 0.9633
-1.0337 -9.6204 -2.5052 0.9608
-0.3380 -9.7006 -2.5132 0.9607
1.0682 -9.7090 -2.5290 0.9604
1.7713 -9.6364 -2.5368 0.9603
-7.4139 -4.2956 -2.4257 0.9650
-7.2604 -4.5644 -2.4278 0.9650
-6.7437 -5.3376 -2.4347 0.9649
-6.2928 -5.7661 -2.4163 0.9651
-5.8684 -5.7804 -2.3319 0.9663
-5.5695 -5.8971 -2.2964 0.9668
-5.1419 -6.2984 -2.3018 0.9668
-4.9172 -6.4877 -2.3046 0.9667
-4.6856 -6.6693 -2.3074 0.9667
-3.6964 -7.3122 -2.3195 0.9665
-2.3397 -7.9117 -2.3356 0.9663
-2.0556 -8.0024 -2.3390 0.9662
-1.4772 -8.1532 -2.3457 0.9661
-1.1836 -8.2131 -2.3491 0.9661
-0.9453 -8.7981 -2.5050 0.9639
-0.6280 -8.8393 -2.5087 0.9638
0.0113 -8.8872 -2.5159 0.9637
1.2975 -8.8435 -2.5303 0.9635
1.6181 -8.8032 -2.5339 0.9635
1.9375 -8.7512 -2.5374 0.9634
-6.6984 -4.2111 -2.4336 0.9674
-6.5476 -4.4538 -2.4357 0.9674
-6.3881 -4.6914 -2.4378 0.9674
-6.0443 -5.1496 -2.4423 0.9673
-5.4427 -5.7627 -2.4381 0.9674
-5.0729 -5.7752 -2.3643 0.9683
-4.3189 -6.1473 -2.3108 0.9690
-3.4056 -6.7372 -2.3219 0.9689
-3.1642 -6.8643 -2.3248 0.9689
-2.9181 -6.9828 -2.3278 0.9688
-2.6676 -7.0927 -2.3308 0.9688
-2.4130 -7.1936 -2.3338 0.9687
-2.1546 -7.2855 -2.3368 0.9687
-1.8927 -7.3682 -2.3399 0.9687
-1.6276 -7.4415 -2.3430 0.9686
-1.3598 -7.5053 -2.3461 0.9686
-0.8170 -7.6041 -2.3523 0.9685
-0.2843 -8.1605 -2.5115 0.9664
0.6018 -8.1759 -2.5215 0.9663
1.1932 -8.1324 -2.5281 0.9662
1.4878 -8.0944 -2.5314 0.9661
-6.3431 -3.6751 -2.4368 0.9696
-6.2109 -3.9046 -2.4386 0.9695
-5.9225 -4.3494 -2.4425 0.9695
-5.4320 -4.9772 -2.4490 0.9694
-5.2537 -5.1749 -2.4513 0.9694
-4.6774 -5.7294 -2.4586 0.9693
-4.0596 -5.7784 -2.3474 0.9707
-3.7973 -5.8424 -2.3162 0.9711
-3.5880 -5.9823 -2.3188 0.9710
-3.3734 -6.1147 -2.3214 0.9710
-3.1542 -6.2396 -2.3240 0.9710
-2.9303 -6.3568 -2.3267 0.9709
-2.7021 -6.4660 -2.3294 0.9709
-2.4699 -6.5670 -2.3322 0.9709
-1.9945 -6.7443 -2.3378 0.9708
-1.7519 -6.8201 -2.3407 0.9708
-1.2584 -6.9457 -2.3464 0.9707
-1.0081 -6.9952 -2.3493 0.9706
-0.5347 -7.5254 -2.5078 0.9687
0.2829 -7.5669 -2.5171 0.9686
1.1032 -7.5193 -2.5262 0.9685
1.3756 -7.4835 -2.5292 0.9684
1.6467 -7.4377 -2.5322 0.9684
-5.9070 -3.4225 -2.4414 0.9714
-5.6528 -3.8452 -2.4448 0.9714
-4.8905 -4.8172 -2.4548 0.9713
-4.7177 -4.9950 -2.4570 0.9712
-4.5385 -5.1668 -2.4593 0.9712
-4.1620 -5.4913 -2.4640 0.9712
-3.9649 -5.6435 -2.4665 0.9711
-3.7437 -5.7601 -2.4567 0.9712
-3.4599 -5.7688 -2.4056 0.9718
-2.7257 -5.9130 -2.3284 0.9727
-2.2971 -6.1076 -2.3335 0.9727
-2.0774 -6.1934 -2.3361 0.9726
-1.6289 -6.3414 -2.3413 0.9726
-1.4005 -6.4033 -2.3440 0.9725
-1.1840 -6.5351 -2.3751 0.9722
-0.9796 -6.7972 -2.4559 0.9712
-0.7482 -6.9636 -2.5046 0.9707
-0.4969 -6.9941 -2.5074 0.9707
-0.2444 -7.0155 -2.5103 0.9706
0.2629 -7.0309 -2.5160 0.9706
0.5171 -7.0248 -2.5189 0.9705
0.7712 -7.0094 -2.5217 0.9705
1.2776 -6.9510 -2.5273 0.9704
-4.7252 -4.3296 -2.4560 0.9729
-4.5696 -4.5010 -2.4580 0.9729
-4.4078 -4.6669 -2.4600 0.9729
-3.7035 -5.2714 -2.4689 0.9728
-3.3199 -5.5354 -2.4736 0.9727
-2.9104 -5.7577 -2.4724 0.9727
-1.7857 -6.0384 -2.4131 0.9734
-1.3805 -6.3116 -2.4759 0.9727
-0.4636 -6.5259 -2.5071 0.9724
0.2453 -6.5587 -2.5152 0.9723
0.7193 -6.5377 -2.5205 0.9722
1.1915 -6.4822 -2.5257 0.9722
1.4261 -6.4415 -2.5283 0.9721
-5.0688 -3.1866 -2.4505 0.9745
-4.4296 -4.0588 -2.4589 0.9744
-3.8116 -4.6688 -2.4668 0.9743
-3.2931 -5.0666 -2.4732 0.9742
-2.9243 -5.3006 -2.4777 0.9742
-2.7336 -5.4077 -2.4800 0.9742
-2.1392 -5.6878 -2.4871 0.9741
-1.5163 -5.9030 -2.4944 0.9740
-0.8719 -6.0504 -2.5018 0.9739
-0.4341 -6.1097 -2.5069 0.9739
0.2296 -6.1392 -2.5144 0.9738
0.6732 -6.1187 -2.5193 0.9737
1.1150 -6.0659 -2.5242 0.9737
1.3345 -6.0275 -2.5266 0.9737
-4.4227 -3.5005 -2.4582 0.9757
-4.2963 -3.6604 -2.4598 0.9757
-4.0268 -3.9664 -2.4633 0.9756
-3.8838 -4.1121 -2.4651 0.9756
-3.7357 -4.2529 -2.4670 0.9756
-3.4246 -4.5184 -2.4709 0.9756
-3.2619 -4.6428 -2.4729 0.9755
-3.0948 -4.7615 -2.4750 0.9755
-2.9234 -4.8742 -2.4771 0.9755
-2.3856 -5.1752 -2.4835 0.9754
-2.1992 -5.2626 -2.4858 0.9754
-1.8172 -5.4174 -2.4903 0.9754
-1.6220 -5.4845 -2.4926 0.9754
-1.2244 -5.5976 -2.4972 0.9753
-0.6138 -5.7133 -2.5043 0.9752
-0.2004 -5.7535 -2.5090 0.9752
0.0074 -5.7623 -2.5113 0.9752
0.4238 -5.7575 -2.5160 0.9751
0.6319 -5.7437 -2.5183 0.9751
1.0465 -5.6936 -2.5229 0.9751
1.2525 -5.6572 -2.5252 0.9750
-4.2821 -3.1448 -2.4592 0.9769
-4.0492 -3.4498 -2.4623 0.9768
-3.9246 -3.5960 -2.4639 0.9768
-3.0733 -4.3744 -2.4746 0.9767
-2.7541 -4.5920 -2.4785 0.9767
-2.5887 -4.6922 -2.4806 0.9767
-2.4196 -4.7865 -2.4826 0.9766
-1.8928 -5.0327 -2.4889 0.9766
-1.7114 -5.1021 -2.4910 0.9766
-0.7710 -5.3499 -2.5020 0.9765
-0.1887 -5.4162 -2.5086 0.9764
0.0069 -5.4243 -2.5108 0.9764
0.2029 -5.4253 -2.5130 0.9764
0.3989 -5.4192 -2.5152 0.9763
0.5948 -5.4059 -2.5174 0.9763
1.1787 -5.3236 -2.5239 0.9763
-4.3353 -2.5119 -2.4577 0.9779
-4.1471 -2.8210 -2.4603 0.9779
-4.0448 -2.9705 -2.4617 0.9779
-3.7067 -3.3964 -2.4661 0.9779
-3.3244 -3.7846 -2.4710 0.9778
-3.1878 -3.9048 -2.4727 0.9778
-2.9020 -4.1306 -2.4762 0.9778
-2.6003 -4.3356 -2.4799 0.9777
-2.4440 -4.4300 -2.4818 0.9777
-2.2843 -4.5189 -2.4837 0.9777
-2.1214 -4.6020 -2.4857 0.9777
-1.9554 -4.6793 -2.4877 0.9777
-1.6154 -4.8159 -2.4917 0.9776
-1.4417 -4.8751 -2.4937 0.9776
-1.0880 -4.9746 -2.4979 0.9776
-0.9086 -5.0148 -2.4999 0.9775
-0.7275 -5.0485 -2.5020 0.9775
-0.5453 -5.0758 -2.5041 0.9775
-0.3621 -5.0964 -2.5062 0.9775
0.0066 -5.1177 -2.5104 0.9775
0.1914 -5.1184 -2.5125 0.9774
0.3763 -5.1124 -2.5145 0.9774
0.5610 -5.0997 -2.5166 0.9774
0.7454 -5.0802 -2.5186 0.9774
0.9290 -5.0541 -2.5207 0.9774
1.1117 -5.0212 -2.5227 0.9773
-4.1032 -2.3774 -2.4601 0.9789
-3.9249 -2.6698 -2.4626 0.9788
-3.8279 -2.8112 -2.4639 0.9788
-3.5076 -3.2140 -2.4681 0.9788
-3.1455 -3.5810 -2.4727 0.9788
-2.8828 -3.8036 -2.4760 0.9787
-2.6045 -4.0072 -2.4794 0.9787
-2.3120 -4.1907 -2.4829 0.9787
-2.1608 -4.2745 -2.4848 0.9786
-2.0066 -4.3530 -2.4866 0.9786
-1.8495 -4.4259 -2.4885 0.9786
-1.5278 -4.5547 -2.4923 0.9786
-1.3634 -4.6105 -2.4942 0.9786
-1.1971 -4.6603 -2.4962 0.9786
-1.0289 -4.7042 -2.4981 0.9785
-0.6879 -4.7737 -2.5021 0.9785
-0.5156 -4.7992 -2.5040 0.9785
0.3557 -4.8327 -2.5139 0.9784
0.5304 -4.8204 -2.5158 0.9784
0.7046 -4.8019 -2.5178 0.9784
1.0507 -4.7457 -2.5216 0.9783
-3.8900 -2.2538 -2.4624 0.9797
-3.8079 -2.3939 -2.4635 0.9797
-3.6288 -2.6649 -2.4659 0.9797
-3.4307 -2.9229 -2.4685 0.9797
-3.3248 -3.0465 -2.4699 0.9796
-3.1000 -3.2822 -2.4727 0.9796
-2.9813 -3.3940 -2.4742 0.9796
-2.7321 -3.6048 -2.4774 0.9796
-2.6019 -3.7034 -2.4790 0.9796
-2.4682 -3.7975 -2.4806 0.9796
-2.1908 -3.9710 -2.4840 0.9795
-2.0474 -4.0503 -2.4857 0.9795
-1.6011 -4.2570 -2.4910 0.9795
-1.4474 -4.3152 -2.4928 0.9795
-1.1340 -4.4148 -2.4965 0.9794
-0.9746 -4.4562 -2.4984 0.9794
-0.8138 -4.4918 -2.5002 0.9794
-0.4884 -4.5456 -2.5040 0.9794
0.0059 -4.5820 -2.5096 0.9793
0.3369 -4.5764 -2.5133 0.9793
0.5022 -4.5646 -2.5151 0.9793
0.6671 -4.5468 -2.5170 0.9793
0.8314 -4.5231 -2.5188 0.9792
0.9948 -4.4933 -2.5206 0.9792
-3.6152 -2.2728 -2.4655 0.9805
-3.5324 -2.4029 -2.4666 0.9805
-3.4451 -2.5300 -2.4678 0.9805
-3.2568 -2.7747 -2.4702 0.9804
-3.1562 -2.8920 -2.4715 0.9804
-2.9426 -3.1156 -2.4743 0.9804
-2.7133 -3.3236 -2.4772 0.9804
-2.5932 -3.4215 -2.4787 0.9804
-2.4695 -3.5150 -2.4802 0.9804
-2.3425 -3.6041 -2.4817 0.9803
-1.9430 -3.8437 -2.4866 0.9803
-1.8042 -3.9139 -2.4882 0.9803
-1.5192 -4.0394 -2.4916 0.9803
-0.9247 -4.2278 -2.4986 0.9802
-0.7721 -4.2614 -2.5004 0.9802
-0.6182 -4.2895 -2.5021 0.9802
-0.4633 -4.3121 -2.5039 0.9802
-0.3075 -4.3291 -2.5057 0.9802
-0.1512 -4.3404 -2.5075 0.9801
0.1625 -4.3462 -2.5110 0.9801
0.7885 -4.2894 -2.5180 0.9801
