ply
format ascii 1.0
element vertex 656
property float32 x
property float32 y
property float32 z
property float32 I
end_header
-22.0776 -7.8831 4.1336 0.9092
-21.4816 -8.5518 4.0769 0.9104
-20.8490 -9.1804 4.0169 0.9116
-29.4766 -21.5034 6.4335 0.8623
-19.0136 -21.4584 5.0553 0.8901
-5.9960 -7.2775 1.6627 0.9624
-4.8999 -7.4558 1.5731 0.9644
-4.8902 -8.0573 1.6619 0.9624
-4.1109 -8.0198 1.5891 0.9641
-3.1181 -8.1371 1.5365 0.9652
-3.0792 -8.9891 1.6754 0.9621
-6.4968 -21.4488 3.9517 0.9130
-5.6616 -21.4376 3.9096 0.9139
-4.8451 -21.4361 3.8751 0.9146
-3.2495 -21.4332 3.8224 0.9157
-0.9157 -21.4201 3.7804 0.9166
-0.1459 -21.4178 3.7766 0.9167
-21.8485 -7.8013 3.5540 0.9104
-20.8161 -9.1659 3.4844 0.9121
-34.4231 -21.5064 6.2180 0.8485
-31.8032 -21.4947 5.8805 0.8561
-29.4740 -21.5015 5.5890 0.8627
-25.3898 -21.4760 5.0944 0.8741
-20.4376 -21.4611 4.5400 0.8870
-19.0139 -21.4588 4.3922 0.8905
-5.7887 -7.5637 1.4591 0.9622
-4.8655 -8.0166 1.4366 0.9628
-4.0417 -21.4343 3.3415 0.9155
-0.9157 -21.4202 3.2845 0.9169
-21.7413 -7.7631 3.0062 0.9111
-44.4957 -21.5319 6.4370 0.8192
-37.3485 -21.5094 5.6124 0.8404
-34.4204 -21.5047 5.2851 0.8490
-27.3498 -21.4980 4.5301 0.8691
-23.6079 -21.4694 4.1554 0.8792
-21.9657 -21.4666 3.9995 0.8835
-19.0142 -21.4591 3.7336 0.8908
-5.9367 -7.2056 1.2158 0.9630
-5.7597 -7.5258 1.2341 0.9625
-4.7618 -7.2457 1.1291 0.9656
-4.4577 -7.9771 1.1900 0.9638
-4.0766 -7.9528 1.1638 0.9646
-3.0582 -8.9277 1.2289 0.9626
-6.4962 -21.4470 2.9182 0.9136
-4.0417 -21.4340 2.8403 0.9158
-2.4650 -21.4249 2.8084 0.9167
-1.6881 -21.4226 2.7983 0.9170
-0.1459 -21.4180 2.7891 0.9172
3.0228 -21.9511 2.8855 0.9145
-20.4157 -8.9896 2.3954 0.9142
-44.4908 -21.5295 5.3075 0.8197
-34.4177 -21.5030 4.3578 0.8494
-23.6081 -21.4696 3.4266 0.8795
-21.9659 -21.4668 3.2981 0.8838
-20.4383 -21.4617 3.1824 0.8876
-19.0145 -21.4594 3.0788 0.8911
-5.7312 -7.4885 1.0126 0.9628
-5.4524 -7.6808 1.0115 0.9628
-4.8426 -7.3686 0.9468 0.9651
-4.6488 -7.6595 0.9621 0.9646
-4.0408 -7.8830 0.9512 0.9650
-3.6699 -8.6356 1.0076 0.9630
-3.3479 -8.7368 1.0047 0.9631
-7.3468 -21.4471 2.4344 0.9128
-5.6613 -21.4367 2.3808 0.9147
-4.8448 -21.4352 2.3598 0.9154
-4.0416 -21.4337 2.3421 0.9160
-3.2493 -21.4323 2.3277 0.9165
-2.4650 -21.4251 2.3158 0.9169
0.6233 -21.4108 2.3001 0.9174
1.3927 -21.3896 2.3017 0.9174
3.0231 -21.9535 2.3797 0.9147
-20.2810 -8.0738 1.8479 0.9161
-20.3120 -8.9439 1.8788 0.9148
-37.3450 -21.5074 3.6481 0.8411
-34.4151 -21.5013 3.4352 0.8497
-31.8007 -21.4930 3.2492 0.8572
-29.4664 -21.4959 3.0876 0.8638
-25.3894 -21.4756 2.8150 0.8750
-21.9661 -21.4669 2.6000 0.8840
-5.8793 -7.1358 0.7827 0.9636
-4.5830 -7.5511 0.7477 0.9652
-4.4476 -7.9590 0.7718 0.9641
-3.9648 -7.7347 0.7358 0.9657
-3.9546 -8.4491 0.7897 0.9632
-3.6334 -8.5498 0.7864 0.9634
-3.3147 -8.6503 0.7842 0.9635
-5.6612 -21.4363 1.8769 0.9148
2.1777 -21.5032 1.8296 0.9169
3.0234 -21.9560 1.8762 0.9149
-21.3708 -7.6308 1.4072 0.9131
-21.8846 -8.7123 1.4607 0.9099
-20.1972 -8.8934 1.3685 0.9154
-34.4124 -21.4996 2.5162 0.8499
-29.4638 -21.4941 2.2616 0.8640
-27.3431 -21.4927 2.1567 0.8699
-25.3892 -21.4755 2.0621 0.8752
-23.6084 -21.4700 1.9788 0.8800
-21.9662 -21.4671 1.9046 0.8842
-19.0151 -21.4601 1.7780 0.8914
-17.6771 -21.4552 1.7238 0.8946
-5.0352 -7.6617 0.5685 0.9639
-4.6849 -7.7190 0.5599 0.9645
-4.3449 -7.7753 0.5523 0.9649
-3.8253 -7.4626 0.5200 0.9670
-3.9157 -8.3660 0.5728 0.9637
-7.3462 -21.4453 1.4057 0.9132
-6.4954 -21.4443 1.3894 0.9141
-5.6612 -21.4360 1.3748 0.9150
-4.8447 -21.4345 1.3627 0.9157
-4.0415 -21.4331 1.3525 0.9163
-1.6881 -21.4230 1.3326 0.9175
-0.9157 -21.4206 1.3295 0.9177
0.6233 -21.4095 1.3282 0.9177
1.3926 -21.3890 1.3291 0.9177
2.1778 -21.5038 1.3403 0.9170
3.0237 -21.9584 1.3745 0.9150
-21.0971 -8.3988 0.8954 0.9131
-44.4760 -21.5224 1.9483 0.8205
-40.6460 -21.5032 1.8132 0.8319
-34.4097 -21.4980 1.5998 0.8501
-29.4613 -21.4922 1.4380 0.8642
-27.3409 -21.4909 1.3713 0.8700
-25.3891 -21.4754 1.3112 0.8754
-23.6087 -21.4701 1.2583 0.8801
-21.9664 -21.4673 1.2111 0.8843
-17.6775 -21.4556 1.0962 0.8947
-5.5365 -7.2342 0.3592 0.9642
-5.3322 -7.5114 0.3632 0.9638
-3.8777 -8.2847 0.3607 0.9640
-6.4952 -21.4434 0.8835 0.9142
-5.6611 -21.4357 0.8742 0.9151
-4.0414 -21.4328 0.8600 0.9164
-2.4650 -21.4254 0.8504 0.9173
-0.1459 -21.4185 0.8446 0.9178
2.1779 -21.5045 0.8523 0.9171
-21.6599 -7.7340 0.3885 0.9121
-20.7790 -8.2721 0.3778 0.9144
-31.7983 -21.4914 0.6483 0.8577
-29.4588 -21.4904 0.6160 0.8643
-27.3386 -21.4892 0.5874 0.8701
-25.3889 -21.4753 0.5617 0.8754
-23.6088 -21.4703 0.5390 0.8801
-21.9666 -21.4674 0.5188 0.8844
-19.0157 -21.4608 0.4843 0.8916
-17.6778 -21.4560 0.4696 0.8947
-16.4173 -21.4514 0.4563 0.8976
-5.2637 -7.4150 0.1536 0.9643
-4.8130 -7.9301 0.1567 0.9636
-7.3456 -21.4435 0.3829 0.9133
-6.4949 -21.4425 0.3785 0.9143
-5.6610 -21.4354 0.3745 0.9151
-4.8446 -21.4339 0.3712 0.9158
-4.0414 -21.4324 0.3684 0.9164
-2.4651 -21.4255 0.3643 0.9173
-1.6881 -21.4232 0.3630 0.9176
3.0244 -21.9632 0.3745 0.9151
-21.6553 -8.6210 -0.1312 0.9110
-34.4044 -21.4946 -0.2284 0.8502
-25.3888 -21.4752 -0.1872 0.8755
-23.6090 -21.4705 -0.1797 0.8802
-21.9668 -21.4676 -0.1729 0.8844
-20.4399 -21.4635 -0.1669 0.8882
-16.4176 -21.4518 -0.1521 0.8976
-5.1971 -7.3210 -0.0505 0.9647
-4.7809 -7.8771 -0.0519 0.9638
-4.1153 -8.0283 -0.0508 0.9646
-3.8039 -8.1272 -0.0505 0.9647
-9.1135 -21.4447 -0.1312 0.9110
-7.3453 -21.4426 -0.1276 0.9133
-5.6609 -21.4351 -0.1248 0.9151
-4.8445 -21.4336 -0.1237 0.9159
-3.2491 -21.4307 -0.1220 0.9169
-0.9157 -21.4210 -0.1207 0.9178
0.6232 -21.4077 -0.1206 0.9179
1.3926 -21.3881 -0.1207 0.9178
3.0247 -21.9656 -0.1248 0.9151
-40.6500 -21.5053 -1.2949 0.8319
-37.3366 -21.5025 -1.2132 0.8416
-27.3342 -21.4857 -0.9790 0.8701
-25.3887 -21.4750 -0.9363 0.8754
-21.9669 -21.4678 -0.8649 0.8843
-19.0162 -21.4614 -0.8074 0.8916
-16.4179 -21.4522 -0.7606 0.8975
-4.7195 -7.7760 -0.2561 0.9643
-11.9870 -21.4507 -0.6919 0.9063
-10.9946 -21.4489 -0.6787 0.9081
-10.0383 -21.4471 -0.6668 0.9096
-7.3450 -21.4417 -0.6382 0.9133
-6.4944 -21.4407 -0.6308 0.9143
-5.6608 -21.4347 -0.6242 0.9151
-4.0413 -21.4318 -0.6141 0.9164
-2.4651 -21.4258 -0.6073 0.9173
-0.9157 -21.4211 -0.6037 0.9178
0.6232 -21.4071 -0.6030 0.9179
-39.6909 -19.2068 -2.2362 0.8381
-37.3541 -19.7616 -2.1432 0.8443
-34.3991 -21.4913 -2.0570 0.8501
-27.3320 -21.4840 -1.7631 0.8700
-23.6094 -21.4708 -1.6184 0.8800
-19.0165 -21.4618 -1.4542 0.8915
-16.4182 -21.4525 -1.3700 0.8975
-15.2256 -21.4482 -1.3339 0.9000
-14.0981 -21.4521 -1.3018 0.9023
-11.9863 -21.4493 -1.2461 0.9063
-10.0377 -21.4458 -1.2008 0.9095
-9.1127 -21.4428 -1.1816 0.9109
-8.2165 -21.4418 -1.1645 0.9121
-7.3446 -21.4408 -1.1494 0.9132
-4.8444 -21.4329 -1.1144 0.9158
-4.0412 -21.4315 -1.1060 0.9164
-3.2490 -21.4301 -1.0992 0.9169
-2.4651 -21.4259 -1.0938 0.9172
-1.6881 -21.4235 -1.0898 0.9175
-0.9157 -21.4212 -1.0874 0.9177
-0.1459 -21.4189 -1.0863 0.9178
0.6232 -21.4065 -1.0861 0.9178
1.3925 -21.3875 -1.0869 0.9177
-21.7219 -7.7561 -1.6912 0.9116
-29.1994 -11.6242 -2.3044 0.8816
-28.8093 -12.6855 -2.3081 0.8814
-28.3837 -13.7352 -2.3120 0.8812
-27.9227 -14.7721 -2.3162 0.8810
-27.4265 -15.7953 -2.3206 0.8808
-26.8956 -16.8035 -2.3253 0.8806
-26.3301 -17.7957 -2.3302 0.8803
-25.7306 -18.7707 -2.3353 0.8801
-23.3424 -19.7443 -2.2417 0.8846
-22.2860 -20.2674 -2.2087 0.8862
-21.5987 -21.1081 -2.2144 0.8859
-19.0169 -21.4621 -2.1025 0.8914
-17.6790 -21.4575 -2.0385 0.8945
-14.0976 -21.4514 -1.8821 0.9022
-13.0181 -21.4491 -1.8397 0.9043
-11.9855 -21.4480 -1.8015 0.9062
-7.3443 -21.4399 -1.6617 0.9131
-5.6607 -21.4341 -1.6255 0.9149
-4.0411 -21.4312 -1.5991 0.9162
-3.2489 -21.4298 -1.5892 0.9167
-1.6881 -21.4237 -1.5757 0.9174
-0.9157 -21.4213 -1.5721 0.9176
0.6232 -21.4059 -1.5702 0.9177
-21.3413 -8.4960 -2.2053 0.9118
-22.4139 -9.8694 -2.3512 0.9063
-21.3122 -12.2740 -2.3611 0.9059
-20.8904 -13.0516 -2.3648 0.9058
-20.4415 -13.8158 -2.3687 0.9056
-19.9663 -14.5656 -2.3727 0.9055
-17.8083 -17.4038 -2.3906 0.9048
-17.2069 -18.0686 -2.3954 0.9046
-15.0910 -19.7184 -2.3839 0.9050
-14.0058 -19.7298 -2.3229 0.9073
-13.0110 -19.7980 -2.2744 0.9092
-12.3207 -20.3000 -2.2798 0.9090
-10.8846 -21.2343 -2.2908 0.9086
-8.2158 -21.4400 -2.2043 0.9119
-6.4935 -21.4381 -2.1505 0.9139
-5.6606 -21.4338 -2.1283 0.9148
-4.8442 -21.4323 -2.1095 0.9155
-2.4651 -21.4261 -2.0706 0.9170
-1.6882 -21.4238 -2.0632 0.9173
-0.9157 -21.4215 -2.0584 0.9174
-0.1459 -21.4191 -2.0564 0.9175
0.6232 -21.4053 -2.0559 0.9175
1.3925 -21.3869 -2.0576 0.9175
2.1782 -21.5084 -2.0755 0.9168
-16.9466 -8.2006 -2.2363 0.9270
-16.6603 -8.8139 -2.2389 0.9269
-17.4134 -10.0286 -2.3870 0.9222
-15.4492 -13.0678 -2.4036 0.9217
-12.4223 -16.2314 -2.4279 0.9210
-11.2672 -17.1445 -2.4369 0.9207
-4.7253 -7.7855 -1.0818 0.9640
-9.4130 -18.3636 -2.4512 0.9202
-8.7652 -18.7273 -2.4561 0.9201
-5.9693 -19.7075 -2.4460 0.9204
-4.4562 -19.7160 -2.4011 0.9218
-3.7182 -19.7193 -2.3837 0.9223
-2.2699 -19.7297 -2.3591 0.9231
-0.8489 -19.8591 -2.3611 0.9231
-0.1356 -19.9200 -2.3663 0.9229
0.5810 -19.9553 -2.3714 0.9227
2.0203 -19.9480 -2.3817 0.9224
2.7419 -19.9112 -2.3875 0.9222
-14.7533 -5.8733 -2.2499 0.9379
-14.3192 -6.9292 -2.2539 0.9378
-14.0748 -7.4461 -2.2561 0.9377
-13.8125 -7.9548 -2.2584 0.9376
-13.7585 -10.0369 -2.4130 0.9335
-12.6474 -11.5018 -2.4222 0.9333
-12.2429 -11.9647 -2.4255 0.9332
-11.8219 -12.4139 -2.4289 0.9331
-11.3849 -12.8488 -2.4324 0.9330
-10.9323 -13.2689 -2.4360 0.9329
-10.4646 -13.6735 -2.4397 0.9328
-9.4860 -14.4342 -2.4473 0.9326
-6.2428 -16.2916 -2.4720 0.9319
-4.4785 -16.9581 -2.4852 0.9316
-2.0192 -17.5510 -2.5032 0.9311
-1.3903 -17.6443 -2.5078 0.9310
1.1584 -17.7904 -2.5261 0.9305
2.4408 -17.7250 -2.5351 0.9303
-13.7688 -4.9164 -2.4085 0.9425
-13.1209 -5.7775 -2.3618 0.9435
-12.1735 -6.4402 -2.2688 0.9457
-11.9450 -6.8793 -2.2708 0.9457
-11.4422 -7.7334 -2.2751 0.9456
-10.8803 -8.5523 -2.2799 0.9454
-10.9268 -9.9371 -2.4331 0.9419
-10.5753 -10.3351 -2.4360 0.9418
-10.2097 -10.7210 -2.4389 0.9417
-9.8304 -11.0944 -2.4419 0.9417
-9.4377 -11.4548 -2.4451 0.9416
-9.0321 -11.8017 -2.4482 0.9415
-8.6140 -12.1346 -2.4515 0.9415
-4.7116 -7.7631 -1.4960 0.9639
-6.8262 -13.3171 -2.4653 0.9411
-6.3529 -13.5734 -2.4689 0.9411
-5.8701 -13.8131 -2.4725 0.9410
-5.3785 -14.0359 -2.4762 0.9409
-4.8784 -14.2415 -2.4800 0.9408
-4.3706 -14.4294 -2.4837 0.9407
-2.2739 -14.9991 -2.4992 0.9404
-1.7366 -15.0947 -2.5031 0.9403
0.4450 -15.2831 -2.5188 0.9399
0.9950 -15.2810 -2.5227 0.9398
1.5454 -15.2590 -2.5266 0.9397
-11.6110 -5.6187 -2.4245 0.9489
-10.2972 -6.4334 -2.2822 0.9518
-9.5713 -7.5235 -2.2883 0.9517
-8.4298 -8.8519 -2.2976 0.9515
-8.2952 -10.0681 -2.4520 0.9483
-4.7048 -7.7518 -1.7044 0.9638
-5.9939 -11.6933 -2.4698 0.9479
-5.1525 -12.1244 -2.4762 0.9478
-3.3817 -12.8051 -2.4894 0.9475
-0.0910 -13.3712 -2.5133 0.9470
0.3897 -13.3841 -2.5168 0.9470
0.8712 -13.3797 -2.5202 0.9469
1.3528 -13.3578 -2.5236 0.9468
1.8341 -13.3186 -2.5270 0.9468
-10.6804 -4.2519 -2.4300 0.9541
-8.5357 -6.7094 -2.2950 0.9566
-8.0463 -7.3175 -2.2990 0.9565
-7.7855 -7.6086 -2.3011 0.9565
-6.0149 -9.1525 -2.3150 0.9562
-4.6979 -7.7404 -1.9139 0.9637
-5.7015 -10.2029 -2.4706 0.9533
-5.3375 -10.4128 -2.4734 0.9533
-4.9658 -10.6098 -2.4762 0.9532
-4.5870 -10.7937 -2.4790 0.9532
-4.2014 -10.9642 -2.4819 0.9531
-3.8095 -11.1211 -2.4849 0.9531
-0.9312 -11.8187 -2.5060 0.9527
-0.5069 -11.8590 -2.5090 0.9526
-0.0809 -11.8840 -2.5121 0.9526
1.2018 -11.8668 -2.5212 0.9524
1.6291 -11.8301 -2.5242 0.9524
-9.7607 -3.4852 -2.4358 0.9583
-9.6341 -3.8353 -2.4371 0.9583
-9.4952 -4.1810 -2.4383 0.9583
-9.0066 -5.1870 -2.4427 0.9582
-8.8203 -5.5106 -2.4443 0.9582
-7.6952 -6.0487 -2.3004 0.9606
-7.4788 -6.3260 -2.3022 0.9605
-7.2527 -6.5957 -2.3040 0.9605
-6.5180 -7.3561 -2.3099 0.9604
-5.9842 -7.8191 -2.3141 0.9603
-5.7049 -8.0365 -2.3163 0.9603
-4.5134 -8.8051 -2.3254 0.9602
-4.1987 -8.9707 -2.3278 0.9601
-3.8779 -9.1251 -2.3302 0.9601
-3.7819 -9.8693 -2.4840 0.9575
-2.3400 -10.3534 -2.4947 0.9573
-1.9690 -10.4422 -2.4974 0.9573
-0.0727 -10.6843 -2.5111 0.9570
0.3113 -10.6917 -2.5139 0.9570
0.6957 -10.6853 -2.5166 0.9570
1.0801 -10.6649 -2.5193 0.9569
-8.8817 -3.1714 -2.4418 0.9618
-8.7660 -3.4898 -2.4429 0.9618
-8.3528 -4.4189 -2.4467 0.9617
-7.6529 -5.5828 -2.4527 0.9616
-7.3379 -5.7679 -2.4166 0.9622
-6.8382 -5.7843 -2.3190 0.9637
-6.5952 -5.9979 -2.3082 0.9638
-6.1572 -6.4656 -2.3117 0.9638
-5.4395 -7.1076 -2.3174 0.9637
-5.1853 -7.3045 -2.3194 0.9637
-4.9240 -7.4925 -2.3214 0.9636
-4.6559 -7.6713 -2.3234 0.9636
-4.1009 -8.0002 -2.3277 0.9635
-3.8146 -8.1499 -2.3299 0.9635
-3.5228 -8.2894 -2.3321 0.9635
-1.7876 -9.4802 -2.4979 0.9609
-1.1048 -9.6032 -2.5028 0.9608
-0.7600 -9.6462 -2.5053 0.9608
-0.4136 -9.6769 -2.5078 0.9608
-7.9172 -3.4862 -2.4490 0.9647
-7.6540 -4.0493 -2.4513 0.9646
-7.5076 -4.3237 -2.4526 0.9646
-7.3515 -4.5930 -2.4540 0.9646
-7.1860 -4.8568 -2.4554 0.9646
-7.0112 -5.1147 -2.4568 0.9646
-5.9148 -5.7805 -2.3413 0.9662
-5.6392 -5.9217 -2.3149 0.9666
-5.4269 -6.1248 -2.3166 0.9666
-5.2074 -6.3204 -2.3183 0.9665
-4.7478 -6.6882 -2.3219 0.9665
-4.5082 -6.8598 -2.3238 0.9665
-4.2624 -7.0230 -2.3257 0.9664
-2.3959 -7.9101 -2.3398 0.9662
-1.2433 -8.2012 -2.3482 0.9661
-1.0104 -8.7829 -2.5028 0.9639
-0.6951 -8.8216 -2.5051 0.9639
-0.3782 -8.8489 -2.5074 0.9638
0.8957 -8.8438 -2.5164 0.9637
1.2137 -8.8138 -2.5187 0.9637
-7.5053 -2.6799 -2.4512 0.9672
-7.4071 -2.9487 -2.4522 0.9672
-7.0562 -3.7330 -2.4553 0.9671
-6.9209 -3.9858 -2.4565 0.9671
-6.7768 -4.2339 -2.4578 0.9671
-6.6239 -4.4769 -2.4591 0.9671
-6.2926 -4.9462 -2.4618 0.9671
-6.1146 -5.1721 -2.4633 0.9670
-5.9285 -5.3916 -2.4648 0.9670
-5.7348 -5.6045 -2.4664 0.9670
-5.4877 -5.7626 -2.4476 0.9672
-5.1170 -5.7751 -2.3733 0.9682
-4.3740 -6.1616 -2.3241 0.9689
-3.9263 -6.4692 -2.3276 0.9688
-3.6944 -6.6111 -2.3294 0.9688
-3.4573 -6.7447 -2.3312 0.9688
-2.4640 -7.1931 -2.3387 0.9687
-1.6804 -7.4347 -2.3444 0.9686
-1.4135 -7.4965 -2.3464 0.9686
-0.0555 -8.1572 -2.5091 0.9664
0.5309 -8.1538 -2.5132 0.9664
-6.9554 -2.4835 -2.4550 0.9693
-6.6555 -3.2207 -2.4577 0.9693
-6.2789 -3.9229 -2.4610 0.9693
-6.1370 -4.1479 -2.4622 0.9693
-5.9872 -4.3678 -2.4635 0.9692
-5.8297 -4.5824 -2.4648 0.9692
-5.6645 -4.7914 -2.4662 0.9692
-5.3122 -5.1915 -2.4690 0.9692
-5.1254 -5.3822 -2.4705 0.9692
-4.7319 -5.7433 -2.4736 0.9691
-4.4145 -5.7681 -2.4144 0.9698
-3.8456 -5.8518 -2.3276 0.9709
-3.6357 -5.9903 -2.3293 0.9709
-3.4206 -6.1213 -2.3309 0.9709
-3.2009 -6.2447 -2.3326 0.9709
-2.9768 -6.3602 -2.3343 0.9708
-2.5165 -6.5671 -2.3377 0.9708
-2.2808 -6.6583 -2.3395 0.9708
-2.0418 -6.7410 -2.3413 0.9707
-1.7998 -6.8151 -2.3431 0.9707
-1.3081 -6.9374 -2.3467 0.9707
-0.8247 -7.1686 -2.3986 0.9700
-0.3220 -7.5339 -2.5066 0.9687
0.2198 -7.5493 -2.5105 0.9687
0.4911 -7.5423 -2.5124 0.9686
-6.4738 -2.3116 -2.4582 0.9712
-6.3888 -2.5434 -2.4591 0.9712
-6.1942 -2.9975 -2.4608 0.9712
-5.9680 -3.4370 -2.4628 0.9712
-5.8433 -3.6507 -2.4639 0.9712
-5.7110 -3.8599 -2.4650 0.9711
-5.5714 -4.0644 -2.4662 0.9711
-5.1099 -4.6471 -2.4700 0.9711
-4.9425 -4.8302 -2.4713 0.9711
-4.7685 -5.0074 -2.4727 0.9711
-4.0121 -5.6520 -2.4787 0.9710
-3.7851 -5.7597 -2.4647 0.9711
-3.2277 -5.7761 -2.3662 0.9723
-2.9768 -5.8076 -2.3338 0.9727
-2.5560 -6.0145 -2.3370 0.9726
-1.4458 -6.3967 -2.3452 0.9725
-1.2241 -6.4921 -2.3625 0.9723
-0.5501 -6.9819 -2.5045 0.9707
0.2043 -7.0157 -2.5099 0.9706
0.4563 -7.0088 -2.5117 0.9706
-6.0482 -2.1596 -2.4612 0.9729
-5.8815 -2.5898 -2.4627 0.9728
-5.6845 -3.0073 -2.4645 0.9728
-5.4583 -3.4102 -2.4664 0.9728
-5.2041 -3.7964 -2.4686 0.9728
-4.9229 -4.1640 -2.4709 0.9728
-3.7464 -5.2776 -2.4803 0.9727
-3.5566 -5.4119 -2.4817 0.9726
-3.1629 -5.6601 -2.4847 0.9726
-2.9510 -5.7572 -2.4792 0.9727
-2.6992 -5.7670 -2.4401 0.9731
-2.4630 -5.7958 -2.4133 0.9734
-2.0284 -5.9215 -2.3987 0.9735
-1.8227 -6.0178 -2.4096 0.9734
-1.2085 -6.4090 -2.4993 0.9724
-0.7464 -6.4879 -2.5027 0.9724
-0.5133 -6.5149 -2.5044 0.9724
0.1906 -6.5455 -2.5094 0.9723
0.4258 -6.5388 -2.5111 0.9723
0.8951 -6.4999 -2.5144 0.9723
-5.5944 -2.2272 -2.4644 0.9743
-5.5126 -2.4273 -2.4652 0.9743
-5.3277 -2.8186 -2.4669 0.9743
-4.9995 -3.3790 -2.4697 0.9743
-4.8770 -3.5578 -2.4707 0.9742
-4.7481 -3.7322 -2.4718 0.9742
-4.6131 -3.9021 -2.4729 0.9742
-4.1728 -4.3818 -2.4764 0.9742
-3.6831 -4.8126 -2.4803 0.9741
-3.5099 -4.9444 -2.4817 0.9741
-3.3319 -5.0700 -2.4830 0.9741
-3.1495 -5.1893 -2.4844 0.9741
-2.9629 -5.3021 -2.4859 0.9741
-2.5778 -5.5075 -2.4888 0.9741
-2.3798 -5.5999 -2.4903 0.9740
-1.9742 -5.7632 -2.4933 0.9740
-1.5574 -5.8974 -2.4964 0.9740
-1.1316 -6.0014 -2.4995 0.9739
-0.9160 -6.0420 -2.5011 0.9739
-0.6989 -6.0748 -2.5027 0.9739
0.1784 -6.1277 -2.5090 0.9739
0.3986 -6.1211 -2.5105 0.9738
0.8379 -6.0842 -2.5136 0.9738
-5.3289 -1.9028 -2.4661 0.9756
-5.2586 -2.0934 -2.4667 0.9756
-5.1815 -2.2816 -2.4674 0.9756
-5.0076 -2.6492 -2.4690 0.9756
-4.9109 -2.8283 -2.4698 0.9756
-4.8079 -3.0038 -2.4707 0.9756
-4.6987 -3.1757 -2.4716 0.9756
-4.2027 -3.8220 -2.4757 0.9755
-3.9211 -4.1175 -2.4780 0.9755
-3.4607 -4.5219 -2.4816 0.9755
-3.2978 -4.6456 -2.4829 0.9754
-2.4216 -5.1738 -2.4896 0.9754
-2.0463 -5.3403 -2.4924 0.9754
-1.6597 -5.4797 -2.4953 0.9753
-1.4628 -5.5390 -2.4968 0.9753
-1.2637 -5.5912 -2.4982 0.9753
-0.6563 -5.7048 -2.5026 0.9753
-0.2455 -5.7440 -2.5056 0.9752
0.7866 -5.7121 -2.5129 0.9752
-4.7185 -2.4962 -2.4709 0.9767
-4.6272 -2.6649 -2.4717 0.9767
-4.5301 -2.8303 -2.4725 0.9767
-4.3184 -3.1504 -2.4743 0.9767
-3.6939 -3.8789 -2.4794 0.9767
-3.4091 -4.1378 -2.4817 0.9766
-3.2599 -4.2595 -2.4828 0.9766
-3.1064 -4.3759 -2.4840 0.9766
-2.9487 -4.4869 -2.4853 0.9766
-2.1053 -4.9541 -2.4917 0.9766
-1.9271 -5.0292 -2.4930 0.9765
-1.5629 -5.1601 -2.4957 0.9765
-1.3774 -5.2158 -2.4971 0.9765
-1.1899 -5.2648 -2.4985 0.9765
-1.0006 -5.3071 -2.4998 0.9765
-0.8099 -5.3425 -2.5012 0.9765
-0.6179 -5.3712 -2.5026 0.9765
-0.2311 -5.4077 -2.5054 0.9764
0.1577 -5.4163 -2.5082 0.9764
0.3523 -5.4101 -2.5096 0.9764
-4.5362 -2.1951 -2.4720 0.9778
-4.2777 -2.6726 -2.4742 0.9778
-4.0777 -2.9747 -2.4759 0.9778
-3.9697 -3.1204 -2.4768 0.9778
-3.6153 -3.5332 -2.4797 0.9777
-3.3553 -3.7867 -2.4818 0.9777
-2.9326 -4.1311 -2.4851 0.9777
-2.7836 -4.2357 -2.4862 0.9777
-2.6310 -4.3349 -2.4874 0.9777
-2.4748 -4.4287 -2.4886 0.9777
-2.1527 -4.5994 -2.4910 0.9776
-1.8189 -4.7468 -2.4935 0.9776
-1.4751 -4.8701 -2.4961 0.9776
-0.9443 -5.0083 -2.5000 0.9775
-0.7643 -5.0416 -2.5013 0.9775
-0.5831 -5.0685 -2.5026 0.9775
-0.2181 -5.1026 -2.5052 0.9775
-0.0348 -5.1099 -2.5066 0.9775
0.1488 -5.1105 -2.5079 0.9775
0.3324 -5.1045 -2.5092 0.9775
0.5157 -5.0919 -2.5105 0.9775
0.6986 -5.0727 -2.5118 0.9774
-4.4277 -1.7627 -2.4724 0.9788
-4.3626 -1.9210 -2.4730 0.9787
-4.2920 -2.0769 -2.4736 0.9787
-4.0472 -2.5286 -2.4757 0.9787
-3.9551 -2.6731 -2.4765 0.9787
-3.7556 -2.9520 -2.4782 0.9787
-3.6484 -3.0861 -2.4791 0.9787
-3.5366 -3.2163 -2.4800 0.9787
-3.2992 -3.4644 -2.4819 0.9787
-3.0445 -3.6953 -2.4839 0.9787
-2.9111 -3.8038 -2.4849 0.9786
-1.5586 -4.5502 -2.4952 0.9786
-1.2293 -4.6549 -2.4977 0.9785
-0.7227 -4.7672 -2.5014 0.9785
-0.5513 -4.7924 -2.5026 0.9785
-0.0329 -4.8311 -2.5063 0.9785
0.1407 -4.8315 -2.5076 0.9785
0.3142 -4.8257 -2.5088 0.9784
0.4876 -4.8137 -2.5100 0.9784
-4.1348 -1.8207 -2.4745 0.9796
-3.9955 -2.1138 -2.4757 0.9796
-3.8356 -2.3964 -2.4771 0.9796
-3.6560 -2.6671 -2.4786 0.9796
-3.5591 -2.7976 -2.4794 0.9796
-3.4575 -2.9245 -2.4803 0.9796
-3.1263 -3.2829 -2.4829 0.9795
-3.0075 -3.3943 -2.4839 0.9795
-2.8849 -3.5015 -2.4849 0.9795
-2.7584 -3.6042 -2.4858 0.9795
-2.6283 -3.7025 -2.4869 0.9795
-2.0747 -4.0475 -2.4911 0.9795
-1.6296 -4.2528 -2.4945 0.9794
-1.1645 -4.4095 -2.4979 0.9794
-1.0059 -4.4505 -2.4991 0.9794
-0.6846 -4.5155 -2.5014 0.9794
-0.3591 -4.5573 -2.5038 0.9794
-0.1953 -4.5694 -2.5049 0.9794
0.1333 -4.5759 -2.5073 0.9793
0.2976 -4.5703 -2.5085 0.9793
0.4617 -4.5588 -2.5096 0.9793
0.6254 -4.5413 -2.5108 0.9793
-3.9834 -1.5858 -2.4754 0.9804
-3.7189 -2.1418 -2.4777 0.9804
-3.6406 -2.2745 -2.4784 0.9804
-3.5576 -2.4045 -2.4791 0.9804
-3.3779 -2.6552 -2.4806 0.9804
-3.2814 -2.7756 -2.4814 0.9803
-3.0758 -3.0060 -2.4831 0.9803
-2.9670 -3.1156 -2.4839 0.9803
-2.8542 -3.2213 -2.4848 0.9803
-2.7377 -3.3229 -2.4857 0.9803
-2.6176 -3.4203 -2.4867 0.9803
-2.4941 -3.5135 -2.4877 0.9803
-2.1044 -3.7658 -2.4906 0.9803
-1.9686 -3.8405 -2.4917 0.9803
-1.8303 -3.9104 -2.4927 0.9803
-1.6893 -3.9753 -2.4938 0.9802
-1.5462 -4.0351 -2.4949 0.9802
-1.4009 -4.0898 -2.4959 0.9802
-1.2537 -4.1393 -2.4970 0.9802
-1.1048 -4.1835 -2.4981 0.9802
-0.4954 -4.3062 -2.5026 0.9802
-0.3406 -4.3231 -2.5037 0.9802
-0.0295 -4.3403 -2.5059 0.9802
0.1264 -4.3405 -2.5070 0.9801
0.2823 -4.3351 -2.5081 0.9801
0.4379 -4.3240 -2.5092 0.9801
0.5932 -4.3074 -2.5103 0.9801
