ply
format ascii 1.0
element vertex 442
property float32 x
property float32 y
property float32 z
property float32 I
end_header
44.4991 -20.2760 8.6225 0.8199
44.5241 -18.3851 8.4938 0.8223
46.1206 -13.4504 8.4711 0.8227
44.2686 -11.2009 8.0517 0.8307
32.8701 -24.6376 6.2930 0.8469
46.4476 -13.5458 7.4119 0.8222
4.1365 -23.7053 3.1336 0.9075
31.4058 -36.3967 6.2601 0.8237
31.3490 -29.2657 5.5847 0.8411
31.3174 -25.2814 5.2412 0.8501
32.8700 -24.6375 5.3493 0.8473
35.9469 -24.9779 5.7002 0.8381
46.3800 -17.2278 6.4428 0.8191
46.2885 -15.3246 6.3495 0.8215
46.3129 -13.5065 6.2821 0.8232
31.3979 -36.3876 5.1609 0.8242
31.3259 -27.2044 4.4552 0.8463
32.8699 -24.6375 4.4111 0.8477
44.7104 -20.3723 5.2760 0.8206
4.1431 -23.7432 2.0403 0.9078
31.3902 -36.3786 4.0675 0.8246
31.3703 -33.8182 3.9048 0.8310
31.3520 -31.4517 3.7593 0.8367
31.3192 -27.1986 3.5115 0.8466
31.3044 -25.2708 3.4057 0.8509
35.9467 -24.9778 3.7055 0.8389
44.7878 -20.4076 4.1664 0.8207
31.3824 -36.3696 2.9788 0.8249
31.3629 -33.8101 2.8597 0.8313
31.3448 -31.4446 2.7532 0.8370
31.3125 -27.1928 2.5717 0.8469
39.4604 -25.3664 2.9089 0.8286
44.7799 -20.4040 3.0515 0.8210
4.1496 -23.7807 0.9519 0.9079
31.3746 -36.3606 1.8937 0.8251
31.3554 -33.8021 1.8180 0.8315
31.3058 -27.1870 1.6349 0.8471
32.8697 -24.6373 1.6198 0.8484
39.4602 -25.3663 1.8497 0.8288
44.7721 -20.4004 1.9400 0.8212
31.3669 -36.3517 0.8110 0.8252
31.2850 -25.2552 0.6792 0.8514
32.8695 -24.6372 0.6939 0.8485
35.9464 -24.9776 0.7394 0.8394
44.3097 -20.1897 0.8225 0.8230
4.1562 -23.8183 -0.1361 0.9078
31.3592 -36.3427 -0.2703 0.8253
31.2925 -27.1754 -0.2333 0.8472
31.2785 -25.2500 -0.2263 0.8515
35.9463 -24.9775 -0.2464 0.8394
16.9857 -46.1771 -1.3854 0.8213
17.3924 -42.5022 -1.2931 0.8321
31.3515 -36.3338 -1.3513 0.8253
31.3163 -31.4159 -1.2490 0.8374
31.3006 -29.2205 -1.2057 0.8425
31.2859 -27.1697 -1.1668 0.8472
32.8694 -24.6371 -1.1567 0.8484
39.4598 -25.3661 -1.3209 0.8289
37.6889 -13.9995 -1.1321 0.8514
37.7220 -9.5445 -1.0956 0.8558
17.3017 -42.2806 -2.3168 0.8328
31.3258 -33.7702 -2.3360 0.8315
31.2937 -29.2141 -2.1711 0.8424
37.6588 -17.1592 -2.0987 0.8473
37.6709 -15.5552 -2.0669 0.8494
37.6826 -13.9971 -2.0386 0.8513
37.6939 -12.4792 -2.0137 0.8530
37.7050 -10.9961 -1.9918 0.8544
5.6679 -32.4814 -2.4176 0.8761
8.5625 -34.2987 -2.5920 0.8678
9.8225 -34.0833 -2.6008 0.8674
12.3264 -33.5104 -2.6180 0.8666
14.7961 -32.7478 -2.6348 0.8658
16.0132 -32.2955 -2.6431 0.8654
18.4025 -31.2503 -2.6591 0.8646
19.5706 -30.6580 -2.6669 0.8643
21.8442 -29.3370 -2.6819 0.8636
22.9455 -28.6094 -2.6890 0.8632
24.0209 -27.8382 -2.6960 0.8629
25.0682 -27.0242 -2.7027 0.8626
26.0855 -26.1685 -2.7092 0.8623
27.0711 -25.2720 -2.7154 0.8620
29.4470 -22.0718 -2.6983 0.8628
32.1428 -14.6459 -2.5899 0.8679
32.2563 -13.3194 -2.5588 0.8694
34.3865 -8.7005 -2.6007 0.8674
4.2995 -24.6396 -2.4013 0.9044
6.4846 -25.9750 -2.5703 0.8980
7.4327 -25.7908 -2.5768 0.8978
9.3124 -25.3165 -2.5897 0.8973
11.1606 -24.7015 -2.6023 0.8968
12.0695 -24.3417 -2.6084 0.8966
13.8496 -23.5187 -2.6203 0.8961
15.5704 -22.5607 -2.6317 0.8957
17.2208 -21.4715 -2.6425 0.8953
18.0162 -20.8792 -2.6476 0.8951
18.7899 -20.2561 -2.6525 0.8949
19.5407 -19.6029 -2.6573 0.8947
20.9685 -18.2096 -2.6662 0.8944
22.2896 -16.7070 -2.6743 0.8941
22.9073 -15.9172 -2.6780 0.8940
23.4949 -15.1033 -2.6815 0.8938
25.5248 -11.6304 -2.6929 0.8934
25.9476 -10.7144 -2.6951 0.8933
26.3350 -9.7822 -2.6971 0.8932
26.6862 -8.8349 -2.6988 0.8932
27.0005 -7.8743 -2.7002 0.8931
6.7277 -20.5398 -2.5674 0.9166
7.4764 -20.3252 -2.5725 0.9165
8.2180 -20.0827 -2.5775 0.9163
8.9517 -19.8124 -2.5825 0.9162
9.6761 -19.5147 -2.5874 0.9160
10.3903 -19.1898 -2.5922 0.9159
11.7837 -18.4595 -2.6014 0.9156
13.1233 -17.6247 -2.6102 0.9153
13.7703 -17.1693 -2.6144 0.9152
14.4007 -16.6892 -2.6184 0.9150
15.0135 -16.1850 -2.6223 0.9149
16.1826 -15.1072 -2.6297 0.9147
17.2698 -13.9413 -2.6364 0.9145
18.7319 -12.0414 -2.6452 0.9142
19.1708 -11.3714 -2.6477 0.9141
19.5845 -10.6846 -2.6500 0.9141
19.9720 -9.9819 -2.6522 0.9140
20.6660 -8.5335 -2.6559 0.9139
21.2484 -7.0346 -2.6587 0.9138
3.0805 -17.6535 -2.5391 0.9302
3.7194 -17.5622 -2.5436 0.9300
4.3556 -17.4473 -2.5480 0.9299
6.2396 -16.9628 -2.5609 0.9296
9.2436 -15.6970 -2.5811 0.9290
10.9259 -14.6736 -2.5921 0.9288
11.4614 -14.2905 -2.5956 0.9287
11.9830 -13.8873 -2.5989 0.9286
13.4561 -12.5618 -2.6083 0.9283
14.3540 -11.5874 -2.6138 0.9282
14.7755 -11.0748 -2.6163 0.9281
15.1779 -10.5464 -2.6187 0.9281
15.5604 -10.0027 -2.6210 0.9280
16.2636 -8.8728 -2.6250 0.9279
16.5831 -8.2882 -2.6268 0.9278
17.4071 -6.4658 -2.6311 0.9277
4.8161 -14.7037 -2.5489 0.9392
6.3975 -14.1593 -2.5596 0.9390
6.9115 -13.9391 -2.5631 0.9389
7.4177 -13.6997 -2.5665 0.9388
7.9154 -13.4416 -2.5698 0.9387
8.8824 -12.8701 -2.5761 0.9386
9.8066 -12.2273 -2.5821 0.9384
11.1010 -11.1362 -2.5904 0.9382
11.5052 -10.7406 -2.5929 0.9382
12.2691 -9.9044 -2.5976 0.9381
12.6277 -9.4650 -2.5998 0.9380
12.9698 -9.0121 -2.6018 0.9380
13.2950 -8.5465 -2.6037 0.9379
13.6028 -8.0687 -2.6055 0.9379
13.8927 -7.5794 -2.6071 0.9379
14.1642 -7.0793 -2.6086 0.9378
15.2326 -4.4424 -2.6139 0.9377
15.3861 -3.8930 -2.6146 0.9377
2.3138 -13.2597 -2.5300 0.9467
2.7925 -13.1853 -2.5333 0.9466
3.7419 -12.9842 -2.5398 0.9465
4.6766 -12.7137 -2.5462 0.9464
5.1368 -12.5528 -2.5493 0.9463
5.5913 -12.3750 -2.5524 0.9462
6.0395 -12.1804 -2.5554 0.9462
6.4808 -11.9693 -2.5584 0.9461
6.9145 -11.7418 -2.5612 0.9460
7.3400 -11.4984 -2.5641 0.9460
9.6874 -9.7182 -2.5792 0.9457
10.0389 -9.3717 -2.5814 0.9456
10.3776 -9.0122 -2.5834 0.9456
11.0146 -8.2559 -2.5873 0.9455
11.3119 -7.8601 -2.5891 0.9455
11.5945 -7.4533 -2.5907 0.9454
11.8619 -7.0360 -2.5923 0.9454
12.3495 -6.1723 -2.5950 0.9454
13.2776 -3.8722 -2.5996 0.9453
2.4796 -11.7085 -2.5298 0.9522
4.5582 -11.1389 -2.5441 0.9520
4.9608 -10.9796 -2.5468 0.9519
5.3578 -10.8055 -2.5494 0.9519
6.5090 -10.1966 -2.5571 0.9517
7.2381 -9.7208 -2.5618 0.9517
7.5894 -9.4628 -2.5641 0.9516
7.9313 -9.1918 -2.5663 0.9516
8.8955 -8.3044 -2.5724 0.9515
9.1948 -7.9851 -2.5742 0.9514
9.7576 -7.3137 -2.5776 0.9514
10.2697 -6.6017 -2.5806 0.9513
10.5058 -6.2316 -2.5820 0.9513
10.7282 -5.8529 -2.5833 0.9513
10.9364 -5.4660 -2.5844 0.9512
11.4735 -4.2618 -2.5872 0.9512
11.6224 -3.8478 -2.5879 0.9512
2.2278 -10.5190 -2.5270 0.9568
2.9837 -10.3531 -2.5322 0.9567
4.0928 -10.0016 -2.5398 0.9566
4.4538 -9.8575 -2.5422 0.9565
5.1599 -9.5298 -2.5469 0.9564
6.1717 -8.9424 -2.5536 0.9563
7.1152 -8.2459 -2.5597 0.9562
8.2460 -7.1611 -2.5668 0.9561
8.5032 -6.8643 -2.5684 0.9561
9.2076 -5.9189 -2.5725 0.9560
9.8039 -4.9000 -2.5759 0.9560
9.9773 -4.5461 -2.5768 0.9559
10.2843 -3.8201 -2.5784 0.9559
10.6421 -2.6927 -2.5800 0.9559
2.3641 -9.4696 -2.5271 0.9605
2.7054 -9.3873 -2.5295 0.9604
3.0438 -9.2925 -2.5318 0.9604
3.7099 -9.0660 -2.5363 0.9603
4.0368 -8.9346 -2.5385 0.9603
4.3590 -8.7912 -2.5407 0.9603
4.6760 -8.6361 -2.5428 0.9602
5.8835 -7.9015 -2.5507 0.9601
6.1680 -7.6905 -2.5525 0.9601
7.2252 -6.7450 -2.5592 0.9600
7.6997 -6.2157 -2.5621 0.9599
7.9223 -5.9381 -2.5635 0.9599
8.8751 -4.4357 -2.5689 0.9598
9.0317 -4.1153 -2.5698 0.9598
9.1764 -3.7892 -2.5705 0.9598
9.3090 -3.4578 -2.5712 0.9598
9.5372 -2.7814 -2.5722 0.9598
1.5306 -8.7713 -2.5206 0.9637
2.7810 -8.4904 -2.5292 0.9635
3.0869 -8.3919 -2.5313 0.9635
3.6875 -8.1616 -2.5354 0.9635
4.2708 -7.8877 -2.5393 0.9634
4.8334 -7.5716 -2.5430 0.9633
5.1060 -7.3982 -2.5448 0.9633
5.6317 -7.0218 -2.5482 0.9633
5.8841 -6.8192 -2.5498 0.9632
6.3663 -6.3865 -2.5528 0.9632
6.8160 -5.9192 -2.5556 0.9632
7.0279 -5.6733 -2.5569 0.9631
7.2307 -5.4197 -2.5581 0.9631
7.4241 -5.1587 -2.5593 0.9631
7.6079 -4.8906 -2.5603 0.9631
7.7817 -4.6158 -2.5613 0.9631
7.9454 -4.3347 -2.5623 0.9631
8.3733 -3.4575 -2.5646 0.9630
8.6037 -2.8484 -2.5657 0.9630
8.7888 -2.2238 -2.5664 0.9630
1.9870 -7.9591 -2.5232 0.9663
2.2734 -7.8886 -2.5251 0.9662
2.5574 -7.8078 -2.5271 0.9662
2.8385 -7.7167 -2.5290 0.9662
3.9262 -7.2513 -2.5363 0.9661
4.4429 -6.9599 -2.5397 0.9660
4.6931 -6.8001 -2.5413 0.9660
5.1758 -6.4534 -2.5445 0.9660
5.8501 -5.8687 -2.5487 0.9659
6.8207 -4.7394 -2.5546 0.9658
6.9893 -4.4930 -2.5556 0.9658
7.1489 -4.2404 -2.5565 0.9658
7.8023 -2.8982 -2.5600 0.9658
7.9029 -2.6164 -2.5605 0.9658
7.9930 -2.3311 -2.5609 0.9658
8.0727 -2.0426 -2.5612 0.9658
1.5706 -7.4159 -2.5197 0.9686
1.8374 -7.3600 -2.5216 0.9685
2.1022 -7.2945 -2.5234 0.9685
2.6244 -7.1347 -2.5270 0.9685
3.1344 -6.9372 -2.5304 0.9684
3.3839 -6.8246 -2.5321 0.9684
3.6293 -6.7029 -2.5337 0.9684
4.1065 -6.4329 -2.5369 0.9683
4.5632 -6.1285 -2.5398 0.9683
4.7832 -5.9639 -2.5413 0.9683
5.4057 -5.4229 -2.5452 0.9682
5.7866 -5.0252 -2.5476 0.9682
5.9660 -4.8161 -2.5487 0.9682
6.1377 -4.6005 -2.5497 0.9682
6.3015 -4.3786 -2.5507 0.9682
6.4571 -4.1508 -2.5516 0.9682
6.7428 -3.6786 -2.5532 0.9681
6.8726 -3.4349 -2.5539 0.9681
6.9933 -3.1865 -2.5546 0.9681
7.2072 -2.6771 -2.5556 0.9681
7.3000 -2.4168 -2.5561 0.9681
7.3831 -2.1532 -2.5564 0.9681
7.4566 -1.8867 -2.5567 0.9681
1.4591 -6.8899 -2.5185 0.9705
2.1966 -6.7063 -2.5236 0.9705
2.4378 -6.6273 -2.5252 0.9704
2.6761 -6.5396 -2.5268 0.9704
2.9112 -6.4432 -2.5284 0.9704
4.2372 -5.6906 -2.5372 0.9703
4.4413 -5.5375 -2.5385 0.9703
4.8323 -5.2093 -2.5410 0.9703
5.1986 -4.8532 -2.5433 0.9702
5.5383 -4.4709 -2.5453 0.9702
5.6976 -4.2706 -2.5463 0.9702
5.8494 -4.0645 -2.5472 0.9702
5.9937 -3.8529 -2.5480 0.9702
6.1302 -3.6362 -2.5488 0.9702
6.2586 -3.4145 -2.5495 0.9702
6.5944 -2.7230 -2.5513 0.9701
2.4956 -6.0985 -2.5252 0.9722
3.3512 -5.6909 -2.5309 0.9721
3.5555 -5.5697 -2.5322 0.9721
3.9504 -5.3054 -2.5348 0.9721
4.1404 -5.1625 -2.5360 0.9720
4.3253 -5.0127 -2.5372 0.9720
4.5047 -4.8562 -2.5383 0.9720
5.4520 -3.7883 -2.5441 0.9720
5.5863 -3.5910 -2.5449 0.9720
5.8330 -3.1823 -2.5463 0.9719
5.9450 -2.9713 -2.5469 0.9719
6.1456 -2.5377 -2.5480 0.9719
6.2339 -2.3156 -2.5484 0.9719
6.3141 -2.0904 -2.5488 0.9719
6.3859 -1.8623 -2.5491 0.9719
6.4494 -1.6318 -2.5494 0.9719
1.2739 -6.0152 -2.5165 0.9738
1.4902 -5.9690 -2.5180 0.9738
1.7047 -5.9151 -2.5194 0.9737
1.9172 -5.8534 -2.5209 0.9737
2.3354 -5.7070 -2.5237 0.9737
2.5403 -5.6224 -2.5251 0.9737
3.3266 -5.2112 -2.5303 0.9736
3.5134 -5.0907 -2.5315 0.9736
3.6958 -4.9635 -2.5327 0.9736
4.5330 -4.2317 -2.5380 0.9736
4.8287 -3.8980 -2.5398 0.9735
4.9673 -3.7232 -2.5407 0.9735
5.0994 -3.5434 -2.5414 0.9735
5.3438 -3.1697 -2.5429 0.9735
5.4555 -2.9763 -2.5435 0.9735
5.5602 -2.7790 -2.5441 0.9735
5.8302 -2.1656 -2.5455 0.9735
5.9051 -1.9550 -2.5458 0.9735
1.1959 -5.6469 -2.5156 0.9751
1.6002 -5.5525 -2.5184 0.9751
2.1920 -5.3566 -2.5224 0.9751
2.5737 -5.1906 -2.5250 0.9750
2.7599 -5.0973 -2.5262 0.9750
3.2971 -4.7773 -2.5297 0.9750
3.7969 -4.4003 -2.5330 0.9750
4.5305 -3.6573 -2.5375 0.9749
4.7843 -3.3244 -2.5390 0.9749
4.9020 -3.1512 -2.5397 0.9749
5.0134 -2.9737 -2.5404 0.9749
5.1181 -2.7923 -2.5409 0.9749
5.3076 -2.4184 -2.5420 0.9749
5.4694 -2.0316 -2.5428 0.9749
5.5396 -1.8340 -2.5431 0.9749
5.6025 -1.6339 -2.5434 0.9749
5.6581 -1.4316 -2.5436 0.9749
0.9334 -5.3492 -2.5135 0.9763
1.1257 -5.3150 -2.5148 0.9763
1.3166 -5.2739 -2.5161 0.9763
1.8794 -5.1094 -2.5200 0.9763
2.0629 -5.0410 -2.5212 0.9763
2.5971 -4.7965 -2.5248 0.9762
3.1023 -4.4950 -2.5281 0.9762
3.4199 -4.2641 -2.5302 0.9762
3.7202 -4.0104 -2.5321 0.9762
3.8632 -3.8755 -2.5330 0.9762
4.0014 -3.7355 -2.5338 0.9762
4.1344 -3.5904 -2.5347 0.9762
4.2620 -3.4406 -2.5354 0.9761
4.3842 -3.2861 -2.5362 0.9761
4.9927 -2.2749 -2.5396 0.9761
5.0720 -2.0943 -2.5400 0.9761
5.2107 -1.7251 -2.5407 0.9761
1.0619 -5.0141 -2.5141 0.9774
1.2420 -4.9752 -2.5154 0.9774
2.2844 -4.6071 -2.5224 0.9773
2.6116 -4.4349 -2.5246 0.9773
3.2252 -4.0213 -2.5286 0.9773
3.8986 -3.3857 -2.5328 0.9773
4.0189 -3.2443 -2.5335 0.9773
4.1341 -3.0986 -2.5342 0.9772
4.3481 -2.7951 -2.5355 0.9772
4.5396 -2.4766 -2.5366 0.9772
4.7822 -1.9747 -2.5379 0.9772
4.9686 -1.4490 -2.5387 0.9772
1.0038 -4.7398 -2.5135 0.9784
1.3429 -4.6598 -2.5158 0.9784
1.6756 -4.5554 -2.5181 0.9784
1.8391 -4.4942 -2.5192 0.9784
2.0003 -4.4272 -2.5203 0.9783
2.3151 -4.2756 -2.5224 0.9783
2.4682 -4.1913 -2.5234 0.9783
2.6182 -4.1015 -2.5244 0.9783
2.7650 -4.0063 -2.5253 0.9783
2.9082 -3.9058 -2.5262 0.9783
3.4425 -3.4534 -2.5296 0.9783
3.5654 -3.3285 -2.5304 0.9783
3.6838 -3.1991 -2.5311 0.9783
3.9061 -2.9278 -2.5325 0.9782
4.1083 -2.6409 -2.5337 0.9782
4.3712 -2.1847 -2.5351 0.9782
4.5182 -1.8657 -2.5359 0.9782
2.5993 -0.6577 -1.3909 0.9880
0.7883 -4.5177 -2.5118 0.9793
1.1118 -4.4534 -2.5140 0.9793
1.4300 -4.3658 -2.5162 0.9793
1.7414 -4.2554 -2.5183 0.9792
1.8939 -4.1918 -2.5193 0.9792
2.0441 -4.1226 -2.5203 0.9792
2.1919 -4.0481 -2.5213 0.9792
2.6177 -3.7929 -2.5241 0.9792
2.8853 -3.5976 -2.5258 0.9792
3.0137 -3.4927 -2.5266 0.9792
3.4872 -3.0283 -2.5296 0.9792
3.6975 -2.7714 -2.5309 0.9791
3.7956 -2.6374 -2.5314 0.9791
4.1375 -2.0679 -2.5334 0.9791
4.2765 -1.7659 -2.5341 0.9791
4.3378 -1.6113 -2.5344 0.9791
4.3934 -1.4545 -2.5347 0.9791
2.6325 -0.7677 -1.5019 0.9876
2.5692 -0.6501 -1.4515 0.9880
0.7477 -4.2849 -2.5113 0.9801
0.9016 -4.2571 -2.5123 0.9801
1.0544 -4.2237 -2.5134 0.9801
1.3562 -4.1404 -2.5155 0.9801
1.5047 -4.0907 -2.5165 0.9801
1.6514 -4.0355 -2.5175 0.9801
1.9385 -3.9095 -2.5194 0.9800
2.2159 -3.7629 -2.5212 0.9800
2.3505 -3.6822 -2.5221 0.9800
2.6107 -3.5062 -2.5238 0.9800
2.8576 -3.3117 -2.5254 0.9800
2.9756 -3.2078 -2.5261 0.9800
3.2001 -2.9874 -2.5275 0.9800
3.3062 -2.8712 -2.5282 0.9800
3.5056 -2.6276 -2.5294 0.9800
3.5986 -2.5005 -2.5299 0.9800
3.6868 -2.3700 -2.5305 0.9800
3.9225 -1.9605 -2.5318 0.9799
3.9911 -1.8185 -2.5321 0.9799
4.0543 -1.6741 -2.5325 0.9799
4.1650 -1.3789 -2.5330 0.9799
2.6044 -0.7595 -1.5663 0.9875
2.5392 -0.6425 -1.5122 0.9880
