ply
format ascii 1.0
element vertex 638
property float32 x
property float32 y
property float32 z
property float32 I
end_header
0.1172 32.3786 5.7093 0.8768
-1.0185 31.6078 5.5762 0.8795
-1.9520 28.6426 5.0622 0.8899
-3.9161 27.8476 4.9586 0.8921
-5.2629 29.6718 5.3136 0.8848
-6.0108 28.0119 5.0517 0.8901
-6.3782 25.2734 4.5961 0.8995
-11.6883 25.7319 4.9834 0.8916
-15.5767 24.3179 5.0921 0.8893
-15.3272 22.1399 4.7481 0.8964
-15.9414 21.3502 4.6982 0.8974
-37.8449 15.6425 7.2206 0.8468
-1.0083 31.2880 4.7956 0.8810
-1.8382 26.9722 4.1416 0.8964
-2.9137 27.9481 4.3047 0.8925
-3.8958 27.7029 4.2857 0.8930
-4.8549 27.3718 4.2587 0.8936
-6.1101 28.4745 4.4614 0.8888
-7.2002 24.7559 3.9496 0.9009
-8.1896 24.8065 4.0019 0.8997
-9.2092 24.8650 4.0620 0.8983
-10.2740 24.9563 4.1345 0.8965
-11.3815 25.0566 4.2160 0.8946
-12.5379 25.1668 4.3074 0.8925
-15.0271 25.4213 4.5239 0.8874
-14.7106 21.2493 3.9592 0.9007
-40.5487 20.2725 6.9449 0.8324
-38.3073 15.8337 6.3500 0.8456
0.1237 34.1939 4.4528 0.8712
-2.9565 28.3588 3.7129 0.8914
-3.9293 27.9415 3.6744 0.8924
-4.9351 27.8238 3.6798 0.8923
-6.1016 24.1771 3.2471 0.9043
-7.0428 24.2148 3.2839 0.9033
-9.0018 24.3048 3.3751 0.9007
-10.0277 24.3579 3.4302 0.8992
-11.0924 24.4201 3.4927 0.8975
-14.1890 22.1516 3.4256 0.8993
-14.7700 21.3352 3.3791 0.9006
-42.3146 21.1554 6.1605 0.8263
-43.8565 19.9958 6.2766 0.8233
-42.5572 17.5903 5.9966 0.8305
0.1222 33.7645 3.6257 0.8730
-1.9518 28.6397 3.0825 0.8909
-3.9359 27.9883 3.0350 0.8925
-5.0174 28.2881 3.0850 0.8909
-5.9589 23.6117 2.6150 0.9067
-7.6964 23.3126 2.6362 0.9060
-11.9162 23.9188 2.8695 0.8981
-13.0414 23.9841 2.9316 0.8960
-36.9231 29.7732 5.0933 0.8263
-36.7938 27.5536 4.9360 0.8312
-36.7010 25.4843 4.7979 0.8355
-3.9425 28.0350 2.3966 0.8926
-7.3617 34.3075 2.9703 0.8686
-6.0719 24.0594 2.1005 0.9052
-7.8071 23.6481 2.1081 0.9049
-9.7464 23.6746 2.1673 0.9023
-11.8085 23.7027 2.2417 0.8992
-12.8964 23.7176 2.2854 0.8973
-13.7441 21.4569 2.1571 0.9028
-35.8586 28.9149 3.8995 0.8312
-35.7876 26.8001 3.7848 0.8357
-35.7252 24.8067 3.6818 0.8398
-37.9069 24.3565 3.8142 0.8345
-41.4821 24.6000 4.0826 0.8240
-2.1930 32.1790 2.0001 0.8787
-7.3794 34.3896 2.1811 0.8685
-6.0754 24.0736 1.5396 0.9053
-6.5971 22.6822 1.4648 0.9097
-7.5152 22.7639 1.4865 0.9084
-13.5465 22.9165 1.6508 0.8988
-14.7474 21.3025 1.6066 0.9014
-20.0384 23.1709 1.8996 0.8845
-35.4638 24.6252 2.6773 0.8411
-6.7926 23.3544 0.9590 0.9072
-6.6269 20.0731 0.8335 0.9189
-7.4386 20.0842 0.8445 0.9178
-10.0234 20.1195 0.8863 0.9139
-11.2607 20.7093 0.9295 0.9100
-14.7477 21.3029 1.0216 0.9015
-15.9180 21.3189 1.0491 0.8990
-17.1823 21.3702 1.0812 0.8960
-19.6914 22.7696 1.1870 0.8865
-21.1826 22.7900 1.2269 0.8829
-30.4094 26.3733 1.5872 0.8512
-30.3053 22.6945 1.4929 0.8594
-36.5659 23.4948 1.7138 0.8403
-38.9973 23.1264 1.7878 0.8340
-6.1103 24.2118 0.4218 0.9049
-6.7935 23.3575 0.4109 0.9073
-7.7190 23.3811 0.4159 0.9062
-8.6644 23.3941 0.4214 0.9050
-9.6364 23.4073 0.4276 0.9037
-12.7509 23.4499 0.4509 0.8987
-13.0017 21.9949 0.4316 0.9028
-14.7720 21.3380 0.4384 0.9014
-5.6170 6.4951 0.1451 0.9662
-22.7802 22.8123 0.5446 0.8790
-28.8587 26.8993 0.6664 0.8540
-28.8505 23.2638 0.6260 0.8622
-30.5677 22.8911 0.6451 0.8583
-33.0145 22.9245 0.6789 0.8515
-10.3384 6.6428 0.2076 0.9520
-10.9424 6.4892 0.2149 0.9504
0.0235 6.4950 -0.0366 0.9744
-0.6858 6.5788 -0.0372 0.9739
-0.9251 6.5788 -0.0374 0.9738
-1.1669 6.5788 -0.0376 0.9736
-1.6603 6.5788 -0.0382 0.9732
-1.9134 6.5788 -0.0386 0.9730
-2.1719 6.5788 -0.0390 0.9727
-2.7084 6.5789 -0.0401 0.9719
-2.9883 6.5789 -0.0407 0.9715
-3.5772 6.5789 -0.0422 0.9705
-3.8889 6.5789 -0.0430 0.9699
-4.2140 6.5789 -0.0440 0.9692
-4.5544 6.5789 -0.0450 0.9685
-4.9122 6.5789 -0.0462 0.9677
-5.2174 6.4891 -0.0469 0.9672
-6.1093 6.5730 -0.0505 0.9647
-7.0517 6.5730 -0.0543 0.9622
-7.5788 6.5730 -0.0565 0.9607
-8.1514 6.5730 -0.0590 0.9590
-8.7772 6.5730 -0.0617 0.9571
-10.2298 6.5730 -0.0685 0.9525
-10.9425 6.4893 -0.0716 0.9504
-14.4450 6.5860 -0.0894 0.9385
-15.7233 6.4990 -0.0958 0.9342
0.0235 6.4950 -0.1829 0.9743
-0.6859 6.5788 -0.1862 0.9739
-1.1669 6.5788 -0.1881 0.9736
-1.4117 6.5789 -0.1895 0.9734
-1.6603 6.5789 -0.1911 0.9732
-2.1719 6.5789 -0.1951 0.9727
-2.7084 6.5789 -0.2003 0.9719
-3.2775 6.5789 -0.2070 0.9710
-3.5772 6.5789 -0.2109 0.9705
-3.8889 6.5789 -0.2152 0.9699
-4.9122 6.5789 -0.2312 0.9677
-5.2174 6.4892 -0.2345 0.9672
-5.6170 6.4952 -0.2418 0.9662
-7.0517 6.5730 -0.2714 0.9622
-7.5788 6.5730 -0.2825 0.9607
-8.7773 6.5731 -0.3088 0.9571
-13.1732 6.5860 -0.4147 0.9428
-14.4451 6.5861 -0.4470 0.9384
-15.7234 6.4991 -0.4791 0.9342
10.7999 48.6121 -2.5254 0.8192
7.2127 48.7292 -2.4982 0.8209
5.4333 48.6957 -2.4849 0.8218
3.6775 48.7561 -2.4797 0.8222
0.0235 6.4951 -0.3294 0.9743
-0.4483 6.5789 -0.3344 0.9739
-1.1669 6.5789 -0.3388 0.9736
-1.6603 6.5789 -0.3441 0.9732
-1.9134 6.5789 -0.3475 0.9729
-2.1719 6.5789 -0.3514 0.9726
-2.9883 6.5789 -0.3664 0.9715
-3.2776 6.5789 -0.3728 0.9710
-4.2141 6.5790 -0.3962 0.9692
-4.5545 6.5790 -0.4058 0.9685
-5.2175 6.4892 -0.4223 0.9672
-6.1094 6.5730 -0.4551 0.9647
-6.5637 6.5730 -0.4711 0.9635
-8.1515 6.5731 -0.5310 0.9589
-10.2299 6.5731 -0.6167 0.9525
-10.9427 6.4894 -0.6452 0.9503
-12.0716 6.5861 -0.6974 0.9464
-13.1733 6.5861 -0.7469 0.9427
7.4711 33.6287 -2.5258 0.8710
6.2409 33.7627 -2.5175 0.8714
4.7055 31.7905 -2.3563 0.8791
-0.2093 6.4951 -0.4765 0.9743
-0.4483 6.5789 -0.4835 0.9739
-0.6858 6.5789 -0.4850 0.9738
-1.6603 6.5789 -0.4975 0.9732
-2.1719 6.5789 -0.5080 0.9726
-2.4366 6.5789 -0.5144 0.9723
-4.2141 6.5790 -0.5729 0.9692
-4.5545 6.5790 -0.5867 0.9684
-4.9122 6.5790 -0.6020 0.9676
-5.6171 6.4952 -0.6296 0.9661
-6.5637 6.5731 -0.6811 0.9634
-7.0518 6.5731 -0.7068 0.9621
-7.5789 6.5731 -0.7356 0.9606
-10.2300 6.5732 -0.8916 0.9524
-12.0717 6.5861 -1.0083 0.9463
-15.7237 6.4992 -1.2475 0.9340
4.4696 24.1803 -2.3608 0.9059
3.5914 24.2635 -2.3548 0.9061
2.7190 24.3692 -2.3541 0.9062
0.0235 6.4951 -0.6236 0.9742
-0.2093 6.4951 -0.6239 0.9742
-0.4483 6.5789 -0.6331 0.9739
-0.9252 6.5789 -0.6378 0.9737
-1.4117 6.5789 -0.6460 0.9733
-1.9135 6.5789 -0.6578 0.9728
-2.4366 6.5790 -0.6735 0.9722
-2.7084 6.5790 -0.6830 0.9718
-2.9884 6.5790 -0.6937 0.9714
-3.2776 6.5790 -0.7056 0.9709
-4.5545 6.5790 -0.7682 0.9684
-4.9123 6.5790 -0.7883 0.9675
-5.2175 6.4893 -0.7994 0.9671
-6.1094 6.5731 -0.8615 0.9646
-6.5637 6.5731 -0.8918 0.9634
-8.1515 6.5731 -1.0053 0.9588
-9.4662 6.5732 -1.1064 0.9547
-10.2300 6.5732 -1.1674 0.9523
-12.0717 6.5862 -1.3202 0.9462
-13.1735 6.5862 -1.4140 0.9425
-14.4454 6.5862 -1.5242 0.9382
-15.7238 6.4992 -1.6334 0.9339
4.3152 19.4233 -2.3635 0.9230
2.9066 19.6366 -2.3580 0.9232
0.7795 19.7478 -2.3476 0.9235
-0.4483 6.5789 -0.7833 0.9738
-0.6859 6.5789 -0.7857 0.9737
-1.1669 6.5789 -0.7937 0.9734
-1.4117 6.5789 -0.7993 0.9733
-1.6603 6.5790 -0.8060 0.9730
-2.4366 6.5790 -0.8334 0.9721
-2.9884 6.5790 -0.8583 0.9713
-4.2141 6.5790 -0.9281 0.9690
-4.9123 6.5791 -0.9753 0.9675
-6.5638 6.5731 -1.1034 0.9633
-8.7775 6.5732 -1.3026 0.9568
-10.2301 6.5733 -1.4444 0.9522
-10.9429 6.4895 -1.5112 0.9500
-12.0718 6.5862 -1.6335 0.9461
-13.1736 6.5862 -1.7495 0.9424
-14.4456 6.5863 -1.8859 0.9381
-15.7240 6.4993 -2.0211 0.9338
3.6143 16.2684 -2.3613 0.9349
2.4373 16.4664 -2.3585 0.9350
0.0235 6.4951 -0.9203 0.9741
-0.2093 6.4951 -0.9208 0.9741
-0.6859 6.5790 -0.9372 0.9736
-0.9252 6.5790 -0.9413 0.9735
-1.6603 6.5790 -0.9614 0.9730
-1.9135 6.5790 -0.9708 0.9727
-2.1720 6.5790 -0.9816 0.9724
-2.4366 6.5790 -0.9940 0.9721
-3.2776 6.5790 -1.0414 0.9707
-3.8890 6.5790 -1.0829 0.9696
-4.2141 6.5791 -1.1070 0.9689
-4.9123 6.5791 -1.1634 0.9674
-5.2176 6.4893 -1.1798 0.9669
-5.6171 6.4953 -1.2167 0.9659
-6.5638 6.5732 -1.3162 0.9632
-7.0519 6.5732 -1.3659 0.9618
-7.5790 6.5732 -1.4215 0.9603
-8.7775 6.5732 -1.5538 0.9567
-9.4663 6.5733 -1.6329 0.9545
-10.9429 6.4895 -1.8026 0.9499
-12.0719 6.5863 -1.9485 0.9460
-14.4348 6.5814 -2.2478 0.9379
3.1104 14.0003 -2.3626 0.9435
2.0948 14.1520 -2.3568 0.9437
1.5844 14.1993 -2.3537 0.9437
1.0732 14.2274 -2.3505 0.9438
0.0235 6.4952 -1.0700 0.9740
-1.1669 6.5790 -1.1007 0.9733
-1.4117 6.5790 -1.1085 0.9731
-1.6603 6.5790 -1.1178 0.9729
-1.9135 6.5790 -1.1287 0.9726
-2.4366 6.5790 -1.1558 0.9720
-2.7084 6.5790 -1.1721 0.9716
-2.9884 6.5790 -1.1904 0.9711
-3.5773 6.5791 -1.2337 0.9701
-3.8890 6.5791 -1.2590 0.9695
-5.6171 6.4953 -1.4147 0.9658
-7.5791 6.5732 -1.6527 0.9601
-8.1517 6.5733 -1.7251 0.9584
-9.4664 6.5733 -1.8986 0.9544
-10.9430 6.4896 -2.0959 0.9497
-12.2846 6.1417 -2.2626 0.9458
-12.4910 5.6951 -2.2616 0.9459
-12.6818 5.2418 -2.2606 0.9459
1.8349 12.3967 -2.3555 0.9503
1.3880 12.4401 -2.3528 0.9503
0.9403 12.4662 -2.3498 0.9504
0.4925 12.4751 -2.3467 0.9505
0.0235 6.4952 -1.2208 0.9739
-0.2093 6.4952 -1.2215 0.9739
-0.4483 6.5790 -1.2394 0.9735
-0.6859 6.5790 -1.2433 0.9734
-1.1669 6.5790 -1.2559 0.9732
-1.9135 6.5790 -1.2878 0.9725
-2.4366 6.5791 -1.3187 0.9718
-2.7085 6.5791 -1.3373 0.9715
-2.9884 6.5791 -1.3582 0.9710
-3.2776 6.5791 -1.3816 0.9705
-3.5774 6.5791 -1.4076 0.9700
-5.2176 6.4894 -1.5651 0.9667
-5.6172 6.4954 -1.6141 0.9657
-7.0520 6.5732 -1.8120 0.9615
-8.1517 6.5733 -1.9683 0.9583
-8.7776 6.5733 -2.0612 0.9563
-9.4664 6.5734 -2.1662 0.9542
-10.1887 6.5466 -2.2763 0.9519
-10.8165 5.4078 -2.2730 0.9520
2.0267 10.9641 -2.3568 0.9554
1.6309 11.0184 -2.3544 0.9555
1.2339 11.0584 -2.3520 0.9555
0.0235 6.4952 -1.3730 0.9738
-0.6859 6.5790 -1.3982 0.9733
-1.1669 6.5790 -1.4124 0.9731
-1.9135 6.5791 -1.4483 0.9724
-2.7085 6.5791 -1.5039 0.9713
-2.9884 6.5791 -1.5274 0.9709
-3.2776 6.5791 -1.5537 0.9704
-3.5774 6.5791 -1.5830 0.9698
-4.9124 6.5792 -1.7356 0.9670
-5.2177 6.4894 -1.7601 0.9665
-5.6172 6.4954 -1.8152 0.9655
-6.5639 6.5733 -1.9636 0.9627
-7.0520 6.5733 -2.0378 0.9614
-8.1518 6.5733 -2.2135 0.9581
-8.6588 6.4843 -2.2866 0.9567
-8.8808 6.1666 -2.2854 0.9568
-9.0914 5.8415 -2.2842 0.9568
-9.4778 5.1709 -2.2822 0.9568
-10.2743 4.6844 -2.3869 0.9549
-10.6135 4.3869 -2.4276 0.9541
2.1759 9.7939 -2.3579 0.9596
1.8220 9.8566 -2.3558 0.9596
1.1095 9.9431 -2.3514 0.9597
0.7517 9.9659 -2.3489 0.9598
-0.9252 6.5791 -1.5614 0.9731
-1.4117 6.5791 -1.5814 0.9727
-1.9135 6.5791 -1.6103 0.9722
-2.1720 6.5791 -1.6283 0.9719
-2.4367 6.5791 -1.6489 0.9716
-3.2776 6.5791 -1.7275 0.9702
-3.5774 6.5791 -1.7600 0.9697
-3.8891 6.5792 -1.7962 0.9691
-4.9124 6.5792 -1.9297 0.9668
-5.2177 6.4894 -1.9570 0.9664
-8.1998 5.2687 -2.2907 0.9607
-8.3797 4.9694 -2.2897 0.9608
-8.6204 4.7031 -2.3079 0.9605
-9.2723 4.6357 -2.4364 0.9583
-9.5745 3.9575 -2.4349 0.9583
1.9742 8.8860 -2.3568 0.9631
0.6822 9.0448 -2.3485 0.9632
0.3574 9.0546 -2.3462 0.9633
0.0235 6.4953 -1.6817 0.9735
-0.4484 6.5791 -1.7074 0.9731
-1.1669 6.5791 -1.7300 0.9728
-1.9135 6.5791 -1.7740 0.9721
-2.1720 6.5791 -1.7939 0.9718
-2.7085 6.5791 -1.8421 0.9710
-2.9884 6.5791 -1.8709 0.9706
-3.5774 6.5792 -1.9390 0.9695
-3.8891 6.5792 -1.9788 0.9689
-4.2142 6.5792 -2.0230 0.9682
-5.2177 6.4895 -2.1560 0.9662
-6.2843 6.2932 -2.3027 0.9639
-6.5021 6.0606 -2.3014 0.9639
-6.9122 5.5738 -2.2991 0.9640
-7.1041 5.3200 -2.2980 0.9640
-7.2869 5.0599 -2.2970 0.9640
-7.9109 4.6914 -2.3813 0.9627
-8.2832 4.5192 -2.4431 0.9618
-8.7126 3.6012 -2.4410 0.9618
1.8049 8.1240 -2.3559 0.9660
1.5115 8.1772 -2.3541 0.9660
0.0235 6.4953 -1.8388 0.9734
-0.6859 6.5791 -1.8726 0.9729
-0.9252 6.5791 -1.8808 0.9728
-1.1669 6.5791 -1.8915 0.9726
-1.9135 6.5791 -1.9397 0.9719
-2.7085 6.5792 -2.0141 0.9709
-3.2777 6.5792 -2.0808 0.9699
-3.5774 6.5792 -2.1200 0.9693
-3.8891 6.5792 -2.1636 0.9687
-4.2143 6.5792 -2.2118 0.9680
-4.5547 6.5792 -2.2653 0.9673
-5.1142 6.3607 -2.3105 0.9666
-5.9573 5.5528 -2.3055 0.9667
-6.1494 5.3333 -2.3044 0.9667
-6.3336 5.1072 -2.3033 0.9667
-6.7729 4.7029 -2.3342 0.9663
-7.5912 4.1416 -2.4480 0.9647
-7.7324 3.8659 -2.4473 0.9647
1.6606 7.4748 -2.3551 0.9685
1.3908 7.5242 -2.3535 0.9685
1.1196 7.5638 -2.3518 0.9685
0.5742 7.6124 -2.3481 0.9686
0.0235 6.4953 -1.9978 0.9732
-0.2093 6.4953 -1.9988 0.9732
-0.4484 6.5791 -2.0283 0.9728
-0.9252 6.5791 -2.0435 0.9726
-1.1669 6.5791 -2.0552 0.9724
-1.4117 6.5791 -2.0696 0.9722
-1.6604 6.5791 -2.0870 0.9720
-1.9135 6.5792 -2.1074 0.9717
-2.7085 6.5792 -2.1884 0.9707
-3.2777 6.5792 -2.2608 0.9697
-3.8365 6.4903 -2.3190 0.9689
-4.2863 6.1915 -2.3162 0.9690
-4.5028 6.0305 -2.3149 0.9690
-5.1156 5.5038 -2.3112 0.9690
-5.3069 5.3144 -2.3100 0.9691
-5.8507 4.7178 -2.3117 0.9690
-6.2638 4.6908 -2.4070 0.9678
-6.8597 4.0680 -2.4530 0.9672
-6.9989 3.8185 -2.4523 0.9672
-7.1293 3.5643 -2.4516 0.9672
-7.2506 3.3058 -2.4510 0.9672
1.5363 6.9152 -2.3547 0.9706
1.0357 6.9974 -2.3513 0.9706
0.5313 7.0434 -2.3479 0.9707
0.2784 7.0528 -2.3462 0.9707
0.0235 6.4953 -2.1591 0.9730
-0.2093 6.4953 -2.1602 0.9730
-0.6859 6.5791 -2.1988 0.9725
-1.9135 6.5792 -2.2776 0.9715
-2.1973 6.6557 -2.3298 0.9709
-2.4327 6.5685 -2.3283 0.9709
-3.3378 6.1385 -2.3226 0.9710
-3.7644 5.8770 -2.3199 0.9710
-4.1711 5.5863 -2.3174 0.9710
-5.0878 4.7424 -2.3120 0.9711
-5.7608 4.6453 -2.4599 0.9693
-5.9213 4.4343 -2.4590 0.9693
-6.2195 3.9962 -2.4574 0.9693
-6.3567 3.7697 -2.4566 0.9693
-6.4858 3.5386 -2.4559 0.9693
-6.8233 2.8203 -2.4542 0.9694
1.4278 6.4269 -2.3543 0.9724
0.7286 6.5297 -2.3496 0.9725
0.2588 6.5563 -2.3464 0.9725
0.0237 6.5569 -2.3448 0.9725
-0.2110 6.5492 -2.3433 0.9725
-0.9107 6.4759 -2.3386 0.9726
-1.5971 6.3286 -2.3341 0.9727
-1.8217 6.2635 -2.3327 0.9727
-2.2628 6.1095 -2.3298 0.9727
-2.4787 6.0210 -2.3285 0.9727
-2.9001 5.8213 -2.3258 0.9727
-3.3059 5.5926 -2.3232 0.9728
-3.6940 5.3360 -2.3208 0.9728
-3.8809 5.1977 -2.3197 0.9728
-4.0627 5.0529 -2.3186 0.9728
-5.2048 4.5140 -2.4638 0.9712
-5.3612 4.3231 -2.4629 0.9712
-5.5107 4.1268 -2.4620 0.9712
-5.6532 3.9255 -2.4612 0.9712
-5.7885 3.7193 -2.4605 0.9712
-5.9163 3.5086 -2.4598 0.9712
-6.0366 3.2935 -2.4591 0.9712
-6.1493 3.0744 -2.4586 0.9712
1.3322 5.9966 -2.3540 0.9740
1.1159 6.0367 -2.3526 0.9740
0.8983 6.0690 -2.3511 0.9741
0.6799 6.0934 -2.3496 0.9741
0.4609 6.1100 -2.3481 0.9741
0.0221 6.1196 -2.3452 0.9741
-0.1970 6.1126 -2.3437 0.9741
-1.0654 6.0071 -2.3379 0.9742
-1.2792 5.9615 -2.3366 0.9742
-1.9081 5.7797 -2.3325 0.9743
-2.3144 5.6220 -2.3299 0.9743
-2.5130 5.5325 -2.3286 0.9743
-2.7082 5.4360 -2.3274 0.9743
-2.8997 5.3327 -2.3262 0.9743
-3.4500 4.9835 -2.3228 0.9744
-3.6247 4.8545 -2.3217 0.9744
-3.7977 4.7233 -2.3226 0.9744
-4.5509 4.5573 -2.4681 0.9728
-4.7095 4.3897 -2.4672 0.9728
-4.8619 4.2167 -2.4663 0.9728
-5.0082 4.0384 -2.4655 0.9728
-5.1480 3.8552 -2.4647 0.9728
-5.4076 3.4746 -2.4632 0.9728
-5.5272 3.2778 -2.4626 0.9728
-5.6397 3.0769 -2.4620 0.9729
-5.7450 2.8723 -2.4614 0.9729
-5.8431 2.6641 -2.4609 0.9729
-5.9337 2.4526 -2.4605 0.9729
1.2473 5.6142 -2.3538 0.9754
1.0447 5.6519 -2.3524 0.9755
0.8411 5.6824 -2.3510 0.9755
0.6366 5.7055 -2.3496 0.9755
0.0207 5.7307 -2.3455 0.9755
-0.5932 5.6899 -2.3414 0.9756
-0.7962 5.6618 -2.3400 0.9756
-1.5932 5.4778 -2.3348 0.9756
-1.7874 5.4143 -2.3336 0.9757
-2.3544 5.1832 -2.3300 0.9757
-3.0647 4.7846 -2.3255 0.9757
-3.2606 4.7098 -2.3445 0.9755
-3.5085 4.6989 -2.4001 0.9750
-3.7685 4.6870 -2.4614 0.9743
-4.9498 3.4370 -2.4663 0.9743
-5.1805 3.0722 -2.4651 0.9743
-5.3848 2.6922 -2.4640 0.9743
-5.5618 2.2989 -2.4631 0.9743
1.1712 5.2718 -2.3535 0.9767
0.9811 5.3074 -2.3522 0.9767
0.7899 5.3362 -2.3509 0.9767
0.2124 5.3811 -2.3470 0.9768
-0.1732 5.3766 -2.3444 0.9768
-0.3656 5.3640 -2.3432 0.9768
-0.7479 5.3183 -2.3406 0.9768
-0.9374 5.2853 -2.3394 0.9769
-1.1256 5.2456 -2.3381 0.9769
-1.6793 5.0867 -2.3346 0.9769
-2.2121 4.8701 -2.3312 0.9769
-2.3841 4.7855 -2.3301 0.9769
-2.5644 4.7162 -2.3396 0.9768
-2.7807 4.7042 -2.3816 0.9764
-3.5583 4.4256 -2.4749 0.9755
-4.1481 3.8665 -2.4714 0.9756
-4.2826 3.7142 -2.4706 0.9756
-4.5349 3.3960 -2.4691 0.9756
-4.8694 2.8877 -2.4673 0.9756
-5.0616 2.5306 -2.4663 0.9756
-5.2281 2.1609 -2.4655 0.9756
1.1026 4.9630 -2.3533 0.9778
-0.1631 5.0629 -2.3447 0.9779
-0.5247 5.0330 -2.3423 0.9779
-0.8828 4.9775 -2.3400 0.9780
-1.2358 4.8967 -2.3377 0.9780
-1.4097 4.8470 -2.3366 0.9780
-1.9393 4.7106 -2.3580 0.9778
-2.1367 4.7040 -2.3915 0.9775
-2.7267 4.6127 -2.4803 0.9767
-3.2020 4.2885 -2.4774 0.9767
-3.4983 4.0453 -2.4756 0.9767
-3.6398 3.9160 -2.4747 0.9767
-3.9083 3.6430 -2.4731 0.9767
-4.0351 3.4996 -2.4724 0.9767
-4.3838 3.0440 -2.4704 0.9768
-4.5884 2.7211 -2.4693 0.9768
-4.6821 2.5544 -2.4688 0.9768
1.0477 4.7160 -2.3697 0.9787
0.7017 4.7408 -2.3508 0.9789
0.5312 4.7605 -2.3496 0.9789
0.1888 4.7816 -2.3473 0.9789
0.0173 4.7830 -2.3462 0.9789
-0.1540 4.7782 -2.3450 0.9789
-0.3249 4.7673 -2.3439 0.9789
-0.4952 4.7503 -2.3428 0.9789
-1.1882 4.7081 -2.3819 0.9786
-1.3681 4.7038 -2.4029 0.9784
-1.5512 4.6988 -2.4273 0.9782
-2.0947 4.6116 -2.4845 0.9777
-2.2577 4.5318 -2.4835 0.9777
-2.7276 4.2583 -2.4806 0.9777
-3.0233 4.0491 -2.4788 0.9777
-3.3032 3.8196 -2.4771 0.9778
-3.4368 3.6976 -2.4763 0.9778
-3.5660 3.5710 -2.4755 0.9778
-3.6905 3.4400 -2.4748 0.9778
-3.8103 3.3046 -2.4741 0.9778
-3.9252 3.1651 -2.4734 0.9778
-4.0351 3.0217 -2.4728 0.9778
-4.2391 2.7238 -2.4717 0.9778
-4.3331 2.5697 -2.4711 0.9778
1.0427 4.6930 -2.4940 0.9786
0.8680 4.6957 -2.4773 0.9787
0.5244 4.6993 -2.4530 0.9789
0.3546 4.7003 -2.4453 0.9790
-0.1514 4.7001 -2.4396 0.9790
-1.0062 4.6890 -2.4879 0.9786
-1.1748 4.6551 -2.4907 0.9786
-1.8246 4.4321 -2.4865 0.9786
-1.9814 4.3621 -2.4855 0.9786
-2.1355 4.2867 -2.4845 0.9787
-2.2869 4.2058 -2.4836 0.9787
-2.4352 4.1196 -2.4827 0.9787
-2.9945 3.7244 -2.4792 0.9787
-3.1250 3.6136 -2.4784 0.9787
-3.2515 3.4982 -2.4777 0.9787
-3.3737 3.3785 -2.4769 0.9787
-3.6050 3.1266 -2.4756 0.9787
-3.7137 2.9946 -2.4750 0.9787
-3.9168 2.7198 -2.4738 0.9787
-4.0999 2.4313 -2.4728 0.9787
-4.1836 2.2825 -2.4724 0.9788
-4.2620 2.1308 -2.4720 0.9788
-4.3350 1.9765 -2.4716 0.9788
-4.4023 1.8196 -2.4713 0.9788
0.9921 4.4654 -2.5054 0.9794
0.8311 4.4961 -2.5043 0.9794
0.6692 4.5210 -2.5032 0.9794
0.3434 4.5533 -2.5009 0.9794
0.1801 4.5607 -2.4998 0.9794
0.0165 4.5622 -2.4987 0.9794
-0.1469 4.5579 -2.4977 0.9794
-0.3099 4.5477 -2.4966 0.9794
-0.4724 4.5317 -2.4955 0.9794
-0.9547 4.4492 -2.4923 0.9795
-1.7288 4.1994 -2.4873 0.9795
-1.8774 4.1332 -2.4864 0.9795
-2.0235 4.0618 -2.4855 0.9795
-2.3075 3.9037 -2.4837 0.9795
-2.4451 3.8172 -2.4828 0.9795
-2.5794 3.7259 -2.4820 0.9795
-2.7103 3.6299 -2.4812 0.9796
-2.8378 3.5294 -2.4804 0.9796
-2.9615 3.4244 -2.4797 0.9796
-3.0813 3.3152 -2.4790 0.9796
-3.1973 3.2018 -2.4783 0.9796
-3.3090 3.0844 -2.4776 0.9796
-3.4165 2.9631 -2.4770 0.9796
-3.5197 2.8381 -2.4764 0.9796
-3.7122 2.5777 -2.4753 0.9796
-3.8858 2.3044 -2.4744 0.9796
-3.9652 2.1633 -2.4739 0.9796
-4.1087 1.8733 -2.4732 0.9796
-4.1726 1.7247 -2.4729 0.9796
0.9411 4.2359 -2.5052 0.9802
0.4806 4.3070 -2.5021 0.9802
0.3258 4.3196 -2.5010 0.9802
0.1708 4.3267 -2.5000 0.9802
0.0157 4.3282 -2.4989 0.9802
-0.4482 4.2996 -2.4958 0.9802
-0.6017 4.2791 -2.4948 0.9802
-0.9058 4.2216 -2.4928 0.9803
-1.0561 4.1848 -2.4919 0.9803
-1.2049 4.1427 -2.4909 0.9803
-1.4973 4.0427 -2.4890 0.9803
-1.6405 3.9850 -2.4881 0.9803
-1.7816 3.9223 -2.4872 0.9803
-1.9203 3.8546 -2.4863 0.9803
-2.0565 3.7820 -2.4855 0.9803
-2.3204 3.6226 -2.4838 0.9803
-2.4479 3.5361 -2.4830 0.9803
-2.9245 3.1465 -2.4801 0.9804
-3.4343 2.5719 -2.4772 0.9804
-3.6082 2.3184 -2.4762 0.9804
-3.9000 1.7782 -2.4747 0.9804
-3.9607 1.6371 -2.4744 0.9804
