ply
format ascii 1.0
element vertex 531
property float32 x
property float32 y
property float32 z
property float32 I
end_header
-5.4776 29.5234 5.2946 0.8852
-7.5822 25.3401 4.6639 0.8981
-8.6104 25.4281 4.7337 0.8967
-11.9284 25.7511 5.0041 0.8911
-38.1471 13.9335 7.1610 0.8479
-39.8116 12.9479 7.3818 0.8436
-5.2635 28.3696 4.4202 0.8898
-7.4089 24.7611 3.9594 0.9007
-8.4021 24.8128 4.0132 0.8994
-9.4285 24.8778 4.0757 0.8979
-10.4994 24.9706 4.1497 0.8962
-11.6141 25.0726 4.2330 0.8942
-14.8123 22.7646 4.1607 0.8959
-14.7570 20.9971 3.9316 0.9014
-16.1754 21.3498 4.1034 0.8973
-41.1182 20.2437 7.0211 0.8307
-41.8492 18.7756 7.0267 0.8306
-43.6485 12.4887 6.9550 0.8322
-42.3999 8.9109 6.6373 0.8392
-5.1488 27.7513 3.6755 0.8924
-9.2134 24.3105 3.3855 0.9004
-10.2446 24.3646 3.4418 0.8989
-14.3306 23.8484 3.6231 0.8938
-14.9941 21.3345 3.3957 0.9002
-42.1737 18.9212 6.0193 0.8299
-42.5244 17.2797 5.9773 0.8310
-43.9091 14.2805 6.0127 0.8301
-45.9793 9.6631 6.1183 0.8274
-5.2346 28.2139 3.0814 0.8910
-6.9719 23.3005 2.6116 0.9068
-7.8942 23.3129 2.6430 0.9057
-10.0165 23.8221 2.7750 0.9013
-11.0576 23.8711 2.8250 0.8996
-12.1399 23.9253 2.8809 0.8977
-13.2759 23.9971 2.9449 0.8955
-13.6941 22.7891 2.8550 0.8986
-14.9946 21.3352 2.8002 0.9004
-36.7279 25.1565 4.7804 0.8360
-44.0081 14.3127 4.9693 0.8301
-6.2129 23.8366 2.0852 0.9058
-7.0722 23.6358 2.0885 0.9057
-8.9674 23.6614 2.1420 0.9034
-9.9545 23.6747 2.1741 0.9020
-13.1211 23.7173 2.2945 0.8969
-14.9709 21.3015 2.2040 0.9008
-17.4264 21.3683 2.3341 0.8952
-35.7828 26.4372 3.7662 0.8364
-38.4905 24.3889 3.8574 0.8328
-6.0624 27.2115 1.7288 0.8943
-6.2137 23.8398 1.5277 0.9060
-6.7869 22.6823 1.4681 0.9095
-8.6988 22.9527 1.5221 0.9063
-10.7517 23.2108 1.5862 0.9026
-11.7971 23.2498 1.6167 0.9008
-13.8792 21.3306 1.5781 0.9030
-14.9713 21.3020 1.6145 0.9009
-17.4268 21.3688 1.7099 0.8954
-20.0191 22.8295 1.8829 0.8854
-6.0697 27.2438 1.1006 0.8943
-6.2146 23.8431 0.9716 0.9061
-6.8151 22.7764 0.9374 0.9092
-7.6118 20.0844 0.8469 0.9176
-8.4496 20.0957 0.8596 0.9164
-12.4898 20.7851 0.9562 0.9075
-16.1517 21.3184 1.0546 0.8985
-17.4273 21.3693 1.0873 0.8955
-21.4729 22.7893 1.2347 0.8822
-30.4050 26.0199 1.5780 0.8520
-30.3510 24.1484 1.5294 0.8562
-32.7793 22.4519 1.5666 0.8530
-36.3959 23.0617 1.6990 0.8416
-39.6025 23.1517 1.8088 0.8322
-6.0736 27.2614 0.4718 0.8943
-8.8663 23.3945 0.4226 0.9048
-9.8422 23.4077 0.4289 0.9034
-13.8826 21.3358 0.4300 0.9032
-14.9964 21.3377 0.4405 0.9009
-5.0969 6.7274 0.1426 0.9668
-5.2907 6.4875 0.1414 0.9671
-23.0885 22.8117 0.5483 0.8782
-28.8631 26.5460 0.6624 0.8548
-28.8586 24.6966 0.6416 0.8590
-28.8558 22.9587 0.6229 0.8628
-30.9821 22.8905 0.6507 0.8572
-33.4685 22.9240 0.6852 0.8502
-42.4912 22.8424 0.8149 0.8245
-1.4655 6.5780 -0.0379 0.9734
-1.9682 6.5779 -0.0387 0.9729
-2.7657 6.5778 -0.0402 0.9719
-3.6389 6.5776 -0.0423 0.9704
-4.6227 6.5775 -0.0453 0.9684
-4.9833 6.5774 -0.0465 0.9675
-8.2586 6.5709 -0.0594 0.9587
-8.8935 6.5708 -0.0623 0.9567
-9.5930 6.5707 -0.0655 0.9546
-10.3418 6.5530 -0.0689 0.9522
-11.2611 6.5833 -0.0734 0.9492
-12.2459 6.5832 -0.0783 0.9459
-13.3710 6.5830 -0.0839 0.9421
-15.9851 6.4956 -0.0971 0.9333
-20.2277 6.5787 -0.1198 0.9184
-22.9950 6.5794 -0.1347 0.9088
-1.4655 6.5780 -0.1898 0.9734
-1.7145 6.5780 -0.1914 0.9732
-2.4929 6.5779 -0.1981 0.9722
-3.0469 6.5778 -0.2041 0.9714
-3.3375 6.5777 -0.2077 0.9709
-3.6389 6.5777 -0.2117 0.9704
-5.6941 6.4936 -0.2432 0.9660
-6.6509 6.5712 -0.2633 0.9633
-8.2587 6.5710 -0.2972 0.9586
-8.8936 6.5709 -0.3114 0.9567
-10.3436 6.5541 -0.3448 0.9522
-12.2461 6.5833 -0.3915 0.9459
-13.3712 6.5831 -0.4197 0.9421
-14.6727 6.5829 -0.4528 0.9377
-15.9854 6.4957 -0.4858 0.9333
-18.0122 6.5792 -0.5400 0.9261
-20.2281 6.5788 -0.5989 0.9184
-26.1971 6.4918 -0.7599 0.8976
-31.2844 6.5749 -0.9001 0.8799
-1.2204 6.5781 -0.3393 0.9736
-1.9682 6.5780 -0.3482 0.9729
-2.2274 6.5779 -0.3522 0.9726
-3.0469 6.5778 -0.3676 0.9714
-5.2908 6.4877 -0.4246 0.9670
-5.6942 6.4936 -0.4380 0.9660
-6.1917 6.5714 -0.4579 0.9645
-6.6510 6.5713 -0.4742 0.9632
-7.6785 6.5712 -0.5125 0.9603
-10.3454 6.5553 -0.6211 0.9521
-11.2614 6.5835 -0.6615 0.9491
-13.3714 6.5832 -0.7558 0.9421
-14.6729 6.5830 -0.8156 0.9376
-26.1978 6.4920 -1.3688 0.8975
-31.2854 6.5751 -1.6213 0.8798
-2.2274 6.5780 -0.5092 0.9725
-3.0469 6.5779 -0.5315 0.9713
-3.3376 6.5778 -0.5408 0.9708
-3.6390 6.5778 -0.5512 0.9703
-3.9525 6.5777 -0.5627 0.9697
-4.6228 6.5776 -0.5895 0.9683
-4.9834 6.5776 -0.6051 0.9674
-5.2909 6.4878 -0.6138 0.9670
-5.6942 6.4937 -0.6333 0.9660
-8.8938 6.5710 -0.8108 0.9566
-10.3472 6.5564 -0.8982 0.9521
-13.3716 6.5833 -1.0928 0.9420
-14.6731 6.5831 -1.1792 0.9375
-26.1985 6.4922 -1.9790 0.8974
-1.7145 6.5781 -0.6526 0.9731
-2.2274 6.5780 -0.6667 0.9725
-2.7658 6.5780 -0.6851 0.9717
-3.0470 6.5779 -0.6960 0.9713
-3.3376 6.5779 -0.7081 0.9708
-3.6390 6.5778 -0.7217 0.9702
-4.6228 6.5777 -0.7718 0.9682
-4.9834 6.5776 -0.7923 0.9674
-5.2909 6.4878 -0.8037 0.9669
-6.6511 6.5714 -0.8976 0.9631
-7.1448 6.5714 -0.9319 0.9617
-7.6786 6.5713 -0.9703 0.9602
-8.2589 6.5712 -1.0132 0.9585
-9.5934 6.5710 -1.1163 0.9543
-11.2617 6.5837 -1.2524 0.9489
-12.2466 6.5836 -1.3348 0.9457
-14.6734 6.5832 -1.5440 0.9374
-15.9862 6.4960 -1.6566 0.9330
-20.2294 6.5793 -2.0423 0.9181
-22.0230 6.3013 -2.1992 0.9121
-22.2280 5.5082 -2.1985 0.9121
-1.4655 6.5782 -0.8005 0.9732
-3.0470 6.5780 -0.8611 0.9712
-3.3376 6.5779 -0.8762 0.9707
-3.9526 6.5778 -0.9116 0.9696
-4.2799 6.5778 -0.9322 0.9689
-4.6229 6.5777 -0.9550 0.9681
-4.9835 6.5777 -0.9803 0.9673
-5.6943 6.4938 -1.0259 0.9658
-7.1449 6.5714 -1.1531 0.9617
-7.6787 6.5713 -1.2005 0.9601
-8.2590 6.5713 -1.2537 0.9584
-9.5935 6.5711 -1.3813 0.9542
-10.3509 6.5587 -1.4556 0.9518
-11.2619 6.5838 -1.5496 0.9488
-17.6181 6.4351 -2.2280 0.9272
-18.0210 5.1562 -2.2265 0.9273
-1.2204 6.5783 -0.9480 0.9733
-1.4655 6.5782 -0.9549 0.9731
-1.7146 6.5782 -0.9632 0.9729
-1.9683 6.5782 -0.9729 0.9726
-2.2275 6.5781 -0.9840 0.9723
-2.7658 6.5780 -1.0111 0.9716
-3.0470 6.5780 -1.0272 0.9711
-3.3377 6.5780 -1.0451 0.9706
-3.6390 6.5779 -1.0651 0.9701
-3.9526 6.5779 -1.0873 0.9695
-4.2800 6.5778 -1.1119 0.9688
-4.6229 6.5778 -1.1391 0.9680
-4.9835 6.5777 -1.1693 0.9672
-7.1450 6.5715 -1.3754 0.9615
-7.6788 6.5714 -1.4320 0.9600
-8.2591 6.5713 -1.4954 0.9583
-8.8941 6.5713 -1.5668 0.9563
-11.2620 6.5839 -1.8484 0.9487
-13.3722 6.5836 -2.1119 0.9416
-14.6962 5.9718 -2.2477 0.9379
-14.8950 5.4405 -2.2468 0.9379
-15.0754 4.9030 -2.2461 0.9380
-16.2255 4.6425 -2.3912 0.9341
-16.3779 4.0585 -2.3908 0.9341
-1.9683 6.5782 -1.1311 0.9725
-2.4930 6.5781 -1.1589 0.9719
-2.7658 6.5781 -1.1756 0.9715
-3.0470 6.5781 -1.1943 0.9710
-3.3377 6.5780 -1.2152 0.9705
-3.6391 6.5780 -1.2384 0.9700
-3.9526 6.5779 -1.2642 0.9694
-5.6944 6.4939 -1.4228 0.9656
-6.6513 6.5716 -1.5403 0.9628
-7.6788 6.5715 -1.6650 0.9599
-8.8942 6.5713 -1.8218 0.9562
-9.5938 6.5713 -1.9157 0.9540
-10.3546 6.5611 -2.0194 0.9515
-11.2621 6.5839 -2.1491 0.9485
-12.3251 6.0680 -2.2632 0.9458
-13.8928 4.5183 -2.4067 0.9425
-14.0424 4.0178 -2.4062 0.9425
-1.4655 6.5783 -1.2668 0.9729
-1.7146 6.5783 -1.2778 0.9727
-1.9683 6.5782 -1.2906 0.9724
-3.3377 6.5781 -1.3865 0.9704
-3.9527 6.5780 -1.4424 0.9692
-4.2800 6.5779 -1.4751 0.9686
-4.6230 6.5779 -1.5112 0.9678
-4.9836 6.5779 -1.5511 0.9670
-5.2911 6.4880 -1.5736 0.9665
-5.6944 6.4940 -1.6234 0.9655
-6.1920 6.5717 -1.6971 0.9639
-6.6513 6.5717 -1.7575 0.9627
-7.6789 6.5715 -1.8997 0.9597
-8.8943 6.5714 -2.0786 0.9560
-10.4511 6.1098 -2.2754 0.9519
-12.2341 3.9789 -2.4181 0.9490
-12.3662 3.5382 -2.4176 0.9490
-1.2205 6.5784 -1.4143 0.9730
-1.7146 6.5783 -1.4370 0.9726
-1.9683 6.5783 -1.4514 0.9723
-2.2275 6.5783 -1.4681 0.9720
-2.4930 6.5782 -1.4870 0.9716
-3.6391 6.5781 -1.5891 0.9697
-3.9527 6.5780 -1.6222 0.9691
-4.2800 6.5780 -1.6589 0.9684
-4.6230 6.5780 -1.6995 0.9677
-4.9836 6.5779 -1.7444 0.9668
-5.2912 6.4881 -1.7697 0.9664
-6.1921 6.5718 -1.9086 0.9638
-6.6514 6.5717 -1.9765 0.9625
-7.6790 6.5716 -2.1364 0.9595
-8.2594 6.5716 -2.2311 0.9578
-8.7007 6.4283 -2.2867 0.9567
-8.9204 6.1100 -2.2855 0.9568
-9.1289 5.7844 -2.2844 0.9568
-10.4243 4.6768 -2.4151 0.9544
-11.0374 3.1580 -2.4267 0.9541
-11.1419 2.7610 -2.4264 0.9542
-1.2205 6.5784 -1.5725 0.9729
-1.7146 6.5784 -1.5977 0.9725
-2.4930 6.5783 -1.6533 0.9715
-2.7659 6.5782 -1.6771 0.9711
-3.3378 6.5782 -1.7336 0.9701
-3.6392 6.5781 -1.7668 0.9696
-3.9527 6.5781 -1.8036 0.9690
-4.6230 6.5780 -1.8896 0.9675
-4.9837 6.5780 -1.9396 0.9667
-5.2912 6.4881 -1.9676 0.9662
-7.6380 6.0771 -2.2940 0.9607
-7.8466 5.7973 -2.2929 0.9607
-8.0452 5.5105 -2.2918 0.9607
-8.2336 5.2171 -2.2909 0.9607
-8.4116 4.9175 -2.2900 0.9608
-8.7369 4.6968 -2.3313 0.9601
-9.3021 4.5797 -2.4368 0.9583
-9.6004 3.9011 -2.4355 0.9583
-9.7316 3.5545 -2.4349 0.9583
-1.2205 6.5785 -1.7323 0.9727
-1.9683 6.5784 -1.7779 0.9720
-2.2275 6.5784 -1.7982 0.9717
-2.7659 6.5783 -1.8477 0.9709
-3.6392 6.5782 -1.9465 0.9694
-3.9528 6.5781 -1.9870 0.9688
-4.2801 6.5781 -2.0320 0.9681
-4.9837 6.5780 -2.1368 0.9665
-5.2913 6.4882 -2.1677 0.9660
-5.6946 6.4942 -2.2363 0.9649
-6.9483 5.5284 -2.2990 0.9640
-8.0146 4.6853 -2.4037 0.9624
-8.4641 4.1671 -2.4427 0.9618
-8.6054 3.8608 -2.4421 0.9618
-8.7359 3.5498 -2.4415 0.9618
-8.9639 2.9153 -2.4406 0.9618
-1.2205 6.5785 -1.8941 0.9726
-1.4656 6.5785 -1.9080 0.9724
-1.7146 6.5785 -1.9245 0.9721
-2.2275 6.5784 -1.9662 0.9715
-2.4931 6.5784 -1.9915 0.9712
-3.9528 6.5782 -2.1726 0.9686
-4.2802 6.5782 -2.2217 0.9679
-4.6976 6.6840 -2.3128 0.9666
-4.9306 6.5079 -2.3114 0.9666
-5.1572 6.3238 -2.3101 0.9666
-5.5899 5.9327 -2.3076 0.9667
-5.7956 5.7261 -2.3064 0.9667
-5.9938 5.5126 -2.3053 0.9667
-6.5411 4.8328 -2.3023 0.9668
-7.4685 4.3661 -2.4491 0.9647
-7.7571 3.8190 -2.4477 0.9647
-8.0065 3.2534 -2.4466 0.9647
-8.1162 2.9645 -2.4461 0.9647
-8.3049 2.3762 -2.4454 0.9647
-8.3837 2.0775 -2.4452 0.9647
-8.4521 1.7763 -2.4450 0.9647
-1.2205 6.5786 -2.0579 0.9724
-1.4656 6.5786 -2.0730 0.9722
-2.2275 6.5785 -2.1362 0.9714
-2.4931 6.5784 -2.1638 0.9710
-2.7660 6.5784 -2.1949 0.9706
-3.0471 6.5784 -2.2299 0.9701
-3.3378 6.5783 -2.2689 0.9696
-3.6509 6.5993 -2.3197 0.9689
-4.1083 6.3140 -2.3170 0.9690
-4.5440 5.9976 -2.3144 0.9690
-4.7531 5.8282 -2.3132 0.9690
-4.9559 5.6517 -2.3120 0.9690
-5.1523 5.4682 -2.3109 0.9690
-5.3421 5.2780 -2.3098 0.9691
-5.7007 4.8786 -2.3078 0.9691
-6.3422 4.6858 -2.4254 0.9675
-6.8856 4.0254 -2.4532 0.9672
-7.0232 3.7755 -2.4526 0.9672
-7.1519 3.5211 -2.4519 0.9672
-7.2717 3.2624 -2.4514 0.9672
-7.7304 1.9156 -2.4496 0.9672
-7.7934 1.6379 -2.4495 0.9672
-1.2205 6.5786 -2.2241 0.9722
-1.7146 6.5786 -2.2598 0.9718
-1.9684 6.5785 -2.2825 0.9715
-2.2471 6.6361 -2.3289 0.9709
-2.4814 6.5474 -2.3275 0.9709
-3.5959 5.9841 -2.3207 0.9710
-3.8054 5.8485 -2.3194 0.9710
-4.4032 5.3992 -2.3159 0.9711
-4.7734 5.0661 -2.3138 0.9711
-5.1294 4.7176 -2.3165 0.9711
-5.4838 4.6929 -2.3992 0.9700
-5.7909 4.6075 -2.4599 0.9693
-5.9499 4.3960 -2.4590 0.9693
-6.2450 3.9570 -2.4575 0.9693
-6.7387 3.0233 -2.4551 0.9693
-7.0204 2.2833 -2.4539 0.9694
-7.1643 1.7753 -2.4535 0.9694
-1.1916 6.4229 -2.3361 0.9726
-1.4196 6.3722 -2.3346 0.9726
-2.0901 6.1723 -2.3304 0.9727
-2.3080 6.0901 -2.3290 0.9727
-3.1458 5.6863 -2.3239 0.9728
-3.3454 5.5673 -2.3227 0.9728
-3.5405 5.4413 -2.3215 0.9728
-3.7310 5.3087 -2.3204 0.9728
-4.0971 5.0238 -2.3182 0.9728
-4.2722 4.8720 -2.3172 0.9728
-4.4476 4.7203 -2.3193 0.9728
-4.7536 4.6966 -2.3897 0.9720
-5.3892 4.2879 -2.4628 0.9712
-5.5373 4.0911 -2.4620 0.9712
-6.0575 3.2564 -2.4594 0.9712
-6.1687 3.0371 -2.4589 0.9712
-6.2722 2.8140 -2.4584 0.9712
-6.5345 2.1252 -2.4573 0.9712
-6.6057 1.8900 -2.4570 0.9712
-6.6685 1.6525 -2.4568 0.9712
-6.7229 1.4129 -2.4567 0.9712
-1.1124 5.9960 -2.3370 0.9742
-1.3254 5.9489 -2.3356 0.9742
-1.5363 5.8943 -2.3343 0.9742
-1.7451 5.8323 -2.3330 0.9743
-1.9515 5.7630 -2.3317 0.9743
-2.3558 5.6028 -2.3292 0.9743
-3.6580 4.8282 -2.3213 0.9744
-3.8440 4.7136 -2.3309 0.9743
-4.1192 4.6975 -2.3942 0.9736
-4.4129 4.6835 -2.4660 0.9728
-4.7383 4.3580 -2.4670 0.9728
-4.8895 4.1843 -2.4662 0.9728
-5.3047 3.6334 -2.4640 0.9728
-5.4298 3.4405 -2.4633 0.9728
-5.6592 3.0422 -2.4622 0.9729
-5.7631 2.8374 -2.4617 0.9729
-5.8599 2.6290 -2.4613 0.9729
-6.0310 2.2029 -2.4605 0.9729
-6.2813 1.3201 -2.4597 0.9729
-1.0420 5.6162 -2.3378 0.9756
-1.6347 5.4635 -2.3340 0.9757
-2.0189 5.3272 -2.3316 0.9757
-2.3921 5.1642 -2.3293 0.9757
-2.7525 4.9753 -2.3271 0.9757
-3.3080 4.7069 -2.3546 0.9754
-3.8185 4.6822 -2.4728 0.9742
-4.1402 4.3941 -2.4709 0.9742
-4.2932 4.2417 -2.4701 0.9743
-4.4407 4.0842 -2.4693 0.9743
-5.0891 3.2247 -2.4658 0.9743
-5.2000 3.0399 -2.4652 0.9743
-5.3042 2.8515 -2.4647 0.9743
-5.4018 2.6595 -2.4642 0.9743
-5.4925 2.4642 -2.4638 0.9743
-5.5763 2.2659 -2.4635 0.9743
-5.7850 1.6552 -2.4627 0.9743
-0.9788 5.2758 -2.3385 0.9769
-1.1662 5.2347 -2.3373 0.9769
-1.3520 5.1871 -2.3361 0.9769
-1.5358 5.1329 -2.3350 0.9769
-1.7175 5.0722 -2.3338 0.9769
-2.4186 4.7667 -2.3295 0.9769
-2.6059 4.7104 -2.3461 0.9768
-2.8252 4.7016 -2.3905 0.9764
-3.2674 4.6490 -2.4764 0.9755
-3.4302 4.5274 -2.4755 0.9755
-3.5885 4.4002 -2.4746 0.9755
-3.8910 4.1296 -2.4728 0.9755
-4.0349 3.9865 -2.4720 0.9756
-4.3068 3.6857 -2.4705 0.9756
-4.4346 3.5284 -2.4698 0.9756
-4.5568 3.3667 -2.4692 0.9756
-4.6731 3.2008 -2.4685 0.9756
-4.7834 3.0310 -2.4680 0.9756
-4.8877 2.8574 -2.4674 0.9756
-4.9858 2.6803 -2.4670 0.9756
-5.2416 2.1299 -2.4658 0.9756
-5.4379 1.5559 -2.4650 0.9756
-5.4897 1.3604 -2.4649 0.9756
-5.5346 1.1632 -2.4648 0.9756
-0.9218 4.9687 -2.3392 0.9780
-1.0984 4.9302 -2.3381 0.9780
-1.2734 4.8854 -2.3369 0.9780
-1.6177 4.7775 -2.3348 0.9780
-1.7899 4.7230 -2.3379 0.9780
-1.9798 4.7086 -2.3644 0.9777
-2.1779 4.7018 -2.3986 0.9774
-2.5924 4.6859 -2.4789 0.9767
-2.7594 4.5921 -2.4798 0.9767
-2.9206 4.4887 -2.4789 0.9767
-3.2316 4.2653 -2.4770 0.9767
-3.6660 3.8908 -2.4745 0.9767
-3.8016 3.7561 -2.4738 0.9767
-4.0580 3.4728 -2.4723 0.9767
-4.1785 3.3246 -2.4717 0.9767
-4.4032 3.0160 -2.4705 0.9767
-4.5073 2.8560 -2.4699 0.9768
-4.6056 2.6925 -2.4695 0.9768
-4.7846 2.3556 -2.4686 0.9768
-4.8650 2.1827 -2.4682 0.9768
-5.0691 1.6486 -2.4674 0.9768
-5.2155 1.0961 -2.4669 0.9768
-1.2268 4.7067 -2.3859 0.9786
-1.4070 4.7022 -2.4076 0.9784
-1.5905 4.6971 -2.4326 0.9781
-1.7780 4.6914 -2.4610 0.9779
-1.9636 4.6700 -2.4850 0.9777
-2.2904 4.5141 -2.4830 0.9777
-2.6052 4.3355 -2.4811 0.9777
-2.7576 4.2380 -2.4802 0.9777
-2.9063 4.1353 -2.4793 0.9777
-3.3291 3.7965 -2.4768 0.9778
-3.4616 3.6739 -2.4761 0.9778
-3.7132 3.4151 -2.4747 0.9778
-3.8319 3.2793 -2.4740 0.9778
-4.3493 2.5426 -2.4713 0.9778
-4.4367 2.3851 -2.4708 0.9778
-4.5944 2.0613 -2.4701 0.9778
-4.6646 1.8955 -2.4698 0.9778
-4.7289 1.7273 -2.4695 0.9778
-4.7871 1.5569 -2.4693 0.9778
-4.8394 1.3847 -2.4691 0.9778
-4.9255 1.0352 -2.4689 0.9778
-1.0442 4.6868 -2.4910 0.9786
-1.3753 4.5963 -2.4889 0.9786
-1.5381 4.5424 -2.4879 0.9786
-1.6989 4.4827 -2.4869 0.9786
-1.8573 4.4173 -2.4859 0.9786
-2.0133 4.3464 -2.4850 0.9786
-2.4644 4.1013 -2.4822 0.9787
-2.6086 4.0091 -2.4814 0.9787
-2.8865 3.8099 -2.4797 0.9787
-3.0199 3.7031 -2.4789 0.9787
-3.6254 3.1026 -2.4755 0.9787
-3.7332 2.9703 -2.4749 0.9787
-3.9342 2.6947 -2.4739 0.9787
-4.4137 1.7935 -2.4715 0.9788
-4.5791 1.3102 -2.4709 0.9788
-4.6228 1.1456 -2.4708 0.9788
-4.6606 0.9795 -2.4707 0.9788
-0.8302 4.4747 -2.4926 0.9795
-1.1469 4.4004 -2.4906 0.9795
-1.4573 4.3038 -2.4887 0.9795
-1.6097 4.2473 -2.4877 0.9795
-2.4719 3.7991 -2.4825 0.9795
-2.8619 3.5093 -2.4802 0.9796
-2.9847 3.4037 -2.4795 0.9796
-3.1036 3.2939 -2.4788 0.9796
-3.6357 2.6862 -2.4758 0.9796
-3.7287 2.5539 -2.4753 0.9796
-3.8169 2.4185 -2.4749 0.9796
-4.1203 1.8486 -2.4734 0.9796
-4.2410 1.5491 -2.4729 0.9796
-4.2933 1.3963 -2.4727 0.9796
-4.4174 0.9284 -2.4723 0.9796
-1.0883 4.1754 -2.4912 0.9803
-2.3459 3.6055 -2.4835 0.9803
-2.5961 3.4265 -2.4820 0.9803
-2.8327 3.2305 -2.4806 0.9804
-3.1600 2.9064 -2.4788 0.9804
-3.2612 2.7909 -2.4782 0.9804
-3.4509 2.5496 -2.4772 0.9804
-3.5392 2.4241 -2.4767 0.9804
-3.7021 2.1643 -2.4759 0.9804
-3.7766 2.0302 -2.4755 0.9804
-3.8462 1.8936 -2.4752 0.9804
-3.9110 1.7547 -2.4749 0.9804
-4.0753 1.3254 -2.4742 0.9804
-4.1591 1.0307 -2.4739 0.9804
