ply
format ascii 1.0
element vertex 488
property float32 x
property float32 y
property float32 z
property float32 I
end_header
44.3567 -13.6026 8.1808 0.8282
45.6464 -8.7803 8.1963 0.8280
44.9421 -6.9852 8.0196 0.8313
45.4413 -2.1222 8.0213 0.8313
48.0646 2.9286 8.4908 0.8224
48.0017 4.6561 8.5037 0.8221
45.1494 6.0193 8.0315 0.8311
47.2230 9.7803 8.5034 0.8221
46.1485 13.0658 8.4571 0.8230
43.9780 15.9331 8.2478 0.8270
46.5074 -8.9460 7.2553 0.8256
46.5294 -7.2319 7.2136 0.8265
46.5513 -5.5353 7.1816 0.8272
46.5731 -3.8515 7.1591 0.8277
46.5950 -2.1761 7.1459 0.8280
46.6170 -0.5047 7.1419 0.8281
46.6392 1.1669 7.1471 0.8280
46.6843 4.5284 7.1853 0.8271
46.7073 6.2270 7.2186 0.8264
46.7307 7.9437 7.2616 0.8255
46.7546 9.6833 7.3145 0.8243
46.7790 11.4507 7.3779 0.8229
46.8041 13.2514 7.4520 0.8213
46.3296 -12.4099 6.2458 0.8241
46.6198 -8.9672 6.1822 0.8257
48.5833 -7.5511 6.4025 0.8201
48.6758 -0.5270 6.3390 0.8217
48.7221 2.9687 6.3564 0.8213
48.7691 6.5019 6.4070 0.8200
46.6299 9.6574 6.2010 0.8252
46.6935 15.0471 6.3884 0.8205
46.7450 15.0637 5.2738 0.8207
44.9151 14.4740 0.7971 0.8280
44.5435 -2.0803 -0.2511 0.8366
44.9180 14.4749 -0.2657 0.8280
37.7413 -7.2598 -1.0822 0.8574
37.7604 -4.4900 -1.0707 0.8588
37.7432 -3.1213 -1.0664 0.8594
37.7886 -0.4092 -1.0641 0.8597
37.7979 0.9457 -1.0646 0.8596
37.8166 3.6682 -1.0698 0.8590
37.8260 5.0430 -1.0745 0.8584
37.8355 6.4316 -1.0807 0.8576
37.8452 7.8380 -1.0883 0.8567
37.8648 10.7205 -1.1081 0.8543
37.8749 12.2053 -1.1205 0.8528
37.8853 13.7257 -1.1346 0.8511
37.8960 15.2869 -1.1506 0.8492
37.9182 18.5562 -1.1887 0.8446
37.9299 20.2778 -1.2111 0.8419
37.9420 22.0678 -1.2359 0.8389
37.9964 30.1126 -1.3651 0.8237
38.0119 32.4089 -1.4066 0.8188
37.7158 -10.1026 -1.9802 0.8552
37.7452 -5.8666 -1.9372 0.8581
37.7547 -4.4893 -1.9282 0.8587
37.7375 -3.1208 -1.9204 0.8593
37.7829 -0.4091 -1.9162 0.8596
37.7922 0.9455 -1.9172 0.8595
37.8297 6.4306 -1.9460 0.8575
37.8393 7.8368 -1.9597 0.8566
37.8490 9.2648 -1.9762 0.8555
37.8689 12.2034 -2.0177 0.8527
37.8792 13.7235 -2.0432 0.8510
37.9118 18.5530 -2.1406 0.8445
37.9233 20.2743 -2.1808 0.8418
37.9354 22.0639 -2.2256 0.8388
37.9479 23.9310 -2.2752 0.8355
31.4904 24.9566 -2.0377 0.8514
32.9765 37.4902 -2.5321 0.8188
31.4740 38.4792 -2.5211 0.8195
29.9416 39.4068 -2.5099 0.8202
34.3973 -7.9044 -2.5878 0.8680
34.6656 -6.6681 -2.5884 0.8680
34.8849 -5.4221 -2.5885 0.8680
35.0549 -4.1683 -2.5884 0.8680
35.2458 -1.6461 -2.5871 0.8680
35.1586 2.1422 -2.5827 0.8683
35.0302 3.3979 -2.5805 0.8684
34.6266 5.8861 -2.5753 0.8686
33.6617 9.5305 -2.5652 0.8691
33.2469 10.7139 -2.5612 0.8693
32.7871 11.8786 -2.5569 0.8695
31.1469 15.2425 -2.5426 0.8702
30.5169 16.3147 -2.5373 0.8704
28.5394 22.6178 -2.6700 0.8641
27.6381 23.5642 -2.6631 0.8644
26.7039 24.4734 -2.6559 0.8648
25.7385 25.3444 -2.6486 0.8651
23.7209 26.9678 -2.6334 0.8658
22.6723 27.7184 -2.6257 0.8662
21.5993 28.4274 -2.6178 0.8666
20.5041 29.0940 -2.6098 0.8670
27.3208 -6.2782 -2.6913 0.8935
27.7062 -4.3063 -2.6919 0.8934
27.9385 -2.3104 -2.6914 0.8935
28.0163 -0.3034 -2.6899 0.8935
27.9396 1.7024 -2.6873 0.8936
27.8435 2.7008 -2.6857 0.8937
27.7091 3.6942 -2.6837 0.8937
27.5368 4.6809 -2.6816 0.8938
26.7962 7.5867 -2.6737 0.8941
25.7311 10.3797 -2.6637 0.8945
23.8383 13.8648 -2.6475 0.8951
23.2863 14.6850 -2.6430 0.8953
22.7047 15.4824 -2.6383 0.8954
21.4569 17.0049 -2.6284 0.8958
20.1033 18.4242 -2.6179 0.8962
17.1164 20.9260 -2.5955 0.8971
16.3184 21.4771 -2.5896 0.8973
15.5025 21.9971 -2.5836 0.8975
21.5685 -5.7774 -2.6524 0.9140
22.0721 -3.4306 -2.6533 0.9140
22.3055 -1.0417 -2.6525 0.9140
22.3226 -0.2417 -2.6518 0.9140
22.1919 2.1526 -2.6485 0.9141
22.0880 2.9448 -2.6470 0.9142
21.9542 3.7320 -2.6453 0.9142
21.7908 4.5131 -2.6434 0.9143
21.1264 6.8080 -2.6366 0.9145
20.5423 8.2866 -2.6312 0.9146
20.2095 9.0073 -2.6282 0.9147
19.8502 9.7141 -2.6251 0.9148
18.1612 12.3842 -2.6111 0.9153
17.1760 13.6121 -2.6033 0.9155
16.6509 14.1965 -2.5992 0.9156
16.1053 14.7600 -2.5950 0.9158
14.9562 15.8220 -2.5862 0.9160
14.3544 16.3192 -2.5817 0.9162
12.4519 17.6685 -2.5676 0.9166
17.7212 -5.4344 -2.6263 0.9279
18.3256 -2.8483 -2.6277 0.9278
18.5354 -0.2007 -2.6264 0.9278
18.5255 0.4635 -2.6257 0.9279
18.4906 1.1266 -2.6248 0.9279
18.3463 2.4459 -2.6225 0.9280
18.1036 3.7494 -2.6195 0.9280
17.9459 4.3929 -2.6178 0.9281
17.7643 5.0295 -2.6160 0.9281
17.3309 6.2789 -2.6118 0.9282
16.5106 8.0798 -2.6045 0.9284
15.4975 9.7731 -2.5960 0.9287
15.1194 10.3099 -2.5929 0.9287
14.7221 10.8318 -2.5897 0.9288
13.3785 12.2610 -2.5712 0.9293
10.9341 14.3907 -2.5608 0.9296
10.3953 14.7504 -2.5568 0.9297
15.2964 -4.0973 -2.6088 0.9378
15.5542 -2.9919 -2.6094 0.9378
15.6518 -2.4327 -2.6094 0.9378
15.7286 -1.8703 -2.6094 0.9378
15.8189 -0.7388 -2.6088 0.9378
15.8244 0.3959 -2.6077 0.9378
15.7954 0.9624 -2.6069 0.9379
15.7452 1.5273 -2.6060 0.9379
15.6741 2.0897 -2.6050 0.9379
15.5821 2.6488 -2.6038 0.9379
15.4693 3.2038 -2.6025 0.9380
15.3360 3.7540 -2.6010 0.9380
15.1824 4.2985 -2.5994 0.9380
15.0088 4.8366 -2.5977 0.9381
14.3706 6.4049 -2.5919 0.9382
13.8509 7.4048 -2.5874 0.9383
13.2597 8.3619 -2.5825 0.9384
12.6007 9.2709 -2.5771 0.9386
12.2471 9.7059 -2.5743 0.9386
11.8780 10.1272 -2.5714 0.9387
11.4942 10.5341 -2.5685 0.9388
11.0961 10.9262 -2.5654 0.9388
10.6528 11.2695 -2.5547 0.9391
10.2596 11.6639 -2.5591 0.9390
9.3459 12.3004 -2.5449 0.9393
8.9137 12.6481 -2.5491 0.9392
13.1978 -4.0473 -2.5947 0.9454
13.5609 -2.6085 -2.5956 0.9453
13.7130 -1.6306 -2.5957 0.9453
13.7617 -1.1381 -2.5955 0.9453
13.7921 -0.6441 -2.5952 0.9454
13.7976 0.3452 -2.5942 0.9454
13.7728 0.8392 -2.5936 0.9454
13.7298 1.3318 -2.5928 0.9454
13.4915 2.7942 -2.5897 0.9455
13.3762 3.2743 -2.5884 0.9455
12.9254 4.6828 -2.5840 0.9456
12.5397 5.5889 -2.5805 0.9457
12.3223 6.0302 -2.5786 0.9457
11.8399 6.8863 -2.5745 0.9458
11.2968 7.7033 -2.5700 0.9459
10.0414 9.2026 -2.5601 0.9461
9.3368 9.8773 -2.5547 0.9462
8.9670 10.1944 -2.5519 0.9462
8.5864 10.4974 -2.5491 0.9463
11.8105 -3.1636 -2.5845 0.9512
12.1436 -1.4440 -2.5850 0.9512
12.2247 -0.1324 -2.5842 0.9512
12.2193 0.3057 -2.5837 0.9513
12.1600 1.1795 -2.5824 0.9513
12.0363 2.0460 -2.5807 0.9513
11.9506 2.4751 -2.5797 0.9513
11.5996 3.7380 -2.5761 0.9514
11.4519 4.1490 -2.5747 0.9514
11.1120 4.9526 -2.5716 0.9515
10.7144 5.7280 -2.5681 0.9515
10.4947 6.1039 -2.5663 0.9516
10.2615 6.4712 -2.5644 0.9516
8.6000 8.4683 -2.5512 0.9519
8.2831 8.7627 -2.5488 0.9519
7.6193 9.3152 -2.5438 0.9520
10.5875 -2.8360 -2.5760 0.9560
10.8858 -1.2944 -2.5764 0.9560
10.9246 -0.9034 -2.5763 0.9560
10.9490 -0.5113 -2.5761 0.9560
10.9588 -0.1187 -2.5757 0.9560
10.7150 2.2192 -2.5717 0.9560
10.6246 2.6007 -2.5707 0.9560
10.2701 3.7208 -2.5672 0.9561
9.9665 4.4420 -2.5645 0.9562
9.7951 4.7935 -2.5630 0.9562
9.6112 5.1382 -2.5614 0.9562
9.4148 5.4758 -2.5597 0.9562
9.2063 5.8057 -2.5580 0.9563
8.9860 6.1276 -2.5562 0.9563
8.5114 6.7454 -2.5524 0.9564
8.2578 7.0405 -2.5504 0.9564
7.7197 7.6015 -2.5462 0.9565
7.1431 8.1208 -2.5419 0.9565
6.8414 8.3641 -2.5396 0.9566
6.5314 8.5961 -2.5373 0.9566
6.2134 8.8165 -2.5349 0.9566
9.5844 -2.5673 -2.5690 0.9598
9.6711 -2.2224 -2.5693 0.9598
9.7450 -1.8745 -2.5694 0.9598
3.8836 -0.4618 -1.0126 0.9840
3.8446 0.0962 -0.9957 0.9842
3.9492 0.3831 -1.0273 0.9837
9.8263 1.3100 -2.5667 0.9599
9.7703 1.6608 -2.5660 0.9599
9.7014 2.0092 -2.5652 0.9599
9.6198 2.3548 -2.5643 0.9599
9.3000 3.3694 -2.5611 0.9600
9.0260 4.0229 -2.5586 0.9600
8.8714 4.3414 -2.5572 0.9600
8.7052 4.6539 -2.5558 0.9600
8.5279 4.9600 -2.5543 0.9601
8.3396 5.2591 -2.5528 0.9601
7.2437 6.6387 -2.5440 0.9602
6.7394 7.1296 -2.5402 0.9603
6.4745 7.3607 -2.5382 0.9603
5.9210 7.7928 -2.5340 0.9604
8.6554 -2.6543 -2.5629 0.9631
8.8251 -2.0280 -2.5634 0.9631
8.8925 -1.7105 -2.5635 0.9631
3.6642 -0.5695 -1.0498 0.9847
3.5774 -0.4254 -1.0199 0.9851
3.5594 -0.2944 -1.0111 0.9853
3.5615 -0.1663 -1.0093 0.9853
3.5619 -0.0386 -1.0084 0.9853
3.5631 0.0891 -1.0090 0.9853
8.9166 1.5157 -2.5604 0.9631
8.6941 2.4615 -2.5580 0.9631
8.5971 2.7704 -2.5570 0.9631
8.3696 3.3762 -2.5549 0.9632
8.2394 3.6723 -2.5537 0.9632
7.7858 4.5284 -2.5498 0.9632
7.0423 5.5811 -2.5438 0.9633
6.8333 5.8261 -2.5421 0.9634
6.3898 6.2920 -2.5387 0.9634
6.1559 6.5123 -2.5369 0.9634
5.6654 6.9264 -2.5332 0.9635
5.4095 7.1196 -2.5313 0.9635
4.8335 6.8585 -2.3753 0.9657
7.9511 -2.4383 -2.5580 0.9658
8.0342 -2.1520 -2.5583 0.9658
3.4053 -0.5293 -1.0600 0.9857
3.3452 -0.3978 -1.0362 0.9860
3.3529 -0.0363 -1.0313 0.9861
3.8533 0.5137 -1.1957 0.9839
8.1916 1.3925 -2.5557 0.9658
8.0663 1.9745 -2.5543 0.9658
7.8990 2.5455 -2.5526 0.9659
7.6905 3.1023 -2.5506 0.9659
7.5711 3.3744 -2.5495 0.9659
7.4421 3.6419 -2.5484 0.9659
7.3034 3.9045 -2.5472 0.9659
6.9979 4.4131 -2.5447 0.9660
6.8316 4.6585 -2.5433 0.9660
6.0817 5.5737 -2.5374 0.9661
5.8744 5.7844 -2.5358 0.9661
5.6596 5.9873 -2.5341 0.9661
5.2093 6.3688 -2.5307 0.9662
4.4449 6.3071 -2.3733 0.9682
7.3451 -2.2525 -2.5538 0.9681
7.4218 -1.9880 -2.5540 0.9681
7.5459 -1.4515 -2.5543 0.9681
3.1723 -0.3772 -1.0619 0.9866
3.1786 -0.1484 -1.0577 0.9867
3.1794 0.0795 -1.0572 0.9867
3.1772 0.1936 -1.0581 0.9867
3.1969 0.3101 -1.0677 0.9866
7.1058 2.8664 -2.5470 0.9682
6.8768 3.3653 -2.5449 0.9682
6.7489 3.6080 -2.5438 0.9683
6.6122 3.8458 -2.5427 0.9683
6.4671 4.0783 -2.5415 0.9683
6.3136 4.3053 -2.5402 0.9683
6.1522 4.5265 -2.5389 0.9683
5.8059 4.9501 -2.5362 0.9684
5.4302 5.3471 -2.5332 0.9684
5.0272 5.7153 -2.5302 0.9684
4.8162 5.8881 -2.5286 0.9684
4.2196 5.9874 -2.4348 0.9696
3.1014 -0.5966 -1.1294 0.9867
3.0549 -0.4748 -1.1056 0.9870
3.0505 -0.0330 -1.0910 0.9871
3.0492 0.0763 -1.0907 0.9871
3.0469 0.1856 -1.0916 0.9871
3.0550 0.2963 -1.0976 0.9870
6.9178 1.6934 -2.5469 0.9702
6.8508 1.9396 -2.5462 0.9702
6.6902 2.4238 -2.5446 0.9702
6.5968 2.6611 -2.5438 0.9702
6.4948 2.8947 -2.5428 0.9702
6.3845 3.1244 -2.5419 0.9703
6.2660 3.3498 -2.5409 0.9703
5.8625 3.9976 -2.5375 0.9703
5.7128 4.2031 -2.5363 0.9703
5.3916 4.5969 -2.5337 0.9703
5.0432 4.9659 -2.5310 0.9704
4.6693 5.3084 -2.5282 0.9704
6.3539 -1.9485 -2.5468 0.9719
6.4780 -1.4886 -2.5472 0.9719
2.9194 -0.4538 -1.1322 0.9874
2.9199 -0.3472 -1.1268 0.9875
2.9291 -0.1368 -1.1237 0.9875
2.9644 0.3952 -1.1461 0.9873
3.6626 0.6226 -1.4237 0.9842
6.4479 1.5783 -2.5439 0.9720
6.3855 1.8079 -2.5432 0.9720
6.2360 2.2593 -2.5418 0.9720
6.1491 2.4805 -2.5410 0.9720
6.0542 2.6984 -2.5401 0.9720
5.5980 3.5303 -2.5362 0.9720
5.4656 3.7270 -2.5351 0.9721
5.3261 3.9187 -2.5340 0.9721
5.0271 4.2861 -2.5316 0.9721
4.7025 4.6305 -2.5291 0.9721
4.5312 4.7936 -2.5278 0.9721
4.3542 4.9502 -2.5265 0.9722
4.1718 5.1003 -2.5251 0.9722
3.9842 5.2436 -2.5237 0.9722
3.7915 5.3800 -2.5223 0.9722
6.0046 -1.6084 -2.5442 0.9735
2.8581 -0.6568 -1.2002 0.9874
2.8273 -0.5438 -1.1784 0.9876
2.8095 -0.4367 -1.1637 0.9878
2.8171 -0.0305 -1.1530 0.9879
2.8159 0.0705 -1.1528 0.9879
2.8157 0.2731 -1.1578 0.9878
2.8692 0.4877 -1.1911 0.9875
5.9728 1.6910 -2.5406 0.9735
5.9068 1.9035 -2.5399 0.9735
5.8332 2.1133 -2.5392 0.9735
5.7520 2.3203 -2.5385 0.9735
5.6633 2.5241 -2.5377 0.9736
5.4643 2.9213 -2.5359 0.9736
5.3541 3.1141 -2.5350 0.9736
5.2371 3.3027 -2.5340 0.9736
4.8464 3.8408 -2.5309 0.9736
4.7036 4.0102 -2.5297 0.9736
4.2400 4.4855 -2.5262 0.9737
4.0745 4.6322 -2.5249 0.9737
3.7285 4.9071 -2.5223 0.9737
5.5750 -1.7097 -2.5414 0.9749
5.6332 -1.5089 -2.5416 0.9749
2.7413 -0.6300 -1.2259 0.9878
2.7199 -0.5232 -1.2071 0.9880
2.7247 -0.0295 -1.1876 0.9882
2.7207 0.1658 -1.1879 0.9882
2.7278 0.2646 -1.1944 0.9881
2.7548 0.4683 -1.2178 0.9879
5.7055 1.1817 -2.5393 0.9749
5.6583 1.3851 -2.5388 0.9749
5.5420 1.7859 -2.5376 0.9749
5.4730 1.9828 -2.5369 0.9749
5.3969 2.1771 -2.5362 0.9749
5.2240 2.5565 -2.5347 0.9749
5.1274 2.7411 -2.5339 0.9750
5.0241 2.9221 -2.5330 0.9750
4.9144 3.0991 -2.5321 0.9750
4.6762 3.4405 -2.5301 0.9750
4.5481 3.6044 -2.5291 0.9750
4.4142 3.7635 -2.5281 0.9750
4.1297 4.0664 -2.5259 0.9750
3.6643 4.4799 -2.5223 0.9751
3.4997 4.6060 -2.5211 0.9751
3.3308 4.7261 -2.5198 0.9751
5.2443 -1.6082 -2.5391 0.9761
2.6412 -0.6069 -1.2544 0.9881
2.6304 -0.5060 -1.2399 0.9883
2.6369 -0.4099 -1.2353 0.9883
2.6406 -0.3140 -1.2309 0.9883
2.6480 0.0663 -1.2261 0.9884
2.6437 0.2564 -1.2295 0.9884
5.2717 1.4925 -2.5361 0.9761
5.2137 1.6801 -2.5355 0.9761
5.0773 2.0482 -2.5342 0.9762
4.9148 2.4052 -2.5328 0.9762
4.3999 3.2372 -2.5285 0.9762
4.2795 3.3915 -2.5275 0.9762
4.1536 3.5413 -2.5265 0.9762
4.0224 3.6864 -2.5255 0.9762
3.7448 3.9616 -2.5234 0.9763
3.2936 4.3348 -2.5200 0.9763
3.1347 4.4480 -2.5188 0.9763
2.6006 -0.1215 -1.2770 0.9885
2.6028 0.0651 -1.2771 0.9885
2.6042 0.1587 -1.2798 0.9884
2.7181 0.5629 -1.3616 0.9877
4.9709 1.4074 -2.5342 0.9772
4.9162 1.5843 -2.5336 0.9773
4.8552 1.7590 -2.5330 0.9773
4.6347 2.2681 -2.5311 0.9773
4.4577 2.5927 -2.5295 0.9773
4.2578 2.9034 -2.5279 0.9773
4.1496 3.0530 -2.5270 0.9773
3.6653 3.6091 -2.5232 0.9773
3.2527 3.9767 -2.5201 0.9774
3.1068 4.0889 -2.5190 0.9774
2.9570 4.1958 -2.5179 0.9774
2.5791 -0.4961 -1.3625 0.9882
2.5799 -0.2133 -1.3430 0.9884
2.5800 -0.1205 -1.3399 0.9884
2.5802 -0.0279 -1.3386 0.9884
2.5804 0.0646 -1.3391 0.9884
2.5827 0.2505 -1.3461 0.9884
2.5810 0.3441 -1.3508 0.9883
4.7424 1.1609 -2.5329 0.9782
4.6969 1.3298 -2.5324 0.9782
4.5876 1.6621 -2.5314 0.9783
4.3795 2.1432 -2.5295 0.9783
4.2987 2.2982 -2.5288 0.9783
4.2124 2.4500 -2.5281 0.9783
3.7022 3.1565 -2.5239 0.9783
3.5854 3.2859 -2.5230 0.9783
2.9365 3.8648 -2.5181 0.9784
2.5879 -0.6932 -1.4674 0.9879
2.5570 -0.3974 -1.4173 0.9883
2.5584 -0.3042 -1.4111 0.9883
2.5595 -0.0277 -1.4019 0.9884
2.5593 0.1559 -1.4044 0.9884
2.5586 0.2482 -1.4079 0.9883
2.5560 0.3408 -1.4123 0.9883
2.5536 0.4341 -1.4187 0.9883
4.4460 1.2588 -2.5308 0.9791
4.3972 1.4170 -2.5303 0.9792
4.3427 1.5733 -2.5298 0.9792
4.2170 1.8795 -2.5287 0.9792
4.1459 2.0289 -2.5280 0.9792
4.0695 2.1756 -2.5274 0.9792
3.7125 2.7315 -2.5244 0.9792
3.6111 2.8618 -2.5236 0.9792
3.3946 3.1110 -2.5219 0.9792
3.0378 3.4536 -2.5192 0.9792
2.7805 3.6595 -2.5173 0.9793
2.6466 3.7553 -2.5163 0.9793
2.6361 -0.8084 -1.5919 0.9873
2.5573 -0.6850 -1.5285 0.9878
2.5344 -0.4875 -1.4900 0.9882
2.5368 -0.3943 -1.4822 0.9882
2.5360 -0.3016 -1.4745 0.9883
2.5372 -0.0275 -1.4649 0.9883
2.5372 0.0635 -1.4653 0.9883
2.5380 0.2462 -1.4722 0.9883
2.5359 0.3381 -1.4771 0.9883
2.5349 0.4309 -1.4845 0.9882
4.1174 1.4917 -2.5284 0.9800
3.9309 1.9237 -2.5267 0.9800
3.8585 2.0628 -2.5261 0.9800
3.7812 2.1992 -2.5254 0.9800
3.6119 2.4630 -2.5240 0.9800
3.5203 2.5901 -2.5233 0.9800
3.4242 2.7137 -2.5225 0.9800
3.3237 2.8338 -2.5217 0.9800
3.2190 2.9501 -2.5209 0.9800
2.9974 3.1709 -2.5192 0.9800
2.8808 3.2751 -2.5183 0.9801
2.6370 3.4705 -2.5165 0.9801
2.5099 3.5615 -2.5155 0.9801
