ply
format ascii 1.0
element vertex 662
property float32 x
property float32 y
property float32 z
property float32 I
end_header
-33.9189 -21.9433 7.1233 0.8487
-28.5321 -21.5215 6.3017 0.8649
-24.5893 -21.4911 5.7584 0.8758
-22.8638 -21.4833 5.5320 0.8804
-6.0913 -7.1086 1.6507 0.9627
-5.9153 -7.4288 1.6744 0.9622
-5.0704 -6.8608 1.5043 0.9659
-4.9199 -7.1847 1.5354 0.9652
-5.0674 -8.0037 1.6703 0.9623
-4.4929 -7.6962 1.5714 0.9645
-4.3438 -8.0969 1.6202 0.9634
-3.6054 -8.0655 1.5578 0.9648
-3.2529 -8.0422 1.5297 0.9654
-3.2527 -8.9569 1.6803 0.9620
-5.2543 -21.4421 3.8927 0.9142
-4.4421 -21.4401 3.8608 0.9149
-1.2922 -21.4241 3.7845 0.9165
-0.5191 -21.4214 3.7783 0.9166
2.6051 -21.6366 3.8427 0.9153
-12.5318 -7.4813 2.2359 0.9426
-30.7666 -21.5138 5.7513 0.8591
-26.4595 -21.4956 5.2225 0.8711
-24.5890 -21.4909 5.0028 0.8762
-22.8638 -21.4834 4.8062 0.8808
-21.2704 -21.4797 4.6309 0.8849
-19.7848 -21.4736 4.4730 0.8886
-6.0611 -7.0734 1.4270 0.9630
-5.8855 -7.3913 1.4474 0.9625
-4.8510 -7.0840 1.3153 0.9659
-4.4043 -7.5445 1.3383 0.9653
-3.9365 -8.0180 1.3684 0.9645
-3.5738 -7.9947 1.3415 0.9652
-3.5835 -8.8597 1.4641 0.9621
-3.2428 -8.9296 1.4554 0.9623
-2.9059 -8.9992 1.4487 0.9625
-6.0809 -21.4437 3.4146 0.9138
-5.2542 -21.4417 3.3819 0.9145
-4.4420 -21.4397 3.3542 0.9152
-3.6421 -21.4378 3.3312 0.9158
-1.2922 -21.4242 3.2880 0.9168
-0.5191 -21.4214 3.2826 0.9169
0.2525 -21.4248 3.2824 0.9169
1.7982 -21.4044 3.2906 0.9167
2.6054 -21.6387 3.3389 0.9156
3.5326 -22.4842 3.4867 0.9120
-39.1916 -21.5220 5.8225 0.8350
-30.7656 -21.5131 4.8886 0.8595
-26.4592 -21.4953 4.4392 0.8715
-24.5887 -21.4906 4.2526 0.8766
-21.2704 -21.4797 3.9365 0.8852
-19.7850 -21.4738 3.8023 0.8889
-6.0313 -7.0387 1.2071 0.9633
-4.7410 -7.4881 1.1541 0.9649
-4.9011 -8.3954 1.2659 0.9615
-4.2762 -7.9710 1.1779 0.9642
-3.9018 -7.9473 1.1529 0.9649
-3.5696 -7.9853 1.1390 0.9653
-3.5502 -8.7772 1.2329 0.9625
-3.2246 -8.8794 1.2302 0.9626
-4.4420 -21.4393 2.8511 0.9155
-3.6420 -21.4374 2.8316 0.9160
-2.8511 -21.4297 2.8152 0.9165
-2.0688 -21.4269 2.8032 0.9168
-1.2922 -21.4242 2.7949 0.9171
0.2525 -21.4243 2.7901 0.9172
2.6056 -21.6408 2.8384 0.9158
-12.5310 -7.4809 1.5671 0.9430
-26.4589 -21.4950 3.6606 0.8718
-22.8639 -21.4834 3.3689 0.8814
-21.2705 -21.4797 3.2461 0.8855
-19.7852 -21.4740 3.1354 0.8892
-18.3981 -21.4710 3.0362 0.8925
-4.8808 -7.1276 0.9276 0.9658
-4.6742 -7.3826 0.9383 0.9655
-4.2382 -7.9001 0.9627 0.9646
-3.7371 -7.6119 0.9106 0.9665
-6.0807 -21.4428 2.3934 0.9142
-5.2540 -21.4408 2.3705 0.9150
-2.8511 -21.4298 2.3214 0.9167
-2.0688 -21.4270 2.3116 0.9170
-1.2922 -21.4242 2.3047 0.9173
0.2525 -21.4237 2.3007 0.9174
1.7981 -21.4036 2.3064 0.9172
2.6059 -21.6429 2.3408 0.9160
-39.1935 -21.5230 3.7852 0.8357
-12.5306 -7.4807 1.2354 0.9431
-33.2625 -21.5185 3.3536 0.8530
-30.7635 -21.5117 3.1777 0.8601
-26.4585 -21.4948 2.8857 0.8721
-18.3983 -21.4712 2.3936 0.8927
-5.7952 -7.2780 0.7876 0.9633
-5.5498 -7.5094 0.7905 0.9632
-5.2525 -7.6704 0.7870 0.9634
-4.7663 -7.5281 0.7543 0.9649
-3.6085 -7.3499 0.6931 0.9677
-7.7908 -21.4531 1.9321 0.9124
-6.9268 -21.4515 1.9083 0.9135
-6.0806 -21.4424 1.8867 0.9144
-4.4418 -21.4385 1.8534 0.9159
-2.8511 -21.4298 1.8301 0.9169
-1.2922 -21.4242 1.8169 0.9174
-0.5191 -21.4215 1.8139 0.9176
1.0232 -21.3898 1.8128 0.9176
2.6061 -21.6450 1.8455 0.9162
-33.2597 -21.5167 2.4564 0.8532
-22.8640 -21.4835 1.9455 0.8818
-21.2706 -21.4798 1.8745 0.8859
-19.7856 -21.4745 1.8107 0.8896
-18.3985 -21.4714 1.7534 0.8929
-5.7198 -7.1832 0.5694 0.9639
-4.8311 -8.2755 0.5942 0.9623
-4.0838 -8.3181 0.5746 0.9635
-3.4455 -8.5184 0.5698 0.9638
-6.9265 -21.4505 1.3978 0.9136
-5.2538 -21.4400 1.3688 0.9153
-4.4417 -21.4381 1.3576 0.9160
-3.6418 -21.4362 1.3483 0.9165
-2.0689 -21.4270 1.3349 0.9173
3.5352 -22.5012 1.4124 0.9128
-39.1953 -21.5240 1.7632 0.8361
-30.7615 -21.5103 1.4801 0.8605
-28.5165 -21.5097 1.4084 0.8668
-26.4579 -21.4942 1.3441 0.8724
-22.8640 -21.4836 1.2371 0.8820
-21.2706 -21.4799 1.1919 0.8860
-5.4435 -7.3656 0.3611 0.9640
-5.1329 -7.4956 0.3582 0.9643
-4.9784 -7.8631 0.3670 0.9634
-4.7167 -8.0795 0.3689 0.9632
-4.0440 -8.2370 0.3618 0.9639
-3.7267 -8.3368 0.3601 0.9641
-8.6771 -21.4526 0.9125 0.9115
-7.7901 -21.4511 0.8999 0.9127
-6.9262 -21.4495 0.8888 0.9137
-6.0804 -21.4416 0.8788 0.9146
-5.2537 -21.4396 0.8704 0.9154
-4.4416 -21.4377 0.8633 0.9161
-3.6417 -21.4358 0.8573 0.9166
-2.8511 -21.4299 0.8524 0.9171
-2.0688 -21.4271 0.8488 0.9174
-1.2922 -21.4243 0.8463 0.9177
0.2525 -21.4220 0.8448 0.9178
2.6066 -21.6491 0.8598 0.9164
-30.7606 -21.5096 0.6340 0.8606
-28.5139 -21.5077 0.6033 0.8669
-26.4576 -21.4940 0.5758 0.8725
-19.7860 -21.4749 0.4932 0.8897
-17.0921 -21.4652 0.4635 0.8960
-5.1686 -7.5478 0.1545 0.9641
-4.6063 -7.8904 0.1543 0.9641
-4.0050 -8.1576 0.1535 0.9643
-3.6910 -8.2568 0.1528 0.9645
-8.6767 -21.4516 0.3909 0.9116
-7.7897 -21.4501 0.3855 0.9127
-6.9258 -21.4485 0.3807 0.9138
-6.0802 -21.4412 0.3765 0.9147
-5.2536 -21.4392 0.3729 0.9155
-4.4415 -21.4373 0.3698 0.9161
-2.8511 -21.4299 0.3652 0.9171
-2.0688 -21.4271 0.3636 0.9175
-1.2922 -21.4243 0.3626 0.9177
-0.5191 -21.4216 0.3620 0.9178
1.0231 -21.3878 0.3617 0.9179
1.7980 -21.4020 0.3628 0.9177
2.6069 -21.6511 0.3684 0.9165
3.5365 -22.5096 0.3849 0.9129
-39.1972 -21.5251 -0.2518 0.8362
-12.5286 -7.4794 -0.0821 0.9433
-33.2514 -21.5114 -0.2230 0.8535
-28.5113 -21.5058 -0.2011 0.8669
-26.4572 -21.4937 -0.1919 0.8725
-24.5869 -21.4891 -0.1838 0.8776
-21.2707 -21.4799 -0.1702 0.8861
-5.1027 -7.4516 -0.0508 0.9645
-4.2812 -7.9802 -0.0510 0.9644
-3.9668 -8.0798 -0.0507 0.9646
-9.5906 -21.4545 -0.1323 0.9103
-8.6763 -21.4506 -0.1303 0.9116
-7.7894 -21.4491 -0.1285 0.9128
-6.0801 -21.4408 -0.1255 0.9147
-5.2535 -21.4388 -0.1243 0.9155
-2.8511 -21.4299 -0.1217 0.9172
-1.2922 -21.4244 -0.1208 0.9177
1.0231 -21.3871 -0.1206 0.9179
1.7979 -21.4016 -0.1209 0.9177
2.6071 -21.6532 -0.1228 0.9165
-39.1981 -21.5256 -1.2592 0.8361
-12.5281 -7.4791 -0.4108 0.9433
-30.7586 -21.5082 -1.0568 0.8605
-26.4569 -21.4935 -0.9598 0.8725
-24.5866 -21.4889 -0.9194 0.8775
-21.2707 -21.4800 -0.8512 0.8861
-18.3992 -21.4722 -0.7962 0.8930
-15.8603 -21.4606 -0.7514 0.8987
-14.6980 -21.4639 -0.7325 0.9011
-4.4994 -7.7072 -0.2513 0.9649
-4.5617 -8.5031 -0.2717 0.9621
-8.6759 -21.4496 -0.6515 0.9116
-6.9252 -21.4466 -0.6346 0.9138
-5.2534 -21.4384 -0.6215 0.9155
-3.6415 -21.4346 -0.6122 0.9167
-2.0689 -21.4272 -0.6061 0.9175
-1.2922 -21.4244 -0.6044 0.9177
0.2525 -21.4204 -0.6032 0.9178
1.0230 -21.3864 -0.6029 0.9179
2.6073 -21.6552 -0.6142 0.9164
-12.5288 -7.4796 -0.7400 0.9432
-30.7576 -21.5075 -1.9034 0.8604
-26.4566 -21.4932 -1.7287 0.8724
-19.7867 -21.4755 -1.4809 0.8896
-18.3994 -21.4725 -1.4341 0.8929
-17.0928 -21.4660 -1.3916 0.8959
-14.6975 -21.4631 -1.3192 0.9011
-4.6027 -7.8842 -0.4630 0.9641
-9.5894 -21.4517 -1.1917 0.9102
-8.6755 -21.4486 -1.1734 0.9115
-7.7887 -21.4471 -1.1572 0.9127
-6.0799 -21.4399 -1.1302 0.9146
-5.2533 -21.4380 -1.1194 0.9154
-3.6414 -21.4342 -1.1026 0.9166
-2.8512 -21.4300 -1.0964 0.9171
-2.0689 -21.4272 -1.0917 0.9174
-1.2922 -21.4244 -1.0885 0.9176
-0.5191 -21.4217 -1.0867 0.9178
1.0230 -21.3858 -1.0858 0.9178
1.7979 -21.4008 -1.0891 0.9176
3.5385 -22.5223 -1.1562 0.9127
-27.8870 -15.3141 -2.3328 0.8802
-12.5296 -7.4800 -1.0700 0.9432
-26.2316 -18.3427 -2.3469 0.8795
-21.2708 -21.4801 -2.2165 0.8858
-15.8606 -21.4611 -1.9567 0.8985
-4.6014 -7.8821 -0.6692 0.9641
-11.5100 -21.4549 -1.7852 0.9070
-6.9246 -21.4446 -1.6523 0.9136
-6.0798 -21.4395 -1.6340 0.9145
-4.4412 -21.4357 -1.6051 0.9159
-3.6414 -21.4338 -1.5941 0.9165
-2.0689 -21.4272 -1.5784 0.9173
-0.5191 -21.4217 -1.5711 0.9176
0.2524 -21.4193 -1.5706 0.9177
1.0230 -21.3851 -1.5698 0.9177
1.7978 -21.4004 -1.5747 0.9175
2.6078 -21.6593 -1.5996 0.9162
-21.6449 -11.8863 -2.3707 0.9055
-20.7971 -13.4543 -2.3780 0.9053
-20.3324 -14.2176 -2.3819 0.9051
-19.8410 -14.9659 -2.3860 0.9050
-19.3233 -15.6982 -2.3902 0.9048
-17.6171 -17.7905 -2.4037 0.9043
-16.9990 -18.4500 -2.4085 0.9041
-16.3572 -19.0892 -2.4134 0.9039
-4.5959 -7.8726 -0.8752 0.9640
-11.3093 -21.0809 -2.2967 0.9083
-10.5316 -21.4512 -2.2942 0.9084
-9.5881 -21.4489 -2.2556 0.9099
-7.7879 -21.4450 -2.1904 0.9124
-5.2531 -21.4372 -2.1190 0.9151
-4.4411 -21.4353 -2.1016 0.9158
-2.8512 -21.4300 -2.0755 0.9168
-1.2922 -21.4245 -2.0606 0.9174
-0.5191 -21.4217 -2.0572 0.9175
0.2525 -21.4187 -2.0564 0.9175
1.0229 -21.3844 -2.0554 0.9176
1.7978 -21.4000 -2.0617 0.9173
-16.5958 -9.1136 -2.2490 0.9266
-12.5311 -7.4809 -1.7336 0.9429
-15.7529 -12.7976 -2.4109 0.9215
-15.3046 -13.3764 -2.4145 0.9214
-13.8385 -15.0197 -2.4260 0.9210
-12.7647 -16.0307 -2.4342 0.9208
-11.6189 -16.9675 -2.4428 0.9205
-11.0205 -17.4064 -2.4472 0.9204
-9.7756 -18.2221 -2.4563 0.9201
-8.4713 -18.9509 -2.4658 0.9198
-7.7988 -19.2813 -2.4706 0.9196
-7.1135 -19.5882 -2.4755 0.9195
-6.3646 -19.7107 -2.4604 0.9200
-5.5907 -19.7151 -2.4342 0.9208
-3.3509 -19.7245 -2.3766 0.9226
-2.6249 -19.7297 -2.3643 0.9230
-1.1975 -19.8546 -2.3627 0.9230
-0.4828 -19.9255 -2.3676 0.9229
0.2354 -19.9706 -2.3724 0.9227
0.9563 -19.9897 -2.3772 0.9226
1.6788 -19.9826 -2.3820 0.9224
3.9759 -20.4687 -2.4768 0.9194
-12.5319 -7.4814 -2.0680 0.9427
-13.4489 -8.7005 -2.2696 0.9373
-13.6485 -10.2949 -2.4223 0.9333
-12.9040 -11.2783 -2.4283 0.9331
-11.2117 -13.0843 -2.4414 0.9328
-10.7487 -13.4989 -2.4449 0.9327
-10.2709 -13.8976 -2.4485 0.9326
-9.7785 -14.2798 -2.4522 0.9325
-7.6752 -15.6333 -2.4676 0.9321
-7.1189 -15.9253 -2.4716 0.9320
-6.5516 -16.1979 -2.4757 0.9318
-5.3869 -16.6828 -2.4839 0.9316
-4.7908 -16.8944 -2.4881 0.9315
-4.1864 -17.0848 -2.4924 0.9314
-2.9562 -17.4011 -2.5009 0.9312
-1.0680 -17.7092 -2.5138 0.9308
2.1389 -17.7641 -2.5352 0.9303
2.7817 -17.7050 -2.5394 0.9302
3.4230 -17.6223 -2.5436 0.9300
-11.3556 -7.9405 -2.2827 0.9454
-10.4660 -9.1474 -2.2899 0.9452
-10.7988 -10.1469 -2.4411 0.9417
-10.4385 -10.5412 -2.4439 0.9416
-9.6760 -11.2921 -2.4498 0.9415
-9.2746 -11.6476 -2.4528 0.9414
-8.4339 -12.3164 -2.4591 0.9413
-7.9956 -12.6287 -2.4624 0.9412
-4.5768 -7.8398 -1.4955 0.9639
-6.6141 -13.4721 -2.4724 0.9410
-5.1447 -14.1667 -2.4829 0.9407
-4.6379 -14.3634 -2.4865 0.9406
-3.6027 -14.7026 -2.4938 0.9405
-2.0052 -15.0717 -2.5048 0.9402
0.1803 -15.2931 -2.5196 0.9399
0.7319 -15.2990 -2.5232 0.9398
1.2841 -15.2849 -2.5269 0.9397
2.9373 -15.1219 -2.5377 0.9395
-10.4472 -6.2369 -2.2870 0.9517
-10.2242 -6.6144 -2.2888 0.9516
-9.4766 -7.6988 -2.2950 0.9515
-8.5026 -9.9228 -2.4562 0.9482
-8.1487 -10.2337 -2.4588 0.9481
-7.0216 -11.0904 -2.4672 0.9480
-4.5701 -7.8283 -1.7038 0.9638
-6.2200 -11.5944 -2.4731 0.9479
-4.9517 -12.2425 -2.4822 0.9477
-4.0681 -12.5988 -2.4885 0.9475
-3.6164 -12.7533 -2.4916 0.9475
-3.1590 -12.8917 -2.4948 0.9474
-2.6962 -13.0138 -2.4980 0.9473
-2.2288 -13.1193 -2.5013 0.9473
-0.8042 -13.3347 -2.5110 0.9471
0.1579 -13.3924 -2.5174 0.9469
1.6071 -13.3480 -2.5270 0.9468
2.0893 -13.2981 -2.5302 0.9467
-10.1213 -5.5582 -2.4408 0.9539
-9.6837 -5.7811 -2.3840 0.9549
-8.9063 -6.2278 -2.2972 0.9565
-8.2030 -7.1695 -2.3029 0.9564
-7.4020 -8.0339 -2.3091 0.9563
-7.1147 -8.3031 -2.3113 0.9563
-6.8178 -8.5622 -2.3136 0.9562
-6.5115 -8.8108 -2.3158 0.9562
-6.1964 -9.0487 -2.3182 0.9562
-4.7912 -10.7183 -2.4817 0.9531
-3.6196 -11.2099 -2.4900 0.9530
-3.2173 -11.3457 -2.4928 0.9529
-1.9819 -11.6664 -2.5014 0.9528
-0.2880 -11.8845 -2.5129 0.9526
0.1403 -11.9007 -2.5157 0.9525
0.5693 -11.9015 -2.5186 0.9525
0.9986 -11.8866 -2.5214 0.9524
1.8556 -11.8102 -2.5271 0.9523
2.2821 -11.7487 -2.5298 0.9522
-9.1258 -5.0114 -2.4469 0.9581
-8.9451 -5.3401 -2.4484 0.9581
-8.7528 -5.6625 -2.4501 0.9581
-8.2690 -5.7822 -2.3714 0.9594
-7.8265 -5.9036 -2.3041 0.9605
-7.1609 -6.7286 -2.3094 0.9604
-6.9196 -6.9877 -2.3112 0.9604
-6.1415 -7.7129 -2.3172 0.9603
-5.8651 -7.9361 -2.3192 0.9603
-4.6825 -8.7284 -2.3279 0.9601
-3.7250 -9.2096 -2.3348 0.9600
-3.2571 -10.0872 -2.4912 0.9574
-2.5279 -10.3165 -2.4963 0.9573
-1.7826 -10.4932 -2.5015 0.9572
-1.4051 -10.5615 -2.5041 0.9572
-1.0250 -10.6162 -2.5067 0.9571
0.1261 -10.6978 -2.5144 0.9570
0.8974 -10.6827 -2.5195 0.9569
1.2828 -10.6541 -2.5221 0.9569
1.6673 -10.6116 -2.5246 0.9568
-8.1358 -4.8570 -2.4533 0.9616
-7.9604 -5.1498 -2.4548 0.9616
-7.7746 -5.4365 -2.4563 0.9616
-7.5787 -5.7166 -2.4579 0.9615
-6.7216 -5.8748 -2.3114 0.9638
-6.5104 -6.1174 -2.3130 0.9638
-5.8261 -6.7992 -2.3183 0.9637
-5.5819 -7.0101 -2.3202 0.9637
-4.8054 -7.5900 -2.3259 0.9636
-4.5329 -7.7647 -2.3279 0.9635
-4.2541 -7.9298 -2.3300 0.9635
-3.0827 -8.4888 -2.3383 0.9634
-2.7776 -8.6022 -2.3405 0.9633
-2.4684 -8.7046 -2.3426 0.9633
-2.1554 -8.7960 -2.3448 0.9633
-1.2754 -9.5862 -2.5039 0.9608
-0.5833 -9.6712 -2.5086 0.9608
0.1144 -9.7062 -2.5133 0.9607
0.8141 -9.6907 -2.5179 0.9606
1.1636 -9.6639 -2.5202 0.9606
1.5122 -9.6244 -2.5225 0.9605
1.8594 -9.5723 -2.5248 0.9605
-7.4534 -4.4497 -2.4574 0.9646
-7.2924 -4.7177 -2.4588 0.9645
-6.9425 -5.2364 -2.4617 0.9645
-6.5555 -5.7296 -2.4647 0.9645
-6.1490 -5.7778 -2.3886 0.9655
-5.5514 -6.0253 -2.3193 0.9665
-5.3347 -6.2257 -2.3210 0.9665
-5.1108 -6.4184 -2.3227 0.9665
-4.6426 -6.7797 -2.3262 0.9664
-3.6327 -7.3994 -2.3335 0.9663
-3.0959 -7.6542 -2.3374 0.9663
-2.8207 -7.7671 -2.3393 0.9662
-2.5413 -7.8703 -2.3413 0.9662
-2.2582 -7.9634 -2.3433 0.9662
-1.6821 -8.1191 -2.3473 0.9661
-1.0954 -8.2332 -2.3513 0.9661
-0.8507 -8.8110 -2.5059 0.9639
-0.5334 -8.8435 -2.5081 0.9638
0.1046 -8.8741 -2.5124 0.9638
0.4244 -8.8720 -2.5145 0.9637
0.7442 -8.8584 -2.5166 0.9637
1.0636 -8.8333 -2.5187 0.9637
1.6993 -8.7482 -2.5228 0.9636
-6.8699 -4.1013 -2.4610 0.9671
-6.7213 -4.3482 -2.4622 0.9671
-6.5638 -4.5898 -2.4635 0.9670
-6.2234 -5.0559 -2.4663 0.9670
-5.8504 -5.4972 -2.4692 0.9670
-5.6522 -5.7078 -2.4707 0.9669
-5.3188 -5.7729 -2.4144 0.9677
-4.9566 -5.7846 -2.3431 0.9686
-4.4954 -6.0828 -2.3264 0.9688
-3.8214 -6.5460 -2.3314 0.9688
-3.5859 -6.6843 -2.3331 0.9688
-3.1002 -6.9354 -2.3366 0.9687
-2.8507 -7.0479 -2.3384 0.9687
-2.0789 -7.3311 -2.3438 0.9686
-1.8150 -7.4070 -2.3456 0.9686
-1.5483 -7.4735 -2.3475 0.9686
-1.2792 -7.5303 -2.3493 0.9685
-1.0081 -7.5774 -2.3512 0.9685
-0.7829 -8.1087 -2.5057 0.9665
-0.4908 -8.1380 -2.5076 0.9665
-0.1976 -8.1568 -2.5096 0.9664
0.0963 -8.1650 -2.5116 0.9664
0.3905 -8.1626 -2.5135 0.9664
0.6847 -8.1496 -2.5155 0.9664
1.2713 -8.0916 -2.5193 0.9663
1.5630 -8.0466 -2.5212 0.9663
-6.4945 -3.5664 -2.4629 0.9693
-6.2267 -4.0283 -2.4652 0.9692
-6.0806 -4.2519 -2.4664 0.9692
-5.9266 -4.4704 -2.4676 0.9692
-5.7648 -4.6833 -2.4689 0.9692
-5.5955 -4.8905 -2.4703 0.9692
-5.4188 -5.0917 -2.4716 0.9691
-5.2353 -5.2865 -2.4731 0.9691
-5.0443 -5.4748 -2.4745 0.9691
-4.8468 -5.6563 -2.4760 0.9691
-4.2691 -5.7766 -2.3877 0.9702
-3.9621 -5.7859 -2.3310 0.9709
-3.3198 -6.1884 -2.3344 0.9708
-3.0970 -6.3082 -2.3360 0.9708
-2.6387 -6.5239 -2.3392 0.9708
-2.4038 -6.6193 -2.3409 0.9708
-1.9240 -6.7849 -2.3443 0.9707
-1.4328 -6.9158 -2.3477 0.9707
-1.1837 -6.9680 -2.3494 0.9706
-0.1829 -7.5460 -2.5091 0.9687
0.0890 -7.5531 -2.5109 0.9687
0.3612 -7.5505 -2.5127 0.9686
0.6333 -7.5379 -2.5145 0.9686
0.9049 -7.5156 -2.5163 0.9686
1.1758 -7.4834 -2.5180 0.9686
-6.0435 -3.3188 -2.4656 0.9711
-5.9226 -3.5357 -2.4667 0.9711
-5.7940 -3.7483 -2.4677 0.9711
-5.6578 -3.9563 -2.4689 0.9711
-5.5143 -4.1594 -2.4700 0.9711
-5.3636 -4.3574 -2.4712 0.9711
-5.2059 -4.5500 -2.4725 0.9711
-5.0413 -4.7369 -2.4738 0.9710
-4.6924 -5.0930 -2.4765 0.9710
-3.9218 -5.7272 -2.4823 0.9709
-3.6513 -5.7672 -2.4410 0.9714
-3.3715 -5.7753 -2.3915 0.9720
-3.1021 -5.7827 -2.3467 0.9725
-2.6686 -5.9699 -2.3385 0.9726
-2.2350 -6.1545 -2.3415 0.9726
-1.5615 -6.3725 -2.3463 0.9725
-1.3319 -6.4289 -2.3478 0.9725
-1.1216 -6.6024 -2.3949 0.9720
-0.4220 -6.9975 -2.5069 0.9707
0.0828 -7.0192 -2.5103 0.9706
0.5885 -7.0043 -2.5136 0.9706
0.8408 -6.9832 -2.5153 0.9706
1.3429 -6.9136 -2.5186 0.9705
-5.5320 -3.3026 -2.4690 0.9728
-5.4118 -3.5011 -2.4700 0.9728
-5.2844 -3.6952 -2.4711 0.9728
-5.1503 -3.8848 -2.4722 0.9727
-5.0093 -4.0696 -2.4733 0.9727
-4.8618 -4.2493 -2.4745 0.9727
-3.4688 -5.4789 -2.4850 0.9726
-3.2712 -5.6035 -2.4865 0.9726
-3.0691 -5.7210 -2.4879 0.9726
-2.8294 -5.7634 -2.4605 0.9729
-2.5830 -5.7784 -2.4256 0.9733
-2.3540 -5.8199 -2.4058 0.9735
-2.1368 -5.8840 -2.3989 0.9735
-0.8615 -6.4756 -2.5034 0.9724
-0.6282 -6.5065 -2.5050 0.9724
-0.1585 -6.5431 -2.5082 0.9724
0.0772 -6.5487 -2.5097 0.9723
0.3131 -6.5457 -2.5113 0.9723
0.5490 -6.5343 -2.5129 0.9723
1.0190 -6.4858 -2.5160 0.9723
1.2526 -6.4488 -2.5175 0.9723
-5.2904 -2.9052 -2.4702 0.9743
-5.1842 -3.0949 -2.4711 0.9742
-4.8260 -3.6403 -2.4741 0.9742
-4.4112 -4.1449 -2.4774 0.9742
-4.2612 -4.3031 -2.4785 0.9742
-3.7779 -4.7445 -2.4822 0.9741
-3.4303 -5.0093 -2.4848 0.9741
-2.6815 -5.4618 -2.4903 0.9740
-2.4845 -5.5580 -2.4917 0.9740
-2.0805 -5.7289 -2.4945 0.9740
-1.8739 -5.8035 -2.4960 0.9740
-0.8067 -6.0631 -2.5034 0.9739
-0.5882 -6.0919 -2.5048 0.9739
-0.1484 -6.1256 -2.5078 0.9739
0.0723 -6.1306 -2.5093 0.9738
0.2931 -6.1276 -2.5107 0.9738
0.5139 -6.1166 -2.5122 0.9738
0.7342 -6.0977 -2.5137 0.9738
0.9538 -6.0707 -2.5151 0.9738
-4.4109 -3.5834 -2.4768 0.9755
-3.8575 -4.1868 -2.4811 0.9755
-3.0527 -4.8217 -2.4871 0.9754
-2.7006 -5.0340 -2.4897 0.9754
-2.5189 -5.1307 -2.4910 0.9754
-2.3338 -5.2208 -2.4923 0.9754
-2.1455 -5.3043 -2.4937 0.9753
-1.7601 -5.4509 -2.4964 0.9753
-1.5635 -5.5138 -2.4977 0.9753
-0.9615 -5.6596 -2.5019 0.9753
-0.7575 -5.6938 -2.5033 0.9752
-0.1393 -5.7518 -2.5075 0.9752
0.0679 -5.7563 -2.5089 0.9752
0.4825 -5.7428 -2.5116 0.9752
0.6893 -5.7248 -2.5130 0.9752
0.8954 -5.6993 -2.5143 0.9751
1.1007 -5.6663 -2.5156 0.9751
-4.6846 -2.5726 -2.4739 0.9767
-4.4903 -2.9050 -2.4755 0.9767
-4.1555 -3.3759 -2.4783 0.9767
-4.0328 -3.5247 -2.4792 0.9767
-3.9048 -3.6691 -2.4802 0.9767
-3.7718 -3.8089 -2.4813 0.9766
-3.4909 -4.0740 -2.4834 0.9766
-3.3435 -4.1989 -2.4845 0.9766
-2.8752 -4.5413 -2.4880 0.9766
-2.7112 -4.6441 -2.4892 0.9766
-2.5434 -4.7411 -2.4904 0.9766
-2.3722 -4.8320 -2.4917 0.9766
-1.4723 -5.1919 -2.4980 0.9765
-1.0960 -5.2899 -2.5006 0.9765
-0.9053 -5.3287 -2.5019 0.9765
-0.5200 -5.3857 -2.5046 0.9764
-0.1312 -5.4148 -2.5072 0.9764
0.2591 -5.4158 -2.5098 0.9764
0.4541 -5.4058 -2.5111 0.9764
0.6488 -5.3887 -2.5123 0.9764
1.0359 -5.3333 -2.5149 0.9763
-4.4235 -2.4292 -2.4755 0.9778
-4.3345 -2.5877 -2.4763 0.9778
-4.2399 -2.7429 -2.4770 0.9778
-4.1398 -2.8948 -2.4779 0.9777
-3.9235 -3.1874 -2.4796 0.9777
-3.8075 -3.3279 -2.4805 0.9777
-3.0129 -4.0768 -2.4866 0.9777
-2.5592 -4.3838 -2.4899 0.9776
-2.4007 -4.4751 -2.4911 0.9776
-2.2391 -4.5608 -2.4923 0.9776
-1.9069 -4.7146 -2.4946 0.9776
-1.7368 -4.7825 -2.4958 0.9776
-1.5642 -4.8443 -2.4970 0.9776
-1.3894 -4.8999 -2.4983 0.9776
-1.2127 -4.9491 -2.4995 0.9776
-1.0343 -4.9921 -2.5007 0.9775
-0.8543 -5.0285 -2.5020 0.9775
-0.4906 -5.0820 -2.5044 0.9775
0.2445 -5.1098 -2.5094 0.9775
0.7952 -5.0610 -2.5130 0.9774
0.9773 -5.0314 -2.5142 0.9774
-4.1850 -2.2982 -2.4769 0.9787
-4.0112 -2.5950 -2.4784 0.9787
-3.9164 -2.7386 -2.4792 0.9787
-3.8165 -2.8787 -2.4800 0.9787
-3.7116 -3.0153 -2.4808 0.9787
-3.3685 -3.4016 -2.4835 0.9787
-3.2451 -3.5221 -2.4845 0.9787
-3.1173 -3.6380 -2.4855 0.9786
-2.8498 -3.8561 -2.4875 0.9786
-2.7102 -3.9578 -2.4885 0.9786
-2.5670 -4.0545 -2.4895 0.9786
-2.2705 -4.2324 -2.4917 0.9786
-2.1176 -4.3133 -2.4928 0.9786
-1.9618 -4.3888 -2.4939 0.9786
-1.8033 -4.4586 -2.4951 0.9786
-0.8078 -4.7547 -2.5020 0.9785
-0.2908 -4.8208 -2.5055 0.9785
-0.1170 -4.8304 -2.5067 0.9785
0.0570 -4.8338 -2.5078 0.9785
0.2311 -4.8308 -2.5090 0.9784
0.4051 -4.8215 -2.5101 0.9784
0.5787 -4.8060 -2.5113 0.9784
0.7517 -4.7842 -2.5124 0.9784
0.9239 -4.7562 -2.5135 0.9784
-3.9662 -2.1780 -2.4783 0.9796
-3.8012 -2.4592 -2.4797 0.9796
-3.6166 -2.7280 -2.4812 0.9796
-3.4132 -2.9832 -2.4828 0.9795
-3.3046 -3.1052 -2.4836 0.9795
-3.0748 -3.3373 -2.4854 0.9795
-2.8288 -3.5526 -2.4873 0.9795
-2.7001 -3.6536 -2.4882 0.9795
-2.2932 -3.9281 -2.4912 0.9795
-2.0062 -4.0864 -2.4933 0.9795
-1.8586 -4.1577 -2.4944 0.9794
-1.7084 -4.2238 -2.4954 0.9794
-1.5559 -4.2844 -2.4965 0.9794
-1.4012 -4.3395 -2.4976 0.9794
-1.2446 -4.3891 -2.4987 0.9794
-0.9263 -4.4712 -2.5009 0.9794
-0.6027 -4.5303 -2.5031 0.9794
0.2189 -4.5750 -2.5086 0.9793
0.5480 -4.5514 -2.5108 0.9793
-3.6078 -2.3340 -2.4808 0.9803
-3.4324 -2.5891 -2.4823 0.9803
-3.3380 -2.7118 -2.4830 0.9803
-2.8030 -3.2712 -2.4872 0.9803
-2.6844 -3.3712 -2.4881 0.9803
-2.5622 -3.4670 -2.4890 0.9803
-2.4366 -3.5583 -2.4899 0.9803
-2.1759 -3.7273 -2.4918 0.9803
-2.0411 -3.8047 -2.4928 0.9803
-1.7634 -3.9449 -2.4948 0.9802
-1.6209 -4.0074 -2.4958 0.9802
-1.3294 -4.1171 -2.4979 0.9802
-1.0305 -4.2056 -2.4999 0.9802
-0.5718 -4.2976 -2.5031 0.9802
-0.4168 -4.3172 -2.5041 0.9802
-0.2612 -4.3312 -2.5052 0.9802
0.2076 -4.3396 -2.5083 0.9801
0.5198 -4.3169 -2.5104 0.9801
0.6752 -4.2971 -2.5114 0.9801
0.8297 -4.2717 -2.5124 0.9801
