ply
format ascii 1.0
element vertex 563
property float32 x
property float32 y
property float32 z
property float32 I
end_header
-42.5697 10.2093 7.7190 0.8371
-42.7854 8.6400 7.6965 0.8375
-38.5367 -7.7347 6.9306 0.8524
-30.8614 -7.3628 5.5944 0.8791
-22.4500 -7.1033 4.1520 0.9088
-20.8673 -9.1890 4.0204 0.9115
-29.4435 -21.5368 6.4323 0.8623
-27.3107 -21.5328 6.1324 0.8683
-20.3656 -21.4848 5.2199 0.8867
-5.9843 -7.3038 1.6649 0.9624
-4.8636 -8.0782 1.6626 0.9624
-38.4509 -7.7174 6.0079 0.8533
-38.3957 -9.1603 6.0471 0.8524
-21.1273 -8.4062 3.4834 0.9121
-20.8356 -9.1751 3.4877 0.9120
-37.3655 -21.5515 6.6081 0.8398
-34.4185 -21.5445 6.2205 0.8485
-31.7826 -21.5301 5.8809 0.8561
-27.3080 -21.5307 5.3273 0.8687
-25.3369 -21.5049 5.0911 0.8742
-23.5475 -21.4963 4.8844 0.8790
-18.9372 -21.4812 4.3870 0.8906
-5.9543 -7.2673 1.4393 0.9627
-4.8248 -7.3956 1.3528 0.9649
-4.8333 -8.0279 1.4355 0.9628
-43.3366 10.3932 5.8034 0.8355
-47.1711 9.5256 6.2666 0.8236
-39.6904 -6.4849 5.2371 0.8503
-38.9925 -7.8262 5.1789 0.8518
-21.9085 -6.9320 2.9923 0.9115
-21.3107 -8.4792 2.9867 0.9116
-20.5586 -9.0531 2.9252 0.9134
-37.3631 -21.5501 5.6167 0.8403
-23.5473 -21.4962 4.1519 0.8793
-18.9373 -21.4813 3.7291 0.8909
-5.9248 -7.2313 1.2174 0.9630
-4.7567 -7.2912 1.1337 0.9655
-4.4224 -7.9845 1.1886 0.9639
-38.9414 -6.3625 4.2370 0.8532
-21.6792 -6.8595 2.4417 0.9126
-21.8040 -8.6755 2.5199 0.9099
-20.4525 -9.0063 2.3997 0.9140
-37.3607 -21.5487 4.6313 0.8407
-34.4119 -21.5404 4.3594 0.8493
-27.3027 -21.5265 3.7334 0.8695
-23.5472 -21.4961 3.4237 0.8796
-21.8988 -21.4916 3.2948 0.8839
-20.3658 -21.4851 3.1789 0.8877
-18.9373 -21.4814 3.0751 0.8912
-5.8958 -7.1959 0.9990 0.9633
-5.7175 -7.5164 1.0141 0.9627
-5.4310 -7.7019 1.0120 0.9628
-4.6909 -7.1903 0.9219 0.9661
-37.8971 -9.0413 3.2981 0.8552
-21.6829 -6.8606 1.9252 0.9127
-20.3480 -8.9603 1.8821 0.9146
-44.5571 -21.5744 4.1908 0.8198
-40.6818 -21.5450 3.8970 0.8313
-37.3583 -21.5473 3.6508 0.8410
-23.5471 -21.4960 2.6990 0.8799
-21.8986 -21.4915 2.5974 0.8841
-5.3672 -7.6114 0.7884 0.9633
-4.7575 -7.2924 0.7371 0.9657
-4.3438 -7.8425 0.7589 0.9647
-39.3343 -6.4267 2.4715 0.8524
-37.5982 -8.9700 2.3969 0.8565
-21.5140 -6.8072 1.3993 0.9135
-21.1156 -7.5303 1.3902 0.9141
-44.5513 -21.5716 3.0694 0.8201
-40.6823 -21.5453 2.8547 0.8315
-37.3560 -21.5459 2.6741 0.8413
-27.2975 -21.5224 2.1555 0.8700
-23.5470 -21.4959 1.9771 0.8800
-21.8985 -21.4914 1.9026 0.8843
-20.3660 -21.4852 1.8357 0.8881
-17.5953 -21.4752 1.7216 0.8947
-5.0121 -7.6827 0.5688 0.9639
-4.3069 -7.7760 0.5512 0.9650
-38.9757 -7.8228 1.5675 0.8529
-21.6595 -7.7243 0.9067 0.9121
-40.6829 -21.5456 1.8153 0.8317
-37.3536 -21.5446 1.7003 0.8415
-31.7759 -21.5256 1.5134 0.8576
-27.2948 -21.5203 1.3705 0.8701
-23.5469 -21.4958 1.2572 0.8802
-17.5954 -21.4753 1.0947 0.8948
-5.5227 -7.2603 0.3597 0.9641
-4.6357 -7.6998 0.3544 0.9647
-4.4870 -8.1012 0.3652 0.9636
-38.8062 -7.7887 0.6686 0.8536
-21.6317 -7.7143 0.3879 0.9122
-20.8234 -8.2853 0.3786 0.9142
-37.3512 -21.5432 0.7284 0.8416
-34.3989 -21.5323 0.6855 0.8501
-29.4227 -21.5215 0.6158 0.8643
-27.2923 -21.5182 0.5871 0.8702
-25.3339 -21.5024 0.5613 0.8755
-23.5467 -21.4956 0.5386 0.8802
-18.9376 -21.4817 0.4837 0.8918
-16.3314 -21.4696 0.4557 0.8977
-5.0083 -7.6769 0.1548 0.9640
-4.7937 -7.9623 0.1570 0.9635
-4.2774 -7.7228 0.1491 0.9653
-27.3211 6.5523 -0.1582 0.8937
-32.4113 6.5451 -0.1862 0.8761
-39.7651 6.5453 -0.2269 0.8511
-21.8083 -7.7773 -0.1304 0.9115
-21.6540 -8.6158 -0.1312 0.9110
-37.3489 -21.5419 -0.2427 0.8416
-34.3957 -21.5302 -0.2285 0.8502
-29.4197 -21.5194 -0.2052 0.8643
-17.5956 -21.4756 -0.1563 0.8949
-5.1814 -7.3480 -0.0506 0.9647
-4.9742 -7.6245 -0.0513 0.9642
-4.7613 -7.9084 -0.0520 0.9637
-38.8238 -7.7923 -1.1150 0.8535
-44.5279 -21.5603 -1.3931 0.8204
-40.6846 -21.5465 -1.2963 0.8317
-37.3465 -21.5405 -1.2140 0.8415
-34.3924 -21.5282 -1.1425 0.8501
-31.7720 -21.5229 -1.0806 0.8576
-29.4167 -21.5172 -1.0263 0.8643
-25.3330 -21.5015 -0.9356 0.8755
-23.5465 -21.4954 -0.8977 0.8802
-21.8981 -21.4910 -0.8639 0.8845
-17.5957 -21.4757 -0.7818 0.8949
-16.3316 -21.4699 -0.7596 0.8977
-15.1357 -21.4644 -0.7396 0.9002
-4.9110 -7.5277 -0.2531 0.9647
-11.8886 -21.4644 -0.6909 0.9065
-40.5741 5.1814 -2.0744 0.8489
-43.3909 3.9549 -2.2097 0.8399
-43.6473 -0.7626 -2.2139 0.8396
-43.6323 -2.3406 -2.2160 0.8395
-43.5667 -3.9190 -2.2184 0.8393
-43.4505 -5.4966 -2.2211 0.8391
-42.1085 -13.3234 -2.2399 0.8379
-21.7968 -7.7732 -1.1736 0.9115
-41.2161 -16.3993 -2.2496 0.8372
-40.6940 -17.9198 -2.2550 0.8369
-40.1213 -19.4266 -2.2607 0.8365
-37.3937 -19.8036 -2.1459 0.8441
-31.7706 -21.5220 -1.9461 0.8575
-27.2844 -21.5121 -1.7621 0.8701
-23.5464 -21.4953 -1.6169 0.8801
-18.9378 -21.4819 -1.4523 0.8916
-16.3317 -21.4700 -1.3681 0.8976
-15.1358 -21.4646 -1.3320 0.9002
-4.8494 -7.4332 -0.4501 0.9651
-12.9227 -21.4642 -1.2706 0.9045
-11.8877 -21.4628 -1.2443 0.9064
-28.9591 4.7667 -2.1519 0.8890
-31.1347 2.8378 -2.2923 0.8822
-31.2278 1.7121 -2.2931 0.8821
-31.2835 0.5836 -2.2942 0.8821
-31.2827 -1.6781 -2.2970 0.8819
-31.2261 -2.8089 -2.2988 0.8818
-28.7590 -6.8612 -2.1679 0.8882
-28.2653 -8.9433 -2.1737 0.8879
-21.7549 -7.7583 -1.6935 0.9115
-28.6020 -13.8490 -2.3301 0.8803
-27.0970 -16.9616 -2.3440 0.8797
-17.5959 -21.4760 -2.0357 0.8946
-16.3318 -21.4702 -1.9779 0.8975
-14.0046 -21.4666 -1.8793 0.9023
-12.9221 -21.4632 -1.8369 0.9044
-11.8868 -21.4612 -1.7988 0.9063
-22.2407 5.3339 -2.1958 0.9122
-23.0416 4.6530 -2.2568 0.9099
-24.0299 3.9553 -2.3380 0.9068
-24.3640 -1.3069 -2.3424 0.9066
-24.3157 -2.1873 -2.3439 0.9066
-22.1890 -6.1486 -2.2105 0.9116
-21.9764 -6.9535 -2.2129 0.9115
-22.5479 -9.9290 -2.3653 0.9057
-21.8347 -11.5637 -2.3721 0.9055
-21.4358 -12.3637 -2.3757 0.9053
-21.0090 -13.1508 -2.3795 0.9052
-20.5548 -13.9242 -2.3835 0.9051
-19.5652 -15.4260 -2.3920 0.9047
-19.0307 -16.1525 -2.3964 0.9046
-18.4704 -16.8616 -2.4010 0.9044
-17.8848 -17.5523 -2.4058 0.9042
-17.2743 -18.2237 -2.4107 0.9040
-15.9811 -19.5051 -2.4209 0.9036
-15.0141 -19.7379 -2.3809 0.9052
-12.3242 -20.4700 -2.2939 0.9085
-19.3702 4.6454 -2.3662 0.9229
-19.6691 3.2375 -2.3679 0.9228
-19.8561 1.8098 -2.3684 0.9228
-19.9357 -1.0694 -2.3715 0.9227
-19.7366 -3.2247 -2.3755 0.9226
-19.6210 -3.9381 -2.3772 0.9226
-19.4808 -4.6477 -2.3790 0.9225
-18.3668 -5.8114 -2.2883 0.9253
-17.7626 -6.3345 -2.2401 0.9268
-17.5401 -6.9790 -2.2424 0.9268
-17.2953 -7.6161 -2.2448 0.9267
-16.7396 -8.8653 -2.2501 0.9265
-17.4946 -10.0904 -2.3990 0.9219
-16.3675 -11.9722 -2.4088 0.9216
-15.9479 -12.5739 -2.4124 0.9215
-15.5069 -13.1616 -2.4160 0.9213
-14.5626 -14.2918 -2.4237 0.9211
-13.5383 -15.3570 -2.4318 0.9208
-12.9974 -15.8634 -2.4361 0.9207
-12.4380 -16.3514 -2.4404 0.9206
-11.2664 -17.2694 -2.4493 0.9203
-10.0283 -18.1058 -2.4586 0.9200
-16.3938 3.9316 -2.3887 0.9342
-16.5243 3.3369 -2.3886 0.9342
-16.7917 1.5305 -2.3891 0.9341
-16.8392 0.9232 -2.3895 0.9341
-16.8191 -1.5129 -2.3927 0.9341
-16.6829 -2.7258 -2.3951 0.9340
-16.5834 -3.3284 -2.3966 0.9340
-16.4630 -3.9277 -2.3981 0.9339
-16.3219 -4.5228 -2.3998 0.9339
-15.9779 -5.6980 -2.4035 0.9338
-13.5831 -8.5025 -2.2705 0.9373
-13.2825 -8.9978 -2.2732 0.9372
-13.4481 -10.6030 -2.4265 0.9332
-12.6806 -11.5761 -2.4328 0.9330
-11.4018 -12.9335 -2.4430 0.9327
-10.4694 -13.7634 -2.4502 0.9325
-14.1902 3.4032 -2.4040 0.9426
-14.4754 1.8485 -2.4040 0.9426
-14.5343 1.3247 -2.4043 0.9426
-14.5751 0.7991 -2.4047 0.9425
-14.6017 -0.2551 -2.4058 0.9425
-14.4353 -2.3585 -2.4096 0.9424
-14.3479 -2.8798 -2.4108 0.9424
-14.2426 -3.3979 -2.4122 0.9424
-14.1191 -3.9124 -2.4136 0.9423
-13.6418 -5.4279 -2.4187 0.9422
-12.4297 -6.0184 -2.2751 0.9456
-12.2149 -6.4690 -2.2771 0.9455
-10.6023 -8.9988 -2.2909 0.9452
-10.9490 -9.9953 -2.4423 0.9417
-10.5932 -10.3963 -2.4451 0.9416
-10.2232 -10.7850 -2.4481 0.9415
-9.8391 -11.1610 -2.4511 0.9415
-9.0308 -11.8722 -2.4574 0.9413
-8.1720 -12.5262 -2.4639 0.9412
-4.6849 -7.7815 -1.4963 0.9638
-12.5974 2.5439 -2.4156 0.9490
-12.6811 2.0873 -2.4156 0.9490
-12.7489 1.6281 -2.4158 0.9490
-12.8006 1.1667 -2.4160 0.9490
-12.8362 0.7038 -2.4163 0.9490
-12.8557 0.2398 -2.4168 0.9490
-12.8460 -0.6891 -2.4180 0.9490
-12.7100 -2.0766 -2.4207 0.9489
-12.4292 -3.4442 -2.4242 0.9489
-12.0060 -4.7770 -2.4287 0.9488
-10.9453 -5.7965 -2.3280 0.9508
-10.0938 -6.8378 -2.2916 0.9516
-9.8493 -7.2044 -2.2937 0.9515
-9.3213 -7.9116 -2.2981 0.9515
-8.7437 -8.5812 -2.3027 0.9514
-8.1189 -9.2096 -2.3077 0.9513
-7.1760 -10.9996 -2.4686 0.9480
-6.3786 -11.5165 -2.4745 0.9478
-11.2448 2.2708 -2.4249 0.9542
-11.3801 1.4533 -2.4251 0.9542
-11.4261 1.0414 -2.4253 0.9542
-11.4577 0.6282 -2.4256 0.9542
-11.4656 -0.6151 -2.4271 0.9541
-11.4392 -1.0290 -2.4278 0.9541
-11.3982 -1.4419 -2.4286 0.9541
-11.3429 -1.8533 -2.4295 0.9541
-11.2731 -2.2626 -2.4304 0.9541
-11.0905 -3.0732 -2.4327 0.9540
-10.9779 -3.4735 -2.4339 0.9540
-10.8510 -3.8699 -2.4352 0.9540
-10.7107 -4.2616 -2.4367 0.9540
-10.5563 -4.6485 -2.4382 0.9539
-10.2070 -5.4056 -2.4414 0.9539
-10.0123 -5.7748 -2.4432 0.9538
-9.0003 -6.0970 -2.2979 0.9565
-8.5508 -6.7418 -2.3017 0.9565
-8.3090 -7.0523 -2.3037 0.9564
-8.0560 -7.3543 -2.3057 0.9564
-7.7923 -7.6475 -2.3079 0.9563
-7.2338 -8.2056 -2.3123 0.9563
-6.9396 -8.4698 -2.3146 0.9562
-6.3230 -8.9669 -2.3193 0.9561
-6.0013 -9.1990 -2.3217 0.9561
-4.6711 -7.7586 -1.9143 0.9637
-10.2127 1.6810 -2.4325 0.9584
-10.2671 1.3111 -2.4326 0.9584
-10.3086 0.9396 -2.4328 0.9584
-10.3435 -0.5549 -2.4344 0.9583
-10.3194 -0.9283 -2.4351 0.9583
-10.2821 -1.3007 -2.4358 0.9583
-10.1684 -2.0409 -2.4375 0.9583
-10.0921 -2.4077 -2.4384 0.9583
-10.0028 -2.7718 -2.4395 0.9582
-9.9008 -3.1327 -2.4406 0.9582
-9.6587 -3.8431 -2.4431 0.9582
-9.3669 -4.5354 -2.4459 0.9581
-9.2027 -4.8737 -2.4474 0.9581
-9.0265 -5.2063 -2.4490 0.9581
-7.9248 -5.7966 -2.3076 0.9605
-7.7065 -6.0761 -2.3065 0.9605
-7.4879 -6.3554 -2.3083 0.9604
-6.2509 -7.6293 -2.3181 0.9603
-5.9768 -7.8572 -2.3202 0.9602
-5.4041 -8.2836 -2.3245 0.9602
-4.8013 -8.6687 -2.3290 0.9601
-9.1596 2.1967 -2.4388 0.9618
-9.2327 1.8644 -2.4388 0.9618
-9.2941 1.5298 -2.4388 0.9618
-9.3436 1.1932 -2.4389 0.9618
-9.4226 -0.1646 -2.4401 0.9618
-9.3903 -0.8447 -2.4411 0.9618
-9.3562 -1.1836 -2.4418 0.9618
-9.3101 -1.5211 -2.4425 0.9618
-9.2521 -1.8570 -2.4433 0.9618
-9.1823 -2.1907 -2.4442 0.9617
-9.0076 -2.8501 -2.4462 0.9617
-8.9028 -3.1749 -2.4473 0.9617
-8.7866 -3.4960 -2.4485 0.9617
-8.6589 -3.8130 -2.4497 0.9617
-8.5202 -4.1254 -2.4510 0.9616
-7.3280 -5.7777 -2.4162 0.9622
-6.8260 -5.7936 -2.3182 0.9637
-6.5997 -6.0249 -2.3137 0.9638
-5.9231 -6.7188 -2.3191 0.9637
-5.4315 -7.1405 -2.3229 0.9636
-4.9103 -7.5266 -2.3268 0.9635
-4.3618 -7.8752 -2.3309 0.9635
-8.3956 2.0135 -2.4441 0.9647
-8.4627 1.7089 -2.4441 0.9647
-8.5189 1.4022 -2.4441 0.9647
-8.5987 0.7837 -2.4443 0.9647
-8.6348 0.1611 -2.4449 0.9647
-8.6268 -0.4628 -2.4457 0.9647
-8.5749 -1.0847 -2.4468 0.9647
-8.3399 -2.3110 -2.4499 0.9647
-8.2542 -2.6117 -2.4509 0.9646
-8.1579 -2.9093 -2.4519 0.9646
-8.0510 -3.2034 -2.4530 0.9646
-7.8063 -3.7798 -2.4553 0.9646
-7.6686 -4.0613 -2.4566 0.9646
-7.5210 -4.3379 -2.4579 0.9645
-7.3635 -4.6093 -2.4593 0.9645
-6.8344 -5.3885 -2.4638 0.9645
-6.6396 -5.6354 -2.4654 0.9644
-6.3262 -5.7752 -2.4249 0.9650
-5.4233 -6.1519 -2.3217 0.9665
-5.2015 -6.3485 -2.3234 0.9665
-4.4947 -6.8897 -2.3288 0.9664
-4.2464 -7.0531 -2.3306 0.9664
-7.7416 1.8566 -2.4487 0.9672
-7.8034 1.5758 -2.4486 0.9672
-7.9288 0.7227 -2.4489 0.9672
-7.9620 0.1485 -2.4494 0.9672
-7.9354 -0.7138 -2.4506 0.9672
-7.6888 -2.1306 -2.4540 0.9672
-7.1956 -3.4841 -2.4590 0.9671
-7.0684 -3.7434 -2.4602 0.9671
-6.9321 -3.9982 -2.4614 0.9671
-6.7867 -4.2482 -2.4627 0.9670
-6.6324 -4.4929 -2.4640 0.9670
-6.4695 -4.7322 -2.4654 0.9670
-6.2980 -4.9656 -2.4668 0.9670
-6.1182 -5.1929 -2.4683 0.9670
-4.5806 -6.0218 -2.3271 0.9688
-4.3632 -6.1876 -2.3288 0.9688
-4.1399 -6.3457 -2.3304 0.9688
-3.9109 -6.4959 -2.3322 0.9688
-7.1749 1.7207 -2.4526 0.9694
-7.3684 0.4040 -2.4530 0.9694
-7.3801 -0.1289 -2.4536 0.9694
-7.3718 -0.3954 -2.4540 0.9694
-7.3541 -0.6615 -2.4544 0.9694
-7.2904 -1.1911 -2.4555 0.9693
-7.2444 -1.4540 -2.4561 0.9693
-7.1248 -1.9743 -2.4576 0.9693
-7.0512 -2.2310 -2.4584 0.9693
-6.7762 -2.9839 -2.4612 0.9693
-6.6668 -3.2280 -2.4622 0.9693
-5.4928 -5.0143 -2.4722 0.9691
-4.9271 -5.5891 -2.4767 0.9691
-4.7231 -5.7646 -2.4772 0.9691
-4.3930 -5.7752 -2.4120 0.9699
-3.4036 -6.1452 -2.3351 0.9708
-6.6786 1.6017 -2.4560 0.9712
-6.7767 1.1154 -2.4560 0.9712
-6.8127 0.8700 -2.4561 0.9712
-6.8587 0.3760 -2.4564 0.9712
-6.8616 -0.3681 -2.4573 0.9712
-6.8196 -0.8627 -2.4582 0.9712
-6.7427 -1.3533 -2.4593 0.9712
-6.6912 -1.5964 -2.4600 0.9712
-6.5624 -2.0764 -2.4614 0.9712
-6.4853 -2.3128 -2.4622 0.9712
-6.3997 -2.5464 -2.4631 0.9712
-6.3059 -2.7768 -2.4640 0.9712
-6.2040 -3.0039 -2.4650 0.9711
-5.9759 -3.4468 -2.4670 0.9711
-5.5759 -4.0786 -2.4705 0.9711
-4.9409 -4.8491 -2.4757 0.9710
-4.3951 -5.3642 -2.4799 0.9710
-4.2010 -5.5227 -2.4814 0.9710
-4.0012 -5.6743 -2.4829 0.9709
-3.2025 -5.7820 -2.3637 0.9723
-6.2400 1.4965 -2.4591 0.9729
-6.2898 1.2702 -2.4590 0.9729
-6.3653 0.8129 -2.4591 0.9729
-6.4081 0.3513 -2.4594 0.9729
-6.4172 0.1197 -2.4596 0.9729
-6.4181 -0.1121 -2.4599 0.9729
-6.3952 -0.5753 -2.4607 0.9729
-6.3394 -1.0358 -2.4616 0.9729
-6.2511 -1.4914 -2.4628 0.9728
-6.1305 -1.9397 -2.4641 0.9728
-6.0583 -2.1605 -2.4649 0.9728
-5.9783 -2.3787 -2.4657 0.9728
-5.7951 -2.8060 -2.4674 0.9728
-5.6922 -3.0146 -2.4684 0.9728
-4.9238 -4.1792 -2.4749 0.9727
-4.6140 -4.5282 -2.4774 0.9727
-4.2796 -4.8546 -2.4801 0.9727
-4.1038 -5.0087 -2.4814 0.9726
-3.7358 -5.2978 -2.4842 0.9726
-3.5441 -5.4324 -2.4857 0.9726
-3.1464 -5.6808 -2.4886 0.9726
-5.8959 1.1906 -2.4617 0.9743
-5.9351 0.9769 -2.4618 0.9743
-5.9666 0.7620 -2.4618 0.9743
-6.0152 0.1122 -2.4623 0.9743
-6.0090 -0.3223 -2.4629 0.9743
-5.9944 -0.5392 -2.4633 0.9743
-5.9720 -0.7555 -2.4637 0.9743
-5.9420 -0.9708 -2.4642 0.9743
-5.9043 -1.1850 -2.4647 0.9743
-5.8062 -1.6089 -2.4659 0.9743
-5.6029 -2.2293 -2.4680 0.9743
-5.5205 -2.4310 -2.4688 0.9743
-5.3344 -2.8251 -2.4705 0.9742
-5.2308 -3.0170 -2.4714 0.9742
-4.6136 -3.9158 -2.4767 0.9742
-4.4712 -4.0818 -2.4778 0.9742
-4.1689 -4.3981 -2.4802 0.9741
-3.8446 -4.6923 -2.4827 0.9741
-3.6745 -4.8306 -2.4840 0.9741
-3.4995 -4.9628 -2.4854 0.9741
-3.3198 -5.0887 -2.4867 0.9741
-5.5423 1.1192 -2.4642 0.9756
-5.6312 0.5133 -2.4644 0.9756
-5.6464 0.3096 -2.4645 0.9756
-5.6544 0.1055 -2.4647 0.9756
-5.6346 -0.5069 -2.4656 0.9756
-5.5498 -1.1139 -2.4669 0.9756
-5.3368 -1.9032 -2.4693 0.9756
-5.1043 -2.4715 -2.4716 0.9756
-5.0134 -2.6551 -2.4724 0.9756
-4.7020 -3.1853 -2.4752 0.9755
-4.0620 -3.9865 -2.4804 0.9755
-3.7672 -4.2733 -2.4827 0.9754
-3.4523 -4.5385 -2.4851 0.9754
-3.2878 -4.6625 -2.4864 0.9754
-3.1188 -4.7806 -2.4877 0.9754
-2.9457 -4.8927 -2.4889 0.9754
-2.7685 -4.9985 -2.4903 0.9754
-5.1814 1.2426 -2.4664 0.9768
-5.2229 1.0547 -2.4664 0.9768
-5.2575 0.8654 -2.4664 0.9768
-5.2855 0.6750 -2.4664 0.9768
-5.3066 0.4837 -2.4665 0.9768
-5.3291 -0.0931 -2.4671 0.9768
-5.2898 -0.6692 -2.4681 0.9768
-5.2296 -1.0496 -2.4690 0.9768
-5.1893 -1.2380 -2.4695 0.9768
-5.0888 -1.6101 -2.4706 0.9767
-4.9619 -1.9743 -2.4719 0.9767
-4.8093 -2.3286 -2.4734 0.9767
-4.6317 -2.6714 -2.4750 0.9767
-4.5338 -2.8379 -2.4758 0.9767
-4.2049 -3.3153 -2.4786 0.9767
-3.9579 -3.6131 -2.4806 0.9767
-3.6899 -3.8927 -2.4828 0.9766
-3.5485 -4.0252 -2.4839 0.9766
-3.0967 -4.3915 -2.4873 0.9766
-2.7743 -4.6080 -2.4897 0.9766
-2.6073 -4.7075 -2.4910 0.9766
-4.8934 1.1736 -2.4684 0.9778
-4.9325 0.9961 -2.4684 0.9778
-4.9653 0.8173 -2.4684 0.9778
-5.0116 0.4568 -2.4685 0.9778
-5.0252 0.2755 -2.4687 0.9778
-5.0328 -0.0879 -2.4691 0.9778
-5.0269 -0.2697 -2.4693 0.9778
-5.0145 -0.4511 -2.4697 0.9778
-4.9956 -0.6320 -2.4700 0.9778
-4.9703 -0.8121 -2.4704 0.9778
-4.8055 -1.5205 -2.4724 0.9778
-4.5412 -2.1989 -2.4750 0.9778
-4.4602 -2.3621 -2.4757 0.9778
-4.2808 -2.6796 -2.4773 0.9778
-4.0791 -2.9837 -2.4790 0.9777
-3.7367 -3.4112 -2.4818 0.9777
-3.4835 -3.6750 -2.4839 0.9777
-3.2119 -3.9202 -2.4860 0.9777
-3.0696 -4.0354 -2.4870 0.9777
-2.4611 -4.4434 -2.4916 0.9776
-4.6673 0.9425 -2.4702 0.9788
-4.7233 0.6032 -2.4703 0.9788
-4.7422 0.4322 -2.4703 0.9788
-4.7616 0.0888 -2.4707 0.9788
-4.7447 -0.4268 -2.4714 0.9788
-4.7269 -0.5980 -2.4717 0.9788
-4.6728 -0.9379 -2.4725 0.9788
-4.5947 -1.2732 -2.4735 0.9787
-4.4928 -1.6022 -2.4746 0.9787
-4.4331 -1.7639 -2.4752 0.9787
-4.3676 -1.9233 -2.4758 0.9787
-4.0499 -2.5351 -2.4787 0.9787
-3.7557 -2.9612 -2.4812 0.9787
-3.5347 -3.2269 -2.4829 0.9787
-3.4172 -3.3537 -2.4839 0.9787
-3.2951 -3.4762 -2.4849 0.9786
-3.1687 -3.5944 -2.4858 0.9786
-3.0380 -3.7080 -2.4868 0.9786
-2.6225 -4.0199 -2.4900 0.9786
-2.4767 -4.1138 -2.4911 0.9786
-2.3276 -4.2024 -2.4922 0.9786
-4.3888 1.0525 -2.4719 0.9796
-4.5131 0.0842 -2.4723 0.9796
-4.5136 -0.0789 -2.4725 0.9796
-4.4801 -0.5667 -2.4733 0.9796
-4.4574 -0.7283 -2.4737 0.9796
-4.3092 -1.3634 -2.4755 0.9796
-4.2014 -1.6717 -2.4766 0.9796
-4.0718 -1.9715 -2.4778 0.9796
-3.7498 -2.5402 -2.4807 0.9796
-3.5590 -2.8060 -2.4823 0.9795
-3.4564 -2.9337 -2.4831 0.9795
-3.3494 -3.0577 -2.4840 0.9795
-3.2380 -3.1778 -2.4849 0.9795
-2.3465 -3.8975 -2.4917 0.9795
-2.2051 -3.9813 -2.4927 0.9795
-4.1660 0.9991 -2.4735 0.9804
-4.2272 0.6958 -2.4734 0.9804
-4.2841 0.0799 -2.4738 0.9804
-4.2310 -0.6913 -2.4751 0.9804
-4.2039 -0.8438 -2.4755 0.9804
-3.9287 -1.7300 -2.4785 0.9804
-3.8647 -1.8713 -2.4791 0.9804
-3.7955 -2.0101 -2.4797 0.9804
-3.7215 -2.1464 -2.4804 0.9804
-3.6425 -2.2801 -2.4810 0.9803
-3.5588 -2.4108 -2.4818 0.9803
-3.3776 -2.6630 -2.4833 0.9803
-3.2803 -2.7842 -2.4841 0.9803
-3.0728 -3.0157 -2.4857 0.9803
-2.8491 -3.2319 -2.4875 0.9803
-2.7315 -3.3339 -2.4884 0.9803
-2.4857 -3.5250 -2.4903 0.9803
-2.3576 -3.6139 -2.4912 0.9803
-2.0923 -3.7776 -2.4932 0.9803
