ply
format ascii 1.0
element vertex 330
property float32 x
property float32 y
property float32 z
property float32 I
end_header
-21.9339 -6.6155 4.0396 0.9111
-20.9524 -8.9240 4.0156 0.9116
-33.1236 -21.9634 7.0079 0.8509
-30.0396 -21.5403 6.5178 0.8606
-27.8259 -21.5359 6.2043 0.8668
-25.7847 -21.5086 5.9207 0.8725
-23.9369 -21.4994 5.6732 0.8775
-20.6631 -21.4872 5.2564 0.8860
-19.1979 -21.4833 5.0802 0.8896
-6.0149 -7.2478 1.6607 0.9625
-38.0905 -8.5093 5.9791 0.8539
-21.8671 -6.5953 3.4990 0.9117
-22.0610 -7.5442 3.5718 0.9100
-21.0614 -8.9704 3.5070 0.9115
-30.0366 -21.5380 5.6622 0.8611
-19.1979 -21.4834 4.4137 0.8899
-5.9848 -7.2116 1.4357 0.9628
-39.5227 -7.3233 5.2343 0.8503
-38.7141 -8.6486 5.1656 0.8521
-21.8010 -6.5754 2.9653 0.9122
-21.8496 -7.4719 3.0070 0.9111
-20.8668 -8.8875 2.9535 0.9126
-41.8250 -21.5514 6.1270 0.8271
-38.3221 -21.5551 5.7256 0.8375
-35.2310 -21.5489 5.3779 0.8465
-32.4747 -21.5332 5.0741 0.8546
-27.8204 -21.5317 4.5811 0.8677
-22.2391 -21.4944 4.0276 0.8827
-20.6634 -21.4874 3.8820 0.8867
-19.1980 -21.4835 3.7519 0.8903
-39.5759 -7.3331 4.3221 0.8505
-38.5684 -8.6160 4.2436 0.8530
-38.3198 -21.5537 4.7211 0.8379
-35.2276 -21.5468 4.4343 0.8469
-32.4734 -21.5323 4.1840 0.8549
-23.9367 -21.4991 3.4549 0.8786
-20.6634 -21.4876 3.2011 0.8870
-21.6011 -7.3870 1.9326 0.9124
-41.8263 -21.5521 3.9831 0.8279
-38.3173 -21.5523 3.7216 0.8382
-32.4720 -21.5314 3.2982 0.8552
-30.0275 -21.5315 3.1279 0.8622
-19.1982 -21.4837 2.4390 0.8908
-5.8976 -7.1065 0.7818 0.9636
-37.4901 -6.9466 2.3643 0.8583
-38.6396 -8.6319 2.4551 0.8533
-41.8270 -21.5525 2.9178 0.8281
-35.2209 -21.5427 2.5602 0.8475
-22.2388 -21.4942 1.9179 0.8834
-20.6637 -21.4878 1.8486 0.8874
-17.8242 -21.4777 1.7307 0.8942
-21.6964 -7.4195 0.9042 0.9123
-22.0415 -8.4498 0.9308 0.9098
-20.3323 -8.6599 0.8714 0.9153
-41.8277 -21.5528 1.8554 0.8283
-38.3125 -21.5496 1.7333 0.8386
-35.2176 -21.5407 1.6278 0.8477
-32.4694 -21.5296 1.5362 0.8556
-30.0214 -21.5272 1.4567 0.8625
-20.6638 -21.4879 1.1755 0.8875
-17.8243 -21.4779 1.1005 0.8943
-37.6904 -8.4199 0.6524 0.8568
-21.2622 -8.1510 0.3846 0.9129
-38.3101 -21.5483 0.7425 0.8387
-35.2143 -21.5387 0.6973 0.8478
-23.9363 -21.4988 0.5435 0.8792
-20.6638 -21.4880 0.5036 0.8876
-21.9992 -7.5231 -0.1309 0.9112
-20.9403 -8.0276 -0.1263 0.9142
-41.8290 -21.5535 -0.2649 0.8284
-35.2110 -21.5367 -0.2324 0.8478
-30.0154 -21.5229 -0.2079 0.8627
-27.8045 -21.5194 -0.1979 0.8688
-25.7809 -21.5055 -0.1890 0.8743
-23.9362 -21.4987 -0.1811 0.8792
-22.2386 -21.4940 -0.1741 0.8836
-20.6640 -21.4881 -0.1678 0.8876
-38.3053 -21.5456 -1.2375 0.8387
-35.2077 -21.5346 -1.1621 0.8478
-32.4654 -21.5270 -1.0969 0.8557
-30.0124 -21.5207 -1.0399 0.8626
-25.7804 -21.5051 -0.9453 0.8743
-23.9362 -21.4986 -0.9059 0.8792
-20.6641 -21.4882 -0.8394 0.8875
-19.1987 -21.4842 -0.8113 0.8911
-40.5449 -7.5127 -2.0912 0.8478
-40.3080 -9.0047 -2.0946 0.8475
-40.8801 -17.4116 -2.2534 0.8370
-36.6552 -20.6175 -2.1328 0.8450
-35.2044 -21.5326 -2.0928 0.8477
-27.7992 -21.5153 -1.7828 0.8687
-23.9361 -21.4985 -1.6316 0.8791
-22.2385 -21.4938 -1.5685 0.8835
-20.6642 -21.4883 -1.5119 0.8875
-30.9114 -5.7276 -2.3051 0.8815
-28.3723 -8.5574 -2.1729 0.8879
-29.1699 -12.4240 -2.3247 0.8806
-28.7469 -13.5061 -2.3288 0.8804
-28.2864 -14.5753 -2.3332 0.8802
-27.7889 -15.6304 -2.3377 0.8800
-27.2546 -16.6702 -2.3425 0.8797
-26.0770 -18.6988 -2.3528 0.8792
-25.4345 -19.6852 -2.3582 0.8790
-23.7009 -19.7705 -2.2630 0.8836
-22.5802 -20.2809 -2.2254 0.8854
-20.6643 -21.4884 -2.1859 0.8873
-19.1988 -21.4844 -2.1126 0.8909
-22.0616 -6.6540 -2.2123 0.9116
-21.8285 -7.4647 -2.2148 0.9115
-21.5672 -8.2679 -2.2175 0.9114
-21.9539 -11.3124 -2.3710 0.9055
-21.1340 -12.9266 -2.3784 0.9052
-20.6816 -13.7134 -2.3824 0.9051
-20.2011 -14.4854 -2.3865 0.9049
-18.5965 -16.7029 -2.3998 0.9044
-19.6741 -3.6455 -2.3768 0.9226
-19.3848 -5.0813 -2.3804 0.9224
-19.2027 -5.7917 -2.3825 0.9224
-17.3810 -7.4029 -2.2441 0.9267
-17.5960 -9.8972 -2.3981 0.9219
-17.2447 -10.5477 -2.4012 0.9218
-16.8703 -11.1863 -2.4045 0.9217
-15.6121 -13.0231 -2.4150 0.9214
-15.1491 -13.6065 -2.4188 0.9213
-14.6650 -14.1740 -2.4227 0.9211
-13.6355 -15.2588 -2.4308 0.9209
-13.0912 -15.7746 -2.4350 0.9207
-16.6287 -3.0812 -2.3962 0.9340
-16.5152 -3.6894 -2.3977 0.9339
-16.3803 -4.2937 -2.3993 0.9339
-16.2243 -4.8934 -2.4011 0.9338
-15.1492 -5.8076 -2.2988 0.9366
-14.6783 -6.2518 -2.2606 0.9376
-14.4536 -6.7907 -2.2627 0.9375
-14.2098 -7.3220 -2.2649 0.9375
-13.9471 -7.8449 -2.2673 0.9374
-13.6659 -8.3587 -2.2698 0.9373
-13.3664 -8.8629 -2.2724 0.9373
-13.1628 -10.9800 -2.4287 0.9331
-12.7693 -11.4690 -2.4319 0.9330
-11.9297 -12.4055 -2.4386 0.9328
-11.4845 -12.8517 -2.4421 0.9327
-11.0230 -13.2824 -2.4456 0.9326
-14.3874 -2.6659 -2.4105 0.9424
-14.1700 -3.7144 -2.4132 0.9423
-14.0336 -4.2327 -2.4148 0.9423
-13.8789 -4.7462 -2.4164 0.9423
-12.2837 -6.3295 -2.2765 0.9455
-12.0550 -6.7806 -2.2785 0.9455
-11.8101 -7.2237 -2.2807 0.9454
-11.5495 -7.6582 -2.2829 0.9454
-11.2733 -8.0837 -2.2853 0.9453
-11.0260 -9.9033 -2.4415 0.9417
-9.5108 -11.4603 -2.4534 0.9414
-12.6673 -2.3472 -2.4215 0.9489
-12.5790 -2.8101 -2.4226 0.9489
-12.4743 -3.2698 -2.4239 0.9489
-12.2161 -4.1776 -2.4267 0.9488
-11.8938 -5.0658 -2.4299 0.9487
-11.7090 -5.5013 -2.4317 0.9487
-11.2367 -5.7900 -2.3759 0.9499
-10.3889 -6.3543 -2.2890 0.9516
-10.1584 -6.7358 -2.2910 0.9516
-9.6567 -7.4739 -2.2952 0.9515
-9.1026 -8.1757 -2.2997 0.9514
-8.4984 -8.8374 -2.3045 0.9513
-8.3560 -10.0688 -2.4594 0.9481
-11.3044 -2.0946 -2.4302 0.9541
-11.2249 -2.5076 -2.4312 0.9541
-11.0222 -3.3244 -2.4336 0.9540
-10.4445 -4.9071 -2.4393 0.9539
-9.0581 -6.0062 -2.2974 0.9565
-8.3669 -6.9794 -2.3031 0.9564
-8.1133 -7.2871 -2.3052 0.9564
-7.2871 -8.1547 -2.3117 0.9563
-6.9909 -8.4240 -2.3140 0.9562
-10.1967 -1.8894 -2.4373 0.9583
-10.1247 -2.2618 -2.4382 0.9583
-10.0394 -2.6316 -2.4392 0.9583
-9.9409 -2.9983 -2.4403 0.9582
-9.8293 -3.3614 -2.4415 0.9582
-9.7049 -3.7204 -2.4427 0.9582
-9.5673 -4.0751 -2.4441 0.9582
-8.0786 -5.7929 -2.3363 0.9600
-7.7592 -6.0053 -2.3060 0.9605
-7.3111 -6.5666 -2.3096 0.9604
-7.0719 -6.8352 -2.3115 0.9604
-6.8230 -7.0952 -2.3135 0.9604
-6.5647 -7.3463 -2.3155 0.9603
-6.2973 -7.5882 -2.3175 0.9603
-9.2779 -1.7191 -2.4431 0.9618
-9.1341 -2.3943 -2.4449 0.9617
-8.9423 -3.0580 -2.4470 0.9617
-8.5665 -4.0248 -2.4506 0.9616
-8.4176 -4.3379 -2.4520 0.9616
-8.0884 -4.9472 -2.4549 0.9616
-7.7151 -5.5322 -2.4581 0.9615
-6.4289 -6.2137 -2.3150 0.9637
-8.5028 -1.5755 -2.4481 0.9647
-8.4422 -1.8860 -2.4488 0.9647
-8.3705 -2.1941 -2.4497 0.9647
-8.2878 -2.4997 -2.4506 0.9647
-7.7126 -3.9741 -2.4562 0.9646
-5.9873 -5.7869 -2.3573 0.9660
-5.6796 -5.9060 -2.3196 0.9665
-7.7171 -2.0229 -2.4538 0.9672
-7.2348 -3.3991 -2.4587 0.9671
-6.9738 -3.9226 -2.4610 0.9671
-6.8292 -4.1771 -2.4623 0.9671
-6.6755 -4.4264 -2.4636 0.9670
-6.5128 -4.6701 -2.4650 0.9670
-6.3413 -4.9079 -2.4664 0.9670
-6.1613 -5.1396 -2.4679 0.9670
-5.5475 -5.7688 -2.4617 0.9671
-4.8276 -5.8171 -2.3251 0.9689
-7.2127 -1.6113 -2.4566 0.9693
-7.0800 -2.1354 -2.4581 0.9693
-6.9996 -2.3937 -2.4590 0.9693
-6.7032 -3.1494 -2.4619 0.9693
-6.5864 -3.3938 -2.4629 0.9693
-6.4609 -3.6341 -2.4641 0.9692
-6.1840 -4.1005 -2.4665 0.9692
-5.7070 -4.7606 -2.4704 0.9692
-5.5323 -4.9689 -2.4718 0.9691
-5.3500 -5.1709 -2.4733 0.9691
-4.7604 -5.7362 -2.4778 0.9691
-6.7130 -1.4997 -2.4598 0.9712
-6.4306 -2.4652 -2.4628 0.9712
-6.1291 -3.1582 -2.4657 0.9711
-6.0120 -3.3816 -2.4667 0.9711
-5.8870 -3.6008 -2.4678 0.9711
-5.7540 -3.8154 -2.4690 0.9711
-5.6134 -4.0251 -2.4701 0.9711
-5.4652 -4.2298 -2.4714 0.9711
-5.3096 -4.4291 -2.4726 0.9711
-4.8005 -4.9920 -2.4767 0.9710
-4.6174 -5.1672 -2.4781 0.9710
-6.2715 -1.4010 -2.4626 0.9728
-6.0854 -2.0811 -2.4647 0.9728
-5.9210 -2.5219 -2.4663 0.9728
-5.6156 -3.1586 -2.4691 0.9728
-5.4986 -3.3632 -2.4701 0.9728
-5.2427 -3.7594 -2.4723 0.9727
-4.9587 -4.1364 -2.4746 0.9727
-4.8065 -4.3170 -2.4758 0.9727
-4.6478 -4.4922 -2.4771 0.9727
-4.4828 -4.6616 -2.4784 0.9727
-4.3116 -4.8250 -2.4797 0.9727
-4.1346 -4.9821 -2.4811 0.9726
-5.9209 -1.0971 -2.4645 0.9743
-5.8782 -1.3132 -2.4651 0.9743
-5.8276 -1.5276 -2.4657 0.9743
-5.7035 -1.9504 -2.4670 0.9743
-5.6300 -2.1583 -2.4678 0.9743
-5.5491 -2.3635 -2.4685 0.9743
-5.4608 -2.5657 -2.4694 0.9743
-5.0361 -3.3393 -2.4731 0.9742
-4.6462 -3.8758 -2.4763 0.9742
-4.1999 -4.3675 -2.4799 0.9742
-4.0395 -4.5204 -2.4811 0.9741
-3.8734 -4.6674 -2.4824 0.9741
-5.4228 -1.6356 -2.4685 0.9756
-5.2916 -2.0286 -2.4698 0.9756
-5.0424 -2.5983 -2.4722 0.9756
-4.8425 -2.9619 -2.4739 0.9755
-4.6167 -3.3105 -2.4759 0.9755
-4.3660 -3.6420 -2.4779 0.9755
-4.0918 -3.9548 -2.4801 0.9755
-5.1614 -1.3530 -2.4699 0.9768
-5.0512 -1.7274 -2.4711 0.9767
-4.7509 -2.4480 -2.4739 0.9767
-4.4589 -2.9566 -2.4765 0.9767
-4.3494 -3.1188 -2.4774 0.9767
-4.2341 -3.2770 -2.4783 0.9767
-4.1131 -3.4310 -2.4793 0.9767
-3.8545 -3.7255 -2.4814 0.9766
-3.5751 -4.0008 -2.4836 0.9766
-3.4280 -4.1307 -2.4847 0.9766
-4.9526 -0.9177 -2.4707 0.9778
-4.9166 -1.0984 -2.4712 0.9778
-4.8742 -1.2777 -2.4717 0.9778
-4.7082 -1.8050 -2.4734 0.9778
-4.5663 -2.1454 -2.4748 0.9778
-4.3999 -2.4749 -2.4763 0.9778
-4.3079 -2.6350 -2.4771 0.9778
-3.9976 -3.0940 -2.4797 0.9777
-3.8833 -3.2394 -2.4806 0.9777
-3.6390 -3.5173 -2.4826 0.9777
-3.3751 -3.7769 -2.4846 0.9777
-3.2362 -3.8995 -2.4857 0.9777
-4.6861 -0.8683 -2.4724 0.9788
-4.6520 -1.0392 -2.4729 0.9787
-4.6118 -1.2089 -2.4733 0.9787
-4.5654 -1.3770 -2.4738 0.9787
-4.5130 -1.5433 -2.4744 0.9787
-4.4546 -1.7077 -2.4750 0.9787
-4.3903 -1.8699 -2.4756 0.9787
-4.3201 -2.0298 -2.4763 0.9787
-4.2442 -2.1870 -2.4769 0.9787
-4.1626 -2.3414 -2.4777 0.9787
-4.0755 -2.4928 -2.4784 0.9787
-3.9829 -2.6410 -2.4792 0.9787
-3.8850 -2.7858 -2.4800 0.9787
-3.4423 -3.3271 -2.4836 0.9787
-3.3197 -3.4521 -2.4846 0.9786
-3.1925 -3.5726 -2.4856 0.9786
-4.4414 -0.8230 -2.4740 0.9796
-4.3709 -1.1457 -2.4748 0.9796
-4.3269 -1.3050 -2.4753 0.9796
-4.2772 -1.4627 -2.4758 0.9796
-4.2218 -1.6185 -2.4764 0.9796
-4.1608 -1.7722 -2.4770 0.9796
-3.8622 -2.3623 -2.4797 0.9796
-3.4811 -2.9038 -2.4829 0.9795
-3.2618 -3.1527 -2.4846 0.9795
-3.1455 -3.2710 -2.4855 0.9795
-2.9003 -3.4948 -2.4874 0.9795
-4.1850 -0.9349 -2.4758 0.9804
-4.1488 -1.0875 -2.4762 0.9804
-4.0598 -1.3883 -2.4772 0.9804
-4.0071 -1.5362 -2.4777 0.9804
-3.9492 -1.6820 -2.4783 0.9804
-3.8176 -1.9671 -2.4795 0.9804
-3.7441 -2.1060 -2.4802 0.9804
-3.6656 -2.2421 -2.4808 0.9803
-3.5822 -2.3753 -2.4815 0.9803
-3.4011 -2.6323 -2.4831 0.9803
-2.9851 -3.1041 -2.4864 0.9803
-2.8706 -3.2123 -2.4873 0.9803
-2.7522 -3.3164 -2.4882 0.9803
