ply
format ascii 1.0
element vertex 565
property float32 x
property float32 y
property float32 z
property float32 I
end_header
-1.7792 -21.4285 3.7914 0.9164
-1.0123 -21.4254 3.7821 0.9166
-0.2482 -21.4223 3.7776 0.9167
2.0512 -21.4591 3.8011 0.9162
3.8670 -23.0028 4.1129 0.9096
43.5291 -18.7472 8.3569 0.8249
-1.7793 -21.4285 3.2940 0.9167
-1.0123 -21.4254 3.2859 0.9169
-0.2482 -21.4223 3.2820 0.9170
0.5151 -21.4223 3.2827 0.9169
1.2778 -21.3884 3.2824 0.9169
2.0512 -21.4595 3.3025 0.9165
2.8743 -21.8282 3.3728 0.9148
3.8683 -23.0106 3.5746 0.9099
31.3519 -25.9653 6.2362 0.8481
31.8117 -24.4894 6.1502 0.8501
-0.2482 -21.4223 2.7898 0.9172
2.0512 -21.4599 2.8073 0.9167
3.8696 -23.0183 3.0395 0.9101
31.4471 -37.2624 6.3494 0.8215
31.4019 -32.2407 5.8607 0.8340
31.3818 -30.0036 5.6538 0.8393
31.3632 -27.9166 5.4677 0.8442
31.3457 -25.9601 5.3000 0.8486
34.7162 -24.8073 5.5564 0.8419
38.0156 -25.1689 5.9371 0.8320
-1.7792 -21.4284 2.3089 0.9171
-1.0123 -21.4253 2.3033 0.9173
-0.2482 -21.4222 2.3005 0.9174
0.5151 -21.4207 2.3009 0.9174
2.0513 -21.4603 2.3149 0.9169
2.8748 -21.8323 2.3646 0.9152
3.8709 -23.0260 2.5073 0.9103
31.4165 -34.6432 5.0219 0.8285
31.3395 -25.9550 4.3696 0.8490
31.8105 -24.4884 4.3108 0.8509
41.8045 -25.5837 5.2630 0.8210
0.5151 -21.4200 1.8138 0.9176
2.0513 -21.4607 1.8250 0.9171
31.3883 -32.2267 3.8082 0.8348
31.3687 -29.9910 3.6738 0.8401
31.3504 -27.9052 3.5529 0.8449
31.3334 -25.9499 3.4440 0.8493
38.0139 -25.1678 3.8593 0.8328
41.8035 -25.5831 4.1489 0.8214
-1.0123 -21.4252 1.3301 0.9176
-0.2482 -21.4222 1.3285 0.9177
0.5151 -21.4192 1.3286 0.9177
2.0514 -21.4611 1.3369 0.9172
2.8754 -21.8363 1.3658 0.9155
3.8735 -23.0413 1.4488 0.9106
31.3815 -32.2197 2.7890 0.8351
31.3621 -29.9848 2.6906 0.8404
31.3272 -25.9449 2.5223 0.8496
34.7141 -24.8058 2.6457 0.8428
38.0131 -25.1673 2.8270 0.8330
41.8026 -25.5825 3.0391 0.8217
-1.7792 -21.4283 0.8478 0.9175
1.2776 -21.3860 0.8448 0.9178
2.0514 -21.4615 0.8501 0.9173
2.8756 -21.8383 0.8685 0.9156
3.8748 -23.0490 0.9216 0.9107
31.3953 -34.6199 1.8428 0.8294
31.3747 -32.2128 1.7731 0.8353
31.3556 -29.9785 1.7105 0.8406
31.3378 -27.8940 1.6543 0.8454
31.8086 -24.4870 1.5829 0.8516
34.7134 -24.8053 1.6823 0.8430
38.0122 -25.1667 1.7976 0.8332
-1.0123 -21.4252 0.3623 0.9178
-0.2482 -21.4221 0.3619 0.9179
0.5150 -21.4178 0.3619 0.9179
1.2776 -21.3856 0.3619 0.9179
2.0515 -21.4619 0.3642 0.9174
3.8760 -23.0566 0.3949 0.9107
31.3883 -34.6121 0.7893 0.8295
31.3491 -29.9723 0.7326 0.8407
31.3315 -27.8884 0.7085 0.8455
34.7126 -24.8047 0.7207 0.8431
38.0114 -25.1661 0.7701 0.8333
41.8005 -25.5813 0.8278 0.8220
44.3131 -20.9865 0.8282 0.8219
-1.0123 -21.4251 -0.1208 0.9178
-0.2482 -21.4220 -0.1206 0.9179
1.2775 -21.3851 -0.1206 0.9179
2.0515 -21.4623 -0.1214 0.9174
2.8762 -21.8423 -0.1240 0.9156
3.8773 -23.0642 -0.1317 0.9107
31.3813 -34.6044 -0.2630 0.8296
31.3090 -25.9297 -0.2289 0.8499
38.0105 -25.1656 -0.2567 0.8333
41.7996 -25.5807 -0.2759 0.8220
-1.7792 -21.4282 -0.6054 0.9176
-0.2482 -21.4220 -0.6032 0.9178
1.2775 -21.3846 -0.6032 0.9178
2.0515 -21.4627 -0.6071 0.9173
2.8764 -21.8443 -0.6204 0.9156
18.7661 -42.4846 -1.3078 0.8304
31.3545 -32.1921 -1.2654 0.8354
41.7986 -25.5801 -1.3799 0.8219
37.6771 -17.8437 -1.1739 0.8464
-0.2482 -21.4220 -1.0865 0.9178
0.5150 -21.4155 -1.0864 0.9178
2.0516 -21.4631 -1.0934 0.9173
17.0227 -42.5802 -2.3256 0.8322
18.6681 -42.2627 -2.3431 0.8311
31.3884 -37.1928 -2.4681 0.8229
31.3478 -32.1851 -2.2785 0.8353
31.2968 -25.9197 -2.0608 0.8498
38.0089 -25.1645 -2.3118 0.8331
37.6813 -16.2287 -2.0807 0.8485
37.6914 -14.6645 -2.0511 0.8505
-1.0123 -21.4250 -1.5727 0.9176
0.5149 -21.4148 -1.5706 0.9177
1.2775 -21.3837 -1.5707 0.9177
2.0516 -21.4635 -1.5809 0.9172
7.0927 -34.6016 -2.5898 0.8679
8.3466 -34.4342 -2.5979 0.8675
9.5974 -34.2201 -2.6059 0.8671
10.8431 -33.9595 -2.6138 0.8668
13.3119 -33.2981 -2.6294 0.8660
15.7382 -32.4507 -2.6444 0.8653
16.9308 -31.9572 -2.6517 0.8650
18.1069 -31.4180 -2.6588 0.8646
19.2649 -30.8337 -2.6658 0.8643
20.4027 -30.2045 -2.6726 0.8640
22.6104 -28.8143 -2.6855 0.8634
23.6765 -28.0548 -2.6917 0.8631
25.7241 -26.4112 -2.7033 0.8625
27.6471 -24.6088 -2.7139 0.8620
28.5575 -23.6509 -2.7188 0.8618
29.4646 -21.0546 -2.6553 0.8648
29.4586 -19.5035 -2.5905 0.8679
29.8828 -18.2878 -2.5688 0.8689
31.1826 -16.1520 -2.5749 0.8686
32.8143 -12.7670 -2.5817 0.8683
-1.0123 -21.4250 -2.0592 0.9174
0.5149 -21.4140 -2.0564 0.9175
2.8772 -21.8503 -2.1158 0.9152
3.8825 -23.0948 -2.2483 0.9102
5.0453 -24.6137 -2.4122 0.9040
5.9329 -24.4756 -2.4179 0.9038
7.2589 -25.8820 -2.5807 0.8976
10.0463 -25.1296 -2.5982 0.8970
10.9588 -24.8096 -2.6039 0.8967
12.7508 -24.0674 -2.6148 0.8963
15.3357 -22.7033 -2.6303 0.8957
16.1646 -22.1837 -2.6352 0.8956
16.9747 -21.6324 -2.6399 0.8954
17.7650 -21.0501 -2.6444 0.8952
18.5341 -20.4376 -2.6488 0.8951
20.0036 -19.1250 -2.6569 0.8948
21.3736 -17.7013 -2.6643 0.8945
22.6351 -16.1744 -2.6709 0.8942
24.3052 -13.7090 -2.6790 0.8939
24.7989 -12.8453 -2.6812 0.8938
25.2596 -11.9628 -2.6833 0.8938
25.6865 -11.0627 -2.6850 0.8937
-1.6456 -19.8192 -2.3623 0.9230
-0.2313 -19.9661 -2.3719 0.9227
0.4810 -20.0017 -2.3766 0.9226
1.1955 -20.0116 -2.3813 0.9224
1.9113 -19.9958 -2.3860 0.9223
2.6275 -19.9541 -2.3907 0.9221
3.3844 -20.1323 -2.4250 0.9211
4.2325 -20.6480 -2.5037 0.9186
5.0779 -20.9488 -2.5605 0.9168
5.8318 -20.7935 -2.5653 0.9167
7.3241 -20.4000 -2.5747 0.9164
8.7887 -19.8968 -2.5838 0.9161
10.2174 -19.2854 -2.5925 0.9158
10.9155 -18.9399 -2.5967 0.9157
11.6015 -18.5683 -2.6008 0.9156
14.8134 -16.3348 -2.6194 0.9150
16.5308 -14.7141 -2.6288 0.9147
17.0628 -14.1311 -2.6317 0.9146
18.5253 -12.2650 -2.6391 0.9144
18.9658 -11.6067 -2.6413 0.9143
19.7718 -10.2414 -2.6450 0.9142
20.1361 -9.5363 -2.6466 0.9142
20.4737 -8.8177 -2.6480 0.9141
-1.4678 -17.6780 -2.5134 0.9308
-0.2062 -17.7975 -2.5219 0.9306
1.0650 -17.8264 -2.5303 0.9304
2.3391 -17.7637 -2.5387 0.9302
4.8693 -17.3618 -2.5549 0.9297
5.4931 -17.2038 -2.5588 0.9296
6.7241 -16.8194 -2.5665 0.9294
7.3296 -16.5933 -2.5702 0.9293
7.9272 -16.3449 -2.5739 0.9292
9.6647 -15.4685 -2.5844 0.9290
10.2226 -15.1337 -2.5876 0.9289
10.7684 -14.7782 -2.5908 0.9288
11.3014 -14.4023 -2.5939 0.9287
11.8208 -14.0066 -2.5969 0.9286
12.3256 -13.5916 -2.5997 0.9286
12.8154 -13.1577 -2.6025 0.9285
14.1862 -11.7488 -2.6099 0.9283
14.6079 -11.2455 -2.6121 0.9282
15.0110 -10.7264 -2.6141 0.9282
15.3948 -10.1924 -2.6160 0.9281
15.7587 -9.6440 -2.6178 0.9281
16.1021 -9.0822 -2.6194 0.9280
16.4245 -8.5076 -2.6208 0.9280
-1.2616 -15.1952 -2.5119 0.9401
-0.7207 -15.2526 -2.5155 0.9400
-0.1771 -15.2906 -2.5191 0.9399
2.0078 -15.2473 -2.5335 0.9396
4.1757 -14.8888 -2.5474 0.9392
5.2388 -14.5919 -2.5541 0.9391
5.7626 -14.4144 -2.5573 0.9390
8.2746 -13.2435 -2.5726 0.9387
9.2162 -12.6479 -2.5781 0.9385
9.6707 -12.3241 -2.5807 0.9385
10.1134 -11.9835 -2.5832 0.9384
10.5437 -11.6266 -2.5857 0.9384
10.9610 -11.2537 -2.5880 0.9383
11.3646 -10.8654 -2.5902 0.9382
12.1284 -10.0446 -2.5943 0.9382
12.4874 -9.6131 -2.5961 0.9381
12.8305 -9.1683 -2.5979 0.9381
14.0335 -7.2691 -2.6036 0.9379
14.2896 -6.7674 -2.6047 0.9379
14.5269 -6.2565 -2.6057 0.9379
14.7453 -5.7369 -2.6065 0.9379
-0.6312 -13.3595 -2.5139 0.9470
0.8006 -13.4011 -2.5234 0.9468
1.2790 -13.3807 -2.5265 0.9468
1.7570 -13.3431 -2.5296 0.9467
2.2339 -13.2882 -2.5327 0.9466
2.7091 -13.2161 -2.5358 0.9466
5.0370 -12.5993 -2.5504 0.9463
6.3727 -12.0284 -2.5586 0.9461
6.8039 -11.8057 -2.5612 0.9461
7.6419 -11.3132 -2.5661 0.9459
8.8287 -10.4612 -2.5730 0.9458
9.5663 -9.8219 -2.5771 0.9457
10.2562 -9.1291 -2.5808 0.9456
10.5820 -8.7638 -2.5825 0.9456
10.8942 -8.3866 -2.5842 0.9456
11.1926 -7.9979 -2.5857 0.9455
11.4766 -7.5983 -2.5871 0.9455
-0.5610 -11.8733 -2.5126 0.9526
-0.1378 -11.8992 -2.5154 0.9525
3.6548 -11.4467 -2.5399 0.9521
4.0643 -11.3206 -2.5425 0.9520
4.4694 -11.1797 -2.5450 0.9520
5.2641 -10.8538 -2.5499 0.9519
7.1350 -9.7918 -2.5610 0.9517
7.4851 -9.5389 -2.5630 0.9516
7.8261 -9.2732 -2.5649 0.9516
8.7889 -8.4029 -2.5703 0.9515
9.0884 -8.0896 -2.5719 0.9515
9.3763 -7.7653 -2.5734 0.9514
10.1670 -6.7312 -2.5774 0.9514
10.4049 -6.3676 -2.5786 0.9514
10.6294 -5.9954 -2.5796 0.9513
10.8402 -5.6150 -2.5806 0.9513
11.0369 -5.2270 -2.5814 0.9513
-0.8834 -10.6390 -2.5090 0.9571
0.6392 -10.6996 -2.5191 0.9569
1.4021 -10.6480 -2.5241 0.9568
2.1608 -10.5415 -2.5290 0.9567
2.5373 -10.4677 -2.5314 0.9567
3.2822 -10.2796 -2.5361 0.9566
4.3717 -9.8971 -2.5429 0.9565
5.0737 -9.5767 -2.5471 0.9564
5.4160 -9.3975 -2.5492 0.9564
5.7518 -9.2058 -2.5512 0.9564
6.4021 -8.7860 -2.5550 0.9563
6.7158 -8.5584 -2.5568 0.9563
7.3178 -8.0693 -2.5602 0.9562
7.6053 -7.8084 -2.5618 0.9562
7.8833 -7.5370 -2.5633 0.9562
8.1513 -7.2555 -2.5647 0.9562
8.6561 -6.6636 -2.5674 0.9561
8.8921 -6.3540 -2.5686 0.9561
9.3296 -5.7096 -2.5707 0.9561
9.5305 -5.3756 -2.5716 0.9560
9.8952 -4.6863 -2.5732 0.9560
10.0585 -4.3320 -2.5739 0.9560
10.2087 -3.9718 -2.5745 0.9560
0.9261 -9.6881 -2.5198 0.9606
1.6163 -9.6146 -2.5243 0.9605
1.9595 -9.5592 -2.5265 0.9605
2.3007 -9.4915 -2.5287 0.9604
2.6396 -9.4115 -2.5308 0.9604
2.9756 -9.3193 -2.5330 0.9604
3.6375 -9.0986 -2.5371 0.9603
4.2827 -8.8302 -2.5410 0.9603
4.5979 -8.6786 -2.5429 0.9602
4.9077 -8.5155 -2.5448 0.9602
5.2116 -8.3412 -2.5466 0.9602
6.8883 -7.0723 -2.5562 0.9600
7.3821 -6.5708 -2.5588 0.9600
7.6151 -6.3067 -2.5601 0.9600
7.8384 -6.0342 -2.5612 0.9600
8.4473 -5.1696 -2.5642 0.9599
8.7995 -4.5579 -2.5658 0.9599
9.1062 -3.9219 -2.5671 0.9599
-0.4185 -8.8564 -2.5100 0.9638
-0.1028 -8.8731 -2.5121 0.9638
0.2135 -8.8786 -2.5142 0.9638
0.5301 -8.8727 -2.5163 0.9637
0.8465 -8.8555 -2.5183 0.9637
2.1023 -8.6732 -2.5264 0.9636
2.4118 -8.5995 -2.5284 0.9636
2.7187 -8.5146 -2.5303 0.9635
3.3229 -8.3118 -2.5341 0.9635
3.6195 -8.1940 -2.5359 0.9634
3.9118 -8.0655 -2.5377 0.9634
4.1995 -7.9265 -2.5394 0.9634
4.4821 -7.7771 -2.5411 0.9634
5.0308 -7.4477 -2.5443 0.9633
5.2961 -7.2682 -2.5459 0.9633
5.8068 -6.8806 -2.5488 0.9633
6.7387 -5.9981 -2.5539 0.9632
7.1547 -5.5078 -2.5561 0.9632
7.5342 -4.9882 -2.5580 0.9631
7.8752 -4.4419 -2.5596 0.9631
8.3102 -3.5790 -2.5615 0.9631
8.4339 -3.2814 -2.5619 0.9631
-0.6745 -8.1242 -2.5074 0.9665
-0.3850 -8.1494 -2.5094 0.9664
-0.0946 -8.1642 -2.5113 0.9664
0.4877 -8.1627 -2.5152 0.9664
1.3587 -8.0823 -2.5208 0.9663
1.9335 -7.9767 -2.5245 0.9662
3.0553 -7.6424 -2.5315 0.9661
3.3278 -7.5337 -2.5332 0.9661
3.5963 -7.4151 -2.5348 0.9661
4.1203 -7.1491 -2.5380 0.9661
4.3749 -7.0020 -2.5395 0.9660
4.6241 -6.8457 -2.5409 0.9660
4.8678 -6.6803 -2.5424 0.9660
5.5612 -6.1324 -2.5463 0.9659
5.7789 -5.9332 -2.5475 0.9659
5.9893 -5.7262 -2.5486 0.9659
6.3870 -5.2897 -2.5508 0.9659
6.5739 -5.0607 -2.5517 0.9659
7.3777 -3.8215 -2.5556 0.9658
7.5108 -3.5571 -2.5561 0.9658
-0.6241 -7.5163 -2.5071 0.9687
-0.3562 -7.5392 -2.5089 0.9687
-0.0875 -7.5524 -2.5106 0.9687
0.1817 -7.5561 -2.5124 0.9686
0.4511 -7.5502 -2.5142 0.9686
0.7202 -7.5346 -2.5160 0.9686
1.2566 -7.4745 -2.5194 0.9686
1.7879 -7.3760 -2.5228 0.9685
2.3115 -7.2395 -2.5261 0.9685
2.5696 -7.1571 -2.5277 0.9685
3.0764 -6.9646 -2.5309 0.9684
3.5686 -6.7358 -2.5338 0.9684
3.8084 -6.6082 -2.5353 0.9684
4.9318 -5.8437 -2.5418 0.9683
5.1392 -5.6670 -2.5430 0.9683
5.3401 -5.4827 -2.5441 0.9683
5.5343 -5.2912 -2.5451 0.9682
5.7215 -5.0927 -2.5461 0.9682
6.0739 -4.6758 -2.5480 0.9682
6.2387 -4.4580 -2.5488 0.9682
6.3954 -4.2342 -2.5496 0.9682
6.6842 -3.7702 -2.5509 0.9682
6.8159 -3.5305 -2.5515 0.9682
7.0527 -3.0374 -2.5525 0.9681
7.1575 -2.7847 -2.5529 0.9681
-0.5800 -6.9857 -2.5067 0.9707
-0.3311 -7.0066 -2.5084 0.9706
-0.0813 -7.0186 -2.5101 0.9706
0.1688 -7.0216 -2.5117 0.9706
0.4191 -7.0158 -2.5134 0.9706
0.9188 -6.9771 -2.5166 0.9705
1.4150 -6.9028 -2.5198 0.9705
1.6610 -6.8523 -2.5214 0.9705
2.1472 -6.7248 -2.5244 0.9705
2.6236 -6.5625 -2.5274 0.9704
3.0876 -6.3662 -2.5302 0.9704
3.3142 -6.2556 -2.5316 0.9704
3.9687 -5.8753 -2.5355 0.9703
4.1775 -5.7330 -2.5367 0.9703
4.3810 -5.5831 -2.5379 0.9703
4.9579 -5.0903 -2.5411 0.9703
5.4787 -4.5374 -2.5439 0.9702
5.6386 -4.3407 -2.5447 0.9702
5.9369 -3.9306 -2.5462 0.9702
6.4407 -3.0503 -2.5485 0.9702
-0.3088 -6.5373 -2.5080 0.9724
0.1576 -6.5507 -2.5111 0.9723
0.8570 -6.5084 -2.5157 0.9723
1.0890 -6.4776 -2.5172 0.9723
1.5491 -6.3911 -2.5201 0.9722
1.7769 -6.3354 -2.5215 0.9722
2.8791 -5.9363 -2.5283 0.9721
3.0903 -5.8329 -2.5296 0.9721
3.5011 -5.6035 -2.5321 0.9721
4.2689 -5.0583 -2.5365 0.9720
4.4482 -4.9050 -2.5375 0.9720
4.6218 -4.7452 -2.5385 0.9720
4.9514 -4.4072 -2.5402 0.9720
5.1069 -4.2294 -2.5411 0.9720
5.3982 -3.8574 -2.5425 0.9720
5.5336 -3.6636 -2.5432 0.9720
5.8968 -3.0544 -2.5449 0.9720
6.0029 -2.8429 -2.5454 0.9719
-0.5067 -6.1024 -2.5062 0.9739
-0.2892 -6.1202 -2.5076 0.9739
-0.0710 -6.1301 -2.5091 0.9739
0.8022 -6.0920 -2.5148 0.9738
1.0193 -6.0629 -2.5162 0.9738
1.2352 -6.0260 -2.5176 0.9738
1.4499 -5.9815 -2.5190 0.9737
2.0830 -5.8018 -2.5229 0.9737
2.2895 -5.7268 -2.5242 0.9737
2.4933 -5.6444 -2.5255 0.9737
2.6940 -5.5547 -2.5267 0.9737
2.8915 -5.4578 -2.5279 0.9737
3.0855 -5.3538 -2.5290 0.9736
3.2757 -5.2428 -2.5302 0.9736
3.4619 -5.1250 -2.5312 0.9736
3.6438 -5.0006 -2.5323 0.9736
3.8211 -4.8695 -2.5333 0.9736
4.1613 -4.5886 -2.5352 0.9736
4.3236 -4.4390 -2.5361 0.9736
4.4805 -4.2837 -2.5370 0.9736
4.6317 -4.1227 -2.5378 0.9736
4.7770 -3.9563 -2.5386 0.9735
5.0494 -3.6081 -2.5399 0.9735
5.1759 -3.4268 -2.5406 0.9735
5.5154 -2.8569 -2.5421 0.9735
5.6146 -2.6590 -2.5426 0.9735
5.7066 -2.4577 -2.5429 0.9735
5.7912 -2.2532 -2.5433 0.9735
0.1385 -5.7577 -2.5100 0.9752
0.3436 -5.7522 -2.5114 0.9752
0.5487 -5.7394 -2.5127 0.9752
0.7531 -5.7192 -2.5140 0.9751
0.9568 -5.6917 -2.5154 0.9751
1.1596 -5.6570 -2.5167 0.9751
1.3610 -5.6149 -2.5179 0.9751
1.7591 -5.5092 -2.5204 0.9751
1.9552 -5.4457 -2.5217 0.9751
2.1489 -5.3752 -2.5229 0.9751
2.7138 -5.1222 -2.5263 0.9750
3.2488 -4.8095 -2.5295 0.9750
3.4194 -4.6926 -2.5305 0.9750
3.5857 -4.5695 -2.5314 0.9750
4.3458 -3.8683 -2.5356 0.9749
4.7375 -3.3853 -2.5376 0.9749
4.9687 -3.0407 -2.5388 0.9749
5.0748 -2.8624 -2.5392 0.9749
5.1745 -2.6803 -2.5397 0.9749
5.3537 -2.3058 -2.5404 0.9749
5.4331 -2.1138 -2.5407 0.9749
-0.4479 -5.3947 -2.5057 0.9764
-0.2556 -5.4100 -2.5070 0.9764
-0.0628 -5.4185 -2.5083 0.9764
0.9006 -5.3573 -2.5146 0.9763
1.2810 -5.2847 -2.5170 0.9763
1.4691 -5.2381 -2.5182 0.9763
2.2021 -4.9854 -2.5228 0.9763
2.3793 -4.9059 -2.5238 0.9763
2.5536 -4.8200 -2.5249 0.9762
2.7248 -4.7279 -2.5259 0.9762
2.8927 -4.6297 -2.5269 0.9762
3.2173 -4.4153 -2.5288 0.9762
3.3737 -4.2994 -2.5297 0.9762
3.9552 -3.7815 -2.5329 0.9762
4.0886 -3.6392 -2.5336 0.9762
4.2167 -3.4922 -2.5343 0.9762
4.5684 -3.0246 -2.5361 0.9761
4.6742 -2.8605 -2.5366 0.9761
4.7740 -2.6927 -2.5371 0.9761
4.8676 -2.5213 -2.5375 0.9761
4.9551 -2.3467 -2.5378 0.9761
5.1108 -1.9884 -2.5385 0.9761
-0.4226 -5.0904 -2.5055 0.9775
-0.2412 -5.1047 -2.5068 0.9775
-0.0592 -5.1125 -2.5080 0.9775
0.1230 -5.1138 -2.5092 0.9775
0.4872 -5.0969 -2.5116 0.9774
0.8497 -5.0540 -2.5139 0.9774
1.0296 -5.0229 -2.5151 0.9774
1.3859 -4.9412 -2.5173 0.9774
1.5617 -4.8909 -2.5184 0.9774
1.7356 -4.8342 -2.5195 0.9774
1.9075 -4.7714 -2.5206 0.9774
2.2442 -4.6272 -2.5226 0.9773
2.4086 -4.5461 -2.5236 0.9773
2.5699 -4.4591 -2.5246 0.9773
3.0342 -4.1640 -2.5273 0.9773
3.1817 -4.0547 -2.5281 0.9773
3.4645 -3.8203 -2.5297 0.9773
3.9763 -3.2931 -2.5325 0.9773
4.2025 -3.0030 -2.5336 0.9773
4.3077 -2.8520 -2.5342 0.9772
4.4074 -2.6972 -2.5346 0.9772
4.5014 -2.5390 -2.5351 0.9772
4.5898 -2.3774 -2.5355 0.9772
4.7486 -2.0451 -2.5361 0.9772
4.8189 -1.8749 -2.5364 0.9772
-0.2280 -4.8262 -2.5065 0.9785
-0.0560 -4.8335 -2.5077 0.9785
0.1163 -4.8346 -2.5088 0.9784
0.4606 -4.8184 -2.5111 0.9784
0.9732 -4.7480 -2.5144 0.9784
1.1423 -4.7123 -2.5154 0.9784
1.3099 -4.6706 -2.5165 0.9784
1.9632 -4.4443 -2.5205 0.9783
2.1210 -4.3733 -2.5215 0.9783
2.2763 -4.2965 -2.5224 0.9783
2.5783 -4.1265 -2.5242 0.9783
2.7245 -4.0334 -2.5251 0.9783
2.8674 -3.9351 -2.5259 0.9783
3.0067 -3.8317 -2.5267 0.9783
3.1422 -3.7233 -2.5275 0.9783
3.5245 -3.3696 -2.5296 0.9783
3.7572 -3.1117 -2.5308 0.9783
3.9709 -2.8375 -2.5319 0.9782
4.1644 -2.5485 -2.5329 0.9782
4.2533 -2.3990 -2.5333 0.9782
4.3366 -2.2463 -2.5336 0.9782
4.4866 -1.9323 -2.5343 0.9782
4.5531 -1.7715 -2.5345 0.9782
-0.3785 -4.5583 -2.5052 0.9794
0.2733 -4.5738 -2.5095 0.9793
0.4362 -4.5631 -2.5106 0.9793
0.5987 -4.5465 -2.5117 0.9793
0.7606 -4.5242 -2.5127 0.9793
0.9216 -4.4961 -2.5137 0.9793
1.3977 -4.3773 -2.5167 0.9793
2.0082 -4.1406 -2.5205 0.9792
2.4409 -3.9068 -2.5231 0.9792
2.5794 -3.8186 -2.5239 0.9792
2.9747 -3.5248 -2.5261 0.9792
3.2198 -3.3058 -2.5275 0.9792
3.3364 -3.1898 -2.5281 0.9792
3.5567 -2.9456 -2.5293 0.9792
3.9420 -2.4124 -2.5312 0.9791
4.1049 -2.1263 -2.5320 0.9791
4.3097 -1.6768 -2.5328 0.9791
-0.2048 -4.3358 -2.5061 0.9802
-0.0503 -4.3422 -2.5071 0.9801
0.2592 -4.3383 -2.5092 0.9801
0.4137 -4.3280 -2.5102 0.9801
0.5679 -4.3123 -2.5112 0.9801
1.0259 -4.2320 -2.5141 0.9801
1.3255 -4.1513 -2.5160 0.9801
1.4731 -4.1030 -2.5169 0.9801
1.6189 -4.0494 -2.5178 0.9801
1.7627 -3.9905 -2.5187 0.9801
1.9044 -3.9266 -2.5195 0.9800
2.0437 -3.8575 -2.5204 0.9800
2.3146 -3.7046 -2.5220 0.9800
2.4459 -3.6209 -2.5228 0.9800
2.8206 -3.3421 -2.5249 0.9800
3.0529 -3.1345 -2.5262 0.9800
3.1634 -3.0244 -2.5268 0.9800
3.3722 -2.7928 -2.5279 0.9800
3.4702 -2.6714 -2.5284 0.9800
3.5638 -2.5466 -2.5289 0.9800
3.6529 -2.4185 -2.5293 0.9800
3.7373 -2.2872 -2.5297 0.9800
4.0263 -1.7340 -2.5310 0.9800
4.0859 -1.5897 -2.5312 0.9800
